<svg width="532" height="637" viewBox="0 0 532 637" fill="none" xmlns="http://www.w3.org/2000/svg">
<g clip-path="url(#clip0_4890_789)">
<path d="M265.9 636.019C390.169 636.019 490.91 606.958 490.91 571.109C490.91 535.26 390.169 506.199 265.9 506.199C141.63 506.199 40.8896 535.26 40.8896 571.109C40.8896 606.958 141.63 636.019 265.9 636.019Z" fill="#A7A9AC"/>
<path d="M171.96 586.11C167.982 586.11 164.166 584.53 161.353 581.717C158.54 578.904 156.96 575.088 156.96 571.11V544.34C116.602 526.449 81.2569 498.919 54.0298 464.17C26.8027 429.42 8.52734 388.516 0.80974 345.05C-0.534103 337.47 -0.201122 329.688 1.78526 322.251C3.77165 314.814 7.36322 307.902 12.3074 302.002C17.2516 296.102 23.4283 291.356 30.4032 288.099C37.3781 284.842 44.9819 283.153 52.6798 283.15H243.4V217.89C203.7 216.44 152.4 206.37 114.4 169.99L114.32 169.92C77.6397 134.78 61.0097 82.41 64.8797 14.26C65.0905 10.559 66.6643 7.06709 69.2976 4.45786C71.9308 1.84862 75.437 0.306857 79.1398 0.129974C79.4298 0.129974 82.0497 0 86.5997 0C102.53 0 144.19 1.50999 186.78 15.46C211.2 23.46 232.4 34.37 249.78 47.91C271.23 64.61 287.04 85.39 296.78 109.67L296.88 109.9C297.24 110.82 297.59 111.71 297.88 112.61L298.07 113.14C298.39 114 298.71 114.87 299.07 115.74L299.29 116.38C299.59 117.24 299.88 118.11 300.16 118.98L300.38 119.66C300.66 120.52 300.94 121.42 301.21 122.32L301.36 122.83C302.55 126.83 303.61 130.99 304.5 135.18L304.66 135.93C304.83 136.75 304.99 137.57 305.15 138.39L305.39 139.65C305.53 140.41 305.66 141.17 305.8 141.94L306.04 143.41C306.16 144.15 306.28 144.89 306.39 145.64C306.47 146.17 306.54 146.7 306.62 147.23C306.72 147.96 306.82 148.69 306.91 149.42L307.12 151.13C307.2 151.85 307.29 152.56 307.36 153.29C307.42 153.81 307.47 154.35 307.52 154.89L307.58 155.46C307.58 156.04 307.69 156.62 307.74 157.21L307.86 158.79L307.93 159.79C307.93 160.27 308.01 160.79 308.04 161.24C308.12 162.53 308.19 163.84 308.25 165.15C308.25 165.53 308.32 167.06 308.32 167.06C308.32 167.81 308.32 168.55 308.39 169.31C308.39 169.72 308.39 170.14 308.39 170.55C308.39 170.96 308.44 171.31 308.44 171.69V283.14H479.12C486.819 283.143 494.423 284.832 501.399 288.09C508.375 291.347 514.552 296.094 519.497 301.995C524.441 307.897 528.032 314.81 530.018 322.248C532.004 329.686 532.335 337.47 530.99 345.05C523.79 385.64 507.368 424.036 482.99 457.28C481.86 458.83 480.7 460.37 479.53 461.9C478.36 463.43 476.88 465.29 475.31 467.24C473.03 470.06 470.76 472.76 468.56 475.24C467.3 476.687 466.02 478.12 464.72 479.54C462.15 482.37 459.47 485.17 456.78 487.88C455.4 489.27 453.98 490.66 452.44 492.15C436.648 507.344 419.061 520.555 400.07 531.49C396.58 533.49 392.99 535.49 389.4 537.31C384.63 539.78 379.75 542.12 374.82 544.31V571.09C374.82 575.068 373.239 578.884 370.426 581.697C367.613 584.51 363.798 586.09 359.82 586.09L171.96 586.11Z" fill="#231F20"/>
<path d="M293.47 171.66H258.4V384.34H293.47V171.66Z" fill="#66BE64"/>
<path d="M79.8799 15.1095L291.88 200.37C314.72 4.04951 79.8799 15.1095 79.8799 15.1095Z" fill="#66BE64"/>
<path d="M79.8795 15.1094C67.0995 240.159 291.88 200.369 291.88 200.369L79.8795 15.1094Z" fill="#4CA84E"/>
<g style="mix-blend-mode:multiply">
<path d="M291.91 200.369C297 156.529 289.26 123.049 274.13 97.4492C225.86 169.769 124.73 159.049 124.73 159.049C187.16 218.909 291.91 200.369 291.91 200.369Z" fill="#4CA84E"/>
</g>
<path d="M230.683 88.4429C235.801 83.0743 231.758 70.9126 221.652 61.279C211.546 51.6454 199.205 48.1879 194.087 53.5566C188.97 58.9252 193.013 71.0869 203.119 80.7205C213.224 90.3541 225.565 93.8115 230.683 88.4429Z" fill="white"/>
<path d="M180.75 61.2598C184.478 61.2598 187.5 58.2377 187.5 54.5098C187.5 50.7818 184.478 47.7598 180.75 47.7598C177.022 47.7598 174 50.7818 174 54.5098C174 58.2377 177.022 61.2598 180.75 61.2598Z" fill="white"/>
<path d="M359.84 524.561H171.96V571.111H359.84V524.561Z" fill="#3B3B49"/>
<path d="M52.6798 298.141C47.1722 298.145 41.7323 299.356 36.7428 301.688C31.7532 304.02 27.335 307.416 23.7988 311.639C20.2626 315.861 17.6943 320.807 16.2743 326.128C14.8544 331.45 14.6173 337.018 15.5798 342.441C36.5798 461.701 140.64 552.311 265.9 552.311C391.16 552.311 495.26 461.701 516.26 342.441C517.222 337.018 516.985 331.45 515.565 326.128C514.145 320.807 511.577 315.861 508.041 311.639C504.505 307.416 500.086 304.02 495.097 301.688C490.107 299.356 484.667 298.145 479.16 298.141H52.6798Z" fill="#3B3B49"/>
<path d="M479.12 298.141H364.859C370.367 298.145 375.807 299.356 380.797 301.688C385.786 304.02 390.204 307.416 393.74 311.639C397.277 315.861 399.845 320.807 401.265 326.128C402.685 331.45 402.922 337.018 401.96 342.441C384.26 442.991 307.51 523.181 208.77 545.861C227.509 550.159 246.674 552.322 265.9 552.311C391.16 552.311 495.26 461.701 516.26 342.441C517.223 337.014 516.985 331.443 515.562 326.119C514.14 320.794 511.568 315.847 508.028 311.623C504.487 307.4 500.064 304.004 495.069 301.675C490.075 299.345 484.63 298.139 479.12 298.141Z" fill="#605C74"/>
<path d="M63.8297 364.659C74.6821 364.659 83.4797 355.862 83.4797 345.009C83.4797 334.157 74.6821 325.359 63.8297 325.359C52.9773 325.359 44.1797 334.157 44.1797 345.009C44.1797 355.862 52.9773 364.659 63.8297 364.659Z" fill="#605C74"/>
</g>
<defs>
<clipPath id="clip0_4890_789">
<rect width="531.8" height="636.03" fill="white"/>
</clipPath>
</defs>
</svg>
