<svg width="222" height="199" viewBox="0 0 222 199" fill="none" xmlns="http://www.w3.org/2000/svg">
<g clip-path="url(#clip0_2852_563)">
<path d="M169.17 4.31006H4.31006V169.17H169.17V4.31006Z" stroke="white" stroke-width="8.61" stroke-linecap="round" stroke-linejoin="round"/>
<path d="M74.2398 4.31006H43.5298V102.21H74.2398V4.31006Z" fill="#0C0E0F" stroke="white" stroke-width="8.61" stroke-linecap="round" stroke-linejoin="round"/>
<path d="M58.8799 102.21V169.17" stroke="white" stroke-width="8.61" stroke-linecap="round" stroke-linejoin="round"/>
<path d="M129.95 4.31006H99.2402V102.21H129.95V4.31006Z" fill="#0E1010" stroke="white" stroke-width="8.61" stroke-linecap="round" stroke-linejoin="round"/>
<path d="M114.59 102.21V169.17" stroke="white" stroke-width="8.61" stroke-linecap="round" stroke-linejoin="round"/>
<path d="M216.05 185.5C216.849 185.482 217.649 185.532 218.44 185.65C219.05 185.77 219.635 185.993 220.17 186.31C220.507 186.523 220.798 186.8 221.026 187.126C221.254 187.453 221.415 187.821 221.5 188.21C221.795 189.394 221.929 190.611 221.9 191.83C221.934 193.019 221.786 194.206 221.46 195.35C221.363 195.737 221.191 196.101 220.952 196.42C220.713 196.739 220.414 197.008 220.07 197.21C219.515 197.532 218.91 197.758 218.28 197.88C217.498 197.986 216.709 198.033 215.92 198.02H189.92C189.136 198.023 188.361 197.854 187.65 197.526C186.938 197.198 186.307 196.718 185.8 196.12C184.676 194.921 184.059 193.334 184.08 191.69C184.083 189.14 184.962 186.669 186.57 184.69C188.247 182.536 190.276 180.68 192.57 179.2C194.92 177.68 197.26 176.2 199.57 174.7C201.8 173.331 203.821 171.647 205.57 169.7C207.129 168.087 208.018 165.943 208.06 163.7C208.054 163.499 208.034 163.298 208 163.1C207.883 162.631 207.725 162.173 207.53 161.73C207.281 161.112 206.944 160.532 206.53 160.01C206.05 159.431 205.449 158.964 204.77 158.64C203.908 158.197 202.949 157.977 201.98 158C201.2 157.962 200.421 158.09 199.693 158.374C198.966 158.658 198.307 159.093 197.76 159.65C196.842 160.527 196.226 161.671 196 162.92L195.73 164.54V164.96C195.744 165.735 195.711 166.51 195.63 167.28C195.536 167.893 195.322 168.481 195 169.01C194.805 169.34 194.546 169.627 194.239 169.855C193.931 170.084 193.582 170.249 193.21 170.34C192.105 170.633 190.963 170.764 189.82 170.73C188.858 170.753 187.898 170.635 186.97 170.38C186.345 170.208 185.758 169.92 185.24 169.53C184.802 169.152 184.488 168.65 184.34 168.09C184.162 167.57 184.051 167.029 184.01 166.48C184.01 166.027 184.01 165.36 184.01 164.48C183.995 159.653 185.753 154.988 188.95 151.37C190.582 149.539 192.583 148.076 194.823 147.076C197.062 146.076 199.488 145.562 201.941 145.568C204.393 145.575 206.816 146.102 209.05 147.114C211.284 148.126 213.278 149.601 214.9 151.44C218.149 155.141 219.928 159.905 219.9 164.83C219.912 167.455 219.345 170.05 218.24 172.43C217.287 174.6 215.93 176.569 214.24 178.23C212.759 179.626 211.182 180.916 209.52 182.09C208.272 183.013 206.931 183.804 205.52 184.45L203.86 185.15V185.5H216.05Z" fill="white"/>
</g>
<defs>
<clipPath id="clip0_2852_563">
<rect width="221.89" height="198.02" fill="white"/>
</clipPath>
</defs>
</svg>
