<svg width="620" height="839" viewBox="0 0 620 839" fill="none" xmlns="http://www.w3.org/2000/svg">
<g clip-path="url(#clip0_4854_3224)">
<path d="M309.59 838.58C480.572 838.58 619.18 809.519 619.18 773.67C619.18 737.821 480.572 708.76 309.59 708.76C138.608 708.76 0 737.821 0 773.67C0 809.519 138.608 838.58 309.59 838.58Z" fill="#A7A9AC"/>
<path d="M161.71 785.6C158.903 785.599 156.127 785.008 153.563 783.864C150.999 782.719 148.705 781.048 146.83 778.959C144.955 776.87 143.54 774.409 142.679 771.737C141.817 769.065 141.528 766.241 141.83 763.45C141.83 763.33 141.96 762.2 142.12 760.26C142.12 759.76 142.2 759.26 142.24 758.65C142.46 755.65 142.76 750.95 142.92 745.23C142.92 744.23 142.97 743.23 142.99 742.13V740.5C142.99 739.42 142.99 738.31 142.99 737.18C142.99 732.25 142.87 727.42 142.62 722.82C142.49 720.26 142.31 717.73 142.09 715.32C141.98 714.07 141.86 712.81 141.72 711.56C141.58 710.31 141.44 709.08 141.28 707.83C141.12 706.58 140.95 705.38 140.76 704.16C140.66 703.56 140.57 702.95 140.47 702.35C140.27 701.15 140.05 699.96 139.82 698.78C139.71 698.21 139.59 697.63 139.47 697.06C138.708 693.293 137.706 689.579 136.47 685.94C136.31 685.47 136.14 685 135.96 684.54C135.334 682.837 134.62 681.168 133.82 679.54C133.28 678.46 132.71 677.44 132.13 676.54C130.55 674.02 128.86 671.38 126.96 668.48C125.34 666.01 123.78 663.67 122.29 661.48L122.05 661.12C120.41 658.66 118.85 656.32 117.36 654.04C116.32 652.453 115.32 650.887 114.36 649.34C113.3 647.64 112.36 646.07 111.46 644.54C110.46 642.82 109.56 641.18 108.7 639.54C106.849 636.044 105.2 632.445 103.76 628.76C103.01 626.83 102.31 624.86 101.69 622.91C100.69 619.91 99.9 616.72 99.21 613.51C97.2787 603.876 96.3637 594.065 96.4801 584.24V201.42C96.4241 193.866 96.9356 186.318 98.0101 178.84C98.9464 172.35 100.514 165.966 102.69 159.78C103.03 158.78 103.39 157.84 103.76 156.89C104.48 155.04 105.27 153.18 106.12 151.35C106.52 150.47 106.94 149.59 107.37 148.71C108.2 147.03 109.1 145.32 110.06 143.6C111.02 141.88 111.86 140.42 112.89 138.71C113.8 137.2 114.77 135.65 115.89 133.97C117.89 130.82 120.03 127.63 122.09 124.54L122.28 124.26C125.42 119.55 128.67 114.69 132.17 109.08C134.212 105.664 135.834 102.015 137 98.21C138.362 93.8989 139.437 89.5028 140.22 85.05C140.427 83.8567 140.627 82.6566 140.82 81.45C141.69 75.75 142.32 69.45 142.68 62.78C142.93 58.18 143.06 53.35 143.05 48.42C143.05 33.48 141.86 22.25 141.85 22.14C141.55 19.3496 141.84 16.5272 142.702 13.8563C143.564 11.1855 144.979 8.72605 146.854 6.63782C148.729 4.54958 151.023 2.87933 153.586 1.73572C156.149 0.592108 158.924 0.000726939 161.73 0H529.16C531.902 0.000414298 534.614 0.564524 537.128 1.65723C539.643 2.74993 541.906 4.34789 543.776 6.35193C545.647 8.35597 547.086 10.7233 548.004 13.3068C548.921 15.8903 549.298 18.6348 549.11 21.37C549.11 21.63 549.11 21.88 549.04 22.13C549.04 22.13 548.95 23.0299 548.95 23.0599L548.78 25.0599C548.78 25.0599 548.71 25.92 548.7 25.97C548.63 26.89 548.55 27.97 548.48 29.14L548.39 30.5C548.27 32.5 548.17 34.57 548.08 36.6V36.67C547.96 39.74 547.88 42.83 547.85 45.85V45.95C547.85 49.47 547.85 52.95 547.95 56.33C547.955 56.3832 547.955 56.4368 547.95 56.49C548.03 59.49 548.17 62.4899 548.36 65.3199V65.51C548.36 66.18 548.45 66.86 548.5 67.51V67.6801C548.56 68.4801 548.62 69.2101 548.69 69.9301C550.61 92.16 555.19 103.5 558.69 109.11C562.19 114.72 565.46 119.62 568.61 124.34C582.99 145.86 594.34 162.86 594.34 201.45V584.22C594.34 614.54 587.5 631.61 576.46 649.31C575.46 650.85 574.46 652.41 573.46 654.01C572.46 655.61 571.46 657.11 570.36 658.71L567.81 662.54C566.53 664.45 565.22 666.42 563.81 668.49C561.91 671.39 560.21 674.03 558.64 676.55C558.06 677.48 557.49 678.5 556.95 679.55C556.15 681.178 555.436 682.847 554.81 684.55C554.63 685.01 554.46 685.48 554.3 685.95C553.066 689.586 552.064 693.297 551.3 697.06C551.18 697.63 551.06 698.21 550.95 698.8C550.72 699.98 550.5 701.17 550.3 702.36C550.2 702.95 550.11 703.55 550.01 704.16C549.82 705.39 549.65 706.62 549.49 707.84C549.33 709.06 549.18 710.33 549.05 711.57C548.92 712.81 548.79 714.08 548.68 715.33V715.7C548.61 716.44 548.55 717.16 548.5 717.88V718.08C548.5 718.81 548.4 719.48 548.36 720.16V720.34C548.17 723.2 548.03 726.18 547.95 729.18V729.26C547.85 732.727 547.817 736.227 547.85 739.76V739.82C547.85 742.82 547.96 745.88 548.08 748.93V749.02C548.17 751.02 548.27 753.09 548.39 755.09C548.39 755.09 548.47 756.4 548.47 756.42C548.55 757.66 548.64 758.76 548.71 759.72L548.85 761.44L549.05 763.55C549.338 766.335 549.039 769.15 548.171 771.811C547.302 774.473 545.885 776.923 544.01 779.003C542.135 781.082 539.845 782.745 537.287 783.883C534.729 785.021 531.96 785.609 529.16 785.61L161.71 785.6Z" fill="#231F20"/>
<path d="M161.71 765.6C161.71 765.6 169.05 697.82 149.11 665.92C129.17 634.02 116.5 624.06 116.5 584.19V201.42C116.5 161.54 129.18 151.58 149.11 119.68C169.04 87.7801 161.71 20 161.71 20H515.86C515.86 20 523.2 87.7801 503.26 119.68C483.32 151.58 470.65 161.54 470.65 201.42V584.19C470.65 624.06 483.33 634.03 503.26 665.92C523.19 697.81 515.86 765.6 515.86 765.6H161.71Z" fill="#71A29E"/>
<path d="M183.7 665.92C163.76 634.03 151.09 624.06 151.09 584.19V201.42C151.09 161.54 163.76 151.58 183.7 119.68C203.64 87.7801 196.3 20 196.3 20H161.71C161.71 20 169.05 87.7801 149.11 119.68C129.17 151.58 116.5 161.54 116.5 201.42V584.19C116.5 624.06 129.18 634.03 149.11 665.92C169.04 697.81 161.71 765.6 161.71 765.6H196.3C196.3 765.6 203.59 697.82 183.7 665.92Z" fill="#587B75"/>
<path d="M529.16 765.6C529.16 765.6 521.82 697.82 541.76 665.92C561.7 634.02 574.37 624.06 574.37 584.19V201.42C574.37 161.54 561.69 151.58 541.76 119.68C521.83 87.7801 529.16 20 529.16 20H175.01C175.01 20 167.67 87.7801 187.61 119.68C207.55 151.58 220.22 161.54 220.22 201.42V584.19C220.22 624.06 207.55 634.03 187.61 665.92C167.67 697.81 175.01 765.6 175.01 765.6H529.16Z" fill="#C5E6DC"/>
<path d="M574.37 323.03H220.22V462.58H574.37V323.03Z" fill="#48BEA2"/>
<path d="M401.25 541.32C483.275 541.32 549.77 474.826 549.77 392.8C549.77 310.775 483.275 244.28 401.25 244.28C319.225 244.28 252.73 310.775 252.73 392.8C252.73 474.826 319.225 541.32 401.25 541.32Z" fill="#FAF28C"/>
<path d="M529.16 20H175.01C173.409 37.1676 173.282 54.4407 174.63 71.63H528.78C527.426 54.441 527.553 37.1673 529.16 20Z" fill="#98CFC0"/>
<path d="M174.59 713.97C173.241 731.159 173.369 748.432 174.97 765.6H529.16C527.553 748.432 527.425 731.159 528.78 713.97H174.59Z" fill="#98CFC0"/>
<g style="mix-blend-mode:multiply">
<path d="M219.59 598.54C216.76 627.06 204.94 638.24 187.59 665.91C167.65 697.81 174.99 765.59 174.99 765.59H529.16C529.16 765.59 521.82 697.81 541.76 665.91C561.7 634.01 574.37 624.05 574.37 584.18V201.42C574.37 201.42 550.59 598.54 219.59 598.54Z" fill="#CEEAE2"/>
</g>
<path d="M523.96 593.2C543.185 593.2 558.77 577.615 558.77 558.39C558.77 539.165 543.185 523.58 523.96 523.58C504.735 523.58 489.15 539.165 489.15 558.39C489.15 577.615 504.735 593.2 523.96 593.2Z" fill="#E9F3F9"/>
<g style="mix-blend-mode:multiply">
<path d="M574.37 584.19V499.08L572.43 496.96C572.43 496.96 560.78 675.96 187.61 665.96C167.67 697.86 175.01 765.64 175.01 765.64H529.16C529.16 765.64 521.82 697.86 541.76 665.96C561.7 634.06 574.37 624.06 574.37 584.19Z" fill="#CEEAE2"/>
</g>
<path d="M257.36 195.24C256.511 194.376 255.964 193.261 255.8 192.06C255.8 190.86 256.66 189.42 258.38 187.74C259.152 186.885 260.23 186.368 261.38 186.3C262.62 186.3 264.14 187.2 265.94 189L266.24 189.3C266.938 190.171 267.819 190.878 268.82 191.37C269.631 191.878 270.564 192.158 271.52 192.181C275.24 192.181 277.1 190.66 277.1 187.62C277.079 187.133 276.925 186.66 276.655 186.253C276.386 185.846 276.011 185.52 275.57 185.31C274.392 184.633 273.101 184.176 271.76 183.96C270.087 183.639 268.443 183.188 266.84 182.61C265.142 182.018 263.496 181.286 261.92 180.42C260.298 179.474 258.977 178.087 258.11 176.42C257.041 174.399 256.514 172.136 256.58 169.85C256.571 168.128 256.916 166.423 257.592 164.839C258.268 163.255 259.261 161.826 260.51 160.64C263.13 158.02 266.7 156.71 271.22 156.71C273.445 156.685 275.66 156.999 277.79 157.64C279.263 158.017 280.655 158.658 281.9 159.53L283.1 160.43L283.4 160.67C284.64 161.83 285.26 162.79 285.26 163.55C285.104 164.783 284.605 165.947 283.82 166.91C282.487 168.91 281.087 169.91 279.62 169.91C278.489 169.806 277.41 169.39 276.5 168.71C276.257 168.526 276.027 168.325 275.81 168.11C275.523 167.833 275.212 167.582 274.88 167.36C274.437 167.116 273.963 166.934 273.47 166.82C272.715 166.629 271.939 166.538 271.16 166.55C270.174 166.559 269.216 166.885 268.43 167.48C268.029 167.745 267.7 168.106 267.475 168.531C267.25 168.955 267.134 169.43 267.14 169.91C267.125 170.473 267.259 171.03 267.527 171.525C267.796 172.02 268.19 172.436 268.67 172.73C269.825 173.461 271.125 173.931 272.48 174.11C274.166 174.385 275.836 174.756 277.48 175.22C279.196 175.686 280.869 176.298 282.48 177.05C284.109 177.875 285.44 179.185 286.29 180.8C287.372 182.838 287.9 185.125 287.82 187.43C287.866 189.794 287.33 192.132 286.26 194.24C285.343 196.089 283.966 197.67 282.26 198.83C280.676 199.875 278.947 200.684 277.13 201.23C275.417 201.744 273.638 202.006 271.85 202.01C270.047 202.021 268.251 201.788 266.51 201.32C265.067 200.959 263.683 200.393 262.4 199.64C261.428 199.048 260.506 198.379 259.64 197.64C259.02 197.132 258.465 196.547 257.99 195.9L257.36 195.24Z" fill="#115E49"/>
<path d="M305.72 201.3C303.816 201.33 301.93 200.934 300.199 200.139C298.469 199.345 296.938 198.173 295.72 196.71C293.04 193.608 291.613 189.618 291.72 185.52V175.02C291.708 174.319 291.738 173.618 291.81 172.92C291.905 172.375 292.088 171.848 292.35 171.36C292.513 171.051 292.739 170.78 293.013 170.563C293.286 170.346 293.602 170.189 293.94 170.1C294.937 169.83 295.968 169.709 297 169.74C297.87 169.719 298.738 169.82 299.58 170.04C300.14 170.183 300.668 170.427 301.14 170.76C301.527 171.08 301.809 171.508 301.95 171.99C302.11 172.435 302.211 172.899 302.25 173.37C302.25 173.75 302.25 174.32 302.25 175.08V185.58C302.209 186.283 302.313 186.986 302.556 187.647C302.798 188.307 303.174 188.911 303.66 189.42C304.728 190.322 306.083 190.812 307.481 190.801C308.879 190.79 310.227 190.279 311.28 189.36C311.773 188.866 312.158 188.275 312.411 187.624C312.664 186.974 312.78 186.278 312.75 185.58V174.96C312.739 174.269 312.769 173.578 312.84 172.89C312.929 172.343 313.112 171.815 313.38 171.33C313.547 171.028 313.775 170.763 314.048 170.551C314.322 170.34 314.635 170.186 314.97 170.1C315.967 169.83 316.998 169.709 318.03 169.74C319.042 169.711 320.053 169.832 321.03 170.1C321.363 170.193 321.674 170.354 321.942 170.573C322.211 170.791 322.431 171.063 322.59 171.37C322.856 171.867 323.038 172.404 323.13 172.96C323.201 173.648 323.231 174.339 323.22 175.03V196.27C323.23 196.938 323.2 197.606 323.13 198.27C323.04 198.812 322.847 199.332 322.56 199.8C322.195 200.394 321.615 200.824 320.94 201C319.963 201.268 318.952 201.389 317.94 201.36C316.948 201.387 315.957 201.265 315 201C314.363 200.849 313.806 200.463 313.44 199.92C313.206 199.551 313.033 199.145 312.93 198.72C312.863 198.304 312.833 197.882 312.84 197.46C312.739 197.607 312.629 197.747 312.51 197.88C312.37 198.04 312.07 198.34 311.61 198.78C311.157 199.215 310.665 199.606 310.14 199.95C309.513 200.339 308.842 200.652 308.14 200.88C307.362 201.154 306.544 201.296 305.72 201.3Z" fill="#115E49"/>
<path d="M345.59 169.8C347.494 169.765 349.382 170.16 351.113 170.955C352.844 171.749 354.375 172.923 355.59 174.39C358.27 177.492 359.697 181.482 359.59 185.58V196.14C359.601 196.831 359.571 197.522 359.5 198.21C359.411 198.757 359.228 199.285 358.96 199.77C358.793 200.072 358.565 200.337 358.292 200.549C358.018 200.76 357.705 200.914 357.37 201C356.373 201.27 355.342 201.391 354.31 201.36C353.44 201.381 352.572 201.28 351.73 201.06C351.176 200.917 350.649 200.684 350.17 200.37C349.775 200.058 349.491 199.626 349.36 199.14C349.204 198.694 349.103 198.23 349.06 197.76C349.06 197.4 349.06 196.84 349.06 196.08V185.52C349.101 184.817 348.997 184.114 348.754 183.453C348.512 182.793 348.136 182.189 347.65 181.68C346.582 180.778 345.227 180.288 343.829 180.299C342.431 180.31 341.083 180.821 340.03 181.74C339.537 182.234 339.152 182.825 338.899 183.476C338.646 184.126 338.53 184.822 338.56 185.52V196.14C338.571 196.831 338.541 197.522 338.47 198.21C338.381 198.757 338.198 199.285 337.93 199.77C337.763 200.072 337.535 200.337 337.262 200.549C336.988 200.76 336.675 200.914 336.34 201C335.343 201.27 334.312 201.391 333.28 201.36C332.268 201.389 331.257 201.268 330.28 201C329.942 200.912 329.626 200.754 329.353 200.537C329.079 200.32 328.853 200.049 328.69 199.74C328.424 199.243 328.242 198.706 328.15 198.15C328.079 197.462 328.049 196.771 328.06 196.08V174.84C328.05 174.172 328.08 173.504 328.15 172.84C328.24 172.298 328.433 171.778 328.72 171.31C328.899 171.017 329.135 170.763 329.413 170.562C329.691 170.362 330.006 170.218 330.34 170.14C331.32 169.894 332.33 169.783 333.34 169.81C334.332 169.783 335.323 169.905 336.28 170.17C336.903 170.306 337.456 170.661 337.84 171.17C338.077 171.527 338.249 171.923 338.35 172.34C338.417 172.756 338.447 173.178 338.44 173.6C338.541 173.453 338.651 173.313 338.77 173.18C338.91 173.02 339.21 172.72 339.67 172.28C340.123 171.846 340.615 171.454 341.14 171.11C341.766 170.719 342.438 170.407 343.14 170.18C343.931 169.921 344.758 169.793 345.59 169.8Z" fill="#115E49"/>
<path d="M381.68 169.86C382.372 169.845 383.064 169.886 383.75 169.98C384.296 170.091 384.822 170.283 385.31 170.55C385.612 170.718 385.878 170.945 386.089 171.218C386.301 171.492 386.454 171.805 386.54 172.14C386.81 173.137 386.931 174.168 386.9 175.2C386.93 176.185 386.798 177.168 386.51 178.11C386.31 178.774 385.872 179.34 385.28 179.7C384.79 179.994 384.252 180.197 383.69 180.3C383.004 180.392 382.312 180.432 381.62 180.42L377.78 180.18V196.26C377.791 196.929 377.751 197.598 377.66 198.26C377.553 198.816 377.361 199.353 377.09 199.85C376.919 200.155 376.687 200.422 376.408 200.634C376.129 200.845 375.81 200.997 375.47 201.08C374.493 201.343 373.482 201.465 372.47 201.44C371.455 201.477 370.442 201.345 369.47 201.05C368.8 200.846 368.232 200.396 367.88 199.79C367.592 199.301 367.398 198.761 367.31 198.2C367.24 197.502 367.21 196.801 367.22 196.1V180.2H365.06C364.624 180.174 364.192 180.104 363.77 179.99C363.391 179.848 363.049 179.623 362.77 179.33C362.361 178.899 362.09 178.356 361.99 177.77C361.813 176.892 361.733 175.996 361.75 175.1C361.75 171.82 362.93 170.18 365.29 170.18H367.29V167C367.3 163.895 368.478 160.907 370.59 158.63C372.79 156.13 375.97 154.88 380.13 154.88C380.821 154.869 381.512 154.899 382.2 154.97C382.756 155.062 383.293 155.244 383.79 155.51C384.099 155.673 384.37 155.899 384.587 156.173C384.804 156.446 384.962 156.762 385.05 157.1C385.32 158.097 385.441 159.128 385.41 160.16C385.427 161.02 385.326 161.878 385.11 162.71C384.976 163.273 384.731 163.803 384.39 164.27C384.062 164.641 383.636 164.912 383.16 165.05C382.715 165.21 382.251 165.311 381.78 165.35C381.4 165.35 380.83 165.35 380.07 165.35C378.59 165.35 377.85 165.85 377.85 166.85V170.15L381.68 169.86ZM390.02 160.2C390.009 159.509 390.039 158.818 390.11 158.13C390.202 157.574 390.384 157.037 390.65 156.54C390.813 156.231 391.039 155.96 391.313 155.743C391.586 155.526 391.902 155.369 392.24 155.28C393.237 155.01 394.268 154.889 395.3 154.92C396.315 154.884 397.328 155.015 398.3 155.31C398.97 155.514 399.538 155.964 399.89 156.57C400.178 157.06 400.372 157.599 400.46 158.16C400.53 158.858 400.56 159.559 400.55 160.26V188.04C400.467 188.966 400.59 189.898 400.91 190.77C401.15 191.15 401.817 191.34 402.91 191.34C403.332 191.329 403.754 191.359 404.17 191.43C404.548 191.536 404.903 191.709 405.22 191.94C405.692 192.301 406.013 192.825 406.12 193.41C406.323 194.326 406.413 195.263 406.39 196.2C406.412 197.207 406.322 198.213 406.12 199.2C406.022 199.822 405.703 200.387 405.22 200.79C404.9 201.042 404.533 201.225 404.14 201.33C403.714 201.4 403.282 201.43 402.85 201.42C401.147 201.441 399.444 201.361 397.75 201.18C396.523 201.034 395.322 200.721 394.18 200.25C393.141 199.843 392.272 199.091 391.72 198.12C391.116 196.974 390.701 195.738 390.49 194.46C390.178 192.577 390.038 190.669 390.07 188.76L390.02 160.2Z" fill="#115E49"/>
<path d="M425.18 169.08C429.501 169.047 433.661 170.718 436.76 173.73C439.474 176.381 441.193 179.885 441.63 183.654C442.067 187.423 441.195 191.227 439.16 194.43C437.614 196.853 435.449 198.82 432.89 200.13C430.538 201.324 427.938 201.95 425.3 201.96C422.599 201.954 419.941 201.285 417.56 200.01C415.015 198.653 412.858 196.67 411.29 194.25C409.588 191.704 408.699 188.702 408.74 185.64C408.673 183.417 409.085 181.205 409.948 179.156C410.81 177.106 412.104 175.266 413.74 173.76C416.792 170.759 420.9 169.078 425.18 169.08ZM421.28 189.93C422.379 190.842 423.752 191.36 425.18 191.4C426.644 191.361 428.052 190.833 429.18 189.9C429.797 189.346 430.292 188.671 430.635 187.916C430.978 187.162 431.161 186.344 431.172 185.516C431.183 184.687 431.023 183.865 430.701 183.102C430.378 182.338 429.902 181.65 429.3 181.08C428.124 180.142 426.664 179.634 425.16 179.64C423.725 179.667 422.344 180.198 421.26 181.14C420.63 181.674 420.134 182.349 419.811 183.109C419.488 183.87 419.347 184.695 419.4 185.52C419.337 186.352 419.476 187.186 419.803 187.954C420.13 188.721 420.637 189.399 421.28 189.93Z" fill="#115E49"/>
<path d="M484.88 170.04C487.44 171.16 488.72 172.54 488.72 174.18C488.699 174.95 488.515 175.706 488.18 176.4C487.26 178.6 486.593 180.266 486.18 181.4L479.58 197.48L479.43 197.93C479.288 198.277 479.118 198.611 478.92 198.93C478.659 199.384 478.347 199.806 477.99 200.19C477.582 200.602 477.104 200.941 476.58 201.19C475.959 201.496 475.273 201.651 474.58 201.64C473.493 201.674 472.429 201.319 471.58 200.64C470.837 200.088 470.248 199.355 469.87 198.51L469.39 197.51C469.15 196.91 468.53 195.28 467.53 192.62L465.85 188.15C465.45 189.11 464.86 190.68 464.08 192.86C463.3 195.04 462.71 196.61 462.31 197.57L462.16 198.02C462.018 198.367 461.848 198.701 461.65 199.02C461.373 199.482 461.037 199.905 460.65 200.28C460.219 200.692 459.722 201.03 459.18 201.28C458.556 201.58 457.872 201.734 457.18 201.73C456.112 201.76 455.068 201.405 454.24 200.73C453.51 200.172 452.932 199.439 452.56 198.6L452.08 197.6L443.59 176.37C443.296 175.617 443.095 174.831 442.99 174.03C442.99 172.43 444.13 171.17 446.41 170.25C447.432 169.79 448.531 169.526 449.65 169.47C450.298 169.449 450.936 169.627 451.48 169.98C451.879 170.24 452.22 170.58 452.48 170.98C452.727 171.416 452.948 171.867 453.14 172.33C453.18 172.45 453.847 174.2 455.14 177.58L457.27 183.31L460.81 173.59C460.86 173.446 460.92 173.305 460.99 173.17C461.164 172.86 461.354 172.559 461.56 172.27C461.855 171.849 462.19 171.457 462.56 171.1C462.973 170.711 463.45 170.396 463.97 170.17C464.551 169.894 465.187 169.75 465.83 169.75C466.914 169.738 467.97 170.09 468.83 170.75C469.56 171.245 470.165 171.902 470.6 172.67L471.08 173.67C473.08 179.27 474.26 182.47 474.62 183.27L478.28 173.27C479.24 170.71 480.68 169.43 482.6 169.43C483.395 169.468 484.172 169.676 484.88 170.04Z" fill="#115E49"/>
<path d="M521.3 181.56C521.3 184.227 520.69 186.137 519.47 187.29C518.952 187.834 518.333 188.27 517.646 188.573C516.96 188.877 516.22 189.042 515.47 189.06H501.2C501.239 189.669 501.446 190.256 501.8 190.754C502.153 191.252 502.638 191.642 503.2 191.88C504.493 192.633 505.964 193.026 507.46 193.02C508.485 193.025 509.508 192.944 510.52 192.78C511.232 192.679 511.934 192.518 512.62 192.3L513.28 192.06C514.026 191.676 514.843 191.451 515.68 191.4C516.96 191.4 518.06 192.3 518.98 194.1C519.439 194.952 519.705 195.894 519.76 196.86C519.76 200.42 515.5 202.2 506.98 202.2C504.272 202.25 501.583 201.729 499.09 200.67C496.993 199.808 495.147 198.432 493.72 196.67C492.484 195.091 491.521 193.317 490.87 191.42C490.254 189.604 489.94 187.698 489.94 185.78C489.94 180.74 491.57 176.71 494.83 173.69C497.212 171.633 500.077 170.213 503.156 169.562C506.235 168.912 509.429 169.052 512.44 169.97C513.914 170.423 515.295 171.134 516.52 172.07C517.584 172.919 518.505 173.931 519.25 175.07C519.944 176.094 520.48 177.217 520.84 178.4C521.14 179.427 521.295 180.49 521.3 181.56ZM508.64 183.56C510.16 183.56 510.92 182.92 510.92 181.64C510.933 181.213 510.845 180.79 510.662 180.404C510.479 180.018 510.208 179.681 509.87 179.42C508.993 178.811 507.936 178.515 506.87 178.58C505.441 178.636 504.08 179.2 503.03 180.17C502.474 180.553 502.013 181.057 501.68 181.644C501.348 182.232 501.153 182.887 501.11 183.56H508.64Z" fill="#115E49"/>
<path d="M549.32 173.52C549.328 175.207 548.937 176.872 548.18 178.38C547.922 179.047 547.469 179.621 546.88 180.027C546.292 180.434 545.595 180.654 544.88 180.66C544.162 180.661 543.454 180.496 542.81 180.18C542.189 179.87 541.504 179.706 540.81 179.7C539.504 179.644 538.22 180.047 537.18 180.84C536.745 181.158 536.391 181.573 536.147 182.052C535.902 182.532 535.773 183.062 535.77 183.6V196.2C535.781 196.891 535.751 197.582 535.68 198.27C535.588 198.821 535.395 199.35 535.11 199.83C534.754 200.438 534.172 200.881 533.49 201.06C532.493 201.33 531.462 201.451 530.43 201.42C529.57 201.437 528.712 201.336 527.88 201.12C527.317 200.986 526.787 200.741 526.32 200.4C525.949 200.072 525.679 199.646 525.54 199.17C525.38 198.725 525.279 198.261 525.24 197.79C525.24 197.41 525.24 196.84 525.24 196.08V175.02C525.229 174.329 525.259 173.638 525.33 172.95C525.419 172.403 525.602 171.875 525.87 171.39C526.037 171.088 526.265 170.822 526.538 170.611C526.812 170.399 527.125 170.246 527.46 170.16C528.457 169.89 529.488 169.769 530.52 169.8C531.512 169.773 532.503 169.895 533.46 170.16C534.078 170.308 534.627 170.66 535.02 171.16C535.247 171.466 535.428 171.803 535.56 172.16C535.648 172.486 535.688 172.823 535.68 173.16C535.948 172.808 536.238 172.474 536.55 172.16C537.285 171.516 538.102 170.971 538.98 170.54C540.134 169.89 541.435 169.546 542.76 169.54C543.383 169.542 544.005 169.592 544.62 169.69C545.332 169.807 546.034 169.978 546.72 170.2C547.44 170.409 548.087 170.814 548.59 171.37C549.092 171.971 549.352 172.738 549.32 173.52Z" fill="#115E49"/>
<path d="M290.12 304.62C307.186 304.62 321.02 290.786 321.02 273.72C321.02 256.655 307.186 242.82 290.12 242.82C273.054 242.82 259.22 256.655 259.22 273.72C259.22 290.786 273.054 304.62 290.12 304.62Z" fill="#E9F3F9"/>
<path d="M269.17 237.89C278.487 237.89 286.04 230.337 286.04 221.02C286.04 211.703 278.487 204.15 269.17 204.15C259.853 204.15 252.3 211.703 252.3 221.02C252.3 230.337 259.853 237.89 269.17 237.89Z" fill="#E9F3F9"/>
<path d="M305.34 666.69C299.544 666.69 293.871 665.021 289 661.88C288.484 661.573 288.06 661.132 287.773 660.604C287.486 660.076 287.347 659.48 287.37 658.88C287.37 657.207 288.46 654.853 290.64 651.82C290.958 651.337 291.399 650.948 291.917 650.693C292.436 650.438 293.014 650.327 293.59 650.37C295.47 650.496 297.282 651.12 298.84 652.18C301.64 653.78 304.02 654.59 305.97 654.59C309.47 654.59 311.22 653.9 311.22 652.52C311.22 651.95 310.67 651.46 309.59 651.06C308.252 650.583 306.868 650.248 305.46 650.06C303.62 649.79 301.816 649.318 300.08 648.65C298.208 647.952 296.409 647.071 294.71 646.02C292.9 644.825 291.468 643.139 290.58 641.16C289.436 638.698 288.878 636.004 288.95 633.29C288.95 624.237 295.17 619.71 307.61 619.71C311.955 619.771 316.235 620.767 320.16 622.63C322.16 623.55 323.16 624.81 323.16 626.41C322.97 628.089 322.35 629.69 321.36 631.06C320.027 633.12 318.693 634.15 317.36 634.15C316.339 634.062 315.346 633.769 314.44 633.29C312.26 632.214 309.871 631.627 307.44 631.57C304.06 631.57 302.37 632.21 302.37 633.47C302.401 633.959 302.576 634.428 302.873 634.818C303.17 635.208 303.576 635.501 304.04 635.66C305.376 636.262 306.802 636.64 308.26 636.78C310.109 637.015 311.935 637.403 313.72 637.94C315.599 638.481 317.426 639.187 319.18 640.05C320.984 640.986 322.454 642.456 323.39 644.26C324.572 646.496 325.151 649.002 325.07 651.53C325.16 654.222 324.583 656.895 323.39 659.31C322.355 661.327 320.696 662.954 318.66 663.95C316.703 664.934 314.62 665.644 312.47 666.06C310.118 666.491 307.731 666.702 305.34 666.69Z" fill="#115E49"/>
<path d="M374.4 637.45C374.4 641.24 373.52 643.98 371.78 645.67C371.028 646.457 370.127 647.086 369.13 647.52C368.132 647.954 367.058 648.186 365.97 648.2H345.59C345.59 649.814 346.537 651.147 348.43 652.2C350.28 653.282 352.387 653.848 354.53 653.84C356.001 653.845 357.469 653.728 358.92 653.49C359.938 653.351 360.941 653.123 361.92 652.81L362.86 652.46C363.933 651.912 365.107 651.591 366.31 651.52C368.14 651.52 369.72 652.81 371.03 655.39C371.698 656.623 372.081 657.99 372.15 659.39C372.15 664.497 366.047 667.05 353.84 667.05C349.957 667.125 346.102 666.375 342.53 664.85C339.519 663.61 336.87 661.629 334.83 659.09C333.057 656.829 331.675 654.288 330.74 651.57C329.858 648.964 329.408 646.232 329.41 643.48C329.41 636.26 331.743 630.484 336.41 626.15C341.077 621.817 346.91 619.654 353.91 619.66C356.535 619.634 359.148 620.025 361.65 620.82C363.76 621.471 365.74 622.486 367.5 623.82C369.02 625.025 370.34 626.463 371.41 628.08C372.406 629.546 373.175 631.154 373.69 632.85C374.144 634.342 374.383 635.891 374.4 637.45ZM356.25 640.37C358.43 640.37 359.52 639.45 359.52 637.61C359.536 637 359.409 636.394 359.149 635.842C358.888 635.289 358.502 634.806 358.02 634.43C356.747 633.551 355.214 633.128 353.67 633.23C351.624 633.315 349.675 634.123 348.17 635.51C346.33 637.03 345.42 638.65 345.42 640.37H356.25Z" fill="#115E49"/>
<path d="M423.68 637.45C423.68 641.237 422.803 643.977 421.05 645.67C420.3 646.457 419.401 647.085 418.405 647.52C417.409 647.954 416.336 648.186 415.25 648.2H394.87C394.87 649.81 395.81 651.2 397.71 652.2C399.56 653.282 401.667 653.848 403.81 653.84C405.28 653.845 406.749 653.728 408.2 653.49C409.218 653.351 410.221 653.123 411.2 652.81L412.14 652.46C413.209 651.912 414.38 651.592 415.58 651.52C417.42 651.52 418.99 652.81 420.31 655.39C420.978 656.623 421.361 657.99 421.43 659.39C421.43 664.497 415.323 667.05 403.11 667.05C399.227 667.123 395.373 666.373 391.8 664.85C388.793 663.607 386.148 661.626 384.11 659.09C382.337 656.829 380.955 654.288 380.02 651.57C379.137 648.964 378.688 646.232 378.69 643.48C378.69 636.26 381.023 630.484 385.69 626.15C390.357 621.817 396.19 619.654 403.19 619.66C405.815 619.634 408.428 620.025 410.93 620.82C413.04 621.471 415.02 622.486 416.78 623.82C418.298 625.027 419.617 626.465 420.69 628.08C421.686 629.546 422.455 631.154 422.97 632.85C423.424 634.342 423.663 635.891 423.68 637.45ZM405.53 640.37C407.71 640.37 408.8 639.45 408.8 637.61C408.817 636.999 408.689 636.392 408.426 635.839C408.164 635.287 407.775 634.804 407.29 634.43C406.021 633.551 404.491 633.128 402.95 633.23C400.904 633.315 398.955 634.123 397.45 635.51C395.61 637.03 394.7 638.65 394.7 640.37H405.53Z" fill="#115E49"/>
<path d="M466.33 599.44C467.781 599.396 469.231 599.572 470.63 599.96C471.114 600.085 471.567 600.309 471.96 600.619C472.353 600.929 472.676 601.318 472.91 601.76C473.291 602.473 473.554 603.243 473.69 604.04C473.786 605.037 473.826 606.039 473.81 607.04V658.37C473.826 659.372 473.786 660.373 473.69 661.37C473.555 662.157 473.278 662.913 472.87 663.6C472.372 664.466 471.553 665.102 470.59 665.37C469.159 665.753 467.68 665.925 466.2 665.88C461.84 665.88 459.44 664.48 458.98 661.67C456.573 664.424 453.217 665.8 448.91 665.8C443.75 665.8 439.05 663.55 434.81 659.05C430.652 654.771 428.365 649.016 428.45 643.05C428.437 637.22 430.739 631.624 434.85 627.49C439.117 622.964 443.803 620.697 448.91 620.69C453.163 620.69 456.46 622.124 458.8 624.99V606.93C458.786 605.929 458.829 604.927 458.93 603.93C459.062 603.145 459.326 602.388 459.71 601.69C459.95 601.257 460.276 600.877 460.668 600.574C461.06 600.272 461.51 600.053 461.99 599.93C463.404 599.553 464.867 599.388 466.33 599.44ZM445.69 648.44C446.38 649.185 447.219 649.777 448.153 650.177C449.087 650.577 450.094 650.775 451.11 650.76C452.108 650.783 453.098 650.587 454.012 650.186C454.926 649.785 455.741 649.189 456.4 648.44C457.738 647.053 458.493 645.207 458.51 643.28C458.478 641.377 457.769 639.547 456.51 638.12C455.844 637.329 455.006 636.7 454.059 636.282C453.113 635.864 452.084 635.669 451.05 635.71C450.013 635.668 448.979 635.859 448.026 636.269C447.072 636.679 446.223 637.298 445.54 638.08C444.227 639.495 443.493 641.35 443.48 643.28C443.486 644.247 443.684 645.203 444.064 646.093C444.443 646.982 444.996 647.787 445.69 648.46V648.44Z" fill="#115E49"/>
<path d="M497.38 666.69C491.584 666.69 485.911 665.021 481.04 661.88C480.522 661.573 480.097 661.133 479.808 660.605C479.52 660.077 479.379 659.481 479.4 658.88C479.4 657.207 480.49 654.853 482.67 651.82C482.986 651.342 483.422 650.957 483.935 650.702C484.448 650.448 485.019 650.333 485.59 650.37C487.467 650.496 489.276 651.121 490.83 652.18C493.64 653.78 496.02 654.59 497.97 654.59C501.47 654.59 503.22 653.9 503.22 652.52C503.22 651.95 502.67 651.46 501.58 651.06C500.242 650.582 498.858 650.247 497.45 650.06C495.614 649.789 493.813 649.316 492.08 648.65C490.206 647.95 488.404 647.069 486.7 646.02C484.893 644.824 483.464 643.138 482.58 641.16C481.432 638.699 480.871 636.005 480.94 633.29C480.94 624.237 487.16 619.71 499.6 619.71C503.948 619.771 508.231 620.767 512.16 622.63C514.16 623.55 515.16 624.81 515.16 626.41C514.97 628.091 514.346 629.693 513.35 631.06C512.03 633.12 510.72 634.15 509.4 634.15C508.376 634.062 507.379 633.77 506.47 633.29C504.291 632.212 501.901 631.624 499.47 631.57C496.08 631.57 494.39 632.21 494.39 633.47C494.422 633.96 494.598 634.43 494.897 634.82C495.196 635.21 495.605 635.503 496.07 635.66C497.402 636.262 498.825 636.64 500.28 636.78C504.075 637.28 507.765 638.384 511.21 640.05C513.011 640.989 514.481 642.459 515.42 644.26C516.602 646.496 517.181 649.002 517.1 651.53C517.19 654.222 516.613 656.895 515.42 659.31C514.383 661.324 512.724 662.951 510.69 663.95C508.733 664.932 506.65 665.642 504.5 666.06C502.151 666.49 499.768 666.701 497.38 666.69Z" fill="#115E49"/>
<g style="mix-blend-mode:multiply">
<path d="M382.58 578.02C426.266 578.02 461.68 569.437 461.68 558.85C461.68 548.262 426.266 539.68 382.58 539.68C338.894 539.68 303.48 548.262 303.48 558.85C303.48 569.437 338.894 578.02 382.58 578.02Z" fill="#A7A9AC"/>
</g>
<path d="M523.15 311.53C523.15 311.07 523.15 310.59 523.15 310.09C523.15 309.98 523.15 309.88 523.15 309.75C523.15 309.37 523.09 308.98 523.04 308.57V308.32C522.99 307.91 522.92 307.49 522.85 307.08V306.93C522.16 303.259 520.673 299.784 518.495 296.75C516.316 293.716 513.498 291.196 510.24 289.37C510.934 288.301 511.546 287.181 512.07 286.02C512.2 285.74 512.32 285.47 512.44 285.19C512.67 284.63 512.87 284.07 513.06 283.52C513.25 282.97 513.38 282.52 513.5 282.05C513.71 281.26 513.89 280.46 514.02 279.66C515.005 273.81 513.923 267.799 510.96 262.66C510.73 262.26 510.48 261.85 510.19 261.42C510.135 261.327 510.075 261.237 510.01 261.15C509.78 260.81 509.57 260.5 509.33 260.15L509.17 259.94C508.92 259.61 508.66 259.28 508.4 258.94L508.29 258.81C505.897 255.988 502.919 253.722 499.562 252.167C496.205 250.613 492.549 249.809 488.85 249.81H488.7C488.7 249.17 488.7 248.53 488.7 247.9C488.674 246.676 488.557 245.456 488.35 244.25C488.29 243.84 488.21 243.44 488.12 243.04C487.364 239.567 485.89 236.29 483.795 233.42C481.699 230.549 479.027 228.148 475.95 226.37C475.55 226.14 475.14 225.91 474.67 225.68L474.38 225.54C474.02 225.36 473.67 225.2 473.32 225.05L473.07 224.94L471.88 224.47H471.76C468.254 223.214 464.516 222.742 460.808 223.088C457.1 223.433 453.513 224.588 450.3 226.47L450.17 226.21C450.02 225.94 449.88 225.67 449.72 225.4C449.32 224.7 448.88 224 448.41 223.34C446.044 220.026 442.92 217.325 439.298 215.464C435.676 213.603 431.662 212.634 427.59 212.64C427.13 212.64 426.66 212.64 426.14 212.64H425.82L424.64 212.75H424.38C423.96 212.81 423.55 212.87 423.11 212.95H422.99C419.332 213.628 415.865 215.096 412.833 217.252C409.8 219.407 407.274 222.198 405.43 225.43C404.361 224.736 403.241 224.124 402.08 223.6C401.81 223.47 401.53 223.35 401.25 223.24C400.7 223.01 400.13 222.8 399.58 222.61C396.158 221.468 392.533 221.066 388.944 221.43C385.354 221.793 381.883 222.915 378.76 224.72C378.36 224.94 377.96 225.19 377.51 225.48L377.27 225.65L376.32 226.32L376.1 226.49C375.77 226.74 375.44 227 375.1 227.28L374.99 227.37C372.155 229.784 369.882 232.788 368.327 236.171C366.773 239.554 365.975 243.236 365.99 246.96H364.62H364.06C362.833 246.991 361.61 247.108 360.4 247.31C356.689 247.926 353.162 249.358 350.072 251.502C346.982 253.646 344.406 256.449 342.53 259.71C342.3 260.11 342.08 260.52 341.84 261L341.7 261.28C341.53 261.64 341.36 261.99 341.21 262.34L341.1 262.6C340.94 262.98 340.79 263.36 340.65 263.74L340.59 263.91C339.344 267.415 338.877 271.151 339.223 274.855C339.568 278.56 340.717 282.145 342.59 285.36H342.51C342.17 285.533 341.837 285.713 341.51 285.9C340.589 286.417 339.704 286.995 338.86 287.63C338.21 288.11 337.57 288.63 336.97 289.18C334.342 291.573 332.243 294.489 330.805 297.74C329.367 300.99 328.623 304.505 328.62 308.06C328.62 308.52 328.62 309 328.62 309.5V309.83C328.62 310.23 328.68 310.61 328.72 310.99V311.27C328.72 311.68 328.83 312.1 328.9 312.51V312.66C330.071 318.976 333.577 324.62 338.72 328.47C336.72 328.37 334.72 328.33 332.58 328.33C326.439 328.322 320.304 328.696 314.21 329.45C312.995 329.593 311.855 330.112 310.949 330.935C310.044 331.758 309.418 332.844 309.16 334.04C308.912 335.202 309.037 336.413 309.516 337.501C309.996 338.589 310.805 339.498 311.83 340.1C312.34 340.48 315.63 343.18 317.95 350.22C318.33 351.36 318.74 352.87 319.22 354.61C319.65 356.16 320.14 357.91 320.69 359.74C320.88 360.39 321.08 361.05 321.29 361.74V361.8C321.5 362.46 321.71 363.11 321.95 363.8V363.93L322.28 364.86V364.93L322.64 365.93L322.71 366.11C322.82 366.41 322.94 366.7 323.06 367.02L323.11 367.13C323.24 367.47 323.37 367.8 323.52 368.13V368.23L323.91 369.12L323.99 369.3C324.13 369.63 324.28 369.96 324.45 370.3C324.59 370.6 324.73 370.9 324.88 371.19L324.99 371.42C325.31 372.08 325.65 372.72 325.99 373.34L326.11 373.56C326.27 373.85 326.44 374.13 326.59 374.39L326.67 374.52C326.85 374.83 327.04 375.14 327.23 375.44L327.38 375.66C327.54 375.92 327.71 376.17 327.88 376.42L328.01 376.61L328.64 377.48L328.79 377.69C328.97 377.93 329.16 378.16 329.34 378.39L329.51 378.61C329.74 378.9 329.98 379.18 330.21 379.45L330.36 379.61C330.56 379.84 330.77 380.07 331 380.31L331.19 380.51C331.45 380.78 331.72 381.05 332.01 381.32L332.08 381.39C332.33 381.62 332.58 381.85 332.85 382.08L333.07 382.28L333.85 382.91L333.97 383.01C334.26 383.22 334.56 383.45 334.91 383.68L335.17 383.86L335.98 384.39L336.17 384.5C336.5 384.7 336.84 384.89 337.17 385.08L337.44 385.22L338.34 385.65L338.57 385.75C338.94 385.92 339.32 386.07 339.71 386.21L339.94 386.29C340.25 386.41 340.57 386.51 340.94 386.61L341.25 386.71C341.67 386.83 342.06 386.93 342.45 387.02H342.66L343.72 387.22H344.06C344.51 387.29 344.9 387.34 345.29 387.37C346.19 387.45 347.09 387.49 347.96 387.49C351.972 387.6 355.931 386.559 359.37 384.49C366.82 395.05 376.29 411.78 377.96 430.36C375.57 441.13 373.65 452.36 372.23 463.96C369.859 460.889 367.336 457.938 364.67 455.12C366.127 452.033 366.859 448.653 366.81 445.24C366.771 443.731 366.563 442.232 366.19 440.77V440.7C366.12 440.46 366.06 440.22 365.98 439.97V439.9C365.91 439.67 365.83 439.43 365.75 439.19V439.12C365.384 438.09 364.946 437.088 364.44 436.12C362.826 433.173 360.696 430.541 358.15 428.35C352.15 423.07 343.07 420.35 331.05 420.35C310.95 420.35 288.87 427.7 287.94 428.01C286.778 428.381 285.76 429.106 285.029 430.083C284.298 431.06 283.889 432.24 283.86 433.46C283.834 434.648 284.182 435.814 284.855 436.794C285.528 437.774 286.492 438.517 287.61 438.92C288.22 439.21 292.94 441.66 297.43 449.75C298.13 451.01 298.95 452.67 299.9 454.59C300.74 456.29 301.68 458.21 302.73 460.21C303.09 460.91 303.46 461.61 303.85 462.32L303.9 462.42C304.3 463.14 304.7 463.86 305.1 464.55L305.17 464.68L305.77 465.68V465.74L306.41 466.8L306.5 466.94L307.1 467.94L307.18 468.07L307.85 469.07L307.95 469.22C308.15 469.53 308.36 469.83 308.57 470.14L308.71 470.34C308.94 470.68 309.18 471.02 309.41 471.34L309.49 471.44C309.71 471.753 309.94 472.063 310.18 472.37L310.34 472.59C310.85 473.26 311.34 473.92 311.9 474.59L312.1 474.83L312.84 475.68L312.93 475.79L313.78 476.71L313.99 476.93L314.71 477.67L314.9 477.86C315.2 478.15 315.5 478.44 315.8 478.71L316.01 478.91L316.79 479.59L317.02 479.8L318.02 480.59L318.21 480.73L319.09 481.39L319.35 481.57C319.73 481.84 320.08 482.07 320.35 482.28L320.5 482.37C320.82 482.58 321.15 482.77 321.5 482.97L321.81 483.14C322.14 483.33 322.48 483.51 322.81 483.69L322.96 483.77C323.32 483.95 323.71 484.13 324.15 484.33L324.46 484.46C324.8 484.61 325.15 484.75 325.46 484.88L325.69 484.97C326.09 485.11 326.52 485.26 326.95 485.39L327.27 485.48C327.62 485.58 327.98 485.68 328.33 485.76L328.64 485.84L329.98 486.11H330.27C330.637 486.17 331.017 486.22 331.41 486.26H331.77L333.18 486.35H335.01C335.53 486.35 336.01 486.35 336.43 486.26H336.48C344.28 485.49 349.29 482.48 352.48 479.08C360.412 489.154 366.232 500.725 369.59 513.1C369.46 540.22 371.94 558.53 372.05 559.31C372.245 560.698 372.936 561.968 373.995 562.887C375.053 563.806 376.408 564.311 377.81 564.31H390.94C391.768 564.311 392.587 564.135 393.342 563.795C394.097 563.454 394.771 562.956 395.318 562.334C395.865 561.712 396.273 560.98 396.515 560.188C396.757 559.396 396.827 558.561 396.72 557.74C395.219 543.653 394.478 529.496 394.5 515.33C398.86 509.15 412.03 491.87 428.65 483.12C430.6 488.05 434.46 492.31 440.01 495.51C440.31 495.69 440.61 495.85 440.89 496L441.15 496.13L441.86 496.48L442.08 496.59L442.99 496.98L443.16 497.05L443.93 497.34L444.19 497.44L444.96 497.69L445.12 497.74C445.44 497.84 445.75 497.93 446.05 498L446.3 498.07L447.03 498.24H447.28C447.59 498.31 447.9 498.36 448.18 498.41H448.3C448.58 498.41 448.87 498.5 449.16 498.53H449.41L450.18 498.61H450.36L451.28 498.67H451.47H452.23H452.48H453.28H453.4L454.32 498.62H454.55L455.26 498.55H455.49L456.38 498.43H456.48L457.28 498.29H457.52L458.26 498.14H458.41L459.28 497.94H459.47L460.15 497.76L460.39 497.69L461.15 497.47H461.23L462.07 497.2L462.31 497.12L462.93 496.9L463.16 496.82L463.97 496.51L464.11 496.45L464.76 496.19L465.02 496.08L465.66 495.81L465.83 495.73C466.08 495.62 466.34 495.51 466.6 495.38L466.74 495.32L467.38 495.01L467.63 494.89L468.32 494.55L468.47 494.47L469.13 494.12L469.39 493.98L470.15 493.56L470.86 493.16L471.58 492.74L471.86 492.58L472.58 492.14L473.23 491.74L473.51 491.55L474.22 491.1L474.7 490.78L475.5 490.25L475.8 490.05L476.49 489.56C476.68 489.44 476.86 489.31 477.04 489.18L477.67 488.73L478.26 488.3L479.03 487.73L479.72 487.21L481.09 486.21L481.59 485.82C483.36 484.43 485.02 483.07 486.48 481.87C488.14 480.51 489.57 479.33 490.72 478.47C498.13 472.98 503.48 472.68 504.14 472.66H504.61C505.718 472.654 506.799 472.325 507.721 471.712C508.644 471.099 509.366 470.229 509.8 469.21C510.278 468.086 510.394 466.841 510.13 465.649C509.867 464.457 509.237 463.377 508.33 462.56C502.47 457.257 496.26 452.356 489.74 447.89C475.05 437.84 462.41 432.74 452.15 432.74C449.474 432.72 446.811 433.104 444.25 433.88C441.028 434.827 438.003 436.348 435.32 438.37C434.47 439.032 433.671 439.758 432.93 440.54L432.88 440.59L432.39 441.13L432.32 441.21L431.82 441.81C430.865 442.992 430.05 444.28 429.39 445.65C427.795 449.108 427.081 452.908 427.31 456.71C416.85 460.38 406.51 466.78 396.47 475.78C397.791 462.361 399.915 449.034 402.83 435.87C404.67 433.21 412.22 424.15 434.68 414.72C437.03 418.72 441.41 422.82 449.55 424.42H449.59C449.97 424.49 450.37 424.56 450.83 424.62H451.16L452.22 424.72H452.44C452.84 424.72 453.24 424.72 453.72 424.72H454.01C454.35 424.72 454.69 424.72 455.01 424.72H455.26C455.66 424.72 456.06 424.65 456.45 424.6H456.74L457.74 424.44L458.02 424.38C458.41 424.3 458.8 424.21 459.18 424.11H459.38L460.32 423.83L460.62 423.73L461.7 423.35L461.85 423.29L462.77 422.9L463.06 422.77L463.96 422.33L464.08 422.27L465.08 421.73L465.35 421.58C465.62 421.42 465.89 421.26 466.16 421.08L466.32 420.98C466.63 420.79 466.94 420.58 467.23 420.37L467.46 420.21L468.19 419.69L468.39 419.54L469.24 418.87L469.41 418.73C469.64 418.53 469.88 418.34 470.11 418.13L470.31 417.96C470.58 417.73 470.85 417.49 471.09 417.26L471.21 417.15C471.45 416.93 471.68 416.71 471.92 416.47L472.1 416.29C472.6 415.79 473.1 415.29 473.6 414.74L473.77 414.55L474.44 413.81L474.49 413.75L475.18 412.95L475.33 412.77L475.93 412.04L476.02 411.93L476.68 411.1L476.78 410.97L477.34 410.24L477.45 410.09L478.09 409.23L478.66 408.45L478.75 408.32C479.16 407.74 479.55 407.17 479.93 406.62L479.99 406.53L481.13 404.81C482.13 403.21 483.13 401.67 483.96 400.31C484.91 398.77 485.73 397.44 486.41 396.45C490.61 390.35 494.53 388.67 495.12 388.45C496.274 388.162 497.307 387.516 498.072 386.606C498.838 385.695 499.295 384.566 499.38 383.38C499.464 382.158 499.165 380.94 498.525 379.895C497.886 378.85 496.937 378.031 495.81 377.55C495.61 377.46 491.68 375.72 485.81 373.69C485.81 373.39 485.81 373.09 485.81 372.79H487.16C487.76 372.79 488.36 372.77 488.96 372.73C489.39 372.73 489.84 372.65 490.33 372.59C494.246 372.12 497.997 370.74 501.284 368.561C504.571 366.382 507.303 363.464 509.26 360.04C509.5 359.64 509.72 359.22 509.96 358.75L510.08 358.49C510.26 358.12 510.42 357.78 510.56 357.49L510.67 357.23C510.83 356.84 510.99 356.45 511.13 356.07V355.91C512.379 352.404 512.847 348.669 512.501 344.964C512.156 341.258 511.005 337.674 509.13 334.46C513.338 332.335 516.875 329.084 519.346 325.07C521.818 321.055 523.127 316.434 523.13 311.72L523.15 311.53Z" fill="#231F20"/>
<path d="M399.08 481.21C395.685 484.351 392.451 487.662 389.39 491.13C389.45 490.01 389.52 488.88 389.6 487.75C390.767 469.517 393.352 451.402 397.33 433.57C399.08 430.57 410.65 413.91 457.52 400.67L453.91 387.91C430.04 394.66 414.27 402.4 403.91 409.35C409.552 391.266 417.512 373.989 427.59 357.95L416.43 350.8C405.952 367.426 397.629 385.316 391.66 404.04C381.76 377.22 363.18 358.62 362.16 357.61L352.84 367.05C353.13 367.33 381.56 395.78 384.27 431.05C380.629 447.49 378.14 464.163 376.82 480.95C371.845 472.191 365.713 464.142 358.59 457.02C347.59 446.11 338.13 441.27 337.73 441.02L331.73 452.86C331.82 452.86 340.09 457.17 349.59 466.75C362.116 479.382 371.041 495.132 375.44 512.37C375.27 539.43 377.71 557.57 377.84 558.53H390.97C389.373 543.584 388.619 528.56 388.71 513.53C394.25 505.35 422.25 466.85 454.53 472.69L456.89 459.69C438.06 456.24 418.07 463.69 399.08 481.21Z" fill="#4CA84E"/>
<path d="M493.43 382.72C493.43 382.72 454.65 365.41 439.03 376.78C424.34 387.48 437.96 401.25 437.96 401.25C437.96 401.25 458.98 376.91 493.43 382.72Z" fill="#66BE64"/>
<path d="M437.96 401.25C437.96 401.25 434.9 415.591 450.64 418.681C466.38 421.771 476.45 400.5 481.64 393.01C487.54 384.43 493.46 382.72 493.46 382.72C458.98 376.91 437.96 401.25 437.96 401.25Z" fill="#4CA84E"/>
<g style="mix-blend-mode:multiply">
<path d="M476.22 401.52C440.31 409.52 434.33 381.66 434.31 381.52C427.99 391.13 437.96 401.209 437.96 401.209C437.96 401.209 434.9 415.55 450.64 418.64C462.04 420.92 470.48 410.37 476.22 401.52Z" fill="#4CA84E"/>
</g>
<path d="M315.22 335.37C315.22 335.37 357.3 329.61 369.11 344.89C380.22 359.28 363.29 368.68 363.29 368.68C363.29 368.68 349.93 339.37 315.22 335.37Z" fill="#66BE64"/>
<path d="M363.29 368.65C363.29 368.65 362.22 383.28 346.29 381.84C330.36 380.4 326.59 357.16 323.74 348.53C320.47 338.64 315.26 335.34 315.26 335.34C349.93 339.37 363.29 368.65 363.29 368.65Z" fill="#4CA84E"/>
<g style="mix-blend-mode:multiply">
<path d="M326.49 358.209C358.73 375.909 372.26 350.86 372.3 350.77C375.68 361.77 363.3 368.65 363.3 368.65C363.3 368.65 362.23 383.279 346.3 381.839C334.67 380.799 329.53 368.299 326.49 358.209Z" fill="#4CA84E"/>
</g>
<path d="M504.4 466.72C504.4 466.72 467.75 432.62 446 439.34C425.53 445.66 435.47 466.21 435.47 466.21C435.47 466.21 468.19 447.1 504.4 466.72Z" fill="#66BE64"/>
<path d="M435.47 466.21C435.47 466.21 426.58 481.04 442.95 490.49C459.32 499.94 478.68 480.07 487.28 473.68C497.14 466.36 504.4 466.68 504.4 466.68C468.19 447.1 435.47 466.21 435.47 466.21Z" fill="#4CA84E"/>
<g style="mix-blend-mode:multiply">
<path d="M478.03 481.12C434.94 476.3 438.9 442.98 438.91 442.87C428.2 451.17 435.47 466.21 435.47 466.21C435.47 466.21 426.58 481.04 442.95 490.49C454.82 497.37 468.25 488.78 478.03 481.12Z" fill="#4CA84E"/>
</g>
<path d="M290.18 433.78C290.18 433.78 337.62 417.78 354.67 432.91C370.67 447.11 353.19 461.74 353.19 461.74C353.19 461.74 331.25 430.82 290.18 433.78Z" fill="#66BE64"/>
<path d="M353.19 461.74C353.19 461.74 355.19 478.91 336.36 480.74C317.53 482.57 308.11 456.511 302.9 447.141C296.9 436.411 290.18 433.751 290.18 433.751C331.25 430.821 353.19 461.74 353.19 461.74Z" fill="#4CA84E"/>
<g style="mix-blend-mode:multiply">
<path d="M308.27 457.77C349.51 471.15 359.64 439.16 359.67 439.04C366.01 451.04 353.19 461.74 353.19 461.74C353.19 461.74 355.19 478.91 336.36 480.74C322.72 482.12 314.01 468.78 308.27 457.77Z" fill="#4CA84E"/>
</g>
<path d="M461.943 446.846C462.497 444.124 459.751 441.268 455.811 440.467C451.871 439.666 448.229 441.223 447.675 443.946C447.122 446.668 449.867 449.524 453.807 450.325C457.748 451.126 461.39 449.568 461.943 446.846Z" fill="#F6FAFE"/>
<path d="M451.09 381.94C455.111 381.94 458.37 380.221 458.37 378.1C458.37 375.979 455.111 374.26 451.09 374.26C447.069 374.26 443.81 375.979 443.81 378.1C443.81 380.221 447.069 381.94 451.09 381.94Z" fill="#F6FAFE"/>
<path d="M467.3 451.21C469.034 451.21 470.44 449.804 470.44 448.07C470.44 446.336 469.034 444.93 467.3 444.93C465.566 444.93 464.16 446.336 464.16 448.07C464.16 449.804 465.566 451.21 467.3 451.21Z" fill="#F6FAFE"/>
<path d="M462.14 383.46C463.62 383.46 464.82 382.26 464.82 380.78C464.82 379.299 463.62 378.1 462.14 378.1C460.66 378.1 459.46 379.299 459.46 380.78C459.46 382.26 460.66 383.46 462.14 383.46Z" fill="#F6FAFE"/>
<path d="M437.23 276.01H417.96L407.96 238.14C407.96 232.929 410.027 227.931 413.706 224.242C417.386 220.553 422.379 218.473 427.59 218.46C432.809 218.46 437.815 220.533 441.506 224.224C445.197 227.915 447.27 232.921 447.27 238.14L437.23 276.01Z" fill="#FAF28C"/>
<path d="M427.59 218.46C426.034 218.459 424.483 218.643 422.97 219.01C427.263 220.047 431.082 222.497 433.813 225.967C436.545 229.436 438.03 233.724 438.03 238.14L427.98 276.01H437.23L447.23 238.14C447.23 232.927 445.162 227.928 441.48 224.238C437.798 220.549 432.802 218.471 427.59 218.46Z" fill="#EFCC6B"/>
<path d="M427.59 218.46C426.034 218.459 424.483 218.643 422.97 219.01C427.263 220.047 431.082 222.497 433.813 225.967C436.545 229.436 438.03 233.724 438.03 238.14L427.98 276.01H437.23L447.23 238.14C447.23 232.927 445.162 227.928 441.48 224.238C437.798 220.549 432.802 218.471 427.59 218.46Z" fill="#EFCC6B"/>
<g style="mix-blend-mode:multiply">
<path d="M445.92 243.25L445.8 242.8C445.8 242.8 439.06 265.16 415.08 265.16L417.96 276.01H437.23L445.92 243.25Z" fill="#EFCC6B"/>
</g>
<path d="M418.79 274.89L402.1 284.52L374.47 256.75C373.177 254.513 372.337 252.042 371.999 249.48C371.661 246.918 371.831 244.315 372.5 241.818C373.169 239.322 374.323 236.982 375.896 234.932C377.47 232.882 379.432 231.162 381.67 229.87C383.907 228.577 386.378 227.737 388.94 227.399C391.502 227.061 394.106 227.232 396.602 227.9C399.098 228.569 401.438 229.723 403.488 231.296C405.538 232.87 407.258 234.832 408.55 237.07L418.79 274.89Z" fill="#F8A33E"/>
<path d="M381.67 229.87C380.32 230.649 379.068 231.585 377.94 232.66C382.171 231.408 386.699 231.615 390.798 233.247C394.897 234.88 398.328 237.843 400.54 241.66L410.78 279.48L418.78 274.86L408.59 237.07C407.298 234.826 405.577 232.86 403.523 231.283C401.47 229.706 399.126 228.55 396.625 227.881C394.124 227.212 391.515 227.043 388.949 227.385C386.383 227.726 383.909 228.571 381.67 229.87Z" fill="#EFCC6B"/>
<path d="M381.67 229.87C380.32 230.649 379.068 231.585 377.94 232.66C382.171 231.408 386.699 231.615 390.798 233.247C394.897 234.88 398.328 237.843 400.54 241.66L410.78 279.48L418.78 274.86L408.59 237.07C407.298 234.826 405.577 232.86 403.523 231.283C401.47 229.706 399.126 228.55 396.625 227.881C394.124 227.212 391.515 227.043 388.949 227.385C386.383 227.726 383.909 228.571 381.67 229.87Z" fill="#F68620"/>
<g style="mix-blend-mode:multiply">
<path d="M409.93 242.17L409.61 241.84C409.61 241.84 414.95 264.58 394.19 276.57L402.1 284.57L418.79 274.94L409.93 242.17Z" fill="#EFCC6B"/>
</g>
<path d="M402.26 283.14L392.59 299.829L354.77 289.599C350.251 286.987 346.954 282.687 345.603 277.645C344.253 272.603 344.961 267.23 347.57 262.709C348.863 260.471 350.583 258.509 352.634 256.935C354.685 255.362 357.026 254.207 359.523 253.539C362.021 252.87 364.625 252.7 367.188 253.038C369.751 253.376 372.222 254.216 374.46 255.51L402.26 283.14Z" fill="#FAF28C"/>
<path d="M347.59 262.71C346.811 264.059 346.197 265.496 345.76 266.991C348.804 263.793 352.834 261.712 357.204 261.082C361.573 260.453 366.028 261.312 369.85 263.521L397.59 291.151L402.22 283.151L374.45 255.521C369.934 252.917 364.569 252.212 359.533 253.56C354.497 254.908 350.202 258.199 347.59 262.71Z" fill="#EFCC6B"/>
<path d="M347.59 262.71C346.811 264.059 346.197 265.496 345.76 266.991C348.804 263.793 352.834 261.712 357.204 261.082C361.573 260.453 366.028 261.312 369.85 263.521L397.59 291.151L402.22 283.151L374.45 255.521C369.934 252.917 364.569 252.212 359.533 253.56C354.497 254.908 350.202 258.199 347.59 262.71Z" fill="#EFCC6B"/>
<g style="mix-blend-mode:multiply">
<path d="M378.23 259.23L377.79 259.11C377.79 259.11 393.79 276.11 381.79 296.9L392.62 299.83L402.26 283.14L378.23 259.23Z" fill="#EFCC6B"/>
</g>
<path d="M392.07 298.55V317.82L354.2 327.82C348.981 327.82 343.975 325.747 340.284 322.056C336.593 318.365 334.52 313.359 334.52 308.14C334.52 302.921 336.593 297.915 340.284 294.224C343.975 290.533 348.981 288.46 354.2 288.46L392.07 298.55Z" fill="#F8A33E"/>
<path d="M334.52 308.19C334.519 309.746 334.703 311.297 335.07 312.81C336.118 308.528 338.573 304.723 342.042 302.003C345.511 299.283 349.792 297.806 354.2 297.81L392.07 307.81V298.56L354.2 288.56C348.989 288.56 343.991 290.626 340.302 294.306C336.613 297.986 334.533 302.979 334.52 308.19Z" fill="#EFCC6B"/>
<path d="M334.52 308.19C334.519 309.746 334.703 311.297 335.07 312.81C336.118 308.528 338.573 304.723 342.042 302.003C345.511 299.283 349.792 297.806 354.2 297.81L392.07 307.81V298.56L354.2 288.56C348.989 288.56 343.991 290.626 340.302 294.306C336.613 297.986 334.533 302.979 334.52 308.19Z" fill="#F68620"/>
<g style="mix-blend-mode:multiply">
<path d="M359.31 289.86L358.86 289.98C358.86 289.98 381.23 296.72 381.23 320.7L392.07 317.82V298.55L359.31 289.86Z" fill="#EFCC6B"/>
</g>
<path d="M390.95 316.99L400.59 333.68L372.81 361.37C368.289 363.978 362.918 364.684 357.877 363.332C352.836 361.98 348.539 358.681 345.93 354.16C344.637 351.923 343.797 349.452 343.459 346.89C343.121 344.328 343.292 341.725 343.96 339.228C344.629 336.732 345.783 334.392 347.356 332.342C348.93 330.292 350.892 328.572 353.13 327.28L390.95 316.99Z" fill="#FAF28C"/>
<path d="M345.93 354.11C346.709 355.459 347.646 356.711 348.72 357.84C347.468 353.609 347.675 349.081 349.307 344.982C350.94 340.883 353.903 337.452 357.72 335.24L395.59 325L390.97 317L353.15 327.24C350.911 328.53 348.949 330.248 347.374 332.297C345.799 334.345 344.644 336.684 343.974 339.179C343.303 341.675 343.131 344.277 343.466 346.839C343.802 349.401 344.639 351.872 345.93 354.11Z" fill="#EFCC6B"/>
<path d="M345.93 354.11C346.709 355.459 347.646 356.711 348.72 357.84C347.468 353.609 347.675 349.081 349.307 344.982C350.94 340.883 353.903 337.452 357.72 335.24L395.59 325L390.97 317L353.15 327.24C350.911 328.53 348.949 330.248 347.374 332.297C345.799 334.345 344.644 336.684 343.974 339.179C343.303 341.675 343.131 344.277 343.466 346.839C343.802 349.401 344.639 351.872 345.93 354.11Z" fill="#EFCC6B"/>
<g style="mix-blend-mode:multiply">
<path d="M358.23 325.85L357.91 326.17C357.91 326.17 380.65 320.83 392.64 341.6L400.64 333.68L391 316.99L358.23 325.85Z" fill="#EFCC6B"/>
</g>
<path d="M399.2 333.52L415.89 343.16L405.66 380.979C404.368 383.218 402.647 385.181 400.596 386.754C398.545 388.328 396.204 389.482 393.707 390.15C391.209 390.819 388.605 390.989 386.042 390.651C383.479 390.313 381.008 389.473 378.77 388.18C374.251 385.569 370.954 381.271 369.604 376.23C368.254 371.19 368.961 365.819 371.57 361.3L399.2 333.52Z" fill="#F8A33E"/>
<path d="M378.77 388.18C380.12 388.958 381.557 389.575 383.05 390.02C379.853 386.973 377.773 382.941 377.143 378.57C376.514 374.199 377.372 369.744 379.58 365.92L407.21 338.15L399.21 333.52L371.59 361.3C368.979 365.817 368.269 371.185 369.616 376.226C370.962 381.266 374.255 385.566 378.77 388.18Z" fill="#EFCC6B"/>
<path d="M378.77 388.18C380.12 388.958 381.557 389.575 383.05 390.02C379.853 386.973 377.773 382.941 377.143 378.57C376.514 374.199 377.372 369.744 379.58 365.92L407.21 338.15L399.21 333.52L371.59 361.3C368.979 365.817 368.269 371.185 369.616 376.226C370.962 381.266 374.255 385.566 378.77 388.18Z" fill="#F68620"/>
<g style="mix-blend-mode:multiply">
<path d="M375.3 357.55L375.18 358C375.18 358 392.18 342 412.96 354L415.89 343.17L399.2 333.53L375.3 357.55Z" fill="#EFCC6B"/>
</g>
<path d="M414.59 343.71H433.89L443.89 381.58C443.89 386.799 441.817 391.805 438.126 395.496C434.435 399.187 429.429 401.26 424.21 401.26C419.001 401.244 414.011 399.164 410.333 395.475C406.655 391.786 404.59 386.789 404.59 381.58L414.59 343.71Z" fill="#FAF28C"/>
<path d="M424.25 401.26C425.806 401.261 427.357 401.077 428.87 400.71C424.589 399.662 420.783 397.207 418.063 393.738C415.343 390.269 413.867 385.988 413.87 381.58L423.87 343.71H414.59L404.59 381.58C404.59 386.796 406.661 391.799 410.347 395.489C414.033 399.179 419.034 401.255 424.25 401.26Z" fill="#EFCC6B"/>
<path d="M424.25 401.26C425.806 401.261 427.357 401.077 428.87 400.71C424.589 399.662 420.783 397.207 418.063 393.738C415.343 390.269 413.867 385.988 413.87 381.58L423.87 343.71H414.59L404.59 381.58C404.59 386.796 406.661 391.799 410.347 395.489C414.033 399.179 419.034 401.255 424.25 401.26Z" fill="#EFCC6B"/>
<g style="mix-blend-mode:multiply">
<path d="M405.92 376.47L406.04 376.92C406.04 376.92 412.78 354.56 436.76 354.56L433.89 343.71H414.59L405.92 376.47Z" fill="#EFCC6B"/>
</g>
<path d="M433.06 344.83L449.75 335.2L477.38 362.97C479.989 367.49 480.696 372.86 479.346 377.901C477.996 382.942 474.699 387.24 470.18 389.85C467.942 391.144 465.471 391.983 462.908 392.322C460.345 392.66 457.741 392.49 455.243 391.821C452.746 391.152 450.405 389.998 448.354 388.425C446.303 386.851 444.582 384.889 443.29 382.65L433.06 344.83Z" fill="#F8A33E"/>
<path d="M470.18 389.85C471.528 389.074 472.777 388.137 473.9 387.06C469.669 388.312 465.141 388.105 461.042 386.473C456.943 384.84 453.512 381.877 451.3 378.06L441.07 340.25L433.07 344.87L443.3 382.69C445.917 387.202 450.218 390.49 455.258 391.833C460.298 393.175 465.665 392.462 470.18 389.85Z" fill="#EFCC6B"/>
<path d="M470.18 389.85C471.528 389.074 472.777 388.137 473.9 387.06C469.669 388.312 465.141 388.105 461.042 386.473C456.943 384.84 453.512 381.877 451.3 378.06L441.07 340.25L433.07 344.87L443.3 382.69C445.917 387.202 450.218 390.49 455.258 391.833C460.298 393.175 465.665 392.462 470.18 389.85Z" fill="#F68620"/>
<g style="mix-blend-mode:multiply">
<path d="M441.91 377.55L442.24 377.88C442.24 377.88 436.89 355.14 457.66 343.15L449.75 335.15L433.06 344.78L441.91 377.55Z" fill="#EFCC6B"/>
</g>
<path d="M449.59 336.58L459.22 319.89L497.04 330.12C501.559 332.732 504.856 337.032 506.207 342.074C507.557 347.116 506.849 352.489 504.24 357.01C502.948 359.248 501.228 361.21 499.178 362.783C497.128 364.357 494.788 365.511 492.292 366.179C489.796 366.848 487.192 367.018 484.63 366.68C482.068 366.342 479.597 365.503 477.36 364.21L449.59 336.58Z" fill="#FAF28C"/>
<path d="M504.24 357.01C505.022 355.662 505.639 354.225 506.08 352.73C503.034 355.927 499.001 358.008 494.631 358.637C490.26 359.266 485.804 358.408 481.98 356.2L454.21 328.57L449.59 336.57L477.36 364.2C479.597 365.494 482.067 366.334 484.628 366.673C487.19 367.012 489.793 366.842 492.29 366.174C494.786 365.507 497.126 364.354 499.177 362.781C501.227 361.209 502.948 359.248 504.24 357.01Z" fill="#EFCC6B"/>
<path d="M504.24 357.01C505.022 355.662 505.639 354.225 506.08 352.73C503.034 355.927 499.001 358.008 494.631 358.637C490.26 359.266 485.804 358.408 481.98 356.2L454.21 328.57L449.59 336.57L477.36 364.2C479.597 365.494 482.067 366.334 484.628 366.673C487.19 367.012 489.793 366.842 492.29 366.174C494.786 365.507 497.126 364.354 499.177 362.781C501.227 361.209 502.948 359.248 504.24 357.01Z" fill="#EFCC6B"/>
<g style="mix-blend-mode:multiply">
<path d="M473.59 360.49L474.04 360.61C474.04 360.61 458.04 343.61 470.04 322.82L459.21 319.89L449.59 336.58L473.59 360.49Z" fill="#EFCC6B"/>
</g>
<path d="M459.78 321.17V301.89L497.64 291.89C502.859 291.89 507.865 293.963 511.556 297.654C515.247 301.345 517.32 306.35 517.32 311.57C517.32 316.789 515.247 321.795 511.556 325.485C507.865 329.176 502.859 331.25 497.64 331.25L459.78 321.17Z" fill="#F8A33E"/>
<path d="M517.32 311.53C517.321 309.974 517.137 308.423 516.77 306.91C515.722 311.192 513.267 314.997 509.798 317.717C506.329 320.437 502.048 321.913 497.64 321.91L459.78 311.91V321.16L497.64 331.16C502.851 331.16 507.849 329.094 511.538 325.414C515.228 321.734 517.307 316.741 517.32 311.53Z" fill="#EFCC6B"/>
<path d="M517.32 311.53C517.321 309.974 517.137 308.423 516.77 306.91C515.722 311.192 513.267 314.997 509.798 317.717C506.329 320.437 502.048 321.913 497.64 321.91L459.78 311.91V321.16L497.64 331.16C502.851 331.16 507.849 329.094 511.538 325.414C515.228 321.734 517.307 316.741 517.32 311.53Z" fill="#F68620"/>
<g style="mix-blend-mode:multiply">
<path d="M492.59 329.859L493.03 329.74C493.03 329.74 470.59 323 470.59 299.02L459.75 301.89V321.17L492.59 329.859Z" fill="#EFCC6B"/>
</g>
<path d="M460.89 302.73L451.26 286.03L479.03 258.37C483.552 255.761 488.925 255.055 493.968 256.407C499.01 257.759 503.31 261.058 505.92 265.58C508.528 270.1 509.234 275.472 507.882 280.513C506.529 285.554 503.23 289.851 498.71 292.46L460.89 302.73Z" fill="#FAF28C"/>
<path d="M505.92 265.61C505.141 264.261 504.204 263.009 503.13 261.88C504.378 266.111 504.169 270.638 502.537 274.736C500.906 278.834 497.945 282.265 494.13 284.48L456.31 294.72L460.93 302.72L498.75 292.48C503.261 289.865 506.55 285.566 507.894 280.528C509.238 275.49 508.528 270.125 505.92 265.61Z" fill="#EFCC6B"/>
<path d="M505.92 265.61C505.141 264.261 504.204 263.009 503.13 261.88C504.378 266.111 504.169 270.638 502.537 274.736C500.906 278.834 497.945 282.265 494.13 284.48L456.31 294.72L460.93 302.72L498.75 292.48C503.261 289.865 506.55 285.566 507.894 280.528C509.238 275.49 508.528 270.125 505.92 265.61Z" fill="#EFCC6B"/>
<g style="mix-blend-mode:multiply">
<path d="M493.59 293.87L493.92 293.55C493.92 293.55 471.18 298.89 459.19 278.12L451.19 286.03L460.82 302.73L493.59 293.87Z" fill="#EFCC6B"/>
</g>
<path d="M452.64 286.2L435.95 276.56L446.19 238.74C447.481 236.502 449.201 234.54 451.252 232.966C453.302 231.393 455.642 230.239 458.138 229.57C460.634 228.902 463.238 228.731 465.8 229.069C468.362 229.407 470.832 230.247 473.07 231.54C475.308 232.832 477.27 234.551 478.844 236.602C480.417 238.652 481.571 240.992 482.24 243.488C482.908 245.984 483.079 248.588 482.741 251.15C482.403 253.712 481.563 256.183 480.27 258.42L452.64 286.2Z" fill="#F8A33E"/>
<path d="M473.07 231.54C471.72 230.762 470.283 230.145 468.79 229.7C471.987 232.746 474.068 236.778 474.699 241.148C475.33 245.519 474.475 249.974 472.27 253.8L444.59 281.57L452.59 286.2L480.22 258.42C482.836 253.908 483.552 248.54 482.211 243.5C480.87 238.459 477.582 234.157 473.07 231.54Z" fill="#EFCC6B"/>
<path d="M473.07 231.54C471.72 230.762 470.283 230.145 468.79 229.7C471.987 232.746 474.068 236.778 474.699 241.148C475.33 245.519 474.475 249.974 472.27 253.8L444.59 281.57L452.59 286.2L480.22 258.42C482.836 253.908 483.552 248.54 482.211 243.5C480.87 238.459 477.582 234.157 473.07 231.54Z" fill="#F68620"/>
<g style="mix-blend-mode:multiply">
<path d="M476.59 262.17L476.71 261.72C476.71 261.72 459.71 277.72 438.92 265.72L435.99 276.55L452.68 286.19L476.59 262.17Z" fill="#EFCC6B"/>
</g>
<path d="M425.92 348.51C447.266 348.51 464.57 331.206 464.57 309.86C464.57 288.514 447.266 271.21 425.92 271.21C404.574 271.21 387.27 288.514 387.27 309.86C387.27 331.206 404.574 348.51 425.92 348.51Z" fill="#C54827"/>
<path d="M425.92 332.49C438.418 332.49 448.55 322.359 448.55 309.86C448.55 297.362 438.418 287.23 425.92 287.23C413.422 287.23 403.29 297.362 403.29 309.86C403.29 322.359 413.422 332.49 425.92 332.49Z" fill="#4A2211"/>
<path d="M448.52 278.5C453.93 285.947 456.506 295.08 455.783 304.256C455.061 313.433 451.088 322.05 444.579 328.559C438.07 335.068 429.453 339.041 420.276 339.763C411.1 340.486 401.967 337.91 394.52 332.5C397.805 337.021 402.031 340.777 406.906 343.508C411.782 346.239 417.192 347.88 422.764 348.318C428.335 348.757 433.935 347.982 439.178 346.048C444.421 344.114 449.183 341.066 453.134 337.114C457.086 333.163 460.134 328.401 462.068 323.158C464.002 317.915 464.777 312.315 464.338 306.744C463.9 301.172 462.259 295.762 459.528 290.886C456.797 286.01 453.041 281.785 448.52 278.5Z" fill="#95281E"/>
<g style="mix-blend-mode:multiply">
<path d="M388.07 316.99L387.96 317.14C389.956 327.108 395.799 335.888 404.221 341.579C412.644 347.271 422.97 349.416 432.963 347.551C442.955 345.685 451.811 339.958 457.613 331.611C463.414 323.263 465.695 312.967 463.96 302.95C428.12 343.61 388.07 316.99 388.07 316.99Z" fill="#95281E"/>
</g>
<path d="M426.64 309.98C428.573 309.98 430.14 308.413 430.14 306.48C430.14 304.547 428.573 302.98 426.64 302.98C424.707 302.98 423.14 304.547 423.14 306.48C423.14 308.413 424.707 309.98 426.64 309.98Z" fill="#F6FAFE"/>
<path d="M431.25 327.05C432.901 327.05 434.24 325.712 434.24 324.06C434.24 322.409 432.901 321.07 431.25 321.07C429.599 321.07 428.26 322.409 428.26 324.06C428.26 325.712 429.599 327.05 431.25 327.05Z" fill="#F6FAFE"/>
<path d="M434.24 317.45C435.891 317.45 437.23 316.111 437.23 314.46C437.23 312.808 435.891 311.47 434.24 311.47C432.589 311.47 431.25 312.808 431.25 314.46C431.25 316.111 432.589 317.45 434.24 317.45Z" fill="#F6FAFE"/>
<path d="M427.45 297.28C428.753 297.28 429.81 296.223 429.81 294.92C429.81 293.616 428.753 292.56 427.45 292.56C426.147 292.56 425.09 293.616 425.09 294.92C425.09 296.223 426.147 297.28 427.45 297.28Z" fill="#F6FAFE"/>
<path d="M418.36 309.21C419.663 309.21 420.72 308.154 420.72 306.85C420.72 305.547 419.663 304.49 418.36 304.49C417.057 304.49 416 305.547 416 306.85C416 308.154 417.057 309.21 418.36 309.21Z" fill="#F6FAFE"/>
<path d="M410.32 313.43C411.877 313.43 413.14 312.167 413.14 310.61C413.14 309.053 411.877 307.79 410.32 307.79C408.763 307.79 407.5 309.053 407.5 310.61C407.5 312.167 408.763 313.43 410.32 313.43Z" fill="#F6FAFE"/>
<path d="M419.01 321.29C420.672 321.29 422.02 319.942 422.02 318.28C422.02 316.617 420.672 315.27 419.01 315.27C417.348 315.27 416 316.617 416 318.28C416 319.942 417.348 321.29 419.01 321.29Z" fill="#F6FAFE"/>
<path d="M435.17 303.19C436.612 303.19 437.78 302.021 437.78 300.58C437.78 299.138 436.612 297.97 435.17 297.97C433.729 297.97 432.56 299.138 432.56 300.58C432.56 302.021 433.729 303.19 435.17 303.19Z" fill="#F6FAFE"/>
<path d="M415.96 301.5C417.639 301.5 419 300.139 419 298.46C419 296.781 417.639 295.42 415.96 295.42C414.281 295.42 412.92 296.781 412.92 298.46C412.92 300.139 414.281 301.5 415.96 301.5Z" fill="#F6FAFE"/>
<path d="M440.27 310.15C441.949 310.15 443.31 308.789 443.31 307.11C443.31 305.431 441.949 304.07 440.27 304.07C438.591 304.07 437.23 305.431 437.23 307.11C437.23 308.789 438.591 310.15 440.27 310.15Z" fill="#F6FAFE"/>
<path d="M476.78 254.501C478.403 250.534 477.846 246.552 475.535 245.607C473.225 244.662 470.036 247.111 468.413 251.078C466.791 255.044 467.348 259.026 469.658 259.971C471.969 260.916 475.157 258.467 476.78 254.501Z" fill="#F6FAFE"/>
<path d="M505.103 322.648C505.533 320.189 502.86 317.667 499.134 317.015C495.407 316.364 492.037 317.829 491.607 320.288C491.177 322.747 493.85 325.269 497.576 325.92C501.303 326.572 504.673 325.107 505.103 322.648Z" fill="#F6FAFE"/>
<path d="M473.91 242.81C475.694 242.81 477.14 241.363 477.14 239.58C477.14 237.796 475.694 236.35 473.91 236.35C472.126 236.35 470.68 237.796 470.68 239.58C470.68 241.363 472.126 242.81 473.91 242.81Z" fill="#F6FAFE"/>
<path d="M500.67 279.58C502.454 279.58 503.9 278.134 503.9 276.35C503.9 274.566 502.454 273.12 500.67 273.12C498.886 273.12 497.44 274.566 497.44 276.35C497.44 278.134 498.886 279.58 500.67 279.58Z" fill="#F6FAFE"/>
<path d="M510.11 320.22C511.894 320.22 513.34 318.774 513.34 316.99C513.34 315.206 511.894 313.76 510.11 313.76C508.326 313.76 506.88 315.206 506.88 316.99C506.88 318.774 508.326 320.22 510.11 320.22Z" fill="#F6FAFE"/>
<path d="M495.3 288.45C498.306 287.041 499.913 284.132 498.891 281.951C497.869 279.771 494.604 279.146 491.599 280.555C488.593 281.964 486.986 284.874 488.008 287.054C489.03 289.234 492.295 289.859 495.3 288.45Z" fill="#F6FAFE"/>
</g>
<defs>
<clipPath id="clip0_4854_3224">
<rect width="619.18" height="838.58" fill="white"/>
</clipPath>
</defs>
</svg>
