<svg width="604" height="807" viewBox="0 0 604 807" fill="none" xmlns="http://www.w3.org/2000/svg">
<g clip-path="url(#clip0_4865_357)">
<path d="M275.81 806.402C388.377 806.402 479.63 784.284 479.63 757.002C479.63 729.719 388.377 707.602 275.81 707.602C163.243 707.602 71.99 729.719 71.99 757.002C71.99 784.284 163.243 806.402 275.81 806.402Z" fill="#A7A9AC"/>
<path d="M352.09 416.171L352.87 416.461C354.44 417.021 356.09 417.591 357.76 418.141L358.66 418.431C360.35 418.971 362.01 419.431 363.58 419.941L364.31 420.151C366.15 420.681 367.83 421.151 369.43 421.551H369.63C371.25 421.971 372.91 422.371 374.7 422.771L375.31 422.911C376.88 423.261 378.51 423.601 380.26 423.911L381.13 424.081C382.75 424.391 384.37 424.681 385.97 424.941L386.84 425.081C388.49 425.351 390.13 425.591 391.75 425.811L392.34 425.881C394.02 426.101 395.69 426.301 397.34 426.471H397.59C399.16 426.631 400.74 426.771 402.31 426.901L403.31 426.981C404.92 427.101 406.52 427.201 408.14 427.281H408.98C410.58 427.361 412.17 427.411 413.77 427.451H414.52C416.16 427.451 417.8 427.501 419.42 427.501H419.73C421.36 427.501 422.98 427.501 424.6 427.421H425.09C426.7 427.421 428.3 427.301 429.87 427.221H430.66C432.22 427.141 433.77 427.031 435.33 426.921L436.11 426.851C437.67 426.731 439.22 426.591 440.78 426.441L441.36 426.381C444.56 426.051 447.82 425.651 451.01 425.191L451.61 425.101C453.13 424.881 454.61 424.641 456.17 424.391L456.92 424.261C458.41 424.011 459.92 423.751 461.34 423.481L462.06 423.341C463.57 423.051 465.06 422.751 466.58 422.441L466.92 422.371C468.44 422.051 469.92 421.721 471.49 421.371L471.73 421.311C473.22 420.971 474.73 420.611 476.2 420.251L476.81 420.091C478.24 419.741 479.66 419.371 481.09 418.991L481.78 418.811L486 417.641L486.54 417.481C487.97 417.071 489.39 416.651 490.81 416.221H490.96C551.96 397.621 595.76 362.831 597.6 361.361C599.581 359.767 601.123 357.696 602.084 355.342C603.044 352.989 603.391 350.429 603.091 347.905C602.791 345.381 601.854 342.974 600.369 340.911C598.884 338.848 596.899 337.196 594.6 336.111C556.68 318.111 520.01 307.561 485.6 304.831C440.44 301.241 399.48 310.711 363.86 332.971C358.72 336.191 353.69 339.681 348.86 343.381C343.8 345.291 338.78 347.311 333.92 349.381C329.573 351.261 325.24 353.234 320.92 355.301C322.2 340.241 323.58 325.841 325.04 312.301C334.981 301.438 345.86 291.473 357.55 282.521C359.47 281.031 361.46 279.521 363.49 278.031H364.22C365.34 278.031 366.46 278.051 367.58 278.091H369.73C370.93 278.091 372.12 278.091 373.3 278.031H373.84H375.16C376.64 277.971 378.16 277.891 379.88 277.781H380.54C382.26 277.661 384.04 277.501 385.84 277.321L386.98 277.191L387.47 277.131C388.68 276.991 389.89 276.851 391.08 276.691L392.55 276.481L393.09 276.401C394.15 276.241 395.22 276.081 396.26 275.901L398.08 275.581H398.38C399.38 275.401 400.38 275.211 401.38 275.011L403.5 274.571C404.5 274.361 405.5 274.141 406.5 273.911L408.57 273.421C409.57 273.181 410.57 272.921 411.57 272.661L411.97 272.561L413.54 272.141L416.65 271.251L417.16 271.101L418.39 270.731C419.65 270.351 420.9 269.941 422.14 269.531L423.14 269.201C424.69 268.681 426.26 268.131 427.82 267.551L428.76 267.201L429.15 267.051C430.25 266.631 431.35 266.221 432.42 265.791C432.87 265.621 433.31 265.441 433.75 265.251L434.17 265.081L436.98 263.911L438.6 263.211L438.81 263.121L441.44 261.951L443.29 261.091L445.85 259.871L447.67 258.981C448.52 258.561 449.36 258.131 450.19 257.701L450.43 257.581L451.93 256.801C452.81 256.341 453.67 255.881 454.53 255.411L456.11 254.551C457.11 254.001 458.11 253.441 459.06 252.881L460.19 252.231C461.523 251.451 462.857 250.661 464.19 249.861L465.25 249.211C466.25 248.611 467.17 248.021 468.11 247.421L469.59 246.421L471.96 244.881L473.53 243.821L475.72 242.331L478.4 240.461L478.84 240.131C523.15 208.521 549.23 168.571 550.32 166.881C551.692 164.747 552.501 162.3 552.671 159.768C552.84 157.237 552.364 154.703 551.289 152.406C550.213 150.108 548.571 148.121 546.518 146.63C544.466 145.139 542.068 144.193 539.55 143.881C534.55 143.261 529.49 142.751 524.55 142.361C457.66 137.051 412.14 153.651 381.68 175.211L381.99 174.871C382.7 174.081 383.4 173.281 384.09 172.481L384.42 172.101C384.71 171.781 384.99 171.451 385.26 171.101C386.1 170.101 386.92 169.101 387.74 168.101L388.41 167.281C389.41 166.011 390.41 164.721 391.41 163.441C391.623 163.167 391.823 162.897 392.01 162.631L392.25 162.311C392.95 161.381 393.64 160.451 394.31 159.521C394.58 159.151 394.84 158.771 395.1 158.401L395.38 158.011C395.95 157.201 396.52 156.381 397.08 155.561C397.4 155.111 397.7 154.651 398.01 154.191L398.19 153.921C398.72 153.131 399.19 152.341 399.74 151.571L400.83 149.861L402.3 147.501L403.3 145.801C403.78 145.001 404.25 144.201 404.71 143.401L404.88 143.111L405.68 141.721C406.17 140.881 406.63 140.031 407.1 139.181C407.1 139.181 407.76 138.011 407.95 137.641C408.477 136.661 408.997 135.681 409.51 134.701L410.12 133.551C410.787 132.217 411.453 130.861 412.12 129.481L412.65 128.381C413.13 127.381 413.65 126.381 414.08 125.381L414.79 123.811C415.18 122.961 415.56 122.121 415.94 121.271L416.68 119.571C417.03 118.771 417.37 117.961 417.68 117.161C417.92 116.571 418.9 114.221 418.9 114.221L419.11 113.671C439.11 63.9707 439.55 17.0207 439.56 15.0407C439.572 12.4993 438.939 9.99647 437.718 7.7671C436.498 5.53772 434.732 3.65492 432.584 2.2954C430.437 0.935882 427.98 0.144223 425.443 -0.00527293C422.906 -0.154769 420.372 0.342793 418.08 1.44073C378.4 20.4407 347.68 44.0507 326.41 71.8407C316.55 54.2207 303.06 37.0107 286.08 20.4507C284.261 18.6775 282.021 17.3954 279.57 16.7248C277.12 16.0542 274.539 16.017 272.07 16.6168C269.601 17.2165 267.325 18.4334 265.455 20.1535C263.586 21.8736 262.183 24.0404 261.38 26.4507C260.86 27.9907 248.89 64.4507 251.32 108.191C251.32 108.371 251.32 108.541 251.32 108.721C251.32 108.721 251.45 110.801 251.49 111.321C251.54 112.031 251.6 112.741 251.65 113.461C251.65 113.461 251.74 114.561 251.78 114.971C251.85 115.731 251.92 116.491 252 117.241C252 117.241 252.11 118.311 252.15 118.661C252.24 119.561 252.35 120.461 252.47 121.371L252.58 122.371C252.74 123.611 252.92 124.841 253.1 126.081L253.26 127.081C253.4 127.991 253.55 128.901 253.7 129.791C253.76 130.141 253.96 131.221 253.96 131.221C254.1 132.001 254.24 132.781 254.4 133.581C254.49 134.041 254.71 135.121 254.71 135.121C254.86 135.871 255.01 136.611 255.18 137.381C255.3 137.911 255.42 138.441 255.53 138.961C255.7 139.701 255.88 140.441 256.06 141.181L256.45 142.791C256.64 143.551 256.84 144.301 257.04 145.041V145.201L257.43 146.621C257.65 147.401 257.88 148.191 258.11 148.971L258.55 150.431C258.83 151.341 259.12 152.251 259.41 153.151C259.41 153.151 259.68 153.981 259.77 154.241C260.19 155.511 260.63 156.771 261.1 158.041L261.4 158.841C261.77 159.841 262.15 160.841 262.55 161.841C262.67 162.171 262.81 162.491 262.94 162.841L263.1 163.221C263.43 164.031 263.77 164.841 264.1 165.641C264.28 166.061 264.47 166.481 264.65 166.891L264.77 167.161C265.11 167.911 265.45 168.671 265.77 169.421C266.01 169.941 266.26 170.421 266.51 170.981C266.86 171.721 267.23 172.461 267.59 173.191L268.39 174.761C268.78 175.501 269.17 176.241 269.59 177.021C269.86 177.501 270.12 178.021 270.4 178.481C270.82 179.241 271.26 180.001 271.71 180.771L271.91 181.121C272.11 181.471 272.32 181.811 272.53 182.121C273.04 182.971 273.53 183.821 274.1 184.671L274.19 184.821C271.75 181.907 269.223 178.974 266.61 176.021L266.54 175.901C266.27 175.371 265.99 174.841 265.71 174.321L264.99 172.971C264.71 172.451 264.42 171.971 264.13 171.411L263.34 170.011L262.44 168.451L262.22 168.071C262.16 167.961 262.09 167.851 262.02 167.741C240.62 131.601 195.17 87.1207 100.08 79.5707C95.18 79.1807 90.13 78.8907 85.08 78.7007C82.5455 78.6118 80.0299 79.1668 77.7681 80.3141C75.5064 81.4613 73.5725 83.1633 72.1471 85.2609C70.7217 87.3585 69.8515 89.7832 69.6176 92.3085C69.3838 94.8338 69.7941 97.3771 70.8101 99.7007C71.62 101.541 91.06 145.101 129.81 183.311L130.21 183.721C130.42 183.931 132.08 185.531 132.56 185.981C133.19 186.591 133.83 187.191 134.49 187.811L135.87 189.091L137.95 190.991L139.26 192.171L141.82 194.401L142.75 195.201C143.92 196.201 145.1 197.201 146.3 198.201L147.3 199.011C148.18 199.721 149.06 200.431 149.96 201.131C150.28 201.391 151.37 202.221 151.37 202.221C152.15 202.821 152.93 203.421 153.72 204.011L155.03 205.011L155.3 205.201C156.06 205.761 156.82 206.321 157.59 206.871L159.25 208.041C160.02 208.571 160.79 209.111 161.57 209.631C162.13 210.021 162.7 210.401 163.27 210.781L165.67 212.341L165.87 212.471L167.37 213.471C168.22 214.011 169.08 214.531 169.95 215.061L170.42 215.351L171.56 216.041C172.56 216.641 173.56 217.221 174.61 217.801L175.83 218.511C177.3 219.331 178.77 220.131 180.19 220.871L181.19 221.361C182.35 221.961 183.52 222.561 184.7 223.141L185.86 223.691L186.33 223.921C187.33 224.381 188.33 224.841 189.27 225.291C189.76 225.521 190.27 225.741 190.75 225.951L191.12 226.121C192.06 226.531 192.99 226.941 193.94 227.341C194.59 227.621 195.25 227.881 195.94 228.151C196.87 228.531 197.81 228.901 198.76 229.271L200.76 230.031C201.76 230.391 202.68 230.741 203.65 231.031L203.82 231.091L205.66 231.731C206.66 232.081 207.66 232.401 208.73 232.731L209.2 232.881L210.66 233.341C211.82 233.691 212.99 234.021 214.16 234.341L214.62 234.471L215.74 234.781C217.51 235.251 219.24 235.681 220.88 236.071L221.57 236.211C223.2 236.591 224.71 236.911 226.16 237.211L227.47 237.461L227.99 237.551C229.16 237.771 230.33 237.981 231.51 238.171L232.65 238.351C254.77 266.461 260.09 283.081 261.09 291.221C259.78 302.471 258.53 314.291 257.35 326.591L255.28 324.461C251.64 320.771 247.84 317.071 243.95 313.461C225.51 272.141 177.23 205.011 56.77 195.461C43.0843 194.396 29.3514 194.062 15.6301 194.461C13.0996 194.541 10.6307 195.26 8.45321 196.552C6.27574 197.844 4.4606 199.665 3.17688 201.847C1.89317 204.029 1.18265 206.501 1.11152 209.032C1.04038 211.562 1.61093 214.07 2.77004 216.321C3.85004 218.411 29.89 267.961 78.2 309.621C79.35 310.621 80.5101 311.621 81.6601 312.551L82.1001 312.921C83.2201 313.861 84.3601 314.781 85.5001 315.701L86.05 316.151C87.2 317.071 88.35 317.981 89.52 318.881L90.0301 319.281C91.23 320.207 92.4434 321.131 93.67 322.051L93.9101 322.231C95.1401 323.151 96.39 324.061 97.71 325.001L97.93 325.161C99.18 326.061 100.44 326.941 101.69 327.811L102.29 328.221C103.53 329.067 104.78 329.907 106.04 330.741L106.68 331.151C107.96 331.991 109.25 332.821 110.55 333.641L111.05 333.951C112.423 334.811 113.807 335.661 115.2 336.501C116.593 337.341 118 338.161 119.42 338.961L119.92 339.241C121.28 340.011 122.64 340.771 124.01 341.501L124.73 341.891C126.1 342.621 127.47 343.341 128.88 344.061L129.54 344.391C130.973 345.111 132.41 345.817 133.85 346.511L134.27 346.711C135.73 347.411 137.21 348.091 138.67 348.711L138.98 348.851C140.473 349.517 141.977 350.167 143.49 350.801L144.18 351.081C145.65 351.691 147.18 352.281 148.63 352.871L149.42 353.171C150.913 353.744 152.427 354.304 153.96 354.851L154.63 355.081C156.22 355.641 157.81 356.181 159.49 356.721L159.63 356.771C161.23 357.281 162.84 357.771 164.44 358.251L165.01 358.421C166.61 358.881 168.207 359.321 169.8 359.741L170.66 359.961C172.24 360.371 173.84 360.761 175.44 361.131L176.3 361.331C178.04 361.721 179.66 362.071 181.3 362.391L181.89 362.501C183.71 362.861 185.39 363.161 186.95 363.421L187.23 363.471C188.86 363.741 190.58 364.001 192.49 364.261L193.25 364.361C194.86 364.581 196.58 364.781 198.36 364.971L199.29 365.061C200.5 365.181 201.72 365.291 202.94 365.391C204.47 366.871 205.94 368.391 207.45 369.851C223.534 386.022 237.83 403.878 250.09 423.111C249.16 438.941 248.3 455.481 247.53 472.451C236.475 465.464 224.928 459.288 212.98 453.971C211.24 452.481 209.45 451.021 207.65 449.611C181.8 429.391 151.12 417.741 116.45 414.981C83.9 412.401 48.1 417.871 10.05 431.251C7.65259 432.093 5.50854 433.531 3.8191 435.43C2.12965 437.328 0.950194 439.625 0.391407 442.104C-0.167379 444.583 -0.0871671 447.163 0.624501 449.603C1.33617 452.042 2.65596 454.261 4.46004 456.051C5.90004 457.471 40.16 491.141 90.46 512.501C90.4864 512.506 90.5137 512.506 90.5401 512.501C91.7101 512.991 92.8801 513.501 94.09 513.971L94.5101 514.141C95.6701 514.611 96.8401 515.071 98.0401 515.531L98.6001 515.751C99.7701 516.201 100.95 516.641 102.12 517.071L102.66 517.261C103.89 517.711 105.12 518.141 106.43 518.591L106.6 518.651C107.85 519.081 109.11 519.501 110.43 519.931L110.67 520.001C111.92 520.401 113.18 520.801 114.47 521.181L115.03 521.351C116.26 521.721 117.51 522.081 118.76 522.431L119.4 522.611C120.67 522.961 121.94 523.301 123.22 523.611L123.71 523.731C125.02 524.071 126.35 524.391 127.71 524.731H127.81C129.17 525.041 130.54 525.341 131.91 525.631L132.39 525.731C133.723 526.011 135.057 526.271 136.39 526.511L137.07 526.641C138.38 526.881 139.7 527.111 141.02 527.321L141.68 527.431C143.03 527.641 144.39 527.841 145.77 528.031L146.16 528.081C147.55 528.271 148.93 528.441 150.32 528.591H150.58C151.98 528.751 153.38 528.881 154.82 529.001L155.91 529.101C157.12 529.191 158.33 529.281 159.54 529.351H160.29C161.67 529.431 163.05 529.491 164.45 529.531H165.07C166.51 529.531 167.95 529.591 169.39 529.601H169.68C171.11 529.601 172.54 529.601 174.07 529.541H174.47C175.9 529.541 177.33 529.441 178.77 529.371H179.51C180.92 529.291 182.33 529.191 183.76 529.071L184.5 529.001C185.95 528.881 187.4 528.731 188.86 528.571L189.38 528.501C190.83 528.331 192.28 528.141 193.78 527.921H194.02C195.52 527.701 197.02 527.451 198.53 527.181L199.19 527.071C200.64 526.811 202.09 526.521 203.55 526.221L204.34 526.051C205.39 525.821 206.45 525.591 207.5 525.341C210.22 526.961 212.913 528.627 215.58 530.341C225.838 537.069 235.558 544.585 244.65 552.821C244.55 556.541 244.45 560.301 244.36 564.071H244.24C242.87 564.071 241.47 564.071 240.06 564.071H239.3H238.08H237.25L236 564.121H235.11L233.85 564.191L231.6 564.361L230.77 564.441L228.15 564.711L227.15 564.821L226.1 564.951L224.74 565.141L223.44 565.331L222.29 565.511L220.97 565.731L219.77 565.951L218.12 566.261L217.76 566.341C184.64 573.011 139.33 596.341 110.76 669.431C109.909 671.61 109.579 673.959 109.798 676.289C110.016 678.619 110.777 680.865 112.019 682.849C113.261 684.832 114.949 686.497 116.95 687.712C118.95 688.926 121.207 689.655 123.54 689.841C124.329 689.901 125.121 689.901 125.91 689.841C151.368 687.098 176.17 680.019 199.24 668.911L199.67 668.711L201.84 667.611L203.6 666.701L204.86 666.041L206.72 665.041L207.86 664.411L210.06 663.161L210.87 662.701C211.87 662.121 212.87 661.521 213.87 660.921L214.7 660.401C215.42 659.961 216.13 659.511 216.86 659.041L217.98 658.311L219.82 657.101L221.04 656.271C221.62 655.871 222.2 655.471 222.77 655.061L224.02 654.171L225.72 652.921L226.96 652.001L228.66 650.691L229.85 649.751L231.61 648.321L232.71 647.421L234.71 645.711L235.55 644.991C236.48 644.171 237.4 643.331 238.32 642.471L238.9 641.921C239.61 641.241 240.33 640.561 241.03 639.861C241.26 639.641 242.68 638.201 243.03 637.861C242.3 699.731 242.81 741.451 242.82 741.981C242.868 745.716 244.308 749.3 246.858 752.03C249.409 754.76 252.886 756.44 256.61 756.741C257.07 756.741 257.54 756.741 258.01 756.741L294.01 756.281C297.933 756.208 301.671 754.6 304.422 751.804C307.174 749.007 308.72 745.244 308.73 741.321C308.73 740.541 307.79 664.151 310.3 565.321C322.812 559.261 335.714 554.043 348.92 549.701C349.82 550.161 350.72 550.601 351.61 551.021L352.22 551.311C353.61 551.971 355 552.611 356.47 553.251H356.57C357.95 553.861 359.33 554.431 360.69 554.981L361.2 555.191C362.56 555.741 363.92 556.261 365.28 556.761L365.98 557.021C367.32 557.511 368.66 558.021 369.98 558.431L370.67 558.671C372.04 559.121 373.41 559.561 374.76 559.971L375.24 560.111C376.64 560.531 378.03 560.931 379.53 561.341H379.41L379.61 561.401C381.02 561.781 382.43 562.141 383.84 562.491L384.45 562.631C385.8 562.961 387.15 563.271 388.51 563.561L389.23 563.711C390.58 564.001 391.92 564.261 393.23 564.511L393.88 564.631C395.27 564.891 396.66 565.131 398.15 565.361H398.31C399.7 565.581 401.08 565.781 402.54 565.981H402.86C404.23 566.161 405.6 566.321 406.99 566.481L407.62 566.551C408.95 566.691 410.28 566.821 411.62 566.941L412.92 567.041L416.28 567.281H416.8C419.56 567.451 422.38 567.551 425.16 567.611H425.69C427.01 567.611 428.32 567.611 429.69 567.611H430.32C431.62 567.611 432.91 567.611 434.18 567.551H434.81C436.13 567.551 437.45 567.471 438.81 567.411H439.09C440.42 567.351 441.75 567.271 443.09 567.191H443.31C444.63 567.101 445.94 567.011 447.22 566.901H447.79C449.05 566.791 450.31 566.681 451.54 566.551L452.17 566.491C453.42 566.361 454.68 566.231 455.94 566.081L456.39 566.031C457.69 565.871 458.98 565.711 460.27 565.531C514.47 558.211 556.41 534.791 558.16 533.791C560.372 532.541 562.229 530.75 563.56 528.585C564.89 526.421 565.648 523.954 565.764 521.417C565.88 518.879 565.349 516.353 564.222 514.077C563.095 511.8 561.408 509.847 559.32 508.401C519.15 480.601 479.32 464.971 440.96 461.921C414.678 459.649 388.237 463.766 363.89 473.921C358.89 476.011 353.98 478.371 349.24 480.921C336.839 484.029 324.628 487.856 312.67 492.381C312.74 490.531 312.82 488.701 312.9 486.881C313.67 468.761 314.54 450.991 315.5 433.961C326.288 426.89 337.532 420.543 349.16 414.961C350.09 415.451 351.09 415.801 352.09 416.171ZM353.45 200.171L354.87 199.171C353.45 200.741 352.1 202.311 350.8 203.871C350.7 203.991 350.6 204.101 350.51 204.221L350.27 204.511L349.14 205.911C348.81 206.321 348.47 206.741 348.14 207.171L347.04 208.581C346.72 208.991 345.88 210.101 345.76 210.261C343.76 211.561 341.76 212.874 339.76 214.201C340.21 212.061 340.65 209.961 341.11 207.901L342.5 207.101C343.14 206.731 343.79 206.361 344.42 205.981C345.42 205.421 346.3 204.841 347.24 204.261L347.65 204.001L349.03 203.131C350.03 202.491 351.03 201.841 352.03 201.181L352.47 200.891L353.45 200.171Z" fill="#231F20"/>
<path d="M339.96 363.231C327.62 368.578 315.6 374.635 303.96 381.371C306.04 353.251 308.33 328.251 310.78 306.031C315.46 300.481 327.9 286.711 348.5 270.711C373.06 251.641 414.63 225.421 473.14 208.711L463.28 174.091C395.65 193.351 348.06 224.091 318.28 248.671C326.72 194.671 336.01 164.921 344.03 148.571L311.69 132.761C301.69 153.061 293.12 183.761 285.85 224.601C276.033 210.166 265.216 196.435 253.48 183.511C234.987 163.021 215.146 143.788 194.09 125.941L171.14 153.681C190.901 170.499 209.538 188.594 226.93 207.851C266.02 251.531 275.09 277.631 276.21 291.321C273.637 313.208 271.323 336.968 269.27 362.601C262.27 353.971 254.09 344.601 244.62 335.001C210.38 300.211 152.25 255.051 69.7501 237.421L62.2301 272.631C121.09 285.181 173.48 314.321 218.09 359.321C236.14 377.395 251.996 397.534 265.33 419.321C264.07 440.221 262.957 462.135 261.99 485.061C261.77 490.208 261.56 495.331 261.36 500.431C229.52 475.861 177.26 446.221 113.02 449.321L114.73 485.321C151.25 483.581 187.93 494.571 223.73 517.981C236.612 526.408 248.684 536.013 259.79 546.671C256.68 654.441 257.73 741.061 257.74 742.081L293.74 741.621C293.74 740.621 292.74 659.101 295.54 556.071C314.54 546.071 384.01 512.841 437.62 528.781L447.88 494.271C393.51 478.031 330.59 500.101 296.81 515.321C297.15 505.775 297.527 496.128 297.94 486.381C298.85 464.951 299.87 444.821 300.94 425.871C322.31 410.821 402.18 360.321 493.09 378.011L499.95 342.681C449.24 332.821 393.91 339.931 339.96 363.231Z" fill="#4CA84E"/>
<path d="M550.81 520.83C410.09 423.44 326.09 516.74 326.09 516.74C326.09 516.74 473.09 494.44 550.81 520.83Z" fill="#66BE64"/>
<path d="M326.09 516.741C418.94 595.381 550.85 520.831 550.85 520.831C473.09 494.441 326.09 516.741 326.09 516.741Z" fill="#4CA84E"/>
<g style="mix-blend-mode:multiply">
<path d="M458.3 550.771C396.88 536.271 376.49 506.431 369.72 487.891C341.31 499.801 326.09 516.741 326.09 516.741C367.41 551.781 416.54 556.411 458.3 550.771Z" fill="#4CA84E"/>
</g>
<path d="M15 445.401C176.46 388.621 232.88 500.781 232.88 500.781C232.88 500.781 96.91 440.451 15 445.401Z" fill="#66BE64"/>
<path d="M232.88 500.78C122.56 552.12 15 445.4 15 445.4C96.91 440.45 232.88 500.78 232.88 500.78Z" fill="#4CA84E"/>
<g style="mix-blend-mode:multiply">
<path d="M96.3401 498.69C159.4 500.92 186.94 477.52 198.34 461.42C222.6 480.42 232.85 500.78 232.85 500.78C183.73 523.66 135.09 515.15 96.3401 498.69Z" fill="#4CA84E"/>
</g>
<path d="M124.71 675.11C170.26 558.61 259.28 580.85 259.28 580.85C259.28 580.85 161.03 627.38 124.71 675.11Z" fill="#66BE64"/>
<path d="M259.28 580.852C235.09 666.432 124.71 675.112 124.71 675.112C161.03 627.382 259.28 580.852 259.28 580.852Z" fill="#4CA84E"/>
<g style="mix-blend-mode:multiply">
<path d="M193.01 655.471C224.32 621.611 224.49 595.201 221.01 581.191C243.09 576.811 259.26 580.851 259.26 580.851C248.51 618.981 220.62 641.841 193.01 655.471Z" fill="#4CA84E"/>
</g>
<path d="M537.76 158.751C367.88 137.911 336.82 259.561 336.82 259.561C336.82 259.561 456.69 171.481 537.76 158.751Z" fill="#66BE64"/>
<path d="M336.82 259.56C455.58 286.06 537.76 158.75 537.76 158.75C456.69 171.48 336.82 259.56 336.82 259.56Z" fill="#4CA84E"/>
<g style="mix-blend-mode:multiply">
<path d="M469.74 228.251C408.62 243.951 376.74 227.001 362.09 213.721C342.47 237.471 336.82 259.561 336.82 259.561C389.74 271.371 435.39 252.641 469.74 228.251Z" fill="#4CA84E"/>
</g>
<path d="M84.8401 93.7305C255.84 99.9705 267.33 225 267.33 225C267.33 225 162.88 119.1 84.8401 93.7305Z" fill="#66BE64"/>
<path d="M267.33 225C145.88 232.41 84.8401 93.7305 84.8401 93.7305C162.88 119.1 267.33 225 267.33 225Z" fill="#4CA84E"/>
<g style="mix-blend-mode:multiply">
<path d="M141.03 173.09C198.9 198.25 233.1 186.55 249.62 175.75C265.25 202.29 267.33 225 267.33 225C213.22 228.32 171.09 202.61 141.03 173.09Z" fill="#4CA84E"/>
</g>
<path d="M588.21 349.711C406.49 263.321 326.66 387.481 326.66 387.481C326.66 387.481 493.09 333.781 588.21 349.711Z" fill="#66BE64"/>
<path d="M326.66 387.481C449.26 461.151 588.21 349.711 588.21 349.711C493.09 333.781 326.66 387.481 326.66 387.481Z" fill="#4CA84E"/>
<g style="mix-blend-mode:multiply">
<path d="M486.53 401.94C412.53 396.74 383.23 365.94 371.87 345.74C341.16 364.93 326.66 387.48 326.66 387.48C381.29 420.32 439.16 416.38 486.53 401.94Z" fill="#4CA84E"/>
</g>
<path d="M16.0901 209.431C217.21 203.821 240.09 349.631 240.09 349.631C240.09 349.631 109.55 233.321 16.0901 209.431Z" fill="#66BE64"/>
<path d="M240.09 349.632C98.1801 367.502 16.0901 209.432 16.0901 209.432C109.55 233.322 240.09 349.632 240.09 349.632Z" fill="#4CA84E"/>
<g style="mix-blend-mode:multiply">
<path d="M88 298.32C157.79 323.45 197 307.15 215.59 293.23C235.93 323.18 240.09 349.67 240.09 349.67C176.86 357.59 125.51 330.63 88 298.32Z" fill="#4CA84E"/>
</g>
<path d="M424.76 15C272.95 87.7 311.64 204.94 311.64 204.94C311.64 204.94 364.32 68.48 424.76 15Z" fill="#66BE64"/>
<path d="M311.64 204.94C424.09 164.01 424.76 15 424.76 15C364.32 68.48 311.64 204.94 311.64 204.94Z" fill="#4CA84E"/>
<g style="mix-blend-mode:multiply">
<path d="M405.2 108.611C362.87 153.981 327.44 156.841 308.3 153.611C304.62 183.681 311.64 204.971 311.64 204.971C361.74 186.701 389.65 147.011 405.2 108.611Z" fill="#4CA84E"/>
</g>
<path d="M275.81 31.2109C373.09 126.121 313.09 205.751 313.09 205.751C313.09 205.751 308.17 87.7609 275.81 31.2109Z" fill="#66BE64"/>
<path d="M313.09 205.751C237.71 145.331 275.79 31.2109 275.79 31.2109C308.17 87.7609 313.09 205.751 313.09 205.751Z" fill="#4CA84E"/>
<g style="mix-blend-mode:multiply">
<path d="M266.52 107.852C287.13 153.512 313.52 164.852 328.96 167.342C323.96 191.342 313.11 205.752 313.11 205.752C279.52 178.832 268.46 141.252 266.52 107.852Z" fill="#4CA84E"/>
</g>
<path d="M470.737 341.949C478.185 341.747 484.108 337.411 483.968 332.266C483.828 327.12 477.677 323.114 470.23 323.316C462.782 323.519 456.858 327.855 456.998 333C457.138 338.146 463.29 342.152 470.737 341.949Z" fill="#F6FAFE"/>
<path d="M440.018 187.443C446.943 184.696 451.018 178.59 449.12 173.805C447.222 169.021 440.069 167.37 433.144 170.117C426.219 172.865 422.144 178.97 424.042 183.755C425.94 188.539 433.093 190.191 440.018 187.443Z" fill="#F6FAFE"/>
<path d="M413.144 73.5768C415.125 66.3947 412.709 59.4629 407.747 58.0943C402.785 56.7257 397.156 61.4384 395.175 68.6206C393.194 75.8027 395.611 82.7345 400.573 84.1031C405.535 85.4717 411.163 80.7589 413.144 73.5768Z" fill="#F6FAFE"/>
<path d="M446.88 340.59C450.293 340.59 453.06 337.824 453.06 334.41C453.06 330.997 450.293 328.23 446.88 328.23C443.467 328.23 440.7 330.997 440.7 334.41C440.7 337.824 443.467 340.59 446.88 340.59Z" fill="#F6FAFE"/>
<path d="M420.13 201.68C423.543 201.68 426.31 198.913 426.31 195.5C426.31 192.087 423.543 189.32 420.13 189.32C416.717 189.32 413.95 192.087 413.95 195.5C413.95 198.913 416.717 201.68 420.13 201.68Z" fill="#F6FAFE"/>
</g>
<defs>
<clipPath id="clip0_4865_357">
<rect width="603.22" height="806.4" fill="white"/>
</clipPath>
</defs>
</svg>
