<svg width="435" height="556" viewBox="0 0 435 556" fill="none" xmlns="http://www.w3.org/2000/svg">
<g clip-path="url(#clip0_6254_429)">
<path d="M197.689 555.931C194.629 555.931 191.599 555.931 188.689 555.821L186.369 555.751C183.159 555.641 179.97 555.491 176.9 555.291C175.3 555.191 173.679 555.071 172.049 554.931C169.569 554.731 167.05 554.481 164.63 554.201C152.488 552.879 140.5 550.401 128.83 546.801C127.09 546.251 125.35 545.671 123.66 545.071C102.53 537.581 84.6595 525.961 70.6595 510.521L69.4795 509.211L68.6495 508.211L67.9595 507.391L67.2995 506.591C66.8895 506.081 66.4495 505.501 65.9995 504.901L65.9395 504.811C65.6995 504.501 65.4695 504.171 65.2295 503.811L65.1395 503.681L64.5495 502.831C64.5253 502.784 64.495 502.74 64.4595 502.701C64.2495 502.371 64.0295 502.051 63.8095 501.701L63.7495 501.601C62.7495 500.131 61.8795 498.601 60.9995 496.901V496.821C60.7895 496.431 60.5795 496.021 60.3695 495.611C60.3695 495.561 60.3195 495.511 60.2995 495.471L59.7195 494.311V494.201C53.1895 480.681 44.8495 455.321 28.2395 362.201C18.6795 308.661 13.3895 272.311 12.0795 251.101C10.9295 232.471 12.7595 225.311 15.4795 219.161C17.3895 203.241 30.0195 188.351 52.4795 175.391C51.8595 174.671 51.2295 173.941 50.6195 173.211L49.8495 172.271L49.2795 171.581C48.4595 170.581 47.6395 169.581 46.8395 168.581C46.6195 168.311 46.4095 168.031 46.1995 167.751L45.9395 167.421C45.0195 166.251 44.0995 165.071 43.2095 163.881L42.6895 163.171L42.5195 162.931C41.5695 161.651 40.6295 160.371 39.7195 159.081L39.2195 158.351C38.2595 157.017 37.3128 155.641 36.3795 154.221C36.2795 154.071 36.1595 153.891 36.0495 153.711C35.0495 152.231 34.1195 150.771 33.1895 149.291L32.9595 148.911C31.9595 147.261 30.9595 145.761 30.1395 144.291L30.0195 144.091C6.78449 104.78 -3.35361 59.1005 1.06951 13.6509C1.41228 10.0049 3.07698 6.61028 5.7498 4.10693C8.42263 1.60358 11.9189 0.164338 15.5795 0.0607876C17.5795 0.0107876 19.7095 -0.0192905 21.7595 -0.0192905C50.9033 -0.062783 79.7549 5.788 106.58 17.1809C134.396 28.9655 159.418 46.4753 180.02 68.5708C195.162 84.7291 207.723 103.125 217.26 123.111C226.827 103.127 239.418 84.7379 254.589 68.5908C275.191 46.4953 300.213 28.9856 328.03 17.2009C354.851 5.80802 383.699 -0.0427927 412.84 0.000728989C414.9 0.000728989 416.98 0.000807114 419.03 0.0808071C422.688 0.186757 426.182 1.627 428.853 4.13012C431.524 6.63325 433.187 10.0266 433.53 13.6709C437.738 57.1692 428.636 100.92 407.43 139.131C407.41 139.176 407.387 139.22 407.36 139.261V139.261C406.5 140.821 405.57 142.431 404.62 144.051L404.45 144.341C403.58 145.811 402.66 147.341 401.64 148.941L401.44 149.271C400.49 150.781 399.54 152.271 398.58 153.701C398.44 153.921 398.33 154.081 398.22 154.241C397.3 155.631 396.34 157.011 395.38 158.391L394.89 159.101C393.95 160.431 392.98 161.751 392.01 163.101L391.87 163.281C391.72 163.501 391.57 163.711 391.41 163.921C390.5 165.141 389.57 166.331 388.63 167.531L388.4 167.831C388.19 168.101 387.98 168.381 387.76 168.651C386.85 169.801 385.9 170.951 384.96 172.091L384.79 172.301C405.9 184.121 417.68 197.761 419.92 212.991C431.47 237.371 425.75 264.721 415.66 312.921C414.11 320.301 412.52 327.921 410.82 336.291C410.013 340.291 409.183 344.447 408.33 348.761L407.33 354.061L406.48 358.531L405.66 362.901L404.84 367.291C404.57 368.761 404.3 370.231 404.03 371.731C399.49 396.851 395.98 415.921 392.21 432.551C391.5 435.711 390.78 438.761 390.07 441.621C389.36 444.481 388.57 447.501 387.83 450.181C387.45 451.571 387.06 452.941 386.67 454.281C385.88 457.001 385.06 459.641 384.23 462.151C382.49 467.441 380.69 472.151 378.74 476.691C374.101 487.784 367.612 498.01 359.55 506.931C350.811 516.427 340.727 524.591 329.62 531.161C328.12 532.041 326.62 532.911 325.08 533.741C289.37 553.101 250.19 554.451 221.58 555.441L216.499 555.621L213.809 555.701L211.04 555.781C209.273 555.834 207.473 555.874 205.64 555.901H202.549C201.043 555.901 199.513 555.901 197.96 555.901L197.689 555.931Z" fill="black"/>
<path d="M30.1405 223.02C85.6705 169.34 179.881 159.58 216.141 159.78C263.691 160.04 308.551 163.78 405.321 217.23C419.941 244.66 405.321 280.29 389.321 369.01C376.801 438.2 370.091 473.32 348.551 496.74C311.211 537.32 257.271 539.16 221.051 540.41C183.891 541.72 121.351 543.83 81.8405 500.41C71.8405 489.56 63.8405 476.2 43.0005 359.59C20.8805 236.22 26.3505 231.3 30.1405 223.02Z" fill="#AADDDB"/>
<path d="M372.83 200.189L332.11 278.089C332.11 278.089 341.87 442.689 270.98 503.429C237.78 531.879 213.05 539.289 199.51 540.919C207.26 540.919 214.51 540.639 220.96 540.409C257.18 539.159 311.12 537.319 348.46 496.739C370 473.319 376.71 438.199 389.23 369.009C405.23 280.289 419.89 244.659 405.23 217.229C393.75 210.829 382.97 205.219 372.83 200.189Z" fill="#8DD2CE"/>
<path d="M30.1406 223.021C30.8906 184.351 141.481 149.161 233.511 151.861C306.571 153.961 403.511 180.991 405.271 217.231C407.031 253.471 313.601 295.761 230.771 300.041C135.741 304.831 29.4006 261.171 30.1406 223.021Z" fill="#B9DDDA"/>
<path d="M69.7996 220.08C70.3596 192.59 154.74 167.53 224.93 169.44C280.69 170.95 354.56 190.16 355.93 215.94C357.3 241.72 286.04 271.83 222.82 274.83C150.38 278.35 69.2596 247.24 69.7996 220.08Z" fill="black"/>
<path opacity="0.5" d="M396.109 333.27C396.109 333.37 333.789 517.72 73.1094 487.76C75.2835 492.413 78.1906 496.688 81.7194 500.42C121.229 543.83 183.719 541.72 220.929 540.42C257.149 539.17 311.089 537.33 348.429 496.75C369.969 473.33 376.679 438.21 389.199 369.02C391.579 356 393.899 344.14 396.109 333.27Z" fill="#77CBC5"/>
<path d="M384.657 314.526C387.708 298.286 386.08 284.35 381.021 283.4C375.962 282.45 369.388 294.844 366.337 311.085C363.286 327.325 364.914 341.261 369.972 342.211C375.031 343.161 381.605 330.767 384.657 314.526Z" fill="white"/>
<path d="M355.839 358.19C359.783 358.19 362.979 354.993 362.979 351.05C362.979 347.107 359.783 343.91 355.839 343.91C351.896 343.91 348.699 347.107 348.699 351.05C348.699 354.993 351.896 358.19 355.839 358.19Z" fill="white"/>
<path d="M69.4694 172.01C88.9871 192.903 112.733 209.396 139.126 220.39C165.519 231.384 193.951 236.628 222.529 235.77L15.9094 15.0801C13.177 43.5413 16.5404 72.2581 25.7758 99.3176C35.0112 126.377 49.9065 151.158 69.4694 172.01V172.01Z" fill="#8DD2CE"/>
<path d="M15.9102 15.0807L222.53 235.771C225.265 207.308 221.904 178.59 212.671 151.529C203.437 124.468 188.543 99.6845 168.98 78.8307C149.458 57.9411 125.71 41.4508 99.3159 30.4583C72.922 19.4659 44.4888 14.2237 15.9102 15.0807V15.0807Z" fill="#B9DDDA"/>
<path opacity="0.5" d="M222.53 235.77C224.621 213.666 223.067 191.369 217.93 169.77C135.99 197.31 25.3202 97.7697 25.2402 97.6797C34.4131 125.364 49.5064 150.719 69.4703 171.979C88.9853 192.878 112.73 209.376 139.123 220.376C165.516 231.376 193.95 236.623 222.53 235.77Z" fill="#77CBC5"/>
<path d="M139.239 87.267C146.208 77.8243 141.105 62.2334 127.841 52.4435C114.577 42.6537 98.1744 42.3721 91.205 51.8147C84.2357 61.2573 89.3387 76.8484 102.603 86.6383C115.867 96.4282 132.269 96.7096 139.239 87.267Z" fill="#F6FAFE"/>
<path d="M135.741 119.21C141.137 119.21 145.511 114.836 145.511 109.44C145.511 104.044 141.137 99.6699 135.741 99.6699C130.345 99.6699 125.971 104.044 125.971 109.44C125.971 114.836 130.345 119.21 135.741 119.21Z" fill="#F6FAFE"/>
<path d="M365.031 172.01C345.513 192.903 321.767 209.396 295.374 220.39C268.981 231.384 240.549 236.628 211.971 235.77L418.591 15.0801C421.323 43.5413 417.96 72.2581 408.724 99.3176C399.489 126.377 384.594 151.158 365.031 172.01V172.01Z" fill="#8DD2CE"/>
<path d="M418.59 15.0805L211.97 235.77C209.235 207.308 212.596 178.59 221.829 151.529C231.063 124.467 245.957 99.6844 265.52 78.8305C285.042 57.9415 308.791 41.4516 335.184 30.4592C361.578 19.4668 390.011 14.2242 418.59 15.0805V15.0805Z" fill="#B9DDDA"/>
<path opacity="0.5" d="M211.969 235.77C209.877 213.666 211.435 191.368 216.579 169.77C298.509 197.31 409.179 97.7697 409.259 97.6797C400.086 125.364 384.993 150.719 365.029 171.979C345.514 192.878 321.769 209.376 295.376 220.376C268.984 231.376 240.55 236.623 211.969 235.77Z" fill="#77CBC5"/>
<path d="M162.55 425.04C177.677 425.04 189.94 412.777 189.94 397.65C189.94 382.523 177.677 370.26 162.55 370.26C147.423 370.26 135.16 382.523 135.16 397.65C135.16 412.777 147.423 425.04 162.55 425.04Z" fill="#F8F9E3"/>
<path d="M267.64 425.04C282.767 425.04 295.03 412.777 295.03 397.65C295.03 382.523 282.767 370.26 267.64 370.26C252.513 370.26 240.25 382.523 240.25 397.65C240.25 412.777 252.513 425.04 267.64 425.04Z" fill="#F8F9E3"/>
<path d="M135.149 397.65C134.868 394.004 135.362 390.341 136.599 386.9C137.866 383.401 139.841 380.202 142.399 377.5C144.983 374.77 148.096 372.595 151.549 371.11C155.028 369.63 158.768 368.858 162.549 368.84C166.33 368.863 170.068 369.634 173.549 371.11C177.004 372.596 180.121 374.77 182.709 377.5C185.265 380.202 187.236 383.402 188.499 386.9C189.746 390.338 190.24 394.004 189.949 397.65C189.419 390.577 186.283 383.953 181.149 379.06C176.123 374.314 169.472 371.67 162.559 371.67C155.647 371.673 148.997 374.317 143.969 379.06C138.832 383.953 135.69 390.576 135.149 397.65V397.65Z" fill="#231F20"/>
<path d="M189.939 397.65C190.229 401.295 189.738 404.96 188.499 408.4C187.228 411.897 185.254 415.096 182.699 417.8C180.114 420.533 176.997 422.708 173.539 424.19C170.06 425.671 166.32 426.442 162.539 426.46C158.759 426.437 155.02 425.666 151.539 424.19C148.088 422.701 144.976 420.527 142.389 417.8C139.834 415.096 137.86 411.897 136.589 408.4C135.352 404.96 134.858 401.296 135.139 397.65C135.679 404.72 138.813 411.341 143.939 416.24C148.969 420.987 155.624 423.631 162.539 423.63C169.451 423.625 176.1 420.982 181.129 416.24C186.263 411.346 189.402 404.723 189.939 397.65V397.65Z" fill="#231F20"/>
<path d="M161.12 425.651C171.045 425.651 179.09 417.605 179.09 407.681C179.09 397.756 171.045 389.711 161.12 389.711C151.196 389.711 143.15 397.756 143.15 407.681C143.15 417.605 151.196 425.651 161.12 425.651Z" fill="#040809"/>
<path d="M240.261 397.65C239.974 394.004 240.469 390.339 241.711 386.9C242.978 383.401 244.952 380.202 247.511 377.5C250.092 374.767 253.206 372.593 256.661 371.11C260.14 369.63 263.88 368.858 267.661 368.84C271.441 368.863 275.18 369.634 278.661 371.11C282.113 372.597 285.226 374.771 287.811 377.5C290.372 380.199 292.347 383.4 293.611 386.9C294.853 390.339 295.347 394.004 295.061 397.65C294.53 390.577 291.395 383.953 286.261 379.06C281.234 374.314 274.583 371.67 267.671 371.67C260.758 371.673 254.109 374.317 249.081 379.06C243.944 383.953 240.802 390.576 240.261 397.65V397.65Z" fill="#231F20"/>
<path d="M295.029 397.65C295.319 401.295 294.828 404.96 293.589 408.4C292.318 411.897 290.344 415.096 287.789 417.8C285.202 420.531 282.085 422.705 278.629 424.19C275.15 425.671 271.41 426.442 267.629 426.46C263.849 426.437 260.11 425.666 256.629 424.19C253.178 422.701 250.065 420.527 247.479 417.8C244.924 415.096 242.95 411.897 241.679 408.4C240.442 404.96 239.948 401.296 240.229 397.65C240.769 404.72 243.903 411.341 249.029 416.24C254.059 420.987 260.713 423.631 267.629 423.63C274.541 423.625 281.19 420.982 286.219 416.24C291.349 411.343 294.487 404.722 295.029 397.65V397.65Z" fill="#231F20"/>
<path d="M266.21 425.651C276.135 425.651 284.18 417.605 284.18 407.681C284.18 397.756 276.135 389.711 266.21 389.711C256.286 389.711 248.24 397.756 248.24 407.681C248.24 417.605 256.286 425.651 266.21 425.651Z" fill="#040809"/>
<path d="M238.39 420.91C224.76 428.26 205.39 428.26 191.79 420.91C190.842 420.418 189.777 420.194 188.711 420.263C187.645 420.331 186.618 420.689 185.74 421.299C184.862 421.908 184.168 422.745 183.731 423.719C183.293 424.694 183.131 425.77 183.26 426.83C184.67 438.89 190.99 455.46 215.11 455.46C239.23 455.46 245.56 438.89 246.96 426.83C247.094 425.764 246.933 424.682 246.494 423.701C246.055 422.721 245.356 421.879 244.472 421.269C243.588 420.658 242.553 420.302 241.481 420.239C240.409 420.175 239.339 420.408 238.39 420.91V420.91Z" fill="#040809"/>
<path d="M131.461 351.59C131.461 351.59 142.081 321.59 168.681 321.59" stroke="#231F20" stroke-width="8" stroke-miterlimit="10" stroke-linecap="round"/>
<path d="M298.73 351.59C298.73 351.59 288.1 321.59 261.51 321.59" stroke="#231F20" stroke-width="8" stroke-miterlimit="10" stroke-linecap="round"/>
</g>
<defs>
<clipPath id="clip0_6254_429">
<rect width="434.51" height="555.93" fill="white"/>
</clipPath>
</defs>
</svg>
