<svg width="555" height="733" viewBox="0 0 555 733" fill="none" xmlns="http://www.w3.org/2000/svg">
<g clip-path="url(#clip0_4906_842)">
<path d="M265.08 732.09C397.722 732.09 505.25 710.729 505.25 684.38C505.25 658.03 397.722 636.67 265.08 636.67C132.438 636.67 24.9099 658.03 24.9099 684.38C24.9099 710.729 132.438 732.09 265.08 732.09Z" fill="#A7A9AC"/>
<path d="M260.22 681.82C245.195 681.772 230.215 680.17 215.52 677.04C214.05 676.73 212.58 676.4 211.09 676.04H210.98C209.55 675.71 208.11 675.36 206.67 675.04L206.36 674.96C204.99 674.62 203.62 674.26 202.23 673.89L201.69 673.74C200.39 673.39 199.08 673.02 197.77 672.64L197.01 672.42C195.75 672.05 194.51 671.68 193.27 671.29L192.27 670.98C191.09 670.61 189.9 670.22 188.72 669.83L187.5 669.44C186.33 669.05 185.15 668.63 183.96 668.22L182.73 667.79C181.19 667.25 179.65 666.68 178.09 666.1H177.98C175.192 665.06 172.777 663.215 171.04 660.798C169.304 658.382 168.326 655.504 168.23 652.53C168.23 652.53 168.23 651.95 168.18 650.82C167.57 650.62 167.02 650.41 166.51 650.19C163.773 649.01 161.45 647.043 159.837 644.537C158.223 642.032 157.392 639.103 157.45 636.124C157.508 633.144 158.452 630.25 160.162 627.809C161.872 625.368 164.27 623.492 167.05 622.42L167.51 622.25C167.35 614.25 167.22 605.95 167.11 597.49C152.52 593.88 149.66 592.02 147.82 590.88C145.333 589.274 143.376 586.968 142.198 584.252C141.019 581.536 140.67 578.533 141.195 575.619C141.72 572.705 143.095 570.012 145.148 567.879C147.2 565.745 149.839 564.267 152.73 563.63C153.13 563.55 159.17 562.22 166.73 560.99C166.73 553.93 166.67 546.85 166.67 539.8C164.886 538.348 163.184 536.799 161.57 535.16C159.873 533.392 158.635 531.235 157.964 528.878C157.293 526.521 157.21 524.035 157.723 521.639C158.235 519.242 159.326 517.007 160.902 515.13C162.477 513.253 164.488 511.79 166.76 510.87C166.84 497.44 166.98 484.09 167.19 470.97C166.26 470.57 165.3 470.19 164.31 469.81L162.4 469.11C156.73 467.129 150.934 465.533 145.05 464.33C139.14 469.57 133.22 474.11 132.89 474.33C130.566 476.095 127.778 477.143 124.867 477.347C121.956 477.551 119.049 476.902 116.502 475.479C113.954 474.055 111.878 471.92 110.526 469.334C109.174 466.748 108.605 463.824 108.89 460.92C109.002 459.749 109.219 458.591 109.54 457.46C91.1499 452.75 75.7699 446.05 63.0699 437.21C61.6499 438.29 60.7099 438.97 60.6099 439.04C58.2433 440.756 55.4267 441.743 52.5065 441.88C49.5863 442.017 46.6898 441.297 44.1731 439.81C41.6564 438.323 39.6291 436.132 38.3405 433.508C37.0519 430.884 36.5581 427.941 36.9199 425.04C37.2099 422.73 37.9199 420.19 40.2299 415.5C35.7965 409.686 31.9698 403.434 28.8099 396.84C23.5499 395.59 19.2299 394.32 18.9699 394.24C16.1126 393.397 13.571 391.722 11.6691 389.43C9.76715 387.137 8.59104 384.329 8.29068 381.365C7.99033 378.402 8.57932 375.415 9.98258 372.787C11.3858 370.16 13.5398 368.009 16.1699 366.61C16.9172 366.212 17.6887 365.861 18.4799 365.56C17.9299 362.92 17.4799 360.21 16.9899 357.45C15.2299 357.36 14.0999 357.28 13.9899 357.27C11.0084 357.08 8.15162 356.004 5.78568 354.179C3.41974 352.355 1.65244 349.866 0.710269 347.031C-0.231901 344.196 -0.306014 341.144 0.497439 338.266C1.30089 335.389 2.9453 332.817 5.21991 330.88C6.76991 329.55 8.66992 328.19 14.2899 325.88C14.1499 318.2 14.3132 310.123 14.7799 301.65C11.2799 298.47 8.60991 295.82 8.43991 295.65C6.43931 293.657 5.04184 291.14 4.40824 288.388C3.77464 285.637 3.93064 282.762 4.85831 280.095C5.78597 277.428 7.44763 275.077 9.65213 273.312C11.8566 271.548 14.5145 270.441 17.3199 270.12C17.3199 269.79 17.6299 266.89 17.7399 265.8C7.2299 251.59 5.43991 247.33 4.55991 244.23C3.9311 242 3.82768 239.654 4.25775 237.376C4.68783 235.099 5.6397 232.953 7.0387 231.105C8.4377 229.257 10.2458 227.759 12.3211 226.728C14.3964 225.696 16.6824 225.16 18.9999 225.16C20.2549 225.157 21.5052 225.315 22.7199 225.63C22.8199 225.04 22.9099 224.46 23.0099 223.89C23.7799 219.27 24.5899 214.97 25.4199 211.13C25.5899 210.35 25.7599 209.59 25.9299 208.84C26.2899 207.25 26.6599 205.72 27.0299 204.26C24.1599 200.96 21.8199 197.94 21.1299 197.03C19.4191 194.808 18.3656 192.15 18.089 189.359C17.8124 186.568 18.3238 183.756 19.5651 181.241C20.8064 178.726 22.728 176.61 25.1116 175.132C27.4952 173.654 30.2453 172.874 33.0499 172.88C33.7017 172.88 34.353 172.92 34.9999 173C37.249 173.314 39.4373 173.969 41.4899 174.94C47.2099 169.52 54.3299 166.86 62.9899 166.86C63.8399 166.86 64.6899 166.86 65.5699 166.93C73.9899 167.34 81.2199 172.09 87.1399 181.07C92.5799 180.27 97.3299 179.84 98.1999 179.76C98.6399 179.76 99.0799 179.7 99.5099 179.7C102.366 179.699 105.163 180.512 107.572 182.046C109.981 183.579 111.902 185.768 113.11 188.356C114.318 190.944 114.762 193.823 114.39 196.654C114.018 199.486 112.845 202.152 111.01 204.34C109.87 205.7 108.15 207.75 99.4999 212.78C100.32 216.047 101.103 219.493 101.85 223.12C113.08 224.99 123.59 227.5 124.17 227.64C127.065 228.335 129.688 229.876 131.705 232.066C133.721 234.257 135.04 236.998 135.494 239.94C135.947 242.883 135.515 245.894 134.252 248.59C132.988 251.286 130.951 253.546 128.4 255.08C126.4 256.28 123.33 258.13 107.59 261.32C108.04 265.71 108.42 270.09 108.73 274.32C108.917 277.033 109.107 279.77 109.3 282.53C109.3 283.03 109.36 283.53 109.4 284.04C115.4 286.84 120.26 289.48 120.56 289.64C123.181 291.054 125.322 293.216 126.71 295.851C128.098 298.486 128.67 301.474 128.354 304.435C128.037 307.397 126.846 310.197 124.933 312.479C123.02 314.761 120.471 316.422 117.61 317.25C115.932 317.715 114.209 317.997 112.47 318.09C113.277 324.309 114.476 330.472 116.06 336.54C117.749 335.508 119.626 334.821 121.582 334.518C123.538 334.214 125.535 334.302 127.458 334.774C129.38 335.246 131.19 336.094 132.783 337.269C134.376 338.444 135.721 339.923 136.74 341.62C138.11 343.9 139.65 347.22 142.05 358.75H142.28C142.57 357.05 142.78 355.95 142.81 355.82C143.246 353.565 144.194 351.44 145.581 349.609C146.968 347.778 148.757 346.29 150.81 345.26C150.337 344.412 149.945 343.522 149.64 342.6C148.705 339.778 148.63 336.742 149.424 333.877C150.218 331.012 151.846 328.448 154.1 326.51C155.74 325.1 158.31 322.89 172.83 317.61C173.057 313.95 173.293 310.323 173.54 306.73C173.368 306.057 173.248 305.372 173.18 304.68C172.941 302.281 173.284 299.859 174.18 297.62C174.85 288.26 175.56 279.06 176.31 270.12C165.22 263.81 154.22 256 153.62 255.58C151.206 253.853 149.359 251.449 148.312 248.671C147.265 245.894 147.065 242.868 147.739 239.977C148.412 237.087 149.928 234.461 152.095 232.432C154.261 230.403 156.981 229.062 159.91 228.58C161.207 228.384 162.518 228.29 163.83 228.3C165.34 228.3 169.06 228.3 180.09 230.22C181.4 218.03 182.81 206.32 184.3 195.22C182.883 193.593 181.833 191.678 181.223 189.608C180.614 187.538 180.458 185.361 180.766 183.225C181.075 181.089 181.84 179.045 183.011 177.232C184.182 175.419 185.73 173.88 187.55 172.72C188.55 166.4 189.55 160.27 190.55 154.39L190.63 153.97C192.93 140.97 195.43 128.82 198.07 117.65C180.48 111 177.45 108.37 175.68 106.83C173.437 104.881 171.823 102.311 171.044 99.4435C170.264 96.5764 170.353 93.5424 171.3 90.7261C172.247 87.9099 174.009 85.4383 176.363 83.6249C178.716 81.8114 181.555 80.7377 184.52 80.5401C184.95 80.5401 195.19 79.8401 206.22 79.8401H208.88C209.42 78.3001 209.97 76.7701 210.52 75.2701C206.34 69.5701 202.96 64.3201 202.77 64.0101C201.306 61.7408 200.482 59.1186 200.385 56.42C200.288 53.7215 200.921 51.0468 202.218 48.6781C203.514 46.3094 205.426 44.3346 207.751 42.9621C210.077 41.5896 212.73 40.8703 215.43 40.8801C216.465 40.8776 217.497 40.9849 218.51 41.2001C220.959 41.7404 223.317 42.633 225.51 43.8501C227.256 41.0602 229.142 38.3601 231.16 35.7601L231.44 35.4101C231.046 28.3595 231.023 21.2931 231.37 14.2401C231.52 11.3268 232.516 8.52048 234.237 6.16474C235.957 3.809 238.327 2.00607 241.057 0.976679C243.786 -0.0527132 246.757 -0.26389 249.604 0.369013C252.452 1.00192 255.053 2.45143 257.09 4.54008C258.64 6.12008 260.33 8.23008 263.35 14.5401L264.51 14.3601C266.219 14.1125 267.943 13.9723 269.67 13.9401H270.47H271.6C284.44 14.2801 295.9 20.0301 305.78 31.0601C311.08 28.3101 315.6 26.2301 316.43 25.8501C319.106 24.6297 322.081 24.2228 324.986 24.6798C327.891 25.1369 330.598 26.4378 332.769 28.4208C334.941 30.4039 336.482 32.9815 337.2 35.8332C337.919 38.6849 337.783 41.6849 336.81 44.4601C336.2 46.2001 334.9 49.9101 324.27 62.1401C324.84 63.5201 325.41 64.9401 325.97 66.3801C335.44 64.5401 345.84 62.8201 351.58 62.8201C352.953 62.8088 354.324 62.9125 355.68 63.1301C358.612 63.6239 361.332 64.9781 363.493 67.0209C365.654 69.0636 367.159 71.7026 367.817 74.6027C368.475 77.5027 368.257 80.5329 367.189 83.3083C366.121 86.0837 364.252 88.479 361.82 90.1901C360.15 91.3701 348.82 99.2801 337.66 105.53L337.9 106.58C344.39 107.04 349.8 107.71 350.15 107.75C353.103 108.115 355.881 109.351 358.131 111.299C360.38 113.247 361.999 115.821 362.781 118.692C363.564 121.563 363.475 124.602 362.526 127.422C361.576 130.243 359.809 132.717 357.45 134.53C355.95 135.67 353.89 137.26 344.45 140.44C347.53 159.44 350.15 180.83 352.25 204.15L352.36 205.35C352.72 209.45 353.053 213.58 353.36 217.74L353.42 218.45C370.15 220.71 373.42 222.4 375.51 223.45C378.155 224.82 380.333 226.947 381.765 229.56C383.197 232.173 383.818 235.153 383.55 238.12C383.282 241.087 382.136 243.907 380.259 246.221C378.382 248.534 375.858 250.236 373.01 251.11C372.56 251.25 365.01 253.57 355.9 255.84L355.99 257.48C363.91 268.36 377.18 274.76 392.17 274.76C395.009 274.757 397.843 274.544 400.65 274.12C403.65 259.43 405.42 256.51 406.54 254.65C407.872 252.431 409.755 250.595 412.007 249.319C414.259 248.043 416.802 247.372 419.39 247.37C420.126 247.369 420.862 247.422 421.59 247.53C424.255 247.929 426.766 249.034 428.86 250.73C431.095 242.78 432.717 234.669 433.71 226.47C431.346 226.452 428.993 226.133 426.71 225.52C423.85 224.691 421.302 223.029 419.389 220.746C417.477 218.463 416.287 215.663 415.972 212.702C415.657 209.741 416.23 206.753 417.619 204.119C419.007 201.484 421.149 199.323 423.77 197.91C424.11 197.73 429.92 194.6 436.77 191.39C436.77 190.54 436.88 189.69 436.94 188.85C437.15 185.8 437.35 182.77 437.57 179.78C437.94 174.65 438.41 169.35 438.96 164.06C420.65 160.42 417.17 158.33 415.14 157.06C412.588 155.526 410.551 153.266 409.288 150.57C408.025 147.874 407.592 144.863 408.046 141.92C408.5 138.978 409.819 136.237 411.835 134.046C413.852 131.856 416.475 130.315 419.37 129.62C420.03 129.46 432.21 126.55 444.91 124.49C445.91 119.72 446.91 115.21 447.98 110.99C437.79 105.13 435.86 102.83 434.7 101.45C432.885 99.2595 431.73 96.5979 431.371 93.776C431.011 90.954 431.461 88.088 432.669 85.5122C433.877 82.9365 435.792 80.7573 438.191 79.2289C440.591 77.7005 443.375 76.8859 446.22 76.8801C446.66 76.8801 447.1 76.8801 447.54 76.9301C448.54 77.0201 454.27 77.5401 460.62 78.5201C466.96 68.5201 474.7 63.2301 483.72 62.7901C484.72 62.7901 485.6 62.7201 486.48 62.7201C495.95 62.7201 503.69 65.7201 509.84 71.9301C512.257 70.7111 514.853 69.8842 517.53 69.4801C518.193 69.3905 518.861 69.347 519.53 69.3501C522.327 69.3513 525.068 70.1345 527.443 71.6111C529.818 73.0878 531.733 75.1991 532.972 77.7066C534.211 80.2142 534.723 83.0182 534.453 85.8019C534.182 88.5856 533.138 91.2381 531.44 93.4601C530.65 94.4601 527.83 98.1301 524.44 101.96C525.31 105.29 526.15 108.9 526.95 112.85C527.49 115.48 528.02 118.3 528.54 121.24C528.88 123.2 529.213 125.237 529.54 127.35C529.54 127.54 529.54 127.72 529.62 127.91C532.218 126.92 535.04 126.671 537.771 127.191C540.502 127.711 543.035 128.981 545.087 130.857C547.139 132.733 548.629 135.143 549.39 137.817C550.152 140.491 550.155 143.324 549.4 146C548.7 148.47 547.57 152.47 534.77 169.76C534.98 171.92 535.2 174.13 535.41 176.39C538.337 176.483 541.173 177.431 543.568 179.116C545.963 180.802 547.812 183.152 548.887 185.877C549.962 188.601 550.216 191.58 549.618 194.447C549.019 197.314 547.595 199.943 545.52 202.01C545.33 202.2 542.14 205.38 538.04 209.07C538.61 219 538.79 228.49 538.6 237.44C545.35 240.19 547.52 241.72 549.16 243.13C551.412 245.069 553.037 247.632 553.83 250.495C554.623 253.359 554.547 256.393 553.613 259.214C552.679 262.034 550.928 264.514 548.583 266.338C546.238 268.162 543.404 269.249 540.44 269.46C540.3 269.46 538.54 269.6 535.92 269.72C535.32 273.64 534.623 277.447 533.83 281.14C535.076 281.522 536.282 282.024 537.43 282.64C540.06 284.039 542.214 286.19 543.617 288.817C545.021 291.445 545.609 294.432 545.309 297.395C545.009 300.359 543.833 303.167 541.931 305.46C540.029 307.752 537.487 309.427 534.63 310.27C534.33 310.36 529.22 311.86 523.15 313.27L523 313.58C521.93 315.81 520.8 318.02 519.62 320.14C516.749 325.332 513.476 330.29 509.83 334.97C512.91 341.15 513.48 343.65 513.76 345.86C514.123 348.763 513.63 351.708 512.341 354.334C511.053 356.96 509.024 359.152 506.505 360.639C503.987 362.127 501.088 362.846 498.166 362.708C495.244 362.569 492.427 361.579 490.06 359.86C489.94 359.77 488.53 358.74 486.48 357.18C472.11 367.39 454.48 375.04 433.28 380.31C433.863 381.944 434.246 383.643 434.42 385.37C434.705 388.274 434.136 391.198 432.784 393.784C431.432 396.37 429.355 398.505 426.808 399.929C424.261 401.352 421.354 402.001 418.443 401.797C415.532 401.593 412.744 400.545 410.42 398.78C410.04 398.5 403.17 393.23 396.52 387.28C394.09 387.78 391.74 388.28 389.52 388.87L388.12 389.22C385.55 389.89 383.12 390.59 380.78 391.31C379.69 391.66 378.63 392.01 377.59 392.37C372.892 393.945 368.335 395.915 363.97 398.26C367.58 400.55 370.16 402.32 370.37 402.46C372.825 404.142 374.725 406.516 375.827 409.281C376.929 412.046 377.184 415.076 376.559 417.986C375.934 420.896 374.457 423.554 372.317 425.622C370.177 427.69 367.47 429.075 364.54 429.6C364.06 429.69 363.54 429.76 363.06 429.81C364.473 431.53 365.486 433.542 366.024 435.701C366.563 437.861 366.615 440.113 366.175 442.295C365.736 444.477 364.817 446.533 363.484 448.316C362.151 450.098 360.438 451.562 358.47 452.6C358.25 464.42 357.97 476.43 357.63 488.52C364.11 491.52 369.74 494.52 370.63 494.99C373.251 496.403 375.392 498.564 376.781 501.199C378.17 503.833 378.743 506.821 378.428 509.782C378.112 512.743 376.923 515.543 375.011 517.826C373.098 520.109 370.55 521.771 367.69 522.6C364.84 523.328 361.9 523.645 358.96 523.54H356.51C356.157 533.247 355.773 542.98 355.36 552.74C371.36 554.22 374.63 555.74 376.75 556.74C379.454 557.988 381.725 560.013 383.274 562.557C384.823 565.101 385.579 568.048 385.447 571.023C385.315 573.998 384.301 576.867 382.533 579.263C380.765 581.66 378.324 583.476 375.52 584.48C374.95 584.69 364.61 588.38 353.52 591.48C351.69 627.02 350.1 649.37 350.08 649.62C349.914 651.913 349.224 654.137 348.062 656.12C346.901 658.104 345.299 659.794 343.38 661.06L342.99 661.32L341.92 661.98L340.59 662.76L339.79 663.22C339.28 663.51 338.63 663.86 337.9 664.22L336.58 664.91L335.23 665.59L333.9 666.24L332.51 666.89L330.96 667.6C330.53 667.8 330.05 668.01 329.55 668.22L329.4 668.29C327.64 669.06 325.79 669.81 323.9 670.54L323.59 670.65L321.93 671.28L321.44 671.46L319.84 672.03L319.31 672.21C318.76 672.41 318.21 672.59 317.65 672.78L317.09 672.97L315.32 673.54L314.83 673.7L312.75 674.34L312.44 674.43C309.92 675.19 307.3 675.9 304.68 676.54L304.2 676.66L301.96 677.19L301.3 677.34L299.17 677.8L298.35 677.98L296.26 678.39L295.41 678.56L293.22 678.96L292.41 679.1L289.98 679.5L289.32 679.61C279.69 681.086 269.962 681.824 260.22 681.82Z" fill="#231F20"/>
<path d="M332.6 423.049C332.6 423.049 321.41 383.049 406.45 370.369C491.49 357.689 531.54 314.759 522.45 200.369C513.36 85.9794 502.71 76.8994 484.45 77.7894C466.19 78.6794 455.61 138.419 452.57 180.879C449.53 223.339 448.01 272.949 422.57 283.429C374.82 303.109 335.25 274.159 333.73 237.599C332.21 201.039 289.4 210.689 289.4 210.689L299.22 417.349L332.6 423.049Z" fill="#66BE64"/>
<path d="M522.43 200.38C531.54 314.76 491.5 357.67 406.43 370.38C321.36 383.09 332.58 423.06 332.58 423.06L325.76 421.88L321.97 370.37C321.97 370.37 354.03 345.63 445.82 312.88C537.61 280.13 484.46 77.8202 484.46 77.8202C502.68 76.8802 513.32 86.0002 522.43 200.38Z" fill="#4CA84E"/>
<path d="M202.6 495.15C202.6 495.15 212.75 458.879 135.6 447.359C58.4498 435.839 22.1299 396.88 30.3899 293.15C38.6499 189.42 48.2998 181.15 64.8298 181.95C81.3598 182.75 91.0098 236.95 93.7598 275.47C96.5098 313.99 97.8998 358.99 120.96 368.47C164.28 386.32 200.18 360.06 201.55 326.89C202.92 293.72 241.77 302.48 241.77 302.48L232.91 489.94L202.6 495.15Z" fill="#66BE64"/>
<path d="M30.3899 293.151C22.1299 396.881 58.4498 435.881 135.6 447.361C212.75 458.841 202.6 495.151 202.6 495.151L208.8 494.091L212.22 447.361C212.22 447.361 183.16 424.881 99.8899 395.191C16.6199 365.501 64.8298 181.951 64.8298 181.951C48.2998 181.141 38.6599 189.391 30.3899 293.151Z" fill="#4CA84E"/>
<path d="M183.15 651.969C183.15 651.969 162.97 26.0392 271.15 28.9692C379.33 31.8992 335.09 648.569 335.09 648.569C335.09 648.569 277.11 687.289 183.15 651.969Z" fill="#66BE64"/>
<path d="M284.15 665.21C316.82 660.75 335.15 648.53 335.15 648.53C335.15 648.53 379.37 31.8197 271.22 28.9297C271.22 28.9297 322.22 390.72 284.15 665.21Z" fill="#4CA84E"/>
<path d="M317.781 195.649C325.45 194.396 330.135 184 328.244 172.428C326.353 160.856 318.603 152.492 310.934 153.745C303.265 154.998 298.581 165.394 300.472 176.966C302.363 188.537 310.113 196.902 317.781 195.649Z" fill="white"/>
<path d="M328.94 208.481C332.486 208.481 335.36 205.718 335.36 202.311C335.36 198.903 332.486 196.141 328.94 196.141C325.394 196.141 322.52 198.903 322.52 202.311C322.52 205.718 325.394 208.481 328.94 208.481Z" fill="white"/>
<path d="M271.22 28.9299C163.02 26.0399 183.22 651.93 183.22 651.93C194.738 656.288 206.573 659.762 218.62 662.32C203.33 276.16 271.22 28.9299 271.22 28.9299Z" fill="#4CA84E"/>
<g style="mix-blend-mode:multiply">
<path d="M516.7 287.94C519.706 277.15 521.692 266.102 522.63 254.94C530.46 255.14 539.39 254.5 539.39 254.5C537.53 252.9 529.01 249.73 523.18 247.69C523.6 240.81 523.76 233.577 523.66 225.99C523.37 228.74 515.13 292.99 484.24 317.59C452.51 342.9 385.02 349.39 344.05 375.32C344.05 375.32 337.75 480.32 182.38 469.26L182.2 469.49C181.9 488.62 181.74 506.97 181.69 524.15L172.38 524.69C175.184 527.491 178.302 529.961 181.67 532.05C181.67 547.13 181.67 561.22 181.8 574.05C173.118 574.958 164.492 576.337 155.96 578.18C159.13 580.18 172.78 583.4 181.9 585.36C182.33 626.26 183.15 651.92 183.15 651.92H183.25C184.74 652.48 186.25 653.02 187.68 653.54L188.85 653.94C189.97 654.33 191.08 654.72 192.19 655.09L193.33 655.47L196.68 656.55L197.68 656.84C198.85 657.2 200.01 657.56 201.17 657.9L201.92 658.11C203.15 658.47 204.38 658.82 205.6 659.11L206.11 659.24C207.42 659.59 208.71 659.93 209.99 660.24L210.28 660.32C211.64 660.66 212.99 660.98 214.33 661.32H214.43C215.83 661.64 217.21 661.95 218.58 662.24C245.71 667.94 268.79 667.49 287.07 664.67L287.67 664.58L289.89 664.21L290.64 664.08L292.64 663.71L293.41 663.56L295.34 663.18L296.08 663.02L298 662.6L298.63 662.46L300.63 661.97L301.07 661.87C303.56 661.26 305.91 660.61 308.14 659.95L308.41 659.86L310.28 659.29L310.75 659.14C311.29 658.97 311.83 658.8 312.35 658.62L312.86 658.45L314.35 657.94L314.84 657.77C315.33 657.6 315.84 657.43 316.29 657.25L316.72 657.09L318.21 656.54L318.5 656.43C320.273 655.764 321.91 655.097 323.41 654.43L323.55 654.37L324.83 653.8L325.12 653.67L326.17 653.19L326.49 653.04L327.42 652.6L327.73 652.45L328.59 652.03L328.87 651.89L329.71 651.47L329.9 651.36C330.21 651.21 330.49 651.06 330.77 650.91H330.85C331.46 650.59 332 650.29 332.48 650.02L332.61 649.95L333.14 649.65L333.31 649.55L333.7 649.32L333.87 649.22L334.17 649.04L334.31 648.95L334.55 648.81L334.65 648.74L334.82 648.63H334.9L335.01 648.55C335.01 648.55 336.92 621.88 339.01 579.61C352.25 576.87 370.36 570.39 370.36 570.39C366.36 568.57 349.45 567.29 339.62 566.69C340.43 549.01 341.24 529.12 341.93 507.69C348.63 508.28 360.49 509.17 363.41 508.32C363.41 508.32 350.97 501.62 342.22 498.54C342.8 479.29 343.29 458.91 343.6 437.84C346.99 438.84 350.08 439.53 351.35 439.46C351.35 439.46 347.84 436.35 343.67 433.07C343.743 428.35 343.8 423.597 343.84 418.81C343.84 416.81 343.84 414.79 343.84 412.75C350.47 413.98 359.2 415.42 361.72 414.97C355.97 411.048 350.022 407.423 343.9 404.11C343.9 400.777 343.9 397.444 343.9 394.11C349.97 388.5 359.03 382.93 372.49 378.29C373.65 377.89 374.84 377.49 376.07 377.11C378.617 376.297 381.317 375.527 384.17 374.8L385.7 374.41C389.24 373.53 393.017 372.714 397.03 371.96C398.14 371.75 399.27 371.54 400.42 371.34L401.07 371.23C408.07 378.37 419.34 386.97 419.34 386.97C419.07 384.28 414.89 375.92 411.52 369.56C443.04 364.26 468.08 354.5 486.42 338.04C492.06 342.98 498.73 347.82 498.73 347.82C498.44 345.53 494.53 338.27 491.58 333.06C497.417 327.015 502.436 320.23 506.51 312.88C507.543 311.02 508.543 309.104 509.51 307.13C510.45 305.13 511.35 303.13 512.2 301.05L512.53 300.2C520.66 298.75 530.44 295.87 530.44 295.87C528.49 294.87 521.16 293.71 515.17 292.94L515.71 291.31C516.02 290.23 516.36 289.09 516.7 287.94Z" fill="#4CA84E"/>
</g>
<path d="M290.22 144.33C290.22 144.33 321.66 137.33 327.83 138.4C327.83 138.4 302.35 156.29 291.53 159.06C291.54 159.06 286.95 153.71 290.22 144.33Z" fill="#FAF28C"/>
<path d="M225.54 189.289C225.54 189.289 200.54 184.479 195.61 185.289C195.61 185.289 215.73 198.229 224.34 200.159C224.34 200.169 228.06 196.179 225.54 189.289Z" fill="#FAF28C"/>
<path d="M315.57 83.8791C315.57 83.8791 347 76.8792 353.17 77.9492C353.17 77.9492 327.7 95.8391 316.87 98.6191C316.87 98.5891 312.28 93.2291 315.57 83.8791Z" fill="#FAF28C"/>
<path d="M199.87 249.48C199.87 249.48 168.48 242.35 162.3 243.35C162.3 243.35 187.67 261.35 198.48 264.21C198.48 264.21 203.11 258.88 199.87 249.48Z" fill="#FAF28C"/>
<path d="M130.31 377.881C130.31 377.881 126.39 353.561 123.88 349.381C123.88 349.381 118.15 372.091 119.23 380.551C119.22 380.591 124.43 382.581 130.31 377.881Z" fill="#FAF28C"/>
<path d="M83.5199 250.401C83.5199 250.401 115.36 245.461 120.67 242.271C120.67 242.271 90.0699 234.921 78.9599 236.271C78.9599 236.281 76.7999 242.881 83.5199 250.401Z" fill="#FAF28C"/>
<path d="M332.56 566.27C332.56 566.27 364.79 567.77 370.43 570.37C370.43 570.37 340.87 580.949 329.67 580.799C329.67 580.799 326.76 574.45 332.56 566.27Z" fill="#FAF28C"/>
<path d="M330.97 231C330.97 231 363.08 234 368.59 236.81C368.59 236.81 338.59 246.04 327.36 245.38C327.36 245.38 324.77 238.88 330.97 231Z" fill="#FAF28C"/>
<path d="M220.66 109.71C220.66 109.71 190.22 99.48 185.55 95.44C185.55 95.44 217.02 93.36 227.71 96.57C227.71 96.57 228.63 103.45 220.66 109.71Z" fill="#FAF28C"/>
<path d="M296.69 357.811C296.69 357.811 324.69 368.471 328.94 372.391C328.94 372.391 301.83 373.671 291.94 370.291C291.98 370.291 289.22 363.281 296.69 357.811Z" fill="#FAF28C"/>
<path d="M287.96 614.369C287.96 614.369 315.96 625.029 320.21 628.949C320.21 628.949 293.1 630.239 283.21 626.849C283.22 626.879 280.44 619.879 287.96 614.369Z" fill="#FAF28C"/>
<path d="M190.36 587.16C190.36 587.16 160.83 581.38 155.96 578.23C155.96 578.23 182.42 572.41 192.73 574.08C192.73 574.08 196.77 580.51 190.36 587.16Z" fill="#FAF28C"/>
<path d="M295.76 202.311C295.76 202.311 322.63 210.121 326.82 213.461C326.82 213.461 302.73 217.341 293.3 214.931C292.12 212.884 291.719 210.48 292.171 208.161C292.623 205.842 293.898 203.764 295.76 202.311Z" fill="#FAF28C"/>
<path d="M37.75 267.32C37.75 267.32 20.47 245.32 19.01 240.15C19.01 240.15 40.85 251.05 47.1 258.49C46.8661 260.841 45.7915 263.029 44.0738 264.651C42.356 266.273 40.1106 267.221 37.75 267.32Z" fill="#FAF28C"/>
<path d="M237.73 69.0092C237.73 69.0092 219.63 56.7491 215.43 55.8691C215.43 55.8691 226.8 73.5892 232.93 78.0492C232.93 78.0492 237.29 75.7892 237.73 69.0092Z" fill="#FAF28C"/>
<path d="M185.39 415.209C185.39 415.209 163.26 414.709 159.34 413.019C159.34 413.019 179.43 405.269 187.11 405.189C187.11 405.189 190.22 411.939 185.39 415.209Z" fill="#FAF28C"/>
<path d="M218.15 380.36C218.15 380.36 196.02 379.87 192.15 378.18C192.15 378.18 212.24 370.42 219.93 370.34C219.88 370.34 223.79 377.12 218.15 380.36Z" fill="#FAF28C"/>
<path d="M198.43 638.52C198.43 638.52 176.3 638.03 172.38 636.34C172.38 636.34 192.47 628.59 200.16 628.51C200.16 628.51 204.07 635.28 198.43 638.52Z" fill="#FAF28C"/>
<path d="M229.53 492.17C229.53 492.17 207.4 491.68 203.53 489.99C203.53 489.99 223.62 482.24 231.31 482.16C231.22 482.16 235.22 488.93 229.53 492.17Z" fill="#FAF28C"/>
<path d="M256.96 37.9902C256.96 37.9902 249.26 17.9902 246.32 14.9902C246.32 14.9902 245.25 35.7902 247.68 42.8102C247.68 42.8202 252.6 43.3402 256.96 37.9902Z" fill="#FAF28C"/>
<path d="M335.99 411.14C335.99 411.14 357.62 415.67 361.84 414.92C361.84 414.92 344.22 402.83 336.76 401.01C336.76 401.01 330.12 405.99 335.99 411.14Z" fill="#FAF28C"/>
<path d="M339.08 301.881C339.08 301.881 361.08 304.131 365.21 302.941C365.21 302.941 346.33 292.761 338.71 291.731C338.71 291.711 336.04 295.721 339.08 301.881Z" fill="#FAF28C"/>
<path d="M61.2198 408.37C61.2198 408.37 52.2198 423.521 51.7798 426.881C51.7798 426.881 65.9398 416.6 69.2598 411.44C69.2198 411.44 66.9798 408.19 61.2198 408.37Z" fill="#FAF28C"/>
<path d="M323.62 131.031C323.62 131.031 344.92 125.221 348.27 122.641C348.27 122.641 326.8 119.971 319.34 121.751C319.34 121.751 318.42 126.431 323.62 131.031Z" fill="#FAF28C"/>
<path d="M264.61 249.221L279.93 244.751C279.93 244.751 271.17 239.091 262.66 238.211C262.66 238.211 256.83 243.711 264.61 249.221Z" fill="#FAF28C"/>
<path d="M264.61 519.66L279.93 515.19C279.93 515.19 271.17 509.53 262.66 508.65C262.66 508.65 256.83 514.15 264.61 519.66Z" fill="#FAF28C"/>
<path d="M248.55 326.27C248.55 326.27 234.85 327.07 232.55 327.19C232.55 327.19 239.7 334.649 247.77 337.419C247.8 337.419 254.79 333.36 248.55 326.27Z" fill="#FAF28C"/>
<path d="M69.3998 339.511L84.3998 345.191C84.3998 345.191 80.9198 335.461 74.6798 329.641C74.6398 329.641 66.5998 330.481 69.3998 339.511Z" fill="#FAF28C"/>
<path d="M188.35 523.789L172.35 524.719C172.35 524.719 179.5 532.179 187.57 534.939C187.6 534.939 194.6 530.879 188.35 523.789Z" fill="#FAF28C"/>
<path d="M106.34 418.74L90.3398 419.66C90.3398 419.66 97.4898 427.12 105.56 429.88C105.59 429.88 112.58 425.88 106.34 418.74Z" fill="#FAF28C"/>
<path d="M227.89 573.529L211.89 574.459C211.89 574.459 219.04 581.919 227.11 584.679C227.14 584.679 234.13 580.629 227.89 573.529Z" fill="#FAF28C"/>
<path d="M264.39 91.7892C264.39 91.7892 251.04 88.7192 248.83 88.1992C248.83 88.1992 253.41 97.3392 260.3 102.199C260.3 102.239 267.22 100.319 264.39 91.7892Z" fill="#FAF28C"/>
<path d="M302.04 276.669C302.04 276.669 324.04 278.929 328.17 277.739C328.17 277.739 309.29 267.559 301.67 266.529C301.67 266.529 299 270.539 302.04 276.669Z" fill="#FAF28C"/>
<path d="M337.35 507.211C337.35 507.211 359.35 509.471 363.48 508.271C363.48 508.271 344.59 498.101 336.98 497.061C336.98 497.061 334.31 501.071 337.35 507.211Z" fill="#FAF28C"/>
<path d="M87.3099 301.881C87.3099 301.881 109.31 304.131 113.44 302.941C113.44 302.941 94.5599 292.761 86.9399 291.731C86.9399 291.711 84.2699 295.721 87.3099 301.881Z" fill="#FAF28C"/>
<path d="M39.28 291.79C39.28 291.79 22.56 285.01 19.04 285.01C19.04 285.01 31.36 297.3 37.04 299.84C37.08 299.88 40.16 297.3 39.28 291.79Z" fill="#FAF28C"/>
<path d="M281.5 434.451C281.5 434.451 303.5 436.711 307.62 435.521C307.62 435.521 288.74 425.341 281.13 424.311C281.13 424.311 278.46 428.321 281.5 434.451Z" fill="#FAF28C"/>
<path d="M306.59 59.37C306.59 59.37 321.25 43.37 322.59 39.5C322.59 39.5 303.03 48.41 297.75 53.79C297.78 53.79 299.63 58.21 306.59 59.37Z" fill="#FAF28C"/>
<path d="M208.8 299.881C208.8 299.881 191.11 301.701 188.09 303.311C188.09 303.311 204.7 308.201 210.86 307.771C210.86 307.731 215.08 300.881 208.8 299.881Z" fill="#FAF28C"/>
<path d="M44.6399 376.25C44.6399 376.25 26.2899 378.15 23.1599 379.81C23.1599 379.81 40.3899 384.89 46.7799 384.44C46.7799 384.44 51.1599 377.31 44.6399 376.25Z" fill="#FAF28C"/>
<path d="M81.6899 205.45C81.6899 205.45 97.3399 197.33 99.5099 194.74C99.5099 194.74 82.2099 196.26 76.6799 198.9C76.6799 198.88 75.4699 206.79 81.6899 205.45Z" fill="#FAF28C"/>
<path d="M163.42 378.179C163.42 378.179 159.53 361.479 157.54 358.779C157.54 358.779 154.36 375.209 155.54 381.049C155.5 381.049 163.07 384.299 163.42 378.179Z" fill="#FAF28C"/>
<path d="M331.22 433.88C331.22 433.88 347.98 439.6 351.43 439.41C351.43 439.41 338.66 428.08 332.91 425.9C332.9 425.88 326.01 430.34 331.22 433.88Z" fill="#FAF28C"/>
<path d="M239.08 144.88C239.08 144.88 223.76 136.19 220.34 135.74C220.34 135.74 230.63 149.21 235.84 152.4C235.84 152.44 243.48 149.35 239.08 144.88Z" fill="#FAF28C"/>
<path d="M48.4098 195.41C48.4098 195.41 35.8598 188.28 33.0498 187.92C33.0498 187.92 41.4898 198.92 45.7598 201.57C45.7598 201.57 52.0198 199.04 48.4098 195.41Z" fill="#FAF28C"/>
<path d="M188.01 328.33C188.01 328.33 167.07 335.24 163.87 338C163.87 338 185.45 339.53 192.8 337.37C192.8 337.37 195.61 328.33 188.01 328.33Z" fill="#FAF28C"/>
<path d="M134.69 439.54C134.69 439.54 124.22 458.28 123.76 462.4C123.76 462.4 140.71 449.4 144.59 443.05C144.59 443.05 140.27 434.57 134.69 439.54Z" fill="#FAF28C"/>
<path d="M34.79 334.35C34.79 334.35 17.63 340.01 15 342.27C15 342.27 32.7 343.53 38.72 341.76C38.72 341.76 41.02 334.35 34.79 334.35Z" fill="#FAF28C"/>
<path d="M412.28 293.881C412.28 293.881 416.61 267.071 419.38 262.461C419.38 262.461 425.68 287.461 424.5 296.831C424.5 296.781 418.76 298.971 412.28 293.881Z" fill="#FAF28C"/>
<path d="M463.87 153.26C463.87 153.26 428.76 147.81 422.87 144.26C422.87 144.26 456.6 136.16 468.87 137.65C468.89 137.69 471.27 144.99 463.87 153.26Z" fill="#FAF28C"/>
<path d="M514.32 171.88C514.32 171.88 533.32 147.62 534.97 141.93C534.97 141.93 510.9 153.93 503.97 162.15C504.229 164.748 505.42 167.165 507.322 168.953C509.225 170.742 511.711 171.781 514.32 171.88Z" fill="#FAF28C"/>
<path d="M488.48 327.39C488.48 327.39 498.42 344.09 498.89 347.8C498.89 347.8 483.27 336.47 479.62 330.8C479.62 330.78 482.1 327.2 488.48 327.39Z" fill="#FAF28C"/>
<path d="M479.42 251.489C479.42 251.489 465.28 256.849 462.94 257.749C462.94 257.749 466.77 247.019 473.65 240.609C473.65 240.609 482.51 241.539 479.42 251.489Z" fill="#FAF28C"/>
<path d="M438.71 338.82L456.32 339.82C456.32 339.82 448.43 348.04 439.54 351.09C439.54 351.11 431.83 346.64 438.71 338.82Z" fill="#FAF28C"/>
<path d="M459.68 209.981C459.68 209.981 435.42 212.471 430.88 211.161C430.88 211.161 451.7 199.941 460.09 198.801C460.09 198.801 463.03 203.221 459.68 209.981Z" fill="#FAF28C"/>
<path d="M512.63 198.88C512.63 198.88 531.06 191.41 534.94 191.41C534.94 191.41 521.36 204.94 515.05 207.75C515.05 207.76 511.66 204.95 512.63 198.88Z" fill="#FAF28C"/>
<path d="M506.72 291.99C506.72 291.99 526.95 294.08 530.4 295.91C530.4 295.91 511.4 301.51 504.4 301.01C504.36 301.01 499.53 293.16 506.72 291.99Z" fill="#FAF28C"/>
<path d="M465.88 103.711C465.88 103.711 448.63 94.7609 446.22 91.8809C446.22 91.8809 465.29 93.5508 471.38 96.4608C471.4 96.4908 472.73 105.191 465.88 103.711Z" fill="#FAF28C"/>
<path d="M502.56 92.6409C502.56 92.6409 516.4 84.7909 519.49 84.3809C519.49 84.3809 510.2 96.5508 505.49 99.4308C505.49 99.4308 498.58 96.6409 502.56 92.6409Z" fill="#FAF28C"/>
<path d="M407.46 361.749C407.46 361.749 419.05 382.409 419.46 386.949C419.46 386.949 400.78 372.659 396.51 365.619C396.55 365.619 401.3 356.279 407.46 361.749Z" fill="#FAF28C"/>
<path d="M517.58 245.791C517.58 245.791 536.5 252.041 539.39 254.531C539.39 254.531 519.89 255.921 513.24 253.971C513.22 253.971 510.71 245.791 517.58 245.791Z" fill="#FAF28C"/>
</g>
<defs>
<clipPath id="clip0_4906_842">
<rect width="554.39" height="732.09" fill="white"/>
</clipPath>
</defs>
</svg>
