<svg width="408" height="494" viewBox="0 0 408 494" fill="none" xmlns="http://www.w3.org/2000/svg">
<g clip-path="url(#clip0_4879_587)">
<path d="M203.82 493.652C316.387 493.652 407.64 471.534 407.64 444.252C407.64 416.969 316.387 394.852 203.82 394.852C91.2533 394.852 0 416.969 0 444.252C0 471.534 91.2533 493.652 203.82 493.652Z" fill="#A7A9AC"/>
<path d="M188.14 444.251C184.162 444.251 180.347 442.671 177.534 439.858C174.721 437.044 173.14 433.229 173.14 429.251V379.861C171.72 378.481 170.3 377.081 168.91 375.691L168.7 375.481C166.66 373.441 164.627 371.378 162.6 369.291L162.38 369.061C160.26 366.861 158.15 364.641 156.08 362.421L155.88 362.201C153.68 359.831 151.51 357.451 149.41 355.091L149.19 354.851C146.97 352.361 144.76 349.851 142.62 347.321L142.36 347.021C140.17 344.451 137.93 341.781 135.75 339.111L135.52 338.821C133.3 336.101 131.05 333.271 128.86 330.451L128.65 330.191C126.43 327.321 124.17 324.341 121.98 321.361L121.89 321.251C119.577 318.111 117.334 314.981 115.16 311.861L115.01 311.631C113.95 310.121 112.85 308.511 111.75 306.891C110.65 305.258 109.557 303.611 108.47 301.951L108.38 301.821C107.32 300.201 106.24 298.521 105.17 296.821L105.1 296.711C104.03 295.021 102.98 293.341 101.94 291.651C101.944 291.621 101.944 291.591 101.94 291.561C100.88 289.841 99.8402 288.091 98.8002 286.341L98.6802 286.151C96.5902 282.601 94.5402 279.011 92.6002 275.461L92.4802 275.251C90.4802 271.551 88.5402 267.884 86.6602 264.251L86.5002 263.931C84.5902 260.141 82.7602 256.351 81.0402 252.611L80.8602 252.201C79.0702 248.321 77.3702 244.421 75.7802 240.581L75.5602 240.051C73.9502 236.151 72.3802 232.151 70.9202 228.181L70.7102 227.621C69.2402 223.621 67.8202 219.491 66.5102 215.421L66.3102 214.801C64.9902 210.681 63.7402 206.471 62.6002 202.301L62.4202 201.631C61.2702 197.401 60.2002 193.091 59.2402 188.821L59.0902 188.141C58.0902 183.811 57.2402 179.391 56.4702 175.011L56.3502 174.281C46.8202 119.161 53.6902 63.6109 76.7602 9.21094C77.5601 7.32444 78.738 5.62183 80.2213 4.20813C81.7046 2.79444 83.4618 1.69962 85.3845 0.991245C87.3072 0.28287 89.3547 -0.0240384 91.4007 0.08942C93.4466 0.202878 95.4476 0.734313 97.2802 1.65094C98.7702 2.40094 134.18 20.401 170.48 63.2509C191.849 88.5587 209.115 117.062 221.65 147.721C237.55 186.351 246.56 229.131 248.45 274.891V276.321C248.53 278.321 248.594 280.321 248.64 282.321V283.751C248.64 286.181 248.73 288.621 248.74 291.081V291.351C248.74 293.701 248.74 296.021 248.74 298.351V300.121C248.74 302.231 248.66 304.351 248.6 306.481V307.621C248.53 310.121 248.43 312.621 248.32 315.171L248.24 316.631C248.14 318.704 248.027 320.794 247.9 322.901L247.78 324.841C247.62 327.351 247.44 329.841 247.24 332.421V332.521C247.03 335.131 246.79 337.751 246.54 340.381L246.34 342.381C246.14 344.461 245.924 346.551 245.69 348.651L245.4 350.491C245.1 353.158 244.767 355.824 244.4 358.491L244.24 359.711C243.94 362.001 243.62 364.321 243.24 366.651L242.9 368.981C242.567 371.241 242.217 373.511 241.85 375.791L241.62 377.311C241.17 380.051 240.7 382.821 240.21 385.591L239.83 387.671C239.43 389.861 239.03 392.051 238.6 394.261L238.14 396.661C237.92 397.791 237.69 398.931 237.46 400.071V429.281C237.46 433.259 235.88 437.074 233.067 439.888C230.254 442.701 226.438 444.281 222.46 444.281L188.14 444.251Z" fill="#231F20"/>
<path d="M222.52 208.561H188.13V429.251H222.52V208.561Z" fill="#66BE64"/>
<path d="M221.8 402.12L90.5 15C-4.78996 239.7 221.8 402.12 221.8 402.12Z" fill="#4CA84E"/>
<path d="M90.5 15L221.8 402.12C282.82 111.22 90.5 15 90.5 15Z" fill="#66BE64"/>
<g style="mix-blend-mode:multiply">
<path d="M70.0298 165.281C91.3198 308.581 221.8 402.121 221.8 402.121C232.32 351.981 235.31 307.631 233.05 268.561C127.22 307.391 73.6598 174.651 70.0298 165.281Z" fill="#4CA84E"/>
</g>
<path d="M176.847 144.84C184.976 141.182 187 128.071 181.367 115.556C175.735 103.04 164.579 95.8604 156.451 99.5187C148.322 103.177 146.298 116.288 151.931 128.803C157.563 141.319 168.719 148.499 176.847 144.84Z" fill="white"/>
<path d="M135.05 111.101C140.661 111.101 145.21 106.552 145.21 100.941C145.21 95.33 140.661 90.7812 135.05 90.7812C129.439 90.7812 124.89 95.33 124.89 100.941C124.89 106.552 129.439 111.101 135.05 111.101Z" fill="white"/>
</g>
<defs>
<clipPath id="clip0_4879_587">
<rect width="407.65" height="493.65" fill="white"/>
</clipPath>
</defs>
</svg>
