<svg width="646" height="717" viewBox="0 0 646 717" fill="none" xmlns="http://www.w3.org/2000/svg">
<g clip-path="url(#clip0_6115_1726)">
<path d="M322.72 716.409C500.953 716.409 645.44 703.376 645.44 687.299C645.44 671.222 500.953 658.189 322.72 658.189C144.487 658.189 0 671.222 0 687.299C0 703.376 144.487 716.409 322.72 716.409Z" fill="#D0D2D3"/>
<path d="M195.979 700.191C194.089 700.191 192.209 700.191 190.349 700.141H189.71C188.07 700.141 186.43 700.071 184.8 700.011H184.05C182.44 699.951 180.81 699.881 179.2 699.791H178.729C175.419 699.611 172.089 699.361 168.859 699.071L168.269 699.011C166.749 698.871 165.209 698.711 163.689 698.531L163.08 698.461C161.53 698.281 160 698.091 158.49 697.881H158.229C155.009 697.431 151.9 696.931 148.91 696.361L148.389 696.271C146.969 696.004 145.55 695.714 144.13 695.401L143.609 695.291C142.159 694.971 140.74 694.641 139.34 694.291L139.099 694.231C136.159 693.501 133.29 692.691 130.54 691.831L130.09 691.691C128.79 691.281 127.469 690.841 126.179 690.381L125.769 690.241C124.339 689.731 123.059 689.241 121.769 688.761L121.54 688.671C118.92 687.671 116.309 686.491 113.809 685.281L113.429 685.101C112.269 684.531 111.069 683.921 109.889 683.291L109.57 683.111C108.26 682.411 107.11 681.751 105.99 681.111L105.859 681.041C103.489 679.621 101.169 678.041 98.9695 676.501L98.6492 676.261C97.6492 675.521 96.5901 674.721 95.5701 673.891L95.2996 673.681C94.1596 672.751 93.1695 671.911 92.2195 671.051L92.0701 670.921C90.0701 669.151 88.1498 667.221 86.3298 665.221L86.1091 664.981C85.2591 664.031 84.3896 662.981 83.5496 661.981L83.2693 661.641C82.4193 660.591 81.6299 659.551 80.8699 658.511L80.7498 658.331C79.1619 656.129 77.6897 653.846 76.3396 651.491C76.3396 651.491 76.1895 651.231 76.1795 651.191C75.5195 650.031 74.8798 648.841 74.2898 647.651L74.1199 647.331C73.4899 646.051 72.9194 644.831 72.3894 643.601L72.3298 643.451C71.1976 640.873 70.1963 638.24 69.3298 635.561L69.2293 635.241C68.8193 633.951 68.4301 632.601 68.0701 631.241L67.99 630.921C66.8699 626.595 66.044 622.198 65.5193 617.761V617.421C65.3493 615.981 65.1996 614.491 65.0896 613.011V612.611C64.7466 607.842 64.6663 603.058 64.8494 598.281V597.981C64.9194 596.331 65.0097 594.711 65.1297 593.101V592.711C66.5697 573.591 71.8401 551.581 80.8201 527.291C85.4601 514.751 91.5891 504.081 99.1091 495.461C98.7191 493.221 98.3596 490.961 98.0496 488.701C98.0496 488.651 98.0496 488.601 98.0496 488.551C97.8496 487.111 97.6695 485.671 97.5095 484.231C97.5142 484.194 97.5142 484.157 97.5095 484.121C97.3495 482.621 97.2001 481.201 97.0701 479.781C97.0701 479.701 97.0701 479.631 97.0701 479.551C96.5501 473.791 96.2795 467.861 96.2595 461.941C96.2595 460.471 96.2595 459.031 96.2595 457.591C96.2542 457.534 96.2542 457.477 96.2595 457.421C96.2595 456.001 96.3199 454.591 96.3699 453.171V453.001C96.4199 451.621 96.4893 450.241 96.5593 448.861C96.564 448.798 96.564 448.734 96.5593 448.671C96.8893 443.021 97.4392 437.251 98.1892 431.521V431.291C98.8292 426.501 99.6193 421.651 100.559 416.821C93.0293 404.521 88.33 395.691 87.03 393.211C85.03 390.161 83.2398 387.101 81.5398 384.101L81.4099 383.871C81.0399 383.221 80.6395 382.501 80.2595 381.791L80.1297 381.561C79.7297 380.821 79.37 380.161 79.03 379.511L78.8093 379.091C78.4993 378.501 78.1897 377.881 77.8797 377.271L77.6394 376.811C77.3294 376.201 77.0398 375.601 76.7498 375.001L76.53 374.551L75.7195 372.821L75.4597 372.261C75.2097 371.721 74.9595 371.161 74.7195 370.611L74.4998 370.121C74.2398 369.521 74.01 368.971 73.78 368.431L73.5496 367.881C73.3296 367.361 73.1092 366.821 72.8992 366.271L72.6795 365.711C72.4795 365.221 72.2701 364.711 72.0701 364.111L71.8992 363.671C71.6792 363.071 71.48 362.501 71.28 361.931L71.1492 361.581L70.5095 359.661V359.521C70.0495 358.091 69.6393 356.701 69.2693 355.341C69.2726 355.294 69.2726 355.247 69.2693 355.201C69.1093 354.581 68.9496 353.961 68.7996 353.351L68.6492 352.731C68.5492 352.301 68.4396 351.831 68.3396 351.381L68.1297 350.381C68.0597 350.051 67.9895 349.721 67.9295 349.381C67.9295 349.381 67.6396 347.781 67.5896 347.491L67.45 346.601L67.2898 345.601C67.2898 345.601 67.1699 344.601 67.1599 344.601C67.1599 344.291 67.0796 343.981 67.0496 343.671C67.0196 343.361 66.98 343.051 66.95 342.671C66.92 342.291 66.8899 342.081 66.8699 341.771C66.8499 341.461 66.8098 341.111 66.7898 340.771C66.7698 340.431 66.79 340.231 66.74 339.951C66.69 339.671 66.74 339.261 66.74 338.951C66.74 338.641 66.74 338.371 66.74 338.111C66.74 337.851 66.74 337.431 66.74 337.111V336.361C66.74 335.981 66.74 335.601 66.74 335.231C66.74 335.091 66.74 334.871 66.74 334.641C66.74 334.211 66.74 333.831 66.74 333.451V332.831C66.74 332.401 66.7398 332.011 66.8298 331.621V331.021C66.8298 330.711 66.8995 330.361 66.9295 330.021C66.9295 329.971 66.9295 329.861 66.9295 329.861C69.0195 311.951 79.58 297.661 97.49 288.511C103.155 285.631 109.224 283.628 115.49 282.571C117.37 136.901 134.269 32.2206 286.849 3.91064H286.969C300.5 1.45859 314.219 0.193995 327.97 0.130859C388.07 0.130859 435.439 26.4609 468.769 78.3809C496.989 122.381 514.869 185.011 521.979 264.741C522.45 265.503 522.852 266.306 523.179 267.141C524.839 268.014 526.46 268.954 528.04 269.961C544.97 280.811 554.09 296.071 554.41 314.091V314.251C554.41 314.581 554.41 314.911 554.41 315.251V315.911C554.41 316.331 554.41 316.701 554.41 317.061V317.651C554.41 318.081 554.41 318.441 554.34 318.801C554.34 318.801 554.34 319.311 554.34 319.511C554.34 319.711 554.339 320.111 554.269 320.421C554.269 320.421 554.2 321.121 554.17 321.421C554.14 321.721 554.09 322.101 554.05 322.421C554.01 322.741 553.98 322.921 553.95 323.191C553.92 323.461 553.85 323.861 553.8 324.191C553.75 324.521 553.71 324.731 553.67 325.001C553.63 325.271 553.55 325.701 553.49 326.001L553.309 326.911C553.309 327.201 553.19 327.531 553.12 327.861C553.05 328.191 552.99 328.461 552.92 328.761L552.7 329.681L552.41 330.861L552.22 331.571C552.13 331.911 552.04 332.231 551.95 332.571L551.689 333.471L551.32 334.661L551.08 335.421C550.95 335.831 550.799 336.271 550.649 336.701L550.439 337.311C550.239 337.881 550.03 338.451 549.82 339.021L549.729 339.251C549.239 340.551 548.73 341.891 548.12 343.251L548.07 343.361V343.461C547.81 344.041 547.54 344.651 547.26 345.261L547.109 345.591L546.32 347.271L546.109 347.691L545.309 349.301L545.05 349.811L544.229 351.361L543.96 351.871C543.68 352.391 543.389 352.871 543.099 353.431L542.79 353.981L541.899 355.531L541.599 356.051C541.299 356.561 540.979 357.051 540.649 357.631L540.359 358.111C540.019 358.671 539.669 359.231 539.359 359.791L539.03 360.301L537.95 361.991L537.71 362.341C537.3 362.981 536.88 363.591 536.46 364.211L536.28 364.491L534.859 366.491L534.8 366.581C533.65 368.211 532.46 369.841 531.25 371.471C531.42 372.531 531.92 375.471 531.92 375.471L532.53 379.031L533.34 383.541C533.34 383.541 534.02 387.271 534.2 388.181L534.58 390.181L535.16 393.181L535.53 395.061C535.71 395.991 536.53 400.061 536.53 400.061L537.59 405.121C537.91 406.621 538.25 408.121 538.59 409.691L538.71 410.251C542.611 427.598 544.537 445.331 544.45 463.111C561.24 472.741 573.86 488.761 582.03 510.881C591.03 535.181 596.289 557.191 597.719 576.301V576.631C597.839 578.301 597.94 579.921 598 581.501V581.881C598.187 586.668 598.107 591.462 597.76 596.241V596.691C597.65 598.041 597.51 599.521 597.34 601.001V601.331C596.811 605.767 595.986 610.164 594.87 614.491L594.809 614.741C594.429 616.161 594.04 617.511 593.63 618.831L593.55 619.081C592.663 621.861 591.663 624.501 590.55 627.001C590.517 627.065 590.49 627.132 590.469 627.201C589.939 628.411 589.37 629.641 588.719 630.941L588.58 631.221C587.96 632.461 587.33 633.651 586.67 634.801L586.559 635.001C585.177 637.412 583.669 639.749 582.04 642.001V642.051C581.25 643.131 580.429 644.211 579.559 645.281L579.32 645.581C578.5 646.581 577.639 647.581 576.769 648.581L576.57 648.801C574.749 650.807 572.825 652.72 570.809 654.531L570.67 654.661C569.72 655.511 568.72 656.361 567.67 657.251L567.399 657.471C566.399 658.311 565.31 659.121 564.25 659.891L564.019 660.061C561.769 661.691 559.46 663.221 557.09 664.631L556.899 664.751C555.799 665.401 554.63 666.061 553.42 666.751L553.04 666.951C551.88 667.581 550.68 668.191 549.47 668.781L549.2 668.911C546.63 670.151 544.019 671.301 541.349 672.351L541.109 672.451C539.929 672.911 538.61 673.451 537.24 673.891L536.82 674.041C535.49 674.511 534.18 674.951 532.82 675.371L532.41 675.501C529.65 676.361 526.78 677.171 523.88 677.891L523.62 677.961C522.22 678.301 520.789 678.631 519.349 678.961L518.79 679.081C517.4 679.381 515.969 679.681 514.519 679.951L514.07 680.041C511.07 680.611 507.919 681.121 504.809 681.551L504.479 681.601C502.959 681.811 501.43 682.001 499.88 682.181L499.25 682.251C497.74 682.421 496.199 682.591 494.639 682.731L494.109 682.781C490.899 683.081 487.559 683.321 484.189 683.501H483.76C482.14 683.581 480.509 683.661 478.859 683.711H478.17C476.52 683.771 474.88 683.811 473.17 683.841H472.53C470.7 683.841 468.82 683.841 466.92 683.841H462.01H461.439C459.759 683.841 458.04 683.781 456.3 683.731H455.49L450.269 683.541H449.59L444.12 683.261H444.04L438.41 682.901H437.76L432.32 682.481L431.32 682.401C429.54 682.261 427.71 682.101 425.87 681.931L425.13 681.861L419.28 681.281H419.2C417.26 681.071 415.31 680.861 413.34 680.631L412.59 680.551L406.889 679.861L405.71 679.711C403.856 679.484 401.993 679.241 400.12 678.981L399.269 678.871L393.17 678.021H393.099C391.099 677.731 389.03 677.421 386.97 677.111L386.109 676.981C384.109 676.681 382.16 676.371 380.16 676.041L379.08 675.871L373.08 674.871L372.139 674.711L367.49 673.901L366.07 674.341L361.46 675.721C350.46 678.931 338.46 681.881 325.95 684.461H325.859L319.25 685.801L318.25 686.001C316.18 686.421 314.1 686.821 312.03 687.231L310.8 687.461L304.639 688.631L303.639 688.801C301.509 689.201 299.389 689.581 297.269 689.961H297.179C295.059 690.341 292.949 690.701 290.849 691.061L289.849 691.221L283.849 692.221L282.74 692.401L276.74 693.341L275.929 693.461L269.78 694.381H269.689L263.609 695.231L262.74 695.351L256.979 696.101L255.979 696.231L250.32 696.911L249.57 697.001C247.57 697.221 245.659 697.441 243.729 697.641H243.639L237.84 698.211L237.08 698.291L231.559 698.771L230.63 698.851L225.189 699.261H224.57L218.99 699.621H218.899C217.049 699.731 215.219 699.821 213.399 699.901H212.689C210.939 699.971 209.199 700.041 207.479 700.091H206.67L201.49 700.211H200.91C199.24 700.181 197.589 700.191 195.979 700.191Z" fill="#231F20"/>
<path d="M523.898 413.38C512.088 359.99 510.218 323.38 510.218 323.38C505.288 120.32 441.678 -8.36034 289.638 18.5797C137.638 46.7897 130.319 151.73 130.319 323.38C130.319 323.38 128.448 360.02 116.638 413.38C96.8883 502.71 124.238 619.6 320.268 630.24C516.298 619.6 543.658 502.71 523.898 413.38Z" fill="#CBA984"/>
<path opacity="0.72" d="M523.901 413.381C520.581 398.381 518.052 384.671 516.122 372.751C512.902 352.871 511.382 337.911 510.702 329.911C510.342 325.641 510.221 323.351 510.221 323.351C510.221 319.351 510.221 315.408 510.221 311.521C510.221 310.891 510.221 310.271 510.221 309.641C510.181 305.641 510.125 301.671 510.051 297.731C510.051 297.601 510.051 297.461 510.051 297.331C509.891 288.931 509.638 280.644 509.292 272.471C504.162 301.671 490.862 345.721 453.622 393.521L419.351 357.171C419.351 357.171 418.721 394.171 428.111 422.741C396.271 455.481 352.271 488.921 291.341 519.741C275.341 502.901 237.151 483.481 198.341 466.661C223.671 425.231 224.521 366.231 224.521 366.231C210.341 404.901 186.691 435.811 169.641 454.691C147.901 445.931 127.722 438.461 113.202 433.251C101.872 518.871 138.341 619.711 318.591 630.131L320.341 630.241C516.301 619.601 543.661 502.711 523.901 413.381Z" fill="#8E745E"/>
<path d="M457.65 219.379C456.35 221.486 454.964 223.559 453.491 225.599C431.431 256.359 391.49 280.599 355.26 298.929C316.17 309.929 270.35 319.019 233.26 311.249C230.8 310.739 228.381 310.139 225.991 309.469C199.551 302.039 178.471 284.849 168.991 251.859C168.191 249.049 167.48 246.289 166.89 243.589C165.764 238.523 164.995 233.384 164.59 228.209C159.59 164.419 217.99 136.829 253.88 138.939C293.93 141.299 292.281 137.049 292.281 137.049C292.281 137.049 293.93 141.299 321.86 112.499C346.86 86.6895 408.58 67.5794 448.01 117.979C451.206 122.067 454.11 126.374 456.701 130.869C458.091 133.259 459.431 135.759 460.701 138.379C476.051 169.119 472.12 196.039 457.65 219.379Z" fill="#F7E7D6"/>
<path d="M233.299 311.249C230.839 310.739 228.419 310.139 226.029 309.469C199.589 302.039 178.509 284.849 169.029 251.859C168.229 249.049 167.519 246.289 166.929 243.589C165.802 238.523 165.034 233.384 164.629 228.209C184.109 196.669 216.839 161.209 259.749 178.109C311.589 198.599 269.169 266.459 233.299 311.249Z" fill="#7F654A"/>
<path d="M457.651 219.38C456.351 221.487 454.965 223.56 453.491 225.6C396.791 216.82 319.661 195.47 344.051 145.32C364.241 103.84 412.351 107.89 448.051 117.98C451.247 122.068 454.151 126.375 456.741 130.87C458.131 133.26 459.471 135.76 460.741 138.38C476.051 169.12 472.121 196.04 457.651 219.38Z" fill="#7F654A"/>
<path d="M325.947 224.925C337.441 220.455 344.753 211.674 342.279 205.312C339.805 198.95 328.482 197.415 316.988 201.885C305.494 206.355 298.182 215.136 300.656 221.498C303.13 227.861 314.453 229.394 325.947 224.925Z" fill="#7F654A"/>
<path d="M253.222 201.07C256.055 205.75 257.74 211.034 258.142 216.49C258.575 222.134 257.777 227.805 255.802 233.11C253.777 238.528 250.624 243.454 246.552 247.561C245.552 248.561 244.442 249.56 243.332 250.48C242.222 251.4 241.012 252.25 239.812 253.07C238.612 253.89 237.312 254.56 236.042 255.25L232.042 257.061L227.892 258.41C226.472 258.76 225.052 259.05 223.622 259.35C222.192 259.65 220.732 259.661 219.292 259.811C217.852 259.961 216.382 259.811 214.932 259.811C209.159 259.532 203.511 258.032 198.361 255.41C193.326 252.833 188.909 249.197 185.412 244.75C182.018 240.458 179.684 235.425 178.602 230.061C181.288 234.453 184.664 238.383 188.602 241.7C192.35 244.839 196.622 247.293 201.222 248.95C210.143 252.2 219.941 252.095 228.79 248.652C237.639 245.209 244.933 238.665 249.312 230.24C251.577 225.909 253.066 221.215 253.712 216.37C254.372 211.277 254.206 206.111 253.222 201.07Z" fill="#231F20"/>
<path d="M438.949 128.82C441.782 133.5 443.468 138.784 443.869 144.24C444.301 149.885 443.499 155.557 441.519 160.86C439.498 166.278 436.349 171.203 432.279 175.311C431.219 176.311 430.169 177.31 429.049 178.23C427.929 179.15 426.739 180 425.539 180.82C424.339 181.64 423.039 182.31 421.759 183.01L417.759 184.811L413.608 186.16C412.198 186.51 410.769 186.8 409.349 187.1C407.929 187.4 406.459 187.411 405.009 187.561C403.559 187.711 402.109 187.561 400.659 187.561C394.887 187.275 389.24 185.772 384.089 183.15C379.038 180.576 374.603 176.939 371.089 172.49C367.697 168.197 365.368 163.164 364.289 157.8C366.975 162.193 370.352 166.123 374.289 169.44C378.037 172.579 382.31 175.033 386.909 176.69C395.828 179.947 405.628 179.843 414.477 176.4C423.325 172.957 430.617 166.409 434.989 157.98C437.26 153.655 438.752 148.963 439.398 144.12C440.066 139.029 439.914 133.864 438.949 128.82Z" fill="#231F20"/>
<path d="M363.592 224.631C363.592 224.631 366.592 235.581 335.382 247.711C304.172 259.841 298.992 249.711 298.992 249.711" stroke="#231F20" stroke-width="5.89" stroke-miterlimit="10" stroke-linecap="round"/>
<path d="M222.712 420.56C222.712 420.56 166.432 375.75 151.972 292.35C151.972 292.35 137.172 285.86 136.242 239.75C136.242 239.75 186.302 244.55 191.622 274.17C191.622 274.17 342.621 247.41 383.731 276.85C383.731 276.85 418.731 236.98 436.731 240.22C436.731 240.22 445.342 287.8 418.032 304.34L417.111 388.95L222.712 420.56Z" fill="white"/>
<path opacity="0.54" d="M436.69 240.221C435.514 240.024 434.318 239.983 433.131 240.1C414.471 241.81 383.73 276.85 383.73 276.85C383.12 276.42 382.481 276 381.821 275.58L381.121 275.171L379.771 274.381L378.851 273.901C378.441 273.681 378.021 273.461 377.591 273.251L376.531 272.761L375.291 272.2L374.101 271.7L372.881 271.221L371.551 270.721L370.381 270.311L368.9 269.811L367.831 269.481L366.141 268.971L365.311 268.741C359.795 267.258 354.191 266.13 348.531 265.361H348.461C347.461 265.211 346.391 265.071 345.351 264.941H345.261C344.201 264.814 343.131 264.694 342.051 264.58C333.261 296.22 318.181 328.951 298.561 362.471C262.161 356.471 151.99 292.38 151.98 292.37C158.113 327.333 172.365 360.369 193.591 388.821L255.831 415.191L277.23 411.711L402.451 391.35L417.101 388.961L418.021 304.35C430.82 296.6 435.731 282.021 437.331 268.731C437.541 266.951 437.701 265.201 437.811 263.501C437.811 262.641 437.901 261.801 437.931 260.971C437.961 260.141 437.981 259.321 437.991 258.521C438.001 257.721 437.991 256.93 437.991 256.16C437.991 255.77 437.991 255.391 437.991 255.021C437.915 250.063 437.48 245.116 436.69 240.221Z" fill="#E6E7E8"/>
<path d="M330.671 480.57C329.387 486.647 327.267 492.516 324.371 498.01C339.291 501.69 366.831 507.53 366.871 500.35C366.871 500.35 368.591 493.82 330.671 480.57Z" fill="#F7E7D6"/>
<path d="M312.492 514.32C325.382 523.05 343.002 533.62 345.282 527.9C345.282 527.9 348.862 522.96 323.212 500.16C320.47 505.145 317.084 509.748 313.142 513.85L312.492 514.32Z" fill="#F7E7D6"/>
<path d="M294.309 524.88C300.889 533.95 307.568 541.12 310.608 538.1C310.608 538.1 314.178 536.001 307.398 517.811C303.228 520.508 298.851 522.872 294.309 524.88Z" fill="#F7E7D6"/>
<path d="M324.372 498.01C327.268 492.516 329.388 486.647 330.671 480.57C335.811 455.84 327.771 419.91 267.151 381.97C201.831 341.08 175.532 325.06 161.322 311.13C146.182 296.27 123.321 292.13 104.391 301.76C83.1012 312.63 68.0909 335.88 100.111 385.58C100.111 385.58 193.911 569.17 294.311 524.88C298.854 522.871 303.23 520.508 307.401 517.81C309.094 516.717 310.792 515.553 312.492 514.32L313.141 513.85C317.084 509.748 320.47 505.145 323.212 500.16C323.612 499.47 323.992 498.76 324.372 498.01Z" fill="#CBA984"/>
<path opacity="0.72" d="M81.9093 331.48C174.339 484.8 280.089 496.96 326.439 493.69C323.231 501.143 318.728 507.968 313.139 513.85C205.969 592.77 100.139 385.59 100.139 385.59C85.0288 362.17 80.3793 344.63 81.9093 331.48Z" fill="#A5876A"/>
<path d="M138.298 396.598C144.132 391.744 140.828 378.156 130.92 366.247C121.012 354.338 108.251 348.619 102.418 353.472C96.5846 358.325 99.8874 371.914 109.795 383.822C119.703 395.731 132.465 401.451 138.298 396.598Z" fill="white"/>
<path d="M96.7417 351.81C100.459 351.81 103.472 348.796 103.472 345.08C103.472 341.363 100.459 338.35 96.7417 338.35C93.0248 338.35 90.0117 341.363 90.0117 345.08C90.0117 348.796 93.0248 351.81 96.7417 351.81Z" fill="white"/>
<path opacity="0.72" d="M322.999 435.181C314.799 420.281 300.129 404.111 275.599 387.471C266.599 401.361 262.849 414.791 262.089 426.781C250.269 430.141 241.609 433.571 235.799 437.161C226.309 443.031 224.339 449.751 224.329 454.321C224.222 458.795 225.861 463.135 228.898 466.421C233.228 471.181 239.409 472.951 245.709 473.571C242.069 480.401 242.708 485.821 244.108 489.331C246.708 496.411 253.479 500.911 261.719 500.911C264.719 500.911 268.979 500.411 276.159 497.761C276.473 501.868 278.339 505.701 281.379 508.481C284.645 511.641 289.014 513.402 293.559 513.391C299.559 513.391 305.279 510.691 312.369 504.181L314.239 504.931C315.833 505.551 317.432 506.124 319.039 506.651C319.489 506.021 319.949 505.351 320.419 504.651C319.949 505.351 319.489 506.021 319.039 506.651C323.844 508.232 328.77 509.416 333.769 510.191C330.949 507.311 327.479 503.991 323.169 500.191C323.409 499.781 323.628 499.341 323.858 498.911C324.008 498.651 324.149 498.391 324.289 498.111C324.292 498.088 324.292 498.064 324.289 498.041C339.209 501.721 366.749 507.561 366.789 500.381C366.789 500.381 368.489 493.821 330.589 480.601C333.029 468.851 332.489 454.601 324.759 438.751C321.499 439.004 318.322 439.167 315.229 439.241C317.926 438.104 320.525 436.746 322.999 435.181Z" fill="#8E745E"/>
<path d="M416.82 574.87C416.82 574.87 300.59 439.56 224.59 493.42C219.496 497.056 214.836 501.263 210.7 505.96C209.22 507.62 207.764 509.374 206.33 511.22C205.15 512.74 203.99 514.324 202.85 515.97C200.996 519.274 199.559 522.794 198.57 526.45C197.649 529.609 196.96 532.831 196.51 536.09C195.78 541.278 195.642 546.532 196.1 551.75C198.9 584.201 225.93 629.62 340.1 653.18C516.1 689.51 624.67 669.67 567.87 515.97C525.27 400.7 366.87 527.18 366.87 527.18" fill="#CBA984"/>
<path opacity="0.72" d="M196.061 551.751C195.603 546.532 195.741 541.278 196.471 536.091C196.921 532.831 197.61 529.609 198.531 526.451C199.195 524.158 199.995 521.907 200.931 519.711C362.361 679.361 535.331 618.851 581.591 567.861C596.171 673.781 493.891 684.931 340.031 653.181C225.891 629.621 198.861 584.201 196.061 551.751Z" fill="#A5876A"/>
<path d="M210.659 505.96C214.794 501.263 219.454 497.055 224.548 493.42C213.088 483.81 193.929 468.85 190.029 472.75C186.369 476.41 200.369 494.03 210.659 505.96Z" fill="#F7E7D6"/>
<path d="M198.533 526.45C199.521 522.794 200.958 519.274 202.812 515.97C203.952 514.324 205.112 512.74 206.292 511.22C193.912 505.16 179.712 499.31 177.352 502.97C174.992 506.63 187.113 517.46 198.533 526.45Z" fill="#F7E7D6"/>
<path d="M196.06 551.75C195.602 546.532 195.74 541.278 196.47 536.09C185.18 535.25 174.74 535.46 173.95 538.95C173.12 542.62 184.17 547.56 196.06 551.75Z" fill="#F7E7D6"/>
<path opacity="0.72" d="M330.65 573.529L278.711 626.669L286.19 638.419C303.77 644.593 321.761 649.525 340.031 653.179C363.871 658.099 386.471 661.989 407.601 664.659C473.311 631.259 466.001 573.529 466.001 573.529H330.65Z" fill="#8E745E"/>
<path opacity="0.72" d="M218.972 497.82C218.972 497.82 291.852 503.49 323.502 523.68L339.842 560.14L244.842 605.61L189.422 562.061L218.972 497.82Z" fill="#8E745E"/>
<path d="M295.978 543.581C295.978 543.581 137.538 417.101 94.9781 532.371C38.1781 686.071 146.709 705.911 322.749 669.581C436.889 646.021 463.919 600.581 466.749 568.151C467.206 562.932 467.068 557.678 466.338 552.491C465.889 549.231 465.201 546.009 464.279 542.851C463.29 539.194 461.852 535.674 459.999 532.371C458.859 530.717 457.698 529.134 456.518 527.621C455.085 525.767 453.628 524.014 452.148 522.361C448.012 517.664 443.352 513.456 438.258 509.821C362.188 455.961 245.989 591.271 245.989 591.271" fill="#CBA984"/>
<path opacity="0.72" d="M466.68 568.149C467.138 562.931 467 557.677 466.27 552.489C465.82 549.23 465.132 546.008 464.211 542.849C463.56 540.552 462.758 538.301 461.81 536.109C300.38 695.749 127.41 635.24 81.15 584.25C66.57 690.17 168.861 701.329 322.711 669.579C436.851 646.019 463.88 600.599 466.68 568.149Z" fill="#A5876A"/>
<path d="M452.082 522.36C447.946 517.663 443.285 513.456 438.191 509.82C449.651 500.21 468.812 485.25 472.712 489.15C476.372 492.82 462.372 510.43 452.082 522.36Z" fill="#F7E7D6"/>
<path d="M464.209 542.819C463.22 539.163 461.782 535.643 459.929 532.339C458.789 530.686 457.629 529.103 456.449 527.589C468.829 521.529 483.029 515.679 485.389 519.339C487.749 522.999 475.589 533.819 464.209 542.819Z" fill="#F7E7D6"/>
<path d="M466.68 568.151C467.137 562.932 466.999 557.678 466.27 552.49C477.56 551.65 488 551.86 488.79 555.35C489.59 559.02 478.59 563.961 466.68 568.151Z" fill="#F7E7D6"/>
<path d="M398.629 523.65C409.774 523.65 418.809 518.52 418.809 512.19C418.809 505.861 409.774 500.73 398.629 500.73C387.484 500.73 378.449 505.861 378.449 512.19C378.449 518.52 387.484 523.65 398.629 523.65Z" fill="white"/>
<path d="M426.319 531.04C429.599 531.04 432.259 528.381 432.259 525.1C432.259 521.82 429.599 519.16 426.319 519.16C423.038 519.16 420.379 521.82 420.379 525.1C420.379 528.381 423.038 531.04 426.319 531.04Z" fill="white"/>
<path d="M146.937 629.568C150.997 622.537 143.369 610.533 129.9 602.757C116.431 594.981 102.222 594.377 98.1626 601.408C94.1033 608.439 101.731 620.443 115.2 628.219C128.669 635.995 142.878 636.599 146.937 629.568Z" fill="white"/>
<path d="M149.302 652.806C150.722 648.639 146.064 643.281 138.897 640.838C131.73 638.396 124.768 639.794 123.348 643.96C121.928 648.127 126.587 653.484 133.754 655.927C140.921 658.369 147.882 656.972 149.302 652.806Z" fill="white"/>
<path d="M277.3 438.301C277.98 444.483 279.514 450.541 281.859 456.301C266.649 458.511 238.68 461.631 239.34 454.471C239.34 454.441 238.28 447.751 277.3 438.301Z" fill="#F7E7D6"/>
<path d="M292.089 473.669C278.409 481.089 259.839 489.879 258.089 483.969C258.089 483.969 255.019 478.709 282.769 458.529C285.008 463.756 287.928 468.665 291.449 473.129C291.689 473.309 291.889 473.499 292.089 473.669Z" fill="#F7E7D6"/>
<path d="M309.161 485.951C301.721 494.331 294.37 500.821 291.64 497.521C291.64 497.521 288.291 495.081 296.821 477.641C300.709 480.731 304.835 483.51 309.161 485.951Z" fill="#F7E7D6"/>
<path d="M281.861 456.27C282.171 457.05 282.481 457.8 282.811 458.53C285.051 463.757 287.97 468.666 291.492 473.13C291.692 473.31 291.892 473.5 292.092 473.67C293.662 475.06 295.242 476.39 296.822 477.67C300.71 480.761 304.836 483.539 309.162 485.98C404.752 539.87 516.032 366.33 516.032 366.33C552.762 319.99 540.091 295.39 519.971 282.49C502.101 271.03 478.911 272.94 462.391 286.24C446.891 298.73 419.151 312.1 350.151 346.41C286.151 378.24 274.601 413.21 277.301 438.33C277.982 444.512 279.516 450.57 281.861 456.33" fill="#CBA984"/>
<path opacity="0.72" d="M539.429 314.23C432.429 457.78 326.029 459.551 280.219 451.771C282.686 459.5 286.502 466.731 291.489 473.13C390.489 562.13 516.029 366.3 516.029 366.3C533.339 344.47 539.669 327.46 539.429 314.23Z" fill="#A5876A"/>
<path d="M325.331 415.162C335.938 403.871 340.053 390.506 334.522 385.31C328.991 380.115 315.909 385.056 305.303 396.347C294.696 407.638 290.581 421.003 296.112 426.198C301.643 431.394 314.725 426.453 325.331 415.162Z" fill="white"/>
<path d="M335.688 374.053C341.153 372.166 344.631 367.877 343.456 364.473C342.281 361.069 336.897 359.84 331.431 361.727C325.966 363.615 322.488 367.904 323.663 371.307C324.839 374.711 330.222 375.941 335.688 374.053Z" fill="white"/>
<path d="M427.238 74.3805C431.064 68.7943 423.399 56.89 410.117 47.7922C396.835 38.6945 382.965 35.8482 379.139 41.4343C375.313 47.0205 382.978 58.9243 396.26 68.022C409.542 77.1198 423.411 79.9667 427.238 74.3805Z" fill="white"/>
<path d="M367.56 41.4851C369.081 37.9909 365.736 33.1658 360.09 30.7084C354.444 28.2509 348.633 29.0917 347.113 32.5859C345.592 36.0801 348.937 40.9042 354.583 43.3617C360.229 45.8191 366.039 44.9792 367.56 41.4851Z" fill="white"/>
<path d="M569.967 594.3C572.787 581.535 569.268 569.904 562.107 568.322C554.945 566.74 546.853 575.805 544.033 588.569C541.212 601.334 544.731 612.964 551.893 614.547C559.054 616.129 567.146 607.064 569.967 594.3Z" fill="white"/>
<path d="M534.649 577.041C540.144 577.041 544.599 572.586 544.599 567.091C544.599 561.595 540.144 557.141 534.649 557.141C529.154 557.141 524.699 561.595 524.699 567.091C524.699 572.586 529.154 577.041 534.649 577.041Z" fill="white"/>
<path d="M219.209 78.0197C226.613 73.745 230.39 66.4255 227.645 61.6712C224.901 56.917 216.673 56.5285 209.269 60.8032C201.865 65.0779 198.088 72.397 200.833 77.1512C203.578 81.9054 211.805 82.2944 219.209 78.0197Z" fill="white"/>
</g>
<defs>
<clipPath id="clip0_6115_1726">
<rect width="645.44" height="716.4" fill="white"/>
</clipPath>
</defs>
</svg>
