<svg width="620" height="839" viewBox="0 0 620 839" fill="none" xmlns="http://www.w3.org/2000/svg">
<g clip-path="url(#clip0_4890_692)">
<path d="M309.59 838.58C480.572 838.58 619.18 809.519 619.18 773.67C619.18 737.821 480.572 708.76 309.59 708.76C138.608 708.76 0 737.821 0 773.67C0 809.519 138.608 838.58 309.59 838.58Z" fill="#A7A9AC"/>
<path d="M161.72 785.64C158.912 785.641 156.135 785.05 153.57 783.907C151.005 782.763 148.71 781.092 146.833 779.003C144.957 776.913 143.542 774.452 142.68 771.779C141.818 769.106 141.528 766.282 141.83 763.49C141.83 763.37 141.96 762.24 142.12 760.3C142.12 759.8 142.2 759.3 142.24 758.69C142.46 755.69 142.76 750.99 142.92 745.27C142.92 744.27 142.97 743.27 142.99 742.17V740.54C142.99 739.46 142.99 738.35 142.99 737.22C142.99 732.29 142.87 727.46 142.63 722.86C142.49 720.3 142.31 717.77 142.1 715.36C141.98 714.11 141.86 712.85 141.73 711.6C141.6 710.35 141.44 709.12 141.28 707.87C141.12 706.62 140.95 705.42 140.76 704.2C140.67 703.6 140.57 702.99 140.47 702.39C140.27 701.19 140.05 700 139.83 698.82C139.71 698.25 139.6 697.67 139.48 697.1C138.718 693.333 137.716 689.619 136.48 685.98C136.32 685.51 136.15 685.04 135.98 684.58C135.351 682.877 134.633 681.208 133.83 679.58C133.29 678.5 132.72 677.48 132.14 676.58C130.57 674.06 128.88 671.42 126.97 668.52C125.35 666.05 123.79 663.71 122.3 661.47L122.06 661.12C120.42 658.66 118.86 656.32 117.37 654.04C116.33 652.447 115.33 650.88 114.37 649.34C113.31 647.64 112.37 646.07 111.47 644.54C110.47 642.82 109.57 641.18 108.71 639.54C106.865 636.041 105.216 632.442 103.77 628.76C103.02 626.83 102.33 624.86 101.71 622.91C100.71 619.91 99.91 616.72 99.23 613.51C97.2938 603.876 96.3788 594.066 96.5 584.24V201.42C96.4412 193.866 96.9492 186.318 98.02 178.84C98.9612 172.351 100.528 165.967 102.7 159.78C103.05 158.78 103.4 157.84 103.77 156.89C104.49 155.04 105.29 153.18 106.13 151.35C106.53 150.47 106.95 149.59 107.39 148.71C108.22 147.03 109.12 145.32 110.07 143.6C111.02 141.88 111.87 140.42 112.9 138.71C113.82 137.2 114.78 135.65 115.9 133.97C117.9 130.82 120.04 127.63 122.1 124.54L122.29 124.26C125.43 119.55 128.68 114.69 132.19 109.08C134.225 105.662 135.843 102.013 137.01 98.2101C138.376 93.9003 139.452 89.5038 140.23 85.0501C140.443 83.8634 140.643 82.6634 140.83 81.4501C141.71 75.7501 142.34 69.4501 142.7 62.7801C142.94 58.1801 143.07 53.3501 143.06 48.4201C143.06 33.4801 141.87 22.2501 141.86 22.1401C141.56 19.3488 141.85 16.5256 142.713 13.854C143.576 11.1825 144.991 8.72253 146.867 6.63414C148.743 4.54575 151.038 2.87574 153.602 1.73274C156.167 0.589751 158.943 -0.000614598 161.75 6.193e-05H529.16C531.909 -0.00677985 534.631 0.553337 537.154 1.64543C539.677 2.73753 541.948 4.33814 543.825 6.34731C545.702 8.35648 547.144 10.7311 548.062 13.3227C548.98 15.9144 549.354 18.6675 549.16 21.4101C549.16 21.6701 549.16 21.9201 549.09 22.1701C549.09 22.1701 549 23.0701 549 23.1001L548.83 25.0501C548.83 25.0501 548.76 25.9101 548.76 25.9601C548.69 26.8801 548.61 27.9601 548.53 29.1301L548.44 30.4901C548.32 32.4901 548.22 34.5601 548.14 36.5901V36.6401C548.02 39.7101 547.95 42.8001 547.92 45.8201V45.9201C547.92 49.4401 547.92 52.9201 548.01 56.3001V56.4201C548.1 59.4201 548.23 62.4201 548.42 65.2501V65.4401C548.42 66.1101 548.51 66.7901 548.56 67.4401V67.6101C548.62 68.4101 548.68 69.1401 548.74 69.8601C550.67 92.0901 555.25 103.43 558.74 109.04C562.23 114.65 565.52 119.55 568.67 124.27C583.02 145.83 594.36 162.83 594.36 201.42V584.19C594.36 614.51 587.52 631.58 576.49 649.28C575.49 650.82 574.49 652.38 573.49 653.98C572.49 655.58 571.49 657.08 570.39 658.68L567.84 662.51C566.56 664.42 565.25 666.39 563.84 668.51C561.94 671.41 560.25 674.05 558.67 676.57C558.09 677.5 557.52 678.57 556.98 679.57C556.18 681.198 555.466 682.867 554.84 684.57L554.33 685.97C553.1 689.608 552.098 693.318 551.33 697.08C551.21 697.65 551.09 698.23 550.98 698.82C550.75 700 550.54 701.19 550.34 702.38C550.24 702.97 550.14 703.57 550.05 704.18C549.86 705.41 549.68 706.64 549.52 707.86C549.36 709.08 549.21 710.35 549.08 711.59C548.95 712.83 548.82 714.1 548.71 715.35V715.72C548.65 716.46 548.59 717.18 548.53 717.9V718.1C548.47 718.83 548.43 719.5 548.38 720.18V720.36C548.19 723.22 548.06 726.2 547.97 729.2V729.27C547.87 732.75 547.84 736.253 547.88 739.78V739.84C547.88 742.84 547.98 745.9 548.1 748.95C548.1 748.95 548.1 749.01 548.1 749.04C548.18 751.04 548.28 753.11 548.4 755.11C548.4 755.11 548.48 756.42 548.49 756.44C548.57 757.68 548.65 758.78 548.72 759.74L548.86 761.46L549.06 763.57C549.35 766.357 549.051 769.173 548.183 771.837C547.315 774.501 545.897 776.952 544.021 779.033C542.145 781.114 539.852 782.777 537.292 783.915C534.732 785.054 531.962 785.641 529.16 785.64H161.72Z" fill="#231F20"/>
<path d="M161.72 765.64C161.72 765.64 169.05 697.86 149.12 665.96C129.19 634.06 116.51 624.1 116.51 584.23V201.42C116.51 161.54 129.18 151.58 149.12 119.68C169.06 87.78 161.72 20 161.72 20H515.86C515.86 20 523.2 87.78 503.26 119.68C483.32 151.58 470.65 161.54 470.65 201.42V584.19C470.65 624.06 483.33 634.03 503.26 665.92C523.19 697.81 515.86 765.64 515.86 765.64H161.72Z" fill="#71A29E"/>
<path d="M183.7 665.92C163.76 634.03 151.09 624.06 151.09 584.19V201.42C151.09 161.54 163.76 151.58 183.7 119.68C203.64 87.78 196.3 20 196.3 20H161.72C161.72 20 169.05 87.78 149.12 119.68C129.19 151.58 116.51 161.54 116.51 201.42V584.19C116.51 624.06 129.18 634.03 149.12 665.92C169.06 697.81 161.72 765.64 161.72 765.64H196.3C196.3 765.64 203.64 697.82 183.7 665.92Z" fill="#587B75"/>
<path d="M529.16 765.64C529.16 765.64 521.82 697.86 541.76 665.96C561.7 634.06 574.36 624.06 574.36 584.19V201.42C574.36 161.54 561.69 151.58 541.75 119.68C521.81 87.78 529.15 20 529.15 20H175.01C175.01 20 167.68 87.78 187.61 119.68C207.54 151.58 220.22 161.54 220.22 201.42V584.19C220.22 624.06 207.55 634.03 187.61 665.92C167.67 697.81 175.01 765.64 175.01 765.64H529.16Z" fill="#C5E6DC"/>
<path d="M574.36 323.029H220.22V462.579H574.36V323.029Z" fill="#48BEA2"/>
<path d="M401.25 541.319C483.275 541.319 549.77 474.825 549.77 392.799C549.77 310.774 483.275 244.279 401.25 244.279C319.225 244.279 252.73 310.774 252.73 392.799C252.73 474.825 319.225 541.319 401.25 541.319Z" fill="#FAF28C"/>
<path d="M529.16 20H175.01C173.409 37.1677 173.285 54.4411 174.64 71.63H528.78C527.432 54.4407 527.559 37.1676 529.16 20Z" fill="#98CFC0"/>
<path d="M174.64 713.971C173.285 731.16 173.409 748.433 175.01 765.601H529.16C527.559 748.433 527.432 731.16 528.78 713.971H174.64Z" fill="#98CFC0"/>
<g style="mix-blend-mode:multiply">
<path d="M219.57 598.54C216.75 627.06 204.92 638.24 187.62 665.91C167.69 697.81 175.02 765.59 175.02 765.59H529.16C529.16 765.59 521.82 697.81 541.76 665.91C561.7 634.01 574.36 624.06 574.36 584.19V201.42C574.36 201.42 550.56 598.54 219.57 598.54Z" fill="#CEEAE2"/>
</g>
<path d="M523.96 593.2C543.185 593.2 558.77 577.615 558.77 558.39C558.77 539.165 543.185 523.58 523.96 523.58C504.735 523.58 489.15 539.165 489.15 558.39C489.15 577.615 504.735 593.2 523.96 593.2Z" fill="#E9F3F9"/>
<g style="mix-blend-mode:multiply">
<path d="M574.36 584.191V499.081L572.42 496.961C572.42 496.961 560.77 675.911 187.6 665.961C167.67 697.861 175 765.641 175 765.641H529.16C529.16 765.641 521.82 697.861 541.76 665.961C561.7 634.061 574.36 624.061 574.36 584.191Z" fill="#CEEAE2"/>
</g>
<path d="M313.36 167.64C316.643 171.37 318.45 176.171 318.44 181.14C318.466 183.769 317.97 186.376 316.981 188.812C315.993 191.248 314.531 193.463 312.68 195.33C310.891 197.248 308.722 198.771 306.312 199.804C303.902 200.837 301.302 201.357 298.68 201.33H276.02C274.773 201.361 273.527 201.216 272.32 200.9C271.523 200.703 270.767 200.365 270.09 199.9C269.525 199.429 269.117 198.798 268.92 198.09C268.698 197.443 268.554 196.771 268.49 196.09C268.49 195.55 268.49 194.73 268.49 193.64V145.86C268.47 144.858 268.514 143.856 268.62 142.86C268.74 142.084 268.991 141.333 269.36 140.64C269.606 140.199 269.938 139.813 270.337 139.503C270.735 139.194 271.192 138.969 271.68 138.84C273.109 138.448 274.589 138.273 276.07 138.32H297.74C300.209 138.263 302.663 138.724 304.943 139.673C307.224 140.622 309.28 142.038 310.98 143.83C312.78 145.564 314.205 147.648 315.166 149.955C316.128 152.262 316.606 154.741 316.57 157.24C316.604 160.956 315.482 164.59 313.36 167.64ZM303.22 180.19C303.258 179.109 303.095 178.031 302.74 177.01C302.606 176.635 302.396 176.292 302.122 176.003C301.848 175.714 301.517 175.484 301.15 175.33C300.51 175.05 299.838 174.849 299.15 174.73C298.294 174.631 297.432 174.587 296.57 174.6C294.85 174.739 293.131 174.318 291.67 173.4C290.67 172.6 290.12 170.9 290.12 168.32C290.12 165.92 290.65 164.32 291.71 163.51C292.77 162.7 294.54 162.31 297 162.31C297.575 162.32 298.149 162.29 298.72 162.22C299.189 162.135 299.641 161.977 300.06 161.75C300.547 161.465 300.905 161.003 301.06 160.46C301.285 159.664 301.386 158.837 301.36 158.01C301.36 156.17 300.89 155.01 299.94 154.39C298.62 153.735 297.151 153.438 295.68 153.53H283.68V186.13H297.79C298.28 186.134 298.769 186.091 299.25 186C299.826 185.848 300.388 185.648 300.93 185.4C301.694 185.027 302.29 184.381 302.6 183.59C303.039 182.505 303.243 181.34 303.2 180.17L303.22 180.19Z" fill="#115E49"/>
<path d="M346.28 155.059C352.475 155.013 358.439 157.409 362.88 161.729C366.777 165.524 369.25 170.544 369.883 175.947C370.517 181.349 369.273 186.805 366.36 191.399C364.137 194.872 361.031 197.691 357.36 199.569C353.988 201.282 350.262 202.179 346.48 202.189C342.609 202.184 338.8 201.222 335.39 199.389C331.738 197.448 328.641 194.609 326.39 191.139C323.956 187.489 322.684 183.187 322.74 178.799C322.655 175.614 323.256 172.447 324.502 169.514C325.748 166.581 327.609 163.95 329.96 161.799C334.311 157.508 340.169 155.089 346.28 155.059ZM340.69 184.949C342.266 186.255 344.234 186.994 346.28 187.049C348.36 186.985 350.359 186.228 351.96 184.899C352.914 184.149 353.671 183.178 354.166 182.07C354.66 180.962 354.878 179.75 354.8 178.539C354.8 175.726 353.91 173.633 352.13 172.259C350.443 170.915 348.347 170.188 346.19 170.199C344.136 170.242 342.162 171.002 340.61 172.349C339.704 173.114 338.991 174.081 338.527 175.171C338.064 176.262 337.862 177.447 337.94 178.629C337.859 179.826 338.066 181.025 338.545 182.124C339.023 183.224 339.759 184.193 340.69 184.949Z" fill="#115E49"/>
<path d="M400.8 156.09C403.525 156.039 406.227 156.602 408.705 157.736C411.184 158.869 413.376 160.545 415.12 162.64C418.949 167.077 420.988 172.781 420.84 178.64V193.78C420.86 194.781 420.816 195.783 420.71 196.78C420.587 197.566 420.326 198.324 419.94 199.02C419.7 199.453 419.374 199.833 418.982 200.135C418.59 200.438 418.14 200.657 417.66 200.78C416.231 201.171 414.751 201.347 413.27 201.3C412.026 201.332 410.783 201.187 409.58 200.87C408.784 200.659 408.028 200.321 407.34 199.87C406.773 199.424 406.366 198.806 406.18 198.11C405.956 197.463 405.811 196.791 405.75 196.11C405.75 195.59 405.75 194.79 405.75 193.7V178.64C405.811 177.633 405.664 176.625 405.321 175.677C404.977 174.73 404.442 173.863 403.75 173.13C402.218 171.836 400.273 171.134 398.268 171.15C396.263 171.167 394.331 171.901 392.82 173.22C392.115 173.929 391.564 174.777 391.203 175.71C390.842 176.643 390.677 177.64 390.72 178.64V193.86C390.734 194.861 390.691 195.863 390.59 196.86C390.458 197.645 390.194 198.402 389.81 199.1C389.57 199.533 389.244 199.913 388.852 200.215C388.46 200.518 388.01 200.737 387.53 200.86C386.104 201.251 384.628 201.426 383.15 201.38C381.699 201.423 380.249 201.248 378.85 200.86C378.366 200.735 377.912 200.51 377.52 200.201C377.127 199.891 376.804 199.502 376.57 199.06C376.189 198.346 375.926 197.577 375.79 196.78C375.694 195.783 375.654 194.781 375.67 193.78V163.32C375.656 162.358 375.696 161.397 375.79 160.44C375.922 159.661 376.2 158.915 376.61 158.24C376.866 157.821 377.203 157.458 377.602 157.171C378 156.884 378.452 156.68 378.93 156.57C380.334 156.212 381.781 156.051 383.23 156.09C384.626 156.068 386.018 156.253 387.36 156.64C388.26 156.854 389.052 157.387 389.59 158.14C389.929 158.654 390.18 159.222 390.33 159.82C390.42 160.419 390.46 161.024 390.45 161.63C390.595 161.418 390.755 161.218 390.93 161.03C391.13 160.796 391.56 160.366 392.22 159.74C392.869 159.118 393.572 158.556 394.32 158.06C395.222 157.5 396.189 157.054 397.2 156.73C398.356 156.318 399.573 156.102 400.8 156.09Z" fill="#115E49"/>
<path d="M444.41 202.19C438.612 202.196 432.937 200.522 428.07 197.37C427.553 197.064 427.127 196.623 426.839 196.095C426.55 195.567 426.409 194.971 426.43 194.37C426.43 192.71 427.52 190.36 429.7 187.32C430.014 186.84 430.45 186.452 430.963 186.196C431.476 185.939 432.048 185.823 432.62 185.86C434.5 185.986 436.312 186.611 437.87 187.67C440.683 189.27 443.063 190.07 445.01 190.07C448.5 190.07 450.25 189.39 450.25 188.01C450.25 187.44 449.71 186.95 448.62 186.55C447.28 186.09 445.896 185.772 444.49 185.6C442.653 185.326 440.852 184.85 439.12 184.18C437.243 183.492 435.44 182.614 433.74 181.56C431.933 180.362 430.501 178.677 429.61 176.7C428.467 174.238 427.909 171.544 427.98 168.83C427.98 159.77 434.2 155.24 446.64 155.24C450.988 155.305 455.272 156.304 459.2 158.17C461.2 159.09 462.2 160.35 462.2 161.95C462.008 163.648 461.373 165.265 460.36 166.64C459.027 168.7 457.71 169.73 456.41 169.73C455.387 169.637 454.391 169.345 453.48 168.87C451.302 167.788 448.912 167.201 446.48 167.15C443.087 167.15 441.393 167.78 441.4 169.04C441.43 169.532 441.605 170.005 441.905 170.396C442.204 170.788 442.613 171.082 443.08 171.24C444.413 171.838 445.835 172.213 447.29 172.35C451.081 172.852 454.767 173.956 458.21 175.62C460.013 176.565 461.486 178.037 462.43 179.84C463.612 182.073 464.191 184.575 464.11 187.1C464.2 189.796 463.623 192.471 462.43 194.89C461.39 196.903 459.732 198.529 457.7 199.53C455.74 200.507 453.658 201.217 451.51 201.64C449.165 202.042 446.789 202.226 444.41 202.19Z" fill="#115E49"/>
<path d="M506.67 156.091C508.121 156.047 509.571 156.222 510.97 156.611C511.456 156.735 511.91 156.961 512.303 157.273C512.696 157.584 513.018 157.976 513.25 158.421C513.631 159.129 513.891 159.896 514.02 160.691C514.125 161.687 514.169 162.689 514.15 163.691V193.791C514.169 194.792 514.125 195.794 514.02 196.791C513.896 197.573 513.636 198.328 513.25 199.021C513.01 199.455 512.684 199.836 512.292 200.14C511.9 200.445 511.45 200.666 510.97 200.791C509.539 201.173 508.06 201.345 506.58 201.301C504 201.301 502.18 200.921 501.12 200.141C500.584 199.741 500.141 199.231 499.822 198.644C499.502 198.057 499.314 197.407 499.27 196.741C497.15 199.781 493.71 201.301 488.95 201.301C483.79 201.301 479.09 199.037 474.85 194.511C470.715 190.253 468.426 184.536 468.48 178.601C468.468 175.705 469.029 172.835 470.129 170.157C471.229 167.478 472.847 165.043 474.89 162.991C479.157 158.491 483.843 156.241 488.95 156.241C490.78 156.206 492.597 156.547 494.29 157.241C495.506 157.697 496.639 158.353 497.64 159.181C498.213 159.715 498.732 160.305 499.19 160.941C499.225 160.242 499.408 159.559 499.726 158.936C500.045 158.314 500.493 157.767 501.04 157.331C502.1 156.501 503.97 156.091 506.67 156.091ZM491.27 186.191C492.255 186.208 493.232 186.009 494.132 185.608C495.032 185.207 495.833 184.614 496.48 183.871C497.818 182.484 498.573 180.637 498.59 178.711C498.566 176.806 497.856 174.974 496.59 173.551C495.925 172.758 495.087 172.128 494.14 171.71C493.194 171.293 492.164 171.098 491.13 171.141C490.099 171.115 489.074 171.318 488.13 171.734C487.186 172.151 486.346 172.771 485.67 173.551C484.342 174.979 483.594 176.85 483.57 178.801C483.578 179.759 483.78 180.705 484.163 181.583C484.546 182.461 485.103 183.253 485.8 183.911C486.506 184.647 487.356 185.229 488.297 185.621C489.238 186.013 490.25 186.207 491.27 186.191Z" fill="#115E49"/>
<path d="M528.51 149.991C527.059 150.034 525.609 149.859 524.21 149.471C523.726 149.346 523.273 149.121 522.88 148.811C522.487 148.501 522.164 148.113 521.93 147.671C521.553 146.957 521.293 146.187 521.16 145.391C520.987 143.414 520.987 141.427 521.16 139.451C521.289 138.669 521.549 137.915 521.93 137.221C522.171 136.787 522.497 136.407 522.889 136.103C523.281 135.798 523.73 135.577 524.21 135.451C525.641 135.068 527.12 134.896 528.6 134.941C530.051 134.899 531.499 135.071 532.9 135.451C533.384 135.579 533.837 135.805 534.229 136.117C534.622 136.428 534.946 136.818 535.18 137.261C535.563 137.972 535.823 138.743 535.95 139.541C536.123 141.513 536.123 143.498 535.95 145.471C535.827 146.257 535.566 147.015 535.18 147.711C534.94 148.144 534.614 148.524 534.222 148.826C533.83 149.129 533.38 149.348 532.9 149.471C531.471 149.862 529.991 150.038 528.51 149.991ZM521.03 163.641C521.011 162.639 521.055 161.637 521.16 160.641C521.29 159.859 521.55 159.105 521.93 158.411C522.17 157.977 522.496 157.597 522.888 157.295C523.28 156.992 523.73 156.773 524.21 156.651C525.639 156.259 527.119 156.083 528.6 156.131C529.831 156.104 531.059 156.249 532.25 156.561C533.055 156.745 533.816 157.085 534.49 157.561C535.022 158.029 535.411 158.64 535.61 159.321C535.84 159.965 535.985 160.638 536.04 161.321C536.04 161.871 536.04 162.681 536.04 163.771V193.871C536.059 194.872 536.016 195.874 535.91 196.871C535.787 197.657 535.526 198.415 535.14 199.111C534.898 199.542 534.572 199.921 534.18 200.224C533.788 200.526 533.339 200.746 532.86 200.871C531.43 201.257 529.951 201.433 528.47 201.391C527.019 201.429 525.57 201.254 524.17 200.871C523.686 200.743 523.233 200.516 522.841 200.204C522.448 199.893 522.125 199.503 521.89 199.061C521.517 198.362 521.257 197.61 521.12 196.831C521.014 195.834 520.971 194.832 520.99 193.831L521.03 163.641Z" fill="#115E49"/>
<path d="M290.12 304.62C307.186 304.62 321.02 290.786 321.02 273.72C321.02 256.655 307.186 242.82 290.12 242.82C273.054 242.82 259.22 256.655 259.22 273.72C259.22 290.786 273.054 304.62 290.12 304.62Z" fill="#E9F3F9"/>
<path d="M269.17 237.89C278.487 237.89 286.04 230.337 286.04 221.02C286.04 211.703 278.487 204.15 269.17 204.15C259.853 204.15 252.3 211.703 252.3 221.02C252.3 230.337 259.853 237.89 269.17 237.89Z" fill="#E9F3F9"/>
<path d="M305.36 666.691C299.564 666.69 293.892 665.02 289.02 661.881C288.504 661.573 288.081 661.132 287.794 660.604C287.507 660.076 287.368 659.481 287.39 658.881C287.39 657.208 288.48 654.854 290.66 651.821C290.974 651.341 291.41 650.953 291.923 650.696C292.436 650.44 293.008 650.324 293.58 650.361C295.46 650.486 297.272 651.111 298.83 652.171C301.64 653.771 304.02 654.581 305.97 654.581C309.463 654.581 311.21 653.891 311.21 652.511C311.21 651.941 310.67 651.451 309.58 651.051C308.24 650.591 306.856 650.273 305.45 650.101C303.605 649.815 301.797 649.325 300.06 648.641C298.182 647.952 296.38 647.074 294.68 646.021C292.873 644.823 291.441 643.138 290.55 641.161C289.406 638.699 288.848 636.005 288.92 633.291C288.92 624.231 295.14 619.704 307.58 619.711C311.928 619.775 316.212 620.775 320.14 622.641C322.14 623.561 323.14 624.821 323.14 626.421C322.945 628.1 322.322 629.702 321.33 631.071C319.997 633.131 318.663 634.161 317.33 634.161C316.309 634.071 315.316 633.779 314.41 633.301C312.23 632.225 309.841 631.638 307.41 631.581C304.03 631.581 302.34 632.214 302.34 633.481C302.372 633.971 302.548 634.441 302.847 634.831C303.146 635.221 303.554 635.513 304.02 635.671C305.352 636.273 306.775 636.651 308.23 636.791C310.08 637.021 311.906 637.409 313.69 637.951C315.567 638.493 317.394 639.195 319.15 640.051C320.953 640.995 322.426 642.468 323.37 644.271C324.548 646.505 325.123 649.007 325.04 651.531C325.134 654.226 324.56 656.902 323.37 659.321C322.33 661.333 320.672 662.959 318.64 663.961C316.682 664.942 314.6 665.652 312.45 666.071C310.111 666.495 307.737 666.703 305.36 666.691Z" fill="#115E49"/>
<path d="M374.36 637.451C374.36 641.241 373.49 643.971 371.74 645.661C370.99 646.451 370.09 647.082 369.092 647.518C368.094 647.955 367.019 648.187 365.93 648.201H345.59C345.59 649.811 346.54 651.201 348.43 652.201C350.283 653.284 352.393 653.851 354.54 653.841C356.007 653.846 357.472 653.728 358.92 653.491C359.938 653.35 360.942 653.119 361.92 652.801L362.87 652.461C363.934 651.891 365.106 651.551 366.31 651.461C368.137 651.461 369.713 652.751 371.04 655.331C371.701 656.566 372.083 657.932 372.16 659.331C372.16 664.431 366.053 666.984 353.84 666.991C349.957 667.06 346.104 666.31 342.53 664.791C339.52 663.548 336.872 661.567 334.83 659.031C333.061 656.765 331.683 654.22 330.75 651.501C329.864 648.899 329.411 646.169 329.41 643.421C329.41 636.201 331.743 630.424 336.41 626.091C341.077 621.758 346.91 619.594 353.91 619.601C356.535 619.574 359.148 619.966 361.65 620.761C363.762 621.408 365.742 622.423 367.5 623.761C369.023 624.965 370.346 626.403 371.42 628.021C372.413 629.487 373.179 631.095 373.69 632.791C374.136 634.304 374.362 635.873 374.36 637.451ZM356.22 640.381C358.393 640.381 359.48 639.461 359.48 637.621C359.499 637.01 359.373 636.403 359.112 635.851C358.851 635.298 358.463 634.815 357.98 634.441C356.711 633.561 355.181 633.138 353.64 633.241C351.591 633.325 349.639 634.133 348.13 635.521C346.303 637.041 345.387 638.661 345.38 640.381H356.22Z" fill="#115E49"/>
<path d="M423.68 637.451C423.68 641.241 422.81 643.971 421.06 645.661C420.31 646.451 419.41 647.082 418.412 647.518C417.414 647.955 416.339 648.187 415.25 648.201H394.87C394.87 649.811 395.87 651.201 397.71 652.201C399.56 653.282 401.667 653.849 403.81 653.841C405.28 653.845 406.749 653.728 408.2 653.491C409.218 653.35 410.222 653.119 411.2 652.801L412.15 652.461C413.214 651.891 414.386 651.551 415.59 651.461C417.423 651.461 419 652.751 420.32 655.331C420.978 656.567 421.357 657.932 421.43 659.331C421.43 664.431 415.327 666.984 403.12 666.991C399.237 667.06 395.383 666.311 391.81 664.791C388.799 663.551 386.15 661.569 384.11 659.031C382.335 656.767 380.952 654.222 380.02 651.501C379.141 648.897 378.692 646.169 378.69 643.421C378.69 636.201 381.023 630.424 385.69 626.091C390.357 621.758 396.19 619.594 403.19 619.601C405.815 619.574 408.428 619.966 410.93 620.761C413.042 621.408 415.022 622.423 416.78 623.761C418.303 624.963 419.623 626.401 420.69 628.021C421.686 629.487 422.455 631.095 422.97 632.791C423.43 634.302 423.669 635.871 423.68 637.451ZM405.53 640.381C407.71 640.381 408.8 639.461 408.8 637.621C408.819 637.01 408.693 636.403 408.432 635.851C408.171 635.298 407.783 634.815 407.3 634.441C406.027 633.561 404.494 633.138 402.95 633.241C400.904 633.325 398.955 634.133 397.45 635.521C395.61 637.041 394.7 638.661 394.7 640.381H405.53Z" fill="#115E49"/>
<path d="M466.36 599.441C467.811 599.397 469.261 599.573 470.66 599.961C471.143 600.087 471.594 600.312 471.985 600.621C472.375 600.931 472.697 601.319 472.93 601.761C473.311 602.474 473.574 603.244 473.71 604.041C473.81 605.037 473.854 606.039 473.84 607.041V658.381C473.854 659.382 473.81 660.384 473.71 661.381C473.575 662.168 473.298 662.924 472.89 663.611C472.379 664.482 471.546 665.118 470.57 665.381C469.139 665.763 467.66 665.935 466.18 665.891C461.833 665.891 459.427 664.487 458.96 661.681C456.547 664.434 453.193 665.811 448.9 665.811C443.74 665.811 439.037 663.557 434.79 659.051C432.73 656.933 431.108 654.429 430.017 651.684C428.925 648.938 428.386 646.005 428.43 643.051C428.426 637.218 430.731 631.62 434.84 627.481C439.107 622.961 443.793 620.697 448.9 620.691C453.14 620.691 456.437 622.124 458.79 624.991V606.921C458.771 605.919 458.814 604.917 458.92 603.921C459.045 603.138 459.306 602.384 459.69 601.691C459.93 601.257 460.256 600.878 460.648 600.575C461.04 600.272 461.49 600.053 461.97 599.931C463.401 599.549 464.88 599.384 466.36 599.441ZM445.72 648.441C446.408 649.186 447.246 649.777 448.178 650.177C449.11 650.577 450.116 650.776 451.13 650.761C452.128 650.784 453.118 650.588 454.032 650.187C454.946 649.787 455.761 649.19 456.42 648.441C457.761 647.056 458.517 645.208 458.53 643.281C458.51 641.375 457.799 639.542 456.53 638.121C455.865 637.327 455.028 636.697 454.081 636.279C453.134 635.862 452.104 635.667 451.07 635.711C450.033 635.668 448.999 635.859 448.046 636.27C447.092 636.68 446.243 637.299 445.56 638.081C444.25 639.497 443.515 641.351 443.5 643.281C443.503 644.247 443.699 645.203 444.077 646.093C444.455 646.982 445.007 647.787 445.7 648.461L445.72 648.441Z" fill="#115E49"/>
<path d="M497.36 666.69C491.564 666.691 485.891 665.021 481.02 661.88C480.504 661.572 480.081 661.131 479.794 660.603C479.507 660.075 479.368 659.48 479.39 658.88C479.39 657.207 480.477 654.853 482.65 651.82C482.966 651.34 483.404 650.952 483.918 650.696C484.433 650.439 485.006 650.323 485.58 650.36C487.457 650.484 489.267 651.109 490.82 652.17C493.63 653.77 496.01 654.58 497.96 654.58C501.46 654.58 503.21 653.89 503.21 652.51C503.21 651.94 502.66 651.45 501.57 651.05C500.234 650.59 498.853 650.271 497.45 650.1C495.61 649.827 493.805 649.351 492.07 648.68C490.196 647.989 488.397 647.112 486.7 646.06C484.89 644.865 483.458 643.179 482.57 641.2C481.426 638.738 480.868 636.044 480.94 633.33C480.94 624.27 487.16 619.743 499.6 619.75C503.949 619.799 508.236 620.785 512.17 622.64C514.17 623.56 515.17 624.82 515.17 626.42C514.98 628.099 514.36 629.7 513.37 631.07C512.037 633.13 510.703 634.16 509.37 634.16C508.349 634.072 507.356 633.779 506.45 633.3C504.27 632.224 501.881 631.637 499.45 631.58C496.07 631.58 494.38 632.213 494.38 633.48C494.411 633.969 494.586 634.438 494.883 634.828C495.18 635.218 495.586 635.511 496.05 635.67C497.386 636.272 498.811 636.65 500.27 636.79C502.12 637.02 503.946 637.408 505.73 637.95C507.607 638.492 509.434 639.194 511.19 640.05C512.99 640.996 514.458 642.468 515.4 644.27C516.581 646.503 517.16 649.005 517.08 651.53C517.171 654.226 516.594 656.902 515.4 659.32C514.365 661.337 512.706 662.964 510.67 663.96C508.713 664.943 506.63 665.652 504.48 666.07C502.131 666.497 499.747 666.705 497.36 666.69Z" fill="#115E49"/>
<g style="mix-blend-mode:multiply">
<path d="M408.55 573.94C472.466 573.94 524.28 563.078 524.28 549.68C524.28 536.282 472.466 525.42 408.55 525.42C344.634 525.42 292.82 536.282 292.82 549.68C292.82 563.078 344.634 573.94 408.55 573.94Z" fill="#A7A9AC"/>
</g>
<path d="M373.43 555.28C371.944 555.28 370.518 554.69 369.467 553.64C368.415 552.59 367.823 551.166 367.82 549.68V539.64C352.736 532.947 339.526 522.655 329.349 509.665C319.172 496.676 312.339 481.386 309.45 465.14C308.949 462.306 309.075 459.398 309.818 456.618C310.561 453.839 311.904 451.256 313.752 449.051C315.6 446.845 317.908 445.071 320.515 443.853C323.121 442.635 325.963 442.002 328.84 442H401.02C400.875 437.387 400.498 432.784 399.89 428.21C399.6 425.96 394.98 423.6 390.08 421.1C379.18 415.55 363.08 407.34 361.08 383.76C349.79 383.17 340.36 379.76 333.01 373.57C329.26 370.407 326.113 366.592 323.72 362.31C323.28 362.31 322.83 362.31 322.37 362.31C317.66 362.31 313.77 360.7 311.09 357.75C309.962 358.128 308.78 358.317 307.59 358.31C304.554 358.173 301.593 357.32 298.95 355.82C296.669 356.795 294.221 357.321 291.74 357.37C284.18 357.37 280.18 352.07 278.38 347.2C275.427 346.358 272.814 344.609 270.91 342.2C269.579 340.426 268.681 338.366 268.285 336.184C267.889 334.002 268.007 331.758 268.63 329.63C269.94 324.43 273.02 320.85 277.16 319.51C276.999 316.122 277.943 312.774 279.85 309.97C279.098 307.809 278.759 305.526 278.85 303.24C278.951 301.827 279.585 300.506 280.622 299.543C281.66 298.58 283.024 298.046 284.44 298.05C284.633 298.039 284.827 298.039 285.02 298.05C287.24 298.273 289.407 298.868 291.43 299.81C292.747 299.242 294.166 298.946 295.6 298.94C296.786 298.942 297.962 299.144 299.08 299.54C300.455 298.152 302.184 297.17 304.08 296.7C304.249 296.117 304.463 295.549 304.72 295C302.878 293.841 301.39 292.197 300.42 290.25C297.168 289.436 294.188 287.781 291.78 285.45C291.269 284.907 290.872 284.267 290.611 283.569C290.351 282.871 290.232 282.127 290.262 281.383C290.291 280.638 290.469 279.906 290.785 279.231C291.101 278.556 291.548 277.95 292.1 277.45C293.027 276.604 294.031 275.847 295.1 275.19C294.899 273.172 295.089 271.135 295.66 269.19C295.13 265.83 294.66 258.36 299.12 252.19C301.798 248.61 305.637 246.071 309.98 245.01C310.04 240.01 311.63 234.09 316.83 230.48C317.299 227.147 318.641 223.997 320.72 221.35C321.205 220.77 321.802 220.294 322.476 219.95C323.15 219.606 323.886 219.402 324.64 219.35H324.99C326.384 219.352 327.728 219.872 328.76 220.81L329.23 221.26C329.679 220.943 330.147 220.652 330.63 220.39C331.296 220.042 332.025 219.831 332.774 219.769C333.522 219.707 334.276 219.796 334.99 220.03C335.493 220.198 335.97 220.433 336.41 220.73C337.928 221.038 339.389 221.581 340.74 222.34C342.329 222.035 343.942 221.878 345.56 221.87C348.207 221.806 350.829 222.4 353.19 223.6C353.263 222.663 353.57 221.761 354.083 220.974C354.596 220.187 355.298 219.542 356.125 219.097C356.952 218.652 357.878 218.422 358.817 218.428C359.756 218.434 360.678 218.675 361.5 219.13C364.481 220.727 367.183 222.797 369.5 225.26C375.886 225.877 381.957 228.329 386.98 232.32C390.389 235.015 393.008 238.58 394.56 242.64C397.44 243.567 400.014 245.256 402.01 247.53C403.728 249.566 404.889 252.012 405.38 254.63C408.85 255.63 413.48 258.4 415.95 266.04C416.993 266.261 418.002 266.621 418.95 267.11C417.786 263.778 417.9 260.132 419.27 256.88C421.03 253.06 424.52 250.52 429.67 249.29C432.25 244.53 437.47 239.04 445.82 239.04C448.026 239.058 450.215 239.419 452.31 240.11C454.646 238.343 457.472 237.343 460.4 237.25C462.202 237.276 463.972 237.724 465.57 238.557C467.168 239.391 468.548 240.587 469.6 242.05C472.398 242.327 475.146 242.98 477.77 243.99C483.33 246.2 487.08 249.99 488.71 254.88C490.973 255.251 493.132 256.092 495.05 257.35C495.667 257.776 496.192 258.322 496.592 258.956C496.993 259.591 497.261 260.299 497.38 261.04C497.6 262.385 497.323 263.764 496.6 264.92C499.72 268.37 501.41 273.1 501.39 278.68C501.449 283.066 500.196 287.371 497.79 291.04C498.067 293.041 497.965 295.076 497.49 297.04C499.71 299.97 501.49 304.49 500.33 311.04C499.917 313.672 498.967 316.192 497.539 318.442C496.111 320.692 494.236 322.625 492.03 324.12C492.326 327.69 491.616 331.272 489.98 334.46C489.606 335.109 489.106 335.677 488.51 336.131C487.913 336.584 487.232 336.914 486.506 337.1C485.78 337.287 485.025 337.326 484.283 337.216C483.542 337.106 482.83 336.849 482.19 336.46C480.919 335.687 479.735 334.778 478.66 333.75C478.099 334.126 477.511 334.46 476.9 334.75C468.45 347.07 454.99 354.82 438.76 356.67C433.262 357.54 427.695 357.905 422.13 357.76H420.04C416.013 357.679 411.985 357.856 407.98 358.29C405.17 359.77 403.14 363.16 402.49 367.5C401.72 372.58 403.09 377.63 405.91 380.17C408.46 381.79 410.86 382.02 414.15 382.33C420.94 382.97 429.38 383.77 439.64 396.99L439.81 397.21C447.81 408.59 451.45 421.41 455 433.81C455.53 435.68 456.07 437.56 456.62 439.42V439.54C456.85 440.37 457.08 441.21 457.32 442.06H488.17C491.047 442.062 493.889 442.695 496.495 443.913C499.102 445.131 501.41 446.905 503.258 449.111C505.106 451.316 506.449 453.899 507.192 456.678C507.935 459.458 508.061 462.366 507.56 465.2C504.876 480.389 498.738 494.759 489.62 507.2C489.2 507.78 488.77 508.36 488.33 508.93C487.02 510.63 485.65 512.31 484.23 513.93C483.29 515.01 482.31 516.08 481.33 517.11C480.35 518.14 479.27 519.22 478.2 520.25C472.879 525.333 467.022 529.823 460.73 533.64C460.16 533.98 459.58 534.33 459 534.64C457.25 535.64 455.5 536.64 453.79 537.47C452.32 538.21 450.79 538.93 449.27 539.61V549.61C449.267 551.096 448.675 552.52 447.623 553.57C446.572 554.62 445.146 555.21 443.66 555.21L373.43 555.28ZM354.9 363.93C357.256 364.491 359.66 364.825 362.08 364.93C362.31 363.57 362.57 362.19 362.87 360.8C363.656 357.029 364.811 353.344 366.32 349.8C364.108 351.943 361.432 353.547 358.5 354.49C357.831 357.814 356.615 361.004 354.9 363.93ZM371.82 339.57C371.77 339.83 371.71 340.09 371.65 340.34C372.603 339.006 373.603 337.726 374.65 336.5L374.49 336.41C374.07 336.15 373.67 335.89 373.28 335.61C373.328 337.07 372.804 338.491 371.82 339.57Z" fill="#231F20"/>
<path d="M414.18 320.49C414.18 320.49 409.97 332.66 400.52 327.42C400.52 327.42 395.7 336.17 389.3 326.42C389.3 326.42 378.46 329.99 375.48 321.42C375.48 321.42 363.92 324.81 361.48 314.36C359.1 304.18 366.39 303.02 366.39 303.02C366.39 303.02 360.79 295.02 370.51 290.02C370.51 290.02 365.06 277.58 379.13 278.33C379.13 278.33 385.47 266.41 397.18 274.71C397.18 274.71 405.18 268.26 408.12 277.42C408.12 277.42 425.81 280.16 420.18 294.54C420.18 294.54 430.53 296.62 428.43 308.34C426.36 320.28 414.18 320.49 414.18 320.49Z" fill="#124C2D"/>
<path d="M480.6 322.12C480.6 322.12 476.38 334.29 466.94 329.05C466.94 329.05 462.12 337.8 455.72 328.05C455.72 328.05 444.88 331.62 441.89 323.05C441.89 323.05 430.34 326.44 427.89 316C425.52 305.82 432.81 304.65 432.81 304.65C432.81 304.65 427.21 296.65 436.93 291.65C436.93 291.65 431.47 279.22 445.55 279.96C445.55 279.96 451.89 268.05 463.55 276.34C463.55 276.34 471.55 269.9 474.49 279.05C474.49 279.05 492.17 281.79 486.49 296.18C486.49 296.18 496.85 298.25 494.75 309.98C492.72 321.91 480.6 322.12 480.6 322.12Z" fill="#124C2D"/>
<path d="M346.58 255.35C346.58 255.35 349.03 231.35 364.45 230.77C379.87 230.19 389.54 240.4 389.87 247.28C389.87 247.28 401.18 247.98 400.04 259.88C400.04 259.88 409.04 257.17 411.48 271.34C411.48 271.34 421.8 269.85 418.16 280.53C418.16 280.53 429.84 285.29 421.96 291.48C421.96 291.48 431.15 295.92 420.91 304.02C420.91 304.02 421.65 315.28 408.31 311.97C408.31 311.97 408.31 319.16 397.08 317.7C385.85 316.24 389.27 309.14 389.27 309.14C389.27 309.14 380.79 314.57 377.87 307.88C377.87 307.88 371.57 316.61 363.25 309.64C363.25 309.64 338.12 320.84 340.14 296.58C340.14 296.58 326.76 293.58 330.32 280.58C330.32 280.58 322.32 268.97 331.55 261.97C340.78 254.97 346.58 255.35 346.58 255.35Z" fill="#1C6A43"/>
<path d="M478.15 268.419C478.15 268.419 476.09 248.129 463.08 247.679C450.07 247.229 441.91 255.799 441.63 261.609C441.63 261.609 432.09 262.199 433.05 272.239C433.05 272.239 425.45 269.959 423.4 281.909C423.4 281.909 414.69 280.649 417.77 289.659C417.77 289.659 407.91 293.659 414.56 298.899C414.56 298.899 406.81 302.649 415.45 309.479C415.45 309.479 414.82 318.969 426.08 316.189C426.08 316.189 426.08 322.249 435.55 321.019C445.02 319.789 442.14 313.799 442.14 313.799C442.14 313.799 449.29 318.379 451.76 312.739C451.76 312.739 457.07 320.099 464.09 314.219C464.09 314.219 485.29 323.669 483.59 303.219C483.59 303.219 494.87 300.709 491.87 289.729C491.87 289.729 498.59 279.939 490.87 274.029C483.15 268.119 478.15 268.419 478.15 268.419Z" fill="#1C6A43"/>
<path d="M477.76 310.75C491.24 320.86 485.15 331.61 485.15 331.61C485.15 331.61 482.65 317.18 477.76 310.75Z" fill="#124C2D"/>
<path d="M485.15 331.639C474.91 325.419 477.76 310.779 477.76 310.779C482.65 317.179 485.15 331.639 485.15 331.639Z" fill="#124C2D"/>
<path d="M370.03 310.75C383.51 320.86 377.42 331.61 377.42 331.61C377.42 331.61 374.92 317.18 370.03 310.75Z" fill="#124C2D"/>
<path d="M377.42 331.639C367.18 325.419 370.03 310.779 370.03 310.779C374.92 317.179 377.42 331.639 377.42 331.639Z" fill="#124C2D"/>
<path d="M478.74 293.211C493.49 301.371 488.93 312.861 488.93 312.861C488.93 312.861 484.47 298.911 478.74 293.211Z" fill="#1C6A43"/>
<path d="M488.93 312.861C477.93 308.111 478.74 293.211 478.74 293.211C484.47 298.911 488.93 312.861 488.93 312.861Z" fill="#1C6A43"/>
<path d="M358.81 224.119C373.56 232.279 369 243.769 369 243.769C369 243.769 364.54 229.819 358.81 224.119Z" fill="#1C6A43"/>
<path d="M369 243.769C358 239.019 358.81 224.119 358.81 224.119C364.54 229.819 369 243.769 369 243.769Z" fill="#1C6A43"/>
<path d="M352.16 350.121C352.16 350.121 347.94 362.291 338.49 357.051C338.49 357.051 333.68 365.791 327.27 356.051C327.27 356.051 316.44 359.611 313.45 351.051C313.45 351.051 301.9 354.441 299.45 344.001C297.09 333.791 304.36 332.641 304.36 332.641C304.36 332.641 298.75 324.641 308.48 319.641C308.48 319.641 303.02 307.211 317.1 307.951C317.1 307.951 323.44 296.041 335.1 304.331C335.1 304.331 343.1 297.891 346.04 307.051C346.04 307.051 363.72 309.781 358.04 324.171C358.04 324.171 368.4 326.241 366.3 337.971C364.28 349.901 352.16 350.121 352.16 350.121Z" fill="#124C2D"/>
<path d="M466.46 296.639C466.333 299.144 466.076 301.641 465.69 304.119C464.4 315.309 459.69 322.229 453.06 326.119C455.6 314.199 453.15 300.979 452.98 300.119L448.37 301.009C448.37 301.229 451.37 316.959 447.61 328.499C440.18 330.819 431.16 330.499 421.79 328.709C415.737 327.116 409.441 326.655 403.22 327.349C402.949 323.222 401.567 319.245 399.22 315.839C396.07 311.289 390.04 306.119 378.64 304.739C376.44 298.569 378.95 292.239 378.98 292.159L376.81 291.269L378.98 292.169L374.64 290.369C372.961 294.841 372.614 299.704 373.64 304.369C372.64 304.369 371.53 304.369 370.42 304.369C367.78 304.459 365.82 303.859 364.42 302.539C362.18 300.439 361.6 296.699 361.57 295.439L351.44 295.559C351.44 296.449 351.71 304.369 357.44 309.789C360.83 313.029 365.44 314.639 370.83 314.449C380.57 314.119 387.54 316.559 390.98 321.529C392.654 323.986 393.425 326.948 393.16 329.909C379.86 335.409 371.41 347.909 368.43 361.959C367.79 364.959 367.32 367.859 367 370.549C358.45 370.869 351.32 369.429 345.67 366.239C350.79 362.089 353.58 355.559 353.83 347.019C353.931 341.895 353.277 336.783 351.89 331.849L347.36 333.249C347.43 333.479 353.82 355.119 341.55 363.449C329.27 353.129 330.45 334.619 330.47 334.449L326.67 334.169L322.83 333.879C322.76 334.789 321.3 356.449 336.62 369.329C343.72 375.329 353.11 378.329 364.62 378.329H366.42C366.19 417.029 403.64 413.509 405.42 427.609C408.49 451.609 405.27 461.549 400.56 477.169H461.86C458.18 464.809 454.64 453.509 451.26 441.059C447.14 427.059 443.82 412.729 435.26 400.479C421.26 382.479 412.84 391.579 402.57 384.709C393.49 377.099 395.14 357.649 406.42 352.899C416.73 351.389 427.6 353.129 437.98 351.169C463.12 348.399 479.43 330.519 480.78 305.379C481.06 302.379 481.19 299.379 481.28 296.379L466.46 296.639Z" fill="#A86145"/>
<path d="M473.55 296.49C474.46 308.93 473.12 335.98 444.45 337.49C410.78 339.23 388.91 335 384.97 371.69C381.24 406.44 416.72 395.42 423.36 409.56C428.24 419.95 427.14 456.8 421.36 477.13H461.94C458.26 464.77 454.72 453.47 451.34 441.02C447.22 427.02 443.9 412.69 435.34 400.44C421.34 382.44 412.92 391.54 402.65 384.67C393.57 377.06 395.22 357.61 406.5 352.86C416.81 351.35 427.68 353.09 438.06 351.13C463.2 348.36 479.51 330.48 480.86 305.34C481.14 302.34 481.27 299.34 481.36 296.34L473.55 296.49Z" fill="#79412D"/>
<path d="M451.29 440.981C447.17 426.981 443.85 412.651 435.29 400.401C421.29 382.401 412.87 391.501 402.6 384.631C393.52 377.021 395.17 357.571 406.45 352.821C416.76 351.311 427.63 353.051 438.01 351.091C463.15 348.321 479.46 330.441 480.81 305.301C481.09 302.301 481.22 299.301 481.31 296.301L478.17 296.371C478.07 326.631 467.59 335.371 455.44 340.661C444.34 345.461 420.96 344.231 406.55 347.801C392.14 351.371 389.65 368.471 391.36 380.091C393.49 394.301 420.7 392.011 428.91 402.861C437.57 414.311 442.44 457.861 444.19 477.091H461.86C458.21 464.731 454.67 453.431 451.29 440.981Z" fill="#502314"/>
<path d="M341.27 284.489C341.27 284.489 338.2 273.019 329.27 279.929C329.27 279.929 311.37 274.049 316.32 292.929C316.32 292.929 307.32 294.859 309.59 302.339C309.59 302.339 301.75 300.159 301.22 308.269C301.22 308.269 295.61 299.619 289.22 309.269C289.22 309.269 279.02 313.339 284.22 325.269C284.22 325.269 276.39 321.789 274.05 331.089C271.71 340.389 281.16 343.089 282.79 341.889C282.79 341.889 284.38 357.559 299.26 349.529C299.26 349.529 311.44 358.259 312.66 347.019C312.66 347.019 318.66 354.169 324.31 346.019C324.31 346.019 331.86 354.939 336.31 347.529C336.31 347.529 353.87 354.819 354.94 343.369C354.94 343.369 366.23 343.799 362 330.439C362 330.439 369.17 330.439 366 321.109C366 321.109 370.46 302.569 351.92 301.219C351.96 301.239 355.86 285.259 341.27 284.489Z" fill="#63B446"/>
<path d="M327.24 232.98C327.24 232.98 330.43 221.53 339.75 228.43C339.75 228.43 358.37 222.56 353.23 241.43C353.23 241.43 362.54 243.35 360.23 250.83C360.23 250.83 368.39 248.65 368.94 256.75C368.94 256.75 374.78 248.11 381.43 257.75C381.43 257.75 392.04 261.82 386.64 273.75C386.64 273.75 394.79 270.27 397.22 279.57C399.65 288.87 389.82 291.52 388.12 290.36C388.12 290.36 386.47 306.01 370.98 297.99C370.98 297.99 358.31 306.7 357.04 295.48C357.04 295.48 350.79 302.63 344.92 294.48C344.92 294.48 337.06 303.38 332.41 295.98C332.41 295.98 314.13 303.27 313.02 291.82C313.02 291.82 301.27 292.26 305.67 278.91C305.67 278.91 298.21 278.91 301.47 269.59C301.47 269.59 296.84 251.07 316.13 249.72C316.12 249.72 312.06 233.76 327.24 232.98Z" fill="#63B446"/>
<path d="M482.01 295.279C482.01 295.279 479.64 309.979 467.82 305.889C467.82 305.889 464.08 316.809 454.82 306.989C454.82 306.989 443.19 313.199 438.06 303.989C438.06 303.989 425.57 310.149 420.7 298.739C415.96 287.619 424.04 284.839 424.04 284.839C424.04 284.839 416.04 276.839 426.13 269.239C426.13 269.239 417.43 256.159 433.62 254.239C433.62 254.239 438.46 239.409 453.47 246.529C453.47 246.529 461.32 237.589 466.47 247.439C466.47 247.439 487.18 247.029 483.64 264.539C483.64 264.539 495.85 264.839 495.81 278.609C495.78 292.639 482.01 295.279 482.01 295.279Z" fill="#63B446"/>
<path d="M338.58 281.8C347.842 281.8 355.35 274.292 355.35 265.03C355.35 255.768 347.842 248.26 338.58 248.26C329.318 248.26 321.81 255.768 321.81 265.03C321.81 274.292 329.318 281.8 338.58 281.8Z" fill="#9FCC3B"/>
<path d="M322.24 329.64C330.254 329.64 336.75 323.752 336.75 316.49C336.75 309.227 330.254 303.34 322.24 303.34C314.226 303.34 307.73 309.227 307.73 316.49C307.73 323.752 314.226 329.64 322.24 329.64Z" fill="#9FCC3B"/>
<path d="M355.36 290.101C363.374 290.101 369.87 284.213 369.87 276.951C369.87 269.688 363.374 263.801 355.36 263.801C347.346 263.801 340.85 269.688 340.85 276.951C340.85 284.213 347.346 290.101 355.36 290.101Z" fill="#9FCC3B"/>
<path d="M308.88 338.621C314.718 338.621 319.45 334.332 319.45 329.041C319.45 323.75 314.718 319.461 308.88 319.461C303.042 319.461 298.31 323.75 298.31 329.041C298.31 334.332 303.042 338.621 308.88 338.621Z" fill="#9FCC3B"/>
<path d="M350.75 322.85C355.378 322.85 359.13 319.448 359.13 315.25C359.13 311.053 355.378 307.65 350.75 307.65C346.122 307.65 342.37 311.053 342.37 315.25C342.37 319.448 346.122 322.85 350.75 322.85Z" fill="#9FCC3B"/>
<path d="M473.18 266.639C483.05 255.749 491.9 261.909 491.9 261.909C491.9 261.909 479.16 262.909 473.18 266.639Z" fill="#63B446"/>
<path d="M491.9 261.9C485.67 270.29 473.18 266.63 473.18 266.63C479.16 262.91 491.9 261.9 491.9 261.9Z" fill="#4CA84E"/>
<path d="M419.59 304.249C432.59 293.549 441.59 302.019 441.59 302.019C441.59 302.019 427 301.029 419.59 304.249Z" fill="#63B446"/>
<path d="M441.61 302.02C433.14 310.5 419.61 304.25 419.61 304.25C427 301.03 441.61 302.02 441.61 302.02Z" fill="#4CA84E"/>
<path d="M430.6 312.24C433.66 295.66 446 296.34 446 296.34C446 296.34 434.19 305 430.6 312.24Z" fill="#63B446"/>
<path d="M446 296.34C445 308.27 430.6 312.24 430.6 312.24C434.19 305 446 296.34 446 296.34Z" fill="#4CA84E"/>
<path d="M328.28 246.941C316.98 234.441 325.02 225.051 325.02 225.051C325.02 225.051 324.71 239.691 328.28 246.941Z" fill="#63B446"/>
<path d="M325.02 225.051C333.88 233.111 328.28 246.941 328.28 246.941C324.71 239.691 325.02 225.051 325.02 225.051Z" fill="#4CA84E"/>
<path d="M328.15 246.979C322.31 231.169 333.26 225.449 333.26 225.449C333.26 225.449 327.53 238.919 328.15 246.979Z" fill="#63B446"/>
<path d="M333.26 225.449C338.49 236.229 328.15 246.979 328.15 246.979C327.53 238.919 333.26 225.449 333.26 225.449Z" fill="#4CA84E"/>
<path d="M367.7 335.77C353.55 332.88 354.36 322.32 354.36 322.32C354.36 322.32 361.56 332.58 367.7 335.77Z" fill="#63B446"/>
<path d="M354.36 322.32C364.57 323.38 367.73 335.77 367.73 335.77C361.56 332.58 354.36 322.32 354.36 322.32Z" fill="#4CA84E"/>
<path d="M299.99 319.46C283.48 316.09 284.39 303.76 284.39 303.76C284.39 303.76 292.82 315.74 299.99 319.46Z" fill="#63B446"/>
<path d="M284.36 303.76C296.28 305.01 299.96 319.46 299.96 319.46C292.82 315.74 284.36 303.76 284.36 303.76Z" fill="#4CA84E"/>
<path d="M317.94 280.699C304.36 290.699 295.83 281.699 295.83 281.699C295.83 281.699 310.36 283.509 317.94 280.699Z" fill="#63B446"/>
<path d="M295.83 281.719C304.75 273.719 317.94 280.719 317.94 280.719C310.36 283.509 295.83 281.719 295.83 281.719Z" fill="#4CA84E"/>
<path d="M375.28 266.42C378.28 251.42 389.28 254.1 389.28 254.1C389.28 254.1 378.6 260.23 375.28 266.42Z" fill="#63B446"/>
<path d="M389.36 254.1C388.26 265.1 375.36 266.42 375.36 266.42C378.6 260.23 389.36 254.1 389.36 254.1Z" fill="#4CA84E"/>
<path d="M461.28 292.97C470.542 292.97 478.05 285.462 478.05 276.2C478.05 266.938 470.542 259.43 461.28 259.43C452.018 259.43 444.51 266.938 444.51 276.2C444.51 285.462 452.018 292.97 461.28 292.97Z" fill="#9FCC3B"/>
<path d="M445.47 299.589C452.733 299.589 458.62 293.702 458.62 286.439C458.62 279.177 452.733 273.289 445.47 273.289C438.208 273.289 432.32 279.177 432.32 286.439C432.32 293.702 438.208 299.589 445.47 299.589Z" fill="#9FCC3B"/>
<path d="M443.66 532.279H373.43V549.679H443.66V532.279Z" fill="#3B3B49"/>
<path d="M328.84 447.641C326.781 447.642 324.748 448.095 322.884 448.967C321.019 449.839 319.368 451.109 318.047 452.687C316.726 454.266 315.766 456.115 315.236 458.104C314.707 460.093 314.619 462.174 314.98 464.201C318.843 486.212 330.342 506.157 347.456 520.529C364.569 534.901 386.202 542.779 408.55 542.779C430.898 542.779 452.53 534.901 469.644 520.529C486.758 506.157 498.257 486.212 502.12 464.201C502.479 462.173 502.39 460.092 501.859 458.103C501.328 456.114 500.368 454.265 499.046 452.687C497.724 451.109 496.072 449.839 494.207 448.967C492.342 448.095 490.309 447.643 488.25 447.641H328.84Z" fill="#3B3B49"/>
<path d="M488.25 447.641H445.54C447.599 447.643 449.632 448.095 451.497 448.967C453.362 449.839 455.014 451.109 456.336 452.687C457.657 454.265 458.618 456.114 459.149 458.103C459.68 460.092 459.769 462.173 459.41 464.201C456.141 482.551 447.554 499.536 434.714 513.047C421.875 526.559 405.349 536.001 387.19 540.201C399.748 543.083 412.761 543.384 425.438 541.086C438.116 538.788 450.195 533.938 460.943 526.831C471.69 519.725 480.881 510.509 487.96 499.742C495.038 488.976 499.855 476.885 502.12 464.201C502.479 462.173 502.39 460.092 501.859 458.103C501.328 456.114 500.368 454.265 499.046 452.687C497.724 451.109 496.072 449.839 494.207 448.967C492.342 448.095 490.309 447.643 488.25 447.641Z" fill="#605C74"/>
<path d="M333.01 472.511C337.069 472.511 340.36 469.22 340.36 465.161C340.36 461.101 337.069 457.811 333.01 457.811C328.951 457.811 325.66 461.101 325.66 465.161C325.66 469.22 328.951 472.511 333.01 472.511Z" fill="#605C74"/>
<path d="M482.54 274.97C484.307 274.97 485.74 273.538 485.74 271.77C485.74 270.003 484.307 268.57 482.54 268.57C480.773 268.57 479.34 270.003 479.34 271.77C479.34 273.538 480.773 274.97 482.54 274.97Z" fill="white"/>
<path d="M339.27 236.459C340.656 236.459 341.78 235.336 341.78 233.949C341.78 232.563 340.656 231.439 339.27 231.439C337.884 231.439 336.76 232.563 336.76 233.949C336.76 235.336 337.884 236.459 339.27 236.459Z" fill="white"/>
<path d="M489.6 281.9C491.632 281.9 493.28 279.348 493.28 276.2C493.28 273.052 491.632 270.5 489.6 270.5C487.568 270.5 485.92 273.052 485.92 276.2C485.92 279.348 487.568 281.9 489.6 281.9Z" fill="white"/>
<path d="M478.651 262.081C480.228 260.799 479.896 257.779 477.909 255.337C475.923 252.895 473.035 251.954 471.458 253.237C469.881 254.519 470.213 257.538 472.199 259.981C474.186 262.423 477.074 263.363 478.651 262.081Z" fill="white"/>
<path d="M347.08 243.769C349.112 243.769 350.76 241.217 350.76 238.069C350.76 234.921 349.112 232.369 347.08 232.369C345.048 232.369 343.4 234.921 343.4 238.069C343.4 241.217 345.048 243.769 347.08 243.769Z" fill="white"/>
</g>
<defs>
<clipPath id="clip0_4890_692">
<rect width="619.18" height="838.58" fill="white"/>
</clipPath>
</defs>
</svg>
