<svg width="620" height="839" viewBox="0 0 620 839" fill="none" xmlns="http://www.w3.org/2000/svg">
<g clip-path="url(#clip0_4845_2776)">
<path d="M309.59 838.58C480.572 838.58 619.18 809.519 619.18 773.67C619.18 737.821 480.572 708.76 309.59 708.76C138.608 708.76 0 737.821 0 773.67C0 809.519 138.608 838.58 309.59 838.58Z" fill="#A7A9AC"/>
<path d="M161.71 785.6C158.906 785.599 156.134 785.008 153.573 783.866C151.013 782.725 148.721 781.057 146.846 778.972C144.972 776.887 143.556 774.432 142.692 771.764C141.828 769.097 141.534 766.278 141.83 763.49C141.83 763.37 141.96 762.23 142.12 760.29C142.12 759.79 142.2 759.29 142.24 758.68C142.46 755.68 142.76 750.98 142.92 745.27C142.92 744.27 142.97 743.27 142.99 742.17V740.54C142.99 739.46 142.99 738.35 142.99 737.22C142.99 732.29 142.87 727.46 142.62 722.86C142.49 720.3 142.31 717.77 142.09 715.36C141.98 714.11 141.86 712.85 141.72 711.6C141.58 710.35 141.44 709.11 141.28 707.87C141.12 706.63 140.95 705.42 140.76 704.2C140.66 703.59 140.57 702.99 140.47 702.38C140.27 701.19 140.05 700 139.82 698.82C139.71 698.25 139.59 697.67 139.47 697.1C138.708 693.333 137.706 689.619 136.47 685.98C136.31 685.507 136.14 685.037 135.96 684.57C135.332 682.868 134.618 681.199 133.82 679.57C133.28 678.49 132.71 677.46 132.13 676.57C130.55 674.04 128.86 671.41 126.96 668.51C125.34 666.04 123.78 663.7 122.29 661.51L122.05 661.15C120.41 658.7 118.85 656.36 117.36 654.08C116.36 652.48 115.36 650.92 114.36 649.37C113.36 647.82 112.36 646.11 111.46 644.58C110.46 642.85 109.56 641.22 108.7 639.58C106.851 636.083 105.201 632.484 103.76 628.8C103.01 626.87 102.31 624.9 101.69 622.95C100.69 619.95 99.9 616.76 99.21 613.55C97.2788 603.912 96.3638 594.099 96.48 584.27V201.41C96.4245 193.859 96.9359 186.314 98.01 178.84C98.9465 172.346 100.514 165.959 102.69 159.77C103.03 158.77 103.39 157.84 103.76 156.89C104.48 155.04 105.27 153.18 106.12 151.35C106.52 150.47 106.94 149.59 107.37 148.71C108.2 147.03 109.1 145.31 110.06 143.59C110.93 142.02 111.86 140.42 112.89 138.71C113.8 137.2 114.77 135.65 115.89 133.96C117.89 130.81 120.03 127.62 122.09 124.54L122.28 124.26C125.42 119.55 128.67 114.68 132.17 109.08C134.212 105.664 135.834 102.015 137 98.21C138.361 93.8986 139.436 89.5025 140.22 85.05C140.43 83.86 140.63 82.6499 140.82 81.4399C141.69 75.7499 142.32 69.44 142.68 62.78C142.93 58.18 143.06 53.35 143.05 48.42C143.05 33.42 141.86 22.25 141.85 22.13C141.551 19.3404 141.843 16.5191 142.706 13.8495C143.568 11.1799 144.983 8.72151 146.858 6.6344C148.733 4.54728 151.026 2.87799 153.588 1.73499C156.15 0.591976 158.924 0.000877301 161.73 0H529.16C531.905 3.23368e-05 534.621 0.56526 537.138 1.6604C539.656 2.75554 541.921 4.35717 543.792 6.3656C545.664 8.37403 547.101 10.7462 548.016 13.3345C548.931 15.9227 549.304 18.6717 549.11 21.41C549.11 21.66 549.11 21.92 549.04 22.17C549.04 22.17 548.95 23.07 548.95 23.1L548.78 25.1C548.78 25.1 548.71 25.96 548.7 26C548.63 26.93 548.55 27.9999 548.48 29.1799L548.39 30.54C548.27 32.54 548.17 34.61 548.08 36.64V36.71C547.96 39.78 547.88 42.86 547.85 45.88V45.99C547.85 49.5 547.85 52.99 547.95 56.37C547.955 56.4199 547.955 56.4701 547.95 56.52C548.03 59.52 548.17 62.52 548.36 65.36V65.55C548.36 66.22 548.45 66.89 548.5 67.55V67.71C548.56 68.52 548.62 69.25 548.69 69.97C550.61 92.19 555.19 103.54 558.69 109.15C562.19 114.76 565.46 119.65 568.61 124.38C582.99 145.9 594.34 162.9 594.34 201.48V584.25C594.34 614.58 587.5 631.64 576.46 649.35C575.46 650.89 574.46 652.45 573.46 654.05C572.46 655.65 571.46 657.15 570.36 658.75L567.81 662.57C566.53 664.48 565.22 666.45 563.81 668.57C561.91 671.47 560.21 674.11 558.64 676.63C558.06 677.55 557.49 678.63 556.95 679.63C556.15 681.258 555.436 682.927 554.81 684.63C554.63 685.09 554.46 685.55 554.3 686.02C553.067 689.66 552.065 693.374 551.3 697.14C551.18 697.71 551.06 698.29 550.95 698.88C550.72 700.06 550.5 701.24 550.3 702.44C550.2 703.03 550.11 703.63 550.01 704.24C549.82 705.47 549.65 706.69 549.49 707.92C549.33 709.15 549.18 710.4 549.05 711.65C548.92 712.9 548.79 714.16 548.68 715.4V715.77C548.607 716.51 548.547 717.24 548.5 717.96V718.16C548.5 718.89 548.4 719.56 548.36 720.23V720.42C548.17 723.28 548.03 726.25 547.95 729.25V729.33C547.85 732.81 547.817 736.313 547.85 739.84C547.85 742.84 547.96 745.91 548.08 748.95V749.05C548.17 751.05 548.27 753.12 548.39 755.12C548.39 755.12 548.47 756.43 548.47 756.45C548.55 757.69 548.64 758.79 548.71 759.74L548.85 761.47L549.05 763.58C549.338 766.365 549.039 769.18 548.171 771.841C547.302 774.503 545.885 776.953 544.01 779.033C542.135 781.112 539.845 782.775 537.287 783.913C534.729 785.051 531.96 785.64 529.16 785.64L161.71 785.6Z" fill="#231F20"/>
<path d="M161.71 765.6C161.71 765.6 169.05 697.82 149.11 665.92C129.17 634.02 116.5 624.06 116.5 584.18V201.41C116.5 161.54 129.18 151.57 149.11 119.68C169.04 87.7899 161.71 20 161.71 20H515.86C515.86 20 523.2 87.7799 503.26 119.68C483.32 151.58 470.65 161.54 470.65 201.41V584.18C470.65 624.06 483.33 634.02 503.26 665.92C523.19 697.82 515.86 765.6 515.86 765.6H161.71Z" fill="#71A29E"/>
<path d="M183.7 665.92C163.76 634.02 151.09 624.06 151.09 584.18V201.41C151.09 161.54 163.76 151.57 183.7 119.68C203.64 87.7899 196.3 20 196.3 20H161.71C161.71 20 169.05 87.7799 149.11 119.68C129.17 151.58 116.5 161.54 116.5 201.41V584.18C116.5 624.06 129.18 634.02 149.11 665.92C169.04 697.82 161.71 765.6 161.71 765.6H196.3C196.3 765.6 203.59 697.82 183.7 665.92Z" fill="#587B75"/>
<path d="M529.16 765.6C529.16 765.6 521.82 697.82 541.76 665.92C561.7 634.02 574.37 624.06 574.37 584.18V201.41C574.37 161.54 561.69 151.57 541.76 119.68C521.83 87.7899 529.16 20 529.16 20H175.01C175.01 20 167.67 87.7799 187.61 119.68C207.55 151.58 220.22 161.54 220.22 201.41V584.18C220.22 624.06 207.55 634.02 187.61 665.92C167.67 697.82 175.01 765.6 175.01 765.6H529.16Z" fill="#C5E6DC"/>
<path d="M574.37 323.02H220.22V462.579H574.37V323.02Z" fill="#48BEA2"/>
<path d="M401.25 541.32C483.275 541.32 549.77 474.826 549.77 392.8C549.77 310.775 483.275 244.28 401.25 244.28C319.225 244.28 252.73 310.775 252.73 392.8C252.73 474.826 319.225 541.32 401.25 541.32Z" fill="#FAF28C"/>
<path d="M529.16 20H175.01C173.409 37.1676 173.282 54.4407 174.63 71.63H528.78C527.426 54.441 527.553 37.1673 529.16 20Z" fill="#98CFC0"/>
<path d="M174.59 713.97C173.242 731.159 173.369 748.432 174.97 765.6H529.16C527.553 748.432 527.426 731.159 528.78 713.97H174.59Z" fill="#98CFC0"/>
<g style="mix-blend-mode:multiply">
<g style="mix-blend-mode:multiply">
<path d="M403.07 579.71C444.281 579.71 477.69 570.738 477.69 559.67C477.69 548.602 444.281 539.63 403.07 539.63C361.858 539.63 328.45 548.602 328.45 559.67C328.45 570.738 361.858 579.71 403.07 579.71Z" fill="#A7A9AC"/>
</g>
</g>
<path d="M493.34 231.39C492.777 230.26 492.011 229.243 491.08 228.39C494.58 221.22 492.08 216.78 490.08 214.59C489.95 214.46 489.83 214.34 489.69 214.22C487.832 212.586 485.434 211.699 482.96 211.73C480.458 211.801 478.013 212.488 475.84 213.73C474.948 212.829 473.897 212.1 472.74 211.58C471.48 211.026 470.117 210.743 468.74 210.75C466.561 210.787 464.444 211.484 462.67 212.75C462.43 212.91 462.19 213.08 461.94 213.27C461.484 213.624 461.047 214.001 460.63 214.4C460.017 214.982 459.442 215.604 458.91 216.26C458.78 216.41 458.66 216.57 458.53 216.73C457.757 216.485 456.958 216.328 456.15 216.26C455.83 216.26 455.5 216.26 455.15 216.26C454.132 216.258 453.12 216.413 452.15 216.72C451.81 216.821 451.476 216.941 451.15 217.08C449.148 217.984 447.485 219.5 446.4 221.41C446.27 221.64 446.13 221.88 446.01 222.13C445.548 223.057 445.182 224.028 444.92 225.03C444.86 225.23 444.81 225.43 444.76 225.64C443.779 226.128 442.873 226.755 442.07 227.5C441.8 227.75 441.53 228.02 441.28 228.29C440.115 229.604 439.164 231.092 438.46 232.7C438.048 233.635 437.691 234.594 437.39 235.57C437.2 236.2 437.02 236.87 436.85 237.57H436.6C435.339 237.573 434.085 237.766 432.88 238.14C431.418 238.572 430.058 239.292 428.88 240.26C428.589 240.501 428.312 240.758 428.05 241.03C427.53 241.564 427.067 242.15 426.67 242.78C426.279 243.385 425.944 244.024 425.67 244.69C425.429 245.315 425.235 245.956 425.09 246.61C424.949 247.269 424.856 247.938 424.81 248.61C424.45 249.444 424.176 250.311 423.99 251.2C423.93 251.48 423.88 251.77 423.84 252.06C423.76 252.6 423.7 253.17 423.67 253.75C423.623 254.855 423.66 255.961 423.78 257.06C423.85 257.72 423.95 258.41 424.08 259.06C423.083 259.216 422.107 259.485 421.17 259.86C419.724 260.433 418.405 261.286 417.29 262.37C416.463 263.178 415.771 264.113 415.24 265.14C414.898 265.778 414.62 266.448 414.41 267.14C414.214 267.794 414.071 268.463 413.98 269.14C413.918 269.574 413.881 270.012 413.87 270.45C412.197 270.861 410.637 271.639 409.303 272.729C407.97 273.819 406.896 275.193 406.16 276.75C406.01 277.07 405.86 277.41 405.73 277.75C405.37 278.721 405.112 279.726 404.96 280.75C404.96 281.08 404.87 281.41 404.84 281.75C404.767 282.749 404.767 283.751 404.84 284.75C404.893 285.756 405.003 286.757 405.17 287.75C405.33 288.75 405.53 289.68 405.79 290.68C404.936 290.956 404.112 291.318 403.33 291.76C401.925 292.527 400.687 293.567 399.69 294.82C398.947 295.749 398.359 296.793 397.95 297.91C397.689 298.621 397.495 299.354 397.37 300.1C397.249 300.807 397.189 301.523 397.19 302.24C397.193 303.452 397.331 304.659 397.6 305.84C395.61 307.312 394.145 309.383 393.42 311.75C393.009 313.066 392.777 314.432 392.73 315.81C392.73 316.14 392.73 316.47 392.73 316.81C392.73 317.15 392.73 317.46 392.73 317.81C392.73 318.34 392.82 318.88 392.89 319.44C392.013 320.064 391.232 320.812 390.57 321.66C390.319 321.981 390.086 322.315 389.87 322.66C389.462 323.326 389.127 324.033 388.87 324.77C388.608 325.48 388.413 326.213 388.29 326.96C388.174 327.668 388.114 328.383 388.11 329.1C388.13 331.116 388.488 333.113 389.17 335.01C389.29 335.34 389.42 335.68 389.58 336.09C389.501 336.172 389.428 336.259 389.36 336.35C389.112 336.671 388.882 337.005 388.67 337.35C388.264 338.017 387.929 338.724 387.67 339.46C387.409 340.17 387.215 340.904 387.09 341.65C386.979 342.335 386.919 343.027 386.91 343.72C385.302 345.008 384.075 346.708 383.36 348.64C383.23 349 383.11 349.36 383.01 349.74C382.735 350.795 382.597 351.88 382.6 352.97C382.596 353.639 382.64 354.307 382.73 354.97C382.959 356.612 383.385 358.221 384 359.76C384.12 360.06 384.24 360.37 384.38 360.67C386.004 364.254 388.121 367.593 390.67 370.59L391.09 371.11L392.17 372.36L392.3 372.5L392.73 372.97C393.21 373.5 393.73 374.03 394.21 374.54L394.59 374.94L394.94 375.28L395.88 376.2L395.96 376.27L396.4 376.68L397 377.24L397.28 377.48C397.52 377.71 397.77 377.93 398.03 378.15L398.31 378.39L398.7 378.72L399.39 379.3L400 379.79L400.72 380.35L401.06 380.61L401.8 381.16L402.44 381.62L402.74 381.83L403.3 382.22C401.51 392.42 399.87 403.04 398.4 413.91C393.496 401.388 386.689 389.697 378.22 379.25C367.56 366.11 357.97 359.51 357.57 359.25C356.559 358.561 355.364 358.192 354.14 358.19C353.088 358.186 352.053 358.458 351.14 358.98C350.153 359.537 349.341 360.358 348.795 361.35C348.249 362.343 347.991 363.469 348.05 364.6C350.39 408.35 383.24 444.44 393.77 454.93C392.84 465.15 392.09 474.93 391.51 483.99C385.498 469.793 377.332 456.608 367.3 444.9C354.3 429.77 342.74 422.2 342.3 421.9C341.357 421.292 340.263 420.957 339.141 420.931C338.019 420.905 336.912 421.19 335.941 421.753C334.971 422.317 334.175 423.138 333.642 424.126C333.109 425.114 332.859 426.229 332.92 427.35C333.77 442.42 338.02 458.02 345.56 473.73C359.39 502.55 380.56 524.13 389.05 532.07L389.47 531.63V531.7L389.1 532.11L389.46 532.44C389.17 545.89 389.27 553.72 389.27 553.8C389.294 555.4 389.946 556.926 391.085 558.048C392.225 559.171 393.76 559.8 395.36 559.8L410.05 559.59C410.848 559.58 411.637 559.412 412.371 559.097C413.104 558.782 413.769 558.325 414.326 557.753C414.883 557.181 415.322 556.505 415.618 555.763C415.914 555.021 416.061 554.229 416.05 553.43C416.05 553.36 415.97 546.83 416.17 535.73L417.64 534.59L417.97 534.32C418.61 533.82 419.23 533.32 419.86 532.81L420.18 532.55C420.85 532 421.52 531.45 422.18 530.9L422.58 530.56C423.91 529.44 425.23 528.29 426.51 527.13L426.86 526.82C427.49 526.25 428.11 525.67 428.72 525.1L428.92 524.92L430.66 523.27L430.87 523.06C431.48 522.48 432.08 521.89 432.67 521.3L432.91 521.06C434.1 519.87 435.28 518.65 436.42 517.43L436.6 517.24C437.767 515.993 438.913 514.727 440.04 513.44L441.7 511.52C456.432 494.328 466.79 473.829 471.89 451.77C475.56 435.39 474.7 424.25 474.66 423.77C474.563 422.574 474.114 421.434 473.37 420.493C472.627 419.551 471.621 418.851 470.48 418.48C469.869 418.282 469.232 418.181 468.59 418.18C467.715 418.181 466.851 418.37 466.056 418.734C465.26 419.098 464.553 419.629 463.98 420.29C441.49 446.37 427.29 467.69 418.34 484.44C418.96 475.04 419.7 465.707 420.56 456.44L420.78 456.26L422.18 455.16L422.88 454.6L424.23 453.5L424.83 452.99C425.46 452.47 426.08 451.93 426.68 451.41L426.83 451.28L428.5 449.8L429.1 449.24L430.26 448.16L430.91 447.54C431.29 447.18 431.66 446.83 432.02 446.46L432.6 445.9L434.14 444.34L434.5 443.96L435.72 442.67L436.2 442.15L436.33 442.01L437.23 441.01L437.86 440.29C438.15 439.97 438.42 439.65 438.7 439.29L438.86 439.11L439.3 438.59L440.3 437.36L441.08 436.36L441.13 436.3C441.383 436 441.623 435.7 441.85 435.4L442.43 434.65L442.5 434.57L443.11 433.77L443.76 432.91L444.31 432.16L444.4 432.03L444.97 431.26L445.39 430.65C445.83 430.03 446.27 429.4 446.69 428.77L447.05 428.23C447.28 427.89 447.51 427.55 447.73 427.23L448.08 426.69L448.75 425.63L449.03 425.18C449.82 423.89 450.59 422.59 451.32 421.28L451.37 421.2L452.05 419.96L452.19 419.69C452.42 419.28 452.64 418.86 452.85 418.46L452.91 418.33C453.83 416.56 454.71 414.74 455.51 412.93C465.18 391.25 463.88 373.93 463.82 373.18C463.723 371.985 463.274 370.845 462.53 369.904C461.786 368.963 460.781 368.263 459.64 367.892C458.5 367.521 457.275 367.496 456.12 367.819C454.965 368.143 453.932 368.801 453.15 369.71C443.507 380.721 434.677 392.419 426.73 404.71C427.79 397.71 428.91 390.88 430.11 384.23C430.37 384.14 430.62 384.04 430.88 383.93H431.02L432.31 383.41H432.38L433.77 382.8C434.23 382.6 434.68 382.39 435.12 382.18H435.19C436.1 381.75 437 381.29 437.91 380.8H437.96C438.87 380.31 439.76 379.8 440.62 379.28C442.555 378.116 444.409 376.823 446.17 375.41C447.219 374.57 448.221 373.672 449.17 372.72C449.65 372.24 450.1 371.72 450.52 371.26C451.834 369.764 452.917 368.078 453.73 366.26C454.278 364.958 454.616 363.578 454.73 362.17L454.79 362.1C456.104 360.604 457.186 358.918 458 357.1C459.257 354.334 459.428 351.197 458.48 348.31L458.31 347.86C458.72 347.55 459.12 347.24 459.5 346.93C460.549 346.09 461.551 345.192 462.5 344.24C462.97 343.76 463.43 343.24 463.84 342.78C465.161 341.286 466.246 339.6 467.06 337.78C468.314 335.013 468.481 331.875 467.53 328.99C467.399 328.609 467.249 328.236 467.08 327.87C466.566 326.776 465.892 325.765 465.08 324.87C464.44 324.126 463.719 323.455 462.93 322.87C463.22 322.6 463.51 322.32 463.77 322.05C464.25 321.57 464.7 321.05 465.12 320.59C466.441 319.099 467.524 317.412 468.33 315.59C468.807 314.542 469.143 313.436 469.33 312.3C473.26 308.23 474.24 303.09 471.95 298.3C471.88 298.16 471.81 298.02 471.73 297.88C472.73 297.25 473.65 296.59 474.49 295.88C475 295.48 475.49 295.07 475.94 294.67C477.378 293.399 478.612 291.915 479.6 290.27C481.146 287.761 481.692 284.763 481.13 281.87C481.05 281.485 480.95 281.105 480.83 280.73C480.466 279.626 479.947 278.579 479.29 277.62L479.08 277.33C479.5 277.08 479.91 276.83 480.29 276.57C480.67 276.31 481.29 275.89 481.76 275.57C483.234 274.469 484.532 273.151 485.61 271.66C487.299 269.355 488.063 266.501 487.75 263.66C487.75 263.28 487.63 262.9 487.55 262.53C487.354 261.693 487.062 260.881 486.68 260.11C486.815 259.37 486.815 258.611 486.68 257.87C486.61 257.46 486.53 257.04 486.44 256.64C486.57 256.51 486.7 256.38 486.82 256.24C487.768 255.172 488.473 253.91 488.886 252.543C489.298 251.175 489.409 249.735 489.21 248.32C489.104 247.515 488.913 246.724 488.64 245.96L489.1 245.56C496.12 239.25 494.39 233.56 493.34 231.39Z" fill="#231F20"/>
<path d="M339.01 426.97C350.46 444.23 396.43 530.5 396.43 530.5C391.59 460.94 339.01 426.97 339.01 426.97Z" fill="#66BE64"/>
<path d="M339.01 426.97C342.24 484.4 396.43 530.5 396.43 530.5C396.43 530.5 350.46 444.23 339.01 426.97Z" fill="#4CA84E"/>
<g style="mix-blend-mode:multiply">
<path d="M396.43 530.49C395.873 522.376 394.611 514.325 392.66 506.43C371.91 505.12 351.15 471.19 351.06 471.05C367.95 506.26 396.43 530.49 396.43 530.49Z" fill="#4CA84E"/>
</g>
<path d="M354.19 364.26C363.53 379.12 401.03 453.38 401.03 453.38C397.07 393.49 354.19 364.26 354.19 364.26Z" fill="#66BE64"/>
<path d="M354.19 364.26C356.83 413.69 401.03 453.38 401.03 453.38C401.03 453.38 363.53 379.12 354.19 364.26Z" fill="#4CA84E"/>
<g style="mix-blend-mode:multiply">
<path d="M401.03 453.38C400.572 446.404 399.542 439.477 397.95 432.67C381.03 431.54 364.09 402.34 364.02 402.21C377.8 432.49 401.03 453.38 401.03 453.38Z" fill="#4CA84E"/>
</g>
<path d="M409.29 533.27C409.29 533.27 462.1 446.37 468.62 424.2C403.92 499.21 409.29 533.27 409.29 533.27Z" fill="#66BE64"/>
<path d="M468.59 424.2C462.07 446.37 409.26 533.27 409.26 533.27C473.72 485.81 468.59 424.2 468.59 424.2Z" fill="#4CA84E"/>
<g style="mix-blend-mode:multiply">
<path d="M412.53 513.13C408.26 526.75 409.29 533.27 409.29 533.27C435 514.33 449.63 493.15 457.94 474.51C418.79 523.16 412.53 513.13 412.53 513.13Z" fill="#4CA84E"/>
</g>
<path d="M414.49 453.38C414.49 453.38 453.08 389.87 457.85 373.67C410.59 428.49 414.49 453.38 414.49 453.38Z" fill="#66BE64"/>
<path d="M457.85 373.67C453.08 389.87 414.49 453.38 414.49 453.38C461.59 418.7 457.85 373.67 457.85 373.67Z" fill="#4CA84E"/>
<g style="mix-blend-mode:multiply">
<path d="M416.85 438.66C413.74 448.61 414.49 453.38 414.49 453.38C433.27 439.54 443.97 424.049 450.04 410.439C421.43 445.989 416.85 438.66 416.85 438.66Z" fill="#4CA84E"/>
</g>
<path d="M453.487 397.609C454.672 395.557 454.744 393.381 453.649 392.749C452.554 392.116 450.705 393.267 449.521 395.319C448.336 397.371 448.264 399.547 449.359 400.179C450.454 400.812 452.302 399.661 453.487 397.609Z" fill="#F6FAFE"/>
<path d="M449.9 403.83C450.679 403.83 451.31 403.198 451.31 402.42C451.31 401.641 450.679 401.01 449.9 401.01C449.121 401.01 448.49 401.641 448.49 402.42C448.49 403.198 449.121 403.83 449.9 403.83Z" fill="#F6FAFE"/>
<path d="M463.101 455.327C464.491 452.398 464.351 449.423 462.789 448.682C461.228 447.941 458.835 449.715 457.445 452.644C456.056 455.573 456.196 458.548 457.757 459.289C459.319 460.03 461.712 458.256 463.101 455.327Z" fill="#F6FAFE"/>
<path d="M452.89 350.06C452.83 349.883 452.76 349.709 452.68 349.54C452.421 348.989 452.084 348.477 451.68 348.02C449.48 345.54 446.6 345.18 443.45 346.13L444.13 344.8C444.47 344.11 444.8 343.43 445.13 342.8C445.35 342.32 445.55 341.8 445.75 341.38C447 338.591 447.738 335.601 447.93 332.55C447.93 329.75 447.09 327.55 444.93 326.34C441.54 324.4 438.16 326.23 435 330.07C435 329.8 435.07 329.53 435.11 329.26V328.97C435.163 328.63 435.203 328.297 435.23 327.97V327.66C435.23 327.3 435.31 326.94 435.34 326.58C435.34 326.52 435.34 326.46 435.34 326.4L435.43 325.19V325.12C435.43 324.79 435.43 324.47 435.48 324.12C435.48 323.43 435.48 322.76 435.48 322.12C435.48 321.79 435.48 321.46 435.48 321.12C435.48 320.48 435.41 319.85 435.35 319.24C435.275 318.374 435.148 317.512 434.97 316.66C434.85 316.12 434.72 315.6 434.57 315.11C434.424 314.634 434.251 314.166 434.05 313.71C433.704 312.886 433.228 312.123 432.64 311.45C432.37 311.14 432.069 310.858 431.74 310.61C431.083 310.117 430.325 309.776 429.52 309.61C424.65 309 421.05 314.54 418.81 322.27C418.69 322.65 418.59 323.05 418.48 323.45C418.48 323.55 418.43 323.66 418.4 323.76C418.32 324.06 418.25 324.36 418.18 324.66C418.18 324.8 418.11 324.94 418.08 325.07C418.01 325.36 417.95 325.65 417.88 325.94C417.88 326.07 417.83 326.2 417.8 326.34C417.77 326.48 417.69 326.84 417.64 327.09C415.93 322.43 413.34 319.59 409.5 320.29C408.774 320.424 408.082 320.7 407.464 321.103C406.846 321.507 406.314 322.029 405.9 322.64C405.771 322.821 405.651 323.008 405.54 323.2C404.927 324.292 404.488 325.473 404.24 326.7C404.062 327.555 403.935 328.42 403.86 329.29C403.77 330.2 403.74 331.17 403.74 332.17C403.74 332.82 403.74 333.49 403.74 334.17C403.74 334.56 403.79 334.96 403.82 335.36C403.9 336.41 404.02 337.48 404.17 338.57C404.17 338.88 404.25 339.19 404.3 339.49C401.64 337.55 398.8 336.95 395.91 338.56C395.201 338.935 394.578 339.452 394.08 340.08C393.959 340.22 393.852 340.37 393.76 340.53C393.56 340.844 393.396 341.18 393.27 341.53C393.144 341.881 393.05 342.243 392.99 342.61C392.931 342.994 392.897 343.382 392.89 343.77C392.918 345.102 393.169 346.42 393.63 347.67C393.73 347.97 393.84 348.27 393.97 348.58C394.1 348.89 394.24 349.24 394.4 349.58C394.56 349.92 394.82 350.47 395.06 350.92C395.3 351.37 395.73 352.13 396.06 352.74C396.27 353.09 396.5 353.44 396.73 353.74C397.6 355.049 398.538 356.31 399.54 357.52C400.11 358.22 400.71 358.91 401.33 359.59L401.39 359.66C401.83 360.14 402.28 360.66 402.74 361.08L402.85 361.2L403.08 361.43L403.27 361.62L403.38 361.73L404.25 362.58L404.31 362.64L404.43 362.75L404.71 363.01L404.92 363.2L405.31 363.56L405.5 363.73L405.98 364.16L406.18 364.33L406.43 364.55L406.79 364.85L407.07 365.09L407.41 365.37L407.95 365.81L408.26 366.05L408.59 366.31L408.9 366.54L409.27 366.82L409.56 367.04L410.11 367.43L410.38 367.61L410.76 367.88L411.02 368.05L411.56 368.41L411.76 368.53L412.25 368.84L412.48 368.97L412.91 369.23L413.11 369.34L413.7 369.67L413.87 369.76L414.32 369.99L414.43 370.05H414.52L415 370.28L415.13 370.34L415.71 370.59L415.87 370.66L416.31 370.83L416.47 370.89L417.04 371.09L417.57 371.25H417.71L418.13 371.32H418.2H418.29L418.8 371.41L419.16 371.46H419.3H419.41H419.48L419.9 371.53H420.28C420.51 371.53 420.74 371.53 420.98 371.53H421.17H422.07H422.25H422.59H422.86H423.04H423.27L424.27 371.39H424.38L425.31 371.23H425.55C425.82 371.17 426.1 371.12 426.37 371.05L426.88 370.93L427.73 370.72L427.96 370.66L428.78 370.42L429.45 370.22L430.25 369.96L430.44 369.9H430.58L431.11 369.72L431.57 369.55L432.79 369.09H432.91C433.297 368.944 433.687 368.784 434.08 368.61H434.14L434.53 368.44L435.4 368.06C435.82 367.88 436.23 367.69 436.64 367.49C437.48 367.1 438.3 366.67 439.12 366.24C439.68 365.93 440.24 365.62 440.78 365.3L441.45 364.91H441.53C442.39 364.39 443.23 363.85 444.03 363.29L444.48 362.98C445.15 362.5 445.8 361.98 446.42 361.51C447.289 360.812 448.117 360.064 448.9 359.27C449.28 358.89 449.63 358.51 449.96 358.13C451.035 357.074 451.924 355.843 452.59 354.49C453.253 353.106 453.36 351.521 452.89 350.06Z" fill="#683992"/>
<path d="M461.94 330.72C461.88 330.543 461.81 330.369 461.73 330.2C461.467 329.651 461.131 329.139 460.73 328.68C458.52 326.2 455.65 325.841 452.49 326.791C452.73 326.341 452.95 325.9 453.18 325.46C453.52 324.77 453.84 324.09 454.18 323.46C454.39 322.98 454.6 322.461 454.79 322.041C456.044 319.253 456.783 316.261 456.97 313.21C456.97 310.41 456.14 308.21 453.97 307C450.58 305.06 447.2 306.89 444.03 310.73C444.03 310.46 444.11 310.191 444.14 309.921C444.145 309.824 444.145 309.727 444.14 309.63L444.26 308.63V308.32C444.26 307.96 444.33 307.6 444.36 307.24C444.36 307.18 444.36 307.12 444.36 307.06C444.36 306.66 444.42 306.25 444.44 305.85C444.435 305.827 444.435 305.804 444.44 305.78C444.44 305.45 444.44 305.13 444.44 304.78C444.44 304.09 444.44 303.42 444.44 302.78C444.44 302.45 444.44 302.12 444.44 301.78C444.44 301.14 444.38 300.51 444.32 299.9C444.237 299.034 444.106 298.173 443.93 297.32C443.826 296.797 443.693 296.279 443.53 295.77C443.387 295.294 443.217 294.827 443.02 294.37C442.667 293.55 442.191 292.788 441.61 292.11C441.34 291.8 441.038 291.518 440.71 291.27C440.049 290.777 439.288 290.436 438.48 290.27C433.62 289.66 430.02 295.2 427.78 302.93C427.67 303.31 427.56 303.71 427.46 304.11C427.46 304.21 427.4 304.321 427.38 304.421C427.3 304.721 427.22 305.02 427.15 305.32C427.15 305.46 427.09 305.6 427.05 305.73C426.99 306.02 426.92 306.31 426.86 306.6L426.77 307L426.62 307.75C424.91 303.09 422.32 300.25 418.48 300.95C417.753 301.082 417.061 301.358 416.442 301.761C415.824 302.165 415.293 302.688 414.88 303.301C414.75 303.481 414.63 303.67 414.51 303.86C413.9 304.953 413.465 306.134 413.22 307.36C413.039 308.215 412.908 309.08 412.83 309.95C412.75 310.86 412.71 311.83 412.71 312.83C412.71 313.48 412.71 314.15 412.77 314.83C412.77 315.22 412.77 315.62 412.85 316.02C412.93 317.02 413.04 318.14 413.19 319.23C413.19 319.54 413.28 319.85 413.33 320.15C410.66 318.21 407.83 317.61 404.93 319.22C404.223 319.598 403.6 320.115 403.1 320.74C402.985 320.885 402.878 321.035 402.78 321.19C402.589 321.508 402.428 321.843 402.3 322.19C402.169 322.54 402.075 322.902 402.02 323.27C401.951 323.653 401.917 324.041 401.92 324.43C401.94 325.762 402.187 327.081 402.65 328.33C402.75 328.63 402.87 328.93 402.99 329.24C403.11 329.55 403.27 329.9 403.42 330.24C403.57 330.58 403.85 331.13 404.09 331.58C404.41 332.18 404.75 332.79 405.09 333.4C405.31 333.75 405.53 334.1 405.76 334.4C406.6 335.67 407.55 336.93 408.57 338.18C409.15 338.847 409.75 339.537 410.37 340.25L410.43 340.32C410.87 340.8 411.32 341.32 411.78 341.74L411.89 341.86L412.12 342.09L412.31 342.28L412.43 342.39C412.71 342.68 413 342.96 413.3 343.24L413.36 343.301L413.47 343.41L413.76 343.671L413.96 343.86L414.35 344.22L414.55 344.39L415.03 344.82L415.22 344.99L415.48 345.21L415.83 345.51L416.12 345.75L416.45 346.03L417 346.47L417.31 346.71L417.64 346.97C417.739 347.053 417.842 347.129 417.95 347.2L418.32 347.48L418.61 347.7L419.16 348.09L419.42 348.27L419.81 348.541L420.07 348.71L420.61 349.07L420.8 349.19L421.29 349.5L421.52 349.63L421.96 349.89L422.15 350L422.75 350.33L422.91 350.421L423.37 350.65L423.47 350.71H423.57L424.05 350.94L424.17 351L424.75 351.25L424.92 351.32L425.35 351.49L425.52 351.551L426.08 351.75L426.6 351.91H426.74L427.16 351.98H427.24H427.32L427.84 352.07H428.21H428.35H428.45H428.52L428.95 352.14H429.13H429.33C429.56 352.14 429.79 352.14 430.03 352.14H430.22H431.11H431.29H431.64H431.9H432.09H432.32L433.32 352H433.44L434.37 351.84H434.61L435.43 351.66L435.93 351.541L436.78 351.33L437.01 351.27L437.83 351.03L438.51 350.83L439.31 350.57L439.5 350.51H439.63L440.17 350.33L440.63 350.16L441.86 349.7H441.98L443.14 349.22H443.21L443.6 349.051L444.46 348.671L445.69 348.1H445.75C446.58 347.71 447.41 347.28 448.22 346.85L449.88 345.91L450.54 345.52H450.62C451.48 345 452.32 344.46 453.12 343.9L453.56 343.59C454.24 343.11 454.89 342.59 455.5 342.12C456.372 341.423 457.204 340.675 457.99 339.88C458.36 339.5 458.72 339.12 458.99 338.74C459.908 337.715 460.664 336.555 461.23 335.301C462.062 333.927 462.317 332.281 461.94 330.72Z" fill="#683992"/>
<path d="M454.14 335.39C454.07 335.21 454 335.04 453.92 334.86C453.665 334.309 453.328 333.799 452.92 333.35C450.72 330.87 447.84 330.5 444.69 331.45C444.92 331.01 445.15 330.57 445.37 330.13C445.72 329.44 446.04 328.76 446.37 328.08C446.59 327.6 446.8 327.13 446.99 326.65C448.241 323.864 448.979 320.877 449.17 317.83C449.17 315.03 448.34 312.83 446.22 311.62C442.82 309.68 439.44 311.51 436.28 315.34C436.28 315.07 436.36 314.8 436.39 314.53C436.39 314.44 436.39 314.35 436.39 314.25C436.39 313.91 436.47 313.57 436.5 313.25C436.5 313.15 436.5 313.04 436.5 312.94C436.5 312.58 436.57 312.22 436.6 311.86C436.6 311.8 436.6 311.74 436.6 311.68C436.6 311.27 436.67 310.87 436.69 310.47V310.4C436.69 310.08 436.69 309.76 436.74 309.4C436.74 308.71 436.74 308.03 436.74 307.4C436.74 307.07 436.74 306.75 436.74 306.4C436.74 305.75 436.68 305.13 436.62 304.52C436.536 303.65 436.406 302.785 436.23 301.93C436.12 301.39 435.98 300.93 435.83 300.38C435.687 299.905 435.513 299.441 435.31 298.99C434.964 298.163 434.488 297.396 433.9 296.72C433.632 296.41 433.33 296.132 433 295.89C432.344 295.395 431.585 295.054 430.78 294.89C425.91 294.28 422.31 299.82 420.08 307.56L419.75 308.75C419.75 308.85 419.7 308.95 419.67 309.06C419.6 309.36 419.52 309.66 419.45 309.96C419.45 310.1 419.38 310.23 419.35 310.37C419.32 310.51 419.22 310.95 419.16 311.24L419.07 311.63L418.92 312.39C417.2 307.72 414.62 304.88 410.77 305.59C410.044 305.722 409.351 305.998 408.733 306.401C408.115 306.805 407.583 307.328 407.17 307.94L406.81 308.5C406.2 309.592 405.765 310.773 405.52 312C405.333 312.853 405.203 313.719 405.13 314.59C405.05 315.503 405.01 316.463 405.01 317.47C405.01 318.12 405.01 318.79 405.07 319.47C405.07 319.86 405.07 320.26 405.14 320.66C405.23 321.66 405.34 322.78 405.49 323.87C405.49 324.17 405.58 324.48 405.62 324.79C402.96 322.85 400.13 322.24 397.23 323.85C396.527 324.233 395.906 324.749 395.4 325.37C395.28 325.52 395.18 325.67 395.08 325.82C394.88 326.132 394.718 326.468 394.6 326.82C394.472 327.167 394.375 327.525 394.31 327.89C394.249 328.277 394.219 328.668 394.22 329.06C394.241 330.391 394.488 331.71 394.95 332.96C395.05 333.26 395.17 333.56 395.29 333.86C395.41 334.16 395.57 334.53 395.72 334.86C395.87 335.19 396.15 335.75 396.38 336.2C396.61 336.65 397.05 337.41 397.38 338.02C397.59 338.37 397.82 338.71 398.05 339.02C398.922 340.326 399.86 341.588 400.86 342.8C401.44 343.5 402.04 344.2 402.66 344.88L402.72 344.95C403.16 345.43 403.61 345.95 404.06 346.37L404.17 346.49L404.4 346.72L404.59 346.91L404.7 347.02L405.57 347.87H405.64L405.75 347.98L406.04 348.25L406.24 348.44L406.63 348.8L406.82 348.97L407.31 349.4L407.5 349.57L407.76 349.79L408.11 350.09L408.39 350.33L408.73 350.61L409.28 351.05L409.58 351.29L409.92 351.55L410.22 351.78L410.6 352.06L410.89 352.27L411.43 352.67L411.7 352.85L412.09 353.12L412.34 353.29L412.88 353.64L413.08 353.77L413.57 354.07L413.8 354.21L414.23 354.47L414.43 354.58L415.03 354.91L415.19 354.99C415.34 355.08 415.49 355.15 415.65 355.23L415.75 355.28H415.85L416.33 355.51L416.45 355.57L417.03 355.82L417.19 355.89L417.63 356.06L417.8 356.12L418.36 356.31L418.88 356.47H419.02L419.44 356.54H419.51H419.6L420.11 356.63L420.47 356.69H420.61H420.72H420.79C420.927 356.728 421.068 356.751 421.21 356.76H421.58H422.28H422.48H423.37H423.55H423.89H424.16H424.35H424.57C424.9 356.76 425.23 356.68 425.57 356.63H425.69L426.62 356.46H426.86L427.68 356.28L428.18 356.16L429.03 355.94L429.26 355.88L430.08 355.65L430.75 355.45L431.55 355.19L431.74 355.13H431.88L432.42 354.94L432.87 354.78L434.09 354.31H434.21L435.38 353.83H435.44L435.84 353.66L436.7 353.28C437.11 353.1 437.52 352.9 437.93 352.71C438.77 352.31 439.6 351.89 440.41 351.45C440.97 351.15 441.52 350.84 442.06 350.52L442.73 350.13H442.81C443.68 349.61 444.51 349.06 445.31 348.51L445.76 348.2C446.43 347.72 447.08 347.2 447.7 346.73C448.57 346.029 449.402 345.281 450.19 344.49C450.557 344.11 450.89 343.73 451.19 343.35C452.105 342.318 452.86 341.155 453.43 339.9C454.246 338.546 454.5 336.928 454.14 335.39Z" fill="#683992"/>
<path d="M463.23 308.56C463.17 308.383 463.1 308.209 463.02 308.04C462.765 307.486 462.428 306.974 462.02 306.52C459.82 304.04 456.94 303.68 453.79 304.63L454.47 303.3C454.82 302.61 455.14 301.93 455.47 301.3C455.69 300.82 455.9 300.3 456.09 299.88C457.34 297.091 458.078 294.101 458.27 291.05C458.27 288.25 457.43 286.05 455.32 284.84C451.92 282.9 448.54 284.73 445.38 288.57C445.38 288.3 445.46 288.03 445.49 287.76C445.485 287.664 445.485 287.567 445.49 287.47C445.49 287.13 445.57 286.79 445.6 286.47C445.606 286.367 445.606 286.264 445.6 286.16C445.6 285.8 445.67 285.44 445.7 285.08C445.7 285.02 445.7 284.96 445.7 284.9C445.7 284.5 445.77 284.09 445.79 283.69V283.62C445.79 283.29 445.79 282.97 445.79 282.62C445.79 281.93 445.79 281.26 445.79 280.62C445.79 280.29 445.79 279.96 445.79 279.62C445.79 278.98 445.73 278.35 445.67 277.74C445.587 276.874 445.456 276.013 445.28 275.16C445.17 274.62 445.03 274.1 444.88 273.61C444.739 273.132 444.565 272.665 444.36 272.21C444.014 271.386 443.538 270.623 442.95 269.95C442.685 269.635 442.383 269.353 442.05 269.11C441.394 268.615 440.635 268.274 439.83 268.11C434.96 267.5 431.36 273.04 429.13 280.77C429.02 281.15 428.91 281.55 428.8 281.95C428.8 282.05 428.8 282.16 428.72 282.26C428.65 282.56 428.57 282.86 428.5 283.16C428.5 283.3 428.43 283.44 428.4 283.57C428.33 283.86 428.27 284.15 428.21 284.44L428.12 284.84L427.97 285.59C426.25 280.93 423.67 278.09 419.82 278.79C419.094 278.925 418.403 279.201 417.785 279.605C417.167 280.008 416.635 280.53 416.22 281.14C416.1 281.32 415.97 281.51 415.86 281.7C415.25 282.793 414.815 283.974 414.57 285.2C414.384 286.054 414.254 286.919 414.18 287.79C414.1 288.7 414.06 289.67 414.06 290.67C414.06 291.32 414.06 291.99 414.12 292.67C414.12 293.06 414.12 293.46 414.19 293.86C414.28 294.91 414.39 295.98 414.54 297.07C414.54 297.38 414.63 297.69 414.67 297.99C412.01 296.05 409.18 295.45 406.28 297.06C405.571 297.435 404.948 297.952 404.45 298.58C404.332 298.722 404.225 298.873 404.13 299.03C403.929 299.342 403.768 299.678 403.65 300.03C403.521 300.381 403.424 300.742 403.36 301.11C403.299 301.494 403.269 301.882 403.27 302.27C403.291 303.602 403.537 304.921 404 306.17C404.1 306.47 404.22 306.77 404.34 307.08C404.46 307.39 404.62 307.74 404.77 308.08C404.92 308.42 405.19 308.97 405.43 309.42C405.67 309.87 406.1 310.63 406.48 311.24C406.69 311.59 406.92 311.94 407.15 312.24C408.02 313.549 408.958 314.81 409.96 316.02C410.53 316.72 411.14 317.41 411.76 318.09L411.82 318.16C412.26 318.64 412.71 319.16 413.16 319.58L413.27 319.7L413.5 319.93L413.69 320.12L413.8 320.23L414.67 321.08L414.74 321.14L414.85 321.25L415.14 321.51C415.202 321.579 415.269 321.642 415.34 321.7L415.73 322.06L415.92 322.23L416.41 322.66L416.6 322.83L416.86 323.05L417.21 323.35L417.49 323.59L417.83 323.87L418.38 324.31L418.68 324.55L419.02 324.81L419.32 325.04L419.7 325.32L419.99 325.54L420.53 325.93L420.8 326.11L421.19 326.38L421.44 326.55L421.98 326.91L422.18 327.03L422.67 327.34L422.9 327.47L423.33 327.73L423.53 327.84L424.13 328.17L424.29 328.26L424.75 328.49L424.85 328.55H424.94L425.43 328.78L425.55 328.84L426.13 329.09L426.29 329.16L426.73 329.33L426.9 329.39L427.46 329.59L427.98 329.75H428.12L428.54 329.82H428.61H428.7L429.21 329.91L429.57 329.96H429.71H429.82H429.89L430.31 330.03H430.68C430.91 330.03 431.14 330.03 431.38 330.03H431.58H432.47H432.65H432.99H433.26H433.45H433.67L434.67 329.89H434.78L435.72 329.73H435.95L436.78 329.55L437.28 329.43L438.13 329.22L438.36 329.16L439.18 328.92L439.85 328.72L440.65 328.46L440.84 328.4H440.98L441.52 328.22L441.97 328.05H442.02L443.24 327.59H443.36C443.753 327.444 444.143 327.284 444.53 327.11H444.59L444.99 326.94L445.85 326.56L447.08 325.99H447.13C447.97 325.6 448.8 325.17 449.61 324.74C450.17 324.43 450.72 324.12 451.26 323.8L451.93 323.41H452.01C452.88 322.89 453.71 322.35 454.51 321.79L454.96 321.48C455.63 321 456.28 320.48 456.9 320.01C457.77 319.31 458.602 318.562 459.39 317.77C459.763 317.39 460.113 317.01 460.44 316.63C461.355 315.603 462.11 314.443 462.68 313.19C463.072 312.493 463.322 311.725 463.417 310.93C463.511 310.136 463.448 309.33 463.23 308.56Z" fill="#683992"/>
<path d="M475.3 282.95C475.264 282.774 475.217 282.6 475.16 282.43C474.984 281.885 474.728 281.369 474.4 280.9C472.63 278.32 469.99 277.64 466.94 278.16L467.73 277C468.13 276.4 468.52 275.8 468.88 275.2C469.14 274.78 469.39 274.36 469.62 273.94C471.121 271.481 472.164 268.771 472.7 265.94C473.08 263.33 472.51 261.18 470.7 259.8C467.76 257.58 464.39 258.89 460.98 262.1C461.05 261.85 461.12 261.6 461.18 261.35C461.18 261.27 461.18 261.18 461.25 261.09C461.33 260.78 461.4 260.47 461.48 260.16C461.48 260.06 461.48 259.97 461.55 259.87C461.62 259.54 461.7 259.2 461.77 258.87V258.71C461.85 258.33 461.93 257.96 462 257.59V257.52C462.05 257.22 462.11 256.92 462.16 256.62C462.26 255.98 462.35 255.35 462.42 254.73C462.42 254.42 462.49 254.12 462.51 253.82C462.57 253.21 462.6 252.63 462.62 252.05C462.646 251.23 462.626 250.408 462.56 249.59C462.56 249.07 462.46 248.59 462.38 248.1C462.298 247.638 462.191 247.181 462.06 246.73C461.842 245.925 461.505 245.156 461.06 244.45C460.841 244.132 460.593 243.834 460.32 243.56C459.752 243.015 459.068 242.605 458.32 242.36C453.85 241.21 449.83 245.96 446.83 252.91C446.68 253.26 446.53 253.61 446.39 253.97L446.27 254.25C446.17 254.52 446.06 254.79 445.96 255.07C445.96 255.19 445.86 255.32 445.82 255.44C445.78 255.56 445.63 255.96 445.53 256.23L445.41 256.59L445.17 257.27C444.12 252.72 442.05 249.76 438.38 249.96C437.686 249.996 437.006 250.172 436.38 250.476C435.755 250.78 435.197 251.206 434.74 251.73C434.6 251.88 434.46 252.04 434.33 252.21C433.629 253.158 433.082 254.211 432.71 255.33C432.44 256.103 432.216 256.891 432.04 257.69C431.86 258.54 431.71 259.43 431.59 260.37C431.51 260.98 431.45 261.61 431.4 262.25C431.4 262.61 431.4 262.99 431.34 263.36C431.34 264.36 431.27 265.36 431.28 266.36C431.28 266.65 431.28 266.95 431.28 267.24C429.02 265.11 426.44 264.24 423.55 265.37C422.847 265.641 422.204 266.049 421.66 266.57C421.54 266.7 421.42 266.82 421.31 266.96C421.088 267.224 420.897 267.513 420.74 267.82C420.576 268.139 420.445 268.474 420.35 268.82C420.246 269.17 420.17 269.528 420.12 269.89C419.985 271.137 420.059 272.398 420.34 273.62C420.4 273.91 420.48 274.21 420.55 274.51C420.62 274.81 420.73 275.16 420.84 275.51C420.95 275.86 421.13 276.39 421.3 276.84C421.47 277.29 421.78 278.05 422.06 278.66C422.22 279.01 422.39 279.36 422.56 279.66C423.222 280.982 423.949 282.271 424.74 283.52C425.2 284.24 425.68 284.96 426.18 285.67V285.74C426.53 286.24 426.89 286.74 427.26 287.23L427.35 287.35C427.419 287.429 427.482 287.513 427.54 287.6L427.69 287.8L427.78 287.92L428.5 288.81V288.87L428.59 288.99L428.83 289.27C428.881 289.341 428.938 289.408 429 289.47C429.1 289.6 429.21 289.73 429.32 289.85C429.43 289.97 429.42 289.98 429.48 290.04C429.54 290.1 429.74 290.35 429.88 290.5L430.04 290.68L430.25 290.91L430.54 291.24L430.78 291.49L431.06 291.79L431.52 292.27L431.78 292.53L432.06 292.81L432.32 293.07L432.63 293.37L432.88 293.6L433.34 294.04L433.57 294.24L433.9 294.53L434.12 294.72L434.58 295.12L434.75 295.26L435.17 295.6L435.37 295.76L435.74 296.05L435.92 296.18L436.43 296.55L436.57 296.65L436.97 296.93L437.06 296.99H437.15L437.57 297.26L437.68 297.33L438.19 297.64L438.33 297.72L438.72 297.93L438.87 298.01L439.37 298.25L439.84 298.45H439.96C440.086 298.502 440.217 298.542 440.35 298.57H440.41H440.49C440.644 298.629 440.801 298.679 440.96 298.72L441.29 298.82H441.42H441.52H441.58L441.97 298.94H442.14H442.32L442.97 299.04H443.15L443.99 299.11H444.15H444.48H446.17H447.06H447.29L448.07 299.04H448.56L449.38 298.94H449.6L450.39 298.82L451.05 298.71L451.83 298.56H452.01H452.14L452.67 298.45L453.11 298.35L454.31 298.07H454.43L455.57 297.76H455.63L456.01 297.65L456.87 297.4L458.09 297.01H458.15C458.97 296.74 459.79 296.44 460.6 296.13C461.16 295.92 461.71 295.69 462.26 295.46L462.93 295.17H463.01C463.88 294.78 464.72 294.37 465.54 293.95L465.99 293.71C466.68 293.34 467.34 292.96 467.99 292.57C468.881 292.019 469.742 291.422 470.57 290.78C470.97 290.47 471.34 290.15 471.69 289.78C472.674 288.916 473.518 287.904 474.19 286.78C475.006 285.677 475.4 284.318 475.3 282.95Z" fill="#683992"/>
<path d="M481.84 264.19C481.82 264.025 481.79 263.861 481.75 263.7C481.627 263.176 481.425 262.673 481.15 262.21C479.7 259.66 477.28 258.82 474.37 259.06C474.663 258.72 474.943 258.387 475.21 258.06C475.63 257.52 476.03 256.99 476.42 256.46C476.69 256.09 476.96 255.72 477.21 255.34C478.806 253.159 479.992 250.706 480.71 248.1C481.26 245.69 480.9 243.63 479.29 242.19C476.71 239.89 473.45 240.86 470.01 243.6C470.09 243.37 470.18 243.14 470.25 242.92L470.34 242.68C470.44 242.39 470.53 242.1 470.63 241.82C470.651 241.732 470.677 241.645 470.71 241.56C470.81 241.25 470.9 240.94 471 240.64C471 240.59 471 240.54 471 240.49L471.3 239.49V239.42C471.38 239.14 471.45 238.87 471.52 238.59C471.67 238 471.8 237.42 471.91 236.84C471.97 236.56 472.02 236.27 472.07 235.99C472.17 235.43 472.24 234.88 472.3 234.35C472.389 233.583 472.436 232.812 472.44 232.04C472.44 231.55 472.44 231.04 472.38 230.62C472.338 230.184 472.275 229.75 472.19 229.32C472.036 228.546 471.763 227.8 471.38 227.11C471.205 226.79 470.993 226.491 470.75 226.22C470.274 225.669 469.684 225.229 469.02 224.93C464.91 223.52 460.79 227.65 457.44 233.93C457.27 234.25 457.1 234.57 456.94 234.93L456.81 235.19L456.45 235.93L456.3 236.27C456.18 236.5 456.08 236.74 455.97 236.98L455.82 237.31L455.55 237.93C454.92 233.58 453.2 230.65 449.74 230.56C449.088 230.542 448.438 230.655 447.83 230.892C447.223 231.129 446.668 231.485 446.2 231.94L445.78 232.36C445.052 233.193 444.458 234.134 444.02 235.15C443.714 235.858 443.447 236.582 443.22 237.32C442.98 238.1 442.77 238.92 442.59 239.79C442.47 240.36 442.36 240.94 442.27 241.53C442.22 241.88 442.17 242.22 442.12 242.53C442 243.44 441.9 244.39 441.83 245.37C441.83 245.64 441.83 245.91 441.83 246.19C439.83 244.02 437.54 242.98 434.73 243.85C434.048 244.051 433.414 244.392 432.87 244.85C432.746 244.952 432.629 245.062 432.52 245.18C432.292 245.41 432.091 245.665 431.92 245.94C431.746 246.219 431.598 246.513 431.48 246.82C431.351 247.144 431.251 247.478 431.18 247.82C430.96 248.978 430.933 250.163 431.1 251.33C431.1 251.61 431.18 251.89 431.23 252.18C431.28 252.47 431.35 252.8 431.42 253.12C431.49 253.44 431.63 253.96 431.75 254.39C431.92 254.98 432.11 255.56 432.32 256.16L432.71 257.16C433.21 258.4 433.8 259.67 434.46 260.94C434.83 261.66 435.22 262.37 435.64 263.07V263.14C435.93 263.64 436.23 264.14 436.54 264.62L436.62 264.74L436.77 264.98L436.9 265.18L436.97 265.3L437.57 266.19V266.25C437.6 266.288 437.627 266.328 437.65 266.37C437.722 266.459 437.789 266.553 437.85 266.65L438 266.85L438.27 267.23L438.4 267.41L438.74 267.87L438.88 268.06L439.06 268.29L439.31 268.62L439.51 268.87L439.75 269.18L440.15 269.66C440.218 269.751 440.291 269.838 440.37 269.92L440.61 270.21L440.83 270.47L441.1 270.78L441.32 271.02L441.72 271.46L441.91 271.66C442.01 271.76 442.1 271.87 442.2 271.96L442.39 272.16L442.79 272.57L442.94 272.71L443.31 273.06L443.48 273.22L443.81 273.52L443.96 273.66L444.42 274.05L444.54 274.16L444.89 274.44L444.98 274.51L445.05 274.57L445.42 274.85L445.52 274.92C445.67 275.04 445.82 275.14 445.98 275.25L446.1 275.34L446.45 275.56L446.59 275.65L447.04 275.92L447.46 276.15L447.58 276.21C447.692 276.267 447.809 276.314 447.93 276.35H448H448.07L448.49 276.52L448.79 276.64H448.91H449H449.05L449.41 276.78H449.56H449.73L450.33 276.92H450.5L451.28 277.05H451.43H451.74H451.97H452.14H452.34C452.63 277.05 452.92 277.05 453.22 277.11H453.32H454.16H455.57H456.35H456.56H457.31L457.93 277.05L458.67 276.98H458.85H458.97L459.47 276.92L459.89 276.86H459.94L461.08 276.68H461.19C461.56 276.62 461.92 276.56 462.29 276.48H462.35L462.72 276.41L463.54 276.24L464.72 275.97H464.77C465.557 275.777 466.347 275.567 467.14 275.34C467.68 275.18 468.22 275.01 468.75 274.83L469.4 274.61H469.48C470.32 274.31 471.14 274 471.94 273.61L472.38 273.42C473.05 273.13 473.7 272.83 474.33 272.51C475.21 272.061 476.065 271.563 476.89 271.02C477.28 270.77 477.66 270.5 478.01 270.23C478.987 269.506 479.85 268.64 480.57 267.66C481.39 266.69 481.84 265.46 481.84 264.19Z" fill="#683992"/>
<path d="M395.36 553.68C395.365 509.75 398.083 465.864 403.5 422.27C408.73 380.92 416.22 344.34 425.76 313.52C437.86 274.52 453.38 244.52 471.9 224.35L482.64 234.24C451.84 267.72 429.49 333.31 418.01 423.93C412.677 466.907 410.005 510.173 410.01 553.48L395.36 553.68Z" fill="#66BE64"/>
<path d="M485.59 218.76C478.59 212.6 458.8 237.23 460.41 245C468.27 246.29 492.06 225.49 485.59 218.76Z" fill="#8161A9"/>
<path d="M464.33 237.21H462.49C460.89 240.34 460.05 243.21 460.49 245.03C468.32 246.32 492.11 225.54 485.67 218.79C485.59 218.76 476.33 232.41 464.33 237.21Z" fill="#764FA0"/>
<path d="M483.03 229.76C478.379 229.965 473.988 231.965 470.78 235.34L465.06 240.18L469.67 234.27C472.909 230.925 474.726 226.456 474.74 221.8C467.38 227.92 459.81 239.39 460.38 244.59C460.39 244.721 460.41 244.851 460.44 244.98H460.83C466.07 245.39 477.22 237.36 483.03 229.76Z" fill="#683992"/>
<path d="M456.49 250.22C456.49 250.22 480.03 221.45 470.24 217.14C461.39 213.25 451.22 245.86 456.49 250.22Z" fill="#8161A9"/>
<path d="M456.49 250.22C456.49 250.22 458.3 248.01 460.7 244.72C462.02 226.43 470.24 217.14 470.24 217.14C461.39 213.25 451.22 245.86 456.49 250.22Z" fill="#764FA0"/>
<path d="M463.07 220.76C457 228.89 452.65 247.05 456.49 250.22C456.49 250.22 457.03 249.55 457.92 248.41C454.52 239.69 463.07 220.76 463.07 220.76Z" fill="#683992"/>
<path d="M455.38 249.16C455.38 249.16 483.17 224.47 487.87 234.07C492.12 242.76 459.95 254.25 455.38 249.16Z" fill="#8161A9"/>
<path d="M455.38 249.16C455.38 249.16 457.52 247.26 460.7 244.72C478.93 242.66 487.87 234.07 487.87 234.07C492.12 242.76 459.95 254.25 455.38 249.16Z" fill="#764FA0"/>
<path d="M484.59 241.38C476.72 247.77 458.75 252.86 455.42 249.16C455.42 249.16 456.06 248.58 457.17 247.65C466.03 250.65 484.59 241.38 484.59 241.38Z" fill="#683992"/>
<path d="M457.42 250.61C457.42 250.61 466.08 223.2 455.61 222.26C446.14 221.41 450.92 248.56 457.42 250.61Z" fill="#8161A9"/>
<path d="M457.42 250.61C457.42 250.61 458.08 248.5 458.82 245.44C452.26 231.25 455.61 222.26 455.61 222.26C446.14 221.41 450.92 248.56 457.42 250.61Z" fill="#764FA0"/>
<path d="M450.8 226.71C448.86 234.31 452.68 249.12 457.42 250.61C457.42 250.61 457.62 249.98 457.92 248.9C451.23 243.1 450.8 226.72 450.8 226.72V226.71Z" fill="#683992"/>
<path d="M454.95 248.24C454.95 248.24 481.95 238.47 483.35 248.9C484.59 258.33 457.27 254.65 454.95 248.24Z" fill="#8161A9"/>
<path d="M454.95 248.24C454.95 248.24 457.03 247.49 460.06 246.63C474.5 252.63 483.35 248.9 483.35 248.9C484.59 258.33 457.27 254.65 454.95 248.24Z" fill="#764FA0"/>
<path d="M479.11 253.89C471.58 256.13 456.64 252.89 454.95 248.24L456.65 247.67C462.72 254.12 479.11 253.89 479.11 253.89Z" fill="#683992"/>
<path d="M466.59 235.42C456.89 230.6 442.06 264.15 446.19 272.42C455.33 271.49 475.81 241.06 466.59 235.42Z" fill="#8161A9"/>
<path d="M448.2 262.49L446.12 263.02C445.27 267.02 445.17 270.43 446.12 272.4C455.29 271.51 475.77 241.08 466.52 235.4C466.59 235.42 460.22 253.49 448.2 262.49Z" fill="#764FA0"/>
<path d="M466.94 248.49C461.785 250.111 457.459 253.667 454.87 258.41L449.87 265.55L453.27 257.55C455.909 252.83 456.625 247.275 455.27 242.04C448.84 251.1 443.78 266.23 445.97 271.9C446.018 272.045 446.078 272.185 446.15 272.32L446.6 272.25C452.59 271.14 462.7 258.79 466.94 248.49Z" fill="#683992"/>
<path d="M443.29 279.42C443.29 279.42 461.09 240.11 448.82 238.2C437.73 236.49 436.07 276.11 443.29 279.42Z" fill="#8161A9"/>
<path d="M443.29 279.42C443.29 279.42 444.66 276.42 446.37 271.99C442.37 251.07 448.82 238.2 448.82 238.2C437.73 236.49 436.07 276.11 443.29 279.42Z" fill="#764FA0"/>
<path d="M441.86 244.4C437.48 255.34 438.03 277.01 443.29 279.4C443.29 279.4 443.7 278.49 444.36 276.94C437.93 268.17 441.86 244.38 441.86 244.38V244.4Z" fill="#683992"/>
<path d="M441.73 278.56C441.73 278.56 465.51 242.56 473.66 251.92C481.03 260.39 448.38 282.9 441.73 278.56Z" fill="#8161A9"/>
<path d="M441.73 278.56C441.73 278.56 443.56 275.79 446.37 271.99C466.2 264.23 473.66 251.92 473.66 251.92C481.03 260.39 448.38 282.9 441.73 278.56Z" fill="#764FA0"/>
<path d="M472.12 261.11C465.2 270.64 446.57 281.72 441.73 278.56C441.73 278.56 442.28 277.72 443.24 276.34C454.09 277.11 472.12 261.11 472.12 261.11Z" fill="#683992"/>
<path d="M444.45 279.58C444.45 279.58 445.97 246.24 433.94 248.32C423.06 250.2 436.59 279.22 444.45 279.58Z" fill="#8161A9"/>
<path d="M444.45 279.58C444.45 279.58 444.57 277.02 444.45 273.36C432.84 259.41 433.91 248.36 433.91 248.36C423.06 250.2 436.59 279.22 444.45 279.58Z" fill="#764FA0"/>
<path d="M429.87 254.75C429.98 263.86 438.69 279.32 444.45 279.58C444.45 279.58 444.45 278.81 444.45 277.5C435.21 273 429.82 254.75 429.82 254.75H429.87Z" fill="#683992"/>
<path d="M440.97 277.66C440.97 277.66 468.38 258.61 473.03 269.9C477.23 280.11 445.49 284.16 440.97 277.66Z" fill="#8161A9"/>
<path d="M440.97 277.66C440.97 277.66 443.08 276.2 446.23 274.32C464.23 276.71 473.03 269.9 473.03 269.9C477.23 280.11 445.49 284.16 440.97 277.66Z" fill="#764FA0"/>
<path d="M469.76 276.77C461.99 281.53 444.26 282.39 440.97 277.66C440.97 277.66 441.61 277.22 442.7 276.51C451.44 281.93 469.76 276.77 469.76 276.77Z" fill="#683992"/>
<path d="M455.93 257.68C443.33 252.3 427.04 295.68 432.86 305.8C444.36 304.02 468 264.13 455.93 257.68Z" fill="#8161A9"/>
<path d="M434.71 293.16L432.13 293.97C431.34 299.07 431.47 303.39 432.86 305.8C444.36 304.02 468 264.13 455.93 257.68C455.93 257.68 449.24 280.97 434.71 293.16Z" fill="#764FA0"/>
<path d="M457.36 274.19C450.971 276.614 445.768 281.416 442.84 287.59L437.09 296.97L440.8 286.62C443.781 280.472 444.268 273.409 442.16 266.91C434.7 278.81 429.41 298.27 432.58 305.26C432.66 305.43 432.75 305.6 432.84 305.76C433.029 305.737 433.216 305.7 433.4 305.65C440.89 303.77 452.75 287.49 457.36 274.19Z" fill="#683992"/>
<path d="M429.75 314.91C429.75 314.91 449.36 263.99 433.75 262.48C419.59 261.11 420.4 311.24 429.75 314.91Z" fill="#8161A9"/>
<path d="M429.75 314.91C429.75 314.91 431.26 310.99 433.1 305.3C426.54 279.19 433.74 262.48 433.74 262.48C419.59 261.11 420.4 311.24 429.75 314.91Z" fill="#764FA0"/>
<path d="M425.4 270.81C420.67 284.93 422.94 312.24 429.75 314.91C429.75 314.91 430.2 313.72 430.92 311.72C422.17 301.12 425.4 270.81 425.4 270.81Z" fill="#683992"/>
<path d="M427.71 313.93C427.71 313.93 455.12 266.75 466.08 277.93C476 288.14 436.42 318.92 427.71 313.93Z" fill="#8161A9"/>
<path d="M427.71 313.93C427.71 313.93 429.82 310.301 433.1 305.301C457.57 294.061 466.1 277.98 466.1 277.98C476 288.14 436.42 318.92 427.71 313.93Z" fill="#764FA0"/>
<path d="M464.81 289.7C456.81 302.23 434.06 317.57 427.71 313.93C427.71 313.93 428.35 312.83 429.47 311.02C443.21 311.21 464.81 289.7 464.81 289.7Z" fill="#683992"/>
<path d="M431.23 315.02C431.23 315.02 430.72 272.83 415.69 276.33C402.1 279.49 421.22 315.14 431.23 315.02Z" fill="#8161A9"/>
<path d="M431.23 315.02C431.23 315.02 431.23 311.78 430.81 307.16C415.15 290.4 415.69 276.33 415.69 276.33C402.1 279.49 421.22 315.14 431.23 315.02Z" fill="#764FA0"/>
<path d="M411.02 284.74C411.82 296.23 423.94 315.11 431.23 315.02C431.23 315.02 431.23 314.02 431.14 312.4C419.14 307.4 411.02 284.75 411.02 284.75V284.74Z" fill="#683992"/>
<path d="M426.7 312.85C426.7 312.85 459.91 286.85 466.59 300.73C472.64 313.3 432.87 320.73 426.7 312.85Z" fill="#8161A9"/>
<path d="M426.7 312.85C426.7 312.85 429.25 310.85 433.08 308.25C455.96 309.96 466.59 300.73 466.59 300.73C472.64 313.3 432.87 320.73 426.7 312.85Z" fill="#764FA0"/>
<path d="M462.96 309.63C453.51 316.21 431.19 318.63 426.7 312.85C426.7 312.85 427.47 312.25 428.8 311.27C440.22 317.48 462.96 309.63 462.96 309.63Z" fill="#683992"/>
<path d="M442.48 289.11C429.63 284.38 415.56 328.56 421.87 338.34C433.27 335.98 454.87 294.95 442.48 289.11Z" fill="#8161A9"/>
<path d="M423.09 325.62L420.55 326.56C420.02 331.7 420.36 336 421.87 338.34C433.27 335.98 454.87 294.95 442.48 289.11C442.48 289.11 436.98 312.71 423.09 325.62Z" fill="#764FA0"/>
<path d="M444.74 305.54C438.485 308.284 433.534 313.34 430.92 319.65L425.66 329.31L428.84 318.78C431.504 312.49 431.633 305.413 429.2 299.03C422.35 311.29 418.05 331.03 421.57 337.82C421.66 337.99 421.75 338.16 421.85 338.31C422.04 338.277 422.227 338.23 422.41 338.17C429.79 335.91 440.81 319.02 444.74 305.54Z" fill="#683992"/>
<path d="M419.23 347.59C419.23 347.59 436.23 295.75 420.56 295.03C406.39 294.38 409.71 344.41 419.23 347.59Z" fill="#8161A9"/>
<path d="M419.23 347.59C419.23 347.59 420.53 343.59 422.09 337.83C414.22 312.08 420.56 295.03 420.56 295.03C406.39 294.38 409.71 344.41 419.23 347.59Z" fill="#764FA0"/>
<path d="M412.66 303.77C408.66 318.11 412.29 345.269 419.23 347.589C419.23 347.589 419.62 346.389 420.23 344.349C410.96 334.209 412.66 303.77 412.66 303.77Z" fill="#683992"/>
<path d="M417.15 346.72C417.15 346.72 442.15 298.22 453.65 308.88C464.07 318.49 426.1 351.27 417.15 346.72Z" fill="#8161A9"/>
<path d="M417.15 346.72C417.15 346.72 419.07 342.99 422.09 337.83C445.96 325.37 453.65 308.88 453.65 308.88C464.07 318.49 426.1 351.27 417.15 346.72Z" fill="#764FA0"/>
<path d="M452.97 320.65C445.57 333.57 423.66 350.03 417.15 346.72C417.15 346.72 417.73 345.59 418.75 343.72C432.48 343.22 452.97 320.65 452.97 320.65Z" fill="#683992"/>
<path d="M420.71 347.63C420.71 347.63 418.07 305.52 403.24 309.77C389.83 313.62 410.72 348.26 420.71 347.63Z" fill="#8161A9"/>
<path d="M420.71 347.63C420.71 347.63 420.5 344.39 419.9 339.81C403.41 323.81 403.24 309.81 403.24 309.81C389.83 313.62 410.72 348.26 420.71 347.63Z" fill="#764FA0"/>
<path d="M399 318.4C400.38 329.84 413.44 348.09 420.71 347.63C420.71 347.63 420.65 346.63 420.49 345.01C408.26 340.61 399 318.4 399 318.4Z" fill="#683992"/>
<path d="M416.08 345.69C416.08 345.69 447.93 318.02 455.31 331.57C461.98 343.83 422.64 353.25 416.08 345.69Z" fill="#8161A9"/>
<path d="M416.08 345.69C416.08 345.69 418.53 343.57 422.22 340.78C445.15 341.33 455.31 331.57 455.31 331.57C461.98 343.83 422.64 353.25 416.08 345.69Z" fill="#764FA0"/>
<path d="M452.13 340.65C443.02 347.65 420.86 351.19 416.13 345.65C416.13 345.65 416.87 345.01 418.13 343.97C429.85 349.6 452.13 340.61 452.13 340.61V340.65Z" fill="#683992"/>
<path d="M449.013 332.818C450.93 332.567 452.375 331.534 452.241 330.51C452.107 329.486 450.444 328.859 448.528 329.11C446.611 329.361 445.166 330.395 445.3 331.419C445.434 332.443 447.097 333.069 449.013 332.818Z" fill="#F6FAFE"/>
<path d="M464.286 288.443C465.653 287.076 466.169 285.376 465.439 284.646C464.708 283.916 463.008 284.432 461.641 285.799C460.275 287.165 459.759 288.865 460.489 289.596C461.219 290.326 462.919 289.81 464.286 288.443Z" fill="#F6FAFE"/>
<path d="M483.234 236.568C484.996 235.771 486.078 234.362 485.652 233.421C485.226 232.48 483.453 232.363 481.692 233.16C479.931 233.957 478.849 235.366 479.275 236.307C479.701 237.248 481.473 237.365 483.234 236.568Z" fill="#F6FAFE"/>
<path d="M467.056 270.074C468.717 270.015 470.039 269.26 470.008 268.388C469.977 267.516 468.605 266.857 466.944 266.916C465.283 266.975 463.961 267.729 463.992 268.601C464.023 269.473 465.395 270.133 467.056 270.074Z" fill="#F6FAFE"/>
<path d="M425.28 318.74C411.69 317.03 407.96 363.25 416.28 371.35C426.89 366.49 438.66 321.63 425.28 318.74Z" fill="#8161A9"/>
<path d="M414.59 358.68L412.33 360.17C412.97 365.29 414.33 369.41 416.33 371.35C426.9 366.47 438.67 321.63 425.33 318.74C425.28 318.74 425.25 342.97 414.59 358.68Z" fill="#764FA0"/>
<path d="M431.19 334.23C425.714 338.315 422.03 344.36 420.91 351.1L417.91 361.69L418.64 350.69C419.814 343.96 418.338 337.036 414.52 331.37C410.62 344.86 410.89 365.03 415.86 370.88L416.25 371.3L416.75 371.04C423.48 367.19 430.4 348.25 431.19 334.23Z" fill="#683992"/>
<path d="M415.83 380.96C415.83 380.96 420.69 326.61 405.26 329.45C391.3 332.02 405.83 380 415.83 380.96Z" fill="#8161A9"/>
<path d="M415.83 380.96C415.83 380.96 416.2 376.78 416.41 370.8C402.93 347.49 405.26 329.49 405.26 329.49C391.3 332.02 405.84 380 415.83 380.96Z" fill="#764FA0"/>
<path d="M399.53 339.75C398.87 354.63 408.53 380.26 415.83 380.96C415.83 380.96 415.94 379.69 416.08 377.57C404.75 369.79 399.53 339.75 399.53 339.75Z" fill="#683992"/>
<path d="M413.59 380.58C413.59 380.58 426.98 327.69 440.59 335.47C452.95 342.49 423.35 382.99 413.59 380.58Z" fill="#8161A9"/>
<path d="M413.59 380.58C413.59 380.58 414.59 376.51 416.39 370.8C436.85 353.28 440.59 335.49 440.59 335.49C452.95 342.49 423.35 382.99 413.59 380.58Z" fill="#764FA0"/>
<path d="M442.59 347.09C438.3 361.34 420.67 382.33 413.59 380.58C413.59 380.58 413.9 379.35 414.47 377.3C427.74 373.7 442.6 347.09 442.6 347.09H442.59Z" fill="#683992"/>
<path d="M417.28 380.66C417.28 380.66 405.2 340.23 391.71 347.73C379.51 354.49 407.69 383.49 417.28 380.66Z" fill="#8161A9"/>
<path d="M417.28 380.661C417.28 380.661 416.35 377.55 414.72 373.22C395.06 361.41 391.72 347.73 391.72 347.73C379.51 354.49 407.69 383.491 417.28 380.661Z" fill="#764FA0"/>
<path d="M389.53 357.09C393.46 367.92 410.3 382.75 417.28 380.66C417.28 380.66 417 379.72 416.48 378.16C403.56 376.63 389.53 357.09 389.53 357.09Z" fill="#683992"/>
<path d="M412.33 379.82C412.33 379.82 437.11 345.67 447.33 357.2C456.59 367.63 420.43 385.7 412.33 379.82Z" fill="#8161A9"/>
<path d="M412.33 379.82C412.33 379.82 414.24 377.19 417.21 373.65C439.67 369 447.36 357.2 447.36 357.2C456.59 367.63 420.43 385.7 412.33 379.82Z" fill="#764FA0"/>
<path d="M446.32 366.76C439.03 375.68 418.23 384.1 412.32 379.82C412.32 379.82 412.9 379.03 413.91 377.73C426.6 380.56 446.31 366.73 446.31 366.73L446.32 366.76Z" fill="#683992"/>
<path d="M427.95 360.93C427.95 360.93 427.03 364.81 429.82 366.02C431.61 366.79 434.77 367.34 438.96 363.55C436.96 358.28 433.85 357.35 431.96 357.23C428.87 357.05 427.95 360.93 427.95 360.93Z" fill="#AD91C4"/>
<path d="M429.87 357.83C428.928 358.643 428.258 359.725 427.95 360.93C427.95 360.93 427.03 364.81 429.82 366.02C431.61 366.79 434.77 367.34 438.96 363.55C438.96 363.55 429.81 364.26 429.87 357.83Z" fill="#764FA0"/>
<path d="M429.87 357.83C428.928 358.643 428.258 359.725 427.95 360.93C427.95 360.93 427.03 364.81 429.82 366.02C430.999 366.545 432.309 366.705 433.58 366.48C433.58 366.48 426.38 365 429.87 357.83Z" fill="#673994"/>
<path d="M428.22 361.36C428.22 361.36 432.22 360.99 433 363.93C433.51 365.81 433.6 369.02 429.26 372.63C424.33 369.87 423.84 366.7 424 364.76C424.25 361.72 428.22 361.36 428.22 361.36Z" fill="#AD91C4"/>
<path d="M424.88 362.83C425.814 362.005 426.981 361.491 428.22 361.36C428.22 361.36 432.22 360.99 433 363.93C433.51 365.81 433.6 369.02 429.26 372.63C429.26 372.63 431.25 363.67 424.88 362.83Z" fill="#764FA0"/>
<path d="M428 361.29C428 361.29 431 358.62 429.33 356.03C428.33 354.39 426 352.15 420.4 352.9C419.1 358.4 421.1 360.9 422.64 362.1C425.04 363.97 428 361.29 428 361.29Z" fill="#AD91C4"/>
<path d="M424.66 362.76C425.899 362.629 427.066 362.115 428 361.29C428 361.29 431 358.62 429.33 356.03C428.33 354.39 426 352.15 420.4 352.9C420.4 352.9 428.35 357.49 424.66 362.76Z" fill="#764FA0"/>
<path d="M428 361.29C428 361.29 426.37 357.65 423.41 358.4C421.53 358.88 418.68 360.4 417.67 365.93C422.5 368.87 425.5 367.74 427.11 366.64C429.59 364.93 428 361.29 428 361.29Z" fill="#AD91C4"/>
<path d="M428.36 364.93C428.616 363.708 428.49 362.437 428 361.29C428 361.29 426.37 357.65 423.41 358.4C421.53 358.88 418.68 360.4 417.67 365.93C417.67 365.93 424.5 359.79 428.36 364.93Z" fill="#764FA0"/>
<path d="M428.36 364.93C428.616 363.708 428.49 362.437 428 361.29C428 361.29 426.37 357.65 423.41 358.4C422.161 358.705 421.03 359.373 420.16 360.32C420.16 360.32 426.76 357.11 428.36 364.93Z" fill="#673994"/>
<path d="M428 361.29C428 361.29 431.46 363.29 433.41 360.93C434.66 359.44 436.08 356.56 433.63 351.47C428 351.93 426.23 354.61 425.63 356.47C424.59 359.31 428 361.29 428 361.29Z" fill="#AD91C4"/>
<path d="M425.59 358.57C426.101 359.704 426.95 360.654 428.02 361.29C428.02 361.29 431.48 363.29 433.43 360.93C434.68 359.44 436.1 356.56 433.65 351.47C433.59 351.49 431.72 360.49 425.59 358.57Z" fill="#764FA0"/>
<path d="M428 361.29C428 361.29 429.63 364.93 427.11 366.64C425.5 367.74 422.5 368.87 417.67 365.93C418.67 360.37 421.53 358.93 423.41 358.4C426.37 357.65 428 361.29 428 361.29Z" fill="#AD91C4"/>
<path d="M425.53 358.61C426.611 359.226 427.474 360.163 428 361.29C428 361.29 429.63 364.93 427.11 366.64C425.5 367.74 422.5 368.87 417.67 365.93C417.67 365.93 426.8 364.91 425.53 358.61Z" fill="#764FA0"/>
<path d="M428 365.01C430.049 365.01 431.71 363.349 431.71 361.3C431.71 359.251 430.049 357.59 428 357.59C425.951 357.59 424.29 359.251 424.29 361.3C424.29 363.349 425.951 365.01 428 365.01Z" fill="#673994"/>
<path d="M432.13 290.76C432.13 290.76 428.94 293.16 430.32 295.88C431.2 297.61 433.32 300.05 438.93 299.81C440.73 294.46 438.93 291.81 437.54 290.45C435.31 288.37 432.13 290.76 432.13 290.76Z" fill="#AD91C4"/>
<path d="M435.59 289.61C434.345 289.625 433.136 290.027 432.13 290.76C432.13 290.76 428.94 293.16 430.32 295.88C431.2 297.61 433.32 300.05 438.93 299.81C438.93 299.81 431.43 294.49 435.59 289.61Z" fill="#764FA0"/>
<path d="M435.59 289.61C434.345 289.625 433.136 290.027 432.13 290.76C432.13 290.76 428.94 293.16 430.32 295.88C430.897 297.029 431.797 297.985 432.91 298.63C432.91 298.63 428.32 292.89 435.59 289.61Z" fill="#673994"/>
<path d="M432.07 291.27C432.07 291.27 435.36 293.52 434.07 296.27C433.27 298.04 431.29 300.57 425.64 300.58C423.64 295.3 425.26 292.58 426.64 291.16C428.78 289.01 432.07 291.27 432.07 291.27Z" fill="#AD91C4"/>
<path d="M428.59 290.26C429.835 290.221 431.062 290.57 432.1 291.26C432.1 291.26 435.39 293.51 434.1 296.26C433.3 298.03 431.32 300.56 425.67 300.57C425.66 300.61 432.92 294.98 428.59 290.26Z" fill="#764FA0"/>
<path d="M431.94 291.07C431.94 291.07 435.94 290.9 436.32 287.88C436.58 285.95 436.24 282.76 431.45 279.76C426.94 283.16 426.87 286.37 427.29 288.27C427.95 291.25 431.94 291.07 431.94 291.07Z" fill="#AD91C4"/>
<path d="M428.43 290.07C429.47 290.755 430.695 291.104 431.94 291.07C431.94 291.07 435.94 290.9 436.32 287.88C436.58 285.95 436.24 282.76 431.45 279.76C431.45 279.76 434.59 288.38 428.43 290.07Z" fill="#764FA0"/>
<path d="M431.94 291.07C431.94 291.07 433 287.23 430.25 285.92C428.5 285.08 425.36 284.41 421.03 288.04C422.86 293.38 425.9 294.44 427.83 294.62C430.87 294.92 431.94 291.07 431.94 291.07Z" fill="#AD91C4"/>
<path d="M429.9 294.1C430.855 293.326 431.553 292.279 431.9 291.1C431.9 291.1 432.96 287.26 430.21 285.95C428.46 285.11 425.32 284.44 420.99 288.07C421.03 288.04 430.21 287.68 429.9 294.1Z" fill="#764FA0"/>
<path d="M429.9 294.1C430.855 293.325 431.553 292.279 431.9 291.1C431.9 291.1 432.96 287.26 430.21 285.95C429.054 285.383 427.755 285.174 426.48 285.35C426.48 285.35 433.65 287.07 429.9 294.1Z" fill="#673994"/>
<path d="M431.94 291.07C431.94 291.07 433.33 294.81 436.33 294.26C438.24 293.9 441.18 292.59 442.55 287.11C437.92 283.87 434.84 284.81 433.17 285.79C430.59 287.34 431.94 291.07 431.94 291.07Z" fill="#AD91C4"/>
<path d="M431.81 287.42C431.473 288.621 431.518 289.897 431.94 291.07C431.94 291.07 433.33 294.81 436.33 294.26C438.24 293.9 441.18 292.59 442.55 287.11C442.59 287.11 435.33 292.8 431.81 287.42Z" fill="#764FA0"/>
<path d="M431.94 291.07C431.94 291.07 430.87 294.92 427.83 294.62C425.9 294.44 422.83 293.38 421.03 288.04C425.36 284.41 428.5 285.04 430.25 285.92C433 287.23 431.94 291.07 431.94 291.07Z" fill="#AD91C4"/>
<path d="M431.75 287.43C432.186 288.595 432.252 289.866 431.94 291.07C431.94 291.07 430.87 294.92 427.83 294.62C425.9 294.44 422.83 293.38 421.03 288.04C421.03 288.04 428.7 293.09 431.75 287.43Z" fill="#764FA0"/>
<path d="M431.94 294.79C433.989 294.79 435.65 293.129 435.65 291.08C435.65 289.031 433.989 287.37 431.94 287.37C429.891 287.37 428.23 289.031 428.23 291.08C428.23 293.129 429.891 294.79 431.94 294.79Z" fill="#673994"/>
<path d="M470.95 253.77C470.95 253.77 467.01 253.17 466.04 256.06C465.42 257.9 465.13 261.06 469.25 264.97C474.34 262.5 475.01 259.36 474.97 257.42C474.9 254.37 470.95 253.77 470.95 253.77Z" fill="#AD91C4"/>
<path d="M474.2 255.43C473.313 254.556 472.178 253.977 470.95 253.77C470.95 253.77 467.01 253.17 466.04 256.06C465.42 257.9 465.13 261.06 469.25 264.97C469.25 264.97 467.79 255.9 474.2 255.43Z" fill="#764FA0"/>
<path d="M474.2 255.43C473.313 254.556 472.178 253.977 470.95 253.77C470.95 253.77 467.01 253.17 466.04 256.06C465.615 257.277 465.562 258.594 465.89 259.84C465.89 259.84 466.77 252.55 474.2 255.43Z" fill="#673994"/>
<path d="M470.59 254.08C470.59 254.08 471.29 258.01 468.42 259.08C466.59 259.74 463.42 260.08 459.42 256.08C461.77 250.94 464.89 250.19 466.83 250.19C469.86 250.15 470.59 254.08 470.59 254.08Z" fill="#AD91C4"/>
<path d="M468.81 250.87C469.709 251.733 470.318 252.855 470.55 254.08C470.55 254.08 471.25 258.01 468.38 259.08C466.55 259.74 463.38 260.08 459.38 256.08C459.4 256.04 468.5 257.29 468.81 250.87Z" fill="#764FA0"/>
<path d="M470.59 253.85C470.59 253.85 473.5 256.58 475.94 254.75C477.49 253.58 479.54 251.1 478.33 245.59C472.74 244.74 470.41 246.95 469.33 248.59C467.69 251.13 470.59 253.85 470.59 253.85Z" fill="#AD91C4"/>
<path d="M468.86 250.64C469.092 251.865 469.701 252.987 470.6 253.85C470.6 253.85 473.51 256.58 475.95 254.75C477.5 253.58 479.55 251.1 478.34 245.59C478.34 245.59 474.41 253.89 468.86 250.64Z" fill="#764FA0"/>
<path d="M470.59 253.85C470.59 253.85 474.08 251.931 473.09 249.041C472.47 247.201 470.74 244.49 465.09 243.94C462.56 248.94 463.93 251.941 465.15 253.411C467.11 255.781 470.59 253.85 470.59 253.85Z" fill="#AD91C4"/>
<path d="M467.01 254.49C468.246 254.648 469.501 254.417 470.6 253.83C470.6 253.83 474.09 251.91 473.1 249.02C472.48 247.18 470.75 244.47 465.1 243.92C465.13 243.94 471.81 250.24 467.01 254.49Z" fill="#764FA0"/>
<path d="M467.01 254.49C468.246 254.649 469.501 254.418 470.6 253.83C470.6 253.83 474.09 251.911 473.1 249.021C472.695 247.8 471.936 246.728 470.92 245.94C470.92 245.94 474.66 252.28 467.01 254.49Z" fill="#673994"/>
<path d="M470.59 253.85C470.59 253.85 468.9 257.46 471.39 259.22C472.98 260.34 475.97 261.511 480.84 258.661C479.92 253.081 477.1 251.541 475.23 251.041C472.29 250.241 470.59 253.85 470.59 253.85Z" fill="#AD91C4"/>
<path d="M473.12 251.21C472.026 251.807 471.145 252.73 470.6 253.85C470.6 253.85 468.91 257.46 471.4 259.22C472.99 260.34 475.98 261.51 480.85 258.66C480.85 258.66 471.74 257.49 473.12 251.21Z" fill="#764FA0"/>
<path d="M470.59 253.85C470.59 253.85 467.1 255.781 465.18 253.411C463.96 251.901 462.59 248.99 465.12 243.94C470.74 244.49 472.47 247.201 473.12 249.041C474.09 251.931 470.59 253.85 470.59 253.85Z" fill="#AD91C4"/>
<path d="M473.07 251.171C472.544 252.298 471.681 253.235 470.6 253.85C470.6 253.85 467.11 255.781 465.19 253.411C463.97 251.901 462.6 248.99 465.13 243.94C465.13 243.94 466.9 252.951 473.07 251.171Z" fill="#764FA0"/>
<path d="M470.6 257.57C472.649 257.57 474.31 255.909 474.31 253.86C474.31 251.811 472.649 250.15 470.6 250.15C468.551 250.15 466.89 251.811 466.89 253.86C466.89 255.909 468.551 257.57 470.6 257.57Z" fill="#673994"/>
<path d="M459.26 464.28C460.039 464.28 460.67 463.649 460.67 462.87C460.67 462.091 460.039 461.46 459.26 461.46C458.481 461.46 457.85 462.091 457.85 462.87C457.85 463.649 458.481 464.28 459.26 464.28Z" fill="#F6FAFE"/>
<path d="M465.68 283.56C466.183 283.56 466.59 283.153 466.59 282.65C466.59 282.148 466.183 281.74 465.68 281.74C465.177 281.74 464.77 282.148 464.77 282.65C464.77 283.153 465.177 283.56 465.68 283.56Z" fill="#F6FAFE"/>
<path d="M477.59 236.4C478.093 236.4 478.5 235.993 478.5 235.49C478.5 234.988 478.093 234.58 477.59 234.58C477.087 234.58 476.68 234.988 476.68 235.49C476.68 235.993 477.087 236.4 477.59 236.4Z" fill="#F6FAFE"/>
<path d="M443.58 332.5C444.083 332.5 444.49 332.092 444.49 331.59C444.49 331.087 444.083 330.68 443.58 330.68C443.077 330.68 442.67 331.087 442.67 331.59C442.67 332.092 443.077 332.5 443.58 332.5Z" fill="#F6FAFE"/>
<g style="mix-blend-mode:multiply">
<path d="M219.59 598.54C216.76 627.07 204.94 638.24 187.59 665.92C167.65 697.82 174.99 765.6 174.99 765.6H529.16C529.16 765.6 521.82 697.82 541.76 665.92C561.7 634.02 574.37 624.06 574.37 584.18V201.41C574.37 201.41 550.59 598.54 219.59 598.54Z" fill="#CEEAE2"/>
</g>
<path d="M523.96 593.2C543.185 593.2 558.77 577.615 558.77 558.39C558.77 539.165 543.185 523.58 523.96 523.58C504.735 523.58 489.15 539.165 489.15 558.39C489.15 577.615 504.735 593.2 523.96 593.2Z" fill="#E9F3F9"/>
<g style="mix-blend-mode:multiply">
<path d="M574.37 584.18V499.08L572.43 496.96C572.43 496.96 560.78 675.96 187.61 665.96C167.67 697.86 175.01 765.64 175.01 765.64H529.16C529.16 765.64 521.82 697.86 541.76 665.96C561.7 634.06 574.37 624.06 574.37 584.18Z" fill="#CEEAE2"/>
</g>
<path d="M275.72 192.39H292.31C292.911 192.378 293.513 192.408 294.11 192.48C294.569 192.561 295.011 192.716 295.42 192.94C295.67 193.082 295.889 193.274 296.061 193.505C296.233 193.736 296.355 193.999 296.42 194.28C296.65 195.134 296.754 196.016 296.73 196.9C296.752 197.764 296.647 198.626 296.42 199.46C296.346 199.75 296.212 200.021 296.028 200.257C295.844 200.492 295.613 200.688 295.35 200.83C294.925 201.07 294.461 201.235 293.98 201.32C293.393 201.39 292.801 201.42 292.21 201.41H270.21C269.327 201.431 268.445 201.33 267.59 201.11C267.021 200.963 266.482 200.716 266 200.38C265.61 200.053 265.325 199.618 265.18 199.13C265.017 198.675 264.913 198.201 264.87 197.72C264.87 197.34 264.87 196.72 264.87 195.99V162.07C264.856 161.365 264.889 160.66 264.97 159.96C265.066 159.394 265.259 158.85 265.54 158.35C265.716 158.037 265.952 157.763 266.236 157.543C266.519 157.323 266.844 157.162 267.19 157.07C268.202 156.791 269.251 156.666 270.3 156.7C271.187 156.677 272.073 156.781 272.93 157.01C273.499 157.15 274.035 157.398 274.51 157.74C274.905 158.062 275.192 158.499 275.33 158.99C275.497 159.44 275.601 159.911 275.64 160.39C275.64 160.777 275.64 161.356 275.64 162.13L275.72 192.39Z" fill="#115E49"/>
<path d="M326.9 169.27C327.929 169.241 328.956 169.362 329.95 169.63C330.293 169.722 330.614 169.882 330.892 170.102C331.171 170.323 331.402 170.598 331.57 170.91C331.835 171.419 332.02 171.965 332.12 172.53C332.191 173.228 332.221 173.929 332.21 174.63V195.99C332.221 196.691 332.191 197.393 332.12 198.09C332.023 198.646 331.837 199.183 331.57 199.68C331.397 199.986 331.165 200.254 330.887 200.469C330.608 200.684 330.29 200.841 329.95 200.93C328.936 201.2 327.889 201.322 326.84 201.29C325.494 201.406 324.144 201.121 322.96 200.47C322.583 200.185 322.27 199.822 322.044 199.407C321.819 198.991 321.684 198.532 321.65 198.06C320.15 200.213 317.71 201.29 314.33 201.29C310.67 201.29 307.337 199.683 304.33 196.47C301.402 193.449 299.782 189.397 299.82 185.19C299.81 183.137 300.207 181.102 300.986 179.202C301.765 177.303 302.912 175.575 304.36 174.12C307.387 170.92 310.72 169.323 314.36 169.33C315.66 169.312 316.95 169.561 318.15 170.06C319.562 170.531 320.781 171.451 321.62 172.68C321.645 172.185 321.774 171.701 322 171.259C322.226 170.818 322.543 170.43 322.93 170.12C324.139 169.446 325.521 169.15 326.9 169.27ZM315.98 190.62C316.678 190.631 317.37 190.488 318.008 190.203C318.645 189.918 319.212 189.498 319.67 188.97C320.622 187.988 321.159 186.678 321.17 185.31C321.149 183.956 320.638 182.655 319.73 181.65C319.259 181.088 318.665 180.641 317.994 180.345C317.323 180.048 316.593 179.91 315.86 179.94C315.127 179.918 314.398 180.06 313.726 180.356C313.055 180.652 312.458 181.094 311.98 181.65C311.039 182.662 310.508 183.988 310.49 185.37C310.497 186.051 310.642 186.724 310.915 187.347C311.188 187.971 311.584 188.533 312.08 189C312.581 189.527 313.187 189.943 313.859 190.222C314.53 190.501 315.253 190.637 315.98 190.62Z" fill="#115E49"/>
<path d="M368.59 170C370.71 171.26 371.76 172.6 371.76 174C371.632 175.2 371.213 176.35 370.54 177.35L357.92 199C357.75 199.266 357.566 199.523 357.37 199.77C356.911 200.241 356.385 200.642 355.81 200.96C355.071 201.429 354.215 201.682 353.34 201.69C352.538 201.669 351.749 201.48 351.024 201.135C350.299 200.791 349.654 200.299 349.13 199.69L348.58 199.02L335.9 177.3C335.213 176.329 334.792 175.195 334.68 174.01C334.68 172.54 335.73 171.18 337.85 169.92C338.961 169.174 340.239 168.714 341.57 168.58C341.942 168.569 342.313 168.636 342.657 168.777C343.002 168.919 343.313 169.131 343.57 169.4C344.215 170.15 344.759 170.98 345.19 171.87L353.19 187.24L361.19 171.87C361.64 171.1 361.97 170.54 362.19 170.19C362.479 169.795 362.838 169.456 363.25 169.19C363.73 168.845 364.309 168.663 364.9 168.67C366.226 168.778 367.5 169.237 368.59 170Z" fill="#115E49"/>
<path d="M404.25 181.22C404.25 183.887 403.627 185.83 402.38 187.05C401.849 187.609 401.212 188.055 400.506 188.364C399.801 188.673 399.04 188.839 398.27 188.85H383.81C383.846 189.465 384.052 190.058 384.405 190.563C384.758 191.068 385.245 191.465 385.81 191.71C387.123 192.477 388.619 192.878 390.14 192.87C391.185 192.874 392.228 192.794 393.26 192.63C393.982 192.526 394.695 192.362 395.39 192.14L396.06 191.9C396.818 191.509 397.649 191.281 398.5 191.23C399.833 191.23 400.953 192.143 401.86 193.97C402.321 194.84 402.59 195.798 402.65 196.78C402.65 200.4 398.317 202.21 389.65 202.21C386.903 202.259 384.177 201.727 381.65 200.65C379.515 199.767 377.637 198.36 376.19 196.56C373.698 193.408 372.342 189.508 372.34 185.49C372.34 180.37 374.007 176.273 377.34 173.2C379.765 171.113 382.679 169.672 385.81 169.011C388.941 168.35 392.188 168.491 395.25 169.42C398.097 170.256 400.552 172.082 402.17 174.57C402.874 175.614 403.42 176.756 403.79 177.96C404.094 179.02 404.249 180.117 404.25 181.22ZM391.38 183.3C392.92 183.3 393.69 182.65 393.69 181.3C393.703 180.868 393.614 180.439 393.43 180.048C393.246 179.657 392.972 179.315 392.63 179.05C391.73 178.424 390.644 178.12 389.55 178.19C388.095 178.248 386.709 178.822 385.64 179.81C385.076 180.201 384.607 180.714 384.27 181.312C383.932 181.909 383.734 182.575 383.69 183.26L391.38 183.3Z" fill="#115E49"/>
<path d="M426.08 169.27C428.015 169.234 429.933 169.634 431.691 170.441C433.45 171.248 435.005 172.44 436.24 173.93C438.96 177.087 440.407 181.144 440.3 185.31V196.05C440.311 196.751 440.281 197.452 440.21 198.15C440.113 198.706 439.927 199.242 439.66 199.74C439.487 200.046 439.255 200.314 438.977 200.529C438.698 200.743 438.38 200.9 438.04 200.99C437.026 201.26 435.979 201.381 434.93 201.35C434.047 201.371 433.165 201.27 432.31 201.05C431.747 200.901 431.21 200.665 430.72 200.35C430.318 200.033 430.03 199.595 429.9 199.1C429.736 198.645 429.632 198.171 429.59 197.69C429.59 197.33 429.59 196.76 429.59 195.99V185.25C429.631 184.535 429.525 183.819 429.279 183.147C429.033 182.475 428.652 181.859 428.16 181.34C427.073 180.424 425.694 179.927 424.272 179.94C422.85 179.953 421.48 180.474 420.41 181.41C419.908 181.911 419.517 182.511 419.26 183.173C419.004 183.834 418.888 184.541 418.92 185.25V196.05C418.934 196.751 418.9 197.453 418.82 198.15C418.731 198.706 418.548 199.244 418.28 199.74C418.107 200.046 417.875 200.314 417.597 200.529C417.318 200.743 417 200.9 416.66 200.99C415.646 201.26 414.599 201.381 413.55 201.35C412.538 201.374 411.528 201.253 410.55 200.99C410.206 200.899 409.885 200.739 409.606 200.519C409.328 200.299 409.097 200.023 408.93 199.71C408.661 199.203 408.475 198.656 408.38 198.09C408.309 197.392 408.279 196.691 408.29 195.99V174.39C408.281 173.722 408.311 173.054 408.38 172.39C408.473 171.838 408.67 171.308 408.96 170.83C409.332 170.232 409.925 169.804 410.61 169.64C411.591 169.398 412.6 169.287 413.61 169.31C414.622 169.281 415.633 169.403 416.61 169.67C417.249 169.823 417.81 170.203 418.19 170.74C418.432 171.103 418.608 171.505 418.71 171.93C418.777 172.353 418.807 172.781 418.8 173.21C418.88 173.09 419 172.95 419.14 172.78C419.28 172.61 419.59 172.32 420.05 171.87C420.513 171.429 421.015 171.03 421.55 170.68C422.174 170.267 422.846 169.931 423.55 169.68C424.366 169.407 425.22 169.269 426.08 169.27Z" fill="#115E49"/>
<path d="M471.47 154.26C472.483 154.234 473.494 154.359 474.47 154.63C474.813 154.719 475.134 154.879 475.411 155.099C475.688 155.32 475.916 155.596 476.08 155.91C476.352 156.412 476.538 156.957 476.63 157.52C476.701 158.221 476.731 158.926 476.72 159.63V196.05C476.731 196.751 476.701 197.453 476.63 198.15C476.539 198.712 476.342 199.252 476.05 199.74C475.69 200.357 475.1 200.807 474.41 200.99C473.393 201.26 472.342 201.382 471.29 201.35C468.2 201.35 466.5 200.35 466.17 198.35C465.272 199.337 464.165 200.113 462.93 200.619C461.695 201.126 460.363 201.352 459.03 201.28C455.37 201.28 452.037 199.684 449.03 196.49C446.116 193.457 444.52 189.395 444.59 185.19C444.593 181.068 446.224 177.114 449.13 174.19C452.157 170.97 455.49 169.364 459.13 169.37C460.453 169.302 461.774 169.542 462.989 170.071C464.204 170.601 465.279 171.405 466.13 172.42V159.61C466.119 158.906 466.149 158.201 466.22 157.5C466.31 156.946 466.496 156.411 466.77 155.92C466.94 155.612 467.172 155.342 467.45 155.127C467.729 154.912 468.049 154.757 468.39 154.67C469.39 154.381 470.429 154.242 471.47 154.26ZM456.83 189.03C457.318 189.56 457.912 189.981 458.574 190.265C459.236 190.549 459.95 190.691 460.67 190.68C461.377 190.695 462.08 190.555 462.727 190.27C463.375 189.985 463.953 189.562 464.42 189.03C465.372 188.048 465.909 186.738 465.92 185.37C465.899 184.016 465.387 182.715 464.48 181.71C464.01 181.147 463.416 180.699 462.745 180.403C462.074 180.106 461.343 179.968 460.61 180C459.876 179.97 459.144 180.105 458.468 180.396C457.793 180.687 457.192 181.126 456.71 181.68C455.776 182.683 455.251 184 455.24 185.37C455.249 186.055 455.394 186.732 455.667 187.36C455.94 187.988 456.335 188.556 456.83 189.03Z" fill="#115E49"/>
<path d="M512.64 181.22C512.64 183.886 512.02 185.83 510.78 187.05C510.248 187.609 509.609 188.056 508.902 188.365C508.194 188.674 507.432 188.839 506.66 188.85H492.21C492.246 189.465 492.452 190.058 492.805 190.563C493.158 191.068 493.645 191.465 494.21 191.71C495.522 192.48 497.019 192.88 498.54 192.87C499.582 192.874 500.622 192.794 501.65 192.63C502.376 192.526 503.092 192.362 503.79 192.14L504.46 191.9C505.217 191.508 506.049 191.28 506.9 191.23C508.2 191.23 509.317 192.143 510.25 193.97C510.718 194.837 510.991 195.796 511.05 196.78C511.05 200.4 506.717 202.21 498.05 202.21C495.303 202.258 492.578 201.726 490.05 200.65C487.915 199.767 486.038 198.36 484.59 196.56C483.332 194.958 482.351 193.156 481.69 191.23C481.065 189.381 480.747 187.442 480.75 185.49C480.75 180.37 482.417 176.273 485.75 173.2C488.174 171.114 491.086 169.674 494.215 169.013C497.344 168.353 500.589 168.493 503.65 169.42C506.498 170.259 508.955 172.084 510.58 174.57C511.285 175.612 511.828 176.755 512.19 177.96C512.495 179.019 512.647 180.117 512.64 181.22ZM499.77 183.3C501.32 183.3 502.09 182.65 502.09 181.3C502.101 180.867 502.01 180.438 501.824 180.047C501.639 179.656 501.363 179.314 501.02 179.05C500.121 178.422 499.035 178.118 497.94 178.19C496.489 178.25 495.107 178.824 494.04 179.81C493.465 180.194 492.986 180.704 492.639 181.302C492.292 181.9 492.087 182.57 492.04 183.26L499.77 183.3Z" fill="#115E49"/>
<path d="M541.13 173.05C541.137 174.765 540.74 176.457 539.97 177.99C539.707 178.669 539.246 179.253 538.647 179.667C538.048 180.081 537.338 180.305 536.61 180.31C535.881 180.312 535.162 180.144 534.51 179.82C533.889 179.506 533.205 179.339 532.51 179.33C531.182 179.273 529.876 179.683 528.82 180.49C528.376 180.812 528.014 181.234 527.764 181.723C527.514 182.211 527.382 182.751 527.38 183.3V196.11C527.391 196.811 527.361 197.512 527.29 198.21C527.199 198.772 527.002 199.311 526.71 199.8C526.531 200.106 526.293 200.375 526.01 200.589C525.726 200.804 525.404 200.96 525.06 201.05C524.046 201.32 522.999 201.441 521.95 201.41C521.077 201.427 520.206 201.326 519.36 201.11C518.788 200.972 518.248 200.724 517.77 200.38C517.399 200.042 517.126 199.61 516.98 199.13C516.82 198.675 516.719 198.201 516.68 197.72C516.68 197.34 516.68 196.72 516.68 195.99V174.57C516.669 173.869 516.699 173.167 516.77 172.47C516.858 171.911 517.044 171.373 517.32 170.88C517.489 170.573 517.72 170.304 517.996 170.089C518.273 169.874 518.591 169.718 518.93 169.63C519.944 169.36 520.991 169.239 522.04 169.27C523.052 169.242 524.063 169.363 525.04 169.63C525.667 169.777 526.226 170.129 526.63 170.63C526.864 170.958 527.049 171.318 527.18 171.7C527.267 172.026 527.307 172.362 527.3 172.7C527.571 172.348 527.865 172.014 528.18 171.7C528.929 171.041 529.763 170.486 530.66 170.05C531.834 169.396 533.156 169.052 534.5 169.05C535.133 169.052 535.765 169.102 536.39 169.2C537.111 169.325 537.822 169.499 538.52 169.72C539.268 169.947 539.937 170.38 540.45 170.97C540.91 171.564 541.15 172.299 541.13 173.05Z" fill="#115E49"/>
<path d="M290.12 304.62C307.186 304.62 321.02 290.786 321.02 273.72C321.02 256.655 307.186 242.82 290.12 242.82C273.054 242.82 259.22 256.655 259.22 273.72C259.22 290.786 273.054 304.62 290.12 304.62Z" fill="#E9F3F9"/>
<path d="M269.17 237.89C278.487 237.89 286.04 230.337 286.04 221.02C286.04 211.703 278.487 204.15 269.17 204.15C259.853 204.15 252.3 211.703 252.3 221.02C252.3 230.337 259.853 237.89 269.17 237.89Z" fill="#E9F3F9"/>
<path d="M305.34 666.69C299.543 666.692 293.868 665.018 289 661.87C288.483 661.564 288.058 661.123 287.771 660.595C287.484 660.067 287.346 659.471 287.37 658.87C287.37 657.21 288.46 654.877 290.64 651.87C290.954 651.39 291.39 651.002 291.903 650.746C292.416 650.489 292.988 650.373 293.56 650.41C295.44 650.536 297.252 651.161 298.81 652.22C301.61 653.82 303.987 654.62 305.94 654.62C309.44 654.62 311.19 653.94 311.19 652.56C311.19 651.99 310.64 651.5 309.56 651.1C308.222 650.623 306.838 650.288 305.43 650.1C303.59 649.827 301.785 649.351 300.05 648.68C298.177 647.99 296.377 647.112 294.68 646.06C292.87 644.865 291.438 643.179 290.55 641.2C289.407 638.738 288.849 636.044 288.92 633.33C288.92 624.27 295.14 619.74 307.58 619.74C311.925 619.805 316.205 620.804 320.13 622.67C322.13 623.59 323.13 624.85 323.13 626.45C322.94 628.129 322.32 629.731 321.33 631.1C319.997 633.16 318.663 634.19 317.33 634.19C316.309 634.102 315.316 633.81 314.41 633.33C312.23 632.254 309.841 631.667 307.41 631.61C304.03 631.61 302.34 632.24 302.34 633.5C302.369 633.991 302.543 634.463 302.84 634.854C303.138 635.246 303.545 635.54 304.01 635.7C305.347 636.298 306.772 636.673 308.23 636.81C312.018 637.324 315.703 638.428 319.15 640.08C320.95 641.026 322.418 642.498 323.36 644.3C324.542 646.533 325.121 649.035 325.04 651.56C325.13 654.256 324.553 656.931 323.36 659.35C322.325 661.367 320.666 662.995 318.63 663.99C316.671 664.97 314.589 665.68 312.44 666.1C310.097 666.516 307.72 666.714 305.34 666.69Z" fill="#115E49"/>
<path d="M374.4 637.49C374.4 641.27 373.52 644.01 371.78 645.7C371.028 646.488 370.128 647.118 369.13 647.554C368.133 647.99 367.059 648.223 365.97 648.24H345.59C345.59 649.85 346.59 651.24 348.43 652.24C350.28 653.322 352.387 653.888 354.53 653.88C356.001 653.885 357.469 653.768 358.92 653.53C359.938 653.385 360.941 653.154 361.92 652.84L362.87 652.5C363.935 651.931 365.106 651.59 366.31 651.5C368.137 651.5 369.713 652.79 371.04 655.37C371.699 656.606 372.077 657.972 372.15 659.37C372.15 664.47 366.047 667.02 353.84 667.02C349.958 667.093 346.104 666.347 342.53 664.83C339.519 663.59 336.87 661.609 334.83 659.07C333.055 656.807 331.672 654.262 330.74 651.54C329.857 648.938 329.408 646.208 329.41 643.46C329.41 636.24 331.743 630.464 336.41 626.13C341.077 621.797 346.91 619.634 353.91 619.64C356.536 619.609 359.149 620.001 361.65 620.8C363.762 621.447 365.742 622.463 367.5 623.8C369.023 625.002 370.343 626.441 371.41 628.06C372.406 629.526 373.175 631.134 373.69 632.83C374.15 634.341 374.389 635.911 374.4 637.49ZM356.25 640.41C358.43 640.41 359.52 639.5 359.52 637.66C359.539 637.05 359.413 636.443 359.152 635.89C358.891 635.337 358.503 634.854 358.02 634.48C356.747 633.601 355.214 633.178 353.67 633.28C351.626 633.365 349.678 634.169 348.17 635.55C346.33 637.07 345.42 638.69 345.42 640.41H356.25Z" fill="#115E49"/>
<path d="M423.68 637.49C423.68 641.27 422.803 644.007 421.05 645.7C420.301 646.488 419.402 647.118 418.406 647.554C417.41 647.99 416.337 648.224 415.25 648.24H394.87C394.87 649.85 395.81 651.24 397.71 652.24C399.56 653.322 401.667 653.888 403.81 653.88C405.28 653.885 406.749 653.768 408.2 653.53C409.217 653.383 410.221 653.153 411.2 652.84L412.14 652.5C413.205 651.932 414.376 651.592 415.58 651.5C417.42 651.5 418.99 652.79 420.31 655.37C420.975 656.604 421.358 657.971 421.43 659.37C421.43 664.47 415.323 667.02 403.11 667.02C399.228 667.091 395.375 666.345 391.8 664.83C388.793 663.587 386.148 661.606 384.11 659.07C382.335 656.807 380.952 654.262 380.02 651.54C379.137 648.938 378.687 646.208 378.69 643.46C378.69 636.24 381.023 630.464 385.69 626.13C390.357 621.797 396.19 619.634 403.19 619.64C405.816 619.609 408.429 620.001 410.93 620.8C413.042 621.447 415.022 622.463 416.78 623.8C418.3 625.005 419.62 626.443 420.69 628.06C421.686 629.526 422.455 631.134 422.97 632.83C423.43 634.341 423.669 635.911 423.68 637.49ZM405.53 640.41C407.71 640.41 408.8 639.5 408.8 637.66C408.819 637.049 408.692 636.441 408.43 635.888C408.167 635.335 407.776 634.852 407.29 634.48C406.021 633.601 404.491 633.178 402.95 633.28C400.906 633.365 398.958 634.169 397.45 635.55C395.61 637.07 394.7 638.69 394.7 640.41H405.53Z" fill="#115E49"/>
<path d="M466.33 599.49C467.781 599.449 469.229 599.621 470.63 600C471.114 600.128 471.567 600.355 471.959 600.667C472.352 600.978 472.676 601.368 472.91 601.81C473.291 602.523 473.554 603.293 473.69 604.09C473.786 605.087 473.826 606.089 473.81 607.09V658.43C473.826 659.432 473.786 660.433 473.69 661.43C473.554 662.217 473.276 662.973 472.87 663.66C472.618 664.092 472.283 664.469 471.885 664.771C471.487 665.073 471.034 665.294 470.55 665.42C469.121 665.812 467.641 665.987 466.16 665.94C461.8 665.94 459.4 664.54 458.94 661.73C456.533 664.484 453.18 665.857 448.88 665.85C443.713 665.85 439.01 663.6 434.77 659.1C432.71 656.982 431.088 654.479 429.997 651.734C428.905 648.988 428.366 646.054 428.41 643.1C428.395 637.267 430.697 631.667 434.81 627.53C439.077 623.01 443.767 620.747 448.88 620.74C453.12 620.74 456.413 622.174 458.76 625.04V606.98C458.746 605.979 458.79 604.977 458.89 603.98C459.022 603.198 459.286 602.444 459.67 601.75C459.911 601.317 460.237 600.937 460.629 600.632C461.021 600.328 461.47 600.106 461.95 599.98C463.378 599.605 464.854 599.44 466.33 599.49ZM445.69 648.49C446.38 649.236 447.219 649.827 448.153 650.227C449.087 650.627 450.094 650.825 451.11 650.81C452.108 650.833 453.098 650.637 454.012 650.236C454.926 649.835 455.741 649.24 456.4 648.49C457.738 647.104 458.493 645.257 458.51 643.33C458.486 641.426 457.776 639.593 456.51 638.17C455.846 637.377 455.008 636.747 454.061 636.329C453.114 635.911 452.084 635.717 451.05 635.76C450.014 635.721 448.983 635.913 448.03 636.321C447.077 636.729 446.226 637.344 445.54 638.12C444.227 639.539 443.492 641.397 443.48 643.33C443.489 644.294 443.688 645.246 444.068 646.132C444.447 647.018 444.999 647.819 445.69 648.49Z" fill="#115E49"/>
<path d="M497.38 666.69C491.583 666.692 485.908 665.018 481.04 661.87C480.522 661.564 480.096 661.124 479.807 660.596C479.518 660.068 479.378 659.472 479.4 658.87C479.4 657.21 480.49 654.877 482.67 651.87C482.986 651.389 483.423 651.001 483.938 650.744C484.453 650.488 485.026 650.373 485.6 650.41C487.477 650.534 489.287 651.159 490.84 652.22C493.647 653.82 496.027 654.62 497.98 654.62C501.48 654.62 503.23 653.94 503.23 652.56C503.23 651.99 502.68 651.5 501.59 651.1C500.252 650.622 498.868 650.287 497.46 650.1C495.623 649.826 493.822 649.349 492.09 648.68C490.214 647.988 488.412 647.11 486.71 646.06C484.903 644.864 483.474 643.179 482.59 641.2C481.444 638.739 480.882 636.045 480.95 633.33C480.95 624.27 487.17 619.74 499.61 619.74C503.958 619.805 508.242 620.804 512.17 622.67C514.17 623.59 515.17 624.85 515.17 626.45C514.98 628.131 514.356 629.733 513.36 631.1C512.04 633.16 510.73 634.19 509.41 634.19C508.386 634.102 507.389 633.81 506.48 633.33C504.301 632.252 501.911 631.665 499.48 631.61C496.087 631.61 494.393 632.24 494.4 633.5C494.43 633.992 494.605 634.465 494.905 634.856C495.204 635.248 495.613 635.542 496.08 635.7C497.413 636.298 498.835 636.673 500.29 636.81C502.143 637.048 503.972 637.439 505.76 637.98C507.636 638.524 509.463 639.226 511.22 640.08C513.02 641.026 514.488 642.498 515.43 644.3C516.612 646.533 517.191 649.035 517.11 651.56C517.2 654.256 516.623 656.931 515.43 659.35C514.393 661.365 512.734 662.992 510.7 663.99C508.741 664.968 506.659 665.678 504.51 666.1C502.157 666.518 499.77 666.715 497.38 666.69Z" fill="#115E49"/>
</g>
<defs>
<clipPath id="clip0_4845_2776">
<rect width="619.18" height="838.58" fill="white"/>
</clipPath>
</defs>
</svg>
