<svg width="586" height="936" viewBox="0 0 586 936" fill="none" xmlns="http://www.w3.org/2000/svg">
<g clip-path="url(#clip0_5494_545)">
<path d="M278.82 935.829C408.767 935.829 514.11 922.796 514.11 906.719C514.11 890.642 408.767 877.609 278.82 877.609C148.873 877.609 43.5303 890.642 43.5303 906.719C43.5303 922.796 148.873 935.829 278.82 935.829Z" fill="#D0D2D3"/>
<path d="M400.13 915.489C398.13 915.489 396.199 915.419 394.299 915.289C376.449 914.099 361.78 907.609 351.87 896.529C350.52 895.019 349.17 893.389 347.74 891.529C346.55 889.979 345.38 888.359 344.25 886.679C343.37 885.389 342.509 884.039 341.689 882.679C341.159 881.819 340.69 880.949 340.15 880.059C339.15 878.229 338.21 876.569 337.41 874.959C336.86 873.859 336.319 872.749 335.809 871.629C333.241 866.027 331.066 860.253 329.299 854.349C325.18 840.255 322.733 825.725 322.009 811.059C321.739 806.409 321.61 801.639 321.62 796.869C321.62 796.299 321.62 795.739 321.62 795.159C321.62 795.159 321.019 794.669 320.799 794.479L319.799 793.639C319.569 793.439 319.339 793.219 319.099 792.999L318.259 792.199L317.54 791.489L316.729 790.659L316.059 789.959C315.799 789.669 315.529 789.379 315.269 789.079L314.599 788.329C314.359 788.059 314.09 787.739 313.83 787.429L313.24 786.719C313 786.429 312.779 786.149 312.549 785.879L311.87 784.999L311.189 784.109L310.58 783.299C310.31 782.939 310.09 782.619 309.86 782.299L309.25 781.439L308.469 780.299L308.009 779.619C307.589 778.989 307.19 778.359 306.79 777.729L306.549 777.339C306.229 776.819 305.909 776.339 305.549 775.779L304.99 774.839C304.78 774.489 304.58 774.139 304.38 773.789L303.259 771.789L302.16 769.729L301.67 768.489L301.229 767.609L300.74 766.609L300.17 765.439L299.689 764.439L299.16 763.309L298.66 762.209C298.5 761.869 298.32 761.469 298.15 761.059C297.98 760.649 297.849 760.389 297.689 760.059L297.179 758.879L296.7 757.729C294.347 757.889 292.013 757.969 289.7 757.969C288.64 757.969 287.56 757.969 286.42 757.919L285.509 760.049C285.349 760.429 285.179 760.799 285.019 761.159C284.859 761.519 284.7 761.889 284.53 762.279C284.36 762.669 284.2 762.989 284.04 763.349L283.519 764.459L283.019 765.509L282.46 766.649C282.3 766.969 282.139 767.309 281.969 767.649L281.24 769.079L280.9 769.739C280.7 770.119 280.499 770.479 280.309 770.849L279.79 771.849L279.04 773.199L278.639 773.909L277.929 775.119L277.479 775.879L276.479 777.459L276.269 777.799C275.859 778.439 275.46 779.069 275.04 779.689L274.519 780.469L273.79 781.539L273.269 782.269C273.049 782.589 272.789 782.959 272.519 783.319L271.96 784.069C271.71 784.409 271.45 784.739 271.2 785.069L270.63 785.789L269.84 786.789L269.269 787.469L268.42 788.469L267.78 789.189C267.54 789.469 267.26 789.769 266.99 790.059L266.32 790.759L265.479 791.619C265.253 791.859 265.023 792.089 264.79 792.309L263.96 793.099L263.269 793.719L262.36 794.529L261.61 795.159L261.479 795.259C261.565 802.973 261.265 810.686 260.58 818.369C260.36 820.809 260.089 823.249 259.799 825.619C259.509 827.989 259.139 830.509 258.799 832.889C258.599 834.096 258.39 835.306 258.17 836.519C253.57 861.599 244.519 881.819 231.299 896.599C221.389 907.679 206.71 914.169 188.86 915.359C186.97 915.489 185.01 915.559 183.04 915.559C181.75 915.559 180.459 915.559 179.189 915.469C176.669 915.359 174.13 915.149 171.63 914.829C170.41 914.669 169.17 914.489 167.95 914.279C164.364 913.685 160.819 912.859 157.339 911.809L155.65 911.279C154.5 910.899 153.38 910.499 152.33 910.099C149.125 908.895 146.024 907.43 143.059 905.719C140.688 904.34 138.446 902.751 136.36 900.969C135.84 900.529 135.36 900.079 134.87 899.629C134.24 899.019 133.629 898.389 133.009 897.679C131.554 896.065 130.283 894.295 129.219 892.399C128.869 891.779 128.569 891.189 128.299 890.609C127.419 888.697 126.785 886.681 126.41 884.609C126.217 883.548 126.086 882.476 126.019 881.399C126.019 880.949 126.019 880.519 126.019 880.089C126.019 879.469 126.019 878.859 126.019 878.249C126.019 877.639 126.08 877.249 126.13 876.799V876.629C126.13 876.169 126.22 875.719 126.29 875.259C126.36 874.799 126.479 874.129 126.599 873.559C126.679 873.139 126.759 872.769 126.849 872.409C126.989 871.859 127.159 871.259 127.339 870.659C127.342 870.619 127.342 870.579 127.339 870.539L127.58 869.789C127.78 869.199 128.019 868.589 128.259 867.969L128.509 867.379C128.789 866.739 129.08 866.099 129.4 865.459C129.4 865.399 129.549 865.169 129.559 865.149C129.909 864.479 130.27 863.819 130.66 863.149C136.07 853.999 145.57 846.769 152.83 842.199C148.16 799.849 148.3 761.139 153.25 726.969C154.423 718.923 155.843 711.176 157.509 703.729C153.281 704.684 148.964 705.196 144.63 705.259H143.49C137.773 705.32 132.074 704.624 126.54 703.189C125.76 702.979 124.979 702.749 124.219 702.509C122.689 702.009 121.219 701.439 119.759 700.809C116.237 699.269 112.957 697.228 110.019 694.749C108.893 693.811 107.821 692.809 106.809 691.749C103.474 688.128 100.876 683.893 99.1598 679.279C98.4803 677.445 97.9225 675.567 97.4899 673.659C97.3499 673.039 97.23 672.409 97.11 671.779C96.6829 669.367 96.4322 666.928 96.36 664.479C96.36 663.62 96.36 662.769 96.36 661.929C96.36 661.399 96.4399 660.929 96.4899 660.379V660.319C96.4899 660.039 96.4897 659.789 96.5797 659.529C96.6597 658.879 96.7698 658.209 96.9098 657.529C96.9098 657.459 96.9098 657.379 96.9098 657.299C97.0598 656.549 97.2494 655.779 97.4694 655.029C99.3229 648.666 103.099 643.033 108.28 638.899C94.1199 618.409 88.8798 597.669 92.6998 577.059C100.05 537.379 139.929 508.519 174.059 490.669C176.309 485.609 178.76 480.669 181.38 475.939C171.827 473.032 162.49 469.456 153.439 465.239C150.229 465.299 147.059 465.329 143.979 465.329C80.3491 465.329 39.78 452.399 23.4 426.899C12.08 409.269 15.6094 390.269 19.4694 381.819C20.2308 380.148 21.2961 378.632 22.61 377.349C13.0404 368.064 6.22258 356.315 2.90981 343.399C-3.68019 317.339 5.99965 292.339 13.7497 277.819C2.93965 270.819 0.089184 261.759 0.019184 254.349C-0.200816 233.609 22.2196 213.119 44.9596 197.709C38.9096 185.249 35.02 174.089 33.36 164.419C28.9 138.419 41.1097 125.829 48.7897 120.659C56.7527 115.415 66.1167 112.703 75.65 112.879C89.38 112.879 105.38 117.819 123.38 127.609V127.529C125.23 121.159 127.29 114.529 129.5 107.689L130.599 104.319C131.939 100.269 133.35 96.0791 134.82 91.8691L135.65 89.4893C136.65 86.6593 137.589 83.9694 138.519 81.3994C138.519 81.3994 139.23 79.3994 139.25 79.3994C141.11 74.2694 143.02 69.1495 144.92 64.1895L145.5 62.6895C146 61.3795 147.139 58.4692 147.139 58.4692C147.139 58.4692 149.249 53.1191 149.269 53.0791C149.789 51.7791 150.07 51.0791 150.07 51.0791C151.327 48.0081 153.567 45.441 156.439 43.7793L158.259 42.7295L158.38 42.6694L159.969 41.7891L162.45 40.4292L165.509 38.7793L166.65 38.1792C187.28 27.3092 227.579 8.17936 265.969 2.08936H266.07L268.57 1.70947H268.71C274.96 0.789618 281.263 0.281836 287.58 0.189453H288.84C341.37 0.189453 405.449 33.8091 417.759 40.5591L418.49 40.9595L418.849 41.1592C420.045 41.8244 421.142 42.6522 422.11 43.6191C422.74 44.2491 423.359 44.8991 423.979 45.6191L424.439 46.1191C424.959 46.6891 425.44 47.2293 425.9 47.7793L426.259 48.2095C426.839 48.8995 427.4 49.5893 427.95 50.2993L428.33 50.7891C428.78 51.3791 429.2 51.9393 429.62 52.5093L430.08 53.1494C430.58 53.8494 431.079 54.5793 431.59 55.3193L431.809 55.6592C432.259 56.3392 432.67 56.9792 433.08 57.6592L433.54 58.3892C433.9 58.9892 434.27 59.5892 434.63 60.1992L434.979 60.7891C435.399 61.5091 435.839 62.2791 436.269 63.0591L436.71 63.8594L437.62 65.5493L438.08 66.4292C438.45 67.1592 438.839 67.9395 439.229 68.7295L439.61 69.519C439.88 70.059 440.159 70.6395 440.429 71.2295L440.929 72.2993C441.169 72.8293 441.42 73.3694 441.66 73.9194L442.16 75.0391C442.47 75.7491 442.759 76.4494 443.059 77.1494L443.58 78.4092C443.77 78.8592 444.229 79.999 444.229 79.999L444.65 81.0591C444.89 81.6591 445.119 82.2591 445.349 82.8691C445.579 83.4791 445.83 84.129 446.07 84.769L446.5 85.9292L447.049 87.4492L447.42 88.519C447.77 89.519 448.1 90.5195 448.42 91.4595L448.7 92.2993C448.89 92.8393 449.079 93.429 449.269 94.019L449.549 94.8794C450.159 96.7994 450.77 98.7991 451.36 100.809L452.12 103.399L452.17 103.589C452.58 105.039 452.99 106.499 453.38 107.959C453.38 108.019 453.38 108.069 453.38 108.129C454.56 112.509 455.689 117.129 456.759 121.839C469.979 115.959 481.99 112.999 492.62 112.999C502.156 112.821 511.524 115.533 519.49 120.779C527.89 126.429 537.49 137.609 535.66 158.779C534.94 166.929 532.609 175.929 528.559 186.039C549.729 198.469 566.169 211.669 575.559 223.889L575.82 224.229C576.44 225.039 576.989 225.809 577.519 226.559L577.95 227.199C578.42 227.889 578.829 228.529 579.219 229.199L579.79 230.119L580.46 231.279C580.8 231.889 581.11 232.469 581.4 233.039C581.59 233.409 581.739 233.729 581.889 234.039C582.169 234.619 582.44 235.219 582.7 235.819C582.82 236.109 582.95 236.429 583.07 236.749C583.32 237.349 583.549 237.989 583.759 238.629C583.839 238.829 583.91 239.059 583.99 239.299C584.23 240.079 584.45 240.859 584.65 241.689C584.65 241.889 584.74 242.089 584.78 242.279C584.99 243.279 585.149 244.129 585.259 244.979C585.259 245.039 585.32 245.529 585.32 245.529C585.435 246.495 585.498 247.467 585.509 248.439C585.517 249.441 585.471 250.443 585.37 251.439C585.37 251.439 585.3 252.119 585.29 252.179C585.171 253.152 584.996 254.117 584.769 255.069L584.63 255.619C584.44 256.359 584.18 257.179 583.88 257.999C583.799 258.229 583.72 258.419 583.65 258.619C583.289 259.523 582.881 260.407 582.429 261.269L582.07 261.919C581.73 262.529 581.32 263.179 580.9 263.819L580.509 264.389C579.969 265.129 579.43 265.819 578.86 266.489L578.33 267.079C577.83 267.619 577.33 268.079 576.86 268.589L576.339 269.089C575.769 269.609 575.179 270.089 574.519 270.639L573.799 271.199C573.259 271.609 572.799 271.959 572.259 272.309L571.309 272.939C570.789 273.269 570.31 273.589 569.75 273.889L568.75 274.429C568.26 274.699 567.749 274.939 567.309 275.189C566.869 275.439 566.359 275.669 565.849 275.899L564.639 276.459L563.509 276.939L562.24 277.449C561.6 277.699 560.94 277.949 560.24 278.189L559.299 278.529C557.859 279.019 556.299 279.529 554.689 279.959C562.219 294.699 570.79 318.649 564.5 343.559C561.183 356.473 554.366 368.222 544.799 377.509C546.105 378.794 547.165 380.305 547.929 381.969C550.708 388.613 551.98 395.79 551.655 402.985C551.33 410.179 549.416 417.212 546.049 423.579C537.569 439.489 520.439 450.959 495.049 457.809C498.869 466.469 502.949 475.179 506.939 483.699C508.479 486.993 510.006 490.259 511.519 493.499C521.269 514.499 531.109 536.679 534.809 556.499C534.809 556.499 534.939 557.119 534.979 557.349C540.399 587.619 538.449 636.169 515.089 673.299C509.719 681.876 503.235 689.704 495.809 696.579C494.549 697.749 493.17 698.949 491.62 700.249C489.82 701.749 487.91 703.249 485.96 704.649C470.29 716.069 451.43 723.479 429.74 726.769C434.74 761.039 434.94 799.849 430.24 842.489C437.5 847.059 446.99 854.279 452.4 863.429C452.78 864.069 453.139 864.729 453.509 865.429C453.509 865.529 453.62 865.639 453.67 865.759C453.98 866.369 454.269 866.979 454.549 867.639L454.799 868.229C455.049 868.839 455.28 869.459 455.49 870.079C455.58 870.349 455.669 870.649 455.769 870.939C455.939 871.519 456.109 872.099 456.259 872.689C456.349 873.069 456.42 873.399 456.49 873.739V873.839C456.61 874.419 456.719 874.979 456.799 875.539C456.879 876.099 456.92 876.419 456.96 876.899C456.96 876.899 456.96 877.019 456.96 877.039C457.02 877.589 457.06 878.039 457.08 878.499C457.08 879.149 457.08 879.759 457.08 880.349C457.08 880.939 457.08 881.239 457.08 881.669C457.013 882.743 456.882 883.811 456.689 884.869C455.681 890.061 453.171 894.842 449.469 898.619C449.079 899.039 448.66 899.459 448.21 899.889C447.44 900.629 446.559 901.399 445.639 902.139C441.132 905.634 436.109 908.407 430.75 910.359C429.75 910.749 428.6 911.149 427.45 911.519C426.3 911.889 425.18 912.239 424.03 912.519C422.88 912.799 421.709 913.139 420.549 913.409L418.759 913.809C417.599 914.049 416.38 914.279 415.16 914.489C411.438 915.121 407.681 915.518 403.91 915.679C402.64 915.739 401.35 915.759 400.07 915.769L400.13 915.489ZM61.4 289.489C65.166 293.277 69.412 296.555 74.0299 299.239C74.7499 296.253 75.5267 293.289 76.36 290.349C70.99 290.139 66.02 289.859 61.4 289.489ZM490.9 286.729C492.087 290.729 493.179 294.759 494.179 298.819C499.919 295.386 505.052 291.028 509.37 285.919C503.67 286.269 497.55 286.489 490.9 286.739V286.729Z" fill="#231F20"/>
<path d="M520.139 558.89C516.859 541.38 507.949 520.96 497.979 499.5C478.659 511.5 430.67 531.44 355.63 499.7C354.27 521.38 354.26 542.77 354.75 562.11C386.39 575.41 461.669 599.54 520.139 558.89Z" fill="white"/>
<path d="M475.77 450.341C467.1 429.101 460.66 408.191 460.56 389.281C438.99 373.481 427.37 359.111 421.17 347.711C395.59 361.861 379.51 387.641 369.57 418.291C390.5 431.491 433.96 454.661 475.77 450.341Z" fill="white"/>
<path d="M352.67 643.029C349.06 651.539 343.54 656.379 337.55 658.969C340.66 672.149 347.86 692.439 364.4 710.049C440.33 722.499 481.4 698.469 502.5 664.939C472.67 677.259 419.89 686.089 352.67 643.029Z" fill="white"/>
<path d="M460.56 389.28C460.491 383.403 461.163 377.54 462.56 371.83C476.35 316.96 427.32 344.6 427.32 344.6C425.22 345.6 423.179 346.601 421.189 347.711C427.369 359.111 438.99 373.49 460.56 389.28Z" fill="#7A7176"/>
<path d="M497.979 499.489C490.529 483.429 482.48 466.779 475.77 450.329C433.96 454.649 390.5 431.499 369.57 418.279C361.42 443.399 357.39 471.779 355.63 499.689C430.67 531.489 478.669 511.489 497.979 499.489Z" fill="#7A7176"/>
<path d="M502.47 664.941C524.47 629.941 524.77 584.691 520.28 559.611C520.23 559.371 520.18 559.131 520.14 558.891C461.71 599.541 386.39 575.411 354.75 562.111C355.24 581.351 356.22 598.581 356.84 612.051C357.46 625.691 355.75 635.721 352.64 643.051C419.89 686.091 472.67 677.261 502.47 664.941Z" fill="#7A7176"/>
<path d="M306.28 658.561L321.6 700.131C335.641 704.307 349.925 707.619 364.37 710.051C347.83 692.441 340.63 672.151 337.52 658.971C323.23 665.161 306.28 658.561 306.28 658.561Z" fill="#7A7176"/>
<path opacity="0.52" d="M502.47 664.939C524.47 629.939 524.77 584.689 520.28 559.609C520.23 559.369 520.18 559.129 520.14 558.889C516.86 541.379 507.949 520.959 497.979 499.499C490.529 483.439 482.48 466.789 475.77 450.339C467.1 429.099 460.66 408.189 460.56 389.279C460.491 383.402 461.163 377.539 462.56 371.829C467.72 351.279 464.07 342.299 457.49 339.109C438.34 353.569 417.81 380.579 426.83 427.829C442.56 510.209 501.35 685.649 316.83 687.129L321.62 700.129C335.661 704.305 349.944 707.618 364.39 710.049C440.3 722.489 481.36 698.489 502.47 664.939Z" fill="#AFACAE"/>
<path d="M493.197 665.455C502.702 648.917 504.366 632.038 496.914 627.755C489.461 623.472 475.715 633.407 466.21 649.945C456.705 666.484 455.042 683.363 462.494 687.646C469.946 691.929 483.693 681.994 493.197 665.455Z" fill="white"/>
<path d="M496.084 610.895C499.128 604.101 498.258 597.098 494.141 595.253C490.023 593.407 484.217 597.418 481.172 604.212C478.128 611.006 478.998 618.01 483.115 619.855C487.233 621.7 493.039 617.688 496.084 610.895Z" fill="white"/>
<path d="M490.498 521.846C496.404 519.238 496.25 505.934 490.154 492.132C484.058 478.33 474.328 469.256 468.422 471.865C462.517 474.473 462.67 487.777 468.766 501.579C474.862 515.381 484.592 524.455 490.498 521.846Z" fill="white"/>
<path d="M197.3 645.489C214.56 629.159 146.73 675.539 168.82 850.359C168.82 850.359 137.969 864.81 141.059 881.9C144.149 898.99 197.929 911.219 220.059 886.539C242.189 861.859 247.77 821.149 246.25 787.259C272.08 775.489 295.799 699.559 279.429 663.759C279.379 663.709 250.8 602.689 197.3 645.489Z" fill="#C9C3C7"/>
<path opacity="0.52" d="M143.49 870.701C141.43 874.191 140.35 877.951 141.06 881.851C144.15 898.951 197.93 911.171 220.06 886.491C242.19 861.811 247.77 821.101 246.25 787.211C270.45 776.211 292.78 708.881 282.06 670.971C276.63 702.671 261.29 745.581 218.94 769.121C218.94 769.121 226.491 846.121 207.651 868.031C191.561 886.691 171.11 887.111 143.49 870.701Z" fill="#AFACAE"/>
<path d="M385.75 645.489C368.5 629.159 436.319 675.539 414.229 850.359C414.229 850.359 445.09 864.81 442 881.9C438.91 898.99 385.13 911.219 363 886.539C340.87 861.859 335.29 821.149 336.81 787.259C310.97 775.489 287.26 699.559 303.63 663.759C303.67 663.709 332.25 602.689 385.75 645.489Z" fill="#C9C3C7"/>
<path opacity="0.52" d="M439.56 870.701C441.71 873.994 442.579 877.961 442 881.851C438.91 898.951 385.13 911.171 363 886.491C340.87 861.811 335.29 821.101 336.81 787.211C312.61 776.211 290.271 708.881 300.991 670.971C306.421 702.671 321.76 745.581 364.12 769.121C364.12 769.121 356.571 846.121 375.411 868.031C391.491 886.691 411.94 887.111 439.56 870.701Z" fill="#AFACAE"/>
<path d="M289.61 423.59C226.84 423.59 175.76 494.05 175.76 580.65C175.76 667.25 226.84 737.72 289.61 737.72C352.38 737.72 403.46 667.26 403.46 580.65C403.46 494.04 352.39 423.59 289.61 423.59Z" fill="#231F20"/>
<path d="M289.62 742.949C355.38 742.949 408.69 670.289 408.69 580.659C408.69 491.029 355.38 418.369 289.62 418.369C223.859 418.369 170.55 491.029 170.55 580.659C170.55 670.289 223.859 742.949 289.62 742.949Z" fill="#C9C3C7"/>
<path d="M289.61 423.59C226.84 423.59 175.76 494.05 175.76 580.65C175.76 667.25 226.84 737.72 289.61 737.72C352.38 737.72 403.46 667.26 403.46 580.65C403.46 494.04 352.39 423.59 289.61 423.59Z" fill="#231F20"/>
<path d="M289.62 742.949C355.38 742.949 408.69 670.289 408.69 580.659C408.69 491.029 355.38 418.369 289.62 418.369C223.859 418.369 170.55 491.029 170.55 580.659C170.55 670.289 223.859 742.949 289.62 742.949Z" fill="#C9C3C7"/>
<path opacity="0.52" d="M408.67 580.65C408.68 567.212 407.452 553.802 405 540.59C393.83 594.92 351.68 680.23 197.52 683.59C219.36 719.84 252.52 742.97 289.59 742.97C355.37 742.94 408.67 670.28 408.67 580.65Z" fill="#AFACAE"/>
<path d="M223.111 485.49C223.111 485.49 41.59 545.25 131.47 643.73C131.47 643.73 110.78 648.13 111.27 663.87C111.7 677.71 119.48 690.5 144.35 690.17C170.52 689.82 199.48 666.71 180.74 635.49C164.35 608.16 145.4 591.16 189.5 574.06" fill="#C9C3C7"/>
<path opacity="0.52" d="M189.5 574.08C145.4 591.18 164.35 608.18 180.74 635.51C199.48 666.73 170.52 689.84 144.35 690.18C119.48 690.52 111.699 677.73 111.269 663.89C111.215 662.232 111.418 660.576 111.87 658.98C127.23 683.86 137.87 675.73 149.72 671.83C162.79 667.53 176.66 649.22 145.62 608.17C112.46 564.32 191.97 540.97 191.97 540.97L203.87 536.23L189.5 574.08Z" fill="#AFACAE"/>
<path d="M155.344 541.598C161.948 536.991 165.511 530.69 163.303 527.523C161.094 524.357 153.95 525.526 147.346 530.133C140.741 534.74 137.178 541.041 139.387 544.207C141.596 547.373 148.74 546.205 155.344 541.598Z" fill="white"/>
<path d="M172.467 659.092C174.147 652.288 172.44 646.015 168.655 645.08C164.87 644.145 160.439 648.903 158.759 655.707C157.079 662.511 158.786 668.785 162.571 669.72C166.356 670.654 170.787 665.896 172.467 659.092Z" fill="white"/>
<path d="M152.06 675.04C154.484 675.04 156.45 673.074 156.45 670.65C156.45 668.225 154.484 666.26 152.06 666.26C149.635 666.26 147.67 668.225 147.67 670.65C147.67 673.074 149.635 675.04 152.06 675.04Z" fill="white"/>
<path d="M356.11 485.49C356.11 485.49 537.63 545.25 447.76 643.73C447.76 643.73 468.44 648.13 467.95 663.87C467.52 677.71 459.75 690.5 434.88 690.17C408.7 689.82 379.749 666.71 398.479 635.49C414.879 608.16 433.82 591.16 389.72 574.06" fill="#C9C3C7"/>
<path opacity="0.52" d="M389.72 574.08C433.82 591.18 414.879 608.18 398.479 635.51C379.749 666.73 408.7 689.84 434.88 690.18C459.75 690.52 467.52 677.73 467.95 663.89C468.01 662.232 467.807 660.575 467.35 658.98C451.99 683.86 441.35 675.73 429.5 671.83C416.43 667.53 402.56 649.22 433.61 608.17C466.76 564.32 387.26 540.97 387.26 540.97L375.36 536.23L389.72 574.08Z" fill="#AFACAE"/>
<path d="M439.513 542.461C441.722 539.294 438.158 532.993 431.554 528.386C424.95 523.779 417.806 522.611 415.597 525.777C413.388 528.943 416.951 535.245 423.556 539.852C430.16 544.459 437.304 545.627 439.513 542.461Z" fill="white"/>
<path d="M417.318 668.627C421.103 667.693 422.81 661.419 421.129 654.615C419.449 647.811 415.019 643.052 411.234 643.987C407.448 644.922 405.741 651.196 407.421 658C409.101 664.804 413.532 669.562 417.318 668.627Z" fill="white"/>
<path d="M427.18 675.04C429.605 675.04 431.57 673.074 431.57 670.65C431.57 668.225 429.605 666.26 427.18 666.26C424.755 666.26 422.79 668.225 422.79 670.65C422.79 673.074 424.755 675.04 427.18 675.04Z" fill="white"/>
<path d="M289.62 703.76C338.751 703.76 378.58 640.104 378.58 561.58C378.58 483.057 338.751 419.4 289.62 419.4C240.489 419.4 200.66 483.057 200.66 561.58C200.66 640.104 240.489 703.76 289.62 703.76Z" fill="white"/>
<path opacity="0.52" d="M335.4 430.811H243.82C224.82 441.611 208.31 458.931 195.82 480.721C211.77 485.491 259.409 498.901 286.729 497.201C314.049 495.501 366.18 484.201 383.25 480.341C370.73 458.721 354.3 441.551 335.4 430.811Z" fill="#AFACAE"/>
<path d="M450.89 241.69C424.02 243.48 397.17 244.25 370.31 244.78C343.45 245.31 316.6 245.339 289.75 245.099C262.9 244.859 236.06 244.28 209.21 243.32C182.36 242.36 155.53 241.039 128.7 238.749C155.57 236.939 182.43 236.169 209.28 235.639C236.13 235.109 262.99 235.079 289.84 235.329C316.69 235.579 343.54 236.159 370.38 237.119C397.22 238.079 424.06 239.41 450.89 241.69Z" fill="#231F20"/>
<path d="M183.2 191.969C183.2 191.969 97.1998 105.969 57.1398 132.969C17.0798 159.969 113.25 271.419 113.25 271.419L183.2 191.969Z" fill="#C6BFC3"/>
<path d="M170.309 199.559C170.309 199.559 92.1093 130.759 72.4393 146.789C52.7693 162.819 118.349 256.099 118.349 256.099L170.309 199.559Z" fill="#7A7176"/>
<path d="M385.1 191.969C385.1 191.969 471.1 105.969 511.17 132.969C551.24 159.969 455.06 271.419 455.06 271.419L385.1 191.969Z" fill="#C6BFC3"/>
<path d="M397.99 199.559C397.99 199.559 476.19 130.759 495.86 146.789C515.53 162.819 449.96 256.099 449.96 256.099L397.99 199.559Z" fill="#7A7176"/>
<path d="M284.15 159.939C76.4604 162.299 82.4297 352.219 82.4297 352.219C106.58 487.879 284.15 472.539 284.15 472.539C284.15 472.539 461.72 487.879 485.87 352.219C485.87 352.219 491.85 162.299 284.15 159.939Z" fill="#C9C3C7"/>
<path d="M435.06 323.761C435.06 323.761 508.25 336.121 533.86 273.891C533.86 273.891 589.339 347.381 505.189 385.891C505.189 385.891 519.57 397.431 534.4 387.941C534.4 387.941 564.73 454.171 409.97 450.031L435.06 323.761Z" fill="white"/>
<path d="M132.44 323.761C132.44 323.761 59.24 336.121 33.64 273.891C33.64 273.891 -21.8401 347.381 62.3099 385.891C62.3099 385.891 47.9202 397.431 33.0902 387.941C33.0902 387.941 2.75986 454.171 157.52 450.031" fill="white"/>
<path d="M482.91 320.949C456.26 288.169 403.23 230.159 361.91 230.289C304.31 230.459 282.54 271.4 282.54 271.4C282.54 271.4 260.78 230.459 203.18 230.289C163.36 230.169 112.7 283.989 85.18 317.239C81.57 337.969 82.0101 352.239 82.0101 352.239C106.16 487.899 283.73 472.559 283.73 472.559C283.73 472.559 461.301 487.899 485.451 352.239C485.485 341.757 484.635 331.289 482.91 320.949Z" fill="white"/>
<path d="M482.16 366.599C462.67 329.599 422.41 273.499 361.79 285.459C272.79 302.999 317.29 367.229 336.73 396.949C345.42 410.239 355.79 439.599 361.87 466.609C409.39 456.349 464.24 430.429 482.16 366.599Z" fill="#7A7176"/>
<path d="M204.01 285.49C144.5 273.75 104.62 327.61 84.7402 364.56C101.84 429.18 156.35 455.67 204.01 466.28C210.09 439.37 220.41 410.21 229.07 396.98C248.51 367.23 292.96 303 204.01 285.49Z" fill="#7A7176"/>
<path d="M307.53 367.339C303.86 356.819 300.4 336.269 300.4 296.169C300.4 242.469 329.4 195.769 350.88 168.469C331.53 163.309 309.44 160.219 284.15 159.939C258.58 160.229 236.26 163.369 216.75 168.649C238.26 195.969 267.09 242.579 267.09 296.169C267.09 336.269 263.64 356.819 259.97 367.339C257.38 374.779 261.34 382.669 269.71 386.559L273.71 388.399C276.86 389.894 280.303 390.669 283.79 390.669C287.277 390.669 290.72 389.894 293.87 388.399L297.87 386.559C306.16 382.669 310.12 374.779 307.53 367.339Z" fill="#7A7176"/>
<path d="M268.67 416.4C264.266 416.556 259.961 415.069 256.592 412.229C253.223 409.388 251.03 405.397 250.44 401.03C250.385 400.294 250.614 399.566 251.079 398.993C251.544 398.421 252.21 398.048 252.942 397.951C253.673 397.854 254.413 398.04 255.012 398.471C255.61 398.902 256.021 399.545 256.16 400.269C256.567 403.25 258.079 405.969 260.396 407.888C262.713 409.807 265.666 410.785 268.67 410.63C275.61 410.63 280.1 390.37 280.95 376.63C281.037 375.896 281.402 375.223 281.969 374.749C282.536 374.276 283.263 374.038 284 374.084C284.738 374.13 285.43 374.457 285.934 374.997C286.438 375.538 286.715 376.251 286.71 376.99C286.29 383.61 283.51 416.4 268.67 416.4Z" fill="#231F20"/>
<path d="M298.97 416.4C284.13 416.4 281.34 383.61 280.97 377.04C280.964 376.301 281.242 375.588 281.746 375.048C282.25 374.507 282.942 374.181 283.68 374.135C284.417 374.088 285.145 374.327 285.712 374.8C286.279 375.274 286.643 375.946 286.73 376.68C287.6 390.78 291.99 410.68 299 410.68C302.004 410.835 304.958 409.857 307.274 407.938C309.591 406.02 311.103 403.301 311.51 400.32C311.649 399.596 312.06 398.952 312.658 398.521C313.257 398.09 313.998 397.904 314.729 398.001C315.46 398.098 316.126 398.471 316.591 399.044C317.056 399.616 317.284 400.344 317.23 401.08C316.628 405.443 314.426 409.427 311.052 412.258C307.678 415.089 303.371 416.566 298.97 416.4Z" fill="#231F20"/>
<path d="M310.37 376.489C310.37 384.859 285.03 393.419 285.03 393.419C285.03 393.419 257.26 384.859 257.26 376.489C257.26 368.119 269.15 361.359 283.82 361.359C298.49 361.359 310.37 368.119 310.37 376.489Z" fill="#231F20"/>
<path d="M196.42 386.37C218.473 386.37 236.35 368.492 236.35 346.44C236.35 324.387 218.473 306.51 196.42 306.51C174.367 306.51 156.49 324.387 156.49 346.44C156.49 368.492 174.367 386.37 196.42 386.37Z" fill="#F7F8E2"/>
<path d="M236.34 346.49C236.76 351.804 236.041 357.147 234.229 362.16C232.381 367.258 229.506 371.921 225.78 375.86C222.012 379.84 217.472 383.011 212.439 385.18C207.376 387.354 201.925 388.475 196.415 388.475C190.905 388.475 185.452 387.354 180.389 385.18C175.355 383.012 170.817 379.841 167.05 375.86C163.319 371.924 160.442 367.26 158.599 362.16C156.792 357.149 156.073 351.811 156.49 346.5C157.272 356.808 161.842 366.462 169.32 373.6C176.646 380.516 186.34 384.369 196.415 384.369C206.49 384.369 216.183 380.516 223.509 373.6C230.984 366.456 235.554 356.8 236.34 346.49Z" fill="#231F20"/>
<path d="M236.34 346.489C235.552 336.185 230.983 326.537 223.509 319.399C216.186 312.479 206.491 308.623 196.415 308.623C186.338 308.623 176.644 312.479 169.32 319.399C161.842 326.538 157.272 336.191 156.49 346.499C156.073 341.188 156.792 335.85 158.599 330.839C160.445 325.741 163.321 321.077 167.05 317.139C170.819 313.161 175.358 309.991 180.389 307.819C185.451 305.642 190.904 304.52 196.415 304.52C201.925 304.52 207.377 305.642 212.439 307.819C217.474 309.981 222.014 313.149 225.78 317.129C229.508 321.071 232.384 325.738 234.229 330.839C236.04 335.846 236.76 341.182 236.34 346.489Z" fill="#231F20"/>
<path d="M198.3 373.319C212.765 373.319 224.49 361.594 224.49 347.129C224.49 332.665 212.765 320.939 198.3 320.939C183.836 320.939 172.11 332.665 172.11 347.129C172.11 361.594 183.836 373.319 198.3 373.319Z" fill="#040809"/>
<path d="M366.54 386.37C388.593 386.37 406.47 368.492 406.47 346.44C406.47 324.387 388.593 306.51 366.54 306.51C344.488 306.51 326.61 324.387 326.61 346.44C326.61 368.492 344.488 386.37 366.54 386.37Z" fill="#F7F8E2"/>
<path d="M406.47 346.49C406.886 351.804 406.167 357.146 404.36 362.16C402.512 367.258 399.636 371.921 395.91 375.86C392.138 379.836 387.601 383.006 382.57 385.18C377.505 387.318 372.068 388.436 366.57 388.47C361.071 388.445 355.631 387.323 350.57 385.17C345.535 383.005 340.995 379.833 337.229 375.85C333.499 371.914 330.623 367.25 328.78 362.15C326.968 357.141 326.248 351.801 326.67 346.49C327.443 356.798 332.011 366.454 339.49 373.59C346.818 380.507 356.513 384.36 366.59 384.36C376.667 384.36 386.362 380.507 393.689 373.59C401.136 366.435 405.686 356.788 406.47 346.49Z" fill="#231F20"/>
<path d="M406.47 346.491C405.679 336.188 401.11 326.54 393.64 319.401C386.313 312.482 376.617 308.627 366.54 308.627C356.462 308.627 346.766 312.482 339.439 319.401C331.981 326.543 327.433 336.193 326.67 346.491C326.248 341.18 326.968 335.84 328.78 330.831C330.626 325.732 333.501 321.068 337.229 317.131C340.997 313.151 345.537 309.979 350.57 307.811C355.625 305.64 361.069 304.521 366.57 304.521C372.071 304.521 377.515 305.64 382.57 307.811C387.602 309.977 392.141 313.145 395.91 317.121C399.638 321.062 402.515 325.729 404.36 330.831C406.168 335.842 406.886 341.18 406.47 346.491Z" fill="#231F20"/>
<path d="M368.43 373.319C382.895 373.319 394.62 361.594 394.62 347.129C394.62 332.665 382.895 320.939 368.43 320.939C353.966 320.939 342.24 332.665 342.24 347.129C342.24 361.594 353.966 373.319 368.43 373.319Z" fill="#040809"/>
<path d="M419.67 317.04C419.106 317.041 418.553 316.88 418.078 316.575C417.602 316.27 417.225 315.834 416.991 315.321C416.431 314.091 402.89 285.25 371.42 288.75C371.036 288.793 370.647 288.76 370.276 288.652C369.905 288.545 369.559 288.365 369.257 288.124C368.955 287.882 368.703 287.583 368.517 287.245C368.331 286.906 368.213 286.535 368.17 286.151C368.128 285.767 368.161 285.378 368.269 285.007C368.376 284.635 368.556 284.289 368.797 283.987C369.039 283.685 369.338 283.434 369.676 283.247C370.015 283.061 370.386 282.943 370.77 282.901C406.55 278.901 422.19 312.541 422.35 312.901C422.658 313.614 422.677 314.42 422.403 315.147C422.128 315.875 421.583 316.468 420.88 316.801C420.499 316.966 420.086 317.048 419.67 317.04Z" fill="#231F20"/>
<path d="M147.849 317.041C147.357 317.041 146.872 316.919 146.439 316.683C146.007 316.448 145.64 316.107 145.373 315.693C145.106 315.279 144.947 314.804 144.912 314.313C144.876 313.822 144.965 313.329 145.17 312.881C145.32 312.541 160.97 278.881 196.75 282.881C197.134 282.924 197.506 283.041 197.845 283.228C198.183 283.414 198.481 283.666 198.722 283.967C198.964 284.269 199.144 284.616 199.252 284.987C199.359 285.358 199.392 285.747 199.349 286.131C199.307 286.515 199.189 286.887 199.003 287.225C198.816 287.564 198.565 287.863 198.263 288.104C197.962 288.346 197.615 288.525 197.244 288.632C196.873 288.74 196.484 288.774 196.099 288.731C164.629 285.231 151.1 314.071 150.53 315.301C150.293 315.814 149.914 316.249 149.44 316.557C148.966 316.865 148.415 317.033 147.849 317.041Z" fill="#231F20"/>
<path d="M14.9997 254.04C15.3397 287.15 139.57 273.18 293 271.6C446.43 270.02 570.91 281.43 570.57 248.32C570.23 215.21 445.06 140.21 291.67 141.79C138.28 143.37 14.6697 220.93 14.9997 254.04Z" fill="#EEC96C"/>
<path d="M40.3894 251.55C40.1994 233.1 78.4594 200.88 138.889 175.67L132.53 182.67C132.53 182.67 196.089 186.32 201.689 200.81C207.289 215.3 338.519 223.81 338.519 223.81C338.519 223.81 432.62 277.13 562.84 231.6C567.84 237.78 570.5 243.45 570.55 248.24C570.66 258.92 557.769 264.96 535.139 268.3C484.259 271.46 406.05 268.12 318.37 269.02C164.96 270.68 40.7294 284.65 40.3894 251.55Z" fill="#E2B554"/>
<path d="M453.161 200.49C453.161 200.49 446.241 88.6694 411.531 54.0794C411.531 54.0794 341.19 14.4693 287.73 15.0193C234.27 15.5693 163.96 56.6297 163.96 56.6297C163.96 56.6297 119.381 165.249 126.911 203.849C126.911 203.849 230.81 239 292.64 238.36C354.47 237.72 453.161 200.49 453.161 200.49Z" fill="#EEC96C"/>
<path d="M126.91 203.83C122.91 183.14 133.81 142.34 144.82 108.92C183.07 139.29 283.92 203.15 453.16 200.47C453.16 200.47 354.469 237.71 292.639 238.34C230.809 238.97 126.91 203.83 126.91 203.83Z" fill="#E2B554"/>
<path d="M126.91 203.83C125.05 194.28 126.379 180.44 129.429 165.02C129.429 165.02 236.83 189.25 292.13 188.68C347.43 188.11 448.92 161.73 448.92 161.73C452.14 183.99 453.16 200.47 453.16 200.47C453.16 200.47 354.469 237.71 292.639 238.34C230.809 238.97 126.91 203.83 126.91 203.83Z" fill="#6874B5"/>
<path d="M218.55 90.5894C195.536 94.2228 172.296 96.2278 149 96.5894C157 73.5894 164 56.5894 164 56.5894C164 56.5894 220.53 23.5891 270.75 16.3691C267.95 46.1091 256.84 84.4894 218.55 90.5894Z" fill="#CB9B3B"/>
<path d="M327.139 72.3105C314.939 60.6605 313.759 34.9208 314.549 17.5508C362.049 26.2108 411.549 54.0605 411.549 54.0605C423.869 66.3305 432.679 88.3308 438.929 111.611C406.669 106.761 342.039 86.4905 327.139 72.3105Z" fill="#CB9B3B"/>
<path d="M185.658 98.2726C191.694 86.9074 190.868 74.658 183.815 70.9125C176.762 67.167 166.152 73.3437 160.116 84.7089C154.081 96.074 154.906 108.323 161.959 112.069C169.013 115.814 179.623 109.638 185.658 98.2726Z" fill="white"/>
<path d="M547.461 231.191C550.391 226.673 544.766 217.821 534.897 211.419C525.027 205.017 514.651 203.49 511.721 208.008C508.791 212.525 514.415 221.377 524.285 227.779C534.154 234.181 544.53 235.708 547.461 231.191Z" fill="white"/>
<path d="M504.86 205.52C507.76 205.52 510.11 203.169 510.11 200.27C510.11 197.37 507.76 195.02 504.86 195.02C501.961 195.02 499.61 197.37 499.61 200.27C499.61 203.169 501.961 205.52 504.86 205.52Z" fill="white"/>
<path d="M400.55 782.44C405.758 782.44 409.98 774.788 409.98 765.35C409.98 755.911 405.758 748.26 400.55 748.26C395.342 748.26 391.12 755.911 391.12 765.35C391.12 774.788 395.342 782.44 400.55 782.44Z" fill="white"/>
<path d="M179.97 777.129C185.178 777.129 189.4 769.478 189.4 760.039C189.4 750.601 185.178 742.949 179.97 742.949C174.762 742.949 170.54 750.601 170.54 760.039C170.54 769.478 174.762 777.129 179.97 777.129Z" fill="white"/>
<path d="M404.62 744.03C406.868 744.03 408.69 741.205 408.69 737.72C408.69 734.235 406.868 731.41 404.62 731.41C402.372 731.41 400.55 734.235 400.55 737.72C400.55 741.205 402.372 744.03 404.62 744.03Z" fill="white"/>
<path d="M433.362 875.276C435.13 873.657 434.361 869.941 431.645 866.976C428.929 864.011 425.295 862.92 423.527 864.539C421.76 866.158 422.529 869.874 425.244 872.839C427.96 875.804 431.595 876.895 433.362 875.276Z" fill="white"/>
<path d="M193.96 408.951C179.433 408.951 165.232 404.643 153.154 396.572C141.075 388.502 131.66 377.03 126.101 363.609C120.542 350.188 119.087 335.42 121.921 321.172C124.755 306.924 131.751 293.836 142.023 283.564C152.295 273.292 165.383 266.296 179.631 263.462C193.879 260.628 208.647 262.083 222.069 267.642C235.49 273.201 246.961 282.615 255.031 294.694C263.102 306.773 267.41 320.974 267.41 335.501C267.389 354.974 259.643 373.645 245.873 387.415C232.103 401.185 213.434 408.93 193.96 408.951ZM193.96 276.771C182.343 276.767 170.986 280.209 161.325 286.66C151.664 293.111 144.134 302.283 139.686 313.014C135.238 323.746 134.072 335.556 136.337 346.95C138.602 358.344 144.195 368.81 152.408 377.026C160.622 385.241 171.088 390.836 182.482 393.102C193.875 395.369 205.685 394.206 216.417 389.76C227.15 385.313 236.323 377.784 242.776 368.124C249.229 358.464 252.672 347.108 252.67 335.491C252.649 319.926 246.457 305.004 235.451 293.996C224.446 282.989 209.525 276.795 193.96 276.771Z" fill="#221E57"/>
<path opacity="0.37" d="M248.211 357.964C260.621 328.002 246.393 293.653 216.431 281.243C186.47 268.832 152.121 283.06 139.71 313.022C127.3 342.983 141.528 377.332 171.489 389.743C201.451 402.153 235.8 387.925 248.211 357.964Z" fill="#69A9DC"/>
<path opacity="0.44" d="M166.13 387.199L246.27 362.129C250.511 353.829 252.709 344.635 252.68 335.313C252.65 325.992 250.394 316.812 246.1 308.539L136.17 345.899C137.749 354.589 141.26 362.812 146.446 369.961C151.632 377.11 158.36 383.001 166.13 387.199Z" fill="white"/>
<path d="M373.54 408.951C359.013 408.951 344.812 404.643 332.734 396.572C320.655 388.502 311.24 377.03 305.681 363.609C300.122 350.188 298.667 335.42 301.501 321.172C304.335 306.924 311.331 293.836 321.603 283.564C331.875 273.292 344.963 266.296 359.211 263.462C373.459 260.628 388.227 262.083 401.649 267.642C415.07 273.201 426.541 282.615 434.612 294.694C442.682 306.773 446.99 320.974 446.99 335.501C446.969 354.974 439.223 373.645 425.453 387.415C411.683 401.185 393.014 408.93 373.54 408.951ZM373.54 276.771C361.924 276.769 350.568 280.212 340.908 286.664C331.249 293.116 323.72 302.287 319.274 313.019C314.827 323.75 313.662 335.559 315.927 346.952C318.192 358.346 323.785 368.811 331.998 377.026C340.211 385.24 350.676 390.835 362.069 393.102C373.461 395.369 385.271 394.206 396.003 389.761C406.735 385.317 415.908 377.789 422.362 368.131C428.815 358.472 432.26 347.117 432.26 335.501C432.244 319.931 426.053 305.004 415.044 293.994C404.036 282.984 389.11 276.789 373.54 276.771Z" fill="#221E57"/>
<path opacity="0.37" d="M427.793 357.974C440.203 328.012 425.975 293.663 396.013 281.252C366.052 268.842 331.703 283.07 319.292 313.031C306.882 342.993 321.11 377.342 351.071 389.752C381.033 402.163 415.382 387.935 427.793 357.974Z" fill="#69A9DC"/>
<path opacity="0.44" d="M345.72 387.199L425.85 362.129C430.09 353.829 432.288 344.636 432.26 335.315C432.232 325.994 429.979 316.814 425.689 308.539L315.76 345.899C317.336 354.59 320.848 362.814 326.034 369.963C331.22 377.112 337.948 383.003 345.72 387.199Z" fill="white"/>
<path d="M314.81 340.579H303.99C303.873 335.288 301.688 330.253 297.904 326.552C294.12 322.852 289.038 320.779 283.745 320.779C278.452 320.779 273.37 322.852 269.586 326.552C265.802 330.253 263.618 335.288 263.5 340.579H252.67C252.816 332.437 256.153 324.677 261.963 318.971C267.773 313.264 275.592 310.066 283.735 310.066C291.879 310.066 299.697 313.264 305.507 318.971C311.317 324.677 314.654 332.437 314.8 340.579H314.81Z" fill="#221E57"/>
</g>
<defs>
<clipPath id="clip0_5494_545">
<rect width="585.55" height="935.83" fill="white"/>
</clipPath>
</defs>
</svg>
