<svg width="34" height="36" viewBox="0 0 34 36" fill="none" xmlns="http://www.w3.org/2000/svg">
<path d="M12.5898 32C13.7634 32 14.7148 30.9926 14.7148 29.75C14.7148 28.5074 13.7634 27.5 12.5898 27.5C11.4162 27.5 10.4648 28.5074 10.4648 29.75C10.4648 30.9926 11.4162 32 12.5898 32Z" fill="#A3A3A3"/>
<path d="M25.5 32C26.6736 32 27.625 30.9926 27.625 29.75C27.625 28.5074 26.6736 27.5 25.5 27.5C24.3264 27.5 23.375 28.5074 23.375 29.75C23.375 30.9926 24.3264 32 25.5 32Z" fill="#A3A3A3"/>
<path d="M31.2423 5.36999C31.1545 5.25527 31.0437 5.1626 30.9179 5.09862C30.7922 5.03465 30.6546 5.00096 30.5151 4.99999H10.8518L11.4657 6.99999H29.2779L26.7562 19H12.5896L8.27346 4.52999C8.22677 4.37645 8.1457 4.23714 8.03716 4.12396C7.92862 4.01077 7.79583 3.92707 7.65013 3.87999L3.7779 2.61999C3.65884 2.58125 3.53373 2.56772 3.40973 2.58017C3.28572 2.59262 3.16525 2.63082 3.05519 2.69257C2.83291 2.81728 2.66652 3.03038 2.59262 3.28499C2.51873 3.53959 2.54339 3.81486 2.66117 4.05021C2.77896 4.28557 2.98022 4.46175 3.22068 4.53999L6.61124 5.63999L10.9462 20.14L9.39735 21.48L9.27457 21.61C8.89144 22.0775 8.67428 22.6718 8.66049 23.2906C8.6467 23.9094 8.83714 24.5139 9.19901 25C9.45643 25.3314 9.78354 25.5945 10.1542 25.7682C10.5248 25.9418 10.9287 26.0212 11.3335 26H27.0962C27.3467 26 27.5869 25.8946 27.7641 25.7071C27.9412 25.5196 28.0407 25.2652 28.0407 25C28.0407 24.7348 27.9412 24.4804 27.7641 24.2929C27.5869 24.1053 27.3467 24 27.0962 24H11.1823C11.0736 23.9961 10.9676 23.9625 10.8747 23.9025C10.7818 23.8426 10.705 23.7583 10.6518 23.6577C10.5987 23.5572 10.5709 23.4439 10.5712 23.3286C10.5715 23.2134 10.5998 23.1002 10.6535 23L12.9296 21H27.5118C27.7301 21.0056 27.9435 20.931 28.1157 20.7888C28.2879 20.6466 28.4083 20.4456 28.4562 20.22L31.4501 6.21999C31.4788 6.0709 31.4751 5.91685 31.4391 5.76955C31.403 5.62225 31.3358 5.4856 31.2423 5.36999Z" fill="#A3A3A3"/>
</svg>
