<svg width="849" height="944" viewBox="0 0 849 944" fill="none" xmlns="http://www.w3.org/2000/svg">
<g clip-path="url(#clip0_4873_545)">
<path d="M370.39 943.32C541.372 943.32 679.98 914.259 679.98 878.41C679.98 842.561 541.372 813.5 370.39 813.5C199.408 813.5 60.7998 842.561 60.7998 878.41C60.7998 914.259 199.408 943.32 370.39 943.32Z" fill="#A7A9AC"/>
<path d="M350.29 869.389C348.208 869.389 346.149 868.956 344.244 868.116C342.339 867.277 340.629 866.05 339.224 864.514C337.818 862.978 336.748 861.167 336.081 859.194C335.414 857.222 335.165 855.133 335.35 853.059C335.41 852.289 336.78 834.439 336.84 810.319C324.79 760.009 301.66 718.989 267.92 687.959C268.08 690.059 268.13 691.839 268.18 693.199C268.63 707.469 258.27 736.199 245.08 757.129C245.08 757.189 244 758.819 244 758.819L243.52 759.559L242.47 761.129C242.27 761.429 241.42 762.649 241.42 762.649C241.06 763.169 240.72 763.649 240.42 764.119L239.31 765.619L238.84 766.239L238.11 767.189L237.65 767.769L236.99 768.589L236.51 769.179C236.2 769.549 235.9 769.919 235.59 770.269L235.15 770.789L234.15 771.929C234.15 771.929 233.15 773.019 232.91 773.279C232.67 773.539 232.56 773.659 232.37 773.849C232.18 774.039 231.86 774.379 231.6 774.649L231.08 775.169C230.8 775.449 230.51 775.739 230.21 776.019L229.75 776.459L228.59 777.539L227.42 778.539L226.57 779.249L225.62 780.009L224.68 780.729C224.6 780.799 223.28 781.729 223.23 781.729L222.14 782.469L221.67 782.769L221.38 782.949L221.29 783.009L220.44 783.529L220.26 783.639L219.74 783.929L218.93 784.379L218.56 784.589L218.1 784.819L218.22 784.759L217.29 785.219L216.84 785.429L216.45 785.619L215.62 785.979L214.62 786.389L213.98 786.629L213.23 786.899L212.76 787.059L212.18 787.239L211.44 787.459L210.8 787.629L210.28 787.759H210.15L209.58 787.899L208.83 788.049L208.19 788.169L207.7 788.259L206.7 788.399L206.12 788.469H205.72C205.13 788.529 204.48 788.569 203.83 788.589H202.83C183.11 788.589 166.47 769.729 154.94 751.339C153.063 750.918 151.239 750.291 149.5 749.469C148.351 748.932 147.239 748.321 146.17 747.639L145.71 747.339C143.042 745.615 140.677 743.463 138.71 740.969C134.029 743.371 128.851 744.645 123.59 744.689C117.572 744.633 111.661 743.084 106.39 740.179C96.5899 734.959 91.9399 727.179 90.3899 719.099C69.3399 718.149 60.9299 706.939 57.7499 700.099C57.3603 699.28 57.0489 698.427 56.8199 697.549C54.9399 690.359 54.1799 676.309 69.8199 662.079C66.1724 655.634 65.1414 648.033 66.9399 640.849C66.6005 638.26 66.6005 635.638 66.9399 633.049C54.7599 629.839 45.6999 621.359 41.3599 608.729C37.3599 597.179 39.7699 587.469 44.8099 580.059C28.1499 563.699 29.8099 548.539 32.1999 540.949C32.4816 540.086 32.8397 539.249 33.2699 538.449C36.8899 531.699 46.2699 520.379 68.2699 520.379C68.8999 520.379 69.5299 520.379 70.1499 520.379C71.9899 511.609 77.3299 503.149 88.4099 498.009C93.5699 495.539 99.2093 494.231 104.93 494.179C111.585 494.165 118.11 496.022 123.76 499.539C127.071 495.421 131.4 492.239 136.32 490.309C139.623 488.982 143.15 488.303 146.71 488.309C153.94 488.309 160.48 491.119 166.13 495.089C168.514 492.355 171.426 490.132 174.691 488.553C177.956 486.974 181.507 486.071 185.13 485.899H185.43C185.81 485.899 186.19 485.899 186.57 485.899C210.78 487.739 227.09 503.449 232.49 530.129C232.484 530.162 232.484 530.196 232.49 530.229C236.13 548.329 234.39 569.409 231.49 586.819C263.237 600.459 292.26 619.722 317.16 643.679C292.48 542.569 246.8 459.829 181.16 397.329C178.925 398.632 176.625 399.82 174.27 400.889L173.21 401.369C170.781 402.418 168.293 403.326 165.76 404.089C165.04 404.309 164.32 404.509 163.61 404.699L162 405.089C157.829 406.061 153.562 406.557 149.28 406.569H148.45C135.4 406.369 127.09 401.439 125.56 400.449C124.964 400.066 124.396 399.642 123.86 399.179C118.8 400.689 113.55 401.464 108.27 401.479C96.5539 401.606 85.2003 397.42 76.3699 389.719C73.6086 387.072 71.9631 383.47 71.7699 379.649C46.1899 376.939 27.7699 360.259 25.8899 344.599C25.6499 342.501 25.8554 340.377 26.493 338.364C27.1306 336.351 28.1859 334.496 29.5899 332.919C26.5698 330.429 23.6794 327.785 20.9299 324.999C4.54989 308.419 4.32989 299.589 4.24989 296.689C4.0837 292.228 5.66192 287.877 8.64989 284.559C3.40579 279.519 0.31353 272.647 0.0198914 265.379C-0.147958 261.972 0.850278 258.61 2.84997 255.847C4.84966 253.084 7.73138 251.085 11.0199 250.179L11.9399 249.929C7.42989 240.629 3.93989 228.799 7.18989 217.679C7.7501 215.753 8.691 213.959 9.95691 212.402C11.2228 210.846 12.788 209.56 14.5599 208.619C19.8903 205.889 25.8118 204.515 31.7999 204.619C36.9666 204.691 42.1049 205.396 47.0999 206.719C47.0999 206.399 47.1499 206.069 47.1699 205.719C47.3833 202.313 48.752 199.081 51.0501 196.557C53.3482 194.034 56.4382 192.369 59.8099 191.839C66.9832 190.691 74.3248 192.311 80.3499 196.369C82.0407 194.117 84.245 192.301 86.7793 191.073C89.3136 189.845 92.1046 189.24 94.9199 189.309C98.1745 189.417 101.391 190.041 104.45 191.159C97.7899 183.279 96.2399 174.849 97.4499 167.209C78.4499 159.149 74.5299 145.919 73.8999 138.639C73.8149 137.734 73.8149 136.824 73.8999 135.919C74.5999 128.639 78.6299 115.439 97.6999 107.549C96.5099 99.6391 98.2899 90.9091 105.6 82.8691C112.6 75.1591 121.47 71.0791 131.2 71.0791C132.489 71.0785 133.778 71.1486 135.06 71.2891C136.523 67.0215 138.969 63.1575 142.2 60.0091C144.774 57.4796 147.828 55.49 151.181 54.1574C154.535 52.8248 158.122 52.176 161.73 52.2491H162.73C163.08 51.4091 163.47 50.5791 163.89 49.7491C165.776 45.7769 168.528 42.2778 171.944 39.5089C175.36 36.7401 179.353 34.772 183.63 33.7491C184.24 13.5691 194.93 5.23914 201.38 2.02914C202.192 1.62095 203.038 1.28628 203.91 1.02914C206.576 0.261416 209.336 -0.129046 212.11 -0.130859C223.16 -0.130859 232.03 5.86914 238.47 12.4391C242.738 10.0182 247.563 8.74999 252.47 8.75914C256.322 8.78193 260.138 9.50713 263.73 10.8991C273.28 14.5291 280.2 21.1291 283.73 29.9691C284.194 31.1366 284.595 32.3284 284.93 33.5391H285.93C289.958 33.5472 293.941 34.3988 297.62 36.0391C306.86 40.1091 311.69 48.0391 313.62 57.2691C315.503 57.296 317.377 57.5274 319.21 57.9591C321.659 54.8756 325.222 52.8786 329.13 52.3991L330.07 52.2891C326.95 42.4291 325.22 30.2291 330.07 19.6891C330.902 17.8642 332.092 16.2248 333.57 14.8679C335.047 13.5109 336.781 12.464 338.67 11.7891C342.339 10.5043 346.202 9.86159 350.09 9.88914C357.4 9.88914 364.8 12.0291 371.09 14.6591C371.157 14.3391 371.227 14.0058 371.3 13.6591C372.003 10.3194 373.823 7.31915 376.462 5.1538C379.1 2.98846 382.397 1.78747 385.81 1.74914H386.14C393.309 1.69463 400.23 4.37696 405.49 9.24914C407.12 7.59588 409.065 6.28715 411.211 5.40072C413.357 4.51429 415.658 4.06826 417.98 4.08914C425.66 4.08914 435.34 9.17914 446.74 19.2091C449.627 21.7344 452.384 24.4045 455 27.2091C456.393 25.8069 458.049 24.6936 459.873 23.9334C461.697 23.1731 463.654 22.7809 465.63 22.7791C465.92 22.7791 466.2 22.7791 466.49 22.7791C473.49 23.1791 481.02 26.9591 487.59 33.4091C496.441 42.4416 502.275 53.9948 504.29 66.4791H504.36C508.136 66.4837 511.771 67.9121 514.54 70.4791C522.22 77.5791 531.9 94.6691 526.78 117.279C527.29 117.803 527.765 118.361 528.2 118.949C529.471 120.746 530.56 122.666 531.45 124.679C531.67 125.149 531.89 125.679 532.12 126.199C532.35 126.719 532.56 127.319 532.79 127.919C533.02 128.519 533.21 129.109 533.42 129.759C533.55 130.169 533.67 130.559 533.78 130.959C534.279 132.666 534.686 134.399 535 136.149C535.09 136.649 535.17 137.149 535.24 137.619C535.36 138.399 535.47 139.259 535.56 140.149C535.65 141.039 535.72 142.009 535.76 142.929C535.8 143.849 535.83 144.809 535.82 145.719C535.82 156.109 532.82 166.719 527.03 177.239L526.3 178.549C525.253 180.382 524.117 182.216 522.89 184.049C523.45 185.199 524.01 186.359 524.55 187.529C528.94 188.721 533.093 190.656 536.83 193.249C539.708 195.241 541.799 198.178 542.74 201.549L542.92 201.689C556.707 190.034 571.3 179.367 586.59 169.769C584.701 160.372 584.677 150.695 586.52 141.289C586.63 140.739 586.75 140.209 586.88 139.679C587.15 138.529 587.46 137.399 587.81 136.229C592.88 119.499 603.3 111.799 605.34 110.429C606.039 109.961 606.775 109.55 607.54 109.199C610.38 85.3291 625.78 72.0791 635.71 67.8791C637.527 67.11 639.479 66.707 641.452 66.6933C643.425 66.6795 645.382 67.0553 647.21 67.7991C658.62 47.0291 678.03 37.1591 691.74 37.1591C694.248 37.1361 696.747 37.4728 699.16 38.1591C701.303 38.7967 703.276 39.9052 704.935 41.4036C706.594 42.9019 707.898 44.7522 708.75 46.8191C721.51 40.1191 736.59 35.6691 745.19 35.6691C751.58 35.6691 756.66 37.6691 760.3 41.5991C761.657 43.0649 762.747 44.7572 763.52 46.5991C767.266 45.0121 771.292 44.1894 775.36 44.1791C778.83 44.1815 782.272 44.8081 785.52 46.0291C788.718 47.2229 791.413 49.4719 793.161 52.4046C794.908 55.3373 795.603 58.7783 795.13 62.1591C795.04 62.7591 794.97 63.3491 794.89 63.9091C796.39 63.8191 797.89 63.7691 799.48 63.7691C811.48 63.7691 821.03 66.6791 827.98 72.3991C829.528 73.6749 830.804 75.2482 831.734 77.026C832.663 78.8038 833.226 80.7499 833.39 82.7491C834.39 94.8491 828.15 106.279 821.52 114.749L823.05 115.529C826.096 117.071 828.526 119.605 829.937 122.715C831.348 125.824 831.656 129.321 830.81 132.629C828.945 139.996 824.281 146.346 817.81 150.329C819.059 152.289 819.899 154.481 820.279 156.773C820.659 159.066 820.571 161.412 820.02 163.669C818.24 171.409 810.62 179.829 797.38 188.669C793.835 191.045 790.163 193.224 786.38 195.199C787.582 197.077 788.35 199.2 788.629 201.412C788.907 203.625 788.689 205.872 787.99 207.989C786.607 211.97 784.352 215.591 781.39 218.589C779.519 220.528 777.466 222.283 775.26 223.829C780.179 222.056 785.361 221.12 790.59 221.059C798.312 220.972 805.815 223.622 811.77 228.539C812.469 229.118 813.111 229.761 813.69 230.459C818.8 236.589 825.96 250.039 816.63 271.459C824.31 276.629 829.95 284.959 830.56 296.749C831.26 310.199 825.9 321.339 815.92 328.819C818.181 332.834 819.501 337.31 819.78 341.909C825.192 345.788 829.422 351.091 832 357.229C836.16 366.759 835.41 375.589 831.81 382.939C832.069 383.487 832.299 384.048 832.5 384.619C832.88 384.959 833.26 385.309 833.62 385.619C834.287 386.119 834.927 386.619 835.54 387.119C836.832 388.204 838.054 389.37 839.2 390.609C841.165 392.728 842.471 395.372 842.96 398.219C846.079 404.59 846.902 411.842 845.29 418.749C845.078 419.634 844.787 420.497 844.42 421.329C843.936 422.438 843.385 423.517 842.77 424.559C847.49 434.559 848.47 444.949 848.77 452.699C849.23 466.959 838.89 495.599 825.77 516.569L824.59 518.319L824.1 519.079L823.1 520.629C822.89 520.949 822.04 522.179 822.04 522.179L821.04 523.639L819.96 525.109L818.8 526.619L817.86 527.809C819.641 532.053 820.375 536.662 820 541.249C819.784 543.361 819.123 545.404 818.06 547.242C816.996 549.079 815.554 550.67 813.83 551.909C816.235 554.99 818.478 558.195 820.55 561.509C832.93 581.269 831.23 589.929 830.68 592.779C829.828 597.193 827.283 601.097 823.59 603.659C827.614 609.719 829.137 617.101 827.84 624.259C827.261 627.625 825.551 630.692 822.993 632.954C820.434 635.216 817.181 636.537 813.77 636.699H812.77C815.15 646.759 815.97 659.059 810.39 669.209C809.423 670.968 808.114 672.515 806.539 673.759C804.964 675.002 803.155 675.917 801.22 676.449C798.409 677.226 795.507 677.627 792.59 677.639C784.27 677.639 776.01 674.709 769.16 671.259C769.07 671.559 768.98 671.859 768.89 672.179C767.987 675.3 766.094 678.044 763.497 679.997C760.9 681.95 757.739 683.007 754.49 683.009H753.49C746.218 682.607 739.384 679.407 734.42 674.079C731.262 676.846 727.198 678.358 723 678.329C720.05 678.329 711.07 678.329 694.35 661.329C691.541 658.494 688.887 655.51 686.4 652.389C683.673 654.75 680.187 656.049 676.58 656.049C675.911 656.052 675.243 656.008 674.58 655.919C671.648 655.504 668.808 654.595 666.18 653.229C662.386 651.244 658.946 648.646 656 645.539C655.46 644.979 654.9 644.379 654.36 643.749C651.557 640.529 649.14 636.991 647.16 633.209C644.944 628.994 643.229 624.533 642.05 619.919C641.78 618.919 641.52 617.759 641.27 616.489C640.91 614.729 640.63 612.919 640.42 611.129C640.36 610.599 640.31 610.069 640.26 609.549C636.443 609.299 632.866 607.6 630.26 604.799C628.94 603.389 618.26 591.319 619 571.709C617.32 574.799 615.57 577.819 613.77 580.709L612.67 582.439L611.52 584.179L611.15 584.729L610.05 586.319C609.74 586.769 609.39 587.249 609.05 587.729L607.94 589.229L607.45 589.879C607.23 590.159 607.02 590.439 606.8 590.709L606.28 591.379L605.14 592.789L604.21 593.899L603.78 594.399L602.78 595.549L602.33 596.049L601.53 596.919L601 597.469L600.24 598.269L599.73 598.769C599.45 599.059 599.17 599.329 598.9 599.589L598.42 600.049L597.72 600.689L597.04 601.309L595.96 602.309L595.19 602.939L594.25 603.699L593.73 604.099L593.64 604.169L593.3 604.429L592.2 605.219L591.86 605.469L590.52 606.359L590.01 606.679L589.92 606.739L589.07 607.259L588.8 607.419L588.38 607.659L587.57 608.109L587.16 608.329L586.71 608.559L585.9 608.959L585.43 609.189L585.01 609.379L584.26 609.699L583.66 609.949L583.15 610.159L582.62 610.359L581.82 610.639L581.36 610.799L580.79 610.969L580.08 611.179L579.47 611.349L578.88 611.499L578.18 611.659C578 611.709 577.73 611.759 577.45 611.809L576.84 611.929L576.33 612.019L575.33 612.159L574.74 612.229H574.36C573.8 612.279 573.14 612.329 572.48 612.349H571.48C565.06 612.349 558.56 610.349 552.15 606.349C551.57 605.989 551.01 605.629 550.45 605.249C549.4 604.539 548.32 603.749 547.24 602.909C546.16 602.069 545.18 601.249 544.17 600.359C543.16 599.469 542.17 598.589 541.25 597.639L539.83 596.229C536.521 592.814 533.434 589.19 530.59 585.379C529.77 584.279 528.97 583.169 528.17 582.039C527.37 580.909 526.6 579.779 525.84 578.639C523.99 575.849 522.16 572.909 520.39 569.869C519.7 568.689 519.02 567.499 518.39 566.309C514.564 559.384 511.168 552.231 508.22 544.889C498.46 561.839 488.92 579.959 479.71 599.109C433.65 694.819 408.51 788.479 402.91 810.549C402.82 837.489 401.19 854.089 401 855.929C400.619 859.621 398.883 863.041 396.127 865.527C393.371 868.013 389.791 869.389 386.08 869.389H350.29ZM224.1 347.259C263.067 384.136 296.064 426.846 321.91 473.859C336.753 500.812 349.482 528.876 359.98 557.799C361.98 547.999 364.077 538.332 366.27 528.799C375.517 488.43 387.655 448.778 402.59 410.149C376.93 345.339 339.34 293.849 307.54 258.149C304.194 265.742 300.325 273.093 295.96 280.149L294.83 281.909L294.37 282.619L293.28 284.249L292.28 285.749C291.93 286.239 291.6 286.749 291.28 287.169C291.28 287.169 290.4 288.369 290.17 288.669L289.69 289.319L289.02 290.169L288.5 290.839L287.36 292.259L286.46 293.329L285.99 293.879L284.99 294.999L284.53 295.499L283.73 296.369L283.22 296.909C282.94 297.209 282.68 297.469 282.41 297.739L281.9 298.259L281.1 299.039L280.7 299.419L280.63 299.489L279.94 300.129L279.27 300.739L278.19 301.679L277.39 302.339C277.06 302.619 276.75 302.859 276.45 303.099L275.45 303.889L275.21 304.069L275.36 303.959L274.47 304.609L274.18 304.809L273.02 305.599L272.61 305.859L272.23 306.099L271.31 306.659L271.05 306.819L270.61 307.069L269.81 307.509L269.43 307.719L268.96 307.959L268.11 308.379L267.71 308.569L267.25 308.779L266.55 309.089L265.49 309.529L264.84 309.769L264.06 310.049L263.6 310.199L263.04 310.369C263.04 310.369 262.51 310.539 262.31 310.589L261.65 310.769L261.13 310.899L260.46 311.059L259.7 311.219L259.05 311.339L258.54 311.429L257.54 311.559L256.86 311.639H256.63C256.01 311.699 255.36 311.749 254.71 311.769H253.71C243.39 311.769 233.71 306.509 225 298.519C225.46 299.519 225.9 300.579 226.31 301.669C226.55 302.319 226.78 302.959 227.01 303.669C227.24 304.379 227.51 305.269 227.75 306.119C227.99 306.969 228.14 307.629 228.33 308.439C228.44 308.949 228.56 309.489 228.67 310.039C228.78 310.589 228.84 310.939 228.91 311.399C229.07 312.299 229.19 313.199 229.3 314.129V314.469C229.641 317.577 229.731 320.707 229.57 323.829C229.52 324.979 229.43 326.129 229.31 327.259C229.053 329.675 228.665 332.075 228.15 334.449C227.89 335.679 227.58 336.949 227.24 338.199C226.79 339.849 226.24 341.569 225.65 343.329C225.48 343.799 225.32 344.259 225.15 344.719C224.79 345.539 224.45 346.389 224.1 347.259ZM498.63 361.259C469.73 412.569 446.9 473.689 430.73 543.039C429.843 546.846 428.977 550.682 428.13 554.549C432.45 545.979 436.83 537.609 441.23 529.549C453.768 506.298 467.575 483.753 482.59 462.019C489.71 451.779 497.03 441.929 504.35 432.719C507.88 428.289 511.62 423.719 515.48 419.219C515.95 418.679 516.48 417.909 517.11 417.099C518.394 415.29 519.787 413.56 521.28 411.919C522.54 410.579 523.81 409.359 524.92 408.279C526.03 407.199 526.86 406.409 527.64 405.559C561.4 369.199 597.5 343.109 635.17 327.809C629.58 316.239 625.83 305.459 623.97 295.619V295.469C619.7 272.599 625.8 254.179 641.22 242.559C640.49 242.289 639.77 241.999 639.06 241.699C635.212 240.052 631.528 238.043 628.06 235.699C627.23 235.139 626.39 234.539 625.54 233.919C624.69 233.299 624.05 232.809 623.29 232.209C622.76 231.789 622.23 231.349 621.69 230.909L619.96 229.419C619.41 228.919 618.85 228.419 618.3 227.899C594.597 243.516 573.003 262.119 554.05 283.249C550 298.409 540.7 318.249 530.54 333.019L529.36 334.699L528.26 336.249L527.75 336.929L526.59 338.539C526.26 338.979 525.9 339.439 525.54 339.899L524.37 341.349L523.88 341.939L523.16 342.809L522.64 343.419L521.42 344.809L520.47 345.859L520.02 346.349L518.95 347.469L518.47 347.959L517.66 348.769L517.1 349.309L516.29 350.079L515.79 350.539L514.9 351.349L514.41 351.779L513.09 352.899L511.95 353.809L511.03 354.519C510.74 354.739 510.43 354.969 510.11 355.189L509.06 355.939L507.99 356.649L507.68 356.849L506.55 357.549L505.66 358.069L504.81 358.539L504.54 358.689L504.06 358.929L503.19 359.369L502.88 359.529L502.4 359.749L501.56 360.119L500.64 360.499L499.89 360.799L498.89 361.179L498.63 361.259ZM606.41 421.699C623.7 428.019 644.81 437.289 664.86 451.099C664.64 450.579 664.43 450.099 664.22 449.519C663.192 446.844 662.313 444.113 661.59 441.339L661.45 440.809C661.08 439.359 660.75 437.959 660.45 436.599C660.455 436.539 660.455 436.479 660.45 436.419C660.16 434.999 659.9 433.539 659.66 432.079C659.66 432.079 659.66 432.019 659.66 431.979C659.44 430.659 659.25 429.299 659.07 427.819C658.87 426.189 658.69 424.499 658.55 422.819C658.55 422.759 658.55 422.709 658.55 422.649C658.47 421.709 658.4 420.769 658.34 419.829C658.34 419.829 658.34 419.699 658.34 419.659C657.8 409.563 658.031 399.44 659.03 389.379C641.23 396.739 623.65 407.539 606.41 421.659V421.699ZM312.59 169.299C319.79 175.929 326.9 182.759 333.79 189.709C364.19 220.369 405.48 268.649 439.03 331.929C440.03 330.069 441.09 328.219 442.13 326.379C441.64 325.559 441.13 324.729 440.67 323.889C439.34 321.569 438.01 319.139 436.74 316.659C435.21 313.709 433.74 310.659 432.35 307.579C432.08 306.979 431.81 306.379 431.55 305.779C431.017 304.579 430.507 303.389 430.02 302.209C429.53 301.009 429.02 299.839 428.6 298.679C425.23 290.069 421.23 277.939 421.3 269.019C421.3 269.019 421.3 266.559 421.3 266.519C421.3 266.479 421.3 265.059 421.3 265.039C421.3 265.019 421.3 263.769 421.3 263.749C421.3 263.329 421.36 262.099 421.37 262.039C421.365 261.966 421.365 261.892 421.37 261.819L421.42 260.819L421.55 259.059C421.55 258.599 421.68 257.559 421.69 257.449C421.69 256.959 421.79 256.449 421.85 255.939C421.85 255.889 421.91 255.499 421.91 255.499V255.239L422.03 254.329V254.219C422.03 254.219 422.2 253.059 422.21 253.009C422.21 252.939 422.37 252.069 422.37 252.069C422.45 251.599 422.53 251.139 422.62 250.689L422.71 250.289C422.83 249.719 422.95 249.159 423.08 248.599C423.08 248.489 423.21 248.069 423.21 248.069V247.929C423.3 247.569 423.39 247.199 423.49 246.839V246.719L423.58 246.409C423.65 246.149 423.86 245.409 423.9 245.299C423.94 245.189 424.11 244.609 424.12 244.579C424.287 244.039 424.467 243.499 424.66 242.959L424.82 242.499C425.08 241.769 425.37 241.049 425.67 240.319C425.67 240.319 425.74 240.139 425.77 240.079C425.93 239.689 426.11 239.279 426.29 238.869L426.46 238.499L426.86 237.659L427.34 236.709C427.63 236.149 427.94 235.579 428.25 235.019L428.56 234.489C428.85 233.989 429.2 233.429 429.56 232.869C429.56 232.869 429.99 232.199 430.09 232.059C430.19 231.919 430.37 231.649 430.51 231.449C428.373 228.541 426.638 225.36 425.35 221.989C425.22 221.649 425.1 221.299 425 220.989L424.54 220.709C423.134 219.862 421.796 218.906 420.54 217.849C420.002 217.378 419.497 216.87 419.03 216.329C416.354 216.714 413.654 216.908 410.95 216.909C387.16 216.909 374.74 201.839 373.41 200.119C371.051 197.093 369.942 193.278 370.31 189.459C359.405 186.774 349.449 181.142 341.53 173.179C333.96 165.399 329.74 156.289 329.97 148.179C330.057 146.033 330.603 143.93 331.573 142.014C332.542 140.097 333.912 138.411 335.59 137.069C333.005 134.227 330.568 131.253 328.29 128.159C321.512 136.372 313.811 143.777 305.34 150.229C306.805 151.422 308.185 152.715 309.47 154.099C311.326 156.108 312.598 158.585 313.148 161.264C313.698 163.943 313.505 166.722 312.59 169.299Z" fill="#231F20"/>
<path d="M715.22 343.709C714.963 341.359 714.246 339.083 713.11 337.01C711.973 334.937 710.44 333.108 708.596 331.628C706.753 330.148 704.636 329.045 702.367 328.383C700.097 327.721 697.72 327.513 695.37 327.769C639.93 333.839 587.19 363.439 538.62 415.769C536.56 417.989 534.27 419.979 532.2 422.189C530.13 424.399 528.75 426.759 526.88 428.959C523.2 433.266 519.596 437.633 516.07 442.059C508.69 451.333 501.63 460.826 494.89 470.539C480.207 491.808 466.693 513.861 454.41 536.599C447.076 550.046 440.11 563.679 433.51 577.499C418.3 609.159 405.32 640.43 394.51 669.13C399.101 625.543 406.324 582.274 416.14 539.559C445.54 413.449 511.94 250.139 661.34 188.259C665.508 186.279 668.757 182.774 670.415 178.467C672.073 174.16 672.013 169.381 670.248 165.117C668.483 160.852 665.148 157.429 660.931 155.554C656.714 153.678 651.938 153.494 647.59 155.039C602.34 173.779 561.7 201.619 526.06 238.179C509.15 164.079 463.48 130.539 461.24 128.939L440.24 158.209L440.15 158.149C440.28 158.239 452.95 167.669 466.05 187.379C482.41 211.989 492.2 240.949 495.2 273.539C485.002 286.636 475.493 300.255 466.71 314.339C456.509 330.742 447.163 347.662 438.71 365.029C404.87 291.729 358.62 236.029 323.15 200.279C277.53 154.279 240.01 130.689 238.44 129.709L219.38 160.259C219.74 160.479 255.57 183.099 298.38 226.399C336.16 264.629 387.02 327.079 418.71 410.199C403.75 447.566 391.153 488.233 380.92 532.199C373.74 563.139 368.3 593.249 364.18 621.529C350.92 570.769 332.37 523.669 308.82 481.119C272.57 415.599 224.39 360.819 165.62 318.289L144.52 347.459C243.41 419.019 308.13 525.06 336.87 662.63C339.4 674.75 341.52 686.629 343.3 698.069C341.78 695.809 340.23 693.57 338.65 691.37C320.316 665.813 297.639 643.674 271.65 625.959C227.09 595.539 187.59 587.979 185.89 587.679C183.548 587.197 181.133 587.186 178.786 587.647C176.44 588.108 174.208 589.032 172.223 590.365C170.238 591.698 168.538 593.414 167.223 595.411C165.908 597.408 165.004 599.648 164.564 601.999C164.124 604.349 164.157 606.764 164.661 609.102C165.165 611.439 166.13 613.653 167.499 615.614C168.868 617.575 170.614 619.243 172.635 620.521C174.656 621.8 176.912 622.663 179.27 623.059C179.61 623.129 214.19 629.989 252.61 656.589C303.07 691.519 336.44 742.659 351.84 808.589C351.84 834.659 350.32 854.049 350.29 854.409H386.1C386.26 852.859 387.91 836.059 387.93 808.699C391.87 792.929 417.77 693.299 466.21 592.629C492.35 538.309 520.55 492.849 550.21 457.139C553.65 458.279 557.51 459.459 561.89 460.789C592.36 470.079 643.37 485.639 669.89 527.539C671.137 529.571 672.775 531.335 674.709 532.728C676.643 534.121 678.834 535.117 681.156 535.656C683.477 536.196 685.883 536.269 688.233 535.871C690.584 535.474 692.831 534.613 694.846 533.34C696.862 532.067 698.604 530.406 699.971 528.454C701.339 526.502 702.306 524.297 702.815 521.969C703.324 519.64 703.366 517.234 702.938 514.889C702.509 512.544 701.619 510.308 700.32 508.309C668.25 457.559 610.99 438.209 577.18 427.809C616.11 389.809 657.18 368.189 699.31 363.579C704.054 363.054 708.396 360.666 711.38 356.939C714.363 353.213 715.745 348.454 715.22 343.709Z" fill="#66BE64"/>
<path d="M195.12 741.25C195.12 741.25 180.53 740.15 186.52 716.75C186.52 716.75 170.13 742.75 155.84 736.04C141.55 729.33 148.84 708.35 148.84 708.35C148.84 708.35 135.69 738.81 113.45 726.95C98.9199 719.2 107.21 702.56 107.21 702.56C107.21 702.56 78.8399 709.74 71.3699 693.79L222.83 639.01C222.83 639.01 248.25 740.14 195.12 741.25Z" fill="#4CA84E"/>
<path d="M93.3099 664.118C93.3099 664.118 76.3099 656.628 82.5099 641.378C92.0199 618.028 121.61 633.038 121.61 633.038C121.61 633.038 102.59 621.538 109.28 607.278C115.97 593.018 145.19 602.478 145.19 602.478C125.63 588.328 136.19 578.148 136.19 578.148C177.74 545.018 222.88 639.008 222.88 639.008L71.3699 693.788C66.9099 676.748 93.3099 664.118 93.3099 664.118Z" fill="#66BE64"/>
<g style="mix-blend-mode:multiply">
<path d="M225.66 715.179C226.273 713.046 226.787 710.849 227.2 708.589L227.29 708.119C227.52 706.849 227.72 705.559 227.9 704.259C227.9 703.959 227.97 703.669 228.01 703.369C228.13 702.429 228.23 701.489 228.33 700.539C228.47 699.069 228.59 697.599 228.67 696.109C228.78 694.269 228.85 692.429 228.88 690.579C229.33 664.869 222.83 639.009 222.83 639.009C222.83 639.009 203.07 597.869 177.65 579.619C215.59 673.539 148.84 708.349 148.84 708.349L146.99 719.539C146.99 720.289 146.99 721.049 147.05 721.809V721.869C147.05 722.229 147.11 722.579 147.15 722.939C147.145 722.976 147.145 723.013 147.15 723.049C147.15 723.389 147.24 723.719 147.29 724.049V724.219C147.34 724.539 147.41 724.849 147.48 725.169C147.475 725.242 147.475 725.316 147.48 725.389C147.55 725.689 147.63 725.979 147.71 726.279C147.738 726.368 147.761 726.458 147.78 726.549C147.87 726.829 147.96 727.099 148.06 727.379C148.06 727.479 148.12 727.589 148.16 727.689C148.26 727.949 148.37 728.199 148.47 728.459C148.57 728.719 148.56 728.689 148.62 728.809L148.97 729.509L149.16 729.889C149.28 730.109 149.42 730.319 149.55 730.539C149.68 730.759 149.7 730.799 149.79 730.929C149.88 731.059 150.07 731.329 150.22 731.519L150.51 731.919C150.66 732.109 150.83 732.289 150.99 732.469L151.34 732.869L151.87 733.369C152.01 733.499 152.13 733.629 152.27 733.749C152.41 733.869 152.66 734.059 152.85 734.209C153.04 734.359 153.15 734.459 153.31 734.569C153.47 734.679 153.76 734.859 153.98 734.999C154.2 735.139 154.3 735.219 154.47 735.319C154.64 735.419 155.08 735.649 155.4 735.809L155.75 735.989C170.04 742.689 186.43 716.699 186.43 716.699C185.374 720.478 184.905 724.397 185.04 728.319C185.12 730.86 185.776 733.349 186.96 735.599L187.44 736.379C187.61 736.629 187.78 736.869 187.95 737.089C188.26 737.467 188.594 737.825 188.95 738.159C189.177 738.392 189.407 738.602 189.64 738.789C190.732 739.694 191.993 740.374 193.35 740.789C193.908 740.977 194.485 741.105 195.07 741.169C196.663 741.14 198.253 741.01 199.83 740.779C201.984 740.464 204.099 739.925 206.14 739.169C209.258 738.018 212.134 736.295 214.62 734.089C215.593 733.226 216.508 732.301 217.36 731.319C218.22 730.325 219.018 729.28 219.75 728.189C220.12 727.639 220.48 727.069 220.82 726.499C222.286 724.007 223.505 721.378 224.46 718.649C224.93 717.539 225.31 716.389 225.66 715.179Z" fill="#4CA84E"/>
</g>
<path d="M172.41 635.439C176.673 636.031 180.71 637.716 184.129 640.331C187.548 642.945 190.232 646.4 191.92 650.359L149.59 644.439C152.295 641.099 155.818 638.515 159.816 636.938C163.815 635.361 168.153 634.844 172.41 635.439Z" fill="#9FCC3B"/>
<path d="M149.59 644.439L191.96 650.359C189.245 653.697 185.716 656.277 181.712 657.851C177.708 659.425 173.366 659.939 169.106 659.344C164.845 658.748 160.811 657.064 157.392 654.453C153.973 651.842 151.286 648.393 149.59 644.439Z" fill="#63B446"/>
<g style="mix-blend-mode:multiply">
<path d="M192.088 651.635C193.022 645.031 184.299 638.336 172.603 636.682C160.908 635.028 150.67 639.041 149.736 645.646C148.802 652.251 157.526 658.946 169.221 660.6C180.916 662.254 191.154 658.24 192.088 651.635Z" fill="#4CA84E"/>
</g>
<path d="M224.25 633.769C220.035 634.638 216.115 636.58 212.871 639.407C209.626 642.235 207.167 645.852 205.73 649.909L247.64 641.289C244.718 638.128 241.03 635.775 236.932 634.458C232.835 633.14 228.466 632.903 224.25 633.769Z" fill="#9FCC3B"/>
<path d="M247.64 641.289L205.73 649.909C208.652 653.067 212.34 655.418 216.437 656.733C220.534 658.048 224.901 658.284 229.116 657.417C233.33 656.55 237.25 654.61 240.495 651.785C243.74 648.959 246.201 645.344 247.64 641.289Z" fill="#63B446"/>
<g style="mix-blend-mode:multiply">
<path d="M229.134 657.422C240.704 655.041 248.994 647.813 247.649 641.278C246.304 634.744 235.834 631.377 224.263 633.758C212.692 636.14 204.403 643.368 205.747 649.902C207.092 656.437 217.563 659.804 229.134 657.422Z" fill="#4CA84E"/>
</g>
<path d="M201.339 622.025L192.989 622.275L193.905 652.815L202.255 652.565L201.339 622.025Z" fill="#63B446"/>
<path d="M199.31 649.179C146.92 650.859 147.87 680.539 148.4 697.039C148.94 713.809 178.29 774.529 203.31 773.729C228.33 772.929 253.72 710.449 253.18 693.679C252.66 677.179 248.46 647.609 199.31 649.179Z" fill="#F1594B"/>
<path d="M199.65 659.789C156.18 661.179 156.97 685.789 157.41 699.499C157.85 713.409 182.21 763.789 202.97 763.129C223.73 762.469 244.8 710.619 244.35 696.709C243.91 683.009 240.43 658.479 199.65 659.789Z" fill="#D91F26"/>
<path d="M203.31 773.729C213.53 773.399 223.83 762.729 232.39 749.149C182.64 743.149 170.77 684.149 167.94 655.629C147.39 665.629 148.01 684.899 148.4 697.039C148.94 713.809 178.29 774.539 203.31 773.729Z" fill="#D91F26"/>
<path d="M173.129 726.297C176.645 726.184 179.37 722.204 179.216 717.407C179.062 712.61 176.087 708.813 172.571 708.926C169.054 709.039 166.329 713.02 166.483 717.816C166.637 722.613 169.612 726.41 173.129 726.297Z" fill="#F1594B"/>
<path d="M173.046 723.739C175.15 723.671 176.766 720.873 176.658 717.49C176.549 714.106 174.756 711.418 172.653 711.485C170.55 711.553 168.933 714.351 169.042 717.734C169.15 721.118 170.943 723.806 173.046 723.739Z" fill="#FAF28C"/>
<path d="M210.95 767.442C214.466 767.329 217.192 763.349 217.038 758.552C216.884 753.755 213.908 749.958 210.392 750.071C206.876 750.184 204.15 754.164 204.304 758.961C204.459 763.758 207.434 767.555 210.95 767.442Z" fill="#F1594B"/>
<path d="M210.868 764.883C212.971 764.816 214.588 762.018 214.479 758.634C214.37 755.25 212.577 752.562 210.474 752.63C208.371 752.697 206.754 755.495 206.863 758.879C206.972 762.263 208.765 764.951 210.868 764.883Z" fill="#FAF28C"/>
<path opacity="0.62" d="M219.59 765.36C168.17 751.56 153.59 668.29 153.59 668.25C147.79 677.79 148.15 688.99 148.41 697.04C148.95 713.81 178.3 774.53 203.32 773.73C208.82 773.54 214.35 770.38 219.59 765.36Z" fill="#951B1E"/>
<path d="M248.339 690.989C248.984 685.454 246.501 680.616 242.793 680.184C239.084 679.752 235.555 683.888 234.91 689.423C234.264 694.958 236.747 699.796 240.456 700.228C244.164 700.66 247.693 696.524 248.339 690.989Z" fill="#F1594B"/>
<path d="M239.636 685.733C243.052 684.226 243.997 678.871 241.747 673.773C239.498 668.675 234.905 665.764 231.489 667.271C228.074 668.778 227.128 674.133 229.378 679.231C231.628 684.33 236.22 687.241 239.636 685.733Z" fill="#F6FAFE"/>
<path d="M221.01 666.8C223.6 666.8 225.7 664.7 225.7 662.11C225.7 659.52 223.6 657.42 221.01 657.42C218.42 657.42 216.32 659.52 216.32 662.11C216.32 664.7 218.42 666.8 221.01 666.8Z" fill="#F6FAFE"/>
<path d="M221.42 679.12C223.635 679.12 225.43 677.324 225.43 675.11C225.43 672.895 223.635 671.1 221.42 671.1C219.205 671.1 217.41 672.895 217.41 675.11C217.41 677.324 219.205 679.12 221.42 679.12Z" fill="#F6FAFE"/>
<path d="M213.25 628.709C209.397 630.628 206.105 633.51 203.692 637.076C201.28 640.641 199.829 644.768 199.48 649.059L237.79 629.989C234.156 627.681 229.987 626.35 225.688 626.126C221.389 625.901 217.104 626.791 213.25 628.709Z" fill="#9FCC3B"/>
<path d="M237.79 629.988L199.48 649.058C203.114 651.364 207.282 652.692 211.58 652.915C215.878 653.138 220.161 652.247 224.014 650.329C227.867 648.411 231.159 645.531 233.573 641.968C235.986 638.404 237.439 634.278 237.79 629.988Z" fill="#63B446"/>
<path d="M185.78 629.588C189.748 631.256 193.218 633.92 195.855 637.322C198.492 640.724 200.205 644.749 200.83 649.008L161.38 632.438C164.858 629.903 168.931 628.309 173.206 627.809C177.48 627.31 181.811 627.923 185.78 629.588Z" fill="#9FCC3B"/>
<path d="M161.38 632.439L200.83 649.009C197.351 651.542 193.278 653.135 189.004 653.632C184.73 654.13 180.399 653.515 176.432 651.849C172.465 650.183 168.995 647.521 166.358 644.12C163.721 640.72 162.006 636.697 161.38 632.439Z" fill="#63B446"/>
<path d="M229.29 639.819C230.361 639.819 231.23 638.951 231.23 637.879C231.23 636.808 230.361 635.939 229.29 635.939C228.218 635.939 227.35 636.808 227.35 637.879C227.35 638.951 228.218 639.819 229.29 639.819Z" fill="#F6FAFE"/>
<path d="M195.455 759.241C197.558 759.173 199.175 756.375 199.066 752.992C198.957 749.608 197.164 746.919 195.061 746.987C192.958 747.055 191.341 749.852 191.45 753.236C191.559 756.62 193.352 759.308 195.455 759.241Z" fill="#951B1E"/>
<path d="M188.576 728.028C190.679 727.96 192.296 725.162 192.187 721.779C192.079 718.395 190.286 715.707 188.183 715.774C186.079 715.842 184.463 718.64 184.571 722.023C184.68 725.407 186.473 728.095 188.576 728.028Z" fill="#951B1E"/>
<path d="M159.926 704.673C162.03 704.61 163.654 701.814 163.552 698.429C163.451 695.043 161.663 692.35 159.558 692.413C157.454 692.476 155.831 695.272 155.932 698.657C156.034 702.043 157.822 704.736 159.926 704.673Z" fill="#D91F26"/>
<path d="M181.533 744.625C183.636 744.558 185.253 741.76 185.144 738.376C185.035 734.993 183.242 732.304 181.139 732.372C179.036 732.439 177.419 735.237 177.528 738.621C177.637 742.005 179.43 744.693 181.533 744.625Z" fill="#D91F26"/>
<path d="M219.3 732.68C221.403 732.613 223.02 729.815 222.911 726.431C222.802 723.047 221.009 720.359 218.906 720.426C216.803 720.494 215.186 723.292 215.295 726.676C215.404 730.059 217.197 732.748 219.3 732.68Z" fill="#951B1E"/>
<path d="M208.407 714.668C210.51 714.601 212.127 711.803 212.018 708.419C211.91 705.036 210.116 702.347 208.013 702.415C205.91 702.482 204.293 705.28 204.402 708.664C204.511 712.048 206.304 714.736 208.407 714.668Z" fill="#951B1E"/>
<path d="M230.002 719.215C233.518 719.102 236.244 715.122 236.09 710.325C235.936 705.528 232.96 701.731 229.444 701.844C225.928 701.957 223.202 705.937 223.356 710.734C223.511 715.531 226.486 719.328 230.002 719.215Z" fill="#F1594B"/>
<path d="M228.454 717.747C230.558 717.684 232.182 714.888 232.08 711.503C231.979 708.117 230.191 705.424 228.086 705.487C225.982 705.55 224.359 708.346 224.46 711.732C224.562 715.117 226.35 717.81 228.454 717.747Z" fill="#FAF28C"/>
<path d="M208.934 689.987C212.451 689.874 215.176 685.894 215.022 681.097C214.868 676.3 211.892 672.503 208.376 672.616C204.86 672.729 202.134 676.709 202.289 681.506C202.443 686.303 205.418 690.1 208.934 689.987Z" fill="#F1594B"/>
<path d="M208.852 687.428C210.955 687.361 212.572 684.563 212.463 681.179C212.355 677.795 210.562 675.107 208.458 675.175C206.355 675.242 204.739 678.04 204.847 681.424C204.956 684.807 206.749 687.496 208.852 687.428Z" fill="#FAF28C"/>
<path d="M204.778 742.847C208.296 742.742 211.032 738.765 210.888 733.966C210.744 729.167 207.775 725.362 204.257 725.467C200.739 725.573 198.004 729.549 198.148 734.348C198.292 739.148 201.26 742.953 204.778 742.847Z" fill="#F1594B"/>
<path d="M206.227 739.237C208.33 739.169 209.947 736.371 209.838 732.988C209.73 729.604 207.937 726.916 205.833 726.983C203.73 727.051 202.114 729.849 202.222 733.232C202.331 736.616 204.124 739.304 206.227 739.237Z" fill="#FAF28C"/>
<path d="M185.3 705.668C188.816 705.556 191.542 701.575 191.388 696.778C191.234 691.982 188.258 688.184 184.742 688.297C181.226 688.41 178.5 692.391 178.654 697.187C178.808 701.984 181.784 705.781 185.3 705.668Z" fill="#F1594B"/>
<path d="M185.218 703.11C187.321 703.042 188.938 700.244 188.829 696.861C188.72 693.477 186.927 690.789 184.824 690.856C182.721 690.924 181.104 693.722 181.213 697.105C181.322 700.489 183.115 703.177 185.218 703.11Z" fill="#FAF28C"/>
<path d="M168.407 692.524C170.51 692.456 172.126 689.659 172.018 686.275C171.909 682.891 170.116 680.203 168.013 680.27C165.91 680.338 164.293 683.136 164.402 686.519C164.51 689.903 166.303 692.591 168.407 692.524Z" fill="#951B1E"/>
<path d="M188.955 676.932C191.058 676.865 192.675 674.067 192.567 670.683C192.458 667.299 190.665 664.611 188.562 664.678C186.459 664.746 184.842 667.544 184.95 670.928C185.059 674.311 186.852 677 188.955 676.932Z" fill="#951B1E"/>
<path d="M226.123 695.52C228.226 695.452 229.843 692.655 229.734 689.271C229.626 685.887 227.833 683.199 225.729 683.266C223.626 683.334 222.01 686.132 222.118 689.516C222.227 692.899 224.02 695.588 226.123 695.52Z" fill="#951B1E"/>
<path d="M110.67 676.679C110.67 676.679 99.7299 664.839 122.1 650.469C122.1 650.469 89.3999 659.139 82.8999 643.009C76.3999 626.879 98.0299 615.439 98.0299 615.439C98.0299 615.439 64.5899 630.139 55.5899 603.889C49.6399 586.739 68.7999 579.539 68.7999 579.539C68.7999 579.539 40.5399 564.049 46.4799 545.539L209.69 615.019C209.69 615.019 154.34 715.619 110.67 676.679Z" fill="#4CA84E"/>
<path d="M86.42 538.119C86.42 538.119 78.32 519.319 94.77 511.679C119.95 499.989 132.55 534.279 132.55 534.279C132.55 534.279 125.81 510.759 141.93 504.279C158.05 497.799 174.49 527.349 174.49 527.349C169.33 501.269 185.49 500.939 185.49 500.939C243.84 505.389 209.74 615.039 209.74 615.039L46.48 545.589C55.66 528.539 86.42 538.119 86.42 538.119Z" fill="#66BE64"/>
<g style="mix-blend-mode:multiply">
<path d="M154.84 678.539C156.971 677.26 159.037 675.875 161.03 674.389L161.45 674.079C162.59 673.219 163.72 672.339 164.84 671.419L165.6 670.789C166.4 670.123 167.19 669.456 167.97 668.789C169.19 667.709 170.393 666.603 171.58 665.469C173.04 664.069 174.476 662.636 175.89 661.169C195.54 640.769 209.69 615.049 209.69 615.049C209.69 615.049 224.61 567.049 217.81 533.279C177.95 637.479 98.0298 615.469 98.0298 615.469L88.0998 623.129C87.5398 623.729 86.9798 624.359 86.4498 625.009L85.7298 625.949C85.7042 625.981 85.6808 626.014 85.6598 626.049C85.4398 626.349 85.2298 626.659 85.0198 626.969L84.9098 627.119L84.3498 628.029C84.3498 628.099 84.2598 628.169 84.2198 628.249C84.0498 628.539 83.8998 628.829 83.7398 629.129C83.6872 629.22 83.6405 629.313 83.5998 629.409C83.4498 629.689 83.3198 629.989 83.1898 630.279C83.1898 630.389 83.0898 630.499 83.0398 630.609C82.9298 630.889 82.8298 631.169 82.7198 631.459C82.7198 631.589 82.6198 631.719 82.5798 631.849C82.5398 631.979 82.4098 632.399 82.3298 632.679C82.2498 632.959 82.2398 632.979 82.1998 633.119C82.1598 633.259 82.0798 633.669 82.0298 633.949C81.9798 634.229 81.9598 634.269 81.9298 634.439C81.8998 634.609 81.8598 634.969 81.8298 635.239C81.7998 635.509 81.8298 635.599 81.7698 635.779C81.7098 635.959 81.7698 636.319 81.7698 636.589C81.7698 636.859 81.7698 636.969 81.7698 637.159C81.7698 637.349 81.7698 637.699 81.8198 637.979C81.8698 638.259 81.8198 638.369 81.8198 638.579C81.8198 638.789 81.9098 639.109 81.9498 639.379C81.9898 639.649 82.0098 639.809 82.0498 640.019C82.0898 640.229 82.1898 640.579 82.2598 640.869C82.3298 641.159 82.3598 641.279 82.4198 641.489C82.4798 641.699 82.6698 642.219 82.8098 642.579L82.9498 642.989C89.4498 659.119 122.15 650.449 122.15 650.449C118.467 652.708 115.152 655.517 112.32 658.779C110.477 660.887 109.14 663.387 108.41 666.089C108.33 666.419 108.27 666.749 108.21 667.089C108.15 667.429 108.12 667.729 108.09 668.089C108.055 668.619 108.055 669.15 108.09 669.679C108.09 670.029 108.09 670.369 108.17 670.679C108.235 671.192 108.335 671.7 108.47 672.199C108.738 673.211 109.131 674.185 109.64 675.099C109.956 675.668 110.328 676.204 110.75 676.699C112.056 677.869 113.436 678.955 114.88 679.949C116.847 681.316 118.956 682.466 121.17 683.379C123.217 684.232 125.354 684.852 127.54 685.229C128.955 685.468 130.385 685.609 131.82 685.649C133.249 685.684 134.679 685.624 136.1 685.469C137.54 685.314 138.97 685.071 140.38 684.739C141.1 684.569 141.81 684.379 142.52 684.179C145.565 683.265 148.516 682.06 151.33 680.579C152.46 679.939 153.65 679.269 154.84 678.539Z" fill="#4CA84E"/>
</g>
<path d="M186.53 222.629C186.53 222.629 173.53 216.699 186.87 197.239C186.87 197.239 163.08 215.589 152.21 204.619C141.34 193.649 155.1 176.839 155.1 176.839C155.1 176.839 132.77 200.389 116.34 182.009C105.61 170.009 118.82 157.509 118.82 157.509C118.82 157.509 90.3498 154.509 88.8198 137.389L246.34 138.069C246.34 138.069 235.68 239.539 186.53 222.629Z" fill="#4CA84E"/>
<path d="M118.99 117.538C118.99 117.538 105.89 104.938 116.73 93.0284C133.32 74.7884 155.44 98.5284 155.44 98.5284C155.44 98.5284 141.83 81.5384 152.79 70.7084C163.75 59.8784 187.38 78.3984 187.38 78.3984C174.18 58.8084 187.26 52.9984 187.26 52.9984C236.59 36.5384 246.38 138.068 246.38 138.068L88.8599 137.388C90.4999 120.238 118.99 117.538 118.99 117.538Z" fill="#66BE64"/>
<g style="mix-blend-mode:multiply">
<path d="M223.34 208.96C224.61 207.22 225.83 205.37 226.98 203.43L227.21 203.03C227.85 201.94 228.47 200.83 229.07 199.69L229.48 198.91C229.9 198.09 230.31 197.26 230.72 196.42C231.34 195.12 231.95 193.8 232.53 192.47C233.25 190.816 233.933 189.15 234.58 187.47C243.64 164.01 246.38 138.08 246.38 138.08C246.38 138.08 242.08 93.6498 224.89 68.3398C228.11 167.34 155.1 176.85 155.1 176.85L149.59 186.54C149.34 187.22 149.1 187.93 148.89 188.65V188.7C148.79 189.04 148.7 189.373 148.62 189.7V189.8C148.54 190.12 148.48 190.45 148.41 190.8V190.96C148.35 191.27 148.31 191.58 148.26 191.9V192.12C148.26 192.41 148.2 192.71 148.17 193.01C148.17 193.1 148.17 193.19 148.17 193.29C148.17 193.57 148.17 193.85 148.17 194.14C148.17 194.24 148.17 194.35 148.17 194.46C148.17 194.73 148.17 195 148.17 195.27C148.17 195.39 148.17 195.51 148.17 195.63C148.17 195.75 148.23 196.15 148.26 196.4C148.29 196.65 148.26 196.67 148.31 196.81C148.36 196.95 148.4 197.3 148.45 197.54C148.5 197.78 148.5 197.83 148.54 197.98C148.58 198.13 148.66 198.44 148.73 198.67C148.8 198.9 148.81 198.98 148.87 199.13C148.93 199.28 149.04 199.58 149.12 199.8C149.2 200.02 149.24 200.12 149.31 200.28C149.38 200.44 149.52 200.71 149.63 200.93C149.74 201.15 149.78 201.25 149.86 201.41C149.94 201.57 150.12 201.82 150.25 202.02C150.38 202.22 150.44 202.35 150.55 202.51C150.66 202.67 150.86 202.92 151.01 203.13C151.16 203.34 151.23 203.44 151.36 203.59C151.49 203.74 151.81 204.09 152.05 204.34C152.131 204.441 152.218 204.538 152.31 204.63C163.18 215.63 186.97 197.25 186.97 197.25C184.731 200.366 182.98 203.805 181.78 207.45C181.003 209.811 180.77 212.316 181.1 214.78C181.1 215.08 181.21 215.38 181.28 215.66C181.35 215.94 181.42 216.22 181.51 216.48C181.656 216.927 181.829 217.365 182.03 217.79C182.163 218.07 182.303 218.34 182.45 218.6C182.682 218.993 182.936 219.374 183.21 219.74C183.785 220.492 184.458 221.165 185.21 221.74C185.66 222.103 186.15 222.415 186.67 222.67C188.138 223.181 189.638 223.595 191.16 223.91C193.245 224.345 195.37 224.563 197.5 224.56C200.751 224.548 203.972 223.934 207 222.75C208.181 222.285 209.33 221.744 210.44 221.13C211.566 220.506 212.652 219.812 213.69 219.05C214.22 218.67 214.74 218.27 215.25 217.86C217.441 216.061 219.451 214.051 221.25 211.86C221.91 210.927 222.607 209.96 223.34 208.96Z" fill="#4CA84E"/>
</g>
<path d="M708.15 465.85C708.15 465.85 722.71 464.39 716.15 441.15C716.15 441.15 733.15 466.72 747.3 459.67C761.45 452.62 753.59 431.81 753.59 431.81C753.59 431.81 767.49 461.94 789.43 449.52C803.77 441.41 795.07 424.99 795.07 424.99C795.07 424.99 823.61 431.46 830.67 415.33L677.9 364.33C677.9 364.33 655.02 466.06 708.15 465.85Z" fill="#4CA84E"/>
<path d="M808.02 386.219C808.02 386.219 824.84 378.309 818.25 363.219C808.16 340.109 778.95 355.849 778.95 355.849C778.95 355.849 797.69 343.909 790.64 329.789C783.59 315.669 754.64 325.889 754.64 325.889C773.84 311.249 763.08 301.329 763.08 301.329C720.72 269.249 677.93 364.329 677.93 364.329L830.7 415.329C834.72 398.189 808.02 386.219 808.02 386.219Z" fill="#66BE64"/>
<g style="mix-blend-mode:multiply">
<path d="M676.98 440.54C676.32 438.43 675.75 436.24 675.27 433.99C675.27 433.83 675.21 433.68 675.17 433.52C674.91 432.26 674.68 430.98 674.47 429.68C674.47 429.38 674.38 429.09 674.33 428.79C674.19 427.86 674.06 426.92 673.95 425.97C673.77 424.51 673.61 423.03 673.49 421.55C673.33 419.72 673.22 417.87 673.14 416.03C672.06 390.34 677.91 364.33 677.91 364.33C677.91 364.33 696.65 322.7 721.6 303.83C686 398.68 753.6 431.83 753.6 431.83L755.74 443.02C755.74 443.76 755.74 444.52 755.74 445.29V445.35C755.74 445.7 755.74 446.06 755.67 446.42C755.67 446.42 755.67 446.49 755.67 446.53C755.67 446.87 755.6 447.2 755.55 447.53C755.55 447.59 755.55 447.64 755.55 447.7C755.55 448.02 755.45 448.34 755.39 448.7C755.385 448.777 755.385 448.853 755.39 448.93C755.33 449.23 755.25 449.52 755.18 449.82C755.18 449.91 755.18 450 755.11 450.1C755.04 450.38 754.95 450.65 754.86 450.93C754.86 451.03 754.8 451.14 754.76 451.24C754.68 451.5 754.57 451.76 754.47 452.02C754.47 452.13 754.39 452.25 754.34 452.37C754.29 452.49 754.12 452.85 754 453.09C753.88 453.33 753.89 453.34 753.82 453.46C753.75 453.58 753.57 453.9 753.45 454.12L753.22 454.52C753.09 454.73 752.94 454.92 752.8 455.13C752.66 455.34 752.62 455.4 752.52 455.53C752.42 455.66 752.21 455.91 752.05 456.09L751.72 456.5L751.19 457.02L750.81 457.4C750.63 457.57 750.43 457.72 750.23 457.88C750.03 458.04 749.94 458.13 749.78 458.25C749.62 458.37 749.35 458.55 749.13 458.7L748.64 459.03C748.35 459.21 748.04 459.37 747.73 459.54L747.38 459.73C733.26 466.73 716.23 441.21 716.23 441.21C717.384 444.96 717.951 448.866 717.91 452.79C717.894 455.331 717.299 457.834 716.17 460.11C716.02 460.39 715.87 460.66 715.71 460.91C715.55 461.16 715.39 461.4 715.22 461.63C714.93 462.01 714.62 462.374 714.29 462.72C714.06 462.95 713.84 463.17 713.61 463.37C713.26 463.678 712.889 463.962 712.5 464.22C711.712 464.752 710.858 465.179 709.96 465.49C709.403 465.69 708.826 465.83 708.24 465.91C706.649 465.924 705.059 465.834 703.48 465.64C701.318 465.382 699.19 464.896 697.13 464.19C695.188 463.52 693.33 462.631 691.59 461.54C690.48 460.858 689.424 460.092 688.43 459.25C687.42 458.415 686.471 457.51 685.59 456.54C684.705 455.568 683.88 454.543 683.12 453.47C682.74 452.93 682.36 452.37 682.01 451.8C680.483 449.347 679.197 446.751 678.17 444.05C677.77 442.93 677.36 441.75 676.98 440.54Z" fill="#4CA84E"/>
</g>
<path d="M752.95 394.959C757.213 395.555 761.249 397.242 764.669 399.856C768.089 402.47 770.776 405.922 772.47 409.879L730.1 403.959C732.812 400.62 736.341 398.037 740.344 396.46C744.347 394.883 748.689 394.366 752.95 394.959Z" fill="#9FCC3B"/>
<path d="M730.1 403.959L772.47 409.879C769.755 413.216 766.226 415.797 762.222 417.371C758.218 418.944 753.876 419.459 749.616 418.863C745.355 418.268 741.321 416.583 737.902 413.972C734.483 411.361 731.796 407.912 730.1 403.959Z" fill="#63B446"/>
<g style="mix-blend-mode:multiply">
<path d="M773.659 410.995C774.593 404.39 765.869 397.695 754.174 396.041C742.479 394.387 732.24 398.401 731.306 405.006C730.372 411.611 739.096 418.306 750.791 419.959C762.487 421.613 772.725 417.6 773.659 410.995Z" fill="#4CA84E"/>
</g>
<path d="M804.8 393.298C800.582 394.162 796.66 396.102 793.415 398.93C790.169 401.758 787.711 405.378 786.28 409.438L828.18 400.808C825.258 397.651 821.571 395.301 817.475 393.985C813.38 392.669 809.014 392.433 804.8 393.298Z" fill="#9FCC3B"/>
<path d="M828.18 400.809L786.28 409.439C789.203 412.594 792.891 414.942 796.987 416.255C801.084 417.568 805.449 417.802 809.662 416.934C813.875 416.067 817.793 414.126 821.037 411.302C824.281 408.477 826.741 404.862 828.18 400.809Z" fill="#63B446"/>
<g style="mix-blend-mode:multiply">
<path d="M809.678 416.936C821.249 414.554 829.539 407.327 828.194 400.792C826.849 394.257 816.379 390.89 804.808 393.272C793.237 395.653 784.947 402.881 786.292 409.416C787.637 415.951 798.107 419.317 809.678 416.936Z" fill="#4CA84E"/>
</g>
<path d="M782.685 382.619L774.335 382.869L775.251 413.409L783.601 413.159L782.685 382.619Z" fill="#63B446"/>
<path d="M779.86 408.709C727.46 410.389 728.42 440.059 728.94 456.569C729.48 473.329 758.84 534.049 783.85 533.249C808.86 532.449 834.27 469.969 833.73 453.249C833.2 436.699 829.01 407.129 779.86 408.709Z" fill="#F1594B"/>
<path d="M780.2 419.308C736.72 420.698 737.51 445.308 737.95 459.018C738.4 472.928 762.75 523.318 783.51 522.648C804.27 521.978 825.35 470.138 824.9 456.228C824.46 442.538 820.98 417.998 780.2 419.308Z" fill="#D91F26"/>
<path d="M783.85 533.248C794.08 532.918 804.37 522.248 812.93 508.668C763.19 502.668 751.32 443.668 748.49 415.148C727.94 425.148 728.56 444.428 728.94 456.568C729.48 473.328 758.84 534.048 783.85 533.248Z" fill="#D91F26"/>
<path d="M753.658 485.801C757.174 485.688 759.9 481.708 759.746 476.911C759.592 472.114 756.616 468.317 753.1 468.43C749.584 468.543 746.858 472.523 747.012 477.32C747.167 482.117 750.142 485.914 753.658 485.801Z" fill="#F1594B"/>
<path d="M753.576 483.243C755.679 483.175 757.296 480.377 757.187 476.994C757.078 473.61 755.285 470.921 753.182 470.989C751.079 471.057 749.462 473.854 749.571 477.238C749.68 480.622 751.473 483.31 753.576 483.243Z" fill="#FAF28C"/>
<path d="M791.479 526.926C794.996 526.813 797.721 522.833 797.567 518.036C797.413 513.239 794.438 509.442 790.921 509.555C787.405 509.668 784.68 513.648 784.834 518.445C784.988 523.242 787.963 527.039 791.479 526.926Z" fill="#F1594B"/>
<path d="M791.397 524.368C793.5 524.3 795.117 521.502 795.008 518.119C794.9 514.735 793.107 512.046 791.004 512.114C788.9 512.182 787.284 514.979 787.392 518.363C787.501 521.747 789.294 524.435 791.397 524.368Z" fill="#FAF28C"/>
<path opacity="0.62" d="M800.17 524.88C748.75 511.08 734.17 427.81 734.12 427.77C728.33 437.32 728.69 448.51 728.94 456.57C729.48 473.33 758.84 534.05 783.85 533.25C789.36 533.07 794.9 529.9 800.17 524.88Z" fill="#951B1E"/>
<path d="M828.907 450.506C829.552 444.971 827.069 440.134 823.361 439.702C819.652 439.269 816.123 443.406 815.478 448.941C814.832 454.476 817.315 459.313 821.024 459.746C824.732 460.178 828.261 456.041 828.907 450.506Z" fill="#F1594B"/>
<path d="M820.192 445.259C823.608 443.752 824.553 438.397 822.303 433.299C820.054 428.2 815.461 425.289 812.045 426.796C808.63 428.304 807.684 433.658 809.934 438.757C812.184 443.855 816.776 446.766 820.192 445.259Z" fill="#F6FAFE"/>
<path d="M801.55 426.329C804.14 426.329 806.24 424.229 806.24 421.639C806.24 419.049 804.14 416.949 801.55 416.949C798.96 416.949 796.86 419.049 796.86 421.639C796.86 424.229 798.96 426.329 801.55 426.329Z" fill="#F6FAFE"/>
<path d="M801.97 438.639C804.185 438.639 805.98 436.844 805.98 434.629C805.98 432.414 804.185 430.619 801.97 430.619C799.755 430.619 797.96 432.414 797.96 434.629C797.96 436.844 799.755 438.639 801.97 438.639Z" fill="#F6FAFE"/>
<path d="M793.8 388.229C789.952 390.145 786.664 393.021 784.252 396.579C781.84 400.136 780.385 404.256 780.03 408.539L818.33 389.539C814.702 387.222 810.536 385.884 806.237 385.655C801.939 385.425 797.654 386.312 793.8 388.229Z" fill="#9FCC3B"/>
<path d="M818.33 389.539L780.03 408.539C783.659 410.841 787.82 412.168 792.111 412.393C796.403 412.617 800.68 411.732 804.529 409.823C808.379 407.913 811.671 405.043 814.089 401.49C816.506 397.937 817.967 393.821 818.33 389.539Z" fill="#63B446"/>
<path d="M766.33 389.119C770.289 390.793 773.749 393.46 776.376 396.862C779.004 400.264 780.71 404.286 781.33 408.539L741.88 391.969C745.363 389.425 749.446 387.826 753.73 387.326C758.014 386.827 762.355 387.445 766.33 389.119Z" fill="#9FCC3B"/>
<path d="M741.93 391.969L781.38 408.539C777.901 411.072 773.828 412.664 769.554 413.161C765.28 413.659 760.95 413.045 756.982 411.378C753.015 409.712 749.545 407.05 746.908 403.65C744.271 400.249 742.556 396.226 741.93 391.969Z" fill="#63B446"/>
<path d="M809.84 399.339C810.911 399.339 811.78 398.47 811.78 397.399C811.78 396.328 810.911 395.459 809.84 395.459C808.768 395.459 807.9 396.328 807.9 397.399C807.9 398.47 808.768 399.339 809.84 399.339Z" fill="#F6FAFE"/>
<path d="M775.994 518.735C778.097 518.667 779.714 515.869 779.605 512.486C779.496 509.102 777.703 506.414 775.6 506.481C773.497 506.549 771.88 509.347 771.989 512.73C772.098 516.114 773.891 518.802 775.994 518.735Z" fill="#951B1E"/>
<path d="M769.105 487.522C771.209 487.454 772.825 484.657 772.717 481.273C772.608 477.889 770.815 475.201 768.712 475.268C766.609 475.336 764.992 478.134 765.101 481.517C765.209 484.901 767.002 487.59 769.105 487.522Z" fill="#951B1E"/>
<path d="M741.262 465.275C743.366 465.211 744.99 462.416 744.888 459.03C744.787 455.645 742.998 452.951 740.894 453.015C738.79 453.078 737.167 455.873 737.268 459.259C737.37 462.644 739.158 465.338 741.262 465.275Z" fill="#D91F26"/>
<path d="M762.052 504.12C764.155 504.052 765.772 501.254 765.663 497.87C765.555 494.487 763.761 491.798 761.658 491.866C759.555 491.934 757.938 494.731 758.047 498.115C758.156 501.499 759.949 504.187 762.052 504.12Z" fill="#D91F26"/>
<path d="M799.839 492.184C801.942 492.117 803.559 489.319 803.451 485.935C803.342 482.551 801.549 479.863 799.446 479.93C797.343 479.998 795.726 482.796 795.835 486.18C795.943 489.563 797.736 492.252 799.839 492.184Z" fill="#951B1E"/>
<path d="M788.946 474.163C791.049 474.095 792.666 471.297 792.558 467.913C792.449 464.53 790.656 461.841 788.553 461.909C786.45 461.976 784.833 464.774 784.941 468.158C785.05 471.542 786.843 474.23 788.946 474.163Z" fill="#951B1E"/>
<path d="M810.541 478.709C814.057 478.596 816.783 474.616 816.629 469.819C816.475 465.023 813.499 461.225 809.983 461.338C806.467 461.451 803.741 465.432 803.895 470.228C804.05 475.025 807.025 478.822 810.541 478.709Z" fill="#F1594B"/>
<path d="M809.8 478.339C811.904 478.276 813.527 475.48 813.426 472.095C813.324 468.709 811.536 466.016 809.432 466.079C807.328 466.142 805.704 468.938 805.806 472.323C805.907 475.709 807.695 478.402 809.8 478.339Z" fill="#FAF28C"/>
<path d="M789.474 449.481C792.99 449.368 795.715 445.388 795.561 440.591C795.407 435.794 792.432 431.997 788.916 432.11C785.399 432.223 782.674 436.203 782.828 441C782.982 445.797 785.957 449.594 789.474 449.481Z" fill="#F1594B"/>
<path d="M789.391 446.922C791.495 446.855 793.111 444.057 793.003 440.673C792.894 437.289 791.101 434.601 788.998 434.669C786.895 434.736 785.278 437.534 785.387 440.918C785.495 444.302 787.288 446.99 789.391 446.922Z" fill="#FAF28C"/>
<path d="M786.124 503.441C789.642 503.335 792.377 499.359 792.233 494.56C792.089 489.76 789.12 485.955 785.602 486.061C782.084 486.166 779.349 490.143 779.493 494.942C779.637 499.741 782.606 503.546 786.124 503.441Z" fill="#F1594B"/>
<path d="M786.766 498.729C788.869 498.661 790.486 495.864 790.377 492.48C790.269 489.096 788.476 486.408 786.372 486.475C784.269 486.543 782.653 489.341 782.761 492.725C782.87 496.108 784.663 498.797 786.766 498.729Z" fill="#FAF28C"/>
<path d="M765.839 465.161C769.356 465.048 772.081 461.067 771.927 456.271C771.773 451.474 768.798 447.677 765.281 447.79C761.765 447.903 759.039 451.883 759.194 456.68C759.348 461.477 762.323 465.274 765.839 465.161Z" fill="#F1594B"/>
<path d="M765.757 462.602C767.86 462.534 769.477 459.737 769.368 456.353C769.26 452.969 767.467 450.281 765.363 450.348C763.26 450.416 761.644 453.214 761.752 456.598C761.861 459.981 763.654 462.67 765.757 462.602Z" fill="#FAF28C"/>
<path d="M748.946 452.028C751.049 451.96 752.666 449.162 752.557 445.779C752.449 442.395 750.656 439.707 748.552 439.774C746.449 439.842 744.833 442.64 744.941 446.023C745.05 449.407 746.843 452.095 748.946 452.028Z" fill="#951B1E"/>
<path d="M769.484 436.426C771.588 436.359 773.204 433.561 773.096 430.177C772.987 426.793 771.194 424.105 769.091 424.173C766.988 424.24 765.371 427.038 765.48 430.422C765.588 433.805 767.381 436.494 769.484 436.426Z" fill="#951B1E"/>
<path d="M806.653 455.024C808.756 454.956 810.373 452.159 810.264 448.775C810.155 445.391 808.362 442.703 806.259 442.77C804.156 442.838 802.539 445.636 802.648 449.019C802.756 452.403 804.549 455.092 806.653 455.024Z" fill="#951B1E"/>
<path d="M223.22 158.429C227.481 159.027 231.516 160.714 234.933 163.328C238.351 165.942 241.037 169.394 242.73 173.349L200.36 167.429C203.073 164.088 206.603 161.504 210.608 159.927C214.613 158.351 218.957 157.835 223.22 158.429Z" fill="#9FCC3B"/>
<path d="M200.36 167.43L242.73 173.35C240.015 176.687 236.486 179.267 232.482 180.841C228.478 182.415 224.136 182.929 219.876 182.334C215.616 181.739 211.581 180.054 208.162 177.443C204.743 174.832 202.056 171.383 200.36 167.43Z" fill="#63B446"/>
<g style="mix-blend-mode:multiply">
<path d="M243.151 173.882C244.085 167.277 235.361 160.582 223.666 158.928C211.97 157.274 201.732 161.287 200.798 167.892C199.864 174.497 208.588 181.192 220.283 182.846C231.979 184.5 242.217 180.486 243.151 173.882Z" fill="#4CA84E"/>
</g>
<path d="M275.06 156.77C270.854 157.646 266.945 159.592 263.709 162.419C260.474 165.246 258.022 168.859 256.59 172.91L298.5 164.29C295.574 161.121 291.877 158.763 287.77 157.445C283.662 156.127 279.284 155.895 275.06 156.77Z" fill="#9FCC3B"/>
<path d="M298.45 164.289L256.59 172.909C259.512 176.067 263.2 178.418 267.297 179.733C271.394 181.048 275.761 181.284 279.975 180.417C284.19 179.55 288.11 177.61 291.355 174.785C294.6 171.959 297.061 168.344 298.5 164.289H298.45Z" fill="#63B446"/>
<g style="mix-blend-mode:multiply">
<path d="M279.932 180.422C291.502 178.041 299.792 170.813 298.447 164.278C297.102 157.744 286.632 154.377 275.061 156.758C263.49 159.14 255.201 166.368 256.546 172.902C257.891 179.437 268.361 182.804 279.932 180.422Z" fill="#4CA84E"/>
</g>
<path d="M253.159 144.88L244.809 145.131L245.725 175.671L254.075 175.42L253.159 144.88Z" fill="#63B446"/>
<path d="M250.12 172.18C197.73 173.86 198.68 203.54 199.21 220.04C199.75 236.81 229.1 297.53 254.11 296.73C279.12 295.93 304.53 233.44 303.99 216.68C303.46 200.17 299.27 170.6 250.12 172.18Z" fill="#F1594B"/>
<path d="M250.46 182.779C206.99 184.179 207.78 208.779 208.21 222.489C208.66 236.409 233.02 286.789 253.77 286.119C274.52 285.449 295.61 233.619 295.16 219.699C294.72 206.009 291.24 181.469 250.46 182.779Z" fill="#D91F26"/>
<path d="M254.11 296.729C264.34 296.399 274.64 285.729 283.2 272.139C233.45 266.139 221.58 207.139 218.75 178.629C198.2 188.629 198.82 207.899 199.21 220.039C199.75 236.809 229.1 297.539 254.11 296.729Z" fill="#D91F26"/>
<path d="M223.917 249.303C227.433 249.19 230.158 245.21 230.004 240.413C229.85 235.616 226.875 231.819 223.359 231.932C219.842 232.045 217.117 236.025 217.271 240.822C217.425 245.619 220.4 249.416 223.917 249.303Z" fill="#F1594B"/>
<path d="M223.834 246.745C225.938 246.677 227.554 243.879 227.446 240.495C227.337 237.112 225.544 234.423 223.441 234.491C221.338 234.559 219.721 237.356 219.83 240.74C219.938 244.124 221.731 246.812 223.834 246.745Z" fill="#FAF28C"/>
<path d="M261.738 290.438C265.254 290.325 267.98 286.345 267.826 281.548C267.672 276.751 264.696 272.954 261.18 273.067C257.664 273.18 254.938 277.16 255.092 281.957C255.247 286.754 258.222 290.551 261.738 290.438Z" fill="#F1594B"/>
<path d="M261.656 287.877C263.759 287.81 265.376 285.012 265.267 281.628C265.159 278.245 263.365 275.556 261.262 275.624C259.159 275.691 257.542 278.489 257.651 281.873C257.76 285.257 259.553 287.945 261.656 287.877Z" fill="#FAF28C"/>
<path opacity="0.62" d="M270.43 288.36C219.01 274.55 204.43 191.28 204.43 191.25C198.64 200.79 199 211.98 199.26 220.04C199.8 236.81 229.15 297.53 254.16 296.73C259.59 296.54 265.16 293.37 270.43 288.36Z" fill="#951B1E"/>
<path d="M299.162 213.973C299.807 208.438 297.324 203.601 293.616 203.168C289.907 202.736 286.378 206.873 285.733 212.408C285.087 217.943 287.57 222.78 291.279 223.213C294.987 223.645 298.516 219.508 299.162 213.973Z" fill="#F1594B"/>
<path d="M290.454 208.728C293.87 207.22 294.815 201.866 292.565 196.767C290.316 191.669 285.723 188.758 282.307 190.265C278.892 191.772 277.947 197.127 280.196 202.225C282.446 207.324 287.039 210.235 290.454 208.728Z" fill="#F6FAFE"/>
<path d="M271.82 189.8C274.41 189.8 276.51 187.7 276.51 185.11C276.51 182.52 274.41 180.42 271.82 180.42C269.23 180.42 267.13 182.52 267.13 185.11C267.13 187.7 269.23 189.8 271.82 189.8Z" fill="#F6FAFE"/>
<path d="M272.23 202.12C274.445 202.12 276.24 200.324 276.24 198.11C276.24 195.895 274.445 194.1 272.23 194.1C270.015 194.1 268.22 195.895 268.22 198.11C268.22 200.324 270.015 202.12 272.23 202.12Z" fill="#F6FAFE"/>
<path d="M264.06 151.71C260.208 153.629 256.917 156.509 254.505 160.072C252.092 163.636 250.64 167.761 250.29 172.05L288.59 152.99C284.957 150.684 280.79 149.354 276.493 149.13C272.195 148.905 267.913 149.794 264.06 151.71Z" fill="#9FCC3B"/>
<path d="M288.59 152.988L250.29 172.048C253.923 174.351 258.089 175.678 262.385 175.9C266.681 176.122 270.961 175.231 274.813 173.315C278.664 171.398 281.955 168.52 284.369 164.96C286.782 161.399 288.236 157.275 288.59 152.988Z" fill="#63B446"/>
<path d="M236.59 152.588C240.558 154.256 244.029 156.92 246.665 160.322C249.302 163.724 251.015 167.749 251.64 172.008L212.19 155.438C215.668 152.903 219.741 151.309 224.016 150.809C228.29 150.31 232.622 150.923 236.59 152.588Z" fill="#9FCC3B"/>
<path d="M212.19 155.439L251.64 172.009C248.161 174.542 244.088 176.135 239.814 176.632C235.54 177.13 231.21 176.516 227.242 174.849C223.275 173.183 219.805 170.521 217.168 167.12C214.531 163.72 212.816 159.697 212.19 155.439Z" fill="#63B446"/>
<path d="M280.1 162.81C281.171 162.81 282.04 161.941 282.04 160.87C282.04 159.798 281.171 158.93 280.1 158.93C279.028 158.93 278.16 159.798 278.16 160.87C278.16 161.941 279.028 162.81 280.1 162.81Z" fill="#F6FAFE"/>
<path d="M246.243 282.237C248.346 282.169 249.963 279.371 249.854 275.988C249.745 272.604 247.952 269.916 245.849 269.983C243.746 270.051 242.129 272.849 242.238 276.232C242.347 279.616 244.14 282.304 246.243 282.237Z" fill="#951B1E"/>
<path d="M239.364 251.024C241.467 250.956 243.084 248.159 242.975 244.775C242.867 241.391 241.074 238.703 238.97 238.77C236.867 238.838 235.25 241.636 235.359 245.019C235.468 248.403 237.261 251.091 239.364 251.024Z" fill="#951B1E"/>
<path d="M211.746 227.528C213.85 227.465 215.474 224.67 215.372 221.284C215.271 217.899 213.483 215.205 211.378 215.269C209.274 215.332 207.651 218.127 207.752 221.513C207.854 224.898 209.642 227.592 211.746 227.528Z" fill="#D91F26"/>
<path d="M232.311 267.631C234.414 267.564 236.031 264.766 235.922 261.382C235.813 257.998 234.02 255.31 231.917 255.378C229.814 255.445 228.197 258.243 228.306 261.627C228.415 265.011 230.208 267.699 232.311 267.631Z" fill="#D91F26"/>
<path d="M270.088 255.674C272.191 255.607 273.808 252.809 273.699 249.425C273.59 246.041 271.797 243.353 269.694 243.421C267.591 243.488 265.974 246.286 266.083 249.67C266.192 253.054 267.985 255.742 270.088 255.674Z" fill="#951B1E"/>
<path d="M259.195 237.663C261.298 237.595 262.915 234.797 262.806 231.413C262.698 228.03 260.905 225.341 258.801 225.409C256.698 225.476 255.082 228.274 255.19 231.658C255.299 235.042 257.092 237.73 259.195 237.663Z" fill="#951B1E"/>
<path d="M280.79 242.209C284.306 242.097 287.032 238.116 286.877 233.319C286.723 228.523 283.748 224.725 280.232 224.838C276.715 224.951 273.99 228.932 274.144 233.728C274.298 238.525 277.274 242.322 280.79 242.209Z" fill="#F1594B"/>
<path d="M280.274 240.603C282.378 240.54 284.001 237.744 283.9 234.358C283.798 230.973 282.01 228.28 279.906 228.343C277.802 228.406 276.178 231.202 276.28 234.587C276.381 237.973 278.17 240.666 280.274 240.603Z" fill="#FAF28C"/>
<path d="M259.722 212.981C263.239 212.868 265.964 208.888 265.81 204.091C265.656 199.294 262.681 195.497 259.164 195.61C255.648 195.723 252.923 199.703 253.077 204.5C253.231 209.297 256.206 213.094 259.722 212.981Z" fill="#F1594B"/>
<path d="M259.64 210.432C261.743 210.365 263.36 207.567 263.251 204.183C263.143 200.799 261.35 198.111 259.247 198.178C257.143 198.246 255.527 201.044 255.635 204.428C255.744 207.811 257.537 210.5 259.64 210.432Z" fill="#FAF28C"/>
<path d="M256.598 265.703C260.116 265.597 262.851 261.621 262.707 256.821C262.563 252.022 259.595 248.217 256.077 248.323C252.558 248.428 249.823 252.404 249.967 257.204C250.111 262.003 253.08 265.808 256.598 265.703Z" fill="#F1594B"/>
<path d="M257.015 262.231C259.118 262.163 260.735 259.366 260.626 255.982C260.517 252.598 258.724 249.91 256.621 249.977C254.518 250.045 252.901 252.843 253.01 256.226C253.119 259.61 254.912 262.298 257.015 262.231Z" fill="#FAF28C"/>
<path d="M236.088 228.663C239.604 228.55 242.33 224.569 242.176 219.773C242.022 214.976 239.046 211.179 235.53 211.292C232.014 211.405 229.288 215.385 229.442 220.182C229.596 224.978 232.572 228.776 236.088 228.663Z" fill="#F1594B"/>
<path d="M236.006 226.114C238.109 226.046 239.726 223.248 239.617 219.865C239.508 216.481 237.715 213.793 235.612 213.86C233.509 213.928 231.892 216.726 232.001 220.109C232.11 223.493 233.903 226.181 236.006 226.114Z" fill="#FAF28C"/>
<path d="M219.194 215.518C221.298 215.451 222.914 212.653 222.806 209.269C222.697 205.885 220.904 203.197 218.801 203.264C216.698 203.332 215.081 206.13 215.19 209.514C215.298 212.897 217.091 215.586 219.194 215.518Z" fill="#951B1E"/>
<path d="M239.733 199.918C241.836 199.851 243.453 197.053 243.344 193.669C243.235 190.286 241.442 187.597 239.339 187.665C237.236 187.732 235.619 190.53 235.728 193.914C235.837 197.298 237.63 199.986 239.733 199.918Z" fill="#951B1E"/>
<path d="M276.911 218.514C279.014 218.447 280.631 215.649 280.522 212.265C280.414 208.881 278.621 206.193 276.518 206.26C274.414 206.328 272.798 209.126 272.906 212.51C273.015 215.893 274.808 218.582 276.911 218.514Z" fill="#951B1E"/>
<path d="M165.46 134.979C165.46 134.979 166.19 120.979 188.7 126.199C188.7 126.199 163.48 111.119 169.57 97.2986C175.66 83.4786 195.89 89.9886 195.89 89.9886C195.89 89.9886 166.46 78.0986 177.31 56.5386C184.4 42.4686 200.5 50.0186 200.5 50.0186C200.5 50.0186 192.99 23.0186 208.08 15.5586L263.85 159.169C263.85 159.169 167.72 185.749 165.46 134.979Z" fill="#4CA84E"/>
<path d="M236.94 35.8888C236.94 35.8888 243.72 19.4488 258.44 25.0488C280.98 33.6188 267.3 62.2588 267.3 62.2588C267.3 62.2588 277.84 43.7988 291.66 49.8888C305.48 55.9788 297.05 84.1288 297.05 84.1288C310.14 65.1288 320.11 74.9288 320.11 74.9288C352.72 113.929 263.85 159.189 263.85 159.189L208.08 15.5388C224.27 10.9288 236.94 35.8888 236.94 35.8888Z" fill="#66BE64"/>
<g style="mix-blend-mode:multiply">
<path d="M191.08 163.589C193.133 164.129 195.247 164.572 197.42 164.919L197.86 164.989C199.08 165.189 200.32 165.349 201.57 165.489L202.43 165.579C203.32 165.669 204.23 165.749 205.14 165.819C206.54 165.919 207.96 165.999 209.38 166.049C211.14 166.119 212.91 166.139 214.67 166.129C239.27 165.979 263.85 159.189 263.85 159.189C263.85 159.189 302.75 139.359 319.63 114.659C230.63 153.039 195.89 89.989 195.89 89.989L185.1 88.459C184.39 88.459 183.66 88.509 182.93 88.579L181.93 88.699H181.83C181.5 88.699 181.18 88.799 180.83 88.859H180.67C180.37 88.919 180.07 88.989 179.77 89.069H179.55L178.71 89.309L178.45 89.389C178.19 89.469 177.93 89.569 177.67 89.669L177.37 89.769L176.65 90.089L176.32 90.239C176.09 90.339 175.87 90.469 175.65 90.589C175.53 90.6463 175.413 90.7097 175.3 90.779C175.09 90.899 174.88 91.029 174.68 91.169L174.31 91.399L173.75 91.829L173.38 92.119C173.2 92.269 173.03 92.429 172.86 92.589L172.49 92.929C172.33 93.089 172.18 93.279 172.02 93.449C171.86 93.619 171.78 93.699 171.67 93.839C171.56 93.979 171.38 94.219 171.24 94.409C171.1 94.599 171.01 94.699 170.91 94.859C170.81 95.019 170.64 95.279 170.51 95.499C170.38 95.719 170.31 95.809 170.22 95.979C170.13 96.149 169.92 96.569 169.77 96.879C169.72 96.999 169.66 97.099 169.61 97.219C163.52 111.039 188.74 126.119 188.74 126.119C185.096 125.218 181.335 124.888 177.59 125.139C175.164 125.269 172.8 125.954 170.68 127.139C170.42 127.289 170.18 127.449 169.94 127.609L169.28 128.119C168.926 128.409 168.592 128.724 168.28 129.059C168.07 129.279 167.87 129.509 167.69 129.729C167.416 130.081 167.162 130.448 166.93 130.829C166.461 131.609 166.095 132.446 165.84 133.319C165.674 133.86 165.563 134.416 165.51 134.979C165.578 136.501 165.738 138.017 165.99 139.519C166.339 141.572 166.902 143.583 167.67 145.519C168.383 147.312 169.295 149.02 170.39 150.609C171.097 151.633 171.875 152.605 172.72 153.519C173.567 154.43 174.472 155.286 175.43 156.079C176.387 156.876 177.388 157.617 178.43 158.299C178.96 158.639 179.51 158.969 180.07 159.299C182.488 160.644 185.029 161.752 187.66 162.609C188.77 162.949 189.91 163.289 191.08 163.589Z" fill="#4CA84E"/>
</g>
<path d="M791.7 385.64C791.7 385.64 797.41 370.58 771.29 365.64C771.29 365.64 804.86 361.44 804.85 344.05C804.84 326.66 780.5 324.14 780.5 324.14C780.5 324.14 817.03 325.24 815.59 297.54C814.65 279.43 794.19 279.92 794.19 279.92C794.19 279.92 814.6 254.98 802.19 240.09L676.79 365.54C676.79 365.54 765.77 438.1 791.7 385.64Z" fill="#4CA84E"/>
<path d="M762.34 248.079C762.34 248.079 762.82 227.609 744.71 226.679C716.98 225.259 718.12 261.779 718.12 261.779C718.12 261.779 715.59 237.439 698.19 237.449C680.79 237.459 676.59 271.029 676.59 271.029C671.59 244.909 656.59 250.629 656.59 250.629C604.15 276.589 676.79 365.539 676.79 365.539L802.17 240.059C787.26 227.649 762.34 248.079 762.34 248.079Z" fill="#66BE64"/>
<g style="mix-blend-mode:multiply">
<path d="M751.43 403.908C749.03 403.528 746.59 403.008 744.14 402.368L743.63 402.238C742.26 401.878 740.88 401.478 739.5 401.038C739.18 400.948 738.87 400.848 738.55 400.738C737.55 400.418 736.55 400.088 735.55 399.738C734.023 399.198 732.497 398.622 730.97 398.008C729.083 397.262 727.213 396.472 725.36 395.638C699.59 384.068 676.79 365.538 676.79 365.538C676.79 365.538 645 326.608 638.67 292.738C714.67 374.458 780.5 324.138 780.5 324.138L792.59 327.538C793.33 327.878 794.08 328.248 794.82 328.658C795.17 328.848 795.51 329.058 795.82 329.258L795.93 329.318C796.25 329.518 796.56 329.728 796.87 329.938L797.02 330.048C797.32 330.248 797.6 330.458 797.88 330.678L798.09 330.828C798.35 331.028 798.61 331.248 798.86 331.468L799.1 331.668C799.34 331.878 799.57 332.098 799.8 332.328C799.88 332.408 799.98 332.488 800.06 332.578C800.14 332.668 800.47 333.018 800.68 333.248L800.96 333.548C801.15 333.768 801.32 333.998 801.5 334.228C801.68 334.458 801.69 334.468 801.78 334.598C801.87 334.728 802.1 335.058 802.25 335.288L802.53 335.708C802.67 335.938 802.79 336.178 802.92 336.418C803.05 336.658 803.1 336.738 803.18 336.898C803.26 337.058 803.4 337.388 803.5 337.638C803.6 337.888 803.67 337.978 803.74 338.158C803.81 338.338 803.91 338.678 803.99 338.928C804.07 339.178 804.13 339.308 804.18 339.508C804.23 339.708 804.31 340.038 804.37 340.298C804.43 340.558 804.47 340.708 804.51 340.928C804.55 341.148 804.59 341.498 804.63 341.788C804.67 342.078 804.7 342.208 804.72 342.428C804.72 342.808 804.72 343.198 804.72 343.588C804.72 343.728 804.72 343.868 804.72 344.018C804.72 361.408 771.16 365.608 771.16 365.608C775.418 366.306 779.543 367.655 783.39 369.608C785.886 370.876 788.061 372.695 789.75 374.928C789.95 375.208 790.14 375.488 790.31 375.768C790.48 376.048 790.63 376.328 790.77 376.608C791.009 377.081 791.216 377.568 791.39 378.068C791.511 378.396 791.614 378.73 791.7 379.068C791.83 379.565 791.93 380.069 792 380.578C792.132 381.617 792.132 382.669 792 383.708C791.927 384.355 791.786 384.991 791.58 385.608C790.804 387.18 789.932 388.703 788.97 390.168C787.704 392.17 786.236 394.036 784.59 395.738C783.005 397.292 781.255 398.667 779.37 399.838C778.149 400.595 776.876 401.264 775.56 401.838C774.26 402.404 772.924 402.881 771.56 403.268C770.164 403.665 768.744 403.976 767.31 404.198C766.59 404.308 765.86 404.398 765.12 404.478C761.954 404.783 758.766 404.783 755.6 404.478C754.16 404.298 752.8 404.128 751.43 403.908Z" fill="#4CA84E"/>
</g>
<path d="M34.0298 257.009C34.0298 257.009 32.3098 259.919 15.0298 264.649C15.7498 279.479 38.4798 282.209 38.4798 282.209C38.4798 282.209 28.1398 291.539 20.5898 294.149C13.0398 296.759 38.8198 325.659 53.2798 329.779C52.16 332.683 50.4788 335.337 48.3322 337.59C46.1855 339.843 43.6157 341.65 40.7698 342.909C41.9598 353.019 64.4398 372.559 97.6398 362.089C97.6398 362.089 94.1298 375.199 86.7298 378.949C86.7298 378.949 106.36 397.779 137 376.109C137 376.109 138.26 381.239 133.66 387.899C133.66 387.899 160.91 405.449 196.87 364.519L21.5898 221.869C17.3998 236.319 34.0298 257.009 34.0298 257.009Z" fill="#4CA84E"/>
<path d="M174.35 267.84C177.86 233.21 154.16 215.17 144.02 216.06C143.367 219.102 142.119 221.986 140.348 224.545C138.577 227.103 136.317 229.287 133.7 230.97C126.7 217.65 93.1598 198.28 92.1798 206.2C91.1998 214.12 84.1098 226.11 84.1098 226.11C84.1098 226.11 76.8198 204.4 62.1098 206.71C60.9898 224.62 58.4898 226.9 58.4898 226.9C58.4898 226.9 34.8598 214.82 21.5598 221.9L196.87 364.54C229.65 321.01 206.94 297.9 206.94 297.9C201.35 303.76 196.06 303.56 196.06 303.56C211.06 269.16 188.64 253.76 188.64 253.76C186.47 261.75 174.35 267.84 174.35 267.84Z" fill="#66BE64"/>
<g style="mix-blend-mode:multiply">
<path d="M196.87 364.538C229.65 321.008 206.94 297.898 206.94 297.898C201.35 303.758 196.06 303.558 196.06 303.558C211.06 269.158 188.64 253.758 188.64 253.758C186.47 261.758 174.34 267.858 174.34 267.858C177.86 233.228 154.16 215.188 144.02 216.078C143.367 219.121 142.119 222.004 140.348 224.563C138.577 227.122 136.317 229.305 133.7 230.988C133.7 230.988 193.64 345.428 137 376.128C137 376.128 138.26 381.258 133.66 387.918C133.66 387.898 160.91 405.448 196.87 364.538Z" fill="#4CA84E"/>
</g>
<path d="M541.06 459.019C545.326 459.614 549.365 461.302 552.787 463.917C556.209 466.533 558.896 469.989 560.59 473.949L518.21 468.029C520.921 464.687 524.449 462.102 528.452 460.524C532.455 458.946 536.798 458.427 541.06 459.019Z" fill="#9FCC3B"/>
<path d="M518.2 468.029L560.59 473.949C557.876 477.289 554.346 479.871 550.341 481.447C546.336 483.022 541.992 483.537 537.73 482.942C533.468 482.346 529.432 480.661 526.012 478.048C522.593 475.436 519.905 471.985 518.21 468.029H518.2Z" fill="#63B446"/>
<g style="mix-blend-mode:multiply">
<path d="M561.404 475.075C562.338 468.47 553.614 461.775 541.919 460.121C530.223 458.467 519.985 462.481 519.051 469.086C518.117 475.691 526.841 482.386 538.536 484.04C550.231 485.693 560.47 481.68 561.404 475.075Z" fill="#4CA84E"/>
</g>
<path d="M592.91 457.359C588.69 458.231 584.768 460.179 581.523 463.014C578.278 465.849 575.821 469.474 574.39 473.539L616.29 464.919C613.374 461.752 609.689 459.393 605.593 458.068C601.497 456.744 597.128 456.499 592.91 457.359Z" fill="#9FCC3B"/>
<path d="M616.29 464.879L574.39 473.539C577.313 476.695 581 479.043 585.096 480.357C589.191 481.67 593.557 481.905 597.769 481.039C601.982 480.172 605.9 478.233 609.145 475.409C612.389 472.585 614.85 468.972 616.29 464.919V464.879Z" fill="#63B446"/>
<g style="mix-blend-mode:multiply">
<path d="M597.792 481.006C609.363 478.625 617.653 471.397 616.308 464.862C614.963 458.328 604.493 454.961 592.922 457.342C581.351 459.724 573.061 466.952 574.406 473.486C575.751 480.021 586.221 483.388 597.792 481.006Z" fill="#4CA84E"/>
</g>
<path d="M570.547 446.285L562.197 446.535L563.113 477.075L571.463 476.825L570.547 446.285Z" fill="#63B446"/>
<path d="M567.97 472.769C515.57 474.449 516.52 504.129 517.05 520.629C517.59 537.399 546.94 598.119 571.96 597.319C596.98 596.519 622.38 534.039 621.84 517.319C621.31 500.769 617.11 471.199 567.97 472.769Z" fill="#F1594B"/>
<path d="M568.31 483.37C524.83 484.77 525.62 509.37 526.06 523.09C526.51 537 550.86 587.38 571.62 586.72C592.38 586.06 613.45 534.21 613.01 520.3C612.59 506.6 609.09 482.07 568.31 483.37Z" fill="#D91F26"/>
<path d="M571.96 597.319C582.19 596.989 592.48 586.319 601.04 572.739C551.3 566.739 539.43 507.739 536.6 479.219C516.05 489.219 516.66 508.489 517.05 520.629C517.59 537.399 546.94 598.119 571.96 597.319Z" fill="#D91F26"/>
<path d="M541.774 549.872C545.291 549.759 548.016 545.778 547.862 540.982C547.708 536.185 544.733 532.388 541.216 532.501C537.7 532.614 534.975 536.594 535.129 541.391C535.283 546.187 538.258 549.985 541.774 549.872Z" fill="#F1594B"/>
<path d="M541.692 547.313C543.795 547.245 545.412 544.448 545.303 541.064C545.195 537.68 543.402 534.992 541.299 535.059C539.195 535.127 537.579 537.925 537.687 541.308C537.796 544.692 539.589 547.381 541.692 547.313Z" fill="#FAF28C"/>
<path d="M579.596 591.006C583.112 590.893 585.837 586.913 585.683 582.116C585.529 577.319 582.554 573.522 579.038 573.635C575.521 573.748 572.796 577.728 572.95 582.525C573.104 587.322 576.079 591.119 579.596 591.006Z" fill="#F1594B"/>
<path d="M579.514 588.448C581.617 588.38 583.234 585.582 583.125 582.199C583.016 578.815 581.223 576.127 579.12 576.194C577.017 576.262 575.4 579.059 575.509 582.443C575.618 585.827 577.411 588.515 579.514 588.448Z" fill="#FAF28C"/>
<path opacity="0.62" d="M588.28 588.95C536.86 575.15 522.28 491.88 522.23 491.84C516.44 501.38 516.8 512.58 517.05 520.63C517.59 537.4 546.94 598.12 571.96 597.32C577.47 597.14 583.01 593.97 588.28 588.95Z" fill="#951B1E"/>
<path d="M617.008 514.571C617.653 509.036 615.17 504.198 611.462 503.766C607.753 503.334 604.224 507.47 603.579 513.005C602.933 518.54 605.416 523.378 609.125 523.81C612.833 524.243 616.362 520.106 617.008 514.571Z" fill="#F1594B"/>
<path d="M608.302 509.327C611.717 507.82 612.663 502.465 610.413 497.367C608.163 492.269 603.571 489.357 600.155 490.865C596.739 492.372 595.794 497.727 598.044 502.825C600.293 507.923 604.886 510.834 608.302 509.327Z" fill="#F6FAFE"/>
<path d="M589.66 490.39C592.25 490.39 594.35 488.29 594.35 485.7C594.35 483.11 592.25 481.01 589.66 481.01C587.07 481.01 584.97 483.11 584.97 485.7C584.97 488.29 587.07 490.39 589.66 490.39Z" fill="#F6FAFE"/>
<path d="M590.08 502.709C592.294 502.709 594.09 500.914 594.09 498.699C594.09 496.485 592.294 494.689 590.08 494.689C587.865 494.689 586.07 496.485 586.07 498.699C586.07 500.914 587.865 502.709 590.08 502.709Z" fill="#F6FAFE"/>
<path d="M581.91 452.3C578.058 454.219 574.767 457.099 572.355 460.662C569.942 464.226 568.491 468.351 568.14 472.64L606.44 453.54C602.803 451.24 598.635 449.917 594.338 449.7C590.04 449.483 585.76 450.378 581.91 452.3Z" fill="#9FCC3B"/>
<path d="M606.44 453.539L568.14 472.599C571.773 474.902 575.939 476.229 580.235 476.451C584.531 476.672 588.812 475.782 592.663 473.866C596.514 471.949 599.805 469.071 602.219 465.51C604.632 461.95 606.086 457.826 606.44 453.539Z" fill="#63B446"/>
<path d="M554.44 453.18C558.399 454.854 561.859 457.521 564.487 460.923C567.114 464.324 568.82 468.346 569.44 472.6L529.99 456.03C533.473 453.486 537.556 451.886 541.84 451.387C546.124 450.887 550.465 451.505 554.44 453.18Z" fill="#9FCC3B"/>
<path d="M530.04 456.029L569.49 472.599C566.012 475.132 561.938 476.725 557.664 477.222C553.39 477.72 549.06 477.105 545.092 475.439C541.125 473.773 537.655 471.111 535.018 467.71C532.381 464.31 530.666 460.286 530.04 456.029Z" fill="#63B446"/>
<path d="M597.95 463.409C599.021 463.409 599.89 462.541 599.89 461.469C599.89 460.398 599.021 459.529 597.95 459.529C596.878 459.529 596.01 460.398 596.01 461.469C596.01 462.541 596.878 463.409 597.95 463.409Z" fill="#F6FAFE"/>
<path d="M564.1 582.815C566.204 582.747 567.82 579.95 567.712 576.566C567.603 573.182 565.81 570.494 563.707 570.561C561.604 570.629 559.987 573.427 560.096 576.81C560.204 580.194 561.997 582.883 564.1 582.815Z" fill="#951B1E"/>
<path d="M557.222 551.602C559.325 551.534 560.942 548.737 560.833 545.353C560.724 541.969 558.931 539.281 556.828 539.348C554.725 539.416 553.108 542.214 553.217 545.597C553.326 548.981 555.119 551.67 557.222 551.602Z" fill="#951B1E"/>
<path d="M529.134 528.933C531.238 528.87 532.862 526.074 532.76 522.689C532.658 519.303 530.87 516.61 528.766 516.673C526.662 516.736 525.038 519.532 525.14 522.917C525.242 526.303 527.03 528.996 529.134 528.933Z" fill="#D91F26"/>
<path d="M550.168 568.2C552.272 568.132 553.888 565.334 553.78 561.951C553.671 558.567 551.878 555.878 549.775 555.946C547.672 556.014 546.055 558.811 546.164 562.195C546.272 565.579 548.065 568.267 550.168 568.2Z" fill="#D91F26"/>
<path d="M587.945 556.254C590.048 556.187 591.665 553.389 591.557 550.005C591.448 546.621 589.655 543.933 587.552 544.001C585.449 544.068 583.832 546.866 583.94 550.25C584.049 553.634 585.842 556.322 587.945 556.254Z" fill="#951B1E"/>
<path d="M577.063 538.243C579.166 538.175 580.782 535.377 580.674 531.994C580.565 528.61 578.772 525.921 576.669 525.989C574.566 526.057 572.949 528.854 573.058 532.238C573.166 535.622 574.959 538.31 577.063 538.243Z" fill="#951B1E"/>
<path d="M598.637 542.78C602.154 542.667 604.879 538.687 604.725 533.89C604.571 529.093 601.596 525.296 598.079 525.409C594.563 525.522 591.838 529.502 591.992 534.299C592.146 539.096 595.121 542.893 598.637 542.78Z" fill="#F1594B"/>
<path d="M597.651 541.997C599.756 541.934 601.379 539.138 601.278 535.753C601.176 532.367 599.388 529.674 597.284 529.737C595.179 529.8 593.556 532.596 593.658 535.982C593.759 539.367 595.547 542.06 597.651 541.997Z" fill="#FAF28C"/>
<path d="M577.58 513.561C581.096 513.448 583.822 509.468 583.668 504.671C583.514 499.874 580.538 496.077 577.022 496.19C573.506 496.303 570.78 500.283 570.934 505.08C571.088 509.877 574.064 513.674 577.58 513.561Z" fill="#F1594B"/>
<path d="M577.498 511.002C579.601 510.935 581.218 508.137 581.109 504.753C581 501.37 579.207 498.681 577.104 498.749C575.001 498.816 573.384 501.614 573.493 504.998C573.602 508.382 575.395 511.07 577.498 511.002Z" fill="#FAF28C"/>
<path d="M573.986 567.107C577.504 567.001 580.239 563.025 580.095 558.226C579.951 553.426 576.983 549.621 573.464 549.727C569.946 549.832 567.211 553.809 567.355 558.608C567.499 563.407 570.468 567.212 573.986 567.107Z" fill="#F1594B"/>
<path d="M574.873 562.811C576.976 562.743 578.592 559.946 578.484 556.562C578.375 553.178 576.582 550.49 574.479 550.557C572.376 550.625 570.759 553.423 570.868 556.807C570.976 560.19 572.769 562.879 574.873 562.811Z" fill="#FAF28C"/>
<path d="M553.935 529.243C557.452 529.13 560.177 525.15 560.023 520.353C559.869 515.556 556.894 511.759 553.377 511.872C549.861 511.985 547.136 515.965 547.29 520.762C547.444 525.559 550.419 529.356 553.935 529.243Z" fill="#F1594B"/>
<path d="M553.854 526.684C555.957 526.617 557.573 523.819 557.465 520.435C557.356 517.051 555.563 514.363 553.46 514.43C551.357 514.498 549.74 517.296 549.849 520.68C549.957 524.063 551.75 526.752 553.854 526.684Z" fill="#FAF28C"/>
<path d="M537.052 516.098C539.155 516.031 540.772 513.233 540.663 509.849C540.555 506.465 538.761 503.777 536.658 503.844C534.555 503.912 532.938 506.71 533.047 510.094C533.156 513.477 534.949 516.166 537.052 516.098Z" fill="#951B1E"/>
<path d="M557.601 500.506C559.704 500.439 561.321 497.641 561.212 494.257C561.103 490.873 559.31 488.185 557.207 488.253C555.104 488.32 553.487 491.118 553.596 494.502C553.705 497.886 555.498 500.574 557.601 500.506Z" fill="#951B1E"/>
<path d="M594.769 519.094C596.872 519.027 598.488 516.229 598.38 512.845C598.271 509.461 596.478 506.773 594.375 506.841C592.272 506.908 590.655 509.706 590.764 513.09C590.872 516.473 592.665 519.162 594.769 519.094Z" fill="#951B1E"/>
<path d="M462.78 208.539C467.015 209.307 470.981 211.156 474.292 213.907C477.603 216.657 480.148 220.216 481.68 224.239L439.59 216.629C442.432 213.399 446.06 210.957 450.123 209.54C454.185 208.122 458.545 207.778 462.78 208.539Z" fill="#9FCC3B"/>
<path d="M439.59 216.629L481.69 224.259C478.843 227.485 475.211 229.921 471.147 231.332C467.082 232.743 462.722 233.082 458.488 232.314C454.255 231.547 450.291 229.7 446.98 226.952C443.669 224.204 441.124 220.649 439.59 216.629Z" fill="#63B446"/>
<g style="mix-blend-mode:multiply">
<path d="M481.67 224.249C482.86 217.684 474.401 210.655 462.777 208.548C451.152 206.442 440.765 210.057 439.576 216.621C438.386 223.186 446.845 230.215 458.469 232.321C470.093 234.428 480.481 230.813 481.67 224.249Z" fill="#4CA84E"/>
</g>
<path d="M514.65 208.989C510.404 209.687 506.411 211.47 503.056 214.165C499.701 216.859 497.098 220.374 495.5 224.369L537.72 217.449C534.928 214.171 531.338 211.671 527.296 210.189C523.254 208.706 518.898 208.293 514.65 208.989Z" fill="#9FCC3B"/>
<path d="M537.72 217.449L495.5 224.369C498.292 227.642 501.882 230.138 505.922 231.617C509.962 233.097 514.315 233.508 518.561 232.812C522.806 232.116 526.8 230.337 530.157 227.645C533.513 224.954 536.118 221.442 537.72 217.449Z" fill="#63B446"/>
<g style="mix-blend-mode:multiply">
<path d="M518.561 232.846C530.219 230.935 538.795 224.049 537.715 217.465C536.636 210.881 526.311 207.093 514.653 209.004C502.995 210.916 494.42 217.802 495.499 224.386C496.578 230.969 506.904 234.757 518.561 232.846Z" fill="#4CA84E"/>
</g>
<path d="M486.159 195.749L485.854 226.289L494.203 226.373L494.509 195.833L486.159 195.749Z" fill="#63B446"/>
<path d="M489.11 223.38C436.69 222.94 436.44 252.63 436.31 269.15C436.16 285.92 463.04 347.78 488.07 347.99C513.1 348.2 541 286.8 541.14 269.99C541.28 253.54 538.28 223.79 489.11 223.38Z" fill="#F1594B"/>
<path d="M489.02 233.988C445.53 233.628 445.32 258.258 445.21 271.988C445.09 285.908 467.39 337.238 488.21 337.408C509.03 337.578 532.13 286.638 532.21 272.718C532.31 258.988 529.82 234.328 489.02 233.988Z" fill="#D91F26"/>
<path d="M488.07 347.989C498.3 348.069 509.02 337.859 518.07 324.599C468.61 316.599 459.13 257.159 457.46 228.549C436.52 237.729 436.36 256.999 436.26 269.149C436.16 285.919 463.04 347.779 488.07 347.989Z" fill="#D91F26"/>
<path d="M466.246 290.767C466.286 285.967 463.467 282.053 459.949 282.024C456.431 281.994 453.547 285.861 453.506 290.66C453.466 295.459 456.285 299.374 459.803 299.403C463.321 299.432 466.206 295.566 466.246 290.767Z" fill="#F1594B"/>
<path d="M463.686 290.747C463.714 287.361 462.032 284.602 459.927 284.585C457.823 284.567 456.095 287.297 456.066 290.683C456.038 294.068 457.721 296.827 459.825 296.844C461.929 296.862 463.658 294.132 463.686 290.747Z" fill="#FAF28C"/>
<path d="M503.344 334.012C503.392 329.212 500.579 325.293 497.061 325.258C493.543 325.223 490.652 329.085 490.604 333.884C490.556 338.684 493.369 342.603 496.887 342.638C500.405 342.673 503.296 338.811 503.344 334.012Z" fill="#F1594B"/>
<path d="M499.807 333.364C499.836 329.978 498.153 327.22 496.049 327.202C493.945 327.184 492.216 329.915 492.188 333.3C492.159 336.685 493.842 339.444 495.946 339.462C498.05 339.479 499.779 336.749 499.807 333.364Z" fill="#FAF28C"/>
<path opacity="0.62" d="M504.71 340.28C453.89 324.41 442.65 240.62 442.64 240.58C436.47 249.89 436.37 261.09 436.31 269.15C436.16 285.92 463.04 347.78 488.07 347.99C493.59 348.03 499.24 345.09 504.71 340.28Z" fill="#951B1E"/>
<path d="M536.46 267.153C537.329 261.649 535.044 256.715 531.356 256.133C527.668 255.55 523.974 259.541 523.105 265.045C522.237 270.549 524.522 275.484 528.21 276.066C531.897 276.648 535.591 272.657 536.46 267.153Z" fill="#F1594B"/>
<path d="M527.931 261.562C531.405 260.195 532.566 254.883 530.525 249.697C528.484 244.512 524.013 241.418 520.539 242.785C517.065 244.153 515.903 249.465 517.945 254.65C519.986 259.835 524.457 262.93 527.931 261.562Z" fill="#F6FAFE"/>
<path d="M510.27 241.868C512.86 241.868 514.96 239.768 514.96 237.178C514.96 234.588 512.86 232.488 510.27 232.488C507.68 232.488 505.58 234.588 505.58 237.178C505.58 239.768 507.68 241.868 510.27 241.868Z" fill="#F6FAFE"/>
<path d="M510.16 254.19C512.375 254.19 514.17 252.395 514.17 250.18C514.17 247.965 512.375 246.17 510.16 246.17C507.945 246.17 506.15 247.965 506.15 250.18C506.15 252.395 507.945 254.19 510.16 254.19Z" fill="#F6FAFE"/>
<path d="M503.87 203.54C499.943 205.302 496.538 208.047 493.984 211.511C491.43 214.974 489.813 219.038 489.29 223.31L528.29 205.81C524.757 203.365 520.655 201.872 516.377 201.475C512.1 201.077 507.792 201.788 503.87 203.54Z" fill="#9FCC3B"/>
<path d="M528.33 205.76L489.33 223.26C492.867 225.698 496.972 227.184 501.251 227.574C505.529 227.964 509.836 227.245 513.755 225.487C517.675 223.728 521.075 220.989 523.628 217.533C526.181 214.078 527.8 210.023 528.33 205.76Z" fill="#63B446"/>
<path d="M476.39 203.26C480.285 205.086 483.643 207.886 486.14 211.389C488.636 214.893 490.186 218.982 490.64 223.26L451.89 205.12C455.468 202.727 459.603 201.298 463.896 200.972C468.188 200.646 472.492 201.434 476.39 203.26Z" fill="#9FCC3B"/>
<path d="M451.89 205.119L490.64 223.269C487.062 225.66 482.927 227.087 478.636 227.411C474.345 227.736 470.043 226.947 466.146 225.122C462.249 223.297 458.89 220.497 456.392 216.992C453.894 213.488 452.344 209.398 451.89 205.119Z" fill="#63B446"/>
<path d="M519.52 215.239C520.591 215.239 521.46 214.371 521.46 213.299C521.46 212.228 520.591 211.359 519.52 211.359C518.448 211.359 517.58 212.228 517.58 213.299C517.58 214.371 518.448 215.239 519.52 215.239Z" fill="#F6FAFE"/>
<path d="M484.64 327.112C484.669 323.726 482.986 320.968 480.882 320.95C478.778 320.932 477.049 323.663 477.021 327.048C476.992 330.433 478.675 333.192 480.779 333.21C482.883 333.227 484.612 330.497 484.64 327.112Z" fill="#951B1E"/>
<path d="M479.014 295.647C479.043 292.262 477.36 289.503 475.256 289.485C473.152 289.468 471.423 292.198 471.395 295.583C471.366 298.968 473.049 301.727 475.153 301.745C477.257 301.762 478.986 299.032 479.014 295.647Z" fill="#951B1E"/>
<path d="M452.846 270.274C452.874 266.889 451.192 264.13 449.087 264.112C446.983 264.095 445.255 266.825 445.226 270.21C445.198 273.595 446.881 276.354 448.985 276.372C451.089 276.389 452.818 273.659 452.846 270.274Z" fill="#D91F26"/>
<path d="M472.239 312.542C472.273 309.156 470.594 306.395 468.49 306.374C466.386 306.353 464.653 309.08 464.619 312.466C464.585 315.851 466.263 318.613 468.368 318.634C470.472 318.655 472.205 315.927 472.239 312.542Z" fill="#D91F26"/>
<path d="M509.54 301.538C509.568 298.152 507.885 295.393 505.781 295.376C503.677 295.358 501.948 298.088 501.92 301.474C501.892 304.859 503.574 307.618 505.679 307.635C507.783 307.653 509.511 304.923 509.54 301.538Z" fill="#951B1E"/>
<path d="M499.385 283.102C499.414 279.717 497.731 276.958 495.627 276.94C493.523 276.923 491.794 279.653 491.766 283.038C491.737 286.424 493.42 289.182 495.524 289.2C497.628 289.218 499.357 286.487 499.385 283.102Z" fill="#951B1E"/>
<path d="M523.345 285.98C523.385 281.18 520.566 277.266 517.048 277.236C513.53 277.207 510.645 281.074 510.605 285.873C510.565 290.672 513.384 294.586 516.902 294.616C520.42 294.645 523.304 290.779 523.345 285.98Z" fill="#F1594B"/>
<path d="M520.785 285.957C520.813 282.572 519.13 279.813 517.026 279.796C514.922 279.778 513.193 282.508 513.165 285.894C513.137 289.279 514.819 292.038 516.923 292.055C519.028 292.073 520.756 289.343 520.785 285.957Z" fill="#FAF28C"/>
<path d="M504.465 256.426C504.513 251.626 501.7 247.707 498.182 247.672C494.664 247.637 491.773 251.499 491.725 256.298C491.677 261.098 494.49 265.017 498.008 265.052C501.526 265.087 504.417 261.225 504.465 256.426Z" fill="#F1594B"/>
<path d="M500.929 255.905C500.958 252.519 499.275 249.761 497.171 249.743C495.067 249.725 493.338 252.456 493.31 255.841C493.281 259.226 494.964 261.985 497.068 262.003C499.172 262.02 500.901 259.29 500.929 255.905Z" fill="#FAF28C"/>
<path d="M498.768 307.579C498.808 302.78 495.989 298.866 492.471 298.836C488.953 298.807 486.069 302.673 486.028 307.472C485.988 312.272 488.807 316.186 492.325 316.215C495.843 316.245 498.728 312.378 498.768 307.579Z" fill="#F1594B"/>
<path d="M496.208 307.557C496.236 304.172 494.554 301.413 492.449 301.395C490.345 301.378 488.617 304.108 488.588 307.493C488.56 310.879 490.243 313.637 492.347 313.655C494.451 313.673 496.18 310.942 496.208 307.557Z" fill="#FAF28C"/>
<path d="M479.235 270.64C479.276 265.841 476.456 261.926 472.938 261.897C469.421 261.867 466.536 265.734 466.496 270.533C466.456 275.332 469.275 279.247 472.793 279.276C476.311 279.305 479.195 275.439 479.235 270.64Z" fill="#F1594B"/>
<path d="M476.676 270.618C476.704 267.232 475.021 264.474 472.917 264.456C470.813 264.438 469.084 267.168 469.056 270.554C469.028 273.939 470.71 276.698 472.815 276.716C474.919 276.733 476.647 274.003 476.676 270.618Z" fill="#FAF28C"/>
<path d="M460.309 259.362C460.337 255.976 458.654 253.218 456.55 253.2C454.446 253.182 452.717 255.913 452.689 259.298C452.661 262.683 454.343 265.442 456.448 265.46C458.552 265.477 460.28 262.747 460.309 259.362Z" fill="#951B1E"/>
<path d="M481.467 244.6C481.495 241.215 479.812 238.456 477.708 238.438C475.604 238.421 473.875 241.151 473.847 244.536C473.819 247.922 475.501 250.68 477.606 250.698C479.71 250.716 481.438 247.985 481.467 244.6Z" fill="#951B1E"/>
<path d="M518.864 265.198C518.898 261.813 517.22 259.051 515.116 259.03C513.011 259.009 511.278 261.736 511.244 265.122C511.211 268.507 512.889 271.269 514.993 271.29C517.097 271.311 518.831 268.584 518.864 265.198Z" fill="#951B1E"/>
<path d="M350.93 62.5991C350.93 62.5991 348.8 65.2291 330.99 67.4091C329.57 82.1891 351.67 88.1691 351.67 88.1691C351.67 88.1691 340.11 95.9491 332.27 97.4091C324.43 98.8691 345.76 131.219 359.48 137.409C357.95 140.112 355.902 142.486 353.454 144.396C351.005 146.305 348.203 147.713 345.21 148.539C344.93 158.719 364.35 181.299 398.71 175.719C398.71 175.719 393.35 188.199 385.49 190.839C385.49 190.839 402.2 212.299 435.64 195.269C435.64 195.269 436.15 200.539 430.64 206.459C430.64 206.459 455.06 227.759 496.56 192.459L343.71 26.0391C337.46 39.7291 350.93 62.5991 350.93 62.5991Z" fill="#4CA84E"/>
<path d="M488.21 93.5384C496.69 59.7784 475.84 38.5384 465.67 37.9184C464.588 40.8351 462.939 43.5091 460.82 45.7865C458.7 48.0638 456.152 49.8997 453.32 51.1884C448.32 36.9984 417.92 12.9984 415.8 20.6784C413.68 28.3584 404.95 39.2284 404.95 39.2284C404.95 39.2284 400.86 16.6884 386.02 16.8584C382.33 34.4184 379.53 36.3184 379.53 36.3184C379.53 36.3184 357.89 20.9684 343.71 26.0384L496.59 192.468C535.3 154.128 516.16 127.978 516.16 127.978C509.79 132.978 504.59 131.978 504.59 131.978C524.39 100.098 504.43 81.6284 504.43 81.6284C501.1 89.2784 488.21 93.5384 488.21 93.5384Z" fill="#66BE64"/>
<g style="mix-blend-mode:multiply">
<path d="M496.59 192.468C535.3 154.128 516.16 127.978 516.16 127.978C509.79 132.978 504.59 131.978 504.59 131.978C524.39 100.098 504.43 81.6284 504.43 81.6284C501.13 89.2384 488.24 93.5184 488.24 93.5184C496.72 59.7584 475.87 38.5184 465.7 37.8984C464.618 40.8152 462.969 43.4891 460.85 45.7665C458.73 48.0439 456.182 49.8797 453.35 51.1684C453.35 51.1684 496.15 173.058 435.67 195.258C435.67 195.258 436.18 200.528 430.67 206.448C430.64 206.538 455.06 227.788 496.59 192.468Z" fill="#4CA84E"/>
</g>
<path d="M792.85 625.029C792.85 625.029 795.16 622.559 813.09 621.709C815.61 607.079 794.01 599.469 794.01 599.469C794.01 599.469 806.12 592.579 814.01 591.709C821.9 590.839 803.08 556.979 789.86 549.809C791.585 547.218 793.803 544.993 796.389 543.262C798.975 541.53 801.878 540.326 804.93 539.719C805.93 529.589 788.28 505.629 753.6 508.629C753.6 508.629 759.87 496.629 767.9 494.539C767.9 494.539 752.84 471.889 718.22 486.379C718.22 486.379 718.11 481.099 724.05 475.599C724.05 475.599 701.28 452.539 657.27 484.669L797.27 662.029C804.59 648.839 792.85 625.029 792.85 625.029Z" fill="#4CA84E"/>
<path d="M658.25 583.93C647.25 616.93 666.49 639.73 676.59 641.07C677.886 638.241 679.73 635.697 682.014 633.585C684.299 631.472 686.979 629.832 689.9 628.76C693.8 643.28 722.35 669.48 725.04 661.97C727.73 654.46 737.24 644.29 737.24 644.29C737.24 644.29 739.64 667.07 754.45 668.01C759.45 650.77 762.37 649.09 762.37 649.09C762.37 649.09 782.81 666.02 797.37 662.03L657.37 484.67C615.83 520.02 632.98 547.54 632.98 547.54C639.7 543.04 644.82 544.38 644.82 544.38C622.69 574.67 641.23 594.54 641.23 594.54C645.09 587.24 658.25 583.93 658.25 583.93Z" fill="#66BE64"/>
<g style="mix-blend-mode:multiply">
<path d="M657.3 484.669C615.83 520.019 632.98 547.539 632.98 547.539C639.7 543.039 644.82 544.379 644.82 544.379C622.69 574.669 641.23 594.539 641.23 594.539C645.09 587.199 658.23 583.889 658.23 583.889C647.23 616.889 666.47 639.689 676.57 641.029C677.866 638.2 679.71 635.656 681.994 633.543C684.279 631.431 686.959 629.791 689.88 628.719C689.88 628.719 656.29 504.029 718.25 486.379C718.25 486.379 718.14 481.099 724.08 475.599C724.08 475.599 701.31 452.539 657.3 484.669Z" fill="#4CA84E"/>
</g>
<path d="M779.75 81.4093C779.75 81.4093 777.68 78.5693 780.27 60.0793C765.81 54.6793 753.86 75.2893 753.86 75.2893C753.86 75.2893 749.14 61.5793 749.78 53.2893C750.42 44.9993 712.18 57.7693 702.3 69.8993C699.983 67.6357 698.136 64.937 696.864 61.958C695.593 58.979 694.922 55.7782 694.89 52.5393C684.74 49.5393 656.83 62.9793 653.2 99.0093C653.2 99.0093 642.11 90.2693 641.56 81.6593C641.56 81.6593 615.51 92.6593 623.64 130.869C623.64 130.869 618.21 129.969 613.73 122.869C613.73 122.869 585.73 141.699 610.12 192.869L818.44 83.9693C806.36 74.0193 779.75 81.4093 779.75 81.4093Z" fill="#4CA84E"/>
<path d="M711.77 211.059C743.42 228.648 770.4 213.409 773.77 203.349C771.132 201.471 768.89 199.092 767.174 196.346C765.458 193.6 764.301 190.542 763.77 187.349C779.37 186.159 811.66 162.029 804.51 157.829C797.36 153.629 788.79 141.949 788.79 141.949C788.79 141.949 812.53 143.899 816.35 128.949C799.59 120.539 798.47 117.209 798.47 117.209C798.47 117.209 819.72 99.5785 818.47 83.9785L610.12 192.879C638.26 242.089 669.68 229.879 669.68 229.879C666.37 222.139 668.68 217.169 668.68 217.169C695.44 245.619 719.37 230.539 719.37 230.539C712.59 225.159 711.77 211.059 711.77 211.059Z" fill="#66BE64"/>
<g style="mix-blend-mode:multiply">
<path d="M610.12 192.878C638.26 242.088 669.68 229.878 669.68 229.878C666.37 222.138 668.68 217.168 668.68 217.168C695.44 245.618 719.37 230.538 719.37 230.538C712.61 225.178 711.77 211.078 711.77 211.078C743.42 228.668 770.4 213.428 773.77 203.368C771.132 201.491 768.89 199.111 767.174 196.366C765.458 193.62 764.301 190.562 763.77 187.368C763.77 187.368 629.77 197.638 623.71 130.898C623.71 130.898 618.28 129.998 613.8 122.898C613.73 122.868 585.77 141.698 610.12 192.878Z" fill="#4CA84E"/>
</g>
<path d="M469.95 110.513C476.62 107.011 477.332 95.2295 471.54 84.1979C465.748 73.1663 455.646 67.0621 448.976 70.5638C442.307 74.0656 441.595 85.8472 447.386 96.8788C453.178 107.91 463.28 114.015 469.95 110.513Z" fill="white"/>
<path d="M707.895 104.992C719.381 100.164 726.325 90.62 723.406 83.6754C720.487 76.7309 708.809 75.0153 697.323 79.8436C685.837 84.6719 678.892 94.2156 681.812 101.16C684.731 108.105 696.409 109.82 707.895 104.992Z" fill="white"/>
<path d="M738.828 295.598C746.846 290.074 749.88 280.566 745.606 274.363C741.331 268.16 731.367 267.61 723.349 273.135C715.332 278.66 712.297 288.167 716.572 294.37C720.846 300.573 730.811 301.123 738.828 295.598Z" fill="white"/>
<path d="M432.29 83.9691C436.068 83.9691 439.13 80.9067 439.13 77.1291C439.13 73.3514 436.068 70.2891 432.29 70.2891C428.512 70.2891 425.45 73.3514 425.45 77.1291C425.45 80.9067 428.512 83.9691 432.29 83.9691Z" fill="white"/>
<path d="M736.62 90.8187C740.397 90.8187 743.46 87.7563 743.46 83.9787C743.46 80.201 740.397 77.1387 736.62 77.1387C732.842 77.1387 729.78 80.201 729.78 83.9787C729.78 87.7563 732.842 90.8187 736.62 90.8187Z" fill="white"/>
<path d="M755.76 271.459C759.538 271.459 762.6 268.397 762.6 264.619C762.6 260.842 759.538 257.779 755.76 257.779C751.982 257.779 748.92 260.842 748.92 264.619C748.92 268.397 751.982 271.459 755.76 271.459Z" fill="white"/>
</g>
<defs>
<clipPath id="clip0_4873_545">
<rect width="848.74" height="943.32" fill="white"/>
</clipPath>
</defs>
</svg>
