<svg width="408" height="718" viewBox="0 0 408 718" fill="none" xmlns="http://www.w3.org/2000/svg">
<g clip-path="url(#clip0_4857_3552)">
<path d="M203.82 717.72C316.387 717.72 407.64 695.603 407.64 668.32C407.64 641.037 316.387 618.92 203.82 618.92C91.2533 618.92 0 641.037 0 668.32C0 695.603 91.2533 717.72 203.82 717.72Z" fill="#A7A9AC"/>
<path d="M307.08 121.41C305.014 118.136 301.763 115.788 298.006 114.856C294.248 113.924 290.276 114.481 286.92 116.41C278.982 120.969 271.469 126.23 264.47 132.13C262.28 80.8799 246.42 38.2199 217.18 5.12989C214.672 2.29562 211.184 0.51445 207.418 0.143528C203.651 -0.227393 199.883 0.839363 196.87 3.12989C195.01 4.53989 155.58 35.4399 148.12 119.23C136.197 107.363 122.653 97.2452 107.89 89.1799C104.57 87.3651 100.687 86.8719 97.0191 87.7991C93.351 88.7264 90.1688 91.0055 88.1101 94.1799C86.8801 96.0799 58.3501 141.73 84.4701 228.84L84.5401 229.08C85.5401 232.29 86.5401 235.56 87.6301 238.79L87.7401 239.13C88.8501 242.41 90.0301 245.76 91.2901 249.13L91.4101 249.46C92.6801 252.85 94.0301 256.3 95.4101 259.75L95.5501 260.1C96.2601 261.83 96.9801 263.57 97.7201 265.29L97.8801 265.67C98.6101 267.38 99.3601 269.11 100.16 270.9L100.22 271.05C101.01 272.81 101.81 274.58 102.64 276.37L102.92 276.99C104.58 280.56 106.32 284.18 108.11 287.77L108.51 288.58C110.31 292.18 112.21 295.87 114.17 299.58L114.64 300.47C115.64 302.31 116.64 304.16 117.64 305.99L117.88 306.41C118.88 308.17 119.88 309.95 120.88 311.73L121.38 312.61C122.453 314.47 123.543 316.347 124.65 318.24L125.13 319.05C126.157 320.803 127.207 322.563 128.28 324.33L128.72 325.06C129.88 326.96 131.057 328.87 132.25 330.79L132.93 331.88C134.08 333.72 135.25 335.56 136.46 337.44L136.7 337.82C137.95 339.77 139.24 341.74 140.54 343.72L141.36 344.95C143.99 348.95 146.74 352.95 149.54 356.95L150.44 358.25C151.85 360.25 153.27 362.25 154.73 364.32L155.22 365.01C156.56 366.87 157.91 368.75 159.29 370.63L160.22 371.9C161.71 373.9 163.22 375.98 164.78 378.05L165.62 379.16C167.02 381.01 168.43 382.88 169.87 384.75L170.71 385.85L173.14 388.99V653.32C173.14 657.298 174.72 661.113 177.534 663.926C180.347 666.74 184.162 668.32 188.14 668.32H222.53C226.508 668.32 230.324 666.74 233.137 663.926C235.95 661.113 237.53 657.298 237.53 653.32V385.64L238.23 384.64C239.47 382.94 240.69 381.247 241.89 379.56L242.6 378.56C243.933 376.687 245.243 374.827 246.53 372.98L247.31 371.84C248.5 370.13 249.66 368.43 250.81 366.74L251.24 366.12C252.48 364.28 253.7 362.453 254.9 360.64L255.68 359.45C258.08 355.81 260.44 352.13 262.68 348.54L263.38 347.43C264.487 345.643 265.583 343.863 266.67 342.09L266.89 341.72C267.89 340.04 268.89 338.37 269.89 336.72L270.46 335.72C271.46 333.98 272.46 332.24 273.46 330.55L273.86 329.86C274.77 328.26 275.67 326.66 276.55 325.09L276.96 324.36C277.96 322.64 278.85 320.94 279.77 319.24L280.18 318.47C281.05 316.85 281.91 315.24 282.75 313.62L282.93 313.3C283.81 311.6 284.67 309.933 285.51 308.3L285.91 307.49C287.59 304.16 289.22 300.82 290.76 297.55L291.1 296.83C292.63 293.58 294.1 290.3 295.52 287.08L295.77 286.51C296.47 284.903 297.157 283.297 297.83 281.69L297.91 281.51C298.56 279.94 299.2 278.38 299.91 276.75L300.01 276.51C300.64 274.92 301.26 273.35 301.86 271.78L301.98 271.46C303.17 268.36 304.32 265.23 305.41 262.13L305.52 261.81C306.52 258.81 307.58 255.81 308.52 252.81L308.65 252.55C309.57 249.61 310.45 246.65 311.26 243.79L311.32 243.58C333.41 164.55 308.17 123.14 307.08 121.41Z" fill="#231F20"/>
<path d="M222.52 297.55H188.13V653.32H222.52V297.55Z" fill="#66BE64"/>
<path d="M200.94 335.34L205.94 15C307.32 129.89 200.94 335.34 200.94 335.34Z" fill="#EDD946"/>
<path d="M205.93 15L200.93 335.34C110.3 87.55 205.93 15 205.93 15Z" fill="#FAF28C"/>
<g style="mix-blend-mode:multiply">
<path d="M202.82 251.129C197.5 175.799 161.99 140.189 161.99 140.189C160.99 187.869 170.31 251.589 200.99 335.339C200.99 335.339 247.49 245.539 249.7 151.469C208.25 186.919 202.82 251.129 202.82 251.129Z" fill="#EFCC6B"/>
</g>
<path d="M205.82 402.439L294.39 129.439C178.46 195.979 205.82 402.439 205.82 402.439Z" fill="#66BE64"/>
<path d="M294.39 129.41L205.82 402.41C351.43 219.93 294.39 129.41 294.39 129.41Z" fill="#4CA84E"/>
<g style="mix-blend-mode:multiply">
<path d="M207.19 286.7C198.66 348.39 205.82 402.41 205.82 402.41C262.38 331.55 288.36 274.55 298.99 231.31C222.93 308.38 207.19 286.7 207.19 286.7Z" fill="#4CA84E"/>
</g>
<path d="M205.44 405.05L100.71 102.27C235.24 175.62 205.44 405.05 205.44 405.05Z" fill="#66BE64"/>
<path d="M100.71 102.27L205.44 405.05C35.6501 203.09 100.71 102.27 100.71 102.27Z" fill="#4CA84E"/>
<g style="mix-blend-mode:multiply">
<path d="M202.84 276.55C213.23 345.01 205.43 405.04 205.43 405.04C139.43 326.59 108.94 263.4 96.28 215.45C184.84 300.67 202.84 276.55 202.84 276.55Z" fill="#4CA84E"/>
</g>
<path d="M228.623 101.18C233.924 100.299 236.746 90.7068 234.925 79.7562C233.104 68.8056 227.331 60.6429 222.03 61.5243C216.729 62.4056 213.908 71.9973 215.729 82.9479C217.549 93.8985 223.323 102.061 228.623 101.18Z" fill="white"/>
<path d="M301.681 177.811C302.606 168.462 299.074 160.46 293.792 159.937C288.511 159.415 283.479 166.57 282.555 175.918C281.63 185.267 285.162 193.269 290.443 193.792C295.725 194.314 300.756 187.159 301.681 177.811Z" fill="white"/>
<path d="M236.65 117.38C240.378 117.38 243.4 114.358 243.4 110.63C243.4 106.902 240.378 103.88 236.65 103.88C232.922 103.88 229.9 106.902 229.9 110.63C229.9 114.358 232.922 117.38 236.65 117.38Z" fill="white"/>
<path d="M294.39 205.11C296.776 205.11 298.71 203.176 298.71 200.79C298.71 198.404 296.776 196.47 294.39 196.47C292.004 196.47 290.07 198.404 290.07 200.79C290.07 203.176 292.004 205.11 294.39 205.11Z" fill="white"/>
</g>
<defs>
<clipPath id="clip0_4857_3552">
<rect width="407.65" height="717.72" fill="white"/>
</clipPath>
</defs>
</svg>
