<svg width="716" height="777" viewBox="0 0 716 777" fill="none" xmlns="http://www.w3.org/2000/svg">
<g clip-path="url(#clip0_4809_1742)">
<path d="M302.47 776.89C415.037 776.89 506.29 754.773 506.29 727.49C506.29 700.207 415.037 678.09 302.47 678.09C189.903 678.09 98.6501 700.207 98.6501 727.49C98.6501 754.773 189.903 776.89 302.47 776.89Z" fill="#A7A9AC"/>
<path d="M714.94 349.74C690.32 269.3 629.94 250.59 596.45 246.57C597.59 245.82 598.7 245.07 599.8 244.33L600.72 243.7L603.24 241.97L604.57 241.04C605.3 240.53 606.02 240.04 606.73 239.52L607.86 238.72C608.86 238 609.86 237.28 610.86 236.58L612.14 235.64C612.75 235.19 613.36 234.74 613.92 234.31L615.34 233.25L618.29 231L620.87 229L623.6 226.82L625.03 225.65L627.68 223.47L628.68 222.66L631.4 220.34L632.32 219.54L633.83 218.2L634.62 217.5L636.1 216.17L636.26 216.02C637.41 215.02 638.52 213.95 639.62 212.91L640.11 212.45L641.6 211.02L642.13 210.51C674.56 179.07 680.13 155.89 680.71 153.35C681.296 150.556 681.073 147.653 680.067 144.982C679.061 142.311 677.314 139.982 675.03 138.27C645.29 115.97 613.92 104.66 581.81 104.66C549.7 104.66 523.74 116.01 507.32 125.76C505.916 123.982 504.127 122.547 502.089 121.559C500.051 120.572 497.815 120.059 495.55 120.06C493.112 120.048 490.708 120.635 488.55 121.77C484.848 123.705 481.325 125.964 478.02 128.52C476.747 127.946 475.401 127.552 474.02 127.35L474.17 126.35C474.45 124.44 474.71 122.56 474.96 120.64V120.37C475.19 118.6 475.4 116.86 475.6 115.13L475.74 113.9C475.94 112.1 476.13 110.32 476.29 108.58C476.29 108.53 476.29 108.16 476.29 108.16C476.45 106.51 476.58 104.9 476.71 103.31L476.79 102.31C476.92 100.6 477.04 98.9095 477.13 97.3095V96.9895C477.22 95.4095 477.3 93.8596 477.36 92.2795V91.4495C477.42 89.8295 477.47 88.2295 477.5 86.7595V86.4396C477.5 84.9196 477.5 83.4395 477.5 81.9895V81.3195C477.5 79.7795 477.5 78.2596 477.5 76.7795V76.6395C477.5 75.1795 477.43 73.7395 477.38 72.2995V71.9195C477.38 70.4495 477.26 69.0095 477.18 67.5995C477.18 67.5995 477.18 67.5195 477.18 67.4795C477.1 66.0995 477.01 64.7495 476.91 63.4196V63.1895C473.83 24.0495 461.09 7.39954 459.65 5.62954C457.847 3.41595 455.449 1.76301 452.739 0.86491C450.029 -0.0331859 447.118 -0.139117 444.35 0.559551C391.44 13.9296 367.79 46.2795 357.27 71.0695C353.3 80.4886 350.47 90.3486 348.84 100.44C345.797 100.903 342.969 102.291 340.742 104.417C338.515 106.542 336.995 109.301 336.39 112.32C332.64 131.03 338.47 148.07 345.27 160.46C344.983 160.84 344.713 161.23 344.46 161.63C342.888 164.146 342.097 167.071 342.188 170.037C342.279 173.002 343.247 175.874 344.97 178.29C350.354 186.093 356.904 193.023 364.39 198.84L364.52 198.94C366.443 200.385 368.446 201.72 370.52 202.94C362.75 241.19 367.76 278.07 371.14 295.58C366.22 302.67 361.47 309.98 356.97 317.38C350.7 327.69 344.71 338.53 339.03 349.79C324.139 324.738 305.419 302.172 283.55 282.91C278.97 278.85 274.243 274.916 269.37 271.11C272.811 262.936 274.586 254.158 274.59 245.29C274.77 234.37 272.85 222.18 268.89 209.05C268.055 206.198 266.391 203.658 264.111 201.753C261.83 199.848 259.035 198.664 256.08 198.35C255.57 198.3 255.08 198.27 254.57 198.27C253.497 198.27 252.428 198.387 251.38 198.62C244.44 181.31 231.58 160.12 208.3 148.62C204.971 146.973 201.149 146.619 197.575 147.628C194 148.636 190.927 150.935 188.95 154.08C171.51 144.08 143.72 132.26 109.59 132.26C73.5101 132.26 38.5901 145.35 5.69006 171.16C3.44452 172.924 1.74916 175.292 0.803221 177.986C-0.142719 180.681 -0.299931 183.589 0.350066 186.37C0.990066 189.1 7.62005 213.99 43.66 247.37L44.2601 247.93L45.9001 249.43L46.4801 249.96C47.6901 251.04 48.9201 252.14 50.2301 253.27L50.3401 253.37L52.0001 254.8L53.0001 255.61L54.6201 256.97L55.6201 257.82C56.6201 258.65 57.62 259.49 58.69 260.33L59.69 261.16C60.16 261.55 60.6901 261.93 61.1401 262.32L62.6401 263.49L64.2301 264.73L65.3701 265.6L67.2901 267.06C68.2201 267.77 69.1601 268.47 70.1201 269.18L73.4201 271.59L74.9801 272.7C75.6301 273.17 78.3801 275.1 78.3801 275.1C79.4601 275.85 80.5501 276.61 81.6501 277.35L82.9501 278.24L85.3001 279.81L86.3901 280.53L89.2601 282.42L90.6301 283.3C91.8567 284.1 93.0967 284.893 94.3501 285.68L95.41 286.34L98.41 288.19L99.8701 289.09L102.77 290.84L104.09 291.63C105.47 292.46 106.86 293.28 108.33 294.14L109.05 294.55L112.72 296.66L114.16 297.48L117.48 299.34L118.81 300.07C119.68 300.56 120.56 301.07 121.44 301.52C118.417 304.059 116.516 307.688 116.151 311.619C115.786 315.55 116.986 319.467 119.49 322.52C108.009 324.726 97.1488 329.416 87.6701 336.26C84.6684 338.453 82.588 341.682 81.8323 345.322C81.0766 348.962 81.6994 352.753 83.5801 355.96C71.1085 363.904 59.7402 373.46 49.7701 384.38C26.1601 410.38 0.77006 456.09 13.8601 526.29C14.3842 529.095 15.6975 531.692 17.6459 533.777C19.5943 535.861 22.0969 537.347 24.8601 538.06C26.2301 538.409 31.3801 539.56 40.4501 539.56C49.9701 539.56 64.6401 538.25 84.0901 532.72C103.6 638.66 184.69 654.72 232.02 654.72C244.5 654.699 256.958 653.696 269.28 651.72C267.82 690.51 269.33 715.61 269.53 718.72C269.784 722.522 271.476 726.085 274.262 728.685C277.048 731.286 280.719 732.728 284.53 732.72C284.86 732.72 285.19 732.72 285.53 732.72L321.46 730.38C325.427 730.122 329.129 728.302 331.754 725.317C334.379 722.331 335.712 718.427 335.46 714.46C335.46 713.95 333.81 686.46 335.84 644.66L337.42 644.92L337.69 644.97C339.17 645.21 340.69 645.44 342.34 645.67L342.65 645.72L345.01 646.04L345.41 646.09L347.82 646.39H348.16C349.92 646.59 351.75 646.79 353.59 646.96H353.95C354.86 647.05 355.77 647.13 356.72 647.2H357.09C358.03 647.28 358.98 647.35 359.95 647.41H360.25C362.25 647.55 364.37 647.66 366.44 647.74H366.74L369.74 647.83H370.25C371.25 647.83 372.33 647.83 373.36 647.83H375.28C376.97 647.83 378.67 647.83 380.43 647.77H380.76C381.85 647.77 382.94 647.71 384.04 647.66H384.51L387.9 647.49H388.2C390.59 647.34 392.99 647.15 395.29 646.92H395.69C396.85 646.81 398.01 646.68 399.12 646.55L399.64 646.48C400.81 646.34 401.99 646.19 403.21 646.02H403.49C405.99 645.67 408.49 645.26 410.93 644.8L411.29 644.73C412.49 644.5 413.69 644.26 414.88 644.01L415.37 643.91C416.58 643.65 417.79 643.37 419.01 643.08L419.31 643.01C421.84 642.4 424.38 641.72 426.83 641.01L427.26 640.89C428.47 640.53 429.67 640.15 430.94 639.74L431.38 639.6C432.6 639.2 433.81 638.78 435.02 638.35L435.35 638.23C437.89 637.32 440.43 636.32 442.88 635.23L443.28 635.07C444.48 634.549 445.67 634.01 446.85 633.46L447.36 633.23C448.56 632.66 449.76 632.08 450.94 631.49L451.27 631.31C453.76 630.039 456.27 628.68 458.57 627.31L459.02 627.05C460.17 626.35 461.32 625.64 462.49 624.89L462.95 624.59C464.15 623.81 465.31 623.03 466.4 622.27L466.7 622.05C469.07 620.39 471.42 618.609 473.63 616.82L474.05 616.47C475.11 615.6 476.2 614.67 477.27 613.74L477.74 613.32C478.87 612.32 479.92 611.32 480.94 610.38L481.23 610.1C483.41 608.01 485.55 605.79 487.6 603.51L487.96 603.11C488.92 602.03 489.9 600.886 490.9 599.68L491.29 599.21C492.29 598.02 493.22 596.81 494.17 595.56L494.4 595.27C496.32 592.72 498.2 590.04 499.97 587.27L500.29 586.77C501.11 585.49 501.96 584.12 502.79 582.77L503.15 582.15C504.01 580.68 504.8 579.279 505.56 577.87L505.79 577.45C506.67 575.79 507.45 574.28 508.17 572.82C515.92 557.03 521.4 538.7 524.46 518.33C524.974 514.916 524.295 511.429 522.537 508.458C520.779 505.486 518.05 503.212 514.81 502.02C496.241 495.865 476.802 492.738 457.24 492.76C425.52 492.76 397.43 501.12 373.74 517.6C363.805 524.538 354.816 532.74 347 542C348.76 531.77 350.77 521.35 353.07 510.82C367.82 443.1 390.4 385.82 420.25 340.37C436.799 343.549 453.55 345.574 470.38 346.43C470.47 346.81 470.57 347.21 470.67 347.62L470.86 348.31C471.16 349.419 471.51 350.54 471.86 351.65C471.96 351.92 472.05 352.19 472.16 352.49C472.39 353.12 472.62 353.75 472.88 354.38C473 354.69 473.12 354.99 473.24 355.26C474.121 357.336 475.122 359.36 476.24 361.32L476.67 362.06C479.872 367.617 484.029 372.566 488.95 376.68C491.041 378.326 493.532 379.386 496.168 379.751C498.804 380.117 501.49 379.775 503.95 378.76C504.642 378.46 505.31 378.109 505.95 377.71C508.21 379.71 510.53 381.64 512.87 383.46C514.46 384.7 516.11 385.91 517.76 387.08C520.06 388.71 522.42 390.26 524.76 391.7C525.89 392.4 527.08 393.1 528.37 393.83L529.9 394.69C531.05 395.32 532.19 395.93 533.26 396.47C535.12 397.47 536.99 398.31 538.82 399.12C542.729 400.913 546.78 402.381 550.93 403.51C553.221 404.076 555.613 404.095 557.913 403.563C560.212 403.031 562.353 401.964 564.163 400.449C565.972 398.934 567.399 397.013 568.326 394.843C569.253 392.673 569.656 390.314 569.5 387.96H570.01L574.01 388.35L575.43 388.48L579.08 388.8L579.83 388.86L584.05 389.18L585.37 389.27L588.29 389.45L589.76 389.54L592.76 389.7L593.84 389.75L597.65 389.9H598.71L601.71 389.98H603.2H605.68H607.03C608.1 389.98 609.17 389.98 610.22 389.98H614.09H615.74H617.74H619.32L622.37 389.87L625.72 389.73L627.46 389.64L630.72 389.44L631.85 389.36C633.01 389.27 634.16 389.19 635.27 389.09L636.43 388.99L638.33 388.82L639.33 388.72L641.43 388.5C642.87 388.34 644.28 388.18 645.75 387.99L646.35 387.92L648.28 387.66L648.96 387.56C691.49 381.56 708.86 366.87 710.71 365.21C712.807 363.296 714.317 360.826 715.066 358.087C715.815 355.349 715.771 352.454 714.94 349.74ZM288.31 497.66C283.19 521.28 279.05 545.66 275.9 570.6C243.19 516.01 195.45 501.44 158.2 499.68L160.57 498.27L162 497.41C163 496.84 163.94 496.25 164.89 495.66L166.22 494.85C167.59 494.01 168.97 493.15 170.32 492.3L171.09 491.81L174.67 489.53L176.03 488.65C177.09 487.97 178.15 487.27 179.21 486.57L180.52 485.71L183.01 484.05C183.576 486.595 184.795 488.949 186.548 490.88C188.302 492.81 190.528 494.25 193.007 495.058C195.487 495.866 198.134 496.013 200.688 495.485C203.241 494.958 205.614 493.774 207.57 492.05C208.57 491.14 217.93 482.7 227.68 466.39C228.76 464.6 229.8 462.76 230.79 460.94C233.244 456.388 235.467 451.715 237.45 446.94C238.35 444.799 239.2 442.64 240 440.46C240.904 440.623 241.821 440.707 242.74 440.71C243.18 440.71 243.62 440.69 244.06 440.65C246.719 440.415 249.268 439.474 251.442 437.926C253.617 436.377 255.339 434.276 256.43 431.84C261.81 418.336 262.483 403.413 258.34 389.48C265.8 385.984 273.703 383.528 281.83 382.18C291.955 399.067 299.549 417.348 304.37 436.44C298.27 456.03 292.87 476.59 288.31 497.66Z" fill="#231F20"/>
<path d="M555.08 322.019L544.28 287.689C507.48 299.289 466.53 296.329 438.58 291.789C464.699 262.332 496.529 238.487 532.14 221.699L516.82 189.119C479.628 206.661 446.117 231.127 418.08 261.209C416.08 234.539 418.08 196.649 439.83 169.689L411.83 147.109C368.25 201.209 383.19 280.929 387.27 298.789C381.23 307.189 375.44 315.946 369.9 325.059C358.531 343.874 348.48 363.454 339.82 383.659C324.459 349.392 301.913 318.825 273.71 294.029C241.71 265.699 213.05 253.269 211.84 252.749L197.65 285.839C197.91 285.949 223.09 297.009 250.8 321.839C255.22 325.839 259.453 329.916 263.5 334.069C236.96 340.479 201.31 357.529 166.31 400.439L194.21 423.189C233.98 374.399 272.28 366.959 289.58 366.419C303.839 387.925 314.119 411.818 319.93 436.959C313.45 457.279 307.783 478.559 302.93 500.799C278.15 615.179 284.2 713.549 284.47 717.679L320.39 715.349C320.33 714.349 314.39 617.169 338.29 507.599C354.43 433.499 379.43 372.166 413.29 323.599C437.077 328.897 461.361 331.636 485.73 331.769C508.01 331.839 532 329.309 555.08 322.019Z" fill="#66BE64"/>
<path d="M219.81 364.32C219.81 364.32 219.71 335.32 166.44 325.17C166.44 325.17 172.29 333.77 174.61 341.23C174.61 341.23 129.12 324.62 96.53 348.37C96.53 348.37 109.22 355.46 110.53 358.51C110.53 358.51 5.45998 399.35 28.63 523.51C89.39 412.96 219.81 364.32 219.81 364.32Z" fill="#66BE64"/>
<path d="M219.81 364.319C219.81 364.319 89.3901 412.959 28.6101 523.509C28.6101 523.509 83.9101 537.769 191.33 459.959C194.91 466.376 197.068 473.486 197.66 480.809C197.66 480.809 221.26 460.029 231.13 417.939C231.13 417.939 236.89 417.159 242.74 425.759C242.74 425.759 258.99 389.549 219.81 364.319Z" fill="#4CA84E"/>
<g style="mix-blend-mode:multiply">
<path d="M219.81 364.319C219.81 364.319 219.75 347.809 196.81 335.319C196.81 335.319 203.02 435.319 91.95 514.469C117.5 505.619 150.67 489.369 191.3 459.939C194.88 466.355 197.038 473.466 197.63 480.789C197.63 480.789 221.23 460.009 231.1 417.919C231.1 417.919 236.86 417.139 242.71 425.739C242.74 425.759 258.99 389.549 219.81 364.319Z" fill="#4CA84E"/>
</g>
<path d="M458.73 242.17C458.73 242.17 435.06 230.38 448.29 182.77C448.29 182.77 452.95 191.02 458.11 195.93C458.11 195.93 462.91 152.07 495.46 135.04C495.46 135.04 496.13 148.26 498.1 150.55C498.1 150.55 573.87 81.2 665.94 150.25C551.08 155.28 458.73 242.17 458.73 242.17Z" fill="#66BE64"/>
<path d="M458.73 242.17C458.73 242.17 551.08 155.28 665.94 150.25C665.94 150.25 655.26 201.17 548.34 257.51C552.138 263.021 557.076 267.653 562.82 271.09C562.82 271.09 536.33 281.99 497.95 273.09C497.95 273.09 494.95 277.48 499.66 285.73C499.66 285.7 463.52 284.36 458.73 242.17Z" fill="#4CA84E"/>
<g style="mix-blend-mode:multiply">
<path d="M458.73 242.169C458.73 242.169 445.26 235.449 444.33 211.709C444.33 211.709 523.53 257.159 632.98 198.369C615.45 215.669 588.79 236.199 548.34 257.509C552.138 263.021 557.077 267.652 562.82 271.089C562.82 271.089 536.33 281.989 497.95 273.089C497.95 273.089 494.95 277.479 499.66 285.729C499.66 285.699 463.52 284.359 458.73 242.169Z" fill="#4CA84E"/>
</g>
<path d="M491.17 308.88C491.17 308.88 479.67 286.69 516.29 257.71C516.29 257.71 515.29 266.61 516.46 273.23C516.46 273.23 544.56 242.41 578.9 247.54C578.9 247.54 572.04 258.01 572.28 260.86C572.28 260.86 668.76 250.12 700.6 354.13C610.08 293.96 491.17 308.88 491.17 308.88Z" fill="#66BE64"/>
<path d="M491.17 308.88C491.17 308.88 610.08 293.96 700.6 354.13C700.6 354.13 664.08 387.07 551.05 370.52C550.874 376.845 552.061 383.134 554.53 388.96C554.53 388.96 528.24 382.51 503.91 354.32C503.91 354.32 499.2 356.03 498.17 364.92C498.17 364.96 471.33 343.76 491.17 308.88Z" fill="#4CA84E"/>
<g style="mix-blend-mode:multiply">
<path d="M491.17 308.88C491.17 308.88 484.63 296.25 497.17 277.6C497.17 277.6 532.33 356.43 648.65 372.52C625.65 375.96 593.83 376.78 551.08 370.52C550.895 376.843 552.072 383.131 554.53 388.96C554.53 388.96 528.24 382.51 503.91 354.32C503.91 354.32 499.2 356.03 498.17 364.92C498.17 364.96 471.33 343.76 491.17 308.88Z" fill="#4CA84E"/>
</g>
<path d="M400.2 193.28C400.2 193.28 380.61 202.23 357.2 169.48C357.2 169.48 364.81 170.75 370.56 170C370.56 170 345.24 144.5 351.12 115.17C351.12 115.17 359.84 121.52 362.3 121.44C362.3 121.44 357.18 37.96 448.04 15C392.48 90.3 400.2 193.28 400.2 193.28Z" fill="#66BE64"/>
<path d="M400.2 193.28C400.2 193.28 392.48 90.3 448.08 14.96C448.08 14.96 474.86 47.8 455.8 144.35C461.23 144.768 466.687 144.015 471.8 142.14C471.8 142.14 465.13 164.49 439.8 184.22C439.8 184.22 441.07 188.34 448.68 189.62C448.72 189.66 429.37 211.85 400.2 193.28Z" fill="#4CA84E"/>
<g style="mix-blend-mode:multiply">
<path d="M400.2 193.28C400.2 193.28 389.05 198.37 373.54 186.81C373.54 186.81 442.87 159.92 461.68 60.5098C463.68 80.5098 463.01 107.87 455.8 144.39C461.23 144.808 466.687 144.054 471.8 142.18C471.8 142.18 465.13 164.53 439.8 184.26C439.8 184.26 441.07 188.38 448.68 189.66C448.72 189.66 429.37 211.85 400.2 193.28Z" fill="#4CA84E"/>
</g>
<path d="M244.62 278.699C244.62 278.699 270.3 265.179 254.62 213.259C254.62 213.259 249.71 222.429 244.17 227.939C244.17 227.939 237.82 179.939 201.69 162.039C201.69 162.039 201.28 176.569 199.17 179.129C199.17 179.129 114.33 104.909 15 182.929C141.08 185.629 244.62 278.699 244.62 278.699Z" fill="#66BE64"/>
<path d="M244.62 278.7C244.62 278.7 141.08 185.63 15 182.96C15 182.96 28 238.58 146.67 297.77C142.621 303.891 137.304 309.071 131.08 312.96C131.08 312.96 160.42 324.26 202.31 313.52C202.31 313.52 205.66 318.27 200.75 327.43C200.79 327.47 240.4 325.1 244.62 278.7Z" fill="#4CA84E"/>
<g style="mix-blend-mode:multiply">
<path d="M244.62 278.7C244.62 278.7 259.24 270.96 259.68 244.96C259.68 244.96 173.89 296.78 52.3401 234.96C72.0101 253.5 101.77 275.38 146.67 297.77C142.621 303.891 137.304 309.071 131.08 312.96C131.08 312.96 160.42 324.26 202.31 313.52C202.31 313.52 205.66 318.27 200.75 327.43C200.79 327.47 240.4 325.1 244.62 278.7Z" fill="#4CA84E"/>
</g>
<path d="M321.82 626.3C365.46 462.71 509.54 516.12 509.55 516.12C439.99 540.43 377.15 576.69 321.82 626.3Z" fill="#66BE64"/>
<path d="M509.55 516.119C485.86 673.749 321.82 626.299 321.82 626.299C377.15 576.689 439.99 540.429 509.55 516.119Z" fill="#4CA84E"/>
<g style="mix-blend-mode:multiply">
<path d="M494.62 566.229C382.47 624.229 342.44 574.559 342.44 574.559C334.31 588.769 327.28 605.84 321.82 626.299C321.82 626.299 447.31 662.599 494.62 566.229Z" fill="#4CA84E"/>
</g>
<path d="M285.38 632.959C241.74 469.409 97.6702 522.819 97.6602 522.819C167.21 547.139 230.08 583.389 285.38 632.959Z" fill="#66BE64"/>
<path d="M97.6602 522.819C121.34 680.449 285.38 632.959 285.38 632.959C230.08 583.389 167.21 547.139 97.6602 522.819Z" fill="#4CA84E"/>
<g style="mix-blend-mode:multiply">
<path d="M285.38 632.96C279.94 612.57 272.94 595.56 264.86 581.39C169.1 629.95 117.16 581.39 117.16 581.39C167.48 667.1 285.38 632.96 285.38 632.96Z" fill="#4CA84E"/>
</g>
<path d="M649.233 159.905C652.811 153.707 648.439 144.482 639.466 139.302C630.493 134.121 620.318 134.947 616.739 141.145C613.16 147.344 617.533 156.569 626.506 161.749C635.479 166.93 645.654 166.104 649.233 159.905Z" fill="#F6FAFE"/>
<path d="M669.124 321.332C674.503 316.61 673.323 306.47 666.487 298.684C659.652 290.898 649.75 288.414 644.371 293.136C638.992 297.858 640.173 307.998 647.008 315.785C653.844 323.571 663.745 326.055 669.124 321.332Z" fill="#F6FAFE"/>
<path d="M626.13 188.989C630.604 188.989 634.23 185.363 634.23 180.889C634.23 176.416 630.604 172.789 626.13 172.789C621.656 172.789 618.03 176.416 618.03 180.889C618.03 185.363 621.656 188.989 626.13 188.989Z" fill="#F6FAFE"/>
</g>
<defs>
<clipPath id="clip0_4809_1742">
<rect width="715.6" height="776.89" fill="white"/>
</clipPath>
</defs>
</svg>
