<svg width="173" height="200" viewBox="0 0 173 200" fill="none" xmlns="http://www.w3.org/2000/svg">
<g clip-path="url(#clip0_3774_1120)">
<path d="M137.925 13.5174C137.377 18.7679 133.896 23.3456 130.528 27.6417C125.424 34.1987 120.311 40.7569 115.188 47.3163C111.51 52.0366 107.738 56.9214 106.356 62.5704L71.5756 61.6673C67.8405 48.139 56.6673 37.3821 50.14 24.7386C47.6982 20.0439 46.0865 14.0256 49.737 10.0293C52.5011 7.00552 57.3725 6.34007 61.6717 6.81905C63.9931 7.12994 66.2955 7.54854 68.5698 8.07317C70.4976 8.49708 72.4592 8.78315 74.4363 8.92874C79.1063 9.192 83.7036 8.0951 88.0431 6.43514C89.3204 5.94885 90.5775 5.40772 91.8105 4.84099C94.4819 3.60516 97.1291 2.21576 100.074 1.75141C103.02 1.28706 106.408 1.98176 108.133 4.20845C109.064 5.41503 109.398 6.9324 110.148 8.23039C110.316 8.51865 110.51 8.79381 110.728 9.05306C113.145 11.8648 118.045 11.3273 121.651 9.86842C122.199 9.64538 122.816 9.38943 123.509 9.11887C127.477 7.53934 133.376 5.54299 136.35 8.20113C137.845 9.53934 138.127 11.6454 137.925 13.5174Z" fill="#4FB79E"/>
<path d="M10.455 138.285C6.42571 146.216 2.59793 154.431 1.69538 163.148C0.792824 171.865 3.20231 181.203 10.052 187.338C18.0179 194.457 30.0694 195.894 41.2143 196.687C67.5414 198.563 94.0297 198.976 120.385 197.334C141.833 195.996 171.847 198.717 171.448 172.709C170.952 140.084 156.604 113.989 135.817 87.978C127.839 77.9963 117.323 63.4808 106.061 56.457C94.2473 49.0713 79.9273 49.616 70.0637 57.2468C43.793 77.5612 24.8354 110.146 10.455 138.285Z" fill="#4FB79E"/>
<path d="M135.818 87.978C127.84 77.9963 117.324 63.4808 106.062 56.457C94.2486 49.0713 79.9286 49.616 70.065 57.2468C69.4163 57.7477 68.7716 58.2669 68.1309 58.7824C78.5788 63.0603 92.3065 63.6672 103.48 65.0676C108.871 65.744 112.578 69.6709 115.455 73.5027C127.075 88.9762 137.442 106.523 143.176 124.603C148.382 141.009 148.112 158.947 134.432 171.963C131.944 174.311 129.205 176.43 126.257 178.289C108.492 189.623 84.0183 189.532 63.32 187.744C51.391 186.665 39.5374 184.984 27.8142 182.709C21.6978 181.547 15.5532 180.45 9.46098 179.181C7.41339 178.779 5.40239 178.236 3.44531 177.558C4.78114 181.239 7.04357 184.588 10.0533 187.338C18.0191 194.457 30.0706 195.894 41.2155 196.687C67.5427 198.563 94.031 198.976 120.386 197.334C141.834 195.996 171.848 198.717 171.449 172.709C170.953 140.084 156.605 113.989 135.818 87.978Z" fill="#3B927E"/>
<path d="M70.088 57.2432L67.2675 59.6125C66.3449 60.4095 65.3778 61.1627 64.5075 62.0147L61.8442 64.5009C61.405 64.9178 60.9497 65.32 60.5226 65.7514L59.2574 67.0494L56.7149 69.638C56.2798 70.0585 55.8889 70.5156 55.482 70.9616L54.2732 72.2998C53.4674 73.1956 52.6615 74.0768 51.8557 74.9836L49.5388 77.7404C43.4327 85.1256 37.8361 92.8466 32.7812 100.859C27.6882 108.852 22.9981 117.06 18.574 125.378L16.922 128.501L15.3103 131.638C14.2103 133.722 13.1668 135.832 12.0869 137.931C9.92553 142.079 7.9984 146.325 6.31301 150.651C4.64511 154.912 3.58882 159.351 3.1702 163.857C2.78838 168.297 3.38279 172.761 4.91889 176.991C5.68986 179.068 6.76017 181.044 8.102 182.867C9.44569 184.659 11.0751 186.261 12.9371 187.62C16.6521 190.377 21.2736 192.055 26.0563 193.104C30.8391 194.154 35.8595 194.665 40.9122 195.024C45.9649 195.382 51.0619 195.682 56.1388 195.934C61.2156 196.187 66.3005 196.358 71.3854 196.486C76.4704 196.614 81.5553 196.666 86.6402 196.666C96.81 196.666 106.98 196.424 117.126 195.865L120.941 195.649C122.231 195.576 123.512 195.517 124.793 195.463L132.449 195.181C137.518 194.976 142.566 194.713 147.478 193.989C149.914 193.643 152.319 193.131 154.67 192.457C156.968 191.807 159.161 190.885 161.193 189.715C163.171 188.566 164.887 187.083 166.246 185.346C167.58 183.572 168.536 181.588 169.067 179.495C169.624 177.355 169.895 175.161 169.872 172.962C169.872 171.836 169.8 170.68 169.764 169.539L169.703 167.825C169.675 167.254 169.675 166.68 169.611 166.11L169.308 162.687L169.155 160.976C169.087 160.41 168.998 159.843 168.918 159.272L168.43 155.868C168.386 155.583 168.357 155.298 168.301 155.016L168.136 154.172L167.801 152.483L167.467 150.793C167.346 150.23 167.262 149.66 167.104 149.104L166.258 145.755L165.835 144.08L165.323 142.428L164.304 139.115C163.949 138.018 163.526 136.921 163.14 135.825L162.547 134.19L162.249 133.375L161.915 132.57C161.008 130.428 160.186 128.252 159.159 126.154C155.211 117.665 150.502 109.484 145.08 101.693L143.066 98.7679C142.397 97.7843 141.672 96.8373 140.979 95.8684L138.867 92.9799L136.696 90.1317L127.952 78.8117C125.007 75.0384 122.005 71.3017 118.757 67.7441C117.146 65.9452 115.449 64.2267 113.705 62.5448C111.938 60.8767 110.069 59.2996 108.108 57.8209C110.129 59.2387 112.062 60.7572 113.898 62.3693C115.715 64 117.492 65.66 119.172 67.4187C122.557 70.8995 125.688 74.5741 128.762 78.2743C130.293 80.1317 131.811 81.9951 133.315 83.8647L137.844 89.4662L140.104 92.2779L142.3 95.1298C143.026 96.0878 143.783 97.0238 144.476 98L146.595 100.925C152.25 108.708 157.187 116.902 161.355 125.422C162.439 127.536 163.333 129.729 164.284 131.898L164.638 132.713L164.953 133.539L165.581 135.196C165.984 136.293 166.44 137.389 166.818 138.516L167.91 141.879L168.454 143.565L168.914 145.265L169.832 148.676C170.001 149.24 170.094 149.821 170.235 150.391L170.602 152.117L170.972 153.839L171.154 154.702C171.214 154.987 171.25 155.28 171.299 155.569L171.851 159.042C171.939 159.623 172.04 160.201 172.121 160.782L172.302 162.53L172.665 166.026C172.737 166.607 172.753 167.196 172.782 167.777L172.862 169.532C172.911 170.706 172.991 171.861 173.007 173.053C173.047 175.486 172.764 177.914 172.165 180.285C171.554 182.723 170.447 185.035 168.901 187.104C167.317 189.154 165.311 190.907 162.995 192.267C160.728 193.599 158.279 194.656 155.71 195.411C153.2 196.151 150.633 196.719 148.03 197.112C145.451 197.517 142.868 197.784 140.294 197.974C137.719 198.165 135.148 198.296 132.586 198.402L124.93 198.706C123.661 198.761 122.396 198.819 121.139 198.896L117.315 199.119C107.091 199.711 96.857 200.005 86.612 200C81.4922 200 76.3737 199.928 71.2565 199.784C66.1394 199.641 61.0262 199.442 55.9171 199.188C50.8134 198.923 45.7097 198.605 40.606 198.234C35.4929 197.868 30.3072 197.342 25.2021 196.165C22.6322 195.584 20.1241 194.797 17.7077 193.814C15.2478 192.812 12.9445 191.52 10.858 189.971C8.75663 188.406 6.92461 186.565 5.42255 184.508C3.94446 182.463 2.76989 180.25 1.92918 177.927C0.292852 173.329 -0.308662 168.48 0.160344 163.667C0.666529 158.938 1.8434 154.288 3.66177 149.832C5.44569 145.449 7.47229 141.151 9.73384 136.954C11.9298 132.764 14.1418 128.581 16.4708 124.45C21.0923 116.172 25.9677 107.996 31.2742 100.059C36.5651 92.1051 42.41 84.4661 48.7733 77.1883L51.1908 74.4827C51.9967 73.5942 52.867 72.7313 53.7051 71.8538L54.9622 70.5412C55.3853 70.1061 55.7963 69.66 56.2435 69.2468L58.8827 66.7203L60.2043 65.4625C60.6475 65.0421 61.1229 64.6545 61.5782 64.2487L64.3463 61.8428C65.2449 61.0201 66.2441 60.2962 67.1991 59.5284L70.088 57.2432Z" fill="#231F20"/>
<path d="M123.508 9.12615C123.149 10.0695 122.001 12.351 121.461 13.3163C120.655 14.7349 119.35 16.5777 118.508 17.9708C116.896 20.6472 115.586 22.6033 113.785 25.1847C111.678 28.2157 109.232 31.0347 107.105 34.0475C105.356 36.5229 104.083 38.7642 101.343 40.585C100.622 41.064 99.3284 41.415 98.8892 40.4168C98.5709 39.6673 100.267 37.554 100.626 36.8446C101.904 34.3039 102.949 31.6723 103.752 28.9762C105.143 24.3035 106.633 19.7148 108.072 15.053C108.418 13.9269 110.703 9.181 110.147 8.23767C110.315 8.52594 110.509 8.8011 110.727 9.06034C113.145 11.872 118.044 11.3346 121.65 9.8757C122.198 9.65267 122.815 9.39672 123.508 9.12615Z" fill="#3B927E"/>
<path d="M85.4004 21.7586C85.4004 23.7623 86.0813 28.9104 82.9828 29.4369C81.4235 29.7075 80.1624 28.3729 79.2679 27.17C75.1379 21.4771 71.4753 15.3235 68.8643 8.91769C68.7499 8.64018 68.6531 8.35696 68.5742 8.06943C70.5021 8.49334 72.4636 8.7794 74.4408 8.925C79.1107 9.18825 83.7081 8.09136 88.0476 6.4314C86.3056 11.3874 85.4128 16.5567 85.4004 21.7586V21.7586Z" fill="#3B927E"/>
<path d="M108.11 57.8209C109.345 55.1013 110.862 52.4948 112.643 50.0366C114.387 47.5576 116.18 45.1262 117.973 42.6911L123.356 35.3785L128.78 28.0988C129.686 26.8812 130.593 25.6783 131.451 24.4644C132.309 23.2505 133.139 22.0329 133.869 20.7825C134.594 19.5553 135.201 18.2732 135.682 16.9507C136.131 15.665 136.401 14.3336 136.488 12.9873C136.548 11.7039 136.294 10.4278 135.662 9.62711C135.514 9.4224 135.328 9.24191 135.114 9.09328C135.015 9.01302 134.91 8.93969 134.799 8.87391C134.679 8.81906 134.562 8.7569 134.449 8.69474C133.895 8.48113 133.305 8.35737 132.704 8.32911C131.277 8.34172 129.862 8.56525 128.514 8.9909C127.042 9.41831 125.6 9.92876 124.198 10.5192C123.998 10.6002 123.781 10.6437 123.562 10.6472H123.518L124.178 10.5229L122.192 11.3383C121.456 11.6348 120.7 11.8877 119.927 12.0951C119.141 12.2998 118.34 12.4538 117.53 12.5558C116.687 12.6494 115.835 12.6678 114.988 12.6107C114.087 12.5462 113.202 12.3626 112.361 12.0659C111.464 11.7382 110.643 11.2593 109.943 10.6545C109.603 10.3412 109.293 10.0024 109.016 9.64172C108.772 9.30185 108.552 8.94764 108.359 8.5814C107.989 7.87939 107.735 7.22125 107.481 6.64356C107.275 6.1298 107.004 5.63911 106.675 5.18104C106.385 4.79589 106.017 4.46354 105.591 4.20115C104.634 3.63876 103.528 3.31818 102.388 3.27244C101.788 3.23706 101.186 3.26035 100.591 3.34191C99.9665 3.43117 99.3507 3.56566 98.7497 3.74411C97.46 4.14088 96.207 4.62992 95.0025 5.20663L93.0685 6.10242C92.4117 6.41686 91.7106 6.68378 91.0337 6.97628L88.9869 7.83186C88.3019 8.11339 87.5968 8.35837 86.8836 8.59968C84.0069 9.60228 80.9914 10.2396 77.9225 10.4936C76.3608 10.6113 74.7901 10.5917 73.2325 10.4351C71.7239 10.2668 70.2267 10.0227 68.7479 9.70389C67.2853 9.40041 65.8912 9.07134 64.5011 8.79712C63.1571 8.51292 61.7934 8.31137 60.4195 8.19383C57.7481 7.99639 55.0041 8.32545 52.8485 9.43697C52.3199 9.71339 51.8267 10.042 51.3778 10.4169C50.9426 10.7987 50.5585 11.2258 50.2335 11.6893C49.5715 12.6547 49.1583 13.7433 49.0247 14.8739C48.7225 17.2103 49.3108 19.7295 50.2335 22.1061C50.3463 22.4059 50.4753 22.7021 50.6042 23.0019C50.7331 23.3017 50.8621 23.5942 51.0071 23.8867C51.2731 24.4717 51.5994 25.064 51.8936 25.6564C52.1877 26.2487 52.5141 26.8337 52.8404 27.415C53.1668 27.9964 53.4851 28.5851 53.8357 29.1591C55.1814 31.4735 56.6561 33.7404 58.1429 36.0147C59.6297 38.2889 61.1367 40.5558 62.6073 42.8483C65.5326 47.437 68.2483 52.1938 70.0453 57.2432C67.8011 52.3584 64.7791 47.8428 61.5718 43.4553C58.3645 39.0677 54.9759 34.735 52.0023 30.117C51.6196 29.5467 51.261 28.9617 50.9024 28.3766C50.5438 27.7916 50.1771 27.2066 49.8467 26.607C49.1281 25.4075 48.4876 24.1708 47.9288 22.9032C47.3608 21.6098 46.9186 20.2738 46.6072 18.9105C46.2802 17.5002 46.1757 16.0549 46.2969 14.618C46.4243 13.1035 46.9241 11.6343 47.7595 10.3181C48.1938 9.65441 48.7146 9.0406 49.3108 8.48999C49.921 7.9484 50.5969 7.47126 51.3254 7.06769C52.0358 6.67683 52.7894 6.35454 53.5738 6.10608C53.9767 5.96714 54.3514 5.87938 54.7422 5.7697C55.1331 5.66001 55.5279 5.59054 55.9228 5.53204C57.4856 5.27736 59.0768 5.19632 60.6612 5.29072C63.804 5.46988 66.7051 6.1792 69.5014 6.70571C70.8652 6.97419 72.2438 7.17679 73.6314 7.31266C74.9709 7.4308 76.3196 7.43814 77.6606 7.33459C80.405 7.08584 83.0989 6.49656 85.6667 5.58323C86.3154 5.35654 86.9722 5.12619 87.6129 4.85197L89.5308 4.03295C90.1674 3.75141 90.8161 3.50644 91.4447 3.19931L93.3989 2.27793C94.774 1.61634 96.2081 1.06105 97.686 0.61796C98.4758 0.390882 99.2842 0.220942 100.104 0.109734C100.953 -0.0011165 101.814 -0.0280872 102.67 0.0292948C104.457 0.119716 106.184 0.647881 107.666 1.55763C108.445 2.05176 109.117 2.67142 109.649 3.38579C110.112 4.03849 110.493 4.73634 110.785 5.46623C111.329 6.77518 111.744 7.81358 112.425 8.39127C112.788 8.69984 113.208 8.94744 113.666 9.12253C114.184 9.3004 114.726 9.41355 115.278 9.45891C116.527 9.5275 117.781 9.40388 118.985 9.09328C119.613 8.93465 120.229 8.74048 120.83 8.51193L122.845 7.72582C123.05 7.64655 123.271 7.6067 123.493 7.60882V7.60882L122.82 7.73679C124.37 7.12339 125.959 6.59711 127.579 6.16092C129.297 5.67123 131.094 5.44629 132.894 5.49547C133.909 5.55186 134.903 5.77874 135.827 6.16458C136.061 6.28524 136.294 6.40956 136.524 6.53021C136.748 6.66742 136.961 6.81892 137.161 6.98359C137.575 7.29795 137.933 7.66785 138.224 8.08048C138.777 8.85595 139.145 9.72776 139.304 10.6399C139.459 11.4718 139.501 12.3179 139.429 13.1591C139.276 14.7362 138.902 16.2892 138.317 17.7807C137.734 19.2221 137.015 20.6154 136.169 21.9452C135.364 23.2651 134.437 24.5046 133.502 25.7368C132.567 26.969 131.588 28.1317 130.633 29.3053L124.887 36.3657L119.081 43.3968C117.159 45.7478 115.173 48.0659 113.267 50.4169C111.32 52.748 109.595 55.2249 108.11 57.8209V57.8209Z" fill="#231F20"/>
<path d="M17.4704 88.8117L16.6968 87.9854C16.533 87.8103 16.4094 87.6073 16.333 87.3884C16.2566 87.1694 16.2291 86.9388 16.2519 86.7101C16.2748 86.4814 16.3477 86.2591 16.4663 86.0562C16.5848 85.8533 16.7468 85.6739 16.9426 85.5284C23.8447 80.4973 31.6171 76.5521 39.1478 72.7313C45.5382 69.4845 52.1502 66.1317 58.0611 62.1755C60.8816 60.2889 63.8793 57.9671 64.7698 55.0201L69.6049 56.2231C68.3115 60.5083 64.5482 63.4845 61.0387 65.8318C54.874 69.9562 48.1451 73.3821 41.6016 76.6947C34.2724 80.4169 26.7175 84.2523 20.1458 89.0348C19.757 89.3239 19.2584 89.4626 18.7577 89.4208C18.2571 89.3791 17.7947 89.1603 17.4704 88.8117V88.8117Z" fill="#FCF089"/>
<path d="M69.598 56.2194C69.2626 57.401 68.7415 58.5327 68.0507 59.5796C67.3531 60.6264 66.5316 61.6011 65.6009 62.4863C63.7097 64.2223 61.646 65.7963 59.4362 67.1883C55.0806 70.0403 50.4751 72.5558 45.8455 74.9946C41.2159 77.4333 36.5218 79.7733 31.9688 82.3072C29.6963 83.5722 27.4439 84.8666 25.2601 86.2487C24.1668 86.9385 23.0923 87.649 22.0367 88.3803C21.5008 88.7459 21.0052 89.1115 20.4572 89.4991C20.1074 89.7424 19.6935 89.8984 19.2567 89.9517C18.8198 90.0049 18.3753 89.9535 17.9671 89.8026C17.7625 89.7278 17.5701 89.6282 17.395 89.5064C17.3084 89.4442 17.2263 89.377 17.1492 89.3053C17.0783 89.2427 17.011 89.1768 16.9477 89.1079L16.299 88.4132C16.2506 88.362 16.1781 88.2779 16.1096 88.1975C16.0411 88.117 15.9928 88.0293 15.9364 87.9452C15.8345 87.7681 15.7573 87.5802 15.7067 87.3858C15.6098 86.9937 15.6264 86.5856 15.755 86.2011C15.8874 85.8152 16.1324 85.469 16.4642 85.1993C16.5528 85.1262 16.6173 85.0786 16.6818 85.0348L16.8832 84.8922L17.2862 84.6106C17.814 84.245 18.3539 83.8794 18.8979 83.5137C21.0535 82.0512 23.2857 80.6838 25.5542 79.3748C30.0911 76.7605 34.7973 74.4168 39.4793 72.0622C44.1613 69.7075 48.8594 67.3967 53.356 64.7825C54.4762 64.1292 55.5856 63.4577 56.6842 62.7679C57.7802 62.0768 58.8721 61.3858 59.9076 60.6253C60.9487 59.8809 61.9068 59.0457 62.7684 58.1317C63.6306 57.2192 64.2816 56.1585 64.6823 55.0128V55.0128C64.6906 54.9893 64.7088 54.9696 64.7328 54.958C64.7569 54.9464 64.785 54.9438 64.8112 54.9507L69.61 56.245L64.7749 55.1481L64.9039 55.0786C64.5342 56.2679 63.9038 57.3772 63.0504 58.3401C62.2084 59.3 61.2637 60.1818 60.2299 60.9726C58.1627 62.5302 56.001 63.9816 53.7549 65.32C49.2905 68.0256 44.6408 70.4607 39.995 72.8739C35.3493 75.287 30.6875 77.6563 26.2029 80.2706C23.9626 81.5759 21.7707 82.9324 19.6352 84.3876C19.1034 84.7532 18.5715 85.1189 18.0557 85.4845L17.6528 85.766L17.4554 85.905C17.3967 85.9436 17.3414 85.9864 17.2902 86.0329C17.12 86.1696 16.9957 86.347 16.9316 86.5448C16.8652 86.7443 16.8569 86.9559 16.9074 87.1591C16.935 87.2605 16.9756 87.3587 17.0283 87.4516C17.0565 87.4955 17.0847 87.543 17.1169 87.5832C17.1492 87.6234 17.1814 87.6636 17.2418 87.7258L17.8906 88.4242C17.951 88.49 17.9873 88.5229 18.0235 88.5594C18.0598 88.596 18.1081 88.6289 18.1525 88.6655C18.2434 88.7271 18.3422 88.7787 18.4466 88.819C18.662 88.8985 18.8965 88.9254 19.1269 88.8972C19.3573 88.8689 19.5756 88.7866 19.7601 88.6582C20.2678 88.2925 20.8077 87.905 21.3436 87.5613C22.4194 86.83 23.5114 86.0988 24.6194 85.4114C26.8315 84.0183 29.108 82.7203 31.4127 81.4699C36.0222 78.9726 40.7404 76.6728 45.4224 74.3291C50.1044 71.9854 54.726 69.5503 59.1219 66.8117C61.362 65.5018 63.4623 64.0047 65.3954 62.3401C67.3346 60.6482 68.779 58.5447 69.598 56.2194Z" fill="#231F20"/>
<path d="M37.2384 105.035L36.7186 104.303C36.4581 103.94 36.3483 103.505 36.4088 103.075C36.4693 102.645 36.6962 102.248 37.049 101.956C40.5464 98.9872 41.2797 93.894 41.4329 91.6746C41.5698 89.6307 41.4973 87.5905 41.4329 85.426C41.3321 82.5485 41.2233 79.5759 41.6585 76.5814C43.4394 64.2706 55.0114 53.777 68.5779 52.1719L69.2266 56.6764C57.8359 58.0256 48.1174 66.8373 46.6225 77.1737C46.2438 79.7953 46.3364 82.4607 46.4372 85.2797C46.5178 87.4516 46.5943 89.7002 46.4372 91.9561C46.1995 95.4735 45.0551 101.565 40.2805 105.444C40.0606 105.62 39.8013 105.749 39.5205 105.825C39.2398 105.9 38.9444 105.918 38.6548 105.88C38.3653 105.841 38.0886 105.745 37.8439 105.599C37.5993 105.453 37.3927 105.26 37.2384 105.035V105.035Z" fill="#FCF089"/>
<path d="M68.5627 52.1755L69.3081 56.6691C69.3116 56.6919 69.3051 56.7149 69.29 56.7334C69.2749 56.7519 69.2525 56.7642 69.2275 56.7678V56.7678C57.3251 58.3766 47.5139 68.0695 46.9296 78.8373C46.571 84.1938 47.6388 89.6965 46.563 95.2139C46.0799 97.9832 44.9834 100.635 43.3395 103.009C43.1341 103.309 42.9004 103.59 42.6626 103.872C42.5458 104.011 42.433 104.157 42.3081 104.289L41.9253 104.691C41.7964 104.823 41.6674 104.958 41.5224 105.086L41.1194 105.452L40.7165 105.817C40.5364 105.962 40.3359 106.085 40.1202 106.183C39.6781 106.376 39.1853 106.453 38.6976 106.405C38.2099 106.357 37.7467 106.186 37.3601 105.912C37.1694 105.775 37 105.615 36.8565 105.437L36.7558 105.302L36.6792 105.196L36.5301 104.98L36.2239 104.541C35.901 104.07 35.7706 103.51 35.8552 102.96C35.9399 102.411 36.2343 101.905 36.6873 101.532C37.2013 101.089 37.6631 100.599 38.0653 100.069C38.8746 98.9817 39.4994 97.7899 39.9187 96.5338C40.3517 95.2635 40.6485 93.9583 40.8052 92.6362C40.9501 91.2998 41.012 89.957 40.9905 88.6143C40.9905 85.9086 40.7769 83.1773 40.8495 80.4278C40.8725 79.0471 40.9964 77.6693 41.2202 76.3035L41.6432 74.2596C41.8326 73.5905 42.0462 72.9251 42.2517 72.2596C44.1317 66.9809 47.598 62.283 52.2603 58.6947C56.906 55.181 62.6075 52.7788 68.5909 52.1609C62.6562 53.0483 57.1229 55.4517 52.6391 59.0896C49.2498 61.7308 46.533 65.0083 44.6762 68.6956C42.8195 72.3829 41.8671 76.3921 41.885 80.4461C41.8326 83.1444 42.0381 85.8611 42.0784 88.6033C42.1095 89.9859 42.0544 91.369 41.9132 92.7459C41.7593 94.1357 41.4557 95.5085 41.0066 96.8446C40.5626 98.2035 39.8956 99.494 39.0283 100.673C38.5682 101.271 38.0401 101.824 37.4528 102.322C37.2564 102.487 37.1147 102.699 37.0435 102.933C36.9724 103.168 36.9746 103.416 37.0499 103.649C37.0852 103.764 37.1395 103.874 37.2111 103.974L37.5092 104.399L37.6623 104.614L37.7389 104.724L37.7993 104.797C37.9934 105.042 38.2755 105.217 38.597 105.293C38.9184 105.369 39.2591 105.341 39.5601 105.214C39.6811 105.163 39.7925 105.095 39.8905 105.013L40.2934 104.673L40.6964 104.333L41.055 103.967L41.4136 103.601C41.5304 103.477 41.6352 103.342 41.748 103.21C41.9656 102.951 42.1872 102.691 42.3806 102.409C43.9536 100.163 45.0103 97.6504 45.4871 95.0238C46.023 92.3949 46.0392 89.6892 45.9707 86.9799C45.9022 84.2706 45.7208 81.5283 45.9707 78.7642C46.0227 78.0726 46.1168 77.3842 46.2527 76.702L46.4622 75.6783L46.567 75.1664L46.7201 74.6654C47.1044 73.3242 47.6181 72.0163 48.2552 70.7569C49.5387 68.2455 51.2689 65.9429 53.3764 63.9415C57.568 59.901 63.1716 57.3016 69.2356 56.585L69.1509 56.6837L68.5627 52.1755Z" fill="#231F20"/>
<path d="M91.6731 56.0585C83.4897 56.0585 75.27 55.2907 66.9617 54.3656C66.6578 54.3274 66.3828 54.182 66.1965 53.9608C66.0101 53.7397 65.9275 53.4608 65.9665 53.1846L66.3976 49.8574C66.4146 49.7212 66.4611 49.5894 66.5343 49.4695C66.6075 49.3497 66.7061 49.2441 66.8244 49.1588C66.9427 49.0736 67.0783 49.0103 67.2236 48.9727C67.3688 48.9351 67.5208 48.9239 67.6708 48.9397C83.0586 50.6581 98.1038 51.8135 112.798 48.3291C113.089 48.26 113.397 48.2982 113.656 48.4353C113.915 48.5724 114.104 48.7972 114.181 49.0603L115.123 52.2962C115.205 52.5662 115.167 52.8547 115.016 53.0991C114.865 53.3434 114.614 53.524 114.318 53.6015C106.779 55.404 99.2401 56.0585 91.6731 56.0585Z" fill="#FCF089"/>
<path d="M115.127 52.3035C115.216 52.5647 115.197 52.8465 115.073 53.0958C114.949 53.345 114.729 53.5444 114.454 53.6563C113.89 53.8209 113.35 53.9598 112.798 54.1097C111.691 54.3925 110.577 54.6509 109.454 54.8849C107.21 55.3419 104.937 55.7112 102.652 55.9818C100.368 56.2523 98.0672 56.4169 95.7665 56.5192C93.4658 56.6216 91.157 56.6216 88.8563 56.5887C86.5556 56.5558 84.2549 56.4278 81.9623 56.2669C79.6696 56.1061 77.381 55.9013 75.1125 55.6454C72.8441 55.3894 70.5595 55.1042 68.291 54.7935L67.4409 54.6691L67.0379 54.6106C66.8697 54.5917 66.7063 54.5472 66.5544 54.479C66.2462 54.3401 66.0083 54.0994 65.8896 53.8062C65.8284 53.6642 65.7983 53.5127 65.8009 53.3602C65.8095 53.2227 65.8284 53.0859 65.8574 52.9507C66.04 51.9245 66.2294 50.897 66.4255 49.8684C66.357 50.9068 66.2764 51.9488 66.1878 52.9836C66.1405 53.2122 66.1671 53.4484 66.2643 53.6637C66.3603 53.8586 66.5347 54.013 66.7518 54.0951C66.8627 54.1339 66.9797 54.1561 67.0984 54.1609L67.5255 54.1938L68.3837 54.2596L75.2334 54.7935C77.518 54.9507 79.7946 55.1225 82.0832 55.2322C84.3718 55.3419 86.6443 55.4552 88.9329 55.4918C93.4912 55.6023 98.0528 55.4802 102.596 55.1262C104.869 54.9434 107.133 54.6886 109.389 54.362C110.522 54.2084 111.642 53.9964 112.766 53.8209C113.326 53.7185 113.898 53.6161 114.438 53.5064C114.693 53.4141 114.902 53.2419 115.029 53.0211C115.155 52.8003 115.19 52.5457 115.127 52.3035V52.3035Z" fill="#231F20"/>
<path d="M66.3984 49.8574C66.4205 49.597 66.5442 49.3524 66.7474 49.1674C66.9505 48.9824 67.2196 48.8692 67.5065 48.8483C68.0827 48.8483 68.6105 48.9141 69.1625 48.947L72.4504 49.1773C74.6382 49.3382 76.8261 49.4735 79.01 49.6161L82.2898 49.7916C83.3858 49.8355 84.4777 49.9013 85.5696 49.9269C86.6615 49.9525 87.7535 50.0073 88.8494 50.0146L90.4853 50.0402H92.1252C96.4909 50.051 100.853 49.8067 105.184 49.309C106.268 49.1773 107.352 49.0457 108.407 48.8665L110.019 48.6216L111.631 48.3181L112.437 48.1718C112.578 48.1499 112.686 48.1243 112.864 48.0987C113.031 48.0809 113.2 48.0908 113.363 48.128C113.601 48.183 113.817 48.2953 113.989 48.4531C114.162 48.6108 114.284 48.8081 114.343 49.0238L114.431 49.3894C114.665 50.3644 114.892 51.3394 115.112 52.3144C114.77 51.3675 114.431 50.4168 114.109 49.4625L113.984 49.0969C113.947 48.9983 113.891 48.9066 113.819 48.8263C113.681 48.6664 113.483 48.5583 113.263 48.5228C113.026 48.5041 112.788 48.538 112.57 48.6216L111.764 48.8227L110.152 49.2175L108.54 49.5539C107.469 49.7952 106.377 49.9561 105.289 50.1353C104.201 50.3144 103.105 50.4351 102.013 50.5777C100.921 50.7203 99.813 50.7934 98.713 50.8848C96.509 51.0274 94.2809 51.1188 92.093 51.1261C87.683 51.1236 83.2765 50.9027 78.8931 50.4643C76.7039 50.2523 74.5214 50 72.3456 49.7075C71.2617 49.5576 70.1738 49.415 69.09 49.2468C68.5501 49.17 67.994 49.0713 67.4783 49.0128C67.2175 49.0158 66.9663 49.1021 66.7688 49.2566C66.5713 49.4111 66.4401 49.6238 66.3984 49.8574Z" fill="#231F20"/>
<path d="M101.195 59.6783C89.1749 59.4957 77.1828 58.5685 65.3022 56.9032C65.027 56.8619 64.7812 56.7232 64.6187 56.5175C64.4563 56.3118 64.3905 56.056 64.4359 55.8063L64.8993 53.2066C64.9194 53.0841 64.9661 52.9664 65.0367 52.8604C65.1073 52.7544 65.2004 52.6622 65.3106 52.589C65.4208 52.5159 65.5459 52.4634 65.6786 52.4345C65.8114 52.4055 65.9491 52.4008 66.0839 52.4205C81.9226 54.6376 97.9541 55.514 113.972 55.0384C114.248 55.0306 114.516 55.1223 114.718 55.2937C114.919 55.465 115.038 55.702 115.047 55.9525L115.164 58.5814C115.171 58.7069 115.151 58.8323 115.104 58.9506C115.057 59.0689 114.985 59.1775 114.892 59.2704C114.799 59.3632 114.686 59.4383 114.561 59.4914C114.435 59.5444 114.299 59.5744 114.161 59.5796C109.979 59.7149 105.607 59.7478 101.195 59.6783Z" fill="#FCF089"/>
<path d="M115.165 58.5776C115.178 58.7095 115.161 58.8424 115.115 58.9682C115.069 59.0939 114.996 59.2099 114.899 59.3089C114.798 59.4133 114.674 59.4977 114.536 59.5568C114.397 59.616 114.246 59.6486 114.093 59.6526L112.369 59.7733C111.22 59.8464 110.072 59.9012 108.92 59.9524C106.615 60.0438 104.31 60.1023 102.005 60.1096C97.3919 60.1316 92.7784 59.989 88.177 59.7257C85.8763 59.5758 83.5756 59.4149 81.283 59.2065C78.9903 58.9981 76.6937 58.7641 74.4333 58.4753C72.1729 58.1864 69.8721 57.861 67.5835 57.4954L65.8872 57.2029L65.4601 57.1298L65.2425 57.0895C65.1577 57.0741 65.0752 57.0495 64.9967 57.0164C64.8412 56.9539 64.7019 56.8624 64.5881 56.7477C64.4742 56.633 64.3883 56.4978 64.3359 56.351C64.2853 56.2083 64.2661 56.058 64.2795 55.9085C64.2795 55.7513 64.3359 55.6416 64.3641 55.51L64.5374 54.7422L64.9 53.2065L64.7187 54.7678L64.618 55.5466C64.618 55.6709 64.5777 55.8171 64.5777 55.9122C64.5772 56.0228 64.6019 56.1324 64.6502 56.234C64.6972 56.3333 64.7661 56.4229 64.8527 56.4971C64.9394 56.5713 65.0419 56.6286 65.1539 56.6654C65.2073 56.6832 65.2627 56.6954 65.3191 56.702L65.5286 56.7276L65.9557 56.7714L67.6722 56.9506C69.9568 57.1919 72.2413 57.404 74.5219 57.6124C76.8025 57.8208 79.0951 58.0109 81.3716 58.1718C83.6482 58.3327 85.9488 58.5009 88.2415 58.6325C90.5341 58.7641 92.8228 58.8884 95.1154 58.9981C97.408 59.1078 99.7047 59.1773 102.001 59.265C104.298 59.3528 106.595 59.3894 108.895 59.4259L112.344 59.4771L114.073 59.4954C114.208 59.5052 114.344 59.4895 114.473 59.4492C114.601 59.4089 114.719 59.345 114.818 59.2614C114.926 59.1757 115.012 59.0706 115.071 58.9528C115.131 58.835 115.163 58.7072 115.165 58.5776V58.5776Z" fill="#231F20"/>
<path d="M64.8945 53.203C64.9095 53.0733 64.9529 52.9477 65.0221 52.8334C65.0913 52.7191 65.1849 52.6186 65.2975 52.5375C65.4167 52.4549 65.5532 52.3952 65.6986 52.3619C65.8441 52.3286 65.9955 52.3224 66.1436 52.3437L67.8319 52.5046L71.2003 52.8227C73.4446 53.0348 75.6929 53.214 77.9372 53.4004C80.1815 53.5869 82.4298 53.7441 84.6822 53.8757C86.9345 54.0074 89.1788 54.1609 91.4312 54.2597C93.6835 54.3584 95.9319 54.4717 98.1842 54.5485C100.437 54.6253 102.689 54.6765 104.945 54.7423C107.202 54.8081 109.454 54.8191 111.71 54.8264H113.403H113.826C113.987 54.8203 114.149 54.8351 114.305 54.8703C114.466 54.9127 114.615 54.985 114.744 55.0826C114.872 55.1802 114.976 55.3008 115.051 55.437C115.123 55.5693 115.166 55.7135 115.176 55.8611C115.176 56.0037 115.176 56.1207 115.176 56.2523V57.0238L115.151 58.5631L114.994 57.0311L114.918 56.2633C114.918 56.139 114.918 56.0001 114.881 55.8977C114.862 55.79 114.82 55.6869 114.757 55.5942C114.697 55.5021 114.618 55.422 114.523 55.3591C114.428 55.2962 114.319 55.2518 114.205 55.2286C113.943 55.2118 113.679 55.2179 113.419 55.2469L111.727 55.3492C110.598 55.4151 109.466 55.448 108.334 55.4991C107.202 55.5503 106.073 55.5577 104.941 55.5832C102.677 55.6198 100.412 55.6052 98.152 55.5832C97.0198 55.5613 95.8875 55.5321 94.7553 55.4882C93.6231 55.4443 92.4949 55.4077 91.3627 55.3492C89.1009 55.2322 86.8432 55.0848 84.5895 54.9068C82.3372 54.713 80.0848 54.5083 77.8405 54.245C76.7164 54.1061 75.5922 53.9818 74.4761 53.8282C73.36 53.6746 72.2358 53.5247 71.1197 53.3492C70.0036 53.1737 68.8916 53.0055 67.7835 52.8008L66.1154 52.501C65.9868 52.4704 65.8527 52.4637 65.7211 52.4813C65.5896 52.4988 65.4633 52.5404 65.3498 52.6033C65.2333 52.6703 65.133 52.7579 65.0547 52.861C64.9765 52.964 64.922 53.0804 64.8945 53.203V53.203Z" fill="#231F20"/>
<path d="M109.093 134.823C109.093 139.844 107.497 143.866 104.306 146.889C101.18 149.88 97.1454 151.963 92.714 152.874V159.049C92.714 160.271 92.6777 161.207 92.6052 161.85C92.5025 162.586 92.2698 163.302 91.9162 163.971C91.7319 164.346 91.4675 164.684 91.1383 164.966C90.8091 165.248 90.4216 165.467 89.9982 165.612C87.6766 166.256 85.1961 166.256 82.8745 165.612C82.4507 165.466 82.0659 165.239 81.7451 164.948C81.4243 164.657 81.1748 164.308 81.013 163.923C80.6951 163.245 80.4796 162.53 80.3724 161.799C80.3052 161.19 80.2703 160.241 80.2676 158.954V152.969C77.4761 152.435 74.8115 151.454 72.3985 150.073C70.0561 148.72 68.4243 147.53 67.5029 146.501L66.1209 144.863C64.6301 143.123 63.886 141.771 63.8887 140.808C63.8887 139.199 65.0975 137.333 67.515 135.21C68.9333 133.992 70.3879 133.382 71.8787 133.382C73.579 133.382 75.6702 134.508 78.1522 136.761L78.6841 137.243C80.8814 139.681 83.3634 140.899 86.1302 140.899C91.3762 140.899 93.9993 138.937 93.9993 135.013C93.9993 133.599 93.0068 132.502 91.0217 131.722C88.6792 130.851 86.2597 130.161 83.7892 129.66C80.8854 129.026 78.0371 128.198 75.2673 127.185C72.3333 126.091 69.8134 124.246 68.0146 121.876C66.0296 119.363 65.037 116.145 65.037 112.223C65.0204 108.46 66.4446 104.809 69.0663 101.894C71.7525 98.8081 75.4755 96.8142 80.2354 95.9123V90.5192C80.2354 89.2322 80.2703 88.284 80.3401 87.6746C80.4437 86.9582 80.6594 86.2589 80.9808 85.5978C81.1545 85.2174 81.4147 84.8744 81.7445 84.5915C82.0744 84.3086 82.4663 84.0921 82.8947 83.9562C84.0617 83.599 85.2901 83.4355 86.521 83.4735C88.4363 83.4735 89.872 83.8392 90.8283 84.5704C91.6755 85.1516 92.2612 85.9923 92.4762 86.9361C92.6419 88.1488 92.7133 89.3706 92.6898 90.5924V95.9964C94.5622 96.349 96.3824 96.9 98.1132 97.6381C99.3057 98.1186 100.446 98.7001 101.518 99.3748L102.473 100.146L102.9 100.435C104.673 101.917 105.559 103.108 105.559 104.007C105.559 105.038 104.85 106.518 103.432 108.446C101.519 111.02 99.5691 112.307 97.5813 112.307C96.3054 112.307 94.8521 111.793 93.2216 110.764C93.0766 110.636 92.7583 110.377 92.2627 109.993C91.8241 109.646 91.3625 109.323 90.8806 109.027C90.253 108.694 89.5739 108.448 88.866 108.296C87.7885 108.053 86.6804 107.938 85.5701 107.956C84.1831 107.968 82.8386 108.392 81.7423 109.163C81.1774 109.508 80.7162 109.976 80.4004 110.524C80.0845 111.071 79.9239 111.682 79.9332 112.3C79.9115 113.024 80.1018 113.741 80.4847 114.377C80.8676 115.013 81.4295 115.545 82.113 115.92C83.7448 116.857 85.584 117.458 87.5001 117.678C89.8726 118.026 92.2173 118.514 94.5191 119.141C96.9227 119.767 99.2705 120.558 101.542 121.506C103.669 122.408 105.46 124.001 106.913 126.285C108.366 128.569 109.093 131.415 109.093 134.823Z" fill="#FCF089"/>
</g>
<defs>
<clipPath id="clip0_3774_1120">
<rect width="173" height="200" fill="white"/>
</clipPath>
</defs>
</svg>
