<svg width="22" height="31" viewBox="0 0 22 31" fill="none" xmlns="http://www.w3.org/2000/svg">
<path d="M10.955 8.66355C10.955 8.66355 7.11123 9.0914 5.09873 7.2164C3.08623 5.33999 3.54498 1.75637 3.54498 1.75637C3.54498 1.75637 7.38873 1.32852 9.40248 3.20352C11.415 5.07993 10.955 8.66355 10.955 8.66355V8.66355Z" stroke="#A3A3A3" stroke-width="1.5" stroke-linecap="round" stroke-linejoin="round"/>
<path d="M11.045 8.66355C11.045 8.66355 14.8887 9.0914 16.9012 7.2164C18.9137 5.33999 18.455 1.75637 18.455 1.75637C18.455 1.75637 14.6112 1.32852 12.5987 3.20352C10.5862 5.07993 11.045 8.66355 11.045 8.66355V8.66355Z" stroke="#A3A3A3" stroke-width="1.5" stroke-linecap="round" stroke-linejoin="round"/>
<path d="M1 14.2983C1 13.9274 1.1317 13.5718 1.36612 13.3096C1.60054 13.0474 1.91848 12.9001 2.25 12.9001H19.75C20.0815 12.9001 20.3995 13.0474 20.6339 13.3096C20.8683 13.5718 21 13.9274 21 14.2983V17.0947C21 17.4655 20.8683 17.8212 20.6339 18.0834C20.3995 18.3456 20.0815 18.4929 19.75 18.4929H2.25C1.91848 18.4929 1.60054 18.3456 1.36612 18.0834C1.1317 17.8212 1 17.4655 1 17.0947V14.2983Z" stroke="#A3A3A3" stroke-width="1.5" stroke-linecap="round" stroke-linejoin="round"/>
<path d="M2.25 18.493H19.75L17.25 29.6787H4.75L2.25 18.493Z" stroke="#A3A3A3" stroke-width="1.5" stroke-linecap="round" stroke-linejoin="round"/>
</svg>
