<svg width="435" height="556" viewBox="0 0 435 556" fill="none" xmlns="http://www.w3.org/2000/svg">
<g clip-path="url(#clip0_6248_270)">
<path d="M197.7 555.931C194.63 555.931 191.6 555.931 188.7 555.821L186.379 555.751C183.169 555.641 179.98 555.491 176.92 555.291C175.313 555.191 173.693 555.071 172.06 554.931C169.58 554.731 167.059 554.481 164.639 554.201C152.498 552.879 140.51 550.401 128.839 546.801C127.099 546.251 125.36 545.671 123.67 545.071C102.54 537.581 84.6695 525.961 70.6695 510.521L69.4895 509.211L68.6595 508.211L67.9694 507.391L67.3195 506.591C66.9095 506.081 66.4595 505.501 66.0095 504.901L65.9495 504.811C65.7195 504.501 65.4795 504.171 65.2495 503.811C65.213 503.77 65.1796 503.727 65.1495 503.681C64.9595 503.401 64.7595 503.121 64.5695 502.831L64.4794 502.701C64.2594 502.371 64.0395 502.051 63.8295 501.701C63.8029 501.67 63.7794 501.636 63.7595 501.601C62.8195 500.131 61.8895 498.601 61.0095 496.901V496.821C60.7995 496.431 60.5895 496.021 60.3795 495.611C60.3795 495.561 60.3795 495.511 60.3095 495.471L59.7294 494.311V494.201C53.1894 480.681 44.8495 455.321 28.2395 362.201C18.6795 308.661 13.3895 272.311 12.0795 251.101C10.9295 232.471 12.7595 225.311 15.4895 219.161C17.3895 203.241 30.0195 188.351 52.4895 175.391C51.8595 174.671 51.2295 173.941 50.6195 173.211C50.3595 172.901 50.1094 172.591 49.8594 172.271L49.2895 171.581C48.4595 170.581 47.6394 169.581 46.8394 168.581C46.6194 168.311 46.4095 168.031 46.1995 167.751L45.9395 167.421C45.0295 166.251 44.1095 165.071 43.2095 163.881L42.6995 163.171L42.5195 162.931C41.5728 161.651 40.6394 160.367 39.7194 159.081L39.2194 158.351C38.2194 156.991 37.3095 155.611 36.3795 154.221L36.0495 153.711C35.0495 152.231 34.1195 150.771 33.1895 149.291L32.9595 148.911C31.9595 147.261 30.9595 145.761 30.1395 144.291L30.0195 144.091C6.76707 104.785 -3.38862 59.1059 1.01948 13.6509C1.36225 10.0049 3.02696 6.61027 5.69978 4.10692C8.3726 1.60357 11.8689 0.164329 15.5295 0.0607789C17.5795 0.0107789 19.6594 -0.0192993 21.7194 -0.0192993C50.8599 -0.0619942 79.7081 5.78879 106.529 17.1809C134.346 28.9655 159.368 46.4753 179.969 68.5708C195.138 84.7196 207.729 103.109 217.3 123.091C226.86 103.105 239.448 84.7156 254.619 68.5708C275.22 46.4753 300.243 28.9655 328.06 17.1809C354.881 5.78879 383.729 -0.0619942 412.869 -0.0192993C414.929 -0.0192993 417.01 -0.0192211 419.06 0.0607789C422.72 0.164329 426.216 1.60357 428.889 4.10692C431.562 6.61027 433.227 10.0049 433.57 13.6509C437.774 57.1501 428.669 100.901 407.46 139.111C407.44 139.156 407.417 139.2 407.389 139.241V139.241C406.529 140.801 405.599 142.411 404.649 144.031L404.479 144.321C403.609 145.791 402.69 147.321 401.68 148.921L401.479 149.251C400.479 150.761 399.569 152.251 398.609 153.681C398.469 153.901 398.359 154.061 398.249 154.221C397.329 155.611 396.369 156.991 395.409 158.371C395.409 158.371 395.059 158.891 394.919 159.081C393.979 160.411 393.009 161.731 392.039 163.081L391.909 163.261L391.44 163.901C390.53 165.121 389.599 166.311 388.659 167.511L388.43 167.811L387.799 168.631C386.879 169.778 385.943 170.924 384.989 172.071L384.82 172.281C405.93 184.101 417.71 197.741 419.95 212.971C431.5 237.351 425.78 264.701 415.69 312.901C414.15 320.281 412.549 327.901 410.849 336.271C410.036 340.271 409.206 344.427 408.359 348.741L407.359 354.041L406.499 358.511L405.68 362.881L404.859 367.271C404.589 368.741 404.319 370.211 404.049 371.711C399.509 396.831 396.049 415.901 392.229 432.531C391.519 435.691 390.799 438.741 390.089 441.601C389.379 444.461 388.589 447.481 387.849 450.161C387.469 451.551 387.08 452.921 386.69 454.261C385.9 456.981 385.079 459.621 384.249 462.131C382.509 467.421 380.709 472.131 378.759 476.671C374.121 487.764 367.632 497.99 359.57 506.911C350.833 516.405 340.752 524.568 329.649 531.141C328.139 532.021 326.649 532.891 325.099 533.721C289.389 553.081 250.209 554.431 221.599 555.421L216.519 555.601L213.83 555.681L211.06 555.761C209.3 555.814 207.5 555.854 205.66 555.881H202.57C201.06 555.881 199.569 555.881 197.989 555.881L197.7 555.931Z" fill="black"/>
<path d="M30.1506 223.02C85.6806 169.34 179.891 159.58 216.151 159.78C263.691 160.04 308.551 163.78 405.321 217.23C419.941 244.66 405.321 280.29 389.321 369.01C376.811 438.2 370.091 473.32 348.561 496.74C311.221 537.32 257.271 539.16 221.051 540.41C183.891 541.72 121.351 543.83 81.8406 500.41C71.8406 489.56 63.8406 476.2 43.0106 359.59C20.8906 236.22 26.3506 231.3 30.1506 223.02Z" fill="#CBD4F7"/>
<path d="M372.83 200.189L332.11 278.089C332.11 278.089 341.87 442.689 270.98 503.429C237.78 531.879 213.05 539.289 199.51 540.919C207.26 540.919 214.51 540.639 220.96 540.409C257.18 539.159 311.13 537.319 348.47 496.739C370 473.319 376.72 438.199 389.23 369.009C405.28 280.289 419.89 244.659 405.23 217.229C393.75 210.829 382.97 205.219 372.83 200.189Z" fill="#B5C1E3"/>
<path d="M30.1504 223.021C30.9104 184.351 141.49 149.161 233.53 151.861C306.58 153.961 403.47 180.991 405.28 217.231C407.09 253.471 313.61 295.761 230.78 300.041C135.75 304.831 29.4004 261.171 30.1504 223.021Z" fill="#DDE1ED"/>
<path d="M69.7998 220.08C70.3598 192.59 154.74 167.53 224.94 169.44C280.69 170.95 354.56 190.16 355.94 215.94C357.32 241.72 286.05 271.78 222.83 274.87C150.38 278.35 69.2398 247.24 69.7998 220.08Z" fill="black"/>
<path opacity="0.5" d="M396.15 333.27C396.15 333.37 333.83 517.72 73.1504 487.76C75.3246 492.413 78.2315 496.688 81.7604 500.42C121.27 543.83 183.81 541.72 220.97 540.42C257.19 539.17 311.14 537.33 348.48 496.75C370.01 473.33 376.73 438.21 389.24 369.02C391.58 356 393.91 344.14 396.15 333.27Z" fill="#A2B4DD"/>
<path d="M384.574 314.495C387.625 298.255 385.998 284.319 380.939 283.369C375.88 282.418 369.306 294.813 366.255 311.053C363.204 327.294 364.831 341.229 369.89 342.18C374.949 343.13 381.523 330.735 384.574 314.495Z" fill="white"/>
<path d="M355.839 358.19C359.783 358.19 362.979 354.993 362.979 351.05C362.979 347.107 359.783 343.91 355.839 343.91C351.896 343.91 348.699 347.107 348.699 351.05C348.699 354.993 351.896 358.19 355.839 358.19Z" fill="white"/>
<path d="M69.4704 172.01C88.9896 192.903 112.738 209.397 139.132 220.391C165.526 231.386 193.961 236.628 222.541 235.77L15.9205 15.0801C13.1861 43.5407 16.5477 72.2573 25.7814 99.3169C35.015 126.376 49.9087 151.158 69.4704 172.01V172.01Z" fill="#B5C1E3"/>
<path d="M15.9199 15.0805L222.54 235.77C225.271 207.308 221.907 178.59 212.672 151.529C203.437 124.468 188.542 99.685 168.98 78.8305C149.46 57.9417 125.713 41.4518 99.3206 30.4594C72.9284 19.467 44.497 14.2243 15.9199 15.0805V15.0805Z" fill="#DDE1ED"/>
<path opacity="0.5" d="M222.54 235.77C224.627 213.666 223.07 191.369 217.93 169.77C136 197.31 25.3302 97.7697 25.2402 97.6797C34.421 125.361 49.5132 150.713 69.4702 171.979C88.9867 192.878 112.734 209.378 139.128 220.377C165.523 231.377 193.958 236.624 222.54 235.77V235.77Z" fill="#A2B4DD"/>
<path d="M139.301 87.3119C146.27 77.8693 141.168 62.2783 127.904 52.4884C114.639 42.6986 98.2369 42.417 91.2675 51.8596C84.2982 61.3023 89.4012 76.8933 102.665 86.6832C115.929 96.4731 132.332 96.7545 139.301 87.3119Z" fill="#F6FAFE"/>
<path d="M135.741 119.21C141.137 119.21 145.511 114.836 145.511 109.44C145.511 104.044 141.137 99.6699 135.741 99.6699C130.345 99.6699 125.971 104.044 125.971 109.44C125.971 114.836 130.345 119.21 135.741 119.21Z" fill="#F6FAFE"/>
<path d="M365.031 172.01C345.513 192.903 321.767 209.396 295.374 220.39C268.982 231.384 240.549 236.628 211.971 235.77L418.591 15.0801C421.326 43.5415 417.964 72.2589 408.728 99.3188C399.493 126.379 384.596 151.16 365.031 172.01V172.01Z" fill="#B5C1E3"/>
<path d="M418.59 15.0804L211.97 235.77C209.235 207.308 212.596 178.59 221.829 151.529C231.063 124.467 245.957 99.6843 265.52 78.8304C285.042 57.9418 308.791 41.4524 335.185 30.46C361.579 19.4677 390.011 14.2247 418.59 15.0804V15.0804Z" fill="#DDE1ED"/>
<path opacity="0.5" d="M211.969 235.77C209.877 213.666 211.435 191.368 216.579 169.77C298.509 197.31 409.179 97.7697 409.269 97.6797C400.088 125.363 384.992 150.716 365.029 171.979C345.514 192.878 321.769 209.376 295.376 220.376C268.984 231.376 240.55 236.623 211.969 235.77V235.77Z" fill="#A2B4DD"/>
<path d="M287.78 377.83C287.78 377.83 273.48 357.27 247.57 360.83" stroke="#231F20" stroke-width="15" stroke-miterlimit="10" stroke-linecap="round"/>
<path d="M142.41 377.83C142.41 377.83 156.71 357.27 182.62 360.83" stroke="#231F20" stroke-width="15" stroke-miterlimit="10" stroke-linecap="round"/>
<path d="M236.35 426.029C236.35 426.029 229.64 432.739 215.09 432.739C200.54 432.739 193.84 426.029 193.84 426.029" stroke="#231F20" stroke-width="15" stroke-miterlimit="10" stroke-linecap="round"/>
</g>
<defs>
<clipPath id="clip0_6248_270">
<rect width="434.51" height="555.93" fill="white"/>
</clipPath>
</defs>
</svg>
