<svg width="433" height="724" viewBox="0 0 433 724" fill="none" xmlns="http://www.w3.org/2000/svg">
<g clip-path="url(#clip0_4838_2116)">
<path d="M203.82 723.57C316.387 723.57 407.64 701.452 407.64 674.169C407.64 646.887 316.387 624.77 203.82 624.77C91.2533 624.77 0 646.887 0 674.169C0 701.452 91.2533 723.57 203.82 723.57Z" fill="#A7A9AC"/>
<path d="M427.08 68.2998C424.787 66.4343 421.993 65.2882 419.05 65.0053C416.108 64.7224 413.147 65.3154 410.54 66.7098C384.971 80.2567 360.148 95.1682 336.18 111.38C352.18 55.7398 343.29 14.3798 342.9 12.5898C342.258 9.70165 340.776 7.0679 338.641 5.01987C336.506 2.97183 333.812 1.60098 330.9 1.07977C330.02 0.915634 329.126 0.835285 328.23 0.839781C325.73 0.839746 323.27 1.46453 321.073 2.65735C318.876 3.85017 317.012 5.5732 315.65 7.66978C292.22 43.7698 273.65 77.3698 259.96 108.16C244.51 45.6098 211.43 7.15977 209.61 5.15977C207.785 3.07642 205.419 1.53893 202.774 0.717665C200.129 -0.103603 197.309 -0.176586 194.625 0.506804C191.941 1.19019 189.499 2.60328 187.569 4.58948C185.639 6.57567 184.296 9.05744 183.69 11.7598C177.56 39.0598 177.21 69.0098 182.69 100.76C189.82 142.2 205.33 178.94 218.3 204.26C203.51 236.94 191.89 277.63 183.53 325.85C171.304 292.62 153.692 261.629 131.4 234.12C105.12 201.74 81.48 185.46 80.49 184.78C78.1806 183.205 75.4772 182.307 72.6846 182.187C69.892 182.066 67.1214 182.729 64.6852 184.099C62.249 185.47 60.2442 187.494 58.8969 189.943C57.5496 192.392 56.9134 195.168 57.06 197.96C58.78 230.12 67.37 263.41 82.61 296.91C110.61 358.36 153.37 404.38 170.55 421.38L171.89 422.69C171.02 434.15 170.28 445.95 169.68 457.86C169.39 463.55 169.15 469.19 168.93 474.79C156.228 447.637 139.907 422.33 120.41 399.56C91.76 366.12 66.06 349.34 64.98 348.64C62.5524 347.077 59.7272 346.244 56.84 346.24C54.7966 346.237 52.774 346.651 50.8964 347.457C49.0188 348.264 47.3258 349.445 45.9212 350.929C44.5166 352.414 43.4301 354.169 42.7283 356.088C42.0265 358.007 41.7242 360.05 41.84 362.09C43.72 395.43 53.12 429.93 69.78 464.65C100.31 528.26 147.06 575.87 165.78 593.39L165.87 593.47C166.87 594.41 167.77 595.24 168.57 595.98C169.75 634.86 171.73 659.93 171.76 660.41C172.062 664.177 173.775 667.69 176.556 670.249C179.337 672.807 182.981 674.222 186.76 674.21H221.64C223.714 674.216 225.767 673.793 227.669 672.966C229.571 672.138 231.281 670.926 232.691 669.404C234.1 667.883 235.179 666.086 235.859 664.126C236.539 662.167 236.805 660.087 236.64 658.02C236.64 657.82 235.15 638.5 234.03 607.88C235.16 607.01 236.27 606.13 237.36 605.26L239.08 603.88C240.213 602.973 241.323 602.063 242.41 601.15L243.91 599.91C245.46 598.61 246.99 597.3 248.46 596.02L248.83 595.69C250.217 594.47 251.59 593.246 252.95 592.02L254.42 590.67C255.42 589.78 256.34 588.89 257.29 588L258.89 586.48C259.81 585.6 260.72 584.71 261.63 583.82L263.05 582.42C264.34 581.14 265.61 579.86 266.84 578.59L267.72 577.67C268.72 576.6 269.72 575.54 270.72 574.47C271.11 574.06 272.21 572.85 272.21 572.85C272.96 572.04 273.7 571.23 274.42 570.42L275.99 568.66C276.69 567.87 277.37 567.08 278.06 566.29L278.44 565.84C278.81 565.42 279.18 564.99 279.54 564.56C280.41 563.56 281.26 562.56 282.1 561.5C282.75 560.72 283.38 559.94 284.01 559.15L284.08 559.07L285.93 556.76C286.41 556.16 286.87 555.55 287.34 554.94L287.51 554.73L289.02 552.73L290.63 550.59C291.09 549.98 291.54 549.36 291.99 548.75L292.21 548.45L293.6 546.53L294.6 545.04C295.68 543.5 296.75 541.96 297.79 540.41L298.69 539.07C299.26 538.23 299.8 537.39 300.35 536.55L301.23 535.18C301.78 534.32 302.33 533.45 302.86 532.6L303.56 531.47C305.56 528.3 307.42 525.08 309.2 521.89L309.32 521.68L311.01 518.6L311.35 517.96C311.91 516.96 312.45 515.96 312.99 514.86L313.13 514.59C315.41 510.2 317.57 505.7 319.57 501.22V501.14C343.37 447.74 340.18 405.03 340.03 403.24C339.789 400.293 338.682 397.483 336.848 395.164C335.015 392.844 332.537 391.118 329.726 390.203C326.915 389.287 323.896 389.222 321.048 390.017C318.2 390.812 315.651 392.431 313.72 394.67C274.58 440.06 249.3 477.54 232.98 507.31C233.287 491.396 233.827 475.866 234.6 460.72C234.89 454.87 235.23 449.02 235.6 443.25L235.87 443.05C237.03 442.15 238.18 441.25 239.32 440.33L241.03 438.96L244.35 436.24L245.85 434.99C247.397 433.69 248.923 432.386 250.43 431.08L250.78 430.77C252.167 429.55 253.537 428.33 254.89 427.11L256.37 425.75C257.37 424.86 258.29 423.97 259.23 423.08L260.83 421.57C261.76 420.68 262.67 419.79 263.58 418.9L265 417.51C266.28 416.23 267.54 414.96 268.78 413.68L269.68 412.74C270.7 411.68 271.7 410.616 272.68 409.55L274.17 407.93L276.38 405.5L277.95 403.74C278.65 402.95 279.34 402.15 280.02 401.36L280.41 400.91L281.5 399.65C282.37 398.65 283.22 397.65 284.06 396.58C284.7 395.8 285.33 395.03 286.06 394.17C286.79 393.31 287.31 392.62 287.92 391.84C288.4 391.24 288.92 390.63 289.34 390.03L289.5 389.82L291.03 387.82C291.56 387.11 292.1 386.41 292.63 385.69C293.16 384.97 293.54 384.46 293.98 383.85L294.15 383.62C294.64 382.96 295.15 382.3 295.58 381.62L296.67 380.08C297.74 378.55 298.8 377.08 299.82 375.51L300.74 374.15L302.4 371.62L303.27 370.26C303.83 369.39 304.38 368.53 304.92 367.65L305.61 366.54C307.61 363.35 309.48 360.13 311.26 356.94L311.37 356.75C311.94 355.75 312.5 354.7 313.05 353.68L313.4 353.02C313.96 352.02 314.5 350.97 315.01 350.02L315.18 349.69C317.46 345.3 319.62 340.81 321.61 336.34C345.44 282.9 342.25 240.16 342.1 238.34C341.851 235.399 340.74 232.597 338.906 230.284C337.072 227.972 334.597 226.252 331.79 225.34C328.98 224.425 325.963 224.36 323.116 225.153C320.27 225.946 317.721 227.563 315.79 229.8C288.15 261.85 267.43 289.95 251.89 314.18C258.71 281.45 267.29 253.62 277.58 230.91C279.307 230.243 281.023 229.596 282.73 228.97L284.6 228.23C285.83 227.75 287.04 227.23 288.24 226.77L290.24 225.93C291.42 225.44 292.59 224.93 293.76 224.43L295.59 223.64C297.24 222.92 298.87 222.18 300.47 221.44L301.69 220.87C303.02 220.25 304.33 219.63 305.63 219L307.23 218.2L307.65 217.96L310.58 216.49L312.67 215.41C313.61 214.93 314.54 214.41 315.45 213.94L315.92 213.69L317.45 212.87C318.63 212.23 319.79 211.58 320.94 210.93C321.83 210.43 322.71 209.93 323.67 209.37L326.22 207.89L328.42 206.56C329.13 206.13 329.85 205.7 330.55 205.26L332.81 203.85L334.74 202.61L335.03 202.43L337.03 201.13L338.57 200.13C340.13 199.08 341.68 198.03 343.19 196.97L344.51 196.05L346.98 194.28L348.28 193.33L350.75 191.5L351.75 190.7C354.75 188.44 357.66 186.11 360.47 183.79L360.65 183.63C361.56 182.88 362.44 182.13 363.33 181.37L363.89 180.9L366.48 178.64L366.75 178.4C370.46 175.11 374.1 171.7 377.57 168.24C419 126.96 431.39 85.9398 431.9 84.2398C432.761 81.4039 432.763 78.3764 431.905 75.5395C431.047 72.7025 429.368 70.1833 427.08 68.2998Z" fill="#231F20"/>
<path d="M56.8401 361.2C82.0101 399.14 183.08 588.8 183.08 588.8C172.42 435.88 56.8401 361.2 56.8401 361.2Z" fill="#66BE64"/>
<path d="M56.8401 361.2C63.9501 487.45 183.08 588.8 183.08 588.8C183.08 588.8 82.0101 399.14 56.8401 361.2Z" fill="#4CA84E"/>
<g style="mix-blend-mode:multiply">
<path d="M183.08 588.8C181.853 570.98 179.079 553.3 174.79 535.96C129.18 533.08 83.5301 458.49 83.3201 458.16C120.48 535.53 183.08 588.8 183.08 588.8Z" fill="#4CA84E"/>
</g>
<path d="M72.04 197.12C95.04 233.74 187.49 416.78 187.49 416.78C177.73 269.2 72.04 197.12 72.04 197.12Z" fill="#66BE64"/>
<path d="M72.04 197.12C78.54 318.96 187.49 416.78 187.49 416.78C187.49 416.78 95.06 233.74 72.04 197.12Z" fill="#4CA84E"/>
<g style="mix-blend-mode:multiply">
<path d="M187.49 416.78C186.367 399.6 183.828 382.543 179.9 365.78C138.2 362.96 96.44 290.96 96.26 290.66C130.24 365.36 187.49 416.78 187.49 416.78Z" fill="#4CA84E"/>
</g>
<path d="M218.23 600.96C218.23 600.96 313.35 444.39 325.1 404.46C208.58 539.56 218.23 600.96 218.23 600.96Z" fill="#66BE64"/>
<path d="M325.1 404.46C313.35 444.39 218.23 600.96 218.23 600.96C334.28 515.43 325.1 404.46 325.1 404.46Z" fill="#4CA84E"/>
<g style="mix-blend-mode:multiply">
<path d="M224.07 564.64C216.39 589.17 218.23 600.92 218.23 600.92C264.54 566.81 290.89 528.64 305.86 495.09C235.36 582.7 224.07 564.64 224.07 564.64Z" fill="#4CA84E"/>
</g>
<path d="M220.29 436.029C220.29 436.029 315.41 279.499 327.16 239.569C210.65 374.679 220.29 436.029 220.29 436.029Z" fill="#66BE64"/>
<path d="M327.16 239.569C315.41 279.499 220.29 436.029 220.29 436.029C336.33 350.549 327.16 239.569 327.16 239.569Z" fill="#4CA84E"/>
<g style="mix-blend-mode:multiply">
<path d="M226.12 399.75C218.44 424.28 220.29 436.03 220.29 436.03C266.65 401.96 292.95 363.76 307.92 330.2C237.41 417.82 226.12 399.75 226.12 399.75Z" fill="#4CA84E"/>
</g>
<path d="M186.7 659.17C182.175 592.398 181.508 525.42 184.7 458.57C192.02 313.06 218.45 212.36 263.24 159.29L289.99 181.87C250.81 228.24 226.49 324.4 219.65 459.96C214.37 564.35 221.52 658.27 221.59 659.18L186.7 659.17Z" fill="#66BE64"/>
<path d="M249 224.96C249 224.96 322 56.9601 328.25 15.8301C231.12 165.49 249 224.96 249 224.96Z" fill="#66BE64"/>
<path d="M328.25 15.8398C322.03 56.9598 249 224.96 249 224.96C352.39 124.54 328.25 15.8398 328.25 15.8398Z" fill="#4CA84E"/>
<g style="mix-blend-mode:multiply">
<path d="M249.86 188.229C245.58 213.579 249 224.97 249 224.97C290.26 184.9 311.19 143.509 321.47 108.229C263.5 204.599 249.86 188.229 249.86 188.229Z" fill="#4CA84E"/>
</g>
<path d="M198.35 14.96C209.79 50.87 247.29 224.79 247.29 224.79C273.45 100.65 198.35 14.96 198.35 14.96Z" fill="#66BE64"/>
<path d="M198.35 14.96C175.4 117.09 247.29 224.79 247.29 224.79C247.29 224.79 209.79 50.96 198.35 14.96Z" fill="#4CA84E"/>
<g style="mix-blend-mode:multiply">
<path d="M247.29 224.83C250.355 210.347 252.155 195.625 252.67 180.83C217.01 168.2 197.56 98.4702 197.47 98.1602C209.52 168.22 247.29 224.83 247.29 224.83Z" fill="#4CA84E"/>
</g>
<path d="M247.25 224.83C247.25 224.83 392.29 112.96 417.65 79.96C260.3 164.1 247.25 224.83 247.25 224.83Z" fill="#66BE64"/>
<path d="M417.65 79.96C392.29 112.96 247.25 224.83 247.25 224.83C386.27 186.79 417.65 79.96 417.65 79.96Z" fill="#4CA84E"/>
<g style="mix-blend-mode:multiply">
<path d="M265.74 193.07C249.74 213.2 247.25 224.83 247.25 224.83C302.72 209.65 341.04 183.51 367.07 157.58C269.78 213.96 265.74 193.07 265.74 193.07Z" fill="#4CA84E"/>
</g>
<path d="M316.398 298.57C319.314 293.519 319.487 288.16 316.785 286.6C314.082 285.04 309.528 287.869 306.612 292.92C303.696 297.971 303.522 303.33 306.225 304.89C308.927 306.451 313.482 303.621 316.398 298.57Z" fill="#F6FAFE"/>
<path d="M391.675 125.127C394.959 121.374 395.841 116.774 393.647 114.854C391.452 112.934 387.011 114.421 383.727 118.174C380.443 121.928 379.561 126.527 381.755 128.447C383.95 130.367 388.391 128.881 391.675 125.127Z" fill="#F6FAFE"/>
<path d="M307.57 313.89C309.487 313.89 311.04 312.337 311.04 310.42C311.04 308.504 309.487 306.95 307.57 306.95C305.654 306.95 304.1 308.504 304.1 310.42C304.1 312.337 305.654 313.89 307.57 313.89Z" fill="#F6FAFE"/>
<path d="M315.156 460.694C317.655 455.425 317.396 450.069 314.577 448.732C311.758 447.394 307.446 450.582 304.946 455.851C302.446 461.12 302.705 466.476 305.525 467.813C308.344 469.151 312.656 465.963 315.156 460.694Z" fill="#F6FAFE"/>
<path d="M307.32 476.759C309.237 476.759 310.79 475.206 310.79 473.289C310.79 471.373 309.237 469.819 307.32 469.819C305.404 469.819 303.85 471.373 303.85 473.289C303.85 475.206 305.404 476.759 307.32 476.759Z" fill="#F6FAFE"/>
<path d="M395.45 112.9C397.123 112.9 398.48 111.543 398.48 109.87C398.48 108.196 397.123 106.84 395.45 106.84C393.776 106.84 392.42 108.196 392.42 109.87C392.42 111.543 393.776 112.9 395.45 112.9Z" fill="#F6FAFE"/>
</g>
<defs>
<clipPath id="clip0_4838_2116">
<rect width="432.61" height="723.57" fill="white"/>
</clipPath>
</defs>
</svg>
