<svg width="660" height="675" viewBox="0 0 660 675" fill="none" xmlns="http://www.w3.org/2000/svg">
<g clip-path="url(#clip0_4931_299)">
<path d="M456.17 674.739C441.9 674.739 432.73 665.619 426.04 658.949C424.75 657.669 423.54 656.459 422.33 655.339C421.6 654.659 420.51 653.689 419.12 652.439C413.64 647.529 403.45 638.439 391.54 626.439L388.03 622.869L387.93 622.769C386.77 621.582 385.6 620.366 384.42 619.119L384.24 618.929C377.69 612.049 371.43 605.089 365.65 598.249L365.02 597.499C349.75 579.329 337.43 561.499 328.31 544.409C301.14 595.409 253.7 637.959 237.49 652.499C236.1 653.739 235.01 654.709 234.28 655.389C233.07 656.509 231.86 657.719 230.57 658.999C223.88 665.669 214.71 674.789 200.44 674.789C199.44 674.789 198.44 674.789 197.44 674.649C196.6 674.579 195.75 674.489 194.88 674.399L194.28 674.329C193.42 674.239 192.54 674.129 191.63 674.019H191.26L188.74 673.669L188.22 673.589L185.32 673.129L184.74 673.029C183.89 672.879 182.97 672.719 182.05 672.539L181.65 672.469C180.65 672.269 179.58 672.059 178.54 671.839L177.95 671.709C175.74 671.229 173.54 670.709 171.37 670.129L170.74 669.959C169.63 669.659 168.5 669.349 167.35 669.009L167.18 668.959C166.08 668.639 164.97 668.299 163.86 667.959L163.27 667.769C162.13 667.399 160.96 667.009 159.79 666.589L159.36 666.439C158.25 666.049 157.13 665.639 156.02 665.209L155.62 665.059C154.41 664.599 153.22 664.119 152.02 663.619L151.43 663.369C150.25 662.879 149.06 662.369 147.87 661.819L147.67 661.729C146.54 661.219 145.31 660.629 144.09 660.029L143.47 659.729C142.2 659.099 140.97 658.469 139.73 657.809C133.498 654.48 127.537 650.668 121.9 646.409C97.0701 627.609 83.9001 608.939 77.1701 596.589C73.7886 590.384 72.186 583.365 72.5389 576.307C72.8918 569.249 75.1865 562.426 79.1701 556.589L85.75 546.879L89.75 540.879L92.8601 536.179C94.3301 533.929 95.86 531.549 97.41 529.179L99.5 525.889L101.29 523.009L103.03 520.179L104.75 517.339L106.42 514.519L108 511.799L109.25 509.619L109.39 509.369C111.32 505.939 113.14 502.559 114.73 499.369L115.03 498.779C115.34 498.169 115.65 497.529 115.96 496.889L116.33 496.119C116.6 495.559 116.88 494.959 117.16 494.359L117.52 493.589C117.78 493.029 118.03 492.469 118.27 491.909L118.62 491.109C118.86 490.569 119.09 490.029 119.31 489.489L119.6 488.789C119.82 488.239 120.03 487.709 120.23 487.189L120.47 486.559C120.66 486.049 120.86 485.559 121.04 485.009L121.16 484.639C121.737 483 122.225 481.331 122.62 479.639C122.923 478.448 123.097 477.227 123.14 475.999C123.34 426.189 131.14 383.509 146.89 345.509C160.26 313.299 177.39 289.269 192.76 269.269L193.93 262.949V262.809C194.44 260.009 195.04 256.729 195.7 253.059C195.7 252.999 197.06 245.479 197.07 245.449C197.457 243.229 197.863 240.929 198.29 238.549L200.09 228.119C200.38 226.429 200.68 224.709 200.97 222.979C201.26 221.249 202.23 215.419 202.23 215.419L203.3 208.909C203.58 207.209 203.85 205.509 204.12 203.809L205.02 198.079L206.36 189.249L206.56 187.869C206.94 185.259 207.29 182.789 207.62 180.379L208.43 174.239L208.87 170.689L209 169.579C209.17 167.489 209.36 165.759 209.58 164.309C209.68 163.309 209.78 162.309 209.86 161.409C209.86 161.409 210 159.739 210 159.699C210 159.229 210.07 158.769 210.1 158.329C210.21 156.789 210.33 155.329 210.46 153.849C210.53 153.039 210.6 152.239 210.68 151.439C210.68 151.439 210.68 151.369 210.68 151.329C210.77 150.489 210.86 149.669 210.95 148.849C210.95 148.849 211.08 147.639 211.13 147.269C211.3 145.859 211.48 144.519 211.68 143.219C211.78 142.509 211.89 141.829 212 141.219C212 141.169 212.17 140.219 212.24 139.779C212.37 139.029 212.5 138.289 212.64 137.569L212.83 136.629C212.95 136.039 213.07 135.449 213.19 134.879C213.31 134.309 213.51 133.479 213.68 132.799L213.73 132.569C213.83 132.139 213.93 131.719 214.04 131.309C214.15 130.899 214.2 130.689 214.29 130.389L214.36 130.139C214.56 129.409 214.75 128.719 214.95 128.049C215.08 127.619 215.21 127.209 215.34 126.809C215.361 126.721 215.388 126.634 215.42 126.549C215.53 126.229 215.63 125.919 215.73 125.609C215.83 125.299 215.93 125.039 216.04 124.749C216.36 123.829 216.69 122.959 217.04 122.129C217.15 121.849 217.24 121.639 217.33 121.429C217.59 120.819 217.86 120.209 218.14 119.609V119.499L218.75 118.249L219.17 117.449C220.34 115.207 221.72 113.081 223.29 111.099V111.099C223.8 110.459 224.29 109.839 224.87 109.269L224.97 109.149C225.41 108.679 225.86 108.219 226.32 107.789L226.55 107.569C227.22 106.959 227.9 106.369 228.55 105.829C229.2 105.289 229.99 104.759 230.73 104.289L230.89 104.179C232.92 102.913 235.101 101.906 237.38 101.179L237.93 101.009C239.072 100.667 240.234 100.397 241.41 100.199C241.616 99.3181 241.873 98.4499 242.18 97.5989C242.18 97.5489 242.54 96.3389 242.54 96.3389L242.97 94.9689C243.08 94.6189 243.41 93.6689 243.41 93.6689L243.68 92.9189C243.9 92.3189 244.09 91.8189 244.29 91.3289C244.29 91.3289 244.54 90.7089 244.64 90.4789C244.82 90.0589 244.98 89.6989 245.14 89.3489L245.67 88.2089C246.392 86.7344 247.196 85.3021 248.08 83.9189C248.22 83.7189 248.34 83.5189 248.47 83.3289C248.79 82.8589 249.11 82.3989 249.47 81.9489C249.62 81.7389 249.78 81.5389 249.93 81.3389C250.3 80.8589 250.62 80.4689 250.93 80.0889L251.47 79.4589C251.78 79.1089 252.08 78.7789 252.39 78.4589L252.66 78.1789L253.12 77.7089C253.44 77.3989 253.79 77.0689 254.12 76.7089L254.3 76.5489C254.42 76.4389 254.58 76.2889 254.75 76.1489C255.885 75.178 257.089 74.2891 258.35 73.4889L259 73.0989C259.39 72.8689 259.82 72.6189 260.25 72.3889C260.46 72.2689 260.68 72.1589 260.91 72.0489L261.02 71.9989C261.4 71.8089 261.78 71.6189 262.16 71.4489L262.99 71.0889C263.34 70.9489 263.74 70.7889 264.14 70.6489L264.9 70.3789C265.31 70.2389 265.72 70.1089 266.13 69.9989C266.32 69.9389 266.57 69.8589 266.83 69.7989C267.28 69.6789 267.74 69.5689 268.2 69.4689L269.2 69.2689C269.63 69.1889 270.07 69.1189 270.51 69.0589L271.31 68.9589H271.42L272.3 68.8689L273.22 68.7989H274.07H275.67H276.58H277.36C277.65 68.7989 277.95 68.7989 278.24 68.8589L279 68.9389C280 69.0489 281 69.1989 282 69.3889L282.71 69.5289C290.48 55.3289 300.36 47.8989 311.82 47.8489H312.17C317.681 47.8071 323.145 48.8679 328.24 50.9689C333.331 48.8668 338.792 47.806 344.3 47.8489H344.51C355.97 47.8989 365.85 55.3289 373.62 69.5289L374.38 69.3789C375.38 69.1889 376.38 69.0389 377.38 68.9389L378.07 68.8689C378.44 68.8689 378.73 68.8089 379.07 68.7989H379.8C380.13 68.7989 380.46 68.7989 380.8 68.7989H381.44C381.79 68.7989 382.1 68.7989 382.44 68.7989H383.23L384.16 68.8689L384.95 68.9489H385.09L385.91 69.0489C386.39 69.1189 386.83 69.1889 387.27 69.2789L388.27 69.4689C388.73 69.5689 389.18 69.6689 389.63 69.7889L390.37 70.0089C390.76 70.1189 391.16 70.2389 391.56 70.3789L392.35 70.6589L393.54 71.1189L394.3 71.4489C394.68 71.6189 395.07 71.8089 395.47 72.0089L396.22 72.3889C396.65 72.6189 397.09 72.8789 397.52 73.1389L398.11 73.4889C399.372 74.2891 400.575 75.178 401.71 76.1489C401.92 76.3289 402.06 76.4489 402.19 76.5789C402.238 76.6101 402.281 76.647 402.32 76.6889C402.68 77.0189 403.04 77.3489 403.4 77.6889L403.92 78.2189L404.09 78.3989C404.4 78.7089 404.7 79.0389 404.99 79.3989C405.28 79.7589 405.39 79.8489 405.56 80.0689C405.91 80.4689 406.23 80.8789 406.56 81.2889C406.69 81.4589 406.87 81.6889 407.05 81.9389C407.37 82.3689 407.68 82.8189 407.98 83.2689L408.41 83.9089C409.288 85.2818 410.086 86.7041 410.8 88.1689C410.89 88.3589 411.01 88.5889 411.12 88.8289L411.37 89.3689L411.85 90.4589L412.19 91.2989C412.4 91.8089 412.59 92.2989 412.79 92.8289C412.89 93.1289 413.17 93.9189 413.17 93.9189C413.29 94.2389 413.4 94.5889 413.52 94.9189C413.64 95.2489 413.65 95.3389 413.72 95.5489C413.79 95.7589 413.86 96.0189 413.94 96.2789C414.02 96.5389 414.14 96.9389 414.23 97.2789C414.261 97.3675 414.288 97.4576 414.31 97.5489C414.62 98.4023 414.877 99.2739 415.08 100.159C416.256 100.357 417.418 100.627 418.56 100.969L419.13 101.139C421.402 101.868 423.576 102.875 425.6 104.139L425.73 104.229C426.43 104.679 427.13 105.159 427.8 105.679L428.1 105.919C428.767 106.426 429.397 106.966 429.99 107.539L430.22 107.749C430.68 108.179 431.13 108.639 431.57 109.109L431.68 109.229C432.22 109.819 432.75 110.429 433.25 111.049C434.836 113.039 436.229 115.175 437.41 117.429C437.41 117.429 437.7 117.979 437.8 118.189C438.01 118.599 438.2 118.989 438.38 119.389L438.49 119.619C438.79 120.259 439.05 120.839 439.31 121.449L439.55 122.049C439.9 122.909 440.24 123.789 440.55 124.709C440.66 125.019 440.77 125.319 440.87 125.639C440.97 125.959 441.1 126.299 441.22 126.639L441.63 127.969C441.84 128.649 442.04 129.359 442.23 130.079L442.29 130.269C442.38 130.589 442.47 130.909 442.55 131.269C442.63 131.629 442.76 132.109 442.86 132.519L442.92 132.779C443.08 133.459 443.24 134.139 443.4 134.849L443.76 136.589C443.76 136.649 443.95 137.519 443.95 137.519C444.09 138.259 444.22 138.999 444.35 139.739C444.42 140.139 444.57 141.049 444.58 141.099C444.69 141.799 444.81 142.509 444.91 143.229C445.11 144.529 445.29 145.869 445.46 147.229C445.46 147.629 445.64 148.839 445.64 148.839C445.73 149.649 445.82 150.469 445.91 151.309C446 152.149 446.07 152.979 446.15 153.839C446.27 155.289 446.39 156.769 446.5 158.319C446.5 158.789 446.63 159.989 446.63 159.989C446.63 160.329 446.75 161.459 446.75 161.459C446.83 162.369 446.92 163.309 447.02 164.289C447.24 165.739 447.43 167.479 447.6 169.569L448.27 175.009C448.27 175.009 448.74 178.609 448.75 178.629L448.99 180.399C449.31 182.769 449.66 185.249 449.99 187.779L451.35 196.779C451.35 196.779 452.43 203.719 452.44 203.779C452.71 205.469 453.44 210.159 453.44 210.159C453.44 210.159 454.69 217.759 454.69 217.779C454.99 219.549 455.58 223.029 455.58 223.079C455.87 224.759 456.47 228.279 456.48 228.339L458.17 238.439L459.78 247.529L460.78 252.979C461.44 256.619 462.03 259.909 462.55 262.699L463.74 269.169C485.93 298.079 510.17 333.599 523.33 387.499L523.44 387.949C523.72 389.109 524 390.259 524.26 391.419L524.44 392.209C524.69 393.279 524.92 394.339 525.16 395.399L525.37 396.399C525.59 397.392 525.8 398.392 526 399.399L526.24 400.619C526.44 401.619 526.63 402.539 526.81 403.499L527.07 404.889C527.24 405.799 527.41 406.739 527.58 407.689L527.84 409.189C527.99 410.079 528.15 410.999 528.3 411.929C528.39 412.449 528.48 412.989 528.56 413.539C528.7 414.409 528.84 415.309 528.98 416.209L529.23 417.929C529.36 418.809 529.49 419.709 529.61 420.609L529.86 422.379C529.97 423.269 530.09 424.149 530.2 425.039C530.28 425.649 530.35 426.269 530.43 426.899C530.54 427.779 530.64 428.669 530.74 429.569C530.81 430.189 530.89 430.829 530.96 431.479L531.23 434.149C531.3 434.799 531.37 435.459 531.43 436.149C531.52 437.039 531.6 437.939 531.68 438.839L531.86 440.839C531.927 441.759 531.997 442.669 532.07 443.569L532.23 445.629C532.3 446.549 532.36 447.479 532.42 448.399L532.55 450.499C532.6 451.309 532.65 452.129 532.69 452.939L532.82 455.429C532.87 456.429 532.91 457.429 532.95 458.349C532.95 458.349 533.02 459.879 533.04 460.419L533.13 463.139L533.2 465.509C533.2 466.649 533.25 467.819 533.27 468.989V470.659C533.27 472.379 533.27 474.129 533.32 475.889C533.32 478.079 534.41 487.089 548.04 510.889C557.04 526.579 568.09 542.889 575.41 553.659L577.31 556.459C581.282 562.301 583.57 569.123 583.922 576.178C584.275 583.234 582.679 590.25 579.31 596.459C572.61 608.809 559.41 627.459 534.58 646.279C517.17 659.539 496.62 668.439 473.52 672.629H473.39L471.39 672.979L469.31 673.319H469.15L467.26 673.599H467.05L465.28 673.839L463.37 674.069L461.37 674.289H461.04L459.15 674.469C458.15 674.569 457.15 674.609 456.15 674.609L456.17 674.739Z" fill="#231F20"/>
<path d="M342.57 235.76L343.11 236.68C316.99 247.63 320.11 285.25 327.57 310.41C335.8 338.04 338.71 370.31 328.46 402.07C323.38 417.82 311.59 474.4 337.08 528.51C364.08 585.92 423.52 636.01 432.49 644.35C440.49 651.8 446.89 660.66 457.78 659.67C475.16 658.08 501.68 652.48 525.63 634.34C548.18 617.27 560.11 600.6 566.23 589.34C568.273 585.546 569.234 581.264 569.009 576.961C568.783 572.658 567.379 568.499 564.95 564.94C550.55 543.7 518.46 497.37 518.38 476.02C517.95 369.47 481.45 316.58 449.68 275.52V275.38V275.3C449.68 275.12 449.59 274.82 449.52 274.42L449.45 274.04L449.39 273.73C449.29 273.2 449.18 272.56 449.04 271.82V271.67C448.95 271.2 448.86 270.67 448.75 270.13V269.98C448.643 269.427 448.533 268.837 448.42 268.21C448.42 268.07 448.42 267.94 448.34 267.79L448.19 267V266.68L448.01 265.73V265.48C447.49 262.67 446.89 259.37 446.22 255.69L446.17 255.4L445.93 254.07L445.85 253.61C445.77 253.19 445.7 252.77 445.62 252.34L445.53 251.84C445.45 251.37 445.36 250.9 445.28 250.42V250.26C444.76 247.36 444.22 244.26 443.66 241.11V240.97C443.56 240.39 443.45 239.82 443.35 239.23L443.3 238.93C443.21 238.39 443.11 237.85 443.02 237.3L442.93 236.8C442.83 236.25 442.74 235.69 442.64 235.12L442.59 234.83C442.48 234.23 442.38 233.63 442.28 233.03L442.22 232.68C442.12 232.09 442.01 231.51 441.91 230.92C441.91 230.82 441.91 230.72 441.91 230.62C441.33 227.214 440.743 223.74 440.15 220.2C440.04 219.52 439.92 218.84 439.81 218.2V218C439.7 217.36 439.59 216.72 439.49 216.07L439.43 215.72L439.13 213.89L439.06 213.45L438.76 211.63V211.32C438.2 207.86 437.65 204.41 437.12 200.99L437.06 200.62C436.97 200.04 436.88 199.46 436.8 198.89C436.8 198.73 436.8 198.57 436.72 198.41C436.64 197.84 436.55 197.27 436.46 196.7C436.46 196.54 436.46 196.38 436.39 196.21C436.3 195.66 436.22 195.1 436.14 194.55C436.14 194.37 436.08 194.19 436.06 194.01C435.97 193.46 435.89 192.91 435.81 192.36L435.75 191.95C435.66 191.36 435.58 190.78 435.49 190.2V189.98C435.11 187.4 434.753 184.884 434.42 182.43C434.42 182.31 434.42 182.18 434.37 182.06C434.3 181.57 434.24 181.06 434.17 180.61C434.17 180.41 434.12 180.21 434.09 180.01L433.91 178.64C433.91 178.44 433.86 178.24 433.83 178.05C433.77 177.6 433.71 177.15 433.66 176.7C433.66 176.5 433.61 176.31 433.58 176.11C433.58 175.67 433.47 175.23 433.42 174.79C433.42 174.61 433.37 174.43 433.35 174.25C433.29 173.8 433.24 173.36 433.19 172.92L433.13 172.46C433.13 172 433.02 171.54 432.97 171.09C432.81 169.09 432.64 167.49 432.44 166.24C432.24 164.99 432.2 163.85 432.1 162.73V162.63L431.98 161.15C431.98 161.09 431.98 161.02 431.98 160.95C431.98 160.42 431.9 159.89 431.87 159.39C431.79 158.27 431.7 157.19 431.62 156.12L431.53 155.19C431.46 154.39 431.39 153.61 431.31 152.85C431.31 152.57 431.26 152.28 431.23 152C431.13 151 431.02 150 430.9 149.1L430.84 148.6C430.74 147.82 430.64 147.05 430.53 146.31C430.53 146.01 430.45 145.72 430.4 145.42C430.31 144.77 430.21 144.13 430.1 143.49L429.98 142.76C429.85 141.95 429.7 141.15 429.55 140.38C429.55 140.14 429.46 139.91 429.41 139.67C429.3 139.12 429.19 138.58 429.07 138.05C429.01 137.76 428.95 137.48 428.88 137.2C428.77 136.69 428.65 136.2 428.53 135.7C428.47 135.48 428.41 135.24 428.36 135.02C428.19 134.38 428.02 133.75 427.84 133.14C427.77 132.87 427.68 132.61 427.6 132.34C427.52 132.07 427.38 131.61 427.26 131.25L426.99 130.42C426.87 130.06 426.74 129.71 426.62 129.37C426.5 129.03 426.33 128.6 426.19 128.23L425.8 127.23C425.68 126.96 425.57 126.7 425.45 126.44C425.33 126.18 425.24 125.97 425.13 125.75L424.76 124.97L424.46 124.4C424.21 123.93 423.96 123.49 423.71 123.06L423.44 122.62C423.29 122.37 423.13 122.13 422.97 121.89C422.81 121.65 422.8 121.65 422.72 121.52C422.183 120.761 421.599 120.036 420.97 119.35L420.8 119.16L420.19 118.55L420.05 118.43C419.406 117.829 418.71 117.287 417.97 116.81L417.89 116.75C416.907 116.131 415.848 115.64 414.74 115.29V115.29C414.638 115.234 414.526 115.2 414.41 115.19C411.062 114.372 407.552 114.496 404.27 115.55L403.12 117.26C402.49 112.91 401.82 108.93 401.12 105.42C401.034 104.312 400.781 103.223 400.37 102.19C399.625 99.1571 398.506 96.2281 397.04 93.4702L396.98 93.3503C396.76 92.9503 396.53 92.5802 396.31 92.2102C396.25 92.1302 396.21 92.0502 396.16 91.9702C395.94 91.6302 395.72 91.3202 395.5 90.9702C395.43 90.8802 395.37 90.7802 395.3 90.6802C395.09 90.3902 394.87 90.1203 394.65 89.8503L394.41 89.5502C394.19 89.3002 393.98 89.0603 393.76 88.8303L393.49 88.5403C393.27 88.3203 393.06 88.1103 392.84 87.9103L392.54 87.6303C392.33 87.4403 392.11 87.2602 391.89 87.0902L391.57 86.8402C391.36 86.6702 391.14 86.5202 390.92 86.3702L390.59 86.1403L389.93 85.7402L389.58 85.5403C389.37 85.4203 389.15 85.3102 388.93 85.2102L388.57 85.0302C388.35 84.9402 388.14 84.8403 387.92 84.7603L387.54 84.6103L386.9 84.3903L386.51 84.2702L385.87 84.1003L385.48 84.0103L384.85 83.8803L384.45 83.8102L383.83 83.7202H383.43L382.82 83.6703H382.41H380.83H380.42H379.86H379.45L378.91 83.7303L378.5 83.7903L377.99 83.8702L377.57 83.9503L377.09 84.0403L376.67 84.1403L376.23 84.2402L375.81 84.3503L375.4 84.4602L374.97 84.5902L374.61 84.7003L374.17 84.8503L373.86 84.9503L373.34 85.1303L373.16 85.2003L372.5 85.4602C372.26 85.5525 372.027 85.6594 371.8 85.7802C371.127 86.1386 370.511 86.5934 369.97 87.1303C369.432 87.6685 368.974 88.2815 368.61 88.9503C368.488 89.1744 368.378 89.4047 368.28 89.6403L367.34 91.8503C363.23 79.2303 355.34 62.7202 344.92 62.6702C324.52 62.5802 315.05 81.2503 316.85 113.38C317.9 140.31 334.4 209.24 342.57 235.76ZM440.35 263.51L441.24 264.66L442.18 265.86L440.35 263.51V263.51Z" fill="#A2E6D6"/>
<path d="M352.78 384.749C361.93 353.339 346 288.749 346 288.749L334.17 242.359C317.86 257.359 321.03 288.589 327.53 310.409C335.76 338.039 338.67 370.309 328.42 402.069C323.34 417.819 311.55 474.399 337.04 528.509C364.04 585.919 423.48 636.009 432.45 644.349C440.45 651.799 446.85 660.659 457.74 659.669C468.825 658.663 479.755 656.371 490.31 652.839C432.73 563.039 344.52 413.089 352.78 384.749Z" fill="#3E9581"/>
<path opacity="0.19" d="M373.7 84.8803L373.86 84.8203L373.7 84.8803Z" fill="#62CBAB"/>
<path opacity="0.19" d="M372.05 85.4904L371.7 85.6505L372.05 85.4904L372.71 85.2305L372.05 85.4904Z" fill="#62CBAB"/>
<path opacity="0.19" d="M374.78 84.5403L374.95 84.4902L374.78 84.5403Z" fill="#62CBAB"/>
<path opacity="0.19" d="M370.29 86.4996L370.49 86.3496L370.29 86.4996Z" fill="#62CBAB"/>
<path opacity="0.19" d="M368.86 87.9199L368.71 88.1199L368.86 87.9199Z" fill="#62CBAB"/>
<path d="M344.47 62.7001C354.86 62.7501 362.78 79.2601 366.89 91.8801C367.64 94.7501 368.34 97.7601 369.03 100.88C363.648 102.127 358.052 102.127 352.67 100.88C341.47 98.4001 337.67 79.1601 336.52 63.7901C339.104 63.0461 341.781 62.679 344.47 62.7001V62.7001Z" fill="#5DC4AC"/>
<path opacity="0.19" d="M375.34 84.4401L375.76 84.3301L375.34 84.4401Z" fill="#62CBAB"/>
<path opacity="0.19" d="M376.17 84.1696L376.48 84.0996L376.17 84.1696Z" fill="#62CBAB"/>
<path d="M373.17 120.199C370.96 110.539 369.1 100.869 366.88 92.3093L367.82 90.0993C368.213 89.1585 368.788 88.3046 369.512 87.5872C370.236 86.8698 371.096 86.3029 372.04 85.9193C378.87 83.1593 395.04 79.6193 400.49 105.019C407.42 137.499 409.21 213.249 420.05 234.789C395.17 193.619 378.84 144.869 373.17 120.199Z" fill="#31816D"/>
<path d="M400.5 104.589C400.87 106.279 401.21 108.109 401.5 110.029C397.661 112.05 393.203 112.553 389.01 111.439C377.01 108.499 375.52 91.7987 375.48 84.3687C383.28 82.3087 395.86 82.8087 400.5 104.589Z" fill="#5DC4AC"/>
<path d="M403.84 115.929C418.03 111.989 428.7 119.838 431.44 159.728C433.56 190.728 449.68 275.928 449.68 275.928C444.92 269.768 440.26 263.878 435.85 258.108C430.156 250.608 424.875 242.803 420.03 234.728C410.44 215.558 407.94 153.998 402.69 117.638L403.84 115.929Z" fill="#31816D"/>
<path d="M428.23 136.179C425.146 137.09 421.872 137.142 418.76 136.329C409.3 134.019 406.38 123.219 405.54 115.089C415.6 112.949 423.72 117.439 428.23 136.179Z" fill="#5DC4AC"/>
<path d="M333.88 140.44C345.96 166.25 368.71 242.05 368.71 242.05L340.49 237.92C341.33 237.47 342.2 237.05 343.11 236.67L342.57 235.75C334.4 209.23 317.9 140.3 316.4 113.4C315.13 90.7096 319.49 74.7396 329.34 67.3496C329.34 67.3496 321.8 114.64 333.88 140.44Z" fill="#1F4038"/>
<path d="M475.65 352.27C480.853 352.27 485.07 348.052 485.07 342.85C485.07 337.647 480.853 333.43 475.65 333.43C470.448 333.43 466.23 337.647 466.23 342.85C466.23 348.052 470.448 352.27 475.65 352.27Z" fill="white"/>
<path d="M340.11 113.439C341.91 81.3088 332.44 62.6388 312.05 62.7288C301.65 62.7788 293.73 79.2888 289.62 91.9088L288.68 89.6989C288.582 89.4633 288.472 89.2329 288.35 89.0089C287.993 88.3358 287.534 87.7219 286.99 87.1888C286.449 86.652 285.833 86.1971 285.16 85.8388C284.933 85.718 284.7 85.6111 284.46 85.5188L283.8 85.2589L283.62 85.1888L283.1 85.0089L282.79 84.9088L282.35 84.7589L281.99 84.6488L281.56 84.5188L281.15 84.4088L280.73 84.2988L280.29 84.1989L279.87 84.0989L279.39 84.0089L278.97 83.9288L278.46 83.8489L278.05 83.7889L277.52 83.7289H277.1H276.55H276.13H274.55H274.14L273.53 83.7788H273.13L272.51 83.8688L272.11 83.9388L271.48 84.0689L271.09 84.1588L270.45 84.3289L270.06 84.4489L269.42 84.6689L269.04 84.8189L268.39 85.0888L268.03 85.2688C267.81 85.3688 267.6 85.4789 267.38 85.5989L267.03 85.7988C266.81 85.9288 266.59 86.0589 266.38 86.1989C266.263 86.2697 266.149 86.3464 266.04 86.4288C265.82 86.5788 265.6 86.7288 265.39 86.8988L265.07 87.1488C264.85 87.3188 264.63 87.4988 264.42 87.6888L264.12 87.9688L263.47 88.5989L263.2 88.8889C262.98 89.1189 262.77 89.3589 262.55 89.6089L262.31 89.9088C262.09 90.1788 261.88 90.4488 261.66 90.7388C261.59 90.8388 261.53 90.9388 261.46 91.0288C261.24 91.3488 261.02 91.6588 260.81 92.0288C260.75 92.1088 260.71 92.1888 260.66 92.2688C260.43 92.6388 260.2 93.0088 259.98 93.4088L259.92 93.5288C258.454 96.2867 257.335 99.2157 256.59 102.249C256.179 103.281 255.929 104.371 255.85 105.479C255.12 108.989 254.45 112.969 253.85 117.319L252.7 115.609C249.418 114.555 245.908 114.43 242.56 115.249C242.447 115.258 242.338 115.292 242.24 115.349C241.132 115.699 240.073 116.19 239.09 116.809L239.01 116.869C238.27 117.346 237.574 117.888 236.93 118.489L236.79 118.609C236.59 118.809 236.38 119.009 236.18 119.219L236.01 119.409C235.382 120.092 234.801 120.817 234.27 121.579L234.01 121.949L233.54 122.679L233.27 123.119C233.02 123.549 232.77 123.989 232.52 124.459L232.22 125.029L231.85 125.809C231.74 126.029 231.64 126.259 231.53 126.499C231.42 126.739 231.3 127.019 231.18 127.289C231.06 127.559 230.92 127.919 230.8 128.289C230.68 128.659 230.51 129.039 230.36 129.429C230.21 129.819 230.11 130.119 229.99 130.479L229.72 131.309C229.6 131.669 229.49 132.029 229.38 132.399L229.14 133.199C228.96 133.809 228.79 134.439 228.62 135.079L228.46 135.759L228.1 137.259C228.04 137.539 227.97 137.819 227.91 138.109C227.79 138.639 227.68 139.179 227.57 139.729C227.52 139.969 227.47 140.199 227.43 140.439C227.28 141.209 227.14 142.009 227 142.819L226.88 143.549C226.78 144.189 226.67 144.829 226.58 145.479C226.53 145.779 226.49 146.069 226.45 146.369C226.34 147.109 226.24 147.879 226.14 148.659L226.08 149.159C225.96 150.099 225.86 151.069 225.75 152.059C225.75 152.339 225.7 152.629 225.67 152.909C225.59 153.669 225.52 154.449 225.45 155.249C225.45 155.559 225.39 155.869 225.37 156.179C225.28 157.249 225.19 158.329 225.12 159.449C225.12 159.949 225.04 160.449 225 161.009C225.005 161.075 225.005 161.142 225 161.209L224.88 162.689V162.789C224.78 163.909 224.67 165.079 224.55 166.299C224.34 167.549 224.17 169.189 224.01 171.149C224.01 171.599 223.91 172.059 223.85 172.519L223.79 172.979C223.74 173.419 223.69 173.859 223.63 174.309L223.57 174.849C223.51 175.289 223.46 175.729 223.4 176.169C223.4 176.369 223.35 176.559 223.32 176.759C223.27 177.209 223.21 177.659 223.15 178.109C223.15 178.299 223.1 178.499 223.07 178.699L222.89 180.069C222.89 180.269 222.89 180.469 222.81 180.669C222.75 181.149 222.68 181.669 222.61 182.119C222.61 182.239 222.61 182.369 222.56 182.489C222.233 184.942 221.877 187.459 221.49 190.039V190.259C221.4 190.839 221.32 191.419 221.23 192.009L221.17 192.419L220.93 194.069L220.84 194.609C220.76 195.159 220.68 195.719 220.59 196.269C220.59 196.439 220.54 196.599 220.52 196.759C220.43 197.329 220.35 197.899 220.26 198.469C220.26 198.629 220.21 198.789 220.19 198.949L219.92 200.679L219.86 201.049C219.33 204.469 218.78 207.919 218.22 211.379L218.17 211.689L217.87 213.509L217.8 213.949L217.5 215.779L217.44 216.129C217.34 216.779 217.23 217.419 217.12 218.059V218.259C217.01 218.939 216.9 219.619 216.78 220.259C216.187 223.786 215.6 227.259 215.02 230.679C215.02 230.779 215.02 230.879 214.97 230.979L214.67 232.739L214.6 233.089C214.5 233.689 214.4 234.289 214.29 234.889L214.24 235.179C214.15 235.749 214.05 236.309 213.95 236.859C213.95 237.029 213.89 237.199 213.87 237.359C213.77 237.909 213.68 238.449 213.58 238.989V239.289L213.28 241.029V241.169C212.72 244.359 212.18 247.419 211.66 250.319V250.479C211.58 250.959 211.49 251.429 211.41 251.899L211.32 252.399C211.24 252.829 211.17 253.249 211.09 253.669L211.01 254.129L210.77 255.459L210.72 255.749L208.7 265.439V265.689C208.64 266.009 208.58 266.329 208.53 266.639L208.47 266.959L208.32 267.749C208.32 267.899 208.27 268.029 208.24 268.169C208.13 268.799 208.02 269.389 207.92 269.939V270.089C207.82 270.639 207.72 271.159 207.63 271.629V271.779C207.5 272.519 207.38 273.159 207.28 273.689L207.22 273.999L207.15 274.379C207.07 274.779 207.01 275.079 206.98 275.259V275.339V275.479C175.07 316.559 138.56 369.439 138.17 475.999C138.09 497.349 106 543.679 91.6 564.919C89.1711 568.478 87.7671 572.636 87.5413 576.94C87.3156 581.243 88.2768 585.525 90.32 589.319C96.44 600.599 108.38 617.319 130.92 634.319C154.92 652.459 181.39 658.059 198.77 659.649C209.67 660.649 216.05 651.779 224.06 644.329C233.06 635.989 292.44 585.899 319.48 528.489C344.92 474.439 333.17 417.819 328.05 402.069C317.8 370.309 320.71 338.069 328.94 310.409C336.44 285.249 339.52 247.629 313.4 236.679L313.94 235.759C322.11 209.239 338.61 140.309 340.11 113.439ZM216.17 263.509L214.34 265.859L215.28 264.659L216.17 263.509V263.509Z" fill="#A2E6D6"/>
<path opacity="0.19" d="M282.81 84.8803L282.65 84.8203L282.81 84.8803Z" fill="#62CBAB"/>
<path opacity="0.19" d="M284.46 85.4904L284.81 85.6505L284.46 85.4904L283.8 85.2305L284.46 85.4904Z" fill="#62CBAB"/>
<path opacity="0.19" d="M281.73 84.5403L281.56 84.4902L281.73 84.5403Z" fill="#62CBAB"/>
<path opacity="0.19" d="M286.22 86.4996L286.02 86.3496L286.22 86.4996Z" fill="#62CBAB"/>
<path opacity="0.19" d="M287.65 87.9199L287.8 88.1199L287.65 87.9199Z" fill="#62CBAB"/>
<path d="M312.05 62.7C301.65 62.75 293.73 79.26 289.62 91.88C288.88 94.75 288.17 97.76 287.48 100.88C292.862 102.127 298.458 102.127 303.84 100.88C315.04 98.4 318.84 79.16 319.99 63.79C317.41 63.0468 314.735 62.6796 312.05 62.7V62.7Z" fill="#5DC4AC"/>
<path opacity="0.19" d="M281.17 84.4401L280.75 84.3301L281.17 84.4401Z" fill="#62CBAB"/>
<path opacity="0.19" d="M280.31 84.1696L280 84.0996L280.31 84.1696Z" fill="#62CBAB"/>
<path d="M283.33 120.199C285.54 110.539 287.4 100.869 289.62 92.3093L288.68 90.0993C288.287 89.1585 287.712 88.3046 286.988 87.5872C286.264 86.8698 285.405 86.3029 284.46 85.9193C277.63 83.1593 261.46 79.6193 256.01 105.019C249.09 137.499 247.3 213.249 236.45 234.789C261.36 193.619 277.67 144.869 283.33 120.199Z" fill="#31816D"/>
<path d="M256.01 104.589C255.64 106.279 255.3 108.109 255.01 110.029C258.849 112.05 263.307 112.553 267.5 111.439C279.5 108.499 280.99 91.7987 281.03 84.3687C273.24 82.3087 260.65 82.8087 256.01 104.589Z" fill="#5DC4AC"/>
<path d="M252.67 115.929C238.48 111.989 227.81 119.838 225.08 159.728C222.95 190.728 206.83 275.928 206.83 275.928C211.59 269.768 216.25 263.878 220.67 258.108C226.358 250.606 231.635 242.801 236.48 234.728C246.07 215.558 248.57 153.998 253.82 117.638L252.67 115.929Z" fill="#31816D"/>
<path d="M228.28 136.179C231.368 137.09 234.645 137.141 237.76 136.329C247.21 134.019 250.13 123.219 250.97 115.089C240.91 112.949 232.79 117.439 228.28 136.179Z" fill="#5DC4AC"/>
<path d="M153.89 209.68L133.78 205.44L129.57 185.33C129.504 185.13 129.377 184.956 129.206 184.833C129.036 184.709 128.831 184.643 128.62 184.643C128.409 184.643 128.204 184.709 128.034 184.833C127.863 184.956 127.736 185.13 127.67 185.33L123.45 205.44L103.34 209.65C103.14 209.716 102.966 209.843 102.842 210.014C102.719 210.185 102.652 210.39 102.652 210.6C102.652 210.811 102.719 211.016 102.842 211.187C102.966 211.357 103.14 211.485 103.34 211.55L123.45 215.77L127.67 235.88C127.736 236.08 127.863 236.255 128.034 236.378C128.204 236.502 128.409 236.568 128.62 236.568C128.831 236.568 129.036 236.502 129.206 236.378C129.377 236.255 129.504 236.08 129.57 235.88L133.78 215.77L153.89 211.55C154.08 211.478 154.243 211.35 154.358 211.183C154.474 211.016 154.535 210.818 154.535 210.615C154.535 210.412 154.474 210.214 154.358 210.047C154.243 209.88 154.08 209.752 153.89 209.68Z" fill="#F26B6C"/>
<path d="M658.64 496.84L638.53 492.63L634.32 472.52C634.257 472.316 634.13 472.138 633.958 472.011C633.786 471.885 633.578 471.816 633.365 471.816C633.152 471.816 632.944 471.885 632.772 472.011C632.6 472.138 632.473 472.316 632.41 472.52L628.17 492.63L608.06 496.84C607.86 496.906 607.686 497.033 607.562 497.203C607.439 497.374 607.372 497.579 607.372 497.79C607.372 498 607.439 498.206 607.562 498.376C607.686 498.547 607.86 498.674 608.06 498.74L628.17 502.96L632.38 523.07C632.443 523.274 632.57 523.452 632.742 523.578C632.914 523.705 633.122 523.773 633.335 523.773C633.548 523.773 633.756 523.705 633.928 523.578C634.1 523.452 634.227 523.274 634.29 523.07L638.5 502.96L658.61 498.74C658.811 498.677 658.987 498.553 659.114 498.384C659.24 498.216 659.31 498.011 659.313 497.801C659.316 497.59 659.253 497.384 659.132 497.211C659.011 497.039 658.839 496.909 658.64 496.84Z" fill="#F26B6C"/>
<path d="M81.07 455.139L49.3 448.489L42.65 416.719C42.5804 416.372 42.3929 416.06 42.1195 415.837C41.846 415.613 41.5035 415.49 41.15 415.49C40.7966 415.49 40.454 415.613 40.1806 415.837C39.9071 416.06 39.7197 416.372 39.65 416.719L32.99 448.489L1.22003 455.139C0.881251 455.217 0.579105 455.409 0.362793 455.681C0.146481 455.953 0.0287476 456.291 0.0287476 456.639C0.0287476 456.987 0.146481 457.324 0.362793 457.596C0.579105 457.869 0.881251 458.06 1.22003 458.139L32.99 464.789L39.65 496.559C39.7197 496.905 39.9071 497.217 40.1806 497.441C40.454 497.665 40.7966 497.787 41.15 497.787C41.5035 497.787 41.846 497.665 42.1195 497.441C42.3929 497.217 42.5804 496.905 42.65 496.559L49.3 464.789L81.07 458.139C81.4088 458.06 81.7109 457.869 81.9273 457.596C82.1436 457.324 82.2613 456.987 82.2613 456.639C82.2613 456.291 82.1436 455.953 81.9273 455.681C81.7109 455.409 81.4088 455.217 81.07 455.139V455.139Z" fill="#F26B6C"/>
<path d="M127.4 276.539L95.63 269.879L88.97 238.109C88.9004 237.763 88.7129 237.451 88.4395 237.227C88.166 237.003 87.8234 236.881 87.47 236.881C87.1166 236.881 86.774 237.003 86.5006 237.227C86.2271 237.451 86.0397 237.763 85.97 238.109L79.31 269.879L47.54 276.539C47.1935 276.609 46.8818 276.796 46.6578 277.07C46.4339 277.343 46.3115 277.686 46.3115 278.039C46.3115 278.393 46.4339 278.735 46.6578 279.009C46.8818 279.282 47.1935 279.47 47.54 279.539L79.31 286.189L85.97 317.969C86.0397 318.316 86.2271 318.628 86.5006 318.852C86.774 319.075 87.1166 319.198 87.47 319.198C87.8234 319.198 88.166 319.075 88.4395 318.852C88.7129 318.628 88.9004 318.316 88.97 317.969L95.63 286.189L127.4 279.539C127.747 279.47 128.058 279.282 128.282 279.009C128.506 278.735 128.629 278.393 128.629 278.039C128.629 277.686 128.506 277.343 128.282 277.07C128.058 276.796 127.747 276.609 127.4 276.539V276.539Z" fill="#F26B6C"/>
<path d="M632.17 331.93L600.39 325.27L593.74 293.5C593.67 293.153 593.483 292.842 593.209 292.618C592.936 292.394 592.593 292.271 592.24 292.271C591.887 292.271 591.544 292.394 591.271 292.618C590.997 292.842 590.81 293.153 590.74 293.5L584.08 325.27L552.31 331.93C551.964 332 551.652 332.187 551.428 332.461C551.204 332.734 551.082 333.077 551.082 333.43C551.082 333.783 551.204 334.126 551.428 334.399C551.652 334.673 551.964 334.86 552.31 334.93L584.08 341.58L590.74 373.36C590.81 373.707 590.997 374.018 591.271 374.242C591.544 374.466 591.887 374.589 592.24 374.589C592.593 374.589 592.936 374.466 593.209 374.242C593.483 374.018 593.67 373.707 593.74 373.36L600.39 341.58L632.17 334.93C632.517 334.86 632.828 334.673 633.052 334.399C633.276 334.126 633.399 333.783 633.399 333.43C633.399 333.077 633.276 332.734 633.052 332.461C632.828 332.187 632.517 332 632.17 331.93Z" fill="#F26B6C"/>
<path d="M559.17 275.68L539.03 271.44L534.82 251.33C534.754 251.13 534.627 250.956 534.456 250.833C534.286 250.709 534.081 250.643 533.87 250.643C533.659 250.643 533.454 250.709 533.284 250.833C533.113 250.956 532.986 251.13 532.92 251.33L528.7 271.44L508.59 275.66C508.39 275.726 508.216 275.853 508.092 276.024C507.969 276.195 507.902 276.4 507.902 276.61C507.902 276.821 507.969 277.026 508.092 277.197C508.216 277.367 508.39 277.495 508.59 277.56L528.7 281.77L532.92 301.88C532.986 302.08 533.113 302.255 533.284 302.378C533.454 302.502 533.659 302.568 533.87 302.568C534.081 302.568 534.286 302.502 534.456 302.378C534.627 302.255 534.754 302.08 534.82 301.88L539.03 281.77L559.17 277.58C559.37 277.515 559.544 277.387 559.668 277.217C559.791 277.046 559.858 276.841 559.858 276.63C559.858 276.42 559.791 276.215 559.668 276.044C559.544 275.873 559.37 275.746 559.17 275.68Z" fill="#F26B6C"/>
<path d="M432.38 25.0995L412.27 20.8895L408.06 0.779541C407.994 0.579473 407.867 0.405281 407.696 0.281784C407.526 0.158287 407.321 0.0917969 407.11 0.0917969C406.899 0.0917969 406.694 0.158287 406.524 0.281784C406.353 0.405281 406.226 0.579473 406.16 0.779541L401.94 20.8895L381.83 25.0995C381.63 25.1653 381.456 25.2925 381.332 25.4631C381.209 25.6337 381.142 25.8389 381.142 26.0495C381.142 26.2601 381.209 26.4654 381.332 26.636C381.456 26.8065 381.63 26.9338 381.83 26.9995L401.94 31.2195L406.17 51.3295C406.236 51.5296 406.363 51.7038 406.534 51.8273C406.704 51.9508 406.909 52.0173 407.12 52.0173C407.331 52.0173 407.536 51.9508 407.706 51.8273C407.877 51.7038 408.004 51.5296 408.07 51.3295L412.28 31.2195L432.39 26.9995C432.59 26.9327 432.763 26.8046 432.886 26.6333C433.009 26.4621 433.074 26.2565 433.073 26.0459C433.072 25.8353 433.004 25.6304 432.88 25.4605C432.755 25.2906 432.58 25.1642 432.38 25.0995Z" fill="#F26B6C"/>
<path d="M369.17 252.74C369.17 252.74 382.37 280.47 367.17 287.98C351.97 295.49 343.17 293.56 332.52 265.87C323.07 241.24 358.17 222.01 369.17 252.74Z" fill="#5DC4AC"/>
<g style="mix-blend-mode:multiply" opacity="0.49">
<path d="M338.27 239.219C317.43 252.599 320.57 286.929 327.57 310.409C329.14 315.679 330.51 321.109 331.64 326.679C334.227 322.719 336.94 318.369 339.78 313.629C351.37 294.219 345.63 263.029 338.27 239.219Z" fill="#1E6F5D"/>
</g>
<path d="M319.44 528.51C344.92 474.44 333.17 417.82 328.05 402.07C317.8 370.31 320.71 338.07 328.94 310.41C336.44 285.25 339.52 247.63 313.4 236.68C313.4 236.68 327.56 274.3 303.73 313.43C280.73 351.22 299.97 419.65 301.51 446.2C302.94 470.89 242.99 574.32 146.73 644.47C162.887 652.926 180.562 658.092 198.73 659.67C209.63 660.67 216.01 651.8 224.02 644.35C233 636.01 292.4 585.92 319.44 528.51Z" fill="#3E9581"/>
<g style="mix-blend-mode:multiply" opacity="0.24">
<path d="M137.25 482.88C131.98 506.12 104.57 545.75 91.57 564.88C89.1411 568.439 87.737 572.598 87.5113 576.901C87.2856 581.204 88.2468 585.486 90.29 589.28C96.41 600.56 108.35 617.28 130.89 634.28C154.89 652.42 181.36 658.02 198.74 659.61C209.64 660.61 216.02 651.74 224.03 644.29C233.03 635.95 292.41 585.86 319.45 528.45C344.92 474.44 333.17 417.82 328.05 402.07C325.178 393.132 323.244 383.919 322.28 374.58V374.58C322.28 374.58 277.82 509.35 137.25 482.88Z" fill="#1E6F5D"/>
</g>
<path d="M322.63 140.44C310.55 166.25 293.54 221.86 293.54 221.86L316.02 237.92C315.18 237.47 314.31 237.05 313.4 236.67L313.94 235.75C322.11 209.23 338.61 140.3 340.11 113.4C341.38 90.7096 337.02 74.7396 327.18 67.3496C327.18 67.3496 334.71 114.64 322.63 140.44Z" fill="#1F4038"/>
<path d="M329.54 252.35C283.88 214.78 268 260.42 258.9 319.26C255.45 341.54 240.25 367.91 226.1 388.48C223.58 392.15 217.93 388.9 219.84 384.87C228.41 366.87 240.98 341.631 240.98 328.641C240.98 287.251 265.42 215.84 293.54 221.87C301.612 223.532 309.138 227.193 315.428 232.518C321.718 237.843 326.57 244.663 329.54 252.35Z" fill="#1F4038"/>
<path d="M287.38 252.74C287.38 252.74 274.17 280.47 289.38 287.98C304.59 295.49 313.38 293.56 324.03 265.87C333.48 241.24 298.39 222.01 287.38 252.74Z" fill="#5DC4AC"/>
<path d="M308.087 493.028C314.653 478.384 313.464 463.592 305.431 459.99C297.399 456.389 285.564 465.341 278.997 479.985C272.431 494.63 273.62 509.422 281.653 513.023C289.686 516.625 301.521 507.673 308.087 493.028Z" fill="white"/>
<path d="M303.84 448.209C309.043 448.209 313.26 443.992 313.26 438.789C313.26 433.587 309.043 429.369 303.84 429.369C298.638 429.369 294.42 433.587 294.42 438.789C294.42 443.992 298.638 448.209 303.84 448.209Z" fill="white"/>
<g style="mix-blend-mode:multiply" opacity="0.24">
<path d="M518.38 476C518.17 420.44 508.11 379.44 494.03 347.09C494.03 347.09 523.54 542.82 337.03 528.51C364.03 585.92 423.47 636.01 432.44 644.35C440.44 651.8 446.84 660.66 457.73 659.67C475.11 658.08 501.63 652.48 525.58 634.34C548.13 617.27 560.06 600.6 566.18 589.34C568.224 585.545 569.186 581.26 568.96 576.956C568.734 572.651 567.33 568.491 564.9 564.93C550.55 543.68 518.46 497.35 518.38 476Z" fill="#1E6F5D"/>
</g>
<path d="M496.959 415.033C504.992 411.431 506.181 396.64 499.615 381.995C493.049 367.35 481.214 358.398 473.181 362C465.148 365.602 463.959 380.393 470.525 395.038C477.091 409.683 488.926 418.635 496.959 415.033Z" fill="white"/>
<path d="M327.02 252.35C372.67 214.78 388.56 260.42 397.66 319.26C401.1 341.54 416.31 367.91 430.45 388.48C430.959 389.249 431.741 389.795 432.638 390.006C433.535 390.218 434.479 390.079 435.277 389.619C436.076 389.158 436.668 388.411 436.935 387.529C437.201 386.646 437.12 385.696 436.71 384.87C428.15 366.87 415.57 341.631 415.57 328.641C415.57 287.251 391.13 215.84 363.01 221.87C354.94 223.533 347.416 227.195 341.128 232.52C334.84 237.846 329.989 244.664 327.02 252.35Z" fill="#1F4038"/>
</g>
<defs>
<clipPath id="clip0_4931_299">
<rect width="659.41" height="674.74" fill="white"/>
</clipPath>
</defs>
</svg>
