<svg width="428" height="413" viewBox="0 0 428 413" fill="none" xmlns="http://www.w3.org/2000/svg">
<g clip-path="url(#clip0_4780_416)">
<path d="M223.92 412.4C336.487 412.4 427.74 390.282 427.74 363C427.74 335.717 336.487 313.6 223.92 313.6C111.353 313.6 20.1001 335.717 20.1001 363C20.1001 390.282 111.353 412.4 223.92 412.4Z" fill="#A7A9AC"/>
<path d="M351.52 4.77005C350.113 3.26128 348.41 2.05893 346.517 1.23819C344.625 0.417449 342.583 -0.00405394 340.52 2.93863e-05H340.16C288.76 1.22003 249.61 14 223.8 38.12C205.91 54.8 194.63 76.98 191.02 102.45C190.21 104.3 189.77 140.71 189.77 140.71C175.58 116.26 156.6 97.25 133.04 83.95C101.85 66.34 68.87 62.6501 46.7 62.6501C26.33 62.6501 12.3 65.65 11.7 65.83C9.74155 66.2631 7.88982 67.0845 6.25436 68.2456C4.61891 69.4068 3.23295 70.8842 2.17846 72.5904C1.12398 74.2966 0.422391 76.197 0.115202 78.179C-0.191988 80.1611 -0.0985502 82.1847 0.390013 84.13C10.21 123.22 25.92 156.97 47.09 184.47L47.21 184.62C48.15 185.85 49.1 187.05 50.03 188.2L50.39 188.65C52.29 191 54.25 193.32 56.21 195.55L56.55 195.94C58.49 198.133 60.49 200.3 62.55 202.44L62.85 202.75C64.85 204.75 66.85 206.84 68.85 208.75L69.22 209.1C71.22 211.05 73.36 212.97 75.46 214.81L75.71 215.03C76.71 215.95 77.81 216.86 78.87 217.75C78.8932 217.753 78.9168 217.753 78.94 217.75C79.94 218.63 81.03 219.5 82.08 220.35L82.25 220.48C83.31 221.34 84.38 222.18 85.4 222.97L85.61 223.13C86.67 223.95 87.73 224.76 88.8 225.55H88.86C89.92 226.34 90.99 227.12 92 227.84L92.28 228.04C94.38 229.53 96.54 231.04 98.69 232.42L98.94 232.58C101.05 233.96 103.2 235.31 105.31 236.58L105.58 236.74C107.67 238 109.81 239.24 111.9 240.4L112.16 240.54C114.22 241.68 116.34 242.81 118.54 243.93L118.69 244.01C120.74 245.01 122.85 246.07 125 247.08L125.12 247.13C127.12 248.13 129.26 249.03 131.33 249.91L131.46 249.97C132.46 250.41 133.46 250.83 134.53 251.25H134.62C136.62 252.06 138.62 252.86 140.62 253.6L140.79 253.67C142.71 254.383 144.673 255.08 146.68 255.76H146.82C148.67 256.39 150.57 257 152.45 257.58H152.55H152.66C154.45 258.13 156.27 258.66 158.16 259.19H158.29C160.05 259.69 161.81 260.19 163.5 260.57H163.68C165.37 260.99 167.02 261.39 168.68 261.75H168.88L171.29 262.27L173.62 262.75H173.75L175.97 263.18H176.2L178.2 263.55H178.35L180.47 263.91H180.64C182.02 264.14 183.35 264.34 184.64 264.52H184.82C186.09 264.7 187.3 264.86 188.39 264.99H188.66L189.74 265.12V346.9C189.74 350.878 191.32 354.694 194.133 357.507C196.946 360.32 200.762 361.9 204.74 361.9H243.02C246.998 361.9 250.814 360.32 253.627 357.507C256.44 354.694 258.02 350.878 258.02 346.9V146.5L259.46 145.98C260.11 145.76 260.75 145.53 261.4 145.28C262.05 145.03 262.53 144.84 263.1 144.62L264.21 144.17C264.82 143.93 265.44 143.69 266.03 143.44L267.77 142.69L268.83 142.22L270.53 141.46C271.08 141.21 271.63 140.94 272.17 140.68L273.17 140.21C273.75 139.93 274.34 139.65 274.91 139.36C275.48 139.07 275.98 138.81 276.51 138.53L277.51 138.01L279.15 137.14L280.82 136.14L281.68 135.65L283.21 134.76C283.77 134.43 284.32 134.09 284.87 133.76L285.59 133.32L287.13 132.32L288.71 131.32L289.46 130.81L290.92 129.81C291.43 129.45 291.92 129.09 292.44 128.72L293.23 128.15L294.56 127.15L296.07 126L296.78 125.45L298.08 124.45L299.69 123.13L300.2 122.71L301.46 121.65L303.05 120.27L303.5 119.87C303.9 119.52 304.3 119.17 304.68 118.87C305.06 118.57 305.68 117.87 306.25 117.41L306.65 117.04L307.79 115.96L309.24 114.52L309.71 114.05C310.07 113.7 310.43 113.34 310.77 112.98C311.31 112.43 311.83 111.87 312.35 111.32L312.58 111.08L313.58 109.97L315.11 108.27L315.31 108.03C315.65 107.65 315.99 107.27 316.31 106.92C316.81 106.34 317.31 105.76 317.8 105.17L317.99 104.93C318.31 104.56 318.62 104.19 318.93 103.81C319.41 103.22 319.93 102.63 320.36 102.02L321.36 100.7C321.83 100.1 322.29 99.49 322.74 98.88L322.87 98.7101C323.16 98.3201 323.46 97.93 323.72 97.57C324.18 96.95 324.62 96.33 325.06 95.7L325.15 95.57L325.98 94.4001C326.42 93.7701 326.84 93.14 327.27 92.5L328.13 91.2301L329.36 89.32L329.43 89.2L330.17 88.0401C330.57 87.4001 330.96 86.7601 331.35 86.1101L331.84 85.32C331.92 85.18 331.99 85.0401 332.07 84.9101C352.07 51.1901 355.35 17.7801 355.48 16.3601C355.672 14.2583 355.419 12.1397 354.737 10.1425C354.054 8.14532 352.958 6.3146 351.52 4.77005Z" fill="#231F20"/>
<path d="M243.03 123.27H204.81V346.86H243.03V123.27Z" fill="#66BE64"/>
<path d="M204.81 251.69C190.57 41.6897 15 80.4898 15 80.4898C15 80.4898 166.67 168.09 204.81 251.69Z" fill="#66BE64"/>
<path d="M15 80.4902C58.57 253.83 204.81 251.69 204.81 251.69C166.67 168.09 15 80.4902 15 80.4902Z" fill="#4CA84E"/>
<g style="mix-blend-mode:multiply">
<path d="M204.81 251.69C203.16 227.46 199.37 206.55 193.95 188.51C136.12 217.12 59.1201 175.44 59.1201 175.44C118.86 252.95 204.81 251.69 204.81 251.69Z" fill="#4CA84E"/>
</g>
<path d="M206.62 140.31C206.62 140.31 270.26 46.42 340.56 15C178.84 18.84 206.62 140.31 206.62 140.31Z" fill="#66BE64"/>
<path d="M206.62 140.31C329.25 137.54 340.56 15 340.56 15C270.26 46.42 206.62 140.31 206.62 140.31Z" fill="#4CA84E"/>
<g style="mix-blend-mode:multiply">
<path d="M318.96 77.66C229.86 125.01 216.9 71.04 216.9 71.04C198.42 104.42 206.62 140.31 206.62 140.31C267.25 138.9 300.67 108.3 318.96 77.66Z" fill="#4CA84E"/>
</g>
<path d="M127.285 125.137C130.864 118.938 126.491 109.714 117.518 104.533C108.546 99.3528 98.3706 100.178 94.7918 106.377C91.213 112.576 95.5856 121.8 104.558 126.981C113.531 132.161 123.706 131.336 127.285 125.137Z" fill="#F6FAFE"/>
<path d="M138.76 133.8C143.234 133.8 146.86 130.173 146.86 125.7C146.86 121.226 143.234 117.6 138.76 117.6C134.287 117.6 130.66 121.226 130.66 125.7C130.66 130.173 134.287 133.8 138.76 133.8Z" fill="#F6FAFE"/>
</g>
<defs>
<clipPath id="clip0_4780_416">
<rect width="427.74" height="412.4" fill="white"/>
</clipPath>
</defs>
</svg>
