<svg width="503" height="503" viewBox="0 0 503 503" fill="none" xmlns="http://www.w3.org/2000/svg">
<g clip-path="url(#clip0_6240_394)">
<path d="M251.13 502.261C218.139 502.352 185.458 495.898 154.978 483.273C124.498 470.648 96.8248 452.103 73.5604 428.711C50.1704 405.444 31.6279 377.768 19.0064 347.287C6.38491 316.805 -0.0649463 284.122 0.0303374 251.131C-0.0607984 218.139 6.39385 185.457 19.0206 154.976C31.6473 124.496 50.1953 96.8236 73.5904 73.561C96.853 50.1659 124.526 31.6179 155.006 18.9912C185.486 6.36447 218.168 -0.0901794 251.16 0.000956356C284.154 -0.0903982 316.838 6.364 347.32 18.9907C377.802 31.6174 405.476 50.1656 428.74 73.561C452.132 96.8254 470.678 124.499 483.302 154.979C495.927 185.458 502.381 218.14 502.29 251.131C502.381 284.123 495.927 316.806 483.302 347.288C470.677 377.769 452.132 405.444 428.74 428.711C405.47 452.106 377.79 470.653 347.303 483.278C316.816 495.903 284.128 502.355 251.13 502.261Z" fill="#231F20"/>
<path d="M251.13 487.26C381.541 487.26 487.26 381.541 487.26 251.13C487.26 120.719 381.541 15 251.13 15C120.719 15 15 120.719 15 251.13C15 381.541 120.719 487.26 251.13 487.26Z" fill="#F1A2B1"/>
<path d="M251.13 487.26C381.541 487.26 487.26 381.541 487.26 251.13C487.26 120.719 381.541 15 251.13 15C120.719 15 15 120.719 15 251.13C15 381.541 120.719 487.26 251.13 487.26Z" fill="#D5DAEF"/>
<path d="M364.57 44C383.653 78.7609 393.629 117.785 393.57 157.44C393.57 287.85 287.85 393.57 157.44 393.57C117.786 393.629 78.7609 383.653 44 364.57C64.3423 401.722 94.3061 432.717 130.75 454.304C167.193 475.89 208.773 487.273 251.13 487.26C381.54 487.26 487.26 381.54 487.26 251.13C487.274 208.773 475.89 167.193 454.304 130.75C432.717 94.3061 401.722 64.3423 364.57 44Z" fill="#B5C1E3"/>
<path opacity="0.5" d="M389.859 60.0508C418.864 100.212 434.436 148.511 434.349 198.051C434.349 328.461 328.629 434.181 198.219 434.181C148.387 434.265 99.8189 418.506 59.5293 389.181C81.3853 419.57 110.162 444.318 143.479 461.38C176.797 478.442 213.697 487.327 251.129 487.301C381.539 487.301 487.259 381.581 487.259 251.171C487.295 213.882 478.485 177.116 461.553 143.892C444.622 110.669 420.051 81.9352 389.859 60.0508Z" fill="#A2B4DD"/>
<path d="M378.61 251.859C378.61 251.859 353.53 215.86 308.09 222.08" stroke="#231F20" stroke-width="13.86" stroke-miterlimit="10" stroke-linecap="round"/>
<path d="M123.66 251.859C123.66 251.859 148.73 215.86 194.18 222.08" stroke="#231F20" stroke-width="13.86" stroke-miterlimit="10" stroke-linecap="round"/>
<path d="M288.42 336.461C288.42 336.461 276.64 348.231 251.13 348.231C225.62 348.231 213.85 336.461 213.85 336.461" stroke="#231F20" stroke-width="13.86" stroke-miterlimit="10" stroke-linecap="round"/>
</g>
<defs>
<clipPath id="clip0_6240_394">
<rect width="502.26" height="502.26" fill="white"/>
</clipPath>
</defs>
</svg>
