<svg width="782" height="964" viewBox="0 0 782 964" fill="none" xmlns="http://www.w3.org/2000/svg">
<g clip-path="url(#clip0_4838_2007)">
<path d="M377.11 963.901C489.677 963.901 580.93 941.783 580.93 914.501C580.93 887.218 489.677 865.101 377.11 865.101C264.543 865.101 173.29 887.218 173.29 914.501C173.29 941.783 264.543 963.901 377.11 963.901Z" fill="#A7A9AC"/>
<path d="M775.25 374.44C772.55 372.44 747.97 354.66 715.58 354.66C711.063 354.655 706.552 355.007 702.09 355.71C706.53 344.59 708.72 331.43 708.59 316.46C708.35 286.7 694.11 267.93 679.36 257.34L679.99 256.99C680.79 256.53 681.6 256.07 682.4 255.59L682.91 255.28L685.01 254.01L685.93 253.42L687.51 252.42L688.58 251.71L690.03 250.71L691.17 249.92L692.58 248.92L693.7 248.11L695.14 247.02L696.14 246.21L697.68 244.99L697.91 244.81L698.63 244.22C699.42 243.57 700.2 242.91 700.98 242.22L701.53 241.73C702.18 241.16 702.82 240.59 703.47 239.99L704.35 239.15C704.85 238.69 705.35 238.22 705.85 237.72C706.13 237.45 706.85 236.72 706.85 236.72L708.19 235.35C708.52 235 708.86 234.65 709.19 234.27C709.52 233.89 710.05 233.34 710.48 232.86C710.91 232.38 711.14 232.13 711.48 231.76C711.82 231.39 712.35 230.76 712.74 230.27L712.85 230.15L713.69 229.15C714.14 228.59 714.58 228.02 715.05 227.42L715.25 227.17C715.43 226.94 715.62 226.7 715.82 226.43C716.51 225.52 717.18 224.6 717.82 223.72C717.97 223.51 718.11 223.29 718.25 223.08C718.78 222.31 719.3 221.54 719.81 220.76C720.01 220.45 720.2 220.14 720.39 219.83L720.54 219.6C720.93 218.97 721.32 218.35 721.68 217.74C721.91 217.35 722.13 216.96 722.35 216.57L722.45 216.4L723.45 214.56L724.18 213.17C724.5 212.55 724.81 211.93 725.18 211.27C725.4 210.81 725.63 210.34 725.86 209.84C726.09 209.34 726.45 208.54 726.75 207.84L726.86 207.58C727.03 207.19 727.2 206.81 727.37 206.41C727.68 205.67 727.97 204.92 728.25 204.19L728.37 203.91C728.5 203.58 728.63 203.25 728.75 202.91C729.2 201.71 729.61 200.51 729.99 199.36C730.07 199.11 730.14 198.85 730.24 198.52C730.54 197.52 730.83 196.6 731.09 195.66C731.2 195.27 731.3 194.88 731.4 194.48L731.47 194.2C731.68 193.4 731.88 192.61 732.06 191.83C732.17 191.36 732.27 190.88 732.37 190.4L732.42 190.18C732.58 189.42 732.74 188.66 732.88 187.89C732.99 187.31 733.09 186.73 733.18 186.17C733.31 185.39 733.43 184.61 733.54 183.85C733.63 183.26 733.71 182.68 733.78 182.1C733.88 181.28 733.97 180.45 734.05 179.66V179.39C734.05 178.9 734.14 178.39 734.18 177.91C734.26 177.01 734.31 176.09 734.36 175.19V174.83C734.36 174.45 734.36 174.08 734.43 173.69C734.48 172.25 734.51 170.82 734.51 169.45C734.359 155.731 732.102 142.115 727.82 129.08C726.858 126.042 724.953 123.39 722.382 121.507C719.81 119.625 716.707 118.61 713.52 118.61C710.32 118.61 687.79 121.54 665 134.5C648 144.15 628.19 160.97 618.25 189.36L617.92 189.09C616.47 187.88 614.92 186.7 613.52 185.62L613.23 185.41C612.5 184.86 611.75 184.32 611.03 183.81L610.68 183.57C609.92 183.04 609.15 182.51 608.38 182.01L608.17 181.87C606.52 180.79 604.84 179.74 603.17 178.77L602.91 178.62C602.08 178.14 601.25 177.68 600.33 177.19L600.05 177.04C599.19 176.58 598.33 176.14 597.44 175.7L597.23 175.6C595.39 174.7 593.51 173.85 591.61 173.06L591.33 172.95C590.42 172.58 589.49 172.22 588.53 171.86L588.16 171.72C587.22 171.38 586.27 171.04 585.22 170.72L585.04 170.66C583.04 170 580.95 169.41 578.96 168.91L578.52 168.8C577.52 168.56 576.52 168.33 575.52 168.13L575.07 168.03C574.07 167.82 572.99 167.63 571.97 167.46L571.64 167.4C569.45 167.05 567.21 166.76 564.93 166.56H564.59C563.51 166.47 562.42 166.4 561.37 166.35H560.85C559.74 166.35 558.64 166.27 557.52 166.26H556.82C554.6 166.26 552.35 166.34 550.12 166.5L550.67 165.64C558.57 153.28 564.55 138.47 568.42 121.64C569.195 118.277 568.786 114.75 567.263 111.653C565.74 108.557 563.196 106.08 560.06 104.64C543.107 97.5322 524.922 93.8285 506.54 93.7403C483.84 93.7403 463.37 99.7403 445.69 111.6C431.23 121.29 418.91 134.78 408.87 151.87C408.01 150.14 407.13 148.41 406.25 146.69L406.39 146.44C406.77 145.8 407.14 145.15 407.55 144.44L404.05 142.44L403.98 142.3L407.61 144.3C408.4 142.9 409.17 141.48 409.86 140.16L410.01 139.86L411.01 137.81L411.18 137.46C411.54 136.73 411.89 136.01 412.24 135.27L412.34 135.07C413.06 133.54 413.78 131.96 414.49 130.3L414.56 130.13C414.89 129.36 415.21 128.59 415.56 127.8L415.69 127.5C416 126.71 416.32 125.91 416.61 125.15L416.7 124.89C417.34 123.2 417.95 121.49 418.51 119.8C418.51 119.75 418.59 119.55 418.6 119.52C418.88 118.69 419.14 117.85 419.4 117L419.5 116.67C419.76 115.81 420.01 114.94 420.23 114.13L420.31 113.85C420.803 112.05 421.26 110.2 421.68 108.3L421.74 108.06C421.93 107.17 422.12 106.27 422.29 105.36L422.36 104.99C422.53 104.08 422.7 103.16 422.85 102.24C422.85 102.24 422.85 102.01 422.85 101.99C423.16 100.05 423.42 98.0903 423.62 96.1503V95.8402C423.71 94.8402 423.79 93.9203 423.85 93.0203V92.6003C423.91 91.6003 423.97 90.6003 424 89.6603C424 89.6603 424 89.4502 424 89.4202C424.06 87.3603 424.06 85.3003 424 83.2403V82.9503C424 81.9503 423.91 80.9503 423.84 79.9503V79.5403C423.767 78.5269 423.677 77.5269 423.57 76.5403V76.2603C423.343 74.1536 423.033 72.0236 422.64 69.8703V69.5703C422.45 68.5703 422.25 67.5703 422.03 66.5703C422.03 66.5703 421.93 66.1403 421.92 66.1103C421.69 65.1103 421.44 64.1102 421.17 63.0302L421.07 62.6802C420.5 60.5502 419.85 58.4103 419.07 56.3003L418.95 55.9602C418.59 54.9602 418.21 53.9602 417.79 52.8602L417.63 52.4602C417.22 51.4602 416.79 50.3903 416.31 49.3103L416.21 49.0702C415.26 46.9502 414.21 44.8003 413.08 42.7003L412.87 42.3103C412.33 41.3103 411.76 40.3103 411.18 39.3103C411.07 39.1403 410.98 38.9703 410.9 38.8403C410.3 37.8403 409.67 36.8403 409 35.7703L408.83 35.5203C401.32 23.9203 390.96 13.0403 378.06 3.16025C375.43 1.14972 372.21 0.0654 368.9 0.0762526C365.59 0.0871051 362.376 1.19251 359.76 3.22025C357 5.35025 343.61 18.0403 333.25 36.7403C324.39 52.7403 319.69 69.3803 319.25 85.9903L318.06 85.5003C317.14 85.1203 316.21 84.7603 315.26 84.4103L314.9 84.2803C313.95 83.9303 312.99 83.5902 311.97 83.2803L311.76 83.2103C309.76 82.5502 307.67 81.9603 305.68 81.4603L305.26 81.3603C304.26 81.1103 303.26 80.8802 302.26 80.6803L301.76 80.5803C300.76 80.3703 299.69 80.1702 298.68 80.0003H298.35C296.16 79.6403 293.93 79.3603 291.7 79.1603H291.31C290.22 79.0703 289.13 79.0003 288.07 78.9503H287.56C286.45 78.9503 285.34 78.8703 284.27 78.8603H283.49C281.29 78.8603 279.04 78.9403 276.79 79.1003H276.37C275.23 79.1803 274.08 79.2903 272.95 79.4103L272.41 79.4703C271.24 79.6003 270.06 79.7603 268.84 79.9403L268.53 79.9903C254.87 82.0703 240.69 86.9902 226.38 94.7503C223.341 96.3867 220.96 99.0211 219.637 102.209C218.315 105.397 218.132 108.943 219.12 112.25C222.756 123.301 227.894 133.799 234.39 143.45C230.41 151 227.525 159.078 225.82 167.44L225.66 167.34C224.84 166.87 224.01 166.41 223.15 165.95L222.82 165.77C221.96 165.32 221.09 164.87 220.28 164.47L219.99 164.33C218.17 163.43 216.29 162.59 214.41 161.81H214.3L214.07 161.72C213.15 161.34 212.23 160.99 211.23 160.61L210.9 160.49C209.96 160.15 209 159.81 208.09 159.49L207.77 159.39C205.77 158.73 203.68 158.14 201.72 157.65L201.25 157.53C200.25 157.29 199.25 157.06 198.18 156.84L197.81 156.76C196.81 156.55 195.73 156.36 194.7 156.19L194.39 156.14C192.2 155.78 189.96 155.49 187.73 155.3H187.35C186.27 155.21 185.18 155.14 184.02 155.08H182.89C180.71 153.62 178.45 152.2 176.16 150.84C173.165 149.056 169.642 148.37 166.197 148.901C162.751 149.432 159.598 151.147 157.28 153.75C156.71 154.39 155.28 156 153.37 158.49C142.596 161.394 132.207 165.57 122.42 170.93C120.036 172.216 118.045 174.123 116.658 176.448C115.27 178.774 114.539 181.432 114.54 184.14C114.54 185.71 114.54 188.34 119.09 198.78C121.678 204.71 124.685 210.448 128.09 215.95C125.632 231.901 127.143 248.212 132.49 263.44C129.719 263.16 126.935 263.02 124.15 263.02C82.79 263.02 54.42 293.73 54.15 294.02C51.9205 296.54 50.6028 299.736 50.4087 303.095C50.2147 306.454 51.1555 309.781 53.08 312.54C59.5851 322.097 67.5173 330.599 76.6 337.75C77.53 338.46 78.48 339.16 79.5 339.88L80.36 340.46L80.53 340.58C81.19 341.03 81.85 341.48 82.53 341.9L83.53 342.51C83.6978 358.772 88.0584 374.716 96.19 388.8C70.08 389.67 45.65 400.66 25.36 420.73C15.8372 430.015 7.7998 440.711 1.52999 452.44C0.0209647 455.524 -0.384287 459.033 0.381933 462.38C1.14815 465.727 3.03945 468.71 5.73998 470.83C18.67 480.98 31.93 488.37 45.17 492.83L45.5 492.94C46.66 493.32 47.8 493.68 48.93 494.01L49.44 494.16C50.58 494.48 51.71 494.79 52.9 495.09L53.26 495.17C55.58 495.75 57.94 496.23 60.34 496.64H60.59C61.71 496.83 62.82 496.99 64.01 497.14L64.44 497.2C65.53 497.33 66.63 497.45 67.69 497.54H68.1C70.37 497.73 72.65 497.84 74.85 497.86H75.7C76.6 497.86 77.49 497.86 78.41 497.86H78.82C79.88 497.86 80.93 497.77 81.92 497.7H82.33C84.47 497.54 86.63 497.31 88.75 497H89.03C90.03 496.85 91.03 496.68 92.12 496.49L92.47 496.43C93.47 496.24 94.47 496.04 95.35 495.84L95.74 495.76C96.86 495.51 97.99 495.23 99.11 494.94C99.23 497.94 99.44 500.8 99.74 503.62C77.09 520.22 66 544.48 64.64 549.14C63.7386 552.233 63.8568 555.534 64.977 558.554C66.0972 561.574 68.1599 564.153 70.86 565.91C80.48 572.331 91.0299 577.235 102.14 580.45C103.26 580.76 104.43 581.06 105.6 581.33L106.6 581.55L106.84 581.6C107.61 581.77 108.38 581.94 109.12 582.08L110.31 582.29L110.6 582.34L112.6 582.67L114.1 582.88L116.1 583.11L117.57 583.25L119.57 583.4H119.77L120.99 583.47C121.68 583.47 122.37 583.47 123.06 583.47H124.34C125.23 583.47 126.11 583.47 126.94 583.47H127.63C128.63 583.42 129.75 583.36 130.8 583.27L131.8 583.17H132C132.68 583.1 133.37 583.03 134 582.94L135.14 582.79H135.31C135.93 582.7 136.55 582.61 137.13 582.51L138.49 582.27L140.23 581.92L141.53 581.64L143.27 581.22H143.39L144.54 580.92L146.33 580.41L146.54 580.34L147.46 580.07C148.22 579.83 148.96 579.58 149.66 579.34L150.3 579.13C151.22 578.8 152.12 578.46 153.05 578.13L153.84 577.81L154.02 577.73C154.59 577.5 155.17 577.26 155.74 577.01L156.74 576.57L156.89 576.51L158.41 575.8L159.55 575.24L160.96 574.53L162.07 573.94L163.52 573.15L164.52 572.56L165.98 571.69L166.91 571.13C167.54 570.74 168.16 570.35 168.8 569.93L169.24 569.64C169.98 569.15 170.72 568.64 171.4 568.17L172.4 567.46L173.05 567.37L174.22 567.21L174.61 567.15C175.17 567.07 175.74 566.97 176.3 566.87L177.82 566.44L179.12 566.16L179.79 566L180.66 565.79L181.3 565.62C181.633 565.54 181.967 565.45 182.3 565.35L183 565.15L184.11 564.82L185.67 564.3L187.26 563.73L187.67 563.58L188.95 563.06C189.45 562.86 189.95 562.65 190.49 562.41L191.54 561.93C192.28 561.59 193.01 561.22 193.73 560.85L193.97 560.73L194.67 560.35C195.37 559.97 196.06 559.58 196.72 559.18L197.41 558.76C198.06 558.36 198.71 557.94 199.41 557.47L199.89 557.15L200.33 556.83C200.99 556.37 201.64 555.9 202.33 555.4L203.33 554.63C203.76 554.28 204.19 553.93 204.58 553.63C204.97 553.33 205.1 553.19 205.35 552.96L205.69 552.65C205.81 552.54 205.94 552.43 206.07 552.3C206.48 551.93 206.89 551.55 207.29 551.16L207.91 550.54L208.58 549.86L209.26 549.14L209.43 548.96L210.1 548.22C210.134 548.181 210.171 548.144 210.21 548.11C227.831 564.001 247.012 578.073 267.46 590.11C233.68 600.51 215.46 623.9 205.85 643.28C198.34 658.511 193.874 675.06 192.7 692C192.721 695.317 193.84 698.533 195.883 701.145C197.926 703.758 200.777 705.62 203.99 706.44C215.119 709.351 226.567 710.873 238.07 710.97C240.28 710.97 242.5 710.91 244.69 710.78C246.06 710.7 247.48 710.59 248.9 710.44L250.04 710.32H250.39C251.32 710.22 252.23 710.11 253.12 709.98C253.58 709.92 254.03 709.85 254.48 709.77H254.81C255.63 709.64 256.44 709.51 257.27 709.36L259 709.02L261.31 708.52L262.98 708.12C263.75 707.93 264.51 707.73 265.25 707.52L265.48 707.46L266.87 707.07C267.65 706.84 268.43 706.59 269.18 706.35L269.49 706.25L270.61 705.89C271.61 705.56 272.54 705.2 273.52 704.83C273.57 705.03 273.61 705.22 273.66 705.41C274.837 710.454 276.488 715.376 278.59 720.11C279.1 721.24 279.64 722.36 280.19 723.43C281.284 725.567 282.493 727.643 283.81 729.65C285.716 732.559 287.867 735.299 290.24 737.84C291.774 739.475 293.4 741.021 295.11 742.47C295.95 743.18 296.82 743.88 297.71 744.54C308.11 752.34 321.15 756.46 335.41 756.46H336.03C336.94 756.46 337.84 756.46 338.82 756.38H339.58C340.4 756.34 341.22 756.28 342.04 756.2L343.04 756.1C343.63 756.04 344.22 755.97 344.77 755.89L345.86 755.75L346.36 755.67L347.97 755.4L348.59 755.28L349.53 755.1L350.84 754.81L351.53 754.65C351.53 754.9 351.53 755.14 351.46 755.38C349.83 773.02 348.24 790.03 346.75 805.94L346.57 807.86L342.82 848.29C342.67 849.79 342.53 851.29 342.4 852.65C342.4 852.65 341.26 864.92 341.25 865.01C340.38 874.29 339.07 888.01 337.77 900.57L337.69 901.35C337.491 903.431 337.729 905.53 338.388 907.514C339.048 909.497 340.115 911.321 341.52 912.868C342.926 914.415 344.64 915.651 346.551 916.497C348.463 917.343 350.53 917.78 352.62 917.78H391.25C394.998 917.78 398.61 916.377 401.375 913.847C404.14 911.317 405.858 907.843 406.19 904.11V903.56C406.77 896.87 407.98 882.92 409.69 864.78L409.87 862.9C410.15 859.99 410.44 856.9 410.72 853.85L410.93 851.7C410.93 851.42 410.99 851.13 411.01 850.82L411.1 849.82L411.34 847.36L411.7 843.53C411.87 841.68 412.05 839.78 412.23 837.86C412.36 836.55 413.33 826.18 413.33 826.18C413.42 825.31 413.5 824.43 413.58 823.55L414.18 817.19C414.69 811.74 415.18 806.12 415.75 800.39C415.86 799.24 416.4 793.45 416.4 793.45C416.72 790.1 417.05 786.71 417.4 783.3L417.82 778.79C418.66 769.92 419.51 760.79 420.38 751.55L421.5 739.55C421.63 738.13 421.76 736.71 421.91 735.23L422.76 726.08C423.08 722.64 423.41 719.19 423.76 715.72L427.08 680.29C427.84 679.94 428.61 679.59 429.36 679.23C430.11 678.87 430.71 678.6 431.36 678.31C434.53 676.8 437.77 675.15 441.01 673.41L443.21 672.2L443.66 671.95C444.53 671.48 445.38 671 446.22 670.51C446.51 670.35 446.86 670.15 447.22 669.91L449.22 668.73C451.22 667.55 453.28 666.28 455.36 664.94C456.11 664.47 456.84 664 457.57 663.51L458.23 663.08C458.91 662.64 459.58 662.19 460.23 661.74C460.62 661.48 461.01 661.22 461.39 660.95C462.09 660.47 462.8 659.95 463.49 659.49C464.41 658.85 465.32 658.2 466.14 657.6C466.96 657 468.05 656.21 468.93 655.54C469.81 654.87 470.74 654.18 471.55 653.54L471.7 653.43C472.41 652.88 473.13 652.33 473.83 651.76C474.53 651.19 475.29 650.6 476.01 650C476.73 649.4 477.41 648.86 478.1 648.27L479.39 647.19C480.95 645.87 482.57 644.44 484.22 642.95L484.56 642.64C485.16 642.1 485.76 641.54 486.36 640.98C486.6 640.77 486.84 640.54 487.07 640.31C487.78 639.65 488.49 638.98 489.17 638.31C489.85 637.64 490.67 636.86 491.4 636.13C491.55 635.98 491.71 635.83 491.86 635.67C492.99 634.54 494.11 633.41 495.14 632.33C496.42 631 497.59 629.75 498.66 628.56C499.35 627.8 500.04 627.05 500.66 626.33C501.28 625.61 501.99 624.83 502.66 624.07C502.89 623.83 503.1 623.58 503.3 623.33L505.06 621.25C506.52 619.51 507.97 617.72 509.32 615.98C509.82 615.35 510.32 614.71 510.79 614.08L510.88 613.97L511.45 613.22L512.14 612.3C512.51 611.81 512.88 611.3 513.24 610.81C514.1 609.67 514.93 608.51 515.74 607.36C517.55 604.81 519.31 602.19 520.96 599.65C521.59 598.65 522.21 597.71 522.85 596.65L522.96 596.48C523.51 595.59 524.07 594.69 524.61 593.78C525.06 593.05 525.5 592.31 525.94 591.57L526.29 590.97C526.6 590.46 526.94 589.89 527.29 589.29C527.57 589.69 528.24 590.6 528.29 590.64C529.14 591.8 530.02 592.97 530.98 594.22L531.08 594.35C531.52 594.92 531.97 595.49 532.48 596.12L532.64 596.32C533.1 596.9 533.56 597.47 534.04 598.05L534.19 598.23C535.19 599.46 536.26 600.69 537.31 601.89L537.46 602.06L539.1 603.89L539.28 604.09C539.82 604.67 540.35 605.25 540.9 605.83L541.1 606.03C542.25 607.25 543.45 608.47 544.67 609.67L544.86 609.85C545.46 610.44 546.07 611.02 546.71 611.63L546.94 611.84C547.56 612.42 548.19 613 548.83 613.57L549 613.72C550.33 614.92 551.71 616.1 553.07 617.23L553.33 617.44L555.33 619.08L555.62 619.3C556.33 619.86 557.05 620.4 557.77 620.94L557.96 621.08C559.49 622.21 561.05 623.31 562.63 624.36L562.83 624.49C563.59 625 564.37 625.49 565.15 625.98L565.47 626.18L567.84 627.62L568.08 627.75C569.77 628.75 571.52 629.69 573.25 630.57L573.52 630.71C574.37 631.14 575.23 631.56 576.18 632L576.47 632.13C577.34 632.54 578.23 632.94 579.12 633.32L579.41 633.44C581.26 634.22 583.16 634.96 585.13 635.65L585.39 635.74C586.33 636.07 587.27 636.38 588.17 636.65L588.63 636.8C589.63 637.09 590.56 637.37 591.53 637.63L591.81 637.71C593.81 638.25 595.92 638.71 597.98 639.12L598.43 639.21C599.43 639.4 600.43 639.57 601.43 639.72L601.89 639.79C602.89 639.95 603.99 640.09 605.05 640.2H605.32C607.52 640.44 609.78 640.6 612.06 640.68H612.4C613.31 640.68 614.23 640.68 615.15 640.68H616.15C617.25 640.68 618.36 640.68 619.49 640.58H619.8C622.13 640.47 624.51 640.26 626.88 639.96H627.31C628.45 639.82 629.59 639.65 630.68 639.47L631.24 639.37C632.4 639.18 633.57 638.96 634.76 638.72L635.1 638.64C648.62 635.82 662.51 630.09 676.38 621.64C679.281 619.876 681.498 617.179 682.668 613.991C683.838 610.803 683.892 607.313 682.82 604.09C677.547 590.506 669.999 577.92 660.5 566.87C656.708 562.405 652.59 558.227 648.18 554.37C649.06 554.37 649.95 554.37 650.9 554.3H651.67C652.49 554.25 653.31 554.19 654.21 554.11L655.15 554.01L656.89 553.81L657.64 553.71L658.4 553.59L660.2 553.29L661.64 553.01L662.94 552.73L663.54 552.59L664.49 552.36L665.13 552.19L666.13 551.92L666.78 551.73L668.03 551.36L669.5 550.87C670.03 550.69 670.55 550.5 671.07 550.3L671.59 550.11L672.73 549.65L674.25 549L675.32 548.52C676.06 548.17 676.79 547.81 677.58 547.4L677.84 547.27L678.5 546.91C679.19 546.53 679.88 546.14 680.5 545.76L681.19 545.34C681.84 544.94 682.49 544.52 683.19 544.04L683.69 543.71L684.08 543.43C684.75 542.96 685.41 542.43 686.08 541.97L686.46 541.66L687.01 541.22C687.45 540.87 687.89 540.5 688.3 540.15C688.55 539.94 688.8 539.73 689.1 539.46L689.47 539.13L689.78 538.84L691.07 537.63L691.65 537.05L692.38 536.31L693.05 535.59L693.26 535.37L693.88 534.69L694.38 534.12L695.06 533.33L695.59 532.69L696.13 532.01C696.13 532.01 697.05 530.85 697.13 530.72L697.43 530.3L697.62 530.04C697.79 529.82 697.95 529.6 698.11 529.37C698.64 528.63 699.11 527.87 699.65 527.09C699.82 526.83 700.26 526.09 700.26 526.09C700.64 525.48 701.01 524.85 701.39 524.19C701.39 524.19 701.78 523.52 701.94 523.19C702.27 522.59 702.6 521.98 702.94 521.36C703.05 521.15 703.15 520.95 703.24 520.74C709.33 508.56 712.35 493.52 712.24 476.01C712.215 466.208 710.377 456.495 706.82 447.36L707.56 447.31L709.16 447.18L710.38 447.06L712.04 446.86L713.29 446.7L715.12 446.42L716.19 446.24C717.14 446.07 718.1 445.89 719.05 445.68L719.67 445.54L721.97 445L722.86 444.76L723.08 444.7C723.69 444.54 724.29 444.37 724.89 444.19L725.89 443.88L726.1 443.81L727.77 443.27L729.07 442.81L730.76 442.19L732 441.7C732.57 441.47 733.14 441.23 733.73 440.97L733.94 440.88L734.94 440.44C735.57 440.16 736.19 439.86 736.78 439.57L736.96 439.48C737.27 439.34 737.59 439.18 737.84 439.05C738.84 438.56 739.78 438.05 740.71 437.53L741.27 437.2C742.02 436.78 742.76 436.34 743.54 435.86C743.83 435.69 744.11 435.5 744.39 435.32L744.59 435.19L746.38 434.02C746.7 433.81 747.02 433.58 747.38 433.36L747.56 433.24L749.17 432.08C749.57 431.78 749.97 431.48 750.35 431.18C750.89 430.767 751.42 430.347 751.94 429.92C752.33 429.61 752.71 429.3 753.1 428.92C753.49 428.54 754.16 428.02 754.68 427.56L754.82 427.44C755.13 427.18 755.43 426.91 755.72 426.65L757.43 425.03L757.62 424.85L758.34 424.15C759.25 423.25 760.07 422.4 760.84 421.57C768.607 413.008 775.015 403.305 779.84 392.8C781.301 389.678 781.642 386.149 780.806 382.805C779.97 379.461 778.008 376.507 775.25 374.44ZM598 530.59C592.54 529.716 587.019 529.281 581.49 529.29C574.376 529.309 567.278 529.962 560.28 531.24H560.21C558.88 531.48 557.49 531.75 556 532.07L555.45 532.18C554.11 532.47 552.7 532.81 551.18 533.18C551.32 532.71 551.46 532.24 551.59 531.77C565.294 529.392 578.505 524.745 590.68 518.02C591.19 519.15 591.68 520.25 592.27 521.33C593.92 524.571 595.836 527.668 598 530.59ZM573.51 303.66C573.7 302.77 573.88 301.88 574.06 300.98L574.12 300.61C574.3 299.7 574.46 298.78 574.61 297.86V297.6C574.92 295.6 575.18 293.69 575.37 291.77C575.37 291.72 575.37 291.49 575.37 291.46C575.46 290.51 575.54 289.57 575.61 288.63V288.22C575.68 287.22 575.73 286.28 575.76 285.3V285.05C575.83 283.05 575.83 280.95 575.76 278.88C575.76 278.88 575.76 278.14 575.76 277.88C579.929 278.648 584.14 279.169 588.37 279.44C585.263 285.012 582.937 290.984 581.46 297.19C581.28 297.92 581.12 298.66 580.96 299.4C580.96 299.45 580.96 299.59 580.96 299.61C580.81 300.34 580.67 301.07 580.55 301.76C580.55 301.76 580.5 302.04 580.49 302.07C580.38 302.76 580.27 303.45 580.17 304.14L580.1 304.57C580.02 305.21 579.93 305.87 579.85 306.57V307C579.85 307 579.76 307.85 579.73 308.15L579.6 309.62C579.6 310 579.55 310.39 579.52 310.77L579.44 312.2C579.44 312.69 579.44 313.2 579.38 313.69V314.78C579.38 315.35 579.38 315.93 579.38 316.5C573.694 320.916 568.498 325.928 563.88 331.45L564.28 330.63C565.01 329.07 565.72 327.5 566.38 325.97L566.49 325.72C566.82 324.95 567.15 324.16 567.49 323.37L567.62 323.05C567.93 322.26 568.24 321.48 568.62 320.62V320.47C569.26 318.79 569.87 317.07 570.43 315.37L570.52 315.11C570.8 314.26 571.06 313.41 571.32 312.56L571.42 312.24C571.68 311.38 571.93 310.52 572.17 309.65L572.25 309.37C572.73 307.59 573.19 305.76 573.59 303.93C573.59 303.86 573.59 303.8 573.59 303.73V303.82C573.48 303.8 573.49 303.73 573.51 303.66ZM589.68 415.44C585.55 426.51 580.5 435.85 574.58 443.34C573.77 444.34 572.95 445.34 572.11 446.34C570.941 439.342 568.751 432.553 565.61 426.19C565.61 422.52 565.61 418.9 565.49 415.35L566.88 415.45L569.08 415.58L570.02 415.63L572.3 415.73H573.63H574.63H576.01H580.01H582.13H583.13L584.71 415.68L585.92 415.63L587.44 415.56L588.63 415.49L589.68 415.44ZM479.82 325.31C469.941 319.548 459.029 315.777 447.7 314.21C450 287.79 446.78 258.57 438.1 227.11C436.613 221.697 434.947 216.217 433.1 210.67L434.83 210.93C436.34 211.15 437.9 211.35 439.49 211.54H439.72L442.11 211.8H442.37L444.77 212.02H444.99C446.7 212.17 448.42 212.29 450.1 212.37H450.36L452.85 212.48H453.21L455.79 212.55H456.03H458.36C459.36 212.55 460.46 212.55 461.5 212.55H461.82L464.57 212.46H464.85C465.75 212.46 466.66 212.38 467.58 212.32H467.82C469.75 212.2 471.67 212.03 473.65 211.82H473.86C474.78 211.72 475.71 211.61 476.7 211.48L477.01 211.43C477.96 211.31 478.91 211.17 479.86 211.02H480.08C482.08 210.7 484.08 210.33 486.02 209.92L486.3 209.86L489.1 209.22L489.56 209.11C490.56 208.87 491.47 208.63 492.45 208.36H492.58L488.58 193.91L492.7 208.34C493.57 208.1 494.44 207.85 495.3 207.59C496.01 209.31 496.86 211.25 497.85 213.38C490.05 223.1 480.56 237.62 475.21 255.64C468.3 278.85 469.94 302.61 479.82 325.31ZM418.27 393.13L418.35 393.21L419.1 393.9L419.34 394.12L420.71 395.33C421.06 395.63 421.41 395.93 421.76 396.21C422.11 396.49 422.69 396.98 423.13 397.33L424.21 398.17C424.68 398.54 425.21 398.89 425.62 399.17L426.62 399.93C427.15 400.3 427.62 400.65 428.21 401.01L428.41 401.15L429.15 401.64C429.82 402.08 430.49 402.49 431.15 402.9L431.68 403.23C432.52 403.73 433.36 404.23 434.19 404.67L434.95 405.07L435.17 405.19L436.78 406.03L437.69 406.48L437.9 406.58L439.39 407.29L440.55 407.81C441.05 408.04 441.55 408.26 442.07 408.47L443.19 408.94L444.72 409.54L444.86 409.6L445.86 409.96L447.5 410.55L448.5 410.9L450.5 411.55L451.13 411.74C451.97 412 452.81 412.24 453.66 412.48L454.66 412.75L456.26 413.16L457.31 413.4L458.78 413.74L459.34 413.86C458.59 414.78 457.86 415.73 457.14 416.72C442.6 409.63 425.97 405.94 408.24 405.94H408L407.7 405.25C411.462 401.416 415.001 397.37 418.3 393.13H418.27ZM437.62 565.59C438.922 550.856 439.023 536.041 437.92 521.29L438.85 521.51L440.65 521.92L441.96 522.19L443.69 522.54L445.02 522.79L446.74 523.09L448.04 523.31L449.88 523.58L450.98 523.74C451.78 523.85 452.58 523.95 453.39 524.04L454.02 524.12L456.82 524.44L457.82 524.53L459.63 524.68L460.79 524.75L462.43 524.86L463.65 524.92L465.25 524.99H466.39H467.97H468.97C472.209 527.661 475.734 529.965 479.48 531.86C469.14 557.67 454.23 578.86 434.95 595.26C435.88 584.81 436.82 574.87 437.62 565.59ZM348.82 300.44H349.67C350.47 300.44 351.27 300.33 352.06 300.26L353.06 300.16L354.8 299.95L355.96 299.79L356.33 299.73L358.08 299.44L359.59 299.15L360.88 298.86L361.51 298.72L362.31 298.52L363.04 298.34L364.04 298.07L364.76 297.86L365.95 297.5L367.44 297.01L369.02 296.43L369.31 296.33L370.64 295.8L372.24 295.11L373.24 294.67C374 294.32 374.75 293.94 375.46 293.57L375.75 293.43L376.45 293.05C377.14 292.67 377.83 292.28 378.53 291.86L379.17 291.47L380 290.95C380.76 308.95 378.163 324.53 372.21 337.69C366.94 329.15 361.39 320.69 355.62 312.26C352.873 308.26 350.127 304.35 347.38 300.53L348.82 300.44ZM265.93 371.3L266.76 370.79C267.24 370.5 267.76 370.21 268.22 369.89L269.13 369.31L270.46 368.44L271.37 367.82L272.61 366.97L273.53 366.31C273.93 366.03 274.32 365.74 274.73 365.43C274.73 365.43 275.39 364.95 275.6 364.78L276.81 363.86L277.61 363.23L279.11 362.03L279.65 361.58C280.23 361.1 280.81 360.58 281.35 360.15L281.9 359.67L283.19 358.54L283.75 358.04L284.97 356.91L285.68 356.25L286.68 355.33L287.37 354.67L288.29 353.75L289 353.05L290.52 351.49L291.77 350.17L292.05 349.87C292.51 349.38 292.95 348.87 293.4 348.39L294.78 346.84L295.73 345.74C297.1 347.69 298.44 349.63 299.73 351.57C306.73 361.77 313.91 372.98 320.91 384.98C319.31 383.19 317.64 381.4 315.91 379.63C313.496 377.165 310.307 375.607 306.879 375.219C303.451 374.831 299.993 375.637 297.09 377.5C288.482 383.371 280.635 390.287 273.73 398.09C270.886 389.379 267.602 380.818 263.89 372.44C264.56 372.09 265.22 371.7 265.9 371.3H265.93ZM326.66 543.63C325.51 543.15 324.38 542.63 323.23 542.13L323 542.02C321.9 541.53 320.79 541.02 319.76 540.54L319.17 540.27L316.03 538.75L313.16 537.31C314.01 536.42 314.88 535.49 315.76 534.53L315.91 534.37C316.35 533.89 316.79 533.37 317.2 532.93L317.42 532.69L318.79 531.13L318.91 530.99C319.85 529.9 320.8 528.78 321.79 527.56L321.89 527.44L323.27 525.73L323.46 525.48C323.93 524.9 324.39 524.31 324.83 523.74L324.98 523.54C325.98 522.29 326.9 520.99 327.89 519.61L327.99 519.47C328.45 518.83 328.91 518.18 329.36 517.53L329.54 517.27C330 516.61 330.45 515.94 330.89 515.27L331.03 515.06C332.03 513.62 332.91 512.16 333.79 510.73L333.93 510.5C334.36 509.79 334.8 509.07 335.27 508.25L335.39 508.05C335.81 507.32 336.24 506.57 336.7 505.74L336.77 505.62C337.64 504.03 338.49 502.42 339.29 500.82L339.41 500.57C339.8 499.79 340.18 498.99 340.56 498.18L340.71 497.87C341.08 497.07 341.45 496.26 341.81 495.44L341.88 495.28V495.19C342.63 493.46 343.34 491.71 344 489.97L344.11 489.69C344.43 488.83 344.74 487.96 345.11 487.04L345.22 486.72C345.52 485.84 345.81 484.96 346.09 484.06L346.16 483.83C346.75 481.95 347.28 480.05 347.77 478.09L347.83 477.85C348.05 476.93 348.27 476 348.47 475.04L348.55 474.67C348.75 473.67 348.94 472.77 349.11 471.84V471.57C349.47 469.57 349.77 467.51 350 465.43V465.18C350.1 464.18 350.19 463.18 350.27 462.18V461.78C350.34 460.78 350.4 459.78 350.44 458.73V458.44C350.52 456.32 350.52 454.174 350.44 452V451.69C350.44 450.69 350.34 449.63 350.26 448.63V448.14C350.18 447.09 350.08 446.04 349.97 445.07C349.97 445.07 349.87 444.22 349.84 443.98C363.84 479.41 372.66 517.98 369.84 556.45L368.84 556.26H368.72C366.72 555.9 364.95 555.56 363.24 555.2L362.05 554.94L360.23 554.54L358.99 554.25L358.69 554.18C357.82 553.98 356.96 553.77 356.1 553.55H355.94L354.77 553.25L354.36 553.14L353.61 552.94L353.06 552.8L351.95 552.5L351.61 552.4C350.83 552.19 350.06 551.97 349.28 551.74L349.07 551.68C348.56 551.54 348.07 551.39 347.57 551.23L347.38 551.17L344.72 550.36L341.72 549.36C341.33 549.23 340.94 549.1 340.55 548.95L340.33 548.88C339.4 548.56 338.47 548.24 337.58 547.88H337.46C336.36 547.48 335.26 547.08 334.15 546.66L333.86 546.54L330.86 545.36L329.86 544.93C328.71 544.5 327.68 544.08 326.63 543.63H326.66ZM219.74 292.34V292.27C219.74 292.27 219.81 292.12 219.84 292.06C220.14 291.4 220.43 290.74 220.73 290.06C220.73 290.06 220.84 289.79 220.86 289.76C221.16 289.07 221.45 288.38 221.75 287.68L221.82 287.5C222.42 286.07 223.02 284.57 223.61 283.03L223.69 282.8C223.98 282.06 224.25 281.31 224.51 280.58L224.62 280.28C224.9 279.52 225.16 278.75 225.43 277.98L225.5 277.77C226.05 276.14 226.58 274.49 227.07 272.85L227.13 272.62C227.37 271.82 227.6 271.02 227.85 270.11L227.92 269.85C228.09 269.23 228.26 268.61 228.42 267.99C229.36 267.91 230.31 267.82 231.25 267.72C236.6 273.27 243.34 280.49 250.93 289.13C248.53 288.93 246.14 288.84 243.78 288.84C235.639 288.83 227.54 290.01 219.74 292.34ZM215.16 446.24C209.828 438.881 203.087 432.654 195.33 427.92C190.83 421.41 187.1 415.63 184.22 410.98L184.41 410.26L184.94 408.17L185.46 405.96L185.96 403.73C186.12 403.01 186.27 402.28 186.42 401.53L186.51 401.07C186.64 400.41 186.77 399.73 186.9 399.07C186.9 399.07 187.24 397.18 187.33 396.63L187.49 395.63C187.58 395.13 187.66 394.63 187.73 394.15L187.89 393.05C187.96 392.55 188.03 392.05 188.09 391.56C188.15 391.07 188.19 390.79 188.24 390.43C188.29 390.07 188.36 389.43 188.43 388.83L188.54 387.77C188.6 387.25 188.65 386.77 188.7 386.2L188.81 385.06C188.88 384.18 188.95 383.29 189 382.45V381.83C189 381.07 189.09 380.3 189.13 379.51V378.45C189.13 377.86 189.13 377.28 189.18 376.68V376.4C200.28 395.35 211.26 419.79 215.16 446.24Z" fill="#231F20"/>
<path d="M657.54 421.18C657.54 421.18 654.17 413.83 646.94 413.89C639.71 413.95 636.47 421.36 636.47 421.36C636.47 421.36 597.41 431.16 597.79 477.04C598.17 522.92 621.94 539.59 647.99 539.38C674.04 539.17 697.52 522.1 697.14 476.22C696.76 430.34 657.54 421.18 657.54 421.18Z" fill="#3A793A"/>
<path d="M655.91 426.781C655.91 426.781 653.07 420.601 647 420.651C640.93 420.701 638.2 426.931 638.2 426.931C638.2 426.931 605.37 435.171 605.69 473.731C606.01 512.291 625.99 526.301 647.88 526.121C669.77 525.941 689.51 511.601 689.19 473.041C688.87 434.481 655.91 426.781 655.91 426.781Z" fill="#589F44"/>
<path d="M689.54 514.58L684.82 504.06C609.42 508.16 605.39 460.57 605.39 460.57L599.58 460.42C598.32 465.868 597.729 471.449 597.82 477.04C598.2 522.93 621.97 539.59 648.02 539.38C664.82 539.24 680.6 532.05 689.54 514.58Z" fill="#3A793A"/>
<g style="mix-blend-mode:multiply">
<path d="M685.06 521.78C604.96 525.85 598.43 467.86 598.36 467.19C597.944 470.457 597.754 473.748 597.79 477.04C598.17 522.93 621.94 539.59 647.99 539.38C662.29 539.26 675.82 534.05 685.06 521.78Z" fill="#4CA84E"/>
</g>
<path d="M656.6 454.14C654.15 446.92 661.8 440.22 669.12 443.24L669.61 443.45C681.45 448.61 685.36 469.45 684.71 479.3C684.06 489.15 674.02 490.85 667.3 479.45C663.09 472.3 659.04 461.34 656.6 454.14Z" fill="#8BC63F"/>
<path d="M628.098 479.669C629.359 478.527 628.899 475.965 627.07 473.948C625.242 471.93 622.738 471.22 621.478 472.363C620.217 473.505 620.677 476.066 622.506 478.084C624.334 480.102 626.838 480.811 628.098 479.669Z" fill="#8BC63F"/>
<path d="M667.36 452.052C670.521 449.444 670.461 444.152 667.227 440.234C663.993 436.315 658.809 435.252 655.649 437.86C652.488 440.469 652.547 445.76 655.781 449.679C659.015 453.598 664.199 454.66 667.36 452.052Z" fill="#F6FAFE"/>
<path d="M672.582 457.138C674.526 457.121 676.089 455.613 676.074 453.768C676.058 451.924 674.47 450.442 672.526 450.458C670.582 450.474 669.019 451.983 669.034 453.827C669.05 455.672 670.638 457.154 672.582 457.138Z" fill="#F6FAFE"/>
<path d="M330.82 625.88C330.82 625.83 331.93 621.42 330.29 614.28C328.75 607.62 324.46 597.16 312.68 585.16L317.54 580.38C342.94 606.26 337.63 626.8 337.39 627.67L330.82 625.85V625.88Z" fill="#63B446"/>
<path d="M345.46 623.19C345.46 623.19 342.09 615.83 334.86 615.89C327.63 615.95 324.39 623.36 324.39 623.36C324.39 623.36 285.33 633.17 285.71 679.05C286.09 724.93 309.87 741.6 335.91 741.38C361.95 741.16 385.44 724.11 385.06 678.22C384.68 632.33 345.46 623.19 345.46 623.19Z" fill="#3A793A"/>
<path d="M343.82 628.79C343.82 628.79 340.98 622.61 334.91 622.66C328.84 622.71 326.11 628.94 326.11 628.94C326.11 628.94 293.28 637.18 293.6 675.74C293.92 714.3 313.9 728.31 335.79 728.12C357.68 727.93 377.42 713.61 377.1 675.05C376.78 636.49 343.82 628.79 343.82 628.79Z" fill="#589F44"/>
<path d="M377.46 716.591L372.75 706.061C297.35 710.171 293.32 662.571 293.32 662.571L287.51 662.431C286.236 667.877 285.632 673.458 285.71 679.051C286.09 724.931 309.87 741.601 335.91 741.381C352.75 741.241 368.52 734.051 377.46 716.591Z" fill="#3A793A"/>
<g style="mix-blend-mode:multiply">
<path d="M372.98 723.79C292.88 727.86 286.35 669.88 286.28 669.21C285.864 672.476 285.673 675.767 285.71 679.06C286.09 724.94 309.87 741.61 335.91 741.39C350.21 741.26 363.75 736.06 372.98 723.79Z" fill="#4CA84E"/>
</g>
<path d="M344.52 656.141C342.07 648.931 349.72 642.231 357.04 645.251C357.2 645.321 357.37 645.381 357.53 645.461C369.37 650.621 373.28 671.461 372.63 681.311C371.98 691.161 361.94 692.861 355.22 681.451C351.02 674.311 346.96 663.341 344.52 656.141Z" fill="#8BC63F"/>
<path d="M315.997 681.677C317.258 680.535 316.797 677.973 314.969 675.956C313.141 673.938 310.637 673.228 309.376 674.37C308.116 675.513 308.576 678.074 310.404 680.092C312.233 682.109 314.736 682.819 315.997 681.677Z" fill="#8BC63F"/>
<path d="M355.265 654.047C358.426 651.439 358.366 646.148 355.132 642.229C351.898 638.31 346.714 637.247 343.554 639.855C340.393 642.464 340.452 647.755 343.686 651.674C346.92 655.593 352.104 656.655 355.265 654.047Z" fill="#F6FAFE"/>
<path d="M360.515 659.165C362.459 659.149 364.022 657.64 364.007 655.796C363.992 653.951 362.403 652.469 360.459 652.485C358.515 652.501 356.952 654.01 356.967 655.854C356.983 657.699 358.571 659.181 360.515 659.165Z" fill="#F6FAFE"/>
<path d="M340.82 170.011C340.82 170.011 341.93 165.561 340.29 158.421C338.76 151.751 334.46 141.291 322.69 129.291L327.55 124.521C352.94 150.391 347.64 170.941 347.4 171.801L340.82 169.991V170.011Z" fill="#63B446"/>
<path d="M355.45 167.321C355.45 167.321 352.08 159.971 344.85 160.031C337.62 160.091 334.37 167.501 334.37 167.501C334.37 167.501 295.31 177.301 295.7 223.191C296.09 269.081 319.85 285.731 345.89 285.521C371.93 285.311 395.43 268.241 395.05 222.361C394.67 176.481 355.45 167.321 355.45 167.321Z" fill="#3A793A"/>
<path d="M353.82 172.93C353.82 172.93 350.99 166.75 344.92 166.8C338.85 166.85 336.11 173.07 336.11 173.07C336.11 173.07 303.28 181.31 303.61 219.87C303.94 258.43 323.9 272.44 345.82 272.26C367.74 272.08 387.45 257.74 387.13 219.18C386.81 180.62 353.82 172.93 353.82 172.93Z" fill="#589F44"/>
<path d="M387.45 260.721L382.74 250.201C307.34 254.301 303.31 206.711 303.31 206.711L297.5 206.561C296.217 212.008 295.612 217.594 295.7 223.191C296.08 269.071 319.85 285.731 345.89 285.521C362.73 285.381 378.51 278.191 387.45 260.721Z" fill="#3A793A"/>
<g style="mix-blend-mode:multiply">
<path d="M382.97 267.92C302.86 271.99 296.33 214 296.26 213.33C295.853 216.6 295.666 219.895 295.7 223.19C296.08 269.07 319.85 285.73 345.89 285.52C360.2 285.44 373.74 280.19 382.97 267.92Z" fill="#4CA84E"/>
</g>
<path d="M354.5 200.28C352.05 193.06 359.7 186.36 367.03 189.38L367.52 189.59C379.35 194.76 383.26 215.59 382.61 225.44C381.96 235.29 371.92 237 365.21 225.59C361 218.44 356.95 207.44 354.5 200.28Z" fill="#8BC63F"/>
<path d="M326.001 225.782C327.261 224.639 326.801 222.078 324.973 220.06C323.145 218.042 320.641 217.333 319.38 218.475C318.12 219.617 318.58 222.179 320.408 224.196C322.236 226.214 324.74 226.924 326.001 225.782Z" fill="#8BC63F"/>
<path d="M365.419 195.994C368.575 193.372 368.496 188.074 365.245 184.162C361.993 180.249 356.799 179.204 353.643 181.826C350.488 184.449 350.566 189.747 353.818 193.659C357.07 197.572 362.264 198.617 365.419 195.994Z" fill="#F6FAFE"/>
<path d="M370.456 203.307C372.4 203.291 373.963 201.783 373.948 199.938C373.932 198.094 372.344 196.611 370.4 196.628C368.456 196.644 366.892 198.153 366.908 199.997C366.923 201.842 368.512 203.324 370.456 203.307Z" fill="#F6FAFE"/>
<path d="M616.47 476.44C597.1 501 571.32 515.08 539.75 518.37C539.17 520.66 538.55 522.93 537.92 525.18C534.538 537.179 530.307 548.922 525.26 560.32C524.81 561.32 524.36 562.32 523.9 563.32C522.53 566.32 521.09 569.24 519.62 572.12C519.12 573.12 518.62 574.05 518.12 575L516.59 577.84L515.02 580.65C514.51 581.58 513.97 582.5 513.42 583.42C512.87 584.34 512.33 585.26 511.78 586.16C511.23 587.06 510.67 587.97 510.12 588.86C509.57 589.75 508.99 590.66 508.41 591.54C506.81 594.014 505.17 596.437 503.49 598.81C502.74 599.88 501.97 600.95 501.18 602C500.68 602.69 500.18 603.38 499.65 604.06C499.46 604.31 499.27 604.57 499.06 604.83L497.52 606.83C496.23 608.48 494.91 610.13 493.52 611.74C492.91 612.47 492.28 613.2 491.66 613.92C491.602 614.001 491.539 614.078 491.47 614.15C490.81 614.92 490.13 615.69 489.47 616.44C488.81 617.19 488.2 617.86 487.56 618.57C486.5 619.737 485.42 620.89 484.32 622.03C483.32 623.12 482.22 624.19 481.15 625.27L480.92 625.49C480.21 626.2 479.49 626.9 478.76 627.61C478.03 628.32 477.36 628.94 476.66 629.61L476.2 630.06C475.55 630.66 474.91 631.25 474.26 631.82C474.245 631.851 474.22 631.875 474.19 631.89C472.683 633.257 471.153 634.59 469.6 635.89L468.48 636.83C467.82 637.38 467.16 637.93 466.48 638.46C465.8 638.99 465.14 639.57 464.48 640.11C463.82 640.65 463.09 641.21 462.39 641.75C461.69 642.29 460.75 643.01 459.92 643.63C459.09 644.25 458.26 644.88 457.42 645.48C456.58 646.08 455.73 646.69 454.88 647.29C454.19 647.78 453.5 648.29 452.8 648.73C452.51 648.94 452.21 649.14 451.91 649.34C451.21 649.81 450.51 650.28 449.8 650.73C449.697 650.814 449.587 650.888 449.47 650.95C448.763 651.43 448.043 651.9 447.31 652.36C445.44 653.56 443.54 654.74 441.61 655.87C440.89 656.3 440.19 656.71 439.48 657.11C439.25 657.26 439.03 657.39 438.8 657.51C437.96 658 437.11 658.51 436.26 658.95L436.13 659.01L433.82 660.25C430.82 661.83 427.88 663.36 424.82 664.81L422.95 665.7C422.09 666.11 421.21 666.51 420.33 666.9C420.3 666.907 420.269 666.907 420.24 666.9C419.07 667.43 417.9 667.9 416.71 668.45C416.677 668.476 416.64 668.497 416.6 668.51C415.38 669.04 414.17 669.51 412.94 670.06C412.72 672.334 412.507 674.604 412.3 676.87C411.22 688.44 410.13 700.07 409.05 711.62C408.637 716 408.23 720.357 407.83 724.69C407.543 727.744 407.26 730.784 406.98 733.81C406.83 735.27 406.7 736.72 406.57 738.18C405.31 751.58 404.08 764.71 402.89 777.35C402.75 778.86 402.61 780.35 402.47 781.86C402.123 785.58 401.79 789.247 401.47 792.86C401.28 794.86 401.09 796.86 400.9 798.86C400.16 806.86 399.43 814.53 398.74 821.86C398.66 822.78 398.57 823.69 398.48 824.6C398.23 827.23 397.98 829.83 397.75 832.37C397.63 833.7 397.5 835.01 397.38 836.31C397.193 838.264 397.013 840.177 396.84 842.05C396.72 843.31 396.6 844.55 396.49 845.76C396.38 846.97 396.26 848.2 396.15 849.38C396.15 849.58 396.15 849.78 396.09 849.98C396.02 850.75 395.94 851.53 395.87 852.29C395.52 856.13 395.17 859.78 394.87 863.23C392.71 886.23 391.36 902.1 391.31 902.65H352.62C352.67 902.12 354.02 889.38 356.18 866.28C356.18 866.17 356.18 866.05 356.18 865.93C356.3 864.67 356.41 863.39 356.54 862.08C356.78 859.46 357.03 856.73 357.3 853.92C357.42 852.51 357.56 851.09 357.7 849.63C358.52 840.88 359.41 831.31 360.36 821.11C360.56 818.944 360.766 816.747 360.98 814.52C361.1 813.12 361.24 811.72 361.37 810.32C361.47 809.22 361.58 808.11 361.67 806.99C363.15 791.18 364.74 774.16 366.38 756.52C366.59 754.34 366.79 752.14 367 749.93C367.13 748.5 367.27 747.07 367.4 745.64C367.4 745.46 367.4 745.3 367.4 745.14C367.59 743.14 367.78 741.14 367.97 739.07C368.16 737 368.35 735 368.53 732.97C368.524 732.861 368.524 732.75 368.53 732.64C368.897 728.64 369.267 724.64 369.64 720.64C369.64 720.24 369.71 719.84 369.75 719.46C370.01 716.76 370.26 714.064 370.5 711.37C370.5 711.13 370.5 710.89 370.57 710.66C371.03 705.734 371.487 700.807 371.94 695.88L372.21 692.99C372.48 689.99 372.76 687.1 373.03 684.16C373.16 682.68 373.31 681.22 373.44 679.75C373.57 678.28 373.71 676.81 373.85 675.35C374.12 672.42 374.38 669.49 374.66 666.57C374.9 663.984 375.137 661.41 375.37 658.85C375.56 656.85 375.75 654.77 375.94 652.75C376.13 650.73 376.32 648.75 376.5 646.69C377.5 636.04 378.5 625.59 379.39 615.43C379.51 614.05 379.64 612.69 379.76 611.34C346.89 608.34 314.6 598.45 283.51 581.74C253.9 565.81 225.37 543.74 198.71 516.1C153.71 469.5 129.58 423.32 128.59 421.37L145.59 412.57L162.59 403.74C162.82 404.17 185.59 447.6 226.96 490.2C227.3 490.56 227.65 490.92 227.96 491.26L228.88 492.19C247.26 400.93 162.46 315.11 161.55 314.19L188.55 287.04C189.71 288.19 217.17 315.76 239.85 357.75C270.57 414.63 277.76 471.05 260.67 520.97C261.82 521.88 262.97 522.79 264.12 523.68L264.32 523.83C277.168 533.8 290.891 542.589 305.32 550.09C306.58 550.75 307.84 551.38 309.12 552.01C310.23 552.55 311.35 553.1 312.47 553.63L313.11 553.93C314.28 554.47 315.45 555.02 316.62 555.54L316.77 555.61C318.04 556.18 319.29 556.73 320.56 557.27C321.64 557.73 322.74 558.18 323.83 558.62L324.83 559.05L328.13 560.34L328.37 560.44C329.61 560.91 330.84 561.36 332.08 561.81C333.08 562.18 334.13 562.55 335.16 562.9L336.61 563.39C337.67 563.75 338.75 564.1 339.83 564.45C340.91 564.8 341.83 565.06 342.77 565.35C343.41 565.55 344.05 565.74 344.7 565.92C345.6 566.19 346.48 566.45 347.39 566.69C347.98 566.86 348.58 567.02 349.17 567.17L350.4 567.49C350.96 567.65 351.5 567.78 352.05 567.92C353.05 568.17 354 568.4 354.98 568.63C355.62 568.79 356.25 568.93 356.87 569.07L358.11 569.35L359.81 569.72C361.81 570.134 363.783 570.514 365.73 570.86C366.39 570.99 367.05 571.1 367.73 571.21L370.51 571.65C371.1 571.75 371.7 571.84 372.3 571.92L373.49 572.09C374.13 572.18 374.78 572.28 375.42 572.35L378.32 572.7L379.79 572.87L383.14 573.19C383.53 568.9 383.91 564.72 384.28 560.62C391.65 478.84 348.96 397.08 311.84 342.91C270.84 283.02 227.26 242.56 226.54 241.91L252.54 213.69C254.43 215.44 299.42 257.07 343.02 320.53C353.553 335.804 363.04 350.954 371.48 365.98C436.36 293.2 346.92 149.48 345.95 147.98L378.34 127.44C379.55 129.35 408.15 174.83 423.67 231.1C444.13 305.25 432.41 363.97 389.83 401.79C394.497 411.897 398.693 421.937 402.42 431.91C419.62 478.12 426.42 522.63 422.68 564.24C421 582.96 419.09 603.81 417.07 625.7C471.52 595.78 502.94 541.17 510.54 462.95C517.22 394.18 502.22 332.43 502.06 331.82L539.26 322.56C539.95 325.3 555.89 390.46 548.8 465.61C548.7 466.69 548.6 467.75 548.48 468.82C548.14 471.97 547.77 475.08 547.37 478.17C563.11 474.26 575.94 465.84 586.37 452.69C639.21 385.75 610.37 227.85 610.01 226.26L647.69 219.16C649.02 226.33 680.09 395.73 616.47 476.44Z" fill="#D38D75"/>
<path d="M526.11 558.13C632.73 508.33 668.61 608.91 668.61 608.92C624.61 582.73 577.24 565.45 526.11 558.13Z" fill="#66BE64"/>
<path d="M668.61 608.92C574.08 666.69 526.11 558.13 526.11 558.13C577.24 565.44 624.61 582.73 668.61 608.92Z" fill="#4CA84E"/>
<g style="mix-blend-mode:multiply">
<path d="M635.26 623.34C554.26 589.5 562.87 546.01 562.87 546.01C550.144 548.443 537.787 552.517 526.11 558.13C526.11 558.13 562.82 641.18 635.26 623.34Z" fill="#4CA84E"/>
</g>
<path d="M630.1 259.8C607.28 144.36 713.53 133.61 713.54 133.61C677.54 170.06 649.45 211.91 630.1 259.8Z" fill="#66BE64"/>
<path d="M713.54 133.61C746.99 239.22 630.1 259.8 630.1 259.8C649.45 211.91 677.57 170.06 713.54 133.61Z" fill="#4CA84E"/>
<g style="mix-blend-mode:multiply">
<path d="M719.56 169.44C667.31 239.94 627.14 221.21 627.14 221.21C626.467 234.149 627.475 247.121 630.14 259.8C630.14 259.8 719.52 244.05 719.56 169.44Z" fill="#4CA84E"/>
</g>
<path d="M549.94 398.14C573.53 282.86 675.67 314.02 675.68 314.02C628.42 333.73 586.3 361.44 549.94 398.14Z" fill="#66BE64"/>
<path d="M675.68 314.021C665.68 424.351 549.94 398.141 549.94 398.141C586.3 361.441 628.42 333.731 675.68 314.021Z" fill="#4CA84E"/>
<g style="mix-blend-mode:multiply">
<path d="M667.37 349.44C591.93 394.26 562.13 361.44 562.13 361.44C556.495 373.108 552.397 385.458 549.94 398.18C549.94 398.18 638.49 418.19 667.37 349.44Z" fill="#4CA84E"/>
</g>
<path d="M524.82 361.93C439.91 280.46 520.76 210.7 520.77 210.7C512.22 261.19 513.2 311.6 524.82 361.93Z" fill="#66BE64"/>
<path d="M520.73 210.7C608.73 278.01 524.78 361.93 524.78 361.93C513.16 311.6 512.18 261.19 520.73 210.7Z" fill="#4CA84E"/>
<g style="mix-blend-mode:multiply">
<path d="M546.21 236.59C543.86 324.31 500.21 332.01 500.21 332.01C507.087 343.004 515.359 353.061 524.82 361.93C524.82 361.93 588.99 297.73 546.21 236.59Z" fill="#4CA84E"/>
</g>
<path d="M373.08 166.23C263.92 210.16 233.55 107.781 233.55 107.771C276.07 136.311 322.42 156.14 373.08 166.23Z" fill="#66BE64"/>
<path d="M233.55 107.77C331.07 55.2204 373.08 166.23 373.08 166.23C322.42 156.14 276.07 136.31 233.55 107.77Z" fill="#4CA84E"/>
<g style="mix-blend-mode:multiply">
<path d="M267.63 95.1806C346.63 133.371 335.71 176.331 335.71 176.331C348.551 174.592 361.112 171.197 373.08 166.231C373.08 166.231 340.94 81.3106 267.63 95.1806Z" fill="#4CA84E"/>
</g>
<path d="M646.33 253.76C537.16 297.69 506.82 195.31 506.82 195.3C549.34 223.84 595.7 243.67 646.36 253.76H646.33Z" fill="#66BE64"/>
<path d="M506.82 195.301C604.35 142.751 646.36 253.761 646.36 253.761C595.67 243.671 549.31 223.841 506.82 195.301Z" fill="#4CA84E"/>
<g style="mix-blend-mode:multiply">
<path d="M540.88 182.71C619.88 220.9 608.96 263.86 608.96 263.86C621.801 262.122 634.362 258.727 646.33 253.76C646.33 253.76 614.19 168.84 540.88 182.71Z" fill="#4CA84E"/>
</g>
<path d="M373.04 166.23C288.12 84.76 368.98 15 368.98 15C360.44 65.49 361.41 115.9 373.04 166.23Z" fill="#66BE64"/>
<path d="M368.98 15C456.98 82.31 373.04 166.23 373.04 166.23C361.41 115.9 360.44 65.49 368.98 15Z" fill="#4CA84E"/>
<g style="mix-blend-mode:multiply">
<path d="M394.47 40.8906C392.12 128.611 348.47 136.311 348.47 136.311C355.334 147.303 363.593 157.359 373.04 166.231C373.04 166.231 437.25 102.031 394.47 40.8906Z" fill="#4CA84E"/>
</g>
<path d="M503.45 506.611C477.04 391.931 375.7 425.611 375.69 425.611C423.42 444.161 466.21 470.841 503.45 506.611Z" fill="#66BE64"/>
<path d="M375.69 425.59C388.38 535.65 503.45 506.59 503.45 506.59C466.21 470.82 423.42 444.14 375.69 425.59Z" fill="#4CA84E"/>
<g style="mix-blend-mode:multiply">
<path d="M384.82 460.75C461.34 503.7 490.33 470.18 490.33 470.17C496.246 481.701 500.643 493.949 503.41 506.61C503.41 506.61 415.42 528.82 384.82 460.75Z" fill="#4CA84E"/>
</g>
<path d="M511.18 398.601C489.45 304.261 406.07 331.961 406.06 331.961C445.19 346.949 480.929 369.606 511.18 398.601Z" fill="#66BE64"/>
<path d="M406.06 331.96C416.5 422.5 511.18 398.6 511.18 398.6C480.929 369.605 445.19 346.948 406.06 331.96Z" fill="#4CA84E"/>
<g style="mix-blend-mode:multiply">
<path d="M413.61 360.88C476.61 396.22 500.41 368.63 500.41 368.63C505.279 378.123 508.899 388.207 511.18 398.63C511.18 398.63 438.75 416.88 413.61 360.88Z" fill="#4CA84E"/>
</g>
<path d="M645.3 415.76C696.16 333.44 766.24 386.38 766.24 386.44C724.372 388.068 683.252 398.054 645.3 415.81V415.76Z" fill="#66BE64"/>
<path d="M766.24 386.44C727.29 468.84 645.3 415.81 645.3 415.81C683.252 398.054 724.372 388.069 766.24 386.44Z" fill="#4CA84E"/>
<g style="mix-blend-mode:multiply">
<path d="M749.82 411.36C678.82 424.62 665.13 390.84 665.13 390.83C657.475 398.249 650.813 406.629 645.31 415.76C645.31 415.76 708.02 456.33 749.82 411.36Z" fill="#4CA84E"/>
</g>
<path d="M408.19 189.211C449.94 70.3106 553.79 118.211 553.8 118.211C500.8 132.271 452.09 155.581 408.19 189.211Z" fill="#66BE64"/>
<path d="M553.82 118.19C527.23 233.81 408.21 189.19 408.21 189.19C452.09 155.56 500.82 132.25 553.82 118.19Z" fill="#4CA84E"/>
<g style="mix-blend-mode:multiply">
<path d="M539.82 154.52C453.28 191.13 426.41 152 426.41 152C418.742 163.563 412.604 176.07 408.15 189.21C408.15 189.21 499.24 223.33 539.82 154.52Z" fill="#4CA84E"/>
</g>
<path d="M287.59 540.38C215.17 447.63 305.15 390.13 305.16 390.12C289.49 438.88 283.26 488.91 287.59 540.38Z" fill="#66BE64"/>
<path d="M305.16 390.12C382.64 469.31 287.59 540.38 287.59 540.38C283.26 488.91 289.49 438.88 305.16 390.12Z" fill="#4CA84E"/>
<g style="mix-blend-mode:multiply">
<path d="M326.69 419.44C311.84 505.92 267.54 507.32 267.54 507.32C272.747 519.175 279.47 530.305 287.54 540.43C287.54 540.43 360.3 486.01 326.69 419.44Z" fill="#4CA84E"/>
</g>
<path d="M190.06 313.35C96.2899 242.25 168.54 163.61 168.54 163.61C165.89 214.75 172.69 264.71 190.06 313.35Z" fill="#66BE64"/>
<path d="M168.54 163.61C263.72 220.3 190.06 313.35 190.06 313.35C172.69 264.71 165.89 214.75 168.54 163.61Z" fill="#4CA84E"/>
<g style="mix-blend-mode:multiply">
<path d="M196.82 186.38C204.63 273.78 162.17 286.48 162.16 286.48C170.249 296.604 179.617 305.636 190.03 313.35C190.03 313.35 246.41 242.16 196.82 186.38Z" fill="#4CA84E"/>
</g>
<path d="M269.3 242.44C203.88 179.69 266.17 125.96 266.17 125.95C259.436 164.601 260.501 204.207 269.3 242.44Z" fill="#66BE64"/>
<path d="M266.17 125.96C333.95 177.81 269.3 242.44 269.3 242.44C260.502 204.21 259.438 164.607 266.17 125.96Z" fill="#4CA84E"/>
<g style="mix-blend-mode:multiply">
<path d="M285.82 145.91C283.99 213.44 250.37 219.44 250.37 219.44C255.659 227.893 262.022 235.624 269.3 242.44C269.3 242.44 318.76 193 285.82 145.91Z" fill="#4CA84E"/>
</g>
<path d="M269.13 242.441C159.97 286.441 129.6 184.021 129.6 184.021C172.12 212.561 218.47 232.441 269.13 242.441Z" fill="#66BE64"/>
<path d="M129.6 184.02C227.13 131.44 269.13 242.44 269.13 242.44C218.47 232.44 172.12 212.56 129.6 184.02Z" fill="#4CA84E"/>
<g style="mix-blend-mode:multiply">
<path d="M163.68 171.44C242.68 209.63 231.77 252.58 231.76 252.58C244.603 250.834 257.165 247.425 269.13 242.44C269.13 242.44 237 157.55 163.68 171.44Z" fill="#4CA84E"/>
</g>
<path d="M328.75 601.23C212.17 585.23 207.67 691.91 207.67 691.92C241.95 653.92 282.08 623.35 328.75 601.23Z" fill="#66BE64"/>
<path d="M207.67 691.92C315.06 719.12 328.75 601.23 328.75 601.23C282.08 623.35 241.95 653.88 207.67 691.92Z" fill="#4CA84E"/>
<g style="mix-blend-mode:multiply">
<path d="M243.82 695.831C311.13 639.541 290.08 600.541 290.08 600.531C302.956 599.092 315.964 599.327 328.78 601.231C328.78 601.231 318.28 691.441 243.82 695.831Z" fill="#4CA84E"/>
</g>
<path d="M197.44 514.87C110.94 471.4 79.06 553.27 79.05 553.27C115.86 532.78 155.22 519.68 197.44 514.87Z" fill="#66BE64"/>
<path d="M79.05 553.27C155.43 603.01 197.44 514.87 197.44 514.87C155.22 519.68 115.82 532.78 79.05 553.27Z" fill="#4CA84E"/>
<g style="mix-blend-mode:multiply">
<path d="M106.14 565.92C173.51 540 167.5 504.04 167.5 504.04C177.906 506.34 187.97 509.98 197.44 514.87C197.44 514.87 165.3 582.3 106.14 565.92Z" fill="#4CA84E"/>
</g>
<path d="M189.52 312.77C125.64 240.03 65.3699 303.95 65.3699 303.95C106.927 298.586 149.138 301.585 189.52 312.77Z" fill="#66BE64"/>
<path d="M65.3699 303.95C117.5 378.71 189.52 312.77 189.52 312.77C149.138 301.585 106.927 298.587 65.3699 303.95Z" fill="#4CA84E"/>
<g style="mix-blend-mode:multiply">
<path d="M85.73 325.84C157.91 327.09 165.82 291.5 165.82 291.49C174.606 297.53 182.572 304.683 189.52 312.77C189.52 312.77 134.42 363.22 85.73 325.84Z" fill="#4CA84E"/>
</g>
<path d="M295.73 320.3C212.73 270.44 174.82 349.71 174.82 349.72C213.06 332.04 253.29 321.93 295.76 320.3H295.73Z" fill="#66BE64"/>
<path d="M174.82 349.72C247.25 405.04 295.76 320.3 295.76 320.3C253.26 321.93 213.03 332.04 174.82 349.72Z" fill="#4CA84E"/>
<g style="mix-blend-mode:multiply">
<path d="M200.82 364.36C269.95 343.56 266.65 307.25 266.65 307.25C276.857 310.325 286.622 314.712 295.7 320.3C295.7 320.3 258.62 385.13 200.82 364.36Z" fill="#4CA84E"/>
</g>
<path d="M163.58 425.27C61.58 381.44 109.87 293.01 109.87 293C119.06 340.44 136.63 384.66 163.58 425.27Z" fill="#66BE64"/>
<path d="M109.87 293C209.92 323.31 163.58 425.27 163.58 425.27C136.63 384.66 119.06 340.44 109.87 293Z" fill="#4CA84E"/>
<g style="mix-blend-mode:multiply">
<path d="M140.97 307.44C167.97 385.71 131.97 406.98 131.97 406.99C141.673 414.429 152.302 420.574 163.59 425.27C163.59 425.27 199.03 347.27 140.97 307.44Z" fill="#4CA84E"/>
</g>
<path d="M164.27 424.84C62.98 362.16 15.01 459.04 15.01 459.04C62.34 437.92 112.01 426.14 164.27 424.84Z" fill="#66BE64"/>
<path d="M15.01 459.04C103.21 528.3 164.27 424.84 164.27 424.84C112.01 426.14 62.34 437.92 15.01 459.04Z" fill="#4CA84E"/>
<g style="mix-blend-mode:multiply">
<path d="M46.8201 477.49C132.21 453.04 128.74 408.31 128.74 408.3C141.246 412.252 153.186 417.812 164.26 424.84C164.26 424.84 117.56 503.99 46.8201 477.49Z" fill="#4CA84E"/>
</g>
<path d="M518.71 405.361C518.71 405.361 515.34 398.011 508.12 398.071C500.9 398.131 497.64 405.541 497.64 405.541C497.64 405.541 458.58 415.341 458.96 461.221C459.34 507.101 483.12 523.771 509.16 523.561C535.2 523.351 558.69 506.281 558.31 460.401C557.93 414.521 518.71 405.361 518.71 405.361Z" fill="#3A793A"/>
<path d="M517.08 410.96C517.08 410.96 514.24 404.78 508.17 404.83C502.1 404.88 499.37 411.11 499.37 411.11C499.37 411.11 466.54 419.35 466.86 457.91C467.18 496.47 487.16 510.48 509.05 510.3C530.94 510.12 550.68 495.78 550.36 457.22C550.04 418.66 517.08 410.96 517.08 410.96Z" fill="#589F44"/>
<path d="M550.71 498.761L546 488.241C470.6 492.341 466.57 444.751 466.57 444.751L460.76 444.601C459.486 450.047 458.882 455.628 458.96 461.221C459.34 507.111 483.12 523.771 509.16 523.561C526 523.441 541.82 516.231 550.71 498.761Z" fill="#3A793A"/>
<g style="mix-blend-mode:multiply">
<path d="M546.23 505.96C466.13 510.03 459.6 452.04 459.53 451.37C459.114 454.636 458.923 457.928 458.96 461.22C459.34 507.11 483.12 523.77 509.16 523.56C523.46 523.44 537 518.23 546.23 505.96Z" fill="#4CA84E"/>
</g>
<path d="M517.82 438.32C515.37 431.1 523.02 424.4 530.34 427.42L530.83 427.63C542.67 432.79 546.58 453.63 545.93 463.48C545.28 473.33 535.24 475.03 528.52 463.63C524.27 456.44 520.21 445.52 517.82 438.32Z" fill="#8BC63F"/>
<path d="M489.258 463.845C490.518 462.703 490.058 460.141 488.23 458.124C486.401 456.106 483.897 455.396 482.637 456.538C481.376 457.681 481.837 460.242 483.665 462.26C485.493 464.277 487.997 464.987 489.258 463.845Z" fill="#8BC63F"/>
<path d="M528.522 436.223C531.683 433.615 531.624 428.323 528.39 424.404C525.156 420.485 519.972 419.423 516.811 422.031C513.65 424.639 513.71 429.931 516.944 433.85C520.178 437.769 525.362 438.831 528.522 436.223Z" fill="#F6FAFE"/>
<path d="M534.549 440.201C536.494 440.182 538.055 438.671 538.036 436.826C538.018 434.982 536.427 433.502 534.483 433.521C532.539 433.541 530.978 435.052 530.996 436.897C531.014 438.741 532.605 440.221 534.549 440.201Z" fill="#F6FAFE"/>
<path d="M173.82 434.621C173.82 434.621 170.44 427.261 163.22 427.321C156 427.381 152.74 434.791 152.74 434.791C152.74 434.791 113.64 444.601 114.02 490.441C114.4 536.281 138.18 552.991 164.22 552.771C190.26 552.551 213.75 535.501 213.37 489.621C212.99 443.741 173.82 434.621 173.82 434.621Z" fill="#3A793A"/>
<path d="M172.14 440.22C172.14 440.22 169.31 434.04 163.23 434.09C157.15 434.14 154.43 440.37 154.43 440.37C154.43 440.37 121.6 448.61 121.92 487.17C122.24 525.73 142.22 539.74 164.11 539.56C186 539.38 205.74 525.04 205.42 486.44C205.1 447.84 172.14 440.22 172.14 440.22Z" fill="#589F44"/>
<path d="M205.82 528.02L201.11 517.5C125.71 521.6 121.68 474.01 121.68 474.01L115.87 473.86C114.583 479.291 113.961 484.859 114.02 490.44C114.4 536.33 138.18 552.99 164.22 552.77C181.06 552.67 196.82 545.49 205.82 528.02Z" fill="#3A793A"/>
<g style="mix-blend-mode:multiply">
<path d="M201.29 535.221C121.19 539.301 114.66 481.311 114.59 480.641C114.174 483.907 113.984 487.198 114.02 490.491C114.4 536.381 138.18 553.041 164.22 552.821C178.53 552.691 192.06 547.491 201.29 535.221Z" fill="#4CA84E"/>
</g>
<path d="M172.82 467.58C170.37 460.36 178.02 453.66 185.35 456.68L185.83 456.89C197.67 462.05 201.58 482.89 200.93 492.74C200.28 502.59 190.24 504.29 183.52 492.88C179.33 485.74 175.27 474.78 172.82 467.58Z" fill="#8BC63F"/>
<path d="M144.308 493.075C145.568 491.933 145.108 489.372 143.28 487.354C141.452 485.336 138.948 484.627 137.687 485.769C136.427 486.911 136.887 489.473 138.715 491.49C140.543 493.508 143.047 494.218 144.308 493.075Z" fill="#8BC63F"/>
<path d="M183.577 465.48C186.737 462.872 186.678 457.58 183.444 453.661C180.21 449.742 175.026 448.68 171.865 451.288C168.705 453.896 168.764 459.188 171.998 463.107C175.232 467.026 180.416 468.088 183.577 465.48Z" fill="#F6FAFE"/>
<path d="M188.811 470.61C190.755 470.594 192.319 469.085 192.303 467.241C192.288 465.396 190.699 463.914 188.755 463.93C186.811 463.947 185.248 465.455 185.264 467.3C185.279 469.144 186.867 470.627 188.811 470.61Z" fill="#F6FAFE"/>
<path d="M653.99 261.5C653.99 261.5 650.62 254.15 643.4 254.21C636.18 254.27 632.92 261.67 632.92 261.67C632.92 261.67 593.82 271.44 594.24 317.36C594.66 363.28 618.4 379.91 644.44 379.69C670.48 379.47 693.97 362.44 693.59 316.54C693.21 270.64 653.99 261.5 653.99 261.5Z" fill="#3A793A"/>
<path d="M652.36 267.1C652.36 267.1 649.52 260.92 643.45 260.97C637.38 261.02 634.65 267.25 634.65 267.25C634.65 267.25 601.82 275.49 602.14 314.05C602.46 352.61 622.44 366.62 644.33 366.44C666.22 366.26 685.96 351.92 685.64 313.36C685.32 274.8 652.36 267.1 652.36 267.1Z" fill="#589F44"/>
<path d="M685.99 354.9L681.28 344.38C605.88 348.44 601.82 300.89 601.82 300.89L596.01 300.74C594.736 306.186 594.132 311.768 594.21 317.36C594.59 363.25 618.37 379.91 644.41 379.69C661.28 379.55 677.05 372.37 685.99 354.9Z" fill="#3A793A"/>
<g style="mix-blend-mode:multiply">
<path d="M681.51 362.101C601.41 366.181 594.88 308.191 594.81 307.521C594.394 310.787 594.203 314.078 594.24 317.371C594.62 363.261 618.4 379.921 644.44 379.701C658.75 379.581 672.28 374.371 681.51 362.101Z" fill="#4CA84E"/>
</g>
<path d="M653.05 294.441C650.6 287.221 658.25 280.521 665.57 283.541L666.06 283.751C677.9 288.911 681.81 309.751 681.16 319.601C680.51 329.451 670.47 331.151 663.75 319.741C659.55 312.621 655.49 301.661 653.05 294.441Z" fill="#8BC63F"/>
<path d="M624.559 319.984C625.819 318.841 625.359 316.28 623.531 314.262C621.703 312.245 619.199 311.535 617.938 312.677C616.678 313.819 617.138 316.381 618.966 318.398C620.794 320.416 623.298 321.126 624.559 319.984Z" fill="#8BC63F"/>
<path d="M663.809 292.372C666.969 289.764 666.91 284.473 663.676 280.554C660.442 276.635 655.258 275.572 652.097 278.181C648.937 280.789 648.996 286.08 652.23 289.999C655.464 293.918 660.648 294.981 663.809 292.372Z" fill="#F6FAFE"/>
<path d="M669.014 297.453C670.958 297.437 672.522 295.928 672.506 294.084C672.491 292.239 670.902 290.757 668.958 290.773C667.014 290.79 665.451 292.298 665.466 294.143C665.482 295.987 667.07 297.469 669.014 297.453Z" fill="#F6FAFE"/>
<path d="M657.54 421.18C657.54 421.18 654.17 413.83 646.94 413.89C639.71 413.95 636.47 421.36 636.47 421.36C636.47 421.36 597.41 431.16 597.79 477.04C598.17 522.92 621.94 539.59 647.99 539.38C674.04 539.17 697.52 522.1 697.14 476.22C696.76 430.34 657.54 421.18 657.54 421.18Z" fill="#DDC637"/>
<path d="M655.91 426.781C655.91 426.781 653.07 420.601 647 420.651C640.93 420.701 638.2 426.931 638.2 426.931C638.2 426.931 605.37 435.171 605.69 473.731C606.01 512.291 625.99 526.301 647.88 526.121C669.77 525.941 689.51 511.601 689.19 473.041C688.87 434.481 655.91 426.781 655.91 426.781Z" fill="#EDD946"/>
<path d="M689.54 514.58L684.82 504.06C609.42 508.16 605.39 460.57 605.39 460.57L599.58 460.42C598.32 465.868 597.729 471.449 597.82 477.04C598.2 522.93 621.97 539.59 648.02 539.38C664.82 539.24 680.6 532.05 689.54 514.58Z" fill="#DDC637"/>
<path d="M685.06 521.78C604.96 525.85 598.43 467.86 598.36 467.19C597.944 470.457 597.754 473.748 597.79 477.04C598.17 522.93 621.94 539.59 647.99 539.38C662.29 539.26 675.82 534.05 685.06 521.78Z" fill="#CEB42E"/>
<path d="M656.6 454.14C654.15 446.92 661.8 440.22 669.12 443.24L669.61 443.45C681.45 448.61 685.36 469.45 684.71 479.3C684.06 489.15 674.02 490.85 667.3 479.45C663.09 472.3 659.04 461.34 656.6 454.14Z" fill="#FAF28C"/>
<path d="M628.098 479.669C629.359 478.527 628.899 475.965 627.07 473.948C625.242 471.93 622.738 471.22 621.478 472.363C620.217 473.505 620.677 476.066 622.506 478.084C624.334 480.102 626.838 480.811 628.098 479.669Z" fill="#FAF28C"/>
<path d="M667.36 452.052C670.521 449.444 670.461 444.152 667.227 440.234C663.993 436.315 658.809 435.252 655.649 437.86C652.488 440.469 652.547 445.76 655.781 449.679C659.015 453.598 664.199 454.66 667.36 452.052Z" fill="#F6FAFE"/>
<path d="M672.582 457.138C674.526 457.121 676.089 455.613 676.074 453.768C676.058 451.924 674.47 450.442 672.526 450.458C670.582 450.474 669.019 451.983 669.034 453.827C669.05 455.672 670.638 457.154 672.582 457.138Z" fill="#F6FAFE"/>
<path d="M330.82 625.88C330.82 625.83 331.93 621.42 330.29 614.28C328.75 607.62 324.46 597.16 312.68 585.16L317.54 580.38C342.94 606.26 337.63 626.8 337.39 627.67L330.82 625.85V625.88Z" fill="#63B446"/>
<path d="M345.46 623.19C345.46 623.19 342.09 615.83 334.86 615.89C327.63 615.95 324.39 623.36 324.39 623.36C324.39 623.36 285.33 633.17 285.71 679.05C286.09 724.93 309.87 741.6 335.91 741.38C361.95 741.16 385.44 724.11 385.06 678.22C384.68 632.33 345.46 623.19 345.46 623.19Z" fill="#DDC637"/>
<path d="M343.82 628.79C343.82 628.79 340.98 622.61 334.91 622.66C328.84 622.71 326.11 628.94 326.11 628.94C326.11 628.94 293.28 637.18 293.6 675.74C293.92 714.3 313.9 728.31 335.79 728.12C357.68 727.93 377.42 713.61 377.1 675.05C376.78 636.49 343.82 628.79 343.82 628.79Z" fill="#EDD946"/>
<path d="M377.46 716.591L372.75 706.061C297.35 710.171 293.32 662.571 293.32 662.571L287.51 662.431C286.236 667.877 285.632 673.458 285.71 679.051C286.09 724.931 309.87 741.601 335.91 741.381C352.75 741.241 368.52 734.051 377.46 716.591Z" fill="#DDC637"/>
<path d="M372.98 723.79C292.88 727.86 286.35 669.88 286.28 669.21C285.864 672.476 285.673 675.767 285.71 679.06C286.09 724.94 309.87 741.61 335.91 741.39C350.21 741.26 363.75 736.06 372.98 723.79Z" fill="#CEB42E"/>
<path d="M344.52 656.141C342.07 648.931 349.72 642.231 357.04 645.251C357.2 645.321 357.37 645.381 357.53 645.461C369.37 650.621 373.28 671.461 372.63 681.311C371.98 691.161 361.94 692.861 355.22 681.451C351.02 674.311 346.96 663.341 344.52 656.141Z" fill="#FAF28C"/>
<path d="M315.997 681.677C317.258 680.535 316.797 677.973 314.969 675.956C313.141 673.938 310.637 673.228 309.376 674.37C308.116 675.513 308.576 678.074 310.404 680.092C312.233 682.109 314.736 682.819 315.997 681.677Z" fill="#FAF28C"/>
<path d="M355.265 654.047C358.426 651.439 358.366 646.148 355.132 642.229C351.898 638.31 346.714 637.247 343.554 639.855C340.393 642.464 340.452 647.755 343.686 651.674C346.92 655.593 352.104 656.655 355.265 654.047Z" fill="#F6FAFE"/>
<path d="M360.515 659.165C362.459 659.149 364.022 657.64 364.007 655.796C363.992 653.951 362.403 652.469 360.459 652.485C358.515 652.501 356.952 654.01 356.967 655.854C356.983 657.699 358.571 659.181 360.515 659.165Z" fill="#F6FAFE"/>
<path d="M340.82 170.011C340.82 170.011 341.93 165.561 340.29 158.421C338.76 151.751 334.46 141.291 322.69 129.291L327.55 124.521C352.94 150.391 347.64 170.941 347.4 171.801L340.82 169.991V170.011Z" fill="#63B446"/>
<path d="M355.45 167.321C355.45 167.321 352.08 159.971 344.85 160.031C337.62 160.091 334.37 167.501 334.37 167.501C334.37 167.501 295.31 177.301 295.7 223.191C296.09 269.081 319.85 285.731 345.89 285.521C371.93 285.311 395.43 268.241 395.05 222.361C394.67 176.481 355.45 167.321 355.45 167.321Z" fill="#DDC637"/>
<path d="M353.82 172.93C353.82 172.93 350.99 166.75 344.92 166.8C338.85 166.85 336.11 173.07 336.11 173.07C336.11 173.07 303.28 181.31 303.61 219.87C303.94 258.43 323.9 272.44 345.82 272.26C367.74 272.08 387.45 257.74 387.13 219.18C386.81 180.62 353.82 172.93 353.82 172.93Z" fill="#EDD946"/>
<path d="M387.45 260.721L382.74 250.201C307.34 254.301 303.31 206.711 303.31 206.711L297.5 206.561C296.217 212.008 295.612 217.594 295.7 223.191C296.08 269.071 319.85 285.731 345.89 285.521C362.73 285.381 378.51 278.191 387.45 260.721Z" fill="#DDC637"/>
<path d="M382.97 267.92C302.86 271.99 296.33 214 296.26 213.33C295.853 216.6 295.666 219.895 295.7 223.19C296.08 269.07 319.85 285.73 345.89 285.52C360.2 285.44 373.74 280.19 382.97 267.92Z" fill="#CEB42E"/>
<path d="M354.5 200.28C352.05 193.06 359.7 186.36 367.03 189.38L367.52 189.59C379.35 194.76 383.26 215.59 382.61 225.44C381.96 235.29 371.92 237 365.21 225.59C361 218.44 356.95 207.44 354.5 200.28Z" fill="#FAF28C"/>
<path d="M326.001 225.782C327.261 224.639 326.801 222.078 324.973 220.06C323.145 218.042 320.641 217.333 319.38 218.475C318.12 219.617 318.58 222.179 320.408 224.196C322.236 226.214 324.74 226.924 326.001 225.782Z" fill="#FAF28C"/>
<path d="M365.419 195.994C368.575 193.372 368.496 188.074 365.245 184.162C361.993 180.249 356.799 179.204 353.643 181.826C350.488 184.449 350.566 189.747 353.818 193.659C357.07 197.572 362.264 198.617 365.419 195.994Z" fill="#F6FAFE"/>
<path d="M370.456 203.307C372.4 203.291 373.963 201.783 373.948 199.938C373.932 198.094 372.344 196.611 370.4 196.628C368.456 196.644 366.892 198.153 366.908 199.997C366.923 201.842 368.512 203.324 370.456 203.307Z" fill="#F6FAFE"/>
<path d="M616.47 476.44C597.1 501 571.32 515.08 539.75 518.37C539.17 520.66 538.55 522.93 537.92 525.18C534.538 537.179 530.307 548.922 525.26 560.32C524.81 561.32 524.36 562.32 523.9 563.32C522.53 566.32 521.09 569.24 519.62 572.12C519.12 573.12 518.62 574.05 518.12 575L516.59 577.84L515.02 580.65C514.51 581.58 513.97 582.5 513.42 583.42C512.87 584.34 512.33 585.26 511.78 586.16C511.23 587.06 510.67 587.97 510.12 588.86C509.57 589.75 508.99 590.66 508.41 591.54C506.81 594.014 505.17 596.437 503.49 598.81C502.74 599.88 501.97 600.95 501.18 602C500.68 602.69 500.18 603.38 499.65 604.06C499.46 604.31 499.27 604.57 499.06 604.83L497.52 606.83C496.23 608.48 494.91 610.13 493.52 611.74C492.91 612.47 492.28 613.2 491.66 613.92C491.602 614.001 491.539 614.078 491.47 614.15C490.81 614.92 490.13 615.69 489.47 616.44C488.81 617.19 488.2 617.86 487.56 618.57C486.5 619.737 485.42 620.89 484.32 622.03C483.32 623.12 482.22 624.19 481.15 625.27L480.92 625.49C480.21 626.2 479.49 626.9 478.76 627.61C478.03 628.32 477.36 628.94 476.66 629.61L476.2 630.06C475.55 630.66 474.91 631.25 474.26 631.82C474.245 631.851 474.22 631.875 474.19 631.89C472.683 633.257 471.153 634.59 469.6 635.89L468.48 636.83C467.82 637.38 467.16 637.93 466.48 638.46C465.8 638.99 465.14 639.57 464.48 640.11C463.82 640.65 463.09 641.21 462.39 641.75C461.69 642.29 460.75 643.01 459.92 643.63C459.09 644.25 458.26 644.88 457.42 645.48C456.58 646.08 455.73 646.69 454.88 647.29C454.19 647.78 453.5 648.29 452.8 648.73C452.51 648.94 452.21 649.14 451.91 649.34C451.21 649.81 450.51 650.28 449.8 650.73C449.697 650.814 449.587 650.888 449.47 650.95C448.763 651.43 448.043 651.9 447.31 652.36C445.44 653.56 443.54 654.74 441.61 655.87C440.89 656.3 440.19 656.71 439.48 657.11C439.25 657.26 439.03 657.39 438.8 657.51C437.96 658 437.11 658.51 436.26 658.95L436.13 659.01L433.82 660.25C430.82 661.83 427.88 663.36 424.82 664.81L422.95 665.7C422.09 666.11 421.21 666.51 420.33 666.9C420.3 666.907 420.269 666.907 420.24 666.9C419.07 667.43 417.9 667.9 416.71 668.45C416.677 668.476 416.64 668.497 416.6 668.51C415.38 669.04 414.17 669.51 412.94 670.06C412.72 672.334 412.507 674.604 412.3 676.87C411.22 688.44 410.13 700.07 409.05 711.62C408.637 716 408.23 720.357 407.83 724.69C407.543 727.744 407.26 730.784 406.98 733.81C406.83 735.27 406.7 736.72 406.57 738.18C405.31 751.58 404.08 764.71 402.89 777.35C402.75 778.86 402.61 780.35 402.47 781.86C402.123 785.58 401.79 789.247 401.47 792.86C401.28 794.86 401.09 796.86 400.9 798.86C400.16 806.86 399.43 814.53 398.74 821.86C398.66 822.78 398.57 823.69 398.48 824.6C398.23 827.23 397.98 829.83 397.75 832.37C397.63 833.7 397.5 835.01 397.38 836.31C397.193 838.264 397.013 840.177 396.84 842.05C396.72 843.31 396.6 844.55 396.49 845.76C396.38 846.97 396.26 848.2 396.15 849.38C396.15 849.58 396.15 849.78 396.09 849.98C396.02 850.75 395.94 851.53 395.87 852.29C395.52 856.13 395.17 859.78 394.87 863.23C392.71 886.23 391.36 902.1 391.31 902.65H352.62C352.67 902.12 354.02 889.38 356.18 866.28C356.18 866.17 356.18 866.05 356.18 865.93C356.3 864.67 356.41 863.39 356.54 862.08C356.78 859.46 357.03 856.73 357.3 853.92C357.42 852.51 357.56 851.09 357.7 849.63C358.52 840.88 359.41 831.31 360.36 821.11C360.56 818.944 360.766 816.747 360.98 814.52C361.1 813.12 361.24 811.72 361.37 810.32C361.47 809.22 361.58 808.11 361.67 806.99C363.15 791.18 364.74 774.16 366.38 756.52C366.59 754.34 366.79 752.14 367 749.93C367.13 748.5 367.27 747.07 367.4 745.64C367.4 745.46 367.4 745.3 367.4 745.14C367.59 743.14 367.78 741.14 367.97 739.07C368.16 737 368.35 735 368.53 732.97C368.524 732.861 368.524 732.75 368.53 732.64C368.897 728.64 369.267 724.64 369.64 720.64C369.64 720.24 369.71 719.84 369.75 719.46C370.01 716.76 370.26 714.064 370.5 711.37C370.5 711.13 370.5 710.89 370.57 710.66C371.03 705.734 371.487 700.807 371.94 695.88L372.21 692.99C372.48 689.99 372.76 687.1 373.03 684.16C373.16 682.68 373.31 681.22 373.44 679.75C373.57 678.28 373.71 676.81 373.85 675.35C374.12 672.42 374.38 669.49 374.66 666.57C374.9 663.984 375.137 661.41 375.37 658.85C375.56 656.85 375.75 654.77 375.94 652.75C376.13 650.73 376.32 648.75 376.5 646.69C377.5 636.04 378.5 625.59 379.39 615.43C379.51 614.05 379.64 612.69 379.76 611.34C346.89 608.34 314.6 598.45 283.51 581.74C253.9 565.81 225.37 543.74 198.71 516.1C153.71 469.5 129.58 423.32 128.59 421.37L145.59 412.57L162.59 403.74C162.82 404.17 185.59 447.6 226.96 490.2C227.3 490.56 227.65 490.92 227.96 491.26L228.88 492.19C247.26 400.93 162.46 315.11 161.55 314.19L188.55 287.04C189.71 288.19 217.17 315.76 239.85 357.75C270.57 414.63 277.76 471.05 260.67 520.97C261.82 521.88 262.97 522.79 264.12 523.68L264.32 523.83C277.168 533.8 290.891 542.589 305.32 550.09C306.58 550.75 307.84 551.38 309.12 552.01C310.23 552.55 311.35 553.1 312.47 553.63L313.11 553.93C314.28 554.47 315.45 555.02 316.62 555.54L316.77 555.61C318.04 556.18 319.29 556.73 320.56 557.27C321.64 557.73 322.74 558.18 323.83 558.62L324.83 559.05L328.13 560.34L328.37 560.44C329.61 560.91 330.84 561.36 332.08 561.81C333.08 562.18 334.13 562.55 335.16 562.9L336.61 563.39C337.67 563.75 338.75 564.1 339.83 564.45C340.91 564.8 341.83 565.06 342.77 565.35C343.41 565.55 344.05 565.74 344.7 565.92C345.6 566.19 346.48 566.45 347.39 566.69C347.98 566.86 348.58 567.02 349.17 567.17L350.4 567.49C350.96 567.65 351.5 567.78 352.05 567.92C353.05 568.17 354 568.4 354.98 568.63C355.62 568.79 356.25 568.93 356.87 569.07L358.11 569.35L359.81 569.72C361.81 570.134 363.783 570.514 365.73 570.86C366.39 570.99 367.05 571.1 367.73 571.21L370.51 571.65C371.1 571.75 371.7 571.84 372.3 571.92L373.49 572.09C374.13 572.18 374.78 572.28 375.42 572.35L378.32 572.7L379.79 572.87L383.14 573.19C383.53 568.9 383.91 564.72 384.28 560.62C391.65 478.84 348.96 397.08 311.84 342.91C270.84 283.02 227.26 242.56 226.54 241.91L252.54 213.69C254.43 215.44 299.42 257.07 343.02 320.53C353.553 335.804 363.04 350.954 371.48 365.98C436.36 293.2 346.92 149.48 345.95 147.98L378.34 127.44C379.55 129.35 408.15 174.83 423.67 231.1C444.13 305.25 432.41 363.97 389.83 401.79C394.497 411.897 398.693 421.937 402.42 431.91C419.62 478.12 426.42 522.63 422.68 564.24C421 582.96 419.09 603.81 417.07 625.7C471.52 595.78 502.94 541.17 510.54 462.95C517.22 394.18 502.22 332.43 502.06 331.82L539.26 322.56C539.95 325.3 555.89 390.46 548.8 465.61C548.7 466.69 548.6 467.75 548.48 468.82C548.14 471.97 547.77 475.08 547.37 478.17C563.11 474.26 575.94 465.84 586.37 452.69C639.21 385.75 610.37 227.85 610.01 226.26L647.69 219.16C649.02 226.33 680.09 395.73 616.47 476.44Z" fill="#D38D75"/>
<path d="M526.11 558.13C632.73 508.33 668.61 608.91 668.61 608.92C624.61 582.73 577.24 565.45 526.11 558.13Z" fill="#66BE64"/>
<path d="M668.61 608.92C574.08 666.69 526.11 558.13 526.11 558.13C577.24 565.44 624.61 582.73 668.61 608.92Z" fill="#4CA84E"/>
<g style="mix-blend-mode:multiply">
<path d="M635.26 623.34C554.26 589.5 562.87 546.01 562.87 546.01C550.144 548.443 537.787 552.517 526.11 558.13C526.11 558.13 562.82 641.18 635.26 623.34Z" fill="#4CA84E"/>
</g>
<path d="M630.1 259.8C607.28 144.36 713.53 133.61 713.54 133.61C677.54 170.06 649.45 211.91 630.1 259.8Z" fill="#66BE64"/>
<path d="M713.54 133.61C746.99 239.22 630.1 259.8 630.1 259.8C649.45 211.91 677.57 170.06 713.54 133.61Z" fill="#4CA84E"/>
<g style="mix-blend-mode:multiply">
<path d="M719.56 169.44C667.31 239.94 627.14 221.21 627.14 221.21C626.467 234.149 627.475 247.121 630.14 259.8C630.14 259.8 719.52 244.05 719.56 169.44Z" fill="#4CA84E"/>
</g>
<path d="M549.94 398.14C573.53 282.86 675.67 314.02 675.68 314.02C628.42 333.73 586.3 361.44 549.94 398.14Z" fill="#66BE64"/>
<path d="M675.68 314.021C665.68 424.351 549.94 398.141 549.94 398.141C586.3 361.441 628.42 333.731 675.68 314.021Z" fill="#4CA84E"/>
<g style="mix-blend-mode:multiply">
<path d="M667.37 349.44C591.93 394.26 562.13 361.44 562.13 361.44C556.495 373.108 552.397 385.458 549.94 398.18C549.94 398.18 638.49 418.19 667.37 349.44Z" fill="#4CA84E"/>
</g>
<path d="M524.82 361.93C439.91 280.46 520.76 210.7 520.77 210.7C512.22 261.19 513.2 311.6 524.82 361.93Z" fill="#66BE64"/>
<path d="M520.73 210.7C608.73 278.01 524.78 361.93 524.78 361.93C513.16 311.6 512.18 261.19 520.73 210.7Z" fill="#4CA84E"/>
<g style="mix-blend-mode:multiply">
<path d="M546.21 236.59C543.86 324.31 500.21 332.01 500.21 332.01C507.087 343.004 515.359 353.061 524.82 361.93C524.82 361.93 588.99 297.73 546.21 236.59Z" fill="#4CA84E"/>
</g>
<path d="M373.08 166.23C263.92 210.16 233.55 107.781 233.55 107.771C276.07 136.311 322.42 156.14 373.08 166.23Z" fill="#66BE64"/>
<path d="M233.55 107.77C331.07 55.2204 373.08 166.23 373.08 166.23C322.42 156.14 276.07 136.31 233.55 107.77Z" fill="#4CA84E"/>
<g style="mix-blend-mode:multiply">
<path d="M267.63 95.1806C346.63 133.371 335.71 176.331 335.71 176.331C348.551 174.592 361.112 171.197 373.08 166.231C373.08 166.231 340.94 81.3106 267.63 95.1806Z" fill="#4CA84E"/>
</g>
<path d="M646.33 253.76C537.16 297.69 506.82 195.31 506.82 195.3C549.34 223.84 595.7 243.67 646.36 253.76H646.33Z" fill="#66BE64"/>
<path d="M506.82 195.301C604.35 142.751 646.36 253.761 646.36 253.761C595.67 243.671 549.31 223.841 506.82 195.301Z" fill="#4CA84E"/>
<g style="mix-blend-mode:multiply">
<path d="M540.88 182.71C619.88 220.9 608.96 263.86 608.96 263.86C621.801 262.122 634.362 258.727 646.33 253.76C646.33 253.76 614.19 168.84 540.88 182.71Z" fill="#4CA84E"/>
</g>
<path d="M373.04 166.23C288.12 84.76 368.98 15 368.98 15C360.44 65.49 361.41 115.9 373.04 166.23Z" fill="#66BE64"/>
<path d="M368.98 15C456.98 82.31 373.04 166.23 373.04 166.23C361.41 115.9 360.44 65.49 368.98 15Z" fill="#4CA84E"/>
<g style="mix-blend-mode:multiply">
<path d="M394.47 40.8906C392.12 128.611 348.47 136.311 348.47 136.311C355.334 147.303 363.593 157.359 373.04 166.231C373.04 166.231 437.25 102.031 394.47 40.8906Z" fill="#4CA84E"/>
</g>
<path d="M503.45 506.611C477.04 391.931 375.7 425.611 375.69 425.611C423.42 444.161 466.21 470.841 503.45 506.611Z" fill="#66BE64"/>
<path d="M375.69 425.59C388.38 535.65 503.45 506.59 503.45 506.59C466.21 470.82 423.42 444.14 375.69 425.59Z" fill="#4CA84E"/>
<g style="mix-blend-mode:multiply">
<path d="M384.82 460.75C461.34 503.7 490.33 470.18 490.33 470.17C496.246 481.701 500.643 493.949 503.41 506.61C503.41 506.61 415.42 528.82 384.82 460.75Z" fill="#4CA84E"/>
</g>
<path d="M511.18 398.601C489.45 304.261 406.07 331.961 406.06 331.961C445.19 346.949 480.929 369.606 511.18 398.601Z" fill="#66BE64"/>
<path d="M406.06 331.96C416.5 422.5 511.18 398.6 511.18 398.6C480.929 369.605 445.19 346.948 406.06 331.96Z" fill="#4CA84E"/>
<g style="mix-blend-mode:multiply">
<path d="M413.61 360.88C476.61 396.22 500.41 368.63 500.41 368.63C505.279 378.123 508.899 388.207 511.18 398.63C511.18 398.63 438.75 416.88 413.61 360.88Z" fill="#4CA84E"/>
</g>
<path d="M645.3 415.76C696.16 333.44 766.24 386.38 766.24 386.44C724.372 388.068 683.252 398.054 645.3 415.81V415.76Z" fill="#66BE64"/>
<path d="M766.24 386.44C727.29 468.84 645.3 415.81 645.3 415.81C683.252 398.054 724.372 388.069 766.24 386.44Z" fill="#4CA84E"/>
<g style="mix-blend-mode:multiply">
<path d="M749.82 411.36C678.82 424.62 665.13 390.84 665.13 390.83C657.475 398.249 650.813 406.629 645.31 415.76C645.31 415.76 708.02 456.33 749.82 411.36Z" fill="#4CA84E"/>
</g>
<path d="M408.19 189.211C449.94 70.3106 553.79 118.211 553.8 118.211C500.8 132.271 452.09 155.581 408.19 189.211Z" fill="#66BE64"/>
<path d="M553.82 118.19C527.23 233.81 408.21 189.19 408.21 189.19C452.09 155.56 500.82 132.25 553.82 118.19Z" fill="#4CA84E"/>
<g style="mix-blend-mode:multiply">
<path d="M539.82 154.52C453.28 191.13 426.41 152 426.41 152C418.742 163.563 412.604 176.07 408.15 189.21C408.15 189.21 499.24 223.33 539.82 154.52Z" fill="#4CA84E"/>
</g>
<path d="M287.59 540.38C215.17 447.63 305.15 390.13 305.16 390.12C289.49 438.88 283.26 488.91 287.59 540.38Z" fill="#66BE64"/>
<path d="M305.16 390.12C382.64 469.31 287.59 540.38 287.59 540.38C283.26 488.91 289.49 438.88 305.16 390.12Z" fill="#4CA84E"/>
<g style="mix-blend-mode:multiply">
<path d="M326.69 419.44C311.84 505.92 267.54 507.32 267.54 507.32C272.747 519.175 279.47 530.305 287.54 540.43C287.54 540.43 360.3 486.01 326.69 419.44Z" fill="#4CA84E"/>
</g>
<path d="M190.06 313.35C96.2899 242.25 168.54 163.61 168.54 163.61C165.89 214.75 172.69 264.71 190.06 313.35Z" fill="#66BE64"/>
<path d="M168.54 163.61C263.72 220.3 190.06 313.35 190.06 313.35C172.69 264.71 165.89 214.75 168.54 163.61Z" fill="#4CA84E"/>
<g style="mix-blend-mode:multiply">
<path d="M196.82 186.38C204.63 273.78 162.17 286.48 162.16 286.48C170.249 296.604 179.617 305.636 190.03 313.35C190.03 313.35 246.41 242.16 196.82 186.38Z" fill="#4CA84E"/>
</g>
<path d="M269.3 242.44C203.88 179.69 266.17 125.96 266.17 125.95C259.436 164.601 260.501 204.207 269.3 242.44Z" fill="#66BE64"/>
<path d="M266.17 125.96C333.95 177.81 269.3 242.44 269.3 242.44C260.502 204.21 259.438 164.607 266.17 125.96Z" fill="#4CA84E"/>
<g style="mix-blend-mode:multiply">
<path d="M285.82 145.91C283.99 213.44 250.37 219.44 250.37 219.44C255.659 227.893 262.022 235.624 269.3 242.44C269.3 242.44 318.76 193 285.82 145.91Z" fill="#4CA84E"/>
</g>
<path d="M269.13 242.441C159.97 286.441 129.6 184.021 129.6 184.021C172.12 212.561 218.47 232.441 269.13 242.441Z" fill="#66BE64"/>
<path d="M129.6 184.02C227.13 131.44 269.13 242.44 269.13 242.44C218.47 232.44 172.12 212.56 129.6 184.02Z" fill="#4CA84E"/>
<g style="mix-blend-mode:multiply">
<path d="M163.68 171.44C242.68 209.63 231.77 252.58 231.76 252.58C244.603 250.834 257.165 247.425 269.13 242.44C269.13 242.44 237 157.55 163.68 171.44Z" fill="#4CA84E"/>
</g>
<path d="M328.75 601.23C212.17 585.23 207.67 691.91 207.67 691.92C241.95 653.92 282.08 623.35 328.75 601.23Z" fill="#66BE64"/>
<path d="M207.67 691.92C315.06 719.12 328.75 601.23 328.75 601.23C282.08 623.35 241.95 653.88 207.67 691.92Z" fill="#4CA84E"/>
<g style="mix-blend-mode:multiply">
<path d="M243.82 695.831C311.13 639.541 290.08 600.541 290.08 600.531C302.956 599.092 315.964 599.327 328.78 601.231C328.78 601.231 318.28 691.441 243.82 695.831Z" fill="#4CA84E"/>
</g>
<path d="M197.44 514.87C110.94 471.4 79.06 553.27 79.05 553.27C115.86 532.78 155.22 519.68 197.44 514.87Z" fill="#66BE64"/>
<path d="M79.05 553.27C155.43 603.01 197.44 514.87 197.44 514.87C155.22 519.68 115.82 532.78 79.05 553.27Z" fill="#4CA84E"/>
<g style="mix-blend-mode:multiply">
<path d="M106.14 565.92C173.51 540 167.5 504.04 167.5 504.04C177.906 506.34 187.97 509.98 197.44 514.87C197.44 514.87 165.3 582.3 106.14 565.92Z" fill="#4CA84E"/>
</g>
<path d="M189.52 312.77C125.64 240.03 65.3699 303.95 65.3699 303.95C106.927 298.586 149.138 301.585 189.52 312.77Z" fill="#66BE64"/>
<path d="M65.3699 303.95C117.5 378.71 189.52 312.77 189.52 312.77C149.138 301.585 106.927 298.587 65.3699 303.95Z" fill="#4CA84E"/>
<g style="mix-blend-mode:multiply">
<path d="M85.73 325.84C157.91 327.09 165.82 291.5 165.82 291.49C174.606 297.53 182.572 304.683 189.52 312.77C189.52 312.77 134.42 363.22 85.73 325.84Z" fill="#4CA84E"/>
</g>
<path d="M295.73 320.3C212.73 270.44 174.82 349.71 174.82 349.72C213.06 332.04 253.29 321.93 295.76 320.3H295.73Z" fill="#66BE64"/>
<path d="M174.82 349.72C247.25 405.04 295.76 320.3 295.76 320.3C253.26 321.93 213.03 332.04 174.82 349.72Z" fill="#4CA84E"/>
<g style="mix-blend-mode:multiply">
<path d="M200.82 364.36C269.95 343.56 266.65 307.25 266.65 307.25C276.857 310.325 286.622 314.712 295.7 320.3C295.7 320.3 258.62 385.13 200.82 364.36Z" fill="#4CA84E"/>
</g>
<path d="M163.58 425.27C61.58 381.44 109.87 293.01 109.87 293C119.06 340.44 136.63 384.66 163.58 425.27Z" fill="#66BE64"/>
<path d="M109.87 293C209.92 323.31 163.58 425.27 163.58 425.27C136.63 384.66 119.06 340.44 109.87 293Z" fill="#4CA84E"/>
<g style="mix-blend-mode:multiply">
<path d="M140.97 307.44C167.97 385.71 131.97 406.98 131.97 406.99C141.673 414.429 152.302 420.574 163.59 425.27C163.59 425.27 199.03 347.27 140.97 307.44Z" fill="#4CA84E"/>
</g>
<path d="M164.27 424.84C62.98 362.16 15.01 459.04 15.01 459.04C62.34 437.92 112.01 426.14 164.27 424.84Z" fill="#66BE64"/>
<path d="M15.01 459.04C103.21 528.3 164.27 424.84 164.27 424.84C112.01 426.14 62.34 437.92 15.01 459.04Z" fill="#4CA84E"/>
<g style="mix-blend-mode:multiply">
<path d="M46.8201 477.49C132.21 453.04 128.74 408.31 128.74 408.3C141.246 412.252 153.186 417.812 164.26 424.84C164.26 424.84 117.56 503.99 46.8201 477.49Z" fill="#4CA84E"/>
</g>
<path d="M518.71 405.361C518.71 405.361 515.34 398.011 508.12 398.071C500.9 398.131 497.64 405.541 497.64 405.541C497.64 405.541 458.58 415.341 458.96 461.221C459.34 507.101 483.12 523.771 509.16 523.561C535.2 523.351 558.69 506.281 558.31 460.401C557.93 414.521 518.71 405.361 518.71 405.361Z" fill="#DDC637"/>
<path d="M517.08 410.96C517.08 410.96 514.24 404.78 508.17 404.83C502.1 404.88 499.37 411.11 499.37 411.11C499.37 411.11 466.54 419.35 466.86 457.91C467.18 496.47 487.16 510.48 509.05 510.3C530.94 510.12 550.68 495.78 550.36 457.22C550.04 418.66 517.08 410.96 517.08 410.96Z" fill="#EDD946"/>
<path d="M550.71 498.761L546 488.241C470.6 492.341 466.57 444.751 466.57 444.751L460.76 444.601C459.486 450.047 458.882 455.628 458.96 461.221C459.34 507.111 483.12 523.771 509.16 523.561C526 523.441 541.82 516.231 550.71 498.761Z" fill="#DDC637"/>
<path d="M546.23 505.96C466.13 510.03 459.6 452.04 459.53 451.37C459.114 454.636 458.923 457.928 458.96 461.22C459.34 507.11 483.12 523.77 509.16 523.56C523.46 523.44 537 518.23 546.23 505.96Z" fill="#CEB42E"/>
<path d="M517.82 438.32C515.37 431.1 523.02 424.4 530.34 427.42L530.83 427.63C542.67 432.79 546.58 453.63 545.93 463.48C545.28 473.33 535.24 475.03 528.52 463.63C524.27 456.44 520.21 445.52 517.82 438.32Z" fill="#FAF28C"/>
<path d="M489.258 463.845C490.518 462.703 490.058 460.141 488.23 458.124C486.401 456.106 483.897 455.396 482.637 456.538C481.376 457.681 481.837 460.242 483.665 462.26C485.493 464.277 487.997 464.987 489.258 463.845Z" fill="#FAF28C"/>
<path d="M528.522 436.223C531.683 433.615 531.624 428.323 528.39 424.404C525.156 420.485 519.972 419.423 516.811 422.031C513.65 424.639 513.71 429.931 516.944 433.85C520.178 437.769 525.362 438.831 528.522 436.223Z" fill="#F6FAFE"/>
<path d="M534.549 440.201C536.494 440.182 538.055 438.671 538.036 436.826C538.018 434.982 536.427 433.502 534.483 433.521C532.539 433.541 530.978 435.052 530.996 436.897C531.014 438.741 532.605 440.221 534.549 440.201Z" fill="#F6FAFE"/>
<path d="M173.82 434.621C173.82 434.621 170.44 427.261 163.22 427.321C156 427.381 152.74 434.791 152.74 434.791C152.74 434.791 113.64 444.601 114.02 490.441C114.4 536.281 138.18 552.991 164.22 552.771C190.26 552.551 213.75 535.501 213.37 489.621C212.99 443.741 173.82 434.621 173.82 434.621Z" fill="#DDC637"/>
<path d="M172.14 440.22C172.14 440.22 169.31 434.04 163.23 434.09C157.15 434.14 154.43 440.37 154.43 440.37C154.43 440.37 121.6 448.61 121.92 487.17C122.24 525.73 142.22 539.74 164.11 539.56C186 539.38 205.74 525.04 205.42 486.44C205.1 447.84 172.14 440.22 172.14 440.22Z" fill="#EDD946"/>
<path d="M205.82 528.02L201.11 517.5C125.71 521.6 121.68 474.01 121.68 474.01L115.87 473.86C114.583 479.291 113.961 484.859 114.02 490.44C114.4 536.33 138.18 552.99 164.22 552.77C181.06 552.67 196.82 545.49 205.82 528.02Z" fill="#DDC637"/>
<path d="M201.29 535.221C121.19 539.301 114.66 481.311 114.59 480.641C114.174 483.907 113.984 487.198 114.02 490.491C114.4 536.381 138.18 553.041 164.22 552.821C178.53 552.691 192.06 547.491 201.29 535.221Z" fill="#CEB42E"/>
<path d="M172.82 467.58C170.37 460.36 178.02 453.66 185.35 456.68L185.83 456.89C197.67 462.05 201.58 482.89 200.93 492.74C200.28 502.59 190.24 504.29 183.52 492.88C179.33 485.74 175.27 474.78 172.82 467.58Z" fill="#FAF28C"/>
<path d="M144.308 493.075C145.568 491.933 145.108 489.372 143.28 487.354C141.452 485.336 138.948 484.627 137.687 485.769C136.427 486.911 136.887 489.473 138.715 491.49C140.543 493.508 143.047 494.218 144.308 493.075Z" fill="#FAF28C"/>
<path d="M183.577 465.48C186.737 462.872 186.678 457.58 183.444 453.661C180.21 449.742 175.026 448.68 171.865 451.288C168.705 453.896 168.764 459.188 171.998 463.107C175.232 467.026 180.416 468.088 183.577 465.48Z" fill="#F6FAFE"/>
<path d="M188.811 470.61C190.755 470.594 192.319 469.085 192.303 467.241C192.288 465.396 190.699 463.914 188.755 463.93C186.811 463.947 185.248 465.455 185.264 467.3C185.279 469.144 186.867 470.627 188.811 470.61Z" fill="#F6FAFE"/>
<path d="M653.99 261.5C653.99 261.5 650.62 254.15 643.4 254.21C636.18 254.27 632.92 261.67 632.92 261.67C632.92 261.67 593.82 271.44 594.24 317.36C594.66 363.28 618.4 379.91 644.44 379.69C670.48 379.47 693.97 362.44 693.59 316.54C693.21 270.64 653.99 261.5 653.99 261.5Z" fill="#DDC637"/>
<path d="M652.36 267.1C652.36 267.1 649.52 260.92 643.45 260.97C637.38 261.02 634.65 267.25 634.65 267.25C634.65 267.25 601.82 275.49 602.14 314.05C602.46 352.61 622.44 366.62 644.33 366.44C666.22 366.26 685.96 351.92 685.64 313.36C685.32 274.8 652.36 267.1 652.36 267.1Z" fill="#EDD946"/>
<path d="M685.99 354.9L681.28 344.38C605.88 348.44 601.82 300.89 601.82 300.89L596.01 300.74C594.736 306.186 594.132 311.768 594.21 317.36C594.59 363.25 618.37 379.91 644.41 379.69C661.28 379.55 677.05 372.37 685.99 354.9Z" fill="#DDC637"/>
<path d="M681.51 362.101C601.41 366.181 594.88 308.191 594.81 307.521C594.394 310.787 594.203 314.078 594.24 317.371C594.62 363.261 618.4 379.921 644.44 379.701C658.75 379.581 672.28 374.371 681.51 362.101Z" fill="#CEB42E"/>
<path d="M653.05 294.441C650.6 287.221 658.25 280.521 665.57 283.541L666.06 283.751C677.9 288.911 681.81 309.751 681.16 319.601C680.51 329.451 670.47 331.151 663.75 319.741C659.55 312.621 655.49 301.661 653.05 294.441Z" fill="#FAF28C"/>
<path d="M624.559 319.984C625.819 318.841 625.359 316.28 623.531 314.262C621.703 312.245 619.199 311.535 617.938 312.677C616.678 313.819 617.138 316.381 618.966 318.398C620.794 320.416 623.298 321.126 624.559 319.984Z" fill="#FAF28C"/>
<path d="M663.809 292.372C666.969 289.764 666.91 284.473 663.676 280.554C660.442 276.635 655.258 275.572 652.097 278.181C648.937 280.789 648.996 286.08 652.23 289.999C655.464 293.918 660.648 294.981 663.809 292.372Z" fill="#F6FAFE"/>
<path d="M669.014 297.453C670.958 297.437 672.522 295.928 672.506 294.084C672.491 292.239 670.902 290.757 668.958 290.773C667.014 290.79 665.451 292.298 665.466 294.143C665.482 295.987 667.07 297.469 669.014 297.453Z" fill="#F6FAFE"/>
</g>
<defs>
<clipPath id="clip0_4838_2007">
<rect width="781.24" height="963.9" fill="white"/>
</clipPath>
</defs>
</svg>
