<svg width="444" height="343" viewBox="0 0 444 343" fill="none" xmlns="http://www.w3.org/2000/svg">
<g clip-path="url(#clip0_4809_1670)">
<path d="M221.79 342.27C334.356 342.27 425.61 320.153 425.61 292.87C425.61 265.587 334.356 243.47 221.79 243.47C109.223 243.47 17.9697 265.587 17.9697 292.87C17.9697 320.153 109.223 342.27 221.79 342.27Z" fill="#A7A9AC"/>
<path d="M434.17 9.41998C433.93 9.32998 409.23 0 376.17 0C344.45 0 316.35 8.35996 292.66 24.83C278.201 35.0536 265.735 47.8376 255.88 62.55C255.783 58.6362 254.16 54.9153 251.358 52.1818C248.555 49.4482 244.795 47.9188 240.88 47.92H202.63C198.652 47.92 194.836 49.5003 192.023 52.3134C189.21 55.1264 187.63 58.9417 187.63 62.92V87.24C152.68 36.08 103.63 24.89 67.3798 24.89C34.8298 24.89 10.7398 33.81 9.72978 34.19C6.51437 35.3976 3.81077 37.672 2.07075 40.6333C0.330728 43.5946 -0.3403 47.0634 0.169778 50.46C17.1198 163.27 100.93 180.11 149.38 180.11C162.195 180.086 174.987 179.022 187.63 176.93V286.5C187.63 290.478 189.21 294.294 192.023 297.107C194.836 299.92 198.652 301.5 202.63 301.5H240.88C244.858 301.5 248.673 299.92 251.486 297.107C254.299 294.294 255.88 290.478 255.88 286.5V152.02L256.45 152.12H256.69C258.18 152.36 259.69 152.6 261.36 152.83H261.63L264.05 153.16H264.39L266.87 153.47H267.16C268.92 153.67 270.74 153.86 272.62 154.04H272.95C273.86 154.13 274.77 154.21 275.61 154.27H276.1L279 154.49H279.24C281.24 154.62 283.31 154.73 285.38 154.82H285.73L288.84 154.92H289.22C290.22 154.92 291.31 154.97 292.34 154.97H294.21C295.91 154.97 297.64 154.97 299.28 154.91H299.74C300.84 154.91 301.93 154.85 303.04 154.8H303.49C304.61 154.8 305.73 154.7 306.87 154.63H307.17C309.54 154.48 311.94 154.29 314.25 154.06H314.67C315.83 153.95 316.99 153.82 318.19 153.67L318.63 153.62C319.81 153.48 320.98 153.33 322.18 153.16L322.48 153.11C324.96 152.76 327.48 152.35 329.87 151.9L330.27 151.82C331.47 151.6 332.66 151.35 333.84 151.11L334.34 151C335.55 150.74 336.76 150.47 337.99 150.17L338.31 150.09C340.83 149.49 343.37 148.81 345.9 148.09L346.23 147.99C347.44 147.63 348.65 147.25 349.84 146.87L350.36 146.7C351.58 146.3 352.8 145.88 354.01 145.45L354.33 145.33C356.87 144.42 359.41 143.42 361.87 142.33L362.27 142.16C363.47 141.64 364.67 141.11 365.8 140.58L366.34 140.33C367.54 139.76 368.74 139.18 369.94 138.57L370.25 138.41C372.74 137.14 375.25 135.78 377.56 134.41L377.99 134.15C379.15 133.46 380.3 132.74 381.48 131.99L381.95 131.68C383.18 130.88 384.3 130.12 385.38 129.37L385.69 129.15C388.05 127.49 390.39 125.72 392.69 123.87L393.05 123.57C394.11 122.7 395.2 121.77 396.31 120.8L396.75 120.41C397.89 119.41 398.93 118.41 399.94 117.47L400.23 117.2C402.4 115.11 404.55 112.89 406.65 110.56L406.95 110.22C407.95 109.15 408.89 108 409.84 106.86L410.3 106.3C411.3 105.05 412.24 103.88 413.12 102.73L413.4 102.36C415.32 99.82 417.2 97.14 419 94.36L419.29 93.9C420.13 92.59 420.97 91.23 421.77 89.9L422.15 89.25C422.99 87.81 423.8 86.38 424.54 85.01L424.79 84.55C425.67 82.91 426.45 81.39 427.17 79.92C434.92 64.13 440.4 45.8 443.46 25.43C443.925 22.1068 443.263 18.7235 441.579 15.8212C439.895 12.9188 437.286 10.6649 434.17 9.41998Z" fill="#231F20"/>
<path d="M240.85 62.9102H202.63V286.5H240.85V62.9102Z" fill="#66BE64"/>
<path d="M202.73 158.41C159.09 -5.17994 15.01 48.2301 15 48.2301C84.56 72.5401 147.4 108.8 202.73 158.41Z" fill="#66BE64"/>
<path d="M15 48.2305C38.69 205.86 202.73 158.41 202.73 158.41C147.4 108.8 84.56 72.5405 15 48.2305Z" fill="#4CA84E"/>
<path d="M125.11 74.717C128.689 68.5183 124.316 59.2937 115.343 54.1133C106.371 48.9328 96.1955 49.7583 92.6167 55.957C89.0379 62.1557 93.4106 71.3802 102.383 76.5607C111.356 81.7411 121.531 80.9157 125.11 74.717Z" fill="#F6FAFE"/>
<path d="M136.91 89.6404C141.383 89.6404 145.01 86.0139 145.01 81.5404C145.01 77.0669 141.383 73.4404 136.91 73.4404C132.436 73.4404 128.81 77.0669 128.81 81.5404C128.81 86.0139 132.436 89.6404 136.91 89.6404Z" fill="#F6FAFE"/>
<path d="M240.88 133.52C284.5 -30.0696 428.57 23.3404 428.58 23.3404C359.02 47.6504 296.18 83.9104 240.88 133.52Z" fill="#66BE64"/>
<path d="M428.58 23.3398C404.88 180.97 240.88 133.52 240.88 133.52C296.18 83.9098 359.02 47.6498 428.58 23.3398Z" fill="#4CA84E"/>
<g style="mix-blend-mode:multiply">
<path d="M413.65 73.4502C301.5 131.45 261.47 81.7802 261.47 81.7802C253.34 95.9902 246.31 113.05 240.85 133.52C240.88 133.52 366.35 169.82 413.65 73.4502Z" fill="#4CA84E"/>
</g>
<g style="mix-blend-mode:multiply">
<path d="M202.73 158.41C197.29 138.02 190.29 121.01 182.2 106.83C86.44 155.4 34.51 106.83 34.5 106.83C84.88 192.51 202.73 158.41 202.73 158.41Z" fill="#4CA84E"/>
</g>
</g>
<defs>
<clipPath id="clip0_4809_1670">
<rect width="443.58" height="342.27" fill="white"/>
</clipPath>
</defs>
</svg>
