<svg width="594" height="624" viewBox="0 0 594 624" fill="none" xmlns="http://www.w3.org/2000/svg">
<g clip-path="url(#clip0_6378_827)">
<path d="M114.701 300.711L116.791 300.921L118.451 301.061H118.911L121.011 301.231L123.111 301.381L125.251 301.521L127.101 301.631L129.571 301.761L131.331 301.841L133.891 301.941L136.051 302.011L138.261 302.071H140.471H142.661H144.901H151.641H153.911H156.181H158.481H160.751L165.391 301.971L167.771 301.901L170.121 301.831L174.881 301.671L179.631 301.501L184.511 301.301L191.911 300.971L200.841 300.561C202.361 300.491 203.911 300.451 205.431 300.451C249.181 300.451 278.741 330.451 279.161 330.871C281.469 333.281 284.515 334.853 287.817 335.337C291.119 335.822 294.488 335.191 297.391 333.546C300.295 331.9 302.566 329.333 303.847 326.252C305.127 323.17 305.343 319.749 304.461 316.531C304.241 315.711 303.981 314.901 303.721 314.091L303.641 313.831C303.371 312.971 303.081 312.111 302.771 311.261C301.387 307.459 299.688 303.779 297.691 300.261C296.931 298.901 296.111 297.541 295.251 296.261C294.791 295.551 294.321 294.851 293.841 294.151C291.206 290.366 288.277 286.795 285.081 283.471C284.981 283.351 284.871 283.241 284.781 283.151C278.033 276.291 270.439 270.32 262.181 265.381C247.444 256.586 231.364 250.269 214.581 246.681C199.501 243.481 179.511 242.931 160.171 242.401C141.561 241.901 122.321 241.401 109.981 238.501C108.097 238.079 106.246 237.525 104.441 236.841L103.491 236.461C102.851 236.201 102.211 235.931 101.561 235.641C100.911 235.351 100.291 235.071 99.6512 234.761C99.2312 234.561 98.8112 234.361 98.3812 234.141C97.9512 233.921 97.3812 233.621 96.8112 233.341C96.2412 233.061 95.5712 232.671 94.9612 232.341L93.6812 231.591L92.2411 230.711C90.9012 229.851 89.5812 228.941 88.3312 227.991C87.9412 227.691 87.5512 227.391 87.1712 227.081C86.2512 226.351 85.3512 225.561 84.4712 224.741L83.7711 224.081C82.0373 222.405 80.4607 220.574 79.0612 218.611C78.8212 218.271 78.5912 217.931 78.3512 217.611C77.3504 216.082 76.4838 214.469 75.7612 212.791C75.5912 212.391 75.4212 211.981 75.2612 211.561C74.1847 208.701 73.5311 205.699 73.3212 202.651C73.3212 201.961 73.2512 201.251 73.2411 200.551V200.461C73.2411 199.731 73.2411 198.971 73.2411 198.221C73.3011 197.011 73.4212 195.771 73.5912 194.521C74.1721 190.597 75.1538 186.744 76.5211 183.021C76.7611 182.361 77.0112 181.711 77.2612 181.091L77.4612 180.601C77.6912 180.041 77.9212 179.501 78.1812 178.951L78.2711 178.741C78.5211 178.201 78.7712 177.681 79.0412 177.151L79.2411 176.761C79.4712 176.321 79.7011 175.881 79.9612 175.431L80.1012 175.171C80.3612 174.721 80.6312 174.281 80.9112 173.841L81.1112 173.521C81.3445 173.161 81.5845 172.801 81.8312 172.441L81.9812 172.211C82.2612 171.821 82.5512 171.431 82.8712 171.011L83.0312 170.821C83.2712 170.511 83.5112 170.211 83.7312 169.951L83.9412 169.701C84.2312 169.361 84.5211 169.041 84.7711 168.771L84.9812 168.561L85.7411 167.801L85.9312 167.601L86.7411 166.861L86.9712 166.671C87.2212 166.451 87.4612 166.251 87.6712 166.091L87.9412 165.871L88.7512 165.251L88.9412 165.081L89.7711 164.511L89.9712 164.381L90.7812 163.881L90.9112 163.801C91.2012 163.631 91.5011 163.481 91.8011 163.321L92.0412 163.191C92.3112 163.051 92.5812 162.911 92.8112 162.811L92.9612 162.731L93.7912 162.361L94.0912 162.241L94.8412 161.941L95.0712 161.851L95.9812 161.541L96.1512 161.481L96.9212 161.241H97.0812L97.9512 161.001L98.2112 160.941L98.9512 160.771H99.1512L100.041 160.591L100.951 160.441H101.211L102.011 160.341H102.221L103.011 160.261H103.131L103.911 160.201H104.721H105.631H106.501H107.321C108.663 160.242 110 160.382 111.321 160.621C112.077 160.835 112.856 160.953 113.641 160.971C117.641 161.291 126.981 163.481 130.701 168.191C131.701 169.511 133.041 171.871 132.241 177.041C130.811 186.171 123.181 190.811 109.531 190.811C107.531 190.811 106.201 190.671 106.191 190.671C105.587 190.599 104.979 190.563 104.371 190.561C101.424 190.561 98.543 191.429 96.0865 193.057C93.6301 194.684 91.7074 196.999 90.5586 199.713C89.4098 202.426 89.0857 205.418 89.6268 208.315C90.1679 211.212 91.5502 213.885 93.6012 216.001C98.4887 221.082 104.356 225.119 110.847 227.869C117.339 230.619 124.321 232.025 131.371 232.001C150.371 232.001 169.441 222.101 182.501 205.491C182.671 205.301 182.831 205.091 182.991 204.891L183.471 204.231C184.111 203.381 184.751 202.491 185.361 201.611L185.481 201.431L186.051 200.591C186.971 199.211 187.761 197.961 188.471 196.751C191.551 191.587 193.77 185.957 195.041 180.081C195.301 178.841 195.521 177.591 195.691 176.351C196.113 173.303 196.25 170.223 196.101 167.151V166.981C195.885 162.845 195.18 158.75 194.001 154.781C193.831 154.221 193.661 153.651 193.481 153.111C193.121 152.021 192.721 150.921 192.281 149.821C191.841 148.721 191.401 147.691 190.911 146.661C190.421 145.631 189.911 144.601 189.381 143.581C189.111 143.081 188.831 142.581 188.551 142.091C187.731 140.641 186.821 139.181 185.851 137.741L184.901 136.361C176.271 124.081 163.141 113.491 147.941 106.401C132.146 99.1901 115.067 95.2185 97.7112 94.7207H95.5112H95.3912C92.2812 94.7207 89.1612 94.8507 86.1112 95.1207H85.7411C84.1812 95.2607 82.6312 95.4407 81.1712 95.6407L78.7411 96.0007C63.4294 98.362 49.0226 104.758 37.0012 114.531C35.7912 115.531 34.7912 116.381 33.8412 117.231C33.1212 117.881 32.3912 118.551 31.6812 119.231C28.6324 122.168 25.7827 125.305 23.1512 128.621C22.1512 129.831 21.2312 131.101 20.2912 132.391C19.1512 133.981 18.0112 135.661 16.9112 137.391C16.3312 138.291 15.7612 139.221 15.1912 140.171C14.2912 141.681 13.5512 142.971 12.8712 144.171L12.8112 144.281C12.3312 145.171 11.8612 146.061 11.4112 146.941L10.9412 147.881C10.6412 148.491 10.3312 149.111 10.0412 149.721L9.51117 150.851L8.76117 152.501C8.59117 152.901 8.41117 153.301 8.23117 153.731C8.05117 154.161 7.79115 154.731 7.55115 155.341L7.07117 156.531C6.89117 156.981 6.72115 157.431 6.55115 157.881L6.37116 158.341C6.25116 158.671 6.12115 159.001 5.99115 159.341C5.86115 159.681 5.76116 159.991 5.65116 160.341L5.55115 160.621C5.19115 161.621 4.85115 162.691 4.55115 163.711C4.55115 163.711 4.34115 164.391 4.27115 164.601C4.09115 165.211 3.91115 165.821 3.74115 166.431L3.50116 167.281C3.33116 167.911 3.16117 168.531 3.01117 169.141L2.81116 169.921C2.65116 170.581 2.50117 171.251 2.35117 171.921L2.23117 172.471C1.36024 176.481 0.742346 180.543 0.381167 184.631C-0.713841 197.431 0.796559 210.32 4.82117 222.521V222.651C6.42495 227.516 8.38698 232.255 10.6912 236.831C11.1312 237.721 11.5912 238.601 12.0612 239.471V239.541C14.4092 243.889 17.0415 248.079 19.9412 252.081L20.0612 252.251C20.5812 252.971 21.1112 253.681 21.6712 254.401L21.7912 254.571C24.0812 257.571 26.5412 260.461 29.0712 263.161L29.3812 263.491C29.9112 264.051 30.4412 264.611 30.9712 265.151L31.3612 265.551L32.9612 267.141L33.3012 267.471C33.9112 268.051 34.5112 268.621 35.1312 269.191L35.2312 269.281C36.5412 270.501 37.9012 271.691 39.2312 272.821L39.6612 273.191L41.2512 274.481L41.8312 274.941C42.3112 275.321 42.8312 275.691 43.2612 276.041L43.9012 276.531L45.4212 277.651L45.9612 278.041L47.7512 279.291L48.0212 279.481L50.1112 280.861L50.5912 281.171L52.2412 282.171L52.9412 282.591L54.3112 283.401L55.1112 283.851L56.4512 284.601L57.2412 285.021L58.7112 285.781L59.3712 286.111C60.0812 286.471 60.7912 286.811 61.5012 287.111C62.7312 287.681 63.9612 288.231 65.2012 288.761L66.2012 289.161L66.7711 289.391C67.5111 289.701 68.2512 290.011 68.9612 290.281C69.3512 290.441 69.7512 290.591 70.1412 290.731L70.9212 291.021C71.5312 291.251 72.1412 291.491 72.7711 291.711C73.1778 291.864 73.5878 292.004 74.0012 292.131L74.9012 292.441L76.6012 293.021L77.8812 293.421L78.6812 293.671L80.4312 294.211L81.8512 294.621L82.7411 294.871L84.3412 295.311L85.7012 295.661L86.6412 295.901L88.2812 296.311C88.7512 296.431 89.2312 296.531 89.7012 296.641L90.4712 296.821L92.2411 297.221L93.6012 297.501L94.6612 297.711L96.2112 298.021L97.7411 298.301L98.5412 298.451L100.271 298.751L101.941 299.081L102.801 299.211L104.411 299.461L106.911 299.811L108.491 300.021L110.021 300.211L110.961 300.321L112.641 300.521L114.701 300.711Z" fill="#231F20"/>
<path d="M424.149 416.311C403.089 416.311 381.599 422.101 360.289 433.511C359.929 433.701 359.569 433.921 359.219 434.141C280.939 484.881 241.419 492.461 224.859 492.461C222.902 492.475 220.946 492.342 219.009 492.061L218.459 491.971L217.929 491.861L217.509 491.771L217.149 491.681L216.599 491.521L216.189 491.381C214.514 490.75 212.739 490.428 210.949 490.431C207.722 490.43 204.58 491.47 201.991 493.396C199.402 495.323 197.503 498.033 196.577 501.125C195.65 504.216 195.746 507.524 196.849 510.557C197.951 513.59 200.003 516.186 202.699 517.961C203.376 518.409 204.088 518.8 204.829 519.131L206.369 519.791L208.639 520.731L210.759 521.561C211.559 521.861 212.409 522.181 213.319 522.501L214.689 522.991L216.109 523.481L217.649 523.991L219.239 524.501L220.939 525.081L222.709 525.611L224.709 526.171L226.899 526.761C228.899 527.301 231.029 527.821 233.039 528.271L233.339 528.341L235.259 528.761L235.699 528.851L237.449 529.211L238.039 529.331L239.879 529.681L242.199 530.101L242.749 530.191L245.169 530.581C245.819 530.691 246.479 530.781 247.169 530.891L247.569 530.951L249.799 531.241H250.169C252.819 531.571 255.499 531.851 258.169 532.061H258.539L260.859 532.231H261.539L263.679 532.341H264.439L266.439 532.421H267.289H269.289H273.129C273.839 532.421 274.559 532.421 275.239 532.421H276.079L278.419 532.341H279.099L281.989 532.181H282.119C284.189 532.051 286.299 531.881 288.429 531.661L289.059 531.591C289.879 531.511 290.709 531.411 291.539 531.311L292.539 531.191L294.779 530.891L295.859 530.731C296.549 530.631 297.239 530.531 297.949 530.411L299.119 530.221L301.219 529.851L302.409 529.621C303.089 529.491 303.779 529.361 304.479 529.211L305.689 528.961L307.779 528.501L308.979 528.231C309.719 528.051 310.479 527.871 311.239 527.671L312.299 527.411L314.929 526.701L315.629 526.511C316.759 526.191 317.899 525.861 319.029 525.511H319.159C320.239 525.181 321.309 524.841 322.379 524.511L323.379 524.161C324.169 523.901 324.959 523.631 325.719 523.361L326.989 522.901L329.129 522.111L330.489 521.581L332.549 520.761L333.959 520.181L335.959 519.321L337.409 518.691L339.409 517.781L340.859 517.111L342.859 516.111L344.289 515.401L346.399 514.321L347.729 513.631L350.039 512.371L351.169 511.751C352.309 511.101 353.459 510.441 354.609 509.751C361.986 505.329 369.736 501.562 377.769 498.491C378.689 498.141 379.609 497.811 380.529 497.491C382.319 496.861 384.139 496.281 385.929 495.751C388.539 494.981 391.179 494.311 393.759 493.751C395.429 493.391 397.119 493.081 398.759 492.821C400.399 492.561 402.029 492.351 403.629 492.191C406.319 491.921 409.009 491.781 411.629 491.781C415.614 491.774 419.592 492.109 423.519 492.781C424.849 493.011 426.179 493.291 427.519 493.601C428.859 493.911 430.079 494.261 431.309 494.601C436.094 496.08 440.656 498.202 444.869 500.911C445.869 501.581 446.869 502.281 447.869 503.001C448.349 503.361 448.869 503.731 449.299 504.111C450.249 504.871 451.169 505.671 452.069 506.491C452.509 506.901 452.939 507.311 453.389 507.751C454.249 508.601 455.089 509.491 455.899 510.401C456.709 511.311 457.509 512.281 458.269 513.261C464.341 521.32 468.45 530.685 470.269 540.611C470.383 541.171 470.482 541.731 470.569 542.291L470.679 543.111C470.679 543.411 470.769 543.701 470.799 543.951L470.889 544.951C470.889 545.161 470.889 545.361 470.889 545.521L470.939 546.521C470.939 546.681 470.939 546.831 470.939 546.951V548.341L470.879 549.631L470.769 550.821L470.609 551.941L470.399 553.001L470.149 554.001L469.869 554.901L469.559 555.751C469.499 555.881 469.449 556.011 469.359 556.201L469.219 556.541L468.989 556.991L468.839 557.281C468.769 557.431 468.679 557.571 468.609 557.701L468.449 557.981L468.019 558.651L467.729 559.051L467.539 559.311L467.199 559.721L467.089 559.861L466.729 560.271L466.559 560.451L466.199 560.811L466.039 560.971L465.579 561.391L465.459 561.501L464.969 561.901L464.939 562.081L464.459 562.441L464.319 562.541L463.779 562.901L463.629 562.991C463.449 563.111 463.259 563.231 463.059 563.341L462.939 563.411L462.399 563.701L462.219 563.801L461.459 564.161C461.239 564.261 461.019 564.361 460.739 564.471H460.669L459.909 564.751H459.829L459.079 565.001H459.029L458.189 565.231L457.309 565.441C455.693 565.79 454.043 565.965 452.389 565.961C445.699 565.961 437.259 562.961 435.509 554.631C434.509 549.741 434.949 547.541 435.129 546.931C436.724 546.328 438.428 546.069 440.129 546.171C442.825 546.199 445.509 546.535 448.129 547.171C451.156 548.022 454.374 547.9 457.328 546.823C460.282 545.746 462.823 543.767 464.592 541.168C466.361 538.568 467.267 535.478 467.184 532.334C467.101 529.191 466.033 526.153 464.129 523.651C460.239 518.593 455.222 514.513 449.478 511.735C443.733 508.957 437.419 507.559 431.039 507.651C425.023 507.641 419.068 508.864 413.544 511.247C408.019 513.629 403.042 517.119 398.919 521.501C392.669 528.221 385.519 540.191 386.919 559.141C389.839 599.631 418.319 618.791 441.809 622.901C445.776 623.549 449.79 623.86 453.809 623.831C492.379 623.831 537.499 600.561 537.729 534.991C537.715 502.813 525.004 471.941 502.359 449.081C492.146 438.707 479.972 430.467 466.545 424.842C453.118 419.216 438.707 416.316 424.149 416.311Z" fill="#231F20"/>
<path d="M593.521 191.779C590.631 151.859 573.421 115.729 557.521 85.0092C557.351 84.6792 557.171 84.3592 556.971 84.0092C539.391 55.4192 517.591 33.6792 492.181 19.3992C469.293 6.5182 443.444 -0.178328 417.181 -0.0308178C372.421 -0.0308178 326.681 18.6192 294.821 49.8592C265.341 78.7792 251.111 115.329 253.681 155.569C255.961 191.259 270.801 220.649 277.071 231.629C292.011 257.769 325.711 284.149 367.301 284.149C387.141 284.149 407.301 278.359 427.301 266.939C450.141 253.939 462.561 237.109 464.211 217.069C467.301 179.739 430.421 148.499 426.211 145.069C423.467 142.86 420.034 141.687 416.513 141.756C412.992 141.824 409.607 143.129 406.951 145.443C404.295 147.756 402.538 150.93 401.988 154.409C401.438 157.887 402.129 161.449 403.941 164.469C418.941 189.369 409.491 202.929 407.731 205.089C403.231 209.479 388.641 220.799 374.731 220.799C370.671 220.799 358.501 220.719 346.021 198.889C337.501 183.989 332.411 170.309 330.881 158.219C328.391 138.479 335.881 127.279 341.261 119.099L342.731 116.869L343.311 115.959L343.951 114.959C344.644 114.093 345.396 113.274 346.201 112.509L347.091 111.649L348.521 110.339L349.181 109.749L350.181 108.859L350.361 108.699C351.851 107.459 353.421 106.219 355.061 105.009L355.821 104.449L356.941 103.659L357.941 102.989C358.791 102.409 359.671 101.819 360.561 101.239C363.291 99.4792 366.111 97.8192 368.951 96.3292C369.804 95.8892 370.674 95.4492 371.561 95.0092L372.561 94.4992C374.121 93.7592 375.731 93.0492 377.341 92.3892C377.771 92.2092 378.211 92.0292 378.661 91.8592L379.391 91.5692L381.071 90.9492L381.751 90.6992C383.431 90.1192 385.121 89.5792 386.751 89.0992C388.121 88.7192 389.511 88.3592 390.891 88.0492L392.771 87.6492C394.081 87.3892 395.371 87.1692 396.631 86.9892L397.841 86.8292L399.161 86.6792C401.161 86.4692 403.161 86.3492 405.071 86.3292H405.941C413.405 86.318 420.803 87.7263 427.741 90.4792C428.181 90.6492 428.611 90.8292 429.031 91.0092C431.257 91.9504 433.427 93.0188 435.531 94.2092C442.487 98.2293 448.823 103.238 454.341 109.079C455.271 110.079 456.191 111.079 457.081 112.079C463.892 119.83 469.877 128.269 474.941 137.259C492.381 167.769 495.511 195.259 484.531 221.259C483.741 223.129 482.861 225.009 481.931 226.859C481.621 227.469 481.301 228.089 480.931 228.709C479.931 230.539 478.931 232.389 477.751 234.209C477.371 234.822 476.981 235.433 476.581 236.039C475.801 237.249 474.971 238.469 474.121 239.669C471.469 243.39 468.615 246.962 465.571 250.369C464.571 251.549 463.431 252.729 462.341 253.879C461.251 255.029 460.101 256.199 458.921 257.359C457.741 258.519 456.561 259.639 455.321 260.789C452.871 263.059 450.321 265.339 447.591 267.549C444.861 269.759 442.061 271.989 439.151 274.149L436.941 275.729C415.101 291.529 387.131 305.889 353.831 318.409L350.581 319.609C327.933 327.867 304.84 334.848 281.411 340.519L277.771 341.409C270.541 343.139 263.111 344.809 255.701 346.409C163.971 365.669 130.441 420.859 118.471 463.759C118.081 465.189 117.701 466.609 117.341 468.019C114.871 477.892 113.199 487.948 112.341 498.089C112.241 499.329 112.151 500.549 112.061 501.769C111.841 505.219 111.691 508.769 111.641 512.219C111.641 512.769 111.641 513.319 111.641 513.859C111.641 514.946 111.641 516.016 111.641 517.069C111.641 518.639 111.641 520.169 111.731 521.649C111.731 522.649 111.801 523.649 111.841 524.549C111.881 525.449 111.931 526.399 111.991 527.289C112.061 528.629 112.151 529.919 112.251 531.159C112.711 536.999 113.341 541.569 113.781 544.379L113.971 545.549C114.271 547.339 114.481 548.289 114.481 548.289C115.214 551.637 117.072 554.632 119.744 556.777C122.417 558.923 125.744 560.088 129.171 560.079H129.491C132.929 560.015 136.242 558.77 138.872 556.555C141.503 554.339 143.292 551.287 143.941 547.909C144.221 546.769 151.311 519.379 173.131 489.229C199.591 452.649 234.561 429.959 277.051 421.789C284.241 420.409 291.841 419.039 299.891 417.579C369.331 405.009 464.431 387.799 536.141 322.699C577.771 284.879 597.091 240.829 593.521 191.779ZM408.021 204.779L407.921 204.889L408.021 204.779Z" fill="#231F20"/>
<path d="M290.002 320.53C290.002 320.53 254.392 283.08 200.132 285.61C145.872 288.14 102.942 289.82 67.8816 273.55C33.5316 257.61 -4.17839 206.91 26.0516 151.4C56.2816 95.8896 115.162 107.67 141.602 120C168.042 132.33 192.452 160.23 175.602 188.91C158.752 217.59 124.412 225.91 104.442 205.33C104.442 205.33 142.312 209.94 147.112 179.11C151.912 148.28 114.792 145.78 114.792 145.78C114.792 145.78 77.2416 136.78 62.4516 177.78C47.6616 218.78 74.6816 241.18 98.9416 250.75C123.202 260.32 180.592 254.75 211.462 261.31C242.332 267.87 280.942 287.62 290.002 320.53Z" fill="#F48873"/>
<path d="M211.459 261.31C180.589 254.75 123.189 260.31 98.9385 250.75C74.6885 241.19 47.6585 218.89 62.4485 177.82C73.2985 147.68 96.4485 144.52 107.949 144.98C91.7485 140.72 71.3185 142.67 56.4085 169.18C27.6885 220.25 68.9385 247.84 80.9385 255.98C92.9385 264.12 118.939 269.11 168.029 269.35C217.118 269.59 222.848 270.85 238.598 277.69C272.668 292.51 290.038 320.53 290.038 320.53C280.938 287.62 242.329 267.86 211.459 261.31Z" fill="#F8AFA3"/>
<path d="M26.0508 151.4C20.1066 162.038 16.4454 173.798 15.3008 185.93C19.0008 170.69 25.7408 156.47 37.4408 147.06C75.9908 116.06 116.371 113.14 150.161 135.88C187.061 160.7 171.161 195.41 171.161 195.53C172.783 193.418 174.273 191.207 175.621 188.91C192.471 160.23 168.071 132.32 141.621 120C115.171 107.68 56.2708 95.8804 26.0508 151.4Z" fill="#F8AFA3"/>
<path d="M67.8795 273.549C102.27 289.549 144.23 288.209 197.03 285.749L196.66 285.339C196.66 285.339 113.55 280.929 95.0396 275.259C76.5295 269.589 50.3595 261.789 18.2695 215.369C26.2795 242.729 47.6595 264.159 67.8795 273.549Z" fill="#F06043"/>
<path d="M43.164 149.679C48.4732 143.537 50.9311 136.962 48.6539 134.994C46.3768 133.025 40.2269 136.409 34.9177 142.551C29.6086 148.693 27.1507 155.268 29.4278 157.236C31.705 159.204 37.8549 155.821 43.164 149.679Z" fill="white"/>
<path d="M51.4683 132.601C53.2522 132.601 54.6983 131.155 54.6983 129.371C54.6983 127.587 53.2522 126.141 51.4683 126.141C49.6844 126.141 48.2383 127.587 48.2383 129.371C48.2383 131.155 49.6844 132.601 51.4683 132.601Z" fill="white"/>
<path d="M173.187 188.218C176.33 182.29 176.936 176.454 174.54 175.184C172.144 173.914 167.654 177.69 164.511 183.619C161.368 189.547 160.763 195.383 163.158 196.653C165.554 197.923 170.044 194.147 173.187 188.218Z" fill="white"/>
<path d="M187.681 319.239C189.421 319.239 190.831 317.829 190.831 316.089C190.831 314.35 189.421 312.939 187.681 312.939C185.942 312.939 184.531 314.35 184.531 316.089C184.531 317.829 185.942 319.239 187.681 319.239Z" fill="white"/>
<path d="M452.261 532.85C437.591 513.55 399.261 522.03 401.921 558.2C404.581 594.37 431.411 605.99 444.421 608.26C461.191 611.19 522.501 608.2 522.761 535.07C523.001 466.07 453.461 400.65 367.371 446.73C243.991 526.73 209.371 504.73 209.371 504.73C209.371 504.73 277.141 538.41 347.001 496.94C416.861 455.47 474.091 482.78 485.001 537.83C495.161 588.91 428.331 593.73 420.841 557.83C413.351 521.93 452.261 532.85 452.261 532.85Z" fill="#F48873"/>
<path d="M333.32 488.141C394.19 448.141 430.78 443.141 460.56 461.581C498.35 485.051 503.359 515.581 501.669 538.091C501.669 538.091 503.94 578.151 460.52 580.211C476.52 576.741 490 562.831 485.02 537.791C474.02 482.741 416.85 455.441 347.02 496.901C283.41 534.661 221.54 510.121 211.02 505.431C212.861 506.107 214.768 506.59 216.71 506.871C234.94 511.601 284.83 520.001 333.32 488.141Z" fill="#F8AFA3"/>
<path d="M210.942 505.429C210.392 505.228 209.86 504.981 209.352 504.689C209.352 504.689 209.942 504.969 210.942 505.429Z" fill="#B6E0D8"/>
<path d="M492.119 482.886C496.02 479.378 493.993 470.761 487.59 463.64C481.187 456.519 472.833 453.589 468.931 457.097C465.03 460.605 467.058 469.222 473.461 476.343C479.864 483.465 488.217 486.394 492.119 482.886Z" fill="white"/>
<path d="M493.318 500.25C496.626 500.25 499.308 497.568 499.308 494.26C499.308 490.951 496.626 488.27 493.318 488.27C490.01 488.27 487.328 490.951 487.328 494.26C487.328 497.568 490.01 500.25 493.318 500.25Z" fill="white"/>
<path d="M461.033 599.633C461.674 595.462 456.255 591.168 448.93 590.042C441.604 588.916 435.146 591.384 434.505 595.554C433.864 599.725 439.282 604.018 446.608 605.145C453.933 606.271 460.392 603.803 461.033 599.633Z" fill="white"/>
<path d="M129.17 545.15C129.17 545.15 97.5002 394.92 258.8 361.08C420.1 327.24 555.83 248.59 487.94 129.82C425.57 20.6995 338.09 95.3495 331.15 107.08C324.21 118.81 298.35 145.83 332.96 206.37C367.57 266.91 418.66 215.37 418.66 215.37C418.66 215.37 439.19 193.86 416.75 156.72C416.75 156.72 488.13 214.95 419.89 253.96C354.83 291.14 305.99 252.02 290.1 224.22C274.21 196.42 243.73 121.08 305.34 60.5995C360.48 6.50951 477.08 -17.2605 544.2 91.8995C572.89 147.35 613.2 232.46 526.03 311.6C449.42 381.15 343.03 393.82 274.2 407.06C161.73 428.68 130.23 538.97 129.17 545.15Z" fill="#F48873"/>
<path d="M210.848 403.499C270.048 375.819 558.898 338.209 546.248 207.989C533.598 77.7692 449.938 19.6692 364.558 57.7692C303.318 85.0892 304.559 128.769 315.958 160.109C312.258 130.839 326.309 115.189 331.148 107.039C338.089 95.3492 425.568 20.6992 487.938 129.819C555.828 248.589 420.088 327.179 258.798 361.079C97.5085 394.979 129.168 545.179 129.168 545.179C129.168 545.179 131.868 440.429 210.848 403.499Z" fill="#F8AFA3"/>
<path d="M552.803 174.832C561.684 171.075 560.863 149.071 550.969 125.683C541.076 102.296 525.856 86.3819 516.975 90.1389C508.094 93.8958 508.915 115.901 518.809 139.288C528.702 162.676 543.922 178.589 552.803 174.832Z" fill="white"/>
<path d="M507.691 84.2393C512.789 84.2393 516.921 80.1069 516.921 75.0093C516.921 69.9117 512.789 65.7793 507.691 65.7793C502.593 65.7793 498.461 69.9117 498.461 75.0093C498.461 80.1069 502.593 84.2393 507.691 84.2393Z" fill="white"/>
<path d="M237.149 399.625C251.8 394.133 261.88 384.889 259.664 378.978C257.448 373.067 243.775 372.727 229.125 378.22C214.474 383.712 204.394 392.956 206.61 398.867C208.826 404.778 222.499 405.117 237.149 399.625Z" fill="white"/>
<path d="M195.349 419.141C199.789 419.141 203.389 415.541 203.389 411.101C203.389 406.66 199.789 403.061 195.349 403.061C190.908 403.061 187.309 406.66 187.309 411.101C187.309 415.541 190.908 419.141 195.349 419.141Z" fill="white"/>
</g>
<defs>
<clipPath id="clip0_6378_827">
<rect width="593.94" height="623.97" fill="white"/>
</clipPath>
</defs>
</svg>
