<svg width="174" height="246" viewBox="0 0 174 246" fill="none" xmlns="http://www.w3.org/2000/svg">
<g clip-path="url(#clip0_4780_417)">
<path d="M87.004 245.56C135.055 245.56 174.008 234.202 174.008 220.191C174.008 206.179 135.055 194.821 87.004 194.821C38.953 194.821 0 206.179 0 220.191C0 234.202 38.953 245.56 87.004 245.56Z" fill="#A7A9AC"/>
<path d="M87.0436 218.209C84.6919 218.202 82.3949 217.499 80.4427 216.187C77.5608 214.269 9.83838 168.544 9.83838 109.278C9.83838 108.386 9.83838 107.502 9.89366 106.625C9.89366 106.349 9.94103 105.299 9.94103 105.299C9.94103 104.785 10.0042 104.319 10.0358 103.846C10.0358 103.664 10.0358 103.412 10.0831 103.151C10.1226 102.701 10.1542 102.274 10.1937 101.856C10.1937 101.856 10.3042 100.758 10.3279 100.537V100.301C10.4227 99.5109 10.5174 98.7687 10.628 98.0265C10.628 97.9633 10.628 97.8844 10.628 97.8291L10.7306 97.158C10.8254 96.5421 10.928 95.9105 11.0385 95.2788L11.1649 94.5445C11.3228 93.7549 11.4807 92.8863 11.6623 92.0573L11.7413 91.7099C11.9071 90.9756 12.065 90.2729 12.2387 89.578L12.444 88.7885C12.594 88.1884 12.7519 87.6041 12.9099 87.0119L13.1151 86.2854C13.3441 85.4959 13.5731 84.7063 13.8179 83.9167L13.9995 83.3561C14.2048 82.7324 14.4022 82.1322 14.6075 81.5401C14.7101 81.2321 14.8128 80.9479 14.9075 80.6557L15.476 79.0766L15.7681 78.287C16.0603 77.4974 16.3445 76.8026 16.6367 76.0762L16.9525 75.2866C17.1657 74.7734 17.3789 74.268 17.6 73.7706C17.7263 73.4627 17.8684 73.1468 18.0105 72.831C18.2158 72.3651 18.4211 71.9151 18.6343 71.465L19.037 70.5807C19.3607 69.8938 19.6845 69.2305 20.0161 68.5672C20.1345 68.3225 20.4898 67.6276 20.4898 67.6276L21.1215 66.3959L21.6505 65.3932C21.84 65.03 22.0453 64.6588 22.2585 64.2798L22.8112 63.2692C23.1507 62.6612 23.4981 62.0532 23.8534 61.4374C24.0114 61.161 24.193 60.8688 24.3667 60.5688C24.3667 60.5688 24.8483 59.7792 25.0457 59.4318L25.7169 58.3264L26.2775 57.4263C26.7196 56.7235 27.1855 55.9971 27.6592 55.2786L28.0382 54.6943C28.2988 54.2916 28.5672 53.9047 28.8278 53.5099L29.3095 52.7993C29.5858 52.3966 29.8543 52.0097 30.099 51.615L30.5254 51.007C31.165 50.0911 31.8045 49.2068 32.452 48.3224V48.275C52.6258 20.9082 79.211 3.05571 80.3322 2.31351C82.2752 1.02167 84.5564 0.33252 86.8897 0.33252C89.2229 0.33252 91.5042 1.02167 93.4471 2.31351C96.4712 4.23219 164.162 49.9726 164.162 109.246C164.162 121.39 161.288 133.881 155.611 146.357C148.836 161.264 138.137 176.156 123.807 190.613C123.356 191.063 117.079 197.119 116.653 197.506L116.534 197.616C112.5 201.335 108.299 204.936 104.051 208.315L103.956 208.394C101.896 210.029 99.8743 211.552 97.9477 213.005L97.1582 213.558L94.5999 215.382L93.9051 215.856L93.534 216.108C91.6324 217.448 89.3696 218.18 87.0436 218.209V218.209Z" fill="#231F20"/>
<path d="M152.318 109.247C152.318 162.836 86.9959 206.286 86.9959 206.286C86.9959 206.286 21.6738 162.859 21.6738 109.239C21.6738 55.6183 86.9959 12.1914 86.9959 12.1914C86.9959 12.1914 152.318 55.642 152.318 109.247Z" fill="#A86145"/>
<path d="M139.109 109.247C139.109 152.026 86.9961 186.712 86.9961 186.712C86.9961 186.712 34.8838 152.018 34.8838 109.247C34.8838 66.4749 86.9961 31.7808 86.9961 31.7808C86.9961 31.7808 139.109 66.4513 139.109 109.247Z" fill="#D38D75"/>
<path d="M42.1007 55.3184C30.7386 70.7389 21.6821 89.2703 21.6821 109.239C21.6821 162.836 86.9963 206.286 86.9963 206.286C86.9963 206.286 127.652 179.235 144.809 141.493C121.521 137.696 99.6881 127.687 81.612 112.521C63.5358 97.3548 49.8858 77.593 42.1007 55.3184Z" fill="#79412D"/>
<path d="M115.421 182.322C37.7185 162.354 26.4117 83.8853 26.4117 83.8774C23.3682 91.9935 21.7676 100.579 21.6821 109.247C21.6821 162.836 86.9963 206.286 86.9963 206.286C97.1823 199.182 106.697 191.161 115.421 182.322Z" fill="#502314"/>
<path d="M86.9961 46.5698C87.9594 49.1912 88.7095 51.8047 89.4043 54.4656C90.0991 57.1265 90.6834 59.7006 91.2362 62.3141C91.7889 64.9276 92.2626 67.549 92.6732 70.1625C93.0838 72.776 93.4628 75.3974 93.8102 78.0189C95.0693 88.4253 95.6943 98.8987 95.6815 109.381C95.7143 119.876 95.0999 130.363 93.8418 140.783C93.5181 143.404 93.1548 146.018 92.7127 148.639C92.2705 151.26 91.7968 153.866 91.2677 156.487C90.7387 159.109 90.1229 161.722 89.4201 164.336C88.7174 166.949 87.9752 169.571 87.004 172.232C86.0328 169.61 85.2748 166.997 84.58 164.336C83.8852 161.675 83.293 159.101 82.7324 156.487C82.1718 153.874 81.7138 151.253 81.2953 148.639C80.8769 146.025 80.5058 143.404 80.1662 140.783C78.8989 130.364 78.2792 119.877 78.3107 109.381C78.2924 98.8854 78.9174 88.3985 80.182 77.9794C80.5057 75.358 80.8611 72.7445 81.3111 70.123C81.7612 67.5016 82.2191 64.896 82.7482 62.2746C83.2772 59.6532 83.8852 57.0397 84.5879 54.4262C85.2906 51.8127 86.0328 49.1912 86.9961 46.5698Z" fill="#864D41"/>
<path d="M130.695 106.25C139.38 102.708 142.064 89.1553 136.69 75.9801C131.316 62.8048 119.919 54.9961 111.234 58.5387C102.549 62.0813 99.8643 75.6338 105.238 88.809C110.612 101.984 122.01 109.793 130.695 106.25Z" fill="#F6FAFE"/>
<path d="M139.14 124.691C142.519 124.691 145.259 121.951 145.259 118.571C145.259 115.192 142.519 112.452 139.14 112.452C135.76 112.452 133.021 115.192 133.021 118.571C133.021 121.951 135.76 124.691 139.14 124.691Z" fill="#F6FAFE"/>
</g>
<defs>
<clipPath id="clip0_4780_417">
<rect width="174" height="245.212" fill="white" transform="translate(0 0.347656)"/>
</clipPath>
</defs>
</svg>
