<svg width="798" height="498" viewBox="0 0 798 498" fill="none" xmlns="http://www.w3.org/2000/svg">
<g clip-path="url(#clip0_6739_1445)">
<path d="M530.824 498.001C529.689 498.001 528.604 498.001 527.561 497.918L526.643 497.852H526.376C525.6 497.794 524.815 497.745 524.039 497.67L523.121 497.555H522.862C522.086 497.464 521.31 497.373 520.55 497.257L519.716 497.109H519.591C518.756 496.968 517.921 496.828 517.137 496.663L516.352 496.489H516.261C515.426 496.316 514.591 496.126 513.757 495.911L513.064 495.721C512.163 495.473 511.295 495.234 510.435 494.961L509.834 494.763C508.833 494.441 507.981 494.152 507.18 493.863L506.663 493.656C505.711 493.301 504.826 492.954 504 492.599L503.6 492.425C502.648 492.012 501.755 491.599 500.896 491.195L500.603 491.046C499.644 490.575 498.742 490.104 497.883 489.633L497.699 489.534C496.764 489.022 495.846 488.485 494.953 487.94L494.87 487.89C490.148 484.989 485.796 481.537 481.908 477.606V477.606C477.338 472.989 473.454 467.752 470.374 462.052H465.208C460.506 470.779 453.942 478.387 445.97 484.35C437.999 490.312 428.811 494.486 419.046 496.58C418.587 496.679 418.128 496.778 417.669 496.861C413.297 497.71 408.853 498.139 404.399 498.141H404.09C402.963 498.141 401.87 498.141 400.835 498.059L399.917 497.993H399.65C398.874 497.935 398.089 497.885 397.313 497.811L396.395 497.695H396.111C395.343 497.604 394.575 497.514 393.824 497.398L392.99 497.249H392.864C392.03 497.109 391.195 496.968 390.402 496.803C390.144 496.754 389.877 496.696 389.618 496.63H389.526C388.691 496.456 387.857 496.266 387.022 496.052L386.329 495.861C385.428 495.614 384.56 495.374 383.7 495.102C383.492 495.044 383.292 494.969 383.091 494.903C382.106 494.589 381.247 494.292 380.446 494.003L379.945 493.805C378.952 493.433 378.075 493.086 377.257 492.739L376.873 492.566C375.88 492.144 375.004 491.74 374.161 491.335L373.852 491.178C372.967 490.74 372.033 490.261 371.14 489.774L370.981 489.683C370.046 489.171 369.112 488.634 368.219 488.08L368.127 488.031C363.403 485.129 359.051 481.673 355.165 477.739C346.543 469.003 340.447 458.138 337.511 446.277C334.575 434.416 334.907 421.993 338.473 410.302L302.969 455.956C301.8 457.46 300.296 458.678 298.576 459.516C296.855 460.354 294.963 460.789 293.046 460.789H79.6378C77.1723 460.789 74.7618 460.068 72.7083 458.718C70.6549 457.368 69.0501 455.447 68.0952 453.198L50.6687 411.888C40.0942 407.419 18.9955 395.814 7.53636 371.174C2.41898 359.922 -0.161315 347.703 -0.0251517 335.366C-0.0251517 324.883 4.49005 310.924 13.7959 292.677C35.362 250.384 79.3373 191.82 125.816 143.464C165.251 102.444 221.403 52.9654 265.012 50.1239C271.196 49.7274 277.489 49.5209 283.715 49.5209C287.312 49.5209 290.475 49.587 293.104 49.6778C293.939 48.2323 294.932 46.6381 296.042 44.9282C307.025 28.1434 331.763 -0.015625 374.094 -0.015625H784.719C788.039 -0.015625 791.224 1.28978 793.571 3.61342C795.919 5.93705 797.238 9.08858 797.238 12.3747V449.505C797.238 449.778 797.238 450.05 797.238 450.331C797.026 453.472 795.614 456.415 793.289 458.563C790.964 460.711 787.9 461.902 784.719 461.895H638.28C636.256 461.895 634.263 461.41 632.471 460.48C630.679 459.551 629.141 458.206 627.989 456.559L598.169 414.003C598.285 414.49 598.402 414.994 598.511 415.49C598.511 415.49 598.644 416.117 598.694 416.373C598.911 417.431 599.078 418.372 599.22 419.265V419.413C599.362 420.347 599.496 421.346 599.612 422.478L599.704 423.386C599.779 424.163 599.838 424.931 599.879 425.708C599.879 425.708 599.879 426.377 599.93 426.616C599.988 427.781 600.013 428.813 600.013 429.78C600.03 443.195 596.043 456.316 588.554 467.497C581.065 478.679 570.406 487.423 557.916 492.632C556.881 493.07 555.829 493.458 554.786 493.854C551.834 494.921 548.811 495.785 545.739 496.44C545.271 496.539 544.812 496.638 544.353 496.721C539.982 497.571 535.538 497.999 531.083 498.001H530.824Z" fill="#040809"/>
<path d="M568.365 365.992H368.619V449.519H568.365V365.992Z" fill="#27235D"/>
<path d="M784.76 12.3911V449.522H638.279L579.807 365.994H356.801L292.92 448.126H79.6457L60.1577 402.182C60.1577 402.182 12.5186 388.256 12.5186 335.357C12.5186 326.742 17.0504 313.839 24.9959 298.252C65.8914 218.128 196.924 66.9663 265.854 62.4975C277.388 61.6991 288.964 61.6991 300.498 62.4975C302.244 58.7393 304.278 55.119 306.583 51.6684C316.222 36.9322 337.747 12.3828 374.119 12.3828L784.76 12.3911Z" fill="#F1594B"/>
<path d="M433.819 97.3047H503.174C514.22 97.3047 524.813 101.647 532.623 109.377C540.433 117.107 544.821 127.591 544.821 138.523V365.993H392.172V138.523C392.172 127.591 396.56 117.107 404.37 109.377C412.18 101.647 422.773 97.3047 433.819 97.3047V97.3047Z" fill="#372F70"/>
<path d="M462.27 138.375H414.097V338.148H462.27V138.375Z" fill="#90D8F8"/>
<path d="M522.896 138.375H474.723V338.148H522.896V138.375Z" fill="#90D8F8"/>
<path d="M595.131 299.753C586.031 299.744 577.306 296.163 570.871 289.795C564.435 283.428 560.815 274.793 560.804 265.787V187.802C560.815 178.795 564.435 170.16 570.87 163.791C577.305 157.422 586.03 153.839 595.131 153.828H733.183C742.284 153.839 751.008 157.422 757.444 163.791C763.879 170.16 767.499 178.795 767.51 187.802V265.754C767.508 274.766 763.891 283.409 757.455 289.784C751.018 296.159 742.289 299.744 733.183 299.753H595.131Z" fill="#372F70"/>
<path d="M754.99 187.803V265.754C754.995 268.591 754.434 271.401 753.34 274.023C752.246 276.645 750.64 279.028 748.614 281.035C746.589 283.042 744.183 284.634 741.535 285.72C738.887 286.806 736.049 287.364 733.182 287.363H595.13C592.267 287.364 589.431 286.807 586.785 285.723C584.14 284.639 581.735 283.05 579.71 281.047C577.685 279.043 576.079 276.664 574.983 274.046C573.886 271.428 573.322 268.621 573.322 265.787V187.803C573.322 182.078 575.62 176.588 579.71 172.541C583.8 168.493 589.347 166.219 595.13 166.219H733.182C738.966 166.219 744.513 168.493 748.603 172.541C752.693 176.588 754.99 182.078 754.99 187.803V187.803Z" fill="#90D8F8"/>
<path d="M404.341 485.607C435.495 485.607 460.751 460.611 460.751 429.776C460.751 398.942 435.495 373.945 404.341 373.945C373.186 373.945 347.93 398.942 347.93 429.776C347.93 460.611 373.186 485.607 404.341 485.607Z" fill="#D91F26"/>
<path d="M426.39 378.383C435.501 387.611 441.101 399.677 442.239 412.53C443.377 425.383 439.981 438.23 432.63 448.885C425.279 459.54 414.426 467.347 401.916 470.977C389.407 474.608 376.013 473.838 364.012 468.799C369.846 474.709 376.933 479.263 384.762 482.133C392.59 485.003 400.965 486.118 409.281 485.397C417.597 484.676 425.649 482.137 432.853 477.964C440.058 473.79 446.238 468.086 450.945 461.262C455.653 454.439 458.771 446.666 460.076 438.505C461.381 430.344 460.839 421.998 458.49 414.07C456.141 406.141 452.043 398.827 446.492 392.656C440.941 386.485 434.075 381.61 426.39 378.383V378.383Z" fill="#951B1E"/>
<path d="M404.34 459.661C421.012 459.661 434.528 446.284 434.528 429.783C434.528 413.283 421.012 399.906 404.34 399.906C387.668 399.906 374.152 413.283 374.152 429.783C374.152 446.284 387.668 459.661 404.34 459.661Z" fill="#FAF28C"/>
<path d="M421.591 405.289C424.27 411.249 424.902 417.913 423.392 424.262C421.882 430.611 418.313 436.296 413.229 440.447C408.146 444.599 401.829 446.988 395.244 447.25C388.659 447.512 382.168 445.632 376.765 441.898C378.652 446.109 381.499 449.831 385.081 452.772C388.664 455.714 392.886 457.794 397.416 458.852C401.946 459.91 406.663 459.916 411.196 458.87C415.729 457.823 419.956 455.753 423.546 452.821C427.136 449.889 429.992 446.175 431.891 441.968C433.789 437.762 434.679 433.178 434.489 428.575C434.3 423.972 433.037 419.474 430.8 415.435C428.562 411.395 425.41 407.923 421.591 405.289V405.289Z" fill="#F0CC6D"/>
<path d="M386.313 429.78C390.567 429.78 394.016 426.366 394.016 422.155C394.016 417.945 390.567 414.531 386.313 414.531C382.058 414.531 378.609 417.945 378.609 422.155C378.609 426.366 382.058 429.78 386.313 429.78Z" fill="white"/>
<path d="M531.125 485.607C562.28 485.607 587.536 460.611 587.536 429.776C587.536 398.942 562.28 373.945 531.125 373.945C499.97 373.945 474.714 398.942 474.714 429.776C474.714 460.611 499.97 485.607 531.125 485.607Z" fill="#D91F26"/>
<path d="M553.175 378.383C562.286 387.611 567.887 399.677 569.024 412.53C570.162 425.383 566.766 438.23 559.415 448.885C552.064 459.54 541.211 467.347 528.701 470.977C516.192 474.608 502.798 473.838 490.797 468.799C496.631 474.709 503.719 479.263 511.547 482.133C519.375 485.003 527.75 486.118 536.066 485.397C544.383 484.676 552.434 482.137 559.639 477.964C566.844 473.79 573.023 468.086 577.73 461.262C582.438 454.439 585.556 446.666 586.861 438.505C588.166 430.344 587.624 421.998 585.275 414.07C582.926 406.141 578.828 398.827 573.277 392.656C567.726 386.485 560.86 381.61 553.175 378.383V378.383Z" fill="#951B1E"/>
<path d="M531.125 459.661C547.797 459.661 561.313 446.284 561.313 429.783C561.313 413.283 547.797 399.906 531.125 399.906C514.453 399.906 500.938 413.283 500.938 429.783C500.938 446.284 514.453 459.661 531.125 459.661Z" fill="#FAF28C"/>
<path d="M548.376 405.289C551.055 411.249 551.687 417.913 550.177 424.262C548.667 430.611 545.098 436.296 540.015 440.447C534.931 444.599 528.614 446.988 522.029 447.25C515.444 447.512 508.953 445.632 503.55 441.898C505.437 446.109 508.284 449.831 511.866 452.772C515.449 455.714 519.671 457.794 524.201 458.852C528.732 459.91 533.448 459.916 537.981 458.87C542.514 457.823 546.741 455.753 550.331 452.821C553.922 449.889 556.778 446.175 558.676 441.968C560.575 437.762 561.464 433.178 561.275 428.575C561.085 423.972 559.822 419.474 557.585 415.435C555.347 411.395 552.196 407.923 548.376 405.289Z" fill="#F0CC6D"/>
<path d="M513.097 429.78C517.351 429.78 520.8 426.366 520.8 422.155C520.8 417.945 517.351 414.531 513.097 414.531C508.843 414.531 505.394 417.945 505.394 422.155C505.394 426.366 508.843 429.78 513.097 429.78Z" fill="white"/>
<path d="M292.921 448.123L356.802 365.992H18.9541C31.9238 393.92 60.1585 402.18 60.1585 402.18L79.6465 448.115L292.921 448.123Z" fill="#D91F26"/>
<path d="M579.815 365.992L638.279 449.519H784.761V365.992H579.815Z" fill="#D91F26"/>
<path d="M328.65 402.188H60.1582L79.6462 448.123H292.921L328.65 402.188Z" fill="#372F70"/>
<path d="M605.154 402.188L638.28 449.519H784.761V402.188H605.154Z" fill="#372F70"/>
<path d="M414.097 208.005L462.27 180.672V255.633L414.097 282V208.005Z" fill="#CBE9F4"/>
<path d="M522.896 146.266V222.441L474.723 248.808V173.599L522.896 146.266Z" fill="#CBE9F4"/>
<path d="M414.097 328.568L462.27 301.227V338.15H414.097V328.568Z" fill="#CBE9F4"/>
<path d="M522.896 266.82V338.147H474.723V294.162L522.896 266.82Z" fill="#CBE9F4"/>
<path d="M754.99 187.809V265.76C754.995 268.597 754.434 271.407 753.34 274.029C752.246 276.651 750.64 279.034 748.614 281.041C746.589 283.048 744.183 284.64 741.535 285.726C738.887 286.812 736.049 287.37 733.182 287.369H597L665.396 166.258H733.182C738.96 166.258 744.502 168.527 748.591 172.568C752.68 176.609 754.982 182.09 754.99 187.809Z" fill="#CBE9F4"/>
<path d="M85.7223 327.592C79.4911 327.589 73.3782 325.907 68.0388 322.728C62.6993 319.549 58.3347 314.992 55.4126 309.545C52.4906 304.098 51.1213 297.966 51.4516 291.808C51.7819 285.649 53.7992 279.696 57.2874 274.586C87.0494 230.898 127.394 183.5 165.218 147.8C212.248 103.401 251.107 79.9173 280.702 78.0092C286.878 77.6045 293.171 77.4062 299.406 77.4062C310.105 77.4062 316.991 78.001 317.283 78.0258C320.397 78.3022 323.294 79.7219 325.404 82.0057C327.514 84.2895 328.684 87.272 328.684 90.3665V293.617C328.673 302.625 325.053 311.26 318.617 317.629C312.182 323.998 303.457 327.581 294.357 327.592H85.7223Z" fill="#372F70"/>
<path d="M281.487 90.3662C223.991 94.075 123.171 199.987 67.6362 281.507C57.8547 295.864 68.1954 315.201 85.7221 315.201H294.373C300.157 315.201 305.704 312.927 309.794 308.879C313.884 304.831 316.181 299.341 316.181 293.617V90.3662C304.63 89.5654 293.037 89.5654 281.487 90.3662V90.3662Z" fill="#CBE9F4"/>
<path d="M85.7224 315.204H294.373C300.157 315.204 305.704 312.93 309.794 308.882C313.884 304.835 316.181 299.345 316.181 293.62V90.3695C307.082 89.7285 297.953 89.6043 288.84 89.9978C293.013 133.521 283.315 252.914 63.9226 293.455C63.8994 296.303 64.4462 299.127 65.5314 301.765C66.6166 304.403 68.2187 306.802 70.2453 308.824C72.2719 310.846 74.6829 312.45 77.3393 313.545C79.9957 314.641 82.8448 315.204 85.7224 315.204V315.204Z" fill="#90D8F8"/>
<path d="M245.22 144.426C260.447 134.917 269.636 122.261 265.745 116.157C261.854 110.054 246.356 112.814 231.129 122.322C215.902 131.831 206.713 144.487 210.604 150.591C214.495 156.694 229.993 153.934 245.22 144.426Z" fill="white"/>
<path d="M102.873 309.425C119.347 309.425 132.701 306.315 132.701 302.478C132.701 298.641 119.347 295.531 102.873 295.531C86.3987 295.531 73.0439 298.641 73.0439 302.478C73.0439 306.315 86.3987 309.425 102.873 309.425Z" fill="white"/>
<path d="M276.22 115.781C280.281 115.781 283.573 112.523 283.573 108.504C283.573 104.485 280.281 101.227 276.22 101.227C272.159 101.227 268.867 104.485 268.867 108.504C268.867 112.523 272.159 115.781 276.22 115.781Z" fill="white"/>
<path d="M306.583 51.6762C304.279 55.1268 302.245 58.7471 300.499 62.5053H300.19V62.6623H784.761V12.3906H374.136C337.773 12.3906 316.223 36.94 306.583 51.6762Z" fill="#FAF28C"/>
<path d="M390.97 43.1036C411.45 43.1036 428.052 39.5459 428.052 35.1573C428.052 30.7686 411.45 27.2109 390.97 27.2109C370.491 27.2109 353.889 30.7686 353.889 35.1573C353.889 39.5459 370.491 43.1036 390.97 43.1036Z" fill="white"/>
<path d="M605.154 282.003C617.955 282.003 628.331 278.604 628.331 274.411C628.331 270.219 617.955 266.82 605.154 266.82C592.354 266.82 581.978 270.219 581.978 274.411C581.978 278.604 592.354 282.003 605.154 282.003Z" fill="white"/>
<g style="mix-blend-mode:multiply" opacity="0.51">
<path d="M586.033 62.6375H784.761V12.3906H640.115C623.958 36.6426 603.351 52.5683 586.033 62.6375Z" fill="#F0CC6D"/>
</g>
</g>
<defs>
<clipPath id="clip0_6739_1445">
<rect width="797.28" height="498" fill="white"/>
</clipPath>
</defs>
</svg>
