<svg width="1265" height="488" viewBox="0 0 1265 488" fill="none" xmlns="http://www.w3.org/2000/svg">
<g clip-path="url(#clip0_5470_18510)">
<path d="M1264.2 241.5C1264.2 240.4 1264.2 239.4 1264.2 238.3C1264.1 235.1 1264 231.9 1263.8 228.7C1263.7 226.5 1263.5 224.3 1263.3 222.2C1263.2 221.5 1263.2 220.7 1263.1 220C1263 218.9 1262.9 217.8 1262.8 216.8C1262.3 212.2 1261.7 207.7 1260.9 203.2C1260.2 198.9 1259.4 194.6 1258.4 190.4V190.3C1257.9 187.9 1257.3 185.5 1256.7 183.2C1255.9 180 1255 176.9 1254.1 173.7C1254.1 173.6 1254.1 173.6 1254 173.5C1253.6 172.2 1253.2 171 1252.9 169.8C1252.9 169.7 1252.9 169.7 1252.8 169.6C1252.2 167.8 1251.6 166 1251 164.2C1251 164.1 1250.9 164.1 1250.9 164C1249.7 160.6 1248.5 157.3 1247.2 154C1246.1 151.2 1244.9 148.3 1243.7 145.5C1242.3 142.2 1240.7 139 1239.2 135.8C1238.3 133.9 1237.4 132.1 1236.4 130.3C1235.1 127.8 1233.7 125.3 1232.3 122.8C1232.3 122.7 1232.2 122.6 1232.2 122.5C1231.5 121.3 1230.8 120.1 1230.1 119C1230.1 118.9 1230 118.8 1229.9 118.7C1223.6 108.2 1216.5 98.2004 1208.8 88.8004C1204.7 83.8004 1200.4 79.0004 1195.9 74.3004C1194.3 72.6004 1192.6 71.0004 1191 69.3004C1189.8 68.2004 1188.6 67.0004 1187.4 65.9004C1184.8 63.4004 1182.1 61.0004 1179.3 58.6004C1178.1 57.5004 1176.8 56.5004 1175.6 55.5004C1172.9 53.3004 1170.2 51.1004 1167.4 49.1004C1166.6 48.5004 1165.8 47.9004 1165.1 47.3004C1157.4 41.6004 1149.3 36.4004 1140.9 31.6004C1140.8 31.5004 1140.7 31.5004 1140.6 31.4004C1133.7 27.4004 1126.5 23.8004 1119.1 20.6004C1117.6 19.9004 1116 19.2004 1114.4 18.6004C1111.7 17.5004 1108.9 16.4004 1106.1 15.3004C1104 14.5004 1101.9 13.8004 1099.8 13.0004C1084.4 7.70039 1068.2 3.90039 1051.6 1.80039C1051.4 1.80039 1051.3 1.80039 1051.1 1.70039C1047.4 1.20039 1043.6 0.800391 1039.8 0.600391C1039.6 0.600391 1039.4 0.600391 1039.3 0.600391C1036.8 0.400391 1034.4 0.300391 1031.9 0.100391C1031.8 0.100391 1031.7 0.100391 1031.6 0.100391C1029.2 0.000390626 1026.8 -0.0996094 1024.3 -0.0996094C1023.1 -0.0996094 1021.8 -0.0996094 1020.6 -0.0996094H648V35.3004H522.5C501 35.3004 483.5 52.8004 483.5 74.3004V188C483.5 221.1 490 253.2 502.8 283.4C515.1 312.6 532.8 338.8 555.3 361.3C577.8 383.8 604 401.5 633.2 413.8C649.8 420.8 667.1 426 684.7 429.2C685.3 430.4 686 431.6 686.6 432.8C686.9 433.4 687.3 434.1 687.6 434.7L687.8 435.1C688.5 436.4 689.2 437.7 690 439L690.2 439.4C690.6 440 690.9 440.7 691.3 441.3C692.4 443.2 693.5 445 694.6 446.8C694.8 447.2 695.1 447.6 695.3 448L695.7 448.6C696.5 450 697.4 451.3 698.2 452.7C698.7 453.5 699.2 454.2 699.7 455C700.6 456.3 701.4 457.6 702.3 459L702.7 459.6C703 460 703.2 460.4 703.5 460.8C704.7 462.6 705.9 464.3 707.2 466.1C707.6 466.6 708 467.2 708.3 467.7L708.7 468.2C709.6 469.4 710.5 470.6 711.3 471.8L711.6 472.3C712 472.8 712.4 473.4 712.8 473.9C714.1 475.6 715.4 477.3 716.7 479C717 479.4 718 480.6 718 480.6C719 481.9 720 483.1 721 484.4C721.6 485.1 722.1 485.8 722.7 486.4C723.1 486.9 723.5 487.4 723.9 487.8H1020.2C1026 487.8 1031.8 487.6 1037.5 487.2C1037.7 487.2 1037.8 487.2 1038 487.2C1038.4 487.2 1038.8 487.1 1039.3 487.1C1040.3 487 1041.4 486.9 1042.4 486.8C1043.3 486.7 1044.1 486.6 1045 486.5C1045.4 486.5 1045.9 486.4 1046.3 486.4C1048.4 486.2 1050.4 485.9 1052.5 485.7C1054.5 485.4 1056.5 485.1 1058.5 484.8C1060.4 484.5 1062.3 484.2 1064.2 483.8C1064.5 483.7 1064.9 483.7 1065.2 483.6C1067.9 483.1 1070.7 482.5 1073.4 481.9C1073.5 481.9 1073.7 481.8 1073.8 481.8C1074.1 481.7 1074.4 481.7 1074.7 481.6C1074.8 481.6 1075 481.5 1075.1 481.5C1085.5 479.1 1095.7 476 1105.6 472.3C1110.3 470.5 1114.9 468.7 1119.4 466.6C1123.2 464.9 1126.9 463.1 1130.6 461.2C1131.7 460.6 1132.9 460 1134 459.4C1139.5 456.5 1144.9 453.4 1150.1 450.1C1151.3 449.3 1152.5 448.6 1153.7 447.8C1154.2 447.5 1154.6 447.2 1155.1 446.9C1159.2 444.2 1163.2 441.3 1167.1 438.4C1169.2 436.8 1171.3 435.2 1173.3 433.6C1177.2 430.5 1181 427.2 1184.7 423.8C1187.4 421.4 1190 418.9 1192.5 416.3C1194.8 414 1197.1 411.6 1199.3 409.2C1200.5 407.9 1201.7 406.6 1202.8 405.3C1202.9 405.2 1203 405 1203.1 404.9C1205.7 402 1208.2 399 1210.7 395.9C1210.8 395.8 1210.9 395.7 1211 395.5C1211.5 394.8 1212.1 394.1 1212.6 393.4C1214.2 391.4 1215.7 389.3 1217.2 387.2C1218 386 1218.9 384.9 1219.7 383.7C1222.2 380.2 1224.5 376.6 1226.8 373C1230.3 367.3 1233.6 361.5 1236.7 355.6C1236.8 355.4 1236.9 355.2 1237 355.1C1238.4 352.4 1239.7 349.8 1240.9 347C1241.2 346.4 1241.4 345.9 1241.7 345.3C1243 342.5 1244.2 339.7 1245.4 336.9C1245.4 336.8 1245.5 336.7 1245.5 336.7C1246.6 334.1 1247.6 331.5 1248.6 328.9C1248.6 328.8 1248.7 328.7 1248.7 328.7C1248.9 328.1 1249.2 327.4 1249.4 326.8C1252.1 319.3 1254.5 311.6 1256.5 303.8C1257.3 300.4 1258.1 297 1258.8 293.6C1259.1 292.5 1259.3 291.3 1259.5 290.2V290.1C1259.7 289 1259.9 287.8 1260.1 286.6C1260.7 283.1 1261.3 279.7 1261.7 276.1C1261.8 275.3 1261.9 274.5 1262 273.7C1262.2 272.1 1262.4 270.6 1262.5 269C1262.6 268.2 1262.7 267.4 1262.7 266.6C1263.3 259.6 1263.7 252.6 1263.7 245.5C1263.7 244.9 1263.7 244.3 1263.7 243.8C1264.2 243.1 1264.2 242.3 1264.2 241.5ZM570.9 131.8C570.9 126.8 574.9 122.8 579.9 122.8H648V279.2C648 281.5 648 284 648.1 286.8V288C648.2 290.3 648.3 292.7 648.4 295.1L648.5 296.6C648.6 299.1 648.8 301.5 649 303.7L649.1 304.9C649.3 307.1 649.5 309.4 649.7 311.5L649.8 312.6C650 314.7 650.3 316.9 650.6 319.4L650.8 321.2C651 322.6 651.2 324 651.4 325.5C602.4 297.9 571 245.6 571 188.1V131.8H570.9Z" fill="black"/>
<path d="M1264.2 241.5C1264.2 240.4 1264.2 239.4 1264.2 238.3C1264.1 235.1 1264 231.9 1263.8 228.7C1263.7 226.5 1263.5 224.3 1263.3 222.2C1263.2 221.5 1263.2 220.7 1263.1 220C1263 218.9 1262.9 217.8 1262.8 216.8C1262.3 212.2 1261.7 207.7 1260.9 203.2C1260.2 198.9 1259.4 194.6 1258.4 190.4V190.3C1257.9 187.9 1257.3 185.5 1256.7 183.2C1255.9 180 1255 176.9 1254.1 173.7C1254.1 173.6 1254.1 173.6 1254 173.5C1253.6 172.2 1253.2 171 1252.9 169.8C1252.9 169.7 1252.9 169.7 1252.8 169.6C1252.2 167.8 1251.6 166 1251 164.2C1251 164.1 1250.9 164.1 1250.9 164C1249.7 160.6 1248.5 157.3 1247.2 154C1246.1 151.2 1244.9 148.3 1243.7 145.5C1242.3 142.2 1240.7 139 1239.2 135.8C1238.3 133.9 1237.4 132.1 1236.4 130.3C1235.1 127.8 1233.7 125.3 1232.3 122.8C1232.3 122.7 1232.2 122.6 1232.2 122.5C1231.5 121.3 1230.8 120.1 1230.1 119C1230.1 118.9 1230 118.8 1229.9 118.7C1223.6 108.2 1216.5 98.2004 1208.8 88.8004C1204.7 83.8004 1200.4 79.0004 1195.9 74.3004C1194.3 72.6004 1192.6 71.0004 1191 69.3004C1189.8 68.2004 1188.6 67.0004 1187.4 65.9004C1184.8 63.4004 1182.1 61.0004 1179.3 58.6004C1178.1 57.5004 1176.8 56.5004 1175.6 55.5004C1172.9 53.3004 1170.2 51.1004 1167.4 49.1004C1166.6 48.5004 1165.8 47.9004 1165.1 47.3004C1157.4 41.6004 1149.3 36.4004 1140.9 31.6004C1140.8 31.5004 1140.7 31.5004 1140.6 31.4004C1133.7 27.4004 1126.5 23.8004 1119.1 20.6004C1117.6 19.9004 1116 19.2004 1114.4 18.6004C1111.7 17.5004 1108.9 16.4004 1106.1 15.3004C1104 14.5004 1101.9 13.8004 1099.8 13.0004C1084.4 7.70039 1068.2 3.90039 1051.6 1.80039C1051.4 1.80039 1051.3 1.80039 1051.1 1.70039C1047.4 1.20039 1043.6 0.800391 1039.8 0.600391C1039.6 0.600391 1039.4 0.600391 1039.3 0.600391C1036.8 0.400391 1034.4 0.300391 1031.9 0.100391C1031.8 0.100391 1031.7 0.100391 1031.6 0.100391C1029.2 0.000390626 1026.8 -0.0996094 1024.3 -0.0996094C1023.1 -0.0996094 1021.8 -0.0996094 1020.6 -0.0996094H663V50.3004H522.5C509.2 50.3004 498.5 61.0004 498.5 74.3004V188C498.5 219 504.6 249.2 516.6 277.6C528.2 305 544.8 329.6 565.9 350.7C587 371.8 611.6 388.4 639 400C656.9 407.6 675.5 412.8 694.6 415.6C695 416.4 695.4 417.2 695.8 418C697 420.4 698.2 422.8 699.5 425.1C699.9 425.9 700.3 426.7 700.8 427.4C701.6 429 702.5 430.5 703.4 432C703.8 432.7 704.3 433.5 704.7 434.2C704.7 434.3 704.8 434.3 704.8 434.4C705.2 435.1 705.6 435.8 706.1 436.6C707.6 439.1 709.1 441.6 710.6 444C711.4 445.3 712.2 446.5 713 447.8C715 450.8 717 453.8 719 456.7C719.5 457.4 720 458.1 720.5 458.9C721.5 460.3 722.6 461.8 723.6 463.2C724.1 463.9 724.7 464.6 725.2 465.3C726.3 466.7 727.3 468.1 728.4 469.5C729 470.2 729.5 470.9 730 471.6C730.6 472.3 731.1 473 731.7 473.7C732.8 475.1 733.9 476.4 735.1 477.8C735.7 478.5 736.2 479.2 736.8 479.8C737.4 480.5 738 481.1 738.5 481.8C739.1 482.5 739.7 483.1 740.3 483.8C740.9 484.5 741.5 485.1 742.1 485.8C742.7 486.5 743.3 487.1 743.9 487.8H1020.2C1026 487.8 1031.8 487.6 1037.5 487.2C1037.7 487.2 1037.8 487.2 1038 487.2C1038.4 487.2 1038.8 487.1 1039.3 487.1C1040.3 487 1041.4 486.9 1042.4 486.8C1043.3 486.7 1044.1 486.6 1045 486.5C1045.4 486.5 1045.9 486.4 1046.3 486.4C1048.4 486.2 1050.4 485.9 1052.5 485.7C1054.5 485.4 1056.5 485.1 1058.5 484.8C1060.4 484.5 1062.3 484.2 1064.2 483.8C1064.5 483.7 1064.9 483.7 1065.2 483.6C1067.9 483.1 1070.7 482.5 1073.4 481.9C1073.5 481.9 1073.7 481.8 1073.8 481.8C1074.1 481.7 1074.4 481.7 1074.7 481.6C1074.8 481.6 1075 481.5 1075.1 481.5C1085.5 479.1 1095.7 476 1105.6 472.3C1110.3 470.5 1114.9 468.7 1119.4 466.6C1123.2 464.9 1126.9 463.1 1130.6 461.2C1131.7 460.6 1132.9 460 1134 459.4C1139.5 456.5 1144.9 453.4 1150.1 450.1C1151.3 449.3 1152.5 448.6 1153.7 447.8C1154.2 447.5 1154.6 447.2 1155.1 446.9C1159.2 444.2 1163.2 441.3 1167.1 438.4C1169.2 436.8 1171.3 435.2 1173.3 433.6C1177.2 430.5 1181 427.2 1184.7 423.8C1187.4 421.4 1190 418.9 1192.5 416.3C1194.8 414 1197.1 411.6 1199.3 409.2C1200.5 407.9 1201.7 406.6 1202.8 405.3C1202.9 405.2 1203 405 1203.1 404.9C1205.7 402 1208.2 399 1210.7 395.9C1210.8 395.8 1210.9 395.7 1211 395.5C1211.5 394.8 1212.1 394.1 1212.6 393.4C1214.2 391.4 1215.7 389.3 1217.2 387.2C1218 386 1218.9 384.9 1219.7 383.7C1222.2 380.2 1224.5 376.6 1226.8 373C1230.3 367.3 1233.6 361.5 1236.7 355.6C1236.8 355.4 1236.9 355.2 1237 355.1C1238.4 352.4 1239.7 349.8 1240.9 347C1241.2 346.4 1241.4 345.9 1241.7 345.3C1243 342.5 1244.2 339.7 1245.4 336.9C1245.4 336.8 1245.5 336.7 1245.5 336.7C1246.6 334.1 1247.6 331.5 1248.6 328.9C1248.6 328.8 1248.7 328.7 1248.7 328.7C1248.9 328.1 1249.2 327.4 1249.4 326.8C1252.1 319.3 1254.5 311.6 1256.5 303.8C1257.3 300.4 1258.1 297 1258.8 293.6C1259.1 292.5 1259.3 291.3 1259.5 290.2V290.1C1259.7 289 1259.9 287.8 1260.1 286.6C1260.7 283.1 1261.3 279.7 1261.7 276.1C1261.8 275.3 1261.9 274.5 1262 273.7C1262.2 272.1 1262.4 270.6 1262.5 269C1262.6 268.2 1262.7 267.4 1262.7 266.6C1263.3 259.6 1263.7 252.6 1263.7 245.5C1263.7 244.9 1263.7 244.3 1263.7 243.8C1264.2 243.1 1264.2 242.3 1264.2 241.5ZM555.9 188.1V131.8C555.9 130.6 556 129.3 556.2 128.2C556.3 127.8 556.3 127.4 556.4 127C556.5 126.6 556.6 126.2 556.7 125.8C556.8 125.3 557 124.9 557.1 124.4C557.2 124.1 557.3 123.8 557.4 123.5C557.5 123.2 557.6 122.9 557.8 122.6C561.4 113.9 570 107.8 580 107.8H663V279.2C663 280.5 663 281.9 663 283.2C663 284 663 284.8 663 285.6C663 286.5 663 287.4 663.1 288.3C663.1 288.4 663.1 288.6 663.1 288.7C663.1 290.1 663.2 291.4 663.3 292.8C663.3 292.9 663.3 293 663.3 293.2C663.3 294.4 663.4 295.6 663.5 296.8C663.5 297.4 663.6 297.9 663.6 298.5C663.8 301.3 664 304 664.2 306.7C664.3 307.8 664.4 308.9 664.5 310C664.5 310.3 664.6 310.5 664.6 310.8C664.7 311.8 664.8 312.8 664.9 313.8C664.9 314.2 665 314.6 665 315C665.1 315.6 665.1 316.2 665.2 316.8C665.3 317.8 665.4 318.7 665.5 319.6C665.6 320.1 665.6 320.7 665.7 321.2C665.8 322.2 666 323.3 666.1 324.3C666.1 324.5 666.2 324.7 666.2 324.9C666.4 326.3 666.6 327.8 666.9 329.2C667.1 330.6 667.3 332 667.6 333.3C667.9 335.1 668.2 336.9 668.6 338.6C668.8 339.8 669.1 341.1 669.3 342.3C669.3 342.4 669.3 342.4 669.3 342.5C669.6 343.9 669.9 345.3 670.2 346.7C670.5 348.1 670.9 349.6 671.2 351C604.2 327.4 555.9 263.3 555.9 188.1Z" fill="#F9F18C"/>
<path d="M873.5 487.8H744C743.4 487.2 742.8 486.5 742.2 485.8C741.6 485.1 741 484.5 740.4 483.8C739.8 483.1 739.2 482.5 738.6 481.8C738 481.1 737.4 480.5 736.9 479.8C736.3 479.1 735.8 478.5 735.2 477.8C734.1 476.4 732.9 475.1 731.8 473.7C731.2 473 730.7 472.3 730.1 471.6C729.6 470.9 729 470.2 728.5 469.5C727.4 468.1 726.3 466.7 725.3 465.3C724.8 464.6 724.2 463.9 723.7 463.2C722.6 461.8 721.6 460.4 720.6 458.9C720.1 458.2 719.6 457.5 719.1 456.7C717 453.8 715 450.8 713.1 447.8C712.3 446.5 711.5 445.3 710.7 444C709.2 441.6 707.6 439.1 706.2 436.6C705.8 435.9 705.3 435.2 704.9 434.4C704.9 434.3 704.8 434.2 704.8 434.2C704.4 433.5 703.9 432.7 703.5 432C702.6 430.5 701.7 428.9 700.9 427.4C700.5 426.6 700.1 425.8 699.6 425.1C698.3 422.7 697.1 420.4 695.9 418C695.5 417.2 695.1 416.4 694.7 415.6C684.6 395.2 676.8 373.6 671.4 350.9C671.1 349.5 670.7 348 670.4 346.6C670.1 345.2 669.8 343.8 669.5 342.4C669.5 342.3 669.5 342.3 669.5 342.2C669.2 341 669 339.8 668.8 338.5C668.5 336.7 668.1 335 667.8 333.2C667.5 331.8 667.3 330.4 667.1 329.1C666.9 327.7 666.6 326.2 666.4 324.8C666.4 324.6 666.3 324.4 666.3 324.2C666.1 323.2 666 322.1 665.9 321.1C665.8 320.6 665.8 320 665.7 319.5C665.6 318.5 665.5 317.6 665.4 316.7C665.3 316.1 665.2 315.5 665.2 314.9C665.1 314.5 665.1 314.1 665.1 313.7C665 312.7 664.9 311.7 664.8 310.7C664.8 310.4 664.7 310.2 664.7 309.9C664.6 308.8 664.5 307.7 664.4 306.6C664.2 303.9 664 301.1 663.8 298.4C663.8 297.8 663.7 297.3 663.7 296.7C663.6 295.5 663.6 294.3 663.5 293.1C663.5 293 663.5 292.9 663.5 292.7C663.4 291.3 663.4 290 663.3 288.6C663.3 288.5 663.3 288.3 663.3 288.2C663.3 287.3 663.2 286.4 663.2 285.5C663.2 284.7 663.2 283.9 663.2 283.1C663.2 281.8 663.2 280.4 663.2 279.1V0H757.7V246.4C757.7 276.2 761.9 304.9 769.8 332.2C787.4 394.3 824.3 448.4 873.5 487.8Z" fill="#EFCB6C"/>
<path d="M1105.8 15.4H663V0H1020.3C1021.5 0 1022.8 0 1024 0C1026.4 0 1028.8 0.1 1031.3 0.2C1031.4 0.2 1031.5 0.2 1031.6 0.2C1034.1 0.3 1036.5 0.5 1039 0.7C1039.2 0.7 1039.3 0.7 1039.5 0.7C1043.3 1 1047 1.4 1050.8 1.8C1051 1.8 1051.1 1.8 1051.3 1.9C1068 4 1084.1 7.8 1099.5 13.1C1101.6 13.9 1103.7 14.6 1105.8 15.4Z" fill="#EFCB6C"/>
<path opacity="0.51" d="M769.5 332.1C835.1 396.6 932.2 463.4 1064.3 483.8C1062.4 484.2 1060.5 484.5 1058.6 484.8C1056.6 485.1 1054.6 485.4 1052.6 485.7C1050.5 486 1048.5 486.2 1046.4 486.4C1046 486.5 1045.5 486.5 1045.1 486.5C1044.2 486.6 1043.4 486.7 1042.5 486.8C1041.5 486.9 1040.4 487 1039.4 487.1C1039 487.1 1038.6 487.2 1038.1 487.2C1037.9 487.2 1037.7 487.2 1037.6 487.2C1031.9 487.6 1026.1 487.8 1020.3 487.8H744C743.4 487.2 742.8 486.5 742.2 485.8C741.6 485.1 741 484.5 740.4 483.8C739.8 483.1 739.2 482.5 738.6 481.8C738 481.1 737.4 480.5 736.9 479.8C736.3 479.1 735.8 478.5 735.2 477.8C734.1 476.4 732.9 475.1 731.8 473.7C731.2 473 730.7 472.3 730.1 471.6C729.6 470.9 729 470.2 728.5 469.5C727.4 468.1 726.3 466.7 725.3 465.3C724.8 464.6 724.2 463.9 723.7 463.2C722.6 461.8 721.6 460.4 720.6 458.9C720.1 458.2 719.6 457.5 719.1 456.7C717 453.8 715 450.8 713.1 447.8C712.3 446.5 711.5 445.3 710.7 444C709.2 441.6 707.6 439.1 706.2 436.6C705.8 435.9 705.3 435.2 704.9 434.4C704.9 434.3 704.8 434.2 704.8 434.2C704.4 433.5 703.9 432.7 703.5 432C702.6 430.5 701.7 428.9 700.9 427.4C700.5 426.6 700.1 425.8 699.6 425.1C698.3 422.7 697.1 420.4 695.9 418C695.5 417.2 695.1 416.4 694.7 415.6C675.6 412.8 657 407.6 639.1 400C611.7 388.4 587.1 371.8 566 350.7C544.9 329.6 528.3 305 516.7 277.6C504.7 249.2 498.6 219.1 498.6 188V74.4004C498.6 61.1004 509.3 50.4004 522.6 50.4004H531C535.8 73.0004 544 99.0004 557.8 122.5C557.7 122.8 557.5 123.1 557.4 123.4C557.3 123.7 557.2 124 557.1 124.3C557 124.8 556.8 125.2 556.7 125.7C556.6 126.1 556.5 126.5 556.4 126.9C556.3 127.3 556.2 127.7 556.2 128.1C556 129.3 555.9 130.5 555.9 131.7V188C555.9 263.2 604.2 327.3 671.4 351C671.1 349.6 670.7 348.1 670.4 346.7C670.1 345.3 669.8 343.9 669.5 342.5C669.5 342.4 669.5 342.4 669.5 342.3C669.2 341.1 669 339.9 668.8 338.6C668.5 336.8 668.1 335.1 667.8 333.3C667.5 331.9 667.3 330.5 667.1 329.2C666.9 327.8 666.6 326.3 666.4 324.9C666.4 324.7 666.3 324.5 666.3 324.3C666.1 323.3 666 322.2 665.9 321.2C665.8 320.7 665.8 320.1 665.7 319.6C665.6 318.6 665.5 317.7 665.4 316.8C665.3 316.2 665.2 315.6 665.2 315C665.1 314.6 665.1 314.2 665.1 313.8C665 312.8 664.9 311.8 664.8 310.8C664.8 310.5 664.7 310.3 664.7 310C664.6 308.9 664.5 307.8 664.4 306.7C664.2 304 664 301.2 663.8 298.5C663.8 297.9 663.7 297.4 663.7 296.8C663.6 295.6 663.6 294.4 663.5 293.2C663.5 293.1 663.5 293 663.5 292.8C663.4 291.4 663.4 290.1 663.3 288.7C663.3 288.6 663.3 288.4 663.3 288.3C663.3 287.4 663.2 286.5 663.2 285.6C663.2 284.8 663.2 284 663.2 283.2C663.2 281.9 663.2 280.5 663.2 279.2V192C663 192 696.9 260.7 769.5 332.1Z" fill="#EFCB6C"/>
<path d="M752 245.601C774.533 245.601 792.8 203.515 792.8 151.601C792.8 99.6858 774.533 57.6006 752 57.6006C729.467 57.6006 711.2 99.6858 711.2 151.601C711.2 203.515 729.467 245.601 752 245.601Z" fill="white"/>
<path d="M699.4 70.6C711.716 70.6 721.7 60.616 721.7 48.3C721.7 35.984 711.716 26 699.4 26C687.084 26 677.1 35.984 677.1 48.3C677.1 60.616 687.084 70.6 699.4 70.6Z" fill="white"/>
<path d="M740.147 426.355C748.245 423.104 748.971 405.926 741.769 387.988C734.566 370.05 722.163 358.144 714.065 361.395C705.967 364.646 705.241 381.824 712.444 399.762C719.646 417.7 732.049 429.606 740.147 426.355Z" fill="white"/>
<path d="M1103.5 217.2C1103.5 217.2 1074 185.6 1035 211.9" stroke="#221F1F" stroke-width="6.1933" stroke-miterlimit="10" stroke-linecap="round"/>
<path d="M860.7 217.2C860.7 217.2 890.2 185.6 929.2 211.9" stroke="#221F1F" stroke-width="6.1933" stroke-miterlimit="10" stroke-linecap="round"/>
<path d="M1058.6 316.2C1080.69 316.2 1098.6 298.292 1098.6 276.2C1098.6 254.109 1080.69 236.2 1058.6 236.2C1036.51 236.2 1018.6 254.109 1018.6 276.2C1018.6 298.292 1036.51 316.2 1058.6 316.2Z" fill="#F6F6E1"/>
<path d="M905.1 316.2C927.191 316.2 945.1 298.292 945.1 276.2C945.1 254.109 927.191 236.2 905.1 236.2C883.009 236.2 865.1 254.109 865.1 276.2C865.1 298.292 883.009 316.2 905.1 316.2Z" fill="#F6F6E1"/>
<path d="M1098.6 276.2C1097.8 265.7 1093.1 255.9 1085.7 249C1078.4 242.1 1068.5 238.1 1058.5 238.2C1048.5 238.1 1038.7 242.1 1031.3 249C1023.9 255.9 1019.3 265.7 1018.4 276.2C1018 271 1018.7 265.6 1020.5 260.5C1022.3 255.4 1025.2 250.7 1029 246.8C1032.7 242.8 1037.3 239.7 1042.4 237.5C1047.5 235.3 1053 234.2 1058.5 234.2C1064 234.2 1069.5 235.3 1074.6 237.5C1079.6 239.7 1084.3 242.8 1088 246.8C1091.8 250.8 1094.6 255.5 1096.5 260.5C1098.3 265.6 1099.1 271 1098.6 276.2Z" fill="#221F1F"/>
<path d="M1018.6 276.2C1019.4 286.7 1024.1 296.5 1031.5 303.4C1038.8 310.3 1048.7 314.3 1058.7 314.2C1068.7 314.3 1078.5 310.3 1085.9 303.4C1093.3 296.5 1097.9 286.7 1098.8 276.2C1099.2 281.4 1098.5 286.8 1096.7 291.9C1094.9 297 1092 301.7 1088.2 305.6C1084.5 309.6 1079.9 312.7 1074.8 314.9C1069.7 317.1 1064.2 318.2 1058.7 318.2C1053.2 318.2 1047.7 317.1 1042.6 314.9C1037.6 312.7 1032.9 309.6 1029.2 305.6C1025.4 301.6 1022.6 296.9 1020.7 291.9C1018.9 286.8 1018.2 281.4 1018.6 276.2Z" fill="#221F1F"/>
<path d="M1044 302.5C1058.53 302.5 1070.3 290.725 1070.3 276.2C1070.3 261.675 1058.53 249.9 1044 249.9C1029.48 249.9 1017.7 261.675 1017.7 276.2C1017.7 290.725 1029.48 302.5 1044 302.5Z" fill="#070B0C"/>
<path d="M945.1 276.2C944.3 265.7 939.6 255.9 932.2 249C924.9 242.1 915 238.1 905 238.2C895 238.1 885.2 242.1 877.8 249C870.4 255.9 865.8 265.7 864.9 276.2C864.5 271 865.2 265.6 867 260.5C868.8 255.4 871.7 250.7 875.5 246.8C879.2 242.8 883.8 239.7 888.9 237.5C894 235.3 899.5 234.2 905 234.2C910.5 234.2 916 235.3 921.1 237.5C926.1 239.7 930.8 242.8 934.5 246.8C938.3 250.8 941.1 255.5 943 260.5C944.8 265.6 945.6 271 945.1 276.2Z" fill="#221F1F"/>
<path d="M865.1 276.2C865.9 286.7 870.6 296.5 878 303.4C885.3 310.3 895.2 314.3 905.2 314.2C915.2 314.3 925 310.3 932.4 303.4C939.8 296.5 944.4 286.7 945.3 276.2C945.7 281.4 945 286.8 943.2 291.9C941.4 297 938.5 301.7 934.7 305.6C931 309.6 926.4 312.7 921.3 314.9C916.2 317.1 910.7 318.2 905.2 318.2C899.7 318.2 894.2 317.1 889.1 314.9C884.1 312.7 879.4 309.6 875.7 305.6C871.9 301.6 869.1 296.9 867.2 291.9C865.4 286.8 864.7 281.4 865.1 276.2Z" fill="#221F1F"/>
<path d="M891.3 302.5C905.825 302.5 917.6 290.725 917.6 276.2C917.6 261.675 905.825 249.9 891.3 249.9C876.775 249.9 865 261.675 865 276.2C865 290.725 876.775 302.5 891.3 302.5Z" fill="#070B0C"/>
<path d="M951.6 305.601C951.6 305.601 949.6 345.301 983.5 345.301C1017.5 345.301 1012.6 305.601 1012.6 305.601H951.6Z" fill="#221F1F"/>
<path d="M1007.1 333.8C1002.9 340.3 995.7 345.3 983.6 345.3C970.9 345.3 963.2 339.8 958.6 332.8C963.7 327.5 972.5 323.9 982.4 323.9C992.9 324 1002.1 327.9 1007.1 333.8Z" fill="#F06B6C"/>
<path d="M974.1 54.6006L965.7 80.4006C964.5 84.2006 961 86.7006 957 86.7006H929.8C920.9 86.7006 917.3 98.0006 924.4 103.201L946.4 119.201C949.6 121.501 950.9 125.701 949.7 129.401L941.3 155.201C938.6 163.601 948.2 170.601 955.4 165.401L977.4 149.401C980.6 147.101 984.9 147.101 988.2 149.401L1010.2 165.401C1017.4 170.601 1027 163.601 1024.3 155.201L1015.9 129.401C1014.7 125.601 1016 121.501 1019.2 119.201L1041.2 103.201C1048.4 98.0006 1044.7 86.7006 1035.8 86.7006H1008.6C1004.6 86.7006 1001.1 84.1006 999.9 80.4006L991.5 54.6006C988.8 46.1006 976.9 46.1006 974.1 54.6006Z" fill="#EFCB6C"/>
</g>
<defs>
<clipPath id="clip0_5470_18510">
<rect width="1264.2" height="487.8" fill="white"/>
</clipPath>
</defs>
</svg>
