<svg width="521" height="866" viewBox="0 0 521 866" fill="none" xmlns="http://www.w3.org/2000/svg">
<g clip-path="url(#clip0_4724_760)">
<path d="M268.977 823.586C267.408 823.586 265.748 823.586 263.979 823.523C262.21 823.461 260.65 823.586 259.19 823.586C257.933 823.587 256.68 823.447 255.462 823.167C253.692 823.06 252.003 822.944 250.353 822.801C247.354 822.543 244.265 822.222 241.286 821.839C238.307 821.456 235.348 821.019 232.439 820.52C230.989 820.271 229.54 820.004 228.11 819.718C198.829 813.998 175.456 802.557 161.89 787.391C152.58 781.876 144.333 775.054 137.468 767.191L126.071 753.78L123.572 750.822C121.573 748.425 119.573 746.046 117.574 743.693L114.925 740.486C112.835 737.964 110.826 735.496 108.837 733.036L108.717 732.876L106.717 730.328L106.597 730.176C104.488 727.503 102.479 724.928 100.599 722.477L100.529 722.397C97.81 718.833 95.2308 715.269 92.8715 711.927C92.8346 711.882 92.8012 711.834 92.7715 711.785C90.2923 708.221 87.953 704.754 85.8236 701.368L85.7737 701.297C83.5143 697.733 81.405 694.169 79.5256 690.684L79.4756 690.586C71.7879 676.472 67.1894 663.436 65.3699 650.649C58.9019 605.303 2.2493 504.516 1.66948 503.536C0.278938 501.077 -0.225816 498.296 0.224211 495.572C0.674238 492.848 2.05708 490.314 4.18372 488.317C6.31036 486.321 9.07703 484.958 12.1055 484.415C15.134 483.873 18.2765 484.177 21.1035 485.287C37.4085 491.685 54.0934 500.693 70.3184 511.805C68.319 502.075 66.3996 489.716 64.8001 473.926C62.1409 447.497 61.6411 424.205 61.6211 423.225C61.5689 420.712 62.3124 418.238 63.7664 416.085C65.2204 413.932 67.3258 412.188 69.8412 411.053C72.3566 409.918 75.18 409.438 77.9875 409.668C80.795 409.898 83.4728 410.829 85.7137 412.354C89.8524 415.17 187.382 481.785 211.065 524.627C216.414 534.286 223.681 550.165 231.569 569.679V333.727C173.505 317.013 124.333 281.902 93.3613 235.043C92.2317 233.332 91.082 231.55 89.9723 229.759C89.5525 229.099 89.1526 228.431 88.7527 227.763L87.863 226.284C87.5031 225.687 87.1332 225.09 86.7834 224.502C86.0836 223.308 85.4138 222.105 84.734 220.937L84.3341 220.216L83.7943 219.262C82.9645 217.747 82.1748 216.242 81.395 214.736L80.9851 213.969C80.1754 212.383 79.3656 210.744 78.5059 208.944C78.5059 208.944 78.3659 208.659 78.3459 208.623C77.5362 206.921 76.7064 205.13 75.8967 203.277C74.3372 199.712 72.8476 196.148 71.468 192.486V192.379C54.2947 147.07 54.0107 98.0277 70.6583 52.5633C71.6225 49.8701 73.5199 47.5187 76.0777 45.8472C78.6356 44.1757 81.7223 43.2702 84.8939 43.2607C85.8466 43.2625 86.7971 43.343 87.733 43.5013C125.272 49.917 160.674 63.8839 191.241 84.3384C192.371 81.9682 193.541 79.6158 194.75 77.2991V77.2189C209.504 48.9621 230.749 23.7811 257.111 3.30574C259.865 1.15936 263.405 -0.0154064 267.064 0.00264642C270.722 0.0206993 274.247 1.23033 276.975 3.40376C302.235 23.4842 322.657 47.9265 337.007 75.2496V75.3298C337.946 77.1119 338.876 78.8941 339.756 80.7296V80.8277C340.056 81.4425 340.356 82.0751 340.655 82.7078C370.692 63.1178 405.232 49.7148 441.784 43.4657C442.72 43.3066 443.671 43.226 444.624 43.2251C447.797 43.2301 450.887 44.1327 453.449 45.8028C456.011 47.4728 457.912 49.8243 458.879 52.5188C476.737 101.788 474.871 155.052 453.601 203.232C453.606 203.247 453.606 203.262 453.601 203.277C452.791 205.059 451.971 206.894 451.161 208.623L450.982 208.988C450.142 210.77 449.332 212.383 448.522 213.951L448.122 214.709C447.333 216.242 446.543 217.747 445.713 219.253C445.543 219.574 445.353 219.895 445.173 220.216L444.783 220.786C444.084 222.024 443.394 223.272 442.674 224.502C442.324 225.09 441.974 225.678 441.614 226.284L440.695 227.799C440.295 228.467 439.895 229.135 439.475 229.803C438.365 231.585 437.226 233.368 436.086 235.078C405.137 281.911 356.002 317.008 297.979 333.727V576.496C302.887 565.152 307.266 556.001 310.675 549.88C331.998 511.306 415.642 453.744 425.099 447.31C427.277 445.83 429.867 444.91 432.59 444.65C435.312 444.389 438.063 444.798 440.543 445.831C443.024 446.865 445.139 448.485 446.66 450.514C448.181 452.543 449.05 454.905 449.172 457.344C449.222 458.35 450.382 482.293 449.372 509.631C447.593 558.095 440.375 575.729 436.126 582.867C455.92 570.249 478.323 559.28 501.626 552.927C504.578 552.123 507.736 552.151 510.67 553.007C513.604 553.863 516.17 555.504 518.018 557.708C519.866 559.912 520.906 562.57 520.996 565.32C521.086 568.07 520.221 570.778 518.521 573.074C517.911 573.894 457.43 655.817 446.703 694.258C439.465 720.187 419.891 742.713 392.719 768.572L392.639 768.643C390.06 771.093 387.221 773.776 383.932 776.832L383.752 777.01L374.885 785.235L370.326 789.458C361.809 797.371 350.442 803.991 336.547 809.15C331.362 811.065 326.058 812.713 320.662 814.087C318.662 814.595 316.583 815.085 314.463 815.548C303.456 818.973 292.057 821.301 280.474 822.49C277.995 822.748 275.475 822.971 272.926 823.14C271.638 823.444 270.31 823.594 268.977 823.586V823.586Z" fill="#231F20"/>
<path d="M282.983 203.954H246.494V777.954H282.983V203.954Z" fill="#4CA84E"/>
<path d="M345.649 171.181C346.194 84.2405 280.414 13.3645 267.001 13.3645C250.423 13.3645 186.925 83.4477 186.38 170.389C185.836 257.33 264.419 326.572 264.419 326.572C264.419 326.572 345.104 258.122 345.649 171.181Z" fill="#D91F26"/>
<path d="M286.142 123.518C277.296 136.838 270.118 150.984 264.739 165.701C253.362 134.594 234.048 106.263 208.316 82.9307C191.632 114.95 184.261 150.197 186.881 185.424C189.502 220.65 202.03 254.721 223.311 284.497C236.722 289.159 250.582 292.723 264.719 295.145C279.535 292.602 294.047 288.807 308.055 283.81C329.664 253.907 342.41 219.607 345.101 184.118C347.792 148.63 340.339 113.113 323.441 80.8901C309.002 93.61 296.466 107.938 286.142 123.518V123.518Z" fill="#951B1E"/>
<path d="M422.37 229.447C472.117 154.677 452.861 84.6503 445.104 57.2715C433.367 57.2715 336.29 81.6843 286.543 156.455C236.797 231.225 227.132 308.046 264.956 328.039C295.409 318.998 372.624 304.217 422.37 229.447Z" fill="#F16465"/>
<path d="M423.21 228.253C440.252 202.643 450.976 174.09 454.666 144.496C458.357 114.902 454.93 84.9471 444.614 56.6265C444.614 56.6265 463.238 219.004 264.739 327.588C297.555 322.015 328.661 310.274 355.987 293.145C383.312 276.017 406.229 253.895 423.21 228.253V228.253Z" fill="#D91F26"/>
<path opacity="0.62" d="M254.032 245.932C368.877 284.987 442.724 189.545 443.864 188.075C430.542 223.385 406.939 254.908 375.466 279.421C343.994 303.933 305.782 320.556 264.739 327.588C255.198 301.258 251.56 273.513 254.032 245.932V245.932Z" fill="#7C131A"/>
<path d="M264.735 327.623C275.915 296.276 293.41 245.932 243.342 155.993C193.275 66.0547 112.965 64.6016 84.8723 56.6498C76.9763 82.8682 56.5974 153.452 106.265 228.28C155.933 303.107 243.342 323.899 264.735 327.623Z" fill="#F1594B"/>
<path d="M106.267 228.253C89.2303 202.641 78.5121 174.087 74.8266 144.493C71.1412 114.899 74.5731 84.9453 84.8939 56.6265C84.8939 56.6265 66.2496 219.004 264.739 327.588C231.923 322.014 200.817 310.272 173.492 293.144C146.167 276.015 123.25 253.894 106.267 228.253V228.253Z" fill="#D91F26"/>
<path d="M413.433 115.294C420.583 115.294 426.379 110.127 426.379 103.755C426.379 97.3816 420.583 92.2153 413.433 92.2153C406.283 92.2153 400.487 97.3816 400.487 103.755C400.487 110.127 406.283 115.294 413.433 115.294Z" fill="#F6FAFE"/>
<path opacity="0.62" d="M275.455 245.932C160.601 284.987 86.7534 189.545 85.6238 188.075C98.9397 223.387 122.54 254.911 154.012 279.424C185.483 303.937 223.695 320.559 264.739 327.588C274.283 301.259 279.914 274.445 275.455 245.932Z" fill="#951B1E"/>
<path d="M378.755 136.718C392.545 127.111 397.594 112.333 390.032 103.71C382.471 95.0865 365.162 95.8836 351.372 105.49C337.583 115.097 332.533 129.875 340.095 138.498C347.656 147.122 364.965 146.325 378.755 136.718Z" fill="#F6FAFE"/>
<path d="M242.925 277.413C238.991 277.409 235.205 276.072 232.335 273.673C229.466 271.274 227.726 267.992 227.47 264.492C227.47 263.833 223.171 209.532 199.969 177C198.852 175.469 198.088 173.756 197.719 171.961C197.35 170.165 197.384 168.322 197.819 166.538C198.255 164.755 199.082 163.066 200.254 161.569C201.426 160.072 202.92 158.797 204.648 157.817C206.376 156.838 208.305 156.174 210.323 155.863C212.342 155.552 214.409 155.601 216.405 156.007C218.402 156.413 220.289 157.168 221.956 158.227C223.624 159.287 225.039 160.631 226.121 162.181C253.652 200.782 258.221 260.197 258.401 262.71C258.532 264.521 258.262 266.336 257.607 268.054C256.951 269.771 255.922 271.356 254.579 272.719C253.235 274.082 251.604 275.195 249.778 275.996C247.951 276.797 245.966 277.269 243.935 277.386L242.925 277.413Z" fill="#F16465"/>
<path d="M130.75 648.752C123.652 587.696 14.9954 497.521 14.9954 497.521C14.9954 497.521 73.3075 600.786 80.1754 648.957C85.4038 685.641 116.524 720.384 149.374 759.127C166.939 779.844 204.237 795.517 246.494 799.973C246.494 799.973 142.606 750.742 130.75 648.752Z" fill="#4CA84E"/>
<path d="M152.283 627.838C145.435 596.215 84.2541 524.636 14.9954 497.521C14.9954 497.521 123.652 587.696 130.75 648.752C142.606 750.742 246.494 799.973 246.494 799.973C246.494 799.973 159.131 659.462 152.283 627.838Z" fill="#66BE64"/>
<path d="M130.75 648.752C123.652 587.696 14.9954 497.521 14.9954 497.521C14.9954 497.521 73.3075 600.786 80.1754 648.957C85.4038 685.641 116.524 720.384 149.374 759.127C166.939 779.844 204.237 795.517 246.494 799.973C246.494 799.973 142.606 750.742 130.75 648.752Z" fill="#4CA84E"/>
<path d="M152.283 627.838C145.435 596.215 84.2541 524.636 14.9954 497.521C14.9954 497.521 123.652 587.696 130.75 648.752C142.606 750.742 246.494 799.973 246.494 799.973C246.494 799.973 159.131 659.462 152.283 627.838Z" fill="#66BE64"/>
<g style="mix-blend-mode:multiply">
<path d="M212.595 743.907C199.059 740.343 183.314 736.039 169.068 731.593C145.705 724.304 109.596 695.059 89.0928 677.238C101.709 703.97 125.082 730.434 149.394 759.117C166.939 779.843 204.237 795.517 246.494 799.972C246.494 799.972 231.029 775.094 212.595 743.907Z" fill="#4CA84E"/>
</g>
<path d="M388.341 686.22C401.497 633.951 506.005 565.705 506.005 565.705C506.005 565.705 443.624 649.883 432.147 691.014C423.41 722.326 392.45 749.601 359.53 780.182C341.925 796.533 307.806 806.736 270.667 806.736C270.667 806.736 366.358 773.535 388.341 686.22Z" fill="#4CA84E"/>
<path d="M372.076 666.136C381.643 639.404 442.874 582.92 506.035 565.705C506.035 565.705 401.527 633.951 388.371 686.22C366.377 773.544 270.697 806.736 270.697 806.736C270.697 806.736 362.509 692.921 372.076 666.136Z" fill="#66BE64"/>
<g style="mix-blend-mode:multiply">
<path d="M331.158 728.688C302.897 766.816 270.667 806.753 270.667 806.753C307.806 806.753 341.925 796.551 359.53 780.2C383.832 757.62 407.065 736.841 421.071 714.912C385.362 729.035 353.592 730.541 331.158 728.688Z" fill="#4CA84E"/>
</g>
<g style="mix-blend-mode:multiply">
<path d="M181.864 607.941C180.523 601.702 178.652 595.562 176.266 589.576C178.695 629.914 183.584 707.196 186.383 723.44C174.313 707.592 163.349 691.097 153.553 674.048C161.87 705.921 174.256 738.873 191.731 767.823C198.518 779.075 208.598 788.478 220.9 795.033C233.202 801.588 247.267 805.05 261.6 805.051C261.6 805.051 189.382 645.481 181.864 607.941Z" fill="#4CA84E"/>
</g>
<path d="M324.12 555.823C344.504 518.951 434.197 457.976 434.197 457.976C434.197 457.976 396.558 545.576 380.963 561.615C367.967 574.981 356.471 619.854 346.664 634.111C336.857 648.368 334.227 689.054 314.623 741.279C295.019 793.503 259.14 810.255 259.14 810.255C247.844 739.826 303.737 592.668 324.12 555.823Z" fill="#66BE64"/>
<path d="M346.663 634.076C356.47 619.819 367.947 574.981 380.963 561.579C396.558 545.54 434.197 457.94 434.197 457.94C434.197 457.94 438.975 554.326 421.411 578.812C400.417 608.003 391.98 633.924 385.182 686.443C381.443 715.322 364.958 749.815 350.862 775.023C339.236 795.865 301.827 810.22 259.14 810.22C259.14 810.22 295.019 793.477 314.623 741.243C334.227 689.009 336.867 648.341 346.663 634.076Z" fill="#4CA84E"/>
<g style="mix-blend-mode:multiply">
<path d="M350.862 775.023C364.958 749.78 381.443 715.26 385.182 686.408C385.762 681.881 386.361 677.568 386.981 673.416C339.156 746.402 261.59 754.689 261.59 754.689L260.17 755.759C257.391 776.253 256.691 794.965 259.17 810.184C301.827 810.22 339.236 795.865 350.862 775.023Z" fill="#4CA84E"/>
</g>
<path d="M197.549 530.544C175.146 490.01 76.5864 422.976 76.5864 422.976C76.5864 422.976 117.884 519.29 135.058 536.906C149.374 551.635 161.99 600.92 172.767 616.593C183.544 632.267 186.443 677.007 207.986 734.4C229.529 791.793 268.967 810.22 268.967 810.22C281.424 732.84 219.952 571.078 197.549 530.544Z" fill="#66BE64"/>
<path d="M172.767 616.593C161.99 600.92 149.374 551.635 135.058 536.906C117.884 519.29 76.5464 422.976 76.5464 422.976C76.5464 422.976 78.4258 516.937 95.8905 539.045C113.355 561.152 122.962 616.415 130.43 674.155C134.529 705.877 152.653 743.818 168.158 771.566C180.924 794.439 222.092 810.22 268.977 810.22C268.977 810.22 229.529 791.811 207.996 734.4C186.463 676.989 183.534 632.276 172.767 616.593Z" fill="#4CA84E"/>
<g style="mix-blend-mode:multiply">
<path d="M124.692 634.076C126.771 647.032 128.69 660.522 130.43 674.173C134.529 705.895 152.653 743.836 168.158 771.584C180.924 794.457 222.092 810.238 268.977 810.238C272.706 787.07 269.807 756.373 263.319 723.618C182.864 738.196 124.702 634.094 124.692 634.076Z" fill="#4CA84E"/>
</g>
</g>
<defs>
<clipPath id="clip0_4724_760">
<rect width="521" height="866" fill="white"/>
</clipPath>
</defs>
</svg>
