<svg width="85" height="78" viewBox="0 0 85 78" fill="none" xmlns="http://www.w3.org/2000/svg">
<path d="M20.2532 57.4683C15.3357 53.8399 15.3917 45.0946 15.457 36.4143C15.5223 26.4595 15.5876 16.821 21.4382 11.3412C25.7678 7.28488 29.1644 9.35957 50.8871 9.33166C67.655 9.32236 71.4994 8.08499 74.812 11.8529C77.4806 14.8859 77.546 21.4356 77.574 34.4141C77.6019 46.9646 77.5646 53.2817 75.0826 55.6913C68.5415 62.0456 55.2727 51.9513 50.4205 57.98C46.6601 62.6597 51.0737 73.1634 49.9633 73.5262C48.8716 73.8798 47.6679 62.6783 40.7629 58.4824C33.298 53.9515 26.2717 61.9154 20.2532 57.4683Z" fill="#3E9581" stroke="black" stroke-miterlimit="10"/>
<path d="M6.79846 62.4737C3.93382 61.2084 3.97114 58.1661 4.00847 55.1518C4.04579 51.6909 4.08311 48.3323 7.48896 46.4343C10.0083 45.0202 11.9865 45.7459 24.6208 45.7366C34.3718 45.7273 36.6112 45.2993 38.5334 46.6111C40.0824 47.6624 40.1197 49.9418 40.1384 54.4633C40.157 58.8267 40.129 61.0316 38.6921 61.869C34.885 64.0832 27.1682 60.5665 24.3502 62.6691C22.1667 64.2972 24.7328 67.9535 24.0796 68.0744C23.4451 68.1954 22.7453 64.2972 18.7236 62.8458C14.3846 61.2549 10.2976 64.0181 6.79846 62.4737Z" fill="#1E6F5D" stroke="black" stroke-miterlimit="10"/>
<path d="M13.1902 56.8077C14.664 56.8077 15.8589 55.6164 15.8589 54.1469C15.8589 52.6774 14.664 51.4861 13.1902 51.4861C11.7163 51.4861 10.5215 52.6774 10.5215 54.1469C10.5215 55.6164 11.7163 56.8077 13.1902 56.8077Z" fill="#3E9581" stroke="black" stroke-miterlimit="10"/>
<path d="M31.6472 56.8077C33.1211 56.8077 34.3159 55.6164 34.3159 54.1469C34.3159 52.6774 33.1211 51.4861 31.6472 51.4861C30.1733 51.4861 28.9785 52.6774 28.9785 54.1469C28.9785 55.6164 30.1733 56.8077 31.6472 56.8077Z" fill="#3E9581" stroke="black" stroke-miterlimit="10"/>
<path d="M22.7449 56.8077C24.2187 56.8077 25.4135 55.6164 25.4135 54.1469C25.4135 52.6774 24.2187 51.4861 22.7449 51.4861C21.271 51.4861 20.0762 52.6774 20.0762 54.1469C20.0762 55.6164 21.271 56.8077 22.7449 56.8077Z" fill="#3E9581" stroke="black" stroke-miterlimit="10"/>
<path d="M57.4937 15.2862C57.7643 15.6304 59.6212 17.9191 62.8591 18.0865C66.3863 18.2726 68.5697 15.7979 68.8123 15.5095C69.2229 15.8909 70.9958 17.4539 73.7485 17.4911C76.6411 17.5376 78.5166 15.863 78.8992 15.5095C80.5415 14.0488 80.6068 11.5089 79.1418 10.0204C77.7702 8.62482 75.4187 8.53178 73.8791 9.8994C74.0097 8.03869 73.086 6.29893 71.5557 5.50812C69.6335 4.52195 67.0488 5.1918 65.6864 7.21998C65.0332 5.77793 64.1188 5.32205 63.7922 5.1825C61.8887 4.38239 59.024 5.61046 57.2418 8.55969C56.8219 8.46666 55.0583 8.13173 53.3228 9.17373C52.2217 9.83428 51.6525 10.7553 51.4099 11.2112C50.3648 14.1883 51.9324 16.8771 53.7426 17.2492C55.0023 17.5004 56.5046 16.6724 57.4937 15.2862Z" fill="white"/>
<path d="M57.4843 15.193C57.7176 15.3419 57.7269 15.407 57.8482 15.5001C57.9509 15.5931 58.0535 15.6768 58.1562 15.7606C58.3614 15.9187 58.5667 16.0862 58.7907 16.235C59.2199 16.5328 59.6865 16.7746 60.1623 16.97C61.1141 17.3515 62.1125 17.5561 63.111 17.5003C64.1001 17.4817 65.0612 17.2026 65.929 16.7746C66.7874 16.3374 67.5992 15.6954 68.1964 14.9977L68.7283 14.3836L69.3535 14.9325C70.6318 16.0583 72.3301 16.7002 74.0376 16.7002C75.7266 16.7188 77.5275 16.0769 78.8152 14.886C79.4123 14.2999 79.8043 13.4719 79.8229 12.5973C79.8602 11.7228 79.5337 10.839 78.9085 10.2063C78.302 9.56438 77.3968 9.22946 76.5104 9.22946C75.6239 9.22946 74.7468 9.57369 74.1403 10.1877L73.4685 10.8576L73.4871 9.8714C73.5058 8.95965 73.2445 8.0479 72.7406 7.32223C72.2368 6.60585 71.4996 6.07555 70.6971 5.89878C69.8853 5.6941 69.0269 5.80575 68.2617 6.12207C67.4966 6.44769 66.8527 7.01521 66.4048 7.70367L65.565 8.97826L64.8932 7.57342C64.5666 6.88496 64.0721 6.30814 63.5215 6.06625C62.971 5.82435 62.2618 5.83366 61.5713 6.07555C60.8808 6.31744 60.209 6.70819 59.6211 7.23849C59.0333 7.75949 58.5294 8.39214 58.0908 9.0713L57.6896 9.66672L57.0271 9.50856C56.1127 9.29458 55.1049 9.35971 54.2464 9.72255C53.3693 10.0668 52.6228 10.7366 52.1376 11.574L52.1843 11.4623C51.8857 12.2531 51.7271 13.109 51.8484 13.9371C51.9323 14.7744 52.2962 15.5931 52.8654 16.1885C53.444 16.7933 54.2558 17.0072 55.1236 16.7653C55.5528 16.6444 55.9727 16.4397 56.3553 16.1699C56.5512 16.0397 56.7285 15.8908 56.9058 15.7326C56.9991 15.6582 57.0738 15.5652 57.1671 15.4908C57.251 15.3977 57.391 15.2675 57.4843 15.193ZM57.4937 15.3791C57.447 15.4908 57.4377 15.5652 57.3724 15.6582C57.2977 15.7606 57.2324 15.8629 57.1577 15.9652C57.0084 16.1699 56.8405 16.356 56.6539 16.5328C56.29 16.8863 55.8607 17.1933 55.3755 17.4166C54.8903 17.6306 54.3304 17.7701 53.7426 17.6864C53.1547 17.612 52.6228 17.3422 52.1843 16.9979C51.3072 16.2909 50.738 15.2768 50.4954 14.1976C50.2434 13.1183 50.3461 11.9833 50.654 10.932L50.6633 10.9041L50.7006 10.8204C51.2792 9.63881 52.2683 8.62473 53.5 8.0479C54.741 7.46178 56.1313 7.34083 57.4563 7.60133L56.4019 8.05721C56.8965 7.20128 57.5403 6.41048 58.3055 5.74062C59.0706 5.07076 59.9664 4.51255 61.0021 4.21484C62.0286 3.91712 63.2323 3.87991 64.3333 4.41952C65.4157 4.97773 66.0689 5.92669 66.4795 6.86635L64.9678 6.7361C65.6397 5.78714 66.5915 5.02425 67.6925 4.6428C68.7843 4.24275 70.016 4.21484 71.1077 4.60559C72.2181 4.98703 73.1139 5.81505 73.6457 6.78262C74.1869 7.75949 74.3922 8.86662 74.2709 9.93653L73.6271 9.62021C75.26 8.25258 77.8354 8.3084 79.319 9.80628C80.8213 11.2669 80.9706 13.8626 79.571 15.5559C78.8805 16.3653 78.05 16.9793 77.1262 17.4631C76.2025 17.9283 75.1574 18.2539 74.0936 18.2911C71.9475 18.4307 69.8107 17.5654 68.271 16.1048L69.4281 16.0397C68.607 16.9607 67.6272 17.6027 66.5448 18.0864C65.4624 18.5609 64.2587 18.7656 63.0923 18.6819C61.9259 18.6074 60.7782 18.2539 59.8171 17.6492C59.3319 17.3515 58.884 17.0072 58.4828 16.6258C58.2775 16.4304 58.0815 16.235 57.9136 16.0211C57.8296 15.9094 57.7456 15.8071 57.6616 15.6954C57.5963 15.5838 57.4283 15.4349 57.4937 15.3791Z" fill="black"/>
<path d="M57.4937 49.3277C57.7643 49.6719 59.6212 51.9606 62.8591 52.1281C66.3863 52.3141 68.5697 49.8394 68.8123 49.551C69.2229 49.9324 70.9958 51.4954 73.7485 51.5326C76.6411 51.5791 78.5166 49.9045 78.8992 49.551C80.5415 48.0903 80.6068 45.5504 79.1418 44.0619C77.7702 42.6663 75.4187 42.5733 73.8791 43.9409C74.0097 42.0802 73.086 40.3404 71.5557 39.5496C69.6335 38.5635 67.0488 39.2333 65.6864 41.2615C65.0332 39.8194 64.1188 39.3636 63.7922 39.224C61.8887 38.4239 59.024 39.652 57.2418 42.6012C56.8219 42.5082 55.0583 42.1732 53.3228 43.2152C52.2217 43.8758 51.6525 44.7968 51.4099 45.2527C50.3648 48.2299 51.9324 50.9186 53.7426 51.2907C55.0023 51.5419 56.5046 50.7139 57.4937 49.3277Z" fill="white"/>
<path d="M57.4843 49.2345C57.7176 49.3834 57.7269 49.4485 57.8482 49.5416C57.9509 49.6346 58.0535 49.7183 58.1562 49.8021C58.3614 49.9602 58.5667 50.1277 58.7907 50.2765C59.2199 50.5743 59.6865 50.8161 60.1623 51.0115C61.1141 51.393 62.1125 51.5976 63.111 51.5418C64.1001 51.5232 65.0612 51.2441 65.929 50.8161C66.7874 50.3789 67.5992 49.7369 68.1964 49.0392L68.7283 48.4251L69.3535 48.974C70.6318 50.0998 72.3301 50.7417 74.0376 50.7417C75.7266 50.7603 77.5275 50.1184 78.8152 48.9275C79.4123 48.3414 79.8043 47.5134 79.8229 46.6388C79.8602 45.7643 79.5337 44.8805 78.9085 44.2478C78.302 43.6059 77.3968 43.271 76.5104 43.271C75.6239 43.2803 74.7468 43.6245 74.131 44.2385L73.4591 44.9084L73.4778 43.9222C73.4964 43.0105 73.2352 42.0987 72.7313 41.373C72.2274 40.6567 71.4903 40.1264 70.6878 39.9496C69.876 39.7449 69.0175 39.8566 68.2524 40.1729C67.4872 40.4985 66.8434 41.066 66.3955 41.7545L65.5557 43.0291L64.8839 41.6242C64.5573 40.9358 64.0627 40.3589 63.5122 40.1171C62.9617 39.8752 62.2525 39.8845 61.562 40.1264C60.8715 40.3682 60.1997 40.759 59.6118 41.2893C59.024 41.8103 58.5201 42.4429 58.0815 43.1221L57.6896 43.7361L57.0271 43.578C56.1127 43.364 55.1049 43.4291 54.2464 43.792C53.3693 44.1362 52.6228 44.806 52.1376 45.6434L52.1843 45.5317C51.8857 46.3225 51.7271 47.1785 51.8484 48.0065C51.9323 48.8438 52.2962 49.6625 52.8654 50.2579C53.444 50.8627 54.2558 51.0766 55.1236 50.8348C55.5528 50.7138 55.9727 50.5091 56.3553 50.2393C56.5512 50.1091 56.7285 49.9602 56.9058 49.8021C56.9991 49.7276 57.0738 49.6346 57.1671 49.5602C57.251 49.4392 57.391 49.309 57.4843 49.2345ZM57.4937 49.4206C57.447 49.5323 57.4377 49.6067 57.3724 49.6997C57.2977 49.8021 57.2324 49.9044 57.1577 50.0067C57.0084 50.2114 56.8405 50.3975 56.6539 50.5743C56.29 50.9278 55.8607 51.2348 55.3755 51.4581C54.8903 51.6721 54.3304 51.8116 53.7426 51.7279C53.1547 51.6535 52.6228 51.3837 52.1843 51.0394C51.3072 50.3324 50.738 49.3183 50.4954 48.2391C50.2434 47.1598 50.3461 46.0248 50.654 44.9735L50.6633 44.9456L50.7006 44.8619C51.2792 43.6803 52.2683 42.6662 53.5 42.0894C54.741 41.5033 56.1313 41.3823 57.4563 41.6428L56.4019 42.0987C56.8965 41.2428 57.5403 40.452 58.3055 39.7821C59.0706 39.1123 59.9664 38.5541 61.0021 38.2563C62.0286 37.9586 63.2323 37.9214 64.3333 38.461C65.4157 39.0192 66.0689 39.9682 66.4795 40.9079L64.9678 40.7776C65.6397 39.8286 66.5915 39.0658 67.6925 38.6843C68.7843 38.2843 70.016 38.2563 71.1077 38.6471C72.2181 39.0285 73.1139 39.8566 73.6457 40.8241C74.1869 41.801 74.3922 42.9081 74.2709 43.978L73.6271 43.6617C75.26 42.2941 77.8354 42.3499 79.319 43.8478C80.8213 45.3084 80.9706 47.9041 79.571 49.5974C78.8805 50.4068 78.05 51.0208 77.1262 51.5046C76.2025 51.9698 75.1574 52.2954 74.0936 52.3326C71.9475 52.4722 69.8107 51.6069 68.271 50.1463L69.4281 50.0812C68.607 51.0022 67.6272 51.6442 66.5448 52.1279C65.4624 52.6024 64.2587 52.8071 63.0923 52.7234C61.9259 52.6489 60.7782 52.2954 59.8171 51.6907C59.3319 51.393 58.884 51.0487 58.4828 50.6673C58.2775 50.4719 58.0815 50.2765 57.9136 50.0626C57.8296 49.9509 57.7456 49.8486 57.6616 49.7369C57.5963 49.616 57.4283 49.4764 57.4937 49.4206Z" fill="black"/>
<path d="M23.818 33.8374C24.0886 34.1817 25.9454 36.4703 29.1833 36.6378C32.7105 36.8239 34.8939 34.3491 35.1366 34.0607C35.5471 34.4422 37.32 36.0052 40.0727 36.0424C42.9653 36.0889 44.8409 34.4143 45.2234 34.0607C46.8657 32.6001 46.931 30.0602 45.466 28.5716C44.0944 27.1761 41.743 27.0831 40.2033 28.4507C40.334 26.59 39.4102 24.8502 37.8799 24.0594C35.9577 23.0732 33.373 23.7431 32.0106 25.7712C31.3575 24.3292 30.443 23.8733 30.1164 23.7338C28.2129 22.9337 25.3483 24.1617 23.566 27.111C23.1461 27.0179 21.3826 26.683 19.647 27.725C18.5459 28.3856 17.9767 29.3066 17.7341 29.7625C16.689 32.7396 18.2566 35.4283 20.0669 35.8005C21.3359 36.0424 22.8382 35.2237 23.818 33.8374Z" fill="white"/>
<path d="M23.8183 33.7443C24.0516 33.8932 24.0609 33.9583 24.1822 34.0513C24.2849 34.1444 24.3875 34.2281 24.4901 34.3118C24.6954 34.47 24.9007 34.6375 25.1247 34.7863C25.5539 35.084 26.0204 35.3259 26.4963 35.5213C27.4481 35.9027 28.4465 36.1074 29.4449 36.0516C30.434 36.033 31.3951 35.7539 32.2629 35.3259C33.1214 34.8886 33.9332 34.2467 34.5304 33.5489L35.0623 32.9349L35.6874 33.4838C36.9658 34.6095 38.664 35.2515 40.3716 35.2515C42.0606 35.2701 43.8615 34.6281 45.1491 33.4373C45.7463 32.8512 46.1382 32.0232 46.1569 31.1486C46.1942 30.2741 45.8676 29.3902 45.2425 28.7576C44.6359 28.1157 43.7308 27.7807 42.8444 27.7807C41.9579 27.79 41.0808 28.1343 40.4649 28.7483L39.7931 29.4182L39.8118 28.432C39.8304 27.5202 39.5692 26.6085 39.0653 25.8828C38.5614 25.1664 37.8242 24.6361 37.0218 24.4594C36.21 24.2547 35.3515 24.3663 34.5864 24.6826C33.8212 25.0083 33.1774 25.5758 32.7295 26.2642L31.8897 27.5388L31.2179 26.134C30.8913 25.4455 30.3967 24.8687 29.8462 24.6268C29.2957 24.3849 28.5865 24.3942 27.896 24.6361C27.2055 24.878 26.5337 25.2688 25.9458 25.7991C25.3579 26.3201 24.8541 26.9527 24.4155 27.6319L24.0236 28.2459L23.3611 28.0877C22.4466 27.8738 21.4389 27.9389 20.5804 28.3017C19.7033 28.646 18.9568 29.3158 18.4716 30.1531L18.5183 30.0415C18.2197 30.8323 18.061 31.6882 18.1823 32.5162C18.2663 33.3536 18.6302 34.1723 19.1994 34.7677C19.778 35.3724 20.5898 35.5864 21.4575 35.3445C21.8868 35.2236 22.3067 35.0189 22.6893 34.7491C22.8852 34.6188 23.0625 34.47 23.2398 34.3118C23.3331 34.2374 23.4077 34.1444 23.5011 34.0699C23.585 33.949 23.725 33.8187 23.8183 33.7443ZM23.8276 33.9304C23.781 34.042 23.7717 34.1165 23.7063 34.2095C23.6317 34.3118 23.5664 34.4142 23.4917 34.5165C23.3424 34.7212 23.1745 34.9073 22.9878 35.084C22.6239 35.4376 22.1947 35.7446 21.7095 35.9679C21.2243 36.1818 20.6644 36.3214 20.0766 36.2377C19.4887 36.1632 18.9568 35.8934 18.5183 35.5492C17.6411 34.8421 17.0719 33.828 16.8293 32.7488C16.5774 31.6696 16.68 30.5346 16.988 29.4833L16.9973 29.4554L17.0346 29.3716C17.6131 28.1901 18.6022 27.176 19.8339 26.5992C21.075 26.013 22.4653 25.8921 23.7903 26.1526L22.7359 26.6085C23.2305 25.7525 23.8743 24.9617 24.6394 24.2919C25.4046 23.622 26.3004 23.0638 27.3361 22.7661C28.3625 22.4684 29.5663 22.4312 30.6673 22.9708C31.7497 23.529 32.4029 24.478 32.8135 25.4176L31.3018 25.2874C31.9737 24.3384 32.9254 23.5755 34.0265 23.1941C35.1182 22.794 36.3499 22.7661 37.4417 23.1569C38.5521 23.5383 39.4479 24.3663 39.9797 25.3339C40.5209 26.3108 40.7262 27.4179 40.6049 28.4878L39.9611 28.1715C41.594 26.8039 44.1694 26.8597 45.653 28.3575C47.1553 29.8182 47.3046 32.4139 45.905 34.1071C45.2145 34.9166 44.384 35.5306 43.4602 36.0144C42.5364 36.4796 41.4914 36.8052 40.4276 36.8424C38.2815 36.982 36.1447 36.1167 34.605 34.6561L35.7621 34.5909C34.9409 35.512 33.9612 36.1539 32.8788 36.6377C31.7964 37.1122 30.5927 37.3169 29.4263 37.2331C28.2599 37.1587 27.1122 36.8052 26.1511 36.2005C25.6659 35.9027 25.218 35.5585 24.8167 35.1771C24.6115 34.9817 24.4155 34.7863 24.2475 34.5723C24.1636 34.4607 24.0796 34.3583 23.9956 34.2467C23.9303 34.1258 23.7623 33.9862 23.8276 33.9304Z" fill="black"/>
</svg>
