<svg width="620" height="839" viewBox="0 0 620 839" fill="none" xmlns="http://www.w3.org/2000/svg">
<g clip-path="url(#clip0_4879_430)">
<path d="M309.59 838.58C480.572 838.58 619.18 809.519 619.18 773.67C619.18 737.821 480.572 708.76 309.59 708.76C138.608 708.76 0 737.821 0 773.67C0 809.519 138.608 838.58 309.59 838.58Z" fill="#A7A9AC"/>
<path d="M161.71 785.61C158.904 785.605 156.131 785.01 153.57 783.864C151.009 782.717 148.718 781.044 146.846 778.954C144.974 776.864 143.562 774.404 142.703 771.733C141.844 769.062 141.557 766.24 141.86 763.45C141.86 763.34 141.99 762.2 142.15 760.26C142.15 759.76 142.23 759.26 142.27 758.65C142.49 755.65 142.79 750.95 142.95 745.23C142.95 744.23 143 743.23 143.02 742.13V740.5C143.02 739.43 143.02 738.32 143.02 737.18C143.02 732.25 142.9 727.42 142.66 722.82C142.52 720.26 142.34 717.74 142.12 715.32C142.01 714.07 141.89 712.82 141.75 711.56C141.61 710.3 141.47 709.08 141.31 707.84C141.15 706.6 140.98 705.38 140.79 704.16C140.7 703.56 140.6 702.95 140.5 702.35C140.3 701.15 140.08 699.96 139.85 698.79C139.74 698.21 139.63 697.64 139.5 697.06C138.736 693.294 137.734 689.58 136.5 685.94C136.34 685.47 136.17 685 136 684.54C135.369 682.838 134.652 681.169 133.85 679.54C133.31 678.45 132.74 677.43 132.16 676.54C130.59 674.02 128.89 671.38 126.99 668.48C125.37 666.01 123.81 663.68 122.32 661.48L122.08 661.12C120.44 658.67 118.88 656.32 117.39 654.05C116.39 652.45 115.39 650.89 114.39 649.34C113.39 647.79 112.39 646.08 111.49 644.54C110.49 642.82 109.59 641.19 108.73 639.54C106.885 636.044 105.236 632.449 103.79 628.77C103.04 626.84 102.35 624.87 101.72 622.91C100.72 619.91 99.93 616.72 99.25 613.52C97.3107 603.883 96.3923 594.069 96.51 584.24V201.42C96.4545 193.866 96.9659 186.318 98.04 178.84C98.9776 172.35 100.545 165.966 102.72 159.78C103.07 158.78 103.42 157.84 103.79 156.9C104.51 155.04 105.31 153.18 106.15 151.35C106.55 150.47 106.97 149.59 107.41 148.71C108.24 147.03 109.14 145.32 110.09 143.6C111.04 141.88 111.89 140.42 112.92 138.72C113.83 137.21 114.8 135.66 115.92 133.97C117.92 130.82 120.06 127.63 122.12 124.55L122.31 124.26C125.45 119.55 128.7 114.69 132.21 109.08C134.245 105.666 135.863 102.02 137.03 98.22C138.395 93.9066 139.471 89.5069 140.25 85.0501C140.457 83.8568 140.657 82.6568 140.85 81.4501C141.73 75.7601 142.35 69.4501 142.72 62.7801C142.96 58.1901 143.09 53.3601 143.08 48.4201C143.08 33.4801 141.89 22.2501 141.88 22.1401C141.58 19.3497 141.87 16.5272 142.732 13.8564C143.594 11.1855 145.009 8.72612 146.884 6.63788C148.759 4.54965 151.053 2.87939 153.616 1.73578C156.179 0.592171 158.954 0.000790651 161.76 6.37121e-05H529.16C531.91 -0.00687787 534.633 0.553478 537.157 1.64618C539.68 2.73889 541.952 4.3405 543.829 6.35077C545.706 8.36104 547.148 10.7368 548.065 13.3297C548.983 15.9225 549.355 18.6767 549.16 21.4201C549.16 21.6701 549.16 21.9201 549.09 22.1701C549.09 22.1701 549 23.08 549 23.11L548.83 25.0501C548.83 25.0501 548.76 25.92 548.76 25.96C548.68 26.88 548.61 27.9601 548.53 29.1401L548.44 30.5001C548.32 32.5001 548.22 34.57 548.14 36.59V36.6601C548.02 39.7301 547.94 42.82 547.92 45.84C547.925 45.8766 547.925 45.9136 547.92 45.9501C547.92 49.4601 547.92 52.9501 548.02 56.3201V56.4401C548.11 59.4401 548.24 62.4401 548.43 65.2701V65.47C548.43 66.13 548.52 66.81 548.57 67.47V67.6301C548.64 68.4401 548.69 69.1601 548.76 69.8901C550.68 92.1101 555.26 103.46 558.76 109.06C562.26 114.66 565.53 119.57 568.69 124.29C583.06 145.81 594.41 162.82 594.41 201.4V584.19C594.41 614.52 587.57 631.58 576.54 649.28C575.54 650.83 574.54 652.39 573.54 653.98C572.54 655.57 571.54 657.08 570.44 658.68L567.89 662.51C566.61 664.42 565.3 666.39 563.89 668.51C561.99 671.42 560.29 674.05 558.72 676.58C558.106 677.551 557.542 678.552 557.03 679.58C556.23 681.208 555.516 682.877 554.89 684.58C554.71 685.04 554.55 685.51 554.38 685.98C553.152 689.618 552.15 693.328 551.38 697.09C551.26 697.66 551.14 698.25 551.03 698.83C550.8 700.01 550.58 701.2 550.38 702.39C550.29 702.98 550.19 703.59 550.1 704.19C549.91 705.42 549.73 706.65 549.57 707.88C549.41 709.11 549.26 710.36 549.13 711.6C549 712.84 548.87 714.11 548.76 715.36V715.73C548.69 716.47 548.64 717.19 548.58 717.91V718.12C548.52 718.84 548.47 719.52 548.43 720.19V720.37C548.24 723.24 548.11 726.21 548.02 729.21V729.29C547.92 732.76 547.89 736.29 547.93 739.79V739.85C547.93 742.85 548.03 745.91 548.15 748.96C548.15 748.96 548.15 749.02 548.15 749.06C548.23 751.06 548.33 753.12 548.45 755.12C548.45 755.12 548.53 756.44 548.54 756.45C548.62 757.7 548.7 758.8 548.77 759.75L548.91 761.47L549.11 763.58C549.4 766.366 549.101 769.181 548.234 771.845C547.366 774.508 545.949 776.959 544.074 779.039C542.199 781.12 539.908 782.784 537.349 783.922C534.79 785.061 532.021 785.65 529.22 785.65L161.71 785.61Z" fill="#231F20"/>
<path d="M161.71 765.61C161.71 765.61 169.05 697.82 149.12 665.93C129.19 634.04 116.51 624.06 116.51 584.19V201.42C116.51 161.55 129.18 151.58 149.12 119.68C169.06 87.7801 161.71 20 161.71 20H515.86C515.86 20 523.2 87.7801 503.26 119.68C483.32 151.58 470.65 161.55 470.65 201.42V584.19C470.65 624.06 483.33 634.03 503.26 665.93C523.19 697.83 515.86 765.61 515.86 765.61H161.71Z" fill="#71A29E"/>
<path d="M183.7 665.89C163.76 633.99 151.09 624.02 151.09 584.15V201.42C151.09 161.55 163.76 151.58 183.7 119.68C203.64 87.7801 196.3 20 196.3 20H161.71C161.71 20 169.05 87.7801 149.12 119.68C129.19 151.58 116.51 161.55 116.51 201.42V584.19C116.51 624.06 129.18 634.03 149.12 665.93C169.06 697.83 161.71 765.61 161.71 765.61H196.3C196.3 765.61 203.64 697.82 183.7 665.89Z" fill="#587B75"/>
<path d="M529.16 765.61C529.16 765.61 521.82 697.82 541.76 665.93C561.7 634.04 574.37 624.06 574.37 584.19V201.42C574.37 161.55 561.69 151.58 541.76 119.68C521.83 87.7801 529.16 20 529.16 20H175.01C175.01 20 167.68 87.7801 187.61 119.68C207.54 151.58 220.22 161.55 220.22 201.42V584.19C220.22 624.06 207.55 634.03 187.61 665.93C167.67 697.83 175.01 765.61 175.01 765.61H529.16Z" fill="#C5E6DC"/>
<path d="M574.37 323.029H220.22V462.579H574.37V323.029Z" fill="#48BEA2"/>
<path d="M401.25 541.319C483.275 541.319 549.77 474.825 549.77 392.799C549.77 310.774 483.275 244.279 401.25 244.279C319.225 244.279 252.73 310.774 252.73 392.799C252.73 474.825 319.225 541.319 401.25 541.319Z" fill="#FAF28C"/>
<path d="M529.16 20H175.01C173.409 37.1676 173.282 54.4407 174.63 71.63H528.78C527.426 54.441 527.553 37.1673 529.16 20Z" fill="#98CFC0"/>
<path d="M174.63 713.971C173.281 731.163 173.409 748.44 175.01 765.611H529.16C527.553 748.44 527.426 731.163 528.78 713.971H174.63Z" fill="#98CFC0"/>
<g style="mix-blend-mode:multiply">
<path d="M219.57 598.55C216.75 627.07 204.92 638.25 187.57 665.93C167.64 697.82 174.97 765.61 174.97 765.61H529.16C529.16 765.61 521.82 697.82 541.76 665.93C561.7 634.04 574.37 624.06 574.37 584.19V201.42C574.37 201.42 550.56 598.55 219.57 598.55Z" fill="#CEEAE2"/>
</g>
<path d="M523.96 593.2C543.185 593.2 558.77 577.615 558.77 558.39C558.77 539.165 543.185 523.58 523.96 523.58C504.735 523.58 489.15 539.165 489.15 558.39C489.15 577.615 504.735 593.2 523.96 593.2Z" fill="#E9F3F9"/>
<g style="mix-blend-mode:multiply">
<path d="M574.37 584.191V499.091L572.43 496.961C572.43 496.961 560.78 675.961 187.61 665.961C167.68 697.851 175.01 765.641 175.01 765.641H529.16C529.16 765.641 521.82 697.851 541.76 665.961C561.7 634.071 574.37 624.061 574.37 584.191Z" fill="#CEEAE2"/>
</g>
<path d="M290.12 304.62C307.186 304.62 321.02 290.786 321.02 273.72C321.02 256.655 307.186 242.82 290.12 242.82C273.054 242.82 259.22 256.655 259.22 273.72C259.22 290.786 273.054 304.62 290.12 304.62Z" fill="#E9F3F9"/>
<path d="M269.17 237.89C278.487 237.89 286.04 230.337 286.04 221.02C286.04 211.703 278.487 204.15 269.17 204.15C259.853 204.15 252.3 211.703 252.3 221.02C252.3 230.337 259.853 237.89 269.17 237.89Z" fill="#E9F3F9"/>
<path d="M326.39 145.99H342.39C342.971 145.977 343.553 146.007 344.13 146.08C344.572 146.165 345 146.313 345.4 146.52C345.647 146.656 345.863 146.842 346.035 147.066C346.207 147.289 346.331 147.546 346.4 147.82C346.625 148.647 346.726 149.503 346.7 150.36C346.724 151.197 346.623 152.032 346.4 152.84C346.332 153.116 346.208 153.375 346.036 153.602C345.864 153.829 345.647 154.019 345.4 154.16C344.986 154.392 344.537 154.554 344.07 154.64C343.502 154.7 342.931 154.727 342.36 154.72H321.12C320.264 154.743 319.409 154.645 318.58 154.43C318.03 154.29 317.511 154.049 317.05 153.72C316.67 153.404 316.391 152.983 316.25 152.51C316.097 152.07 315.999 151.613 315.96 151.15C315.96 150.783 315.96 150.223 315.96 149.47V116.67C315.951 116.002 315.981 115.334 316.05 114.67C316.141 114.12 316.331 113.592 316.61 113.11C316.778 112.807 317.006 112.541 317.279 112.328C317.552 112.115 317.865 111.959 318.2 111.87C319.178 111.61 320.188 111.492 321.2 111.52C322.056 111.501 322.91 111.599 323.74 111.81C324.288 111.953 324.806 112.194 325.27 112.52C325.648 112.837 325.926 113.257 326.07 113.73C326.223 114.169 326.321 114.626 326.36 115.09C326.36 115.456 326.36 116.016 326.36 116.77L326.39 145.99Z" fill="#115E49"/>
<path d="M355.71 119.441C354.715 119.467 353.721 119.349 352.76 119.091C352.429 119.001 352.12 118.845 351.852 118.632C351.583 118.419 351.362 118.153 351.2 117.851C350.942 117.362 350.763 116.835 350.67 116.291C350.55 114.933 350.55 113.568 350.67 112.211C350.761 111.675 350.94 111.158 351.2 110.681C351.366 110.385 351.59 110.126 351.858 109.918C352.126 109.71 352.432 109.558 352.76 109.471C353.737 109.206 354.748 109.088 355.76 109.121C356.755 109.088 357.75 109.206 358.71 109.471C359.043 109.559 359.354 109.714 359.624 109.927C359.894 110.141 360.117 110.407 360.28 110.711C360.538 111.199 360.717 111.726 360.81 112.271C360.879 112.935 360.909 113.603 360.9 114.271C360.91 114.938 360.88 115.606 360.81 116.271C360.721 116.81 360.542 117.331 360.28 117.811C360.113 118.107 359.888 118.367 359.618 118.575C359.348 118.783 359.039 118.934 358.71 119.021C357.736 119.305 356.725 119.446 355.71 119.441ZM350.58 128.821C350.57 128.153 350.6 127.485 350.67 126.821C350.761 126.282 350.94 125.762 351.2 125.281C351.366 124.985 351.59 124.726 351.858 124.518C352.126 124.31 352.432 124.158 352.76 124.071C353.738 123.811 354.748 123.693 355.76 123.721C356.606 123.705 357.45 123.803 358.27 124.011C358.821 124.146 359.341 124.387 359.8 124.721C360.165 125.043 360.432 125.463 360.57 125.931C360.73 126.369 360.831 126.826 360.87 127.291C360.87 127.664 360.87 128.224 360.87 128.971V149.621C360.88 150.288 360.85 150.956 360.78 151.621C360.689 152.156 360.51 152.674 360.25 153.151C360.083 153.447 359.858 153.707 359.588 153.915C359.318 154.123 359.009 154.274 358.68 154.361C357.703 154.626 356.692 154.744 355.68 154.711C354.685 154.741 353.69 154.623 352.73 154.361C352.399 154.271 352.09 154.115 351.822 153.902C351.553 153.689 351.332 153.423 351.17 153.121C350.916 152.641 350.737 152.125 350.64 151.591C350.568 150.903 350.538 150.212 350.55 149.521L350.58 128.821Z" fill="#115E49"/>
<path d="M365.63 114.19C365.623 113.522 365.65 112.855 365.71 112.19C365.801 111.64 365.984 111.109 366.25 110.62C366.409 110.316 366.63 110.048 366.899 109.835C367.167 109.621 367.478 109.466 367.81 109.38C368.788 109.12 369.798 109.002 370.81 109.03C371.797 108.999 372.783 109.128 373.73 109.41C374.389 109.61 374.946 110.053 375.29 110.65C375.577 111.132 375.767 111.665 375.85 112.22C375.92 112.904 375.95 113.592 375.94 114.28V141.6C375.86 142.508 375.98 143.423 376.29 144.28C376.53 144.66 377.18 144.84 378.29 144.84C378.705 144.829 379.121 144.859 379.53 144.93C379.89 145.038 380.228 145.207 380.53 145.43C380.997 145.786 381.314 146.303 381.42 146.88C381.618 147.779 381.706 148.699 381.68 149.62C381.709 150.626 381.622 151.633 381.42 152.62C381.323 153.233 381.007 153.791 380.53 154.19C380.215 154.435 379.855 154.615 379.47 154.72C379.049 154.78 378.625 154.807 378.2 154.8C376.53 154.823 374.861 154.746 373.2 154.57C371.993 154.427 370.812 154.117 369.69 153.65C368.668 153.25 367.814 152.513 367.27 151.56C366.674 150.433 366.266 149.217 366.06 147.96C365.752 146.106 365.615 144.228 365.65 142.35L365.63 114.19Z" fill="#115E49"/>
<path d="M410.86 123.98C413.18 125.007 414.34 126.247 414.34 127.701C414.238 128.693 413.939 129.655 413.46 130.531V130.59C413.441 130.604 413.425 130.622 413.415 130.643C413.404 130.664 413.399 130.687 413.4 130.71L397.94 165.281C397.62 166.031 397.36 166.6 397.14 167C396.884 167.437 396.545 167.817 396.14 168.12C395.664 168.474 395.083 168.661 394.49 168.651C393.36 168.561 392.258 168.259 391.24 167.76C388.92 166.74 387.76 165.524 387.76 164.11C387.888 163.039 388.206 162 388.7 161.041C390.16 157.707 391.737 154.224 393.43 150.59L381.68 130.83C381.064 129.974 380.66 128.983 380.5 127.941C380.5 126.681 381.57 125.421 383.69 124.161C384.711 123.482 385.888 123.075 387.11 122.98C387.658 122.982 388.194 123.146 388.65 123.451C389.046 123.715 389.386 124.055 389.65 124.451C389.86 124.781 390.19 125.3 390.65 126.01C394.11 131.95 396.727 136.357 398.5 139.23C398.687 138.604 400.573 134.374 404.16 126.541C404.44 125.911 404.64 125.461 404.78 125.191C404.966 124.838 405.183 124.503 405.43 124.191C405.691 123.847 406.035 123.575 406.43 123.401C406.838 123.229 407.278 123.148 407.72 123.161C408.81 123.229 409.876 123.507 410.86 123.98Z" fill="#115E49"/>
<path d="M447.86 122.889C452.111 122.86 456.202 124.505 459.25 127.469C461.919 130.075 463.611 133.52 464.041 137.225C464.47 140.931 463.612 144.672 461.61 147.819C460.089 150.205 457.959 152.141 455.44 153.429C453.128 154.604 450.573 155.22 447.98 155.229C445.324 155.224 442.71 154.565 440.37 153.309C437.866 151.972 435.743 150.021 434.2 147.639C432.529 145.137 431.658 142.187 431.7 139.179C431.645 136.986 432.064 134.806 432.926 132.789C433.789 130.772 435.076 128.964 436.7 127.489C439.682 124.566 443.684 122.916 447.86 122.889ZM444.03 143.399C445.103 144.312 446.452 144.837 447.86 144.889C449.287 144.843 450.658 144.326 451.76 143.419C452.362 142.871 452.844 142.205 453.178 141.462C453.512 140.72 453.689 139.917 453.7 139.103C453.71 138.289 453.553 137.482 453.238 136.731C452.923 135.98 452.458 135.302 451.87 134.739C450.713 133.819 449.278 133.322 447.8 133.329C446.39 133.354 445.034 133.874 443.97 134.799C443.35 135.325 442.862 135.989 442.545 136.737C442.227 137.486 442.088 138.298 442.14 139.109C442.081 139.924 442.217 140.741 442.537 141.492C442.857 142.243 443.352 142.907 443.98 143.429L444.03 143.399Z" fill="#115E49"/>
<path d="M484.92 123.69C485.589 123.678 486.258 123.718 486.92 123.81C487.456 123.918 487.972 124.107 488.45 124.37C488.748 124.534 489.009 124.756 489.217 125.025C489.425 125.293 489.576 125.601 489.66 125.93C489.929 126.907 490.05 127.918 490.02 128.93C490.051 129.899 489.919 130.866 489.63 131.79C489.434 132.445 489.003 133.004 488.42 133.36C487.938 133.647 487.41 133.846 486.86 133.95C486.197 134.036 485.528 134.073 484.86 134.06L481.09 133.83V149.64C481.102 150.309 481.062 150.978 480.97 151.64C480.862 152.185 480.673 152.711 480.41 153.2C480.24 153.499 480.012 153.76 479.738 153.968C479.465 154.176 479.153 154.326 478.82 154.41C477.843 154.674 476.832 154.792 475.82 154.76C474.832 154.797 473.846 154.668 472.9 154.38C472.24 154.177 471.681 153.735 471.33 153.14C471.049 152.659 470.86 152.13 470.77 151.58C470.7 150.893 470.669 150.202 470.68 149.51V133.89H468.56C468.131 133.864 467.705 133.793 467.29 133.68C466.911 133.545 466.568 133.322 466.29 133.03C465.89 132.606 465.623 132.074 465.52 131.5C465.347 130.635 465.27 129.753 465.29 128.87C465.29 125.65 466.45 124.03 468.77 124.03H470.71V120.89C470.723 117.837 471.883 114.899 473.96 112.66C476.12 110.2 479.247 108.97 483.34 108.97C484.008 108.961 484.676 108.991 485.34 109.06C485.886 109.15 486.413 109.329 486.9 109.59C487.203 109.751 487.469 109.973 487.683 110.241C487.896 110.509 488.052 110.819 488.14 111.15C488.4 112.128 488.518 113.139 488.49 114.15C488.505 114.996 488.407 115.84 488.2 116.66C488.065 117.212 487.824 117.731 487.49 118.19C487.167 118.556 486.748 118.823 486.28 118.96C485.842 119.118 485.384 119.216 484.92 119.25C484.553 119.25 483.993 119.25 483.24 119.25C481.79 119.25 481.06 119.75 481.06 120.73V123.97L484.92 123.69Z" fill="#115E49"/>
<path d="M277.19 204.889L273.35 204.659V212.799C273.288 213.598 273.462 214.398 273.85 215.099C274.07 215.354 274.349 215.553 274.662 215.676C274.976 215.8 275.315 215.846 275.65 215.809C276.388 215.798 277.126 215.828 277.86 215.899C278.404 215.971 278.927 216.151 279.4 216.429C279.664 216.578 279.897 216.777 280.084 217.015C280.271 217.254 280.409 217.527 280.49 217.819C280.718 218.663 280.819 219.536 280.79 220.409C280.827 221.424 280.695 222.438 280.4 223.409C280.306 223.742 280.145 224.052 279.927 224.321C279.708 224.589 279.437 224.81 279.13 224.969C278.644 225.234 278.116 225.417 277.57 225.509C276.905 225.571 276.238 225.597 275.57 225.589C271.483 225.589 268.377 224.666 266.25 222.819C264.123 220.972 263.063 217.846 263.07 213.439V204.709C262.366 204.822 261.653 204.879 260.94 204.879C260.482 204.911 260.024 204.837 259.599 204.664C259.174 204.491 258.795 204.222 258.49 203.879C257.92 203.209 257.64 201.819 257.64 199.689C257.621 198.767 257.719 197.847 257.93 196.949C258.052 196.354 258.352 195.81 258.79 195.389C259.104 195.106 259.476 194.894 259.88 194.769C260.285 194.663 260.702 194.612 261.12 194.619L263.12 194.849V188.779C263.107 188.111 263.133 187.444 263.2 186.779C263.29 186.271 263.469 185.784 263.73 185.339C263.903 185.056 264.131 184.811 264.401 184.619C264.67 184.426 264.976 184.29 265.3 184.219C266.28 183.972 267.29 183.861 268.3 183.889C269.127 183.869 269.952 183.97 270.75 184.189C271.283 184.331 271.789 184.557 272.25 184.859C272.632 185.161 272.911 185.573 273.05 186.039C273.204 186.489 273.301 186.956 273.34 187.429C273.34 187.819 273.34 188.429 273.34 189.079V194.859C275.07 194.709 276.34 194.629 277.24 194.629C277.908 194.619 278.576 194.649 279.24 194.719C279.777 194.805 280.295 194.984 280.77 195.249C281.069 195.411 281.33 195.634 281.538 195.902C281.747 196.171 281.897 196.48 281.98 196.809C282.249 197.786 282.37 198.797 282.34 199.809C282.374 200.822 282.253 201.833 281.98 202.809C281.897 203.141 281.745 203.452 281.533 203.721C281.32 203.99 281.054 204.211 280.75 204.369C280.259 204.633 279.729 204.815 279.18 204.909C278.517 204.936 277.853 204.929 277.19 204.889Z" fill="#115E49"/>
<path d="M302.86 194.551C304.728 194.516 306.579 194.901 308.278 195.676C309.978 196.451 311.482 197.598 312.68 199.031C315.323 202.075 316.726 206.001 316.61 210.031V220.411C316.62 221.079 316.59 221.747 316.52 222.411C316.429 222.947 316.25 223.464 315.99 223.941C315.823 224.237 315.598 224.497 315.328 224.705C315.058 224.913 314.75 225.065 314.42 225.151C313.443 225.417 312.432 225.535 311.42 225.501C310.435 225.535 309.45 225.417 308.5 225.151C307.84 224.966 307.277 224.532 306.93 223.941C306.649 223.46 306.46 222.931 306.37 222.381C306.299 221.673 306.269 220.962 306.28 220.251V209.931C306.32 209.242 306.221 208.553 305.989 207.904C305.757 207.254 305.397 206.658 304.93 206.151C304.47 205.7 303.924 205.347 303.324 205.113C302.725 204.879 302.083 204.77 301.44 204.791C300.113 204.779 298.823 205.228 297.79 206.061C296.828 206.736 296.17 207.764 295.96 208.921V220.371C295.97 221.039 295.94 221.706 295.87 222.371C295.779 222.907 295.6 223.424 295.34 223.901C295.174 224.196 294.95 224.456 294.682 224.664C294.415 224.871 294.108 225.023 293.78 225.111C292.803 225.375 291.792 225.493 290.78 225.461C289.768 225.498 288.756 225.38 287.78 225.111C287.447 225.023 287.136 224.867 286.866 224.654C286.596 224.441 286.373 224.174 286.21 223.871C285.956 223.391 285.777 222.875 285.68 222.341C285.608 221.653 285.578 220.962 285.59 220.271V184.991C285.581 184.323 285.611 183.655 285.68 182.991C285.771 182.455 285.95 181.938 286.21 181.461C286.377 181.164 286.602 180.904 286.872 180.696C287.142 180.488 287.451 180.337 287.78 180.251C288.757 179.985 289.768 179.867 290.78 179.901C291.792 179.865 292.804 179.983 293.78 180.251C294.111 180.34 294.42 180.496 294.688 180.709C294.957 180.923 295.178 181.189 295.34 181.491C295.598 181.979 295.777 182.506 295.87 183.051C295.939 183.715 295.969 184.383 295.96 185.051V198.051C296.763 196.975 297.803 196.1 299 195.493C300.197 194.885 301.518 194.563 302.86 194.551Z" fill="#115E49"/>
<path d="M351.29 205.99C351.29 208.59 350.69 210.47 349.49 211.63C348.973 212.172 348.353 212.606 347.666 212.904C346.979 213.203 346.239 213.362 345.49 213.37H331.49C331.526 213.968 331.727 214.543 332.071 215.033C332.416 215.522 332.89 215.905 333.44 216.14C334.712 216.881 336.158 217.267 337.63 217.26C338.635 217.268 339.638 217.191 340.63 217.03C341.328 216.926 342.016 216.769 342.69 216.56L343.34 216.32C344.074 215.944 344.877 215.723 345.7 215.67C346.96 215.67 348.04 216.56 348.95 218.33C349.401 219.167 349.664 220.092 349.72 221.04C349.72 224.54 345.53 226.29 337.15 226.29C334.487 226.34 331.843 225.829 329.39 224.79C327.321 223.923 325.505 222.547 324.11 220.79C322.894 219.239 321.948 217.495 321.31 215.63C320.702 213.843 320.391 211.968 320.39 210.08C320.39 205.127 321.993 201.167 325.2 198.2C327.541 196.174 330.358 194.776 333.388 194.135C336.417 193.495 339.559 193.635 342.52 194.54C343.964 194.988 345.318 195.685 346.52 196.6C347.562 197.426 348.467 198.411 349.2 199.52C349.921 200.553 350.481 201.689 350.86 202.89C351.145 203.899 351.29 204.942 351.29 205.99ZM338.84 207.99C340.34 207.99 341.08 207.36 341.08 206.1C341.096 205.684 341.014 205.27 340.841 204.891C340.667 204.512 340.406 204.18 340.08 203.92C339.204 203.31 338.145 203.017 337.08 203.09C335.675 203.154 334.337 203.71 333.3 204.66C332.754 205.036 332.301 205.531 331.975 206.108C331.65 206.685 331.46 207.329 331.42 207.99H338.84Z" fill="#115E49"/>
<path d="M409.52 182.889C411.84 184.029 413 185.286 413 186.659C412.898 187.652 412.599 188.614 412.12 189.489L395.83 222.489C395.385 223.372 394.689 224.102 393.83 224.589C393.004 225.103 392.053 225.38 391.08 225.389H390.49C389.501 225.385 388.532 225.108 387.69 224.589C386.83 224.102 386.135 223.372 385.69 222.489L369.4 189.489C368.921 188.614 368.622 187.652 368.52 186.659C368.52 185.293 369.68 184.036 372 182.889C373.008 182.305 374.137 181.963 375.3 181.889C375.726 181.881 376.148 181.962 376.54 182.129C376.939 182.312 377.283 182.594 377.54 182.949C377.787 183.269 378.014 183.603 378.22 183.949C378.38 184.219 378.61 184.659 378.93 185.249C378.97 185.323 379.6 186.709 380.82 189.409C382.04 192.109 383.347 194.969 384.74 197.989C386.14 201.016 387.457 203.876 388.69 206.569C389.93 209.269 390.63 210.769 390.79 211.089L402.59 185.249C402.829 184.649 403.113 184.067 403.44 183.509C403.726 183.062 404.101 182.678 404.54 182.379C405.024 182.043 405.601 181.868 406.19 181.879C407.363 181.953 408.504 182.298 409.52 182.889Z" fill="#115E49"/>
<path d="M435.66 194.431C436.672 194.399 437.683 194.517 438.66 194.781C438.991 194.869 439.301 195.024 439.569 195.238C439.838 195.451 440.059 195.718 440.22 196.021C440.483 196.511 440.662 197.041 440.75 197.591C440.82 198.255 440.85 198.923 440.84 199.591V220.241C440.85 220.908 440.82 221.576 440.75 222.241C440.664 222.778 440.485 223.295 440.22 223.771C440.057 224.068 439.834 224.329 439.566 224.538C439.297 224.746 438.989 224.896 438.66 224.981C437.684 225.249 436.672 225.371 435.66 225.341C434.358 225.451 433.053 225.172 431.91 224.541C431.543 224.267 431.241 223.917 431.023 223.514C430.806 223.112 430.678 222.667 430.65 222.211C429.19 224.291 426.83 225.341 423.57 225.341C420.017 225.341 416.79 223.784 413.89 220.671C411.052 217.752 409.481 213.831 409.52 209.761C409.513 207.774 409.898 205.805 410.653 203.967C411.408 202.13 412.518 200.459 413.92 199.051C416.847 195.964 420.063 194.421 423.57 194.421C424.822 194.407 426.064 194.648 427.22 195.131C428.056 195.441 428.834 195.89 429.52 196.461C429.916 196.824 430.274 197.226 430.59 197.661C430.613 197.183 430.737 196.716 430.954 196.29C431.171 195.864 431.477 195.489 431.85 195.191C433.017 194.565 434.343 194.301 435.66 194.431ZM425.1 215.081C425.775 215.09 426.444 214.953 427.06 214.679C427.677 214.404 428.226 213.999 428.67 213.491C429.586 212.539 430.102 211.272 430.11 209.951C430.092 208.643 429.602 207.385 428.73 206.411C428.272 205.868 427.696 205.437 427.046 205.151C426.396 204.865 425.689 204.732 424.98 204.761C424.272 204.74 423.567 204.877 422.919 205.162C422.27 205.448 421.693 205.874 421.23 206.411C420.318 207.389 419.805 208.673 419.79 210.011C419.796 210.668 419.934 211.318 420.197 211.922C420.46 212.525 420.842 213.069 421.32 213.521C421.807 214.028 422.395 214.429 423.046 214.698C423.697 214.966 424.396 215.097 425.1 215.081Z" fill="#115E49"/>
<path d="M456.37 215.079C456.895 215.038 457.422 215.105 457.919 215.277C458.417 215.45 458.873 215.722 459.26 216.079C459.89 216.749 460.2 218.149 460.2 220.269C460.2 222.389 459.87 223.689 459.2 224.369C458.812 224.725 458.356 224.997 457.859 225.169C457.362 225.341 456.834 225.409 456.31 225.369C452.31 225.369 449.54 224.369 447.93 222.499C446.32 220.629 445.51 217.419 445.51 212.979V184.889C445.5 184.221 445.53 183.554 445.6 182.889C445.691 182.35 445.87 181.83 446.13 181.349C446.296 181.054 446.52 180.794 446.788 180.587C447.056 180.379 447.362 180.227 447.69 180.139C448.668 179.879 449.678 179.762 450.69 179.789C451.677 179.758 452.663 179.886 453.61 180.169C454.27 180.373 454.829 180.815 455.18 181.409C455.458 181.884 455.648 182.406 455.74 182.949C455.81 183.614 455.84 184.281 455.83 184.949V213.269C455.86 214.469 456.01 215.079 456.37 215.079ZM474.07 215.079C475.421 214.987 476.766 215.338 477.9 216.079C478.77 216.749 479.2 218.149 479.2 220.269C479.2 222.389 478.74 223.689 477.81 224.369C476.665 225.11 475.311 225.46 473.95 225.369C465.61 225.369 461.44 221.239 461.44 212.979L461.38 184.829C461.37 184.161 461.4 183.493 461.47 182.829C461.563 182.287 461.753 181.765 462.03 181.289C462.383 180.695 462.953 180.262 463.62 180.079C464.598 179.819 465.608 179.702 466.62 179.729C467.607 179.698 468.593 179.826 469.54 180.109C470.195 180.307 470.747 180.752 471.08 181.349C471.345 181.841 471.534 182.371 471.64 182.919C471.733 183.582 471.773 184.25 471.76 184.919V213.239C471.721 213.505 471.744 213.777 471.825 214.033C471.906 214.29 472.045 214.524 472.23 214.719C472.796 215.013 473.435 215.138 474.07 215.079Z" fill="#115E49"/>
<path d="M512.42 205.991C512.42 208.591 511.82 210.471 510.62 211.631C510.103 212.173 509.483 212.606 508.796 212.904C508.109 213.203 507.369 213.362 506.62 213.371H492.62C492.66 213.973 492.869 214.553 493.222 215.043C493.576 215.532 494.06 215.913 494.62 216.141C495.891 216.882 497.338 217.269 498.81 217.261C499.815 217.267 500.818 217.19 501.81 217.031C502.508 216.926 503.196 216.769 503.87 216.561L504.52 216.321C505.254 215.944 506.057 215.723 506.88 215.671C508.14 215.671 509.22 216.56 510.13 218.33C510.579 219.167 510.839 220.092 510.89 221.041C510.89 224.541 506.703 226.291 498.33 226.291C495.667 226.34 493.023 225.829 490.57 224.791C488.5 223.925 486.683 222.549 485.29 220.791C484.071 219.24 483.121 217.496 482.48 215.631C481.875 213.843 481.568 211.968 481.57 210.08C481.57 205.127 483.173 201.167 486.38 198.201C488.719 196.174 491.535 194.776 494.562 194.135C497.59 193.495 500.731 193.635 503.69 194.541C505.133 194.99 506.486 195.687 507.69 196.601C508.73 197.429 509.634 198.414 510.37 199.521C511.053 200.528 511.579 201.634 511.93 202.801C512.248 203.834 512.414 204.909 512.42 205.991ZM499.97 207.991C501.46 207.991 502.21 207.361 502.21 206.101C502.224 205.684 502.141 205.271 501.967 204.892C501.794 204.514 501.535 204.181 501.21 203.921C500.334 203.31 499.275 203.017 498.21 203.09C496.805 203.155 495.467 203.71 494.43 204.661C493.883 205.036 493.429 205.531 493.102 206.108C492.774 206.685 492.582 207.329 492.54 207.991H499.97Z" fill="#115E49"/>
<path d="M543.39 194.779C545.71 195.806 546.87 197.046 546.87 198.499C546.768 199.492 546.469 200.454 545.99 201.329V201.389C545.972 201.404 545.958 201.422 545.948 201.443C545.937 201.464 545.931 201.486 545.93 201.509L530.47 236.079C530.16 236.829 529.89 237.399 529.68 237.799C529.424 238.235 529.084 238.615 528.68 238.919C528.203 239.273 527.623 239.46 527.03 239.449C525.903 239.361 524.804 239.059 523.79 238.559C521.457 237.539 520.293 236.319 520.3 234.899C520.428 233.83 520.75 232.793 521.25 231.839C522.703 228.506 524.277 225.023 525.97 221.389L514.23 201.629C513.61 200.775 513.205 199.784 513.05 198.739C513.05 197.479 514.11 196.219 516.23 194.959C517.251 194.28 518.428 193.874 519.65 193.779C520.199 193.778 520.735 193.942 521.19 194.249C521.586 194.513 521.926 194.853 522.19 195.249C522.41 195.579 522.73 196.099 523.19 196.809C526.65 202.749 529.263 207.156 531.03 210.029C531.23 209.403 533.12 205.173 536.7 197.339C536.97 196.709 537.18 196.259 537.32 195.989C537.498 195.635 537.712 195.299 537.96 194.989C538.224 194.646 538.567 194.372 538.96 194.189C539.373 194.026 539.816 193.947 540.26 193.959C541.347 194.024 542.411 194.303 543.39 194.779Z" fill="#115E49"/>
<path d="M305.34 666.701C299.543 666.697 293.871 665.023 289 661.881C288.484 661.574 288.06 661.133 287.773 660.605C287.486 660.077 287.347 659.481 287.37 658.881C287.37 657.221 288.46 654.887 290.64 651.881C290.951 651.397 291.386 651.006 291.899 650.748C292.413 650.489 292.986 650.373 293.56 650.411C295.439 650.541 297.25 651.165 298.81 652.221C301.617 653.834 303.997 654.637 305.95 654.631C309.437 654.631 311.183 653.941 311.19 652.561C311.19 651.991 310.65 651.501 309.56 651.101C308.22 650.645 306.835 650.33 305.43 650.161C303.59 649.885 301.786 649.409 300.05 648.741C298.176 648.047 296.377 647.166 294.68 646.111C292.875 644.914 291.444 643.233 290.55 641.261C289.407 638.798 288.849 636.105 288.92 633.391C288.92 624.331 295.14 619.801 307.58 619.801C311.928 619.862 316.211 620.858 320.14 622.721C322.14 623.641 323.14 624.904 323.14 626.511C322.947 628.186 322.328 629.784 321.34 631.151C320.007 633.217 318.673 634.251 317.34 634.251C316.32 634.156 315.328 633.864 314.42 633.391C312.241 632.31 309.851 631.723 307.42 631.671C304.04 631.671 302.35 632.301 302.35 633.561C302.379 634.052 302.554 634.523 302.854 634.914C303.153 635.304 303.563 635.596 304.03 635.751C305.36 636.358 306.784 636.737 308.24 636.871C312.031 637.372 315.717 638.476 319.16 640.141C320.964 641.079 322.437 642.549 323.38 644.351C324.554 646.59 325.129 649.094 325.05 651.621C325.139 654.312 324.566 656.983 323.38 659.401C322.34 661.416 320.682 663.045 318.65 664.051C316.687 665.026 314.601 665.732 312.45 666.151C310.102 666.554 307.722 666.738 305.34 666.701Z" fill="#115E49"/>
<path d="M374.4 637.459C374.4 641.239 373.527 643.976 371.78 645.669C371.028 646.457 370.128 647.087 369.13 647.523C368.133 647.959 367.058 648.192 365.97 648.209H345.59C345.59 649.809 346.537 651.143 348.43 652.209C350.284 653.289 352.394 653.852 354.54 653.839C356.007 653.847 357.472 653.734 358.92 653.499C359.938 653.354 360.941 653.123 361.92 652.809L362.92 652.459C363.99 651.914 365.161 651.594 366.36 651.519C368.187 651.519 369.763 652.809 371.09 655.389C371.751 656.625 372.133 657.99 372.21 659.389C372.21 664.496 366.103 667.049 353.89 667.049C350.008 667.122 346.154 666.376 342.58 664.859C339.572 663.609 336.924 661.626 334.88 659.089C333.106 656.83 331.727 654.288 330.8 651.569C329.914 648.964 329.461 646.231 329.46 643.479C329.46 636.259 331.793 630.486 336.46 626.159C341.127 621.833 346.96 619.666 353.96 619.659C356.585 619.633 359.198 620.025 361.7 620.819C363.81 621.47 365.79 622.486 367.55 623.819C369.068 625.026 370.387 626.464 371.46 628.079C372.453 629.547 373.221 631.155 373.74 632.849C374.178 634.347 374.4 635.899 374.4 637.459ZM356.26 640.379C358.43 640.379 359.52 639.459 359.52 637.629C359.539 637.019 359.413 636.412 359.152 635.859C358.891 635.307 358.503 634.823 358.02 634.449C356.754 633.563 355.222 633.136 353.68 633.239C351.631 633.323 349.679 634.131 348.17 635.519C346.343 637.039 345.427 638.659 345.42 640.379H356.26Z" fill="#115E49"/>
<path d="M423.68 637.461C423.68 641.241 422.8 643.981 421.06 645.671C420.308 646.458 419.408 647.088 418.41 647.524C417.413 647.96 416.338 648.194 415.25 648.211H394.86C394.86 649.811 395.8 651.211 397.7 652.211C399.551 653.289 401.658 653.852 403.8 653.841C405.27 653.848 406.738 653.735 408.19 653.501C409.207 653.354 410.211 653.123 411.19 652.811L412.13 652.461C413.204 651.917 414.378 651.597 415.58 651.521C417.41 651.521 418.99 652.811 420.3 655.391C420.965 656.624 421.348 657.991 421.42 659.391C421.42 664.497 415.317 667.051 403.11 667.051C399.25 667.125 395.418 666.389 391.86 664.891C388.85 663.643 386.202 661.659 384.16 659.121C382.383 656.862 381 654.32 380.07 651.601C379.187 648.995 378.737 646.262 378.74 643.511C378.74 636.291 381.073 630.517 385.74 626.191C390.407 621.864 396.24 619.697 403.24 619.691C405.865 619.664 408.478 620.056 410.98 620.851C413.09 621.501 415.07 622.517 416.83 623.851C418.348 625.058 419.667 626.495 420.74 628.111C421.733 629.579 422.501 631.186 423.02 632.881C423.455 634.369 423.677 635.91 423.68 637.461ZM405.53 640.381C407.71 640.381 408.8 639.464 408.8 637.631C408.819 637.02 408.693 636.413 408.432 635.861C408.171 635.308 407.783 634.825 407.3 634.451C406.03 633.563 404.496 633.136 402.95 633.241C400.904 633.325 398.955 634.133 397.45 635.521C395.61 637.041 394.7 638.661 394.7 640.381H405.53Z" fill="#115E49"/>
<path d="M466.33 599.44C467.784 599.401 469.237 599.577 470.64 599.96C471.122 600.088 471.572 600.313 471.963 600.623C472.353 600.933 472.676 601.32 472.91 601.76C473.288 602.474 473.551 603.244 473.69 604.04C473.79 605.037 473.834 606.039 473.82 607.04V658.38C473.834 659.382 473.79 660.383 473.69 661.38C473.556 662.171 473.278 662.93 472.87 663.62C472.358 664.489 471.524 665.121 470.55 665.38C469.119 665.763 467.64 665.935 466.16 665.89C461.813 665.89 459.407 664.487 458.94 661.68C456.533 664.434 453.18 665.81 448.88 665.81C443.72 665.81 439.017 663.56 434.77 659.06C430.613 654.781 428.325 649.026 428.41 643.06C428.4 637.229 430.706 631.632 434.82 627.5C439.087 622.973 443.773 620.707 448.88 620.7C453.12 620.7 456.417 622.137 458.77 625.01V606.89C458.751 605.888 458.794 604.886 458.9 603.89C459.023 603.104 459.284 602.346 459.67 601.65C459.91 601.217 460.236 600.837 460.628 600.534C461.02 600.232 461.47 600.012 461.95 599.89C463.38 599.527 464.856 599.376 466.33 599.44ZM445.69 648.44C446.38 649.187 447.218 649.78 448.152 650.181C449.086 650.583 450.094 650.783 451.11 650.77C452.108 650.791 453.099 650.594 454.013 650.191C454.927 649.789 455.742 649.191 456.4 648.44C457.745 647.058 458.501 645.208 458.51 643.28C458.478 641.377 457.769 639.547 456.51 638.12C455.844 637.33 455.005 636.703 454.058 636.287C453.112 635.87 452.083 635.677 451.05 635.72C450.013 635.677 448.981 635.866 448.027 636.275C447.074 636.683 446.224 637.3 445.54 638.08C444.232 639.498 443.497 641.351 443.48 643.28C443.484 644.247 443.682 645.204 444.061 646.094C444.441 646.983 444.995 647.788 445.69 648.46V648.44Z" fill="#115E49"/>
<path d="M497.38 666.701C491.583 666.698 485.91 665.024 481.04 661.881C480.524 661.574 480.1 661.133 479.813 660.605C479.526 660.077 479.387 659.481 479.41 658.881C479.41 657.221 480.49 654.881 482.67 651.881C482.984 651.397 483.42 651.006 483.935 650.748C484.45 650.489 485.025 650.373 485.6 650.411C487.476 650.54 489.284 651.164 490.84 652.221C493.647 653.834 496.027 654.637 497.98 654.631C501.48 654.631 503.23 653.941 503.23 652.561C503.23 651.991 502.68 651.501 501.59 651.101C500.253 650.644 498.872 650.329 497.47 650.161C495.63 649.888 493.825 649.411 492.09 648.741C490.216 648.047 488.417 647.166 486.72 646.111C484.913 644.917 483.481 643.235 482.59 641.261C481.443 638.799 480.882 636.105 480.95 633.391C480.95 624.331 487.173 619.801 499.62 619.801C503.964 619.862 508.245 620.858 512.17 622.721C514.17 623.641 515.17 624.904 515.17 626.511C514.978 628.186 514.358 629.784 513.37 631.151C512.037 633.217 510.703 634.251 509.37 634.251C508.35 634.158 507.358 633.865 506.45 633.391C504.271 632.31 501.881 631.723 499.45 631.671C496.07 631.671 494.38 632.301 494.38 633.561C494.408 634.051 494.582 634.521 494.88 634.911C495.177 635.302 495.585 635.594 496.05 635.751C497.384 636.357 498.811 636.736 500.27 636.871C504.061 637.372 507.747 638.476 511.19 640.141C512.991 641.08 514.461 642.549 515.4 644.351C516.582 646.587 517.161 649.093 517.08 651.621C517.171 654.313 516.594 656.986 515.4 659.401C514.362 661.418 512.704 663.048 510.67 664.051C508.71 665.026 506.628 665.732 504.48 666.151C502.135 666.553 499.759 666.737 497.38 666.701Z" fill="#115E49"/>
<g style="mix-blend-mode:multiply">
<path d="M402.55 586.551C466.985 586.551 519.22 575.6 519.22 562.091C519.22 548.582 466.985 537.631 402.55 537.631C338.115 537.631 285.88 548.582 285.88 562.091C285.88 575.6 338.115 586.551 402.55 586.551Z" fill="#A7A9AC"/>
</g>
<path d="M401.51 564.4C400.34 564.414 399.194 564.064 398.23 563.4L397.64 562.96L396.82 562.34L395.69 561.48L394.69 560.7L393.98 560.13L392.73 559.13L391.58 558.19L390.71 557.47L389.41 556.37L388.41 555.5L386.75 554.06L385.84 553.25L385.64 553.08L384.13 551.73L382.98 550.73L382.39 550.19L381.31 549.19L379.43 547.41L378.32 546.34L376.32 544.34L375.2 543.22L373.06 541.06L372.18 540.16L371.18 539.16L369.66 537.56L368.81 536.65L367.72 535.47C367.19 534.9 366.72 534.32 366.14 533.74L365.36 532.87L364.22 531.58C363.43 530.69 362.63 529.77 361.83 528.84L361.6 528.56L360.67 527.47C359.87 526.47 359.07 525.55 358.27 524.58L358.06 524.32L357.06 523.15C356.27 522.15 355.46 521.15 354.66 520.15L354.45 519.89L353.7 518.89L353.49 518.61C352.69 517.61 351.88 516.5 351.09 515.43L350.91 515.18L349.91 513.85C349.11 512.75 348.3 511.61 347.51 510.48L347.37 510.28L346.63 509.21L346.41 508.88C346.16 508.52 345.91 508.16 345.67 507.79C345.13 506.98 344.58 506.16 344.04 505.33L343.95 505.2L343.24 504.1L343 503.73C342.76 503.36 342.52 502.99 342.28 502.6L342.18 502.44C341.65 501.6 341.12 500.76 340.6 499.91C340.36 499.53 340.13 499.15 339.9 498.77L339.67 498.38C339.44 498 339.21 497.62 338.99 497.24L338.83 496.97C338.09 495.72 337.36 494.45 336.66 493.21L336.43 492.8L335.78 491.62L335.59 491.28C334.9 490 334.21 488.71 333.59 487.44L333.37 487.01L332.76 485.82L332.55 485.39C331.89 484.09 331.25 482.77 330.64 481.47L330.43 481.03L329.86 479.81L329.64 479.33C329.04 478.02 328.44 476.66 327.85 475.33L327.67 474.9L327.15 473.66L326.92 473.12L326.41 471.86L326.35 471.73C325.99 470.82 325.63 469.91 325.28 468.99L325.11 468.53C324.95 468.12 324.79 467.7 324.64 467.27L324.42 466.69L323.97 465.43L323.83 465.04C323.52 464.17 323.22 463.31 322.93 462.43L322.78 461.99C322.64 461.57 322.5 461.14 322.37 460.72L322.16 460.08C322.03 459.66 321.89 459.24 321.76 458.81L321.6 458.28C321.34 457.42 321.08 456.55 320.83 455.67L320.71 455.26L320.35 453.98C320.29 453.75 320.22 453.52 320.16 453.29C320.05 452.87 319.93 452.45 319.82 452.03L319.66 451.38C319.43 450.49 319.21 449.6 318.99 448.7L318.91 448.35C318.81 447.93 318.71 447.5 318.62 447.08C318.56 446.83 318.5 446.58 318.45 446.33C318.36 445.91 318.26 445.49 318.18 445.07L318.02 444.33C317.72 442.89 317.44 441.43 317.18 439.98C317.18 439.72 317.09 439.46 317.05 439.21C316.97 438.79 316.9 438.36 316.83 437.93L316.71 437.13C312.34 409.42 316.01 381.49 327.61 354.13C327.911 353.419 328.355 352.777 328.914 352.244C329.473 351.711 330.135 351.298 330.86 351.03C331.109 350.941 331.362 350.868 331.62 350.81C329.307 348.742 327.582 346.099 326.62 343.15C323 340.52 321.73 338.26 321.32 337.31C321.165 336.944 321.051 336.561 320.98 336.17C320.16 332.254 320.562 328.181 322.13 324.5C321.121 322.102 320.825 319.464 321.275 316.901C321.725 314.339 322.904 311.96 324.67 310.05C325.186 309.505 325.806 309.068 326.492 308.764C327.179 308.46 327.919 308.295 328.67 308.28H328.73C329.926 308.279 331.092 308.657 332.06 309.36C335.67 305.65 339.06 303.89 342.4 303.89C343.104 303.892 343.805 303.976 344.49 304.14C345.023 303.96 345.563 303.8 346.11 303.66C345.312 303.108 344.559 302.492 343.86 301.82L343.57 301.91C343.086 302.033 342.589 302.097 342.09 302.1C340.996 302.097 339.925 301.787 338.998 301.206C338.072 300.624 337.328 299.794 336.85 298.81C335.73 296.55 335.93 292.28 337.04 288.59C335.525 287.022 334.221 285.264 333.16 283.36C332.644 282.388 332.364 281.309 332.343 280.209C332.323 279.109 332.561 278.02 333.04 277.03C334.025 275.139 335.707 273.704 337.73 273.03C338.01 272.62 338.3 272.23 338.61 271.86C337.82 270.16 337.34 269.17 337.05 268.61C336.696 267.921 336.488 267.167 336.438 266.395C336.388 265.622 336.497 264.848 336.758 264.119C337.02 263.391 337.428 262.724 337.959 262.16C338.489 261.595 339.129 261.146 339.84 260.84C341.372 260.214 342.985 259.803 344.63 259.62C345.042 258.869 345.521 258.156 346.06 257.49C346.602 256.803 347.289 256.246 348.073 255.857C348.856 255.468 349.716 255.257 350.59 255.24C351.077 255.241 351.562 255.312 352.03 255.45C353.075 255.721 354.015 256.3 354.728 257.111C355.441 257.922 355.895 258.928 356.03 260C356.06 260.089 356.097 260.176 356.14 260.26C356.236 260.271 356.334 260.271 356.43 260.26C357.699 259.98 358.922 259.519 360.06 258.89C362.698 257.418 365.66 256.625 368.68 256.58C370.71 256.603 372.728 256.899 374.68 257.46C377.125 258.113 379.435 259.197 381.5 260.66L381.7 260.81C382.09 261.1 382.46 261.39 382.8 261.69L382.97 261.84C383.32 262.15 383.63 262.45 383.97 262.74L384.09 262.86C384.4 263.18 384.71 263.52 385.02 263.86L385.19 264.06C385.5 264.44 385.77 264.81 386.04 265.2L386.13 265.34C386.37 265.68 386.6 266.04 386.81 266.41L386.88 266.53C386.915 266.58 386.945 266.634 386.97 266.69C387.18 267.05 387.37 267.41 387.56 267.8L387.68 268.05C388 268.74 388.3 269.47 388.57 270.22C399.745 272.111 409.9 277.87 417.26 286.49L417.69 286.99C432.62 267.99 449.02 259.5 458.01 256.04C461.58 242.53 474.63 237.63 485.38 237.63C488.541 237.585 491.688 238.051 494.7 239.01C499.93 240.78 519.7 249.49 520.57 259.73C520.638 260.511 520.542 261.298 520.29 262.04C520.639 263.062 520.684 264.163 520.42 265.21C520.42 265.3 520.32 265.61 520.17 266.11C520.703 267.424 520.728 268.889 520.24 270.22C518.883 273.315 517.047 276.177 514.8 278.7C513.71 279.97 512.54 281.21 511.3 282.4L511.23 282.47C511.01 282.68 510.79 282.89 510.56 283.09L510.41 283.23L509.79 283.8L509.61 283.96L508.97 284.51L508.8 284.65L508.06 285.26L507.98 285.33L507.12 286H507.06L506.28 286.58L506.01 286.77L505.4 287.21L505.09 287.42L504.52 287.8L504.17 288.03L503.59 288.39L503.24 288.61L502.61 288.98L502.31 289.15L501.31 289.67C496.934 291.879 492.091 293.004 487.19 292.95C483.454 292.945 479.741 292.351 476.19 291.19C479.153 294.076 481.795 297.275 484.07 300.73L484.82 300.64H484.88L485.88 300.55H485.96C486.53 300.55 487.11 300.55 487.67 300.55H488.16H489.28H489.33C490.508 300.633 491.678 300.807 492.83 301.07H492.92C493.31 301.16 493.7 301.27 494.08 301.38H494.15C494.951 301.629 495.735 301.926 496.5 302.27H496.56C496.94 302.45 497.33 302.64 497.69 302.84L497.8 302.9C498.2 303.12 498.57 303.34 498.93 303.57C499.31 303.81 499.67 304.07 500.02 304.34C502.151 305.99 503.929 308.051 505.25 310.4C508.019 315.056 509.752 320.254 510.33 325.64C510.397 326.664 510.605 327.673 510.95 328.64C511.638 329.463 512.517 330.105 513.51 330.51C514.842 331.196 515.849 332.381 516.31 333.807C516.771 335.233 516.649 336.784 515.97 338.12C516.265 339.153 516.265 340.247 515.97 341.28C515.757 342.041 515.387 342.749 514.884 343.359C514.381 343.968 513.756 344.466 513.05 344.82C511.055 345.823 508.853 346.343 506.62 346.34C505.806 346.34 504.993 346.273 504.19 346.14C503.727 347.796 502.969 349.355 501.95 350.74C501.422 351.419 500.746 351.969 499.973 352.347C499.2 352.725 498.35 352.921 497.49 352.92C497 352.921 496.513 352.857 496.04 352.73C495.401 352.554 494.786 352.299 494.21 351.97C493.85 353.13 493.53 353.91 493.45 354.1C493.02 355.13 492.295 356.01 491.366 356.629C490.437 357.248 489.346 357.579 488.23 357.58H488.03C486.004 357.42 484.055 356.73 482.38 355.58C481.388 356.402 480.148 356.863 478.86 356.89C478.92 357.89 478.86 358.72 478.86 359.56C478.786 360.859 478.897 362.162 479.19 363.43C479.19 363.55 479.25 363.64 479.27 363.71H479.53C480.078 363.525 480.652 363.43 481.23 363.43C482.013 363.44 482.786 363.617 483.496 363.948C484.206 364.279 484.838 364.757 485.35 365.35C486.075 366.207 486.53 367.26 486.66 368.375C486.79 369.49 486.588 370.619 486.08 371.62C485.707 372.39 485.269 373.126 484.77 373.82C485.334 375.38 485.671 377.014 485.77 378.67C485.798 379.43 485.673 380.188 485.402 380.898C485.131 381.609 484.719 382.257 484.192 382.805C483.664 383.353 483.032 383.789 482.332 384.087C481.633 384.385 480.88 384.539 480.12 384.54H479.96C479.51 384.54 478.96 384.54 478.25 384.54H476.35C476.14 385 475.91 385.42 475.68 385.82C475.932 387.903 475.386 390.004 474.15 391.7C473.49 392.551 472.642 393.239 471.672 393.709C470.702 394.179 469.637 394.419 468.56 394.41H468.31C466.134 394.274 463.986 393.853 461.92 393.16C459.42 395.42 456.23 397.26 453.79 397.65C460.179 414.178 462.974 431.877 461.99 449.57V449.9C461.88 451.9 461.72 453.83 461.52 455.79V456.09C461.31 458.01 461.07 459.95 460.78 461.86L460.73 462.17C460.44 464.06 460.11 465.97 459.73 467.85L459.68 468.12C459.31 469.98 458.9 471.85 458.46 473.68L458.4 473.94C457.96 475.75 457.48 477.58 456.97 479.4L456.9 479.63C456.4 481.4 455.9 483.2 455.27 484.96L455.21 485.17C454.64 486.9 454.03 488.66 453.39 490.41V490.57C452.76 492.26 452.1 493.98 451.39 495.68V495.81C450.71 497.48 450 499.16 449.27 500.81V500.9C448.91 501.73 448.53 502.55 448.16 503.36C447.79 504.17 447.4 504.98 447.02 505.78V505.83C446.64 506.63 446.25 507.42 445.85 508.21C445.46 509 445.06 509.78 444.66 510.55C444.27 511.31 443.86 512.08 443.46 512.83V512.91C442.67 514.38 441.84 515.91 441 517.35L440.95 517.43C440.15 518.84 439.31 520.27 438.46 521.66L438.4 521.77C437.59 523.11 436.74 524.47 435.89 525.77L435.81 525.89C434.99 527.18 434.14 528.47 433.28 529.75L433.22 529.85C432.39 531.08 431.55 532.3 430.73 533.47L430.63 533.61C429.82 534.76 428.99 535.92 428.16 537.06L428.07 537.17C427.27 538.26 426.46 539.35 425.65 540.41L425.56 540.52C424.79 541.52 423.99 542.52 423.21 543.52L423.11 543.65C422.37 544.59 421.6 545.53 420.84 546.46L420.75 546.57C420.03 547.44 419.3 548.32 418.58 549.16L418.49 549.27C417.79 550.1 417.1 550.9 416.43 551.66L416.36 551.74L415.36 552.85L414.44 553.85V553.9C414.14 554.24 413.83 554.57 413.53 554.9C413.25 555.21 412.98 555.51 412.71 555.79L412.64 555.86L411.85 556.71L411.76 556.8L411.03 557.57L410.28 558.35L409.56 559.09L408.96 559.7L408.36 560.3L407.82 560.84L407.33 561.31L406.89 561.73L406.69 561.52L406.89 561.73L406.31 562.28L405.91 562.65C404.866 563.602 403.503 564.13 402.09 564.13L401.51 564.4ZM436.86 375.65L436.69 375.43C436.54 375.24 436.39 375.04 436.25 374.84C436.204 374.792 436.163 374.738 436.13 374.68C435.94 374.42 435.76 374.16 435.6 373.91L435.41 373.61L435.05 373.01L434.96 372.86L434.87 372.7C434.77 372.51 434.66 372.32 434.55 372.1L434.43 371.88L434.37 371.76C434.23 371.48 434.1 371.2 433.96 370.91C433.006 368.866 432.359 366.693 432.04 364.46C431.94 363.74 431.88 363.02 431.85 362.31C431.748 357.792 433.222 353.379 436.02 349.83C435.499 349.055 434.917 348.323 434.28 347.64C430.61 343.72 425.1 341.58 417.89 341.25C412.6 359.25 409.89 380.25 409.89 403.94C422.89 385.5 435.97 376.78 436.66 376.33C436.828 376.22 437.001 376.12 437.18 376.03L436.86 375.65ZM384.12 344.47C380.856 341.285 376.832 338.989 372.43 337.8C372.26 338.06 372.1 338.31 371.92 338.55C371.57 339.05 371.19 339.55 370.8 340C370.223 340.677 369.609 341.321 368.96 341.93C368.74 342.12 368.53 342.32 368.31 342.5C366.275 344.232 363.994 345.651 361.54 346.71C361.1 346.91 360.64 347.09 360.19 347.27C359.49 347.54 358.77 347.8 358.04 348.03C357.726 348.564 357.327 349.044 356.86 349.45C351.92 353.74 347.18 354.64 344.07 354.64C343.008 354.641 341.95 354.534 340.91 354.32C346.708 358.055 352.208 362.234 357.36 366.82C367.962 376.254 377.252 387.067 384.98 398.97C385.109 388.983 385.756 379.01 386.92 369.09C387.65 363.01 388.6 357.03 389.75 351.28C388.162 348.789 386.275 346.501 384.13 344.47H384.12ZM460.75 332.47L460.7 332.32L460.61 332.02C460.61 331.87 460.52 331.72 460.48 331.57C460.34 331.05 460.22 330.57 460.13 330.07L460.04 329.62C459.93 329 459.84 328.36 459.79 327.77C459.785 327.707 459.785 327.643 459.79 327.58C459.79 327.31 459.79 327.04 459.73 326.75C459.73 326.75 459.73 326.53 459.73 326.46C459.73 326.18 459.73 325.9 459.73 325.64C459.73 325.64 459.73 325.57 459.73 325.53C459.73 325.49 459.73 325.14 459.73 324.92C459.73 324.85 459.73 324.44 459.73 324.44C459.724 324.353 459.724 324.266 459.73 324.18C459.73 323.97 459.73 323.76 459.73 323.55C459.724 323.524 459.724 323.496 459.73 323.47C459.73 323.18 459.79 322.9 459.83 322.63L459.89 322.25C459.89 321.98 459.98 321.7 460.04 321.43V321.2V321.01C460.1 320.75 460.16 320.49 460.23 320.23C460.246 320.159 460.266 320.089 460.29 320.02C460.36 319.74 460.44 319.45 460.53 319.18L460.62 318.9C460.71 318.63 460.8 318.35 460.91 318.06L460.97 317.89C461.1 317.56 461.23 317.23 461.37 316.89L461.47 316.67C461.59 316.41 461.71 316.15 461.84 315.89L461.96 315.64C462.06 315.44 462.17 315.24 462.28 315.04V314.97C462.33 314.86 462.39 314.76 462.45 314.65L462.53 314.52C462.63 314.33 462.74 314.15 462.85 313.97C459.46 308.97 452.54 301.81 440.57 301.81C439.394 301.81 438.219 301.873 437.05 302C435.062 304.528 433.203 307.155 431.48 309.87C429.98 312.24 428.54 314.74 427.18 317.36C440.12 319.79 448.18 326.09 452.96 331.36C454.945 333.588 456.692 336.018 458.17 338.61H459.27H459.82H460.19L460.8 338.66H461.04C461.32 338.66 461.61 338.73 461.88 338.78H462.17L462.75 338.89L463.1 338.97L463.6 339.09L463.88 339.17C463.29 338.299 462.752 337.394 462.27 336.46C461.861 335.68 461.494 334.879 461.17 334.06C461.06 333.78 460.95 333.49 460.85 333.2C460.75 332.91 460.65 332.64 460.57 332.35L460.75 332.47ZM398.3 302.47C395.193 298.752 390.994 296.107 386.3 294.91C385.078 296.859 383.517 298.572 381.69 299.97C381.069 300.441 380.422 300.875 379.75 301.27C379.44 301.45 379.12 301.62 378.81 301.78C378.29 302.04 377.75 302.29 377.13 302.53C376.95 302.61 376.76 302.68 376.58 302.74C374.2 303.588 371.696 304.03 369.17 304.05H367.8H367.15H366.96H366.75L366.09 303.98H365.77L364.77 303.83H364.59L363.87 303.69L363.6 303.63L362.92 303.46L362.72 303.4C362.17 303.25 361.62 303.07 361.09 302.88L360.96 302.82L360.33 302.57L360.2 302.51L359.55 302.22C359.11 302.01 358.67 301.8 358.22 301.55H358.13C357.41 301.17 356.78 300.78 356.21 300.43C356.083 301.538 355.627 302.583 354.9 303.43C361.3 304.65 366.98 308.6 370.75 312.54C380.632 313.414 390.031 317.208 397.75 323.44C399.43 318.91 401.27 314.55 403.27 310.44C402.032 307.555 400.359 304.878 398.31 302.5L398.3 302.47ZM461.81 281.22H461.73L461.89 281.29L461.81 281.22Z" fill="#231F20"/>
<path d="M397.73 330.889C398.58 331.709 399.39 332.539 400.13 333.359C402.55 325.511 405.603 317.873 409.26 310.519C407.823 306.221 405.557 302.246 402.59 298.819C396 291.169 386.94 287.709 375.68 288.529L374.68 274.999C394.34 273.559 406.3 282.339 412.87 289.999C414.602 292.012 416.167 294.163 417.55 296.429C439.06 264.799 465.61 259.249 466.74 259.029L469.36 272.339C464.334 273.69 459.536 275.776 455.12 278.529C452.743 279.95 450.449 281.506 448.25 283.189C457.06 284.573 465.238 288.613 471.69 294.769C476.689 299.485 480.667 305.175 483.38 311.489L470.73 316.399C470.33 315.399 460.89 292.399 434.21 296.759C431.548 299.977 429.093 303.36 426.86 306.889C423.817 311.749 421.142 316.829 418.86 322.089C434.42 322.839 443.68 329.289 448.94 335.209C453.356 340.112 456.347 346.129 457.59 352.609L444.17 354.609V354.669C443.247 350.595 441.256 346.839 438.4 343.789C432.91 337.909 424.62 335.169 413.72 335.609C403.29 367.879 398.72 418.149 414.43 495.439L401.14 498.139C391.14 448.819 388.23 405.629 392.54 369.789C393.347 363.049 394.413 356.559 395.74 350.319C393.687 346.63 391.08 343.277 388.01 340.379C381.4 334.159 373.72 331.139 365.16 331.379L364.71 317.819C377.03 317.429 388.45 321.939 397.73 330.889Z" fill="#66BE64"/>
<g style="mix-blend-mode:multiply">
<path d="M390.66 410.131C393.48 416.083 395.944 422.197 398.04 428.441C399.853 423.391 401.964 418.452 404.36 413.651C405 436.811 408.03 463.861 414.43 495.411L401.14 498.111C394.64 466.081 391.14 436.651 390.66 410.131Z" fill="#4CA84E"/>
</g>
<path d="M401.69 558.749L439.75 381.039C493.4 475.359 401.69 558.749 401.69 558.749Z" fill="#4CA84E"/>
<path d="M439.75 381.039L401.69 558.749C359.77 433.429 439.75 381.039 439.75 381.039Z" fill="#66BE64"/>
<g style="mix-blend-mode:multiply">
<path d="M456.52 446.35C454.52 510.73 401.69 558.75 401.69 558.75C394.47 537.15 390.86 517.75 389.85 500.35C438.58 512.05 455.4 450.68 456.52 446.35Z" fill="#4CA84E"/>
</g>
<path d="M401.53 558.749L332.79 356.109C282.91 473.729 401.53 558.749 401.53 558.749Z" fill="#4CA84E"/>
<path d="M332.79 356.109L401.53 558.749C433.47 406.479 332.79 356.109 332.79 356.109Z" fill="#66BE64"/>
<g style="mix-blend-mode:multiply">
<path d="M322.08 434.77C333.22 509.77 401.53 558.77 401.53 558.77C407.03 532.53 408.6 509.309 407.42 488.859C352.02 509.16 323.98 439.68 322.08 434.77Z" fill="#4CA84E"/>
</g>
<path d="M478.38 345.28C478.38 345.28 485.49 351.79 488.24 351.89C488.24 351.89 490.94 345.46 489.72 340.43C489.72 340.43 495.72 346.76 497.5 347.23C497.5 347.23 501.1 342.64 497.6 336.57C497.6 336.57 503.99 342.99 510.53 339.73C508.389 336.607 506.051 333.624 503.53 330.8C498.41 324.82 474.23 334.89 478.38 345.28Z" fill="#B6BCCC"/>
<path d="M475.49 309.031C475.49 309.031 492.72 299.961 500.34 313.191C507.96 326.421 501.25 330.571 510.92 335.511C510.92 335.511 505.22 339.931 500.07 334.941C499.342 338.329 497.882 341.517 495.79 344.281C495.79 344.281 487.79 345.701 484.9 337.711C484.9 337.711 486.64 344.711 478.75 351.201C478.75 351.201 477.69 344.421 472.48 340.311C467.27 336.201 458.03 321.641 475.49 309.031Z" fill="#E9E7E9"/>
<path d="M369.93 321.031C368.17 316.361 355.71 304.121 344.25 310.141C333.87 315.601 334.82 330.301 334.82 330.301L348.07 344.151C348.07 344.151 373.62 343.501 369.93 321.031Z" fill="#E9E7E9"/>
<path d="M338.34 333.979C356.13 333.979 365.06 324.219 368.66 318.789C369.175 319.478 369.598 320.231 369.92 321.029C373.62 343.499 348.07 344.149 348.07 344.149L338.34 333.979Z" fill="#D6CDD7"/>
<g style="mix-blend-mode:multiply" opacity="0.58">
<path d="M370.26 326.26C369.48 343.6 348.07 344.15 348.07 344.15L344.83 340.76C360.52 338.31 367.32 331.61 370.26 326.26Z" fill="#B6BCCC"/>
</g>
<path d="M334.86 330.301C336.05 331.371 337.2 332.491 338.34 333.611C339.48 334.731 340.58 335.881 341.7 337.021C342.82 338.161 343.89 339.341 344.97 340.531C346.05 341.721 347.1 342.911 348.11 344.151C346.92 343.081 345.77 341.961 344.63 340.841C343.49 339.721 342.39 338.571 341.27 337.431C340.15 336.291 339.08 335.111 338.01 333.921C336.94 332.731 335.86 331.541 334.86 330.301Z" fill="#231F20"/>
<g style="mix-blend-mode:multiply" opacity="0.58">
<path d="M354.29 343.21C352.252 343.726 350.169 344.04 348.07 344.15L334.86 330.3C334.86 330.3 333.86 315.6 344.29 310.14C344.896 309.821 345.524 309.547 346.17 309.32C348.84 309.38 349.68 312.41 349.68 312.41C344.11 320.81 347.57 321.49 347.57 321.49C352.35 323.18 356.57 330.49 356.57 330.49C355.37 334.29 350.24 338.39 350.24 338.39C350.62 339.89 352.6 341.79 354.29 343.21Z" fill="#B6BCCC"/>
</g>
<path d="M343.86 321.491C343.86 321.491 340.4 320.811 345.97 312.411C345.97 312.411 343.49 303.411 333.54 316.031C331.74 315.743 330.064 314.933 328.72 313.701C327.412 315.126 326.677 316.984 326.655 318.918C326.633 320.852 327.325 322.726 328.6 324.181C328.6 324.181 325.17 328.181 326.46 334.871C326.46 334.871 327.31 336.871 331.46 339.421C331.46 339.421 332.71 347.951 340.82 348.421C340.82 348.421 346.47 350.951 353.12 345.171C353.12 345.171 347.25 341.081 346.48 338.341C346.48 338.341 351.61 334.241 352.81 330.441C352.86 330.451 348.64 323.181 343.86 321.491Z" fill="#D6CDD7"/>
<path d="M345.68 329.611C344.203 328.086 342.957 326.355 341.98 324.471C341.98 324.471 337.47 326.851 334.98 325.841C334.98 325.841 335.69 329.201 334.23 331.651C334.23 331.651 338.5 333.651 338.76 337.651C339.559 336.988 340.507 336.529 341.522 336.313C342.538 336.097 343.59 336.131 344.59 336.411C344.59 336.411 343.96 333.731 345.68 329.611Z" fill="#B6BCCC"/>
<path d="M469.1 385.15C467.273 385.385 465.42 385.025 463.814 384.124C462.207 383.224 460.933 381.831 460.18 380.15C458.51 385.74 455.79 387.63 453.18 387.95C452.912 389.269 452.748 390.606 452.69 391.95C452.85 392.79 458.69 389.54 460.26 386.5C460.26 386.5 465.13 388.66 468.54 388.77C470.29 388.83 470.38 386.77 469.77 384.49C469.56 384.724 469.336 384.944 469.1 385.15Z" fill="#B6BCCC"/>
<path d="M477.95 372.789C475.721 374.294 473.162 375.241 470.49 375.549C471.321 376.491 471.823 377.677 471.92 378.929C474.8 378.859 478.24 378.799 480.17 378.859C480.038 376.662 479.266 374.553 477.95 372.789Z" fill="#B6BCCC"/>
<path d="M481.06 369.15C481.06 369.15 475.33 370.76 473.78 364.87C472.23 358.98 475.27 355.97 469.66 349.47C464.05 342.97 456.45 342.97 447.75 347.47C439.05 351.97 435.02 359.65 439.09 368.54C443.16 377.43 450.64 376.27 449.72 381.25C448.8 386.23 446.09 385.75 446.09 385.75C446.09 385.75 456.18 393.58 460.18 380.14C460.933 381.82 462.207 383.213 463.814 384.114C465.42 385.014 467.273 385.374 469.1 385.14C469.1 385.14 474.43 380.27 470.49 375.54C470.49 375.55 478.33 374.89 481.06 369.15Z" fill="#E9E7E9"/>
<path d="M447.75 347.46C439.05 351.96 435.02 359.64 439.09 368.53C442.26 375.44 447.47 376.28 449.21 378.65C449.21 378.65 437.9 351.43 466.28 346.48C461.14 343.13 454.86 343.81 447.75 347.46Z" fill="#D6CDD7"/>
<g style="mix-blend-mode:multiply" opacity="0.58">
<path d="M447.75 347.459C439.05 351.959 435.02 359.639 439.09 368.529C439.903 370.339 441.034 371.989 442.43 373.399C442.31 373.129 434.15 354.259 459.94 344.399C456.23 344.079 452.13 345.199 447.75 347.459Z" fill="#B6BCCC"/>
</g>
<path d="M341.15 278.49C341.729 280.241 342.857 281.76 344.366 282.821C345.875 283.881 347.686 284.428 349.53 284.38C345.19 288.29 344.66 291.56 345.53 294.06C344.462 294.86 343.336 295.579 342.16 296.21C341.34 296.43 341.76 289.76 343.83 287.03C343.83 287.03 339.83 283.56 338.21 280.53C337.41 278.98 339.21 278.01 341.54 277.59C341.27 278.12 341.15 278.49 341.15 278.49Z" fill="#B6BCCC"/>
<path d="M348.5 265.18C348.101 267.84 348.348 270.556 349.22 273.1C348.01 272.764 346.724 272.824 345.55 273.27C344.37 270.64 342.95 267.51 342.07 265.79C344.107 264.962 346.343 264.75 348.5 265.18Z" fill="#B6BCCC"/>
<path d="M350.44 260.811C350.44 260.811 351.44 266.671 357.44 265.541C363.44 264.411 364.83 260.36 373.11 262.63C381.39 264.9 384.66 271.761 384.35 281.541C384.04 291.321 378.83 298.281 369.06 298.421C359.29 298.561 357.06 291.331 353.06 294.301C349.06 297.271 350.57 299.521 350.57 299.521C350.57 299.521 339.15 293.77 349.57 284.38C347.726 284.429 345.915 283.882 344.406 282.821C342.897 281.76 341.769 280.242 341.19 278.49C341.19 278.49 343.29 271.59 349.26 273.11C349.22 273.11 346.45 265.741 350.44 260.811Z" fill="#E9E7E9"/>
<path d="M384.36 281.54C384.04 291.33 378.84 298.28 369.07 298.42C361.47 298.54 358.47 294.2 355.58 293.65C355.58 293.65 385.02 292.15 377.28 264.41C382.51 267.59 384.61 273.6 384.36 281.54Z" fill="#D6CDD7"/>
<g style="mix-blend-mode:multiply" opacity="0.58">
<path d="M384.36 281.539C384.04 291.329 378.84 298.279 369.07 298.419C367.087 298.472 365.111 298.16 363.24 297.499C363.53 297.499 384.08 296.749 381.92 269.199C383.77 272.429 384.52 276.619 384.36 281.539Z" fill="#B6BCCC"/>
</g>
<path d="M341.85 329.29C342.667 329.29 343.33 328.627 343.33 327.81C343.33 326.993 342.667 326.33 341.85 326.33C341.033 326.33 340.37 326.993 340.37 327.81C340.37 328.627 341.033 329.29 341.85 329.29Z" fill="#FAF28C"/>
<path d="M339.36 334.761C340.177 334.761 340.84 334.098 340.84 333.281C340.84 332.463 340.177 331.801 339.36 331.801C338.543 331.801 337.88 332.463 337.88 333.281C337.88 334.098 338.543 334.761 339.36 334.761Z" fill="#FAF28C"/>
<path d="M342.5 335.399C343.085 335.399 343.56 334.925 343.56 334.339C343.56 333.754 343.085 333.279 342.5 333.279C341.915 333.279 341.44 333.754 341.44 334.339C341.44 334.925 341.915 335.399 342.5 335.399Z" fill="#FAF28C"/>
<path d="M336.83 331.7C337.415 331.7 337.89 331.226 337.89 330.64C337.89 330.055 337.415 329.58 336.83 329.58C336.245 329.58 335.77 330.055 335.77 330.64C335.77 331.226 336.245 331.7 336.83 331.7Z" fill="#FAF28C"/>
<path d="M343.56 332.13C344.145 332.13 344.62 331.655 344.62 331.07C344.62 330.484 344.145 330.01 343.56 330.01C342.975 330.01 342.5 330.484 342.5 331.07C342.5 331.655 342.975 332.13 343.56 332.13Z" fill="#FAF28C"/>
<path d="M337.88 328.87C338.465 328.87 338.94 328.395 338.94 327.81C338.94 327.225 338.465 326.75 337.88 326.75C337.295 326.75 336.82 327.225 336.82 327.81C336.82 328.395 337.295 328.87 337.88 328.87Z" fill="#FAF28C"/>
<path d="M340.37 331.43C340.856 331.43 341.25 331.036 341.25 330.55C341.25 330.064 340.856 329.67 340.37 329.67C339.884 329.67 339.49 330.064 339.49 330.55C339.49 331.036 339.884 331.43 340.37 331.43Z" fill="#FAF28C"/>
<path d="M475.49 309.029C475.49 309.029 488.15 302.369 496.56 308.799C496.56 308.799 465.91 322.129 472.48 340.309C467.28 336.209 458.03 321.639 475.49 309.029Z" fill="#D6CDD7"/>
<g style="mix-blend-mode:multiply" opacity="0.58">
<path d="M467.5 334.051C464.13 327.561 463.32 317.821 475.5 309.051C478.855 307.391 482.491 306.373 486.22 306.051C486.22 306.051 465.35 315.051 467.5 334.051Z" fill="#B6BCCC"/>
</g>
<path d="M514.86 259.991C514.86 259.991 507.3 273.841 495.16 280.991C483.02 288.141 461.42 283.761 462.69 261.741C463.75 243.191 484.24 241.201 492.8 244.101C501.36 247.001 514.38 254.891 514.86 259.991Z" fill="#E9E7E9"/>
<path d="M498.86 282.71C486.56 289.12 464.51 284.57 462.65 265.07C490.51 244.71 514.86 263.62 514.86 263.62C513.589 267.702 511.521 271.492 508.774 274.769C506.028 278.046 502.658 280.745 498.86 282.71Z" fill="#D8D8D8"/>
<path d="M514.86 268.02C513.35 272.09 506.51 280.39 498.62 284.52C485.11 291.59 461.46 284.2 462.62 265.07C485.18 280.79 514.68 268.1 514.86 268.02Z" fill="#D6CDD7"/>
<g style="mix-blend-mode:multiply" opacity="0.58">
<path d="M510.39 274.8C507.087 278.737 503.087 282.032 498.59 284.52C485.08 291.59 461.43 284.2 462.59 265.07C470.59 292.64 510.39 274.8 510.39 274.8Z" fill="#B6BCCC"/>
</g>
<path d="M381.397 273.485C381.888 271.196 379.365 268.714 375.762 267.944C372.16 267.173 368.843 268.404 368.353 270.694C367.863 272.984 370.386 275.465 373.988 276.236C377.59 277.007 380.907 275.775 381.397 273.485Z" fill="#F6FAFE"/>
<path d="M362.95 317.39C363.645 315.64 361.434 313.118 358.011 311.757C354.588 310.397 351.249 310.712 350.553 312.462C349.858 314.212 352.069 316.734 355.492 318.095C358.915 319.456 362.254 319.14 362.95 317.39Z" fill="#F6FAFE"/>
<path d="M364.71 270.459C366.278 270.459 367.55 269.188 367.55 267.619C367.55 266.051 366.278 264.779 364.71 264.779C363.142 264.779 361.87 266.051 361.87 267.619C361.87 269.188 363.142 270.459 364.71 270.459Z" fill="#F6FAFE"/>
<path d="M350.32 321.199C351.425 321.199 352.32 320.304 352.32 319.199C352.32 318.095 351.425 317.199 350.32 317.199C349.215 317.199 348.32 318.095 348.32 319.199C348.32 320.304 349.215 321.199 350.32 321.199Z" fill="#F6FAFE"/>
</g>
<defs>
<clipPath id="clip0_4879_430">
<rect width="619.18" height="838.58" fill="white"/>
</clipPath>
</defs>
</svg>
