<svg width="800" height="971" viewBox="0 0 800 971" fill="none" xmlns="http://www.w3.org/2000/svg">
<g clip-path="url(#clip0_4809_1841)">
<path d="M386.09 970.49C498.657 970.49 589.91 948.373 589.91 921.09C589.91 893.808 498.657 871.69 386.09 871.69C273.523 871.69 182.27 893.808 182.27 921.09C182.27 948.373 273.523 970.49 386.09 970.49Z" fill="#A7A9AC"/>
<path d="M368.11 926.31C364.308 926.306 360.649 924.858 357.874 922.259C355.098 919.66 353.414 916.104 353.16 912.31C353.04 910.57 351 877.84 353.67 829.09L352.14 830.29L350.74 831.36L349.45 832.36L348.12 833.36L346.82 834.29L345.62 835.13L344.37 835.97L343.19 836.76L341.5 837.86L339.83 838.86L338.83 839.49L337.11 840.49L336.68 840.73L335.52 841.37L334.72 841.79L333.91 842.2C328.778 844.536 323.481 846.488 318.06 848.04C316.84 848.41 315.55 848.79 314.2 849.16C312.85 849.53 311.44 849.91 309.99 850.28C307.76 850.85 305.46 851.38 303.15 851.88C296.22 853.361 289.208 854.423 282.15 855.06C280.25 855.23 278.32 855.36 276.41 855.46C274.5 855.56 272.41 855.63 270.49 855.65H268.69H267.48C264.37 855.65 261.27 855.5 258.28 855.27C257.28 855.19 256.2 855.1 255.16 854.99C243.088 853.871 231.292 850.72 220.27 845.67C219.22 845.18 218.19 844.67 217.15 844.14C213.993 842.513 210.931 840.707 207.98 838.73C202.829 835.273 198.041 831.303 193.69 826.88C189.989 823.108 186.601 819.042 183.56 814.72C180.304 810.098 177.412 805.23 174.91 800.16C174.35 799.04 173.8 797.86 173.2 796.57L172.7 795.42C172.34 794.61 171.98 793.78 171.64 792.96C171.47 792.55 171.3 792.12 171.13 791.7C170.81 790.88 170.5 790.08 170.2 789.28C170.2 789.28 169.87 788.39 169.77 788.1C169.41 787.1 169.08 786.1 168.77 785.1L168.6 784.58C168.25 783.46 167.91 782.33 167.6 781.09C167.52 780.81 167.44 780.5 167.36 780.2L167.29 779.94C167.09 779.17 166.9 778.4 166.72 777.64L166.42 776.29C166.27 775.6 166.12 774.88 165.98 774.15V773.93L165.77 772.84C165.63 772.02 165.5 771.18 165.38 770.35V770.22C165.38 769.96 165.3 769.69 165.27 769.43C165.13 768.43 165.01 767.32 164.9 766.26C164.9 765.89 164.84 765.57 164.82 765.26V764.99C164.77 764.32 164.71 763.63 164.68 762.94C164.68 762.49 164.68 762.01 164.62 761.53C164.56 761.05 164.62 760.3 164.62 759.67V759.54C164.62 759.11 164.62 758.68 164.62 758.26C164.62 757.6 164.62 756.91 164.62 756.26V756.04C164.62 755.73 164.62 755.43 164.62 755.13C164.62 754.13 164.73 753.21 164.8 752.29C164.8 752.15 164.8 752.01 164.8 751.87C165.051 749.077 165.452 746.3 166 743.55C165.36 740.937 165.435 738.201 166.216 735.627C166.997 733.053 168.456 730.737 170.44 728.92C170.99 727.59 171.58 726.27 172.2 724.97C150.52 731.6 134.36 733.11 124.15 733.11C115.08 733.11 109.92 731.97 108.56 731.62C105.796 730.907 103.292 729.42 101.344 727.333C99.395 725.246 98.0825 722.647 97.5601 719.84C84.4601 649.65 109.86 603.93 133.46 577.94C143.436 567.022 154.807 557.466 167.28 549.52C165.403 546.31 164.784 542.517 165.546 538.877C166.307 535.236 168.393 532.009 171.4 529.82C180.876 522.973 191.738 518.287 203.22 516.09C200.716 513.038 199.516 509.121 199.881 505.189C200.246 501.258 202.147 497.629 205.17 495.09L202.54 493.65L201.16 492.89L197.81 491.04L196.37 490.23C195.12 489.52 193.9 488.82 192.7 488.12L191.98 487.7C190.51 486.84 189.11 486.02 187.73 485.19L186.42 484.41L183.51 482.65L182.06 481.76L179.06 479.91L178.01 479.25C176.75 478.46 175.5 477.66 174.27 476.87L172.91 476.04L170.46 474.44L168.96 473.44L166.6 471.85L165.3 470.98C164.2 470.22 163.1 469.47 162.02 468.71L160.61 467.71L158.61 466.3L157.06 465.19L155.06 463.7C154.63 463.4 154.21 463.09 153.8 462.78L152.42 461.78C147.35 463.19 142.16 464.4 136.92 465.38C134.92 465.75 132.92 466.09 130.92 466.38C125.39 467.22 119.92 467.79 114.61 468.06C112.61 468.16 110.61 468.23 108.7 468.25H106.91C81.9101 468.25 60.5401 461.86 43.2501 449.25C41.2501 447.81 39.3301 446.25 37.4701 444.66C27.3139 435.767 19.05 424.922 13.1701 412.77C12.6101 411.63 12.0501 410.45 11.4701 409.17C11.3401 408.89 11.2101 408.59 11.0801 408.29L10.9101 408.04C10.5401 407.21 10.1901 406.39 9.85012 405.57L9.33012 404.3C9.01012 403.49 8.71011 402.7 8.42011 401.91L8.30012 401.6C8.19012 401.31 8.08013 401.01 7.98013 400.71C7.61013 399.71 7.27013 398.71 6.98013 397.71L6.84011 397.3C6.45011 396.08 6.12012 394.93 5.84012 393.8C5.74012 393.46 5.66012 393.13 5.58012 392.8L5.52012 392.58C5.33012 391.87 5.14012 391.1 4.96012 390.33C4.84679 389.877 4.74678 389.427 4.66012 388.98C4.50012 388.27 4.35012 387.54 4.21012 386.82V386.69C4.13012 386.3 4.06012 385.91 3.99012 385.53C3.84012 384.69 3.71012 383.86 3.59012 383.04C3.59012 383.04 3.50012 382.42 3.46012 382.17C3.31012 381.06 3.19012 379.98 3.09012 378.91C3.09012 378.59 3.03012 378.25 3.01012 377.91V377.66C2.95012 376.99 2.90012 376.32 2.87012 375.66C2.87012 375.15 2.87012 374.66 2.80012 374.21C2.73012 373.76 2.80012 372.98 2.80012 372.37V372.16C2.80012 371.75 2.80012 371.35 2.80012 370.95C2.80012 370.28 2.80012 369.62 2.80012 368.95V368.7C2.80012 368.36 2.80012 368.02 2.80012 367.7C2.80012 366.82 2.89012 365.87 2.97012 364.94V364.58C3.22145 361.771 3.62202 358.977 4.17012 356.21C3.53168 353.596 3.60791 350.859 4.39083 348.285C5.17375 345.711 6.63454 343.395 8.62012 341.58C12.1684 333.076 16.9865 325.159 22.9101 318.1C23.0616 315.47 23.903 312.927 25.3494 310.726C26.7959 308.524 28.7966 306.743 31.1501 305.56C31.3201 305.47 35.1501 303.56 40.3801 301.1C46.9232 295.883 53.8869 291.217 61.2001 287.15L58.9101 285.76L57.2601 284.76L56.0801 284.03L54.4701 283.03C53.2201 282.24 52.0001 281.46 50.8001 280.67L50.2301 280.3L48.5801 279.2L47.9301 278.76C11.4401 254.09 2.08012 232.76 1.13012 230.38C0.0683355 227.727 -0.213401 224.825 0.318077 222.017C0.849555 219.209 2.17213 216.612 4.13012 214.53C35.2901 181.2 71.3901 164.31 111.41 164.31C128.987 164.398 146.406 167.622 162.85 173.83C164.544 170.838 167.215 168.518 170.416 167.26C173.616 166.002 177.152 165.882 180.43 166.92C186.016 168.697 191.358 171.166 196.33 174.27C197.595 173.648 198.942 173.207 200.33 172.96L198.78 170.4L197.91 169.04C197.26 167.95 196.62 166.88 195.99 165.81L195.14 164.36C194.43 163.15 193.73 161.94 193.03 160.73L192.58 159.95C191.767 158.523 190.97 157.11 190.19 155.71L189.45 154.38C188.89 153.38 188.35 152.38 187.82 151.38L186.98 149.84L185.33 146.76L184.74 145.64C184.06 144.35 183.38 143.04 182.74 141.73L182.02 140.32L180.68 137.68L179.89 136.09C179.46 135.23 179.05 134.38 178.64 133.53L177.94 132.1C177.36 130.9 176.79 129.7 176.23 128.51L175.51 126.95C175.16 126.19 174.82 125.46 174.51 124.73C174.24 124.15 173.98 123.57 173.72 122.98C173.46 122.39 172.07 119.27 172.07 119.27C171.59 118.16 171.12 117.08 170.67 116.01C170.47 115.55 169.91 114.21 169.91 114.21L169.2 112.5L168.43 110.59C168.43 110.59 167.25 107.59 167.04 107.1L166.58 105.91C166.09 104.64 165.58 103.38 165.15 102.13L164.71 100.95C164.45 100.24 164.21 99.56 163.96 98.89C163.96 98.89 163.54 97.7 163.54 97.69C163.3 97.01 163.06 96.33 162.83 95.69L162.77 95.51C162.22 93.92 161.7 92.35 161.19 90.8L160.99 90.17C160.73 89.37 160.51 88.66 160.29 87.95L160.05 87.19C145.54 40.19 152.24 15.35 153.05 12.67C153.878 9.93733 155.468 7.49765 157.635 5.63767C159.801 3.7777 162.454 2.5747 165.28 2.17004C175.054 0.763799 184.915 0.0520168 194.79 0.0400391C253.47 0.0400391 290.63 27.4 311.47 50.36C319.441 59.1584 326.463 68.7713 332.42 79.04C334.506 77.9393 336.822 77.3434 339.18 77.3H339.44C341.906 77.2997 344.334 77.9072 346.509 79.0689C348.684 80.2305 350.539 81.9105 351.91 83.96C356.649 91.1097 360.177 98.9922 362.35 107.29C364.547 105.508 367.202 104.382 370.01 104.04C371.397 103.87 372.801 103.897 374.18 104.12C378.808 93.3357 384.8 83.1896 392.01 73.93C409.42 51.7 442.2 25.21 499.45 25.21H500.31C503.173 25.2143 505.975 26.0376 508.384 27.5827C510.794 29.1279 512.712 31.3303 513.91 33.93C514.91 36.14 523.64 56.69 516.37 98.11V98.27C516.12 99.74 515.85 101.15 515.57 102.59C515.574 102.657 515.574 102.723 515.57 102.79C515.28 104.27 514.96 105.79 514.63 107.33L514.54 107.76C514.21 109.25 513.87 110.76 513.54 112.3V112.46C513.17 113.99 512.78 115.58 512.36 117.19L512.19 117.83C511.79 119.37 511.37 120.92 510.93 122.51L510.87 122.73C510.41 124.357 509.927 126.023 509.42 127.73L509.17 128.57C508.69 130.16 508.17 131.74 507.68 133.35C507.68 133.35 507.58 133.67 507.57 133.72C507.017 135.42 506.443 137.147 505.85 138.9L505.49 139.9C504.92 141.57 504.33 143.24 503.72 144.9L503.59 145.25C502.96 147.02 502.28 148.83 501.59 150.66L501.12 151.89C500.45 153.64 499.76 155.39 499.05 157.17L498.9 157.54C498.16 159.4 497.37 161.3 496.57 163.22L495.66 165.38C497.806 166.08 499.766 167.254 501.394 168.816C503.023 170.378 504.278 172.288 505.066 174.402C505.854 176.517 506.155 178.782 505.946 181.029C505.737 183.276 505.024 185.447 503.86 187.38C503.26 188.38 497.72 197.3 485.92 207.63L485.5 207.99C487.333 208.243 489.05 208.537 490.65 208.87C502.376 202.247 514.953 197.257 528.03 194.04C529.229 193.734 530.462 193.58 531.7 193.58C533.927 193.579 536.126 194.074 538.137 195.029C540.149 195.984 541.923 197.374 543.33 199.1C544.77 200.87 557.51 217.53 560.59 256.66V256.82C560.7 258.23 560.79 259.59 560.87 260.99V261.04C560.95 262.45 561.01 263.9 561.07 265.36V265.76C561.07 267.17 561.16 268.61 561.18 270.08V270.22C561.18 271.707 561.18 273.227 561.18 274.78V275.36C561.18 276.87 561.18 278.36 561.13 279.83C561.13 279.83 561.13 280.08 561.13 280.12C561.13 281.693 561.08 283.293 560.98 284.92V285.75C560.92 287.29 560.84 288.85 560.75 290.43V290.75C560.65 292.4 560.54 294.09 560.41 295.8L560.33 296.8C560.2 298.46 560.06 300.09 559.9 301.75V302.1C559.74 303.85 559.55 305.63 559.35 307.44L559.21 308.67C559.01 310.39 558.8 312.13 558.57 313.9V314.32C558.34 316.08 558.07 317.97 557.8 319.88L557.65 320.88C559.032 321.08 560.379 321.473 561.65 322.05C564.953 319.489 568.477 317.227 572.18 315.29C574.409 314.125 576.895 313.539 579.41 313.586C581.924 313.634 584.386 314.312 586.57 315.56C588.241 316.508 589.711 317.771 590.9 319.28C607.32 309.53 633.32 298.18 665.39 298.18C697.46 298.18 728.88 309.49 758.61 331.79C760.895 333.504 762.644 335.834 763.65 338.507C764.656 341.18 764.878 344.085 764.29 346.88C763.76 349.42 758.14 372.59 725.72 404.04L725.21 404.52C724.69 405.03 724.21 405.52 723.7 405.97L723.2 406.44C722.11 407.44 721.02 408.44 719.89 409.51L717.42 411.73L715.91 413.06L714.99 413.86L712.27 416.19L711.27 416.99C710.79 417.4 708.64 419.17 708.64 419.17L707.2 420.34L705.51 421.7L704.45 422.54C703.62 423.2 702.76 423.86 701.9 424.54L698.9 426.81L697.49 427.86L695.71 429.19L694.43 430.13C693.43 430.84 692.43 431.56 691.43 432.27L690.31 433.07L688.15 434.59L686.81 435.53L684.64 437.04L683.4 437.88L680.07 440.11C713.59 444.11 773.94 462.85 798.56 543.29C799.394 546.02 799.432 548.932 798.668 551.683C797.905 554.434 796.372 556.91 794.25 558.82C792.41 560.48 775.04 575.2 732.51 581.18L729.89 581.53L729.3 581.61L724.98 582.12L722.88 582.33L721.88 582.43L719.98 582.61L718.86 582.7C717.7 582.8 716.56 582.89 715.4 582.97L714.26 583.05L712.19 583.18L711.01 583.25L709.27 583.34L705.91 583.49L702.86 583.59H701.29H699.29H697.65H693.79H690.58H688.58C691.758 596.678 691.635 610.351 688.22 623.38C684.58 637.38 677.22 650.78 666.35 663.27L666.12 663.53L665.65 664.07C665.38 664.37 665.09 664.7 664.8 665.01L664.03 665.86L663.17 666.79C662.4 667.61 661.63 668.4 660.86 669.19L660.44 669.62L658.91 671.26L657.46 672.66L655.91 674.04L654.91 674.93L654.36 675.43L653.49 676.2C653.49 676.2 652.36 677.2 652.06 677.44L650.22 679.04C649.1 679.97 648.01 680.85 646.93 681.69L645.47 682.82L643.81 684.04L642.42 685.04L641.21 685.91L639.93 686.81L639.25 687.27L638.04 688.09L635.65 689.64L634.24 690.51L632.7 691.45L631.47 692.16L629.78 693.1L629.03 693.49L628.29 693.87C623.152 696.231 617.844 698.203 612.41 699.77L610.5 700.34C609.23 700.71 607.88 701.09 606.5 701.46L604.34 702.02C602.9 702.38 601.41 702.74 599.86 703.09C598.31 703.44 596.72 703.78 595.09 704.09C592.58 704.59 590.01 705.04 587.47 705.44C584.71 705.86 581.97 706.22 579.32 706.5C575.47 706.91 571.6 707.18 567.83 707.3C566.22 707.35 564.61 707.38 563.03 707.38C519.7 707.38 487.28 688.19 469.27 651.88C468.67 650.66 468.11 649.47 467.57 648.28L467.06 647.14C466.7 646.33 466.35 645.5 466.06 644.68C465.88 644.25 465.71 643.83 465.55 643.41C465.22 642.59 464.91 641.79 464.62 641C464.62 641 464.3 640.15 464.19 639.84C463.82 638.84 463.48 637.84 463.19 636.84C463.13 636.65 463.07 636.49 463.02 636.33C462.66 635.17 462.33 634.03 462.02 632.89C461.94 632.59 461.87 632.31 461.8 632.03L461.72 631.74C461.51 630.95 461.32 630.18 461.14 629.42C461.05 629.03 460.96 628.61 460.87 628.2C460.87 628.2 460.87 628.1 460.87 628.09C460.71 627.35 460.57 626.63 460.43 625.9V625.77C460.36 625.38 460.28 625 460.22 624.61C460.16 624.22 460.06 623.72 459.99 623.27C450.429 649.762 442.671 676.871 436.77 704.41C413.31 811.32 418.96 907.04 419.02 908.04C419.272 912.007 417.939 915.912 415.314 918.897C412.689 921.882 408.987 923.703 405.02 923.96L369.1 926.3L368.11 926.31ZM352.46 662.31C362.13 664.84 370.22 670.11 375.74 674.58C379.41 659.34 383.51 644.45 387.98 630.1C383.164 611.007 375.57 592.726 365.44 575.84C357.317 577.195 349.417 579.654 341.96 583.15C346.099 597.084 345.426 612.005 340.05 625.51C338.959 627.946 337.237 630.047 335.062 631.596C332.888 633.145 330.339 634.085 327.68 634.32C327.24 634.32 326.8 634.32 326.36 634.32C325.441 634.323 324.524 634.239 323.62 634.07C323.073 635.57 322.503 637.053 321.91 638.52C332.18 638.82 340.04 640.28 345.32 642.89C348.764 644.591 351.424 647.548 352.752 651.151C354.081 654.755 353.976 658.731 352.46 662.26V662.31ZM502.77 535.53L504.77 534.15L503.77 533.97L502.77 535.53ZM353.08 464.59C357.94 468.39 362.667 472.323 367.26 476.39C373.927 482.31 380.293 488.5 386.36 494.96C383.144 467.403 378.072 440.094 371.18 413.22C368.86 412.05 366.6 410.79 364.42 409.45C362.24 408.11 360.37 406.85 358.42 405.45C356.47 404.05 354.5 402.45 352.64 400.87L351.48 399.87C351.936 400.724 352.305 401.622 352.58 402.55C356.58 415.67 358.46 427.85 358.29 438.76C358.284 438.776 358.284 438.794 358.29 438.81C358.282 447.664 356.511 456.428 353.08 464.59ZM441.45 423.2C446.328 446.062 450.032 469.159 452.55 492.4C453.31 491.28 454.07 490.17 454.84 489.07C450.517 466.922 449.135 444.3 450.73 421.79C447.77 422.32 444.67 422.8 441.45 423.2ZM338.23 391.86C338.73 391.86 339.23 391.86 339.74 391.94C341.595 392.125 343.399 392.654 345.06 393.5C338.343 386.15 332.712 377.876 328.34 368.93L328.28 368.83C327.7 367.65 327.16 366.49 326.63 365.34L326.12 364.17C325.77 363.38 325.41 362.55 325.12 361.72C324.95 361.33 324.78 360.89 324.61 360.46C324.28 359.64 323.98 358.85 323.68 358.05C323.68 358.05 323.35 357.17 323.25 356.88C322.89 355.88 322.56 354.88 322.25 353.88C322.19 353.69 322.13 353.53 322.09 353.38C321.7 352.17 321.37 351.03 321.09 349.9C321 349.58 320.93 349.29 320.86 349.01L320.78 348.73C320.58 347.95 320.39 347.18 320.21 346.42C320.1 345.96 320 345.53 319.91 345.09C319.75 344.36 319.61 343.65 319.47 342.94V342.73C319.39 342.35 319.32 341.98 319.26 341.6C319.12 340.8 318.99 339.98 318.87 339.16V339.01C318.87 338.75 318.79 338.49 318.76 338.23C318.61 337.17 318.49 336.09 318.39 335.03C318.39 334.68 318.33 334.34 318.31 334.03V333.77C318.25 333.13 318.21 332.45 318.17 331.77C318.17 331.29 318.12 330.77 318.1 330.33C318.08 329.89 318.1 329.09 318.1 328.45C318.105 328.37 318.105 328.29 318.1 328.21C290.466 327.842 263.113 322.615 237.29 312.77C234.476 317.98 230.847 322.706 226.54 326.77C226.91 327.6 227.27 328.43 227.62 329.27L227.84 329.79C243.623 333.527 258.781 339.533 272.84 347.62C274.816 344.472 277.89 342.169 281.467 341.158C285.044 340.148 288.869 340.501 292.2 342.15C315.47 353.67 328.34 374.86 335.28 392.15C336.252 391.958 337.24 391.861 338.23 391.86ZM267.91 253.73C281.681 258.328 295.991 261.121 310.48 262.04C307.86 257.373 305.17 252.743 302.41 248.15C301.74 248.48 301.07 248.78 300.41 249.08C297.921 250.165 295.362 251.084 292.75 251.83L291.2 252.25C286.175 253.536 281.007 254.185 275.82 254.18C273.177 254.195 270.535 254.044 267.91 253.73ZM355.71 208.68C358.67 213.54 361.577 218.437 364.43 223.37C365.15 219.55 365.737 215.623 366.19 211.59C365.55 210.87 364.92 210.12 364.31 209.36L364.23 209.27C362.67 207.323 361.167 205.24 359.72 203.02C358.4 205.04 357.06 206.89 355.67 208.68H355.71Z" fill="#231F20"/>
<path d="M605.31 520.04C605.31 520.04 566.78 506.68 533.73 534.83C533.73 534.83 446.15 571.55 482.73 645.22C519.31 718.89 611.21 685.62 621.61 680.46C632.01 675.3 695.54 635.4 669.72 574.32C643.9 513.24 605.31 520.04 605.31 520.04Z" fill="#E9382C"/>
<path d="M600.91 528.92C600.91 528.92 567.18 517.23 538.24 541.92C538.24 541.92 461.56 574.07 493.55 638.58C525.54 703.09 606.07 673.92 615.19 669.4C624.31 664.88 679.91 629.95 657.31 576.47C634.71 522.99 600.91 528.92 600.91 528.92Z" fill="#F1594B"/>
<path d="M661.1 614.81C544.78 650.68 499.4 603.34 488.99 589.42C484.11 602.92 483.99 619.28 493.53 638.53C525.53 703.03 606.05 673.87 615.17 669.35C621.91 666.04 653.68 646.28 661.1 614.81Z" fill="#E9382C"/>
<path d="M473.99 605.28C472.99 617.11 475.34 630.43 482.69 645.28C519.23 718.95 611.21 685.65 621.61 680.49C626.28 678.17 641.61 668.86 654.83 653.78C524.52 689.04 485.52 636.04 473.99 605.28Z" fill="#911A1D"/>
<path d="M600.64 579.04C565.74 599.12 544.19 599.3 532.22 595.86C530.729 595.438 529.375 594.631 528.295 593.52C527.215 592.409 526.447 591.033 526.067 589.531C525.688 588.028 525.712 586.452 526.135 584.962C526.559 583.471 527.367 582.119 528.48 581.04L528.73 580.81C529.93 579.655 531.406 578.829 533.017 578.408C534.627 577.988 536.319 577.989 537.93 578.41C545.22 580.27 561.53 580.41 591.71 563.05C592.773 562.438 593.949 562.046 595.166 561.897C596.384 561.748 597.619 561.845 598.798 562.181C599.978 562.518 601.078 563.088 602.033 563.857C602.988 564.626 603.78 565.579 604.36 566.66C605.464 568.804 605.693 571.292 604.999 573.601C604.305 575.91 602.742 577.86 600.64 579.04Z" fill="#F16465"/>
<path d="M644.633 564.091C646.023 557.262 639.276 550.121 629.562 548.143C619.848 546.165 610.845 550.098 609.455 556.928C608.064 563.757 614.811 570.898 624.526 572.876C634.24 574.854 643.242 570.921 644.633 564.091Z" fill="#F6FAFE"/>
<path d="M513.611 613.053C515.338 606.603 513.088 600.397 508.585 599.191C504.082 597.985 499.032 602.237 497.305 608.687C495.578 615.137 497.828 621.343 502.331 622.548C506.833 623.754 511.884 619.503 513.611 613.053Z" fill="#F6FAFE"/>
<g style="mix-blend-mode:multiply" opacity="0.78">
<path d="M641.63 533.17C638.335 532.631 634.969 532.703 631.7 533.38C612.31 537.5 583.01 553.68 583.01 553.68C583.01 553.68 601.91 525.74 607.48 522.54C609.317 521.583 611.222 520.764 613.18 520.09C610.568 519.747 607.922 519.747 605.31 520.09C600.924 518.731 596.411 517.827 591.84 517.39C572.37 530.74 560.84 558.98 560.84 558.98C560.84 558.98 544.11 546.44 532.59 548.34C522.53 550 495.83 563.44 495.83 563.44C518.83 557.55 527.62 557.44 527.62 557.44L543.87 565.33C539.841 567.768 535.593 569.824 531.18 571.47C526.64 573.13 521.03 582.4 505.27 589.91C492.17 596.15 476.65 597.08 476.65 597.08C476.65 597.08 494.48 608.08 510.27 600.84C527.27 593.1 543.27 580.46 543.27 580.46C543.27 580.46 549.27 579.26 565.72 581.19C582.17 583.12 601.72 603.56 601.72 603.56C603.53 594.04 581.38 568.04 581.38 568.04C581.38 568.04 626.48 547.91 635.25 543.97C639.1 542.24 645.94 542.97 652.41 544.31C649.186 540.256 645.576 536.525 641.63 533.17Z" fill="#911A1D"/>
</g>
<path d="M559.03 553.66C559.03 553.66 579.03 504.96 610.57 505.26C610.57 505.26 626.42 504.86 633.02 508.12C633.02 508.12 611.29 514.04 605.71 517.25C600.13 520.46 581.24 548.39 581.24 548.39C581.24 548.39 610.54 532.21 629.93 528.09C649.32 523.97 666.67 543.57 666.67 543.57C666.67 543.57 642.26 534.77 633.48 538.71C624.7 542.65 579.61 562.79 579.61 562.79C579.61 562.79 601.77 588.69 599.98 598.24C599.98 598.24 580.37 577.79 563.98 575.86C547.59 573.93 541.53 575.14 541.53 575.14C541.53 575.14 525.47 587.77 508.48 595.52C492.69 602.72 474.86 591.75 474.86 591.75C474.86 591.75 490.38 590.83 503.48 584.59C519.24 577.08 524.85 567.81 529.39 566.15C533.795 564.512 538.036 562.467 542.06 560.04L525.81 552.15C525.81 552.15 516.99 552.27 494.02 558.15C494.02 558.15 520.72 544.71 530.78 543.05C542.3 541.13 559.03 553.66 559.03 553.66Z" fill="#4CA84E"/>
<g style="mix-blend-mode:multiply">
<path d="M576.42 550.04C577.36 552.86 571.7 559.48 562.96 562.4C554.22 565.32 545.71 563.4 544.77 560.62C543.83 557.84 550.16 553.16 558.9 550.24C567.64 547.32 575.48 547.27 576.42 550.04Z" fill="#4CA84E"/>
</g>
<g style="mix-blend-mode:multiply">
<path d="M546.66 562.471C549.81 564.101 556.31 564.661 562.96 562.471C569.61 560.281 574.47 555.891 576.01 552.691C573.01 551.601 566.91 552.181 560.27 554.411C553.63 556.641 548.37 559.821 546.66 562.471Z" fill="#4CA84E"/>
</g>
<path d="M556.61 561.04C553.75 552.187 552.168 542.971 551.91 533.67C551.3 513.05 557.72 495.67 570.49 483.45L578.21 491.51C567.7 501.57 562.6 515.51 563.05 533.03C563.272 541.272 564.652 549.443 567.15 557.3L556.61 561.04Z" fill="#4CA84E"/>
<path d="M655.82 593.52C657.45 611.42 650.47 650.94 633.89 649.27C633.89 649.27 618.02 648.57 624.14 636.27C628.21 628.11 626.35 609.37 624.64 597.74C624.237 594.978 624.843 592.163 626.347 589.812C627.852 587.461 630.153 585.731 632.83 584.94L640.12 582.79C641.866 582.278 643.704 582.161 645.501 582.446C647.298 582.73 649.009 583.411 650.511 584.437C652.013 585.464 653.268 586.811 654.186 588.382C655.105 589.952 655.663 591.707 655.82 593.52Z" fill="#F16465"/>
<path d="M647.7 581.25C651.318 581.25 654.25 578.318 654.25 574.7C654.25 571.083 651.318 568.15 647.7 568.15C644.083 568.15 641.15 571.083 641.15 574.7C641.15 578.318 644.083 581.25 647.7 581.25Z" fill="#F6FAFE"/>
<path d="M497.618 579.944C498.796 577.557 498.407 574.958 496.747 574.139C495.088 573.32 492.788 574.592 491.61 576.979C490.432 579.366 490.822 581.965 492.481 582.783C494.14 583.602 496.44 582.331 497.618 579.944Z" fill="#F6FAFE"/>
<path d="M149.17 280.9C149.17 280.9 110.64 267.54 77.58 295.69C77.58 295.69 -9.98999 332.41 26.58 406.08C63.15 479.75 155.1 446.45 165.51 441.29C175.92 436.13 239.43 396.23 213.61 335.15C187.79 274.07 149.17 280.9 149.17 280.9Z" fill="#E9382C"/>
<path d="M144.75 289.75C144.75 289.75 111.01 278.06 82.0701 302.75C82.0701 302.75 5.39009 334.9 37.3801 399.41C69.3701 463.92 149.91 434.71 159.02 430.19C168.13 425.67 223.75 390.73 201.14 337.25C178.53 283.77 144.75 289.75 144.75 289.75Z" fill="#F1594B"/>
<path d="M204.91 375.64C88.6001 411.51 43.21 364.18 32.81 350.26C27.93 363.75 27.81 380.11 37.34 399.36C69.34 463.87 149.87 434.71 158.98 430.19C165.72 426.87 197.54 407.11 204.91 375.64Z" fill="#E9382C"/>
<path d="M17.84 366.11C16.84 377.94 19.19 391.26 26.54 406.11C63.08 479.79 155.06 446.48 165.47 441.32C170.14 439.01 185.47 429.69 198.68 414.62C68.37 449.88 29.37 396.88 17.84 366.11Z" fill="#911A1D"/>
<path d="M144.5 339.86C109.59 359.93 88.05 360.11 76.07 356.68C74.5796 356.256 73.2272 355.447 72.1486 354.334C71.07 353.222 70.3031 351.845 69.9252 350.342C69.5472 348.839 69.5713 347.263 69.9952 345.773C70.4191 344.282 71.2278 342.929 72.34 341.85L72.58 341.62C73.7812 340.468 75.2572 339.643 76.8676 339.223C78.478 338.803 80.1692 338.802 81.78 339.22C89.07 341.08 105.39 341.27 135.56 323.86C136.623 323.249 137.799 322.857 139.016 322.708C140.233 322.559 141.469 322.655 142.648 322.992C143.828 323.328 144.928 323.898 145.883 324.667C146.838 325.437 147.63 326.39 148.21 327.47C149.312 329.615 149.542 332.103 148.85 334.413C148.159 336.722 146.6 338.675 144.5 339.86Z" fill="#F16465"/>
<path d="M188.513 324.945C189.904 318.115 183.156 310.975 173.442 308.997C163.728 307.019 154.726 310.952 153.335 317.781C151.944 324.611 158.692 331.751 168.406 333.729C178.12 335.707 187.122 331.774 188.513 324.945Z" fill="#F6FAFE"/>
<path d="M57.4483 373.851C59.1753 367.402 56.9253 361.196 52.4226 359.99C47.9199 358.784 42.8697 363.036 41.1427 369.485C39.4157 375.935 41.6658 382.141 46.1684 383.347C50.6711 384.553 55.7213 380.301 57.4483 373.851Z" fill="#F6FAFE"/>
<g style="mix-blend-mode:multiply" opacity="0.78">
<path d="M185.48 294.04C182.189 293.496 178.826 293.568 175.56 294.25C156.16 298.36 126.86 314.54 126.86 314.54C126.86 314.54 145.76 286.61 151.34 283.4C153.177 282.443 155.082 281.624 157.04 280.95C154.428 280.607 151.782 280.607 149.17 280.95C144.784 279.594 140.271 278.693 135.7 278.26C116.23 291.6 104.65 319.84 104.65 319.84C104.65 319.84 87.9102 307.26 76.4002 309.16C66.3402 310.82 39.6502 324.25 39.6502 324.25C62.6502 318.36 71.4402 318.25 71.4402 318.25L87.6802 326.15C83.6541 328.587 79.409 330.643 75.0002 332.29C70.4602 333.94 64.8402 343.21 49.0802 350.72C35.9902 356.96 20.4602 357.89 20.4602 357.89C20.4602 357.89 38.2902 368.89 54.0802 361.65C71.0802 353.91 87.1402 341.27 87.1402 341.27C87.1402 341.27 93.1402 340.07 109.58 342C126.02 343.93 145.58 364.37 145.58 364.37C147.37 354.83 125.21 328.92 125.21 328.92C125.21 328.92 170.31 308.8 179.09 304.85C182.93 303.12 189.77 303.85 196.25 305.19C193.028 301.135 189.421 297.401 185.48 294.04Z" fill="#911A1D"/>
</g>
<path d="M102.91 314.5C102.91 314.5 122.91 265.79 154.45 266.09C154.45 266.09 170.29 265.69 176.9 268.95C176.9 268.95 155.17 274.87 149.59 278.08C144.01 281.29 125.12 309.22 125.12 309.22C125.12 309.22 154.41 293.04 173.81 288.92C193.21 284.8 210.54 304.4 210.54 304.4C210.54 304.4 186.13 295.6 177.36 299.55C168.59 303.5 123.48 323.62 123.48 323.62C123.48 323.62 145.64 349.53 143.85 359.07C143.85 359.07 124.25 338.62 107.85 336.7C91.4502 334.78 85.4102 335.97 85.4102 335.97C85.4102 335.97 69.3402 348.61 52.3502 356.35C36.5602 363.55 18.7402 352.59 18.7402 352.59C18.7402 352.59 34.2602 351.66 47.3502 345.42C63.1102 337.91 68.7302 328.64 73.2702 326.98C77.6652 325.33 81.8969 323.275 85.9102 320.84L69.6702 312.95C69.6702 312.95 60.8402 313.07 37.8802 318.95C37.8802 318.95 64.5702 305.51 74.6302 303.86C86.1502 301.96 102.91 314.5 102.91 314.5Z" fill="#4CA84E"/>
<g style="mix-blend-mode:multiply">
<path d="M120.28 310.92C121.22 313.73 115.55 320.35 106.81 323.27C98.0702 326.19 89.5702 324.27 88.6302 321.5C87.6902 318.73 94.0102 314.03 102.75 311.11C111.49 308.19 119.34 308.1 120.28 310.92Z" fill="#4CA84E"/>
</g>
<g style="mix-blend-mode:multiply">
<path d="M90.51 323.3C93.66 324.94 100.17 325.49 106.81 323.3C113.45 321.11 118.32 316.72 119.81 313.52C116.81 312.44 110.72 313.02 104.07 315.24C97.42 317.46 92.23 320.65 90.51 323.3Z" fill="#4CA84E"/>
</g>
<path d="M100.47 321.88C97.5944 313.03 96.0016 303.813 95.7401 294.51C95.1301 273.88 101.56 256.51 114.33 244.28L122.05 252.34C111.54 262.4 106.44 276.34 106.89 293.87C107.111 302.109 108.488 310.275 110.98 318.13L100.47 321.88Z" fill="#4CA84E"/>
<path d="M199.67 354.35C201.3 372.25 194.32 411.77 177.74 410.11C177.74 410.11 161.88 409.4 167.99 397.11C172.06 388.95 170.2 370.21 168.5 358.58C168.095 355.818 168.7 353.002 170.205 350.651C171.709 348.299 174.012 346.57 176.69 345.78L183.97 343.64C185.715 343.127 187.551 343.007 189.348 343.29C191.144 343.573 192.855 344.251 194.357 345.276C195.859 346.301 197.115 347.647 198.034 349.216C198.953 350.785 199.512 352.539 199.67 354.35Z" fill="#F16465"/>
<path d="M191.55 342.08C195.167 342.08 198.1 339.148 198.1 335.53C198.1 331.913 195.167 328.98 191.55 328.98C187.933 328.98 185 331.913 185 335.53C185 339.148 187.933 342.08 191.55 342.08Z" fill="#F6FAFE"/>
<path d="M41.5064 340.809C42.6846 338.422 42.2947 335.823 40.6357 335.004C38.9766 334.185 36.6765 335.457 35.4983 337.844C34.3201 340.231 34.7099 342.83 36.369 343.649C38.0281 344.468 40.3281 343.196 41.5064 340.809Z" fill="#F6FAFE"/>
<path d="M638.72 515.61L627.91 481.28C591.1 492.88 550.15 489.92 522.21 485.37C548.326 455.914 580.153 432.069 615.76 415.28L600.45 382.7C563.266 400.251 529.76 424.716 501.72 454.79C499.72 428.13 501.72 390.23 523.47 363.28L495.47 340.69C451.89 394.79 466.83 474.51 470.91 492.37C464.87 500.777 459.08 509.534 453.54 518.64C442.171 537.459 432.12 557.042 423.46 577.25C408.095 542.982 385.55 512.413 357.35 487.61C325.35 459.29 296.68 446.85 295.48 446.34L281.29 479.43C281.54 479.53 306.73 490.59 334.43 515.43C338.857 519.39 343.093 523.464 347.14 527.65C320.56 534.04 284.91 551.1 249.91 594.04L277.8 616.8C317.6 568.01 355.9 560.59 373.2 560.04C387.462 581.56 397.742 605.466 403.55 630.62C397.07 650.94 391.404 672.217 386.55 694.45C361.81 808.8 367.91 907.18 368.13 911.31L404.05 908.97C403.99 907.97 398.05 810.79 421.95 701.23C438.09 627.124 463.107 565.79 497 517.23C520.787 522.523 545.072 525.262 569.44 525.4C591.62 525.43 615.62 522.89 638.72 515.61Z" fill="#66BE64"/>
<path d="M310.97 668.31C310.97 668.31 272.44 654.96 239.38 683.1C239.38 683.1 151.81 719.82 188.38 793.49C224.95 867.16 316.91 833.86 327.27 828.7C337.63 823.54 401.19 783.64 375.38 722.56C349.57 661.48 310.97 668.31 310.97 668.31Z" fill="#E9382C"/>
<path d="M306.55 677.16C306.55 677.16 272.82 665.47 243.87 690.16C243.87 690.16 167.19 722.31 199.19 786.81C231.19 851.31 311.71 822.16 320.82 817.64C329.93 813.12 385.55 778.19 362.95 724.71C340.35 671.23 306.55 677.16 306.55 677.16Z" fill="#F1594B"/>
<path d="M366.76 763.04C250.44 798.91 205.06 751.58 194.65 737.66C189.77 751.15 189.65 767.51 199.19 786.76C231.19 851.27 311.71 822.11 320.82 817.59C327.52 814.28 359.34 794.52 366.76 763.04Z" fill="#E9382C"/>
<path d="M179.64 753.52C178.64 765.35 181 778.67 188.35 793.52C224.91 867.17 316.91 833.86 327.27 828.7C331.94 826.39 347.27 817.08 360.49 802C230.17 837.29 191.17 784.29 179.64 753.52Z" fill="#911A1D"/>
<path d="M306.3 727.27C271.39 747.34 249.85 747.52 237.87 744.09C236.38 743.667 235.027 742.86 233.948 741.748C232.869 740.636 232.102 739.26 231.724 737.758C231.346 736.255 231.37 734.68 231.794 733.19C232.218 731.7 233.027 730.348 234.14 729.27L234.38 729.03C235.581 727.878 237.057 727.052 238.668 726.634C240.279 726.215 241.97 726.218 243.58 726.64C250.88 728.49 267.19 728.64 297.36 711.28C298.423 710.666 299.598 710.272 300.816 710.121C302.034 709.97 303.27 710.066 304.45 710.403C305.631 710.74 306.731 711.311 307.686 712.082C308.641 712.853 309.432 713.808 310.01 714.89C311.112 717.033 311.341 719.52 310.649 721.828C309.958 724.136 308.399 726.087 306.3 727.27Z" fill="#F16465"/>
<path d="M350.309 712.322C351.7 705.492 344.953 698.352 335.238 696.374C325.524 694.396 316.522 698.329 315.131 705.158C313.74 711.988 320.488 719.128 330.202 721.106C339.916 723.084 348.919 719.151 350.309 712.322Z" fill="#F6FAFE"/>
<path d="M219.255 761.301C220.982 754.851 218.732 748.645 214.229 747.439C209.726 746.233 204.676 750.485 202.949 756.935C201.222 763.385 203.472 769.591 207.975 770.796C212.477 772.002 217.528 767.751 219.255 761.301Z" fill="#F6FAFE"/>
<g style="mix-blend-mode:multiply" opacity="0.78">
<path d="M347.28 681.42C343.988 680.882 340.626 680.953 337.36 681.63C317.96 685.74 288.67 701.92 288.67 701.92C288.67 701.92 307.56 673.99 313.14 670.78C314.976 669.824 316.881 669.008 318.84 668.34C316.228 667.995 313.582 667.995 310.97 668.34C306.584 666.985 302.07 666.083 297.5 665.65C278.03 678.99 266.5 707.23 266.5 707.23C266.5 707.23 249.77 694.7 238.24 696.6C228.18 698.26 201.49 711.7 201.49 711.7C224.49 705.8 233.28 705.7 233.28 705.7L249.52 713.59C245.495 716.03 241.25 718.086 236.84 719.73C232.3 721.39 226.69 730.65 210.92 738.17C197.83 744.41 182.31 745.33 182.31 745.33C182.31 745.33 200.13 756.33 215.93 749.1C232.93 741.35 248.93 728.71 248.93 728.71C248.93 728.71 254.93 727.51 271.37 729.44C287.81 731.37 307.37 751.82 307.37 751.82C309.16 742.27 287 716.36 287 716.36C287 716.36 332.11 696.24 340.88 692.29C344.72 690.56 351.56 691.29 358.04 692.63C354.824 688.555 351.22 684.801 347.28 681.42Z" fill="#911A1D"/>
</g>
<path d="M264.69 701.91C264.69 701.91 284.69 653.21 316.23 653.5C316.23 653.5 332.08 653.1 338.68 656.36C338.68 656.36 316.95 662.28 311.37 665.49C305.79 668.7 286.91 696.63 286.91 696.63C286.91 696.63 316.2 680.45 335.6 676.34C355 672.23 372.33 691.82 372.33 691.82C372.33 691.82 347.91 683.04 339.14 686.96C330.37 690.88 285.26 711.04 285.26 711.04C285.26 711.04 307.42 736.95 305.63 746.49C305.63 746.49 286.03 726.05 269.63 724.12C253.23 722.19 247.18 723.39 247.18 723.39C247.18 723.39 231.1 736.04 214.12 743.76C198.32 750.97 180.5 740 180.5 740C180.5 740 196.02 739.07 209.11 732.83C224.88 725.32 230.49 716.05 235.03 714.39C239.441 712.751 243.686 710.699 247.71 708.26L231.47 700.36C231.47 700.36 222.64 700.48 199.68 706.36C199.68 706.36 226.38 692.93 236.43 691.27C247.96 689.38 264.69 701.91 264.69 701.91Z" fill="#4CA84E"/>
<g style="mix-blend-mode:multiply">
<path d="M282.08 698.33C283.02 701.14 277.36 707.76 268.62 710.68C259.88 713.6 251.37 711.68 250.43 708.91C249.49 706.14 255.81 701.45 264.55 698.52C273.29 695.59 281.14 695.51 282.08 698.33Z" fill="#4CA84E"/>
</g>
<g style="mix-blend-mode:multiply">
<path d="M252.31 710.72C255.46 712.35 261.97 712.91 268.62 710.72C275.27 708.53 280.13 704.14 281.62 700.94C278.62 699.86 272.53 700.44 265.88 702.66C259.23 704.88 254.03 708.04 252.31 710.72Z" fill="#4CA84E"/>
</g>
<path d="M262.27 709.29C259.4 700.438 257.807 691.222 257.54 681.92C256.93 661.29 263.36 643.92 276.13 631.69L283.85 639.75C273.34 649.82 268.24 663.75 268.69 681.28C268.917 689.518 270.293 697.684 272.78 705.54L262.27 709.29Z" fill="#4CA84E"/>
<path d="M361.47 741.77C363.1 759.67 356.12 799.19 339.55 797.52C339.55 797.52 323.68 796.81 329.8 784.52C333.87 776.37 332 757.62 330.3 745.99C329.893 743.229 330.498 740.414 332.003 738.063C333.508 735.713 335.812 733.986 338.49 733.2L345.77 731.05C347.515 730.537 349.353 730.417 351.15 730.701C352.947 730.984 354.658 731.664 356.161 732.689C357.663 733.715 358.919 735.062 359.837 736.632C360.755 738.203 361.313 739.958 361.47 741.77Z" fill="#F16465"/>
<path d="M353.35 729.5C356.968 729.5 359.9 726.568 359.9 722.95C359.9 719.333 356.968 716.4 353.35 716.4C349.733 716.4 346.8 719.333 346.8 722.95C346.8 726.568 349.733 729.5 353.35 729.5Z" fill="#F6FAFE"/>
<path d="M203.307 728.188C204.485 725.801 204.095 723.202 202.436 722.383C200.777 721.564 198.477 722.836 197.299 725.223C196.121 727.61 196.51 730.209 198.17 731.028C199.829 731.847 202.129 730.575 203.307 728.188Z" fill="#F6FAFE"/>
<path d="M303.43 557.91C303.43 557.91 303.33 528.91 250.05 518.76C250.05 518.76 255.91 527.35 258.23 534.76C258.23 534.76 212.73 518.16 180.15 541.9C180.15 541.9 192.84 548.99 194.15 552.05C194.15 552.05 89.0801 592.88 112.25 717.05C173.01 606.56 303.43 557.91 303.43 557.91Z" fill="#66BE64"/>
<path d="M303.43 557.91C303.43 557.91 173.01 606.56 112.23 717.1C112.23 717.1 167.53 731.36 274.95 653.54C278.53 659.956 280.689 667.067 281.28 674.39C281.28 674.39 304.87 653.62 314.75 611.52C314.75 611.52 320.51 610.75 326.36 619.34C326.36 619.34 342.6 583.14 303.43 557.91Z" fill="#4CA84E"/>
<g style="mix-blend-mode:multiply">
<path d="M303.43 557.91C303.43 557.91 303.37 541.39 280.43 528.91C280.43 528.91 286.64 628.91 175.57 708.05C201.12 699.21 234.29 682.96 274.92 653.52C278.5 659.936 280.658 667.047 281.25 674.37C281.25 674.37 304.84 653.6 314.72 611.5C314.72 611.5 320.48 610.73 326.33 619.32C326.36 619.34 342.6 583.14 303.43 557.91Z" fill="#4CA84E"/>
</g>
<path d="M542.35 435.76C542.35 435.76 518.68 423.96 531.91 376.36C531.91 376.36 536.57 384.611 541.73 389.521C541.73 389.521 546.53 345.65 579.07 328.62C579.07 328.62 579.74 341.84 581.72 344.13C581.72 344.13 657.48 274.79 749.55 343.83C634.73 348.87 542.35 435.76 542.35 435.76Z" fill="#66BE64"/>
<path d="M542.35 435.76C542.35 435.76 634.73 348.87 749.55 343.83C749.55 343.83 738.88 394.76 631.96 451.1C635.758 456.612 640.697 461.243 646.44 464.68C646.44 464.68 619.94 475.57 581.57 466.68C581.57 466.68 578.57 471.07 583.27 479.32C583.27 479.29 547.14 477.94 542.35 435.76Z" fill="#4CA84E"/>
<g style="mix-blend-mode:multiply">
<path d="M542.35 435.76C542.35 435.76 528.91 429.04 527.91 405.3C527.91 405.3 607.11 450.74 716.56 391.96C699.03 409.25 672.36 429.79 631.92 451.1C635.719 456.611 640.657 461.243 646.4 464.68C646.4 464.68 619.9 475.57 581.53 466.68C581.53 466.68 578.53 471.07 583.23 479.32C583.27 479.29 547.14 477.94 542.35 435.76Z" fill="#4CA84E"/>
</g>
<path d="M574.79 502.47C574.79 502.47 563.29 480.28 599.91 451.3C599.91 451.3 598.91 460.2 600.07 466.82C600.07 466.82 628.18 436 662.52 441.13C662.52 441.13 655.66 451.6 655.89 454.44C655.89 454.44 752.38 443.71 784.21 547.72C693.73 487.59 574.79 502.47 574.79 502.47Z" fill="#66BE64"/>
<path d="M574.79 502.47C574.79 502.47 693.73 487.59 784.21 547.72C784.21 547.72 747.69 580.66 634.66 564.11C634.491 570.435 635.681 576.724 638.15 582.55C638.15 582.55 611.85 576.1 587.53 547.91C587.53 547.91 582.82 549.61 581.78 558.51C581.78 558.51 554.91 537.35 574.79 502.47Z" fill="#4CA84E"/>
<g style="mix-blend-mode:multiply">
<path d="M574.79 502.47C574.79 502.47 568.25 489.84 580.79 471.19C580.79 471.19 615.95 550.02 732.27 566.1C709.27 569.54 677.45 570.37 634.69 564.1C634.521 570.426 635.711 576.714 638.18 582.54C638.18 582.54 611.88 576.09 587.56 547.9C587.56 547.9 582.85 549.6 581.81 558.5C581.78 558.51 554.91 537.35 574.79 502.47Z" fill="#4CA84E"/>
</g>
<path d="M483.82 386.87C483.82 386.87 464.23 395.82 440.82 363.07C440.82 363.07 448.43 364.34 454.18 363.59C454.18 363.59 428.86 338.09 434.74 308.76C434.74 308.76 443.46 315.1 445.91 315.03C445.91 315.03 440.8 231.54 531.66 208.59C476.09 283.88 483.82 386.87 483.82 386.87Z" fill="#66BE64"/>
<path d="M483.82 386.87C483.82 386.87 476.09 283.87 531.7 208.59C531.7 208.59 558.48 241.42 539.41 337.98C544.841 338.392 550.297 337.635 555.41 335.76C555.41 335.76 548.74 358.12 523.41 377.85C523.41 377.85 524.68 381.97 532.29 383.24C532.34 383.24 512.98 405.43 483.82 386.87Z" fill="#4CA84E"/>
<g style="mix-blend-mode:multiply">
<path d="M483.82 386.87C483.82 386.87 472.67 391.96 457.16 380.39C457.16 380.39 526.49 353.51 545.3 254.1C547.3 274.1 546.63 301.46 539.41 337.98C544.841 338.392 550.297 337.635 555.41 335.76C555.41 335.76 548.74 358.12 523.41 377.85C523.41 377.85 524.68 381.97 532.29 383.24C532.34 383.24 512.98 405.43 483.82 386.87Z" fill="#4CA84E"/>
</g>
<path d="M328.24 472.28C328.24 472.28 353.92 458.76 338.24 406.85C338.24 406.85 333.33 416.02 327.8 421.53C327.8 421.53 321.45 373.53 285.32 355.63C285.32 355.63 284.91 370.16 282.8 372.71C282.8 372.71 197.95 298.49 98.6301 376.52C224.74 379.21 328.24 472.28 328.24 472.28Z" fill="#66BE64"/>
<path d="M328.24 472.28C328.24 472.28 224.74 379.211 98.6201 376.521C98.6201 376.521 111.62 432.131 230.29 491.321C226.26 497.463 220.957 502.667 214.74 506.58C214.74 506.58 244.08 517.88 285.96 507.14C285.96 507.14 289.32 511.891 284.41 521.061C284.41 521.041 324.02 518.69 328.24 472.28Z" fill="#4CA84E"/>
<g style="mix-blend-mode:multiply">
<path d="M328.24 472.28C328.24 472.28 342.85 464.58 343.3 438.51C343.3 438.51 257.51 490.33 135.96 428.51C155.63 447.06 185.39 468.93 230.29 491.32C226.26 497.462 220.957 502.666 214.74 506.58C214.74 506.58 244.08 517.88 285.96 507.14C285.96 507.14 289.32 511.89 284.41 521.06C284.41 521.04 324.02 518.69 328.24 472.28Z" fill="#4CA84E"/>
</g>
<path d="M416.07 383.3C407.896 354.662 397.828 326.601 385.93 299.3C404.24 275.66 432.71 220.43 409.66 121.88L374.61 130.08C385.5 176.68 384.69 218.33 372.25 250.54C370.8 254.3 369.25 257.73 367.71 260.84C363.79 253.193 359.733 245.62 355.54 238.12C311.45 159.53 266.99 116.6 265.11 114.81L240.22 140.81C240.65 141.22 283.33 182.61 324.81 256.92C328.283 263.126 331.793 269.683 335.34 276.59C300.85 279.77 266.03 272.39 231.39 254.5C194.58 235.5 171.77 211.16 171.55 210.91L145.09 235.33C146.15 236.48 171.64 263.88 213.67 285.86C248.42 304.03 284.39 313.18 320.07 313.18C330.62 313.181 341.154 312.375 351.58 310.77C388.561 394.556 406.93 485.367 405.42 576.94L441.42 577.55C442.586 511.904 434.044 446.447 416.07 383.3Z" fill="#66BE64"/>
<path d="M229.22 277.66C229.22 277.66 249.9 262.33 229.13 218.95C229.13 218.95 226.06 227.65 221.96 233.23C221.96 233.23 209.9 192.01 175.81 181.23C175.81 181.23 177.42 194.02 175.91 196.55C175.91 196.55 91.51 142.96 15 224.78C125.91 210.04 229.22 277.66 229.22 277.66Z" fill="#66BE64"/>
<path d="M229.22 277.661C229.22 277.661 125.91 210.041 15 224.761C15 224.761 33.88 271.76 145.94 307.59C143.23 313.507 139.285 318.775 134.37 323.041C134.37 323.041 161.61 329.041 196.91 313.931C196.91 313.931 200.5 317.64 197.43 326.34C197.39 326.34 231.79 318.911 229.22 277.661Z" fill="#4CA84E"/>
<g style="mix-blend-mode:multiply">
<path d="M229.22 277.66C229.22 277.66 240.99 268.931 237.85 246.021C237.85 246.021 169.66 303.02 54.76 265.29C74.5 278.89 103.55 294.04 145.94 307.59C143.23 313.507 139.285 318.775 134.37 323.04C134.37 323.04 161.61 329.041 196.91 313.931C196.91 313.931 200.5 317.64 197.43 326.34C197.39 326.34 231.79 318.91 229.22 277.66Z" fill="#4CA84E"/>
</g>
<path d="M318.3 214.77C318.3 214.77 347.3 215.9 359.67 163.1C359.67 163.1 350.83 168.58 343.28 170.59C343.28 170.59 361.79 125.83 339.44 92.2796C339.44 92.2796 331.82 104.65 328.72 105.81C328.72 105.81 292.35 -0.890405 167.32 17.0196C275.2 82.4196 318.3 214.77 318.3 214.77Z" fill="#66BE64"/>
<path d="M318.3 214.77C318.3 214.77 275.2 82.42 167.32 17.04C167.32 17.04 150.74 71.69 223.95 182.3C217.389 185.609 210.193 187.464 202.85 187.74C202.85 187.74 222.61 212.2 264.25 223.84C264.25 223.84 264.79 229.63 255.95 235.11C255.91 235.09 291.44 252.85 318.3 214.77Z" fill="#4CA84E"/>
<g style="mix-blend-mode:multiply">
<path d="M318.3 214.77C318.3 214.77 334.8 215.41 348.22 193.05C348.22 193.05 248.02 195.05 173.66 80.7197C181.42 106.62 196.26 140.44 223.95 182.28C217.39 185.588 210.193 187.444 202.85 187.72C202.85 187.72 222.61 212.18 264.25 223.82C264.25 223.82 264.79 229.61 255.95 235.09C255.91 235.09 291.44 252.85 318.3 214.77Z" fill="#4CA84E"/>
</g>
<path d="M464.4 237.04C464.4 237.04 425.91 223.73 392.81 251.88C392.81 251.88 305.24 288.59 341.81 362.27C378.38 435.95 470.33 402.64 480.74 397.47C491.15 392.3 554.66 352.42 528.84 291.34C503.02 230.26 464.4 237.04 464.4 237.04Z" fill="#E9382C"/>
<path d="M459.98 245.94C459.98 245.94 426.24 234.24 397.3 258.94C397.3 258.94 320.62 291.09 352.61 355.59C384.6 420.09 465.14 390.94 474.25 386.42C483.36 381.9 538.98 346.97 516.37 293.49C493.76 240.01 459.98 245.94 459.98 245.94Z" fill="#F1594B"/>
<path d="M520.19 331.82C403.91 367.7 358.48 320.36 348.08 306.44C343.2 319.93 343.08 336.3 352.61 355.54C384.61 420.05 465.14 390.89 474.25 386.37C480.91 383.04 512.77 363.3 520.19 331.82Z" fill="#E9382C"/>
<path d="M333.07 322.29C332.07 334.12 334.42 347.45 341.77 362.29C378.31 435.96 470.29 402.66 480.7 397.49C485.37 395.18 500.7 385.87 513.91 370.79C383.6 406.04 344.6 353.04 333.07 322.29Z" fill="#911A1D"/>
<path d="M459.73 296.04C424.82 316.12 403.28 316.3 391.3 312.86C389.81 312.437 388.457 311.629 387.378 310.517C386.299 309.406 385.532 308.03 385.154 306.527C384.776 305.025 384.8 303.45 385.224 301.96C385.648 300.47 386.458 299.118 387.57 298.04L387.81 297.8C389.011 296.647 390.487 295.822 392.098 295.403C393.709 294.985 395.4 294.987 397.01 295.41C404.3 297.26 420.62 297.41 450.79 280.05C451.853 279.435 453.028 279.041 454.246 278.891C455.464 278.74 456.7 278.836 457.881 279.173C459.061 279.509 460.161 280.08 461.117 280.851C462.072 281.622 462.862 282.577 463.44 283.66C464.542 285.803 464.771 288.289 464.08 290.597C463.388 292.905 461.829 294.856 459.73 296.04Z" fill="#F16465"/>
<path d="M503.715 281.13C505.106 274.301 498.358 267.16 488.644 265.182C478.93 263.204 469.927 267.137 468.537 273.967C467.146 280.796 473.893 287.937 483.608 289.915C493.322 291.893 502.324 287.96 503.715 281.13Z" fill="#F6FAFE"/>
<path d="M372.704 330.034C374.431 323.584 372.181 317.378 367.678 316.173C363.175 314.967 358.125 319.218 356.398 325.668C354.671 332.118 356.921 338.324 361.424 339.53C365.926 340.735 370.977 336.484 372.704 330.034Z" fill="#F6FAFE"/>
<g style="mix-blend-mode:multiply" opacity="0.78">
<path d="M500.71 250.19C497.419 249.651 494.056 249.722 490.79 250.4C471.39 254.51 442.1 270.7 442.1 270.7C442.1 270.7 460.99 242.76 466.57 239.55C468.408 238.597 470.313 237.782 472.27 237.11C469.658 236.764 467.012 236.764 464.4 237.11C460.009 235.742 455.488 234.831 450.91 234.39C431.44 247.73 419.91 275.97 419.91 275.97C419.91 275.97 403.18 263.44 391.66 265.34C381.57 267.04 354.91 280.44 354.91 280.44C377.91 274.55 386.7 274.44 386.7 274.44L402.91 282.32C398.884 284.757 394.639 286.813 390.23 288.46C385.69 290.12 380.07 299.39 364.31 306.9C351.22 313.14 335.69 314.06 335.69 314.06C335.69 314.06 353.52 325.06 369.31 317.83C386.31 310.08 402.37 297.44 402.37 297.44C402.37 297.44 408.37 296.25 424.81 298.17C441.25 300.09 460.81 320.55 460.81 320.55C462.6 311 440.44 285.09 440.44 285.09C440.44 285.09 485.54 264.97 494.32 261.02C498.16 259.29 505 260.02 511.48 261.36C508.256 257.3 504.649 253.56 500.71 250.19Z" fill="#911A1D"/>
</g>
<path d="M418.12 270.68C418.12 270.68 438.07 221.98 469.66 222.27C469.66 222.27 485.5 221.87 492.11 225.13C492.11 225.13 470.38 231.06 464.8 234.26C459.22 237.46 440.33 265.4 440.33 265.4C440.33 265.4 469.62 249.22 489.02 245.11C508.42 241 525.75 260.59 525.75 260.59C525.75 260.59 501.34 251.78 492.57 255.73C483.8 259.68 438.69 279.8 438.69 279.8C438.69 279.8 460.85 305.71 459.06 315.26C459.06 315.26 439.46 294.81 423.06 292.88C406.66 290.95 400.62 292.15 400.62 292.15C400.62 292.15 384.55 304.79 367.56 312.54C351.77 319.74 333.95 308.77 333.95 308.77C333.95 308.77 349.47 307.85 362.56 301.61C378.32 294.09 383.94 284.82 388.48 283.17C392.882 281.525 397.12 279.473 401.14 277.04L384.91 269.14C384.91 269.14 376.08 269.25 353.12 275.14C353.12 275.14 379.81 261.7 389.87 260.04C401.38 258.15 418.12 270.68 418.12 270.68Z" fill="#4CA84E"/>
<g style="mix-blend-mode:multiply">
<path d="M435.51 267.1C436.45 269.91 430.78 276.53 422.05 279.46C413.32 282.39 404.8 280.46 403.86 277.68C402.92 274.9 409.24 270.22 417.98 267.3C426.72 264.38 434.57 264.29 435.51 267.1Z" fill="#4CA84E"/>
</g>
<g style="mix-blend-mode:multiply">
<path d="M405.74 279.49C408.89 281.12 415.4 281.68 422.05 279.49C428.7 277.3 433.55 272.9 435.05 269.71C432.05 268.62 425.96 269.2 419.31 271.42C412.66 273.64 407.46 276.84 405.74 279.49Z" fill="#4CA84E"/>
</g>
<path d="M415.7 278.04C412.824 269.19 411.232 259.973 410.97 250.67C410.36 230.04 416.79 212.67 429.56 200.44L437.28 208.5C426.77 218.57 421.67 232.5 422.12 250.03C422.34 258.269 423.716 266.435 426.21 274.29L415.7 278.04Z" fill="#4CA84E"/>
<path d="M514.91 310.54C516.54 328.44 509.56 367.96 492.99 366.29C492.99 366.29 477.12 365.58 483.24 353.29C487.31 345.13 485.44 326.38 483.74 314.76C483.352 312.012 483.964 309.217 485.463 306.882C486.963 304.548 489.25 302.829 491.91 302.04L499.19 299.89C500.931 299.373 502.765 299.25 504.56 299.527C506.355 299.805 508.066 300.478 509.569 301.496C511.073 302.515 512.332 303.854 513.255 305.418C514.179 306.982 514.744 308.731 514.91 310.54Z" fill="#F16465"/>
<path d="M506.78 298.27C510.398 298.27 513.33 295.337 513.33 291.72C513.33 288.102 510.398 285.17 506.78 285.17C503.163 285.17 500.23 288.102 500.23 291.72C500.23 295.337 503.163 298.27 506.78 298.27Z" fill="#F6FAFE"/>
<path d="M356.703 296.992C357.882 294.605 357.492 292.006 355.833 291.187C354.174 290.368 351.874 291.639 350.695 294.026C349.517 296.414 349.907 299.012 351.566 299.831C353.225 300.65 355.525 299.379 356.703 296.992Z" fill="#F6FAFE"/>
<path d="M402.11 213.9C402.11 213.9 379.19 217.99 363.56 177.41C363.56 177.41 371.18 180.8 377.4 181.56C377.4 181.56 357.77 148.05 371.83 118.93C371.83 118.93 379.24 127.93 381.83 128.5C381.83 128.5 398.97 39.7498 500.26 40.2098C421.77 104.04 402.11 213.9 402.11 213.9Z" fill="#66BE64"/>
<path d="M402.11 213.9C402.11 213.9 421.77 104.04 500.26 40.21C500.26 40.21 519.44 81.79 473.47 177.71C479.046 179.615 484.967 180.297 490.83 179.71C490.83 179.71 477.83 201.31 446.03 215.14C446.03 215.14 446.24 219.8 453.87 223.14C453.91 223.18 427.63 241.19 402.11 213.9Z" fill="#4CA84E"/>
<g style="mix-blend-mode:multiply">
<path d="M402.11 213.9C402.11 213.9 389.06 216.22 375.94 199.9C375.94 199.9 455.75 190.44 502.23 91.4697C498.92 112.89 490.86 141.39 473.47 177.67C479.046 179.574 484.967 180.256 490.83 179.67C490.83 179.67 477.83 201.27 446.03 215.1C446.03 215.1 446.24 219.76 453.87 223.1C453.91 223.18 427.63 241.19 402.11 213.9Z" fill="#4CA84E"/>
</g>
<path d="M727.114 353.549C730.692 347.35 726.32 338.126 717.347 332.945C708.374 327.765 698.199 328.59 694.62 334.789C691.042 340.988 695.414 350.212 704.387 355.393C713.36 360.573 723.535 359.748 727.114 353.549Z" fill="#F6FAFE"/>
<path d="M254.627 49.5988C258.205 43.4001 253.833 34.1756 244.86 28.9951C235.887 23.8147 225.712 24.6401 222.133 30.8388C218.555 37.0375 222.927 46.2621 231.9 51.4425C240.873 56.6229 251.048 55.7975 254.627 49.5988Z" fill="#F6FAFE"/>
<path d="M493.044 95.6538C498.225 86.6811 497.399 76.506 491.201 72.9272C485.002 69.3484 475.777 73.7211 470.597 82.6938C465.417 91.6666 466.242 101.842 472.441 105.42C478.639 108.999 487.864 104.627 493.044 95.6538Z" fill="#F6FAFE"/>
<path d="M746.993 514.988C752.372 510.265 751.191 500.126 744.356 492.339C737.52 484.553 727.619 482.069 722.24 486.792C716.861 491.514 718.042 501.654 724.877 509.44C731.713 517.226 741.614 519.71 746.993 514.988Z" fill="#F6FAFE"/>
<path d="M704.01 382.64C708.484 382.64 712.11 379.014 712.11 374.54C712.11 370.067 708.484 366.44 704.01 366.44C699.537 366.44 695.91 370.067 695.91 374.54C695.91 379.014 699.537 382.64 704.01 382.64Z" fill="#F6FAFE"/>
<path d="M482.8 131.04C487.274 131.04 490.9 127.413 490.9 122.94C490.9 118.466 487.274 114.84 482.8 114.84C478.327 114.84 474.7 118.466 474.7 122.94C474.7 127.413 478.327 131.04 482.8 131.04Z" fill="#F6FAFE"/>
<path d="M271.26 60.7098C275.734 60.7098 279.36 57.0833 279.36 52.6098C279.36 48.1363 275.734 44.5098 271.26 44.5098C266.787 44.5098 263.16 48.1363 263.16 52.6098C263.16 57.0833 266.787 60.7098 271.26 60.7098Z" fill="#F6FAFE"/>
</g>
<defs>
<clipPath id="clip0_4809_1841">
<rect width="799.22" height="970.49" fill="white"/>
</clipPath>
</defs>
</svg>
