<svg width="909" height="925" viewBox="0 0 909 925" fill="none" xmlns="http://www.w3.org/2000/svg">
<g clip-path="url(#clip0_6276_689)">
<path d="M524.565 873.618C708.923 873.618 858.375 861.857 858.375 847.35C858.375 832.843 708.923 821.082 524.565 821.082C340.207 821.082 190.755 832.843 190.755 847.35C190.755 861.857 340.207 873.618 524.565 873.618Z" fill="#C5CACB"/>
<path d="M670.331 924.992C669.269 924.992 668.271 924.938 667.183 924.857H666.666C665.702 924.776 664.695 924.667 663.687 924.523L663.09 924.442C662.198 924.298 661.155 924.126 660.2 923.936L659.808 923.855C658.702 923.621 657.712 923.386 656.758 923.124L656.491 923.052C655.599 922.809 654.618 922.52 653.646 922.204L653.37 922.114C652.424 921.798 651.506 921.464 650.516 921.085L649.981 920.877C649.089 920.544 648.197 920.156 647.306 919.758L646.771 919.515C645.879 919.109 644.987 918.685 644.175 918.252L643.685 917.99C642.793 917.503 641.902 917.087 641.099 916.573L640.716 916.348C639.913 915.878 639.11 915.382 638.317 914.877L637.969 914.66C637.166 914.137 636.364 913.595 635.57 913.036L635.035 912.666C634.259 912.115 633.519 911.565 632.788 910.997L632.146 910.5C631.432 909.95 630.728 909.381 630.032 908.804L629.346 908.217C628.695 907.667 628.008 907.071 627.33 906.413L626.733 905.862C626.126 905.303 625.547 904.761 624.949 904.202L624.173 903.435C623.638 902.911 623.103 902.361 622.568 901.81L621.882 901.098C621.293 900.475 620.714 899.843 620.143 899.212L619.367 898.309C618.826 897.708 618.291 897.085 617.762 896.441C617.488 896.116 617.212 895.783 616.932 895.44C616.442 894.844 615.943 894.221 615.443 893.59C615.185 893.265 614.623 892.525 614.623 892.525L613.571 891.126L612.376 889.493L611.484 888.239C611.065 887.634 610.654 887.03 610.244 886.434C609.959 886.01 609.674 885.595 609.406 885.171C609.138 884.747 608.737 884.142 608.407 883.61C608.077 883.077 607.712 882.509 607.382 881.967L606.49 880.487L605.875 879.432C605.429 878.656 604.983 877.871 604.546 877.076L604.109 876.282L603.315 874.784L602.522 876.255L602.076 877.086C601.63 877.889 601.184 878.674 600.729 879.459V879.513C600.542 879.847 600.346 880.181 600.15 880.505C599.864 880.984 599.57 881.489 599.258 881.985C598.946 882.482 598.589 883.068 598.25 883.601L597.243 885.18L596.404 886.443L595.165 888.248L594.273 889.502L593.078 891.135L592.044 892.516L591.91 892.687L591.205 893.59C590.718 894.191 590.219 894.814 589.707 895.458L588.887 896.441C588.352 897.082 587.817 897.696 587.282 898.309L586.506 899.212C585.935 899.843 585.364 900.466 584.776 901.08L584.071 901.828C583.545 902.37 583.01 902.902 582.475 903.435L581.699 904.202C581.12 904.761 580.54 905.303 579.969 905.835L579.354 906.394C578.658 907.026 577.981 907.613 577.294 908.199L576.634 908.75C575.93 909.336 575.234 909.905 574.53 910.455L573.87 910.969C573.138 911.52 572.398 912.07 571.649 912.603L571.096 912.991C570.312 913.541 569.518 914.083 568.715 914.606L568.359 914.832C567.565 915.337 566.762 915.824 565.969 916.293L565.55 916.537C564.774 916.988 563.927 917.439 563.008 917.936L562.527 918.188C561.635 918.649 560.743 919.091 559.905 919.461L559.379 919.704C558.487 920.12 557.595 920.499 556.703 920.85L556.258 921.013C555.205 921.428 554.287 921.753 553.395 922.051L553.021 922.177C552.129 922.475 551.112 922.772 550.158 923.025L549.98 923.079C549.008 923.341 548.027 923.576 546.948 923.801L546.457 923.9C545.565 924.081 544.567 924.252 543.55 924.406L543.06 924.478C542.025 924.622 541.018 924.731 540.045 924.812H539.591C538.476 924.893 537.468 924.947 536.478 924.956H535.524C534.633 924.956 533.741 924.956 532.849 924.884C524.265 924.578 515.824 922.57 508.005 918.973C506.453 918.224 504.928 917.403 503.466 916.51C498.604 913.552 494.289 909.76 490.714 905.303C488.827 902.94 487.147 900.416 485.693 897.759C485.265 896.974 484.846 896.162 484.382 895.178C476.669 879.143 477.097 860.888 478.461 849.59L477.935 850.033L476.793 850.935L476.49 851.169C476.089 851.485 475.661 851.801 475.233 852.117L475.019 852.279C474.555 852.613 474.127 852.938 473.619 853.254C473.539 853.313 473.456 853.368 473.369 853.416C472.914 853.723 472.379 854.066 471.844 854.4L471.594 854.544C471.315 854.725 471.018 854.896 470.703 855.059L470.007 855.447L469.864 855.6L469.035 856.051C467.805 856.692 466.547 857.269 465.29 857.775C464.63 858.045 463.97 858.289 463.292 858.524C459.159 859.956 454.82 860.687 450.451 860.689C437.003 860.689 423.324 853.822 409.805 840.278C409.707 840.188 407.344 838.049 395.537 838.049C388.403 838.049 380.083 838.78 371.237 839.565C361.293 840.467 351.012 841.37 341.015 841.37C325.374 841.37 313.799 839.105 304.596 834.232C291.906 827.5 284.273 815.788 282.534 800.348C282.534 800.348 282.534 800.258 282.534 800.213C282.436 799.31 282.373 798.408 282.329 797.316C282.329 797.054 282.329 796.766 282.329 796.477C282.329 795.575 282.329 794.672 282.329 793.842C282.329 793.517 282.329 793.201 282.391 792.895V792.768C282.445 792.118 282.507 791.469 282.587 790.828C282.641 790.404 282.703 789.926 282.784 789.456C282.864 788.987 282.935 788.554 283.033 788.148C283.203 787.246 283.426 786.343 283.684 785.441C283.684 785.441 283.827 784.9 283.889 784.71C286.154 777.148 290.729 770.417 297.551 764.587C290.934 759.778 284.665 751.521 280.162 737.787C276.158 725.569 277.79 716.78 280.411 711.059C272.386 700.745 270.486 686.027 269.47 678.077C268.965 674.401 268.843 670.68 269.104 666.978C250.493 662.385 238.9 657.675 232.123 652.044C231.757 651.746 231.41 651.439 231.053 651.141C229.014 651.392 226.963 651.522 224.909 651.529C217.846 651.529 212.139 649.725 207.965 646.115C207.463 645.69 206.993 645.229 206.556 644.735C204.539 642.424 203.118 639.645 202.421 636.643C201.724 633.642 201.772 630.513 202.561 627.535C203.404 624.523 204.99 621.778 207.172 619.558C202.356 615.949 199.324 611.934 197.871 607.25C197.678 606.618 197.529 605.973 197.425 605.319C197.01 602.77 197.131 600.16 197.779 597.661C198.427 595.162 199.588 592.829 201.187 590.814C202.785 588.799 204.785 587.147 207.056 585.966C209.327 584.786 211.819 584.102 214.368 583.96C214.31 583.059 214.31 582.154 214.368 581.253C214.402 580.595 214.486 579.94 214.618 579.295C215.423 575.131 217.636 571.38 220.875 568.687C224.115 565.993 228.18 564.524 232.373 564.532C237.322 564.532 242.28 566.409 247.533 570.28L249.191 571.507C251.866 566.391 255.309 562.845 259.5 560.742C260.076 560.449 260.672 560.199 261.283 559.993C263.132 559.4 265.06 559.096 267 559.091C269.535 559.064 272.046 559.587 274.366 560.624C276.685 561.66 278.759 563.187 280.447 565.101C283.187 568.291 284.879 572.264 285.289 576.47C287.007 576.976 288.746 577.508 290.506 578.068C291.408 572.18 293.438 566.528 296.481 561.428C295.812 560.823 295.152 560.228 294.483 559.623C290.56 556.212 286.805 553.46 282.454 550.275L282.133 550.04C278.619 550.482 274.999 550.861 271.432 551.195C260.882 552.161 250.252 552.648 239.837 552.648C228.101 552.738 216.373 551.972 204.746 550.356C178.93 546.521 159.187 539.69 146.122 530.062C145.525 529.619 144.963 529.159 144.428 528.762C143.893 528.365 143.358 527.86 142.867 527.472C141.516 526.321 140.23 525.095 139.015 523.799C138.649 523.411 138.302 523.023 137.981 522.653C137.829 522.473 137.668 522.292 137.517 522.103C137.205 521.724 136.919 521.372 136.625 521.038C135.491 519.592 134.508 518.032 133.691 516.382C133.061 515.179 132.446 513.975 131.845 512.772C130.838 510.76 129.83 508.666 128.751 506.374C127.957 504.696 127.181 503.018 126.441 501.357C124.774 497.63 123.195 493.868 121.742 490.177C120.797 487.768 119.869 485.304 118.995 482.85C118.121 480.395 117.31 478.031 116.534 475.631C116.15 474.431 115.776 473.239 115.419 472.021C113.636 466.192 112.12 460.29 110.88 454.542C110.417 452.395 109.988 450.229 109.605 448.108C71.6163 469.17 45.3898 481.117 27.5548 481.117C12.8319 481.117 6.20619 472.996 3.5666 468.078C-3.03237 455.896 -0.517627 437.054 11.0573 412.068C20.6883 391.313 36.1067 367.852 54.8246 345.365L54.6284 344.688C54.4233 344.002 54.2093 343.262 53.9953 342.513L53.7456 341.611C53.5583 340.97 53.371 340.293 53.1838 339.608L52.9162 338.633L52.3812 336.657L51.6321 333.715L50.8741 330.71C50.8741 330.71 50.3034 328.364 50.134 327.687C50.134 327.687 49.5722 325.305 49.4117 324.61L49.1976 323.708L48.5199 320.721L47.8511 317.635C47.6727 316.814 47.2625 314.928 47.2625 314.928V314.711C47.0574 313.701 46.8523 312.717 46.6472 311.733V311.652C45.4612 305.85 44.3108 299.669 43.205 293.28C42.5452 289.445 41.8853 285.475 41.261 281.459L40.9132 279.239C38.9692 266.606 37.6227 255.922 36.8379 249.19C36.8379 249.19 36.3029 244.462 36.3029 244.435C36.1691 243.235 36.0978 242.576 36.0978 242.576C35.7941 239.598 36.4747 236.602 38.0329 234.058C38.0329 234.058 39.3259 231.982 39.3259 231.973L41.4483 228.67L43.0624 226.225C54.7622 208.584 78.5631 175.81 106.52 154.306L106.644 154.207L108.374 152.899L108.517 152.799C113.066 149.387 117.832 146.282 122.785 143.505C161.799 121.848 222.456 120.17 240.122 120.17H242.476H243.306C244.515 120.193 245.715 120.384 246.873 120.738C247.631 120.964 248.389 121.216 249.156 121.487L249.806 121.722C250.386 121.929 250.984 122.155 251.59 122.398L252.107 122.597C252.803 122.877 253.534 123.193 254.274 123.499L254.8 123.743C255.362 123.996 255.924 124.266 256.495 124.546L257.128 124.853C257.823 125.205 258.537 125.566 259.25 125.954L259.544 126.116C260.124 126.432 260.748 126.775 261.373 127.136L262.015 127.506L263.638 128.48L264.173 128.805C264.833 129.22 265.492 129.635 266.143 130.069L266.83 130.52L268.248 131.476L268.97 131.973C269.594 132.406 270.228 132.875 270.861 133.317L271.494 133.777C271.949 134.111 272.386 134.454 272.867 134.806L273.759 135.447L275.007 136.412L275.855 137.089C276.399 137.522 276.951 137.991 277.495 138.416L278.387 139.155L279.627 140.202L280.367 140.834L281.687 141.98L283.015 143.153L283.907 143.929L284.959 144.886L285.708 145.58C286.386 146.212 287.064 146.844 287.733 147.484L288.303 148.035L289.481 149.172L290.033 149.704C291.353 151.013 292.709 152.339 293.975 153.675L294.305 153.999L295.66 155.416L295.794 155.552C296.686 156.526 297.578 157.483 298.469 158.448L298.55 158.529C308.41 169.324 317.671 180.663 326.292 192.494C341.838 190.123 357.517 188.754 373.234 188.398C391.069 177.335 412.195 166.985 434.979 158.177L435.282 156.761C435.461 155.931 435.639 155.1 435.826 154.261L436.549 151.049C436.549 151.049 437.146 148.522 437.324 147.791L438.136 144.516L438.412 143.406C438.608 142.666 439.304 140.13 439.304 140.13C439.5 139.381 440.196 136.872 440.196 136.872L441.088 133.579L441.979 130.294L442.8 127.461C442.8 127.461 443.888 123.779 443.897 123.761C446.064 116.542 448.525 108.845 451.209 100.931V100.841C452.582 96.7983 454.027 92.6294 455.507 88.4694L456.354 86.1143C457.335 83.3711 458.295 80.7301 459.235 78.1915L459.993 76.1702C461.865 71.1259 463.792 66.0726 465.727 61.1367C466.618 58.8447 467.43 56.8234 468.117 55.0998L470.043 50.3444L470.087 50.2361C470.631 48.9096 470.917 48.2328 470.917 48.2328C472.068 45.4996 474.072 43.2236 476.624 41.7538L480.191 39.7957L482.411 38.5955L484.605 37.4315L486.808 36.2494C507.149 25.7187 546.823 7.23821 584.437 1.6345H584.535L586.925 1.2916H586.978C593.058 0.452331 599.186 0.0182582 605.322 -0.0078125H605.411C656.945 0.064377 720.126 34.571 732.263 41.5011L733.315 42.1057C734.359 42.7215 735.319 43.4739 736.169 44.3436C736.766 44.9662 737.364 45.6069 737.952 46.2657L738.416 46.7981C738.88 47.3305 739.308 47.8538 739.771 48.3952L740.119 48.8284C740.672 49.5142 741.207 50.191 741.724 50.8858L742.09 51.3731C742.518 51.9506 742.919 52.51 743.312 53.0695L743.749 53.7012C744.23 54.396 744.721 55.1179 745.193 55.8488L745.398 56.1737C745.791 56.7873 746.201 57.446 746.602 58.1047L747.03 58.8266C747.387 59.4222 747.735 60.0087 748.074 60.6314L748.422 61.236C748.823 61.9578 749.233 62.7158 749.643 63.4738L750.062 64.286C750.339 64.8093 750.624 65.3598 750.954 65.9192L751.382 66.8216C751.766 67.5976 752.14 68.3556 752.506 69.1317L752.871 69.9167C753.121 70.4672 753.389 71.0357 753.638 71.6042L754.12 72.678L754.798 74.2481C754.958 74.6361 755.119 75.0061 755.288 75.3941C755.585 76.098 755.883 76.8018 756.18 77.5057C756.34 77.8937 756.501 78.3088 756.67 78.7239L757.196 80.0774L757.678 81.3588C757.892 81.9273 758.115 82.5228 758.329 83.1635C758.543 83.8042 758.793 84.4268 759.016 85.0675L759.426 86.2316C759.595 86.7188 759.773 87.2242 759.943 87.7295L760.291 88.7672C760.621 89.7598 760.942 90.7434 761.263 91.736L761.512 92.5391C761.691 93.0986 762.163 94.6236 762.163 94.6236L762.306 95.1018C762.877 96.9697 763.456 98.964 764.018 101.003C764.018 101.003 764.544 102.889 764.723 103.557C764.726 103.605 764.726 103.653 764.723 103.701C765.133 105.208 765.516 106.67 765.882 108.141C769.832 124.128 772.89 140.327 775.04 156.661C825.603 175.611 867.274 201.563 884.895 225.341L885.181 225.729C885.734 226.487 886.251 227.236 886.75 227.976L887.169 228.607C887.597 229.275 887.99 229.898 888.364 230.52C888.534 230.8 888.721 231.116 888.899 231.423C889.078 231.729 889.336 232.19 889.542 232.578C889.747 232.966 890.121 233.679 890.433 234.247C890.585 234.554 890.719 234.843 890.843 235.149L890.897 235.258C891.156 235.835 891.414 236.413 891.646 236.981C891.762 237.279 891.878 237.577 891.985 237.884C892.208 238.47 892.422 239.075 892.618 239.688C892.614 239.73 892.614 239.773 892.618 239.815C892.663 239.941 892.716 240.122 892.77 240.302C893.001 241.069 893.198 241.827 893.385 242.648C893.385 242.648 893.492 243.135 893.528 243.334C893.688 244.11 893.822 244.967 893.92 245.788C893.92 245.833 893.973 246.321 893.973 246.321C894.069 247.244 894.117 248.172 894.116 249.1C894.112 250.026 894.058 250.951 893.956 251.87C893.956 252.15 893.902 252.349 893.875 252.556C893.754 253.468 893.582 254.372 893.358 255.263C893.358 255.417 893.269 255.615 893.216 255.787C893.019 256.509 892.779 257.257 892.502 257.997C892.422 258.223 892.351 258.394 892.288 258.557C891.914 259.459 891.539 260.28 891.129 261.056C891.004 261.282 890.888 261.49 890.763 261.697C890.442 262.266 890.059 262.87 889.657 263.457C889.533 263.646 889.399 263.845 889.256 264.043C888.775 264.702 888.257 265.343 887.722 265.965L887.205 266.534C886.75 267.021 886.313 267.436 885.859 267.905C885.68 268.086 885.511 268.239 885.341 268.402C884.779 268.907 884.227 269.376 883.558 269.882C883.308 270.08 883.049 270.27 882.8 270.45C882.354 270.784 881.908 271.118 881.409 271.434C881.132 271.623 880.811 271.84 880.517 272.047C880.026 272.354 879.536 272.652 879.028 272.95C878.742 273.121 878.412 273.302 878.082 273.473L876.754 274.168C876.29 274.402 875.808 274.628 875.318 274.854C874.97 275.016 874.596 275.188 874.212 275.35C873.829 275.512 873.41 275.702 873.008 275.864C872.607 276.027 872.241 276.162 871.822 276.325C871.216 276.559 870.583 276.794 869.932 277.019L869.04 277.317C867.533 277.822 865.928 278.301 864.26 278.743L863.654 278.905C861.87 279.366 860.087 279.808 858.259 280.169L857.92 280.241C845.935 282.704 830.525 284.157 809.328 284.753C817.541 306.41 821.313 329.934 820.547 354.93C820.493 356.5 820.422 358.097 820.324 359.794C820.324 360.137 820.226 361.319 820.226 361.319C820.154 362.429 820.083 363.52 819.994 364.594C819.994 365.072 819.904 365.587 819.851 366.11V366.39C819.762 367.365 819.664 368.348 819.557 369.314C819.494 369.918 819.414 370.55 819.343 371.173C819.227 372.075 819.102 373.04 818.968 373.979C818.924 374.349 818.87 374.719 818.817 375.08C830.409 364.784 842.047 362.104 850.982 362.104C859.684 362.195 868.216 364.554 875.755 368.953C876.272 369.25 876.789 369.548 877.298 369.855L877.431 369.936C877.94 370.243 878.421 370.55 878.894 370.839L879.144 371.001L880.49 371.903L880.776 372.102L882.078 373.004L882.247 373.131C882.746 373.492 883.192 373.835 883.629 374.168L883.745 374.268C884.209 374.62 884.637 374.971 885.074 375.323L885.208 375.432C887.966 377.707 890.556 380.183 892.957 382.84L893.153 383.057L894.098 384.131L894.401 384.491C894.678 384.807 894.963 385.15 895.24 385.493L895.579 385.899L896.372 386.901L896.711 387.334L897.469 388.327L897.808 388.796L898.548 389.815L898.932 390.366L899.574 391.268L899.877 391.719C900.118 392.089 900.332 392.414 900.537 392.748L900.751 393.082C901.5 394.282 902.187 395.464 902.829 396.628L903.159 397.233L903.542 397.973L903.979 398.875L904.371 399.678L904.737 400.445L905.076 401.203C905.219 401.546 905.343 401.808 905.45 402.106C905.557 402.404 905.656 402.584 905.763 402.846L906.119 403.748L906.387 404.452L906.708 405.354C906.779 405.562 906.868 405.814 906.949 406.067C907.029 406.32 907.154 406.717 907.252 407.015L907.475 407.764C907.555 408.034 907.635 408.341 907.724 408.666L907.921 409.415C908.001 409.749 908.081 410.119 908.161 410.48L908.295 411.075C908.393 411.572 908.491 412.077 908.571 412.582V412.754C909.561 418.998 908.794 426.506 906.298 435.051C905.477 437.867 904.452 440.817 903.266 443.822C890.638 475.667 855.352 521.426 796.442 550.049C796.692 551.069 796.933 552.097 797.174 553.126L797.521 554.678C797.851 556.131 798.164 557.593 798.467 559.055L798.609 559.777C798.904 561.238 799.18 562.7 799.448 564.171C799.537 564.64 799.626 565.146 799.715 565.66C799.947 566.977 800.17 568.304 800.384 569.63L800.544 570.596C800.794 572.184 801.017 573.781 801.24 575.388L801.427 576.786C801.597 578.095 801.757 579.385 801.9 580.693L802.043 581.903C802.221 583.536 802.39 585.169 802.533 586.802L802.64 588.03C802.756 589.356 802.863 590.692 802.952 592.027L803.05 593.408C803.157 595.05 803.247 596.72 803.327 598.389V599.228C803.389 600.699 803.434 602.134 803.469 603.578C803.469 604.047 803.469 604.543 803.469 605.03C803.469 606.691 803.523 608.36 803.523 610.029V610.156C803.523 612.177 803.523 614.235 803.434 616.472C803.434 616.906 803.434 617.375 803.434 617.835V618.394C803.389 619.919 803.327 621.453 803.246 622.987C803.246 623.556 803.193 624.143 803.157 624.729V624.982C803.068 626.552 802.961 628.113 802.845 629.665C802.845 629.665 802.756 630.865 802.711 631.334C802.56 633.139 802.39 635.043 802.194 636.893L802.123 637.597C801.169 646.413 799.758 655.172 797.896 663.838C797.218 666.978 796.481 670.094 795.684 673.186C805.137 680.838 812.967 690.792 819.039 702.883C820.584 705.951 821.939 709.112 823.097 712.349C823.122 712.408 823.143 712.468 823.159 712.53C823.596 713.739 823.998 714.993 824.381 716.265L824.435 716.446C824.765 717.565 825.086 718.774 825.389 720.001C825.389 720.001 825.442 720.218 825.451 720.272C825.728 721.427 825.977 722.636 826.209 723.881V724.143C826.423 725.28 826.602 726.48 826.762 727.689C826.762 727.78 826.762 727.897 826.807 728.014C826.94 729.151 827.056 730.306 827.137 731.452V731.741C827.217 732.905 827.27 734.06 827.288 735.215V735.504C827.288 736.686 827.288 737.823 827.288 738.951V739.195C827.244 740.323 827.172 741.45 827.065 742.569V742.912C826.958 744.04 826.833 745.15 826.682 746.215L826.619 746.612C826.477 747.614 826.289 748.706 826.084 749.779C826.084 749.833 826.022 750.077 826.022 750.077C825.799 751.214 825.558 752.288 825.3 753.326L825.228 753.632C824.952 754.715 824.666 755.78 824.336 756.8L824.238 757.134C823.944 758.09 823.605 759.137 823.249 760.175L823.159 760.436C822.794 761.474 822.41 762.503 822.009 763.513L821.911 763.757C821.501 764.777 821.073 765.796 820.627 766.78C820.627 766.834 820.555 766.942 820.529 767.006C820.083 767.989 819.637 768.991 819.129 769.974C819.129 770.019 819.075 770.083 819.039 770.137C818.549 771.129 818.032 772.122 817.497 773.097C817.47 773.153 817.441 773.207 817.408 773.259C814.637 778.287 811.477 783.085 807.955 787.607V787.661C807.277 788.563 806.591 789.384 805.895 790.242L805.779 790.386C805.083 791.234 804.37 792.073 803.657 792.913L803.532 793.057C802.827 793.878 802.105 794.69 801.374 795.502L801.222 795.665C800.5 796.459 799.778 797.244 799.037 798.029L798.886 798.182C798.128 798.976 797.397 799.743 796.648 800.492L796.442 800.709C795.702 801.449 794.962 802.189 794.204 802.92L794.035 803.082C793.232 803.858 792.483 804.58 791.725 805.284L791.529 805.474C790.735 806.214 789.968 806.908 789.193 807.612L788.996 807.793C788.194 808.505 787.427 809.191 786.651 809.859L786.428 810.058L784.056 812.088L783.815 812.286C783.039 812.945 782.246 813.604 781.452 814.245L781.193 814.461C780.435 815.084 779.633 815.724 778.83 816.356L778.598 816.537C777.805 817.177 777.002 817.8 776.191 818.422L776.012 818.558L773.569 820.417L773.373 820.561C772.57 821.166 771.776 821.752 770.974 822.366L770.724 822.546L768.299 824.297L768.183 824.387C767.291 824.992 766.515 825.569 765.704 826.129L765.588 826.21C762.369 828.457 758.971 830.722 755.457 832.987C754.655 833.51 753.852 834.015 753.059 834.521L752.961 834.584L750.642 836.037L750.553 836.091L748.243 837.553L745.764 839.069L743.472 840.44L741.207 841.785L739.121 842.967L736.971 844.221L735.036 845.34L733.208 846.387L728.179 849.284C729.962 864.362 730.283 892.706 711.235 910.509C709.028 912.562 706.64 914.408 704.101 916.023C701.62 917.599 699.013 918.963 696.307 920.101C694.676 920.787 692.954 921.419 691.207 921.96C689.459 922.502 687.64 922.989 685.776 923.386C683.912 923.783 681.959 924.126 679.997 924.379C678.035 924.631 675.967 924.821 673.88 924.929C672.988 924.974 672.096 925.001 671.205 925.001L670.331 924.992ZM402.724 504.371C410.113 504.283 417.417 505.959 424.046 509.262C424.641 507.926 425.235 506.606 425.83 505.301C433.021 489.692 441.933 474.956 452.395 461.373C442.787 454.742 434.034 446.925 426.338 438.101C417.491 454.212 407.476 469.636 396.375 484.248V484.79C396.848 490.204 397.267 494.833 398.159 499.968C398.42 501.472 398.717 502.975 399.05 504.479C400.308 504.407 401.529 504.371 402.724 504.371ZM402.305 285.475C402.974 286.097 403.634 286.729 404.294 287.361C404.677 286.242 405.061 285.132 405.462 284.031H404.82L402.305 285.475Z" fill="#19181C"/>
<path d="M487.363 783.547C544.249 750.847 562.057 673.915 527.138 611.716C492.22 549.516 417.798 525.602 360.912 558.303C304.026 591.003 286.218 667.934 321.137 730.134C356.055 792.333 430.478 816.247 487.363 783.547Z" fill="#7D5A53"/>
<path d="M547.724 641.738C556.57 633.689 559.236 622.283 546.832 604.317C533.901 585.638 521.497 597.477 521.497 597.477C527.525 587.551 523.521 577.625 507.514 561.969C491.507 546.313 484.739 558.45 484.739 558.45C486.103 546.466 478.55 538.598 458.129 530.63C439.884 523.501 437.797 543.01 437.556 547.251C437.556 544.012 436.424 531.424 419.017 521.823C398.863 510.715 372.94 526.623 372.94 526.623L356.193 540.854L334.951 545.943C334.951 545.943 306.87 557.502 303.659 580.495C300.886 600.347 310.178 608.793 312.764 610.724C309.251 608.378 292.53 598.434 287.305 617.501C281.455 638.851 283.167 649.67 293.485 655.716C293.485 655.716 279.814 653.966 282.685 676.317C285.557 698.669 291.014 707.801 302.509 708.857C302.509 708.857 285.717 711.853 292.816 733.509C299.638 754.336 310.267 758.974 321.932 756.592C319.488 757.323 314.69 759.651 314.797 766.68C314.904 776.11 318.177 785.63 346.232 796.838C411.544 823.015 474.404 778.898 474.404 778.898C474.404 778.898 549.997 757.242 565.157 685.485C571.453 655.635 567.405 647.685 559.994 641.964C554.465 637.705 549.757 640.204 547.724 641.738Z" fill="#7D5A53"/>
<path d="M474.404 778.899C474.404 778.899 549.998 757.242 565.158 685.485C571.463 655.635 567.405 647.685 559.995 641.964C554.466 637.705 549.757 640.159 547.724 641.757C556.57 633.707 559.237 622.301 546.833 604.335C533.902 585.656 521.498 597.495 521.498 597.495C527.526 587.569 523.522 577.643 507.515 561.987C491.508 546.331 484.74 558.468 484.74 558.468C485.157 555.625 484.889 552.722 483.957 550.006C483.025 547.291 481.458 544.844 479.389 542.875C478.613 577.228 461.554 668.566 316.519 760.346C315.29 762.21 314.687 764.424 314.798 766.662C314.905 776.092 318.178 785.612 346.233 796.82C411.545 823.015 474.404 778.899 474.404 778.899Z" fill="#70453F"/>
<path d="M480.643 779.032C534.173 748.524 551.156 676.343 518.577 617.81C485.998 559.277 416.194 536.558 362.664 567.066C309.135 597.573 292.151 669.755 324.73 728.288C357.309 786.821 427.114 809.54 480.643 779.032Z" fill="#3C2415"/>
<path d="M482.205 774.359C534.449 744.327 550.803 673.672 518.733 616.547C486.663 559.421 418.313 537.458 366.069 567.49C313.826 597.522 297.471 668.176 329.541 725.302C361.611 782.427 429.961 804.39 482.205 774.359Z" fill="#F5E099"/>
<path d="M426.481 558.594C454.277 567.049 480.798 584.537 496.038 611.743C528.141 668.872 502.405 744.888 459.476 769.55C442.89 779.088 421.131 782.444 398.766 779.692C428.434 788.905 459.931 787.191 482.118 774.44C525.029 749.779 550.729 673.754 518.68 616.625C499.293 582.055 461.75 563.169 426.481 558.594Z" fill="#F0CC6D"/>
<path d="M263.103 516.4C297.551 550.834 304.034 536.721 346.25 606.077C346.25 606.077 354.07 617.149 385.282 599.21C416.493 581.271 411.143 568.8 411.143 568.8C373.903 496.611 389.205 498.181 377.613 450.59L320.38 483.481L263.103 516.4Z" fill="#49BEA2"/>
<path d="M385.023 502.302C382.348 486.827 383.605 475.385 377.568 450.605L320.335 483.497L263.103 516.397C281.062 534.354 291.425 539.11 303.231 549.379C321.067 546.239 337.573 541.411 349.299 534.67C361.026 527.929 373.323 516.163 385.023 502.302Z" fill="#3D9480"/>
<path d="M377.568 450.605C368.933 457.557 359.947 464.051 350.646 470.061C341.425 476.106 332.041 481.867 322.493 487.341C312.946 492.815 303.252 498.025 293.413 502.97C283.544 507.975 273.424 512.457 263.094 516.397C271.727 509.436 280.713 502.937 290.016 496.924C299.237 490.908 308.621 485.154 318.168 479.662C327.716 474.169 337.412 468.963 347.257 464.042C357.127 459.041 367.244 454.556 377.568 450.605Z" fill="#231F20"/>
<path d="M340.917 519.765C308.921 538.155 241.719 542.324 206.726 536.991C153.489 529.077 145.686 510.344 145.686 510.344C63.9478 352.511 203.454 274.826 203.454 274.826C203.454 274.826 340.784 193.36 432.92 345.21C432.92 345.21 445.056 363.438 424.27 411.904C410.171 444.805 372.914 501.374 340.917 519.765Z" fill="#49BEA2"/>
<path opacity="0.49" d="M386.103 289.11C300.494 217.327 203.454 274.853 203.454 274.853C203.454 274.853 63.9478 352.511 145.686 510.371C145.686 510.371 153.489 529.104 206.726 537.018C241.719 542.324 308.921 538.182 340.917 519.792C345.314 517.22 349.491 514.28 353.402 511.003C227.513 505.968 185.752 404.325 185.752 404.325L386.103 289.11Z" fill="#3D9480"/>
<path d="M182.721 504.838C182.721 504.838 204.123 503.358 197.675 487.828" stroke="#19181C" stroke-width="5.89" stroke-miterlimit="10" stroke-linecap="round"/>
<path d="M337.244 436.793C337.244 436.793 359.145 477.165 326.694 495.817C294.243 514.469 270.434 476.669 270.434 476.669L315.708 476.236L337.244 436.793Z" fill="#19181C"/>
<path d="M343.075 475.583C338.731 474.06 334.115 473.499 329.538 473.938C324.962 474.376 320.531 475.805 316.547 478.126C312.564 480.447 309.119 483.607 306.446 487.392C303.773 491.177 301.935 495.498 301.056 500.064C308.627 501.869 317.303 501.183 326.694 495.787C336.084 490.391 340.953 483.145 343.075 475.583Z" fill="#F37270"/>
<path d="M386.531 387.676C380.966 412.942 361.062 418.068 344.378 429.401C327.693 440.735 316.546 475.169 312.747 477.344C308.948 479.519 274.01 471.578 255.853 480.277C237.697 488.976 223.135 503.675 198.853 495.554" stroke="#19181C" stroke-width="5.89" stroke-miterlimit="10" stroke-linecap="round"/>
<path d="M402.707 378.383C402.707 378.383 390.49 396.223 380.609 382.669" stroke="#19181C" stroke-width="5.89" stroke-miterlimit="10" stroke-linecap="round"/>
<path d="M311.472 475.07C311.472 475.07 274.767 428.887 267.535 389.074" stroke="#19181C" stroke-width="5.89" stroke-miterlimit="10" stroke-linecap="round"/>
<path d="M282.908 447.593C282.701 447.711 282.479 447.802 282.248 447.863H282.088H282.008H281.704C281.577 447.872 281.449 447.872 281.321 447.863C281.14 447.874 280.958 447.874 280.777 447.863C280.447 447.863 280.171 447.791 279.885 447.737C279.341 447.647 278.842 447.53 278.343 447.412C277.353 447.178 276.407 446.916 275.471 446.636C273.598 446.077 271.761 445.472 269.942 444.831C269.543 444.614 269.229 444.266 269.053 443.843C268.876 443.421 268.847 442.951 268.971 442.509C269.095 442.068 269.364 441.683 269.733 441.418C270.103 441.153 270.551 441.023 271.003 441.051C272.84 441.448 274.686 441.836 276.506 442.16C277.427 442.323 278.319 442.458 279.181 442.567C279.618 442.621 280.073 442.666 280.456 442.684C280.652 442.684 280.848 442.684 280.991 442.684H281.152H281.027H280.866C280.664 442.74 280.469 442.821 280.287 442.927C280.892 442.579 281.609 442.489 282.281 442.676C282.952 442.863 283.523 443.312 283.867 443.925C284.211 444.537 284.301 445.263 284.116 445.943C283.931 446.622 283.487 447.199 282.882 447.548L282.908 447.593Z" fill="#19181C"/>
<path d="M300.432 431.43C300.246 431.527 300.077 431.655 299.932 431.809L299.825 431.926C299.825 431.926 299.754 432.025 299.745 432.025C299.736 432.025 299.745 432.08 299.745 432.025C299.745 431.971 299.799 431.962 299.843 431.89C299.888 431.818 300.013 431.592 300.102 431.412C300.289 431.06 300.476 430.654 300.655 430.248C301.012 429.427 301.359 428.569 301.689 427.694C302.349 425.943 302.964 424.139 303.571 422.334C303.738 421.853 304.079 421.454 304.525 421.218C304.971 420.982 305.489 420.925 305.975 421.06C306.46 421.195 306.877 421.512 307.141 421.946C307.405 422.38 307.496 422.899 307.396 423.399C306.995 425.303 306.567 427.207 306.086 429.12C305.836 430.076 305.577 431.033 305.274 432.016C305.114 432.504 304.962 432.991 304.757 433.523C304.659 433.776 304.552 434.047 304.409 434.345C304.333 434.515 304.247 434.681 304.15 434.841C304.089 434.953 304.02 435.062 303.945 435.166C303.888 435.251 303.825 435.332 303.758 435.409L303.705 435.463L303.589 435.59C303.425 435.765 303.235 435.914 303.027 436.032C302.421 436.38 301.704 436.471 301.033 436.284C300.361 436.097 299.791 435.648 299.446 435.035C299.102 434.422 299.013 433.696 299.198 433.017C299.382 432.337 299.826 431.76 300.432 431.412V431.43Z" fill="#19181C"/>
<path d="M267.084 289.912C268.635 284.213 262.483 277.529 253.343 274.981C244.203 272.433 235.535 274.988 233.984 280.686C232.433 286.384 238.585 293.069 247.726 295.617C256.866 298.164 265.533 295.61 267.084 289.912Z" fill="#3D9480"/>
<path d="M275.751 315.159C277.616 311.068 273.988 305.352 267.647 302.391C261.306 299.43 254.653 300.346 252.788 304.437C250.922 308.528 254.551 314.244 260.892 317.205C267.233 320.166 273.886 319.25 275.751 315.159Z" fill="#3D9480"/>
<path d="M141.314 412.792C141.739 405.738 138.481 399.797 134.037 399.523C129.593 399.249 125.646 404.745 125.221 411.798C124.796 418.852 128.054 424.793 132.498 425.067C136.942 425.341 140.889 419.845 141.314 412.792Z" fill="#3D9480"/>
<path d="M292.791 298.222C293.468 294.675 289.567 290.929 284.079 289.857C278.59 288.784 273.592 290.791 272.915 294.338C272.238 297.886 276.139 301.631 281.627 302.704C287.116 303.776 292.114 301.77 292.791 298.222Z" fill="#3D9480"/>
<path d="M409.409 642.067C427.626 631.595 441.111 620.823 439.53 618.006C437.949 615.19 421.899 621.396 403.683 631.867C385.466 642.339 371.98 653.111 373.561 655.928C375.143 658.745 391.192 652.539 409.409 642.067Z" fill="#F7A33F"/>
<path d="M454.443 722.298C472.66 711.826 486.146 701.053 484.564 698.237C482.983 695.42 466.934 701.626 448.717 712.098C430.5 722.57 417.014 733.342 418.596 736.159C420.177 738.975 436.226 732.769 454.443 722.298Z" fill="#F7A33F"/>
<path d="M433.492 684.977C458.693 670.49 477.841 656.463 476.26 653.647C474.678 650.83 452.967 660.291 427.766 674.777C402.564 689.264 383.417 703.291 384.998 706.108C386.579 708.924 408.291 699.464 433.492 684.977Z" fill="#F7A33F"/>
<path d="M428.015 765.019C458.557 765.019 455.401 751.231 472.602 761.41C491.24 772.428 489.252 821.869 470.667 838.526C460.216 847.938 443.246 854.769 419.169 830.676C398.266 809.723 301.974 853.795 295.777 798.822C290.123 748.669 420.988 749.968 420.988 749.968C427.845 753.406 428.907 758.874 428.015 765.019Z" fill="#49BEA2"/>
<path d="M460.947 822.439C459.378 827.149 468.777 831.462 474.993 833.709C478.101 829.267 480.488 824.35 482.064 819.145C474.582 818.342 462.517 817.755 460.947 822.439Z" fill="#58595B"/>
<path d="M470.703 838.537C471.528 837.794 472.308 837.001 473.039 836.163C468.58 833.357 461.892 830.316 457.808 832.428C453.724 834.539 457.309 840.829 460.884 844.998C464.484 843.401 467.8 841.218 470.703 838.537Z" fill="#58595B"/>
<path d="M466.129 807.395C465.344 812.213 475.724 814.668 483.01 815.958C484.377 810.749 485.219 805.412 485.525 800.031C477.962 800.97 466.807 803.262 466.129 807.395Z" fill="#58595B"/>
<path d="M472.603 793.074C471.123 798.425 479.737 798.84 485.605 798.488C485.783 794.202 485.589 789.908 485.025 785.656C480.424 786.965 473.646 789.311 472.603 793.074Z" fill="#58595B"/>
<path d="M337.297 789.934C337.297 789.934 343.771 801.186 334.193 808.73C324.616 816.274 317.83 806.456 318.766 801.971C319.72 797.351 324.83 796.142 328.192 798.046" stroke="#1F705F" stroke-width="3" stroke-miterlimit="10" stroke-linecap="round"/>
<path d="M360.001 770.055C359.519 770.262 359.055 770.47 358.609 770.686L360.001 770.055Z" fill="#3D9480"/>
<path d="M360.001 770.054C379.548 761.762 428.024 765.019 428.024 765.019C428.514 761.59 428.398 758.369 427.007 755.589C396.465 754.777 366.876 767.013 360.001 770.054Z" fill="#3D9480"/>
<path d="M358.61 770.688L358.512 770.733L358.61 770.688Z" fill="#3D9480"/>
<path opacity="0.49" d="M482.26 774.215C480.476 841.351 434.569 828.808 423.859 819.225C413.149 809.642 399.416 808.595 352.019 816.166C300.975 824.332 297.123 788.608 297.016 787.48C295.735 791.111 295.31 794.995 295.776 798.822C302.019 853.795 398.266 809.723 419.204 830.685C443.281 854.805 460.225 847.947 470.703 838.536C485.024 825.668 489.483 793.399 482.26 774.215Z" fill="#3D9480"/>
<path d="M460.947 822.439C459.378 827.149 468.777 831.462 474.993 833.709C478.101 829.267 480.488 824.35 482.064 819.145C474.582 818.342 462.517 817.755 460.947 822.439Z" fill="#58595B"/>
<path d="M470.703 838.537C471.528 837.794 472.308 837.001 473.039 836.163C468.58 833.357 461.892 830.316 457.808 832.428C453.724 834.539 457.309 840.829 460.884 844.998C464.484 843.401 467.8 841.218 470.703 838.537Z" fill="#58595B"/>
<path d="M466.129 807.395C465.344 812.213 475.724 814.668 483.01 815.958C484.377 810.749 485.219 805.412 485.525 800.031C477.962 800.97 466.807 803.262 466.129 807.395Z" fill="#58595B"/>
<path d="M472.603 793.074C471.123 798.425 479.737 798.84 485.605 798.488C485.783 794.202 485.589 789.908 485.025 785.656C480.424 786.965 473.646 789.311 472.603 793.074Z" fill="#58595B"/>
<path d="M337.297 789.934C337.297 789.934 343.771 801.186 334.193 808.73C324.616 816.274 317.83 806.456 318.766 801.971C319.72 797.351 324.83 796.142 328.192 798.046" stroke="#1F705F" stroke-width="3" stroke-miterlimit="10" stroke-linecap="round"/>
<path d="M502.432 722.254C486.782 748.784 476.705 738.984 476.571 759.188C476.375 781.025 519.322 804.586 543.016 797.006C556.392 792.729 570.865 781.504 562.732 748.224C555.661 719.285 642.384 658.177 598.902 624.6C559.228 594 493.3 708.403 493.3 708.403C492.667 716.145 496.76 719.872 502.432 722.254Z" fill="#49BEA2"/>
<path d="M534.295 780.286C539.101 781.342 537.96 791.728 536.667 798.27C531.307 798.695 525.915 798.247 520.695 796.943C523.843 790.022 529.524 779.239 534.295 780.286Z" fill="#58595B"/>
<path d="M542.989 797.008C541.934 797.338 540.862 797.609 539.778 797.82C539.663 792.532 540.528 785.133 544.407 782.669C548.286 780.206 551.799 786.541 553.502 791.783C550.299 794.087 546.749 795.851 542.989 797.008Z" fill="#58595B"/>
<path d="M518.911 777.091C523.37 778.896 520.168 789.156 517.529 796.149C512.409 794.669 507.45 792.671 502.726 790.185C507.372 784.067 514.996 775.521 518.911 777.091Z" fill="#58595B"/>
<path d="M503.412 775.368C508.709 776.821 504.625 784.545 501.317 789.418C497.59 787.378 494.045 785.014 490.723 782.352C494.218 779.041 499.685 774.384 503.412 775.368Z" fill="#58595B"/>
<path d="M570.045 656.174C570.045 656.174 576.287 667.562 587.595 663.104C598.902 658.646 594.051 647.764 589.753 646.23C585.454 644.696 581.727 648.522 581.593 652.411" stroke="#1F705F" stroke-width="3" stroke-miterlimit="10" stroke-linecap="round"/>
<path d="M541.544 665.715C541.963 665.408 542.382 665.11 542.792 664.812L541.544 665.715Z" fill="#3D9480"/>
<path d="M541.544 665.715C524.494 678.456 502.432 722.257 502.432 722.257C499.266 720.922 496.591 719.171 494.95 716.545C509.905 689.564 535.445 670.127 541.544 665.715Z" fill="#3D9480"/>
<path d="M542.793 664.829L542.891 664.766L542.793 664.829Z" fill="#3D9480"/>
<path opacity="0.49" d="M482.466 774.098C540.367 806.872 553.226 760.617 550.578 746.413C547.929 732.21 554.074 719.712 584.777 682.408C617.843 642.226 589.494 620.578 588.593 619.91C592.327 620.646 595.841 622.249 598.857 624.593C642.339 658.144 555.616 719.252 562.688 748.218C570.821 781.497 556.312 792.723 542.971 797C524.717 802.847 495.04 790.205 482.466 774.098Z" fill="#3D9480"/>
<path d="M534.295 780.286C539.101 781.342 537.96 791.728 536.667 798.27C531.307 798.695 525.915 798.247 520.695 796.943C523.843 790.022 529.524 779.239 534.295 780.286Z" fill="#58595B"/>
<path d="M542.989 797.008C541.934 797.338 540.862 797.609 539.778 797.82C539.663 792.532 540.528 785.133 544.407 782.669C548.286 780.206 551.799 786.541 553.502 791.783C550.299 794.087 546.749 795.851 542.989 797.008Z" fill="#58595B"/>
<path d="M518.911 777.091C523.37 778.896 520.168 789.156 517.529 796.149C512.409 794.669 507.45 792.671 502.726 790.185C507.372 784.067 514.996 775.521 518.911 777.091Z" fill="#58595B"/>
<path d="M503.412 775.368C508.709 776.821 504.625 784.545 501.317 789.418C497.59 787.378 494.045 785.014 490.723 782.352C494.218 779.041 499.685 774.384 503.412 775.368Z" fill="#58595B"/>
<path d="M570.045 656.174C570.045 656.174 576.287 667.562 587.595 663.104C598.902 658.646 594.051 647.764 589.753 646.23C585.454 644.696 581.727 648.522 581.593 652.411" stroke="#1F705F" stroke-width="3" stroke-miterlimit="10" stroke-linecap="round"/>
<path d="M15.3199 461.573C29.5166 487.741 121.314 423.745 241.263 357.168C361.213 290.592 463.89 246.646 449.693 220.451C435.496 194.255 305.532 187.848 185.582 254.461C65.6326 321.074 1.11425 435.377 15.3199 461.573Z" fill="#EFCB6C"/>
<path d="M34.2253 448.774C26.3154 434.183 42.8396 392.25 79.7047 346.464L77.7161 354.783C77.7161 354.783 129.224 330.618 139.72 339.759C150.216 348.9 256.985 299.811 256.985 299.811C256.985 299.811 353.411 302.166 436.629 210.477C443.148 213.274 447.633 216.64 449.693 220.403C454.268 228.849 446.679 239.145 430.298 251.444C391.622 275.619 328.727 306.263 260.169 344.316C140.219 410.947 48.4309 474.97 34.2253 448.774Z" fill="#E2B654"/>
<path d="M337.261 232.367C337.261 232.367 284.773 146.335 242.914 133.612C242.914 133.612 170.949 132.051 129.153 155.269C87.3563 178.487 49.3408 241.084 49.3408 241.084C49.3408 241.084 60.0419 346.481 82.1752 373.985C82.1752 373.985 178.654 357.742 226.996 330.87C275.338 303.997 337.261 232.367 337.261 232.367Z" fill="#EFCB6C"/>
<path d="M82.1753 373.967C70.2971 359.222 61.7185 322.108 56.3145 290.832C99.1186 298.7 205.326 306.569 337.217 232.367C337.217 232.367 275.293 304.015 226.951 330.852C178.61 357.688 82.1753 373.967 82.1753 373.967Z" fill="#E2B654"/>
<path d="M82.1755 373.97C76.6912 367.166 71.9114 355.589 67.8271 342.017C67.8271 342.017 162.46 315.56 205.692 291.557C248.924 267.554 317.625 203.359 317.625 203.359C329.521 219.692 337.244 232.371 337.244 232.371C337.244 232.371 275.32 304.019 226.978 330.855C178.636 357.691 82.1755 373.97 82.1755 373.97Z" fill="#A873AC"/>
<path d="M106.565 244.85C90.0026 257.542 72.5728 269.031 54.406 279.23C51.0173 257.573 49.3408 241.069 49.3408 241.069C49.3408 241.069 79.9012 190.744 116.347 163.609C126.683 188.434 134.12 223.716 106.565 244.85Z" fill="#CB9B3B"/>
<path d="M184.254 184.066C169.754 179.997 158.001 160.027 151.304 145.86C192.324 132.532 242.914 133.615 242.914 133.615C257.77 138.127 273.955 151.888 288.669 167.742C261.248 177.632 201.946 189.038 184.254 184.066Z" fill="#CB9B3B"/>
<path d="M71.6258 286.337C78.7474 286.315 84.4913 276.883 84.4552 265.271C84.4192 253.659 78.6168 244.264 71.4953 244.287C64.3737 244.31 58.6298 253.741 58.6659 265.353C58.7019 276.965 64.5043 286.36 71.6258 286.337Z" fill="white"/>
<path d="M424.455 216.726C424.858 211.884 416.71 207.237 406.257 206.347C395.803 205.457 387.003 208.66 386.6 213.502C386.198 218.344 394.345 222.991 404.799 223.881C415.252 224.771 424.052 221.568 424.455 216.726Z" fill="white"/>
<path d="M377.818 214.928C380.404 214.928 382.5 212.807 382.5 210.191C382.5 207.574 380.404 205.453 377.818 205.453C375.233 205.453 373.137 207.574 373.137 210.191C373.137 212.807 375.233 214.928 377.818 214.928Z" fill="white"/>
<path d="M147.237 426.388C147.237 426.388 144.375 394.805 172.456 382.551" stroke="#231F20" stroke-width="5.89" stroke-miterlimit="10" stroke-linecap="round"/>
<path d="M360.518 303.808C360.518 303.808 335.148 285.12 310.401 303.267" stroke="#231F20" stroke-width="5.89" stroke-miterlimit="10" stroke-linecap="round"/>
<path d="M566.326 526.948C566.326 526.948 564.462 518.637 554.385 526.398C544.308 534.158 536.122 541.341 536.122 541.341L547.322 550.193C547.322 550.193 567.066 536.161 566.326 526.948Z" fill="#58595B"/>
<path d="M583.795 547.765C583.795 547.765 584.928 539.328 572.8 543C560.672 546.673 550.506 550.49 550.506 550.49L557.916 562.753C557.916 562.753 581.245 556.653 583.795 547.765Z" fill="#58595B"/>
<path d="M578.525 580.42C578.525 580.42 583.982 573.932 571.81 570.413C559.637 566.893 549.043 564.574 549.043 564.574L548.749 578.949C548.749 578.949 571.649 586.52 578.525 580.42Z" fill="#58595B"/>
<path d="M528.453 518.592C528.453 518.592 520.427 516.146 522.086 528.834C523.745 541.521 525.938 552.295 525.938 552.295L539.065 546.8C539.065 546.8 536.747 522.517 528.453 518.592Z" fill="#58595B"/>
<path d="M564.818 551.21C564.818 551.21 552.2 524.834 524.261 532.143C496.323 539.453 457.861 556.507 450.032 565.251C442.202 573.995 440.972 589.543 443.379 595.029C445.787 600.516 447.517 615.008 475.099 609.928C502.681 604.847 542.872 596.933 554.59 586.737C566.308 576.54 568.849 560.523 564.818 551.21Z" fill="#49BEA2"/>
<path opacity="0.49" d="M554.581 586.737C542.846 596.934 502.663 604.839 475.09 609.928C463.827 612.004 456.881 610.831 452.431 608.304C552.691 589.12 558.951 553.548 558.148 541.926C560.79 544.69 563.035 547.815 564.818 551.211C568.849 560.524 566.325 576.532 554.581 586.737Z" fill="#3D9480"/>
<path d="M500.368 553.281C509.163 549.66 515.396 544.494 514.29 541.743C513.184 538.992 505.157 539.697 496.362 543.318C487.567 546.939 481.333 552.105 482.44 554.857C483.546 557.608 491.573 556.903 500.368 553.281Z" fill="white"/>
<path d="M227.665 582.062C227.665 582.062 229.368 573.724 239.597 581.268C249.825 588.812 258.154 595.823 258.154 595.823L247.141 604.901C247.141 604.901 227.148 591.302 227.665 582.062Z" fill="#58595B"/>
<path d="M210.632 603.242C210.632 603.242 209.321 594.832 221.52 598.252C233.719 601.672 243.957 605.272 243.957 605.272L236.823 617.698C236.823 617.698 213.361 612.076 210.632 603.242Z" fill="#58595B"/>
<path d="M216.607 635.792C216.607 635.792 211.024 629.413 223.117 625.641C235.209 621.869 245.758 619.324 245.758 619.324L246.347 633.69C246.347 633.69 223.563 641.739 216.607 635.792Z" fill="#58595B"/>
<path d="M265.368 572.922C265.368 572.922 273.394 570.305 271.94 583.028C270.487 595.751 268.57 606.544 268.57 606.544L255.327 601.319C255.327 601.319 257.164 577.018 265.368 572.922Z" fill="#58595B"/>
<path d="M229.671 606.291C229.671 606.291 241.746 579.662 269.8 586.385C297.855 593.108 336.682 609.323 344.708 617.968C352.733 626.612 354.267 642.07 351.966 647.602C349.666 653.133 348.248 667.67 320.568 663.158C292.888 658.647 252.563 651.599 240.613 641.637C228.664 631.675 225.846 615.721 229.671 606.291Z" fill="#49BEA2"/>
<path opacity="0.49" d="M240.621 641.592C252.571 651.519 292.896 658.611 320.576 663.114C331.875 664.919 338.795 663.619 343.191 661.02C242.566 643.948 235.583 608.512 236.181 596.871C233.593 599.688 231.411 602.859 229.697 606.292C225.845 615.722 228.681 631.639 240.621 641.592Z" fill="#3D9480"/>
<path d="M312.74 608.571C313.795 605.799 307.469 600.751 298.609 597.295C289.749 593.839 281.711 593.285 280.655 596.056C279.599 598.827 285.926 603.876 294.786 607.332C303.646 610.788 311.684 611.342 312.74 608.571Z" fill="white"/>
<path d="M478.615 562.913C481.188 561.434 482.646 559.114 481.87 557.731C481.094 556.349 478.378 556.428 475.805 557.907C473.231 559.387 471.774 561.707 472.55 563.089C473.326 564.471 476.041 564.392 478.615 562.913Z" fill="white"/>
<path d="M315.299 781.969C319.554 779.211 321.968 775.339 320.69 773.32C319.413 771.302 314.927 771.901 310.672 774.659C306.417 777.417 304.004 781.289 305.281 783.307C306.559 785.326 311.044 784.727 315.299 781.969Z" fill="white"/>
<path d="M458.735 766.297C461.987 765.282 464.244 763.213 463.775 761.675C463.307 760.136 460.29 759.712 457.038 760.726C453.786 761.74 451.529 763.81 451.998 765.348C452.466 766.886 455.483 767.311 458.735 766.297Z" fill="white"/>
<path d="M572.074 631.96C576.913 629.178 580.019 625.469 579.012 623.675C578.005 621.881 573.266 622.682 568.427 625.463C563.588 628.245 560.481 631.954 561.489 633.748C562.496 635.542 567.235 634.742 572.074 631.96Z" fill="white"/>
<path d="M555.856 642.876C557.78 641.779 558.792 639.906 558.116 638.692C557.44 637.478 555.333 637.383 553.409 638.48C551.485 639.576 550.474 641.449 551.149 642.663C551.825 643.877 553.932 643.972 555.856 642.876Z" fill="white"/>
<path d="M421.498 349.105C424.737 346.598 421.635 336.99 414.569 327.645C407.503 318.3 399.15 312.757 395.911 315.265C392.672 317.772 395.775 327.38 402.841 336.725C409.906 346.07 418.26 351.613 421.498 349.105Z" fill="white"/>
<path d="M204.497 472.463C224.562 472.463 240.827 456.003 240.827 435.7C240.827 415.397 224.562 398.938 204.497 398.938C184.433 398.938 168.167 415.397 168.167 435.7C168.167 456.003 184.433 472.463 204.497 472.463Z" fill="#F2F6DC"/>
<path d="M236.092 417.543C238.802 421.621 240.626 426.234 241.442 431.078C242.271 436.002 242.092 441.045 240.916 445.895C239.722 450.799 237.552 455.404 234.54 459.431C231.515 463.476 227.707 466.853 223.348 469.357C218.988 471.862 214.17 473.44 209.188 473.995C204.232 474.55 199.216 474.077 194.447 472.606C189.729 471.146 185.357 468.719 181.606 465.477C177.922 462.274 174.958 458.311 172.911 453.854C178.154 461.744 186.094 467.394 195.205 469.718C204.11 471.922 213.51 470.598 221.482 466.017C229.453 461.435 235.391 453.943 238.08 445.074C240.791 435.963 240.083 426.159 236.092 417.543Z" fill="#19181C"/>
<path d="M236.091 417.545C230.845 409.661 222.906 404.015 213.797 401.691C204.894 399.486 195.494 400.809 187.523 405.389C179.552 409.969 173.613 417.459 170.922 426.326C168.202 435.436 168.91 445.243 172.911 453.857C170.199 449.78 168.375 445.166 167.56 440.321C166.734 435.4 166.916 430.36 168.095 425.513C169.282 420.609 171.449 416.003 174.462 411.978C177.486 407.931 181.294 404.55 185.653 402.043C190.012 399.536 194.831 397.954 199.815 397.396C204.771 396.849 209.786 397.325 214.555 398.794C219.275 400.25 223.647 402.677 227.397 405.923C231.08 409.126 234.044 413.089 236.091 417.545Z" fill="#19181C"/>
<path d="M216.063 462.608C229.228 462.608 239.9 451.809 239.9 438.487C239.9 425.166 229.228 414.367 216.063 414.367C202.899 414.367 192.227 425.166 192.227 438.487C192.227 451.809 202.899 462.608 216.063 462.608Z" fill="black"/>
<path d="M339.099 395.103C359.163 395.103 375.429 378.644 375.429 358.341C375.429 338.037 359.163 321.578 339.099 321.578C319.034 321.578 302.769 338.037 302.769 358.341C302.769 378.644 319.034 395.103 339.099 395.103Z" fill="#F2F6DC"/>
<path d="M370.684 340.191C373.405 344.263 375.23 348.879 376.034 353.727C376.867 358.647 376.688 363.688 375.508 368.535C374.313 373.436 372.147 378.041 369.141 382.07C366.112 386.113 362.301 389.49 357.941 391.996C353.581 394.501 348.763 396.083 343.78 396.644C338.823 397.195 333.808 396.719 329.039 395.245C324.322 393.787 319.951 391.363 316.198 388.125C312.518 384.931 309.551 380.981 307.494 376.539C312.734 384.431 320.676 390.082 329.788 392.402C338.693 394.609 348.095 393.286 356.066 388.704C364.038 384.122 369.976 376.628 372.663 367.759C375.398 358.638 374.693 348.816 370.684 340.191Z" fill="#19181C"/>
<path d="M370.684 340.195C365.441 332.305 357.501 326.656 348.39 324.331C339.485 322.127 330.085 323.451 322.113 328.033C314.142 332.614 308.204 340.107 305.515 348.975C302.809 358.088 303.533 367.892 307.548 376.497C304.831 372.423 303.006 367.808 302.197 362.962C301.369 358.041 301.548 353.001 302.723 348.154C303.919 343.252 306.085 338.648 309.09 334.618C312.117 330.574 315.926 327.197 320.284 324.691C324.643 322.185 329.461 320.605 334.443 320.045C339.402 319.491 344.42 319.964 349.193 321.435C353.889 322.921 358.235 325.366 361.963 328.618C365.65 331.805 368.623 335.752 370.684 340.195Z" fill="#19181C"/>
<path d="M350.655 385.256C363.82 385.256 374.492 374.457 374.492 361.136C374.492 347.815 363.82 337.016 350.655 337.016C337.49 337.016 326.818 347.815 326.818 361.136C326.818 374.457 337.49 385.256 350.655 385.256Z" fill="black"/>
<path d="M603.37 822.742C706.564 822.742 790.219 727.502 790.219 610.017C790.219 492.533 706.564 397.293 603.37 397.293C500.176 397.293 416.521 492.533 416.521 610.017C416.521 727.502 500.176 822.742 603.37 822.742Z" fill="white"/>
<path d="M603.37 554.937C691.154 554.937 764.777 600.055 784.824 660.938C788.426 644.21 790.238 627.138 790.228 610.017C790.228 492.529 706.572 397.293 603.37 397.293C500.167 397.293 416.521 492.529 416.521 610.017C416.51 627.138 418.322 644.21 421.925 660.938C441.971 600.082 515.594 554.937 603.37 554.937Z" fill="#3C4042"/>
<path opacity="0.08" d="M691.145 422.191C672.9 425.927 661.467 428.318 661.467 428.318C663.251 429.663 671.116 485.168 660.888 560.452C660.718 559.442 660.531 558.449 660.29 557.493C654.699 535.448 648.876 485.763 485.506 475.07L449.266 547.178C449.266 547.178 519.607 570.126 539.734 593.091C559.861 616.056 588.896 640.565 620.143 628.653C636.703 622.337 648.546 608.928 655.198 594.427C641.367 663.909 611.404 744.427 549.731 813.837C567.007 819.737 585.118 822.745 603.352 822.744C706.554 822.744 790.21 727.499 790.21 610.019C790.228 528.653 750.099 457.97 691.145 422.191Z" fill="#2F3233"/>
<path d="M807.18 354.371C804.014 457.656 713.546 491.639 603.37 488.183C493.194 484.727 404.99 445.122 408.156 341.846C411.322 238.57 496.315 174.312 612.885 177.994C729.455 181.676 810.346 251.095 807.18 354.371Z" fill="white"/>
<path opacity="0.08" d="M612.884 177.993C521.658 175.123 449.764 213.853 421.309 280.33C456.979 279.735 681.424 276.207 731.514 280.412C731.514 280.412 767.469 412.906 645.014 487.568C735.527 481.685 804.468 444.3 807.224 354.37C810.345 251.094 729.454 181.647 612.884 177.993Z" fill="#2F3233"/>
<path d="M606.758 396.021L617.369 390.941C618.468 390.417 619.361 389.535 619.903 388.435C620.445 387.336 620.605 386.083 620.358 384.88C620.111 383.677 619.47 382.593 618.54 381.803C617.609 381.014 616.443 380.564 615.229 380.528L594.326 379.878C593.112 379.838 591.921 380.214 590.943 380.943C589.966 381.673 589.26 382.715 588.94 383.901C588.619 385.086 588.703 386.346 589.177 387.478C589.651 388.61 590.488 389.547 591.553 390.138L601.844 395.859C602.592 396.278 603.427 396.511 604.281 396.539C605.136 396.567 605.984 396.39 606.758 396.021Z" fill="black"/>
<path d="M573.594 412.669C573.594 412.669 574.86 425.573 588.388 425.997C601.122 426.395 604.484 389.812 604.484 389.812" stroke="#231F20" stroke-width="6.4" stroke-linecap="round" stroke-linejoin="round"/>
<path d="M633.948 414.555C633.948 414.555 631.897 427.36 618.369 426.936C605.634 426.539 604.511 389.812 604.511 389.812" stroke="#231F20" stroke-width="6.4" stroke-linecap="round" stroke-linejoin="round"/>
<path d="M453.948 311.903C453.948 311.903 444.95 393.857 506.695 405.822C568.44 417.787 585.437 354.703 590.841 320.999C596.245 287.296 573.799 256.029 519.696 251.093C465.594 246.157 453.948 311.903 453.948 311.903Z" fill="#3C4042"/>
<path d="M761.121 321.549C761.121 321.549 765.08 403.908 702.72 411.975C640.36 420.042 627.26 356.028 623.933 322.063C620.607 288.098 644.925 258.229 699.224 256.759C753.523 255.288 761.121 321.549 761.121 321.549Z" fill="#3C4042"/>
<path d="M523.468 369.494C545.321 369.494 563.036 351.568 563.036 329.456C563.036 307.344 545.321 289.418 523.468 289.418C501.616 289.418 483.901 307.344 483.901 329.456C483.901 351.568 501.616 369.494 523.468 369.494Z" fill="#F2F6DC"/>
<path d="M563.009 330.7C563.262 336.038 562.387 341.37 560.441 346.338C558.454 351.387 555.464 355.969 551.657 359.801C547.788 363.679 543.181 366.72 538.114 368.738C533.047 370.757 527.627 371.711 522.185 371.542C516.742 371.373 511.39 370.085 506.455 367.756C501.52 365.428 497.105 362.107 493.479 357.997C489.907 353.917 487.203 349.138 485.533 343.956C483.898 338.876 483.348 333.503 483.919 328.191C484.179 333.379 485.357 338.477 487.397 343.243C489.403 347.905 492.252 352.146 495.797 355.75C502.834 362.918 512.313 367.091 522.293 367.415C532.272 367.739 541.996 364.188 549.472 357.491C553.228 354.116 556.328 350.061 558.613 345.535C560.947 340.897 562.436 335.872 563.009 330.7Z" fill="#19181C"/>
<path d="M563.008 330.699C562.75 325.512 561.572 320.413 559.53 315.648C557.524 310.988 554.679 306.747 551.139 303.141C544.092 295.984 534.608 291.823 524.628 291.509C514.649 291.195 504.928 294.753 497.455 301.454C493.7 304.829 490.6 308.884 488.315 313.41C485.984 318.039 484.495 323.055 483.919 328.218C483.672 322.879 484.55 317.549 486.496 312.58C488.481 307.528 491.475 302.945 495.288 299.116C499.141 295.246 503.731 292.209 508.781 290.192C513.861 288.163 519.296 287.204 524.755 287.375C530.214 287.546 535.581 288.842 540.527 291.185C545.448 293.513 549.847 296.832 553.458 300.939C557.029 305.002 559.734 309.767 561.403 314.935C563.041 320.014 563.588 325.389 563.008 330.699Z" fill="#19181C"/>
<path d="M513.204 363.927C527.541 363.927 539.163 352.166 539.163 337.659C539.163 323.151 527.541 311.391 513.204 311.391C498.867 311.391 487.245 323.151 487.245 337.659C487.245 352.166 498.867 363.927 513.204 363.927Z" fill="black"/>
<path d="M691.966 374.779C713.818 374.779 731.533 356.854 731.533 334.741C731.533 312.629 713.818 294.703 691.966 294.703C670.113 294.703 652.398 312.629 652.398 334.741C652.398 356.854 670.113 374.779 691.966 374.779Z" fill="#F2F6DC"/>
<path d="M731.515 335.989C731.769 341.328 730.893 346.659 728.946 351.627C726.961 356.682 723.968 361.268 720.154 365.1C716.3 368.97 711.705 372.004 706.653 374.015C699.015 377.063 690.637 377.666 682.65 375.744C674.662 373.823 667.449 369.468 661.985 363.268C658.412 359.206 655.707 354.441 654.039 349.272C652.399 344.193 651.848 338.819 652.425 333.508C652.683 338.695 653.861 343.794 655.903 348.559C657.897 353.23 660.734 357.483 664.268 361.102C671.315 368.26 680.8 372.421 690.78 372.733C700.76 373.045 710.481 369.485 717.951 362.781C721.706 359.405 724.806 355.35 727.092 350.824C729.437 346.189 730.936 341.164 731.515 335.989Z" fill="#19181C"/>
<path d="M731.514 335.989C731.256 330.805 730.078 325.709 728.036 320.947C726.035 316.282 723.185 312.04 719.636 308.44C712.593 301.28 703.111 297.116 693.132 296.801C683.153 296.486 673.433 300.043 665.961 306.744C662.205 310.117 659.102 314.168 656.812 318.691C654.487 323.319 653.001 328.331 652.425 333.49C652.178 328.154 653.056 322.826 655.002 317.861C656.985 312.808 659.975 308.222 663.785 304.388C667.654 300.51 672.262 297.47 677.328 295.451C682.395 293.433 687.815 292.479 693.257 292.648C698.7 292.817 704.052 294.105 708.987 296.433C713.922 298.762 718.337 302.083 721.963 306.193C725.53 310.26 728.234 315.023 729.909 320.189C731.551 325.28 732.099 330.667 731.514 335.989Z" fill="#19181C"/>
<path d="M681.71 369.223C696.047 369.223 707.669 357.463 707.669 342.955C707.669 328.448 696.047 316.688 681.71 316.688C667.373 316.688 655.751 328.448 655.751 342.955C655.751 357.463 667.373 369.223 681.71 369.223Z" fill="black"/>
<path d="M562.956 405.543H646.78C646.78 405.543 649.545 460.696 602.897 460.696C556.25 460.696 562.956 405.543 562.956 405.543Z" fill="#19181C"/>
<path d="M637.693 442.621C630.702 435.051 618.556 429.988 604.698 429.988C589.904 429.988 577.054 435.727 570.348 444.192C576.099 453.414 585.998 460.651 602.888 460.651C620.776 460.696 631.388 452.602 637.693 442.621Z" fill="#F37270"/>
<path d="M718.735 500.869C718.735 500.869 780.266 461.165 813.163 403.666C846.06 346.167 891.566 390.708 895.374 414.756C899.182 438.804 859.704 512.113 771.812 545.889" fill="#3C4042"/>
<path d="M895.374 414.754C893.59 403.772 883.193 388.513 869.237 380.645C870.262 409.827 862.7 482.829 771.812 545.886C859.748 512.111 899.182 438.811 895.374 414.754Z" fill="#2F3233"/>
<path d="M550.122 789.815C591.812 759.315 571.319 701.951 571.319 701.951C571.319 701.951 443.611 621.433 399.621 709.008C363.996 779.925 477.382 831.36 493.255 842.396C493.255 842.396 476.909 908.467 533.509 911.409C590.109 914.351 638.165 797.079 576.911 753.792C533.215 722.931 492.72 711.155 492.72 711.155" fill="#3C4042"/>
<path d="M573.666 750.589L574.646 751.284C576.545 741.625 576.883 731.717 575.645 721.948C565.836 719.241 529.033 709.766 492.766 711.12C492.766 711.156 552.005 734.735 573.666 750.589Z" fill="#2F3233"/>
<path d="M533.554 911.409C564.765 913.042 593.417 878.022 602.513 839.075C602.165 839.608 570.16 889.057 534.562 887.686C498.767 886.278 509.994 818.601 509.994 818.601C435.613 786.341 406.8 735.799 397.374 713.926C369.15 782.325 477.73 831.667 493.273 842.45C493.3 842.396 476.999 908.467 533.554 911.409Z" fill="#2F3233"/>
<path d="M656.616 789.815C614.918 759.315 635.419 701.951 635.419 701.951C635.419 701.951 763.127 621.433 807.117 709.008C842.743 779.925 729.356 831.36 713.483 842.396C713.483 842.396 729.829 908.467 673.229 911.409C616.63 914.351 568.573 797.079 629.828 753.792C673.479 722.931 714.018 711.155 714.018 711.155" fill="#3C4042"/>
<path d="M633.056 750.589L632.075 751.284C630.176 741.625 629.838 731.717 631.076 721.948C640.885 719.241 677.688 709.766 713.955 711.12C713.982 711.156 654.743 734.735 633.056 750.589Z" fill="#2F3233"/>
<path d="M673.185 911.409C641.974 913.042 613.321 878.022 604.226 839.075C604.573 839.608 636.578 889.057 672.177 887.686C707.963 886.278 696.727 818.601 696.727 818.601C771.108 786.341 799.921 735.799 809.347 713.926C837.571 782.325 728.991 831.667 713.448 842.45C713.448 842.396 729.793 908.467 673.185 911.409Z" fill="#2F3233"/>
<path d="M334.612 248.115C334.568 281.052 456.836 268.599 607.64 268.807C758.445 269.014 880.687 281.819 880.731 248.882C880.776 215.946 758.632 139.894 607.854 139.696C457.077 139.497 334.657 215.179 334.612 248.115Z" fill="#EFCB6C"/>
<path d="M359.6 245.93C359.617 227.548 397.633 195.966 457.282 171.602L450.96 178.55C450.96 178.55 513.382 182.917 518.733 197.391C524.084 211.865 652.96 221.882 652.96 221.882C652.96 221.882 744.81 276.024 873.357 232.241C878.181 238.449 880.749 244.116 880.74 248.88C880.74 259.501 867.997 265.358 845.712 268.426C795.667 270.97 718.825 266.738 632.637 266.621C481.823 266.404 359.546 278.857 359.6 245.93Z" fill="#E2B654"/>
<path d="M765.927 199.929C765.927 199.929 760.416 88.6304 726.69 53.817C726.69 53.817 658.025 13.6074 605.412 13.5353C552.798 13.4631 483.242 53.4741 483.242 53.4741C483.242 53.4741 438.181 161 445.137 199.468C445.137 199.468 546.85 235.644 607.632 235.735C668.414 235.825 765.927 199.929 765.927 199.929Z" fill="#EFCB6C"/>
<path d="M445.19 199.478C441.462 178.85 452.671 138.397 463.916 105.289C501.156 135.97 599.552 200.624 765.927 199.929C765.927 199.929 668.494 235.817 607.712 235.735C546.93 235.654 445.19 199.478 445.19 199.478Z" fill="#E2B654"/>
<path d="M445.19 199.47C443.469 189.959 444.931 176.207 448.115 160.902C448.115 160.902 553.395 186.25 607.739 186.331C662.082 186.412 762.181 161.354 762.181 161.354C765.088 183.525 765.9 199.93 765.9 199.93C765.9 199.93 668.467 235.817 607.685 235.736C546.903 235.655 445.19 199.47 445.19 199.47Z" fill="#F68622"/>
<path d="M536.559 87.9089C513.9 91.2683 491.035 93.0022 468.135 93.0975C476.232 70.3579 483.295 53.5106 483.295 53.5106C483.295 53.5106 539.234 21.3502 588.682 14.7539C585.623 44.2433 574.271 82.3142 536.559 87.9089Z" fill="#CB9B3B"/>
<path d="M643.507 70.9903C631.647 59.2595 630.79 33.6502 631.762 16.3789C678.348 25.547 726.69 53.8182 726.69 53.8182C738.657 66.1716 747.066 88.1623 752.943 111.38C721.25 106.183 658.025 85.3108 643.507 70.9903Z" fill="#CB9B3B"/>
<path d="M504.487 95.7203C510.548 84.4882 509.877 72.2961 502.987 68.4885C496.097 64.681 485.598 70.6998 479.536 81.9319C473.474 93.1641 474.145 105.356 481.035 109.164C487.925 112.971 498.425 106.952 504.487 95.7203Z" fill="white"/>
<path d="M858.318 231.743C861.251 227.282 855.824 218.412 846.197 211.929C836.569 205.447 826.387 203.808 823.454 208.268C820.521 212.728 825.948 221.599 835.575 228.081C845.203 234.563 855.385 236.203 858.318 231.743Z" fill="white"/>
<path d="M816.712 205.551C819.564 205.551 821.875 203.212 821.875 200.326C821.875 197.441 819.564 195.102 816.712 195.102C813.86 195.102 811.549 197.441 811.549 200.326C811.549 203.212 813.86 205.551 816.712 205.551Z" fill="white"/>
<path d="M837.326 404.101C843.334 396.418 846.153 388.547 843.624 386.521C841.094 384.496 834.173 389.083 828.165 396.767C822.157 404.451 819.338 412.322 821.868 414.347C824.398 416.372 831.319 411.785 837.326 404.101Z" fill="white"/>
<path d="M449.283 547.177C449.283 547.177 521.328 558.908 574.048 598.549C626.769 638.19 651.105 579.004 645.184 555.389C639.262 531.774 574.343 480.303 480.379 484.553" fill="#3C4042"/>
<path d="M644.648 575.036C631.905 579.665 599.686 587.669 570.383 564.577C532.831 534.988 449.292 547.179 449.292 547.179C449.292 547.179 521.337 558.91 574.057 598.551C614.998 629.34 638.816 600.509 644.648 575.036Z" fill="#2F3233"/>
<path d="M780.205 691.373C781.708 687.812 777.3 682.494 770.361 679.497C763.422 676.499 756.579 676.955 755.076 680.517C753.574 684.078 757.981 689.395 764.92 692.393C771.859 695.391 778.702 694.934 780.205 691.373Z" fill="white"/>
<path d="M443.535 692.618C450.745 690.369 455.677 685.546 454.55 681.846C453.422 678.145 446.663 676.968 439.453 679.217C432.243 681.466 427.311 686.289 428.438 689.989C429.565 693.69 436.324 694.867 443.535 692.618Z" fill="white"/>
<path d="M620.242 798.74C621.662 792.101 620.222 786.152 617.025 785.452C613.829 784.752 610.087 789.566 608.667 796.205C607.248 802.845 608.688 808.794 611.884 809.494C615.08 810.194 618.822 805.379 620.242 798.74Z" fill="white"/>
<path d="M632.23 552.145C635.246 548.67 630.74 539.676 622.166 532.056C613.592 524.437 604.196 521.077 601.18 524.552C598.165 528.027 602.671 537.021 611.245 544.64C619.819 552.26 629.214 555.62 632.23 552.145Z" fill="white"/>
<path d="M444.254 280.413C444.254 280.413 458.593 248.334 492.275 252.124" stroke="#19181C" stroke-width="6.53" stroke-miterlimit="10" stroke-linecap="round"/>
<path d="M767.71 275.311C767.71 275.311 753.371 243.232 719.689 247.022" stroke="#19181C" stroke-width="6.53" stroke-miterlimit="10" stroke-linecap="round"/>
</g>
<defs>
<clipPath id="clip0_6276_689">
<rect width="909" height="925" fill="white"/>
</clipPath>
</defs>
</svg>
