<svg width="453" height="356" viewBox="0 0 453 356" fill="none" xmlns="http://www.w3.org/2000/svg">
<g clip-path="url(#clip0_4838_2056)">
<path d="M203.82 355.441C316.387 355.441 407.64 333.323 407.64 306.041C407.64 278.758 316.387 256.641 203.82 256.641C91.2533 256.641 0 278.758 0 306.041C0 333.323 91.2533 355.441 203.82 355.441Z" fill="#A7A9AC"/>
<path d="M221.15 315.4H220.55L203.17 314.7L185.78 315.4H185.18C181.303 315.403 177.576 313.906 174.78 311.221C171.983 308.537 170.335 304.874 170.18 301C170.18 299.75 169.98 295.19 170.12 288.17C169.61 270.48 166.58 228.1 149.94 191.81L147.3 191.63H146.88L144.05 191.4H143.73C141.73 191.23 139.67 191.02 137.61 190.78H137.32C136.32 190.66 135.26 190.54 134.24 190.4L133.83 190.35L130.69 189.91H130.38C128.19 189.58 125.97 189.21 123.79 188.82L123.4 188.75L120.19 188.14L119.72 188.05L116.42 187.36L116.08 187.28C113.79 186.78 111.45 186.22 109.17 185.63L108.79 185.53C107.68 185.25 106.55 184.94 105.42 184.62L104.97 184.5C103.83 184.18 102.69 183.84 101.55 183.5L101.25 183.4C98.8498 182.67 96.4398 181.88 94.1098 181.06L93.7598 180.93C92.5898 180.52 91.4398 180.1 90.2998 179.66L89.8898 179.51C88.6898 179.04 87.5298 178.59 86.3798 178.11L86.1198 178.01C83.6398 176.99 81.2398 175.93 78.9198 174.83L78.5698 174.67C77.4098 174.12 76.2798 173.56 75.1498 172.99L74.7498 172.79C73.5398 172.17 72.3998 171.58 71.2798 170.96L70.9498 170.78C68.5898 169.49 66.2398 168.12 63.9498 166.71L63.5498 166.46C62.4798 165.79 61.3698 165.07 60.2798 164.34L59.8598 164.06C58.7398 163.3 57.6398 162.54 56.5598 161.76L56.2598 161.54C53.9998 159.91 51.7598 158.18 49.6198 156.41L49.2898 156.14C48.2898 155.28 47.2198 154.38 46.1798 153.46L45.7898 153.12C44.6698 152.12 43.6698 151.18 42.7098 150.26L42.4898 150.04C40.3498 147.98 38.3098 145.874 36.3698 143.72L36.0698 143.39C35.0698 142.32 34.1798 141.23 33.2598 140.13L32.8598 139.65C31.9098 138.49 31.0298 137.38 30.1698 136.27L29.9198 135.95C28.1098 133.56 26.3298 131.04 24.6498 128.46L24.3798 128.05C23.5598 126.77 22.7631 125.487 21.9898 124.2L21.6798 123.68C20.8731 122.3 20.1165 120.967 19.4098 119.68L19.2298 119.34C17.6898 116.47 16.2298 113.53 14.9198 110.56L14.6798 110.04C14.0531 108.6 13.4398 107.13 12.8398 105.63L12.5798 104.98C11.9398 103.37 11.3798 101.87 10.8498 100.37L10.7198 100C10.0898 98.2002 9.54981 96.5803 9.04981 95.0003C3.81981 78.2003 1.22979 59.2403 1.33979 38.6503C1.35803 35.2452 2.53425 31.9477 4.67511 29.2998C6.81598 26.6519 9.79406 24.8112 13.1198 24.0803C13.2298 24.0803 25.1198 21.5503 43.1198 21.5503C63.7798 21.5503 94.4598 24.9503 123.35 41.1403C156.6 59.7803 179.59 90.4703 191.7 132.37C195.864 138.3 199.69 144.46 203.16 150.82C214.45 130.2 228.42 113.05 244.92 99.6003C259.47 63.5403 280.92 36.8002 308.92 20.0902C330.91 6.73024 356.46 0.000248514 384.76 0.000248514C404.323 -0.0321052 423.763 3.09482 442.33 9.26026C445.566 10.4546 448.291 12.7277 450.047 15.6967C451.803 18.6657 452.482 22.1491 451.97 25.5602C448.91 45.9302 443.43 64.2603 435.68 80.0503C434.96 81.5303 434.18 83.0503 433.3 84.6803L433.03 85.1803C432.32 86.5103 431.53 87.9003 430.67 89.3803L430.33 89.9603C429.47 91.4003 428.63 92.7602 427.8 94.0602L427.51 94.5103C425.71 97.2903 423.84 99.9703 421.91 102.51L421.64 102.86C420.74 104.05 419.81 105.22 418.8 106.45L418.38 106.97C417.38 108.13 416.38 109.27 415.47 110.35L415.1 110.76C413.1 113.03 410.92 115.25 408.74 117.34L408.46 117.61C407.46 118.61 406.46 119.53 405.26 120.61L404.83 120.99C403.72 121.99 402.63 122.89 401.56 123.77L401.18 124.08C398.93 125.91 396.58 127.69 394.18 129.35L393.87 129.57C392.77 130.33 391.61 131.11 390.42 131.88L389.93 132.21C388.8 132.93 387.63 133.66 386.48 134.35L386.09 134.58C383.7 136 381.23 137.36 378.75 138.63L378.46 138.77C377.23 139.4 376.03 139.98 374.83 140.54L374.35 140.77C373.15 141.32 371.95 141.86 370.75 142.38L370.43 142.51C367.88 143.6 365.35 144.6 362.82 145.51L362.53 145.61C361.28 146.06 360.06 146.48 358.85 146.87L358.3 147.05C357.15 147.43 355.94 147.8 354.73 148.16L354.33 148.28C351.85 149.01 349.33 149.69 346.79 150.28L346.49 150.36C345.26 150.65 344.05 150.92 342.84 151.18L342.35 151.29C341.16 151.54 339.96 151.78 338.77 152.01L338.38 152.08C335.95 152.53 333.45 152.94 330.97 153.3H330.68C329.47 153.47 328.29 153.63 327.11 153.77L326.68 153.82L323.18 154.21H322.79C320.42 154.45 318.02 154.64 315.67 154.78H315.37L311.99 154.96H311.52C310.42 155.014 309.32 155.054 308.22 155.08H307.91C306.12 155.13 304.39 155.15 302.68 155.15H300.91L297.77 155.1H297.3L294.3 155H293.91C291.91 154.92 289.8 154.81 287.76 154.68H287.53L284.62 154.47L282.41 154.28C242.19 191.79 236.85 265.28 236.2 288.15C236.33 295.15 236.2 299.73 236.13 300.98C235.975 304.854 234.326 308.517 231.53 311.201C228.733 313.886 225.006 315.383 221.13 315.38L221.15 315.4Z" fill="#231F20"/>
<path d="M295.44 127.1L279.35 94.9004C239.56 114.78 216.5 150.71 203.17 187.03C189.83 150.71 166.78 114.78 126.99 94.9004L110.91 127.1C176.03 159.64 184.26 255.66 185.15 288.1C185.01 295.01 185.15 299.41 185.15 300.39L203.15 299.67L221.15 300.39C221.15 299.39 221.34 295.01 221.15 288.1C222.09 255.66 230.32 159.64 295.44 127.1Z" fill="#66BE64"/>
<path d="M249.41 133.52C293.06 -30.0701 437.13 23.3299 437.14 23.3399C367.58 47.6499 304.74 83.8999 249.41 133.52Z" fill="#66BE64"/>
<path d="M437.14 23.3398C413.46 180.97 249.41 133.52 249.41 133.52C304.74 83.8998 367.58 47.6498 437.14 23.3398Z" fill="#4CA84E"/>
<g style="mix-blend-mode:multiply">
<path d="M422.22 73.4404C310.06 131.44 270.03 81.7804 270.03 81.7804C261.91 95.9804 254.91 113.05 249.41 133.52C249.41 133.52 374.91 169.82 422.22 73.4404Z" fill="#4CA84E"/>
</g>
<path d="M184.91 176.301C166.91 7.94064 16.3801 38.5506 16.3701 38.5506C81.3601 73.2706 137.91 118.731 184.91 176.301Z" fill="#66BE64"/>
<path d="M16.3801 38.5498C15.5301 197.95 184.91 176.3 184.91 176.3C137.91 118.73 81.3601 73.2698 16.3801 38.5498Z" fill="#4CA84E"/>
<g style="mix-blend-mode:multiply">
<path d="M23.4102 90.3506C125.31 164.901 172.5 122.001 172.5 122.001C178.35 137.291 182.67 155.241 184.92 176.301C184.91 176.301 55.3302 192.861 23.4102 90.3506Z" fill="#4CA84E"/>
</g>
<path d="M107.73 70.1554C111.309 63.9568 106.936 54.7322 97.9635 49.5518C88.9907 44.3713 78.8157 45.1968 75.2368 51.3954C71.658 57.5941 76.0307 66.8187 85.0035 71.9991C93.9763 77.1796 104.151 76.3541 107.73 70.1554Z" fill="#F6FAFE"/>
<path d="M119.21 78.8103C123.684 78.8103 127.31 75.1839 127.31 70.7104C127.31 66.2368 123.684 62.6104 119.21 62.6104C114.737 62.6104 111.11 66.2368 111.11 70.7104C111.11 75.1839 114.737 78.8103 119.21 78.8103Z" fill="#F6FAFE"/>
</g>
<defs>
<clipPath id="clip0_4838_2056">
<rect width="452.14" height="355.44" fill="white"/>
</clipPath>
</defs>
</svg>
