<svg width="408" height="509" viewBox="0 0 408 509" fill="none" xmlns="http://www.w3.org/2000/svg">
<g clip-path="url(#clip0_4884_808)">
<path d="M203.82 508.579C316.387 508.579 407.64 486.462 407.64 459.179C407.64 431.896 316.387 409.779 203.82 409.779C91.2533 409.779 0 431.896 0 459.179C0 486.462 91.2533 508.579 203.82 508.579Z" fill="#A7A9AC"/>
<path d="M188.14 459.17C184.162 459.17 180.346 457.59 177.533 454.777C174.72 451.964 173.14 448.148 173.14 444.17V327.61C136.91 291.96 69.4 200.97 109.3 44.45C109.889 42.1527 111.015 40.0278 112.585 38.2499C114.154 36.4719 116.123 35.0915 118.33 34.222C120.537 33.3524 122.918 33.0185 125.278 33.2476C127.639 33.4767 129.912 34.2624 131.91 35.54C133.79 36.75 169.99 60.54 196.72 117.91C224.04 37.69 272.04 4.22001 274.42 2.60001C276.909 0.906022 279.849 7.60945e-05 282.86 0C286.126 0.000970908 289.303 1.06798 291.907 3.03891C294.512 5.00984 296.402 7.77701 297.29 10.92C310.05 56.01 315.29 99.67 313 140.69V140.76C307.74 233.17 265.28 292.89 237.53 322.47V444.17C237.53 448.148 235.95 451.964 233.137 454.777C230.324 457.59 226.508 459.17 222.53 459.17H188.14Z" fill="#231F20"/>
<path d="M222.52 223.49H188.13V444.18H222.52V223.49Z" fill="#66BE64"/>
<path d="M202.83 333.83L282.91 15C282.91 15 158.24 99.75 202.83 333.83Z" fill="#66BE64"/>
<path d="M282.91 15L202.83 333.83C202.83 333.83 344.91 234.36 282.91 15Z" fill="#4CA84E"/>
<g style="mix-blend-mode:multiply">
<path d="M194.48 204.64C191.53 241.42 193.39 284.28 202.83 333.83C202.83 333.83 290.47 272.48 298.05 139.9C273.85 216.06 194.48 204.64 194.48 204.64Z" fill="#4CA84E"/>
</g>
<path d="M203.57 333.83L123.83 48.1699C123.83 48.1699 238.26 121.66 203.57 333.83Z" fill="#66BE64"/>
<path d="M123.83 48.1699L203.57 333.84C203.57 333.84 73.0301 247.47 123.83 48.1699Z" fill="#4CA84E"/>
<g style="mix-blend-mode:multiply">
<path d="M208.05 217.11C211.57 250.21 210.91 288.91 203.57 333.83C203.57 333.83 123.07 280.56 113.11 161.17C136.73 229.29 208.05 217.11 208.05 217.11Z" fill="#4CA84E"/>
</g>
<path d="M180.828 173.199C187.383 170.961 189.581 160.025 185.74 148.772C181.898 137.519 173.47 130.211 166.916 132.448C160.362 134.686 158.163 145.622 162.005 156.875C165.847 168.128 174.274 175.437 180.828 173.199Z" fill="white"/>
<path d="M166.97 127.47C171.493 127.47 175.16 123.803 175.16 119.28C175.16 114.757 171.493 111.09 166.97 111.09C162.447 111.09 158.78 114.757 158.78 119.28C158.78 123.803 162.447 127.47 166.97 127.47Z" fill="white"/>
</g>
<defs>
<clipPath id="clip0_4884_808">
<rect width="407.65" height="508.58" fill="white"/>
</clipPath>
</defs>
</svg>
