<svg width="568" height="569" viewBox="0 0 568 569" fill="none" xmlns="http://www.w3.org/2000/svg">
<g clip-path="url(#clip0_3075_281)">
<path d="M250.852 297.577L187.961 360.467L206.848 379.354L269.738 316.464L250.852 297.577Z" fill="#005073"/>
<path d="M452.48 114.84C470.111 132.469 482.117 154.931 486.982 179.385C491.847 203.838 489.351 229.185 479.81 252.22C470.269 275.255 454.112 294.943 433.381 308.795C412.65 322.647 388.278 330.041 363.345 330.041C338.412 330.041 314.04 322.647 293.309 308.795C272.578 294.943 256.421 275.255 246.88 252.22C237.339 229.185 234.843 203.838 239.708 179.385C244.572 154.931 256.579 132.469 274.21 114.84C285.915 103.134 299.811 93.8481 315.105 87.5128C330.399 81.1774 346.791 77.9166 363.345 77.9166C379.899 77.9166 396.291 81.1774 411.585 87.5128C426.879 93.8481 440.775 103.134 452.48 114.84ZM473.81 93.51C446.471 66.2373 409.977 50.0909 371.406 48.203C332.836 46.3151 294.94 58.8203 265.068 83.2928C235.196 107.765 215.479 142.46 209.74 180.648C204.002 218.836 212.652 257.794 234.012 289.964C255.372 322.135 287.92 345.226 325.341 354.757C362.763 364.288 402.391 359.581 436.538 341.547C470.685 323.514 496.917 293.44 510.146 257.16C523.374 220.88 522.656 180.98 508.13 145.2C500.284 125.837 488.611 108.256 473.81 93.51Z" fill="#01669F"/>
<path d="M254.666 364.273L204.525 314.132L49.8453 468.812L99.9862 518.953L254.666 364.273Z" fill="#01669F"/>
<path d="M452.48 114.84C470.111 132.469 482.118 154.931 486.982 179.385C491.847 203.838 489.351 229.185 479.81 252.22C470.269 275.255 454.112 294.943 433.381 308.795C412.651 322.647 388.278 330.041 363.345 330.041C338.413 330.041 314.04 322.647 293.309 308.795C272.579 294.943 256.421 275.255 246.88 252.22C237.339 229.185 234.843 203.838 239.708 179.385C244.573 154.931 256.58 132.469 274.21 114.84C285.915 103.134 299.811 93.848 315.105 87.5126C330.399 81.1773 346.791 77.9165 363.345 77.9165C379.899 77.9165 396.291 81.1773 411.585 87.5126C426.879 93.848 440.775 103.134 452.48 114.84Z" fill="#BEE5EB"/>
<path d="M368.23 90.3002C368.23 90.3002 403.91 93.4902 423.4 107.48C447.92 125.09 446.4 144.69 431.13 144.69C415.86 144.69 379.52 134.48 354.87 137.03C330.22 139.58 300.54 153.03 291.02 138.39C281.5 123.75 301.09 89.4102 368.23 90.3002Z" fill="white"/>
<path d="M360.61 313.1C360.61 313.1 346.06 311.8 338.1 306.1C328.1 298.92 328.71 290.92 334.95 290.92C341.19 290.92 356.01 295.08 366.07 294.04C376.13 293 388.24 287.52 392.07 293.49C395.9 299.46 388.01 313.41 360.61 313.1Z" fill="white"/>
<path d="M254.659 364.286L204.519 314.145L190.023 328.641L240.164 378.782L254.659 364.286Z" fill="#FCB662"/>
<path d="M114.478 504.469L64.3374 454.328L49.8417 468.824L99.9827 518.965L114.478 504.469Z" fill="#FCB662"/>
<path d="M252.88 93.5098C240.273 107.998 230.11 124.444 222.79 142.2C208.381 177.634 206.703 216.967 218.04 253.5C223.805 271.819 232.519 289.076 243.84 304.59C230.134 290.528 219.568 273.718 212.84 255.27C205.985 236.689 202.892 216.931 203.74 197.144C204.588 177.357 209.361 157.936 217.78 140.01C226.076 122.211 238.037 106.366 252.88 93.5098Z" fill="#231F20"/>
<path d="M473.81 314.41C487.748 299.512 498.714 282.09 506.12 263.08C513.472 244.242 517.115 224.16 516.85 203.94C516.47 163.71 499.85 124.09 471.34 95.9399C443.2 67.4299 403.57 50.8199 363.34 50.4399C343.126 50.1848 323.054 53.842 304.23 61.2099C285.22 68.6117 267.798 79.5746 252.9 93.51C266.964 78.3871 283.981 66.3113 302.9 58.0299C312.402 53.8841 322.29 50.6854 332.42 48.48C363.204 41.8986 395.255 44.7135 424.42 56.5599C443.836 64.4835 461.475 76.2035 476.303 91.0329C491.131 105.862 502.849 123.503 510.77 142.92C518.67 162.238 522.609 182.947 522.353 203.816C522.097 224.686 517.652 245.291 509.28 264.41C501.004 283.329 488.931 300.347 473.81 314.41Z" fill="#231F20"/>
<path d="M262.72 323.48C278.231 334.808 295.489 343.526 313.81 349.29C350.35 360.608 389.682 358.922 425.12 344.52C442.872 337.183 459.315 327.014 473.81 314.41C460.956 329.25 445.109 341.205 427.31 349.49C409.384 357.907 389.964 362.676 370.179 363.52C350.394 364.365 330.638 361.268 312.06 354.41C293.617 347.694 276.802 337.153 262.72 323.48Z" fill="#231F20"/>
<path d="M243.84 304.59L231.95 317.14L220.02 329.64L219.43 330.25L218.79 329.64L203.6 315.06H205.44L186.44 334.74L167.4 354.41C154.72 367.51 141.91 380.48 129.17 393.52C116.43 406.56 103.58 419.52 90.78 432.52C77.98 445.52 65.12 458.32 52.23 471.24V466.41L77.35 491.41L102.35 516.53H97.5C110.42 503.68 123.3 490.78 136.3 477.99L175.24 439.6C188.29 426.86 201.24 414.06 214.35 401.37C227.46 388.68 240.5 375.95 253.65 363.32V365.22L237.65 348.52L237.03 347.88L237.65 347.28L250.23 335.41L262.77 323.53L250.89 336.08L238.96 348.58V347.34L255.67 363.34L256.67 364.25L255.67 365.25C243.037 378.41 230.353 391.51 217.62 404.55C204.93 417.64 192.13 430.62 179.39 443.66L140.99 482.61C128.21 495.61 115.31 508.48 102.46 521.41L100.04 523.84L97.56 521.41L72.44 496.41L47.44 471.28L45.02 468.85L47.44 466.44C60.34 453.553 73.27 440.697 86.23 427.87C99.23 415.08 112.14 402.22 125.18 389.49C138.22 376.76 151.18 363.94 164.3 351.26L183.92 332.21L203.6 313.21L204.6 312.29L205.48 313.21L220.02 328.41H218.79L231.29 316.48L243.84 304.59Z" fill="#231F20"/>
</g>
<defs>
<clipPath id="clip0_3075_281">
<rect width="477.31" height="478.82" fill="white" transform="translate(45 45)"/>
</clipPath>
</defs>
</svg>
