<svg width="34" height="22" viewBox="0 0 34 22" version="1.1" xmlns="http://www.w3.org/2000/svg" xmlns:xlink="http://www.w3.org/1999/xlink">
<title>Present Icon</title>
<desc>Created using Figma</desc>
<g id="Canvas" transform="translate(2742 931)">
<g id="Present Icon">
<g id="Oval 7 (Stroke)">
<use xlink:href="#path0_fill" transform="translate(-2712.91 -920)" fill="#323232"/>
</g>
<g id="Oval 8">
<use xlink:href="#path1_fill" transform="translate(-2717.41 -926.5)" fill="#323232"/>
</g>
<g id="Oval 8 Copy">
<use xlink:href="#path1_fill" transform="translate(-2737.41 -913.5)" fill="#323232"/>
</g>
<g id="Line (Stroke)">
<use xlink:href="#path2_fill" transform="matrix(-1 0 0 1 -2711.91 -913.5)" fill="#323232"/>
</g>
<g id="Line Copy 8 (Stroke)">
<use xlink:href="#path2_fill" transform="translate(-2738.91 -918.5)" fill="#323232"/>
</g>
<g id="Shape">
<use xlink:href="#path3_fill" transform="translate(-2715.74 -929.217)" fill="#323232"/>
</g>
<g id="Shape">
<use xlink:href="#path4_fill" transform="translate(-2742 -926.419)" fill="#323232"/>
</g>
<g id="Oval 7 Copy (Stroke)">
<use xlink:href="#path0_fill" transform="translate(-2734.91 -931)" fill="#323232"/>
</g>
<g id="Shape">
<use xlink:href="#path5_fill" transform="translate(-2730.98 -927.583)" fill="#323232"/>
</g>
<g id="Shape">
<use xlink:href="#path6_fill" transform="translate(-2724.56 -927.583)" fill="#323232"/>
</g>
<g id="Rectangle-path">
<use xlink:href="#path7_fill" transform="translate(-2732.54 -917.213)" fill="#323232"/>
</g>
<g id="Shape">
<use xlink:href="#path8_fill" transform="translate(-2733.69 -922.037)" fill="#323232"/>
</g>
<g id="Shape">
<use xlink:href="#path9_fill" transform="translate(-2724.47 -922.037)" fill="#323232"/>
</g>
<g id="Rectangle-path">
<use xlink:href="#path7_fill" transform="translate(-2724.47 -917.213)" fill="#323232"/>
</g>
</g>
</g>
<defs>
<path id="path0_fill" fill-rule="evenodd" d="M 0 1.5C 0 0.671573 0.671573 0 1.5 0C 2.32843 0 3 0.671573 3 1.5C 3 2.32843 2.32843 3 1.5 3C 0.671573 3 0 2.32843 0 1.5ZM 1.5 1C 1.22386 1 1 1.22386 1 1.5C 1 1.77614 1.22386 2 1.5 2C 1.77614 2 2 1.77614 2 1.5C 2 1.22386 1.77614 1 1.5 1Z"/>
<path id="path1_fill" fill-rule="evenodd" d="M 1 2C 1.55228 2 2 1.55228 2 1C 2 0.447715 1.55228 0 1 0C 0.447715 0 0 0.447715 0 1C 0 1.55228 0.447715 2 1 2Z"/>
<path id="path2_fill" fill-rule="evenodd" d="M 2.26424 0.0755536C 2.49869 0.221453 2.57048 0.529789 2.42458 0.764241L 0.924582 3.17467C 0.778683 3.40912 0.470347 3.48091 0.235894 3.33501C 0.00144152 3.18911 -0.0703454 2.88077 0.0755536 2.64632L 1.57555 0.235894C 1.72145 0.00144154 2.02979 -0.0703454 2.26424 0.0755536Z"/>
<path id="path3_fill" d="M 2.69659 2.56897C 2.68001 2.96023 2.74529 3.42946 3.17946 3.84342C 3.61399 4.25738 4.10619 4.31957 4.51688 4.30345C 4.65642 4.29785 4.78664 4.28371 4.90166 4.27054C 5.32306 4.22316 5.47296 4.2202 5.62839 4.36827C 5.78279 4.51536 5.77968 4.65785 5.73029 5.05963C 5.71682 5.16953 5.70162 5.29359 5.69575 5.42686C 5.67882 5.81811 5.74376 6.28702 6.17794 6.70065C 6.29606 6.81319 6.45046 6.86946 6.6052 6.86946C 6.75995 6.86946 6.91469 6.81319 7.03247 6.70065C 7.26873 6.4759 7.26873 6.11098 7.03247 5.88623C 6.87807 5.73881 6.88118 5.59665 6.93058 5.19454C 6.98411 4.76183 7.06494 4.10799 6.48293 3.55385C 5.90127 2.99971 5.21563 3.07605 4.76073 3.12673C 4.33899 3.17346 4.18909 3.17675 4.034 3.02933C 3.87891 2.88125 3.88168 2.73877 3.93107 2.336C 3.98392 1.90328 4.0644 1.24944 3.48204 0.694646C 2.89969 0.139851 2.21371 0.216522 1.75915 0.267197C 1.33879 0.313923 1.18785 0.316885 1.03207 0.168808C 0.795816 -0.0562693 0.413451 -0.0562693 0.177193 0.168808C -0.0590645 0.393556 -0.0590645 0.758484 0.177193 0.983232C 0.611714 1.39752 1.10426 1.45971 1.51495 1.44359C 1.6545 1.43799 1.78471 1.42384 1.90008 1.41101C 2.32113 1.36395 2.47207 1.36099 2.62751 1.50907C 2.78259 1.65715 2.77983 1.79963 2.73044 2.2024C 2.71731 2.31165 2.70246 2.4357 2.69659 2.56897Z"/>
<path id="path4_fill" d="M 3.53859 0.809594C 3.67399 0.519034 3.53617 0.178786 3.23118 0.0497941C 2.92481 -0.0795266 2.56835 0.0517684 2.43329 0.342658C 2.19462 0.855662 2.37388 1.2818 2.52482 1.5661C 2.54279 1.60033 2.56109 1.63323 2.57767 1.66318C 2.71031 1.90339 2.70927 1.93235 2.68648 1.98072C 2.66402 2.02876 2.64226 2.04916 2.36594 2.11662C 2.33174 2.12518 2.29375 2.13439 2.25506 2.14459C 1.9328 2.22883 1.48032 2.3881 1.24164 2.9011C 1.00296 3.41378 1.18223 3.83958 1.33352 4.12356C 1.35183 4.15778 1.36979 4.19102 1.38671 4.22129C 1.51935 4.46085 1.51831 4.48947 1.49586 4.53719C 1.47341 4.5849 1.45199 4.60497 1.17636 4.6721C 1.14182 4.68033 1.10382 4.68987 1.06514 4.70007C 0.742529 4.78398 0.290737 4.94292 0.0520615 5.45559C -0.0833378 5.74648 0.0544793 6.0864 0.359818 6.21539C 0.439262 6.24929 0.522505 6.26508 0.604366 6.26508C 0.836134 6.26508 1.05754 6.13741 1.15736 5.92253C 1.17947 5.87482 1.20123 5.85507 1.47652 5.78794C 1.79705 5.70996 2.33347 5.57899 2.60116 5.00478C 2.8685 4.43024 2.61049 3.96331 2.45609 3.68459C 2.32345 3.44504 2.32449 3.41641 2.34694 3.36869C 2.36939 3.32065 2.39115 3.30025 2.66748 3.23279C 2.98801 3.15415 3.52409 3.02285 3.79177 2.44864C 4.05946 1.87377 3.80179 1.40651 3.64774 1.12747C 3.51476 0.886594 3.5158 0.857966 3.53859 0.809594Z"/>
<path id="path5_fill" fill-rule="evenodd" d="M 0.716492 0.6828C 1.19427 0.227722 1.82001 0 2.44623 0C 3.07245 0 3.69843 0.227356 4.17645 0.6828C 4.76703 1.24585 5.16522 2.8855 5.38324 4.05536C 5.34344 4.28534 5.31 4.49561 5.28339 4.67627L 3.57269 4.67627L 2.72186 4.67627L 2.21185 4.67627C 1.56927 4.48706 1.00629 4.25507 0.716492 3.979C -0.238831 3.06879 -0.238831 1.59296 0.716492 0.6828ZM 2.48334 3.04578L 2.72211 3.04578L 3.40912 3.04578C 3.17621 2.18695 2.98553 1.87634 2.94403 1.81512C 2.76215 1.65485 2.5556 1.63019 2.44647 1.63019C 2.3327 1.63019 2.1142 1.65686 1.92645 1.83551C 1.64667 2.10175 1.63983 2.53082 1.90546 2.80524C 1.94891 2.83258 2.10687 2.92175 2.48334 3.04578Z"/>
<path id="path6_fill" fill-rule="evenodd" d="M 2.66089 4.67627L 1.8103 4.67627L 0.0998535 4.67627C 0.072998 4.49561 0.0397949 4.28534 0 4.05536C 0.218018 2.88586 0.615967 1.24585 1.20679 0.6828C 1.68457 0.227722 2.31079 0 2.93652 0C 3.5625 0 4.18872 0.227722 4.6665 0.6828C 5.62183 1.59296 5.62183 3.06879 4.6665 3.979C 4.37671 4.25507 3.81372 4.48706 3.17114 4.67627L 2.66089 4.67627ZM 2.93677 1.63019C 2.82764 1.63019 2.62109 1.65485 2.43896 1.81512C 2.39771 1.87634 2.20703 2.18695 1.97412 3.04547L 2.66113 3.04547L 2.8999 3.04547C 3.27637 2.92175 3.43384 2.83221 3.47778 2.80493C 3.74341 2.53082 3.73608 2.10138 3.45654 1.83521C 3.26929 1.65686 3.05029 1.63019 2.93677 1.63019Z"/>
<path id="path7_fill" d="M 0 0L 6.85424 0L 6.85424 7.95503L 0 7.95503L 0 0Z"/>
<path id="path8_fill" d="M 0 3.66145L 7.99961 3.66145L 7.99961 0.455748L 7.99961 0L 0 0L 0 3.66145Z"/>
<path id="path9_fill" d="M 0 0.455748L 0 3.66145L 7.99926 3.66145L 7.99926 0L 0 0L 0 0.455748Z"/>
</defs>
</svg>
