<svg width="25" height="30" viewBox="0 0 25 30" fill="none" xmlns="http://www.w3.org/2000/svg">
<path d="M12.4932 28.6906C14.4534 26.8027 16.2204 25.218 17.7113 23.9226C18.8847 22.9028 19.851 22.1036 21.1762 22.1174C21.3419 22.1174 22.9846 22.1725 23.6748 23.3714C24.5169 24.8183 23.2055 26.6236 23.1226 26.7476C22.6257 27.409 21.825 28.0154 19.8372 28.4977C18.3601 28.856 15.8201 29.2556 12.4932 28.6906Z" stroke="#A3A3A3" stroke-width="1.5" stroke-miterlimit="10"/>
<path d="M12.4937 28.6906C10.5334 26.8027 8.76643 25.218 7.27554 23.9226C6.10216 22.9028 5.13584 22.1036 3.8106 22.1174C3.64495 22.1174 2.00221 22.1725 1.31199 23.3714C0.469909 24.8045 1.78134 26.6098 1.87797 26.7338C2.37493 27.3953 3.1756 28.0016 5.16345 28.4839C6.64053 28.856 9.16676 29.2556 12.4937 28.6906Z" stroke="#A3A3A3" stroke-width="1.5" stroke-miterlimit="10"/>
<path d="M3.28564 22.1588C3.1614 20.8083 3.53412 19.0582 3.69977 18.2865C4.05869 16.5777 4.39 15.117 5.6048 13.6976C7.86874 11.0518 11.3889 10.9829 12.1205 10.9691C12.8246 10.9553 16.1238 10.8864 18.5811 13.298C20.1824 14.8552 20.6379 16.6742 21.1211 18.5621C21.618 20.5465 21.3972 21.6489 21.3282 21.9521C21.3143 22.0072 21.3005 22.0623 21.2867 22.1312" stroke="#A3A3A3" stroke-width="1.5" stroke-miterlimit="10" stroke-linecap="round"/>
<path d="M16.0967 15.2139C15.9449 18.6865 16.6627 21.1808 17.2977 22.738C17.4496 23.1101 17.6014 23.4959 17.7809 23.8542" stroke="#A3A3A3" stroke-width="1.5" stroke-miterlimit="10" stroke-linecap="round"/>
<path d="M6.41895 23.1926C6.5846 23.0686 6.73645 22.9307 6.87449 22.7929C7.44048 22.2142 7.61994 21.5114 7.90983 18.5624C8.04788 17.143 8.14451 15.9441 8.19973 15.0483" stroke="#A3A3A3" stroke-width="1.5" stroke-miterlimit="10" stroke-linecap="round"/>
<path d="M12.3548 8.61293C14.4514 8.61293 16.1511 6.91626 16.1511 4.82331C16.1511 2.73036 14.4514 1.03369 12.3548 1.03369C10.2582 1.03369 8.55859 2.73036 8.55859 4.82331C8.55859 6.91626 10.2582 8.61293 12.3548 8.61293Z" stroke="#A3A3A3" stroke-width="1.5" stroke-miterlimit="10" stroke-linecap="round"/>
</svg>
