<svg width="766" height="904" viewBox="0 0 766 904" fill="none" xmlns="http://www.w3.org/2000/svg">
<g clip-path="url(#clip0_5083_298)">
<path d="M348.403 903.13C466.473 903.13 562.188 883.702 562.188 859.736C562.188 835.77 466.473 816.342 348.403 816.342C230.332 816.342 134.618 835.77 134.618 859.736C134.618 883.702 230.332 903.13 348.403 903.13Z" fill="#A7A9AC"/>
<path d="M334.347 870.523C331.226 870.526 328.204 869.438 325.81 867.451C323.417 865.464 321.805 862.705 321.258 859.657C308.433 789.067 308.859 703.966 322.489 606.672C323.206 601.542 324.012 596.131 324.933 590.14C292.181 555.571 264.882 516.293 243.959 473.635C242.111 469.887 240.298 466.081 238.521 462.216C237.387 462.216 236.254 462.119 235.129 461.996C232.538 464.864 229.557 467.359 226.272 469.41C224.713 470.343 222.976 470.947 221.171 471.186C219.366 471.425 217.531 471.293 215.779 470.799C214.028 470.305 212.397 469.458 210.989 468.313C209.581 467.167 208.426 465.747 207.594 464.14C206.709 462.444 205.327 459.95 203.503 456.778C202.694 456.831 201.879 456.858 201.058 456.858H200.084C196.755 459.169 192.811 460.453 188.748 460.547C185.698 460.571 182.703 459.744 180.103 458.162C177.504 456.579 175.405 454.304 174.046 451.596C171.85 447.001 170.272 442.14 169.352 437.137C167.032 436.321 164.766 435.358 162.568 434.256C151.206 428.564 149.47 423.785 148.735 421.747C148.463 421.014 148.258 420.259 148.123 419.49C137.136 423.542 125.542 425.739 113.823 425.99H112.627C108.043 425.989 103.466 425.643 98.935 424.953H98.7755L96.7563 424.619H96.588C92.2515 423.838 87.9797 422.737 83.8082 421.325L83.6665 421.281C83.0023 421.053 82.3292 420.825 81.6561 420.579L81.4347 420.5L79.4154 419.735L79.256 419.665C75.6169 418.236 72.0679 416.59 68.6283 414.737L68.4955 414.658C67.8313 414.307 67.1936 413.947 66.5471 413.578L66.2459 413.402C65.6083 413.042 64.9795 412.673 64.3507 412.286L64.0673 412.12C63.4208 411.724 62.7654 411.32 62.1189 410.899L62.0392 410.855C59.2582 409.098 56.4773 407.121 53.7584 405.022L53.6433 404.934C53.0322 404.46 52.4122 403.968 51.8011 403.476L51.4735 403.212C50.8535 402.712 50.269 402.22 49.7022 401.728L49.2859 401.385L47.5146 399.883L47.1781 399.585C44.5212 397.239 41.8642 394.692 39.3136 392.039C39.273 392.003 39.2346 391.965 39.1985 391.925C25.5684 377.703 12.7975 358.738 1.34615 335.583C0.195303 333.256 -0.237884 330.643 0.100812 328.073C0.439508 325.503 1.53504 323.089 3.25028 321.133C5.15441 318.963 47.7803 271.063 103.177 264.914L103.08 264.334C102.965 263.64 102.85 262.894 102.743 262.147V261.936C102.628 261.058 102.513 260.232 102.416 259.38C102.416 259.327 102.416 259.231 102.416 259.16C102.327 258.431 102.247 257.685 102.176 256.938L102.114 256.2C102.061 255.611 102.017 255.04 101.973 254.443L101.92 253.565C101.92 253.038 101.858 252.502 101.831 251.966C101.831 251.641 101.831 251.325 101.831 251.009C101.831 250.464 101.831 249.928 101.787 249.392C101.787 249.392 101.787 248.716 101.787 248.461C101.787 247.899 101.787 247.319 101.787 246.704V245.922C101.787 245.044 101.84 244.21 101.884 243.375C102.929 224.419 113.229 204.909 128.852 191.346C128.462 189.985 128.108 188.632 127.789 187.279V187.174C126.631 182.43 125.864 177.6 125.495 172.733C125.5 172.698 125.5 172.662 125.495 172.627C125.495 171.942 125.416 171.248 125.389 170.554C125.389 170.554 125.389 170.457 125.389 170.44C125.219 166.042 125.373 161.639 125.85 157.264V157.149C125.929 156.411 126.018 155.718 126.115 155.015C126.115 155.015 126.115 154.804 126.115 154.786C126.213 154.075 126.319 153.372 126.434 152.661V152.52C127.061 148.698 127.919 144.917 129.002 141.197L129.064 140.969C129.25 140.336 129.463 139.642 129.693 138.931L129.8 138.58C130.012 137.912 130.242 137.227 130.482 136.533L130.588 136.217C130.836 135.505 131.093 134.785 131.358 134.064V134.003C132.51 130.92 133.838 127.793 135.308 124.709V124.621C135.671 123.866 136.017 123.172 136.371 122.469L136.566 122.074C136.92 121.389 137.266 120.712 137.62 120.045L137.885 119.553C138.231 118.903 138.603 118.227 138.993 117.541L139.187 117.19C140.959 114.098 142.863 110.971 144.926 107.923L144.979 107.835C156.032 91.426 171.93 74.9556 192.246 58.8629C194.288 57.246 196.764 56.2619 199.367 56.0338C201.969 55.8057 204.581 56.3437 206.877 57.5804C209.738 59.0913 274.478 94.5531 287.231 154.04C293.891 185.118 285.238 216.408 261.548 247.152L261.468 247.249C259.95 249.217 258.386 251.161 256.774 253.082L256.375 253.547L254.799 255.304L254.684 255.445C253.701 256.578 252.682 257.728 251.637 258.879L250.964 259.626L249.591 261.11L248.44 262.331C248.785 268.48 249.326 275.508 250.079 283.22C254.555 274.159 260.43 265.846 267.49 258.581C299.294 225.824 348.473 220.931 374.963 220.931C381.121 220.894 387.276 221.187 393.402 221.81C395.995 222.118 398.439 223.177 400.428 224.855C402.418 226.533 403.864 228.755 404.588 231.244C407.055 239.747 409.075 247.981 410.645 255.945C419.106 231.303 428.013 206.599 437.365 181.833L436.94 180.955C436.258 179.531 435.612 178.144 434.983 176.764L434.885 176.562L433.964 174.489L433.716 173.927C432.707 171.599 431.732 169.263 430.847 166.988V166.891C416.818 130.814 417.42 98.3743 432.618 70.3966C461.756 16.9008 533.953 1.00141 537.017 0.307457C537.935 0.115492 538.87 0.0183469 539.807 0.0175781C541.941 0.0179774 544.044 0.528302 545.937 1.50536C547.83 2.48242 549.458 3.89744 550.683 5.63068C565.606 26.7128 576.181 47.0043 582.123 65.8288V65.9342C583.23 69.4479 584.196 72.9616 584.993 76.4313L585.09 76.8354C585.258 77.5821 585.418 78.3375 585.577 79.093L585.683 79.6112C585.834 80.3491 585.976 81.087 586.117 81.8248L586.188 82.2553C586.339 83.0546 586.472 83.8189 586.596 84.5831V84.7763C587.127 88.1055 587.481 91.4699 587.738 94.7464V94.8342C587.791 95.5985 587.836 96.3539 587.862 97.1094V97.408C587.862 98.1635 587.915 98.8925 587.933 99.6041V99.9906C587.933 100.702 587.933 101.431 587.933 102.16V102.31C587.91 106.198 587.655 110.081 587.171 113.94V113.94C587.074 114.739 586.968 115.442 586.861 116.145V116.356C586.746 117.076 586.631 117.77 586.507 118.464C586.507 118.464 586.507 118.595 586.507 118.622C585.728 122.945 584.627 127.206 583.213 131.368V131.482C582.991 132.132 582.752 132.782 582.522 133.423L582.477 133.537C580.778 138.133 578.705 142.583 576.278 146.845V146.845C573.872 151.013 571.158 154.997 568.157 158.766C565.475 162.157 562.588 165.383 559.513 168.428C569.131 180.823 574.303 195.659 575.127 206.297C575.286 208.37 575.386 210.528 575.428 212.771C579.927 208.672 584.305 204.54 588.562 200.376C588.42 198.62 588.305 196.968 588.216 195.369C588.216 195.369 588.216 195.282 588.216 195.238C585.985 155.963 595.656 124.683 616.955 102.327C646.182 71.6967 689.649 65.2754 721.009 65.2754C729.782 65.2215 738.548 65.7763 747.242 66.9356C749.823 67.3353 752.228 68.481 754.156 70.2294C756.085 71.9777 757.45 74.2511 758.082 76.7651C764.379 101.791 766.939 124.455 765.672 144.14C765.676 144.181 765.676 144.222 765.672 144.263C765.433 147.961 765.061 151.58 764.556 155.067L764.494 155.48C764.388 156.236 764.264 157 764.14 157.755L764.052 158.283C763.928 159.029 763.795 159.767 763.653 160.505L763.573 160.935C763.423 161.726 763.263 162.49 763.104 163.246V163.448C762.404 166.733 761.545 170.018 760.571 173.154C760.559 173.202 760.544 173.249 760.527 173.295C760.323 173.962 760.084 174.691 759.845 175.412L759.747 175.702C759.508 176.413 759.26 177.098 759.021 177.775L758.924 178.021C758.649 178.794 758.384 179.479 758.118 180.155C758.118 180.155 758.074 180.278 758.065 180.305C756.64 183.912 754.999 187.432 753.149 190.846L753.079 190.986C752.751 191.575 752.405 192.198 752.051 192.822L751.927 193.042C751.582 193.639 751.219 194.245 750.856 194.851L750.794 194.948C748.494 198.714 745.919 202.308 743.089 205.7L743.018 205.779C742.566 206.315 742.132 206.842 741.663 207.351L741.601 207.43C738.344 211.127 734.79 214.556 730.973 217.681L730.92 217.725C727.21 220.743 723.279 223.482 719.158 225.921C715.366 228.163 711.438 230.173 707.397 231.938C714.411 252.467 709.842 274.902 703.987 286.4C698.514 297.126 673.371 337.19 650.326 337.19C649.946 337.19 649.565 337.19 649.193 337.19C647.425 337.093 645.693 336.649 644.1 335.881C643.36 336.005 642.61 336.066 641.86 336.066C640.15 336.065 638.457 335.737 636.874 335.1C636.688 335.029 636.085 334.775 635.102 334.335C634.106 334.563 633.087 334.678 632.064 334.678C629.853 334.682 627.676 334.135 625.732 333.088C618.815 329.355 611.943 322.231 608.462 318.313C605.956 315.485 603.538 312.48 601.288 309.371L601.147 309.169C600.739 308.615 600.35 308.062 599.951 307.491L599.694 307.113C599.34 306.604 598.986 306.077 598.632 305.55L598.339 305.11C598.003 304.592 597.657 304.065 597.321 303.529L597.046 303.099C596.665 302.493 596.285 301.878 595.913 301.254L595.797 301.07C595.381 300.376 594.965 299.664 594.566 298.944C594.566 298.944 594.496 298.821 594.46 298.768C594.106 298.145 593.761 297.512 593.424 296.88L593.087 296.247C592.831 295.755 592.574 295.263 592.326 294.763L591.936 293.99L591.263 292.584C591.13 292.312 590.997 292.031 590.873 291.758C590.661 291.293 590.448 290.827 590.245 290.353L589.881 289.536L589.244 287.99C589.244 287.99 589.031 287.463 588.96 287.27C588.659 286.514 588.376 285.75 588.075 284.986C587.508 283.405 587.003 281.78 586.569 280.128C541.587 316.899 490.034 349.963 432.919 378.643C432.211 381.067 431.493 383.527 430.785 386.013C450.836 393.848 480.611 408.896 500.688 434.423C503.128 420.705 508.517 407.67 516.488 396.203C551.17 346.071 624.661 337.805 627.778 337.48C628.243 337.428 628.71 337.401 629.177 337.401C631.548 337.406 633.873 338.04 635.914 339.237C637.954 340.434 639.634 342.151 640.779 344.209C653.355 366.776 661.707 388.024 665.577 407.367C665.581 407.399 665.581 407.432 665.577 407.464C666.303 411.074 666.888 414.693 667.348 418.216L667.393 418.611C667.481 419.384 667.57 420.157 667.641 420.913L667.694 421.457C667.765 422.195 667.827 422.942 667.889 423.697V424.154C667.951 424.944 668.004 425.718 668.039 426.491C668.044 426.558 668.044 426.625 668.039 426.693C668.216 430.031 668.243 433.412 668.119 436.689C668.119 437.567 668.048 438.305 668.004 439.061V439.386C667.951 440.115 667.898 440.835 667.836 441.564V441.898C667.774 442.636 667.694 443.365 667.614 444.085V444.305C667.181 448.147 666.515 451.961 665.621 455.724V455.839C665.456 456.53 665.279 457.223 665.09 457.92L665.037 458.14C664.851 458.825 664.665 459.502 664.461 460.178V460.318C663.213 464.524 661.659 468.634 659.812 472.616V472.704C659.519 473.337 659.218 473.969 658.926 474.584L658.864 474.707C656.681 479.088 654.143 483.286 651.274 487.26L651.203 487.356C641.674 500.533 628.283 511.671 611.349 520.56C621.198 532.999 621.091 542.521 621.038 550.234C620.857 553.261 621.114 556.299 621.8 559.255C621.853 559.472 621.918 559.686 621.995 559.896H622.057C622.26 559.908 622.464 559.908 622.668 559.896C623.954 559.461 625.303 559.238 626.662 559.237C628.505 559.261 630.322 559.672 631.992 560.445C633.662 561.217 635.148 562.332 636.351 563.717C639.894 567.679 640.363 573.512 638.051 578.317L637.812 578.809C638.583 579.3 639.353 579.801 640.106 580.311L640.248 580.407L642.019 581.611L642.205 581.742L643.976 583.016L644.091 583.104C647.193 585.457 650.15 587.992 652.948 590.694L653.09 590.825C653.594 591.308 654.117 591.836 654.64 592.363L654.887 592.609C655.392 593.118 655.897 593.645 656.402 594.181L656.65 594.444C657.146 594.971 657.66 595.534 658.182 596.113L658.244 596.184C660.44 598.634 662.593 601.261 664.638 604.002L664.7 604.089C665.187 604.748 665.648 605.381 666.1 606.013L666.383 606.409C666.808 607.006 667.269 607.621 667.667 608.253L667.951 608.666L669.244 610.625L669.465 610.968C671.405 613.972 673.282 617.116 675.036 620.384L675.098 620.516C684.45 637.838 691.606 659.509 696.353 684.869C696.83 687.416 696.539 690.047 695.517 692.431C694.494 694.815 692.786 696.847 690.605 698.274C688.834 699.451 645.81 727.2 597.657 727.2C566.164 727.2 523.024 714.964 496.349 656.698V656.645C495.33 654.414 494.321 652.095 493.355 649.732L493.134 649.188C492.833 648.45 492.532 647.712 492.248 646.974L492.169 646.763C491.637 645.41 491.097 643.97 490.557 642.512L490.22 641.58L489.538 639.683L488.971 638.032L488.467 636.565L488.148 635.607C475.892 647.304 462.999 658.324 449.525 668.618C425.078 687.362 398.883 703.748 371.296 717.555C369.366 768.301 372.076 816.816 379.001 854.984C379.346 856.881 379.267 858.831 378.769 860.694C378.271 862.558 377.367 864.291 376.12 865.77C374.874 867.25 373.315 868.44 371.554 869.256C369.793 870.073 367.873 870.496 365.929 870.497L334.347 870.523ZM390.497 553.879C384.395 586.618 379.657 618.206 376.327 648.265C389.456 640.241 402.147 631.533 414.347 622.176C428.245 611.502 441.409 599.919 453.749 587.505L451.402 586.732L450.118 586.301L448.878 585.88C446.673 585.116 444.45 584.307 442.272 583.482L440.669 582.867L439.216 582.296C436.285 581.136 433.344 579.889 430.501 578.615L428.845 577.869C425.71 576.428 422.646 574.926 419.697 573.38H419.652C419.139 573.116 418.634 572.844 418.129 572.572H418.067C414.312 570.551 410.645 568.417 407.191 566.23H407.12C401.283 562.513 395.721 558.385 390.479 553.879H390.497ZM279.792 409.634C294.173 447.639 313.867 483.45 338.297 516.019C347.154 472.976 358.189 427.966 371.287 381.621L371.022 381.796C359.384 389.272 345.498 394.832 329.742 398.32C325.712 399.198 321.514 399.98 317.254 400.595H317.157C313.287 401.157 309.284 401.605 305.245 401.939L303.474 402.079C300.365 402.308 297.168 402.475 293.989 402.571L292.315 402.624H290.667C289.49 402.624 288.241 402.624 287.027 402.624H283.68H282.077C281.589 404.511 280.998 406.37 280.305 408.193C280.155 408.676 279.969 409.159 279.783 409.634H279.792ZM470.869 260.636C466.388 273.432 462.033 286.201 457.806 298.944C470.205 291.618 482.246 284.052 493.931 276.246L492.372 275.473C491.726 275.156 491.07 274.814 490.415 274.471L490.247 274.375C489.521 273.997 488.794 273.601 488.077 273.197L487.891 273.092C487.262 272.741 486.642 272.38 486.022 272.02L485.402 271.643L483.976 270.764L483.25 270.299L481.939 269.42L481.169 268.902L479.885 268.024L479.176 267.514C478.698 267.171 478.291 266.846 477.803 266.513L477.166 266.038C476.537 265.555 475.899 265.054 475.271 264.545C473.747 263.339 472.28 262.036 470.869 260.636Z" fill="#231F20"/>
<path d="M548.549 266.24C548.549 266.24 513.353 262.841 487.864 244.28C462.376 225.719 452.51 177.625 499.077 161.032C538.293 147.048 560.39 187.235 561.957 207.29C563.525 227.344 558.671 260.882 548.549 266.24Z" fill="#E9E7E9"/>
<path d="M487.625 253.291C463.607 233.72 453.617 184.616 492.204 163.824C558.698 203.098 541.056 269.402 541.056 269.402C541.056 269.402 512.937 273.925 487.625 253.291Z" fill="#D8D8D8"/>
<path d="M531.987 273.231C522.245 273.688 499.13 266.933 483.675 254.389C457.221 232.903 451.704 178.072 492.204 163.824C479.593 223.68 531.704 273.003 531.987 273.231Z" fill="#D6CDD7"/>
<g style="mix-blend-mode:multiply" opacity="0.58">
<path d="M514.133 270.06C504.134 266.96 492.638 261.645 483.702 254.389C457.248 232.903 451.73 178.072 492.231 163.824C442.325 204.17 514.133 270.06 514.133 270.06Z" fill="#B6BCCC"/>
</g>
<path d="M547.829 245.895C552.991 244.901 555.897 237.57 554.322 229.522C552.746 221.473 547.284 215.754 542.122 216.749C536.96 217.743 534.054 225.073 535.629 233.122C537.205 241.17 542.667 246.889 547.829 245.895Z" fill="#F6FAFE"/>
<path d="M545.254 212.973C548.771 212.973 551.622 210.146 551.622 206.658C551.622 203.169 548.771 200.342 545.254 200.342C541.737 200.342 538.886 203.169 538.886 206.658C538.886 210.146 541.737 212.973 545.254 212.973Z" fill="#F6FAFE"/>
<path d="M145.103 305.901C145.103 305.901 126.222 274.277 126.301 241.398C126.381 208.519 161.249 170.51 204.238 199.234C240.425 223.487 219.825 266.872 203.68 280.593C187.535 294.314 155.935 311.083 145.103 305.901Z" fill="#E9E7E9"/>
<path d="M118.446 246.784C120.279 214.529 155.97 175.764 197.587 195.265C205.23 275.35 137.77 301.554 137.77 301.554C137.77 301.554 116.48 280.779 118.446 246.784Z" fill="#D8D8D8"/>
<path d="M128.879 296.343C122.467 288.438 113.911 264.878 115.054 244.148C117.002 208.659 160.354 170.106 197.569 195.264C138.727 221.722 128.879 295.957 128.879 296.343Z" fill="#D6CDD7"/>
<g style="mix-blend-mode:multiply" opacity="0.58">
<path d="M120.527 279.372C116.984 269.068 114.407 256.138 115.071 244.148C117.02 208.659 160.372 170.106 197.587 195.264C132.315 178.38 120.527 279.372 120.527 279.372Z" fill="#B6BCCC"/>
</g>
<path d="M179.933 288.051C185.822 281.75 187.321 273.632 183.282 269.918C179.243 266.204 171.195 268.302 165.306 274.603C159.417 280.904 157.917 289.022 161.956 292.736C165.995 296.45 174.044 294.352 179.933 288.051Z" fill="#F6FAFE"/>
<path d="M193.876 272.899C197.564 272.899 200.553 269.934 200.553 266.276C200.553 262.618 197.564 259.652 193.876 259.652C190.188 259.652 187.198 262.618 187.198 266.276C187.198 269.934 190.188 272.899 193.876 272.899Z" fill="#F6FAFE"/>
<path d="M669.917 119.535C669.766 119.842 654.223 150.737 613.971 193.437C580.432 229.021 523.069 279.592 434.717 327.132C475.846 197.064 518.49 101.448 518.959 100.403L489.822 87.5254C489.299 88.7025 436.825 206.332 391.719 358.694C372.235 424.575 356.878 487.417 345.87 546.333C285.301 476.78 258.191 398.583 246.067 342.742C231.338 274.928 234.828 224.234 234.872 223.733L219.001 222.574L203.06 221.388C202.892 223.593 199.154 276.289 214.644 348.302C223.426 389.681 237.28 429.84 255.897 467.881C277.169 511.285 305.237 551.072 339.059 585.765C337.843 593.425 336.703 601.012 335.64 608.525C322.196 704.422 321.753 788.127 334.347 857.346H365.726C358.127 815.586 355.603 762.152 358.136 709.166C387.546 695.119 415.384 678.042 441.191 658.217C469.868 636.257 494.932 611.881 515.7 585.695C541.835 552.737 561.195 516.844 573.267 479.028L542.827 469.498C518.233 546.799 463.801 600.839 422.469 632.594C402.98 647.549 382.284 660.888 360.589 672.474C368.241 583.455 388.761 481.356 421.778 369.419C530.783 315.511 599.747 255.075 638.494 213.702C681.457 167.822 697.903 134.758 698.576 133.37L669.917 119.535Z" fill="#66BE64"/>
<path d="M649.822 324.031C649.822 324.031 621.481 303.037 609.401 274.049C597.321 245.061 613.971 198.891 662.433 208.606C703.288 216.802 701.189 262.524 692.031 280.479C682.874 298.434 661.273 324.698 649.822 324.031Z" fill="#E9E7E9"/>
<path d="M604.468 281.656C594.15 252.572 611.252 205.436 655.118 207.482C691.429 275.244 641.762 322.889 641.762 322.889C641.762 322.889 615.353 312.313 604.468 281.656Z" fill="#D8D8D8"/>
<path d="M632.003 321.501C623.447 316.898 607.205 299.233 600.527 280.567C589.12 248.592 613.05 198.873 655.127 207.482C613.068 252.202 631.923 321.185 632.003 321.501Z" fill="#D6CDD7"/>
<g style="mix-blend-mode:multiply" opacity="0.58">
<path d="M618.364 309.598C611.438 301.807 604.379 291.362 600.527 280.567C589.12 248.592 613.05 198.873 655.127 207.482C591.387 216.354 618.364 309.598 618.364 309.598Z" fill="#B6BCCC"/>
</g>
<path d="M673.91 295.64C676.767 287.946 675.083 280.248 670.149 278.446C665.215 276.643 658.899 281.419 656.042 289.113C653.185 296.806 654.869 304.504 659.803 306.307C664.737 308.109 671.053 303.334 673.91 295.64Z" fill="#F6FAFE"/>
<path d="M678.127 277.694C681.644 277.694 684.495 274.866 684.495 271.378C684.495 267.89 681.644 265.062 678.127 265.062C674.61 265.062 671.759 267.89 671.759 271.378C671.759 274.866 674.61 277.694 678.127 277.694Z" fill="#F6FAFE"/>
<path d="M605.92 227.659L745.205 79.9531C791.87 265.449 605.92 227.659 605.92 227.659Z" fill="#4CA84E"/>
<path d="M745.205 79.9537L605.92 227.66C570.548 52.8984 745.205 79.9537 745.205 79.9537Z" fill="#66BE64"/>
<g style="mix-blend-mode:multiply">
<path d="M601.2 184.688C601.353 199.131 602.934 213.524 605.92 227.66C605.92 227.66 745.223 255.963 752.423 143.332C734.905 163.167 671.343 224.665 601.2 184.688Z" fill="#4CA84E"/>
</g>
<path d="M220.914 270.43L200.615 69.1836C50.0565 188.491 220.914 270.43 220.914 270.43Z" fill="#4CA84E"/>
<path d="M200.615 69.1836L220.888 270.43C355.992 152.853 200.615 69.1836 200.615 69.1836Z" fill="#66BE64"/>
<g style="mix-blend-mode:multiply">
<path d="M250.964 239.132C242 250.511 231.936 260.994 220.914 270.43C220.914 270.43 92.9038 209.046 156.13 115.178C157.892 141.513 170.761 228.661 250.964 239.132Z" fill="#4CA84E"/>
</g>
<path d="M215.76 353.687L13.2847 329.785C98.1114 501.464 215.76 353.687 215.76 353.687Z" fill="#4CA84E"/>
<path d="M13.2847 329.786L215.76 353.688C129.277 197.47 13.2847 329.786 13.2847 329.786Z" fill="#66BE64"/>
<g style="mix-blend-mode:multiply">
<path d="M191.458 317.848C200.72 328.978 208.86 340.982 215.76 353.687C215.76 353.687 127.621 464.368 48.9141 382.807C75.2176 386.839 163.791 393.216 191.458 317.848Z" fill="#4CA84E"/>
</g>
<path d="M258.005 387.506L391.843 234.916C445.203 418.629 258.005 387.506 258.005 387.506Z" fill="#4CA84E"/>
<path d="M391.843 234.916L258.005 387.506C216.318 214.115 391.843 234.916 391.843 234.916Z" fill="#66BE64"/>
<g style="mix-blend-mode:multiply">
<path d="M251.726 344.727C252.408 359.156 254.511 373.484 258.005 387.506C258.005 387.506 398.237 410.784 401.355 297.969C384.572 318.454 323.277 382.174 251.726 344.727Z" fill="#4CA84E"/>
</g>
<path d="M494.578 610.247L683.104 687.293C647.944 499.32 494.578 610.247 494.578 610.247Z" fill="#4CA84E"/>
<path d="M683.104 687.292L494.578 610.246C535.521 783.804 683.104 687.292 683.104 687.292Z" fill="#66BE64"/>
<g style="mix-blend-mode:multiply">
<path d="M508.261 651.279C502.356 638.079 497.773 624.336 494.578 610.248C494.578 610.248 609.463 527.158 663.168 626.691C638.911 615.825 555.341 586.038 508.261 651.279Z" fill="#4CA84E"/>
</g>
<path d="M532.952 528.888L629.177 350.568C722.444 517.899 532.952 528.888 532.952 528.888Z" fill="#4CA84E"/>
<path d="M629.178 350.578L532.953 528.897C453.387 369.06 629.178 350.578 629.178 350.578Z" fill="#66BE64"/>
<g style="mix-blend-mode:multiply">
<path d="M517.232 488.577C521.128 502.492 526.393 515.994 532.953 528.887C532.953 528.887 674.894 520.648 652.603 409.949C640.841 433.623 595.381 509.281 517.232 488.577Z" fill="#4CA84E"/>
</g>
<path d="M478.237 580.381L405.199 391.547C291.615 545.991 478.237 580.381 478.237 580.381Z" fill="#4CA84E"/>
<path d="M405.199 391.547L478.202 580.407C577.314 431.673 405.199 391.547 405.199 391.547Z" fill="#66BE64"/>
<g style="mix-blend-mode:multiply">
<path d="M498.917 542.337C493.295 555.659 486.368 568.401 478.238 580.382C478.238 580.382 338.439 554.617 374.511 447.547C383.199 472.494 418.767 553.194 498.917 542.337Z" fill="#4CA84E"/>
</g>
<path d="M463.155 200.595L539.816 13.1758C650.406 169.754 463.155 200.595 463.155 200.595Z" fill="#4CA84E"/>
<path d="M539.816 13.1758L463.155 200.595C366.966 50.0255 539.816 13.1758 539.816 13.1758Z" fill="#66BE64"/>
<g style="mix-blend-mode:multiply">
<path d="M443.219 162.191C448.583 175.619 455.26 188.494 463.155 200.631C463.155 200.631 603.423 177.519 569.432 69.7461C560.266 94.5527 523.148 174.533 443.219 162.191Z" fill="#4CA84E"/>
</g>
<path d="M660.149 132.189C670.348 120.871 673.173 106.871 666.459 100.919C659.745 94.9676 646.035 99.3177 635.836 110.636C625.636 121.954 622.811 135.954 629.525 141.906C636.239 147.858 649.95 143.508 660.149 132.189Z" fill="white"/>
<path d="M636.794 164.308C640.893 164.308 644.215 161.013 644.215 156.947C644.215 152.882 640.893 149.586 636.794 149.586C632.695 149.586 629.372 152.882 629.372 156.947C629.372 161.013 632.695 164.308 636.794 164.308Z" fill="white"/>
<path d="M555.802 100.859C562.63 100.859 568.166 95.3693 568.166 88.5967C568.166 81.8242 562.63 76.334 555.802 76.334C548.974 76.334 543.438 81.8242 543.438 88.5967C543.438 95.3693 548.974 100.859 555.802 100.859Z" fill="white"/>
<path d="M562.654 411.827C569.512 404.021 570.739 393.95 565.396 389.332C560.053 384.714 550.162 387.297 543.304 395.102C536.447 402.907 535.219 412.978 540.563 417.597C545.906 422.215 555.797 419.632 562.654 411.827Z" fill="white"/>
<path d="M580.954 398.557C584.584 398.557 587.526 395.639 587.526 392.039C587.526 388.44 584.584 385.521 580.954 385.521C577.325 385.521 574.383 388.44 574.383 392.039C574.383 395.639 577.325 398.557 580.954 398.557Z" fill="white"/>
<path d="M597.835 609.957C582.46 611.785 576.854 598.248 576.854 598.248C572.948 611.293 566.563 615.685 560.425 616.44C559.699 620.832 559.105 624.855 559.265 625.69C559.637 627.649 573.355 620.059 577.057 612.979C577.057 612.979 588.509 618.021 596.541 618.25C600.66 618.381 600.855 613.568 599.42 608.288C598.922 608.873 598.393 609.43 597.835 609.957V609.957Z" fill="#B6BCCC"/>
<path d="M618.638 581.137C610.853 586.732 601.103 587.576 601.103 587.576C603.055 589.781 604.236 592.555 604.468 595.481C611.234 595.314 619.311 595.165 623.864 595.297C623.855 595.253 623.518 586.89 618.638 581.137Z" fill="#B6BCCC"/>
<path d="M625.936 572.668C625.936 572.668 612.474 576.419 608.825 562.68C605.177 548.942 612.368 541.932 599.136 526.788C585.905 511.644 568.086 511.635 547.654 522.115C527.222 532.594 517.737 550.505 527.284 571.218C536.832 591.931 554.412 589.235 552.259 600.839C550.107 612.443 543.722 611.327 543.722 611.327C543.722 611.327 567.448 629.58 576.827 598.247C576.827 598.247 582.433 611.784 597.808 609.965C597.808 609.965 610.322 598.607 601.067 587.574C601.094 587.574 619.524 586.028 625.936 572.668Z" fill="#E9E7E9"/>
<path d="M547.654 522.115C527.222 532.595 517.737 550.506 527.284 571.219C534.724 587.32 546.981 589.279 551.064 594.804C551.064 594.804 524.495 531.356 591.166 519.814C579.121 512.013 564.242 513.612 547.654 522.115Z" fill="#D6CDD7"/>
<g style="mix-blend-mode:multiply" opacity="0.58">
<path d="M547.654 522.114C527.222 532.594 517.737 550.505 527.284 571.218C529.187 575.438 531.846 579.28 535.131 582.559C534.857 581.935 515.647 537.952 576.269 514.859C567.581 514.226 557.945 516.835 547.654 522.114Z" fill="#B6BCCC"/>
</g>
<path d="M193.849 442.723C184.798 430.249 194.035 418.848 194.035 418.848C180.636 421.764 173.666 418.338 170.043 413.375C165.828 414.86 161.966 416.3 161.311 416.845C159.761 418.11 173.09 426.358 181.132 426.147C181.132 426.147 182.221 438.515 185.87 445.595C187.738 449.232 192.069 447.071 196.055 443.276C194.708 442.995 193.849 442.723 193.849 442.723Z" fill="#B6BCCC"/>
<path d="M229.337 446.8C220.631 442.742 215.167 434.695 215.167 434.695C214.172 437.447 212.308 439.807 209.853 441.424C213.28 447.222 217.31 454.161 219.391 458.176C219.373 458.219 226.627 453.871 229.337 446.8Z" fill="#B6BCCC"/>
<path d="M240.345 449.084C240.345 449.084 230.532 439.211 240.886 429.399C251.239 419.587 260.892 422.415 267.871 403.635C274.85 384.854 266.233 369.376 247.103 356.675C227.973 343.973 207.585 344.438 193.964 362.762C180.343 381.086 191.183 395.026 179.9 398.777C168.617 402.528 166.518 396.432 166.518 396.432C166.518 396.432 161.886 425.859 194.071 418.858C194.071 418.858 184.833 430.277 193.885 442.733C193.885 442.733 209.95 448.109 215.211 434.74C215.175 434.731 225.413 449.972 240.345 449.084Z" fill="#E9E7E9"/>
<path d="M247.103 356.674C227.973 344.007 207.585 344.437 193.964 362.761C183.337 377 187.552 388.596 184.656 394.806C184.656 394.806 227.796 341.038 270.227 393.357C271.228 379.109 262.61 366.96 247.103 356.674Z" fill="#D6CDD7"/>
<g style="mix-blend-mode:multiply" opacity="0.58">
<path d="M247.103 356.674C227.973 344.007 207.586 344.437 193.964 362.761C191.162 366.453 189.061 370.62 187.765 375.059C188.181 374.514 217.708 336.584 267.393 378.028C263.7 370.158 256.739 363.06 247.103 356.674Z" fill="#B6BCCC"/>
</g>
</g>
<defs>
<clipPath id="clip0_5083_298">
<rect width="766" height="903.13" fill="white"/>
</clipPath>
</defs>
</svg>
