<svg width="553" height="551" viewBox="0 0 553 551" fill="none" xmlns="http://www.w3.org/2000/svg">
<path d="M522.198 278.294C522.198 350.148 485.074 414.317 436.273 459.725C417.611 477.089 403.34 485.472 379.988 496.45C347.953 511.519 311.527 521 273.704 521C201.352 521 136.184 495.751 90.777 446.352C60.339 413.22 43.8725 371.005 34.8908 325.099C31.8969 309.73 32.4957 291.767 32.4957 275.5C32.4957 138.279 136.484 30 273.704 30C410.925 30 522.198 141.174 522.198 278.294Z" fill="#CAD4ED" stroke="#231F20" stroke-width="4" stroke-miterlimit="10"/>
<g opacity="0.26">
<path opacity="0.26" d="M258.635 36.9857C205.244 54.5499 154.248 82.8922 117.323 125.206C80.3982 167.52 58.443 224.903 66.1273 280.59C71.6161 320.209 91.3759 356.934 117.123 387.572C142.871 418.209 174.507 443.258 206.941 466.81C222.708 478.187 238.975 489.464 257.438 495.452C285.481 504.533 316.318 500.542 343.862 490.262C371.406 479.983 396.255 463.717 420.905 447.549C432.282 440.065 443.658 432.58 453.738 423.399C463.119 414.816 471.302 404.737 480.982 396.553C482.579 404.138 477.589 411.523 472.699 417.511C424.996 476.291 353.342 516.309 277.796 520.501C202.25 524.692 124.409 491.161 79.7995 430.085C67.1253 412.82 57.2454 393.659 49.4613 373.7C22.8155 305.439 22.6159 226.001 54.5509 160.035C86.4859 94.0694 151.354 43.5722 224.106 34.8899C233.886 33.6924 249.554 33.0936 258.635 36.9857Z" fill="#4768BA"/>
</g>
<path d="M142.373 122.312C131.995 121.813 121.516 124.208 112.135 128.699C96.5667 136.283 83.7927 151.053 81.8966 168.218C80.0005 185.383 90.9781 204.145 107.844 207.937C112.235 208.935 116.825 208.935 121.416 208.436C137.084 206.94 152.453 199.754 162.333 187.479C172.213 175.204 175.805 157.64 169.818 143.07C166.524 135.186 150.756 124.308 142.373 122.312Z" fill="#E6ECFA"/>
<path d="M191.373 61.4358C205.843 52.6537 222.709 47.6639 239.674 47.1649C248.756 46.8655 257.738 47.8635 266.719 48.7617C278.096 49.9592 289.872 51.2566 299.852 56.8452C309.931 62.4338 317.915 73.3117 316.418 84.6885C314.921 95.8657 305.341 103.949 295.76 109.837C286.479 115.526 276.4 120.316 265.522 121.015C254.345 121.813 243.267 118.12 232.888 113.729C217.819 107.342 203.448 99.159 190.076 89.4787C185.984 86.4848 181.693 83.0917 180.096 78.2017C178.499 73.3117 186.383 62.334 191.373 61.4358Z" fill="#E6ECFA"/>
<path d="M467.709 348.95C457.03 369.009 430.784 378.789 424.297 400.644C422.501 406.832 423.099 414.716 428.588 418.109C430.684 419.406 433.179 419.905 435.674 420.005C450.044 420.903 464.016 412.62 472.399 400.944C480.782 389.168 484.175 374.498 484.674 360.127C484.874 355.636 484.574 350.646 481.68 347.253C478.886 343.66 469.605 344.758 467.709 348.95Z" fill="#E6ECFA"/>
<path d="M248.257 158.239C243.567 167.32 233.088 171.611 225.603 178.597C217.021 186.581 212.63 200.053 217.919 210.432C222.709 219.813 234.386 224.404 244.665 222.707C255.043 221.011 263.925 213.825 269.614 205.043C276.5 194.565 279.294 181.591 277.498 169.216C276.5 162.131 273.007 154.347 266.021 152.45C259.335 150.654 253.746 153.748 248.257 158.239Z" fill="#E6ECFA"/>
<path d="M148.759 409.327C144.967 404.737 140.575 399.847 134.687 399.048C126.105 397.851 118.62 406.433 118.121 415.115C117.622 423.798 122.313 431.781 127.702 438.667C134.887 447.749 143.569 455.633 153.449 461.92C157.741 464.615 162.73 467.11 167.72 466.211C173.908 465.014 177.899 458.826 179.297 452.739C182.49 439.166 175.105 423.898 162.531 417.91C157.541 415.515 148.958 414.816 148.759 409.327Z" fill="#E6ECFA"/>
<path d="M95.3676 145.165C93.3716 153.748 91.2759 162.53 92.4735 171.312C93.671 180.094 98.7607 188.777 107.044 191.77C111.934 193.467 117.223 193.068 122.313 192.17C136.983 189.675 150.954 183.687 162.93 174.905C164.028 181.891 160.635 189.076 155.545 194.066C150.455 199.056 143.869 202.05 137.182 204.544C129.997 207.139 122.512 209.135 114.928 208.836C107.343 208.536 99.559 205.842 94.4694 200.153C90.8767 196.162 84.7891 187.679 82.9928 182.589C81.0966 177.3 83.392 175.304 82.9928 169.715C82.4938 160.734 85.9867 151.552 92.3737 145.265" fill="#CADCF2"/>
<path d="M226.001 178.797C223.706 184.585 221.81 190.772 222.408 196.96C223.007 203.147 226.999 209.335 233.087 210.832C238.575 212.229 244.264 209.534 249.154 206.441C256.339 201.95 263.225 196.261 266.319 188.377C268.614 182.689 268.714 176.102 272.007 170.913C272.506 170.214 273.005 169.416 273.903 169.216C275.899 168.717 277.097 171.412 277.297 173.408C278.893 187.18 275.7 201.75 266.718 212.229C257.736 222.707 242.368 228.096 229.394 223.406C227.099 222.608 224.803 221.41 222.907 219.813C220.911 218.117 219.514 215.921 218.317 213.626C212.229 201.65 215.323 185.783 225.502 177.001" fill="#CADCF2"/>
<path d="M223.106 106.644C229.892 106.644 236.778 106.744 243.565 106.744C255.84 106.744 268.813 106.644 279.192 100.157C285.878 96.0655 291.068 89.1796 292.265 81.3954C293.463 73.6113 290.369 65.1286 283.783 60.7375C281.587 59.2405 278.693 57.544 278.992 54.9493C279.392 52.0552 283.184 51.4564 286.078 51.7558C296.157 52.7538 306.337 56.4462 313.023 63.931C319.809 71.4157 322.304 83.092 317.414 91.9739C315.618 95.1674 312.923 97.8619 310.029 100.157C302.445 106.245 294.96 115.825 285.779 118.819C266.019 125.206 241.169 122.811 223.705 111.734C222.607 111.035 221.51 110.237 221.11 108.939C220.711 107.742 221.609 106.045 222.907 106.145" fill="#CADCF2"/>
<path d="M424.797 400.247C432.281 409.927 447.75 410.326 457.929 403.54C468.108 396.754 473.697 384.878 476.392 372.902C477.789 367.014 478.587 360.727 481.681 355.538C483.776 355.039 484.974 357.933 485.074 360.129C485.673 372.603 480.783 383.88 474.096 395.357C471.202 400.347 465.813 409.129 459.426 413.22C453.039 417.412 444.157 418.11 436.573 419.208C433.08 419.707 429.287 419.807 426.094 418.11C420.306 415.017 419.308 405.736 424.198 401.544" fill="#CADCF2"/>
<path d="M120.717 408.529C119.918 414.517 122.812 420.405 125.806 425.594C129.798 432.58 134.289 439.466 140.177 444.955C146.065 450.443 153.65 454.435 161.733 454.735C163.43 454.834 165.126 454.735 166.623 453.936C169.617 452.34 170.615 448.547 170.615 445.154C170.515 441.462 169.517 437.769 170.415 434.176C170.615 433.378 171.014 432.58 171.613 432.081C174.208 429.985 177.301 433.478 178.2 436.472C180.894 445.354 179.497 455.333 174.607 463.217C173.709 464.615 172.611 466.012 171.214 466.81C168.719 468.107 165.625 467.409 162.931 466.411C144.368 459.724 126.804 445.853 118.321 427.989C115.727 422.6 116.825 414.317 119.818 409.128" fill="#CADCF2"/>
<path d="M322.406 440.164C324.901 451.142 323.304 462.319 317.915 472.099C317.017 473.796 319.611 475.293 320.51 473.596C326.298 463.018 327.994 451.142 325.4 439.366C324.801 437.47 321.907 438.268 322.406 440.164Z" fill="#231F20"/>
<path d="M348.253 436.871C348.752 448.947 353.642 460.024 362.325 468.407C363.722 469.704 365.817 467.609 364.42 466.311C356.337 458.427 351.746 448.148 351.247 436.871C351.147 434.875 348.153 434.875 348.253 436.871Z" fill="#231F20"/>
<path d="M439.268 193.567C446.253 184.984 456.033 179.396 467.111 178.098C469.007 177.899 469.007 174.905 467.111 175.105C455.235 176.502 444.657 182.19 437.172 191.471C435.974 192.968 438.07 195.064 439.268 193.567Z" fill="#231F20"/>
<path d="M417.612 162.231C431.783 164.027 445.854 158.938 455.734 148.559C457.032 147.162 454.936 145.066 453.639 146.463C444.258 156.343 431.085 160.933 417.712 159.237C415.716 158.938 415.716 161.931 417.612 162.231Z" fill="#231F20"/>
<path d="M221.11 285.38C234.338 285.38 245.062 274.657 245.062 261.429C245.062 248.201 234.338 237.478 221.11 237.478C207.883 237.478 197.159 248.201 197.159 261.429C197.159 274.657 207.883 285.38 221.11 285.38Z" fill="#231F20"/>
<path d="M230.093 266.419C236.707 266.419 242.068 261.058 242.068 254.444C242.068 247.83 236.707 242.468 230.093 242.468C223.479 242.468 218.117 247.83 218.117 254.444C218.117 261.058 223.479 266.419 230.093 266.419Z" fill="white"/>
<path d="M340.569 285.38C353.797 285.38 364.52 274.657 364.52 261.429C364.52 248.201 353.797 237.478 340.569 237.478C327.341 237.478 316.618 248.201 316.618 261.429C316.618 274.657 327.341 285.38 340.569 285.38Z" fill="#231F20"/>
<path d="M344.603 267.54C350.913 270.166 358.243 266.974 360.975 260.41C363.707 253.846 360.807 246.396 354.498 243.769C348.188 241.143 340.858 244.335 338.126 250.899C335.394 257.463 338.294 264.913 344.603 267.54Z" fill="white"/>
<path d="M211.93 268.415C209.735 270.211 211.332 274.103 214.126 274.003C215.723 274.003 217.02 272.207 217.419 270.81C217.719 269.912 217.719 269.013 217.02 268.315C216.521 267.816 215.822 267.417 215.124 267.317C213.727 267.017 212.13 267.317 211.132 268.415C210.134 269.512 210.833 271.409 211.731 272.307C212.629 273.205 214.026 273.804 215.224 273.504C216.521 273.205 217.519 272.107 217.519 270.81C217.419 268.115 213.228 266.019 211.731 268.814C210.833 270.51 213.427 272.007 214.325 270.311C214.525 270.011 214.325 270.311 214.226 270.311C214.126 270.311 214.126 270.411 214.026 270.411C213.926 270.411 213.926 270.411 214.026 270.411C214.026 270.51 213.826 270.311 214.126 270.51C213.926 270.411 214.226 270.61 214.226 270.61C214.026 270.411 214.325 270.71 214.325 270.71C214.226 270.51 214.325 270.71 214.425 270.81C214.425 270.71 214.425 270.411 214.425 270.51C214.425 270.61 214.325 270.51 214.425 270.51C214.126 270.61 214.425 270.51 214.425 270.51C214.226 270.51 214.126 270.51 213.926 270.411C213.727 270.311 213.527 270.111 213.527 270.011C213.427 269.812 213.427 269.912 213.427 269.812C213.427 269.812 213.427 269.612 213.427 269.712C213.327 269.912 213.128 270.111 213.028 270.411C213.527 269.912 214.325 269.912 214.824 270.411C214.725 270.011 214.525 269.712 214.425 269.313C214.425 270.111 213.826 270.61 213.128 271.009C213.427 270.91 213.627 270.91 213.926 270.81C213.727 270.81 213.727 270.91 213.826 270.81C213.826 270.81 213.926 270.81 213.926 270.91C213.926 271.009 213.727 270.61 213.826 270.71C213.826 270.61 213.826 270.51 213.826 270.61C213.826 270.51 213.826 270.411 213.826 270.311C213.826 270.51 213.826 270.411 213.926 270.311C214.525 269.812 214.425 268.714 213.926 268.215C213.427 267.716 212.529 267.816 211.93 268.415Z" fill="white"/>
<path d="M331.487 272.207C331.187 273.105 331.187 274.003 331.587 274.901C331.986 275.699 332.784 276.797 333.782 276.797C335.778 276.797 337.175 274.502 337.275 272.805C337.275 272.207 336.776 271.508 336.177 271.408C333.682 271.009 331.587 273.005 331.986 275.5C332.086 276.099 332.784 276.598 333.383 276.598C335.978 276.398 337.475 273.105 335.479 271.209C333.582 269.412 329.69 271.209 330.289 273.903C330.788 276.099 333.582 276.697 335.379 275.799C337.574 274.602 337.375 271.708 335.379 270.41C334.381 269.811 333.083 269.612 331.986 270.111C331.387 270.41 330.688 270.909 330.489 271.608C330.289 272.406 330.189 273.404 330.09 274.302C329.99 275.101 330.289 275.899 331.088 276.099C331.786 276.298 332.784 275.899 332.884 275.101C332.984 274.701 332.984 274.202 333.083 273.803C333.083 273.604 333.183 273.304 333.183 273.105C333.183 273.005 333.183 272.905 333.183 272.805L333.083 272.905C332.984 272.805 333.083 273.105 332.984 272.905C332.984 272.905 332.984 272.905 333.083 272.905C333.183 272.905 333.283 272.905 333.483 273.005C333.582 273.005 333.682 273.205 333.782 273.205C333.782 273.404 333.782 273.105 333.782 273.105C333.782 273.105 333.582 273.205 333.782 273.105C333.882 273.105 333.582 273.205 333.582 273.205C333.383 273.304 333.183 273.205 332.984 273.105C333.183 273.105 332.884 273.205 332.984 273.105C332.984 273.005 333.083 273.504 333.083 273.404C333.183 273.703 332.984 273.504 333.183 273.504C333.283 273.504 333.483 273.404 333.383 273.404L333.283 273.304C333.283 273.304 333.183 273.604 333.183 273.504C333.183 273.703 332.984 273.604 333.183 273.604C333.682 274.003 334.181 274.302 334.58 274.701C334.58 274.602 334.88 274.202 335.079 274.202C334.68 273.704 334.381 273.205 333.982 272.805C333.982 273.304 333.483 273.703 333.083 273.903C333.483 274.003 333.882 274.003 334.281 274.103C333.882 273.903 333.982 273.504 334.181 273.105C334.481 272.306 333.882 271.508 333.183 271.308C332.485 271.009 331.786 271.508 331.487 272.207Z" fill="white"/>
<path d="M245.463 327.394C266.42 348.451 300.85 345.956 318.614 322.305C319.812 320.808 317.217 319.311 316.019 320.808C299.353 342.963 267.019 344.958 247.559 325.299C246.162 323.901 244.066 326.097 245.463 327.394Z" fill="#231F20"/>
<path d="M449.747 195.863C453.439 191.173 458.628 188.478 464.616 188.179C466.512 188.079 466.512 185.085 464.616 185.185C457.93 185.484 451.842 188.478 447.651 193.668C446.353 195.264 448.549 197.36 449.747 195.863Z" fill="#231F20"/>
<path d="M314.421 469.604C316.218 463.217 316.916 456.83 316.317 450.243C316.118 448.347 313.124 448.347 313.323 450.243C313.922 456.531 313.323 462.718 311.527 468.806C311.028 470.702 313.922 471.5 314.421 469.604Z" fill="#231F20"/>
<path opacity="0.71" d="M200.553 335.477C211.907 335.477 221.111 329.222 221.111 321.506C221.111 313.789 211.907 307.534 200.553 307.534C189.199 307.534 179.995 313.789 179.995 321.506C179.995 329.222 189.199 335.477 200.553 335.477Z" fill="#F488B9"/>
<path opacity="0.71" d="M356.536 335.477C367.89 335.477 377.095 329.222 377.095 321.506C377.095 313.789 367.89 307.534 356.536 307.534C345.182 307.534 335.978 313.789 335.978 321.506C335.978 329.222 345.182 335.477 356.536 335.477Z" fill="#F488B9"/>
</svg>
