<svg width="676" height="640" viewBox="0 0 676 640" fill="none" xmlns="http://www.w3.org/2000/svg">
<g clip-path="url(#clip0_4920_591)">
<path d="M252.76 545.75H251.62H251.38C250.79 545.75 250.18 545.69 249.58 545.65L248.79 545.59L247.19 545.44L246.24 545.32L245.09 545.16C244.57 545.09 244.09 545.01 243.64 544.93L242.78 544.78L241.02 544.43L240.22 544.26L239.04 543.98L237.56 543.62L235.95 543.19L234.95 542.89L233.79 542.55L232.27 542.07L231.39 541.79L229.78 541.24L228.66 540.85L226.98 540.23L225.92 539.83L224.32 539.2L223.09 538.71L221.91 538.22L220.26 537.51L219.39 537.13L217.75 536.4L216.45 535.81L213.55 534.44L211.78 533.58L210.31 532.84L210.2 532.79L209.38 532.36C208.8 532.07 208.19 531.76 207.57 531.43L206.67 530.96C206.1 530.66 205.52 530.36 204.94 530.04L202.28 528.59L199.62 527.1L199.02 526.75L197.33 525.75L196.58 525.31C195.76 524.84 194.86 524.31 193.96 523.76L193.33 523.38L190.74 521.81L189.8 521.23L187.4 519.73L185.81 518.73L184 517.57L183 516.91L180.15 515.03L177.24 513.03L174.3 511.03L171.3 508.97L168.3 506.84L165.3 504.68L162.3 502.47L159.3 500.22L156.23 497.91L153.17 495.56L150.06 493.14L148.54 491.94L146.96 490.69L145.42 489.46L143.82 488.18L142.3 486.95L139.17 484.39L136.02 481.78L132.76 479.18L129.59 476.47L126.41 473.72L123.23 470.94L120.04 468.11L116.85 465.25L113.65 462.34L110.45 459.34L107.25 456.34L104.04 453.34L101.11 450.54L100.84 450.27C67.1002 417.72 38.5402 383.58 20.4302 354.14C11.1502 339.08 4.96016 325.78 2.02016 314.6C-3.04984 295.29 2.44017 284.44 7.95017 278.73L40.4402 245.06L40.1702 244.8C24.5925 229.745 14.2937 210.062 10.807 188.68C7.32036 167.299 10.8324 145.364 20.8202 126.14L64.4302 42.1398C69.9976 31.3042 78.0413 21.934 87.9085 14.7894C97.7757 7.6449 109.188 2.92739 121.22 1.01978C125.453 0.343541 129.734 0.00912799 134.02 0.0197778C154.238 0.0168522 173.658 7.91109 188.14 22.0198L223.07 55.7998L252.58 25.2098C256.44 21.2098 263.52 16.4598 275.39 16.4598C314.52 16.4598 381.7 67.8798 427.39 111.91C461.14 144.47 489.7 178.61 507.81 208.05C517.09 223.11 523.28 236.42 526.22 247.59C531.29 266.9 525.8 277.76 520.29 283.46L419.08 388.34L509.5 391.87C516.758 382.756 525.954 375.371 536.42 370.251C546.886 365.132 558.36 362.405 570.01 362.27H570.55C578.74 362.27 593.96 365.81 603.81 389.54C610.34 405.27 613.52 427.9 612.3 450.07C611.51 464.49 608.08 490.79 594.01 504.91L593.52 505.39C592.98 505.91 592.39 506.45 591.8 506.95L591.09 507.54L590.99 507.62C590.65 507.89 590.31 508.16 589.99 508.41C589.67 508.66 588.99 509.16 588.39 509.52C588.03 509.75 587.71 509.95 587.39 510.14C586.73 510.54 586.1 510.89 585.47 511.2C585.25 511.32 585 511.43 584.76 511.54C584.1 511.85 583.46 512.13 582.82 512.37C582.59 512.47 582.36 512.55 582.14 512.63C581.33 512.92 580.49 513.18 579.58 513.42L578.91 513.58C578.06 513.78 577.13 513.96 576.21 514.08L575.68 514.15C574.68 514.26 573.68 514.33 572.77 514.35H571.31C553.874 514.348 536.919 508.633 523.04 498.08C518.937 494.953 515.158 491.422 511.76 487.54L288.81 523.34L275.58 537.06C274.903 537.764 274.189 538.432 273.44 539.06C273.21 539.25 272.93 539.47 272.64 539.68C272.11 540.09 271.64 540.46 271.08 540.8L270.22 541.34C269.68 541.673 269.13 541.983 268.57 542.27L267.65 542.73C267.14 542.97 266.55 543.23 265.89 543.49L265.17 543.77C264.3 544.09 263.43 544.37 262.55 544.6L261.83 544.78C261.24 544.92 260.61 545.06 259.96 545.18L259.17 545.31C258.51 545.42 257.94 545.5 257.34 545.56C257.08 545.56 256.77 545.63 256.45 545.65C255.86 545.71 255.27 545.74 254.67 545.77H253.84L252.76 545.75ZM133.88 69.0098C133.358 69.0137 132.836 69.0572 132.32 69.1398C130.906 69.3575 129.564 69.9093 128.406 70.7493C127.248 71.5892 126.306 72.6933 125.66 73.9698L82.0502 157.97C78.945 164.016 77.8599 170.898 78.9542 177.606C80.0485 184.314 83.2645 190.494 88.1302 195.24L88.3402 195.44L175.16 105.44L140.16 71.6098C138.493 69.9474 136.235 69.0126 133.88 69.0098Z" fill="#231F20"/>
<path d="M85.1694 267.46L50.5893 234.03C37.3324 221.214 28.5687 204.46 25.6028 186.261C22.637 168.062 25.6275 149.392 34.1293 133.03L77.7394 49.03C82.2707 40.2927 88.7814 32.7353 96.7519 26.9607C104.722 21.1862 113.932 17.3544 123.647 15.7709C133.361 14.1875 143.311 14.8963 152.703 17.8408C162.094 20.7853 170.668 25.8839 177.739 32.73L228.599 81.9L201.489 109.9L150.629 60.73C147.924 58.1135 144.644 56.165 141.053 55.0397C137.461 53.9145 133.656 53.6436 129.941 54.2486C126.226 54.8537 122.704 56.318 119.655 58.5249C116.606 60.7317 114.115 63.6201 112.379 66.96L68.7694 150.96C64.1843 159.883 62.5842 170.043 64.2043 179.943C65.8244 189.844 70.5793 198.964 77.7694 205.96L112.349 239.4L85.1694 267.46Z" fill="#F1594B"/>
<path d="M570.28 377.22C559.615 377.345 549.151 380.149 539.853 385.376C530.555 390.602 522.721 398.083 517.07 407.13L385.07 401.97L495.32 287.66L509.45 273.02C526.3 255.55 484.88 188.24 416.93 122.68C348.98 57.12 280.23 18.13 263.38 35.6L249.25 50.24L245.5 54.13L178.5 123.59L32.8604 274.51L18.7604 289.16C1.9104 306.63 43.3304 373.93 111.28 439.5C179.23 505.07 247.95 544.04 264.76 526.58L278.89 511.93L281.45 509.28L518.17 471.28C524.138 480.121 532.233 487.32 541.712 492.212C551.19 497.105 561.747 499.536 572.41 499.28C607.35 498.68 605.17 376.59 570.28 377.22Z" fill="#F1594B"/>
<path d="M573.742 490.793C584.04 490.608 591.958 466.491 591.426 436.926C590.895 407.362 582.115 383.545 571.817 383.73C561.518 383.915 553.601 408.032 554.132 437.597C554.664 467.161 563.443 490.978 573.742 490.793Z" fill="#FAF28C"/>
<path d="M475.432 247.624C487.572 235.04 456.23 185.11 405.428 136.102C354.626 87.0944 303.601 57.5674 291.461 70.1517C279.322 82.7359 310.664 132.666 361.466 181.674C412.268 230.681 463.292 260.208 475.432 247.624Z" fill="#D91F26"/>
<path d="M361.481 181.73C400.231 219.11 439.111 245.16 460.761 249.83C455.321 228.36 427.901 190.44 389.151 153.05C350.401 115.66 311.521 89.6202 289.871 84.9502C295.311 106.42 322.761 144.34 361.481 181.73Z" fill="#951B1E"/>
<path d="M240.819 377.159C288.112 377.159 326.449 338.822 326.449 291.529C326.449 244.237 288.112 205.899 240.819 205.899C193.527 205.899 155.189 244.237 155.189 291.529C155.189 338.822 193.527 377.159 240.819 377.159Z" fill="#FAF28C"/>
<path d="M240.76 385.34C219.121 385.33 198.151 377.841 181.401 364.143C164.651 350.444 153.151 331.377 148.847 310.171C144.544 288.965 147.702 266.923 157.787 247.779C167.872 228.634 184.263 213.564 204.186 205.119C224.109 196.675 246.338 195.376 267.108 201.443C287.879 207.509 305.914 220.568 318.16 238.407C330.406 256.247 336.11 277.771 334.306 299.334C332.502 320.897 323.3 341.173 308.26 356.73C299.719 365.616 289.5 372.72 278.195 377.631C266.89 382.542 254.724 385.162 242.4 385.34H240.76ZM240.82 214.11C228.033 214.111 215.445 217.279 204.181 223.332C192.918 229.384 183.328 238.132 176.27 248.795C169.212 259.457 164.904 271.702 163.733 284.435C162.561 297.168 164.561 309.993 169.555 321.765C174.548 333.536 182.38 343.887 192.35 351.894C202.32 359.901 214.118 365.313 226.69 367.648C239.262 369.983 252.216 369.168 264.396 365.275C276.576 361.382 287.602 354.533 296.49 345.34C307.065 334.416 314.188 320.62 316.971 305.673C319.753 290.726 318.072 275.291 312.136 261.294C306.199 247.297 296.272 235.358 283.593 226.969C270.913 218.579 256.043 214.11 240.84 214.12L240.82 214.11Z" fill="white"/>
<g style="mix-blend-mode:multiply" opacity="0.57">
<path d="M457.07 327.339C457.07 327.339 276.64 431.869 59.6804 242.819L32.8604 274.509L18.7604 289.159C1.9104 306.629 43.3304 373.929 111.28 439.499C176.91 502.839 243.3 541.339 262.91 528.149L457.07 327.339Z" fill="#951B1E"/>
</g>
<g style="mix-blend-mode:multiply" opacity="0.6">
<path d="M515.111 428.01L362.321 425.5L506.271 276.34C495.951 281.85 470.951 284.64 420.561 262.52L187.971 502.34C224.971 526.92 254.521 537.28 264.801 526.63L272.671 518.48L278.931 511.98L281.491 509.33L518.211 471.33C524.178 480.171 532.274 487.369 541.752 492.262C551.23 497.155 561.787 499.585 572.451 499.33C577.531 499.24 581.821 496.56 585.341 492.08C530.461 501.4 515.111 428.01 515.111 428.01Z" fill="#D91F26"/>
</g>
<g style="mix-blend-mode:multiply" opacity="0.57">
<path d="M518.22 471.34C518.22 471.34 505.3 462.14 506.28 445.02L321.07 468.02L281.5 509.32L518.22 471.34Z" fill="#951B1E"/>
</g>
<path d="M264.76 526.58L270.76 520.32C164.14 476.99 74.2404 384.98 24.7604 282.89L18.7604 289.16C1.9104 306.63 43.3304 373.93 111.28 439.5C179.23 505.07 247.95 544.04 264.76 526.58Z" fill="#FAF28C"/>
<path d="M417.178 346.737C430.362 333.104 436.934 318.071 431.856 313.161C426.778 308.25 411.974 315.322 398.79 328.955C385.606 342.589 379.034 357.621 384.112 362.532C389.19 367.442 403.994 360.371 417.178 346.737Z" fill="white"/>
<path d="M451.87 317.73C458.1 317.73 463.15 312.68 463.15 306.45C463.15 300.22 458.1 295.17 451.87 295.17C445.64 295.17 440.59 300.22 440.59 306.45C440.59 312.68 445.64 317.73 451.87 317.73Z" fill="white"/>
<path d="M239.11 95.5994L267.03 122.599C273.13 128.499 264.65 143.859 253.03 147.889L171.76 176.089C159.19 180.449 155.97 167.289 166.85 156.029L220.22 100.829C226.76 94.1294 235.17 91.7794 239.11 95.5994Z" fill="#F16465"/>
<path d="M643.65 557.43C649.338 557.43 653.95 552.819 653.95 547.13C653.95 541.442 649.338 536.83 643.65 536.83C637.961 536.83 633.35 541.442 633.35 547.13C633.35 552.819 637.961 557.43 643.65 557.43Z" fill="#69A9DC"/>
<g style="mix-blend-mode:multiply" opacity="0.51">
<path d="M653.93 546.569C653.835 544.822 653.295 543.128 652.362 541.648C651.43 540.167 650.135 538.949 648.6 538.109C649.691 540.065 650.115 542.323 649.806 544.541C649.498 546.759 648.474 548.816 646.89 550.4C645.307 551.984 643.25 553.007 641.032 553.316C638.813 553.624 636.555 553.201 634.6 552.109C635.72 554.156 637.504 555.762 639.657 556.662C641.811 557.562 644.206 557.703 646.45 557.062C648.694 556.422 650.654 555.037 652.008 553.136C653.361 551.235 654.028 548.93 653.9 546.599L653.93 546.569Z" fill="#69A9DC"/>
</g>
<path d="M663.411 574.089C667.846 574.089 671.441 570.494 671.441 566.059C671.441 561.624 667.846 558.029 663.411 558.029C658.976 558.029 655.381 561.624 655.381 566.059C655.381 570.494 658.976 574.089 663.411 574.089Z" fill="#69A9DC"/>
<g style="mix-blend-mode:multiply" opacity="0.51">
<path d="M671.431 565.619C671.357 564.257 670.936 562.937 670.208 561.784C669.479 560.63 668.469 559.682 667.271 559.029C668.123 560.55 668.456 562.308 668.217 564.035C667.978 565.763 667.182 567.365 665.949 568.598C664.716 569.83 663.114 570.627 661.387 570.865C659.66 571.104 657.902 570.772 656.381 569.919C657.254 571.51 658.642 572.756 660.317 573.454C661.992 574.152 663.854 574.26 665.598 573.76C667.342 573.26 668.865 572.182 669.915 570.702C670.966 569.223 671.483 567.431 671.381 565.619H671.431Z" fill="#69A9DC"/>
</g>
<path d="M649.561 547.129C653.659 547.129 656.981 543.807 656.981 539.709C656.981 535.611 653.659 532.289 649.561 532.289C645.463 532.289 642.141 535.611 642.141 539.709C642.141 543.807 645.463 547.129 649.561 547.129Z" fill="#69A9DC"/>
<g style="mix-blend-mode:multiply" opacity="0.51">
<path d="M656.969 539.34C656.902 538.082 656.513 536.862 655.841 535.796C655.169 534.73 654.235 533.854 653.129 533.25C653.744 534.35 654.067 535.588 654.069 536.847C654.071 538.107 653.751 539.346 653.14 540.448C652.53 541.549 651.648 542.476 650.578 543.142C649.509 543.807 648.287 544.189 647.029 544.25C645.637 544.332 644.249 544.017 643.029 543.34C643.834 544.825 645.121 545.99 646.678 546.643C648.236 547.296 649.969 547.398 651.592 546.931C653.215 546.464 654.63 545.457 655.602 544.077C656.574 542.696 657.046 541.025 656.939 539.34H656.969Z" fill="#69A9DC"/>
</g>
<path d="M656.96 593.839C657.074 595.901 656.78 597.965 656.096 599.913C655.412 601.861 654.351 603.656 652.974 605.194C651.596 606.732 649.929 607.984 648.068 608.878C646.206 609.772 644.187 610.29 642.125 610.404C640.064 610.518 638 610.224 636.051 609.54C634.103 608.856 632.309 607.795 630.77 606.417C629.232 605.04 627.98 603.373 627.086 601.511C626.193 599.65 625.674 597.631 625.56 595.569C625.08 586.889 639.79 567.959 639.79 567.959C639.79 567.959 656.49 585.169 656.96 593.839Z" fill="#69A9DC"/>
<g style="mix-blend-mode:multiply" opacity="0.51">
<path d="M637.18 609.89C639.576 610.536 642.092 610.606 644.521 610.092C646.949 609.579 649.222 608.497 651.152 606.936C653.082 605.375 654.614 603.379 655.624 601.111C656.633 598.843 657.091 596.369 656.96 593.89C656.49 585.22 639.79 568.01 639.79 568.01C639.79 568.01 656.51 601.87 637.18 609.89Z" fill="#69A9DC"/>
</g>
<g style="mix-blend-mode:multiply" opacity="0.51">
<path d="M656.96 593.839C656.72 589.359 652.14 582.599 647.77 577.109C651.14 586.569 654.99 602.689 645.51 609.839C648.953 608.871 651.964 606.759 654.045 603.85C656.127 600.942 657.155 597.411 656.96 593.839Z" fill="#69A9DC"/>
</g>
<g style="mix-blend-mode:multiply" opacity="0.51">
<path d="M654.43 586.77C651.72 602.48 626.14 598.77 626.07 598.77C627.087 602.517 629.453 605.756 632.715 607.864C635.976 609.971 639.902 610.798 643.736 610.185C647.57 609.571 651.042 607.562 653.484 604.542C655.925 601.523 657.163 597.707 656.96 593.83C656.624 591.324 655.762 588.918 654.43 586.77Z" fill="#69A9DC"/>
</g>
<path d="M646.443 586.722C648.122 586.338 649.05 584.132 648.516 581.796C647.981 579.459 646.186 577.877 644.506 578.261C642.827 578.645 641.898 580.851 642.433 583.188C642.968 585.524 644.763 587.107 646.443 586.722Z" fill="white"/>
<path d="M650.81 588.41C651.71 588.41 652.44 587.681 652.44 586.78C652.44 585.88 651.71 585.15 650.81 585.15C649.909 585.15 649.18 585.88 649.18 586.78C649.18 587.681 649.909 588.41 650.81 588.41Z" fill="white"/>
<path d="M633.351 600.799C634.251 600.799 634.981 600.069 634.981 599.169C634.981 598.269 634.251 597.539 633.351 597.539C632.45 597.539 631.721 598.269 631.721 599.169C631.721 600.069 632.45 600.799 633.351 600.799Z" fill="white"/>
<path d="M631.97 516.739C632.084 518.801 631.79 520.865 631.106 522.813C630.422 524.762 629.361 526.556 627.983 528.094C626.606 529.633 624.939 530.884 623.077 531.778C621.216 532.672 619.197 533.191 617.135 533.304C615.073 533.418 613.009 533.124 611.061 532.44C609.113 531.756 607.318 530.695 605.78 529.318C604.242 527.94 602.99 526.273 602.096 524.412C601.202 522.55 600.684 520.531 600.57 518.469C600.09 509.789 614.8 490.859 614.8 490.859C614.8 490.859 631.5 508.069 631.97 516.739Z" fill="#69A9DC"/>
<g style="mix-blend-mode:multiply" opacity="0.51">
<path d="M612.189 532.789C614.59 533.438 617.111 533.507 619.544 532.991C621.976 532.475 624.252 531.389 626.183 529.822C628.114 528.255 629.646 526.252 630.652 523.977C631.658 521.703 632.109 519.222 631.969 516.739C631.499 508.069 614.799 490.859 614.799 490.859C614.799 490.859 631.519 524.769 612.189 532.789Z" fill="#69A9DC"/>
</g>
<g style="mix-blend-mode:multiply" opacity="0.51">
<path d="M631.97 516.74C631.73 512.26 627.15 505.5 622.78 500.01C626.16 509.47 630.01 525.6 620.52 532.74C623.966 531.777 626.979 529.666 629.062 526.756C631.144 523.846 632.17 520.312 631.97 516.74Z" fill="#69A9DC"/>
</g>
<g style="mix-blend-mode:multiply" opacity="0.51">
<path d="M629.44 509.68C626.74 525.38 601.15 521.68 601.08 521.68C602.097 525.427 604.463 528.666 607.724 530.774C610.986 532.881 614.911 533.708 618.746 533.095C622.58 532.482 626.052 530.472 628.493 527.452C630.935 524.433 632.173 520.617 631.97 516.74C631.64 514.233 630.777 511.826 629.44 509.68Z" fill="#69A9DC"/>
</g>
<path d="M627.684 519.499C629.58 518.936 630.474 516.317 629.681 513.649C628.889 510.98 626.71 509.273 624.815 509.836C622.919 510.399 622.025 513.019 622.818 515.687C623.61 518.355 625.789 520.062 627.684 519.499Z" fill="white"/>
<path d="M626.061 523.559C626.851 523.559 627.491 522.919 627.491 522.129C627.491 521.339 626.851 520.699 626.061 520.699C625.271 520.699 624.631 521.339 624.631 522.129C624.631 522.919 625.271 523.559 626.061 523.559Z" fill="white"/>
<path d="M597.621 562.7C597.695 564.062 597.501 565.426 597.049 566.713C596.597 568.001 595.895 569.186 594.985 570.203C594.074 571.219 592.973 572.046 591.742 572.637C590.512 573.227 589.178 573.57 587.816 573.645C586.453 573.719 585.089 573.525 583.802 573.073C582.514 572.621 581.329 571.919 580.312 571.009C579.296 570.098 578.469 568.997 577.878 567.767C577.288 566.536 576.945 565.202 576.871 563.84C576.561 558.11 586.281 545.6 586.281 545.6C586.281 545.6 597.301 556.97 597.621 562.7Z" fill="#69A9DC"/>
<g style="mix-blend-mode:multiply" opacity="0.51">
<path d="M584.551 573.341C586.137 573.767 587.801 573.811 589.407 573.469C591.013 573.128 592.516 572.41 593.791 571.376C595.066 570.342 596.078 569.02 596.744 567.519C597.41 566.018 597.71 564.38 597.621 562.741C597.301 557.011 586.281 545.641 586.281 545.641C586.281 545.641 597.321 568.001 584.551 573.341Z" fill="#69A9DC"/>
</g>
<g style="mix-blend-mode:multiply" opacity="0.51">
<path d="M597.621 562.7C597.461 559.7 594.431 555.27 591.551 551.65C593.771 557.9 596.321 568.55 590.051 573.27C592.326 572.631 594.315 571.235 595.691 569.314C597.067 567.393 597.748 565.06 597.621 562.7Z" fill="#69A9DC"/>
</g>
<g style="mix-blend-mode:multiply" opacity="0.51">
<path d="M595.951 558.029C594.161 568.409 577.261 565.969 577.211 565.959C577.876 568.441 579.438 570.589 581.594 571.987C583.75 573.385 586.348 573.934 588.885 573.529C591.423 573.124 593.72 571.792 595.333 569.792C596.947 567.792 597.762 565.265 597.621 562.699C597.4 561.042 596.831 559.45 595.951 558.029Z" fill="#69A9DC"/>
</g>
<path d="M594.785 564.529C596.035 564.158 596.623 562.428 596.1 560.665C595.576 558.902 594.139 557.773 592.889 558.145C591.64 558.516 591.051 560.246 591.575 562.009C592.099 563.772 593.536 564.9 594.785 564.529Z" fill="white"/>
<path d="M593.71 567.211C594.234 567.211 594.66 566.785 594.66 566.261C594.66 565.736 594.234 565.311 593.71 565.311C593.185 565.311 592.76 565.736 592.76 566.261C592.76 566.785 593.185 567.211 593.71 567.211Z" fill="white"/>
<path d="M649.521 539.149C650.471 539.149 651.241 538.379 651.241 537.429C651.241 536.479 650.471 535.709 649.521 535.709C648.571 535.709 647.801 536.479 647.801 537.429C647.801 538.379 648.571 539.149 649.521 539.149Z" fill="white"/>
<path d="M668.249 566.059C669.243 566.059 670.049 565.253 670.049 564.259C670.049 563.265 669.243 562.459 668.249 562.459C667.255 562.459 666.449 563.265 666.449 564.259C666.449 565.253 667.255 566.059 668.249 566.059Z" fill="white"/>
<path d="M649.431 508.03C655.164 508.03 659.811 503.382 659.811 497.65C659.811 491.917 655.164 487.27 649.431 487.27C643.698 487.27 639.051 491.917 639.051 497.65C639.051 503.382 643.698 508.03 649.431 508.03Z" fill="#69A9DC"/>
<g style="mix-blend-mode:multiply" opacity="0.51">
<path d="M659.761 497.09C659.666 495.327 659.122 493.618 658.18 492.125C657.238 490.632 655.931 489.405 654.381 488.56C655.137 489.916 655.572 491.428 655.651 492.98C655.753 494.827 655.359 496.669 654.509 498.313C653.66 499.957 652.386 501.343 650.82 502.329C649.254 503.315 647.452 503.863 645.603 503.918C643.753 503.972 641.922 503.531 640.301 502.64C641.427 504.708 643.225 506.331 645.397 507.242C647.569 508.153 649.987 508.298 652.252 507.652C654.517 507.006 656.495 505.608 657.859 503.688C659.224 501.768 659.895 499.441 659.761 497.09Z" fill="#69A9DC"/>
</g>
<path d="M655.689 497.65C656.976 497.65 658.019 496.607 658.019 495.32C658.019 494.033 656.976 492.99 655.689 492.99C654.403 492.99 653.359 494.033 653.359 495.32C653.359 496.607 654.403 497.65 655.689 497.65Z" fill="white"/>
<path d="M620.52 472.11C624.955 472.11 628.55 468.515 628.55 464.08C628.55 459.645 624.955 456.05 620.52 456.05C616.085 456.05 612.49 459.645 612.49 464.08C612.49 468.515 616.085 472.11 620.52 472.11Z" fill="#69A9DC"/>
<g style="mix-blend-mode:multiply" opacity="0.51">
<path d="M628.54 463.64C628.468 462.276 628.048 460.954 627.319 459.799C626.591 458.643 625.579 457.694 624.38 457.04C625.233 458.561 625.565 460.319 625.326 462.046C625.088 463.773 624.291 465.375 623.058 466.608C621.826 467.841 620.224 468.638 618.496 468.876C616.769 469.115 615.011 468.783 613.49 467.93C614.363 469.519 615.75 470.765 617.424 471.463C619.098 472.161 620.959 472.269 622.702 471.771C624.446 471.272 625.968 470.196 627.019 468.719C628.071 467.241 628.59 465.451 628.49 463.64H628.54Z" fill="#69A9DC"/>
</g>
<path d="M625.351 464.07C626.345 464.07 627.151 463.264 627.151 462.27C627.151 461.276 626.345 460.47 625.351 460.47C624.357 460.47 623.551 461.276 623.551 462.27C623.551 463.264 624.357 464.07 625.351 464.07Z" fill="white"/>
<path d="M668.609 609.5C672.249 609.5 675.2 606.55 675.2 602.91C675.2 599.271 672.249 596.32 668.609 596.32C664.97 596.32 662.02 599.271 662.02 602.91C662.02 606.55 664.97 609.5 668.609 609.5Z" fill="#69A9DC"/>
<g style="mix-blend-mode:multiply" opacity="0.51">
<path d="M675.19 602.551C675.127 601.431 674.778 600.347 674.178 599.4C673.578 598.453 672.746 597.676 671.76 597.141C672.441 598.39 672.699 599.826 672.496 601.235C672.293 602.643 671.64 603.948 670.634 604.954C669.628 605.96 668.323 606.614 666.914 606.817C665.506 607.02 664.07 606.762 662.82 606.081C663.541 607.386 664.683 608.408 666.06 608.98C667.437 609.553 668.967 609.641 670.4 609.232C671.834 608.822 673.086 607.938 673.953 606.724C674.819 605.511 675.248 604.04 675.17 602.551H675.19Z" fill="#69A9DC"/>
</g>
<path d="M672.58 602.919C673.397 602.919 674.06 602.256 674.06 601.439C674.06 600.622 673.397 599.959 672.58 599.959C671.762 599.959 671.1 600.622 671.1 601.439C671.1 602.256 671.762 602.919 672.58 602.919Z" fill="white"/>
<path d="M611.09 581.95C613.725 581.95 615.86 579.815 615.86 577.18C615.86 574.546 613.725 572.41 611.09 572.41C608.456 572.41 606.32 574.546 606.32 577.18C606.32 579.815 608.456 581.95 611.09 581.95Z" fill="#69A9DC"/>
<g style="mix-blend-mode:multiply" opacity="0.51">
<path d="M615.86 576.91C615.815 576.101 615.564 575.317 615.132 574.631C614.7 573.945 614.1 573.381 613.39 572.99C613.727 573.607 613.925 574.289 613.97 574.99C614.036 576.25 613.598 577.484 612.755 578.421C611.911 579.359 610.73 579.923 609.47 579.99C608.58 580.038 607.693 579.837 606.91 579.41C607.413 580.393 608.241 581.17 609.254 581.61C610.266 582.05 611.399 582.126 612.461 581.824C613.522 581.522 614.446 580.861 615.075 579.954C615.704 579.047 615.999 577.95 615.91 576.85L615.86 576.91Z" fill="#69A9DC"/>
</g>
<path d="M613.97 577.179C614.561 577.179 615.04 576.7 615.04 576.109C615.04 575.518 614.561 575.039 613.97 575.039C613.379 575.039 612.9 575.518 612.9 576.109C612.9 576.7 613.379 577.179 613.97 577.179Z" fill="white"/>
<path d="M620.921 561.25C624.168 561.25 626.801 558.618 626.801 555.37C626.801 552.123 624.168 549.49 620.921 549.49C617.674 549.49 615.041 552.123 615.041 555.37C615.041 558.618 617.674 561.25 620.921 561.25Z" fill="#69A9DC"/>
<g style="mix-blend-mode:multiply" opacity="0.51">
<path d="M626.76 555.039C626.709 554.046 626.407 553.082 625.882 552.237C625.358 551.393 624.627 550.695 623.76 550.209C624.392 551.326 624.641 552.62 624.468 553.892C624.295 555.164 623.71 556.344 622.802 557.251C621.894 558.159 620.714 558.744 619.442 558.917C618.17 559.09 616.877 558.841 615.76 558.209C616.408 559.363 617.427 560.264 618.651 560.767C619.875 561.27 621.232 561.346 622.505 560.981C623.777 560.617 624.889 559.834 625.661 558.76C626.433 557.685 626.82 556.381 626.76 555.059V555.039Z" fill="#69A9DC"/>
</g>
<path d="M624.47 555.37C625.199 555.37 625.79 554.779 625.79 554.05C625.79 553.321 625.199 552.73 624.47 552.73C623.741 552.73 623.15 553.321 623.15 554.05C623.15 554.779 623.741 555.37 624.47 555.37Z" fill="white"/>
<path d="M596.55 492.43C599.797 492.43 602.43 489.797 602.43 486.55C602.43 483.302 599.797 480.67 596.55 480.67C593.302 480.67 590.67 483.302 590.67 486.55C590.67 489.797 593.302 492.43 596.55 492.43Z" fill="#69A9DC"/>
<g style="mix-blend-mode:multiply" opacity="0.51">
<path d="M602.43 486.23C602.379 485.235 602.077 484.27 601.552 483.424C601.028 482.577 600.298 481.878 599.43 481.39C600.053 482.507 600.295 483.798 600.119 485.065C599.943 486.333 599.358 487.508 598.453 488.413C597.548 489.318 596.373 489.903 595.105 490.079C593.838 490.255 592.547 490.013 591.43 489.39C592.078 490.543 593.096 491.445 594.32 491.948C595.544 492.451 596.902 492.526 598.175 492.162C599.447 491.798 600.559 491.015 601.331 489.94C602.103 488.865 602.49 487.562 602.43 486.24V486.23Z" fill="#69A9DC"/>
</g>
<path d="M600.09 486.55C600.819 486.55 601.409 485.959 601.409 485.23C601.409 484.501 600.819 483.91 600.09 483.91C599.361 483.91 598.77 484.501 598.77 485.23C598.77 485.959 599.361 486.55 600.09 486.55Z" fill="white"/>
<path d="M597.72 611.1C603.408 611.1 608.02 606.489 608.02 600.8C608.02 595.111 603.408 590.5 597.72 590.5C592.031 590.5 587.42 595.111 587.42 600.8C587.42 606.489 592.031 611.1 597.72 611.1Z" fill="#69A9DC"/>
<g style="mix-blend-mode:multiply" opacity="0.51">
<path d="M607.999 600.229C607.904 598.482 607.364 596.788 606.429 595.309C605.494 593.83 604.197 592.615 602.659 591.779C603.406 593.125 603.837 594.623 603.919 596.159C604.022 597.992 603.632 599.818 602.79 601.449C601.948 603.08 600.685 604.455 599.131 605.433C597.578 606.41 595.792 606.955 593.957 607.008C592.123 607.062 590.307 606.624 588.699 605.739C589.82 607.786 591.603 609.392 593.757 610.292C595.91 611.192 598.306 611.333 600.55 610.692C602.794 610.051 604.754 608.667 606.107 606.766C607.461 604.865 608.128 602.56 607.999 600.229Z" fill="#69A9DC"/>
</g>
<path d="M604.404 598.848C605.341 598.455 605.64 597.038 605.073 595.683C604.505 594.328 603.285 593.548 602.347 593.941C601.41 594.334 601.111 595.751 601.679 597.106C602.246 598.46 603.467 599.24 604.404 598.848Z" fill="white"/>
<path d="M605.719 601.989C606.376 601.989 606.909 601.457 606.909 600.799C606.909 600.142 606.376 599.609 605.719 599.609C605.062 599.609 604.529 600.142 604.529 600.799C604.529 601.457 605.062 601.989 605.719 601.989Z" fill="white"/>
<path d="M587.991 486.55C595.137 486.55 600.931 480.756 600.931 473.61C600.931 466.463 595.137 460.67 587.991 460.67C580.844 460.67 575.051 466.463 575.051 473.61C575.051 480.756 580.844 486.55 587.991 486.55Z" fill="#69A9DC"/>
<g style="mix-blend-mode:multiply" opacity="0.51">
<path d="M600.92 472.9C600.8 470.703 600.121 468.573 598.946 466.713C597.772 464.852 596.142 463.323 594.21 462.27C595.151 463.958 595.694 465.839 595.8 467.77C595.932 470.075 595.443 472.374 594.385 474.426C593.328 476.479 591.739 478.21 589.785 479.441C587.831 480.671 585.582 481.355 583.274 481.422C580.966 481.488 578.682 480.935 576.66 479.82C578.066 482.396 580.307 484.418 583.014 485.552C585.722 486.687 588.735 486.866 591.557 486.061C594.38 485.255 596.845 483.514 598.547 481.122C600.248 478.73 601.085 475.83 600.92 472.9Z" fill="#69A9DC"/>
</g>
<path d="M596.421 471.144C597.598 470.651 597.972 468.868 597.257 467.161C596.542 465.455 595.008 464.471 593.832 464.964C592.655 465.458 592.281 467.241 592.996 468.947C593.711 470.653 595.245 471.637 596.421 471.144Z" fill="white"/>
<path d="M598.051 475.109C598.879 475.109 599.551 474.438 599.551 473.609C599.551 472.781 598.879 472.109 598.051 472.109C597.222 472.109 596.551 472.781 596.551 473.609C596.551 474.438 597.222 475.109 598.051 475.109Z" fill="white"/>
<path d="M630.58 639.399C632.96 639.399 634.89 637.47 634.89 635.089C634.89 632.709 632.96 630.779 630.58 630.779C628.199 630.779 626.27 632.709 626.27 635.089C626.27 637.47 628.199 639.399 630.58 639.399Z" fill="#69A9DC"/>
<g style="mix-blend-mode:multiply" opacity="0.51">
<path d="M634.89 634.85C634.846 634.124 634.618 633.421 634.228 632.807C633.838 632.194 633.299 631.689 632.66 631.34C632.972 631.902 633.15 632.528 633.18 633.17C633.221 633.935 633.057 634.697 632.704 635.377C632.352 636.057 631.824 636.631 631.176 637.039C630.527 637.447 629.782 637.674 629.016 637.697C628.25 637.72 627.492 637.538 626.82 637.17C627.287 638.029 628.034 638.703 628.935 639.081C629.837 639.459 630.841 639.519 631.781 639.25C632.721 638.981 633.542 638.399 634.107 637.601C634.672 636.803 634.949 635.836 634.89 634.86V634.85Z" fill="#69A9DC"/>
</g>
<path d="M633.181 635.09C633.717 635.09 634.151 634.656 634.151 634.12C634.151 633.585 633.717 633.15 633.181 633.15C632.645 633.15 632.211 633.585 632.211 634.12C632.211 634.656 632.645 635.09 633.181 635.09Z" fill="white"/>
<path d="M624.32 635.09C629.55 635.09 633.79 630.85 633.79 625.62C633.79 620.39 629.55 616.15 624.32 616.15C619.09 616.15 614.85 620.39 614.85 625.62C614.85 630.85 619.09 635.09 624.32 635.09Z" fill="#69A9DC"/>
<g style="mix-blend-mode:multiply" opacity="0.51">
<path d="M633.76 625.1C633.671 623.493 633.173 621.935 632.314 620.573C631.455 619.212 630.263 618.092 628.85 617.32C629.533 618.549 629.929 619.917 630.01 621.32C630.107 623.007 629.751 624.689 628.978 626.192C628.204 627.694 627.042 628.961 625.613 629.862C624.183 630.763 622.538 631.264 620.849 631.313C619.16 631.361 617.489 630.957 616.01 630.14C617.038 632.023 618.675 633.501 620.653 634.331C622.632 635.161 624.833 635.294 626.897 634.708C628.961 634.122 630.765 632.852 632.011 631.106C633.258 629.361 633.875 627.243 633.76 625.1Z" fill="#69A9DC"/>
</g>
<path d="M630.476 623.848C631.337 623.487 631.611 622.183 631.088 620.935C630.565 619.688 629.443 618.968 628.582 619.329C627.721 619.69 627.447 620.994 627.97 622.242C628.494 623.49 629.615 624.209 630.476 623.848Z" fill="white"/>
<path d="M631.68 626.719C632.288 626.719 632.78 626.227 632.78 625.62C632.78 625.012 632.288 624.52 631.68 624.52C631.073 624.52 630.58 625.012 630.58 625.62C630.58 626.227 631.073 626.719 631.68 626.719Z" fill="white"/>
<path d="M272.939 97.2567C278.663 95.8094 281.306 86.7364 278.842 76.9915C276.377 67.2466 269.74 60.5201 264.016 61.9674C258.292 63.4146 255.65 72.4877 258.114 82.2326C260.578 91.9775 267.215 98.704 272.939 97.2567Z" fill="white"/>
</g>
<defs>
<clipPath id="clip0_4920_591">
<rect width="675.2" height="639.4" fill="white"/>
</clipPath>
</defs>
</svg>
