<svg width="598" height="857" viewBox="0 0 598 857" fill="none" xmlns="http://www.w3.org/2000/svg">
<g clip-path="url(#clip0_4570_31418)">
<path d="M91.49 853.53H55.54V675.09H105.73L91.49 853.53Z" fill="#A67C52"/>
<path d="M55.54 675.09C59.72 674.58 63.9098 674.17 68.0898 673.8C72.2698 673.43 76.4499 673.07 80.6399 672.8C84.8299 672.53 88.9999 672.23 93.1799 671.97C97.3599 671.71 101.55 671.5 105.73 671.32C106.208 671.299 106.686 671.372 107.135 671.535C107.585 671.698 107.999 671.949 108.352 672.272C108.705 672.595 108.99 672.985 109.193 673.419C109.395 673.853 109.509 674.322 109.53 674.8V675.42C109.043 690.353 108.293 705.257 107.28 720.13C106.28 735.02 105.1 749.89 103.65 764.74C102.2 779.59 100.56 794.42 98.6499 809.23C96.7399 824.04 94.45 838.82 91.54 853.56C91.01 838.56 91.17 823.56 91.54 808.66C91.91 793.76 92.6799 778.82 93.6199 763.93C94.5599 749.04 95.7499 734.18 97.1099 719.32C98.4699 704.46 100.11 689.63 101.98 674.82L105.77 678.92C101.59 678.74 97.41 678.49 93.22 678.26C89.03 678.03 84.8599 677.75 80.6799 677.43C76.4999 677.11 72.3099 676.8 68.1299 676.43C63.9499 676.06 59.69 675.59 55.54 675.09Z" fill="#221F1F"/>
<path d="M91.4799 853.53C88.4799 853.9 85.4799 854.26 82.4799 854.53C79.4799 854.8 76.4799 855.14 73.4799 855.38C67.4799 855.9 61.4799 856.32 55.4799 856.7C54.6937 856.744 53.9216 856.477 53.3305 855.957C52.7393 855.437 52.3762 854.705 52.3197 853.92V853.92V853.53C50.4997 823.79 50.0198 794.05 50.3798 764.31C50.5798 749.44 51.0299 734.57 51.8099 719.7C52.5899 704.83 53.6899 689.96 55.5099 675.09C57.3299 689.96 58.4199 704.83 59.2099 719.7C59.9999 734.57 60.4398 749.44 60.6398 764.31C60.9998 794.05 60.5198 823.79 58.6998 853.53L55.5099 850.34C61.5099 850.72 67.5099 851.14 73.5099 851.66C76.5099 851.9 79.5099 852.23 82.5099 852.51C85.5099 852.79 88.4899 853.15 91.4799 853.53Z" fill="#221F1F"/>
<path d="M507.86 853.53H543.8V675.09H493.61L507.86 853.53Z" fill="#A67C52"/>
<path d="M543.8 675.09C539.607 675.59 535.423 676.017 531.25 676.37C527.07 676.77 522.88 677.1 518.7 677.37C514.52 677.64 510.34 677.94 506.15 678.2C501.96 678.46 497.79 678.68 493.61 678.86L497.39 674.76C499.283 689.573 500.907 704.407 502.26 719.26C503.63 734.12 504.83 748.98 505.76 763.87C506.69 778.76 507.42 793.67 507.83 808.6C508.24 823.53 508.39 838.49 507.83 853.5C504.92 838.76 502.71 823.98 500.73 809.17C498.75 794.36 497.12 779.53 495.73 764.68C494.34 749.83 493.11 734.96 492.1 720.07C491.09 705.18 490.33 690.29 489.85 675.36V675.02C489.832 674.542 489.91 674.065 490.078 673.616C490.246 673.168 490.5 672.757 490.828 672.408C491.155 672.058 491.548 671.777 491.984 671.58C492.42 671.383 492.891 671.274 493.37 671.26H493.65C497.83 671.44 502.01 671.68 506.19 671.91C510.37 672.14 514.56 672.43 518.74 672.74C522.92 673.05 527.11 673.38 531.29 673.74C535.47 674.1 539.61 674.58 543.8 675.09Z" fill="#221F1F"/>
<path d="M507.85 853.53C510.85 853.15 513.85 852.79 516.85 852.53C519.85 852.27 522.85 851.92 525.85 851.68C531.85 851.16 537.85 850.74 543.85 850.36L540.66 853.55C538.84 823.81 538.36 794.07 538.72 764.33C538.92 749.46 539.37 734.59 540.15 719.72C540.93 704.85 542.02 689.98 543.85 675.11C545.67 689.98 546.75 704.85 547.54 719.72C548.33 734.59 548.78 749.46 548.97 764.33C549.34 794.07 548.86 823.81 547.03 853.55V853.94C546.976 854.727 546.614 855.461 546.022 855.984C545.431 856.506 544.658 856.774 543.87 856.73V856.73C537.87 856.35 531.87 855.93 525.87 855.41C522.87 855.17 519.87 854.84 516.87 854.56C513.87 854.28 510.85 853.9 507.85 853.53Z" fill="#221F1F"/>
<path d="M251.84 578.61C251.84 578.61 366.2 617.87 360.66 564.81C358.75 546.57 347.42 504.9 352.48 463.15C362.14 383.48 401.82 293.82 453.9 278.23C453.9 278.23 465.38 273.11 460.79 292.01C456.2 310.91 452.4 312.59 480.2 353.83C509.39 397.12 515.87 453.34 515.96 512.2C516.07 582.3 389.29 776.84 249.29 641.96L251.84 578.61Z" fill="#EA5F00"/>
<path d="M510.29 434.3C505.22 404.76 496.07 377.39 480.2 353.85C452.4 312.61 456.2 310.93 460.79 292.03C465.38 273.13 453.9 278.25 453.9 278.25C410.49 291.25 375.69 355.71 359.72 422.95C368.63 419.03 384.52 410.95 398.72 398.19C398.72 398.19 398.72 425.66 395.72 439.1C395.398 440.627 394.943 442.123 394.36 443.57C389.97 453.82 426.57 419.42 430.22 401.12C430.22 401.12 444.13 437.36 441.22 453.27C441.22 453.27 472.69 429.66 469.04 398.19C469.04 398.17 486.13 397.15 510.29 434.3Z" fill="#F7F8E2"/>
<path d="M251.84 578.61C260.84 581.36 269.84 583.68 279.03 585.66C288.151 587.666 297.37 589.195 306.65 590.24C315.9 591.19 325.27 591.58 334.35 590.36C338.843 589.837 343.228 588.623 347.35 586.76C351.285 585.04 354.533 582.055 356.58 578.28C358.406 574.388 359.066 570.049 358.48 565.79C357.99 561.33 357.1 556.71 356.24 552.13C354.48 542.95 352.74 533.69 351.33 524.36C348.52 505.71 346.99 486.66 348.52 467.58C348.91 462.79 349.52 458.11 350.16 453.42C350.8 448.73 351.56 444.06 352.4 439.42C354.073 430.087 356.1 420.84 358.48 411.68C360.86 402.52 363.573 393.44 366.62 384.44C369.69 375.44 373.1 366.6 376.98 357.92C380.833 349.201 385.146 340.692 389.9 332.43C394.671 324.094 400.042 316.117 405.97 308.56C411.954 300.872 418.787 293.884 426.34 287.73C430.198 284.612 434.313 281.826 438.64 279.4C443.033 276.905 447.684 274.894 452.51 273.4L451.91 273.63L452.5 273.39L452.97 273.23C453.28 273.13 453.58 273.04 453.89 272.96C454.523 272.796 455.169 272.683 455.82 272.62C457.368 272.446 458.936 272.617 460.41 273.12C462.136 273.733 463.638 274.852 464.72 276.33C465.578 277.53 466.186 278.891 466.51 280.33C466.651 280.923 466.758 281.524 466.83 282.13C466.83 282.68 466.94 283.27 466.94 283.79C466.963 284.791 466.926 285.793 466.83 286.79C466.653 288.635 466.352 290.465 465.93 292.27C465.54 294.01 465.13 295.56 464.72 297.16C464.31 298.76 463.91 300.3 463.58 301.78C462.877 304.436 462.604 307.188 462.77 309.93C463.22 315.02 465.92 320.66 468.92 326.14C471.92 331.62 475.43 337.09 478.92 342.49C480.69 345.19 482.5 347.89 484.31 350.58L487.07 354.77L489.73 359.05C493.195 364.79 496.362 370.705 499.22 376.77C504.877 388.889 509.42 401.497 512.79 414.44C519.58 440.25 522.22 466.94 521.79 493.44C521.68 500.08 521.4 506.63 520.91 513.32C520.256 520.13 518.977 526.865 517.09 533.44C513.396 546.285 508.515 558.759 502.51 570.7C496.611 582.597 489.885 594.065 482.38 605.02C474.905 615.993 466.605 626.38 457.55 636.09C448.5 645.857 438.564 654.765 427.87 662.7C417.141 670.701 405.437 677.304 393.04 682.35C380.566 687.384 367.335 690.288 353.9 690.94C340.492 691.516 327.088 689.694 314.32 685.56C301.682 681.439 289.687 675.557 278.69 668.09C267.78 660.707 257.624 652.266 248.37 642.89V642.89C248.246 642.766 248.15 642.617 248.088 642.454C248.026 642.29 248 642.115 248.01 641.94L250.01 609.94C250.69 599.39 251.29 588.97 251.84 578.61ZM251.84 578.61C251.54 589.36 251.34 600.05 251.18 610.61L250.58 642L250.19 641C254.95 645.42 259.883 649.627 264.99 653.62C270.07 657.621 275.361 661.346 280.84 664.78C291.685 671.698 303.447 677.063 315.78 680.72C321.907 682.5 328.172 683.764 334.51 684.5C340.818 685.209 347.177 685.349 353.51 684.92C366.197 684.002 378.64 680.96 390.32 675.92C402.04 670.876 413.08 664.378 423.18 656.58C433.336 648.759 442.749 640.019 451.3 630.47C468.447 611.299 482.823 589.82 494.01 566.66C499.626 555.202 504.166 543.248 507.57 530.95C509.223 524.948 510.334 518.81 510.89 512.61C511.33 506.28 511.59 499.78 511.67 493.37C512.02 467.67 509.36 441.9 502.77 417.2C499.5 404.878 495.15 392.868 489.77 381.31C487.078 375.554 484.097 369.936 480.84 364.48L478.34 360.48L475.73 356.48C473.9 353.75 472.08 351.02 470.29 348.25C466.7 342.72 463.16 337.13 459.9 331.25C458.216 328.219 456.707 325.094 455.38 321.89C453.91 318.413 452.969 314.736 452.59 310.98C452.433 309.025 452.466 307.059 452.69 305.11C452.918 303.292 453.252 301.489 453.69 299.71C454.08 298.01 454.51 296.4 454.91 294.83C455.31 293.26 455.74 291.66 456.07 290.22C456.403 288.852 456.641 287.462 456.78 286.06C456.917 284.979 456.893 283.884 456.71 282.81C456.64 282.46 456.53 282.29 456.58 282.37C456.696 282.52 456.852 282.635 457.03 282.7C457.17 282.75 457.08 282.7 456.8 282.7C456.638 282.715 456.478 282.742 456.32 282.78L456.06 282.86H455.95L455.35 283.08C446.979 285.724 439.178 289.913 432.35 295.43C425.321 301.065 418.948 307.472 413.35 314.53C401.93 328.7 392.77 344.85 385.08 361.61C377.423 378.476 371.11 395.92 366.2 413.78C361.229 431.642 357.655 449.864 355.51 468.28C353.61 486.56 354.64 505.18 356.98 523.62C358.13 532.85 359.69 542.05 361.16 551.32C361.88 555.98 362.64 560.59 363.04 565.46C363.236 567.977 363.132 570.508 362.73 573C362.311 575.555 361.47 578.022 360.24 580.3C358.987 582.586 357.323 584.62 355.33 586.3C353.388 587.932 351.223 589.279 348.9 590.3C344.399 592.19 339.633 593.37 334.77 593.8C325.21 594.8 315.77 593.97 306.39 592.67C297.08 591.303 287.855 589.406 278.76 586.99C269.69 584.47 260.69 581.75 251.84 578.61Z" fill="#231F20"/>
<path d="M420.21 530.42C418.93 483.69 383.03 337.19 383.03 337.19L284.48 339.83L185.93 337.19C185.93 337.19 150.03 483.69 148.75 530.42C147.47 577.15 150.03 682.71 284.48 680.07C418.93 682.71 421.49 577.15 420.21 530.42Z" fill="#EA5F00"/>
<path d="M185.93 337.19C178.49 372.41 171.13 407.63 164.58 442.98C161.29 460.65 158.15 478.34 155.63 496.08C154.39 504.94 153.25 513.83 152.63 522.66L152.41 525.96L152.29 529.24C152.2 531.42 152.2 533.7 152.18 535.91C152.18 540.37 152.18 544.82 152.36 549.26C152.641 558.103 153.443 566.921 154.76 575.67C156.06 584.352 158.067 592.914 160.76 601.27C163.417 609.545 166.989 617.497 171.41 624.98C175.803 632.39 181.186 639.166 187.41 645.12C193.661 651.012 200.662 656.056 208.23 660.12C212.043 662.148 215.965 663.96 219.98 665.55C223.98 667.13 228.14 668.46 232.32 669.64C240.757 671.923 249.37 673.491 258.07 674.33L261.35 674.65L264.64 674.88C266.82 675.06 269.03 675.12 271.22 675.22C273.41 675.32 275.63 675.31 277.83 675.36L284.54 675.31L291.25 675.36C293.45 675.31 295.66 675.36 297.86 675.22C300.06 675.08 302.26 675.06 304.44 674.88L307.73 674.65L311.01 674.33C319.709 673.486 328.323 671.918 336.76 669.64C340.94 668.45 345.08 667.13 349.1 665.54C353.115 663.954 357.038 662.144 360.85 660.12C368.418 656.04 375.415 650.98 381.66 645.07C387.884 639.119 393.267 632.347 397.66 624.94C402.059 617.477 405.614 609.549 408.26 601.3C410.945 592.945 412.935 584.382 414.21 575.7C415.531 566.952 416.335 558.133 416.62 549.29C416.767 544.85 416.827 540.4 416.8 535.94C416.8 533.73 416.8 531.45 416.69 529.27L416.57 525.99L416.34 522.69C415.7 513.86 414.55 504.98 413.34 496.11C410.81 478.37 407.68 460.68 404.34 443.01C397.8 407.66 390.44 372.44 383 337.22C392.46 371.96 401.077 406.92 408.85 442.1C412.7 459.7 416.31 477.36 419.37 495.17C420.89 504.08 422.23 513.03 423.08 522.17L423.38 525.59L423.58 529.05C423.72 531.37 423.76 533.59 423.83 535.87C423.95 540.4 423.99 544.95 423.92 549.51C423.65 567.71 421.66 586.15 416.1 603.86C413.361 612.724 409.645 621.257 405.02 629.3C400.318 637.45 394.525 644.919 387.8 651.5C381.043 658.06 373.414 663.66 365.13 668.14C361.002 670.352 356.756 672.335 352.41 674.08C348.074 675.784 343.655 677.269 339.17 678.53C330.242 680.987 321.123 682.689 311.91 683.62L308.47 683.97L305.03 684.23C302.74 684.42 300.44 684.49 298.15 684.61C295.86 684.73 293.56 684.72 291.26 684.78C288.96 684.84 286.74 684.78 284.48 684.78H277.7C275.4 684.72 273.11 684.72 270.81 684.6C268.51 684.48 266.22 684.42 263.93 684.22L260.49 683.96L257.05 683.61C247.837 682.683 238.719 680.983 229.79 678.53C225.32 677.24 220.89 675.8 216.55 674.07C212.203 672.335 207.96 670.352 203.84 668.13C195.554 663.652 187.926 658.053 181.17 651.49C174.444 644.914 168.65 637.448 163.95 629.3C159.306 621.221 155.579 612.647 152.84 603.74C147.28 586.04 145.3 567.6 145.02 549.4C144.95 544.84 145.02 540.29 145.11 535.76C145.18 533.48 145.23 531.26 145.37 528.94L145.56 525.48L145.87 522.06C146.71 512.96 148.06 504.06 149.58 495.06C152.64 477.25 156.24 459.59 160.09 441.99C163.94 424.39 168.09 406.87 172.4 389.39C174.573 380.65 176.774 371.923 179 363.21C181.227 354.497 183.537 345.823 185.93 337.19Z" fill="#231F20"/>
<path d="M383.03 337.19C366.66 339.69 350.24 341.19 333.81 342.43C317.38 343.67 300.93 344.43 284.48 344.9C268.034 344.427 251.59 343.607 235.15 342.44C218.72 341.22 202.3 339.7 185.93 337.19C202.41 335.63 218.84 335.04 235.26 334.76C251.68 334.48 268.08 334.65 284.48 335.13C300.88 334.657 317.287 334.537 333.7 334.77C350.12 335.06 366.55 335.64 383.03 337.19Z" fill="#231F20"/>
<path d="M220.29 670.16C230.918 672.277 241.664 673.753 252.47 674.58C257.81 674.98 263.14 675.23 268.47 675.35C271.14 675.41 273.81 675.45 276.47 675.43C279.13 675.41 281.86 675.43 284.59 675.35L288.68 675.42H292.68C295.36 675.42 298.03 675.42 300.68 675.32C306.013 675.2 311.347 674.937 316.68 674.53C327.484 673.687 338.227 672.191 348.85 670.05C339.4 675.9 328.65 679.58 317.74 681.89C312.266 683.017 306.729 683.811 301.16 684.27C299.77 684.4 298.37 684.49 296.98 684.56C295.59 684.63 294.2 684.72 292.8 684.75C290 684.82 287.26 684.82 284.54 684.8C281.82 684.78 279.09 684.8 276.28 684.74C274.89 684.74 273.5 684.63 272.11 684.56C270.72 684.49 269.32 684.41 267.93 684.27C262.36 683.824 256.823 683.035 251.35 681.91C240.51 679.63 229.76 675.97 220.29 670.16Z" fill="#231F20"/>
<path d="M376.1 535.8C375.24 490.42 350.98 314.25 350.98 314.25L284.38 316.81L217.78 314.25C217.78 314.25 193.52 490.42 192.69 535.8C191.86 581.18 193.56 647.36 284.42 644.8C375.24 647.36 376.97 581.19 376.1 535.8Z" fill="#F7F8E2"/>
<path d="M250.62 106.58C250.62 106.58 243.92 46.5801 163.13 5.31006C163.13 5.31006 90.0702 53.9201 143.36 181.12L250.62 106.58Z" fill="#F08100"/>
<path d="M165.69 39.3C165.69 39.3 224.64 52.3 250.61 134.09L165.69 174.63C165.69 174.63 130.46 117.92 165.69 39.3Z" fill="#EA5F00"/>
<path d="M161.41 21.52C177.511 24.4612 193.198 29.3365 208.13 36.04C194.573 23.8288 179.438 13.4931 163.13 5.31006C163.13 5.31006 129.31 27.8301 124.48 82.3101C132.69 60.1601 145.12 33.88 161.41 21.52Z" fill="#231F20"/>
<path d="M250.62 106.58C249.982 103.772 249.171 101.007 248.19 98.3C247.19 95.6 246.19 92.92 245 90.3C242.669 85.0895 239.997 80.0385 237 75.1801C234.006 70.3425 230.755 65.6691 227.26 61.1801C223.75 56.7301 219.94 52.5401 216.02 48.4701L213.02 45.4701C212.02 44.4701 210.96 43.5401 209.93 42.5701L208.39 41.13L206.79 39.7301L203.6 36.9501L200.31 34.28L198.67 32.9401L196.98 31.66L193.61 29.1001L190.16 26.65C180.889 20.1624 171.153 14.3668 161.03 9.31006L165.63 9.05005L165.18 9.37L164.67 9.77002C164.32 10.03 163.97 10.3201 163.62 10.6101C162.91 11.1801 162.22 11.81 161.53 12.41C160.16 13.67 158.8 14.9501 157.53 16.3101C154.903 19.0132 152.463 21.8933 150.23 24.9301C145.674 30.9956 141.813 37.5533 138.72 44.4801C135.583 51.4327 133.128 58.6733 131.39 66.1001C129.607 73.5797 128.493 81.203 128.06 88.8801L127.85 91.7601L127.78 94.66C127.78 96.59 127.67 98.53 127.69 100.46C127.84 104.33 127.81 108.22 128.2 112.1C128.36 114.04 128.45 115.98 128.67 117.92L129.36 123.73L129.71 126.64L130.19 129.54L131.19 135.33C131.5 137.27 131.99 139.17 132.37 141.1L133.55 146.87C134.55 150.68 135.44 154.52 136.46 158.33C137.48 162.14 138.61 165.93 139.76 169.72C140.91 173.51 142.21 177.25 143.39 181.06C136.12 166.831 130.372 151.875 126.24 136.44L124.81 130.59L124.1 127.66L123.52 124.66L122.37 118.73C122.03 116.73 121.81 114.73 121.53 112.73C120.9 108.73 120.67 104.73 120.34 100.65C120.22 98.65 120.21 96.6001 120.14 94.5701L120.07 91.5701L120.16 88.52L120.25 85.4601C120.25 84.4601 120.25 83.4601 120.41 82.4601L120.93 76.3601C121.45 72.3601 122.02 68.26 122.93 64.25C124.594 56.1866 127.091 48.3177 130.38 40.77C133.693 33.1807 137.878 26.0024 142.85 19.38C145.333 16.0443 148.04 12.8805 150.95 9.91003C152.4 8.41003 153.95 6.91007 155.49 5.57007C156.31 4.88007 157.09 4.19007 157.94 3.57007C158.36 3.23007 158.78 2.90007 159.23 2.57007L159.9 2.08008L160.66 1.54004L162.84 0.0200195L165.26 1.28003C175.72 6.68899 185.702 12.9749 195.1 20.0701C199.83 23.5801 204.3 27.44 208.66 31.4C212.98 35.4115 217.082 39.6509 220.95 44.1001C228.688 52.9697 235.271 62.7846 240.54 73.3101C243.163 78.5441 245.366 83.9778 247.13 89.5601C248.027 92.333 248.781 95.15 249.39 98.0001C250.007 100.826 250.418 103.694 250.62 106.58Z" fill="#231F20"/>
<path d="M318.34 106.58C318.34 106.58 325.04 46.5801 405.83 5.31006C405.83 5.31006 478.89 53.9201 425.6 181.12L318.34 106.58Z" fill="#F08100"/>
<path d="M403.25 39.3C403.25 39.3 344.31 52.3 318.34 134.09L403.25 174.59C403.25 174.59 438.5 117.92 403.25 39.3Z" fill="#EA5F00"/>
<path d="M407.55 21.52C391.449 24.4612 375.762 29.3365 360.83 36.04C374.387 23.8288 389.522 13.4931 405.83 5.31006C405.83 5.31006 439.65 27.8301 444.48 82.3101C436.31 60.1601 423.84 33.88 407.55 21.52Z" fill="#231F20"/>
<path d="M318.34 106.58C318.56 103.686 318.991 100.812 319.63 97.98C320.239 95.13 320.993 92.313 321.89 89.54C323.654 83.9578 325.857 78.5241 328.48 73.29C333.749 62.7645 340.332 52.9496 348.07 44.0801C351.937 39.6309 356.04 35.3915 360.36 31.38C364.72 27.38 369.19 23.56 373.92 20.05C383.318 12.9548 393.3 6.66897 403.76 1.26001L406.18 0L408.36 1.52002L409.12 2.06006L409.79 2.55005C410.24 2.88005 410.66 3.21005 411.08 3.55005C411.93 4.21005 412.71 4.90005 413.52 5.55005C415.1 6.94338 416.616 8.39001 418.07 9.89001C420.98 12.8605 423.687 16.0244 426.17 19.3601C431.142 25.9825 435.327 33.1607 438.64 40.75C441.929 48.2977 444.426 56.1667 446.09 64.2301C446.97 68.2301 447.54 72.2901 448.09 76.3401L448.61 82.4401C448.72 83.4401 448.74 84.4401 448.77 85.4401L448.86 88.5001L448.95 91.55L448.88 94.55C448.81 96.55 448.8 98.6101 448.68 100.63C448.35 104.63 448.12 108.72 447.49 112.71C447.21 114.71 446.99 116.71 446.65 118.71L445.5 124.64L444.92 127.64L444.21 130.57L442.78 136.42C438.644 151.854 432.895 166.809 425.63 181.04C426.81 177.23 428.04 173.46 429.26 169.7C430.48 165.94 431.46 162.1 432.56 158.31C433.66 154.52 434.49 150.66 435.47 146.85L436.65 141.08C437.03 139.15 437.52 137.25 437.83 135.31L438.83 129.52L439.31 126.62L439.66 123.71L440.35 117.9C440.57 115.96 440.66 114.02 440.82 112.08C441.21 108.2 441.18 104.31 441.33 100.44C441.33 98.5101 441.26 96.5701 441.24 94.6401L441.17 91.7401L440.96 88.86C440.527 81.183 439.413 73.5597 437.63 66.0801C435.892 58.6532 433.437 51.4126 430.3 44.4601C427.207 37.5333 423.346 30.9755 418.79 24.91C416.557 21.8733 414.117 18.9932 411.49 16.29C410.2 14.93 408.84 13.65 407.49 12.39C406.8 11.79 406.11 11.1601 405.4 10.5901C405.05 10.3001 404.7 10.01 404.35 9.75L403.83 9.3501L403.39 9.03003L407.99 9.29004C397.867 14.3468 388.131 20.1424 378.86 26.63L375.41 29.0801L372.04 31.64L370.35 32.92L368.71 34.26L365.42 36.9301L362.23 39.7101L360.63 41.1101L359.09 42.55C358.09 43.55 357.01 44.4701 356 45.4501L353 48.4501C349.08 52.5201 345.27 56.71 341.76 61.16C338.265 65.6491 335.014 70.3225 332.02 75.16C329.023 80.0185 326.351 85.0694 324.02 90.28C322.83 92.88 321.8 95.56 320.83 98.28C319.828 100.992 318.997 103.764 318.34 106.58V106.58Z" fill="#231F20"/>
<path d="M284.48 373.18C493.8 373.18 529.24 227.73 529.24 227.73C529.24 227.73 492.95 244.4 442.31 174.73C378.14 86.42 320.77 82.3101 284.48 82.3101C248.19 82.3101 190.82 86.42 126.65 174.73C76.0101 244.43 39.7202 227.73 39.7202 227.73C39.7202 227.73 75.1602 373.18 284.48 373.18Z" fill="#EA5F00"/>
<path d="M311.11 251.91L284.48 263.63L257.85 251.91C257.85 251.91 289.36 119.36 190.55 133.25C178.227 135.084 166.05 137.791 154.11 141.35C144.267 151.869 135.108 163.009 126.69 174.7C76.0502 244.4 39.7603 227.7 39.7603 227.7C39.7603 227.7 75.2003 373.15 284.52 373.15C493.84 373.15 529.28 227.7 529.28 227.7C529.28 227.7 492.99 244.37 442.35 174.7C433.919 163.008 424.747 151.868 414.89 141.35C402.951 137.791 390.773 135.084 378.45 133.25C279.6 119.36 311.11 251.91 311.11 251.91Z" fill="#F7F8E2"/>
<path d="M39.6899 227.73C41.6516 233.773 44.0582 239.662 46.8899 245.35C49.6599 251.05 52.7698 256.57 56.0798 261.95C62.7456 272.668 70.3954 282.741 78.9299 292.04C95.9299 310.67 116.44 325.68 138.61 337.26L147.03 341.43C149.87 342.73 152.77 343.92 155.64 345.18C157.08 345.78 158.5 346.44 159.96 347.01L164.36 348.66L168.75 350.31C170.23 350.84 171.66 351.47 173.17 351.9C179.17 353.75 185.07 355.83 191.17 357.27C194.17 358.04 197.23 358.88 200.28 359.6L209.49 361.5C234.171 366.372 259.284 368.717 284.44 368.5C309.593 368.718 334.703 366.373 359.38 361.5L368.6 359.61C371.65 358.89 374.67 358.05 377.7 357.28C383.82 355.84 389.7 353.75 395.7 351.91C397.21 351.48 398.7 350.85 400.12 350.33L404.52 348.68L408.92 347.03C410.38 346.46 411.79 345.78 413.23 345.18C416.1 343.93 419 342.74 421.85 341.44L430.26 337.27C452.43 325.69 472.99 310.68 489.94 292.05C498.475 282.755 506.125 272.685 512.79 261.97C516.136 256.594 519.203 251.05 521.98 245.36C524.819 239.678 527.229 233.792 529.19 227.75C527.675 233.953 525.696 240.034 523.27 245.94C520.822 251.854 518.072 257.638 515.03 263.27C508.862 274.545 501.614 285.195 493.39 295.07C485.076 304.92 475.848 313.96 465.83 322.07C455.757 330.17 445.008 337.39 433.7 343.65C422.375 349.882 410.575 355.208 398.41 359.58C392.27 361.58 386.2 363.85 379.95 365.43C376.83 366.28 373.73 367.2 370.61 367.99L361.17 370.11C335.927 375.339 310.208 377.923 284.43 377.82C258.73 377.75 232.93 375.52 207.7 370.1L198.26 367.98C195.13 367.19 192.03 366.27 188.92 365.42C182.66 363.84 176.59 361.58 170.46 359.57C158.293 355.199 146.493 349.869 135.17 343.63C123.86 337.377 113.11 330.16 103.04 322.06C93.0193 313.953 83.7912 304.912 75.48 295.06C67.2532 285.186 60.0056 274.536 53.8398 263.26C50.7966 257.631 48.0431 251.85 45.5898 245.94C43.1754 240.024 41.2034 233.938 39.6899 227.73V227.73Z" fill="#231F20"/>
<path d="M529.24 227.73C526.331 228.917 523.246 229.613 520.11 229.79C516.963 230.017 513.802 229.903 510.68 229.45C507.549 228.985 504.459 228.273 501.44 227.32C499.95 226.79 498.44 226.32 496.98 225.71L494.78 224.81L492.62 223.81C486.896 221.092 481.461 217.802 476.4 213.99C471.342 210.199 466.529 206.09 461.99 201.69C457.41 197.33 453.22 192.62 449.08 187.85C447.08 185.42 445.02 183.04 443.08 180.53L437.32 173.14C429.827 163.349 421.816 153.965 413.32 145.03L410.12 141.71L406.82 138.49C404.65 136.31 402.37 134.26 400.11 132.19C397.85 130.12 395.5 128.19 393.21 126.13L389.65 123.23C388.47 122.23 387.28 121.3 386.05 120.4L382.4 117.63L378.67 115L376.8 113.68L374.89 112.43C373.61 111.61 372.35 110.76 371.05 109.96C365.88 106.764 360.538 103.853 355.05 101.24C344.143 96.0154 332.618 92.195 320.75 89.8701C314.802 88.7242 308.792 87.9295 302.75 87.4901C296.7 87.0401 290.59 86.9201 284.43 86.9301C278.27 86.9401 272.16 87.0401 266.11 87.4901C260.068 87.9329 254.058 88.7309 248.11 89.8801C236.241 92.2004 224.715 96.021 213.81 101.25C208.323 103.865 202.982 106.776 197.81 109.97C196.52 110.77 195.26 111.62 193.98 112.44L192.07 113.69L190.2 115.01L186.46 117.64L182.81 120.41C181.58 121.31 180.4 122.27 179.22 123.24L175.66 126.14C173.37 128.14 171 130.14 168.76 132.2C166.52 134.26 164.22 136.32 162.05 138.5L158.75 141.72L155.55 145.04C147.051 153.973 139.04 163.356 131.55 173.15L125.79 180.54C123.88 183.05 121.79 185.43 119.79 187.86C115.66 192.62 111.47 197.34 106.89 201.7C97.7899 210.41 87.76 218.42 76.25 223.82L74.0999 224.82L71.8899 225.71C70.4399 226.34 68.8899 226.8 67.4299 227.33C64.4096 228.278 61.3204 228.99 58.1899 229.46C55.0672 229.904 51.9061 230.015 48.76 229.79C45.6237 229.613 42.5384 228.917 39.6299 227.73C42.5841 228.684 45.6759 229.144 48.78 229.09C51.8635 229.084 54.9375 228.748 57.95 228.09C60.9518 227.436 63.9001 226.557 66.77 225.46C68.18 224.85 69.61 224.32 70.99 223.63L73.0601 222.63L75.0601 221.54C85.8401 215.65 95.2099 207.46 103.61 198.54C107.86 194.1 111.79 189.35 115.61 184.54C117.46 182.08 119.39 179.68 121.15 177.15L126.58 169.57C133.879 159.31 141.769 149.483 150.21 140.14C158.651 130.688 167.866 121.958 177.76 114.04L181.51 111.1L185.36 108.27L187.29 106.87L189.29 105.52C190.61 104.64 191.92 103.72 193.29 102.86C198.667 99.3968 204.229 96.2288 209.95 93.3701C221.486 87.6789 233.716 83.5203 246.33 81C252.606 79.7529 258.951 78.8748 265.33 78.37C271.7 77.86 278.07 77.7001 284.33 77.6801C290.59 77.6601 296.99 77.86 303.33 78.37C309.709 78.8781 316.054 79.7596 322.33 81.01C334.943 83.5196 347.172 87.6787 358.7 93.3801C364.423 96.2409 369.988 99.4089 375.37 102.87C376.71 103.73 378.01 104.65 379.37 105.53L381.37 106.88L383.3 108.28L387.14 111.11L390.9 114.05C400.786 121.973 409.998 130.703 418.44 140.15C426.883 149.491 434.773 159.318 442.07 169.58L447.5 177.16C449.26 179.69 451.19 182.09 453.04 184.55C456.88 189.37 460.81 194.12 465.04 198.55C473.44 207.5 482.81 215.68 493.59 221.55L495.59 222.64L497.66 223.64C499.03 224.34 500.47 224.87 501.88 225.48C504.75 226.577 507.698 227.456 510.7 228.11C513.712 228.768 516.786 229.104 519.87 229.11C523.049 229.187 526.218 228.721 529.24 227.73V227.73Z" fill="#231F20"/>
<path d="M321.47 263.79C321.47 273.79 285.97 284.14 285.97 284.14C285.97 284.14 247.08 273.84 247.08 263.79C247.08 253.74 263.73 245.6 284.27 245.6C304.81 245.6 321.47 253.74 321.47 263.79Z" fill="#231F20"/>
<path d="M197.15 259.55C219.203 259.55 237.08 241.673 237.08 219.62C237.08 197.567 219.203 179.69 197.15 179.69C175.097 179.69 157.22 197.567 157.22 219.62C157.22 241.673 175.097 259.55 197.15 259.55Z" fill="#F7F8E2"/>
<path d="M237.07 219.62C237.489 224.933 236.773 230.275 234.97 235.29C233.118 240.388 230.239 245.051 226.51 248.99C222.742 252.97 218.203 256.141 213.17 258.31C208.105 260.45 202.668 261.568 197.17 261.6C191.67 261.573 186.231 260.451 181.17 258.3C176.137 256.13 171.599 252.959 167.83 248.98C164.105 245.04 161.229 240.377 159.38 235.28C157.577 230.268 156.858 224.93 157.27 219.62C158.052 229.928 162.622 239.582 170.1 246.72C177.431 253.632 187.124 257.484 197.2 257.49C207.27 257.472 216.956 253.622 224.29 246.72C231.747 239.572 236.298 229.92 237.07 219.62Z" fill="#231F20"/>
<path d="M237.07 219.62C236.288 209.315 231.717 199.664 224.24 192.53C216.91 185.621 207.223 181.766 197.15 181.75C187.074 181.756 177.381 185.608 170.05 192.52C162.572 199.658 158.002 209.312 157.22 219.62C156.808 214.31 157.527 208.972 159.33 203.96C161.179 198.863 164.056 194.2 167.78 190.26C171.549 186.281 176.088 183.11 181.12 180.94C186.181 178.789 191.621 177.667 197.12 177.64C202.618 177.672 208.056 178.79 213.12 180.93C218.153 183.099 222.692 186.27 226.46 190.25C230.189 194.189 233.069 198.852 234.92 203.95C236.741 208.962 237.473 214.303 237.07 219.62V219.62Z" fill="#231F20"/>
<path d="M199.03 258.96C213.494 258.96 225.22 247.234 225.22 232.77C225.22 218.306 213.494 206.58 199.03 206.58C184.566 206.58 172.84 218.306 172.84 232.77C172.84 247.234 184.566 258.96 199.03 258.96Z" fill="#040809"/>
<path d="M367.28 259.55C389.333 259.55 407.21 241.673 407.21 219.62C407.21 197.567 389.333 179.69 367.28 179.69C345.227 179.69 327.35 197.567 327.35 219.62C327.35 241.673 345.227 259.55 367.28 259.55Z" fill="#F7F8E2"/>
<path d="M407.2 219.62C407.622 224.937 406.903 230.283 405.09 235.3C403.242 240.397 400.366 245.061 396.64 249C392.872 252.98 388.333 256.151 383.3 258.32C378.235 260.459 372.798 261.577 367.3 261.61C361.8 261.584 356.361 260.463 351.3 258.31C346.265 256.145 341.725 252.973 337.96 248.99C334.232 245.052 331.355 240.389 329.51 235.29C327.698 230.28 326.978 224.941 327.4 219.63C328.178 229.937 332.745 239.591 340.22 246.73C347.553 253.638 357.245 257.49 367.32 257.5C377.393 257.484 387.083 253.633 394.42 246.73C401.876 239.578 406.427 229.923 407.2 219.62V219.62Z" fill="#231F20"/>
<path d="M407.2 219.62C406.413 209.316 401.843 199.667 394.37 192.53C387.037 185.62 377.346 181.765 367.27 181.75C357.195 181.76 347.503 185.612 340.17 192.52C332.695 199.659 328.128 209.313 327.35 219.62C326.928 214.309 327.648 208.97 329.46 203.96C331.305 198.861 334.182 194.198 337.91 190.26C341.675 186.277 346.215 183.105 351.25 180.94C356.311 178.787 361.75 177.666 367.25 177.64C372.748 177.673 378.185 178.791 383.25 180.93C388.323 183.102 392.897 186.291 396.69 190.3C400.416 194.239 403.292 198.903 405.14 204C406.927 209.001 407.63 214.326 407.2 219.62Z" fill="#231F20"/>
<path d="M369.16 258.96C383.624 258.96 395.35 247.234 395.35 232.77C395.35 218.306 383.624 206.58 369.16 206.58C354.696 206.58 342.97 218.306 342.97 232.77C342.97 247.234 354.696 258.96 369.16 258.96Z" fill="#040809"/>
<path d="M191.88 152.18C191.88 152.18 187.44 187.09 153.77 193.49" stroke="#231F20" stroke-width="5.89" stroke-miterlimit="10" stroke-linecap="round"/>
<path d="M375.3 152.18C375.3 152.18 379.73 187.09 413.4 193.49" stroke="#231F20" stroke-width="5.89" stroke-miterlimit="10" stroke-linecap="round"/>
<path d="M191.55 375.83C191.55 375.83 157.55 352.5 129.86 322.07C104.11 293.78 100.74 263.45 74.5 268.92C52.42 273.53 67.5 316.27 86.92 352.3C125.18 423.38 194.77 455.37 194.77 455.37L191.55 375.83Z" fill="#EA5F00"/>
<path d="M83.6099 346.47C109.28 345.82 119.41 329.47 123.27 314.21C103.27 288.49 98.32 263.95 74.5 268.92C53.62 273.3 64.8599 312.36 83.6099 346.47Z" fill="#221F1F"/>
<path d="M192.77 375.8C185.26 371.69 178.03 367.09 170.92 362.28C163.81 357.47 156.92 352.36 150.24 346.92C148.55 345.59 146.91 344.2 145.24 342.82L142.76 340.74L140.33 338.61C137.09 335.76 133.97 332.77 130.85 329.77L126.27 325.16C124.74 323.61 123.27 321.97 121.8 320.32C118.9 317.02 116.21 313.54 113.64 310.01C108.51 302.96 104.04 295.5 99.4301 288.6C94.8201 281.7 89.78 275.31 83.59 273.67C81.9907 273.238 80.3356 273.05 78.6801 273.11C77.8 273.127 76.9218 273.197 76.0503 273.32C75.1983 273.431 74.3535 273.591 73.5202 273.8C72.2397 274.128 71.0628 274.774 70.1001 275.68C69.1403 276.688 68.4314 277.907 68.0302 279.24C67.0302 282.24 66.9202 286.13 67.2602 289.99C67.6764 293.993 68.3848 297.96 69.3801 301.86C71.4986 309.918 74.1342 317.831 77.2702 325.55C80.3402 333.38 83.8002 341.09 87.4802 348.72C95.0065 363.805 104.397 377.885 115.43 390.63C126.455 403.518 138.61 415.396 151.75 426.12C158.29 431.54 165.054 436.693 172.04 441.58C179.04 446.48 186.14 451.15 193.54 455.39C178.265 447.691 163.719 438.624 150.08 428.3C136.299 418.016 123.495 406.484 111.83 393.85C106.016 387.469 100.57 380.761 95.5202 373.76C94.2302 372.03 93.03 370.22 91.82 368.43L90.0102 365.73L88.2902 362.98L86.57 360.22L84.9401 357.4L81.7102 351.77C73.3902 336.71 65.6202 321.22 60.7102 304.2C59.4596 299.867 58.5633 295.439 58.0302 290.96C57.7595 288.61 57.6659 286.244 57.7502 283.88C57.8328 281.327 58.2497 278.795 58.9902 276.35C59.8489 273.59 61.342 271.069 63.3501 268.99C65.4651 266.913 68.0789 265.415 70.9401 264.64C72.175 264.317 73.4269 264.063 74.6901 263.88C75.9297 263.702 77.1784 263.595 78.4301 263.56C81.0487 263.508 83.6604 263.845 86.1801 264.56C88.7041 265.298 91.0991 266.421 93.2802 267.89C95.3306 269.286 97.2247 270.899 98.9301 272.7C101.988 276.079 104.739 279.723 107.15 283.59C109.54 287.27 111.7 290.96 113.9 294.59C116.1 298.22 118.33 301.76 120.63 305.23C122.93 308.7 125.37 312.06 127.93 315.31C129.21 316.94 130.51 318.53 131.93 320.1L136.11 324.81C138.98 327.89 141.86 330.97 144.86 333.93L147.08 336.2L149.35 338.41C150.86 339.89 152.35 341.41 153.92 342.82C166.25 354.3 179.26 365.3 192.77 375.8Z" fill="#221F1F"/>
<path d="M289.76 294.3C288.524 288.761 287.722 283.134 287.36 277.47C287.365 277.433 287.365 277.397 287.36 277.36C287.36 277.26 287.36 277.16 287.31 277.06L287.25 276.8C287.25 276.7 287.18 276.61 287.14 276.51C287.107 276.435 287.071 276.361 287.03 276.29C286.983 276.197 286.929 276.106 286.87 276.02L286.73 275.83C286.662 275.749 286.588 275.672 286.51 275.6L286.34 275.44C286.263 275.371 286.179 275.311 286.09 275.26C286.02 275.208 285.947 275.161 285.87 275.12L285.62 275L285.35 274.9C285.268 274.875 285.184 274.855 285.1 274.84H284.78H284.68H284.32H284.22H283.91L283.65 274.9L283.41 274.99L283.11 275.13L282.94 275.24C282.837 275.301 282.74 275.371 282.65 275.45L282.52 275.57L282.26 275.84L282.15 276C282.079 276.095 282.015 276.195 281.96 276.3L281.87 276.5C281.82 276.599 281.78 276.703 281.75 276.81C281.725 276.889 281.705 276.969 281.69 277.05C281.69 277.15 281.69 277.26 281.64 277.36C281.635 277.397 281.635 277.433 281.64 277.47C281.278 283.134 280.476 288.761 279.24 294.3H289.76Z" fill="#231F20"/>
<path d="M342.974 303.274C342.974 303.274 321.668 348.762 256.383 324.984" stroke="#231F20" stroke-width="5.89" stroke-miterlimit="10" stroke-linecap="round"/>
<path d="M126.675 240.678L140.111 250.847C142.522 252.671 144.109 255.379 144.523 258.374C144.938 261.369 144.146 264.406 142.321 266.816L104.301 317.051L72.6856 293.123L110.705 242.888C112.53 240.477 115.237 238.89 118.232 238.476C121.227 238.061 124.264 238.853 126.675 240.678Z" fill="#EC6468"/>
<path d="M30.6201 348.35L34.3701 376.25L62.2301 372.28L72.6801 354.17L59.7201 342.75L43.7501 340.31L30.6201 348.35Z" fill="#FDF18A"/>
<path d="M32.6899 363.53L34.3899 376.24L47.0898 374.44C46.8592 372.78 46.3033 371.182 45.4539 369.737C44.6044 368.292 43.4783 367.029 42.1399 366.02C39.4427 363.974 36.0452 363.079 32.6899 363.53V363.53Z" fill="black"/>
<path d="M62.2301 372.28L59.1901 359.24L48.4001 361.81L44.1601 348.27L30.6201 348.35L104.97 250.52L136.59 274.45L62.2301 372.28Z" fill="#F6A532"/>
<path d="M143.014 259.708L111.294 235.918L94.5599 258.23L126.28 282.02L143.014 259.708Z" fill="#999999"/>
<path d="M132.972 279.164L101.356 255.236L92.3645 267.117L123.98 291.045L132.972 279.164Z" fill="#666666"/>
<path d="M595.51 619.5H3.83008L80.6401 470.23H518.7L595.51 619.5Z" fill="#A67C52"/>
<path d="M595.51 619.5H3.83008V687.14H595.51V619.5Z" fill="#C69C6D"/>
<path d="M80.6899 470.23C89.8099 469.83 98.9401 469.45 108.06 469.15C117.18 468.85 126.32 468.5 135.44 468.26L162.82 467.51L190.2 466.9C199.33 466.67 208.45 466.52 217.58 466.38L244.96 465.94C263.21 465.65 281.47 465.55 299.72 465.35C336.22 465.023 372.723 464.913 409.23 465.02C445.74 465.02 482.23 465.45 518.75 465.86H518.87C519.654 465.866 520.421 466.09 521.084 466.507C521.748 466.924 522.283 467.517 522.63 468.22L541.23 505.85L559.62 543.59C565.73 556.17 571.74 568.82 577.78 581.44L586.73 600.44C589.73 606.79 592.65 613.13 595.56 619.5C592.06 613.43 588.63 607.33 585.18 601.24L574.93 582.91C568.17 570.66 561.38 558.42 554.69 546.13L534.69 509.23L514.88 472.23L518.76 474.6C482.26 475.01 445.76 475.4 409.24 475.45C372.72 475.5 336.24 475.45 299.73 475.11C281.48 474.91 263.22 474.81 244.97 474.52L217.59 474.08C208.46 473.94 199.34 473.79 190.21 473.57L162.83 472.95L135.45 472.2C126.33 471.96 117.2 471.63 108.07 471.32C98.9398 471.01 89.7599 470.64 80.6899 470.23Z" fill="#221F1F"/>
<path d="M595.51 619.5C546.2 621.21 496.89 622.19 447.59 623.03L373.59 623.97L299.59 624.53L225.59 624.72C200.94 624.78 176.28 624.63 151.59 624.59C126.9 624.55 102.28 624.31 77.5899 624.14C52.8999 623.97 28.2799 623.63 3.58993 623.31H3.50009C3.00283 623.305 2.51132 623.201 2.05404 623.006C1.59677 622.811 1.18272 622.527 0.835295 622.171C0.487868 621.815 0.213892 621.394 0.0293868 620.933C-0.155118 620.471 -0.246505 619.977 -0.2399 619.48C-0.230421 618.877 -0.0797837 618.284 0.200041 617.75C6.73004 605.38 13.3601 593.06 19.9901 580.75C26.6201 568.44 33.21 556.09 39.92 543.81C46.63 531.53 53.2601 519.21 60.0301 506.96C66.8001 494.71 73.57 482.46 80.4 470.24C74.4 482.9 68.4 495.55 62.4 508.15C56.4 520.75 50.22 533.35 44.11 545.94C38 558.53 31.81 571.07 25.64 583.63C19.47 596.19 13.3001 608.75 7.03012 621.25L3.63998 615.69C28.29 615.38 52.95 615.01 77.64 614.87C102.33 614.73 126.95 614.42 151.64 614.42C176.33 614.42 200.95 614.23 225.64 614.28L299.64 614.47L373.64 615.04L447.64 615.98C496.89 616.81 546.2 617.78 595.51 619.5Z" fill="#221F1F"/>
<path d="M3.83008 619.5C53.1401 617.55 102.44 616.5 151.75 615.68L188.75 615.14L225.75 614.78L262.75 614.46L299.75 614.35L336.75 614.25L373.75 614.35L410.75 614.46L447.75 614.78L484.75 615.14L521.75 615.69C534.07 615.84 546.4 616.1 558.75 616.36C571.1 616.62 583.4 616.84 595.75 617.19H595.88C596.475 617.208 597.039 617.462 597.447 617.895C597.856 618.328 598.076 618.905 598.06 619.5L597.58 636.41L597.04 653.32L596.45 670.23L595.75 687.14L595.05 670.23L594.46 653.32L593.92 636.41L593.44 619.5L595.75 621.81C583.42 622.16 571.09 622.37 558.75 622.64C546.41 622.91 534.09 623.16 521.75 623.31L484.75 623.86L447.75 624.22L410.75 624.54L373.75 624.64L336.75 624.75L299.75 624.64L262.75 624.53L225.75 624.22L188.75 623.86L151.75 623.32C102.44 622.49 53.1401 621.45 3.83008 619.5Z" fill="#221F1F"/>
<path d="M595.51 687.14C546.2 689.14 496.89 690.14 447.59 690.98L410.59 691.53L373.59 691.88L336.59 692.18L299.59 692.29L262.59 692.39L225.59 692.28L188.59 692.17L151.59 691.83C102.257 691.43 52.95 690.597 3.67003 689.33H3.69005C3.41031 689.324 3.13448 689.262 2.87853 689.149C2.62258 689.036 2.39152 688.873 2.19835 688.671C2.00519 688.469 1.85375 688.23 1.7528 687.969C1.65185 687.708 1.60333 687.43 1.60998 687.15V687.15L2.05016 670.24L2.57995 653.33L3.14 636.42L3.80016 619.51L4.46007 636.42L5.02013 653.33L5.54015 670.24L5.9901 687.15L3.80016 684.96C53.1335 683.72 102.44 682.887 151.72 682.46L188.72 682.13L225.72 682.02L262.72 681.9L299.72 682L336.72 682.11L373.72 682.42L410.72 682.77L447.72 683.32C496.89 684.13 546.2 685.18 595.51 687.14Z" fill="#221F1F"/>
<path d="M299.69 502.93C299.69 502.93 184.13 478.93 131.27 512.15L87.6099 593.89" fill="#F8F9E3"/>
<path d="M299.69 502.93C285.4 501.43 271.15 500.32 256.92 499.5C253.37 499.29 249.81 499.17 246.25 499.04C242.69 498.91 239.14 498.8 235.59 498.72C232.04 498.64 228.5 498.59 224.95 498.62C221.4 498.65 217.87 498.62 214.33 498.74C207.26 498.9 200.22 499.32 193.21 499.88L187.96 500.38C186.21 500.56 184.48 500.82 182.74 501.02C181 501.22 179.27 501.47 177.54 501.74C175.81 502.01 174.08 502.23 172.37 502.59C165.538 503.768 158.801 505.439 152.21 507.59C145.711 509.639 139.459 512.403 133.57 515.83L135.08 514.21L129.39 524.3C127.497 527.673 125.587 531.033 123.66 534.38C121.733 537.727 119.803 541.06 117.87 544.38C115.94 547.72 113.97 551.05 111.99 554.38L106.06 564.38L100.06 574.28C96.0201 580.88 91.8765 587.423 87.6299 593.91C90.6499 586.77 93.7867 579.69 97.04 572.67L101.91 562.14L106.91 551.67C108.56 548.18 110.24 544.67 111.91 541.23C113.58 537.79 115.31 534.29 117.04 530.83C118.77 527.37 120.48 523.91 122.22 520.46L127.47 510.13C127.788 509.511 128.26 508.984 128.84 508.6L128.98 508.51C135.334 504.494 142.15 501.26 149.28 498.88L151.92 497.97C152.8 497.67 153.7 497.45 154.59 497.19C156.38 496.71 158.15 496.13 159.94 495.73L165.33 494.47C167.13 494.1 168.94 493.79 170.75 493.47C185.143 491.103 199.728 490.099 214.31 490.47C228.761 490.756 243.178 491.978 257.47 494.13C261.03 494.65 264.59 495.19 268.14 495.83C271.69 496.47 275.22 497.14 278.74 497.83C285.76 499.3 292.77 500.89 299.69 502.93Z" fill="#231F20"/>
<path d="M87.5898 593.89C87.5898 593.89 216.34 544.14 299.67 595.12V502.93" fill="#F8F9E3"/>
<path d="M87.5898 593.89C95.931 590.124 104.47 586.812 113.17 583.97L119.72 581.87C121.91 581.22 124.1 580.52 126.3 579.87L132.94 578.07L139.62 576.37L146.32 574.79L153.07 573.39C157.58 572.51 162.07 571.68 166.67 571.01L170.08 570.48L173.51 570.03C175.79 569.75 178.08 569.41 180.38 569.21L187.26 568.54L194.18 568.08C203.432 567.558 212.705 567.532 221.96 568C231.257 568.555 240.509 569.701 249.66 571.43C258.843 573.278 267.87 575.832 276.66 579.07C285.405 582.492 293.817 586.709 301.79 591.67L295.68 595.09C295.853 587.41 296.053 579.727 296.28 572.04C296.49 564.36 296.83 556.68 297.12 549.04C297.41 541.4 297.83 533.68 298.19 526.04C298.55 518.4 299.09 510.67 299.7 503.04C300.31 510.72 300.76 518.4 301.2 526.04C301.64 533.68 302.02 541.4 302.28 549.04C302.54 556.68 302.91 564.41 303.12 572.04C303.33 579.67 303.55 587.41 303.71 595.09C303.71 596.13 303.305 597.13 302.581 597.877C301.857 598.624 300.87 599.059 299.83 599.09C299.13 599.106 298.44 598.933 297.83 598.59L297.61 598.47C289.929 594.122 281.901 590.416 273.61 587.39C265.227 584.509 256.657 582.204 247.96 580.49C239.196 578.882 230.349 577.764 221.46 577.14C212.55 576.52 203.58 576.45 194.61 576.64C176.587 577.226 158.623 579.02 140.84 582.01C122.891 585.017 105.115 588.983 87.5898 593.89Z" fill="#231F20"/>
<path d="M299.69 502.93C299.69 502.93 415.24 478.93 468.1 512.15L511.76 593.89" fill="#F8F9E3"/>
<path d="M299.69 502.93C306.59 500.93 313.6 499.25 320.64 497.78C324.16 497.06 327.693 496.393 331.24 495.78C334.78 495.14 338.34 494.6 341.91 494.08C356.202 491.928 370.619 490.705 385.07 490.42C399.652 490.049 414.236 491.053 428.63 493.42C430.43 493.76 432.24 494.07 434.05 494.42L439.43 495.68C441.23 496.08 443 496.68 444.79 497.14C445.68 497.4 446.57 497.62 447.45 497.92L450.09 498.83C457.224 501.208 464.043 504.442 470.4 508.46L470.52 508.54C471.108 508.925 471.587 509.456 471.91 510.08L477.15 520.41C478.903 523.863 480.633 527.32 482.34 530.78C484.06 534.24 485.78 537.7 487.46 541.18C489.14 544.66 490.84 548.18 492.46 551.62L497.46 562.09L502.33 572.62C505.557 579.647 508.69 586.727 511.73 593.86C507.483 587.38 503.343 580.837 499.31 574.23L493.26 564.33L487.34 554.33C485.34 550.997 483.38 547.663 481.46 544.33C479.54 540.997 477.607 537.663 475.66 534.33C473.733 530.997 471.827 527.637 469.94 524.25L464.27 514.15L465.78 515.77C459.889 512.345 453.638 509.581 447.14 507.53C440.546 505.378 433.805 503.707 426.97 502.53C425.27 502.17 423.53 501.96 421.81 501.68C420.09 501.4 418.35 501.14 416.61 500.96C414.87 500.78 413.13 500.5 411.39 500.32L406.14 499.82C399.14 499.26 392.08 498.82 385.01 498.68C381.48 498.61 377.94 498.53 374.39 498.56C370.84 498.59 367.3 498.56 363.75 498.66C360.2 498.76 356.65 498.82 353.1 498.98C349.55 499.14 345.98 499.23 342.42 499.44C328.21 500.3 313.96 501.43 299.69 502.93Z" fill="#231F20"/>
<path d="M511.74 593.89C511.74 593.89 383 544.14 299.67 595.12V502.93" fill="#F8F9E3"/>
<path d="M511.74 593.89C494.237 589.01 476.485 585.071 458.56 582.09C440.78 579.1 422.82 577.306 404.8 576.72C395.8 576.53 386.86 576.6 377.95 577.22C369.061 577.843 360.214 578.961 351.45 580.57C342.753 582.283 334.183 584.588 325.8 587.47C317.51 590.499 309.483 594.205 301.8 598.55L301.61 598.66C300.693 599.167 299.613 599.294 298.603 599.014C297.593 598.733 296.734 598.068 296.21 597.16C295.867 596.549 295.687 595.86 295.69 595.16C295.863 587.48 296.063 579.797 296.29 572.11C296.5 564.43 296.84 556.75 297.13 549.11C297.42 541.47 297.84 533.75 298.2 526.11C298.56 518.47 299.1 510.74 299.71 503.11C300.32 510.79 300.77 518.47 301.21 526.11C301.65 533.75 302.03 541.47 302.29 549.11C302.55 556.75 302.92 564.48 303.13 572.11C303.34 579.74 303.56 587.48 303.72 595.16L297.61 591.74C305.567 586.771 313.962 582.54 322.69 579.1C331.479 575.86 340.506 573.306 349.69 571.46C358.841 569.73 368.093 568.584 377.39 568.03C386.645 567.562 395.918 567.588 405.17 568.11L412.08 568.57L418.97 569.24C421.27 569.44 423.55 569.78 425.84 570.06L429.27 570.51L432.68 571.04C437.24 571.71 441.76 572.54 446.28 573.42L453.03 574.82L459.73 576.4L466.4 578.1L473.04 579.9C475.25 580.52 477.44 581.22 479.63 581.9L486.17 584C494.867 586.829 503.403 590.131 511.74 593.89Z" fill="#231F20"/>
<path d="M384.86 451.15C384.86 451.15 418.44 475.06 445.6 505.98C470.85 534.72 473.69 565.1 500.03 560.09C522.18 555.87 507.83 512.87 489.03 476.51C452.03 404.77 383.03 371.51 383.03 371.51L384.86 451.15Z" fill="#EA5F00"/>
<path d="M492.27 482.4C466.6 482.6 456.18 498.78 452.06 513.95C471.57 540.02 476.12 564.64 500.06 560.09C520.97 556.1 510.42 516.82 492.27 482.4Z" fill="#221F1F"/>
<path d="M383.69 451.15C391.13 455.4 398.28 460.15 405.3 465.06C412.32 469.97 419.14 475.22 425.71 480.77C427.38 482.13 428.99 483.56 430.62 484.97L433.07 487.08L435.46 489.26C438.65 492.17 441.72 495.21 444.78 498.26L449.28 502.95C450.79 504.53 452.28 506.19 453.67 507.87C456.51 511.22 459.14 514.75 461.67 518.32C466.67 525.46 471.02 532.99 475.51 539.98C480 546.97 484.92 553.43 491.09 555.18C492.681 555.643 494.333 555.862 495.99 555.83C496.869 555.832 497.748 555.775 498.62 555.66C499.474 555.563 500.322 555.42 501.16 555.23C502.447 554.929 503.635 554.302 504.61 553.41C505.584 552.418 506.313 551.213 506.74 549.89C507.82 546.89 507.97 543.02 507.74 539.15C507.389 535.139 506.75 531.159 505.83 527.24C503.849 519.148 501.351 511.192 498.35 503.42C495.42 495.54 492.1 487.77 488.55 480.08C481.287 464.868 472.146 450.627 461.34 437.69C450.546 424.608 438.602 412.52 425.65 401.57C419.197 396.03 412.53 390.757 405.65 385.75C398.78 380.75 391.72 375.93 384.39 371.56C399.531 379.552 413.922 388.889 427.39 399.46C440.984 409.984 453.581 421.737 465.02 434.57C470.735 441.055 476.077 447.859 481.02 454.95C482.28 456.7 483.45 458.53 484.63 460.34L486.39 463.07L488.06 465.86L489.74 468.64L491.31 471.49L494.45 477.17C502.5 492.38 509.99 508 514.57 525.11C515.751 529.462 516.574 533.904 517.03 538.39C517.251 540.743 517.301 543.11 517.18 545.47C517.058 548.023 516.597 550.548 515.81 552.98C514.909 555.727 513.37 558.222 511.32 560.26C509.17 562.307 506.528 563.764 503.65 564.49C502.411 564.79 501.155 565.017 499.89 565.17C498.646 565.333 497.394 565.42 496.14 565.43C493.526 565.453 490.924 565.082 488.42 564.33C485.905 563.552 483.527 562.388 481.37 560.88C479.345 559.449 477.481 557.802 475.81 555.97C472.822 552.549 470.144 548.867 467.81 544.97C465.49 541.25 463.39 537.52 461.25 533.86C459.11 530.2 456.96 526.62 454.71 523.11C452.46 519.6 450.09 516.2 447.59 512.9C446.34 511.25 445.07 509.64 443.72 508.04L439.61 503.26C436.8 500.13 433.98 497 431.02 493.99L428.85 491.68L426.62 489.43C425.13 487.92 423.62 486.43 422.13 484.95C409.78 473.1 396.97 461.87 383.69 451.15Z" fill="#221F1F"/>
<path d="M92.3 267.3C92.3 267.3 108.86 283.91 92.8198 296.3C75.9098 309.39 62.4199 282.3 62.4199 282.3L92.3 267.3Z" fill="#221F1F"/>
</g>
<defs>
<clipPath id="clip0_4570_31418">
<rect width="597.82" height="856.72" fill="white"/>
</clipPath>
</defs>
</svg>
