<svg width="412" height="612" viewBox="0 0 412 612" fill="none" xmlns="http://www.w3.org/2000/svg">
<g clip-path="url(#clip0_4906_765)">
<path d="M205.57 611.25C319.103 611.25 411.14 589.89 411.14 563.54C411.14 537.191 319.103 515.83 205.57 515.83C92.0368 515.83 0 537.191 0 563.54C0 589.89 92.0368 611.25 205.57 611.25Z" fill="#A7A9AC"/>
<path d="M219.31 564.27C215.31 564.27 211.12 564.06 206.99 563.73H206.88C197.715 562.982 188.618 561.565 179.66 559.49H179.57C178.38 559.22 177.19 558.93 175.98 558.63L175.77 558.58C174.6 558.28 173.45 557.98 172.31 557.67L171.87 557.56L168.6 556.64L167.96 556.45C166.92 556.15 165.89 555.84 164.87 555.52L164.02 555.26C163.02 554.96 162.1 554.65 161.15 554.33L160 553.96C159 553.64 158.08 553.3 157.11 552.96L156.11 552.61C154.81 552.15 153.5 551.67 152.18 551.17C151.681 550.991 151.193 550.781 150.72 550.54C148.361 549.362 146.354 547.582 144.902 545.38C143.45 543.178 142.604 540.633 142.45 538C139.868 536.84 137.666 534.973 136.1 532.614C134.534 530.256 133.667 527.502 133.601 524.672C133.534 521.842 134.269 519.05 135.722 516.62C137.175 514.19 139.285 512.221 141.81 510.94C141.76 508.22 141.71 505.31 141.66 502.23C141.66 502.23 141.58 497.09 141.55 494.53C131.97 492.1 129.04 490.61 127 489.29C124.513 487.683 122.557 485.375 121.379 482.658C120.202 479.941 119.854 476.936 120.382 474.022C120.909 471.108 122.287 468.415 124.342 466.283C126.397 464.151 129.037 462.674 131.93 462.04C132.22 461.97 136.09 461.13 141.26 460.23V455.33V446.41C139.42 444.84 138.21 443.61 137.82 443.21C136.231 441.555 135.044 439.558 134.348 437.372C133.652 435.186 133.467 432.869 133.807 430.6C134.147 428.331 135.003 426.171 136.309 424.285C137.615 422.399 139.336 420.837 141.34 419.72L141.43 408.46L141.54 398.33L141.65 390.53C139.56 389.71 137.31 388.95 134.93 388.24L134.48 388.11C132.14 387.43 129.64 386.79 127 386.21C122.63 390.02 118.55 393.21 117.91 393.65C115.586 395.415 112.798 396.464 109.887 396.668C106.976 396.872 104.069 396.222 101.522 394.799C98.9745 393.376 96.8976 391.24 95.5456 388.654C94.1936 386.068 93.6252 383.144 93.91 380.24C93.91 380.04 93.91 379.84 93.98 379.63C79.22 375.63 66.8101 369.97 56.51 362.63C55.07 363.72 54.1301 364.41 54.0201 364.49C51.6534 366.206 48.8368 367.193 45.9166 367.33C42.9965 367.467 40.1 366.748 37.5832 365.26C35.0665 363.773 33.0392 361.583 31.7506 358.959C30.462 356.335 29.9683 353.391 30.3301 350.49C30.6101 348.29 31.1701 345.8 34.3301 339.55C31.5993 335.334 29.2084 330.906 27.18 326.31C25.5856 322.68 24.1935 318.964 23.01 315.18C18.28 315.05 14.5301 314.79 14.3301 314.78C11.3641 314.571 8.52726 313.485 6.17975 311.66C3.83225 309.836 2.08 307.354 1.14554 304.532C0.211092 301.709 0.136592 298.672 0.931494 295.807C1.7264 292.942 3.35486 290.378 5.61005 288.44C7.01005 287.24 8.79003 285.71 16.99 282.44C16.89 281.18 16.81 279.91 16.73 278.62C14.92 278.14 13.65 277.77 13.32 277.67C10.4627 276.827 7.92113 275.153 6.0192 272.86C4.11728 270.567 2.94117 267.76 2.64081 264.796C2.34046 261.832 2.92945 258.846 4.33271 256.218C5.73597 253.59 7.88994 251.439 10.5201 250.04C12.531 248.997 14.689 248.265 16.92 247.87C17.0401 245.87 17.18 243.87 17.34 241.87C17.77 236.48 18.21 231.33 18.66 226.46C14.39 222.71 10.8601 219.2 10.3001 218.64C8.17506 216.549 6.72163 213.871 6.1254 210.95C5.52917 208.028 5.81719 204.995 6.95264 202.238C8.0881 199.481 10.0195 197.125 12.5002 195.471C14.9809 193.816 17.8983 192.939 20.88 192.95C21.36 192.95 21.88 192.95 22.45 193.01C23.06 188.79 23.7 184.86 24.35 181.31C25 177.76 25.7001 174.45 26.42 171.46C23.99 168.59 22.1401 166.18 21.8001 165.75C20.1009 163.528 19.0572 160.874 18.7869 158.09C18.5166 155.305 19.0304 152.5 20.2704 149.992C21.5103 147.484 23.4269 145.373 25.8036 143.897C28.1803 142.422 30.9224 141.64 33.72 141.64C34.3723 141.639 35.0238 141.682 35.6701 141.77C37.4072 142.009 39.1072 142.466 40.73 143.13C45.8489 138.871 52.3433 136.621 59 136.8C59.74 136.8 60.49 136.82 61.25 136.86C68.61 137.22 74.91 141.04 80.07 148.24C83.65 147.75 86.63 147.47 87.63 147.38C88.07 147.38 88.5 147.38 88.94 147.38C91.7932 147.382 94.5865 148.198 96.9924 149.732C99.3983 151.265 101.317 153.453 102.523 156.039C103.729 158.624 104.173 161.5 103.802 164.329C103.432 167.158 102.262 169.823 100.43 172.01C99.43 173.22 98.04 174.87 92.03 178.5C92.41 180.06 92.77 181.67 93.13 183.32C101.72 184.82 109.33 186.64 109.78 186.75C112.675 187.445 115.298 188.986 117.315 191.176C119.331 193.367 120.65 196.108 121.104 199.051C121.558 201.993 121.125 205.004 119.862 207.701C118.599 210.397 116.562 212.656 114.01 214.19C112.24 215.25 109.79 216.73 98.49 219.13C98.76 221.95 98.99 224.74 99.19 227.48C99.34 229.59 99.49 231.73 99.63 233.87C103.92 235.94 107.25 237.73 107.47 237.87C110.09 239.288 112.229 241.454 113.613 244.092C114.998 246.73 115.565 249.721 115.243 252.683C114.922 255.645 113.725 258.444 111.806 260.723C109.888 263.002 107.334 264.658 104.47 265.48C103.87 265.65 103.25 265.8 102.59 265.92C103.06 268.99 103.59 272.02 104.29 274.92C105.063 274.67 105.856 274.486 106.66 274.37C109.593 273.924 112.592 274.362 115.274 275.629C117.957 276.895 120.201 278.932 121.72 281.48C122.903 283.506 123.798 285.687 124.38 287.96C125.259 286.771 126.311 285.719 127.5 284.84C127.5 284.74 127.43 284.65 127.4 284.55C126.448 281.714 126.366 278.658 127.164 275.775C127.963 272.892 129.605 270.313 131.88 268.37C133.38 267.08 135.5 265.27 146.41 261.2C146.56 258.92 146.7 256.66 146.85 254.43C146.736 253.892 146.652 253.348 146.6 252.8C146.364 250.553 146.644 248.282 147.42 246.16C147.91 239.23 148.42 232.37 149 225.67C140.34 220.53 132.15 214.73 131.69 214.4C129.276 212.673 127.429 210.269 126.382 207.491C125.335 204.714 125.136 201.688 125.809 198.798C126.482 195.907 127.998 193.281 130.165 191.252C132.332 189.223 135.051 187.883 137.98 187.4C139.188 187.213 140.408 187.123 141.63 187.13C145.306 187.202 148.969 187.587 152.58 188.28C153.52 179.7 154.52 171.42 155.58 163.49C153.262 160.323 152.278 156.373 152.838 152.488C153.399 148.603 155.461 145.093 158.58 142.71C159.17 138.95 159.78 135.26 160.39 131.71L160.54 130.86C161.36 126.17 162.22 121.51 163.11 117.01L163.44 115.31C163.96 112.73 164.49 110.19 165.03 107.69C165.22 106.79 165.42 105.91 165.61 105.02C165.93 103.61 166.24 102.21 166.56 100.83C153.63 95.8303 151.19 93.7003 149.56 92.3203C147.317 90.371 145.703 87.7993 144.924 84.9314C144.144 82.0635 144.234 79.0287 145.183 76.2121C146.131 73.3955 147.894 70.924 150.249 69.1113C152.604 67.2985 155.445 66.2262 158.41 66.0303C158.76 66.0303 167.24 65.4503 176.41 65.4503H176.68C176.76 65.2503 176.83 65.0503 176.9 64.8403C173.82 60.5703 171.45 56.8903 171.3 56.6503C169.832 54.3863 169.002 51.7683 168.898 49.0722C168.793 46.3761 169.417 43.7016 170.705 41.3307C171.993 38.9597 173.897 36.98 176.215 35.6002C178.534 34.2203 181.182 33.4915 183.88 33.4903C184.918 33.4928 185.953 33.6 186.97 33.8103C188.406 34.1132 189.804 34.5727 191.14 35.1803C191.97 33.9203 192.82 32.7203 193.67 31.5903L194.21 30.8703C193.931 25.3271 193.931 19.7735 194.21 14.2303C194.36 11.317 195.356 8.51073 197.077 6.15499C198.797 3.79925 201.168 1.99631 203.897 0.966914C206.626 -0.0624788 209.597 -0.273655 212.445 0.359248C215.292 0.992151 217.894 2.44165 219.93 4.5303C221.18 5.8103 222.53 7.45029 224.67 11.6503C226.091 11.4898 227.52 11.4097 228.95 11.4103H229.95C237.76 11.6203 248.29 14.4103 258.44 24.8303C262.04 23.0003 264.9 21.6903 265.5 21.4203C268.177 20.1985 271.153 19.7909 274.06 20.2481C276.966 20.7053 279.674 22.0073 281.847 23.9919C284.019 25.9765 285.559 28.5561 286.276 31.4096C286.994 34.2631 286.856 37.2645 285.88 40.0403C285.27 41.7803 284.24 44.7303 276.32 54.0403C283.53 52.6903 291.04 51.5203 295.44 51.5203C296.716 51.5124 297.991 51.6127 299.25 51.8203C302.185 52.3122 304.907 53.666 307.071 55.7095C309.234 57.753 310.741 60.3938 311.399 63.296C312.057 66.1982 311.838 69.2306 310.768 72.0075C309.697 74.7844 307.826 77.1803 305.39 78.8903C304.31 79.6403 298.39 83.7703 291.39 88.0203C293.22 88.2103 294.39 88.3603 294.56 88.3803C297.511 88.7474 300.286 89.9833 302.533 91.931C304.78 93.8787 306.398 96.4504 307.18 99.3193C307.962 102.188 307.874 105.225 306.927 108.044C305.98 110.862 304.216 113.336 301.86 115.15C300.3 116.35 298.27 117.64 292.56 119.67C295.2 136.39 297.41 155.23 299.15 175.88C299.24 177.05 299.34 178.23 299.44 179.42C310.58 181.02 313.93 182.32 316.27 183.53C318.916 184.901 321.093 187.028 322.525 189.64C323.957 192.253 324.579 195.233 324.31 198.2C324.042 201.167 322.896 203.987 321.019 206.301C319.142 208.615 316.618 210.317 313.77 211.19C313.43 211.29 308.29 212.87 301.77 214.55C301.99 218.84 302.21 223.16 302.4 227.55L302.61 232.37C308.11 234.88 312.9 237.44 313.71 237.88C316.307 239.295 318.429 241.446 319.807 244.063C321.185 246.679 321.759 249.645 321.457 252.587C321.154 255.529 319.989 258.316 318.107 260.598C316.225 262.879 313.711 264.554 310.88 265.41C308.571 266.021 306.189 266.313 303.8 266.28C303.88 269.98 303.96 273.69 304.02 277.41L304.09 281.01C304.15 285.01 304.2 288.98 304.24 292.92V293.04C304.3 297.794 304.337 302.537 304.35 307.27V308.51C304.35 313.99 304.35 319.61 304.35 325.26C308.72 327.94 312.18 330.26 312.41 330.46C314.678 332.015 316.475 334.164 317.604 336.672C318.734 339.179 319.152 341.949 318.813 344.678C318.475 347.407 317.392 349.991 315.685 352.146C313.977 354.302 311.709 355.946 309.13 356.9C310.532 360.11 310.766 363.709 309.793 367.073C308.819 370.438 306.699 373.355 303.8 375.32L303.61 384.57L303.43 392.11L303.19 401.53C307.87 403.73 311.71 405.79 312.38 406.15C315.001 407.563 317.143 409.725 318.531 412.359C319.92 414.993 320.493 417.981 320.178 420.942C319.862 423.903 318.673 426.703 316.761 428.986C314.848 431.269 312.3 432.931 309.44 433.76C307.057 434.393 304.596 434.686 302.13 434.63L301.79 443.63L301.39 453.41C312.78 454.58 315.39 455.78 317.25 456.64C319.957 457.887 322.231 459.912 323.782 462.457C325.334 465.002 326.092 467.951 325.96 470.929C325.828 473.906 324.812 476.777 323.041 479.174C321.271 481.572 318.827 483.388 316.02 484.39C315.57 484.55 308.13 487.2 299.69 489.63L299.34 496.3C299.2 498.92 299.063 501.427 298.93 503.82L298.46 512.09C297.6 526.69 297 535.09 296.98 535.4C296.814 537.693 296.124 539.917 294.962 541.901C293.801 543.884 292.199 545.574 290.28 546.84L289.51 547.34L288.01 548.23L287.23 548.68L285.56 549.59L284.44 550.17L283.38 550.71L282.11 551.33L280.99 551.86L279.8 552.4L278.41 553.02L276.31 553.9L276.1 553.98C275.38 554.28 274.63 554.58 273.85 554.88L271.65 555.7L269.85 556.34L268.05 556.95L266.5 557.45L266.17 557.56L264.48 558.08L264.18 558.17C263.23 558.45 262.18 558.74 261.18 559.02L260.88 559.04C259.88 559.32 258.79 559.6 257.69 559.86L257.26 559.97L255.46 560.4L254.86 560.53L253.1 560.92L252.42 561.06L250.72 561.4L249.95 561.55L248.13 561.88L247.45 562C246.78 562.12 246.1 562.23 245.45 562.33L244.9 562.42C243.84 562.58 242.76 562.74 241.65 562.89H241.41C240.41 563.02 239.41 563.14 238.41 563.25H237.97C235.637 563.504 233.33 563.7 231.05 563.84H230.79C229.67 563.91 228.53 563.97 227.39 564.01H227.07C224.95 564.09 222.76 564.13 220.56 564.13L219.31 564.27Z" fill="#231F20"/>
<path d="M173.39 408.56C173.39 408.56 181.71 378.83 118.47 369.39C55.2301 359.95 25.4601 328.04 32.2301 243.04C39.0001 158.04 46.88 151.18 60.46 151.84C74.04 152.5 81.88 196.91 84.18 228.5C86.48 260.09 87.5701 296.96 106.47 304.75C141.98 319.38 171.4 297.86 172.53 270.67C173.66 243.48 205.53 250.67 205.53 250.67L198.26 404.33L173.39 408.56Z" fill="#66BE64"/>
<path d="M32.2301 243.04C25.4601 328.04 55.2301 360.04 118.47 369.44C181.71 378.84 173.39 408.61 173.39 408.61L178.47 407.75L181.29 369.44C181.29 369.44 157.45 351.04 89.2001 326.63C20.9501 302.22 60.46 151.84 60.46 151.84C46.88 151.18 39.0101 157.94 32.2301 243.04Z" fill="#4CA84E"/>
<path d="M157.45 537.1C157.45 537.1 140.88 24.0404 229.6 26.4204C318.32 28.8004 282 534.29 282 534.29C282 534.29 234.46 566.04 157.45 537.1Z" fill="#66BE64"/>
<path d="M240.23 547.96C267.01 544.3 282 534.29 282 534.29C282 534.29 318.29 28.7899 229.6 26.4199C229.6 26.4199 271.45 322.97 240.23 547.96Z" fill="#4CA84E"/>
<path d="M267.787 163.087C274.072 162.06 277.91 153.539 276.36 144.055C274.811 134.571 268.46 127.715 262.176 128.742C255.891 129.769 252.053 138.29 253.602 147.774C255.152 157.258 261.503 164.114 267.787 163.087Z" fill="white"/>
<path d="M276.95 173.591C279.855 173.591 282.21 171.325 282.21 168.531C282.21 165.736 279.855 163.471 276.95 163.471C274.045 163.471 271.69 165.736 271.69 168.531C271.69 171.325 274.045 173.591 276.95 173.591Z" fill="white"/>
<path d="M229.6 26.4204C140.88 24.0404 157.45 537.1 157.45 537.1C166.886 540.675 176.581 543.523 186.45 545.62C173.99 229.04 229.6 26.4204 229.6 26.4204Z" fill="#4CA84E"/>
<g style="mix-blend-mode:multiply">
<path d="M261.67 543.211L262.05 543.081L263.36 542.661L263.78 542.521L265 542.101L265.41 541.961L266.6 541.531L266.94 541.411L268.16 540.951L268.41 540.861C269.863 540.301 271.197 539.751 272.41 539.211H272.54L273.54 538.751L273.78 538.641L274.64 538.251L274.9 538.131L275.66 537.761L275.93 537.641L276.62 537.301L276.86 537.181L277.53 536.841L277.71 536.751L278.42 536.381H278.48L279.82 535.651L279.93 535.581L280.35 535.341L280.5 535.251L280.88 535.041L281.02 534.961L281.27 534.811L281.38 534.741L281.58 534.621H281.67L281.81 534.531H281.86L281.95 534.471C281.95 534.471 288.95 437.711 289.28 328.661C289.28 326.721 289.28 324.761 289.28 322.811C289.28 303.261 289.11 283.371 288.63 263.621L288.48 257.701C288.273 250.114 288.017 242.561 287.71 235.041C284.71 374.791 156.71 381.331 156.71 381.331C155.17 468.451 157.39 537.281 157.39 537.281H157.46C158.68 537.741 159.89 538.181 161.1 538.611L162.1 538.941C163.01 539.261 163.93 539.581 164.84 539.881L165.78 540.191C166.69 540.491 167.61 540.791 168.51 541.071L169.32 541.321L172.17 542.181L172.78 542.361L175.78 543.211L176.2 543.321L179.38 544.151H179.62C180.73 544.431 181.84 544.701 182.94 544.951H183.02C206.73 550.411 226.82 550.131 242.56 547.701L243.05 547.621L244.88 547.321L245.48 547.211L247.13 546.911L247.77 546.791L249.34 546.471L249.96 546.341L251.52 546.001L252.05 545.881L253.72 545.481L254.07 545.401C256.11 544.901 258.043 544.374 259.87 543.821L260.11 543.751L261.67 543.211Z" fill="#4CA84E"/>
</g>
<path d="M245.22 121.04C245.22 121.04 270.99 115.34 276.04 116.18C276.04 116.18 255.16 130.85 246.29 133.12C246.29 133.04 242.53 128.69 245.22 121.04Z" fill="#FAF28C"/>
<path d="M192.19 157.86C192.19 157.86 171.7 153.91 167.66 154.59C167.66 154.59 184.15 165.2 191.21 166.78C191.21 166.78 194.26 163.5 192.19 157.86Z" fill="#FAF28C"/>
<path d="M265.98 71.4307C265.98 71.4307 291.75 65.7207 296.81 66.5707C296.81 66.5707 275.93 81.2407 267.05 83.5107C267.05 83.5107 263.29 79.1207 265.98 71.4307Z" fill="#FAF28C"/>
<path d="M171.15 207.19C171.15 207.19 145.42 201.35 140.36 202.19C140.36 202.19 161.15 216.97 170.01 219.29C170.01 219.27 173.8 214.9 171.15 207.19Z" fill="#FAF28C"/>
<path d="M114.13 312.469C114.13 312.469 110.88 292.539 108.88 289.109C108.88 289.109 104.19 307.729 105.07 314.669C105.05 314.669 109.32 316.299 114.13 312.469Z" fill="#FAF28C"/>
<path d="M75.7801 207.951C75.7801 207.951 101.88 203.951 106.23 201.281C106.23 201.281 81.1501 195.281 72.0401 196.371C72.0401 196.371 70.2701 201.801 75.7801 207.951Z" fill="#FAF28C"/>
<path d="M279.88 466.859C279.88 466.859 306.29 468.089 310.88 470.219C310.88 470.219 286.65 478.899 277.47 478.769C277.54 478.769 275.16 473.559 279.88 466.859Z" fill="#FAF28C"/>
<path d="M278.61 192.041C278.61 192.041 304.93 194.461 309.44 196.801C309.44 196.801 284.82 204.371 275.65 203.801C275.65 203.831 273.52 198.531 278.61 192.041Z" fill="#FAF28C"/>
<path d="M188.19 92.631C188.19 92.631 163.19 84.241 159.42 80.941C159.42 80.941 185.21 79.231 193.97 81.861C193.97 81.861 194.73 87.501 188.19 92.631Z" fill="#FAF28C"/>
<path d="M250.51 296.041C250.51 296.041 273.51 304.781 276.95 307.991C276.95 307.991 254.72 309.041 246.65 306.271C246.65 306.221 244.34 300.481 250.51 296.041Z" fill="#FAF28C"/>
<path d="M243.35 506.291C243.35 506.291 266.35 515.031 269.79 518.291C269.79 518.291 247.57 519.291 239.5 516.571C239.5 516.521 237.19 510.771 243.35 506.291Z" fill="#FAF28C"/>
<path d="M163.36 484.04C163.36 484.04 139.15 479.29 135.16 476.72C135.16 476.72 156.84 471.94 165.3 473.32C165.3 473.27 168.61 478.53 163.36 484.04Z" fill="#FAF28C"/>
<path d="M249.75 168.531C249.75 168.531 271.75 174.931 275.21 177.671C275.21 177.671 255.46 180.851 247.74 178.881C246.764 177.206 246.429 175.232 246.799 173.328C247.169 171.424 248.217 169.72 249.75 168.531Z" fill="#FAF28C"/>
<path d="M202.18 59.2702C202.18 59.2702 187.35 49.2202 183.88 48.4902C183.88 48.4902 193.19 63.0202 198.22 66.6802C198.25 66.6802 201.82 64.8302 202.18 59.2702Z" fill="#FAF28C"/>
<path d="M159.28 343.04C159.28 343.04 141.14 342.63 137.93 341.25C137.93 341.25 154.39 334.89 160.69 334.83C160.69 334.83 163.23 340.36 159.28 343.04Z" fill="#FAF28C"/>
<path d="M186.14 314.47C186.14 314.47 167.99 314.07 164.78 312.68C164.78 312.68 181.25 306.33 187.55 306.26C187.55 306.26 190.76 311.81 186.14 314.47Z" fill="#FAF28C"/>
<path d="M169.97 526.04C169.97 526.04 151.83 525.64 148.62 524.25C148.62 524.25 165.08 517.9 171.39 517.83C171.39 517.87 174.59 523.42 169.97 526.04Z" fill="#FAF28C"/>
<path d="M195.46 406.13C195.46 406.13 177.32 405.72 174.11 404.34C174.11 404.34 190.58 397.98 196.88 397.92C196.88 397.92 200.08 403.47 195.46 406.13Z" fill="#FAF28C"/>
<path d="M217.94 33.84C217.94 33.84 211.64 17.47 209.23 15C209.23 15 208.35 32.05 210.34 37.8C210.34 37.8 214.37 38.23 217.94 33.84Z" fill="#FAF28C"/>
<path d="M282.72 339.7C282.72 339.7 300.46 343.42 303.92 342.8C303.92 342.8 289.47 332.9 283.36 331.4C283.36 331.4 277.88 335.48 282.72 339.7Z" fill="#FAF28C"/>
<path d="M285.26 250.131C285.26 250.131 303.26 251.981 306.68 251.001C306.68 251.001 291.2 242.661 284.96 241.811C284.96 241.811 282.77 245.101 285.26 250.131Z" fill="#FAF28C"/>
<path d="M54.5799 333.78C54.5799 333.78 45.5799 348.93 45.1399 352.3C45.1399 352.3 59.2999 342.02 62.6199 336.86C62.6199 336.86 60.3699 333.61 54.5799 333.78Z" fill="#FAF28C"/>
<path d="M272.58 110.1C272.58 110.1 290.04 105.34 292.79 103.22C292.79 103.22 275.2 101.04 269.08 102.49C269.08 102.49 268.32 106.33 272.58 110.1Z" fill="#FAF28C"/>
<path d="M224.22 206.981L236.77 203.321C236.77 203.321 229.6 198.681 222.61 197.951C222.61 197.951 217.88 202.471 224.22 206.981Z" fill="#FAF28C"/>
<path d="M224.22 428.65L236.77 425.04C236.77 425.04 229.6 420.4 222.61 419.68C222.61 419.63 217.88 424.14 224.22 428.65Z" fill="#FAF28C"/>
<path d="M211.05 270.141L197.96 270.901C197.96 270.901 203.82 277.011 210.44 279.271C210.44 279.271 216.17 275.951 211.05 270.141Z" fill="#FAF28C"/>
<path d="M161.71 432.041L148.62 432.801C148.62 432.801 154.48 438.921 161.09 441.181C161.09 441.181 166.88 437.861 161.71 432.041Z" fill="#FAF28C"/>
<path d="M94.4799 345.93L81.3899 346.69C81.3899 346.69 87.2499 352.8 93.8699 355.07C93.8799 355.04 99.5999 351.74 94.4799 345.93Z" fill="#FAF28C"/>
<path d="M194.12 472.811L181.03 473.571C181.03 473.571 186.89 479.691 193.5 481.951C193.5 481.951 199.23 478.631 194.12 472.811Z" fill="#FAF28C"/>
<path d="M224.04 77.941L211.28 75.041C211.28 75.041 215.04 82.531 220.68 86.551C220.68 86.511 226.39 84.931 224.04 77.941Z" fill="#FAF28C"/>
<path d="M254.88 229.48C254.88 229.48 272.88 231.33 276.3 230.36C276.3 230.36 260.82 222.01 254.58 221.17C254.6 221.17 252.41 224.46 254.88 229.48Z" fill="#FAF28C"/>
<path d="M283.88 418.451C283.88 418.451 301.88 420.301 305.29 419.321C305.29 419.321 289.81 410.981 283.57 410.131C283.53 410.131 281.35 413.421 283.88 418.451Z" fill="#FAF28C"/>
<path d="M78.88 250.131C78.88 250.131 96.88 251.981 100.29 251.001C100.29 251.001 84.82 242.661 78.58 241.811C78.59 241.811 76.4 245.101 78.88 250.131Z" fill="#FAF28C"/>
<path d="M41.0701 214.731C41.0701 214.731 24.3501 207.951 20.8301 207.951C20.8301 207.951 33.1501 220.231 38.8301 222.771C38.8801 222.771 41.9501 220.231 41.0701 214.731Z" fill="#FAF28C"/>
<path d="M238.06 358.81C238.06 358.81 256.06 360.66 259.47 359.69C259.47 359.69 243.99 351.34 237.75 350.5C237.75 350.5 235.56 353.79 238.06 358.81Z" fill="#FAF28C"/>
<path d="M258.62 51.3701C258.62 51.3701 270.62 38.2901 271.77 35.0801C271.77 35.0801 255.77 42.3901 251.4 46.7901C251.4 46.7901 252.88 50.4101 258.62 51.3701Z" fill="#FAF28C"/>
<path d="M178.47 248.471C178.47 248.471 163.97 249.971 161.47 251.291C161.47 251.291 175.08 255.291 180.13 254.941C180.16 254.941 183.61 249.311 178.47 248.471Z" fill="#FAF28C"/>
<path d="M34.47 260.43C34.47 260.43 19.98 261.93 17.47 263.24C17.47 263.24 31.08 267.24 36.13 266.9C36.16 266.9 39.62 261.27 34.47 260.43Z" fill="#FAF28C"/>
<path d="M74.28 171.11C74.28 171.11 87.11 164.45 88.89 162.33C88.89 162.33 74.71 163.57 70.17 165.74C70.17 165.74 69.19 172.2 74.28 171.11Z" fill="#FAF28C"/>
<path d="M141.27 312.691C141.27 312.691 138.09 299.001 136.45 296.781C136.45 296.781 133.85 310.251 134.78 315.041C134.78 315.041 140.98 317.711 141.27 312.691Z" fill="#FAF28C"/>
<path d="M278.81 358.341C278.81 358.341 292.55 363.031 295.37 362.881C295.37 362.881 284.9 353.591 280.19 351.811C280.19 351.811 274.55 355.441 278.81 358.341Z" fill="#FAF28C"/>
<path d="M203.29 121.49C203.29 121.49 190.74 114.37 187.93 114C187.93 114 196.37 125 200.64 127.65C200.64 127.65 206.88 125.12 203.29 121.49Z" fill="#FAF28C"/>
<path d="M49.0299 164.131C49.0299 164.131 36.4799 157.041 33.6699 156.641C33.6699 156.641 42.1099 167.641 46.3799 170.291C46.3799 170.291 52.6399 167.761 49.0299 164.131Z" fill="#FAF28C"/>
<path d="M161.43 271.82C161.43 271.82 144.26 277.49 141.64 279.75C141.64 279.75 159.33 281.01 165.36 279.24C165.36 279.24 167.66 271.82 161.43 271.82Z" fill="#FAF28C"/>
<path d="M117.72 362.979C117.72 362.979 109.11 378.349 108.77 381.719C108.77 381.719 122.66 371.099 125.83 365.859C125.88 365.859 122.3 358.909 117.72 362.979Z" fill="#FAF28C"/>
<path d="M35.1201 291.811C35.1201 291.811 17.9601 297.481 15.3301 299.731C15.3301 299.731 33.0201 300.991 39.0501 299.221C39.0501 299.221 41.3501 291.811 35.1201 291.811Z" fill="#FAF28C"/>
</g>
<defs>
<clipPath id="clip0_4906_765">
<rect width="411.14" height="611.26" fill="white"/>
</clipPath>
</defs>
</svg>
