<svg width="1016" height="1197" viewBox="0 0 1016 1197" fill="none" xmlns="http://www.w3.org/2000/svg">
<g clip-path="url(#clip0_5590_487)">
<path d="M489.66 1196.34C619.607 1196.34 724.95 1183.31 724.95 1167.23C724.95 1151.15 619.607 1138.12 489.66 1138.12C359.713 1138.12 254.37 1151.15 254.37 1167.23C254.37 1183.31 359.713 1196.34 489.66 1196.34Z" fill="#D0D2D3"/>
<path d="M428.44 1082.12C422.572 1082.1 416.721 1081.48 410.98 1080.27C409.75 1080.02 408.51 1079.73 407.28 1079.42C405.46 1078.97 403.64 1078.42 401.89 1077.89C400.14 1077.36 398.4 1076.72 396.71 1076.07C395.56 1075.62 394.43 1075.16 393.36 1074.69C388.041 1072.41 383.034 1069.47 378.46 1065.93C377.129 1064.88 375.854 1063.76 374.64 1062.57C372.73 1060.71 371.02 1058.66 369.54 1056.44C369.03 1055.66 368.6 1054.96 368.22 1054.27C367.376 1052.71 366.673 1051.08 366.12 1049.4C365.82 1048.48 365.576 1047.53 365.39 1046.58C365.161 1045.44 365.011 1044.3 364.94 1043.14C364.94 1043 364.94 1042.72 364.94 1042.72C364.9 1041.64 364.92 1040.56 365 1039.48C365 1039.05 365.08 1038.62 365.14 1038.19C365.21 1037.58 365.29 1036.97 365.4 1036.37C365.49 1035.92 365.6 1035.44 365.72 1034.97V1034.81C365.84 1034.34 365.95 1033.88 366.09 1033.42C366.23 1032.96 366.42 1032.42 366.61 1031.85L366.67 1031.7C366.783 1031.38 366.903 1031.05 367.03 1030.7C367.26 1030.12 367.52 1029.55 367.78 1028.98L368.16 1028.2C368.46 1027.61 368.78 1027.02 369.16 1026.45L369.46 1025.95C369.83 1025.33 370.22 1024.74 370.62 1024.15L370.83 1023.86C371.28 1023.21 371.73 1022.62 372.19 1022.05C378.83 1013.75 389.24 1007.92 397.07 1004.41C399.47 926.69 415.66 876.299 430.77 845.729L429.77 844.379L428.28 842.439L427.64 841.58C425.87 839.2 424.11 836.73 422.42 834.26L422.1 833.78C421.59 833.03 421.1 832.3 420.62 831.56L420 830.62C419.54 829.92 419.09 829.21 418.63 828.49L417.98 827.49L416.64 825.33L416.07 824.39L414.68 822.06L414.53 821.79C405.941 807.084 398.999 791.476 393.83 775.25C390.299 764.248 387.585 753.001 385.71 741.6L384.58 740.77L382.58 739.27L380.08 737.39L379.63 737.05L377.44 735.37L377.12 735.12L375.02 733.49L374.65 733.2L372.39 731.41L371.87 730.99C371.11 730.39 370.36 729.769 369.59 729.149L369.1 728.75C368.3 728.09 367.5 727.44 366.7 726.75L366.49 726.58L364.16 724.58L363.72 724.209C362.91 723.519 362.12 722.84 361.32 722.14L360.75 721.649L358.36 719.54L357.91 719.14L355.5 716.959L355.37 716.84C354.47 716.02 353.64 715.25 352.81 714.47L352.33 714.03L349.89 711.7L349.35 711.18L346.91 708.79L346.57 708.439C345.76 707.649 344.97 706.84 344.17 706.03L343.86 705.7C343.08 704.91 342.26 704.049 341.45 703.189L340.99 702.709C340.18 701.849 339.39 701 338.6 700.14L338.15 699.64C337.33 698.74 336.53 697.84 335.73 696.93L335.56 696.74C334.76 695.82 333.99 694.93 333.23 694.03L332.9 693.64C332.13 692.73 331.37 691.8 330.61 690.87L330.16 690.31C329.43 689.4 328.69 688.47 327.96 687.53L327.6 687.06C326.87 686.11 326.15 685.149 325.44 684.189L325.38 684.11C314.43 669.19 305.33 653.57 299.48 639.77C259.05 638.44 231.73 628.099 218.2 608.979C213.881 602.846 211.037 595.797 209.89 588.384C208.744 580.97 209.326 573.392 211.59 566.24C212.203 564.509 213.128 562.906 214.32 561.51C203.961 553.134 196.115 542.061 191.65 529.51C178.12 490.93 202.29 451.41 203.32 449.75C204.667 447.587 206.542 445.803 208.769 444.566C210.997 443.329 213.502 442.68 216.05 442.68H216.63C219.274 442.781 221.845 443.58 224.08 444.995C226.316 446.411 228.138 448.393 229.36 450.74C236.18 463.85 245.97 473.4 258.55 479.29C260.443 466.33 263.454 453.559 267.55 441.12C235.96 407.02 201.81 362.33 203.84 330.31C204.07 325.147 205.393 320.091 207.72 315.477C210.047 310.863 213.326 306.794 217.34 303.54C225.85 296.63 236.51 293.129 249.01 293.129C282.39 293.129 324.01 318.95 350.25 338.06C374.25 324.06 402.51 314.44 434.49 309.3H434.73C436.16 309.07 437.66 308.84 439.18 308.62L440.18 308.479C441.45 308.299 442.71 308.119 443.98 307.959L445.61 307.76L446.86 307.6L448.86 307.36C450.51 307.17 452.17 306.99 453.86 306.82H454.19L459.19 306.459L461.19 306.35C461.19 306.35 463.52 306.209 464.07 306.189L467.67 306.03L468.86 305.979C470.287 305.933 471.717 305.893 473.15 305.86H473.52C475.68 305.86 477.87 305.79 480.01 305.79C509.92 305.79 537.35 310.26 561.74 319.1C587.06 292.53 628.47 255.82 663.89 255.82C671.725 255.737 679.452 257.654 686.34 261.39C690.87 263.873 694.822 267.289 697.935 271.413C701.048 275.536 703.252 280.272 704.4 285.31C708.92 303.55 702.01 328.31 690.5 353.51C702.5 327.63 715.78 298.93 728.82 269.34C743.28 236.49 756.73 204.18 768.6 175.66C815.45 63.1097 837.46 13.3496 868.42 13.3496C872.141 13.3515 875.821 14.1349 879.22 15.6494C893.31 21.8494 903.78 40.1398 910.33 70.0098C915.78 94.8498 917.89 126.01 916.33 158.54L916.88 158.93L919 160.47L919.81 161.08C920.42 161.53 921.05 161.99 921.68 162.47C921.68 162.47 923.76 164.04 924.36 164.47L927.06 166.55L929.74 168.66L932.46 170.84L935.18 173.05L935.95 173.68L938.62 175.899L941.27 178.12L943.92 180.379C949.63 185.269 955.71 190.669 961.92 196.379C965.15 199.379 968.42 202.38 971.66 205.47L973.52 207.24C975.58 209.24 977.63 211.18 979.58 213.08L981.23 214.689C985.43 218.789 989.66 222.99 993.74 227.14L993.8 227.189L996.46 229.899C996.46 229.899 1001.01 234.609 1001.04 234.629L1002.49 236.149C1004.75 238.556 1006.15 241.637 1006.49 244.919C1006.49 244.919 1006.55 245.46 1006.64 246.47C1006.64 246.47 1006.85 248.97 1006.86 249.03L1007.14 252.83C1007.14 252.83 1007.38 256.51 1007.38 256.53C1008.78 279.83 1009.58 324.439 999.31 361.939V361.99C999.08 362.8 998.86 363.599 998.62 364.399V364.47C996.875 370.605 994.727 376.618 992.19 382.47C970.96 430.68 913.19 475.81 901.8 484.37L900.8 485.12C900.308 485.485 899.794 485.819 899.26 486.12C898.578 486.509 897.866 486.843 897.13 487.12C896.05 487.53 894.91 487.92 893.54 488.35L892.54 488.66C891.54 488.95 890.54 489.24 889.54 489.5L888.87 489.669C887.66 489.969 886.4 490.24 885.12 490.49L884.28 490.649C883.22 490.839 882.19 491.019 881.14 491.169L880.19 491.32C878.87 491.5 877.6 491.66 876.33 491.79H875.83C874.72 491.9 873.52 492 872.31 492.09L871.37 492.149C870.1 492.229 868.83 492.29 867.54 492.34H867.37C865.98 492.39 864.58 492.41 863.17 492.41H862.41C861.17 492.41 859.93 492.41 858.67 492.41H858.09C856.74 492.41 855.29 492.32 853.83 492.25H853.51C852.15 492.18 850.8 492.1 849.45 492H848.84C846 491.79 843.01 491.5 839.98 491.16L839.46 491.1C836.59 490.77 833.53 490.37 830.46 489.91H830.37C812.677 487.145 795.176 483.27 777.97 478.31C764.894 491.869 750.911 504.525 736.12 516.189C736.919 517.047 737.617 517.993 738.2 519.01C744.08 529.3 749.02 551.53 733.51 571.87C743.15 582.59 753.01 594.21 760.51 605.53C761.25 606.65 761.96 607.76 762.65 608.87C764.08 611.16 765.41 613.43 766.59 615.62L766.97 616.31C771.81 625.45 787.52 658.25 787.55 698.89C787.55 701.76 787.47 704.69 787.3 707.6C787.16 709.98 786.95 712.44 786.68 714.91C786.018 720.978 784.932 726.993 783.43 732.91C777.834 755.2 765.518 775.229 748.15 790.28L746.23 791.93C741.544 795.847 736.591 799.435 731.41 802.669C729.85 803.669 728.27 804.59 726.7 805.49C725.13 806.39 723.49 807.3 721.8 808.18C720.97 808.62 720.13 809.049 719.28 809.479C717.96 810.149 716.53 810.84 714.9 811.59C713.73 812.14 712.55 812.67 711.36 813.2L710.68 813.5C726.161 825.578 740.973 838.491 755.05 852.18C761.77 849.73 770.89 847.18 779.77 847.18C782.345 847.171 784.916 847.399 787.45 847.86L787.73 847.91C788.43 848.05 789.12 848.2 789.84 848.39L790.41 848.54C791.07 848.73 791.71 848.929 792.35 849.149L793.16 849.439C793.72 849.649 794.31 849.88 794.88 850.14C795.21 850.29 795.54 850.44 795.88 850.61C796.46 850.89 797 851.159 797.52 851.459C798.04 851.759 798.28 851.909 798.66 852.149L798.79 852.229C799.21 852.49 799.63 852.76 800.03 853.05C800.43 853.34 801.03 853.76 801.46 854.14C801.89 854.52 802.19 854.72 802.52 855.03C803.315 855.73 804.07 856.474 804.78 857.26C806.186 858.827 807.385 860.568 808.35 862.439C809.236 864.161 809.94 865.972 810.45 867.84C811.355 871.243 811.756 874.76 811.64 878.28C811.597 879.976 811.464 881.668 811.24 883.35C811.17 883.9 811.08 884.46 810.99 885.03C810.73 886.65 810.38 888.34 809.99 890.03C809.72 891.12 809.4 892.24 809.06 893.36C808.72 894.48 808.36 895.579 807.96 896.689C807.56 897.799 807.14 898.9 806.69 900.01C806.24 901.12 805.76 902.21 805.25 903.32C802.097 910.172 798.103 916.605 793.36 922.47C781.19 937.47 765.8 946.37 750.01 947.47C747.96 947.62 745.86 947.689 743.77 947.689H742.53C737.584 947.613 732.651 947.172 727.77 946.37C714.41 944.19 700.37 939.369 686.05 931.899C679.217 928.344 672.593 924.402 666.21 920.09C664.843 919.17 663.487 918.24 662.14 917.3L660.46 916.1C658.07 914.39 655.7 912.62 653.38 910.83L651.38 909.28L650.28 909.52L649.11 909.75L648.11 909.91L646.99 910.09L645.99 910.209L644.77 910.36L643.77 910.45C643.43 910.45 643.04 910.52 642.64 910.54L641.64 910.61L640.46 910.669H639.46H638.24H636.01H635.1H633.91H632.91L631.48 910.58L630.61 910.52C629.89 910.47 629.15 910.41 628.4 910.33H627.98L626.12 910.129L625.12 910L623.87 909.83L621.6 909.49L619.3 909.11L618.01 908.87L616.95 908.669L615.86 908.45L614.63 908.189L613.49 907.939L612.24 907.66L611.13 907.399L609.93 907.1L608.77 906.81L607.53 906.49L606.37 906.18L604.96 905.78L603.96 905.51L601.6 904.82L599.19 904.06L596.8 903.27L594.43 902.459L592.64 901.81L590.92 901.169L589.72 900.72L587.34 899.79L586.34 899.37C582.852 900.93 579.279 902.295 575.64 903.459C574.58 903.799 573.51 904.119 572.45 904.459L571.39 904.75C570.69 904.95 569.95 905.14 569.22 905.33L567.99 905.62L565.94 906.09L564.71 906.35L562.58 906.76L562.32 906.81L561.44 906.959C560.58 907.109 559.71 907.25 558.84 907.37L558.26 907.459C557.55 907.559 556.87 907.64 556.2 907.72L555.78 908.919L555.3 910.229L554.89 911.34C554.73 911.77 554.57 912.209 554.4 912.649L553.98 913.74L553.47 915.04L552.94 916.35L552.5 917.419L551.5 919.78L550.5 922.11L549.44 924.43L548.9 925.59L548.03 927.399V927.479C547.79 927.979 547.56 928.48 547.31 928.95L546.17 931.209L544.99 933.459L543.81 935.64L542.6 937.8L542 938.8C541.79 939.17 541.57 939.54 541.35 939.91L540.75 940.91L540.08 942.03L539.48 943.03L538.8 944.11L538.17 945.11L537.39 946.3L536.84 947.129L536.15 948.129C535.94 948.449 535.73 948.76 535.51 949.07L534.66 950.29L534.17 950.979L532.77 952.879L532.02 953.879L531.36 954.75L530.36 956.04L529.97 956.53C529.56 957.04 529.16 957.53 528.77 957.99L528.57 958.22C528.03 958.86 527.57 959.42 527.06 959.97L526.57 960.51C526.2 960.92 525.87 961.289 525.57 961.649L525.01 962.24L524.01 963.24L523.34 963.91L522.43 964.81L521.78 965.43C521.48 965.71 521.18 966 520.88 966.27L520.2 966.89C519.85 967.2 519.54 967.48 519.2 967.74L518.47 968.37L517.57 969.1C517.35 969.29 517.09 969.49 516.83 969.7L515.89 970.419L515.14 970.979L514.14 971.669L513.35 972.209L512.35 972.86L511.52 973.379L511.35 973.479C509.46 987.81 505.74 1006.24 498.42 1024.24C497.95 1025.38 497.47 1026.51 496.98 1027.64C495.025 1032.16 492.835 1036.58 490.42 1040.88C489.82 1041.96 489.19 1043.03 488.56 1044.08C482.889 1053.69 475.68 1062.3 467.22 1069.58C462.786 1073.29 457.759 1076.23 452.35 1078.28C451.683 1078.54 451.017 1078.78 450.35 1079C447.108 1080.1 443.78 1080.94 440.4 1081.49C439.11 1081.7 437.76 1081.89 436.4 1082.03C435.04 1082.17 433.76 1082.27 432.4 1082.34C431.04 1082.41 429.76 1082.12 428.44 1082.12ZM661.32 405.66C662.2 407.28 663.067 408.917 663.92 410.57C670.92 395.2 678.51 378.8 686.38 361.86C687.13 360.26 687.88 358.64 688.63 357.02C680.543 373.783 671.422 390.027 661.32 405.66Z" fill="black"/>
<path d="M753.14 622.589C744.68 606.919 729.96 590.189 713.92 572.789C699.17 590.099 659.56 623.739 578.42 616.399C583.73 637.459 590.25 657.829 596.62 676.099C630.76 679.119 709.89 679.129 753.14 622.589Z" fill="white"/>
<path d="M677.76 532.75C663.02 515.17 650.51 497.21 644.65 479.23C619.28 470.76 603.84 460.62 594.46 451.66C574.46 472.93 566.96 502.39 566.84 534.61C590.83 540.81 639.28 549.61 677.76 532.75Z" fill="white"/>
<path d="M619.28 753.811C618.43 763.011 614.65 769.301 609.74 773.601C616.74 785.211 629.74 802.331 650.89 814.061C727 802.751 758.78 767.35 768.65 728.98C744.07 749.78 696.46 774.311 619.28 753.811Z" fill="white"/>
<path d="M644.67 479.23C642.807 473.657 641.651 467.872 641.23 462.01C637.63 405.55 599.371 446.83 599.371 446.83C597.661 448.38 596.04 450 594.48 451.66C603.86 460.62 619.3 470.76 644.67 479.23Z" fill="#7A7176"/>
<path d="M713.92 572.789C701.92 559.789 689.19 546.369 677.78 532.789C639.28 549.649 590.83 540.849 566.86 534.649C566.76 561.059 571.59 589.319 578.42 616.439C659.56 623.739 699.17 590.099 713.92 572.789Z" fill="#7A7176"/>
<path d="M768.65 728.979C778.94 688.979 765.42 645.749 753.49 623.229C753.38 623.019 753.25 622.81 753.14 622.59C709.89 679.13 630.8 679.12 596.62 676.1C602.95 694.28 609.14 710.38 613.83 723.03C618.58 735.83 620.02 745.9 619.28 753.81C696.46 774.31 744.07 749.779 768.65 728.979Z" fill="#7A7176"/>
<path d="M579.87 782.729L607.14 817.649C621.783 817.344 636.393 816.145 650.89 814.06C629.77 802.33 616.72 785.21 609.74 773.6C598.02 783.87 579.87 782.729 579.87 782.729Z" fill="#7A7176"/>
<path opacity="0.52" d="M768.651 728.98C778.941 688.98 765.421 645.75 753.491 623.23C753.381 623.02 753.251 622.81 753.141 622.59C744.68 606.92 729.961 590.19 713.921 572.79C701.921 559.79 689.191 546.37 677.781 532.79C663.041 515.21 650.531 497.25 644.671 479.27C642.807 473.697 641.651 467.912 641.231 462.05C639.781 439.31 632.711 432.43 624.781 432.32C604.001 455.5 579.551 502.04 619.581 572.83C677.581 675.49 775.501 745.17 599.261 807.6L607.14 817.69C621.783 817.384 636.394 816.186 650.89 814.1C727.001 802.75 758.761 767.35 768.651 728.98Z" fill="#AFACAE"/>
<path d="M761.814 721.535C764.088 702.351 758.649 685.935 749.665 684.871C740.682 683.806 731.556 698.495 729.282 717.679C727.008 736.864 732.447 753.279 741.43 754.344C750.414 755.409 759.54 740.72 761.814 721.535Z" fill="white"/>
<path d="M760.299 683.34C763.931 682.727 765.73 675.44 764.316 667.064C762.902 658.689 758.812 652.396 755.179 653.009C751.547 653.622 749.748 660.909 751.162 669.285C752.576 677.66 756.666 683.953 760.299 683.34Z" fill="white"/>
<path d="M572.07 766.699C548.59 770.329 626.8 745.149 751.43 869.699C751.43 869.699 781.75 854.169 793.37 867.089C804.99 880.009 781.69 929.989 748.66 932.319C715.63 934.649 680 914.149 654.15 892.189C629.02 905.389 554.48 877.609 536.22 842.739C536.22 842.759 505.5 782.789 572.07 766.699Z" fill="#C9C3C7"/>
<path opacity="0.52" d="M783.06 862.189C786.982 862.514 790.65 864.264 793.37 867.109C804.98 880.019 781.69 930.009 748.66 932.339C715.63 934.669 680 914.169 654.15 892.209C630.61 904.569 563.73 880.989 540.34 849.289C568.72 864.419 612.03 878.589 656.58 859.539C656.58 859.539 712.81 912.689 741.67 911.219C766.24 909.979 779.11 894.079 783.06 862.189Z" fill="#AFACAE"/>
<path d="M468.76 815.939C488.13 802.189 414.48 838.599 411.85 1014.8C411.85 1014.8 379.27 1024.8 379.94 1042.14C380.61 1059.48 432.14 1079.14 457.46 1057.79C482.78 1036.44 494.06 996.929 497.31 963.159C524.53 955.159 558.65 883.269 547.46 845.529C547.43 845.529 527.69 781.109 468.76 815.939Z" fill="#C9C3C7"/>
<path opacity="0.52" d="M383.88 1031.44C381.282 1034.4 379.859 1038.2 379.88 1042.14C380.54 1059.5 432.08 1079.14 457.4 1057.79C482.72 1036.44 494 996.93 497.25 963.16C522.75 955.64 554.25 892.16 548.99 853.09C539.17 883.72 517.99 924.089 472.74 941.419C472.74 941.419 469.42 1018.72 447.74 1037.78C429.24 1054 408.93 1051.56 383.88 1031.44Z" fill="#AFACAE"/>
<path d="M441.653 921.656C443.778 911.589 441.852 902.658 437.35 901.707C432.849 900.757 427.477 908.148 425.352 918.215C423.227 928.282 425.153 937.214 429.654 938.164C434.156 939.114 439.528 931.723 441.653 921.656Z" fill="white"/>
<path d="M571.133 888.651C633.759 868.592 662.365 783.134 635.025 697.775C607.685 612.416 534.752 559.48 472.126 579.539C409.499 599.598 380.894 685.056 408.234 770.415C435.574 855.774 508.506 908.71 571.133 888.651Z" fill="#C9C3C7"/>
<path opacity="0.52" d="M424.27 808.649C458.27 870.969 518.269 905.779 570.949 888.909C633.569 868.849 662.19 783.389 634.85 698.039C631.835 688.609 628.19 679.391 623.939 670.449C607.349 728.979 598.09 833.809 424.27 808.649Z" fill="#AFACAE"/>
<path d="M559.184 851.329C605.974 836.343 624.487 763.571 600.535 688.789C576.583 614.008 519.235 565.534 472.445 580.521C425.655 595.507 407.142 668.279 431.094 743.06C455.046 817.842 512.394 866.316 559.184 851.329Z" fill="white"/>
<path opacity="0.52" d="M500.76 655.24C531.76 651.32 571.67 634.52 593.76 624.32C559.47 585.32 513.44 566.5 471.92 579.8C439.06 590.32 415.57 618.859 404.61 655.939C424.76 657.159 469.76 659.17 500.76 655.24Z" fill="#AFACAE"/>
<path d="M628.64 388.17C602.04 392.37 575.36 395.54 548.64 398.48C521.92 401.42 495.2 403.86 468.43 406.03C441.66 408.2 414.88 410.03 388.06 411.48C361.24 412.93 334.39 414.02 307.46 414.15C334.06 409.94 360.74 406.76 387.46 403.82C414.18 400.88 440.9 398.45 467.67 396.29C494.44 394.13 521.22 392.29 548.04 390.85C574.86 389.41 601.76 388.31 628.64 388.17Z" fill="#231F20"/>
<path d="M357.57 362.67C357.57 362.67 264.209 284.75 226.719 315.19C189.229 345.63 295.02 448.06 295.02 448.06L357.57 362.67Z" fill="#C6BFC3"/>
<path d="M345.41 371.38C345.41 371.38 261.36 309.88 243.2 327.61C225.04 345.34 298.76 432.36 298.76 432.36L345.41 371.38Z" fill="#7A7176"/>
<path d="M558.65 344.56C558.65 344.56 636.58 251.211 678.92 274.471C721.26 297.731 635.45 417.4 635.45 417.4L558.65 344.56Z" fill="#C6BFC3"/>
<path d="M572.17 350.959C572.17 350.959 643.88 275.429 664.92 289.629C685.96 303.829 629 402.629 629 402.629L572.17 350.959Z" fill="#7A7176"/>
<path d="M455.24 321.71C248.59 342.71 271.58 531.31 271.58 531.31C307.8 664.31 483.28 633.06 483.28 633.06C483.28 633.06 661.51 632.4 673.39 495.12C673.39 495.12 662.31 305.43 455.24 321.71Z" fill="#C9C3C7"/>
<path d="M620.23 471.341C620.23 471.341 694.23 477.091 714.16 412.811C714.16 412.811 776.01 481.021 695.65 526.891C695.65 526.891 711.01 537.091 724.93 526.301C724.93 526.301 761.08 589.551 606.57 599.301L620.23 471.341Z" fill="white"/>
<path d="M318.83 498.479C318.83 498.479 247.04 517.36 215.95 457.68C215.95 457.68 167.29 535.85 254.55 566.62C254.55 566.62 241.26 579.4 225.64 571.27C225.64 571.27 201.37 639.96 355.13 621.95" fill="white"/>
<path d="M667.64 464.24C638.15 433.99 580.14 380.97 538.98 384.8C481.63 390.15 463.62 432.87 463.62 432.87C463.62 432.87 438.27 394.05 380.89 399.04C341.22 402.49 295.6 460.64 271.2 496.22C269.46 517.22 271.2 531.35 271.2 531.35C307.43 664.35 482.9 633.09 482.9 633.09C482.9 633.09 661.13 632.44 673.02 495.16C672.99 495.16 672.25 482.6 667.64 464.24Z" fill="white"/>
<path d="M670.99 509.78C648.26 474.72 603.13 422.42 543.82 439.78C456.82 465.23 506.82 525.21 528.82 553.07C538.67 565.53 551.63 593.84 560.11 620.2C606.55 605.7 658.87 574.96 670.99 509.78Z" fill="#7A7176"/>
<path d="M386.68 453.869C326.36 447.519 291.47 504.74 274.98 543.32C297.81 606.15 354.47 627.639 402.89 633.939C406.54 606.589 414.201 576.619 421.631 562.669C438.331 531.359 476.84 463.399 386.68 453.869Z" fill="#7A7176"/>
<path d="M497.12 526.179C492.52 516.029 487.24 495.879 483.64 455.929C478.82 402.449 503.47 353.349 522.46 324.229C502.73 320.819 480.46 319.729 455.24 321.709C429.79 324.289 407.84 329.429 388.89 336.429C412.76 361.709 445.66 405.549 450.47 458.919C454.06 498.859 452.47 519.639 449.76 530.449C447.84 538.089 452.49 545.589 461.18 548.709L465.29 550.189C468.559 551.397 472.057 551.862 475.529 551.549C479.001 551.236 482.359 550.153 485.36 548.379L489.15 546.189C497.14 541.569 500.37 533.359 497.12 526.179Z" fill="#7A7176"/>
<path d="M428.68 534.871C427.324 529.892 425.173 525.164 422.31 520.871C419.572 516.824 416.151 513.285 412.2 510.411C404.533 504.81 395.091 502.19 385.635 503.041C376.179 503.891 367.355 508.153 360.81 515.031C357.428 518.563 354.693 522.662 352.73 527.141C350.681 531.858 349.411 536.876 348.97 542C347.547 536.718 347.396 531.173 348.53 525.821C349.687 520.281 352.031 515.058 355.4 510.511C358.845 505.872 363.235 502.017 368.28 499.201C369.57 498.541 370.86 497.861 372.19 497.281C373.52 496.701 374.9 496.231 376.28 495.771C377.66 495.311 379.09 495.031 380.51 494.771L384.83 494.13L389.19 493.98C390.64 494.04 392.1 494.161 393.55 494.261C395 494.361 396.41 494.761 397.84 495.011C399.27 495.261 400.65 495.781 402.03 496.201C407.502 498.065 412.514 501.076 416.73 505.031C420.861 508.902 424.103 513.624 426.23 518.871C428.291 523.938 429.13 529.419 428.68 534.871Z" fill="#231F20"/>
<path d="M598.499 519.611C597.142 514.648 594.991 509.937 592.13 505.661C589.4 501.607 585.978 498.067 582.02 495.201C574.354 489.601 564.914 486.981 555.459 487.832C546.005 488.682 537.182 492.943 530.639 499.821C527.256 503.348 524.522 507.444 522.56 511.92C520.514 516.643 519.241 521.664 518.79 526.791C517.375 521.506 517.228 515.963 518.36 510.611C519.514 505.072 521.854 499.849 525.219 495.301C528.664 490.659 533.054 486.801 538.1 483.98C539.39 483.33 540.68 482.651 542.01 482.071C543.34 481.491 544.72 481.011 546.1 480.561C547.48 480.111 548.92 479.82 550.34 479.5L554.649 478.861L559.02 478.721C560.47 478.721 561.92 478.89 563.37 479C564.82 479.11 566.239 479.49 567.669 479.75C569.099 480.01 570.47 480.521 571.86 480.931C577.326 482.808 582.335 485.817 586.56 489.761C590.688 493.636 593.926 498.362 596.05 503.611C598.118 508.676 598.957 514.159 598.499 519.611Z" fill="#231F20"/>
<path d="M500.76 535.03C501.51 543.36 477.04 554.16 477.04 554.16C477.04 554.16 448.62 548.16 447.87 539.8C447.12 531.44 458.35 523.65 472.96 522.34C487.57 521.03 500.02 526.71 500.76 535.03Z" fill="#231F20"/>
<path d="M518.36 560.27L481.36 563.27C479.872 557.833 478.802 552.29 478.16 546.69C478.164 546.654 478.164 546.617 478.16 546.58L478.1 546.281C478.1 546.191 478.05 546.111 478.02 546.031C477.982 545.931 477.939 545.834 477.89 545.741C477.857 545.669 477.82 545.598 477.78 545.531C477.72 545.431 477.65 545.341 477.58 545.241C477.541 545.196 477.504 545.149 477.47 545.1C477.377 545 477.277 544.906 477.17 544.821L477.08 544.741C476.957 544.646 476.827 544.562 476.69 544.491H476.63C476.488 544.42 476.34 544.36 476.19 544.31H476.1C475.962 544.271 475.821 544.241 475.68 544.221H475.5H475.35C475.283 544.216 475.216 544.216 475.15 544.221C475.1 544.226 475.05 544.226 475 544.221H474.89C474.785 544.235 474.682 544.255 474.58 544.281L474.34 544.35L474.05 544.48C473.973 544.514 473.9 544.555 473.83 544.6C473.743 544.651 473.659 544.708 473.58 544.77L473.38 544.93L473.18 545.14C473.12 545.21 473.06 545.271 473.01 545.341C472.96 545.411 472.9 545.5 472.85 545.58L472.72 545.81C472.72 545.9 472.65 545.991 472.62 546.071C472.581 546.157 472.551 546.248 472.53 546.341C472.508 546.43 472.491 546.52 472.48 546.611C472.48 546.711 472.48 546.81 472.48 546.91C472.48 547.01 472.48 546.991 472.48 547.031C472.392 552.782 471.844 558.517 470.84 564.18L433.84 567.18C433.84 567.18 431.53 622.67 478.56 618.88C525.59 615.09 518.36 560.27 518.36 560.27Z" fill="#231F20"/>
<path d="M444.76 605.459C451.32 613.969 461.81 620.139 478.56 618.789C496.13 617.369 506.13 608.839 511.76 598.709C504.08 591.899 491.58 587.999 477.81 589.109C463.23 590.289 450.95 596.779 444.76 605.459Z" fill="#F16B6C"/>
<path d="M607.42 473.249C606.901 473.251 606.39 473.115 605.941 472.855C605.491 472.595 605.118 472.22 604.86 471.769C604.19 470.599 588.03 443.14 557.02 449.55C556.274 449.662 555.513 449.484 554.894 449.052C554.274 448.62 553.844 447.968 553.692 447.228C553.539 446.489 553.676 445.719 554.074 445.078C554.472 444.436 555.1 443.972 555.83 443.78C591.09 436.5 609.83 468.519 609.97 468.849C610.161 469.184 610.284 469.553 610.332 469.936C610.38 470.318 610.352 470.706 610.25 471.077C610.148 471.449 609.973 471.797 609.737 472.101C609.5 472.405 609.206 472.659 608.87 472.849C608.432 473.11 607.931 473.248 607.42 473.249Z" fill="#231F20"/>
<path d="M336.759 498.491C336.291 498.491 335.829 498.379 335.412 498.164C334.996 497.95 334.636 497.639 334.364 497.257C334.092 496.876 333.915 496.434 333.849 495.971C333.782 495.507 333.826 495.034 333.979 494.591C334.099 494.241 346.519 459.3 382.549 459.94C382.95 459.925 383.35 459.991 383.725 460.136C384.099 460.28 384.44 460.499 384.727 460.78C385.013 461.06 385.24 461.396 385.392 461.767C385.545 462.139 385.62 462.537 385.613 462.938C385.606 463.34 385.518 463.735 385.353 464.101C385.188 464.467 384.95 464.795 384.654 465.066C384.358 465.337 384.01 465.544 383.631 465.675C383.251 465.807 382.85 465.86 382.449 465.83C350.739 465.29 339.989 495.241 339.539 496.511C339.34 497.089 338.965 497.59 338.466 497.945C337.968 498.3 337.371 498.491 336.759 498.491Z" fill="#231F20"/>
<path d="M387.76 577.809C373.291 579.111 358.762 576.094 346.008 569.139C333.255 562.183 322.85 551.602 316.11 538.733C309.37 525.864 306.597 511.286 308.142 496.841C309.688 482.397 315.482 468.735 324.792 457.583C334.101 446.431 346.509 438.291 360.445 434.191C374.382 430.091 389.221 430.216 403.087 434.549C416.952 438.883 429.221 447.231 438.342 458.537C447.464 469.844 453.027 483.601 454.33 498.069C456.055 517.467 450.015 536.756 437.535 551.705C425.054 566.654 407.153 576.042 387.76 577.809ZM375.9 446.169C364.334 447.213 353.337 451.663 344.299 458.956C335.262 466.249 328.59 476.058 325.127 487.143C321.665 498.228 321.566 510.09 324.845 521.231C328.124 532.372 334.633 542.29 343.548 549.732C352.464 557.173 363.386 561.804 374.933 563.039C386.48 564.273 398.135 562.057 408.422 556.668C418.709 551.28 427.168 542.962 432.728 532.766C438.288 522.571 440.701 510.956 439.66 499.389C438.251 483.878 430.743 469.559 418.784 459.58C406.824 449.601 391.393 444.777 375.88 446.169H375.9Z" fill="#221E57"/>
<path opacity="0.37" d="M437.061 521.768C446.732 490.814 429.478 457.88 398.524 448.209C367.569 438.538 334.636 455.792 324.965 486.747C315.294 517.701 332.548 550.635 363.502 560.306C394.457 569.977 427.39 552.723 437.061 521.768Z" fill="#69A9DC"/>
<path opacity="0.44" d="M358.08 558.639L435.64 526.489C439.117 517.84 440.478 508.485 439.608 499.203C438.739 489.921 435.664 480.982 430.64 473.129L324.51 520.199C326.86 528.716 331.099 536.593 336.91 543.248C342.722 549.903 349.957 555.163 358.08 558.639Z" fill="white"/>
<path d="M566.601 561.7C552.132 563.002 537.602 559.985 524.849 553.029C512.095 546.074 501.691 535.493 494.951 522.624C488.211 509.755 485.438 495.177 486.983 480.732C488.529 466.288 494.323 452.626 503.632 441.474C512.942 430.322 525.35 422.182 539.286 418.082C553.223 413.982 568.062 414.106 581.927 418.44C595.793 422.773 608.062 431.121 617.183 442.428C626.304 453.734 631.868 467.491 633.17 481.96C634.895 501.357 628.855 520.647 616.375 535.596C603.895 550.545 585.994 559.933 566.601 561.7ZM554.761 430.06C543.194 431.103 532.197 435.553 523.16 442.847C514.123 450.14 507.451 459.949 503.988 471.034C500.525 482.118 500.427 493.981 503.706 505.122C506.985 516.263 513.494 526.181 522.409 533.622C531.325 541.064 542.246 545.695 553.794 546.93C565.341 548.164 576.995 545.947 587.283 540.559C597.57 535.171 606.028 526.853 611.589 516.657C617.149 506.462 619.561 494.847 618.521 483.28C617.112 467.772 609.606 453.457 597.651 443.478C585.697 433.5 570.271 428.674 554.761 430.06Z" fill="#221E57"/>
<path opacity="0.37" d="M615.922 505.665C625.593 474.71 608.339 441.777 577.384 432.106C546.43 422.435 513.496 439.689 503.825 470.643C494.154 501.598 511.408 534.531 542.363 544.202C573.318 553.873 606.251 536.619 615.922 505.665Z" fill="#69A9DC"/>
<path opacity="0.44" d="M536.94 542.53L614.5 510.379C617.978 501.73 619.338 492.375 618.469 483.093C617.599 473.812 614.524 464.872 609.5 457.02L503.37 504.09C505.721 512.606 509.959 520.484 515.771 527.139C521.582 533.793 528.817 539.054 536.94 542.53Z" fill="white"/>
<path d="M501.98 498.871L491.2 499.871C490.962 497.223 490.205 494.649 488.971 492.294C487.738 489.939 486.053 487.851 484.012 486.147C481.972 484.444 479.616 483.159 477.078 482.366C474.541 481.573 471.873 481.287 469.225 481.526C466.578 481.764 464.003 482.522 461.649 483.755C459.294 484.988 457.205 486.673 455.502 488.714C453.798 490.755 452.513 493.11 451.72 495.648C450.927 498.185 450.642 500.853 450.88 503.501L440.1 504.501C439.657 500.398 440.036 496.248 441.215 492.293C442.393 488.338 444.347 484.658 446.964 481.466C449.58 478.275 452.806 475.638 456.453 473.707C460.1 471.776 464.095 470.591 468.205 470.221C472.315 469.851 476.458 470.303 480.391 471.552C484.324 472.8 487.97 474.82 491.114 477.493C494.258 480.165 496.838 483.437 498.704 487.118C500.57 490.799 501.683 494.815 501.98 498.931V498.871Z" fill="#221E57"/>
<path d="M411.39 661.6C411.39 661.6 407.61 668.09 376.9 640.7C348.36 615.23 341.9 585.41 316.32 593.59C294.84 600.46 313.11 642.24 337.32 675.22C364.75 712.57 412.41 741.66 412.41 741.66" fill="#C9C3C7"/>
<path opacity="0.52" d="M337.33 675.22C361.06 707.53 399.91 733.65 409.97 740.11L412.34 735.33L412.11 717.78C313.84 665.78 316.32 593.59 316.32 593.59C294.84 600.46 313.11 642.24 337.33 675.22Z" fill="#AFACAE"/>
<path d="M329.808 644.039C333.232 642.696 333.785 635.939 331.042 628.947C328.299 621.954 323.299 617.375 319.875 618.718C316.451 620.061 315.899 626.819 318.642 633.811C321.385 640.803 326.384 645.382 329.808 644.039Z" fill="white"/>
<path d="M411.39 661.6C411.39 661.6 407.61 668.09 376.9 640.7C348.36 615.23 341.9 585.41 316.32 593.59C294.84 600.46 313.11 642.24 337.32 675.22C364.75 712.57 412.41 741.66 412.41 741.66" fill="#C9C3C7"/>
<path opacity="0.52" d="M337.33 675.22C361.06 707.53 399.91 733.65 409.97 740.11L412.34 735.33L412.11 717.78C313.84 665.78 316.32 593.59 316.32 593.59C294.84 600.46 313.11 642.24 337.33 675.22Z" fill="#AFACAE"/>
<path d="M329.808 644.039C333.232 642.696 333.785 635.939 331.042 628.947C328.299 621.954 323.299 617.375 319.875 618.718C316.451 620.061 315.899 626.819 318.642 633.811C321.385 640.803 326.384 645.382 329.808 644.039Z" fill="white"/>
<path d="M872.97 29.301C842.67 15.961 804.17 134.901 742.34 275.301C680.51 415.701 618.78 524.421 649.09 537.771C679.4 551.121 799.33 468.031 861.15 327.611C922.97 187.191 903.28 42.651 872.97 29.301Z" fill="#EEC96C"/>
<path d="M864.76 53.4592C881.63 60.8892 895.21 109.039 893.26 174.459L889.45 165.759C889.45 165.759 859.92 222.159 844.45 221.289C828.98 220.419 767.05 336.439 767.05 336.439C767.05 336.439 679.67 400.18 667.44 537.59C659.76 539.59 653.49 539.679 649.11 537.749C639.34 533.439 639.11 519.209 645.43 497.219C663.54 449.569 698.83 379.689 734.17 299.439C795.97 159.059 834.47 40.1192 864.76 53.4592Z" fill="#E2B554"/>
<path d="M741.09 450.571C741.09 450.571 845.81 490.38 891.64 473.021C891.64 473.021 956.73 425.271 978.27 376.341C999.81 327.411 991.41 246.42 991.41 246.42C991.41 246.42 910.83 161.021 872.57 151.971C872.57 151.971 797.7 232.12 772.78 288.71C747.86 345.3 741.09 450.571 741.09 450.571Z" fill="#EEC96C"/>
<path d="M872.57 151.971C893.08 156.821 925.74 183.61 951.64 207.42C908.21 229.74 808.43 295.281 741.09 450.571C741.09 450.571 747.86 345.3 772.78 288.71C797.7 232.12 872.57 151.971 872.57 151.971Z" fill="#E2B554"/>
<path d="M872.57 151.971C882.03 154.211 894.09 161.131 906.88 170.261C906.88 170.261 840.52 258.12 818.24 308.73C795.96 359.34 778.13 462.73 778.13 462.73C756.52 456.48 741.13 450.621 741.13 450.621C741.13 450.621 747.9 345.351 772.82 288.761C797.74 232.171 872.57 151.971 872.57 151.971Z" fill="#6874B5"/>
<path d="M937.94 282.14C944.124 259.682 951.883 237.687 961.16 216.32C978.79 233.04 991.41 246.42 991.41 246.42C991.41 246.42 998.16 311.53 984.03 360.26C958.09 345.49 927.68 319.54 937.94 282.14Z" fill="#CB9B3B"/>
<path d="M909.81 388.61C925.46 382.3 949.39 391.84 964.89 399.73C937.41 439.43 891.64 473.02 891.64 473.02C875.38 479.18 851.7 478.13 827.91 474.23C845.64 446.87 890.76 396.32 909.81 388.61Z" fill="#CB9B3B"/>
<path d="M969.461 258.944C975.782 254.064 974.532 241.85 966.668 231.664C958.804 221.478 947.304 217.177 940.983 222.058C934.662 226.938 935.912 239.152 943.776 249.338C951.64 259.523 963.139 263.824 969.461 258.944Z" fill="white"/>
<path d="M697.027 521.034C706.929 514.684 712.601 505.862 709.694 501.329C706.787 496.796 696.403 498.269 686.501 504.619C676.598 510.969 670.927 519.792 673.833 524.325C676.74 528.858 687.124 527.384 697.027 521.034Z" fill="white"/>
<path d="M719.95 502.99C722.85 502.99 725.2 500.64 725.2 497.74C725.2 494.841 722.85 492.49 719.95 492.49C717.051 492.49 714.7 494.841 714.7 497.74C714.7 500.64 717.051 502.99 719.95 502.99Z" fill="white"/>
<path d="M587.39 630.189C587.39 630.189 593.65 634.319 609.02 596.189C623.31 560.709 615.91 531.099 642.42 527.089C664.72 523.729 666.87 569.269 659.8 609.579C651.8 655.219 621.98 702.429 621.98 702.429" fill="#C9C3C7"/>
<path opacity="0.52" d="M659.76 609.54C652.83 649.02 629.6 689.66 623.45 699.92L619.21 696.68L611.66 680.87C676.66 590.71 642.42 527.07 642.42 527.07C664.76 523.69 666.87 569.23 659.76 609.54Z" fill="#AFACAE"/>
<path d="M652.257 578.122C655.921 577.807 658.371 571.485 657.728 564.002C657.085 556.518 653.593 550.707 649.928 551.022C646.264 551.337 643.814 557.658 644.457 565.142C645.1 572.625 648.592 578.437 652.257 578.122Z" fill="white"/>
<path d="M447.967 824.426C452.437 822.214 452.573 813.375 448.272 804.683C443.97 795.991 436.86 790.738 432.39 792.95C427.92 795.162 427.784 804.001 432.085 812.693C436.387 821.385 443.498 826.638 447.967 824.426Z" fill="white"/>
<path d="M698.862 840.287C701.5 837.122 698.115 829.953 691.301 824.274C684.488 818.596 676.826 816.558 674.188 819.723C671.55 822.887 674.936 830.057 681.749 835.735C688.562 841.414 696.224 843.452 698.862 840.287Z" fill="white"/>
<path d="M766.805 872.866C770.751 871.962 773.633 869.846 773.242 868.139C772.851 866.433 769.335 865.782 765.389 866.686C761.443 867.59 758.561 869.706 758.952 871.412C759.343 873.119 762.859 873.769 766.805 872.866Z" fill="white"/>
<path d="M872.36 557.59C872.36 560.46 871.509 563.265 869.915 565.651C868.32 568.038 866.054 569.897 863.402 570.996C860.751 572.094 857.834 572.381 855.019 571.821C852.204 571.261 849.619 569.879 847.59 567.85C845.561 565.821 844.179 563.236 843.619 560.421C843.059 557.606 843.346 554.689 844.444 552.038C845.543 549.386 847.402 547.12 849.789 545.525C852.175 543.931 854.98 543.08 857.85 543.08C861.698 543.08 865.389 544.609 868.11 547.33C870.831 550.051 872.36 553.742 872.36 557.59Z" fill="#F26B6C"/>
<path d="M456.61 48.0605C456.61 50.9304 455.759 53.7359 454.164 56.1221C452.57 58.5082 450.304 60.3681 447.653 61.4663C445.001 62.5645 442.084 62.8519 439.269 62.292C436.454 61.7321 433.869 60.3501 431.84 58.3208C429.81 56.2915 428.429 53.7063 427.869 50.8916C427.309 48.0769 427.596 45.1592 428.694 42.5078C429.793 39.8565 431.652 37.5905 434.038 35.9961C436.424 34.4017 439.23 33.5508 442.1 33.5508C444.005 33.5508 445.892 33.9261 447.653 34.6553C449.413 35.3845 451.012 36.4529 452.36 37.8003C453.707 39.1477 454.776 40.7474 455.505 42.5078C456.235 44.2682 456.61 46.1551 456.61 48.0605Z" fill="#EDD946"/>
<path d="M781.659 1033.87C781.659 1036.74 780.809 1039.55 779.214 1041.93C777.619 1044.32 775.352 1046.18 772.7 1047.28C770.048 1048.37 767.13 1048.66 764.315 1048.1C761.5 1047.54 758.915 1046.16 756.886 1044.13C754.857 1042.1 753.476 1039.51 752.917 1036.69C752.359 1033.88 752.647 1030.96 753.747 1028.31C754.847 1025.66 756.708 1023.39 759.096 1021.8C761.483 1020.21 764.289 1019.36 767.159 1019.36C769.064 1019.36 770.951 1019.73 772.711 1020.46C774.471 1021.19 776.07 1022.26 777.416 1023.61C778.763 1024.96 779.831 1026.56 780.559 1028.32C781.287 1030.08 781.661 1031.96 781.659 1033.87Z" fill="#EDD946"/>
<path d="M1015.24 135.939C1015.24 138.809 1014.39 141.615 1012.79 144.001C1011.2 146.387 1008.93 148.247 1006.28 149.345C1003.63 150.443 1000.71 150.731 997.899 150.171C995.084 149.611 992.499 148.229 990.47 146.2C988.44 144.17 987.058 141.585 986.499 138.771C985.939 135.956 986.226 133.038 987.324 130.387C988.422 127.735 990.282 125.469 992.668 123.875C995.055 122.281 997.86 121.43 1000.73 121.43C1004.58 121.43 1008.27 122.959 1010.99 125.68C1013.71 128.401 1015.24 132.091 1015.24 135.939Z" fill="#EDD946"/>
<path d="M278.76 896.58C278.76 899.45 277.909 902.255 276.315 904.642C274.721 907.028 272.454 908.888 269.803 909.986C267.152 911.084 264.234 911.371 261.419 910.812C258.605 910.252 256.02 908.87 253.99 906.84C251.961 904.811 250.579 902.225 250.019 899.411C249.459 896.596 249.747 893.679 250.845 891.027C251.943 888.376 253.803 886.11 256.189 884.516C258.575 882.921 261.38 882.07 264.25 882.07C266.156 882.07 268.043 882.446 269.803 883.175C271.563 883.904 273.163 884.972 274.51 886.32C275.858 887.667 276.927 889.267 277.656 891.027C278.385 892.788 278.76 894.675 278.76 896.58Z" fill="#F26B6C"/>
<path d="M270 192.43C278.014 192.43 284.51 185.934 284.51 177.92C284.51 169.906 278.014 163.41 270 163.41C261.987 163.41 255.49 169.906 255.49 177.92C255.49 185.934 261.987 192.43 270 192.43Z" fill="#61388A"/>
<path d="M529.14 254.79C537.154 254.79 543.65 248.293 543.65 240.28C543.65 232.266 537.154 225.77 529.14 225.77C521.126 225.77 514.63 232.266 514.63 240.28C514.63 248.293 521.126 254.79 529.14 254.79Z" fill="#61388A"/>
<path d="M50.05 642.53C58.0637 642.53 64.56 636.033 64.56 628.02C64.56 620.006 58.0637 613.51 50.05 613.51C42.0364 613.51 35.54 620.006 35.54 628.02C35.54 636.033 42.0364 642.53 50.05 642.53Z" fill="#48BEA2"/>
<path d="M868.34 855.289L867.23 850.899C867.55 850.819 898.81 842.709 905.72 824.479C907.249 820.359 907.469 815.868 906.35 811.619C895.35 818.809 881.35 821.439 867.94 813.919C857.66 808.149 852.4 800.399 853.51 792.649C854.46 785.959 860.14 780.459 867.98 778.649C877.93 776.339 892.75 780.009 904.51 797.269C906.041 799.509 907.379 801.874 908.51 804.339C910.583 802.562 912.493 800.604 914.22 798.489C925.44 784.819 930.56 763.779 916.69 747.569L920.13 744.629C935.61 762.729 929.74 786.719 917.72 801.359C915.483 804.085 912.969 806.571 910.22 808.779C912.1 814.418 911.99 820.531 909.91 826.099C902.19 846.529 869.76 854.939 868.34 855.289ZM873.6 782.539C872.052 782.534 870.509 782.705 869 783.049C863 784.439 858.68 788.459 858 793.289C857.17 799.089 861.61 805.169 870.16 809.969C882.85 817.089 895.37 813.869 904.88 807.209C903.764 804.609 902.39 802.127 900.78 799.799C892.05 787.009 881.76 782.539 873.6 782.539Z" fill="#D84C53"/>
<path d="M242.06 770.72C227.06 770.72 213.29 761.82 205.01 750.93C202.88 748.123 201.041 745.108 199.52 741.93C193.602 742.451 187.683 740.93 182.75 737.619C164.66 725.359 163.98 691.809 163.96 690.389L168.48 690.329C168.48 690.649 169.15 722.939 185.29 733.879C188.953 736.303 193.268 737.552 197.66 737.459C193.21 725.079 193.88 710.869 204.3 699.559C212.3 690.899 221.04 687.559 228.3 690.439C234.59 692.919 238.62 699.71 238.58 707.76C238.58 717.98 231.58 731.549 212.03 738.999C209.489 739.983 206.87 740.753 204.2 741.3C205.466 743.721 206.931 746.031 208.58 748.209C219.29 762.279 238.58 772.109 257.58 762.379L259.65 766.379C254.22 769.216 248.187 770.705 242.06 770.72ZM222.95 693.939C218.24 693.939 212.84 696.94 207.63 702.61C197.76 713.31 198 726.23 202.29 737.03C205.076 736.543 207.806 735.779 210.44 734.749C227.81 728.119 234.05 716.439 234.09 707.749C234.09 701.579 231.21 696.45 226.67 694.66C225.486 694.188 224.224 693.944 222.95 693.939Z" fill="#F8A33E"/>
<path d="M672.41 121.43L672.31 116.91C672.63 116.91 703.86 116.06 714.51 100.18C718.17 94.7196 718.98 87.9695 716.94 80.0595C700.83 83.3695 681.69 79.4994 671.26 66.2494C663.69 56.6294 665.13 50.2495 666.66 47.3295C669.05 42.7295 674.73 40.2198 681.76 40.6098C693.61 41.2698 710.6 50.2295 719.51 73.3095C719.68 73.7595 719.84 74.2093 720 74.6493C722.481 73.9029 724.888 72.9291 727.19 71.7397C735.67 67.2997 740.95 60.6597 742.74 52.5497C735.08 51.8397 727.3 46.8997 719.55 37.7997C707.55 23.7097 702.74 11.6594 706.33 4.7294C708.08 1.3594 711.609 -0.340525 716.019 0.059475C725.779 0.939475 739.3 11.7295 745.93 33.3295C747.426 38.0014 748.102 42.8971 747.93 47.7997C766.18 44.1397 777.14 10.6295 777.25 10.2895L781.559 11.6693C781.079 13.1593 769.659 48.0597 748.809 52.2397C748.339 52.3297 747.86 52.4096 747.39 52.4696C745.53 62.3196 739.39 70.4697 729.33 75.7397C726.772 77.0654 724.093 78.1434 721.33 78.9594C723.71 88.1494 722.689 96.1194 718.269 102.709C706.289 120.539 673.76 121.4 672.41 121.43ZM680.31 45.0897C675.66 45.0897 672.1 46.6693 670.67 49.4193C668.9 52.8193 670.37 57.7993 674.82 63.4193C684.06 75.1793 701.1 78.6096 715.59 75.7196C715.49 75.4496 715.39 75.1796 715.28 74.9096C707.68 55.1996 692.84 45.7297 681.51 45.0897H680.31ZM714.769 4.52969C713.892 4.44863 713.01 4.61985 712.226 5.02383C711.443 5.42781 710.792 6.04748 710.35 6.80947C708.3 10.8095 710.54 20.2298 723 34.8598C730 43.0998 736.84 47.5195 743.37 48.0595C743.592 43.5227 742.992 38.9831 741.6 34.6596C735.18 13.7196 722.54 5.18973 715.6 4.56973C715.32 4.54157 715.04 4.52818 714.76 4.52969H714.769Z" fill="#48BEA2"/>
<path d="M0 444.96L4 442.891C4.14 443.171 18.6 470.891 37.55 473.471C44.0601 474.361 50.4799 472.131 56.6899 466.821C46.6899 453.821 41.69 434.9 49.05 419.71C54.3801 408.71 60.72 407.19 64.05 407.27C69.2401 407.41 73.99 411.4 76.72 417.9C81.33 428.83 80.7199 448.031 63.8999 466.161C63.5699 466.511 63.2499 466.861 62.8999 467.161C64.6556 469.068 66.5875 470.806 68.6699 472.351C76.3799 478.021 84.67 479.85 92.73 477.9C90.01 470.7 91.0301 461.551 95.8101 450.591C103.2 433.591 111.92 424.01 119.72 424.19C123.51 424.28 126.6 426.711 128.17 430.851C131.66 440.001 127.91 456.851 111.4 472.321C107.857 475.709 103.753 478.456 99.27 480.44C110.57 495.23 145.49 490.371 145.84 490.321L146.48 494.801C144.94 495.021 108.57 500.081 95.6699 483.181C95.3699 482.791 95.0901 482.4 94.8301 482C85.1701 484.66 75.1 482.69 65.99 476C63.6833 474.297 61.5468 472.375 59.6101 470.261C52.3901 476.431 44.7799 479.011 36.9299 477.931C15.6699 475.021 0.63 446.19 0 444.96ZM72.0601 418.551C70.0601 414.381 67.0599 411.87 63.9399 411.79C60.1099 411.7 56.2799 415.211 53.1599 421.681C46.6499 435.151 51.05 451.961 60 463.681C60.2 463.481 60.4001 463.271 60.5901 463.051C74.9701 447.571 76.9701 430.051 72.5901 419.621C72.4101 419.271 72.2401 418.871 72.0601 418.551ZM123.64 431.71C123.332 430.879 122.792 430.153 122.082 429.621C121.373 429.089 120.525 428.773 119.64 428.71C115.17 428.6 107.64 434.77 99.98 452.38C95.66 462.3 94.6801 470.38 97.0701 476.48C101.246 474.69 105.064 472.16 108.34 469.011C124.34 454.011 126.44 438.95 123.97 432.46C123.88 432.24 123.76 431.98 123.64 431.71Z" fill="#69A9DC"/>
</g>
<defs>
<clipPath id="clip0_5590_487">
<rect width="1015.24" height="1196.34" fill="white"/>
</clipPath>
</defs>
</svg>
