<svg width="435" height="556" viewBox="0 0 435 556" fill="none" xmlns="http://www.w3.org/2000/svg">
<g clip-path="url(#clip0_5633_601)">
<path d="M195.48 555.971C192.38 555.971 189.319 555.891 186.389 555.801C184.039 555.721 181.66 555.621 179.329 555.491C176.999 555.361 174.43 555.181 172.07 554.981C169.71 554.781 167.07 554.531 164.65 554.251C147.45 552.251 132.37 548.671 118.54 543.191C116.82 542.511 115.1 541.791 113.42 541.051C111.74 540.311 109.99 539.491 108.34 538.681C106.69 537.871 104.95 536.971 103.34 536.081C101.73 535.191 99.9895 534.211 98.3395 533.241C88.0585 527.068 78.7308 519.431 70.6495 510.571L69.9095 509.761L69.2395 509.001L68.6395 508.311L67.9695 507.511L67.3295 506.721C66.8895 506.167 66.4495 505.597 66.0095 505.011C65.9731 504.97 65.9397 504.926 65.9095 504.881L65.2395 503.951L65.1395 503.811L64.5295 502.921L64.4395 502.801L63.8095 501.851V501.791C62.8095 500.301 61.9095 498.701 61.0195 497.021L60.3895 495.791L60.3395 495.701L59.7295 494.481C59.717 494.442 59.7002 494.405 59.6795 494.371C53.1495 480.851 44.8095 455.491 28.1995 362.321C18.6395 308.781 13.3495 272.431 12.0395 251.221C10.8895 232.581 12.7195 225.431 15.4395 219.271C17.3495 203.361 29.9795 188.471 52.4395 175.511C51.7995 174.771 51.1795 174.051 50.5695 173.321L49.8895 172.491L49.6095 172.141C48.6562 171.001 47.7195 169.851 46.7995 168.691C46.5895 168.431 46.3795 168.161 46.1795 167.891L45.9295 167.571C44.9995 166.381 44.0695 165.191 43.1695 163.981C42.9995 163.761 42.8495 163.551 42.6995 163.341L42.5495 163.141C41.5495 161.831 40.6195 160.521 39.6795 159.191L39.1895 158.481C38.1895 157.101 37.2695 155.721 36.3395 154.331L36.0195 153.841C35.0195 152.331 34.0695 150.841 33.1495 149.401L32.8995 149.001C31.8995 147.391 30.9795 145.891 30.1195 144.431L29.9495 144.151C29.0095 142.551 28.0795 140.921 27.1995 139.341C27.18 139.299 27.1565 139.259 27.1295 139.221C5.92882 101.007 -3.17244 57.2587 1.02951 13.7608C1.37228 10.1148 3.03699 6.72014 5.70981 4.21679C8.38263 1.71344 11.8789 0.274348 15.5395 0.170798C17.5895 0.110798 19.6695 0.0807707 21.7195 0.0807707C62.5905 0.0945138 102.627 11.6504 137.219 33.418C171.811 55.1856 199.553 86.2798 217.25 123.121C234.894 86.2203 262.627 55.0706 297.239 33.2766C331.851 11.4825 371.927 -0.0648578 412.829 -0.0292146C414.829 -0.0292146 416.97 -0.0292183 419.02 0.0607817C422.678 0.166732 426.172 1.60691 428.843 4.11004C431.514 6.61316 433.177 10.0065 433.52 13.6508C437.727 57.149 428.625 100.899 407.42 139.111C407.4 139.153 407.377 139.193 407.35 139.231C406.49 140.791 405.56 142.411 404.61 144.031L404.44 144.321C403.57 145.791 402.66 147.321 401.65 148.891L401.41 149.291C400.483 150.757 399.536 152.221 398.569 153.681C398.439 153.881 398.329 154.051 398.21 154.221C397.289 155.611 396.33 156.991 395.37 158.371L394.88 159.071C393.94 160.411 392.97 161.721 392 163.071L391.86 163.251C391.71 163.461 391.56 163.681 391.4 163.891C390.486 165.097 389.56 166.297 388.62 167.491L388.389 167.801C388.18 168.071 387.97 168.351 387.75 168.621C386.85 169.761 385.91 170.891 384.98 172.021L384.78 172.271C405.89 184.091 417.67 197.721 419.91 212.961C431.46 237.341 425.74 264.691 415.65 312.891C414.1 320.271 412.51 327.891 410.81 336.261C409.996 340.261 409.166 344.417 408.319 348.731L407.319 354.021L406.46 358.481L405.63 362.871L404.819 367.271C404.549 368.721 404.279 370.201 404.009 371.691C399.469 396.821 396.01 415.901 392.19 432.521C391.48 435.681 390.75 438.731 390.05 441.591C389.35 444.451 388.55 447.451 387.81 450.151C387.43 451.541 387.04 452.911 386.65 454.251C385.859 456.971 385.039 459.621 384.21 462.121C382.47 467.401 380.67 472.121 378.72 476.651C374.083 487.749 367.594 497.978 359.53 506.901C348.416 518.948 335.174 528.84 320.47 536.081C311.528 540.472 302.194 544.015 292.59 546.661C289.59 547.491 286.49 548.271 283.35 548.981C281.83 549.321 280.299 549.651 278.78 549.981C270.028 551.714 261.188 552.969 252.3 553.741C249.65 553.991 246.859 554.211 244.009 554.401C240.409 554.641 236.559 554.851 232.259 555.041L228.55 555.191L221.79 555.431L216.48 555.611L213.79 555.701L211.02 555.781L205.62 555.901H202.53C201.023 555.901 199.493 555.901 197.94 555.901L195.48 555.971Z" fill="black"/>
<path d="M30.1404 223.03C85.6704 169.35 179.88 159.59 216.14 159.79C263.68 160.05 308.54 163.79 405.31 217.24C419.93 244.67 405.31 280.3 389.31 369.02C376.8 438.21 370.08 473.33 348.55 496.75C311.21 537.33 257.26 539.17 221.04 540.42C183.88 541.73 121.34 543.84 81.8304 500.42C71.8304 489.57 63.8304 476.21 43.0004 359.6C20.8904 236.23 26.3504 231.31 30.1404 223.03Z" fill="#00AF88"/>
<path d="M372.83 200.199L332.11 278.099C332.11 278.099 341.87 442.699 270.98 503.439C237.78 531.889 213.05 539.299 199.51 540.929C207.26 540.929 214.51 540.649 220.96 540.419C257.18 539.169 311.13 537.329 348.47 496.749C370 473.329 376.72 438.209 389.23 369.019C405.23 280.299 419.89 244.669 405.23 217.239C393.75 210.879 382.97 205.229 372.83 200.199Z" fill="#009284"/>
<path d="M30.1396 223.031C30.8996 184.361 141.48 149.171 233.52 151.871C306.57 153.971 403.46 180.971 405.27 217.241C407.08 253.51 313.6 295.771 230.77 300.051C135.75 304.851 29.3996 261.181 30.1396 223.031Z" fill="#48BC9D"/>
<path d="M69.7998 220.09C70.3598 192.6 154.74 167.54 224.94 169.45C280.69 170.96 354.56 190.17 355.94 215.95C357.32 241.73 286.06 271.79 222.83 274.88C150.35 278.36 69.2398 247.25 69.7998 220.09Z" fill="black"/>
<path opacity="0.62" d="M396.11 333.279C396.11 333.379 333.79 517.729 73.1104 487.759C75.2824 492.417 78.1895 496.695 81.7203 500.429C121.23 543.839 183.77 541.729 220.93 540.429C257.15 539.179 311.1 537.339 348.44 496.759C369.97 473.339 376.69 438.219 389.2 369.029C391.58 355.969 393.91 344.149 396.11 333.279Z" fill="#03785A"/>
<path d="M384.764 314.321C387.815 298.081 386.187 284.145 381.128 283.195C376.07 282.244 369.495 294.639 366.444 310.88C363.393 327.12 365.021 341.056 370.08 342.006C375.138 342.956 381.713 330.561 384.764 314.321Z" fill="white"/>
<path d="M355.83 358.19C359.774 358.19 362.97 354.993 362.97 351.05C362.97 347.107 359.774 343.91 355.83 343.91C351.887 343.91 348.69 347.107 348.69 351.05C348.69 354.993 351.887 358.19 355.83 358.19Z" fill="white"/>
<path d="M69.4701 172.02C88.9909 192.911 112.739 209.403 139.133 220.397C165.527 231.392 193.961 236.636 222.54 235.78L15.9201 15.0898C13.1863 43.5504 16.5482 72.2668 25.7819 99.3263C35.0155 126.386 49.9089 151.167 69.4701 172.02Z" fill="#009284"/>
<path d="M15.9199 15.09L222.54 235.78C225.243 207.321 221.866 178.613 212.633 151.559C203.4 124.504 188.521 99.7214 168.984 78.8533C149.446 57.9852 125.696 41.5085 99.307 30.5155C72.9185 19.5226 44.4947 14.2645 15.9199 15.09Z" fill="#48BC9D"/>
<path opacity="0.62" d="M222.54 235.78C224.627 213.676 223.07 191.379 217.93 169.78C136 197.31 25.3302 97.7797 25.2402 97.6797C38.9249 138.839 65.5052 174.495 101.043 199.364C136.58 224.233 179.183 236.992 222.54 235.75V235.78Z" fill="#03785A"/>
<path d="M139.067 87.3627C146.036 77.9201 140.933 62.329 127.669 52.5392C114.405 42.7493 98.0025 42.4678 91.0332 51.9104C84.0638 61.3531 89.1668 76.9441 102.431 86.7339C115.695 96.5238 132.097 96.8053 139.067 87.3627Z" fill="#F5F9FC"/>
<path d="M135.74 119.21C141.136 119.21 145.51 114.836 145.51 109.44C145.51 104.044 141.136 99.6699 135.74 99.6699C130.344 99.6699 125.97 104.044 125.97 109.44C125.97 114.836 130.344 119.21 135.74 119.21Z" fill="#F5F9FC"/>
<path d="M365.04 172.02C345.518 192.91 321.77 209.402 295.376 220.396C268.982 231.39 240.549 236.634 211.97 235.78L418.59 15.0898C421.324 43.5504 417.962 72.2668 408.728 99.3263C399.494 126.386 384.601 151.167 365.04 172.02Z" fill="#009284"/>
<path d="M418.59 15.09L211.97 235.78C209.267 207.321 212.644 178.613 221.877 151.559C231.11 124.504 245.989 99.7214 265.527 78.8533C285.064 57.9852 308.815 41.5085 335.203 30.5155C361.592 19.5226 390.016 14.2645 418.59 15.09Z" fill="#48BC9D"/>
<path opacity="0.62" d="M211.97 235.78C209.878 213.676 211.436 191.378 216.58 169.78C298.51 197.31 409.18 97.7797 409.27 97.6797C395.585 138.839 369.005 174.495 333.468 199.364C297.931 224.233 255.327 236.992 211.97 235.75V235.78Z" fill="#03785A"/>
<path d="M199.27 451.551C199.27 451.551 200.1 466.271 215.11 466.271C230.12 466.271 229.73 451.551 229.73 451.551" stroke="#221E20" stroke-width="6" stroke-miterlimit="10" stroke-linecap="round"/>
<path d="M125.97 366.12C134.024 361.717 142.852 358.909 151.97 357.85C161.43 356.685 171.029 357.461 180.18 360.13" stroke="black" stroke-width="7" stroke-miterlimit="10" stroke-linecap="round"/>
<path d="M254.11 360.789C272.026 354.805 291.578 356.108 308.54 364.419" stroke="black" stroke-width="7" stroke-miterlimit="10" stroke-linecap="round"/>
<path d="M162.45 434.659C177.422 434.659 189.56 422.522 189.56 407.549C189.56 392.577 177.422 380.439 162.45 380.439C147.477 380.439 135.34 392.577 135.34 407.549C135.34 422.522 147.477 434.659 162.45 434.659Z" fill="#F6F7E1"/>
<path d="M266.45 434.659C281.422 434.659 293.56 422.522 293.56 407.549C293.56 392.577 281.422 380.439 266.45 380.439C251.477 380.439 239.34 392.577 239.34 407.549C239.34 422.522 251.477 434.659 266.45 434.659Z" fill="#F6F7E1"/>
<path d="M135.35 407.56C135.066 403.969 135.55 400.359 136.771 396.97C138.024 393.508 139.978 390.342 142.511 387.67C145.066 384.963 148.15 382.809 151.57 381.34C155.007 379.862 158.709 379.1 162.451 379.1C166.192 379.1 169.894 379.862 173.331 381.34C176.749 382.813 179.832 384.966 182.39 387.67C184.916 390.347 186.87 393.512 188.131 396.97C189.356 400.375 189.844 404.002 189.561 407.61C189.031 400.611 185.928 394.056 180.85 389.21C175.877 384.51 169.293 381.891 162.451 381.891C155.608 381.891 149.024 384.51 144.051 389.21C138.988 394.045 135.89 400.58 135.35 407.56Z" fill="#221E20"/>
<path d="M189.56 407.561C189.847 411.169 189.36 414.796 188.13 418.201C186.876 421.662 184.922 424.828 182.39 427.501C179.831 430.204 176.748 432.358 173.33 433.831C169.893 435.309 166.191 436.071 162.45 436.071C158.708 436.071 155.006 435.309 151.57 433.831C148.153 432.354 145.071 430.201 142.51 427.501C139.977 424.828 138.023 421.662 136.77 418.201C135.543 414.796 135.059 411.168 135.35 407.561C135.868 414.563 138.968 421.124 144.05 425.971C149.025 430.666 155.608 433.281 162.45 433.281C169.291 433.281 175.874 430.666 180.85 425.971C185.925 421.119 189.028 414.562 189.56 407.561Z" fill="#221E20"/>
<path d="M169.06 417.48C178.885 417.48 186.85 409.516 186.85 399.69C186.85 389.865 178.885 381.9 169.06 381.9C159.234 381.9 151.27 389.865 151.27 399.69C151.27 409.516 159.234 417.48 169.06 417.48Z" fill="#221E20"/>
<path d="M239.35 407.56C239.065 403.969 239.549 400.359 240.77 396.97C242.023 393.508 243.977 390.342 246.509 387.67C249.065 384.963 252.149 382.809 255.569 381.34C259.006 379.862 262.708 379.1 266.449 379.1C270.191 379.1 273.893 379.862 277.33 381.34C280.748 382.813 283.831 384.966 286.39 387.67C288.922 390.342 290.876 393.508 292.13 396.97C293.36 400.374 293.848 404.002 293.56 407.61C293.033 400.61 289.93 394.054 284.85 389.21C279.876 384.51 273.292 381.891 266.449 381.891C259.607 381.891 253.023 384.51 248.05 389.21C242.987 394.045 239.889 400.58 239.35 407.56Z" fill="#221E20"/>
<path d="M293.56 407.561C293.848 411.169 293.36 414.796 292.13 418.201C290.877 421.662 288.923 424.828 286.39 427.501C283.832 430.204 280.749 432.358 277.33 433.831C273.893 435.309 270.191 436.071 266.45 436.071C262.709 436.071 259.007 435.309 255.57 433.831C252.154 432.354 249.071 430.201 246.51 427.501C243.984 424.823 242.031 421.659 240.77 418.201C239.549 414.794 239.065 411.168 239.35 407.561C239.878 414.561 242.977 421.118 248.05 425.971C253.026 430.666 259.609 433.281 266.45 433.281C273.292 433.281 279.874 430.666 284.85 425.971C289.926 421.119 293.028 414.562 293.56 407.561Z" fill="#221E20"/>
<path d="M271.65 416.019C281.475 416.019 289.44 408.055 289.44 398.229C289.44 388.404 281.475 380.439 271.65 380.439C261.825 380.439 253.86 388.404 253.86 398.229C253.86 408.055 261.825 416.019 271.65 416.019Z" fill="#221E20"/>
<path d="M162.43 453.57C180.567 453.57 195.27 445.108 195.27 434.67C195.27 424.231 180.567 415.77 162.43 415.77C144.293 415.77 129.59 424.231 129.59 434.67C129.59 445.108 144.293 453.57 162.43 453.57Z" fill="#00AF88"/>
<path d="M266.45 453.57C284.587 453.57 299.29 445.108 299.29 434.67C299.29 424.231 284.587 415.77 266.45 415.77C248.313 415.77 233.61 424.231 233.61 434.67C233.61 445.108 248.313 453.57 266.45 453.57Z" fill="#00AF88"/>
<path d="M165.49 403.909C183.627 403.909 198.33 395.448 198.33 385.009C198.33 374.571 183.627 366.109 165.49 366.109C147.353 366.109 132.65 374.571 132.65 385.009C132.65 395.448 147.353 403.909 165.49 403.909Z" fill="#00AF88"/>
<path d="M269.51 403.909C287.647 403.909 302.35 395.448 302.35 385.009C302.35 374.571 287.647 366.109 269.51 366.109C251.373 366.109 236.67 374.571 236.67 385.009C236.67 395.448 251.373 403.909 269.51 403.909Z" fill="#00AF88"/>
</g>
<defs>
<clipPath id="clip0_5633_601">
<rect width="434.5" height="555.93" fill="white"/>
</clipPath>
</defs>
</svg>
