<?xml version="1.0" encoding="utf-8"?>
<!-- Generator: Adobe Illustrator 19.0.0, SVG Export Plug-In . SVG Version: 6.00 Build 0)  -->
<svg version="1.1" id="Layer_1" xmlns="http://www.w3.org/2000/svg" xmlns:xlink="http://www.w3.org/1999/xlink" x="0px" y="0px"
	 viewBox="0 0 600 600" style="enable-background:new 0 0 600 600;" xml:space="preserve">
<style type="text/css">
	.st0{fill:#006A1E;}
	.st1{fill:#A3CA39;}
	.st2{fill:#714500;}
	.st3{fill:none;stroke:#000000;stroke-width:4;stroke-linecap:round;stroke-linejoin:round;stroke-miterlimit:10;}
	.st4{fill:#1C82BF;}
	.st5{fill:#FFFFFF;}
	.st6{fill:#6BC4E9;}
	.st7{fill:#1A3E92;}
	.st8{fill:none;stroke:#000000;stroke-width:5;stroke-linecap:round;stroke-linejoin:round;stroke-miterlimit:10;}
	.st9{opacity:0.67;}
	.st10{fill:#D7E3EC;}
	.st11{opacity:0.67;fill:#D7E3EC;}
	.st12{opacity:0.44;}
</style>
<g id="XMLID_101_">
	<g id="XMLID_74_">
		<g id="XMLID_82_">
			<path id="XMLID_104_" class="st0" d="M268.1,279.9c-0.2,0.1-0.4,0.3-0.6,0.4l-0.2,0.3c-9.9-7.8-24.7-8.5-35.3-1.8
				c2.3-7.2,6.1-15.7,13.6-16.6c6.8-0.9,12.3,5,16.6,10.4C264.2,275.1,266.2,277.5,268.1,279.9z"/>
			<path id="XMLID_102_" class="st0" d="M266.1,322.6c-3.5-12.2-2.9-25.5,1.5-37.3c0,0,0.1-0.1,0.1-0.1c0.8,5.3,2.1,10.5,4,15.5
				c1.6,4.3,3.7,8.8,3.3,13.4C274.6,318.7,270.6,323.4,266.1,322.6z"/>
			<path id="XMLID_99_" class="st0" d="M268.1,279.9c8-6.1,19-8.1,28.7-5.1c3.4,1,6.9,3,7.7,6.4c1,3.8-1.8,7.5-4.7,10
				c-7.7-7.5-19.4-8.5-30-9h0c-0.1-0.3-0.2-0.1-1,0c-0.3,0.1-0.6,0.1-1,0.2c-0.1,0-0.3,0-0.4,0.1c-0.1-0.6-0.1-1.1-0.2-1.6l0.2-0.2
				l0.2-0.3C267.8,280.2,267.9,280.1,268.1,279.9z"/>
			<path id="XMLID_98_" class="st1" d="M182.6,365.6c-3-1.4-6.3-2.3-9.6-2.6c10.5-12.1,22.4-25,38.3-27.1c4-0.5,8-0.3,12,0.3
				c3.1,0.5,6.2,1.3,9.2,2.1c0.4,0.1,0.7,0.2,1.1,0.3c15,4.5,30.8,13.3,35.1,28.4c1.8,6.2,1.3,12.9,0.9,19.3c-0.1,1-0.2,2.2-0.8,3
				c-0.9,1.1-2.5,1.3-3.9,1.4c-29.2,2-59.1-7.1-82.2-25.1L182.6,365.6z"/>
			<path id="XMLID_95_" class="st2" d="M235.3,337.7l-2.9,0.8c-3-0.9-6.1-1.6-9.2-2.1l0.1-0.6c4.5-21.1,20.4-36.7,37.5-49.8
				c1.9-1.5,4-3,6.4-3.4c0.1,0.8,0.2,1.6,0.3,2.5c0,0.1-0.1,0.2-0.1,0.3C249,296.6,239.2,315.9,235.3,337.7z"/>
			<path id="XMLID_51_" class="st2" d="M268.8,282.3c0.8-0.2,1-0.3,1,0c0,0.2,0,0.7,0.1,1.6c-0.7,0.4-1.5,0.8-2.2,1.3
				c0-0.1,0-0.1,0-0.2C268,284,268.4,283.1,268.8,282.3z"/>
		</g>
		<g id="XMLID_89_">
			<path id="XMLID_103_" class="st3" d="M182.6,365.8c23.1,17.9,53,27.1,82.2,25.1c1.4-0.1,3-0.3,3.9-1.4c0.6-0.8,0.8-1.9,0.8-3
				c0.4-6.5,0.9-13.1-0.9-19.3c-4.3-15.1-20-23.9-35.1-28.4c-0.4-0.1-0.7-0.2-1.1-0.3c-3-0.9-6.1-1.6-9.2-2.1c-4-0.6-8-0.9-12-0.3
				c-15.9,2.1-27.8,15-38.3,27.1c3.3,0.3,6.6,1.2,9.6,2.6c1.1,0.5,2.2,1.1,3.2,1.8"/>
			<path id="XMLID_100_" class="st3" d="M223.4,335.7c4.5-21.1,20.4-36.7,37.5-49.8c1.9-1.5,4-3,6.4-3.4c0.1,0,0.3,0,0.4-0.1
				c0.4,0,0.7-0.1,1-0.2c0.8-0.2,1-0.3,1,0c0,0.2,0,0.7,0.1,1.6c-0.7,0.4-1.5,0.8-2.2,1.3c0,0-0.1,0.1-0.1,0.1
				c-18.6,11.3-28.4,30.7-32.2,52.4"/>
			<path id="XMLID_97_" class="st3" d="M269.1,281.2c-0.3-0.4-0.7-0.8-1-1.3c-2-2.4-3.9-4.9-5.9-7.3c-4.3-5.3-9.8-11.2-16.6-10.4
				c-7.5,1-11.3,9.4-13.6,16.6c10.6-6.8,25.4-6,35.3,1.8c0.3,0.2,0.6,0.4,0.8,0.7"/>
			<path id="XMLID_96_" class="st3" d="M269.1,281.4c-0.1,0.3-0.3,0.6-0.4,0.9c-0.4,0.9-0.8,1.8-1.1,2.7c0,0.1-0.1,0.2-0.1,0.3
				c-4.4,11.9-5,25.2-1.5,37.3c4.6,0.8,8.5-3.9,8.9-8.5c0.4-4.6-1.7-9-3.3-13.4c-1.9-5-3.2-10.2-4-15.5c0-0.1,0-0.1,0-0.2
				c-0.1-0.8-0.2-1.6-0.3-2.5c-0.1-0.6-0.1-1.1-0.2-1.6"/>
			<path id="XMLID_49_" class="st3" d="M267.6,280.3c0.2-0.1,0.4-0.3,0.6-0.4c8-6.1,19-8.1,28.7-5.1c3.4,1,6.9,3,7.7,6.4
				c1,3.8-1.8,7.5-4.7,10c-7.7-7.5-19.4-8.5-30-9"/>
		</g>
	</g>
	<g id="XMLID_12_">
		<g id="XMLID_16_">
			<path id="XMLID_29_" class="st4" d="M529,437.4c19.7,10.9,39.4,31.2,33,52.8c-2.4,8.2-8.5,15-15.5,19.9c-22.9,16-53.9,13-80.6,5
				c-26.7-8-52.7-20.4-80.5-21.6c-7.7-0.3-18,3.1-17.1,10.7c0.3,2.7,2.1,4.9,3.4,7.3c5,9.5,0.9,22-7.2,29.1
				c-8.1,7.1-19.3,9.7-30,10.3c-20.7,1.1-41.8-4.5-59.2-15.8c-14.1-9.1-25.8-21.9-40.9-29.1c-25.7-12.3-57.2-6.4-81.4,8.6
				c-16.1,10-30.2,23.8-48.1,29.9c-17.9,6.1-42.3,0.5-47.7-17.7c-4.7-15.8,6.8-31.6,19-42.8c12.1-11.1,26.5-22.2,29.6-38.4
				c4.7-24.2-21.4-46.3-46-44.7c-6.4,0.4-13.6,1.8-18.7-2.1c-6-4.6-5.3-14.5-0.3-20.2c5-5.7,12.8-8,20.2-9.2
				c15.9-2.6,32.4-1.6,47.8,3l2.9-1.3c3.2,6.8,6.8,13.5,10,20.2c2.2,4.5,5.4,7.5,7.9,11.8c-5.8-6-26.3-8.8-30-1.4
				c17,5.6,30.5,20.9,33.8,38.5c3.3,17.6-3.7,36.8-17.6,48.1c-4.6,3.7-9.9,6.8-13.1,11.7c-3.1,5-2.8,12.8,2.4,15.5
				c4.4,2.2,9.7-0.4,13.9-2.9c19.6-11.6,39.4-23.5,61.4-29.6c21.9-6.2,46.7-5.9,66.2,6c17.6,10.8,29.6,30.2,48.9,37.5
				c19.6,7.4,43.9-1,54.7-18.9c4.8-8,7.1-17.5,12.9-24.9c14.4-18.4,43-15.9,64.8-7.5c21.8,8.4,43.6,21.2,66.7,17.8
				c4.4-0.6,8.9-2,11.9-5.3c7.1-7.9,0.4-21.3-9.2-26c-9.6-4.7-20.8-4.3-31-7.3c-10.2-3-18.9-22.1-16.6-32.5
				c8.6-8.1,16.6-17,24.1-26.3l2.3,1.9C485.9,417.8,509.3,426.5,529,437.4z"/>
			<path id="XMLID_28_" class="st5" d="M539.3,186.8c3.2,16.2,1.8,32.9,0.2,49.4c-2.7,27.8-6,56-16.4,82
				c-8.7,21.8-22.1,41.5-36.1,60.3c-4.3,5.8-8.8,11.6-13.3,17.3c-7.5,9.3-15.5,18.2-24.1,26.3c-9.9,9.3-20.8,17.6-32.8,24
				c-29.8,15.9-64.6,19.2-98.4,19.6c-2.6-7.5,8.1-11.7,15.8-13.9c1.5-0.4,3-0.9,4.5-1.4c19-5.9,37.2-14.1,54.2-24.3
				c20.9-12.6,39.9-28.1,56.3-46.1c8.6-9.5,16.5-19.6,23.6-30.4c5.2-8,8.8-20.8,0.4-25.1c-0.3,7-12.4,6.5-15.1,0.1
				c-2.8-6.4,0.6-13.6,3.8-19.8c8.5-16,17.1-32.2,24-49c3.5-8.6,6.5-17.3,8.8-26.3c6.8-26.6,6.8-55.9-5.7-80.3
				c-7.7,4-6.8,15.1-4.4,23.5c2.4,8.3,4.3,19-2.7,24.1c-7-4.1-9.3-12.8-12.7-20.2c-8.2-17.4-25.1-28.9-41.8-38.3
				c-20.7-11.7-43.7-21.9-67.5-19.9c-23.7,2-52,29.7-52.5,53.5c-4.5,5.1-8.8,12.9-15.6,11.7c-5.9-1-8.1-8.6-6.8-14.4
				c1.3-5.8,4.9-11,5.7-16.9c0.3-1.9,0.3-3.8-0.5-5.6c-2.4-5.7-11.3-5.6-15.6-1.1c-4.3,4.5-5,11.2-5.2,17.3
				c-0.2,6.2-0.1,12.7-3.4,18c-2.2,3.5-6.2,6.2-10.2,5.5c-1.9-0.3-3.6-1.3-5-2.6c-8.2-7.6-4.1-21.2,1.2-31.1
				c5.2-9.9,11.1-22.1,5-31.5c-9.3,9.4-18.7,18.7-28,28.1c-1.8,1.8-3.7,3.7-6.2,4c-5.3,0.7-8.8-5.8-9-11.2
				c-0.5-14.8,10.6-27.8,23.5-35.2c12.8-7.4,27.5-10.8,41.2-16.4c4.1-1.7,8.7-4.7,8.1-9.1c-0.7-5.4-8.3-6.1-13.7-4.9
				c-10.5,2.4-20.6,6.4-29.9,11.9c-4.8-4.2-5.5-11.9-3.1-17.8c2.4-6,7.2-10.6,12.1-14.7c32.4-27.2,75.9-40.7,118-36.6l15.4,4.5
				c25.3,7.9,51.1,16.1,72.4,31.9c28.1,20.9,45.4,52.9,61.9,83.9C527.9,154.6,536,170,539.3,186.8z"/>
			<path id="XMLID_27_" class="st6" d="M497.2,461.8c9.6,4.7,16.3,18,9.2,26c-3,3.3-7.5,4.7-11.9,5.3c-23.1,3.4-45-9.4-66.7-17.8
				c-21.8-8.4-50.4-10.8-64.8,7.5c-5.8,7.4-8.1,16.9-12.9,24.9c-10.8,18-35.1,26.4-54.7,18.9c-19.3-7.4-31.3-26.8-48.9-37.5
				c-19.4-11.9-44.2-12.2-66.2-6c-21.9,6.2-41.7,18.1-61.4,29.6c-4.3,2.5-9.5,5.1-13.9,2.9c-5.3-2.6-5.6-10.5-2.4-15.5
				c3.1-5,8.5-8,13.1-11.7c13.9-11.3,20.9-30.5,17.6-48.1c-3.3-17.6-16.7-32.9-33.8-38.5c3.8-7.4,24.3-4.5,30,1.4
				c2.5,4.4,8.3,13.4,11.8,17c5,5.2,9.6,9.5,13.8,12.9c8.6,7.1,15.5,10.7,20.9,12c17.1,4,28.2,12.3,45.6,14.6
				c15.4,2.1,30.8,3.6,46.3,4.6c16.8,1.1,33.6,1.5,50.4,1.3c33.8-0.4,68.6-3.7,98.4-19.6c12-6.4,22.9-14.6,32.8-24
				c-2.3,10.4,6.4,29.5,16.6,32.5C476.4,457.5,487.6,457.1,497.2,461.8z"/>
			<path id="XMLID_26_" class="st7" d="M488.9,149.2c12.6,24.4,12.5,53.7,5.7,80.3c-2.3,9-5.3,17.7-8.8,26.3l-3.3-1.3
				c0.2-6.9-8.3-10.5-15.2-10.2c-6.9,0.3-14.2,2.3-20.2-1c-7.5-4-9-14-8.5-22.5c0.5-8.5,1.9-17.6-2.5-24.9
				c-3.9-6.4-12.2-9.7-19.6-7.9c-7.2,1.7-13,7.9-14.7,15.1c-9-15.9-25.3-27.2-42.3-34.6c-17.2-7.5-40-10.6-52.4,3.4
				c0.4-23.8,28.7-51.5,52.5-53.5c23.7-2,46.7,8.2,67.5,19.9c16.7,9.5,33.7,20.9,41.8,38.3c3.4,7.3,5.7,16.1,12.7,20.2
				c7-5.1,5-15.8,2.7-24.1C482.2,164.3,481.3,153.2,488.9,149.2z"/>
			<path id="XMLID_25_" class="st6" d="M482.6,254.5l3.3,1.3c-6.8,16.8-15.4,33-24,49c-3.3,6.1-6.6,13.4-3.8,19.8
				c2.8,6.4,14.8,6.8,15.1-0.1c8.5,4.3,4.9,17.2-0.4,25.1c-7,10.7-14.9,20.9-23.6,30.4l-1.6-1.4c2.2-5.6-3.2-11.8-9.1-12.9
				c-5.9-1.2-11.9,1-17.8,2.5c-5.8,1.5-12.6,2.2-17.5-1.3c-6.3-4.5-6.6-13.9-4.4-21.3c2.3-7.4,6.6-14.2,7.6-21.9
				c0.3-2.2,0.3-4.6-0.6-6.7c-1.8-4.1-6.9-6.1-11.4-5.3c-4.4,0.8-8.2,3.8-11,7.3l-1-0.6c8.2-13.1,14.1-27.9,18.9-42.6
				c7-21.3,12.2-45,4-65.8c-0.9-2.4-2-4.7-3.3-6.9c1.6-7.2,7.5-13.4,14.7-15.1c7.3-1.7,15.6,1.5,19.6,7.9c4.4,7.2,3,16.4,2.5,24.9
				c-0.5,8.5,1,18.5,8.5,22.5c6,3.3,13.4,1.2,20.2,1C474.3,244,482.9,247.6,482.6,254.5z"/>
			<path id="XMLID_24_" class="st7" d="M447.6,378.5l1.6,1.4c-16.4,18-35.4,33.6-56.3,46.1l-0.1-0.2c1.1-4.1,2.2-8.2,1.8-12.4
				c-0.3-4.2-2.2-8.5-5.9-10.6c-5.1-2.9-11.5-0.7-17.4-1.5c-10.6-1.5-17.4-15-12.3-24.4c3.5-6.4,11.4-11.9,9.3-18.8
				c-1.1-3.6-4.8-5.9-8.5-6.3c-3.7-0.4-7.4-2.8-10.8-1.2c4.4-2.4,8.5-5.2,12.4-8.3c8.3-6.7,15.1-14.9,20.8-24l1,0.6
				c2.8-3.5,6.6-6.5,11-7.3c4.4-0.8,9.5,1.2,11.4,5.3c0.9,2.1,0.9,4.4,0.6,6.7c-1,7.7-5.3,14.5-7.6,21.9c-2.3,7.4-1.9,16.8,4.4,21.3
				c4.9,3.5,11.6,2.8,17.5,1.3c5.8-1.5,11.8-3.6,17.8-2.5C444.4,366.8,449.9,372.9,447.6,378.5z"/>
			<path id="XMLID_23_" class="st6" d="M394.7,413.4c0.3,4.2-0.8,8.4-1.8,12.4l0.1,0.2c-17,10.3-35.3,18.5-54.2,24.3l-0.6-1.9
				c-1-4.9-2.3-10.3-6.5-13c-3.5-2.3-8.2-2.2-11.3-4.9c-3.2-2.8-3.6-7.7-2.7-11.9c0.9-4.2,2.7-8.1,3.2-12.3
				c1.3-12.2-9.8-22.8-21.7-26.1c-3.1-0.9-6.3-1.4-8.9-3.3c-2.6-1.9-4.1-5.7-2.3-8.3l-0.1-0.7c4.8-0.6,9.6-1.3,14.3-2.1
				c16.3-2.8,32.7-7.2,47-15.2c0,0,0,0,0,0c3.4-1.6,7.1,0.8,10.8,1.2c3.7,0.4,7.4,2.7,8.5,6.3c2.1,7-5.8,12.5-9.3,18.8
				c-5.1,9.4,1.7,22.9,12.3,24.4c5.8,0.8,12.3-1.4,17.4,1.5C392.5,404.9,394.4,409.2,394.7,413.4z"/>
			<path id="XMLID_22_" class="st4" d="M338.1,448.5l0.6,1.9c-1.5,0.5-3,0.9-4.5,1.4c-7.7,2.2-18.5,6.4-15.8,13.9
				c-16.8,0.2-33.6-0.2-50.4-1.3l0-0.6c-4.3-2.6-5.2-8.7-3.6-13.5c1.7-4.7,5.2-8.5,8.4-12.4c3.2-3.9,6.2-8.3,6.4-13.3
				c0.3-9.3-8.8-15.8-16.6-21c-7.7-5.2-16-13.6-13-22.5c1.3-4,4.7-6.8,7.9-9.5l0.1-2.2c10.1,0.3,20.2-0.3,30.3-1.5l0.1,0.7
				c-1.8,2.6-0.3,6.4,2.3,8.3c2.6,1.9,5.8,2.5,8.9,3.3c11.9,3.3,23,13.9,21.7,26.1c-0.4,4.2-2.3,8.2-3.2,12.3
				c-0.9,4.2-0.5,9,2.7,11.9c3.1,2.7,7.9,2.6,11.3,4.9C335.8,438.2,337.1,443.6,338.1,448.5z"/>
			<path id="XMLID_20_" class="st7" d="M169.3,340l3-1.6c14.8,13.4,33.7,22.4,53.2,27c10.5,2.5,21.3,3.7,32.1,4l-0.1,2.2
				c-3.2,2.7-6.5,5.6-7.9,9.5c-3,8.9,5.3,17.3,13,22.5c7.7,5.2,16.9,11.7,16.6,21c-0.2,5-3.2,9.5-6.4,13.3
				c-3.2,3.9-6.8,7.6-8.4,12.4c-1.7,4.7-0.7,10.9,3.6,13.5l0,0.6c-15.5-1-30.9-2.5-46.3-4.6c-5.5-4.4-8.4-15.3-8.5-22.3
				c-0.1-7.1,1.1-14.1,0.5-21.2c-1.9-21.2-20.8-37.2-40.7-44.9c-5.4-2.1-11.2-3.9-14.8-8.5c-3.3-4.2-4-10.3-1.6-15.1
				C158.9,343.2,164.1,340,169.3,340z"/>
			<path id="XMLID_18_" class="st4" d="M213.2,437.5c0.1,7.1,3,17.9,8.5,22.3c-17.4-2.3-28.5-10.6-45.6-14.6
				c-5.4-1.3-12.3-4.9-20.9-12c-4.2-3.5-8.8-7.7-13.8-12.9c-3.5-3.6-9.3-12.7-11.8-17c-2.5-4.3-5.7-7.3-7.9-11.8
				c-3.2-6.7-6.8-13.4-10-20.2c-7.4-15.6-12.9-31.4-7.5-47.8c4-12.1,14.5-23.7,27.2-22.6c13.3,1.2,21.3,14.7,29.5,25.2
				c3.5,4.4,7.3,8.5,11.5,12.3l-3,1.6c-5.2,0-10.4,3.2-12.7,7.8c-2.4,4.8-1.7,10.9,1.6,15.1c3.6,4.5,9.4,6.4,14.8,8.5
				c19.9,7.7,38.8,23.7,40.7,44.9C214.4,423.3,213.1,430.4,213.2,437.5z"/>
		</g>
		<g id="XMLID_17_">
			<path id="XMLID_106_" class="st8" d="M349.2,350.6c4.4-2.4,8.5-5.2,12.4-8.3c8.3-6.7,15.1-14.9,20.8-24
				c8.2-13.1,14.1-27.9,18.9-42.6c7-21.3,12.2-45,4-65.8c-0.9-2.4-2-4.7-3.3-6.9c-9-15.9-25.3-27.2-42.3-34.6
				c-17.2-7.5-40-10.6-52.4,3.4c-4.5,5.1-8.8,12.9-15.6,11.7c-5.9-1-8.1-8.6-6.8-14.4c1.3-5.8,4.9-11,5.7-16.9
				c0.3-1.9,0.3-3.8-0.5-5.6c-2.4-5.7-11.3-5.6-15.6-1.1c-4.3,4.5-5,11.2-5.2,17.3c-0.2,6.2-0.1,12.7-3.4,18
				c-2.2,3.5-6.2,6.2-10.2,5.5c-1.9-0.3-3.6-1.3-5-2.6c-8.2-7.6-4.1-21.2,1.2-31.1c5.2-9.9,11.1-22.1,5-31.5
				c-9.3,9.4-18.7,18.7-28,28.1c-1.8,1.8-3.7,3.7-6.2,4c-5.3,0.7-8.8-5.8-9-11.2c-0.5-14.8,10.6-27.8,23.5-35.2
				c12.8-7.4,27.5-10.8,41.2-16.4c4.1-1.7,8.7-4.7,8.1-9.1c-0.7-5.4-8.3-6.1-13.7-4.9c-10.5,2.4-20.6,6.4-29.9,11.9
				c-4.8-4.2-5.5-11.9-3.1-17.8c2.4-6,7.2-10.6,12.1-14.7c32.4-27.2,75.9-40.7,118-36.6l15.4,4.5c25.3,7.9,51.1,16.1,72.4,31.9
				c28.1,20.9,45.4,52.9,61.9,83.9c8,15.1,16.1,30.5,19.4,47.2c3.2,16.2,1.8,32.9,0.2,49.4c-2.7,27.8-6,56-16.4,82
				c-8.7,21.8-22.1,41.5-36.1,60.3c-4.3,5.8-8.8,11.6-13.3,17.3c-7.5,9.3-15.5,18.2-24.1,26.3c-9.9,9.3-20.8,17.6-32.8,24
				c-29.8,15.9-64.6,19.2-98.4,19.6c-16.8,0.2-33.6-0.2-50.4-1.3c-15.5-1-30.9-2.5-46.3-4.6c-17.4-2.3-28.5-10.6-45.6-14.6
				c-5.4-1.3-12.3-4.9-20.9-12c-4.2-3.5-8.8-7.7-13.8-12.9c-3.5-3.6-9.3-12.7-11.8-17c-2.5-4.3-5.7-7.3-7.9-11.8
				c-3.2-6.7-6.8-13.4-10-20.2c-7.4-15.6-12.9-31.4-7.5-47.8c4-12.1,14.5-23.7,27.2-22.6c13.3,1.2,21.3,14.7,29.5,25.2
				c3.5,4.4,7.3,8.5,11.5,12.3c14.8,13.4,33.7,22.4,53.2,27c10.5,2.5,21.3,3.7,32.1,4c10.1,0.3,20.2-0.3,30.3-1.5
				c4.8-0.6,9.6-1.3,14.3-2.1C318.4,363,334.9,358.6,349.2,350.6"/>
			<path id="XMLID_48_" class="st8" d="M307.4,171.8c0.4-23.8,28.7-51.5,52.5-53.5c23.7-2,46.7,8.2,67.5,19.9
				c16.7,9.5,33.7,20.9,41.8,38.3c3.4,7.3,5.7,16.1,12.7,20.2c7-5.1,5-15.8,2.7-24.1c-2.4-8.3-3.3-19.5,4.4-23.5
				c12.6,24.4,12.5,53.7,5.7,80.3c-2.3,9-5.3,17.7-8.8,26.3c-6.8,16.8-15.4,33-24,49c-3.3,6.1-6.6,13.4-3.8,19.8
				c2.8,6.4,14.8,6.8,15.1-0.1c8.5,4.3,4.9,17.2-0.4,25.1c-7,10.7-14.9,20.9-23.6,30.4c-16.4,18-35.4,33.6-56.3,46.1
				c-17,10.3-35.3,18.5-54.2,24.3c-1.5,0.5-3,0.9-4.5,1.4c-7.7,2.2-18.5,6.4-15.8,13.9"/>
			<path id="XMLID_47_" class="st8" d="M401.9,203.4c0-0.1,0.1-0.3,0.1-0.4c1.6-7.2,7.5-13.4,14.7-15.1c7.3-1.7,15.6,1.5,19.6,7.9
				c4.4,7.2,3,16.4,2.5,24.9c-0.5,8.5,1,18.5,8.5,22.5c6,3.3,13.4,1.2,20.2,1c6.9-0.2,15.4,3.4,15.2,10.2"/>
			<path id="XMLID_45_" class="st8" d="M383.5,318.9c2.8-3.5,6.6-6.5,11-7.3c4.4-0.8,9.5,1.2,11.4,5.3c0.9,2.1,0.9,4.4,0.6,6.7
				c-1,7.7-5.3,14.5-7.6,21.9c-2.3,7.4-1.9,16.8,4.4,21.3c4.9,3.5,11.6,2.8,17.5,1.3c5.8-1.5,11.8-3.6,17.8-2.5
				c5.9,1.2,11.4,7.3,9.1,12.9"/>
			<path id="XMLID_39_" class="st8" d="M349.2,350.6C349.2,350.6,349.2,350.6,349.2,350.6c3.4-1.6,7.1,0.8,10.8,1.2
				c3.7,0.4,7.4,2.7,8.5,6.3c2.1,7-5.8,12.5-9.3,18.8c-5.1,9.4,1.7,22.9,12.3,24.4c5.8,0.8,12.3-1.4,17.4,1.5
				c3.6,2.1,5.6,6.4,5.9,10.6c0.3,4.2-0.8,8.4-1.8,12.4"/>
			<path id="XMLID_38_" class="st8" d="M287.9,368.6c-1.8,2.6-0.3,6.4,2.3,8.3c2.6,1.9,5.8,2.5,8.9,3.3c11.9,3.3,23,13.9,21.7,26.1
				c-0.4,4.2-2.3,8.2-3.2,12.3c-0.9,4.2-0.5,9,2.7,11.9c3.1,2.7,7.9,2.6,11.3,4.9c4.2,2.7,5.5,8.1,6.5,13"/>
			<path id="XMLID_36_" class="st8" d="M169.6,340c-0.1,0-0.2,0-0.3,0c-5.2,0-10.4,3.2-12.7,7.8c-2.4,4.8-1.7,10.9,1.6,15.1
				c3.6,4.5,9.4,6.4,14.8,8.5c19.9,7.7,38.8,23.7,40.7,44.9c0.6,7-0.6,14.1-0.5,21.2c0.1,7.1,3,17.9,8.5,22.3"/>
			<path id="XMLID_32_" class="st8" d="M257.5,371.6c-3.2,2.7-6.5,5.6-7.9,9.5c-3,8.9,5.3,17.3,13,22.5c7.7,5.2,16.9,11.7,16.6,21
				c-0.2,5-3.2,9.5-6.4,13.3c-3.2,3.9-6.8,7.6-8.4,12.4c-1.7,4.7-0.7,10.9,3.6,13.5"/>
			<path id="XMLID_31_" class="st3" d="M108.7,372.6c-15.4-4.6-31.9-5.7-47.8-3c-7.5,1.2-15.2,3.5-20.2,9.2
				c-5,5.7-5.7,15.6,0.3,20.2c5.1,3.9,12.3,2.5,18.7,2.1c24.6-1.6,50.7,20.4,46,44.7c-3.1,16.2-17.5,27.3-29.6,38.4
				c-12.1,11.2-23.7,27-19,42.8c5.5,18.2,29.8,23.8,47.7,17.7c17.9-6.1,32-20,48.1-29.9c24.2-15,55.7-20.9,81.4-8.6
				c15.1,7.2,26.9,20,40.9,29.1c17.4,11.3,38.5,16.9,59.2,15.8c10.8-0.6,21.9-3.2,30-10.3c8.1-7.1,12.2-19.6,7.2-29.1
				c-1.3-2.4-3-4.6-3.4-7.3c-1-7.6,9.4-11,17.1-10.7c27.9,1.2,53.8,13.6,80.5,21.6c26.7,8,57.8,10.9,80.6-5c7-4.9,13-11.7,15.5-19.9
				c6.4-21.6-13.3-41.9-33-52.8c-19.7-10.8-43.1-19.6-53-39.8"/>
			<path id="XMLID_30_" class="st3" d="M129.5,403.3c-5.8-6-26.3-8.8-30-1.4c17,5.6,30.5,20.9,33.8,38.5
				c3.3,17.6-3.7,36.8-17.6,48.1c-4.6,3.7-9.9,6.8-13.1,11.7c-3.1,5-2.8,12.8,2.4,15.5c4.4,2.2,9.7-0.4,13.9-2.9
				c19.6-11.6,39.4-23.5,61.4-29.6c21.9-6.2,46.7-5.9,66.2,6c17.6,10.8,29.6,30.2,48.9,37.5c19.6,7.4,43.9-1,54.7-18.9
				c4.8-8,7.1-17.5,12.9-24.9c14.4-18.4,43-15.9,64.8-7.5c21.8,8.4,43.6,21.2,66.7,17.8c4.4-0.6,8.9-2,11.9-5.3
				c7.1-7.9,0.4-21.3-9.2-26c-9.6-4.7-20.8-4.3-31-7.3c-10.2-3-18.9-22.1-16.6-32.5"/>
		</g>
	</g>
	<g id="XMLID_37_">
		<path id="XMLID_139_" class="st5" d="M210.6,185.7c-7.7,7.9-13,18.2-14.9,29c-0.9,5,0.5,12,5.6,12.3c4.2,0.2,6.7-4.6,7.7-8.7
			C211.9,207,213.7,197.1,210.6,185.7"/>
		<g id="XMLID_134_">
			<path id="XMLID_138_" d="M208.8,184c-6.9,7.2-12,15.9-14.5,25.5c-1.6,5.9-2.9,15.2,3.3,19c7,4.2,12.1-3.7,13.8-9.4
				c3.2-11.1,4.4-22.7,1.6-34c-0.8-3.1-5.6-1.8-4.8,1.3c2,8,1.7,15.9,0.1,23.9c-0.6,3.2-1.2,6.6-2.4,9.6c-1.4,3.6-5.6,6.9-7.4,1.6
				c-1.8-5.2,0.7-11.9,2.6-16.7c2.6-6.5,6.5-12.3,11.3-17.3C214.6,185.2,211,181.6,208.8,184L208.8,184z"/>
		</g>
	</g>
	<g id="XMLID_107_">
		<path id="XMLID_132_" class="st5" d="M305.1,211.8c-1.4,9.1-0.7,18.6,2,27.4c0.9,2.7,2.1,5.7,4.8,6.9c3.3,1.6,7.5-0.6,9.1-3.9
			s1.3-7.2,0.2-10.7C318.5,222.7,313.6,215.1,305.1,211.8"/>
		<g id="XMLID_127_">
			<path id="XMLID_131_" d="M302.6,211.1c-1.4,10-1.1,20.6,2.5,30.1c2.4,6.4,8.7,10.5,14.9,5.8c6.6-5,4.7-14,2-20.6
				c-3.1-7.4-8.2-13.6-15.7-16.8c-2.9-1.2-5.5,3.1-2.5,4.3c8.6,3.6,16.4,13.9,15.8,23.7c-0.1,1.7-0.8,3.8-2,5
				c-2.5,2.3-5.5,0.6-7.1-1.7c-1.4-2.1-1.8-5.3-2.4-7.8c-1.5-6.8-1.6-13.8-0.6-20.7C307.9,209.3,303.1,207.9,302.6,211.1
				L302.6,211.1z"/>
		</g>
	</g>
	<g id="XMLID_108_">
		<path id="XMLID_142_" class="st5" d="M189.2,105.3c-17.7,4.2-35.6,11-44.1,27.1c-1.1,2.2-2,4.7-1.2,7c1.2,3.3,5.5,4.4,8.8,3.3
			c3.3-1.1,5.8-3.8,8.1-6.3C170.4,126,179.8,115.6,189.2,105.3"/>
		<g id="XMLID_122_">
			<path id="XMLID_126_" d="M188.6,102.8c-10.8,2.6-21.7,6-31,12.3c-6.7,4.6-17.7,14.3-16.3,23.5c0.6,3.9,3.9,6.4,7.7,6.9
				c4.6,0.5,8.5-2.1,11.7-5.2c10.7-10.4,20.3-22.2,30.3-33.3c2.2-2.4-1.4-5.9-3.5-3.5c-7.1,7.8-14.1,15.5-21.2,23.3
				c-3.2,3.5-6.2,7.3-9.7,10.5c-1.9,1.7-4.2,3.5-6.9,3.2c-4.5-0.5-3.2-5.3-1.6-8.2c8.3-15,26.2-20.9,41.9-24.7
				C193,106.9,191.7,102.1,188.6,102.8L188.6,102.8z"/>
		</g>
	</g>
	<g id="XMLID_35_" class="st9">
		<path id="XMLID_140_" class="st10" d="M348.2,92.8c-10.4,1.3-20.1,7.4-25.6,16.2c7.9-3,16.2-4.9,24.6-5.5
			c-7.2,5.2-14.4,10.3-21.6,15.5c-9.1,6.6-18.4,13.3-25.2,22.2c-6.7,9-10.6,20.7-7.5,31.4c4.8-0.4,7.3-5.7,9.2-10.1
			c12.5-28.9,41.6-50.2,73.3-53.6c7.3-0.8,14.8-0.7,21.9,1.3c11.6,3.2,21.2,11.1,30.5,18.8c18.7,15.5,38.1,32,47.1,54.3
			c2.1,0.9,4.5-1.3,4.8-3.5c0.3-2.3-0.7-4.5-1.6-6.6c-2.4-5.6-3.9-11.8-2.9-17.8c1.1-6,5.2-11.7,11.1-13.4c1.9-3.9-2.7-8-7-8.6
			c-4.3-0.6-8.9,0.6-13-0.8c-5.4-1.8-8.3-7.4-10.9-12.4c-10.3-19.3-27.6-37.8-49.7-38.5c-19.7-0.6-37.9,13.3-57.5,11.2"/>
	</g>
	<g id="XMLID_34_" class="st9">
		<path id="XMLID_141_" class="st10" d="M272.2,69.5c8.3-1.8,19.1-2.3,23.2,5.2c3.2,6-0.6,13.8-6.2,17.6c-5.6,3.9-12.6,5-19.2,7
			c-11.4,3.4-21.8,9.3-32,15.2c-4.7,2.7-9.5,5.4-13.2,9.3c-3.7,3.9-6.4,9.2-5.8,14.6c0.1,1.3,0.5,2.6,1.4,3.6
			c1.4,1.4,3.7,1.3,5.6,0.7c5.4-1.8,8.9-7.9,7.9-13.5c-0.2-1.3-0.7-2.7-0.2-3.9c0.4-1,1.4-1.8,2.3-2.4c19.2-12.8,44.2-14.9,63-28.2
			c6.1-4.3,11.8-11.1,10.2-18.3c-0.6-2.5-2-4.8-3.6-6.8c-7.3-9.3-18.9-14.9-30.7-15s-23.5,5.5-30.8,14.7c-1.3,1.6-2.5,4-1.4,5.7
			c0.8,1.3,2.6,1.6,4.1,1.5c5.3-0.2,10-3.4,14.8-5.6c4.8-2.3,11-3.5,15.2-0.2"/>
	</g>
	<path id="XMLID_46_" class="st11" d="M508.1,221.3c-2.8,2.7-4.4,6.4-6,9.9c-10.1,22.9-20.1,45.9-30.2,68.8
		c-3.6,8.3-7,18.7-1.2,25.6c3.6-3.2,10-0.5,11.9,3.9s0.7,9.6-1,14.2c-5.1,13.7-13.9,25.8-23.5,36.8c-31.9,36.5-73.8,64-120,78.6
		c10.2,6.3,23.5,2.5,34.6-2.1c45.8-19.2,86.1-51.1,115.5-91.1c5.6-7.7,11-15.9,13-25.1c2.1-9.3,0.2-19.9-6.8-26.4
		c-1.4-1.3-3-2.4-4-3.9c-3.1-4.7-0.5-10.9,2.1-15.9c12.4-24.5,20.7-51.1,24.3-78.4c0.4-2.8,0.3-6.4-2.3-7.5
		c-4.2,3.7-6.9,9.1-7.4,14.6L508.1,221.3z"/>
</g>
<g id="XMLID_2_" class="st12">
	<path id="XMLID_64_" class="st10" d="M275,491.8c6.2,2.6,9,10.5,15.3,12.8c1.9,0.7,3.9,0.7,5.9,0.6c5.7-0.5,11.2-3.2,15.1-7.4
		c2.5-2.7,4.5-6,7.4-8.4c5.4-4.4,13.6-4.3,19.7-0.9c2.8,1.6,5.4,4,6.3,7.1c0.6,2,0.5,4.1,0.1,6.1c-1.8,8.6-9.1,15.3-17.4,18.2
		c-8.3,2.9-17.4,2.6-26,1.1c-6-1-12.1-2.7-16.6-6.7c-5.8-5.3-7.7-13.5-9.3-21.3"/>
</g>
<g id="XMLID_3_" class="st9">
	<g id="XMLID_57_">
		<path id="XMLID_62_" class="st10" d="M569.9,370.3c-0.4,1.1-0.9,2.2-1.3,3.3c-0.5,1.2,0.5,2.8,1.7,3.1c1.4,0.3,2.6-0.4,3.1-1.7
			c0.4-1.1,0.9-2.2,1.3-3.3c0.5-1.2-0.5-2.8-1.7-3.1C571.6,368.3,570.4,369,569.9,370.3L569.9,370.3z"/>
	</g>
</g>
<g id="XMLID_4_" class="st12">
	<path id="XMLID_54_" class="st10" d="M537.3,449c-2.2-1.5-5.5,0.3-6.2,2.8c-0.7,2.6,0.6,5.3,2.3,7.3c1.7,2,3.9,3.6,5.7,5.6
		c6.7,7.6,5.2,20-1,27.9c-6.3,7.9-16.1,12.2-25.9,14.7c-6.2,1.6-13.1,3-16.9,8.1c20,4.7,42.3-2,56.3-17c2.2-2.4,4.3-5,5.5-8
		c3.3-7.5,1.3-16.5-3.1-23.5c-4.4-7-10.8-12.3-17.2-17.5"/>
</g>
</svg>
