<svg width="879" height="1059" viewBox="0 0 879 1059" fill="none" xmlns="http://www.w3.org/2000/svg">
<g clip-path="url(#clip0_6316_405)">
<path d="M380.331 785.96C398.636 770.072 412.467 752.236 421.459 732.944C428.937 717.077 433.02 699.823 433.448 682.286C433.875 664.75 430.637 647.318 423.941 631.104C409.555 595.82 379.624 566.705 343.881 553.225C311.434 540.987 282.722 541.452 258.539 554.589C235.593 567.061 223.266 588.02 217.959 599.404C214.892 605.822 212.591 612.578 211.104 619.534C205.981 645.978 214.795 683.752 256.458 703.171C288.371 718.045 315.518 703.383 325.845 681.228C332.55 666.842 331.783 650.594 323.791 637.76C322.21 635.208 319.867 633.218 317.093 632.071C314.319 630.923 311.255 630.677 308.333 631.366C306.233 631.864 304.272 632.83 302.598 634.192C300.923 635.554 299.579 637.277 298.664 639.232C297.97 640.728 297.537 642.332 297.381 643.973C296.886 648.191 295.77 652.312 294.071 656.204C292.716 659.111 291.098 661.136 289.844 661.5C288.311 661.943 284.47 661.101 278.638 657.414C268.254 650.752 268.319 637.441 272.771 627.89C273.378 626.587 274.077 625.33 274.862 624.126C275.083 623.787 275.301 623.457 275.539 623.125L275.6 622.996C275.785 622.734 275.982 622.468 276.213 622.176L276.246 622.107C276.472 621.802 276.716 621.505 276.927 621.255L276.971 621.16L277.643 620.42L277.695 620.308L278.401 619.584L278.521 619.461C278.771 619.219 279.017 618.986 279.262 618.753L279.408 618.621L280.104 618.008L280.284 617.871L281.045 617.278L281.175 617.18C281.417 616.999 281.656 616.826 281.882 616.678L282.113 616.523C282.348 616.358 282.595 616.21 282.864 616.041L283.066 615.924C283.301 615.781 283.532 615.647 283.768 615.525L284.033 615.385C284.26 615.259 284.496 615.138 284.74 615.02L285.031 614.892C285.263 614.779 285.5 614.679 285.723 614.583L286.036 614.455C286.268 614.363 286.488 614.276 286.737 614.192L287.076 614.076L287.719 613.871L288.13 613.757C288.359 613.695 288.592 613.624 288.804 613.576L289.216 613.484L289.904 613.341L290.337 613.269L291.018 613.165L291.512 613.121C291.737 613.09 291.959 613.067 292.197 613.051L292.781 613.018C292.986 613.008 293.191 612.999 293.391 612.997L294.105 613.003L294.66 613.009L295.46 613.056C295.622 613.068 295.789 613.072 295.939 613.089L296.83 613.189C296.988 613.21 297.151 613.223 297.305 613.253L298.283 613.414L298.712 613.487C298.834 613.544 298.979 613.548 299.112 613.579L299.752 613.719C299.882 613.78 300.04 613.779 300.182 613.814C300.324 613.849 300.479 613.9 300.621 613.934L301.331 614.128C301.452 614.185 301.564 614.237 301.701 614.238C301.837 614.238 302.024 614.336 302.187 614.391L302.942 614.648C303.054 614.7 303.167 614.753 303.288 614.809C303.409 614.865 303.643 614.974 303.816 615.055L304.925 615.477C305.132 615.574 305.34 615.671 305.547 615.767L306.637 616.275C306.88 616.388 307.131 616.505 307.381 616.622L308.445 617.118C308.791 617.279 309.138 617.441 309.46 617.675L310.301 618.13C310.93 618.497 311.573 618.881 312.207 619.282C343.86 639.143 355.798 672.813 343.373 707.152C343.039 708.05 342.736 708.856 342.393 709.728C341.715 711.455 340.955 713.197 340.129 714.991C336.084 723.507 331.036 731.508 325.092 738.826C317.065 748.663 307.966 757.574 297.965 765.397C296.749 766.357 295.559 767.329 294.369 768.322L293.255 769.267C292.462 769.95 291.67 770.634 290.923 771.265L289.993 772.085L289.614 772.424C288.93 773.032 288.243 773.649 287.577 774.265L286.431 775.321L286.231 775.502L284.338 777.305L283.007 778.601L281.207 780.384L279.911 781.696L278.159 783.512L276.931 784.814L275.219 786.68L275.016 786.912C274.697 787.258 274.377 787.604 274.079 787.95C273.491 788.602 272.916 789.272 272.353 789.915L271.327 791.1L269.466 793.329L268.685 794.281C266.963 796.395 265.272 798.577 263.658 800.752L263.127 801.484C262.51 802.312 261.905 803.157 261.322 803.98L260.57 805.051L259.05 807.249L258.275 808.415L256.898 810.511L256.116 811.737L254.827 813.779L254.067 815.025L252.822 817.109L252.133 818.294L250.915 820.433L250.284 821.56C249.869 822.315 249.455 823.069 249.073 823.797L248.529 824.807C248.126 825.672 247.645 826.501 247.215 827.354L246.901 828.028C246.043 829.734 245.21 831.452 244.428 833.131L243.65 834.8L242.303 837.848L241.984 838.531L240.93 841.02L240.57 841.905L239.651 844.215L239.392 845.2L238.553 847.43L238.203 848.383L237.405 850.592L237.069 851.562L236.302 853.795L236.026 854.635L235.255 857.034L235.052 857.698L234.257 860.307L234.136 860.725C233.257 863.716 232.44 866.758 231.703 869.784L231.642 870.051L231.022 872.668L230.908 873.184C230.737 873.957 230.562 874.718 230.404 875.486L230.264 876.148L229.827 878.282L229.692 878.956L229.3 881.016L229.174 881.716L228.815 883.707L228.705 884.372L228.362 886.486L228.285 886.967L227.951 889.243L227.907 889.497C227.56 891.957 227.24 894.451 226.987 896.892L226.978 897.046L226.771 899.118L226.735 899.533L226.568 901.361L226.408 903.467L226.276 905.511L226.144 907.556L226.055 909.441L225.985 911.378L225.932 913.365C225.908 914.48 225.902 915.53 225.908 916.512L225.916 917.896L225.93 919.176L225.961 920.444L226.023 922.41L226.096 923.497C226.101 924.975 226.238 926.448 226.507 927.901C227.225 931.505 229.3 934.696 232.305 936.812C235.31 938.928 239.013 939.807 242.649 939.268C244.993 938.921 247.215 937.997 249.114 936.58C251.014 935.162 252.532 933.295 253.532 931.146C254.581 928.882 255.02 926.382 254.805 923.895L254.783 923.695L254.722 922.719L254.743 922.244L254.781 921.756L254.851 921.199L254.929 920.625L255.069 919.806L255.208 919.123C256.174 914.909 257.618 910.82 259.51 906.933C268.099 888.507 295.088 848.383 379.378 786.716C379.722 786.476 380.027 786.229 380.331 785.96Z" fill="#231F20"/>
<path d="M561.344 561.129C561.53 557.003 561.653 552.786 561.667 548.643C561.75 536.184 561.102 523.73 559.728 511.347C558.821 503.194 557.583 494.983 556.047 486.938C555.283 482.928 554.434 478.899 553.523 474.957C549.065 455.479 542.63 436.506 534.318 418.335C529.515 407.844 523.996 397.697 517.799 387.964C514.76 383.188 511.489 378.504 508.156 374.087C505.918 371.117 503.587 368.187 501.235 365.396C498.882 362.604 496.401 359.815 493.921 357.185C492.672 355.865 491.389 354.551 490.099 353.297C485.007 348.2 479.599 343.428 473.907 339.011C466.889 333.541 459.403 328.698 451.536 324.54C449.985 323.733 448.395 322.918 446.664 322.069C446.292 321.896 445.929 321.726 445.565 321.557L445.046 321.315C443.948 320.803 442.84 320.287 441.742 319.775C441.283 319.561 440.833 319.351 440.375 319.138L439.847 318.892C438.844 318.424 437.849 317.96 436.826 317.557C436.272 317.299 435.727 317.045 435.154 316.851L434.817 316.694C433.856 316.247 432.856 315.886 431.88 315.494C431.214 315.183 430.511 314.951 429.842 314.692C428.863 314.309 427.879 313.934 426.899 313.573C426.226 313.322 425.541 313.076 424.872 312.838C423.869 312.476 422.864 312.124 421.859 311.781L421.616 311.668L419.923 311.1C418.871 310.757 417.816 310.423 416.752 310.085L416.261 309.941C415.822 309.799 415.391 309.662 414.965 309.537C413.785 309.176 412.602 308.846 411.422 308.507C411.422 308.507 410.325 308.195 409.998 308.106C408.363 307.66 406.737 307.239 405.216 306.867L405.06 306.794C403.388 306.383 401.656 305.987 399.925 305.612L399.358 305.495C397.876 305.173 396.403 304.876 394.931 304.601C394.643 304.54 393.682 304.366 393.682 304.366C392.429 304.14 391.172 303.922 389.939 303.674C389.588 303.616 388.486 303.45 388.486 303.45C387.288 303.263 386.096 303.087 384.91 302.92C384.464 302.86 383.419 302.731 383.419 302.731C382.227 302.576 381.041 302.433 379.859 302.303L378.411 302.155C377.195 302.031 375.975 301.915 374.768 301.816L373.437 301.711C372.136 301.61 370.828 301.548 369.54 301.464L368.514 301.407C367.03 301.337 365.539 301.284 363.988 301.245L363.616 301.23C356.913 301.079 350.206 301.289 343.526 301.859L343.231 301.88C341.694 302.016 340.161 302.165 338.603 302.344L338.139 302.391C336.655 302.563 335.192 302.748 333.751 302.947L333.211 303.022C331.731 303.238 330.268 303.462 328.785 303.707L328.385 303.774C326.851 304.038 325.313 304.311 323.784 304.609L323.635 304.635C269.639 315.27 224.254 349.811 202.194 397.14C180.823 442.989 191.234 474.378 203.734 492.631C219.378 515.549 244.249 527.142 252.415 530.948C268.342 538.371 285.861 539.914 301.756 535.296C315.574 531.27 334.846 520.466 348.201 491.815C357.677 471.485 354.639 456.222 350.423 446.991C340.433 425.138 316.213 417.683 313.48 416.904C310.735 416.122 307.819 416.179 305.107 417.067C302.395 417.955 300.009 419.634 298.258 421.887C297.599 422.737 297.036 423.658 296.578 424.632C295.603 426.724 295.149 429.02 295.253 431.326C295.357 433.632 296.017 435.878 297.177 437.874C297.253 438.004 304.473 451.341 299.167 462.726C298.462 464.231 297.586 465.649 296.555 466.952C295.342 468.493 288.353 468.395 280.574 463.621C278.364 462.264 259.276 449.808 268.272 430.508C274.473 417.203 289.656 405.82 308.892 400.065C340.581 390.615 377.722 396.849 410.739 417.24C447.531 439.97 465.866 482.213 474.732 513.64C485.599 552.139 488.405 596.884 482.261 633.246C479.211 651.085 472.877 670.277 462.816 691.861C438.49 744.052 396.212 800.87 358.981 851.016C358.406 851.788 357.911 852.615 357.503 853.486C356.189 856.241 355.791 859.344 356.366 862.342C356.941 865.34 358.459 868.075 360.698 870.15C363.285 872.548 366.667 873.906 370.194 873.964C373.721 874.023 377.146 872.777 379.811 870.465C380.741 869.667 402.803 850.507 431.838 818.171C433.797 816.002 435.785 813.769 437.803 811.473C440.925 807.916 444.033 804.321 447.005 800.767C448.056 799.537 449.102 798.294 450.143 797.039C454.481 791.868 458.789 786.579 462.949 781.336C468.528 774.291 474.01 767.116 479.216 759.991C481.406 757.011 483.598 753.978 485.731 750.961L488.939 746.338C491.087 743.243 493.25 740.07 495.375 736.912C510.977 713.815 524.783 689.556 536.674 664.348C551.296 633.159 559.577 598.425 561.344 561.129Z" fill="#231F20"/>
<path d="M627.778 153.191C611.365 158.063 596.18 166.381 583.235 177.587C570.291 188.793 559.885 202.631 552.713 218.177C534.056 258.205 534.966 306.837 555.418 362.724C572.086 408.297 598.039 449.763 617.036 480.057C623.066 489.712 628.304 498.062 632.078 504.717C653.41 542.407 644.405 607.679 606.72 688.53C596.608 710.34 585.2 731.526 572.558 751.974C572.215 752.512 571.908 753.073 571.639 753.651C570.299 756.535 569.957 759.782 570.667 762.882C571.377 765.981 573.098 768.756 575.56 770.769C578.278 772.991 581.719 774.136 585.227 773.986C588.735 773.837 592.066 772.404 594.586 769.96C594.798 769.753 599.855 764.823 607.801 756.112C609.993 753.669 612.31 751.137 614.579 748.551C617.647 745.064 620.704 741.487 623.685 737.916L626.487 734.547C628.925 731.576 631.391 728.545 633.771 725.495L636.782 721.633C638.831 718.976 640.9 716.255 642.926 713.535C646.167 709.18 649.33 704.789 652.324 700.488L653.901 698.211C654.948 696.688 656.003 695.147 657.045 693.59C658.087 692.033 659.141 690.449 660.19 688.854C662.874 684.745 665.489 680.625 667.953 676.582C668.958 674.944 669.991 673.203 671.003 671.506C674.108 666.245 677.083 660.946 679.84 655.754L681.265 653.059C683.686 648.407 686.012 643.688 688.133 639.138C689.875 635.401 691.543 631.64 693.094 627.951L694.288 625.074C696.696 619.184 698.882 613.274 700.783 607.525C701.441 605.547 702.082 603.54 702.681 601.555C704.854 594.407 706.669 587.26 708.075 580.313C708.484 578.26 708.871 576.187 709.221 574.149C709.57 572.111 709.888 570.006 710.169 567.957C710.45 565.909 710.712 563.788 710.959 561.744C711.206 559.7 711.356 557.549 711.492 555.495C711.712 552.334 711.843 549.162 711.877 546.061C711.897 543.964 711.881 541.85 711.857 539.733L711.74 536.572C711.609 533.352 711.352 530.199 711.019 527.096C709.645 514.184 706.513 501.522 701.709 489.459C697.545 479.031 693.179 468.54 688.367 457.378C686.907 453.981 685.458 450.652 684.013 447.357C678.899 435.737 673.992 424.847 669.42 414.797L663.581 401.977L659.862 393.778C658.044 389.772 656.287 385.853 654.59 382.023C653.461 379.475 652.364 376.973 651.297 374.517L649.715 370.863C648.09 367.073 646.641 363.607 645.295 360.283C641.86 351.838 639.13 344.479 636.974 337.808C636.325 335.789 635.681 333.805 635.164 331.931C631.764 320.227 630.149 310.271 630.22 301.511C630.234 299.353 630.36 297.198 630.598 295.053C630.83 292.989 631.177 290.939 631.637 288.914C631.934 287.578 632.294 286.24 632.702 284.935C632.898 284.289 633.115 283.643 633.349 282.983C633.923 281.344 634.595 279.699 635.345 278.09C636.095 276.481 636.959 274.83 637.906 273.229C644.406 262.106 651.699 253.711 659.586 248.268L660.84 247.431C662.823 246.149 664.904 245.024 667.062 244.066C685.865 235.739 706.24 243.603 720.075 251.695C743.692 265.504 746.23 290.106 740.505 302.391C740.187 303.073 739.835 303.738 739.449 304.384C731.336 317.882 711.306 333.767 699.64 326.897C692.106 322.501 680.215 313.515 685.19 302.839C685.424 302.338 685.67 301.81 685.998 301.31C686.229 300.924 686.439 300.526 686.627 300.118C687.994 297.178 688.322 293.862 687.558 290.711C686.794 287.56 684.984 284.762 682.423 282.774C679.679 280.643 676.255 279.582 672.787 279.789C669.32 279.996 666.046 281.456 663.576 283.898C657.41 290.306 652.334 297.679 648.547 305.726C635.048 334.689 644.8 362.001 675.313 380.646C698.427 394.768 723.9 394.721 748.985 380.508C771.862 367.573 788.005 346.223 793.901 337.641C797.075 333.012 799.858 328.128 802.223 323.039C813.441 298.972 815.657 269.909 808.302 243.283C800.097 214.035 780.961 189.062 754.854 173.533C712.969 148.218 667.842 141 627.778 153.191Z" fill="#231F20"/>
<path d="M311.647 645.316C326.768 669.602 301.319 708.275 262.511 690.187C223.703 672.098 222.203 637.565 225.168 622.236C228.989 602.514 258.063 536.14 338.839 566.598C415.034 595.341 457.982 699.571 370.957 775.147C230.882 877.626 240.573 925.086 240.573 925.086C240.573 925.086 231.924 836.17 307.03 776.541C382.136 716.912 376.076 642.345 319.968 607.084C267.906 574.394 234.487 646.092 270.895 669.443C307.303 692.794 311.647 645.316 311.647 645.316Z" fill="#71C8B7"/>
<path d="M310.954 795.302C380.658 744.981 401.627 706.747 393.751 666.125C383.747 614.57 352.143 596.186 326.678 588.623C326.678 588.623 283.446 569.273 262.914 616.304C273.444 600.151 294.482 591.097 320 607.108C376.081 642.314 382.141 716.924 307.027 776.549C238.636 830.852 239.678 909.43 240.423 923.036C240.452 920.72 240.719 918.413 241.22 916.152C243.694 893.991 255.423 835.391 310.954 795.302Z" fill="#B7E1D9"/>
<path d="M240.422 923.035C240.409 923.724 240.458 924.413 240.568 925.093C240.568 925.093 240.493 924.374 240.422 923.035Z" fill="#B7E1D9"/>
<path d="M370.44 859.644C370.44 859.644 470.306 773.056 523.781 658.328C577.256 543.6 535.129 384.564 444.926 337.255C353.328 289.191 251.412 325.572 215.175 403.317C180.562 477.577 236.362 507.829 258.456 518.127C280.551 528.425 315.56 528.095 335.217 485.922C354.874 443.749 309.567 430.792 309.567 430.792C309.567 430.792 323.905 455.45 307.815 475.919C291.724 496.387 236.784 464.314 255.316 424.555C273.848 384.795 347.309 361.319 418.29 405.155C489.272 448.991 508.573 563.649 496.344 635.725C484.5 705.665 426.17 784.676 370.44 859.644Z" fill="#B7E1D9"/>
<path d="M444.891 337.217C394.175 310.608 340.31 309.89 296.179 327.735C366.313 333.152 451.052 323.051 511.676 482.347C578.883 658.854 370.44 859.643 370.44 859.643C370.44 859.643 470.306 773.056 523.781 658.327C577.256 543.599 535.164 384.601 444.891 337.217Z" fill="#71C8B7"/>
<path d="M673.561 294.197C664.169 310.258 671.514 327.192 692.323 339.366C713.132 351.54 740.29 330.733 751.65 311.829C763.458 292.187 757.711 257.232 727.257 239.384C696.804 221.535 655.597 214.649 625.489 266.051C595.38 317.453 641.06 376.601 688.39 494.834C735.72 613.068 584.625 759.704 584.625 759.704C584.625 759.704 695.235 587.259 644.538 497.688C616.905 448.847 519.945 322.37 565.69 224.226C594.105 163.263 671.862 140.104 747.466 185.748C802.989 219.304 810.461 288.243 782.037 329.615C764.907 354.527 725.14 394.435 682.722 368.504C630.578 336.691 673.561 294.197 673.561 294.197Z" fill="#B7E1D9"/>
<path d="M688.352 494.847C641.048 376.625 595.407 317.484 625.451 266.063C655.494 214.641 696.733 221.574 727.22 239.396C727.22 239.396 672.125 180.724 609.855 238.818C550.703 293.994 634.089 424.042 669.719 509.497C708.588 602.663 584.625 759.702 584.625 759.702C584.625 759.702 735.652 613.077 688.352 494.847Z" fill="#71C8B7"/>
<path d="M763.363 213.09C766.158 207.094 754.759 195.865 737.903 188.008C721.047 180.151 705.117 178.643 702.322 184.639C699.527 190.635 710.926 201.865 727.782 209.722C744.638 217.578 760.568 219.087 763.363 213.09Z" fill="white"/>
<path d="M693.735 183.069C695.802 178.635 693.883 173.366 689.449 171.299C685.016 169.233 679.746 171.152 677.679 175.585C675.613 180.019 677.532 185.289 681.966 187.355C686.399 189.422 691.669 187.503 693.735 183.069Z" fill="white"/>
<path d="M588.79 232.812C593.865 221.924 594.219 211.344 589.58 209.182C584.94 207.019 577.065 214.093 571.99 224.982C566.915 235.87 566.562 246.45 571.201 248.613C575.84 250.775 583.715 243.701 588.79 232.812Z" fill="white"/>
<path d="M462.756 370.934C466.232 363.476 456.525 351.591 441.073 344.389C425.622 337.188 410.278 337.395 406.802 344.853C403.326 352.311 413.034 364.196 428.485 371.398C443.936 378.599 459.28 378.392 462.756 370.934Z" fill="white"/>
<path d="M399.276 341.345C401.75 336.036 399.453 329.728 394.145 327.254C388.837 324.779 382.528 327.077 380.054 332.385C377.58 337.693 379.877 344.002 385.185 346.476C390.493 348.95 396.802 346.653 399.276 341.345Z" fill="white"/>
<path d="M232.635 432.964C236.918 418.136 235.927 404.826 230.422 403.236C224.917 401.646 216.983 412.378 212.7 427.206C208.417 442.034 209.408 455.344 214.913 456.934C220.418 458.524 228.352 447.792 232.635 432.964Z" fill="white"/>
<path d="M227.399 469.964C228.833 466.887 227.502 463.23 224.425 461.796C221.348 460.362 217.691 461.694 216.257 464.771C214.823 467.847 216.154 471.504 219.231 472.939C222.308 474.373 225.965 473.041 227.399 469.964Z" fill="white"/>
<path d="M402.799 635.383C397.634 625.325 388.985 619.462 383.479 622.289C377.974 625.116 377.698 635.561 382.863 645.62C388.028 655.678 396.678 661.54 402.183 658.714C407.688 655.887 407.964 645.441 402.799 635.383Z" fill="white"/>
<path d="M377.881 619.228C379.529 615.693 377.999 611.491 374.463 609.843C370.928 608.195 366.726 609.725 365.078 613.26C363.43 616.796 364.96 620.998 368.495 622.646C372.031 624.294 376.233 622.764 377.881 619.228Z" fill="white"/>
<path d="M247.163 624.852C249 616.296 246.541 608.513 241.671 607.467C236.801 606.421 231.363 612.509 229.526 621.064C227.689 629.619 230.147 637.403 235.018 638.448C239.888 639.494 245.326 633.407 247.163 624.852Z" fill="white"/>
</g>
<defs>
<clipPath id="clip0_6316_405">
<rect width="913.958" height="542.679" fill="white" transform="translate(0.84375 829.152) rotate(-65.0096)"/>
</clipPath>
</defs>
</svg>
