<svg width="1608" height="879" viewBox="0 0 1608 879" fill="none" xmlns="http://www.w3.org/2000/svg">
<g clip-path="url(#clip0_5667_286)">
<path d="M1227.06 768.68C1405.29 768.68 1549.78 755.647 1549.78 739.57C1549.78 723.493 1405.29 710.46 1227.06 710.46C1048.83 710.46 904.34 723.493 904.34 739.57C904.34 755.647 1048.83 768.68 1227.06 768.68Z" fill="#D0D2D3"/>
<path d="M1598.84 571.23C1593.84 566.59 1585.97 561.59 1575 556.04C1578.53 528.59 1568.17 490.66 1512.94 448.45L1499.35 438.08C1464.41 411.39 1443.58 395.48 1430.25 383.81L1430.14 382.52C1429.79 378.59 1429.63 376.07 1429.57 375.2C1429.57 366.48 1429.49 357.81 1429.33 349.42V349.31C1427.51 254.78 1414.62 189.18 1388.77 142.87C1372.94 114.52 1351.71 92.77 1325.66 78.23C1298.03 62.82 1264.04 55 1224.66 55C1182.66 55 1146.87 63.6597 1118.32 80.7397C1091.61 96.7397 1070.32 120.64 1054.93 151.82C1023.78 215.1 1019.73 304.37 1019.71 375.19C1019.63 376.45 1019.33 381.07 1018.58 388.37C1005.14 399.64 985.451 414.68 954.911 438L941.23 448.45C886 490.66 875.63 528.59 879.17 556.04C868.17 561.59 860.35 566.59 855.33 571.23C847.07 578.84 846.46 585.86 847.33 590.34C848.61 597.52 854.59 605.29 867.85 605.29C868.69 605.29 869.98 605.29 871.94 605.11C869.68 612.48 871.361 617.66 873.371 620.85C874.96 623.479 877.214 625.643 879.905 627.126C882.595 628.61 885.629 629.359 888.701 629.3C893.181 629.3 898.351 627.99 906.451 623.08C907.548 627.05 910.115 630.454 913.63 632.6C916.451 634.437 919.744 635.417 923.11 635.42C931.11 635.42 937.29 630.5 943.22 622.48L944.64 622.75L945.79 622.97L947.18 623.2L947.64 623.28L948.73 623.45L950.09 623.63L950.621 623.69L951.621 623.82L953.26 623.98H953.65L954.52 624.06C955.52 624.14 956.43 624.2 957.4 624.25H958.17L960.26 624.32H963.14H964.08H964.531H965.991L966.991 624.27H967.18L968.79 624.17C969.15 624.17 969.51 624.11 969.86 624.08H970.05L971.63 623.93L972.411 623.84C971.033 630.797 970.065 637.829 969.51 644.9C969.51 644.9 969.51 645.29 969.51 645.29C969.4 646.9 969.31 648.52 969.25 650.06V650.48C969.068 655.274 969.148 660.075 969.491 664.86V665.19C969.611 666.64 969.75 668.12 969.93 669.62V669.96C970.458 674.414 971.287 678.828 972.411 683.17L972.48 683.42C972.83 684.76 973.22 686.11 973.65 687.42C973.65 687.42 973.721 687.67 973.741 687.72C974.611 690.44 975.601 693.1 976.741 695.63L976.8 695.76C977.32 696.97 977.89 698.19 978.52 699.45C978.52 699.45 978.681 699.79 978.701 699.82C979.301 701.01 979.93 702.2 980.57 703.32L980.75 703.63C982.113 706.018 983.601 708.331 985.21 710.56L985.281 710.66C986.031 711.66 986.83 712.74 987.75 713.88L987.951 714.13C988.771 715.13 989.64 716.13 990.51 717.13L990.741 717.38C992.562 719.386 994.484 721.299 996.5 723.11L996.62 723.21C997.62 724.07 998.62 724.92 999.75 725.88L999.98 726.06C1000.98 726.89 1002.06 727.7 1003.16 728.5L1003.38 728.66C1005.56 730.24 1007.85 731.76 1010.21 733.17L1010.4 733.28C1011.51 733.94 1012.69 734.61 1013.93 735.28L1014.3 735.48C1015.49 736.12 1016.69 736.73 1017.84 737.29L1018.21 737.47C1020.71 738.68 1023.33 739.83 1025.95 740.86L1026.18 740.95C1027.41 741.44 1028.73 741.95 1030.12 742.43L1030.54 742.58C1031.84 743.03 1033.16 743.47 1034.54 743.89L1034.96 744.02C1037.72 744.89 1040.59 745.69 1043.53 746.43L1043.75 746.48C1045.16 746.83 1046.58 747.16 1048.02 747.48L1048.55 747.59C1049.96 747.9 1051.4 748.19 1052.83 748.47L1053.32 748.56C1056.32 749.12 1059.42 749.63 1062.59 750.07H1062.9C1064.42 750.27 1065.9 750.47 1067.48 750.65L1068.11 750.72C1069.63 750.89 1071.17 751.05 1072.75 751.2L1073.27 751.25C1076.5 751.55 1079.83 751.79 1083.18 751.97H1083.61C1085.23 752.05 1086.86 752.12 1088.53 752.18H1089.22C1090.85 752.23 1092.49 752.28 1094.16 752.31H1094.76C1096.62 752.31 1098.49 752.31 1100.38 752.31H1105.31H1105.85C1107.56 752.31 1109.29 752.25 1111.05 752.2H1111.84C1113.57 752.2 1115.3 752.09 1117.06 752.01H1117.77L1123.21 751.74H1123.29C1125.14 751.64 1127.02 751.52 1128.9 751.39L1129.56 751.34C1131.36 751.22 1133.17 751.08 1135 750.93L1135.93 750.85L1141.41 750.37L1142.21 750.3C1144.13 750.12 1146.06 749.926 1148.01 749.72H1148.09C1150.03 749.52 1151.98 749.307 1153.95 749.08L1154.68 749L1160.49 748.3L1161.4 748.18L1167.17 747.43L1168.03 747.31C1170.03 747.037 1172.06 746.753 1174.11 746.46H1174.18C1176.18 746.17 1178.26 745.86 1180.29 745.55L1181.16 745.42C1183.16 745.12 1185.16 744.8 1187.11 744.48L1188.22 744.3C1190.22 743.98 1192.22 743.65 1194.22 743.3L1195.15 743.14L1201.57 742.03L1207.94 740.87L1208.94 740.69L1215.11 739.52L1216.33 739.29L1222.56 738.06L1223.56 737.87L1230.15 736.53C1244.98 733.47 1258.96 729.92 1271.76 725.96L1276.39 726.76L1277.34 726.92L1283.34 727.92L1284.45 728.1L1290.45 729.04L1291.29 729.17L1297.39 730.07H1297.5C1299.5 730.36 1301.56 730.65 1303.56 730.92L1304.44 731.04L1310.21 731.79L1311.21 731.91L1316.92 732.6L1317.69 732.69C1319.69 732.91 1321.61 733.13 1323.54 733.33H1323.65C1325.58 733.54 1327.5 733.72 1329.4 733.9L1330.2 733.98L1335.68 734.46L1336.61 734.54C1338.44 734.69 1340.25 734.82 1342.05 734.95H1342.7L1348.24 735.31H1348.33C1350.19 735.42 1352.02 735.51 1353.84 735.59H1354.55C1356.31 735.67 1358.04 735.73 1359.75 735.78H1360.59L1365.74 735.9H1366.3C1367.96 735.9 1369.6 735.9 1371.23 735.9C1373.12 735.9 1374.99 735.9 1376.85 735.9H1377.46C1379.12 735.9 1380.76 735.83 1382.36 735.77H1383.11C1384.75 735.71 1386.38 735.64 1387.98 735.55H1388.43C1391.79 735.36 1395.12 735.12 1398.33 734.83H1398.88C1400.44 734.677 1401.98 734.517 1403.5 734.35L1404.12 734.27C1405.67 734.09 1407.2 733.9 1408.73 733.69L1409.05 733.64C1412.19 733.2 1415.29 732.7 1418.26 732.14L1418.76 732.05C1420.21 731.77 1421.65 731.48 1423.05 731.17L1423.59 731.05C1425.03 730.74 1426.46 730.41 1427.87 730.05L1428.12 729.99C1431.02 729.26 1433.89 728.46 1436.67 727.58L1437.06 727.46C1438.4 727.04 1439.72 726.6 1441.06 726.13L1441.49 725.98C1442.89 725.48 1444.17 724.98 1445.49 724.49H1445.6C1448.26 723.44 1450.87 722.29 1453.45 721.05L1453.72 720.91C1454.93 720.32 1456.14 719.71 1457.3 719.08L1457.67 718.88C1458.93 718.2 1460.08 717.55 1461.19 716.88L1461.37 716.77C1463.73 715.36 1466.02 713.84 1468.25 712.23L1468.5 712.05C1469.56 711.27 1470.61 710.47 1471.59 709.67L1471.83 709.48L1471.92 709.41C1473.01 708.52 1474.01 707.67 1474.98 706.8L1475.11 706.68C1477.12 704.882 1479.03 702.983 1480.84 700.99L1481.08 700.72C1481.96 699.72 1482.82 698.72 1483.63 697.72L1483.87 697.43C1484.75 696.34 1485.55 695.3 1486.36 694.17L1486.43 694.08C1488.02 691.866 1489.49 689.573 1490.85 687.21L1491.01 686.94C1491.66 685.78 1492.3 684.59 1492.85 683.48L1493.05 683.07C1493.69 681.78 1494.26 680.56 1494.8 679.32C1495.93 676.672 1496.94 673.968 1497.8 671.22L1497.87 670.98C1498.29 669.67 1498.67 668.32 1499.03 666.98L1499.12 666.64C1500.23 662.327 1501.05 657.943 1501.58 653.52C1501.58 653.52 1501.58 653.17 1501.58 653.17C1501.75 651.72 1501.9 650.24 1502.02 648.68V648.39C1502.36 643.588 1502.44 638.771 1502.26 633.96V633.65C1502.19 632.08 1502.1 630.46 1501.98 628.82V628.45C1501.86 626.96 1501.73 625.45 1501.57 623.91L1502.57 623.81L1503.57 623.68L1504.1 623.62L1505.48 623.43L1506.57 623.26L1507.03 623.19L1508.41 622.96L1509.56 622.74L1510.97 622.47C1516.91 630.47 1523.11 635.41 1531.09 635.41C1534.46 635.404 1537.75 634.424 1540.57 632.59C1544.08 630.44 1546.65 627.038 1547.75 623.07C1555.85 627.98 1561.02 629.29 1565.49 629.29C1568.56 629.351 1571.6 628.602 1574.29 627.119C1576.98 625.636 1579.24 623.47 1580.83 620.84C1582.83 617.65 1584.52 612.47 1582.25 605.1C1584.25 605.28 1585.51 605.28 1586.35 605.28C1599.61 605.28 1605.59 597.51 1606.87 590.33C1607.71 585.86 1607.1 578.84 1598.84 571.23Z" fill="#231F20"/>
<path d="M1428.3 465.65C1416.49 412.26 1414.62 375.65 1414.62 375.65C1414.62 204.01 1385.83 70.0303 1224.62 70.0303C1061.17 70.0303 1034.67 204.03 1034.67 375.65C1034.67 375.65 1032.8 412.29 1020.99 465.65C1001.24 554.99 1028.59 671.881 1224.62 682.521C1420.65 671.921 1448 554.99 1428.3 465.65Z" fill="#CBA984"/>
<path d="M1348.88 320.75C1346.88 322.237 1344.84 323.667 1342.75 325.04C1311.04 345.71 1265.03 353.81 1224.62 357.77C1184.21 353.77 1138.2 345.71 1106.49 325.04C1104.38 323.674 1102.33 322.243 1100.36 320.75C1078.41 304.24 1064.99 280.57 1068.1 246.38C1068.37 243.47 1068.71 240.65 1069.1 237.92C1069.89 232.789 1071.03 227.72 1072.53 222.75C1091.01 161.49 1155.43 156.94 1188.11 171.92C1224.58 188.64 1224.58 184.08 1224.58 184.08C1224.58 184.08 1224.58 188.64 1261.05 171.92C1293.73 156.92 1358.15 161.49 1376.63 222.75C1378.13 227.72 1379.27 232.789 1380.06 237.92C1380.49 240.65 1380.83 243.47 1381.06 246.38C1384.3 280.57 1370.83 304.24 1348.88 320.75Z" fill="#F7E7D6"/>
<path d="M1106.49 325.04C1104.38 323.674 1102.33 322.244 1100.36 320.75C1078.41 304.24 1064.99 280.57 1068.1 246.38C1068.37 243.47 1068.71 240.65 1069.1 237.92C1069.89 232.79 1071.03 227.721 1072.53 222.75C1102.12 200.42 1145.53 179.2 1179.34 210.54C1220.3 248.44 1156.15 296.3 1106.49 325.04Z" fill="#7F654A"/>
<path d="M1348.88 320.75C1346.88 322.237 1344.84 323.667 1342.75 325.04C1293.09 296.3 1228.94 248.44 1269.86 210.54C1303.71 179.2 1347.08 200.42 1376.67 222.75C1378.17 227.721 1379.31 232.79 1380.1 237.92C1380.53 240.65 1380.87 243.47 1381.1 246.38C1384.3 280.57 1370.83 304.24 1348.88 320.75Z" fill="#7F654A"/>
<path d="M1224.62 277.39C1236.95 277.39 1246.95 271.856 1246.95 265.03C1246.95 258.204 1236.95 252.67 1224.62 252.67C1212.29 252.67 1202.29 258.204 1202.29 265.03C1202.29 271.856 1212.29 277.39 1224.62 277.39Z" fill="#7F654A"/>
<path d="M1165 229.57C1165.94 234.961 1165.6 240.498 1164 245.73C1162.36 251.147 1159.55 256.142 1155.79 260.371C1151.94 264.683 1147.22 268.129 1141.94 270.48C1140.59 271.02 1139.25 271.571 1137.87 272.041C1136.49 272.511 1135.08 272.85 1133.66 273.18C1132.24 273.51 1130.79 273.661 1129.35 273.851L1124.99 274.09L1120.63 273.84C1119.19 273.65 1117.75 273.41 1116.32 273.17C1114.89 272.93 1113.51 272.42 1112.11 272.03C1110.71 271.64 1109.39 271.03 1108.05 270.47C1102.77 268.121 1098.05 264.675 1094.2 260.36C1090.44 256.134 1087.64 251.143 1085.99 245.73C1084.39 240.498 1084.05 234.961 1084.99 229.57C1085.9 234.635 1087.61 239.521 1090.07 244.041C1092.43 248.325 1095.52 252.163 1099.21 255.38C1106.34 261.643 1115.51 265.096 1125.01 265.096C1134.5 265.096 1143.67 261.643 1150.8 255.38C1154.48 252.167 1157.57 248.332 1159.93 244.05C1162.39 239.527 1164.1 234.638 1165 229.57V229.57Z" fill="#231F20"/>
<path d="M1364.3 229.57C1365.24 234.961 1364.9 240.498 1363.3 245.73C1361.66 251.147 1358.85 256.142 1355.09 260.371C1351.24 264.683 1346.52 268.129 1341.24 270.48C1339.89 271.02 1338.55 271.571 1337.17 272.041C1335.79 272.511 1334.38 272.85 1332.96 273.18C1331.54 273.51 1330.09 273.661 1328.65 273.851L1324.29 274.09L1319.93 273.84C1318.49 273.65 1317.05 273.41 1315.62 273.17C1314.19 272.93 1312.81 272.42 1311.41 272.03C1310.01 271.64 1308.69 271.03 1307.35 270.47C1302.07 268.121 1297.35 264.675 1293.5 260.36C1289.74 256.134 1286.94 251.143 1285.29 245.73C1283.69 240.498 1283.35 234.961 1284.29 229.57C1285.2 234.635 1286.91 239.521 1289.37 244.041C1291.73 248.323 1294.83 252.161 1298.51 255.38C1305.64 261.643 1314.81 265.096 1324.31 265.096C1333.8 265.096 1342.97 261.643 1350.1 255.38C1353.78 252.167 1356.87 248.332 1359.23 244.05C1361.69 239.529 1363.4 234.639 1364.3 229.57Z" fill="#231F20"/>
<path d="M896.299 564.46C898.144 570.387 900.799 576.03 904.189 581.23C889.679 586.29 862.809 594.67 862.099 587.52C862.049 587.52 859.739 581.15 896.299 564.46Z" fill="#F7E7D6"/>
<path d="M917.49 596.371C905.49 606.261 888.909 618.42 886.109 612.94C886.109 612.94 882.11 608.361 905.5 583.271C908.695 587.977 912.494 592.243 916.8 595.96L917.49 596.371Z" fill="#F7E7D6"/>
<path d="M936.58 605.19C930.87 614.83 924.89 622.59 921.58 619.87C921.58 619.87 917.829 618.11 922.889 599.37C927.293 601.666 931.871 603.612 936.58 605.19Z" fill="#F7E7D6"/>
<path opacity="0.72" d="M1428.3 465.65C1424.98 450.65 1422.44 436.94 1420.52 425.02C1417.3 405.15 1415.77 390.19 1415.1 382.18C1414.74 377.91 1414.62 375.62 1414.62 375.62C1414.62 371.66 1414.6 367.72 1414.57 363.8C1414.57 363.17 1414.57 362.54 1414.57 361.92C1414.57 357.92 1414.52 353.95 1414.41 350.01C1414.41 349.87 1414.41 349.74 1414.41 349.6C1414.25 341.207 1414 332.923 1413.65 324.75C1408.52 353.95 1395.22 397.99 1357.98 445.75L1323.7 409.4C1323.7 409.4 1323.08 446.4 1332.47 474.98C1300.63 507.72 1256.63 541.15 1195.7 571.98C1179.7 555.14 1141.51 535.73 1102.7 518.9C1128.02 477.48 1128.88 418.48 1128.88 418.48C1114.69 457.14 1091.05 488.05 1074 506.93C1052.26 498.18 1032.07 490.7 1017.56 485.5C1006.23 571.12 1042.7 671.96 1222.95 682.38L1224.7 682.49C1420.65 671.92 1448 554.99 1428.3 465.65Z" fill="#8E745E"/>
<path d="M904.14 581.23C900.75 576.03 898.095 570.387 896.25 564.46C888.83 540.31 893.48 503.79 950.25 460.37C1011.48 413.57 1036.17 395.17 1049.02 379.97C1062.71 363.77 1085.11 357.49 1104.83 365.34C1127.04 374.18 1144.15 395.93 1116.9 448.4C1116.9 448.4 1040.62 639.93 936.531 605.19C931.822 603.612 927.244 601.666 922.84 599.37C921.047 598.443 919.247 597.443 917.44 596.37L916.75 595.96C912.445 592.243 908.646 587.976 905.451 583.27C904.991 582.62 904.54 581.94 904.09 581.27" fill="#CBA984"/>
<path opacity="0.72" d="M1130.03 392.84C1052.29 554.1 948.13 576.06 901.68 577.13C905.576 584.234 910.694 590.594 916.8 595.92C1030.86 664.51 1116.95 448.36 1116.95 448.36C1129.79 423.68 1132.78 405.78 1130.03 392.84Z" fill="#A5876A"/>
<path d="M939.881 523.636C948.635 510.855 950.657 497.018 944.396 492.73C938.135 488.441 925.964 495.326 917.209 508.107C908.455 520.888 906.432 534.725 912.693 539.014C918.953 543.302 931.126 536.417 939.881 523.636Z" fill="white"/>
<path d="M949.14 489.1C952.857 489.1 955.87 486.087 955.87 482.37C955.87 478.653 952.857 475.64 949.14 475.64C945.423 475.64 942.41 478.653 942.41 482.37C942.41 486.087 945.423 489.1 949.14 489.1Z" fill="white"/>
<path d="M1321.17 627.15C1321.17 627.15 1204.97 491.84 1128.9 545.7C1123.81 549.336 1119.15 553.543 1115.01 558.24C1113.53 559.9 1112.07 561.654 1110.64 563.5C1109.46 565.02 1108.3 566.604 1107.16 568.25C1105.31 571.554 1103.87 575.074 1102.88 578.73C1101.96 581.889 1101.27 585.111 1100.82 588.371C1100.09 593.558 1099.95 598.812 1100.41 604.03C1103.21 636.48 1130.24 681.9 1244.41 705.46C1420.41 741.79 1528.98 721.95 1472.18 568.25C1429.58 452.98 1271.18 579.46 1271.18 579.46" fill="#CBA984"/>
<path opacity="0.72" d="M1100.41 604.03C1099.95 598.812 1100.09 593.558 1100.82 588.371C1101.27 585.111 1101.96 581.889 1102.88 578.73C1103.54 576.436 1104.34 574.185 1105.28 571.99C1266.71 731.63 1439.68 671.12 1485.94 620.13C1500.52 726.05 1398.23 737.21 1244.38 705.46C1130.24 681.92 1103.21 636.48 1100.41 604.03Z" fill="#A5876A"/>
<path d="M1115.01 558.24C1119.14 553.543 1123.8 549.336 1128.9 545.7C1117.44 536.09 1098.28 521.13 1094.38 525.03C1090.72 528.69 1104.72 546.31 1115.01 558.24Z" fill="#F7E7D6"/>
<path d="M1102.88 578.731C1103.87 575.074 1105.31 571.554 1107.16 568.251C1108.3 566.604 1109.46 565.021 1110.64 563.501C1098.26 557.441 1084.06 551.591 1081.7 555.251C1079.34 558.911 1091.46 569.741 1102.88 578.731Z" fill="#F7E7D6"/>
<path d="M1100.41 604.03C1099.95 598.811 1100.09 593.558 1100.82 588.37C1089.53 587.53 1079.09 587.74 1078.3 591.23C1077.47 594.92 1088.52 599.84 1100.41 604.03Z" fill="#F7E7D6"/>
<path opacity="0.72" d="M1235 625.81L1183.06 678.92L1190.54 690.68C1208.12 696.853 1226.11 701.785 1244.38 705.44C1268.22 710.36 1290.82 714.24 1311.94 716.91C1377.66 683.52 1370.35 625.79 1370.35 625.79L1235 625.81Z" fill="#8E745E"/>
<path opacity="0.72" d="M1123.3 550.061C1123.3 550.061 1196.19 555.73 1227.84 575.92L1244.18 612.38L1149.18 657.86L1093.75 614.3L1123.3 550.061Z" fill="#8E745E"/>
<path d="M1200.3 595.85C1200.3 595.85 1041.86 469.37 999.299 584.64C942.499 738.34 1051.03 758.18 1227.07 721.85C1341.21 698.29 1368.24 652.85 1371.07 620.42C1371.53 615.201 1371.39 609.947 1370.66 604.76C1370.21 601.5 1369.52 598.279 1368.6 595.12C1367.61 591.464 1366.17 587.943 1364.32 584.64C1363.18 582.987 1362.02 581.403 1360.84 579.89C1359.41 578.037 1357.95 576.283 1356.47 574.63C1352.33 569.933 1347.67 565.725 1342.58 562.09C1266.51 508.23 1150.31 643.54 1150.31 643.54" fill="#CBA984"/>
<path opacity="0.72" d="M1371.03 620.42C1371.49 615.201 1371.35 609.947 1370.62 604.76C1370.17 601.5 1369.48 598.279 1368.56 595.12C1367.9 592.827 1367.1 590.575 1366.16 588.38C1204.73 748.03 1031.76 687.52 985.5 636.53C970.92 742.45 1073.21 753.6 1227.06 721.85C1341.2 698.29 1368.23 652.92 1371.03 620.42Z" fill="#A5876A"/>
<path d="M1356.43 574.63C1352.29 569.933 1347.63 565.725 1342.54 562.09C1354 552.48 1373.16 537.52 1377.06 541.42C1380.72 545.08 1366.72 562.7 1356.43 574.63Z" fill="#F7E7D6"/>
<path d="M1368.56 595.12C1367.57 591.464 1366.13 587.944 1364.28 584.64C1363.14 582.987 1361.98 581.404 1360.8 579.89C1373.18 573.83 1387.38 567.98 1389.74 571.64C1392.1 575.3 1379.98 586.13 1368.56 595.12Z" fill="#F7E7D6"/>
<path d="M1371.03 620.42C1371.49 615.201 1371.35 609.947 1370.62 604.76C1381.91 603.92 1392.35 604.13 1393.14 607.62C1393.97 611.29 1382.92 616.23 1371.03 620.42Z" fill="#F7E7D6"/>
<path d="M1302.97 575.92C1314.12 575.92 1323.15 570.789 1323.15 564.46C1323.15 558.131 1314.12 553 1302.97 553C1291.82 553 1282.79 558.131 1282.79 564.46C1282.79 570.789 1291.82 575.92 1302.97 575.92Z" fill="white"/>
<path d="M1330.66 583.31C1333.94 583.31 1336.6 580.65 1336.6 577.37C1336.6 574.089 1333.94 571.43 1330.66 571.43C1327.38 571.43 1324.72 574.089 1324.72 577.37C1324.72 580.65 1327.38 583.31 1330.66 583.31Z" fill="white"/>
<path d="M1051.28 681.854C1055.34 674.823 1047.71 662.82 1034.24 655.043C1020.77 647.267 1006.56 646.663 1002.51 653.694C998.446 660.725 1006.07 672.729 1019.54 680.505C1033.01 688.281 1047.22 688.885 1051.28 681.854Z" fill="white"/>
<path d="M1053.57 704.963C1054.99 700.797 1050.33 695.439 1043.16 692.997C1036 690.554 1029.04 691.951 1027.62 696.118C1026.2 700.284 1030.85 705.642 1038.02 708.085C1045.19 710.528 1052.15 709.13 1053.57 704.963Z" fill="white"/>
<path d="M1557.88 564.46C1556.04 570.387 1553.38 576.03 1549.99 581.23C1564.5 586.29 1591.37 594.67 1592.08 587.52C1592.08 587.52 1594.39 581.15 1557.88 564.46Z" fill="#F7E7D6"/>
<path d="M1536.64 596.371C1548.64 606.261 1565.22 618.42 1568.02 612.94C1568.02 612.94 1572.02 608.361 1548.63 583.271C1545.42 587.965 1541.61 592.217 1537.3 595.92L1536.64 596.371Z" fill="#F7E7D6"/>
<path d="M1517.55 605.19C1523.26 614.83 1529.24 622.59 1532.55 619.87C1532.55 619.87 1536.3 618.11 1531.24 599.37C1526.84 601.666 1522.26 603.612 1517.55 605.19V605.19Z" fill="#F7E7D6"/>
<path d="M1549.99 581.23C1549.54 581.94 1549.09 582.62 1548.63 583.23C1545.43 587.938 1541.62 592.205 1537.3 595.92L1536.61 596.33C1534.8 597.403 1533 598.403 1531.21 599.33C1526.81 601.626 1522.23 603.572 1517.52 605.15C1413.43 639.89 1337.15 448.36 1337.15 448.36C1309.9 395.89 1327.01 374.14 1349.22 365.3C1368.94 357.45 1391.34 363.73 1405.03 379.93C1417.88 395.13 1442.57 413.53 1503.8 460.33C1560.62 503.75 1565.27 540.27 1557.8 564.42C1555.96 570.347 1553.3 575.99 1549.91 581.19" fill="#CBA984"/>
<path opacity="0.72" d="M1324.1 392.84C1401.84 554.1 1505.99 576.06 1552.45 577.13C1548.55 584.237 1543.42 590.598 1537.3 595.92C1423.25 664.51 1337.16 448.36 1337.16 448.36C1324.3 423.68 1321.35 405.78 1324.1 392.84Z" fill="#A5876A"/>
<path d="M1542.17 548.214C1548.58 544.165 1547.09 530.262 1538.82 517.16C1530.55 504.058 1518.65 496.719 1512.23 500.769C1505.81 504.818 1507.31 518.722 1515.58 531.823C1523.84 544.925 1535.75 552.263 1542.17 548.214Z" fill="white"/>
<path d="M1525.15 490.928C1526.95 487.809 1524.35 482.938 1519.34 480.047C1514.33 477.155 1508.81 477.339 1507.01 480.458C1505.21 483.576 1507.81 488.448 1512.82 491.34C1517.83 494.231 1523.35 494.046 1525.15 490.928Z" fill="white"/>
<path d="M1348.91 138.472C1352.74 132.886 1345.08 120.982 1331.79 111.885C1318.51 102.787 1304.64 99.94 1300.82 105.526C1296.99 111.112 1304.65 123.016 1317.94 132.114C1331.22 141.211 1345.09 144.058 1348.91 138.472Z" fill="white"/>
<path d="M1353.76 158.297C1355.28 154.802 1351.93 149.977 1346.29 147.52C1340.64 145.062 1334.83 145.903 1333.31 149.397C1331.79 152.892 1335.13 157.716 1340.78 160.173C1346.43 162.631 1352.24 161.791 1353.76 158.297Z" fill="white"/>
<path d="M1259.3 291.53C1259.3 291.53 1258.1 302.811 1224.64 302.811C1191.18 302.811 1189.98 291.53 1189.98 291.53" stroke="#231F20" stroke-width="5.89" stroke-miterlimit="10" stroke-linecap="round"/>
<path d="M1474.35 646.635C1477.17 633.87 1473.65 622.239 1466.49 620.657C1459.33 619.075 1451.24 628.14 1448.42 640.904C1445.6 653.669 1449.11 665.299 1456.28 666.882C1463.44 668.464 1471.53 659.399 1474.35 646.635Z" fill="white"/>
<path d="M1438.99 629.31C1444.49 629.31 1448.94 624.855 1448.94 619.36C1448.94 613.865 1444.49 609.41 1438.99 609.41C1433.49 609.41 1429.04 613.865 1429.04 619.36C1429.04 624.855 1433.49 629.31 1438.99 629.31Z" fill="white"/>
<path d="M1123.55 130.288C1130.95 126.014 1134.73 118.694 1131.98 113.94C1129.24 109.186 1121.01 108.797 1113.61 113.071C1106.2 117.346 1102.43 124.666 1105.17 129.42C1107.92 134.174 1116.14 134.563 1123.55 130.288Z" fill="white"/>
</g>
<g clip-path="url(#clip1_5667_286)">
<path d="M356.64 749.41C522.955 749.41 657.78 736.377 657.78 720.3C657.78 704.223 522.955 691.19 356.64 691.19C190.325 691.19 55.5 704.223 55.5 720.3C55.5 736.377 190.325 749.41 356.64 749.41Z" fill="#C5CACB"/>
<path d="M368.53 757.161H364.83C362.52 757.161 360.1 757.08 357.63 757.01C353.93 757.12 350.27 757.181 346.74 757.201H345.04C320.04 757.201 299.65 754.761 284.5 749.951C259.41 746.051 236.15 740.95 218.88 735.69L216.2 734.82L215.36 734.521C214.69 734.291 214.11 734.091 213.53 733.871L212.47 733.461L210.851 732.84L209.69 732.36L208.19 731.731L206.99 731.201L205.51 730.541L204.28 729.961L202.851 729.28L201.62 728.67L200.18 727.94L198.95 727.291L197.54 726.541L196.29 725.851L194.91 725.07L193.65 724.34L192.26 723.521L190.981 722.74L189.66 721.92L188.351 721.09L187.05 720.24L186.97 720.19L185.74 719.38L184.5 718.53L184.231 718.34L183.17 717.61L181.99 716.771L181.75 716.601L180.601 715.771L179.3 714.771L178.05 713.84L177.54 713.44C175.44 711.82 173.361 710.14 171.351 708.44L170.78 707.961L169.08 706.471L168.38 705.851L166.76 704.38L166 703.681L164.44 702.201L163.68 701.461C163.17 700.971 162.68 700.461 162.14 699.951L161.4 699.211C160.9 698.701 160.4 698.21 159.89 697.65L159.18 696.911L157.68 695.3L157.03 694.59C156.51 694.02 156.031 693.461 155.521 692.891L154.88 692.161C154.41 691.631 153.88 691.031 153.4 690.431L152.851 689.771C152.361 689.181 151.85 688.55 151.34 687.92L150.89 687.36L149.33 685.36C149.33 685.36 149.01 684.93 149.01 684.92C148.46 684.2 147.92 683.481 147.4 682.751L147.25 682.541C141.109 674.176 136.196 664.976 132.66 655.221C132.66 655.151 132.61 655.07 132.58 654.99C132.25 654.05 131.94 653.1 131.64 652.15L131.59 651.99C131.3 651.04 131.02 650.091 130.76 649.141L130.7 648.931C130.45 647.991 130.21 647.041 129.99 646.081L129.93 645.851C129.71 644.851 129.51 643.911 129.32 642.931C129.326 642.881 129.326 642.83 129.32 642.78C129.13 641.78 128.961 640.78 128.811 639.78C128.815 639.734 128.815 639.687 128.811 639.641C126.786 626.566 128.562 613.184 133.93 601.09C134.37 600.09 134.86 599.09 135.38 598.03C135.409 597.958 135.443 597.888 135.481 597.82C135.951 596.9 136.48 595.931 137.01 594.961L137.18 594.661C137.68 593.771 138.25 592.81 138.84 591.88L139.01 591.601C139.6 590.671 140.22 589.74 140.84 588.84L141.021 588.581C141.691 587.581 142.361 586.701 143.021 585.831L143.2 585.601C143.51 585.191 143.83 584.791 144.15 584.391C142.63 579.631 141.297 574.817 140.15 569.951L138.851 570.201C133.111 571.281 127.29 572.1 121.54 572.65C117.23 573.06 112.9 573.321 108.66 573.421C107.26 573.421 105.871 573.471 104.481 573.471C70.0905 573.471 41.7299 563.471 24.5499 545.471L24.42 545.32C23.72 544.58 23.0304 543.84 22.3604 543.09L21.6104 542.231C21.1804 541.741 20.7 541.231 20.25 540.661L19.6202 539.9L19.4502 539.691L18.2901 538.271L17.67 537.471L17.4903 537.231C17.1003 536.731 16.7404 536.23 16.4004 535.8C16.1804 535.51 15.94 535.181 15.71 534.851L15.6202 534.731C15.2802 534.271 14.9468 533.811 14.6202 533.351L13.8702 532.24L12.9502 530.86C12.7302 530.52 12.4803 530.13 12.2403 529.74C12.0003 529.35 11.6802 528.841 11.4102 528.391L10.7198 527.24C10.4598 526.79 10.21 526.341 9.96001 525.891C9.71001 525.441 9.49985 525.081 9.29985 524.711L8.60063 523.371L8.50981 523.201L8.00005 522.201L7.46001 521.081L7.25005 520.63C7.11005 520.33 6.96012 520.031 6.83012 519.731C6.70012 519.431 6.47059 518.93 6.31059 518.55L6.13969 518.171C5.98969 517.821 5.84024 517.481 5.70024 517.171C5.56024 516.861 5.44059 516.531 5.31059 516.171L5.21001 515.9C4.86001 515.01 4.54001 514.16 4.21001 513.3C4.21001 513.3 3.93063 512.54 3.85063 512.3C3.77063 512.06 3.58001 511.49 3.46001 511.09L3.29008 510.581C3.20008 510.301 3.11032 510.02 3.03032 509.74C2.95032 509.46 2.76969 508.841 2.63969 508.371L2.57036 508.101C2.49036 507.821 2.40989 507.531 2.33989 507.251C2.21989 506.791 2.10051 506.301 1.98051 505.811C1.98051 505.811 1.80028 505.071 1.74028 504.811C1.63028 504.331 1.51997 503.811 1.41997 503.311L1.24028 502.4C1.13028 501.85 1.04001 501.33 0.960006 500.82L0.820358 499.951C0.730358 499.391 0.650123 498.861 0.580123 498.331L0.480514 497.53L0.29985 495.891C0.29985 495.691 0.29985 495.5 0.29985 495.3C0.23985 494.62 0.190436 494.031 0.150436 493.431C0.150436 493.431 0.150436 493.01 0.150436 492.99C-0.181861 487.134 0.211042 481.26 1.32036 475.501C1.31476 475.467 1.31476 475.434 1.32036 475.4C1.44702 474.734 1.58695 474.067 1.74028 473.4C1.74028 473.4 1.74028 473.31 1.74028 473.3C1.87028 472.71 2.01997 472.1 2.16997 471.49C2.16997 471.43 2.16977 471.371 2.21977 471.311C8.58977 446.311 28.3104 426.8 47.1104 426.8C47.8604 426.8 48.6299 426.8 49.3799 426.9C54.2543 427.132 59.0177 428.437 63.3301 430.721C65.6798 427.894 68.5965 425.591 71.8916 423.962C75.1868 422.332 78.7871 421.412 82.46 421.26H83.7403C93.6503 421.26 106.5 426.341 114.51 449.021C117.738 449.529 121.002 449.786 124.271 449.791C136.904 449.873 149.2 445.714 159.19 437.981C164.21 429.005 169.924 420.436 176.28 412.351C153.76 386.561 142.98 353.851 144.18 314.891C144.539 302.701 146.059 290.572 148.72 278.671C145.563 275.531 142.638 272.165 139.97 268.601C138.21 266.241 136.54 263.771 134.97 261.251C126.221 246.824 121.601 230.273 121.61 213.4C121.61 211.97 121.61 210.511 121.72 208.941C121.72 208.571 121.72 208.18 121.79 207.8V207.481C121.86 206.481 121.931 205.48 122.021 204.55C122.021 204.08 122.12 203.611 122.17 203.141V202.831C122.27 201.931 122.38 201.061 122.5 200.181C122.59 199.591 122.68 198.991 122.78 198.391C122.92 197.551 123.071 196.721 123.231 195.891C123.341 195.301 123.46 194.701 123.59 194.101C123.77 193.251 123.96 192.44 124.16 191.63L124.24 191.28C124.36 190.8 124.471 190.281 124.601 189.851C124.821 189.011 125.061 188.171 125.311 187.331L125.42 186.961C125.533 186.547 125.654 186.137 125.78 185.731C126.2 184.401 126.64 183.091 127.09 181.851C127.24 181.441 127.41 181.011 127.58 180.581L127.811 180.001C128.081 179.311 128.34 178.621 128.62 177.941C128.9 177.261 129.09 176.871 129.33 176.331L129.51 175.921C129.78 175.321 130.05 174.71 130.33 174.11C130.61 173.51 130.95 172.821 131.33 172.161C131.71 171.501 131.921 170.991 132.231 170.421C132.541 169.851 132.94 169.091 133.3 168.421C133.66 167.751 133.92 167.331 134.24 166.791C134.56 166.251 135.01 165.481 135.42 164.791C135.69 164.351 135.96 163.921 136.24 163.501L136.46 163.171C136.86 162.541 137.27 161.911 137.69 161.291L138.41 160.291L138.61 160.021C146.314 149.153 156.281 140.083 167.825 133.436C179.369 126.788 192.216 122.721 205.482 121.513C218.749 120.305 232.12 121.986 244.675 126.439C257.23 130.892 268.67 138.013 278.21 147.311C302.46 140.051 328.81 136.38 356.71 136.38C360 136.38 363.35 136.381 366.71 136.541C390.608 137.157 414.338 140.745 437.351 147.221C446.897 137.941 458.339 130.838 470.892 126.401C483.444 121.964 496.808 120.297 510.065 121.515C523.323 122.733 536.161 126.807 547.694 133.458C559.228 140.108 569.184 149.177 576.88 160.041L577.061 160.3C577.311 160.63 577.55 160.97 577.78 161.3C578.21 161.92 578.611 162.551 579.021 163.181L579.24 163.51L580.05 164.791C580.46 165.451 580.851 166.101 581.231 166.791C581.611 167.481 581.86 167.871 582.17 168.421C582.48 168.971 582.89 169.731 583.24 170.421C583.59 171.111 583.84 171.581 584.14 172.171C584.44 172.761 584.79 173.491 585.14 174.171C585.49 174.851 585.65 175.281 585.9 175.851L586.16 176.431C586.39 176.951 586.62 177.431 586.83 177.981C587.04 178.531 587.36 179.281 587.61 179.981L587.88 180.681C588.05 181.091 588.21 181.511 588.36 181.931C588.81 183.141 589.25 184.441 589.67 185.791C589.8 186.211 589.92 186.61 590.03 187.01L590.14 187.391C590.39 188.231 590.63 189.071 590.86 189.921C590.98 190.381 591.1 190.871 591.21 191.351L591.29 191.681C591.49 192.501 591.68 193.321 591.86 194.141C591.99 194.741 592.111 195.351 592.231 195.971C592.381 196.781 592.53 197.611 592.67 198.451C592.77 199.041 592.86 199.65 592.95 200.26C593.07 201.12 593.18 202 593.28 202.88V203.201C593.28 203.671 593.39 204.141 593.43 204.621C593.53 205.621 593.6 206.621 593.66 207.561V207.86C593.66 208.24 593.711 208.62 593.731 209.01C593.811 210.57 593.84 212.011 593.84 213.461C593.851 230.33 589.23 246.878 580.481 261.3C578.951 263.82 577.281 266.301 575.481 268.661C574.221 270.354 572.887 272.021 571.481 273.661C576.272 291.502 578.375 309.958 577.72 328.421C576.56 365.571 564.84 396.42 542.84 420.34L542.92 420.461C543.67 421.521 544.43 422.611 545.17 423.701L545.981 424.911C546.511 425.701 547.061 426.54 547.601 427.38L548.46 428.721C549.18 429.861 549.89 430.991 550.58 432.141L551.24 433.251C551.78 434.161 552.32 435.061 552.84 435.971C553.08 436.391 553.33 436.82 553.57 437.26L554.03 438.061C564.016 445.795 576.31 449.954 588.94 449.871C592.212 449.866 595.478 449.608 598.71 449.101C606.71 426.421 619.57 421.34 629.47 421.34H630.75C634.425 421.49 638.027 422.41 641.324 424.039C644.621 425.669 647.539 427.972 649.89 430.8C654.216 428.507 658.998 427.202 663.89 426.981C664.64 426.921 665.4 426.88 666.16 426.88C684.95 426.88 704.67 446.43 711.04 471.38C711.22 472.06 711.38 472.74 711.53 473.38C711.53 473.38 711.53 473.461 711.53 473.481C711.67 474.131 711.81 474.791 711.94 475.481C711.935 475.51 711.935 475.541 711.94 475.57C713.041 481.331 713.431 487.205 713.101 493.061C713.101 493.191 713.101 493.351 713.101 493.521C713.101 494.101 713.01 494.67 712.97 495.26L712.91 495.86C712.85 496.49 712.79 497.06 712.72 497.63C712.72 497.86 712.66 498.131 712.62 498.411C712.55 498.941 712.47 499.47 712.39 500.01C712.39 500.3 712.29 500.611 712.24 500.921C712.19 501.231 712.081 501.921 711.981 502.411L711.79 503.351C711.69 503.861 711.58 504.351 711.46 504.891C711.41 505.141 711.24 505.891 711.24 505.891C711.11 506.401 710.99 506.891 710.86 507.391C710.79 507.661 710.72 507.931 710.64 508.201L710.561 508.521L710.17 509.891L709.89 510.78L709.79 511.101L709.38 512.38L709.061 513.271L708.981 513.49C708.701 514.29 708.4 515.111 708.07 515.931L707.981 516.161C707.831 516.561 707.68 516.961 707.51 517.351C707.34 517.741 707.26 517.95 707.12 518.26L706.9 518.76C706.75 519.12 706.59 519.491 706.42 519.851C706.25 520.211 706.141 520.471 705.981 520.791L705.771 521.251L705.231 522.371C705.051 522.731 704.89 523.041 704.72 523.371L704.561 523.691C704.351 524.101 704.13 524.511 703.91 524.921C703.69 525.331 703.48 525.7 703.26 526.09C703.04 526.48 702.781 526.961 702.521 527.411L701.83 528.561L700.99 529.931L700.271 531.061C699.981 531.511 699.67 531.971 699.36 532.431C699.05 532.891 698.86 533.171 698.59 533.541C698.32 533.911 697.96 534.441 697.59 534.891L696.79 535.99C696.44 536.46 696.08 536.921 695.72 537.391L694.92 538.391L693.79 539.791C693.79 539.791 693.13 540.591 692.93 540.791C692.52 541.281 692.09 541.791 691.66 542.251L690.84 543.191C690.15 543.961 689.45 544.721 688.72 545.481L688.64 545.581C680.44 554.201 669.64 560.99 656.64 565.78C642.5 570.98 626.36 573.621 608.64 573.621C596.664 573.582 584.72 572.4 572.97 570.09C571.976 574.35 570.837 578.574 569.55 582.76L569.78 583.021C570.49 583.881 571.22 584.791 571.94 585.721L572.14 585.99C572.83 586.89 573.5 587.81 574.14 588.74L574.311 588.981C574.961 589.921 575.58 590.86 576.16 591.78L576.32 592.03C576.91 593.03 577.48 593.931 578.01 594.871L578.15 595.121C578.7 596.121 579.23 597.12 579.71 598.03L579.811 598.24L579.74 598.11C586.266 611.001 588.571 625.618 586.33 639.891C586.33 639.891 586.33 639.891 586.33 639.961C586.177 640.961 586.007 641.961 585.82 642.961C585.825 642.997 585.825 643.034 585.82 643.07C585.63 644.07 585.42 645.07 585.2 646.07V646.24C584.97 647.24 584.73 648.18 584.47 649.15L584.42 649.32C584.16 650.26 583.88 651.221 583.59 652.181C583.59 652.251 583.53 652.351 583.5 652.451C583.21 653.371 582.91 654.281 582.59 655.201V655.36C579.053 665.125 574.14 674.334 568 682.711L567.811 682.971C567.301 683.681 566.81 684.4 566.22 685.11L565.9 685.541C565.38 686.231 564.9 686.901 564.32 687.541L563.9 688.081C563.39 688.721 562.9 689.341 562.36 689.971L561.86 690.561C561.33 691.191 560.86 691.79 560.3 692.38L559.71 693.07L558.2 694.76L557.58 695.431L556.04 697.09L555.38 697.78L553.811 699.4L553.11 700.09C552.56 700.64 552.051 701.151 551.521 701.661L550.811 702.34C550.271 702.86 549.75 703.341 549.22 703.851L548.47 704.541C547.95 705.021 547.401 705.541 546.851 706.021L546.12 706.661C545.6 707.121 545.03 707.661 544.45 708.121L543.92 708.581C541.85 710.341 539.73 712.05 537.63 713.67L537.15 714.041L535.86 715.041L534.65 715.931L533.51 716.76L532.05 717.76L530.5 718.831L529.5 719.51C529.11 719.78 527.99 720.51 527.99 720.51L526.87 721.24L525.66 722.01L524.25 722.891L522.96 723.67L521.62 724.461L520.34 725.201C519.87 725.481 519.41 725.731 518.96 725.981L517.7 726.681L516.32 727.42L515.05 728.081L513.63 728.8L512.38 729.42L510.95 730.11L509.72 730.681L508.24 731.351L507.05 731.871L505.64 732.461L504.36 732.981L502.851 733.57L501.72 734.001C501.14 734.221 500.59 734.41 500.03 734.61L499.03 734.961L496.34 735.831C493.88 736.581 491.26 737.34 488.57 738.09C483.2 739.57 477.32 741.041 471.07 742.461C462.67 744.371 453.69 746.17 444.38 747.82C442.02 748.24 439.64 748.65 437.24 749.05C435.08 749.4 432.91 749.75 430.71 750.05C424.954 751.843 419.08 753.23 413.13 754.201C400.778 756.156 388.296 757.179 375.79 757.26C373.94 757.26 372.08 757.26 370.2 757.26L368.53 757.161Z" fill="#231F20"/>
<path d="M356.64 714.08C470.538 714.08 562.87 630.962 562.87 528.43C562.87 425.899 470.538 342.78 356.64 342.78C242.742 342.78 150.41 425.899 150.41 528.43C150.41 630.962 242.742 714.08 356.64 714.08Z" fill="white"/>
<path opacity="0.08" d="M229.01 674.27C264.12 699.2 308.44 714.08 356.63 714.08C470.53 714.08 562.86 630.96 562.86 528.43C562.86 459.74 521.43 399.77 459.86 367.66L431.2 399.3C431.2 399.3 472.62 663.2 229.01 674.27Z" fill="#2F3233"/>
<path d="M356.63 480.36C453.51 480.36 534.77 519.761 556.9 572.871C560.874 558.391 562.892 543.445 562.9 528.431C562.9 425.891 470.57 342.771 356.67 342.771C242.77 342.771 150.44 425.891 150.44 528.431C150.454 543.445 152.472 558.39 156.44 572.871C178.49 519.761 259.75 480.36 356.63 480.36Z" fill="#3C4042"/>
<path d="M501.64 290.48C544.299 290.48 578.88 255.898 578.88 213.24C578.88 170.582 544.299 136 501.64 136C458.982 136 424.4 170.582 424.4 213.24C424.4 255.898 458.982 290.48 501.64 290.48Z" fill="#3C4042"/>
<path d="M561.37 164.42C561.37 164.42 562.37 259.591 473.65 285.221C489.551 291.407 507.053 292.153 523.423 287.343C539.793 282.533 554.109 272.438 564.136 258.633C574.163 244.829 579.337 228.093 578.85 211.038C578.362 193.983 572.24 177.569 561.44 164.36L561.37 164.42Z" fill="#2F3233"/>
<path d="M213.88 290.48C256.538 290.48 291.12 255.898 291.12 213.24C291.12 170.582 256.538 136 213.88 136C171.221 136 136.64 170.582 136.64 213.24C136.64 255.898 171.221 290.48 213.88 290.48Z" fill="#3C4042"/>
<path d="M154.14 164.42C154.14 164.42 153.141 259.591 241.861 285.221C225.96 291.403 208.46 292.146 192.093 287.334C175.726 282.523 161.412 272.427 151.387 258.624C141.362 244.821 136.189 228.086 136.676 211.033C137.163 193.98 143.283 177.569 154.08 164.36L154.14 164.42Z" fill="#2F3233"/>
<path d="M472.47 477.24L530.55 432.681C540.63 452.801 572.42 472.301 610.61 461.581C613.38 450.341 619.12 435.581 630.09 436.101C642.95 436.721 644.68 454.521 642.65 469.201C645.35 471.501 654.95 476.34 657.19 470.71C659.36 465.28 656.99 465.441 653.07 463.291C647.6 460.291 647.83 442.491 664.94 441.721C685.06 439.721 721.251 489.4 677.851 535.05C634.451 580.7 500.01 558.48 472.47 477.24Z" fill="#3C4042"/>
<path d="M677.87 535.05C697.87 514.05 700.95 492.17 696.53 474.88C693.949 481.211 690.886 487.336 687.37 493.2C673.88 515.55 652.59 530.39 589.42 531.46C526.25 532.53 472.49 477.24 472.49 477.24C500.01 558.48 634.45 580.7 677.87 535.05Z" fill="#2F3233"/>
<path d="M240.79 477.24L182.71 432.681C172.64 452.801 140.84 472.301 102.65 461.581C99.8803 450.341 94.1396 435.581 83.1796 436.101C70.3096 436.721 68.5803 454.521 70.6103 469.201C67.9103 471.501 58.3203 476.34 56.0703 470.71C53.9103 465.28 56.2701 465.441 60.2001 463.291C65.6601 460.291 65.4303 442.491 48.3203 441.721C28.2103 439.721 -7.99013 489.4 35.4199 535.05C78.8299 580.7 213.25 558.48 240.79 477.24Z" fill="#3C4042"/>
<path d="M35.4196 535.05C15.4196 514.05 12.3297 492.17 16.7497 474.88C19.335 481.211 22.4005 487.336 25.9196 493.2C39.3996 515.55 60.6901 530.39 123.86 531.46C187.03 532.53 240.79 477.24 240.79 477.24C213.25 558.48 78.8696 580.7 35.4196 535.05Z" fill="#2F3233"/>
<path d="M562.771 327.7C559.571 430.93 468.08 464.9 356.63 461.45C245.18 458 155.97 418.45 159.18 315.18C162.39 211.91 248.35 147.74 366.25 151.4C484.15 155.06 565.981 224.47 562.771 327.7Z" fill="white"/>
<path d="M360.049 369.33L370.79 364.26C371.899 363.734 372.799 362.851 373.345 361.752C373.892 360.653 374.052 359.403 373.801 358.201C373.551 357 372.904 355.917 371.964 355.128C371.025 354.339 369.846 353.889 368.62 353.85L347.48 353.19C346.253 353.153 345.049 353.531 344.062 354.261C343.075 354.992 342.363 356.033 342.04 357.217C341.716 358.402 341.801 359.661 342.28 360.791C342.759 361.922 343.604 362.858 344.679 363.45L355.08 369.17C355.836 369.589 356.681 369.822 357.546 369.85C358.41 369.877 359.268 369.7 360.049 369.33V369.33Z" fill="black"/>
<path d="M326.51 385.98C326.51 385.98 327.79 398.88 341.51 399.3C354.39 399.7 357.8 363.141 357.8 363.141" stroke="#19181C" stroke-width="5.77" stroke-linecap="round" stroke-linejoin="round"/>
<path d="M387.53 387.86C387.53 387.86 385.451 400.66 371.771 400.23C358.891 399.83 357.771 363.13 357.771 363.13" stroke="#19181C" stroke-width="5.77" stroke-linecap="round" stroke-linejoin="round"/>
<path d="M377.73 297.36C374.675 283.231 377.273 268.467 384.969 256.23C396.179 238.83 420.439 223.41 471.969 252.84C558.749 302.42 521.7 351.58 502.45 357.2C484.45 362.46 392.87 370.91 377.73 297.36Z" fill="#3C4042"/>
<path d="M337.79 297.31C340.719 283.741 338.438 269.566 331.4 257.6C320.59 239.68 296.4 222.6 243.54 252.84C156.76 302.42 193.82 351.58 213.06 357.2C231.07 362.46 322.7 370.92 337.79 297.31Z" fill="#3C4042"/>
<path d="M311.39 295.17C312.335 300.56 311.992 306.097 310.39 311.33C308.741 316.747 305.937 321.742 302.17 325.97C298.322 330.284 293.602 333.73 288.321 336.08C286.981 336.62 285.63 337.17 284.26 337.64C282.89 338.11 281.46 338.44 280.04 338.77C278.62 339.1 277.171 339.26 275.731 339.44L271.371 339.69L267.021 339.44C265.581 339.25 264.14 339.01 262.71 338.77C261.28 338.53 259.9 338.01 258.5 337.63C257.1 337.25 255.77 336.63 254.43 336.07C249.15 333.723 244.432 330.276 240.59 325.96C236.826 321.734 234.022 316.743 232.371 311.33C230.769 306.097 230.426 300.56 231.371 295.17C232.272 300.236 233.988 305.122 236.451 309.64C238.805 313.923 241.896 317.759 245.58 320.97C252.715 327.235 261.885 330.69 271.38 330.69C280.875 330.69 290.046 327.235 297.18 320.97C300.859 317.754 303.95 313.919 306.311 309.64C308.772 305.122 310.486 300.235 311.39 295.17V295.17Z" fill="#19181C"/>
<path d="M481.87 295.17C482.82 300.56 482.477 306.098 480.87 311.33C479.225 316.747 476.424 321.742 472.66 325.97C468.808 330.279 464.088 333.724 458.811 336.08C457.461 336.62 456.11 337.17 454.74 337.64C453.37 338.11 451.94 338.44 450.53 338.77C449.12 339.1 447.66 339.26 446.21 339.44L441.86 339.69L437.5 339.44C436.06 339.25 434.621 339.01 433.191 338.77C431.761 338.53 430.381 338.01 428.981 337.63C427.581 337.25 426.26 336.63 424.91 336.07C419.633 333.718 414.916 330.272 411.07 325.96C407.305 321.737 404.503 316.745 402.86 311.33C401.259 306.097 400.917 300.56 401.86 295.17C402.762 300.236 404.478 305.122 406.941 309.64C409.299 313.924 412.393 317.759 416.08 320.97C423.213 327.235 432.382 330.689 441.875 330.689C451.368 330.689 460.537 327.235 467.67 320.97C471.349 317.754 474.439 313.919 476.8 309.64C479.257 305.121 480.97 300.235 481.87 295.17V295.17Z" fill="#19181C"/>
<path opacity="0.55" d="M249.97 383.33C268.963 383.33 284.36 379.462 284.36 374.69C284.36 369.918 268.963 366.05 249.97 366.05C230.977 366.05 215.58 369.918 215.58 374.69C215.58 379.462 230.977 383.33 249.97 383.33Z" fill="#F37270"/>
<path opacity="0.55" d="M465.56 383.33C484.553 383.33 499.95 379.462 499.95 374.69C499.95 369.918 484.553 366.05 465.56 366.05C446.567 366.05 431.17 369.918 431.17 374.69C431.17 379.462 446.567 383.33 465.56 383.33Z" fill="#F37270"/>
<path d="M695.729 488.754C695.997 480.159 693.13 473.095 689.327 472.977C685.523 472.859 682.223 479.731 681.956 488.326C681.689 496.921 684.556 503.984 688.359 504.103C692.163 504.221 695.462 497.349 695.729 488.754Z" fill="white"/>
<path d="M688.237 513.076C689.138 510.43 688.08 507.677 685.874 506.925C683.667 506.174 681.149 507.709 680.248 510.354C679.347 513 680.404 515.754 682.611 516.505C684.817 517.257 687.336 515.721 688.237 513.076Z" fill="white"/>
<path d="M54.2683 517.052C56.4787 513.036 53.3049 507.047 47.1796 503.676C41.0542 500.304 34.2972 500.827 32.0867 504.842C29.8763 508.858 33.0492 514.847 39.1745 518.219C45.2998 521.591 52.0578 521.068 54.2683 517.052Z" fill="white"/>
<path d="M28.424 481.085C29.2842 475.116 27.9567 469.984 25.4585 469.624C22.9604 469.264 20.238 473.812 19.3778 479.782C18.5176 485.751 19.8453 490.882 22.3434 491.242C24.8416 491.602 27.5638 487.054 28.424 481.085Z" fill="white"/>
<path d="M367.429 627.46C367.429 627.46 460.119 511.53 546.429 580.79C610.569 632.27 541.37 706.12 491.99 721.31C442.61 736.5 330.819 752.17 284.379 733.97C243.439 717.97 236.69 674.05 272.56 662.65C307.27 651.62 336.319 637.6 367.429 627.46Z" fill="#3C4042"/>
<path d="M400.37 595.19C422.01 599.24 451.82 607.38 463.37 622.63C463.37 622.63 396.29 607.79 367.37 627.46C377.3 615.662 388.352 604.854 400.37 595.19V595.19Z" fill="#2F3233"/>
<path d="M556.3 590.03C560.16 619.91 550.3 652.7 533.53 668.49C522.38 678.96 502.531 689.631 476.061 698.931C478.921 687.641 480.811 667.01 461.061 656.24C432.981 640.92 392.92 630.17 360.87 629.67L338.87 662.871L387.41 712.01L414.92 715.24C393.865 719.35 372.605 722.324 351.231 724.15C262.891 731.81 265.92 665.36 265.92 665.36C237.73 679.79 246.161 719.011 284.361 733.971C330.801 752.171 442.6 736.501 491.97 721.311C538.46 706.981 602.52 640.7 556.3 590.03Z" fill="#272A2B"/>
<path d="M347.87 627.46C347.87 627.46 255.18 511.53 168.87 580.79C104.73 632.27 173.93 706.12 223.3 721.31C272.67 736.5 384.47 752.17 430.87 733.98C471.8 717.98 478.561 674.06 442.691 662.66C407.991 651.62 378.95 637.6 347.87 627.46Z" fill="#3C4042"/>
<path d="M314.87 595.19C293.23 599.24 263.41 607.38 251.87 622.63C251.87 622.63 318.95 607.79 347.82 627.46C337.903 615.667 326.868 604.86 314.87 595.19V595.19Z" fill="#2F3233"/>
<path d="M449.34 665.36C449.34 665.36 452.341 731.81 364.031 724.15C275.721 716.49 206.761 691.98 181.741 668.49C164.921 652.7 155.1 619.91 158.97 590.03C112.75 640.7 176.81 707.031 223.29 721.311C272.67 736.501 384.47 752.171 430.91 733.971C469.11 718.981 477.54 679.79 449.34 665.36Z" fill="#2F3233"/>
<path d="M560.203 647.09C564.363 634.878 563.514 623.54 558.307 621.766C553.1 619.993 545.507 628.455 541.347 640.667C537.187 652.88 538.036 664.217 543.243 665.991C548.45 667.764 556.043 659.303 560.203 647.09Z" fill="white"/>
<path d="M555.416 612.79C556.007 608.383 554.077 604.488 551.104 604.089C548.132 603.691 545.243 606.939 544.652 611.346C544.061 615.752 545.992 619.647 548.964 620.046C551.936 620.445 554.825 617.196 555.416 612.79Z" fill="white"/>
<path d="M341.579 636.955C342.654 633.392 338.014 628.839 331.214 626.788C324.414 624.736 318.03 625.962 316.955 629.526C315.88 633.089 320.52 637.642 327.32 639.693C334.12 641.745 340.503 640.519 341.579 636.955Z" fill="white"/>
<path d="M166.004 648.046C171.039 647.12 173.406 637.039 171.289 625.529C169.173 614.019 163.375 605.44 158.339 606.365C153.304 607.291 150.939 617.373 153.055 628.882C155.172 640.392 160.969 648.972 166.004 648.046Z" fill="white"/>
<path d="M422.758 721.304C428.093 719.792 431.558 715.534 430.498 711.793C429.439 708.053 424.254 706.245 418.92 707.757C413.585 709.269 410.119 713.527 411.179 717.268C412.239 721.008 417.423 722.815 422.758 721.304Z" fill="white"/>
<path d="M549.917 185.312C554.908 180.321 551.875 169.197 543.143 160.465C534.411 151.733 523.287 148.7 518.296 153.691C513.305 158.681 516.337 169.806 525.07 178.538C533.802 187.27 544.927 190.303 549.917 185.312Z" fill="white"/>
<path d="M574.244 533.457C576.167 527.811 568.242 520.002 556.542 516.017C544.842 512.032 533.798 513.379 531.875 519.025C529.952 524.671 537.877 532.479 549.577 536.464C561.277 540.449 572.321 539.103 574.244 533.457Z" fill="white"/>
<path d="M223.55 164.36C233.668 164.36 241.87 160.102 241.87 154.85C241.87 149.598 233.668 145.34 223.55 145.34C213.433 145.34 205.23 149.598 205.23 154.85C205.23 160.102 213.433 164.36 223.55 164.36Z" fill="white"/>
</g>
<g clip-path="url(#clip2_5667_286)">
<path d="M795.99 867.23C925.937 867.23 1031.28 854.197 1031.28 838.12C1031.28 822.043 925.937 809.01 795.99 809.01C666.043 809.01 560.7 822.043 560.7 838.12C560.7 854.197 666.043 867.23 795.99 867.23Z" fill="#D0D2D3"/>
<path d="M740.67 878.61H739.84H739.73C735.345 878.546 730.99 877.872 726.79 876.61C725.164 876.111 723.568 875.52 722.01 874.84C706.73 868.18 695.75 853.28 689.36 830.57C689.36 830.57 688.41 827.71 679.85 822.4C672.48 817.83 662.59 813.3 652.12 808.51C633.89 800.15 615.04 791.51 601.42 779.42C578.05 758.66 580.73 736.5 587.1 721.56L587.15 721.45C587.55 720.52 587.99 719.58 588.54 718.53C588.67 718.27 588.82 717.98 588.98 717.7C589.48 716.77 589.98 715.95 590.46 715.17C590.64 714.88 590.84 714.58 591.04 714.29L591.11 714.18C591.51 713.59 591.93 713 592.36 712.43C592.66 712.03 592.98 711.6 593.36 711.19C593.74 710.78 593.9 710.55 594.17 710.19L594.26 710.09C594.95 709.29 595.69 708.5 596.44 707.76L597 707.22C603.37 701.16 611.53 697.22 621.36 695.36C619.576 691.42 618.399 687.232 617.87 682.94C611.54 686.84 605.81 688.7 600.29 688.7C598.755 688.699 597.224 688.545 595.72 688.24C595.003 688.089 594.298 687.888 593.61 687.64C590.405 686.465 587.54 684.515 585.271 681.964C583.003 679.413 581.402 676.341 580.61 673.02C579.849 669.626 579.97 666.094 580.96 662.76C574.35 661.85 569.18 659.53 565.29 655.76C564.762 655.248 564.274 654.696 563.83 654.11C561.762 651.392 560.398 648.205 559.861 644.832C559.323 641.459 559.629 638.006 560.75 634.78C562.361 630.44 565.355 626.75 569.27 624.28C568.727 623.439 568.24 622.564 567.81 621.66C567.5 620.996 567.239 620.311 567.03 619.61C566.126 616.549 565.934 613.322 566.47 610.176C567.005 607.03 568.254 604.049 570.12 601.46C573.03 597.54 578.7 592.87 589.17 592.87C591.03 592.875 592.888 593.009 594.73 593.27L597.01 593.58C597.01 587.15 598.48 581.87 601.51 577.58C601.933 576.975 602.397 576.4 602.9 575.86C606.82 571.833 612.18 569.527 617.8 569.45C622.14 569.45 629.41 570.89 635.28 579.14C642.42 577.6 650.06 576.22 657.9 575.04C658.32 574.79 658.74 574.56 659.17 574.34C660.9 557.72 674.44 544.23 681.33 537.34C688.22 530.45 695.83 526.96 703.87 526.96C705.054 526.96 706.236 527.04 707.41 527.2C709.681 521.831 712.654 516.787 716.25 512.2C720.418 506.825 725.625 502.343 731.56 499.02C731.24 498.07 730.92 497.13 730.56 496.19C728.56 490.73 726.45 486 723.95 480.52C723.88 480.39 723.82 480.25 723.76 480.11C720.04 478.56 716.33 476.95 712.69 475.3C688.19 464.17 664.05 450.06 648.12 437.56C629.02 422.66 615 407.97 606.51 393.92C604.658 390.869 603.012 387.699 601.58 384.43C600.8 382.61 600.11 380.79 599.58 379.02C599.4 378.45 599.23 377.89 599.08 377.36C598.99 377.05 598.9 376.73 598.82 376.43C598.67 375.85 598.53 375.27 598.4 374.72C597.784 372.097 597.469 369.413 597.46 366.72C597.46 366.27 597.46 365.84 597.51 365.43C598.51 336.43 603.18 309.91 611.39 286.34C552.88 285.41 519.63 281.28 505.07 266.44C502.483 263.879 500.442 260.822 499.067 257.452C497.692 254.082 497.013 250.469 497.07 246.83C497.3 231.43 510.07 214.67 535.07 197C555.82 182.31 583.7 168.24 614.25 157L614.41 156.32C614.6 155.48 614.79 154.64 615 153.79L615.22 152.85C615.41 152.07 615.59 151.31 615.78 150.55L616.62 147.28C616.62 147.28 617.29 144.72 617.49 143.98C617.49 143.98 618.19 141.4 618.4 140.66C618.4 140.66 619.12 138.08 619.34 137.33L620.61 132.98L621.61 129.67C621.87 128.84 622.61 126.4 622.61 126.4C622.9 125.47 623.61 123.11 623.61 123.11C625.91 115.87 628.52 108.17 631.35 100.26C632.82 96.1598 634.35 91.9698 635.92 87.7998V87.8696L636.83 85.4497C637.877 82.6697 638.9 80.003 639.9 77.4497C639.9 77.4497 640.68 75.4497 640.7 75.4497C641.7 72.9197 642.64 70.51 643.55 68.25C644.69 65.4 645.76 62.7899 646.73 60.4399L646.79 60.29C647.53 58.48 648.22 56.8296 648.84 55.3696C648.84 55.3096 651.35 49.4397 651.36 49.4297C651.9 48.1597 652.2 47.48 652.2 47.48C653.534 44.4563 655.825 41.9546 658.72 40.3599L661.45 38.9097L661.84 38.6997C662.6 38.2997 663.53 37.8198 664.6 37.2798L667.99 35.5601L669.08 35.02C690.08 24.64 730.75 6.56969 769.24 1.42969H769.35L771.91 1.10986C777.614 0.417902 783.354 0.0607993 789.1 0.0400391H790.9C843.69 0.820039 907.77 36.5297 920.08 43.6797L921.08 44.29C921.904 44.7761 922.677 45.3421 923.39 45.98C923.73 46.28 924.06 46.5997 924.39 46.9297C925.16 47.7397 925.96 48.6397 926.84 49.6797C927.05 49.9197 927.28 50.2 927.51 50.48C928.17 51.28 928.84 52.12 929.51 52.96C929.69 53.18 929.84 53.3798 929.99 53.5898C930.67 54.5098 931.42 55.5899 932.15 56.6499C932.29 56.8499 932.66 57.4297 932.66 57.4297C933.21 58.2497 933.77 59.14 934.33 60.04C934.33 60.04 934.69 60.6199 934.83 60.8599C935.52 62.0099 936.16 63.1197 936.77 64.2397L936.97 64.6001C937.54 65.6501 938.1 66.7201 938.66 67.8101L939.08 68.6597C939.64 69.7797 940.19 70.9101 940.73 72.0801L940.79 72.21C941.39 73.51 941.95 74.7901 942.51 76.0801L942.81 76.7998C943.29 77.9398 943.76 79.09 944.22 80.25L944.4 80.6997C944.94 82.0597 945.45 83.4098 945.95 84.7798L946.04 85.0298C946.52 86.3698 946.97 87.6397 947.41 88.9297L947.59 89.48C948.51 92.2 949.41 95.06 950.28 97.98L950.4 98.3799C951.25 101.3 952.07 104.27 952.84 107.26V107.38C953.22 108.847 953.59 110.326 953.95 111.82V111.88C957.708 127.784 960.576 143.886 962.54 160.11C1013.61 179.9 1055.54 206.6 1073.21 230.83L1073.51 231.24C1074.07 232.02 1074.6 232.79 1075.1 233.55L1075.52 234.2C1075.97 234.91 1076.37 235.56 1076.74 236.2C1076.92 236.5 1077.11 236.82 1077.29 237.14C1077.47 237.46 1077.73 237.94 1077.94 238.33C1078.25 238.92 1078.54 239.51 1078.82 240.09C1078.99 240.45 1079.14 240.79 1079.3 241.09C1079.56 241.683 1079.81 242.283 1080.05 242.89C1080.17 243.19 1080.29 243.5 1080.4 243.8C1080.63 244.42 1080.85 245.07 1081.04 245.71C1081.11 245.92 1081.18 246.16 1081.25 246.39C1081.47 247.15 1081.67 247.96 1081.85 248.82C1081.85 249.02 1081.94 249.23 1081.98 249.43C1082.15 250.35 1082.29 251.24 1082.38 252.11C1082.38 252.33 1082.38 252.49 1082.43 252.65C1082.52 253.65 1082.55 254.65 1082.54 255.58C1082.52 256.583 1082.45 257.584 1082.33 258.58L1082.24 259.24C1082.1 260.227 1081.9 261.206 1081.64 262.17C1081.64 262.33 1081.54 262.54 1081.48 262.72C1081.26 263.513 1080.99 264.295 1080.68 265.06C1080.59 265.29 1080.5 265.53 1080.39 265.77C1080.02 266.631 1079.61 267.472 1079.16 268.29C1079.01 268.55 1078.89 268.76 1078.76 268.96C1078.38 269.59 1077.98 270.22 1077.54 270.82C1077.43 270.99 1077.29 271.18 1077.14 271.38C1076.59 272.12 1076.02 272.8 1075.43 273.45C1075.25 273.65 1075.05 273.86 1074.85 274.06C1074.4 274.54 1073.93 275 1073.46 275.43L1072.8 276.03C1072.3 276.47 1071.68 276.97 1070.98 277.5L1070.26 278.03C1069.72 278.42 1069.26 278.75 1068.73 279.03L1067.68 279.69C1067.19 279.98 1066.68 280.29 1066.14 280.58L1065.14 281.09L1063.74 281.79L1062.18 282.5L1061.02 283L1059.82 283.48L1058.55 283.95C1057.92 284.18 1057.25 284.41 1056.55 284.64L1055.6 284.94C1054.09 285.42 1052.42 285.89 1050.68 286.33L1049.99 286.5C1048.21 286.93 1046.36 287.33 1044.47 287.7L1044.12 287.76C1030.3 290.38 1011.69 291.65 985.69 291.76C992.81 314.02 996.88 338.81 997.8 365.64C998.13 372.09 996.39 400.58 946.89 437.79C927.28 452.54 898.7 468.43 871.13 480.01L870.88 480.56C868.39 486.02 866.24 490.73 864.29 496.16C863.72 497.77 863.18 499.38 862.67 501.03C872.44 505.8 880.15 512.51 885.32 520.85C888.431 525.774 890.873 531.091 892.58 536.66H893.44C899.66 536.66 908.88 538.87 917.5 549.41C925.22 558.85 930.32 566.99 933.13 574.52C942.13 575.8 951.22 577.39 959.57 579.18C965.44 570.93 972.71 569.49 977.06 569.49C979.841 569.528 982.588 570.114 985.142 571.213C987.697 572.313 990.011 573.906 991.95 575.9C992.454 576.431 992.922 576.995 993.35 577.59C996.35 581.88 997.87 587.16 997.84 593.59L1000.12 593.28C1001.96 593.019 1003.82 592.886 1005.68 592.88C1016.15 592.88 1021.82 597.55 1024.73 601.47C1026.6 604.057 1027.85 607.039 1028.39 610.185C1028.92 613.331 1028.73 616.559 1027.83 619.62C1027.62 620.321 1027.35 621.006 1027.04 621.67C1026.61 622.574 1026.13 623.449 1025.59 624.29C1029.51 626.757 1032.5 630.448 1034.1 634.79C1035.22 638.016 1035.53 641.47 1034.99 644.843C1034.46 648.216 1033.09 651.403 1031.02 654.12C1030.58 654.709 1030.09 655.261 1029.56 655.77C1025.67 659.56 1020.51 661.88 1013.9 662.77C1015.38 667.751 1014.89 673.11 1012.53 677.741C1010.18 682.371 1006.13 685.919 1001.23 687.65C1000.54 687.9 999.837 688.1 999.12 688.25C997.616 688.555 996.085 688.709 994.55 688.71C988.09 688.71 981.35 686.16 973.69 680.78C973.19 680.9 972.69 681 972.17 681.1C970.56 681.408 968.934 681.622 967.3 681.74C967.3 682.13 967.3 682.51 967.35 682.9C967.528 686.842 967.38 690.792 966.91 694.71C977.91 696.01 986.99 699.71 994.06 705.78C994.6 706.25 995.13 706.72 995.64 707.21C995.83 707.38 996.04 707.59 996.25 707.81C996.97 708.52 997.7 709.3 998.4 710.1L999.29 711.15C999.63 711.57 999.95 711.98 1000.29 712.4C1000.63 712.82 1001.14 713.56 1001.54 714.17L1001.59 714.24C1001.8 714.55 1002.01 714.86 1002.22 715.24C1002.69 715.97 1003.17 716.8 1003.67 717.71L1004.1 718.53C1004.66 719.62 1005.1 720.61 1005.54 721.53C1007.47 725.941 1008.82 730.588 1009.54 735.35C1009.71 736.5 1009.83 737.67 1009.91 738.82C1010.06 741.091 1010.05 743.371 1009.85 745.64C1009.76 746.76 1009.62 747.88 1009.44 748.98C1004.49 779.18 970.53 794.74 940.56 808.48C926.65 814.85 912.26 821.48 905.68 827.64C905.195 828.082 904.741 828.557 904.32 829.06C904.046 829.372 903.798 829.707 903.58 830.06C903.475 830.213 903.387 830.377 903.32 830.55C896.94 853.26 885.96 868.16 870.69 874.82C869.127 875.498 867.528 876.089 865.9 876.59C862.103 877.747 858.175 878.419 854.21 878.59C853.87 878.59 853.52 878.59 853.21 878.59H852.09H850.71H850.6H849.82L848.58 878.51H848.28C847.63 878.51 846.98 878.41 846.34 878.34H846.08C845.45 878.27 844.86 878.19 844.26 878.1H843.98L842.33 877.83L841.76 877.73C841.18 877.63 840.53 877.5 839.88 877.36C839.23 877.22 838.31 877 837.41 876.75L836.69 876.55C835.76 876.28 834.94 876.02 834.15 875.75L833.82 875.63C833.086 875.37 832.356 875.09 831.63 874.79L831.14 874.58L830.14 874.16L829.96 874.08C829.52 873.88 829.1 873.7 828.69 873.5L828.25 873.28C827.64 872.99 826.96 872.64 826.25 872.28L825.78 872.03C825.01 871.6 824.27 871.18 823.53 870.74L823.19 870.53C822.46 870.09 821.81 869.68 821.19 869.25L820.78 868.99C820.08 868.52 819.38 867.99 818.69 867.53L818.26 867.22C817.62 866.76 816.99 866.28 816.35 865.79C816.28 865.74 815.46 865.09 815.45 865.07C814.99 864.71 814.54 864.33 814.08 863.95L813.66 863.6C813.03 863.07 812.41 862.52 811.79 861.97L811.66 861.85C811 861.26 810.35 860.64 809.66 860.02L809.3 859.67C808.02 858.44 806.75 857.13 805.51 855.78L805.23 855.48L804.32 854.48L803.38 853.41L803.28 853.29C802.69 852.61 802.14 851.94 801.59 851.29L801.37 851.03C800.79 850.31 800.21 849.58 799.64 848.84L799.53 848.69C798.99 847.99 798.45 847.26 797.92 846.53L797.74 846.28C797.28 845.65 796.79 844.95 796.31 844.28C795.83 844.99 795.31 845.69 794.82 846.39L794.7 846.57C794.17 847.3 793.62 848.03 793.07 848.75L793.01 848.83C792.41 849.61 791.83 850.34 791.25 851.07L791 851.36C790.46 852.03 789.88 852.72 789.3 853.36L789.22 853.44L788.31 854.44L787.24 855.63L787.14 855.74C785.87 857.12 784.59 858.43 783.32 859.66L782.95 860.02C782.31 860.63 781.66 861.25 781 861.84L780.87 861.95C780.25 862.51 779.62 863.06 778.99 863.59L778.58 863.94C778.13 864.31 777.69 864.68 777.25 865.03L776.55 865.59L776.27 865.8C775.62 866.31 775.01 866.8 774.4 867.21L773.94 867.55C773.26 868.03 772.55 868.55 771.83 869C771.71 869.094 771.583 869.177 771.45 869.25C770.82 869.67 770.17 870.08 769.52 870.47L769.05 870.76C768.37 871.17 767.63 871.59 766.89 872L766.39 872.27C765.71 872.63 765.03 872.98 764.34 873.27L763.99 873.44C763.56 873.65 763.15 873.83 762.73 874.02L762.58 874.09L761.58 874.53L761.17 874.7C760.37 875.02 759.65 875.3 758.93 875.56L758.52 875.7C757.77 875.96 756.95 876.23 756.06 876.48L755.28 876.7C754.4 876.94 753.62 877.13 752.86 877.3C752.1 877.47 751.54 877.57 750.86 877.69L750.36 877.77L748.82 878.02L748.4 878.08C747.84 878.16 747.24 878.24 746.64 878.3H746.37C745.73 878.37 745.07 878.43 744.42 878.47H744.12L742.81 878.55H742.11H741.75H740.69L740.67 878.61Z" fill="#231F20"/>
<path d="M795.99 818.87C869.356 818.87 928.83 754.605 928.83 675.33C928.83 596.055 869.356 531.79 795.99 531.79C722.625 531.79 663.15 596.055 663.15 675.33C663.15 754.605 722.625 818.87 795.99 818.87Z" fill="#7D5A53"/>
<path d="M932.53 715.62C945.53 712.76 954.4 703.251 952.1 679.041C949.71 653.881 931.1 658.421 931.1 658.421C942.42 652.161 943.93 640.421 936.9 616.421C929.87 592.421 916.62 600.421 916.62 600.421C924.5 589.621 921.43 577.87 905.89 558.87C892.01 541.87 879.29 559.541 876.73 563.501C878.52 560.371 884.29 547.62 872.57 528.72C859.01 506.86 825.02 507.831 825.02 507.831L800.95 512.271L777.46 505.41C777.46 505.41 743.75 501 728.04 521.41C714.46 539.02 718.91 552.301 720.37 555.581C718.23 551.391 707.37 532.581 691.83 548.021C674.44 565.351 670.19 576.731 676.94 588.271C676.94 588.271 664.57 579.01 655.14 602.14C645.71 625.27 646.03 637.09 656.66 644.47C656.66 644.47 638.66 638.061 633.71 662.861C628.97 686.701 636.8 697.071 649.47 701.231C646.69 700.581 640.74 700.17 636.97 706.99C631.97 716.13 629.97 727.101 651.12 753.461C700.5 814.861 785.96 807.131 785.96 807.131C785.96 807.131 871.48 828.2 925.55 767.41C948.04 742.14 948.44 732.231 944.34 722.611C941.32 715.451 935.37 715.25 932.53 715.62Z" fill="#7D5A53"/>
<path d="M786 807.13C786 807.13 871.52 828.2 925.59 767.41C948.08 742.14 948.48 732.23 944.38 722.62C941.32 715.45 935.38 715.25 932.53 715.62C945.53 712.76 954.4 703.25 952.1 679.04C949.71 653.88 931.1 658.42 931.1 658.42C942.42 652.16 943.93 640.42 936.9 616.42C929.87 592.42 916.62 600.42 916.62 600.42C918.583 597.909 919.912 594.962 920.493 591.829C921.074 588.695 920.892 585.468 919.96 582.42C900.4 615.09 833.73 693.63 642.1 701.82C639.891 702.934 638.093 704.724 636.97 706.93C631.97 716.07 629.97 727.04 651.12 753.4C700.54 814.86 786 807.13 786 807.13Z" fill="#70453F"/>
<path d="M795.99 810.33C864.986 810.33 920.92 749.889 920.92 675.33C920.92 600.772 864.986 540.33 795.99 540.33C726.993 540.33 671.06 600.772 671.06 675.33C671.06 749.889 726.993 810.33 795.99 810.33Z" fill="#3C2415"/>
<path d="M795.99 807.16C863.369 807.16 917.99 748.138 917.99 675.33C917.99 602.522 863.369 543.5 795.99 543.5C728.611 543.5 673.99 602.522 673.99 675.33C673.99 748.138 728.611 807.16 795.99 807.16Z" fill="#F5E099"/>
<path d="M859.82 568.34C882.3 591.87 898.59 623.41 898.59 658.09C898.59 730.89 831.92 789.92 776.59 789.92C755.2 789.92 732.12 781.09 711.84 766.06C735.73 791.38 767.38 807.16 796 807.16C851.34 807.16 918 748.16 918 675.33C917.99 631.28 891.71 592.28 859.82 568.34Z" fill="#F0CC6D"/>
<path d="M723.61 437.19C738.35 489.46 752.4 479.44 755.61 569.65C755.61 569.65 757.18 584.65 797.43 584.65C837.68 584.65 839.25 569.65 839.25 569.65C842.46 479.44 856.51 489.46 871.25 437.19H723.61Z" fill="#49BEA2"/>
<path d="M850.2 491.13C856.07 474.74 863.56 464.41 871.2 437.19H723.61C731.3 464.44 738.79 474.77 744.66 491.19C763.81 498.06 782.51 502.53 797.66 502.53C812.81 502.53 831.21 498.01 850.2 491.13Z" fill="#3D9480"/>
<path d="M871.23 437.191C859.005 439.103 846.688 440.384 834.331 441.03C822.031 441.75 809.72 442.08 797.42 442.09C785.12 442.1 772.821 441.76 760.521 441.09C748.159 440.451 735.838 439.166 723.61 437.24C735.838 435.315 748.159 434.03 760.521 433.39C772.821 432.67 785.12 432.337 797.42 432.39C809.72 432.39 822.031 432.73 834.331 433.45C846.687 434.063 859.003 435.312 871.23 437.191V437.191Z" fill="#231F20"/>
<path d="M797.64 483.53C756.37 483.53 688.59 450.31 657.36 425.81C609.79 388.7 612.43 366.33 612.43 366.33C619.11 168.97 797.64 171.4 797.64 171.4C797.64 171.4 976.17 168.97 982.85 366.33C982.85 366.33 984.72 390.62 937.92 425.81C906.2 449.66 838.9 483.53 797.64 483.53Z" fill="#49BEA2"/>
<path opacity="0.49" d="M967.9 286.29C923.69 169.7 797.601 171.4 797.601 171.4C797.601 171.4 619.071 168.97 612.391 366.33C612.391 366.33 609.75 388.7 657.32 425.81C688.55 450.31 756.321 483.53 797.601 483.53C803.284 483.476 808.953 482.951 814.55 481.96C694.55 407.39 709.43 286.29 709.43 286.29H967.9Z" fill="#3D9480"/>
<path d="M652.51 381.51C652.51 381.51 674.18 391.93 676.4 373.4" stroke="#231F20" stroke-width="5.89" stroke-miterlimit="10" stroke-linecap="round"/>
<path d="M914.41 381.51C895.16 402.77 872.94 396.69 850.47 398.37C828 400.05 798.28 427.06 793.39 427.06C788.5 427.06 758.78 400.06 736.31 398.37C713.84 396.68 691.62 402.77 672.37 381.51" stroke="#231F20" stroke-width="5.89" stroke-miterlimit="10" stroke-linecap="round"/>
<path d="M934.27 381.51C934.27 381.51 912.6 391.93 910.38 373.4" stroke="#231F20" stroke-width="5.89" stroke-miterlimit="10" stroke-linecap="round"/>
<path d="M793.391 424.16C793.391 424.16 782.87 359.33 797.63 316.93" stroke="#231F20" stroke-width="5.89" stroke-miterlimit="10" stroke-linecap="round"/>
<path d="M780.58 381.86C780.312 381.869 780.045 381.832 779.79 381.75L779.61 381.7H779.52L779.21 381.57L778.83 381.37C778.63 381.25 778.45 381.14 778.31 381.04C778.01 380.83 777.76 380.63 777.52 380.43C777.04 380.04 776.61 379.65 776.19 379.27C775.36 378.49 774.58 377.71 773.82 376.92C772.29 375.35 770.82 373.75 769.41 372.14C768.993 371.723 768.76 371.159 768.76 370.57C768.76 369.981 768.993 369.416 769.41 369C769.826 368.584 770.391 368.35 770.98 368.35C771.569 368.35 772.133 368.584 772.55 369V369C774.13 370.41 775.71 371.8 777.31 373.12C778.11 373.78 778.92 374.42 779.72 375.01C780.12 375.3 780.52 375.59 780.9 375.83C781.08 375.95 781.27 376.06 781.42 376.14L781.58 376.21L781.46 376.16L781.28 376.1C781.057 376.031 780.823 376.001 780.59 376.01C781.341 376.054 782.047 376.383 782.564 376.931C783.08 377.478 783.368 378.202 783.368 378.955C783.368 379.708 783.08 380.432 782.564 380.979C782.047 381.526 781.341 381.856 780.59 381.9L780.58 381.86Z" fill="#231F20"/>
<path d="M806.49 375.97C806.254 375.962 806.017 375.993 805.791 376.06L805.621 376.12L805.49 376.17L805.66 376.1L806.18 375.79C806.55 375.55 806.961 375.26 807.351 374.97C808.151 374.38 808.96 373.74 809.76 373.08C811.36 371.76 812.951 370.37 814.521 368.96C814.946 368.592 815.495 368.398 816.058 368.418C816.62 368.438 817.154 368.67 817.553 369.068C817.951 369.465 818.185 369.998 818.207 370.56C818.229 371.123 818.037 371.673 817.67 372.1C816.23 373.71 814.78 375.31 813.26 376.88C812.5 377.67 811.72 378.45 810.88 379.23C810.46 379.61 810.041 380 809.561 380.39C809.305 380.607 809.037 380.81 808.76 381L808.25 381.33L807.871 381.53L807.55 381.66H807.47L807.291 381.71C807.035 381.791 806.768 381.828 806.5 381.82C806.099 381.843 805.697 381.784 805.32 381.647C804.942 381.509 804.597 381.296 804.304 381.02C804.012 380.745 803.779 380.412 803.62 380.043C803.461 379.674 803.379 379.277 803.379 378.875C803.379 378.473 803.461 378.075 803.62 377.706C803.779 377.337 804.012 377.005 804.304 376.729C804.597 376.453 804.942 376.24 805.32 376.102C805.697 375.965 806.099 375.906 806.5 375.93L806.49 375.97Z" fill="#231F20"/>
<path d="M851.437 221.198C856.069 216.567 853.729 206.718 846.212 199.2C838.694 191.683 828.845 189.343 824.214 193.975C819.582 198.606 821.921 208.456 829.439 215.973C836.957 223.491 846.806 225.83 851.437 221.198Z" fill="#3D9480"/>
<path d="M846.107 250.169C850.165 247.26 849.755 239.742 845.191 233.377C840.628 227.013 833.64 224.212 829.582 227.121C825.525 230.03 825.934 237.548 830.498 243.912C835.061 250.277 842.05 253.078 846.107 250.169Z" fill="#3D9480"/>
<path d="M661.504 269.585C665.779 263.023 665.852 255.495 661.669 252.77C657.486 250.045 650.629 253.155 646.355 259.717C642.08 266.279 642.007 273.808 646.19 276.533C650.373 279.258 657.23 276.147 661.504 269.585Z" fill="#3D9480"/>
<path d="M871.94 242.933C874.542 239.889 872.788 234.12 868.023 230.047C863.257 225.974 857.286 225.14 854.684 228.184C852.083 231.228 853.837 236.997 858.602 241.07C863.367 245.142 869.339 245.976 871.94 242.933Z" fill="#3D9480"/>
<path d="M581.34 615.291C581.34 615.291 578.62 606.29 592.69 608.14C606.76 609.99 618.69 612.43 618.69 612.43L612.61 627.16C612.61 627.16 585.7 624.571 581.34 615.291Z" fill="#58595B"/>
<path d="M575.699 645.02C575.699 645.02 569.98 637.52 583.81 634.34C597.64 631.16 609.65 629.22 609.65 629.22L609.13 645.14C609.13 645.14 583.049 652.18 575.699 645.02Z" fill="#58595B"/>
<path d="M598.71 673.581C598.71 673.581 589.84 670.34 599.78 660.21C609.72 650.08 618.78 641.98 618.78 641.98L626.93 655.67C626.93 655.67 608.76 675.651 598.71 673.581Z" fill="#58595B"/>
<path d="M613.7 586.26C613.7 586.26 620.22 579.44 625.51 592.61C630.8 605.78 634.59 617.331 634.59 617.331L618.78 619.331C618.78 619.331 607.77 594.63 613.7 586.26Z" fill="#58595B"/>
<path d="M596.09 637.86C596.09 637.86 593.96 605.47 625.2 597.03C656.44 588.59 703.26 583.71 715.7 587.82C728.14 591.93 737.83 606.22 738.48 612.82C739.13 619.42 745.39 634.37 715.71 644.74C686.03 655.11 642.54 669.74 625.51 666.42C608.48 663.1 597.29 649.07 596.09 637.86Z" fill="#49BEA2"/>
<path opacity="0.49" d="M625.51 666.4C642.51 669.73 686.04 655.1 715.71 644.72C727.83 640.49 733.95 635.49 736.92 630.61C628.66 667.61 603.09 636.84 597.51 625.2C596.446 629.323 595.968 633.575 596.09 637.831C597.29 649.071 608.47 663.07 625.51 666.4Z" fill="#3D9480"/>
<path d="M797.42 639.36C820.914 639.36 839.96 636.45 839.96 632.86C839.96 629.271 820.914 626.36 797.42 626.36C773.926 626.36 754.88 629.271 754.88 632.86C754.88 636.45 773.926 639.36 797.42 639.36Z" fill="#F7A33F"/>
<path d="M797.42 741.62C820.914 741.62 839.96 738.71 839.96 735.12C839.96 731.53 820.914 728.62 797.42 728.62C773.926 728.62 754.88 731.53 754.88 735.12C754.88 738.71 773.926 741.62 797.42 741.62Z" fill="#F7A33F"/>
<path d="M797.42 694.06C829.922 694.06 856.27 691.149 856.27 687.56C856.27 683.97 829.922 681.06 797.42 681.06C764.918 681.06 738.57 683.97 738.57 687.56C738.57 691.149 764.918 694.06 797.42 694.06Z" fill="#F7A33F"/>
<path d="M752.401 313.38C753.345 318.77 753.002 324.307 751.401 329.54C749.759 334.958 746.957 339.953 743.191 344.18C739.341 348.491 734.62 351.937 729.34 354.29C728 354.83 726.651 355.38 725.271 355.85C723.891 356.32 722.481 356.65 721.061 356.98C719.641 357.31 718.191 357.46 716.751 357.65L712.391 357.89L708.041 357.65C706.601 357.46 705.16 357.22 703.72 356.97C702.28 356.72 700.91 356.22 699.51 355.84C698.11 355.46 696.79 354.84 695.45 354.28C690.169 351.931 685.448 348.484 681.601 344.17C677.843 339.941 675.043 334.951 673.391 329.54C671.79 324.307 671.447 318.77 672.391 313.38C673.291 318.446 675.007 323.333 677.47 327.85C679.828 332.131 682.918 335.966 686.601 339.18C693.734 345.447 702.905 348.903 712.401 348.903C721.896 348.903 731.067 345.447 738.2 339.18C741.88 335.967 744.97 332.136 747.331 327.86C749.783 323.335 751.495 318.446 752.401 313.38V313.38Z" fill="#231F20"/>
<path d="M922.9 313.38C923.844 318.77 923.502 324.307 921.9 329.54C920.251 334.957 917.447 339.952 913.68 344.18C909.832 348.493 905.111 351.94 899.83 354.29C898.49 354.83 897.14 355.38 895.77 355.85C894.4 356.32 892.97 356.65 891.56 356.98C890.15 357.31 888.68 357.46 887.24 357.65L882.89 357.89L878.53 357.65C877.09 357.46 875.65 357.22 874.22 356.97C872.79 356.72 871.41 356.22 870.01 355.84C868.61 355.46 867.29 354.84 865.94 354.28C860.663 351.928 855.946 348.482 852.1 344.17C848.335 339.947 845.533 334.955 843.89 329.54C842.29 324.307 841.947 318.77 842.89 313.38C843.796 318.445 845.511 323.331 847.97 327.85C850.328 332.131 853.418 335.966 857.1 339.18C864.234 345.447 873.405 348.903 882.9 348.903C892.396 348.903 901.567 345.447 908.7 339.18C912.382 335.97 915.473 332.138 917.83 327.86C920.287 323.337 921.999 318.448 922.9 313.38Z" fill="#231F20"/>
<path d="M748.34 768.101C778.13 785.001 782.59 769.981 793.82 789.351C805.96 810.281 776.99 856.77 749.73 862.59C734.38 865.86 714.09 863.07 703.8 826.5C694.9 794.7 576.9 783.86 600.9 727.43C622.83 675.98 749.73 749.7 749.73 749.7C754.53 756.86 752.57 762.671 748.34 768.101Z" fill="#49BEA2"/>
<path d="M749.04 841.67C744.94 845.35 751.73 854.671 756.57 860.311C762.034 857.755 767.054 854.341 771.44 850.2C764.56 845.27 753.12 838.02 749.04 841.67Z" fill="#58595B"/>
<path d="M749.73 862.59C750.941 862.325 752.137 861.991 753.31 861.59C750.52 856.43 745.63 849.79 740.5 849.59C735.37 849.39 735.41 857.41 736.62 863.4C741.005 863.847 745.434 863.573 749.73 862.59V862.59Z" fill="#58595B"/>
<path d="M762.311 830.04C758.901 834.25 767.691 842.37 774.081 847.64C778.27 843.38 782.016 838.706 785.26 833.69C777.36 830.41 765.251 826.4 762.311 830.04Z" fill="#58595B"/>
<path d="M776.46 819.86C772.09 824.2 780.3 829.38 786.19 832.24C788.711 828.209 790.875 823.967 792.66 819.561C787.43 818.281 779.54 816.78 776.46 819.86Z" fill="#58595B"/>
<path d="M646.25 741.86C646.25 741.86 646.4 756.29 632.93 758.25C619.46 760.21 618.22 747 621.59 743.19C624.96 739.38 630.7 740.93 632.93 744.63" stroke="#1F705F" stroke-width="3" stroke-miterlimit="10" stroke-linecap="round"/>
<path d="M679.271 735.291C678.681 735.221 678.111 735.16 677.561 735.12C677.801 735.14 678.381 735.191 679.271 735.291Z" fill="#3D9480"/>
<path d="M679.271 735.29C702.861 738.12 748.34 768.1 748.34 768.1C750.71 765.1 752.341 761.9 752.521 758.46C723.181 740.76 687.631 736.16 679.271 735.29Z" fill="#3D9480"/>
<path opacity="0.49" d="M796.2 807C757.68 870.68 719.82 833.2 714.62 818C709.42 802.8 696.62 794.2 646.25 775.26C592.01 754.86 607.8 718.26 608.31 717.15C605.077 719.941 602.54 723.447 600.9 727.39C576.85 783.8 694.9 794.66 703.8 826.46C714.09 863.03 734.38 865.82 749.73 862.55C770.73 858.11 792.75 829.48 796.2 807Z" fill="#3D9480"/>
<path d="M749.04 841.67C744.94 845.35 751.73 854.671 756.57 860.311C762.034 857.755 767.054 854.341 771.44 850.2C764.56 845.27 753.12 838.02 749.04 841.67Z" fill="#58595B"/>
<path d="M749.73 862.59C750.941 862.325 752.137 861.991 753.31 861.59C750.52 856.43 745.63 849.79 740.5 849.59C735.37 849.39 735.41 857.41 736.62 863.4C741.005 863.847 745.434 863.573 749.73 862.59V862.59Z" fill="#58595B"/>
<path d="M762.311 830.04C758.901 834.25 767.691 842.37 774.081 847.64C778.27 843.38 782.016 838.706 785.26 833.69C777.36 830.41 765.251 826.4 762.311 830.04Z" fill="#58595B"/>
<path d="M776.46 819.86C772.09 824.2 780.3 829.38 786.19 832.24C788.711 828.209 790.875 823.967 792.66 819.561C787.43 818.281 779.54 816.78 776.46 819.86Z" fill="#58595B"/>
<path d="M646.25 741.86C646.25 741.86 646.4 756.29 632.93 758.25C619.46 760.21 618.22 747 621.59 743.19C624.96 739.38 630.7 740.93 632.93 744.63" stroke="#1F705F" stroke-width="3" stroke-miterlimit="10" stroke-linecap="round"/>
<path d="M844.31 768.101C814.53 785.001 810.07 769.981 798.83 789.351C786.69 810.281 815.67 856.77 842.93 862.59C858.27 865.86 878.57 863.07 888.85 826.5C897.79 794.7 1015.8 783.84 991.76 727.43C969.82 675.98 842.93 749.7 842.93 749.7C838.13 756.86 840.08 762.671 844.31 768.101Z" fill="#49BEA2"/>
<path d="M843.61 841.67C847.72 845.35 840.93 854.671 836.08 860.311C830.621 857.752 825.604 854.339 821.22 850.2C828.1 845.27 839.54 838.02 843.61 841.67Z" fill="#58595B"/>
<path d="M842.9 862.59C841.689 862.326 840.493 861.992 839.32 861.59C842.1 856.43 846.99 849.79 852.13 849.59C857.27 849.39 857.21 857.41 856 863.4C851.619 863.847 847.194 863.573 842.9 862.59V862.59Z" fill="#58595B"/>
<path d="M830.351 830.04C833.751 834.25 824.97 842.37 818.57 847.64C814.387 843.377 810.645 838.704 807.4 833.69C815.29 830.41 827.401 826.4 830.351 830.04Z" fill="#58595B"/>
<path d="M816.2 819.86C820.56 824.2 812.36 829.38 806.46 832.24C803.947 828.207 801.786 823.965 800 819.561C805.22 818.281 813.12 816.78 816.2 819.86Z" fill="#58595B"/>
<path d="M946.41 741.86C946.41 741.86 946.261 756.29 959.731 758.25C973.201 760.21 974.44 747 971.07 743.19C967.7 739.38 961.961 740.93 959.731 744.63" stroke="#1F705F" stroke-width="3" stroke-miterlimit="10" stroke-linecap="round"/>
<path d="M913.391 735.291C913.971 735.221 914.54 735.16 915.09 735.12C914.9 735.14 914.281 735.191 913.391 735.291Z" fill="#3D9480"/>
<path d="M913.391 735.29C889.791 738.12 844.311 768.1 844.311 768.1C841.951 765.1 840.311 761.9 840.141 758.46C869.481 740.76 905.031 736.16 913.391 735.29Z" fill="#3D9480"/>
<path opacity="0.49" d="M796.46 807C834.97 870.68 872.84 833.2 878.04 818C883.24 802.8 896.04 794.2 946.41 775.26C1000.65 754.86 984.86 718.26 984.34 717.15C987.576 719.94 990.117 723.446 991.76 727.39C1015.76 783.8 897.76 794.66 888.85 826.46C878.57 863.03 858.27 865.82 842.93 862.55C821.9 858.11 799.9 829.48 796.46 807Z" fill="#3D9480"/>
<path d="M843.61 841.67C847.72 845.35 840.93 854.671 836.08 860.311C830.621 857.752 825.604 854.339 821.22 850.2C828.1 845.27 839.54 838.02 843.61 841.67Z" fill="#58595B"/>
<path d="M842.9 862.59C841.689 862.326 840.493 861.992 839.32 861.59C842.1 856.43 846.99 849.79 852.13 849.59C857.27 849.39 857.21 857.41 856 863.4C851.619 863.847 847.194 863.573 842.9 862.59V862.59Z" fill="#58595B"/>
<path d="M830.351 830.04C833.751 834.25 824.97 842.37 818.57 847.64C814.387 843.377 810.645 838.704 807.4 833.69C815.29 830.41 827.401 826.4 830.351 830.04Z" fill="#58595B"/>
<path d="M816.2 819.86C820.56 824.2 812.36 829.38 806.46 832.24C803.947 828.207 801.786 823.965 800 819.561C805.22 818.281 813.12 816.78 816.2 819.86Z" fill="#58595B"/>
<path d="M946.41 741.86C946.41 741.86 946.261 756.29 959.731 758.25C973.201 760.21 974.44 747 971.07 743.19C967.7 739.38 961.961 740.93 959.731 744.63" stroke="#1F705F" stroke-width="3" stroke-miterlimit="10" stroke-linecap="round"/>
<path d="M512 247.13C511.51 280.24 636.06 269.39 789.46 271.65C942.86 273.91 1067.03 288.461 1067.52 255.351C1068.01 222.241 944.78 144.121 791.38 141.851C637.98 139.581 512.49 214.02 512 247.13Z" fill="#EFCB6C"/>
<path d="M537.45 245.27C537.72 226.84 576.78 195.58 637.82 171.89L631.29 178.78C631.29 178.78 694.74 184.03 699.97 198.65C705.2 213.27 836.18 225.1 836.18 225.1C836.18 225.1 928.91 280.77 1060.24 238.52C1065.06 244.83 1067.59 250.52 1067.52 255.35C1067.36 266.02 1054.33 271.74 1031.63 274.52C980.68 276.39 902.57 271.09 814.9 269.8C661.5 267.53 536.96 278.38 537.45 245.27Z" fill="#E2B654"/>
<path d="M951.371 204.57C951.371 204.57 947.26 92.5697 913.42 57.1597C913.42 57.1597 844.1 15.7998 790.65 15.0098C737.2 14.2198 665.9 53.5 665.9 53.5C665.9 53.5 618.62 160.97 625.18 199.74C625.18 199.74 728.18 237.49 789.99 238.4C851.8 239.31 951.371 204.57 951.371 204.57Z" fill="#EFCB6C"/>
<path d="M625.14 199.74C621.63 178.96 633.58 138.45 645.43 105.32C682.9 136.63 782.12 203.01 951.37 204.57C951.37 204.57 851.78 239.32 789.95 238.4C728.12 237.48 625.14 199.74 625.14 199.74Z" fill="#E2B654"/>
<path d="M625.14 199.74C623.52 190.15 625.2 176.35 628.63 161.01C628.63 161.01 735.39 187.92 790.69 188.74C845.99 189.56 948.1 165.74 948.1 165.74C950.76 188.07 951.37 204.57 951.37 204.57C951.37 204.57 851.78 239.32 789.95 238.4C728.12 237.48 625.14 199.74 625.14 199.74Z" fill="#A873AC"/>
<path d="M719.59 88.8599C696.496 91.9175 673.214 93.3377 649.92 93.1099C658.46 70.3599 665.86 53.5298 665.86 53.5298C665.86 53.5298 723.21 21.95 773.6 16C770.09 45.61 758.03 83.7199 719.59 88.8599Z" fill="#CB9B3B"/>
<path d="M828.61 73.2905C816.7 61.2905 816.17 35.5805 817.39 18.2305C864.66 28.0805 913.39 57.1602 913.39 57.1602C925.39 69.7402 933.66 91.9504 939.33 115.38C907.21 109.72 843.14 87.8605 828.61 73.2905Z" fill="#CB9B3B"/>
<path d="M686.848 96.1659C693.167 84.956 692.65 72.6893 685.694 68.7677C678.737 64.8461 667.974 70.7547 661.655 81.9646C655.336 93.1745 655.853 105.441 662.81 109.362C669.767 113.284 680.529 107.376 686.848 96.1659Z" fill="white"/>
<path d="M1093.67 237.679C1096.74 233.209 1091.31 224.15 1081.55 217.445C1071.79 210.74 1061.38 208.927 1058.31 213.397C1055.25 217.866 1060.67 226.925 1070.44 233.63C1080.2 240.335 1090.6 242.148 1093.67 237.679Z" fill="white"/>
<path d="M1003.06 210.92C1005.96 210.92 1008.31 208.569 1008.31 205.67C1008.31 202.77 1005.96 200.42 1003.06 200.42C1000.16 200.42 997.81 202.77 997.81 205.67C997.81 208.569 1000.16 210.92 1003.06 210.92Z" fill="white"/>
<path d="M659.9 286.29C659.9 286.29 674.41 254.23 708.47 258.01" stroke="#231F20" stroke-width="5.89" stroke-miterlimit="10" stroke-linecap="round"/>
<path d="M934.95 286.29C934.95 286.29 920.44 254.23 886.37 258.01" stroke="#231F20" stroke-width="5.89" stroke-miterlimit="10" stroke-linecap="round"/>
<path d="M1013.51 615.291C1013.51 615.291 1016.23 606.29 1002.16 608.14C988.09 609.99 976.16 612.43 976.16 612.43L982.23 627.16C982.23 627.16 1009.14 624.571 1013.51 615.291Z" fill="#58595B"/>
<path d="M1019.14 645.02C1019.14 645.02 1024.87 637.52 1011.03 634.34C997.19 631.16 985.2 629.22 985.2 629.22L985.71 645.14C985.71 645.14 1011.79 652.18 1019.14 645.02Z" fill="#58595B"/>
<path d="M996.13 673.581C996.13 673.581 1005 670.34 995.061 660.21C985.121 650.08 976.061 641.98 976.061 641.98L967.91 655.67C967.91 655.67 986.09 675.651 996.13 673.581Z" fill="#58595B"/>
<path d="M981.14 586.26C981.14 586.26 974.62 579.44 969.33 592.61C964.04 605.78 960.26 617.331 960.26 617.331L976.07 619.331C976.07 619.331 987.07 594.63 981.14 586.26Z" fill="#58595B"/>
<path d="M998.75 637.86C998.75 637.86 1000.88 605.47 969.64 597.03C938.4 588.59 891.58 583.71 879.15 587.82C866.72 591.93 857.01 606.22 856.36 612.82C855.71 619.42 849.46 634.37 879.13 644.74C908.8 655.11 952.31 669.74 969.34 666.42C986.37 663.1 997.56 649.07 998.75 637.86Z" fill="#49BEA2"/>
<path opacity="0.49" d="M969.34 666.4C952.34 669.73 908.81 655.1 879.13 644.72C867.02 640.49 860.89 635.49 857.93 630.61C966.18 667.61 991.75 636.84 997.33 625.2C998.394 629.323 998.872 633.575 998.75 637.831C997.56 649.071 986.37 663.07 969.34 666.4Z" fill="#3D9480"/>
<path d="M954.333 600.251C954.759 596.987 946.546 593.222 935.988 591.842C925.43 590.461 916.525 591.988 916.098 595.251C915.671 598.515 923.885 602.28 934.443 603.661C945.001 605.042 953.906 603.515 954.333 600.251Z" fill="white"/>
<path d="M661.169 603.835C671.73 602.477 679.951 598.729 679.531 595.464C679.111 592.2 670.21 590.654 659.649 592.013C649.088 593.371 640.867 597.119 641.287 600.384C641.707 603.649 650.608 605.194 661.169 603.835Z" fill="white"/>
<path d="M908.23 601.42C911.549 601.42 914.24 599.992 914.24 598.23C914.24 596.468 911.549 595.04 908.23 595.04C904.911 595.04 902.22 596.468 902.22 598.23C902.22 599.992 904.911 601.42 908.23 601.42Z" fill="white"/>
<path d="M629.535 721.673C635.194 721.371 639.667 718.976 639.525 716.324C639.384 713.671 634.682 711.765 629.024 712.066C623.365 712.368 618.893 714.763 619.034 717.416C619.176 720.068 623.877 721.974 629.535 721.673Z" fill="white"/>
<path d="M784.962 784.419C785.347 782.677 782.638 780.597 778.912 779.774C775.185 778.951 771.852 779.695 771.467 781.437C771.083 783.179 773.792 785.258 777.518 786.082C781.244 786.905 784.577 786.161 784.962 784.419Z" fill="white"/>
<path d="M961.58 719.72C967.821 719.72 972.88 717.867 972.88 715.58C972.88 713.294 967.821 711.44 961.58 711.44C955.339 711.44 950.28 713.294 950.28 715.58C950.28 717.867 955.339 719.72 961.58 719.72Z" fill="white"/>
<path d="M943.47 719.99C945.95 719.99 947.96 718.736 947.96 717.19C947.96 715.643 945.95 714.39 943.47 714.39C940.991 714.39 938.98 715.643 938.98 717.19C938.98 718.736 940.991 719.99 943.47 719.99Z" fill="white"/>
<path d="M969.46 363.891C973.991 363.269 976.225 352.292 974.451 339.374C972.676 326.456 967.566 316.488 963.035 317.11C958.505 317.732 956.27 328.709 958.044 341.627C959.819 354.545 964.93 364.513 969.46 363.891Z" fill="white"/>
</g>
<defs>
<clipPath id="clip0_5667_286">
<rect width="760.12" height="713.67" fill="white" transform="translate(847 55)"/>
</clipPath>
<clipPath id="clip1_5667_286">
<rect width="713.27" height="636.17" fill="white" transform="translate(0 121)"/>
</clipPath>
<clipPath id="clip2_5667_286">
<rect width="585.52" height="878.61" fill="white" transform="translate(497)"/>
</clipPath>
</defs>
</svg>
