<svg width="557" height="722" viewBox="0 0 557 722" fill="none" xmlns="http://www.w3.org/2000/svg">
<g clip-path="url(#clip0_6730_425)">
<path d="M556.23 402.331C556.23 401.621 556.23 400.921 556.23 400.221C556.23 400.221 556.23 399.04 556.23 398.69C556.23 398.34 556.17 396.431 556.17 396.431C556.17 395.901 556.17 395.361 556.17 394.841L556.12 393.51C556.12 393 556.12 392.511 556.05 392.001C556.05 392.001 555.95 389.891 555.93 389.581L555.86 388.38L555.71 386.241C555.71 386.241 555.62 384.911 555.59 384.531C555.56 384.151 555.47 383.151 555.47 383.151L555.29 381.151C555.23 380.561 555.18 379.98 555.11 379.401C555.04 378.821 554.99 378.271 554.93 377.711L554.76 376.211C554.76 375.76 554.52 374.351 554.52 374.351C554.44 373.701 554.35 373.051 554.26 372.351L554.12 371.351C554.05 370.861 553.98 370.351 553.9 369.881L553.72 368.781C553.66 368.334 553.59 367.884 553.51 367.431L553.4 366.751C553.33 366.301 553.25 365.851 553.16 365.411L553.07 364.901L552.78 363.241L552.54 362.041C552.42 361.421 552.3 360.801 552.17 360.181L552.07 359.681L551.74 358.091L551.5 357.021C551.4 356.551 551.13 355.391 551.13 355.391C550.98 354.751 550.83 354.101 550.67 353.471C550.67 353.471 550.42 352.471 550.33 352.081L550.02 350.881C549.87 350.281 549.71 349.681 549.55 349.091L549.37 348.421C549.26 348.031 549.16 347.631 549.05 347.251L548.83 346.471C548.65 345.851 548.47 345.23 548.28 344.621L547.64 342.491C547.5 342.051 547.36 341.611 547.21 341.171L546.88 340.171C546.69 339.571 546.5 338.971 546.29 338.371L546.13 337.871L545.7 336.661L545.43 335.901L544.8 334.151L544.5 333.331C544.38 333.001 544.25 332.681 544.13 332.331L543.97 331.941C543.72 331.271 543.46 330.611 543.19 329.941C543.19 329.941 542.86 329.1 542.76 328.831L542.35 327.831C542.08 327.171 541.8 326.51 541.51 325.831L540.91 324.431L540.65 323.841C540.4 323.281 540.14 322.73 539.89 322.181L539.52 321.371C539.333 320.951 539.143 320.541 538.95 320.141L537.95 318.141C537.68 317.581 537.4 317.021 537.13 316.471L536.89 315.991L536.38 314.991L535.96 314.171C535.7 313.691 535.45 313.171 535.19 312.731L534.73 311.861L534.24 310.971L534.04 310.621L533.17 309.091C533.17 309.091 532.65 308.151 532.48 307.861L531.92 306.921L530.85 305.151C530.62 304.751 530.38 304.351 530.14 303.971L529.85 303.511L528.71 301.721L527.71 300.161C527.44 299.751 527.16 299.351 526.89 298.951L526.41 298.231C526 297.631 525.6 297.031 525.19 296.451L524.3 295.191L523.3 293.801L522.59 292.801L521.82 291.801L520.89 290.581L519.89 289.291L519.09 288.291L518.4 287.431L517.14 285.881L516.06 284.581L515.87 284.361C515.38 283.791 514.87 283.211 514.37 282.601L514.2 282.401L513.2 281.321L512.95 281.041C512.42 280.441 511.88 279.851 511.34 279.261C510.8 278.671 510.46 278.261 510.01 277.821L508.37 276.081C507.95 275.641 507.53 275.211 507.1 274.781L506.65 274.311C506.21 273.871 505.78 273.431 505.33 272.991C504.88 272.551 504.64 272.301 504.33 271.991L503.96 271.631L502.28 270.021L500.87 268.711C500.32 268.201 499.77 267.711 499.23 267.211L497.69 265.821L495.91 264.331C495.43 263.921 494.91 263.501 494.47 263.101L492.65 261.581L491.19 260.391C490.57 259.891 489.94 259.391 489.33 258.921L487.86 257.771L485.91 256.311L484.44 255.211L482.68 253.941L481.01 252.741L479.61 251.741L478.88 251.241L477.55 250.331C476.88 249.87 476.2 249.431 475.55 248.981C475.55 248.981 474.49 248.271 474.09 247.981C473.4 247.531 472.7 247.091 472 246.651L470.56 245.731L468.38 244.471L466.96 243.621L464.83 242.371L463.37 241.521L461.04 240.211L459.75 239.501C458.95 239.051 458.14 238.621 457.29 238.171L456.1 237.531L453.47 236.171L452.47 235.641L449.47 234.141L448.82 233.821C401.83 211.071 350.09 203.471 314.99 201.101C321.355 184.292 331.933 169.403 345.71 157.861C348.755 155.302 350.66 151.639 351.005 147.677C351.35 143.714 350.107 139.777 347.55 136.731L326.23 111.341C323.676 108.291 320.015 106.38 316.052 106.03C312.089 105.679 308.15 106.917 305.1 109.471C301.68 112.337 298.393 115.337 295.24 118.471C291.361 89.0107 277.94 61.632 257.03 40.5205C244.377 27.6441 229.278 17.4265 212.62 10.4681C195.963 3.50967 178.082 -0.0492333 160.03 0.000514423C149.252 -0.000225169 138.511 1.26851 128.03 3.78051C125.377 4.4258 122.951 5.78287 121.012 7.70542C119.074 9.62798 117.697 12.0431 117.03 14.6905C111.243 37.475 111.445 61.3684 117.616 84.0518C123.788 106.735 135.718 127.438 152.25 144.151C164.902 157.028 180.001 167.247 196.658 174.208C213.316 181.168 231.197 184.728 249.25 184.681C250.82 184.681 252.39 184.681 253.95 184.591C252.17 189.737 250.6 195.007 249.24 200.401C194.69 202.801 87.1798 217.54 32.6698 293.271C-5.12024 345.76 -10.1202 417.091 17.7998 505.271C31.3098 547.94 46.5098 584.711 62.9798 614.591C63.6498 615.81 64.3298 617.021 64.9798 618.211L65.0297 618.311C103.45 686.221 150.65 720.661 205.34 720.661C227.93 720.661 246.95 714.951 260.83 710.791C263.7 709.931 266.41 709.11 268.65 708.51L269.65 708.251L265.91 693.781L269.79 708.281L270.61 708.07L272.07 707.731L272.69 707.601L273.19 707.51L273.79 707.411L274.26 707.361C274.991 707.469 275.73 707.522 276.47 707.521C277.159 707.519 277.847 707.472 278.53 707.38C280.8 707.57 286.89 709.481 291.82 711.021C298.25 713.021 306.26 715.54 315.21 717.57L318.92 718.371C320.18 718.631 321.46 718.881 322.76 719.111C324.06 719.341 325.38 719.57 326.76 719.781C329.53 720.221 332.3 720.57 335.01 720.851C336.42 720.991 337.86 721.111 339.3 721.211C342.48 721.44 345.68 721.551 348.81 721.551C353.282 721.555 357.752 721.321 362.2 720.851C365.47 720.51 368.74 720.031 371.95 719.421C374.45 718.951 376.95 718.421 379.43 717.771C381.12 717.341 382.82 716.871 384.49 716.371C385.34 716.121 386.18 715.851 387.04 715.581C388.74 715.031 390.46 714.431 392.16 713.801C395.62 712.511 399.1 711.031 402.5 709.421C408.84 706.392 414.943 702.892 420.76 698.951C423.38 697.18 426.02 695.271 428.6 693.291C471.07 660.641 507.66 598.411 537.35 508.291C537.346 508.244 537.346 508.197 537.35 508.151C538.083 505.917 538.793 503.704 539.48 501.51L539.68 500.891L540.19 499.19C540.65 497.72 541.09 496.261 541.53 494.801L541.88 493.611C541.98 493.271 542.33 492.021 542.33 492.021C542.71 490.721 543.08 489.421 543.44 488.141L543.91 486.471L544.24 485.251C544.58 483.981 544.92 482.73 545.24 481.461L545.97 478.641C546.34 477.211 546.68 475.801 547.02 474.371C547.02 474.371 547.35 473.071 547.43 472.721L547.89 470.721C548.22 469.291 548.55 467.871 548.89 466.471L549.53 463.471C549.76 462.401 549.98 461.32 550.19 460.271L550.48 458.841L550.83 457.021C551.02 456.021 551.2 455.081 551.37 454.13C551.49 453.48 551.61 452.841 551.72 452.201L551.97 450.771C552.12 449.921 552.26 449.071 552.4 448.231L552.46 447.841C552.58 447.121 552.7 446.401 552.8 445.741L552.97 444.671C553.08 443.961 553.18 443.261 553.28 442.551L553.39 441.771C553.39 441.771 553.62 440.211 553.68 439.771L553.83 438.69C553.83 438.27 554.43 433.951 554.43 433.951L554.56 432.741C554.64 432.021 554.72 431.29 554.79 430.581L554.85 430.01C554.91 429.431 554.98 428.84 555.03 428.26C555.03 427.901 555.3 425.321 555.36 424.661C555.42 424.001 555.47 423.291 555.53 422.601C555.59 421.911 555.77 419.271 555.79 418.921C555.81 418.571 555.9 417.001 555.9 417.001C555.9 416.261 555.98 415.511 556.01 414.781C556.01 414.781 556.07 413.681 556.09 413.351L556.17 410.931C556.17 410.381 556.17 409.831 556.17 409.291V407.82C556.17 407.32 556.17 405.611 556.17 405.611C556.17 405.611 556.17 404.301 556.17 403.921C556.17 403.541 556.23 402.331 556.23 402.331Z" fill="#040809"/>
<path d="M276.42 692.52C300.79 687.87 428.58 790.12 523 503.63C623 200.13 279.22 215.23 279.22 215.23C279.22 215.23 -64.3801 196.1 32.0699 500.75C123.12 788.33 252.1 687.59 276.42 692.52Z" fill="#D91F26"/>
<path d="M278.27 674.009C300.69 669.739 418.27 763.819 505.16 500.199C597.16 220.939 280.85 234.829 280.85 234.829C280.85 234.829 -35.3197 217.219 53.4303 497.549C137.21 762.179 255.91 669.469 278.27 674.009Z" fill="#F1594B"/>
<path d="M119.75 610.659C293.46 611.659 435.11 471.659 436.13 297.969C436.242 279.371 434.72 260.8 431.58 242.469C508.08 275.279 574.58 347.049 523 503.629C428.58 790.119 300.79 687.869 276.42 692.519C255.83 688.339 160.21 759.909 76.1104 607.389C90.5643 609.483 105.146 610.575 119.75 610.659Z" fill="#D91F26"/>
<path d="M152.358 355.933C175.218 337.361 183.167 309.278 170.111 293.208C157.056 277.138 127.94 279.165 105.08 297.737C82.2195 316.308 74.271 344.391 87.3265 360.461C100.382 376.532 129.497 374.504 152.358 355.933Z" fill="#F6FAFE"/>
<path d="M79.9895 427.069C90.7425 427.069 99.4595 418.352 99.4595 407.599C99.4595 396.846 90.7425 388.129 79.9895 388.129C69.2365 388.129 60.5195 396.846 60.5195 407.599C60.5195 418.352 69.2365 427.069 79.9895 427.069Z" fill="#F6FAFE"/>
<path d="M438.751 260.775C439.804 255.376 434.37 249.773 426.613 248.259C418.856 246.746 411.714 249.896 410.66 255.295C409.607 260.694 415.041 266.297 422.798 267.811C430.555 269.324 437.697 266.174 438.751 260.775Z" fill="#F6FAFE"/>
<path d="M203.61 261.248C203.56 269.338 227.74 284.398 260.48 288.918C271.642 290.482 282.953 290.67 294.16 289.478C328.42 285.878 354.24 270.478 354.28 262.128C354.34 253.528 327.05 246.248 291.28 244.708C287.28 244.528 283.23 244.428 279.08 244.398C271.79 244.398 264.75 244.558 258.08 244.958C226.65 246.858 203.66 253.368 203.61 261.248Z" fill="#D91F26"/>
<path d="M210.13 270.301C221.95 264.351 248.33 260.301 278.95 260.491C309.57 260.681 335.95 265.021 347.66 271.101C335.82 280.281 309.4 290.431 278.78 290.251C248.16 290.071 221.91 279.611 210.13 270.301Z" fill="#951B1E"/>
<path d="M246.36 51.0686C261.076 65.9456 271.696 84.3744 277.189 104.566C282.682 124.758 282.861 146.027 277.71 166.309L131.49 18.3686C151.832 13.4527 173.099 13.8803 193.226 19.61C213.354 25.3396 231.657 36.1766 246.36 51.0686Z" fill="#9FCC3B"/>
<path d="M131.49 18.3711L277.71 166.311C257.368 171.216 236.104 170.784 215.979 165.055C195.854 159.327 177.55 148.497 162.841 133.615C148.132 118.732 137.516 100.303 132.023 80.112C126.531 59.9212 126.347 38.6539 131.49 18.3711Z" fill="#63B446"/>
<path d="M155.54 84.4103C160.743 84.4103 164.96 80.1928 164.96 74.9903C164.96 69.7878 160.743 65.5703 155.54 65.5703C150.338 65.5703 146.12 69.7878 146.12 74.9903C146.12 80.1928 150.338 84.4103 155.54 84.4103Z" fill="#F6FAFE"/>
<path d="M260.48 288.92C271.641 290.484 282.953 290.672 294.16 289.48C291.591 274.731 290.616 259.748 291.25 244.79V244.71C293.19 202.78 308.25 169.71 336.06 146.37L314.74 120.98C279.74 150.33 260.18 192.98 258.08 244.41C258.08 244.59 258.08 244.78 258.08 244.96C257.538 259.656 258.341 274.371 260.48 288.92Z" fill="#63B446"/>
<path d="M471.05 264.09C528.05 303.67 565.37 375.09 523.05 503.63C428.58 790.12 300.79 687.87 276.42 692.52C612.84 489.93 471.05 264.09 471.05 264.09Z" fill="#951B1E"/>
<path d="M105.25 519.612C117.25 571.662 173.49 676.772 218.74 656.722C218.74 656.722 262.89 640.042 234.27 611.092C215.27 591.832 203.15 537.192 197.19 502.782C195.779 494.603 191.46 487.209 185.028 481.963C178.597 476.717 170.486 473.971 162.19 474.232L139.64 474.912C134.25 475.083 128.964 476.448 124.164 478.907C119.364 481.366 115.168 484.858 111.879 489.133C108.591 493.408 106.29 498.358 105.144 503.628C103.998 508.899 104.034 514.357 105.25 519.612Z" fill="#F16465"/>
<path d="M199.55 366.061C318 382.881 377.62 359.581 406.86 336.881C410.503 334.069 413.342 330.347 415.091 326.089C416.84 321.832 417.436 317.189 416.821 312.628C416.206 308.067 414.4 303.748 411.586 300.106C408.772 296.464 405.048 293.627 400.79 291.881L399.91 291.471C395.328 289.621 390.349 288.975 385.447 289.597C380.545 290.218 375.884 292.086 371.91 295.021C353.84 308.191 309.06 326.721 206.61 312.021C203.001 311.504 199.325 311.718 195.801 312.649C192.276 313.581 188.975 315.211 186.093 317.443C183.211 319.675 180.806 322.464 179.023 325.643C177.239 328.822 176.112 332.328 175.71 335.951C173.99 350.741 184.91 363.971 199.55 366.061Z" fill="#F16465"/>
<path d="M478.146 311.261C483.406 298.453 472.791 281.959 454.435 274.42C436.08 266.88 416.935 271.151 411.675 283.958C406.414 296.766 417.03 313.26 435.385 320.8C453.741 328.339 472.885 324.068 478.146 311.261Z" fill="#F6FAFE"/>
<path d="M276.42 692.52C300.79 687.87 428.58 790.12 523 503.63C623 200.13 279.22 215.23 279.22 215.23C279.22 215.23 -64.3801 196.1 32.0699 500.75C123.12 788.33 252.1 687.59 276.42 692.52Z" fill="#D91F26"/>
<path d="M278.27 674.009C300.69 669.739 418.27 763.819 505.16 500.199C597.16 220.939 280.85 234.829 280.85 234.829C280.85 234.829 -35.3197 217.219 53.4303 497.549C137.21 762.179 255.91 669.469 278.27 674.009Z" fill="#F1594B"/>
<path d="M119.75 610.659C293.46 611.659 435.11 471.659 436.13 297.969C436.242 279.371 434.72 260.8 431.58 242.469C508.08 275.279 574.58 347.049 523 503.629C428.58 790.119 300.79 687.869 276.42 692.519C255.83 688.339 160.21 759.909 76.1104 607.389C90.5643 609.483 105.146 610.575 119.75 610.659Z" fill="#D91F26"/>
<path d="M152.358 355.933C175.218 337.361 183.167 309.278 170.111 293.208C157.056 277.138 127.94 279.165 105.08 297.737C82.2195 316.308 74.271 344.391 87.3265 360.461C100.382 376.532 129.497 374.504 152.358 355.933Z" fill="#F6FAFE"/>
<path d="M79.9895 427.069C90.7425 427.069 99.4595 418.352 99.4595 407.599C99.4595 396.846 90.7425 388.129 79.9895 388.129C69.2365 388.129 60.5195 396.846 60.5195 407.599C60.5195 418.352 69.2365 427.069 79.9895 427.069Z" fill="#F6FAFE"/>
<path d="M438.751 260.775C439.804 255.376 434.37 249.773 426.613 248.259C418.856 246.746 411.714 249.896 410.66 255.295C409.607 260.694 415.041 266.297 422.798 267.811C430.555 269.324 437.697 266.174 438.751 260.775Z" fill="#F6FAFE"/>
<path d="M203.61 261.248C203.56 269.338 227.74 284.398 260.48 288.918C271.642 290.482 282.953 290.67 294.16 289.478C328.42 285.878 354.24 270.478 354.28 262.128C354.34 253.528 327.05 246.248 291.28 244.708C287.28 244.528 283.23 244.428 279.08 244.398C271.79 244.398 264.75 244.558 258.08 244.958C226.65 246.858 203.66 253.368 203.61 261.248Z" fill="#D91F26"/>
<path d="M210.13 270.301C221.95 264.351 248.33 260.301 278.95 260.491C309.57 260.681 335.95 265.021 347.66 271.101C335.82 280.281 309.4 290.431 278.78 290.251C248.16 290.071 221.91 279.611 210.13 270.301Z" fill="#951B1E"/>
<path d="M246.36 51.0686C261.076 65.9456 271.696 84.3744 277.189 104.566C282.682 124.758 282.861 146.027 277.71 166.309L131.49 18.3686C151.832 13.4527 173.099 13.8803 193.226 19.61C213.354 25.3396 231.657 36.1766 246.36 51.0686Z" fill="#9FCC3B"/>
<path d="M131.49 18.3711L277.71 166.311C257.368 171.216 236.104 170.784 215.979 165.055C195.854 159.327 177.55 148.497 162.841 133.615C148.132 118.732 137.516 100.303 132.023 80.112C126.531 59.9212 126.347 38.6539 131.49 18.3711Z" fill="#63B446"/>
<path d="M155.54 84.4103C160.743 84.4103 164.96 80.1928 164.96 74.9903C164.96 69.7878 160.743 65.5703 155.54 65.5703C150.338 65.5703 146.12 69.7878 146.12 74.9903C146.12 80.1928 150.338 84.4103 155.54 84.4103Z" fill="#F6FAFE"/>
<path d="M260.48 288.92C271.641 290.484 282.953 290.672 294.16 289.48C291.591 274.731 290.616 259.748 291.25 244.79V244.71C293.19 202.78 308.25 169.71 336.06 146.37L314.74 120.98C279.74 150.33 260.18 192.98 258.08 244.41C258.08 244.59 258.08 244.78 258.08 244.96C257.538 259.656 258.341 274.371 260.48 288.92Z" fill="#63B446"/>
<path d="M471.05 264.09C528.05 303.67 565.37 375.09 523.05 503.63C428.58 790.12 300.79 687.87 276.42 692.52C612.84 489.93 471.05 264.09 471.05 264.09Z" fill="#951B1E"/>
<path d="M77.2699 513.08C89.2699 565.08 145.51 670.24 190.76 650.19C190.76 650.19 234.9 633.51 206.29 604.56C187.29 585.3 175.17 530.66 169.21 496.25C167.797 488.072 163.477 480.68 157.046 475.434C150.615 470.188 142.505 467.442 134.21 467.7L111.66 468.38C106.269 468.552 100.984 469.916 96.1834 472.375C91.3831 474.834 87.1877 478.327 83.8989 482.601C80.6102 486.876 78.3099 491.827 77.1637 497.097C76.0174 502.367 76.0537 507.826 77.2699 513.08Z" fill="#F16465"/>
<path d="M199.55 366.061C318 382.881 377.62 359.581 406.86 336.881C410.503 334.069 413.342 330.347 415.091 326.089C416.84 321.832 417.436 317.189 416.821 312.628C416.206 308.067 414.4 303.748 411.586 300.106C408.772 296.464 405.048 293.627 400.79 291.881L399.91 291.471C395.328 289.621 390.349 288.975 385.447 289.597C380.545 290.218 375.884 292.086 371.91 295.021C353.84 308.191 309.06 326.721 206.61 312.021C203.001 311.504 199.325 311.718 195.801 312.649C192.276 313.581 188.975 315.211 186.093 317.443C183.211 319.675 180.806 322.464 179.023 325.643C177.239 328.822 176.112 332.328 175.71 335.951C173.99 350.741 184.91 363.971 199.55 366.061Z" fill="#F16465"/>
<path d="M478.146 311.261C483.406 298.453 472.791 281.959 454.435 274.42C436.08 266.88 416.935 271.151 411.675 283.958C406.414 296.766 417.03 313.26 435.385 320.8C453.741 328.339 472.885 324.068 478.146 311.261Z" fill="#F6FAFE"/>
<path d="M173.59 463.181C173.59 463.181 199.43 435.511 233.59 458.571" stroke="#231F20" stroke-width="5.42" stroke-miterlimit="10" stroke-linecap="round"/>
<path d="M386.06 463.181C386.06 463.181 360.23 435.511 326.06 458.571" stroke="#231F20" stroke-width="5.42" stroke-miterlimit="10" stroke-linecap="round"/>
<path d="M310.91 540.07C310.91 540.07 312.91 580.31 278.51 580.31C244.11 580.31 249.01 540.07 249.01 540.07H310.91Z" fill="#19181C"/>
<path d="M254.68 568.628C258.96 575.198 266.23 580.308 278.49 580.308C291.36 580.308 299.13 574.688 303.83 567.648C298.64 562.238 289.77 558.648 279.69 558.648C269.02 558.668 259.71 562.678 254.68 568.628Z" fill="#F37270"/>
<path d="M212.57 544.891C231.541 544.891 246.92 529.512 246.92 510.541C246.92 491.57 231.541 476.191 212.57 476.191C193.599 476.191 178.22 491.57 178.22 510.541C178.22 529.512 193.599 544.891 212.57 544.891Z" fill="#F8F9E3"/>
<path d="M344.33 544.891C363.301 544.891 378.68 529.512 378.68 510.541C378.68 491.57 363.301 476.191 344.33 476.191C325.359 476.191 309.98 491.57 309.98 510.541C309.98 529.512 325.359 544.891 344.33 544.891Z" fill="#F8F9E3"/>
<path d="M178.22 510.539C177.858 505.968 178.475 501.373 180.03 497.059C181.62 492.673 184.094 488.66 187.3 485.269C190.547 481.855 194.452 479.134 198.78 477.269C203.134 475.396 207.824 474.43 212.565 474.43C217.305 474.43 221.995 475.396 226.35 477.269C230.678 479.132 234.583 481.854 237.83 485.269C241.036 488.659 243.511 492.672 245.1 497.059C246.651 501.374 247.268 505.968 246.91 510.539C246.245 501.678 242.327 493.375 235.91 487.229C229.609 481.276 221.268 477.958 212.6 477.958C203.931 477.958 195.59 481.276 189.29 487.229C182.846 493.364 178.902 501.668 178.22 510.539Z" fill="#231F20"/>
<path d="M246.91 510.539C247.268 515.111 246.647 519.706 245.09 524.019C243.504 528.408 241.029 532.421 237.82 535.809C234.578 539.225 230.676 541.947 226.35 543.809C221.994 545.683 217.302 546.649 212.56 546.649C207.818 546.649 203.126 545.683 198.77 543.809C194.443 541.95 190.54 539.228 187.3 535.809C184.091 532.425 181.616 528.414 180.03 524.029C178.472 519.716 177.852 515.121 178.21 510.549C178.874 519.41 182.792 527.713 189.21 533.859C195.518 539.802 203.858 543.112 212.525 543.112C221.192 543.112 229.532 539.802 235.84 533.859C242.286 527.721 246.229 519.414 246.91 510.539Z" fill="#231F20"/>
<path d="M203.94 523.119C216.389 523.119 226.48 513.028 226.48 500.579C226.48 488.131 216.389 478.039 203.94 478.039C191.492 478.039 181.4 488.131 181.4 500.579C181.4 513.028 191.492 523.119 203.94 523.119Z" fill="#040809"/>
<path d="M309.98 510.539C309.622 505.968 310.243 501.372 311.8 497.059C313.386 492.671 315.861 488.657 319.07 485.269C322.314 481.851 326.22 479.129 330.55 477.269C334.905 475.396 339.595 474.43 344.335 474.43C349.076 474.43 353.766 475.396 358.12 477.269C362.447 479.135 366.352 481.856 369.6 485.269C372.824 488.657 375.313 492.674 376.91 497.069C378.469 501.379 379.089 505.971 378.73 510.539C378.066 501.678 374.148 493.375 367.73 487.229C361.422 481.286 353.082 477.976 344.415 477.976C335.748 477.976 327.409 481.286 321.1 487.229C314.638 493.357 310.676 501.661 309.98 510.539Z" fill="#231F20"/>
<path d="M378.68 510.539C379.054 515.107 378.451 519.702 376.91 524.019C375.32 528.406 372.846 532.419 369.64 535.809C366.394 539.225 362.489 541.947 358.16 543.809C353.806 545.682 349.115 546.649 344.375 546.649C339.635 546.649 334.944 545.682 330.59 543.809C326.26 541.95 322.354 539.228 319.11 535.809C315.905 532.422 313.43 528.413 311.84 524.029C310.287 519.715 309.667 515.121 310.02 510.549C310.684 519.41 314.602 527.713 321.02 533.859C327.321 539.813 335.661 543.13 344.33 543.13C352.999 543.13 361.339 539.813 367.64 533.859C374.075 527.717 378.008 519.409 378.68 510.539Z" fill="#231F20"/>
<path d="M335.7 523.119C348.149 523.119 358.24 513.028 358.24 500.579C358.24 488.131 348.149 478.039 335.7 478.039C323.252 478.039 313.16 488.131 313.16 500.579C313.16 513.028 323.252 523.119 335.7 523.119Z" fill="#040809"/>
</g>
<defs>
<clipPath id="clip0_6730_425">
<rect width="556.24" height="721.56" fill="white"/>
</clipPath>
</defs>
</svg>
