<svg width="600" height="524" viewBox="0 0 600 524" fill="none" xmlns="http://www.w3.org/2000/svg">
<g clip-path="url(#clip0_7526_573)">
<path d="M579.08 259.54V259.09C579 258.39 578.89 257.65 578.74 256.91C578.74 256.73 578.67 256.55 578.63 256.38C578.47 255.65 578.3 254.97 578.11 254.32C578.06 254.15 578 253.97 577.93 253.76C577.76 253.22 577.58 252.67 577.37 252.12C577.27 251.86 577.18 251.6 577.07 251.33C576.86 250.82 576.64 250.33 576.4 249.78L576 248.91C575.75 248.39 575.48 247.91 575.21 247.36L574.63 246.36C574.47 246.07 574.3 245.78 574.14 245.52C573.8 244.94 573.44 244.36 573.05 243.77C572.92 243.56 572.79 243.35 572.66 243.16C572.2 242.47 571.66 241.78 571.2 241.07L570.93 240.7C553.86 217.55 512.69 191.96 462.66 173.24C460.666 156.75 457.717 140.389 453.83 124.24C453.47 122.79 453.1 121.34 452.7 119.84C451.95 116.98 451.15 114.14 450.33 111.4L450.21 111C449.37 108.23 448.5 105.51 447.61 102.92L447.43 102.4C447.01 101.18 446.58 99.97 446.12 98.72L446.03 98.48C445.55 97.18 445.03 95.91 444.55 94.65L444.37 94.2C443.93 93.1 443.48 92.02 443.03 90.95L442.73 90.27C442.21 89.06 441.67 87.87 441.13 86.7C441.111 86.6514 441.087 86.6046 441.06 86.56C440.55 85.46 440.06 84.38 439.49 83.33L439.08 82.53C438.56 81.53 438.08 80.53 437.49 79.53L437.31 79.21C436.74 78.21 436.14 77.15 435.48 76.07L435.02 75.33C434.51 74.5 434.02 73.69 433.45 72.89L433 72.21C432.32 71.21 431.63 70.21 431 69.37L430.59 68.84C430 68.07 429.4 67.33 428.81 66.61L428.19 65.88C427.36 64.88 426.65 64.13 425.95 63.4L425.75 63.19C425.151 62.5913 424.479 62.0705 423.75 61.64L423.1 61.26L422.65 61L422.74 61.06C410.93 54.28 349.48 20.47 299.41 20H298.34C292.726 20.0234 287.119 20.3908 281.55 21.1H281.49L279.08 21.41C242.34 26.52 203.37 44.09 183.5 54.06L180.28 55.69L177.18 57.31L176.04 57.91L180.77 66.72L175.93 57.97L174.93 58.51L173.55 59.26C171.629 60.3297 170.114 62.0027 169.24 64.02C169.24 64.02 168.96 64.66 168.47 65.82L166.1 71.48C166.1 71.48 165.1 73.88 164.63 75.06L164.02 76.57C162.08 81.33 160.15 86.22 158.31 90.99L157.52 93.06C156.57 95.52 155.6 98.06 154.61 100.75C154.61 100.75 153.78 102.98 153.76 103.02C152.26 107.1 150.76 111.15 149.42 115.02C149.42 115.02 148.35 118.09 148.34 118.11C146.06 124.67 143.95 131.11 142.04 137.17C142.04 137.17 141.36 139.4 141.04 140.33C141.04 140.33 140.34 142.65 140.04 143.46L139.11 146.62L137.97 150.62L136.97 154.05C136.78 154.75 136.12 157.23 136.12 157.23C135.93 157.92 135.3 160.4 135.3 160.4C135.12 161.1 134.52 163.53 134.52 163.53C134.34 164.25 134.17 164.97 134 165.69L133.78 166.63C133.59 167.44 133.41 168.24 133.23 169.04L133.08 169.7C133.08 169.7 132.68 171.54 132.56 172.12C102.42 183.22 74.9201 197.17 54.6401 211.69C38.9101 222.95 20.1199 239.88 19.9699 256.58C19.7699 277.33 45.18 282.63 53.53 284.37C66.62 287.1 84.17 288.7 109.3 289.37C109.14 289.75 108.98 290.12 108.83 290.49C108.6 291.05 108.38 291.61 108.16 292.17C107.86 292.93 107.56 293.69 107.28 294.45L107.22 294.59C107.03 295.09 106.84 295.59 106.66 296.09C106.35 296.94 106.06 297.78 105.76 298.64C105.76 298.64 105.37 299.73 105.27 300.05C104.83 301.35 104.4 302.67 103.99 304L103.72 304.92C103.4 305.97 103.09 307.01 102.79 308.07L102.38 309.6C102.14 310.48 101.91 311.35 101.69 312.23C101.55 312.78 101.41 313.33 101.28 313.88C101.07 314.75 100.87 315.62 100.67 316.5V316.6C100.56 317.11 100.44 317.6 100.34 318.13C100.13 319.08 99.94 320.04 99.75 321C99.75 321 99.5299 322.07 99.4699 322.39C99.1999 323.81 98.9499 325.23 98.7099 326.69L98.6401 327.18C98.4301 328.45 98.24 329.73 98.06 331.03C98.06 331.36 97.8701 332.52 97.8701 332.52C97.7367 333.5 97.6166 334.48 97.51 335.46C97.44 336.01 97.39 336.57 97.33 337.13C97.23 338.08 97.14 339.04 97.05 339.99C97 340.55 96.9601 341.11 96.9101 341.67C96.8301 342.67 96.7601 343.67 96.7001 344.75C96.7001 344.75 96.6201 345.88 96.6101 346.21C96.5201 347.7 96.4601 349.21 96.4101 350.71C96.4101 350.71 96.4101 350.79 96.4101 350.82C96.4101 352.36 96.34 353.88 96.34 355.4C96.34 355.75 96.34 356.09 96.34 356.4V356.88C96.34 357.88 96.34 358.88 96.34 359.94C96.34 360.38 96.34 360.83 96.34 361.27V361.68C96.34 362.61 96.4001 363.53 96.4501 364.45C96.4501 365.05 96.51 365.65 96.55 366.25C96.61 367.14 96.6699 368.03 96.7399 368.91C96.7399 369.5 96.8301 370.09 96.8801 370.69C96.9601 371.58 97.0501 372.47 97.1501 373.37L97.2001 373.79C97.2001 374.2 97.28 374.61 97.33 375.02C97.45 376.02 97.5799 376.96 97.7099 377.9L97.77 378.31C97.77 378.64 97.8501 378.96 97.9001 379.31C98.1101 380.71 98.33 382.1 98.58 383.47L98.6601 383.87C98.8901 385.11 99.1301 386.34 99.3901 387.57C99.4601 387.9 99.7001 388.97 99.7001 388.97C99.9001 389.85 100.1 390.72 100.31 391.59C100.42 392.04 100.54 392.49 100.65 392.93L100.72 393.18C100.92 393.98 101.13 394.77 101.35 395.57L101.81 397.17C102.04 397.95 102.27 398.71 102.52 399.49C102.68 400.01 102.85 400.54 103.02 401.06C103.27 401.83 103.54 402.6 103.81 403.38L103.95 403.78C104.07 404.14 104.2 404.49 104.33 404.85C104.64 405.69 104.96 406.52 105.28 407.34L105.42 407.71C105.53 407.99 105.63 408.27 105.75 408.55C106.23 409.76 106.75 410.96 107.26 412.16L107.58 412.84C108.01 413.84 108.44 414.74 108.89 415.68C109.05 416.01 109.21 416.34 109.38 416.68L109.54 417C109.9 417.73 110.26 418.45 110.64 419.18L111.27 420.37L111.39 420.58C111.75 421.25 112.12 421.92 112.48 422.58C112.75 423.06 113.03 423.58 113.31 424.02C113.69 424.66 114.07 425.3 114.45 425.92C114.83 426.54 115.02 426.85 115.32 427.33C115.72 427.97 116.13 428.6 116.54 429.23L116.73 429.52L117.4 430.52C117.87 431.22 118.4 431.9 118.83 432.57L119.05 432.89L119.59 433.66C120.32 434.66 121.06 435.66 121.82 436.66L122.32 437.28L122.51 437.52C123.07 438.23 123.63 438.93 124.19 439.61C124.43 439.91 124.68 440.2 124.93 440.49L125.2 440.81C125.68 441.377 126.17 441.947 126.67 442.52C127.03 442.94 127.41 443.35 127.77 443.76C128.13 444.17 128.77 444.81 129.22 445.33L130.4 446.58L131.87 448.08C132.28 448.49 132.68 448.9 133.09 449.29C133.5 449.68 134.09 450.29 134.64 450.78L134.92 451.04C135.23 451.34 135.53 451.63 135.86 451.93C136.43 452.46 137.01 452.93 137.58 453.48L137.9 453.77L138.7 454.48C139.62 455.28 140.56 456.08 141.51 456.86C141.77 457.08 142.67 457.79 142.67 457.79L144.51 459.27L145.51 460.05L145.98 460.4C146.5 460.8 146.98 461.2 147.54 461.58L149.03 462.66L150.68 463.83L152.24 464.9L153.91 466.01L155.5 467.01L157.23 468.1L157.62 468.34L158.81 469.08L160.29 469.96L161.12 470.45L162.2 471.08C163.28 471.7 164.36 472.31 165.45 472.91L166.69 473.57L167.26 473.87L168.97 474.78L170.48 475.54L170.87 475.74L172.54 476.57L174.4 477.46L176.15 478.29L178.08 479.17L179.83 479.94L181.83 480.79L183.53 481.51H183.63L185.63 482.33L187.4 483.02C188.86 483.587 190.333 484.147 191.82 484.7L193.06 485.16C193.6 485.36 194.15 485.55 194.7 485.73L197 486.54L199 487.19L201 487.85L203.23 488.55L205.02 489.1L207.29 489.78L209.08 490.29L211.4 490.94L213.63 491.54L215.56 492.05L217.09 492.43C219.27 492.98 221.32 493.43 223.38 493.94L223.65 494.01L225.65 494.46L227.88 494.94C228.65 495.11 229.43 495.26 230.2 495.42L232.2 495.82L234.75 496.32L236.56 496.65L239.14 497.11L240.92 497.42L243.57 497.86L245.28 498.13L248.04 498.55L249.26 498.73C251.78 499.09 254.14 499.41 256.44 499.73H256.63C269.54 501.34 283.27 502.38 297.42 502.82C302.42 502.98 307.42 503.05 312.3 503.05C368.81 503.05 414.16 492.76 447.08 472.45C485.72 448.62 506.08 411.95 507.57 363.45C508.36 338.16 504.22 314.45 495.25 292.81C517.39 292.43 533.61 291.13 545.65 288.81L546.03 288.73C547.79 288.39 549.52 288 551.14 287.6L551.8 287.43C553.39 287.02 554.91 286.58 556.31 286.13L557.19 285.85C557.79 285.64 558.38 285.44 558.97 285.22L560.1 284.79L561.17 284.35L562.17 283.9L563.5 283.28L564.75 282.65L565.59 282.2C566.05 281.94 566.5 281.68 566.96 281.4L567.8 280.86C568.23 280.58 568.66 280.29 569.04 280.01L569.71 279.51C570.29 279.07 570.8 278.66 571.26 278.25L571.71 277.83C572.13 277.45 572.53 277.05 572.95 276.6L573.38 276.14C573.87 275.6 574.38 275.04 574.73 274.5L575.09 274C575.45 273.49 575.79 273 576.09 272.46C576.19 272.3 576.28 272.14 576.38 271.95C576.753 271.28 577.087 270.589 577.38 269.88L577.58 269.37C577.82 268.75 578.03 268.12 578.21 267.49L578.34 267.05C578.536 266.282 578.689 265.504 578.8 264.72C578.8 264.54 578.85 264.36 578.87 264.17C578.965 263.38 579.018 262.586 579.03 261.79C579.18 261.16 579.15 260.37 579.08 259.54Z" fill="#070B0C"/>
<path d="M497.68 363.28C494.57 463.36 405.88 496.28 297.83 492.95C189.78 489.62 103.31 451.23 106.41 351.15C109.51 251.07 192.86 188.82 307.16 192.37C421.46 195.92 500.78 263.21 497.68 363.28Z" fill="white"/>
<path opacity="0.08" d="M253.77 195.8C167.77 210.21 109.01 267.44 106.41 351.15C103.7 438.55 169.33 478.89 257.97 489.93C212.21 368.37 233.67 257.54 253.77 195.8Z" fill="#2F3233"/>
<path d="M301.469 406.68L312.209 401.61C313.318 401.084 314.218 400.201 314.765 399.102C315.311 398.003 315.472 396.752 315.221 395.551C314.971 394.35 314.324 393.267 313.384 392.478C312.444 391.689 311.266 391.239 310.039 391.2L288.9 390.54C287.671 390.501 286.466 390.877 285.477 391.606C284.489 392.336 283.775 393.377 283.45 394.562C283.126 395.747 283.21 397.007 283.688 398.139C284.167 399.27 285.013 400.208 286.089 400.8L296.499 406.52C297.256 406.939 298.101 407.172 298.965 407.2C299.829 407.228 300.688 407.05 301.469 406.68Z" fill="#040809"/>
<path d="M267.92 423.32C267.92 423.32 269.2 436.22 282.92 436.64C295.8 437.04 299.2 400.48 299.2 400.48" stroke="black" stroke-width="5.77" stroke-linecap="round" stroke-linejoin="round"/>
<path d="M328.95 425.21C328.95 425.21 326.87 438.01 313.19 437.58C300.31 437.18 299.19 400.48 299.19 400.48" stroke="black" stroke-width="5.77" stroke-linecap="round" stroke-linejoin="round"/>
<path d="M146.91 322.6C146.91 322.6 137.81 404.52 200.26 416.48C262.71 428.44 279.91 365.38 285.37 331.72C290.83 298.06 268.13 266.72 213.37 261.85C158.61 256.98 146.91 322.6 146.91 322.6Z" fill="#444445"/>
<path d="M457.6 332.24C457.6 332.24 461.599 414.56 398.529 422.63C335.459 430.7 322.2 366.69 318.84 332.76C315.48 298.83 340.069 268.96 394.989 267.48C449.909 266 457.6 332.24 457.6 332.24Z" fill="#444445"/>
<path d="M217.22 380.16C239.323 380.16 257.24 362.242 257.24 340.14C257.24 318.038 239.323 300.12 217.22 300.12C195.118 300.12 177.2 318.038 177.2 340.14C177.2 362.242 195.118 380.16 217.22 380.16Z" fill="#F7F8E2"/>
<path d="M257.22 341.39C257.476 346.725 256.593 352.053 254.63 357.02C252.617 362.069 249.587 366.65 245.73 370.48C241.83 374.347 237.186 377.381 232.08 379.4C226.941 381.426 221.443 382.382 215.921 382.21C210.4 382.038 204.972 380.742 199.97 378.4C194.998 376.068 190.551 372.751 186.9 368.65C183.3 364.582 180.577 359.817 178.9 354.65C177.244 349.575 176.688 344.206 177.27 338.9C177.727 349.248 182.002 359.059 189.27 366.44C196.395 373.597 205.987 377.757 216.081 378.07C226.175 378.382 236.006 374.822 243.56 368.12C251.257 361.202 256.123 351.681 257.22 341.39Z" fill="#231F20"/>
<path d="M257.22 341.39C256.764 331.042 252.489 321.23 245.22 313.85C238.097 306.69 228.506 302.526 218.411 302.212C208.317 301.897 198.484 305.457 190.93 312.16C183.217 319.078 178.34 328.608 177.24 338.91C176.992 333.575 177.878 328.248 179.84 323.28C181.851 318.232 184.877 313.651 188.73 309.82C192.63 305.95 197.278 302.915 202.39 300.9C207.528 298.877 213.024 297.923 218.543 298.095C224.062 298.267 229.488 299.561 234.49 301.9C239.465 304.232 243.915 307.548 247.57 311.65C251.17 315.718 253.893 320.483 255.57 325.65C257.235 330.719 257.798 336.086 257.22 341.39Z" fill="#231F20"/>
<path d="M217.22 370.28C231.717 370.28 243.47 358.527 243.47 344.03C243.47 329.533 231.717 317.78 217.22 317.78C202.722 317.78 190.97 329.533 190.97 344.03C190.97 358.527 202.722 370.28 217.22 370.28Z" fill="#040809"/>
<path d="M387.65 385.45C409.752 385.45 427.67 367.532 427.67 345.43C427.67 323.328 409.752 305.41 387.65 305.41C365.547 305.41 347.63 323.328 347.63 345.43C347.63 367.532 365.547 385.45 387.65 385.45Z" fill="#F7F8E2"/>
<path d="M427.65 346.67C427.908 352.005 427.025 357.333 425.06 362.3C423.049 367.351 420.024 371.935 416.17 375.77C412.265 379.635 407.619 382.669 402.51 384.69C397.37 386.71 391.872 387.662 386.352 387.49C380.832 387.319 375.405 386.025 370.4 383.69C365.43 381.356 360.984 378.039 357.33 373.94C353.734 369.87 351.011 365.105 349.33 359.94C347.674 354.862 347.119 349.49 347.7 344.18C348.156 354.531 352.432 364.346 359.7 371.73C366.825 378.887 376.418 383.047 386.511 383.36C396.605 383.672 406.436 380.112 413.99 373.41C421.688 366.489 426.554 356.964 427.65 346.67Z" fill="#231F20"/>
<path d="M427.65 346.67C427.189 336.323 422.915 326.512 415.65 319.13C408.525 311.974 398.934 307.813 388.84 307.499C378.747 307.185 368.916 310.741 361.36 317.44C353.654 324.363 348.778 333.89 347.67 344.19C347.421 338.858 348.307 333.534 350.27 328.57C352.278 323.521 355.304 318.939 359.16 315.11C363.057 311.237 367.706 308.201 372.82 306.19C377.956 304.161 383.453 303.203 388.973 303.375C394.493 303.547 399.92 304.845 404.92 307.19C409.897 309.518 414.347 312.835 418 316.94C421.599 321.008 424.323 325.773 426 330.94C427.664 336.006 428.227 341.369 427.65 346.67Z" fill="#231F20"/>
<path d="M387.65 375.57C402.148 375.57 413.9 363.817 413.9 349.32C413.9 334.823 402.148 323.07 387.65 323.07C373.153 323.07 361.4 334.823 361.4 349.32C361.4 363.817 373.153 375.57 387.65 375.57Z" fill="#040809"/>
<path d="M257.16 416.2H341.969C341.969 416.2 344.76 471.32 297.58 471.32C250.4 471.32 257.16 416.2 257.16 416.2Z" fill="#040809"/>
<path d="M332.76 453.26C325.69 445.69 313.4 440.68 299.41 440.68C284.41 440.68 271.41 446.41 264.67 454.87C270.49 464.09 280.5 471.32 297.58 471.32C315.65 471.32 326.38 463.24 332.76 453.26Z" fill="#F16B6C"/>
<path d="M30.0104 256.72C29.7004 288.86 150.521 277.72 299.401 279.09C448.281 280.46 568.871 293.96 569.181 261.82C569.491 229.68 449.48 154.54 300.6 153.1C151.72 151.66 30.3104 224.59 30.0104 256.72Z" fill="#EEC96C"/>
<path d="M54.69 254.79C54.86 236.89 92.6 206.36 151.69 183.05L145.39 189.77C145.39 189.77 206.99 194.53 212.15 208.7C217.31 222.87 344.47 233.7 344.47 233.7C344.47 233.7 434.76 287.24 561.99 245.56C566.7 251.65 569.19 257.21 569.15 261.85C569.05 272.21 556.43 277.85 534.41 280.64C484.98 282.73 409.15 277.99 324.06 277.18C175.2 275.74 54.38 286.92 54.69 254.79Z" fill="#E2B554"/>
<path d="M456.19 213.14C456.19 213.14 451.62 104.51 418.6 70.28C418.6 70.28 351.11 30.5 299.23 30.01C247.35 29.52 178.33 68.01 178.33 68.01C178.33 68.01 133 172.54 139.56 210.14C139.56 210.14 239.7 246.25 299.71 246.81C359.72 247.37 456.19 213.14 456.19 213.14Z" fill="#EEC96C"/>
<path d="M139.56 210.14C136.04 189.99 147.43 150.61 158.76 118.4C195.29 148.6 291.92 212.5 456.19 213.14C456.19 213.14 359.719 247.38 299.709 246.81C239.699 246.24 139.56 210.14 139.56 210.14Z" fill="#E2B554"/>
<path d="M139.56 210.14C137.94 200.84 139.49 187.44 142.75 172.54C142.75 172.54 246.5 198.1 300.16 198.61C353.82 199.12 452.82 175.47 452.82 175.47C455.52 197.13 456.19 213.14 456.19 213.14C456.19 213.14 359.72 247.38 299.71 246.81C239.7 246.24 139.56 210.14 139.56 210.14Z" fill="#EE8122"/>
<path d="M230.65 102.02C208.262 105.117 185.682 106.628 163.08 106.54C171.26 84.42 178.36 68.04 178.36 68.04C178.36 68.04 233.84 37.11 282.71 31.04C279.44 59.81 267.93 96.86 230.65 102.02Z" fill="#CB9B3B"/>
<path d="M336.37 86.37C324.75 74.83 324.1 49.84 325.2 32.99C371.13 42.3 418.6 70.28 418.6 70.28C430.32 82.42 438.45 103.94 444.07 126.65C412.84 121.33 350.55 100.46 336.37 86.37Z" fill="#CB9B3B"/>
<path d="M199.111 109.516C205.186 98.6066 204.618 86.7045 197.844 82.9322C191.069 79.16 180.653 84.946 174.578 95.8559C168.503 106.766 169.07 118.668 175.845 122.44C182.619 126.213 193.036 120.426 199.111 109.516Z" fill="white"/>
<path d="M547.07 244.829C550.002 240.498 544.716 231.799 535.263 225.399C525.81 218.999 515.77 217.322 512.838 221.652C509.905 225.983 515.191 234.682 524.644 241.083C534.097 247.483 544.137 249.16 547.07 244.829Z" fill="white"/>
<path d="M506.35 219.03C509.161 219.03 511.44 216.751 511.44 213.94C511.44 211.129 509.161 208.85 506.35 208.85C503.539 208.85 501.26 211.129 501.26 213.94C501.26 216.751 503.539 219.03 506.35 219.03Z" fill="white"/>
<path d="M138.77 295.43C138.77 295.43 153.28 263.37 187.34 267.15" stroke="#221F1F" stroke-width="5.89" stroke-miterlimit="10" stroke-linecap="round"/>
<path d="M457.65 290.18C457.65 290.18 443.14 258.11 409.08 261.9" stroke="#221F1F" stroke-width="5.89" stroke-miterlimit="10" stroke-linecap="round"/>
</g>
<defs>
<clipPath id="clip0_7526_573">
<rect width="559.17" height="483.17" fill="white" transform="translate(20 20)"/>
</clipPath>
</defs>
</svg>
