<svg width="22" height="28" viewBox="0 0 22 28" fill="none" xmlns="http://www.w3.org/2000/svg">
<path d="M22 26.7273C22 27.4273 21.45 28 20.7778 28C20.1056 28 19.5556 27.4273 19.5556 26.7273C19.5556 21.8082 15.7239 17.8182 11 17.8182C6.27611 17.8182 2.44444 21.8082 2.44444 26.7273C2.44444 27.4273 1.89444 28 1.22222 28C0.55 28 0 27.4273 0 26.7273C0 20.4018 4.92556 15.2727 11 15.2727C17.0744 15.2727 22 20.4018 22 26.7273ZM11 14C7.28444 14 4.27778 10.8691 4.27778 7C4.27778 3.13091 7.28444 0 11 0C14.7156 0 17.7222 3.13091 17.7222 7C17.7222 10.8691 14.7156 14 11 14ZM11 11.4545C13.365 11.4545 15.2778 9.46273 15.2778 7C15.2778 4.53727 13.365 2.54545 11 2.54545C8.635 2.54545 6.72222 4.53727 6.72222 7C6.72222 9.46273 8.635 11.4545 11 11.4545Z" fill="#A3A3A3"/>
</svg>
