<svg width="435" height="556" viewBox="0 0 435 556" fill="none" xmlns="http://www.w3.org/2000/svg">
<g clip-path="url(#clip0_6254_391)">
<path d="M100.6 137.459C100.6 137.459 98.6003 128.27 88.0103 128.27C77.4203 128.27 75.4102 137.459 75.4102 137.459" stroke="#D4718D" stroke-linecap="round" stroke-linejoin="round"/>
<path d="M248.84 101.04C248.84 101.04 254.62 93.6797 262.79 93.6797" stroke="#D4718D" stroke-linecap="round" stroke-linejoin="round"/>
<path d="M255.82 137.459C255.82 137.459 271.99 129.77 286.28 129.77" stroke="#D4718D" stroke-linecap="round" stroke-linejoin="round"/>
<path d="M197.689 555.931C194.629 555.931 191.599 555.931 188.689 555.821L186.369 555.751C183.159 555.641 179.969 555.491 176.899 555.291C175.299 555.191 173.679 555.071 172.049 554.931C169.569 554.731 167.049 554.481 164.629 554.201C152.488 552.879 140.5 550.401 128.83 546.801C127.09 546.251 125.349 545.671 123.659 545.071C102.529 537.581 84.6594 525.961 70.6594 510.521L69.4794 509.211L68.6493 508.211L67.9594 507.391C67.7994 507.211 67.3395 506.631 67.2995 506.591C66.8895 506.081 66.4494 505.501 65.9994 504.901L65.9394 504.811C65.6994 504.501 65.4694 504.171 65.2294 503.811L65.1393 503.681L64.5495 502.831C64.5253 502.784 64.4949 502.74 64.4594 502.701C64.2494 502.371 64.0295 502.051 63.8095 501.701L63.7494 501.601C62.7994 500.131 61.8794 498.601 60.9994 496.901V496.821C60.7894 496.431 60.5793 496.021 60.3693 495.611L60.2995 495.471L59.7194 494.311V494.201C53.1894 480.681 44.8494 455.321 28.2394 362.201C18.6794 308.661 13.3895 272.311 12.0795 251.101C10.9295 232.471 12.7594 225.311 15.4794 219.161C17.3894 203.241 30.0194 188.351 52.4794 175.391C51.8594 174.671 51.2293 173.941 50.6193 173.211L49.8493 172.271L49.2795 171.581C48.4595 170.581 47.6393 169.581 46.8393 168.581C46.6193 168.311 46.4094 168.031 46.1994 167.751L45.9394 167.421C45.0194 166.251 44.0994 165.071 43.2094 163.881L42.6894 163.171L42.5195 162.931C41.5695 161.651 40.6294 160.371 39.7194 159.081L39.2194 158.351C38.2594 157.017 37.3127 155.641 36.3793 154.221L36.0495 153.711C35.0495 152.231 34.1194 150.771 33.1894 149.291L32.9594 148.911C31.9594 147.261 31.0093 145.761 30.1393 144.291L30.0195 144.091C6.78444 104.78 -3.35361 59.1005 1.06951 13.6509C1.41228 10.0049 3.07686 6.61028 5.74969 4.10693C8.42251 1.60358 11.9189 0.164339 15.5795 0.0607879C17.5795 0.0107879 19.7095 -0.0192902 21.7595 -0.0192902C50.9032 -0.0627827 79.7549 5.788 106.58 17.1809C134.396 28.9655 159.418 46.4753 180.019 68.5708C195.188 84.7174 207.776 103.107 217.339 123.091C226.907 103.107 239.498 84.7179 254.669 68.5708C275.27 46.4753 300.293 28.9655 328.109 17.1809C354.93 5.788 383.779 -0.0628119 412.919 -0.0192902C414.969 -0.0192902 417.059 -0.0192121 419.109 0.0607879C422.768 0.166738 426.262 1.60698 428.933 4.1101C431.604 6.61323 433.267 10.0065 433.609 13.6509C437.807 57.1609 428.687 100.919 407.459 139.131C407.44 139.176 407.416 139.22 407.389 139.261C406.529 140.821 405.599 142.431 404.639 144.051L404.479 144.341C403.609 145.811 402.689 147.341 401.669 148.941L401.469 149.271C400.519 150.781 399.569 152.271 398.609 153.701L398.249 154.241C397.329 155.631 396.369 157.011 395.409 158.391L394.919 159.101C393.979 160.431 393.009 161.751 392.039 163.101L391.899 163.281C391.749 163.501 391.599 163.711 391.439 163.921C390.529 165.141 389.599 166.331 388.659 167.531L388.429 167.831C388.219 168.101 388.009 168.381 387.789 168.651C386.879 169.801 385.929 170.951 384.989 172.091L384.82 172.301C405.93 184.121 417.709 197.761 419.949 212.991C431.499 237.371 425.779 264.721 415.689 312.921C414.139 320.301 412.549 327.921 410.849 336.291C410.043 340.291 409.213 344.447 408.359 348.761L407.359 354.061L406.509 358.531L405.689 362.901L404.869 367.291C404.599 368.761 404.33 370.231 404.06 371.731C399.52 396.851 396.009 415.921 392.239 432.551C391.529 435.711 390.809 438.761 390.099 441.621C389.389 444.481 388.599 447.501 387.859 450.181C387.479 451.571 387.089 452.941 386.699 454.281C385.909 457.001 385.089 459.641 384.259 462.151C382.519 467.441 380.719 472.151 378.769 476.691C374.131 487.784 367.642 498.01 359.58 506.931C350.839 516.425 340.755 524.589 329.649 531.161C328.149 532.041 326.649 532.911 325.109 533.741C289.399 553.101 250.219 554.451 221.609 555.441L216.529 555.621L213.839 555.701L211.07 555.781C209.303 555.834 207.503 555.874 205.669 555.901H202.58C201.066 555.901 199.536 555.901 197.989 555.901L197.689 555.931Z" fill="black"/>
<path d="M30.1405 223.02C85.6705 169.34 179.88 159.58 216.14 159.78C263.69 160.04 308.551 163.78 405.321 217.23C419.941 244.66 405.321 280.29 389.321 369.01C376.801 438.2 370.091 473.32 348.551 496.74C311.211 537.32 257.271 539.16 221.051 540.41C183.891 541.72 121.35 543.83 81.8404 500.41C71.8404 489.56 63.7906 476.2 43.0006 359.59C20.8806 236.22 26.3505 231.3 30.1405 223.02Z" fill="#F6C5AD"/>
<path d="M372.83 200.189L332.11 278.089C332.11 278.089 341.87 442.689 270.98 503.429C237.78 531.879 213.05 539.289 199.51 540.919C207.26 540.919 214.51 540.639 220.96 540.409C257.18 539.159 311.12 537.319 348.46 496.739C370 473.319 376.71 438.199 389.23 369.009C405.28 280.289 419.89 244.659 405.23 217.229C393.75 210.829 382.97 205.219 372.83 200.189Z" fill="#EFB097"/>
<path d="M30.1406 223.021C30.8906 184.351 141.481 149.161 233.511 151.861C306.511 153.961 403.461 180.991 405.271 217.231C407.081 253.471 313.601 295.761 230.771 300.041C135.741 304.831 29.4006 261.171 30.1406 223.021Z" fill="#F0CFC3"/>
<path d="M69.7999 220.08C70.3599 192.59 154.74 167.53 224.93 169.44C280.69 170.95 354.56 190.16 355.93 215.94C357.3 241.72 286.04 271.78 222.82 274.87C150.38 278.35 69.2299 247.24 69.7999 220.08Z" fill="black"/>
<path opacity="0.5" d="M396.109 333.27C396.109 333.37 333.789 517.72 73.1094 487.76C75.2835 492.413 78.1906 496.688 81.7195 500.42C121.229 543.83 183.769 541.72 220.929 540.42C257.149 539.17 311.089 537.33 348.429 496.75C369.969 473.33 376.679 438.21 389.199 369.02C391.579 356 393.899 344.14 396.109 333.27Z" fill="#E78B6A"/>
<path d="M384.487 314.493C387.538 298.253 385.91 284.317 380.851 283.367C375.792 282.416 369.218 294.811 366.167 311.051C363.116 327.292 364.744 341.227 369.802 342.178C374.861 343.128 381.436 330.733 384.487 314.493Z" fill="white"/>
<path d="M355.839 358.19C359.783 358.19 362.979 354.993 362.979 351.05C362.979 347.107 359.783 343.91 355.839 343.91C351.896 343.91 348.699 347.107 348.699 351.05C348.699 354.993 351.896 358.19 355.839 358.19Z" fill="white"/>
<path d="M69.4597 172.01C88.9774 192.903 112.724 209.396 139.116 220.39C165.509 231.384 193.942 236.628 222.52 235.77L15.8997 15.0801C13.1672 43.5413 16.5307 72.2581 25.7661 99.3176C35.0015 126.377 49.8967 151.158 69.4597 172.01V172.01Z" fill="#EFB097"/>
<path d="M15.9102 15.0807L222.53 235.771C225.266 207.308 221.904 178.59 212.671 151.529C203.437 124.468 188.543 99.6845 168.98 78.8307C149.459 57.9411 125.71 41.4508 99.3159 30.4583C72.922 19.4659 44.4888 14.2237 15.9102 15.0807V15.0807Z" fill="#F0CFC3"/>
<path opacity="0.5" d="M222.53 235.77C224.622 213.666 223.065 191.368 217.92 169.77C135.99 197.31 25.3202 97.7697 25.2402 97.6797C34.4131 125.364 49.5063 150.719 69.4702 171.979C88.9852 192.878 112.73 209.376 139.123 220.376C165.516 231.376 193.95 236.623 222.53 235.77Z" fill="#E78B6A"/>
<path d="M139.364 87.3509C146.333 77.9083 141.23 62.3174 127.966 52.5275C114.702 42.7376 98.2994 42.4561 91.33 51.8987C84.3607 61.3413 89.4637 76.9324 102.728 86.7223C115.992 96.5122 132.394 96.7936 139.364 87.3509Z" fill="#F6FAFE"/>
<path d="M135.741 119.21C141.137 119.21 145.511 114.836 145.511 109.44C145.511 104.044 141.137 99.6699 135.741 99.6699C130.345 99.6699 125.971 104.044 125.971 109.44C125.971 114.836 130.345 119.21 135.741 119.21Z" fill="#F6FAFE"/>
<path d="M365.031 172.01C345.513 192.903 321.767 209.396 295.374 220.39C268.981 231.384 240.549 236.628 211.971 235.77L418.591 15.0801C421.323 43.5413 417.96 72.2581 408.724 99.3176C399.489 126.377 384.594 151.158 365.031 172.01V172.01Z" fill="#EFB097"/>
<path d="M418.59 15.0805L211.97 235.77C209.235 207.308 212.596 178.59 221.829 151.529C231.063 124.467 245.957 99.6844 265.52 78.8305C285.042 57.9415 308.791 41.4516 335.184 30.4592C361.578 19.4668 390.011 14.2242 418.59 15.0805V15.0805Z" fill="#F0CFC3"/>
<path opacity="0.5" d="M211.969 235.77C209.877 213.666 211.435 191.368 216.579 169.77C298.509 197.31 409.179 97.7697 409.259 97.6797C400.086 125.364 384.993 150.719 365.029 171.979C345.514 192.878 321.769 209.376 295.376 220.376C268.984 231.376 240.55 236.623 211.969 235.77V235.77Z" fill="#E78B6A"/>
<path d="M139.82 352.319C139.82 352.319 160.15 330.539 187.02 348.689" stroke="#231F20" stroke-width="8" stroke-miterlimit="10" stroke-linecap="round"/>
<path d="M307.04 352.319C307.04 352.319 286.71 330.539 259.85 348.689" stroke="#231F20" stroke-width="8" stroke-miterlimit="10" stroke-linecap="round"/>
<path d="M300.61 396.829C299.642 400.304 297.988 403.55 295.747 406.377C293.506 409.204 290.723 411.554 287.56 413.289C287.08 413.549 286.56 413.799 286.1 414.029C282.496 415.735 278.557 416.617 274.57 416.609C273.171 416.61 271.773 416.502 270.39 416.289V416.289C264.789 415.409 259.608 412.789 255.58 408.799C253.04 406.283 251.024 403.288 249.651 399.987C248.278 396.686 247.574 393.145 247.58 389.569C247.567 383.171 249.841 376.979 253.99 372.109L254.74 372.389L255.01 372.489C265.86 372.019 276.54 376.719 287.13 384.249C291.958 387.771 296.367 391.834 300.27 396.359C300.391 396.51 300.504 396.667 300.61 396.829Z" fill="#F8F9E3"/>
<path d="M247.539 389.589C248.023 383.222 250.641 377.204 254.969 372.509L255.059 372.409H254.699L253.949 372.129L253.319 371.289C251.448 373.594 249.977 376.196 248.969 378.989C247.743 382.38 247.256 385.994 247.539 389.589V389.589Z" fill="#231F20"/>
<path d="M300.611 396.83C300.492 396.667 300.365 396.51 300.231 396.36C298.794 400.762 296.281 404.735 292.921 407.92C292.016 408.772 291.054 409.561 290.041 410.28C285.52 413.488 280.114 415.211 274.571 415.21C271.333 415.221 268.121 414.628 265.101 413.46V413.46C261.816 412.216 258.809 410.337 256.251 407.93C251.187 403.097 248.091 396.56 247.561 389.58C247.273 393.178 247.76 396.797 248.991 400.19C250.237 403.645 252.185 406.804 254.711 409.47C257.253 412.16 260.315 414.307 263.711 415.78C267.145 417.231 270.833 417.989 274.561 418.01C278.303 418.018 282.009 417.277 285.461 415.83C288.861 414.364 291.924 412.216 294.461 409.52C296.986 406.856 298.937 403.7 300.191 400.25C300.608 399.071 300.942 397.865 301.191 396.64L300.611 396.83Z" fill="#231F20"/>
<path d="M290.32 403.83C290.326 407.195 289.368 410.492 287.56 413.33C287.08 413.59 286.559 413.84 286.099 414.07C282.495 415.776 278.557 416.657 274.57 416.65C273.17 416.65 271.773 416.543 270.389 416.33V416.33C264.789 415.45 259.607 412.829 255.58 408.84C255.101 407.216 254.858 405.532 254.859 403.84C254.858 401.51 255.316 399.204 256.206 397.052C257.097 394.899 258.402 392.944 260.049 391.296C261.695 389.649 263.65 388.342 265.802 387.45C267.954 386.559 270.26 386.1 272.589 386.1C277.291 386.102 281.799 387.971 285.124 391.295C288.448 394.62 290.317 399.128 290.32 403.83V403.83Z" fill="#040809"/>
<path d="M254.699 372.411L253.949 372.131L254.149 372.401L254.699 372.411Z" fill="#231F20"/>
<path d="M300.609 396.83L300.699 396.93L301.179 396.57L300.609 396.83Z" fill="#231F20"/>
<path d="M300.7 396.96C300.7 396.96 281.4 372.4 254.15 372.4" stroke="#231F20" stroke-width="4.27" stroke-miterlimit="10" stroke-linecap="round"/>
<path d="M199.33 389.59C199.339 395.588 197.343 401.417 193.659 406.15C189.443 411.604 183.3 415.239 176.49 416.31V416.31C175.106 416.523 173.709 416.63 172.31 416.63C168.778 416.648 165.278 415.969 162.01 414.63C161.59 414.457 161.18 414.277 160.78 414.09C157.266 412.435 154.151 410.042 151.647 407.073C149.143 404.105 147.309 400.632 146.27 396.89C146.388 396.727 146.515 396.57 146.649 396.42C150.552 391.895 154.961 387.831 159.79 384.31C170.38 376.78 181.059 372.08 191.909 372.55L192.179 372.45L192.929 372.17C197.066 377.031 199.335 383.207 199.33 389.59V389.59Z" fill="#F8F9E3"/>
<path d="M199.331 389.589C198.847 383.222 196.229 377.204 191.9 372.509L191.811 372.409H192.17L192.92 372.129L193.551 371.289C195.422 373.594 196.893 376.196 197.9 378.989C199.126 382.38 199.614 385.994 199.331 389.589V389.589Z" fill="#231F20"/>
<path d="M145.689 396.59C145.938 397.815 146.272 399.021 146.689 400.2C147.943 403.65 149.894 406.805 152.419 409.47C154.957 412.166 158.02 414.314 161.419 415.78C164.851 417.24 168.54 418.002 172.27 418.02C175.998 417.998 179.685 417.241 183.119 415.79C186.515 414.317 189.577 412.17 192.119 409.48C194.646 406.814 196.593 403.655 197.839 400.2C199.07 396.806 199.558 393.188 199.27 389.59C198.739 396.57 195.644 403.107 190.58 407.94C188.022 410.347 185.014 412.226 181.729 413.47V413.47C178.709 414.638 175.498 415.231 172.26 415.22C166.716 415.221 161.31 413.498 156.79 410.29C155.776 409.57 154.814 408.782 153.909 407.93C150.549 404.745 148.036 400.771 146.599 396.37C146.465 396.52 146.338 396.677 146.219 396.84L145.689 396.59Z" fill="#231F20"/>
<path d="M193.82 403.831C193.822 404.614 193.769 405.396 193.66 406.171C189.443 411.625 183.3 415.26 176.49 416.331C175.107 416.544 173.709 416.651 172.31 416.651C168.778 416.669 165.278 415.99 162.01 414.651C159.631 411.562 158.343 407.77 158.35 403.871C158.35 399.166 160.219 394.654 163.546 391.327C166.873 388 171.385 386.131 176.09 386.131C180.786 386.133 185.29 387.998 188.613 391.316C191.937 394.634 193.809 399.135 193.82 403.831V403.831Z" fill="#040809"/>
<path d="M192.17 372.411L192.92 372.131L192.72 372.401L192.17 372.411Z" fill="#231F20"/>
<path d="M145.689 396.59L146.169 396.95L146.26 396.85L145.689 396.59Z" fill="#231F20"/>
<path d="M146.17 396.96C146.17 396.96 165.47 372.4 192.72 372.4" stroke="#231F20" stroke-width="4.27" stroke-miterlimit="10" stroke-linecap="round"/>
<path d="M186.82 438.141C186.82 438.141 217.82 423.381 245.26 423.381" stroke="#231F20" stroke-width="15" stroke-miterlimit="10" stroke-linecap="round"/>
</g>
<defs>
<clipPath id="clip0_6254_391">
<rect width="434.51" height="555.93" fill="white"/>
</clipPath>
</defs>
</svg>
