<svg width="1446" height="847" viewBox="0 0 1446 847" fill="none" xmlns="http://www.w3.org/2000/svg">
<g clip-path="url(#clip0_4968_298)">
<path d="M186.05 846.77C182.98 846.77 179.95 846.77 177.05 846.66L174.74 846.59C171.51 846.49 168.32 846.33 165.26 846.13C163.65 846.03 162.03 845.91 160.41 845.77C157.91 845.57 155.41 845.32 152.99 845.04C140.847 843.727 128.858 841.249 117.19 837.64C115.45 837.09 113.71 836.51 112.02 835.91C90.8899 828.42 73.0199 816.8 59.0199 801.36L58.35 800.63L57.68 799.88L56.9499 799.03L56.4199 798.4L55.7099 797.53C55.2399 796.94 54.7699 796.34 54.2999 795.7C54.0699 795.39 53.8399 795.08 53.6099 794.75L53.5099 794.61L52.9 793.73L52.7899 793.57L52.2099 792.68L52.15 792.6C51.15 791.11 50.26 789.51 49.37 787.84L48.7299 786.61L48.68 786.5L48.07 785.28V785.19C41.54 771.67 33.2 746.32 16.59 653.19C7.02995 599.64 1.73995 563.29 0.429951 542.08C-0.720049 523.46 1.10994 516.3 3.82994 510.15C7.33994 480.15 47.6599 460.37 78.8899 449.49C74.9499 426.11 52.8899 378.83 44.4899 362.09C43.0921 359.337 42.5777 356.22 43.0168 353.164C43.456 350.109 44.8273 347.263 46.9437 345.015C49.06 342.767 51.8183 341.228 54.8422 340.606C57.8661 339.984 61.0083 340.31 63.84 341.54C69.3104 343.965 74.6034 346.772 79.6799 349.94C79.3699 347.2 79.0699 344.28 78.7899 341.16C77.2899 324.45 77.01 309.7 77 309.08C76.9512 306.262 77.6968 303.489 79.1515 301.076C80.6062 298.663 82.7111 296.708 85.2251 295.436C87.7392 294.164 90.5607 293.625 93.3665 293.882C96.1723 294.14 98.849 295.182 101.09 296.89C106.09 300.7 144.23 330.15 164.04 355.89C166.246 334.024 170.413 312.4 176.49 291.28C179.875 279.503 183.86 267.908 188.43 256.54C167.063 232.567 154.214 202.207 151.88 170.18C151.79 168.86 151.71 167.54 151.65 166.18C151.65 165.69 151.65 165.18 151.59 164.71V163.63C151.59 163.18 151.59 162.72 151.59 162.27C151.59 161.4 151.59 160.53 151.59 159.66C151.59 159.66 151.59 158.66 151.59 158.39C151.59 157.31 151.59 156.22 151.66 155.14V154.59C151.66 153.38 151.76 152.19 151.82 151V150.77C151.89 149.55 151.98 148.31 152.08 147.09V147.01C152.33 144.01 152.66 141.08 153.08 138.3C153.46 135.73 153.9 133.14 154.42 130.6C154.67 129.33 154.95 128.06 155.23 126.8C156.673 120.535 158.527 114.371 160.78 108.35C161.23 107.16 161.7 105.97 162.18 104.78C163.12 102.44 164.18 100.08 165.18 97.7796C165.72 96.6296 166.27 95.4896 166.84 94.3496C173.621 80.7981 182.462 68.3805 193.05 57.5396C195.608 54.9213 199.035 53.3286 202.685 53.0615C206.336 52.7944 209.958 53.8714 212.87 56.0896C228.363 67.886 241.344 82.6583 251.05 99.5396C266.38 87.8228 283.891 79.2766 302.56 74.3996C303.806 74.0666 305.09 73.8985 306.38 73.8996C309.378 73.9019 312.306 74.8025 314.788 76.4851C317.269 78.1678 319.189 80.5553 320.3 83.3396C327.283 100.748 330.832 119.343 330.75 138.1C349.526 135.939 368.542 137.433 386.75 142.5C390.279 143.48 393.327 145.717 395.32 148.79C397.314 151.862 398.114 155.558 397.57 159.18C393.037 190.08 378.634 218.686 356.51 240.73C354.73 242.51 352.89 244.25 351.05 245.91L350.94 246.01C350.21 246.66 349.49 247.31 348.75 247.94C348.59 248.09 347.97 248.6 347.97 248.6C347.26 249.21 346.49 249.86 345.7 250.51L344.9 251.14C343.99 251.87 343.14 252.55 342.28 253.21L341.04 254.15C340.48 254.57 339.92 254.99 339.35 255.4C339.264 255.472 339.174 255.539 339.08 255.6C338.77 255.83 338.39 256.1 338 256.36L337.17 256.95L335.99 257.79C334.9 258.53 333.8 259.27 332.68 259.99C309.099 275.344 281.569 283.525 253.43 283.54C251.89 283.54 250.34 283.54 248.8 283.47C245.27 292.47 242.16 301.65 239.53 310.98C234.424 329.038 231.002 347.53 229.31 366.22C248.22 344.41 277.44 321.85 281.59 318.69C283.768 317.029 286.359 315.996 289.083 315.704C291.806 315.411 294.558 315.87 297.039 317.03C299.52 318.19 301.636 320.008 303.157 322.285C304.679 324.563 305.548 327.213 305.67 329.95C305.67 330.59 306.36 345.74 305.79 363.05C305.572 373.222 304.666 383.369 303.08 393.42C310.413 389.288 318.158 385.936 326.19 383.42C329.144 382.515 332.305 382.544 335.241 383.503C338.178 384.462 340.746 386.304 342.597 388.778C344.447 391.251 345.488 394.236 345.578 397.324C345.668 400.412 344.803 403.452 343.1 406.03C342.95 406.25 331.54 423.58 320.9 442.71C357.77 452.94 403.59 471.95 408.29 503.82C419.85 528.2 414.12 555.55 404.04 603.75C402.49 611.14 400.89 618.75 399.2 627.12C398.39 631.12 397.55 635.3 396.71 639.6L395.71 644.88L394.86 649.35L394.03 653.73L393.22 658.13C392.95 659.59 392.68 661.06 392.41 662.55C387.86 687.68 384.41 706.76 380.59 723.38C379.88 726.53 379.15 729.59 378.44 732.45C377.73 735.31 376.95 738.31 376.21 741.01C375.83 742.4 375.44 743.77 375.05 745.11C373.214 751.521 371.055 757.836 368.58 764.03C366.743 768.627 364.643 773.114 362.29 777.47C358.371 784.81 353.546 791.63 347.93 797.77C341.601 804.637 334.561 810.815 326.93 816.2C322.598 819.242 318.09 822.027 313.43 824.54C277.73 843.9 238.55 845.26 209.94 846.24L204.82 846.42L202.16 846.5L199.36 846.58C197.63 846.63 195.83 846.67 193.99 846.7H190.86C189.4 846.7 187.86 846.7 186.32 846.7L186.05 846.77Z" fill="#231F20"/>
<path d="M18.4998 513.86C74.0298 460.18 168.24 450.43 204.5 450.63C252.04 450.89 296.9 454.63 393.67 508.07C408.29 535.5 393.67 571.13 377.67 659.85C365.07 729.04 358.36 764.16 336.83 787.54C299.48 828.12 245.54 829.96 209.32 831.21C172.16 832.52 109.62 834.63 70.1098 791.21C60.1098 780.36 52.0598 767 31.2698 650.39C9.23984 527.06 14.7098 522.14 18.4998 513.86Z" fill="#F1594B"/>
<path d="M361.19 491.029L320.43 568.929C320.43 568.929 330.23 733.539 259.34 794.269C226.14 822.719 201.41 830.129 187.87 831.769C195.62 831.769 202.87 831.479 209.32 831.249C245.54 829.999 299.48 828.159 336.83 787.579C358.36 764.159 365.07 729.039 377.59 659.849C393.64 571.129 408.25 535.499 393.59 508.069C382.11 501.709 371.33 496.059 361.19 491.029Z" fill="#D91F26"/>
<path d="M18.4999 513.861C19.2499 475.191 129.84 440.001 221.87 442.701C294.93 444.801 391.82 471.831 393.63 508.071C395.44 544.311 301.96 586.601 219.13 590.881C124.1 595.681 17.7599 552.011 18.4999 513.861Z" fill="#F16465"/>
<path d="M58.1601 510.93C58.7201 483.44 143.1 458.38 213.3 460.29C269.05 461.8 342.92 481.01 344.3 506.79C345.68 532.57 274.43 562.63 211.18 565.72C138.74 569.2 57.6001 538.09 58.1601 510.93Z" fill="black"/>
<path d="M125.32 634.76C125.32 634.76 145.26 613.39 171.61 631.19" stroke="#231F20" stroke-width="4.18" stroke-miterlimit="10" stroke-linecap="round"/>
<path d="M289.33 634.76C289.33 634.76 269.39 613.39 243.04 631.19" stroke="#231F20" stroke-width="4.18" stroke-miterlimit="10" stroke-linecap="round"/>
<path d="M155.64 701.63C170.568 701.63 182.67 689.529 182.67 674.6C182.67 659.672 170.568 647.57 155.64 647.57C140.712 647.57 128.61 659.672 128.61 674.6C128.61 689.529 140.712 701.63 155.64 701.63Z" fill="#F8F9E3"/>
<path d="M259.34 701.63C274.268 701.63 286.37 689.529 286.37 674.6C286.37 659.672 274.268 647.57 259.34 647.57C244.412 647.57 232.31 659.672 232.31 674.6C232.31 689.529 244.412 701.63 259.34 701.63Z" fill="#F8F9E3"/>
<path d="M128.6 674.609C128.322 671.011 128.809 667.395 130.03 663.999C131.284 660.548 133.231 657.39 135.75 654.719C138.295 652.032 141.356 649.886 144.75 648.409C148.177 646.934 151.869 646.174 155.6 646.174C159.331 646.174 163.023 646.934 166.45 648.409C169.85 649.875 172.913 652.023 175.45 654.719C177.972 657.384 179.92 660.539 181.17 663.989C182.396 667.384 182.883 671.001 182.6 674.599C182.078 667.619 178.985 661.08 173.92 656.249C168.957 651.567 162.393 648.959 155.57 648.959C148.747 648.959 142.183 651.567 137.22 656.249C132.183 661.098 129.114 667.636 128.6 674.609Z" fill="#231F20"/>
<path d="M182.67 674.609C182.956 678.207 182.472 681.824 181.25 685.219C179.996 688.67 178.046 691.825 175.52 694.489C172.98 697.183 169.918 699.33 166.52 700.799C163.094 702.277 159.401 703.039 155.67 703.039C151.938 703.039 148.246 702.277 144.82 700.799C141.424 699.326 138.362 697.18 135.82 694.489C133.292 691.823 131.341 688.664 130.09 685.209C128.869 681.817 128.382 678.204 128.66 674.609C129.192 681.589 132.287 688.125 137.35 692.959C142.309 697.645 148.872 700.256 155.695 700.256C162.517 700.256 169.081 697.645 174.04 692.959C179.082 688.117 182.156 681.581 182.67 674.609Z" fill="#231F20"/>
<path d="M192.14 696.67C192.14 696.67 192.87 709.67 206.14 709.67C219.41 709.67 219.08 696.67 219.08 696.67" stroke="#231F20" stroke-width="4.18" stroke-miterlimit="10" stroke-linecap="round"/>
<path d="M150.29 684.5C160.088 684.5 168.03 676.557 168.03 666.76C168.03 656.962 160.088 649.02 150.29 649.02C140.493 649.02 132.55 656.962 132.55 666.76C132.55 676.557 140.493 684.5 150.29 684.5Z" fill="#040809"/>
<path d="M232.31 674.609C232.022 671.011 232.509 667.393 233.74 663.999C234.986 660.544 236.934 657.385 239.46 654.719C242.002 652.029 245.064 649.882 248.46 648.409C251.887 646.934 255.579 646.174 259.31 646.174C263.041 646.174 266.733 646.934 270.16 648.409C273.56 649.875 276.623 652.023 279.16 654.719C281.686 657.383 283.636 660.539 284.89 663.989C286.15 667.38 286.675 671 286.43 674.609C285.9 667.629 282.804 661.092 277.74 656.259C272.779 651.578 266.216 648.97 259.395 648.97C252.574 648.97 246.011 651.578 241.05 656.259C235.967 661.084 232.853 667.622 232.31 674.609Z" fill="#231F20"/>
<path d="M286.43 674.609C286.708 678.207 286.22 681.823 285 685.219C283.737 688.689 281.773 691.862 279.23 694.539C276.688 697.23 273.626 699.377 270.23 700.849C266.804 702.327 263.111 703.089 259.38 703.089C255.649 703.089 251.956 702.327 248.53 700.849C245.137 699.371 242.076 697.225 239.53 694.539C237.005 691.873 235.058 688.713 233.81 685.259C232.584 681.868 232.097 678.254 232.38 674.659C232.908 681.638 236 688.174 241.06 693.009C246.022 697.694 252.587 700.303 259.41 700.303C266.233 700.303 272.799 697.694 277.76 693.009C282.828 688.161 285.917 681.604 286.43 674.609Z" fill="#231F20"/>
<path d="M254 684.5C263.798 684.5 271.74 676.557 271.74 666.76C271.74 656.962 263.798 649.02 254 649.02C244.202 649.02 236.26 656.962 236.26 666.76C236.26 676.557 244.202 684.5 254 684.5Z" fill="#040809"/>
<path opacity="0.62" d="M384.43 624.109C384.43 624.209 322.11 808.569 61.4299 778.599C63.6017 783.254 66.5089 787.529 70.0399 791.259C109.55 834.669 172.09 832.559 209.25 831.259C245.47 830.009 299.41 828.169 336.76 787.589C358.29 764.169 365 729.049 377.52 659.859C379.94 646.839 382.27 634.979 384.43 624.109Z" fill="#7C131A"/>
<path d="M373.127 605.173C376.178 588.933 374.55 574.997 369.492 574.046C364.433 573.096 357.859 585.491 354.808 601.731C351.757 617.971 353.384 631.907 358.443 632.858C363.502 633.808 370.076 621.413 373.127 605.173Z" fill="white"/>
<path d="M344.19 649.03C348.133 649.03 351.33 645.833 351.33 641.89C351.33 637.947 348.133 634.75 344.19 634.75C340.247 634.75 337.05 637.947 337.05 641.89C337.05 645.833 340.247 649.03 344.19 649.03Z" fill="white"/>
<path d="M200.35 523.14C185.22 480.75 177.42 437.78 177.16 395.4C176.937 361.581 181.567 327.904 190.91 295.4C206.91 239.92 231.19 207.26 232.22 205.9L260.97 227.54L246.59 216.71L261 227.54C260.78 227.83 239.07 257.33 225.06 306.91C206.43 372.95 209.49 441.64 234.25 511.04L200.35 523.14Z" fill="#66BE64"/>
<path d="M196.43 473.179C192.24 447.709 184.7 419.849 177.18 396.469C177.56 438.409 185.32 480.929 200.26 522.879L201.26 522.789L234.2 511.039C221.77 476.209 214.81 441.549 213.31 407.309C206.9 427.339 200.43 451.039 196.43 473.179Z" fill="#4CA84E"/>
<path d="M301.718 196.361C326.095 147.976 313 93.5 306.357 88.8511C299 86 247.095 108.174 222.718 156.559C198.34 204.944 218.078 264.069 218.078 264.069C218.078 264.069 277.34 244.746 301.718 196.361Z" fill="#D91F26"/>
<path d="M285.35 155.089C277.255 160.332 269.763 166.453 263.01 173.339C265.977 153.166 264.225 132.58 257.89 113.199C240.704 126.939 227.255 144.787 218.786 165.096C210.316 185.405 207.099 207.519 209.43 229.399C214.822 235.304 220.739 240.707 227.11 245.539C235.185 247.781 243.456 249.248 251.81 249.919C270.843 238.579 286.689 222.597 297.866 203.468C309.043 184.339 315.186 162.688 315.72 140.539C305.014 144.065 294.806 148.955 285.35 155.089Z" fill="#951B1E"/>
<path d="M324.489 247.338C369.943 217.854 382.72 156.845 382.72 156.845C381 154 321.803 143.639 276.349 173.124C230.895 202.608 218.117 263.617 218.117 263.617C231 268 279.035 276.822 324.489 247.338Z" fill="#F16465"/>
<path d="M324.49 247.42C340.07 237.338 353.322 224.052 363.364 208.447C373.407 192.842 380.008 175.276 382.73 156.92C382.73 156.92 346.98 252.12 218.12 263.69C235.988 268.689 254.717 269.824 273.058 267.018C291.4 264.213 308.933 257.532 324.49 247.42Z" fill="#D91F26"/>
<path opacity="0.62" d="M235.43 215.469C281.73 265.649 344.94 230.639 345.91 230.089C329.498 246.511 309.016 258.277 286.561 264.181C264.107 270.085 240.487 269.915 218.12 263.689C220.671 246.636 226.553 230.251 235.43 215.469Z" fill="#7C131A"/>
<path d="M218.114 263.677C231.5 248.5 259.017 216.642 255.058 162.608C251.099 108.574 224.309 81.2386 203.779 68.0018C203 67.4997 161 110.5 166.834 169.071C170.793 223.106 203.5 252 218.114 263.677Z" fill="#F1594B"/>
<path d="M166.83 169.08C165.462 150.57 168.055 131.981 174.435 114.552C180.815 97.1225 190.836 81.2528 203.83 68C203.83 68 149.55 154 218.17 263.69C203.383 252.472 191.155 238.232 182.303 221.918C173.45 205.605 168.175 187.592 166.83 169.08Z" fill="#D91F26"/>
<path d="M354.16 182.7C358.131 182.7 361.35 179.481 361.35 175.51C361.35 171.539 358.131 168.32 354.16 168.32C350.189 168.32 346.97 171.539 346.97 175.51C346.97 179.481 350.189 182.7 354.16 182.7Z" fill="#F6FAFE"/>
<path opacity="0.62" d="M246.09 220.759C178.09 214.169 167.86 142.649 167.7 141.549C164.533 164.549 167.532 187.978 176.391 209.438C185.25 230.899 199.651 249.621 218.12 263.689C230.166 251.349 239.669 236.763 246.09 220.759Z" fill="#951B1E"/>
<path d="M327.773 185.317C337.295 183.364 343.903 176.364 342.533 169.683C341.163 163.001 332.333 159.167 322.811 161.12C313.289 163.073 306.68 170.073 308.051 176.754C309.421 183.436 318.251 187.27 327.773 185.317Z" fill="#F6FAFE"/>
<path d="M221.18 230.29C219.23 229.317 217.722 227.64 216.961 225.598C216.2 223.557 216.243 221.302 217.08 219.29C217.23 218.91 230.17 187.55 227.66 163.66C227.42 161.391 228.091 159.12 229.526 157.346C230.96 155.572 233.041 154.44 235.31 154.2C237.579 153.96 239.85 154.631 241.624 156.066C243.398 157.501 244.53 159.581 244.77 161.85C247.77 190.2 233.56 224.5 232.95 225.94C232.514 226.982 231.876 227.928 231.074 228.724C230.272 229.52 229.32 230.149 228.274 230.576C227.228 231.004 226.108 231.22 224.979 231.214C223.849 231.208 222.731 230.979 221.69 230.54C221.51 230.45 221.34 230.37 221.18 230.29Z" fill="#F16465"/>
<path d="M122.1 449.539C118.16 411.489 57.8101 355.289 57.8101 355.289C57.8101 355.289 90.19 419.639 94.01 449.669C96.91 472.519 114.2 494.179 132.45 518.319C142.21 531.229 162.92 541.009 186.45 543.779C186.43 543.729 128.69 513.049 122.1 449.539Z" fill="#4CA84E"/>
<path d="M134.06 436.45C130.26 416.75 96.2801 372.16 57.8101 355.24C57.8101 355.24 118.16 411.44 122.1 449.49C128.69 513.05 186.4 543.73 186.4 543.73C186.4 543.73 137.87 456.16 134.06 436.45Z" fill="#66BE64"/>
<path d="M122.1 449.539C118.16 411.489 57.8101 355.289 57.8101 355.289C57.8101 355.289 90.19 419.639 94.01 449.669C96.91 472.519 114.2 494.179 132.45 518.319C142.21 531.229 162.92 541.009 186.45 543.779C186.43 543.729 128.69 513.049 122.1 449.539Z" fill="#4CA84E"/>
<path d="M134.06 436.45C130.26 416.75 96.2801 372.16 57.8101 355.24C57.8101 355.24 118.16 411.44 122.1 449.49C128.69 513.05 186.4 543.73 186.4 543.73C186.4 543.73 137.87 456.16 134.06 436.45Z" fill="#66BE64"/>
<g style="mix-blend-mode:multiply">
<path d="M167.56 508.79C160.05 506.58 151.3 503.89 143.39 501.12C130.39 496.57 110.39 478.34 98.95 467.25C105.95 483.89 118.95 500.4 132.45 518.25C142.21 531.16 162.92 540.94 186.45 543.71C186.43 543.73 177.8 528.22 167.56 508.79Z" fill="#4CA84E"/>
</g>
<path d="M265.19 472.84C272.5 440.27 330.55 397.73 330.55 397.73C330.55 397.73 295.9 450.19 289.55 475.83C284.7 495.34 267.5 512.34 249.21 531.4C239.43 541.54 220.43 547.94 199.82 547.94C199.82 547.94 252.98 527.25 265.19 472.84Z" fill="#4CA84E"/>
<path d="M256.15 460.32C261.47 443.63 295.48 408.46 330.55 397.73C330.55 397.73 272.55 440.27 265.19 472.84C252.98 527.25 199.82 547.94 199.82 547.94C199.82 547.94 250.84 477.01 256.15 460.32Z" fill="#66BE64"/>
<g style="mix-blend-mode:multiply">
<path d="M233.43 499.289C217.73 523.049 199.82 547.939 199.82 547.939C220.45 547.939 239.41 541.579 249.18 531.399C262.69 517.319 275.59 504.399 283.37 490.709C267.742 497.827 250.538 500.783 233.43 499.289Z" fill="#4CA84E"/>
</g>
<g style="mix-blend-mode:multiply">
<path d="M150.49 424.049C149.756 420.165 148.733 416.341 147.43 412.609C148.78 437.749 151.5 485.929 153.05 496.029C146.342 486.155 140.25 475.875 134.81 465.249C139.43 485.109 146.31 505.649 156.02 523.689C159.79 530.701 165.39 536.561 172.223 540.646C179.056 544.731 186.869 546.888 194.83 546.889C194.83 546.889 154.67 447.449 150.49 424.049Z" fill="#4CA84E"/>
</g>
<path d="M229.52 391.539C240.84 368.539 290.66 330.539 290.66 330.539C290.66 330.539 269.75 385.129 261.09 395.129C253.86 403.479 247.48 431.419 242.09 440.309C236.7 449.199 235.18 474.549 224.29 507.099C213.4 539.649 193.47 550.099 193.47 550.099C187.13 506.239 218.19 414.539 229.52 391.539Z" fill="#66BE64"/>
<path d="M242.04 440.34C247.48 431.45 253.86 403.51 261.04 395.16C269.7 385.16 290.61 330.57 290.61 330.57C290.61 330.57 293.26 390.64 283.51 405.9C271.87 424.09 267.16 440.25 263.38 472.97C261.31 490.97 252.15 512.47 244.32 528.2C237.86 541.2 217.06 550.11 193.32 550.11C193.32 550.11 213.25 539.68 224.14 507.11C235.03 474.54 236.6 449.23 242.04 440.34Z" fill="#4CA84E"/>
<g style="mix-blend-mode:multiply">
<path d="M244.37 528.199C252.2 512.469 261.37 490.959 263.43 472.969C263.76 470.149 264.09 467.469 264.43 464.879C237.87 510.359 194.78 515.539 194.78 515.539L194 516.209C192.45 528.959 192.06 540.659 193.42 550.119C217.11 550.109 237.91 541.159 244.37 528.199Z" fill="#4CA84E"/>
</g>
<path d="M159.21 375.82C146.76 350.56 92 308.82 92 308.82C92 308.82 115 368.82 124.5 379.82C132.45 389 139.5 419.72 145.44 429.49C151.38 439.26 153.04 467.12 165.01 502.9C176.98 538.68 198.89 550.15 198.89 550.15C205.8 501.89 171.65 401.08 159.21 375.82Z" fill="#66BE64"/>
<path d="M145.43 429.449C139.43 419.679 132.43 388.959 124.49 379.779C114.97 368.779 91.99 308.779 91.99 308.779C91.99 308.779 92.99 367.339 102.71 381.119C112.43 394.899 117.77 429.339 121.91 465.319C124.19 485.089 134.26 508.729 142.91 526.029C150.01 540.279 172.91 550.109 198.91 550.109C198.91 550.109 176.99 538.639 165.03 502.859C153.07 467.079 151.43 439.219 145.43 429.449Z" fill="#4CA84E"/>
<g style="mix-blend-mode:multiply">
<path d="M118.74 440.34C119.9 448.42 120.94 456.82 121.92 465.34C124.2 485.11 134.27 508.75 142.92 526.05C150.02 540.3 172.92 550.13 198.92 550.13C200.99 535.7 199.38 516.56 195.77 496.13C151.05 505.23 118.74 440.35 118.74 440.34Z" fill="#4CA84E"/>
</g>
</g>
<g clip-path="url(#clip1_4968_298)">
<path d="M685.7 844.93C682.56 844.93 679.62 844.93 676.7 844.82L674.39 844.75C671.16 844.64 667.98 844.49 664.91 844.29C663.3 844.19 661.68 844.07 660.06 843.93C657.54 843.72 655.06 843.48 652.64 843.2C640.498 841.879 628.51 839.401 616.84 835.8C615.11 835.26 613.37 834.67 611.67 834.07C590.54 826.58 572.67 814.96 558.67 799.52L557.98 798.76L557.28 797.98L556.6 797.19L556.02 796.5L555.35 795.68C554.883 795.093 554.413 794.483 553.94 793.85L553.88 793.77L553.25 792.9L553.15 792.74C552.98 792.51 552.76 792.19 552.54 791.87L552.48 791.78L551.85 790.78L551.79 790.68C550.79 789.19 549.92 787.68 549.03 785.97V785.89C548.81 785.49 548.6 785.07 548.38 784.65L548.32 784.52C548.1 784.1 547.91 783.71 547.72 783.31V783.23C541.19 769.71 532.85 744.36 516.24 651.23C506.68 597.68 501.39 561.33 500.08 540.12C498.93 521.48 500.76 514.33 503.48 508.18C505.38 492.26 518.02 477.37 540.48 464.41C539.85 463.69 539.23 462.96 538.62 462.23L537.93 461.4L537.64 461.04C536.64 459.88 535.75 458.74 534.84 457.59C534.63 457.34 534.43 457.07 534.22 456.8L533.98 456.48C533.04 455.28 532.11 454.09 531.2 452.88C531.04 452.67 530.59 452.04 530.59 452.04C529.59 450.73 528.66 449.42 527.72 448.04C527.58 447.85 527.23 447.33 527.23 447.33C526.263 445.95 525.313 444.567 524.38 443.18L524.05 442.68C523.05 441.18 522.11 439.68 521.19 438.25L520.95 437.87C519.95 436.23 518.95 434.72 518.14 433.25L518 433.01C517.05 431.41 516.12 429.78 515.24 428.2L515.17 428.07C493.948 389.888 484.815 346.164 488.98 302.68C489.323 299.034 490.987 295.639 493.66 293.136C496.333 290.633 499.829 289.194 503.49 289.09C505.54 289.09 507.62 289.01 509.67 289.01C550.556 289.02 590.607 300.58 625.21 322.359C659.812 344.139 687.558 375.25 705.25 412.11C722.896 375.214 750.631 344.07 785.244 322.283C819.856 300.496 859.931 288.956 900.83 289C902.83 289 904.96 289 907.01 289.08C910.672 289.184 914.17 290.624 916.843 293.13C919.516 295.635 921.18 299.032 921.52 302.68C925.728 346.178 916.627 389.929 895.42 428.14C895.42 428.14 895.37 428.24 895.34 428.28C894.47 429.86 893.53 431.5 892.56 433.15L892.43 433.36C891.58 434.8 890.66 436.36 889.63 437.96L889.4 438.33C888.48 439.79 887.53 441.26 886.56 442.71C886.44 442.91 886.33 443.08 886.21 443.25C885.283 444.643 884.333 446.027 883.36 447.4L882.88 448.1C881.94 449.44 880.97 450.75 880 452.1L879.39 452.93C878.49 454.14 877.55 455.33 876.62 456.53L876.38 456.84L875.75 457.65C874.86 458.78 873.93 459.9 873.01 461.02L872.77 461.3C893.89 473.12 905.67 486.76 907.9 501.99C919.46 526.37 913.73 553.72 903.65 601.92C902.1 609.3 900.5 616.92 898.81 625.29C898 629.29 897.16 633.46 896.32 637.76L895.32 643.05L894.47 647.51L893.64 651.9L892.83 656.3C892.56 657.75 892.29 659.23 892.02 660.72C887.47 685.85 884.02 704.93 880.2 721.55C879.49 724.7 878.76 727.75 878.05 730.62C877.34 733.49 876.56 736.48 875.82 739.18C875.44 740.57 875.05 741.94 874.66 743.28C872.826 749.689 870.666 756.001 868.19 762.19C866.355 766.791 864.255 771.282 861.9 775.64C857.983 782.979 853.159 789.796 847.54 795.93C841.213 802.804 834.174 808.985 826.54 814.37C822.217 817.402 817.719 820.177 813.07 822.68C777.37 842.05 738.19 843.4 709.58 844.39L704.52 844.57L701.77 844.65L699.07 844.73C697.27 844.78 695.47 844.82 693.64 844.85H690.5C689 844.85 687.44 844.85 685.86 844.85L685.7 844.93Z" fill="#231F20"/>
<path d="M518.14 512.02C573.67 458.34 667.88 448.58 704.14 448.78C751.68 449.04 796.54 452.78 893.31 506.23C907.93 533.66 893.31 569.29 877.31 658.01C864.79 727.2 858.08 762.32 836.55 785.74C799.2 826.32 745.26 828.16 709.04 829.41C671.88 830.72 609.34 832.83 569.83 789.41C559.83 778.56 551.78 765.2 530.99 648.59C508.88 525.22 514.35 520.3 518.14 512.02Z" fill="#00B089"/>
<path d="M860.83 489.189L820.07 567.089C820.07 567.089 829.87 731.679 758.98 792.429C725.78 820.879 701.05 828.289 687.51 829.919C695.26 829.919 702.51 829.639 708.96 829.409C745.18 828.159 799.12 826.319 836.47 785.739C858 762.319 864.71 727.199 877.23 658.009C893.28 569.289 907.89 533.659 893.23 506.229C881.75 499.869 870.97 494.219 860.83 489.189Z" fill="#019385"/>
<path d="M518.14 512.021C518.89 473.351 629.48 438.161 721.51 440.861C794.57 442.961 891.46 469.991 893.27 506.231C895.08 542.471 801.6 584.761 718.77 589.041C623.74 593.841 517.4 550.171 518.14 512.021Z" fill="#48BD9E"/>
<path d="M557.8 509.08C558.36 481.59 642.74 456.53 712.94 458.44C768.69 459.95 842.56 479.16 843.94 504.94C845.32 530.72 774.07 560.78 710.82 563.87C638.38 567.35 557.24 536.24 557.8 509.08Z" fill="black"/>
<path d="M624.96 632.911C624.96 632.911 644.9 611.551 671.25 629.351" stroke="#231F20" stroke-width="4.18" stroke-miterlimit="10" stroke-linecap="round"/>
<path d="M788.97 632.911C788.97 632.911 769.03 611.551 742.68 629.351" stroke="#231F20" stroke-width="4.18" stroke-miterlimit="10" stroke-linecap="round"/>
<path d="M655.28 699.8C670.208 699.8 682.31 687.698 682.31 672.77C682.31 657.842 670.208 645.74 655.28 645.74C640.352 645.74 628.25 657.842 628.25 672.77C628.25 687.698 640.352 699.8 655.28 699.8Z" fill="#F8F9E3"/>
<path d="M758.98 699.8C773.908 699.8 786.01 687.698 786.01 672.77C786.01 657.842 773.908 645.74 758.98 645.74C744.052 645.74 731.95 657.842 731.95 672.77C731.95 687.698 744.052 699.8 758.98 699.8Z" fill="#F8F9E3"/>
<path d="M628.24 672.769C627.961 669.171 628.448 665.555 629.67 662.159C630.921 658.707 632.868 655.549 635.39 652.879C637.935 650.192 640.996 648.046 644.39 646.569C647.817 645.095 651.509 644.334 655.24 644.334C658.971 644.334 662.663 645.095 666.09 646.569C669.487 648.035 672.55 650.179 675.09 652.869C677.613 655.538 679.56 658.697 680.81 662.149C682.036 665.544 682.524 669.161 682.24 672.759C681.718 665.779 678.625 659.24 673.56 654.409C668.597 649.727 662.033 647.119 655.21 647.119C648.387 647.119 641.823 649.727 636.86 654.409C631.823 659.259 628.754 665.796 628.24 672.769Z" fill="#231F20"/>
<path d="M682.31 672.77C682.597 676.364 682.112 679.978 680.89 683.37C679.639 686.824 677.688 689.983 675.16 692.649C672.62 695.343 669.558 697.49 666.16 698.96C662.732 700.431 659.041 701.19 655.31 701.19C651.58 701.19 647.888 700.431 644.46 698.96C641.064 697.486 638.003 695.34 635.46 692.649C632.932 689.983 630.981 686.824 629.73 683.37C628.509 679.977 628.022 676.364 628.3 672.77C628.834 679.749 631.929 686.284 636.99 691.12C641.949 695.805 648.513 698.416 655.335 698.416C662.158 698.416 668.721 695.805 673.68 691.12C678.722 686.277 681.796 679.741 682.31 672.77Z" fill="#231F20"/>
<path d="M691.78 694.83C691.78 694.83 692.51 707.83 705.78 707.83C719.05 707.83 718.72 694.83 718.72 694.83" stroke="#231F20" stroke-width="4.18" stroke-miterlimit="10" stroke-linecap="round"/>
<path d="M653.86 700.4C663.658 700.4 671.6 692.457 671.6 682.66C671.6 672.862 663.658 664.92 653.86 664.92C644.063 664.92 636.12 672.862 636.12 682.66C636.12 692.457 644.063 700.4 653.86 700.4Z" fill="#040809"/>
<path d="M731.95 672.769C731.661 669.171 732.149 665.553 733.38 662.159C734.615 658.706 736.552 655.546 739.07 652.879C741.612 650.189 744.674 648.042 748.07 646.569C751.497 645.095 755.189 644.334 758.92 644.334C762.651 644.334 766.343 645.095 769.77 646.569C773.167 648.035 776.23 650.179 778.77 652.869C781.296 655.537 783.246 658.696 784.5 662.149C785.77 665.538 786.305 669.158 786.07 672.769C785.54 665.789 782.444 659.252 777.38 654.419C772.419 649.738 765.856 647.13 759.035 647.13C752.214 647.13 745.651 649.738 740.69 654.419C735.607 659.244 732.493 665.782 731.95 672.769Z" fill="#231F20"/>
<path d="M786.07 672.77C786.348 676.364 785.861 679.977 784.64 683.37C783.377 686.837 781.413 690.006 778.87 692.68C776.328 695.37 773.266 697.517 769.87 698.99C766.442 700.461 762.75 701.22 759.02 701.22C755.289 701.22 751.598 700.461 748.17 698.99C744.777 697.512 741.716 695.366 739.17 692.68C736.645 690.013 734.698 686.853 733.45 683.399C732.224 680.008 731.737 676.394 732.02 672.799C732.55 679.778 735.642 686.313 740.7 691.149C745.661 695.834 752.227 698.443 759.05 698.443C765.873 698.443 772.438 695.834 777.4 691.149C782.464 686.306 785.552 679.758 786.07 672.77Z" fill="#231F20"/>
<path d="M757.57 700.4C767.368 700.4 775.31 692.457 775.31 682.66C775.31 672.862 767.368 664.92 757.57 664.92C747.773 664.92 739.83 672.862 739.83 682.66C739.83 692.457 747.773 700.4 757.57 700.4Z" fill="#040809"/>
<path opacity="0.62" d="M884.07 622.27C884.07 622.37 821.75 806.72 561.07 776.76C563.244 781.413 566.151 785.687 569.68 789.419C609.19 832.829 671.73 830.719 708.89 829.419C745.11 828.169 799.05 826.33 836.4 785.75C857.93 762.33 864.64 727.21 877.16 658.02C879.58 645 881.91 633.14 884.07 622.27Z" fill="#037759"/>
<path d="M872.773 603.337C875.824 587.097 874.196 573.161 869.137 572.21C864.078 571.26 857.504 583.655 854.453 599.895C851.402 616.135 853.03 630.071 858.088 631.022C863.147 631.972 869.722 619.577 872.773 603.337Z" fill="white"/>
<path d="M843.83 647.19C847.773 647.19 850.97 643.993 850.97 640.05C850.97 636.107 847.773 632.91 843.83 632.91C839.887 632.91 836.69 636.107 836.69 640.05C836.69 643.993 839.887 647.19 843.83 647.19Z" fill="white"/>
<path d="M557.47 461.01C576.988 481.903 600.734 498.396 627.127 509.39C653.519 520.384 681.952 525.628 710.53 524.77L503.91 304.08C501.179 332.541 504.544 361.258 513.779 388.317C523.014 415.376 537.909 440.157 557.47 461.01Z" fill="#4CA84E"/>
<path d="M503.91 304.08L710.53 524.77C713.233 496.312 709.856 467.603 700.623 440.549C691.39 413.494 676.511 388.712 656.974 367.844C637.436 346.975 613.686 330.499 587.297 319.506C560.909 308.513 532.485 303.255 503.91 304.08Z" fill="#66BE64"/>
<g style="mix-blend-mode:multiply">
<path d="M710.53 524.77C712.62 502.666 711.066 480.37 705.93 458.77C623.99 486.31 513.32 386.77 513.24 386.68C526.922 427.84 553.5 463.498 589.035 488.371C624.57 513.243 667.173 526.006 710.53 524.77Z" fill="#4CA84E"/>
</g>
<path d="M627.073 376.369C634.043 366.926 628.94 351.335 615.676 341.545C602.412 331.755 586.009 331.474 579.04 340.916C572.07 350.359 577.173 365.95 590.437 375.74C603.702 385.53 620.104 385.811 627.073 376.369Z" fill="#F6FAFE"/>
<path d="M623.74 408.21C629.136 408.21 633.51 403.836 633.51 398.44C633.51 393.044 629.136 388.67 623.74 388.67C618.344 388.67 613.97 393.044 613.97 398.44C613.97 403.836 618.344 408.21 623.74 408.21Z" fill="#F6FAFE"/>
<path d="M853.07 461.01C833.548 481.908 809.795 498.404 783.395 509.398C756.995 520.393 728.555 525.633 699.97 524.77L906.59 304.08C909.328 332.538 905.971 361.254 896.742 388.313C887.514 415.372 872.626 440.155 853.07 461.01Z" fill="#4CA84E"/>
<path d="M906.59 304.08L699.97 524.77C697.267 496.312 700.644 467.603 709.877 440.549C719.11 413.494 733.989 388.712 753.526 367.844C773.064 346.975 796.814 330.499 823.203 319.506C849.591 308.513 878.015 303.255 906.59 304.08Z" fill="#66BE64"/>
<g style="mix-blend-mode:multiply">
<path d="M699.97 524.77C697.878 502.666 699.435 480.368 704.58 458.77C786.51 486.31 897.18 386.77 897.26 386.68C883.578 427.84 857 463.498 821.465 488.371C785.93 513.243 743.327 526.006 699.97 524.77Z" fill="#4CA84E"/>
</g>
</g>
<g clip-path="url(#clip2_4968_298)">
<path d="M1184.05 845.449C1180.97 845.449 1177.94 845.449 1175.05 845.339L1172.74 845.269C1169.51 845.159 1166.32 845.009 1163.26 844.809C1161.65 844.709 1160.03 844.589 1158.41 844.449C1155.89 844.239 1153.41 843.999 1150.99 843.719C1138.85 842.397 1126.85 839.919 1115.18 836.319C1113.45 835.769 1111.71 835.189 1110.02 834.589C1088.89 827.099 1071.02 815.479 1057.02 800.039L1056.34 799.279L1055.64 798.499L1055 797.759L1054.32 796.949L1053.71 796.199C1053.24 795.612 1052.77 795.002 1052.3 794.369L1052.25 794.299L1051.61 793.409L1051.51 793.279L1050.92 792.409L1050.84 792.299L1050.2 791.299L1050.15 791.219C1049.15 789.709 1048.27 788.159 1047.38 786.479V786.419C1047.16 786.019 1046.95 785.599 1046.73 785.179L1046.68 785.079L1046.06 783.829V783.759C1039.52 770.239 1031.19 744.889 1014.58 651.759C1005.02 598.209 999.73 561.859 998.42 540.649C997.27 522.019 999.1 514.869 1001.82 508.709C1004.39 486.979 1026.82 467.339 1066.9 451.709C1095.9 440.379 1131.7 432.199 1167.65 428.479C1163.26 420.479 1158.49 412.559 1153.33 404.719L1151.96 404.189L1150.89 403.759L1149.8 403.319L1148.18 402.639L1146.77 402.039L1144.49 401.039L1143.26 400.479L1142.16 399.969L1140.91 399.379L1139.72 398.799C1138.98 398.449 1138.24 398.079 1137.5 397.699L1136.32 397.109L1135.01 396.429L1133.81 395.799L1132.42 395.059L1131.12 394.339L1129.84 393.629L1128.4 392.809C1127.63 392.369 1126.86 391.909 1126.08 391.449L1124.88 390.729L1123.4 389.829L1122.2 389.079L1120.68 388.079L1119.47 387.289C1118.58 386.719 1117.7 386.129 1116.81 385.529L1115.5 384.639L1114.24 383.759L1112.73 382.689L1111.19 381.579L1109.92 380.639L1108.37 379.479L1107.06 378.479C1106.16 377.789 1105.26 377.069 1104.35 376.349L1103.04 375.289L1101.49 373.999L1100.21 372.919C1099.68 372.479 1099.16 372.029 1098.64 371.579L1097.41 370.489L1097.06 370.189L1095.8 369.059L1093.9 367.369L1091.75 365.369L1091.58 365.209L1090.41 364.079C1089.9 363.589 1089.41 363.079 1088.88 362.569L1087.59 361.199C1087.09 360.679 1086.59 360.199 1086.08 359.639C1085.57 359.079 1085.25 358.779 1084.85 358.339L1084.71 358.189C1083.93 357.369 1083.15 356.519 1082.37 355.659L1082.18 355.459C1081.71 354.939 1081.23 354.459 1080.76 353.889L1079.6 352.559L1079.33 352.239C1078.87 351.709 1078.42 351.239 1077.98 350.669L1076.54 348.949C1076.09 348.409 1075.64 347.869 1075.2 347.319L1075.01 347.089C1074.61 346.589 1074.2 346.089 1073.8 345.579C1073.4 345.069 1072.85 344.369 1072.37 343.749L1072.24 343.579C1071.53 342.669 1070.82 341.729 1070.12 340.789L1069.96 340.569C1069.53 339.989 1069.1 339.419 1068.67 338.829L1067.41 337.069L1067.33 336.959C1066.89 336.339 1066.45 335.719 1066.01 335.079C1065.57 334.439 1065.13 333.809 1064.7 333.159C1064.27 332.509 1063.79 331.819 1063.34 331.159L1063.03 330.689L1062.11 329.289C1061.34 328.089 1060.57 326.859 1059.8 325.619C1059.52 325.169 1059.25 324.709 1058.97 324.249L1058.66 323.739L1057.31 321.469L1056.12 319.409L1054.9 317.129L1054.81 316.969C1054.46 316.329 1054.1 315.689 1053.75 315.039L1053.47 314.529L1053.24 314.069C1040.35 289.949 1031.3 262.169 1026.34 231.509C1025.96 229.164 1026.14 226.762 1026.88 224.501C1027.61 222.24 1028.86 220.185 1030.54 218.506C1032.22 216.826 1034.28 215.57 1036.54 214.84C1038.8 214.111 1041.2 213.929 1043.55 214.309C1044.77 214.509 1058.07 216.839 1076.63 226.479C1076.7 222.533 1077.26 218.61 1078.29 214.799C1079.08 211.815 1080.17 208.914 1081.52 206.139L1081.86 205.449C1071.78 198.182 1064.9 187.307 1062.64 175.089L1062.58 174.749C1062.45 174.019 1062.33 173.239 1062.23 172.459L1062.17 171.949C1062.08 171.209 1062.02 170.479 1061.97 169.749C1061.97 169.569 1061.97 169.359 1061.97 169.159C1061.91 168.159 1061.88 167.259 1061.88 166.389C1061.87 154.401 1066.34 142.842 1074.41 133.979C1075.41 132.849 1076.54 131.749 1077.67 130.719C1078.8 129.689 1080.01 128.719 1081.24 127.719C1082.06 127.109 1082.91 126.509 1083.77 125.949C1078.68 114.614 1078.15 101.752 1082.3 90.0391C1082.3 90.0391 1082.41 89.7591 1082.41 89.7391C1082.68 89.0091 1082.96 88.2891 1083.27 87.5691L1083.47 87.0891C1083.76 86.4091 1084.07 85.7491 1084.39 85.0891L1084.67 84.5191C1085.1 83.6591 1085.53 82.8691 1085.96 82.1191C1089.11 76.6254 1093.32 71.8114 1098.34 67.956C1103.37 64.1006 1109.11 61.2806 1115.23 59.6591C1115.99 59.4491 1116.74 59.2691 1117.49 59.1091C1118.97 58.7891 1120.49 58.5291 1122.03 58.3491C1122.81 58.2491 1123.58 58.1791 1124.36 58.1291H1125.11C1126.37 45.7654 1132.34 34.3633 1141.8 26.2991L1142 26.1291C1142.62 25.5991 1143.24 25.1291 1143.87 24.6291L1144.25 24.3491C1144.88 23.8791 1145.47 23.4691 1146.07 23.0591L1146.58 22.7091C1147.42 22.1691 1148.18 21.7091 1148.93 21.2591C1155.43 17.5114 1162.71 15.3305 1170.19 14.8895C1177.68 14.4486 1185.17 15.7599 1192.06 18.7191C1193 19.1191 1193.94 19.5591 1194.85 20.0191C1202.12 9.94276 1213 3.0586 1225.22 0.799123L1225.53 0.739126C1226.29 0.609126 1227.06 0.489127 1227.84 0.389127L1228.38 0.329122C1229.09 0.239122 1229.82 0.179125 1230.55 0.129125H1231.15C1232.15 0.0691252 1233.05 0.0391212 1233.91 0.0391212C1246.29 0.0197643 1258.2 4.78491 1267.15 13.3391C1268.06 14.2191 1268.86 15.0291 1269.59 15.8291C1271.15 17.5455 1272.58 19.3701 1273.88 21.2891C1274.02 21.4891 1274.15 21.6991 1274.29 21.9091C1285.63 16.8097 1298.5 16.2901 1310.21 20.4591L1310.57 20.5891C1311.23 20.8291 1311.96 21.1191 1312.69 21.4291L1313.18 21.6291C1313.86 21.9291 1314.52 22.2291 1315.18 22.5491L1315.72 22.8191C1316.61 23.2591 1317.39 23.6891 1318.15 24.1191C1324.96 28.0433 1330.7 33.5712 1334.88 40.2218C1339.07 46.8725 1341.56 54.4445 1342.15 62.2791L1342.21 63.2791C1354.52 64.5416 1365.87 70.5015 1373.9 79.9191L1374.08 80.1291C1374.6 80.7491 1375.08 81.3691 1375.56 81.9891L1375.88 82.4091C1376.32 82.9991 1376.74 83.5991 1377.15 84.2091L1377.47 84.6791C1378.02 85.5191 1378.47 86.2891 1378.93 87.0491C1384.16 96.0451 1386.31 106.5 1385.06 116.829C1384.6 120.657 1383.69 124.417 1382.34 128.029C1381.8 129.469 1381.19 130.899 1380.52 132.279L1380.17 132.969C1390.25 140.238 1397.14 151.117 1399.4 163.339L1399.45 163.619C1399.59 164.409 1399.7 165.189 1399.8 165.969L1399.87 166.479C1399.95 167.219 1400.02 167.949 1400.07 168.679C1400.07 168.859 1400.07 169.059 1400.07 169.259C1400.13 170.259 1400.15 171.149 1400.15 172.029C1400.17 178.363 1398.93 184.637 1396.51 190.489C1394.08 196.341 1390.52 201.653 1386.03 206.119C1385.28 206.869 1384.47 207.619 1383.55 208.419C1382.32 209.485 1381.03 210.487 1379.69 211.419C1379.22 211.749 1378.75 212.079 1378.26 212.419C1379.89 216.072 1381.07 219.911 1381.77 223.849C1407.14 207.849 1426.85 204.499 1428.34 204.269C1430.69 203.903 1433.09 204.101 1435.35 204.845C1437.61 205.59 1439.65 206.86 1441.32 208.552C1442.99 210.243 1444.24 212.307 1444.95 214.574C1445.67 216.841 1445.84 219.245 1445.44 221.589C1440.26 252.219 1431.01 279.929 1417.94 303.959L1417.7 304.409L1417.41 304.939C1417.03 305.629 1416.64 306.319 1416.25 306.999C1415.86 307.679 1415.4 308.509 1414.96 309.259L1413.76 311.309C1413.31 312.069 1412.85 312.819 1412.39 313.569L1412.07 314.099L1411.24 315.449C1410.47 316.679 1409.69 317.899 1408.9 319.099L1407.95 320.519L1407.66 320.959L1406.29 322.959C1405.85 323.599 1405.41 324.239 1404.96 324.869C1404.51 325.499 1404.07 326.119 1403.63 326.739L1403.55 326.849L1402.28 328.589C1401.82 329.219 1401.35 329.839 1400.88 330.459L1400.81 330.549C1400.1 331.489 1399.39 332.409 1398.68 333.319L1398.52 333.529C1398.05 334.119 1397.58 334.719 1397.11 335.299C1396.64 335.879 1396.27 336.299 1395.85 336.839L1395.69 337.039L1394.34 338.659L1392.89 340.369L1391.53 341.919L1391.34 342.139L1390.08 343.559C1389.6 344.099 1389.08 344.629 1388.62 345.159L1388.48 345.319C1387.69 346.169 1386.89 347.019 1386.1 347.849L1385.85 348.109C1385.47 348.509 1385.1 348.899 1384.72 349.279C1384.34 349.659 1383.72 350.279 1383.2 350.829L1381.9 352.199L1380.37 353.689L1379.03 354.959C1378.31 355.639 1377.6 356.309 1376.89 356.959L1374.97 358.699L1373.67 359.839L1373.4 360.069L1372.14 361.199L1370.57 362.529L1369.13 363.719L1367.7 364.889L1366.39 365.889C1365.46 366.619 1364.55 367.329 1363.63 368.029L1362.35 369.029L1360.9 370.099L1359.57 371.099L1357.96 372.199L1356.4 373.289L1355.17 374.129L1353.88 374.989C1352.98 375.599 1352.08 376.179 1351.19 376.749L1349.98 377.519L1348.45 378.519L1347.27 379.239L1345.76 380.149L1344.56 380.859L1342.08 382.199L1340.79 382.929L1339.22 383.779L1338.22 384.329C1337.75 384.589 1337.27 384.829 1336.8 385.079L1335.58 385.709L1334.29 386.369L1333.12 386.949C1332.35 387.329 1331.59 387.699 1330.84 388.049L1329.69 388.599L1329.03 388.909C1301.9 414.339 1277.59 425.199 1261.25 429.749C1291.85 433.749 1321.9 440.989 1346.11 450.259C1383.05 464.419 1403.26 481.969 1406.26 502.479C1417.81 526.859 1412.09 554.199 1402.01 602.399C1400.46 609.779 1398.86 617.399 1397.17 625.769C1396.35 629.769 1395.52 633.926 1394.68 638.239L1393.68 643.529L1392.83 647.999L1392 652.379L1391.19 656.779C1390.92 658.229 1390.65 659.709 1390.38 661.199C1385.83 686.329 1382.32 705.409 1378.56 722.029C1377.84 725.189 1377.12 728.239 1376.41 731.099C1375.7 733.959 1374.93 736.949 1374.18 739.659C1373.8 741.049 1373.41 742.409 1373.02 743.759C1371.18 750.167 1369.02 756.478 1366.55 762.669C1364.71 767.268 1362.61 771.759 1360.26 776.119C1356.34 783.458 1351.52 790.275 1345.9 796.409C1339.58 803.285 1332.54 809.467 1324.9 814.849C1320.56 817.892 1316.05 820.68 1311.39 823.199C1275.69 842.559 1236.51 843.909 1207.9 844.899L1202.82 845.079L1200.09 845.159L1197.39 845.239C1195.59 845.289 1193.79 845.329 1191.95 845.359H1188.83C1187.33 845.359 1185.77 845.359 1184.19 845.359L1184.05 845.449ZM1175.67 344.319C1188.04 359.835 1199.29 376.209 1209.34 393.319C1212.84 373.959 1215.58 355.199 1217.54 337.199C1216.3 336.919 1215.07 336.586 1213.85 336.199C1213.1 335.969 1212.35 335.709 1211.61 335.439C1208.67 334.363 1205.84 333.003 1203.17 331.379C1197 327.636 1191.75 322.55 1187.82 316.499C1181.6 319.297 1174.86 320.746 1168.04 320.749C1166.99 320.749 1165.95 320.749 1164.91 320.649L1165.78 322.379L1166.42 323.659C1167.09 325.032 1167.75 326.422 1168.42 327.829L1169.33 329.759C1169.84 330.859 1170.33 331.949 1170.84 333.049C1171.17 333.769 1171.49 334.499 1171.84 335.229C1172.31 336.289 1172.79 337.369 1173.25 338.459L1174.25 340.699L1175.67 344.139V344.319ZM1272.95 320.849C1272.52 326.459 1272.01 332.089 1271.44 337.699C1270.44 347.829 1269.12 358.259 1267.6 368.899C1274.62 364.639 1281.24 359.766 1287.4 354.339C1287.56 353.849 1287.73 353.339 1287.89 352.879C1288.41 351.379 1288.89 349.879 1289.46 348.449C1289.46 348.449 1289.9 347.189 1290.03 346.839C1290.75 344.839 1291.48 342.899 1292.21 341.019L1292.82 339.469C1293.37 338.079 1293.92 336.689 1294.47 335.319L1295.15 333.699L1295.36 333.189C1295.84 332.029 1296.36 330.879 1296.81 329.749C1297.12 329.009 1297.45 328.269 1297.81 327.529L1299.25 324.289L1300.13 322.339C1296.53 323.194 1292.83 323.627 1289.13 323.629C1286.45 323.627 1283.77 323.403 1281.13 322.959C1279.61 322.699 1278.13 322.369 1276.61 321.959C1275.37 321.649 1274.15 321.269 1272.95 320.849Z" fill="#231F20"/>
<path d="M1016.5 512.54C1072.03 458.86 1166.24 449.1 1202.5 449.3C1250.05 449.56 1294.91 453.3 1391.68 506.75C1406.3 534.18 1391.68 569.81 1375.68 658.53C1363.16 727.72 1356.45 762.84 1334.91 786.26C1297.57 826.84 1243.63 828.68 1207.41 829.93C1170.25 831.24 1107.71 833.35 1068.2 789.93C1058.2 779.08 1050.2 765.72 1029.36 649.11C1007.24 525.74 1012.71 520.82 1016.5 512.54Z" fill="#F8F18C"/>
<g style="mix-blend-mode:multiply" opacity="0.51">
<path d="M1359.19 489.709L1318.47 567.609C1318.47 567.609 1328.23 732.209 1257.34 792.949C1224.14 821.399 1199.41 828.809 1185.87 830.439C1193.62 830.439 1200.87 830.159 1207.32 829.929C1243.54 828.679 1297.48 826.839 1334.82 786.259C1356.36 762.839 1363.07 727.719 1375.59 658.529C1391.59 569.809 1406.25 534.179 1391.59 506.749C1380.11 500.389 1369.33 494.739 1359.19 489.709Z" fill="#F0CC6D"/>
</g>
<path d="M1016.5 512.538C1017.25 473.868 1127.84 438.678 1219.87 441.378C1292.87 443.478 1389.82 470.508 1391.63 506.748C1393.44 542.988 1299.96 585.278 1217.13 589.558C1122.1 594.358 1015.76 550.688 1016.5 512.538Z" fill="#F3ECB2"/>
<path d="M1056.16 509.6C1056.72 482.11 1141.1 457.05 1211.29 458.96C1267.05 460.47 1340.92 479.68 1342.29 505.46C1343.66 531.24 1272.4 561.3 1209.18 564.39C1136.74 567.87 1055.59 536.76 1056.16 509.6Z" fill="black"/>
<path d="M1123.32 633.428C1123.32 633.428 1143.26 612.068 1169.61 629.868" stroke="#231F20" stroke-width="4.18" stroke-miterlimit="10" stroke-linecap="round"/>
<path d="M1287.33 633.428C1287.33 633.428 1267.39 612.068 1241.04 629.868" stroke="#231F20" stroke-width="4.18" stroke-miterlimit="10" stroke-linecap="round"/>
<path d="M1153.64 700.31C1168.57 700.31 1180.67 688.208 1180.67 673.28C1180.67 658.352 1168.57 646.25 1153.64 646.25C1138.71 646.25 1126.61 658.352 1126.61 673.28C1126.61 688.208 1138.71 700.31 1153.64 700.31Z" fill="#F8F9E3"/>
<path d="M1257.34 700.31C1272.27 700.31 1284.37 688.208 1284.37 673.28C1284.37 658.352 1272.27 646.25 1257.34 646.25C1242.41 646.25 1230.31 658.352 1230.31 673.28C1230.31 688.208 1242.41 700.31 1257.34 700.31Z" fill="#F8F9E3"/>
<path d="M1126.6 673.289C1126.32 669.691 1126.81 666.075 1128.03 662.679C1129.28 659.225 1131.22 656.066 1133.75 653.399C1136.29 650.712 1139.36 648.565 1142.75 647.089C1146.18 645.614 1149.87 644.854 1153.6 644.854C1157.33 644.854 1161.02 645.614 1164.45 647.089C1167.84 648.56 1170.91 650.703 1173.45 653.389C1175.97 656.057 1177.92 659.216 1179.17 662.669C1180.4 666.063 1180.88 669.681 1180.6 673.279C1180.07 666.301 1176.98 659.766 1171.92 654.929C1166.96 650.247 1160.39 647.639 1153.57 647.639C1146.75 647.639 1140.18 650.247 1135.22 654.929C1130.18 659.775 1127.11 666.315 1126.6 673.289Z" fill="#231F20"/>
<path d="M1180.67 673.289C1180.96 676.884 1180.47 680.499 1179.24 683.889C1178 687.345 1176.05 690.505 1173.52 693.169C1170.98 695.86 1167.92 698.007 1164.52 699.479C1161.09 700.95 1157.4 701.709 1153.67 701.709C1149.94 701.709 1146.25 700.95 1142.82 699.479C1139.43 698.003 1136.36 695.856 1133.82 693.169C1131.3 690.5 1129.35 687.341 1128.1 683.889C1126.88 680.497 1126.39 676.884 1126.67 673.289C1127.2 680.268 1130.3 686.804 1135.36 691.639C1140.32 696.325 1146.88 698.935 1153.7 698.935C1160.53 698.935 1167.09 696.325 1172.05 691.639C1177.09 686.795 1180.16 680.26 1180.67 673.289Z" fill="#231F20"/>
<path d="M1152.22 682.179C1162.02 682.179 1169.96 674.237 1169.96 664.439C1169.96 654.642 1162.02 646.699 1152.22 646.699C1142.42 646.699 1134.48 654.642 1134.48 664.439C1134.48 674.237 1142.42 682.179 1152.22 682.179Z" fill="#040809"/>
<path d="M1230.31 673.289C1230.02 669.691 1230.51 666.074 1231.73 662.679C1232.98 659.224 1234.93 656.065 1237.46 653.399C1240 650.709 1243.06 648.562 1246.46 647.089C1249.89 645.614 1253.58 644.854 1257.31 644.854C1261.04 644.854 1264.73 645.614 1268.16 647.089C1271.56 648.555 1274.62 650.698 1277.16 653.389C1279.69 656.055 1281.63 659.214 1282.88 662.669C1284.11 666.063 1284.6 669.68 1284.32 673.279C1283.79 666.299 1280.69 659.762 1275.63 654.929C1270.67 650.248 1264.11 647.64 1257.28 647.64C1250.46 647.64 1243.9 650.248 1238.94 654.929C1233.9 659.774 1230.82 666.313 1230.31 673.289Z" fill="#231F20"/>
<path d="M1284.38 673.289C1284.66 676.884 1284.17 680.497 1282.95 683.889C1281.7 687.341 1279.75 690.5 1277.23 693.169C1274.69 695.86 1271.63 698.006 1268.23 699.479C1264.8 700.95 1261.11 701.709 1257.38 701.709C1253.65 701.709 1249.96 700.95 1246.53 699.479C1243.13 698.006 1240.07 695.859 1237.53 693.169C1235.01 690.502 1233.06 687.343 1231.81 683.889C1230.58 680.498 1230.1 676.884 1230.38 673.289C1230.91 680.268 1234 686.805 1239.06 691.639C1244.02 696.323 1250.59 698.933 1257.41 698.933C1264.23 698.933 1270.8 696.323 1275.76 691.639C1280.8 686.793 1283.86 680.259 1284.38 673.289Z" fill="#231F20"/>
<path d="M1255.93 682.179C1265.73 682.179 1273.67 674.237 1273.67 664.439C1273.67 654.642 1265.73 646.699 1255.93 646.699C1246.13 646.699 1238.19 654.642 1238.19 664.439C1238.19 674.237 1246.13 682.179 1255.93 682.179Z" fill="#040809"/>
<g style="mix-blend-mode:multiply" opacity="0.51">
<path d="M1382.47 622.789C1382.47 622.889 1320.15 807.239 1059.47 777.279C1061.64 781.933 1064.55 786.207 1068.08 789.939C1107.59 833.349 1170.13 831.239 1207.29 829.939C1243.51 828.689 1297.45 826.849 1334.79 786.269C1356.33 762.849 1363.04 727.729 1375.56 658.539C1377.9 645.519 1380.26 633.659 1382.47 622.789Z" fill="#F0CC6D"/>
</g>
<path d="M1371.13 603.847C1374.18 587.606 1372.55 573.671 1367.49 572.72C1362.43 571.77 1355.86 584.165 1352.81 600.405C1349.75 616.645 1351.38 630.581 1356.44 631.531C1361.5 632.482 1368.07 620.087 1371.13 603.847Z" fill="white"/>
<path d="M1342.19 647.71C1346.13 647.71 1349.33 644.513 1349.33 640.57C1349.33 636.626 1346.13 633.43 1342.19 633.43C1338.25 633.43 1335.05 636.626 1335.05 640.57C1335.05 644.513 1338.25 647.71 1342.19 647.71Z" fill="white"/>
<path d="M1204.74 715.979C1212.8 715.979 1219.33 709.447 1219.33 701.389C1219.33 693.331 1212.8 686.799 1204.74 686.799C1196.68 686.799 1190.15 693.331 1190.15 701.389C1190.15 709.447 1196.68 715.979 1204.74 715.979Z" fill="#040809"/>
<path d="M1348.9 301.628C1320.29 349.218 1292.23 371.978 1273.73 382.678C1265.88 387.353 1257.41 390.895 1248.57 393.198C1251.98 373.518 1254.64 354.458 1256.51 336.198C1261.8 284.468 1260.84 238.478 1253.63 199.488L1230.46 203.768C1241.69 264.578 1236.46 345.278 1215.46 438.328C1197.22 396.818 1172.8 363.538 1153.54 341.148C1126.9 310.058 1104.42 292.918 1103.48 292.198L1089.23 310.978C1089.44 311.138 1110.97 327.638 1136.12 356.978C1158.71 383.328 1188.87 425.658 1205.58 478.778C1200.85 496.648 1195.72 513.858 1190.67 529.628H1215.67C1221.18 511.508 1226.94 491.138 1232.4 469.318C1236.78 451.818 1240.65 434.685 1244 417.918C1257.81 416.558 1314.12 405.358 1369.18 313.778L1348.9 301.628Z" fill="#4CA84E"/>
<path d="M1250.08 112.098H1217.56L1200.62 48.1983C1200.62 43.8376 1201.48 39.5193 1203.14 35.4901C1204.81 31.461 1207.26 27.7998 1210.34 24.7159C1213.42 21.6319 1217.08 19.1855 1221.11 17.5164C1225.14 15.8474 1229.46 14.9883 1233.82 14.9883C1242.63 14.9883 1251.08 18.4872 1257.3 24.7153C1263.53 30.9434 1267.03 39.3904 1267.03 48.1983L1250.08 112.098Z" fill="#F4F0EA"/>
<path d="M1233.82 15C1231.19 15.002 1228.57 15.3141 1226.02 15.93C1233.26 17.6832 1239.7 21.8178 1244.3 27.67C1248.91 33.5222 1251.42 40.7525 1251.42 48.2L1234.48 112.1H1250.08L1267.08 48.21C1267.08 43.8446 1266.22 39.522 1264.55 35.4896C1262.88 31.4571 1260.42 27.7938 1257.34 24.7093C1254.25 21.6248 1250.58 19.1796 1246.54 17.5136C1242.51 15.8476 1238.19 14.9935 1233.82 15Z" fill="#EFCC6B"/>
<path d="M1233.82 15C1231.19 15.002 1228.57 15.3141 1226.02 15.93C1233.26 17.6832 1239.7 21.8178 1244.3 27.67C1248.91 33.5222 1251.42 40.7525 1251.42 48.2L1234.48 112.1H1250.08L1267.08 48.21C1267.08 43.8446 1266.22 39.522 1264.55 35.4896C1262.88 31.4571 1260.42 27.7938 1257.34 24.7093C1254.25 21.6248 1250.58 19.1796 1246.54 17.5136C1242.51 15.8476 1238.19 14.9935 1233.82 15Z" fill="#E5E3E5"/>
<g style="mix-blend-mode:multiply" opacity="0.58">
<path d="M1264.74 56.8184L1264.54 56.0684C1264.54 56.0684 1253.17 93.7984 1212.71 93.7984L1217.56 112.098H1250.08L1264.74 56.8184Z" fill="#B6BCCC"/>
</g>
<path d="M1218.97 110.199L1190.81 126.459L1144.19 79.5988C1139.79 71.9722 1138.59 62.9092 1140.87 54.403C1143.15 45.8967 1148.71 38.6437 1156.34 34.2388C1163.97 29.837 1173.03 28.6453 1181.54 30.9257C1190.04 33.2061 1197.3 38.7718 1201.7 46.3988L1218.97 110.199Z" fill="#F4F0EA"/>
<path d="M1156.34 34.2491C1154.07 35.5689 1151.96 37.1496 1150.05 38.9591C1157.19 36.8545 1164.84 37.2131 1171.75 39.9772C1178.67 42.7412 1184.45 47.7503 1188.18 54.1991L1205.45 117.999L1218.97 110.199L1201.7 46.3991C1197.29 38.7738 1190.04 33.2102 1181.54 30.9317C1173.03 28.6533 1163.97 29.8465 1156.34 34.2491Z" fill="#EFCC6B"/>
<path d="M1156.34 34.2491C1154.07 35.5689 1151.96 37.1496 1150.05 38.9591C1157.19 36.8545 1164.84 37.2131 1171.75 39.9772C1178.67 42.7412 1184.45 47.7503 1188.18 54.1991L1205.45 117.999L1218.97 110.199L1201.7 46.3991C1197.29 38.7738 1190.04 33.2102 1181.54 30.9317C1173.03 28.6533 1163.97 29.8465 1156.34 34.2491Z" fill="#E5E3E5"/>
<g style="mix-blend-mode:multiply" opacity="0.58">
<path d="M1204.03 55.009L1203.48 54.459C1203.48 54.459 1212.48 92.819 1177.48 113.049L1190.83 126.469L1218.97 110.199L1204.03 55.009Z" fill="#B6BCCC"/>
</g>
<path d="M1191.08 124.13L1174.82 152.29L1111.02 135.02C1103.4 130.612 1097.84 123.359 1095.57 114.854C1093.3 106.35 1094.5 97.2914 1098.9 89.67C1101.08 85.8925 1103.98 82.5813 1107.44 79.9257C1110.9 77.2701 1114.85 75.3221 1119.06 74.1928C1123.27 73.0636 1127.67 72.7753 1131.99 73.3445C1136.31 73.9137 1140.48 75.3291 1144.26 77.51L1191.08 124.13Z" fill="#F4F0EA"/>
<path d="M1098.9 89.67C1097.59 91.9462 1096.55 94.3698 1095.81 96.89C1100.95 91.4944 1107.75 87.9821 1115.12 86.9175C1122.49 85.8528 1130.01 87.2978 1136.46 91.02L1183.32 137.64L1191.12 124.13L1144.26 77.51C1140.48 75.3291 1136.31 73.9137 1131.99 73.3445C1127.67 72.7753 1123.27 73.0636 1119.06 74.1928C1114.85 75.3221 1110.9 77.2701 1107.44 79.9257C1103.98 82.5813 1101.08 85.8925 1098.9 89.67Z" fill="#EFCC6B"/>
<path d="M1098.9 89.67C1097.59 91.9462 1096.55 94.3698 1095.81 96.89C1100.95 91.4944 1107.75 87.9821 1115.12 86.9175C1122.49 85.8528 1130.01 87.2978 1136.46 91.02L1183.32 137.64L1191.12 124.13L1144.26 77.51C1140.48 75.3291 1136.31 73.9137 1131.99 73.3445C1127.67 72.7753 1123.27 73.0636 1119.06 74.1928C1114.85 75.3221 1110.9 77.2701 1107.44 79.9257C1103.98 82.5813 1101.08 85.8925 1098.9 89.67Z" fill="#E5E3E5"/>
<g style="mix-blend-mode:multiply" opacity="0.58">
<path d="M1150.54 83.7996L1149.79 83.5996C1149.79 83.5996 1176.79 112.31 1156.55 147.35L1174.82 152.29L1191.08 124.13L1150.54 83.7996Z" fill="#B6BCCC"/>
</g>
<path d="M1173.9 150.129V182.649L1110 199.599C1101.19 199.599 1092.75 196.1 1086.52 189.872C1080.29 183.644 1076.79 175.197 1076.79 166.389C1076.79 162.029 1077.65 157.712 1079.32 153.685C1080.99 149.657 1083.44 145.998 1086.52 142.916C1089.6 139.834 1093.27 137.39 1097.29 135.723C1101.32 134.055 1105.64 133.198 1110 133.199L1173.9 150.129Z" fill="#F4F0EA"/>
<path d="M1076.79 166.389C1076.79 169.017 1077.1 171.635 1077.72 174.189C1079.47 166.949 1083.61 160.509 1089.46 155.902C1095.32 151.296 1102.55 148.791 1110 148.789L1173.89 165.789V150.129L1110 133.199C1105.64 133.198 1101.32 134.055 1097.29 135.723C1093.27 137.39 1089.6 139.834 1086.52 142.916C1083.44 145.998 1080.99 149.657 1079.32 153.685C1077.65 157.712 1076.79 162.029 1076.79 166.389Z" fill="#EFCC6B"/>
<path d="M1076.79 166.389C1076.79 169.017 1077.1 171.635 1077.72 174.189C1079.47 166.949 1083.61 160.509 1089.46 155.902C1095.32 151.296 1102.55 148.791 1110 148.789L1173.89 165.789V150.129L1110 133.199C1105.64 133.198 1101.32 134.055 1097.29 135.723C1093.27 137.39 1089.6 139.834 1086.52 142.916C1083.44 145.998 1080.99 149.657 1079.32 153.685C1077.65 157.712 1076.79 162.029 1076.79 166.389Z" fill="#E5E3E5"/>
<g style="mix-blend-mode:multiply" opacity="0.58">
<path d="M1118.61 135.469L1117.86 135.669C1117.86 135.669 1155.59 147.039 1155.59 187.499L1173.89 182.649V150.129L1118.61 135.469Z" fill="#B6BCCC"/>
</g>
<path d="M1172 181.25L1188.26 209.41L1141.4 256.03C1137.62 258.211 1133.45 259.626 1129.13 260.195C1124.81 260.765 1120.41 260.476 1116.2 259.347C1111.99 258.218 1108.04 256.27 1104.58 253.614C1101.12 250.959 1098.22 247.648 1096.04 243.87C1093.86 240.094 1092.45 235.925 1091.88 231.603C1091.31 227.28 1091.6 222.888 1092.73 218.677C1093.86 214.465 1095.8 210.518 1098.46 207.059C1101.11 203.601 1104.42 200.699 1108.2 198.52L1172 181.25Z" fill="#F4F0EA"/>
<path d="M1096.04 243.87C1097.36 246.146 1098.94 248.26 1100.75 250.17C1098.65 243.023 1099.01 235.377 1101.77 228.46C1104.54 221.542 1109.55 215.756 1116 212.03L1179.8 194.76L1172 181.25L1108.2 198.52C1104.42 200.699 1101.11 203.601 1098.46 207.059C1095.8 210.518 1093.86 214.465 1092.73 218.677C1091.6 222.888 1091.31 227.28 1091.88 231.603C1092.45 235.925 1093.86 240.094 1096.04 243.87Z" fill="#EFCC6B"/>
<path d="M1096.04 243.87C1097.36 246.146 1098.94 248.26 1100.75 250.17C1098.65 243.023 1099.01 235.377 1101.77 228.46C1104.54 221.542 1109.55 215.756 1116 212.03L1179.8 194.76L1172 181.25L1108.2 198.52C1104.42 200.699 1101.11 203.601 1098.46 207.059C1095.8 210.518 1093.86 214.465 1092.73 218.677C1091.6 222.888 1091.31 227.28 1091.88 231.603C1092.45 235.925 1093.86 240.094 1096.04 243.87Z" fill="#E5E3E5"/>
<g style="mix-blend-mode:multiply" opacity="0.58">
<path d="M1116.8 196.2L1116.25 196.75C1116.25 196.75 1154.61 187.75 1174.84 222.75L1188.26 209.4L1172 181.25L1116.8 196.2Z" fill="#B6BCCC"/>
</g>
<path d="M1185.9 209.139L1214.06 225.399L1196.81 289.199C1194.63 292.975 1191.73 296.285 1188.27 298.939C1184.81 301.594 1180.86 303.541 1176.65 304.669C1172.44 305.798 1168.05 306.085 1163.73 305.515C1159.4 304.946 1155.24 303.53 1151.46 301.349C1147.68 299.169 1144.37 296.267 1141.72 292.808C1139.06 289.349 1137.11 285.4 1135.98 281.188C1134.85 276.976 1134.57 272.582 1135.13 268.258C1135.7 263.934 1137.12 259.765 1139.3 255.989L1185.9 209.139Z" fill="#F4F0EA"/>
<path d="M1151.46 301.349C1153.73 302.667 1156.16 303.708 1158.68 304.449C1153.28 299.313 1149.77 292.512 1148.71 285.14C1147.64 277.767 1149.09 270.251 1152.81 263.799L1199.43 216.939L1185.9 209.139L1139.3 255.989C1137.12 259.765 1135.7 263.934 1135.13 268.258C1134.57 272.582 1134.85 276.976 1135.98 281.188C1137.11 285.4 1139.06 289.349 1141.72 292.808C1144.37 296.267 1147.68 299.169 1151.46 301.349Z" fill="#EFCC6B"/>
<path d="M1151.46 301.349C1153.73 302.667 1156.16 303.708 1158.68 304.449C1153.28 299.313 1149.77 292.512 1148.71 285.14C1147.64 277.767 1149.09 270.251 1152.81 263.799L1199.43 216.939L1185.9 209.139L1139.3 255.989C1137.12 259.765 1135.7 263.934 1135.13 268.258C1134.57 272.582 1134.85 276.976 1135.98 281.188C1137.11 285.4 1139.06 289.349 1141.72 292.808C1144.37 296.267 1147.68 299.169 1151.46 301.349Z" fill="#E5E3E5"/>
<g style="mix-blend-mode:multiply" opacity="0.58">
<path d="M1145.59 249.669L1145.39 250.419C1145.39 250.419 1174.1 223.419 1209.14 243.659L1214.08 225.399L1185.9 209.139L1145.59 249.669Z" fill="#B6BCCC"/>
</g>
<path d="M1211.9 226.33H1244.42L1261.42 290.22C1261.42 294.581 1260.56 298.899 1258.89 302.927C1257.22 306.956 1254.78 310.617 1251.69 313.7C1248.61 316.783 1244.95 319.228 1240.92 320.896C1236.89 322.564 1232.57 323.421 1228.21 323.42C1223.85 323.421 1219.53 322.564 1215.5 320.896C1211.47 319.228 1207.81 316.782 1204.73 313.699C1201.65 310.616 1199.2 306.955 1197.53 302.927C1195.87 298.898 1195.01 294.58 1195.01 290.22L1211.9 226.33Z" fill="#F4F0EA"/>
<path d="M1228.18 323.419C1230.81 323.417 1233.43 323.105 1235.98 322.489C1228.74 320.736 1222.29 316.599 1217.69 310.742C1213.08 304.886 1210.58 297.65 1210.58 290.199L1227.58 226.309H1211.9L1194.98 290.199C1194.98 294.561 1195.83 298.88 1197.5 302.911C1199.17 306.942 1201.61 310.605 1204.69 313.69C1207.78 316.776 1211.44 319.223 1215.47 320.892C1219.5 322.561 1223.82 323.42 1228.18 323.419Z" fill="#EFCC6B"/>
<path d="M1228.18 323.419C1230.81 323.417 1233.43 323.105 1235.98 322.489C1228.74 320.736 1222.29 316.599 1217.69 310.742C1213.08 304.886 1210.58 297.65 1210.58 290.199L1227.58 226.309H1211.9L1194.98 290.199C1194.98 294.561 1195.83 298.88 1197.5 302.911C1199.17 306.942 1201.61 310.605 1204.69 313.69C1207.78 316.776 1211.44 319.223 1215.47 320.892C1219.5 322.561 1223.82 323.42 1228.18 323.419Z" fill="#E5E3E5"/>
<g style="mix-blend-mode:multiply" opacity="0.58">
<path d="M1197.26 281.6L1197.46 282.35C1197.46 282.35 1208.83 244.62 1249.29 244.62L1244.44 226.33H1211.9L1197.26 281.6Z" fill="#B6BCCC"/>
</g>
<path d="M1243.04 228.199L1271.2 211.939L1317.82 258.789C1320.01 262.568 1321.43 266.742 1322 271.071C1322.58 275.4 1322.29 279.799 1321.16 284.017C1320.03 288.235 1318.08 292.189 1315.42 295.653C1312.76 299.116 1309.44 302.02 1305.66 304.199C1301.88 306.38 1297.72 307.796 1293.39 308.366C1289.07 308.936 1284.68 308.648 1280.47 307.52C1276.26 306.392 1272.31 304.445 1268.85 301.79C1265.39 299.136 1262.49 295.826 1260.31 292.049L1243.04 228.199Z" fill="#F4F0EA"/>
<path d="M1305.66 304.199C1307.94 302.885 1310.06 301.304 1311.96 299.489C1304.81 301.59 1297.16 301.224 1290.24 298.451C1283.32 295.677 1277.54 290.657 1273.82 284.199L1256.55 220.389L1243.04 228.199L1260.31 291.999C1262.48 295.779 1265.38 299.094 1268.84 301.753C1272.3 304.413 1276.24 306.365 1280.46 307.498C1284.67 308.631 1289.06 308.923 1293.39 308.357C1297.71 307.791 1301.88 306.378 1305.66 304.199Z" fill="#EFCC6B"/>
<path d="M1305.66 304.199C1307.94 302.885 1310.06 301.304 1311.96 299.489C1304.81 301.59 1297.16 301.224 1290.24 298.451C1283.32 295.677 1277.54 290.657 1273.82 284.199L1256.55 220.389L1243.04 228.199L1260.31 291.999C1262.48 295.779 1265.38 299.094 1268.84 301.753C1272.3 304.413 1276.24 306.365 1280.46 307.498C1284.67 308.631 1289.06 308.923 1293.39 308.357C1297.71 307.791 1301.88 306.378 1305.66 304.199Z" fill="#E5E3E5"/>
<g style="mix-blend-mode:multiply" opacity="0.58">
<path d="M1257.98 283.409L1258.53 283.959C1258.53 283.959 1249.53 245.599 1284.53 225.369L1271.2 211.959L1243.04 228.199L1257.98 283.409Z" fill="#B6BCCC"/>
</g>
<path d="M1270.9 214.289L1287.16 186.129L1350.96 203.399C1358.59 207.804 1364.15 215.057 1366.43 223.563C1368.71 232.069 1367.51 241.132 1363.11 248.759C1360.93 252.536 1358.03 255.846 1354.57 258.5C1351.11 261.155 1347.16 263.102 1342.95 264.23C1338.73 265.359 1334.34 265.646 1330.02 265.076C1325.69 264.506 1321.53 263.09 1317.75 260.909L1270.9 214.289Z" fill="#F4F0EA"/>
<path d="M1363.14 248.759C1364.46 246.485 1365.5 244.061 1366.24 241.539C1361.1 246.933 1354.3 250.444 1346.93 251.507C1339.56 252.569 1332.04 251.123 1325.59 247.399L1278.73 200.779L1270.9 214.289L1317.75 260.909C1321.53 263.095 1325.7 264.515 1330.02 265.087C1334.35 265.66 1338.75 265.374 1342.96 264.245C1347.18 263.117 1351.13 261.168 1354.59 258.511C1358.06 255.854 1360.96 252.54 1363.14 248.759Z" fill="#EFCC6B"/>
<path d="M1363.14 248.759C1364.46 246.485 1365.5 244.061 1366.24 241.539C1361.1 246.933 1354.3 250.444 1346.93 251.507C1339.56 252.569 1332.04 251.123 1325.59 247.399L1278.73 200.779L1270.9 214.289L1317.75 260.909C1321.53 263.095 1325.7 264.515 1330.02 265.087C1334.35 265.66 1338.75 265.374 1342.96 264.245C1347.18 263.117 1351.13 261.168 1354.59 258.511C1358.06 255.854 1360.96 252.54 1363.14 248.759Z" fill="#E5E3E5"/>
<g style="mix-blend-mode:multiply" opacity="0.58">
<path d="M1311.46 254.629L1312.21 254.829C1312.21 254.829 1285.21 226.109 1305.45 191.079L1287.19 186.129L1270.9 214.289L1311.46 254.629Z" fill="#B6BCCC"/>
</g>
<path d="M1288.12 188.29V155.77L1352.01 138.83C1356.37 138.829 1360.69 139.687 1364.72 141.355C1368.75 143.023 1372.41 145.468 1375.49 148.551C1378.57 151.634 1381.02 155.295 1382.69 159.323C1384.35 163.352 1385.21 167.67 1385.21 172.03C1385.2 180.83 1381.7 189.267 1375.48 195.487C1369.25 201.706 1360.81 205.2 1352.01 205.2L1288.12 188.29Z" fill="#F4F0EA"/>
<path d="M1385.21 172.029C1385.21 169.401 1384.9 166.783 1384.28 164.229C1382.53 171.468 1378.39 177.908 1372.54 182.514C1366.69 187.121 1359.46 189.627 1352.01 189.629L1288.12 172.689V188.289L1352.01 205.289C1356.38 205.289 1360.7 204.428 1364.73 202.756C1368.76 201.083 1372.42 198.633 1375.51 195.543C1378.59 192.454 1381.04 188.787 1382.7 184.752C1384.37 180.717 1385.22 176.393 1385.21 172.029Z" fill="#EFCC6B"/>
<path d="M1385.21 172.029C1385.21 169.401 1384.9 166.783 1384.28 164.229C1382.53 171.468 1378.39 177.908 1372.54 182.514C1366.69 187.121 1359.46 189.627 1352.01 189.629L1288.12 172.689V188.289L1352.01 205.289C1356.38 205.289 1360.7 204.428 1364.73 202.756C1368.76 201.083 1372.42 198.633 1375.51 195.543C1378.59 192.454 1381.04 188.787 1382.7 184.752C1384.37 180.717 1385.22 176.393 1385.21 172.029Z" fill="#E5E3E5"/>
<g style="mix-blend-mode:multiply" opacity="0.58">
<path d="M1343.39 202.95L1344.14 202.75C1344.14 202.75 1306.41 191.38 1306.41 150.92L1288.12 155.77V188.29L1343.39 202.95Z" fill="#B6BCCC"/>
</g>
<path d="M1290.01 157.199L1273.75 129.039L1320.6 82.3992C1324.38 80.2179 1328.54 78.8019 1332.87 78.232C1337.19 77.6621 1341.58 77.9495 1345.8 79.0778C1350.01 80.2061 1353.96 82.1531 1357.42 84.8077C1360.88 87.4624 1363.78 90.7725 1365.96 94.5492C1370.36 102.176 1371.56 111.239 1369.28 119.745C1367 128.251 1361.44 135.504 1353.81 139.909L1290.01 157.199Z" fill="#F4F0EA"/>
<path d="M1365.96 94.5498C1364.65 92.2724 1363.07 90.1607 1361.25 88.2598C1363.35 95.4037 1363 103.048 1360.23 109.963C1357.47 116.879 1352.46 122.664 1346.01 126.39L1282.2 143.66L1290.01 157.2L1353.81 139.93C1357.59 137.749 1360.9 134.845 1363.56 131.383C1366.21 127.922 1368.16 123.971 1369.29 119.757C1370.42 115.543 1370.7 111.148 1370.13 106.822C1369.56 102.497 1368.14 98.327 1365.96 94.5498Z" fill="#EFCC6B"/>
<path d="M1365.96 94.5498C1364.65 92.2724 1363.07 90.1607 1361.25 88.2598C1363.35 95.4037 1363 103.048 1360.23 109.963C1357.47 116.879 1352.46 122.664 1346.01 126.39L1282.2 143.66L1290.01 157.2L1353.81 139.93C1357.59 137.749 1360.9 134.845 1363.56 131.383C1366.21 127.922 1368.16 123.971 1369.29 119.757C1370.42 115.543 1370.7 111.148 1370.13 106.822C1369.56 102.497 1368.14 98.327 1365.96 94.5498Z" fill="#E5E3E5"/>
<g style="mix-blend-mode:multiply" opacity="0.58">
<path d="M1345.2 142.198L1345.75 141.648C1345.75 141.648 1307.39 150.648 1287.16 115.648L1273.75 128.998L1290.01 157.198L1345.2 142.198Z" fill="#B6BCCC"/>
</g>
<path d="M1276.08 129.29L1247.9 113.03L1265.19 49.1996C1269.59 41.5726 1276.85 36.0068 1285.35 33.7265C1293.86 31.4461 1302.92 32.6378 1310.55 37.0396C1318.18 41.4444 1323.74 48.6975 1326.02 57.2038C1328.3 65.71 1327.1 74.773 1322.7 82.3996L1276.08 129.29Z" fill="#F4F0EA"/>
<path d="M1310.55 37.0685C1308.27 35.7589 1305.85 34.7218 1303.33 33.9785C1308.72 39.1154 1312.23 45.9166 1313.3 53.289C1314.36 60.6615 1312.91 68.1772 1309.19 74.6285L1262.57 121.489L1276.08 129.289L1322.7 82.4285C1327.1 74.8019 1328.3 65.739 1326.02 57.2327C1323.74 48.7264 1318.18 41.4734 1310.55 37.0685Z" fill="#EFCC6B"/>
<path d="M1310.55 37.0685C1308.27 35.7589 1305.85 34.7218 1303.33 33.9785C1308.72 39.1154 1312.23 45.9166 1313.3 53.289C1314.36 60.6615 1312.91 68.1772 1309.19 74.6285L1262.57 121.489L1276.08 129.289L1322.7 82.4285C1327.1 74.8019 1328.3 65.739 1326.02 57.2327C1323.74 48.7264 1318.18 41.4734 1310.55 37.0685Z" fill="#E5E3E5"/>
<g style="mix-blend-mode:multiply" opacity="0.58">
<path d="M1316.42 88.75L1316.62 88C1316.62 88 1287.9 115 1252.87 94.76L1247.87 113.03L1276.03 129.29L1316.42 88.75Z" fill="#B6BCCC"/>
</g>
<path d="M1231 234.428C1267.02 234.428 1296.22 205.228 1296.22 169.208C1296.22 133.188 1267.02 103.988 1231 103.988C1194.98 103.988 1165.78 133.188 1165.78 169.208C1165.78 205.228 1194.98 234.428 1231 234.428Z" fill="#F9C11F"/>
<path d="M1269.12 116.299C1278.14 128.86 1282.39 144.216 1281.14 159.626C1279.88 175.036 1273.19 189.498 1262.25 200.431C1251.32 211.364 1236.86 218.057 1221.45 219.315C1206.04 220.572 1190.68 216.314 1178.12 207.299C1183.63 214.983 1190.76 221.375 1198.99 226.033C1207.22 230.69 1216.37 233.501 1225.79 234.271C1235.22 235.04 1244.7 233.75 1253.58 230.489C1262.46 227.228 1270.52 222.075 1277.21 215.387C1283.9 208.699 1289.05 200.637 1292.31 191.758C1295.57 182.88 1296.86 173.398 1296.09 163.972C1295.32 154.545 1292.51 145.398 1287.85 137.166C1283.2 128.934 1276.8 121.814 1269.12 116.299Z" fill="#DE8626"/>
<g style="mix-blend-mode:multiply">
<path d="M1167.14 181.249L1166.95 181.499C1170.12 198.503 1179.92 213.55 1194.19 223.329C1208.46 233.108 1226.03 236.818 1243.04 233.644C1260.04 230.469 1275.09 220.669 1284.87 206.401C1294.64 192.132 1298.35 174.563 1295.18 157.559C1234.7 226.199 1167.14 181.249 1167.14 181.249Z" fill="#EF8B21"/>
</g>
<path d="M1232.21 169.4C1235.47 169.4 1238.11 166.758 1238.11 163.5C1238.11 160.241 1235.47 157.6 1232.21 157.6C1228.95 157.6 1226.31 160.241 1226.31 163.5C1226.31 166.758 1228.95 169.4 1232.21 169.4Z" fill="#DE8626"/>
<path d="M1204.68 135.179C1207.94 135.179 1210.58 132.537 1210.58 129.279C1210.58 126.02 1207.94 123.379 1204.68 123.379C1201.42 123.379 1198.78 126.02 1198.78 129.279C1198.78 132.537 1201.42 135.179 1204.68 135.179Z" fill="#DE8626"/>
<path d="M1245.03 132.05C1248.29 132.05 1250.93 129.408 1250.93 126.15C1250.93 122.892 1248.29 120.25 1245.03 120.25C1241.77 120.25 1239.13 122.892 1239.13 126.15C1239.13 129.408 1241.77 132.05 1245.03 132.05Z" fill="#DE8626"/>
<path d="M1239.99 198.209C1242.77 198.209 1245.03 195.952 1245.03 193.169C1245.03 190.385 1242.77 188.129 1239.99 188.129C1237.21 188.129 1234.95 190.385 1234.95 193.169C1234.95 195.952 1237.21 198.209 1239.99 198.209Z" fill="#DE8626"/>
<path d="M1245.03 182.01C1247.81 182.01 1250.07 179.753 1250.07 176.97C1250.07 174.186 1247.81 171.93 1245.03 171.93C1242.25 171.93 1239.99 174.186 1239.99 176.97C1239.99 179.753 1242.25 182.01 1245.03 182.01Z" fill="#DE8626"/>
<path d="M1270.93 193.789C1273.71 193.789 1275.97 191.532 1275.97 188.749C1275.97 185.965 1273.71 183.709 1270.93 183.709C1268.15 183.709 1265.89 185.965 1265.89 188.749C1265.89 191.532 1268.15 193.789 1270.93 193.789Z" fill="#DE8626"/>
<path d="M1229.61 147.98C1231.81 147.98 1233.59 146.198 1233.59 144C1233.59 141.801 1231.81 140.02 1229.61 140.02C1227.41 140.02 1225.63 141.801 1225.63 144C1225.63 146.198 1227.41 147.98 1229.61 147.98Z" fill="#DE8626"/>
<path d="M1269.89 174.448C1272.09 174.448 1273.87 172.666 1273.87 170.468C1273.87 168.27 1272.09 166.488 1269.89 166.488C1267.69 166.488 1265.91 168.27 1265.91 170.468C1265.91 172.666 1267.69 174.448 1269.89 174.448Z" fill="#DE8626"/>
<path d="M1260.34 145.368C1262.54 145.368 1264.32 143.586 1264.32 141.388C1264.32 139.19 1262.54 137.408 1260.34 137.408C1258.14 137.408 1256.36 139.19 1256.36 141.388C1256.36 143.586 1258.14 145.368 1260.34 145.368Z" fill="#DE8626"/>
<path d="M1197.26 155.108C1199.46 155.108 1201.24 153.327 1201.24 151.128C1201.24 148.93 1199.46 147.148 1197.26 147.148C1195.06 147.148 1193.28 148.93 1193.28 151.128C1193.28 153.327 1195.06 155.108 1197.26 155.108Z" fill="#DE8626"/>
<path d="M1262.57 127.358C1264.77 127.358 1266.55 125.577 1266.55 123.378C1266.55 121.18 1264.77 119.398 1262.57 119.398C1260.37 119.398 1258.59 121.18 1258.59 123.378C1258.59 125.577 1260.37 127.358 1262.57 127.358Z" fill="#DE8626"/>
<path d="M1225.63 122.089C1227.83 122.089 1229.61 120.307 1229.61 118.109C1229.61 115.911 1227.83 114.129 1225.63 114.129C1223.43 114.129 1221.65 115.911 1221.65 118.109C1221.65 120.307 1223.43 122.089 1225.63 122.089Z" fill="#DE8626"/>
<path d="M1218.24 168.118C1220.44 168.118 1222.22 166.336 1222.22 164.138C1222.22 161.94 1220.44 160.158 1218.24 160.158C1216.04 160.158 1214.26 161.94 1214.26 164.138C1214.26 166.336 1216.04 168.118 1218.24 168.118Z" fill="#DE8626"/>
<path d="M1197.26 193.429C1199.46 193.429 1201.24 191.647 1201.24 189.449C1201.24 187.251 1199.46 185.469 1197.26 185.469C1195.06 185.469 1193.28 187.251 1193.28 189.449C1193.28 191.647 1195.06 193.429 1197.26 193.429Z" fill="#DE8626"/>
<path d="M1179.8 176.759C1182 176.759 1183.78 174.977 1183.78 172.779C1183.78 170.581 1182 168.799 1179.8 168.799C1177.6 168.799 1175.82 170.581 1175.82 172.779C1175.82 174.977 1177.6 176.759 1179.8 176.759Z" fill="#DE8626"/>
<path d="M1201.24 174.159C1203.87 174.159 1206 172.028 1206 169.399C1206 166.77 1203.87 164.639 1201.24 164.639C1198.61 164.639 1196.48 166.77 1196.48 169.399C1196.48 172.028 1198.61 174.159 1201.24 174.159Z" fill="#DE8626"/>
<path d="M1219.33 188.48C1222.13 188.48 1224.4 186.21 1224.4 183.41C1224.4 180.61 1222.13 178.34 1219.33 178.34C1216.53 178.34 1214.26 180.61 1214.26 183.41C1214.26 186.21 1216.53 188.48 1219.33 188.48Z" fill="#DE8626"/>
<path d="M1247.92 150.259C1250.36 150.259 1252.33 148.285 1252.33 145.849C1252.33 143.414 1250.36 141.439 1247.92 141.439C1245.48 141.439 1243.51 143.414 1243.51 145.849C1243.51 148.285 1245.48 150.259 1247.92 150.259Z" fill="#DE8626"/>
<path d="M1223.28 209.638C1225.72 209.638 1227.69 207.664 1227.69 205.228C1227.69 202.793 1225.72 200.818 1223.28 200.818C1220.84 200.818 1218.87 202.793 1218.87 205.228C1218.87 207.664 1220.84 209.638 1223.28 209.638Z" fill="#DE8626"/>
<path d="M1270.93 152.388C1273.37 152.388 1275.34 150.414 1275.34 147.978C1275.34 145.543 1273.37 143.568 1270.93 143.568C1268.49 143.568 1266.52 145.543 1266.52 147.978C1266.52 150.414 1268.49 152.388 1270.93 152.388Z" fill="#DE8626"/>
<path d="M1214.2 155.11C1217.04 155.11 1219.34 152.809 1219.34 149.97C1219.34 147.131 1217.04 144.83 1214.2 144.83C1211.36 144.83 1209.06 147.131 1209.06 149.97C1209.06 152.809 1211.36 155.11 1214.2 155.11Z" fill="#DE8626"/>
<path d="M1183.78 150.989C1186.62 150.989 1188.92 148.688 1188.92 145.849C1188.92 143.01 1186.62 140.709 1183.78 140.709C1180.94 140.709 1178.64 143.01 1178.64 145.849C1178.64 148.688 1180.94 150.989 1183.78 150.989Z" fill="#DE8626"/>
<path d="M1261.39 164.219C1264.23 164.219 1266.53 161.918 1266.53 159.079C1266.53 156.241 1264.23 153.939 1261.39 153.939C1258.55 153.939 1256.25 156.241 1256.25 159.079C1256.25 161.918 1258.55 164.219 1261.39 164.219Z" fill="#DE8626"/>
<path d="M1316.78 75.9209C1319.52 69.2298 1318.58 62.5138 1314.69 60.9203C1310.79 59.3268 1305.42 63.4592 1302.68 70.1503C1299.94 76.8414 1300.88 83.5574 1304.78 85.1509C1308.67 86.7444 1314.05 82.612 1316.78 75.9209Z" fill="#F6FAFE"/>
<path d="M1364.58 190.747C1365.3 186.601 1360.8 182.35 1354.51 181.251C1348.23 180.152 1342.55 182.622 1341.82 186.767C1341.1 190.913 1345.6 195.164 1351.89 196.263C1358.17 197.362 1363.85 194.892 1364.58 190.747Z" fill="#F6FAFE"/>
<path d="M1311.96 56.0695C1314.96 56.0695 1317.4 53.6339 1317.4 50.6295C1317.4 47.625 1314.96 45.1895 1311.96 45.1895C1308.96 45.1895 1306.52 47.625 1306.52 50.6295C1306.52 53.6339 1308.96 56.0695 1311.96 56.0695Z" fill="#F6FAFE"/>
<path d="M1357.12 118.109C1360.12 118.109 1362.56 115.673 1362.56 112.669C1362.56 109.664 1360.12 107.229 1357.12 107.229C1354.12 107.229 1351.68 109.664 1351.68 112.669C1351.68 115.673 1354.12 118.109 1357.12 118.109Z" fill="#F6FAFE"/>
<path d="M1373.04 186.679C1376.04 186.679 1378.48 184.243 1378.48 181.239C1378.48 178.234 1376.04 175.799 1373.04 175.799C1370.04 175.799 1367.6 178.234 1367.6 181.239C1367.6 184.243 1370.04 186.679 1373.04 186.679Z" fill="#F6FAFE"/>
<path d="M1348.03 133.119C1353.1 130.742 1355.81 125.831 1354.09 122.15C1352.36 118.47 1346.85 117.414 1341.78 119.791C1336.71 122.168 1334 127.079 1335.72 130.76C1337.45 134.44 1342.96 135.496 1348.03 133.119Z" fill="#F6FAFE"/>
<path d="M1293.81 385.2L1430.71 219.1C1430.71 219.1 1333.18 234.2 1293.81 385.2Z" fill="#66BE64"/>
<path d="M1430.71 219.08L1293.81 385.2C1293.81 385.2 1405.81 366.25 1430.71 219.08Z" fill="#4CA84E"/>
<g style="mix-blend-mode:multiply">
<path d="M1325.16 306.42C1313.09 327.35 1302.16 353.22 1293.81 385.18C1293.81 385.18 1362.88 373.5 1404.6 297.18C1368.9 335.46 1325.16 306.42 1325.16 306.42Z" fill="#4CA84E"/>
</g>
<path d="M1176.79 396.199L1041.09 229.119C1041.09 229.119 1138.51 244.939 1176.79 396.199Z" fill="#66BE64"/>
<path d="M1041.09 229.119L1176.79 396.199C1176.79 396.199 1064.9 376.459 1041.09 229.119Z" fill="#4CA84E"/>
<g style="mix-blend-mode:multiply">
<path d="M1146.01 317.199C1157.93 338.199 1168.68 364.199 1176.79 396.199C1176.79 396.199 1107.79 384.029 1066.64 307.439C1102.07 345.939 1146.01 317.199 1146.01 317.199Z" fill="#4CA84E"/>
</g>
</g>
<defs>
<clipPath id="clip0_4968_298">
<rect width="414.66" height="793.77" fill="white" transform="translate(0 53)"/>
</clipPath>
<clipPath id="clip1_4968_298">
<rect width="434.5" height="555.93" fill="white" transform="translate(488 289)"/>
</clipPath>
<clipPath id="clip2_4968_298">
<rect width="447.71" height="845.44" fill="white" transform="translate(998)"/>
</clipPath>
</defs>
</svg>
