<svg width="219" height="230" viewBox="0 0 219 230" fill="none" xmlns="http://www.w3.org/2000/svg">
<g clip-path="url(#clip0_2857_298)">
<path d="M98.12 111.38C98.184 115.124 97.4992 118.844 96.1058 122.32C94.7124 125.796 92.6385 128.958 90.0059 131.621C87.3733 134.285 84.2351 136.395 80.7755 137.829C77.3159 139.263 73.6048 139.99 69.86 139.97C59.98 139.97 52.5333 136.613 47.52 129.9C42.5067 123.187 40 114.52 40 103.9C40 88.5666 44.1233 75.7433 52.37 65.4299C60.6167 55.1166 71.8767 49.9699 86.15 49.9899C87.4478 49.9588 88.7459 50.039 90.03 50.2299C91.033 50.4561 91.9923 50.8445 92.87 51.3799C93.4428 51.7337 93.9394 52.1979 94.3309 52.7456C94.7223 53.2933 95.0008 53.9135 95.15 54.5699C95.6677 56.5774 95.9 58.6477 95.84 60.7199C95.8798 62.4675 95.6881 64.2127 95.27 65.9099C95.0017 67.026 94.5379 68.0857 93.9 69.0399C93.3076 69.8125 92.49 70.3821 91.56 70.6699C90.7199 70.9944 89.8376 71.1965 88.94 71.2699C88.22 71.3199 87.14 71.3299 85.7 71.3299C82.3738 71.2894 79.0686 71.8623 75.95 73.0199C73.4203 73.9123 71.0971 75.3069 69.12 77.1199C67.5964 78.5926 66.2199 80.2103 65.01 81.95C64.0915 83.1932 63.3822 84.5781 62.91 86.0499L62.34 87.7399C64.9553 86.4183 67.8399 85.7169 70.77 85.6899C74.3555 85.6334 77.9152 86.3043 81.2342 87.6621C84.5531 89.0199 87.5623 91.0365 90.08 93.5899C95.44 98.8566 98.12 104.787 98.12 111.38ZM69.4 120.19C75.2533 120.19 78.18 117.497 78.18 112.11C78.1555 110.196 77.446 108.355 76.18 106.92C74.85 105.32 72.82 104.51 70.08 104.51C66.97 104.51 64.63 105.25 63.08 106.74C62.3512 107.382 61.7662 108.171 61.3629 109.055C60.9597 109.939 60.7475 110.898 60.74 111.87C60.7215 112.838 60.8189 113.805 61.03 114.75C61.2594 115.665 61.6234 116.541 62.11 117.35C62.7134 118.335 63.6392 119.08 64.73 119.46C66.228 119.99 67.8116 120.238 69.4 120.19Z" fill="white"/>
<path d="M123.03 141.65C125.161 141.623 127.269 142.092 129.188 143.019C131.107 143.945 132.785 145.305 134.09 146.99C137.083 150.679 138.652 155.321 138.51 160.07V172.44C138.524 173.251 138.491 174.063 138.41 174.87C138.309 175.508 138.106 176.126 137.81 176.7C137.632 177.048 137.383 177.356 137.08 177.604C136.777 177.852 136.427 178.034 136.05 178.14C134.949 178.456 133.805 178.597 132.66 178.56C131.551 178.596 130.444 178.455 129.38 178.14C128.627 177.91 127.995 177.392 127.62 176.7C127.295 176.121 127.078 175.487 126.98 174.83C126.904 173.989 126.871 173.144 126.88 172.3V160C126.977 158.36 126.431 156.746 125.36 155.5C124.859 154.968 124.25 154.548 123.574 154.269C122.898 153.989 122.171 153.857 121.44 153.88C119.929 153.868 118.465 154.404 117.32 155.39C116.224 156.223 115.488 157.443 115.26 158.8V172.44C115.274 173.251 115.241 174.063 115.16 174.87C115.059 175.508 114.856 176.126 114.56 176.7C114.382 177.048 114.133 177.356 113.83 177.604C113.527 177.852 113.177 178.034 112.8 178.14C111.699 178.456 110.555 178.597 109.41 178.56C108.288 178.594 107.168 178.452 106.09 178.14C105.708 178.032 105.354 177.844 105.051 177.589C104.748 177.334 104.502 177.017 104.33 176.66C104.039 176.083 103.837 175.467 103.73 174.83C103.653 174.012 103.619 173.191 103.63 172.37V130.37C103.621 129.559 103.654 128.748 103.73 127.94C103.831 127.302 104.034 126.684 104.33 126.11C104.508 125.762 104.757 125.454 105.059 125.206C105.362 124.958 105.713 124.776 106.09 124.67C107.191 124.354 108.335 124.213 109.48 124.25C110.602 124.216 111.722 124.358 112.8 124.67C113.18 124.78 113.534 124.968 113.837 125.223C114.14 125.478 114.386 125.794 114.56 126.15C114.854 126.736 115.056 127.363 115.16 128.01C115.241 128.817 115.274 129.629 115.26 130.44V145.98C117.467 143.093 120.057 141.65 123.03 141.65Z" fill="white"/>
<path d="M161.29 166.19H172.65C173.426 166.171 174.202 166.217 174.97 166.33C175.584 166.456 176.171 166.693 176.7 167.03C177.366 167.474 177.841 168.152 178.03 168.93C178.559 171.233 178.559 173.627 178.03 175.93C177.937 176.32 177.765 176.686 177.524 177.006C177.283 177.326 176.979 177.593 176.63 177.79C176.082 178.098 175.488 178.314 174.87 178.43C174.109 178.511 173.345 178.544 172.58 178.53H148.58C147.814 178.53 147.056 178.367 146.358 178.052C145.659 177.736 145.036 177.276 144.53 176.7C143.419 175.52 142.8 173.961 142.8 172.34C142.8 170.719 143.419 169.16 144.53 167.98C145.683 166.813 147.453 165.103 149.84 162.85C152.227 160.597 154.397 158.57 156.35 156.77C158.303 154.97 159.367 153.97 159.54 153.77H150.17C149.33 153.77 148.7 153.77 148.28 153.77C147.756 153.721 147.241 153.6 146.75 153.41C146.211 153.244 145.736 152.915 145.39 152.47C145.02 151.911 144.75 151.292 144.59 150.64C144.152 148.664 144.152 146.616 144.59 144.64C144.737 143.985 145.009 143.363 145.39 142.81C145.744 142.377 146.216 142.057 146.75 141.89C147.242 141.707 147.757 141.589 148.28 141.54C148.7 141.54 149.33 141.54 150.17 141.54H171.76C172.521 141.537 173.274 141.691 173.972 141.992C174.671 142.293 175.3 142.735 175.82 143.29C176.38 143.853 176.82 144.523 177.116 145.26C177.411 145.997 177.556 146.786 177.54 147.58C177.578 148.392 177.45 149.204 177.165 149.966C176.88 150.727 176.442 151.423 175.88 152.01C174.34 153.59 169.477 158.317 161.29 166.19Z" fill="white"/>
</g>
<defs>
<clipPath id="clip0_2857_298">
<rect width="138.43" height="128.56" fill="white" transform="translate(40 50)"/>
</clipPath>
</defs>
</svg>
