<svg width="250" height="381" viewBox="0 0 250 381" fill="none" xmlns="http://www.w3.org/2000/svg">
<g clip-path="url(#clip0_3780_1617)">
<path d="M150.959 62.1401C152.906 47.6068 154.449 33.0334 155.589 18.4201C155.749 16.3401 155.889 14.17 155.059 12.27C154.115 10.4349 152.655 8.91594 150.859 7.90005C139.559 0.560048 124.859 2.03009 111.539 3.76009C106.319 4.44009 100.199 5.7601 98.1791 10.6401C97.2491 12.8701 97.4391 15.3901 97.6491 17.8001C98.9491 32.5867 100.319 47.3668 101.759 62.1401L127.409 62.0701L150.959 62.1401Z" fill="#BE8363"/>
<path d="M101.75 62.1401C105.799 61.213 109.91 60.5813 114.05 60.2501C118.15 59.8901 122.25 59.7201 126.36 59.7001C130.47 59.6801 134.56 59.8801 138.66 60.2401C142.802 60.5647 146.913 61.1998 150.96 62.1401C146.906 63.047 142.792 63.6585 138.65 63.9701C134.55 64.3101 130.45 64.4501 126.36 64.4501C122.27 64.4501 118.16 64.3001 114.06 63.9701C109.918 63.6585 105.804 63.047 101.75 62.1401Z" fill="#231F20"/>
<path d="M150.96 62.14C151.8 48.44 152.78 34.8 153.53 21.14C153.6 19.46 153.75 17.67 153.73 16.14C153.786 14.811 153.437 13.4962 152.73 12.37C151.867 11.2438 150.781 10.3076 149.54 9.61997C148.85 9.23997 148.17 8.82993 147.47 8.45993C146.77 8.08993 146.03 7.76993 145.3 7.45993C139.39 5.02993 132.74 4.45996 126.11 4.73996C122.79 4.82996 119.43 5.11996 116.11 5.48996C114.44 5.67996 112.71 5.88995 111.11 6.09995C109.522 6.30736 107.949 6.61462 106.4 7.01993C104.982 7.38404 103.632 7.97144 102.4 8.75998C101.322 9.49692 100.492 10.5427 100.02 11.76C99.5879 13.1394 99.4283 14.5896 99.5496 16.0299C99.6096 17.6399 99.7496 19.3999 99.8596 21.0899C100.77 34.7499 101.52 48.4299 101.79 62.1499C99.5496 48.6199 97.7896 35.03 96.1696 21.42C95.9696 19.7 95.7396 18.07 95.5796 16.26C95.3505 14.285 95.5275 12.2841 96.0996 10.38C96.81 8.34514 98.1254 6.57608 99.8696 5.30997C101.471 4.17089 103.253 3.30891 105.14 2.75998C106.888 2.2417 108.673 1.85723 110.48 1.60996C112.23 1.36996 113.9 1.14997 115.62 0.939974C119.06 0.519974 122.53 0.179959 126.04 0.0499593C129.594 -0.0804661 133.153 0.0834166 136.68 0.539949C140.282 1.00051 143.802 1.95973 147.14 3.38999C147.98 3.76999 148.79 4.20996 149.61 4.60996C150.43 5.00996 151.18 5.60994 151.97 6.02994C153.688 7.08584 155.164 8.49332 156.3 10.1599C156.891 11.0962 157.305 12.1336 157.52 13.2199C157.705 14.2085 157.776 15.2152 157.73 16.2199C157.65 18.1199 157.41 19.7399 157.25 21.4699C155.76 35.1099 153.75 48.7 150.96 62.14Z" fill="#231F20"/>
<path d="M157.309 93.59L149.479 62.4501L149.549 62.35C150.599 62.22 160.549 61.0101 162.099 59.9401C166.649 56.9401 165.689 46.04 165.589 45.02L165.499 44.9401H148.329L124.789 44.8L99.1291 44.8701H84.1291L84.0391 44.9501C83.9391 45.9501 82.9791 56.8401 87.5291 59.8701C89.1291 60.9401 99.0391 62.15 100.079 62.28L100.149 62.3801L92.3191 93.52C92.3191 93.52 -0.610916 182.9 -0.000916271 189.74C0.999084 200.74 44.5091 365.55 44.5091 365.55C44.5091 365.55 75.6791 378.34 124.789 378.34C173.899 378.34 205.069 365.55 205.069 365.55C205.069 365.55 248.619 200.73 249.579 189.74C250.169 182.9 157.309 93.59 157.309 93.59Z" fill="#FAF28C"/>
<path d="M249.581 189.74C249.433 189.065 249.128 188.435 248.691 187.9C248.301 187.33 247.861 186.79 247.421 186.26C246.531 185.2 245.621 184.16 244.681 183.14C242.791 181.14 240.861 179.14 238.921 177.14C235.011 173.2 231.091 169.26 227.111 165.38L203.331 142L191.451 130.28L179.641 118.5L167.881 106.66L156.201 94.8L156.131 94.72C155.945 94.5292 155.817 94.2902 155.761 94.03C154.661 88.79 153.511 83.5601 152.471 78.3101C151.431 73.0601 150.411 67.7901 149.471 62.5101L149.551 62.41L149.491 62.52C151.157 67.62 152.767 72.7334 154.321 77.86C155.891 82.98 157.321 88.13 158.861 93.27L158.421 92.5101C162.541 96.2701 166.651 100.02 170.721 103.82C174.791 107.62 178.831 111.45 182.841 115.32L194.791 126.98L206.561 138.8C214.351 146.8 222.011 154.86 229.471 163.15C233.151 167.34 236.861 171.51 240.371 175.86C242.131 178.03 243.871 180.22 245.511 182.49C246.341 183.62 247.151 184.76 247.891 185.96C248.261 186.55 248.621 187.16 248.891 187.78C249.271 188.37 249.507 189.042 249.581 189.74Z" fill="#231F20"/>
<path d="M0 189.74C1.41 197.17 3.52999 204.43 5.35999 211.74C7.18999 219.05 9.21004 226.36 11.17 233.65L23.01 277.42L46.6 364.98L45.33 363.53C48.33 364.69 51.61 365.71 54.82 366.65C56.44 367.12 58.05 367.57 59.69 367.99C61.33 368.41 62.95 368.82 64.59 369.2C71.14 370.75 77.77 372.01 84.44 373.03C111.199 376.93 138.381 376.93 165.14 373.03C171.81 372.03 178.44 370.76 184.99 369.2C186.63 368.82 188.27 368.43 189.89 367.99C191.51 367.55 193.14 367.12 194.76 366.66C197.97 365.72 201.23 364.66 204.25 363.54L202.97 364.99L226.57 277.43L238.39 233.67C240.39 226.383 242.33 219.08 244.21 211.76C246.04 204.43 248.21 197.17 249.57 189.76C249.08 193.51 248.26 197.21 247.57 200.92C246.88 204.63 246 208.32 245.15 212C243.477 219.367 241.777 226.733 240.05 234.1L234.82 256.17L229.43 278.17C225.85 292.86 222.13 307.51 218.43 322.17C214.73 336.83 210.95 351.46 207.18 366.1C207.093 366.42 206.933 366.716 206.713 366.964C206.492 367.212 206.218 367.406 205.91 367.53C202.58 368.85 199.35 369.89 196.04 370.9C194.39 371.39 192.74 371.9 191.04 372.32C189.34 372.74 187.72 373.2 186.04 373.6C179.36 375.22 172.61 376.52 165.82 377.6C138.617 381.747 110.943 381.747 83.74 377.6C76.96 376.54 70.2 375.24 63.52 373.6C61.85 373.19 60.18 372.77 58.52 372.31C56.86 371.85 55.21 371.39 53.52 370.89C50.21 369.89 46.98 368.84 43.65 367.53C43.3449 367.406 43.0725 367.214 42.8539 366.967C42.6354 366.721 42.4766 366.428 42.39 366.11C38.61 351.47 34.82 336.84 31.14 322.18C27.46 307.52 23.74 292.87 20.14 278.18L14.75 256.18L9.52002 234.12C7.80002 226.787 6.10004 219.42 4.42004 212.02C3.57004 208.34 2.78999 204.64 1.98999 200.94C1.18999 197.24 0.5 193.49 0 189.74Z" fill="#231F20"/>
<path d="M100.1 62.4501C99.16 67.7401 98.18 73.0101 97.1 78.2501C96.02 83.4901 94.92 88.74 93.81 93.98C93.7546 94.2376 93.6261 94.4737 93.44 94.66L93.37 94.7401L81.69 106.66L69.94 118.5L58.13 130.28L46.26 142L22.48 165.38C18.48 169.25 14.58 173.19 10.67 177.13C8.72004 179.13 6.79003 181.13 4.91003 183.13C3.96003 184.13 3.06003 185.2 2.16003 186.25C1.72003 186.78 1.29001 187.32 0.890015 187.89C0.459982 188.429 0.155892 189.058 0 189.73C0.0603923 189.022 0.28282 188.338 0.650024 187.73C0.960024 187.11 1.32002 186.5 1.65002 185.9C2.39002 184.71 3.21003 183.57 4.03003 182.44C5.67003 180.16 7.41004 177.98 9.17004 175.81C12.68 171.46 16.38 167.28 20.07 163.1C27.53 154.8 35.19 146.71 42.98 138.75L54.75 126.89L66.75 115.23C70.75 111.37 74.82 107.56 78.87 103.74C82.92 99.9201 87.05 96.1801 91.17 92.4301L90.73 93.1901C92.24 88.0501 93.73 82.9 95.28 77.77C96.83 72.64 98.39 67.5501 100.1 62.4501Z" fill="#231F20"/>
<path d="M149.55 62.35C151.9 61.84 154.25 61.35 156.55 60.78C157.7 60.5 158.86 60.19 159.97 59.85C160.479 59.6991 160.974 59.505 161.45 59.27C161.6 59.21 161.79 58.96 161.96 58.82C162.148 58.6559 162.31 58.4636 162.44 58.25C163.041 57.376 163.459 56.3896 163.67 55.35C163.943 54.2616 164.114 53.1501 164.18 52.03C164.312 49.7439 164.228 47.4504 163.93 45.18L164.52 46.29L164.42 46.22L165.47 46.6C158.69 46.8 151.9 47 145.12 47.08C138.34 47.16 131.55 47.2 124.77 47.2C117.99 47.2 111.21 47.2 104.42 47.09L94.2499 46.9L84.07 46.61L85.07 46.22L84.98 46.3L85.57 45.18C85.2749 47.4507 85.1945 49.7442 85.33 52.03C85.3884 53.1502 85.5559 54.2622 85.83 55.35C86.045 56.3851 86.463 57.3674 87.0599 58.24C87.1896 58.4536 87.3515 58.6459 87.54 58.81C87.71 58.95 87.8999 59.2 88.0499 59.26C88.5244 59.4985 89.0198 59.6926 89.53 59.84C90.64 60.17 91.79 60.49 92.95 60.77C95.27 61.32 97.61 61.83 99.95 62.33L100.01 62.44L99.9299 62.34C97.5299 62.26 95.13 62.1 92.73 61.86C91.53 61.73 90.3199 61.6 89.1099 61.36C88.4513 61.2596 87.8068 61.0818 87.1899 60.83C86.8554 60.6668 86.5429 60.4618 86.26 60.22C85.9709 60.0171 85.7117 59.7748 85.4899 59.5C84.5984 58.4922 83.9183 57.3156 83.4899 56.04C83.0671 54.8323 82.7623 53.5865 82.58 52.32C82.1949 49.8465 82.0743 47.339 82.22 44.84C82.2499 44.4564 82.4252 44.0987 82.71 43.84L82.8099 43.76L82.9 43.68C83.1753 43.4347 83.5313 43.2994 83.9 43.3H84.01L94.1799 42.94L104.36 42.7C111.15 42.56 117.93 42.51 124.72 42.47C131.51 42.43 138.29 42.56 145.08 42.71C151.87 42.86 158.65 43.07 165.43 43.31H165.54C165.892 43.3206 166.228 43.4552 166.49 43.69L166.58 43.77L166.67 43.85C166.958 44.1071 167.137 44.4649 167.17 44.85C167.307 47.3494 167.183 49.8563 166.8 52.33C166.616 53.592 166.315 54.8341 165.9 56.04C165.469 57.3145 164.789 58.4906 163.9 59.5C163.679 59.7723 163.424 60.0143 163.14 60.22C162.857 60.4618 162.545 60.6668 162.21 60.83C161.593 61.0818 160.949 61.2596 160.29 61.36C159.07 61.59 157.87 61.72 156.67 61.85C154.39 62.11 151.96 62.26 149.55 62.35Z" fill="#231F20"/>
<path d="M95.4395 93.87C100.679 94.87 105.499 95.79 110.319 96.37C115.05 96.9653 119.812 97.2692 124.579 97.28C129.349 97.2791 134.114 96.9953 138.849 96.43C143.659 95.87 148.479 94.97 153.739 94C150.039 97.9112 145.464 100.889 140.389 102.69C130.157 106.441 118.92 106.409 108.709 102.6C103.662 100.773 99.1154 97.7823 95.4395 93.87Z" fill="#EFCC6B"/>
<path d="M184 128.07C179.06 126.74 174 124.93 168.87 124.77C160.94 124.51 155.411 131.01 148.471 133.77C141.531 136.53 135.19 135.85 128.47 132.93C120.021 129.26 113.47 127.14 104.81 131.18C98.8105 133.99 92.9105 136.79 86.1105 136.94C81.1105 137.05 76.4705 135.18 71.9805 133.31C69.3805 132.22 66.6305 130.97 63.8605 129.83C38.4205 154.95 6.17048 187.65 6.51048 191.59C7.41048 202 48.7105 355.95 48.7105 355.95C48.7105 355.95 73.2405 368.08 124.82 368.08C176.4 368.08 200.93 355.95 200.93 355.95C200.93 355.95 242.23 201.95 243.13 191.59C243.45 187.53 209.69 153.4 184 128.07Z" fill="#F8A33E"/>
<path d="M2.56055 189.95C21.1805 194.51 39.2905 199.04 57.5605 202.32C75.6516 205.698 93.938 207.929 112.311 209C130.639 210.035 149.018 209.781 167.311 208.24C185.731 206.74 204.081 203.74 222.911 200.17C206.531 210.17 188.151 216.85 169.251 221C150.248 225.052 130.786 226.526 111.391 225.38C92.0202 224.273 72.8679 220.718 54.3906 214.8C36.0306 208.8 18.3905 200.8 2.56055 189.95Z" fill="#EFCC6B"/>
<path d="M96.9492 61.9401C101.644 61.0208 106.394 60.4162 111.169 60.1301C115.829 59.8301 120.449 59.7101 125.059 59.7401C129.669 59.7701 134.289 59.95 138.919 60.28C143.549 60.61 148.169 61.0701 153.089 61.8801C148.804 64.2728 144.14 65.91 139.299 66.72C134.582 67.5825 129.794 67.9944 124.999 67.9501C120.22 67.9082 115.455 67.4397 110.759 66.5501C105.953 65.7043 101.299 64.1508 96.9492 61.9401Z" fill="#EFCC6B"/>
<path d="M207.939 204.98C207.18 202.675 205.912 200.57 204.23 198.82C196.49 189.48 159.989 141.68 159.989 141.68H89.5895C89.5895 141.68 53.0895 189.48 45.3895 198.8C43.7072 200.55 42.4393 202.655 41.6795 204.96C40.9695 207.7 41.6795 210.61 42.2895 213.36C54.3595 263.75 56.0995 250.36 70.2895 332.36C70.6395 334.36 71.0395 336.52 72.0895 337.87C73.2795 339.4 76.5495 339.53 76.5495 339.53H173.109C173.109 339.53 176.379 339.4 177.569 337.87C178.619 336.52 179.019 334.38 179.369 332.36C193.569 250.45 195.309 263.79 207.369 213.36C207.989 210.63 208.649 207.72 207.939 204.98Z" fill="#F7F8E2"/>
<path d="M199.641 210.01L182.641 185.65L159.771 152.92C159.221 152.12 158.681 151.31 158.111 150.53C156.841 148.79 155.361 148.92 153.551 148.92H96.5508C94.6008 148.92 92.8508 148.67 91.5508 150.51C91.0708 151.17 90.6108 151.86 90.1308 152.51L80.9708 165.63L55.6008 201.94C53.7608 204.57 51.6008 207.16 50.0008 209.94C48.9308 211.81 50.3008 215.23 50.7508 217.16C53.4174 228.693 56.0641 240.223 58.6908 251.75L69.1008 297.14L75.7008 325.87L76.0308 327.29C76.2196 327.963 76.6222 328.556 77.1778 328.98C77.7335 329.404 78.4119 329.636 79.1108 329.64H170.551C171.251 329.635 171.93 329.403 172.487 328.979C173.044 328.555 173.449 327.963 173.641 327.29C174.514 323.49 175.387 319.683 176.261 315.87L182.561 288.43L190.181 255.23C192.374 245.657 194.567 236.093 196.761 226.54C197.831 221.91 199.021 217.29 199.951 212.63L200.001 212.43C200.921 208.43 194.751 206.71 193.831 210.73C192.964 214.537 192.091 218.343 191.211 222.15L184.911 249.6L177.251 282.8C175.051 292.373 172.854 301.937 170.661 311.49C169.947 314.617 169.231 317.743 168.511 320.87C168.171 322.35 167.661 323.87 167.511 325.4V325.6L170.591 323.25H79.0708L82.1608 325.6C81.2808 321.787 80.4041 317.98 79.5308 314.18L73.2308 286.8C70.6975 275.74 68.1608 264.677 65.6208 253.61C63.4208 244.043 61.2241 234.48 59.0308 224.92C58.3108 221.79 57.6008 218.66 56.8808 215.54C56.5408 214.05 56.3108 212.46 55.8808 211.01L55.8308 210.81C55.7208 211.63 55.6208 212.45 55.5108 213.27L69.5808 193.13L91.9808 161.07L97.0808 153.77L94.3208 155.35H155.321L152.551 153.77L166.621 173.9C174.094 184.567 181.561 195.253 189.021 205.96L194.121 213.27C194.565 213.986 195.267 214.504 196.081 214.718C196.896 214.932 197.762 214.826 198.501 214.42C199.233 213.983 199.763 213.275 199.977 212.449C200.19 211.624 200.069 210.747 199.641 210.01Z" fill="#F9F18B"/>
<path d="M183.809 226.31C183.809 229.7 167.259 231.43 166.629 234.64C165.999 237.85 180.629 245.86 179.319 248.9C178.009 251.94 162.099 247.25 160.259 250C158.419 252.75 168.869 265.69 166.519 268C164.169 270.31 151.249 259.88 148.519 261.74C145.789 263.6 150.519 279.52 147.419 280.8C144.319 282.08 136.419 267.45 133.159 268.1C129.899 268.75 128.229 285.28 124.829 285.28C121.429 285.28 119.709 268.74 116.499 268.1C113.289 267.46 105.279 282.1 102.239 280.8C99.1994 279.5 103.889 263.58 101.139 261.74C98.3894 259.9 85.4494 270.35 83.1394 268C80.8294 265.65 91.2594 252.73 89.3994 250C87.5394 247.27 71.6194 252 70.3394 248.9C69.0594 245.8 83.6894 237.9 83.0394 234.64C82.3894 231.38 65.8594 229.7 65.8594 226.31C65.8594 222.92 82.3994 221.18 83.0394 217.98C83.6794 214.78 69.0394 206.76 70.3394 203.72C71.6394 200.68 87.5594 205.37 89.3994 202.62C91.2394 199.87 80.7894 186.93 83.1394 184.62C85.4894 182.31 98.4094 192.73 101.139 190.88C103.869 189.03 99.1394 173.1 102.239 171.81C105.339 170.52 113.239 185.17 116.499 184.51C119.759 183.85 121.439 167.33 124.829 167.33C128.219 167.33 129.949 183.88 133.159 184.51C136.369 185.14 144.389 170.51 147.389 171.8C150.389 173.09 145.739 189.03 148.489 190.87C151.239 192.71 164.179 182.26 166.489 184.61C168.799 186.96 158.369 199.88 160.229 202.61C162.089 205.34 178.009 200.61 179.289 203.71C180.569 206.81 165.939 214.71 166.599 217.97C167.259 221.23 183.809 222.91 183.809 226.31Z" fill="#FBF089"/>
<path d="M101.1 190.8C101.352 190.491 101.499 190.109 101.52 189.71C101.555 189.317 101.555 188.923 101.52 188.53C101.465 187.728 101.361 186.93 101.21 186.14C100.96 184.55 100.62 182.95 100.35 181.33C100.04 179.676 99.8161 178.007 99.6795 176.33C99.6094 175.438 99.6094 174.542 99.6795 173.65C99.7289 173.117 99.8465 172.593 100.03 172.09C100.139 171.76 100.301 171.449 100.509 171.17C100.783 170.78 101.161 170.475 101.6 170.29C101.844 170.21 102.095 170.15 102.35 170.11C102.572 170.09 102.797 170.09 103.02 170.11C103.367 170.167 103.704 170.275 104.02 170.43C104.499 170.66 104.947 170.952 105.35 171.3C106.031 171.88 106.663 172.515 107.239 173.2C108.307 174.481 109.309 175.816 110.239 177.2C111.239 178.54 112.08 179.9 113.03 181.2C113.5 181.86 114.029 182.5 114.509 183.1C114.765 183.398 115.05 183.669 115.359 183.91C115.655 184.179 116.031 184.345 116.429 184.38C116.009 184.51 115.556 184.489 115.15 184.32C114.741 184.171 114.349 183.98 113.98 183.75C113.275 183.289 112.606 182.774 111.98 182.21C110.726 181.135 109.528 179.996 108.389 178.8C107.249 177.62 106.179 176.39 105.079 175.27C104.562 174.732 104.011 174.227 103.429 173.76C103.21 173.577 102.968 173.422 102.71 173.3C102.6 173.24 102.56 173.25 102.54 173.23C102.52 173.21 102.54 173.23 102.6 173.23C102.622 173.24 102.645 173.245 102.67 173.245C102.694 173.245 102.717 173.24 102.739 173.23C102.969 173.1 102.889 173.07 102.819 173.29C102.722 173.558 102.658 173.837 102.629 174.12C102.54 174.86 102.504 175.605 102.52 176.35C102.52 177.92 102.63 179.54 102.67 181.18C102.71 182.82 102.76 184.48 102.67 186.18C102.61 187.03 102.497 187.875 102.329 188.71C102.233 189.137 102.093 189.553 101.91 189.95C101.736 190.312 101.452 190.609 101.1 190.8Z" fill="#1D1D1B"/>
<path d="M89.3203 202.62C89.4505 202.241 89.4505 201.829 89.3203 201.45C89.2154 201.069 89.0713 200.701 88.8903 200.35C88.5322 199.632 88.1349 198.934 87.7003 198.26C86.8703 196.89 85.9403 195.54 85.0803 194.15C84.1598 192.755 83.3184 191.309 82.5602 189.82C82.1603 189.022 81.8259 188.192 81.5602 187.34C81.4008 186.834 81.3067 186.31 81.2803 185.78C81.2626 185.444 81.2929 185.107 81.3702 184.78C81.432 184.568 81.5089 184.361 81.6003 184.16C81.7297 183.939 81.8804 183.731 82.0502 183.54C82.2428 183.379 82.4467 183.232 82.6603 183.1C82.861 183.005 83.0682 182.925 83.2803 182.86C83.6085 182.788 83.9445 182.758 84.2803 182.77C84.8132 182.804 85.3402 182.902 85.8503 183.06C86.6979 183.33 87.5236 183.664 88.3203 184.06C89.8076 184.822 91.253 185.663 92.6503 186.58C94.0503 187.45 95.3903 188.37 96.7703 189.21C97.4503 189.64 98.1502 190.04 98.8602 190.4C99.2076 190.581 99.5729 190.725 99.9503 190.83C100.33 190.955 100.74 190.955 101.12 190.83C100.779 191.109 100.351 191.261 99.9103 191.26C99.475 191.275 99.0393 191.245 98.6102 191.17C97.7719 191.019 96.9463 190.805 96.1403 190.53C94.5503 189.97 93.0203 189.32 91.5303 188.63C90.0403 187.94 88.5302 187.25 87.1202 186.63C86.4384 186.329 85.7368 186.075 85.0203 185.87C84.746 185.792 84.4645 185.742 84.1802 185.72C84.1172 185.711 84.0533 185.711 83.9902 185.72C84.0149 185.716 84.0382 185.706 84.0576 185.69C84.0769 185.674 84.0917 185.653 84.1003 185.63C84.1227 185.62 84.1425 185.605 84.1581 185.585C84.1738 185.566 84.1847 185.544 84.1903 185.52C84.1903 185.52 84.1903 185.58 84.1903 185.7C84.2112 185.988 84.2615 186.272 84.3403 186.55C84.5454 187.266 84.7993 187.968 85.1003 188.65C85.7103 190.09 86.4203 191.55 87.1003 193.06C87.7803 194.57 88.4402 196.06 89.0002 197.67C89.2768 198.476 89.4908 199.301 89.6403 200.14C89.7156 200.569 89.7458 201.005 89.7303 201.44C89.729 201.868 89.5846 202.283 89.3203 202.62Z" fill="#1D1D1B"/>
<path d="M82.9609 217.98C82.9162 217.581 82.7524 217.205 82.4909 216.9C82.2436 216.593 81.9693 216.308 81.671 216.05C81.0692 215.525 80.4382 215.034 79.7809 214.58C78.4809 213.58 77.1109 212.73 75.7809 211.78C74.3949 210.852 73.0596 209.851 71.7809 208.78C71.0986 208.201 70.4633 207.569 69.8809 206.89C69.5378 206.484 69.2456 206.037 69.0109 205.56C68.8574 205.244 68.7496 204.907 68.6909 204.56C68.6759 204.337 68.6759 204.113 68.6909 203.89C68.726 203.638 68.7863 203.39 68.8709 203.15C68.9816 202.926 69.1122 202.711 69.2609 202.51C69.411 202.347 69.5713 202.193 69.7409 202.05C70.0259 201.852 70.3351 201.69 70.661 201.57C71.1647 201.392 71.6888 201.278 72.221 201.23C73.1127 201.155 74.0092 201.155 74.9009 201.23C76.5787 201.366 78.2478 201.593 79.9009 201.91C81.5209 202.17 83.1209 202.51 84.7109 202.77C85.5009 202.91 86.3009 203.02 87.0909 203.08C87.4833 203.12 87.8786 203.12 88.2709 203.08C88.6697 203.068 89.053 202.924 89.3609 202.67C89.1412 203.065 88.786 203.367 88.3609 203.52C87.9666 203.7 87.5543 203.837 87.1309 203.93C86.2968 204.105 85.4514 204.222 84.601 204.28C82.921 204.37 81.251 204.35 79.601 204.28C77.951 204.21 76.3409 204.14 74.7709 204.13C74.0293 204.114 73.2874 204.151 72.5509 204.24C72.2645 204.265 71.9823 204.325 71.7109 204.42C71.6553 204.442 71.6017 204.469 71.5509 204.5C71.5719 204.49 71.5898 204.475 71.6022 204.455C71.6146 204.436 71.6211 204.413 71.6209 204.39C71.6332 204.367 71.6396 204.341 71.6396 204.315C71.6396 204.289 71.6332 204.263 71.6209 204.24C71.6209 204.24 71.6209 204.24 71.6209 204.19C71.6309 204.25 71.6512 204.307 71.6809 204.36C71.8117 204.616 71.9693 204.857 72.1509 205.08C72.6155 205.664 73.1201 206.216 73.661 206.73C74.781 207.83 76.0009 208.9 77.1909 210.04C78.3809 211.18 79.5809 212.31 80.7009 213.57C81.2623 214.198 81.777 214.867 82.2409 215.57C82.4706 215.939 82.6616 216.332 82.8109 216.74C82.992 217.127 83.0446 217.561 82.9609 217.98Z" fill="#1D1D1B"/>
<path d="M82.9598 234.64C82.7677 234.287 82.4658 234.006 82.0998 233.84C81.7545 233.654 81.393 233.5 81.0198 233.38C80.2546 233.132 79.4769 232.926 78.6898 232.76C77.1198 232.38 75.5198 232.08 73.9198 231.71C72.2803 231.371 70.661 230.941 69.0698 230.42C68.2209 230.154 67.3949 229.819 66.5998 229.42C66.1272 229.164 65.6873 228.852 65.2898 228.49C65.0305 228.255 64.808 227.982 64.6298 227.68C64.5269 227.487 64.4399 227.287 64.3698 227.08C64.2231 226.601 64.2231 226.089 64.3698 225.61C64.4419 225.404 64.5288 225.204 64.6298 225.01C64.8107 224.71 65.0329 224.438 65.2898 224.2C65.6855 223.836 66.1257 223.523 66.5998 223.27C67.3968 222.875 68.2224 222.541 69.0698 222.27C70.661 221.749 72.2803 221.319 73.9198 220.98C75.5198 220.61 77.1198 220.31 78.6898 219.93C79.4769 219.765 80.2546 219.558 81.0198 219.31C81.3946 219.194 81.7565 219.04 82.0998 218.85C82.4651 218.688 82.7671 218.41 82.9598 218.06C82.9082 218.498 82.7068 218.904 82.3898 219.21C82.0876 219.528 81.7524 219.813 81.3898 220.06C80.6876 220.538 79.9524 220.966 79.1898 221.34C77.6698 222.06 76.1198 222.68 74.5798 223.25C73.0398 223.82 71.5198 224.37 70.0698 224.97C69.3806 225.237 68.7122 225.555 68.0698 225.92C67.8232 226.063 67.592 226.23 67.3798 226.42C67.2098 226.57 67.2698 226.63 67.2898 226.42C67.3098 226.21 67.2098 226.23 67.3798 226.42C67.5926 226.606 67.8238 226.771 68.0698 226.91C68.7129 227.289 69.3811 227.623 70.0698 227.91C71.5198 228.51 73.0698 229.04 74.5798 229.63C76.0898 230.22 77.6698 230.81 79.1798 231.54C79.9477 231.91 80.6865 232.338 81.3898 232.82C81.7524 233.067 82.0876 233.352 82.3898 233.67C82.6754 233.927 82.8745 234.266 82.9598 234.64Z" fill="#1D1D1B"/>
<path d="M89.3199 250C89.0107 249.747 88.6288 249.6 88.2299 249.58C87.8376 249.54 87.4422 249.54 87.0499 249.58C86.2516 249.636 85.4571 249.736 84.6699 249.88C83.0799 250.13 81.4799 250.47 79.8599 250.74C78.2067 251.057 76.5376 251.284 74.8599 251.42C73.9681 251.495 73.0716 251.495 72.1799 251.42C71.6471 251.377 71.1224 251.262 70.6199 251.08C70.2922 250.964 69.9826 250.802 69.6999 250.6C69.5304 250.461 69.3701 250.31 69.2199 250.15C69.0689 249.947 68.9383 249.729 68.8299 249.5C68.7395 249.262 68.6791 249.013 68.6499 248.76C68.6349 248.537 68.6349 248.313 68.6499 248.09C68.7122 247.744 68.8198 247.408 68.9699 247.09C69.207 246.614 69.499 246.168 69.8399 245.76C70.4222 245.081 71.0575 244.449 71.7399 243.87C73.0186 242.799 74.3538 241.798 75.7399 240.87C77.0699 239.92 78.4399 239.03 79.7399 238.07C80.3953 237.614 81.0262 237.123 81.6299 236.6C81.9282 236.342 82.2026 236.057 82.4499 235.75C82.7096 235.448 82.8733 235.076 82.9199 234.68C83.0377 235.103 83.0131 235.553 82.8499 235.96C82.7029 236.37 82.5118 236.762 82.2799 237.13C81.8191 237.836 81.3042 238.504 80.7399 239.13C79.6308 240.369 78.4594 241.55 77.2299 242.67C76.0399 243.81 74.8199 244.88 73.6999 245.98C73.159 246.494 72.6545 247.046 72.1899 247.63C72.0074 247.852 71.8498 248.094 71.7199 248.35C71.6902 248.403 71.6699 248.46 71.6599 248.52C71.6652 248.511 71.6679 248.501 71.6679 248.49C71.6679 248.48 71.6652 248.469 71.6599 248.46C71.6693 248.438 71.6741 248.414 71.6741 248.39C71.6741 248.366 71.6693 248.342 71.6599 248.32C71.5299 248.09 71.4999 248.17 71.7199 248.24C71.989 248.333 72.2672 248.396 72.5499 248.43C73.2897 248.519 74.0349 248.556 74.7799 248.54C76.3499 248.54 77.9699 248.42 79.6099 248.39C81.2499 248.36 82.9199 248.3 84.6099 248.39C85.4606 248.439 86.3064 248.553 87.1399 248.73C87.562 248.827 87.9738 248.965 88.3699 249.14C88.7794 249.304 89.1165 249.609 89.3199 250Z" fill="#1D1D1B"/>
<path d="M133.12 268.14C132.77 268.328 132.492 268.627 132.33 268.99C132.139 269.337 131.981 269.702 131.86 270.08C131.62 270.84 131.41 271.61 131.24 272.4C130.87 273.97 130.57 275.58 130.24 277.18C129.894 278.816 129.46 280.431 128.94 282.02C128.678 282.874 128.344 283.703 127.94 284.5C127.691 284.975 127.382 285.415 127.02 285.81C126.78 286.066 126.504 286.285 126.2 286.46C126.008 286.566 125.807 286.656 125.6 286.73C125.36 286.788 125.116 286.824 124.87 286.84C124.624 286.823 124.38 286.786 124.14 286.73C123.935 286.655 123.735 286.569 123.54 286.47C123.241 286.289 122.968 286.066 122.73 285.81C122.365 285.415 122.052 284.975 121.8 284.5C121.384 283.703 121.033 282.874 120.75 282.02C120.238 280.43 119.807 278.814 119.46 277.18C119.09 275.58 118.79 273.97 118.46 272.41C118.29 271.61 118.08 270.84 117.84 270.08C117.72 269.707 117.566 269.345 117.38 269C117.214 268.634 116.933 268.332 116.58 268.14C117.019 268.188 117.427 268.39 117.73 268.71C118.046 269.014 118.331 269.349 118.58 269.71C119.06 270.415 119.488 271.153 119.86 271.92C120.59 273.44 121.21 274.98 121.77 276.52C122.33 278.06 122.89 279.59 123.49 281.04C123.777 281.729 124.111 282.397 124.49 283.04C124.632 283.284 124.796 283.515 124.98 283.73C125.14 283.89 125.19 283.84 124.98 283.81C124.77 283.78 124.8 283.89 124.98 283.73C125.165 283.513 125.332 283.283 125.48 283.04C125.859 282.397 126.193 281.729 126.48 281.04C127.08 279.59 127.61 278.04 128.2 276.52C128.79 275 129.39 273.44 130.12 271.92C130.487 271.155 130.912 270.42 131.39 269.72C131.637 269.357 131.922 269.022 132.24 268.72C132.473 268.448 132.778 268.247 133.12 268.14Z" fill="#1D1D1B"/>
<path d="M148.48 261.8C148.224 262.107 148.077 262.49 148.06 262.89C148.025 263.283 148.025 263.678 148.06 264.07C148.12 264.868 148.224 265.663 148.37 266.45C148.62 268.04 148.96 269.64 149.23 271.26C149.544 272.913 149.767 274.583 149.9 276.26C149.97 277.155 149.97 278.055 149.9 278.95C149.848 279.481 149.734 280.005 149.56 280.51C149.438 280.837 149.273 281.146 149.07 281.43C148.931 281.6 148.781 281.76 148.62 281.91C148.419 282.059 148.205 282.189 147.98 282.3C147.739 282.38 147.491 282.44 147.24 282.48C147.017 282.495 146.793 282.495 146.57 282.48C146.225 282.414 145.89 282.307 145.57 282.16C145.095 281.923 144.648 281.631 144.24 281.29C143.566 280.702 142.934 280.068 142.35 279.39C141.282 278.109 140.281 276.774 139.35 275.39C138.35 274.06 137.5 272.69 136.55 271.39C136.096 270.73 135.602 270.099 135.07 269.5C134.815 269.199 134.53 268.925 134.22 268.68C133.924 268.411 133.549 268.246 133.15 268.21C133.572 268.089 134.022 268.11 134.43 268.27C134.843 268.421 135.239 268.615 135.61 268.85C136.313 269.311 136.982 269.822 137.61 270.38C138.846 271.493 140.024 272.667 141.14 273.9C142.28 275.09 143.35 276.31 144.45 277.43C144.967 277.968 145.519 278.473 146.1 278.94C146.324 279.12 146.565 279.278 146.82 279.41C146.93 279.47 146.97 279.41 146.99 279.47H146.94C146.917 279.459 146.891 279.453 146.865 279.453C146.839 279.453 146.814 279.459 146.79 279.47C146.56 279.6 146.64 279.63 146.72 279.41C146.81 279.137 146.871 278.856 146.9 278.57C146.989 277.834 147.026 277.092 147.01 276.35C147.01 274.78 146.9 273.15 146.86 271.51C146.775 269.845 146.775 268.176 146.86 266.51C146.91 265.659 147.023 264.814 147.2 263.98C147.293 263.553 147.431 263.138 147.61 262.74C147.782 262.335 148.09 262.003 148.48 261.8Z" fill="#1D1D1B"/>
<path d="M166.631 234.64C166.668 235.036 166.829 235.411 167.091 235.71C167.338 236.017 167.613 236.302 167.911 236.56C168.511 237.08 169.141 237.56 169.801 238.04C171.101 239.04 172.471 239.88 173.801 240.83C175.185 241.761 176.52 242.762 177.801 243.83C178.483 244.409 179.119 245.041 179.701 245.72C180.045 246.125 180.337 246.572 180.571 247.05C180.721 247.368 180.829 247.704 180.891 248.05C180.891 248.27 180.891 248.5 180.891 248.72C180.854 248.973 180.79 249.221 180.701 249.46C180.596 249.691 180.465 249.909 180.311 250.11C180.161 250.27 180 250.42 179.831 250.56C179.548 250.762 179.239 250.924 178.911 251.04C178.408 251.223 177.884 251.341 177.351 251.39C176.459 251.46 175.563 251.46 174.671 251.39C172.993 251.257 171.324 251.034 169.671 250.72C168.051 250.45 166.461 250.11 164.861 249.86C164.075 249.708 163.28 249.604 162.481 249.55C162.088 249.515 161.693 249.515 161.301 249.55C160.902 249.57 160.52 249.717 160.211 249.97C160.429 249.572 160.785 249.266 161.211 249.11C161.61 248.935 162.026 248.797 162.451 248.7C163.281 248.523 164.124 248.409 164.971 248.36C166.661 248.26 168.321 248.29 169.971 248.36C171.621 248.43 173.231 248.51 174.801 248.51C175.546 248.524 176.29 248.49 177.031 248.41C177.314 248.376 177.592 248.313 177.861 248.22C177.922 248.204 177.98 248.177 178.031 248.14C178.01 248.152 177.992 248.17 177.98 248.191C177.968 248.212 177.961 248.236 177.961 248.26C177.951 248.282 177.946 248.306 177.946 248.33C177.946 248.354 177.951 248.378 177.961 248.4V248.46C177.961 248.46 177.961 248.4 177.891 248.29C177.763 248.031 177.609 247.787 177.431 247.56C176.961 246.984 176.457 246.436 175.921 245.92C174.801 244.82 173.571 243.74 172.391 242.61C171.211 241.48 169.991 240.33 168.871 239.07C168.31 238.442 167.795 237.773 167.331 237.07C167.103 236.7 166.912 236.308 166.761 235.9C166.574 235.507 166.528 235.062 166.631 234.64Z" fill="#1D1D1B"/>
<path d="M166.631 217.98C166.817 218.332 167.116 218.61 167.481 218.77C167.827 218.962 168.192 219.116 168.571 219.23C169.332 219.482 170.107 219.692 170.891 219.86C172.461 220.23 174.061 220.53 175.661 220.86C177.299 221.203 178.918 221.634 180.511 222.15C181.361 222.433 182.187 222.784 182.981 223.2C183.457 223.446 183.898 223.756 184.291 224.12C184.548 224.358 184.77 224.63 184.951 224.93C185.05 225.124 185.137 225.325 185.211 225.53C185.358 226.009 185.358 226.521 185.211 227C185.141 227.207 185.054 227.407 184.951 227.6C184.773 227.901 184.55 228.175 184.291 228.41C183.897 228.771 183.46 229.084 182.991 229.34C182.194 229.742 181.364 230.076 180.511 230.34C178.919 230.86 177.3 231.294 175.661 231.64C174.061 232.01 172.461 232.31 170.891 232.64C170.107 232.804 169.332 233.011 168.571 233.26C168.194 233.379 167.829 233.533 167.481 233.72C167.116 233.884 166.816 234.165 166.631 234.52C166.67 234.081 166.87 233.672 167.191 233.37C167.49 233.049 167.826 232.763 168.191 232.52C168.892 232.034 169.631 231.606 170.401 231.24C171.901 230.526 173.436 229.888 175.001 229.33C176.531 228.73 178.061 228.2 179.511 227.61C180.2 227.323 180.868 226.989 181.511 226.61C181.761 226.473 181.993 226.305 182.201 226.11C182.371 225.96 182.311 225.91 182.291 226.11C182.271 226.31 182.371 226.29 182.201 226.11C181.993 225.915 181.761 225.747 181.511 225.61C180.869 225.229 180.2 224.895 179.511 224.61C178.071 224.02 176.511 223.49 175.001 222.89C173.491 222.29 171.921 221.71 170.401 220.98C169.633 220.613 168.894 220.189 168.191 219.71C167.83 219.46 167.495 219.176 167.191 218.86C166.924 218.626 166.729 218.321 166.631 217.98Z" fill="#1D1D1B"/>
<path d="M160.26 202.62C160.568 202.874 160.951 203.018 161.35 203.03C161.742 203.07 162.137 203.07 162.53 203.03C163.328 202.971 164.123 202.867 164.91 202.72C166.51 202.47 168.1 202.13 169.72 201.86C171.373 201.546 173.042 201.323 174.72 201.19C175.612 201.115 176.508 201.115 177.4 201.19C177.932 201.236 178.457 201.35 178.96 201.53C179.286 201.65 179.595 201.812 179.88 202.01C180.049 202.153 180.21 202.307 180.36 202.47C180.509 202.671 180.639 202.885 180.75 203.11C180.838 203.35 180.901 203.598 180.94 203.85C180.94 204.08 180.94 204.3 180.94 204.52C180.881 204.867 180.773 205.203 180.62 205.52C180.386 206.001 180.094 206.451 179.75 206.86C179.165 207.534 178.53 208.162 177.85 208.74C176.569 209.809 175.234 210.81 173.85 211.74C172.51 212.74 171.15 213.59 169.85 214.54C169.187 214.994 168.552 215.488 167.95 216.02C167.647 216.27 167.375 216.556 167.14 216.87C166.867 217.164 166.702 217.541 166.67 217.94C166.539 217.516 166.561 217.06 166.73 216.65C166.879 216.241 167.07 215.849 167.3 215.48C167.764 214.777 168.278 214.108 168.84 213.48C169.96 212.22 171.15 211.06 172.35 209.94C173.55 208.82 174.76 207.74 175.88 206.63C176.423 206.122 176.928 205.573 177.39 204.99C177.575 204.77 177.733 204.528 177.86 204.27C177.92 204.16 177.91 204.12 177.93 204.1C177.95 204.08 177.93 204.1 177.93 204.15C177.91 204.198 177.91 204.252 177.93 204.3C178.06 204.52 178.09 204.45 177.87 204.37C177.601 204.277 177.322 204.214 177.04 204.18C176.299 204.1 175.554 204.066 174.81 204.08C173.24 204.08 171.62 204.19 169.98 204.23C168.34 204.27 166.67 204.31 164.98 204.23C164.132 204.181 163.29 204.067 162.46 203.89C162.034 203.793 161.619 203.655 161.22 203.48C160.814 203.307 160.476 203.005 160.26 202.62Z" fill="#1D1D1B"/>
<path d="M148.48 190.8C148.86 190.925 149.27 190.925 149.65 190.8C150.03 190.693 150.399 190.549 150.75 190.37C151.466 190.014 152.161 189.617 152.83 189.18C154.21 188.34 155.56 187.42 156.95 186.55C158.348 185.636 159.793 184.799 161.28 184.04C162.076 183.642 162.902 183.307 163.75 183.04C164.26 182.882 164.787 182.784 165.32 182.75C165.656 182.737 165.992 182.767 166.32 182.84C166.533 182.905 166.74 182.985 166.94 183.08C167.157 183.207 167.361 183.354 167.55 183.52C167.718 183.71 167.868 183.914 168 184.13C168.094 184.343 168.174 184.553 168.24 184.76C168.313 185.088 168.343 185.424 168.33 185.76C168.296 186.29 168.199 186.813 168.04 187.32C167.771 188.171 167.436 189 167.04 189.8C166.275 191.285 165.434 192.731 164.52 194.13C163.65 195.52 162.73 196.87 161.89 198.25C161.454 198.92 161.056 199.614 160.7 200.33C160.519 200.681 160.375 201.049 160.27 201.43C160.14 201.809 160.14 202.221 160.27 202.6C159.992 202.258 159.841 201.831 159.84 201.39C159.825 200.955 159.855 200.519 159.93 200.09C160.08 199.251 160.294 198.426 160.57 197.62C161.12 196.02 161.78 194.49 162.46 193C163.14 191.51 163.84 190 164.46 188.59C164.763 187.912 165.017 187.214 165.22 186.5C165.299 186.223 165.349 185.938 165.37 185.65C165.37 185.53 165.37 185.5 165.37 185.47C165.37 185.44 165.37 185.47 165.37 185.47C165.376 185.494 165.387 185.516 165.403 185.536C165.418 185.555 165.438 185.57 165.46 185.58C165.47 185.602 165.485 185.621 165.504 185.635C165.524 185.65 165.547 185.658 165.57 185.66C165.578 185.664 165.587 185.667 165.595 185.667C165.604 185.667 165.613 185.664 165.62 185.66C165.561 185.651 165.5 185.651 165.44 185.66C165.152 185.676 164.867 185.726 164.59 185.81C163.876 186.016 163.174 186.266 162.49 186.56C161.05 187.17 159.58 187.89 158.08 188.56C156.577 189.267 155.038 189.898 153.47 190.45C152.665 190.73 151.839 190.947 151 191.1C150.571 191.175 150.136 191.205 149.7 191.19C149.261 191.203 148.831 191.066 148.48 190.8Z" fill="#1D1D1B"/>
<path d="M116.461 184.47C116.816 184.285 117.097 183.985 117.261 183.62C117.447 183.271 117.601 182.906 117.721 182.53C117.97 181.769 118.177 180.994 118.341 180.21C118.721 178.64 119.011 177.03 119.341 175.43C119.68 173.794 120.11 172.178 120.631 170.59C120.893 169.736 121.227 168.907 121.631 168.11C121.887 167.641 122.199 167.204 122.561 166.81C122.796 166.551 123.069 166.328 123.371 166.15C123.563 166.047 123.764 165.96 123.971 165.89C124.211 165.831 124.455 165.79 124.701 165.77C124.946 165.791 125.19 165.827 125.431 165.88C125.636 165.958 125.837 166.048 126.031 166.15C126.335 166.328 126.612 166.551 126.851 166.81C127.213 167.202 127.522 167.639 127.771 168.11C128.17 168.909 128.504 169.738 128.771 170.59C129.291 172.178 129.722 173.794 130.061 175.43C130.431 177.03 130.731 178.64 131.111 180.21C131.27 180.995 131.477 181.77 131.731 182.53C131.849 182.907 132.003 183.272 132.191 183.62C132.351 183.985 132.629 184.284 132.981 184.47C132.544 184.422 132.138 184.224 131.831 183.91C131.515 183.606 131.231 183.271 130.981 182.91C130.503 182.204 130.075 181.466 129.701 180.7C128.971 179.18 128.361 177.64 127.791 176.1C127.221 174.56 126.671 173.03 126.071 171.59C125.786 170.9 125.451 170.232 125.071 169.59C124.934 169.342 124.77 169.111 124.581 168.9C124.431 168.73 124.371 168.79 124.581 168.81C124.791 168.83 124.771 168.73 124.581 168.9C124.392 169.111 124.228 169.342 124.091 169.59C123.71 170.232 123.376 170.9 123.091 171.59C122.491 173.03 121.961 174.59 121.371 176.1C120.781 177.61 120.181 179.18 119.461 180.7C119.087 181.466 118.659 182.204 118.181 182.91C117.929 183.269 117.644 183.603 117.331 183.91C117.1 184.176 116.798 184.37 116.461 184.47Z" fill="#1D1D1B"/>
<path d="M124.79 260.16C143.49 260.16 158.65 245 158.65 226.3C158.65 207.6 143.49 192.44 124.79 192.44C106.089 192.44 90.9297 207.6 90.9297 226.3C90.9297 245 106.089 260.16 124.79 260.16Z" fill="#F5A432"/>
<path d="M144.451 198.73C149.096 205.254 151.279 213.212 150.613 221.192C149.947 229.173 146.474 236.659 140.812 242.322C135.15 247.986 127.665 251.459 119.684 252.127C111.704 252.795 103.745 250.614 97.2207 245.97C100.08 249.97 103.776 253.3 108.052 255.728C112.328 258.155 117.082 259.622 121.982 260.027C126.882 260.432 131.812 259.764 136.429 258.071C141.045 256.378 145.237 253.699 148.714 250.222C152.19 246.745 154.868 242.552 156.56 237.935C158.252 233.319 158.919 228.389 158.513 223.488C158.107 218.588 156.639 213.835 154.211 209.559C151.782 205.284 148.452 201.588 144.451 198.73Z" fill="#EF8000"/>
<path d="M108.07 207.8C109.343 206.511 111.037 205.724 112.843 205.584C114.649 205.445 116.445 205.962 117.9 207.04" stroke="#1D1D1B" stroke-width="0.89" stroke-miterlimit="10" stroke-linecap="round"/>
<path d="M142.91 207.8C141.638 206.511 139.943 205.724 138.137 205.584C136.331 205.445 134.535 205.962 133.08 207.04" stroke="#1D1D1B" stroke-width="0.89" stroke-miterlimit="10" stroke-linecap="round"/>
<path d="M114.51 221.96C117.68 221.96 120.25 219.39 120.25 216.22C120.25 213.05 117.68 210.48 114.51 210.48C111.339 210.48 108.77 213.05 108.77 216.22C108.77 219.39 111.339 221.96 114.51 221.96Z" fill="#FBFAE8"/>
<path d="M136.541 221.96C139.711 221.96 142.281 219.39 142.281 216.22C142.281 213.05 139.711 210.48 136.541 210.48C133.371 210.48 130.801 213.05 130.801 216.22C130.801 219.39 133.371 221.96 136.541 221.96Z" fill="#FBFAE8"/>
<path d="M108.77 216.22C108.715 215.45 108.822 214.676 109.084 213.949C109.345 213.223 109.756 212.559 110.29 212C110.832 211.425 111.486 210.967 112.212 210.654C112.937 210.34 113.719 210.179 114.51 210.179C115.3 210.179 116.082 210.34 116.808 210.654C117.534 210.967 118.188 211.425 118.73 212C119.263 212.559 119.674 213.223 119.936 213.949C120.198 214.676 120.305 215.45 120.25 216.22C120.141 214.737 119.485 213.347 118.41 212.32C117.352 211.331 115.958 210.781 114.51 210.781C113.062 210.781 111.668 211.331 110.61 212.32C109.534 213.347 108.879 214.737 108.77 216.22Z" fill="#1D1D1B"/>
<path d="M120.25 216.22C120.306 216.991 120.199 217.764 119.937 218.491C119.675 219.218 119.264 219.882 118.73 220.44C118.188 221.015 117.534 221.473 116.808 221.786C116.083 222.1 115.3 222.261 114.51 222.261C113.72 222.261 112.938 222.1 112.212 221.786C111.486 221.473 110.832 221.015 110.29 220.44C109.756 219.882 109.345 219.218 109.083 218.491C108.821 217.764 108.715 216.991 108.77 216.22C108.873 217.705 109.53 219.096 110.61 220.12C111.664 221.116 113.06 221.671 114.51 221.671C115.96 221.671 117.356 221.116 118.41 220.12C119.486 219.093 120.141 217.703 120.25 216.22Z" fill="#1D1D1B"/>
<path d="M122.26 220.91C122.301 221.67 122.638 222.385 123.198 222.9C123.759 223.416 124.499 223.692 125.26 223.67C125.626 223.686 125.991 223.625 126.333 223.492C126.674 223.358 126.984 223.155 127.243 222.896C127.501 222.636 127.703 222.326 127.835 221.984C127.967 221.642 128.027 221.276 128.01 220.91" stroke="#1D1D1B" stroke-width="0.89" stroke-miterlimit="10" stroke-linecap="round"/>
<path d="M113.6 222.04C115.682 222.04 117.37 220.352 117.37 218.27C117.37 216.188 115.682 214.5 113.6 214.5C111.518 214.5 109.83 216.188 109.83 218.27C109.83 220.352 111.518 222.04 113.6 222.04Z" fill="#151512"/>
<path d="M130.799 216.22C130.744 215.45 130.851 214.676 131.113 213.949C131.375 213.223 131.786 212.559 132.319 212C132.861 211.425 133.515 210.967 134.241 210.654C134.967 210.34 135.749 210.179 136.539 210.179C137.33 210.179 138.112 210.34 138.837 210.654C139.563 210.967 140.217 211.425 140.759 212C141.293 212.559 141.704 213.223 141.965 213.949C142.227 214.676 142.334 215.45 142.279 216.22C142.17 214.737 141.515 213.347 140.439 212.32C139.381 211.331 137.987 210.781 136.539 210.781C135.091 210.781 133.697 211.331 132.639 212.32C131.564 213.347 130.908 214.737 130.799 216.22Z" fill="#1D1D1B"/>
<path d="M142.279 216.22C142.335 216.991 142.228 217.764 141.967 218.491C141.705 219.218 141.294 219.882 140.759 220.44C140.217 221.015 139.563 221.473 138.838 221.786C138.112 222.1 137.33 222.261 136.539 222.261C135.749 222.261 134.967 222.1 134.241 221.786C133.516 221.473 132.862 221.015 132.319 220.44C131.785 219.882 131.374 219.218 131.112 218.491C130.851 217.764 130.744 216.991 130.799 216.22C130.908 217.703 131.564 219.093 132.639 220.12C133.694 221.116 135.089 221.671 136.539 221.671C137.99 221.671 139.385 221.116 140.439 220.12C141.515 219.093 142.171 217.703 142.279 216.22Z" fill="#1D1D1B"/>
<path d="M136.11 222.04C138.192 222.04 139.88 220.352 139.88 218.27C139.88 216.188 138.192 214.5 136.11 214.5C134.028 214.5 132.34 216.188 132.34 218.27C132.34 220.352 134.028 222.04 136.11 222.04Z" fill="#151512"/>
<path d="M90.9295 226.31C90.6236 221.81 91.2676 217.295 92.8195 213.06C94.4065 208.767 96.8531 204.844 100.01 201.53C103.198 198.184 107.032 195.521 111.28 193.7C115.546 191.875 120.139 190.934 124.78 190.934C129.42 190.934 134.013 191.875 138.28 193.7C142.525 195.521 146.358 198.181 149.55 201.52C152.71 204.835 155.157 208.762 156.74 213.06C158.296 217.294 158.941 221.809 158.63 226.31C158.054 217.535 154.22 209.293 147.88 203.2C141.648 197.268 133.373 193.96 124.77 193.96C116.166 193.96 107.892 197.268 101.66 203.2C95.3266 209.296 91.4996 217.538 90.9295 226.31Z" fill="#1D1D1B"/>
<path d="M158.651 226.31C158.96 230.807 158.316 235.319 156.761 239.55C155.174 243.846 152.727 247.773 149.571 251.09C146.379 254.429 142.546 257.089 138.301 258.91C134.035 260.738 129.442 261.681 124.801 261.681C120.159 261.681 115.566 260.738 111.301 258.91C107.055 257.086 103.222 254.422 100.031 251.08C96.8739 247.763 94.4273 243.836 92.8406 239.54C91.285 235.309 90.641 230.797 90.9506 226.3C91.5284 235.071 95.3624 243.31 101.701 249.4C107.934 255.329 116.208 258.636 124.811 258.636C133.414 258.636 141.687 255.329 147.921 249.4C154.249 243.309 158.076 235.075 158.651 226.31Z" fill="#1D1D1B"/>
<path d="M53.2794 168.68C55.3063 168.68 56.9494 167.037 56.9494 165.01C56.9494 162.983 55.3063 161.34 53.2794 161.34C51.2525 161.34 49.6094 162.983 49.6094 165.01C49.6094 167.037 51.2525 168.68 53.2794 168.68Z" fill="#FAF28C"/>
<path d="M123.35 360.5C125.377 360.5 127.02 358.857 127.02 356.83C127.02 354.803 125.377 353.16 123.35 353.16C121.323 353.16 119.68 354.803 119.68 356.83C119.68 358.857 121.323 360.5 123.35 360.5Z" fill="#FAF28C"/>
<path d="M214.289 284.09C216.316 284.09 217.959 282.447 217.959 280.42C217.959 278.393 216.316 276.75 214.289 276.75C212.262 276.75 210.619 278.393 210.619 280.42C210.619 282.447 212.262 284.09 214.289 284.09Z" fill="#FAF28C"/>
<path d="M37.9698 283.55C39.6985 283.55 41.0998 282.149 41.0998 280.42C41.0998 278.691 39.6985 277.29 37.9698 277.29C36.2412 277.29 34.8398 278.691 34.8398 280.42C34.8398 282.149 36.2412 283.55 37.9698 283.55Z" fill="#FAF28C"/>
<path d="M226.4 187.36C228.128 187.36 229.53 185.959 229.53 184.23C229.53 182.501 228.128 181.1 226.4 181.1C224.671 181.1 223.27 182.501 223.27 184.23C223.27 185.959 224.671 187.36 226.4 187.36Z" fill="#FAF28C"/>
<path d="M112.12 137.44C113.849 137.44 115.25 136.039 115.25 134.31C115.25 132.581 113.849 131.18 112.12 131.18C110.392 131.18 108.99 132.581 108.99 134.31C108.99 136.039 110.392 137.44 112.12 137.44Z" fill="#FAF28C"/>
<path d="M198.36 337.03C200.089 337.03 201.49 335.629 201.49 333.9C201.49 332.171 200.089 330.77 198.36 330.77C196.632 330.77 195.23 332.171 195.23 333.9C195.23 335.629 196.632 337.03 198.36 337.03Z" fill="#FAF28C"/>
<path d="M163.2 347.8C164.929 347.8 166.33 346.399 166.33 344.67C166.33 342.941 164.929 341.54 163.2 341.54C161.472 341.54 160.07 342.941 160.07 344.67C160.07 346.399 161.472 347.8 163.2 347.8Z" fill="#FAF28C"/>
<path d="M189.12 315.45C190.849 315.45 192.25 314.049 192.25 312.32C192.25 310.591 190.849 309.19 189.12 309.19C187.392 309.19 185.99 310.591 185.99 312.32C185.99 314.049 187.392 315.45 189.12 315.45Z" fill="#FAF28C"/>
<path d="M185.999 156.94C187.728 156.94 189.129 155.539 189.129 153.81C189.129 152.081 187.728 150.68 185.999 150.68C184.27 150.68 182.869 152.081 182.869 153.81C182.869 155.539 184.27 156.94 185.999 156.94Z" fill="#FAF28C"/>
<path d="M214.29 250.95C216.019 250.95 217.42 249.549 217.42 247.82C217.42 246.091 216.019 244.69 214.29 244.69C212.561 244.69 211.16 246.091 211.16 247.82C211.16 249.549 212.561 250.95 214.29 250.95Z" fill="#FAF28C"/>
<path d="M58.7491 315.45C60.4778 315.45 61.8791 314.049 61.8791 312.32C61.8791 310.591 60.4778 309.19 58.7491 309.19C57.0205 309.19 55.6191 310.591 55.6191 312.32C55.6191 314.049 57.0205 315.45 58.7491 315.45Z" fill="#FAF28C"/>
<path d="M21.3497 218.31C23.3766 218.31 25.0197 216.667 25.0197 214.64C25.0197 212.613 23.3766 210.97 21.3497 210.97C19.3228 210.97 17.6797 212.613 17.6797 214.64C17.6797 216.667 19.3228 218.31 21.3497 218.31Z" fill="#FAF28C"/>
<path d="M210.331 163.14L203.651 161.74L205.391 159.08C205.421 159.032 205.433 158.974 205.426 158.918C205.419 158.862 205.393 158.809 205.352 158.77C205.311 158.73 205.258 158.706 205.202 158.7C205.145 158.695 205.088 158.709 205.041 158.74L202.601 160.34L201.291 154.1C201.277 154.016 201.233 153.94 201.168 153.885C201.103 153.83 201.021 153.8 200.936 153.8C200.851 153.8 200.768 153.83 200.703 153.885C200.639 153.94 200.595 154.016 200.581 154.1L199.201 160.69L196.201 158.74C196.153 158.714 196.099 158.703 196.045 158.711C195.991 158.718 195.941 158.743 195.903 158.782C195.864 158.82 195.839 158.87 195.832 158.924C195.824 158.978 195.834 159.033 195.861 159.08L197.671 161.85L191.521 163.14C191.437 163.154 191.361 163.198 191.306 163.263C191.251 163.328 191.221 163.41 191.221 163.495C191.221 163.58 191.251 163.662 191.306 163.727C191.361 163.792 191.437 163.836 191.521 163.85L197.671 165.13L195.861 167.9C195.83 167.947 195.816 168.004 195.821 168.061C195.827 168.117 195.851 168.17 195.891 168.211C195.93 168.252 195.983 168.278 196.039 168.285C196.095 168.292 196.153 168.28 196.201 168.25L199.201 166.25L200.581 172.84C200.595 172.924 200.639 173 200.703 173.055C200.768 173.11 200.851 173.14 200.936 173.14C201.021 173.14 201.103 173.11 201.168 173.055C201.233 173 201.277 172.924 201.291 172.84L202.601 166.6L205.041 168.2C205.089 168.236 205.149 168.254 205.209 168.249C205.269 168.245 205.325 168.219 205.368 168.177C205.41 168.134 205.436 168.078 205.44 168.018C205.445 167.958 205.427 167.898 205.391 167.85L203.651 165.2L210.331 163.8C210.395 163.772 210.45 163.726 210.488 163.667C210.527 163.609 210.547 163.54 210.547 163.47C210.547 163.4 210.527 163.331 210.488 163.273C210.45 163.214 210.395 163.168 210.331 163.14Z" fill="#FAF28C"/>
<path d="M235.8 215.87L229.11 214.47L230.85 211.81C230.876 211.763 230.887 211.708 230.879 211.654C230.872 211.6 230.847 211.55 230.808 211.512C230.77 211.473 230.72 211.448 230.666 211.441C230.612 211.433 230.557 211.444 230.51 211.47L228.06 213.07L226.75 206.8C226.731 206.721 226.686 206.652 226.623 206.602C226.559 206.551 226.481 206.524 226.4 206.524C226.319 206.524 226.241 206.551 226.177 206.602C226.114 206.652 226.069 206.721 226.05 206.8L224.67 213.39L221.67 211.39C221.622 211.359 221.566 211.345 221.509 211.35C221.453 211.356 221.399 211.38 221.359 211.42C221.318 211.459 221.292 211.512 221.285 211.568C221.278 211.625 221.29 211.682 221.32 211.73L223.13 214.5L216.98 215.79C216.896 215.804 216.82 215.848 216.765 215.913C216.71 215.978 216.68 216.06 216.68 216.145C216.68 216.23 216.71 216.313 216.765 216.378C216.82 216.442 216.896 216.486 216.98 216.5L223.13 217.78L221.39 220.63C221.354 220.678 221.336 220.738 221.341 220.798C221.345 220.858 221.371 220.914 221.413 220.957C221.456 220.999 221.512 221.025 221.572 221.029C221.632 221.034 221.692 221.016 221.74 220.98L224.74 219.03L226.12 225.62C226.139 225.699 226.184 225.769 226.247 225.819C226.311 225.869 226.389 225.896 226.47 225.896C226.551 225.896 226.629 225.869 226.693 225.819C226.756 225.769 226.801 225.699 226.82 225.62L228.13 219.38L230.58 220.98C230.628 221.01 230.685 221.022 230.742 221.015C230.798 221.008 230.85 220.982 230.89 220.941C230.93 220.9 230.954 220.847 230.96 220.791C230.965 220.734 230.951 220.678 230.92 220.63L229.18 217.98L235.87 216.58C235.955 216.56 236.029 216.51 236.08 216.439C236.13 216.368 236.153 216.281 236.145 216.194C236.136 216.108 236.097 216.027 236.033 215.968C235.97 215.908 235.887 215.873 235.8 215.87Z" fill="#FAF28C"/>
<path d="M40.389 237.8L33.709 236.4L35.449 233.74C35.4788 233.692 35.4911 233.635 35.4841 233.578C35.477 233.522 35.451 233.469 35.4102 233.43C35.3695 233.39 35.3165 233.366 35.2599 233.36C35.2033 233.355 35.1466 233.369 35.0991 233.4L32.649 234.99L31.3491 228.75C31.3349 228.666 31.2915 228.59 31.2265 228.535C31.1615 228.48 31.0791 228.45 30.994 228.45C30.9089 228.45 30.8266 228.48 30.7616 228.535C30.6966 228.59 30.6532 228.666 30.639 228.75L29.259 235.34L26.259 233.4C26.2139 233.355 26.1528 233.33 26.0891 233.33C26.0253 233.33 25.9642 233.355 25.9191 233.4C25.874 233.445 25.8486 233.506 25.8486 233.57C25.8486 233.634 25.874 233.695 25.9191 233.74L27.7291 236.51L21.639 237.8C21.5605 237.819 21.4905 237.864 21.4405 237.927C21.3905 237.991 21.3633 238.069 21.3633 238.15C21.3633 238.231 21.3905 238.309 21.4405 238.373C21.4905 238.436 21.5605 238.481 21.639 238.5L27.7891 239.8L25.9791 242.57C25.9567 242.592 25.939 242.619 25.9269 242.648C25.9149 242.677 25.9086 242.708 25.9086 242.74C25.9086 242.772 25.9149 242.803 25.9269 242.832C25.939 242.861 25.9567 242.888 25.9791 242.91C26.0014 242.932 26.0278 242.95 26.057 242.962C26.0862 242.974 26.1175 242.98 26.149 242.98C26.1806 242.98 26.2119 242.974 26.241 242.962C26.2702 242.95 26.2967 242.932 26.319 242.91L29.319 240.97L30.699 247.56C30.7132 247.644 30.7566 247.72 30.8216 247.775C30.8866 247.83 30.9689 247.86 31.054 247.86C31.1391 247.86 31.2215 247.83 31.2865 247.775C31.3515 247.72 31.3949 247.644 31.4091 247.56L32.709 241.31L35.1591 242.91C35.2066 242.941 35.2633 242.955 35.3199 242.95C35.3765 242.944 35.4295 242.92 35.4702 242.88C35.511 242.841 35.5371 242.788 35.5441 242.732C35.5512 242.676 35.5388 242.618 35.509 242.57L33.769 239.91L40.449 238.51C40.5333 238.49 40.6077 238.441 40.6586 238.371C40.7095 238.301 40.7335 238.215 40.7262 238.129C40.7189 238.043 40.6809 237.962 40.619 237.902C40.557 237.841 40.4754 237.805 40.389 237.8Z" fill="#FAF28C"/>
<path d="M210.871 299.16L204.191 297.8L205.931 295.14C205.961 295.092 205.973 295.035 205.966 294.978C205.959 294.922 205.933 294.869 205.892 294.83C205.851 294.79 205.798 294.766 205.742 294.76C205.685 294.755 205.628 294.769 205.581 294.8L203.141 296.39L201.831 290.15C201.817 290.066 201.773 289.99 201.708 289.935C201.643 289.88 201.561 289.85 201.476 289.85C201.391 289.85 201.308 289.88 201.243 289.935C201.178 289.99 201.135 290.066 201.121 290.15L199.741 296.74L196.741 294.8C196.696 294.755 196.635 294.73 196.571 294.73C196.507 294.73 196.446 294.755 196.401 294.8C196.356 294.845 196.33 294.906 196.33 294.97C196.33 295.034 196.356 295.095 196.401 295.14L198.211 297.91L192.061 299.2C191.982 299.219 191.912 299.264 191.862 299.327C191.812 299.391 191.785 299.469 191.785 299.55C191.785 299.631 191.812 299.709 191.862 299.773C191.912 299.836 191.982 299.881 192.061 299.9L198.211 301.19L196.391 303.92C196.346 303.965 196.32 304.026 196.32 304.09C196.32 304.154 196.346 304.215 196.391 304.26C196.436 304.305 196.497 304.33 196.561 304.33C196.625 304.33 196.686 304.305 196.731 304.26L199.731 302.32L201.111 308.91C201.125 308.994 201.168 309.07 201.233 309.125C201.298 309.18 201.381 309.21 201.466 309.21C201.551 309.21 201.633 309.18 201.698 309.125C201.763 309.07 201.807 308.994 201.821 308.91L203.131 302.67L205.571 304.26C205.618 304.291 205.675 304.305 205.732 304.3C205.788 304.294 205.841 304.27 205.882 304.23C205.923 304.191 205.949 304.138 205.956 304.082C205.963 304.026 205.951 303.968 205.921 303.92L204.181 301.26L210.861 299.86C210.94 299.842 211.01 299.798 211.061 299.736C211.112 299.673 211.141 299.595 211.142 299.514C211.143 299.433 211.117 299.354 211.068 299.29C211.018 299.226 210.949 299.18 210.871 299.16Z" fill="#FAF28C"/>
<path d="M43.7695 185.8L39.2595 184.8L40.4395 183.01C40.4599 182.977 40.4683 182.938 40.4634 182.899C40.4585 182.861 40.4404 182.825 40.4124 182.798C40.3843 182.771 40.3479 182.755 40.3091 182.751C40.2704 182.748 40.2317 182.758 40.1995 182.78L38.5494 183.86L37.6695 179.64C37.6543 179.588 37.6227 179.542 37.5795 179.51C37.5362 179.478 37.4835 179.46 37.4294 179.46C37.3754 179.46 37.3228 179.478 37.2795 179.51C37.2362 179.542 37.2046 179.588 37.1895 179.64L36.2595 184.09L34.2595 182.78C34.2273 182.763 34.1905 182.756 34.1544 182.762C34.1184 182.767 34.085 182.784 34.0593 182.81C34.0335 182.836 34.0167 182.869 34.0113 182.905C34.0059 182.941 34.0123 182.978 34.0295 183.01L35.2495 184.88L31.0995 185.75C31.0454 185.761 30.9969 185.791 30.962 185.833C30.9272 185.876 30.9082 185.93 30.9082 185.985C30.9082 186.04 30.9272 186.094 30.962 186.136C30.9969 186.179 31.0454 186.209 31.0995 186.22L35.2495 187.09L34.0295 188.96C34.0123 188.992 34.0059 189.029 34.0113 189.065C34.0167 189.101 34.0335 189.134 34.0593 189.16C34.085 189.186 34.1184 189.203 34.1544 189.208C34.1905 189.213 34.2273 189.207 34.2595 189.19L36.2595 187.88L37.1895 192.32C37.2046 192.372 37.2362 192.418 37.2795 192.45C37.3228 192.482 37.3754 192.5 37.4294 192.5C37.4835 192.5 37.5362 192.482 37.5795 192.45C37.6227 192.418 37.6543 192.372 37.6695 192.32L38.5494 188.11L40.1995 189.19C40.2317 189.212 40.2704 189.222 40.3091 189.219C40.3479 189.215 40.3843 189.199 40.4124 189.172C40.4404 189.145 40.4585 189.109 40.4634 189.071C40.4683 189.032 40.4599 188.993 40.4395 188.96L39.2595 187.17L43.7695 186.22C43.807 186.199 43.8383 186.169 43.86 186.132C43.8818 186.095 43.8932 186.053 43.8932 186.01C43.8932 185.967 43.8818 185.925 43.86 185.888C43.8383 185.851 43.807 185.821 43.7695 185.8Z" fill="#FAF28C"/>
<path d="M147.5 351.59L142.99 350.65L144.16 348.85C144.178 348.818 144.184 348.781 144.179 348.745C144.173 348.709 144.156 348.676 144.131 348.65C144.105 348.624 144.071 348.607 144.035 348.602C143.999 348.597 143.963 348.603 143.93 348.62L142.28 349.7L141.4 345.49C141.385 345.438 141.354 345.393 141.31 345.36C141.267 345.328 141.214 345.31 141.16 345.31C141.106 345.31 141.054 345.328 141.01 345.36C140.967 345.393 140.936 345.438 140.92 345.49L139.99 349.93L137.99 348.62C137.958 348.603 137.921 348.597 137.885 348.602C137.849 348.607 137.816 348.624 137.79 348.65C137.764 348.676 137.748 348.709 137.742 348.745C137.737 348.781 137.743 348.818 137.76 348.85L138.98 350.72L134.83 351.59C134.778 351.605 134.733 351.637 134.7 351.68C134.668 351.723 134.65 351.776 134.65 351.83C134.65 351.884 134.668 351.937 134.7 351.98C134.733 352.023 134.778 352.055 134.83 352.07L138.98 352.93L137.75 354.8C137.733 354.832 137.727 354.869 137.732 354.905C137.738 354.941 137.754 354.974 137.78 355C137.806 355.026 137.839 355.043 137.875 355.048C137.911 355.054 137.948 355.047 137.98 355.03L139.98 353.72L140.91 358.17C140.926 358.222 140.957 358.268 141 358.3C141.044 358.333 141.096 358.35 141.15 358.35C141.204 358.35 141.257 358.333 141.3 358.3C141.344 358.268 141.375 358.222 141.39 358.17L142.27 353.96L143.92 355.03C143.953 355.047 143.989 355.054 144.025 355.048C144.061 355.043 144.095 355.026 144.121 355C144.146 354.974 144.163 354.941 144.169 354.905C144.174 354.869 144.168 354.832 144.15 354.8L142.98 353.01L147.49 352.07C147.543 352.056 147.589 352.025 147.622 351.983C147.656 351.94 147.674 351.888 147.676 351.834C147.677 351.78 147.66 351.727 147.629 351.683C147.597 351.639 147.552 351.606 147.5 351.59Z" fill="#FAF28C"/>
<path d="M71.1701 346.8L64.4901 345.4L66.2201 342.74C66.2652 342.695 66.2905 342.634 66.2905 342.57C66.2905 342.506 66.2652 342.445 66.2201 342.4C66.175 342.355 66.1138 342.33 66.05 342.33C65.9863 342.33 65.9252 342.355 65.8801 342.4L63.3901 344L62.0901 337.76C62.076 337.676 62.0325 337.6 61.9675 337.545C61.9025 337.49 61.8202 337.46 61.735 337.46C61.6499 337.46 61.5676 337.49 61.5026 337.545C61.4376 337.6 61.3942 337.676 61.3801 337.76L60.0001 344.35L57.0001 342.4C56.9525 342.369 56.8958 342.355 56.8392 342.36C56.7827 342.366 56.7297 342.39 56.6889 342.43C56.6481 342.469 56.622 342.522 56.615 342.578C56.6079 342.634 56.6203 342.692 56.6501 342.74L58.4601 345.51L52.3901 346.8C52.3061 346.814 52.2299 346.857 52.175 346.922C52.12 346.987 52.0898 347.07 52.0898 347.155C52.0898 347.24 52.12 347.322 52.175 347.387C52.2299 347.452 52.3061 347.496 52.3901 347.51L58.5401 348.79L56.7301 351.56C56.694 351.608 56.6765 351.668 56.6807 351.728C56.685 351.788 56.7107 351.844 56.7533 351.887C56.7958 351.929 56.8523 351.955 56.9124 351.959C56.9724 351.964 57.0319 351.946 57.0801 351.91L60.0801 349.91L61.4601 356.5C61.4742 356.584 61.5177 356.66 61.5826 356.715C61.6476 356.77 61.73 356.8 61.8151 356.8C61.9002 356.8 61.9826 356.77 62.0475 356.715C62.1125 356.66 62.156 356.584 62.1701 356.5L63.4701 350.26L65.9201 351.86C65.9685 351.89 66.0256 351.902 66.082 351.895C66.1384 351.888 66.1907 351.862 66.2303 351.821C66.2699 351.78 66.2944 351.727 66.2998 351.671C66.3052 351.614 66.2912 351.557 66.2601 351.51L64.5301 348.86L71.2101 347.46C71.2729 347.428 71.325 347.379 71.36 347.318C71.3951 347.257 71.4115 347.187 71.4072 347.117C71.403 347.047 71.3782 346.979 71.3361 346.923C71.2939 346.867 71.2363 346.824 71.1701 346.8Z" fill="#FAF28C"/>
<path d="M55.629 289.52L49.069 288.14L47.689 281.58C47.6714 281.511 47.6314 281.45 47.5753 281.407C47.5191 281.363 47.4501 281.339 47.379 281.339C47.308 281.339 47.2389 281.363 47.1828 281.407C47.1267 281.45 47.0867 281.511 47.069 281.58L45.699 288.14L39.139 289.52C39.0702 289.538 39.0092 289.578 38.9656 289.634C38.9221 289.69 38.8984 289.759 38.8984 289.83C38.8984 289.901 38.9221 289.97 38.9656 290.026C39.0092 290.082 39.0702 290.122 39.139 290.14L45.699 291.51L47.069 298.07C47.0867 298.139 47.1267 298.2 47.1828 298.243C47.2389 298.287 47.308 298.311 47.379 298.311C47.4501 298.311 47.5191 298.287 47.5753 298.243C47.6314 298.2 47.6714 298.139 47.689 298.07L49.069 291.51L55.629 290.14C55.6979 290.122 55.7589 290.082 55.8024 290.026C55.846 289.97 55.8697 289.901 55.8697 289.83C55.8697 289.759 55.846 289.69 55.8024 289.634C55.7589 289.578 55.6979 289.538 55.629 289.52Z" fill="#FAF28C"/>
<path d="M194.24 344.44L187.68 343.06L186.31 336.5C186.293 336.431 186.253 336.37 186.197 336.327C186.14 336.283 186.071 336.259 186 336.259C185.929 336.259 185.86 336.283 185.804 336.327C185.748 336.37 185.708 336.431 185.69 336.5L184.31 343.06L177.75 344.44C177.682 344.458 177.621 344.498 177.577 344.554C177.533 344.61 177.51 344.679 177.51 344.75C177.51 344.821 177.533 344.89 177.577 344.946C177.621 345.002 177.682 345.042 177.75 345.06L184.31 346.43L185.69 352.99C185.708 353.059 185.748 353.12 185.804 353.163C185.86 353.207 185.929 353.231 186 353.231C186.071 353.231 186.14 353.207 186.197 353.163C186.253 353.12 186.293 353.059 186.31 352.99L187.68 346.43L194.24 345.06C194.309 345.042 194.37 345.002 194.414 344.946C194.457 344.89 194.481 344.821 194.481 344.75C194.481 344.679 194.457 344.61 194.414 344.554C194.37 344.498 194.309 344.458 194.24 344.44Z" fill="#FAF28C"/>
<path d="M231.17 235.25L224.61 233.88L223.23 227.32C223.212 227.251 223.172 227.19 223.116 227.147C223.06 227.103 222.991 227.079 222.92 227.079C222.849 227.079 222.78 227.103 222.724 227.147C222.668 227.19 222.628 227.251 222.61 227.32L221.24 233.88L214.68 235.25C214.611 235.268 214.55 235.308 214.507 235.364C214.463 235.42 214.439 235.489 214.439 235.56C214.439 235.631 214.463 235.7 214.507 235.756C214.55 235.812 214.611 235.852 214.68 235.87L221.24 237.24L222.61 243.8C222.628 243.869 222.668 243.93 222.724 243.973C222.78 244.017 222.849 244.041 222.92 244.041C222.991 244.041 223.06 244.017 223.116 243.973C223.172 243.93 223.212 243.869 223.23 243.8L224.61 237.24L231.17 235.87C231.239 235.852 231.3 235.812 231.344 235.756C231.387 235.7 231.411 235.631 231.411 235.56C231.411 235.489 231.387 235.42 231.344 235.364C231.3 235.308 231.239 235.268 231.17 235.25Z" fill="#FAF28C"/>
<path d="M103.68 356.53L97.1196 355.15L95.7496 348.59C95.7319 348.521 95.6919 348.46 95.6358 348.417C95.5797 348.373 95.5106 348.349 95.4396 348.349C95.3685 348.349 95.2995 348.373 95.2433 348.417C95.1872 348.46 95.1472 348.521 95.1296 348.59L93.7596 355.15L87.1996 356.53C87.1308 356.548 87.0698 356.588 87.0262 356.644C86.9826 356.7 86.959 356.769 86.959 356.84C86.959 356.911 86.9826 356.98 87.0262 357.036C87.0698 357.092 87.1308 357.132 87.1996 357.15L93.7596 358.52L95.1296 365.08C95.1472 365.149 95.1872 365.21 95.2433 365.253C95.2995 365.297 95.3685 365.321 95.4396 365.321C95.5106 365.321 95.5797 365.297 95.6358 365.253C95.6919 365.21 95.7319 365.149 95.7496 365.08L97.1196 358.52L103.68 357.15C103.748 357.132 103.809 357.092 103.853 357.036C103.897 356.98 103.92 356.911 103.92 356.84C103.92 356.769 103.897 356.7 103.853 356.644C103.809 356.588 103.748 356.548 103.68 356.53Z" fill="#FAF28C"/>
<path d="M210.009 258.95L205.119 257.95L204.119 253.06C204.119 252.999 204.095 252.941 204.052 252.897C204.009 252.854 203.95 252.83 203.889 252.83C203.828 252.83 203.77 252.854 203.726 252.897C203.683 252.941 203.659 252.999 203.659 253.06L202.659 257.95L197.769 258.95C197.708 258.95 197.65 258.974 197.606 259.017C197.563 259.061 197.539 259.119 197.539 259.18C197.539 259.241 197.563 259.3 197.606 259.343C197.65 259.386 197.708 259.41 197.769 259.41L202.659 260.41L203.659 265.3C203.659 265.361 203.683 265.42 203.726 265.463C203.77 265.506 203.828 265.53 203.889 265.53C203.95 265.53 204.009 265.506 204.052 265.463C204.095 265.42 204.119 265.361 204.119 265.3L205.119 260.41L210.009 259.41C210.07 259.41 210.129 259.386 210.172 259.343C210.215 259.3 210.239 259.241 210.239 259.18C210.239 259.119 210.215 259.061 210.172 259.017C210.129 258.974 210.07 258.95 210.009 258.95Z" fill="#FAF28C"/>
<path d="M115.759 349.22L110.869 348.22L109.869 343.33C109.869 343.269 109.845 343.21 109.802 343.167C109.759 343.124 109.7 343.1 109.639 343.1C109.578 343.1 109.52 343.124 109.476 343.167C109.433 343.21 109.409 343.269 109.409 343.33L108.409 348.22L103.519 349.22C103.458 349.22 103.4 349.244 103.356 349.287C103.313 349.33 103.289 349.389 103.289 349.45C103.289 349.511 103.313 349.569 103.356 349.613C103.4 349.656 103.458 349.68 103.519 349.68L108.409 350.68L109.409 355.57C109.409 355.631 109.433 355.689 109.476 355.733C109.52 355.776 109.578 355.8 109.639 355.8C109.7 355.8 109.759 355.776 109.802 355.733C109.845 355.689 109.869 355.631 109.869 355.57L110.869 350.68L115.759 349.68C115.82 349.68 115.879 349.656 115.922 349.613C115.965 349.569 115.989 349.511 115.989 349.45C115.989 349.389 115.965 349.33 115.922 349.287C115.879 349.244 115.82 349.22 115.759 349.22Z" fill="#FAF28C"/>
<path d="M66.3895 143.91L61.2595 142.8L60.1895 137.66C60.178 137.603 60.1474 137.553 60.1027 137.516C60.0581 137.48 60.0022 137.46 59.9445 137.46C59.8869 137.46 59.831 137.48 59.7863 137.516C59.7417 137.553 59.711 137.603 59.6995 137.66L58.6195 142.8L53.4796 143.88C53.423 143.891 53.3722 143.922 53.3357 143.967C53.2992 144.011 53.2793 144.067 53.2793 144.125C53.2793 144.183 53.2992 144.239 53.3357 144.283C53.3722 144.328 53.423 144.359 53.4796 144.37L58.6195 145.45L59.6995 150.59C59.711 150.646 59.7417 150.697 59.7863 150.734C59.831 150.77 59.8869 150.79 59.9445 150.79C60.0022 150.79 60.0581 150.77 60.1027 150.734C60.1474 150.697 60.178 150.646 60.1895 150.59L61.2595 145.45L66.3895 144.4C66.446 144.388 66.4968 144.358 66.5333 144.313C66.5698 144.269 66.5898 144.213 66.5898 144.155C66.5898 144.097 66.5698 144.041 66.5333 143.997C66.4968 143.952 66.446 143.921 66.3895 143.91Z" fill="#FAF28C"/>
<path d="M47.1893 255.15L42.0394 254.08L40.9594 248.93C40.9479 248.873 40.9172 248.823 40.8726 248.786C40.8279 248.75 40.772 248.73 40.7144 248.73C40.6567 248.73 40.6008 248.75 40.5562 248.786C40.5115 248.823 40.4808 248.873 40.4694 248.93L39.3893 254.08L34.2393 255.15C34.1828 255.161 34.132 255.192 34.0955 255.237C34.059 255.281 34.0391 255.337 34.0391 255.395C34.0391 255.453 34.059 255.509 34.0955 255.553C34.132 255.598 34.1828 255.629 34.2393 255.64L39.3893 256.72L40.4594 261.87C40.4708 261.927 40.5015 261.977 40.5461 262.014C40.5908 262.05 40.6467 262.07 40.7043 262.07C40.762 262.07 40.8179 262.05 40.8625 262.014C40.9072 261.977 40.9379 261.927 40.9493 261.87L42.0294 256.72L47.1793 255.64C47.2361 255.63 47.2876 255.6 47.3251 255.556C47.3625 255.512 47.3836 255.457 47.3848 255.399C47.386 255.341 47.3672 255.285 47.3315 255.24C47.2959 255.194 47.2457 255.163 47.1893 255.15Z" fill="#FAF28C"/>
<path d="M185.8 137.25L180.65 136.17L179.57 131.02C179.555 130.968 179.523 130.922 179.48 130.89C179.436 130.858 179.384 130.84 179.33 130.84C179.276 130.84 179.223 130.858 179.18 130.89C179.136 130.922 179.105 130.968 179.09 131.02L178.01 136.17L172.86 137.25C172.808 137.265 172.762 137.297 172.73 137.34C172.697 137.383 172.68 137.436 172.68 137.49C172.68 137.544 172.697 137.597 172.73 137.64C172.762 137.683 172.808 137.715 172.86 137.73L178.01 138.81L179.09 143.96C179.105 144.012 179.136 144.058 179.18 144.09C179.223 144.122 179.276 144.14 179.33 144.14C179.384 144.14 179.436 144.122 179.48 144.09C179.523 144.058 179.555 144.012 179.57 143.96L180.65 138.81L185.8 137.73C185.852 137.715 185.897 137.683 185.93 137.64C185.962 137.597 185.98 137.544 185.98 137.49C185.98 137.436 185.962 137.383 185.93 137.34C185.897 137.297 185.852 137.265 185.8 137.25Z" fill="#FAF28C"/>
<path d="M58.5606 333.66L53.3906 332.58L52.3106 327.44C52.2991 327.383 52.2685 327.333 52.2238 327.296C52.1792 327.26 52.1233 327.24 52.0656 327.24C52.0079 327.24 51.9521 327.26 51.9074 327.296C51.8628 327.333 51.8321 327.383 51.8206 327.44L50.7506 332.58L45.6006 333.66C45.5441 333.671 45.4933 333.702 45.4568 333.747C45.4203 333.791 45.4004 333.847 45.4004 333.905C45.4004 333.963 45.4203 334.019 45.4568 334.063C45.4933 334.108 45.5441 334.138 45.6006 334.15L50.7506 335.23L51.8206 340.37C51.8321 340.427 51.8628 340.477 51.9074 340.514C51.9521 340.55 52.0079 340.57 52.0656 340.57C52.1233 340.57 52.1792 340.55 52.2238 340.514C52.2685 340.477 52.2991 340.427 52.3106 340.37L53.3906 335.23L58.5406 334.15C58.5978 334.141 58.65 334.113 58.6885 334.069C58.727 334.026 58.7493 333.971 58.7517 333.913C58.7541 333.855 58.7363 333.799 58.7015 333.752C58.6666 333.706 58.6168 333.674 58.5606 333.66Z" fill="#FAF28C"/>
<path d="M40.5192 168.59L35.3892 167.51L34.3192 162.36C34.3077 162.304 34.277 162.253 34.2324 162.216C34.1877 162.18 34.1318 162.16 34.0742 162.16C34.0165 162.16 33.9606 162.18 33.916 162.216C33.8713 162.253 33.8406 162.304 33.8292 162.36L32.7491 167.51L27.6091 168.59C27.5455 168.59 27.4845 168.615 27.4395 168.66C27.3944 168.705 27.3691 168.766 27.3691 168.83C27.3691 168.894 27.3944 168.955 27.4395 169C27.4845 169.045 27.5455 169.07 27.6091 169.07L32.7491 170.15L33.8292 175.3C33.8406 175.357 33.8713 175.407 33.916 175.444C33.9606 175.48 34.0165 175.5 34.0742 175.5C34.1318 175.5 34.1877 175.48 34.2324 175.444C34.277 175.407 34.3077 175.357 34.3192 175.3L35.3892 170.15L40.5392 169.07C40.5906 169.053 40.635 169.019 40.6658 168.975C40.6965 168.93 40.712 168.877 40.7097 168.823C40.7075 168.768 40.6876 168.716 40.6533 168.674C40.6189 168.633 40.5718 168.603 40.5192 168.59Z" fill="#FAF28C"/>
</g>
<defs>
<clipPath id="clip0_3780_1617">
<rect width="249.58" height="380.71" fill="white"/>
</clipPath>
</defs>
</svg>
