<svg width="1265" height="488" viewBox="0 0 1265 488" fill="none" xmlns="http://www.w3.org/2000/svg">
<g clip-path="url(#clip0_5470_19062)">
<path d="M600 195.2C594.1 178 594.1 159.5 600.1 139.7C576.4 158 547.6 167.9 517.3 167.9C515.2 167.9 513 167.9 510.9 167.8C509.7 167.7 508.5 167.7 507.3 167.6C507 167.6 505.9 167.5 505.9 167.5C505.2 167.4 504.5 167.4 503.7 167.3C503.4 167.3 503 167.2 502.7 167.2L502.2 167.1C501.5 167 500.9 166.9 500.2 166.9C499.8 166.9 499.5 166.8 499.1 166.7H498.8C498.1 166.6 497.4 166.5 496.7 166.4C496.3 166.3 495.2 166.2 495.2 166.2C494.5 166.1 493.9 166 493.2 165.9C492.7 165.8 492.3 165.7 491.9 165.6H491.7C491 165.5 490.4 165.3 489.7 165.2C489.2 165.1 488.7 165 488.2 164.9C487.6 164.8 486.9 164.6 486.3 164.5C485.8 164.4 485.3 164.3 484.8 164.2C484.2 164 483.5 163.9 482.9 163.7C482.4 163.6 481.9 163.4 481.5 163.3C480.8 163.1 480.2 162.9 479.5 162.8C479 162.7 478.6 162.5 478.1 162.4C477.4 162.2 476.8 162 476.2 161.8C476.2 161.8 475.2 161.5 474.8 161.4C474.1 161.2 473.5 160.9 472.8 160.7C472.8 160.7 471.9 160.4 471.5 160.3C470.8 160 470.1 159.8 469.4 159.5C469.4 159.5 468.5 159.2 468.2 159.1C467.9 159 467.6 158.8 467.2 158.7C462 181.5 461.5 203.9 462.4 220.3C480.4 208.4 499.2 202.5 518.4 202.5C534.5 202.5 550.4 206.7 566 214.9C578 206.6 590 201 600.9 197.4C600.5 196.4 600.3 195.8 600 195.2ZM585.6 0.9H620.6H634C633.9 0.6 633.8 0.3 633.8 0C633.9 0.3 634 0.6 634 0.9H649.5C649.5 1.1 649.6 1.3 649.6 1.5C649.7 1.8 649.9 2.8 649.9 2.8C650.1 3.6 650.2 4.4 650.4 5.2C650.5 5.7 650.6 6.1 650.7 6.6C650.9 7.4 651 8.2 651.1 9C651.1 9 651.3 10 651.3 10.3C651.4 11.2 651.6 12.1 651.7 13C651.7 13 651.8 13.8 651.9 14.1C652.1 15.3 652.2 16.6 652.3 17.8L652.4 18.5C652.5 19.5 652.6 20.5 652.7 21.6C652.7 21.9 652.7 22.3 652.8 22.7V23C652.9 23.8 652.9 24.6 653 25.5C653 26 653 26.4 653.1 26.9C653.1 27.7 653.1 28.5 653.2 29.4C653.2 29.9 653.2 30.4 653.2 30.8C653.2 31.7 653.2 32.5 653.2 33.4V34.6C653.2 35.9 653.1 37.2 653.1 38.5C652.7 47.1 651.5 55.5 649.6 63.8C675.8 40.3 703.2 33 723.6 31.6C726.5 31.4 729.4 31.3 732.3 31.3C737.8 31.3 743.4 31.7 748.8 32.4C751.1 25.8 754.2 18.3 758.5 10.6C760.2 7.5 762.2 4.3 764.4 1.2H783.4H808.4H859.9H945.2H989.4H1020.5C1024.3 1.2 1028 1.3 1031.8 1.5C1055.5 2.6 1078.3 7 1099.7 14.4C1104.6 16.1 1109.5 18 1114.3 20C1115.9 20.6 1117.4 21.3 1119 22C1121 22.9 1123 23.8 1124.9 24.7C1139.9 31.8 1154.1 40.5 1167.3 50.4C1167.4 50.5 1167.6 50.6 1167.7 50.7C1169.8 52.3 1171.9 53.9 1174 55.6C1174.5 56 1175 56.4 1175.5 56.8C1179.6 60.1 1183.5 63.6 1187.3 67.2C1189.1 68.8 1190.8 70.5 1192.5 72.2C1193.6 73.3 1194.7 74.4 1195.8 75.6C1198.7 78.6 1201.6 81.7 1204.3 84.9C1205.8 86.6 1207.3 88.4 1208.7 90.1C1213.2 95.6 1217.5 101.3 1221.6 107.2C1237.5 130.4 1249.5 156.4 1256.7 184.4C1258.4 191 1259.8 197.7 1260.9 204.5C1261.8 210 1262.6 215.6 1263.1 221.3C1263.3 223.2 1263.5 225 1263.6 226.9C1263.7 228 1263.7 229 1263.8 230C1263.9 231.2 1263.9 232.4 1264 233.5C1264.2 237.3 1264.3 241.2 1264.3 245.1V245.7L1264.2 252.3C1263.3 284.1 1256.3 314.4 1244.3 342C1243.6 343.5 1243 345.1 1242.3 346.6C1239.8 352 1237.2 357.3 1234.3 362.5C1223.1 382.8 1209.2 401.3 1192.9 417.5C1187.4 423 1181.7 428.2 1175.7 433.1C1169.2 438.5 1162.4 443.5 1155.4 448.2C1154.9 448.5 1154.5 448.8 1154 449.1C1152.8 449.9 1151.6 450.7 1150.4 451.4C1145.2 454.7 1139.8 457.8 1134.3 460.7C1133.2 461.3 1132 461.9 1130.9 462.5C1120.9 467.6 1110.5 472 1099.8 475.7C1088 479.7 1075.9 482.9 1063.4 485.1C1057.8 486.1 1052.1 486.9 1046.3 487.5C1044.1 487.7 1041.8 487.9 1039.6 488.1C1033.3 488.6 1026.9 488.8 1020.5 488.8H1001.3H932.8H859.6H808.9H773.5H772.5H770.2H760.5H759.1H756.1H569.1H568.5H557.6H547.6H530.2C518.5 467.3 510.4 441.3 506.1 410.8C505.9 409.2 505.7 407.6 505.5 406C501.7 406.1 497.9 406.2 494.2 406.2H493.3C480.7 406.2 468.1 405.3 456 403.7C450.2 402.9 444.5 402 438.8 400.9C433.4 399.8 428 398.6 422.6 397.2C405.2 392.6 388.2 386.2 371.8 378.2C369.2 376.9 366.6 375.6 364 374.2C359.2 371.7 354.4 368.9 349.6 366.1C341.9 361.4 334.1 356.3 325.9 350.4C325 349.8 324.2 349.2 323.4 348.6C322 347.6 320.6 346.6 319.3 345.6C318.2 344.8 317.1 343.9 316 343.1L313 340.8C309.1 337.9 305.7 335.3 303.1 333.6C285 321.3 281.5 308.1 281.7 299.1C281.7 298.6 281.7 298.1 281.8 297.7C281.9 296.3 282.1 295 282.4 293.6C282.5 293.1 282.6 292.7 282.7 292.3C284.3 285.8 287.7 280.6 290.8 277C290.8 276.7 290.8 273.7 290.8 273.7C290.8 271.9 290.8 270.2 290.8 268.4C290.8 267.6 290.8 266.7 290.8 265.9C290.8 264.1 290.8 262.4 290.9 260.7V258.5C290.9 256.1 291 253.7 291.1 251.3V251C291.2 248.7 291.3 246.4 291.4 244.2L291.5 242C291.6 240.3 291.7 238.7 291.8 237.1C291.9 236.3 291.9 235.5 292 234.8C292.1 233.1 292.3 231.4 292.4 229.8C292.4 229.8 292.5 228.3 292.6 227.9C292.8 225.6 293 223.4 293.2 221.1V220.7C293.4 218.5 293.7 216.5 293.9 214.4L294.1 212.5C294.3 210.9 294.5 209.3 294.7 207.8C294.8 207.1 294.9 206.4 295 205.7C295.2 204.1 295.5 202.4 295.7 200.8L296 199.2C296.3 197.1 296.7 194.9 297.1 192.8L297.2 192.4C297.6 190.4 297.9 188.5 298.3 186.5L298.6 184.8C298.9 183.3 299.2 181.8 299.6 180.3C299.7 179.7 299.9 179.1 300 178.5C300.4 176.9 300.7 175.3 301.1 173.7L301.4 172.5C301.9 170.5 302.4 168.4 302.9 166.4L303 166.2C303.5 164.3 304 162.5 304.5 160.7L304.9 159.2C305.3 157.8 305.8 156.3 306.2 154.8L306.6 153.3C307.1 151.7 307.6 150.1 308.1 148.5L308.4 147.7C309 145.8 309.7 143.9 310.3 142C310.3 141.9 310.3 141.9 310.4 141.8C311 140 311.7 138.3 312.3 136.6L312.7 135.4C313.3 134 313.8 132.5 314.4 131.1L314.9 129.9C315.5 128.3 316.2 126.7 316.8 125.2L317 124.8C317.8 123 318.5 121.2 319.3 119.5L319.4 119.4C320.1 117.8 320.9 116.2 321.6 114.6L322.1 113.7C322.8 112.3 323.4 111 324.1 109.6L324.5 108.7C325.3 107.1 326.1 105.6 326.9 104.1C326.9 104.1 326.9 104 327 104C327.9 102.3 328.8 100.7 329.7 99.1V99C330.5 97.5 331.4 96 332.3 94.5L332.7 93.8C333.5 92.5 334.2 91.2 335 89.9L335.4 89.2C348.2 68.5 363.6 50.4 381.4 35.2C381.3 32.1 381.4 29 381.5 25.9C381.9 17.4 383.1 9.1 384.9 1.1H400.4H448.8H490.4H533.7H574.7H585.6V0.9Z" fill="#231F20"/>
<path d="M490.4 0.900391C475.5 3.00039 459.9 7.10039 444.3 13.6004C428.1 20.3004 411.9 29.6004 396.6 41.8004C381 54.3004 366.3 69.7004 353.4 88.6004C352.7 89.6004 352.1 90.6004 351.4 91.6004C350.7 92.6004 350.1 93.6004 349.4 94.6004C344.6 102.1 340.2 110 336.1 118.5C335.5 119.7 335 120.8 334.4 122C333.9 123.2 333.3 124.4 332.8 125.6C330.9 129.8 329.1 134.1 327.4 138.5C327.1 139.3 326.8 140.1 326.5 140.9C323.7 148.2 321.2 155.9 318.9 163.8C318.6 164.9 318.3 166 318 167.1C317.9 167.4 317.9 167.6 317.8 167.9C317.5 169 317.2 170.1 316.9 171.2C316.6 172.2 316.4 173.2 316.1 174.3C315.6 176.5 315 178.7 314.5 181C314.2 182.5 313.8 184.1 313.5 185.6C313.5 185.7 313.5 185.8 313.4 185.9C313.1 187.4 312.8 189 312.5 190.5C312.4 191.2 312.2 191.9 312.1 192.6C312 193.1 311.9 193.7 311.8 194.2C311.5 195.8 311.2 197.4 310.9 199C310.8 199.9 310.6 200.8 310.5 201.7C309.9 205.2 309.4 208.8 308.9 212.5C308.8 213.6 308.6 214.8 308.5 215.9C308.4 217.1 308.2 218.3 308.1 219.5C308 220.5 307.9 221.4 307.8 222.4C307.3 226.8 306.9 231.3 306.6 235.9C306.5 236.9 306.5 238 306.4 239C306.2 242.6 306 246.2 305.8 249.9C305.7 251.3 305.7 252.6 305.7 254C305.6 257.2 305.5 260.4 305.5 263.7C305.5 264.4 305.5 265.1 305.5 265.8C305.5 271.5 305.6 277.3 305.7 283.2C305.7 283.2 281.7 300.9 311.3 321.2C313.4 322.7 315.9 324.5 318.6 326.5C319.5 327.2 320.5 327.9 321.5 328.7C323 329.8 324.5 331 326.2 332.2C327.3 333 328.4 333.9 329.6 334.7C330.5 335.4 331.5 336.1 332.4 336.8C332.9 337.2 333.4 337.6 334 337.9C335 338.6 336 339.3 337 340.1C338.1 340.8 339.1 341.6 340.2 342.3C345.3 345.8 350.8 349.5 356.9 353.2C359.4 354.7 361.9 356.2 364.6 357.7C366 358.5 367.5 359.3 369 360.1C378.4 365.2 388.9 370.1 400.4 374.5C402.3 375.2 404.3 376 406.3 376.7C406.9 376.9 407.5 377.1 408.1 377.3C410.1 378 412.2 378.7 414.3 379.3C416.7 380.1 419.1 380.8 421.6 381.5C424.1 382.2 426.6 382.9 429.2 383.5C438.1 385.7 447.6 387.6 457.6 388.9C460.5 389.3 463.3 389.6 466.3 389.9C475.1 390.8 484.3 391.3 493.9 391.3C495.7 391.3 497.4 391.3 499.2 391.3C505.5 391.2 511.9 390.9 518.5 390.3C520.3 390.2 522.2 390 524.1 389.8C524.7 389.7 525.4 389.7 526 389.6C527.4 389.5 528.8 389.3 530.3 389.1C530.8 389 531.3 389 531.8 388.9C533 388.8 534.1 388.6 535.3 388.5C535.4 388.5 535.5 388.5 535.6 388.5C535.7 388.5 535.8 388.5 535.9 388.5C536.7 388.4 537.5 388.3 538.3 388.2C538.9 388.1 539.5 388 540.2 387.9C542.3 387.6 544.5 387.2 546.7 386.9H546.8C548.9 386.5 551 386.2 553.2 385.7C553.9 385.6 554.6 385.4 555.3 385.3C556.2 385.1 557 385 557.9 384.8C558.8 384.6 559.7 384.4 560.7 384.2C561.6 384 562.5 383.8 563.4 383.6C565.5 383.2 567.6 382.7 569.7 382.2C571 381.9 572.3 381.6 573.6 381.3C574.9 381 576.2 380.6 577.6 380.3C580.3 379.6 582.9 378.9 585.6 378.1C588.3 377.3 591 376.5 593.8 375.7C595.2 375.3 596.6 374.9 597.9 374.4C598.4 374.3 598.9 374.1 599.4 373.9L599.1 368L599 366.3L596.9 320.1L595.9 297.7L594 256.8C594 256.8 589.3 250.9 580.9 243.6C576.9 240.2 572.1 236.5 566.6 232.9C540.2 215.9 497.3 203.4 450 249.3C450 249.3 438.8 191.4 457.2 137.5C458.1 134.9 459 132.3 460.1 129.8C464.7 118.4 470.7 107.2 478.6 97.0004C480.9 94.0004 483.3 91.1004 486 88.3004C491.1 82.8004 496.9 77.6004 503.5 73.0004C503.5 73.0004 502.7 80.7004 505.1 89.6004C506.7 95.7004 509.9 102.3 515.8 107.5C521.6 112.5 530 116 542.3 116.2C575 116.6 597 79.4004 590.6 47.2004C588.6 37.1004 583.7 27.4004 575.5 19.5004C575.1 19.1004 574.7 18.8004 574.3 18.4004C564.8 9.90039 550.5 4.00039 533.5 1.30039H490.4V0.900391Z" fill="#F499AA"/>
<path opacity="0.42" d="M365.6 273.7C333.7 236.4 353.5 88.6996 353.5 88.5996C323.2 133.1 303.2 196.4 305.9 283.1C305.9 283.1 281.9 300.8 311.5 321.1C341.2 341.3 429.6 427.7 599.5 373.6L597.1 319.7C585.9 320.4 574.5 321.2 562.7 322.1C412 332.6 365.6 273.7 365.6 273.7Z" fill="#EB8299"/>
<path d="M1140.1 173.5C1118.2 159.6 1124.7 130.2 1125.1 128.9C1126.2 124.3 1123.4 119.7 1118.8 118.6C1114.2 117.5 1109.6 120.3 1108.4 124.9C1108 126.6 1098.6 167.4 1130.9 188C1132.3 188.9 1133.9 189.3 1135.5 189.3C1138.3 189.3 1141.1 187.9 1142.8 185.3C1145.2 181.3 1144.1 176 1140.1 173.5ZM1264.1 252C1263.2 283.8 1256.2 314.1 1244.2 341.7C1242.2 329.2 1237.1 308.6 1223.9 287.5C1223.8 287.3 1223.7 287.2 1223.6 287C1215.3 273.8 1203.2 259.4 1185.5 246.9C1187.9 245.5 1190.1 243.9 1192.1 242.1C1192.9 241.4 1193.7 240.7 1194.4 239.9C1197.7 236.5 1200.5 232.5 1202.5 228C1216.9 196.7 1192.8 150.9 1191.8 149C1189.6 144.8 1184.4 143.2 1180.2 145.5C1176 147.7 1174.4 152.9 1176.7 157.1C1182.6 168.2 1196 201.2 1187 220.8C1183.6 228.2 1177.2 233.2 1167.4 235.9C1146.1 224.9 1118.6 216.8 1083.3 214.7L1081.4 214.2L1079.5 215.3C1079.3 215.4 1079.1 215.4 1078.9 215.5C1075.3 216.3 1057.5 218.4 1018.9 196.9C1001.2 187.1 984.6 184.6 969.5 189.5C946.7 197 936.5 218.7 936.1 219.7C934.1 224 936 229.1 940.3 231C944.6 233 949.7 231.1 951.7 226.8C951.8 226.6 959.4 210.7 975 205.7C985.3 202.4 997.3 204.4 1010.5 211.8C1027.1 221.1 1040.6 226.5 1051.4 229.6C1027.9 248.2 1026.8 273.1 1026.8 274.5C1026.7 279.2 1030.4 283.2 1035.1 283.4C1035.2 283.4 1035.3 283.4 1035.4 283.4C1040 283.4 1043.8 279.8 1044 275.1C1044.1 273.8 1045.8 244.3 1083.4 232.1C1083.7 232 1083.9 232 1084.2 231.9C1114.5 233.9 1140.4 240.6 1161.7 251.9C1162.3 252.3 1163 252.7 1163.7 253C1182.6 263.5 1197.8 277.8 1209.1 295.8C1209.5 296.4 1209.9 297.1 1210.3 297.8C1210.5 298.1 1210.7 298.4 1210.8 298.7C1211.1 299.1 1211.3 299.5 1211.5 299.9C1211.6 300 1211.6 300.2 1211.7 300.3C1211.9 300.7 1212.2 301.2 1212.4 301.6C1212.7 302.2 1213.1 302.8 1213.4 303.4C1213.5 303.5 1213.5 303.7 1213.6 303.8C1213.8 304.1 1213.9 304.4 1214.1 304.7C1214.1 304.7 1214.1 304.8 1214.2 304.9C1214.3 305.1 1214.4 305.2 1214.5 305.4C1214.6 305.6 1214.7 305.7 1214.8 305.9C1215.1 306.5 1215.4 307.1 1215.7 307.7C1215.8 307.8 1215.8 307.9 1215.9 308C1216 308.2 1216.1 308.4 1216.2 308.6C1216.5 309.1 1216.7 309.6 1216.9 310.1C1217.5 311.5 1218.2 312.9 1218.7 314.2C1219 314.9 1219.3 315.6 1219.5 316.2C1219.8 316.9 1220 317.5 1220.3 318.2C1220.5 318.7 1220.7 319.1 1220.8 319.6C1221.3 320.8 1221.7 322.1 1222.1 323.3C1222.2 323.7 1222.4 324.1 1222.5 324.5C1222.5 324.6 1222.6 324.7 1222.6 324.8C1222.9 325.6 1223.1 326.5 1223.4 327.3C1223.5 327.7 1223.7 328.1 1223.8 328.5C1223.9 328.9 1224 329.3 1224.2 329.7C1224.3 330.2 1224.5 330.8 1224.6 331.3C1224.7 331.7 1224.8 332 1224.9 332.4C1224.9 332.5 1225 332.7 1225 332.8C1225.2 333.7 1225.5 334.6 1225.7 335.5C1225.8 335.8 1225.8 336.2 1225.9 336.5C1226 336.8 1226.1 337.2 1226.1 337.5C1226.2 337.8 1226.2 338.1 1226.3 338.5C1226.4 338.8 1226.4 339.1 1226.5 339.4C1226.6 339.9 1226.7 340.3 1226.8 340.8C1226.9 341.5 1227.1 342.3 1227.2 342.9C1227.3 343.2 1227.3 343.4 1227.3 343.7C1227.9 347.5 1228.3 350.4 1228.4 352.2C1228.4 352.4 1228.4 352.6 1228.4 352.8C1228.5 353.7 1228.5 354.2 1228.5 354.3C1228.6 358 1231 361.1 1234.3 362.2C1223.1 382.5 1209.2 401 1192.9 417.2C1187.4 422.7 1181.7 427.9 1175.7 432.8C1169.2 438.2 1162.4 443.2 1155.4 447.9C1154.9 448.2 1154.5 448.5 1154 448.8C1152.8 449.6 1151.6 450.4 1150.4 451.1C1145.2 454.4 1139.8 457.5 1134.3 460.4C1133.2 461 1132 461.6 1130.9 462.2C1120.9 467.3 1110.5 471.7 1099.8 475.4C1088 479.4 1075.9 482.6 1063.4 484.8C1063.2 483.8 1063 482.8 1062.8 481.8C1062.6 480.9 1062.5 480 1062.4 479.1C1061.7 474.1 1061.4 468.9 1061.4 463.5C1061.4 462.5 1061.4 461.6 1061.4 460.6C1061.4 459.7 1061.4 458.9 1061.5 458C1061.5 457.7 1061.5 457.4 1061.5 457.1C1061.8 449.4 1062.4 441.6 1063.1 434C1063.4 430.2 1063.8 426.4 1064 422.8C1064.3 418.1 1060.8 414 1056.1 413.6C1051.3 413.3 1047.3 416.8 1046.9 421.5C1046.6 425.1 1046.3 428.8 1046 432.5C1045.6 437.3 1045.2 442.2 1044.8 447.1C1044.8 447.1 1044.8 447.1 1044.8 447.2C1044.7 449.2 1044.5 451.3 1044.5 453.4C1044.5 454.1 1044.4 454.8 1044.4 455.5C1044.3 456.9 1044.3 458.3 1044.3 459.6C1044.3 460.2 1044.3 460.7 1044.3 461.3C1044.2 470.2 1044.7 478.9 1046.4 487.2C1044.2 487.4 1041.9 487.6 1039.7 487.8C1033.4 488.3 1027 488.5 1020.6 488.5H1001.4H932.9H859.7H809H773.6H772.6H770.3H760.6H759.2H756.2H569.1H568.5C553.1 468.3 542.9 440.7 538 406C537.3 401.3 536.8 396.7 536.3 392.2C536.1 390.8 536 389.4 535.9 388.1C533.6 364 534 342.3 537.2 323.1C541.5 296.5 550.9 274.7 565.5 257.9C570.5 252.1 575.8 247.2 581.3 243.1C604.1 226 628.8 222.6 637.2 221.9C652.5 234.4 668.8 239.4 669.9 239.7C670.7 239.9 671.5 240 672.3 240C676 240 679.4 237.6 680.5 233.9C681.8 229.4 679.2 224.6 674.7 223.2C674.4 223.1 640.2 212.6 630.5 184.4C623.5 164 630.6 138.7 651.7 109.1C699.4 42.2 760.2 67.2 762.7 68.3L773.6 73L774.7 61.1C774.9 59 778.6 22.6 808.3 0.6H859.8H945.1C950.4 3.3 954.7 5.9 957.9 8C956.4 9.9 955 11.9 953.7 13.8C953.1 14.8 952.4 15.7 951.8 16.7C951.2 17.7 950.6 18.6 950 19.6C947.7 23.5 945.7 27.3 944 31C943.7 31.7 943.4 32.4 943.1 33.1C943 33.4 942.9 33.6 942.8 33.9C942.7 34.2 942.6 34.4 942.5 34.7C942.4 35 942.2 35.3 942.1 35.7C941.8 36.5 941.5 37.2 941.2 38C940.9 38.9 940.5 39.8 940.2 40.7C940 41.3 939.7 41.9 939.5 42.5C939.2 43.2 939 44 938.7 44.7C938.4 45.4 938.2 46.2 938 46.9C937.4 48.9 936.8 50.8 936.3 52.7C936.2 53.2 936 53.7 935.9 54.2C935.7 55.1 935.5 56 935.3 56.8C935.2 57.2 935.1 57.7 935 58.1C934.6 60 934.2 61.9 933.9 63.6C933.8 64.2 933.7 64.9 933.6 65.5C933.2 67.8 932.9 70 932.6 72.2C932.5 72.6 932.5 73 932.4 73.4C932.4 73.8 932.3 74.2 932.3 74.6C932.3 75 932.2 75.4 932.2 75.8C932.1 77 932 78.1 931.9 79.1C931.8 80.2 931.7 81.2 931.7 82.2C931.7 82.6 931.6 83 931.6 83.3C931.6 83.6 931.6 83.9 931.6 84.2C931.6 84.8 931.6 85.3 931.5 85.8C931.5 86.3 931.5 86.8 931.5 87.2C931.5 89.6 931.5 91.5 931.5 92.8C931.5 93.1 931.5 93.3 931.5 93.5C931.5 93.9 931.5 94.2 931.5 94.4V94.5V94.6C931.8 99.1 935.6 102.5 940.1 102.5C940.3 102.5 940.5 102.5 940.7 102.5C945.4 102.2 949 98 948.6 93.3C948.6 93 946.8 65.5 959.9 37.5C964.2 28.2 969.6 20 976 12.8C976.2 12.6 976.5 12.4 976.7 12.1C976.8 12 976.9 11.8 977 11.7C980.7 7.6 984.8 3.9 989.2 0.5H1020.3C1024.1 0.5 1027.8 0.6 1031.6 0.8C1055.3 1.9 1078.1 6.3 1099.5 13.7C1104.4 15.4 1109.3 17.3 1114.1 19.3C1115.7 19.9 1117.2 20.6 1118.8 21.3C1120.8 22.2 1122.8 23.1 1124.7 24C1139.7 31.1 1153.9 39.8 1167.1 49.7C1167.2 49.8 1167.4 49.9 1167.5 50C1169.6 51.6 1171.7 53.2 1173.8 54.9C1174.3 55.3 1174.8 55.7 1175.3 56.1C1179.4 59.4 1183.3 62.9 1187.1 66.5C1188.9 68.1 1190.6 69.8 1192.3 71.5C1189.8 74.4 1188.4 76.6 1188.2 77.1C1185.8 81.2 1187.2 86.5 1191.2 88.9C1195.3 91.3 1200.5 89.9 1202.9 85.9C1203 85.7 1203.4 85.1 1204.1 84.2C1205.6 85.9 1207.1 87.7 1208.5 89.4C1213 94.9 1217.3 100.6 1221.4 106.5C1237.3 129.7 1249.3 155.7 1256.5 183.7C1258.2 190.3 1259.6 197 1260.7 203.8C1261.6 209.3 1262.4 214.9 1262.9 220.6C1263.1 222.5 1263.3 224.3 1263.4 226.2C1257.1 229.2 1253.1 231.6 1252.5 232C1248.5 234.5 1247.3 239.8 1249.8 243.8C1252.3 247.8 1257.6 249.1 1261.6 246.5C1261.7 246.5 1262.5 245.9 1264.1 245.1V252Z" fill="#F499AA"/>
<path d="M835.7 192.602C835.7 193.502 835.7 194.302 835.7 195.202C836.3 194.202 836.8 193.102 837.4 192.102C836.9 192.302 836.3 192.402 835.7 192.602Z" fill="#DC7288"/>
<path opacity="0.42" d="M755.6 476.201C757 480.501 758.5 484.701 760.1 488.601H557.5C523 422.001 528.6 394.501 530.5 388.801C530.8 388.001 530.9 387.701 530.9 387.701C530.9 387.701 531.3 388.001 532 388.701C532.9 389.501 534.3 390.701 536.2 392.401C556.4 409.301 632 465.401 711.4 430.901C720.5 426.901 729.7 421.801 738.8 415.201C740.1 414.301 741.3 413.401 742.6 412.401C743.2 412.001 743.8 411.501 744.3 411.101C744.3 411.101 744.4 412.601 744.6 415.201C745 420.001 745.8 428.701 747.3 439.001C747.3 439.301 747.4 439.601 747.4 439.901C748.7 448.101 750.4 457.401 752.7 466.501C753.7 469.801 754.6 473.001 755.6 476.201Z" fill="#EB8299"/>
<path opacity="0.27" d="M755.6 476.201C756.5 480.501 757.5 484.701 758.8 488.601H569.1C567 485.901 565 483.101 563.1 480.101C552.5 463.701 544.8 443.201 540.1 418.801C540.1 418.801 637.2 501.101 723.7 455.901C730.9 452.101 738.1 447.501 745.1 441.801C745.9 441.101 746.7 440.501 747.5 439.801C747.9 439.501 748.3 439.101 748.6 438.801C749.7 437.801 750.9 436.801 752 435.801C752 436.801 752 437.801 752 438.801C752 448.501 752.7 457.701 753.9 466.301C754.4 469.801 754.9 473.101 755.6 476.201Z" fill="#EB8299"/>
<path d="M783.2 0.900781C778.3 6.50078 774.4 12.3008 771.4 17.7008C764.6 29.8008 761.1 41.4008 759.3 49.4008C751.2 47.3008 739 45.2008 724.5 46.2008C700.9 47.9008 666.8 58.5008 637.7 99.3008C613.2 133.701 605.3 164.301 614.3 190.201C616.4 196.301 619.4 201.801 622.7 206.601C608.2 209.401 586.8 216.201 566.9 232.501C562 236.501 557.1 241.201 552.6 246.501C535.3 266.401 524.3 292.101 519.7 323.201C516.7 343.201 516.4 365.501 518.7 390.101C519.3 396.101 520 402.301 520.9 408.601C525.5 440.801 534.4 467.601 547.5 488.701H568.4C553.1 468.501 542.8 440.901 537.9 406.201C537.2 401.501 536.7 396.901 536.2 392.401C536.1 391.001 535.9 389.601 535.8 388.301C533.5 364.201 533.9 342.501 537.1 323.301C541.4 296.701 550.8 274.901 565.4 258.101C570.4 252.301 575.7 247.401 581.2 243.301C604.1 226.201 628.7 222.801 637.1 222.101C652.4 234.601 668.7 239.601 669.8 239.901C670.6 240.101 671.4 240.201 672.2 240.201C675.9 240.201 679.3 237.801 680.4 234.101C681.7 229.601 679.1 224.801 674.6 223.401C674.3 223.301 640.1 212.801 630.4 184.601C623.4 164.201 630.5 138.901 651.6 109.301C699.3 42.4008 760.1 67.4008 762.6 68.5008L773.5 73.2008L774.6 61.3008C774.8 59.2008 778.5 22.8008 808.2 0.800781H783.2V0.900781ZM945.1 0.900781C950.4 3.60078 954.7 6.20078 957.9 8.30078C956.4 10.2008 955 12.1008 953.7 14.1008C953.1 15.1008 952.4 16.0008 951.8 17.0008C951.2 18.0008 950.6 18.9008 950 19.9008C947.7 23.8008 945.7 27.6008 944 31.3008C943.7 32.0008 943.4 32.7008 943.1 33.4008C943 33.7008 942.9 33.9008 942.8 34.2008C942.7 34.5008 942.6 34.7008 942.5 35.0008C942.4 35.3008 942.2 35.6008 942.1 36.0008C941.8 36.8008 941.5 37.5008 941.2 38.3008C940.9 39.2008 940.5 40.1008 940.2 41.0008C940 41.6008 939.8 42.2008 939.5 42.8008C939.2 43.5008 939 44.3008 938.7 45.0008C938.4 45.7008 938.2 46.5008 938 47.2008C937.4 49.2008 936.8 51.1008 936.3 53.0008C936.2 53.5008 936 54.0008 935.9 54.5008C935.7 55.4008 935.5 56.3008 935.3 57.1008C935.2 57.5008 935.1 58.0008 935 58.4008C934.6 60.3008 934.2 62.2008 933.9 64.0008C933.8 64.7008 933.7 65.3008 933.6 65.9008C933.2 68.2008 932.9 70.4008 932.6 72.6008C932.5 73.0008 932.5 73.4008 932.4 73.8008C932.3 74.2008 932.3 74.6008 932.3 75.0008C932.3 75.4008 932.2 75.8008 932.2 76.2008C932.1 77.4008 932 78.5008 931.9 79.5008C931.8 80.6008 931.7 81.6008 931.7 82.6008C931.7 83.0008 931.7 83.4008 931.6 83.7008C931.6 84.0008 931.6 84.3008 931.6 84.6008C931.6 85.1008 931.6 85.7008 931.5 86.2008C931.5 86.7008 931.5 87.2008 931.5 87.6008C931.5 90.0008 931.5 91.9008 931.5 93.2008C931.5 93.5008 931.5 93.7008 931.5 93.9008C931.5 94.3008 931.5 94.6008 931.6 94.8008V94.9008V95.0008C931.9 99.5008 935.7 102.901 940.1 102.901C940.3 102.901 940.5 102.901 940.7 102.901C945.4 102.601 949 98.4008 948.6 93.7008C948.6 93.4008 946.8 65.9008 959.9 37.9008C964.2 28.6008 969.6 20.4008 976 13.2008C976.2 13.0008 976.4 12.8008 976.7 12.5008C976.8 12.4008 976.9 12.2008 977 12.1008C980.7 8.00078 984.8 4.30078 989.2 0.900781H945.1ZM1061.3 458.201C1061.3 457.901 1061.3 457.601 1061.3 457.301C1061.6 449.601 1062.2 441.801 1062.9 434.201C1063.2 430.401 1063.6 426.601 1063.8 423.001C1064.1 418.301 1060.6 414.201 1055.9 413.801C1051.1 413.501 1047.1 417.001 1046.7 421.701C1046.4 425.301 1046.1 429.001 1045.8 432.701C1045.4 437.501 1045 442.401 1044.6 447.301C1044.6 447.301 1044.6 447.301 1044.6 447.401C1044.5 449.501 1044.3 451.501 1044.3 453.601C1044.3 454.301 1044.2 455.001 1044.2 455.701C1044.1 457.101 1044.1 458.501 1044.1 459.801C1044.1 460.301 1044.1 460.901 1044.1 461.501C1044 470.401 1044.5 479.101 1046.2 487.401C1052 486.801 1057.7 486.001 1063.3 485.001C1063.1 484.001 1062.9 483.101 1062.7 482.101C1062.6 481.201 1062.4 480.301 1062.3 479.401C1061.6 474.401 1061.3 469.201 1061.3 463.801C1061.3 462.801 1061.3 461.901 1061.3 460.901C1061.3 459.901 1061.3 459.001 1061.3 458.201ZM1195.6 75.2008C1194.5 74.1008 1193.4 72.9008 1192.3 71.8008C1189.8 74.7008 1188.4 76.9008 1188.1 77.4008C1185.7 81.5008 1187.1 86.8008 1191.2 89.2008C1195.3 91.6008 1200.5 90.3008 1202.9 86.2008C1203 86.0008 1203.4 85.4008 1204.1 84.5008C1201.4 81.3008 1198.5 78.3008 1195.6 75.2008ZM1263.9 233.201C1263.8 232.001 1263.8 230.801 1263.7 229.701C1263.6 228.601 1263.6 227.601 1263.5 226.601C1257.2 229.601 1253.2 232.001 1252.6 232.401C1248.6 234.901 1247.4 240.201 1249.9 244.201C1252.4 248.201 1257.7 249.501 1261.7 246.901C1261.8 246.901 1262.6 246.301 1264.2 245.501V244.901C1264.2 240.901 1264.1 237.001 1263.9 233.201Z" fill="#DC7288"/>
<path d="M1244.2 341.701C1243.5 343.201 1242.9 344.801 1242.2 346.301C1239.7 351.701 1237.1 357.001 1234.2 362.201C1230.9 361.101 1228.5 358.001 1228.4 354.301C1228.4 354.301 1228.4 353.701 1228.3 352.801C1228.3 352.601 1228.3 352.401 1228.3 352.201C1228.2 350.401 1227.8 347.501 1227.2 343.701C1227.2 343.401 1227.1 343.201 1227.1 342.901C1227 342.201 1226.8 341.501 1226.7 340.801C1226.6 340.301 1226.5 339.901 1226.4 339.401C1226.3 339.101 1226.3 338.801 1226.2 338.501C1226.1 338.201 1226.1 337.901 1226 337.501C1225.9 337.201 1225.9 336.801 1225.8 336.501C1225.7 336.201 1225.6 335.801 1225.6 335.501C1225.4 334.601 1225.2 333.701 1224.9 332.801C1224.9 332.701 1224.8 332.501 1224.8 332.401C1224.7 332.001 1224.6 331.701 1224.5 331.301C1224.4 330.801 1224.2 330.301 1224.1 329.701C1223.9 328.901 1223.6 328.101 1223.4 327.301C1223.1 326.501 1222.9 325.601 1222.6 324.801C1222.6 324.701 1222.5 324.601 1222.5 324.501C1222.4 324.101 1222.2 323.701 1222.1 323.301C1221.7 322.101 1221.3 320.901 1220.8 319.601C1220.6 319.101 1220.4 318.701 1220.3 318.201C1220 317.501 1219.8 316.901 1219.5 316.201C1219.2 315.501 1219 314.901 1218.7 314.201C1218.1 312.901 1217.5 311.501 1216.9 310.101C1216.7 309.601 1216.4 309.101 1216.2 308.601C1216.1 308.301 1215.9 308.001 1215.8 307.701C1215.5 307.101 1215.2 306.501 1214.9 305.901C1214.6 305.201 1214.2 304.601 1213.9 303.901C1213.8 303.801 1213.8 303.601 1213.7 303.501C1213.4 302.901 1213 302.301 1212.7 301.701C1212.5 301.301 1212.2 300.801 1212 300.401C1211.5 299.601 1211 298.701 1210.5 297.901C1210.1 297.301 1209.7 296.601 1209.3 295.901C1198 277.901 1182.8 263.601 1163.9 253.101C1163.2 252.801 1162.5 252.501 1161.9 252.001C1140.6 240.601 1114.7 233.901 1084.4 232.001C1084.2 232.101 1083.9 232.101 1083.6 232.201C1046.1 244.401 1044.3 273.901 1044.2 275.201C1044.1 279.801 1040.2 283.501 1035.6 283.501C1035.5 283.501 1035.4 283.501 1035.3 283.501C1030.6 283.401 1026.8 279.401 1027 274.601C1027 273.201 1028.1 248.301 1051.6 229.701C1040.9 226.601 1027.4 221.201 1010.7 211.901C997.4 204.501 985.5 202.501 975.2 205.801C959.6 210.801 952 226.701 951.9 226.901C949.9 231.201 944.8 233.001 940.5 231.001C936.2 229.001 934.3 224.001 936.3 219.701C936.7 218.801 946.9 197.001 969.7 189.501C984.8 184.601 1001.4 187.001 1019.1 196.901C1057.7 218.401 1075.5 216.301 1079.1 215.501C1079.3 215.401 1079.5 215.401 1079.7 215.301L1081.6 214.201L1083.5 214.701C1118.8 216.801 1146.3 224.901 1167.6 235.901C1177.3 233.201 1183.8 228.201 1187.2 220.801C1196.2 201.201 1182.8 168.201 1176.9 157.101C1174.7 152.901 1176.3 147.701 1180.4 145.501C1184.6 143.301 1189.8 144.801 1192 149.001C1193 150.901 1217.1 196.701 1202.7 228.001C1200.6 232.501 1197.9 236.501 1194.6 239.901C1193.8 240.701 1193.1 241.401 1192.3 242.101C1190.3 243.901 1188.1 245.501 1185.7 246.901C1203.4 259.401 1215.6 273.801 1223.8 287.001C1223.9 287.201 1224 287.301 1224.1 287.501C1237 308.601 1242.2 329.201 1244.2 341.701Z" fill="#DC7288"/>
<path d="M1130.8 187.901C1132.2 188.801 1133.8 189.201 1135.4 189.201C1138.2 189.201 1141 187.801 1142.6 185.201C1145.1 181.201 1144 175.901 1140 173.401C1118.1 159.501 1124.6 130.101 1125 128.801C1126.1 124.201 1123.3 119.601 1118.7 118.501C1114.1 117.401 1109.5 120.201 1108.3 124.801C1107.9 126.601 1098.5 167.401 1130.8 187.901Z" fill="#DC7288"/>
<g opacity="0.42">
<g opacity="0.42">
<path d="M1234.1 362.201C1222.9 382.501 1209 401.001 1192.7 417.201C1187.2 422.701 1181.5 427.901 1175.5 432.801C1169 438.201 1162.2 443.201 1155.2 447.901C1154.7 448.201 1154.3 448.501 1153.8 448.801C1152.6 449.601 1151.4 450.401 1150.2 451.101C1145 454.401 1139.6 457.501 1134.1 460.401C1133 461.001 1131.8 461.601 1130.7 462.201C1120.7 467.301 1110.3 471.701 1099.6 475.401C1087.8 479.501 1075.7 482.601 1063.2 484.801C1063 483.801 1062.8 482.901 1062.6 481.901C1062.5 481.001 1062.3 480.101 1062.2 479.201C1061.5 474.201 1061.2 469.001 1061.2 463.601C1061.2 462.601 1061.2 461.701 1061.2 460.701C1061.2 459.801 1061.2 459.001 1061.3 458.101C1061.3 457.801 1061.3 457.501 1061.3 457.201C1061.6 449.501 1062.2 441.701 1062.9 434.101C1063.2 430.301 1063.6 426.501 1063.8 422.901C1064.1 418.201 1060.6 414.101 1055.9 413.701C1051.1 413.401 1047.1 416.901 1046.7 421.601C1046.4 425.201 1046.1 428.901 1045.8 432.601C1045.4 437.401 1045 442.301 1044.6 447.201C1044.6 447.201 1044.6 447.201 1044.6 447.301C1044.5 449.401 1044.3 451.401 1044.3 453.501C1044.3 454.201 1044.2 454.901 1044.2 455.601C1044.1 457.001 1044.1 458.401 1044.1 459.701C1044.1 460.201 1044.1 460.801 1044.1 461.401C1044 470.301 1044.5 479.001 1046.2 487.301C1044 487.501 1041.7 487.801 1039.5 487.901C1033.2 488.401 1026.8 488.601 1020.4 488.601H769.9C766.3 481.601 763 473.901 760.4 465.601C757.8 457.401 755.9 448.501 754.9 439.001C754.1 431.401 754 423.401 754.7 415.001C754.8 413.601 754.9 412.301 755.1 410.901C756.4 411.201 757.7 411.501 759 411.901C763.8 413.101 768.6 414.101 773.5 415.101C778.7 416.101 784 417.101 789.3 417.901C800.2 419.601 811.2 420.801 822.3 421.701C839.2 423.001 856.3 423.201 873.5 422.501C965.2 418.801 1060.5 388.101 1147.3 338.001C1164.4 328.101 1181.1 317.501 1197.4 306.201C1201.6 303.301 1205.8 300.301 1209.9 297.301C1210.8 298.701 1211.6 300.201 1212.4 301.601C1215.5 307.301 1218.1 312.801 1220.1 318.101C1220.3 318.601 1220.5 319.001 1220.6 319.501C1221.1 320.701 1221.5 322.001 1221.9 323.201C1222 323.601 1222.2 324.001 1222.3 324.401C1222.3 324.501 1222.4 324.601 1222.4 324.701C1222.9 326.401 1223.4 328.001 1223.9 329.601C1224.1 330.101 1224.2 330.701 1224.3 331.201C1224.4 331.601 1224.5 331.901 1224.6 332.301C1224.6 332.401 1224.7 332.601 1224.7 332.701C1224.9 333.601 1225.2 334.501 1225.4 335.401C1225.5 335.701 1225.6 336.101 1225.6 336.401C1225.7 336.701 1225.8 337.101 1225.8 337.401C1225.9 337.701 1225.9 338.001 1226 338.401C1226.1 338.701 1226.1 339.001 1226.2 339.301C1226.3 339.801 1226.4 340.301 1226.5 340.701C1226.6 341.401 1226.8 342.101 1226.9 342.801C1227 343.101 1227 343.401 1227 343.601C1227.6 347.401 1227.9 350.301 1228.1 352.101C1228.1 352.301 1228.1 352.501 1228.1 352.701C1228.2 353.601 1228.2 354.101 1228.2 354.201C1228.4 358.001 1230.8 361.101 1234.1 362.201Z" fill="#EB8299"/>
</g>
<g opacity="0.42">
<path d="M1250.7 264.5C1255.2 260.4 1259.7 256.3 1264.1 252C1263.2 283.8 1256.2 314.1 1244.2 341.7C1242.2 329.2 1237.1 308.6 1223.9 287.5C1223.8 287.3 1223.7 287.2 1223.6 287C1232.8 279.9 1241.8 272.4 1250.7 264.5Z" fill="#EB8299"/>
</g>
</g>
<path opacity="0.27" d="M1099.6 475.501C1087.8 479.601 1075.7 482.701 1063.2 484.901C1063 483.901 1062.8 483.001 1062.6 482.001C1062.5 481.101 1062.3 480.201 1062.2 479.301C1061.5 474.301 1061.2 469.101 1061.2 463.701C1061.2 462.701 1061.2 461.801 1061.2 460.801C1061.2 459.901 1061.2 459.101 1061.3 458.201C1061.3 457.901 1061.3 457.601 1061.3 457.301C1070.9 463.401 1084 470.601 1099.6 475.501Z" fill="#EB8299"/>
<path opacity="0.27" d="M808.6 488.699H772.2C770.5 483.899 769.1 478.699 768 473.299C767.4 470.299 766.8 467.199 766.4 463.999C766 461.499 765.7 458.899 765.5 456.199C767.2 457.999 769.1 459.899 771 461.799C780.3 470.799 792.7 480.499 808.6 488.699Z" fill="#EB8299"/>
<path opacity="0.27" d="M1046.1 487.299C1043.9 487.499 1041.6 487.799 1039.4 487.899C1033.1 488.399 1026.7 488.599 1020.3 488.599H1001.1C1037.7 473.199 1043.7 453.999 1044.7 447.299C1044.7 447.299 1044.7 447.299 1044.7 447.199C1044.6 449.299 1044.4 451.299 1044.3 453.399C1044.3 454.099 1044.2 454.799 1044.2 455.499C1044.1 456.899 1044.1 458.299 1044.1 459.599C1044.1 460.099 1044.1 460.699 1044.1 461.299C1044 470.299 1044.5 479.099 1046.1 487.299Z" fill="#EB8299"/>
<path opacity="0.42" d="M957.9 8.30039C956.4 10.2004 955 12.1004 953.7 14.1004C953 15.1004 952.4 16.0004 951.8 17.0004C951.2 18.0004 950.6 18.9004 950 19.9004C947.7 23.8004 945.7 27.6004 944 31.3004C943.7 32.0004 943.4 32.7004 943.1 33.4004C943 33.7004 942.9 33.9004 942.8 34.2004C942.7 34.5004 942.6 34.7004 942.5 35.0004C942.4 35.3004 942.2 35.6004 942.1 36.0004C941.8 36.8004 941.5 37.5004 941.2 38.3004C940.9 39.2004 940.5 40.1004 940.2 41.0004C940 41.6004 939.8 42.2004 939.5 42.8004C939.2 43.5004 939 44.3004 938.7 45.0004C938.4 45.7004 938.2 46.5004 938 47.2004C937.4 49.2004 936.8 51.1004 936.3 53.0004C936.2 53.5004 936 54.0004 935.9 54.5004C935.7 55.4004 935.5 56.3004 935.3 57.1004C935.2 57.5004 935.1 58.0004 935 58.4004C934.6 60.3004 934.2 62.2004 933.9 64.0004C933.8 64.7004 933.7 65.3004 933.6 65.9004C933.2 68.2004 932.9 70.4004 932.6 72.6004C932.5 73.0004 932.5 73.4004 932.4 73.8004C932.3 74.2004 932.3 74.6004 932.3 75.0004C932.3 75.4004 932.2 75.8004 932.2 76.2004C932.1 77.4004 932 78.5004 931.9 79.5004C931.8 80.6004 931.7 81.6004 931.7 82.6004C931.7 83.0004 931.7 83.4004 931.6 83.7004C931.6 84.0004 931.6 84.3004 931.6 84.6004C931.6 85.1004 931.6 85.7004 931.5 86.2004C931.5 86.7004 931.5 87.2004 931.5 87.6004C931.5 90.0004 931.5 91.9004 931.5 93.2004C931.5 93.5004 931.5 93.7004 931.5 93.9004C931.5 94.3004 931.5 94.6004 931.6 94.8004C925.4 32.0004 890.3 9.00039 859.8 0.900391H945.1C950.4 3.60039 954.7 6.20039 957.9 8.30039Z" fill="#EB8299"/>
<path d="M765.5 301.101C763.4 301.101 761.3 300.301 759.6 298.601C705.2 243.201 651.9 281.601 649.7 283.301C646.1 286.001 640.9 285.201 638.2 281.601C635.5 278.001 636.2 272.901 639.8 270.101C640.5 269.601 656.8 257.501 681.1 253.601C703.7 250.001 737.6 252.801 771.2 287.101C774.4 290.301 774.3 295.501 771.1 298.701C769.6 300.401 767.6 301.101 765.5 301.101Z" fill="#DC7288"/>
<path d="M935.8 256.201C933.9 260.301 929 262.001 924.9 260.101C924.6 260.001 902.1 249.501 873.8 246.001C837.1 241.401 808.3 249.901 788.4 271.301C774 286.801 762.1 330.801 759.4 378.301C758.8 389.901 758.7 401.101 759.1 412.001C759.1 413.101 759.2 414.101 759.2 415.201C759.6 423.801 760.3 432.201 761.4 440.201C762.5 448.701 764 456.701 765.8 464.301C766.5 467.401 767.3 470.401 768.1 473.301C769.6 478.701 771.4 483.801 773.3 488.701H755.9C753.5 481.701 751.3 474.301 749.6 466.501C747.8 458.701 746.4 450.501 745.3 441.901C745.2 441.001 745.1 440.101 744.9 439.101C744 431.401 743.3 423.301 742.9 415.101C742.9 414.201 742.8 413.301 742.8 412.301C742.4 401.001 742.5 389.301 743.1 377.401C744.8 346.701 749.9 318.301 757.4 296.201C759.4 290.301 761.6 284.801 763.9 279.901C767.7 271.701 772 264.901 776.5 260.101C800 234.901 834.6 224.401 876.4 229.801C907.2 233.801 931 244.801 932 245.301C936 247.201 937.7 252.101 935.8 256.201Z" fill="#DC7288"/>
<path d="M1172.2 356.6C1187.77 356.6 1200.4 341.109 1200.4 322C1200.4 302.891 1187.77 287.4 1172.2 287.4C1156.63 287.4 1144 302.891 1144 322C1144 341.109 1156.63 356.6 1172.2 356.6Z" fill="white"/>
<path d="M1113.4 307.5C1121.85 307.5 1128.7 300.65 1128.7 292.2C1128.7 283.75 1121.85 276.9 1113.4 276.9C1104.95 276.9 1098.1 283.75 1098.1 292.2C1098.1 300.65 1104.95 307.5 1113.4 307.5Z" fill="white"/>
<path d="M665.8 189.8C675.465 189.8 683.3 179.234 683.3 166.2C683.3 153.166 675.465 142.6 665.8 142.6C656.135 142.6 648.3 153.166 648.3 166.2C648.3 179.234 656.135 189.8 665.8 189.8Z" fill="white"/>
<path d="M932.6 488.699H859.4C859.5 488.099 859.6 487.499 859.8 486.899C864 470.699 884.2 461.899 904.8 467.299C917.8 470.699 928 478.999 932.6 488.699Z" fill="white"/>
<path d="M906.7 300.7C906.7 300.7 868.5 259.8 818 293.9" stroke="#221F1F" stroke-width="8.0192" stroke-miterlimit="10" stroke-linecap="round"/>
<path d="M592.3 300.7C592.3 300.7 630.5 259.8 681 293.9" stroke="#221F1F" stroke-width="8.0192" stroke-miterlimit="10" stroke-linecap="round"/>
<path d="M848.6 428.899C877.208 428.899 900.4 405.707 900.4 377.099C900.4 348.49 877.208 325.299 848.6 325.299C819.991 325.299 796.8 348.49 796.8 377.099C796.8 405.707 819.991 428.899 848.6 428.899Z" fill="#F6F6E1"/>
<path d="M649.8 428.899C678.408 428.899 701.6 405.707 701.6 377.099C701.6 348.49 678.408 325.299 649.8 325.299C621.192 325.299 598 348.49 598 377.099C598 405.707 621.192 428.899 649.8 428.899Z" fill="#F6F6E1"/>
<path d="M900.4 377.1C899.8 370.3 898.1 363.7 895.2 357.8C892.4 351.8 888.4 346.4 883.7 342C874.2 333.1 861.4 327.9 848.5 328C835.6 327.9 822.8 333 813.3 342C808.6 346.5 804.6 351.8 801.8 357.8C798.9 363.8 797.2 370.3 796.6 377.1C796 370.3 797 363.3 799.3 356.8C801.7 350.3 805.4 344.1 810.3 339C815.1 333.8 821.1 329.8 827.6 326.9C834.1 324.1 841.3 322.7 848.4 322.6C855.5 322.7 862.7 324.1 869.2 326.9C875.7 329.8 881.7 333.8 886.5 339C891.4 344.1 895.1 350.2 897.5 356.8C900 363.3 901 370.3 900.4 377.1Z" fill="#221F1F"/>
<path d="M796.8 377.1C797.4 383.9 799.1 390.5 802 396.4C804.8 402.4 808.8 407.8 813.5 412.2C823 421.1 835.8 426.3 848.7 426.2C861.6 426.3 874.4 421.2 883.9 412.2C888.6 407.7 892.6 402.4 895.4 396.4C898.3 390.4 900 383.9 900.6 377.1C901.2 383.9 900.2 390.9 897.9 397.4C895.5 403.9 891.8 410.1 886.9 415.2C882.1 420.4 876.1 424.4 869.6 427.3C863.1 430.1 855.9 431.5 848.8 431.6C841.7 431.5 834.5 430.1 828 427.3C821.5 424.4 815.5 420.4 810.7 415.2C805.8 410.1 802.1 404 799.7 397.4C797.2 390.8 796.2 383.8 796.8 377.1Z" fill="#221F1F"/>
<path d="M829.6 411.1C848.377 411.1 863.6 395.877 863.6 377.1C863.6 358.322 848.377 343.1 829.6 343.1C810.822 343.1 795.6 358.322 795.6 377.1C795.6 395.877 810.822 411.1 829.6 411.1Z" fill="#070B0C"/>
<path d="M701.6 377.1C701 370.3 699.3 363.7 696.4 357.8C693.6 351.8 689.6 346.4 684.9 342C675.4 333.1 662.6 327.9 649.7 328C636.8 327.9 624 333 614.5 342C609.8 346.5 605.8 351.8 603 357.8C600.1 363.8 598.4 370.3 597.8 377.1C597.2 370.3 598.2 363.3 600.5 356.8C602.9 350.3 606.6 344.1 611.5 339C616.3 333.8 622.3 329.8 628.8 326.9C635.3 324.1 642.5 322.7 649.6 322.6C656.7 322.7 663.9 324.1 670.4 326.9C676.9 329.8 682.9 333.8 687.7 339C692.6 344.1 696.3 350.2 698.7 356.8C701.2 363.3 702.2 370.3 701.6 377.1Z" fill="#221F1F"/>
<path d="M598 377.1C598.6 383.9 600.3 390.5 603.2 396.4C606 402.4 610 407.8 614.7 412.2C624.2 421.1 637 426.3 649.9 426.2C662.8 426.3 675.6 421.2 685.1 412.2C689.8 407.7 693.8 402.4 696.6 396.4C699.5 390.4 701.2 383.9 701.8 377.1C702.4 383.9 701.4 390.9 699.1 397.4C696.7 403.9 693 410.1 688.1 415.2C683.3 420.4 677.3 424.4 670.8 427.3C664.3 430.1 657.1 431.5 650 431.6C642.9 431.5 635.7 430.1 629.2 427.3C622.7 424.4 616.7 420.4 611.9 415.2C607 410.1 603.3 404 600.9 397.4C598.4 390.8 597.4 383.8 598 377.1Z" fill="#221F1F"/>
<path d="M632 411.1C650.778 411.1 666 395.877 666 377.1C666 358.322 650.778 343.1 632 343.1C613.222 343.1 598 358.322 598 377.1C598 395.877 613.222 411.1 632 411.1Z" fill="#070B0C"/>
<path d="M710 415.199C710 415.199 707.4 466.599 751.4 466.599C795.4 466.599 789.1 415.199 789.1 415.199H710Z" fill="#221F1F"/>
<path d="M781.8 451.599C776.3 459.999 767.1 466.499 751.4 466.499C735 466.499 725 459.299 719.1 450.299C725.7 443.399 737 438.799 749.9 438.799C763.5 438.899 775.4 443.999 781.8 451.599Z" fill="#F06B6C"/>
<path d="M585.6 0.899609H620.6H634C634.1 1.29961 634.2 1.79961 634.3 2.19961C634.4 2.49961 634.5 2.79961 634.5 3.09961C634.7 3.89961 634.9 4.79961 635.1 5.59961C635.3 6.49961 635.5 7.39961 635.7 8.39961C635.8 8.99961 635.9 9.59961 636 10.0996C636.2 10.8996 636.3 11.7996 636.4 12.5996C636.4 12.7996 636.5 13.0996 636.5 13.2996C636.6 13.7996 636.7 14.1996 636.7 14.6996C636.7 14.7996 636.7 14.7996 636.7 14.7996C636.8 15.4996 636.9 16.2996 637 16.9996C637.3 18.9996 637.4 21.0996 637.6 23.0996C637.7 23.9996 637.7 24.8996 637.8 25.7996C637.9 26.7996 637.9 27.7996 637.9 28.7996C637.9 29.7996 637.9 30.7996 637.9 31.7996C637.9 33.6996 637.9 35.5996 637.8 37.4996C634.7 104.2 578.1 155.7 511.4 152.7C510.4 152.6 509.4 152.6 508.5 152.5C508.4 152.5 508.2 152.5 508.1 152.5C507.2 152.4 506.3 152.4 505.4 152.3C504.5 152.2 503.5 152.1 502.6 152C501.7 151.9 500.8 151.8 499.9 151.6C499.5 151.5 499.1 151.5 498.7 151.4C498 151.3 497.2 151.2 496.5 151C495.5 150.8 494.6 150.7 493.6 150.5C492.9 150.4 492.2 150.2 491.6 150.1C491.2 150 490.8 149.9 490.4 149.8H490.3C489.6 149.7 489 149.5 488.3 149.3C488 149.2 487.6 149.1 487.3 149C486.6 148.8 485.9 148.6 485.2 148.4C484.3 148.1 483.3 147.9 482.4 147.6C481.5 147.3 480.6 147 479.7 146.7C479.7 146.7 479.7 146.7 479.6 146.7C478.7 146.4 477.8 146.1 476.9 145.8C476.8 145.8 476.8 145.7 476.7 145.7C475.9 145.4 475.1 145.1 474.4 144.8C474.2 144.7 474 144.6 473.8 144.6C473.1 144.3 472.3 144 471.6 143.7C470.9 143.4 470.2 143.1 469.6 142.8C469.6 142.8 469.5 142.8 469.5 142.7C469.1 142.5 468.7 142.4 468.3 142.2C466.2 141.3 464.1 140.3 462 139.2C461.4 138.9 460.8 138.6 460.2 138.3C459.8 138.1 459.5 137.9 459.1 137.7C458.6 137.4 458.2 137.2 457.7 136.9C457.7 136.9 457.6 136.9 457.6 136.8C457.2 136.6 456.9 136.4 456.5 136.2C455.7 135.7 454.9 135.3 454.1 134.8C453.2 134.3 452.3 133.7 451.5 133.1L451.4 133C449.7 131.9 448 130.7 446.4 129.6L446.3 129.5C445.6 129 444.8 128.4 444.1 127.9C443.9 127.7 443.6 127.6 443.4 127.4C442.7 126.9 442.1 126.4 441.4 125.9C440.6 125.2 439.8 124.6 439 123.9C438.2 123.3 437.5 122.6 436.7 121.9C436.6 121.9 436.6 121.8 436.6 121.8C435.9 121.2 435.2 120.5 434.5 119.8L434.4 119.7C433.6 119 432.9 118.3 432.2 117.6C431.5 116.9 430.7 116.1 430 115.4C429.3 114.7 428.6 113.9 427.9 113.1C426.5 111.6 425.2 110 423.9 108.5C408.6 89.8996 398.8 66.6996 396.8 41.4996C396.4 36.3996 396.3 31.2996 396.5 26.0996C396.9 17.2996 398.2 8.79961 400.4 0.599609H448.8H490.4H533.7H574.7H585.6V0.899609Z" fill="#D6424A"/>
<path d="M638.1 31.9C638.1 33.8 638.1 35.7 638 37.6C634.9 104.3 578.3 155.8 511.6 152.8C510.6 152.7 509.6 152.7 508.7 152.6C508.6 152.6 508.4 152.6 508.3 152.6C507.4 152.5 506.5 152.5 505.6 152.4C504.7 152.3 503.7 152.2 502.8 152.1C501.9 152 501 151.9 500.1 151.7C499.7 151.6 499.3 151.6 498.9 151.5C498.2 151.4 497.4 151.3 496.7 151.1C495.7 150.9 494.8 150.8 493.8 150.6C493.1 150.5 492.4 150.3 491.8 150.2C491.4 150.1 491 150 490.6 149.9H490.5C489.8 149.8 489.2 149.6 488.5 149.4C488.2 149.3 487.8 149.2 487.5 149.1C486.8 148.9 486.1 148.7 485.4 148.5C484.5 148.2 483.5 148 482.6 147.7C481.7 147.4 480.8 147.1 479.9 146.9C479.9 146.9 479.9 146.9 479.8 146.9C478.9 146.6 478 146.3 477.1 146C477 146 477 145.9 476.9 145.9C476.1 145.6 475.3 145.3 474.6 145C474.4 144.9 474.2 144.8 474 144.8C473.3 144.5 472.5 144.2 471.8 143.9C471.1 143.6 470.4 143.3 469.7 143C469.7 143 469.6 143 469.6 142.9C469.2 142.7 468.8 142.6 468.4 142.4C466.3 141.5 464.2 140.5 462.1 139.4C461.5 139.1 460.9 138.8 460.3 138.4C459.9 138.2 459.6 138 459.2 137.8C458.7 137.5 458.3 137.3 457.8 137C457.8 137 457.7 137 457.7 136.9C457.3 136.7 457 136.5 456.6 136.3C455.8 135.8 455 135.4 454.2 134.9C453.3 134.4 452.4 133.8 451.6 133.2L451.5 133.1C449.8 132 448.1 130.8 446.5 129.7L446.4 129.6C445.7 129.1 444.9 128.5 444.2 128C444 127.8 443.7 127.7 443.5 127.5C442.8 127 442.2 126.5 441.5 125.9C440.7 125.3 439.9 124.6 439.1 123.9C438.3 123.3 437.6 122.6 436.8 121.9C436.7 121.9 436.7 121.8 436.6 121.8C435.9 121.2 435.2 120.5 434.5 119.8L434.4 119.7C433.6 119 432.9 118.3 432.2 117.6C431.5 116.9 430.7 116.1 430 115.4C429.3 114.7 428.6 113.9 427.9 113.1C426.5 111.6 425.2 110 423.9 108.4C434.7 117.2 447 124.3 460.4 129C471.3 132.8 482.9 135.2 495 135.7C561.7 138.8 618.3 87.2 621.4 20.5C621.7 13.7 621.5 7 620.7 0.4H634C633.9 0.1 633.8 -0.2 633.8 -0.5C633.9 -0.2 634 0.1 634 0.4C634.1 0.8 634.2 1.3 634.3 1.7C634.4 2 634.5 2.3 634.5 2.6C634.7 3.4 634.9 4.3 635.1 5.1C635.3 6 635.5 6.9 635.7 7.9C635.8 8.5 635.9 9.1 636 9.6C636.2 10.4 636.3 11.3 636.4 12.1C636.4 12.3 636.5 12.6 636.5 12.8C636.6 13.3 636.7 13.7 636.7 14.2C636.7 14.3 636.7 14.3 636.7 14.3C636.8 15 636.9 15.8 637 16.5C637.3 18.5 637.5 20.6 637.6 22.7C637.7 23.6 637.7 24.5 637.8 25.4C637.9 26.4 637.9 27.4 637.9 28.4C638.1 29.9 638.1 30.9 638.1 31.9Z" fill="#C63040"/>
<path d="M585.6 0.899609C585.8 1.39961 586.1 1.89961 586.3 2.49961C586.6 3.09961 586.8 3.79961 587.1 4.49961C587.4 5.19961 587.6 5.79961 587.9 6.49961C588.1 7.09961 588.4 7.79961 588.6 8.39961C588.6 8.49961 588.7 8.69961 588.7 8.79961C589.1 9.99961 589.5 11.2996 589.8 12.5996C589.8 12.6996 589.8 12.7996 589.9 12.7996C590 13.3996 590.2 13.8996 590.3 14.4996C590.3 14.6996 590.4 14.8996 590.4 15.0996C590.5 15.4996 590.6 15.8996 590.7 16.2996C590.8 16.5996 590.8 16.8996 590.9 17.1996C590.9 17.3996 591 17.6996 591 17.8996C591.1 18.2996 591.2 18.7996 591.2 19.1996C591.2 19.2996 591.2 19.2996 591.2 19.3996C591.3 19.8996 591.4 20.4996 591.5 21.0996C591.6 21.7996 591.7 22.4996 591.8 23.2996C591.9 23.8996 591.9 24.5996 592 25.1996C592 25.3996 592 25.5996 592.1 25.6996C592.1 26.1996 592.2 26.7996 592.2 27.3996C592.2 27.4996 592.2 27.6996 592.2 27.7996C592.2 28.2996 592.2 28.7996 592.3 29.2996C592.3 29.4996 592.3 29.6996 592.3 29.8996C592.3 30.5996 592.3 31.2996 592.3 31.9996C592.3 33.1996 592.3 34.3996 592.2 35.4996C592 39.2996 591.6 43.0996 590.8 46.7996C583.8 81.8996 552.6 107.8 516 107.2C515.2 107.2 514.5 107.2 513.7 107.1C513 107.1 512.4 107 511.7 107C511.4 107 511 106.9 510.6 106.9C510.2 106.9 509.8 106.8 509.4 106.8C509.2 106.8 509 106.8 508.8 106.7C508.1 106.6 507.5 106.5 506.8 106.4C505.3 106.2 503.8 105.9 502.3 105.6C501.6 105.5 500.9 105.3 500.2 105.1H500.1C499.4 104.9 498.7 104.8 498.1 104.6C498 104.6 497.9 104.6 497.8 104.5C497.1 104.3 496.4 104.1 495.8 103.9C495.2 103.7 494.5 103.5 493.9 103.3C493.7 103.2 493.6 103.2 493.4 103.1C492.8 102.9 492.2 102.7 491.7 102.5C491.6 102.5 491.6 102.5 491.5 102.4C490.8 102.1 490.2 101.9 489.5 101.6C488.1 101.1 486.8 100.5 485.5 99.7996C484.8 99.4996 484.2 99.1996 483.5 98.7996C482.9 98.4996 482.2 98.0996 481.6 97.7996C481 97.4996 480.3 97.0996 479.7 96.6996C479.5 96.5996 479.2 96.3996 479 96.2996C478.6 96.0996 478.2 95.7996 477.8 95.5996C477.2 95.1996 476.6 94.8996 476.1 94.4996C476 94.3996 475.9 94.3996 475.8 94.2996C475.3 93.9996 474.7 93.5996 474.2 93.1996C473.6 92.7996 473 92.3996 472.4 91.8996C471.2 90.9996 470.1 90.0996 469 89.1996C468.4 88.6996 467.9 88.2996 467.4 87.7996C466.9 87.2996 466.3 86.7996 465.8 86.2996C465.3 85.7996 464.8 85.2996 464.3 84.7996C463.8 84.2996 463.3 83.7996 462.8 83.1996C462.3 82.6996 461.8 82.1996 461.3 81.5996C460.8 80.9996 460.3 80.4996 459.9 79.9996C459 78.8996 458.1 77.7996 457.2 76.5996C457.1 76.4996 457 76.3996 456.9 76.1996C456.5 75.6996 456.2 75.2996 455.9 74.7996C455.5 74.2996 455.2 73.7996 454.9 73.3996C454.8 73.2996 454.8 73.1996 454.7 73.0996C446.2 60.2996 441.5 44.6996 442.3 28.1996C442.5 23.0996 443.3 18.0996 444.5 13.2996C445.6 8.89961 447.1 4.69961 448.9 0.599609H490.5H533.8H574.8H585.6V0.899609Z" fill="#EA6468"/>
<path d="M592.3 31.9C592.3 33.1 592.3 34.2 592.2 35.4C592 39.2 591.6 43 590.8 46.7C583.8 81.8 552.6 107.7 516 107.1C515.2 107.1 514.4 107.1 513.7 107C513 107 512.4 106.9 511.7 106.9C511.4 106.9 511 106.8 510.6 106.8C510.2 106.8 509.8 106.7 509.4 106.7C509.2 106.7 509 106.7 508.8 106.6C508.1 106.5 507.5 106.4 506.8 106.3C505.3 106.1 503.8 105.8 502.3 105.5C501.6 105.4 500.9 105.2 500.1 105C500.1 105 500.1 105 500 105C499.3 104.9 498.7 104.7 498 104.5C497.9 104.5 497.8 104.5 497.7 104.4C497 104.2 496.3 104 495.7 103.8C495 103.6 494.4 103.4 493.8 103.2C493.6 103.1 493.5 103.1 493.3 103C492.7 102.8 492.1 102.6 491.6 102.4C491.5 102.4 491.5 102.4 491.4 102.3C490.7 102 490.1 101.8 489.4 101.5C488 101 486.7 100.4 485.4 99.7C484.7 99.4 484.1 99.1 483.4 98.7C482.8 98.4 482.1 98 481.5 97.7C480.9 97.4 480.2 97 479.6 96.6C479.4 96.5 479.1 96.3 478.9 96.2C478.5 96 478.1 95.7 477.7 95.5C477.1 95.1 476.5 94.8 476 94.4C475.9 94.3 475.8 94.3 475.7 94.2C475.2 93.9 474.6 93.5 474.1 93.1C473.5 92.7 472.9 92.3 472.3 91.8C471.1 90.9 470 90 468.9 89.1C468.3 88.6 467.8 88.2 467.3 87.7C466.8 87.2 466.2 86.7 465.7 86.2C465.2 85.7 464.7 85.2 464.1 84.7C463.5 84.2 463.1 83.7 462.6 83.1C462.1 82.6 461.6 82.1 461.1 81.5C460.6 81 460.1 80.4 459.7 79.9C458.8 78.8 457.9 77.7 457 76.5C456.2 75.4 455.4 74.4 454.7 73.3C454.6 73.2 454.6 73.1 454.5 73C463.6 80.1 474.4 85.2 486.2 87.5C489.8 88.2 493.5 88.7 497.3 88.8C500 88.9 502.7 88.9 505.3 88.8C542.7 86.6 573.3 56.7 575.7 18.6C575.7 18.2 575.8 17.7 575.8 17.3C576.1 11.5 575.7 5.9 574.7 0.5H585.6C585.8 1 586.1 1.5 586.3 2.1C586.6 2.8 586.8 3.4 587.1 4.1C587.4 4.8 587.6 5.4 587.9 6.1C588.1 6.7 588.4 7.4 588.6 8C588.6 8.1 588.7 8.3 588.7 8.4C589.1 9.6 589.5 10.9 589.8 12.2C589.8 12.3 589.8 12.4 589.9 12.4C590 13 590.2 13.5 590.3 14.1C590.3 14.3 590.4 14.5 590.4 14.7C590.5 15.1 590.6 15.5 590.7 15.9C590.8 16.2 590.8 16.5 590.9 16.8C590.9 17 591 17.3 591 17.5C591.1 17.9 591.2 18.4 591.2 18.8C591.2 18.9 591.2 18.9 591.2 19C591.3 19.6 591.4 20.1 591.5 20.7C591.6 21.4 591.7 22.1 591.8 22.9C591.9 23.6 591.9 24.2 592 24.8C592 25 592 25.2 592.1 25.3C592.1 25.9 592.2 26.4 592.2 27C592.2 27.1 592.2 27.3 592.2 27.4C592.2 27.9 592.3 28.4 592.3 28.9C592.3 29.1 592.3 29.3 592.3 29.5C592.3 30.6 592.3 31.3 592.3 31.9Z" fill="#E45D65"/>
<path d="M517.2 60.2008C532.774 60.2008 545.4 47.5752 545.4 32.0008C545.4 16.4264 532.774 3.80078 517.2 3.80078C501.626 3.80078 489 16.4264 489 32.0008C489 47.5752 501.626 60.2008 517.2 60.2008Z" fill="#8A91A8"/>
<path d="M512.1 253.6C524.582 253.6 534.7 248.765 534.7 242.8C534.7 236.835 524.582 232 512.1 232C499.618 232 489.5 236.835 489.5 242.8C489.5 248.765 499.618 253.6 512.1 253.6Z" fill="white"/>
<path d="M1004.29 61.3138C1009.87 42.8659 1006.86 25.6275 997.555 22.8105C988.252 19.9936 976.182 32.665 970.596 51.1128C965.01 69.5607 968.024 86.7992 977.327 89.6161C986.63 92.433 998.7 79.7616 1004.29 61.3138Z" fill="white"/>
<path d="M364.716 157.686C370.467 135.785 368.505 116.29 360.332 114.144C352.159 111.998 340.871 128.012 335.12 149.913C329.368 171.814 331.331 191.308 339.504 193.455C347.677 195.601 358.964 179.587 364.716 157.686Z" fill="white"/>
</g>
<defs>
<clipPath id="clip0_5470_19062">
<rect width="1264.2" height="487.8" fill="white"/>
</clipPath>
</defs>
</svg>
