<svg width="616" height="942" viewBox="0 0 616 942" fill="none" xmlns="http://www.w3.org/2000/svg">
<path d="M253.344 941.61C365.911 941.61 457.164 919.492 457.164 892.21C457.164 864.927 365.911 842.81 253.344 842.81C140.778 842.81 49.5244 864.927 49.5244 892.21C49.5244 919.492 140.778 941.61 253.344 941.61Z" fill="#A7A9AC"/>
<path d="M615.554 254.92C615.554 253.72 615.554 252.5 615.444 251.21C615.444 250.93 615.444 250.65 615.384 250.33C615.314 249.33 615.224 248.33 615.104 247.28L615.024 246.65C614.884 245.59 614.724 244.52 614.534 243.45L614.464 243.06C612.717 233.633 608.933 224.7 603.377 216.886C597.821 209.072 590.626 202.566 582.294 197.82C584.085 195.063 585.667 192.175 587.024 189.18C587.344 188.47 587.664 187.76 587.954 187.03C588.544 185.61 589.084 184.16 589.554 182.74C590.024 181.32 590.394 180.12 590.714 178.95C591.254 176.95 591.714 174.85 592.044 172.79C594.554 157.745 591.761 142.295 584.144 129.08C583.554 128.08 582.914 127.02 582.144 125.89L581.674 125.2C581.094 124.34 580.524 123.54 579.924 122.72L579.514 122.18C578.874 121.34 578.204 120.5 577.514 119.68L577.234 119.35C571.064 112.088 563.386 106.256 554.734 102.262C546.082 98.2674 536.664 96.2057 527.134 96.22H526.754C526.844 94.55 526.864 92.9 526.834 91.28C526.764 88.126 526.466 84.9812 525.944 81.87C525.764 80.87 525.564 79.78 525.344 78.76C523.395 69.8057 519.6 61.3564 514.2 53.9523C508.8 46.5482 501.915 40.3521 493.984 35.76C492.984 35.17 491.884 34.59 490.694 33.99L489.934 33.62C488.994 33.16 488.104 32.75 487.194 32.36L486.554 32.08C485.554 31.67 484.554 31.27 483.484 30.88L483.174 30.77C476.114 28.2454 468.672 26.9566 461.174 26.96C449.479 26.9537 437.993 30.06 427.894 35.96C427.784 35.73 427.664 35.51 427.554 35.29C427.184 34.58 426.804 33.89 426.414 33.21C425.414 31.39 424.234 29.6 423.034 27.89C416.964 19.2834 408.917 12.2588 399.569 7.40584C390.222 2.55287 379.846 0.0131943 369.314 0C368.124 0 366.894 -3.20375e-06 365.564 0.109997L364.724 0.169998C363.724 0.249998 362.724 0.339997 361.724 0.449997L361.054 0.539997C359.984 0.669997 358.914 0.829999 357.784 1.03L357.484 1.09C348.048 2.84911 339.11 6.64739 331.294 12.2195C323.479 17.7915 316.974 25.003 312.234 33.35C309.487 31.5657 306.613 29.9848 303.634 28.62C302.924 28.3 302.204 27.99 301.484 27.69C300.064 27.1 298.614 26.56 297.184 26.09C288.369 23.1414 279.027 22.099 269.778 23.0316C260.529 23.9643 251.584 26.8508 243.534 31.5C242.534 32.09 241.464 32.74 240.324 33.5C240.114 33.64 239.904 33.78 239.704 33.93H239.644C238.774 34.52 237.974 35.08 237.194 35.66L236.634 36.09C235.774 36.74 234.934 37.41 234.074 38.09L233.804 38.32C226.515 44.5476 220.672 52.291 216.684 61.0098C212.696 69.7285 210.659 79.2126 210.714 88.8C209.534 88.74 208.344 88.71 207.184 88.71H205.744C202.583 88.7798 199.432 89.0806 196.314 89.61C186.747 91.2036 177.654 94.9005 169.689 100.434C161.723 105.968 155.086 113.2 150.254 121.61C149.664 122.61 149.084 123.71 148.474 124.93C148.354 125.16 148.244 125.39 148.124 125.65C147.674 126.57 147.244 127.49 146.854 128.39L146.574 129.05C146.164 130.05 145.784 131.05 145.424 131.99L145.264 132.42C142.066 141.462 140.879 151.092 141.786 160.64C142.692 170.187 145.671 179.422 150.514 187.7L150.304 187.81C149.444 188.25 148.584 188.71 147.744 189.19C145.382 190.537 143.105 192.026 140.924 193.65C139.244 194.9 137.614 196.25 136.064 197.65C129.279 203.819 123.858 211.338 120.147 219.724C116.436 228.111 114.517 237.179 114.514 246.35C114.514 247.55 114.514 248.78 114.614 250.05C114.614 250.33 114.614 250.61 114.684 250.92C114.754 251.92 114.844 252.92 114.954 253.92L115.044 254.65C115.174 255.71 115.334 256.78 115.524 257.85L115.594 258.23C118.604 274.511 127.642 289.059 140.904 298.97C135.794 298.73 130.504 298.6 125.084 298.6C109.263 298.585 93.4562 299.55 77.7543 301.49C74.6238 301.867 71.6887 303.211 69.3584 305.335C67.0281 307.459 65.4186 310.258 64.7543 313.34C64.1112 316.334 64.4302 319.454 65.6657 322.255C66.9013 325.057 68.9902 327.396 71.6344 328.94C72.9444 329.94 81.4143 336.94 87.4043 355.02C88.4043 357.96 89.4043 361.83 90.6843 366.32C91.7843 370.32 93.0344 374.83 94.4544 379.55C94.4544 379.55 94.4544 379.55 94.4544 379.61C94.9544 381.28 95.4544 382.97 96.0244 384.66L96.0744 384.82V384.91C96.6144 386.6 97.1844 388.29 97.7744 390.01L97.8844 390.34L98.7344 392.74C98.7533 392.802 98.7767 392.862 98.8044 392.92C99.1144 393.77 99.4243 394.63 99.7243 395.41L99.8944 395.87C100.184 396.63 100.484 397.38 100.804 398.2L100.924 398.49C101.264 399.35 101.604 400.21 101.984 401.11L102.104 401.38C102.414 402.13 102.734 402.87 103.104 403.67L103.304 404.14C103.684 404.99 104.064 405.83 104.494 406.75L104.554 406.87C104.914 407.64 105.284 408.41 105.654 409.17L105.944 409.74C106.784 411.44 107.654 413.107 108.554 414.74L108.864 415.3C109.284 416.03 109.694 416.76 110.104 417.44L110.294 417.77C110.774 418.56 111.294 419.35 111.754 420.13L112.124 420.7C112.554 421.36 112.994 422.02 113.434 422.7L113.754 423.18C114.294 423.95 114.834 424.71 115.374 425.44L115.774 425.97C116.234 426.59 116.704 427.2 117.174 427.79L117.624 428.35C118.224 429.09 118.834 429.81 119.434 430.5L119.804 430.91C120.334 431.51 120.874 432.1 121.464 432.73L121.954 433.24C122.624 433.94 123.314 434.62 124.064 435.34L124.254 435.51C124.884 436.11 125.534 436.69 126.254 437.29L126.844 437.79C127.514 438.36 128.194 438.92 128.844 439.42L129.174 439.67C129.904 440.23 130.684 440.81 131.574 441.42L132.244 441.87C132.944 442.35 133.654 442.8 134.354 443.23L134.844 443.53C135.674 444.03 136.574 444.53 137.494 445.02L138.174 445.37C138.924 445.75 139.674 446.11 140.504 446.49L141.104 446.75C142.044 447.17 143.014 447.56 144.034 447.94L144.614 448.15C145.424 448.44 146.254 448.71 147.104 448.97L147.884 449.2C148.974 449.52 149.984 449.78 150.994 450.01L151.544 450.12C152.404 450.31 153.314 450.48 154.254 450.64L155.124 450.77C156.294 450.95 157.304 451.07 158.294 451.16H158.424C160.764 451.37 163.074 451.48 165.304 451.48C177.884 451.48 187.474 448.22 194.724 443.68C213.914 470.9 238.304 514.01 242.614 561.88C236.464 589.65 231.514 618.64 227.844 648.47C221.704 640.443 215.201 632.803 208.334 625.55C212.087 617.594 213.971 608.886 213.844 600.09V599.98C213.743 596.092 213.207 592.228 212.244 588.46L212.194 588.26C212.034 587.65 211.854 587.02 211.664 586.4V586.22C211.474 585.61 211.274 584.99 211.064 584.38L211.004 584.2C210.073 581.547 208.947 578.967 207.634 576.48C203.473 568.896 197.983 562.121 191.424 556.48C176.064 542.88 152.574 535.99 121.604 535.99C69.8044 535.99 12.9144 554.93 10.5144 555.73C7.52913 556.689 4.91502 558.551 3.03257 561.058C1.15012 563.566 0.0920707 566.596 0.00434574 569.73C-0.0703342 572.793 0.819123 575.802 2.54709 578.332C4.27505 580.862 6.75419 582.785 9.63435 583.83C11.1944 584.57 23.3543 590.83 34.9443 611.72C36.7443 614.96 38.8544 619.24 41.2944 624.19C43.4544 628.57 45.8944 633.53 48.5844 638.68C49.5144 640.47 50.4843 642.29 51.4743 644.11L51.6144 644.37C52.6144 646.24 53.6643 648.08 54.6943 649.87L54.8843 650.21L56.4143 652.82L56.5043 652.97C57.0443 653.87 57.5843 654.78 58.1543 655.71L58.3843 656.08C58.8843 656.89 59.3843 657.7 59.9143 658.53L60.1444 658.88C60.7144 659.78 61.2943 660.68 61.8544 661.52L62.1243 661.93C62.6443 662.71 63.1243 663.49 63.7143 664.29L64.0643 664.79C64.6743 665.68 65.2944 666.56 65.8844 667.38L66.0844 667.65C66.6544 668.44 67.2444 669.23 67.8544 670.05L68.2744 670.61C69.5844 672.33 70.9344 674.03 72.2744 675.61L72.7944 676.23C73.4244 676.96 74.0443 677.69 74.6944 678.42L74.9444 678.7C75.6544 679.5 76.3743 680.28 77.1243 681.07L77.6644 681.64C78.2844 682.29 78.9143 682.93 79.5343 683.56L80.0144 684.03C80.7744 684.78 81.5544 685.52 82.3344 686.24L82.8844 686.74C83.5444 687.34 84.2144 687.93 84.8844 688.5L85.4943 689.03C86.3243 689.73 87.1643 690.41 87.9943 691.03L88.4844 691.41C89.2144 691.97 89.9543 692.52 90.7443 693.09L91.4144 693.57C92.4144 694.26 93.2843 694.87 94.0943 695.39L94.4743 695.63C95.3143 696.16 96.1544 696.63 97.0043 697.17L97.7944 697.62C98.6644 698.11 99.5344 698.62 100.414 699.03L100.794 699.23C101.734 699.7 102.724 700.17 103.864 700.67L104.664 701.02C105.544 701.4 106.434 701.75 107.334 702.09L107.924 702.32C108.924 702.7 110.054 703.06 111.184 703.41L112.004 703.65C112.904 703.91 113.824 704.15 114.734 704.38L115.544 704.57C116.684 704.83 117.844 705.06 118.984 705.26L119.744 705.37C120.694 705.52 121.674 705.65 122.664 705.76L123.594 705.85C124.864 705.97 126.044 706.05 127.224 706.09H127.824H129.274H130.944H131.944C133.274 706.04 134.474 705.96 135.604 705.85H135.714C155.814 703.85 168.714 696.1 176.994 687.35C196.694 712.69 211.094 741.82 219.934 774.23C219.634 844.2 226.014 891.35 226.284 893.35C226.768 896.948 228.541 900.249 231.274 902.64C234.007 905.03 237.514 906.349 241.144 906.35H274.984C277.117 906.349 279.224 905.894 281.167 905.014C283.109 904.135 284.842 902.851 286.249 901.249C287.656 899.647 288.706 897.763 289.327 895.723C289.949 893.683 290.129 891.535 289.854 889.42C289.694 888.13 284.214 842.14 284.134 780.12C295.364 764.21 329.324 719.69 372.134 697.12C377.134 709.83 387.134 720.8 401.394 729.06C402.164 729.5 402.934 729.92 403.674 730.31L404.354 730.66C404.954 730.97 405.564 731.27 406.164 731.55L406.744 731.82C407.524 732.18 408.304 732.513 409.084 732.82L409.524 733L411.524 733.76L412.194 734C412.884 734.24 413.564 734.46 414.194 734.65L414.614 734.79C415.424 735.03 416.224 735.26 417.004 735.46L417.634 735.62C418.264 735.78 418.894 735.92 419.524 736.06L420.174 736.2C420.974 736.36 421.774 736.52 422.484 736.63L422.804 736.69C423.534 736.8 424.264 736.91 425.014 737L425.654 737.08L427.654 737.27H428.104C428.904 737.33 429.704 737.38 430.494 737.41H430.974H432.974H433.634C434.304 737.41 434.974 737.41 435.684 737.41H435.994L438.354 737.27L438.954 737.22C439.564 737.22 440.164 737.11 440.774 737.04L441.374 736.97C442.144 736.89 442.904 736.78 443.674 736.67H443.924C444.604 736.57 445.284 736.45 445.984 736.33L446.594 736.22C447.214 736.1 447.834 735.98 448.524 735.83L448.894 735.75L451.134 735.24L451.634 735.11L453.394 734.65L454.014 734.48L456.014 733.9L456.214 733.84C456.934 733.62 457.654 733.39 458.384 733.14L458.984 732.94L460.584 732.38L461.174 732.17L463.254 731.38L463.634 731.23C464.204 731.01 464.774 730.77 465.304 730.55L465.984 730.27L467.624 729.57L468.054 729.38L470.054 728.48L470.424 728.3L472.054 727.52L472.724 727.2L474.484 726.31L474.864 726.12L476.574 725.22L477.254 724.86L479.254 723.79L481.074 722.79L482.934 721.7L483.644 721.27L485.504 720.15L487.174 719.15L487.914 718.69L489.734 717.51L490.974 716.7L493.024 715.32L493.794 714.8L495.584 713.56L497.004 712.56L498.614 711.4L500.154 710.29L502.154 708.84L503.924 707.5C505.124 706.6 506.304 705.69 507.464 704.79L508.744 703.79C513.314 700.21 517.594 696.69 521.364 693.6C525.624 690.09 529.364 687.06 532.284 684.86C551.364 670.69 565.164 669.92 566.854 669.86C567.264 669.86 567.664 669.86 568.064 669.86C570.921 669.845 573.711 668.994 576.09 667.413C578.47 665.831 580.334 663.588 581.454 660.96C582.679 658.065 582.973 654.86 582.293 651.79C581.614 648.72 579.996 645.938 577.664 643.83C562.561 630.166 546.555 617.534 529.754 606.02C491.914 580.13 459.314 567.02 432.884 567.02C425.996 566.976 419.14 567.964 412.544 569.95C404.245 572.395 396.454 576.314 389.544 581.52C389.516 581.546 389.486 581.569 389.454 581.59C387.264 583.296 385.202 585.161 383.284 587.17L383.154 587.31C382.714 587.78 382.284 588.25 381.894 588.69L381.724 588.89C381.294 589.38 380.884 589.89 380.424 590.44C377.969 593.492 375.869 596.813 374.164 600.34L374.104 600.46C369.986 609.367 368.138 619.155 368.724 628.95C341.784 638.42 315.124 654.9 289.284 678.1C292.683 643.525 298.147 609.183 305.644 575.26C310.384 568.4 329.834 545.07 387.724 520.76C393.724 531.16 405.054 541.65 426.054 545.76H426.174C427.174 545.95 428.174 546.12 429.364 546.28L430.224 546.39C431.164 546.5 432.094 546.59 432.944 546.65L433.524 546.7C434.524 546.76 435.584 546.79 436.804 546.8H437.554C438.434 546.8 439.304 546.8 440.194 546.7H440.834C441.834 546.62 442.894 546.52 443.894 546.39L444.644 546.28C445.474 546.16 446.304 546.02 447.144 545.86L447.874 545.72C448.881 545.52 449.881 545.29 450.874 545.03L451.394 544.89C452.214 544.67 453.024 544.43 453.824 544.17L454.594 543.92C455.594 543.59 456.514 543.26 457.374 542.92L457.764 542.77C458.564 542.45 459.354 542.12 460.134 541.77L460.634 541.35C461.394 541 462.154 540.63 462.954 540.23L463.274 540.06C464.134 539.62 464.984 539.16 465.804 538.69L466.484 538.29C467.184 537.88 467.874 537.46 468.584 537.02L469.004 536.76C469.794 536.25 470.584 535.76 471.344 535.19L471.934 534.78C472.554 534.33 473.184 533.88 473.804 533.41L474.324 533.03C475.054 532.47 475.784 531.9 476.514 531.31L476.954 530.94C477.554 530.45 478.154 529.94 478.764 529.42L479.274 528.97C479.974 528.36 480.654 527.74 481.274 527.15L481.574 526.88C482.184 526.31 482.784 525.73 483.404 525.12L483.874 524.67C485.164 523.39 486.464 522.04 487.734 520.67L488.164 520.19C488.744 519.56 489.314 518.93 489.884 518.28L490.024 518.12C490.634 517.42 491.244 516.71 491.794 516.05L492.194 515.58L493.724 513.73L493.954 513.44L495.634 511.35L495.874 511.03C496.374 510.39 496.874 509.74 497.314 509.15L497.604 508.77L499.254 506.55L499.344 506.42C499.854 505.73 500.344 505.04 500.794 504.42L501.044 504.07C502.044 502.6 503.114 501.12 504.044 499.7L504.214 499.46C505.214 497.967 506.194 496.487 507.154 495.02V494.93C509.834 490.82 512.284 486.85 514.444 483.34C516.894 479.34 519.014 475.95 520.764 473.4C531.594 457.66 541.674 453.4 543.194 452.77C546.17 452.033 548.837 450.374 550.812 448.03C552.788 445.686 553.972 442.778 554.194 439.72C554.413 436.575 553.645 433.439 551.997 430.751C550.35 428.062 547.906 425.954 545.004 424.72C544.484 424.48 534.364 419.99 519.284 414.72C519.284 413.95 519.284 413.18 519.284 412.41C520.454 412.47 521.614 412.5 522.774 412.5C524.314 412.5 525.874 412.45 527.404 412.34C528.514 412.26 529.674 412.14 530.944 411.98C541.034 410.763 550.699 407.203 559.169 401.587C567.638 395.97 574.677 388.451 579.724 379.63C580.324 378.63 580.904 377.53 581.514 376.32C581.624 376.09 581.734 375.87 581.834 375.65V375.57C582.294 374.62 582.704 373.73 583.074 372.89L583.364 372.2C583.774 371.2 584.174 370.2 584.534 369.2L584.674 368.8C587.875 359.759 589.063 350.128 588.156 340.58C587.249 331.032 584.269 321.797 579.424 313.52C582.514 311.955 585.473 310.146 588.274 308.11C596.69 302.02 603.548 294.028 608.289 284.784C613.03 275.541 615.519 265.308 615.554 254.92Z" fill="#231F20"/>
<path d="M295.874 692.13C287.119 700.23 278.775 708.764 270.874 717.7C271.044 714.81 271.224 711.91 271.414 708.98C274.445 661.992 281.111 615.309 291.354 569.35C295.874 561.61 325.684 518.69 446.434 484.58L437.154 451.71C375.634 469.12 335.004 489.06 308.324 506.97C322.824 461.71 342.564 416.35 369.324 374.54L340.564 356.12C314.704 396.51 293.324 442.53 276.734 493.35C251.244 424.23 203.354 376.35 200.734 373.71L176.734 398.02C177.484 398.76 250.734 472.02 257.734 562.83C248.345 605.171 241.916 648.115 238.494 691.35C225.67 668.819 209.879 648.11 191.544 629.78C163.304 601.67 138.804 589.21 137.784 588.69L122.404 619.19C122.614 619.3 143.924 630.31 168.404 654.97C200.524 687.35 222.894 726.79 234.964 772.35C234.504 842.08 240.804 888.82 241.144 891.35H274.984C274.904 890.77 268.924 841.55 269.134 775.43C283.414 754.35 355.574 655.14 438.754 670.19L444.834 636.58C396.314 627.8 344.804 647.01 295.874 692.13Z" fill="#4CA84E"/>
<path d="M538.984 438.35C538.984 438.35 439.054 393.76 398.814 423.06C360.954 450.63 396.054 486.06 396.054 486.06C396.054 486.06 450.214 423.35 538.984 438.35Z" fill="#66BE64"/>
<path d="M396.054 486.1C396.054 486.1 388.164 523.1 428.714 531.02C469.264 538.94 495.234 484.17 508.514 464.86C523.724 442.75 538.984 438.35 538.984 438.35C450.214 423.35 396.054 486.1 396.054 486.1Z" fill="#4CA84E"/>
<g style="mix-blend-mode:multiply">
<path d="M494.634 486.8C402.104 507.35 386.704 435.63 386.634 435.35C370.354 460.12 396.034 486.08 396.034 486.08C396.034 486.08 388.144 523.08 428.694 531C458.114 536.79 479.844 509.57 494.634 486.8Z" fill="#4CA84E"/>
</g>
<path d="M79.7844 316.28C79.7844 316.28 188.204 301.43 218.634 340.81C247.264 377.87 203.634 402.11 203.634 402.11C203.634 402.11 169.204 326.75 79.7844 316.28Z" fill="#66BE64"/>
<path d="M203.634 402.11C203.634 402.11 200.874 439.8 159.714 436.11C118.554 432.42 108.974 372.51 101.634 350.25C93.2244 324.77 79.7944 316.25 79.7944 316.25C169.204 326.75 203.634 402.11 203.634 402.11Z" fill="#4CA84E"/>
<g style="mix-blend-mode:multiply">
<path d="M108.814 375.2C191.904 420.81 226.744 356.26 226.864 356.04C235.574 384.35 203.634 402.11 203.634 402.11C203.634 402.11 200.874 439.8 159.714 436.11C129.894 433.41 116.634 401.2 108.814 375.2Z" fill="#4CA84E"/>
</g>
<path d="M567.244 654.81C567.244 654.81 472.824 566.94 416.764 584.25C364.024 600.55 389.634 653.5 389.634 653.5C389.634 653.5 473.954 604.24 567.244 654.81Z" fill="#66BE64"/>
<path d="M389.634 653.501C389.634 653.501 366.724 691.701 408.914 716.061C451.104 740.421 500.974 689.201 523.154 672.741C548.554 653.891 567.254 654.811 567.254 654.811C473.954 604.241 389.634 653.501 389.634 653.501Z" fill="#4CA84E"/>
<g style="mix-blend-mode:multiply">
<path d="M499.294 691.91C388.294 679.5 398.474 593.65 398.504 593.34C370.894 614.75 389.634 653.5 389.634 653.5C389.634 653.5 366.724 691.7 408.914 716.06C439.484 733.71 474.104 711.66 499.294 691.91Z" fill="#4CA84E"/>
</g>
<path d="M15.2544 569.92C15.2544 569.92 137.504 528.79 181.434 567.68C222.774 604.27 177.614 641.96 177.614 641.96C177.614 641.96 121.094 562.35 15.2544 569.92Z" fill="#66BE64"/>
<path d="M177.634 641.96C177.634 641.96 182.754 686.21 134.274 690.96C85.7944 695.71 61.4744 628.54 48.0544 604.4C32.6944 576.75 15.2744 569.88 15.2744 569.88C121.094 562.35 177.634 641.96 177.634 641.96Z" fill="#4CA84E"/>
<g style="mix-blend-mode:multiply">
<path d="M61.8643 631.74C168.134 666.21 194.234 583.74 194.324 583.49C210.634 614.35 177.634 641.96 177.634 641.96C177.634 641.96 182.754 686.21 134.274 690.96C99.1143 694.48 76.6343 660.11 61.8643 631.74Z" fill="#4CA84E"/>
</g>
<path d="M457.887 603.883C459.313 596.869 452.238 589.51 442.085 587.446C431.931 585.382 422.545 589.395 421.119 596.409C419.693 603.423 426.768 610.782 436.921 612.846C447.075 614.91 456.461 610.897 457.887 603.883Z" fill="#F6FAFE"/>
<path d="M429.884 436.35C440.245 436.35 448.644 431.917 448.644 426.45C448.644 420.982 440.245 416.55 429.884 416.55C419.523 416.55 411.124 420.982 411.124 426.45C411.124 431.917 419.523 436.35 429.884 436.35Z" fill="#F6FAFE"/>
<path d="M471.654 614.84C476.128 614.84 479.754 611.213 479.754 606.74C479.754 602.266 476.128 598.64 471.654 598.64C467.181 598.64 463.554 602.266 463.554 606.74C463.554 611.213 467.181 614.84 471.654 614.84Z" fill="#F6FAFE"/>
<path d="M458.344 440.26C462.161 440.26 465.254 437.167 465.254 433.35C465.254 429.534 462.161 426.44 458.344 426.44C454.528 426.44 451.434 429.534 451.434 433.35C451.434 437.167 454.528 440.26 458.344 440.26Z" fill="#F6FAFE"/>
<path d="M394.174 163.35H344.504L318.634 65.7998C318.637 52.3533 323.979 39.458 333.486 29.9489C342.993 20.4398 355.888 15.0951 369.334 15.0898C382.784 15.0898 395.684 20.4322 405.195 29.9419C414.707 39.4515 420.052 52.3498 420.054 65.7998L394.174 163.35Z" fill="#FAF28C"/>
<path d="M369.334 15.0898C365.322 15.0915 361.324 15.5681 357.424 16.5098C368.483 19.1836 378.321 25.4977 385.358 34.4373C392.395 43.3769 396.222 54.4228 396.224 65.7998L370.344 163.35H394.174L420.054 65.7698C420.044 52.325 414.695 39.4344 405.185 29.9312C395.674 20.428 382.779 15.0898 369.334 15.0898Z" fill="#EFCC6B"/>
<path d="M369.334 15.0898C365.322 15.0915 361.324 15.5681 357.424 16.5098C368.483 19.1836 378.321 25.4977 385.358 34.4373C392.395 43.3769 396.222 54.4228 396.224 65.7998L370.344 163.35H394.174L420.054 65.7698C420.044 52.325 414.695 39.4344 405.185 29.9312C395.674 20.428 382.779 15.0898 369.334 15.0898Z" fill="#EFCC6B"/>
<g style="mix-blend-mode:multiply">
<path d="M416.564 78.9603L416.254 77.8203C416.254 77.8203 398.884 135.44 337.094 135.44L344.504 163.35H394.174L416.564 78.9603Z" fill="#EFCC6B"/>
</g>
<path d="M346.634 160.5L303.634 185.35L232.434 113.77C225.71 102.121 223.889 88.2769 227.372 75.2846C230.854 62.2923 239.355 51.2153 251.004 44.4903C262.652 37.7687 276.492 35.948 289.482 39.4284C302.472 42.9089 313.548 51.4056 320.274 63.0503L346.634 160.5Z" fill="#F8A33E"/>
<path d="M251.004 44.4903C247.527 46.4965 244.3 48.9102 241.394 51.6803C252.308 48.4705 263.983 49.0218 274.545 53.2456C285.107 57.4694 293.943 65.1206 299.634 74.9703L326.014 172.41L346.634 160.5L320.274 63.0503C313.548 51.4056 302.472 42.9089 289.482 39.4284C276.492 35.948 262.652 37.7687 251.004 44.4903Z" fill="#EFCC6B"/>
<path d="M251.004 44.4903C247.527 46.4965 244.3 48.9102 241.394 51.6803C252.308 48.4705 263.983 49.0218 274.545 53.2456C285.107 57.4694 293.943 65.1206 299.634 74.9703L326.014 172.41L346.634 160.5L320.274 63.0503C313.548 51.4056 302.472 42.9089 289.482 39.4284C276.492 35.948 262.652 37.7687 251.004 44.4903Z" fill="#F68620"/>
<g style="mix-blend-mode:multiply">
<path d="M323.834 76.1996L322.994 75.3496C322.994 75.3496 336.764 133.95 283.254 164.84L303.634 185.35L346.634 160.52L323.834 76.1996Z" fill="#EFCC6B"/>
</g>
<path d="M304.054 181.76L279.224 224.76L181.774 198.39C170.129 191.661 161.632 180.583 158.152 167.592C154.671 154.601 156.492 140.759 163.214 129.11C169.943 117.464 181.021 108.967 194.012 105.487C207.003 102.007 220.845 103.828 232.494 110.55L304.054 181.76Z" fill="#FAF28C"/>
<path d="M163.214 129.12C161.213 132.588 159.629 136.28 158.494 140.12C166.333 131.874 176.717 126.504 187.976 124.872C199.235 123.239 210.717 125.44 220.574 131.12L292.144 202.32L304.054 181.68L232.494 110.48C226.721 107.155 220.35 104.999 213.744 104.136C207.138 103.273 200.427 103.72 193.994 105.451C187.561 107.182 181.531 110.163 176.25 114.224C170.969 118.285 166.539 123.347 163.214 129.12Z" fill="#EFCC6B"/>
<path d="M163.214 129.12C161.213 132.588 159.629 136.28 158.494 140.12C166.333 131.874 176.717 126.504 187.976 124.872C199.235 123.239 210.717 125.44 220.574 131.12L292.144 202.32L304.054 181.68L232.494 110.48C226.721 107.155 220.35 104.999 213.744 104.136C207.138 103.273 200.427 103.72 193.994 105.451C187.561 107.182 181.531 110.163 176.25 114.224C170.969 118.285 166.539 123.347 163.214 129.12Z" fill="#EFCC6B"/>
<g style="mix-blend-mode:multiply">
<path d="M242.144 120.16L240.994 119.85C240.994 119.85 282.224 163.71 251.324 217.22L279.224 224.77L304.054 181.77L242.144 120.16Z" fill="#EFCC6B"/>
</g>
<path d="M277.794 221.48V271.14L180.224 297.02C166.781 297.02 153.888 291.683 144.378 282.182C134.867 272.681 129.518 259.793 129.504 246.35C129.504 232.898 134.848 219.997 144.36 210.485C153.872 200.974 166.773 195.63 180.224 195.63L277.794 221.48Z" fill="#F8A33E"/>
<path d="M129.504 246.35C129.504 250.363 129.984 254.361 130.934 258.26C133.608 247.202 139.923 237.365 148.863 230.33C157.803 223.295 168.848 219.47 180.224 219.47L277.794 245.35V221.48L180.224 195.59C173.56 195.59 166.962 196.903 160.805 199.454C154.649 202.006 149.056 205.746 144.346 210.46C139.635 215.174 135.9 220.77 133.354 226.928C130.807 233.086 129.499 239.686 129.504 246.35Z" fill="#EFCC6B"/>
<path d="M129.504 246.35C129.504 250.363 129.984 254.361 130.934 258.26C133.608 247.202 139.923 237.365 148.863 230.33C157.803 223.295 168.848 219.47 180.224 219.47L277.794 245.35V221.48L180.224 195.59C173.56 195.59 166.962 196.903 160.805 199.454C154.649 202.006 149.056 205.746 144.346 210.46C139.635 215.174 135.9 220.77 133.354 226.928C130.807 233.086 129.499 239.686 129.504 246.35Z" fill="#F68620"/>
<g style="mix-blend-mode:multiply">
<path d="M193.384 199.09L192.234 199.39C192.234 199.39 249.864 216.76 249.864 278.55L277.794 271.14V221.48L193.384 199.09Z" fill="#EFCC6B"/>
</g>
<path d="M274.914 269L299.744 312L228.184 383.2C216.535 389.922 202.693 391.743 189.702 388.263C176.711 384.782 165.633 376.285 158.904 364.64C155.573 358.871 153.411 352.503 152.542 345.898C151.673 339.294 152.113 332.583 153.837 326.149C155.561 319.714 158.537 313.683 162.592 308.398C166.648 303.114 171.705 298.68 177.474 295.35L274.914 269Z" fill="#FAF28C"/>
<path d="M158.914 364.65C160.92 368.123 163.33 371.345 166.094 374.25C162.884 363.337 163.436 351.661 167.66 341.099C171.883 330.537 179.535 321.701 189.384 316.01L286.834 289.63L274.914 269L177.474 295.35C171.703 298.68 166.645 303.114 162.589 308.4C158.533 313.685 155.558 319.718 153.834 326.154C152.11 332.59 151.672 339.302 152.544 345.908C153.415 352.513 155.58 358.882 158.914 364.65Z" fill="#EFCC6B"/>
<path d="M158.914 364.65C160.92 368.123 163.33 371.345 166.094 374.25C162.884 363.337 163.436 351.661 167.66 341.099C171.883 330.537 179.535 321.701 189.384 316.01L286.834 289.63L274.914 269L177.474 295.35C171.703 298.68 166.645 303.114 162.589 308.4C158.533 313.685 155.558 319.718 153.834 326.154C152.11 332.59 151.672 339.302 152.544 345.908C153.415 352.513 155.58 358.882 158.914 364.65Z" fill="#EFCC6B"/>
<g style="mix-blend-mode:multiply">
<path d="M190.634 291.81L189.794 292.65C189.794 292.65 248.384 278.88 279.274 332.39L299.764 312.01L274.934 269.01L190.634 291.81Z" fill="#EFCC6B"/>
</g>
<path d="M296.184 311.59L339.184 336.42L312.804 433.87C306.078 445.515 295.002 454.011 282.012 457.492C269.022 460.972 255.182 459.151 243.534 452.43C231.885 445.705 223.384 434.628 219.902 421.636C216.419 408.643 218.24 394.8 224.964 383.15L296.184 311.59Z" fill="#F8A33E"/>
<path d="M243.544 452.43C247.013 454.433 250.705 456.021 254.544 457.16C246.297 449.32 240.925 438.935 239.292 427.673C237.66 416.412 239.862 404.929 245.544 395.07L316.744 323.51L296.114 311.59L224.904 383.16C221.578 388.932 219.422 395.302 218.558 401.908C217.695 408.513 218.142 415.224 219.873 421.657C221.604 428.09 224.585 434.118 228.647 439.398C232.708 444.679 237.771 449.107 243.544 452.43Z" fill="#EFCC6B"/>
<path d="M243.544 452.43C247.013 454.433 250.705 456.021 254.544 457.16C246.297 449.32 240.925 438.935 239.292 427.673C237.66 416.412 239.862 404.929 245.544 395.07L316.744 323.51L296.114 311.59L224.904 383.16C221.578 388.932 219.422 395.302 218.558 401.908C217.695 408.513 218.142 415.224 219.873 421.657C221.604 428.09 224.585 434.118 228.647 439.398C232.708 444.679 237.771 449.107 243.544 452.43Z" fill="#F68620"/>
<g style="mix-blend-mode:multiply">
<path d="M234.634 373.5L234.324 374.65C234.324 374.65 278.124 333.43 331.634 364.35L339.194 336.45L296.194 311.62L234.634 373.5Z" fill="#EFCC6B"/>
</g>
<path d="M335.894 337.85H385.554L411.434 435.42C411.436 442.08 410.125 448.675 407.577 454.829C405.029 460.982 401.294 466.574 396.585 471.283C391.876 475.993 386.286 479.73 380.133 482.279C373.979 484.828 367.385 486.14 360.724 486.14C354.064 486.14 347.469 484.828 341.316 482.279C335.163 479.73 329.572 475.993 324.863 471.283C320.154 466.574 316.419 460.982 313.872 454.829C311.324 448.675 310.013 442.08 310.014 435.42L335.894 337.85Z" fill="#FAF28C"/>
<path d="M360.724 486.14C364.737 486.137 368.734 485.661 372.634 484.72C361.575 482.044 351.737 475.728 344.7 466.787C337.663 457.845 333.836 446.798 333.834 435.42L359.714 337.85H335.894L310.014 435.42C310.013 442.08 311.324 448.675 313.872 454.829C316.419 460.982 320.154 466.574 324.863 471.283C329.572 475.993 335.163 479.73 341.316 482.279C347.469 484.828 354.064 486.14 360.724 486.14Z" fill="#EFCC6B"/>
<path d="M360.724 486.14C364.737 486.137 368.734 485.661 372.634 484.72C361.575 482.044 351.737 475.728 344.7 466.787C337.663 457.845 333.836 446.798 333.834 435.42L359.714 337.85H335.894L310.014 435.42C310.013 442.08 311.324 448.675 313.872 454.829C316.419 460.982 320.154 466.574 324.863 471.283C329.572 475.993 335.163 479.73 341.316 482.279C347.469 484.828 354.064 486.14 360.724 486.14Z" fill="#EFCC6B"/>
<g style="mix-blend-mode:multiply">
<path d="M313.504 422.26L313.804 423.41C313.804 423.41 331.174 365.78 392.964 365.78L385.554 337.85H335.894L313.504 422.26Z" fill="#EFCC6B"/>
</g>
<path d="M383.414 340.73L426.414 315.9L497.634 387.46C504.356 399.11 506.177 412.951 502.697 425.943C499.217 438.934 490.72 450.012 479.074 456.74C467.424 463.464 453.581 465.285 440.589 461.803C427.596 458.32 416.519 449.82 409.794 438.17L383.414 340.73Z" fill="#F8A33E"/>
<path d="M479.064 456.74C482.524 454.725 485.736 452.312 488.634 449.55C477.72 452.762 466.042 452.212 455.478 447.988C444.913 443.764 436.076 436.111 430.384 426.26L404.014 328.81L383.374 340.73L409.744 438.17C413.074 443.943 417.509 449.003 422.796 453.062C428.083 457.12 434.118 460.097 440.556 461.821C446.993 463.546 453.708 463.985 460.316 463.113C466.923 462.241 473.294 460.075 479.064 456.74Z" fill="#EFCC6B"/>
<path d="M479.064 456.74C482.524 454.725 485.736 452.312 488.634 449.55C477.72 452.762 466.042 452.212 455.478 447.988C444.913 443.764 436.076 436.111 430.384 426.26L404.014 328.81L383.374 340.73L409.744 438.17C413.074 443.943 417.509 449.003 422.796 453.062C428.083 457.12 434.118 460.097 440.556 461.821C446.993 463.546 453.708 463.985 460.316 463.113C466.923 462.241 473.294 460.075 479.064 456.74Z" fill="#F68620"/>
<g style="mix-blend-mode:multiply">
<path d="M406.234 425.03L407.064 425.87C407.064 425.87 393.294 367.28 446.804 336.35L426.424 315.86L383.424 340.69L406.234 425.03Z" fill="#EFCC6B"/>
</g>
<path d="M426.004 319.47L450.844 276.47L548.284 302.84C554.053 306.169 559.108 310.603 563.163 315.887C567.218 321.171 570.192 327.202 571.915 333.635C573.639 340.069 574.078 346.779 573.208 353.382C572.338 359.985 570.176 366.352 566.844 372.12C560.118 383.764 549.042 392.261 536.052 395.742C523.062 399.222 509.222 397.401 497.574 390.68L426.004 319.47Z" fill="#FAF28C"/>
<path d="M566.844 372.11C568.853 368.645 570.44 364.952 571.574 361.11C563.728 369.349 553.339 374.71 542.079 376.333C530.818 377.956 519.338 375.747 509.484 370.06L437.924 298.86L426.004 319.5L497.574 390.7C509.226 397.419 523.069 399.236 536.059 395.749C549.049 392.263 560.123 383.76 566.844 372.11Z" fill="#EFCC6B"/>
<path d="M566.844 372.11C568.853 368.645 570.44 364.952 571.574 361.11C563.728 369.349 553.339 374.71 542.079 376.333C530.818 377.956 519.338 375.747 509.484 370.06L437.924 298.86L426.004 319.5L497.574 390.7C509.226 397.419 523.069 399.236 536.059 395.749C549.049 392.263 560.123 383.76 566.844 372.11Z" fill="#EFCC6B"/>
<g style="mix-blend-mode:multiply">
<path d="M487.924 381.06L489.064 381.37C489.064 381.37 447.844 337.52 478.734 284.01L450.844 276.46L426.004 319.46L487.924 381.06Z" fill="#EFCC6B"/>
</g>
<path d="M452.264 279.75V230.09L549.844 204.21C563.294 204.21 576.192 209.553 585.702 219.063C595.212 228.573 600.554 241.471 600.554 254.92C600.554 268.369 595.212 281.267 585.702 290.777C576.192 300.287 563.294 305.63 549.844 305.63L452.264 279.75Z" fill="#F8A33E"/>
<path d="M600.554 254.92C600.553 250.908 600.076 246.91 599.134 243.01C596.459 254.066 590.144 263.902 581.204 270.937C572.265 277.973 561.22 281.798 549.844 281.8L452.264 255.92V279.75L549.844 305.63C563.294 305.63 576.192 300.287 585.702 290.777C595.212 281.267 600.554 268.369 600.554 254.92Z" fill="#EFCC6B"/>
<path d="M600.554 254.92C600.553 250.908 600.076 246.91 599.134 243.01C596.459 254.066 590.144 263.902 581.204 270.937C572.265 277.973 561.22 281.798 549.844 281.8L452.264 255.92V279.75L549.844 305.63C563.294 305.63 576.192 300.287 585.702 290.777C595.212 281.267 600.554 268.369 600.554 254.92Z" fill="#F68620"/>
<g style="mix-blend-mode:multiply">
<path d="M536.684 302.14L537.824 301.84C537.824 301.84 480.204 284.47 480.204 222.68L452.264 230.09V279.75L536.684 302.14Z" fill="#EFCC6B"/>
</g>
<path d="M455.144 232.23L430.314 189.23L501.884 118.03C513.532 111.309 527.372 109.488 540.362 112.968C553.352 116.449 564.428 124.946 571.154 136.59C577.877 148.234 579.702 162.07 576.229 175.058C572.757 188.046 564.27 199.125 552.634 205.86L455.144 232.23Z" fill="#FAF28C"/>
<path d="M571.154 136.58C569.146 133.104 566.732 129.878 563.964 126.97C567.175 137.889 566.62 149.57 562.388 160.135C558.157 170.701 550.495 179.536 540.634 185.22L443.234 211.59L455.144 232.23L552.634 205.86C564.273 199.124 572.761 188.044 576.234 175.053C579.707 162.062 577.88 148.224 571.154 136.58Z" fill="#EFCC6B"/>
<path d="M571.154 136.58C569.146 133.104 566.732 129.878 563.964 126.97C567.175 137.889 566.62 149.57 562.388 160.135C558.157 170.701 550.495 179.536 540.634 185.22L443.234 211.59L455.144 232.23L552.634 205.86C564.273 199.124 572.761 188.044 576.234 175.053C579.707 162.062 577.88 148.224 571.154 136.58Z" fill="#EFCC6B"/>
<g style="mix-blend-mode:multiply">
<path d="M539.454 209.41L540.294 208.58C540.294 208.58 481.704 222.35 450.804 168.84L430.314 189.22L455.144 232.22L539.454 209.41Z" fill="#EFCC6B"/>
</g>
<path d="M433.884 189.64L390.884 164.81L417.244 67.3498C423.973 55.7044 435.05 47.2075 448.042 43.7271C461.033 40.2467 474.875 42.0677 486.524 48.7898C498.169 55.5165 506.666 66.5923 510.146 79.5821C513.627 92.5719 511.806 106.412 505.084 118.06L433.884 189.64Z" fill="#F8A33E"/>
<path d="M486.524 48.8003C483.055 46.8003 479.363 45.2129 475.524 44.0703C483.763 51.9171 489.124 62.3053 490.747 73.5661C492.37 84.8268 490.161 96.3063 484.474 106.16L413.274 177.72L433.914 189.64L505.114 118.07C508.443 112.301 510.602 105.934 511.469 99.3301C512.336 92.7267 511.894 86.0172 510.167 79.5847C508.441 73.1522 505.465 67.1228 501.408 61.8408C497.351 56.5588 492.294 52.1276 486.524 48.8003Z" fill="#EFCC6B"/>
<path d="M486.524 48.8003C483.055 46.8003 479.363 45.2129 475.524 44.0703C483.763 51.9171 489.124 62.3053 490.747 73.5661C492.37 84.8268 490.161 96.3063 484.474 106.16L413.274 177.72L433.914 189.64L505.114 118.07C508.443 112.301 510.602 105.934 511.469 99.3301C512.336 92.7267 511.894 86.0172 510.167 79.5847C508.441 73.1522 505.465 67.1228 501.408 61.8408C497.351 56.5588 492.294 52.1276 486.524 48.8003Z" fill="#F68620"/>
<g style="mix-blend-mode:multiply">
<path d="M495.484 127.73L495.794 126.58C495.794 126.58 451.934 167.8 398.424 136.91L390.874 164.81L433.874 189.64L495.484 127.73Z" fill="#EFCC6B"/>
</g>
<path d="M365.024 350.21C420.032 350.21 464.624 305.617 464.624 250.61C464.624 195.602 420.032 151.01 365.024 151.01C310.017 151.01 265.424 195.602 265.424 250.61C265.424 305.617 310.017 350.21 365.024 350.21Z" fill="#C54827"/>
<path d="M365.024 308.91C397.223 308.91 423.324 282.808 423.324 250.61C423.324 218.411 397.223 192.31 365.024 192.31C332.826 192.31 306.724 218.411 306.724 250.61C306.724 282.808 332.826 308.91 365.024 308.91Z" fill="#4A2211"/>
<path d="M423.254 169.8C437.019 188.987 443.519 212.441 441.595 235.977C439.672 259.512 429.449 281.599 412.751 298.297C396.054 314.995 373.967 325.217 350.431 327.141C326.896 329.065 303.442 322.564 284.254 308.8C292.677 320.541 303.553 330.309 316.128 337.426C328.703 344.543 342.676 348.84 357.078 350.017C371.479 351.194 385.964 349.224 399.528 344.243C413.092 339.262 425.41 331.39 435.627 321.173C445.845 310.955 453.717 298.637 458.697 285.073C463.678 271.51 465.648 257.024 464.471 242.623C463.294 228.221 458.998 214.249 451.881 201.673C444.763 189.098 434.995 178.222 423.254 169.8Z" fill="#95281E"/>
<g style="mix-blend-mode:multiply">
<path d="M267.494 269L267.204 269.38C272.054 295.35 287.021 318.329 308.814 333.264C330.607 348.198 357.439 353.864 383.409 349.015C409.379 344.165 432.359 329.198 447.294 307.405C462.228 285.612 467.894 258.78 463.044 232.81C370.684 337.59 267.494 269 267.494 269Z" fill="#95281E"/>
</g>
<path d="M366.864 250.9C371.84 250.9 375.874 246.866 375.874 241.89C375.874 236.914 371.84 232.88 366.864 232.88C361.888 232.88 357.854 236.914 357.854 241.89C357.854 246.866 361.888 250.9 366.864 250.9Z" fill="#F6FAFE"/>
<path d="M378.754 294.89C383.002 294.89 386.444 291.447 386.444 287.2C386.444 282.953 383.002 279.51 378.754 279.51C374.507 279.51 371.064 282.953 371.064 287.2C371.064 291.447 374.507 294.89 378.754 294.89Z" fill="#F6FAFE"/>
<path d="M386.444 270.15C390.691 270.15 394.134 266.707 394.134 262.46C394.134 258.212 390.691 254.77 386.444 254.77C382.197 254.77 378.754 258.212 378.754 262.46C378.754 266.707 382.197 270.15 386.444 270.15Z" fill="#F6FAFE"/>
<path d="M368.974 218.18C372.327 218.18 375.044 215.462 375.044 212.11C375.044 208.758 372.327 206.04 368.974 206.04C365.622 206.04 362.904 208.758 362.904 212.11C362.904 215.462 365.622 218.18 368.974 218.18Z" fill="#F6FAFE"/>
<path d="M345.534 248.94C348.887 248.94 351.604 246.222 351.604 242.87C351.604 239.517 348.887 236.8 345.534 236.8C342.182 236.8 339.464 239.517 339.464 242.87C339.464 246.222 342.182 248.94 345.534 248.94Z" fill="#F6FAFE"/>
<path d="M324.824 259.81C328.834 259.81 332.084 256.56 332.084 252.55C332.084 248.54 328.834 245.29 324.824 245.29C320.815 245.29 317.564 248.54 317.564 252.55C317.564 256.56 320.815 259.81 324.824 259.81Z" fill="#F6FAFE"/>
<path d="M347.204 280.05C351.485 280.05 354.954 276.58 354.954 272.3C354.954 268.02 351.485 264.55 347.204 264.55C342.924 264.55 339.454 268.02 339.454 272.3C339.454 276.58 342.924 280.05 347.204 280.05Z" fill="#F6FAFE"/>
<path d="M388.864 233.44C392.581 233.44 395.594 230.427 395.594 226.71C395.594 222.994 392.581 219.98 388.864 219.98C385.147 219.98 382.134 222.994 382.134 226.71C382.134 230.427 385.147 233.44 388.864 233.44Z" fill="#F6FAFE"/>
<path d="M339.354 229.08C343.69 229.08 347.204 225.565 347.204 221.23C347.204 216.894 343.69 213.38 339.354 213.38C335.019 213.38 331.504 216.894 331.504 221.23C331.504 225.565 335.019 229.08 339.354 229.08Z" fill="#F6FAFE"/>
<path d="M401.984 251.38C406.32 251.38 409.834 247.865 409.834 243.53C409.834 239.194 406.32 235.68 401.984 235.68C397.649 235.68 394.134 239.194 394.134 243.53C394.134 247.865 397.649 251.38 401.984 251.38Z" fill="#F6FAFE"/>
<path d="M496.053 108.146C500.234 97.9283 498.799 87.6716 492.849 85.2374C486.899 82.8032 478.687 89.1133 474.507 99.3315C470.326 109.55 471.761 119.806 477.711 122.24C483.661 124.675 491.873 118.365 496.053 108.146Z" fill="#F6FAFE"/>
<path d="M569.036 283.497C570.143 277.164 563.261 270.67 553.665 268.992C544.068 267.313 535.391 271.086 534.283 277.419C533.176 283.751 540.058 290.245 549.654 291.924C559.251 293.602 567.928 289.829 569.036 283.497Z" fill="#F6FAFE"/>
<path d="M488.664 77.8104C493.254 77.8104 496.974 74.0899 496.974 69.5004C496.974 64.9109 493.254 61.1904 488.664 61.1904C484.075 61.1904 480.354 64.9109 480.354 69.5004C480.354 74.0899 484.075 77.8104 488.664 77.8104Z" fill="#F6FAFE"/>
<path d="M557.644 172.57C562.234 172.57 565.954 168.85 565.954 164.26C565.954 159.671 562.234 155.95 557.644 155.95C553.055 155.95 549.334 159.671 549.334 164.26C549.334 168.85 553.055 172.57 557.644 172.57Z" fill="#F6FAFE"/>
<path d="M581.954 277.3C586.544 277.3 590.264 273.579 590.264 268.99C590.264 264.4 586.544 260.68 581.954 260.68C577.365 260.68 573.644 264.4 573.644 268.99C573.644 273.579 577.365 277.3 581.954 277.3Z" fill="#F6FAFE"/>
<path d="M543.75 195.489C551.495 191.857 555.638 184.357 553.003 178.736C550.368 173.116 541.952 171.504 534.207 175.135C526.461 178.767 522.318 186.267 524.953 191.888C527.588 197.508 536.004 199.121 543.75 195.489Z" fill="#F6FAFE"/>
</svg>
