<svg width="503" height="503" viewBox="0 0 503 503" fill="none" xmlns="http://www.w3.org/2000/svg">
<g clip-path="url(#clip0_6240_316)">
<path d="M251.141 502.261C218.148 502.351 185.466 495.897 154.984 483.272C124.503 470.647 96.8276 452.102 73.5607 428.711C50.1689 405.444 31.6239 377.769 18.9991 347.288C6.37421 316.806 -0.0797448 284.123 0.0107103 251.131C-0.0800781 218.14 6.37379 185.458 18.9987 154.978C31.6236 124.498 50.1687 96.8254 73.5607 73.561C96.8258 50.1665 124.5 31.619 154.982 18.9924C185.464 6.36575 218.147 -0.0893164 251.141 0.000933428C284.134 -0.0893164 316.818 6.36575 347.299 18.9924C377.781 31.619 405.456 50.1665 428.721 73.561C452.113 96.8254 470.658 124.498 483.283 154.978C495.908 185.458 502.362 218.14 502.271 251.131C502.361 284.123 495.907 316.806 483.282 347.288C470.658 377.769 452.113 405.444 428.721 428.711C405.454 452.102 377.779 470.647 347.297 483.272C316.816 495.897 284.133 502.351 251.141 502.261Z" fill="#231F20"/>
<path d="M251.13 487.26C381.541 487.26 487.26 381.541 487.26 251.13C487.26 120.719 381.541 15 251.13 15C120.719 15 15 120.719 15 251.13C15 381.541 120.719 487.26 251.13 487.26Z" fill="#F1A2B1"/>
<path d="M251.13 487.26C381.541 487.26 487.26 381.541 487.26 251.13C487.26 120.719 381.541 15 251.13 15C120.719 15 15 120.719 15 251.13C15 381.541 120.719 487.26 251.13 487.26Z" fill="#AADDDB"/>
<path d="M364.57 44C383.653 78.7609 393.629 117.785 393.57 157.44C393.57 287.85 287.85 393.57 157.44 393.57C117.783 393.628 78.7552 383.652 43.9902 364.57C64.3366 401.723 94.3042 432.718 130.751 454.304C167.198 475.891 208.781 487.274 251.14 487.26C381.55 487.26 487.27 381.54 487.27 251.13C487.283 208.772 475.898 167.191 454.309 130.748C432.721 94.3043 401.724 64.341 364.57 44Z" fill="#8DD2CE"/>
<path opacity="0.5" d="M389.859 60.0508C418.864 100.212 434.436 148.511 434.349 198.051C434.349 328.461 328.629 434.181 198.219 434.181C148.387 434.265 99.8189 418.506 59.5293 389.181C81.3906 419.564 110.171 444.306 143.49 461.361C176.809 478.416 213.709 487.293 251.139 487.26C381.549 487.26 487.269 381.541 487.269 251.131C487.295 213.848 478.479 177.09 461.546 143.875C444.614 110.659 420.046 81.9319 389.859 60.0508Z" fill="#77CBC5"/>
<path d="M161.8 334.43C188.017 334.43 209.27 313.177 209.27 286.96C209.27 260.743 188.017 239.49 161.8 239.49C135.583 239.49 114.33 260.743 114.33 286.96C114.33 313.177 135.583 334.43 161.8 334.43Z" fill="#F8F9E3"/>
<path d="M343.89 334.43C370.107 334.43 391.36 313.177 391.36 286.96C391.36 260.743 370.107 239.49 343.89 239.49C317.673 239.49 296.42 260.743 296.42 286.96C296.42 313.177 317.673 334.43 343.89 334.43Z" fill="#F8F9E3"/>
<path d="M114.329 286.961C113.831 280.646 114.687 274.298 116.839 268.341C119.02 262.282 122.424 256.737 126.839 252.051C131.309 247.308 136.708 243.536 142.699 240.971C148.723 238.391 155.206 237.058 161.759 237.051C168.308 237.063 174.788 238.396 180.809 240.971C186.798 243.541 192.196 247.312 196.669 252.051C201.079 256.742 204.482 262.286 206.669 268.341C208.817 274.299 209.672 280.647 209.179 286.961C208.677 280.826 207.078 274.831 204.459 269.261C201.883 263.811 198.312 258.89 193.929 254.751C189.581 250.685 184.515 247.464 178.989 245.251C173.488 243.073 167.626 241.95 161.709 241.941C155.791 241.948 149.928 243.075 144.429 245.261C138.907 247.47 133.844 250.688 129.499 254.751C125.113 258.887 121.542 263.808 118.969 269.261C116.373 274.835 114.802 280.83 114.329 286.961Z" fill="#231F20"/>
<path d="M209.27 286.961C209.763 293.279 208.907 299.629 206.759 305.591C204.577 311.648 201.173 317.193 196.759 321.881C192.283 326.621 186.882 330.392 180.89 332.961C174.868 335.536 168.389 336.869 161.84 336.881C155.307 336.862 148.846 335.529 142.84 332.961C136.851 330.391 131.453 326.62 126.98 321.881C122.566 317.193 119.162 311.648 116.98 305.591C114.832 299.629 113.976 293.279 114.47 286.961C114.967 293.1 116.566 299.099 119.189 304.671C121.765 310.121 125.337 315.042 129.72 319.181C134.067 323.247 139.134 326.468 144.66 328.681C150.16 330.861 156.023 331.98 161.939 331.981C167.854 331.983 173.715 330.859 179.21 328.671C184.736 326.464 189.803 323.246 194.15 319.181C198.532 315.042 202.104 310.121 204.679 304.671C207.254 299.089 208.808 293.091 209.27 286.961Z" fill="#231F20"/>
<path d="M159.32 335.469C176.518 335.469 190.46 321.528 190.46 304.329C190.46 287.131 176.518 273.189 159.32 273.189C142.122 273.189 128.18 287.131 128.18 304.329C128.18 321.528 142.122 335.469 159.32 335.469Z" fill="#040809"/>
<path d="M296.421 286.961C295.928 280.647 296.783 274.299 298.931 268.341C301.111 262.282 304.515 256.737 308.931 252.051C313.405 247.308 318.807 243.536 324.801 240.971C330.821 238.391 337.301 237.058 343.851 237.051C350.4 237.062 356.879 238.395 362.901 240.971C368.889 243.541 374.287 247.312 378.761 252.051C383.175 256.738 386.578 262.283 388.761 268.341C390.908 274.299 391.764 280.647 391.271 286.961C390.773 280.825 389.174 274.829 386.551 269.261C384.011 263.82 380.481 258.9 376.141 254.751C371.793 250.685 366.727 247.464 361.201 245.251C355.699 243.073 349.837 241.95 343.921 241.941C338.006 241.948 332.146 243.074 326.651 245.261C321.124 247.468 316.057 250.686 311.711 254.751C307.313 258.886 303.728 263.807 301.141 269.261C298.522 274.831 296.923 280.826 296.421 286.961Z" fill="#231F20"/>
<path d="M391.361 286.961C391.858 293.279 391.003 299.63 388.851 305.591C386.668 311.648 383.265 317.193 378.851 321.881C374.378 326.621 368.98 330.392 362.991 332.961C356.965 335.536 350.483 336.869 343.931 336.881C337.382 336.869 330.902 335.536 324.881 332.961C318.892 330.391 313.494 326.62 309.021 321.881C304.611 317.19 301.208 311.646 299.021 305.591C296.873 299.629 296.017 293.279 296.511 286.961C297.013 293.099 298.611 299.097 301.231 304.671C303.806 310.121 307.378 315.042 311.761 319.181C316.108 323.247 321.175 326.468 326.701 328.681C332.201 330.861 338.064 331.98 343.981 331.981C349.898 331.982 355.762 330.858 361.261 328.671C366.785 326.459 371.851 323.242 376.201 319.181C380.58 315.042 384.148 310.121 386.721 304.671C389.316 299.093 390.888 293.095 391.361 286.961Z" fill="#231F20"/>
<path d="M341.41 335.469C358.608 335.469 372.55 321.528 372.55 304.329C372.55 287.131 358.608 273.189 341.41 273.189C324.211 273.189 310.27 287.131 310.27 304.329C310.27 321.528 324.211 335.469 341.41 335.469Z" fill="#040809"/>
<path d="M293.221 327.271C269.601 340.001 236.091 340.001 212.471 327.271C210.831 326.416 208.99 326.024 207.145 326.136C205.3 326.248 203.52 326.862 201.996 327.909C200.473 328.956 199.263 330.399 198.498 332.082C197.732 333.765 197.439 335.624 197.651 337.461C200.091 358.361 211.041 387.081 252.851 387.081C294.661 387.081 305.601 358.361 308.041 337.461C308.252 335.624 307.959 333.765 307.194 332.082C306.428 330.399 305.219 328.956 303.695 327.909C302.172 326.862 300.392 326.248 298.546 326.136C296.701 326.024 294.86 326.416 293.221 327.271Z" fill="#040809"/>
<path d="M107.93 207.16C107.93 207.16 126.33 155.16 172.42 155.16" stroke="#231F20" stroke-width="13.86" stroke-miterlimit="10" stroke-linecap="round"/>
<path d="M397.76 207.16C397.76 207.16 379.36 155.16 333.27 155.16" stroke="#231F20" stroke-width="13.86" stroke-miterlimit="10" stroke-linecap="round"/>
</g>
<defs>
<clipPath id="clip0_6240_316">
<rect width="502.26" height="502.26" fill="white"/>
</clipPath>
</defs>
</svg>
