<svg width="511" height="939" viewBox="0 0 511 939" fill="none" xmlns="http://www.w3.org/2000/svg">
<g clip-path="url(#clip0_4884_1432)">
<path d="M237.63 938.14C350.197 938.14 441.45 916.023 441.45 888.74C441.45 861.457 350.197 839.34 237.63 839.34C125.063 839.34 33.8101 861.457 33.8101 888.74C33.8101 916.023 125.063 938.14 237.63 938.14Z" fill="#A7A9AC"/>
<path d="M218.45 891.799C216.265 891.8 214.105 891.324 212.124 890.403C210.142 889.482 208.385 888.139 206.976 886.469C205.567 884.798 204.541 882.84 203.968 880.731C203.395 878.622 203.29 876.413 203.66 874.259C217.7 792.26 225.466 709.309 226.89 626.129C225.21 626.279 223.55 626.409 221.89 626.539L220.23 626.659C218.06 626.819 215.88 626.959 213.74 627.069H213.61C211.5 627.169 209.43 627.249 207.37 627.319H205.79C203.7 627.319 201.63 627.409 199.58 627.419H198.51C196.82 627.419 195.15 627.419 193.51 627.419H192.02C189.81 627.419 187.88 627.309 186.11 627.229H185.97C184.04 627.139 182.15 627.029 180.28 626.899L178.88 626.799C176.7 626.639 174.88 626.489 173.2 626.319H173.04C171.22 626.139 169.43 625.929 167.66 625.719L166.33 625.549C164.27 625.289 162.55 625.049 160.94 624.799H160.74C159.06 624.539 157.35 624.249 155.66 623.949L154.4 623.719C152.49 623.369 150.81 623.039 149.28 622.719H149.13C147.48 622.369 145.86 621.999 144.26 621.609L143.09 621.329C141.26 620.879 139.66 620.459 138.2 620.059L138.02 620.009C136.43 619.569 134.93 619.129 133.44 618.679L132.36 618.349C130.79 617.859 129.24 617.349 127.73 616.839L127.54 616.779C126.03 616.259 124.62 615.779 123.21 615.229L122.21 614.849C120.72 614.279 119.21 613.709 117.81 613.119L117.69 613.059C116.27 612.479 114.91 611.889 113.55 611.279L112.63 610.869C111.22 610.229 109.83 609.579 108.48 608.919L108.33 608.849C107.02 608.199 105.74 607.549 104.46 606.849L103.61 606.399C102.28 605.689 100.98 604.979 99.7001 604.249L99.5801 604.179C98.3501 603.479 97.1301 602.759 95.94 602.029L95.1501 601.539C93.9001 600.779 92.6801 599.999 91.4801 599.209L91.3501 599.129C90.16 598.339 89.0501 597.579 87.9601 596.819L87.2401 596.309C86.0701 595.489 84.9301 594.659 83.8101 593.819L83.7301 593.759C82.6401 592.939 81.5801 592.109 80.5201 591.269L79.8501 590.729C78.7901 589.869 77.7201 588.989 76.6701 588.099C75.6701 587.229 74.6701 586.339 73.6701 585.449L73.0801 584.919C72.0801 583.999 71.0801 583.069 70.0801 582.139C15.2201 529.249 17.5801 450.479 17.7101 447.139C17.8095 443.631 19.1358 440.269 21.4581 437.638C23.7803 435.007 26.9516 433.273 30.4201 432.739C47.902 429.999 65.5649 428.575 83.2601 428.479C129.79 428.479 168.08 439.809 197.07 462.139C206.986 469.787 215.829 478.734 223.36 488.739C220.99 454.879 217.85 426.739 215.03 405.509C213.86 396.719 212.59 387.929 211.25 379.199C193.92 389.199 176.79 393.979 167.99 393.979C165.926 394.004 163.868 393.735 161.88 393.179C156.323 391.562 151.136 388.875 146.61 385.269C144.95 385.453 143.281 385.547 141.61 385.549C137.529 385.55 133.467 384.988 129.54 383.879C116.54 380.169 97.08 354.759 87.8801 329.499C87.58 328.659 87.2801 327.819 86.9901 326.969C86.9779 326.918 86.9612 326.867 86.94 326.819C86.6701 326.009 86.4001 325.189 86.1401 324.359C86.1268 324.298 86.1101 324.238 86.0901 324.179C85.8201 323.319 85.5801 322.519 85.3501 321.709C85.3501 321.709 85.3501 321.559 85.2901 321.479C85.0601 320.689 84.8301 319.859 84.6201 319.019L84.5401 318.719C84.3501 317.979 84.1401 317.139 83.9501 316.289L83.8801 315.969C83.69 315.129 83.5101 314.329 83.3501 313.509L83.2801 313.149C83.1101 312.339 82.9601 311.519 82.8201 310.699C82.8201 310.699 82.73 310.169 82.72 310.129C82.59 309.369 82.4701 308.609 82.3601 307.839L82.3001 307.389C82.1901 306.559 82.0801 305.759 81.9901 304.969L81.8201 303.269C81.8201 302.859 81.7401 302.449 81.7101 302.039C81.7101 301.859 81.7101 301.659 81.7101 301.449C81.6401 300.629 81.5901 299.859 81.5501 299.089C81.5501 298.869 81.4801 296.879 81.4801 296.879C81.4801 296.619 81.4801 296.369 81.4801 296.109C81.4801 295.849 81.4801 294.189 81.4801 294.189C81.4801 293.829 81.4801 293.469 81.4801 293.099V291.879C81.4801 291.269 81.4801 290.659 81.5501 290.059C81.5501 289.799 81.55 289.549 81.6001 289.289C81.6001 289.289 81.6001 289.039 81.6001 288.989C59.1301 284.989 41.0601 272.299 29.1001 261.379C19.6401 252.739 1.63005 232.839 1.19005 219.379C1.01817 213.604 1.96911 207.851 3.99007 202.439C1.5966 197.182 0.244987 191.511 0.0100564 185.739C-0.469944 172.249 17.6501 145.899 38.8201 129.339H38.8701L41.0101 127.709L41.1301 127.619C41.8301 127.099 42.5301 126.619 43.2401 126.089L43.3801 125.989C44.05 125.519 44.7701 124.989 45.5101 124.519L45.7001 124.389C46.3701 123.939 47.1001 123.459 47.8301 122.999L48.0801 122.839C48.7701 122.399 49.4901 121.949 50.2301 121.509L50.5201 121.339C51.2201 120.919 51.9501 120.489 52.6801 120.079L53.0201 119.889C53.7401 119.489 54.4601 119.089 55.2001 118.709L55.5701 118.509C56.3101 118.129 57.0301 117.759 57.7701 117.399L58.2001 117.189C58.9401 116.829 59.6601 116.479 60.4001 116.189L61.8801 115.539L63.0801 115.019L63.6401 114.789C64.4001 114.479 65.1101 114.189 65.8301 113.919L67.94 113.149L68.6501 112.899L70.44 112.319L71.5101 111.979L72.7401 111.619C73.3001 111.459 73.87 111.289 74.44 111.139L75.2001 110.949L75.5201 110.869C73.0501 92.2991 76.5201 71.8691 85.8301 51.6891C91.1101 40.2391 104.38 17.3891 116.83 12.8991C121.657 11.1617 126.75 10.2818 131.88 10.2991C132.54 10.2991 133.17 10.2991 133.78 10.2991C138.051 6.38998 143.044 3.35308 148.48 1.35911C151.12 0.450528 153.899 0.0138595 156.69 0.069111C169.9 0.069111 193.87 7.20911 214.12 20.8591H214.18C214.91 21.3491 215.64 21.8591 216.37 22.3691L216.49 22.4491C217.19 22.9491 217.89 23.4491 218.58 23.9791L218.73 24.0891C219.42 24.5991 220.11 25.0891 220.79 25.6591C220.853 25.7139 220.92 25.764 220.99 25.8091L222.99 27.4091L223.23 27.6091C223.83 28.0991 224.48 28.6091 225.13 29.2191L225.39 29.4491C226 29.9791 226.63 30.5391 227.25 31.1191L227.53 31.3691L229.33 33.0691L229.71 33.4491C230.27 33.9991 230.83 34.5491 231.37 35.1191L231.7 35.4591C232.28 36.0591 232.83 36.6391 233.37 37.2391L234.49 38.4891L235.32 39.4291C235.32 39.4291 235.75 39.9391 235.75 39.9491C236.24 40.5291 236.75 41.1091 237.21 41.6991L238.59 43.4691L239.04 44.0591L240.18 45.6191L240.82 46.5091L241.5 47.5091C241.84 48.0091 242.18 48.5091 242.5 49.0091C242.65 49.2391 242.78 49.4591 242.91 49.6691L243.08 49.9491C255.93 43.7691 270.86 40.5591 287.08 40.5591C310.08 40.5591 340.43 47.9591 348.99 58.9791C352.525 63.5482 355.137 68.7619 356.68 74.3291C361.699 77.1833 366.115 80.9874 369.68 85.5291C378 96.1591 378.82 128.119 371.44 153.949C371.444 153.989 371.444 154.029 371.44 154.069C371.2 154.909 370.95 155.759 370.68 156.609C370.683 156.656 370.683 156.702 370.68 156.749C370.42 157.579 370.15 158.399 369.88 159.219V159.329C369.6 160.169 369.31 160.999 369 161.829L368.91 162.069C368.62 162.849 368.32 163.649 368.01 164.439L367.9 164.729C367.6 165.459 367.28 166.249 366.9 167.029L366.77 167.349C366.44 168.099 366.11 168.869 365.77 169.629L365.6 169.979C365.26 170.729 364.91 171.479 364.54 172.229L364.35 172.599C363.98 173.339 363.61 174.069 363.23 174.799L363.01 175.209C362.61 175.959 362.23 176.659 361.83 177.359L361.41 178.089L360.97 178.849L360.35 179.849L360 180.409C359.6 181.059 359.19 181.709 358.77 182.349L357.51 184.219L357.09 184.829C356.97 185.009 355.98 186.359 355.98 186.359L355.32 187.259L354.57 188.259C354.2 188.749 353.83 189.259 353.44 189.699L352.93 190.319L352.73 190.559C365.64 204.119 374.83 222.709 379.17 244.489C381.63 256.859 384.32 283.149 376.89 294.099C373.64 298.876 369.489 302.973 364.67 306.159C363.508 311.819 361.256 317.199 358.04 321.999C350.78 332.789 322.44 343.189 296.14 344.689H296.05C295.19 344.739 294.32 344.779 293.46 344.809H293.31L290.74 344.869H287.81L285.23 344.809H284.99C284.13 344.809 283.29 344.739 282.45 344.689H282.17L279.65 344.499H279.3C278.49 344.419 277.65 344.339 276.82 344.239H276.46L273.98 343.919L272.3 343.659C275.3 360.659 277.93 378.079 280.3 395.659C280.967 400.619 281.607 405.619 282.22 410.659C302.99 371.809 344.3 331.239 426.22 331.239C448.53 331.239 473.11 334.339 499.29 340.439C502.686 341.232 505.7 343.182 507.814 345.957C509.927 348.731 511.008 352.154 510.87 355.639C510.74 358.969 506.96 437.689 448.16 486.139C447.16 486.999 446.06 487.839 444.99 488.679L444.35 489.179C443.35 489.979 442.24 490.789 441.15 491.579H441.1C439.99 492.389 438.86 493.179 437.72 493.969L437.01 494.439C435.88 495.209 434.74 495.969 433.57 496.709L433.48 496.769C432.36 497.479 431.16 498.219 429.94 498.949L429.18 499.399C427.98 500.099 426.77 500.799 425.55 501.469H425.48C424.22 502.159 422.94 502.839 421.65 503.469L420.8 503.909C419.57 504.529 418.32 505.149 417.05 505.749L416.89 505.819C415.56 506.449 414.2 507.059 412.84 507.649L411.93 508.049C410.61 508.609 409.28 509.169 407.93 509.709H407.88C406.38 510.299 404.95 510.829 403.51 511.359L402.51 511.709C401.13 512.199 399.73 512.709 398.3 513.149H398.13C396.65 513.629 395.15 514.089 393.63 514.529L392.58 514.839C391.12 515.249 389.64 515.659 388.14 516.049L387.91 516.109C386.5 516.469 385.01 516.829 383.24 517.229L382.12 517.479C380.57 517.819 379.01 518.149 377.42 518.479H377.26C375.76 518.769 374.13 519.059 372.26 519.359L371.08 519.549C369.45 519.809 367.81 520.049 366.15 520.269H366.06C364.43 520.479 362.73 520.679 360.79 520.879L359.53 521.009C357.83 521.179 356.11 521.339 354.37 521.469H354.21C352.4 521.609 350.59 521.709 348.76 521.799L347.42 521.859C345.63 521.939 343.83 521.999 341.99 522.039H341.79C340.43 522.039 338.99 522.039 337.55 522.039H334.74C332.86 522.039 330.98 521.989 329.08 521.919H328.98C326.98 521.859 324.98 521.759 322.98 521.649L321.5 521.559C319.5 521.439 317.57 521.309 315.58 521.149H315.42C313.42 520.989 311.31 520.789 309.23 520.569L307.67 520.399C305.623 520.179 303.55 519.936 301.45 519.669H301.33C299.2 519.389 297.05 519.079 294.88 518.759L293.25 518.509L291.49 518.229C292.98 547.689 293.64 577.529 293.49 607.229C292.84 698.444 284.716 789.452 269.2 879.339C268.601 882.825 266.789 885.988 264.085 888.268C261.381 890.547 257.957 891.798 254.42 891.799H218.45Z" fill="#231F20"/>
<path d="M254.42 876.799H218.42C252.49 678.469 243.67 507.189 229.87 403.539C214.87 291.139 191.54 224.819 191.31 224.159L225.2 212.039C226.2 214.829 249.84 281.719 265.38 397.509C274.58 466.996 278.94 537.038 278.43 607.129C277.798 697.524 269.768 787.715 254.42 876.799Z" fill="#66BE64"/>
<path d="M495.83 354.85C495.83 354.85 361.78 480.87 274.54 499.74C488.22 546.53 495.83 354.85 495.83 354.85Z" fill="#66BE64"/>
<path d="M495.83 354.85C271.82 302.63 274.54 499.74 274.54 499.74C361.78 480.87 495.83 354.85 495.83 354.85Z" fill="#4CA84E"/>
<g style="mix-blend-mode:multiply">
<path d="M299.84 409.859C273.84 452.089 274.54 499.739 274.54 499.739C354.76 517.309 405.93 501.259 438.54 474.369C438.54 474.369 326.08 502.739 299.84 409.859Z" fill="#4CA84E"/>
</g>
<path d="M32.6802 447.6C32.6802 447.6 156.51 583.68 242.02 609.29C25.3402 639.29 32.6802 447.6 32.6802 447.6Z" fill="#66BE64"/>
<path d="M32.6802 447.598C260.07 412.978 242.02 609.288 242.02 609.288C156.51 583.678 32.6802 447.598 32.6802 447.598Z" fill="#4CA84E"/>
<g style="mix-blend-mode:multiply">
<path d="M223.79 517.738C246.38 561.868 242.02 609.328 242.02 609.328C160.67 620.588 110.9 600.608 80.46 571.258C80.46 571.258 190.4 608.268 223.79 517.738Z" fill="#4CA84E"/>
</g>
<path d="M201.14 195.679C201.14 195.679 161.04 196.739 111.27 148.929C61.5001 101.119 112.02 30.4691 121.92 26.9291C127.614 24.9091 133.787 24.6685 139.62 26.2391C143.085 21.2976 147.966 17.5218 153.62 15.4091C163.51 11.7991 247.62 33.5591 240.1 102.179C232.58 170.799 201.14 195.679 201.14 195.679Z" fill="#E62C35"/>
<path d="M240.14 102.149C243.86 68.0495 224.98 45.5295 203.82 31.9395C203.82 31.9395 235.25 138.529 140.58 172.739C175.89 196.349 201.14 195.679 201.14 195.679C201.14 195.679 232.63 170.739 240.14 102.149Z" fill="#E95C6C"/>
<path d="M167.68 187.46C188.14 196.02 201.14 195.68 201.14 195.68C201.14 195.68 232.61 170.77 240.14 102.15C242.92 76.7201 233.14 57.7301 219.14 44.0801C219.14 44.0801 257.83 140.74 167.68 187.46Z" fill="#CC4558"/>
<path d="M201.14 195.679C201.14 195.679 189.78 234.159 128.91 266.679C68.0401 299.199 16.4901 229.399 16.1401 218.879C15.9811 212.839 17.6583 206.894 20.9501 201.829C17.308 197.008 15.2157 191.195 14.9501 185.159C14.5701 174.639 61.2501 101.399 124.2 129.729C187.15 158.059 201.14 195.679 201.14 195.679Z" fill="#E62C35"/>
<path d="M124.25 129.738C92.97 115.658 65.72 126.658 46.25 142.588C46.25 142.588 157.35 145.588 160.62 246.208C194 219.918 201.14 195.678 201.14 195.678C201.14 195.678 187.19 158.048 124.25 129.738Z" fill="#E95C6C"/>
<path d="M183 224.979C197.46 208.189 201.16 195.679 201.16 195.679C201.16 195.679 187.16 158.049 124.25 129.729C100.92 119.229 79.83 122.729 62.54 131.729C62.54 131.729 166.44 124.809 183 224.979Z" fill="#CC4558"/>
<path d="M201.14 195.68C201.14 195.68 234.23 218.38 246.39 286.33C258.55 354.28 176.14 381.74 166.06 378.79C160.269 377.079 155.135 373.647 151.34 368.95C145.629 370.913 139.456 371.094 133.64 369.47C123.51 366.58 68.2802 299.56 114.64 248.47C161 197.38 201.14 195.68 201.14 195.68Z" fill="#E62C35"/>
<path d="M114.67 248.45C91.67 273.84 93.67 303.16 102.79 326.6C102.79 326.6 139.99 221.87 236.68 249.84C222 209.98 201.14 195.68 201.14 195.68C201.14 195.68 161.06 197.33 114.67 248.45Z" fill="#E95C6C"/>
<path d="M223.42 222C211.92 203.06 201.14 195.68 201.14 195.68C201.14 195.68 161.04 197.33 114.65 248.45C97.4601 267.39 94.23 288.51 97.48 307.75C97.48 307.75 123.03 206.8 223.42 222Z" fill="#CC4558"/>
<path d="M201.14 195.679C201.14 195.679 232.96 171.219 301.34 180.679C369.72 190.139 370.34 276.969 364.45 285.679C361.035 290.671 356.184 294.507 350.54 296.679C350.637 302.722 348.893 308.651 345.54 313.679C339.67 322.409 258.86 354.229 224.54 294.319C190.22 234.409 201.14 195.679 201.14 195.679Z" fill="#E62C35"/>
<path d="M224.62 294.239C241.62 324.009 270.17 331.129 295.27 329.689C295.27 329.689 207.14 261.949 263.65 178.629C221.2 180.269 201.14 195.679 201.14 195.679C201.14 195.679 190.34 234.319 224.62 294.239Z" fill="#E95C6C"/>
<path d="M233.07 182.639C211.51 187.729 201.16 195.639 201.16 195.639C201.16 195.639 190.34 234.279 224.62 294.199C237.32 316.399 256.42 325.999 275.72 328.849C275.72 328.849 187.59 273.419 233.07 182.639Z" fill="#CC4558"/>
<path d="M201.14 195.679C201.14 195.679 187.73 157.859 217.84 95.7388C247.95 33.6188 330.74 59.8488 337.19 68.1588C340.86 72.9399 342.998 78.72 343.32 84.7388C349.095 86.5127 354.193 90.0003 357.94 94.7388C364.43 103.029 369.72 189.739 302.15 203.799C234.58 217.859 201.14 195.679 201.14 195.679Z" fill="#E62C35"/>
<path d="M302.14 203.819C335.71 196.819 351.3 171.899 357.69 147.579C357.69 147.579 266.04 210.439 204.26 130.969C192.71 171.849 201.16 195.679 201.16 195.679C201.16 195.679 234.57 217.899 302.14 203.819Z" fill="#E95C6C"/>
<path d="M198.62 161.299C196.8 183.379 201.16 195.679 201.16 195.679C201.16 195.679 234.57 217.899 302.16 203.819C327.16 198.599 342.23 183.409 350.91 165.929C350.91 165.929 270.91 232.599 198.62 161.299Z" fill="#CC4558"/>
<path d="M214.59 154.178C196.2 121.368 182.75 122.288 175.47 124.938C168.19 127.588 157.28 135.498 164.24 172.468C171.2 209.438 188.41 241.218 214.24 231.818C240.07 222.418 232.97 186.998 214.59 154.178Z" fill="#FAF28C"/>
<path d="M160.41 162.32C162.868 162.32 164.86 160.328 164.86 157.87C164.86 155.412 162.868 153.42 160.41 153.42C157.952 153.42 155.96 155.412 155.96 157.87C155.96 160.328 157.952 162.32 160.41 162.32Z" fill="#F8A33E"/>
<path d="M168.66 134.468C171.118 134.468 173.11 132.476 173.11 130.018C173.11 127.561 171.118 125.568 168.66 125.568C166.202 125.568 164.21 127.561 164.21 130.018C164.21 132.476 166.202 134.468 168.66 134.468Z" fill="#F8A33E"/>
<path d="M173.37 146.589C176.264 146.589 178.61 144.243 178.61 141.349C178.61 138.455 176.264 136.109 173.37 136.109C170.476 136.109 168.13 138.455 168.13 141.349C168.13 144.243 170.476 146.589 173.37 146.589Z" fill="#F8A33E"/>
<path d="M208.28 150.369C210.738 150.369 212.73 148.376 212.73 145.919C212.73 143.461 210.738 141.469 208.28 141.469C205.822 141.469 203.83 143.461 203.83 145.919C203.83 148.376 205.822 150.369 208.28 150.369Z" fill="#F8A33E"/>
<path d="M191.79 145.598C193.64 145.598 195.14 144.099 195.14 142.248C195.14 140.398 193.64 138.898 191.79 138.898C189.94 138.898 188.44 140.398 188.44 142.248C188.44 144.099 189.94 145.598 191.79 145.598Z" fill="#F8A33E"/>
<path d="M215.24 158.608C217.09 158.608 218.59 157.108 218.59 155.258C218.59 153.408 217.09 151.908 215.24 151.908C213.39 151.908 211.89 153.408 211.89 155.258C211.89 157.108 213.39 158.608 215.24 158.608Z" fill="#F8A33E"/>
<path d="M178.62 155.309C180.47 155.309 181.97 153.81 181.97 151.959C181.97 150.109 180.47 148.609 178.62 148.609C176.77 148.609 175.27 150.109 175.27 151.959C175.27 153.81 176.77 155.309 178.62 155.309Z" fill="#F8A33E"/>
<path d="M165.95 175.209C168.408 175.209 170.4 173.216 170.4 170.759C170.4 168.301 168.408 166.309 165.95 166.309C163.492 166.309 161.5 168.301 161.5 170.759C161.5 173.216 163.492 175.209 165.95 175.209Z" fill="#F8A33E"/>
<path d="M197.22 124.57C195.841 125.071 194.643 125.972 193.779 127.157C192.914 128.343 192.423 129.759 192.367 131.225C192.311 132.691 192.694 134.14 193.465 135.388C194.237 136.636 195.363 137.625 196.7 138.23C195.56 166.39 213.37 207.83 214.2 209.73L218.45 207.88C218.25 207.43 200.37 165.82 201.31 138.72C201.65 138.655 201.984 138.565 202.31 138.45C203.255 138.144 204.129 137.652 204.88 137.001C205.63 136.351 206.242 135.555 206.678 134.663C207.114 133.771 207.366 132.8 207.418 131.808C207.471 130.816 207.323 129.824 206.983 128.891C206.644 127.957 206.12 127.102 205.442 126.376C204.764 125.65 203.947 125.067 203.04 124.664C202.132 124.261 201.153 124.045 200.16 124.028C199.167 124.012 198.18 124.196 197.26 124.57H197.22Z" fill="#F8A33E"/>
<path d="M162.77 133.908C162.281 132.561 161.41 131.385 160.263 130.524C159.116 129.664 157.744 129.156 156.313 129.063C154.883 128.969 153.456 129.295 152.207 129.999C150.958 130.703 149.942 131.756 149.282 133.029C148.622 134.302 148.347 135.739 148.49 137.165C148.634 138.592 149.189 139.946 150.09 141.061C150.99 142.177 152.196 143.006 153.56 143.448C154.924 143.89 156.387 143.924 157.77 143.548C164.14 153.548 177.53 176.498 190.86 211.008L195.19 209.328C181.71 174.448 168.12 151.188 161.63 140.978C162.408 139.995 162.921 138.829 163.121 137.592C163.32 136.354 163.2 135.086 162.77 133.908Z" fill="#F8A33E"/>
<path d="M185.08 129.06C185.687 128.998 186.285 128.864 186.86 128.66C188.442 128.092 189.783 127.005 190.666 125.575C191.549 124.146 191.921 122.459 191.721 120.791C191.521 119.123 190.76 117.572 189.564 116.393C188.367 115.213 186.806 114.474 185.135 114.297C183.465 114.12 181.783 114.515 180.366 115.418C178.949 116.321 177.881 117.678 177.336 119.268C176.79 120.857 176.8 122.584 177.364 124.167C177.928 125.749 179.013 127.094 180.44 127.98C180.33 156.85 197.21 200.04 198.01 202.07L202.33 200.37C202.14 199.89 185.4 157.07 185.08 129.06Z" fill="#F8A33E"/>
<path d="M273.301 98.4363C286.264 93.7287 294.342 83.2213 291.344 74.9675C288.346 66.7136 275.408 63.8389 262.446 68.5465C249.484 73.2541 241.406 83.7614 244.404 92.0152C247.401 100.269 260.339 103.144 273.301 98.4363Z" fill="white"/>
<path d="M210.643 62.3635C214.837 54.6486 208.416 43.0548 196.3 36.4682C184.184 29.8816 170.962 30.7963 166.768 38.5113C162.574 46.2262 168.995 57.82 181.111 64.4066C193.227 70.9932 206.449 70.0785 210.643 62.3635Z" fill="white"/>
<path d="M306.87 92.1099C310.858 92.1099 314.09 88.8774 314.09 84.8899C314.09 80.9024 310.858 77.6699 306.87 77.6699C302.883 77.6699 299.65 80.9024 299.65 84.8899C299.65 88.8774 302.883 92.1099 306.87 92.1099Z" fill="white"/>
<path d="M154.39 57.0884C158.378 57.0884 161.61 53.8559 161.61 49.8684C161.61 45.8809 158.378 42.6484 154.39 42.6484C150.403 42.6484 147.17 45.8809 147.17 49.8684C147.17 53.8559 150.403 57.0884 154.39 57.0884Z" fill="white"/>
</g>
<defs>
<clipPath id="clip0_4884_1432">
<rect width="510.82" height="938.14" fill="white"/>
</clipPath>
</defs>
</svg>
