<svg width="503" height="503" viewBox="0 0 503 503" fill="none" xmlns="http://www.w3.org/2000/svg">
<g clip-path="url(#clip0_6240_499)">
<path d="M251.1 502.261C218.107 502.351 185.424 495.897 154.943 483.272C124.461 470.648 96.7861 452.103 73.5195 428.711C50.1277 405.444 31.5828 377.769 18.958 347.288C6.33314 316.806 -0.12076 284.123 -0.0303053 251.131C-0.121094 218.14 6.33259 185.458 18.9575 154.979C31.5824 124.499 50.1275 96.8254 73.5195 73.561C96.784 50.1656 124.458 31.6174 154.94 18.9907C185.422 6.364 218.106 -0.0903982 251.1 0.000956356C284.092 -0.0901794 316.774 6.36447 347.254 18.9912C377.734 31.6179 405.407 50.1659 428.67 73.561C452.065 96.8236 470.612 124.496 483.239 154.976C495.866 185.457 502.321 218.139 502.229 251.131C502.321 284.124 495.866 316.808 483.24 347.29C470.613 377.772 452.065 405.446 428.67 428.711C405.405 452.103 377.732 470.648 347.252 483.273C316.772 495.898 284.091 502.352 251.1 502.261Z" fill="#231F20"/>
<path d="M251.13 487.26C381.541 487.26 487.26 381.541 487.26 251.13C487.26 120.719 381.541 15 251.13 15C120.719 15 15 120.719 15 251.13C15 381.541 120.719 487.26 251.13 487.26Z" fill="#F1A2B1"/>
<path d="M251.13 487.26C381.541 487.26 487.26 381.541 487.26 251.13C487.26 120.719 381.541 15 251.13 15C120.719 15 15 120.719 15 251.13C15 381.541 120.719 487.26 251.13 487.26Z" fill="#F6C5AD"/>
<path d="M364.57 44C383.653 78.7609 393.629 117.785 393.57 157.44C393.57 287.85 287.85 393.57 157.44 393.57C117.786 393.626 78.7619 383.65 44 364.57C64.3407 401.717 94.3001 432.708 130.738 454.294C167.175 475.881 208.749 487.267 251.1 487.26C381.51 487.26 487.23 381.54 487.23 251.13C487.246 208.776 475.868 167.198 454.287 130.755C432.705 94.3118 401.717 64.3462 364.57 44Z" fill="#EFB097"/>
<path opacity="0.5" d="M389.859 60.0508C418.861 100.213 434.432 148.512 434.349 198.051C434.349 328.461 328.629 434.181 198.219 434.181C148.388 434.265 99.8189 418.506 59.5293 389.181C81.3861 419.559 110.16 444.297 143.471 461.352C176.783 478.407 213.676 487.288 251.099 487.26C381.509 487.26 487.229 381.541 487.229 251.131C487.259 213.851 478.45 177.096 461.524 143.881C444.599 110.665 420.039 81.9362 389.859 60.0508Z" fill="#E78B6A"/>
<path d="M103.65 198.72C103.65 198.72 139.51 160.3 186.9 192.31" stroke="#231F20" stroke-width="13.86" stroke-miterlimit="10" stroke-linecap="round"/>
<path d="M398.599 198.72C398.599 198.72 362.739 160.3 315.359 192.31" stroke="#231F20" stroke-width="13.86" stroke-miterlimit="10" stroke-linecap="round"/>
<path d="M387.25 277.261C385.539 283.382 382.624 289.101 378.675 294.081C374.725 299.06 369.821 303.201 364.25 306.261C363.41 306.721 362.56 307.161 361.68 307.561C355.322 310.571 348.374 312.125 341.34 312.111C338.872 312.113 336.409 311.925 333.97 311.551C324.092 310 314.953 305.378 307.85 298.341C303.354 293.911 299.786 288.63 297.353 282.806C294.92 276.982 293.672 270.732 293.68 264.421C293.66 253.135 297.671 242.213 304.99 233.621L306.31 234.121L306.79 234.291C325.93 233.471 344.79 241.761 363.44 255.041C371.959 261.25 379.737 268.417 386.62 276.401C386.847 276.674 387.058 276.961 387.25 277.261Z" fill="#F8F9E3"/>
<path d="M293.64 264.459C294.491 253.226 299.111 242.609 306.75 234.33C306.75 234.28 306.85 234.21 306.91 234.16C306.69 234.16 306.48 234.16 306.27 234.16L304.95 233.66L303.84 232.18C300.54 236.246 297.944 240.835 296.16 245.759C293.999 251.742 293.14 258.118 293.64 264.459Z" fill="#231F20"/>
<path d="M387.249 277.26C387.139 277.11 386.909 276.82 386.579 276.44C384.04 284.203 379.606 291.211 373.68 296.831C372.087 298.331 370.393 299.721 368.609 300.99C360.634 306.647 351.097 309.684 341.319 309.681C335.61 309.703 329.946 308.658 324.619 306.601C318.827 304.407 313.522 301.094 309.009 296.851C300.077 288.324 294.617 276.793 293.68 264.48C293.175 270.826 294.034 277.205 296.2 283.19C298.397 289.285 301.832 294.859 306.289 299.561C310.789 304.313 316.209 308.1 322.22 310.69C328.277 313.252 334.782 314.588 341.359 314.621C347.942 314.578 354.45 313.218 360.499 310.621C366.514 308.044 371.934 304.255 376.419 299.49C380.875 294.791 384.316 289.226 386.529 283.141C387.264 281.064 387.852 278.939 388.289 276.78L387.249 277.26Z" fill="#231F20"/>
<path d="M369.101 289.53C369.116 295.468 367.425 301.286 364.23 306.291C363.39 306.751 362.541 307.19 361.661 307.59C355.303 310.6 348.354 312.155 341.321 312.141C338.853 312.142 336.389 311.955 333.951 311.581C324.073 310.029 314.934 305.408 307.831 298.371C306.984 295.5 306.557 292.523 306.561 289.53C306.559 285.423 307.367 281.355 308.938 277.56C310.509 273.764 312.812 270.315 315.715 267.409C318.619 264.504 322.067 262.199 325.861 260.625C329.656 259.052 333.723 258.242 337.831 258.24C341.938 258.242 346.006 259.052 349.8 260.625C353.595 262.199 357.042 264.504 359.946 267.409C362.85 270.315 365.153 273.764 366.723 277.56C368.294 281.355 369.102 285.423 369.101 289.53Z" fill="#040809"/>
<path d="M306.269 234.16L304.949 233.66L305.299 234.14C305.639 234.14 305.949 234.14 306.269 234.16Z" fill="#231F20"/>
<path d="M387.25 277.26C387.297 277.325 387.351 277.386 387.41 277.44L388.25 276.811L387.25 277.26Z" fill="#231F20"/>
<path d="M387.411 277.46C387.411 277.46 353.411 234.15 305.301 234.15" stroke="#19181C" stroke-width="7.96" stroke-miterlimit="10" stroke-linecap="round"/>
<path d="M208.61 264.461C208.627 275.04 205.107 285.322 198.61 293.671C191.175 303.292 180.341 309.703 168.33 311.591C165.887 311.965 163.42 312.153 160.95 312.151C154.719 312.16 148.548 310.94 142.79 308.561C142.05 308.261 141.32 307.941 140.62 307.561C134.425 304.64 128.932 300.419 124.514 295.186C120.097 289.952 116.859 283.828 115.02 277.231C115.13 277.071 115.36 276.791 115.69 276.401C122.578 268.422 130.355 261.256 138.87 255.041C157.55 241.761 176.39 233.471 195.53 234.291L196 234.121L197.33 233.621C204.647 242.227 208.648 253.165 208.61 264.461Z" fill="#F8F9E3"/>
<path d="M208.61 264.459C207.755 253.229 203.139 242.614 195.51 234.33C195.45 234.28 195.4 234.21 195.35 234.16C195.56 234.16 195.769 234.16 195.979 234.16L197.31 233.66L198.42 232.18C201.717 236.246 204.31 240.836 206.09 245.759C208.251 251.742 209.11 258.118 208.61 264.459Z" fill="#231F20"/>
<path d="M114 276.81C114.438 278.969 115.026 281.094 115.76 283.17C117.973 289.256 121.414 294.821 125.87 299.52C130.359 304.285 135.782 308.074 141.8 310.65C147.849 313.249 154.357 314.609 160.94 314.65C167.514 314.617 174.016 313.281 180.07 310.72C186.08 308.129 191.5 304.342 196 299.59C200.457 294.888 203.892 289.314 206.09 283.22C208.26 277.236 209.12 270.855 208.61 264.51C207.673 276.823 202.212 288.353 193.28 296.88C188.769 301.125 183.464 304.438 177.67 306.63C172.343 308.685 166.68 309.73 160.97 309.71C151.192 309.716 141.654 306.679 133.68 301.02C131.894 299.751 130.196 298.361 128.6 296.86C122.676 291.239 118.246 284.232 115.71 276.47C115.471 276.729 115.247 277.003 115.04 277.29L114 276.81Z" fill="#231F20"/>
<path d="M198.89 289.53C198.894 290.911 198.8 292.292 198.61 293.66C191.175 303.281 180.341 309.692 168.33 311.58C165.888 311.955 163.421 312.142 160.95 312.14C154.72 312.149 148.549 310.929 142.79 308.55C138.595 303.105 136.323 296.423 136.33 289.55C136.333 281.252 139.63 273.295 145.498 267.428C151.365 261.56 159.322 258.262 167.62 258.26C175.913 258.262 183.865 261.558 189.729 267.422C195.592 273.286 198.888 281.237 198.89 289.53Z" fill="#040809"/>
<path d="M195.98 234.16L197.311 233.66L196.951 234.14C196.621 234.14 196.3 234.14 195.98 234.16Z" fill="#231F20"/>
<path d="M114 276.811L114.85 277.44L115.01 277.26L114 276.811Z" fill="#231F20"/>
<path d="M114.84 277.46C114.84 277.46 148.89 234.15 196.96 234.15" stroke="#19181C" stroke-width="7.96" stroke-miterlimit="10" stroke-linecap="round"/>
<path d="M186.551 350.09C186.551 350.09 241.251 324.09 289.631 324.09" stroke="#231F20" stroke-width="13.86" stroke-miterlimit="10" stroke-linecap="round"/>
</g>
<defs>
<clipPath id="clip0_6240_499">
<rect width="502.26" height="502.26" fill="white"/>
</clipPath>
</defs>
</svg>
