<svg width="1265" height="488" viewBox="0 0 1265 488" fill="none" xmlns="http://www.w3.org/2000/svg">
<g clip-path="url(#clip0_5470_18140)">
<path d="M883.2 398.301C883.2 397.801 883.2 396.801 883.2 396.801C883.1 394.201 883 391.901 882.9 389.701C882.6 385.101 882 380.401 881.1 375.901C880.6 373.101 880.1 370.801 879.5 368.501C878.8 365.901 878.1 363.301 877.1 360.701C876.8 359.801 876.5 359.001 876.2 358.101C875.8 357.001 875.3 355.901 874.7 354.601C871 346.001 865.7 337.701 859.1 329.701L858.7 329.201C858 328.301 857.3 327.501 856.5 326.701C853.7 323.601 850.6 320.601 847.3 317.801C838.7 310.601 828.5 304.501 817 299.701C811 297.201 804.8 295.201 798.9 293.701C790.5 291.601 782.2 290.601 774.1 290.601C771.5 290.601 768.9 290.701 766.4 290.901H766.3C766 290.901 765.8 290.901 765.5 291.001C755.6 291.901 746.4 293.901 738.1 297.001C732.6 299.101 727.3 301.601 722.6 304.601C720.7 305.801 718.8 307.001 716.5 308.701C707.4 315.201 698.6 323.301 690.5 332.701C686.9 336.901 683.6 341.001 680.6 345.001L696.8 305.601C698.1 302.501 699.1 299.901 699.9 297.901C700.3 296.801 700.7 295.901 701 295.001C701.6 293.301 702.1 291.401 702.5 289.301C702.9 287.301 703.2 285.101 703.4 282.801C704 275.901 702.8 269.801 699.6 264.701C698.2 262.501 696.4 260.301 694.2 258.001C692.9 256.601 691.3 255.301 689.6 253.901L689.2 253.501C684.7 249.901 679.1 246.701 671.9 243.801C667.7 242.101 663.4 241.001 659 240.501C657.6 240.401 656.2 240.301 654.7 240.301C649.2 240.301 643.6 241.401 638.1 243.501C637.4 243.601 636.7 243.801 636.1 244.101L561.4 270.801C560.6 271.101 559.8 271.401 559.1 271.601C557.5 272.201 556 272.801 554.6 273.501C549 276.001 544.5 278.801 540.9 282.101C537.2 285.501 534.4 289.301 532.7 293.501C532.4 294.301 532.1 295.201 531.8 296.101C531.7 296.301 531.7 296.501 531.6 296.701C531.4 297.401 531.2 298.101 531.1 298.601C531 298.801 531 299.001 531 299.201C530.9 299.901 530.7 300.701 530.6 301.501V301.701C530.5 302.501 530.4 303.401 530.3 304.301V304.401C529.8 312.201 531.4 321.101 535.1 331.801C539.8 345.001 547.7 354.001 558.7 358.501C562.8 360.201 567.6 361.101 572.8 361.201L534.5 454.201C533.8 455.901 533.2 457.501 532.6 458.901C532.3 459.701 532 460.401 531.7 461.201C531.2 462.701 530.7 464.001 530.3 465.201C529.9 466.301 529.6 467.301 529.4 468.301C528.1 473.101 527.7 478.501 528.4 484.301C528.5 485.401 528.7 486.601 529 487.901H621.8L636.4 452.501C636.3 453.101 636.2 453.701 636.2 454.201C636.1 455.001 636 455.801 635.9 456.701C635.8 457.401 635.7 458.201 635.7 458.901C635.6 459.901 635.5 460.901 635.4 461.901C635.4 461.901 635.3 463.301 635.2 463.701C635.1 465.301 634.9 467.001 634.9 468.701C634.8 470.401 634.7 472.201 634.7 473.901V474.301C634.6 476.701 634.6 479.201 634.7 482.101V482.901C634.7 484.101 634.8 485.301 634.8 486.501L634.9 487.401C634.9 487.501 634.9 487.701 634.9 487.901H711.6C712.7 488.001 713.8 488.001 714.8 488.101C714.9 488.301 714.9 488.501 715 488.601C714.9 488.401 714.8 488.101 714.8 487.901H731.3C731.2 487.801 731.1 487.601 731 487.501L730.9 487.401L730.7 487.101C730.6 487.001 730.5 486.801 730.5 486.701C730.4 486.601 730.4 486.401 730.3 486.401C730.2 486.301 730.2 486.101 730.1 486.001C730 485.901 730 485.701 729.9 485.601L729.5 484.601C729.4 484.401 729.3 484.101 729.2 483.901V483.801C729.1 483.601 729.1 483.501 729.1 483.301L728.9 482.801C728.8 482.501 728.8 482.301 728.7 482.001L728.6 481.601C728.5 481.301 728.5 481.001 728.4 480.701L728.3 480.401C728.1 479.301 728 478.101 728 476.801V476.501C728 476.101 728 475.601 728 475.201V474.901C728 472.801 728.2 470.501 728.4 468.001V467.901C728.5 467.301 728.6 466.601 728.7 466.001V465.901C729.1 463.201 729.7 460.201 730.5 457.101V457.001C730.7 456.201 730.9 455.401 731.1 454.601C733 447.501 735.7 439.701 739.2 431.201C751.3 401.801 764.5 385.001 775.3 385.001C777.1 385.001 779 385.401 781.1 386.301C786.4 388.501 788.9 391.801 790 397.801C791 403.601 790.9 414.601 784.4 433.901C784 434.901 783.7 436.001 783.3 437.101V437.201C782.9 438.301 782.5 439.301 782.1 440.301L781.8 441.201C781.5 442.101 781.2 442.901 780.8 443.801C780.3 445.001 779.8 446.201 779.3 447.401L778.5 449.401C773.6 461.301 768.5 471.101 763.3 478.401C761.9 480.401 760.5 482.201 759.1 483.801L759 483.901C758.1 485.001 757.1 486.001 756.2 486.901L756 487.101C755.7 487.401 755.4 487.701 755.1 487.901H774.9C774.8 488.001 774.8 488.101 774.7 488.201C774.8 488.101 774.8 488.001 774.9 487.901H863.7C864.4 486.301 865 484.801 865.6 483.401C865.6 483.401 865.6 483.401 865.6 483.301C867.8 477.901 869.9 472.401 871.7 466.901C872.2 465.501 872.6 464.101 873.1 462.801C873.5 461.401 874 460.001 874.4 458.601C875.2 455.801 876 453.001 876.8 450.201C879.9 438.701 881.9 425.601 882.9 411.101C882.9 411.001 882.9 410.801 882.9 410.801C883 409.301 883.1 407.801 883.1 406.101C883.1 405.501 883.1 404.901 883.1 404.401V403.901C883.1 403.101 883.1 402.201 883.2 401.401C883.2 400.201 883.2 399.301 883.2 398.301Z" fill="black"/>
<path d="M736.5 155.601C736.5 155.501 736.5 155.501 736.5 155.401C735.6 149.901 734.2 145.201 732.3 141.201C731.8 140.001 731.2 139.001 730.7 138.101C729.7 136.301 728.4 134.401 726.8 132.101C725 129.501 722.9 126.601 720.4 123.401L626 -0.199219H452.5L444.2 44.7008C444 45.7008 443.8 46.7008 443.7 47.7008C442.3 56.2008 442.1 63.6008 443 70.2008C444 77.2008 446.4 83.3008 450.2 88.2008C450.8 89.0008 451.5 89.8008 452.2 90.6008C452.4 90.8008 452.5 90.9008 452.7 91.1008C453.3 91.7008 453.9 92.3008 454.5 92.9008L454.9 93.2008C455 93.3008 455 93.3008 455.1 93.4008C451.3 90.9008 447.4 88.6008 443.3 86.4008C443.2 86.4008 443.1 86.3008 443 86.3008C441.9 85.7008 440.7 85.1008 439.6 84.6008C433.2 81.5008 426.4 79.0008 419.3 77.0008C407.5 73.8008 394.6 72.1008 381.1 72.1008C375.5 72.1008 369.9 72.4008 364.5 72.9008C363.9 73.0008 363.4 73.0008 362.8 73.1008H362.5C360.8 73.3008 359.2 73.5008 357.5 73.8008C343.3 76.0008 330.4 80.0008 318.7 86.0008L318.4 86.1008C318.1 86.2008 317.8 86.4008 317.5 86.6008C306.9 92.2008 297.4 98.7008 289.5 106.001C283.9 111.101 278.9 116.701 274.8 122.501C273.4 124.401 272 126.501 270.4 129.101C263.1 140.501 256.9 153.601 252 167.901L251.7 168.701C251.5 169.301 251.3 169.801 251.1 170.401C250.8 171.201 250.6 172.001 250.3 172.901L250 173.901C244.8 190.201 241.3 205.301 239.6 218.701C238.3 229.301 237.4 240.201 237.1 251.001C237 252.501 237 253.901 237 255.401V133.701C237 128.801 236.9 124.701 236.8 121.701C236.8 120.801 236.7 120.001 236.7 119.301C236.6 117.001 236.2 114.501 235.6 111.701C235.1 109.501 234.5 107.101 233.7 104.601C231.3 97.0008 227.4 91.2008 221.9 87.2008C220.3 86.1008 218.5 85.0008 216.5 84.0008C213.3 82.4008 209.7 81.0008 205.5 79.7008C205.5 79.7008 205.4 79.7008 205.3 79.7008C198.6 77.7008 190.8 76.8008 181.3 76.8008C175.5 76.8008 169.9 77.7008 164.5 79.4008C156.9 81.9008 149.9 86.1008 143.7 92.0008L143.5 92.2008C142.9 92.6008 142.3 93.1008 141.8 93.5008L66.3002 161.601C65.5002 162.301 64.8002 163.001 64.0002 163.701C57.4002 169.901 52.6002 175.801 49.4002 181.901C46.3002 187.801 44.7002 193.701 44.7002 199.501C44.7002 200.501 44.7002 201.501 44.8002 202.601C44.8002 202.801 44.8002 203.101 44.9002 203.301C45.0002 204.101 45.1002 204.901 45.2002 205.801L45.3002 206.201C45.5002 207.101 45.7002 208.001 45.9002 208.901L46.0002 209.201C46.3002 210.101 46.5002 211.101 46.8002 212.001C46.8002 212.101 46.8002 212.101 46.8002 212.101C49.8002 221.001 55.7002 230.401 65.1002 240.801C76.3002 253.301 89.1002 259.601 103 259.601C109.9 259.601 117.3 257.701 125.3 253.701V389.201C125.3 397.301 125.6 403.301 126.1 407.801C126.8 413.601 128.9 419.601 132.2 425.701C135.2 431.101 141.3 438.401 153.3 442.201C160.7 444.501 169.7 445.701 180.9 445.701C192.4 445.701 201.5 444.601 208.9 442.201C218.4 439.201 225.7 433.301 230 425.301C232.8 420.101 234.6 415.401 235.5 410.801C235.7 409.701 235.9 408.801 236 407.901C236.3 405.901 236.4 403.601 236.6 400.901C236.8 397.801 236.8 394.201 236.8 390.101V268.001C237 281.301 237.9 294.301 239.4 306.801C239.6 308.901 240 311.201 240.4 313.801C241.1 318.301 242 323.001 243.1 327.801C243.1 327.801 243.4 329.101 243.5 329.501C243.8 330.601 244 331.801 244.3 332.901C244.5 333.701 244.7 334.501 244.9 335.401C245.2 336.401 245.4 337.401 245.7 338.501C246 339.501 246.3 340.501 246.5 341.501L246.6 341.701C246.8 342.501 247.1 343.401 247.3 344.201C247.7 345.401 248.1 346.701 248.4 347.901L248.6 348.601C248.8 349.101 248.9 349.601 249.1 350.101C249.7 352.101 250.4 354.101 251.1 356.101C252.9 361.301 255 366.601 257.2 371.801L257.6 372.801C258.2 374.201 258.9 375.601 259.5 376.901C259.6 377.101 260 377.901 260 377.901C261.3 380.501 262.6 383.101 263.9 385.501L264 385.701C264.1 386.001 264.3 386.201 264.4 386.501C264.8 387.301 265.3 388.001 265.7 388.701L266 389.101C266.5 390.001 267 390.801 267.5 391.701C268 392.501 268.4 393.201 268.9 393.901C269.6 394.901 270.2 395.901 270.9 396.901L271.2 397.301C271.5 397.701 271.8 398.201 272.1 398.601C273.2 400.201 274.3 401.701 275.3 403.101L275.4 403.201C285.8 417.001 300.3 428.601 318.4 437.701C336.6 446.901 357.8 451.501 381.6 451.501C386.1 451.501 390.6 451.301 395.1 450.901C412.3 449.401 428.3 445.101 442.5 437.901C452.6 432.801 461.6 426.901 469.2 420.201C475.1 415.001 480.4 409.301 484.9 403.201C494.6 389.901 502.7 374.301 508.9 356.701C514.9 339.501 518.9 323.101 520.9 307.801C521.3 304.601 521.7 301.101 522.1 297.601C523.1 287.401 523.7 276.901 523.8 266.401C523.8 264.901 523.8 263.401 523.8 261.901C523.8 250.701 523.2 239.401 522.1 228.301C521.7 224.701 521.3 221.201 520.9 217.801C519.9 210.001 518.2 201.601 516.1 192.801C515.4 190.001 514.6 187.101 513.8 184.101C512.4 179.101 510.9 174.001 509.2 169.201L509.1 169.001C508.5 167.201 507.8 165.301 507.1 163.401C506.8 162.701 506.6 162.001 506.3 161.401L506 160.801C505.6 159.801 505.2 158.901 504.9 157.901C504.5 156.801 504 155.701 503.5 154.501C503.2 153.901 503 153.301 502.7 152.701C501.2 149.301 499.9 146.501 498.6 144.001C498.5 143.701 498.3 143.501 498.2 143.201C495.3 137.501 492.1 132.001 488.7 127.001C488.5 126.701 488.3 126.401 488.1 126.101L488 126.001C487.1 124.701 486.1 123.201 485 121.701C484.8 121.401 484.6 121.201 484.4 120.901L484.2 120.601C483.6 119.801 483 119.001 482.4 118.301C476.8 111.401 470.3 105.001 462.8 99.3008C470.2 103.501 479.6 106.601 491.3 108.801C495.7 109.601 499.9 110.001 503.9 110.001C515.1 110.001 524.9 106.901 533 100.601C538.5 96.4008 543.3 90.2008 547.3 82.1008L630.4 190.701C635.3 197.101 639.3 201.801 642.4 205.101C646.5 209.301 651.8 212.801 658.2 215.601C662.4 217.501 666.9 218.401 671.6 218.401C676 218.401 680.5 217.601 685.1 215.901C692.4 213.301 700.3 208.601 709.2 201.801C718.4 194.801 725 188.301 729.5 181.901C735.8 173.801 738 164.601 736.5 155.601ZM380 339.401C379.5 339.401 378.9 339.401 378.3 339.301H377.7C377.3 339.301 377 339.201 376.7 339.201C376.7 339.201 376.2 339.201 376.1 339.101C375.8 339.101 375.4 339.001 375.1 338.901L374.6 338.801C374.2 338.701 373.8 338.601 373.4 338.501L373 338.401C372.7 338.301 372.4 338.201 372.1 338.101L371.9 338.001L371.6 337.901C371.3 337.801 371.1 337.701 370.8 337.601C370.6 337.501 370.5 337.501 370.3 337.401C370.1 337.301 369.8 337.201 369.6 337.001L369.3 336.801L369 336.701C368.7 336.601 368.5 336.401 368.2 336.201L368 336.001L367.6 335.701C367.4 335.601 367.2 335.401 367 335.301C366.8 335.201 366.6 335.001 366.5 334.901C366.3 334.701 366.1 334.601 366 334.501C365.8 334.301 365.6 334.201 365.5 334.001C365.5 334.001 365.5 334.001 365.4 333.901C365.3 333.801 365.2 333.701 365 333.501L364.8 333.301C364.7 333.201 364.5 333.101 364.4 332.901L364.2 332.701C363.9 332.401 363.6 332.101 363.4 331.801C363.4 331.701 363.3 331.701 363.2 331.601C363 331.401 362.9 331.201 362.7 331.001L362.2 330.401C362 330.101 361.8 329.801 361.5 329.501C361.4 329.301 361.3 329.201 361.1 329.001C360.9 328.601 360.6 328.301 360.4 328.001L360.2 327.601C359.4 326.201 358.6 324.701 357.8 323.101L357.6 322.801C357.3 322.301 357.1 321.701 356.9 321.101L356.7 320.701C355.6 318.001 354.6 315.001 353.7 311.901V311.801C353.5 311.001 353.3 310.101 353 309.301V309.201C352.1 305.601 351.3 301.601 350.7 297.601C350.7 297.501 350.7 297.501 350.7 297.401C350.5 296.401 350.4 295.301 350.2 294.201C349 284.701 348.3 273.801 348.3 261.901C348.3 210.101 359.1 183.901 380.3 183.901C387.1 183.901 407.9 183.901 411.7 242.701C411.8 244.101 411.9 245.601 411.9 247.101C411.9 247.101 411.9 247.201 411.9 247.301C412 248.801 412 250.201 412.1 251.701V252.801C412.1 254.001 412.2 255.201 412.2 256.401C412.2 258.101 412.2 259.801 412.2 261.501V264.301C412.2 281.201 410.9 295.601 408.3 307.101C407.6 310.201 406.8 313.201 405.9 316.001V316.101C405.3 318.001 404.6 319.701 403.9 321.401L403.8 321.701C403.1 323.201 402.4 324.601 401.7 326.001L401.5 326.401C401.3 326.801 401 327.201 400.8 327.501L400.5 327.901C400.1 328.501 399.7 329.101 399.3 329.701L399 330.101C398.8 330.401 398.6 330.601 398.4 330.901C398.3 331.101 398.1 331.201 398 331.401C397.7 331.801 397.3 332.201 397 332.501C397 332.501 396.6 332.901 396.5 333.001C396.3 333.201 396.2 333.301 395.9 333.601C395.7 333.701 395.6 333.901 395.4 334.101C395.2 334.201 395.1 334.401 394.9 334.501L394.4 334.901L393.9 335.301L393.4 335.701C393.2 335.801 393 336.001 392.8 336.101C392.7 336.201 392.5 336.301 392.4 336.301C392.3 336.401 392.2 336.401 392.2 336.401C392 336.601 391.7 336.701 391.5 336.801C391.3 336.901 391.2 337.001 391 337.101C390.7 337.201 390.4 337.401 390.1 337.601C390 337.701 389.8 337.701 389.7 337.801C389.4 337.901 389.1 338.001 388.8 338.101L388.3 338.301C387.9 338.401 387.5 338.601 387.1 338.701L386.7 338.801C386.3 338.901 386 339.001 385.6 339.101L385.2 339.201C384.7 339.301 384.3 339.401 383.8 339.401L383.4 339.501C383 339.501 382.5 339.601 382 339.601H381.5C381.1 339.301 380.5 339.401 380 339.401Z" fill="black"/>
<path d="M1264.2 241.4C1263.1 242.7 1262.1 243.9 1261.2 245C1251.6 256.6 1242.8 268.5 1235 280.3C1231.1 286.2 1227.2 292.8 1223.5 299.9C1223.5 299.9 1222.8 301.2 1222.6 301.5C1222 302.6 1221.5 303.7 1220.9 304.8C1220.5 305.6 1220.1 306.4 1219.7 307.2C1219.2 308.2 1218.7 309.2 1218.3 310.3C1217.8 311.3 1217.4 312.3 1216.9 313.3C1216.5 314.2 1216.1 315.1 1215.7 316.1C1215.2 317.3 1214.6 318.6 1214.1 319.9L1213.8 320.6C1213.6 321.1 1213.4 321.6 1213.1 322.2C1212.2 324.4 1211.4 326.5 1210.6 328.5C1204 345.4 1199.9 362 1198.4 377.8L1198.3 378.7C1198.1 380.5 1198 382.1 1198 383.5C1197.5 391.9 1198.1 400.4 1199.6 409.2C1204.3 404.2 1208.7 398.9 1212.9 393.5C1218 387 1222.8 380.2 1227.2 373.1C1230.9 367.3 1234.3 361.3 1237.4 355.1C1239.1 351.9 1240.6 348.7 1242.1 345.4C1244.9 339.3 1247.4 333.1 1249.7 326.8C1252.4 319.3 1254.8 311.6 1256.8 303.8C1259.8 291.8 1262 279.3 1263.2 266.7C1263.9 259.8 1264.2 252.7 1264.2 245.6C1264.2 245 1264.2 244.4 1264.2 243.9C1264.2 243 1264.2 242.2 1264.2 241.4Z" fill="black"/>
<path d="M1167.1 410.501L1166.9 410.401C1166.6 410.201 1166.2 410.001 1165.9 409.801C1165.1 409.401 1164.3 409.001 1163.5 408.501C1159.1 406.201 1154.3 404.401 1149.3 402.901C1141.4 400.601 1132.8 399.301 1123.7 399.101C1122.9 399.101 1122 399.101 1121.2 399.101C1116.4 399.101 1111.7 399.401 1107.1 400.001C1098.3 401.201 1090 403.501 1082.4 407.001C1081.7 407.301 1080.9 407.701 1080.2 408.001C1073 411.601 1066.6 415.801 1061 420.601C1056.9 424.201 1053.3 428.001 1050.3 432.001C1049 433.701 1047.7 435.601 1046.3 437.801C1042 444.401 1038.2 451.901 1035.1 459.901L1035.5 442.101C1035.6 439.001 1035.6 436.501 1035.6 434.501C1035.6 433.801 1035.6 433.101 1035.6 432.501C1035.5 430.301 1035.2 428.001 1034.6 425.401C1034.3 424.101 1034 422.901 1033.7 421.801C1032 415.701 1028.9 411.001 1024.4 407.701C1022.6 406.301 1020.5 405.101 1018.1 404.001C1016.3 403.201 1014.4 402.501 1012.3 401.801C1007.5 400.301 1002 399.501 995.4 399.401C995.1 399.401 994.8 399.401 994.5 399.401C990.3 399.401 986.1 400.001 982.2 401.301C976.9 403.001 972 405.901 967.7 409.801C967.2 410.201 966.7 410.501 966.2 411.001L916.7 453.801C916.2 454.301 915.6 454.701 915.1 455.201C911.3 458.601 908.3 461.901 906 465.401C902.4 470.801 900.5 476.301 900.4 481.901C900.4 482.701 900.4 483.501 900.5 484.401C900.5 484.601 900.5 484.801 900.6 485.001C900.6 485.601 900.7 486.201 900.8 486.901V487.201C900.8 487.401 900.9 487.601 900.9 487.801H1020.3C1026.7 487.801 1033.1 487.501 1039.4 487.101C1040.4 487.001 1041.5 486.901 1042.5 486.801C1043.4 486.701 1044.2 486.601 1045.1 486.501C1066.2 484.401 1086.5 479.601 1105.7 472.401C1110.4 470.601 1115 468.801 1119.5 466.701C1123.3 465.001 1127.1 463.201 1130.7 461.301C1131.8 460.701 1133 460.101 1134.1 459.501C1139.6 456.601 1145 453.501 1150.2 450.201C1151.4 449.401 1152.6 448.701 1153.8 447.901C1154.3 447.601 1154.7 447.301 1155.2 447.001C1159.3 444.301 1163.3 441.401 1167.2 438.501C1169.3 436.901 1171.4 435.301 1173.4 433.701C1177.3 430.601 1181.1 427.301 1184.8 423.901C1179.8 418.701 1173.8 414.301 1167.1 410.501Z" fill="black"/>
<path d="M1263.7 228.6C1263.5 225.7 1263.3 222.8 1263 219.9C1262.9 218.8 1262.8 217.7 1262.7 216.7C1262.2 212.1 1261.6 207.6 1260.8 203.2C1259.7 196.4 1258.2 189.7 1256.6 183.1C1247.6 148 1231 115.9 1208.6 88.7004C1204.5 83.7004 1200.2 78.9004 1195.7 74.2004C1194.1 72.5004 1192.4 70.9004 1190.8 69.3004C1189.6 68.1004 1188.4 67.0004 1187.2 65.9004C1184.6 63.4004 1181.9 61.0004 1179.1 58.6004C1177.9 57.5004 1176.6 56.5004 1175.4 55.5004C1172.7 53.3004 1170 51.1004 1167.2 49.0004C1166.4 48.4004 1165.6 47.8004 1164.9 47.2004C1164.8 47.2004 1164.8 47.2004 1164.8 47.3004C1158.7 49.9004 1153.7 53.4004 1150 57.8004C1149.3 58.6004 1148.7 59.4004 1148 60.4004C1147.9 60.6004 1147.7 60.8004 1147.6 61.0004C1147.1 61.7004 1146.7 62.4004 1146.2 63.2004L1145.9 63.6004C1145.4 64.4004 1145 65.3004 1144.5 66.1004L1144.4 66.4004C1143.9 67.3004 1143.5 68.3004 1143.1 69.3004C1143.1 69.3004 1143.1 69.3004 1143.1 69.4004C1139.4 78.6004 1137.8 90.3004 1138.3 105.1C1138.8 122.7 1144.7 136.5 1155.9 145.9C1161.7 150.9 1169.5 154.4 1179.5 156.7L1122.5 224C1123.2 219.3 1122.8 213.2 1119.5 206.3C1116.9 201 1112.8 195.5 1107.1 189.4C1101.2 183.2 1095.8 178.8 1090.6 175.9C1085.8 173.3 1080.8 171.9 1075.8 171.9C1073.3 171.9 1070.8 172.2 1068.4 172.9C1068.3 172.9 1068.2 172.9 1068.1 173C1063.8 174.2 1060.3 175.7 1057.2 177.6C1056.4 178.1 1055.8 178.5 1055.2 178.9C1053.9 179.8 1052.5 180.9 1050.9 182.3C1049.2 183.8 1047.3 185.5 1045.2 187.5L1025.2 206.5C1025.3 206.4 1025.4 206.2 1025.4 206.1C1026.1 204.8 1026.8 203.4 1027.5 202.1C1029.4 198.5 1031.1 194.8 1032.7 191L1033 190.3C1033.4 189.3 1033.8 188.3 1034.2 187.2L1034.5 186.5C1035.2 184.5 1035.9 182.5 1036.5 180.6C1036.5 180.6 1036.7 180.1 1036.8 179.8C1037 179.2 1037.2 178.6 1037.3 178L1037.4 177.6C1037.6 176.9 1037.8 176.2 1038 175.5C1038.2 174.9 1038.3 174.3 1038.5 173.7C1038.7 172.8 1038.9 172 1039.1 171.1L1039.2 170.8C1039.3 170.4 1039.4 170 1039.5 169.6C1039.8 168.1 1040 166.8 1040.3 165.6V165.5C1042.4 152.8 1041.3 139.1 1036.9 124.7C1032.6 110.3 1024.2 96.5004 1012.2 83.9004C1011.5 83.2004 1010.8 82.4004 1010.1 81.7004L1009.9 81.5004C999.1 70.7004 986.9 62.8004 973.9 58.2004C969.6 56.7004 965.3 55.4004 961.2 54.5004C957.8 53.8004 954.4 53.2004 951.1 52.9004C949.5 52.7004 947.9 52.6004 946.2 52.6004C946.1 52.6004 946 52.6004 946 52.6004C945.1 52.6004 944.1 52.6004 943.2 52.6004C939.9 52.6004 936.7 52.8004 933.5 53.2004C931 53.5004 928.5 53.9004 925.7 54.5004C923.5 54.9004 921.6 55.4004 919.8 55.8004C919.4 55.9004 919 56.0004 918.6 56.1004L918.2 56.2004C912.9 57.6004 907.5 59.4004 902.2 61.6004C900.2 62.4004 898.4 63.2004 896.8 63.9004C895.9 64.3004 895 64.7004 894.1 65.2004C902.5 56.0004 909.4 45.9004 914.5 35.3004C918.3 27.5004 921.3 19.6004 923.3 11.8004C923.6 10.7004 923.9 9.60039 924.2 8.40039C924.5 7.20039 924.8 5.90039 925.1 4.50039C925.4 3.00039 925.7 1.40039 925.9 -0.199609H755.5C755.3 -0.299609 755.1 -0.499609 755 -0.599609C755.2 -0.499609 755.3 -0.299609 755.5 -0.199609H627.4C628.7 1.70039 629.9 3.60039 631.2 5.50039C634.6 10.4004 638.1 15.3004 641.7 19.9004C651.2 32.4004 661.3 44.1004 671.7 54.7004C673.2 56.2004 674.8 57.8004 676.7 59.6004L676.8 59.7004C680.1 62.8004 683.7 66.1004 687.5 69.2004C687.5 69.2004 688.5 70.1004 688.8 70.3004C689.7 71.0004 690.6 71.8004 691.5 72.5004C692.2 73.0004 692.8 73.6004 693.5 74.1004C694.3 74.7004 695.2 75.4004 696 76.1004C696.8 76.7004 697.6 77.4004 698.5 78.0004C699.3 78.6004 700 79.1004 700.8 79.7004C701.8 80.5004 702.9 81.2004 703.9 81.9004L704.5 82.3004C704.9 82.6004 705.4 82.9004 705.8 83.2004C707.5 84.4004 709.3 85.6004 711.1 86.8004C712.7 87.9004 714.4 89.0004 716.3 90.1004C716.8 90.4004 717.2 90.7004 717.7 91.0004C729.8 98.4004 742.1 104.1 754.2 108L755 108.3C756.6 108.8 758 109.2 759.3 109.6C768.5 112.2 778.4 113.5 788.7 113.5C797 113.5 805.8 112.6 814.8 110.9C822.9 109.4 830.9 107 838.9 103.7C837.2 105.3 835.5 107 833.8 108.7L833.7 108.8C830.8 111.8 827.8 115 824.6 118.6C822 121.6 819.8 124.1 817.8 126.6C814.9 130.3 811.9 134.4 808.9 138.8C808 140.2 807.1 141.5 806.2 142.9L806.1 143.1C805.7 143.7 805.3 144.4 804.9 145C803.5 147.3 802 149.8 800.6 152.3C799.7 153.8 798.9 155.4 798.1 156.9C798.1 157 798 157 798 157.1C797.3 158.3 796.7 159.6 796 161C795.8 161.5 795.5 162 795.3 162.5L795.1 162.9C794.8 163.6 794.4 164.3 794.1 164.9C793.7 165.7 793.4 166.5 793 167.4C792.8 167.8 792.3 169.1 792.3 169.1C792.1 169.5 792 169.8 791.8 170.2C790.3 173.8 789 177.6 787.9 181.4C786.6 185.6 785.6 189.8 784.9 193.8C782.6 206.6 783.5 220.4 787.6 234.6C789.7 241.9 792.8 249 796.8 255.8C797.3 256.7 797.8 257.5 798.4 258.3C802.1 264 806.5 269.7 811.6 275C815.8 279.4 820.3 283.5 824.9 287C832.5 292.9 840.7 297.5 849.1 300.7C849.9 301 850.8 301.3 851.6 301.6C861.4 304.9 871 306.7 880.1 306.9C880.8 306.9 881.4 306.9 882.1 306.9C885.7 306.9 889.3 306.6 892.8 306.2C895 305.9 897.3 305.5 900 304.9C908.7 303.1 917.6 300.2 926.4 296.3C927.6 295.8 928.8 295.2 930.1 294.6C930.6 294.4 931 294.2 931.5 293.9L932.2 293.6C932.9 293.3 933.5 293 934.2 292.6L913.4 312.4C911.2 314.5 909.3 316.3 907.9 317.8C907.2 318.5 906.6 319.2 906 319.7C904.6 321.2 903.2 322.9 901.9 324.9C901 326.2 900.1 327.7 899.3 329.2C896.1 334.9 894.8 340.7 895.6 346.4C895.9 348.6 896.5 350.9 897.4 353.4C897.6 353.9 897.8 354.5 898 355C898.6 356.6 899.4 358.2 900.3 359.9C902.7 364.7 906.3 369.5 911.2 374.6C914.4 378 918.1 380.8 922.1 382.9C922.7 383.2 923.4 383.5 924 383.8C924.7 384.1 925.5 384.5 926.2 384.8C930.5 386.5 935.1 387.5 939.9 387.8C940.6 387.9 941.2 388 941.9 388.1L1013.5 393.6C1014.3 393.7 1015 393.7 1015.8 393.8C1016.6 393.9 1017.3 393.9 1018.1 393.9C1018.8 393.9 1019.5 393.9 1020.2 393.9C1024.8 393.9 1029 393.4 1032.7 392.5C1038.4 391.1 1043.2 388.6 1046.9 385C1047.5 384.4 1048.1 383.8 1048.7 383.1C1048.8 382.9 1049 382.8 1049.1 382.6C1049.5 382.1 1049.9 381.6 1050.4 381L1050.6 380.7C1051 380.1 1051.5 379.5 1051.9 378.8L1052 378.6C1052.4 377.9 1052.8 377.2 1053.2 376.5C1053.2 376.5 1053.2 376.5 1053.2 376.4C1056.6 370 1058.7 361.8 1059.5 351.4C1060.8 335.1 1054.8 325 1049.5 319.5C1047 316.9 1043.9 314.6 1040.2 312.6L1076.4 278.2C1074.7 280.4 1073.3 282.4 1072.1 284.2C1071.3 285.4 1070.6 286.6 1069.9 288C1069.8 288.2 1069.7 288.4 1069.6 288.5C1067.5 292.6 1065.9 297.4 1064.9 302.7C1063.1 311.8 1065 321.2 1070.6 330C1074.9 336.9 1081.5 344 1090.5 351.7C1099.8 359.6 1108 364.9 1115.5 368.1C1120.7 370.3 1125.8 371.4 1130.9 371.4C1135.3 371.4 1139.6 370.6 1143.7 369C1148.8 367 1152.9 364.8 1156.5 362.2C1157.8 361.2 1159.1 360.2 1160.3 359.2C1162.1 357.6 1164.1 355.6 1166.4 353.1C1167.6 351.8 1168.9 350.3 1170.4 348.6C1171.3 347.6 1172.3 346.5 1173.3 345.3L1264.1 238C1264.1 235 1263.9 231.8 1263.7 228.6ZM924.1 147.3C925.9 146.2 927.7 145.3 929.4 144.5L929.5 144.4C930.6 143.9 931.8 143.4 932.9 143L933.1 142.9C934.1 142.6 935 142.3 935.9 142H936.1C936.4 141.9 936.6 141.9 936.9 141.8H937.2C937.6 141.7 938 141.6 938.5 141.6H938.8C939 141.6 939.2 141.6 939.3 141.5H939.6C939.9 141.5 940.2 141.5 940.4 141.5H940.9C941 141.5 941.5 141.5 941.6 141.5H942C942.2 141.5 942.4 141.6 942.5 141.6L942.9 141.7C943 141.7 943.1 141.7 943.3 141.8L943.6 141.9C943.7 141.9 943.9 142 944 142L944.3 142.1C944.5 142.2 944.6 142.2 944.8 142.3L945 142.4C945.1 142.5 945.3 142.5 945.4 142.6L945.7 142.7C945.9 142.8 946 142.9 946.2 143L946.4 143.1C946.6 143.2 946.7 143.3 946.9 143.4L947.1 143.5C947.3 143.6 947.5 143.8 947.7 143.9L947.9 144.1C948.1 144.3 948.3 144.4 948.5 144.6L948.7 144.8C948.9 145 949.2 145.3 949.4 145.5C949.6 145.7 949.8 145.9 950 146.1L950.2 146.4C950.3 146.5 950.4 146.7 950.6 146.9L950.8 147.2C950.9 147.3 951 147.5 951.1 147.7L951.3 148C951.4 148.2 951.5 148.3 951.5 148.4L951.6 148.6C951.7 148.7 951.7 148.9 951.8 149.1L951.9 149.2C951.9 149.2 952 149.5 952.1 149.6L952.2 149.8C952.2 149.9 952.3 150.1 952.3 150.2L952.4 150.4C952.4 150.4 952.5 150.8 952.5 150.9V151.1C952.5 151.1 952.6 151.6 952.6 151.7C952.6 151.8 952.6 152 952.6 152.1C952.6 152.2 952.6 152.3 952.6 152.5C952.6 152.6 952.6 152.7 952.6 152.9V153.8C952.6 154 952.6 154.2 952.5 154.4L952.4 155.3C952.4 155.5 952.3 155.7 952.3 156L952.2 156.3C952.1 156.5 952.1 156.8 952 157L951.9 157.3C951.6 158.2 951.3 159.2 950.9 160.2L950.8 160.4C950.7 160.7 950.5 161.1 950.3 161.5L950.2 161.8C949.4 163.5 948.5 165.3 947.4 167.2L947.3 167.3C947 167.8 946.7 168.3 946.4 168.8L946.3 168.9C945 171 943.4 173.2 941.7 175.4C941.3 176 940.8 176.6 940.3 177.2C936.2 182.3 931 187.8 925 193.5C901.7 215.6 889.1 219 883.7 219C880.6 219 878.2 217.9 875.7 215.3C868.7 207.9 873.7 194.9 890.6 176.6C891.3 175.9 892 175.1 892.7 174.4L892.8 174.3C893.5 173.6 894.2 172.8 894.9 172.1L895.5 171.5C896.1 170.9 896.7 170.3 897.3 169.7C898.1 168.9 899 168.1 899.8 167.3L901.2 165.9C909.4 157.6 917.2 151.5 924.1 147.3Z" fill="black"/>
<path d="M678.9 309.6L679.4 308.3C679.5 308 679.6 307.8 679.7 307.6L682.9 299.8C684.7 295.4 686 292.1 686.8 289.9C687.6 287.8 688.1 284.9 688.4 281.3C688.7 277.7 688.2 274.8 686.8 272.5C685.4 270.2 683 267.8 679.7 265.1C676.4 262.4 671.9 259.9 666.1 257.5C665.6 257.3 665.2 257.1 664.7 257C663.8 256.7 662.9 256.4 662 256.2C661.9 256.2 661.7 256.1 661.6 256.1C661.3 256 661 256 660.7 255.9C660.6 255.9 660.5 255.8 660.3 255.8C659.9 255.7 659.5 255.6 659 255.6C658.6 255.5 658.2 255.5 657.7 255.4C657.6 255.4 657.5 255.4 657.4 255.4C656.2 255.3 655 255.2 653.9 255.3C653.6 255.3 653.3 255.3 653 255.3C652.7 255.3 652.4 255.3 652.1 255.4C651.9 255.4 651.8 255.4 651.6 255.4C651.3 255.4 651.1 255.5 650.8 255.5C650.3 255.6 649.8 255.6 649.3 255.8C649 255.9 648.8 255.9 648.5 255.9C648 256 647.5 256.1 647 256.3C646.6 256.4 646.2 256.5 645.8 256.6C645.4 256.7 645 256.8 644.6 257C644.1 257.2 643.6 257.4 643 257.6C642.7 257.7 642.5 257.8 642.2 257.9L640.9 258.2L566.2 284.9C555.3 288.7 548.7 293.5 546.3 299.2C545.6 301 545.1 303.1 544.9 305.4C544.5 311 545.8 318.1 548.9 326.8C552.1 335.9 557.2 341.9 564.1 344.7C570.1 347.2 579 346.8 590.9 343.7L596.9 341.5L574.2 396.6L555.7 441.5L548.1 460C545.9 465.3 544.4 469.4 543.6 472.3C542.8 475.2 542.6 478.6 543.1 482.6C543.1 482.8 543.2 483.1 543.2 483.3C543.2 483.5 543.3 483.6 543.3 483.8C543.3 484.1 543.4 484.4 543.5 484.7C543.5 484.8 543.6 485 543.6 485.1C543.7 485.4 543.8 485.7 543.9 486.1C544 486.3 544 486.5 544.1 486.7C544.2 486.9 544.3 487.1 544.4 487.3C544.5 487.5 544.6 487.7 544.7 487.9H605.3C605.7 487 606.1 486 606.5 484.9L613.6 467.7L629.7 428.6L678.2 310.9C678.6 310.3 678.7 309.9 678.9 309.6Z" fill="#F9F18B"/>
<path d="M868.2 398.8C868.2 398.1 868.2 397.3 868.2 396.6C868.2 395.8 868.2 394.9 868.1 394.1C867.9 389 867.3 384.2 866.5 379.4C866.4 378.7 866.3 378 866.1 377.4C866 377 865.9 376.5 865.8 376.1C865.7 375.6 865.6 375.2 865.5 374.8C865.3 373.9 865.1 373.1 864.9 372.2C862 360.7 856.1 349.6 847.2 338.9C838.3 328.2 826.3 319.8 811.2 313.6C795.7 307.2 780.9 304.7 766.8 306C752.7 307.3 740.5 311.1 730.4 317.4C720.3 323.7 710.8 332.1 701.8 342.5C692.8 352.9 685.7 362.8 680.5 372C675.3 381.2 670.6 390.8 666.5 400.8C665.7 402.7 665 404.6 664.2 406.5C660.7 415.4 657.8 424.3 655.3 433.1C654.9 434.7 654.4 436.3 654 438C653.9 438.6 653.7 439.2 653.6 439.8C653.4 440.7 653.2 441.5 653 442.4C653 442.5 653 442.5 653 442.6C652.8 443.5 652.6 444.4 652.5 445.3C652.3 446.6 652 447.8 651.8 449.1C651.6 450.4 651.4 451.7 651.2 453C651 454.3 650.8 455.6 650.7 457C650.5 458.3 650.4 459.7 650.3 461.1C650 463.9 649.8 466.7 649.6 469.6C649.4 472.6 649.3 475.5 649.3 478.4C649.3 479 649.3 479.7 649.3 480.3V480.7C649.3 481.2 649.3 481.7 649.3 482.2C649.3 482.4 649.3 482.6 649.3 482.7C649.3 483.3 649.4 484 649.4 484.7C649.4 485.1 649.4 485.5 649.5 486C649.5 486.6 649.6 487.3 649.6 487.9H711.2C712.3 488 713.4 488 714.4 488.1C714.4 488 714.4 488 714.3 487.9C714.2 487.6 714.1 487.2 714 486.8C713.8 486 713.6 485.2 713.4 484.4C713.2 483.6 713.1 482.7 713 481.8C712.9 481.4 712.9 480.9 712.8 480.5C712.7 480.1 712.7 479.6 712.7 479.1C712.7 478.7 712.6 478.4 712.6 478.1C712.5 476.6 712.5 475.1 712.5 473.5C712.5 473.1 712.5 472.6 712.5 472.2C712.5 471.5 712.6 470.8 712.6 470.1C712.7 469.4 712.7 468.7 712.8 468C712.9 467.5 712.9 467 713 466.6C713.2 465.1 713.4 463.6 713.6 462.1C713.7 461.5 713.8 460.9 713.9 460.3C714 459.9 714 459.5 714.1 459.2C714.3 458.1 714.5 456.9 714.8 455.8C715.1 454.7 715.3 453.6 715.6 452.5C715.7 451.9 715.9 451.4 716 450.8C718.1 443.1 721 434.7 724.8 425.5C743.2 380.8 763.7 363.1 786.3 372.4C806.3 380.7 810.2 402.8 798.1 438.7C797.7 439.9 797.3 441.1 796.8 442.4C796.5 443.2 796.2 443.9 796 444.7C795.7 445.6 795.3 446.6 794.9 447.5C794.2 449.3 793.5 451.2 792.7 453.1L791.9 455.1C791.4 456.3 790.9 457.5 790.4 458.7C790.2 459.1 790 459.6 789.8 460C789.6 460.5 789.3 461 789.1 461.6C788.9 462.1 788.6 462.6 788.4 463.1C785.4 469.8 782.3 475.7 779.1 480.9C778.6 481.7 778.1 482.5 777.6 483.3C776.8 484.6 775.9 485.8 775.1 487C774.9 487.3 774.7 487.6 774.4 487.9H846.8C847.5 486.3 848.2 484.8 848.9 483.2C848.9 483.2 848.9 483.2 848.9 483.1C849.1 482.7 849.2 482.3 849.4 481.9C849.5 481.6 849.7 481.3 849.8 481.1C850 480.6 850.2 480.1 850.5 479.6C850.8 479 851.1 478.3 851.3 477.6C851.7 476.6 852.1 475.6 852.5 474.6C852.6 474.3 852.7 474.1 852.8 473.8C853.1 473.2 853.3 472.5 853.5 471.9C853.7 471.3 854 470.6 854.2 470C854.2 470 854.2 470 854.2 469.9C854.4 469.5 854.5 469 854.7 468.6C854.9 468.2 855 467.8 855.1 467.4C855.2 467.2 855.3 466.9 855.4 466.7C855.5 466.5 855.6 466.2 855.7 466C855.8 465.6 856 465.2 856.1 464.8C856.4 463.9 856.7 463 857 462.1C857.1 461.9 857.2 461.6 857.2 461.4C857.5 460.6 857.8 459.8 858 459C858.1 458.8 858.1 458.6 858.2 458.4C858.4 457.8 858.6 457.2 858.8 456.6C858.9 456.2 859 455.9 859.1 455.5C859.2 455.3 859.3 455 859.3 454.8C859.4 454.4 859.6 454 859.7 453.6C859.9 453 860.1 452.3 860.3 451.7C860.5 451 860.7 450.3 860.9 449.7C861.2 448.7 861.5 447.7 861.7 446.6C864.5 436 866.4 423.9 867.4 410.3C867.5 409.5 867.5 408.6 867.6 407.8C867.6 407.7 867.6 407.6 867.6 407.6C867.6 407.1 867.6 406.7 867.7 406.2C867.7 405.8 867.7 405.3 867.7 404.9C867.8 403.2 867.8 401.5 867.8 399.9C868.2 399.2 868.2 399 868.2 398.8Z" fill="#F9F18B"/>
<path d="M676.1 382.799C681.3 373.599 688.4 363.699 697.4 353.299C706.4 342.899 715.9 334.499 726 328.199C736.1 321.899 748.2 318.099 762.4 316.799C776.5 315.499 791.3 318.099 806.8 324.399C821.8 330.599 833.8 338.999 842.8 349.699C851.7 360.399 857.6 371.499 860.5 382.999C863.4 394.499 864.3 407.099 863.4 420.699C862.5 434.299 860.6 446.399 857.7 456.999C855.4 465.799 852.6 474.399 849.3 482.899C850.1 480.999 850.9 479.199 851.7 477.299C855.9 467.099 859.4 456.699 862.2 446.099C865 435.499 866.9 423.399 867.9 409.799C868.8 396.199 867.9 383.599 865 372.099C862.1 360.599 856.2 349.399 847.3 338.799C838.4 328.099 826.4 319.699 811.3 313.499C795.8 307.099 781 304.599 766.9 305.899C752.8 307.199 740.7 310.999 730.5 317.299C720.4 323.599 710.8 331.999 701.9 342.399C692.9 352.799 685.8 362.599 680.6 371.899C675.4 381.099 670.7 390.699 666.6 400.699C665.8 402.599 665.1 404.499 664.3 406.399C667.9 398.199 671.8 390.399 676.1 382.799Z" fill="#F4EFBD"/>
<path d="M688.4 281.3C688.7 277.7 688.2 274.7 686.8 272.5C685.4 270.2 683 267.8 679.7 265.1C676.4 262.4 671.9 259.9 666.1 257.6C658.4 254.4 650.4 254.5 642.3 257.9L641 258.2L566.3 284.9C555.4 288.7 548.8 293.5 546.4 299.2C545.7 301 545.2 303.1 545.1 305.4C548.5 301.7 554.1 298.5 561.8 295.8L636.5 269.1L637.8 268.8C645.9 265.4 653.9 265.3 661.6 268.5C667.4 270.9 671.9 273.4 675.2 276C678.5 278.7 680.9 281.1 682.3 283.4C683.7 285.7 684.2 288.6 683.9 292.2C683.6 295.8 683 298.7 682.3 300.9C681.5 303.1 680.3 306.3 678.4 310.8L682.9 299.9C684.7 295.5 686 292.2 686.8 290C687.6 287.8 688.1 284.9 688.4 281.3Z" fill="#F4EFBD"/>
<path d="M629.9 428.4L613.8 467.5L606.7 484.7C606.3 485.7 605.9 486.7 605.5 487.7H544.9C544.8 487.5 544.7 487.3 544.6 487.1C544.5 486.9 544.4 486.7 544.3 486.5C544.2 486.3 544.1 486.1 544.1 485.9C544 485.6 543.9 485.3 543.8 484.9C543.8 484.8 543.7 484.6 543.7 484.5C543.6 484.2 543.5 483.9 543.5 483.6C543.5 483.4 543.4 483.3 543.4 483.1C543.4 482.9 543.3 482.6 543.3 482.4C542.9 478.5 543 475 543.8 472.1C544.6 469.2 546.1 465.1 548.3 459.8L555.9 441.3L574.4 396.4C574.3 396.4 595.9 413.4 629.9 428.4Z" fill="#F6E546"/>
<path d="M714.7 487.8C714.8 488 714.8 488.2 714.9 488.3C714.8 488.1 714.7 487.8 714.7 487.6C714.6 487.3 714.5 486.9 714.4 486.5C714.2 485.7 714 484.9 713.8 484.1C713.6 483.3 713.5 482.4 713.4 481.5C713.3 481.1 713.3 480.6 713.2 480.2C713.2 479.8 713.1 479.3 713.1 478.8C713.1 478.4 713 478.1 713 477.8C712.9 476.3 712.9 474.8 712.9 473.2C712.9 472.8 712.9 472.3 712.9 471.9C713 470.5 713.1 469.1 713.2 467.7C713.3 467.2 713.3 466.7 713.4 466.3C713.6 464.8 713.8 463.3 714 461.8C714.1 461.2 714.2 460.6 714.3 460C714.4 459.6 714.4 459.2 714.5 458.9C714.7 457.8 714.9 456.6 715.2 455.5C715.5 454.4 715.7 453.3 716 452.2C716.1 451.6 716.3 451.1 716.4 450.5C704.9 449.8 693.9 448.1 683.3 445.9C680 445.2 676.7 444.4 673.5 443.6C666.8 441.9 660.3 440 654.1 437.9C654 438.5 653.8 439.1 653.7 439.7C653.5 440.6 653.3 441.4 653.1 442.3C653.1 442.4 653.1 442.4 653.1 442.5C652.9 443.4 652.7 444.3 652.6 445.2C652.4 446.5 652.1 447.7 651.9 449C651.7 450.3 651.5 451.6 651.3 452.9C651.1 454.2 650.9 455.5 650.8 456.9C650.6 458.2 650.5 459.6 650.4 461C650.1 463.8 649.9 466.6 649.7 469.5C649.5 472.5 649.4 475.4 649.4 478.3C649.4 478.9 649.4 479.6 649.4 480.2V480.6C649.4 481.1 649.4 481.6 649.4 482.1C649.4 482.3 649.4 482.5 649.4 482.6C649.4 483.2 649.5 483.9 649.5 484.6C649.5 485 649.5 485.4 649.6 485.9C649.6 486.5 649.7 487.2 649.7 487.8H711.3C712.5 487.7 713.6 487.8 714.7 487.8Z" fill="#F6E546"/>
<path d="M868.2 399.3C868.2 401 868.2 402.6 868.1 404.3C868.1 405.2 868 406.1 868 407C868 407.1 868 407.1 868 407.2C868 408 867.9 408.9 867.8 409.7C866.8 423.3 865 435.4 862.1 446C861.8 447 861.5 448.1 861.3 449.1C861.1 449.8 860.9 450.5 860.7 451.1C860.5 451.7 860.3 452.4 860.1 453C859.6 454.6 859.1 456.3 858.6 457.9C858.2 459.2 857.8 460.4 857.3 461.7C857 462.6 856.7 463.5 856.4 464.4C856.2 465 855.9 465.7 855.7 466.3C855.3 467.4 854.9 468.5 854.5 469.6C854.3 470.2 854 470.9 853.8 471.5C853.6 472.1 853.3 472.8 853.1 473.4C853 473.7 852.9 473.9 852.8 474.2C852.4 475.2 852 476.2 851.6 477.2C851.1 478.4 850.6 479.5 850.1 480.7C850 481 849.9 481.3 849.7 481.5C849.5 481.9 849.4 482.3 849.2 482.7C849.2 482.7 849.2 482.7 849.2 482.8C848.5 484.4 847.8 485.9 847.1 487.5H774.7C774.9 487.2 775.1 486.9 775.4 486.6C776.2 485.4 777.1 484.2 777.9 482.9C778.4 482.1 778.9 481.4 779.4 480.5C782.6 475.3 785.7 469.4 788.7 462.7C788.9 462.2 789.2 461.7 789.4 461.2C789.6 460.7 789.9 460.1 790.1 459.6C790.3 459.2 790.5 458.8 790.7 458.3C791.2 457.1 791.7 455.9 792.2 454.7L793 452.7C793.8 450.8 794.5 449 795.2 447.1C795.6 446.1 795.9 445.2 796.3 444.3C796.6 443.5 796.9 442.7 797.1 442C797.5 440.8 798 439.5 798.4 438.3C810 433.9 821.7 428.1 833.3 420.8C841.3 415.8 849.2 410.1 857.1 403.6C859.1 402 861.1 400.2 863.1 398.5C864.8 397 866.4 395.6 868 394C868 394.8 868.1 395.7 868.1 396.5C868.1 397.2 868.1 398 868.1 398.7C868.2 399 868.2 399.2 868.2 399.3Z" fill="#F6E546"/>
<path d="M613.8 467.5L606.7 484.7C606.3 485.7 605.9 486.7 605.5 487.7H544.9C544.8 487.5 544.7 487.3 544.6 487.1C544.5 486.9 544.4 486.7 544.3 486.5C544.2 486.3 544.1 486.1 544.1 485.9C544 485.6 543.9 485.3 543.8 484.9C543.8 484.8 543.7 484.6 543.7 484.5C543.6 484.2 543.5 483.9 543.5 483.6C543.5 483.4 543.4 483.3 543.4 483.1C543.4 482.9 543.3 482.6 543.3 482.4C542.9 478.5 543 475 543.8 472.1C544.6 469.2 546.1 465.1 548.3 459.8L555.9 441.3C558.4 442.7 560.9 444.1 563.4 445.4C568.1 447.9 572.7 450.2 577.3 452.4C589.6 458.3 601.8 463.3 613.8 467.5Z" fill="#E9D32F"/>
<path d="M676.6 483.6C669.4 482.4 662 481 654.5 479.3C652.8 478.9 651.1 478.5 649.4 478.1C649.4 478.8 649.4 479.5 649.4 480.1C649.4 480.7 649.4 481.4 649.4 482C649.5 483.9 649.5 485.8 649.7 487.6H711.3C700.2 486.9 688.6 485.6 676.6 483.6Z" fill="#E9D32F"/>
<path opacity="0.5" d="M854.7 469.7C854.5 470.3 854.2 471 854 471.6C853.8 472.2 853.5 472.9 853.3 473.5C853.2 473.8 853.1 474 853 474.3C852.6 475.3 852.2 476.3 851.8 477.3C851.5 478 851.2 478.6 851 479.3C850.8 479.8 850.6 480.3 850.3 480.8C850.2 481.1 850.1 481.4 849.9 481.6C849.7 482 849.6 482.4 849.4 482.8C849.4 482.8 849.4 482.8 849.4 482.9C848.7 484.5 848 486 847.3 487.6H774.9C774.8 487.7 774.8 487.8 774.7 487.9C774.8 487.8 774.8 487.7 774.9 487.6C775.1 487.3 775.3 487 775.6 486.7C819.4 482.4 848.9 471.9 854 470C854.4 469.8 854.6 469.7 854.7 469.7Z" fill="#F6E546"/>
<path d="M857.154 403.986C857.506 389.963 851.749 378.443 844.295 378.256C836.841 378.069 830.514 389.286 830.162 403.31C829.811 417.334 835.568 428.854 843.022 429.041C850.475 429.227 856.803 418.01 857.154 403.986Z" fill="#F5F9FC"/>
<path d="M836.2 444.8C839.679 444.8 842.5 441.98 842.5 438.5C842.5 435.021 839.679 432.2 836.2 432.2C832.72 432.2 829.9 435.021 829.9 438.5C829.9 441.98 832.72 444.8 836.2 444.8Z" fill="#F5F9FC"/>
<path d="M673.266 306.317C677.519 296.003 676.91 285.97 671.906 283.906C666.903 281.843 659.399 288.532 655.146 298.846C650.893 309.159 651.502 319.193 656.506 321.256C661.51 323.319 669.014 316.631 673.266 306.317Z" fill="#F5F9FC"/>
<path d="M676.8 478.5C676.8 480.3 676.7 482 676.5 483.6C676.3 485 676.1 486.4 675.7 487.7H655.7C654.9 485.2 654.5 482.3 654.4 479.3C654.4 479.2 654.4 479.1 654.4 479C654.2 468 659 459 665.2 458.9C671.4 458.7 676.6 467.5 676.8 478.5Z" fill="#F5F9FC"/>
<path d="M677.2 457.601C681.342 457.601 684.7 454.243 684.7 450.101C684.7 445.958 681.342 442.601 677.2 442.601C673.058 442.601 669.7 445.958 669.7 450.101C669.7 454.243 673.058 457.601 677.2 457.601Z" fill="#F5F9FC"/>
<path d="M574.236 462.028C579.162 450.08 579.555 438.91 575.113 437.078C570.671 435.247 563.076 443.447 558.15 455.395C553.223 467.343 552.831 478.513 557.273 480.345C561.715 482.176 569.309 473.976 574.236 462.028Z" fill="#F5F9FC"/>
<path d="M586.1 440C589.745 440 592.7 437.045 592.7 433.4C592.7 429.755 589.745 426.8 586.1 426.8C582.455 426.8 579.5 429.755 579.5 433.4C579.5 437.045 582.455 440 586.1 440Z" fill="#F5F9FC"/>
<path d="M222 128C222 127.7 222 127.5 222 127.3C222 126.3 222 125.3 221.9 124.5C221.9 124.1 221.9 123.8 221.9 123.5C221.9 123.3 221.9 123.1 221.9 123C221.9 122.6 221.9 122.3 221.9 122C221.9 121.8 221.9 121.7 221.9 121.5C221.9 121.1 221.9 120.7 221.8 120.3C221.8 119.6 221.7 118.8 221.6 118C221.5 117.6 221.5 117.2 221.4 116.7C221.3 116.3 221.2 115.8 221.1 115.4C220.9 114.5 220.7 113.5 220.4 112.5C220.1 111.5 219.8 110.4 219.5 109.3C218.1 104.8 216.1 101.6 213.3 99.6004C210.5 97.6004 206.5 95.8004 201.3 94.3004C196.1 92.8004 189.5 92.0004 181.5 92.0004C170.7 92.0004 161.4 96.0004 153.4 104L152 104.9L76.3998 173.1C65.2998 182.9 59.7998 191.8 59.7998 199.8C59.7998 200.1 59.7998 200.3 59.7998 200.6C59.7998 200.7 59.7998 200.9 59.7998 201C59.7998 201.4 59.7998 201.8 59.8998 202.1C59.8998 202.3 59.9998 202.6 59.9998 202.8C60.0998 203.4 60.1998 204 60.2998 204.6C60.3998 204.9 60.4998 205.3 60.4998 205.6C62.3998 213 67.5998 221.4 76.2998 231C84.5998 240.2 93.4998 244.8 103 244.8C111.3 244.8 121.7 240 134.3 230.5L140.3 225V389.4C140.3 396.8 140.5 402.4 141 406.2C141.5 410.1 142.9 414.2 145.4 418.6C147.8 423.1 152 426.2 157.8 428C163.6 429.8 171.3 430.8 180.8 430.8C190.6 430.8 198.4 429.9 204.3 428C210.1 426.2 214.3 422.9 216.7 418.3C219.1 413.7 220.6 409.6 221.1 406.1C221.2 405.7 221.2 405.2 221.3 404.7C221.4 404.2 221.4 403.7 221.4 403.1C221.4 402.6 221.5 402.1 221.5 401.6C221.5 401.5 221.5 401.5 221.5 401.4C221.5 400.8 221.6 400.2 221.6 399.5C221.6 398.8 221.7 398.1 221.7 397.4C221.7 397 221.7 396.7 221.7 396.3C221.7 395.9 221.7 395.5 221.7 395.2C221.7 394.4 221.7 393.6 221.7 392.8C221.7 392 221.7 391.1 221.7 390.2V133.7C222 131.6 222 129.7 222 128ZM399.3 349.6C399.2 349.6 399.2 349.7 399.1 349.7C399.1 349.7 399.2 349.6 399.3 349.6ZM508.8 251.3C508.7 249.9 508.7 248.6 508.6 247.3C508.6 246.9 508.6 246.4 508.5 246C508.4 244.7 508.4 243.5 508.3 242.3C508.2 241.4 508.2 240.4 508.1 239.5C508 238.6 508 237.8 507.9 236.9C507.8 236 507.8 235.2 507.7 234.3C507.6 233.5 507.6 232.7 507.5 231.8C507.5 231.6 507.5 231.4 507.4 231.3C507.3 230.1 507.2 228.9 507 227.6C506.9 226.3 506.7 225 506.6 223.7C506.5 222.4 506.3 221.1 506.1 219.8C504.2 205.8 500.6 190.5 495 174C494.4 172.3 493.9 170.6 493.2 169C493 168.5 492.8 167.9 492.6 167.4C492.5 167.3 492.5 167.1 492.4 166.9C492.3 166.8 492.3 166.6 492.2 166.5C491.7 165.2 491.2 163.9 490.6 162.6C490.5 162.4 490.4 162.2 490.4 162C490.1 161.2 489.8 160.5 489.4 159.7C489.1 158.9 488.7 158.2 488.4 157.4C488.1 156.6 487.7 155.9 487.4 155.2C487.2 154.7 486.9 154.2 486.7 153.7C486.4 153.2 486.2 152.7 485.9 152.2C485.5 151.5 485.2 150.7 484.8 150C484.2 148.7 483.5 147.5 482.8 146.3C482.6 145.9 482.4 145.5 482.1 145.1C482 145 482 144.9 481.9 144.8C481.7 144.5 481.5 144.1 481.3 143.8C481.2 143.7 481.2 143.6 481.1 143.5C480.9 143.1 480.7 142.8 480.5 142.4C479.9 141.3 479.2 140.3 478.6 139.2C478.2 138.6 477.8 137.9 477.4 137.3C477.4 137.2 477.3 137.2 477.3 137.1C477 136.6 476.7 136.2 476.4 135.7C475.3 134 474.1 132.3 472.9 130.7C463.8 118.4 451.4 108.1 435.6 99.8004C419.8 91.5004 401.4 87.4004 380.5 87.4004C359 87.4004 340.2 91.6004 324.1 100.1C322.6 100.9 321.1 101.7 319.7 102.5C319 102.9 318.3 103.3 317.5 103.8C316.8 104.2 316.1 104.7 315.4 105.1C314.7 105.5 314 106 313.3 106.4C312.6 106.8 311.9 107.3 311.3 107.7C310.6 108.2 309.9 108.7 309.1 109.2C308.7 109.5 308.2 109.8 307.8 110.2C307.2 110.6 306.7 111 306.1 111.5C305.3 112.1 304.6 112.7 303.8 113.3C303.1 113.9 302.3 114.5 301.6 115.1C301.3 115.3 301.1 115.5 300.8 115.8C300.4 116.2 299.9 116.6 299.5 117C299.3 117.2 299 117.4 298.8 117.7C298.5 117.9 298.3 118.1 298.1 118.4C297.9 118.6 297.7 118.8 297.5 119C297 119.5 296.4 120 295.9 120.5C295.2 121.2 294.5 121.9 293.8 122.6C293.2 123.2 292.6 123.9 292.1 124.5C290.4 126.4 288.8 128.4 287.3 130.4C287 130.8 286.7 131.2 286.4 131.6C284.7 133.9 283.1 136.3 281.6 138.8C280.6 140.5 279.6 142.2 278.6 143.9C278.1 144.8 277.6 145.6 277.2 146.5C276.9 147.1 276.6 147.6 276.3 148.2C276.3 148.2 276.3 148.2 276.3 148.3C276 148.8 275.8 149.3 275.5 149.8C274.7 151.3 274 152.8 273.2 154.4C272.9 155.1 272.5 155.9 272.2 156.6C272 157 271.8 157.5 271.6 157.9C271.2 158.7 270.9 159.5 270.5 160.3C270.1 161.3 269.7 162.2 269.3 163.2C268.9 164.1 268.6 165 268.2 165.8C268 166.2 267.9 166.7 267.7 167.1C266.7 169.8 265.7 172.5 264.8 175.3C259.3 192 255.7 207.2 254 220.7C252.3 234.2 251.5 247.9 251.5 261.7C251.5 262.8 251.5 263.9 251.5 265C251.5 265.6 251.5 266.1 251.5 266.6C251.5 267.3 251.5 268 251.5 268.7C251.5 268.9 251.5 269.1 251.5 269.2V269.4C251.7 281.7 252.5 293.8 253.9 305.5C254.2 307.6 254.5 309.8 254.8 311.9C255.2 314.2 255.6 316.5 256 318.9C256.3 320.5 256.6 322.1 257 323.7C257.3 325.2 257.7 326.6 258 328.1C258.2 328.7 258.3 329.3 258.4 329.9C258.5 330.5 258.7 331.1 258.9 331.7C259.1 332.6 259.4 333.5 259.6 334.3C260.3 336.9 261.1 339.6 261.9 342.3C262.2 343.3 262.5 344.3 262.8 345.3C263 345.9 263.2 346.6 263.4 347.2C263.8 348.6 264.3 350 264.8 351.4C265.1 352.4 265.5 353.3 265.8 354.2C266.1 355.1 266.5 356.1 266.8 357C267 357.6 267.2 358.2 267.5 358.8C268 360.2 268.6 361.5 269.1 362.9C269.3 363.3 269.4 363.7 269.6 364.1C269.8 364.7 270.1 365.2 270.3 365.8C270.5 366.3 270.8 366.9 271 367.4C271.1 367.6 271.2 367.8 271.3 368.1C271.7 368.9 272 369.7 272.4 370.5C272.5 370.6 272.5 370.8 272.6 370.9C273 371.6 273.3 372.3 273.7 373C274 373.7 274.4 374.3 274.7 374.9C275 375.5 275.4 376.2 275.7 376.8C275.8 376.9 275.8 377 275.9 377.1C276 377.3 276.1 377.4 276.2 377.6C276.5 378.1 276.8 378.6 277.1 379.1C277.5 379.8 277.9 380.4 278.2 381.1C278.6 381.7 278.9 382.3 279.3 382.9C279.9 383.9 280.6 385 281.2 386C281.4 386.4 281.7 386.7 281.9 387.1C282 387.2 282.1 387.4 282.2 387.5C282.6 388.1 283 388.6 283.3 389.2C283.5 389.5 283.6 389.7 283.8 390C284.2 390.5 284.5 391.1 284.9 391.6C285.1 391.9 285.3 392.1 285.4 392.3C285.9 393 286.3 393.6 286.8 394.3C295.8 406.3 308.4 416.3 324.6 424.5C340.7 432.6 359.5 436.7 381 436.7C401.3 436.7 419.3 432.7 435.1 424.7C450.9 416.7 463.3 406.7 472.2 394.5C481.1 382.4 488.4 368.2 494.1 351.9C499.8 335.6 503.5 320.3 505.4 306.1C505.6 304.8 505.7 303.5 505.9 302.2C506 301.2 506.1 300.3 506.2 299.4C506.3 298.7 506.4 297.9 506.4 297.2C506.7 294.1 507 291.1 507.2 288C507.2 287.6 507.3 287.3 507.3 286.9C507.3 286.5 507.4 286.2 507.4 285.8C507.5 285.1 507.5 284.3 507.5 283.6C507.6 282.6 507.6 281.6 507.7 280.5C507.7 279.9 507.8 279.4 507.8 278.8C507.9 277.3 507.9 275.8 508 274.3C508.1 272.8 508.1 271.3 508.1 269.8C508.2 267.2 508.2 264.6 508.2 262C509 258.3 508.9 254.8 508.8 251.3ZM422.3 313.7C422.2 313.9 422.2 314.1 422.1 314.2V314.3C421.8 315.4 421.5 316.4 421.2 317.4C421.1 317.6 421.1 317.8 421 318.1C421 318.2 420.9 318.4 420.9 318.5C420.8 319 420.6 319.5 420.4 320C420.4 320.1 420.4 320.1 420.3 320.2C420.3 320.3 420.2 320.5 420.2 320.6C420.1 320.9 420 321.3 419.9 321.6C419.9 321.7 419.8 321.7 419.8 321.8C419.7 322.1 419.6 322.3 419.5 322.6C419.2 323.5 418.9 324.3 418.5 325.1C418.5 325.1 418.5 325.2 418.4 325.2C418.4 325.3 418.4 325.3 418.3 325.4C418.1 325.8 418 326.2 417.8 326.6C417.7 326.9 417.6 327.1 417.4 327.4C417.3 327.7 417.1 328.1 417 328.4C416.8 328.8 416.7 329.1 416.5 329.5C416.4 329.6 416.4 329.7 416.4 329.8C416.1 330.3 415.9 330.9 415.6 331.4C415.6 331.4 415.6 331.5 415.5 331.5C415.3 331.8 415.2 332.2 415 332.5C414.9 332.7 414.8 332.8 414.7 333C414.4 333.5 414.1 334 413.8 334.5C413.7 334.6 413.6 334.8 413.6 334.9C413.5 335.1 413.4 335.3 413.3 335.4C413.1 335.7 413 336 412.8 336.2C412.4 336.8 412.1 337.3 411.7 337.9C411.5 338.2 411.3 338.5 411.1 338.7L411 338.8C410.8 339 410.7 339.2 410.5 339.4C410.3 339.7 410.1 339.9 409.9 340.2C409.7 340.4 409.5 340.7 409.3 340.9L409.2 341C409 341.2 408.8 341.5 408.6 341.7C408.2 342.2 407.7 342.7 407.3 343.1C407 343.5 406.6 343.8 406.3 344.1C406 344.4 405.6 344.7 405.3 345.1C405.2 345.2 405.1 345.3 404.9 345.4C404.8 345.5 404.7 345.6 404.5 345.7C404.3 345.9 404 346.1 403.8 346.3C403.7 346.4 403.7 346.4 403.6 346.5C403.4 346.6 403.3 346.8 403.1 346.9C402.9 347 402.7 347.2 402.5 347.3C402.3 347.5 402 347.6 401.8 347.8C401.7 347.9 401.6 347.9 401.6 347.9L401.5 348C401.3 348.1 401.2 348.2 401 348.3C400.9 348.3 400.9 348.4 400.8 348.4C400.5 348.6 400.3 348.7 400 348.9C399.9 349 399.8 349 399.6 349.1C399.5 349.1 399.5 349.2 399.4 349.2C399.3 349.2 399.3 349.3 399.3 349.3H399.2C399.1 349.4 399.1 349.4 399 349.4C398.8 349.5 398.5 349.7 398.3 349.8C398.1 349.9 397.8 350.1 397.6 350.2C397.3 350.3 397.1 350.5 396.8 350.6C396.6 350.7 396.5 350.8 396.3 350.8C396.2 350.9 396.1 350.9 396 350.9C395.7 351 395.4 351.2 395.1 351.3C395 351.3 394.9 351.4 394.8 351.4C394.6 351.5 394.4 351.6 394.1 351.7C393.9 351.8 393.6 351.9 393.4 352C392.8 352.2 392.2 352.4 391.6 352.6C391.4 352.6 391.3 352.7 391.1 352.7C391 352.7 391 352.7 390.9 352.8C390.5 352.9 390.1 353 389.8 353.1C389.6 353.1 389.4 353.2 389.2 353.2C389 353.2 388.8 353.3 388.5 353.3C388.4 353.3 388.2 353.4 388.1 353.4C387.9 353.4 387.7 353.5 387.5 353.5C387.3 353.5 387.1 353.6 387 353.6C386.7 353.7 386.4 353.7 386 353.7C385.8 353.7 385.6 353.7 385.4 353.8C385 353.8 384.7 353.9 384.3 353.9C383.9 353.9 383.4 354 383 354C382.7 354 382.4 354 382.1 354C381.9 354 381.8 354 381.6 354C381.5 354 381.4 354 381.2 354C380.8 354 380.3 354 379.9 354C379.5 354 379 354 378.6 354C378.5 354 378.4 354 378.3 354C378.1 354 377.8 354 377.6 354C377.3 354 377 354 376.7 353.9C376.6 353.9 376.4 353.9 376.3 353.9H376C375.8 353.9 375.6 353.9 375.5 353.9C375.2 353.9 375 353.8 374.7 353.8C374.6 353.8 374.5 353.8 374.4 353.8C374.2 353.8 374 353.7 373.7 353.7H373.6H373.5H373.4C373.4 353.7 373.3 353.7 373.2 353.7C372.6 353.6 372 353.5 371.5 353.4C371.3 353.4 371.1 353.3 370.8 353.2C370.7 353.2 370.7 353.2 370.6 353.2C370.5 353.2 370.4 353.2 370.3 353.1C370.2 353.1 370.2 353.1 370.1 353C370 353 370 353 369.9 353C369.7 353 369.6 352.9 369.4 352.9C369.3 352.9 369.2 352.8 369.1 352.8C368.8 352.7 368.4 352.6 368.1 352.5C367.8 352.4 367.6 352.3 367.4 352.3C367.3 352.3 367.1 352.2 367 352.2C366.8 352.1 366.6 352 366.3 351.9C366.1 351.8 365.9 351.7 365.6 351.6C365.4 351.5 365.2 351.4 365 351.3C364.7 351.2 364.5 351.1 364.2 350.9H364.1C364 350.9 363.9 350.8 363.9 350.8C363.6 350.7 363.3 350.5 363.1 350.4C363 350.3 362.9 350.3 362.7 350.2C362.3 350 361.9 349.8 361.5 349.6C361.2 349.4 360.9 349.3 360.6 349.1C360.5 349 360.3 348.9 360.2 348.8C360 348.7 359.9 348.6 359.7 348.5L359.6 348.4C359.4 348.2 359.1 348.1 358.9 347.9C358.8 347.8 358.6 347.7 358.5 347.6L358.4 347.5C357.7 347 357.1 346.5 356.4 346C356.2 345.9 356.1 345.7 355.9 345.6C355.5 345.3 355.1 344.9 354.8 344.6C354.7 344.5 354.6 344.4 354.4 344.3C354.2 344.1 354 343.9 353.7 343.6C353.7 343.6 353.7 343.6 353.6 343.5C353.4 343.3 353.2 343.1 353 342.9C352.9 342.8 352.8 342.7 352.7 342.6C352.6 342.4 352.4 342.3 352.3 342.1C352.1 341.9 351.9 341.7 351.7 341.5C351.6 341.4 351.5 341.3 351.5 341.2C351.3 341 351.2 340.8 351 340.6C350.7 340.3 350.5 340 350.3 339.7C349.4 338.5 348.5 337.2 347.6 335.8C347.4 335.5 347.2 335.1 347 334.8C346.6 334.1 346.2 333.4 345.8 332.6C345.6 332.2 345.4 331.9 345.2 331.5C345 331.1 344.8 330.7 344.6 330.4C343.8 328.8 343.1 327.2 342.4 325.5C342.2 325.1 342 324.6 341.9 324.2C341.7 323.8 341.6 323.3 341.4 322.9C341.1 322 340.8 321.1 340.5 320.2C340.2 319.3 339.9 318.3 339.6 317.4C339.3 316.4 339 315.4 338.8 314.4C338.5 313.4 338.3 312.4 338 311.3C337.9 310.8 337.8 310.2 337.6 309.7C336.7 305.4 335.9 300.9 335.2 296C333.9 285.9 333.2 274.5 333.2 261.7C333.2 199.7 348.9 168.7 380.2 168.7C408 168.7 423.5 193 426.6 241.5C426.8 243.8 426.9 246.2 427 248.6C427.1 250.2 427.1 251.9 427.2 253.5C427.3 256 427.3 258.6 427.3 261.2V264C427.3 265.1 427.3 266.3 427.3 267.4C427.3 269 427.3 270.5 427.2 272.1C427.2 272.5 427.2 273 427.2 273.4C427.2 273.6 427.2 273.7 427.2 273.9C427.2 274.3 427.2 274.6 427.2 275C427.2 275.4 427.2 275.9 427.1 276.3C427.1 277 427 277.7 427 278.4C427 279 427 279.6 426.9 280.2C426.9 280.7 426.8 281.3 426.8 281.8C426.7 282.7 426.7 283.7 426.6 284.6C426.6 285.1 426.5 285.5 426.5 285.9C426.4 287.7 426.2 289.4 426 291.1C425.9 291.9 425.8 292.8 425.7 293.6C425.6 294.5 425.5 295.5 425.4 296.4C425.3 297.1 425.2 297.8 425.1 298.5C425 299 425 299.5 424.9 299.9C424.6 301.9 424.3 303.8 423.9 305.6C423.7 306.9 423.4 308.1 423.1 309.3C423 309.6 423 309.9 422.9 310.1C422.9 311.4 422.6 312.5 422.3 313.7Z" fill="#7362AA"/>
<path d="M254.5 235.5C256.2 222 259.8 206.9 265.3 190.1C270.8 173.4 278 158.8 287 146.3C295.9 133.9 308.4 123.4 324.5 115C340.6 106.6 359.4 102.3 380.9 102.3C401.8 102.3 420.1 106.4 435.9 114.7C451.7 123 464.1 133.3 473.2 145.6C482.3 157.9 489.6 172.3 495.1 188.9C500.6 205.5 504.3 220.8 506.2 234.7C507.7 246.2 508.6 257.8 508.9 269.5C509 266.9 509 264.3 509 261.7C509 247.6 508.1 233.5 506.2 219.6C504.4 205.6 500.7 190.3 495.1 173.8C489.6 157.2 482.3 142.8 473.2 130.5C464.1 118.2 451.7 107.9 435.9 99.6002C420.1 91.3002 401.7 87.2002 380.9 87.2002C359.4 87.2002 340.6 91.4002 324.5 99.9002C308.4 108.3 295.9 118.8 287 131.2C278.1 143.6 270.9 158.2 265.3 175C259.8 191.7 256.2 206.9 254.5 220.4C252.8 233.9 252 247.6 252 261.4C252 264 252 266.7 252.1 269.3C252.3 257.9 253.1 246.6 254.5 235.5Z" fill="#9B8DC3"/>
<path d="M219.5 109.1C218.1 104.7 216 101.4 213.3 99.3998C210.5 97.3998 206.5 95.5998 201.3 94.0998C196.1 92.5998 189.5 91.7998 181.5 91.7998C170.7 91.7998 161.4 95.7998 153.4 103.8L152 104.7L76.4999 172.9C65.3999 182.7 59.8999 191.6 59.8999 199.6C59.8999 202.1 60.3999 204.8 61.2999 207.6C63.5999 201.6 68.5999 195 76.4999 188.1L152 119.9L153.4 119C161.4 111 170.7 107 181.5 107C189.5 107 196.1 107.8 201.3 109.3C206.5 110.8 210.5 112.6 213.3 114.6C216.1 116.6 218.1 119.8 219.5 124.3C220.9 128.8 221.6 132.4 221.8 135.4C222 138.3 222 142.9 222 149V133.8C222 127.7 221.9 123.1 221.8 120.2C221.6 117.2 220.8 113.5 219.5 109.1Z" fill="#9B8DC3"/>
<path d="M145.5 418.6C148 423.1 152.1 426.2 157.9 428C163.7 429.8 171.4 430.8 180.9 430.8C190.7 430.8 198.6 429.9 204.4 428C210.2 426.2 214.4 422.9 216.8 418.3C219.3 413.7 220.7 409.6 221.2 406.1C221.7 402.6 221.9 397.3 221.9 390.2V312.1C174.2 311 140.4 301.4 140.4 301.4V389.3C140.4 396.7 140.6 402.3 141.1 406.1C141.6 410 143.1 414.2 145.5 418.6Z" fill="#6957A4"/>
<path d="M506.2 305.801C508 291.501 509 276.901 509 261.801C509 247.701 508.1 233.601 506.2 219.701C504.4 205.701 500.7 190.401 495.1 173.901C492.9 167.301 490.4 161.001 487.6 155.101C470.9 191.501 450 219.801 426.7 241.701C427.1 247.901 427.3 254.501 427.3 261.401V264.201C427.3 324.401 411.5 354.501 379.9 354.501C355.3 354.501 340.4 335.001 335.4 296.201C308 305.501 280.6 310.001 255.3 311.701C257.2 324.001 260.6 337.201 265.5 351.301C271.2 367.901 278.5 382.201 287.6 394.101C296.7 406.101 309.2 416.101 325.4 424.301C341.5 432.401 360.3 436.501 381.8 436.501C402.1 436.501 420.1 432.501 435.9 424.501C451.7 416.501 464.1 406.501 473 394.301C481.9 382.201 489.2 368.001 494.9 351.701C500.6 335.301 504.4 320.001 506.2 305.801Z" fill="#6957A4"/>
<path opacity="0.5" d="M145.5 418.6C148 423.1 152.1 426.2 157.9 428C163.7 429.8 171.4 430.8 180.9 430.8C190.7 430.8 198.6 429.9 204.4 428C210.2 426.2 214.4 422.9 216.8 418.3C219.3 413.7 220.7 409.6 221.2 406.1C221.7 402.6 221.9 397.3 221.9 390.2V366.4C196.1 367.7 168.9 367 140.4 363.7V389.4C140.4 396.8 140.6 402.4 141.1 406.2C141.6 410 143.1 414.2 145.5 418.6Z" fill="#5A489C"/>
<path opacity="0.5" d="M436 424.4C451.8 416.4 464.2 406.4 473.1 394.2C482 382.1 489.3 367.9 495 351.6C500.7 335.3 504.4 320 506.3 305.8C508.1 291.5 509.1 276.9 509.1 261.8C509.1 258.3 509 254.8 508.9 251.3C508.9 251.3 478.3 280.9 423.2 310.2C416.5 339.6 402.2 354.4 380.1 354.4C368.4 354.4 359 350 351.7 341.3C326.9 349.8 299.4 357 269.6 361.6C274.6 373.8 280.7 384.6 287.8 394C296.9 406 309.4 416 325.6 424.2C341.7 432.3 360.5 436.4 382 436.4C402.1 436.4 420.1 432.4 436 424.4Z" fill="#5A489C"/>
<path d="M475.093 208.845C484.015 205.426 486.024 189.024 479.58 172.212C473.136 155.399 460.68 144.542 451.758 147.962C442.836 151.381 440.827 167.783 447.271 184.595C453.714 201.408 466.171 212.265 475.093 208.845Z" fill="#F5F9FC"/>
<path d="M471.6 231.4C476.074 231.4 479.7 227.774 479.7 223.3C479.7 218.827 476.074 215.2 471.6 215.2C467.126 215.2 463.5 218.827 463.5 223.3C463.5 227.774 467.126 231.4 471.6 231.4Z" fill="#F5F9FC"/>
<path d="M201.1 172.1C208.059 172.1 213.7 160.504 213.7 146.2C213.7 131.896 208.059 120.3 201.1 120.3C194.141 120.3 188.5 131.896 188.5 146.2C188.5 160.504 194.141 172.1 201.1 172.1Z" fill="#F5F9FC"/>
<path d="M299.209 377.753C306.446 374.592 307.745 361.568 302.108 348.662C296.472 335.756 286.036 327.856 278.799 331.016C271.561 334.177 270.263 347.202 275.899 360.107C281.536 373.013 291.972 380.913 299.209 377.753Z" fill="#F5F9FC"/>
<path d="M288.7 324.4C294.002 324.4 298.3 320.102 298.3 314.8C298.3 309.498 294.002 305.2 288.7 305.2C283.398 305.2 279.1 309.498 279.1 314.8C279.1 320.102 283.398 324.4 288.7 324.4Z" fill="#F5F9FC"/>
<path d="M161.2 409.4C167.386 409.4 172.4 395.924 172.4 379.3C172.4 362.676 167.386 349.2 161.2 349.2C155.014 349.2 150 362.676 150 379.3C150 395.924 155.014 409.4 161.2 409.4Z" fill="#F5F9FC"/>
<path d="M172.4 347.901C177.039 347.901 180.8 344.14 180.8 339.501C180.8 334.861 177.039 331.101 172.4 331.101C167.761 331.101 164 334.861 164 339.501C164 344.14 167.761 347.901 172.4 347.901Z" fill="#F5F9FC"/>
<path d="M446.3 404.201C454.198 404.201 460.6 397.798 460.6 389.901C460.6 382.003 454.198 375.601 446.3 375.601C438.402 375.601 432 382.003 432 389.901C432 397.798 438.402 404.201 446.3 404.201Z" fill="#F5F9FC"/>
<path d="M1260.8 203.1C1259.7 196.3 1258.2 189.6 1256.5 183C1247.5 147.9 1230.9 115.8 1208.5 88.6C1204.4 83.6 1200.1 78.8 1195.6 74.1C1194 72.4 1192.3 70.8 1190.7 69.2C1189.5 68 1188.3 66.9 1187.1 65.8C1184.5 63.3 1181.8 60.9 1179 58.5C1178.6 58.6 1178.2 58.7 1177.8 58.8C1177.6 58.8 1177.4 58.9 1177.2 58.9C1176.8 59 1176.4 59.1 1176.1 59.2C1173.7 59.8 1171.6 60.6 1169.6 61.4C1169.2 61.6 1168.8 61.8 1168.5 61.9C1167.3 62.5 1166.2 63.1 1165.3 63.8C1165.1 63.9 1164.9 64.1 1164.7 64.3C1164.4 64.5 1164.2 64.7 1163.9 64.9C1163.9 64.9 1163.8 64.9 1163.8 65C1163.5 65.2 1163.3 65.4 1163 65.7C1162.8 65.9 1162.7 66 1162.5 66.2C1162.3 66.4 1162.1 66.6 1161.9 66.8C1161.7 67 1161.5 67.2 1161.3 67.4C1161 67.8 1160.6 68.2 1160.3 68.7C1160.2 68.9 1160.1 69 1159.9 69.2C1159.7 69.4 1159.6 69.7 1159.4 69.9C1159.3 70.1 1159.1 70.3 1159 70.5C1158.9 70.6 1158.8 70.8 1158.8 70.9C1158.6 71.2 1158.5 71.5 1158.3 71.8C1157.8 72.8 1157.3 73.8 1156.9 74.9C1154 82.1 1152.8 92 1153.1 104.5C1153.5 117.8 1157.6 127.7 1165.4 134.3C1172.2 140 1184 143.4 1200.9 144.3L1209.6 143.9L1156.6 206.5L1113.5 257.4L1095.7 278.4C1090.6 284.4 1086.9 289.2 1084.6 292.6C1082.3 296.1 1080.6 300.5 1079.6 305.8C1078.5 311.1 1079.7 316.6 1083.2 322.1C1086.7 327.6 1092.3 333.7 1100.1 340.3C1101.1 341.1 1102.1 342 1103.1 342.7C1105.1 344.3 1106.9 345.7 1108.8 347C1109.5 347.5 1110.1 347.9 1110.7 348.3C1111 348.5 1111.3 348.7 1111.6 348.9C1111.9 349.1 1112.2 349.3 1112.5 349.5C1112.9 349.8 1113.3 350 1113.7 350.3C1114.2 350.6 1114.8 351 1115.3 351.3C1115.7 351.6 1116.1 351.8 1116.5 352C1116.8 352.2 1117.1 352.3 1117.4 352.5C1117.6 352.6 1117.8 352.7 1118 352.8C1118.2 352.9 1118.5 353 1118.7 353.1C1118.8 353.1 1118.9 353.2 1118.9 353.2C1119.3 353.4 1119.6 353.6 1120 353.7C1120.4 353.9 1120.8 354 1121.1 354.2C1127.1 356.7 1132.8 357 1138 354.9C1138.5 354.7 1139 354.5 1139.5 354.3C1139.6 354.2 1139.8 354.2 1139.9 354.1H1140C1140.6 353.8 1141.2 353.6 1141.8 353.3C1141.9 353.2 1142.1 353.2 1142.3 353.1C1142.7 352.9 1143 352.7 1143.4 352.5C1143.7 352.4 1143.9 352.2 1144.2 352.1C1144.3 352.1 1144.3 352 1144.4 352C1144.8 351.7 1145.3 351.5 1145.7 351.2C1146.2 350.9 1146.6 350.6 1147.1 350.3C1148.2 349.5 1149.2 348.8 1150.1 348C1152.9 345.4 1156.8 341.3 1161.7 335.5L1178.2 316L1215.8 271.6L1262.6 216.4C1262.2 212.1 1261.6 207.6 1260.8 203.1ZM1247.4 288.6C1246.1 290.5 1244.9 292.5 1243.7 294.5C1241.9 297.5 1240.1 300.6 1238.3 303.9C1238 304.5 1237.6 305.1 1237.3 305.7C1237 306.2 1236.7 306.8 1236.4 307.3C1236.1 307.9 1235.8 308.6 1235.4 309.2C1234.5 311 1233.6 312.7 1232.8 314.6C1231.9 316.5 1231 318.5 1230.1 320.5C1229.5 321.9 1228.9 323.3 1228.3 324.7C1228 325.4 1227.7 326.1 1227.4 326.8C1227.1 327.5 1226.8 328.2 1226.6 328.8C1226.3 329.6 1226 330.3 1225.6 331.1C1225.2 332 1224.9 332.9 1224.5 333.9C1224.1 334.8 1223.8 335.7 1223.4 336.7C1222.9 338 1222.5 339.2 1222 340.5C1221.6 341.6 1221.2 342.7 1220.9 343.7C1220.5 344.8 1220.2 345.8 1219.9 346.9C1219.3 348.8 1218.7 350.7 1218.2 352.6C1217.9 353.6 1217.7 354.5 1217.4 355.5C1217.2 356.1 1217.1 356.8 1216.9 357.4C1216.6 358.7 1216.3 360 1216 361.2C1215.9 361.4 1215.9 361.7 1215.9 361.9C1215.9 362.1 1215.8 362.3 1215.8 362.6C1215.7 363 1215.6 363.4 1215.5 363.8C1215.4 364.2 1215.3 364.6 1215.3 365C1215.1 365.8 1215 366.6 1214.9 367.4C1214.8 368.2 1214.6 369 1214.5 369.8C1214.4 370.2 1214.4 370.6 1214.3 371C1214.2 371.4 1214.2 371.8 1214.1 372.2C1214 373 1213.9 373.8 1213.8 374.6C1213.7 375.1 1213.7 375.6 1213.6 376.1C1213.5 376.5 1213.5 376.9 1213.5 377.4C1213.5 377.6 1213.5 377.7 1213.4 377.9V378V378.1C1213.4 378.3 1213.4 378.4 1213.4 378.6C1213.4 378.8 1213.4 379 1213.4 379.1C1213.4 379.2 1213.4 379.3 1213.4 379.4C1213.4 379.5 1213.4 379.6 1213.4 379.8C1213.4 379.9 1213.4 380.1 1213.4 380.2C1213.4 380.7 1213.3 381.1 1213.3 381.6C1213.2 382.5 1213.2 383.3 1213.1 384.2C1213 385.8 1213 387.5 1213 389.2C1213 390.6 1213 391.9 1213.1 393.3C1218.2 386.8 1223 380 1227.4 372.9C1231.1 367.1 1234.5 361.1 1237.6 354.9C1239.3 351.7 1240.8 348.5 1242.3 345.2C1245.1 339.1 1247.6 332.9 1249.9 326.6C1252.6 319.1 1255 311.4 1257 303.6C1260 291.6 1262.2 279.1 1263.4 266.5C1257.6 273.8 1252.3 281.2 1247.4 288.6Z" fill="#6CA1D3"/>
<path d="M1187.1 65.7996C1188.3 66.8996 1189.5 68.0996 1190.7 69.1996L1182.9 69.4996C1171.7 69.7996 1163 71.5996 1157 74.9996C1157.4 73.8996 1157.9 72.8996 1158.4 71.8996C1158.6 71.5996 1158.7 71.2996 1158.9 70.9996C1159 70.8996 1159.1 70.6996 1159.1 70.5996C1159.2 70.3996 1159.4 70.1996 1159.5 69.9996C1159.7 69.7996 1159.8 69.4996 1160 69.2996C1160.1 69.0996 1160.2 68.8996 1160.4 68.7996C1160.7 68.2996 1161.1 67.8996 1161.4 67.4996C1161.6 67.2996 1161.8 67.0996 1162 66.8996C1162.2 66.6996 1162.4 66.4996 1162.6 66.2996C1162.8 66.0996 1162.9 65.9996 1163.1 65.7996C1163.3 65.5996 1163.6 65.2996 1163.9 65.0996L1164 64.9996C1164.2 64.7996 1164.5 64.5996 1164.8 64.3996C1165 64.1996 1165.2 64.0996 1165.4 63.8996C1166.4 63.1996 1167.5 62.5996 1168.6 61.9996C1169 61.7996 1169.4 61.5996 1169.7 61.4996C1171.6 60.5996 1173.8 59.8996 1176.2 59.2996C1176.6 59.1996 1177 59.0996 1177.3 58.9996C1177.5 58.9996 1177.7 58.8996 1177.9 58.8996C1178.3 58.7996 1178.7 58.6996 1179.1 58.5996C1181.8 60.8996 1184.5 63.2996 1187.1 65.7996Z" fill="#9BCAEC"/>
<path d="M1079.7 306C1078.6 311.3 1079.8 316.8 1083.3 322.3C1086.8 327.8 1092.4 333.9 1100.2 340.5C1108.2 347.3 1115.3 352 1121.3 354.5C1127.3 357 1133 357.3 1138.2 355.2C1143.4 353.1 1147.4 350.8 1150.2 348.2C1153 345.6 1156.9 341.5 1161.8 335.7L1215.9 271.8C1177.7 237.8 1156.6 206.6 1156.6 206.6L1095.7 278.5C1090.6 284.5 1086.9 289.3 1084.6 292.7C1082.4 296.2 1080.7 300.6 1079.7 306Z" fill="#498BBC"/>
<path d="M1256.8 303.7C1254.8 311.5 1252.5 319.2 1249.7 326.7C1247.4 333 1244.9 339.2 1242.1 345.3C1240.6 348.6 1239 351.8 1237.4 355C1234.2 361.1 1230.8 367.1 1227.2 373C1222.8 380 1218 386.8 1212.9 393.4C1212.8 392 1212.8 390.6 1212.8 389.3C1212.8 387.6 1212.9 386 1212.9 384.3C1213 383.4 1213 382.6 1213.1 381.7C1213.1 381.2 1213.2 380.8 1213.2 380.3C1213.2 380.2 1213.2 380 1213.2 379.9C1213.2 379.8 1213.2 379.7 1213.2 379.5C1213.2 379.4 1213.2 379.3 1213.2 379.2C1213.2 379 1213.2 378.8 1213.2 378.7C1213.2 378.5 1213.2 378.4 1213.2 378.2C1213.2 378.1 1213.2 378.1 1213.2 378C1213.2 377.8 1213.2 377.7 1213.3 377.5C1213.3 377.1 1213.4 376.7 1213.4 376.2C1213.5 375.7 1213.5 375.2 1213.6 374.7C1213.7 373.9 1213.8 373.1 1213.9 372.3C1214 371.9 1214 371.5 1214.1 371.1C1214.2 370.7 1214.2 370.3 1214.3 369.9C1214.4 369.1 1214.6 368.3 1214.7 367.5C1214.8 366.7 1215 365.9 1215.1 365.1C1215.2 364.7 1215.3 364.3 1215.3 363.9C1215.4 363.3 1215.6 362.6 1215.7 362C1215.7 361.8 1215.8 361.5 1215.8 361.3C1216.1 360 1216.4 358.8 1216.7 357.5C1216.8 356.9 1217 356.2 1217.2 355.6C1217.4 354.6 1217.7 353.7 1218 352.7C1218.5 350.8 1219.1 348.9 1219.7 347C1220 345.9 1220.4 344.9 1220.7 343.8C1221.1 342.7 1221.4 341.6 1221.8 340.6C1222.2 339.3 1222.7 338.1 1223.2 336.8C1223.5 335.9 1223.9 335 1224.3 334C1224.7 333.1 1225 332.1 1225.4 331.2C1225.7 330.4 1226 329.6 1226.4 328.9C1226.7 328.2 1227 327.5 1227.2 326.9C1227.5 326.2 1227.8 325.5 1228.1 324.8C1228.7 323.4 1229.3 322 1229.9 320.6C1230.8 318.6 1231.7 316.6 1232.6 314.7C1233.5 312.9 1234.3 311.1 1235.2 309.3C1235.5 308.7 1235.8 308 1236.2 307.4C1236.5 306.8 1236.8 306.3 1237.1 305.8C1237.4 305.2 1237.8 304.6 1238.1 304C1239.8 300.7 1241.6 297.6 1243.5 294.6C1247.9 297.6 1252.3 300.7 1256.8 303.7Z" fill="#498BBC"/>
<g opacity="0.5">
<path d="M1079.7 306C1078.6 311.3 1079.8 316.8 1083.3 322.3C1086.8 327.8 1092.4 333.9 1100.2 340.5C1108.2 347.3 1115.3 352 1121.3 354.5C1127.3 357 1133 357.3 1138.2 355.2C1143.4 353.1 1147.4 350.8 1150.2 348.2C1153 345.6 1156.9 341.5 1161.8 335.7L1178.3 316.2C1156.3 299.4 1134.5 280 1113.5 257.5L1095.7 278.5C1090.6 284.5 1086.9 289.3 1084.6 292.7C1082.4 296.2 1080.7 300.6 1079.7 306Z" fill="#2A709A"/>
</g>
<g opacity="0.5">
<path d="M1237.4 355C1234.2 361.1 1230.8 367.1 1227.2 373C1222.8 380 1218 386.8 1212.9 393.4C1212.8 392 1212.8 390.6 1212.8 389.3C1212.8 387.6 1212.9 386 1212.9 384.3C1213 383.4 1213 382.6 1213.1 381.7C1213.1 381.2 1213.2 380.8 1213.2 380.3C1213.2 380.2 1213.2 380 1213.2 379.9C1213.2 379.8 1213.2 379.7 1213.2 379.5C1213.2 379.4 1213.2 379.3 1213.2 379.2C1213.2 379 1213.2 378.8 1213.2 378.7C1213.2 378.5 1213.2 378.3 1213.3 378.1V378C1213.3 377.8 1213.3 377.7 1213.4 377.5C1213.4 377.1 1213.5 376.7 1213.5 376.2C1213.6 375.7 1213.6 375.2 1213.7 374.7C1213.8 373.9 1213.9 373.1 1214 372.3C1214.1 371.9 1214.1 371.5 1214.2 371.1C1214.3 370.7 1214.3 370.3 1214.4 369.9C1214.5 369.1 1214.7 368.3 1214.8 367.5C1214.9 366.7 1215.1 365.9 1215.2 365.1C1215.3 364.7 1215.4 364.3 1215.4 363.9C1215.5 363.5 1215.6 363.1 1215.7 362.7C1216.9 357 1218.5 351.2 1220.4 345.3C1222.4 346.6 1224.5 347.8 1226.5 349C1230.3 351 1233.8 353 1237.4 355Z" fill="#2A709A"/>
</g>
<path d="M1249.7 326.7C1247.4 333 1244.9 339.2 1242.1 345.3C1240.6 348.6 1239 351.8 1237.4 355C1234.2 361.1 1230.8 367.1 1227.2 373C1224.4 367.2 1224 358.2 1226.7 348.9C1226.7 348.8 1226.8 348.6 1226.8 348.5C1231.1 334 1241.2 324.2 1249.4 326.7C1249.5 326.6 1249.6 326.6 1249.7 326.7Z" fill="#F5F9FC"/>
<path d="M1128.93 292.38C1140.43 278.808 1145.64 264.333 1140.58 260.051C1135.52 255.768 1122.11 263.299 1110.62 276.871C1099.13 290.444 1093.91 304.918 1098.97 309.201C1104.03 313.483 1117.44 305.952 1128.93 292.38Z" fill="#F5F9FC"/>
<path d="M1156.5 268.9C1161.47 268.9 1165.5 264.871 1165.5 259.9C1165.5 254.93 1161.47 250.9 1156.5 250.9C1151.53 250.9 1147.5 254.93 1147.5 259.9C1147.5 264.871 1151.53 268.9 1156.5 268.9Z" fill="#F5F9FC"/>
<path d="M721.7 158.001C720.8 152.801 719.5 148.701 717.7 145.501C715.9 142.401 712.8 138.001 708.5 132.401L694 113.301L660.8 69.9008L607.2 -0.199219H467.8L458.9 47.5008C456.1 62.1008 457.1 72.7008 462 79.0008C462.2 79.3008 462.4 79.5008 462.6 79.7008C462.8 80.0008 463 80.2008 463.2 80.4008C463.4 80.7008 463.7 80.9008 464 81.2008C464.2 81.4008 464.4 81.6008 464.7 81.8008C465 82.0008 465.2 82.3008 465.5 82.5008C466.3 83.2008 467.2 83.8008 468.1 84.5008C474.1 88.6008 482.9 91.7008 494.5 93.9008C506.8 96.2008 516.7 94.4008 524.3 88.6008C530.9 83.5008 536.4 73.3008 540.6 58.0008L542 49.9008L588.9 111.201L627 161.001L642.7 181.501C647.2 187.401 650.8 191.801 653.5 194.501C656.2 197.301 659.9 199.701 664.6 201.801C669.3 203.901 674.5 203.801 680.3 201.701C686.1 199.601 692.8 195.601 700.4 189.801C708.3 183.801 714 178.301 717.5 173.201C721.3 168.301 722.6 163.201 721.7 158.001ZM820.4 -0.199219C818.3 2.30078 815.9 4.70078 813.1 6.90078C812.7 7.20078 812.2 7.50078 811.8 7.90078C810.9 8.50078 810 9.10078 809.2 9.60078C807 10.9008 804.7 12.0008 802.4 12.8008C801.6 13.1008 800.7 13.4008 799.9 13.6008C797 14.4008 794 14.8008 790.9 14.8008C790.4 14.8008 790 14.8008 789.5 14.8008C789.3 14.8008 789.1 14.8008 788.9 14.8008C788.8 14.8008 788.8 14.8008 788.7 14.8008C788.6 14.8008 788.5 14.8008 788.4 14.8008C788.3 14.8008 788.2 14.8008 788.1 14.8008C788.1 14.8008 788 14.8008 787.9 14.8008C787.6 14.8008 787.3 14.7008 786.9 14.7008C786.8 14.7008 786.8 14.7008 786.7 14.7008C786.2 14.7008 785.6 14.6008 785.1 14.5008C784.9 14.5008 784.6 14.4008 784.4 14.4008C784.2 14.4008 784 14.3008 783.8 14.3008C783.7 14.3008 783.6 14.3008 783.5 14.3008C783.3 14.3008 783.1 14.2008 782.9 14.2008C782.8 14.2008 782.6 14.2008 782.5 14.1008C782.4 14.1008 782.4 14.1008 782.3 14.1008H782.2C781.8 14.0008 781.3 13.9008 780.9 13.8008C780.4 13.7008 779.9 13.5008 779.5 13.4008C779 13.3008 778.6 13.1008 778.1 13.0008C778 13.0008 777.9 13.0008 777.8 12.9008C777.4 12.8008 776.9 12.6008 776.5 12.4008C776 12.2008 775.5 12.0008 775 11.8008C774.5 11.6008 774.1 11.4008 773.7 11.3008C773.6 11.3008 773.6 11.3008 773.6 11.2008C773.1 11.0008 772.6 10.8008 772.1 10.5008C771.6 10.3008 771.1 10.0008 770.6 9.80078C770.1 9.50078 769.6 9.30078 769 9.00078C768.5 8.70078 768 8.50078 767.5 8.20078C767 7.90078 766.5 7.60078 766 7.30078C765.5 7.00078 765 6.70078 764.4 6.40078C764 6.10078 763.5 5.80078 763 5.50078C762.9 5.40078 762.7 5.30078 762.6 5.20078C762.1 4.90078 761.7 4.60078 761.2 4.30078C760.3 3.70078 759.4 3.10078 758.5 2.40078C758.3 2.30078 758.1 2.10078 758 2.00078C757.6 1.70078 757.1 1.30078 756.7 1.00078C756.3 0.700781 755.8 0.300781 755.4 0.000781253H645.5C648.1 3.70078 650.8 7.40078 653.6 11.0008C654.4 12.1008 655.2 13.1008 656 14.1008C656.8 15.1008 657.6 16.2008 658.4 17.2008C666.1 26.9008 674.1 36.0008 682.3 44.4008C683.8 45.9008 685.4 47.5008 687 49.0008C688.1 50.1008 689.3 51.2008 690.5 52.3008C692.3 53.9008 694.1 55.5008 696 57.1008C696.6 57.6008 697.2 58.1008 697.7 58.5008C702 62.1008 706.6 65.6008 711.6 69.1008C712.3 69.6008 713.1 70.1008 713.8 70.7008C715.6 72.0008 717.5 73.2008 719.4 74.5008C720 74.9008 720.6 75.3008 721.2 75.7008C721.8 76.1008 722.3 76.4008 722.9 76.8008C724.2 77.7008 725.6 78.5008 726.9 79.3008C727.4 79.6008 727.9 79.9008 728.4 80.2008C729.2 80.7008 730 81.1008 730.7 81.6008C731.4 82.0008 732 82.4008 732.7 82.7008C733.1 82.9008 733.5 83.1008 733.9 83.3008C735.5 84.2008 737.1 85.0008 738.7 85.8008C739.2 86.1008 739.7 86.3008 740.3 86.6008C740.9 86.9008 741.4 87.1008 742 87.4008C742.7 87.7008 743.4 88.1008 744.2 88.4008C744.7 88.6008 745.3 88.9008 745.8 89.1008C746.4 89.4008 747.1 89.6008 747.7 89.9008C748.2 90.1008 748.7 90.3008 749.2 90.5008C749.6 90.7008 750 90.8008 750.5 91.0008C750.7 91.1008 751 91.2008 751.2 91.3008C751.7 91.5008 752.3 91.7008 752.8 91.9008C754.7 92.6008 756.6 93.3008 758.5 93.9008C759.2 94.1008 759.9 94.4008 760.6 94.6008C760.7 94.6008 760.7 94.7008 760.8 94.7008C761.7 95.0008 762.6 95.2008 763.5 95.5008C778.1 99.5008 794.3 99.9008 812.2 96.5008C814.4 96.1008 816.7 95.6008 818.9 95.0008C820 94.7008 821.1 94.4008 822.2 94.1008C823.9 93.6008 825.5 93.1008 827.2 92.5008C828.9 91.9008 830.5 91.3008 832.2 90.6008C833.3 90.2008 834.4 89.7008 835.5 89.2008C845.4 84.9008 855.2 79.1008 864.9 71.6008C881 59.0008 893 44.8008 900.7 28.7008C905.4 18.9008 908.7 9.30078 910.4 -0.0992187H820.4V-0.199219Z" fill="#48BC9D"/>
<path d="M646.6 -0.199219C650.3 5.70078 654.3 11.4008 658.4 17.1008C657.6 16.1008 656.8 15.0008 655.9 14.0008C655.1 13.0008 654.3 11.9008 653.5 10.9008C650.7 7.30078 648 3.60078 645.4 -0.0992187H646.6V-0.199219Z" fill="#78C8B1"/>
<path d="M468.2 59.7004C466.2 70.1004 466.1 78.4004 468 84.6004C467.1 84.0004 466.2 83.3004 465.4 82.6004C465.1 82.4004 464.9 82.1004 464.6 81.9004C464.4 81.7004 464.2 81.5004 463.9 81.3004C463.6 81.0004 463.4 80.8004 463.1 80.5004C462.9 80.3004 462.7 80.0004 462.5 79.8004C462.3 79.6004 462.1 79.3004 461.9 79.1004C457 72.7004 456 62.2004 458.8 47.6004L467.7 -0.0996094H479.2L468.2 59.7004Z" fill="#78C8B1"/>
<path d="M664.7 201.9C669.4 204 674.6 203.9 680.4 201.8C686.2 199.7 692.9 195.7 700.5 189.9C708.4 183.9 714.1 178.4 717.6 173.3C721.1 168.3 722.5 163.1 721.6 157.9C720.7 152.7 719.4 148.6 717.6 145.5C715.8 142.4 712.8 138 708.4 132.4L660.6 69.9004C621.7 98.2004 588.8 111.3 588.8 111.3L642.6 181.7C647.1 187.6 650.7 191.9 653.4 194.7C656.3 197.5 660 199.9 664.7 201.9Z" fill="#009284"/>
<path d="M910.4 -0.199609C908.7 9.30039 905.4 18.9004 900.7 28.6004C893 44.8004 881 59.0004 864.7 71.4004C855 78.8004 845.2 84.7004 835.3 89.0004C834.2 89.5004 833.1 89.9004 832 90.4004C830.3 91.1004 828.7 91.7004 827 92.3004C825.3 92.9004 823.7 93.4004 822 93.9004C820.9 94.2004 819.8 94.5004 818.7 94.8004C816.5 95.4004 814.2 95.9004 812 96.3004C794.1 99.7004 777.9 99.3004 763.3 95.3004C762.4 95.0004 761.5 94.8004 760.6 94.5004C760.5 94.5004 760.5 94.4004 760.4 94.4004C759.7 94.2004 759 94.0004 758.3 93.7004C756.4 93.1004 754.5 92.4004 752.6 91.7004C752.1 91.5004 751.5 91.3004 751 91.1004C750.8 91.0004 750.5 90.9004 750.3 90.8004C749.9 90.6004 749.5 90.5004 749 90.3004C748.5 90.1004 748 89.9004 747.5 89.7004C746.9 89.4004 746.2 89.2004 745.6 88.9004C745.1 88.7004 744.5 88.4004 744 88.2004C743.3 87.9004 742.6 87.6004 741.8 87.2004C741.2 86.9004 740.7 86.7004 740.1 86.4004C739.6 86.1004 739.1 85.9004 738.5 85.6004C736.9 84.8004 735.3 84.0004 733.7 83.1004C733.3 82.9004 732.9 82.7004 732.5 82.5004C731.8 82.1004 731.2 81.8004 730.5 81.4004C729.7 81.0004 728.9 80.5004 728.2 80.0004C727.7 79.7004 727.2 79.4004 726.7 79.1004C725.4 78.3004 724.1 77.5004 722.7 76.6004C722.1 76.2004 721.6 75.9004 721 75.5004C720.4 75.1004 719.8 74.7004 719.2 74.3004C717.3 73.0004 715.5 71.8004 713.6 70.5004C712.8 70.0004 712.1 69.5004 711.4 68.9004C706.5 65.4004 701.8 61.9004 697.5 58.3004C696.9 57.8004 696.3 57.3004 695.8 56.9004C693.9 55.3004 692 53.7004 690.3 52.1004C689.1 51.0004 687.9 49.9004 686.8 48.8004C693.2 43.2004 699.6 37.2004 705.8 30.9004C708.8 27.9004 711.8 24.7004 714.7 21.5004C720.9 14.7004 726.9 7.50039 732.6 -0.199609H755.1C754.9 -0.299609 754.8 -0.499609 754.6 -0.599609C754.8 -0.499609 755 -0.299609 755.1 -0.199609C755.5 0.200391 756 0.500391 756.4 0.800391C756.8 1.10039 757.3 1.50039 757.7 1.80039C757.9 1.90039 758.1 2.10039 758.2 2.20039C759.1 2.90039 760 3.50039 760.9 4.10039C761.4 4.40039 761.8 4.70039 762.3 5.00039C762.4 5.10039 762.6 5.20039 762.7 5.30039C763.2 5.60039 763.6 5.90039 764.1 6.20039C764.6 6.50039 765.1 6.80039 765.7 7.10039C766.2 7.40039 766.7 7.70039 767.2 8.00039C767.7 8.30039 768.2 8.50039 768.7 8.80039C769.2 9.10039 769.7 9.30039 770.3 9.60039C770.8 9.90039 771.3 10.1004 771.8 10.3004C772.3 10.5004 772.8 10.7004 773.3 11.0004C773.3 11.0004 773.4 11.0004 773.4 11.1004C773.8 11.3004 774.3 11.5004 774.7 11.6004C775.2 11.8004 775.7 12.0004 776.2 12.2004C776.6 12.4004 777.1 12.5004 777.5 12.7004C777.6 12.7004 777.7 12.8004 777.8 12.8004C778.3 12.9004 778.7 13.1004 779.2 13.2004C779.7 13.3004 780.2 13.5004 780.6 13.6004C781 13.7004 781.5 13.8004 781.9 13.9004H782C782.1 13.9004 782.1 13.9004 782.2 13.9004C782.3 13.9004 782.5 14.0004 782.6 14.0004C782.8 14.1004 783 14.1004 783.2 14.1004C783.3 14.1004 783.4 14.1004 783.5 14.1004C783.7 14.1004 783.9 14.2004 784.1 14.2004C784.3 14.3004 784.6 14.3004 784.8 14.3004C785.3 14.4004 785.9 14.5004 786.4 14.5004C786.5 14.5004 786.5 14.5004 786.6 14.5004C786.9 14.5004 787.3 14.6004 787.6 14.6004C787.7 14.6004 787.7 14.6004 787.8 14.6004C787.9 14.6004 788 14.6004 788.1 14.6004C788.2 14.6004 788.3 14.6004 788.4 14.6004C788.5 14.6004 788.5 14.6004 788.6 14.6004C788.8 14.6004 788.9 14.6004 789 14.6004H789.1C789.6 14.6004 790 14.6004 790.5 14.6004C793.6 14.6004 796.6 14.2004 799.5 13.4004C800.3 13.2004 801.2 12.9004 802 12.6004C804.3 11.8004 806.6 10.7004 808.8 9.40039C809.7 8.90039 810.6 8.30039 811.4 7.70039C811.8 7.40039 812.3 7.10039 812.7 6.70039C815.5 4.50039 818 2.20039 820 -0.399609H910.4V-0.199609Z" fill="#009284"/>
<g opacity="0.62">
<g opacity="0.62">
<path d="M664.7 201.9C669.4 204 674.6 203.9 680.4 201.8C686.2 199.7 692.9 195.7 700.5 189.9C708.4 183.9 714.1 178.4 717.6 173.3C721.1 168.3 722.5 163.1 721.6 157.9C720.7 152.7 719.4 148.6 717.6 145.5C715.8 142.4 712.8 138 708.4 132.4L694 113.4C674.2 130.3 652 146.4 627.1 161.1L642.8 181.6C647.3 187.5 650.9 191.8 653.6 194.6C656.3 197.5 660 199.9 664.7 201.9Z" fill="#03785A"/>
</g>
<path d="M910.4 -0.2C908.7 9.3 905.4 18.9 900.7 28.6C893 44.8 881 59 864.7 71.4C855 78.8 845.2 84.7 835.3 89C834.2 89.5 833.1 89.9 832 90.4C830.3 91.1 828.7 91.7 827 92.3C825.3 92.9 823.7 93.4 822 93.9C820.9 94.2 819.8 94.5 818.7 94.8C816.5 95.4 814.2 95.9 812 96.3C794.1 99.7 777.9 99.3 763.3 95.3C762.4 95 761.5 94.8 760.6 94.5C760.5 94.5 760.5 94.4 760.4 94.4C759.7 94.2 759 94 758.3 93.7C756.4 93.1 754.5 92.4 752.6 91.7C752.1 91.5 751.5 91.3 751 91.1C750.8 91 750.5 90.9 750.3 90.8C749.9 90.6 749.5 90.5 749 90.3C748.5 90.1 748 89.9 747.5 89.7C746.9 89.4 746.2 89.2 745.6 88.9C745.1 88.7 744.5 88.4 744 88.2C743.3 87.9 742.6 87.6 741.8 87.2C741.2 86.9 740.7 86.7 740.1 86.4C739.6 86.1 739.1 85.9 738.5 85.6C735.3 84 732 82.2 728.8 80.4C730.4 78.8 731.9 77.2 733.4 75.5C740.2 68.3 746.6 61 752.6 53.6C763.6 40.3 773.4 27 782.1 13.8H782.2C782.3 13.8 782.3 13.8 782.4 13.8C782.5 13.8 782.7 13.9 782.8 13.9C783 14 783.2 14 783.4 14C783.5 14 783.6 14 783.7 14C783.9 14 784.1 14.1 784.3 14.1C784.5 14.2 784.8 14.2 785 14.2C785.5 14.3 786.1 14.4 786.6 14.4C786.7 14.4 786.7 14.4 786.8 14.4C787.1 14.4 787.5 14.5 787.8 14.5C787.9 14.5 787.9 14.5 788 14.5C788.1 14.5 788.2 14.5 788.3 14.5C788.4 14.5 788.5 14.5 788.6 14.5C788.7 14.5 788.7 14.5 788.8 14.5C789 14.5 789.1 14.5 789.2 14.5H789.3C789.8 14.5 790.2 14.5 790.7 14.5C793.8 14.5 796.8 14.1 799.7 13.3C800.5 13.1 801.4 12.8 802.2 12.5C804.5 11.7 806.8 10.6 809 9.3C809.9 8.8 810.8 8.2 811.6 7.6C812 7.3 812.5 7 812.9 6.6C815.7 4.4 818.2 2.1 820.2 -0.5H910.4V-0.2Z" fill="#03785A"/>
</g>
<path d="M762.702 75.154C766.582 68.1493 759.664 56.8949 747.249 50.0166C734.833 43.1384 721.623 43.2409 717.742 50.2456C713.861 57.2503 720.78 68.5047 733.195 75.3829C745.61 82.2612 758.821 82.1587 762.702 75.154Z" fill="#F5F9FC"/>
<path d="M715.7 40.9C721.057 40.9 725.4 36.5572 725.4 31.2C725.4 25.8428 721.057 21.5 715.7 21.5C710.342 21.5 706 25.8428 706 31.2C706 36.5572 710.342 40.9 715.7 40.9Z" fill="#F5F9FC"/>
<path d="M671.601 184.876C676.558 181.083 672.332 167.235 662.163 153.945C651.993 140.654 639.731 132.955 634.775 136.747C629.818 140.54 634.044 154.388 644.214 167.679C654.383 180.969 666.645 188.668 671.601 184.876Z" fill="#F5F9FC"/>
<path d="M637.8 130.601C642.494 130.601 646.3 126.795 646.3 122.101C646.3 117.406 642.494 113.601 637.8 113.601C633.105 113.601 629.3 117.406 629.3 122.101C629.3 126.795 633.105 130.601 637.8 130.601Z" fill="#F5F9FC"/>
<path d="M901.4 -0.199219C900.5 2.30078 898.9 4.50078 896.6 6.20078C890.3 11.1008 881.2 9.80078 876.3 3.50078C875.4 2.30078 874.7 1.10078 874.2 -0.199219H901.4Z" fill="#F5F9FC"/>
<path d="M1020.6 433.201C1020.5 431.301 1020.1 428.901 1019.3 426.101C1018.5 423.201 1017.2 421.101 1015.4 419.801C1013.6 418.501 1011.1 417.301 1007.8 416.201C1004.5 415.101 1000.2 414.601 995.1 414.401C988.2 414.301 982.1 416.701 976.9 421.701L976 422.301L926.5 465.101C919.3 471.301 915.6 476.901 915.5 482.001C915.5 483.601 915.7 485.301 916.3 487.101C916.4 487.201 916.4 487.401 916.5 487.601H1019.7L1020.5 451.601C1020.5 451.201 1020.5 450.901 1020.5 450.601V450.401V450.301V449.101L1020.7 441.801C1020.7 437.901 1020.7 435.001 1020.6 433.201ZM1171.7 431.801C1171.2 431.401 1170.7 431.001 1170.2 430.601C1169.6 430.101 1169 429.701 1168.4 429.201C1167.9 428.801 1167.5 428.501 1167 428.201C1166.7 427.901 1166.3 427.701 1166 427.501C1165.8 427.401 1165.6 427.201 1165.4 427.101C1165 426.801 1164.7 426.601 1164.3 426.401C1164.1 426.301 1163.9 426.101 1163.7 426.001C1163.2 425.701 1162.8 425.401 1162.3 425.101C1161.1 424.401 1159.9 423.601 1158.6 423.001C1148.5 417.401 1136.8 414.501 1123.4 414.201C1109.6 413.901 1097.4 416.401 1086.9 421.601C1076.4 426.801 1068.2 433.401 1062.3 441.201C1056.4 449.101 1051.6 458.301 1047.8 469.001C1047.6 469.701 1047.3 470.301 1047.1 471.001C1047 471.401 1046.8 471.901 1046.7 472.301C1046.4 473.201 1046.1 474.101 1045.8 474.901C1045.6 475.401 1045.5 476.001 1045.3 476.501C1045.1 477.001 1045 477.601 1044.8 478.101C1044.6 478.801 1044.4 479.601 1044.1 480.301C1043.9 480.901 1043.8 481.501 1043.6 482.101C1043.4 483.001 1043.1 483.801 1042.9 484.601C1042.7 485.301 1042.5 486.001 1042.4 486.701C1043.3 486.601 1044.1 486.501 1045 486.401C1066.1 484.301 1086.4 479.501 1105.6 472.301C1109.5 468.901 1114.1 467.001 1119.4 466.601C1123.2 464.901 1127 463.101 1130.6 461.201C1131.7 460.601 1132.9 460.001 1134 459.401C1139.5 456.501 1144.9 453.401 1150.1 450.101C1151.3 449.301 1152.5 448.601 1153.7 447.801C1154.2 447.501 1154.6 447.201 1155.1 446.901C1159.2 444.201 1163.2 441.301 1167.1 438.401C1169.2 436.801 1171.3 435.201 1173.3 433.601C1172.9 432.901 1172.3 432.401 1171.7 431.801Z" fill="#F16B6C"/>
<path d="M1171.7 431.801C1172.3 432.301 1173 432.901 1173.6 433.401C1171.6 435.001 1169.5 436.701 1167.4 438.201C1164.6 436.201 1161.7 434.301 1158.4 432.501C1148.3 427.001 1136.6 424.001 1123.2 423.701C1109.4 423.401 1097.2 425.901 1086.8 431.101C1076.4 436.301 1068.1 442.901 1062.2 450.701C1056.3 458.601 1051.5 467.901 1047.7 478.501C1046.8 481.101 1045.9 483.701 1045.1 486.201C1044.2 486.301 1043.4 486.401 1042.5 486.501C1042.7 485.801 1042.8 485.101 1043 484.401C1043.2 483.601 1043.4 482.701 1043.7 481.901C1043.9 481.301 1044 480.701 1044.2 480.101C1044.4 479.401 1044.6 478.601 1044.9 477.901C1045.1 477.401 1045.2 476.801 1045.4 476.301C1045.6 475.801 1045.7 475.201 1045.9 474.701C1046.2 473.801 1046.5 472.901 1046.8 472.101C1046.9 471.701 1047.1 471.301 1047.2 470.801C1047.4 470.101 1047.7 469.501 1047.9 468.801C1051.7 458.101 1056.5 448.801 1062.4 441.001C1068.3 433.101 1076.5 426.601 1087 421.401C1097.5 416.201 1109.6 413.701 1123.5 414.001C1136.9 414.301 1148.7 417.201 1158.7 422.801C1160 423.501 1161.2 424.201 1162.4 424.901C1162.9 425.201 1163.4 425.501 1163.8 425.801C1164 425.901 1164.2 426.101 1164.4 426.201C1164.8 426.401 1165.1 426.701 1165.5 426.901C1165.7 427.001 1165.9 427.201 1166.1 427.301C1166.5 427.501 1166.8 427.801 1167.1 428.001C1167.6 428.301 1168.1 428.701 1168.5 429.001C1169.1 429.501 1169.7 429.901 1170.3 430.401C1170.7 431.001 1171.2 431.401 1171.7 431.801Z" fill="#EE9BA0"/>
<path d="M1019.3 426.001C1018.5 423.101 1017.2 421.001 1015.4 419.701C1013.7 418.401 1011.1 417.201 1007.8 416.101C1004.5 415.001 1000.2 414.501 995.1 414.301C988.2 414.201 982.1 416.601 976.9 421.601L976 422.201L926.5 465.001C919.3 471.201 915.6 476.801 915.5 481.901C915.5 483.501 915.7 485.201 916.3 487.001C917.8 483.101 921.2 479.001 926.3 474.701L975.8 431.901L976.7 431.301C981.9 426.301 988 423.801 994.9 424.001C1000 424.101 1004.3 424.701 1007.6 425.801C1010.9 426.901 1013.5 428.001 1015.2 429.401C1016.9 430.701 1018.2 432.801 1019.1 435.701C1019.9 438.601 1020.4 441.001 1020.4 442.801C1020.5 444.701 1020.4 447.601 1020.4 451.501L1020.6 441.801C1020.7 437.901 1020.7 434.901 1020.6 433.101C1020.6 431.301 1020.1 428.901 1019.3 426.001Z" fill="#EE9BA0"/>
<path d="M1015.05 449.786C1015.25 440.564 1011.78 433.012 1007.31 432.917C1002.84 432.821 999.051 440.22 998.855 449.441C998.659 458.662 1002.13 466.215 1006.6 466.31C1011.07 466.405 1014.86 459.007 1015.05 449.786Z" fill="#F5F9FC"/>
<path d="M1105.9 212.9C1104 209 1100.7 204.6 1096.1 199.8C1091.3 194.8 1087 191.2 1083.2 189.1C1079.4 187 1075.8 186.5 1072.2 187.4C1068.7 188.4 1065.9 189.6 1063.8 191.1C1061.8 192.6 1058.9 195 1055.3 198.5L1043.1 210.1L1015.3 236.5L931.7 316L931 316.7C930.5 317.2 930 317.7 929.5 318.1L923.9 323.4C920.8 326.4 918.5 328.6 917.1 330.1C915.7 331.6 914.2 333.8 912.6 336.7C911 339.6 910.4 342.2 910.7 344.6C911 347 912.1 349.9 913.8 353.3C915.6 356.7 918.4 360.5 922.3 364.6C927.5 370.1 934.1 373 942.1 373.2L943.2 373.5L1014.9 379C1017.6 379.2 1020.1 379.3 1022.4 379.2C1022.7 379.2 1023 379.2 1023.4 379.1C1024.2 379.1 1024.9 379 1025.6 378.9C1025.7 378.9 1025.8 378.9 1025.8 378.9C1025.9 378.9 1026 378.9 1026.1 378.9C1026.6 378.8 1027.1 378.8 1027.5 378.7C1027.6 378.7 1027.7 378.7 1027.8 378.6C1028 378.6 1028.1 378.5 1028.3 378.5C1028.5 378.5 1028.6 378.4 1028.8 378.4C1029.1 378.3 1029.4 378.2 1029.8 378.1C1029.9 378.1 1030.1 378 1030.2 378C1030.5 377.9 1030.8 377.8 1031 377.7C1031.3 377.6 1031.6 377.5 1031.9 377.3C1032.8 376.9 1033.7 376.5 1034.4 376C1034.9 375.7 1035.4 375.3 1035.8 375C1036 374.8 1036.2 374.6 1036.5 374.4C1037.8 373.2 1038.9 371.6 1039.9 369.8C1042.3 365.3 1043.8 358.9 1044.5 350.7C1045.2 342 1043.2 335.2 1038.6 330.3C1034.6 326 1027 323 1016 321.2L1010.2 320.8L1049.4 283.5L1081.3 253.2L1094.4 240.7C1098.2 237.1 1100.9 234.3 1102.7 232.2C1104.5 230.1 1105.9 227.3 1106.9 223.9C1108.2 220.4 1107.8 216.7 1105.9 212.9ZM1025.9 147.1C1025.9 146.6 1025.8 146.1 1025.8 145.7C1025.7 145.1 1025.7 144.5 1025.6 143.9C1025.5 143.3 1025.4 142.7 1025.3 142.1C1025.2 141.5 1025.1 140.9 1025 140.2C1024.9 139.5 1024.8 138.9 1024.7 138.3C1024.5 137.5 1024.4 136.8 1024.2 136C1024 135.2 1023.9 134.5 1023.7 133.7C1023.3 132.2 1022.9 130.6 1022.4 129.1C1018.7 116.9 1011.6 105.3 1001.2 94.2999C991.3 83.8999 980.5 76.5999 968.7 72.3999C956.9 68.1999 945.7 66.7999 935.2 68.0999C934.6 68.1999 934.1 68.2999 933.5 68.2999C933.2 68.2999 933 68.3999 932.7 68.3999C932 68.4999 931.3 68.5999 930.6 68.6999C930.3 68.6999 930 68.7999 929.8 68.7999C929.1 68.8999 928.4 69.0999 927.7 69.1999C926.9 69.3999 926 69.5999 925.2 69.7999C923.9 70.0999 922.5 70.3999 921.2 70.7999C920.7 70.8999 920.3 71.0999 919.8 71.1999C919.5 71.2999 919.2 71.3999 918.9 71.4999C918.5 71.5999 918.1 71.6999 917.7 71.8999C917.3 71.9999 916.9 72.1999 916.5 72.2999C915.7 72.5999 914.9 72.7999 914.1 73.0999C913.4 73.2999 912.7 73.5999 912 73.8999C911.6 73.9999 911.2 74.1999 910.7 74.3999C910.3 74.5999 909.9 74.6999 909.4 74.8999C908.9 75.0999 908.3 75.2999 907.8 75.4999C906.1 76.1999 904.3 76.8999 902.6 77.6999C891.5 82.6999 881.8 88.1999 873.6 94.1999C872.7 94.7999 871.8 95.4999 871 96.1999C870.3 96.6999 869.6 97.2999 868.9 97.7999C868.3 98.2999 867.7 98.6999 867.1 99.1999C865.4 100.5 863.8 101.9 862.1 103.3C861.7 103.7 861.2 104 860.8 104.4C859.3 105.7 857.7 107 856.2 108.4C855.4 109.1 854.7 109.8 853.9 110.4C853.8 110.4 853.8 110.5 853.7 110.6C853.7 110.6 853.7 110.6 853.6 110.6C853.5 110.7 853.3 110.8 853.2 110.9C853.1 111 853 111 853 111.1C852.7 111.4 852.4 111.6 852.1 111.9C851.3 112.6 850.5 113.4 849.7 114.1C847.9 115.8 846.1 117.5 844.4 119.3C843.7 120 842.9 120.8 842.2 121.5C841.9 121.8 841.6 122.1 841.4 122.4C840.5 123.3 839.7 124.2 838.8 125.2C838.1 126 837.4 126.8 836.7 127.5C835.9 128.4 835 129.4 834.2 130.3C832.6 132.2 831 134.1 829.4 136C823.1 143.7 817.1 153.1 811.3 164C810.6 165.4 809.9 166.7 809.2 168.1C809.2 168.2 809.1 168.3 809.1 168.4C809 168.6 808.9 168.8 808.8 168.9C808.5 169.4 808.3 170 808 170.5C807.4 171.7 806.9 172.9 806.4 174.1C806 175 805.7 175.8 805.4 176.6C805.4 176.7 805.3 176.8 805.3 177C805.1 177.4 805 177.7 804.9 178.1C804.8 178.4 804.7 178.6 804.6 178.9C804.5 179.2 804.4 179.4 804.3 179.7C804.1 180.1 804 180.5 803.9 180.9C803.7 181.4 803.6 181.9 803.4 182.4C803.2 182.9 803.1 183.4 802.9 183.9C802.7 184.4 802.6 184.8 802.5 185.3C802.2 186.2 802 187.1 801.7 187.9C801.6 188.4 801.4 188.9 801.3 189.5C801.2 190 801.1 190.4 800.9 190.9C800.8 191.4 800.6 192 800.5 192.5C800.3 193.2 800.2 193.8 800.1 194.5C800 195.2 799.8 195.8 799.7 196.5C797.8 207.1 798.6 218.5 802.1 230.6C805.6 242.7 812.4 254.2 822.5 264.8C833 275.8 844.3 283.4 856.5 287.5C868.7 291.6 880.1 293 890.8 291.5C901.5 290 912.5 286.6 923.7 281.3C935 276 944.5 270.5 952.2 264.8C959.9 259.1 967.3 252.9 974.4 246.1C975.8 244.8 977.1 243.5 978.4 242.2C984.6 236.1 990.3 229.9 995.6 223.5C996.6 222.3 997.5 221.1 998.4 219.9C998.7 219.5 999.1 219 999.4 218.6C1000.1 217.7 1000.7 216.8 1001.4 215.9C1002.4 214.5 1003.4 213.1 1004.3 211.6C1004.9 210.6 1005.6 209.6 1006.2 208.6C1006.2 208.5 1006.3 208.5 1006.3 208.4C1006.7 207.8 1007 207.3 1007.4 206.7C1009.2 203.8 1010.9 200.7 1012.6 197.5C1013 196.8 1013.3 196.1 1013.7 195.5C1014.8 193.4 1015.8 191.4 1016.7 189.4C1017 188.7 1017.3 188 1017.6 187.4C1017.8 187 1017.9 186.7 1018 186.4C1018.1 186.3 1018.1 186.1 1018.2 186C1018.4 185.6 1018.5 185.2 1018.7 184.9C1018.7 184.8 1018.8 184.6 1018.9 184.5C1019 184.2 1019.1 184 1019.2 183.7C1019.5 182.9 1019.8 182.1 1020.1 181.2C1020.2 181 1020.2 180.8 1020.3 180.6C1020.3 180.5 1020.4 180.5 1020.4 180.4C1020.5 180.2 1020.5 180 1020.6 179.8C1020.7 179.4 1020.9 179 1021 178.7C1021.2 178.2 1021.3 177.8 1021.5 177.4C1021.7 176.8 1021.9 176.2 1022.1 175.6C1022.1 175.5 1022.2 175.3 1022.2 175.2C1022.4 174.7 1022.5 174.2 1022.7 173.6C1022.8 173.3 1022.9 173 1022.9 172.8C1023.2 171.8 1023.5 170.7 1023.7 169.7C1023.8 169.2 1023.9 168.7 1024 168.2V168.1C1024 168 1024 167.9 1024.1 167.8C1024.2 167.5 1024.2 167.2 1024.3 166.9C1024.4 166.4 1024.5 166 1024.6 165.5C1024.7 164.9 1024.8 164.2 1025 163.5C1025.1 162.6 1025.3 161.7 1025.4 160.8C1025.5 160.4 1025.5 160.1 1025.5 159.7C1025.5 159.4 1025.6 159.1 1025.6 158.7C1025.6 158.2 1025.7 157.6 1025.7 157.1C1026.2 153.6 1026.1 150.4 1025.9 147.1ZM916.4 134.5C916.4 134.5 916.5 134.5 916.5 134.4C916.8 134.2 917.2 134 917.5 133.8C917.7 133.7 917.9 133.6 918.1 133.5C918.2 133.4 918.3 133.3 918.5 133.3C918.9 133.1 919.3 132.9 919.7 132.6C919.9 132.5 920.1 132.4 920.3 132.3C920.5 132.2 920.8 132 921 131.9H921.1C921.1 131.9 921.1 131.9 921.2 131.9C921.3 131.9 921.3 131.8 921.4 131.8C921.5 131.8 921.5 131.7 921.6 131.7C922 131.5 922.4 131.3 922.7 131.1C923 130.9 923.3 130.8 923.7 130.7C923.8 130.7 923.8 130.6 923.9 130.6C924.2 130.5 924.4 130.4 924.7 130.2C924.7 130.2 924.7 130.2 924.8 130.2C925 130.1 925.1 130.1 925.2 130H925.3C925.6 129.9 926 129.7 926.3 129.6C926.8 129.4 927.3 129.2 927.8 129C928.3 128.8 928.8 128.6 929.3 128.5C929.8 128.3 930.2 128.2 930.7 128C930.9 128 931 127.9 931.2 127.9C931.6 127.8 931.9 127.7 932.3 127.6C932.5 127.5 932.8 127.5 933 127.4C933.2 127.3 933.5 127.3 933.7 127.2C933.9 127.2 934 127.1 934.1 127.1C934.3 127 934.6 127 934.8 127C934.9 127 934.9 127 935 127C935.1 127 935.2 127 935.2 127C935.3 127 935.5 126.9 935.6 126.9C935.8 126.9 936.1 126.8 936.3 126.8C936.4 126.8 936.5 126.8 936.6 126.8C936.7 126.8 936.8 126.8 936.9 126.8C937.1 126.8 937.3 126.7 937.5 126.7C937.6 126.7 937.7 126.7 937.7 126.7C937.8 126.7 937.9 126.7 938.1 126.7C938.4 126.7 938.8 126.7 939.1 126.6C939.5 126.6 939.9 126.6 940.3 126.6C940.7 126.6 941.1 126.6 941.5 126.6C941.6 126.6 941.7 126.6 941.8 126.6C941.9 126.6 942 126.6 942.2 126.6C942.3 126.6 942.4 126.6 942.5 126.6C942.8 126.6 943.1 126.6 943.4 126.7C943.7 126.7 944 126.8 944.4 126.8C944.8 126.9 945.2 126.9 945.7 127C946 127.1 946.4 127.1 946.7 127.2C946.8 127.2 947 127.3 947.1 127.3C947.2 127.3 947.2 127.3 947.2 127.3C947.5 127.4 947.8 127.5 948.1 127.6C948.5 127.7 948.9 127.9 949.4 128C949.5 128 949.6 128.1 949.7 128.1C949.9 128.2 950 128.2 950.2 128.3C950.3 128.3 950.5 128.4 950.6 128.5C950.7 128.6 950.8 128.6 950.9 128.7C950.9 128.7 951 128.7 951 128.8C951.1 128.8 951.3 128.9 951.4 129C951.4 129 951.4 129 951.5 129C951.5 129 951.6 129 951.6 129.1C951.7 129.1 951.7 129.2 951.8 129.2C951.9 129.2 951.9 129.3 952 129.3C952.1 129.3 952.1 129.3 952.1 129.4C952.3 129.5 952.4 129.6 952.6 129.7C953 129.9 953.4 130.1 953.7 130.4C953.9 130.5 954.1 130.6 954.3 130.8C954.9 131.2 955.4 131.6 956 132C956.2 132.1 956.4 132.3 956.6 132.4C957.3 133 958 133.6 958.7 134.2C959 134.5 959.3 134.8 959.6 135.1C959.8 135.3 960.1 135.6 960.3 135.8C960.5 135.9 960.6 136.1 960.7 136.3C960.8 136.5 961 136.6 961.1 136.8C961.2 137 961.4 137.1 961.5 137.3C961.7 137.6 961.9 137.8 962.1 138.1C962.4 138.4 962.6 138.8 962.8 139.1C963 139.4 963.3 139.8 963.5 140.1C963.7 140.5 963.9 140.8 964.1 141.2C964.3 141.6 964.5 141.9 964.6 142.3C964.8 142.7 964.9 143 965.1 143.4C965.3 143.8 965.4 144.1 965.5 144.5V144.6C965.6 144.8 965.7 145.1 965.8 145.3V145.4C965.9 145.5 965.9 145.7 965.9 145.8C966 146 966 146.2 966.1 146.4C966.1 146.5 966.2 146.7 966.2 146.9C966.3 147.1 966.3 147.3 966.3 147.5C966.3 147.5 966.3 147.5 966.3 147.6C966.3 147.7 966.4 147.8 966.4 148C966.4 148.1 966.5 148.3 966.5 148.4C966.5 148.5 966.6 148.7 966.6 148.9C966.6 148.9 966.6 148.9 966.6 149C966.6 149 966.6 149.1 966.6 149.2C966.6 149.4 966.7 149.7 966.7 150C966.7 150.2 966.8 150.3 966.8 150.5C966.8 150.9 966.9 151.3 966.9 151.6C966.9 152.2 966.9 152.8 966.9 153.5C966.9 153.7 966.9 153.8 966.9 154C966.9 154.2 966.9 154.3 966.9 154.5C966.9 154.6 966.9 154.6 966.9 154.7C966.9 155 966.9 155.2 966.8 155.5C966.8 155.7 966.8 155.9 966.7 156.2C966.7 156.3 966.7 156.5 966.7 156.6C966.7 156.9 966.6 157.2 966.6 157.6C966.5 158.2 966.4 158.9 966.2 159.5C966.1 159.8 966 160.1 966 160.5C965.9 160.8 965.8 161.1 965.7 161.5C965.5 162.2 965.3 162.8 965.1 163.5C965 163.8 964.9 164.2 964.7 164.5C964.5 165.2 964.2 165.8 963.9 166.5C963.8 166.8 963.6 167.2 963.5 167.5C963.2 168.2 962.9 168.9 962.5 169.6C962.3 170 962.2 170.3 962 170.7C961.7 171.4 961.3 172.1 960.9 172.8C960.7 173.2 960.5 173.5 960.3 173.9C960.1 174.3 959.9 174.6 959.7 175C959.3 175.7 958.8 176.5 958.3 177.2C958.1 177.6 957.8 178 957.6 178.3C957.4 178.7 957.1 179.1 956.8 179.4C956.3 180.2 955.7 180.9 955.2 181.7C954.9 182.1 954.6 182.5 954.3 182.9C953.9 183.5 953.4 184.1 953 184.7C952.6 185.3 952.1 185.9 951.6 186.5C947.1 192.1 941.6 198 935 204.2C903.2 234.4 879.7 241.5 864.5 225.5C851 211.3 855.9 191.5 879.2 166.3C879.9 165.5 880.7 164.7 881.5 163.9C881.8 163.6 882.1 163.3 882.4 163C882.7 162.7 883 162.4 883.3 162.1C883.7 161.6 884.2 161.2 884.7 160.7C885.1 160.3 885.4 160 885.8 159.6C886.1 159.2 886.5 158.9 886.9 158.6C887.2 158.3 887.5 158 887.8 157.8C888.2 157.4 888.7 156.9 889.1 156.5L890.5 155.1C891.7 154 892.8 152.9 893.9 151.9C894.5 151.4 895 150.9 895.6 150.4C895.8 150.2 896.1 150 896.3 149.8C897.4 148.8 898.4 147.9 899.5 147C900 146.6 900.4 146.2 900.9 145.8C901.7 145.1 902.5 144.5 903.3 143.8C903.8 143.4 904.2 143.1 904.7 142.7C905.5 142.1 906.2 141.5 907 141C907.5 140.6 908 140.2 908.6 139.8C908.6 139.8 908.7 139.8 908.7 139.7C909.1 139.4 909.5 139.2 909.8 138.9C910.2 138.6 910.5 138.4 910.9 138.1C911.2 137.9 911.4 137.7 911.7 137.6C912.2 137.2 912.7 136.9 913.2 136.6C914.4 135.7 915.4 135.1 916.4 134.5Z" fill="#F7A23E"/>
<path d="M960.3 257.2C952.6 262.9 943.1 268.4 931.8 273.7C920.5 279 909.6 282.4 898.9 283.9C888.2 285.4 876.8 284.1 864.6 279.9C852.4 275.8 841.1 268.2 830.6 257.2C820.4 246.5 813.6 235.1 810.2 223C806.7 210.9 806 199.5 807.8 188.9C809.7 178.3 813.5 167.5 819.3 156.6C825.1 145.7 831.1 136.4 837.4 128.6C842.6 122.2 848.1 116.1 853.9 110.3C852.5 111.5 851.2 112.8 849.9 114.1C842.7 121 835.9 128.3 829.7 136C823.4 143.7 817.4 153.1 811.6 164C805.8 174.9 802 185.7 800.1 196.3C798.2 206.9 799 218.3 802.5 230.4C806 242.5 812.8 253.9 822.9 264.6C833.4 275.6 844.7 283.2 856.9 287.3C869.1 291.4 880.5 292.8 891.2 291.3C901.9 289.8 912.9 286.4 924.1 281.1C935.4 275.8 944.9 270.3 952.6 264.6C960.3 258.9 967.7 252.7 974.8 245.9C976.2 244.6 977.5 243.3 978.8 242C972.8 247.4 966.6 252.5 960.3 257.2Z" fill="#F6BD7E"/>
<path d="M912.6 336.699C911 339.599 910.4 342.199 910.7 344.599C911 346.999 912.1 349.899 913.8 353.299C915.6 356.699 918.4 360.499 922.3 364.599C927.5 370.099 934.1 372.999 942.1 373.199L943.2 373.499L1014.9 378.999C1025.3 379.899 1032.6 378.399 1036.7 374.499C1038 373.299 1039.1 371.699 1040.1 369.899C1035.9 371.699 1030.1 372.299 1022.7 371.599L951 365.999L949.9 365.699C941.9 365.499 935.3 362.599 930.1 357.099C926.2 352.999 923.4 349.299 921.6 345.799C919.8 342.399 918.8 339.499 918.5 337.099C918.2 334.699 918.8 332.099 920.4 329.199C922 326.299 923.5 324.099 924.9 322.599C926.3 321.099 928.6 318.899 931.7 315.899L923.9 323.299C920.8 326.299 918.5 328.499 917.1 329.999C915.7 331.599 914.2 333.799 912.6 336.699Z" fill="#F6BD7E"/>
<path d="M1107.1 223.8C1108.2 220.4 1107.8 216.7 1105.9 212.8C1104 208.9 1100.7 204.5 1096.1 199.7C1091.3 194.7 1087 191.1 1083.2 189C1079.4 186.9 1075.7 186.4 1072.2 187.3C1068.6 188.3 1065.9 189.5 1063.8 191C1061.8 192.5 1058.9 194.9 1055.3 198.4L1015.3 236.4C1037.9 261.4 1049.5 283.4 1049.5 283.4L1094.5 240.6C1098.3 237 1101 234.2 1102.8 232.1C1104.6 230 1106 227.3 1107.1 223.8Z" fill="#EF9027"/>
<path d="M873.7 94.0999C865.5 100.1 857.5 106.8 849.8 114.1C842.6 121 835.8 128.3 829.6 136C823.3 143.7 817.3 153.1 811.5 164C809.2 168.3 807.2 172.7 805.5 177C832.3 167.8 856.9 164.8 879.5 166C882.5 162.8 885.7 159.5 889.3 156.1L890.7 154.8C921.5 125.5 944.6 118.9 960 135.1C972 147.7 969.2 164.8 951.8 186.3C969.9 195.8 985.6 207.6 998.7 219.8C1004.1 212.8 1009.2 204.6 1014.1 195.3C1019.8 184.3 1023.5 173.6 1025.3 163.1C1027 152.6 1026 141.3 1022.4 129.1C1018.7 116.9 1011.6 105.3 1001.2 94.2999C991.3 83.8999 980.5 76.5999 968.7 72.3999C956.9 68.1999 945.8 66.7999 935.2 68.0999C924.7 69.3999 913.8 72.5999 902.7 77.5999C891.6 82.5999 881.9 88.0999 873.7 94.0999Z" fill="#EF9027"/>
<path d="M1107.1 223.801C1108.2 220.401 1107.8 216.701 1105.9 212.801C1104 208.901 1100.7 204.501 1096.1 199.701C1091.3 194.701 1087 191.101 1083.2 189.001C1079.4 186.901 1075.7 186.401 1072.2 187.301C1068.6 188.301 1065.9 189.501 1063.8 191.001C1061.8 192.501 1058.9 194.901 1055.3 198.401L1043.1 210.001C1056.3 222.601 1069.2 236.801 1081.4 253.101L1094.5 240.601C1098.3 237.001 1101 234.201 1102.8 232.101C1104.6 230.001 1106 227.301 1107.1 223.801Z" fill="#E77525"/>
<path d="M968.6 72.3003C956.8 68.1003 945.7 66.7003 935.1 68.0003C924.6 69.3003 913.7 72.5003 902.6 77.5003C891.5 82.5003 881.8 88.0003 873.6 94.0003C865.4 100 857.4 106.7 849.7 114C847.9 115.7 846.1 117.4 844.4 119.2C844.4 119.2 874.5 120.5 916.3 134.4C934.6 123.5 949.2 123.7 959.9 135C965.6 141 968 147.9 967 155.9C983.5 164.5 1000.5 175 1017.4 188.1C1021.2 179.6 1023.8 171.2 1025.2 163C1026.9 152.5 1025.9 141.2 1022.3 129C1018.6 116.8 1011.5 105.2 1001.1 94.2003C991.2 83.8003 980.4 76.5003 968.6 72.3003Z" fill="#E77525"/>
<path d="M840.309 183.242C845.772 171.774 845.27 160.128 839.187 157.23C833.104 154.332 823.744 161.279 818.28 172.747C812.817 184.215 813.319 195.861 819.402 198.759C825.485 201.657 834.845 194.71 840.309 183.242Z" fill="#F5F9FC"/>
<path d="M848.4 157.7C851.548 157.7 854.1 155.148 854.1 152C854.1 148.852 851.548 146.3 848.4 146.3C845.252 146.3 842.7 148.852 842.7 152C842.7 155.148 845.252 157.7 848.4 157.7Z" fill="#F5F9FC"/>
<path d="M946.675 334.433C954 327.468 957.192 318.934 953.804 315.372C950.417 311.81 941.734 314.568 934.409 321.533C927.085 328.498 923.893 337.031 927.28 340.593C930.668 344.156 939.351 341.397 946.675 334.433Z" fill="#F5F9FC"/>
<path d="M1013.7 185.636C1017.56 176.475 1016.52 167.292 1011.38 165.126C1006.24 162.959 998.946 168.629 995.085 177.79C991.224 186.951 992.261 196.133 997.401 198.3C1002.54 200.466 1009.84 194.796 1013.7 185.636Z" fill="#F5F9FC"/>
<path d="M984.2 207.9C987.955 207.9 991 204.855 991 201.1C991 197.344 987.955 194.3 984.2 194.3C980.444 194.3 977.4 197.344 977.4 201.1C977.4 204.855 980.444 207.9 984.2 207.9Z" fill="#F5F9FC"/>
<path d="M1084.73 240.579C1093.26 232.473 1097.73 223.338 1094.73 220.176C1091.72 217.014 1082.37 221.022 1073.85 229.129C1065.32 237.235 1060.85 246.37 1063.85 249.532C1066.86 252.694 1076.21 248.685 1084.73 240.579Z" fill="#F5F9FC"/>
<path d="M1053.5 254.5C1056.76 254.5 1059.4 251.859 1059.4 248.6C1059.4 245.342 1056.76 242.7 1053.5 242.7C1050.24 242.7 1047.6 245.342 1047.6 248.6C1047.6 251.859 1050.24 254.5 1053.5 254.5Z" fill="#F5F9FC"/>
<path d="M946 93.9002C951.578 93.9002 956.1 89.3783 956.1 83.8002C956.1 78.2221 951.578 73.7002 946 73.7002C940.422 73.7002 935.9 78.2221 935.9 83.8002C935.9 89.3783 940.422 93.9002 946 93.9002Z" fill="#F5F9FC"/>
</g>
<defs>
<clipPath id="clip0_5470_18140">
<rect width="1264.2" height="487.8" fill="white"/>
</clipPath>
</defs>
</svg>
