<svg width="620" height="834" viewBox="0 0 620 834" fill="none" xmlns="http://www.w3.org/2000/svg">
<g clip-path="url(#clip0_4809_1965)">
<path d="M309.59 833.58C480.572 833.58 619.18 804.519 619.18 768.67C619.18 732.821 480.572 703.76 309.59 703.76C138.608 703.76 0 732.821 0 768.67C0 804.519 138.608 833.58 309.59 833.58Z" fill="#A7A9AC"/>
<path d="M524.37 758.42V758.56V758.94C524.6 761.032 524.387 763.149 523.746 765.154C523.104 767.159 522.047 769.006 520.645 770.575C519.242 772.145 517.525 773.401 515.605 774.264C513.685 775.126 511.605 775.574 509.5 775.58H142.05C139.945 775.58 137.863 775.136 135.94 774.278C134.018 773.42 132.297 772.167 130.891 770.6C129.485 769.033 128.424 767.188 127.777 765.184C127.131 763.181 126.914 761.063 127.14 758.97C128.239 747.091 128.606 735.155 128.24 723.23C128.24 722.59 128.24 721.95 128.17 721.31C128.07 718.74 127.93 716.18 127.76 713.7C127.67 712.43 127.57 711.14 127.45 709.85C127.39 709.16 127.33 708.46 127.26 707.75C127.07 705.84 126.85 703.96 126.62 702.16C126.45 700.89 126.27 699.63 126.08 698.37L125.78 696.5C125.57 695.26 125.35 694.03 125.11 692.8L124.75 691C123.929 687.027 122.861 683.109 121.55 679.27C121.377 678.77 121.197 678.27 121.01 677.77C120.321 675.907 119.537 674.082 118.66 672.3C118.04 671.07 117.4 669.91 116.73 668.85C115.12 666.27 113.41 663.61 111.5 660.69C109.87 658.2 108.29 655.85 106.79 653.59L106.57 653.26C104.94 650.82 103.39 648.49 101.91 646.26C100.91 644.69 99.91 643.16 98.91 641.64C97.91 640.12 96.91 638.45 96.09 636.97C95.09 635.32 94.26 633.74 93.43 632.17C91.673 628.837 90.1039 625.408 88.73 621.9C88.02 620.07 87.36 618.21 86.73 616.35C85.82 613.47 85.02 610.47 84.37 607.43C82.5108 598.134 81.6327 588.669 81.75 579.19V196.41C81.75 168.9 87.47 153.41 96.05 138.64C96.92 137.15 97.84 135.64 98.87 133.97C100.13 131.97 101.55 129.75 103.34 127.03L106.62 122.1C109.8 117.34 113.08 112.42 116.62 106.73C119.425 101.976 121.553 96.853 122.94 91.51C123.85 88.27 124.66 84.72 125.35 80.94C126.19 76.26 126.86 71.14 127.35 65.72C127.47 64.43 127.57 63.15 127.66 61.87C127.83 59.4 127.97 56.87 128.07 54.27C128.07 53.64 128.12 53.01 128.14 52.39C128.505 40.4487 128.138 28.4963 127.04 16.6C126.816 14.5076 127.034 12.3913 127.681 10.3888C128.328 8.38628 129.389 6.5423 130.795 4.97669C132.201 3.41107 133.921 2.15886 135.843 1.30145C137.765 0.444046 139.846 0.000620849 141.95 3.95762e-07H509.5C511.603 -0.000482752 513.683 0.441411 515.605 1.297C517.526 2.15258 519.247 3.40274 520.654 4.96628C522.06 6.52982 523.123 8.37178 523.772 10.3726C524.421 12.3734 524.642 14.4883 524.42 16.58L524.32 17.58C524.32 17.58 524.14 19.66 524.13 19.69L524.07 20.54C523.99 21.54 523.91 22.64 523.82 23.91L523.74 25.22C523.62 27.29 523.51 29.37 523.43 31.43C523.3 34.56 523.22 37.71 523.19 40.79V40.88C523.19 44.46 523.19 48.02 523.29 51.46V51.58C523.38 54.65 523.52 57.68 523.71 60.58V60.76C523.71 61.45 523.8 62.15 523.86 62.85V63.13C523.91 63.82 523.97 64.56 524.03 65.3C525.63 83.69 529.35 98 534.79 106.71C538.34 112.4 541.62 117.31 544.79 122.06C559.23 143.7 569.67 159.33 569.67 196.39V579.18C569.787 588.659 568.909 598.124 567.05 607.42C566.4 610.42 565.61 613.42 564.69 616.35C564.1 618.2 563.44 620.06 562.69 621.89C561.69 624.51 560.55 627.06 559.25 629.69C558.63 630.93 557.94 632.26 557.14 633.69C556.82 634.27 556.51 634.84 556.14 635.4C552.77 641.4 548.85 647.26 544.69 653.49C541.52 658.24 538.24 663.14 534.69 668.83C529.24 677.54 525.53 691.83 523.93 710.25L523.75 712.45C523.75 712.45 523.64 714.08 523.59 714.77V714.98C523.4 717.88 523.26 720.91 523.17 723.98V724.12C523.17 724.81 523.17 726.25 523.17 726.28C523.11 729.05 523.1 731.9 523.17 734.75C523.17 737.27 523.26 739.83 523.34 742.35C523.34 742.35 523.41 744.14 523.41 744.17C523.5 746.41 523.61 748.46 523.72 750.28L523.8 751.61C523.89 752.92 523.97 754.03 524.04 754.99L524.18 756.64" fill="#231F20"/>
<path d="M142.05 760.58C142.05 760.58 149.39 692.8 129.45 660.9C109.51 629 96.84 619.04 96.84 579.16V196.41C96.84 156.54 109.52 146.57 129.45 114.68C149.38 82.79 142.05 15 142.05 15H496.2C496.2 15 503.54 82.78 483.6 114.68C463.66 146.58 450.99 156.58 450.99 196.41V579.18C450.99 619.06 463.67 629.02 483.6 660.92C503.53 692.82 496.2 760.58 496.2 760.58H142.05Z" fill="#A1A488"/>
<path d="M164.04 660.92C144.1 629.02 131.43 619.06 131.43 579.18V196.41C131.43 156.54 144.1 146.57 164.04 114.68C183.98 82.79 176.64 15 176.64 15H142.05C142.05 15 149.39 82.78 129.45 114.68C109.51 146.58 96.84 156.58 96.84 196.41V579.18C96.84 619.06 109.52 629.02 129.45 660.92C149.38 692.82 142.05 760.58 142.05 760.58H176.64C176.64 760.58 183.97 692.82 164.04 660.92Z" fill="#7E7F6B"/>
<path d="M509.5 760.58C509.5 760.58 502.16 692.8 522.1 660.9C542.04 629 554.71 619.04 554.71 579.16V196.41C554.71 156.54 542.03 146.57 522.1 114.68C502.17 82.79 509.5 15 509.5 15H155.37C155.37 15 148.03 82.78 167.97 114.68C187.91 146.58 200.58 156.54 200.58 196.41V579.18C200.58 619.06 187.91 629.02 167.97 660.92C148.03 692.82 155.37 760.58 155.37 760.58H509.5Z" fill="#EAE9E5"/>
<path d="M554.71 318.02H200.56V457.58H554.71V318.02Z" fill="#48BEA2"/>
<path d="M381.59 536.32C463.615 536.32 530.11 469.826 530.11 387.8C530.11 305.775 463.615 239.28 381.59 239.28C299.565 239.28 233.07 305.775 233.07 387.8C233.07 469.826 299.565 536.32 381.59 536.32Z" fill="#FAF28C"/>
<path d="M509.5 15H155.37C153.769 32.1675 153.641 49.4408 154.99 66.63H509.12C507.766 49.441 507.893 32.1672 509.5 15Z" fill="#D3D3B6"/>
<path d="M154.97 708.97C153.629 726.153 153.763 743.42 155.37 760.58H509.5C507.893 743.413 507.766 726.139 509.12 708.95L154.97 708.97Z" fill="#D3D3B6"/>
<g style="mix-blend-mode:multiply">
<path d="M199.91 593.58C197.08 622.1 185.26 633.28 167.96 660.96C148.01 692.82 155.37 760.58 155.37 760.58H509.5C509.5 760.58 502.16 692.8 522.1 660.9C542.04 629 554.71 619.04 554.71 579.16V196.41C554.71 196.41 530.9 593.58 199.91 593.58Z" fill="#DAD9D6"/>
</g>
<path d="M504.3 588.2C523.525 588.2 539.11 572.615 539.11 553.39C539.11 534.165 523.525 518.58 504.3 518.58C485.075 518.58 469.49 534.165 469.49 553.39C469.49 572.615 485.075 588.2 504.3 588.2Z" fill="#E9F3F9"/>
<g style="mix-blend-mode:multiply">
<path d="M554.71 579.18V494.08L552.77 491.96C552.77 491.96 541.12 670.96 167.95 660.96C148.01 692.82 155.37 760.58 155.37 760.58H509.5C509.5 760.58 502.16 692.8 522.1 660.9C542.04 629 554.71 619.06 554.71 579.18Z" fill="#CBC9C8"/>
</g>
<path d="M226.21 133.29H274.03C274.862 133.27 275.695 133.313 276.52 133.42C277.152 133.542 277.762 133.758 278.33 134.06C278.691 134.259 279.007 134.531 279.258 134.858C279.509 135.185 279.69 135.56 279.79 135.96C280.112 137.135 280.257 138.352 280.22 139.57C280.258 140.775 280.113 141.979 279.79 143.14C279.684 143.531 279.5 143.896 279.249 144.214C278.998 144.532 278.686 144.796 278.33 144.99C277.747 145.291 277.124 145.507 276.48 145.63C275.638 145.735 274.789 145.779 273.94 145.76H257.52V189.02C257.534 189.995 257.49 190.97 257.39 191.94C257.252 192.708 256.989 193.448 256.61 194.13C256.37 194.565 256.044 194.946 255.652 195.25C255.26 195.554 254.81 195.775 254.33 195.9C252.929 196.28 251.481 196.452 250.03 196.41C248.596 196.453 247.163 196.282 245.78 195.9C245.306 195.772 244.863 195.549 244.478 195.245C244.093 194.941 243.774 194.561 243.54 194.13C243.154 193.438 242.894 192.683 242.77 191.9C242.665 190.904 242.621 189.902 242.64 188.9V145.76H226.12C225.301 145.777 224.482 145.734 223.67 145.63C223.029 145.508 222.409 145.293 221.83 144.99C221.467 144.792 221.149 144.52 220.897 144.194C220.644 143.867 220.461 143.491 220.36 143.09C220.043 141.914 219.898 140.698 219.93 139.48C219.897 138.275 220.041 137.072 220.36 135.91C220.467 135.518 220.653 135.152 220.905 134.834C221.158 134.516 221.473 134.253 221.83 134.06C222.407 133.753 223.027 133.537 223.67 133.42C224.512 133.315 225.361 133.271 226.21 133.29Z" fill="#595952"/>
<path d="M296.9 150.06C303.093 150.014 309.056 152.406 313.5 156.72C317.39 160.52 319.856 165.543 320.482 170.945C321.108 176.347 319.858 181.801 316.94 186.39C314.722 189.868 311.615 192.688 307.94 194.56C304.569 196.276 300.842 197.177 297.06 197.19C293.189 197.184 289.38 196.223 285.97 194.39C282.32 192.446 279.224 189.607 276.97 186.14C274.553 182.484 273.299 178.182 273.37 173.8C273.285 170.615 273.886 167.448 275.132 164.515C276.377 161.582 278.239 158.951 280.59 156.8C284.939 152.511 290.792 150.092 296.9 150.06ZM291.31 179.94C292.884 181.251 294.853 181.994 296.9 182.05C298.98 181.986 300.979 181.229 302.58 179.9C303.534 179.15 304.291 178.179 304.785 177.071C305.28 175.963 305.498 174.751 305.42 173.54C305.42 170.734 304.53 168.64 302.75 167.26C301.066 165.917 298.974 165.19 296.82 165.2C294.762 165.236 292.782 165.998 291.23 167.35C290.326 168.114 289.613 169.079 289.149 170.168C288.686 171.257 288.484 172.439 288.56 173.62C288.476 174.817 288.683 176.017 289.161 177.117C289.64 178.217 290.377 179.186 291.31 179.94Z" fill="#595952"/>
<path d="M376.37 151.01C378.562 150.978 380.734 151.436 382.726 152.349C384.719 153.262 386.483 154.609 387.89 156.29C390.99 159.823 392.537 165.66 392.53 173.8V188.8C392.549 189.802 392.506 190.804 392.4 191.8C392.273 192.598 392.013 193.369 391.63 194.08C391.395 194.523 391.072 194.912 390.679 195.224C390.287 195.535 389.834 195.762 389.35 195.89C387.923 196.272 386.447 196.444 384.97 196.4C383.516 196.449 382.063 196.26 380.67 195.84C380.186 195.703 379.734 195.469 379.342 195.153C378.951 194.837 378.627 194.445 378.39 194C378.009 193.287 377.746 192.517 377.61 191.72C377.51 190.723 377.466 189.722 377.48 188.72V173.71C377.48 168.717 375.703 166.223 372.15 166.23C370.15 166.23 368.79 166.897 368.07 168.23C367.259 169.977 366.888 171.897 366.99 173.82V188.82C367.009 189.822 366.966 190.824 366.86 191.82C366.72 192.604 366.446 193.359 366.05 194.05C365.801 194.491 365.467 194.878 365.067 195.189C364.667 195.5 364.209 195.728 363.72 195.86C362.293 196.242 360.817 196.414 359.34 196.37C357.886 196.419 356.433 196.229 355.04 195.81C354.556 195.673 354.104 195.439 353.712 195.123C353.321 194.807 352.997 194.415 352.76 193.97C352.379 193.257 352.116 192.487 351.98 191.69C351.884 190.693 351.844 189.692 351.86 188.69V173.71C351.86 168.717 350.08 166.223 346.52 166.23C343.08 166.23 341.36 168.724 341.36 173.71V188.93C341.379 189.932 341.336 190.934 341.23 191.93C341.104 192.718 340.829 193.475 340.42 194.16C339.91 195.032 339.076 195.668 338.1 195.93C336.669 196.312 335.19 196.484 333.71 196.44C332.259 196.482 330.811 196.31 329.41 195.93C328.926 195.802 328.473 195.575 328.081 195.264C327.688 194.952 327.365 194.563 327.13 194.12C326.753 193.424 326.493 192.671 326.36 191.89C326.254 190.894 326.211 189.892 326.23 188.89V158.58C326.211 157.578 326.254 156.576 326.36 155.58C326.486 154.789 326.76 154.029 327.17 153.34C327.683 152.468 328.521 151.835 329.5 151.58C330.926 151.188 332.402 151.013 333.88 151.06C336.693 151.06 338.587 151.577 339.56 152.61C340.607 153.855 341.131 155.457 341.02 157.08L341.45 156.44C341.823 155.928 342.223 155.438 342.65 154.97C343.261 154.284 343.93 153.651 344.65 153.08C345.477 152.463 346.39 151.971 347.36 151.62C348.444 151.198 349.597 150.981 350.76 150.98C353.423 150.864 356.064 151.505 358.377 152.829C360.69 154.153 362.581 156.106 363.83 158.46C364.533 157.51 365.294 156.605 366.11 155.75C367.377 154.522 368.811 153.478 370.37 152.65C372.189 151.58 374.26 151.014 376.37 151.01Z" fill="#595952"/>
<path d="M436.31 151.09C437.761 151.047 439.211 151.222 440.61 151.61C441.094 151.735 441.548 151.96 441.94 152.269C442.333 152.579 442.656 152.968 442.89 153.41C443.268 154.124 443.528 154.894 443.66 155.69C443.765 156.687 443.809 157.689 443.79 158.69V188.79C443.809 189.792 443.765 190.794 443.66 191.79C443.531 192.572 443.271 193.326 442.89 194.02C442.65 194.454 442.324 194.834 441.932 195.136C441.54 195.439 441.09 195.658 440.61 195.78C439.181 196.172 437.701 196.348 436.22 196.3C433.64 196.3 431.82 195.914 430.76 195.14C430.224 194.741 429.781 194.23 429.462 193.643C429.142 193.056 428.954 192.407 428.91 191.74C426.79 194.78 423.35 196.3 418.59 196.3C413.43 196.3 408.73 194.037 404.49 189.51C400.346 185.25 398.056 179.523 398.12 173.58C398.108 170.685 398.669 167.815 399.769 165.136C400.869 162.458 402.487 160.022 404.53 157.97C408.797 153.47 413.483 151.22 418.59 151.22C420.416 151.185 422.231 151.525 423.92 152.22C425.138 152.676 426.273 153.328 427.28 154.15C427.848 154.693 428.367 155.286 428.83 155.92C428.862 155.221 429.044 154.537 429.363 153.915C429.682 153.292 430.131 152.745 430.68 152.31C431.733 151.497 433.61 151.09 436.31 151.09ZM420.91 181.19C421.895 181.207 422.872 181.008 423.772 180.608C424.672 180.207 425.473 179.614 426.12 178.87C427.455 177.483 428.206 175.636 428.22 173.71C428.198 171.805 427.488 169.973 426.22 168.55C425.556 167.756 424.718 167.126 423.771 166.708C422.824 166.29 421.794 166.096 420.76 166.14C419.728 166.109 418.702 166.309 417.757 166.727C416.812 167.144 415.973 167.767 415.3 168.55C413.963 169.974 413.21 171.848 413.19 173.8C413.201 174.759 413.405 175.706 413.789 176.584C414.174 177.462 414.732 178.253 415.43 178.91C416.136 179.649 416.988 180.232 417.931 180.625C418.874 181.017 419.889 181.21 420.91 181.19Z" fill="#595952"/>
<path d="M476.98 166.31L471.4 165.97V177.84C471.306 179.004 471.561 180.17 472.13 181.19C472.452 181.557 472.859 181.84 473.316 182.015C473.773 182.189 474.265 182.249 474.75 182.19C475.825 182.177 476.9 182.22 477.97 182.32C478.76 182.433 479.521 182.698 480.21 183.1C480.983 183.531 481.554 184.25 481.8 185.1C482.128 186.332 482.273 187.605 482.23 188.88C482.273 190.334 482.084 191.785 481.67 193.18C481.531 193.664 481.295 194.116 480.977 194.508C480.66 194.9 480.266 195.223 479.82 195.46C479.109 195.842 478.338 196.103 477.54 196.23C476.584 196.333 475.622 196.376 474.66 196.36C468.7 196.36 464.173 195.026 461.08 192.36C457.987 189.693 456.437 185.136 456.43 178.69V165.97C455.408 166.136 454.375 166.222 453.34 166.23C452.673 166.271 452.004 166.16 451.386 165.905C450.768 165.65 450.215 165.259 449.77 164.76C448.93 163.76 448.52 161.76 448.52 158.66C448.489 157.313 448.633 155.968 448.95 154.66C449.128 153.791 449.563 152.996 450.2 152.38C450.657 151.966 451.2 151.658 451.79 151.48C452.378 151.326 452.983 151.252 453.59 151.26L456.43 151.61V142.75C456.411 141.774 456.455 140.799 456.56 139.83C456.686 139.085 456.947 138.37 457.33 137.72C457.58 137.307 457.911 136.949 458.303 136.667C458.695 136.386 459.139 136.186 459.61 136.08C461.046 135.728 462.522 135.57 464 135.61C465.204 135.584 466.406 135.729 467.57 136.04C468.348 136.255 469.087 136.593 469.76 137.04C470.32 137.475 470.726 138.077 470.92 138.76C471.151 139.404 471.296 140.077 471.35 140.76C471.35 141.34 471.35 142.14 471.35 143.17V151.58C473.87 151.353 475.76 151.236 477.02 151.23C478.022 151.216 479.023 151.259 480.02 151.36C480.802 151.491 481.556 151.755 482.25 152.14C482.685 152.379 483.066 152.705 483.37 153.097C483.674 153.489 483.896 153.939 484.02 154.42C484.402 155.847 484.574 157.323 484.53 158.8C484.572 160.25 484.4 161.699 484.02 163.1C483.892 163.584 483.665 164.037 483.354 164.429C483.042 164.821 482.653 165.145 482.21 165.38C481.499 165.762 480.728 166.023 479.93 166.15C478.951 166.263 477.966 166.316 476.98 166.31Z" fill="#595952"/>
<path d="M511.56 150.06C517.75 150.016 523.709 152.408 528.15 156.72C532.041 160.52 534.506 165.543 535.132 170.945C535.759 176.347 534.508 181.801 531.59 186.39C529.373 189.868 526.266 192.69 522.59 194.56C519.218 196.273 515.492 197.174 511.71 197.19C507.836 197.184 504.023 196.222 500.61 194.39C496.958 192.449 493.86 189.61 491.61 186.14C489.168 182.492 487.892 178.189 487.95 173.8C487.865 170.614 488.467 167.446 489.715 164.513C490.962 161.58 492.826 158.949 495.18 156.8C499.545 152.492 505.427 150.072 511.56 150.06ZM505.97 179.94C507.542 181.254 509.512 181.998 511.56 182.05C513.637 181.986 515.632 181.229 517.23 179.9C518.178 179.154 518.931 178.189 519.426 177.089C519.92 175.988 520.141 174.785 520.07 173.58C520.07 170.774 519.18 168.68 517.4 167.3C515.718 165.954 513.624 165.227 511.47 165.24C509.412 165.278 507.433 166.039 505.88 167.39C504.976 168.154 504.263 169.119 503.8 170.208C503.336 171.297 503.134 172.479 503.21 173.66C503.132 174.852 503.343 176.044 503.823 177.137C504.303 178.23 505.04 179.192 505.97 179.94Z" fill="#595952"/>
<path d="M270.47 299.62C287.536 299.62 301.37 285.786 301.37 268.72C301.37 251.655 287.536 237.82 270.47 237.82C253.404 237.82 239.57 251.655 239.57 268.72C239.57 285.786 253.404 299.62 270.47 299.62Z" fill="#E9F3F9"/>
<path d="M249.51 232.89C258.827 232.89 266.38 225.337 266.38 216.02C266.38 206.703 258.827 199.15 249.51 199.15C240.193 199.15 232.64 206.703 232.64 216.02C232.64 225.337 240.193 232.89 249.51 232.89Z" fill="#E9F3F9"/>
<path d="M285.68 661.69C279.893 661.687 274.23 660.013 269.37 656.87C268.854 656.563 268.43 656.122 268.143 655.594C267.856 655.066 267.717 654.471 267.74 653.87C267.74 652.21 268.83 649.877 271.01 646.87C271.324 646.39 271.76 646.002 272.273 645.746C272.786 645.489 273.358 645.373 273.93 645.41C275.81 645.536 277.622 646.161 279.18 647.22C281.98 648.82 284.37 649.62 286.31 649.62C289.81 649.62 291.56 648.94 291.56 647.56C291.56 646.99 291.01 646.5 289.93 646.1C288.592 645.623 287.208 645.288 285.8 645.1C283.96 644.826 282.156 644.35 280.42 643.68C278.547 642.99 276.747 642.112 275.05 641.06C273.243 639.862 271.811 638.177 270.92 636.2C269.777 633.738 269.219 631.044 269.29 628.33C269.29 619.27 275.51 614.74 287.95 614.74C292.295 614.804 296.576 615.803 300.5 617.67C302.5 618.59 303.5 619.85 303.5 621.45C303.31 623.129 302.69 624.731 301.7 626.1C300.367 628.16 299.033 629.19 297.7 629.19C296.68 629.097 295.688 628.805 294.78 628.33C292.6 627.254 290.211 626.667 287.78 626.61C284.4 626.61 282.71 627.24 282.71 628.5C282.74 628.992 282.915 629.465 283.215 629.856C283.514 630.248 283.923 630.542 284.39 630.7C285.723 631.3 287.145 631.675 288.6 631.81C292.388 632.324 296.073 633.428 299.52 635.08C301.323 636.025 302.796 637.497 303.74 639.3C304.914 641.535 305.49 644.037 305.41 646.56C305.498 649.254 304.925 651.929 303.74 654.35C302.7 656.363 301.042 657.989 299.01 658.99C297.047 659.968 294.962 660.678 292.81 661.1C290.457 661.518 288.07 661.716 285.68 661.69Z" fill="#595952"/>
<path d="M354.74 632.45C354.74 636.23 353.867 638.967 352.12 640.66C351.368 641.448 350.468 642.078 349.47 642.514C348.473 642.95 347.399 643.183 346.31 643.2H325.93C325.93 644.8 326.877 646.134 328.77 647.2C330.62 648.282 332.727 648.848 334.87 648.84C336.341 648.845 337.809 648.728 339.26 648.49C340.278 648.344 341.281 648.114 342.26 647.8L343.26 647.46C344.328 646.908 345.5 646.585 346.7 646.51C348.533 646.51 350.11 647.8 351.43 650.38C352.089 651.616 352.467 652.982 352.54 654.38C352.54 659.48 346.437 662.03 334.23 662.03C330.348 662.103 326.494 661.357 322.92 659.84C319.91 658.597 317.262 656.616 315.22 654.08C313.448 651.816 312.069 649.271 311.14 646.55C310.254 643.948 309.801 641.219 309.8 638.47C309.8 631.25 312.133 625.474 316.8 621.14C321.467 616.807 327.3 614.644 334.3 614.65C336.926 614.619 339.539 615.01 342.04 615.81C344.152 616.457 346.133 617.473 347.89 618.81C349.413 620.012 350.733 621.45 351.8 623.07C352.796 624.536 353.565 626.144 354.08 627.84C354.518 629.338 354.74 630.89 354.74 632.45ZM336.59 635.37C338.77 635.37 339.86 634.46 339.86 632.62C339.879 632.009 339.753 631.403 339.492 630.85C339.231 630.297 338.843 629.814 338.36 629.44C337.087 628.56 335.554 628.137 334.01 628.24C331.967 628.327 330.02 629.131 328.51 630.51C326.677 632.03 325.76 633.65 325.76 635.37H336.59Z" fill="#595952"/>
<path d="M404.02 632.45C404.02 636.23 403.14 638.97 401.4 640.66C400.648 641.447 399.748 642.077 398.75 642.513C397.753 642.949 396.679 643.182 395.59 643.2H375.21C375.21 644.8 376.15 646.2 378.05 647.2C379.9 648.281 382.007 648.847 384.15 648.84C385.621 648.844 387.089 648.727 388.54 648.489C389.557 648.342 390.561 648.112 391.54 647.799L392.48 647.46C393.549 646.91 394.72 646.586 395.92 646.51C397.76 646.51 399.337 647.799 400.65 650.38C401.315 651.613 401.698 652.98 401.77 654.38C401.77 659.479 395.663 662.03 383.45 662.03C379.571 662.101 375.721 661.355 372.15 659.84C369.139 658.599 366.49 656.618 364.45 654.08C362.681 651.824 361.302 649.29 360.37 646.58C359.487 643.977 359.038 641.248 359.04 638.499C359.04 631.279 361.373 625.503 366.04 621.17C370.707 616.836 376.54 614.673 383.54 614.679C386.166 614.648 388.779 615.04 391.28 615.84C393.392 616.486 395.373 617.502 397.13 618.84C398.653 620.041 399.973 621.48 401.04 623.1C402.036 624.565 402.805 626.174 403.32 627.869C403.769 629.355 404.005 630.897 404.02 632.45ZM385.87 635.369C388.05 635.369 389.14 634.459 389.14 632.619C389.159 632.009 389.033 631.402 388.772 630.849C388.511 630.297 388.123 629.813 387.64 629.439C386.367 628.561 384.834 628.138 383.29 628.239C381.246 628.324 379.298 629.128 377.79 630.51C375.95 632.03 375.04 633.649 375.04 635.369H385.87Z" fill="#595952"/>
<path d="M446.67 594.44C448.121 594.398 449.569 594.57 450.97 594.95C451.454 595.078 451.907 595.305 452.299 595.616C452.692 595.928 453.016 596.317 453.25 596.76C453.631 597.473 453.894 598.243 454.03 599.04C454.13 600.037 454.174 601.038 454.16 602.04V653.38C454.175 654.381 454.131 655.383 454.03 656.38C453.896 657.17 453.618 657.93 453.21 658.62C452.958 659.051 452.623 659.429 452.225 659.731C451.827 660.033 451.374 660.253 450.89 660.38C449.461 660.772 447.981 660.947 446.5 660.9C442.14 660.9 439.74 659.5 439.28 656.69C436.873 659.443 433.52 660.816 429.22 660.81C424.06 660.81 419.357 658.56 415.11 654.06C410.962 649.795 408.675 644.059 408.75 638.11C408.735 632.277 411.037 626.676 415.15 622.54C419.43 618.013 424.12 615.75 429.22 615.75C433.46 615.75 436.757 617.183 439.11 620.05V601.92C439.094 600.918 439.134 599.917 439.23 598.92C439.362 598.138 439.626 597.384 440.01 596.69C440.251 596.256 440.578 595.876 440.969 595.572C441.361 595.268 441.81 595.046 442.29 594.92C443.719 594.548 445.194 594.386 446.67 594.44ZM426.03 643.44C426.72 644.185 427.559 644.777 428.493 645.176C429.427 645.576 430.434 645.775 431.45 645.76C432.448 645.783 433.438 645.587 434.352 645.187C435.266 644.786 436.081 644.189 436.74 643.44C438.081 642.055 438.837 640.207 438.85 638.28C438.826 636.375 438.116 634.543 436.85 633.12C436.186 632.326 435.348 631.696 434.401 631.279C433.454 630.861 432.424 630.666 431.39 630.71C430.354 630.671 429.323 630.862 428.37 631.27C427.417 631.678 426.566 632.293 425.88 633.07C424.571 634.491 423.837 636.348 423.82 638.28C423.826 639.247 424.024 640.203 424.404 641.092C424.783 641.982 425.336 642.786 426.03 643.46V643.44Z" fill="#595952"/>
<path d="M477.72 661.69C471.919 661.694 466.241 660.02 461.37 656.87C460.854 656.563 460.43 656.122 460.143 655.594C459.856 655.066 459.717 654.471 459.74 653.87C459.74 652.21 460.82 649.87 463 646.87C463.316 646.389 463.753 646.001 464.268 645.744C464.783 645.488 465.356 645.373 465.93 645.41C467.807 645.534 469.617 646.159 471.17 647.22C473.97 648.794 476.37 649.58 478.37 649.58C481.87 649.58 483.62 648.9 483.62 647.52C483.62 646.95 483.07 646.46 481.98 646.06C480.646 645.583 479.265 645.248 477.86 645.06C476.02 644.787 474.215 644.311 472.48 643.64C470.607 642.95 468.807 642.072 467.11 641.02C465.3 639.825 463.868 638.139 462.98 636.16C461.834 633.699 461.272 631.005 461.34 628.29C461.34 619.23 467.56 614.7 480 614.7C484.348 614.765 488.632 615.764 492.56 617.63C494.56 618.55 495.56 619.81 495.56 621.41C495.37 623.089 494.75 624.691 493.76 626.06C492.427 628.12 491.093 629.15 489.76 629.15C488.74 629.057 487.748 628.765 486.84 628.29C484.66 627.214 482.271 626.627 479.84 626.57C476.46 626.57 474.77 627.2 474.77 628.46C474.798 628.952 474.971 629.423 475.269 629.815C475.566 630.207 475.974 630.502 476.44 630.66C477.776 631.26 479.202 631.635 480.66 631.77C484.448 632.284 488.133 633.388 491.58 635.04C493.38 635.986 494.848 637.458 495.79 639.26C496.972 641.493 497.551 643.995 497.47 646.52C497.56 649.216 496.983 651.891 495.79 654.31C494.753 656.325 493.094 657.952 491.06 658.95C489.101 659.928 487.019 660.638 484.87 661.06C482.512 661.492 480.118 661.703 477.72 661.69Z" fill="#595952"/>
<g style="mix-blend-mode:multiply">
<path d="M382.4 569.36C424.363 569.36 458.38 561.118 458.38 550.95C458.38 540.783 424.363 532.54 382.4 532.54C340.437 532.54 306.42 540.783 306.42 550.95C306.42 561.118 340.437 569.36 382.4 569.36Z" fill="#A7A9AC"/>
</g>
<path d="M375.7 552.89C374.281 552.891 372.915 552.352 371.879 551.383C370.843 550.413 370.214 549.086 370.12 547.67C369.622 537.341 369.685 526.993 370.31 516.67L369.74 517.11L369.22 517.51L368.74 517.87L368.24 518.24L367.76 518.58L367.31 518.89L366.85 519.21L366.41 519.5L365.78 519.91L365.15 520.3L364.76 520.54L364.12 520.91L363.96 521L363.53 521.24L363.23 521.4L362.93 521.55C361.024 522.425 359.055 523.157 357.04 523.74L355.6 524.16C355.09 524.3 354.6 524.44 354.03 524.57C353.2 524.78 352.34 524.98 351.48 525.17C348.897 525.725 346.282 526.119 343.65 526.35C342.95 526.42 342.22 526.47 341.51 526.5C340.8 526.53 340.03 526.57 339.31 526.58H338.18C337.02 526.58 335.87 526.52 334.75 526.44L333.59 526.33C329.091 525.918 324.696 524.745 320.59 522.86L319.42 522.29C318.243 521.688 317.102 521.021 316 520.29C314.082 519.005 312.299 517.527 310.68 515.88C309.299 514.472 308.034 512.954 306.9 511.34C305.69 509.615 304.613 507.8 303.68 505.91C303.47 505.49 303.26 505.05 303.04 504.57L302.85 504.14L302.46 503.23C302.4 503.07 302.33 502.91 302.27 502.76L301.92 501.86L301.76 501.41C301.63 501.04 301.5 500.68 301.39 500.31C301.39 500.24 301.39 500.18 301.32 500.12C301.19 499.7 301.07 499.28 300.94 498.82L300.85 498.49V498.39C300.77 498.1 300.7 497.81 300.63 497.53C300.56 497.25 300.56 497.2 300.52 497.03C300.48 496.86 300.41 496.5 300.36 496.23V496.15C300.36 496.01 300.31 495.88 300.29 495.74C300.23 495.427 300.18 495.117 300.14 494.81C300.14 494.71 300.14 494.61 300.14 494.51C300.08 494.12 300.04 493.72 300 493.33C300 493.19 300 493.07 300 492.95V492.85C300 492.6 300 492.34 300 492.09C300 491.84 300 491.74 300 491.56C300 491.38 300 491.1 300 490.87V490.82C300 490.66 300 490.5 300 490.34C300 490.18 300 489.84 300 489.58V489.51C300 489.39 300 489.28 300 489.17C300 488.8 300 488.45 300.07 488.11C300.07 488.06 300.07 488 300.07 487.95C300.166 486.91 300.316 485.875 300.52 484.85C300.305 483.97 300.305 483.051 300.52 482.17C300.788 481.104 301.366 480.14 302.18 479.4C302.38 478.9 302.6 478.4 302.83 477.92C297.041 479.8 291.005 480.811 284.92 480.92C282.968 480.967 281.017 480.779 279.11 480.36C278.079 480.096 277.145 479.542 276.419 478.764C275.692 477.986 275.204 477.017 275.01 475.97C270.12 449.81 279.59 432.77 288.39 423.08C292.108 419.007 296.348 415.443 301 412.48C300.551 411.727 300.29 410.876 300.24 410C300.184 409.063 300.364 408.127 300.764 407.278C301.164 406.429 301.772 405.694 302.53 405.14C306.063 402.59 310.111 400.843 314.39 400.02C313.454 398.885 313.005 397.425 313.142 395.96C313.279 394.495 313.99 393.143 315.12 392.2L314.12 391.66L313.6 391.38L312.38 390.69L311.85 390.39L310.48 389.6L310.21 389.45L308.63 388.51L308.14 388.22L307.05 387.56L306.51 387.23L305.4 386.54L305.01 386.3L303.62 385.41L303.11 385.08L302.2 384.48L301.64 384.11L300.76 383.52L300.28 383.19L299.05 382.35L298.53 381.98L297.78 381.45L297.21 381.04L296.44 380.49L295.97 380.14L295.46 379.76C293.573 380.294 291.647 380.744 289.68 381.11L287.45 381.49C285.38 381.8 283.34 382.01 281.37 382.11C280.62 382.11 279.88 382.18 279.16 382.18H278.48C269.18 382.18 261.2 379.8 254.75 375.1C254.02 374.56 253.29 373.98 252.6 373.38C248.748 370.077 245.607 366.025 243.37 361.47C243.16 361.04 242.95 360.6 242.74 360.12L242.59 359.8V359.7C242.45 359.39 242.32 359.09 242.2 358.78C242.13 358.63 242.07 358.47 242 358.31C241.93 358.15 241.77 357.71 241.66 357.42V357.3L241.54 356.97C241.4 356.59 241.27 356.22 241.15 355.84L241.1 355.69C240.96 355.23 240.83 354.81 240.72 354.38C240.72 354.26 240.65 354.13 240.62 354.01V353.93L240.41 353.09C240.41 352.92 240.33 352.75 240.3 352.59C240.27 352.43 240.19 352.05 240.13 351.78V351.73C240.13 351.59 240.13 351.44 240.05 351.3L239.9 350.37C239.9 350.37 239.9 350.14 239.9 350.05C239.84 349.63 239.79 349.23 239.76 348.83V348.46V348.37C239.76 348.12 239.76 347.87 239.71 347.62V347.08C239.71 346.85 239.71 346.62 239.71 346.39V345.86C239.71 345.61 239.71 345.37 239.71 345.12V345.03C239.71 344.91 239.71 344.78 239.71 344.65C239.71 344.32 239.71 343.97 239.78 343.65C239.775 343.604 239.775 343.557 239.78 343.51C239.871 342.463 240.021 341.421 240.23 340.39C239.988 339.418 240.014 338.397 240.304 337.438C240.595 336.479 241.139 335.616 241.88 334.94C243.21 331.778 245.011 328.835 247.22 326.21C247.28 325.231 247.595 324.283 248.134 323.463C248.672 322.642 249.415 321.976 250.29 321.53C250.36 321.53 251.77 320.79 253.74 319.87C256.177 317.924 258.773 316.185 261.5 314.67C261.33 314.58 260.63 314.15 260.63 314.15L260.01 313.78L259.57 313.51L258.97 313.13L257.61 312.25L257.39 312.11L256.78 311.7L256.54 311.54C242.94 302.34 239.44 294.38 239.09 293.54C238.693 292.554 238.586 291.475 238.781 290.43C238.976 289.385 239.465 288.417 240.19 287.64C251.81 275.21 265.27 268.92 280.19 268.92C286.744 268.95 293.24 270.152 299.37 272.47C299.856 271.607 300.563 270.888 301.419 270.389C302.275 269.89 303.249 269.628 304.24 269.63C304.81 269.633 305.376 269.72 305.92 269.89C308.003 270.553 309.995 271.473 311.85 272.63C312.323 272.402 312.824 272.237 313.34 272.14L312.76 271.19L312.46 270.69L311.74 269.49L311.42 268.94L310.64 267.59L310.47 267.3L309.58 265.72L309.3 265.22C309.09 264.85 308.89 264.48 308.69 264.11L308.38 263.54C308.18 263.17 307.97 262.78 307.77 262.39L307.55 261.97C307.29 261.5 307.04 260.97 306.79 260.52L306.52 259.99C306.35 259.66 306.19 259.33 306.02 258.99L305.73 258.4C305.57 258.07 305.41 257.76 305.26 257.4L305 256.87C304.79 256.42 304.57 255.97 304.36 255.53L304.09 254.95C303.97 254.67 303.84 254.39 303.72 254.12L303.42 253.47L302.81 252.08C302.63 251.67 302.45 251.27 302.28 250.87L302 250.2L301.74 249.56L301.45 248.85L300.93 247.55L300.76 247.11L300.23 245.7L300.06 245.26C299.97 244.99 299.87 244.74 299.78 244.49L299.63 244.04L299.36 243.29V243.22C299.15 242.62 298.96 242.04 298.77 241.46L298.69 241.23C298.6 240.93 298.52 240.67 298.43 240.4L298.34 240.12C292.94 222.61 295.43 213.34 295.74 212.34C296.048 211.32 296.64 210.409 297.448 209.715C298.256 209.02 299.245 208.571 300.3 208.42C303.943 207.891 307.619 207.62 311.3 207.61C333.17 207.61 347.02 217.81 354.79 226.37C357.763 229.652 360.381 233.238 362.6 237.07C363.377 236.659 364.241 236.436 365.12 236.42H365.22C366.14 236.42 367.047 236.647 367.858 237.081C368.669 237.516 369.36 238.144 369.87 238.91C371.635 241.575 372.953 244.51 373.77 247.6C374.586 246.937 375.575 246.521 376.62 246.4C377.133 246.315 377.657 246.315 378.17 246.4C379.897 242.379 382.132 238.595 384.82 235.14C391.31 226.86 403.53 216.98 424.82 216.98H425.14C426.195 216.996 427.224 217.309 428.109 217.884C428.993 218.459 429.697 219.273 430.14 220.23C430.52 221.05 433.77 228.71 431.06 244.16V244.22C430.96 244.76 430.87 245.29 430.76 245.82C430.76 245.82 430.76 245.87 430.76 245.9C430.65 246.45 430.53 247.02 430.4 247.59V247.75C430.28 248.31 430.15 248.87 430.01 249.44V249.5C429.87 250.08 429.72 250.67 429.57 251.27L429.37 251.58C429.22 252.15 429.06 252.73 428.9 253.32V253.4C428.727 254.014 428.547 254.634 428.36 255.26L428.27 255.57C428.09 256.16 427.91 256.75 427.71 257.35C427.71 257.35 427.71 257.47 427.71 257.49C427.51 258.12 427.29 258.77 427.07 259.42L426.94 259.81C426.72 260.44 426.51 261.06 426.28 261.69V261.82C426.04 262.48 425.79 263.16 425.53 263.82L425.36 264.28C425.11 264.93 424.85 265.58 424.59 266.28L424.53 266.41C424.25 267.11 423.96 267.82 423.66 268.53C423.66 268.53 423.37 269.24 423.32 269.34C424.553 269.721 425.614 270.52 426.32 271.6C426.889 272.481 427.2 273.503 427.218 274.551C427.235 275.599 426.959 276.631 426.42 277.53C424.567 280.357 422.313 282.901 419.73 285.08C419.681 285.132 419.628 285.179 419.57 285.22C420.26 285.31 420.9 285.42 421.5 285.55C425.889 283.065 430.6 281.197 435.5 280C435.944 279.885 436.401 279.828 436.86 279.83C437.69 279.829 438.51 280.012 439.261 280.367C440.011 280.721 440.674 281.238 441.2 281.88C441.74 282.54 446.49 288.75 447.63 303.34V303.4C447.63 303.92 447.7 304.4 447.73 304.95C447.73 305.48 447.79 306.02 447.81 306.56V306.71C447.81 307.24 447.81 307.77 447.81 308.32V308.37C447.81 308.93 447.81 309.5 447.81 310.07V310.29C447.81 310.85 447.81 311.4 447.81 311.96V312.06C447.81 312.65 447.81 313.25 447.81 313.85V314.16C447.81 314.74 447.76 315.32 447.73 315.91V316.03C447.73 316.64 447.65 317.27 447.6 317.91V318.28C447.6 318.9 447.5 319.51 447.45 320.13V320.26C447.39 320.91 447.32 321.58 447.25 322.26L447.2 322.72C447.12 323.387 447.04 324.037 446.96 324.67V324.82C446.87 325.48 446.77 326.18 446.67 326.9L446.61 327.27C447.128 327.343 447.633 327.488 448.11 327.7C449.34 326.749 450.652 325.909 452.03 325.19C452.828 324.768 453.717 324.549 454.62 324.55C455.594 324.548 456.553 324.8 457.4 325.28C458.017 325.641 458.563 326.112 459.01 326.67C467.398 321.617 476.987 318.902 486.78 318.81C498.78 318.81 510.44 323.02 521.53 331.34C522.382 331.978 523.033 332.846 523.407 333.842C523.781 334.838 523.862 335.92 523.64 336.96C523.45 337.96 521.35 346.55 509.26 358.27L509.08 358.45L508.51 358.99L508.33 359.16L507.09 360.31L506.17 361.13C505.98 361.31 505.79 361.47 505.61 361.63L505.26 361.93L504.26 362.8L503.91 363.1L502.91 363.91L502.38 364.34L501.75 364.85L501.35 365.16L500.35 365.91L499.25 366.75L498.72 367.14L498.06 367.64L497.58 367.99L496.47 368.79L496.06 369.08L495.25 369.65L494.75 370L493.93 370.57L493.46 370.88C493.06 371.16 492.64 371.43 492.22 371.71C504.71 373.21 527.22 380.19 536.39 410.17C536.701 411.189 536.715 412.274 536.429 413.3C536.144 414.326 535.572 415.249 534.78 415.96C534.1 416.58 527.62 422.07 511.78 424.3L510.78 424.43H510.56L508.95 424.62L508.17 424.7H507.79L507.08 424.76H506.66L505.37 424.86H504.95H504.18H503.74H503.09L501.84 424.92H500.7H500.11H499.38H495.38C496.56 429.799 496.512 434.895 495.24 439.75C493.711 445.271 490.921 450.361 487.09 454.62L487.01 454.71L486.83 454.91L486.51 455.27L486.22 455.58L485.9 455.93C485.62 456.23 485.33 456.53 485.04 456.82L484.89 456.98L484.31 457.55L483.77 458.07L483.22 458.59L482.85 458.92L482.65 459.11L482.32 459.39L481.79 459.86L481.08 460.45C480.67 460.79 480.26 461.12 479.86 461.45L479.31 461.88L478.7 462.34L478.18 462.72L477.72 463.04L477.25 463.37L477 463.55L476.54 463.85L475.65 464.43L475.13 464.76L474.55 465.1L474.09 465.37L473.47 465.72L473.19 465.87L472.91 466.01C470.993 466.888 469.015 467.623 466.99 468.21L466.28 468.42L464.78 468.84L463.98 469.04L462.31 469.45L460.53 469.82C459.59 470.01 458.63 470.18 457.68 470.33C456.73 470.48 455.68 470.62 454.68 470.72C453.24 470.87 451.8 470.98 450.4 471.02H448.61C432.45 471.02 420.37 463.87 413.61 450.33C413.38 449.88 413.17 449.43 412.97 448.99L412.78 448.56L412.39 447.65C412.32 447.49 412.26 447.33 412.2 447.18L411.85 446.28C411.85 446.28 411.74 445.96 411.69 445.84C411.56 445.46 411.43 445.08 411.31 444.71L411.25 444.52C411.11 444.09 410.99 443.67 410.87 443.24C410.87 443.13 410.81 443.03 410.79 442.92V442.82C410.71 442.52 410.64 442.23 410.57 441.95C410.5 441.67 410.5 441.65 410.47 441.49C410.41 441.22 410.36 440.95 410.3 440.68V440.63C410.3 440.48 410.24 440.34 410.22 440.2L410.13 439.7C406.565 449.573 403.675 459.676 401.48 469.94C396.195 494.877 393.992 520.367 394.92 545.84C395.011 547.316 394.514 548.768 393.538 549.879C392.561 550.99 391.186 551.67 389.71 551.77L376.31 552.64L375.7 552.89ZM369.86 454.48C373.042 455.378 375.999 456.935 378.54 459.05C379.91 453.37 381.44 447.82 383.1 442.47C381.307 435.352 378.477 428.535 374.7 422.24C371.672 422.745 368.728 423.664 365.95 424.97C367.483 430.165 367.233 435.724 365.24 440.76C364.831 441.669 364.188 442.451 363.375 443.028C362.563 443.604 361.612 443.954 360.62 444.04H360.13C359.795 444.039 359.46 444.009 359.13 443.95C358.92 444.5 358.71 445.06 358.49 445.61C362.32 445.72 365.25 446.26 367.22 447.23C368.504 447.866 369.496 448.97 369.991 450.315C370.486 451.66 370.446 453.144 369.88 454.46L369.86 454.48ZM425.86 407.23L426.59 406.71L426.24 406.65L425.86 407.23ZM370.06 380.78C371.87 382.2 373.64 383.67 375.35 385.18C377.843 387.387 380.217 389.697 382.47 392.11C381.27 381.835 379.379 371.652 376.81 361.63C375.95 361.2 375.1 360.73 374.29 360.23C373.48 359.73 372.78 359.23 372.06 358.73C371.34 358.23 370.6 357.62 369.9 357.02L369.47 356.64C369.641 356.958 369.779 357.294 369.88 357.64C371.276 362.005 371.995 366.558 372.01 371.14C372.018 374.449 371.365 377.727 370.09 380.78H370.06ZM403 365.36C404.821 373.88 406.203 382.488 407.14 391.15C407.42 390.73 407.71 390.32 407.99 389.91C406.386 381.653 405.871 373.221 406.46 364.83C405.37 365.03 404.23 365.21 403.03 365.36H403ZM364.53 353.67H365.09C365.787 353.736 366.466 353.932 367.09 354.25C364.587 351.513 362.489 348.432 360.86 345.1C360.64 344.66 360.44 344.23 360.24 343.8L360.05 343.36C359.92 343.07 359.79 342.76 359.66 342.45C359.6 342.3 359.53 342.14 359.47 341.98C359.41 341.82 359.23 341.38 359.13 341.08L358.96 340.64C358.83 340.27 358.71 339.9 358.59 339.54C358.59 339.47 358.59 339.41 358.53 339.35C358.38 338.9 358.26 338.47 358.14 338.05C358.14 337.93 358.08 337.83 358.06 337.72V337.62C357.98 337.334 357.91 337.044 357.85 336.75L357.73 336.26C357.67 335.99 357.62 335.72 357.57 335.46V335.38C357.57 335.24 357.57 335.1 357.5 334.96C357.44 334.66 357.4 334.35 357.35 334.05V333.99C357.35 333.9 357.35 333.8 357.35 333.7C357.35 333.31 357.25 332.91 357.21 332.51V332.13V332.03C357.21 331.79 357.21 331.54 357.16 331.28C357.11 331.02 357.16 330.92 357.16 330.74C357.16 330.56 357.16 330.28 357.16 330.05V329.96C346.86 329.824 336.664 327.874 327.04 324.2C325.988 326.142 324.639 327.907 323.04 329.43C323.17 329.74 323.31 330.05 323.44 330.37C323.471 330.432 323.498 330.495 323.52 330.56C329.402 331.954 335.051 334.194 340.29 337.21C341.034 336.044 342.183 335.194 343.516 334.825C344.849 334.456 346.272 334.593 347.51 335.21C356.18 339.5 360.98 347.4 363.57 353.85C363.894 353.762 364.225 353.701 364.56 353.67H364.53ZM338.37 302.18C343.506 303.901 348.844 304.947 354.25 305.29C353.25 303.56 352.25 301.83 351.25 300.12L350.5 300.46C349.57 300.857 348.615 301.191 347.64 301.46L347.06 301.62C345.187 302.097 343.263 302.339 341.33 302.34C340.341 302.351 339.352 302.298 338.37 302.18ZM371.1 285.39C372.2 287.2 373.29 289.03 374.35 290.86C374.62 289.44 374.84 287.98 375 286.48C374.77 286.2 374.53 285.93 374.3 285.64C373.697 284.893 373.133 284.116 372.61 283.31C372.08 284.02 371.58 284.72 371.06 285.39H371.1Z" fill="#231F20"/>
<path d="M464.11 401.46C464.11 401.46 449.75 396.46 437.43 406.98C437.43 406.98 404.79 420.66 418.43 448.13C432.07 475.6 466.33 463.13 470.21 461.25C474.09 459.37 497.77 444.45 488.14 421.69C478.51 398.93 464.11 401.46 464.11 401.46Z" fill="#E9382C"/>
<path d="M462.47 404.76C462.47 404.76 449.89 400.4 439.1 409.59C439.1 409.59 410.52 421.59 422.45 445.59C434.38 469.59 464.39 458.77 467.79 457.08C471.19 455.39 491.92 442.37 483.49 422.44C475.06 402.51 462.47 404.76 462.47 404.76Z" fill="#F1594B"/>
<path d="M484.91 436.78C441.55 450.15 424.63 432.51 420.76 427.32C418.94 432.32 418.89 438.45 422.45 445.62C434.37 469.67 464.37 458.8 467.79 457.11C470.28 455.87 482.15 448.51 484.91 436.78Z" fill="#E9382C"/>
<path d="M415.16 433.23C414.85 438.402 415.974 443.558 418.41 448.13C432.03 475.59 466.31 463.13 470.19 461.25C474.864 458.678 479.053 455.311 482.57 451.3C434 464.45 419.46 444.7 415.16 433.23Z" fill="#911A1D"/>
<path d="M462.37 423.44C449.37 430.92 441.37 430.99 436.87 429.71C436.314 429.553 435.809 429.251 435.406 428.836C435.004 428.421 434.717 427.908 434.577 427.347C434.436 426.786 434.445 426.198 434.604 425.642C434.762 425.086 435.064 424.582 435.48 424.18L435.57 424.1C436.017 423.669 436.567 423.36 437.168 423.203C437.768 423.045 438.399 423.044 439 423.2C441.71 423.9 447.79 423.96 459 417.48C459.396 417.252 459.834 417.105 460.288 417.048C460.742 416.992 461.203 417.028 461.643 417.152C462.083 417.277 462.494 417.489 462.851 417.776C463.207 418.062 463.503 418.417 463.72 418.82C464.136 419.615 464.228 420.541 463.976 421.402C463.724 422.264 463.149 422.994 462.37 423.44Z" fill="#F16465"/>
<path d="M478.744 417.848C479.262 415.304 476.747 412.644 473.126 411.907C469.506 411.17 466.151 412.634 465.633 415.178C465.115 417.721 467.63 420.381 471.251 421.118C474.871 421.855 478.226 420.391 478.744 417.848Z" fill="#F6FAFE"/>
<path d="M429.967 436.166C430.611 433.759 429.771 431.444 428.091 430.994C426.41 430.544 424.526 432.13 423.881 434.536C423.237 436.942 424.077 439.257 425.758 439.707C427.438 440.157 429.323 438.572 429.967 436.166Z" fill="#F6FAFE"/>
<g style="mix-blend-mode:multiply" opacity="0.78">
<path d="M477.65 406.35C476.422 406.146 475.168 406.173 473.95 406.43C466.72 407.96 455.8 413.99 455.8 413.99C455.8 413.99 462.8 403.58 464.92 402.38C465.608 402.028 466.32 401.724 467.05 401.47C466.074 401.346 465.086 401.346 464.11 401.47C462.482 400.967 460.806 400.632 459.11 400.47C451.86 405.47 447.54 415.97 447.54 415.97C447.54 415.97 441.31 411.3 437.01 411.97C433.26 412.58 423.31 417.59 423.31 417.59C431.87 415.4 435.16 415.35 435.16 415.35L441.22 418.35C439.709 419.238 438.119 419.984 436.47 420.58C434.78 421.2 432.68 424.66 426.81 427.46C423.427 428.938 419.821 429.84 416.14 430.13C416.14 430.13 422.78 434.22 428.67 431.53C433.026 429.424 437.154 426.878 440.99 423.93C440.99 423.93 443.24 423.49 449.36 424.2C455.48 424.91 462.79 432.58 462.79 432.58C463.45 429.02 455.19 419.36 455.19 419.36L475.28 410.36C476.71 409.71 479.28 409.98 481.67 410.48C480.467 408.976 479.121 407.593 477.65 406.35Z" fill="#911A1D"/>
</g>
<path d="M446.86 413.99C446.86 413.99 454.3 395.83 466.08 395.99C466.08 395.99 471.98 395.84 474.44 397.06C474.44 397.06 466.34 399.27 464.26 400.46C462.18 401.65 455.14 412.07 455.14 412.07C455.14 412.07 466.06 406.07 473.29 404.5C480.52 402.93 486.99 410.27 486.99 410.27C486.99 410.27 477.89 406.99 474.62 408.46C471.35 409.93 454.53 417.46 454.53 417.46C454.53 417.46 462.79 427.11 462.13 430.67C462.13 430.67 454.82 423.05 448.7 422.33C442.58 421.61 440.33 422.06 440.33 422.06C436.494 425.008 432.366 427.555 428.01 429.66C422.12 432.34 415.48 428.25 415.48 428.25C419.161 427.966 422.769 427.064 426.15 425.58C432.02 422.78 434.15 419.33 435.81 418.71C437.455 418.096 439.038 417.33 440.54 416.42L434.48 413.48C434.48 413.48 431.19 413.48 422.63 415.72C422.63 415.72 432.63 410.72 436.33 410.09C440.63 409.32 446.86 413.99 446.86 413.99Z" fill="#4CA84E"/>
<g style="mix-blend-mode:multiply">
<path d="M453.37 412.65C453.72 413.65 451.61 416.17 448.37 417.26C445.13 418.35 441.94 417.64 441.59 416.6C441.24 415.56 443.59 413.81 446.85 412.73C450.11 411.65 453 411.58 453.37 412.65Z" fill="#4CA84E"/>
</g>
<g style="mix-blend-mode:multiply">
<path d="M442.25 417.27C444.227 417.92 446.362 417.912 448.334 417.246C450.307 416.581 452.01 415.295 453.19 413.58C452.08 413.18 449.8 413.39 447.32 414.22C444.84 415.05 442.89 416.28 442.25 417.27Z" fill="#4CA84E"/>
</g>
<path d="M445.96 416.74C444.896 413.439 444.303 410.006 444.2 406.54C443.97 398.85 446.37 392.37 451.13 387.81L454 390.81C450.09 394.56 448.19 399.81 448.36 406.29C448.443 409.346 448.955 412.375 449.88 415.29L445.96 416.74Z" fill="#4CA84E"/>
<path d="M482.94 428.84C483.55 435.52 480.94 450.25 474.77 449.63C474.77 449.63 468.85 449.36 471.13 444.79C472.65 441.79 471.96 434.79 471.32 430.43C471.166 429.407 471.385 428.364 471.935 427.488C472.486 426.613 473.332 425.964 474.32 425.66L477.04 424.86C477.692 424.661 478.381 424.61 479.055 424.711C479.73 424.812 480.373 425.062 480.939 425.443C481.504 425.825 481.977 426.328 482.323 426.915C482.67 427.503 482.88 428.16 482.94 428.84Z" fill="#F16465"/>
<path d="M479.91 424.27C481.258 424.27 482.35 423.177 482.35 421.83C482.35 420.482 481.258 419.39 479.91 419.39C478.562 419.39 477.47 420.482 477.47 421.83C477.47 423.177 478.562 424.27 479.91 424.27Z" fill="#F6FAFE"/>
<path d="M423.949 423.742C424.389 422.851 424.243 421.881 423.624 421.575C423.005 421.27 422.147 421.744 421.707 422.636C421.267 423.527 421.412 424.498 422.031 424.803C422.65 425.109 423.509 424.634 423.949 423.742Z" fill="#F6FAFE"/>
<path d="M294.08 312.31C294.08 312.31 279.72 307.31 267.4 317.82C267.4 317.82 234.75 331.51 248.4 358.97C262.05 386.43 296.31 374.02 300.19 372.1C304.07 370.18 327.74 355.3 318.12 332.53C308.5 309.76 294.08 312.31 294.08 312.31Z" fill="#E9382C"/>
<path d="M292.43 315.58C292.43 315.58 279.86 311.22 269.07 320.41C269.07 320.41 240.49 332.41 252.41 356.41C264.33 380.41 294.41 369.58 297.75 367.9C301.09 366.22 321.88 353.19 313.46 333.26C305.04 313.33 292.43 315.58 292.43 315.58Z" fill="#F1594B"/>
<path d="M314.88 347.63C271.52 361 254.6 343.35 250.72 338.16C248.9 343.16 248.86 349.29 252.41 356.47C264.34 380.47 294.41 369.64 297.75 367.96C300.25 366.72 312.11 359.36 314.88 347.63Z" fill="#E9382C"/>
<path d="M245.13 344.07C244.814 349.241 245.936 354.398 248.37 358.97C261.99 386.44 296.28 374.02 300.16 372.1C304.834 369.509 309.023 366.125 312.54 362.1C263.96 375.3 249.43 355.58 245.13 344.07Z" fill="#911A1D"/>
<path d="M292.37 334.29C279.37 341.77 271.37 341.84 266.86 340.56C266.304 340.402 265.799 340.101 265.396 339.686C264.994 339.271 264.707 338.757 264.567 338.197C264.426 337.636 264.435 337.048 264.594 336.492C264.752 335.936 265.054 335.432 265.47 335.03L265.56 334.94C266.01 334.513 266.56 334.208 267.16 334.052C267.76 333.896 268.39 333.896 268.99 334.05C271.71 334.74 277.79 334.81 288.99 328.33C289.386 328.101 289.824 327.954 290.278 327.898C290.732 327.842 291.193 327.877 291.633 328.002C292.073 328.127 292.484 328.339 292.841 328.625C293.197 328.912 293.493 329.267 293.71 329.67C294.122 330.465 294.212 331.388 293.963 332.248C293.714 333.107 293.143 333.839 292.37 334.29Z" fill="#F16465"/>
<path d="M308.72 328.697C309.237 326.154 306.722 323.494 303.102 322.757C299.481 322.019 296.127 323.484 295.609 326.027C295.091 328.571 297.606 331.23 301.226 331.968C304.847 332.705 308.202 331.241 308.72 328.697Z" fill="#F6FAFE"/>
<path d="M259.923 347.001C260.567 344.595 259.727 342.28 258.046 341.83C256.366 341.38 254.481 342.966 253.837 345.372C253.193 347.778 254.033 350.093 255.713 350.543C257.394 350.993 259.278 349.408 259.923 347.001Z" fill="#F6FAFE"/>
<g style="mix-blend-mode:multiply" opacity="0.78">
<path d="M307.62 317.2C306.393 316.999 305.139 317.023 303.92 317.27C296.69 318.81 285.77 324.84 285.77 324.84C285.77 324.84 292.77 314.43 294.89 313.23C295.577 312.875 296.289 312.57 297.02 312.32C296.044 312.191 295.056 312.191 294.08 312.32C292.451 311.819 290.776 311.484 289.08 311.32C281.82 316.32 277.51 326.82 277.51 326.82C277.51 326.82 271.27 322.15 266.98 322.82C263.23 323.44 253.28 328.45 253.28 328.45C261.84 326.26 265.13 326.21 265.13 326.21L271.13 329.15C269.628 330.06 268.045 330.827 266.4 331.44C264.71 332.06 262.62 335.51 256.74 338.31C253.362 339.793 249.758 340.699 246.08 340.99C246.08 340.99 252.72 345.07 258.61 342.39C262.966 340.285 267.094 337.738 270.93 334.79C270.93 334.79 273.18 334.34 279.3 335.06C285.42 335.78 292.72 343.4 292.72 343.4C293.39 339.85 285.13 330.19 285.13 330.19C285.13 330.19 301.94 322.69 305.21 321.19C306.65 320.55 309.21 320.82 311.61 321.32C310.416 319.822 309.08 318.442 307.62 317.2Z" fill="#911A1D"/>
</g>
<path d="M276.83 324.83C276.83 324.83 284.27 306.68 296.04 306.83C296.04 306.83 301.95 306.68 304.41 307.9C304.41 307.9 296.31 310.1 294.23 311.3C292.15 312.5 285.11 322.91 285.11 322.91C285.11 322.91 296.03 316.91 303.26 315.34C310.49 313.77 316.95 321.11 316.95 321.11C316.95 321.11 307.85 317.83 304.58 319.3L284.5 328.3C284.5 328.3 292.76 337.96 292.09 341.52C292.09 341.52 284.79 333.9 278.67 333.18C272.55 332.46 270.3 332.91 270.3 332.91C266.464 335.858 262.336 338.405 257.98 340.51C252.09 343.19 245.45 339.1 245.45 339.1C249.128 338.815 252.732 337.913 256.11 336.43C261.99 333.63 264.11 330.18 265.77 329.56C267.416 328.949 269 328.182 270.5 327.27L264.5 324.33C264.5 324.33 261.21 324.33 252.65 326.57C252.65 326.57 262.6 321.57 266.35 320.94C270.59 320.16 276.83 324.83 276.83 324.83Z" fill="#4CA84E"/>
<g style="mix-blend-mode:multiply">
<path d="M283.31 323.5C283.66 324.55 281.55 327.02 278.31 328.11C275.07 329.2 271.89 328.49 271.54 327.44C271.19 326.39 273.54 324.66 276.8 323.57C280.06 322.48 282.96 322.45 283.31 323.5Z" fill="#4CA84E"/>
</g>
<g style="mix-blend-mode:multiply">
<path d="M272.22 328.12C274.194 328.771 276.326 328.767 278.298 328.107C280.269 327.447 281.975 326.168 283.16 324.46C282.05 324.06 279.77 324.27 277.29 325.1C274.81 325.93 272.86 327.13 272.22 328.12Z" fill="#4CA84E"/>
</g>
<path d="M275.93 327.58C274.861 324.278 274.268 320.84 274.17 317.37C273.94 309.68 276.34 303.21 281.09 298.65L283.97 301.65C280.06 305.41 278.15 310.65 278.32 317.13C278.399 320.204 278.914 323.251 279.85 326.18L275.93 327.58Z" fill="#4CA84E"/>
<path d="M312.91 339.69C313.52 346.36 310.91 361.1 304.73 360.47C304.73 360.47 298.82 360.21 301.1 355.64C302.62 352.64 301.92 345.64 301.29 341.28C301.139 340.251 301.364 339.202 301.925 338.325C302.485 337.449 303.343 336.804 304.34 336.51L307.06 335.71C307.709 335.517 308.393 335.472 309.062 335.576C309.731 335.68 310.369 335.932 310.928 336.313C311.488 336.694 311.956 337.194 312.299 337.778C312.642 338.362 312.85 339.015 312.91 339.69Z" fill="#F16465"/>
<path d="M309.88 335.12C311.228 335.12 312.32 334.028 312.32 332.68C312.32 331.333 311.228 330.24 309.88 330.24C308.532 330.24 307.44 331.333 307.44 332.68C307.44 334.028 308.532 335.12 309.88 335.12Z" fill="#F6FAFE"/>
<path d="M253.931 334.604C254.371 333.712 254.226 332.742 253.606 332.436C252.987 332.131 252.129 332.606 251.689 333.497C251.249 334.389 251.394 335.359 252.013 335.665C252.632 335.97 253.491 335.495 253.931 334.604Z" fill="#F6FAFE"/>
<path d="M476.57 399.8L472.57 387C458.85 391.33 443.57 390.22 433.17 388.53C442.91 377.551 454.776 368.662 468.05 362.4L462.34 350.26C448.479 356.8 435.99 365.919 425.54 377.13C424.79 367.19 425.54 353.07 433.64 343.02L423.15 334.58C406.91 354.75 412.48 384.46 414 391.12C411.753 394.253 409.593 397.517 407.52 400.91C403.284 407.926 399.538 415.227 396.31 422.76C390.586 409.986 382.183 398.592 371.67 389.35C364.781 383.116 357.011 377.93 348.61 373.96L343.37 386.31C350.584 389.808 357.256 394.328 363.18 399.73C364.827 401.21 366.403 402.73 367.91 404.29C358.02 406.68 344.73 413.03 331.68 429.03L342.08 437.51C356.92 419.32 371.19 416.56 377.64 416.35C382.956 424.373 386.791 433.284 388.96 442.66C386.54 450.24 384.43 458.173 382.63 466.46C376.946 493.01 374.634 520.171 375.75 547.3L389.14 546.43C388.163 520.44 390.403 494.43 395.81 468.99C401.81 441.37 411.143 418.513 423.81 400.42C432.678 402.374 441.729 403.38 450.81 403.42C459.53 403.523 468.216 402.303 476.57 399.8Z" fill="#66BE64"/>
<path d="M354.37 456.72C354.37 456.72 340.01 451.72 327.69 462.24C327.69 462.24 295.05 475.92 308.69 503.39C322.33 530.86 356.59 518.39 360.47 516.51C364.35 514.63 388.03 499.71 378.4 476.95C368.77 454.19 354.37 456.72 354.37 456.72Z" fill="#E9382C"/>
<path d="M352.75 460.02C352.75 460.02 340.17 455.66 329.38 464.85C329.38 464.85 300.8 476.85 312.73 500.85C324.66 524.85 354.67 514.03 358.07 512.34C361.47 510.65 382.2 497.63 373.77 477.7C365.34 457.77 352.75 460.02 352.75 460.02Z" fill="#F1594B"/>
<path d="M375.19 492.04C331.83 505.41 314.92 487.76 311.04 482.58C309.22 487.58 309.17 493.71 312.73 500.88C324.65 524.88 354.67 514.06 358.07 512.37C360.56 511.13 372.43 503.77 375.19 492.04Z" fill="#E9382C"/>
<path d="M305.44 488.48C305.129 493.655 306.254 498.815 308.69 503.39C322.31 530.85 356.59 518.39 360.47 516.51C365.142 513.944 369.331 510.584 372.85 506.58C324.28 519.71 309.74 499.96 305.44 488.48Z" fill="#911A1D"/>
<path d="M352.65 478.7C339.65 486.18 331.65 486.25 327.15 484.97C326.594 484.812 326.089 484.511 325.686 484.096C325.284 483.681 324.997 483.167 324.857 482.607C324.716 482.046 324.725 481.458 324.884 480.902C325.042 480.346 325.344 479.842 325.76 479.44L325.85 479.36C326.297 478.929 326.847 478.62 327.448 478.463C328.048 478.305 328.679 478.304 329.28 478.46C332 479.15 338.08 479.22 349.28 472.74C349.676 472.511 350.114 472.365 350.568 472.308C351.022 472.252 351.483 472.287 351.923 472.412C352.363 472.537 352.774 472.749 353.131 473.036C353.487 473.322 353.783 473.677 354 474.08C354.416 474.875 354.508 475.801 354.256 476.662C354.004 477.524 353.429 478.254 352.65 478.7Z" fill="#F16465"/>
<path d="M369.03 473.096C369.548 470.552 367.032 467.892 363.412 467.155C359.791 466.418 356.437 467.882 355.919 470.426C355.401 472.969 357.916 475.629 361.536 476.366C365.157 477.103 368.512 475.639 369.03 473.096Z" fill="#F6FAFE"/>
<path d="M320.238 491.425C320.882 489.019 320.042 486.704 318.361 486.254C316.681 485.804 314.796 487.39 314.152 489.796C313.508 492.202 314.348 494.517 316.028 494.967C317.709 495.417 319.593 493.831 320.238 491.425Z" fill="#F6FAFE"/>
<g style="mix-blend-mode:multiply" opacity="0.78">
<path d="M367.93 461.58C366.702 461.376 365.448 461.404 364.23 461.66C357 463.19 346.08 469.22 346.08 469.22C346.08 469.22 353.08 458.81 355.2 457.61C355.888 457.258 356.6 456.954 357.33 456.7C356.354 456.57 355.366 456.57 354.39 456.7C352.762 456.198 351.086 455.863 349.39 455.7C342.14 460.7 337.82 471.2 337.82 471.2C337.82 471.2 331.59 466.53 327.29 467.2C323.54 467.81 313.59 472.82 313.59 472.82C322.15 470.63 325.44 470.58 325.44 470.58L331.5 473.52C329.998 474.43 328.415 475.196 326.77 475.81C325.08 476.43 322.98 479.89 317.11 482.69C313.727 484.168 310.12 485.071 306.44 485.36C306.44 485.36 313.08 489.45 318.97 486.76C323.326 484.655 327.454 482.108 331.29 479.16C331.29 479.16 333.54 478.72 339.66 479.43C345.78 480.14 353.09 487.77 353.09 487.77C353.75 484.22 345.49 474.56 345.49 474.56L365.58 465.56C367.01 464.91 369.58 465.18 371.97 465.68C370.759 464.186 369.406 462.813 367.93 461.58Z" fill="#911A1D"/>
</g>
<path d="M337.14 469.25C337.14 469.25 344.58 451.09 356.36 451.25C356.36 451.25 362.26 451.1 364.72 452.32C364.72 452.32 356.62 454.53 354.54 455.72C352.46 456.91 345.42 467.33 345.42 467.33C345.42 467.33 356.34 461.33 363.57 459.76C370.8 458.19 377.27 465.53 377.27 465.53C377.27 465.53 368.17 462.25 364.9 463.72C361.63 465.19 344.81 472.72 344.81 472.72C344.81 472.72 353.07 482.37 352.41 485.93C352.41 485.93 345.1 478.31 338.98 477.59C332.86 476.87 330.61 477.32 330.61 477.32C326.774 480.268 322.646 482.815 318.29 484.92C312.41 487.6 305.76 483.51 305.76 483.51C309.441 483.226 313.049 482.323 316.43 480.84C322.3 478.04 324.43 474.59 326.09 473.97C327.735 473.356 329.318 472.589 330.82 471.68L324.76 468.74C324.76 468.74 321.47 468.74 312.91 470.98C312.91 470.98 322.91 465.98 326.61 465.35C330.91 464.58 337.14 469.25 337.14 469.25Z" fill="#4CA84E"/>
<g style="mix-blend-mode:multiply">
<path d="M343.63 467.91C343.98 468.91 341.87 471.43 338.63 472.52C335.39 473.61 332.2 472.9 331.85 471.86C331.5 470.82 333.85 469.07 337.11 467.98C340.37 466.89 343.28 466.86 343.63 467.91Z" fill="#4CA84E"/>
</g>
<g style="mix-blend-mode:multiply">
<path d="M332.53 472.58C334.504 473.233 336.637 473.229 338.609 472.569C340.581 471.91 342.286 470.629 343.47 468.92C342.36 468.52 340.08 468.73 337.6 469.56C335.12 470.39 333.17 471.58 332.53 472.58Z" fill="#4CA84E"/>
</g>
<path d="M336.24 472C335.176 468.697 334.584 465.259 334.48 461.79C334.25 454.11 336.65 447.63 341.41 443.07L344.29 446.07C340.37 449.82 338.47 455.07 338.64 461.55C338.729 464.606 339.24 467.635 340.16 470.55L336.24 472Z" fill="#4CA84E"/>
<path d="M373.22 484.1C373.83 490.78 371.22 505.51 365.05 504.89C365.05 504.89 359.13 504.62 361.41 500.05C362.93 497.05 362.24 490.05 361.6 485.69C361.446 484.667 361.665 483.623 362.215 482.748C362.766 481.873 363.612 481.224 364.6 480.92L367.32 480.12C367.972 479.92 368.661 479.869 369.335 479.97C370.01 480.071 370.653 480.322 371.219 480.703C371.784 481.084 372.257 481.587 372.604 482.175C372.95 482.763 373.16 483.42 373.22 484.1Z" fill="#F16465"/>
<path d="M370.19 479.53C371.538 479.53 372.63 478.438 372.63 477.09C372.63 475.743 371.538 474.65 370.19 474.65C368.842 474.65 367.75 475.743 367.75 477.09C367.75 478.438 368.842 479.53 370.19 479.53Z" fill="#F6FAFE"/>
<path d="M314.239 479.009C314.679 478.118 314.534 477.147 313.915 476.842C313.296 476.536 312.437 477.011 311.997 477.902C311.557 478.794 311.703 479.764 312.322 480.07C312.941 480.375 313.799 479.9 314.239 479.009Z" fill="#F6FAFE"/>
<path d="M351.58 415.58C351.58 415.58 351.58 404.76 331.69 400.98C332.928 402.853 333.935 404.867 334.69 406.98C334.69 406.98 317.69 400.79 305.58 409.64C305.58 409.64 310.31 412.28 310.79 413.42C310.79 413.42 271.63 428.64 280.26 474.93C302.97 433.7 351.58 415.58 351.58 415.58Z" fill="#66BE64"/>
<path d="M351.58 415.58C351.58 415.58 302.97 433.71 280.31 474.92C280.31 474.92 300.93 480.23 340.97 451.23C342.306 453.621 343.111 456.271 343.33 459C343.33 459 352.12 451.26 355.8 435.56C355.8 435.56 357.95 435.27 360.13 438.48C360.13 438.47 366.19 424.97 351.58 415.58Z" fill="#4CA84E"/>
<g style="mix-blend-mode:multiply">
<path d="M351.58 415.58C351.58 415.58 351.58 409.42 343.02 404.78C343.02 404.78 345.34 442.06 303.94 471.55C313.46 468.26 325.82 462.2 340.94 451.23C342.276 453.621 343.081 456.271 343.3 459C343.3 459 352.09 451.26 355.77 435.56C355.77 435.56 357.92 435.27 360.1 438.48C360.13 438.47 366.19 424.97 351.58 415.58Z" fill="#4CA84E"/>
</g>
<path d="M440.64 370.04C440.64 370.04 431.82 365.64 436.75 347.89C437.767 349.669 438.996 351.318 440.41 352.8C440.41 352.8 442.2 336.45 454.33 330.1C454.33 330.1 454.58 335.03 455.33 335.88C455.33 335.88 483.57 310.03 517.89 335.77C475.08 337.65 440.64 370.04 440.64 370.04Z" fill="#66BE64"/>
<path d="M440.64 370.04C440.64 370.04 475.08 337.65 517.88 335.77C517.88 335.77 513.88 354.77 474.05 375.77C475.465 377.824 477.302 379.553 479.44 380.84C479.44 380.84 469.57 384.9 455.27 381.57C455.27 381.57 454.16 383.21 455.9 386.28C455.9 386.26 442.43 385.76 440.64 370.04Z" fill="#4CA84E"/>
<g style="mix-blend-mode:multiply">
<path d="M440.64 370.04C440.64 370.04 435.64 367.53 435.28 358.68C435.28 358.68 464.8 375.62 505.6 353.68C499.06 360.13 489.12 367.78 474.05 375.68C475.465 377.735 477.303 379.463 479.44 380.75C479.44 380.75 469.57 384.81 455.27 381.48C455.27 381.48 454.16 383.12 455.9 386.19C455.9 386.26 442.43 385.76 440.64 370.04Z" fill="#4CA84E"/>
</g>
<path d="M452.74 394.9C452.74 394.9 448.45 386.63 462.1 375.83C461.883 377.751 461.904 379.693 462.16 381.61C462.16 381.61 472.64 370.13 485.44 372.04C485.44 372.04 482.88 375.94 482.97 377.04C482.97 377.04 518.97 373.04 530.8 411.81C497.07 389.36 452.74 394.9 452.74 394.9Z" fill="#66BE64"/>
<path d="M452.74 394.9C452.74 394.9 497.07 389.36 530.8 411.77C530.8 411.77 517.19 424.05 475.06 417.88C474.992 420.237 475.435 422.581 476.36 424.75C476.36 424.75 466.55 422.35 457.48 411.84C457.48 411.84 455.73 412.48 455.34 415.84C455.37 415.79 445.37 407.91 452.74 394.9Z" fill="#4CA84E"/>
<g style="mix-blend-mode:multiply">
<path d="M452.74 394.9C452.74 394.9 450.3 390.19 454.96 383.24C454.96 383.24 468.07 412.63 511.43 418.62C502.85 419.91 490.99 420.21 475.06 417.88C474.992 420.237 475.435 422.581 476.36 424.75C476.36 424.75 466.55 422.35 457.49 411.84C457.49 411.84 455.73 412.48 455.34 415.84C455.37 415.79 445.37 407.91 452.74 394.9Z" fill="#4CA84E"/>
</g>
<path d="M418.83 351.81C418.83 351.81 411.53 355.15 402.83 342.94C404.483 343.206 406.162 343.27 407.83 343.13C407.83 343.13 398.39 333.63 400.59 322.7C400.59 322.7 403.84 325.06 404.75 325.03C404.75 325.03 402.84 293.91 436.75 285.36C415.95 313.42 418.83 351.81 418.83 351.81Z" fill="#66BE64"/>
<path d="M418.83 351.81C418.83 351.81 415.95 313.42 436.67 285.36C436.67 285.36 446.67 297.6 439.55 333.59C441.586 333.747 443.632 333.463 445.55 332.76C445.55 332.76 443.06 341.09 433.63 348.45C433.63 348.45 434.11 349.99 436.94 350.45C436.91 350.46 429.7 358.73 418.83 351.81Z" fill="#4CA84E"/>
<g style="mix-blend-mode:multiply">
<path d="M418.83 351.81C418.83 351.81 414.67 353.71 408.89 349.4C408.89 349.4 434.73 339.4 441.74 302.32C442.48 309.76 442.24 319.97 439.55 333.59C441.586 333.747 443.632 333.463 445.55 332.76C445.55 332.76 443.06 341.09 433.63 348.45C433.63 348.45 434.11 349.99 436.94 350.45C436.91 350.46 429.7 358.73 418.83 351.81Z" fill="#4CA84E"/>
</g>
<path d="M360.83 383.65C360.83 383.65 370.41 378.65 364.56 359.26C363.49 361.236 362.18 363.074 360.66 364.73C360.66 364.73 358.3 346.83 344.83 340.17C344.83 340.17 344.68 345.58 343.89 346.54C343.89 346.54 312.26 318.87 275.24 347.95C322.25 348.96 360.83 383.65 360.83 383.65Z" fill="#66BE64"/>
<path d="M360.83 383.65C360.83 383.65 322.25 348.96 275.24 347.95C275.24 347.95 280.07 368.68 324.32 390.75C322.815 393.039 320.837 394.979 318.52 396.44C318.52 396.44 329.46 400.65 345.07 396.65C345.07 396.65 346.33 398.42 344.49 401.83C344.49 401.83 359.26 400.95 360.83 383.65Z" fill="#4CA84E"/>
<g style="mix-blend-mode:multiply">
<path d="M360.83 383.65C360.83 383.65 366.28 380.78 366.45 371.06C366.45 371.06 334.45 390.38 289.16 367.33C296.49 374.25 307.58 382.4 324.32 390.75C322.815 393.039 320.837 394.979 318.52 396.44C318.52 396.44 329.46 400.65 345.07 396.65C345.07 396.65 346.33 398.42 344.49 401.83C344.49 401.83 359.26 400.95 360.83 383.65Z" fill="#4CA84E"/>
</g>
<path d="M393.57 350.48C390.535 339.81 386.794 329.354 382.37 319.18C389.19 310.37 399.8 289.78 391.21 253.05L378.15 256.05C382.21 273.42 381.9 288.95 377.27 300.95C376.73 302.36 376.15 303.63 375.57 304.79C374.123 301.944 372.613 299.12 371.04 296.32C354.6 267.03 338.04 251.03 337.33 250.32L328.05 260.02C328.21 260.17 344.12 275.6 359.59 303.3C360.88 305.61 362.19 308.06 363.51 310.63C350.65 311.81 337.67 309.06 324.76 302.39C316.529 298.161 309.003 292.683 302.45 286.15L292.59 295.25C300.073 302.832 308.702 309.19 318.16 314.09C330.357 320.653 343.97 324.147 357.82 324.27C361.754 324.27 365.682 323.969 369.57 323.37C383.35 354.598 390.193 388.442 389.63 422.57L403.05 422.8C403.468 398.358 400.273 373.989 393.57 350.48Z" fill="#66BE64"/>
<path d="M323.92 311.1C323.92 311.1 331.63 305.39 323.92 289.22C323.25 291.095 322.353 292.881 321.25 294.54C321.25 294.54 316.75 279.17 304.04 275.15C304.04 275.15 304.64 279.92 304.04 280.86C304.04 280.86 272.58 260.86 244.04 291.39C285.37 285.91 323.92 311.1 323.92 311.1Z" fill="#66BE64"/>
<path d="M323.92 311.1C323.92 311.1 285.37 285.91 244.07 291.39C244.07 291.39 251.07 308.9 292.88 322.26C291.872 324.469 290.402 326.437 288.57 328.03C288.57 328.03 298.72 330.24 311.87 324.62C311.87 324.62 313.2 326.01 312.06 329.25C312.06 329.25 324.88 326.48 323.92 311.1Z" fill="#4CA84E"/>
<g style="mix-blend-mode:multiply">
<path d="M323.92 311.1C323.92 311.1 328.31 307.85 327.14 299.31C327.14 299.31 301.72 320.56 258.89 306.49C266.25 311.56 277.08 317.21 292.89 322.26C291.882 324.469 290.412 326.436 288.58 328.03C288.58 328.03 298.73 330.24 311.88 324.62C311.88 324.62 313.21 326.01 312.07 329.25C312.06 329.25 324.88 326.48 323.92 311.1Z" fill="#4CA84E"/>
</g>
<path d="M357.13 287.66C357.13 287.66 367.94 288.08 372.55 268.4C370.633 269.573 368.581 270.51 366.44 271.19C366.44 271.19 373.34 254.51 365.01 242C365.01 242 362.17 246.61 361.01 247.05C361.01 247.05 347.46 207.27 300.85 213.95C341.06 238.33 357.13 287.66 357.13 287.66Z" fill="#66BE64"/>
<path d="M357.13 287.66C357.13 287.66 341.06 238.33 300.85 213.95C300.85 213.95 294.67 234.32 321.96 275.55C319.511 276.774 316.827 277.456 314.09 277.55C314.09 277.55 321.46 286.66 336.98 291C336.98 291 337.18 293.16 333.89 295.21C333.89 295.24 347.12 301.85 357.13 287.66Z" fill="#4CA84E"/>
<g style="mix-blend-mode:multiply">
<path d="M357.13 287.66C357.13 287.66 363.28 287.9 368.28 279.56C368.28 279.56 330.93 280.3 303.21 237.69C306.1 247.35 311.64 259.95 321.96 275.55C319.511 276.774 316.826 277.457 314.09 277.55C314.09 277.55 321.46 286.66 336.98 291C336.98 291 337.18 293.16 333.89 295.21C333.89 295.24 347.12 301.85 357.13 287.66Z" fill="#4CA84E"/>
</g>
<path d="M411.59 295.98C411.59 295.98 397.23 290.98 384.9 301.49C384.9 301.49 352.26 315.18 365.9 342.64C379.54 370.1 413.8 357.69 417.68 355.77C421.56 353.85 445.24 338.97 435.62 316.2C426 293.43 411.59 295.98 411.59 295.98Z" fill="#E9382C"/>
<path d="M409.94 299.28C409.94 299.28 397.37 294.92 386.58 304.11C386.58 304.11 357.99 316.11 369.92 340.11C381.85 364.11 411.86 353.28 415.26 351.6C418.66 349.92 439.39 336.89 430.96 316.95C422.53 297.01 409.94 299.28 409.94 299.28Z" fill="#F1594B"/>
<path d="M432.37 331.29C389.01 344.66 372.1 327.02 368.22 321.83C366.4 326.83 366.35 332.96 369.91 340.14C381.83 364.14 411.85 353.31 415.25 351.63C417.76 350.39 429.62 343.02 432.37 331.29Z" fill="#E9382C"/>
<path d="M362.63 327.74C362.319 332.912 363.443 338.068 365.88 342.64C379.5 370.1 413.78 357.69 417.66 355.77C422.334 353.178 426.523 349.794 430.04 345.77C381.47 358.97 366.93 339.21 362.63 327.74Z" fill="#911A1D"/>
<path d="M409.85 317.95C396.85 325.44 388.8 325.5 384.34 324.22C383.784 324.064 383.279 323.764 382.876 323.35C382.473 322.936 382.186 322.423 382.045 321.863C381.904 321.303 381.914 320.715 382.072 320.16C382.231 319.604 382.534 319.101 382.95 318.7L383.04 318.61C383.488 318.181 384.039 317.874 384.639 317.718C385.24 317.562 385.87 317.563 386.47 317.72C389.19 318.41 395.27 318.48 406.47 311.99C406.866 311.762 407.304 311.616 407.758 311.56C408.211 311.505 408.672 311.541 409.111 311.667C409.55 311.793 409.96 312.006 410.315 312.293C410.671 312.581 410.965 312.937 411.18 313.34C411.597 314.131 411.692 315.053 411.444 315.913C411.196 316.772 410.625 317.503 409.85 317.95Z" fill="#F16465"/>
<path d="M426.214 312.372C426.732 309.828 424.217 307.169 420.596 306.432C416.976 305.694 413.621 307.159 413.103 309.702C412.585 312.246 415.1 314.905 418.721 315.643C422.341 316.38 425.696 314.915 426.214 312.372Z" fill="#F6FAFE"/>
<path d="M380.184 328.696C380.831 326.28 379.988 323.955 378.301 323.502C376.613 323.05 374.72 324.642 374.073 327.058C373.425 329.474 374.268 331.799 375.956 332.252C377.643 332.704 379.536 331.112 380.184 328.696Z" fill="#F6FAFE"/>
<g style="mix-blend-mode:multiply" opacity="0.78">
<path d="M425.12 300.86C423.892 300.663 422.638 300.69 421.42 300.94C414.19 302.48 403.27 308.51 403.27 308.51C403.27 308.51 410.37 298.09 412.37 296.9C413.052 296.542 413.761 296.238 414.49 295.99C413.518 295.86 412.532 295.86 411.56 295.99C409.932 295.486 408.257 295.151 406.56 294.99C399.3 299.99 394.98 310.49 394.98 310.49C394.98 310.49 388.75 305.82 384.45 306.49C380.7 307.11 370.75 312.12 370.75 312.12C379.31 309.92 382.6 309.88 382.6 309.88L388.66 312.82C387.158 313.73 385.575 314.496 383.93 315.11C382.24 315.73 380.14 319.18 374.27 321.98C370.889 323.464 367.281 324.366 363.6 324.65C363.6 324.65 370.25 328.74 376.13 326.06C380.487 323.958 384.616 321.411 388.45 318.46C388.45 318.46 390.7 318.01 396.82 318.73C402.94 319.45 410.25 327.07 410.25 327.07C410.91 323.51 402.65 313.85 402.65 313.85L422.74 304.85C424.17 304.21 426.74 304.47 429.13 304.98C427.926 303.483 426.584 302.104 425.12 300.86Z" fill="#911A1D"/>
</g>
<path d="M394.37 308.5C394.37 308.5 401.81 290.35 413.58 290.5C413.58 290.5 419.48 290.35 421.95 291.56C421.95 291.56 413.85 293.77 411.77 294.97C409.69 296.17 402.64 306.57 402.64 306.57C402.64 306.57 413.56 300.57 420.79 299.01C428.02 297.45 434.49 304.78 434.49 304.78C434.49 304.78 425.39 301.5 422.12 302.97L402.04 311.97C402.04 311.97 410.29 321.63 409.63 325.19C409.63 325.19 402.32 317.56 396.2 316.85C390.08 316.14 387.83 316.58 387.83 316.58C383.997 319.53 379.868 322.073 375.51 324.17C369.63 326.86 362.98 322.77 362.98 322.77C366.661 322.486 370.269 321.583 373.65 320.1C379.53 317.3 381.65 313.84 383.31 313.23C384.955 312.616 386.538 311.85 388.04 310.94L381.98 308C381.98 308 378.69 308 370.13 310.24C370.13 310.24 380.08 305.24 383.83 304.61C388.1 303.83 394.37 308.5 394.37 308.5Z" fill="#4CA84E"/>
<g style="mix-blend-mode:multiply">
<path d="M400.82 307.17C401.17 308.22 399.06 310.68 395.82 311.77C392.58 312.86 389.39 312.16 389.04 311.11C388.69 310.06 391.04 308.33 394.3 307.24C397.56 306.15 400.47 306.12 400.82 307.17Z" fill="#4CA84E"/>
</g>
<g style="mix-blend-mode:multiply">
<path d="M389.72 311.78C391.693 312.432 393.825 312.429 395.796 311.771C397.767 311.113 399.474 309.836 400.66 308.13C399.56 307.72 397.27 307.94 394.8 308.77C392.33 309.6 390.37 310.8 389.72 311.78Z" fill="#4CA84E"/>
</g>
<path d="M393.43 311.25C392.364 307.95 391.772 304.516 391.67 301.05C391.45 293.36 393.84 286.89 398.6 282.33L401.48 285.33C397.56 289.08 395.66 294.33 395.83 300.81C395.919 303.866 396.431 306.895 397.35 309.81L393.43 311.25Z" fill="#4CA84E"/>
<path d="M430.37 323.36C430.98 330.03 428.37 344.76 422.2 344.14C422.2 344.14 416.29 343.88 418.57 339.31C420.08 336.31 419.39 329.31 418.75 324.95C418.597 323.919 418.823 322.868 419.386 321.991C419.948 321.114 420.81 320.47 421.81 320.18L424.52 319.38C425.169 319.187 425.853 319.142 426.522 319.246C427.191 319.35 427.829 319.602 428.388 319.983C428.948 320.364 429.416 320.864 429.759 321.448C430.102 322.032 430.311 322.685 430.37 323.36Z" fill="#F16465"/>
<path d="M427.39 318.79C428.738 318.79 429.83 317.698 429.83 316.35C429.83 315.003 428.738 313.91 427.39 313.91C426.042 313.91 424.95 315.003 424.95 316.35C424.95 317.698 426.042 318.79 427.39 318.79Z" fill="#F6FAFE"/>
<path d="M371.423 318.272C371.863 317.38 371.718 316.41 371.099 316.104C370.48 315.799 369.621 316.274 369.181 317.165C368.741 318.057 368.886 319.027 369.505 319.333C370.124 319.638 370.983 319.163 371.423 318.272Z" fill="#F6FAFE"/>
<path d="M388.37 287.34C388.37 287.34 379.83 288.86 374 273.74C375.65 274.463 377.383 274.98 379.16 275.28C379.16 275.28 371.84 262.79 377.08 251.94C377.08 251.94 379.84 255.291 380.81 255.5C380.81 255.5 387.2 222.42 424.96 222.59C395.7 246.38 388.37 287.34 388.37 287.34Z" fill="#66BE64"/>
<path d="M388.37 287.34C388.37 287.34 395.7 246.34 424.96 222.59C424.96 222.59 432.11 238.09 414.96 273.85C417.039 274.558 419.245 274.81 421.43 274.59C421.43 274.59 416.58 282.64 404.73 287.8C404.73 287.8 404.81 289.54 407.65 290.8C407.66 290.8 397.88 297.51 388.37 287.34Z" fill="#4CA84E"/>
<g style="mix-blend-mode:multiply">
<path d="M388.37 287.34C388.37 287.34 383.51 288.2 378.62 282.13C378.62 282.13 408.37 278.61 425.69 241.71C424.46 249.71 421.45 260.32 414.97 273.85C417.049 274.558 419.255 274.81 421.44 274.59C421.44 274.59 416.59 282.64 404.74 287.8C404.74 287.8 404.82 289.54 407.66 290.8C407.66 290.8 397.88 297.51 388.37 287.34Z" fill="#4CA84E"/>
</g>
<path d="M509.519 339.391C510.853 337.081 509.224 333.643 505.881 331.713C502.538 329.783 498.746 330.091 497.412 332.401C496.079 334.711 497.708 338.149 501.051 340.079C504.394 342.009 508.186 341.701 509.519 339.391Z" fill="#F6FAFE"/>
<path d="M333.39 226.09C334.724 223.78 333.095 220.343 329.752 218.412C326.408 216.482 322.617 216.79 321.283 219.1C319.949 221.41 321.578 224.848 324.922 226.778C328.265 228.708 332.056 228.4 333.39 226.09Z" fill="#F6FAFE"/>
<path d="M422.265 243.263C424.195 239.92 423.887 236.128 421.577 234.794C419.266 233.46 415.829 235.09 413.899 238.433C411.968 241.776 412.276 245.568 414.587 246.901C416.897 248.235 420.334 246.606 422.265 243.263Z" fill="#F6FAFE"/>
<path d="M516.939 399.571C518.943 397.811 518.504 394.033 515.957 391.132C513.41 388.231 509.72 387.306 507.715 389.065C505.711 390.825 506.15 394.604 508.697 397.505C511.244 400.406 514.934 401.331 516.939 399.571Z" fill="#F6FAFE"/>
<path d="M500.91 350.24C502.578 350.24 503.93 348.888 503.93 347.22C503.93 345.552 502.578 344.2 500.91 344.2C499.242 344.2 497.89 345.552 497.89 347.22C497.89 348.888 499.242 350.24 500.91 350.24Z" fill="#F6FAFE"/>
<path d="M418.45 256.45C420.118 256.45 421.47 255.098 421.47 253.43C421.47 251.762 420.118 250.41 418.45 250.41C416.782 250.41 415.43 251.762 415.43 253.43C415.43 255.098 416.782 256.45 418.45 256.45Z" fill="#F6FAFE"/>
<path d="M339.6 230.24C341.268 230.24 342.62 228.888 342.62 227.22C342.62 225.552 341.268 224.2 339.6 224.2C337.932 224.2 336.58 225.552 336.58 227.22C336.58 228.888 337.932 230.24 339.6 230.24Z" fill="#F6FAFE"/>
</g>
<defs>
<clipPath id="clip0_4809_1965">
<rect width="619.18" height="833.58" fill="white"/>
</clipPath>
</defs>
</svg>
