<svg width="267" height="263" viewBox="0 0 267 263" fill="none" xmlns="http://www.w3.org/2000/svg">
<g clip-path="url(#clip0_2852_582)">
<path d="M201.077 136.294C191.557 126.985 199.604 122.029 189.235 111.879C174.268 97.2283 150.261 96.7046 131.263 109.128L72.0304 51.137C73.1149 47.7939 73.2452 44.2144 72.4067 40.8013C71.5682 37.3881 69.7941 34.2765 67.2839 31.8165L46.4552 11.4377C44.6813 9.6998 42.5823 8.32854 40.2782 7.40227C37.974 6.47599 35.51 6.01284 33.0268 6.03934C30.5436 6.06585 28.09 6.5815 25.8061 7.55675C23.5223 8.532 21.4531 9.94775 19.7167 11.7231L9.34915 22.3144C7.61096 24.0891 6.23948 26.189 5.31308 28.4939C4.38667 30.7989 3.9235 33.2637 3.95001 35.7478C3.97653 38.2318 4.49222 40.6863 5.46761 42.9709C6.44301 45.2556 7.859 47.3256 9.63468 49.0628L30.4534 69.4418C32.9651 71.8978 36.1116 73.6052 39.5397 74.3724C42.9678 75.1396 46.5419 74.9361 49.8608 73.7849L109.093 131.766C97.0981 151.035 98.1242 175.026 113.081 189.677C123.117 199.49 128.234 191.675 137.754 200.994C147.274 210.313 135.007 224.705 153.016 242.353C175.2 264.118 213.28 261.161 238.061 235.845C262.843 210.529 264.946 172.395 242.763 150.67C225.067 133.348 210.597 145.613 201.077 136.294Z" stroke="white" stroke-width="7.18" stroke-linecap="round" stroke-linejoin="round"/>
<path d="M189.823 168.766C189.704 157.688 180.628 148.803 169.55 148.922C158.471 149.04 149.587 158.116 149.705 169.195C149.823 180.273 158.9 189.158 169.978 189.039C181.056 188.921 189.941 179.845 189.823 168.766Z" stroke="white" stroke-width="7.18" stroke-linecap="round" stroke-linejoin="round"/>
<path d="M212.956 186.233L187.927 211.802L195.595 219.308L220.623 193.739L212.956 186.233Z" fill="white" stroke="white" stroke-width="7.18" stroke-linecap="round" stroke-linejoin="round"/>
<path d="M237.308 105.587C237.242 105.417 237.21 105.238 237.213 105.056C238.008 101.902 237.573 98.6864 235.974 95.8894C234.615 93.2755 232.547 91.1891 228.982 90.4912C228.372 90.3588 227.744 90.2817 227.106 90.2611C226.964 90.2909 226.831 90.3509 226.72 90.4352C226.61 90.5195 226.526 90.6252 226.478 90.7415C226.45 91.0823 226.487 91.4209 226.587 91.745C228.111 100.287 229.539 108.847 231.159 117.373C231.414 118.79 231.125 120.268 230.333 121.599C229.541 122.931 228.285 124.049 226.741 124.798C224.466 125.996 221.844 126.586 219.248 126.487C216.258 126.406 213.516 125.488 212.028 123.151C211.553 122.428 211.301 121.609 211.295 120.762C211.289 119.915 211.529 119.066 211.993 118.287C213.919 114.793 219.123 112.669 223.539 113.019C224.203 113.073 224.865 113.167 225.564 113.247C226.262 113.327 226.546 113.195 226.434 112.568C226.399 112.37 226.365 112.18 226.329 111.981C224.74 103.074 223.153 94.1745 221.564 85.2671C221.422 84.4739 221.719 84.1918 222.579 83.7848C224.412 82.9422 225.449 83.199 226.82 84.3786C228.67 85.858 230.614 87.254 232.644 88.5612C235.035 90.2126 236.797 92.4075 237.744 94.9108C238.819 97.9927 239.596 101.128 238.271 104.425C238.23 104.535 238.18 104.642 238.12 104.747L237.582 105.571L237.308 105.587Z" fill="white"/>
<path d="M237.308 105.587C237.242 105.417 237.21 105.238 237.213 105.056C238.008 101.902 237.573 98.6864 235.974 95.8894C234.615 93.2755 232.547 91.1891 228.982 90.4912C228.372 90.3588 227.744 90.2817 227.106 90.2611C226.964 90.2909 226.831 90.3509 226.72 90.4352C226.61 90.5195 226.526 90.6252 226.478 90.7415C226.45 91.0823 226.487 91.4209 226.587 91.745C228.111 100.287 229.539 108.847 231.159 117.373C231.414 118.79 231.125 120.268 230.333 121.599C229.541 122.931 228.285 124.049 226.741 124.798C224.466 125.996 221.844 126.586 219.248 126.487C216.258 126.406 213.516 125.488 212.028 123.151C211.553 122.428 211.301 121.609 211.295 120.762C211.289 119.915 211.529 119.066 211.993 118.287C213.919 114.793 219.123 112.669 223.539 113.019C224.203 113.073 224.865 113.167 225.564 113.247C226.262 113.327 226.546 113.195 226.434 112.568C226.399 112.37 226.365 112.18 226.329 111.981C224.74 103.074 223.153 94.1745 221.564 85.2671C221.422 84.4739 221.719 84.1918 222.579 83.7848C224.412 82.9422 225.449 83.199 226.82 84.3786C228.67 85.858 230.614 87.254 232.644 88.5612C235.035 90.2126 236.797 92.4075 237.744 94.9108C238.819 97.9927 239.596 101.128 238.271 104.425C238.23 104.535 238.18 104.642 238.12 104.747L237.582 105.571L237.308 105.587Z" fill="white"/>
<path d="M77.021 149.317C77.0361 148.897 77.1158 148.648 77.1251 148.387L77.6489 133.765C77.6846 132.767 77.5679 132.641 76.4712 132.789C74.0356 133.075 71.5984 133.408 69.1524 133.704C65.4882 134.152 61.8335 134.619 58.162 134.992C55.9205 135.22 55.7977 135.262 55.7238 137.324C55.4815 144.089 55.1379 150.86 54.9962 157.638C55.0524 159.065 54.5785 160.464 53.6533 161.602C52.7282 162.74 51.4075 163.549 49.9114 163.893C48.3862 164.408 46.744 164.562 45.1338 164.341C43.5236 164.12 41.9962 163.531 40.6899 162.628C36.4504 159.674 37.4319 154.841 42.0498 152.876C43.4581 152.242 45.0126 151.932 46.5819 151.972C48.1513 152.012 49.6893 152.401 51.0658 153.106C51.6219 153.378 51.8708 153.2 51.8805 152.649L52.0061 149.141C52.2612 142.021 52.5159 134.911 52.7709 127.791C52.7923 127.194 52.9944 126.912 53.6218 126.888C55.3062 126.696 56.9812 126.485 58.6965 126.275L66.6865 125.244L69.9237 124.865L77.8676 123.991C78.7197 123.9 79.5635 123.762 80.4162 123.652C81.0255 123.571 81.258 123.851 81.2083 124.391C81.201 124.596 81.1933 124.811 81.1856 125.025C80.8403 134.664 80.4951 144.303 80.1495 153.951C80.1941 155.236 79.7966 156.499 79.0141 157.557C78.2315 158.616 77.1045 159.415 75.7953 159.84C74.1708 160.517 72.3748 160.77 70.601 160.571C68.8272 160.373 67.143 159.73 65.7301 158.714C64.8993 158.171 64.2319 157.441 63.7922 156.594C63.3525 155.746 63.1551 154.809 63.2191 153.874C63.2831 152.938 63.6062 152.034 64.1575 151.25C64.7088 150.465 65.4696 149.826 66.3671 149.393C68.4651 148.263 70.9297 147.852 73.331 148.232C74.1916 148.43 75.031 148.701 75.8385 149.041L77.021 149.317Z" fill="white"/>
<path d="M137.713 38.5565C137.61 38.1491 137.617 37.8874 137.553 37.634L133.965 23.4498C133.72 22.4812 133.572 22.3933 132.561 22.8418C130.303 23.7983 128.056 24.8001 125.79 25.7681C122.398 27.2235 119.02 28.6944 115.599 30.0799C113.511 30.9259 113.405 31.0009 113.911 33.0014C115.571 39.5639 117.136 46.1603 118.896 52.7071C119.35 54.0614 119.286 55.5371 118.716 56.8886C118.146 58.2402 117.105 59.3859 115.765 60.1352C114.445 61.0561 112.911 61.6633 111.303 61.9019C109.696 62.1404 108.065 62.0027 106.558 61.5012C101.661 59.8507 101.251 54.9366 105.135 51.7582C106.309 50.7556 107.715 50.023 109.233 49.6222C110.751 49.2215 112.336 49.1644 113.855 49.4559C114.465 49.5616 114.654 49.3211 114.509 48.7896L113.648 45.3861C111.901 38.4795 110.156 31.5821 108.409 24.6756C108.262 24.0962 108.377 23.7686 108.973 23.5698C110.536 22.9142 112.085 22.243 113.674 21.5619L121.056 18.3364L124.058 17.0665L131.44 14.0047C132.232 13.679 133.004 13.3105 133.792 12.9667C134.354 12.7185 134.656 12.9216 134.759 13.454C134.809 13.6531 134.862 13.8613 134.915 14.0695C137.28 23.42 139.646 32.7705 142.013 42.1301C142.416 43.3513 142.388 44.6747 141.932 45.9097C141.477 47.1447 140.619 48.2275 139.481 49.0021C138.111 50.1065 136.457 50.8517 134.699 51.1574C132.94 51.4631 131.144 51.3176 129.503 50.7367C128.553 50.4484 127.708 49.9342 127.049 49.2435C126.39 48.5528 125.938 47.7088 125.738 46.7925C125.537 45.8762 125.595 44.9183 125.904 44.0109C126.214 43.1034 126.766 42.2769 127.506 41.6106C129.204 39.9385 131.455 38.8544 133.867 38.5471C134.749 38.4963 135.63 38.5215 136.501 38.6224L137.713 38.5565Z" fill="white"/>
</g>
<defs>
<clipPath id="clip0_2852_582">
<rect width="259.71" height="263.53" fill="white" transform="translate(2.77246 262.508) rotate(-90.6116)"/>
</clipPath>
</defs>
</svg>
