<svg width="599" height="688" viewBox="0 0 599 688" fill="none" xmlns="http://www.w3.org/2000/svg">
<g clip-path="url(#clip0_6730_657)">
<path d="M259.893 687.998C247.467 688.021 235.164 685.605 223.722 680.893C222.355 680.333 220.963 679.675 219.596 679.09C216.912 677.871 214.253 676.421 211.695 674.922C210.44 674.166 209.186 673.374 207.932 672.57C196.816 665.284 187.456 655.746 180.493 644.611C173.531 633.477 169.131 621.01 167.597 608.067C163.03 608.724 158.419 609.054 153.801 609.054H93.6003C68.8108 609.028 45.0442 599.448 27.5153 582.416C9.98651 565.384 0.127145 542.291 0.100586 518.204V394.743C0.127145 370.656 9.98651 347.562 27.5153 330.53C45.0442 313.498 68.8108 303.918 93.6003 303.892H153.801C158.237 303.885 162.667 304.187 167.058 304.794V273.438C167.058 272.098 167.058 270.733 167.234 269.368C167.113 268.296 167.054 267.217 167.058 266.138C167.058 246.262 185.018 230.286 220.436 218.611C243.463 211.055 273.112 205.34 307.05 201.892C306.517 190.932 308.711 180.009 313.447 170.048C319.969 156.29 329.513 143.458 339.622 129.833C368.832 90.5682 385.136 64.0014 364.718 26.8936C362.596 23.0972 361.927 18.6935 362.828 14.4631C363.73 10.2328 366.145 6.44921 369.644 3.78391C373.143 1.11861 377.5 -0.256083 381.943 -0.0969599C386.386 0.0621627 390.628 1.74491 393.915 4.65327C407.184 16.8572 418.249 31.1392 426.65 46.9037C430.047 53.338 432.867 60.0454 435.078 66.9507C436.659 67.6934 438.124 68.6494 439.43 69.7902C449.799 79.2614 458.419 90.3906 464.915 102.694C479.539 130.589 478.648 158.337 462.407 182.941C457.854 189.814 453.753 195.749 450.128 200.99L450.028 201.148C484.242 204.171 515.17 209.532 539.188 216.674C578.946 228.495 599.101 245.153 599.101 266.187C599.098 267.266 599.039 268.344 598.925 269.416C599.038 270.781 599.101 272.147 599.101 273.487V597.77C599.098 617.027 592.761 635.779 581.015 651.289C569.269 666.8 552.728 678.257 533.808 683.989C532.365 684.428 530.873 684.83 529.405 685.208C527.938 685.585 526.37 685.926 524.89 686.219C518.735 687.432 512.471 688.044 506.19 688.047L259.893 687.998ZM93.4999 380.789C89.689 380.789 86.0338 382.258 83.3367 384.874C80.6396 387.491 79.121 391.04 79.1144 394.743V518.204C79.121 521.903 80.6361 525.448 83.3278 528.063C86.0195 530.679 89.6683 532.151 93.4748 532.157H153.676C156.503 532.157 159.269 531.348 161.626 529.831C163.984 528.314 165.829 526.156 166.933 523.627V389.368C165.832 386.837 163.987 384.677 161.629 383.16C159.271 381.642 156.504 380.834 153.676 380.838L93.4999 380.789Z" fill="#231F20"/>
<path d="M549.083 243.227H216.887C208.641 243.227 200.733 246.409 194.902 252.075C189.071 257.74 185.795 265.425 185.795 273.437V329.202C175.781 324.559 164.822 322.156 153.726 322.17H93.5248C73.7166 322.17 54.7197 329.816 40.7132 343.426C26.7067 357.035 18.8379 375.494 18.8379 394.741V518.203C18.8379 537.449 26.7067 555.908 40.7132 569.517C54.7197 583.127 73.7166 590.773 93.5248 590.773H153.726C164.823 590.783 175.782 588.377 185.795 583.729V597.719C185.795 616.814 193.602 635.127 207.498 648.629C221.394 662.132 240.241 669.717 259.893 669.717H506.09C525.742 669.717 544.589 662.132 558.485 648.629C572.38 635.127 580.187 616.814 580.187 597.719V273.437C580.187 269.469 579.383 265.539 577.819 261.873C576.256 258.207 573.965 254.876 571.076 252.071C568.188 249.265 564.759 247.04 560.985 245.523C557.212 244.005 553.167 243.225 549.083 243.227ZM153.726 550.435H93.5248C84.722 550.435 76.2791 547.041 70.05 540.997C63.8208 534.954 60.3146 526.756 60.3013 518.203V394.741C60.3113 386.195 63.8095 378.002 70.0286 371.959C76.2476 365.917 84.6796 362.517 93.4746 362.508H153.676C160.989 362.516 168.096 364.869 173.894 369.2C179.692 373.532 183.857 379.601 185.745 386.467V526.477C183.858 533.334 179.699 539.395 173.912 543.726C168.124 548.056 161.03 550.414 153.726 550.435Z" fill="#F1594B"/>
<path d="M549.084 243.227H503.933V597.719C503.933 616.814 496.127 635.127 482.231 648.629C468.335 662.132 449.488 669.717 429.836 669.717H506.116C515.846 669.717 525.482 667.854 534.471 664.236C543.461 660.618 551.63 655.315 558.51 648.629C565.391 641.944 570.849 634.007 574.573 625.272C578.296 616.536 580.213 607.174 580.213 597.719V273.437C580.213 269.467 579.408 265.535 577.843 261.867C576.278 258.2 573.984 254.868 571.093 252.062C568.202 249.256 564.77 247.032 560.994 245.516C557.217 244 553.17 243.222 549.084 243.227Z" fill="#D91F26"/>
<path d="M382.992 315.762C491.9 315.762 580.188 293.545 580.188 266.139C580.188 238.733 491.9 216.516 382.992 216.516C274.084 216.516 185.796 238.733 185.796 266.139C185.796 293.545 274.084 315.762 382.992 315.762Z" fill="#F16465"/>
<path d="M382.992 308.231C475.359 308.231 550.238 289.386 550.238 266.139C550.238 242.892 475.359 224.047 382.992 224.047C290.625 224.047 215.746 242.892 215.746 266.139C215.746 289.386 290.625 308.231 382.992 308.231Z" fill="#242056"/>
<path d="M367.038 274.315C367.038 274.315 309.157 222.669 330.453 177.749C351.75 132.83 418.861 86.6069 381.323 18.2773C381.323 18.2773 448.56 76.6745 407.661 138.436C366.762 200.197 352.264 205.815 367.038 274.315Z" fill="#F8F9E4"/>
<path d="M416.19 274.315C416.19 274.315 373.021 235.806 388.912 202.318C404.802 168.829 456.312 137.071 426.838 83.4141C426.838 83.4141 477.006 126.956 446.479 173.009C415.952 219.062 405.203 223.242 416.19 274.315Z" fill="#F8F9E4"/>
<path opacity="0.62" d="M259.893 669.717H506.09C525.742 669.717 544.589 662.131 558.485 648.629C572.381 635.127 580.188 616.814 580.188 597.719V460.219C487.98 642.26 185.796 583.729 185.796 583.729V597.719C185.796 616.814 193.603 635.127 207.499 648.629C221.394 662.131 240.241 669.717 259.893 669.717Z" fill="#7C131A"/>
<path d="M342.482 473.283C354.153 473.283 363.615 464.09 363.615 452.749C363.615 441.408 354.153 432.215 342.482 432.215C330.81 432.215 321.349 441.408 321.349 452.749C321.349 464.09 330.81 473.283 342.482 473.283Z" fill="#070B0C"/>
<path d="M336.838 456.418C342.275 456.418 346.683 452.135 346.683 446.852C346.683 441.568 342.275 437.285 336.838 437.285C331.4 437.285 326.992 441.568 326.992 446.852C326.992 452.135 331.4 456.418 336.838 456.418Z" fill="white"/>
<path d="M423.502 473.283C435.174 473.283 444.635 464.09 444.635 452.749C444.635 441.408 435.174 432.215 423.502 432.215C411.831 432.215 402.369 441.408 402.369 452.749C402.369 464.09 411.831 473.283 423.502 473.283Z" fill="#070B0C"/>
<path d="M417.871 456.418C423.308 456.418 427.716 452.135 427.716 446.852C427.716 441.568 423.308 437.285 417.871 437.285C412.433 437.285 408.025 441.568 408.025 446.852C408.025 452.135 412.433 456.418 417.871 456.418Z" fill="white"/>
<path d="M319.529 425.063C319.529 425.063 334.956 409.001 355.349 422.394" stroke="#231F20" stroke-width="2.58" stroke-miterlimit="10" stroke-linecap="round"/>
<path d="M446.453 425.063C446.453 425.063 431.027 409.001 410.634 422.394" stroke="#231F20" stroke-width="2.58" stroke-miterlimit="10" stroke-linecap="round"/>
<path d="M371.24 471.629C371.24 471.629 371.805 481.378 382.076 481.378C392.348 481.378 392.11 471.629 392.11 471.629" stroke="#231F20" stroke-width="2.58" stroke-miterlimit="10" stroke-linecap="round"/>
<path d="M546.863 292.964L477.306 312.677C473.616 313.722 471.497 317.477 472.573 321.063L508.47 440.651C509.546 444.237 513.411 446.296 517.101 445.25L586.657 425.537C590.348 424.491 592.467 420.737 591.391 417.151L555.494 297.563C554.417 293.977 550.553 291.918 546.863 292.964Z" fill="#F8F9E4"/>
<path d="M480.454 297.825C480.454 297.825 497.034 291.123 495.655 331.326" stroke="#989898" stroke-width="3.01" stroke-miterlimit="10" stroke-linecap="round"/>
<g style="mix-blend-mode:multiply" opacity="0.51">
<path d="M479.739 417.057L488.945 448.144C489.198 448.998 489.621 449.796 490.191 450.491C490.76 451.185 491.466 451.764 492.266 452.194C493.066 452.624 493.945 452.897 494.854 452.997C495.763 453.097 496.683 453.021 497.561 452.775L567.181 433.277C568.957 432.779 570.457 431.615 571.35 430.043C572.244 428.471 572.459 426.618 571.947 424.892L550.237 351.566C550.237 351.566 538.849 416.253 479.739 417.057Z" fill="#EFDDB6"/>
</g>
<path d="M233.405 406.186C243.158 406.186 251.064 389.425 251.064 368.749C251.064 348.074 243.158 331.312 233.405 331.312C223.652 331.312 215.746 348.074 215.746 368.749C215.746 389.425 223.652 406.186 233.405 406.186Z" fill="white"/>
<path d="M512.561 647.587C526.061 647.587 537.005 634.323 537.005 617.961C537.005 601.6 526.061 588.336 512.561 588.336C499.061 588.336 488.117 601.6 488.117 617.961C488.117 634.323 499.061 647.587 512.561 647.587Z" fill="white"/>
<path d="M537.006 588.056C544.134 588.056 549.912 582.442 549.912 575.516C549.912 568.591 544.134 562.977 537.006 562.977C529.879 562.977 524.101 568.591 524.101 575.516C524.101 582.442 529.879 588.056 537.006 588.056Z" fill="white"/>
</g>
<defs>
<clipPath id="clip0_6730_657">
<rect width="599" height="688" fill="white"/>
</clipPath>
</defs>
</svg>
