<svg width="503" height="625" viewBox="0 0 503 625" fill="none" xmlns="http://www.w3.org/2000/svg">
<g clip-path="url(#clip0_4724_608)">
<path d="M298.93 624.24C411.497 624.24 502.75 602.123 502.75 574.84C502.75 547.557 411.497 525.44 298.93 525.44C186.363 525.44 95.1099 547.557 95.1099 574.84C95.1099 602.123 186.363 624.24 298.93 624.24Z" fill="#A7A9AC"/>
<path d="M309.91 589.84C306.23 589.84 302.51 589.72 298.83 589.5C298.53 589.5 298.22 589.45 297.92 589.41C293.81 589.64 289.63 589.77 285.46 589.82H285.19H282.43C246.468 589.832 210.833 582.994 177.43 569.67C141.928 555.499 109.699 534.22 82.7199 507.14C80.8599 505.28 79.0099 503.38 77.2299 501.49C76.9699 501.23 76.7099 500.94 76.4499 500.65L76.0999 500.28C74.6899 498.77 73.2899 497.28 71.9199 495.74C71.5999 495.38 71.2899 495.02 70.9899 494.66L70.3899 493.98C69.1799 492.61 67.9699 491.24 66.7999 489.85C66.5299 489.54 66.2699 489.22 66.0099 488.85L65.6199 488.38C64.3499 486.86 63.0899 485.38 61.8699 483.82C61.6599 483.57 61.4599 483.31 61.2599 483.05L61.0199 482.74C59.8499 481.26 58.4699 479.51 57.1199 477.74L56.4999 476.91C54.9699 474.91 53.7099 473.16 52.5599 471.56L52.1099 470.91C50.6099 468.79 49.3599 467 48.1899 465.27L47.8799 464.8C46.4899 462.73 45.2199 460.8 44.0099 458.9L43.8299 458.61C42.4999 456.5 41.2099 454.43 40.0199 452.44L39.9199 452.27C10.6637 403.409 -3.06532 346.816 0.549909 289.98C0.77242 286.326 2.32385 282.879 4.91182 280.289C7.49979 277.699 10.9456 276.145 14.5999 275.92C20.3699 275.57 26.2299 275.39 32.0099 275.39C87.8577 275.237 142.48 291.759 188.88 322.84C153.88 291.33 152.61 229.18 152.58 222.54C152.5 221.1 152.45 219.67 152.4 218.24V216.74C152.4 215.68 152.4 214.6 152.34 213.52C152.34 212.98 152.34 212.43 152.34 211.87C152.34 210.77 152.34 209.65 152.34 208.53V207.25C152.34 205.8 152.39 204.35 152.44 202.91C152.44 202.52 152.51 201.2 152.51 201.2C152.51 200.27 152.59 199.38 152.63 198.49L152.75 196.43C152.8 195.64 152.92 193.91 152.92 193.91C152.92 193.26 153.01 192.61 153.06 191.96C153.11 191.31 153.17 190.76 153.22 190.17V189.88C153.35 188.4 153.5 186.88 153.66 185.42L153.81 184.02C153.91 183.09 154.03 182.17 154.14 181.25L154.3 180C154.43 179 154.57 178 154.71 177.06L154.77 176.62C155.27 173.23 155.84 169.82 156.48 166.47L156.54 166.17C156.75 165.03 156.98 163.91 157.21 162.79C162.201 138.992 170.466 115.999 181.77 94.4701C182.33 93.3901 182.89 92.3401 183.45 91.3001C185.07 88.3001 186.78 85.2301 188.52 82.3001C190.67 78.6301 192.92 74.9601 195.21 71.4101C196.31 69.7101 197.397 68.0668 198.47 66.4801C199.543 64.8934 200.6 63.3668 201.64 61.9001C203.59 59.1301 205.59 56.4101 207.58 53.7901L208.95 52.0101C213.145 46.4679 217.652 41.1693 222.45 36.1401C224.908 33.6721 228.149 32.1367 231.616 31.7973C235.083 31.4579 238.56 32.3357 241.45 34.2801L241.6 34.3801C247.736 23.9846 254.762 14.141 262.6 4.96012C264.98 2.30633 268.228 0.587114 271.761 0.110668C275.294 -0.365778 278.881 0.431689 281.88 2.36012L311.22 21.2301L340.57 2.36012C343.568 0.431689 347.156 -0.365778 350.689 0.110668C354.222 0.587114 357.469 2.30633 359.85 4.96012C369.042 15.7324 377.139 27.3932 384.02 39.7701C386.627 37.8968 389.263 36.0668 391.93 34.2801C394.82 32.3357 398.297 31.4579 401.764 31.7973C405.231 32.1367 408.472 33.6721 410.93 36.1401C411.07 36.2801 412.38 37.6001 414.51 39.9801L416.25 41.9801C419.87 46.1501 423.56 50.7301 427.25 55.6201C444.17 78.2301 466.39 115.18 476.25 162.82V162.92C476.47 164 476.68 165.08 476.89 166.18C476.89 166.24 476.95 166.5 476.95 166.5C477.59 169.83 478.16 173.23 478.66 176.63L478.73 177.09C478.87 178.09 479 179.09 479.13 180.03L479.29 181.23C479.41 182.23 479.52 183.11 479.63 184.03L479.78 185.48C479.94 186.94 480.09 188.43 480.22 189.93C480.22 189.93 480.36 191.46 480.4 191.93C480.44 192.4 480.49 193.16 480.53 193.78V194.13C480.53 194.88 480.64 195.65 480.68 196.41C480.72 197.17 480.76 197.8 480.8 198.5C480.8 199.37 480.89 200.27 480.92 201.17C480.92 201.17 480.98 202.5 480.99 202.92C481.04 204.34 481.07 205.79 481.1 207.24V208.51C481.1 209.65 481.1 210.77 481.1 211.89V213.49C481.1 214.59 481.1 215.66 481.03 216.74V218.24C481.03 219.66 480.93 221.09 480.86 222.53C480.86 229.87 479.26 305.24 432.14 331.78C419.68 338.78 404.37 344.23 386.64 347.91C384.41 348.37 382.1 348.82 379.78 349.23C377.46 349.64 375.24 350 372.9 350.34C368.9 350.94 364.71 351.47 360.4 351.92C359.72 352 359.03 352.07 358.4 352.13C355.48 352.42 352.49 352.68 349.5 352.89H349.05C346.86 353.05 344.64 353.18 342.43 353.3C341.14 353.37 339.84 353.42 338.55 353.48V435.83C372.057 402.888 417.202 384.487 464.19 384.62C467.86 384.62 471.59 384.74 475.26 384.96C478.896 385.195 482.322 386.746 484.898 389.322C487.474 391.898 489.025 395.324 489.26 398.96C491.726 437.174 481.828 475.167 461.03 507.32L460.97 507.41C458.41 511.41 455.68 515.26 452.84 518.98L452.72 519.13C451.8 520.33 450.867 521.52 449.92 522.7L449.6 523.08C448.68 524.22 447.78 525.31 446.86 526.39L446.13 527.23C445.32 528.17 444.52 529.09 443.71 530C443.37 530.38 443.03 530.75 442.71 531.12L441.85 532.06L440.44 533.58C439.44 534.65 438.44 535.7 437.35 536.75L437.06 537.05C430.061 544.058 422.499 550.479 414.45 556.25C413.15 557.18 411.81 558.12 410.45 559.03C408.45 560.38 406.3 561.76 403.88 563.25C401.77 564.54 399.88 565.65 398.16 566.63C395.4 568.19 392.55 569.7 389.71 571.1C372.808 579.474 354.687 585.12 336.02 587.83C334.49 588.06 332.94 588.26 331.4 588.45C325.298 589.173 319.164 589.59 313.02 589.7H312.89L309.91 589.84ZM201.97 332.19C212.473 340.147 222.417 348.818 231.73 358.14C247.051 373.472 260.559 390.514 271.99 408.93V351.84C268.05 351.41 264.19 350.92 260.53 350.37C258.2 350.03 255.88 349.65 253.65 349.25C251.42 348.85 249.03 348.4 246.79 347.94C229.39 344.33 214.34 339.03 201.97 332.19Z" fill="#231F20"/>
<path d="M323.49 121.1H286.99V561.51H323.49V121.1Z" fill="#4CA84E"/>
<path d="M426.34 526.61C409.851 543.133 390.031 555.951 368.199 564.213C346.368 572.474 323.026 575.988 299.73 574.52L474.28 399.99C475.744 423.29 472.226 446.635 463.96 468.468C455.693 490.302 442.868 510.123 426.34 526.61Z" fill="#4CA84E"/>
<path d="M474.28 399.99L299.75 574.52C298.31 551.226 301.837 527.891 310.098 506.063C318.36 484.236 331.167 464.413 347.67 447.91C364.173 431.407 383.995 418.6 405.823 410.339C427.651 402.077 450.986 398.55 474.28 399.99Z" fill="#66BE64"/>
<path d="M93.3399 496.52C120.115 523.351 152.301 544.169 187.753 557.586C223.205 571.003 261.109 576.711 298.94 574.33L15.5199 290.91C13.1391 328.743 18.8482 366.65 32.2669 402.103C45.6855 437.557 66.5056 469.744 93.3399 496.52Z" fill="#4CA84E"/>
<path d="M15.52 290.91L298.93 574.33C301.27 536.503 295.542 498.61 282.127 463.164C268.713 427.718 247.916 395.529 221.118 368.729C194.319 341.93 162.131 321.133 126.685 307.716C91.2396 294.3 53.3473 288.571 15.52 290.91Z" fill="#66BE64"/>
<g style="mix-blend-mode:multiply">
<path d="M298.93 574.33C300.726 544.96 297.685 515.495 289.93 487.11C182.59 527.14 31.6 400.14 31.48 399.99C51.41 453.929 88.1853 500.013 136.357 531.415C184.529 562.816 241.536 577.864 298.93 574.33Z" fill="#4CA84E"/>
</g>
<g style="mix-blend-mode:multiply">
<path d="M426.34 526.61C434.618 518.331 441.992 509.197 448.34 499.36C379.42 561.31 304.99 521.8 304.99 521.8C300.411 538.976 298.632 556.778 299.72 574.52C323.018 575.989 346.361 572.476 368.195 564.214C390.028 555.953 409.85 543.134 426.34 526.61Z" fill="#4CA84E"/>
</g>
<path d="M235.99 82.14C248.6 43.09 273.81 15 273.81 15L311.26 39.08V162.14H223.39C223.39 162.14 223.39 121.19 235.99 82.14Z" fill="#F16465"/>
<path d="M386.54 82.14C373.93 43.09 348.72 15 348.72 15L311.26 39.08V162.14H399.14C399.14 162.14 399.14 121.19 386.54 82.14Z" fill="#D91F26"/>
<path d="M268.74 335.71C268.74 335.71 241.05 154.02 400.34 46.7402C400.34 46.7402 471.34 118.12 465.84 222.15C465.84 222.15 466.14 295.43 424.76 318.74C369.7 349.77 268.74 335.71 268.74 335.71Z" fill="#F16465"/>
<path d="M268.74 335.71C268.74 335.71 369.74 349.77 424.74 318.71C466.15 295.43 465.85 222.14 465.85 222.14C471.34 118.14 400.34 46.7402 400.34 46.7402C400.34 46.7402 519.68 325.33 268.74 335.71Z" fill="#D91F26"/>
<path opacity="0.62" d="M461.54 165.84C413.54 280.51 278.09 282.84 267.54 282.84C265.54 314.73 268.71 335.7 268.71 335.7C268.71 335.7 369.71 349.76 424.71 318.7C466.15 295.43 465.85 222.14 465.85 222.14C466.83 203.267 465.382 184.345 461.54 165.84Z" fill="#7C131A"/>
<path d="M364.68 335.71C364.68 335.71 392.38 154.02 233.08 46.71C233.08 46.71 162.08 118.09 167.58 222.12C167.58 222.12 167.27 295.4 208.65 318.71C263.73 349.77 364.68 335.71 364.68 335.71Z" fill="#F1594B"/>
<path d="M364.68 335.71C364.68 335.71 263.68 349.77 208.68 318.71C167.27 295.43 167.58 222.14 167.58 222.14C162.07 118.14 233.08 46.73 233.08 46.73C233.08 46.73 113.75 325.33 364.68 335.71Z" fill="#D91F26"/>
<path opacity="0.62" d="M171.89 165.84C219.89 280.51 355.34 282.84 365.89 282.84C367.89 314.73 364.72 335.7 364.72 335.7C364.72 335.7 263.72 349.76 208.72 318.7C167.27 295.43 167.58 222.14 167.58 222.14C166.594 203.266 168.043 184.344 171.89 165.84Z" fill="#7C131A"/>
<path d="M444.209 227.943C448.338 206.095 443.946 186.921 434.4 185.117C424.854 183.313 413.769 199.563 409.641 221.411C405.513 243.26 409.904 262.433 419.45 264.237C428.996 266.041 440.081 249.791 444.209 227.943Z" fill="#F6FAFE"/>
<path d="M421.38 175.17C430.83 175.17 438.49 167.51 438.49 158.06C438.49 148.611 430.83 140.95 421.38 140.95C411.93 140.95 404.27 148.611 404.27 158.06C404.27 167.51 411.93 175.17 421.38 175.17Z" fill="#F6FAFE"/>
</g>
<defs>
<clipPath id="clip0_4724_608">
<rect width="502.75" height="624.24" fill="white"/>
</clipPath>
</defs>
</svg>
