<svg width="626" height="990" viewBox="0 0 626 990" fill="none" xmlns="http://www.w3.org/2000/svg">
<g clip-path="url(#clip0_4877_1433)">
<path d="M200.562 940.53C198.11 940.529 195.696 939.927 193.531 938.776C191.366 937.625 189.515 935.961 188.142 933.93C186.766 931.897 185.909 929.558 185.648 927.117C185.386 924.676 185.728 922.208 186.642 919.93L186.802 919.56C190.802 909.94 225.802 823.8 252.622 723.74C239.382 683.1 219.572 642.74 193.622 603.74C154.972 589.37 88.3924 553.52 42.8324 468.74C42.8135 468.715 42.7968 468.688 42.7824 468.66C23.3324 432.46 9.67234 390.66 2.19234 344.37C1.8132 342.025 1.99628 339.624 2.72646 337.364C3.45664 335.104 4.71307 333.049 6.39235 331.37C7.78592 329.977 9.44022 328.873 11.2607 328.12C13.0812 327.366 15.0322 326.979 17.0023 326.98C17.8061 326.979 18.6088 327.042 19.4024 327.17C21.4824 327.51 46.8024 331.96 80.4024 352.05C78.166 340.831 78.8932 329.222 82.5124 318.37C82.9924 316.93 83.5124 315.48 84.1124 314.07C84.4124 313.35 84.7224 312.63 85.0524 311.91C86.4128 308.922 87.9903 306.037 89.7724 303.28C81.4424 298.533 74.2485 292.025 68.6923 284.212C63.1361 276.398 59.3514 267.467 57.6024 258.04C57.6024 258.04 57.5324 257.64 57.5324 257.63C57.3424 256.63 57.1824 255.52 57.0524 254.46L56.9624 253.74C56.8524 252.74 56.7623 251.81 56.6923 250.74C56.6923 250.43 56.6423 250.18 56.6323 249.93C56.5523 248.58 56.5123 247.35 56.5123 246.16C56.5223 237.001 58.4422 227.945 62.1493 219.57C65.8564 211.195 71.2693 203.685 78.0424 197.52C79.5924 196.11 81.2224 194.76 82.9024 193.52C85.0814 191.897 87.3592 190.411 89.7224 189.07C90.5524 188.59 91.4124 188.13 92.2724 187.69L92.4924 187.58C87.6474 179.303 84.6674 170.068 83.7606 160.52C82.8539 150.972 84.0421 141.341 87.2424 132.3L87.3823 131.91C87.7423 130.91 88.1424 129.91 88.5524 128.91L88.8223 128.28C89.2224 127.36 89.6324 126.47 90.0924 125.53V125.47C90.1924 125.25 90.2924 125.04 90.4024 124.82C91.0324 123.57 91.6124 122.5 92.2024 121.48C99.8343 108.273 111.817 98.128 126.102 92.7798C130.04 91.3114 134.108 90.2201 138.252 89.52C141.37 88.9988 144.522 88.7013 147.682 88.6299H147.762H149.102C150.272 88.6299 151.462 88.63 152.652 88.73C152.599 79.1419 154.638 69.6577 158.627 60.939C162.617 52.2203 168.461 44.4771 175.752 38.25L176.062 37.98C176.882 37.29 177.732 36.62 178.582 35.98L179.132 35.5601C179.922 34.9801 180.742 34.4001 181.592 33.8301L182.212 33.4097C183.362 32.6597 184.402 32.0197 185.422 31.4097C195.396 25.6434 206.712 22.6018 218.232 22.5898C223.993 22.5927 229.728 23.3491 235.292 24.8398C236.292 25.1098 237.292 25.41 238.292 25.73C243.89 27.5215 249.221 30.0576 254.142 33.27C258.886 24.9335 265.394 17.7334 273.209 12.1733C281.025 6.61328 289.961 2.82746 299.392 1.08008L299.702 1.02002C300.842 0.82002 301.902 0.659785 302.962 0.529785L303.682 0.439941C304.682 0.329941 305.622 0.239922 306.682 0.169922L307.482 0.109863C308.872 0.0298633 310.092 0 311.262 0C321.795 0.0112925 332.172 2.54871 341.521 7.3999C350.87 12.2511 358.919 19.2744 364.992 27.8799C366.192 29.5899 367.332 31.3797 368.372 33.1997C368.852 34.0497 369.312 34.8998 369.752 35.7598L369.852 35.9497C379.948 30.0514 391.43 26.9452 403.122 26.9497C410.62 26.9522 418.061 28.241 425.122 30.7598L425.482 30.8999C426.482 31.2599 427.482 31.6498 428.482 32.0698L429.142 32.3496C430.072 32.7496 430.972 33.1699 431.872 33.6099H431.952L432.612 33.9297C433.832 34.5497 434.912 35.1297 435.932 35.7197C443.859 40.3045 450.742 46.4923 456.142 53.8877C461.542 61.2831 465.339 69.7237 467.292 78.6699C467.512 79.6699 467.712 80.7398 467.882 81.7598C468.403 84.8813 468.701 88.0359 468.772 91.1997C468.772 92.8097 468.772 94.4699 468.702 96.1299H469.082C478.612 96.1155 488.03 98.1774 496.682 102.172C505.334 106.166 513.012 111.997 519.182 119.26L519.412 119.54C520.119 120.38 520.786 121.23 521.412 122.09L521.852 122.67C522.422 123.44 523.002 124.26 523.572 125.11C523.722 125.32 523.862 125.53 524.002 125.75C524.762 126.91 525.412 127.95 526.002 128.96C533.619 142.175 536.412 157.625 533.902 172.67C533.732 173.67 533.532 174.74 533.302 175.77C532.862 177.77 532.302 179.85 531.682 181.84C530.716 184.845 529.539 187.779 528.162 190.62C526.975 193.059 525.639 195.424 524.162 197.7C532.494 202.445 539.689 208.952 545.245 216.766C550.801 224.58 554.585 233.512 556.332 242.94L556.402 243.32C556.589 244.366 556.749 245.427 556.882 246.5L556.972 247.24C557.082 248.24 557.172 249.17 557.252 250.24L557.312 251.03C557.382 252.41 557.422 253.63 557.422 254.81C557.403 265.184 554.936 275.406 550.222 284.646C545.508 293.887 538.679 301.885 530.292 307.99C527.491 310.023 524.531 311.828 521.442 313.39C527.526 323.845 530.638 335.765 530.442 347.86C572.822 318 607.152 312.22 609.572 311.86C610.333 311.741 611.102 311.681 611.872 311.68C613.86 311.68 615.828 312.075 617.661 312.843C619.494 313.61 621.157 314.734 622.552 316.15C624.216 317.838 625.455 319.896 626.17 322.156C626.884 324.415 627.053 326.812 626.662 329.15C618.852 375.33 604.902 417.02 585.212 453.06L585.122 453.23C545.902 524.95 491.582 561.37 452.052 579.42C404.152 624.7 362.322 639.06 339.252 643.59C334.582 666.13 329.252 689.26 323.482 712.48C292.482 836.33 255.062 930.09 254.692 931.02C253.578 933.801 251.657 936.184 249.176 937.863C246.695 939.542 243.768 940.439 240.772 940.44L200.562 940.53ZM215.692 522.07C239.136 551.367 259.887 582.721 277.692 615.75C285.562 575.67 291.402 537.14 295.122 500.66C280.422 498.971 266.733 492.335 256.302 481.84C255.572 481.11 254.842 480.34 254.132 479.57C250.169 475.225 246.806 470.368 244.132 465.13C234.037 471.028 222.554 474.134 210.862 474.13C204.264 474.135 197.703 473.14 191.402 471.18C192.122 472.47 192.852 473.79 193.572 475.11L193.962 475.82C195.022 477.78 196.082 479.78 197.142 481.82L197.452 482.43C199.612 486.59 201.752 490.88 203.812 495.18L204.182 495.95C205.182 498.05 206.182 500.19 207.182 502.35L207.572 503.22C208.572 505.45 209.572 507.69 210.572 509.96V510.04C211.566 512.3 212.539 514.587 213.492 516.9L213.842 517.73C214.469 519.137 215.086 520.583 215.692 522.07ZM364.082 470.35C363.272 482.42 362.232 494.73 360.962 507.1C358.892 527.34 356.172 548.38 352.842 569.93C356.582 568.17 360.602 566.08 364.842 563.62C377.388 556.214 389.167 547.578 400.002 537.84C400.552 536.22 401.092 534.62 401.642 533.03L402.122 531.65C402.972 529.21 403.842 526.77 404.722 524.37L404.992 523.63C405.872 521.24 406.752 518.9 407.632 516.63L407.872 516.01C408.802 513.6 409.722 511.27 410.652 508.95L411.112 507.82C412.052 505.5 412.992 503.23 413.942 500.99L414.282 500.18C415.276 497.873 416.276 495.586 417.282 493.32C417.279 493.287 417.279 493.253 417.282 493.22C418.282 490.973 419.282 488.75 420.282 486.55L420.692 485.67C421.692 483.51 422.692 481.39 423.692 479.29L424.062 478.52C425.502 475.57 426.982 472.62 428.482 469.71C418.517 475.459 407.217 478.49 395.712 478.5C392.06 478.502 388.414 478.198 384.812 477.59C382.742 477.25 380.672 476.8 378.652 476.26C377.472 475.94 376.272 475.57 374.872 475.11C373.472 474.65 371.982 474.11 370.562 473.5C369.842 473.21 369.122 472.89 368.402 472.56C366.992 471.84 365.522 471.13 364.082 470.35ZM461.432 412.35C461.432 413.83 461.432 415.3 461.302 416.77C462.382 415.31 463.462 413.86 464.552 412.44C463.522 412.42 462.472 412.38 461.432 412.33V412.35ZM145.262 406.11C145.262 405.73 145.262 405.35 145.262 404.98H144.192L145.262 406.11Z" fill="#231F20"/>
<path d="M516 471.31L485.15 452.79C441.45 525.48 398.59 560.23 370.34 576.58C354.11 585.97 340.76 590.489 331.87 592.669C337.09 562.609 341.15 533.51 344.01 505.56C352.09 426.56 350.61 356.3 339.61 296.77L304.21 303.299C321.36 396.169 313.43 519.42 281.36 661.53C253.52 598.15 216.21 547.319 186.79 513.109C145.97 465.659 111.72 439.49 110.28 438.39L88.51 467.069C88.84 467.319 121.71 492.52 160.14 537.33C194.63 577.57 240.7 642.22 266.22 723.33C237.54 831.8 198.92 924.539 198.53 925.5H238.95C239.32 924.57 276.39 831.649 307.11 708.899C313.777 682.166 319.68 655.996 324.82 630.39C345.91 628.29 431.92 611.18 516 471.31Z" fill="#4CA84E"/>
<path d="M334.18 163.29H284.52L258.64 65.71C258.64 52.2608 263.983 39.3625 273.493 29.8525C283.003 20.3426 295.901 15 309.35 15C316.01 14.9987 322.605 16.3096 328.759 18.8574C334.913 21.4053 340.504 25.1401 345.214 29.8491C349.924 34.5581 353.66 40.1487 356.209 46.3018C358.758 52.4548 360.07 59.0498 360.07 65.71L334.18 163.29Z" fill="#F4F0EA"/>
<path d="M309.35 15C305.338 15.0016 301.34 15.4782 297.44 16.4199C308.496 19.0956 318.332 25.4107 325.368 34.3501C332.403 43.2895 336.228 54.3343 336.23 65.71L310.35 163.29H334.18L360.06 65.71C360.06 52.2608 354.717 39.3625 345.207 29.8525C335.697 20.3426 322.799 15 309.35 15Z" fill="#EFCC6B"/>
<path d="M309.35 15C305.338 15.0016 301.34 15.4782 297.44 16.4199C308.496 19.0956 318.332 25.4107 325.368 34.3501C332.403 43.2895 336.228 54.3343 336.23 65.71L310.35 163.29H334.18L360.06 65.71C360.06 52.2608 354.717 39.3625 345.207 29.8525C335.697 20.3426 322.799 15 309.35 15Z" fill="#E5E3E5"/>
<g style="mix-blend-mode:multiply" opacity="0.58">
<path d="M356.57 78.8687L356.27 77.7188C356.27 77.7188 338.9 135.349 277.11 135.349L284.52 163.289H334.18L356.57 78.8687Z" fill="#B6BCCC"/>
</g>
<path d="M286.66 160.399L243.66 185.229L172.46 113.669C165.738 102.022 163.918 88.1816 167.398 75.1918C170.879 62.202 179.375 51.126 191.02 44.3993C196.787 41.0682 203.155 38.9061 209.758 38.036C216.361 37.166 223.071 37.6055 229.505 39.329C235.938 41.0525 241.969 44.0264 247.253 48.081C252.537 52.1356 256.97 57.1911 260.3 62.9594L286.66 160.399Z" fill="#F4F0EA"/>
<path d="M191.01 44.3993C187.54 46.408 184.317 48.8181 181.41 51.5795C192.323 48.3697 203.999 48.9211 214.561 53.1449C225.123 57.3687 233.959 65.0198 239.65 74.8695L266.03 172.319L286.66 160.399L260.29 62.9594C256.96 57.1911 252.527 52.1356 247.243 48.081C241.959 44.0264 235.928 41.0525 229.494 39.329C223.061 37.6055 216.351 37.166 209.748 38.036C203.145 38.9061 196.777 41.0682 191.01 44.3993Z" fill="#EFCC6B"/>
<path d="M191.01 44.3993C187.54 46.408 184.317 48.8181 181.41 51.5795C192.323 48.3697 203.999 48.9211 214.561 53.1449C225.123 57.3687 233.959 65.0198 239.65 74.8695L266.03 172.319L286.66 160.399L260.29 62.9594C256.96 57.1911 252.527 52.1356 247.243 48.081C241.959 44.0264 235.928 41.0525 229.494 39.329C223.061 37.6055 216.351 37.166 209.748 38.036C203.145 38.9061 196.777 41.0682 191.01 44.3993Z" fill="#E5E3E5"/>
<g style="mix-blend-mode:multiply" opacity="0.58">
<path d="M263.85 76.0996L263.01 75.2598C263.01 75.2598 276.78 133.85 223.27 164.75L243.65 185.229L286.65 160.399L263.85 76.0996Z" fill="#B6BCCC"/>
</g>
<path d="M244.07 181.669L219.24 224.669L121.75 198.299C110.105 191.572 101.609 180.497 98.1281 167.507C94.6477 154.517 96.4684 140.677 103.19 129.029C106.519 123.262 110.951 118.206 116.234 114.151C121.517 110.096 127.547 107.122 133.979 105.397C140.411 103.673 147.12 103.233 153.723 104.101C160.326 104.97 166.692 107.13 172.46 110.459L244.07 181.669Z" fill="#F4F0EA"/>
<path d="M103.23 129.029C101.228 132.498 99.6408 136.19 98.5 140.029C106.34 131.781 116.725 126.41 127.987 124.777C139.248 123.145 150.731 125.347 160.59 131.029L232.15 202.239L244.07 181.599L172.5 110.389C166.728 107.063 160.358 104.906 153.752 104.043C147.147 103.18 140.436 103.626 134.003 105.357C127.57 107.088 121.542 110.07 116.261 114.131C110.981 118.193 106.553 123.256 103.23 129.029Z" fill="#EFCC6B"/>
<path d="M103.23 129.029C101.228 132.498 99.6408 136.19 98.5 140.029C106.34 131.781 116.725 126.41 127.987 124.777C139.248 123.145 150.731 125.347 160.59 131.029L232.15 202.239L244.07 181.599L172.5 110.389C166.728 107.063 160.358 104.906 153.752 104.043C147.147 103.18 140.436 103.626 134.003 105.357C127.57 107.088 121.542 110.07 116.261 114.131C110.981 118.193 106.553 123.256 103.23 129.029Z" fill="#E5E3E5"/>
<g style="mix-blend-mode:multiply" opacity="0.58">
<path d="M182.16 120.069L181.01 119.76C181.01 119.76 222.23 163.609 191.34 217.129L219.24 224.68L244.07 181.68L182.16 120.069Z" fill="#B6BCCC"/>
</g>
<path d="M217.81 221.38V271.04L120.23 296.92C106.781 296.92 93.8826 291.577 84.3726 282.067C74.8626 272.557 69.52 259.659 69.52 246.21C69.52 232.761 74.8626 219.863 84.3726 210.353C93.8826 200.843 106.781 195.5 120.23 195.5L217.81 221.38Z" fill="#F4F0EA"/>
<path d="M69.52 246.21C69.5216 250.225 69.9982 254.226 70.94 258.13C73.6154 247.072 79.9299 237.235 88.8691 230.198C97.8084 223.161 108.853 219.334 120.23 219.33L217.81 245.21V221.38L120.23 195.5C106.781 195.5 93.8826 200.843 84.3726 210.353C74.8626 219.863 69.52 232.761 69.52 246.21Z" fill="#EFCC6B"/>
<path d="M69.52 246.21C69.5216 250.225 69.9982 254.226 70.94 258.13C73.6154 247.072 79.9299 237.235 88.8691 230.198C97.8084 223.161 108.853 219.334 120.23 219.33L217.81 245.21V221.38L120.23 195.5C106.781 195.5 93.8826 200.843 84.3726 210.353C74.8626 219.863 69.52 232.761 69.52 246.21Z" fill="#E5E3E5"/>
<g style="mix-blend-mode:multiply" opacity="0.58">
<path d="M133.4 198.988L132.25 199.288C132.25 199.288 189.88 216.658 189.88 278.448L217.81 271.038V221.378L133.4 198.988Z" fill="#B6BCCC"/>
</g>
<path d="M214.93 268.898L239.76 311.898L168.2 383.099C162.433 386.43 156.065 388.592 149.462 389.462C142.859 390.332 136.149 389.893 129.715 388.169C123.282 386.446 117.251 383.472 111.967 379.417C106.683 375.362 102.25 370.307 98.92 364.539C92.1957 352.892 90.3735 339.05 93.8541 326.06C97.3348 313.069 105.833 301.993 117.48 295.269L214.93 268.898Z" fill="#F4F0EA"/>
<path d="M98.92 364.548C100.93 368.024 103.343 371.25 106.11 374.159C102.898 363.244 103.448 351.566 107.672 341.002C111.896 330.438 119.548 321.6 129.4 315.909L226.85 289.539L214.93 268.898L117.48 295.279C105.833 302.004 97.3348 313.079 93.8541 326.07C90.3735 339.06 92.1957 352.901 98.92 364.548Z" fill="#EFCC6B"/>
<path d="M98.92 364.548C100.93 368.024 103.343 371.25 106.11 374.159C102.898 363.244 103.448 351.566 107.672 341.002C111.896 330.438 119.548 321.6 129.4 315.909L226.85 289.539L214.93 268.898L117.48 295.279C105.833 302.004 97.3348 313.079 93.8541 326.07C90.3735 339.06 92.1957 352.901 98.92 364.548Z" fill="#E5E3E5"/>
<g style="mix-blend-mode:multiply" opacity="0.58">
<path d="M130.63 291.72L129.79 292.56C129.79 292.56 188.38 278.78 219.27 332.3L239.76 311.91L214.93 268.91L130.63 291.72Z" fill="#B6BCCC"/>
</g>
<path d="M236.19 311.5L279.19 336.33L252.83 433.79C249.5 439.558 245.067 444.614 239.783 448.668C234.499 452.723 228.468 455.697 222.035 457.421C215.601 459.144 208.891 459.583 202.288 458.713C195.685 457.843 189.318 455.681 183.55 452.35C171.905 445.623 163.409 434.547 159.928 421.558C156.448 408.568 158.268 394.728 164.99 383.08L236.19 311.5Z" fill="#F4F0EA"/>
<path d="M183.55 452.33C187.016 454.338 190.708 455.926 194.55 457.06C186.305 449.221 180.934 438.837 179.302 427.578C177.67 416.319 179.87 404.838 185.55 394.98L256.75 323.41L236.11 311.5L164.91 383.06C161.585 388.832 159.43 395.203 158.567 401.808C157.704 408.413 158.151 415.123 159.882 421.556C161.613 427.988 164.594 434.017 168.655 439.297C172.716 444.577 177.777 449.006 183.55 452.33Z" fill="#EFCC6B"/>
<path d="M183.55 452.33C187.016 454.338 190.708 455.926 194.55 457.06C186.305 449.221 180.934 438.837 179.302 427.578C177.67 416.319 179.87 404.838 185.55 394.98L256.75 323.41L236.11 311.5L164.91 383.06C161.585 388.832 159.43 395.203 158.567 401.808C157.704 408.413 158.151 415.123 159.882 421.556C161.613 427.988 164.594 434.017 168.655 439.297C172.716 444.577 177.777 449.006 183.55 452.33Z" fill="#E5E3E5"/>
<g style="mix-blend-mode:multiply" opacity="0.58">
<path d="M174.59 373.41L174.28 374.55C174.28 374.55 218.14 333.33 271.65 364.23L279.2 336.33L236.2 311.5L174.59 373.41Z" fill="#B6BCCC"/>
</g>
<path d="M275.91 337.789H325.57L351.45 435.369C351.439 448.81 346.094 461.696 336.587 471.197C327.08 480.698 314.191 486.036 300.75 486.039C294.091 486.039 287.497 484.728 281.344 482.179C275.192 479.631 269.602 475.895 264.893 471.187C260.184 466.478 256.449 460.887 253.9 454.735C251.352 448.582 250.04 441.988 250.04 435.329L275.91 337.789Z" fill="#F4F0EA"/>
<path d="M300.75 486.039C304.762 486.037 308.76 485.561 312.66 484.619C301.604 481.943 291.768 475.628 284.732 466.689C277.697 457.75 273.872 446.705 273.87 435.329L299.75 337.789H275.92L250.04 435.369C250.051 448.811 255.398 461.699 264.907 471.201C274.416 480.702 287.308 486.039 300.75 486.039Z" fill="#EFCC6B"/>
<path d="M300.75 486.039C304.762 486.037 308.76 485.561 312.66 484.619C301.604 481.943 291.768 475.628 284.732 466.689C277.697 457.75 273.872 446.705 273.87 435.329L299.75 337.789H275.92L250.04 435.369C250.051 448.811 255.398 461.699 264.907 471.201C274.416 480.702 287.308 486.039 300.75 486.039Z" fill="#E5E3E5"/>
<g style="mix-blend-mode:multiply" opacity="0.58">
<path d="M253.52 422.17L253.82 423.32C253.82 423.32 271.19 365.69 332.98 365.69L325.57 337.75H275.91L253.52 422.17Z" fill="#B6BCCC"/>
</g>
<path d="M323.43 340.629L366.43 315.799L437.63 387.369C444.352 399.017 446.172 412.857 442.692 425.847C439.211 438.836 430.715 449.913 419.07 456.639C407.421 463.361 393.579 465.182 380.588 461.702C367.596 458.221 356.519 449.725 349.79 438.079L323.43 340.629Z" fill="#F4F0EA"/>
<path d="M419.08 456.639C422.553 454.63 425.775 452.216 428.68 449.449C417.767 452.662 406.09 452.112 395.527 447.888C384.964 443.664 376.128 436.011 370.44 426.159L344.06 328.719L323.43 340.628L349.8 438.079C356.528 449.724 367.606 458.221 380.598 461.701C393.589 465.182 407.431 463.361 419.08 456.639Z" fill="#EFCC6B"/>
<path d="M419.08 456.639C422.553 454.63 425.775 452.216 428.68 449.449C417.767 452.662 406.09 452.112 395.527 447.888C384.964 443.664 376.128 436.011 370.44 426.159L344.06 328.719L323.43 340.628L349.8 438.079C356.528 449.724 367.606 458.221 380.598 461.701C393.589 465.182 407.431 463.361 419.08 456.639Z" fill="#E5E3E5"/>
<g style="mix-blend-mode:multiply" opacity="0.58">
<path d="M346.25 424.939L347.08 425.779C347.08 425.779 333.31 367.189 386.82 336.289L366.44 315.789L323.44 340.619L346.25 424.939Z" fill="#B6BCCC"/>
</g>
<path d="M366.02 319.369L390.85 276.369L488.3 302.749C499.947 309.474 508.445 320.549 511.926 333.54C515.407 346.531 513.584 360.372 506.86 372.019C503.531 377.787 499.099 382.842 493.816 386.897C488.533 390.951 482.503 393.925 476.07 395.649C469.637 397.372 462.928 397.812 456.326 396.942C449.723 396.072 443.357 393.91 437.59 390.579L366.02 319.369Z" fill="#F4F0EA"/>
<path d="M506.86 372.009C508.86 368.539 510.447 364.847 511.59 361.009C503.75 369.257 493.365 374.628 482.104 376.261C470.842 377.893 459.359 375.691 449.5 370.009L377.94 298.809L366.02 319.449L437.59 390.648C443.361 393.976 449.732 396.133 456.338 396.998C462.944 397.862 469.655 397.416 476.088 395.685C482.521 393.953 488.55 390.971 493.83 386.909C499.11 382.846 503.538 377.783 506.86 372.009Z" fill="#EFCC6B"/>
<path d="M506.86 372.009C508.86 368.539 510.447 364.847 511.59 361.009C503.75 369.257 493.365 374.628 482.104 376.261C470.842 377.893 459.359 375.691 449.5 370.009L377.94 298.809L366.02 319.449L437.59 390.648C443.361 393.976 449.732 396.133 456.338 396.998C462.944 397.862 469.655 397.416 476.088 395.685C482.521 393.953 488.55 390.971 493.83 386.909C499.11 382.846 503.538 377.783 506.86 372.009Z" fill="#E5E3E5"/>
<g style="mix-blend-mode:multiply" opacity="0.58">
<path d="M427.93 380.97L429.08 381.28C429.08 381.28 387.86 337.42 418.75 283.91L390.85 276.359L366.02 319.359L427.93 380.97Z" fill="#B6BCCC"/>
</g>
<path d="M392.28 279.66V229.99L489.86 204.109C503.303 204.112 516.195 209.452 525.704 218.955C535.212 228.457 540.559 241.346 540.57 254.79C540.567 268.238 535.224 281.135 525.714 290.644C516.205 300.153 503.308 305.497 489.86 305.5L392.28 279.66Z" fill="#F4F0EA"/>
<path d="M540.57 254.789C540.569 250.774 540.092 246.772 539.15 242.869C536.476 253.928 530.162 263.766 521.223 270.803C512.283 277.84 501.237 281.667 489.86 281.669L392.28 255.789V279.619L489.86 305.499C503.308 305.496 516.205 300.153 525.714 290.644C535.224 281.134 540.567 268.237 540.57 254.789Z" fill="#EFCC6B"/>
<path d="M540.57 254.789C540.569 250.774 540.092 246.772 539.15 242.869C536.476 253.928 530.162 263.766 521.223 270.803C512.283 277.84 501.237 281.667 489.86 281.669L392.28 255.789V279.619L489.86 305.499C503.308 305.496 516.205 300.153 525.714 290.644C535.224 281.134 540.567 268.237 540.57 254.789Z" fill="#E5E3E5"/>
<g style="mix-blend-mode:multiply" opacity="0.58">
<path d="M476.75 302.048L477.89 301.738C477.89 301.738 420.27 284.378 420.27 222.578L392.33 229.988V279.658L476.75 302.048Z" fill="#B6BCCC"/>
</g>
<path d="M395.16 232.139L370.33 189.139L441.89 117.939C447.658 114.607 454.025 112.445 460.628 111.575C467.231 110.705 473.941 111.144 480.375 112.868C486.808 114.591 492.839 117.566 498.123 121.62C503.407 125.675 507.84 130.73 511.17 136.499C514.501 142.267 516.664 148.635 517.534 155.239C518.404 161.843 517.965 168.554 516.242 174.988C514.518 181.422 511.544 187.454 507.489 192.739C503.435 198.024 498.379 202.458 492.61 205.789L395.16 232.139Z" fill="#F4F0EA"/>
<path d="M511.17 136.489C509.16 133.014 506.747 129.788 503.98 126.879C507.19 137.792 506.639 149.468 502.415 160.03C498.191 170.592 490.54 179.428 480.69 185.119L383.25 211.499L395.16 232.139L492.61 205.759C504.255 199.033 512.751 187.957 516.232 174.967C519.712 161.977 517.892 148.137 511.17 136.489Z" fill="#EFCC6B"/>
<path d="M511.17 136.489C509.16 133.014 506.747 129.788 503.98 126.879C507.19 137.792 506.639 149.468 502.415 160.03C498.191 170.592 490.54 179.428 480.69 185.119L383.25 211.499L395.16 232.139L492.61 205.759C504.255 199.033 512.751 187.957 516.232 174.967C519.712 161.977 517.892 148.137 511.17 136.489Z" fill="#E5E3E5"/>
<g style="mix-blend-mode:multiply" opacity="0.58">
<path d="M479.46 209.319L480.3 208.479C480.3 208.479 421.75 222.249 390.82 168.789L370.33 189.179L395.16 232.179L479.46 209.319Z" fill="#B6BCCC"/>
</g>
<path d="M373.9 189.538L330.9 164.708L357.27 67.2681C363.995 55.6189 375.072 47.1182 388.064 43.6357C401.057 40.1532 414.9 41.9743 426.55 48.6982C438.195 55.4268 446.692 66.5042 450.173 79.4956C453.653 92.487 451.832 106.329 445.11 117.978L373.9 189.538Z" fill="#F4F0EA"/>
<path d="M426.54 48.6987C423.072 46.6978 419.38 45.1133 415.54 43.9785C423.777 51.8237 429.138 62.2102 430.762 73.4692C432.385 84.7283 430.176 96.2061 424.49 106.059L353.29 177.628L373.93 189.539L445.13 117.979C451.85 106.326 453.666 92.4811 450.18 79.4893C446.694 66.4974 438.191 55.4223 426.54 48.6987Z" fill="#EFCC6B"/>
<path d="M426.54 48.6987C423.072 46.6978 419.38 45.1133 415.54 43.9785C423.777 51.8237 429.138 62.2102 430.762 73.4692C432.385 84.7283 430.176 96.2061 424.49 106.059L353.29 177.628L373.93 189.539L445.13 117.979C451.85 106.326 453.666 92.4811 450.18 79.4893C446.694 66.4974 438.191 55.4223 426.54 48.6987Z" fill="#E5E3E5"/>
<g style="mix-blend-mode:multiply" opacity="0.58">
<path d="M435.5 127.628L435.81 126.479C435.81 126.479 391.95 167.709 338.44 136.809L330.89 164.708L373.89 189.539L435.5 127.628Z" fill="#B6BCCC"/>
</g>
<path d="M305.05 350.12C360.057 350.12 404.65 305.527 404.65 250.52C404.65 195.512 360.057 150.92 305.05 150.92C250.042 150.92 205.45 195.512 205.45 250.52C205.45 305.527 250.042 350.12 305.05 350.12Z" fill="#F9C11F"/>
<path d="M363.27 169.699C375.514 186.644 382.091 207.024 382.06 227.929C382.057 254.346 371.562 279.679 352.881 298.357C334.201 317.036 308.866 327.529 282.45 327.529C261.553 327.575 241.176 321.016 224.23 308.789C233.449 321.607 245.588 332.045 259.642 339.241C273.696 346.436 289.261 350.182 305.05 350.169C331.466 350.169 356.799 339.676 375.478 320.997C394.156 302.318 404.65 276.984 404.65 250.569C404.668 234.772 400.924 219.198 393.729 205.136C386.533 191.073 376.092 178.926 363.27 169.699Z" fill="#DE8626"/>
<g style="mix-blend-mode:multiply">
<path d="M207.51 268.899L207.21 269.289C211.582 292.033 223.741 312.544 241.597 327.295C259.452 342.047 281.889 350.117 305.05 350.119C331.465 350.119 356.799 339.625 375.478 320.947C394.156 302.268 404.65 276.935 404.65 250.519C404.65 244.547 404.118 238.587 403.06 232.709C310.75 337.489 207.51 268.899 207.51 268.899Z" fill="#EF8B21"/>
</g>
<path d="M306.89 250.809C311.866 250.809 315.9 246.775 315.9 241.799C315.9 236.823 311.866 232.789 306.89 232.789C301.914 232.789 297.88 236.823 297.88 241.799C297.88 246.775 301.914 250.809 306.89 250.809Z" fill="#DE8626"/>
<path d="M264.85 198.559C269.826 198.559 273.86 194.525 273.86 189.549C273.86 184.573 269.826 180.539 264.85 180.539C259.874 180.539 255.84 184.573 255.84 189.549C255.84 194.525 259.874 198.559 264.85 198.559Z" fill="#DE8626"/>
<path d="M326.47 193.77C331.446 193.77 335.48 189.736 335.48 184.76C335.48 179.784 331.446 175.75 326.47 175.75C321.494 175.75 317.46 179.784 317.46 184.76C317.46 189.736 321.494 193.77 326.47 193.77Z" fill="#DE8626"/>
<path d="M318.78 294.8C323.027 294.8 326.47 291.357 326.47 287.11C326.47 282.863 323.027 279.42 318.78 279.42C314.533 279.42 311.09 282.863 311.09 287.11C311.09 291.357 314.533 294.8 318.78 294.8Z" fill="#DE8626"/>
<path d="M326.47 270.06C330.717 270.06 334.16 266.617 334.16 262.37C334.16 258.123 330.717 254.68 326.47 254.68C322.223 254.68 318.78 258.123 318.78 262.37C318.78 266.617 322.223 270.06 326.47 270.06Z" fill="#DE8626"/>
<path d="M366.03 288.05C370.277 288.05 373.72 284.607 373.72 280.36C373.72 276.113 370.277 272.67 366.03 272.67C361.783 272.67 358.34 276.113 358.34 280.36C358.34 284.607 361.783 288.05 366.03 288.05Z" fill="#DE8626"/>
<path d="M302.92 218.089C306.272 218.089 308.99 215.372 308.99 212.019C308.99 208.667 306.272 205.949 302.92 205.949C299.568 205.949 296.85 208.667 296.85 212.019C296.85 215.372 299.568 218.089 302.92 218.089Z" fill="#DE8626"/>
<path d="M364.44 258.529C367.792 258.529 370.51 255.811 370.51 252.459C370.51 249.106 367.792 246.389 364.44 246.389C361.088 246.389 358.37 249.106 358.37 252.459C358.37 255.811 361.088 258.529 364.44 258.529Z" fill="#DE8626"/>
<path d="M349.85 214.109C353.202 214.109 355.92 211.391 355.92 208.039C355.92 204.686 353.202 201.969 349.85 201.969C346.498 201.969 343.78 204.686 343.78 208.039C343.78 211.391 346.498 214.109 349.85 214.109Z" fill="#DE8626"/>
<path d="M253.52 228.98C256.872 228.98 259.59 226.262 259.59 222.91C259.59 219.557 256.872 216.84 253.52 216.84C250.168 216.84 247.45 219.557 247.45 222.91C247.45 226.262 250.168 228.98 253.52 228.98Z" fill="#DE8626"/>
<path d="M353.26 186.599C356.612 186.599 359.33 183.881 359.33 180.529C359.33 177.177 356.612 174.459 353.26 174.459C349.908 174.459 347.19 177.177 347.19 180.529C347.19 183.881 349.908 186.599 353.26 186.599Z" fill="#DE8626"/>
<path d="M296.85 178.56C300.202 178.56 302.92 175.842 302.92 172.49C302.92 169.138 300.202 166.42 296.85 166.42C293.498 166.42 290.78 169.138 290.78 172.49C290.78 175.842 293.498 178.56 296.85 178.56Z" fill="#DE8626"/>
<path d="M285.55 248.849C288.902 248.849 291.62 246.131 291.62 242.779C291.62 239.427 288.902 236.709 285.55 236.709C282.198 236.709 279.48 239.427 279.48 242.779C279.48 246.131 282.198 248.849 285.55 248.849Z" fill="#DE8626"/>
<path d="M253.52 287.509C256.872 287.509 259.59 284.792 259.59 281.439C259.59 278.087 256.872 275.369 253.52 275.369C250.168 275.369 247.45 278.087 247.45 281.439C247.45 284.792 250.168 287.509 253.52 287.509Z" fill="#DE8626"/>
<path d="M226.85 262.048C230.202 262.048 232.92 259.331 232.92 255.978C232.92 252.626 230.202 249.908 226.85 249.908C223.498 249.908 220.78 252.626 220.78 255.978C220.78 259.331 223.498 262.048 226.85 262.048Z" fill="#DE8626"/>
<path d="M259.59 258.069C263.6 258.069 266.85 254.818 266.85 250.809C266.85 246.799 263.6 243.549 259.59 243.549C255.58 243.549 252.33 246.799 252.33 250.809C252.33 254.818 255.58 258.069 259.59 258.069Z" fill="#DE8626"/>
<path d="M287.22 279.959C291.5 279.959 294.97 276.489 294.97 272.209C294.97 267.929 291.5 264.459 287.22 264.459C282.94 264.459 279.47 267.929 279.47 272.209C279.47 276.489 282.94 279.959 287.22 279.959Z" fill="#DE8626"/>
<path d="M330.89 221.569C334.607 221.569 337.62 218.556 337.62 214.839C337.62 211.122 334.607 208.109 330.89 208.109C327.173 208.109 324.16 211.122 324.16 214.839C324.16 218.556 327.173 221.569 330.89 221.569Z" fill="#DE8626"/>
<path d="M293.25 312.269C296.967 312.269 299.98 309.255 299.98 305.539C299.98 301.822 296.967 298.809 293.25 298.809C289.533 298.809 286.52 301.822 286.52 305.539C286.52 309.255 289.533 312.269 293.25 312.269Z" fill="#DE8626"/>
<path d="M366.03 224.819C369.747 224.819 372.76 221.806 372.76 218.089C372.76 214.372 369.747 211.359 366.03 211.359C362.313 211.359 359.3 214.372 359.3 218.089C359.3 221.806 362.313 224.819 366.03 224.819Z" fill="#DE8626"/>
<path d="M279.38 228.989C283.715 228.989 287.23 225.475 287.23 221.139C287.23 216.804 283.715 213.289 279.38 213.289C275.045 213.289 271.53 216.804 271.53 221.139C271.53 225.475 275.045 228.989 279.38 228.989Z" fill="#DE8626"/>
<path d="M232.92 222.688C237.255 222.688 240.77 219.174 240.77 214.838C240.77 210.503 237.255 206.988 232.92 206.988C228.585 206.988 225.07 210.503 225.07 214.838C225.07 219.174 228.585 222.688 232.92 222.688Z" fill="#DE8626"/>
<path d="M351.45 242.899C355.786 242.899 359.3 239.385 359.3 235.049C359.3 230.714 355.786 227.199 351.45 227.199C347.115 227.199 343.6 230.714 343.6 235.049C343.6 239.385 347.115 242.899 351.45 242.899Z" fill="#DE8626"/>
<path d="M436.186 107.872C440.366 97.6538 438.932 87.3972 432.982 84.963C427.032 82.5288 418.82 88.8389 414.639 99.057C410.459 109.275 411.894 119.532 417.843 121.966C423.793 124.4 432.005 118.09 436.186 107.872Z" fill="#F6FAFE"/>
<path d="M509.021 283.489C510.128 277.156 503.246 270.662 493.65 268.984C484.053 267.306 475.376 271.078 474.268 277.411C473.161 283.743 480.042 290.237 489.639 291.916C499.236 293.594 507.913 289.821 509.021 283.489Z" fill="#F6FAFE"/>
<path d="M428.69 77.7196C433.279 77.7196 437 73.9991 437 69.4096C437 64.8201 433.279 61.0996 428.69 61.0996C424.1 61.0996 420.38 64.8201 420.38 69.4096C420.38 73.9991 424.1 77.7196 428.69 77.7196Z" fill="#F6FAFE"/>
<path d="M497.66 172.479C502.25 172.479 505.97 168.759 505.97 164.169C505.97 159.58 502.25 155.859 497.66 155.859C493.071 155.859 489.35 159.58 489.35 164.169C489.35 168.759 493.071 172.479 497.66 172.479Z" fill="#F6FAFE"/>
<path d="M521.98 277.21C526.569 277.21 530.29 273.489 530.29 268.9C530.29 264.31 526.569 260.59 521.98 260.59C517.39 260.59 513.67 264.31 513.67 268.9C513.67 273.489 517.39 277.21 521.98 277.21Z" fill="#F6FAFE"/>
<path d="M483.854 195.376C491.6 191.744 495.743 184.243 493.108 178.623C490.472 173.002 482.057 171.39 474.311 175.022C466.566 178.654 462.423 186.154 465.058 191.774C467.693 197.395 476.109 199.007 483.854 195.376Z" fill="#F6FAFE"/>
<path d="M400.98 580.359L610.05 326.68C610.05 326.68 461.1 349.789 400.98 580.359Z" fill="#66BE64"/>
<path d="M610.05 326.68L400.98 580.359C400.98 580.359 572.03 551.46 610.05 326.68Z" fill="#4CA84E"/>
<g style="mix-blend-mode:multiply">
<path d="M448.85 460.069C430.41 492.069 413.7 531.549 400.98 580.359C400.98 580.359 506.46 562.53 570.17 446.02C515.65 504.43 448.85 460.069 448.85 460.069Z" fill="#4CA84E"/>
</g>
<path d="M222.24 597.18L15 342.01C15 342.01 163.75 366.18 222.24 597.18Z" fill="#66BE64"/>
<path d="M15 342.01L222.24 597.18C222.24 597.18 51.4 567.05 15 342.01Z" fill="#4CA84E"/>
<g style="mix-blend-mode:multiply">
<path d="M175.24 476.549C193.44 508.649 209.86 548.279 222.24 597.179C222.24 597.179 116.88 578.589 54.02 461.619C108.12 520.429 175.24 476.549 175.24 476.549Z" fill="#4CA84E"/>
</g>
</g>
<defs>
<clipPath id="clip0_4877_1433">
<rect width="625.06" height="989.88" fill="white"/>
</clipPath>
</defs>
</svg>
