<svg width="401" height="775" viewBox="0 0 401 775" fill="none" xmlns="http://www.w3.org/2000/svg">
<g clip-path="url(#clip0_4895_387)">
<path d="M264.551 724.44C263.431 724.44 262.251 724.44 260.951 724.34L260.041 724.28H259.851C259.011 724.22 258.161 724.15 257.301 724.06L256.301 723.95C256.001 723.95 255.751 723.95 255.511 723.86C254.781 723.77 254.061 723.65 253.351 723.54L252.731 723.44C251.641 723.25 250.631 723.06 249.661 722.84L248.581 722.58H248.461C247.601 722.38 246.731 722.15 245.871 721.91L244.871 721.63C244.531 721.54 244.251 721.46 243.981 721.37C243.461 721.21 242.981 721.03 242.441 720.86L242.221 720.78L241.581 720.56C240.471 720.17 239.371 719.75 238.321 719.31L237.891 719.12C236.991 718.74 236.101 718.33 235.201 717.91L234.461 717.54C233.621 717.13 232.791 716.69 231.971 716.24L231.421 715.94C229.561 714.88 227.791 713.77 226.161 712.62L225.531 712.16H225.591L225.181 711.86C224.351 711.24 223.551 710.63 222.791 710.01L222.401 709.69C220.602 708.194 218.893 706.595 217.281 704.9L217.031 704.63C216.361 703.91 215.681 703.14 215.031 702.34L214.721 701.96C207.075 692.867 202.863 681.379 202.821 669.5C202.821 669.23 202.821 668.96 202.821 668.7L215.081 438.08C215.412 430.604 217.838 423.373 222.081 417.21L226.761 293.03V292.5C226.761 292.5 226.891 290.6 226.911 288.36L226.151 287.83L225.541 287.39L224.751 286.81L223.981 286.23L223.271 285.68L221.941 284.57L221.381 284.11L220.441 283.31L220.061 282.98C218.901 281.98 217.771 280.92 216.661 279.84L216.401 279.59C215.191 278.41 213.951 277.14 212.731 275.82L212.631 275.71C202.231 264.44 188.401 244.46 181.911 213.71C173.911 175.83 179.631 124.98 198.371 66.6396C199.782 62.1449 202.588 58.2162 206.382 55.4223C210.175 52.6285 214.759 51.1145 219.471 51.0996C220.121 51.0996 220.781 51.0996 221.471 51.1896C225.455 51.4912 229.264 52.9518 232.429 55.3915C235.593 57.8311 237.975 61.1432 239.281 64.9196C241.795 60.4063 245.469 56.6464 249.923 54.0289C254.377 51.4114 259.449 50.0312 264.616 50.0312C269.782 50.0312 274.854 51.4114 279.309 54.0289C283.763 56.6464 287.437 60.4063 289.951 64.9196C291.149 61.4988 293.229 58.4548 295.981 56.095C298.732 53.7352 302.057 52.1432 305.621 51.4796C306.281 51.3596 306.911 51.2596 307.541 51.1996H307.761C308.411 51.1396 309.071 51.1096 309.761 51.1096C314.472 51.1245 319.056 52.6385 322.85 55.4323C326.643 58.2262 329.449 62.1549 330.861 66.6496C344.401 108.81 351.121 146.65 350.861 179.08C350.759 187.988 350.02 196.877 348.651 205.68C348.655 205.719 348.655 205.76 348.651 205.8C348.461 207.07 348.251 208.33 348.031 209.57V209.64C347.781 211.04 347.531 212.34 347.261 213.64V213.68C339.121 252.32 318.001 277.6 302.261 288.39V288.45C302.261 289.19 302.261 289.88 302.261 290.45V291.15C302.261 291.91 302.331 292.43 302.331 292.51V293.02L307.011 417.22C307.271 417.6 307.521 417.99 307.771 418.38C307.861 418.53 307.961 418.68 308.051 418.84C308.561 419.66 309.051 420.54 309.521 421.42L309.751 421.88C310.151 422.67 310.521 423.49 310.861 424.3C310.941 424.47 311.011 424.64 311.081 424.81C311.451 425.7 311.791 426.66 312.081 427.64C312.081 427.8 312.201 428 312.261 428.2C312.541 429.12 312.761 429.96 312.961 430.81C312.961 430.95 313.031 431.09 313.061 431.24C313.291 432.24 313.461 433.24 313.611 434.33C313.611 434.57 313.681 434.82 313.711 435.06C313.831 436.13 313.921 437.12 313.961 438.06L326.271 668.68C326.271 668.94 326.271 669.21 326.271 669.48C326.239 678.766 323.644 687.864 318.771 695.77C318.361 696.44 317.941 697.09 317.501 697.77C315.421 700.84 313.043 703.697 310.401 706.3C309.321 707.37 308.311 708.3 307.331 709.14C305.921 710.35 304.431 711.5 302.911 712.58C301.391 713.66 299.791 714.67 298.161 715.58C294.023 717.959 289.637 719.877 285.081 721.3C283.231 721.88 281.331 722.38 279.431 722.8C277.531 723.22 275.551 723.57 273.591 723.8C270.594 724.207 267.575 724.421 264.551 724.44Z" fill="#231F20"/>
<path d="M120.04 724.44H118.32H118.19C116.35 724.44 114.58 724.31 112.85 724.18H112.72C93.13 722.59 77.02 714.43 66.15 700.59C65.86 700.23 65.58 699.85 65.29 699.47C63.4885 697.058 61.8546 694.526 60.4 691.89C53.5 679.35 50 663.42 50 644.56V639.47L50.07 632.63C50.07 632.63 50.18 624.34 50.18 624.32C50.73 584.77 52.48 495.2 53.88 450.32C54.1134 442.461 56.2183 434.772 60.02 427.89L59.85 425.89L59.68 423.77L59.48 420.77L59.34 418.5L59.22 416.22L59.1 413.82L59 411.4L58.9 408.88L58.82 406.33L58.74 403.7C58.49 394.13 58.4 382.81 58.47 370.01C58.47 370.01 58.47 366.6 58.47 366.57C58.47 366.54 58.47 363.21 58.47 363.19C59.27 279.7 66.29 154.39 68.93 107.19C69.46 97.67 69.93 89.43 69.93 88C69.93 73.21 77.08 51 96.56 50C96.97 50 97.38 50 97.79 50C112.07 50 121.4 64.41 124.86 70.86C139.17 96.03 151.12 140.02 160.37 201.62C161.63 209.98 162.85 218.82 164.02 227.9C164.02 227.9 164.41 230.9 164.59 232.44C165.097 236.54 165.59 240.623 166.07 244.69L166.42 247.74C166.88 251.787 167.327 255.813 167.76 259.82L168.07 262.82C168.283 264.82 168.49 266.803 168.69 268.77L168.98 271.71C170.42 286.13 171.73 301.12 172.89 316.26C173.01 317.83 173.12 319.4 173.24 320.95C173.52 324.703 173.78 328.343 174.02 331.87C174.02 331.87 174.19 334.45 174.2 334.5C174.61 340.66 175 346.85 175.35 352.91L176.01 364.79L176.09 366.44C176.21 368.71 176.31 370.77 176.39 372.66C176.39 372.66 176.86 383.75 176.86 383.76C176.86 384.64 176.86 385.53 176.86 386.54V387.08C176.86 387.31 176.86 387.5 176.86 387.67C176.86 388.5 176.86 389.26 176.76 390.01V390.43C176.7 391.29 176.61 392.21 176.49 393.18C176.49 393.38 176.43 393.61 176.4 393.84C176.29 394.64 176.17 395.39 176.04 396.12C176.04 396.33 175.96 396.52 175.93 396.71C175.78 397.44 175.61 398.23 175.41 399.02C175.41 399.15 175.3 399.47 175.28 399.52C175.26 399.57 175.18 399.91 175.12 400.09C174.973 400.63 174.813 401.17 174.64 401.71C174.58 401.92 174.51 402.13 174.44 402.33C174.37 402.53 174.35 402.61 174.29 402.76C174.03 403.51 173.77 404.21 173.49 404.89C173.42 405.07 173.34 405.26 173.25 405.44C173.03 405.97 172.78 406.53 172.51 407.07L172.24 407.66C172.17 407.78 172.1 407.93 172.02 408.07C171.713 408.67 171.38 409.26 171.02 409.84L170.9 410.04L170.55 410.61C170.24 411.12 169.91 411.61 169.55 412.11L169.19 412.63C168.7 413.34 168.25 413.94 167.79 414.51L167.5 414.87C167.13 415.33 166.7 415.87 166.26 416.31L165.86 416.74C165.36 417.29 164.86 417.74 164.4 418.24L164.22 418.42C163.71 418.9 163.22 419.36 162.67 419.82L162.17 420.23C161.72 420.61 161.28 420.97 160.83 421.31L160.56 421.52C159.98 421.96 159.45 422.33 158.92 422.7L158.34 423.08C157.96 423.33 157.55 423.6 157.13 423.85L156.67 424.14C156.17 424.44 155.67 424.74 155.13 425.02L154.57 425.33C154.2 425.52 153.84 425.72 153.47 425.9L152.9 426.18L151.48 426.86L150.89 427.13L149.89 427.56L149.32 427.8L148.02 428.32L147.42 428.55C147.75 429.16 148.07 429.79 148.37 430.43C148.45 430.59 148.52 430.76 148.6 430.93C149.01 431.82 149.37 432.66 149.7 433.48L149.91 434.01C150.3 435.01 150.64 436.01 150.91 437.01C150.97 437.19 151.03 437.4 151.09 437.6C151.33 438.42 151.57 439.29 151.77 440.16L151.94 440.86C152.2 442 152.39 443.02 152.55 444.03C152.55 444.19 152.61 444.39 152.63 444.6C152.76 445.47 152.86 446.35 152.95 447.25C152.95 447.54 153 447.81 153.02 448.09C153.11 449.33 153.16 450.37 153.16 451.38L153.29 463.73C153.29 467.47 153.47 479.03 153.47 479.03V480.65C153.55 486.65 153.63 492.91 153.73 499.32L154.01 518.79C154.13 526.69 154.26 534.55 154.39 542.08C154.63 556.22 154.85 568.08 155.06 577.22L155.22 584.13L155.47 592.85L155.57 595.18C155.62 596.43 155.7 597.63 155.79 598.76C155.84 599.31 155.89 599.85 155.95 600.38C156.1 601.92 156.3 603.38 156.54 604.72C157.221 608.902 158.553 612.951 160.49 616.72L160.54 616.83C163.406 622.092 166.547 627.199 169.95 632.13C171.37 634.29 172.89 636.6 174.51 639.13C178.894 645.962 181.528 653.769 182.18 661.86C184.31 685.86 170.58 710.11 149.52 719.39C146.348 720.794 143.031 721.847 139.63 722.53L137.74 722.88L137.3 722.96C136.61 723.08 135.96 723.2 135.3 723.3H135.12L133.24 723.57L132.75 723.63L130.66 723.89H130.58L128.46 724.1H128C127.31 724.16 126.54 724.21 125.77 724.26H125.66L123.41 724.37H123.1C122.26 724.37 121.44 724.37 120.62 724.37L120.04 724.44Z" fill="#231F20"/>
<path d="M316.469 71.19C315.987 69.6272 314.99 68.2732 313.641 67.3476C312.293 66.4219 310.671 65.9788 309.039 66.09C306.039 66.36 303.039 68.32 303.409 75.09C303.919 85.09 303.669 153.37 303.519 174.97C303.493 178.287 302.155 181.459 299.798 183.794C297.441 186.128 294.257 187.435 290.939 187.43C287.608 187.43 284.414 186.107 282.058 183.751C279.703 181.396 278.379 178.201 278.379 174.87V78.52C278.282 74.9098 276.78 71.4801 274.192 68.961C271.605 66.4419 268.136 65.0322 264.524 65.0322C260.913 65.0322 257.444 66.4419 254.856 68.961C252.269 71.4801 250.766 74.9098 250.669 78.52V174.87C250.591 178.139 249.241 181.249 246.905 183.539C244.57 185.828 241.433 187.116 238.163 187.129C234.893 187.142 231.746 185.879 229.393 183.608C227.039 181.338 225.664 178.239 225.559 174.97C225.399 153.37 225.159 85.11 225.659 75.09C225.999 68.32 223.049 66.36 220.029 66.09C218.397 65.9788 216.776 66.4219 215.427 67.3476C214.079 68.2732 213.082 69.6272 212.599 71.19C193.939 129.29 189.449 176.8 196.559 210.58C205.559 253.29 230.729 274.51 240.159 278.76C242.729 279.92 241.729 293.59 241.729 293.59L236.359 436.21L264.549 426.79L292.729 436.21L287.359 293.59C287.359 293.59 286.359 279.92 288.939 278.76C298.359 274.51 323.539 253.29 332.529 210.58C339.649 176.8 335.139 129.29 316.469 71.19Z" fill="#9EB1B6"/>
<path d="M275.17 436.21H292.74L275.17 430.34V436.21Z" fill="#969695"/>
<path d="M288.94 278.76C298.36 274.51 323.54 253.29 332.53 210.58C339.64 176.8 335.14 129.29 316.47 71.19C315.987 69.6272 314.991 68.2733 313.642 67.3476C312.293 66.422 310.672 65.9788 309.04 66.09C308.8 66.09 308.56 66.15 308.32 66.19C314.98 102.92 346.32 210.65 275.17 281.12V430.34L292.73 436.21L287.36 293.59C287.36 293.59 286.37 279.92 288.94 278.76Z" fill="#80A5AD"/>
<g style="mix-blend-mode:multiply">
<path d="M288.94 278.76C298.36 274.51 323.54 253.29 332.53 210.58C333.02 208.26 333.45 205.86 333.83 203.41C333.83 203.41 311.94 270.68 208.25 243.49C219.32 264.54 233.57 275.79 240.16 278.76C242.73 279.92 241.73 293.59 241.73 293.59L236.36 436.21L264.55 426.79L292.73 436.21L287.36 293.59C287.36 293.59 286.37 279.92 288.94 278.76Z" fill="#A6AAB7"/>
</g>
<path d="M264.551 709.44C238.731 709.44 217.801 691.56 217.801 669.5L230.071 438.79C230.681 423.6 245.261 411.56 263.071 411.56H266.071C283.861 411.56 298.451 423.56 299.071 438.79L311.331 669.5C311.291 691.56 290.361 709.44 264.551 709.44Z" fill="#F26B6C"/>
<path d="M299.031 438.79C298.551 427.02 289.68 417.14 277.43 413.29C279.254 416.641 280.281 420.368 280.43 424.18L292.69 654.88C292.69 676.94 271.771 694.83 245.951 694.83C238.652 694.853 231.428 693.369 224.73 690.47C232.96 701.85 247.73 709.47 264.51 709.47C290.32 709.47 311.25 691.59 311.25 669.53L299.031 438.79Z" fill="#D84C53"/>
<path d="M264.55 462.84C270.415 462.84 275.17 458.085 275.17 452.22C275.17 446.354 270.415 441.6 264.55 441.6C258.684 441.6 253.93 446.354 253.93 452.22C253.93 458.085 258.684 462.84 264.55 462.84Z" fill="#9EB1B6"/>
<path d="M270.941 443.75C271.771 445.903 271.876 448.269 271.24 450.487C270.604 452.705 269.263 454.656 267.419 456.043C265.575 457.431 263.329 458.179 261.021 458.175C258.713 458.171 256.47 457.414 254.631 456.02C255.218 457.558 256.153 458.938 257.365 460.052C258.576 461.166 260.03 461.983 261.611 462.439C263.193 462.895 264.858 462.977 266.477 462.679C268.095 462.38 269.622 461.71 270.938 460.721C272.253 459.731 273.32 458.45 274.055 456.978C274.79 455.505 275.173 453.882 275.173 452.236C275.173 450.59 274.791 448.967 274.057 447.494C273.322 446.022 272.256 444.74 270.941 443.75Z" fill="#80A5AD"/>
<path d="M121.001 439.32C121.001 439.32 121.001 422.32 130.831 418.32C140.661 414.32 162.941 412.45 161.941 384.27C160.941 356.09 151.121 146.92 111.791 78.11C111.791 78.11 104.841 65 97.8609 65C87.9409 65 85.0009 81.27 85.0009 88.15C85.0009 95.03 65.7909 398.03 76.9409 439.32H121.001Z" fill="#9EB1B6"/>
<path d="M161.939 384.27C160.939 356.09 151.119 146.92 111.789 78.1C111.789 78.1 104.839 65 97.8592 65H97.4492C104.779 84.8 123.029 140.12 131.119 218.88C138.299 288.71 141.449 371.15 142.699 414.31C152.409 410.57 162.649 403.57 161.939 384.27Z" fill="#80A5AD"/>
<g style="mix-blend-mode:multiply">
<path d="M149.24 229.84C129.51 359.51 75.71 363.25 73.54 363.34C73.19 399.9 74.02 428.54 76.93 439.34H121C121 439.34 121 422.34 130.83 418.34C140.66 414.34 162.94 412.45 161.94 384.27C161.43 368.98 158.29 300.38 149.24 229.84Z" fill="#A6AAB7"/>
</g>
<path d="M103.62 417.08C112.778 417.082 121.564 420.699 128.07 427.145C134.575 433.59 138.273 442.343 138.36 451.5C138.72 491.25 140.08 580.6 140.79 595.86C141.86 618.86 148.25 625.74 162.12 647.18C175.99 668.62 162.12 702.68 136.89 707.73C111.66 712.78 65 710.64 65 644.53C65 622.63 67.25 503.41 68.89 450.73C69.1732 441.708 72.9566 433.151 79.439 426.87C85.9214 420.589 94.5939 417.078 103.62 417.08Z" fill="#F26B6C"/>
<path d="M162.12 647.18C148.25 625.74 141.86 618.81 140.79 595.86C140.08 580.6 138.72 491.25 138.36 451.5C138.304 444.949 136.396 438.547 132.857 433.033C129.318 427.52 124.293 423.119 118.36 420.34C124.11 430.34 130.83 451.03 129.78 492.83C127.99 564.32 120.95 612.71 129.89 622.83C138.83 632.95 150.41 650.89 143.89 670.49C137.94 688.33 122.89 708.59 72.25 682C86.32 711.25 117.8 711.57 136.94 707.74C162.12 702.68 176 668.68 162.12 647.18Z" fill="#D84C53"/>
<path d="M104.979 463.2C110.845 463.2 115.599 458.445 115.599 452.58C115.599 446.715 110.845 441.96 104.979 441.96C99.1141 441.96 94.3594 446.715 94.3594 452.58C94.3594 458.445 99.1141 463.2 104.979 463.2Z" fill="#9EB1B6"/>
<path d="M111.371 444.11C112.2 446.264 112.305 448.629 111.67 450.847C111.034 453.066 109.693 455.016 107.849 456.404C106.004 457.791 103.758 458.539 101.451 458.535C99.1429 458.531 96.8996 457.774 95.0605 456.38C95.6472 457.918 96.5832 459.298 97.7946 460.412C99.0061 461.526 100.46 462.343 102.041 462.799C103.622 463.255 105.288 463.337 106.907 463.039C108.525 462.741 110.052 462.071 111.367 461.081C112.682 460.092 113.75 458.81 114.485 457.338C115.22 455.865 115.603 454.242 115.603 452.597C115.603 450.951 115.221 449.328 114.487 447.855C113.752 446.382 112.685 445.1 111.371 444.11Z" fill="#80A5AD"/>
<path opacity="0.62" d="M162.12 647.18C148.25 625.74 141.86 618.81 140.79 595.86C140.48 589.07 140.03 567.58 139.6 542.32C139.6 542.32 137.15 629.77 65.34 614.68C65.13 628.68 65 639.3 65 644.5C65 710.61 111.67 712.74 136.89 707.7C162.11 702.66 176 668.68 162.12 647.18Z" fill="#7C131A"/>
<path d="M125.91 502.73C130.422 502.73 134.08 495.145 134.08 485.79C134.08 476.434 130.422 468.85 125.91 468.85C121.398 468.85 117.74 476.434 117.74 485.79C117.74 495.145 121.398 502.73 125.91 502.73Z" fill="white"/>
<path opacity="0.62" d="M221.731 595.57L217.801 669.5C217.801 691.56 238.731 709.44 264.551 709.44C290.361 709.44 311.291 691.56 311.291 669.5L304.531 542.32C288.241 640 221.731 595.57 221.731 595.57Z" fill="#7C131A"/>
<path d="M141.37 675.399C147.788 675.399 152.99 668.899 152.99 660.879C152.99 652.86 147.788 646.359 141.37 646.359C134.952 646.359 129.75 652.86 129.75 660.879C129.75 668.899 134.952 675.399 141.37 675.399Z" fill="white"/>
<path d="M126.79 695.599C130.816 695.599 134.08 692.336 134.08 688.31C134.08 684.283 130.816 681.02 126.79 681.02C122.764 681.02 119.5 684.283 119.5 688.31C119.5 692.336 122.764 695.599 126.79 695.599Z" fill="white"/>
<path d="M289.069 675.399C295.487 675.399 300.689 668.899 300.689 660.879C300.689 652.86 295.487 646.359 289.069 646.359C282.652 646.359 277.449 652.86 277.449 660.879C277.449 668.899 282.652 675.399 289.069 675.399Z" fill="white"/>
<path d="M274.501 695.599C278.527 695.599 281.791 692.336 281.791 688.31C281.791 684.283 278.527 681.02 274.501 681.02C270.475 681.02 267.211 684.283 267.211 688.31C267.211 692.336 270.475 695.599 274.501 695.599Z" fill="white"/>
<path d="M286.519 542.33C291.528 542.33 295.589 534.988 295.589 525.93C295.589 516.873 291.528 509.53 286.519 509.53C281.51 509.53 277.449 516.873 277.449 525.93C277.449 534.988 281.51 542.33 286.519 542.33Z" fill="white"/>
<path d="M259.53 453.3C260.845 453.3 261.91 452.234 261.91 450.92C261.91 449.606 260.845 448.54 259.53 448.54C258.216 448.54 257.15 449.606 257.15 450.92C257.15 452.234 258.216 453.3 259.53 453.3Z" fill="white"/>
<path d="M110.439 454.81C112.549 454.81 114.259 453.1 114.259 450.99C114.259 448.88 112.549 447.17 110.439 447.17C108.329 447.17 106.619 448.88 106.619 450.99C106.619 453.1 108.329 454.81 110.439 454.81Z" fill="white"/>
<path d="M269.421 455.76C271.414 455.76 273.031 454.144 273.031 452.15C273.031 450.156 271.414 448.54 269.421 448.54C267.427 448.54 265.811 450.156 265.811 452.15C265.811 454.144 267.427 455.76 269.421 455.76Z" fill="white"/>
</g>
<defs>
<clipPath id="clip0_4895_387">
<rect width="300.73" height="674.44" fill="white" transform="translate(50 50)"/>
</clipPath>
</defs>
</svg>
