<svg width="448" height="792" viewBox="0 0 448 792" fill="none" xmlns="http://www.w3.org/2000/svg">
<g clip-path="url(#clip0_4884_1059)">
<path d="M222.31 791.402C334.877 791.402 426.13 769.284 426.13 742.002C426.13 714.719 334.877 692.602 222.31 692.602C109.744 692.602 18.4902 714.719 18.4902 742.002C18.4902 769.284 109.744 791.402 222.31 791.402Z" fill="#A7A9AC"/>
<path d="M262.68 410.231L264.41 410.731C266.96 411.471 269.56 412.181 272.11 412.831L273.85 413.271L275.64 413.711C279.14 414.551 282.64 415.331 286.11 415.991L288.06 416.361H288.15C292.65 417.191 297.15 417.891 301.56 418.431H301.62C309.105 419.354 316.639 419.825 324.18 419.841C345.48 419.841 364.56 415.771 380.84 407.781L380.96 407.721C385.952 405.283 390.738 402.443 395.27 399.231L395.44 399.111C396.07 398.651 396.71 398.191 397.34 397.711L397.43 397.641C401.412 394.629 405.166 391.327 408.66 387.761L408.8 387.621C409.36 387.051 409.92 386.461 410.45 385.891L410.65 385.681C411.2 385.081 411.75 384.481 412.26 383.901L412.37 383.781C415.308 380.454 418.04 376.951 420.55 373.291L420.63 373.181C421.1 372.491 421.56 371.791 422.03 371.081L422.24 370.761C422.69 370.071 423.13 369.381 423.57 368.661L423.77 368.341C424.22 367.611 424.66 366.871 425.12 366.091C427.02 362.851 428.82 359.421 430.45 355.961C430.45 355.911 430.51 355.831 430.55 355.761C430.92 354.961 431.29 354.161 431.66 353.311L431.87 352.861C432.21 352.081 432.55 351.291 432.87 350.481L433.1 349.941C433.43 349.141 433.76 348.321 434.1 347.511L434.27 347.071C435.74 343.311 437.11 339.371 438.33 335.361V335.251C444.84 313.761 447.94 287.981 447.54 258.631C447.502 255.681 446.594 252.808 444.931 250.371C443.268 247.934 440.923 246.042 438.19 244.931C436.71 244.331 401.51 230.231 360.08 230.231C330.86 230.231 305.64 237.231 285.14 250.891C273.751 258.541 263.86 268.214 255.96 279.431V240.331L256.61 239.751L258 238.481L259.36 237.241L261.06 235.661L261.87 234.891C263.15 233.661 264.41 232.441 265.62 231.241L265.76 231.111L267.68 229.171L268.14 228.701C270.14 226.631 272.14 224.541 273.97 222.491L274.05 222.401C303.53 189.691 316.05 154.921 311.41 119.041C302.41 50.411 232.76 4.35097 229.8 2.43097C227.328 0.81978 224.435 -0.0263214 221.484 -0.00141883C218.533 0.0234838 215.655 0.918283 213.21 2.57097C188.89 19.011 169.51 36.281 155.54 53.971C152.96 57.251 150.54 60.611 148.26 63.971L148 64.361C147.52 65.091 147 65.821 146.57 66.551L146.24 67.071C145.78 67.801 145.33 68.531 144.89 69.251L144.61 69.711C144.15 70.471 143.7 71.231 143.25 72.021L143.17 72.151C141.25 75.491 139.48 78.901 137.92 82.271L137.85 82.421C137.48 83.211 137.13 84.001 136.75 84.871L136.64 85.121C136.31 85.891 135.99 86.661 135.64 87.411L135.49 87.781C135.18 88.561 134.88 89.331 134.58 90.111L134.51 90.301C132.953 94.4281 131.647 98.6459 130.6 102.931V103.081C130.41 103.871 130.23 104.661 130.05 105.471L130 105.711C129.83 106.501 129.67 107.281 129.52 108.071V108.241C128.59 113.163 128.022 118.146 127.82 123.151C127.825 123.184 127.825 123.218 127.82 123.251C127.82 124.041 127.77 124.821 127.76 125.611V125.741C127.694 131.353 128.086 136.962 128.93 142.511C130.697 153.861 134.134 164.888 139.13 175.231C143.847 184.949 149.564 194.149 156.19 202.681L156.24 202.751C157.43 204.301 158.67 205.851 159.94 207.391C139.94 194.741 115.53 188.311 87.4701 188.311C46.0301 188.311 10.8401 202.411 9.36011 203.011C6.62862 204.121 4.28493 206.012 2.62198 208.447C0.959026 210.882 0.0505575 213.753 0.0101022 216.701C-0.389898 246.051 2.71009 271.831 9.22009 293.331C9.22421 293.354 9.22421 293.378 9.22009 293.401C10.4401 297.401 11.8101 301.401 13.2901 305.151L13.4501 305.571C13.7801 306.391 14.1101 307.211 14.4501 308.001L14.6801 308.561C15.0201 309.361 15.3601 310.151 15.6801 310.951L15.8901 311.411C16.2501 312.231 16.6201 313.031 17.0101 313.881L17.0701 313.991C18.7301 317.511 20.5301 320.991 22.4301 324.181C22.4268 324.198 22.4268 324.214 22.4301 324.231C22.8701 324.981 23.3101 325.711 23.7801 326.481L23.9601 326.771C24.4001 327.471 24.8401 328.171 25.2801 328.851L25.5101 329.201C25.9701 329.901 26.4301 330.591 26.9301 331.321L27.0101 331.441C29.5055 335.065 32.2136 338.538 35.1201 341.841L35.2401 341.981C35.7801 342.591 36.3301 343.191 36.8801 343.781L37.0601 343.981C37.6101 344.571 38.1601 345.151 38.7001 345.701L38.8501 345.851C42.3438 349.418 46.0975 352.72 50.0801 355.731L50.1901 355.811C50.8201 356.291 51.4601 356.811 52.0901 357.211L52.2001 357.291C56.7404 360.539 61.5399 363.409 66.5501 365.871H66.6301C82.9701 373.871 102.05 377.971 123.34 377.971C126.03 377.971 128.78 377.901 131.54 377.771H131.64C136.29 377.551 141.09 377.141 145.91 376.551H145.96C150.36 376.021 154.88 375.321 159.32 374.551L161.41 374.151C164.883 373.484 168.417 372.714 172.01 371.841L173.57 371.451L175.44 370.981C178 370.331 180.58 369.621 183.17 368.881L184.75 368.411H184.85L186.01 368.061L187.82 367.511C189.11 367.111 190.34 366.721 191.56 366.321V427.451C183.66 416.234 173.77 406.561 162.38 398.911C141.87 385.201 116.66 378.251 87.4401 378.251C46.0001 378.251 10.8101 392.351 9.33011 392.951C6.59862 394.061 4.25493 395.952 2.59198 398.387C0.929028 400.822 0.0205588 403.693 -0.0198966 406.641C-0.419897 436.001 2.68009 461.781 9.19009 483.271C9.19443 483.294 9.19443 483.318 9.19009 483.341C10.4101 487.341 11.7801 491.341 13.2601 495.091L13.4201 495.511C13.7534 496.338 14.0868 497.148 14.4201 497.941L14.6501 498.501C14.9901 499.301 15.3301 500.091 15.6501 500.891L15.8601 501.361C16.2201 502.171 16.5901 502.981 16.9601 503.771L17.0401 503.931C18.6801 507.421 20.4601 510.811 22.3701 514.071C22.3897 514.113 22.4131 514.153 22.4401 514.191C22.8701 514.931 23.3101 515.661 23.7701 516.401L23.9601 516.721L25.2801 518.791L25.5101 519.141L27.0301 521.231L27.1101 521.341C29.6321 525.007 32.3737 528.517 35.3201 531.851L35.2501 531.771L35.3501 531.891L36.9901 533.701L37.1601 533.881C37.7101 534.471 38.2601 535.041 38.8701 535.671L38.9501 535.751C42.4438 539.318 46.1974 542.62 50.1801 545.631C50.2108 545.665 50.2483 545.692 50.2901 545.711C50.9201 546.191 51.5601 546.711 52.1901 547.121L52.3001 547.191C56.8668 550.453 61.693 553.336 66.7301 555.811C83.0701 563.811 102.15 567.911 123.44 567.911C126.14 567.911 128.93 567.841 131.71 567.711H131.79C136.43 567.491 141.21 567.081 146 566.491H146.05C150.45 565.951 154.97 565.251 159.49 564.411L161.49 564.031C164.96 563.351 168.49 562.581 171.93 561.751L173.67 561.331L175.52 560.861C178.08 560.194 180.657 559.494 183.25 558.761L184.83 558.291H184.93L186.16 557.931L187.9 557.391C189.18 557.001 190.42 556.601 191.64 556.211V727.001C191.64 730.979 193.22 734.794 196.034 737.608C198.847 740.421 202.662 742.001 206.64 742.001H241.03C245.008 742.001 248.824 740.421 251.637 737.608C254.45 734.794 256.03 730.979 256.03 727.001V598.071C257.26 598.471 258.51 598.871 259.84 599.281L261.4 599.761H261.52L262.7 600.111L264.43 600.621C266.98 601.351 269.58 602.061 272.13 602.721L273.87 603.151L275.66 603.591C279.16 604.441 282.66 605.211 286.13 605.871L288.08 606.251H288.13C292.63 607.091 297.13 607.781 301.54 608.321H301.6C309.085 609.247 316.618 609.722 324.16 609.741C345.46 609.741 364.54 605.671 380.82 597.671L380.94 597.611C385.934 595.154 390.72 592.294 395.25 589.061L395.42 588.941C396.05 588.491 396.69 588.021 397.32 587.541L397.41 587.471C401.393 584.457 405.15 581.155 408.65 577.591L408.79 577.451C409.35 576.871 409.9 576.291 410.44 575.711L410.62 575.521C411.18 574.921 411.73 574.321 412.24 573.741L412.35 573.611C415.291 570.32 418.029 566.854 420.55 563.231L420.63 563.121C421.1 562.431 421.56 561.741 422.03 561.021L422.24 560.701C422.69 560.011 423.13 559.321 423.57 558.601L423.77 558.291C424.22 557.561 424.66 556.821 425.12 556.041C427.02 552.801 428.82 549.381 430.46 545.891C430.46 545.841 430.52 545.781 430.55 545.711C430.92 544.921 431.29 544.111 431.66 543.261L431.87 542.811C432.21 542.031 432.55 541.241 432.87 540.431L433.1 539.891C433.43 539.091 433.76 538.281 434.1 537.451L434.26 537.021C435.73 533.261 437.1 529.321 438.32 525.311V525.201C444.83 503.711 447.93 477.931 447.53 448.581C447.49 445.633 446.581 442.762 444.918 440.327C443.255 437.892 440.912 436.001 438.18 434.891C436.7 434.291 401.5 420.181 360.07 420.181C330.85 420.181 305.63 427.181 285.13 440.851C273.738 448.494 263.847 458.164 255.95 469.381V408.171C257.18 408.571 258.43 408.971 259.76 409.381L261.32 409.861" fill="#231F20"/>
<path d="M241.01 184.311H206.62V727.001H241.01V184.311Z" fill="#66BE64"/>
<path d="M241.01 576.381L432.6 448.691C435.55 666.321 241.01 576.381 241.01 576.381Z" fill="#4CA84E"/>
<path d="M432.6 448.692L241.01 576.382C247.67 373.572 432.6 448.692 432.6 448.692Z" fill="#66BE64"/>
<g style="mix-blend-mode:multiply">
<path d="M247.02 527.552C243.43 543.593 241.42 559.948 241.02 576.382C241.02 576.382 386.75 643.752 424.02 520.762C399.59 538.232 313.7 589.972 247.02 527.552Z" fill="#4CA84E"/>
</g>
<path d="M206.62 534.452L15.0302 406.762C12.1302 624.382 206.62 534.452 206.62 534.452Z" fill="#4CA84E"/>
<path d="M15.0303 406.762L206.62 534.452C199.96 331.642 15.0303 406.762 15.0303 406.762Z" fill="#66BE64"/>
<g style="mix-blend-mode:multiply">
<path d="M200.61 485.61C204.201 501.655 206.21 518.013 206.61 534.45C206.61 534.45 60.8804 601.81 23.6104 478.83C48.0404 496.32 133.93 548.04 200.61 485.61Z" fill="#4CA84E"/>
</g>
<path d="M241.01 386.481L432.6 258.791C435.55 476.421 241.01 386.481 241.01 386.481Z" fill="#4CA84E"/>
<path d="M432.6 258.791L241.01 386.481C247.67 183.671 432.6 258.791 432.6 258.791Z" fill="#66BE64"/>
<g style="mix-blend-mode:multiply">
<path d="M247.02 337.641C243.43 353.686 241.42 370.044 241.02 386.481C241.02 386.481 386.75 453.851 424.02 330.861C399.59 348.351 313.7 400.071 247.02 337.641Z" fill="#4CA84E"/>
</g>
<path d="M206.62 344.551L15.0302 216.861C12.1302 434.481 206.62 344.551 206.62 344.551Z" fill="#4CA84E"/>
<path d="M15.0303 216.861L206.62 344.551C199.96 141.731 15.0303 216.861 15.0303 216.861Z" fill="#66BE64"/>
<g style="mix-blend-mode:multiply">
<path d="M200.61 295.712C204.201 311.757 206.21 328.115 206.61 344.552C206.61 344.552 60.8804 411.912 23.6104 288.922C48.0404 306.422 133.93 358.142 200.61 295.712Z" fill="#4CA84E"/>
</g>
<path d="M226.31 245.231L221.66 15.041C41.3601 136.891 226.31 245.231 226.31 245.231Z" fill="#4CA84E"/>
<path d="M221.66 15L226.31 245.23C388.96 123.86 221.66 15 221.66 15Z" fill="#66BE64"/>
<g style="mix-blend-mode:multiply">
<path d="M262.96 212.36C251.847 224.488 239.571 235.497 226.31 245.23C226.31 245.23 87.7602 164.1 167.41 63.2305C167.01 93.2305 173.63 193.3 262.96 212.36Z" fill="#4CA84E"/>
</g>
<path d="M280.254 130.042C285.555 129.161 288.376 119.569 286.555 108.619C284.734 97.6679 278.961 89.5052 273.66 90.3866C268.359 91.2679 265.538 100.86 267.359 111.81C269.179 122.761 274.953 130.924 280.254 130.042Z" fill="white"/>
<path d="M357.298 275.389C370.128 274.491 380.117 267.889 379.61 260.643C379.103 253.397 368.291 248.251 355.461 249.149C342.632 250.047 332.643 256.649 333.15 263.895C333.657 271.141 344.469 276.287 357.298 275.389Z" fill="white"/>
<path d="M341.518 467.723C354.348 466.825 364.337 460.223 363.83 452.977C363.322 445.731 352.511 440.585 339.681 441.483C326.852 442.381 316.862 448.983 317.37 456.229C317.877 463.475 328.688 468.621 341.518 467.723Z" fill="white"/>
<path d="M287 147.07C290.728 147.07 293.75 144.048 293.75 140.32C293.75 136.592 290.728 133.57 287 133.57C283.272 133.57 280.25 136.592 280.25 140.32C280.25 144.048 283.272 147.07 287 147.07Z" fill="white"/>
<path d="M321.57 278.12C324.828 278.12 327.47 275.479 327.47 272.22C327.47 268.962 324.828 266.32 321.57 266.32C318.311 266.32 315.67 268.962 315.67 272.22C315.67 275.479 318.311 278.12 321.57 278.12Z" fill="white"/>
</g>
<defs>
<clipPath id="clip0_4884_1059">
<rect width="447.63" height="791.4" fill="white"/>
</clipPath>
</defs>
</svg>
