<svg width="69" height="79" viewBox="0 0 69 79" fill="none" xmlns="http://www.w3.org/2000/svg">
<g clip-path="url(#clip0_478_5462)">
<path d="M68.9655 76.6771C68.9232 76.497 67.926 72.2452 66.3703 67.6862C65.447 64.9793 64.5173 62.7317 63.6075 61.0067C62.3464 58.6133 61.097 57.1783 59.7899 56.6198C58.372 56.0135 56.5776 53.9759 54.4562 50.5627C53.5491 49.0683 52.6627 47.4613 51.9475 46.1272C52.3345 45.8654 52.6274 45.4866 52.7834 45.0462C53.2671 43.6689 52.2609 42.1636 51.4628 41.1601C50.8602 40.3989 50.0918 39.5657 49.2784 38.6838C47.4921 36.7489 45.2707 34.3401 44.9464 32.6637C44.2852 29.2452 42.825 27.0067 40.8495 26.2941V23.553C40.9189 23.553 40.9891 23.553 41.0594 23.553C42.0535 23.5524 43.0302 23.2918 43.8924 22.7972C44.0841 22.686 44.2693 22.5642 44.4473 22.4324C44.5158 22.381 44.5834 22.3288 44.6491 22.2747C44.8063 22.1454 44.9567 22.008 45.0995 21.863L45.1085 21.854C45.4958 21.459 45.8238 21.0099 46.0823 20.5208C46.4782 20.4835 46.8692 20.405 47.2489 20.2866C47.1799 20.5129 47.145 20.7482 47.1453 20.9848C47.145 21.5681 47.3562 22.1318 47.7396 22.5715C48.123 23.0111 48.6528 23.2969 49.2308 23.3759C49.8088 23.455 50.3958 23.3219 50.8832 23.0013C51.3706 22.6808 51.7253 22.1945 51.8817 21.6324C52.0107 22.3105 52.3388 22.9349 52.8241 23.4257C53.3094 23.9166 53.9299 24.2518 54.6065 24.3886C55.2831 24.5254 55.9851 24.4575 56.6229 24.1937C57.2608 23.9298 57.8056 23.4819 58.1879 22.9072C58.5701 22.3324 58.7725 21.6569 58.7693 20.9666C58.766 20.2763 58.5572 19.6027 58.1695 19.0316C57.7818 18.4605 57.2327 18.0178 56.5924 17.76C55.9521 17.5022 55.2495 17.441 54.5742 17.5842C54.7639 17.348 54.891 17.0679 54.9438 16.7696C54.9965 16.4712 54.9732 16.1645 54.8759 15.8776C54.7787 15.5907 54.6106 15.3329 54.3874 15.1282C54.1641 14.9234 53.8929 14.7783 53.5986 14.7061C53.9544 14.0912 54.1764 13.4081 54.2502 12.7015C54.324 11.9949 54.2479 11.2807 54.0268 10.6055C53.8058 9.93029 53.4448 9.30933 52.9675 8.78316C52.4901 8.25699 51.9071 7.83744 51.2565 7.55193C51.6031 7.32035 51.8837 7.00294 52.071 6.63065C52.2584 6.25835 52.3461 5.84387 52.3256 5.42759C52.3051 5.01132 52.1771 4.60745 51.9541 4.25536C51.731 3.90328 51.4206 3.61497 51.053 3.41856C50.6854 3.22214 50.2732 3.12431 49.8566 3.13461C49.4399 3.1449 49.033 3.26297 48.6756 3.4773C48.3181 3.69163 48.0223 3.99491 47.817 4.35759C47.6116 4.72026 47.5037 5.12995 47.5038 5.54673C47.5038 5.61069 47.5038 5.67465 47.5119 5.7377C46.9321 4.59091 46.0572 3.61939 44.9771 2.92317C43.8971 2.22696 42.651 1.83122 41.3671 1.77671C40.0833 1.7222 38.8081 2.0109 37.6729 2.61307C36.5377 3.21523 35.5836 4.1091 34.9087 5.20262C34.1693 4.1555 33.0978 3.38885 31.8681 3.02701C30.6383 2.66517 29.3224 2.72934 28.1337 3.20914C28.0928 2.96684 28.0028 2.73548 27.8692 2.52926C27.7356 2.32304 27.5612 2.14634 27.3568 2.01001C27.1524 1.87368 26.9222 1.78061 26.6805 1.73653C26.4387 1.69245 26.1905 1.69828 25.9511 1.75367C25.7117 1.80905 25.4862 1.91282 25.2884 2.0586C25.0906 2.20438 24.9247 2.38908 24.8009 2.60134C24.6771 2.81361 24.5981 3.04895 24.5686 3.29289C24.5392 3.53684 24.5599 3.78423 24.6296 4.01986C24.206 4.14516 23.8025 4.33051 23.4315 4.57026C23.5503 4.21849 23.6111 3.84976 23.6117 3.47848C23.6118 2.81398 23.4213 2.16338 23.0628 1.60389C22.7043 1.04439 22.1928 0.599472 21.589 0.321914C20.9853 0.0443556 20.3146 -0.0541929 19.6565 0.0379593C18.9984 0.130111 18.3805 0.409097 17.8762 0.841818C17.2475 0.861714 16.6316 1.02526 16.0758 1.31992C15.52 1.61458 15.039 2.03255 14.6697 2.5418C14.3004 3.05105 14.0525 3.63807 13.9451 4.25791C13.8376 4.87775 13.8735 5.51395 14.0499 6.11778C14.2263 6.72162 14.5386 7.27707 14.9628 7.74159C15.387 8.2061 15.912 8.56736 16.4973 8.7977C17.0827 9.02803 17.7131 9.12132 18.3401 9.07043C18.9671 9.01954 19.5742 8.82581 20.1148 8.50408C19.2586 9.52619 18.7884 10.8164 18.7861 12.1496C18.7861 12.2046 18.7861 12.2595 18.7861 12.3145C18.5352 12.3695 18.299 12.4776 18.0933 12.6314C17.8876 12.7852 17.7172 12.9811 17.5935 13.2062C17.4697 13.4312 17.3955 13.6801 17.3758 13.9362C17.3562 14.1923 17.3915 14.4496 17.4794 14.6909C17.5673 14.9322 17.7058 15.152 17.8855 15.3354C18.0653 15.5188 18.2822 15.6616 18.5217 15.7544C18.7612 15.8471 19.0178 15.8875 19.2742 15.873C19.5306 15.8584 19.781 15.7892 20.0085 15.67C20.821 16.6997 21.9644 17.417 23.2451 17.7004C23.3121 17.998 23.4024 18.2899 23.5153 18.5733C23.5576 18.6805 23.6054 18.785 23.6486 18.8832C23.6576 18.9039 23.6666 18.9237 23.6774 18.9453C23.7306 19.0552 23.7873 19.1633 23.8468 19.2687C23.3867 18.918 22.8155 18.7449 22.2381 18.7813C21.6607 18.8177 21.1157 19.0611 20.7033 19.4668C20.2908 19.8725 20.0385 20.4134 19.9926 20.9901C19.9467 21.5668 20.1103 22.1408 20.4534 22.6066C20.7965 23.0725 21.2961 23.399 21.8605 23.5262C22.4249 23.6534 23.0163 23.5729 23.5261 23.2993C24.0359 23.0258 24.4299 22.5775 24.6359 22.0369C24.8419 21.4962 24.8461 20.8994 24.6476 20.356C25.4015 21.1651 26.3754 21.7363 27.4496 21.9994C28.5237 22.2625 29.6513 22.206 30.6938 21.8369V26.241C29.0444 26.6914 27.8896 27.9228 27.1113 30.0361C26.8041 30.8711 26.0349 32.2503 25.2196 33.7105C23.8252 36.212 22.0893 39.3261 21.2975 42.0799C20.3562 45.3462 19.7661 46.0317 18.5951 47.3946C18.3483 47.6811 18.0699 48.0063 17.7636 48.3855C16.7809 49.5926 13.8415 53.5976 13.2443 56.0811C12.7939 57.9277 13.7668 58.6259 14.2163 58.8421L14.201 58.8943C14.1856 58.943 14.1712 58.9916 14.1577 59.0393C14.0442 59.4276 13.9514 59.7807 13.883 60.0915C13.2002 63.193 8.56371 66.4368 4.80104 68.2726C3.40839 68.95 2.22023 70.5616 1.15637 73.1991C0.705184 74.3303 0.33021 75.4905 0.0339667 76.6717C-0.0132256 76.8702 -0.0148666 77.0768 0.0291668 77.276C0.0732003 77.4752 0.161766 77.6618 0.288219 77.8219C0.414672 77.982 0.575732 78.1113 0.759316 78.2003C0.9429 78.2893 1.14424 78.3355 1.34824 78.3355H67.6476C67.8514 78.3358 68.0525 78.2901 68.2361 78.2017C68.4196 78.1132 68.5808 77.9845 68.7075 77.825C68.8343 77.6655 68.9233 77.4794 68.968 77.2806C69.0127 77.0818 69.0118 76.8755 68.9655 76.6771V76.6771ZM51.8817 20.3362C51.752 19.8739 51.4877 19.4608 51.1225 19.1492C50.7572 18.8377 50.3075 18.6419 49.8306 18.5868C50.2466 18.1048 50.5793 17.5568 50.8151 16.9654C51.012 16.9001 51.2046 16.8225 51.3917 16.7329C51.4574 17.1525 51.6693 17.5353 51.9899 17.8139C52.3104 18.0924 52.7191 18.2488 53.1437 18.2553C52.4859 18.7741 52.0378 19.5131 51.8817 20.3362V20.3362Z" fill="black"/>
<path d="M5.39583 69.4846C7.95773 68.2352 14.2625 64.6644 15.2056 60.3793C16.1488 56.0942 21.6464 44.49 25.4361 38.9554C29.2258 33.4208 30.1464 32.6498 32.3723 34.5496C34.1109 36.0323 33.329 35.8873 36.5646 37.6727C39.8003 39.4581 42.6469 36.4007 44.4017 36.0431C46.1564 35.6855 53.2665 55.2996 59.265 57.8615C63.6303 59.7271 67.6551 76.9839 67.6551 76.9839H1.35571C1.35571 76.9839 2.83484 70.7314 5.39583 69.4846Z" fill="#3C9582"/>
<path d="M36.334 76.9839C37.242 59.8523 32.6272 57.6796 31.6417 56.2743C30.6103 54.8042 27.3575 55.8546 29.2321 51.2199C30.5364 47.9959 28.1232 41.2354 26.5296 37.415C26.1882 37.8745 25.8243 38.3861 25.4343 38.9554C24.7496 39.9553 24.0092 41.1552 23.2489 42.4686C23.8795 44.2323 24.4965 46.0204 24.9757 47.55C26.6152 52.7837 22.7544 61.7332 23.4687 65.2833C24.183 68.8334 30.0185 66.7102 31.0499 69.3793C31.6805 71.0007 31.539 73.7392 30.4995 76.9794L36.334 76.9839Z" fill="#4BBEA2"/>
<path d="M56.7905 71.6132C56.7112 65.3076 58.6948 63.9861 52.8269 58.3444C51.1983 56.7788 52.3324 53.9304 53.308 51.2694C49.2615 44.6035 45.579 35.8035 44.3999 36.0458C42.6478 36.4061 39.8058 39.4607 36.5629 37.6753L35.9882 37.3547C36.4773 43.7765 37.5673 51.3919 39.3374 52.9152C44.0972 57.013 49.3363 62.2656 49.5714 69.4099C49.6552 71.9321 49.7291 74.5931 49.7903 76.9866H57.4193C57.0344 75.2203 56.8238 73.4206 56.7905 71.6132V71.6132Z" fill="#1F705F"/>
<path opacity="0.47" d="M67.6497 76.9839C67.6497 76.9839 63.6249 59.7271 59.2587 57.8615C58.6281 57.5913 57.9787 57.1292 57.3283 56.522C52.0856 59.3578 46.261 61.9611 45.0629 60.2919C42.7893 57.1229 25.4253 60.2586 20.2835 62.679C18.4152 63.5591 16.1515 63.4294 14.0274 62.9097C11.8348 66.03 7.43169 68.4947 5.39497 69.4855C2.83397 70.7359 1.35034 76.9848 1.35034 76.9848L67.6497 76.9839Z" fill="#037759"/>
<path d="M9.74731 68.6733C10.2558 68.422 10.5893 68.0592 10.4923 67.8629C10.3953 67.6667 9.90453 67.7113 9.39608 67.9626C8.88764 68.2139 8.55409 68.5767 8.65108 68.7729C8.74806 68.9692 9.23887 68.9245 9.74731 68.6733Z" fill="white"/>
<path d="M10.7745 67.6884C10.9173 67.6884 11.0331 67.5521 11.0331 67.3839C11.0331 67.2158 10.9173 67.0795 10.7745 67.0795C10.6317 67.0795 10.516 67.2158 10.516 67.3839C10.516 67.5521 10.6317 67.6884 10.7745 67.6884Z" fill="white"/>
<path opacity="0.62" d="M19.1476 55.2374C20.8168 52.4792 21.5951 51.2162 23.4868 50.6433C25.3785 50.0704 25.2677 49.2624 25.3785 47.6517C25.473 46.2915 26.9233 45.8357 27.2242 46.4267C27.2886 46.5575 27.3036 46.7072 27.2665 46.8482C27.045 47.9995 24.375 52.1351 25.8253 53.2863C27.2756 54.4375 26.8252 56.1599 25.9361 57.766C25.4397 58.6668 23.6588 62.3205 22.9994 65.4769C22.4761 67.9721 22.6499 70.1611 24.711 70.4097C29.3798 70.9835 28.9357 66.8479 29.3798 64.6635C29.8239 62.479 30.3833 61.5611 32.1606 61.099C33.9379 60.6369 34.1631 58.111 33.719 55.9266C33.2749 53.7421 33.719 49.0327 35.2774 48.3445C35.2774 48.3445 35.8693 48.2733 36.4701 48.8102C36.9439 49.2354 37.424 50.0389 37.6294 51.5577C37.8916 53.5232 37.388 55.6969 38.6131 57.8813C39.8382 60.0658 37.8357 64.4338 39.3914 65.8084C40.8282 67.0812 41.0345 71.1898 41.7596 72.723C41.8088 72.8396 41.8727 72.9495 41.9497 73.05C42.8379 74.1985 44.3963 74.7723 44.063 71.6691C43.7297 68.5658 40.4571 59.5613 41.2426 58.0092C41.5885 57.3174 42.1434 56.858 42.7974 57.0571C43.4802 57.267 44.2711 58.1849 45.0647 60.2919C46.1168 63.0844 47.9013 66.5678 49.5147 68.5793C50.293 69.5441 51.0307 70.1692 51.6289 70.2061C53.38 70.3206 55.9644 68.2244 53.5206 63.7411C51.0767 59.2577 50.5146 58.6875 51.5181 56.7328C52.5216 54.778 52.7396 52.1342 51.6289 50.6424C50.5182 49.1507 49.4039 47.3094 50.4038 47.077C50.546 47.0453 50.6859 47.0041 50.8226 46.9536C49.5498 44.6007 48.3743 42.2568 47.3699 40.348C46.1087 38.9536 44.8584 37.4843 44.1513 36.1142C42.3848 36.6745 39.6517 39.3814 36.5638 37.678C33.3281 35.8926 34.11 36.0376 32.3714 34.5549C30.1473 32.6569 29.2276 33.4262 25.4352 38.9608C24.701 40.0327 23.9038 41.3326 23.0859 42.7631C22.8976 43.2531 22.731 43.7368 22.5959 44.2044C21.3924 48.3832 20.6204 48.7895 18.9026 50.8703C17.3334 54.2222 16.0335 57.4039 15.4272 59.5028C16.6226 59.4415 17.7243 57.5904 19.1476 55.2374Z" fill="#037759"/>
<path d="M51.6279 68.4559C51.0298 68.4181 50.292 67.7938 49.5137 66.8281C47.9004 64.8193 46.1159 61.3332 45.0637 58.5407C44.2701 56.4346 43.4792 55.5158 42.7964 55.3068C42.1397 55.1077 41.5875 55.5663 41.2416 56.259C40.457 57.812 43.7305 66.8155 44.0638 69.9179C44.3971 73.0203 42.8387 72.4465 41.9505 71.2988C41.8736 71.198 41.8097 71.0879 41.7605 70.9709C41.0398 69.4396 40.829 65.3301 39.3923 64.0573C37.8366 62.6799 39.8364 58.311 38.614 56.1302C37.3916 53.9493 37.8933 51.7712 37.6303 49.8065C37.4249 48.2868 36.9448 47.4833 36.4709 47.0581C35.8701 46.5177 35.2783 46.5924 35.2783 46.5924C33.7199 47.2815 33.2749 51.9973 33.7199 54.1754C34.1649 56.3536 33.9415 58.8884 32.1615 59.3469C30.3815 59.8055 29.8248 60.7324 29.3807 62.9123C28.9366 65.0923 29.3807 69.2324 24.7118 68.6577C22.6472 68.4046 22.4733 66.221 23.0003 63.7258C23.6597 60.5729 25.4406 56.913 25.9369 56.0149C26.826 54.4078 27.2701 52.6819 25.8261 51.5351C24.3821 50.3884 27.0485 46.2483 27.2674 45.0971C27.3044 44.9557 27.2894 44.8058 27.2251 44.6746C26.9242 44.0846 25.4739 44.5404 25.3793 45.9006C25.2676 47.5112 25.3793 48.3139 23.4876 48.8913C21.5959 49.4687 20.8176 50.728 19.1484 53.4854C17.4792 56.2428 16.2568 58.3128 14.8128 57.6291C14.4633 57.4634 14.4111 57.0175 14.5606 56.4031C15.0245 54.4727 17.4657 50.8974 18.8151 49.2399C20.596 47.0554 21.3734 46.7113 22.5985 42.4568C23.8236 38.2023 27.4935 32.92 28.3817 30.5058C29.2699 28.0917 30.4959 27.4034 32.2732 27.3998C32.4299 27.3998 32.5966 27.3998 32.7695 27.3998C34.5441 27.4133 37.0502 27.5043 39.2815 27.3998C41.7289 27.2854 43.0648 30.0437 43.6206 32.9164C44.1764 35.789 48.4039 39.4661 50.4037 41.9947C52.4035 44.5233 51.4063 45.0971 50.4037 45.3277C49.4011 45.5583 50.5145 47.3995 51.6288 48.8922C52.7431 50.3848 52.5179 53.0278 51.518 54.9825C50.5181 56.9373 51.073 57.5111 53.5205 61.9917C55.968 66.4723 53.3791 68.5694 51.6279 68.4559Z" fill="#F8A33E"/>
<path d="M51.6279 68.4559C51.0298 68.4181 50.292 67.7938 49.5137 66.8281C50.1803 66.8417 50.9775 66.6426 51.8504 66.0174C54.4087 64.178 49.5137 58.0903 48.6255 56.9391C47.7373 55.7879 49.1804 54.0628 49.7362 51.9973C50.292 49.9317 48.1778 46.7104 44.9529 43.3747C41.7281 40.0391 42.3947 37.9699 42.3947 37.9699C44.0638 41.4209 46.4005 42.3388 47.4004 42.3388C48.4003 42.3388 47.2662 38.4834 44.5088 37.6258C41.7515 36.7682 41.5056 31.7651 40.839 30.1581C40.1724 28.5511 39.5031 28.5475 36.3728 28.7772C34.9315 28.8826 33.6875 28.1835 32.7695 27.3998C34.5441 27.4133 37.0502 27.5043 39.2815 27.3998C41.729 27.2854 43.0649 30.0437 43.6207 32.9164C44.1765 35.789 48.4039 39.4661 50.4037 41.9947C52.4035 44.5233 51.4063 45.0971 50.4037 45.3277C49.4011 45.5583 50.5145 47.3995 51.6288 48.8922C52.7431 50.3848 52.5179 53.0278 51.518 54.9825C50.5181 56.9373 51.073 57.5111 53.5205 61.9917C55.968 66.4723 53.3791 68.5694 51.6279 68.4559Z" fill="#E25626"/>
<path d="M41.9505 71.3016C41.8735 71.2008 41.8097 71.0906 41.7605 70.9737C42.6261 71.2529 43.1324 70.471 42.9928 69.4919C42.8811 68.7109 41.7839 63.2835 40.9506 60.6973C40.1174 58.1111 39.7418 54.0196 40.9506 53.4998C41.6821 53.1863 42.3721 54.3475 42.7964 55.3095C42.1397 55.1105 41.5875 55.569 41.2416 56.2617C40.457 57.8147 43.7305 66.8183 44.0638 69.9206C44.3971 73.023 42.8387 72.4492 41.9505 71.3016Z" fill="#E25626"/>
<path d="M36.4683 47.0582C35.8675 46.5177 35.2757 46.5925 35.2757 46.5925C33.7173 47.2816 33.2723 51.9973 33.7173 54.1754C34.1623 56.3536 33.9389 58.8885 32.1589 59.347C30.3789 59.8055 29.8249 60.7324 29.3808 62.9124C28.9367 65.0923 29.3808 69.2324 24.7119 68.6577C22.6472 68.4046 22.4734 66.221 23.0004 63.7258C23.3165 65.3698 23.6958 66.2075 24.938 66.3453C26.4802 66.5174 27.898 62.7232 28.0647 61.2171C28.2313 59.7109 29.5249 58.5876 30.7338 57.8985C31.9427 57.2094 32.0273 54.4078 31.6517 51.9532C31.2761 49.4985 32.6129 48.1175 33.5272 47.0411C34.4415 45.9646 34.6541 44.1945 35.8242 43.9351C36.6485 43.7504 36.5791 45.8232 36.4683 47.0582Z" fill="#E25626"/>
<path d="M27.2242 44.6746C26.9233 44.0846 25.473 44.5404 25.3784 45.9006C25.2667 47.5113 25.3784 48.3139 23.4868 48.8913C21.5951 49.4687 20.8168 50.7281 19.1476 53.4854C17.4784 56.2428 16.256 58.3129 14.812 57.6291C14.4625 57.4634 14.4102 57.0175 14.5598 56.4031C14.6989 56.5793 14.8852 56.7122 15.097 56.7864C15.3089 56.8605 15.5374 56.8729 15.756 56.822C16.5073 56.65 17.8828 53.5476 18.5485 51.782C19.2142 50.0164 21.7212 48.8517 22.9724 47.7284C24.2236 46.6051 24.0966 44.4539 25.1001 42.6415C26.1036 40.8291 27.9358 40.0985 28.1448 41.9965C28.2502 42.9667 27.744 43.9495 27.2242 44.6746Z" fill="#E25626"/>
<path d="M24.8016 41.3669C25.1909 40.3775 25.204 39.4565 24.8309 39.3097C24.4578 39.1629 23.8397 39.8458 23.4504 40.8351C23.0611 41.8245 23.048 42.7455 23.4211 42.8923C23.7942 43.0392 24.4123 42.3562 24.8016 41.3669Z" fill="white"/>
<path d="M52.4844 63.0127C52.8073 62.8455 52.6173 61.8371 52.0599 60.7604C51.5025 59.6837 50.7888 58.9465 50.4659 59.1137C50.1429 59.2808 50.333 60.2892 50.8903 61.3659C51.4477 62.4426 52.1614 63.1799 52.4844 63.0127Z" fill="white"/>
<path d="M52.4081 64.4374C52.6663 64.4374 52.8756 64.2281 52.8756 63.9699C52.8756 63.7117 52.6663 63.5024 52.4081 63.5024C52.1499 63.5024 51.9406 63.7117 51.9406 63.9699C51.9406 64.2281 52.1499 64.4374 52.4081 64.4374Z" fill="white"/>
<path d="M50.5094 43.6726C50.7105 43.5323 50.4482 42.809 49.9235 42.0571C49.3987 41.3052 48.8103 40.8094 48.6092 40.9498C48.408 41.0901 48.6704 41.8135 49.1951 42.5654C49.7198 43.3173 50.3083 43.813 50.5094 43.6726Z" fill="white"/>
<path d="M26.9917 66.0129C27.378 65.1099 27.4071 64.2565 27.0567 64.1066C26.7063 63.9567 26.1092 64.5672 25.7229 65.4701C25.3367 66.373 25.3076 67.2265 25.658 67.3764C26.0083 67.5262 26.6055 66.9158 26.9917 66.0129Z" fill="white"/>
<path d="M28.0394 64.6933C28.3155 64.6933 28.5393 64.4694 28.5393 64.1933C28.5393 63.9172 28.3155 63.6934 28.0394 63.6934C27.7633 63.6934 27.5394 63.9172 27.5394 64.1933C27.5394 64.4694 27.7633 64.6933 28.0394 64.6933Z" fill="white"/>
<path d="M27.2055 49.1184C27.5176 48.1422 27.5417 47.2776 27.2593 47.1874C26.9768 47.0971 26.4949 47.8152 26.1828 48.7914C25.8707 49.7676 25.8466 50.6321 26.1291 50.7224C26.4115 50.8127 26.8934 50.0945 27.2055 49.1184Z" fill="white"/>
<path d="M38.5001 54.6894C38.6688 54.6769 38.7589 54.0361 38.7014 53.2581C38.6439 52.4802 38.4605 51.8596 38.2918 51.8721C38.1231 51.8846 38.033 52.5254 38.0905 53.3033C38.1481 54.0813 38.3314 54.7018 38.5001 54.6894Z" fill="white"/>
<path d="M29.817 30.844C30.0653 30.1034 30.0334 29.4249 29.7457 29.3284C29.4579 29.2319 29.0234 29.754 28.775 30.4945C28.5267 31.2351 28.5586 31.9136 28.8463 32.0101C29.134 32.1066 29.5686 31.5845 29.817 30.844Z" fill="white"/>
<path d="M28.7726 33.0911C28.9726 33.0911 29.1348 32.929 29.1348 32.729C29.1348 32.529 28.9726 32.3669 28.7726 32.3669C28.5727 32.3669 28.4105 32.529 28.4105 32.729C28.4105 32.929 28.5727 33.0911 28.7726 33.0911Z" fill="white"/>
<path d="M50.7304 67.462C50.9223 67.3311 50.7134 66.6909 50.2639 66.0322C49.8144 65.3734 49.2944 64.9456 49.1025 65.0765C48.9106 65.2075 49.1194 65.8477 49.5689 66.5064C50.0185 67.1651 50.5384 67.593 50.7304 67.462Z" fill="white"/>
<path d="M52.0754 52.8261C52.2346 52.1936 52.0973 51.6138 51.7688 51.5311C51.4402 51.4484 51.0448 51.8941 50.8856 52.5266C50.7264 53.1591 50.8636 53.7389 51.1922 53.8216C51.5207 53.9043 51.9161 53.4586 52.0754 52.8261Z" fill="white"/>
<path d="M39.8067 63.6925C40.135 63.6925 40.4012 63.2387 40.4012 62.6791C40.4012 62.1194 40.135 61.6656 39.8067 61.6656C39.4783 61.6656 39.2122 62.1194 39.2122 62.6791C39.2122 63.2387 39.4783 63.6925 39.8067 63.6925Z" fill="white"/>
<path d="M35.7954 29.8996C38.5261 29.8996 40.7399 29.4672 40.7399 28.9339C40.7399 28.4006 38.5261 27.9683 35.7954 27.9683C33.0646 27.9683 30.8508 28.4006 30.8508 28.9339C30.8508 29.4672 33.0646 29.8996 35.7954 29.8996Z" fill="#4D2F24"/>
<path d="M55.2951 23.1066C56.4677 23.1066 57.4183 22.156 57.4183 20.9834C57.4183 19.8108 56.4677 18.8602 55.2951 18.8602C54.1225 18.8602 53.1719 19.8108 53.1719 20.9834C53.1719 22.156 54.1225 23.1066 55.2951 23.1066Z" fill="#D91F26"/>
<path d="M20.1366 5.5976C21.3092 5.5976 22.2598 4.64701 22.2598 3.4744C22.2598 2.30179 21.3092 1.3512 20.1366 1.3512C18.964 1.3512 18.0134 2.30179 18.0134 3.4744C18.0134 4.64701 18.964 5.5976 20.1366 5.5976Z" fill="#D91F26"/>
<path d="M18.0134 7.72801C19.5438 7.72801 20.7843 6.48745 20.7843 4.95713C20.7843 3.42681 19.5438 2.18625 18.0134 2.18625C16.4831 2.18625 15.2426 3.42681 15.2426 4.95713C15.2426 6.48745 16.4831 7.72801 18.0134 7.72801Z" fill="#D91F26"/>
<path d="M22.3814 22.2409C22.9679 22.2409 23.4434 21.7654 23.4434 21.1789C23.4434 20.5923 22.9679 20.1168 22.3814 20.1168C21.7948 20.1168 21.3193 20.5923 21.3193 21.1789C21.3193 21.7654 21.7948 22.2409 22.3814 22.2409Z" fill="#D91F26"/>
<path d="M49.9173 6.60833C50.5038 6.60833 50.9793 6.13283 50.9793 5.54627C50.9793 4.95972 50.5038 4.48422 49.9173 4.48422C49.3307 4.48422 48.8552 4.95972 48.8552 5.54627C48.8552 6.13283 49.3307 6.60833 49.9173 6.60833Z" fill="#D91F26"/>
<path d="M49.5579 22.0455C50.1445 22.0455 50.62 21.57 50.62 20.9834C50.62 20.3969 50.1445 19.9214 49.5579 19.9214C48.9713 19.9214 48.4958 20.3969 48.4958 20.9834C48.4958 21.57 48.9713 22.0455 49.5579 22.0455Z" fill="#D91F26"/>
<path d="M26.3513 3.92751C26.6015 3.92751 26.8044 3.72465 26.8044 3.47441C26.8044 3.22416 26.6015 3.0213 26.3513 3.0213C26.1011 3.0213 25.8982 3.22416 25.8982 3.47441C25.8982 3.72465 26.1011 3.92751 26.3513 3.92751Z" fill="#D91F26"/>
<path d="M53.172 16.9091C53.4222 16.9091 53.6251 16.7062 53.6251 16.4559C53.6251 16.2057 53.4222 16.0028 53.172 16.0028C52.9217 16.0028 52.7189 16.2057 52.7189 16.4559C52.7189 16.7062 52.9217 16.9091 53.172 16.9091Z" fill="#D91F26"/>
<path d="M19.1601 14.5291C19.4104 14.5291 19.6132 14.3262 19.6132 14.076C19.6132 13.8258 19.4104 13.6229 19.1601 13.6229C18.9099 13.6229 18.707 13.8258 18.707 14.076C18.707 14.3262 18.9099 14.5291 19.1601 14.5291Z" fill="#D91F26"/>
<path d="M32.0461 29.033V15.0426H39.4985V29.033C39.4985 29.5753 32.0461 29.5753 32.0461 29.033Z" fill="#F8A33E"/>
<path d="M32.0461 21.8446C32.2965 21.5599 32.5085 21.2438 32.6767 20.9041C33.2743 21.3286 33.9698 21.5945 34.6982 21.6767C35.4266 21.759 36.164 21.6549 36.8411 21.3743C37.0039 22.0586 37.3304 22.693 37.7927 23.2231C38.255 23.7532 38.8392 24.163 39.4949 24.4173V15.0426H32.0461V21.8446Z" fill="#E25626"/>
<path d="M52.9296 12.1789C52.9305 11.5632 52.7774 10.9571 52.4843 10.4156C52.1913 9.87414 51.7675 9.41454 51.2515 9.07859C50.7356 8.74264 50.1438 8.54101 49.53 8.49204C48.9163 8.44307 48.3 8.54831 47.7373 8.79819C47.4915 8.59949 47.2062 8.45519 46.9005 8.37481C46.7551 7.0114 46.1373 5.74182 45.1542 4.78603C44.1711 3.83024 42.8846 3.24847 41.5176 3.14153C40.1507 3.03458 38.7894 3.4092 37.6696 4.20047C36.5498 4.99174 35.7421 6.1498 35.3864 7.47401C35.0361 7.1247 34.6288 6.83773 34.182 6.62545C33.8848 5.99682 33.4406 5.449 32.8869 5.02829C32.3333 4.60759 31.6865 4.32638 31.0012 4.20842C30.3159 4.09047 29.6123 4.13925 28.9499 4.35063C28.2875 4.56202 27.6856 4.92979 27.1953 5.42287C26.7142 5.22477 26.1931 5.14318 25.6744 5.18478C25.1558 5.22637 24.6543 5.38995 24.2109 5.6622C23.7675 5.93444 23.3947 6.30763 23.123 6.75133C22.8512 7.19503 22.6882 7.69668 22.6472 8.21537C21.7521 8.63035 21.0255 9.33849 20.5877 10.2226C20.1498 11.1067 20.027 12.1138 20.2394 13.0773C20.4519 14.0408 20.9869 14.9028 21.7559 15.5208C22.525 16.1388 23.482 16.4757 24.4686 16.4758C24.4663 17.4545 24.7956 18.4051 25.4028 19.1727C26.0099 19.9403 26.8592 20.4797 27.8121 20.7028C28.765 20.926 29.7655 20.8198 30.6503 20.4016C31.5352 19.9834 32.2523 19.2778 32.6849 18.3999C33.2824 18.8244 33.978 19.0903 34.7064 19.1725C35.4348 19.2547 36.1721 19.1507 36.8493 18.8701C37.0671 19.7923 37.5814 20.6177 38.3133 21.2196C39.0452 21.8215 39.9543 22.1668 40.9013 22.2024C41.8482 22.2381 42.7807 21.9623 43.5559 21.4171C44.331 20.872 44.9059 20.0877 45.1926 19.1845C45.3079 19.1935 45.4241 19.1998 45.5412 19.1998C46.5221 19.1996 47.4739 18.8665 48.2409 18.255C49.0079 17.6435 49.5446 16.7897 49.7633 15.8335C50.6422 15.7068 51.4461 15.2676 52.0276 14.5964C52.6092 13.9252 52.9294 13.067 52.9296 12.1789V12.1789Z" fill="#D91F26"/>
<path d="M47.7374 14.5291C47.7374 14.5291 48.2382 18.2161 44.5584 17.8486C44.5584 17.8486 40.694 22.0824 37.4745 17.4802C37.4745 17.4802 34.7793 19.4619 32.7687 16.9091C32.7687 16.9091 29.4015 20.9933 24.4686 16.4767C24.4666 17.4553 24.796 18.4058 25.4032 19.1733C26.0105 19.9407 26.8597 20.4799 27.8126 20.7029C28.7655 20.926 29.7658 20.8197 30.6506 20.4015C31.5353 19.9833 32.2524 19.2778 32.6849 18.3999C33.2825 18.8244 33.978 19.0902 34.7064 19.1725C35.4348 19.2547 36.1721 19.1507 36.8493 18.8701C37.0672 19.7923 37.5815 20.6177 38.3134 21.2196C39.0453 21.8215 39.9544 22.1668 40.9013 22.2024C41.8483 22.2381 42.7808 21.9623 43.5559 21.4171C44.331 20.872 44.906 20.0877 45.1926 19.1845C45.3079 19.1935 45.4241 19.1998 45.5412 19.1998C46.5221 19.1996 47.4739 18.8665 48.2409 18.255C49.0079 17.6435 49.5446 16.7897 49.7633 15.8335C50.2829 15.7552 50.7798 15.5669 51.2208 15.2812C51.6618 14.9956 52.0368 14.6191 52.3207 14.1769C52.6046 13.7348 52.7908 13.2371 52.8671 12.7172C52.9433 12.1973 52.9077 11.6672 52.7627 11.1621C52.6177 10.6571 52.3666 10.1888 52.0261 9.78855C51.6857 9.3883 51.2638 9.0653 50.7885 8.84113C50.3133 8.61695 49.7957 8.49676 49.2703 8.48858C48.7449 8.4804 48.2239 8.58442 47.7419 8.79369C47.7419 8.79369 50.62 11.0574 47.7374 14.5291Z" fill="#951B1E"/>
<path d="M45.5449 9.28821C46.0347 9.11688 46.187 8.27829 45.8851 7.41516C45.5832 6.55204 44.9413 5.99122 44.4515 6.16256C43.9618 6.33389 43.8095 7.17248 44.1114 8.0356C44.4133 8.89873 45.0551 9.45954 45.5449 9.28821Z" fill="white"/>
<path d="M22.0027 11.5735C22.1979 10.8924 22.0494 10.2525 21.6711 10.1441C21.2928 10.0357 20.8279 10.4999 20.6328 11.1809C20.4376 11.8619 20.5861 12.5019 20.9644 12.6103C21.3427 12.7187 21.8076 12.2545 22.0027 11.5735Z" fill="white"/>
<path d="M44.108 5.73543C44.4129 5.73543 44.6602 5.48821 44.6602 5.18324C44.6602 4.87827 44.4129 4.63104 44.108 4.63104C43.803 4.63104 43.5558 4.87827 43.5558 5.18324C43.5558 5.48821 43.803 5.73543 44.108 5.73543Z" fill="white"/>
<path d="M28.4997 6.60743C28.94 6.60743 29.2969 6.2505 29.2969 5.81021C29.2969 5.36993 28.94 5.013 28.4997 5.013C28.0594 5.013 27.7025 5.36993 27.7025 5.81021C27.7025 6.2505 28.0594 6.60743 28.4997 6.60743Z" fill="white"/>
<path d="M61.8657 64.1371C62.1725 64.0146 62.0761 63.0509 61.6505 61.9844C61.2248 60.918 60.631 60.1528 60.3242 60.2753C60.0174 60.3977 60.1138 61.3615 60.5394 62.4279C60.9651 63.4943 61.5589 64.2596 61.8657 64.1371Z" fill="white"/>
</g>
<defs>
<clipPath id="clip0_478_5462">
<rect width="69" height="78.3342" fill="white"/>
</clipPath>
</defs>
</svg>
