<svg width="459" height="872" viewBox="0 0 459 872" fill="none" xmlns="http://www.w3.org/2000/svg">
<g clip-path="url(#clip0_4857_3506)">
<path d="M183.92 871.249C285.496 871.249 367.84 849.132 367.84 821.849C367.84 794.566 285.496 772.449 183.92 772.449C82.3438 772.449 0 794.566 0 821.849C0 849.132 82.3438 871.249 183.92 871.249Z" fill="#A7A9AC"/>
<path d="M458.35 284.77C457.88 282 446.35 218 390.35 186.28C430.52 140.81 425.51 87.3997 425.26 85.0297C424.97 82.2463 423.906 79.5996 422.19 77.3889C420.474 75.1782 418.174 73.4915 415.55 72.5197C399.153 67.0674 381.979 64.3149 364.7 64.3697C339.31 64.3697 316.31 70.3697 296.26 82.1697C276.97 24.6397 228.2 2.27971 226.03 1.30971C223.477 0.169391 220.655 -0.234496 217.885 0.143645C215.114 0.521785 212.504 1.66689 210.35 3.44971C208.19 5.24971 158.5 47.1997 159.06 111.59C150.014 109.761 140.809 108.836 131.58 108.83C86.36 108.83 55.22 131.03 53.92 131.98C51.6515 133.62 49.8874 135.862 48.827 138.453C47.7667 141.044 47.4525 143.88 47.92 146.64C48.39 149.41 59.87 213.41 115.92 245.13C75.76 290.6 80.77 343.98 81.02 346.38C81.3095 349.162 82.3713 351.808 84.0853 354.018C85.7994 356.229 88.0975 357.916 90.7199 358.89C107.121 364.34 124.297 367.092 141.58 367.04C161.73 367.04 180.39 363.27 197.25 355.8C195.62 443.85 185.11 541.74 173.59 624.99C167.35 599.12 157.35 574.22 142.35 552.64C78.71 461.44 43.94 363.71 43.6 362.74C42.5655 359.814 40.6491 357.281 38.1149 355.49C35.5806 353.699 32.5532 352.738 29.45 352.74C29.04 352.74 28.6199 352.74 28.2099 352.74C24.9026 353.013 21.7794 354.376 19.3293 356.614C16.8792 358.853 15.2405 361.84 14.67 365.11C14.43 366.46 8.97996 398.48 12.04 443.22C14.88 484.7 25.94 545.46 62.49 599.36C119.04 682.84 140.4 787.98 141.35 814.76C141.41 816.37 141.45 817.76 141.48 818.82C141.035 820.998 141.08 823.249 141.612 825.408C142.144 827.567 143.15 829.581 144.556 831.304C145.962 833.027 147.733 834.415 149.742 835.369C151.751 836.323 153.946 836.819 156.17 836.82H192.42C195.062 836.813 197.656 836.109 199.939 834.778C202.222 833.447 204.113 831.536 205.42 829.24C332.92 605.07 407.08 484.89 407.81 483.7C409.215 481.427 409.988 478.821 410.049 476.15C410.109 473.479 409.455 470.84 408.155 468.506C406.854 466.172 404.953 464.229 402.649 462.875C400.345 461.522 397.722 460.809 395.05 460.81C393.67 460.807 392.296 460.999 390.97 461.38C331.48 478.18 281.61 525.68 242.65 602.6C243.697 594.6 244.73 586.53 245.75 578.39C252.95 520.39 258 466.73 260.81 418.28C266.858 422.834 273.339 426.783 280.16 430.07C282.72 431.235 285.556 431.657 288.345 431.287C291.133 430.918 293.762 429.772 295.93 427.98C298.09 426.19 347.78 384.24 347.22 319.84C356.268 321.674 365.477 322.599 374.71 322.6C419.93 322.6 451.06 300.4 452.37 299.46C454.64 297.815 456.403 295.566 457.46 292.97C458.517 290.373 458.826 287.532 458.35 284.77Z" fill="#231F20"/>
<path d="M191.47 821.85H156.21C157.1 817.5 245.21 376.85 199.13 190.24L234.07 181.6C254.36 263.68 253.31 396.6 230.95 576.6C214.4 709.72 191.7 820.75 191.47 821.85Z" fill="#66BE64"/>
<g style="mix-blend-mode:multiply">
<path d="M234.07 181.6L199.13 190.24C210.94 237.98 213.94 302.48 211.86 371.98C220.983 387.153 232.603 400.676 246.23 411.98C251.62 313.39 247.58 236.24 234.07 181.6Z" fill="#4CA84E"/>
</g>
<path d="M62.71 144.12C62.71 144.12 110.52 109.45 172.41 130.74C237.36 153.07 253.14 215.74 253.14 215.74C253.14 215.74 192.41 268.07 126.74 233.98C73.26 206.13 62.71 144.12 62.71 144.12Z" fill="#FAF28C"/>
<path d="M197.84 242.65C230.45 235.23 253.14 215.7 253.14 215.7C253.14 215.7 237.36 153.07 172.41 130.7C110.52 109.41 62.72 144.08 62.72 144.08C62.72 144.08 195.67 138.98 197.84 242.65Z" fill="#EDD946"/>
<g style="mix-blend-mode:multiply">
<path d="M253.14 215.7C253.14 215.7 237.36 153.07 172.41 130.7C163.027 127.455 153.292 125.334 143.41 124.38C230.52 172.44 232.89 229.1 232.89 229.1C240.047 225.282 246.828 220.795 253.14 215.7Z" fill="#EFCC6B"/>
</g>
<path d="M95.94 344.82C95.94 344.82 89.81 286.09 139.19 243.13C191.01 198.05 253.19 215.7 253.19 215.7C253.19 215.7 268.19 294.48 205.77 334.28C154.91 366.69 95.94 344.82 95.94 344.82Z" fill="#FAF28C"/>
<path d="M248.82 277.07C258.7 245.07 253.14 215.7 253.14 215.7C253.14 215.7 191.01 198.05 139.19 243.13C89.81 286.13 95.94 344.82 95.94 344.82C95.94 344.82 157.93 227.1 248.82 277.07Z" fill="#EDD946"/>
<g style="mix-blend-mode:multiply">
<path d="M253.14 215.7C253.14 215.7 191.01 198.05 139.19 243.13C131.677 249.647 124.963 257.032 119.19 265.13C204.4 213.68 254.65 239.98 254.65 239.98C254.911 231.857 254.406 223.728 253.14 215.7Z" fill="#EFCC6B"/>
</g>
<path d="M286.35 416.409C286.35 416.409 232.42 392.339 219.91 328.099C206.77 260.679 253.13 215.699 253.13 215.699C253.13 215.699 328.84 242.109 332.13 316.059C334.78 376.269 286.35 416.409 286.35 416.409Z" fill="#FAF28C"/>
<path d="M304.12 250.119C281.39 225.589 253.12 215.699 253.12 215.699C253.12 215.699 206.76 260.699 219.9 328.099C232.41 392.339 286.34 416.399 286.34 416.399C286.34 416.399 215.4 303.849 304.12 250.119Z" fill="#EDD946"/>
<g style="mix-blend-mode:multiply">
<path d="M253.14 215.699C253.14 215.699 206.78 260.699 219.92 328.099C221.798 337.844 224.819 347.333 228.92 356.369C226.99 256.899 274.92 226.519 274.92 226.519C268.017 222.235 260.725 218.612 253.14 215.699Z" fill="#EFCC6B"/>
</g>
<path d="M443.56 287.279C443.56 287.279 395.76 321.949 333.86 300.669C268.86 278.339 253.14 215.669 253.14 215.669C253.14 215.669 313.87 163.309 379.54 197.449C433.01 225.279 443.56 287.279 443.56 287.279Z" fill="#FAF28C"/>
<path d="M308.44 188.76C275.82 196.18 253.14 215.7 253.14 215.7C253.14 215.7 268.91 278.34 333.86 300.7C395.76 321.99 443.56 287.31 443.56 287.31C443.56 287.31 310.61 292.46 308.44 188.76Z" fill="#EDD946"/>
<g style="mix-blend-mode:multiply">
<path d="M253.14 215.7C253.14 215.7 268.91 278.34 333.86 300.7C343.245 303.937 352.979 306.059 362.86 307.02C275.75 258.98 273.35 202.26 273.35 202.26C266.206 206.096 259.44 210.595 253.14 215.7Z" fill="#EFCC6B"/>
</g>
<path d="M410.35 86.5795C410.35 86.5795 416.47 145.32 367.09 188.28C315.28 233.359 253.15 215.7 253.15 215.7C253.15 215.7 238.15 136.98 300.55 97.1295C351.35 64.7195 410.35 86.5795 410.35 86.5795Z" fill="#FAF28C"/>
<path d="M257.45 154.34C247.57 186.34 253.14 215.7 253.14 215.7C253.14 215.7 315.27 233.36 367.08 188.28C416.46 145.28 410.34 86.5801 410.34 86.5801C410.34 86.5801 348.35 204.31 257.45 154.34Z" fill="#EDD946"/>
<g style="mix-blend-mode:multiply">
<path d="M253.14 215.699C253.14 215.699 315.27 233.359 367.08 188.279C374.59 181.76 381.303 174.375 387.08 166.279C301.9 217.689 251.64 191.409 251.64 191.409C251.368 199.535 251.87 207.669 253.14 215.699Z" fill="#EFCC6B"/>
</g>
<path d="M219.92 14.9795C219.92 14.9795 273.84 39.0495 286.36 103.289C299.49 170.709 253.14 215.68 253.14 215.68C253.14 215.68 177.42 189.279 174.14 115.329C171.49 55.1395 219.92 14.9795 219.92 14.9795Z" fill="#FAF28C"/>
<path d="M202.15 181.289C224.89 205.819 253.15 215.699 253.15 215.699C253.15 215.699 299.5 170.699 286.37 103.309C273.84 39.0695 219.92 14.9795 219.92 14.9795C219.92 14.9795 290.87 127.559 202.15 181.289Z" fill="#EDD946"/>
<g style="mix-blend-mode:multiply">
<path d="M253.14 215.699C253.14 215.699 299.49 170.699 286.36 103.309C284.484 93.5612 281.463 84.0688 277.36 75.0293C279.29 174.509 231.36 204.889 231.36 204.889C238.261 209.175 245.554 212.794 253.14 215.699Z" fill="#EFCC6B"/>
</g>
<path d="M270.05 86.5799C272.729 86.5799 274.9 84.4085 274.9 81.7299C274.9 79.0513 272.729 76.8799 270.05 76.8799C267.371 76.8799 265.2 79.0513 265.2 81.7299C265.2 84.4085 267.371 86.5799 270.05 86.5799Z" fill="white"/>
<path d="M408.92 244.2C411.963 244.2 414.43 241.733 414.43 238.69C414.43 235.647 411.963 233.18 408.92 233.18C405.877 233.18 403.41 235.647 403.41 238.69C403.41 241.733 405.877 244.2 408.92 244.2Z" fill="white"/>
<path d="M410.59 287.019C413.269 287.019 415.44 284.848 415.44 282.169C415.44 279.491 413.269 277.319 410.59 277.319C407.911 277.319 405.74 279.491 405.74 282.169C405.74 284.848 407.911 287.019 410.59 287.019Z" fill="white"/>
<path d="M358.02 115.349C360.698 115.349 362.87 113.178 362.87 110.499C362.87 107.821 360.698 105.649 358.02 105.649C355.341 105.649 353.17 107.821 353.17 110.499C353.17 113.178 355.341 115.349 358.02 115.349Z" fill="white"/>
<path d="M321.64 206.49C321.64 206.49 278.48 270.8 227.88 247.75C184.3 227.91 205.88 149.66 205.88 149.66L321.64 206.49Z" fill="#F8A33E"/>
<path d="M219.35 184.569C213.71 192.269 205.48 205.799 210.21 213.999C216.63 225.119 243.51 220.469 247.21 219.779C251.06 228.519 258.66 242.409 268.12 242.409C280.97 242.409 290.38 216.809 291.62 213.279C301.11 214.279 316.94 214.679 321.62 206.489C328.05 195.369 310.62 174.409 308.15 171.579C313.79 163.879 322.02 150.339 317.29 142.149C310.87 131.029 283.99 135.669 280.29 136.369C276.45 127.629 268.84 113.739 259.39 113.739C246.54 113.739 237.13 139.329 235.89 142.869C226.4 141.869 210.56 141.469 205.83 149.659C199.45 160.779 216.92 181.739 219.35 184.569Z" fill="#F68620"/>
<path d="M263.76 200.979C276.667 200.979 287.13 190.516 287.13 177.609C287.13 164.702 276.667 154.239 263.76 154.239C250.853 154.239 240.39 164.702 240.39 177.609C240.39 190.516 250.853 200.979 263.76 200.979Z" fill="#95281E"/>
<path d="M257.23 192.46C260.842 192.46 263.77 189.532 263.77 185.92C263.77 182.308 260.842 179.38 257.23 179.38C253.618 179.38 250.69 182.308 250.69 185.92C250.69 189.532 253.618 192.46 257.23 192.46Z" fill="white"/>
<path d="M271.86 172.83C274.605 172.83 276.83 170.605 276.83 167.86C276.83 165.115 274.605 162.89 271.86 162.89C269.115 162.89 266.89 165.115 266.89 167.86C266.89 170.605 269.115 172.83 271.86 172.83Z" fill="white"/>
<path d="M274.22 186.82C277.158 186.82 279.54 184.438 279.54 181.5C279.54 178.562 277.158 176.18 274.22 176.18C271.282 176.18 268.9 178.562 268.9 181.5C268.9 184.438 271.282 186.82 274.22 186.82Z" fill="white"/>
<path d="M254.36 173.059C257.039 173.059 259.21 170.888 259.21 168.209C259.21 165.531 257.039 163.359 254.36 163.359C251.681 163.359 249.51 165.531 249.51 168.209C249.51 170.888 251.681 173.059 254.36 173.059Z" fill="white"/>
<path d="M263.76 178.119C265.594 178.119 267.08 176.633 267.08 174.799C267.08 172.966 265.594 171.479 263.76 171.479C261.926 171.479 260.44 172.966 260.44 174.799C260.44 176.633 261.926 178.119 263.76 178.119Z" fill="white"/>
<path d="M258.898 80.0603C263.731 78.8751 265.782 70.3047 263.48 60.9179C261.178 51.5311 255.394 44.8825 250.561 46.0677C245.728 47.253 243.677 55.8234 245.979 65.2102C248.281 74.597 254.065 81.2456 258.898 80.0603Z" fill="white"/>
<path d="M372.75 103.719C382.415 103.719 390.25 99.6853 390.25 94.7092C390.25 89.7331 382.415 85.6992 372.75 85.6992C363.085 85.6992 355.25 89.7331 355.25 94.7092C355.25 99.6853 363.085 103.719 372.75 103.719Z" fill="white"/>
<path d="M428.159 278.704C433.54 275.598 433.984 266.294 429.152 257.924C424.319 249.554 416.04 245.287 410.659 248.394C405.278 251.5 404.834 260.804 409.666 269.174C414.499 277.544 422.778 281.811 428.159 278.704Z" fill="white"/>
<path d="M95.6901 567.23C47.0101 494.64 29.4101 367.71 29.4101 367.71C29.4101 367.71 7.75011 491.98 74.8601 590.98C132.57 676.09 155.26 783.98 156.38 814.23C166.7 694.23 136.24 627.69 95.6901 567.23Z" fill="#4CA84E"/>
<path d="M130.01 561.22C64.3499 467.13 29.4099 367.71 29.4099 367.71C29.4099 367.71 47.0099 494.64 95.6899 567.23C136.24 627.69 166.69 694.23 156.38 814.23C156.57 819.16 156.56 821.87 156.56 821.87C156.56 821.87 195.68 655.31 130.01 561.22Z" fill="#66BE64"/>
<path d="M395.13 475.84C228.7 522.84 192.46 821.84 192.46 821.84C289.35 533.71 395.13 475.84 395.13 475.84Z" fill="#66BE64"/>
<path d="M192.46 821.85C321.61 594.78 395.13 475.85 395.13 475.85C395.13 475.85 289.35 533.71 192.46 821.85Z" fill="#4CA84E"/>
<g style="mix-blend-mode:multiply">
<path d="M305.16 626.52C267.78 653.46 245.16 658.8 234.08 659.32C202.08 742.62 192.46 821.85 192.46 821.85C236.83 743.83 274.64 678.57 305.16 626.52Z" fill="#4CA84E"/>
</g>
<g style="mix-blend-mode:multiply">
<path d="M42.1001 522.979C49.7383 547.086 60.7689 569.982 74.8601 590.979C132.57 676.089 155.26 783.979 156.38 814.229C156.56 819.159 156.56 821.87 156.56 821.87C156.56 821.87 178.81 727.129 161.56 640.199C111.03 605.979 65.3501 552.439 42.1001 522.979Z" fill="#4CA84E"/>
</g>
</g>
<defs>
<clipPath id="clip0_4857_3506">
<rect width="458.57" height="871.25" fill="white"/>
</clipPath>
</defs>
</svg>
