<svg width="408" height="540" viewBox="0 0 408 540" fill="none" xmlns="http://www.w3.org/2000/svg">
<path d="M188.13 490.211C184.152 490.211 180.336 488.63 177.523 485.817C174.71 483.004 173.13 479.189 173.13 475.211V316.531C143.32 292.991 97.2399 244.471 80.7999 161.171C73.5899 124.621 72.8999 84.7605 78.7399 42.7005C79.0669 40.3467 79.9484 38.1043 81.312 36.158C82.6755 34.2116 84.482 32.6171 86.5825 31.5058C88.6831 30.3945 91.0177 29.7981 93.3939 29.7659C95.7701 29.7337 98.1199 30.2666 100.25 31.3205C103.35 32.8505 170.98 67.4406 203.4 172.271C236.91 44.6806 317.71 3.34055 321.33 1.56055C323.461 0.50639 325.813 -0.025987 328.19 0.00733237C330.568 0.0406517 332.903 0.638698 335.004 1.75217C337.105 2.86565 338.911 4.46266 340.274 6.41145C341.636 8.36023 342.516 10.605 342.84 12.9605C367.42 189.961 282.01 281.301 237.52 315.961V475.211C237.52 479.189 235.94 483.004 233.126 485.817C230.313 488.63 226.498 490.211 222.52 490.211H188.13Z" fill="#231F20"/>
<path d="M222.52 254.521H188.13V475.211H222.52V254.521Z" fill="#66BE64"/>
<path d="M204.9 319.821L327.99 14.9609C327.99 14.9609 192.88 81.8409 204.9 319.821Z" fill="#66BE64"/>
<path d="M327.99 14.9609L204.9 319.821C204.9 319.821 359.34 240.801 327.99 14.9609Z" fill="#4CA84E"/>
<g style="mix-blend-mode:multiply">
<path d="M214.37 190.7C206.37 226.7 202.37 269.44 204.9 319.82C204.9 319.82 300.14 271.08 325.9 140.82C291.42 212.96 214.37 190.7 214.37 190.7Z" fill="#4CA84E"/>
</g>
<path d="M204.64 319.781L93.6396 44.7812C93.6396 44.7812 215.49 105.061 204.64 319.781Z" fill="#66BE64"/>
<path d="M93.5901 44.7598L204.64 319.76C204.64 319.76 65.3101 248.49 93.5901 44.7598Z" fill="#4CA84E"/>
<g style="mix-blend-mode:multiply">
<path d="M196.1 203.28C203.29 235.79 206.94 274.28 204.64 319.78C204.64 319.78 118.72 275.78 95.52 158.26C126.58 223.33 196.1 203.28 196.1 203.28Z" fill="#4CA84E"/>
</g>
<path d="M157.411 151.603C163.965 149.366 166.164 138.429 162.322 127.176C158.48 115.923 150.053 108.615 143.498 110.853C136.944 113.09 134.745 124.027 138.587 135.28C142.429 146.533 150.856 153.841 157.411 151.603Z" fill="white"/>
<path d="M124.89 115.521C129.413 115.521 133.08 111.854 133.08 107.331C133.08 102.807 129.413 99.1406 124.89 99.1406C120.366 99.1406 116.7 102.807 116.7 107.331C116.7 111.854 120.366 115.521 124.89 115.521Z" fill="white"/>
</svg>
