<svg width="620" height="839" viewBox="0 0 620 839" fill="none" xmlns="http://www.w3.org/2000/svg">
<g clip-path="url(#clip0_4906_1376)">
<path d="M309.59 838.58C480.572 838.58 619.18 809.519 619.18 773.67C619.18 737.821 480.572 708.76 309.59 708.76C138.608 708.76 0 737.821 0 773.67C0 809.519 138.608 838.58 309.59 838.58Z" fill="#A7A9AC"/>
<path d="M161.71 785.59C158.902 785.59 156.125 784.998 153.56 783.853C150.996 782.708 148.701 781.036 146.826 778.946C144.95 776.855 143.536 774.393 142.676 771.72C141.815 769.047 141.527 766.222 141.83 763.43C141.83 763.32 141.96 762.18 142.12 760.24C142.12 759.74 142.2 759.24 142.24 758.63C142.46 755.63 142.76 750.93 142.92 745.22C142.92 744.22 142.97 743.22 142.99 742.11V740.49C142.99 739.41 142.99 738.3 142.99 737.16C142.99 732.23 142.87 727.4 142.63 722.8C142.49 720.24 142.31 717.72 142.09 715.3C141.98 714.05 141.86 712.8 141.72 711.54C141.58 710.28 141.44 709.06 141.28 707.82C141.12 706.58 140.95 705.36 140.76 704.14C140.67 703.54 140.57 702.94 140.47 702.33C140.27 701.13 140.05 699.95 139.82 698.77C139.71 698.19 139.6 697.62 139.47 697.04C138.706 693.274 137.704 689.56 136.47 685.92C136.31 685.45 136.14 684.98 135.97 684.52C135.339 682.818 134.622 681.149 133.82 679.52C133.28 678.43 132.71 677.41 132.13 676.52C130.56 674 128.86 671.36 126.96 668.46C125.34 665.99 123.78 663.66 122.29 661.46L122.05 661.1C120.41 658.65 118.85 656.31 117.36 654.03C116.36 652.43 115.36 650.87 114.36 649.32C113.36 647.77 112.36 646.06 111.46 644.52C110.46 642.8 109.56 641.17 108.7 639.52C106.853 636.025 105.204 632.43 103.76 628.75C103.01 626.82 102.32 624.85 101.69 622.89C100.69 619.89 99.9001 616.71 99.2201 613.5C97.2802 603.863 96.3618 594.049 96.4801 584.22V201.42C96.4245 193.866 96.936 186.318 98.0101 178.84C98.9477 172.35 100.515 165.966 102.69 159.78C103.04 158.78 103.39 157.85 103.76 156.9C104.48 155.05 105.28 153.18 106.12 151.35C106.52 150.48 106.94 149.59 107.38 148.72C108.21 147.04 109.11 145.32 110.06 143.6C111.01 141.88 111.86 140.43 112.89 138.72C113.8 137.21 114.77 135.66 115.89 133.97C117.89 130.82 120.03 127.63 122.09 124.55L122.28 124.26C125.42 119.56 128.67 114.69 132.18 109.08C134.215 105.666 135.833 102.02 137 98.22C138.365 93.9065 139.441 89.5068 140.22 85.05C140.427 83.8633 140.627 82.6633 140.82 81.45C141.7 75.76 142.32 69.45 142.69 62.79C142.93 58.19 143.06 53.36 143.05 48.43C143.05 33.43 141.86 22.25 141.85 22.14C141.55 19.3496 141.84 16.5272 142.702 13.8564C143.564 11.1855 144.979 8.72603 146.854 6.63779C148.729 4.54956 151.023 2.87934 153.586 1.73573C156.149 0.592115 158.924 0.000726945 161.73 5.6102e-09H529.16C531.906 -6.50347e-05 534.623 0.565391 537.141 1.66114C539.659 2.75689 541.924 4.35945 543.796 6.36897C545.668 8.3785 547.105 10.7519 548.02 13.3414C548.934 15.9308 549.305 18.6808 549.11 21.42C549.11 21.67 549.11 21.92 549.04 22.18C549.04 22.18 548.95 23.08 548.95 23.11L548.78 25.05C548.78 25.05 548.71 25.92 548.71 25.96C548.63 26.88 548.56 27.96 548.48 29.14L548.39 30.5C548.27 32.5 548.17 34.57 548.09 36.59V36.66C547.97 39.73 547.89 42.82 547.87 45.84C547.865 45.8765 547.865 45.9135 547.87 45.95C547.87 49.46 547.87 52.95 547.97 56.33V56.44C548.06 59.44 548.19 62.44 548.38 65.27V65.47C548.38 66.13 548.47 66.81 548.52 67.47V67.63C548.59 68.44 548.64 69.16 548.71 69.89C550.63 92.11 555.21 103.46 558.71 109.06C562.21 114.66 565.48 119.57 568.64 124.29C583.01 145.82 594.36 162.82 594.36 201.4V584.19C594.36 614.52 587.52 631.58 576.49 649.28C575.49 650.83 574.49 652.39 573.49 653.98C572.49 655.57 571.49 657.08 570.39 658.68L567.84 662.51C566.56 664.42 565.25 666.39 563.84 668.51C561.94 671.42 560.24 674.06 558.67 676.58C558.057 677.551 557.493 678.552 556.98 679.58C556.182 681.209 555.468 682.878 554.84 684.58C554.66 685.05 554.5 685.51 554.33 685.98C553.102 689.618 552.1 693.328 551.33 697.09C551.21 697.67 551.09 698.25 550.98 698.83C550.75 700.01 550.53 701.2 550.33 702.39C550.24 702.98 550.14 703.59 550.05 704.19C549.86 705.42 549.68 706.65 549.52 707.88C549.36 709.11 549.21 710.36 549.08 711.6C548.95 712.84 548.82 714.11 548.71 715.36V715.73C548.64 716.47 548.59 717.19 548.53 717.91V718.12C548.47 718.84 548.42 719.52 548.38 720.19V720.37C548.19 723.24 548.06 726.21 547.97 729.21V729.29C547.87 732.76 547.84 736.29 547.87 739.8V739.85C547.87 742.85 547.97 745.92 548.09 748.96C548.085 748.993 548.085 749.027 548.09 749.06C548.17 751.06 548.27 753.13 548.39 755.13C548.39 755.13 548.47 756.44 548.47 756.46L548.71 759.75L548.85 761.47L549.05 763.58C549.331 766.361 549.026 769.17 548.154 771.826C547.283 774.482 545.864 776.926 543.99 778.999C542.116 781.073 539.828 782.731 537.274 783.867C534.719 785.002 531.955 785.589 529.16 785.59H161.71Z" fill="#231F20"/>
<path d="M161.71 765.59C161.71 765.59 169.05 697.81 149.12 665.91C129.19 634.01 116.5 624.04 116.5 584.17V201.42C116.5 161.55 129.18 151.58 149.12 119.68C169.06 87.78 161.71 20 161.71 20H515.86C515.86 20 523.2 87.79 503.26 119.68C483.32 151.57 470.65 161.59 470.65 201.42V584.19C470.65 624.06 483.33 634.03 503.26 665.93C523.19 697.83 515.86 765.59 515.86 765.59H161.71Z" fill="#71A29E"/>
<path d="M183.7 665.93C163.76 634.03 151.09 624.06 151.09 584.19V201.42C151.09 161.55 163.76 151.58 183.7 119.68C203.64 87.78 196.3 20 196.3 20H161.71C161.71 20 169.05 87.79 149.12 119.68C129.19 151.57 116.5 161.59 116.5 201.42V584.19C116.5 624.06 129.18 634.03 149.12 665.93C169.06 697.83 161.71 765.59 161.71 765.59H196.3C196.3 765.59 203.64 697.83 183.7 665.93Z" fill="#587B75"/>
<path d="M529.16 765.59C529.16 765.59 521.82 697.81 541.76 665.91C561.7 634.01 574.37 624.04 574.37 584.17V201.42C574.37 161.55 561.69 151.58 541.76 119.68C521.83 87.78 529.16 20 529.16 20H175.01C175.01 20 167.67 87.79 187.61 119.68C207.55 151.57 220.22 161.55 220.22 201.42V584.19C220.22 624.06 207.55 634.03 187.61 665.93C167.67 697.83 175.01 765.59 175.01 765.59H529.16Z" fill="#C5E6DC"/>
<path d="M574.37 323.029H220.22V462.589H574.37V323.029Z" fill="#48BEA2"/>
<path d="M401.25 541.319C483.275 541.319 549.77 474.825 549.77 392.799C549.77 310.774 483.275 244.279 401.25 244.279C319.225 244.279 252.73 310.774 252.73 392.799C252.73 474.825 319.225 541.319 401.25 541.319Z" fill="#FAF28C"/>
<path d="M529.16 20H175.01C173.409 37.1709 173.281 54.4474 174.63 71.64H528.78C527.426 54.4476 527.553 37.1706 529.16 20Z" fill="#98CFC0"/>
<path d="M174.59 713.98C173.242 731.17 173.369 748.443 174.97 765.61H529.16C527.553 748.443 527.426 731.17 528.78 713.98H174.59Z" fill="#98CFC0"/>
<g style="mix-blend-mode:multiply">
<path d="M219.59 598.59C216.77 627.11 204.94 638.29 187.59 665.97C167.65 697.87 174.99 765.65 174.99 765.65H529.16C529.16 765.65 521.82 697.87 541.76 665.97C561.7 634.07 574.37 624.1 574.37 584.23V201.42C574.37 201.42 550.59 598.59 219.59 598.59Z" fill="#CEEAE2"/>
</g>
<path d="M523.96 593.2C543.185 593.2 558.77 577.615 558.77 558.39C558.77 539.165 543.185 523.58 523.96 523.58C504.735 523.58 489.15 539.165 489.15 558.39C489.15 577.615 504.735 593.2 523.96 593.2Z" fill="#E9F3F9"/>
<g style="mix-blend-mode:multiply">
<path d="M574.37 584.191V499.091L572.43 496.971C572.43 496.971 560.78 675.911 187.59 665.931C167.65 697.831 174.99 765.611 174.99 765.611H529.16C529.16 765.611 521.82 697.831 541.76 665.931C561.7 634.031 574.37 624.061 574.37 584.191Z" fill="#CEEAE2"/>
</g>
<path d="M290.12 304.62C307.186 304.62 321.02 290.786 321.02 273.72C321.02 256.655 307.186 242.82 290.12 242.82C273.054 242.82 259.22 256.655 259.22 273.72C259.22 290.786 273.054 304.62 290.12 304.62Z" fill="#E9F3F9"/>
<path d="M269.17 237.89C278.487 237.89 286.04 230.337 286.04 221.02C286.04 211.703 278.487 204.15 269.17 204.15C259.853 204.15 252.3 211.703 252.3 221.02C252.3 230.337 259.853 237.89 269.17 237.89Z" fill="#E9F3F9"/>
<path d="M287.52 146.86L287.8 146.67C288.471 146.193 289.24 145.872 290.05 145.73C291.05 145.73 292.05 146.61 293.2 148.36C293.763 149.149 294.108 150.074 294.2 151.04C294.207 151.336 294.154 151.63 294.044 151.905C293.934 152.18 293.769 152.43 293.56 152.64C292.992 153.192 292.353 153.667 291.66 154.05C291.38 154.243 290.98 154.493 290.46 154.8C289.448 155.314 288.386 155.723 287.29 156.02C285.739 156.52 284.12 156.777 282.49 156.78C281.024 156.766 279.566 156.567 278.15 156.19C276.5 155.74 274.918 155.067 273.45 154.19C271.844 153.279 270.379 152.141 269.1 150.81C267.719 149.327 266.641 147.587 265.93 145.69C265.081 143.51 264.656 141.189 264.68 138.85C264.653 136.591 265.068 134.349 265.9 132.25C266.616 130.417 267.679 128.74 269.03 127.31C270.308 126.002 271.774 124.893 273.38 124.02C274.884 123.182 276.486 122.534 278.15 122.09C279.614 121.712 281.118 121.517 282.63 121.51C284.152 121.513 285.665 121.742 287.12 122.19C288.328 122.517 289.493 122.987 290.59 123.59L291.72 124.25C292.28 124.603 292.71 124.893 293.01 125.12C293.344 125.403 293.628 125.741 293.85 126.12C294.113 126.506 294.253 126.963 294.25 127.43C294.196 128.361 293.845 129.251 293.25 129.97C292.03 131.66 290.93 132.51 289.96 132.51C289.086 132.394 288.258 132.049 287.56 131.51C286.044 130.387 284.184 129.825 282.3 129.92C281.277 129.929 280.262 130.112 279.3 130.46C278.229 130.834 277.218 131.363 276.3 132.03C275.288 132.795 274.475 133.793 273.93 134.94C273.311 136.273 272.99 137.725 272.99 139.195C272.99 140.665 273.311 142.117 273.93 143.45C274.483 144.608 275.306 145.616 276.33 146.39C277.243 147.065 278.255 147.594 279.33 147.96C280.294 148.299 281.308 148.474 282.33 148.48C283.26 148.488 284.187 148.36 285.08 148.1C285.729 147.939 286.352 147.687 286.93 147.35L287.52 146.86Z" fill="#115E49"/>
<path d="M316.59 131.59C317.383 131.565 318.175 131.66 318.94 131.87C319.206 131.941 319.454 132.067 319.669 132.239C319.885 132.411 320.062 132.626 320.19 132.87C320.394 133.259 320.535 133.677 320.61 134.11C320.667 134.648 320.691 135.189 320.68 135.73V152.18C320.691 152.721 320.667 153.262 320.61 153.8C320.538 154.23 320.396 154.645 320.19 155.03C320.062 155.274 319.885 155.488 319.669 155.66C319.454 155.832 319.206 155.958 318.94 156.03C318.159 156.242 317.35 156.337 316.54 156.31C315.5 156.402 314.455 156.183 313.54 155.68C313.249 155.46 313.009 155.18 312.837 154.859C312.664 154.538 312.563 154.184 312.54 153.82C311.38 155.48 309.5 156.31 306.9 156.31C305.425 156.274 303.975 155.925 302.645 155.285C301.316 154.646 300.138 153.73 299.19 152.6C296.929 150.272 295.678 147.145 295.71 143.9C295.704 142.317 296.01 140.748 296.613 139.284C297.215 137.82 298.101 136.49 299.22 135.37C300.169 134.249 301.343 133.342 302.667 132.706C303.99 132.07 305.432 131.72 306.9 131.68C307.899 131.667 308.89 131.861 309.81 132.25C310.478 132.498 311.1 132.856 311.65 133.31C311.963 133.614 312.245 133.949 312.49 134.31C312.504 133.924 312.6 133.546 312.772 133.201C312.945 132.856 313.19 132.552 313.49 132.31C314.425 131.758 315.507 131.507 316.59 131.59ZM308.18 148.04C308.717 148.047 309.25 147.937 309.74 147.718C310.23 147.498 310.667 147.175 311.02 146.77C311.751 146.012 312.163 145.003 312.17 143.95C312.157 142.908 311.766 141.905 311.07 141.13C310.705 140.694 310.245 140.347 309.725 140.118C309.204 139.889 308.638 139.784 308.07 139.81C307.503 139.791 306.939 139.899 306.42 140.128C305.9 140.356 305.439 140.699 305.07 141.13C304.341 141.909 303.93 142.933 303.92 144C303.927 144.523 304.038 145.039 304.247 145.518C304.457 145.998 304.76 146.43 305.14 146.79C305.533 147.185 306.003 147.496 306.521 147.702C307.038 147.909 307.593 148.007 308.15 147.99L308.18 148.04Z" fill="#115E49"/>
<path d="M343.3 134.45C343.31 135.772 343.005 137.078 342.41 138.26C342.208 138.781 341.854 139.229 341.394 139.546C340.934 139.864 340.389 140.035 339.83 140.04C339.269 140.043 338.714 139.917 338.21 139.67C337.719 139.425 337.179 139.295 336.63 139.29C335.607 139.244 334.6 139.563 333.79 140.19C333.447 140.436 333.168 140.761 332.975 141.136C332.782 141.512 332.681 141.927 332.68 142.35V152.22C332.69 152.761 332.667 153.302 332.61 153.84C332.544 154.273 332.391 154.688 332.16 155.06C332.031 155.304 331.852 155.52 331.635 155.692C331.418 155.864 331.168 155.989 330.9 156.06C330.119 156.275 329.31 156.373 328.5 156.35C327.825 156.363 327.152 156.282 326.5 156.11C326.061 156.004 325.646 155.814 325.28 155.55C324.981 155.285 324.769 154.936 324.67 154.55C324.545 154.201 324.465 153.838 324.43 153.47C324.43 153.18 324.43 152.73 324.43 152.13V135.59C324.42 135.045 324.443 134.501 324.5 133.96C324.575 133.533 324.717 133.122 324.92 132.74C325.048 132.496 325.225 132.281 325.441 132.109C325.656 131.937 325.904 131.811 326.17 131.74C326.965 131.57 327.78 131.519 328.59 131.59C329.366 131.567 330.142 131.662 330.89 131.87C331.369 131.987 331.797 132.258 332.11 132.64C332.29 132.896 332.435 133.175 332.54 133.47C332.603 133.715 332.633 133.967 332.63 134.22C332.838 133.937 333.065 133.67 333.31 133.42C333.885 132.915 334.524 132.488 335.21 132.15C336.125 131.63 337.158 131.354 338.21 131.35C338.699 131.351 339.187 131.391 339.67 131.47C340.229 131.562 340.781 131.696 341.32 131.87C341.897 132.057 342.41 132.404 342.8 132.87C343.143 133.323 343.319 133.881 343.3 134.45Z" fill="#115E49"/>
<path d="M359.66 131.589C361.15 131.566 362.627 131.877 363.981 132.498C365.336 133.119 366.535 134.035 367.49 135.179C369.584 137.613 370.696 140.74 370.61 143.949V152.219C370.62 152.76 370.597 153.301 370.54 153.839C370.468 154.266 370.326 154.678 370.12 155.059C369.992 155.303 369.814 155.518 369.599 155.69C369.384 155.862 369.136 155.988 368.87 156.059C368.092 156.271 367.286 156.366 366.48 156.339C365.805 156.353 365.132 156.272 364.48 156.099C364.044 155.993 363.631 155.81 363.26 155.559C362.943 155.306 362.721 154.954 362.63 154.559C362.509 154.21 362.429 153.847 362.39 153.479C362.39 153.199 362.39 152.759 362.39 152.159V143.889C362.423 143.34 362.342 142.791 362.153 142.275C361.963 141.759 361.67 141.287 361.29 140.889C360.451 140.174 359.383 139.786 358.281 139.795C357.179 139.804 356.117 140.21 355.29 140.939C354.9 141.332 354.595 141.801 354.395 142.318C354.195 142.834 354.105 143.386 354.13 143.939V152.259C354.14 152.8 354.117 153.341 354.06 153.879C353.997 154.309 353.855 154.722 353.64 155.099C353.513 155.342 353.337 155.556 353.124 155.728C352.911 155.9 352.664 156.026 352.4 156.099C351.618 156.31 350.809 156.405 350 156.379C349.207 156.404 348.415 156.309 347.65 156.099C347.384 156.028 347.136 155.902 346.921 155.73C346.705 155.558 346.528 155.343 346.4 155.099C346.195 154.708 346.053 154.286 345.98 153.849C345.923 153.311 345.899 152.77 345.91 152.229V135.489C345.9 134.962 345.924 134.434 345.98 133.909C346.054 133.485 346.206 133.078 346.43 132.709C346.569 132.481 346.752 132.283 346.968 132.127C347.184 131.971 347.43 131.859 347.69 131.799C348.46 131.602 349.255 131.514 350.05 131.539C350.826 131.517 351.602 131.611 352.35 131.819C352.841 131.938 353.274 132.229 353.57 132.639C353.754 132.921 353.889 133.232 353.97 133.559C354.025 133.89 354.048 134.224 354.04 134.559C354.116 134.441 354.203 134.331 354.3 134.229C354.41 134.099 354.64 133.869 355 133.519C355.359 133.18 355.747 132.872 356.16 132.599C356.653 132.298 357.18 132.056 357.73 131.879C358.353 131.678 359.005 131.58 359.66 131.589Z" fill="#115E49"/>
<path d="M378.46 128.2C377.667 128.225 376.875 128.13 376.11 127.92C375.844 127.849 375.596 127.723 375.381 127.551C375.166 127.379 374.988 127.164 374.86 126.92C374.656 126.531 374.515 126.113 374.44 125.68C374.347 124.599 374.347 123.512 374.44 122.43C374.513 122.004 374.655 121.592 374.86 121.21C374.988 120.966 375.166 120.752 375.381 120.58C375.596 120.408 375.844 120.282 376.11 120.21C376.892 119.998 377.701 119.903 378.51 119.93C379.303 119.907 380.095 120.001 380.86 120.21C381.124 120.283 381.371 120.409 381.584 120.581C381.797 120.753 381.973 120.968 382.1 121.21C382.312 121.6 382.457 122.023 382.53 122.46C382.623 123.538 382.623 124.622 382.53 125.7C382.459 126.129 382.313 126.542 382.1 126.92C381.973 127.163 381.797 127.377 381.584 127.549C381.371 127.721 381.124 127.847 380.86 127.92C380.078 128.131 379.269 128.226 378.46 128.2ZM374.37 135.67C374.36 135.129 374.383 134.588 374.44 134.05C374.512 133.623 374.654 133.211 374.86 132.83C374.988 132.586 375.166 132.372 375.381 132.2C375.596 132.028 375.844 131.902 376.11 131.83C376.891 131.614 377.7 131.516 378.51 131.54C379.185 131.525 379.858 131.606 380.51 131.78C380.952 131.886 381.37 132.076 381.74 132.34C382.035 132.608 382.247 132.955 382.35 133.34C382.476 133.688 382.554 134.051 382.58 134.42C382.58 134.72 382.58 135.16 382.58 135.76V152.21C382.585 152.751 382.562 153.292 382.51 153.83C382.439 154.259 382.293 154.672 382.08 155.05C381.956 155.296 381.782 155.512 381.568 155.684C381.354 155.857 381.106 155.981 380.84 156.05C380.059 156.265 379.25 156.363 378.44 156.34C377.647 156.362 376.854 156.265 376.09 156.05C375.824 155.979 375.576 155.853 375.361 155.681C375.145 155.509 374.968 155.294 374.84 155.05C374.64 154.667 374.498 154.256 374.42 153.83C374.362 153.282 374.339 152.731 374.35 152.18L374.37 135.67Z" fill="#115E49"/>
<path d="M411.31 132.1C412.94 133.1 413.76 134.1 413.76 135.2C413.656 136.125 413.334 137.013 412.82 137.79L403.09 154.47C402.96 154.676 402.816 154.873 402.66 155.06C402.315 155.428 401.913 155.738 401.47 155.98C400.911 156.351 400.261 156.562 399.59 156.59C398.892 156.604 398.203 156.435 397.59 156.1C397.094 155.862 396.654 155.521 396.3 155.1L395.88 154.58L386.1 137.85C385.571 137.099 385.247 136.224 385.16 135.31C385.16 134.18 385.98 133.13 387.6 132.16C388.46 131.595 389.446 131.252 390.47 131.16C390.763 131.147 391.055 131.196 391.328 131.305C391.6 131.414 391.846 131.579 392.05 131.79C392.544 132.371 392.96 133.013 393.29 133.7L399.45 145.54L405.59 133.59C405.94 132.99 406.2 132.59 406.37 132.29C406.595 131.977 406.872 131.707 407.19 131.49C407.562 131.229 408.006 131.089 408.46 131.09C409.483 131.167 410.467 131.515 411.31 132.1Z" fill="#115E49"/>
<path d="M427.1 130.969C430.486 130.945 433.744 132.257 436.17 134.619C438.3 136.692 439.651 139.437 439.993 142.39C440.336 145.343 439.649 148.323 438.05 150.829C436.841 152.73 435.145 154.273 433.14 155.299C431.298 156.231 429.264 156.721 427.2 156.729C425.082 156.724 422.997 156.199 421.13 155.199C419.138 154.135 417.449 152.583 416.22 150.689C414.887 148.696 414.19 146.346 414.22 143.949C414.17 142.205 414.496 140.471 415.176 138.865C415.856 137.258 416.873 135.817 418.16 134.639C420.547 132.296 423.755 130.979 427.1 130.969ZM424.1 147.309C424.946 148.012 426.001 148.416 427.1 148.459C428.239 148.424 429.334 148.008 430.21 147.279C430.69 146.844 431.076 146.314 431.342 145.723C431.609 145.132 431.751 144.492 431.759 143.844C431.768 143.195 431.643 142.552 431.391 141.954C431.14 141.357 430.769 140.817 430.3 140.369C429.379 139.637 428.236 139.242 427.06 139.249C425.935 139.27 424.852 139.684 424 140.419C423.506 140.837 423.117 141.365 422.863 141.961C422.61 142.556 422.499 143.203 422.54 143.849C422.494 144.505 422.607 145.162 422.87 145.765C423.133 146.367 423.538 146.897 424.05 147.309H424.1Z" fill="#115E49"/>
<path d="M462.02 134.451C462.03 135.773 461.724 137.079 461.13 138.261C460.928 138.782 460.574 139.23 460.114 139.547C459.654 139.865 459.109 140.037 458.55 140.041C457.986 140.043 457.428 139.917 456.92 139.671C456.433 139.425 455.895 139.295 455.35 139.291C454.327 139.245 453.32 139.564 452.51 140.191C452.167 140.437 451.888 140.762 451.695 141.137C451.502 141.513 451.401 141.929 451.4 142.351V152.221C451.41 152.762 451.387 153.303 451.33 153.841C451.26 154.273 451.107 154.687 450.88 155.061C450.751 155.306 450.572 155.521 450.355 155.693C450.138 155.865 449.888 155.99 449.62 156.061C448.839 156.276 448.03 156.374 447.22 156.351C446.545 156.364 445.872 156.283 445.22 156.111C444.78 156.007 444.365 155.817 444 155.551C443.701 155.286 443.489 154.937 443.39 154.551C443.265 154.202 443.185 153.839 443.15 153.471C443.15 153.181 443.15 152.731 443.15 152.131V135.591C443.14 135.046 443.163 134.502 443.22 133.961C443.295 133.534 443.437 133.123 443.64 132.741C443.768 132.497 443.945 132.282 444.161 132.11C444.376 131.938 444.624 131.812 444.89 131.741C445.671 131.528 446.48 131.434 447.29 131.461C448.066 131.438 448.842 131.533 449.59 131.741C450.069 131.859 450.497 132.129 450.81 132.511C450.991 132.764 451.133 133.044 451.23 133.341C451.301 133.584 451.335 133.837 451.33 134.091C451.535 133.806 451.762 133.539 452.01 133.291C452.585 132.786 453.224 132.359 453.91 132.021C454.825 131.501 455.858 131.226 456.91 131.221C457.399 131.222 457.887 131.262 458.37 131.341C458.929 131.433 459.481 131.567 460.02 131.741C460.596 131.931 461.108 132.277 461.5 132.741C461.88 133.226 462.065 133.836 462.02 134.451Z" fill="#115E49"/>
<path d="M475.37 130.969C478.756 130.945 482.015 132.257 484.44 134.619C486.557 136.7 487.898 139.443 488.24 142.392C488.582 145.341 487.905 148.319 486.32 150.829C485.108 152.727 483.414 154.27 481.41 155.299C479.568 156.23 477.534 156.719 475.47 156.729C473.352 156.725 471.267 156.2 469.4 155.199C467.408 154.135 465.719 152.583 464.49 150.689C463.158 148.696 462.461 146.346 462.49 143.949C462.448 142.201 462.784 140.464 463.474 138.858C464.164 137.251 465.193 135.812 466.49 134.639C468.861 132.309 472.046 130.993 475.37 130.969ZM472.37 147.309C473.218 148.06 474.312 148.474 475.445 148.474C476.578 148.474 477.672 148.06 478.52 147.309C479 146.873 479.385 146.344 479.651 145.753C479.918 145.163 480.06 144.524 480.07 143.876C480.079 143.228 479.955 142.585 479.706 141.987C479.457 141.389 479.087 140.848 478.62 140.399C477.695 139.667 476.549 139.272 475.37 139.279C474.248 139.301 473.169 139.715 472.32 140.449C471.826 140.867 471.437 141.395 471.183 141.991C470.93 142.586 470.819 143.233 470.86 143.879C470.813 144.526 470.92 145.174 471.174 145.771C471.428 146.368 471.821 146.895 472.32 147.309H472.37Z" fill="#115E49"/>
<path d="M502.4 156.21C500.901 156.24 499.415 155.933 498.051 155.312C496.687 154.691 495.48 153.771 494.52 152.62C492.426 150.186 491.314 147.059 491.4 143.85V135.59C491.388 135.039 491.412 134.488 491.47 133.94C491.548 133.514 491.69 133.103 491.89 132.72C492.018 132.476 492.196 132.261 492.411 132.089C492.626 131.917 492.874 131.791 493.14 131.72C493.918 131.508 494.724 131.414 495.53 131.44C496.205 131.426 496.878 131.507 497.53 131.68C497.968 131.788 498.382 131.978 498.75 132.24C499.056 132.502 499.276 132.851 499.38 133.24C499.503 133.589 499.583 133.952 499.62 134.32C499.62 134.62 499.62 135.07 499.62 135.66V143.89C499.587 144.439 499.668 144.988 499.857 145.504C500.047 146.021 500.34 146.492 500.72 146.89C501.559 147.605 502.627 147.993 503.729 147.984C504.831 147.975 505.893 147.569 506.72 146.84C507.11 146.447 507.415 145.978 507.615 145.462C507.815 144.945 507.905 144.393 507.88 143.84V135.59C507.87 135.049 507.893 134.508 507.95 133.97C508.013 133.541 508.155 133.127 508.37 132.75C508.497 132.507 508.673 132.293 508.886 132.121C509.099 131.949 509.346 131.823 509.61 131.75C510.392 131.539 511.201 131.444 512.01 131.47C512.803 131.445 513.595 131.54 514.36 131.75C514.626 131.821 514.874 131.947 515.089 132.119C515.304 132.291 515.482 132.506 515.61 132.75C515.812 133.139 515.954 133.558 516.03 133.99C516.087 134.531 516.11 135.076 516.1 135.62V152.25C516.11 152.777 516.086 153.305 516.03 153.83C515.956 154.254 515.804 154.661 515.58 155.03C515.295 155.497 514.84 155.834 514.31 155.97C513.545 156.181 512.753 156.275 511.96 156.25C511.184 156.272 510.408 156.178 509.66 155.97C509.159 155.854 508.722 155.549 508.44 155.12C508.256 154.83 508.121 154.513 508.04 154.18C507.985 153.849 507.962 153.515 507.97 153.18C507.894 153.298 507.807 153.408 507.71 153.51C507.6 153.64 507.37 153.87 507.01 154.22C506.651 154.557 506.263 154.862 505.85 155.13C505.366 155.437 504.845 155.683 504.3 155.86C503.691 156.083 503.049 156.201 502.4 156.21Z" fill="#115E49"/>
<path d="M529 156.73C525.833 156.728 522.733 155.815 520.07 154.1C519.786 153.931 519.552 153.689 519.393 153.399C519.235 153.108 519.158 152.781 519.17 152.45C519.17 151.54 519.77 150.26 520.96 148.6C521.133 148.338 521.372 148.126 521.653 147.986C521.934 147.845 522.247 147.781 522.56 147.8C523.586 147.872 524.573 148.217 525.42 148.8C526.594 149.556 527.938 150.006 529.33 150.11C531.24 150.11 532.19 149.74 532.19 148.98C532.19 148.67 531.9 148.41 531.3 148.19C530.568 147.934 529.81 147.76 529.04 147.67C528.038 147.519 527.055 147.257 526.11 146.89C525.086 146.511 524.101 146.032 523.17 145.46C522.181 144.805 521.397 143.882 520.91 142.8C520.288 141.454 519.983 139.983 520.02 138.5C520.02 133.553 523.42 131.08 530.22 131.08C532.595 131.113 534.935 131.659 537.08 132.68C538.18 133.18 538.73 133.87 538.73 134.74C538.623 135.659 538.279 136.535 537.73 137.28C537.01 138.41 536.29 138.97 535.57 138.97C535.01 138.924 534.466 138.764 533.97 138.5C532.783 137.916 531.483 137.595 530.16 137.56C528.31 137.56 527.39 137.91 527.39 138.56C527.407 138.829 527.504 139.086 527.668 139.3C527.832 139.513 528.055 139.674 528.31 139.76C529.039 140.087 529.815 140.293 530.61 140.37C531.626 140.497 532.629 140.708 533.61 141C534.639 141.302 535.643 141.687 536.61 142.15C537.595 142.667 538.398 143.473 538.91 144.46C539.559 145.691 539.876 147.069 539.83 148.46C539.878 149.931 539.562 151.391 538.91 152.71C538.345 153.812 537.441 154.703 536.33 155.25C535.257 155.784 534.117 156.171 532.94 156.4C531.64 156.635 530.321 156.745 529 156.73Z" fill="#115E49"/>
<path d="M368.47 185.21C369.303 186.94 369.72 188.841 369.69 190.76C369.721 192.67 369.303 194.561 368.47 196.28C367.751 197.813 366.683 199.156 365.35 200.2C364.139 201.146 362.79 201.901 361.35 202.44C360.042 202.933 358.658 203.194 357.26 203.21H351.38V208.52C351.39 209.064 351.367 209.609 351.31 210.15C351.241 210.587 351.092 211.008 350.87 211.39C350.735 211.633 350.554 211.846 350.336 212.018C350.118 212.19 349.868 212.316 349.6 212.39C348.818 212.601 348.009 212.696 347.2 212.67C346.525 212.685 345.852 212.604 345.2 212.43C344.762 212.322 344.348 212.132 343.98 211.87C343.67 211.609 343.447 211.261 343.34 210.87C343.215 210.522 343.138 210.159 343.11 209.79C343.11 209.49 343.11 209.04 343.11 208.45V182.39C343.102 181.849 343.129 181.308 343.19 180.77C343.257 180.333 343.407 179.912 343.63 179.53C343.763 179.286 343.944 179.072 344.162 178.9C344.381 178.728 344.632 178.602 344.9 178.53C345.682 178.319 346.491 178.225 347.3 178.25H357.29C358.679 178.261 360.054 178.522 361.35 179.02C362.787 179.56 364.135 180.312 365.35 181.25C366.684 182.309 367.753 183.665 368.47 185.21ZM361.47 190.71C361.506 190.125 361.402 189.54 361.165 189.005C360.929 188.469 360.567 187.997 360.11 187.63C359.316 186.97 358.323 186.596 357.29 186.57H351.41V194.89H357.34C358.349 194.874 359.323 194.522 360.11 193.89C360.57 193.506 360.929 193.016 361.157 192.462C361.385 191.908 361.475 191.307 361.42 190.71H361.47Z" fill="#115E49"/>
<path d="M372.75 180.42C372.74 179.879 372.763 179.338 372.82 178.8C372.894 178.364 373.036 177.943 373.24 177.55C373.368 177.306 373.545 177.092 373.761 176.92C373.976 176.748 374.224 176.622 374.49 176.55C375.269 176.343 376.074 176.249 376.88 176.27C377.669 176.242 378.456 176.346 379.21 176.58C379.739 176.742 380.186 177.1 380.46 177.58C380.687 177.964 380.836 178.389 380.9 178.83C380.956 179.375 380.98 179.923 380.97 180.47V202.24C380.904 202.963 381.004 203.691 381.26 204.37C381.44 204.67 381.96 204.82 382.81 204.82C383.145 204.809 383.48 204.832 383.81 204.89C384.108 204.974 384.389 205.11 384.64 205.29C385.009 205.572 385.259 205.983 385.34 206.44C385.497 207.159 385.568 207.895 385.55 208.63C385.567 209.419 385.497 210.207 385.34 210.98C385.267 211.466 385.018 211.907 384.64 212.22C384.388 212.419 384.099 212.565 383.79 212.65C383.459 212.701 383.125 212.724 382.79 212.72C381.454 212.733 380.119 212.67 378.79 212.53C377.832 212.413 376.893 212.167 376 211.8C375.185 211.481 374.503 210.891 374.07 210.13C373.586 209.233 373.248 208.264 373.07 207.26C372.825 205.787 372.714 204.294 372.74 202.8L372.75 180.42Z" fill="#115E49"/>
<path d="M408.28 187.94C409.073 187.916 409.865 188.011 410.63 188.22C410.896 188.292 411.144 188.417 411.359 188.589C411.575 188.761 411.752 188.976 411.88 189.22C412.084 189.609 412.225 190.027 412.3 190.46C412.357 190.998 412.38 191.539 412.37 192.08V208.53C412.38 209.074 412.357 209.619 412.3 210.16C412.227 210.587 412.085 210.999 411.88 211.38C411.752 211.624 411.575 211.838 411.359 212.01C411.144 212.182 410.896 212.308 410.63 212.38C409.848 212.592 409.039 212.686 408.23 212.66C407.19 212.752 406.145 212.533 405.23 212.03C404.939 211.811 404.698 211.531 404.526 211.21C404.353 210.889 404.252 210.534 404.23 210.17C403.077 211.783 401.197 212.59 398.59 212.59C397.115 212.554 395.665 212.205 394.335 211.565C393.006 210.926 391.828 210.01 390.88 208.88C388.618 206.552 387.368 203.425 387.4 200.18C387.392 198.598 387.697 197.029 388.298 195.565C388.899 194.101 389.783 192.771 390.9 191.65C391.853 190.535 393.031 189.632 394.356 189.002C395.681 188.371 397.123 188.026 398.59 187.99C399.588 187.975 400.579 188.165 401.5 188.55C402.166 188.795 402.786 189.154 403.33 189.61C403.646 189.914 403.931 190.249 404.18 190.61C404.194 190.224 404.29 189.846 404.462 189.501C404.635 189.156 404.88 188.852 405.18 188.61C406.121 188.075 407.203 187.842 408.28 187.94ZM399.87 204.39C400.407 204.397 400.94 204.287 401.43 204.068C401.92 203.849 402.357 203.525 402.71 203.12C403.441 202.362 403.853 201.353 403.86 200.3C403.843 199.259 403.452 198.258 402.76 197.48C402.395 197.044 401.934 196.699 401.414 196.47C400.894 196.241 400.328 196.135 399.76 196.16C399.193 196.14 398.629 196.248 398.109 196.477C397.59 196.705 397.128 197.048 396.76 197.48C396.031 198.259 395.62 199.283 395.61 200.35C395.614 200.873 395.724 201.39 395.934 201.87C396.144 202.349 396.449 202.782 396.83 203.14C397.221 203.549 397.694 203.872 398.218 204.087C398.741 204.302 399.304 204.406 399.87 204.39Z" fill="#115E49"/>
<path d="M429.9 187.94C431.39 187.917 432.867 188.227 434.221 188.848C435.576 189.469 436.775 190.385 437.73 191.53C439.823 193.964 440.936 197.09 440.85 200.299V208.59C440.86 209.13 440.837 209.671 440.78 210.209C440.708 210.636 440.566 211.049 440.36 211.429C440.232 211.673 440.054 211.888 439.839 212.06C439.624 212.232 439.376 212.358 439.11 212.429C438.328 212.642 437.519 212.736 436.71 212.709C436.035 212.723 435.362 212.643 434.71 212.47C434.274 212.363 433.861 212.18 433.49 211.929C433.173 211.677 432.951 211.324 432.86 210.929C432.739 210.58 432.659 210.217 432.62 209.85C432.62 209.57 432.62 209.13 432.62 208.53V200.26C432.651 199.71 432.569 199.16 432.378 198.644C432.187 198.127 431.891 197.656 431.51 197.26C431.108 196.887 430.636 196.599 430.12 196.414C429.605 196.228 429.057 196.148 428.51 196.179C427.96 196.157 427.411 196.246 426.895 196.44C426.38 196.634 425.909 196.93 425.51 197.31C425.121 197.703 424.818 198.173 424.621 198.689C424.423 199.205 424.334 199.757 424.36 200.31V208.59C424.37 209.13 424.347 209.671 424.29 210.209C424.227 210.639 424.085 211.053 423.87 211.429C423.743 211.672 423.567 211.886 423.354 212.058C423.14 212.23 422.894 212.357 422.63 212.429C421.848 212.641 421.039 212.735 420.23 212.709C419.437 212.734 418.645 212.64 417.88 212.429C417.614 212.358 417.366 212.232 417.151 212.06C416.935 211.888 416.758 211.673 416.63 211.429C416.426 211.041 416.285 210.622 416.21 210.19C416.153 209.648 416.13 209.104 416.14 208.56V191.889C416.13 191.362 416.154 190.834 416.21 190.31C416.284 189.885 416.436 189.478 416.66 189.109C416.799 188.881 416.982 188.683 417.198 188.527C417.414 188.371 417.66 188.259 417.92 188.199C418.687 188.003 419.478 187.915 420.27 187.94C421.05 187.917 421.828 188.011 422.58 188.22C423.071 188.339 423.504 188.629 423.8 189.04C423.984 189.322 424.119 189.633 424.2 189.959C424.255 190.29 424.278 190.625 424.27 190.959C424.346 190.841 424.433 190.731 424.53 190.63C424.64 190.5 424.87 190.269 425.23 189.919C425.588 189.582 425.972 189.275 426.38 189C426.877 188.7 427.407 188.458 427.96 188.28C428.583 188.06 429.239 187.945 429.9 187.94Z" fill="#115E49"/>
<path d="M458.52 196.259L455.52 196.069V202.589C455.468 203.229 455.608 203.869 455.92 204.429C456.095 204.632 456.316 204.789 456.565 204.887C456.815 204.985 457.084 205.02 457.35 204.989C458.13 204.989 458.72 204.989 459.11 205.059C459.544 205.123 459.961 205.269 460.34 205.489C460.55 205.606 460.735 205.764 460.885 205.953C461.034 206.141 461.144 206.358 461.21 206.589C461.383 207.265 461.46 207.962 461.44 208.659C461.466 209.454 461.361 210.248 461.13 211.009C461.057 211.274 460.931 211.52 460.759 211.733C460.587 211.946 460.373 212.122 460.13 212.249C459.743 212.46 459.324 212.605 458.89 212.679C458.365 212.731 457.838 212.754 457.31 212.749C454.06 212.749 451.58 212.009 449.89 210.539C448.2 209.069 447.35 206.539 447.35 203.069V196.069C446.791 196.158 446.226 196.205 445.66 196.209C445.288 196.239 444.913 196.183 444.566 196.044C444.219 195.905 443.909 195.688 443.66 195.409C443.2 194.879 442.98 193.769 442.98 192.069C442.961 191.336 443.039 190.603 443.21 189.889C443.278 189.483 443.46 189.104 443.734 188.796C444.009 188.488 444.364 188.264 444.76 188.149C445.086 188.063 445.423 188.023 445.76 188.029L447.31 188.219V183.379C447.299 182.845 447.323 182.311 447.38 181.779C447.452 181.374 447.594 180.985 447.8 180.629C447.94 180.406 448.122 180.212 448.336 180.06C448.551 179.907 448.793 179.798 449.05 179.739C449.834 179.54 450.642 179.452 451.45 179.479C452.108 179.466 452.764 179.543 453.4 179.709C453.824 179.83 454.228 180.012 454.6 180.249C454.902 180.49 455.122 180.818 455.23 181.189C455.357 181.547 455.435 181.921 455.46 182.299C455.46 182.609 455.46 183.049 455.46 183.609V188.219C456.84 188.089 457.87 188.029 458.56 188.029C459.101 188.024 459.642 188.048 460.18 188.099C460.609 188.171 461.021 188.316 461.4 188.529C461.643 188.656 461.857 188.832 462.029 189.045C462.201 189.259 462.327 189.505 462.4 189.769C462.611 190.551 462.706 191.36 462.68 192.169C462.704 192.962 462.609 193.754 462.4 194.519C462.327 194.783 462.201 195.03 462.029 195.243C461.857 195.457 461.643 195.632 461.4 195.759C461.01 195.971 460.588 196.116 460.15 196.189C459.608 196.242 459.064 196.265 458.52 196.259Z" fill="#115E49"/>
<path d="M305.34 666.701C299.543 666.697 293.871 665.023 289 661.881C288.483 661.574 288.06 661.133 287.773 660.605C287.486 660.077 287.347 659.481 287.37 658.881C287.37 657.221 288.46 654.887 290.64 651.881C290.952 651.399 291.388 651.01 291.901 650.753C292.415 650.497 292.987 650.382 293.56 650.421C295.438 650.547 297.25 651.168 298.81 652.221C301.617 653.827 303.997 654.631 305.95 654.631C309.443 654.631 311.19 653.944 311.19 652.571C311.19 651.991 310.65 651.511 309.56 651.101C308.22 650.645 306.836 650.33 305.43 650.161C303.59 649.886 301.786 649.41 300.05 648.741C298.178 648.046 296.38 647.168 294.68 646.121C292.877 644.918 291.446 643.234 290.55 641.261C289.407 638.798 288.849 636.105 288.92 633.391C288.92 624.331 295.14 619.801 307.58 619.801C311.927 619.868 316.209 620.863 320.14 622.721C322.14 623.641 323.14 624.901 323.14 626.511C322.944 628.187 322.321 629.785 321.33 631.151C319.997 633.224 318.663 634.257 317.33 634.251C316.31 634.156 315.318 633.864 314.41 633.391C312.231 632.31 309.841 631.723 307.41 631.671C304.03 631.671 302.34 632.301 302.34 633.561C302.369 634.052 302.544 634.523 302.844 634.914C303.143 635.304 303.553 635.596 304.02 635.751C305.35 636.358 306.774 636.737 308.23 636.871C310.079 637.106 311.905 637.494 313.69 638.031C315.566 638.58 317.392 639.286 319.15 640.141C320.954 641.079 322.427 642.549 323.37 644.351C324.544 646.59 325.119 649.094 325.04 651.621C325.129 654.312 324.556 656.983 323.37 659.401C322.33 661.416 320.672 663.045 318.64 664.051C316.677 665.026 314.591 665.732 312.44 666.151C310.095 666.554 307.719 666.738 305.34 666.701Z" fill="#115E49"/>
<path d="M374.4 637.46C374.4 641.24 373.527 643.976 371.78 645.67C371.028 646.457 370.128 647.087 369.13 647.523C368.133 647.959 367.058 648.193 365.97 648.21H345.59C345.59 649.81 346.537 651.143 348.43 652.21C350.284 653.29 352.394 653.852 354.54 653.84C356.007 653.847 357.472 653.733 358.92 653.5C359.938 653.354 360.941 653.123 361.92 652.81L362.87 652.47C363.938 651.918 365.11 651.594 366.31 651.52C368.137 651.52 369.713 652.81 371.04 655.39C371.698 656.626 372.077 657.991 372.15 659.39C372.15 664.49 366.047 667.04 353.84 667.04C349.978 667.104 346.146 666.358 342.59 664.85C339.581 663.606 336.933 661.625 334.89 659.09C333.114 656.828 331.734 654.282 330.81 651.56C329.924 648.958 329.472 646.228 329.47 643.48C329.47 636.246 331.803 630.47 336.47 626.15C341.137 621.83 346.97 619.663 353.97 619.65C356.595 619.623 359.208 620.015 361.71 620.81C363.822 621.457 365.802 622.472 367.56 623.81C369.08 625.01 370.4 626.445 371.47 628.06C372.463 629.528 373.231 631.135 373.75 632.83C374.186 634.334 374.405 635.893 374.4 637.46ZM356.25 640.38C358.43 640.38 359.52 639.463 359.52 637.63C359.539 637.019 359.413 636.412 359.152 635.86C358.891 635.307 358.503 634.824 358.02 634.45C356.75 633.562 355.216 633.135 353.67 633.24C351.624 633.324 349.675 634.132 348.17 635.52C346.33 637.04 345.42 638.66 345.42 640.38H356.25Z" fill="#115E49"/>
<path d="M423.68 637.46C423.68 641.24 422.8 643.98 421.06 645.67C420.308 646.457 419.408 647.087 418.41 647.524C417.413 647.96 416.338 648.193 415.25 648.21H394.87C394.87 649.81 395.817 651.143 397.71 652.21C399.561 653.288 401.668 653.851 403.81 653.84C405.28 653.848 406.748 653.734 408.2 653.5C409.217 653.354 410.221 653.123 411.2 652.81L412.2 652.47C413.258 651.949 414.412 651.65 415.59 651.59C417.43 651.59 419 652.88 420.33 655.46C420.988 656.696 421.367 658.061 421.44 659.46C421.44 664.56 415.333 667.11 403.12 667.11C399.241 667.182 395.391 666.436 391.82 664.92C388.811 663.676 386.163 661.695 384.12 659.16C382.345 656.897 380.962 654.351 380.03 651.63C379.148 649.028 378.698 646.298 378.7 643.55C378.7 636.317 381.033 630.54 385.7 626.22C390.367 621.9 396.2 619.733 403.2 619.72C405.825 619.694 408.438 620.085 410.94 620.88C413.052 621.527 415.032 622.543 416.79 623.88C418.31 625.081 419.63 626.515 420.7 628.13C421.693 629.598 422.461 631.206 422.98 632.9C423.426 634.38 423.662 635.915 423.68 637.46ZM405.53 640.38C407.71 640.38 408.8 639.463 408.8 637.63C408.819 637.019 408.693 636.413 408.432 635.86C408.171 635.307 407.783 634.824 407.3 634.45C406.03 633.564 404.495 633.137 402.95 633.24C400.904 633.324 398.955 634.132 397.45 635.52C395.61 637.04 394.7 638.66 394.7 640.38H405.53Z" fill="#115E49"/>
<path d="M466.33 599.441C467.781 599.402 469.23 599.577 470.63 599.961C471.115 600.087 471.568 600.313 471.961 600.625C472.354 600.937 472.677 601.327 472.91 601.771C473.291 602.484 473.554 603.254 473.69 604.051C473.791 605.048 473.834 606.049 473.82 607.051V658.391C473.834 659.392 473.79 660.394 473.69 661.391C473.556 662.181 473.278 662.941 472.87 663.631C472.618 664.062 472.283 664.44 471.885 664.742C471.487 665.044 471.033 665.264 470.55 665.391C469.12 665.778 467.641 665.953 466.16 665.911C461.8 665.911 459.4 664.501 458.94 661.691C456.533 664.444 453.18 665.821 448.88 665.821C443.72 665.821 439.017 663.571 434.77 659.071C430.624 654.805 428.337 649.069 428.41 643.121C428.397 637.286 430.703 631.685 434.82 627.551C439.087 623.024 443.773 620.761 448.88 620.761C453.12 620.761 456.417 622.194 458.77 625.061V606.931C458.751 605.929 458.794 604.927 458.9 603.931C459.023 603.145 459.284 602.386 459.67 601.691C459.91 601.257 460.236 600.878 460.628 600.575C461.02 600.272 461.47 600.053 461.95 599.931C463.378 599.555 464.854 599.389 466.33 599.441ZM445.69 648.441C446.38 649.187 447.219 649.781 448.152 650.182C449.086 650.583 450.094 650.784 451.11 650.771C452.108 650.792 453.099 650.595 454.013 650.192C454.927 649.79 455.742 649.192 456.4 648.441C457.745 647.059 458.501 645.209 458.51 643.281C458.478 641.378 457.769 639.548 456.51 638.121C455.844 637.33 455.005 636.703 454.059 636.287C453.112 635.871 452.083 635.677 451.05 635.721C450.014 635.677 448.981 635.867 448.027 636.275C447.074 636.684 446.224 637.301 445.54 638.081C444.232 639.498 443.497 641.352 443.48 643.281C443.484 644.248 443.682 645.205 444.062 646.094C444.441 646.984 444.995 647.788 445.69 648.461V648.441Z" fill="#115E49"/>
<path d="M497.38 666.701C491.583 666.698 485.91 665.024 481.04 661.881C480.524 661.574 480.1 661.133 479.813 660.605C479.526 660.077 479.387 659.481 479.41 658.881C479.41 657.221 480.49 654.881 482.67 651.881C482.984 651.398 483.421 651.009 483.936 650.752C484.451 650.495 485.026 650.381 485.6 650.421C487.475 650.546 489.284 651.167 490.84 652.221C493.647 653.827 496.027 654.631 497.98 654.631C501.48 654.631 503.23 653.944 503.23 652.571C503.23 651.991 502.68 651.511 501.59 651.101C500.253 650.644 498.872 650.329 497.47 650.161C495.63 649.888 493.825 649.411 492.09 648.741C490.218 648.046 488.42 647.168 486.72 646.121C484.914 644.921 483.483 643.236 482.59 641.261C481.443 638.799 480.882 636.105 480.95 633.391C480.95 624.331 487.173 619.801 499.62 619.801C503.964 619.867 508.243 620.862 512.17 622.721C514.17 623.641 515.17 624.904 515.17 626.511C514.979 628.186 514.359 629.785 513.37 631.151C512.037 633.224 510.703 634.257 509.37 634.251C508.35 634.158 507.358 633.865 506.45 633.391C504.271 632.31 501.881 631.723 499.45 631.671C496.07 631.671 494.38 632.301 494.38 633.561C494.407 634.051 494.58 634.522 494.878 634.913C495.176 635.303 495.584 635.595 496.05 635.751C497.384 636.357 498.811 636.736 500.27 636.871C502.119 637.106 503.945 637.494 505.73 638.031C507.606 638.58 509.432 639.286 511.19 640.141C512.991 641.08 514.461 642.549 515.4 644.351C516.582 646.587 517.161 649.093 517.08 651.621C517.171 654.313 516.594 656.986 515.4 659.401C514.362 661.418 512.704 663.048 510.67 664.051C508.71 665.026 506.628 665.732 504.48 666.151C502.135 666.553 499.759 666.737 497.38 666.701Z" fill="#115E49"/>
<g style="mix-blend-mode:multiply">
<path d="M401.48 591.39C441.725 591.39 474.35 583.484 474.35 573.73C474.35 563.977 441.725 556.07 401.48 556.07C361.235 556.07 328.61 563.977 328.61 573.73C328.61 583.484 361.235 591.39 401.48 591.39Z" fill="#A7A9AC"/>
</g>
<path d="M559.5 284.739C559.249 283.719 558.703 282.794 557.929 282.083C557.155 281.371 556.188 280.904 555.15 280.739C554.94 280.739 551.15 280.099 547.21 279.739C543.21 268.899 532.28 259.839 517.75 255.579H517.6L516.9 255.379L516.45 255.249H516.34L515.59 255.059L514.98 254.909L514.08 254.699L512.63 254.389L512.03 254.269L511.23 254.129L510.86 254.059L509.77 253.889L509.4 253.829L508.21 253.669H507.97C506.97 253.559 505.97 253.459 504.97 253.389H504.88L503.5 253.309H503.28H501.99H501.07C499.76 253.309 498.45 253.359 497.17 253.449H497.12L495.66 253.569H495.5L494.07 253.729H493.99C492.44 253.929 490.89 254.199 489.4 254.529H489.28C488.82 254.629 488.36 254.739 487.91 254.859L487.72 254.909L486.33 255.289H486.24C485.24 255.589 484.24 255.919 483.24 256.289L481.85 256.819L481.58 256.929L480.44 257.409L480.12 257.549L478.97 258.079L478.72 258.199C477.8 258.649 476.88 259.139 475.99 259.649L475.63 259.859L474.71 260.419L474.22 260.719L473.42 261.249C473.24 261.369 473.07 261.479 472.91 261.599C472.75 261.719 472.39 261.949 472.15 262.129L472.02 262.219L471.64 262.499C471.33 262.729 471.02 262.959 470.72 263.199L469.89 263.869L469.78 263.959L469.31 264.349C459.951 265.352 451.086 269.06 443.8 275.019C433.5 283.209 424.64 296.209 417.34 313.779C417.08 312.589 416.8 311.419 416.51 310.269C416.67 310.089 416.83 309.899 416.98 309.709C417.13 309.519 417.33 309.269 417.5 309.039L417.59 308.919C417.88 308.549 418.16 308.179 418.44 307.799L418.52 307.689L418.94 307.109L419.36 306.489L419.42 306.399C419.58 306.169 419.73 305.949 419.87 305.719C420.01 305.489 420.18 305.239 420.33 304.999C420.48 304.759 420.62 304.539 420.76 304.309C420.9 304.079 421.05 303.829 421.18 303.599C421.31 303.369 421.42 303.169 421.54 302.949L421.68 302.709C421.78 302.529 421.88 302.359 421.97 302.179C422.21 301.739 422.43 301.289 422.64 300.859C422.73 300.689 422.81 300.509 422.89 300.339L423.02 300.069L423.32 299.409C423.43 299.179 423.53 298.949 423.63 298.709L423.93 297.989L424.23 297.239C424.32 296.999 424.41 296.749 424.5 296.519V296.439C424.58 296.219 424.66 295.999 424.73 295.779C424.8 295.559 424.9 295.299 424.97 295.059V294.989L425.3 293.919C425.4 293.599 425.49 293.269 425.58 292.919L425.73 292.359V292.199L425.92 291.439C425.98 291.189 426.03 290.939 426.08 290.689C426.13 290.439 426.19 290.199 426.24 289.949C426.29 289.699 426.34 289.449 426.38 289.199C426.42 288.949 426.47 288.689 426.51 288.439V288.339C426.51 288.129 426.58 287.919 426.61 287.719C426.64 287.519 426.69 287.169 426.72 286.889V286.809C426.72 286.449 426.81 286.089 426.85 285.729V285.589C426.85 285.319 426.85 285.049 426.92 284.789C426.99 284.529 426.92 284.399 426.97 284.199V284.079C426.97 283.819 426.97 283.549 426.97 283.299V282.569C426.97 282.319 426.97 282.059 426.97 281.799V280.099C426.97 279.939 426.97 279.779 426.97 279.619C426.97 279.159 426.97 278.709 426.91 278.269V277.789V277.659C426.91 277.359 426.91 277.069 426.84 276.769C426.77 276.469 426.84 276.419 426.84 276.239V276.099C426.84 275.839 426.79 275.569 426.76 275.309L426.67 274.629C426.67 274.369 426.6 274.099 426.56 273.839V273.789L426.47 273.189L426.32 272.309V272.149C426.32 272.019 426.32 271.889 426.25 271.749C426.16 271.299 426.07 270.849 425.97 270.389L425.88 269.999V269.849C425.81 269.559 425.75 269.269 425.68 268.979C425.61 268.689 425.59 268.639 425.55 268.479V268.369L425.34 267.559C425.28 267.359 425.23 267.159 425.17 266.959C425.11 266.759 425.01 266.399 424.92 266.119V265.999C424.92 265.849 424.84 265.709 424.79 265.569L424.46 264.569L424.34 264.219C424.19 263.769 424.03 263.329 423.87 262.899L423.68 262.419C423.57 262.129 423.46 261.839 423.34 261.539L423.12 261.009L422.78 260.189L422.55 259.679C422.43 259.389 422.29 259.099 422.16 258.819L421.96 258.369C421.75 257.939 421.55 257.519 421.34 257.099L421.28 256.979L420.68 255.829L420.45 255.409C420.3 255.129 420.14 254.849 419.98 254.569L419.72 254.109C419.56 253.839 419.41 253.569 419.25 253.309L418.99 252.869L418.45 251.999L418.23 251.659C417.98 251.269 417.72 250.869 417.47 250.499C417.42 250.439 417.31 250.269 417.31 250.269L416.65 249.269L416.36 248.879L415.82 248.139L415.5 247.709L414.94 246.989L414.59 246.589C414.38 246.319 414.16 246.049 413.94 245.789L413.71 245.509C413.42 245.159 413.12 244.819 412.81 244.509L412.53 244.189C412.32 243.959 412.11 243.719 411.89 243.489L411.51 243.089C411.33 242.889 411.14 242.689 410.95 242.499L410.53 242.069C410.35 241.879 410.16 241.689 409.96 241.509L409.55 241.099L408.91 240.499L408.38 240.009L408.1 239.759L407.66 239.369L407.56 239.279L406.96 238.769L406.84 238.669C405.76 237.769 404.65 236.899 403.49 236.089C400.62 234.05 397.51 232.371 394.23 231.089L393.92 230.979C390.281 229.577 386.419 228.842 382.52 228.809H382.02C380.25 225.219 378.31 221.929 378.21 221.749C377.677 220.841 376.889 220.109 375.943 219.646C374.997 219.183 373.935 219.008 372.891 219.145C371.846 219.281 370.865 219.723 370.07 220.414C369.275 221.104 368.701 222.014 368.42 223.029C368.18 223.879 367.77 225.349 368.48 232.719C367.947 233.039 367.427 233.373 366.92 233.719C366.2 234.219 365.49 234.719 364.8 235.329C361.92 233.679 359.4 232.419 359.25 232.329C358.441 231.927 357.543 231.735 356.641 231.772C355.738 231.809 354.859 232.072 354.085 232.539C353.311 233.006 352.668 233.66 352.214 234.441C351.761 235.223 351.512 236.106 351.49 237.009H351.31C350.265 237.148 349.285 237.59 348.49 238.282C347.695 238.974 347.121 239.884 346.84 240.899C346.61 241.739 346.2 243.199 346.9 250.509C345.379 251.268 343.93 252.161 342.57 253.179C338.64 251.609 334.57 250.349 334.36 250.279C333.354 249.969 332.278 249.961 331.268 250.258C330.258 250.554 329.357 251.142 328.679 251.947C328 252.753 327.574 253.74 327.453 254.786C327.333 255.832 327.523 256.891 328 257.829C328.37 258.569 329 259.829 333.87 264.299C332.251 267.869 331.354 271.722 331.23 275.639C327.23 277.359 323.36 279.439 323.15 279.559C322.222 280.057 321.461 280.816 320.962 281.743C320.463 282.671 320.248 283.724 320.344 284.773C320.44 285.821 320.843 286.818 321.502 287.639C322.161 288.46 323.047 289.069 324.05 289.389C325.54 289.78 327.081 289.942 328.62 289.869C330.44 289.869 332.62 289.769 334.57 289.649C335.538 291.501 336.651 293.274 337.9 294.949C335.56 298.239 333.55 301.539 333.44 301.729C332.944 302.542 332.674 303.472 332.657 304.424C332.641 305.376 332.877 306.315 333.344 307.145C333.81 307.975 334.489 308.666 335.311 309.147C336.133 309.627 337.068 309.88 338.02 309.879C338.417 309.877 338.813 309.83 339.2 309.739C340.13 309.539 341.59 309.209 347.9 304.969C348.96 305.799 350.04 306.609 351.15 307.379C349.81 310.899 348.81 314.199 348.75 314.379C348.441 315.387 348.436 316.463 348.736 317.473C349.035 318.483 349.626 319.382 350.433 320.059C351.241 320.735 352.23 321.159 353.277 321.276C354.324 321.394 355.382 321.2 356.32 320.719C357.09 320.319 358.43 319.639 363.25 314.279C364.03 314.639 364.8 314.979 365.57 315.279C365.02 319.049 364.74 322.549 364.73 322.759C364.647 323.808 364.875 324.857 365.386 325.777C365.896 326.696 366.666 327.445 367.6 327.929C368.535 328.411 369.591 328.609 370.638 328.499C371.684 328.389 372.675 327.975 373.49 327.309C374.18 326.729 375.27 325.829 378.64 319.919C380.353 320.366 382.077 320.753 383.81 321.079C385.337 324.699 387.077 328.225 389.02 331.639C389.487 332.464 390.164 333.151 390.983 333.629C391.801 334.106 392.732 334.359 393.68 334.359C393.883 334.374 394.087 334.374 394.29 334.359C395.234 334.265 396.135 333.92 396.9 333.359C399.106 349.569 400.066 365.923 399.77 382.279C399.33 385.179 398.903 388.146 398.49 391.179C395.08 378.009 390.29 366.539 384.25 357.059C376.07 344.229 365.57 335.059 353.04 329.729C352.043 329.311 350.943 329.202 349.883 329.418C348.824 329.634 347.854 330.164 347.1 330.939C346.629 331.42 346.255 331.987 346 332.609C343.93 337.099 328.5 376.709 393.61 441.059C393.317 445.639 393.057 450.286 392.83 454.999H346.66C343.627 455.002 340.718 456.208 338.574 458.353C336.429 460.498 335.223 463.406 335.22 466.439V491.589C335.22 494.624 336.425 497.535 338.57 499.682C340.715 501.829 343.625 503.037 346.66 503.039H347.66L359.18 554.589C360.394 560.025 363.424 564.885 367.77 568.368C372.117 571.851 377.52 573.749 383.09 573.749H419.87C420.58 573.749 421.3 573.749 422 573.659C422.7 573.569 423.4 573.509 424.09 573.389C426.467 572.978 428.769 572.212 430.92 571.119C431.53 570.819 432.13 570.479 432.7 570.119C433.854 569.407 434.948 568.601 435.97 567.709C436.48 567.269 436.97 566.799 437.45 566.309C439.863 563.823 441.718 560.85 442.89 557.589C443.255 556.59 443.555 555.568 443.79 554.529L455.3 502.959H456.3C459.322 502.957 462.221 501.761 464.365 499.631C466.51 497.502 467.726 494.611 467.75 491.589V466.409C467.745 463.375 466.536 460.467 464.39 458.322C462.243 456.178 459.334 454.972 456.3 454.969H416.4C416.52 452.559 416.65 450.179 416.79 447.809C482.49 399.809 471.07 363.029 470.54 361.469C470.182 360.406 469.499 359.481 468.588 358.827C467.676 358.172 466.582 357.819 465.46 357.819C465.011 357.817 464.564 357.875 464.13 357.989C452.49 360.989 442.13 367.669 433.39 377.919C428.83 383.353 424.892 389.28 421.65 395.589C424.74 372.589 428.87 352.859 433.99 336.719C436.875 327.126 440.788 317.872 445.66 309.119C446.584 310.07 447.827 310.647 449.15 310.739C452.913 311.266 456.702 311.584 460.5 311.689C461.42 313.189 462.4 314.649 463.44 316.069C459.18 321.329 458.7 322.789 458.44 323.559C458.182 324.363 458.117 325.216 458.251 326.05C458.385 326.883 458.714 327.673 459.211 328.356C459.708 329.038 460.359 329.593 461.111 329.976C461.864 330.359 462.696 330.559 463.54 330.559C464.344 330.562 465.137 330.38 465.86 330.029C466.05 329.939 469.21 328.409 472.52 326.529L474.32 328.309C471.09 334.739 470.94 336.189 470.85 337.109C470.747 338.156 470.954 339.211 471.445 340.141C471.936 341.072 472.689 341.838 473.612 342.344C474.534 342.85 475.585 343.073 476.634 342.987C477.682 342.901 478.682 342.509 479.51 341.859C479.67 341.729 482.37 339.589 485.17 337.069C486.29 337.819 487.43 338.529 488.59 339.219C486.93 346.619 487.16 348.159 487.3 349.049C487.455 350.097 487.919 351.074 488.631 351.858C489.343 352.641 490.272 353.195 491.3 353.449C491.723 353.547 492.156 353.594 492.59 353.589C493.413 353.588 494.225 353.398 494.964 353.034C495.702 352.67 496.347 352.142 496.85 351.489C496.98 351.309 499.33 348.239 501.53 344.869C503.548 345.427 505.608 345.822 507.69 346.049C510.17 353.779 511.19 355.049 511.77 355.749C512.271 356.372 512.904 356.874 513.624 357.22C514.343 357.566 515.131 357.747 515.93 357.749C517.24 357.75 518.505 357.271 519.487 356.403C520.468 355.536 521.099 354.34 521.26 353.039C521.26 352.789 521.81 348.419 521.96 344.039C525.568 342.501 528.835 340.261 531.57 337.449C537.46 340.339 538.84 340.449 539.72 340.559H540.24C541.249 340.561 542.239 340.277 543.094 339.741C543.949 339.205 544.636 338.439 545.075 337.53C545.514 336.621 545.687 335.606 545.575 334.603C545.462 333.6 545.069 332.649 544.44 331.859C544.29 331.689 541.65 328.369 538.76 325.279C539.211 323.643 539.519 321.97 539.68 320.279C546.68 318.279 547.95 317.369 548.68 316.849C549.522 316.217 550.16 315.351 550.516 314.359C550.871 313.367 550.928 312.293 550.68 311.269L550.63 311.099C551.464 310.752 552.198 310.2 552.762 309.494C553.326 308.788 553.703 307.951 553.857 307.06C554.012 306.17 553.939 305.255 553.646 304.4C553.353 303.545 552.849 302.778 552.18 302.169C552.05 302.059 549.95 300.169 547.38 298.079C547.647 297.239 547.887 296.389 548.1 295.529C548.25 294.919 548.38 294.299 548.49 293.689C555.59 291.689 556.82 290.759 557.49 290.229C558.322 289.609 558.956 288.759 559.313 287.784C559.67 286.809 559.735 285.751 559.5 284.739Z" fill="#231F20"/>
<path d="M447.07 279.171C434.07 289.511 423.53 308.171 415.5 334.821C413.5 319.131 410.28 305.631 405.87 294.441C399.23 277.591 392.02 272.071 391.21 271.441L383.7 281.901L383.58 281.811C383.58 281.811 389.19 286.391 394.58 300.991C399.58 314.571 405.51 339.741 405.05 382.641C403.303 394.007 401.823 406.207 400.61 419.241C397.542 453.86 396.43 488.626 397.28 523.371L410.15 522.921C409.327 488.723 410.422 454.506 413.43 420.431C419.86 351.111 434.26 305.731 455.05 289.211C463.5 282.501 472.93 280.681 483.89 283.631L487.24 271.201C472.28 267.201 458.77 269.871 447.07 279.171Z" fill="#67BE65"/>
<path d="M398.84 438.689L350.84 334.689C401.35 356.009 398.84 438.689 398.84 438.689Z" fill="#67BE65"/>
<path d="M350.89 334.66L398.89 438.66C331.28 372.82 350.89 334.66 350.89 334.66Z" fill="#4CA84D"/>
<g style="mix-blend-mode:multiply">
<path d="M393.38 393.05C397.094 407.973 398.928 423.302 398.84 438.68C372.59 413.09 359.51 391.68 353.31 375.07C387.83 402.28 393.38 393.05 393.38 393.05Z" fill="#4CA84E"/>
</g>
<path d="M411.75 444.84L465.46 363.18C420.17 374.77 411.75 444.84 411.75 444.84Z" fill="#67BE65"/>
<path d="M465.46 363.18L411.75 444.84C477.14 397.9 465.46 363.18 465.46 363.18Z" fill="#4CA84D"/>
<g style="mix-blend-mode:multiply">
<g style="mix-blend-mode:multiply">
<path d="M422.18 407.031C417.135 419.144 413.634 431.844 411.76 444.831C437.14 426.591 450.93 410.201 458.27 396.971C425.68 415.531 422.18 407.031 422.18 407.031Z" fill="#4CA84E"/>
</g>
</g>
<path d="M545.45 312.59C544.12 313.59 537.45 315.4 534.39 316.2C534.639 319.816 534.022 323.44 532.59 326.77C535.302 329.46 537.857 332.305 540.24 335.29C538.7 335.14 533.24 332.4 530.24 330.84C529.8 331.44 529.32 332.03 528.81 332.63C525.616 336.365 521.349 339.026 516.59 340.25C516.638 344.314 516.415 348.376 515.92 352.41C514.79 351.02 512.49 343.53 511.69 340.89C507.392 340.919 503.131 340.1 499.15 338.48C497.166 341.874 494.971 345.14 492.58 348.26C492.33 346.56 494.01 339.41 494.73 336.49C491.181 334.681 487.803 332.552 484.64 330.13C481.959 332.796 479.131 335.31 476.17 337.66C476.33 336.02 479.44 329.99 480.94 327.15C479.55 325.94 478.76 325.15 478.76 325.15C476.76 323.27 475 321.46 473.4 319.7C470.214 321.719 466.915 323.556 463.52 325.2C464.02 323.67 468.16 318.66 470.31 316.15C467.712 313.046 465.421 309.697 463.47 306.15C459.22 306.74 449.47 305.35 449.47 305.35C450.9 304.24 458.68 302.03 461.21 301.35C457.46 291.55 460.35 286.26 460.35 286.26C490.28 260.73 527.95 286.54 533.65 311.49C537.602 311.617 541.543 311.984 545.45 312.59Z" fill="#4CA84D"/>
<path d="M483.59 320.76C483.59 320.76 506.39 343.35 521.59 326.42C538.99 307.05 499.29 265.89 469.59 291.2C469.59 291.2 463.75 301.92 483.59 320.76Z" fill="#F15B4B"/>
<g style="mix-blend-mode:multiply">
<path d="M524.96 315.52C525.489 319.528 525.756 323.567 525.76 327.61C524.54 326.43 521.56 319.87 520.33 317.07C516.636 317.95 512.847 318.37 509.05 318.32C507.918 321.88 506.583 325.373 505.05 328.78C504.49 327.37 504.43 321.57 504.44 318.13C500.862 317.846 497.31 317.304 493.81 316.51C491.756 320.088 489.46 323.523 486.94 326.79C486.69 325.12 488.32 318.25 489.06 315.23C485.85 314.28 482.95 313.23 480.35 312.23C477.494 314.167 474.484 315.866 471.35 317.31C470.99 316.89 470.63 316.48 470.35 316.07C471.85 314.14 474.02 311.68 475.49 310.07C471.628 308.267 468.021 305.964 464.76 303.22C464.019 303.521 463.261 303.778 462.49 303.99C461.813 302.552 461.229 301.072 460.74 299.56L461 299.4C460.82 299.19 460.66 298.98 460.5 298.78C458.13 290.63 460.5 286.26 460.5 286.26C489.74 261.34 526.36 285.39 533.35 309.77C531.004 312.273 528.141 314.235 524.96 315.52Z" fill="#4CA84D"/>
</g>
<path d="M536.64 272.811C527.92 272.291 512.49 272.411 499.22 277.921C488.61 282.321 479.39 290.161 476.06 303.871C460.57 295.171 460.65 285.771 460.65 285.771C474.85 249.521 519.45 254.011 536.64 272.811Z" fill="#4CA84D"/>
<path d="M554.29 286.01C553 287.01 546.69 288.72 543.51 289.56C543.473 291.169 543.258 292.769 542.87 294.33C542.411 296.265 541.74 298.143 540.87 299.93C544.52 302.58 548.56 306.23 548.56 306.23C547.11 306.33 541.91 304.73 538.56 303.66C536.058 306.949 532.723 309.511 528.9 311.08C529.435 315.085 529.706 319.12 529.71 323.16C528.48 321.98 525.51 315.42 524.27 312.62C520.577 313.509 516.788 313.932 512.99 313.88C511.852 317.435 510.517 320.924 508.99 324.33C508.43 322.93 508.37 317.12 508.38 313.68C504.802 313.401 501.249 312.86 497.75 312.06C495.696 315.641 493.397 319.076 490.87 322.34C490.63 320.68 492.25 313.81 493 310.78C489.78 309.83 486.89 308.78 484.28 307.78C480.65 310.52 472.55 314.11 472.55 314.11C473.08 312.68 477.05 308.11 479.34 305.6C475.482 303.801 471.877 301.501 468.62 298.76C464.62 300.44 455.07 301.66 455.07 301.66C456.07 300.29 462.22 296.51 464.85 294.93C460.61 289.76 460.64 285.78 460.64 285.78C477.52 242.65 537.44 257.19 543.07 284.88C546.829 285.04 550.575 285.418 554.29 286.01Z" fill="#67BE65"/>
<path d="M525.59 301.92C529.59 298.43 530.68 293.17 528.06 290.17C525.44 287.17 520.06 287.57 516.06 291.05C512.06 294.53 510.98 299.8 513.6 302.79C516.22 305.78 521.59 305.4 525.59 301.92Z" fill="white"/>
<path d="M535.49 301.241C536.226 301.241 536.945 301.023 537.557 300.614C538.169 300.205 538.645 299.624 538.927 298.944C539.208 298.265 539.282 297.517 539.139 296.795C538.995 296.073 538.641 295.411 538.12 294.89C537.6 294.37 536.937 294.016 536.216 293.872C535.494 293.729 534.746 293.802 534.066 294.084C533.387 294.366 532.806 294.842 532.397 295.454C531.988 296.066 531.77 296.785 531.77 297.521C531.773 298.507 532.165 299.451 532.862 300.148C533.56 300.845 534.504 301.238 535.49 301.241Z" fill="white"/>
<path d="M536.64 272.811C536.09 272.731 487.57 265.401 476.06 303.871C473.418 302.412 470.927 300.697 468.62 298.751C464.62 300.431 455.08 301.651 455.08 301.651C456.08 300.281 462.23 296.501 464.86 294.921C460.62 289.751 460.65 285.771 460.65 285.771C474.85 249.521 519.45 254.011 536.64 272.811Z" fill="#4CA84D"/>
<g style="mix-blend-mode:multiply">
<g style="mix-blend-mode:multiply">
<path d="M525.47 264.43C486.55 252.2 464.87 294.93 464.87 294.93C460.63 289.75 460.66 285.77 460.66 285.77C472.38 255.83 504.82 253.68 525.47 264.43Z" fill="#4CA84E"/>
</g>
</g>
<path d="M351.95 242.33C351.51 243.93 352.24 250.8 352.61 253.95C349.163 255.019 346.022 256.898 343.45 259.43C339.955 257.886 336.372 256.55 332.72 255.43C333.42 256.81 337.95 260.88 340.5 263.11C340.09 263.757 339.713 264.425 339.37 265.11C337.056 269.443 336.128 274.382 336.71 279.26C332.895 280.683 329.18 282.36 325.59 284.28C327.29 284.83 335.1 284.28 337.86 284.03C339.393 288.04 341.7 291.71 344.65 294.83C342.209 297.915 339.961 301.148 337.92 304.51C339.6 304.13 345.66 299.96 348.11 298.24C351.091 300.887 354.304 303.26 357.71 305.33C356.2 308.793 354.888 312.338 353.78 315.95C355.24 315.2 359.73 310.12 361.78 307.68C363.41 308.54 364.42 308.99 364.42 308.99C366.89 310.15 369.23 311.14 371.42 311.99C370.702 315.695 370.191 319.438 369.89 323.2C371.14 322.2 374.29 316.48 375.89 313.58C379.726 314.867 383.678 315.782 387.69 316.31C388.69 320.49 393.54 329.03 393.54 329.03C394.06 327.29 393.29 319.24 393.01 316.63C403.51 316.56 407.39 311.94 407.39 311.94C420.26 274.75 382.52 249.07 357.21 252.85C355.676 249.238 353.919 245.724 351.95 242.33Z" fill="#4CA84D"/>
<path d="M366.89 302.929C366.89 302.929 337.59 289.919 347.79 269.589C359.5 246.349 412.28 268.339 399.5 305.189C399.5 305.169 391.65 314.529 366.89 302.929Z" fill="#F15B4B"/>
<g style="mix-blend-mode:multiply">
<g style="mix-blend-mode:multiply">
<path d="M356.71 262.471C352.784 263.433 348.926 264.652 345.16 266.121C346.71 266.841 353.9 267.211 356.96 267.351C357.482 271.108 358.466 274.786 359.89 278.301C356.993 280.652 354.232 283.166 351.62 285.831C353.12 285.831 358.56 283.831 361.75 282.531C363.315 285.756 365.109 288.864 367.12 291.831C364.53 295.048 362.164 298.439 360.04 301.981C361.68 301.601 367.49 297.591 370.04 295.791C372.04 298.441 374.04 300.791 376.04 302.791C375.266 306.18 374.781 309.629 374.59 313.101L376.13 313.611C377.38 311.511 378.88 308.611 379.86 306.611C382.95 309.547 386.409 312.068 390.15 314.111C390.142 314.909 390.178 315.707 390.26 316.501C391.848 316.611 393.442 316.611 395.03 316.501C395.03 316.401 395.03 316.301 395.08 316.211C395.34 316.301 395.59 316.371 395.84 316.441C404.29 315.691 407.49 311.881 407.49 311.881C420.08 275.571 384.35 250.221 359.09 252.591C357.589 255.672 356.776 259.044 356.71 262.471Z" fill="#4CA84D"/>
</g>
</g>
<path d="M392.24 236.029C395.9 243.969 401.41 258.379 401.1 272.749C400.86 284.229 396.91 295.669 385.35 303.749C399.09 315.009 407.82 311.509 407.82 311.509C436.43 285.129 416.01 245.229 392.24 236.029Z" fill="#4CA84D"/>
<path d="M373.53 224.41C373.09 225.96 373.77 232.48 374.15 235.74C372.664 236.367 371.249 237.152 369.93 238.08C368.299 239.213 366.797 240.521 365.45 241.98C361.66 239.53 356.8 237.11 356.8 237.11C357.23 238.49 360.61 242.75 362.8 245.44C360.642 248.966 359.468 253.006 359.4 257.14C355.475 258.107 351.617 259.326 347.85 260.79C349.39 261.5 356.58 261.88 359.65 262.02C360.173 265.778 361.16 269.456 362.59 272.97C359.69 275.322 356.926 277.836 354.31 280.5C355.82 280.5 361.25 278.5 364.45 277.2C366.009 280.426 367.8 283.534 369.81 286.5C367.224 289.718 364.862 293.109 362.74 296.65C364.38 296.27 370.19 292.26 372.74 290.46C374.8 293.127 376.8 295.46 378.74 297.46C377.51 301.83 377.11 310.69 377.11 310.69C378.27 309.69 381.05 304.33 382.57 301.28C385.66 304.219 389.119 306.744 392.86 308.79C392.75 313.15 395.08 322.47 395.08 322.47C395.98 321.02 397.27 313.92 397.79 310.91C404.15 312.97 407.85 311.49 407.85 311.49C441.85 280.09 406.53 229.57 378.7 234.4C377.167 230.975 375.441 227.64 373.53 224.41Z" fill="#67BE65"/>
<path d="M392.24 236.039C392.52 236.529 417 279.039 385.35 303.769C387.672 305.696 390.177 307.391 392.83 308.829C392.73 313.179 395.06 322.499 395.06 322.499C395.96 321.059 397.25 313.959 397.76 310.939C404.13 313.009 407.82 311.529 407.82 311.529C436.43 285.129 416.01 245.229 392.24 236.039Z" fill="#4CA84D"/>
<g style="mix-blend-mode:multiply">
<g style="mix-blend-mode:multiply">
<path d="M404.11 243.4C429.66 275.2 397.76 310.94 397.76 310.94C404.13 313.01 407.82 311.53 407.82 311.53C431.45 289.72 421.64 258.71 404.11 243.4Z" fill="#4CA84E"/>
</g>
</g>
<path d="M449.52 305.36L462.39 303.97L461.27 301.35L449.52 305.36Z" fill="#4CA84D"/>
<path d="M390.24 316.59L393.59 329.04C393.804 324.899 393.627 320.747 393.06 316.64L390.24 316.59Z" fill="#4CA84D"/>
<path d="M419.87 568.37H383.09C378.735 568.367 374.511 566.879 371.115 564.152C367.719 561.425 365.354 557.622 364.41 553.37L347.79 478.98H455.17L438.59 553.4C437.64 557.654 435.267 561.457 431.864 564.179C428.46 566.901 424.229 568.38 419.87 568.37Z" fill="#F8A43F"/>
<path d="M381.34 247.12C382.076 247.12 382.795 246.902 383.407 246.493C384.018 246.084 384.495 245.503 384.777 244.823C385.058 244.144 385.132 243.396 384.988 242.674C384.845 241.952 384.491 241.29 383.97 240.769C383.45 240.249 382.787 239.895 382.066 239.751C381.344 239.608 380.596 239.681 379.916 239.963C379.237 240.244 378.656 240.721 378.247 241.333C377.838 241.945 377.62 242.664 377.62 243.4C377.623 244.385 378.015 245.33 378.712 246.027C379.41 246.724 380.354 247.117 381.34 247.12Z" fill="white"/>
<path d="M439.04 478.98L422.42 553.4C421.48 557.654 419.115 561.459 415.719 564.187C412.322 566.914 408.096 568.401 403.74 568.4H419.87C424.226 568.399 428.451 566.912 431.847 564.184C435.243 561.457 437.608 557.653 438.55 553.4L455.17 478.98H439.04Z" fill="#EEB678"/>
<g style="mix-blend-mode:multiply" opacity="0.47">
<path d="M347.79 478.98L353.69 505.41H417.98C417.98 505.41 423.53 548.93 364.41 553.41C365.354 557.662 367.719 561.465 371.115 564.192C374.511 566.919 378.735 568.407 383.09 568.41H419.87C424.226 568.409 428.451 566.922 431.847 564.194C435.243 561.467 437.608 557.663 438.55 553.41L455.17 478.99L347.79 478.98Z" fill="#EEB678"/>
</g>
<path d="M456.3 460.33H346.67C343.307 460.33 340.58 463.057 340.58 466.42V491.55C340.58 494.913 343.307 497.64 346.67 497.64H456.3C459.663 497.64 462.39 494.913 462.39 491.55V466.42C462.39 463.057 459.663 460.33 456.3 460.33Z" fill="#F8A43F"/>
<path d="M447.52 480.88C451.695 480.88 455.08 477.495 455.08 473.32C455.08 469.144 451.695 465.76 447.52 465.76C443.345 465.76 439.96 469.144 439.96 473.32C439.96 477.495 443.345 480.88 447.52 480.88Z" fill="white"/>
</g>
<defs>
<clipPath id="clip0_4906_1376">
<rect width="619.18" height="838.58" fill="white"/>
</clipPath>
</defs>
</svg>
