<svg width="590" height="687" viewBox="0 0 590 687" fill="none" xmlns="http://www.w3.org/2000/svg">
<g clip-path="url(#clip0_4969_298)">
<path d="M429.721 636.91C416.911 636.91 403.491 630.64 392.911 619.72L374.911 601.13C349.101 610.083 321.969 614.633 294.651 614.59H294.481C292.361 614.59 290.141 614.59 287.701 614.49L286.131 614.43L284.551 614.37L282.121 614.28L280.781 614.19C279.921 614.19 279.101 614.09 278.281 614.04L277.531 613.99L275.951 613.89L274.511 613.76L273.701 613.69L271.381 613.49L269.861 613.35L268.101 613.15L265.921 612.91L264.631 612.76L263.821 612.66L261.931 612.41L260.351 612.19C259.561 612.09 258.781 611.98 258.001 611.86H257.651L255.851 611.57L254.471 611.34C253.591 611.2 252.721 611.06 251.851 610.9L250.991 610.75C250.571 610.68 250.181 610.6 249.791 610.52L248.551 610.29C247.681 610.12 246.801 609.96 245.931 609.78L244.341 609.45L242.621 609.08L241.881 608.92L240.061 608.52L238.231 608.09L235.871 607.52L234.261 607.12C233.491 606.93 232.721 606.72 231.951 606.51L229.481 605.86L228.481 605.58L226.211 604.93L225.161 604.62L223.161 604.01L222.341 603.76L220.761 603.26L220.121 603.06C219.121 602.74 218.121 602.43 217.191 602.06L216.021 601.68L212.571 600.47L193.901 619.73C183.321 630.65 169.901 636.92 157.091 636.92C149.674 636.996 142.422 634.728 136.371 630.44C119.991 618.69 116.591 594.86 128.111 572.5L136.361 556.499L135.561 555.819L134.281 554.72L133.011 553.59L130.691 551.53L129.961 550.86C129.321 550.29 128.701 549.7 128.071 549.11L127.071 548.11L126.331 547.42L125.781 546.9L123.591 544.77L122.671 543.87L121.671 542.87C120.431 541.63 119.204 540.373 117.991 539.1L117.071 538.1L115.921 536.87L115.401 536.319C114.831 535.709 114.261 535.1 113.701 534.48L111.341 531.829L110.901 531.329L109.901 530.16C109.541 529.75 109.161 529.3 108.791 528.86L106.791 526.509L106.161 525.759L105.011 524.329L103.011 521.879L102.511 521.259L101.341 519.74L100.501 518.65C99.9905 518 99.5006 517.34 98.9906 516.65C98.6006 516.14 98.2205 515.65 97.8405 515.09L97.0605 514.09L95.5605 512.02L94.3606 510.319L93.8705 509.62L92.2606 507.28L91.0106 505.52L90.5605 504.85L89.0106 502.439C88.5606 501.749 88.1306 501.05 87.6906 500.36L87.5206 500.09C86.9906 499.25 86.4506 498.39 85.9206 497.52C85.5106 496.86 85.1106 496.19 84.7206 495.52L84.4906 495.129C83.9706 494.259 83.4906 493.389 82.9406 492.499C82.3906 491.609 82.0205 490.91 81.5605 490.1L80.0106 487.449C79.5706 486.649 79.1506 485.849 78.7206 485.059L77.2706 482.319C76.8306 481.469 76.4106 480.64 75.9906 479.8C75.5706 478.96 75.0806 477.989 74.6406 477.079C74.2006 476.169 73.8306 475.4 73.4206 474.55C73.0106 473.7 72.5606 472.71 72.1406 471.79C71.7206 470.87 71.3606 470.07 70.9806 469.21C70.6006 468.35 70.1606 467.37 69.7606 466.43C69.3606 465.49 69.0306 464.71 68.6606 463.84L67.5106 461.009C67.1606 460.129 66.8106 459.259 66.5106 458.379C66.2106 457.499 65.7806 456.47 65.4206 455.52C65.0606 454.57 64.7606 453.74 64.4206 452.85C64.0806 451.96 63.7406 450.92 63.4206 449.96C63.1006 449 62.8005 448.159 62.5005 447.259C62.2005 446.359 61.8705 445.32 61.5605 444.34C61.2505 443.36 60.9806 442.53 60.7006 441.62C60.4206 440.71 60.1106 439.62 59.8206 438.62L59.7606 438.41C59.5206 437.57 59.2705 436.729 59.0305 435.889L58.2206 432.889C57.9706 431.949 57.7305 431.049 57.5005 430.139C57.2705 429.229 57.0006 428.14 56.7606 427.09L56.6706 426.74C56.4806 425.94 56.2906 425.139 56.1106 424.329C55.9306 423.519 55.7006 422.499 55.5106 421.579L55.3506 420.879C55.1806 420.079 55.0106 419.27 54.8506 418.47C54.6906 417.67 54.5006 416.68 54.3306 415.79L54.1306 414.73C53.9906 414 53.8606 413.27 53.7306 412.53C53.5606 411.53 53.3906 410.53 53.2306 409.53L53.1205 408.889C53.0005 408.119 52.8706 407.36 52.7606 406.59C52.6506 405.82 52.5006 404.789 52.3806 403.889L52.2206 402.77C52.1206 402.04 52.0206 401.32 51.9306 400.59C51.8406 399.86 51.7205 398.839 51.6205 397.949L51.4606 396.48C51.3906 395.83 51.3105 395.19 51.2505 394.54C51.1505 393.6 51.0706 392.66 50.9906 391.71L50.8705 390.28C50.8105 389.67 50.7606 389.049 50.7106 388.439C50.6406 387.439 50.5805 386.51 50.5305 385.54L50.4406 384.05C50.4406 383.47 50.3606 382.899 50.3306 382.319C50.2706 381.109 50.2306 379.92 50.1906 378.73V377.55C50.1906 377.08 50.1906 376.609 50.1406 376.139C50.0906 374.249 50.0705 372.34 50.0605 370.29V369.59C50.0605 367.53 50.0606 365.59 50.1406 363.77C50.1406 363.28 50.1406 362.77 50.1906 362.34V361.16C50.1906 359.97 50.2706 358.78 50.3306 357.6C50.3306 357 50.4006 356.42 50.4306 355.84L50.5305 354.36C50.5805 353.36 50.6406 352.43 50.7106 351.47C50.7606 350.84 50.8105 350.23 50.8705 349.62L50.9906 348.18C51.0706 347.24 51.1505 346.29 51.2505 345.35C51.3105 344.71 51.3906 344.06 51.4606 343.42L51.6205 341.939C51.7205 341.059 51.8206 340.17 51.9306 339.29C52.0206 338.58 52.1206 337.849 52.2206 337.129L52.3806 335.999C52.5006 335.099 52.6206 334.2 52.7606 333.3C52.9006 332.4 53.0005 331.769 53.1205 331.009L53.2306 330.36C53.3906 329.36 53.5606 328.36 53.7306 327.36C53.8606 326.65 53.9906 325.919 54.1306 325.189L54.3306 324.129C54.5006 323.239 54.6706 322.339 54.8506 321.449C55.0306 320.559 55.1806 319.84 55.3506 319.04L55.5106 318.329C55.7006 317.419 55.9006 316.5 56.1106 315.59C56.3206 314.68 56.4806 313.98 56.6706 313.18L56.7606 312.82C57.0006 311.82 57.2405 310.82 57.5005 309.82C57.7605 308.82 57.9706 308 58.2106 307.1L59.0305 304.1C59.2705 303.26 59.5106 302.42 59.7606 301.58L59.8206 301.38C60.1106 300.38 60.4006 299.38 60.7006 298.38C61.0006 297.38 61.2705 296.56 61.5605 295.65C61.8505 294.74 62.1905 293.7 62.5605 292.73C62.9305 291.76 63.1606 290.94 63.4806 290.04C63.8006 289.14 64.1406 288.12 64.4806 287.16C64.8206 286.2 65.1306 285.37 65.4806 284.49C65.8306 283.61 66.2006 282.58 66.5706 281.63C66.9406 280.68 67.2606 279.87 67.5706 279C67.8806 278.13 68.3306 277.12 68.7106 276.19C69.0906 275.26 69.4506 274.43 69.8206 273.57C70.1906 272.71 70.6306 271.71 71.0406 270.78L72.2006 268.21C72.6206 267.29 73.0506 266.38 73.4806 265.47C73.9106 264.56 74.2906 263.76 74.7106 262.91C75.1306 262.06 75.5906 261.11 76.0506 260.21C76.5106 259.31 76.8906 258.54 77.3206 257.71L78.7406 255.02C79.2006 254.16 79.6306 253.36 80.0706 252.56C80.5106 251.76 81.0706 250.78 81.5506 249.9L82.9306 247.48L84.4806 244.86L84.7106 244.48C85.1006 243.81 85.5006 243.15 85.9106 242.48C86.4406 241.62 86.9805 240.75 87.5305 239.89L87.6806 239.65C88.1206 238.95 88.5505 238.26 89.0005 237.57C89.4505 236.88 90.0506 235.97 90.5806 235.17L91.0305 234.49C91.4205 233.9 91.8006 233.31 92.2006 232.73C92.7406 231.94 93.2806 231.17 93.8206 230.4L94.3105 229.69L95.5106 227.98C96.0006 227.29 96.5106 226.6 97.0106 225.92L97.7906 224.86L98.9406 223.3L100.461 221.3L101.291 220.21L102.461 218.7L104.091 216.7L104.941 215.7L106.101 214.26L107.761 212.26L108.701 211.16L109.841 209.82L111.751 207.66L112.751 206.59L113.751 205.5C114.851 204.3 115.964 203.106 117.091 201.92L117.951 201.01C118.904 200.023 119.864 199.023 120.831 198.01L81.6306 216.08C78.1345 217.693 74.1518 217.901 70.507 216.659C66.8622 215.418 63.8344 212.822 62.0506 209.41C61.2306 207.84 60.4506 206.25 59.7206 204.67C58.9906 203.09 58.3506 201.61 57.7206 200.03V199.92C57.1006 198.36 56.5106 196.81 55.9606 195.23C55.9606 195.13 55.8906 195.03 55.8606 194.94C55.3406 193.44 54.8606 191.89 54.3906 190.31C54.3594 190.231 54.3327 190.151 54.3105 190.07C53.8605 188.52 53.4406 186.92 53.0506 185.31L52.9906 185.06C52.6406 183.59 52.3006 181.99 51.9906 180.4V180.26C51.6806 178.61 51.4106 176.96 51.1806 175.32C51.1762 175.286 51.1762 175.253 51.1806 175.22C49.0162 159.085 50.6333 142.667 55.9041 127.265C61.1748 111.862 69.9548 97.8959 81.5506 86.4695C81.5506 86.2095 81.5506 85.9495 81.5506 85.6895C81.565 79.0315 83.4472 72.5112 86.9833 66.8698C90.5194 61.2285 95.5675 56.6925 101.554 53.7776C107.54 50.8627 114.223 49.6859 120.845 50.381C127.467 51.0761 133.76 53.6151 139.011 57.7095C165.082 53.8584 191.645 60.0177 213.361 74.9495L213.431 74.9995C215.701 76.5595 217.931 78.2195 220.051 79.9395L220.151 80.0195C221.151 80.8695 222.241 81.7595 223.251 82.6495L223.481 82.8495C225.141 84.3195 226.781 85.8495 228.371 87.4795C228.638 79.1971 232.116 71.3432 238.069 65.5786C244.022 59.8139 251.984 56.5904 260.271 56.5895H329.011C337.292 56.5982 345.246 59.8252 351.193 65.589C357.14 71.3528 360.613 79.2023 360.881 87.4795L361.651 86.7095C361.951 86.4095 362.221 86.1395 362.501 85.8795L363.671 84.7595L364.461 84.0295L365.831 82.7995L366.451 82.2495C367.141 81.6495 367.811 81.0795 368.451 80.5195C379.706 71.2248 392.785 64.3926 406.843 60.4637C420.901 56.5349 435.627 55.5966 450.071 57.7095C455.311 53.5345 461.624 50.9242 468.283 50.1788C474.941 49.4335 481.675 50.5835 487.709 53.4965C493.743 56.4096 498.832 60.9671 502.39 66.6448C505.948 72.3224 507.83 78.8892 507.821 85.5895V86.2295C526.02 104.025 537.106 127.846 539.001 153.23C539.001 153.23 539.001 153.37 539.001 153.42C539.111 154.91 539.181 156.42 539.231 157.88C539.231 157.88 539.231 158.11 539.231 158.17C539.231 159.69 539.231 161.17 539.231 162.59V162.95C539.231 164.39 539.151 165.9 539.061 167.34C539.066 167.436 539.066 167.533 539.061 167.63C538.871 170.63 538.541 173.71 538.061 176.68V176.83C537.841 178.26 537.591 179.7 537.281 181.25L537.211 181.59C536.921 183.01 536.601 184.43 536.211 185.86L536.081 186.38C535.721 187.82 535.341 189.19 534.941 190.55L534.741 191.2C534.331 192.56 533.881 193.92 533.421 195.2L533.241 195.71C532.691 197.25 532.181 198.59 531.661 199.9L531.521 200.23V200.17L531.471 200.3C530.851 201.83 530.241 203.22 529.621 204.57C528.881 206.18 528.091 207.77 527.281 209.32C525.495 212.728 522.468 215.319 518.826 216.559C515.184 217.799 511.204 217.591 507.711 215.98L468.521 197.91C494.755 224.334 514.592 256.413 526.511 291.69C527.071 293.35 527.614 295.016 528.141 296.69C528.291 297.16 528.431 297.63 528.571 298.1L528.711 298.58C529.061 299.71 529.401 300.86 529.711 302.01C529.911 302.7 530.111 303.39 530.301 304.09C530.621 305.23 530.931 306.36 531.231 307.5L531.331 307.919C531.481 308.449 531.621 308.98 531.751 309.52C532.091 310.85 532.421 312.19 532.751 313.52L533.091 314.919C533.501 316.699 533.881 318.49 534.251 320.28C534.331 320.66 534.581 321.92 534.581 321.92C534.841 323.21 535.091 324.509 535.321 325.809C535.451 326.519 535.571 327.2 535.691 327.87C535.891 329.07 536.091 330.27 536.281 331.48C536.391 332.16 536.501 332.84 536.601 333.48C536.801 334.81 536.981 336.14 537.161 337.48C537.161 337.48 537.331 338.75 537.381 339.11C537.611 340.99 537.831 342.85 538.021 344.73C538.021 344.97 538.121 345.819 538.121 345.819C538.271 347.369 538.411 348.89 538.531 350.42C538.531 350.9 538.671 352.42 538.671 352.42C538.761 353.7 538.841 354.979 538.911 356.249C538.911 356.939 538.991 357.629 539.021 358.319C539.081 359.659 539.131 360.979 539.171 362.319C539.171 362.319 539.221 363.74 539.231 364.16C539.231 366.07 539.301 367.979 539.301 369.889C539.425 408.609 530.262 446.793 512.581 481.24C497.468 510.662 476.598 536.748 451.211 557.949L458.701 572.5C470.211 594.86 466.821 618.69 450.441 630.44C444.388 634.727 437.137 636.994 429.721 636.92V636.91Z" fill="#231F20"/>
<path d="M116.93 106.16C128.296 106.16 137.51 96.946 137.51 85.58C137.51 74.214 128.296 65 116.93 65C105.564 65 96.3496 74.214 96.3496 85.58C96.3496 96.946 105.564 106.16 116.93 106.16Z" fill="#293995"/>
<path d="M472.24 106.16C483.606 106.16 492.82 96.946 492.82 85.58C492.82 74.214 483.606 65 472.24 65C460.874 65 451.66 74.214 451.66 85.58C451.66 96.946 460.874 106.16 472.24 106.16Z" fill="#293995"/>
<path d="M329.011 71.5899H260.271C255.791 71.5899 251.495 73.3693 248.328 76.5368C245.16 79.7043 243.381 84.0004 243.381 88.4799V101.59C243.381 106.069 245.16 110.365 248.328 113.533C251.495 116.7 255.791 118.48 260.271 118.48H279.161V157.48H310.161V118.48H329.011C331.231 118.482 333.429 118.048 335.481 117.2C337.532 116.352 339.396 115.109 340.967 113.54C342.537 111.971 343.783 110.108 344.633 108.058C345.483 106.008 345.921 103.81 345.921 101.59V88.4799C345.921 86.2602 345.483 84.0622 344.633 82.0117C343.783 79.9612 342.537 78.0984 340.967 76.5297C339.396 74.9611 337.532 73.7174 335.481 72.8698C333.429 72.0222 331.231 71.5872 329.011 71.5899V71.5899Z" fill="#293995"/>
<path d="M159.723 130.792L131.531 143.804L156.87 198.704L185.062 185.692L159.723 130.792Z" fill="#293995"/>
<path d="M237.19 127.679C236.63 126.289 236.04 124.899 235.4 123.519C230.492 112.87 223.533 103.293 214.923 95.3328C206.313 87.3731 196.219 81.1872 185.218 77.1283C174.217 73.0695 162.524 71.2171 150.808 71.6771C139.091 72.1371 127.579 74.9004 116.93 79.8092C106.281 84.7181 96.7037 91.6763 88.7439 100.287C80.7842 108.897 74.5983 118.991 70.5394 129.992C66.4806 140.993 64.6283 152.685 65.0883 164.402C65.5483 176.119 68.3115 187.63 73.2203 198.279C73.887 199.659 74.5537 201.016 75.2203 202.349L237.19 127.679Z" fill="#FAF28E"/>
<path d="M235.4 123.519C230.491 112.871 223.533 103.293 214.923 95.3329C206.312 87.373 196.218 81.1871 185.217 77.1282C174.216 73.0694 162.524 71.2171 150.807 71.6772C139.09 72.1372 127.579 74.9006 116.93 79.8095C114.194 81.0624 111.524 82.4542 108.93 83.9795C108.93 83.9795 149.73 71.7295 201.66 144.049L237.16 127.68C236.63 126.29 236.01 124.899 235.4 123.519Z" fill="#FDF9CC"/>
<path d="M405.575 185.547L433.709 198.517L458.967 143.728L430.832 130.758L405.575 185.547Z" fill="#293995"/>
<path d="M352.111 127.679C352.671 126.289 353.261 124.899 353.901 123.519C363.815 102.013 381.866 85.3255 404.084 77.1283C426.301 68.9311 450.865 69.8955 472.371 79.8093C493.878 89.723 510.565 107.774 518.762 129.992C526.959 152.209 525.995 176.773 516.081 198.279C515.415 199.659 514.748 201.016 514.081 202.349L352.111 127.679Z" fill="#FAF28E"/>
<path d="M353.901 123.519C358.809 112.871 365.768 103.293 374.378 95.3329C382.988 87.373 393.082 81.1871 404.083 77.1282C415.084 73.0694 426.777 71.2171 438.493 71.6772C450.21 72.1372 461.722 74.9006 472.371 79.8095C475.107 81.0624 477.777 82.4542 480.371 83.9795C480.371 83.9795 439.571 71.7295 387.641 144.049L352.141 127.68C352.671 126.29 353.261 124.899 353.901 123.519Z" fill="#FDF9CC"/>
<path d="M441.69 618.249C451.77 611.009 453.31 594.779 445.36 579.359L417.91 526.049L362.01 566.219L403.73 609.279C415.75 621.739 431.62 625.479 441.69 618.249Z" fill="#293995"/>
<path d="M294.65 599.589C421.482 599.589 524.3 496.771 524.3 369.939C524.3 243.107 421.482 140.289 294.65 140.289C167.818 140.289 65 243.107 65 369.939C65 496.771 167.818 599.589 294.65 599.589Z" fill="#F16465"/>
<path d="M145.09 618.249C135.01 611.009 133.48 594.779 141.42 579.359L168.87 526.049L224.87 566.219L183.11 609.279C171.01 621.739 155.17 625.479 145.09 618.249Z" fill="#293995"/>
<path d="M282.85 599.29C403.165 599.29 500.7 496.606 500.7 369.94C500.7 243.273 403.165 140.59 282.85 140.59C162.535 140.59 65 243.273 65 369.94C65 496.606 162.535 599.29 282.85 599.29Z" fill="#D91F26"/>
<path opacity="0.62" d="M512.26 296.369C512.26 296.489 495.44 561.009 110.74 507.499C132.108 536.108 159.862 559.332 191.791 575.32C223.72 591.308 258.942 599.618 294.65 599.589C421.48 599.589 524.3 496.769 524.3 369.939C524.327 344.923 520.26 320.071 512.26 296.369V296.369Z" fill="#7C131A"/>
<path d="M294.65 548.099C393.045 548.099 472.81 468.334 472.81 369.939C472.81 271.544 393.045 191.779 294.65 191.779C196.255 191.779 116.49 271.544 116.49 369.939C116.49 468.334 196.255 548.099 294.65 548.099Z" fill="#F8F9E4"/>
<g style="mix-blend-mode:multiply" opacity="0.47">
<path d="M294.65 191.779C249.781 191.716 206.551 208.64 173.65 239.149C211.051 214.707 256.27 205.21 300.344 212.54C344.418 219.87 384.129 243.492 411.605 278.724C439.081 313.956 452.316 358.226 448.687 402.757C445.057 447.289 424.829 488.831 392.01 519.149C424.155 498.168 448.664 467.366 461.888 431.329C475.113 395.293 476.345 355.949 465.401 319.155C454.458 282.362 431.924 250.087 401.155 227.135C370.386 204.183 333.027 191.783 294.64 191.779H294.65Z" fill="#EED979"/>
</g>
<path d="M452.941 369.949V369.939C452.941 365.046 448.975 361.079 444.081 361.079H411.201C406.308 361.079 402.341 365.046 402.341 369.939V369.949C402.341 374.842 406.308 378.809 411.201 378.809H444.081C448.975 378.809 452.941 374.842 452.941 369.949Z" fill="#A074B2"/>
<path d="M186.961 369.949V369.939C186.961 365.046 182.994 361.079 178.101 361.079H145.221C140.328 361.079 136.361 365.046 136.361 369.939V369.949C136.361 374.842 140.328 378.809 145.221 378.809H178.101C182.994 378.809 186.961 374.842 186.961 369.949Z" fill="#A074B2"/>
<path d="M294.64 528.23H294.65C299.543 528.23 303.51 524.264 303.51 519.37V486.49C303.51 481.597 299.543 477.63 294.65 477.63H294.64C289.747 477.63 285.78 481.597 285.78 486.49V519.37C285.78 524.264 289.747 528.23 294.64 528.23Z" fill="#A074B2"/>
<path d="M294.64 262.25H294.65C299.543 262.25 303.51 258.283 303.51 253.39V220.51C303.51 215.617 299.543 211.65 294.65 211.65H294.64C289.747 211.65 285.78 215.617 285.78 220.51V253.39C285.78 258.283 289.747 262.25 294.64 262.25Z" fill="#A074B2"/>
<path d="M236.69 477.652L236.699 477.657C244.007 481.708 253.216 479.068 257.267 471.759L311.265 374.344C315.316 367.036 312.675 357.827 305.367 353.776L305.358 353.771C298.05 349.72 288.841 352.36 284.79 359.669L230.792 457.084C226.741 464.392 229.382 473.601 236.69 477.652Z" fill="#62398B"/>
<path d="M251.633 286.347L251.625 286.352C244.4 290.55 241.946 299.81 246.145 307.035L285.152 374.164C289.35 381.389 298.611 383.843 305.835 379.645L305.844 379.64C313.069 375.441 315.523 366.181 311.324 358.956L272.317 291.827C268.118 284.602 258.858 282.148 251.633 286.347Z" fill="#62398B"/>
<path d="M221.081 252.39C226.538 252.39 230.961 247.966 230.961 242.51C230.961 237.053 226.538 232.63 221.081 232.63C215.625 232.63 211.201 237.053 211.201 242.51C211.201 247.966 215.625 252.39 221.081 252.39Z" fill="#A074B2"/>
<path d="M167.22 306.249C172.676 306.249 177.1 301.826 177.1 296.369C177.1 290.913 172.676 286.489 167.22 286.489C161.763 286.489 157.34 290.913 157.34 296.369C157.34 301.826 161.763 306.249 167.22 306.249Z" fill="#A074B2"/>
<path d="M167.22 453.399C172.676 453.399 177.1 448.975 177.1 443.519C177.1 438.062 172.676 433.639 167.22 433.639C161.763 433.639 157.34 438.062 157.34 443.519C157.34 448.975 161.763 453.399 167.22 453.399Z" fill="#A074B2"/>
<path d="M221.081 507.26C226.538 507.26 230.961 502.837 230.961 497.38C230.961 491.923 226.538 487.5 221.081 487.5C215.625 487.5 211.201 491.923 211.201 497.38C211.201 502.837 215.625 507.26 221.081 507.26Z" fill="#A074B2"/>
<path d="M368.22 507.26C373.676 507.26 378.1 502.837 378.1 497.38C378.1 491.923 373.676 487.5 368.22 487.5C362.763 487.5 358.34 491.923 358.34 497.38C358.34 502.837 362.763 507.26 368.22 507.26Z" fill="#A074B2"/>
<path d="M422.091 453.399C427.548 453.399 431.971 448.975 431.971 443.519C431.971 438.062 427.548 433.639 422.091 433.639C416.634 433.639 412.211 438.062 412.211 443.519C412.211 448.975 416.634 453.399 422.091 453.399Z" fill="#A074B2"/>
<path d="M422.091 306.249C427.548 306.249 431.971 301.826 431.971 296.369C431.971 290.913 427.548 286.489 422.091 286.489C416.634 286.489 412.211 290.913 412.211 296.369C412.211 301.826 416.634 306.249 422.091 306.249Z" fill="#A074B2"/>
<path d="M368.22 252.39C373.676 252.39 378.1 247.966 378.1 242.51C378.1 237.053 373.676 232.63 368.22 232.63C362.763 232.63 358.34 237.053 358.34 242.51C358.34 247.966 362.763 252.39 368.22 252.39Z" fill="#A074B2"/>
<g style="mix-blend-mode:multiply" opacity="0.47">
<path d="M378.101 92.0498C367.768 100.584 359.496 111.342 353.901 123.52C353.261 124.9 352.671 126.29 352.111 127.68L514.111 202.35C514.811 201.016 515.478 199.66 516.111 198.28C525.293 178.421 526.838 155.876 520.451 134.95V134.95C458.391 177.83 378.101 92.0498 378.101 92.0498Z" fill="#EED979"/>
</g>
<path d="M436.71 114.83C444.784 114.83 451.33 108.284 451.33 100.21C451.33 92.1354 444.784 85.5898 436.71 85.5898C428.635 85.5898 422.09 92.1354 422.09 100.21C422.09 108.284 428.635 114.83 436.71 114.83Z" fill="white"/>
<g style="mix-blend-mode:multiply" opacity="0.47">
<path d="M235.4 123.52C227.166 105.604 213.216 90.9293 195.74 81.7998V81.7998C195.74 81.7998 187.01 157.9 65.0801 164.59C65.5672 176.231 68.3327 187.663 73.2201 198.24C73.8867 199.62 74.5534 200.976 75.2201 202.31L237.22 127.64C236.63 126.29 236.01 124.9 235.4 123.52Z" fill="#EED979"/>
</g>
<path d="M151.211 109.19C158.772 109.19 164.901 103.06 164.901 95.4996C164.901 87.9388 158.772 81.8096 151.211 81.8096C143.651 81.8096 137.521 87.9388 137.521 95.4996C137.521 103.06 143.651 109.19 151.211 109.19Z" fill="white"/>
<path d="M497.916 316.642C505.231 313.919 504.526 293.892 496.341 271.911C488.157 249.93 475.593 234.32 468.278 237.043C460.963 239.767 461.668 259.793 469.852 281.774C478.037 303.755 490.601 319.366 497.916 316.642Z" fill="white"/>
</g>
<defs>
<clipPath id="clip0_4969_298">
<rect width="489.3" height="586.91" fill="white" transform="translate(50 50)"/>
</clipPath>
</defs>
</svg>
