<svg width="972" height="966" viewBox="0 0 972 966" fill="none" xmlns="http://www.w3.org/2000/svg">
<g clip-path="url(#clip0_4906_1505)">
<path d="M457.77 965.482C586.778 965.482 691.36 943.365 691.36 916.082C691.36 888.799 586.778 866.682 457.77 866.682C328.762 866.682 224.18 888.799 224.18 916.082C224.18 943.365 328.762 965.482 457.77 965.482Z" fill="#A7A9AC"/>
<path d="M400.02 931.081C392.502 931.083 385.036 929.846 377.92 927.421L376.26 926.831C368.867 924.101 362.002 920.112 355.97 915.041C355.3 914.481 354.63 913.891 353.97 913.301C350.78 910.412 347.867 907.232 345.27 903.801C344.12 902.281 343.03 900.691 342.01 899.071C340.99 897.451 340.01 895.761 339.14 894.071C336.435 888.826 334.418 883.253 333.14 877.491L300.92 733.251H298.13C289.647 733.238 281.516 729.862 275.517 723.864C269.519 717.865 266.143 709.734 266.13 701.251V630.921C266.143 622.438 269.519 614.306 275.517 608.308C281.516 602.31 289.647 598.934 298.13 598.921H336.43C330.43 590.251 324.17 581.591 317.67 573.001C314.3 568.541 310.78 564.001 307.18 559.451C306.062 562.795 304.681 566.045 303.05 569.171C302.227 570.76 301.126 572.189 299.8 573.391L276.14 594.761C273.391 597.275 269.805 598.675 266.08 598.691H265.93C265.162 599.901 264.226 600.995 263.15 601.941L224.07 636.291C221.333 638.695 217.814 640.021 214.17 640.021C213.575 640.022 212.981 639.989 212.39 639.921C211.057 639.768 209.751 639.431 208.51 638.921C205.716 641.603 201.993 643.101 198.12 643.101C197.495 643.104 196.87 643.067 196.25 642.991C196.08 642.991 178.62 640.801 157.35 639.781L151 639.521C148.05 639.421 145.15 639.351 142.36 639.311H140.14H136.9H133.6C132.13 639.311 130.67 639.311 129.21 639.381C127.06 639.381 124.97 639.511 122.99 639.601L120.74 639.691C118.74 639.811 116.82 639.941 114.98 640.101H114.6C110.82 640.431 107.29 640.871 104.12 641.401L103.54 641.501C101.6 641.841 99.76 642.221 98.08 642.641L97.4 642.811C96.13 643.141 95 643.481 94.02 643.811C91.8582 644.547 89.5567 644.781 87.2911 644.493C85.0254 644.205 82.8554 643.403 80.9466 642.149C79.0377 640.896 77.4404 639.222 76.2764 637.257C75.1124 635.292 74.4125 633.087 74.23 630.811C73.71 624.471 71.14 612.351 61.82 590.621L60.95 588.621L59.18 584.621C58.58 583.291 57.97 581.971 57.37 580.621C46.51 557.181 34.48 536.761 34.37 536.561C33.2345 534.637 32.5429 532.485 32.3457 530.26C32.1485 528.035 32.4506 525.794 33.23 523.701C31.237 521.75 29.8275 519.281 29.1598 516.573C28.492 513.865 28.5926 511.025 29.45 508.371L45.45 458.861C45.8879 457.489 46.5247 456.188 47.34 455.001C45.8044 451.562 45.6187 447.671 46.82 444.101L57.05 413.891C57.6221 412.197 58.4925 410.619 59.62 409.231C65.0409 402.563 71.6657 396.973 79.15 392.751C71.35 385.831 61.06 377.061 50.15 368.751L48.41 367.431L45.92 365.571C44.25 364.341 42.57 363.121 40.92 361.931C39.92 361.231 38.92 360.531 37.92 359.851L36.09 358.691C34 357.281 31.91 355.921 29.88 354.641L28.6 353.851C24.7726 351.462 20.813 349.292 16.74 347.351L15.34 346.691C13.55 345.901 11.87 345.251 10.34 344.751C8.16978 344.045 6.18914 342.854 4.54891 341.267C2.90868 339.68 1.6521 337.74 0.874847 335.595C0.0975946 333.449 -0.17984 331.154 0.0636667 328.885C0.307173 326.616 1.0652 324.433 2.28004 322.501C5.12014 317.729 7.46564 312.679 9.28004 307.431L9.68004 306.311C10.8 303.141 11.93 299.651 13.01 295.931C13.27 295.061 13.52 294.191 13.76 293.311C14.5 290.661 15.24 287.871 15.95 285.001C16.3 283.591 16.64 282.181 16.95 280.761C17.26 279.341 17.54 278.191 17.83 276.901C18.02 276.051 18.21 275.211 18.39 274.381C18.98 271.661 19.57 268.821 20.14 265.921C20.79 262.631 21.43 259.201 22.04 255.741C22.52 253.001 22.97 250.361 23.38 247.841C23.74 245.601 24.0734 243.471 24.38 241.451L24.45 240.961C24.75 238.961 25.03 237.061 25.27 235.311L25.33 234.921C25.63 232.771 25.89 230.831 26.1 229.181L26.26 227.951C26.63 224.951 26.82 223.261 26.83 223.191C27.0712 220.966 27.8071 218.824 28.9837 216.92C30.1603 215.017 31.7479 213.401 33.63 212.191C33.2111 209.44 33.5653 206.628 34.6532 204.067C35.741 201.506 37.5196 199.299 39.79 197.691L82.25 167.691C83.4209 166.863 84.7038 166.207 86.06 165.741C86.9064 162.077 89.0977 158.865 92.2 156.741L118.49 138.691C119.96 137.671 121.603 136.929 123.34 136.501C128.744 135.162 134.292 134.491 139.86 134.501C143.116 134.503 146.367 134.733 149.59 135.191C150.38 132.47 151.906 130.02 154 128.111C155.93 126.351 166.77 117.311 190.52 112.661C192.714 112.233 194.945 112.019 197.18 112.021C222.18 112.021 250.65 138.761 260.7 149.081C270.7 152.741 294.96 163.671 303.05 186.021C306.192 194.277 307.337 203.158 306.39 211.941C307.05 212.471 307.7 213.011 308.39 213.561L308.49 213.651C310.06 214.961 311.66 216.331 313.25 217.741C313.86 218.271 314.47 218.831 315.08 219.391L316.36 220.551L317.92 221.961C319.04 223.011 320.17 224.101 321.3 225.191L321.69 225.561L322.49 226.331C323.79 227.601 325.1 228.911 326.39 230.241L326.99 230.841C328.31 232.191 329.69 233.651 331.21 235.281L331.39 235.471C348.57 253.961 364.81 276.471 379.7 302.471C404.6 345.881 425.51 398.671 442.02 459.731C445.013 444.844 448.303 430.198 451.89 415.791C456.89 395.661 462.69 375.471 469.05 355.791V355.691C469.91 353.041 470.77 350.411 471.65 347.781L472.26 345.971C473.26 342.901 474.33 339.851 475.36 336.881C470.93 325.481 462.99 310.731 452.15 293.881C449.68 290.041 447.04 286.041 444.28 281.991C440.9 276.991 437.28 271.891 433.59 266.771L432.97 265.911C425.45 255.551 419.97 248.661 419.97 248.591C418.461 246.69 417.437 244.451 416.984 242.066C416.531 239.682 416.664 237.223 417.37 234.901C414.844 233.311 412.85 231.005 411.642 228.276C410.434 225.547 410.068 222.519 410.59 219.581L420.7 162.471C421.012 160.735 421.624 159.066 422.51 157.541C421.328 155.888 420.494 154.011 420.059 152.026C419.624 150.04 419.597 147.987 419.98 145.991L426.67 111.081C427.006 109.313 427.656 107.619 428.59 106.081C433.857 97.3763 440.847 89.839 449.13 83.9309C447.273 81.1749 446.364 77.8894 446.54 74.5709C446.68 71.7409 448.16 56.5009 463.09 34.5709C477.36 13.5709 514.54 9.22087 543.22 9.22087H546.22C553.11 6.04087 568.06 0.160871 584.22 0.160871C592.299 0.0551732 600.299 1.76382 607.63 5.16087C625.32 13.5809 634.42 26.2709 638.56 38.7109C644.624 36.3817 651.064 35.1852 657.56 35.1809C666.76 35.2826 675.82 37.4493 684.07 41.5209C707.67 52.7509 716.9 80.8109 719.69 91.8009C726.112 99.4994 732.038 107.599 737.43 116.051C751.95 139.051 756.86 157.431 752.43 172.231C744.84 197.631 733.95 208.391 731.85 210.291C729.39 212.522 726.268 213.888 722.96 214.181C723.568 224.274 722.133 234.386 718.74 243.911C723.334 242.573 728.095 241.9 732.88 241.911C735.851 241.901 738.817 242.162 741.74 242.691C744.09 231.191 750.74 219.031 765.02 209.351C773.41 203.691 783.83 200.811 796.02 200.811C804.478 200.897 812.887 202.117 821.02 204.441C831.506 202.703 842.111 201.784 852.74 201.691C874.93 201.691 890.14 206.451 899.23 216.251C915.69 233.981 919.13 247.671 919.66 250.251C920.226 253.013 920.022 255.877 919.07 258.531C926.882 262.685 933.813 268.316 939.48 275.111C940.629 276.484 941.523 278.052 942.12 279.741L952.74 309.831C953.995 313.384 953.866 317.278 952.38 320.741C953.202 321.916 953.852 323.202 954.31 324.561L970.95 373.861C971.842 376.504 971.98 379.343 971.348 382.06C970.715 384.777 969.338 387.264 967.37 389.241C968.172 391.325 968.498 393.562 968.325 395.789C968.152 398.016 967.484 400.175 966.37 402.111C966.37 402.181 962.71 408.521 957.73 418.111C955.73 421.921 953.81 425.741 951.97 429.481C950.81 431.831 949.62 434.281 948.43 436.801L947.53 438.691C946.93 439.971 946.34 441.261 945.74 442.551C945.44 443.211 945.14 443.861 944.85 444.551C931.69 473.601 928.29 489.051 927.76 496.901C927.598 499.174 926.92 501.38 925.777 503.352C924.635 505.324 923.058 507.009 921.167 508.281C919.276 509.552 917.12 510.376 914.862 510.69C912.605 511.003 910.306 510.799 908.14 510.091C902.84 508.361 892.4 506.261 872.78 506.091H870.62H866.28H864.09L859.72 506.191C856.29 506.281 852.72 506.431 849.02 506.621C825.85 507.831 806.02 510.551 805.85 510.621C805.149 510.696 804.444 510.719 803.74 510.691C799.954 510.694 796.307 509.265 793.53 506.691C790.965 507.778 788.148 508.129 785.394 507.706C782.641 507.282 780.059 506.099 777.94 504.291L738.41 470.461C737.317 469.526 736.364 468.438 735.58 467.231H735.22C731.579 467.236 728.061 465.909 725.33 463.501L701.39 442.391C700.048 441.208 698.927 439.796 698.08 438.221C693.885 430.428 691.233 421.899 690.27 413.101C687.469 412.986 684.754 412.104 682.42 410.551C680.23 409.111 668.82 400.811 658.5 378.921C658.22 378.328 657.96 377.728 657.72 377.121C595.13 443.431 556.26 532.441 534.01 598.901H604.74C613.223 598.914 621.355 602.29 627.353 608.288C633.351 614.286 636.727 622.418 636.74 630.901V701.211C636.727 709.694 633.351 717.825 627.353 723.824C621.355 729.822 613.223 733.198 604.74 733.211H601.95L569.74 877.481C569.09 880.381 568.255 883.237 567.24 886.031C562.423 899.233 553.66 910.633 542.14 918.684C530.621 926.734 516.904 931.045 502.85 931.031L400.02 931.081ZM346.38 502.921L348.89 505.921L351.31 508.921C357.82 516.921 364.2 525.081 370.31 533.121C380.54 546.641 390.19 560.231 399.18 573.771C378.8 454.771 348.27 381.501 325.11 339.831C322.837 335.738 320.503 331.738 318.11 327.831C317.55 331.431 316.84 335.321 315.96 339.321C311.45 359.841 304.54 373.841 294.96 381.841L296.54 382.841C316.44 395.911 321.45 422.081 322.68 432.651C327.407 440.247 331.652 448.133 335.39 456.261C343.54 474.211 346.56 488.831 344.5 500.621L346.38 502.921ZM541.65 347.631C540.863 349.804 540.077 352.004 539.29 354.231C522.8 401.355 510.303 449.782 501.93 499.001C519.5 459.481 539.25 423.701 561.01 392.001C573.269 374.094 586.674 356.998 601.14 340.821C593.19 341.151 582.14 341.751 570 342.821L567.67 343.031C566.1 343.181 564.52 343.331 562.93 343.501C558.77 343.921 554.71 344.391 550.86 344.891L548.14 345.251C546.14 345.518 544.14 345.801 542.14 346.101C542.15 346.261 541.65 347.631 541.65 347.631Z" fill="#231F20"/>
<path d="M734.62 259.2C672.88 287.12 618.62 334.68 573.37 400.53C537.74 452.44 507.49 515.82 483.59 588.91C479.91 600.17 476.493 611.271 473.34 622.211C482.12 448.88 528.57 325.21 568.55 249.07C617.46 155.96 667.49 111.9 667.99 111.47L644.46 84.2305C642.25 86.1305 589.74 132.01 537.74 230.4C507.42 287.72 483.44 351.26 466.47 419.25C456.807 458.202 449.501 497.7 444.59 537.531C441.617 522.197 438.417 507.287 434.99 492.8C417.83 420.41 394.85 358.8 366.71 309.8C346.15 273.96 323.34 245.46 298.9 225.07C279.84 209.18 266.47 204.07 265.01 203.56L252.74 237.37L252.52 237.29C252.94 237.46 294.85 254.56 338.21 332.56C369.44 388.74 406.21 485.8 424.72 647C407.33 612.67 385.09 577.531 358.34 542.201C301.61 467.26 244.86 417.82 242.48 415.75L218.91 442.971C219.47 443.451 275.17 491.971 329.64 563.971C379.2 629.441 437.64 727.97 434.41 825.56L470.35 827.49C470.43 826.42 478.82 719.1 518.06 599.43C553.64 490.81 622.74 349.34 749.46 292L734.62 259.2Z" fill="#66BE64"/>
<g style="mix-blend-mode:multiply">
<path d="M339.67 518.4C289.77 456.95 244.59 417.59 242.47 415.75L218.9 442.97C219.42 443.42 267.39 485.2 317.81 548.68C326.117 539.364 333.443 529.217 339.67 518.4Z" fill="#4CA84E"/>
</g>
<g style="mix-blend-mode:multiply">
<path d="M500.99 354.17C502.09 353.88 503.21 353.59 504.35 353.32L505.45 353.05C509.75 352.05 514.24 351.12 518.83 350.29L522.03 349.73L525.14 349.24C537.184 314.85 551.691 281.374 568.55 249.07C617.46 155.96 667.49 111.9 667.99 111.47L644.46 84.2305C642.25 86.1305 589.74 132.01 537.74 230.4C515.876 272.011 497.674 315.445 483.34 360.21C488.683 357.867 494.204 355.951 499.85 354.48L500.99 354.17Z" fill="#4CA84E"/>
</g>
<g style="mix-blend-mode:multiply">
<path d="M749.46 292.001L734.62 259.201C716.415 267.476 698.977 277.345 682.51 288.691C681.356 293.342 680.626 298.088 680.33 302.871C680.33 302.871 661.33 332.041 659.22 354.301C685.44 328.941 715.36 307.421 749.46 292.001Z" fill="#4CA84E"/>
</g>
<path d="M758.32 267.232C758.32 267.232 737.52 246.062 710.53 264.302C692.53 276.482 691.33 306.832 691.33 306.832C691.33 306.832 662.2 351.572 672.07 372.532C681.07 391.722 690.68 398.042 690.68 398.042C690.68 398.042 688.68 356.802 729.76 320.692C730.851 319.687 732.257 319.095 733.738 319.017C735.218 318.938 736.679 319.378 737.87 320.262C739.62 321.552 740.69 323.622 738.99 326.912C735.11 334.432 688.14 387.912 711.3 431.142L735.24 452.212C735.24 452.212 722.74 390.162 755.74 353.552C755.74 353.552 763.31 347.442 763.42 358.482C763.53 369.522 733.78 421.782 748.12 459.032L787.74 492.862C787.74 492.862 767.49 439.512 784.94 395.632C785.465 394.236 786.492 393.085 787.819 392.405C789.147 391.724 790.68 391.563 792.12 391.952C794.8 392.662 797.22 394.792 796.18 400.492C794.1 411.882 786.7 463.312 803.83 495.722C803.83 495.722 879.95 485.122 912.83 495.832L758.32 267.232Z" fill="#66BE64"/>
<path d="M758.32 267.231C758.32 267.231 746.44 240.031 773.43 221.791C791.43 209.611 820.06 219.851 820.06 219.851C820.06 219.851 872.44 209.511 888.2 226.491C902.63 242.041 904.92 253.271 904.92 253.271C904.92 253.271 867.41 236.021 818.58 260.671C817.241 261.309 816.167 262.394 815.542 263.74C814.918 265.085 814.783 266.606 815.16 268.041C815.7 270.141 817.21 271.911 820.9 271.561C829.33 270.771 896.5 247.151 927.9 284.751L938.52 314.831C938.52 314.831 885.6 280.121 839.32 297.071C839.32 297.071 830.83 301.821 841.03 306.071C851.23 310.321 910.81 302.181 940.03 329.391L956.74 378.691C956.74 378.691 914.74 339.971 867.53 339.791C866.039 339.758 864.589 340.282 863.463 341.26C862.337 342.238 861.616 343.6 861.44 345.081C861.1 347.831 862.18 350.871 867.85 352.031C879.2 354.351 929.67 366.681 953.35 394.651C953.35 394.651 915.12 461.321 912.79 495.831L758.32 267.231Z" fill="#4CA84E"/>
<g style="mix-blend-mode:multiply">
<path d="M867.53 339.79C914.74 339.97 956.74 378.69 956.74 378.69L940.11 329.39C910.89 302.18 851.31 310.28 841.11 306.07C845.8 358.84 809.21 383.72 792.72 392.17C795.14 393.03 797.14 395.25 796.18 400.52C794.1 411.91 786.7 463.34 803.83 495.75C803.83 495.75 879.95 485.15 912.83 495.86C915.16 461.35 953.39 394.68 953.39 394.68C929.71 366.68 879.24 354.38 867.89 352.06C862.22 350.9 861.14 347.86 861.48 345.11C861.649 343.631 862.361 342.267 863.479 341.284C864.597 340.301 866.041 339.768 867.53 339.79Z" fill="#4CA84E"/>
</g>
<g style="mix-blend-mode:multiply">
<path d="M264.97 203.521L252.74 237.371L252.52 237.292C252.88 237.442 284.07 250.172 320.45 303.642C321.25 297.122 321.45 292.732 321.45 292.732C321.45 292.732 332.17 276.732 332.8 259.892C322.615 247.204 311.229 235.53 298.8 225.031C297.09 223.611 295.44 222.281 293.8 221.031C292.706 221.053 291.614 221.14 290.53 221.292C290.53 221.292 291.28 220.851 292.44 219.991C276.89 208.041 266.26 203.991 264.97 203.521Z" fill="#4CA84E"/>
</g>
<path d="M274.42 236.62C274.42 236.62 300.03 221.62 288.95 190.99C281.54 170.53 252.4 161.99 252.4 161.99C252.4 161.99 216.13 122.8 193.4 127.26C172.58 131.33 164.12 139.07 164.12 139.07C164.12 139.07 204.6 147.19 229.57 195.87C230.284 197.178 230.517 198.694 230.228 200.156C229.939 201.618 229.147 202.932 227.99 203.87C226.32 205.25 224.05 205.78 221.28 203.33C214.93 197.72 174.53 139.1 126.98 151L100.74 169.02C100.74 169.02 163.95 172.11 191.39 213.02C191.39 213.02 195.46 221.86 184.73 219.26C174 216.66 130.6 175.05 90.9701 179.85L48.5101 209.92C48.5101 209.92 105.18 203.32 143.51 230.97C144.735 231.821 145.598 233.097 145.933 234.55C146.267 236.004 146.049 237.529 145.32 238.83C143.98 241.26 141.32 243.09 136.05 240.69C125.51 235.88 77.4501 216.14 41.8401 224.82C41.8401 224.82 33.5101 301.22 15.0901 330.49L274.42 236.62Z" fill="#66BE64"/>
<path d="M274.42 236.621C274.42 236.621 303.7 231.751 314.79 262.381C322.19 282.841 305.27 308.061 305.27 308.061C305.27 308.061 302.49 361.381 282.18 372.511C263.57 382.711 252.12 382.181 252.12 382.181C252.12 382.181 278.02 350.031 266.05 296.651C265.759 295.197 264.969 293.889 263.817 292.955C262.665 292.02 261.223 291.517 259.74 291.531C257.57 291.531 255.48 292.581 254.92 296.241C253.63 304.611 260.11 375.511 215.97 396.811L184.21 399.761C184.21 399.761 230.8 356.931 225.67 307.901C225.67 307.901 223.14 298.511 216.56 307.371C209.98 316.231 203.27 375.981 169.74 397.691L117.87 401.771C117.87 401.771 165.64 370.571 177.36 324.771C177.757 323.334 177.604 321.799 176.931 320.468C176.258 319.137 175.113 318.104 173.72 317.571C171.13 316.571 167.92 316.871 165.41 322.081C160.41 332.521 136.09 378.451 103.18 394.571C103.18 394.571 47.87 341.201 14.99 330.511L274.42 236.621Z" fill="#4CA84E"/>
<g style="mix-blend-mode:multiply">
<path d="M177.37 324.78C165.65 370.53 117.88 401.78 117.88 401.78L169.74 397.69C203.26 376.01 209.97 316.26 216.55 307.4C164.23 299.05 149.06 257.48 144.89 239.4C143.46 241.54 140.82 242.94 135.95 240.72C125.41 235.91 77.35 216.17 41.74 224.85C41.74 224.85 33.41 301.25 14.99 330.52C47.87 341.21 103.18 394.58 103.18 394.58C136.09 378.46 160.38 332.53 165.41 322.09C167.92 316.88 171.13 316.58 173.72 317.58C175.115 318.111 176.262 319.143 176.937 320.475C177.612 321.806 177.766 323.341 177.37 324.78Z" fill="#4CA84E"/>
</g>
<path d="M625.4 66.0713C625.4 66.0713 633.96 34.1213 601.17 18.5213C579.27 8.10133 549.46 24.1513 549.46 24.1513C549.46 24.1513 490 21.4913 475.46 42.8413C462.14 62.3813 461.46 75.1513 461.46 75.1513C461.46 75.1513 499.92 49.8713 557.86 68.9013C559.442 69.3809 560.807 70.3975 561.72 71.7757C562.633 73.154 563.036 74.8076 562.86 76.4513C562.61 78.8613 561.23 81.0613 557.11 81.2913C547.74 81.8213 469.74 66.9913 441.38 113.691L434.74 148.601C434.74 148.601 487.28 101.521 541.12 112.481C541.12 112.481 551.26 116.301 540.72 122.651C530.18 129.001 463.17 130.011 435.5 164.871L425.34 221.981C425.34 221.981 465.11 172.341 517.14 164.261C518.778 163.974 520.465 164.309 521.869 165.2C523.273 166.092 524.294 167.476 524.73 169.081C525.57 172.081 524.89 175.591 518.83 177.811C506.74 182.261 453.14 204.261 431.74 239.051C431.74 239.051 485 306.151 493.32 343.791L625.4 66.0713Z" fill="#66BE64"/>
<path d="M625.4 66.0709C625.4 66.0709 644.8 39.2709 677.59 54.8709C699.49 65.2909 705.84 98.5509 705.84 98.5509C705.84 98.5509 745.42 143.001 738.03 167.751C731.26 190.411 721.74 198.971 721.74 198.971C721.74 198.971 717.09 153.181 665.74 120.231C664.37 119.31 662.723 118.895 661.08 119.058C659.438 119.22 657.903 119.95 656.74 121.121C655.03 122.821 654.19 125.281 656.61 128.631C662.14 136.271 722.83 187.411 704.51 238.881L681.74 266.111C681.74 266.111 685.12 195.641 642.64 160.791C642.64 160.791 633.28 155.321 635 167.511C636.72 179.701 678.22 232.321 668.63 275.781L630.66 319.691C630.66 319.691 644.08 257.521 617.53 212.061C616.718 210.609 615.394 209.513 613.817 208.985C612.239 208.458 610.521 208.539 609 209.211C606.16 210.431 603.85 213.211 606 219.291C610.19 231.501 626.92 286.951 613.45 325.531C613.45 325.531 527.79 326.531 493.33 343.831L625.4 66.0709Z" fill="#4CA84E"/>
<g style="mix-blend-mode:multiply">
<path d="M617.53 212.021C644.08 257.481 630.66 319.691 630.66 319.691L668.59 275.811C678.18 232.351 636.69 179.721 634.96 167.541C586.96 201.911 542.34 180.841 524.89 169.791C525.43 172.611 524.43 175.791 518.83 177.841C506.74 182.261 453.14 204.261 431.74 239.051C431.74 239.051 485 306.151 493.32 343.791C527.78 326.501 613.44 325.491 613.44 325.491C626.91 286.911 610.18 231.491 605.99 219.251C603.89 213.151 606.2 210.391 608.99 209.171C610.513 208.496 612.232 208.414 613.812 208.941C615.392 209.468 616.718 210.567 617.53 212.021Z" fill="#4CA84E"/>
</g>
<path d="M240.55 398.97C240.55 398.97 252.07 371.62 224.83 353.74C206.64 341.8 178.19 352.42 178.19 352.42C178.19 352.42 125.67 342.78 110.19 359.96C95.97 375.7 93.82 386.96 93.82 386.96C93.82 386.96 131.1 369.2 180.26 393.21C181.607 393.83 182.695 394.9 183.338 396.236C183.981 397.573 184.137 399.091 183.78 400.53C183.26 402.64 181.78 404.43 178.08 404.13C169.64 403.44 102.16 380.72 71.23 418.74L61 448.95C61 448.95 113.46 413.54 160 429.88C160 429.88 168.54 434.52 158.4 438.88C148.26 443.24 88.57 435.88 59.72 463.51L43.72 513.03C43.72 513.03 85.14 473.78 132.37 472.98C133.859 472.927 135.315 473.43 136.453 474.392C137.592 475.353 138.332 476.703 138.53 478.18C138.91 480.93 137.87 483.99 132.21 485.18C120.84 487.69 70.53 500.69 47.23 528.98C47.23 528.98 86.34 595.13 89.13 629.6L240.55 398.97Z" fill="#66BE64"/>
<path d="M240.55 398.971C240.55 398.971 261.06 377.531 288.3 395.411C306.49 407.351 308.06 437.691 308.06 437.691C308.06 437.691 337.78 482.051 328.19 503.131C319.4 522.441 309.92 528.881 309.92 528.881C309.92 528.881 311.39 487.621 269.82 452.061C268.724 451.073 267.32 450.497 265.846 450.429C264.373 450.362 262.921 450.808 261.74 451.691C260.01 453.001 258.96 455.081 260.74 458.351C264.74 465.831 312.4 518.701 289.82 562.201L266.08 583.691C266.08 583.691 277.71 521.481 244.23 485.301C244.23 485.301 236.58 479.301 236.62 490.301C236.66 501.301 267.1 553.191 253.25 590.631L214.17 624.981C214.17 624.981 233.74 571.371 215.68 527.691C215.136 526.303 214.093 525.166 212.757 524.505C211.42 523.843 209.885 523.702 208.45 524.111C205.78 524.851 203.38 527.021 204.5 532.701C206.73 544.071 214.81 595.391 198.12 628.021C198.12 628.021 121.86 618.441 89.1201 629.581L240.55 398.971Z" fill="#4CA84E"/>
<g style="mix-blend-mode:multiply">
<path d="M215.68 527.691C233.68 571.351 214.17 624.951 214.17 624.951L253.25 590.601C267.1 553.161 236.66 501.301 236.62 490.271C189.73 514.931 152.67 490.751 138.52 478.791C138.66 481.361 137.38 484.061 132.15 485.201C120.84 487.691 70.53 500.691 47.23 528.981C47.23 528.981 86.34 595.131 89.13 629.601C121.86 618.461 198.13 628.041 198.13 628.041C214.82 595.411 206.74 544.041 204.51 532.721C203.39 527.041 205.79 524.871 208.46 524.131C209.891 523.724 211.422 523.863 212.756 524.521C214.09 525.178 215.132 526.308 215.68 527.691Z" fill="#4CA84E"/>
</g>
<path d="M923.32 406.89C928.972 398.598 925.453 386.354 915.458 379.542C905.464 372.729 892.781 373.929 887.129 382.221C881.476 390.512 884.996 402.757 894.99 409.569C904.984 416.382 917.668 415.182 923.32 406.89Z" fill="white"/>
<path d="M653.444 110.532C658.734 98.3604 655.561 85.2508 646.358 81.251C637.155 77.2512 625.406 83.8757 620.116 96.0473C614.826 108.219 617.998 121.328 627.202 125.328C636.405 129.328 648.154 122.704 653.444 110.532Z" fill="white"/>
<path d="M881.01 376.36C884.699 376.36 887.69 373.369 887.69 369.68C887.69 365.991 884.699 363 881.01 363C877.321 363 874.33 365.991 874.33 369.68C874.33 373.369 877.321 376.36 881.01 376.36Z" fill="white"/>
<path d="M772.13 263.571C775.819 263.571 778.81 260.58 778.81 256.891C778.81 253.202 775.819 250.211 772.13 250.211C768.441 250.211 765.45 253.202 765.45 256.891C765.45 260.58 768.441 263.571 772.13 263.571Z" fill="white"/>
<path d="M603.07 63.3517C609.377 63.3517 614.49 58.2388 614.49 51.9317C614.49 45.6246 609.377 40.5117 603.07 40.5117C596.763 40.5117 591.65 45.6246 591.65 51.9317C591.65 58.2388 596.763 63.3517 603.07 63.3517Z" fill="white"/>
<path d="M663.35 84.2311C667.039 84.2311 670.03 81.2404 670.03 77.5511C670.03 73.8618 667.039 70.8711 663.35 70.8711C659.661 70.8711 656.67 73.8618 656.67 77.5511C656.67 81.2404 659.661 84.2311 663.35 84.2311Z" fill="white"/>
<path d="M797.7 247.08C808.133 247.08 816.59 242.267 816.59 236.33C816.59 230.393 808.133 225.58 797.7 225.58C787.267 225.58 778.81 230.393 778.81 236.33C778.81 242.267 787.267 247.08 797.7 247.08Z" fill="white"/>
<path d="M502.88 916.08H400.02C387.843 916.086 376.028 911.942 366.524 904.33C357.02 896.718 350.394 886.094 347.74 874.21L301.29 666.08H601.62L555.13 874.21C552.477 886.089 545.856 896.709 536.358 904.32C526.86 911.932 515.052 916.079 502.88 916.08Z" fill="#293995"/>
<path d="M556.51 666.08L510.02 874.21C507.366 886.094 500.74 896.718 491.236 904.33C481.732 911.942 469.917 916.086 457.74 916.08H502.85C515.021 916.079 526.829 911.932 536.328 904.32C545.826 896.709 552.447 886.089 555.1 874.21L601.59 666.08H556.51Z" fill="#4A62AD"/>
<g style="mix-blend-mode:multiply" opacity="0.51">
<path d="M301.29 666.08L317.79 739.99H497.6C497.6 739.99 513.12 861.69 347.74 874.21C350.393 886.089 357.014 896.709 366.512 904.32C376.011 911.932 387.819 916.079 399.99 916.08H502.88C515.052 916.079 526.86 911.932 536.358 904.32C545.856 896.709 552.477 886.089 555.13 874.21L601.62 666.08H301.29Z" fill="#2A2762"/>
</g>
<path d="M604.77 613.9H298.13C288.73 613.9 281.11 621.52 281.11 630.92V701.23C281.11 710.63 288.73 718.25 298.13 718.25H604.77C614.17 718.25 621.79 710.63 621.79 701.23V630.92C621.79 621.52 614.17 613.9 604.77 613.9Z" fill="#293995"/>
<path d="M580.22 671.381C591.89 671.381 601.35 661.921 601.35 650.251C601.35 638.581 591.89 629.121 580.22 629.121C568.55 629.121 559.09 638.581 559.09 650.251C559.09 661.921 568.55 671.381 580.22 671.381Z" fill="white"/>
</g>
<defs>
<clipPath id="clip0_4906_1505">
<rect width="971.71" height="965.48" fill="white"/>
</clipPath>
</defs>
</svg>
