<svg width="632" height="860" viewBox="0 0 632 860" fill="none" xmlns="http://www.w3.org/2000/svg">
<g clip-path="url(#clip0_4906_1470)">
<path d="M324.78 859.169C437.347 859.169 528.6 837.052 528.6 809.769C528.6 782.486 437.347 760.369 324.78 760.369C212.213 760.369 120.96 782.486 120.96 809.769C120.96 837.052 212.213 859.169 324.78 859.169Z" fill="#A7A9AC"/>
<path d="M280.51 827.31C264.933 827.329 249.815 822.038 237.65 812.31C236.17 811.13 234.73 809.87 233.36 808.57C231.99 807.27 230.66 805.9 229.36 804.5C228.06 803.1 226.87 801.6 225.73 800.08C224.59 798.56 223.48 796.97 222.47 795.36C221.46 793.75 220.47 792.04 219.6 790.36C216.89 785.117 214.873 779.543 213.6 773.78L181.4 629.48H178.62C170.137 629.467 162.005 626.091 156.007 620.093C150.009 614.094 146.633 605.963 146.62 597.48V527.15C146.633 518.667 150.009 510.535 156.007 504.537C162.005 498.539 170.137 495.163 178.62 495.15H256.73C245.401 474.148 231.372 454.72 215 437.36C201.074 451.061 185.305 462.754 168.15 472.1L167.05 472.7C164.66 473.99 162.29 475.21 159.99 476.33L159.89 476.38C130.18 490.93 97.2999 498.31 62.1499 498.31C60.2999 498.31 58.43 498.31 56.54 498.24C54.2512 498.19 52.0041 497.618 49.9709 496.565C47.9377 495.513 46.1723 494.01 44.8099 492.17L44.7599 492.09C43.7399 490.723 42.7399 489.347 41.7599 487.96L41.0599 486.96C40.0666 485.567 39.1066 484.183 38.1799 482.81L37.7099 482.11C36.8999 480.9 36.0899 479.67 35.2999 478.44L34.6799 477.44C33.8199 476.1 32.9699 474.74 32.1499 473.39L31.54 472.39C30.83 471.22 30.1299 470.05 29.4499 468.87L28.9599 468.04C28.2099 466.72 27.4599 465.39 26.7399 464.04L26.0599 462.8C25.4199 461.61 24.7799 460.41 24.1599 459.21L23.6599 458.21C23.0599 457.05 22.4899 455.9 21.9199 454.75L21.2399 453.35C20.6399 452.11 20.0499 450.87 19.4899 449.64L18.8799 448.31C18.4799 447.41 18.0699 446.5 17.6799 445.59L16.9999 444.03C16.5099 442.87 15.9999 441.71 15.5599 440.56C15.3599 440.08 14.8699 438.83 14.8699 438.83C14.5599 438.07 14.2699 437.32 13.9799 436.57C13.6899 435.82 13.3899 435.02 13.1099 434.24C12.8299 433.46 12.4599 432.49 12.1099 431.61C11.8699 430.94 11.6299 430.26 11.3999 429.61C11.1699 428.96 10.9899 428.4 10.7799 427.79C10.3999 426.65 10.0299 425.51 9.66993 424.38L9.19993 422.85C8.95993 422.09 8.72992 421.33 8.50992 420.57L8.18995 419.47C7.77995 418.07 7.38993 416.66 7.01993 415.27L6.75992 414.27C6.07992 411.66 5.44993 409.04 4.87993 406.46L4.75994 405.94C-9.60006 340.26 12.4699 290.24 13.4099 288.14C13.6534 287.608 13.9272 287.091 14.2299 286.59C44.5199 236.21 76.69 210.66 109.85 210.66C143.56 210.66 166.79 237.15 176.59 250.93H176.76C194.17 250.93 226.31 254.59 245.93 279.11C260.99 297.92 264.87 324.24 257.46 357.34C257.465 357.377 257.465 357.413 257.46 357.45C256.12 363.45 254.39 369.7 252.31 376.13L252.17 376.58C251.943 377.293 251.703 378.013 251.45 378.74C251.45 378.74 251.1 379.8 251.06 379.9C265.574 393.887 278.817 409.137 290.63 425.47C291.54 412.41 292.73 399.52 294.2 386.88C298.746 347.039 306.491 307.628 317.36 269.03C263.52 252.61 233.67 219.8 232.36 218.29C231.969 217.853 231.605 217.392 231.27 216.91C197.08 168.27 186.9 128.18 201.02 97.74C214.96 67.74 248.02 57.37 264.41 54.02C272.15 36.67 293.24 0 334.81 0C353.55 0 373.62 7.83 394.5 23.29L394.62 23.38C399.47 26.98 404.52 31.11 409.56 35.61L409.9 35.91L411.58 37.43L412.28 38.08C412.78 38.53 413.28 39 413.79 39.47L414.67 40.31C415.15 40.75 415.61 41.19 416.08 41.64L417.08 42.64L418.38 43.91L419.54 45.04L420.77 46.27L423.18 48.71C423.65 49.18 425.62 51.23 425.62 51.23L427.25 52.95L428.1 53.84L430.6 56.54C431.001 56.9794 431.378 57.44 431.73 57.92C431.88 58.13 432.73 59.26 433.94 61.23L434.38 61.92C435.94 64.4 437.54 67.15 439.13 70.08C439.41 70.59 439.69 71.08 439.98 71.66C441.69 74.89 443.36 78.28 444.98 81.75C445.73 83.39 446.48 85.09 447.21 86.75C449.39 91.9 451.4 97.25 453.21 102.65C453.66 104.03 454.11 105.44 454.55 106.87C454.78 107.63 455.02 108.4 455.25 109.18C456 111.74 456.72 114.34 457.37 116.92C457.83 118.74 458.29 120.65 458.73 122.59C459.11 124.29 459.477 126.02 459.83 127.78C460.42 130.78 460.95 133.78 461.41 136.78C461.75 138.99 462.06 141.21 462.33 143.4L462.46 144.48C462.51 144.98 462.57 145.48 462.62 145.97C471.506 146.936 480.256 148.888 488.71 151.79C499.38 144.12 520.2 131.79 543.85 131.79C565.49 131.79 595.66 142.07 616.52 191.03V191.09C618.91 196.7 621.17 202.8 623.23 209.22L623.37 209.65C623.6 210.37 623.83 211.09 624.05 211.82L624.34 212.73C624.53 213.38 624.73 214.04 624.93 214.73L625.28 215.92L625.81 217.76L626.2 219.15C626.36 219.73 626.53 220.31 626.69 220.91C626.85 221.51 627.15 222.67 627.15 222.67L627.55 224.18C627.7 224.75 628.09 226.27 628.09 226.27L628.4 227.51L629.23 230.92C629.41 231.7 629.6 232.49 629.78 233.28L630.05 234.44C630.31 235.61 630.58 236.81 630.84 238.02C630.971 238.564 631.075 239.115 631.15 239.67C631.569 245.328 631.612 251.007 631.28 256.67C631.28 257.42 631.2 258.2 631.15 259C631.07 260.34 630.97 261.74 630.85 263.19V263.62C630.52 267.51 630.05 271.55 629.46 275.62C629.39 276.1 629.32 276.62 629.24 277.07C628.55 281.56 627.7 286.07 626.71 290.59C626.6 291.05 626.5 291.53 626.39 292.01C624.99 298.12 623.29 304.26 621.39 310.25C621.14 311.02 620.88 311.8 620.62 312.58C619.86 314.83 619.05 317.1 618.21 319.33C617.603 320.95 616.967 322.573 616.3 324.2C615.89 325.2 615.47 326.2 615.04 327.2C614.413 328.7 613.747 330.203 613.04 331.71C612.15 333.71 611.38 335.35 610.61 336.92C609.77 338.66 608.82 340.53 607.73 342.63C606.8 344.41 605.92 346.02 605.06 347.57C601.565 353.827 597.753 359.901 593.64 365.77C592.92 366.79 592.19 367.81 591.45 368.83C576.025 389.831 557.123 408.04 535.56 422.67C533.682 423.957 531.535 424.8 529.283 425.135C527.03 425.469 524.731 425.286 522.56 424.6C520.56 423.97 518.44 423.26 516.06 422.44L514.15 421.67C512.623 421.123 511.117 420.57 509.63 420.01L507.63 419.24C506.06 418.63 504.52 418.01 502.99 417.38L501.51 416.78C499.51 415.91 497.51 415.04 495.56 414.18L494.75 413.8C493.08 413.04 491.42 412.26 489.75 411.46L488.17 410.69C486.75 409.983 485.35 409.267 483.97 408.54L482.52 407.78C480.74 406.84 479.1 405.94 477.52 405.04L477.22 404.88C475.433 403.86 473.627 402.8 471.8 401.7L471.14 401.29C469.65 400.38 468.14 399.45 466.7 398.51L465.7 397.85C464.26 396.91 462.843 395.96 461.45 395L460.83 394.59C457.58 392.34 454.37 389.98 451.27 387.59L451.05 387.41C449.62 386.3 448.19 385.15 446.77 383.99L446.44 383.72C441.727 379.833 437.2 375.75 432.86 371.47C410.883 410.569 393.436 452.047 380.86 495.1H485.26C493.742 495.116 501.872 498.492 507.87 504.49C513.868 510.488 517.244 518.618 517.26 527.1V597.41C517.244 605.892 513.868 614.022 507.87 620.02C501.872 626.018 493.742 629.394 485.26 629.41H482.47L450.26 773.67C449.609 776.57 448.774 779.426 447.76 782.22C444.462 791.299 439.271 799.572 432.53 806.49C431.21 807.84 429.82 809.16 428.4 810.4C425.541 812.892 422.481 815.143 419.25 817.13C417.64 818.13 415.97 819.05 414.25 819.91C408.235 822.972 401.798 825.122 395.15 826.29C393.23 826.63 391.26 826.89 389.31 827.06C387.36 827.23 385.31 827.31 383.36 827.31H280.51ZM380.77 287.67C374.308 310.766 369.093 334.193 365.15 357.85C369.323 349.85 373.657 341.903 378.15 334.01C382.21 326.93 386.44 319.83 390.78 312.85C386.857 304.702 383.513 296.287 380.77 287.67Z" fill="#231F20"/>
<path d="M491.69 236.19L479.07 223.05C477.25 224.79 434.07 266.65 391.21 341.47C370.704 377.217 353.653 414.837 340.29 453.82C343.56 372.34 358.02 308.63 371.96 264.82C393.81 196.16 419.09 160.15 419.35 159.82L390.07 138.82C388.93 140.41 361.87 178.59 338.27 251.98C324.55 294.67 314.75 340.67 309.15 388.67C305.845 417.364 304.012 446.209 303.66 475.09C286.517 442.036 263.816 412.178 236.55 386.82C181.97 335.95 126.93 318.71 124.62 318L114.05 352.42C114.55 352.57 164.6 368.49 213.16 414.24C274 471.56 305.73 548.1 307.64 641.94C307.57 647.94 307.56 653.94 307.64 659.99L325.64 659.66L343.64 659.99C343.76 653.657 343.76 647.384 343.64 641.17C345.41 519.97 386.64 422.17 421.82 360.43C461.95 290.02 503.26 249.7 504 248.98L491.69 236.19Z" fill="#66BE64"/>
<path d="M491.22 168.891C491.22 168.891 582.72 86.1006 616.22 241.131C616.22 241.131 625.91 342.421 527.1 410.251" fill="#4CA84E"/>
<path d="M491.22 168.889C491.22 168.889 379.6 116.259 392.65 274.339C392.65 274.339 412.81 374.069 527.07 410.249" fill="#66BE64"/>
<g style="mix-blend-mode:multiply">
<path d="M444.22 361.67C463.91 380.79 490.72 398.73 527.07 410.24C625.88 342.42 616.15 241.13 616.15 241.13C612.33 223.47 607.76 208.9 602.66 196.93C529.9 374.05 444.22 361.67 444.22 361.67Z" fill="#4CA84E"/>
</g>
<path d="M168.76 266.38C168.76 266.38 291.39 252.61 228.02 398C228.02 398 176.74 485.891 56.9099 483.251" fill="#4CA84E"/>
<path d="M168.76 266.38C168.76 266.38 108.89 158.48 27.17 294.38C27.17 294.38 -14.71 387.12 56.91 483.22" fill="#66BE64"/>
<g style="mix-blend-mode:multiply">
<path d="M18.03 395.43C22.84 422.43 34.13 452.67 56.91 483.25C176.74 485.89 228.02 398 228.02 398C235.24 381.43 240.02 366.94 242.89 354.25C80.35 455.51 18.03 395.43 18.03 395.43Z" fill="#4CA84E"/>
</g>
<path d="M275.25 67.5696C275.25 67.5696 312.31 -50.1404 419.59 66.6696C419.59 66.6696 479.19 149.15 428.25 257.67" fill="#4CA84E"/>
<path d="M275.25 67.5703C275.25 67.5703 152.35 78.5703 243.55 208.39C243.55 208.39 311.39 284.23 428.25 257.65" fill="#66BE64"/>
<g style="mix-blend-mode:multiply">
<path d="M332.22 257.669C358.87 264.209 391.07 266.119 428.22 257.669C479.16 149.179 419.56 66.6694 419.56 66.6694C407.34 53.3594 396.03 43.0994 385.56 35.3594C412.39 224.989 332.22 257.669 332.22 257.669Z" fill="#4CA84E"/>
</g>
<path d="M586.06 250.56C595.184 250.56 602.58 239.819 602.58 226.57C602.58 213.321 595.184 202.58 586.06 202.58C576.936 202.58 569.54 213.321 569.54 226.57C569.54 239.819 576.936 250.56 586.06 250.56Z" fill="white"/>
<path d="M412.853 93.451C418.723 87.5814 416.573 75.9154 408.052 67.3942C399.531 58.8729 387.865 56.7233 381.995 62.5929C376.126 68.4624 378.275 80.1285 386.797 88.6498C395.318 97.171 406.984 99.3206 412.853 93.451Z" fill="white"/>
<path d="M563.18 208.46C568.344 208.46 572.53 204.274 572.53 199.11C572.53 193.946 568.344 189.76 563.18 189.76C558.016 189.76 553.83 193.946 553.83 199.11C553.83 204.274 558.016 208.46 563.18 208.46Z" fill="white"/>
<path d="M358.3 86.2703C363.464 86.2703 367.65 82.0842 367.65 76.9203C367.65 71.7564 363.464 67.5703 358.3 67.5703C353.136 67.5703 348.95 71.7564 348.95 76.9203C348.95 82.0842 353.136 86.2703 358.3 86.2703Z" fill="white"/>
<path d="M383.37 812.311H280.51C268.338 812.312 256.529 808.165 247.031 800.553C237.532 792.942 230.911 782.32 228.26 770.441L181.77 562.311H482.15L435.62 770.441C432.967 782.319 426.346 792.94 416.848 800.551C407.35 808.162 395.541 812.31 383.37 812.311Z" fill="#293995"/>
<path d="M436.99 562.311L390.51 770.441C387.857 782.319 381.236 792.94 371.738 800.551C362.239 808.162 350.431 812.31 338.26 812.311H383.37C395.541 812.31 407.35 808.162 416.848 800.551C426.346 792.94 432.967 782.319 435.62 770.441L482.15 562.311H436.99Z" fill="#4A62AD"/>
<g style="mix-blend-mode:multiply" opacity="0.51">
<path d="M181.77 562.311L198.28 636.221H378.09C378.09 636.221 393.61 757.951 228.26 770.441C230.911 782.32 237.532 792.942 247.031 800.553C256.529 808.165 268.338 812.312 280.51 812.311H383.37C395.541 812.31 407.35 808.162 416.848 800.551C426.346 792.94 432.967 782.319 435.62 770.441L482.15 562.311H181.77Z" fill="#2A2762"/>
</g>
<path d="M485.26 510.131H178.62C169.22 510.131 161.6 517.751 161.6 527.151V597.461C161.6 606.861 169.22 614.481 178.62 614.481H485.26C494.66 614.481 502.28 606.861 502.28 597.461V527.151C502.28 517.751 494.66 510.131 485.26 510.131Z" fill="#293995"/>
<path d="M460.7 567.61C472.37 567.61 481.83 558.149 481.83 546.48C481.83 534.81 472.37 525.35 460.7 525.35C449.03 525.35 439.57 534.81 439.57 546.48C439.57 558.149 449.03 567.61 460.7 567.61Z" fill="white"/>
</g>
<defs>
<clipPath id="clip0_4906_1470">
<rect width="631.45" height="859.17" fill="white"/>
</clipPath>
</defs>
</svg>
