<svg width="1265" height="488" viewBox="0 0 1265 488" fill="none" xmlns="http://www.w3.org/2000/svg">
<g clip-path="url(#clip0_6704_352)">
<path d="M1264.21 242.83V243.89C1264.21 244.47 1264.21 245.04 1264.21 245.62C1264.21 246.36 1264.21 247.1 1264.21 247.83V249.38C1264.21 250.74 1264.14 252.1 1264.09 253.45C1263.81 260.423 1263.25 267.307 1262.41 274.1C1262.27 275.16 1262.14 276.22 1261.99 277.27C1261.84 278.32 1261.72 279.27 1261.57 280.27C1260.25 289.125 1258.44 297.898 1256.14 306.55C1254.38 313.217 1252.34 319.777 1250.02 326.23C1247.7 332.683 1245.09 339.083 1242.19 345.43C1239 352.403 1235.5 359.187 1231.67 365.78C1229.67 369.213 1227.61 372.583 1225.49 375.89C1224.64 377.223 1223.78 378.533 1222.91 379.82C1220.71 383.087 1218.43 386.303 1216.08 389.47L1215.9 389.71C1209.88 397.773 1203.36 405.454 1196.39 412.71L1195.91 413.21C1194.9 414.257 1193.87 415.3 1192.84 416.34C1188.84 420.34 1184.69 424.213 1180.38 427.96C1172.46 434.824 1164.11 441.171 1155.38 446.96C1154.92 447.27 1154.46 447.58 1153.99 447.88C1152.79 448.67 1151.58 449.46 1150.36 450.23C1145.12 453.563 1139.75 456.673 1134.24 459.56L1134.02 459.67C1132.95 460.24 1131.89 460.79 1130.81 461.33C1115.53 469.109 1099.47 475.24 1082.9 479.62C1082.34 479.78 1081.77 479.93 1081.21 480.07C1075.39 481.563 1069.48 482.843 1063.49 483.91C1063.88 483.91 1064.28 483.91 1064.67 483.91H1063.46C1060.72 484.404 1057.97 484.847 1055.2 485.24C1050.01 485.98 1044.77 486.557 1039.48 486.97L1035.6 487.25C1030.56 487.563 1025.49 487.72 1020.38 487.72H994.07L993.77 487.63L992.87 487.34L990.42 486.56L989.25 486.18L987.83 485.71L985.18 484.8C984.18 484.44 983.08 484.06 982.04 483.68L980.69 483.19C979.4 482.71 978.15 482.19 976.91 481.75L975.07 481.03L972.83 480.12L970.27 479.12L967.79 478.06L964.97 476.81L963.9 476.33C962.52 475.71 961.12 475.06 959.74 474.39L957.93 473.52L955.84 472.52L953.34 471.26L951.11 470.1C950.24 469.65 949.33 469.17 948.43 468.68L947.18 468.01C945.71 467.21 944.27 466.4 942.83 465.57L941.44 464.77L939.5 463.64L939.24 463.48L937.39 462.38L935.25 461.07L932.54 459.37L931.15 458.48C929.79 457.6 928.43 456.71 927.09 455.81L925.72 454.88C924.58 454.1 923.44 453.31 922.32 452.52L921.07 451.64L920.28 451.07L917.36 448.93L915.92 447.86C914.65 446.86 913.38 445.93 912.13 444.95L910.82 443.95C909.82 443.14 908.82 442.34 907.82 441.52L906.59 440.52C905.37 439.513 904.163 438.493 902.97 437.46L901.53 436.21C900.35 435.21 899.17 434.14 898.01 433.09L896.79 431.97C895.88 431.14 894.98 430.29 894.08 429.44L892.76 428.19C891.64 427.123 890.533 426.043 889.44 424.95L888.04 423.55C887.1 422.55 886.17 421.65 885.25 420.69L883.73 419.1C882.87 418.19 882.03 417.28 881.19 416.37C881.19 416.37 880.26 415.37 879.87 414.92C878.87 413.77 877.87 412.63 876.87 411.48L875.75 410.19L875.57 409.98C874.78 409.05 873.99 408.13 873.22 407.19L871.76 405.44C870.92 404.44 870.09 403.38 869.28 402.35C868.85 401.82 868.43 401.27 868 400.73C867.073 399.537 866.15 398.333 865.23 397.12L864.38 395.97L864.07 395.55C863.37 394.61 862.68 393.66 862 392.71C862 392.71 861.17 391.57 860.93 391.22C858.07 387.22 855.24 382.91 852.49 378.5C846.032 368.109 840.327 357.268 835.42 346.06V345.98C821.343 313.82 814.104 279.086 814.16 243.98C814.07 210.458 820.63 177.25 833.459 146.279C846.288 115.309 865.132 87.1899 888.9 63.5502C918.202 34.1193 954.276 12.3256 993.96 0.0800781H1020.46C1022.98 0.0800781 1025.46 0.0801855 1028.02 0.190186C1029.26 0.190186 1030.5 0.280088 1031.73 0.340088C1033.73 0.430088 1035.66 0.540186 1037.61 0.690186C1038.11 0.690186 1038.61 0.750161 1039.09 0.790161C1044.55 1.19683 1049.96 1.7835 1055.31 2.55017C1057.12 2.81017 1058.93 3.09014 1060.72 3.39014C1061.67 3.55014 1062.62 3.71014 1063.56 3.89014C1073.55 5.6659 1083.42 8.07404 1093.11 11.1001C1093.14 11.0917 1093.16 11.0917 1093.19 11.1001L1094.84 11.6101C1096.44 12.1234 1098.03 12.6502 1099.61 13.1902C1104.41 14.8502 1109.13 16.6302 1113.78 18.5702L1114.23 18.7601C1115.8 19.4001 1117.37 20.0701 1118.92 20.7601L1121.42 21.8801C1127.42 24.6135 1133.29 27.5835 1139.04 30.7902C1141.6 32.2235 1144.13 33.6968 1146.64 35.2101L1149.18 36.7601C1151.25 38.0468 1153.3 39.3801 1155.33 40.7601C1158.07 42.5668 1160.76 44.4368 1163.41 46.3701L1164.69 47.3002C1165.54 47.9202 1166.39 48.5602 1167.23 49.1902C1170 51.2835 1172.73 53.4301 1175.4 55.6301L1177.09 57.0402C1178.01 57.8102 1178.91 58.5801 1179.81 59.3701C1182.21 61.4401 1184.55 63.5501 1186.86 65.7201L1187.21 66.0402C1189.27 67.9668 1191.29 69.9302 1193.28 71.9302C1193.77 72.4202 1194.28 72.9302 1194.74 73.4202L1195.74 74.4202C1196.07 74.7702 1196.41 75.1102 1196.74 75.4202C1200.16 78.9935 1203.46 82.6602 1206.65 86.4202C1207.35 87.2202 1208.02 88.0301 1208.65 88.8401C1208.74 88.9501 1208.84 89.0602 1208.92 89.1802C1212.58 93.6202 1216.07 98.1901 1219.4 102.89C1222.03 106.583 1224.54 110.347 1226.95 114.18C1227.3 114.72 1227.63 115.27 1227.95 115.81C1230.09 119.237 1232.14 122.723 1234.09 126.27C1234.77 127.52 1235.45 128.78 1236.09 130.04C1236.73 131.3 1237.47 132.67 1238.14 134.04C1240.33 138.36 1242.39 142.75 1244.32 147.21C1245.84 150.717 1247.28 154.273 1248.63 157.88C1250.23 162.12 1251.71 166.413 1253.08 170.76C1254.37 174.867 1255.55 179.02 1256.63 183.22C1257.24 185.59 1257.82 187.98 1258.35 190.39C1258.95 193.06 1259.5 195.74 1260.01 198.45C1260.31 200.05 1260.59 201.65 1260.86 203.26C1261.21 205.26 1261.52 207.37 1261.81 209.44C1262.04 211.08 1262.26 212.73 1262.45 214.44C1262.69 216.32 1262.89 218.2 1263.07 220.09C1263.23 221.67 1263.37 223.25 1263.48 224.83C1263.55 225.61 1263.6 226.38 1263.65 227.16C1263.65 227.71 1263.73 228.26 1263.76 228.81L1263.82 229.81C1263.9 231.17 1263.97 232.54 1264.02 233.91C1264.12 236.25 1264.18 238.603 1264.21 240.97C1264.2 241.55 1264.21 242.19 1264.21 242.83Z" fill="#231F20"/>
<path d="M1264.21 242.83V243.89C1264.21 244.47 1264.21 245.04 1264.21 245.62C1264.21 246.36 1264.21 247.1 1264.21 247.83V249.38C1264.21 250.74 1264.14 252.1 1264.09 253.45C1263.81 260.423 1263.25 267.307 1262.41 274.1C1262.27 275.16 1262.14 276.22 1261.99 277.27C1261.84 278.32 1261.72 279.27 1261.57 280.27C1260.25 289.124 1258.44 297.898 1256.14 306.55C1254.38 313.217 1252.34 319.777 1250.02 326.23C1247.7 332.683 1245.09 339.083 1242.19 345.43C1239 352.403 1235.5 359.187 1231.67 365.78C1229.67 369.213 1227.61 372.583 1225.49 375.89C1224.64 377.223 1223.78 378.533 1222.91 379.82C1220.71 383.087 1218.43 386.303 1216.08 389.47L1215.9 389.71C1209.88 397.773 1203.36 405.454 1196.39 412.71L1195.91 413.21C1194.9 414.257 1193.87 415.3 1192.84 416.34C1188.84 420.34 1184.69 424.213 1180.38 427.96C1172.46 434.824 1164.11 441.171 1155.38 446.96C1154.92 447.27 1154.46 447.58 1153.99 447.88C1152.79 448.67 1151.58 449.46 1150.36 450.23C1145.12 453.563 1139.75 456.673 1134.24 459.56L1134.02 459.67C1132.95 460.24 1131.89 460.79 1130.81 461.33C1115.53 469.109 1099.47 475.24 1082.9 479.62C1082.34 479.78 1081.77 479.93 1081.21 480.07C1075.39 481.563 1069.48 482.843 1063.49 483.91C1063.88 483.91 1064.28 483.91 1064.67 483.91H1063.46H1062.31H1061.71H1061.64H1060.7L1059.19 483.85H1058.46H1057.74H1057.13L1055.75 483.78L1054.84 483.72H1054.14L1053.36 483.67L1050.92 483.5H1050.73H1050.56H1050.24L1048.63 483.37L1047.63 483.28L1046.43 483.17L1045.97 483.12H1045.55L1044.18 482.99L1043.18 482.88H1042.97H1042.68L1041.61 482.76L1039.66 482.53L1038.77 482.42H1038.51H1038.2L1036.48 482.19L1035.86 482.1L1034.52 481.91L1032.62 481.63L1031.98 481.53L1030.74 481.33L1028.58 480.98L1027.82 480.85L1026.38 480.59L1024.54 480.25L1023.73 480.1L1021.15 479.59L1020.79 479.52H1020.57C1019.66 479.34 1018.76 479.15 1017.86 478.95L1017.05 478.77L1015.5 478.42L1014.11 478.1H1014.03H1013.82C1012.71 477.84 1011.6 477.57 1010.49 477.29C1009.32 477 1008.15 476.69 1006.98 476.38L1004.16 475.61L1003.44 475.41L1002.91 475.25C1002.11 475.03 1001.31 474.79 1000.51 474.55L999.57 474.27L999.15 474.14L998.07 473.81L996.58 473.34L996.38 473.28L994.38 472.62L993.57 472.35L992.31 471.93L990.17 471.19L989.81 471.07L989.46 470.95L988.18 470.49C987.6 470.29 987.03 470.08 986.45 469.86L986.13 469.75L984.13 468.98L983.13 468.6L982.67 468.42L982.1 468.2C981.45 467.94 980.79 467.69 980.1 467.42L979.47 466.76L976.97 465.76L976.37 465.5L975.93 465.32C975.44 465.11 974.93 464.91 974.46 464.69L973.38 464.23L972.55 463.86L971.65 463.47L971.26 463.29L969.97 462.71L969.83 462.64L968.21 461.9L968 461.81L966.59 461.14L966.04 460.88L963.47 459.64H963.39L960.23 458.06L959.85 457.87L958.31 457.07L957.18 456.47L957.06 456.41L956.4 456.06L954.52 455.06L953.94 454.74L951.22 453.22L950.22 452.64L948.89 451.88L947.3 450.95L947.03 450.79C945.59 449.943 944.16 449.077 942.74 448.19L941.53 447.43L939.36 446.06L938.76 445.67L936.12 443.93L935.81 443.73L932.89 441.73L932.19 441.24C931.14 440.51 930.1 439.78 929.07 439.03C928.38 438.54 927.69 438.03 927.01 437.53L925.61 436.53L925.12 436.16L924.3 435.55L922.65 434.28L922.2 433.93L921.53 433.41L918.84 431.28L915.53 428.57L914.64 427.82L912.55 426.04L912 425.57L910.68 424.42C909.8 423.66 908.93 422.88 908.06 422.08L907.47 421.54C906.8 420.94 906.13 420.33 905.47 419.7C905.18 419.43 904.88 419.15 904.59 418.86L903.29 417.63L902.84 417.2L902.28 416.66C901.45 415.86 900.64 415.06 899.83 414.26C899.73 414.15 899.62 414.05 899.52 413.95C898.58 413.01 897.65 412.06 896.73 411.11C895.81 410.16 894.73 409.05 893.78 408.01C892.83 406.97 891.84 405.92 890.88 404.86L890.67 404.64C890.26 404.18 889.84 403.72 889.44 403.25L888.44 402.16L887.54 401.16L887.43 401.03L887.18 400.74C886.54 400 885.91 399.26 885.28 398.51C885.232 398.442 885.179 398.379 885.12 398.32L882.5 395.14L881.5 393.94L880.5 392.63C880.11 392.15 879.73 391.63 879.35 391.17L878.53 390.09L877.87 389.23L877.21 388.37L876.59 387.53C875.95 386.67 875.32 385.81 874.69 384.94L874.25 384.34L873.87 383.81L873.06 382.67C844.326 342.165 828.928 293.712 829.01 244.05C829.01 113.32 933.46 6.99996 1063.45 3.95996C1073.44 5.73573 1083.31 8.14398 1093 11.17C1093.03 11.1616 1093.05 11.1616 1093.08 11.17L1094.73 11.6801C1096.33 12.1934 1097.92 12.72 1099.5 13.26C1104.3 14.92 1109.02 16.7 1113.67 18.64L1114.12 18.83C1115.69 19.47 1117.26 20.14 1118.81 20.83L1121.31 21.95C1127.31 24.6833 1133.18 27.6533 1138.93 30.86C1141.49 32.2933 1144.02 33.7667 1146.53 35.28L1149.07 36.83C1151.14 38.1166 1153.19 39.45 1155.22 40.83C1157.96 42.6366 1160.65 44.5067 1163.3 46.4401L1164.58 47.37C1165.43 47.99 1166.28 48.63 1167.12 49.26C1169.89 51.3533 1172.62 53.5 1175.29 55.7L1176.98 57.11C1177.9 57.88 1178.8 58.6501 1179.7 59.4401C1182.1 61.5101 1184.44 63.62 1186.75 65.79L1187.1 66.11C1189.16 68.0367 1191.18 70 1193.17 72C1193.66 72.49 1194.17 73 1194.63 73.49L1195.63 74.49C1195.96 74.84 1196.3 75.18 1196.63 75.49C1200.05 79.0633 1203.35 82.73 1206.54 86.49C1207.24 87.29 1207.91 88.1 1208.54 88.91C1208.63 89.02 1208.73 89.13 1208.81 89.25C1212.47 93.69 1215.96 98.26 1219.29 102.96C1221.92 106.653 1224.43 110.417 1226.84 114.25C1227.19 114.79 1227.52 115.34 1227.84 115.88C1229.98 119.307 1232.03 122.793 1233.98 126.34C1234.66 127.59 1235.34 128.85 1235.98 130.11C1236.62 131.37 1237.36 132.74 1238.03 134.11C1240.22 138.43 1242.28 142.82 1244.21 147.28C1245.73 150.787 1247.17 154.343 1248.52 157.95C1250.12 162.19 1251.6 166.483 1252.97 170.83C1254.26 174.937 1255.44 179.09 1256.52 183.29C1257.13 185.66 1257.71 188.05 1258.24 190.46C1258.84 193.13 1259.39 195.81 1259.9 198.52C1260.2 200.12 1260.48 201.72 1260.75 203.33C1261.1 205.33 1261.41 207.44 1261.7 209.51C1261.93 211.15 1262.15 212.8 1262.34 214.51C1262.58 216.39 1262.78 218.27 1262.96 220.16C1263.12 221.74 1263.26 223.32 1263.37 224.9C1263.44 225.68 1263.49 226.45 1263.54 227.23C1263.54 227.78 1263.62 228.33 1263.65 228.88L1263.71 229.88C1263.79 231.24 1263.86 232.61 1263.91 233.98C1264.01 236.32 1264.07 238.673 1264.1 241.04C1264.2 241.55 1264.21 242.19 1264.21 242.83Z" fill="#51A898"/>
<path d="M1264.21 242.83V243.89C1264.21 244.47 1264.21 245.04 1264.21 245.62C1264.21 246.36 1264.21 247.1 1264.21 247.83V249.38C1264.21 250.74 1264.14 252.1 1264.09 253.45C1263.81 260.424 1263.25 267.307 1262.41 274.1C1262.27 275.16 1262.14 276.22 1261.99 277.27C1261.84 278.32 1261.72 279.27 1261.57 280.27C1260.25 289.125 1258.44 297.898 1256.14 306.55C1254.38 313.217 1252.34 319.777 1250.02 326.23C1247.7 332.684 1245.09 339.084 1242.19 345.43C1239 352.404 1235.5 359.187 1231.67 365.78C1229.67 369.214 1227.61 372.584 1225.49 375.89C1224.64 377.224 1223.78 378.534 1222.91 379.82C1220.71 383.087 1218.43 386.304 1216.08 389.47L1215.9 389.71C1209.88 397.773 1203.36 405.454 1196.39 412.71L1195.91 413.21C1194.9 414.257 1193.87 415.3 1192.84 416.34C1188.84 420.34 1184.69 424.214 1180.38 427.96C1172.46 434.824 1164.11 441.171 1155.38 446.96C1154.92 447.27 1154.46 447.58 1153.99 447.88C1152.79 448.67 1151.58 449.46 1150.36 450.23C1145.12 453.564 1139.75 456.674 1134.24 459.56L1134.02 459.67C1132.95 460.24 1131.89 460.79 1130.81 461.33C1115.53 469.109 1099.47 475.24 1082.9 479.62C1082.34 479.78 1081.77 479.93 1081.21 480.07C1075.39 481.564 1069.48 482.844 1063.49 483.91H1062.31H1061.71H1061.64H1060.7L1059.19 483.85H1058.46H1057.74H1057.13L1054.84 483.72H1054.14L1053.36 483.67L1050.92 483.5H1050.56H1050.47C1050.46 483.506 1050.45 483.508 1050.44 483.508C1050.43 483.508 1050.42 483.506 1050.41 483.5H1050.24L1048.63 483.37L1047.63 483.28L1046.43 483.17L1045.97 483.12H1045.55C1044.77 483.05 1044 482.97 1043.22 482.88H1043.01H1042.72L1041.65 482.76L1039.7 482.53L1038.81 482.42H1038.55H1038.24L1036.52 482.19L1035.9 482.1L1034.56 481.91L1032.66 481.63L1032.02 481.53L1030.78 481.33L1028.62 480.98L1027.86 480.85L1026.42 480.59L1024.58 480.25L1021.19 479.59L1020.83 479.52H1020.61C1019.7 479.34 1018.8 479.15 1017.9 478.95L1017.09 478.77L1015.54 478.42L1014.15 478.1H1014.07H1013.86C1012.75 477.84 1011.64 477.57 1010.53 477.29C1009.36 477 1008.19 476.69 1007.02 476.38L1004.2 475.61L1003.48 475.41L1002.95 475.25C1002.15 475.03 1001.35 474.79 1000.55 474.55L999.61 474.27L999.19 474.14L998.11 473.81L996.62 473.34L996.42 473.28L994.42 472.62L993.61 472.35L992.35 471.93L990.21 471.19C990.094 471.159 989.98 471.119 989.87 471.07L988.22 470.49C987.64 470.29 987.07 470.08 986.49 469.86L984.13 468.98L983.13 468.6L982.67 468.42L982.1 468.2C981.45 467.94 980.79 467.69 980.1 467.42L979.47 466.76L976.37 465.48L975.93 465.3C975.44 465.09 974.93 464.89 974.46 464.67L973.38 464.21L972.55 463.84L971.26 463.27L969.97 462.69L969.83 462.62L968.21 461.88L966.59 461.12L966.04 460.86L963.47 459.62H963.39L960.23 458.04L959.85 457.85L958.31 457.05L957.18 456.45L957.06 456.39L956.4 456.04L954.52 455.04L953.94 454.72L951.22 453.2L950.22 452.62L948.89 451.86L947.3 450.93L947.03 450.77C945.59 449.924 944.16 449.057 942.74 448.17L941.53 447.41L939.36 446.04L938.76 445.65L936.12 443.91L935.81 443.71L932.89 441.71L932.19 441.22C931.14 440.49 930.1 439.76 929.07 439.01C928.38 438.52 927.69 438.01 927.01 437.51L925.61 436.51L925.12 436.14L924.3 435.53L922.65 434.26L922.2 433.91L921.53 433.39L918.84 431.26L915.53 428.55L914.64 427.8L912.55 426.02L912 425.55L910.68 424.4L909.06 422.95L908.06 422.06L907.47 421.52L905.9 420.07L905.47 419.68C905.18 419.41 904.88 419.13 904.59 418.84L903.29 417.61L902.84 417.18L902.28 416.64C901.45 415.84 900.64 415.04 899.83 414.24C899.73 414.13 899.62 414.03 899.52 413.93C898.58 412.99 897.65 412.04 896.73 411.09C895.81 410.14 894.73 409.03 893.78 407.99C892.83 406.95 891.84 405.9 890.88 404.84L890.67 404.62C890.26 404.16 889.84 403.7 889.44 403.23L888.44 402.14L887.54 401.14L887.43 401.01L887.18 400.72C886.54 399.98 885.91 399.24 885.28 398.49C885.232 398.422 885.179 398.359 885.12 398.3L882.5 395.12L881.5 393.92L880.5 392.61C880.11 392.13 879.73 391.61 879.35 391.15L878.53 390.07L877.87 389.21L877.21 388.35L876.59 387.51C875.95 386.65 875.32 385.79 874.69 384.92L874.25 384.32L873.86 383.79L873.05 382.65C889.743 389.708 907.19 394.829 925.05 397.91C938.676 400.273 952.481 401.458 966.31 401.45C1028.26 401.537 1087.84 377.595 1132.5 334.66C1139.16 328.277 1145.45 321.516 1151.33 314.41C1159.32 304.773 1166.55 294.525 1172.94 283.76C1173.7 282.494 1174.44 281.22 1175.17 279.94C1179.47 272.389 1183.36 264.611 1186.82 256.64C1188.95 251.707 1190.92 246.707 1192.73 241.64C1195.35 234.254 1197.62 226.7 1199.53 218.98C1199.69 218.36 1199.84 217.73 1199.99 217.1C1204 200.271 1206.17 183.057 1206.47 165.76C1206.47 164.24 1206.52 162.76 1206.52 161.18C1206.52 159.42 1206.5 157.66 1206.46 155.9C1206.29 147.571 1205.68 139.256 1204.63 130.99C1203.77 123.99 1202.63 117.14 1201.14 110.37C1200.11 105.637 1198.95 100.97 1197.66 96.3702C1195.66 89.1702 1193.33 82.1103 1190.66 75.1903C1189.74 72.797 1188.79 70.4269 1187.8 68.0802C1187.47 67.2902 1187.13 66.4902 1186.8 65.7002L1187.15 66.0203C1189.21 67.9469 1191.23 69.9103 1193.22 71.9103C1193.71 72.4003 1194.22 72.9103 1194.68 73.4003L1195.68 74.4003C1196.01 74.7503 1196.35 75.0903 1196.68 75.4003C1200.1 78.9736 1203.4 82.6403 1206.59 86.4003C1207.29 87.2003 1207.96 88.0103 1208.59 88.8203C1208.68 88.9303 1208.78 89.0403 1208.86 89.1603C1212.52 93.6003 1216.01 98.1702 1219.34 102.87C1221.97 106.564 1224.48 110.327 1226.89 114.16C1227.24 114.7 1227.57 115.25 1227.89 115.79C1230.03 119.217 1232.08 122.704 1234.03 126.25C1234.71 127.5 1235.39 128.76 1236.03 130.02C1236.67 131.28 1237.41 132.65 1238.08 134.02C1240.27 138.34 1242.33 142.73 1244.26 147.19C1245.78 150.697 1247.22 154.254 1248.57 157.86C1250.17 162.1 1251.65 166.394 1253.02 170.74C1254.31 174.847 1255.49 179 1256.57 183.2C1257.18 185.57 1257.76 187.96 1258.29 190.37C1258.89 193.04 1259.44 195.72 1259.95 198.43C1260.25 200.03 1260.53 201.63 1260.8 203.24C1261.15 205.24 1261.46 207.35 1261.75 209.42C1261.98 211.06 1262.2 212.71 1262.39 214.42C1262.63 216.3 1262.83 218.18 1263.01 220.07C1263.17 221.65 1263.31 223.23 1263.42 224.81C1263.49 225.59 1263.54 226.36 1263.59 227.14C1263.59 227.69 1263.67 228.24 1263.7 228.79L1263.76 229.79C1263.84 231.15 1263.91 232.52 1263.96 233.89C1264.06 236.23 1264.12 238.584 1264.15 240.95C1264.2 241.55 1264.21 242.19 1264.21 242.83Z" fill="#3A9180"/>
<path d="M1196.62 75.3901C1194.66 75.2768 1192.66 75.1968 1190.62 75.1501C1187.48 75.0801 1184.27 75.0901 1181.01 75.1501C1169.58 75.4899 1158.22 77.008 1147.11 79.6802C1125.46 84.8902 1102.74 95.1102 1080.65 113.07C1076.79 116.204 1072.95 119.58 1069.14 123.2L1010.05 106.2L996.28 102.2C996.28 102.2 999.81 98.8002 1006.28 93.5502C1028.13 75.7802 1083.5 36.7902 1149.07 36.6602C1151.14 37.9468 1153.19 39.2802 1155.22 40.6602C1157.96 42.4668 1160.65 44.3368 1163.3 46.2701L1164.58 47.2001C1165.43 47.8201 1166.28 48.4601 1167.12 49.0901C1169.89 51.1834 1172.62 53.3302 1175.29 55.5302L1176.98 56.9402C1177.9 57.7102 1178.8 58.4801 1179.7 59.2701C1182.1 61.3401 1184.44 63.4501 1186.75 65.6201L1187.1 65.9402C1189.16 67.8669 1191.18 69.8301 1193.17 71.8301C1193.66 72.3201 1194.17 72.8302 1194.63 73.3202L1195.63 74.3202C1195.96 74.7002 1196.3 75.0401 1196.62 75.3901Z" fill="#71C8B7"/>
<path d="M1164.59 47.2296C1103.27 50.0996 1055.4 85.2296 1039.69 98.2296C1036.09 101.23 1034.18 103.02 1034.18 103.02L1010.08 106.18L996.31 102.18C996.31 102.18 999.84 98.7797 1006.31 93.5297C1028.16 75.7597 1083.53 36.7696 1149.1 36.6396C1151.17 37.9263 1153.22 39.2596 1155.25 40.6396C1157.99 42.4463 1160.68 44.3163 1163.33 46.2496L1164.59 47.2296Z" fill="#B7E1D9"/>
<path d="M1150.64 243.9C1134.37 351.76 1056.07 354.64 1017.52 356.45C988.75 357.8 942.18 337.04 927.69 294.62C926.601 291.439 925.713 288.193 925.03 284.9C924.87 284.12 924.71 283.32 924.57 282.52C924.43 281.72 924.29 280.94 924.17 280.13C923.87 278.13 923.64 276.06 923.49 273.97C923.42 273.08 923.36 272.18 923.32 271.27C922.961 262.07 923.849 252.863 925.96 243.9C943.43 167.4 998.84 165.5 1025.96 170.32C1029.7 170.99 1033.46 171.81 1037.14 172.85C1037.88 173.06 1038.61 173.27 1039.34 173.5L1039.97 173.7C1041.11 174.05 1042.24 174.44 1043.36 174.85C1044.48 175.26 1045.59 175.69 1046.68 176.16C1048.85 177.069 1050.96 178.104 1053 179.26C1054 179.83 1055 180.43 1056 181.08C1057 181.73 1057.91 182.38 1058.82 183.08C1059.73 183.78 1060.62 184.51 1061.47 185.29C1061.84 185.617 1062.2 185.95 1062.55 186.29L1063.03 186.77C1063.3 187.03 1063.56 187.29 1063.79 187.56C1063.89 187.656 1063.99 187.76 1064.08 187.87C1064.29 188.08 1064.49 188.3 1064.67 188.52C1064.85 188.74 1065.09 189 1065.3 189.25C1065.63 189.65 1065.96 190.05 1066.3 190.47C1066.64 190.89 1066.94 191.32 1067.25 191.76C1067.56 192.2 1067.92 192.76 1068.25 193.24C1068.58 193.72 1068.81 194.14 1069.07 194.61L1069.41 195.22C1069.53 195.42 1069.65 195.63 1069.75 195.84C1069.85 196.05 1070.01 196.32 1070.13 196.56C1070.37 197.04 1070.61 197.56 1070.83 198.04C1071.05 198.52 1071.31 199.15 1071.54 199.72C1074.82 208.01 1075.77 218.55 1073.34 231.98C1065.51 275.26 1029.51 265.12 1029.51 265.12C1029.51 265.12 1050.44 262.56 1052.27 233.5C1053.71 210.6 1040.27 198.22 1016.27 198.22C994.19 198.22 961.21 215.16 959.94 253.73C958.66 293 980.76 318.47 1017.48 320.13C1073.64 322.66 1117.2 296.86 1123.08 243.81C1129.4 186.71 1104.08 128.36 1004.2 129.81C903.51 131.26 876.99 212.01 877.74 262.6C878.15 289.87 885.58 347.97 925.15 397.72C934.332 409.271 944.773 419.763 956.28 429C973.66 443 994.81 455.24 1020.53 464.57C1040.73 471.76 1061.64 476.788 1082.9 479.57C1082.34 479.73 1081.77 479.88 1081.21 480.02C1075.39 481.514 1069.48 482.794 1063.49 483.86C1063.88 483.86 1064.28 483.86 1064.67 483.86H1063.46H1062.31H1061.71H1061.64H1060.7L1059.19 483.8H1058.46H1057.74H1057.13L1055.75 483.73L1054.84 483.67H1054.14L1053.36 483.62L1050.92 483.45H1050.73H1050.56H1050.47C1050.46 483.456 1050.45 483.458 1050.44 483.458C1050.43 483.458 1050.42 483.456 1050.41 483.45H1050.24L1048.63 483.32L1047.63 483.23L1046.43 483.12L1045.97 483.07H1045.55L1044.18 482.94L1043.18 482.83H1042.97H1042.68L1041.61 482.71L1039.66 482.48L1038.77 482.37H1038.51H1038.2L1036.48 482.14L1035.86 482.05L1034.52 481.86L1032.62 481.58L1031.98 481.48L1030.74 481.28L1028.58 480.93L1027.82 480.8L1026.38 480.54L1024.54 480.2L1023.73 480.05L1021.15 479.54L1020.79 479.47H1020.57C1019.66 479.29 1018.76 479.1 1017.86 478.9L1017.05 478.72L1015.5 478.37L1014.11 478.05H1014.03H1013.82C1012.71 477.79 1011.6 477.52 1010.49 477.24C1009.32 476.95 1008.15 476.64 1006.98 476.33L1004.16 475.56L1003.44 475.36L1002.91 475.2C1002.11 474.98 1001.31 474.74 1000.51 474.5L999.57 474.22L999.15 474.09L998.07 473.76L996.58 473.29L996.38 473.23L994.38 472.57L993.57 472.3L992.31 471.88L990.17 471.14C990.054 471.109 989.94 471.069 989.83 471.02L989.48 470.9L988.2 470.44C987.62 470.24 987.05 470.03 986.47 469.81L986.15 469.7L984.15 468.93L983.15 468.55L982.69 468.37L982.12 468.15C981.47 467.89 980.81 467.64 980.12 467.37L979.47 466.76L976.97 465.76L976.37 465.5L975.93 465.32C975.44 465.11 974.93 464.91 974.46 464.69L973.38 464.23L972.55 463.86L971.65 463.47L971.26 463.29L969.97 462.71L969.83 462.64L968.21 461.9L968 461.81L966.59 461.14L966.04 460.88L963.47 459.64H963.39L960.23 458.06L959.85 457.87L958.31 457.07L957.18 456.47L957.06 456.41L956.4 456.06L954.52 455.06L953.94 454.74L951.22 453.22L950.22 452.64L948.89 451.88L947.3 450.95L947.03 450.79C945.59 449.944 944.16 449.077 942.74 448.19L941.53 447.43L939.36 446.06L938.76 445.67L936.12 443.93C935.04 443.21 933.96 442.48 932.89 441.74L932.19 441.25C931.14 440.52 930.1 439.79 929.07 439.04C928.38 438.55 927.69 438.04 927.01 437.54L925.61 436.54L925.12 436.17C924.29 435.55 923.47 434.92 922.65 434.29L922.2 433.94L921.53 433.42L918.84 431.29L915.53 428.58L914.64 427.83L912.55 426.05L912 425.58C911 424.71 910 423.85 909.06 422.98L908.06 422.09L907.47 421.55L905.9 420.1C905.46 419.69 905.02 419.29 904.59 418.87L903.29 417.64L902.84 417.21L902.28 416.67C901.45 415.87 900.64 415.07 899.83 414.27C899.73 414.16 899.62 414.06 899.52 413.96C898.58 413.02 897.65 412.07 896.73 411.12C895.81 410.17 894.73 409.06 893.78 408.02C892.83 406.98 891.84 405.93 890.88 404.87L889.44 403.26L888.44 402.17L887.54 401.17L887.43 401.04L887.18 400.75C886.54 400.01 885.91 399.27 885.28 398.52C885.232 398.453 885.179 398.389 885.12 398.33L882.5 395.15C881.82 394.32 881.16 393.48 880.5 392.64C879.84 391.8 879.18 390.95 878.5 390.1L877.84 389.24L876.56 387.54C875.92 386.68 875.29 385.82 874.66 384.95L874.22 384.35L873.84 383.82L873.06 382.69C863.63 369.373 855.588 355.126 849.06 340.17C844.379 322.479 841.553 304.348 840.63 286.07C840.56 284.79 840.51 283.5 840.46 282.22C840.46 281.76 840.46 281.31 840.46 280.86C840.46 279.66 840.39 278.46 840.37 277.27C840.37 276.51 840.37 275.75 840.37 274.98C840.37 274.48 840.37 273.98 840.37 273.48C840.37 272.03 840.37 270.59 840.37 269.15C840.37 268.56 840.37 267.97 840.37 267.37C840.37 266.02 840.37 264.67 840.47 263.37L840.56 261.27C840.56 260.03 840.67 258.78 840.74 257.55C840.79 256.71 840.85 255.89 840.9 255.06C840.98 253.95 841.05 252.84 841.14 251.73C841.23 250.62 841.32 249.64 841.42 248.59C841.49 247.87 841.55 247.16 841.61 246.45C841.605 246.421 841.605 246.39 841.61 246.36C841.61 246.21 841.61 246.07 841.61 245.93L841.76 244.53C841.92 243.06 842.09 241.6 842.27 240.14C842.4 239.14 842.54 238.06 842.67 237.03C842.86 235.69 843.05 234.35 843.26 233.03L843.8 229.63C844.08 227.99 844.37 226.36 844.67 224.73C844.82 223.92 844.98 223.11 845.14 222.3C845.45 220.72 845.78 219.15 846.14 217.59C846.144 217.52 846.144 217.45 846.14 217.38C846.48 215.81 846.84 214.25 847.21 212.69C847.58 211.13 847.98 209.52 848.39 207.95C848.65 206.95 848.92 205.95 849.19 204.95C849.34 204.38 849.5 203.82 849.66 203.25C849.87 202.48 850.1 201.7 850.32 200.93C850.77 199.39 851.23 197.85 851.71 196.32C851.95 195.56 852.19 194.8 852.44 194.04L852.95 192.51C853.11 192.02 853.28 191.51 853.46 191.05C853.64 190.59 853.74 190.26 853.89 189.87C854.14 189.18 854.4 188.49 854.67 187.81C854.94 187.13 855.2 186.45 855.48 185.81C855.76 185.17 855.98 184.61 856.24 184.01C856.24 183.88 856.35 183.74 856.41 183.61C856.67 183.01 856.94 182.4 857.22 181.8C857.5 181.2 857.82 180.48 858.14 179.8C858.46 179.12 858.77 178.5 859.14 177.8C859.61 176.86 860.09 175.93 860.59 175.01C861.977 172.41 863.457 169.87 865.03 167.39C865.34 166.89 865.66 166.39 865.98 165.91C868.963 161.338 872.233 156.959 875.77 152.8C876.21 152.28 876.65 151.8 877.1 151.25C877.55 150.7 878.1 150.12 878.59 149.56C879.46 148.61 880.34 147.66 881.23 146.73C881.77 146.16 882.31 145.59 882.87 145.03C883.43 144.47 883.97 143.92 884.53 143.38C886.28 141.65 888.06 139.98 889.89 138.38C890.49 137.84 891.1 137.31 891.71 136.78C893.65 135.1 895.63 133.47 897.65 131.89C898 131.61 898.34 131.34 898.7 131.08C899.41 130.53 900.13 129.99 900.85 129.45C901.57 128.91 902.3 128.38 903.03 127.85C903.76 127.32 904.49 126.85 905.23 126.3L905.54 126.08L907.46 124.77C908.21 124.26 908.97 123.77 909.73 123.26L911.97 121.83H912.03C913.53 120.89 915.043 119.97 916.57 119.07C917.34 118.62 918.11 118.17 918.89 117.73C919.67 117.29 920.45 116.84 921.23 116.42L922.97 115.48C923.97 114.95 924.97 114.48 925.97 113.92C926.76 113.51 927.56 113.11 928.35 112.72C928.99 112.4 929.62 112.09 930.26 111.79L931.26 111.3L933.14 110.43L935.55 109.34C937.16 108.63 938.78 107.93 940.4 107.27C941.21 106.93 942.02 106.61 942.83 106.27L944.83 105.49L945.54 105.22L947.15 104.61C948.39 104.16 949.63 103.72 950.88 103.29L952.55 102.72C957.55 101.05 962.62 99.6004 967.62 98.3904C968.3 98.2204 968.97 98.0604 969.62 97.9104C970.27 97.7604 971.23 97.5404 972.04 97.3704C972.85 97.2004 973.64 97.0304 974.44 96.8704L976.35 96.5004C977.61 96.2604 978.88 96.0403 980.13 95.8303C983.283 95.317 986.387 94.9003 989.44 94.5803L991.27 94.4004C991.88 94.3304 992.48 94.2804 993.09 94.2404L994.9 94.1104L996.69 94.0004C997.88 93.9404 999.06 93.8904 1000.24 93.8604H1001.97H1002.03C1003.46 93.8604 1004.88 93.8604 1006.28 93.8604C1008.03 93.8604 1009.75 93.9703 1011.44 94.0803C1012.44 94.1403 1013.37 94.2204 1014.36 94.3104H1014.65L1015.75 94.4104C1019.81 94.8004 1024.1 95.4104 1028.56 96.1704L1030.32 96.5004L1032.43 96.9004H1032.57L1034.85 97.3704L1036.85 97.8104C1037.78 98.0204 1038.72 98.2303 1039.67 98.4603L1039.96 98.5304C1041.26 98.8404 1042.56 99.1704 1043.88 99.5304L1046 100.1L1048.14 100.7C1050.85 101.467 1053.57 102.314 1056.32 103.24L1058.58 104.01L1061.01 104.88C1062.63 105.46 1064.26 106.07 1065.88 106.72C1069.13 108 1072.39 109.39 1075.62 110.88C1077.24 111.62 1078.85 112.394 1080.46 113.2C1080.52 113.24 1080.59 113.273 1080.66 113.3C1082.2 114.06 1083.73 114.857 1085.25 115.69C1086.77 116.524 1088.35 117.407 1089.99 118.34L1092.11 119.59C1092.17 119.624 1092.23 119.665 1092.28 119.71L1092.67 119.94C1093.33 120.34 1094 120.75 1094.67 121.17L1096.98 122.65C1097.74 123.15 1098.5 123.65 1099.26 124.17C1100.02 124.69 1100.77 125.17 1101.52 125.73C1102.27 126.29 1103.01 126.8 1103.75 127.34C1105.29 128.467 1106.81 129.627 1108.3 130.82C1110.41 132.5 1112.47 134.24 1114.47 136.06C1115.16 136.68 1115.84 137.31 1116.47 137.94C1117.1 138.57 1118.07 139.46 1118.85 140.25C1119.06 140.45 1119.27 140.65 1119.46 140.86C1119.92 141.3 1120.35 141.74 1120.76 142.19C1121.17 142.64 1121.69 143.19 1122.14 143.64C1122.32 143.82 1122.49 144.01 1122.65 144.19C1123.19 144.77 1123.72 145.35 1124.24 145.94C1124.76 146.53 1125.47 147.35 1126.08 148.06C1126.69 148.77 1127.28 149.5 1127.87 150.23C1128.44 150.96 1129.02 151.69 1129.59 152.43C1130.73 153.917 1131.84 155.444 1132.91 157.01C1134.53 159.35 1136.06 161.77 1137.5 164.27C1138.95 166.76 1140.31 169.33 1141.5 171.98C1142.11 173.26 1142.69 174.56 1143.26 175.88L1143.7 176.96C1144.1 177.96 1144.5 178.96 1144.88 179.9C1144.88 179.99 1144.95 180.07 1144.98 180.16C1151.85 197.88 1154.38 219.05 1150.64 243.9Z" fill="#71C8B7"/>
<path d="M1071.47 199.76C1064.05 180.94 1044.74 173.63 1025.93 170.28C998.82 165.46 943.41 167.36 925.93 243.86C921.5 263.26 922.73 280.17 927.66 294.58C938.58 237.14 944.05 230.29 958.02 210.13C997.36 153.46 1071.47 199.76 1071.47 199.76Z" fill="#B7E1D9"/>
<path d="M1011.47 93.8296C957.9 90.2096 874.78 125.15 852.47 193.83C842.964 223.556 838.945 254.764 840.61 285.93C843.44 264.5 870.4 136.8 968.73 116.73C1075.12 95.0296 1144.32 179.05 1145.1 180C1122.53 120.1 1052.68 96.6096 1011.47 93.8296Z" fill="#B7E1D9"/>
<path d="M1264.19 240.91C1264.19 241.55 1264.19 242.19 1264.19 242.83V243.89C1264.19 244.47 1264.19 245.04 1264.19 245.62C1264.19 246.36 1264.19 247.1 1264.19 247.83V249.38C1264.19 250.74 1264.12 252.1 1264.07 253.45C1263.79 260.423 1263.23 267.307 1262.39 274.1C1247.87 278.3 1232.39 278.99 1216.95 273.28C1204.39 268.64 1194.55 262.94 1186.87 256.58C1157.71 232.48 1159.61 198.87 1161.53 177.08C1163.46 154.98 1180.12 131.79 1204.69 130.95C1211.38 130.795 1218.03 132.088 1224.17 134.74C1259.1 149.2 1236.17 177.26 1236.17 177.26C1236.17 177.26 1236.17 150.71 1208.47 155.45C1207.81 155.56 1207.17 155.7 1206.54 155.86C1182.54 161.66 1183.29 195.24 1198.06 214.57C1198.34 214.93 1198.62 215.29 1198.91 215.63C1198.94 215.679 1198.98 215.726 1199.02 215.77C1199.36 216.19 1199.7 216.59 1200.02 216.99C1200.54 217.57 1201.02 218.14 1201.62 218.68C1201.94 219.01 1202.27 219.33 1202.62 219.68C1202.97 220.03 1203.28 220.3 1203.62 220.59L1203.71 220.67C1204.02 220.94 1204.33 221.2 1204.65 221.45C1204.97 221.7 1205.31 221.98 1205.65 222.23H1205.71C1206.06 222.5 1206.43 222.76 1206.79 223.01C1207.15 223.26 1207.38 223.41 1207.68 223.6L1207.95 223.77C1208.31 224 1208.67 224.22 1209.04 224.42C1209.41 224.62 1209.77 224.84 1210.14 225.03C1210.18 225.042 1210.22 225.062 1210.26 225.09L1210.95 225.43L1211.27 225.58L1211.66 225.76C1211.97 225.9 1212.28 226.04 1212.6 226.16L1212.77 226.23C1213.12 226.37 1213.47 226.51 1213.83 226.63C1214.19 226.75 1214.67 226.92 1215.09 227.05C1230.66 231.78 1248.87 233.6 1263.51 224.73C1263.58 225.51 1263.63 226.28 1263.68 227.06C1263.68 227.61 1263.76 228.16 1263.79 228.71L1263.85 229.71C1263.93 231.07 1264 232.44 1264.05 233.81C1264.12 236.177 1264.16 238.543 1264.19 240.91Z" fill="#71C8B7"/>
<path d="M1264 233.85C1264.1 236.19 1264.16 238.544 1264.19 240.91C1218.65 250.12 1203.79 228.53 1199.53 218.91C1198.89 217.526 1198.38 216.087 1198 214.61C1198.28 214.97 1198.56 215.32 1198.85 215.67C1198.88 215.719 1198.92 215.766 1198.96 215.81C1199.29 216.22 1199.63 216.62 1199.96 217.01C1200.47 217.6 1200.96 218.17 1201.56 218.72C1201.88 219.05 1202.21 219.36 1202.56 219.72L1203.56 220.63L1203.65 220.71L1204.59 221.49L1205.59 222.27H1205.65C1206.01 222.537 1206.37 222.797 1206.73 223.05L1207.62 223.64L1207.89 223.81C1208.25 224.04 1208.61 224.25 1208.98 224.46C1209.35 224.67 1209.71 224.87 1210.08 225.07C1210.12 225.082 1210.16 225.103 1210.2 225.13L1210.89 225.47L1211.21 225.62L1211.6 225.8C1211.91 225.94 1212.22 226.08 1212.54 226.2L1212.71 226.27C1213.06 226.41 1213.41 226.55 1213.77 226.67C1214.13 226.79 1214.61 226.96 1215.03 227.09C1230.6 231.82 1248.81 233.64 1263.45 224.77C1263.52 225.55 1263.57 226.32 1263.62 227.1C1263.62 227.65 1263.7 228.2 1263.73 228.75L1263.79 229.75C1263.87 231.11 1263.94 232.48 1263.99 233.85H1264Z" fill="#B7E1D9"/>
<path d="M1225.47 375.9C1224.62 377.233 1223.76 378.543 1222.89 379.83C1220.69 383.096 1218.41 386.313 1216.06 389.48L1215.88 389.72C1209.86 397.782 1203.34 405.464 1196.37 412.72L1195.89 413.22C1180.36 411.624 1165.74 405.187 1154.07 394.82C1131.93 375.21 1130.2 356.29 1132.61 334.54C1132.79 332.94 1132.98 331.32 1133.2 329.69C1135.81 310.03 1152.69 289 1172.99 283.74C1177.33 282.589 1181.85 282.233 1186.32 282.69C1213.68 285.58 1223.27 295.69 1221.32 320.84C1218.94 351.76 1186.94 347.16 1186.94 347.16C1186.94 347.16 1206.09 334.24 1202.47 314.62C1198.85 295 1163.63 298.5 1160.58 329.38C1159.83 335.673 1160.02 342.044 1161.16 348.28C1161.28 348.84 1161.4 349.39 1161.54 349.93C1161.54 349.93 1161.54 349.93 1161.54 350C1161.68 350.58 1161.84 351.14 1162.01 351.69C1162.18 352.24 1162.34 352.77 1162.54 353.3C1162.74 353.83 1162.92 354.35 1163.14 354.86C1163.55 355.862 1164.01 356.841 1164.53 357.79C1165.27 359.194 1166.14 360.533 1167.11 361.79C1167.42 362.2 1167.75 362.6 1168.11 363C1168.79 363.794 1169.52 364.549 1170.29 365.26C1170.66 365.61 1171.04 365.95 1171.43 366.26L1171.51 366.34C1171.9 366.67 1172.31 366.99 1172.72 367.34C1173.13 367.69 1173.58 367.99 1174.03 368.34C1174.41 368.6 1174.8 368.86 1175.2 369.1L1175.65 369.39L1176.83 370.09C1177.32 370.37 1177.83 370.64 1178.34 370.9C1178.85 371.16 1179.34 371.42 1179.91 371.67C1180.48 371.92 1180.91 372.16 1181.51 372.39C1181.52 372.385 1181.53 372.383 1181.54 372.383C1181.56 372.383 1181.57 372.385 1181.58 372.39C1182.12 372.62 1182.67 372.84 1183.24 373.05C1183.81 373.26 1184.4 373.49 1185 373.7L1186.14 374.08L1186.82 374.3C1187.31 374.46 1187.82 374.61 1188.33 374.76L1188.81 374.9L1190.6 375.39L1192.06 375.75L1192.96 375.96C1193.36 376.06 1193.77 376.15 1194.18 376.23L1195.41 376.49C1196.41 376.69 1197.41 376.88 1198.41 377.05C1198.98 377.16 1199.56 377.25 1200.14 377.34C1201.14 377.51 1202.23 377.67 1203.3 377.82L1204.68 378L1206.09 378.18C1212.64 378.808 1219.25 378.031 1225.47 375.9Z" fill="#71C8B7"/>
<path d="M1225.47 375.9C1224.62 377.234 1223.76 378.544 1222.89 379.83C1220.69 383.097 1218.41 386.314 1216.06 389.48L1215.88 389.72C1212.74 389.499 1209.6 389.115 1206.5 388.57C1158.74 380.16 1160.58 348.07 1160.58 348.07L1161.17 348.28C1161.29 348.84 1161.42 349.39 1161.55 349.93C1161.55 349.93 1161.55 349.93 1161.55 350C1161.7 350.58 1161.85 351.14 1162.02 351.69C1162.19 352.24 1162.36 352.77 1162.55 353.3C1162.74 353.83 1162.94 354.35 1163.15 354.86C1163.56 355.86 1164.03 356.838 1164.54 357.79C1165.3 359.187 1166.16 360.524 1167.12 361.79C1167.44 362.2 1167.77 362.6 1168.12 363C1168.81 363.78 1169.53 364.54 1170.3 365.26C1170.67 365.6 1171.05 365.94 1171.44 366.26L1171.52 366.34L1172.73 367.34C1173.16 367.67 1173.6 367.98 1174.04 368.34C1174.42 368.6 1174.81 368.86 1175.21 369.1L1175.66 369.39C1176.04 369.63 1176.44 369.86 1176.84 370.09C1177.24 370.32 1177.84 370.64 1178.35 370.9C1178.86 371.16 1179.35 371.42 1179.92 371.67C1180.49 371.92 1180.98 372.15 1181.52 372.39C1181.53 372.386 1181.54 372.383 1181.56 372.383C1181.57 372.383 1181.58 372.386 1181.59 372.39C1182.13 372.61 1182.68 372.84 1183.25 373.05C1183.82 373.26 1184.41 373.49 1185.01 373.7L1186.15 374.08L1186.83 374.3L1188.34 374.76L1188.82 374.9C1189.4 375.07 1190 375.23 1190.61 375.39L1192.07 375.75L1192.97 375.96C1193.37 376.06 1193.78 376.15 1194.19 376.23L1195.42 376.49C1196.42 376.69 1197.42 376.88 1198.42 377.05C1198.99 377.16 1199.57 377.25 1200.15 377.34C1201.15 377.51 1202.24 377.67 1203.31 377.82L1204.69 378L1206.1 378.18C1212.65 378.807 1219.25 378.03 1225.47 375.9Z" fill="#B7E1D9"/>
<path d="M1027.53 458.035C1033.33 446.838 1022.42 429.654 1003.14 419.654C983.865 409.654 963.529 410.624 957.72 421.821C951.911 433.018 962.829 450.202 982.105 460.202C1001.38 470.202 1021.72 469.232 1027.53 458.035Z" fill="white"/>
<path d="M1047.86 453.17C1053.64 453.17 1058.32 448.487 1058.32 442.71C1058.32 436.933 1053.64 432.25 1047.86 432.25C1042.08 432.25 1037.4 436.933 1037.4 442.71C1037.4 448.487 1042.08 453.17 1047.86 453.17Z" fill="white"/>
<path d="M963.17 68.6541C976.424 61.0022 984.251 49.747 980.653 43.5148C977.055 37.2827 963.394 38.4335 950.14 46.0854C936.887 53.7374 929.059 64.9926 932.658 71.2248C936.256 77.4569 949.917 76.306 963.17 68.6541Z" fill="white"/>
<path d="M997.36 56.3804C1002.31 56.3804 1006.33 52.3644 1006.33 47.4104C1006.33 42.4564 1002.31 38.4404 997.36 38.4404C992.406 38.4404 988.39 42.4564 988.39 47.4104C988.39 52.3644 992.406 56.3804 997.36 56.3804Z" fill="white"/>
<path d="M472.57 313.58C472.57 312.38 472.57 311.19 472.48 309.98C472.39 307.55 472.24 305.04 472.04 302.54C471.77 299.08 471.39 295.63 470.91 292.3C470.72 290.93 470.5 289.57 470.28 288.21C469.96 286.35 469.61 284.46 469.28 282.62C469 281.24 468.7 279.88 468.39 278.53C467.39 274.03 466.1 269.53 464.67 265.21C464.32 264.13 463.95 263.05 463.57 261.97C460.174 252.343 455.738 243.115 450.34 234.45C449.58 233.23 448.75 231.97 447.75 230.45C442.963 223.368 437.471 216.788 431.36 210.81C429.75 209.25 428.07 207.7 426.36 206.22C424.65 204.74 422.88 203.22 421.1 201.89C420.04 201.07 418.92 200.23 417.57 199.26C415.41 197.71 413.17 196.2 410.88 194.78C409.36 193.78 408.06 193.05 406.8 192.33C405.8 191.76 404.8 191.21 403.8 190.66C398.875 188.046 393.78 185.764 388.55 183.83L386.76 183.18C383.98 182.18 381.11 181.3 378.23 180.51L376.52 180.04C366.926 177.552 357.1 176.068 347.2 175.61C345.28 175.52 343.34 175.48 341.44 175.48C335.57 175.473 329.709 175.925 323.91 176.83C322.68 177.03 321.46 177.24 320.25 177.48C310.982 179.288 301.994 182.314 293.52 186.48C292.52 186.98 291.52 187.48 290.52 188.02C288.57 189.02 286.61 190.17 284.7 191.32C281.94 193 279.18 194.83 276.5 196.76C274.79 198 273.07 199.31 271.38 200.67C270.54 201.34 269.72 202.01 268.91 202.67C267.32 204 265.73 205.4 264.17 206.83C259.244 211.392 254.602 216.251 250.27 221.38C250.41 220.7 250.57 220.03 250.7 219.38C250.77 219 250.84 218.62 250.9 218.25C251.717 213.628 252.132 208.944 252.14 204.25C252.14 186.36 249.54 159.99 237.14 136.03C224.54 111.66 197.72 82.6201 141.54 82.6201H140.94C135.94 82.6201 130.68 82.8901 125.35 83.3701C105.47 85.1601 87.94 89.3701 73.24 95.8901C72.24 96.3401 71.24 96.7901 70.24 97.2501C62.1941 101.044 54.6773 105.872 47.8799 111.61C47.1899 112.2 46.5199 112.79 45.8799 113.4C42.7028 116.276 39.7447 119.384 37.03 122.7C34.541 125.747 32.2687 128.965 30.23 132.33C29.47 133.58 28.73 134.88 28.04 136.17C27.7 136.82 27.36 137.47 27.04 138.11C26.41 139.36 25.81 140.65 25.25 141.92C24.45 143.74 23.71 145.62 23.04 147.48C22.62 148.67 22.2199 149.88 21.8499 151.08C19.2623 159.499 18.0138 168.273 18.1499 177.08C18.1499 177.66 18.15 178.26 18.21 178.83C18.28 180.64 18.4101 182.49 18.5801 184.32C18.6401 184.93 18.7 185.55 18.78 186.2C18.92 187.44 19.08 188.71 19.27 189.97C19.63 192.37 20.0799 194.82 20.6099 197.25C20.9599 198.83 21.35 200.43 21.78 202.01C22.65 205.23 23.67 208.41 24.78 211.44C25.27 212.75 25.7799 214.07 26.3699 215.39C27.5099 218.07 28.7799 220.7 30.1299 223.19C30.8299 224.49 31.5701 225.78 32.3301 227.04C33.1901 228.453 34.1299 229.9 35.1499 231.38C35.7699 232.27 36.4001 233.16 37.0601 234.04C38.8163 236.372 40.692 238.612 42.6799 240.75C43.1999 241.32 43.74 241.88 44.28 242.43C45.22 243.38 46.0401 244.18 46.8401 244.92C48.0101 246.01 49.24 247.08 50.49 248.11C51.74 249.14 53.0599 250.11 54.3899 251.11C60.73 255.662 67.6912 259.279 75.0601 261.85C66.8801 262.29 58.3466 262.51 49.46 262.51C22.73 262.51 2.77997 260.42 2.21997 260.36C1.65997 260.3 1.13009 260.28 0.590088 260.28H0.0500488V291.1C13.7 296.01 52.67 308.36 99.25 308.36C117.429 308.439 135.554 306.375 153.25 302.21C179.34 295.94 198.54 286.76 212.69 276.49C212.26 277.07 211.85 277.6 211.47 278.07C210.47 279.3 209.4 280.6 208.31 281.95C199.98 292.33 190.54 304.08 168.13 314.09C139.94 326.68 97.67 333.09 42.51 333.09C39.0201 333.091 35.6398 334.309 32.9512 336.534C30.2625 338.759 28.4338 341.852 27.78 345.28C27.1251 348.709 27.6865 352.259 29.3677 355.318C31.0488 358.378 33.7445 360.755 36.99 362.04C38.45 362.61 73.2499 376.18 117.66 376.18C170.34 376.18 214.41 357.11 246.24 320.79C245.99 322.16 245.77 323.56 245.58 324.96C245.45 325.89 245.34 326.84 245.23 327.79C244.812 331.723 244.596 335.675 244.58 339.63C244.58 342.7 244.66 345.87 244.87 349.06C245.281 355.449 246.285 361.787 247.87 367.99C248.12 368.99 248.39 369.99 248.67 370.93C250.034 375.641 251.773 380.236 253.87 384.67C254.28 385.54 254.71 386.39 255.14 387.24L255.57 388.03C255.35 387.91 255.13 387.78 254.9 387.67C241.894 380.889 227.795 376.451 213.25 374.56H213.1C211.2 374.32 209.24 374.1 207.1 373.89L206.5 373.83C204.7 373.66 202.85 373.52 200.84 373.39H199.98C198.2 373.29 196.37 373.21 194.52 373.16H193.6C192.2 373.16 190.81 373.16 189.42 373.16H187.37C185.45 373.16 183.68 373.23 181.98 373.3H181.37C179.37 373.39 177.54 373.5 175.79 373.63H175.64C173.92 373.76 172.15 373.92 170.23 374.12L169.69 374.18C168.04 374.36 166.34 374.57 164.52 374.82L163.73 374.93C162.12 375.15 160.45 375.41 158.73 375.7L157.87 375.84C156.24 376.13 154.62 376.43 153 376.76L152.22 376.92C150.59 377.25 148.97 377.6 147.35 377.98L146.8 378.11C145.01 378.53 143.38 378.94 141.8 379.37H141.7C140.06 379.81 138.44 380.26 136.87 380.72L136.4 380.86C134.827 381.32 133.283 381.797 131.77 382.29L131.09 382.51C129.6 383 128.09 383.51 126.68 384.01L125.94 384.27C124.48 384.79 123.04 385.32 121.62 385.86L120.97 386.11C119.52 386.67 118.08 387.24 116.67 387.82L116.2 388.01C114.72 388.63 113.25 389.25 111.8 389.89H111.72C110.26 390.53 108.82 391.19 107.36 391.89L107.12 392C105.73 392.65 104.36 393.32 103.03 394L102.54 394.24C101.22 394.9 99.9199 395.56 98.6299 396.24L98.1199 396.5C96.8399 397.18 95.5799 397.86 94.3699 398.5L93.8899 398.76C92.6199 399.47 91.3601 400.18 90.0901 400.91L89.8699 401.04C87.3299 402.52 84.7801 404.04 82.3 405.64L82.1899 405.7C80.9799 406.47 79.7999 407.24 78.6299 408.01L78.3999 408.16C77.2599 408.91 76.14 409.67 75.04 410.43L74.77 410.61C73.67 411.37 72.5801 412.13 71.5601 412.86C71.5601 412.86 71.3101 413.03 71.3101 413.04C70.2301 413.81 69.1599 414.59 68.1199 415.36C62.2499 419.72 56.5901 424.36 51.3301 429.05C48.5453 431.551 46.7961 435.003 46.426 438.727C46.056 442.452 47.0919 446.18 49.3301 449.18C50.7273 451.043 52.539 452.555 54.6218 453.597C56.7047 454.638 59.0014 455.18 61.3301 455.18C64.0901 455.184 66.7969 454.423 69.1499 452.98C92.0199 438.98 121.15 432.74 146.02 430.09C145.16 430.63 144.32 431.18 143.49 431.75C140.505 433.805 137.693 436.099 135.08 438.61C131.202 442.352 127.778 446.537 124.88 451.08C124.54 451.62 124.2 452.16 123.88 452.71C123.43 453.45 123.01 454.19 122.6 454.92C122.19 455.65 121.82 456.35 121.45 457.06C121.08 457.77 120.71 458.52 120.36 459.26C119.69 460.67 119.04 462.16 118.42 463.68C118.06 464.567 117.727 465.457 117.42 466.35C115.708 471.068 114.41 475.927 113.54 480.87L113.46 481.37C113.093 483.537 112.807 485.687 112.6 487.82H167.17C168.25 480.28 171.41 474.89 176.74 471.42C180.304 469.182 184.334 467.793 188.52 467.36C188.835 467.367 189.15 467.344 189.46 467.29H190.04C192.47 467.29 195.89 467.89 197.52 469.57C199.52 471.57 199.65 476.06 199.57 478.57C199.574 479.93 199.354 481.281 198.92 482.57C198.28 482.713 197.625 482.777 196.97 482.76C194.658 482.703 192.368 482.291 190.18 481.54C188.497 480.895 186.712 480.556 184.91 480.54C182.698 480.541 180.514 481.031 178.514 481.975C176.513 482.919 174.747 484.293 173.34 486C172.876 486.561 172.454 487.156 172.08 487.78H309.44C309.65 486.13 309.82 484.47 309.95 482.78V482.47C310.345 477.254 310.345 472.016 309.95 466.8C309.17 456.64 305.17 442.21 296.72 427.8C298.18 428.57 299.65 429.32 301.16 430.02C302.67 430.72 303.94 431.3 305.36 431.9C306.78 432.5 308.14 433.05 309.55 433.59L311.63 434.36C313.63 435.1 315.75 435.79 317.83 436.43L320.44 437.19C324.06 438.19 327.74 439.07 331.38 439.76C333.38 440.15 335.44 440.48 337.38 440.76C338.54 440.91 339.67 441.05 340.76 441.17H341.15C344.438 441.521 347.743 441.701 351.05 441.71C363.998 441.788 376.903 440.208 389.45 437.01C390.45 436.74 391.45 436.47 392.5 436.18L395.01 435.43C400.037 433.872 404.954 431.981 409.73 429.77C412.13 428.66 414.51 427.45 416.81 426.17C418.36 425.31 419.91 424.4 421.4 423.47C426.337 420.388 431.001 416.889 435.34 413.01C436.49 412.01 437.49 411.01 438.41 410.16C442.428 406.255 446.108 402.017 449.41 397.49C449.98 396.72 450.53 395.94 451.07 395.15C457.307 385.967 462.159 375.916 465.47 365.32C466.47 362.32 467.34 359.09 468.12 355.9C469.413 350.471 470.415 344.976 471.12 339.44C471.45 336.85 471.73 334.26 471.94 331.75C472.458 325.708 472.668 319.644 472.57 313.58ZM185.35 196.05C181.29 164.23 161.74 156.59 150.46 154.88C149.89 154.79 149.32 154.71 148.74 154.65C146.94 154.448 145.131 154.348 143.32 154.35C137.405 154.409 131.527 155.301 125.86 157L125.14 157.21C122.98 157.85 120.81 158.6 118.7 159.44L118.01 159.71C116.54 160.31 115.11 160.93 113.78 161.57C102.88 166.75 103.78 175.91 104.25 178.57C104.903 181.997 106.731 185.088 109.417 187.313C112.104 189.538 115.482 190.757 118.97 190.76C131.11 190.76 131.83 195.26 132.31 198.23C132.95 202.23 132.54 205.66 131.25 207.23C129.74 209 125.53 210.06 119.98 210.06C109.57 210.06 101.87 207.59 97.1099 202.72C92.0399 197.54 89.6099 188.92 89.8699 177.09C90.1099 166.56 94.9399 158.63 104.64 152.85C110.02 149.733 115.89 147.552 122 146.4C122.75 146.33 125.14 146.15 128.6 146.15C156.47 146.15 189.99 155.47 191.43 199.87C191.79 211.04 188.66 220.38 181.87 228.33C185.32 219.76 187.01 209.12 185.35 196.05ZM318.74 318.76C322.09 315.38 326.61 314.67 329.82 314.67C330.639 314.668 331.458 314.721 332.27 314.83C332.919 315.025 333.592 315.133 334.27 315.15H335.03C339.76 315.48 345.3 318.58 345.3 331.3C345.317 334.621 346.436 337.843 348.481 340.46C350.526 343.077 353.381 344.941 356.6 345.76C357.825 346.077 359.085 346.238 360.35 346.24C363.029 346.239 365.658 345.521 367.966 344.16C370.273 342.798 372.173 340.844 373.47 338.5C374.522 336.553 375.467 334.55 376.3 332.5C376.46 332.11 376.63 331.7 376.8 331.27C377.42 329.71 378 328.11 378.52 326.5C378.94 325.19 379.31 323.94 379.64 322.72C379.84 321.96 380.03 321.19 380.22 320.37L380.34 319.86C380.5 319.14 380.65 318.41 380.79 317.67L380.87 317.24C381.02 316.43 381.15 315.61 381.26 314.83L381.32 314.41C381.51 312.99 381.65 311.57 381.74 310.19C381.81 309.09 381.84 307.99 381.85 306.92C381.86 305.85 381.85 304.72 381.75 303.63C381.75 303.06 381.66 302.48 381.61 301.95C381.49 300.77 381.34 299.61 381.14 298.51C380.509 294.844 379.389 291.279 377.81 287.91C377.243 286.706 376.615 285.531 375.93 284.39C374.875 282.631 373.682 280.959 372.36 279.39C365.54 271.23 355.42 265.65 342.26 262.81C334.999 261.228 327.591 260.42 320.16 260.4C318.71 260.4 317.25 260.4 315.83 260.5C314.41 260.6 312.83 260.67 311.42 260.8C308.49 261.077 305.577 261.501 302.69 262.07C301.96 262.21 301.24 262.37 300.53 262.53L298.8 262.94C317.58 249.82 330.8 249.22 333.04 249.22C333.256 249.236 333.474 249.236 333.69 249.22H334.37C346.002 249.692 357.325 253.105 367.28 259.14C387.77 271.74 398.63 294.79 399.58 327.63C399.99 341.85 396.58 352.52 389.05 360.23C375.55 374.12 352.59 374.52 350.05 374.52C345.91 374.13 312.25 370.16 312.05 344.16C311.93 332.05 314.25 323.24 318.74 318.76Z" fill="#231F20"/>
<path d="M235.08 479.84C234.984 482.544 234.506 485.221 233.66 487.79H212.86C213.887 484.962 214.428 481.98 214.46 478.97C215.46 449.29 187.82 452.34 187.82 452.34C187.82 452.34 155.54 453.42 151.97 487.79H127.58C129.83 468.13 142.04 434.97 186.99 433.79C230.94 432.62 235.22 466.45 235.08 479.84Z" fill="#51A898"/>
<path d="M294.21 487.76H257C258.042 482.714 258.438 477.556 258.18 472.41C255.93 418.65 203.37 414.08 203.37 414.08C203.37 414.08 117 405.98 61.25 440.08C63.45 438.08 65.8499 436.08 68.4199 433.94L69.6099 432.94L70.8301 431.94L72.0701 430.94L73.3401 429.94C74.2001 429.28 75.07 428.61 75.95 427.94L77.3 426.94L78.6599 425.94C79.5799 425.27 80.52 424.6 81.47 423.94C82.42 423.28 83.3699 422.61 84.3499 421.94C86.8765 420.22 89.5133 418.507 92.26 416.8L93.6199 415.97L95.25 414.97C96.88 413.97 98.56 413.02 100.25 412.07L101.96 411.07L103.7 410.13L105.46 409.2L107.24 408.28L109.04 407.37L110.86 406.47L112.71 405.58C115.177 404.407 117.703 403.27 120.29 402.17C121.58 401.62 122.89 401.09 124.21 400.56C130.296 398.132 136.505 396.023 142.81 394.24L144.89 393.66L147.23 393.05L149.35 392.53L151.05 392.12L152.85 391.72L155.52 391.15L157.83 390.7C158.65 390.54 159.48 390.39 160.31 390.25C162.18 389.92 164.08 389.62 165.99 389.36C166.67 389.26 167.35 389.16 167.99 389.08L170.18 388.81L171.51 388.66C173.043 388.5 174.583 388.36 176.13 388.24C176.72 388.19 177.32 388.14 177.92 388.11L179.05 388.03L181.21 387.91L183.91 387.8H185.72C194.202 387.616 202.686 388.074 211.1 389.17C277.37 398.37 293.63 451.39 294.88 467.78C295.395 474.445 295.17 481.145 294.21 487.76Z" fill="#51A898"/>
<path d="M235.08 479.84C234.984 482.544 234.506 485.221 233.66 487.79H222.35C223.321 484.476 223.954 481.072 224.24 477.63C227.67 441.22 189.86 443.2 184.81 444.11C180.25 444.94 143.02 446.79 139 487.79H127.58C129.83 468.13 142.04 434.97 186.99 433.79C230.94 432.62 235.22 466.45 235.08 479.84Z" fill="#B7E1D9"/>
<path d="M294.21 487.76H278.77C278.77 487.27 278.77 486.76 278.77 486.28C278.77 420.76 237.59 401.91 203.28 399.09C196.7 398.55 184.28 399.15 169.37 401.09C158.77 402.46 146.86 404.51 134.78 407.29C110.2 412.95 84.8999 421.66 68.3699 434.02L69.5601 433.02L70.78 432.02L72.02 431.02L73.29 430.02C74.15 429.36 75.0199 428.69 75.8999 428.02L77.25 427.02L78.6099 426.02C79.5299 425.35 80.4699 424.68 81.4199 424.02L84.3 422.02C86.8267 420.3 89.4633 418.587 92.21 416.88L93.5701 416.05L95.2 415.05C96.83 414.05 98.5 413.11 100.2 412.15L101.91 411.15L103.65 410.21L105.41 409.28L107.19 408.36L108.99 407.45L110.81 406.55L112.66 405.66C115.127 404.487 117.653 403.35 120.24 402.25C121.53 401.7 122.84 401.17 124.16 400.64C130.246 398.212 136.455 396.103 142.76 394.32L144.84 393.74L147.18 393.13L149.3 392.61L151 392.2L152.8 391.8L155.47 391.23L157.78 390.78C158.6 390.62 159.43 390.47 160.26 390.33C162.13 390 164.03 389.7 165.94 389.44C166.62 389.34 167.3 389.24 167.94 389.16L170.13 388.89L171.46 388.74C172.993 388.58 174.533 388.44 176.08 388.32C176.67 388.27 177.27 388.22 177.87 388.19L179 388.11L181.16 387.99L183.86 387.88H185.67C194.152 387.697 202.637 388.154 211.05 389.25C277.32 398.45 293.58 451.47 294.83 467.86C295.356 474.496 295.148 481.17 294.21 487.76Z" fill="#B7E1D9"/>
<path d="M118.97 175.76C126.51 175.76 144.1 177 147.12 195.86C149.12 208.43 145.83 225.01 119.98 225.01C94.13 225.01 74.0799 212.25 74.8799 176.71C75.7499 137.56 120.12 131.46 120.12 131.46C120.12 131.46 203.91 121.98 206.42 199.33C209.62 297.85 0.550049 275.33 0.550049 275.33C0.550049 275.33 74.64 305.75 149.75 287.69C224.86 269.63 237.04 226.82 237.04 204.35C237.04 181.88 233.04 88.8098 126.6 98.4098C37.0699 106.48 32.7401 162.99 33.0701 176.75C33.8301 209 53.36 257.23 118.79 252C118.79 252 177.04 249.59 170.47 198C164.53 151.34 118.97 175.76 118.97 175.76Z" fill="#51A898"/>
<path d="M149.75 287.61C224.85 269.54 237.04 226.74 237.04 204.27C237.04 181.8 233.04 88.7298 126.6 98.3298C37.0699 106.4 32.7401 162.91 33.0701 176.67C33.8301 208.92 53.36 257.15 118.79 251.92C118.79 251.92 177.04 249.51 170.47 197.92C164.53 151.31 118.97 175.7 118.97 175.7C118.97 175.7 156.1 165.32 159.5 198.38C162.9 231.44 123.33 238.59 118.79 238.59C114.25 238.59 64.9901 241.81 57.5901 186.04C50.1901 130.27 112.43 116.12 125.69 115.2C136.44 114.46 211.85 104.26 223.94 186.5C237.04 275.61 92.48 302.25 0.550049 275.22C0.550049 275.25 74.64 305.67 149.75 287.61Z" fill="#B7E1D9"/>
<path d="M42.47 348.04C42.47 348.04 173.63 399.94 245.72 297.04C292.28 230.61 334.18 234.22 334.18 234.22C334.18 234.22 411.86 232.76 414.58 327.22C416.44 391.71 349.25 389.54 349.25 389.54C349.25 389.54 297.32 385.92 296.99 344.3C296.57 292.04 335.18 300.08 335.18 300.08C335.18 300.08 360.31 300.08 360.31 331.24C360.31 331.24 384.67 287.31 339.06 277.47C298.84 268.78 255.78 286.39 259.8 348.04C263.82 409.69 323.52 426.74 350.94 426.74C402.12 426.74 450.86 402.26 456.94 330.48C463.02 258.7 422.52 194.29 346.35 190.64C270.18 186.99 240.28 266.64 222.96 287.64C205.64 308.64 182.35 348.04 42.47 348.04Z" fill="#51A898"/>
<path d="M158.13 345.1C204.74 328.19 223.48 310.83 260.04 253.7C296.6 196.57 349.15 211.2 364.69 217.14C380.23 223.08 433.69 246.85 433.24 333.68C432.79 420.51 351.44 409.54 345.95 409.54C340.46 409.54 277.95 405.43 279.23 328.65C280.15 273.81 378.86 273.35 360.35 331.24C360.35 331.24 384.71 287.31 339.1 277.47C298.88 268.78 255.82 286.39 259.84 348.04C263.86 409.69 323.56 426.74 350.98 426.74C402.16 426.74 450.9 402.26 456.98 330.48C463.06 258.7 422.56 194.29 346.39 190.64C270.22 186.99 240.32 266.64 223 287.64C205.68 308.64 182.33 348.07 42.49 348.07C42.47 348.04 115.08 360.76 158.13 345.1Z" fill="#B7E1D9"/>
<path d="M235.08 479.84C234.984 482.544 234.506 485.221 233.66 487.79H212.86C213.887 484.962 214.428 481.98 214.46 478.97C215.46 449.29 187.82 452.34 187.82 452.34C187.82 452.34 155.54 453.42 151.97 487.79H127.58C129.83 468.13 142.04 434.97 186.99 433.79C230.94 432.62 235.22 466.45 235.08 479.84Z" fill="#476FB6"/>
<path d="M294.21 487.76H257C258.042 482.714 258.438 477.556 258.18 472.41C255.93 418.65 203.37 414.08 203.37 414.08C203.37 414.08 117 405.98 61.25 440.08C63.45 438.08 65.8499 436.08 68.4199 433.94L69.6099 432.94L70.8301 431.94L72.0701 430.94L73.3401 429.94C74.2001 429.28 75.07 428.61 75.95 427.94L77.3 426.94L78.6599 425.94C79.5799 425.27 80.52 424.6 81.47 423.94C82.42 423.28 83.3699 422.61 84.3499 421.94C86.8765 420.22 89.5133 418.507 92.26 416.8L93.6199 415.97L95.25 414.97C96.88 413.97 98.56 413.02 100.25 412.07L101.96 411.07L103.7 410.13L105.46 409.2L107.24 408.28L109.04 407.37L110.86 406.47L112.71 405.58C115.177 404.407 117.703 403.27 120.29 402.17C121.58 401.62 122.89 401.09 124.21 400.56C130.296 398.132 136.505 396.023 142.81 394.24L144.89 393.66L147.23 393.05L149.35 392.53L151.05 392.12L152.85 391.72L155.52 391.15L157.83 390.7C158.65 390.54 159.48 390.39 160.31 390.25C162.18 389.92 164.08 389.62 165.99 389.36C166.67 389.26 167.35 389.16 167.99 389.08L170.18 388.81L171.51 388.66C173.043 388.5 174.583 388.36 176.13 388.24C176.72 388.19 177.32 388.14 177.92 388.11L179.05 388.03L181.21 387.91L183.91 387.8H185.72C194.202 387.616 202.686 388.074 211.1 389.17C277.37 398.37 293.63 451.39 294.88 467.78C295.395 474.445 295.17 481.145 294.21 487.76Z" fill="#476FB6"/>
<path d="M235.08 479.84C234.984 482.544 234.506 485.221 233.66 487.79H222.35C223.321 484.476 223.954 481.072 224.24 477.63C227.67 441.22 189.86 443.2 184.81 444.11C180.25 444.94 143.02 446.79 139 487.79H127.58C129.83 468.13 142.04 434.97 186.99 433.79C230.94 432.62 235.22 466.45 235.08 479.84Z" fill="#A3BEE4"/>
<path d="M294.21 487.76H278.77C278.77 487.27 278.77 486.76 278.77 486.28C278.77 420.76 237.59 401.91 203.28 399.09C196.7 398.55 184.28 399.15 169.37 401.09C158.77 402.46 146.86 404.51 134.78 407.29C110.2 412.95 84.8999 421.66 68.3699 434.02L69.5601 433.02L70.78 432.02L72.02 431.02L73.29 430.02C74.15 429.36 75.0199 428.69 75.8999 428.02L77.25 427.02L78.6099 426.02C79.5299 425.35 80.4699 424.68 81.4199 424.02L84.3 422.02C86.8267 420.3 89.4633 418.587 92.21 416.88L93.5701 416.05L95.2 415.05C96.83 414.05 98.5 413.11 100.2 412.15L101.91 411.15L103.65 410.21L105.41 409.28L107.19 408.36L108.99 407.45L110.81 406.55L112.66 405.66C115.127 404.487 117.653 403.35 120.24 402.25C121.53 401.7 122.84 401.17 124.16 400.64C130.246 398.212 136.455 396.103 142.76 394.32L144.84 393.74L147.18 393.13L149.3 392.61L151 392.2L152.8 391.8L155.47 391.23L157.78 390.78C158.6 390.62 159.43 390.47 160.26 390.33C162.13 390 164.03 389.7 165.94 389.44C166.62 389.34 167.3 389.24 167.94 389.16L170.13 388.89L171.46 388.74C172.993 388.58 174.533 388.44 176.08 388.32C176.67 388.27 177.27 388.22 177.87 388.19L179 388.11L181.16 387.99L183.86 387.88H185.67C194.152 387.697 202.637 388.154 211.05 389.25C277.32 398.45 293.58 451.47 294.83 467.86C295.356 474.496 295.148 481.17 294.21 487.76Z" fill="#A3BEE4"/>
<path d="M118.97 175.76C126.51 175.76 144.1 177 147.12 195.86C149.12 208.43 145.83 225.01 119.98 225.01C94.13 225.01 74.0799 212.25 74.8799 176.71C75.7499 137.56 120.12 131.46 120.12 131.46C120.12 131.46 203.91 121.98 206.42 199.33C209.62 297.85 0.550049 275.33 0.550049 275.33C0.550049 275.33 74.64 305.75 149.75 287.69C224.86 269.63 237.04 226.82 237.04 204.35C237.04 181.88 233.04 88.8098 126.6 98.4098C37.0699 106.48 32.7401 162.99 33.0701 176.75C33.8301 209 53.36 257.23 118.79 252C118.79 252 177.04 249.59 170.47 198C164.53 151.34 118.97 175.76 118.97 175.76Z" fill="#476FB6"/>
<path d="M149.75 287.61C224.85 269.54 237.04 226.74 237.04 204.27C237.04 181.8 233.04 88.7298 126.6 98.3298C37.0699 106.4 32.7401 162.91 33.0701 176.67C33.8301 208.92 53.36 257.15 118.79 251.92C118.79 251.92 177.04 249.51 170.47 197.92C164.53 151.31 118.97 175.7 118.97 175.7C118.97 175.7 156.1 165.32 159.5 198.38C162.9 231.44 123.33 238.59 118.79 238.59C114.25 238.59 64.9901 241.81 57.5901 186.04C50.1901 130.27 112.43 116.12 125.69 115.2C136.44 114.46 211.85 104.26 223.94 186.5C237.04 275.61 92.48 302.25 0.550049 275.22C0.550049 275.25 74.64 305.67 149.75 287.61Z" fill="#A3BEE4"/>
<path d="M42.47 348.04C42.47 348.04 173.63 399.94 245.72 297.04C292.28 230.61 334.18 234.22 334.18 234.22C334.18 234.22 411.86 232.76 414.58 327.22C416.44 391.71 349.25 389.54 349.25 389.54C349.25 389.54 297.32 385.92 296.99 344.3C296.57 292.04 335.18 300.08 335.18 300.08C335.18 300.08 360.31 300.08 360.31 331.24C360.31 331.24 384.67 287.31 339.06 277.47C298.84 268.78 255.78 286.39 259.8 348.04C263.82 409.69 323.52 426.74 350.94 426.74C402.12 426.74 450.86 402.26 456.94 330.48C463.02 258.7 422.52 194.29 346.35 190.64C270.18 186.99 240.28 266.64 222.96 287.64C205.64 308.64 182.35 348.04 42.47 348.04Z" fill="#476FB6"/>
<path d="M158.13 345.1C204.74 328.19 223.48 310.83 260.04 253.7C296.6 196.57 349.15 211.2 364.69 217.14C380.23 223.08 433.69 246.85 433.24 333.68C432.79 420.51 351.44 409.54 345.95 409.54C340.46 409.54 277.95 405.43 279.23 328.65C280.15 273.81 378.86 273.35 360.35 331.24C360.35 331.24 384.71 287.31 339.1 277.47C298.88 268.78 255.82 286.39 259.84 348.04C263.86 409.69 323.56 426.74 350.98 426.74C402.16 426.74 450.9 402.26 456.98 330.48C463.06 258.7 422.56 194.29 346.39 190.64C270.22 186.99 240.32 266.64 223 287.64C205.68 308.64 182.33 348.07 42.49 348.07C42.47 348.04 115.08 360.76 158.13 345.1Z" fill="#A3BEE4"/>
<path d="M439.18 340.99C445.741 340.99 451.06 329.756 451.06 315.9C451.06 302.043 445.741 290.81 439.18 290.81C432.619 290.81 427.3 302.043 427.3 315.9C427.3 329.756 432.619 340.99 439.18 340.99Z" fill="white"/>
<path d="M426.38 287.06C430.417 287.06 433.69 283.788 433.69 279.75C433.69 275.713 430.417 272.44 426.38 272.44C422.343 272.44 419.07 275.713 419.07 279.75C419.07 283.788 422.343 287.06 426.38 287.06Z" fill="white"/>
<path d="M152.923 410.616C162.657 409.158 170.062 404.74 169.464 400.747C168.866 396.754 160.491 394.7 150.757 396.158C141.024 397.616 133.619 402.035 134.217 406.027C134.815 410.02 143.19 412.074 152.923 410.616Z" fill="white"/>
<path d="M50.42 198.41C57.5665 198.41 63.36 187.974 63.36 175.1C63.36 162.226 57.5665 151.79 50.42 151.79C43.2734 151.79 37.48 162.226 37.48 175.1C37.48 187.974 43.2734 198.41 50.42 198.41Z" fill="white"/>
<path d="M63.5401 151.79C66.8207 151.79 69.4801 149.131 69.4801 145.85C69.4801 142.57 66.8207 139.91 63.5401 139.91C60.2595 139.91 57.6001 142.57 57.6001 145.85C57.6001 149.131 60.2595 151.79 63.5401 151.79Z" fill="white"/>
<path d="M115.304 287.637C129.143 286.444 140.138 282.893 139.863 279.708C139.588 276.522 128.147 274.907 114.309 276.1C100.47 277.294 89.4747 280.844 89.7495 284.03C90.0243 287.216 101.465 288.831 115.304 287.637Z" fill="white"/>
<path d="M533.3 0C528.38 13.58 528 26 532.17 37.11C536.1 47.54 544.05 56.25 555.17 62.3C560.373 65.146 565.942 67.2656 571.72 68.6C574.29 69.1762 576.967 69.0656 579.481 68.2792C581.994 67.4927 584.257 66.0583 586.04 64.12C587.584 62.4441 588.727 60.4385 589.38 58.2552C590.033 56.072 590.18 53.7686 589.81 51.52C589.439 49.2699 588.56 47.134 587.24 45.2747C585.919 43.4153 584.192 41.8817 582.19 40.79C580.947 39.8897 579.895 38.7517 579.096 37.442C578.296 36.1323 577.764 34.6769 577.53 33.16C577 29.25 578.35 24.16 581.44 18.49C582.07 17.32 582.8 16.09 583.59 14.86C588.39 7.36999 593.95 3.85997 601.59 3.33997H601.86H602.28C614.91 2.88997 629.68 10.95 635.28 13.98C649.72 21.85 683.28 43.81 683.38 77.58C683.38 78.48 683.38 79.48 683.28 80.58C683.28 81.24 683.2 81.91 683.14 82.58C682.892 85.1402 682.481 87.6821 681.91 90.1901C681.45 92.1901 680.91 94.06 680.35 95.89C679.79 97.72 679.15 99.4 678.44 101.15C676.401 106.105 673.959 110.884 671.14 115.44C668.536 119.715 665.668 123.823 662.55 127.74C640.93 154.64 612.92 161.6 576.91 149.02C567.419 145.594 558.225 141.397 549.42 136.47L545.33 134.21L542.33 132.57C536.7 129.5 526.85 121.02 515.97 111.17C523.28 115.88 529.13 119.17 532.44 121.01C547.23 129.08 580.58 140.16 611.76 130.55C631.04 124.61 646.37 111.44 656.1 92.46C665.23 74.65 667.2 58.55 661.94 44.59C658.01 34.17 650.07 25.46 638.94 19.41C633.685 16.5365 628.059 14.403 622.22 13.0701C614.9 11.5101 607.22 15.4 604.63 22.47C603.355 25.7687 603.318 29.4177 604.526 32.7417C605.734 36.0656 608.105 38.8395 611.2 40.55L611.76 40.84C613.152 41.8036 614.312 43.0641 615.158 44.5305C616.003 45.9969 616.513 47.6329 616.65 49.3201C616.65 49.6101 616.65 49.91 616.65 50.21C616.65 50.21 616.65 50.29 616.65 50.34C616.65 53.98 615.29 58.34 612.65 63.21C612 64.4 611.28 65.62 610.49 66.85C603.66 77.52 592.18 85.97 558.81 67.77C546.04 60.77 515.86 41.43 511.3 11.83C511.13 10.73 511 9.72996 510.92 8.82996C510.92 8.68996 510.92 8.55002 510.92 8.40002C510.695 5.61123 510.695 2.80882 510.92 0.0200195H426.64C430.5 19.39 439.81 38.57 454.51 57.15L453.94 56.71C448.523 52.5598 442.844 48.762 436.94 45.34C436.35 45 435.75 44.67 435.16 44.34C433.27 43.34 431.36 42.3401 429.48 41.4401C428.26 40.8701 427.03 40.31 425.8 39.78C387.8 23.57 358.45 38.38 347.21 59C342.072 68.6869 340.575 79.8941 342.99 90.59C344.272 96.5356 346.825 102.133 350.474 106.999C354.123 111.865 358.781 115.884 364.13 118.78C379.38 127.1 394.81 128.27 406.46 122.01L406.95 121.74C407.865 121.225 408.752 120.665 409.61 120.06C411.497 118.725 413.219 117.17 414.74 115.43C415.31 114.77 415.82 114.14 416.28 113.51C417.013 112.486 417.681 111.417 418.28 110.31C419.348 108.35 419.964 106.177 420.085 103.949C420.206 101.721 419.829 99.4938 418.98 97.4301C417.673 94.2463 415.311 91.6088 412.29 89.96C411.394 89.4647 410.449 89.0627 409.47 88.76C404.569 87.3901 399.813 85.5447 395.27 83.25L395.03 83.12C398.34 82.98 405.03 84.03 415.52 89.77C423.97 94.37 442.78 118.11 457.9 137.18C477.96 162.48 498.71 188.65 516.76 201.83C522.546 206.039 528.603 209.864 534.89 213.28C569.66 232.28 610.73 240.04 647.56 234.68C679.83 229.99 724.56 212.88 754.47 158.05C778.72 113.58 773.54 67.5201 739.56 24.5701L740.14 25.02L741.21 25.8201C742.19 26.5534 743.16 27.2633 744.12 27.95C748.299 30.994 752.639 33.8115 757.12 36.39C757.71 36.72 758.29 37.05 758.88 37.39C762.963 39.6256 767.189 41.5899 771.53 43.27C807.94 57.27 836.1 42.46 846.85 22.74C850.581 15.7596 852.413 7.92109 852.16 0.0100098L533.3 0Z" fill="#231F20"/>
<path d="M642.76 85.62C617.68 134.53 559.76 118.84 539.62 107.85C524.71 99.72 455.76 59.3 441.98 0H495.88C493.02 47.25 540.19 74.69 551.68 81C564.83 88.17 595.76 104.09 616.93 82.86C619.291 80.473 621.386 77.8377 623.18 75C624.36 73.15 625.41 71.36 626.31 69.63C627.707 67.0135 628.881 64.2838 629.82 61.47L630.06 60.7C630.22 60.2 630.36 59.7 630.49 59.21C630.55 58.96 630.62 58.71 630.68 58.46C630.81 57.98 630.91 57.46 631.01 57.03C633.84 43.36 627.57 34.91 623.11 30.8C622.74 30.46 622.38 30.15 622.04 29.87C621.136 29.1256 620.173 28.4566 619.16 27.87C621.08 28.16 666.98 38.38 642.76 85.62Z" fill="#FEE955"/>
<path d="M833.7 15.55C825.13 31.28 799.7 43.32 764.54 23.35C755.21 18.05 744.34 9.62 733.08 0H764.36C766.507 1.94824 768.853 3.66441 771.36 5.12C793.94 17.43 809.07 15.22 814.36 5.54004C815.334 3.81947 816.011 1.9463 816.36 0H837.14C837.406 5.3978 836.218 10.768 833.7 15.55Z" fill="#FEE955"/>
<path d="M632.47 83.92C605.87 129.83 539.89 95.4301 539.89 95.4301C539.89 95.4301 474.61 62.86 475.41 0H495.91C493.05 47.25 540.22 74.69 551.71 81C564.86 88.17 595.79 104.09 616.96 82.86C619.312 80.468 621.404 77.8333 623.2 75C624.39 73.15 625.43 71.36 626.34 69.63C627.729 67.0095 628.903 64.2805 629.85 61.47L630.09 60.7C630.25 60.2 630.39 59.7 630.52 59.21C630.58 58.96 630.65 58.71 630.71 58.46C630.84 57.98 630.94 57.46 631.04 57.03C633.87 43.36 627.6 34.91 623.14 30.8C622.77 30.46 622.41 30.15 622.07 29.87C621.166 29.1256 620.203 28.4566 619.19 27.87C620.95 28.25 658.47 39.09 632.47 83.92Z" fill="#FEE000"/>
<path d="M833.7 15.55C825.13 31.28 799.7 43.32 764.54 23.35C755.21 18.05 744.34 9.62 733.08 0H748.19C759.19 9.36 770.51 16.84 782.35 20.51C817.62 31.43 824.46 6.58997 824.46 6.58997C824.853 4.41672 824.971 2.20265 824.81 0H837.18C837.433 5.40145 836.232 10.7719 833.7 15.55Z" fill="#FEE000"/>
<path d="M549.47 0H576.13C574.196 2.09522 572.456 4.36114 570.93 6.77002C550.05 39.38 573.93 53.3401 574.93 53.9401C573.09 53.5601 529.68 43.91 549.47 0Z" fill="#FEE955"/>
<path d="M741.34 150.88C689.02 246.88 579.46 229.05 525.63 189.72C493.29 166.1 445.3 88.91 422.72 76.6C400.14 64.29 385.01 66.5001 379.72 76.1801C374.43 85.8601 377.33 94.75 405.16 103.12C400.54 111.59 387.46 114.4 371.33 105.6C356.01 97.25 353.81 78.26 360.4 66.17C368.98 50.44 394.4 38.4 429.56 58.36C462.34 76.97 514.09 134.27 535.14 145.74C556.19 157.21 633.83 205.05 683.9 123.29C728.51 50.44 656.9 8.68002 642.43 0.77002L641.02 0H693.52C731.84 30.63 777.47 84.57 741.34 150.88Z" fill="#FEE955"/>
<path d="M560.47 0H576.18C574.246 2.09522 572.506 4.36114 570.98 6.77002C550.1 39.38 573.98 53.3401 574.98 53.9401C573.18 53.4701 536.93 42.99 560.47 0Z" fill="#FEE000"/>
<path d="M703.87 134.17C651.71 231.27 544.09 169.88 528.72 161.85C524.504 159.564 520.513 156.885 516.8 153.85C508.8 147.5 500.52 139.15 491.95 130.02C467.53 104.02 440.8 71.6098 411.76 61.1698C373.95 47.5698 369.65 75.0897 369.65 75.0897C369.65 75.0897 362.77 106.89 405.17 103.09C400.55 111.56 387.47 114.37 371.34 105.57C356.02 97.2198 353.82 78.2298 360.41 66.1398C368.99 50.4098 394.41 38.3697 429.57 58.3297C462.35 76.9397 514.1 134.24 535.15 145.71C556.2 157.18 633.84 205.02 683.91 123.26C728.52 50.4098 656.91 8.64975 642.44 0.739746L641.03 -0.0302734H675.03C701.61 21.0997 740.31 66.3298 703.87 134.17Z" fill="#FEE000"/>
<path d="M748.889 116.505C752.051 101.604 749.455 88.4306 743.091 87.0802C736.726 85.7297 729.004 96.7141 725.842 111.614C722.681 126.515 725.277 139.688 731.641 141.039C738.005 142.389 745.727 131.405 748.889 116.505Z" fill="white"/>
<path d="M718.38 156.95C722.649 156.95 726.11 153.489 726.11 149.22C726.11 144.951 722.649 141.49 718.38 141.49C714.111 141.49 710.65 144.951 710.65 149.22C710.65 153.489 714.111 156.95 718.38 156.95Z" fill="white"/>
<path d="M516.399 161.321C519.634 158.361 516.031 149.157 508.35 140.763C500.67 132.37 491.821 127.966 488.586 130.926C485.351 133.886 488.954 143.09 496.635 151.484C504.315 159.877 513.164 164.281 516.399 161.321Z" fill="white"/>
<path d="M809.82 412.95C809.4 412.31 808.96 411.67 808.5 411.04C808.25 410.68 807.99 410.33 807.72 409.98C807.45 409.63 807.11 409.16 806.79 408.76C806.34 408.18 805.88 407.6 805.4 407.03C804.92 406.46 804.51 406.03 804.06 405.46C803.61 404.89 803.33 404.63 802.95 404.22C802.57 403.81 802.1 403.28 801.66 402.82L800.33 401.44L799.84 400.95C799.11 400.22 798.37 399.49 797.62 398.78C796.87 398.07 796.17 397.42 795.43 396.78L795.34 396.7L794.18 395.7C793.787 395.354 793.397 395.02 793.01 394.7L792.01 393.81L791.75 393.59C791.12 393.06 790.48 392.59 789.85 392.03L789.54 391.78C788.767 391.16 787.997 390.55 787.23 389.95C787 389.76 786.76 389.58 786.52 389.4C785.09 388.3 783.66 387.23 782.24 386.21C781.3 385.53 780.36 384.87 779.43 384.21C776.95 382.49 774.54 380.9 772.28 379.46C771.427 378.914 770.597 378.394 769.79 377.9C767.11 376.24 764.69 374.83 762.67 373.69L761.67 373.13C760.79 372.64 760.01 372.22 759.34 371.86L758.71 371.52L758.58 371.45C761.58 367.91 768 359.02 767.85 347.21C767.672 340.412 765.525 333.812 761.67 328.21C761.06 327.28 760.4 326.35 759.67 325.43C759.35 325.01 759.03 324.6 758.67 324.19L758.57 324.07C758.27 323.7 757.96 323.32 757.64 322.95C757.32 322.58 756.97 322.18 756.64 321.8C756.31 321.42 756.12 321.22 755.84 320.93C755.56 320.64 755.28 320.33 754.99 320.04C754.7 319.75 754.4 319.44 754.1 319.15L753.19 318.27L752.25 317.39C735.79 302.31 720.58 302.27 710.72 304.88C704.793 306.487 699.261 309.299 694.47 313.14C689.149 306.905 683.049 301.38 676.32 296.7C660.51 285.7 643.79 281.95 627.99 285.7C609.74 290.06 597.57 302.85 592.8 322.7C590.814 331.259 590.14 340.069 590.8 348.83C582.108 346.599 573.099 345.865 564.16 346.66C548.58 347.93 525.49 354.38 504.01 377.84C503.1 378.84 502.22 379.84 501.37 380.84L500.94 381.35C500.24 382.19 499.56 383.04 498.94 383.88L498.17 384.88C497.64 385.57 497.17 386.27 496.63 386.97C496.32 387.39 496.02 387.82 495.72 388.26C495.42 388.7 495.13 389.12 494.84 389.56L494.09 390.7C493.74 391.25 493.4 391.8 493.09 392.35C492.78 392.9 492.42 393.46 492.09 394.02L492.01 394.15C491.72 394.66 491.42 395.15 491.14 395.7C490.567 396.727 490.027 397.767 489.52 398.82C489.3 399.25 489.09 399.69 488.89 400.12C488.69 400.55 488.52 400.9 488.35 401.29C487.9 402.29 487.49 403.29 487.09 404.29C482.959 414.459 481.31 425.467 482.28 436.4C483.394 448.29 487.333 459.742 493.77 469.8C494.66 471.19 495.57 472.51 496.48 473.73L497.34 474.87C497.43 474.99 497.52 475.11 497.62 475.22C497.72 475.33 498.01 475.72 498.21 475.96C498.41 476.2 498.7 476.56 498.95 476.85L499.61 477.62C500.37 478.48 501.11 479.28 501.84 480L502.54 480.68C502.95 481.07 503.35 481.44 503.74 481.77C503.87 481.89 503.99 482 504.12 482.1L504.67 482.55L505.2 482.97C506.38 483.87 507.86 485.14 509.57 486.62L511.11 487.94H803.19C803.44 487.63 803.68 487.31 803.92 486.94L804.63 485.94C805.09 485.28 805.55 484.61 806 483.94C806.22 483.6 806.44 483.26 806.65 482.94C806.86 482.62 807.08 482.25 807.29 481.94C807.61 481.42 807.92 480.89 808.22 480.35C808.37 480.11 808.5 479.86 808.64 479.61C808.78 479.36 808.9 479.15 809.02 478.91C809.054 478.852 809.084 478.792 809.11 478.73L809.68 477.63C809.85 477.28 810.03 476.94 810.2 476.58C810.37 476.22 810.65 475.67 810.85 475.21C811.14 474.58 811.43 473.94 811.71 473.29C811.71 473.23 811.76 473.18 811.78 473.12C812.1 472.35 812.41 471.57 812.71 470.79L812.94 470.17C813.14 469.65 813.32 469.17 813.5 468.61C813.68 468.05 813.82 467.68 813.97 467.21C814.12 466.74 814.23 466.41 814.35 466C814.53 465.41 814.71 464.81 814.87 464.21C815.03 463.61 815.2 463 815.35 462.39C815.5 461.78 815.59 461.45 815.69 460.97C815.9 460.08 816.09 459.19 816.26 458.28L816.38 457.63C816.513 456.964 816.633 456.274 816.74 455.56C816.79 455.26 816.83 454.97 816.87 454.68C817.06 453.39 817.22 452.08 817.34 450.77C818.67 436.18 815.88 422.1 809.82 412.95Z" fill="#F58873"/>
<path d="M707.35 447.66C693.88 472.42 713.35 486.94 713.35 486.94C713.35 486.94 713.63 487.26 714.17 487.79H696.7C688.7 474.35 682.1 453.79 699.08 434.66C723.4 407.28 745.08 432.25 745.74 432.99C745.05 432.76 720.63 423.25 707.35 447.66Z" fill="#F06044"/>
<path d="M817.3 450.61C817.18 451.92 817.02 453.23 816.83 454.52C816.83 454.81 816.75 455.1 816.7 455.4C816.587 456.1 816.467 456.79 816.34 457.47L816.22 458.12C816.05 459.03 815.86 459.92 815.65 460.81C815.55 461.29 815.43 461.81 815.31 462.23C815.19 462.65 815 463.44 814.83 464.05C814.66 464.66 814.49 465.25 814.31 465.84C814.19 466.25 814.06 466.65 813.93 467.05C813.8 467.45 813.62 467.99 813.46 468.45C813.3 468.91 813.1 469.45 812.9 470.01L812.67 470.63C812.37 471.41 812.06 472.19 811.74 472.96C811.74 473.02 811.69 473.07 811.67 473.13C811.39 473.78 811.1 474.42 810.81 475.05C810.61 475.51 810.39 475.97 810.16 476.42C809.93 476.87 809.81 477.12 809.64 477.47L809.07 478.57C809.044 478.632 809.014 478.692 808.98 478.75C808.86 478.99 808.73 479.22 808.6 479.45C808.47 479.68 808.33 479.95 808.18 480.19C807.88 480.73 807.57 481.26 807.25 481.78C807.04 482.13 806.83 482.48 806.61 482.78C806.39 483.08 806.18 483.46 805.96 483.78C805.51 484.46 805.05 485.13 804.59 485.78L803.88 486.78C803.64 487.11 803.4 487.43 803.15 487.78H768.85C774.17 482.606 778.841 476.803 782.76 470.5C786.558 464.681 789.501 458.346 791.5 451.69C804.77 406.37 759.91 372.36 758.69 371.44L759.32 371.78C759.99 372.14 760.77 372.56 761.65 373.05L762.65 373.61C764.65 374.75 767.09 376.16 769.77 377.82L772.26 379.38C774.52 380.82 776.93 382.38 779.41 384.13C780.34 384.78 781.28 385.44 782.22 386.13C783.64 387.13 785.07 388.22 786.5 389.32C786.74 389.5 786.98 389.68 787.21 389.87C787.983 390.47 788.753 391.08 789.52 391.7L789.83 391.95C790.46 392.46 791.1 392.95 791.73 393.51L791.99 393.73L792.99 394.62C793.383 394.954 793.773 395.287 794.16 395.62L795.32 396.62L795.41 396.7C796.15 397.37 796.88 398.05 797.6 398.7C798.32 399.35 799.09 400.14 799.82 400.87L800.31 401.36L801.64 402.74C802.08 403.2 802.51 403.67 802.93 404.14C803.35 404.61 803.68 404.96 804.04 405.38C804.4 405.8 804.94 406.38 805.38 406.95C805.82 407.52 806.32 408.1 806.77 408.68C807.09 409.08 807.4 409.49 807.7 409.9C808 410.31 808.23 410.6 808.48 410.96C808.94 411.59 809.38 412.23 809.8 412.87C815.88 422.1 818.67 436.18 817.3 450.61Z" fill="#F06044"/>
<path d="M493.73 469.65C498.33 473.76 509.16 482.65 521.81 487.79H511.07L509.53 486.47C507.82 484.99 506.34 483.72 505.16 482.82L504.63 482.4L504.08 481.95C503.95 481.85 503.83 481.74 503.7 481.62C503.31 481.29 502.91 480.92 502.5 480.53L501.8 479.85C501.07 479.13 500.33 478.33 499.57 477.47L498.91 476.7C498.66 476.41 498.41 476.11 498.17 475.81C497.93 475.51 497.77 475.32 497.58 475.07C497.39 474.82 497.39 474.84 497.3 474.72L496.44 473.58C495.53 472.36 494.62 471.04 493.73 469.65Z" fill="#F06044"/>
<path d="M585.13 487.76H555.01C555.7 487.37 556.38 486.95 557.06 486.49C599.58 457.86 568.96 420.7 568.96 420.7C577.591 424.296 584.973 430.351 590.19 438.11C605.16 456.76 592.15 478.5 585.13 487.76Z" fill="#F06044"/>
<path d="M752.22 317.28C735.75 302.2 720.54 302.16 710.69 304.77C704.762 306.374 699.23 309.186 694.44 313.03C689.119 306.795 683.019 301.27 676.29 296.59C660.47 285.59 643.76 281.84 627.96 285.59C609.7 289.95 597.53 302.74 592.77 322.59C590.78 331.148 590.106 339.959 590.77 348.72C582.081 346.487 573.075 345.753 564.14 346.55C548.55 347.82 525.46 354.27 503.98 377.73C496.767 385.432 491.008 394.376 486.98 404.13C486.98 404.13 552.55 330.43 599.69 365.45C599.69 365.45 614.26 261.13 701.56 331.17C701.56 331.17 724.5 299.76 761.56 328.09C758.904 324.115 755.767 320.485 752.22 317.28Z" fill="#F8AFA4"/>
<path d="M508.081 421.713C510.4 411.235 507.782 401.746 502.233 400.518C496.684 399.29 490.306 406.788 487.987 417.265C485.668 427.743 488.287 437.232 493.835 438.46C499.384 439.688 505.762 432.19 508.081 421.713Z" fill="white"/>
<path d="M762.62 487.76C762.14 481.52 765.54 472.76 772.08 464.92C778.17 457.6 785.49 452.83 791.5 451.67C794.81 451.04 797.72 451.5 799.8 453.23C805.66 458.12 802.8 471.23 793.33 482.61C791.81 484.441 790.163 486.162 788.4 487.76H762.62Z" fill="white"/>
<path d="M505.96 456.72C509.831 456.72 512.97 453.582 512.97 449.71C512.97 445.839 509.831 442.7 505.96 442.7C502.088 442.7 498.95 445.839 498.95 449.71C498.95 453.582 502.088 456.72 505.96 456.72Z" fill="white"/>
<path d="M675.094 312.994C676.023 306.014 667.207 299.082 655.404 297.511C643.601 295.94 633.279 300.326 632.351 307.306C631.422 314.286 640.237 321.218 652.04 322.788C663.844 324.359 674.165 319.974 675.094 312.994Z" fill="white"/>
<path d="M762.62 487.76H488.62C486.591 485.475 484.701 483.071 482.96 480.56L482.53 479.93C482.18 479.43 481.84 478.93 481.53 478.4L481.08 477.71L480.96 477.51C473.322 465.455 468.635 451.767 467.28 437.56C465.28 415.46 472.01 394 486.73 374.96L486.82 374.85C487.75 373.65 488.71 372.45 489.7 371.27L489.87 371.08C490.87 369.9 491.87 368.74 492.94 367.58C516.16 342.23 541.31 334.08 559.41 331.93C560.62 331.79 561.79 331.67 562.94 331.58C565.64 331.35 568.38 331.24 571.09 331.24C572.82 331.24 574.49 331.24 576.09 331.37C576.51 327.229 577.205 323.119 578.17 319.07C578.791 316.473 579.546 313.91 580.43 311.39C587.79 290.29 603.18 276.07 624.43 270.99C629.518 269.777 634.73 269.163 639.96 269.16C655.06 269.16 670.57 274.38 684.8 284.24C689.02 287.181 693.029 290.412 696.8 293.91C698.27 293.21 699.8 292.54 701.5 291.91C703.2 291.28 704.92 290.73 706.77 290.24C711.265 289.042 715.898 288.433 720.55 288.43C735.17 288.43 749.55 294.57 762.28 306.17C763.01 306.84 763.71 307.51 764.4 308.17L765.14 308.9L766.39 310.19C766.68 310.49 766.97 310.79 767.25 311.1C767.53 311.41 767.93 311.85 768.25 312.23C768.85 312.897 769.43 313.563 769.99 314.23C770.11 314.38 770.24 314.53 770.36 314.69C778.41 324.69 782.57 335.42 782.72 346.83C782.791 353.36 781.553 359.837 779.08 365.88L780.69 366.88C780.83 366.98 780.98 367.07 781.13 367.16L782.66 368.16L783.35 368.62C785 369.7 786.69 370.84 788.4 372.04L789.16 372.58L790.77 373.72L791.25 374.07C792.25 374.79 793.25 375.53 794.25 376.29L795.19 377L796.67 378.14L797.75 379C798.49 379.59 799.23 380.18 799.96 380.79C800.39 381.14 800.81 381.48 801.23 381.84L802.49 382.91L803.86 384.1L805.1 385.2C805.78 385.81 806.45 386.43 807.1 387.05L808.1 387.99C808.62 388.49 809.1 388.99 809.65 389.5L810.5 390.34C811.24 391.08 811.96 391.84 812.68 392.6L813.36 393.34C813.92 393.95 814.48 394.56 815.02 395.18L815.69 395.94C816.4 396.77 817.1 397.61 817.78 398.45L818.13 398.9C818.72 399.64 819.29 400.38 819.84 401.13L820.38 401.86C821.02 402.75 821.66 403.65 822.26 404.56C823.784 406.891 825.121 409.339 826.26 411.88C830.382 421.346 832.52 431.556 832.54 441.88C832.54 444.08 832.49 446.297 832.39 448.53C832.33 449.65 832.24 450.77 832.13 451.9C831.036 464.497 827.283 476.719 821.12 487.76H762.62Z" fill="#231F20"/>
<path d="M809.82 412.95C809.4 412.31 808.96 411.67 808.5 411.04C808.25 410.68 807.99 410.33 807.72 409.98C807.45 409.63 807.11 409.16 806.79 408.76C806.34 408.18 805.88 407.6 805.4 407.03C804.92 406.46 804.51 406.03 804.06 405.46C803.61 404.89 803.33 404.63 802.95 404.22C802.57 403.81 802.1 403.28 801.66 402.82L800.33 401.44L799.84 400.95C799.11 400.22 798.37 399.49 797.62 398.78C796.87 398.07 796.17 397.42 795.43 396.78L795.34 396.7L794.18 395.7C793.787 395.354 793.397 395.02 793.01 394.7L792.01 393.81L791.75 393.59C791.12 393.06 790.48 392.59 789.85 392.03L789.54 391.78C788.767 391.16 787.997 390.55 787.23 389.95C787 389.76 786.76 389.58 786.52 389.4C785.09 388.3 783.66 387.23 782.24 386.21C781.3 385.53 780.36 384.87 779.43 384.21C776.95 382.49 774.54 380.9 772.28 379.46C771.427 378.914 770.597 378.394 769.79 377.9C767.11 376.24 764.69 374.83 762.67 373.69L761.67 373.13C760.79 372.64 760.01 372.22 759.34 371.86L758.71 371.52L758.58 371.45C761.58 367.91 768 359.02 767.85 347.21C767.672 340.412 765.525 333.812 761.67 328.21C761.06 327.28 760.4 326.35 759.67 325.43C759.35 325.01 759.03 324.6 758.67 324.19L758.57 324.07C758.27 323.7 757.96 323.32 757.64 322.95C757.32 322.58 756.97 322.18 756.64 321.8C756.31 321.42 756.12 321.22 755.84 320.93C755.56 320.64 755.28 320.33 754.99 320.04C754.7 319.75 754.4 319.44 754.1 319.15L753.19 318.27L752.25 317.39C735.79 302.31 720.58 302.27 710.72 304.88C704.793 306.487 699.261 309.299 694.47 313.14C689.149 306.905 683.049 301.38 676.32 296.7C660.51 285.7 643.79 281.95 627.99 285.7C609.74 290.06 597.57 302.85 592.8 322.7C590.814 331.259 590.14 340.069 590.8 348.83C582.108 346.599 573.099 345.865 564.16 346.66C548.58 347.93 525.49 354.38 504.01 377.84C503.1 378.84 502.22 379.84 501.37 380.84L500.94 381.35C500.24 382.19 499.56 383.04 498.94 383.88L498.17 384.88C497.64 385.57 497.17 386.27 496.63 386.97C496.32 387.39 496.02 387.82 495.72 388.26C495.42 388.7 495.13 389.12 494.84 389.56L494.09 390.7C493.74 391.25 493.4 391.8 493.09 392.35C492.78 392.9 492.42 393.46 492.09 394.02L492.01 394.15C491.72 394.66 491.42 395.15 491.14 395.7C490.567 396.727 490.027 397.767 489.52 398.82C489.3 399.25 489.09 399.69 488.89 400.12C488.69 400.55 488.52 400.9 488.35 401.29C487.9 402.29 487.49 403.29 487.09 404.29C482.959 414.459 481.31 425.467 482.28 436.4C483.394 448.29 487.333 459.742 493.77 469.8C494.66 471.19 495.57 472.51 496.48 473.73L497.34 474.87C497.43 474.99 497.52 475.11 497.62 475.22C497.72 475.33 498.01 475.72 498.21 475.96C498.41 476.2 498.7 476.56 498.95 476.85L499.61 477.62C500.37 478.48 501.11 479.28 501.84 480L502.54 480.68C502.95 481.07 503.35 481.44 503.74 481.77C503.87 481.89 503.99 482 504.12 482.1L504.67 482.55L505.2 482.97C506.38 483.87 507.86 485.14 509.57 486.62L511.11 487.94H803.19C803.44 487.63 803.68 487.31 803.92 486.94L804.63 485.94C805.09 485.28 805.55 484.61 806 483.94C806.22 483.6 806.44 483.26 806.65 482.94C806.86 482.62 807.08 482.25 807.29 481.94C807.61 481.42 807.92 480.89 808.22 480.35C808.37 480.11 808.5 479.86 808.64 479.61C808.78 479.36 808.9 479.15 809.02 478.91C809.054 478.852 809.084 478.792 809.11 478.73L809.68 477.63C809.85 477.28 810.03 476.94 810.2 476.58C810.37 476.22 810.65 475.67 810.85 475.21C811.14 474.58 811.43 473.94 811.71 473.29C811.71 473.23 811.76 473.18 811.78 473.12C812.1 472.35 812.41 471.57 812.71 470.79L812.94 470.17C813.14 469.65 813.32 469.17 813.5 468.61C813.68 468.05 813.82 467.68 813.97 467.21C814.12 466.74 814.23 466.41 814.35 466C814.53 465.41 814.71 464.81 814.87 464.21C815.03 463.61 815.2 463 815.35 462.39C815.5 461.78 815.59 461.45 815.69 460.97C815.9 460.08 816.09 459.19 816.26 458.28L816.38 457.63C816.513 456.964 816.633 456.274 816.74 455.56C816.79 455.26 816.83 454.97 816.87 454.68C817.06 453.39 817.22 452.08 817.34 450.77C818.67 436.18 815.88 422.1 809.82 412.95Z" fill="#F58873"/>
<path d="M707.35 447.66C693.88 472.42 713.35 486.94 713.35 486.94C713.35 486.94 713.63 487.26 714.17 487.79H696.7C688.7 474.35 682.1 453.79 699.08 434.66C723.4 407.28 745.08 432.25 745.74 432.99C745.05 432.76 720.63 423.25 707.35 447.66Z" fill="#F06044"/>
<path d="M817.3 450.61C817.18 451.92 817.02 453.23 816.83 454.52C816.83 454.81 816.75 455.1 816.7 455.4C816.587 456.1 816.467 456.79 816.34 457.47L816.22 458.12C816.05 459.03 815.86 459.92 815.65 460.81C815.55 461.29 815.43 461.81 815.31 462.23C815.19 462.65 815 463.44 814.83 464.05C814.66 464.66 814.49 465.25 814.31 465.84C814.19 466.25 814.06 466.65 813.93 467.05C813.8 467.45 813.62 467.99 813.46 468.45C813.3 468.91 813.1 469.45 812.9 470.01L812.67 470.63C812.37 471.41 812.06 472.19 811.74 472.96C811.74 473.02 811.69 473.07 811.67 473.13C811.39 473.78 811.1 474.42 810.81 475.05C810.61 475.51 810.39 475.97 810.16 476.42C809.93 476.87 809.81 477.12 809.64 477.47L809.07 478.57C809.044 478.632 809.014 478.692 808.98 478.75C808.86 478.99 808.73 479.22 808.6 479.45C808.47 479.68 808.33 479.95 808.18 480.19C807.88 480.73 807.57 481.26 807.25 481.78C807.04 482.13 806.83 482.48 806.61 482.78C806.39 483.08 806.18 483.46 805.96 483.78C805.51 484.46 805.05 485.13 804.59 485.78L803.88 486.78C803.64 487.11 803.4 487.43 803.15 487.78H768.85C774.17 482.606 778.841 476.803 782.76 470.5C786.558 464.681 789.501 458.346 791.5 451.69C804.77 406.37 759.91 372.36 758.69 371.44L759.32 371.78C759.99 372.14 760.77 372.56 761.65 373.05L762.65 373.61C764.65 374.75 767.09 376.16 769.77 377.82L772.26 379.38C774.52 380.82 776.93 382.38 779.41 384.13C780.34 384.78 781.28 385.44 782.22 386.13C783.64 387.13 785.07 388.22 786.5 389.32C786.74 389.5 786.98 389.68 787.21 389.87C787.983 390.47 788.753 391.08 789.52 391.7L789.83 391.95C790.46 392.46 791.1 392.95 791.73 393.51L791.99 393.73L792.99 394.62C793.383 394.954 793.773 395.287 794.16 395.62L795.32 396.62L795.41 396.7C796.15 397.37 796.88 398.05 797.6 398.7C798.32 399.35 799.09 400.14 799.82 400.87L800.31 401.36L801.64 402.74C802.08 403.2 802.51 403.67 802.93 404.14C803.35 404.61 803.68 404.96 804.04 405.38C804.4 405.8 804.94 406.38 805.38 406.95C805.82 407.52 806.32 408.1 806.77 408.68C807.09 409.08 807.4 409.49 807.7 409.9C808 410.31 808.23 410.6 808.48 410.96C808.94 411.59 809.38 412.23 809.8 412.87C815.88 422.1 818.67 436.18 817.3 450.61Z" fill="#F06044"/>
<path d="M493.73 469.65C498.33 473.76 509.16 482.65 521.81 487.79H511.07L509.53 486.47C507.82 484.99 506.34 483.72 505.16 482.82L504.63 482.4L504.08 481.95C503.95 481.85 503.83 481.74 503.7 481.62C503.31 481.29 502.91 480.92 502.5 480.53L501.8 479.85C501.07 479.13 500.33 478.33 499.57 477.47L498.91 476.7C498.66 476.41 498.41 476.11 498.17 475.81C497.93 475.51 497.77 475.32 497.58 475.07C497.39 474.82 497.39 474.84 497.3 474.72L496.44 473.58C495.53 472.36 494.62 471.04 493.73 469.65Z" fill="#F06044"/>
<path d="M585.13 487.76H555.01C555.7 487.37 556.38 486.95 557.06 486.49C599.58 457.86 568.96 420.7 568.96 420.7C577.591 424.296 584.973 430.351 590.19 438.11C605.16 456.76 592.15 478.5 585.13 487.76Z" fill="#F06044"/>
<path d="M752.22 317.28C735.75 302.2 720.54 302.16 710.69 304.77C704.762 306.374 699.23 309.186 694.44 313.03C689.119 306.795 683.019 301.27 676.29 296.59C660.47 285.59 643.76 281.84 627.96 285.59C609.7 289.95 597.53 302.74 592.77 322.59C590.78 331.148 590.106 339.959 590.77 348.72C582.081 346.487 573.075 345.753 564.14 346.55C548.55 347.82 525.46 354.27 503.98 377.73C496.767 385.432 491.008 394.376 486.98 404.13C486.98 404.13 552.55 330.43 599.69 365.45C599.69 365.45 614.26 261.13 701.56 331.17C701.56 331.17 724.5 299.76 761.56 328.09C758.904 324.115 755.767 320.485 752.22 317.28Z" fill="#F8AFA4"/>
<path d="M508.081 421.713C510.4 411.235 507.782 401.746 502.233 400.518C496.684 399.29 490.306 406.788 487.987 417.265C485.668 427.743 488.287 437.232 493.835 438.46C499.384 439.688 505.762 432.19 508.081 421.713Z" fill="white"/>
<path d="M762.62 487.76C762.14 481.52 765.54 472.76 772.08 464.92C778.17 457.6 785.49 452.83 791.5 451.67C794.81 451.04 797.72 451.5 799.8 453.23C805.66 458.12 802.8 471.23 793.33 482.61C791.81 484.441 790.163 486.162 788.4 487.76H762.62Z" fill="white"/>
<path d="M505.96 456.72C509.831 456.72 512.97 453.582 512.97 449.71C512.97 445.839 509.831 442.7 505.96 442.7C502.088 442.7 498.95 445.839 498.95 449.71C498.95 453.582 502.088 456.72 505.96 456.72Z" fill="white"/>
<path d="M675.094 312.994C676.023 306.014 667.207 299.082 655.404 297.511C643.601 295.94 633.279 300.326 632.351 307.306C631.422 314.286 640.237 321.218 652.04 322.788C663.844 324.359 674.165 319.974 675.094 312.994Z" fill="white"/>
<path d="M1198.96 115.192C1205.1 109.057 1198.42 92.4331 1184.05 78.0618C1169.68 63.6905 1153.06 57.0137 1146.92 63.1488C1140.79 69.284 1147.46 85.9081 1161.83 100.279C1176.2 114.651 1192.83 121.327 1198.96 115.192Z" fill="white"/>
</g>
<defs>
<clipPath id="clip0_6704_352">
<rect width="1264.21" height="487.79" fill="white"/>
</clipPath>
</defs>
</svg>
