<svg width="620" height="839" viewBox="0 0 620 839" fill="none" xmlns="http://www.w3.org/2000/svg">
<g clip-path="url(#clip0_4887_1564)">
<path d="M309.59 838.58C480.572 838.58 619.18 809.519 619.18 773.67C619.18 737.821 480.572 708.76 309.59 708.76C138.608 708.76 0 737.821 0 773.67C0 809.519 138.608 838.58 309.59 838.58Z" fill="#A7A9AC"/>
<path d="M161.71 785.64C158.903 785.64 156.127 785.048 153.563 783.904C150.999 782.759 148.705 781.088 146.83 778.999C144.955 776.91 143.54 774.449 142.679 771.777C141.817 769.105 141.528 766.281 141.83 763.49C141.83 763.37 141.96 762.23 142.12 760.29C142.12 759.79 142.2 759.29 142.24 758.68C142.46 755.68 142.76 750.98 142.91 745.27C142.91 744.27 142.97 743.27 142.98 742.17V740.54C142.98 739.46 142.98 738.35 142.98 737.22C142.98 732.29 142.86 727.46 142.61 722.86C142.47 720.3 142.3 717.77 142.08 715.36C141.97 714.11 141.85 712.85 141.71 711.6C141.57 710.35 141.43 709.12 141.27 707.87C141.11 706.62 140.94 705.42 140.75 704.2C140.65 703.59 140.56 702.99 140.46 702.38C140.26 701.19 140.04 700 139.81 698.82C139.7 698.25 139.58 697.67 139.46 697.1C138.698 693.333 137.696 689.619 136.46 685.98C136.3 685.51 136.13 685.04 135.95 684.58C135.324 682.877 134.61 681.208 133.81 679.58C133.27 678.5 132.7 677.48 132.12 676.58C130.54 674.05 128.85 671.42 126.95 668.52C125.33 666.05 123.77 663.71 122.28 661.47L122.04 661.11C120.4 658.66 118.84 656.32 117.35 654.04C116.35 652.44 115.35 650.88 114.35 649.33C113.35 647.78 112.35 646.07 111.46 644.54C110.46 642.81 109.56 641.18 108.7 639.54C106.851 636.043 105.201 632.444 103.76 628.76C103.01 626.83 102.31 624.86 101.69 622.91C100.69 619.91 99.9001 616.72 99.2101 613.51C97.2788 603.872 96.3638 594.059 96.48 584.23V201.41C96.4264 193.859 96.9345 186.315 98.0001 178.84C98.9445 172.347 100.515 165.961 102.69 159.77C103.03 158.77 103.39 157.84 103.76 156.89C104.48 155.04 105.27 153.18 106.11 151.35C106.523 150.47 106.943 149.59 107.37 148.71C108.2 147.03 109.1 145.31 110.06 143.59C110.93 142.02 111.86 140.42 112.89 138.71C113.8 137.2 114.77 135.65 115.89 133.96C117.89 130.81 120.03 127.62 122.09 124.54L122.28 124.26C125.42 119.55 128.67 114.68 132.17 109.08C134.212 105.665 135.834 102.015 137 98.2101C138.372 93.9004 139.454 89.504 140.24 85.0501C140.46 83.8601 140.66 82.6501 140.85 81.4401C141.72 75.7501 142.35 69.4401 142.71 62.7801C142.96 58.1801 143.08 53.3501 143.08 48.4201C143.08 33.4701 141.89 22.2501 141.88 22.1301C141.581 19.3404 141.873 16.5191 142.736 13.8495C143.598 11.1799 145.013 8.72164 146.888 6.63452C148.763 4.54741 151.056 2.8781 153.618 1.73509C156.18 0.592084 158.954 0.000939231 161.76 6.193e-05H529.16C531.909 -0.00677985 534.631 0.553337 537.154 1.64543C539.677 2.73753 541.948 4.33814 543.825 6.34731C545.702 8.35648 547.144 10.7311 548.062 13.3227C548.98 15.9144 549.354 18.6675 549.16 21.4101C549.16 21.6601 549.16 21.9201 549.09 22.1701C549.09 22.1701 549 23.0701 549 23.1001L548.83 25.0501C548.83 25.0501 548.76 25.9101 548.75 25.9501C548.68 26.8801 548.6 27.9501 548.53 29.1301L548.44 30.4901C548.32 32.4901 548.21 34.5601 548.13 36.5901V36.6401C548.01 39.7101 547.93 42.7901 547.9 45.8101V45.9201C547.9 49.4301 547.9 52.9201 547.99 56.3001C547.99 56.3501 547.99 56.4001 547.99 56.4501C548.07 59.4501 548.21 62.4501 548.4 65.2901V65.4801C548.4 66.1501 548.49 66.8201 548.54 67.4801V67.6401C548.6 68.4501 548.66 69.1801 548.72 69.9001C550.65 92.1201 555.23 103.47 558.72 109.08C562.21 114.69 565.49 119.58 568.64 124.31C583.01 145.83 594.37 162.83 594.37 201.41V584.18C594.37 614.51 587.53 631.58 576.49 649.28C575.49 650.82 574.49 652.38 573.49 653.98C572.49 655.58 571.49 657.08 570.39 658.68L567.84 662.5C566.56 664.41 565.25 666.38 563.84 668.5C561.93 671.4 560.24 674.04 558.67 676.56C558.09 677.49 557.52 678.56 556.98 679.56C556.23 681.07 555.51 682.75 554.83 684.56C554.66 685.02 554.49 685.48 554.33 685.95C553.097 689.59 552.095 693.304 551.33 697.07C551.21 697.64 551.09 698.22 550.98 698.81C550.75 699.99 550.53 701.17 550.33 702.37C550.23 702.96 550.14 703.56 550.04 704.17C549.85 705.4 549.68 706.62 549.52 707.85C549.36 709.08 549.21 710.33 549.08 711.58C548.95 712.83 548.82 714.09 548.71 715.33V715.7C548.637 716.44 548.577 717.17 548.53 717.89V718.09C548.53 718.82 548.43 719.49 548.39 720.16V720.35C548.21 723.21 548.07 726.18 547.99 729.18V729.26C547.89 732.74 547.857 736.243 547.89 739.77C547.89 742.77 548 745.84 548.12 748.88V748.98C548.2 750.98 548.31 753.05 548.43 755.05C548.43 755.05 548.51 756.36 548.51 756.38C548.59 757.62 548.67 758.72 548.75 759.67L548.89 761.4L549.09 763.51C549.389 766.304 549.097 769.129 548.231 771.803C547.365 774.476 545.946 776.936 544.065 779.024C542.185 781.112 539.886 782.78 537.318 783.92C534.749 785.06 531.97 785.646 529.16 785.64H161.71Z" fill="#231F20"/>
<path d="M161.71 765.64C161.71 765.64 169.05 697.86 149.11 665.96C129.17 634.06 116.5 624.1 116.5 584.22V201.41C116.5 161.54 129.18 151.57 149.11 119.68C169.04 87.79 161.71 20 161.71 20H515.86C515.86 20 523.24 87.78 503.24 119.64C483.24 151.5 470.63 161.5 470.63 201.37V584.18C470.63 624.06 483.3 634.02 503.24 665.92C523.18 697.82 515.86 765.64 515.86 765.64H161.71Z" fill="#71A29E"/>
<path d="M183.7 665.92C163.76 634.02 151.09 624.06 151.09 584.18V201.41C151.09 161.54 163.76 151.57 183.7 119.68C203.64 87.79 196.3 20 196.3 20H161.71C161.71 20 169.05 87.78 149.11 119.68C129.17 151.58 116.5 161.54 116.5 201.41V584.18C116.5 624.06 129.18 634.02 149.11 665.92C169.04 697.82 161.71 765.64 161.71 765.64H196.3C196.3 765.64 203.63 697.82 183.7 665.92Z" fill="#587B75"/>
<path d="M529.16 765.64C529.16 765.64 521.82 697.86 541.76 665.96C561.7 634.06 574.37 624.1 574.37 584.22V201.41C574.37 161.54 561.69 151.57 541.76 119.68C521.83 87.79 529.16 20 529.16 20H175.01C175.01 20 167.67 87.78 187.61 119.68C207.55 151.58 220.24 161.54 220.24 201.41V584.18C220.24 624.06 207.56 634.02 187.63 665.92C167.7 697.82 175.01 765.64 175.01 765.64H529.16Z" fill="#C5E6DC"/>
<path d="M574.37 323.02H220.24V462.58H574.37V323.02Z" fill="#48BEA2"/>
<path d="M401.25 541.319C483.275 541.319 549.77 474.825 549.77 392.799C549.77 310.774 483.275 244.279 401.25 244.279C319.225 244.279 252.73 310.774 252.73 392.799C252.73 474.825 319.225 541.319 401.25 541.319Z" fill="#FAF28C"/>
<path d="M529.16 20H175.01C173.403 37.1673 173.276 54.441 174.63 71.63H528.78C527.426 54.441 527.553 37.1673 529.16 20Z" fill="#98CFC0"/>
<path d="M174.63 713.971C173.276 731.16 173.403 748.433 175.01 765.601H529.16C527.553 748.433 527.426 731.16 528.78 713.971H174.63Z" fill="#98CFC0"/>
<g style="mix-blend-mode:multiply">
<path d="M219.56 598.54C216.73 627.07 204.91 638.24 187.61 665.92C167.67 697.82 175.01 765.6 175.01 765.6H529.16C529.16 765.6 521.82 697.82 541.76 665.92C561.7 634.02 574.37 624.06 574.37 584.18V201.41C574.37 201.41 550.56 598.54 219.56 598.54Z" fill="#CEEAE2"/>
</g>
<path d="M523.96 593.2C543.185 593.2 558.77 577.615 558.77 558.39C558.77 539.165 543.185 523.58 523.96 523.58C504.735 523.58 489.15 539.165 489.15 558.39C489.15 577.615 504.735 593.2 523.96 593.2Z" fill="#E9F3F9"/>
<g style="mix-blend-mode:multiply">
<path d="M574.37 584.181V499.081L572.43 496.961C572.43 496.961 560.78 675.911 187.61 665.961C167.67 697.861 175.01 765.641 175.01 765.641H529.16C529.16 765.641 521.82 697.861 541.76 665.961C561.7 634.061 574.37 624.061 574.37 584.181Z" fill="#CEEAE2"/>
</g>
<path d="M302.97 187.341L303.39 187.061C304.394 186.353 305.541 185.875 306.75 185.661C308.19 185.661 309.75 186.971 311.44 189.581C312.295 190.756 312.826 192.135 312.98 193.581C312.982 194.024 312.895 194.464 312.723 194.873C312.551 195.282 312.299 195.652 311.98 195.961C311.135 196.784 310.183 197.49 309.15 198.061C308.73 198.341 308.15 198.721 307.36 199.181C305.853 199.947 304.272 200.557 302.64 201.001C300.332 201.738 297.923 202.116 295.5 202.121C293.312 202.103 291.135 201.811 289.02 201.251C286.565 200.589 284.211 199.6 282.02 198.311C279.639 196.957 277.461 195.274 275.55 193.311C273.494 191.097 271.888 188.506 270.82 185.681C269.561 182.432 268.933 178.974 268.97 175.491C268.937 172.116 269.573 168.768 270.84 165.641C271.901 162.914 273.48 160.418 275.49 158.291C277.393 156.343 279.577 154.691 281.97 153.391C284.204 152.135 286.591 151.17 289.07 150.521C291.255 149.953 293.502 149.658 295.76 149.641C298.024 149.645 300.274 149.982 302.44 150.641C304.232 151.123 305.96 151.814 307.59 152.701L309.27 153.701C309.933 154.098 310.574 154.532 311.19 155.001C311.686 155.404 312.112 155.888 312.45 156.431C312.849 157.021 313.058 157.718 313.05 158.431C312.971 159.814 312.456 161.137 311.58 162.211C309.76 164.731 308.12 165.991 306.68 165.991C305.374 165.807 304.14 165.275 303.11 164.451C300.851 162.773 298.08 161.931 295.27 162.071C293.742 162.085 292.227 162.359 290.79 162.881C289.203 163.446 287.705 164.234 286.34 165.221C284.829 166.36 283.618 167.85 282.81 169.561C281.886 171.545 281.407 173.707 281.407 175.896C281.407 178.084 281.886 180.247 282.81 182.231C283.625 183.96 284.85 185.464 286.38 186.611C287.743 187.619 289.254 188.408 290.86 188.951C292.273 189.416 293.752 189.649 295.24 189.641C296.623 189.652 298.001 189.464 299.33 189.081C300.303 188.844 301.236 188.467 302.1 187.961L302.97 187.341Z" fill="#115E49"/>
<path d="M346.24 164.52C347.421 164.487 348.6 164.629 349.74 164.94C350.133 165.044 350.501 165.228 350.819 165.481C351.137 165.734 351.4 166.051 351.59 166.41C351.901 166.992 352.113 167.62 352.22 168.27C352.305 169.071 352.342 169.876 352.33 170.68V195.18C352.35 196.001 352.32 196.823 352.24 197.64C352.136 198.279 351.922 198.894 351.61 199.46C351.413 199.81 351.148 200.117 350.83 200.363C350.512 200.609 350.148 200.788 349.76 200.89C348.597 201.205 347.394 201.346 346.19 201.31C344.646 201.443 343.098 201.116 341.74 200.37C341.305 200.044 340.946 199.627 340.688 199.149C340.429 198.671 340.276 198.143 340.24 197.6C338.507 200.08 335.707 201.317 331.84 201.31C327.64 201.31 323.813 199.467 320.36 195.78C316.978 192.305 315.115 187.629 315.18 182.78C315.171 180.425 315.627 178.091 316.521 175.912C317.415 173.732 318.729 171.751 320.39 170.08C323.87 166.42 327.687 164.587 331.84 164.58C333.329 164.562 334.805 164.848 336.18 165.42C337.169 165.797 338.091 166.33 338.91 167C339.372 167.438 339.794 167.916 340.17 168.43C340.2 167.863 340.349 167.307 340.608 166.801C340.866 166.295 341.228 165.848 341.67 165.49C342.51 164.85 344.03 164.52 346.24 164.52ZM333.71 189.02C334.51 189.033 335.304 188.871 336.034 188.544C336.765 188.218 337.416 187.735 337.94 187.13C339.034 186.005 339.65 184.5 339.66 182.93C339.636 181.377 339.05 179.885 338.01 178.73C337.473 178.079 336.793 177.56 336.023 177.213C335.253 176.866 334.414 176.701 333.57 176.73C332.726 176.711 331.889 176.881 331.119 177.227C330.349 177.573 329.666 178.087 329.12 178.73C328.038 179.891 327.428 181.414 327.41 183C327.416 183.782 327.581 184.555 327.894 185.271C328.207 185.988 328.661 186.634 329.23 187.17C329.806 187.772 330.501 188.247 331.27 188.566C332.04 188.884 332.867 189.039 333.7 189.02H333.71Z" fill="#115E49"/>
<path d="M398.73 164.45C400.516 164.426 402.284 164.8 403.907 165.545C405.53 166.291 406.966 167.389 408.11 168.76C410.63 171.634 411.89 176.38 411.89 183V195.25C411.902 196.059 411.865 196.867 411.78 197.67C411.673 198.317 411.46 198.942 411.15 199.52C410.96 199.88 410.698 200.196 410.379 200.449C410.061 200.702 409.693 200.887 409.3 200.99C408.137 201.305 406.934 201.446 405.73 201.41C404.547 201.447 403.365 201.295 402.23 200.96C401.834 200.847 401.465 200.655 401.146 200.396C400.826 200.136 400.562 199.815 400.37 199.45C400.06 198.872 399.848 198.247 399.74 197.6C399.659 196.796 399.626 195.988 399.64 195.18V182.93C399.64 178.87 398.193 176.84 395.3 176.84C394.649 176.765 393.991 176.876 393.401 177.161C392.811 177.447 392.315 177.894 391.97 178.45C391.318 179.875 391.02 181.436 391.1 183V195.25C391.114 196.069 391.077 196.887 390.99 197.7C390.877 198.341 390.653 198.956 390.33 199.52C390.128 199.878 389.857 200.192 389.532 200.445C389.208 200.697 388.837 200.882 388.44 200.99C387.277 201.305 386.074 201.446 384.87 201.41C383.687 201.447 382.505 201.295 381.37 200.96C380.974 200.847 380.605 200.655 380.286 200.396C379.966 200.136 379.702 199.815 379.51 199.45C379.2 198.872 378.988 198.247 378.88 197.6C378.799 196.796 378.766 195.988 378.78 195.18V182.93C378.78 178.87 377.333 176.84 374.44 176.84C371.547 176.84 370.147 178.87 370.24 182.93V195.32C370.252 196.129 370.215 196.937 370.13 197.74C370.023 198.382 369.799 198.999 369.47 199.56C369.052 200.266 368.373 200.78 367.58 200.99C366.417 201.305 365.214 201.446 364.01 201.41C362.829 201.445 361.649 201.304 360.51 200.99C360.115 200.888 359.746 200.704 359.425 200.451C359.105 200.198 358.841 199.881 358.65 199.52C358.343 198.952 358.131 198.337 358.02 197.7C357.938 196.886 357.904 196.068 357.92 195.25V170.64C357.906 169.836 357.94 169.031 358.02 168.23C358.127 167.587 358.354 166.969 358.69 166.41C358.894 166.057 359.166 165.748 359.491 165.501C359.815 165.254 360.185 165.073 360.58 164.97C361.743 164.654 362.946 164.513 364.15 164.55C366.43 164.55 367.97 164.97 368.77 165.81C369.622 166.825 370.048 168.129 369.96 169.45L370.31 168.93C370.619 168.514 370.953 168.116 371.31 167.74C371.799 167.179 372.338 166.664 372.92 166.2C373.591 165.697 374.332 165.296 375.12 165.01C376.003 164.664 376.942 164.484 377.89 164.48C380.058 164.387 382.207 164.91 384.09 165.988C385.973 167.065 387.512 168.654 388.53 170.57C389.102 169.8 389.72 169.066 390.38 168.37C391.414 167.373 392.582 166.525 393.85 165.85C395.324 164.96 397.008 164.476 398.73 164.45Z" fill="#115E49"/>
<path d="M453.05 178.24C453.05 181.32 452.337 183.55 450.91 184.93C450.3 185.571 449.569 186.083 448.758 186.437C447.948 186.791 447.074 186.979 446.19 186.99H429.6C429.6 188.3 430.37 189.4 431.91 190.28C433.426 191.166 435.154 191.626 436.91 191.61C438.106 191.617 439.3 191.523 440.48 191.33C441.312 191.216 442.131 191.029 442.93 190.77L443.7 190.49C444.57 190.043 445.524 189.781 446.5 189.72C447.993 189.72 449.277 190.77 450.35 192.87C450.881 193.866 451.192 194.964 451.26 196.09C451.26 200.25 446.29 202.327 436.35 202.32C433.189 202.38 430.051 201.773 427.14 200.54C424.692 199.529 422.539 197.915 420.88 195.85C419.436 194.007 418.31 191.935 417.55 189.72C416.834 187.6 416.469 185.378 416.47 183.14C416.47 177.26 418.37 172.56 422.17 169.04C424.948 166.637 428.291 164.977 431.885 164.218C435.479 163.459 439.207 163.625 442.72 164.7C444.438 165.231 446.049 166.061 447.48 167.15C448.716 168.128 449.79 169.296 450.66 170.61C451.47 171.807 452.097 173.118 452.52 174.5C452.871 175.716 453.05 176.975 453.05 178.24ZM438.24 180.64C440.01 180.64 440.9 179.9 440.9 178.4C440.914 177.902 440.809 177.408 440.596 176.958C440.382 176.508 440.065 176.114 439.67 175.81C438.641 175.086 437.396 174.733 436.14 174.81C434.473 174.876 432.884 175.536 431.66 176.67C431.005 177.12 430.462 177.715 430.073 178.409C429.685 179.103 429.461 179.876 429.42 180.67L438.24 180.64Z" fill="#115E49"/>
<path d="M457.6 153.32C457.586 152.516 457.62 151.711 457.7 150.91C457.806 150.26 458.019 149.631 458.33 149.05C458.521 148.689 458.785 148.373 459.105 148.119C459.425 147.866 459.795 147.683 460.19 147.58C461.353 147.264 462.556 147.123 463.76 147.16C464.938 147.129 466.114 147.291 467.24 147.64C468.024 147.876 468.69 148.401 469.1 149.11C469.433 149.681 469.657 150.308 469.76 150.96C469.844 151.774 469.881 152.592 469.87 153.41V185.82C469.772 186.902 469.916 187.991 470.29 189.01C470.57 189.45 471.34 189.67 472.6 189.67C473.092 189.659 473.585 189.696 474.07 189.78C474.507 189.906 474.92 190.106 475.29 190.37C475.841 190.793 476.216 191.406 476.34 192.09C476.578 193.157 476.685 194.248 476.66 195.34C476.685 196.515 476.578 197.689 476.34 198.84C476.203 199.554 475.812 200.193 475.24 200.64C474.867 200.933 474.438 201.148 473.98 201.27C473.484 201.349 472.982 201.383 472.48 201.37C470.493 201.397 468.506 201.303 466.53 201.09C465.096 200.926 463.693 200.563 462.36 200.01C461.148 199.531 460.136 198.652 459.49 197.52C458.784 196.184 458.301 194.742 458.06 193.25C457.694 191.053 457.53 188.827 457.57 186.6L457.6 153.32Z" fill="#115E49"/>
<path d="M486.58 159.549C485.399 159.584 484.219 159.442 483.08 159.129C482.687 159.022 482.32 158.834 482.003 158.578C481.687 158.321 481.427 158.002 481.24 157.639C480.93 157.061 480.717 156.436 480.61 155.789C480.477 154.182 480.477 152.567 480.61 150.959C480.714 150.321 480.927 149.705 481.24 149.139C481.437 148.786 481.703 148.477 482.023 148.229C482.343 147.982 482.709 147.802 483.1 147.699C484.263 147.383 485.466 147.242 486.67 147.279C487.851 147.246 489.03 147.388 490.17 147.699C490.563 147.803 490.931 147.987 491.249 148.24C491.568 148.493 491.83 148.81 492.02 149.169C492.331 149.751 492.544 150.379 492.65 151.029C492.797 152.636 492.797 154.253 492.65 155.859C492.546 156.498 492.333 157.113 492.02 157.679C491.823 158.029 491.558 158.336 491.24 158.582C490.922 158.828 490.558 159.007 490.17 159.109C489.002 159.433 487.792 159.581 486.58 159.549ZM480.49 170.639C480.476 169.835 480.509 169.03 480.59 168.229C480.694 167.591 480.907 166.975 481.22 166.409C481.417 166.056 481.683 165.747 482.003 165.499C482.323 165.252 482.689 165.072 483.08 164.969C484.243 164.653 485.446 164.512 486.65 164.549C487.661 164.527 488.671 164.645 489.65 164.899C490.304 165.062 490.922 165.347 491.47 165.739C491.903 166.124 492.219 166.623 492.38 167.179C492.568 167.698 492.686 168.239 492.73 168.789C492.73 169.229 492.73 169.899 492.73 170.789V195.289C492.742 196.097 492.705 196.906 492.62 197.709C492.516 198.348 492.303 198.963 491.99 199.529C491.793 199.879 491.528 200.186 491.21 200.432C490.892 200.678 490.528 200.857 490.14 200.959C488.977 201.274 487.774 201.415 486.57 201.379C485.389 201.414 484.209 201.272 483.07 200.959C482.675 200.857 482.305 200.673 481.985 200.42C481.665 200.167 481.401 199.85 481.21 199.489C480.903 198.921 480.691 198.306 480.58 197.669C480.498 196.855 480.464 196.037 480.48 195.219L480.49 170.639Z" fill="#115E49"/>
<path d="M528.37 164.52C529.551 164.487 530.73 164.629 531.87 164.94C532.263 165.044 532.631 165.228 532.949 165.481C533.268 165.734 533.53 166.051 533.72 166.41C534.031 166.992 534.244 167.62 534.35 168.27C534.435 169.071 534.472 169.876 534.46 170.68V195.18C534.472 195.988 534.435 196.797 534.35 197.6C534.246 198.239 534.033 198.854 533.72 199.42C533.523 199.77 533.258 200.077 532.94 200.323C532.622 200.569 532.258 200.748 531.87 200.85C530.707 201.165 529.504 201.306 528.3 201.27C526.2 201.27 524.71 200.96 523.85 200.33C523.415 200.004 523.057 199.587 522.798 199.109C522.539 198.631 522.386 198.103 522.35 197.56C520.617 200.04 517.817 201.277 513.95 201.27C509.75 201.27 505.923 199.427 502.47 195.74C499.088 192.265 497.225 187.589 497.29 182.74C497.281 180.385 497.737 178.051 498.631 175.872C499.525 173.692 500.84 171.711 502.5 170.04C505.98 166.38 509.797 164.547 513.95 164.54C515.439 164.522 516.916 164.808 518.29 165.38C519.279 165.757 520.201 166.29 521.02 166.96C521.471 167.415 521.879 167.911 522.24 168.44C522.27 167.873 522.419 167.317 522.678 166.811C522.936 166.305 523.298 165.858 523.74 165.5C524.64 164.85 526.17 164.52 528.37 164.52ZM515.84 189.02C516.64 189.033 517.434 188.871 518.165 188.544C518.895 188.218 519.546 187.735 520.07 187.13C521.16 186.002 521.775 184.499 521.79 182.93C521.766 181.377 521.18 179.885 520.14 178.73C519.602 178.08 518.922 177.562 518.152 177.215C517.382 176.869 516.544 176.703 515.7 176.73C514.856 176.711 514.018 176.88 513.248 177.226C512.478 177.572 511.796 178.086 511.25 178.73C510.168 179.891 509.558 181.414 509.54 183C509.547 183.782 509.711 184.555 510.024 185.271C510.337 185.988 510.791 186.634 511.36 187.17C511.937 187.773 512.633 188.249 513.405 188.568C514.176 188.886 515.006 189.04 515.84 189.02Z" fill="#115E49"/>
<path d="M290.12 304.62C307.186 304.62 321.02 290.786 321.02 273.72C321.02 256.655 307.186 242.82 290.12 242.82C273.054 242.82 259.22 256.655 259.22 273.72C259.22 290.786 273.054 304.62 290.12 304.62Z" fill="#E9F3F9"/>
<path d="M269.17 237.89C278.487 237.89 286.04 230.337 286.04 221.02C286.04 211.703 278.487 204.15 269.17 204.15C259.853 204.15 252.3 211.703 252.3 221.02C252.3 230.337 259.853 237.89 269.17 237.89Z" fill="#E9F3F9"/>
<path d="M305.34 666.69C299.542 666.692 293.868 665.018 289 661.87C288.484 661.563 288.06 661.122 287.773 660.594C287.486 660.066 287.347 659.471 287.37 658.87C287.37 657.21 288.45 654.87 290.63 651.82C290.946 651.34 291.384 650.952 291.898 650.696C292.413 650.439 292.986 650.324 293.56 650.36C295.437 650.484 297.247 651.109 298.8 652.17C301.613 653.77 303.993 654.57 305.94 654.57C309.44 654.57 311.19 653.89 311.19 652.51C311.19 651.94 310.64 651.45 309.55 651.05C308.214 650.59 306.833 650.272 305.43 650.1C303.59 649.827 301.785 649.351 300.05 648.68C298.176 647.99 296.377 647.112 294.68 646.06C292.87 644.865 291.438 643.179 290.55 641.2C289.407 638.738 288.849 636.044 288.92 633.33C288.92 624.27 295.14 619.74 307.58 619.74C311.923 619.796 316.203 620.785 320.13 622.64C322.13 623.56 323.13 624.82 323.13 626.42C322.94 628.099 322.32 629.701 321.33 631.07C319.997 633.13 318.663 634.16 317.33 634.16C316.31 634.067 315.318 633.775 314.41 633.3C312.23 632.224 309.841 631.637 307.41 631.58C304.03 631.58 302.34 632.21 302.34 633.47C302.369 633.961 302.543 634.433 302.84 634.824C303.138 635.216 303.545 635.511 304.01 635.67C305.347 636.268 306.772 636.643 308.23 636.78C312.05 637.292 315.766 638.402 319.24 640.07C321.044 641.01 322.514 642.484 323.45 644.29C324.632 646.523 325.211 649.025 325.13 651.55C325.22 654.246 324.643 656.922 323.45 659.34C322.415 661.357 320.756 662.985 318.72 663.98C316.761 664.958 314.679 665.668 312.53 666.09C310.157 666.515 307.75 666.716 305.34 666.69Z" fill="#115E49"/>
<path d="M374.4 637.449C374.4 641.229 373.52 643.969 371.78 645.659C371.028 646.447 370.128 647.077 369.13 647.513C368.133 647.949 367.058 648.182 365.97 648.199H345.59C345.59 649.809 346.53 651.199 348.43 652.199C350.28 653.281 352.387 653.847 354.53 653.839C356 653.844 357.469 653.727 358.92 653.489C359.937 653.342 360.941 653.112 361.92 652.799L362.86 652.459C363.925 651.892 365.097 651.552 366.3 651.459C368.14 651.459 369.717 652.749 371.03 655.329C371.695 656.563 372.078 657.929 372.15 659.329C372.15 664.429 366.047 666.979 353.84 666.979C349.958 667.052 346.104 666.306 342.53 664.789C339.519 663.549 336.87 661.568 334.83 659.029C333.055 656.766 331.672 654.221 330.74 651.499C329.857 648.897 329.407 646.167 329.41 643.419C329.41 636.199 331.743 630.423 336.41 626.089C341.077 621.756 346.91 619.593 353.91 619.599C356.535 619.568 359.149 619.96 361.65 620.759C363.762 621.406 365.742 622.422 367.5 623.759C369.023 624.961 370.343 626.4 371.41 628.019C372.406 629.485 373.175 631.093 373.69 632.789C374.15 634.3 374.389 635.87 374.4 637.449ZM356.24 640.369C358.42 640.369 359.51 639.459 359.51 637.619C359.529 637.009 359.403 636.402 359.142 635.849C358.881 635.297 358.493 634.813 358.01 634.439C356.736 633.561 355.204 633.138 353.66 633.239C351.616 633.324 349.668 634.128 348.16 635.509C346.32 637.029 345.41 638.649 345.41 640.369H356.24Z" fill="#115E49"/>
<path d="M423.68 637.45C423.68 641.23 422.803 643.967 421.05 645.66C420.3 646.448 419.402 647.078 418.406 647.514C417.41 647.951 416.337 648.184 415.25 648.2H394.87C394.87 649.81 395.81 651.2 397.7 652.2C399.555 653.281 401.664 653.847 403.81 653.84C405.28 653.845 406.749 653.728 408.2 653.49C409.217 653.342 410.22 653.111 411.2 652.8L412.14 652.46C413.205 651.892 414.376 651.552 415.58 651.46C417.42 651.46 418.99 652.75 420.31 655.33C420.975 656.564 421.358 657.931 421.43 659.33C421.43 664.43 415.323 666.98 403.11 666.98C399.228 667.051 395.375 666.305 391.8 664.79C388.793 663.548 386.148 661.566 384.11 659.03C382.335 656.767 380.952 654.222 380.02 651.5C379.137 648.898 378.687 646.168 378.69 643.42C378.69 636.2 381.023 630.424 385.69 626.09C390.357 621.757 396.207 619.607 403.24 619.64C405.865 619.609 408.479 620.001 410.98 620.8C413.092 621.447 415.072 622.463 416.83 623.8C418.35 625.005 419.67 626.443 420.74 628.06C421.736 629.526 422.505 631.134 423.02 632.83C423.459 634.331 423.681 635.887 423.68 637.45ZM405.53 640.37C407.71 640.37 408.8 639.46 408.8 637.62C408.819 637.008 408.692 636.401 408.43 635.848C408.167 635.295 407.776 634.812 407.29 634.44C406.021 633.561 404.491 633.138 402.95 633.24C400.906 633.323 398.957 634.127 397.45 635.51C395.61 637.03 394.69 638.65 394.69 640.37H405.53Z" fill="#115E49"/>
<path d="M466.33 599.44C467.781 599.398 469.229 599.57 470.63 599.95C471.114 600.078 471.567 600.305 471.959 600.616C472.352 600.928 472.675 601.317 472.91 601.76C473.291 602.473 473.554 603.243 473.69 604.04C473.786 605.037 473.826 606.039 473.81 607.04V658.38C473.827 659.381 473.787 660.383 473.69 661.38C473.556 662.171 473.278 662.93 472.87 663.62C472.359 664.489 471.525 665.122 470.55 665.38C469.121 665.771 467.641 665.947 466.16 665.9C461.8 665.9 459.393 664.497 458.94 661.69C456.527 664.443 453.17 665.817 448.87 665.81C443.71 665.81 439.01 663.56 434.77 659.06C432.71 656.942 431.088 654.439 429.997 651.693C428.905 648.948 428.366 646.014 428.41 643.06C428.395 637.227 430.697 631.626 434.81 627.49C439.097 622.923 443.783 620.64 448.87 620.64C453.123 620.64 456.42 622.073 458.76 624.94V606.92C458.746 605.918 458.79 604.917 458.89 603.92C459.022 603.138 459.285 602.384 459.67 601.69C459.911 601.257 460.237 600.876 460.629 600.572C461.021 600.268 461.47 600.046 461.95 599.92C463.379 599.547 464.854 599.385 466.33 599.44ZM445.69 648.44C446.38 649.185 447.219 649.777 448.153 650.177C449.087 650.576 450.094 650.775 451.11 650.76C452.108 650.783 453.098 650.587 454.012 650.186C454.926 649.785 455.741 649.189 456.4 648.44C457.737 647.053 458.493 645.207 458.51 643.28C458.486 641.375 457.776 639.543 456.51 638.12C455.846 637.327 455.007 636.697 454.061 636.279C453.114 635.861 452.084 635.666 451.05 635.71C450.014 635.671 448.982 635.862 448.03 636.27C447.077 636.679 446.226 637.293 445.54 638.07C444.227 639.489 443.492 641.347 443.48 643.28C443.486 644.247 443.684 645.203 444.064 646.092C444.443 646.982 444.996 647.787 445.69 648.46V648.44Z" fill="#115E49"/>
<path d="M497.38 666.69C491.583 666.692 485.908 665.018 481.04 661.87C480.522 661.564 480.097 661.123 479.809 660.595C479.52 660.067 479.379 659.471 479.4 658.87C479.4 657.21 480.49 654.86 482.67 651.82C482.986 651.339 483.423 650.951 483.938 650.694C484.453 650.438 485.026 650.323 485.6 650.36C487.477 650.486 489.286 651.111 490.84 652.17C493.647 653.77 496.027 654.57 497.98 654.57C501.48 654.57 503.23 653.89 503.23 652.51C503.23 651.94 502.68 651.45 501.59 651.05C500.251 650.589 498.866 650.271 497.46 650.1C495.623 649.826 493.822 649.35 492.09 648.68C490.214 647.988 488.412 647.11 486.71 646.06C484.903 644.864 483.474 643.179 482.59 641.2C481.444 638.739 480.882 636.045 480.95 633.33C480.95 624.27 487.17 619.74 499.61 619.74C503.956 619.796 508.24 620.785 512.17 622.64C514.17 623.56 515.17 624.82 515.17 626.42C514.98 628.101 514.356 629.703 513.36 631.07C512.04 633.13 510.73 634.16 509.36 634.16C508.337 634.067 507.341 633.775 506.43 633.3C504.251 632.222 501.861 631.635 499.43 631.58C496.037 631.58 494.343 632.21 494.35 633.47C494.38 633.962 494.555 634.435 494.855 634.826C495.154 635.218 495.563 635.512 496.03 635.67C497.363 636.269 498.785 636.644 500.24 636.78C502.092 637.019 503.922 637.41 505.71 637.95C507.586 638.496 509.412 639.198 511.17 640.05C512.97 640.996 514.438 642.468 515.38 644.27C516.562 646.503 517.141 649.005 517.06 651.53C517.15 654.226 516.573 656.901 515.38 659.32C514.34 661.333 512.682 662.959 510.65 663.96C508.69 664.937 506.608 665.647 504.46 666.07C502.124 666.494 499.754 666.702 497.38 666.69Z" fill="#115E49"/>
<g style="mix-blend-mode:multiply">
<path d="M390.24 584.04C434.92 584.04 471.14 575.261 471.14 564.43C471.14 553.6 434.92 544.82 390.24 544.82C345.56 544.82 309.34 553.6 309.34 564.43C309.34 575.261 345.56 584.04 390.24 584.04Z" fill="#A7A9AC"/>
</g>
<path d="M382.62 565.64C381.751 565.633 380.894 565.438 380.109 565.068C379.323 564.697 378.627 564.161 378.069 563.495C377.51 562.829 377.103 562.051 376.876 561.212C376.648 560.374 376.605 559.496 376.75 558.64C382.322 526.095 385.404 493.173 385.97 460.16L383.97 460.32H383.31C382.45 460.38 381.59 460.44 380.74 460.48H380.68L378.24 460.64H377.61C376.78 460.64 375.96 460.64 375.15 460.64H372.73H372.14L369.79 460.57H369.73C368.97 460.57 368.22 460.49 367.48 460.43H366.92L364.67 460.24H364.6C363.88 460.166 363.17 460.086 362.47 460L361.94 459.94C361.12 459.83 360.44 459.74 359.8 459.64H359.72L357.72 459.3L357.23 459.21C356.47 459.07 355.8 458.94 355.23 458.81H355.17C354.52 458.67 353.88 458.53 353.24 458.37L352.78 458.26C352.05 458.08 351.41 457.92 350.84 457.76H350.77C350.13 457.59 349.54 457.41 348.95 457.23L348.52 457.1C347.89 456.9 347.28 456.71 346.68 456.5H346.6C346.01 456.29 345.44 456.09 344.89 455.88L344.49 455.73C343.9 455.51 343.31 455.28 342.74 455.04C342.18 454.81 341.64 454.57 341.1 454.33L340.74 454.17L339.09 453.4H339.03L337.49 452.62L337.16 452.44C336.63 452.16 336.16 451.87 335.61 451.59C335.12 451.31 334.61 451.02 334.16 450.73L333.85 450.54C333.35 450.24 332.85 449.93 332.39 449.62H332.34L330.99 448.71L330.71 448.5C330.25 448.18 329.79 447.85 329.35 447.5C328.91 447.18 328.49 446.85 328.07 446.5L327.81 446.29C327.383 445.95 326.963 445.6 326.55 445.24L325.35 444.24L325.12 444.03L323.72 442.64C301.95 421.64 302.89 390.39 302.94 389.07C302.999 387.696 303.528 386.385 304.438 385.354C305.348 384.324 306.584 383.638 307.94 383.41C314.887 382.315 321.907 381.746 328.94 381.71C347.41 381.71 362.61 386.21 374.11 395.08C378.057 398.112 381.575 401.664 384.57 405.64C383.63 392.2 382.38 381.02 381.26 372.64C380.8 369.146 380.3 365.666 379.76 362.2C372.88 366.2 366.09 368.07 362.59 368.07C361.772 368.082 360.957 367.974 360.17 367.75C357.964 367.11 355.905 366.043 354.11 364.61C353.446 364.684 352.778 364.72 352.11 364.72C350.49 364.722 348.878 364.5 347.32 364.06C342.17 362.59 334.44 352.5 330.79 342.47L330.43 341.47V341.41C330.32 341.09 330.22 340.76 330.12 340.41V340.33C330.02 339.99 329.92 339.67 329.83 339.33V339.24C329.74 338.93 329.65 338.6 329.56 338.24V338.12C329.48 337.83 329.4 337.5 329.32 337.12V336.99C329.24 336.66 329.17 336.34 329.11 335.99V335.85C329.04 335.52 328.98 335.2 328.93 334.85V334.62C328.93 334.32 328.83 334.02 328.79 333.72V333.54C328.79 333.21 328.7 332.89 328.67 332.54L328.6 331.86C328.6 331.7 328.6 331.54 328.6 331.38C328.595 331.3 328.595 331.22 328.6 331.14C328.6 330.81 328.55 330.51 328.54 330.2C328.54 330.12 328.54 329.33 328.54 329.33C328.54 329.33 328.54 329.12 328.54 329.02V327.83V327.34C328.54 327.1 328.54 326.86 328.54 326.62C328.545 326.516 328.545 326.413 328.54 326.31V326.2C319.62 324.59 312.45 319.57 307.71 315.2C303.95 311.77 296.8 303.87 296.63 298.52C296.556 296.229 296.933 293.945 297.74 291.8C296.796 289.711 296.263 287.46 296.17 285.17C295.98 279.81 303.17 269.36 311.57 262.78L312.41 262.13C312.69 261.93 312.97 261.72 313.25 261.53L314.1 260.94L314.18 260.89L315.02 260.34L315.12 260.28C315.39 260.1 315.68 259.92 315.97 259.75L316.09 259.68L316.95 259.18L317.08 259.1L317.94 258.63L318.09 258.56L318.96 258.11L319.14 258.03L320.01 257.62L320.6 257.36L321.08 257.16C321.149 257.119 321.223 257.089 321.3 257.07L322.17 256.72L323 256.41L323.28 256.32L324 256.08L324.42 255.95L324.91 255.81L325.58 255.62L325.88 255.54H326.01C325.01 248.17 326.42 240.06 330.11 232.05C332.2 227.5 337.47 218.44 342.41 216.65C344.337 215.972 346.367 215.634 348.41 215.65H349.16C350.854 214.098 352.834 212.893 354.99 212.1C356.039 211.741 357.142 211.568 358.25 211.59C363.5 211.59 373.01 214.42 381.05 219.84L381.92 220.45H381.97L382.8 221.05H382.86L383.67 221.67L383.75 221.73L384.54 222.36L384.63 222.44L385.39 223.08L385.49 223.18L386.23 223.84L386.34 223.94C386.58 224.16 386.82 224.38 387.05 224.61L387.21 224.76L387.87 225.42L388 225.56L388.66 226.26L389.1 226.76L389.43 227.14L389.61 227.34L390.18 228.04L390.73 228.74L390.91 228.97L391.36 229.59L391.62 229.95L391.89 230.35L392.28 230.94L392.45 231.2L392.52 231.31C397.994 228.773 403.968 227.502 410 227.59C419.12 227.59 431.18 230.53 434.57 234.9C435.974 236.713 437.013 238.781 437.63 240.99C439.623 242.124 441.375 243.635 442.79 245.44C446.1 249.65 446.42 262.34 443.49 272.59V272.64L443.19 273.64V273.69C443.08 274.03 442.98 274.35 442.87 274.69C442.76 275.02 442.65 275.35 442.53 275.69V275.78C442.42 276.1 442.3 276.41 442.17 276.73V276.84L441.79 277.76V277.88L441.39 278.79L441.32 278.93C441.19 279.22 441.05 279.52 440.9 279.82L440.83 279.97L440.38 280.84L440.29 281L439.83 281.85L439.66 282.14L439.48 282.44L439.24 282.85L439.1 283.08L438.61 283.85C438.61 283.92 438.11 284.59 438.11 284.59L437.94 284.83L437.24 285.64L436.98 286L436.69 286.38L436.24 286.95L436.03 287.19L435.95 287.29C441.08 292.67 444.72 300.05 446.45 308.7C447.45 313.6 448.45 324.04 445.54 328.39C444.248 330.282 442.601 331.905 440.69 333.17C440.231 335.418 439.338 337.554 438.06 339.46C435.18 343.74 423.93 347.87 413.49 348.46L412.49 348.51H412.43H411.43H410.27H409.27H409.18L408.18 348.46H408.07L407.07 348.38H406.93L405.93 348.28H405.79L404.79 348.15L404.12 348.05C405.29 354.81 406.35 361.71 407.29 368.68C407.55 370.68 407.81 372.62 408.05 374.61C416.3 359.19 432.7 343.09 465.19 343.09C474.964 343.204 484.693 344.428 494.19 346.74C495.529 347.06 496.716 347.832 497.554 348.924C498.391 350.016 498.828 351.364 498.79 352.74C498.79 354.06 497.24 385.31 473.9 404.54C473.49 404.88 473.07 405.21 472.64 405.54L472.39 405.73L471.12 406.73C470.68 407.05 470.23 407.37 469.77 407.68L469.5 407.87L468.13 408.77L466.73 409.63L466.43 409.81C465.95 410.09 465.43 410.37 464.98 410.64C464.48 410.92 463.98 411.18 463.46 411.45L463.12 411.62L461.63 412.35H461.57L459.96 413.08L459.6 413.23C459.08 413.463 458.55 413.683 458.01 413.89C457.41 414.13 456.85 414.34 456.27 414.55L455.89 414.68C455.34 414.88 454.78 415.07 454.21 415.26H454.15L452.36 415.81L451.94 415.93L450.18 416.41H450.09C449.53 416.55 448.94 416.7 448.24 416.86L447.79 416.96L445.93 417.34H445.86L443.86 417.69L443.39 417.76L441.39 418.05C440.74 418.14 440.07 418.22 439.3 418.3L438.8 418.35C438.12 418.42 437.44 418.48 436.8 418.53H436.74L434.57 418.66H434.04C433.33 418.66 432.61 418.72 431.89 418.73H431.81H430.12H429.01H426.77L424.39 418.62H423.8C423.02 418.62 422.24 418.52 421.45 418.46H421.39C420.58 418.4 419.76 418.32 418.93 418.23L418.31 418.17L415.85 417.87H415.8C414.95 417.76 414.1 417.63 413.23 417.5L412.59 417.41L411.89 417.3C412.48 428.99 412.74 440.83 412.67 452.62C412.414 488.822 409.196 524.942 403.05 560.62C402.802 561.999 402.08 563.248 401.008 564.15C399.935 565.053 398.581 565.551 397.18 565.56L382.62 565.64Z" fill="#231F20"/>
<path d="M396.9 559.641H382.62C396.14 480.921 392.62 412.941 387.16 371.811C381.22 327.191 371.95 300.871 371.86 300.611L385.31 295.801C385.71 296.911 395.09 323.451 401.26 369.411C404.913 397.001 406.644 424.811 406.44 452.641C406.184 488.508 402.993 524.294 396.9 559.641Z" fill="#66BE64"/>
<path d="M492.71 352.52C492.71 352.52 439.51 402.52 404.88 410.03C489.69 428.64 492.71 352.52 492.71 352.52Z" fill="#66BE64"/>
<path d="M492.71 352.519C403.8 331.789 404.88 410.029 404.88 410.029C439.51 402.539 492.71 352.519 492.71 352.519Z" fill="#4CA84E"/>
<g style="mix-blend-mode:multiply">
<path d="M414.92 374.35C404.62 391.12 404.92 410.03 404.92 410.03C436.76 417.03 457.07 410.63 470.02 399.96C470.02 399.96 425.34 411.22 414.92 374.35Z" fill="#4CA84E"/>
</g>
<path d="M308.89 389.33C308.89 389.33 358.04 443.33 391.97 453.51C305.97 465.42 308.89 389.33 308.89 389.33Z" fill="#66BE64"/>
<path d="M308.89 389.33C399.14 375.59 391.97 453.51 391.97 453.51C358.04 443.34 308.89 389.33 308.89 389.33Z" fill="#4CA84E"/>
<g style="mix-blend-mode:multiply">
<path d="M384.74 417.16C393.74 434.67 391.97 453.51 391.97 453.51C359.69 457.98 339.97 450.05 327.85 438.4C327.85 438.4 371.49 453.1 384.74 417.16Z" fill="#4CA84E"/>
</g>
<path d="M375.76 289.34C375.76 289.34 359.84 289.77 340.08 270.79C320.32 251.81 340.38 223.79 344.31 222.35C346.563 221.556 349.003 221.462 351.31 222.08C352.689 220.117 354.631 218.618 356.88 217.78C360.8 216.35 394.17 224.98 391.2 252.22C388.23 279.46 375.76 289.34 375.76 289.34Z" fill="#E62C35"/>
<path d="M391.24 252.22C392.72 238.69 385.24 229.75 376.82 224.35C376.82 224.35 389.29 266.64 351.72 280.24C365.72 289.61 375.72 289.34 375.72 289.34C375.72 289.34 388.24 279.46 391.24 252.22Z" fill="#E95C6C"/>
<path d="M362.47 286.08C370.58 289.48 375.76 289.34 375.76 289.34C375.76 289.34 388.24 279.46 391.24 252.22C391.769 247.994 391.292 243.703 389.846 239.697C388.4 235.691 386.026 232.083 382.92 229.17C382.92 229.17 398.24 267.54 362.47 286.08Z" fill="#CC4558"/>
<path d="M375.76 289.34C375.76 289.34 371.24 304.64 347.09 317.54C322.94 330.44 302.46 302.73 302.33 298.54C302.266 296.145 302.932 293.788 304.24 291.78C302.802 289.862 301.976 287.555 301.87 285.16C301.72 280.98 320.25 251.91 345.23 263.16C370.21 274.41 375.76 289.34 375.76 289.34Z" fill="#E62C35"/>
<path d="M345.24 263.171C332.83 257.581 322.01 261.951 314.24 268.271C314.24 268.271 358.34 269.461 359.64 309.391C372.89 298.961 375.73 289.341 375.73 289.341C375.73 289.341 370.24 274.411 345.24 263.171Z" fill="#E95C6C"/>
<path d="M368.55 300.97C374.29 294.31 375.76 289.34 375.76 289.34C375.76 289.34 370.24 274.41 345.24 263.17C341.387 261.355 337.157 260.48 332.9 260.618C328.642 260.755 324.478 261.901 320.75 263.96C320.75 263.96 361.98 261.21 368.55 300.97Z" fill="#CC4558"/>
<path d="M375.76 289.34C375.76 289.34 388.89 298.34 393.76 325.34C398.63 352.34 365.88 363.21 361.87 362.04C359.57 361.363 357.53 360.003 356.02 358.14C353.761 358.913 351.32 358.982 349.02 358.34C345.02 357.2 323.08 330.59 341.49 310.34C359.9 290.09 375.76 289.34 375.76 289.34Z" fill="#E62C35"/>
<path d="M341.43 310.29C332.28 320.37 333.09 332 336.71 341.29C336.71 341.29 351.48 299.73 389.86 310.83C384.03 295.01 375.76 289.33 375.76 289.33C375.76 289.33 359.84 290 341.43 310.29Z" fill="#E95C6C"/>
<path d="M384.59 299.79C380.03 292.27 375.76 289.34 375.76 289.34C375.76 289.34 359.84 290 341.43 310.29C338.519 313.398 336.384 317.152 335.2 321.243C334.017 325.334 333.818 329.647 334.62 333.83C334.62 333.83 344.75 293.76 384.59 299.79Z" fill="#CC4558"/>
<path d="M375.76 289.341C375.76 289.341 388.39 279.631 415.53 283.341C442.67 287.051 442.92 321.561 440.58 325.011C439.223 326.987 437.298 328.504 435.06 329.361C435.091 331.761 434.394 334.115 433.06 336.111C430.73 339.571 398.65 352.201 385.06 328.421C371.47 304.641 375.76 289.341 375.76 289.341Z" fill="#E62C35"/>
<path d="M385.07 328.46C391.83 340.28 403.15 343.1 413.07 342.53C413.07 342.53 378.07 315.64 400.52 282.58C383.67 283.23 375.72 289.34 375.72 289.34C375.72 289.34 371.47 304.64 385.07 328.46Z" fill="#E95C6C"/>
<path d="M388.42 284.17C379.87 286.17 375.76 289.34 375.76 289.34C375.76 289.34 371.47 304.68 385.07 328.46C387.126 332.191 390.034 335.382 393.559 337.773C397.084 340.165 401.124 341.689 405.35 342.22C405.35 342.22 370.37 320.2 388.42 284.17Z" fill="#CC4558"/>
<path d="M375.76 289.34C375.76 289.34 370.43 274.34 382.38 249.68C394.33 225.02 427.19 235.43 429.75 238.68C431.21 240.583 432.058 242.885 432.18 245.28C434.48 245.989 436.507 247.385 437.99 249.28C440.56 252.57 442.66 286.97 415.84 292.56C389.02 298.15 375.76 289.34 375.76 289.34Z" fill="#E62C35"/>
<path d="M415.84 292.57C429.17 289.8 435.35 279.91 437.84 270.25C437.84 270.25 401.46 295.2 376.94 263.66C372.35 279.89 375.71 289.34 375.71 289.34C375.71 289.34 389.02 298.16 415.84 292.57Z" fill="#E95C6C"/>
<path d="M374.75 275.699C374.03 284.459 375.75 289.339 375.75 289.339C375.75 289.339 389.01 298.159 415.83 292.569C420.011 291.775 423.944 290.002 427.307 287.394C430.671 284.787 433.369 281.42 435.18 277.569C435.18 277.569 403.44 303.999 374.75 275.699Z" fill="#CC4558"/>
<path d="M381.09 272.869C373.79 259.869 368.45 260.219 365.56 261.259C362.67 262.299 358.34 265.459 361.1 280.129C363.86 294.799 370.7 307.419 380.97 303.689C391.24 299.959 388.39 285.899 381.09 272.869Z" fill="#FAF28C"/>
<path d="M359.59 276.11C360.568 276.11 361.36 275.318 361.36 274.34C361.36 273.363 360.568 272.57 359.59 272.57C358.613 272.57 357.82 273.363 357.82 274.34C357.82 275.318 358.613 276.11 359.59 276.11Z" fill="#F8A33E"/>
<path d="M362.86 265.06C363.838 265.06 364.63 264.267 364.63 263.29C364.63 262.312 363.838 261.52 362.86 261.52C361.883 261.52 361.09 262.312 361.09 263.29C361.09 264.267 361.883 265.06 362.86 265.06Z" fill="#F8A33E"/>
<path d="M364.73 269.859C365.879 269.859 366.81 268.928 366.81 267.779C366.81 266.63 365.879 265.699 364.73 265.699C363.581 265.699 362.65 266.63 362.65 267.779C362.65 268.928 363.581 269.859 364.73 269.859Z" fill="#F8A33E"/>
<path d="M378.59 271.37C379.568 271.37 380.36 270.578 380.36 269.6C380.36 268.623 379.568 267.83 378.59 267.83C377.613 267.83 376.82 268.623 376.82 269.6C376.82 270.578 377.613 271.37 378.59 271.37Z" fill="#F8A33E"/>
<path d="M372.04 269.471C372.775 269.471 373.37 268.875 373.37 268.141C373.37 267.406 372.775 266.811 372.04 266.811C371.305 266.811 370.71 267.406 370.71 268.141C370.71 268.875 371.305 269.471 372.04 269.471Z" fill="#F8A33E"/>
<path d="M381.35 274.631C382.085 274.631 382.68 274.035 382.68 273.301C382.68 272.566 382.085 271.971 381.35 271.971C380.615 271.971 380.02 272.566 380.02 273.301C380.02 274.035 380.615 274.631 381.35 274.631Z" fill="#F8A33E"/>
<path d="M366.82 273.33C367.555 273.33 368.15 272.734 368.15 272C368.15 271.265 367.555 270.67 366.82 270.67C366.085 270.67 365.49 271.265 365.49 272C365.49 272.734 366.085 273.33 366.82 273.33Z" fill="#F8A33E"/>
<path d="M361.79 281.229C362.768 281.229 363.56 280.437 363.56 279.459C363.56 278.482 362.768 277.689 361.79 277.689C360.812 277.689 360.02 278.482 360.02 279.459C360.02 280.437 360.812 281.229 361.79 281.229Z" fill="#F8A33E"/>
<path d="M374.24 261.121C373.877 261.252 373.543 261.453 373.258 261.713C372.973 261.973 372.743 262.286 372.579 262.635C372.416 262.985 372.323 263.363 372.306 263.748C372.289 264.134 372.348 264.519 372.48 264.881C372.612 265.248 372.818 265.585 373.084 265.87C373.351 266.156 373.672 266.384 374.03 266.541C373.58 277.721 380.65 294.161 380.97 294.921L382.66 294.191C382.58 294.011 375.48 277.491 375.86 266.741C375.989 266.717 376.116 266.683 376.24 266.641C376.971 266.376 377.566 265.831 377.895 265.127C378.224 264.423 378.26 263.617 377.995 262.886C377.73 262.155 377.185 261.56 376.481 261.231C375.777 260.902 374.971 260.866 374.24 261.131V261.121Z" fill="#F8A33E"/>
<path d="M360.52 264.831C360.328 264.295 359.984 263.827 359.53 263.484C359.076 263.14 358.532 262.937 357.964 262.898C357.396 262.858 356.829 262.985 356.332 263.263C355.835 263.541 355.43 263.957 355.166 264.462C354.902 264.966 354.791 265.536 354.846 266.103C354.9 266.669 355.119 267.207 355.475 267.652C355.83 268.096 356.308 268.427 356.848 268.605C357.389 268.782 357.97 268.798 358.52 268.651C363.749 277.135 368.149 286.103 371.66 295.431L373.37 294.761C369.818 285.315 365.364 276.233 360.07 267.641C360.378 267.25 360.582 266.786 360.66 266.294C360.739 265.803 360.691 265.299 360.52 264.831Z" fill="#F8A33E"/>
<path d="M369.37 262.9C369.613 262.881 369.852 262.827 370.08 262.74C370.625 262.542 371.1 262.187 371.443 261.72C371.786 261.253 371.984 260.695 372.009 260.115C372.035 259.536 371.889 258.962 371.588 258.466C371.288 257.97 370.847 257.575 370.321 257.33C369.796 257.084 369.21 257.001 368.637 257.089C368.063 257.177 367.529 257.433 367.102 257.825C366.675 258.217 366.373 258.727 366.236 259.29C366.098 259.854 366.131 260.445 366.33 260.99C366.549 261.606 366.973 262.128 367.53 262.47C367.53 273.93 374.19 291.07 374.53 291.88L376.24 291.21C376.15 291.01 369.5 274.02 369.37 262.9Z" fill="#F8A33E"/>
<path d="M404.402 250.737C409.547 248.868 412.753 244.699 411.563 241.423C410.374 238.147 405.239 237.007 400.094 238.875C394.95 240.743 391.744 244.913 392.934 248.189C394.123 251.464 399.258 252.605 404.402 250.737Z" fill="white"/>
<path d="M379.514 236.405C381.178 233.343 378.629 228.742 373.821 226.128C369.012 223.514 363.765 223.877 362.1 226.939C360.436 230 362.985 234.602 367.793 237.216C372.602 239.83 377.849 239.467 379.514 236.405Z" fill="white"/>
<path d="M417.72 248.24C419.299 248.24 420.58 246.959 420.58 245.38C420.58 243.8 419.299 242.52 417.72 242.52C416.14 242.52 414.86 243.8 414.86 245.38C414.86 246.959 416.14 248.24 417.72 248.24Z" fill="white"/>
<path d="M357.2 234.339C358.78 234.339 360.06 233.059 360.06 231.479C360.06 229.9 358.78 228.619 357.2 228.619C355.621 228.619 354.34 229.9 354.34 231.479C354.34 233.059 355.621 234.339 357.2 234.339Z" fill="white"/>
</g>
<defs>
<clipPath id="clip0_4887_1564">
<rect width="619.18" height="838.58" fill="white"/>
</clipPath>
</defs>
</svg>
