<svg width="620" height="839" viewBox="0 0 620 839" fill="none" xmlns="http://www.w3.org/2000/svg">
<g clip-path="url(#clip0_4857_3626)">
<path d="M309.59 838.58C480.572 838.58 619.18 809.519 619.18 773.67C619.18 737.821 480.572 708.76 309.59 708.76C138.608 708.76 0 737.821 0 773.67C0 809.519 138.608 838.58 309.59 838.58Z" fill="#A7A9AC"/>
<path d="M161.71 785.61C158.902 785.61 156.125 785.018 153.56 783.873C150.996 782.728 148.701 781.056 146.826 778.966C144.95 776.875 143.537 774.413 142.676 771.74C141.815 769.066 141.527 766.242 141.83 763.45C141.83 763.33 141.96 762.2 142.12 760.26C142.12 759.76 142.2 759.26 142.24 758.65C142.46 755.65 142.76 750.95 142.92 745.23C142.92 744.23 142.97 743.23 142.99 742.13V740.5C142.99 739.43 142.99 738.32 142.99 737.18C142.99 732.25 142.87 727.42 142.62 722.82C142.49 720.26 142.31 717.73 142.09 715.32C141.98 714.07 141.86 712.82 141.72 711.56C141.58 710.3 141.44 709.08 141.28 707.84C141.12 706.6 140.95 705.38 140.76 704.16C140.66 703.56 140.57 702.95 140.47 702.35C140.27 701.15 140.05 699.96 139.82 698.78C139.71 698.21 139.59 697.63 139.47 697.06C138.708 693.293 137.706 689.579 136.47 685.94C136.31 685.47 136.14 685 135.96 684.54C135.334 682.837 134.62 681.168 133.82 679.54C133.28 678.45 132.71 677.43 132.13 676.54C130.55 674.02 128.86 671.38 126.96 668.48C125.34 666.01 123.78 663.68 122.29 661.48L122.05 661.12C120.41 658.67 118.85 656.32 117.36 654.04C116.32 652.453 115.32 650.887 114.36 649.34C113.31 647.65 112.36 646.08 111.47 644.54C110.47 642.82 109.57 641.19 108.71 639.54C106.859 636.044 105.21 632.445 103.77 628.76C103.02 626.84 102.32 624.87 101.7 622.91C100.7 619.91 99.9103 616.72 99.2203 613.51C97.289 603.876 96.374 594.065 96.4903 584.24V201.42C96.4367 193.866 96.9448 186.319 98.0103 178.84C98.9548 172.35 100.525 165.967 102.7 159.78C103.04 158.78 103.4 157.84 103.77 156.9C104.49 155.04 105.28 153.18 106.13 151.35C106.53 150.47 106.95 149.59 107.38 148.71C108.21 147.03 109.11 145.32 110.07 143.6C111.03 141.88 111.87 140.42 112.9 138.71C113.81 137.2 114.78 135.65 115.9 133.97C117.9 130.82 120.04 127.63 122.1 124.55L122.29 124.26C125.43 119.55 128.68 114.69 132.18 109.08C134.222 105.668 135.844 102.022 137.01 98.22C138.372 93.9062 139.444 89.5065 140.22 85.05C140.44 83.86 140.64 82.66 140.83 81.45C141.7 75.76 142.33 69.45 142.69 62.78C142.94 58.19 143.07 53.35 143.06 48.42C143.06 33.48 141.87 22.25 141.86 22.14C141.56 19.3496 141.85 16.5272 142.712 13.8564C143.575 11.1855 144.989 8.72603 146.864 6.63779C148.739 4.54956 151.033 2.87934 153.596 1.73573C156.159 0.592123 158.934 0.000726945 161.74 5.61022e-09H529.19C531.936 -6.50347e-05 534.653 0.565391 537.171 1.66114C539.689 2.75689 541.954 4.35946 543.826 6.36898C545.697 8.3785 547.135 10.7519 548.049 13.3414C548.964 15.9308 549.335 18.6808 549.14 21.42C549.14 21.67 549.14 21.92 549.07 22.17C549.07 22.17 548.98 23.07 548.98 23.1L548.81 25.05C548.81 25.05 548.74 25.91 548.73 25.96C548.66 26.88 548.58 27.96 548.51 29.14L548.42 30.49C548.3 32.49 548.19 34.56 548.11 36.59V36.66C547.99 39.73 547.91 42.82 547.88 45.84V45.94C547.88 49.46 547.88 52.94 547.98 56.32C547.985 56.3732 547.985 56.4268 547.98 56.48C548.06 59.48 548.2 62.48 548.39 65.31V65.5C548.39 66.17 548.48 66.85 548.53 67.5V67.67C548.59 68.48 548.65 69.2 548.72 69.92C550.64 92.15 555.22 103.5 558.72 109.1C562.22 114.7 565.49 119.61 568.64 124.33C583.01 145.85 594.37 162.86 594.37 201.44V584.19C594.37 614.52 587.53 631.58 576.49 649.28C575.53 650.82 574.53 652.387 573.49 653.98C572.49 655.52 571.49 657.08 570.39 658.68L567.84 662.51C566.56 664.42 565.25 666.39 563.89 668.46C561.99 671.36 560.29 674 558.72 676.53C558.107 677.501 557.542 678.502 557.03 679.53C556.28 681.04 555.56 682.71 554.88 684.53C554.71 684.99 554.54 685.46 554.38 685.93C553.146 689.566 552.144 693.277 551.38 697.04C551.26 697.61 551.14 698.2 551.03 698.78C550.8 699.96 550.58 701.15 550.38 702.34C550.28 702.93 550.19 703.53 550.09 704.14C549.9 705.37 549.73 706.6 549.57 707.82C549.41 709.04 549.26 710.31 549.13 711.55C549 712.79 548.87 714.06 548.76 715.31V715.68C548.69 716.42 548.63 717.14 548.58 717.86V718.06C548.53 718.79 548.48 719.47 548.44 720.14V720.29C548.25 723.15 548.11 726.13 548.03 729.13V729.29C547.93 732.76 547.9 736.29 547.93 739.79V739.85C547.93 742.85 548.04 745.91 548.16 748.96V749.06C548.24 751.06 548.35 753.12 548.47 755.12C548.47 755.12 548.55 756.43 548.55 756.45C548.63 757.69 548.72 758.8 548.79 759.75L548.93 761.47L549.13 763.58C549.42 766.366 549.121 769.181 548.254 771.844C547.386 774.508 545.969 776.959 544.094 779.039C542.219 781.12 539.928 782.783 537.369 783.922C534.81 785.061 532.041 785.65 529.24 785.65L161.71 785.61Z" fill="#231F20"/>
<path d="M161.71 765.61C161.71 765.61 169.05 697.82 149.11 665.93C129.17 634.04 116.5 624.06 116.5 584.19V201.42C116.5 161.55 129.18 151.58 149.11 119.68C169.04 87.78 161.71 20 161.71 20H515.86C515.86 20 523.2 87.78 503.26 119.68C483.32 151.58 470.65 161.55 470.65 201.42V584.19C470.65 624.06 483.32 634.03 503.26 665.93C523.2 697.83 515.86 765.61 515.86 765.61H161.71Z" fill="#71A29E"/>
<path d="M183.7 665.93C163.76 634.03 151.09 624.06 151.09 584.19V201.42C151.09 161.55 163.76 151.58 183.7 119.68C203.64 87.78 196.3 20 196.3 20H161.71C161.71 20 169.05 87.78 149.11 119.68C129.17 151.58 116.5 161.55 116.5 201.42V584.19C116.5 624.06 129.18 634.03 149.11 665.93C169.04 697.83 161.71 765.61 161.71 765.61H196.27C196.27 765.61 203.63 697.82 183.7 665.93Z" fill="#587B75"/>
<path d="M529.16 765.61C529.16 765.61 521.82 697.82 541.76 665.93C561.7 634.04 574.37 624.06 574.37 584.19V201.42C574.37 161.55 561.69 151.58 541.76 119.68C521.83 87.78 529.16 20 529.16 20H175.01C175.01 20 167.67 87.78 187.61 119.68C207.55 151.58 220.27 161.55 220.27 201.42V584.19C220.27 624.06 207.59 634.03 187.66 665.93C167.73 697.83 175.06 765.61 175.06 765.61H529.16Z" fill="#C5E6DC"/>
<path d="M574.37 323.03H220.27V462.58H574.37V323.03Z" fill="#48BEA2"/>
<path d="M401.25 541.32C483.275 541.32 549.77 474.826 549.77 392.8C549.77 310.775 483.275 244.28 401.25 244.28C319.225 244.28 252.73 310.775 252.73 392.8C252.73 474.826 319.225 541.32 401.25 541.32Z" fill="#FAF28C"/>
<path d="M529.16 20H175.01C173.409 37.1676 173.281 54.4407 174.63 71.63H528.78C527.425 54.4409 527.553 37.1673 529.16 20Z" fill="#98CFC0"/>
<path d="M174.63 713.97C173.281 731.162 173.409 748.439 175.01 765.61H529.16C527.553 748.439 527.425 731.162 528.78 713.97H174.63Z" fill="#98CFC0"/>
<g style="mix-blend-mode:multiply">
<path d="M219.57 598.55C216.74 627.07 204.92 638.25 187.62 665.93C167.68 697.82 175.02 765.61 175.02 765.61H529.17C529.17 765.61 521.83 697.82 541.77 665.93C561.71 634.04 574.38 624.06 574.38 584.19V201.42C574.38 201.42 550.56 598.55 219.57 598.55Z" fill="#CEEAE2"/>
</g>
<path d="M523.96 593.2C543.185 593.2 558.77 577.615 558.77 558.39C558.77 539.165 543.185 523.58 523.96 523.58C504.735 523.58 489.15 539.165 489.15 558.39C489.15 577.615 504.735 593.2 523.96 593.2Z" fill="#E9F3F9"/>
<g style="mix-blend-mode:multiply">
<path d="M574.37 584.19V499.08L572.43 496.96C572.43 496.96 560.78 675.96 187.61 665.96C167.67 697.85 175.01 765.64 175.01 765.64H529.16C529.16 765.64 521.82 697.85 541.76 665.96C561.7 634.07 574.37 624.06 574.37 584.19Z" fill="#CEEAE2"/>
</g>
<path d="M313.89 175.45C313.936 178.846 313.293 182.216 311.998 185.357C310.704 188.497 308.786 191.342 306.36 193.72C304.011 196.179 301.18 198.127 298.042 199.44C294.905 200.753 291.53 201.403 288.13 201.35H275.32C274.162 201.381 273.006 201.239 271.89 200.93C271.109 200.729 270.433 200.239 270 199.56C269.646 198.981 269.408 198.339 269.3 197.67C269.195 196.824 269.149 195.972 269.16 195.12V156.2C269.144 155.382 269.178 154.564 269.26 153.75C269.379 153.11 269.606 152.494 269.93 151.93C270.13 151.57 270.4 151.254 270.724 151.001C271.049 150.749 271.422 150.565 271.82 150.46C272.983 150.145 274.186 150.004 275.39 150.04H281.83C284.717 150.04 286.886 150.04 288.34 150.04C291.65 150.023 294.931 150.66 297.994 151.915C301.057 153.169 303.842 155.016 306.19 157.35C308.683 159.648 310.66 162.451 311.987 165.571C313.315 168.692 313.964 172.059 313.89 175.45ZM301.5 175.73C301.531 173.967 301.191 172.217 300.502 170.594C299.813 168.971 298.79 167.511 297.5 166.31C296.287 165.089 294.842 164.123 293.25 163.468C291.658 162.814 289.951 162.485 288.23 162.5H281.51V188.96H288.3C291.705 188.941 294.97 187.596 297.4 185.21C298.729 184.02 299.783 182.557 300.491 180.92C301.199 179.283 301.543 177.512 301.5 175.73Z" fill="#115E49"/>
<path d="M348.47 164.53C349.651 164.496 350.831 164.638 351.97 164.95C352.364 165.053 352.732 165.237 353.051 165.49C353.369 165.743 353.631 166.06 353.82 166.42C354.13 166.998 354.343 167.623 354.45 168.27C354.536 169.074 354.572 169.882 354.56 170.69V195.19C354.572 195.995 354.536 196.8 354.45 197.6C354.348 198.239 354.134 198.855 353.82 199.42C353.627 199.774 353.363 200.085 353.045 200.333C352.727 200.58 352.361 200.76 351.97 200.86C350.808 201.175 349.604 201.316 348.4 201.28C346.855 201.411 345.307 201.081 343.95 200.33C343.517 200.005 343.159 199.59 342.9 199.114C342.641 198.637 342.488 198.111 342.45 197.57C340.717 200.044 337.917 201.28 334.05 201.28C329.85 201.28 326.023 199.437 322.57 195.75C319.208 192.283 317.347 187.63 317.39 182.8C317.381 180.443 317.837 178.108 318.731 175.927C319.625 173.746 320.94 171.763 322.6 170.09C326.08 166.43 329.897 164.6 334.05 164.6C335.539 164.581 337.016 164.867 338.39 165.44C339.381 165.809 340.304 166.34 341.12 167.01C341.585 167.449 342.007 167.931 342.38 168.45C342.407 167.882 342.554 167.325 342.813 166.818C343.071 166.311 343.435 165.865 343.88 165.51C344.75 164.86 346.27 164.53 348.47 164.53ZM335.94 189.03C336.74 189.043 337.534 188.881 338.265 188.554C338.996 188.228 339.646 187.745 340.17 187.14C341.264 186.015 341.881 184.51 341.89 182.94C341.869 181.386 341.283 179.893 340.24 178.74C339.705 178.087 339.025 177.566 338.255 177.219C337.485 176.872 336.644 176.708 335.8 176.74C334.956 176.719 334.118 176.888 333.348 177.234C332.578 177.58 331.895 178.095 331.35 178.74C330.267 179.9 329.657 181.423 329.64 183.01C329.648 183.791 329.813 184.561 330.126 185.276C330.439 185.991 330.893 186.635 331.46 187.17C332.036 187.775 332.733 188.253 333.504 188.573C334.276 188.894 335.105 189.049 335.94 189.03Z" fill="#115E49"/>
<path d="M406.43 164.53C407.236 164.509 408.042 164.556 408.84 164.67C409.477 164.794 410.091 165.017 410.66 165.33C411.013 165.527 411.322 165.794 411.57 166.113C411.817 166.433 411.998 166.799 412.1 167.19C412.416 168.353 412.557 169.556 412.52 170.76C412.558 171.908 412.403 173.054 412.06 174.15C411.829 174.925 411.319 175.588 410.63 176.01C410.055 176.349 409.426 176.586 408.77 176.71C407.971 176.815 407.165 176.862 406.36 176.85L401.88 176.57V195.29C401.893 196.086 401.847 196.882 401.74 197.67C401.612 198.317 401.385 198.941 401.07 199.52C400.869 199.876 400.598 200.188 400.273 200.435C399.948 200.683 399.577 200.862 399.18 200.96C398.03 201.27 396.841 201.412 395.65 201.38C394.476 201.421 393.303 201.265 392.18 200.92C391.398 200.684 390.737 200.158 390.33 199.45C389.989 198.883 389.761 198.254 389.66 197.6C389.58 196.786 389.547 195.968 389.56 195.15V176.64C387.32 176.78 385.47 176.85 384.03 176.85L377.17 176.57V195.29C377.183 196.086 377.136 196.882 377.03 197.67C376.901 198.317 376.675 198.941 376.36 199.52C376.159 199.876 375.888 200.188 375.563 200.435C375.238 200.683 374.867 200.862 374.47 200.96C373.32 201.27 372.131 201.412 370.94 201.38C369.766 201.421 368.593 201.265 367.47 200.92C366.688 200.684 366.027 200.158 365.62 199.45C365.279 198.883 365.051 198.254 364.95 197.6C364.87 196.786 364.837 195.968 364.85 195.15V176.64C364.017 176.776 363.174 176.846 362.33 176.85C361.787 176.883 361.243 176.793 360.74 176.587C360.236 176.381 359.785 176.064 359.42 175.66C358.75 174.86 358.42 173.21 358.42 170.66C358.393 169.563 358.511 168.467 358.77 167.4C358.876 166.797 359.149 166.234 359.557 165.777C359.965 165.32 360.492 164.985 361.08 164.81C361.561 164.691 362.054 164.634 362.55 164.64L364.86 164.92V161.29C364.869 157.665 366.243 154.177 368.71 151.52C371.27 148.607 374.98 147.15 379.84 147.15C380.644 147.136 381.449 147.169 382.25 147.25C382.9 147.357 383.529 147.569 384.11 147.88C384.47 148.071 384.788 148.335 385.041 148.655C385.294 148.976 385.477 149.345 385.58 149.74C385.896 150.903 386.037 152.106 386 153.31C386.022 154.322 385.904 155.331 385.65 156.31C385.489 156.965 385.204 157.583 384.81 158.13C384.426 158.564 383.926 158.879 383.37 159.04C382.852 159.229 382.31 159.347 381.76 159.39C381.32 159.39 380.65 159.39 379.76 159.39C378.03 159.39 377.17 159.97 377.17 161.14V164.99C379.69 164.797 381.86 164.704 383.68 164.71L389.56 164.99V161.29C389.569 157.665 390.944 154.177 393.41 151.52C395.97 148.607 399.68 147.15 404.54 147.15C405.358 147.135 406.176 147.168 406.99 147.25C407.626 147.362 408.241 147.575 408.81 147.88C409.171 148.071 409.488 148.335 409.741 148.655C409.994 148.976 410.177 149.345 410.28 149.74C410.596 150.903 410.738 152.106 410.7 153.31C410.722 154.322 410.604 155.331 410.35 156.31C410.189 156.965 409.904 157.583 409.51 158.13C409.126 158.564 408.626 158.879 408.07 159.04C407.551 159.229 407.01 159.347 406.46 159.39C406.02 159.39 405.35 159.39 404.46 159.39C402.73 159.39 401.87 159.97 401.87 161.14V164.99L406.43 164.53Z" fill="#115E49"/>
<path d="M434.5 163.69C439.54 163.655 444.392 165.602 448.01 169.11C451.176 172.204 453.181 176.292 453.691 180.689C454.2 185.085 453.184 189.524 450.81 193.26C449.005 196.088 446.478 198.383 443.49 199.91C440.749 201.307 437.717 202.04 434.64 202.05C431.499 202.04 428.408 201.257 425.64 199.77C422.668 198.19 420.148 195.877 418.32 193.05C416.335 190.095 415.289 186.61 415.32 183.05C415.247 180.453 415.735 177.871 416.75 175.479C417.764 173.087 419.283 170.942 421.2 169.19C424.741 165.683 429.517 163.708 434.5 163.69ZM429.95 188.01C431.23 189.08 432.833 189.686 434.5 189.73C436.191 189.671 437.815 189.056 439.12 187.98C439.84 187.334 440.418 186.546 440.818 185.666C441.218 184.786 441.431 183.832 441.444 182.866C441.457 181.899 441.27 180.94 440.894 180.049C440.518 179.158 439.962 178.355 439.26 177.69C437.888 176.597 436.185 176.004 434.43 176.01C432.755 176.04 431.144 176.659 429.88 177.76C429.144 178.382 428.564 179.169 428.187 180.057C427.81 180.944 427.647 181.908 427.71 182.87C427.637 183.844 427.803 184.822 428.193 185.718C428.583 186.613 429.187 187.4 429.95 188.01Z" fill="#115E49"/>
<path d="M488.54 147.29C489.721 147.257 490.9 147.398 492.04 147.71C492.433 147.814 492.801 147.998 493.119 148.251C493.437 148.504 493.7 148.82 493.89 149.18C494.2 149.758 494.412 150.383 494.52 151.03C494.605 151.834 494.642 152.642 494.63 153.45V195.29C494.642 196.095 494.605 196.899 494.52 197.7C494.414 198.342 494.19 198.959 493.86 199.52C493.443 200.229 492.764 200.746 491.97 200.96C490.807 201.274 489.604 201.416 488.4 201.38C484.85 201.38 482.89 200.23 482.52 197.95C481.49 199.083 480.221 199.972 478.804 200.554C477.387 201.135 475.859 201.393 474.33 201.31C470.13 201.31 466.303 199.477 462.85 195.81C461.174 194.09 459.854 192.056 458.965 189.826C458.076 187.595 457.636 185.211 457.67 182.81C457.669 178.065 459.541 173.511 462.88 170.14C466.36 166.447 470.177 164.603 474.33 164.61C475.843 164.537 477.352 164.815 478.74 165.422C480.128 166.029 481.357 166.949 482.33 168.11V153.41C482.316 152.602 482.349 151.794 482.43 150.99C482.536 150.352 482.749 149.737 483.06 149.17C483.258 148.819 483.525 148.511 483.844 148.266C484.164 148.02 484.53 147.841 484.92 147.74C486.097 147.409 487.317 147.257 488.54 147.29ZM471.74 187.19C472.301 187.797 472.984 188.279 473.744 188.604C474.503 188.93 475.323 189.092 476.15 189.08C476.961 189.098 477.766 188.938 478.509 188.611C479.252 188.285 479.915 187.8 480.45 187.19C481.544 186.064 482.16 184.559 482.17 182.99C482.149 181.436 481.562 179.943 480.52 178.79C479.984 178.137 479.304 177.617 478.534 177.27C477.764 176.923 476.924 176.758 476.08 176.79C475.237 176.755 474.398 176.91 473.622 177.242C472.847 177.574 472.156 178.076 471.6 178.71C470.533 179.865 469.933 181.377 469.92 182.95C469.92 183.746 470.082 184.534 470.394 185.266C470.707 185.998 471.165 186.659 471.74 187.21V187.19Z" fill="#115E49"/>
<path d="M506.32 159.56C505.139 159.594 503.959 159.453 502.82 159.14C502.425 159.037 502.055 158.853 501.735 158.6C501.415 158.347 501.151 158.03 500.96 157.67C500.649 157.088 500.436 156.46 500.33 155.81C500.197 154.202 500.197 152.587 500.33 150.98C500.436 150.342 500.649 149.726 500.96 149.16C501.158 148.809 501.425 148.501 501.745 148.255C502.064 148.01 502.43 147.831 502.82 147.73C503.982 147.414 505.186 147.272 506.39 147.31C507.571 147.277 508.75 147.418 509.89 147.73C510.283 147.833 510.651 148.018 510.969 148.271C511.288 148.524 511.55 148.84 511.74 149.2C512.05 149.778 512.263 150.403 512.37 151.05C512.517 152.656 512.517 154.273 512.37 155.88C512.267 156.518 512.054 157.134 511.74 157.7C511.544 158.052 511.279 158.36 510.961 158.608C510.643 158.855 510.279 159.036 509.89 159.14C508.727 159.454 507.524 159.596 506.32 159.56ZM500.27 170.69C500.256 169.882 500.289 169.074 500.37 168.27C500.476 167.632 500.689 167.016 501 166.45C501.198 166.099 501.465 165.791 501.785 165.545C502.104 165.3 502.47 165.121 502.86 165.02C504.022 164.704 505.226 164.562 506.43 164.6C507.442 164.573 508.452 164.691 509.43 164.95C510.087 165.104 510.706 165.39 511.25 165.79C511.684 166.169 512 166.665 512.16 167.22C512.348 167.738 512.466 168.28 512.51 168.83C512.51 169.28 512.51 169.94 512.51 170.83V195.29C512.522 196.094 512.485 196.899 512.4 197.7C512.297 198.338 512.084 198.954 511.77 199.52C511.574 199.872 511.309 200.18 510.992 200.428C510.674 200.675 510.309 200.856 509.92 200.96C508.757 201.274 507.554 201.416 506.35 201.38C505.169 201.414 503.989 201.273 502.85 200.96C502.455 200.857 502.085 200.673 501.765 200.42C501.445 200.167 501.181 199.85 500.99 199.49C500.685 198.92 500.472 198.306 500.36 197.67C500.278 196.856 500.245 196.038 500.26 195.22L500.27 170.69Z" fill="#115E49"/>
<path d="M518.08 153.29C518.066 152.482 518.099 151.674 518.18 150.87C518.288 150.223 518.5 149.598 518.81 149.02C519.001 148.659 519.265 148.342 519.585 148.089C519.906 147.836 520.275 147.652 520.67 147.55C521.832 147.234 523.036 147.092 524.24 147.13C525.41 147.092 526.579 147.244 527.7 147.58C528.479 147.825 529.141 148.348 529.56 149.05C529.893 149.624 530.117 150.254 530.22 150.91C530.304 151.724 530.341 152.542 530.33 153.36V185.77C530.232 186.848 530.376 187.934 530.75 188.95C531.03 189.4 531.8 189.62 533.06 189.62C533.552 189.606 534.044 189.64 534.53 189.72C534.969 189.846 535.382 190.049 535.75 190.32C536.301 190.739 536.675 191.349 536.8 192.03C537.038 193.1 537.146 194.194 537.12 195.29C537.145 196.465 537.037 197.639 536.8 198.79C536.687 199.514 536.314 200.172 535.75 200.64C535.377 200.933 534.948 201.147 534.49 201.27C533.995 201.353 533.492 201.39 532.99 201.38C531.003 201.401 529.016 201.308 527.04 201.1C525.607 200.929 524.204 200.562 522.87 200.01C521.657 199.538 520.643 198.662 520 197.53C519.294 196.194 518.81 194.752 518.57 193.26C518.204 191.063 518.041 188.837 518.08 186.61V153.29Z" fill="#115E49"/>
<path d="M290.12 304.62C307.186 304.62 321.02 290.786 321.02 273.72C321.02 256.655 307.186 242.82 290.12 242.82C273.054 242.82 259.22 256.655 259.22 273.72C259.22 290.786 273.054 304.62 290.12 304.62Z" fill="#E9F3F9"/>
<path d="M269.17 237.89C278.487 237.89 286.04 230.337 286.04 221.02C286.04 211.703 278.487 204.15 269.17 204.15C259.853 204.15 252.3 211.703 252.3 221.02C252.3 230.337 259.853 237.89 269.17 237.89Z" fill="#E9F3F9"/>
<path d="M305.34 666.69C299.544 666.691 293.871 665.021 289 661.88C288.484 661.573 288.06 661.132 287.773 660.604C287.486 660.076 287.347 659.48 287.37 658.88C287.37 657.22 288.46 654.87 290.64 651.83C290.951 651.347 291.386 650.955 291.899 650.697C292.413 650.438 292.987 650.322 293.56 650.36C295.436 650.489 297.244 651.113 298.8 652.17C301.613 653.783 303.993 654.587 305.94 654.58C309.44 654.58 311.19 653.89 311.19 652.51C311.19 651.94 310.64 651.45 309.55 651.05C308.213 650.593 306.833 650.277 305.43 650.11C303.591 649.832 301.787 649.356 300.05 648.69C298.176 647.996 296.377 647.115 294.68 646.06C292.87 644.865 291.438 643.179 290.55 641.2C289.407 638.741 288.849 636.051 288.92 633.34C288.92 624.28 295.14 619.75 307.58 619.75C311.925 619.811 316.205 620.807 320.13 622.67C322.13 623.59 323.13 624.853 323.13 626.46C322.937 628.135 322.318 629.733 321.33 631.1C320.01 633.16 318.69 634.2 317.33 634.2C316.31 634.107 315.318 633.815 314.41 633.34C312.232 632.259 309.842 631.672 307.41 631.62C304.03 631.62 302.34 632.25 302.34 633.51C302.368 634 302.542 634.47 302.84 634.861C303.138 635.251 303.545 635.543 304.01 635.7C305.345 636.306 306.771 636.685 308.23 636.82C312.021 637.321 315.707 638.425 319.15 640.09C320.954 641.026 322.424 642.496 323.36 644.3C324.542 646.536 325.121 649.042 325.04 651.57C325.13 654.262 324.553 656.935 323.36 659.35C322.322 661.367 320.664 662.997 318.63 664C316.67 664.975 314.588 665.681 312.44 666.1C310.097 666.516 307.72 666.713 305.34 666.69Z" fill="#115E49"/>
<path d="M374.4 637.449C374.4 641.239 373.52 643.98 371.78 645.67C371.028 646.456 370.127 647.085 369.129 647.519C368.132 647.954 367.058 648.185 365.97 648.199H345.59C345.59 649.809 346.53 651.2 348.43 652.25C350.282 653.328 352.387 653.89 354.53 653.88C356 653.887 357.468 653.774 358.92 653.54C359.937 653.392 360.941 653.162 361.92 652.85L362.86 652.5C363.929 651.952 365.101 651.632 366.3 651.56C368.14 651.56 369.716 652.85 371.03 655.43C371.695 656.663 372.078 658.03 372.15 659.43C372.15 664.543 366.047 667.096 353.84 667.09C349.957 667.164 346.102 666.414 342.53 664.889C339.519 663.649 336.87 661.668 334.83 659.13C333.057 656.868 331.675 654.327 330.74 651.61C329.857 649.004 329.408 646.271 329.41 643.52C329.41 636.3 331.744 630.523 336.41 626.19C341.077 621.856 346.91 619.693 353.91 619.699C356.535 619.673 359.148 620.065 361.65 620.86C363.76 621.51 365.74 622.526 367.5 623.86C369.018 625.066 370.338 626.504 371.41 628.12C372.403 629.588 373.171 631.195 373.69 632.89C374.14 634.368 374.379 635.904 374.4 637.449ZM356.27 640.38C358.45 640.38 359.54 639.463 359.54 637.63C359.558 637.017 359.432 636.41 359.171 635.855C358.91 635.301 358.523 634.816 358.04 634.44C356.767 633.561 355.234 633.138 353.69 633.24C351.644 633.324 349.695 634.132 348.19 635.52C346.35 637.04 345.44 638.66 345.44 640.38H356.27Z" fill="#115E49"/>
<path d="M423.68 637.449C423.68 641.243 422.803 643.983 421.05 645.67C420.3 646.456 419.401 647.084 418.405 647.519C417.409 647.953 416.336 648.185 415.25 648.199H394.87C394.87 649.813 395.814 651.163 397.7 652.25C399.556 653.327 401.665 653.889 403.81 653.88C405.28 653.887 406.749 653.774 408.2 653.54C409.217 653.391 410.221 653.161 411.2 652.85L412.14 652.5C413.209 651.951 414.381 651.631 415.58 651.56C417.42 651.56 418.99 652.85 420.31 655.43C420.975 656.663 421.358 658.03 421.43 659.43C421.43 664.543 415.323 667.096 403.11 667.09C399.227 667.162 395.372 666.412 391.8 664.889C388.793 663.647 386.148 661.666 384.11 659.13C382.337 656.868 380.955 654.327 380.02 651.61C379.137 649.004 378.687 646.271 378.69 643.52C378.69 636.3 381.023 630.523 385.69 626.19C390.357 621.856 396.19 619.693 403.19 619.699C405.815 619.673 408.428 620.065 410.93 620.86C414.945 622.045 418.405 624.623 420.69 628.13C421.683 629.598 422.451 631.205 422.97 632.9C423.42 634.375 423.659 635.907 423.68 637.449ZM405.53 640.38C407.71 640.38 408.8 639.463 408.8 637.63C408.818 637.016 408.691 636.407 408.429 635.853C408.166 635.298 407.776 634.814 407.29 634.44C406.021 633.56 404.491 633.137 402.95 633.24C400.905 633.324 398.956 634.132 397.45 635.52C395.61 637.04 394.69 638.66 394.69 640.38H405.53Z" fill="#115E49"/>
<path d="M466.33 599.44C467.781 599.396 469.231 599.571 470.63 599.96C471.114 600.085 471.568 600.309 471.96 600.619C472.353 600.929 472.676 601.318 472.91 601.76C473.291 602.473 473.554 603.243 473.69 604.04C473.786 605.037 473.826 606.039 473.81 607.04V658.38C473.826 659.381 473.786 660.383 473.69 661.38C473.555 662.167 473.278 662.923 472.87 663.61C472.619 664.043 472.284 664.422 471.886 664.726C471.488 665.03 471.034 665.252 470.55 665.38C469.119 665.762 467.64 665.934 466.16 665.89C461.8 665.89 459.393 664.487 458.94 661.68C456.533 664.433 453.177 665.81 448.87 665.81C443.71 665.81 439.01 663.56 434.77 659.06C430.612 654.781 428.325 649.026 428.41 643.06C428.397 637.23 430.699 631.634 434.81 627.5C439.083 622.967 443.77 620.7 448.87 620.7C453.123 620.7 456.42 622.133 458.76 625V606.92C458.746 605.918 458.79 604.917 458.89 603.92C459.022 603.135 459.285 602.377 459.67 601.68C459.91 601.247 460.236 600.867 460.628 600.564C461.02 600.261 461.47 600.042 461.95 599.92C463.378 599.542 464.854 599.38 466.33 599.44ZM445.69 648.44C446.38 649.185 447.219 649.777 448.153 650.177C449.087 650.576 450.094 650.775 451.11 650.76C452.107 650.783 453.098 650.587 454.012 650.186C454.925 649.785 455.741 649.189 456.4 648.44C457.737 647.053 458.493 645.207 458.51 643.28C458.479 641.377 457.769 639.547 456.51 638.12C455.843 637.328 455.003 636.698 454.055 636.281C453.106 635.863 452.075 635.668 451.04 635.71C450.004 635.669 448.973 635.861 448.021 636.271C447.069 636.681 446.222 637.299 445.54 638.08C444.227 639.495 443.492 641.35 443.48 643.28C443.486 644.247 443.684 645.203 444.064 646.092C444.443 646.982 444.996 647.787 445.69 648.46V648.44Z" fill="#115E49"/>
<path d="M497.38 666.69C491.584 666.691 485.911 665.021 481.04 661.88C480.523 661.573 480.097 661.133 479.809 660.605C479.52 660.077 479.379 659.481 479.4 658.88C479.4 657.22 480.49 654.87 482.67 651.83C482.984 651.347 483.421 650.955 483.936 650.697C484.451 650.439 485.025 650.322 485.6 650.36C487.476 650.491 489.283 651.115 490.84 652.17C493.653 653.783 496.033 654.587 497.98 654.58C501.48 654.58 503.23 653.89 503.23 652.51C503.23 651.94 502.68 651.45 501.59 651.05C500.25 650.593 498.866 650.278 497.46 650.11C495.624 649.831 493.824 649.355 492.09 648.69C490.214 647.994 488.412 647.113 486.71 646.06C484.903 644.864 483.474 643.178 482.59 641.2C481.444 638.742 480.883 636.051 480.95 633.34C480.95 624.28 487.17 619.75 499.61 619.75C503.958 619.811 508.241 620.807 512.17 622.67C514.17 623.59 515.17 624.853 515.17 626.46C514.978 628.137 514.354 629.736 513.36 631.1C512.04 633.16 510.73 634.2 509.36 634.2C508.337 634.107 507.342 633.815 506.43 633.34C504.253 632.257 501.862 631.669 499.43 631.62C496.037 631.62 494.344 632.25 494.35 633.51C494.379 634.001 494.555 634.472 494.854 634.863C495.154 635.253 495.563 635.545 496.03 635.7C497.361 636.306 498.784 636.685 500.24 636.82C502.093 637.055 503.922 637.443 505.71 637.98C507.586 638.529 509.413 639.234 511.17 640.09C512.971 641.029 514.441 642.499 515.38 644.3C516.562 646.536 517.141 649.042 517.06 651.57C517.15 654.262 516.573 656.935 515.38 659.35C514.337 661.363 512.68 662.991 510.65 664C508.69 664.975 506.608 665.681 504.46 666.1C502.123 666.514 499.753 666.712 497.38 666.69Z" fill="#115E49"/>
<g style="mix-blend-mode:multiply">
<g style="mix-blend-mode:multiply">
<path d="M385.46 579.84C427.406 579.84 461.41 570.707 461.41 559.44C461.41 548.173 427.406 539.04 385.46 539.04C343.514 539.04 309.51 548.173 309.51 559.44C309.51 570.707 343.514 579.84 385.46 579.84Z" fill="#A7A9AC"/>
</g>
</g>
<path d="M498.79 337.64C498.6 336.49 493.86 310.06 470.71 296.97C480.802 285.453 485.979 270.44 485.13 255.15C485.013 254.002 484.576 252.91 483.869 251.998C483.162 251.086 482.213 250.39 481.13 249.99C474.359 247.734 467.267 246.596 460.13 246.62C450.219 246.47 440.453 249.01 431.87 253.97C426.947 239.473 416.535 227.485 402.87 220.58C402.079 220.22 401.219 220.036 400.35 220.04C398.891 220.025 397.473 220.528 396.35 221.46C395.45 222.2 374.93 239.53 375.16 266.12C371.424 265.363 367.622 264.981 363.81 264.98C352.418 264.98 341.273 268.302 331.74 274.54C330.807 275.22 330.081 276.146 329.645 277.214C329.209 278.283 329.079 279.452 329.27 280.59C329.47 281.74 334.21 308.17 357.36 321.27C347.267 332.783 342.09 347.794 342.94 363.08C343.058 364.23 343.495 365.323 344.202 366.236C344.909 367.15 345.857 367.848 346.94 368.25C353.712 370.5 360.804 371.635 367.94 371.61C375.848 371.699 383.685 370.117 390.94 366.97C390.27 403.33 385.94 443.76 381.17 478.14C378.57 467.46 374.47 457.14 368.25 448.26C341.97 410.6 327.61 370.26 327.47 369.84C327.046 368.629 326.256 367.58 325.21 366.836C324.164 366.093 322.913 365.693 321.63 365.69C321.457 365.68 321.283 365.68 321.11 365.69C319.744 365.803 318.454 366.366 317.443 367.291C316.431 368.215 315.755 369.45 315.52 370.8C313.973 381.478 313.611 392.293 314.44 403.05C315.61 420.18 320.18 445.27 335.27 467.53C358.64 502 367.46 545.4 367.87 556.53C367.87 557.19 367.87 557.76 367.92 558.21C367.736 559.111 367.755 560.041 367.975 560.933C368.195 561.825 368.61 562.658 369.191 563.37C369.772 564.082 370.504 564.656 371.334 565.05C372.164 565.445 373.071 565.65 373.99 565.65H388.99C390.084 565.652 391.158 565.363 392.104 564.814C393.049 564.264 393.831 563.472 394.37 562.52C447.03 469.94 477.65 420.31 477.96 419.82C478.538 418.882 478.855 417.806 478.879 416.704C478.903 415.602 478.632 414.513 478.095 413.551C477.558 412.588 476.774 411.786 475.824 411.227C474.874 410.668 473.792 410.372 472.69 410.37C472.119 410.373 471.551 410.45 471 410.6C446.44 417.54 425.84 437.16 409.75 468.93C410.183 465.63 410.61 462.297 411.03 458.93C414.03 434.99 416.09 412.81 417.25 392.81C419.754 394.687 422.433 396.318 425.25 397.68C426.307 398.146 427.472 398.31 428.616 398.152C429.76 397.995 430.838 397.524 431.73 396.79C432.62 396.05 453.14 378.72 452.91 352.13C456.649 352.895 460.454 353.284 464.27 353.29C475.663 353.296 486.809 349.973 496.34 343.73C497.279 343.048 498.007 342.115 498.441 341.038C498.874 339.961 498.995 338.783 498.79 337.64Z" fill="#231F20"/>
<path d="M388.58 559.44H374.02C374.39 557.64 410.79 375.65 391.74 298.6L406.18 295.03C414.55 328.93 414.12 383.81 404.88 458.14C398.05 513.13 388.68 558.98 388.58 559.44Z" fill="#66BE64"/>
<g style="mix-blend-mode:multiply">
<path d="M406.18 295.03L391.74 298.6C396.62 318.33 397.86 344.95 397 373.66C400.768 379.922 405.565 385.504 411.19 390.17C413.42 349.46 411.75 317.6 406.18 295.03Z" fill="#4CA84E"/>
</g>
<path d="M335.41 279.56C342.054 275.279 349.581 272.558 357.426 271.601C365.271 270.643 373.231 271.473 380.71 274.03C407.53 283.25 414.05 309.12 414.05 309.12C414.05 309.12 388.97 330.74 361.85 316.64C339.77 305.16 335.41 279.56 335.41 279.56Z" fill="#FAF28C"/>
<path d="M391.21 320.29C399.547 318.304 407.344 314.508 414.05 309.17C414.05 309.17 407.53 283.3 380.71 274.08C373.231 271.524 365.271 270.694 357.426 271.652C349.581 272.609 342.054 275.33 335.41 279.61C335.41 279.61 390.32 277.42 391.21 320.29Z" fill="#EDD946"/>
<g style="mix-blend-mode:multiply">
<path d="M414.05 309.12C414.05 309.12 407.53 283.25 380.71 274.03C376.829 272.684 372.8 271.808 368.71 271.42C404.71 291.27 405.71 314.67 405.71 314.67C408.659 313.087 411.451 311.229 414.05 309.12Z" fill="#EFCC6B"/>
</g>
<path d="M349.13 362.44C348.745 354.545 350.152 346.666 353.245 339.392C356.338 332.119 361.037 325.639 366.99 320.44C388.39 301.83 414.05 309.12 414.05 309.12C414.05 309.12 420.24 341.65 394.47 358.12C373.48 371.47 349.13 362.44 349.13 362.44Z" fill="#FAF28C"/>
<path d="M412.27 334.46C414.715 326.246 415.323 317.595 414.05 309.12C414.05 309.12 388.39 301.83 366.99 320.44C361.037 325.639 356.338 332.119 353.245 339.392C350.152 346.666 348.745 354.545 349.13 362.44C349.13 362.44 374.73 313.82 412.27 334.46Z" fill="#EDD946"/>
<g style="mix-blend-mode:multiply">
<path d="M414.05 309.12C414.05 309.12 388.39 301.83 366.99 320.44C363.896 323.131 361.127 326.175 358.74 329.51C393.92 308.28 414.67 319.13 414.67 319.13C414.777 315.781 414.569 312.43 414.05 309.12Z" fill="#EFCC6B"/>
</g>
<path d="M427.77 392C420.741 388.385 414.622 383.226 409.87 376.91C405.118 370.594 401.856 363.285 400.33 355.53C394.91 327.69 414.05 309.12 414.05 309.12C414.05 309.12 445.32 320.02 446.67 350.56C447.77 375.42 427.77 392 427.77 392Z" fill="#FAF28C"/>
<path d="M435.1 323.29C429.21 317.068 422.023 312.216 414.05 309.08C414.05 309.08 394.91 327.65 400.33 355.49C401.856 363.245 405.118 370.554 409.87 376.87C414.622 383.186 420.741 388.345 427.77 391.96C427.77 391.96 398.46 345.52 435.1 323.29Z" fill="#EDD946"/>
<g style="mix-blend-mode:multiply">
<path d="M414.05 309.12C414.05 309.12 394.91 327.69 400.33 355.53C401.108 359.557 402.36 363.478 404.06 367.21C403.26 326.13 423.06 313.58 423.06 313.58C420.206 311.809 417.189 310.315 414.05 309.12Z" fill="#EFCC6B"/>
</g>
<path d="M492.69 338.68C486.045 342.959 478.519 345.678 470.674 346.636C462.829 347.594 454.869 346.764 447.39 344.21C420.56 334.98 414.05 309.12 414.05 309.12C414.05 309.12 439.13 287.49 466.25 301.59C488.33 313.07 492.69 338.68 492.69 338.68Z" fill="#FAF28C"/>
<path d="M436.89 297.99C428.552 299.978 420.753 303.778 414.05 309.12C414.05 309.12 420.56 334.98 447.39 344.2C454.868 346.757 462.828 347.589 470.673 346.633C478.518 345.677 486.045 342.958 492.69 338.68C492.69 338.68 437.78 340.81 436.89 297.99Z" fill="#EDD946"/>
<g style="mix-blend-mode:multiply">
<path d="M414.05 309.12C414.05 309.12 420.56 334.98 447.39 344.2C451.272 345.546 455.3 346.426 459.39 346.82C423.39 326.97 422.44 303.57 422.44 303.57C419.472 305.148 416.663 307.006 414.05 309.12Z" fill="#EFCC6B"/>
</g>
<path d="M478.97 255.79C479.354 263.686 477.946 271.566 474.852 278.839C471.757 286.113 467.055 292.592 461.1 297.79C439.71 316.41 414.05 309.12 414.05 309.12C414.05 309.12 407.86 276.58 433.63 260.12C454.61 246.76 478.97 255.79 478.97 255.79Z" fill="#FAF28C"/>
<path d="M415.83 283.77C413.385 291.987 412.777 300.642 414.05 309.12C414.05 309.12 439.71 316.41 461.1 297.79C467.056 292.592 471.757 286.113 474.852 278.839C477.947 271.566 479.355 263.685 478.97 255.79C478.97 255.79 453.36 304.41 415.83 283.77Z" fill="#EDD946"/>
<g style="mix-blend-mode:multiply">
<path d="M414.05 309.12C414.05 309.12 439.71 316.41 461.1 297.79C464.202 295.106 466.971 292.061 469.35 288.72C434.18 309.95 413.42 299.1 413.42 299.1C413.31 302.452 413.521 305.807 414.05 309.12Z" fill="#EFCC6B"/>
</g>
<path d="M400.33 226.23C407.358 229.846 413.478 235.005 418.23 241.32C422.982 247.636 426.243 254.945 427.77 262.7C433.19 290.54 414.05 309.12 414.05 309.12C414.05 309.12 382.78 298.21 381.43 267.67C380.33 242.81 400.33 226.23 400.33 226.23Z" fill="#FAF28C"/>
<path d="M392.99 294.9C398.884 301.125 406.073 305.98 414.05 309.12C414.05 309.12 433.19 290.54 427.77 262.7C426.244 254.945 422.982 247.636 418.23 241.32C413.478 235.005 407.359 229.846 400.33 226.23C400.33 226.23 429.63 272.72 392.99 294.9Z" fill="#EDD946"/>
<g style="mix-blend-mode:multiply">
<path d="M414.05 309.12C414.05 309.12 433.19 290.54 427.77 262.7C426.986 258.674 425.734 254.754 424.04 251.02C424.84 292.1 405.04 304.65 405.04 304.65C407.895 306.421 410.912 307.918 414.05 309.12Z" fill="#EFCC6B"/>
</g>
<path d="M421.03 255.79C422.135 255.79 423.03 254.895 423.03 253.79C423.03 252.685 422.135 251.79 421.03 251.79C419.925 251.79 419.03 252.685 419.03 253.79C419.03 254.895 419.925 255.79 421.03 255.79Z" fill="white"/>
<path d="M478.38 320.88C479.634 320.88 480.65 319.864 480.65 318.61C480.65 317.356 479.634 316.34 478.38 316.34C477.126 316.34 476.11 317.356 476.11 318.61C476.11 319.864 477.126 320.88 478.38 320.88Z" fill="white"/>
<path d="M479.07 338.56C480.175 338.56 481.07 337.664 481.07 336.56C481.07 335.455 480.175 334.56 479.07 334.56C477.965 334.56 477.07 335.455 477.07 336.56C477.07 337.664 477.965 338.56 479.07 338.56Z" fill="white"/>
<path d="M457.36 267.67C458.465 267.67 459.36 266.774 459.36 265.67C459.36 264.565 458.465 263.67 457.36 263.67C456.255 263.67 455.36 264.565 455.36 265.67C455.36 266.774 456.255 267.67 457.36 267.67Z" fill="white"/>
<path d="M442.34 305.29C442.34 305.29 424.51 331.85 403.62 322.29C385.62 314.1 394.53 281.78 394.53 281.78L442.34 305.29Z" fill="#F8A33E"/>
<path d="M400.1 296.29C397.77 299.47 394.37 305.06 396.32 308.44C398.97 313.03 410.07 311.12 411.59 310.83C413.18 314.44 416.32 320.18 420.22 320.18C425.53 320.18 429.42 309.6 429.93 308.18C433.85 308.6 440.39 308.75 442.34 305.37C444.99 300.78 437.78 292.12 436.77 290.95C439.1 287.77 442.5 282.18 440.55 278.8C437.9 274.21 426.8 276.13 425.28 276.41C423.69 272.81 420.55 267.07 416.65 267.07C411.34 267.07 407.45 277.64 406.94 279.07C403.02 278.64 396.48 278.49 394.53 281.87C391.88 286.43 399.09 295.09 400.1 296.29Z" fill="#F68620"/>
<path d="M418.44 303.04C423.77 303.04 428.09 298.72 428.09 293.39C428.09 288.061 423.77 283.74 418.44 283.74C413.11 283.74 408.79 288.061 408.79 293.39C408.79 298.72 413.11 303.04 418.44 303.04Z" fill="#95281E"/>
<path d="M415.74 299.52C417.231 299.52 418.44 298.311 418.44 296.82C418.44 295.329 417.231 294.12 415.74 294.12C414.249 294.12 413.04 295.329 413.04 296.82C413.04 298.311 414.249 299.52 415.74 299.52Z" fill="white"/>
<path d="M421.78 291.41C422.912 291.41 423.83 290.492 423.83 289.36C423.83 288.227 422.912 287.31 421.78 287.31C420.648 287.31 419.73 288.227 419.73 289.36C419.73 290.492 420.648 291.41 421.78 291.41Z" fill="white"/>
<path d="M422.75 297.19C423.965 297.19 424.95 296.205 424.95 294.99C424.95 293.775 423.965 292.79 422.75 292.79C421.535 292.79 420.55 293.775 420.55 294.99C420.55 296.205 421.535 297.19 422.75 297.19Z" fill="white"/>
<path d="M414.55 291.5C415.655 291.5 416.55 290.605 416.55 289.5C416.55 288.395 415.655 287.5 414.55 287.5C413.445 287.5 412.55 288.395 412.55 289.5C412.55 290.605 413.445 291.5 414.55 291.5Z" fill="white"/>
<path d="M418.44 293.59C419.197 293.59 419.81 292.976 419.81 292.22C419.81 291.463 419.197 290.85 418.44 290.85C417.683 290.85 417.07 291.463 417.07 292.22C417.07 292.976 417.683 293.59 418.44 293.59Z" fill="white"/>
<path d="M416.371 252.799C418.367 252.31 419.213 248.769 418.262 244.891C417.311 241.013 414.922 238.266 412.927 238.755C410.931 239.245 410.085 242.785 411.036 246.664C411.987 250.542 414.376 253.289 416.371 252.799Z" fill="white"/>
<path d="M463.45 262.87C467.443 262.87 470.68 261.204 470.68 259.15C470.68 257.095 467.443 255.43 463.45 255.43C459.457 255.43 456.22 257.095 456.22 259.15C456.22 261.204 459.457 262.87 463.45 262.87Z" fill="white"/>
<path d="M487.276 335.905C489.51 334.621 489.703 330.764 487.706 327.29C485.71 323.816 482.28 322.041 480.046 323.325C477.812 324.609 477.618 328.467 479.615 331.941C481.612 335.414 485.042 337.189 487.276 335.905Z" fill="white"/>
<path d="M349.03 454.29C328.93 424.29 321.65 371.89 321.65 371.89C321.65 371.89 312.71 423.21 340.43 464.09C364.26 499.23 373.63 543.79 374.09 556.28C378.35 506.73 365.77 479.29 349.03 454.29Z" fill="#4CA84E"/>
<path d="M363.2 451.8C336.08 412.95 321.65 371.89 321.65 371.89C321.65 371.89 328.93 424.31 349.03 454.29C365.77 479.29 378.35 506.73 374.09 556.29C374.17 558.29 374.17 559.45 374.17 559.45C374.17 559.45 390.32 490.66 363.2 451.8Z" fill="#66BE64"/>
<path d="M472.69 416.54C403.96 435.96 388.99 559.44 388.99 559.44C428.99 440.44 472.69 416.54 472.69 416.54Z" fill="#66BE64"/>
<path d="M388.99 559.44C442.32 465.66 472.69 416.54 472.69 416.54C472.69 416.54 428.99 440.44 388.99 559.44Z" fill="#4CA84E"/>
<g style="mix-blend-mode:multiply">
<path d="M435.53 478.77C420.1 489.9 410.74 492.1 406.18 492.32C398.014 513.997 392.25 536.505 388.99 559.44C407.32 527.22 422.93 500.29 435.53 478.77Z" fill="#4CA84E"/>
</g>
<g style="mix-blend-mode:multiply">
<path d="M326.9 436.01C330.058 445.963 334.614 455.417 340.43 464.09C364.26 499.23 373.63 543.79 374.09 556.28C374.17 558.28 374.17 559.44 374.17 559.44C374.17 559.44 383.35 520.31 376.24 484.44C355.36 470.29 336.48 448.18 326.9 436.01Z" fill="#4CA84E"/>
</g>
</g>
<defs>
<clipPath id="clip0_4857_3626">
<rect width="619.18" height="838.58" fill="white"/>
</clipPath>
</defs>
</svg>
