<svg width="786" height="805" viewBox="0 0 786 805" fill="none" xmlns="http://www.w3.org/2000/svg">
<g clip-path="url(#clip0_4570_31345)">
<path d="M384.34 779.44C514.646 779.44 620.28 766.407 620.28 750.33C620.28 734.253 514.646 721.22 384.34 721.22C254.034 721.22 148.4 734.253 148.4 750.33C148.4 766.407 254.034 779.44 384.34 779.44Z" fill="#D0D2D3"/>
<path d="M633.58 628.44C638.58 611.35 639.97 589.12 640.86 565.44C618.19 567.32 566.38 563.27 513.99 500.88C502.91 519.57 493.18 538.61 484.82 556.07C506.95 582.33 563.07 638.07 633.58 628.44Z" fill="white"/>
<path d="M643.43 511.59C645.36 488.73 649.14 467.17 657.65 450.29C645.65 426.4 641.82 408.29 641.48 395.35C612.26 396.35 586.21 411.96 563.42 434.74C576.07 456.03 604.23 496.42 643.43 511.59Z" fill="white"/>
<path d="M446.14 627.2C439.05 633.13 431.93 634.93 425.42 634.52C422.19 647.67 419.42 669.02 426.1 692.22C488.1 737.84 535.56 735.12 569.61 714.85C537.51 712.33 486.45 696.13 446.14 627.2Z" fill="white"/>
<path d="M657.65 450.33C660.258 445.06 663.517 440.139 667.35 435.68C704.58 393.09 648.35 395.41 648.35 395.41C646.04 395.31 643.75 395.32 641.48 395.41C641.82 408.33 645.62 426.4 657.65 450.33Z" fill="#7A7176"/>
<path d="M640.86 565.47C641.52 547.77 641.92 529.29 643.43 511.59C604.23 496.42 576.06 456.03 563.43 434.74C544.75 453.41 528.26 476.86 514 500.91C566.38 563.33 618.19 567.33 640.86 565.47Z" fill="#7A7176"/>
<path d="M569.61 714.85C605.1 693.72 625.97 653.53 633.38 629.14C633.45 628.91 633.51 628.67 633.58 628.44C563.05 638.07 506.95 582.33 484.82 556.1C476.51 573.45 469.54 589.24 463.96 601.52C458.38 613.8 452.24 622.1 446.14 627.2C486.45 696.13 537.51 712.33 569.61 714.85Z" fill="#7A7176"/>
<path d="M397.79 619.94L392.53 663.94C403.125 674.039 414.326 683.484 426.07 692.22C419.36 669.02 422.16 647.67 425.39 634.52C409.88 633.53 397.79 619.94 397.79 619.94Z" fill="#7A7176"/>
<path d="M426.07 692.22C435.1 698.555 444.529 704.3 454.3 709.42C464.022 714.522 474.212 718.678 484.73 721.83C495.174 724.961 505.998 726.643 516.9 726.83C527.715 726.939 538.47 725.201 548.7 721.69C553.784 719.934 558.715 717.76 563.44 715.19C564.63 714.57 565.8 713.89 566.95 713.19C568.1 712.49 569.23 711.76 570.35 711.02L573.72 708.79C574.85 708.07 575.87 707.18 576.96 706.39C585.517 699.812 593.241 692.216 599.96 683.77C606.746 675.334 612.685 666.25 617.69 656.65C622.776 647.143 626.867 637.137 629.9 626.79C632.7 616.55 634.02 605.74 634.9 594.89C635.78 584.04 636.17 573.04 636.51 562.02C636.85 551 637.1 539.94 637.62 528.84C638.14 517.74 638.87 506.59 640.35 495.45C641.7 484.181 644.101 473.062 647.52 462.24C649.335 456.734 651.593 451.383 654.27 446.24C655.654 443.647 657.176 441.13 658.83 438.7C659.67 437.48 660.54 436.28 661.46 435.11C661.92 434.53 662.39 433.95 662.86 433.38L663.59 432.53L664.23 431.76L666.75 428.76L669.07 425.64C669.8 424.58 670.47 423.51 671.17 422.46C671.87 421.41 672.41 420.3 672.94 419.22C673.945 417.228 674.649 415.098 675.03 412.9C675.345 411.189 675.055 409.421 674.21 407.9C673.184 406.324 671.759 405.047 670.08 404.2C668.011 403.106 665.81 402.286 663.53 401.76C661.077 401.161 658.584 400.743 656.07 400.51C654.79 400.39 653.5 400.29 652.22 400.24C650.94 400.19 649.58 400.17 648.46 400.24H648.04C640.598 399.939 633.148 400.612 625.88 402.24C618.574 403.933 611.492 406.477 604.78 409.82C591.23 416.48 579.07 426.02 568.02 436.69C556.988 447.557 546.917 459.357 537.92 471.96C528.83 484.627 520.389 497.747 512.63 511.27C504.77 524.77 497.44 538.62 490.46 552.65L487.86 557.93L485.35 563.26L480.35 573.92L470.27 595.23C468.56 598.79 466.95 602.29 465.14 605.94C463.332 609.571 461.298 613.084 459.05 616.46C456.787 619.897 454.198 623.109 451.32 626.05C448.374 629.063 444.981 631.603 441.26 633.58C437.454 635.586 433.256 636.739 428.96 636.96C424.717 637.098 420.487 636.419 416.5 634.96C412.62 633.549 408.95 631.618 405.59 629.22C403.915 628.06 402.306 626.808 400.77 625.47C399.212 624.13 397.739 622.693 396.36 621.17L399.51 620.17L396.51 642.12L393.44 664.06L393.14 663.22C403.53 673.518 414.512 683.201 426.03 692.22C414.043 683.762 402.6 674.557 391.77 664.66L391.42 664.33V663.82L393.62 641.77L395.87 619.77L396.27 615.91L399.02 618.78C400.331 620.127 401.724 621.393 403.19 622.57C404.658 623.773 406.194 624.892 407.79 625.92C410.91 628.001 414.297 629.649 417.86 630.82C421.326 631.961 424.979 632.422 428.62 632.18C432.206 631.874 435.685 630.81 438.83 629.06C445.18 625.56 450.2 619.7 454.24 613.33C456.265 610.111 458.092 606.772 459.71 603.33C461.3 599.89 462.9 596.19 464.5 592.62L474.12 571.03L478.95 560.24L481.37 554.85L483.89 549.49C490.66 535.22 497.8 521.1 505.52 507.26C513.237 493.373 521.678 479.901 530.81 466.9C539.968 453.773 550.247 441.463 561.53 430.11C567.242 424.4 573.347 419.097 579.8 414.24C586.309 409.322 593.251 405.004 600.54 401.34C607.914 397.635 615.697 394.809 623.73 392.92C631.837 391.079 640.152 390.309 648.46 390.63H648.03C649.68 390.57 651.03 390.63 652.56 390.63C654.09 390.63 655.5 390.79 656.97 390.92C659.955 391.189 662.916 391.677 665.83 392.38C668.938 393.105 671.939 394.228 674.76 395.72C678.017 397.41 680.747 399.963 682.65 403.1C683.115 403.968 683.53 404.863 683.89 405.78C684.18 406.71 684.4 407.67 684.61 408.62C684.82 409.57 684.79 410.51 684.84 411.45C684.89 412.39 684.73 413.26 684.65 414.16C684.134 417.412 683.122 420.565 681.65 423.51C680.95 424.9 680.18 426.21 679.43 427.51C678.68 428.81 677.8 430.02 676.95 431.23L674.31 434.74L671.54 438.07L670.22 439.62C669.81 440.1 669.41 440.62 669.02 441.1C668.23 442.1 667.47 443.1 666.74 444.18C665.286 446.308 663.951 448.515 662.74 450.79C660.296 455.442 658.232 460.285 656.57 465.27C653.31 475.515 651.007 486.04 649.69 496.71C646.82 518.25 646.19 540.26 645.29 562.35C644.82 573.41 644.29 584.51 643.29 595.64C642.29 606.77 640.7 617.97 637.47 629C634.1 639.812 629.616 650.245 624.09 660.13C618.69 670.033 612.326 679.378 605.09 688.03C597.828 696.705 589.529 704.456 580.38 711.11C579.22 711.92 578.12 712.82 576.91 713.55L573.31 715.81C572.11 716.55 570.93 717.33 569.67 718C568.41 718.67 567.2 719.37 565.93 720C560.878 722.576 555.624 724.733 550.22 726.45C539.404 729.818 528.088 731.293 516.77 730.81C505.556 730.285 494.472 728.192 483.84 724.59C473.315 720.987 463.161 716.379 453.52 710.83C443.976 705.229 434.806 699.012 426.07 692.22Z" fill="#231F20"/>
<path d="M388.89 772.32C453.855 772.32 506.52 699.66 506.52 610.03C506.52 520.4 453.855 447.74 388.89 447.74C323.925 447.74 271.26 520.4 271.26 610.03C271.26 699.66 323.925 772.32 388.89 772.32Z" fill="#C9C3C7"/>
<path d="M388.89 772.32C453.855 772.32 506.52 699.66 506.52 610.03C506.52 520.4 453.855 447.74 388.89 447.74C323.925 447.74 271.26 520.4 271.26 610.03C271.26 699.66 323.925 772.32 388.89 772.32Z" stroke="#231F20" stroke-width="10.38" stroke-miterlimit="10"/>
<path d="M326.24 586.47C326.24 586.47 320.24 600.53 281.14 632.53C246.59 660.78 202.96 675.83 193.76 667.28C184.31 658.5 215.66 634.14 241.87 603.43C270.06 570.38 293.62 531.16 293.62 531.16" fill="#C9C3C7"/>
<path d="M326.24 586.47C325.593 588.107 324.814 589.689 323.91 591.2C323.02 592.72 322.07 594.2 321.08 595.66C320.09 597.12 319.08 598.55 317.98 599.94C316.88 601.33 315.83 602.73 314.72 604.09C312.48 606.803 310.174 609.47 307.8 612.09C306.63 613.41 305.4 614.66 304.18 615.93C302.96 617.2 301.74 618.47 300.49 619.69C295.55 624.69 290.39 629.46 285.13 634.11C279.803 638.801 274.2 643.169 268.35 647.19C262.512 651.246 256.46 654.985 250.22 658.39C243.968 661.841 237.509 664.904 230.88 667.56C224.136 670.35 217.118 672.425 209.94 673.75C208.047 674.068 206.137 674.282 204.22 674.39C202.15 674.518 200.072 674.431 198.02 674.13C196.847 673.949 195.694 673.65 194.58 673.24C193.253 672.762 192.018 672.058 190.93 671.16C189.669 670.114 188.677 668.78 188.04 667.27C187.447 665.789 187.197 664.192 187.31 662.6C187.534 660.217 188.238 657.903 189.38 655.8C190.29 654.062 191.323 652.391 192.47 650.8C194.608 647.839 196.911 645.001 199.37 642.3C204.14 636.99 209.05 632 213.96 627.05C223.75 617.14 233.51 607.42 242.5 596.97C251.49 586.52 260.3 575.78 268.77 564.78C277.24 553.78 285.49 542.56 293.62 531.22C287.23 543.64 280 555.61 272.5 567.41C265 579.21 256.9 590.66 248.18 601.68C239.46 612.7 229.95 623.15 220.39 633.26C215.65 638.35 210.84 643.35 206.39 648.48C204.19 651.04 202.04 653.63 200.21 656.24C199.334 657.475 198.542 658.768 197.84 660.11C197.324 661.072 196.986 662.118 196.84 663.2C196.817 663.349 196.817 663.501 196.84 663.65C196.905 663.735 196.979 663.812 197.06 663.88C197.802 664.375 198.653 664.68 199.54 664.77C202.5 665.105 205.493 664.994 208.42 664.44C214.946 663.242 221.34 661.41 227.51 658.97C240.185 653.997 252.32 647.748 263.73 640.32C269.46 636.6 274.98 632.63 280.37 628.32C283.08 626.18 285.87 624.12 288.54 621.94L292.61 618.72L296.61 615.45C297.97 614.37 299.27 613.23 300.61 612.12C301.95 611.01 303.24 609.88 304.54 608.74C307.173 606.493 309.747 604.187 312.26 601.82C314.76 599.43 317.26 597.05 319.64 594.53C322.067 592.037 324.275 589.341 326.24 586.47Z" fill="#221F1F"/>
<path d="M388.89 698.28C438.021 698.28 477.85 634.624 477.85 556.1C477.85 477.576 438.021 413.92 388.89 413.92C339.759 413.92 299.93 477.576 299.93 556.1C299.93 634.624 339.759 698.28 388.89 698.28Z" fill="white"/>
<path d="M373.18 705.65C373.18 705.65 230.61 631.93 205.97 683.38C178.97 739.79 310.37 750.96 321.58 782.45C332.79 813.94 364.72 792.45 367.31 770.16C369.9 747.87 361.76 727.16 328.31 710.26" fill="#C9C3C7"/>
<path d="M373.18 705.65C354.3 697.46 335.18 689.94 315.71 683.59C305.99 680.4 296.2 677.49 286.31 675.13C276.518 672.677 266.562 670.933 256.52 669.91C251.596 669.425 246.642 669.298 241.7 669.53C236.921 669.689 232.179 670.431 227.58 671.74C226.45 672.04 225.4 672.48 224.32 672.85C223.24 673.22 222.23 673.73 221.27 674.28C220.31 674.83 219.37 675.4 218.43 675.97C217.551 676.586 216.71 677.254 215.91 677.97C214.318 679.38 212.943 681.018 211.83 682.83L211.4 683.5L211.03 684.22C210.78 684.7 210.52 685.15 210.29 685.66C209.86 686.72 209.35 687.76 209.02 688.83C208.255 690.883 207.744 693.023 207.5 695.2C207.234 697.279 207.284 699.386 207.65 701.45C208.497 705.666 210.411 709.595 213.21 712.86C214.681 714.636 216.275 716.307 217.98 717.86C219.74 719.42 221.61 720.91 223.56 722.33C227.577 725.164 231.772 727.736 236.12 730.03C244.89 734.77 254.2 738.82 263.62 742.78C273.04 746.74 282.62 750.58 292.12 754.91C296.87 757.09 301.61 759.39 306.27 762.03C311.166 764.68 315.689 767.969 319.72 771.81C321.967 773.977 323.801 776.535 325.13 779.36C325.86 781.13 326.13 781.97 326.57 783.08C326.76 783.63 327.04 784.08 327.26 784.62C327.48 785.129 327.727 785.627 328 786.11C330.07 790 333 792.94 336.69 793.9C340.38 794.86 344.69 793.97 348.62 791.79C352.642 789.493 356.126 786.363 358.84 782.61C361.638 778.89 363.519 774.563 364.33 769.98C365.072 765.134 365.177 760.213 364.64 755.34C364.1 750.466 362.748 745.717 360.64 741.29C360.136 740.163 359.565 739.068 358.93 738.01L357.93 736.42C357.631 735.876 357.297 735.351 356.93 734.85L354.74 731.85L352.31 728.98C351.493 728.021 350.625 727.106 349.71 726.24C348.846 725.316 347.931 724.442 346.97 723.62L344.1 721.11C343.1 720.32 342.1 719.57 341.1 718.78C339.1 717.16 336.94 715.78 334.83 714.35C333.83 713.61 332.65 713.01 331.56 712.35L328.27 710.35C337.66 714.52 346.76 719.77 354.42 727.02L357.22 729.81L359.77 732.86C360.201 733.366 360.601 733.897 360.97 734.45L362.11 736.09C362.88 737.185 363.581 738.328 364.21 739.51C366.852 744.224 368.694 749.343 369.66 754.66C370.557 759.982 370.742 765.399 370.21 770.77C369.559 776.413 367.57 781.82 364.41 786.54C361.341 791.319 357.24 795.351 352.41 798.34C349.874 799.904 347.106 801.055 344.21 801.75C341.12 802.491 337.903 802.522 334.8 801.84C331.641 801.111 328.707 799.625 326.25 797.51C323.933 795.525 321.975 793.158 320.46 790.51C320.09 789.89 319.756 789.249 319.46 788.59C319.15 787.94 318.77 787.3 318.52 786.64C317.99 785.36 317.36 783.8 317.08 783.2C316.141 781.399 314.884 779.783 313.37 778.43C309.834 775.281 305.912 772.593 301.7 770.43C297.37 768.09 292.81 765.98 288.18 763.96C269.58 755.89 249.96 749.2 231.26 739.23C226.521 736.702 221.952 733.869 217.58 730.75C215.38 729.14 213.23 727.41 211.15 725.55C209.044 723.639 207.089 721.57 205.3 719.36C201.462 714.706 198.88 709.146 197.8 703.21C197.316 700.192 197.275 697.12 197.68 694.09C198.053 691.161 198.785 688.29 199.86 685.54C200.33 684.16 200.97 682.89 201.55 681.59C201.86 680.93 202.24 680.27 202.6 679.59L203.14 678.59L203.76 677.65C205.402 675.115 207.403 672.831 209.7 670.87C210.831 669.893 212.02 668.984 213.26 668.15C214.503 667.361 215.788 666.64 217.11 665.99C218.4 665.31 219.76 664.82 221.11 664.27C222.46 663.72 223.81 663.32 225.18 663C230.517 661.617 236.007 660.912 241.52 660.9C246.87 660.853 252.217 661.187 257.52 661.9C278.52 664.7 298.31 671.33 317.52 678.85C327.11 682.72 336.58 686.85 345.87 691.33C355.16 695.81 364.26 700.49 373.18 705.65Z" fill="#231F20"/>
<path d="M404.6 707.89C404.6 707.89 547.16 634.17 571.81 685.62C598.81 742.03 467.41 753.2 456.2 784.68C444.99 816.16 413.06 794.68 410.47 772.4C407.88 750.12 416.02 729.4 449.47 712.5" fill="#C9C3C7"/>
<path d="M404.6 707.89C413.51 702.73 422.69 698.03 431.98 693.54C441.27 689.05 450.75 684.94 460.34 681.06C479.59 673.54 499.4 666.92 520.34 664.12C525.642 663.402 530.99 663.068 536.34 663.12C541.853 663.133 547.343 663.839 552.68 665.22C554.05 665.55 555.4 666.05 556.75 666.49C558.1 666.93 559.44 667.49 560.75 668.22C562.072 668.87 563.357 669.591 564.6 670.38C565.84 671.214 567.029 672.123 568.16 673.1C570.459 675.056 572.457 677.341 574.09 679.88L574.72 680.82L575.26 681.82C575.61 682.48 576 683.14 576.31 683.82C576.89 685.13 577.52 686.4 578 687.77C579.074 690.523 579.807 693.398 580.18 696.33C580.582 699.319 580.544 702.351 580.07 705.33C578.996 711.266 576.417 716.826 572.58 721.48C570.791 723.69 568.835 725.759 566.73 727.67C564.675 729.507 562.529 731.239 560.3 732.86C555.927 735.981 551.357 738.816 546.62 741.35C527.92 751.35 508.3 758.01 489.7 766.08C485.07 768.08 480.5 770.2 476.18 772.55C471.968 774.713 468.047 777.401 464.51 780.55C462.997 781.909 461.741 783.528 460.8 785.33C460.52 785.93 459.88 787.49 459.36 788.76C459.11 789.43 458.73 790.07 458.42 790.76C458.105 791.419 457.755 792.06 457.37 792.68C455.849 795.324 453.892 797.69 451.58 799.68C449.12 801.791 446.187 803.276 443.03 804.01C439.927 804.693 436.708 804.659 433.62 803.91C430.725 803.215 427.957 802.068 425.42 800.51C420.567 797.529 416.448 793.493 413.37 788.7C410.21 783.983 408.221 778.58 407.57 772.94C407.028 767.57 407.213 762.151 408.12 756.83C409.086 751.513 410.927 746.394 413.57 741.68C414.193 740.494 414.894 739.352 415.67 738.26L416.81 736.62C417.173 736.063 417.574 735.532 418.01 735.03L420.56 731.98L423.36 729.18C431.02 721.94 440.12 716.68 449.51 712.52L446.21 714.52C445.13 715.2 443.99 715.8 442.94 716.52C440.84 717.99 438.66 719.33 436.68 720.95C435.68 721.73 434.68 722.48 433.68 723.28L430.81 725.78C429.853 726.607 428.939 727.481 428.07 728.4C427.2 729.32 426.24 730.15 425.46 731.14L423.03 734.01L420.85 737.01C420.481 737.506 420.147 738.028 419.85 738.57L418.85 740.17C418.215 741.228 417.644 742.324 417.14 743.45C415.031 747.877 413.678 752.626 413.14 757.5C412.604 762.373 412.708 767.295 413.45 772.14C414.261 776.72 416.142 781.044 418.94 784.76C421.65 788.513 425.131 791.643 429.15 793.94C433.06 796.13 437.45 797.08 441.09 796.06C444.73 795.04 447.71 792.16 449.78 788.27C450.049 787.787 450.293 787.289 450.51 786.78C450.768 786.276 450.998 785.759 451.2 785.23C451.63 784.12 451.92 783.28 452.65 781.52C453.982 778.694 455.815 776.133 458.06 773.96C462.088 770.119 466.612 766.833 471.51 764.19C476.17 761.54 480.91 759.25 485.66 757.07C495.17 752.74 504.75 748.93 514.16 744.94C523.57 740.95 532.89 736.94 541.66 732.19C546.01 729.896 550.206 727.321 554.22 724.48C556.17 723.07 558.04 721.58 559.8 720.02C561.504 718.466 563.098 716.796 564.57 715.02C567.366 711.757 569.28 707.832 570.13 703.62C570.486 701.555 570.536 699.45 570.28 697.37C570.035 695.19 569.524 693.047 568.76 690.99C568.43 689.93 567.92 688.88 567.49 687.83C567.26 687.32 566.99 686.83 566.75 686.38L566.38 685.67L565.95 685C564.836 683.182 563.458 681.541 561.86 680.13C561.059 679.415 560.218 678.747 559.34 678.13C558.428 677.52 557.483 676.959 556.51 676.45C555.51 675.89 554.51 675.45 553.46 675.02C552.41 674.59 551.33 674.2 550.2 673.9C545.599 672.601 540.858 671.859 536.08 671.69C531.137 671.468 526.185 671.595 521.26 672.07C511.217 673.106 501.261 674.864 491.47 677.33C481.58 679.69 471.78 682.6 462.07 685.79C442.61 692.18 423.48 699.69 404.6 707.89Z" fill="#231F20"/>
<path d="M5.06982 216.51C9.52982 189.02 36.6899 175.34 36.6899 175.34C51.0099 203.2 66.6898 218.11 74.0698 224.15C76.1525 222.539 78.6347 221.526 81.2498 221.22C84.8641 220.805 88.5028 221.759 91.4492 223.893C94.3957 226.027 96.4365 229.187 97.1699 232.75C179.17 242.19 208.94 210.47 209.42 209.94C210.663 208.536 212.409 207.678 214.281 207.55C216.152 207.423 217.998 208.037 219.42 209.26C220.85 210.5 221.73 212.257 221.865 214.146C222 216.034 221.379 217.899 220.14 219.33C219.14 220.52 199.95 241.85 151.14 247.47C135.25 249.3 116.2 249.47 93.6199 246.72C93.2821 246.669 92.948 246.595 92.6199 246.5C90.3716 248.535 87.5425 249.815 84.5298 250.16C81.2165 250.542 77.8727 249.773 75.0583 247.984C72.2439 246.194 70.1298 243.492 69.0698 240.33C30.9398 239.15 5.06982 216.51 5.06982 216.51Z" fill="#FFCB01"/>
<path d="M74.0698 224.15C75.9209 222.429 78.2005 221.238 80.6699 220.7C83.2247 220.142 85.8802 220.252 88.3799 221.02C90.9387 221.84 93.2497 223.291 95.0999 225.24C96.9781 227.25 98.3163 229.703 98.9897 232.37L97.3899 230.91C108.98 231.48 120.54 232.15 132.05 231.49C137.82 231.42 143.53 230.76 149.25 230.23C152.08 229.78 154.92 229.39 157.75 228.98C159.18 228.82 160.56 228.45 161.97 228.18L166.18 227.34C167.586 227.076 168.977 226.743 170.35 226.34L174.5 225.28C175.9 224.96 177.23 224.47 178.59 224.04L182.67 222.72C188.033 220.805 193.242 218.482 198.25 215.77L201.92 213.61C203.1 212.83 204.31 212.07 205.43 211.22C206.576 210.402 207.663 209.503 208.68 208.53C209.98 207.346 211.615 206.595 213.36 206.38C215.053 206.177 216.768 206.502 218.27 207.31C219.721 208.096 220.887 209.321 221.6 210.81C222.301 212.231 222.529 213.84 222.25 215.4C221.986 216.896 221.258 218.271 220.17 219.33C220.993 218.199 221.454 216.846 221.491 215.448C221.529 214.05 221.141 212.673 220.38 211.5C219.68 210.442 218.674 209.623 217.497 209.152C216.32 208.68 215.026 208.578 213.79 208.86C212.627 209.14 211.58 209.772 210.79 210.67L210.06 211.5L209.24 212.32C208.71 212.88 208.13 213.32 207.58 213.87C206.45 214.87 205.27 215.8 204.09 216.75C202.91 217.7 201.67 218.53 200.42 219.35L196.59 221.71C195.29 222.45 193.96 223.13 192.65 223.85C191.34 224.57 189.98 225.2 188.65 225.85C187.32 226.5 185.92 227.08 184.54 227.65L180.35 229.2C178.94 229.71 177.55 230.27 176.12 230.66L171.83 231.94C170.4 232.36 168.97 232.78 167.51 233.06C164.6 233.68 161.7 234.42 158.77 234.89C155.84 235.36 152.9 235.78 149.95 236.18C144.04 236.64 138.14 237.28 132.22 237.18H127.78H125.56L123.35 237.06C120.4 236.9 117.46 236.77 114.51 236.58C111.56 236.39 108.65 235.99 105.72 235.66C102.79 235.33 99.8797 234.95 96.9697 234.54L95.5898 234.35L95.3699 233.08C95.0389 230.924 94.1609 228.89 92.8198 227.17C91.466 225.373 89.6811 223.945 87.6299 223.02C85.5005 222.089 83.1785 221.685 80.8599 221.84C78.4415 222.042 76.1099 222.836 74.0698 224.15Z" fill="#231F20"/>
<path d="M69.0698 240.33C63.2087 240.873 57.307 240.806 51.4597 240.13C48.4597 239.86 45.5999 239.27 42.6699 238.72C41.2199 238.42 39.7798 238.03 38.3298 237.72L36.1699 237.16L34.0298 236.49C31.1598 235.67 28.3898 234.57 25.5798 233.49L21.4697 231.7C20.0997 231.09 18.7699 230.4 17.4099 229.7C14.7399 228.34 12.1298 226.85 9.5498 225.28C8.2698 224.47 7.00977 223.65 5.75977 222.77C5.12977 222.34 4.50989 221.89 3.88989 221.43L2.94971 220.72C2.62971 220.48 2.32971 220.25 1.94971 219.94L-0.050293 218.27L0.429932 215.71C0.659932 214.51 0.889893 213.3 1.13989 212.1L1.51978 210.29C1.67978 209.7 1.87981 209.12 2.05981 208.53L3.17993 205.02L4.63989 201.65C6.67194 197.225 9.26668 193.081 12.3599 189.32C15.3918 185.608 18.7999 182.22 22.5298 179.21C24.3898 177.73 26.2898 176.3 28.2898 175C29.2898 174.35 30.2898 173.72 31.2898 173.11C32.2898 172.5 33.2898 171.94 34.5698 171.32L38.5698 169.32L40.4897 173.32C42.6897 177.87 44.9499 182.39 47.4199 186.8C49.8899 191.21 52.4197 195.58 55.2097 199.8C57.9997 204.02 60.8897 208.23 63.9797 212.3C67.0697 216.37 70.3799 220.3 73.9199 224.13C69.4828 221.352 65.3029 218.182 61.4299 214.66C57.5236 211.134 53.8492 207.36 50.4299 203.36C47.0209 199.346 43.8232 195.157 40.8499 190.81C37.8499 186.47 35.1698 181.94 32.5598 177.35L38.5598 179.29C37.8298 179.71 36.8798 180.29 36.0298 180.85C35.1798 181.41 34.3097 182.01 33.4697 182.64C31.7797 183.87 30.1298 185.18 28.5398 186.53C25.3966 189.25 22.4989 192.242 19.8799 195.47C17.3016 198.639 15.1033 202.099 13.3298 205.78C12.9298 206.71 12.4898 207.62 12.0598 208.54L11.0598 211.39C10.8998 211.87 10.7198 212.34 10.5698 212.82L10.2297 214.29C9.99974 215.29 9.74977 216.29 9.50977 217.23L7.97974 213L8.66992 213.6C8.90992 213.82 9.17994 214.03 9.43994 214.24C9.95994 214.67 10.4898 215.1 11.0398 215.51C12.1098 216.37 13.2499 217.15 14.3599 217.99C15.4699 218.83 16.6398 219.58 17.7998 220.35C18.9598 221.12 20.1398 221.87 21.3398 222.59C26.1139 225.551 31.0855 228.18 36.2197 230.46L38.1399 231.34L40.1399 232.13C41.4499 232.64 42.7498 233.22 44.0798 233.71C46.7598 234.6 49.4199 235.71 52.1799 236.39C53.5499 236.78 54.9098 237.25 56.2998 237.58L60.4897 238.58C61.8897 238.96 63.3097 239.18 64.7297 239.46C66.1497 239.74 67.6698 240.05 69.0698 240.33Z" fill="#231F20"/>
<path d="M220.15 219.33C218.415 221.568 216.466 223.631 214.33 225.49C213.27 226.43 212.183 227.347 211.07 228.24C209.93 229.08 208.81 229.96 207.64 230.77C202.962 234.034 197.994 236.863 192.8 239.22C182.388 243.926 171.41 247.261 160.14 249.14C148.912 251.056 137.528 251.903 126.14 251.67C120.47 251.54 114.81 251.23 109.14 250.67C106.32 250.383 103.51 250.05 100.71 249.67C99.3097 249.48 97.9098 249.31 96.5198 249.09L94.4299 248.76L93.3799 248.59L92.0999 248.26L93.8499 247.84C91.7726 249.567 89.2982 250.749 86.6499 251.28C85.353 251.534 84.0279 251.615 82.7097 251.52C81.4079 251.442 80.1212 251.2 78.8799 250.8C76.4427 250.011 74.2468 248.614 72.4998 246.74C70.8222 244.935 69.6406 242.727 69.0698 240.33C69.5692 241.412 70.1828 242.438 70.8999 243.39C71.6289 244.299 72.4499 245.13 73.3499 245.87C75.1321 247.282 77.2274 248.246 79.4597 248.68C81.6194 249.092 83.8469 248.972 85.9497 248.33C87.9912 247.711 89.847 246.594 91.3499 245.08L91.9497 244.47L93.0898 244.66L93.8599 244.79L94.9099 244.86L96.9897 245C98.3797 245.12 99.7699 245.19 101.16 245.29C103.94 245.457 106.72 245.59 109.5 245.69C115.05 245.93 120.6 246.03 126.14 245.92C131.68 245.81 137.21 245.65 142.71 245.23C145.47 245.01 148.22 244.79 150.96 244.49L159.16 243.4C170.073 241.815 180.796 239.118 191.16 235.35L193.11 234.64C193.75 234.4 194.38 234.13 195.02 233.87C196.29 233.34 197.59 232.87 198.84 232.27L202.59 230.51L206.29 228.63C211.244 226.06 215.894 222.941 220.15 219.33Z" fill="#231F20"/>
<path d="M679.96 162.51L392.04 4.48999L102.1 143.87L388.17 296.95L679.96 162.51Z" fill="#103369"/>
<path d="M682.68 186.14L394.76 28.12L104.82 167.5L390.89 320.58L682.68 186.14Z" fill="#0A2A59"/>
<path d="M679.96 162.51L682.68 186.14L394.76 28.12L392.04 4.48999L679.96 162.51Z" fill="#266DBD"/>
<path d="M392.04 4.48999L102.1 143.87L104.82 167.5L394.76 28.12L392.04 4.48999Z" fill="#1752A7"/>
<path d="M230.19 180.14C230.55 140.86 302.96 109.67 391.94 110.48C480.92 111.29 552.74 143.8 552.38 183.08L551.49 281.46L229.29 278.52L230.19 180.14Z" fill="#1752A7"/>
<path d="M551.324 281.504C551.681 242.222 479.846 209.723 390.877 208.915C301.907 208.108 229.494 239.298 229.138 278.58C228.781 317.863 300.616 350.362 389.586 351.17C478.555 351.977 550.968 320.787 551.324 281.504Z" fill="#266DBD"/>
<path d="M539.559 285.44C539.877 250.372 473.491 221.338 391.281 220.592C309.072 219.846 242.169 247.67 241.851 282.738C241.533 317.807 307.919 346.84 390.129 347.587C472.339 348.333 539.241 320.509 539.559 285.44Z" fill="#0A2A59"/>
<path d="M104.82 167.49C129.17 179.29 153.31 191.49 177.47 203.65L213.6 222.08C225.6 228.22 237.6 234.48 249.6 240.68L267.6 249.99L285.6 259.4L321.52 278.23L393.16 316.23L388.81 316.1L461.87 282.74L498.49 266.24L516.8 258.01L535.16 249.86C547.41 244.45 559.62 238.97 571.89 233.61L608.7 217.54C633.3 206.94 657.88 196.32 682.7 186.1C658.83 198.28 634.79 210.1 610.7 221.88L574.56 239.41C562.56 245.26 550.41 250.98 538.34 256.77L520.23 265.43L502.07 274.04L465.74 291.16L392.9 325.02L390.69 326.02L388.55 324.87L317.16 286.36L281.56 266.93L263.77 257.2L246.07 247.4C234.25 240.83 222.4 234.34 210.6 227.72L175.22 207.88C151.68 194.53 128.14 181.21 104.82 167.49Z" fill="#231F20"/>
<path d="M682.68 186.14C658.16 173.93 633.86 161.32 609.54 148.74L573.16 129.74L536.88 110.52L518.74 100.89L500.66 91.1699L464.5 71.73L392.41 32.4299L396.87 32.5499L324.27 67.1499C299.99 78.5299 275.78 90.05 251.43 101.26C239.26 106.88 227.12 112.58 214.92 118.13L178.33 134.83C153.88 145.83 129.44 156.89 104.82 167.53C128.52 154.95 152.4 142.76 176.27 130.53L212.17 112.38C224.17 106.32 236.17 100.38 248.17 94.38C272.17 82.38 296.26 70.6499 320.3 58.7999L392.67 23.71L394.93 22.61L397.13 23.83L469 63.5499L504.82 83.5499L522.73 93.5499L540.58 103.68L576.28 123.96L611.88 144.42C635.52 158.33 659.21 172.01 682.68 186.14Z" fill="#231F20"/>
<path d="M229.29 278.52C228.43 254.52 228.01 230.52 227.56 206.58L227.32 188.58C227.32 185.58 227.21 182.64 227.23 179.58C227.25 177.94 227.38 176.303 227.62 174.68L228.02 172.25C228.22 171.46 228.44 170.67 228.66 169.88C229.557 166.743 230.819 163.723 232.42 160.88C233.25 159.51 234.11 158.14 235.01 156.81C235.91 155.48 236.9 154.23 237.93 153.03C242.034 148.269 246.682 144.006 251.78 140.33C261.854 133.183 272.825 127.393 284.41 123.11C295.833 118.764 307.57 115.293 319.52 112.73C322.52 112.06 325.52 111.5 328.52 110.92C331.52 110.34 334.52 109.92 337.52 109.45C340.52 108.98 343.52 108.56 346.52 108.23L351.05 107.69L355.58 107.25C367.687 106.11 379.82 105.577 391.98 105.65C404.14 105.723 416.26 106.477 428.34 107.91L432.87 108.43L437.39 109.05C440.39 109.44 443.39 109.96 446.39 110.44C449.39 110.92 452.39 111.53 455.39 112.07C458.39 112.61 461.39 113.31 464.32 114.07C476.22 116.843 487.89 120.52 499.23 125.07C510.736 129.561 521.599 135.55 531.54 142.88C536.571 146.668 541.142 151.031 545.16 155.88C546.16 157.11 547.06 158.45 548.01 159.72C548.96 160.99 549.72 162.45 550.53 163.84C552.075 166.69 553.283 169.711 554.13 172.84C554.33 173.63 554.54 174.42 554.72 175.22L555.07 177.65C555.29 179.277 555.39 180.918 555.37 182.56C555.37 185.65 555.2 188.56 555.12 191.56L554.55 209.56C553.66 233.56 552.8 257.5 551.55 281.46C550.68 257.46 550.26 233.46 549.8 209.52L549.56 191.52C549.56 188.52 549.56 185.52 549.41 182.58C549.361 181.238 549.217 179.902 548.98 178.58L548.61 176.58L548.02 174.58C546.289 169.308 543.483 164.453 539.78 160.32C536.003 156.042 531.733 152.225 527.06 148.95C522.313 145.622 517.326 142.651 512.14 140.06C509.56 138.72 506.9 137.51 504.25 136.29C501.6 135.07 498.88 133.96 496.12 132.96C485.121 128.772 473.818 125.429 462.31 122.96C439.188 117.961 415.606 115.401 391.95 115.32C368.299 114.972 344.677 117.1 321.47 121.67C309.916 123.91 298.549 127.029 287.47 131C284.7 132 282.01 133.1 279.29 134.19C276.57 135.28 273.94 136.52 271.29 137.81C266.053 140.305 261.009 143.186 256.2 146.43C251.471 149.624 247.135 153.363 243.28 157.57C239.503 161.638 236.606 166.441 234.77 171.68L234.15 173.68L233.74 175.68C233.476 177 233.306 178.336 233.23 179.68C233.08 182.58 233.03 185.68 232.93 188.68L232.36 206.68C231.45 230.59 230.59 254.56 229.29 278.52Z" fill="#231F20"/>
<path d="M551.49 281.46C524.62 283.25 497.76 284.02 470.9 284.56C444.04 285.1 417.19 285.12 390.34 284.88C363.49 284.64 336.65 284.06 309.81 283.1C282.97 282.14 256.12 280.82 229.29 278.52C256.16 276.72 283.02 275.94 309.88 275.42C336.74 274.9 363.58 274.86 390.43 275.11C417.28 275.36 444.13 275.94 470.97 276.9C497.81 277.86 524.65 279.18 551.49 281.46Z" fill="#231F20"/>
<path d="M104.82 167.49L101.45 143.94L101.39 143.5L101.82 143.28C125.7 131.087 149.633 119 173.62 107.02L209.62 89.08L245.62 71.2699L281.72 53.5599L317.85 35.9099L390.26 0.909912L392.1 0.0198975L393.9 1.0199L465.81 40.6599L537.52 80.6599L573.3 100.8L609.07 121.03C620.983 127.77 632.867 134.563 644.72 141.41L680.28 161.93L680.59 162.11V162.43L682.66 186.14L679.29 162.58L679.62 163.08L643.21 144.08C631.083 137.727 618.97 131.35 606.87 124.95L570.61 105.71L534.42 86.33L462.17 47.33L390.07 7.97998L393.72 8.07996L321.16 42.75L284.8 59.9399L248.42 77.08L211.99 94.08L175.5 110.99C151.173 122.243 126.787 133.387 102.34 144.42L102.7 143.76L104.82 167.49Z" fill="#231F20"/>
<path d="M283.8 231.75C283.8 231.75 197.8 145.75 157.73 172.75C117.66 199.75 213.84 311.2 213.84 311.2L283.8 231.75Z" fill="#C6BFC3"/>
<path d="M270.9 239.33C270.9 239.33 192.71 170.53 173.03 186.56C153.35 202.59 218.94 295.87 218.94 295.87L270.9 239.33Z" fill="#7A7176"/>
<path d="M485.7 231.75C485.7 231.75 571.7 145.75 611.76 172.75C651.82 199.75 555.65 311.2 555.65 311.2L485.7 231.75Z" fill="#C6BFC3"/>
<path d="M283.8 231.75C274.09 223.34 264.03 215.39 253.8 207.75C248.66 203.96 243.4 200.35 238.11 196.82C232.82 193.29 227.4 189.98 221.88 186.9C216.404 183.812 210.77 181.015 205 178.52C199.353 176.058 193.474 174.169 187.45 172.88C181.55 171.68 175.55 171.26 170.06 172.39C167.364 172.932 164.765 173.876 162.35 175.19C160.055 176.391 158.044 178.068 156.45 180.11C153.45 184.05 152.45 189.49 152.83 195.22C153.373 201.173 154.68 207.031 156.72 212.65C158.805 218.499 161.243 224.216 164.02 229.77C166.78 235.39 169.82 240.9 173.02 246.34C179.41 257.24 186.46 267.82 193.8 278.2C201.14 288.58 208.87 298.77 216.8 308.61H210.97C216.81 302.29 222.64 295.95 228.56 289.61L246.56 270.61L283.8 231.75ZM283.8 231.75L267.67 251.81L251.12 272.33L234.12 293.04C228.39 299.96 222.56 306.86 216.74 313.77L213.92 317.12L210.92 313.74C206.57 308.86 202.43 303.95 198.37 298.9C194.31 293.85 190.32 288.79 186.47 283.59C178.73 273.22 171.4 262.51 164.68 251.36C157.96 240.21 151.87 228.55 147.51 215.88C145.187 209.419 143.764 202.669 143.28 195.82C143.058 192.166 143.361 188.498 144.18 184.93C145.068 181.134 146.775 177.578 149.18 174.51C151.6 171.512 154.63 169.065 158.07 167.33C161.327 165.624 164.834 164.446 168.46 163.84C175.394 162.803 182.466 163.202 189.24 165.01C195.707 166.685 201.988 169.007 207.99 171.94C213.899 174.769 219.624 177.969 225.13 181.52C236.014 188.548 246.374 196.355 256.13 204.88C261.03 209.08 265.77 213.45 270.4 217.93C275.03 222.41 279.5 226.97 283.8 231.75Z" fill="#231F20"/>
<path d="M485.7 231.75C489.99 226.97 494.5 222.37 499.13 217.91C503.76 213.45 508.5 209.06 513.4 204.86C523.156 196.335 533.516 188.528 544.4 181.5C549.906 177.949 555.63 174.749 561.54 171.92C567.541 168.987 573.823 166.665 580.29 164.99C587.063 163.182 594.136 162.783 601.07 163.82C604.696 164.426 608.203 165.604 611.46 167.31C614.894 169.04 617.921 171.481 620.34 174.47C622.745 177.538 624.452 181.094 625.34 184.89C626.159 188.458 626.462 192.126 626.24 195.78C625.756 202.629 624.333 209.379 622.01 215.84C617.65 228.51 611.48 240.12 604.84 251.32C598.2 262.52 590.79 273.18 583.05 283.55C579.2 288.75 575.21 293.84 571.15 298.86C567.09 303.88 562.95 308.86 558.6 313.7L555.6 317.08L552.78 313.73C546.96 306.82 541.13 299.92 535.4 293L518.4 272.29L501.85 251.81L485.7 231.75ZM485.7 231.75L522.97 270.64L540.97 289.64C546.89 295.96 552.72 302.3 558.56 308.64H552.73C560.67 298.8 568.38 288.58 575.73 278.23C583.08 267.88 590.12 257.23 596.51 246.37C599.71 240.93 602.75 235.42 605.51 229.8C608.286 224.246 610.724 218.529 612.81 212.68C614.848 207.06 616.159 201.203 616.71 195.25C617.1 189.52 616.06 184.08 613.08 180.14C611.486 178.098 609.475 176.421 607.18 175.22C604.765 173.906 602.165 172.962 599.47 172.42C593.98 171.29 587.98 171.71 582.08 172.91C576.056 174.199 570.177 176.088 564.53 178.55C558.76 181.045 553.125 183.842 547.65 186.93C542.13 190.01 536.72 193.317 531.42 196.85C526.13 200.38 520.87 203.99 515.73 207.78C505.46 215.39 495.4 223.33 485.7 231.75Z" fill="#231F20"/>
<path d="M498.59 239.33C498.59 239.33 576.78 170.53 596.46 186.56C616.14 202.59 550.55 295.87 550.55 295.87L498.59 239.33Z" fill="#7A7176"/>
<path d="M384.75 199.71C177.07 202.07 183.07 392 183.07 392C207.18 527.66 384.75 512.33 384.75 512.33C384.75 512.33 562.32 527.67 586.47 392.01C586.47 392 592.44 202.07 384.75 199.71Z" fill="#C9C3C7"/>
<path d="M535.65 363.54C535.65 363.54 608.85 375.9 634.45 313.67C634.45 313.67 689.93 387.16 605.78 425.67C605.78 425.67 620.16 437.21 635 427.67C635 427.67 665.33 493.91 510.57 489.77L535.65 363.54Z" fill="white"/>
<path d="M605.78 425.63C607.936 427.072 610.264 428.238 612.71 429.1C615.118 429.962 617.637 430.481 620.19 430.64C620.82 430.64 621.45 430.74 622.08 430.69L623.97 430.58C624.59 430.51 625.21 430.38 625.82 430.28C626.13 430.22 626.44 430.19 626.74 430.11L627.64 429.84C630.031 429.143 632.298 428.077 634.36 426.68L635.52 425.96L636.07 427.18C637.491 430.418 638.408 433.854 638.79 437.37C639.19 440.897 639.048 444.465 638.37 447.95C637.673 451.444 636.46 454.814 634.77 457.95C634.36 458.75 633.85 459.48 633.39 460.25L632.67 461.39C632.43 461.76 632.14 462.1 631.87 462.46L630.24 464.58C629.66 465.26 629.03 465.88 628.43 466.58C623.462 471.6 617.659 475.718 611.28 478.75C605.052 481.815 598.546 484.279 591.85 486.11C578.56 489.86 564.92 491.8 551.32 492.96C537.72 494.12 524.06 494.28 510.45 494.15L505.28 494.09L506.28 488.9L512.28 457.29L518.46 425.71L524.63 394.13L531 362.59L531.91 358.07L536.49 358.81C537.49 358.97 538.73 359.12 539.87 359.24C541.01 359.36 542.24 359.46 543.42 359.54C545.8 359.71 548.2 359.76 550.59 359.79C555.379 359.799 560.164 359.522 564.92 358.96C574.384 357.935 583.642 355.505 592.39 351.75C601.052 348.007 608.897 342.601 615.48 335.84C616.34 335.04 617.09 334.13 617.87 333.25C618.65 332.37 619.47 331.51 620.17 330.56L622.31 327.74L622.85 327.04L623.34 326.3L624.34 324.81C626.94 320.821 629.205 316.624 631.11 312.26L633.83 306.38L637.46 311.44C638.41 312.77 639.16 313.95 639.96 315.22C640.76 316.49 641.49 317.74 642.22 319.02C643.66 321.58 644.99 324.19 646.22 326.84C648.709 332.156 650.717 337.685 652.22 343.36C653.772 349.051 654.691 354.897 654.96 360.79C655.241 366.711 654.668 372.642 653.26 378.4C651.766 384.119 649.405 389.575 646.26 394.58L645.07 396.44L644.48 397.36C644.27 397.66 644.03 397.94 643.81 398.23L641.12 401.68C640.18 402.79 639.12 403.81 638.12 404.88C637.62 405.4 637.12 405.94 636.62 406.45L634.99 407.89C626.36 415.471 616.462 421.473 605.75 425.62C615.87 420.45 625.41 414.07 633.2 406.05C641.05 398.211 646.446 388.256 648.73 377.4C650.79 366.66 649.58 355.51 646.27 345.06C644.61 339.827 642.537 334.734 640.07 329.83C638.81 327.38 637.48 324.97 636.07 322.62C635.35 321.45 634.62 320.29 633.86 319.15C633.1 318.01 632.3 316.85 631.56 315.89L637.91 315.07C635.97 319.923 633.628 324.606 630.91 329.07C628.201 333.565 625.034 337.768 621.46 341.61C614.253 349.306 605.606 355.513 596.01 359.88C586.502 364.218 576.384 367.068 566.01 368.33C560.872 368.978 555.699 369.312 550.52 369.33C547.94 369.33 545.35 369.28 542.76 369.11C541.46 369.03 540.17 368.93 538.86 368.81C537.55 368.69 536.31 368.55 534.86 368.32L540.35 364.53L534.18 396.11L527.81 427.64L521.44 459.18L514.88 490.68L510.7 485.44C524.08 485.86 537.46 485.84 550.78 485.19C564.053 484.634 577.247 482.846 590.19 479.85C596.596 478.404 602.848 476.344 608.86 473.7C614.819 471.182 620.305 467.665 625.08 463.3C625.65 462.74 626.26 462.21 626.8 461.63L628.36 459.83C628.62 459.52 628.9 459.23 629.13 458.92L629.81 457.92C630.26 457.27 630.76 456.64 631.16 455.92C632.816 453.202 634.06 450.253 634.85 447.17C635.634 444.051 635.94 440.831 635.76 437.62C635.627 434.396 635.01 431.211 633.93 428.17L635.64 428.67C633.296 430.061 630.749 431.073 628.09 431.67L627.09 431.89C626.76 431.95 626.42 431.97 626.09 432.01C625.42 432.07 624.75 432.16 624.09 432.19H622.09C621.42 432.158 620.753 432.091 620.09 431.99C617.465 431.62 614.906 430.879 612.49 429.79C610.078 428.708 607.822 427.309 605.78 425.63Z" fill="#231F20"/>
<path d="M233.07 363.54C233.07 363.54 159.88 375.9 134.27 313.67C134.27 313.67 78.7899 387.16 162.94 425.67C162.94 425.67 148.56 437.21 133.73 427.67C133.73 427.67 103.4 493.91 258.15 489.77" fill="white"/>
<path d="M233.07 363.54C228.179 364.71 223.198 365.465 218.18 365.8C213.124 366.165 208.048 366.185 202.99 365.86C197.89 365.528 192.823 364.816 187.83 363.73C182.771 362.654 177.821 361.121 173.04 359.15C163.284 355.198 154.437 349.298 147.04 341.81C146.04 340.91 145.22 339.9 144.35 338.91C143.48 337.92 142.56 336.91 141.77 335.91C140.123 333.843 138.588 331.69 137.17 329.46C136.48 328.34 135.69 327.27 135.08 326.11L133.18 322.65C132.51 321.51 132 320.3 131.45 319.11L129.82 315.53L138.19 316.61C137.87 317.03 137.47 317.61 137.1 318.16L136 319.84C135.28 320.97 134.58 322.14 133.89 323.3C132.52 325.64 131.24 328.04 130.03 330.47C127.634 335.327 125.628 340.366 124.03 345.54C120.9 355.83 119.7 366.65 121.63 377.05C122.653 382.265 124.443 387.299 126.94 391.99L127.94 393.76L128.41 394.66C128.58 394.94 128.78 395.22 128.96 395.5L131.19 398.89C131.98 399.99 132.87 401.02 133.71 402.1L135 403.7L136.42 405.19C143.86 413.31 153.17 419.89 163.01 425.64C151.994 421.994 141.777 416.274 132.91 408.79C123.663 400.963 117.033 390.495 113.91 378.79C112.453 372.873 111.85 366.778 112.12 360.69C112.409 354.673 113.379 348.709 115.01 342.91C116.609 337.169 118.721 331.583 121.32 326.22C122.62 323.55 124 320.92 125.49 318.35C126.26 317.08 127.03 315.81 127.84 314.55L129.09 312.68C129.53 312.04 129.93 311.46 130.47 310.75L135.54 303.95L138.83 311.82C142.346 320.541 147.346 328.587 153.61 335.6C159.986 342.559 167.602 348.27 176.07 352.44C180.368 354.587 184.825 356.402 189.4 357.87C194.038 359.337 198.764 360.509 203.55 361.38C213.28 363.185 223.18 363.91 233.07 363.54Z" fill="#231F20"/>
<path d="M162.9 425.63C161.976 426.559 160.972 427.406 159.9 428.16C158.813 428.937 157.673 429.638 156.49 430.26C154.061 431.527 151.461 432.433 148.77 432.95C148.083 433.09 147.389 433.191 146.69 433.25L144.58 433.38C143.87 433.38 143.16 433.31 142.44 433.27C142.09 433.27 141.73 433.27 141.37 433.19L140.31 433C137.463 432.478 134.718 431.502 132.18 430.11L136.36 428.88C136.3 429.11 136.16 429.51 136.07 429.88C135.98 430.25 135.88 430.6 135.79 430.97C135.62 431.71 135.46 432.47 135.35 433.23L135.18 434.37L135.07 435.52C134.97 436.27 134.98 437.04 134.93 437.8C134.855 440.813 135.215 443.82 136 446.73C136.789 449.58 137.978 452.303 139.53 454.82C139.91 455.45 140.38 456.03 140.8 456.64L141.44 457.55C141.66 457.85 141.92 458.12 142.16 458.4L143.62 460.1C144.13 460.65 144.7 461.1 145.24 461.68C149.83 465.876 155.068 469.303 160.75 471.83C166.614 474.518 172.696 476.703 178.93 478.36C191.735 481.734 204.77 484.164 217.93 485.63C231.21 487.26 244.63 488.36 258.16 489.79C244.685 491.786 231.071 492.699 217.45 492.52C203.657 492.447 189.917 490.793 176.5 487.59C174.81 487.15 173.1 486.78 171.43 486.26L166.43 484.64C164.74 484.15 163.12 483.4 161.43 482.77L158.97 481.77C158.16 481.41 157.36 481 156.56 480.61C149.906 477.582 143.855 473.374 138.7 468.19C138.07 467.5 137.41 466.85 136.8 466.14L135.06 463.91C134.78 463.54 134.47 463.18 134.21 462.79L133.45 461.58C132.96 460.77 132.45 459.99 131.99 459.14C130.195 455.785 128.931 452.172 128.24 448.43C127.552 444.735 127.46 440.954 127.97 437.23C128.202 435.397 128.576 433.585 129.09 431.81C129.34 430.92 129.63 430.04 129.95 429.17C130.11 428.74 130.27 428.3 130.46 427.87C130.65 427.44 130.82 427.03 131.09 426.49L132.59 423.43L135.27 425.26C137.14 426.643 139.211 427.732 141.41 428.49L142.24 428.79C142.52 428.88 142.81 428.92 143.09 428.99C143.67 429.11 144.24 429.27 144.83 429.37L146.61 429.57C147.213 429.605 147.817 429.605 148.42 429.57C150.911 429.575 153.391 429.239 155.79 428.57C158.264 427.864 160.65 426.878 162.9 425.63Z" fill="#231F20"/>
<path d="M583.5 360.72C556.85 327.95 503.83 269.94 462.5 270.07C404.9 270.24 383.14 311.18 383.14 311.18C383.14 311.18 361.37 270.24 303.77 270.07C263.95 269.94 213.3 323.76 185.77 357.01C182.16 377.74 182.6 392.01 182.6 392.01C206.77 527.66 384.34 512.33 384.34 512.33C384.34 512.33 561.91 527.66 586.07 392C586.07 392 586.45 379.42 583.5 360.72Z" fill="white"/>
<path d="M582.76 406.38C563.26 369.38 523.01 313.28 462.38 325.23C373.43 342.77 417.88 407.01 437.32 436.73C446.01 450.01 456.38 479.38 462.46 506.39C509.98 496.13 564.84 470.2 582.76 406.38Z" fill="#7A7176"/>
<path d="M304.6 325.23C245.07 313.5 205.22 367.33 185.33 404.33C202.43 468.96 256.94 495.45 304.6 506.06C310.69 479.15 321.01 449.99 329.66 436.76C349.07 407.01 393.55 342.77 304.6 325.23Z" fill="#7A7176"/>
<path d="M408.12 407.12C404.45 396.6 400.99 376.05 400.99 335.94C400.99 282.24 429.99 235.55 451.47 208.25C432.13 203.08 410.03 200 384.75 199.71C359.17 200 336.85 203.15 317.35 208.42C338.86 235.74 367.69 282.36 367.69 335.94C367.69 376.05 364.23 396.6 360.56 407.12C357.97 414.56 361.93 422.45 370.3 426.33L374.3 428.18C377.471 429.612 380.901 430.381 384.38 430.44C387.859 430.381 391.289 429.612 394.46 428.18L398.46 426.33C406.75 422.45 410.71 414.56 408.12 407.12Z" fill="#7A7176"/>
<path d="M353.81 440.44C353.81 440.44 355.5 453.29 369.18 453.29C382.07 453.29 384.34 416.64 384.34 416.64" stroke="#231F20" stroke-width="5.77" stroke-linecap="round" stroke-linejoin="round"/>
<path d="M414.87 440.44C414.87 440.44 413.19 453.33 399.5 453.33C386.61 453.33 384.34 416.68 384.34 416.68" stroke="#231F20" stroke-width="5.77" stroke-linecap="round" stroke-linejoin="round"/>
<path d="M586.47 392C586.24 385.476 585.652 378.97 584.71 372.51C583.83 366.063 582.673 359.663 581.24 353.31C578.445 340.662 574.554 328.282 569.61 316.31C559.81 292.42 545.3 270.54 526.53 253.23C507.6 235.974 485.049 223.171 460.53 215.76C436.17 208.09 410.35 204.84 384.73 204.63C359.11 204.86 333.28 208.08 308.92 215.78L304.37 217.25C302.85 217.75 301.37 218.33 299.86 218.86C296.86 219.86 293.92 221.19 290.96 222.37C285.107 224.894 279.386 227.714 273.82 230.82C268.287 233.974 262.923 237.416 257.75 241.13C252.592 244.88 247.654 248.923 242.96 253.24C233.565 261.94 225.212 271.702 218.07 282.33C210.852 293.003 204.763 304.398 199.9 316.33C194.948 328.3 191.053 340.681 188.26 353.33C186.82 359.67 185.66 366.07 184.78 372.53C183.842 378.99 183.255 385.496 183.02 392.02C182.547 378.9 183.408 365.766 185.59 352.82C187.7 339.798 190.99 326.995 195.42 314.57C199.917 302.08 205.709 290.095 212.7 278.81C216.224 273.157 220.084 267.721 224.26 262.53C228.43 257.308 232.926 252.355 237.72 247.7C242.515 243.031 247.573 238.641 252.87 234.55C258.224 230.503 263.8 226.758 269.57 223.33C275.355 219.963 281.31 216.895 287.41 214.14C290.49 212.84 293.53 211.45 296.67 210.3C298.23 209.71 299.78 209.07 301.36 208.53L306.1 206.9C307.67 206.33 309.27 205.9 310.87 205.38C312.47 204.86 314.07 204.38 315.67 203.97L320.52 202.72L322.94 202.09L325.38 201.55L330.26 200.46C331.89 200.12 333.53 199.84 335.16 199.52C336.79 199.2 338.43 198.88 340.08 198.64L345.01 197.88C358.173 195.969 371.449 194.937 384.75 194.79C398.047 194.941 411.32 195.976 424.48 197.89L429.41 198.64C431.06 198.88 432.69 199.24 434.33 199.53C435.97 199.82 437.6 200.12 439.23 200.47L444.11 201.55L446.55 202.09L448.97 202.72L453.81 203.97C455.42 204.41 457.02 204.97 458.62 205.4C460.22 205.83 461.81 206.35 463.39 206.91L468.13 208.54C469.7 209.09 471.25 209.72 472.82 210.31C475.95 211.46 479 212.85 482.08 214.15C488.179 216.907 494.134 219.975 499.92 223.34C505.688 226.745 511.26 230.471 516.61 234.5C521.907 238.591 526.965 242.981 531.76 247.65C536.552 252.304 541.047 257.254 545.22 262.47C549.395 267.662 553.253 273.102 556.77 278.76C563.774 290.051 569.573 302.047 574.07 314.55C578.505 326.974 581.795 339.777 583.9 352.8C586.082 365.746 586.943 378.88 586.47 392Z" fill="#231F20"/>
<path d="M183.07 392C184.38 397.23 185.67 402.45 187.47 407.51C188.26 410.07 189.28 412.51 190.2 415.06C190.7 416.3 191.25 417.52 191.76 418.75L192.55 420.59L193.41 422.39C197.887 432.027 203.58 441.05 210.35 449.24C213.698 453.318 217.306 457.176 221.15 460.79C224.976 464.41 229.027 467.783 233.28 470.89C237.53 473.99 241.91 476.89 246.44 479.58C250.97 482.27 255.67 484.66 260.44 486.87C265.21 489.08 270.1 491.08 275.07 492.87C280.04 494.66 285.07 496.32 290.12 497.76C300.302 500.634 310.656 502.859 321.12 504.42C331.602 506.016 342.159 507.074 352.75 507.59C358.04 507.85 363.34 507.99 368.64 507.98C371.28 507.98 373.93 507.98 376.56 507.86C379.19 507.74 381.88 507.65 384.35 507.45H384.77H385.2C387.67 507.64 390.37 507.77 392.99 507.85C395.61 507.93 398.27 507.98 400.91 507.98C406.243 507.98 411.54 507.847 416.8 507.58C427.387 507.07 437.942 506.012 448.42 504.41C458.883 502.844 469.237 500.619 479.42 497.75C484.5 496.303 489.5 494.67 494.42 492.85C499.42 491.07 504.27 489.09 509.05 486.85C513.83 484.61 518.5 482.21 523.05 479.56C527.6 476.91 531.96 473.96 536.21 470.87C540.462 467.763 544.514 464.39 548.34 460.77C552.191 457.163 555.799 453.305 559.14 449.22C565.915 441.038 571.609 432.017 576.08 422.38L576.95 420.57L577.73 418.73C578.25 417.51 578.79 416.28 579.29 415.04C580.22 412.54 581.23 410.04 582.03 407.5C583.83 402.44 585.12 397.22 586.43 391.99C585.07 402.748 582.434 413.305 578.58 423.44C574.66 433.668 569.397 443.33 562.93 452.17C559.678 456.604 556.123 460.807 552.29 464.75C548.481 468.731 544.423 472.465 540.14 475.93C535.858 479.4 531.38 482.622 526.73 485.58C522.08 488.52 517.28 491.23 512.37 493.72C502.551 498.669 492.323 502.761 481.8 505.95C471.304 509.152 460.616 511.684 449.8 513.53C439.012 515.355 428.132 516.583 417.21 517.21C411.75 517.52 406.28 517.67 400.81 517.69C398.07 517.69 395.33 517.69 392.58 517.59C389.83 517.49 387.14 517.4 384.25 517.18H385.09C382.19 517.4 379.51 517.5 376.75 517.58C373.99 517.66 371.26 517.7 368.52 517.69C363.05 517.69 357.58 517.53 352.12 517.2C341.2 516.579 330.323 515.35 319.54 513.52C308.723 511.675 298.035 509.143 287.54 505.94C277.051 502.746 266.856 498.654 257.07 493.71C247.199 488.802 237.888 482.84 229.3 475.93C225.017 472.465 220.959 468.731 217.15 464.75C213.317 460.807 209.762 456.604 206.51 452.17C200.041 443.334 194.778 433.676 190.86 423.45C187.031 413.311 184.416 402.754 183.07 392Z" fill="#231F20"/>
<path d="M339.17 409.67C338.26 404.605 336.541 399.719 334.08 395.2C331.719 390.921 328.629 387.087 324.95 383.87C317.801 377.629 308.64 374.178 299.15 374.15C289.661 374.17 280.498 377.618 273.35 383.86C269.667 387.077 266.577 390.916 264.22 395.2C261.753 399.716 260.037 404.603 259.14 409.67C258.196 404.28 258.539 398.743 260.14 393.51C261.792 388.099 264.592 383.109 268.35 378.88C272.197 374.566 276.918 371.119 282.2 368.77C283.54 368.23 284.89 367.67 286.26 367.21C287.63 366.75 289.06 366.4 290.47 366.07C291.88 365.74 293.35 365.59 294.79 365.4L299.14 365.15L303.5 365.4C304.94 365.58 306.38 365.83 307.81 366.06C309.24 366.29 310.62 366.82 312.02 367.2C313.42 367.58 314.75 368.2 316.09 368.76C321.368 371.116 326.088 374.561 329.94 378.87C333.707 383.096 336.508 388.092 338.15 393.51C339.758 398.741 340.108 404.278 339.17 409.67Z" fill="#231F20"/>
<path d="M509.68 409.67C508.775 404.604 507.056 399.717 504.59 395.2C502.232 390.919 499.142 387.084 495.46 383.87C488.314 377.63 479.157 374.179 469.67 374.15C460.177 374.17 451.012 377.618 443.86 383.86C440.177 387.077 437.087 390.916 434.73 395.2C432.267 399.718 430.552 404.604 429.65 409.67C428.706 404.28 429.048 398.743 430.65 393.51C432.293 388.096 435.094 383.103 438.86 378.88C442.705 374.568 447.422 371.122 452.7 368.77C454.05 368.23 455.39 367.67 456.77 367.21C458.15 366.75 459.56 366.4 460.98 366.07C462.4 365.74 463.85 365.59 465.29 365.4L469.65 365.15L474 365.4C475.44 365.58 476.88 365.83 478.32 366.06C479.76 366.29 481.13 366.82 482.53 367.2C483.93 367.58 485.25 368.2 486.59 368.76C491.871 371.11 496.592 374.556 500.44 378.87C504.206 383.098 507.011 388.093 508.66 393.51C510.268 398.741 510.618 404.278 509.68 409.67Z" fill="#231F20"/>
<path d="M490.3 589.33C490.3 589.33 619.75 533.92 606.3 481.33C595.4 438.86 546.46 460.68 556.68 492.53C556.68 492.53 539.9 521.53 477.87 525.17" fill="#C9C3C7"/>
<path d="M490.3 589.33C509.044 579.497 527.253 568.675 544.85 556.91C553.538 551.053 561.925 544.762 569.98 538.06C577.941 531.525 585.173 524.149 591.55 516.06C594.579 512.141 597.158 507.894 599.24 503.4C601.211 499.142 602.326 494.538 602.52 489.85C602.568 487.596 602.333 485.345 601.82 483.15C601.261 480.843 600.515 478.586 599.59 476.4C597.966 472.227 595.243 468.571 591.71 465.82C588.285 463.311 584.072 462.115 579.84 462.45C575.424 462.855 571.226 464.552 567.77 467.33C564.257 470.097 561.646 473.846 560.27 478.1C558.955 482.453 558.955 487.097 560.27 491.45L560.77 493.18L559.94 494.53C559.72 494.9 559.59 495.08 559.42 495.32L558.95 495.97C558.64 496.39 558.32 496.8 558 497.18C557.35 497.97 556.69 498.71 556 499.43C554.647 500.837 553.222 502.172 551.73 503.43C548.795 505.918 545.665 508.165 542.37 510.15C535.856 513.993 528.92 517.07 521.7 519.32C518.12 520.42 514.51 521.32 510.86 522.13C507.21 522.94 503.56 523.54 499.86 524.01C498.02 524.24 496.18 524.41 494.34 524.61L488.82 525.02L483.3 525.21C481.46 525.21 479.62 525.21 477.78 525.21L483.23 524.43L488.65 523.53L494.04 522.53C495.82 522.12 497.6 521.76 499.37 521.33C506.42 519.692 513.331 517.506 520.04 514.79C526.669 512.187 532.977 508.832 538.84 504.79C541.706 502.798 544.42 500.595 546.96 498.2C548.2 497 549.38 495.75 550.48 494.48C551.02 493.83 551.55 493.19 552.04 492.48C552.29 492.15 552.51 491.82 552.74 491.48L553.05 491C553.14 490.86 553.26 490.65 553.27 490.63L552.94 493.71C551.955 490.851 551.369 487.869 551.2 484.85C551.048 481.77 551.385 478.685 552.2 475.71C553.859 469.715 557.314 464.372 562.1 460.4C566.907 456.375 572.826 453.909 579.07 453.33C582.259 453.037 585.475 453.308 588.57 454.13C591.684 454.957 594.62 456.35 597.23 458.24C602.176 461.97 606.019 466.971 608.35 472.71C609.488 475.416 610.398 478.212 611.07 481.07C611.748 484.051 612.05 487.104 611.97 490.16C611.722 496.11 610.259 501.947 607.67 507.31C605.236 512.43 602.194 517.238 598.61 521.63C591.61 530.33 583.45 537.63 574.92 544.24C566.372 550.766 557.417 556.741 548.11 562.13C538.863 567.53 529.41 572.5 519.75 577.04C514.94 579.34 510.07 581.49 505.16 583.56C500.25 585.63 495.31 587.54 490.3 589.33Z" fill="#221F1F"/>
<path d="M680.09 210.8L718.32 151.06" stroke="#F26B6C" stroke-width="14.38" stroke-miterlimit="10" stroke-linecap="round"/>
<path d="M718.32 369.66L680.09 309.91" stroke="#F26B6C" stroke-width="14.38" stroke-miterlimit="10" stroke-linecap="round"/>
<path d="M706.15 260.5H778.4" stroke="#F26B6C" stroke-width="14.38" stroke-miterlimit="10" stroke-linecap="round"/>
<path d="M679.96 162.51L682.68 186.14L394.76 28.12L392.04 4.48999L679.96 162.51Z" fill="#266DBD"/>
<path d="M392.04 4.48999L102.1 143.87L104.82 167.5L394.76 28.12L392.04 4.48999Z" fill="#1752A7"/>
<path d="M294.55 456.84C275.071 456.827 256.393 449.085 242.617 435.314C228.84 421.543 221.091 402.869 221.07 383.39C221.091 363.916 228.836 345.246 242.606 331.476C256.376 317.706 275.046 309.961 294.52 309.94C313.993 309.961 332.663 317.706 346.433 331.476C360.203 345.246 367.949 363.916 367.97 383.39C367.949 402.858 360.208 421.524 346.444 435.293C332.681 449.062 314.018 456.811 294.55 456.84ZM294.55 324.67C278.981 324.686 264.055 330.877 253.046 341.886C242.037 352.895 235.846 367.821 235.83 383.39C235.846 398.959 242.037 413.885 253.046 424.894C264.055 435.902 278.981 442.094 294.55 442.11C310.118 442.094 325.045 435.902 336.054 424.894C347.062 413.885 353.254 398.959 353.27 383.39C353.254 367.821 347.062 352.895 336.054 341.886C325.045 330.877 310.118 324.686 294.55 324.67Z" fill="#221E57"/>
<path opacity="0.37" d="M348.801 405.866C361.212 375.904 346.984 341.555 317.022 329.144C287.061 316.734 252.711 330.962 240.301 360.923C227.89 390.885 242.118 425.234 272.08 437.645C302.041 450.055 336.391 435.827 348.801 405.866Z" fill="#69A9DC"/>
<path opacity="0.44" d="M266.73 435.09L346.86 410.02C351.08 401.778 353.277 392.65 353.27 383.39C353.286 373.991 351.029 364.728 346.69 356.39L236.77 393.79C238.345 402.481 241.856 410.706 247.042 417.855C252.229 425.004 258.957 430.895 266.73 435.09Z" fill="white"/>
<path d="M474.13 456.84C454.656 456.819 435.987 449.074 422.217 435.304C408.447 421.534 400.701 402.864 400.68 383.39C400.701 363.916 408.447 345.246 422.217 331.476C435.987 317.706 454.656 309.961 474.13 309.94C493.604 309.961 512.274 317.706 526.044 331.476C539.814 345.246 547.559 363.916 547.58 383.39C547.559 402.864 539.814 421.534 526.044 435.304C512.274 449.074 493.604 456.819 474.13 456.84ZM474.13 324.67C458.561 324.686 443.635 330.877 432.626 341.886C421.618 352.895 415.426 367.821 415.41 383.39C415.426 398.959 421.618 413.885 432.626 424.894C443.635 435.902 458.561 442.094 474.13 442.11C489.7 442.094 504.627 435.903 515.637 424.894C526.648 413.886 532.842 398.96 532.86 383.39C532.842 367.82 526.648 352.894 515.637 341.886C504.627 330.877 489.7 324.686 474.13 324.67Z" fill="#221E57"/>
<path opacity="0.37" d="M528.383 405.865C540.794 375.904 526.566 341.555 496.604 329.144C466.643 316.734 432.293 330.961 419.883 360.923C407.472 390.885 421.7 425.234 451.662 437.644C481.623 450.055 515.973 435.827 528.383 405.865Z" fill="#69A9DC"/>
<path opacity="0.44" d="M446.31 435.09L526.44 410.02C530.663 401.779 532.864 392.65 532.86 383.39C532.872 373.992 530.614 364.729 526.28 356.39L416.35 393.75C417.922 402.447 421.431 410.679 426.617 417.836C431.804 424.992 438.534 430.889 446.31 435.09Z" fill="white"/>
<path d="M415.41 388.47H404.58C404.575 383.104 402.441 377.959 398.646 374.164C394.851 370.369 389.706 368.235 384.34 368.23C378.969 368.227 373.816 370.358 370.015 374.153C366.214 377.949 364.075 383.098 364.07 388.47H353.25C353.258 380.235 356.533 372.339 362.356 366.516C368.179 360.693 376.075 357.418 384.31 357.41C392.551 357.41 400.456 360.681 406.287 366.505C412.118 372.329 415.4 380.229 415.41 388.47Z" fill="#221E57"/>
<path d="M410.89 415.64C410.89 424 385.55 432.56 385.55 432.56C385.55 432.56 357.79 424 357.79 415.64C357.79 407.28 369.68 400.5 384.34 400.5C399 400.5 410.89 407.33 410.89 415.64Z" fill="#231F20"/>
</g>
<defs>
<clipPath id="clip0_4570_31345">
<rect width="785.59" height="804.48" fill="white"/>
</clipPath>
</defs>
</svg>
