<svg width="583" height="742" viewBox="0 0 583 742" fill="none" xmlns="http://www.w3.org/2000/svg">
<g clip-path="url(#clip0_4845_2989)">
<path d="M262.93 741.51C375.497 741.51 466.75 719.393 466.75 692.11C466.75 664.827 375.497 642.71 262.93 642.71C150.363 642.71 59.1101 664.827 59.1101 692.11C59.1101 719.393 150.363 741.51 262.93 741.51Z" fill="#A7A9AC"/>
<path d="M577.5 434.2C562.399 420.532 546.393 407.9 529.59 396.39C491.75 370.5 459.16 357.39 432.72 357.39C425.832 357.346 418.976 358.333 412.38 360.32C404.08 362.763 396.289 366.683 389.38 371.89H389.26C387.053 373.61 384.974 375.488 383.04 377.51L382.96 377.6C382.51 378.08 382.08 378.6 381.65 379.04L381.51 379.21C381.11 379.66 380.72 380.12 380.31 380.63L380.21 380.75C377.794 383.757 375.722 387.024 374.03 390.49L373.94 390.67C369.783 399.601 367.92 409.427 368.52 419.26C341.57 428.73 314.92 445.26 289.07 468.41C292.48 433.844 297.953 399.513 305.46 365.6C310.2 358.74 329.65 335.41 387.54 311.1C393.59 321.5 404.87 331.99 425.86 336.1H425.96C426.96 336.29 427.96 336.45 429.15 336.62L430.03 336.73C430.96 336.84 431.87 336.93 432.77 336.99H433.34C434.34 337.05 435.41 337.08 436.62 337.08H437.37C438.24 337.08 439.11 337.08 440.01 336.98H440.65C441.65 336.91 442.71 336.81 443.75 336.67L444.46 336.57C445.29 336.45 446.12 336.31 446.91 336.16L447.69 336.01C448.69 335.8 449.69 335.57 450.59 335.34L451.18 335.18C451.99 334.96 452.8 334.72 453.67 334.44L454.38 334.21C455.38 333.88 456.29 333.55 457.16 333.21L457.48 333.08C458.3 332.76 459.11 332.41 459.92 332.08L460.65 331.75C461.45 331.38 462.25 331 462.99 330.62L463.31 330.46C464.16 330.02 465 329.56 465.85 329.07L466.51 328.69C467.2 328.28 467.89 327.87 468.61 327.41L469.03 327.15C469.82 326.65 470.6 326.15 471.37 325.59L471.95 325.18C472.58 324.74 473.2 324.29 473.85 323.8L474.34 323.43C475.08 322.87 475.82 322.29 476.54 321.7L476.98 321.34C477.58 320.85 478.17 320.34 478.79 319.81L479.3 319.37L481.36 317.52L481.61 317.28C482.22 316.72 482.81 316.14 483.41 315.56L483.91 315.07C485.21 313.79 486.51 312.44 487.8 311.07L488.22 310.6L489.9 308.74L490.09 308.52C490.7 307.83 491.3 307.13 491.93 306.38L492.26 305.99C492.77 305.37 493.26 304.75 493.82 304.09L494.03 303.84L495.74 301.68L495.98 301.37C496.48 300.72 496.98 300.08 497.47 299.43L497.7 299.11C498.26 298.38 498.8 297.64 499.34 296.91L499.43 296.78C499.94 296.08 500.43 295.38 500.94 294.69L501.14 294.4C502.187 292.92 503.21 291.446 504.21 289.98C504.249 289.91 504.292 289.843 504.34 289.78C505.34 288.34 506.26 286.9 507.19 285.48L507.28 285.35C509.97 281.2 512.44 277.2 514.61 273.67C517.07 269.67 519.18 266.28 520.93 263.73C531.76 247.99 541.85 243.73 543.37 243.1C546.338 242.366 548.999 240.714 550.974 238.38C552.949 236.046 554.137 233.148 554.37 230.1C554.591 226.955 553.825 223.82 552.179 221.131C550.534 218.443 548.091 216.334 545.19 215.1C543.12 214.17 501.19 195.65 459.36 190.1L461.05 189.19L463.75 187.67L464.64 187.16L465.06 186.91C487.16 173.91 507.23 155.2 524.72 131.24C525.903 129.62 526.749 127.779 527.208 125.826C527.667 123.873 527.73 121.847 527.393 119.87C527.055 117.892 526.324 116.002 525.243 114.312C524.162 112.622 522.754 111.166 521.1 110.03C519.82 109.16 490.5 89.3098 451.73 87.7198C460.27 50.1198 454.65 18.5298 454.4 17.1298C454.019 15.0466 453.201 13.0676 452 11.3232C450.799 9.57876 449.243 8.10838 447.433 7.0088C445.623 5.90922 443.601 5.20537 441.499 4.94356C439.398 4.68174 437.264 4.86791 435.24 5.48981C397.67 17.0198 368.24 32.8698 347.39 52.7398C319.72 12.2998 272.98 0.999801 270.72 0.469801C268.766 0.015374 266.74 -0.0422985 264.763 0.3002C262.786 0.642698 260.897 1.3784 259.21 2.46376C257.522 3.54912 256.069 4.96206 254.937 6.61894C253.805 8.27582 253.017 10.143 252.62 12.1098C246.74 41.1898 246.46 68.6398 251.79 93.7098C251.79 93.7698 252.11 95.1698 252.11 95.1698C252.34 96.1698 252.57 97.1698 252.81 98.1698C252.93 98.6898 253.06 99.1698 253.2 99.7398C253.42 100.61 253.64 101.47 253.88 102.35C253.88 102.35 254.19 103.48 254.28 103.83C254.59 104.92 254.91 106 255.28 107.1L255.62 108.21C255.96 109.29 256.3 110.37 256.62 111.44C256.75 111.83 257.11 112.85 257.11 112.85C257.39 113.65 257.67 114.45 257.95 115.23L258.48 116.67C258.8 117.53 259.13 118.39 259.48 119.26C259.48 119.26 259.79 120.06 259.89 120.26C260.35 121.4 260.82 122.53 261.29 123.62L261.86 124.91C262.18 125.64 262.51 126.37 262.86 127.11L263.48 128.46L264.53 130.63L265.11 131.8C265.62 132.8 266.11 133.8 266.69 134.87L267.26 135.87C267.64 136.583 268.02 137.273 268.4 137.94L269.11 139.21C269.48 139.85 269.85 140.49 270.22 141.11L270.91 142.26C271.44 143.16 271.99 144.04 272.52 144.88L273.12 145.82C273.57 146.52 274.01 147.2 274.48 147.9L275.23 149.02L276.39 150.71L277.14 151.78C277.59 152.42 278.05 153.06 278.53 153.71L279.11 154.51C279.7 155.3 280.28 156.07 280.87 156.84L281.65 157.84L282.83 159.34L283.66 160.34C284.08 160.86 284.51 161.34 284.93 161.87L285.62 162.69C286.23 163.42 286.85 164.13 287.46 164.82L288.2 165.66L289.45 167.04L290.28 167.94L291.5 169.23L292.26 170.03C292.88 170.67 293.49 171.31 294.09 171.91L294.75 172.56L296.08 173.87L296.87 174.62C297.26 175.01 297.66 175.38 298.04 175.74L298.83 176.47C299.32 176.93 299.83 177.38 300.32 177.83L301.05 178.49L302.53 179.8L303.53 180.69C293.003 200.959 283.596 221.79 275.35 243.09C264.207 221.398 251.021 200.818 235.97 181.63C239.394 176.13 241.714 170.016 242.8 163.63C242.805 163.59 242.805 163.55 242.8 163.51C243.368 160.078 243.543 156.592 243.32 153.12C243.325 153.07 243.325 153.02 243.32 152.97C243.28 152.403 243.23 151.833 243.17 151.26V151.07C243.1 150.51 243.03 149.94 242.96 149.39V149.24C242.595 146.761 242.04 144.314 241.3 141.92C241.3 141.87 241.3 141.82 241.3 141.76C238.959 134.561 235.348 127.838 230.64 121.91C213.64 99.9098 178.2 88.7998 125.22 88.7998C109.395 88.7846 93.5852 89.7498 77.88 91.6898C74.7499 92.0679 71.8157 93.4126 69.4856 95.5365C67.1555 97.6605 65.5456 100.458 64.88 103.54C64.2409 106.534 64.5629 109.654 65.7999 112.455C67.037 115.256 69.1262 117.595 71.77 119.14C73.07 120.14 81.54 127.09 87.53 145.22C88.53 148.16 89.53 152.03 90.81 156.52C91.92 160.52 93.17 165.04 94.59 169.76V169.87C95.09 171.52 95.59 173.19 96.15 174.87L96.22 175.11C96.77 176.8 97.33 178.5 97.9 180.11L98.04 180.51C98.33 181.33 98.62 182.15 98.91 182.95C98.9073 182.986 98.9073 183.023 98.91 183.06C99.22 183.92 99.54 184.78 99.84 185.59L100.01 186.02C100.3 186.78 100.59 187.55 100.87 188.24L101.03 188.66C101.37 189.51 101.72 190.37 102.11 191.3L102.21 191.54C102.53 192.29 102.85 193.04 103.21 193.82L103.42 194.3C103.79 195.14 104.17 195.98 104.57 196.82C104.57 196.82 104.65 196.99 104.66 197.03C105.02 197.79 105.39 198.55 105.79 199.37L106.05 199.91C106.89 201.603 107.76 203.253 108.66 204.86L108.98 205.44C109.39 206.16 109.81 206.88 110.24 207.61C110.24 207.61 110.38 207.86 110.41 207.9C110.89 208.7 111.41 209.48 111.87 210.26L112.23 210.82C112.657 211.486 113.097 212.153 113.55 212.82L113.87 213.29C114.4 214.06 114.94 214.82 115.47 215.53L115.88 216.08C116.35 216.7 116.82 217.31 117.28 217.89L117.74 218.46C118.33 219.19 118.94 219.92 119.55 220.62L119.91 221.02C120.44 221.63 120.99 222.22 121.52 222.78L122.07 223.36C122.74 224.05 123.42 224.73 124.12 225.36L124.42 225.64C125.04 226.22 125.67 226.78 126.31 227.34L126.91 227.86C127.56 228.41 128.23 228.95 128.91 229.49L129.27 229.78C129.99 230.33 130.76 230.89 131.63 231.49L132.29 231.94C132.98 232.41 133.69 232.86 134.41 233.3L134.9 233.6C135.73 234.1 136.62 234.6 137.58 235.11L138.22 235.43C138.97 235.81 139.72 236.18 140.55 236.55C140.75 236.65 140.96 236.74 141.15 236.82C142.15 237.24 143.06 237.63 144.04 237.99C144.23 238.07 144.44 238.14 144.66 238.21C145.47 238.5 146.29 238.78 147.21 239.06L147.93 239.27C149.02 239.59 150.03 239.85 151.04 240.08L151.6 240.19C152.45 240.38 153.36 240.55 154.28 240.7L155.17 240.84C156.35 241.02 157.37 241.14 158.37 241.23H158.48C160.81 241.44 163.13 241.55 165.36 241.55C177.94 241.55 187.52 238.29 194.77 233.75C213.97 260.97 238.35 304.08 242.67 351.95C236.46 379.89 231.52 408.89 227.85 438.71C221.745 430.783 215.247 423.166 208.38 415.89C212.135 407.935 214.017 399.225 213.88 390.43V390.32C213.783 386.425 213.246 382.554 212.28 378.78C212.28 378.72 212.28 378.66 212.28 378.61C212.12 377.99 211.95 377.36 211.76 376.74L211.7 376.56C211.52 375.95 211.32 375.33 211.11 374.72L211.05 374.56C210.12 371.898 208.99 369.311 207.67 366.82C203.513 359.236 198.025 352.461 191.47 346.82C176.11 333.22 152.62 326.33 121.64 326.33C69.84 326.33 12.96 345.27 10.56 346.07C7.57478 347.029 4.96068 348.891 3.07823 351.398C1.19578 353.906 0.137728 356.936 0.0500034 360.07C-0.0226272 363.134 0.870135 366.143 2.60194 368.672C4.33375 371.2 6.81691 373.12 9.70001 374.16C11.27 374.9 23.43 381.16 35.02 402.05C36.82 405.29 38.93 409.57 41.37 414.53C43.52 418.91 45.97 423.87 48.65 429.01C49.65 430.82 50.57 432.65 51.65 434.53L51.76 434.75C52.76 436.63 53.82 438.47 54.82 440.21L55.04 440.58C55.52 441.42 56.04 442.27 56.55 443.17L56.64 443.32C57.19 444.24 57.74 445.16 58.27 446.02L58.53 446.45L60.09 448.95L60.29 449.26C60.87 450.16 61.45 451.06 62.01 451.9L62.27 452.31C62.8 453.1 63.33 453.88 63.84 454.62L64.21 455.17C64.82 456.05 65.45 456.94 66.08 457.81L66.24 458.03C66.81 458.83 67.39 459.61 67.98 460.39L68.43 460.99C69.74 462.71 71.09 464.41 72.43 466.07L72.91 466.63C73.53 467.37 74.16 468.1 74.82 468.84L75.06 469.12C75.78 469.92 76.5 470.7 77.25 471.5L77.79 472.06C78.41 472.71 79.03 473.35 79.68 474L80.13 474.44C80.9 475.2 81.67 475.94 82.46 476.67L83 477.16C83.66 477.76 84.33 478.35 85 478.94L85.59 479.45C86.42 480.15 87.25 480.83 88.05 481.45L88.58 481.85C89.3 482.41 90.04 482.96 90.79 483.5L91.5 484.01C92.5 484.7 93.36 485.29 94.2 485.84L94.58 486.07C95.41 486.6 96.25 487.07 97.1 487.61L97.89 488.06C98.76 488.55 99.64 489.06 100.48 489.46L100.88 489.66C101.8 490.13 102.79 490.6 103.94 491.11L104.76 491.46C105.64 491.84 106.52 492.19 107.42 492.53L108.02 492.76C109.02 493.14 110.14 493.5 111.25 493.84L112.09 494.09C112.997 494.35 113.907 494.59 114.82 494.81C114.82 494.81 115.39 494.96 115.64 495.01C116.79 495.27 117.94 495.5 119.07 495.69L119.82 495.81C120.82 495.96 121.82 496.09 122.74 496.2L123.69 496.29C124.96 496.41 126.14 496.49 127.31 496.53H127.9H129.37H131.04H132.04C133.4 496.53 134.58 496.4 135.71 496.29H135.8C155.9 494.29 168.8 486.54 177.07 477.79C196.77 503.12 211.18 532.26 220.01 564.67C219.69 634.57 226.07 681.75 226.35 683.74C226.845 687.327 228.621 690.615 231.351 692.995C234.08 695.375 237.578 696.688 241.2 696.69H275.04C277.171 696.69 279.278 696.236 281.22 695.358C283.162 694.481 284.895 693.199 286.303 691.599C287.711 689.999 288.762 688.117 289.385 686.079C290.009 684.041 290.191 681.894 289.92 679.78C289.83 679.11 284.27 632.91 284.19 570.46C295.43 554.55 329.38 510.03 372.19 487.46C377.19 500.17 387.19 511.14 401.45 519.4C402.22 519.84 402.98 520.26 403.77 520.67L404.42 521.01L406.3 521.93L406.8 522.16C407.58 522.52 408.36 522.86 409.18 523.16L409.59 523.32C410.25 523.58 410.9 523.84 411.52 524.06L412.24 524.32C412.91 524.55 413.58 524.77 414.32 525H414.24L414.64 525.13C415.44 525.37 416.24 525.6 417.06 525.81L417.66 525.96C418.28 526.12 418.91 526.26 419.58 526.41L420.19 526.54C420.99 526.7 421.79 526.86 422.61 526.99H422.74C423.5 527.11 424.25 527.22 425.01 527.32L425.67 527.4L427.67 527.59H428.17C428.96 527.65 429.76 527.7 430.56 527.73H431.04C431.68 527.73 432.33 527.73 432.97 527.73H433.62C434.32 527.73 435.03 527.73 435.73 527.73H436.01C436.79 527.73 437.57 527.65 438.37 527.59H438.95C439.56 527.53 440.17 527.48 440.75 527.41L441.38 527.34C442.14 527.25 442.9 527.16 443.67 527.04L443.98 526.99L445.98 526.66L446.63 526.54C447.24 526.43 447.85 526.31 448.51 526.17L448.91 526.09L451.13 525.57L451.64 525.44C452.22 525.3 452.8 525.14 453.4 524.98L454.02 524.81C454.67 524.63 455.32 524.44 455.96 524.24L456.2 524.17L458.38 523.47L458.96 523.27L460.59 522.7L461.14 522.5C461.84 522.25 462.53 521.99 463.23 521.71L463.61 521.56C464.18 521.34 464.75 521.11 465.28 520.88L465.96 520.6L467.6 519.9L468.02 519.72L470.02 518.8L470.6 518.53L472.03 517.85L472.69 517.53L474.46 516.64L474.82 516.46L476.51 515.57L477.23 515.19L479.23 514.12L481.04 513.12L482.9 512.04L483.62 511.61L485.48 510.48L487.13 509.48L487.9 508.99L489.73 507.82L490.96 507.01L492.96 505.63L495.01 504.22L496.94 502.87L498.41 501.81L500.09 500.59L501.99 499.19L503.82 497.82C505.03 496.9 506.23 495.99 507.4 495.07H507.46C512.46 491.16 517.14 487.33 521.26 483.95C525.38 480.57 529.21 477.41 532.19 475.21C551.26 461.05 565.06 460.27 566.76 460.21C567.16 460.21 567.57 460.26 567.97 460.26C570.815 460.223 573.587 459.358 575.947 457.77C578.308 456.182 580.154 453.941 581.26 451.32C582.488 448.429 582.785 445.228 582.112 442.16C581.438 439.092 579.826 436.31 577.5 434.2ZM362.26 206.89L363.7 207.1L364.57 207.21L366.16 207.41L367.16 207.54L369.08 207.74L370.08 207.85L372.03 208.02L373.03 208.1L374.75 208.22L375.89 208.3L377.73 208.39L378.63 208.44C379.497 208.48 380.377 208.51 381.27 208.53H381.5C378.796 211.233 376.37 214.201 374.26 217.39C374.23 217.427 374.203 217.468 374.18 217.51C372.806 219.595 371.593 221.781 370.55 224.05C370.523 224.094 370.499 224.141 370.48 224.19C370.24 224.71 370.02 225.24 369.77 225.83V225.77L369.69 225.96C369.47 226.5 369.26 227.03 369.1 227.48L369.04 227.66C367.85 230.944 367.035 234.352 366.61 237.82V237.89C366.124 241.992 366.167 246.139 366.74 250.23C355.94 254.65 345.723 259.263 336.09 264.07C343.724 244.53 352.461 225.439 362.26 206.89Z" fill="#231F20"/>
<path d="M295.92 482.5C287.165 490.601 278.821 499.135 270.92 508.07C271.08 505.18 271.26 502.28 271.46 499.35C274.484 452.372 281.147 405.698 291.39 359.75C295.9 352.01 325.72 309.09 446.47 274.98L437.18 242.11C375.67 259.48 335.04 279.43 308.35 297.34C322.86 252.08 342.59 206.72 369.35 164.91L340.62 146.49C314.74 186.89 293.36 232.89 276.78 283.67C251.28 214.55 203.39 166.67 200.78 164.03L176.78 188.34C177.52 189.08 250.78 262.34 257.78 353.15C248.384 395.517 241.962 438.488 238.56 481.75C225.723 459.213 209.915 438.505 191.56 420.18C163.32 392.07 138.83 379.61 137.8 379.09L122.42 409.59C122.64 409.7 143.95 420.71 168.42 445.37C200.51 477.68 222.88 517.16 234.95 562.74C234.5 632.47 240.79 679.21 241.13 681.74H274.97C274.89 681.16 268.97 631.94 269.13 565.82C283.4 544.75 355.57 445.55 438.75 460.6L444.83 426.99C396.36 418.17 344.85 437.38 295.92 482.5Z" fill="#4CA84E"/>
<path d="M539.03 228.72C539.03 228.72 439.09 184.13 398.86 213.43C360.99 241 396.09 276.43 396.09 276.43C396.09 276.43 450.26 213.76 539.03 228.72Z" fill="#66BE64"/>
<path d="M396.09 276.47C396.09 276.47 388.2 313.47 428.75 321.39C469.3 329.31 495.27 274.54 508.55 255.23C523.76 233.12 539.03 228.72 539.03 228.72C450.26 213.76 396.09 276.47 396.09 276.47Z" fill="#4CA84E"/>
<g style="mix-blend-mode:multiply">
<path d="M494.68 277.17C402.14 297.71 386.75 226 386.68 225.74C370.39 250.51 396.07 276.47 396.07 276.47C396.07 276.47 388.18 313.47 428.73 321.39C458.15 327.16 479.88 299.94 494.68 277.17Z" fill="#4CA84E"/>
</g>
<path d="M79.8301 106.65C79.8301 106.65 188.26 91.8002 218.68 131.18C247.32 168.24 203.68 192.48 203.68 192.48C203.68 192.48 169.26 117.12 79.8301 106.65Z" fill="#66BE64"/>
<path d="M203.7 192.48C203.7 192.48 200.93 230.17 159.77 226.48C118.61 222.79 109.02 162.9 101.67 140.64C93.2501 115.16 79.8301 106.64 79.8301 106.64C169.26 117.12 203.7 192.48 203.7 192.48Z" fill="#4CA84E"/>
<g style="mix-blend-mode:multiply">
<path d="M108.85 165.57C191.95 211.18 226.79 146.63 226.91 146.41C235.61 174.74 203.7 192.48 203.7 192.48C203.7 192.48 200.93 230.17 159.77 226.48C129.93 223.78 116.68 191.57 108.85 165.57Z" fill="#4CA84E"/>
</g>
<path d="M567.26 445.18C567.26 445.18 472.83 357.31 416.78 374.62C364.06 390.89 389.66 443.89 389.66 443.89C389.66 443.89 474 394.61 567.26 445.18Z" fill="#66BE64"/>
<path d="M389.66 443.89C389.66 443.89 366.76 482.09 408.94 506.45C451.12 530.81 501.01 479.59 523.19 463.13C548.58 444.28 567.29 445.2 567.29 445.2C474 394.61 389.66 443.89 389.66 443.89Z" fill="#4CA84E"/>
<g style="mix-blend-mode:multiply">
<path d="M499.34 482.28C388.26 469.89 398.51 384.02 398.55 383.71C370.94 405.12 389.66 443.89 389.66 443.89C389.66 443.89 366.76 482.09 408.94 506.45C439.52 524.08 474.15 502.03 499.34 482.28Z" fill="#4CA84E"/>
</g>
<path d="M15.26 360.289C15.26 360.289 137.52 319.159 181.45 358.049C222.78 394.639 177.62 432.329 177.62 432.329C177.62 432.329 121.13 352.679 15.26 360.289Z" fill="#66BE64"/>
<path d="M177.65 432.33C177.65 432.33 182.77 476.58 134.3 481.33C85.83 486.08 61.5 418.91 48.08 394.77C32.71 367.16 15.26 360.29 15.26 360.29C121.13 352.68 177.65 432.33 177.65 432.33Z" fill="#4CA84E"/>
<g style="mix-blend-mode:multiply">
<path d="M61.8999 422.11C168.18 456.58 194.26 374.15 194.36 373.89C210.7 404.78 177.65 432.36 177.65 432.36C177.65 432.36 182.77 476.61 134.3 481.36C99.1599 484.89 76.7099 450.48 61.8999 422.11Z" fill="#4CA84E"/>
</g>
<path d="M337.77 185.96C393.99 44.43 267.27 14.96 267.27 14.96C267.27 14.96 338.95 119.49 337.77 185.96Z" fill="#66BE64"/>
<path d="M267.26 15C241.63 141.74 337.76 186 337.76 186C338.95 119.49 267.26 15 267.26 15Z" fill="#4CA84E"/>
<g style="mix-blend-mode:multiply">
<path d="M337.77 185.96C343.628 171.601 347.861 156.631 350.39 141.33C303.68 141.95 266.46 90.7402 266.46 90.7402C281.26 159.97 337.77 185.96 337.77 185.96Z" fill="#4CA84E"/>
</g>
<path d="M337.63 188.05C337.63 188.05 376.1 72.61 439.63 19.75C273.68 70.66 337.63 188.05 337.63 188.05Z" fill="#66BE64"/>
<path d="M337.63 188.05C463.48 149.6 439.63 19.75 439.63 19.75C376.1 72.61 337.63 188.05 337.63 188.05Z" fill="#4CA84E"/>
<g style="mix-blend-mode:multiply">
<path d="M435.47 90.7402C357.19 165.51 328.14 113.52 328.14 113.52C318.73 153.36 337.63 188.05 337.63 188.05C399.85 169.04 425.47 127.69 435.47 90.7402Z" fill="#4CA84E"/>
</g>
<path d="M338.82 185.62C405.35 48.6196 512.56 122.32 512.56 122.32C512.56 122.32 387.07 139.89 338.82 185.62Z" fill="#66BE64"/>
<path d="M512.56 122.319C436.3 226.739 338.82 185.619 338.82 185.619C387.07 139.889 512.56 122.319 512.56 122.319Z" fill="#4CA84E"/>
<g style="mix-blend-mode:multiply">
<path d="M338.82 185.62C345.467 171.607 353.665 158.385 363.26 146.2C394.26 181.1 457.26 174.02 457.26 174.02C396.11 209.79 338.82 185.62 338.82 185.62Z" fill="#4CA84E"/>
</g>
<path d="M457.929 394.256C459.355 387.242 452.28 379.883 442.127 377.819C431.973 375.755 422.587 379.768 421.161 386.782C419.735 393.796 426.81 401.156 436.963 403.219C447.117 405.283 456.503 401.27 457.929 394.256Z" fill="#F6FAFE"/>
<path d="M429.93 226.71C440.291 226.71 448.69 222.278 448.69 216.81C448.69 211.343 440.291 206.91 429.93 206.91C419.569 206.91 411.17 211.343 411.17 216.81C411.17 222.278 419.569 226.71 429.93 226.71Z" fill="#F6FAFE"/>
<path d="M437.98 122.309C446.176 122.309 452.82 118.804 452.82 114.479C452.82 110.155 446.176 106.649 437.98 106.649C429.784 106.649 423.14 110.155 423.14 114.479C423.14 118.804 429.784 122.309 437.98 122.309Z" fill="#F6FAFE"/>
<path d="M471.7 405.21C476.174 405.21 479.8 401.583 479.8 397.11C479.8 392.636 476.174 389.01 471.7 389.01C467.227 389.01 463.6 392.636 463.6 397.11C463.6 401.583 467.227 405.21 471.7 405.21Z" fill="#F6FAFE"/>
<path d="M458.39 230.63C462.206 230.63 465.3 227.536 465.3 223.72C465.3 219.903 462.206 216.81 458.39 216.81C454.574 216.81 451.48 219.903 451.48 223.72C451.48 227.536 454.574 230.63 458.39 230.63Z" fill="#F6FAFE"/>
<path d="M411.17 131.82C414.986 131.82 418.08 128.726 418.08 124.91C418.08 121.094 414.986 118 411.17 118C407.354 118 404.26 121.094 404.26 124.91C404.26 128.726 407.354 131.82 411.17 131.82Z" fill="#F6FAFE"/>
</g>
<defs>
<clipPath id="clip0_4845_2989">
<rect width="582.52" height="741.51" fill="white"/>
</clipPath>
</defs>
</svg>
