<svg width="754" height="700" viewBox="0 0 754 700" fill="none" xmlns="http://www.w3.org/2000/svg">
<g clip-path="url(#clip0_6069_953)">
<path d="M376.9 669.56C269.09 669.56 183.46 648.74 122.4 607.68C90.6003 586.3 65.7903 559.44 48.6703 527.84C31.1703 495.54 21.5803 458.05 20.1703 416.4C18.8703 378.12 24.7703 338.96 37.7103 300.01C48.5903 267.795 63.2704 236.991 81.4403 208.25C97.0701 183.217 114.969 159.675 134.91 137.92C126.52 129.83 117.28 117.78 115.18 102.71C113.78 92.61 115.18 77.22 129.92 61.27C137.11 53.48 154.11 43.64 222.31 36.69C264.61 32.37 319.51 30 376.9 30C434.29 30 489.19 32.37 531.49 36.69C599.69 43.64 616.69 53.48 623.88 61.27C638.61 77.27 640.02 92.61 638.61 102.71C636.52 117.78 627.28 129.83 618.89 137.92C638.832 159.675 656.731 183.217 672.36 208.25C690.527 236.991 705.204 267.795 716.08 300.01C729.01 339.01 734.92 378.12 733.62 416.4C732.21 458.05 722.62 495.54 705.12 527.84C687.99 559.44 663.19 586.3 631.39 607.68C570.34 648.74 484.71 669.56 376.9 669.56Z" fill="black"/>
<path d="M376.901 654.56C170.771 654.56 40.5909 575.91 35.1609 415.89C29.7309 255.87 157.161 136.54 157.161 136.54C157.161 136.54 108.341 106.7 140.891 71.4401C173.441 36.1801 580.261 36.1801 612.811 71.4401C645.361 106.7 596.541 136.54 596.541 136.54C596.541 136.54 724.081 255.87 718.641 415.89C713.201 575.91 583.081 654.56 376.901 654.56Z" fill="#F8F9E3"/>
<path d="M376.901 89.5296C499.977 89.5296 599.751 83.66 599.751 76.4196C599.751 69.1791 499.977 63.3096 376.901 63.3096C253.824 63.3096 154.051 69.1791 154.051 76.4196C154.051 83.66 253.824 89.5296 376.901 89.5296Z" fill="#3193D1"/>
<path d="M374.53 622.02C374.53 622.02 684.28 625.63 698.75 406.85C698.75 406.85 691.51 102.18 455.55 155.52L293.73 208.86C205.95 237.79 115.62 213.38 115.62 213.38C115.62 213.38 41.9805 294.76 56.8605 415.89C71.7405 537.02 164.79 624.37 374.53 622.02Z" fill="#3193D1"/>
<path d="M82.4609 498.01C124.361 574.43 216.171 623.79 374.531 622.01C374.531 622.01 684.281 625.62 698.751 406.84C698.751 406.84 697.751 364.9 684.441 314.84C684.441 314.84 621.591 525.9 82.4609 498.01Z" fill="#237DAB"/>
<path d="M614.081 187.94C578.381 156.33 527.651 139.23 455.601 155.52L293.731 208.86C205.951 237.79 115.621 213.38 115.621 213.38C115.621 213.38 120.621 306.5 387.751 292.03C500.301 285.94 570.491 239.57 614.081 187.94Z" fill="#90D8F8"/>
<path d="M159.667 299.698C166.871 276.837 161.903 254.898 148.57 250.697C135.238 246.496 118.591 261.623 111.387 284.484C104.183 307.345 109.152 329.284 122.484 333.485C135.816 337.686 152.463 322.559 159.667 299.698Z" fill="white"/>
<path d="M115.63 398.71C125.863 398.71 134.16 390.414 134.16 380.18C134.16 369.947 125.863 361.65 115.63 361.65C105.396 361.65 97.0996 369.947 97.0996 380.18C97.0996 390.414 105.396 398.71 115.63 398.71Z" fill="white"/>
<path d="M196.18 525.6C212.207 525.6 225.2 512.607 225.2 496.58C225.2 480.552 212.207 467.56 196.18 467.56C180.153 467.56 167.16 480.552 167.16 496.58C167.16 512.607 180.153 525.6 196.18 525.6Z" stroke="#F8F9E3" stroke-width="1.77" stroke-miterlimit="10"/>
<path d="M268.08 270.14C268.08 270.14 327.28 192.33 365.33 213.48C403.38 234.63 379.58 295.48 379.58 295.48L268.08 270.14Z" fill="#D91F26"/>
<path d="M353.451 318.51C353.451 318.51 398.451 259.37 427.371 275.44C456.291 291.51 438.201 337.79 438.201 337.79L353.451 318.51Z" fill="#D91F26"/>
<path d="M297.641 444.25C297.641 444.25 356.841 522.05 394.891 500.9C432.941 479.75 409.141 418.9 409.141 418.9L297.641 444.25Z" fill="#D91F26"/>
<path d="M620.831 383.46C619.141 410.31 591.701 412.75 546.331 402.7C500.961 392.65 498.521 381.89 459.151 410.59C450.05 417.228 440.618 423.399 430.891 429.08C425.891 432.02 420.721 434.81 415.421 437.44C402.981 443.708 390.018 448.881 376.681 452.9C371.581 454.43 366.361 455.77 361.061 456.9C349.228 459.541 337.177 461.09 325.061 461.53C319.951 461.76 314.771 461.76 309.511 461.53C287.616 460.622 265.971 456.522 245.261 449.36C156.261 419.13 114.701 375.76 151.641 362.36C151.641 362.36 197.091 265.28 290.901 255.75C291.531 255.67 292.121 255.63 292.751 255.59C298.751 255 304.331 254.65 309.671 254.53C321.35 254.09 333.041 254.972 344.521 257.16C351.075 258.404 357.483 260.324 363.641 262.89C387.001 272.7 397.641 289.15 407.011 302.02C409.941 306.34 413.29 310.359 417.011 314.02C419.221 316.13 421.77 317.854 424.551 319.12C451.441 330.9 475.851 343.85 511.141 325.36C546.431 306.87 603.501 278.06 616.961 305.07C630.421 332.08 605.501 348.72 605.501 348.72C605.501 348.72 622.521 356.58 620.831 383.46Z" fill="#F68620"/>
<path d="M325.021 461.54C326.711 444.62 325.501 420.6 309.481 404.54C309.481 404.54 344.181 369.02 302.301 327.61C302.301 327.61 325.611 293.38 309.641 254.52C304.301 254.64 298.691 254.99 292.721 255.58C301.201 275.64 306.931 304.49 285.811 327.58C285.811 327.58 334.211 361.41 289.701 405.38C289.701 405.38 313.701 430.38 309.481 461.51L325.021 461.54Z" fill="#FAF28C"/>
<path d="M376.681 452.9C371.581 454.43 366.361 455.77 361.061 456.9C362.511 427.9 340.841 405.44 340.841 405.44C385.361 361.44 336.961 327.64 336.961 327.64C357.571 305.11 352.621 277.16 344.491 257.18C351.045 258.423 357.453 260.344 363.611 262.91C373.501 298.2 353.441 327.64 353.441 327.64C395.331 369.05 360.631 404.57 360.631 404.57C374.081 418.05 377.081 437.12 376.681 452.9Z" fill="#FAF28C"/>
<path d="M430.89 429.08C425.89 432.02 420.72 434.81 415.42 437.44C411.899 425.587 405.8 414.659 397.56 405.44C442.07 361.44 393.68 327.64 393.68 327.64C400.363 320.478 404.962 311.626 406.98 302.04C409.909 306.36 413.259 310.379 416.98 314.04C415.175 318.782 412.9 323.331 410.19 327.62C452.07 369.03 417.38 404.55 417.38 404.55C423.976 411.386 428.638 419.851 430.89 429.08Z" fill="#FAF28C"/>
<g style="mix-blend-mode:multiply" opacity="0.47">
<path d="M245.221 449.41C265.935 456.572 287.583 460.672 309.481 461.58C314.741 461.77 319.921 461.77 325.031 461.58C337.148 461.143 349.199 459.589 361.031 456.94C366.331 455.81 371.551 454.47 376.651 452.94C389.989 448.921 402.951 443.748 415.391 437.48C420.691 434.85 425.831 432.06 430.861 429.12C440.588 423.44 450.021 417.269 459.121 410.63C498.491 381.93 500.961 392.63 546.301 402.74C591.641 412.85 619.111 410.35 620.801 383.5C621.042 379.947 620.918 376.378 620.431 372.85C590.529 375.115 560.469 374.089 530.791 369.79C488.891 363.4 456.461 391.4 456.461 391.4C296.051 487.73 151.581 362.4 151.581 362.4C114.671 375.81 156.201 419.18 245.221 449.41Z" fill="#FBB040"/>
</g>
<path d="M229.71 391.35C253.486 391.35 272.76 372.076 272.76 348.3C272.76 324.524 253.486 305.25 229.71 305.25C205.934 305.25 186.66 324.524 186.66 348.3C186.66 372.076 205.934 391.35 229.71 391.35Z" fill="#F8F9E3"/>
<path d="M188.641 335.36C189.929 329.76 192.398 324.5 195.881 319.93C199.436 315.287 203.905 311.421 209.011 308.57C214.19 305.69 219.901 303.896 225.797 303.297C231.692 302.698 237.647 303.305 243.3 305.083C248.953 306.861 254.184 309.772 258.675 313.638C263.166 317.504 266.822 322.244 269.421 327.57C271.982 332.827 273.429 338.557 273.671 344.4C273.912 350.139 272.923 355.864 270.771 361.19C272.012 355.746 272.262 350.123 271.511 344.59C270.761 339.201 269.015 333.999 266.361 329.25C261.062 319.766 252.339 312.666 241.976 309.403C231.614 306.141 220.397 306.962 210.621 311.7C205.7 314.086 201.268 317.369 197.551 321.38C193.771 325.472 190.754 330.206 188.641 335.36Z" fill="#231F20"/>
<path d="M270.771 361.25C269.482 366.85 267.014 372.11 263.531 376.68C259.978 381.325 255.509 385.192 250.401 388.04C245.222 390.919 239.51 392.713 233.615 393.313C227.72 393.912 221.764 393.304 216.111 391.526C210.459 389.748 205.227 386.838 200.737 382.972C196.246 379.106 192.589 374.365 189.991 369.04C187.434 363.781 185.987 358.052 185.741 352.21C185.506 346.471 186.495 340.748 188.641 335.42C187.4 340.864 187.149 346.487 187.901 352.02C188.66 357.42 190.417 362.632 193.081 367.39C198.38 376.876 207.105 383.978 217.469 387.241C227.834 390.503 239.053 389.68 248.831 384.94C253.737 382.544 258.155 379.259 261.861 375.25C265.647 371.156 268.666 366.414 270.771 361.25Z" fill="#231F20"/>
<path d="M238.58 386.4C254.182 386.4 266.83 373.752 266.83 358.15C266.83 342.548 254.182 329.9 238.58 329.9C222.978 329.9 210.33 342.548 210.33 358.15C210.33 373.752 222.978 386.4 238.58 386.4Z" fill="#040809"/>
<path d="M156.42 366.13C156.42 366.13 152.53 389.13 179.42 391.36" stroke="#231F20" stroke-width="6.37" stroke-linecap="round" stroke-linejoin="round"/>
<path d="M557.459 306.52C573.487 306.52 586.479 293.528 586.479 277.5C586.479 261.473 573.487 248.48 557.459 248.48C541.432 248.48 528.439 261.473 528.439 277.5C528.439 293.528 541.432 306.52 557.459 306.52Z" stroke="#F8F9E3" stroke-width="1.77" stroke-miterlimit="10"/>
<path d="M167.161 496.58C183.188 496.58 196.181 483.587 196.181 467.56C196.181 451.533 183.188 438.54 167.161 438.54C151.133 438.54 138.141 451.533 138.141 467.56C138.141 483.587 151.133 496.58 167.161 496.58Z" stroke="#F8F9E3" stroke-width="1.77" stroke-miterlimit="10"/>
<path d="M445.671 507.99C452.696 507.99 458.391 502.295 458.391 495.27C458.391 488.245 452.696 482.55 445.671 482.55C438.646 482.55 432.951 488.245 432.951 495.27C432.951 502.295 438.646 507.99 445.671 507.99Z" stroke="#F8F9E3" stroke-width="1.77" stroke-miterlimit="10"/>
<path d="M586.48 277.71C593.505 277.71 599.2 272.015 599.2 264.99C599.2 257.964 593.505 252.27 586.48 252.27C579.455 252.27 573.76 257.964 573.76 264.99C573.76 272.015 579.455 277.71 586.48 277.71Z" stroke="#F8F9E3" stroke-width="1.77" stroke-miterlimit="10"/>
<path d="M592.23 504.38C599.255 504.38 604.95 498.685 604.95 491.66C604.95 484.635 599.255 478.94 592.23 478.94C585.205 478.94 579.51 484.635 579.51 491.66C579.51 498.685 585.205 504.38 592.23 504.38Z" stroke="#F8F9E3" stroke-width="1.77" stroke-miterlimit="10"/>
<path d="M398.6 525.74C298.75 522.58 239.6 577.26 218.1 602.02C260.7 615.56 312.51 622.71 374.53 622.02C374.53 622.02 486.96 623.33 579.53 576.53C533.86 553.5 468.22 527.93 398.6 525.74Z" fill="#F8A43F"/>
<g style="mix-blend-mode:multiply" opacity="0.47">
<path d="M497.531 543.16C495.981 556.16 487.241 574.24 450.441 573.84C404.571 573.33 302.441 582.67 243.711 609.11C281.011 618.02 324.441 622.58 374.531 622.02C374.531 622.02 486.961 623.33 579.531 576.53C553.173 563.147 525.744 551.985 497.531 543.16Z" fill="#EEB678"/>
</g>
<path d="M649.341 422.35C659.492 422.35 667.721 401.505 667.721 375.79C667.721 350.076 659.492 329.23 649.341 329.23C639.19 329.23 630.961 350.076 630.961 375.79C630.961 401.505 639.19 422.35 649.341 422.35Z" fill="white"/>
</g>
<defs>
<clipPath id="clip0_6069_953">
<rect width="713.81" height="639.57" fill="white" transform="translate(20 30)"/>
</clipPath>
</defs>
</svg>
