<svg width="620" height="839" viewBox="0 0 620 839" fill="none" xmlns="http://www.w3.org/2000/svg">
<g clip-path="url(#clip0_4877_1654)">
<path d="M309.59 838.58C480.572 838.58 619.18 809.519 619.18 773.67C619.18 737.821 480.572 708.76 309.59 708.76C138.608 708.76 0 737.821 0 773.67C0 809.519 138.608 838.58 309.59 838.58Z" fill="#A7A9AC"/>
<path d="M161.71 785.6C158.903 785.599 156.127 785.008 153.563 783.864C150.999 782.719 148.705 781.048 146.83 778.959C144.955 776.87 143.54 774.409 142.679 771.737C141.817 769.065 141.528 766.241 141.83 763.45C141.83 763.33 141.96 762.19 142.12 760.25C142.12 759.75 142.2 759.25 142.24 758.64C142.46 755.64 142.76 750.94 142.92 745.23C142.92 744.23 142.97 743.23 142.99 742.13V740.5C142.99 739.42 142.99 738.31 142.99 737.18C142.99 732.25 142.87 727.42 142.62 722.82C142.49 720.25 142.31 717.73 142.09 715.32C141.98 714.06 141.86 712.81 141.72 711.56C141.58 710.31 141.44 709.07 141.28 707.83C141.12 706.59 140.95 705.38 140.76 704.15C140.66 703.55 140.57 702.95 140.47 702.34C140.27 701.15 140.05 699.96 139.82 698.78C139.71 698.21 139.59 697.63 139.47 697.05C138.706 693.287 137.704 689.576 136.47 685.94C136.31 685.46 136.14 685 135.96 684.53C135.332 682.828 134.618 681.159 133.82 679.53C133.308 678.502 132.744 677.501 132.13 676.53C130.55 674 128.86 671.37 126.96 668.47C125.34 666 123.78 663.66 122.29 661.42L122.05 661.06C120.41 658.61 118.85 656.27 117.36 653.99C116.36 652.39 115.36 650.83 114.36 649.28C113.36 647.73 112.36 646.02 111.46 644.48C110.46 642.76 109.56 641.13 108.7 639.48C106.849 635.987 105.2 632.391 103.76 628.71C103.01 626.78 102.31 624.81 101.69 622.85C100.69 619.85 99.9 616.67 99.21 613.46C97.2788 603.822 96.3638 594.009 96.48 584.18V201.41C96.4245 193.859 96.9359 186.314 98.01 178.84C98.9465 172.346 100.514 165.959 102.69 159.77C103.03 158.77 103.39 157.84 103.76 156.89C104.48 155.04 105.27 153.18 106.12 151.35C106.52 150.47 106.94 149.59 107.37 148.71C108.2 147.03 109.1 145.31 110.06 143.59C111.02 141.87 111.86 140.42 112.89 138.71C113.8 137.2 114.77 135.65 115.89 133.96C117.89 130.81 120.03 127.62 122.09 124.54L122.28 124.26C125.42 119.55 128.67 114.68 132.17 109.08C134.212 105.665 135.834 102.015 137 98.21C138.359 93.8983 139.435 89.5023 140.22 85.05C140.43 83.86 140.63 82.65 140.82 81.44C141.69 75.75 142.32 69.44 142.68 62.78C142.93 58.18 143.06 53.35 143.05 48.42C143.05 33.47 141.86 22.24 141.85 22.13C141.551 19.3404 141.843 16.5191 142.706 13.8494C143.568 11.1798 144.983 8.72158 146.858 6.63446C148.733 4.54735 151.026 2.87806 153.588 1.73505C156.15 0.592037 158.924 0.000877301 161.73 0H529.16C531.905 3.23368e-05 534.621 0.565214 537.138 1.66035C539.656 2.7555 541.921 4.35714 543.792 6.36557C545.664 8.374 547.101 10.7462 548.016 13.3345C548.931 15.9227 549.304 18.6716 549.11 21.41C549.11 21.66 549.11 21.92 549.04 22.17C549.04 22.17 548.95 23.07 548.95 23.1L548.78 25.05C548.78 25.05 548.71 25.91 548.7 25.95C548.63 26.88 548.55 27.95 548.48 29.13L548.39 30.49C548.27 32.49 548.17 34.56 548.08 36.58V36.66C547.96 39.73 547.88 42.81 547.85 45.83V45.94C547.85 49.45 547.85 52.94 547.95 56.32V56.27C547.955 56.3232 547.955 56.3768 547.95 56.43C548.03 59.43 548.17 62.43 548.36 65.27V65.46C548.36 66.13 548.45 66.8 548.5 67.46V67.6C548.56 68.41 548.62 69.13 548.69 69.86C550.61 92.08 555.19 103.43 558.69 109.04C562.19 114.65 565.46 119.54 568.61 124.26C582.99 145.79 594.34 162.79 594.34 201.37V584.18C594.34 614.51 587.5 631.57 576.46 649.27C575.46 650.82 574.46 652.38 573.46 653.98C572.46 655.58 571.46 657.07 570.36 658.68L567.81 662.5C566.53 664.41 565.22 666.38 563.81 668.5C561.91 671.4 560.21 674.04 558.64 676.56C558.026 677.531 557.462 678.532 556.95 679.56C556.15 681.188 555.436 682.857 554.81 684.56C554.63 685.02 554.46 685.48 554.3 685.95C553.067 689.59 552.065 693.304 551.3 697.07C551.18 697.64 551.06 698.22 550.95 698.81C550.72 699.99 550.5 701.17 550.3 702.36C550.2 702.96 550.11 703.56 550.01 704.17C549.82 705.4 549.65 706.62 549.49 707.85C549.33 709.08 549.18 710.33 549.05 711.58C548.92 712.83 548.79 714.09 548.68 715.33V715.7C548.607 716.44 548.547 717.17 548.5 717.89V718.09C548.5 718.81 548.4 719.49 548.36 720.16V720.35C548.17 723.21 548.03 726.18 547.95 729.18V729.26C547.85 732.74 547.817 736.243 547.85 739.77V739.82C547.85 742.82 547.96 745.89 548.08 748.93V749.03C548.17 751.03 548.27 753.1 548.39 755.1C548.39 755.1 548.47 756.41 548.47 756.43C548.55 757.67 548.64 758.77 548.71 759.72L548.85 761.44L549.05 763.56C549.335 766.344 549.034 769.156 548.164 771.815C547.295 774.475 545.877 776.922 544.002 778.999C542.128 781.077 539.838 782.737 537.281 783.874C534.725 785.011 531.958 785.599 529.16 785.6H161.71Z" fill="#231F20"/>
<path d="M161.71 765.6C161.71 765.6 169.05 697.82 149.11 665.92C129.17 634.02 116.5 624.06 116.5 584.18V201.41C116.5 161.54 129.18 151.57 149.11 119.68C169.04 87.79 161.71 20 161.71 20H515.86C515.86 20 523.2 87.78 503.26 119.68C483.32 151.58 470.65 161.54 470.65 201.41V584.18C470.65 624.06 483.33 634.02 503.26 665.92C523.19 697.82 515.86 765.6 515.86 765.6H161.71Z" fill="#71A29E"/>
<path d="M183.7 665.92C163.76 634.02 151.09 624.06 151.09 584.18V201.41C151.09 161.54 163.76 151.57 183.7 119.68C203.64 87.79 196.3 20 196.3 20H161.71C161.71 20 169.05 87.78 149.11 119.68C129.17 151.58 116.5 161.54 116.5 201.41V584.18C116.5 624.06 129.18 634.02 149.11 665.92C169.04 697.82 161.71 765.6 161.71 765.6H196.3C196.3 765.6 203.59 697.82 183.7 665.92Z" fill="#587B75"/>
<path d="M529.16 765.6C529.16 765.6 521.82 697.82 541.76 665.92C561.7 634.02 574.37 624.06 574.37 584.18V201.41C574.37 161.54 561.69 151.57 541.76 119.68C521.83 87.79 529.16 20 529.16 20H175.01C175.01 20 167.67 87.78 187.61 119.68C207.55 151.58 220.22 161.54 220.22 201.41V584.18C220.22 624.06 207.55 634.02 187.61 665.92C167.67 697.82 175.01 765.6 175.01 765.6H529.16Z" fill="#C5E6DC"/>
<path d="M574.37 323.02H220.22V462.6H574.37V323.02Z" fill="#48BEA2"/>
<path d="M401.25 541.319C483.275 541.319 549.77 474.825 549.77 392.799C549.77 310.774 483.275 244.279 401.25 244.279C319.225 244.279 252.73 310.774 252.73 392.799C252.73 474.825 319.225 541.319 401.25 541.319Z" fill="#FAF28C"/>
<path d="M529.16 20H175.01C173.397 37.1565 173.256 54.4196 174.59 71.6H528.78C527.427 54.4209 527.554 37.1573 529.16 20Z" fill="#98CFC0"/>
<path d="M174.59 713.971C173.242 731.16 173.369 748.433 174.97 765.601H529.16C527.553 748.433 527.426 731.16 528.78 713.971H174.59Z" fill="#98CFC0"/>
<g style="mix-blend-mode:multiply">
<path d="M219.59 598.54C216.76 627.06 204.94 638.24 187.59 665.92C167.65 697.82 174.99 765.6 174.99 765.6H529.16C529.16 765.6 521.82 697.82 541.76 665.92C561.7 634.02 574.37 624.06 574.37 584.18V201.41C574.37 201.41 550.59 598.54 219.59 598.54Z" fill="#CEEAE2"/>
</g>
<path d="M523.96 593.2C543.185 593.2 558.77 577.615 558.77 558.39C558.77 539.165 543.185 523.58 523.96 523.58C504.735 523.58 489.15 539.165 489.15 558.39C489.15 577.615 504.735 593.2 523.96 593.2Z" fill="#E9F3F9"/>
<g style="mix-blend-mode:multiply">
<path d="M574.37 584.181V499.081L572.43 496.961C572.43 496.961 560.78 675.901 187.59 665.921C167.65 697.821 174.99 765.601 174.99 765.601H529.16C529.16 765.601 521.82 697.821 541.76 665.921C561.7 634.021 574.37 624.061 574.37 584.181Z" fill="#CEEAE2"/>
</g>
<path d="M348.51 169.51C348.567 173.681 347.778 177.82 346.19 181.677C344.602 185.534 342.248 189.029 339.27 191.95C336.385 194.974 332.906 197.369 329.051 198.983C325.196 200.597 321.049 201.396 316.87 201.33H301.13C299.705 201.365 298.283 201.19 296.91 200.81C295.951 200.565 295.121 199.964 294.59 199.13C294.155 198.42 293.863 197.632 293.73 196.81C293.603 195.768 293.546 194.719 293.56 193.67V145.86C293.54 144.858 293.584 143.856 293.69 142.86C293.833 142.072 294.111 141.314 294.51 140.62C294.756 140.178 295.088 139.79 295.486 139.479C295.885 139.168 296.342 138.94 296.83 138.81C298.257 138.427 299.733 138.256 301.21 138.3C302.93 138.3 305.57 138.3 309.13 138.3C312.68 138.3 315.35 138.3 317.13 138.3C321.198 138.28 325.23 139.065 328.994 140.61C332.757 142.155 336.178 144.428 339.06 147.3C342.121 150.119 344.547 153.558 346.176 157.387C347.806 161.217 348.601 165.349 348.51 169.51ZM333.29 169.85C333.335 167.688 332.926 165.542 332.088 163.549C331.251 161.556 330.005 159.761 328.43 158.28C326.938 156.781 325.162 155.596 323.206 154.792C321.251 153.989 319.154 153.583 317.04 153.6H308.78V186.11H317.12C321.305 186.087 325.316 184.433 328.3 181.5C329.924 180.034 331.211 178.233 332.073 176.222C332.934 174.211 333.349 172.037 333.29 169.85Z" fill="#115E49"/>
<path d="M391 156.09C392.451 156.047 393.901 156.222 395.3 156.61C395.785 156.735 396.238 156.96 396.63 157.27C397.023 157.579 397.346 157.968 397.58 158.41C397.958 159.124 398.218 159.894 398.35 160.69C398.456 161.687 398.499 162.689 398.48 163.69V193.79C398.499 194.792 398.456 195.794 398.35 196.79C398.221 197.572 397.961 198.326 397.58 199.02C397.34 199.454 397.014 199.834 396.622 200.136C396.23 200.439 395.78 200.658 395.3 200.78C393.871 201.172 392.391 201.348 390.91 201.3C388.33 201.3 386.51 200.914 385.45 200.14C384.915 199.74 384.473 199.229 384.154 198.643C383.834 198.056 383.645 197.407 383.6 196.74C381.48 199.78 378.04 201.3 373.28 201.3C368.12 201.3 363.42 199.037 359.18 194.51C355.043 190.254 352.754 184.536 352.81 178.6C352.799 175.705 353.359 172.835 354.459 170.156C355.559 167.478 357.177 165.042 359.22 162.99C363.487 158.49 368.173 156.24 373.28 156.24C375.106 156.205 376.921 156.545 378.61 157.24C379.828 157.696 380.963 158.348 381.97 159.17C382.541 159.711 383.059 160.304 383.52 160.94C383.553 160.24 383.735 159.555 384.054 158.931C384.374 158.307 384.822 157.758 385.37 157.32C386.423 156.5 388.3 156.09 391 156.09ZM375.59 186.19C376.575 186.207 377.552 186.008 378.452 185.608C379.352 185.207 380.154 184.614 380.8 183.87C382.135 182.483 382.886 180.636 382.9 178.71C382.882 176.805 382.171 174.971 380.9 173.55C380.236 172.756 379.398 172.126 378.451 171.708C377.504 171.29 376.474 171.096 375.44 171.14C374.408 171.109 373.382 171.31 372.437 171.727C371.492 172.144 370.653 172.767 369.98 173.55C368.648 174.973 367.896 176.842 367.87 178.79C367.88 179.751 368.083 180.699 368.468 181.579C368.853 182.458 369.412 183.251 370.11 183.91C370.816 184.649 371.668 185.232 372.611 185.625C373.554 186.017 374.569 186.21 375.59 186.19Z" fill="#115E49"/>
<path d="M412.84 149.98C411.389 150.022 409.941 149.85 408.54 149.47C408.056 149.342 407.603 149.115 407.211 148.804C406.818 148.492 406.494 148.103 406.26 147.66C405.877 146.949 405.617 146.178 405.49 145.38C405.384 144.384 405.34 143.382 405.36 142.38C405.341 141.378 405.384 140.377 405.49 139.38C405.615 138.595 405.875 137.837 406.26 137.14C406.5 136.707 406.826 136.327 407.218 136.024C407.61 135.722 408.06 135.502 408.54 135.38C409.971 134.997 411.45 134.826 412.93 134.87C414.381 134.829 415.829 135.001 417.23 135.38C417.715 135.507 418.168 135.733 418.561 136.044C418.954 136.356 419.277 136.746 419.51 137.19C419.888 137.904 420.148 138.674 420.28 139.47C420.453 141.443 420.453 143.427 420.28 145.4C420.152 146.185 419.892 146.943 419.51 147.64C419.268 148.072 418.942 148.451 418.55 148.753C418.158 149.056 417.709 149.276 417.23 149.4C415.803 149.807 414.324 150.002 412.84 149.98ZM405.36 163.66C405.341 162.658 405.384 161.657 405.49 160.66C405.614 159.877 405.874 159.122 406.26 158.43C406.501 157.997 406.827 157.616 407.219 157.312C407.611 157.008 408.06 156.786 408.54 156.66C409.971 156.277 411.45 156.106 412.93 156.15C414.165 156.129 415.397 156.281 416.59 156.6C417.396 156.78 418.158 157.12 418.83 157.6C419.359 158.072 419.747 158.681 419.95 159.36C420.175 160.007 420.32 160.678 420.38 161.36C420.38 161.91 420.38 162.72 420.38 163.81V193.91C420.399 194.912 420.355 195.914 420.25 196.91C420.121 197.692 419.861 198.446 419.48 199.14C419.24 199.575 418.914 199.956 418.522 200.26C418.13 200.564 417.68 200.786 417.2 200.91C415.769 201.293 414.29 201.465 412.81 201.42C411.359 201.462 409.911 201.29 408.51 200.91C408.026 200.782 407.573 200.555 407.181 200.244C406.788 199.932 406.465 199.543 406.23 199.1C405.853 198.404 405.593 197.651 405.46 196.87C405.355 195.874 405.311 194.872 405.33 193.87L405.36 163.66Z" fill="#115E49"/>
<path d="M443.97 202.19C438.16 202.195 432.472 200.521 427.59 197.37C427.074 197.063 426.65 196.622 426.363 196.094C426.076 195.566 425.937 194.971 425.96 194.37C425.96 192.71 427.05 190.36 429.23 187.32C429.542 186.839 429.978 186.449 430.491 186.193C431.005 185.936 431.577 185.821 432.15 185.86C434.028 185.986 435.84 186.607 437.4 187.66C440.207 189.274 442.583 190.077 444.53 190.07C448.03 190.07 449.78 189.384 449.78 188.01C449.78 187.43 449.23 186.95 448.15 186.54C446.81 186.084 445.426 185.769 444.02 185.6C442.18 185.327 440.375 184.851 438.64 184.18C436.768 183.485 434.97 182.608 433.27 181.56C431.462 180.362 430.03 178.677 429.14 176.7C427.997 174.238 427.439 171.544 427.51 168.83C427.51 159.77 433.73 155.24 446.17 155.24C450.514 155.306 454.793 156.302 458.72 158.16C460.72 159.08 461.72 160.344 461.72 161.95C461.529 163.626 460.909 165.224 459.92 166.59C458.587 168.664 457.253 169.697 455.92 169.69C454.9 169.597 453.908 169.305 453 168.83C450.821 167.75 448.431 167.162 446 167.11C442.62 167.11 440.93 167.74 440.93 169C440.959 169.491 441.134 169.963 441.434 170.353C441.733 170.743 442.143 171.035 442.61 171.19C443.94 171.798 445.364 172.176 446.82 172.31C448.669 172.545 450.495 172.933 452.28 173.47C454.156 174.02 455.982 174.726 457.74 175.58C459.542 176.522 461.014 177.991 461.96 179.79C463.134 182.029 463.709 184.533 463.63 187.06C463.719 189.751 463.146 192.423 461.96 194.84C460.923 196.857 459.264 198.487 457.23 199.49C455.267 200.465 453.182 201.172 451.03 201.59C448.7 202.007 446.337 202.208 443.97 202.19Z" fill="#115E49"/>
<path d="M508.04 156.6C511.42 158.09 513.12 159.89 513.12 162.01C512.968 163.459 512.529 164.862 511.83 166.14V166.23C511.804 166.251 511.783 166.276 511.767 166.306C511.752 166.335 511.743 166.367 511.74 166.4L489.21 216.8C488.75 217.89 488.36 218.72 488.05 219.29C487.665 219.935 487.151 220.493 486.54 220.93C485.843 221.445 484.996 221.715 484.13 221.7C482.486 221.572 480.881 221.134 479.4 220.41C476.02 218.917 474.33 217.14 474.33 215.08C474.515 213.515 474.982 211.997 475.71 210.6C477.83 205.727 480.123 200.653 482.59 195.38L465.47 166.6C464.57 165.353 463.98 163.91 463.75 162.39C463.75 160.55 465.3 158.72 468.4 156.88C469.891 155.887 471.613 155.298 473.4 155.17C474.198 155.164 474.98 155.401 475.64 155.85C476.231 156.22 476.744 156.703 477.15 157.27L478.57 159.55C483.61 168.217 487.42 174.637 490 178.81C490.287 177.897 493.04 171.733 498.26 160.32C498.66 159.41 498.96 158.75 499.16 158.32C499.444 157.814 499.779 157.338 500.16 156.9C500.529 156.401 501.017 156.002 501.58 155.74C502.178 155.491 502.822 155.372 503.47 155.39C505.059 155.484 506.613 155.896 508.04 156.6Z" fill="#115E49"/>
<path d="M290.12 304.62C307.186 304.62 321.02 290.786 321.02 273.72C321.02 256.655 307.186 242.82 290.12 242.82C273.054 242.82 259.22 256.655 259.22 273.72C259.22 290.786 273.054 304.62 290.12 304.62Z" fill="#E9F3F9"/>
<path d="M269.17 237.89C278.487 237.89 286.04 230.337 286.04 221.02C286.04 211.703 278.487 204.15 269.17 204.15C259.853 204.15 252.3 211.703 252.3 221.02C252.3 230.337 259.853 237.89 269.17 237.89Z" fill="#E9F3F9"/>
<path d="M305.34 666.69C299.543 666.687 293.87 665.014 289 661.87C288.484 661.563 288.06 661.122 287.773 660.594C287.486 660.066 287.347 659.471 287.37 658.87C287.37 657.21 288.46 654.877 290.64 651.87C290.954 651.39 291.39 651.002 291.903 650.746C292.416 650.489 292.988 650.373 293.56 650.41C295.438 650.536 297.25 651.157 298.81 652.21C301.61 653.817 303.987 654.62 305.94 654.62C309.44 654.62 311.19 653.934 311.19 652.56C311.19 651.99 310.64 651.5 309.56 651.1C308.222 650.623 306.838 650.288 305.43 650.1C303.59 649.827 301.785 649.351 300.05 648.68C298.177 647.99 296.377 647.112 294.68 646.06C292.87 644.865 291.438 643.179 290.55 641.2C289.407 638.738 288.849 636.044 288.92 633.33C288.92 624.27 295.14 619.74 307.58 619.74C311.925 619.805 316.205 620.804 320.13 622.67C322.13 623.58 323.13 624.85 323.13 626.45C322.941 628.126 322.321 629.725 321.33 631.09C319.997 633.157 318.663 634.19 317.33 634.19C316.31 634.097 315.318 633.805 314.41 633.33C312.231 632.25 309.841 631.662 307.41 631.61C304.03 631.61 302.34 632.24 302.34 633.5C302.369 633.991 302.543 634.463 302.84 634.854C303.138 635.246 303.545 635.54 304.01 635.7C305.347 636.298 306.772 636.673 308.23 636.81C312.021 637.312 315.707 638.416 319.15 640.08C320.954 641.02 322.424 642.494 323.36 644.3C324.542 646.533 325.121 649.035 325.04 651.56C325.13 654.256 324.553 656.931 323.36 659.35C322.326 661.367 320.666 662.995 318.63 663.99C316.671 664.97 314.589 665.68 312.44 666.1C310.097 666.516 307.72 666.714 305.34 666.69Z" fill="#115E49"/>
<path d="M374.4 637.45C374.4 641.23 373.52 643.97 371.78 645.66C371.028 646.448 370.128 647.078 369.13 647.514C368.133 647.95 367.058 648.183 365.97 648.2H345.59C345.59 649.8 346.537 651.134 348.43 652.2C350.281 653.278 352.388 653.841 354.53 653.83C356 653.838 357.469 653.724 358.92 653.49C359.938 653.344 360.941 653.114 361.92 652.8L362.87 652.46C363.938 651.908 365.11 651.585 366.31 651.51C368.137 651.51 369.713 652.8 371.04 655.38C371.698 656.616 372.077 657.982 372.15 659.38C372.15 664.48 366.047 667.03 353.84 667.03C349.978 667.095 346.146 666.348 342.59 664.84C339.579 663.6 336.93 661.618 334.89 659.08C333.115 656.817 331.732 654.271 330.8 651.55C329.917 648.948 329.467 646.218 329.47 643.47C329.47 636.237 331.803 630.46 336.47 626.14C341.137 621.82 346.97 619.657 353.97 619.65C356.596 619.619 359.209 620.01 361.71 620.81C363.822 621.457 365.802 622.473 367.56 623.81C369.08 625.011 370.4 626.446 371.47 628.06C372.465 629.531 373.233 631.142 373.75 632.84C374.185 634.338 374.403 635.89 374.4 637.45ZM356.25 640.37C358.43 640.37 359.52 639.46 359.52 637.62C359.539 637.009 359.413 636.403 359.152 635.85C358.891 635.297 358.503 634.814 358.02 634.44C356.748 633.557 355.215 633.13 353.67 633.23C351.624 633.315 349.675 634.123 348.17 635.51C346.33 637.03 345.42 638.65 345.42 640.37H356.25Z" fill="#115E49"/>
<path d="M423.68 637.45C423.68 641.23 422.803 643.967 421.05 645.66C420.301 646.448 419.402 647.078 418.406 647.514C417.41 647.95 416.337 648.183 415.25 648.2H394.87C394.87 649.8 395.81 651.15 397.71 652.2C399.561 653.278 401.668 653.841 403.81 653.83C405.28 653.838 406.748 653.724 408.2 653.49C409.217 653.343 410.221 653.112 411.2 652.8L412.14 652.46C413.219 651.939 414.393 651.646 415.59 651.6C417.43 651.6 419 652.89 420.32 655.47C420.985 656.704 421.368 658.07 421.44 659.47C421.44 664.57 415.333 667.12 403.12 667.12C399.238 667.191 395.385 666.445 391.81 664.93C388.803 663.687 386.158 661.706 384.12 659.17C382.345 656.907 380.962 654.361 380.03 651.64C379.147 649.038 378.697 646.308 378.7 643.56C378.7 636.327 381.033 630.55 385.7 626.23C390.367 621.91 396.2 619.747 403.2 619.74C405.826 619.709 408.439 620.1 410.94 620.9C414.951 622.087 418.41 624.66 420.7 628.16C421.695 629.63 422.463 631.242 422.98 632.94C423.422 634.403 423.658 635.921 423.68 637.45ZM405.53 640.37C407.71 640.37 408.8 639.46 408.8 637.62C408.819 637.008 408.692 636.4 408.43 635.847C408.167 635.294 407.776 634.812 407.29 634.44C406.022 633.557 404.492 633.13 402.95 633.23C400.904 633.314 398.955 634.122 397.45 635.51C395.61 637.03 394.7 638.65 394.7 640.37H405.53Z" fill="#115E49"/>
<path d="M466.33 599.44C467.781 599.398 469.229 599.57 470.63 599.95C471.114 600.078 471.567 600.305 471.959 600.616C472.352 600.928 472.675 601.317 472.91 601.76C473.291 602.473 473.554 603.243 473.69 604.04C473.786 605.037 473.826 606.038 473.81 607.04V658.39C473.826 659.391 473.786 660.393 473.69 661.39C473.556 662.18 473.278 662.94 472.87 663.63C472.618 664.061 472.283 664.439 471.885 664.741C471.487 665.043 471.033 665.263 470.55 665.39C469.121 665.782 467.641 665.957 466.16 665.91C461.8 665.91 459.4 664.5 458.94 661.69C456.533 664.45 453.18 665.826 448.88 665.82C443.713 665.82 439.01 663.57 434.77 659.07C430.624 654.803 428.337 649.068 428.41 643.12C428.395 637.287 430.697 631.686 434.81 627.55C439.077 623.023 443.767 620.76 448.88 620.76C453.12 620.76 456.413 622.193 458.76 625.06V606.92C458.746 605.918 458.79 604.916 458.89 603.92C459.022 603.138 459.286 602.384 459.67 601.69C459.911 601.256 460.237 600.876 460.629 600.572C461.021 600.268 461.47 600.046 461.95 599.92C463.379 599.548 464.854 599.386 466.33 599.44ZM445.69 648.44C446.382 649.183 447.221 649.773 448.155 650.173C449.088 650.573 450.095 650.772 451.11 650.76C452.107 650.78 453.097 650.582 454.01 650.182C454.924 649.781 455.739 649.187 456.4 648.44C457.738 647.053 458.493 645.206 458.51 643.28C458.486 641.375 457.776 639.543 456.51 638.12C455.846 637.326 455.008 636.696 454.061 636.279C453.114 635.861 452.084 635.666 451.05 635.71C450.014 635.671 448.983 635.862 448.03 636.27C447.077 636.678 446.226 637.293 445.54 638.07C444.226 639.488 443.491 641.347 443.48 643.28C443.486 644.247 443.684 645.203 444.064 646.092C444.443 646.982 444.996 647.786 445.69 648.46V648.44Z" fill="#115E49"/>
<path d="M497.38 666.69C491.583 666.687 485.91 665.014 481.04 661.87C480.522 661.564 480.097 661.123 479.808 660.595C479.52 660.067 479.379 659.471 479.4 658.87C479.4 657.21 480.49 654.877 482.67 651.87C482.986 651.389 483.423 651.001 483.938 650.744C484.453 650.488 485.026 650.373 485.6 650.41C487.475 650.535 489.284 651.156 490.84 652.21C493.647 653.817 496.027 654.62 497.98 654.62C501.48 654.62 503.23 653.934 503.23 652.56C503.23 651.99 502.68 651.5 501.59 651.1C500.253 650.622 498.868 650.287 497.46 650.1C495.623 649.826 493.822 649.35 492.09 648.68C490.214 647.988 488.412 647.11 486.71 646.06C484.903 644.864 483.474 643.179 482.59 641.2C481.444 638.739 480.882 636.045 480.95 633.33C480.95 624.27 487.17 619.74 499.61 619.74C503.958 619.805 508.242 620.804 512.17 622.67C514.17 623.58 515.17 624.85 515.17 626.45C514.981 628.128 514.357 629.727 513.36 631.09C512.04 633.16 510.73 634.19 509.41 634.19C508.387 634.097 507.391 633.805 506.48 633.33C504.302 632.247 501.912 631.66 499.48 631.61C496.087 631.61 494.393 632.24 494.4 633.5C494.43 633.992 494.605 634.465 494.905 634.856C495.204 635.248 495.613 635.542 496.08 635.7C497.413 636.298 498.835 636.673 500.29 636.81C502.142 637.049 503.971 637.437 505.76 637.97C507.635 638.521 509.461 639.227 511.22 640.08C513.02 641.026 514.488 642.498 515.43 644.3C516.612 646.533 517.191 649.035 517.11 651.56C517.2 654.256 516.623 656.931 515.43 659.35C514.393 661.365 512.734 662.992 510.7 663.99C508.741 664.968 506.659 665.678 504.51 666.1C502.157 666.518 499.77 666.715 497.38 666.69Z" fill="#115E49"/>
<g style="mix-blend-mode:multiply">
<path d="M400.66 576.85C442.242 576.85 475.95 568.679 475.95 558.6C475.95 548.52 442.242 540.35 400.66 540.35C359.078 540.35 325.37 548.52 325.37 558.6C325.37 568.679 359.078 576.85 400.66 576.85Z" fill="#A7A9AC"/>
</g>
<path d="M390.59 558.6C389.685 558.599 388.793 558.377 387.994 557.952C387.194 557.527 386.511 556.913 386.004 556.163C385.497 555.413 385.181 554.55 385.084 553.65C384.988 552.75 385.113 551.84 385.45 551L385.51 550.86C395.025 527.247 403.143 503.096 409.82 478.53C404.598 462.839 397.271 447.93 388.04 434.21C373.77 428.9 349.17 415.66 332.34 384.36C325.16 370.99 320.11 355.549 317.34 338.449C317.211 337.657 317.256 336.847 317.471 336.074C317.687 335.301 318.068 334.584 318.589 333.973C319.109 333.362 319.756 332.872 320.485 332.536C321.214 332.201 322.007 332.028 322.81 332.03C323.108 332.028 323.406 332.052 323.7 332.1C324.46 332.22 333.82 333.87 346.23 341.29C345.408 337.145 345.677 332.859 347.01 328.85C347.19 328.32 347.39 327.78 347.6 327.26C347.71 326.99 347.83 326.729 347.95 326.46C348.456 325.356 349.041 324.289 349.7 323.27C346.619 321.52 343.959 319.117 341.905 316.231C339.851 313.344 338.453 310.043 337.81 306.56V306.41C337.75 306.03 337.69 305.63 337.64 305.24V304.98C337.64 304.62 337.57 304.26 337.54 303.87C337.54 303.76 337.54 303.67 337.54 303.58C337.54 303.07 337.54 302.58 337.54 302.18C337.539 298.791 338.245 295.44 339.614 292.34C340.983 289.24 342.985 286.461 345.49 284.18C346.06 283.66 346.67 283.18 347.29 282.69C348.094 282.089 348.936 281.541 349.81 281.05C350.11 280.87 350.43 280.7 350.75 280.54H350.83C349.038 277.483 347.936 274.071 347.601 270.544C347.266 267.017 347.706 263.459 348.89 260.12V259.98C349.02 259.61 349.17 259.24 349.32 258.87L349.42 258.64C349.57 258.3 349.72 257.97 349.89 257.64L350.01 257.4C350.24 256.94 350.45 256.54 350.67 256.17C353.489 251.286 357.919 247.535 363.2 245.56C364.653 245.021 366.153 244.619 367.68 244.36C368.834 244.169 370.001 244.059 371.17 244.03H371.69H373C372.981 240.488 373.735 236.984 375.208 233.764C376.681 230.543 378.838 227.682 381.53 225.38L381.65 225.29C381.95 225.03 382.26 224.78 382.58 224.55L382.78 224.39L383.69 223.75L383.92 223.6C384.35 223.32 384.73 223.08 385.11 222.87C387.869 221.271 390.917 220.234 394.078 219.817C397.239 219.4 400.451 219.612 403.53 220.44L404.64 220.77C406.71 221.427 408.681 222.363 410.5 223.55C412.241 220.462 414.636 217.793 417.517 215.728C420.399 213.664 423.697 212.255 427.18 211.6H427.3L428.5 211.42H428.77C429.12 211.42 429.48 211.34 429.87 211.32H430.16C430.67 211.32 431.16 211.27 431.56 211.27C435.451 211.274 439.284 212.213 442.736 214.007C446.189 215.801 449.16 218.398 451.4 221.58C451.854 222.222 452.271 222.89 452.65 223.58C452.83 223.89 453 224.21 453.16 224.53V224.6C456.208 222.785 459.617 221.66 463.147 221.305C466.676 220.949 470.241 221.37 473.59 222.54L473.73 222.59C474.1 222.73 474.47 222.87 474.84 223.03L475.08 223.13C475.42 223.28 475.75 223.43 476.08 223.6L476.32 223.72C476.77 223.95 477.17 224.16 477.55 224.38C480.479 226.073 483.021 228.359 485.015 231.092C487.009 233.825 488.411 236.944 489.13 240.25C489.21 240.63 489.29 241.01 489.35 241.39C489.54 242.541 489.65 243.703 489.68 244.87C489.68 245.47 489.68 246.08 489.68 246.69H489.82C493.341 246.686 496.82 247.449 500.017 248.926C503.213 250.402 506.05 252.557 508.33 255.24L508.41 255.34C508.68 255.65 508.93 255.97 509.17 256.29L509.33 256.5C509.54 256.78 509.75 257.09 509.97 257.4C510.03 257.48 510.08 257.56 510.13 257.64C510.41 258.06 510.65 258.45 510.87 258.82C513.685 263.702 514.714 269.412 513.78 274.97C513.72 275.35 513.65 275.73 513.56 276.11C513.4 276.87 513.2 277.621 512.96 278.36C512.608 279.471 512.174 280.554 511.66 281.6C511.224 282.501 510.73 283.373 510.18 284.21C513.258 285.962 515.917 288.365 517.971 291.251C520.025 294.137 521.423 297.437 522.07 300.92V301.06C522.14 301.45 522.2 301.84 522.25 302.24V302.51C522.25 302.86 522.33 303.23 522.35 303.62V303.91C522.35 304.42 522.35 304.91 522.35 305.3C522.345 309.13 521.437 312.906 519.699 316.32C517.962 319.734 515.444 322.691 512.35 324.95C511.313 325.699 510.22 326.368 509.08 326.95C511.399 330.797 512.613 335.208 512.59 339.699C528.25 328.699 540.93 326.53 541.82 326.39C542.102 326.35 542.386 326.33 542.67 326.33C543.476 326.329 544.273 326.503 545.004 326.842C545.735 327.18 546.384 327.674 546.905 328.29C547.426 328.905 547.806 329.626 548.019 330.403C548.233 331.18 548.274 331.995 548.14 332.79C545.25 349.85 540.14 365.249 532.83 378.569V378.63C518.27 405.12 498.2 418.6 483.59 425.24C465.89 441.96 450.44 447.24 441.92 448.94C440.2 457.27 438.24 465.809 436.09 474.389C429.269 501.791 420.783 528.751 410.68 555.12C410.274 556.14 409.573 557.017 408.666 557.636C407.759 558.256 406.688 558.592 405.59 558.6H390.59ZM396.18 404.03C404.854 414.839 412.536 426.409 419.13 438.6C422.04 423.79 424.19 409.6 425.57 396.079C420.126 395.447 415.061 392.978 411.21 389.079C410.94 388.809 410.67 388.53 410.41 388.24C408.954 386.635 407.719 384.842 406.74 382.91C403.828 384.619 400.592 385.702 397.237 386.09C393.883 386.477 390.485 386.16 387.26 385.16L388.06 386.61L388.2 386.87C388.6 387.6 388.99 388.329 389.38 389.079L389.49 389.3C390.29 390.84 391.08 392.419 391.84 394.009L391.98 394.3C392.35 395.08 392.72 395.86 393.08 396.66L393.23 396.98L394.34 399.47C394.7 400.31 395.06 401.149 395.42 402.009L395.55 402.31C395.78 402.95 395.99 403.48 396.21 404.02L396.18 404.03ZM450.99 384.93C450.7 389.39 450.31 393.93 449.84 398.5C449.08 405.98 448.07 413.749 446.84 421.71C448.23 421.06 449.71 420.29 451.28 419.38C455.919 416.65 460.274 413.465 464.28 409.87C464.49 409.27 464.69 408.68 464.89 408.09L465.07 407.579C465.38 406.68 465.7 405.779 466.07 404.889L466.17 404.62C466.49 403.74 466.82 402.87 467.17 402.02L467.26 401.79C467.6 400.9 467.94 400.04 468.26 399.18L468.43 398.759C468.77 397.909 469.12 397.07 469.43 396.24L469.56 395.94C469.92 395.09 470.29 394.24 470.66 393.41L471.77 390.949L471.93 390.62C472.3 389.83 472.67 389.04 473.05 388.27L473.19 387.98C473.72 386.89 474.26 385.8 474.82 384.73C471.136 386.852 466.961 387.972 462.71 387.98C461.37 387.974 460.032 387.861 458.71 387.639C457.95 387.509 457.19 387.35 456.44 387.15C456 387.03 455.56 386.89 455.04 386.72C454.52 386.55 453.98 386.35 453.45 386.13L452.66 385.78C452.1 385.48 451.59 385.21 451.02 384.92L450.99 384.93ZM486.99 363.49C486.99 364.04 486.99 364.59 486.99 365.13C487.38 364.59 487.79 364.06 488.19 363.53C487.76 363.52 487.37 363.51 486.98 363.48L486.99 363.49ZM370.21 361.19C370.21 361.05 370.21 360.91 370.21 360.77H369.81L370.21 361.19Z" fill="#231F20"/>
<path d="M507.89 385.291L496.5 378.441C480.35 405.291 464.5 418.131 454.09 424.171C449.654 426.804 444.871 428.804 439.88 430.111C441.813 419.004 443.307 408.277 444.36 397.931C447.36 368.751 446.8 342.801 442.74 320.811L429.66 323.221C436 357.521 433.06 403.051 421.22 455.551C412.311 435.669 400.544 417.197 386.29 400.721C371.21 383.191 358.56 373.521 358.02 373.121L350.02 383.711C350.14 383.801 362.29 393.111 376.48 409.711C389.22 424.571 406.24 448.451 415.67 478.421C408.856 503.794 400.507 528.73 390.67 553.091H405.59C415.597 526.959 424.006 500.243 430.77 473.091C433.243 463.217 435.423 453.551 437.31 444.091C445.06 443.281 476.83 436.961 507.89 385.291Z" fill="#4CA84E"/>
<path d="M440.73 271.51H422.39L412.83 235.51C412.823 233.044 413.304 230.601 414.244 228.321C415.184 226.04 416.566 223.968 418.309 222.223C420.052 220.478 422.122 219.095 424.402 218.152C426.681 217.21 429.124 216.727 431.59 216.73C434.051 216.73 436.487 217.215 438.76 218.157C441.033 219.099 443.098 220.48 444.838 222.22C446.577 223.96 447.956 226.026 448.897 228.3C449.838 230.573 450.321 233.01 450.32 235.47L440.73 271.51Z" fill="#F4F0EA"/>
<path d="M431.59 216.73C430.107 216.732 428.63 216.91 427.19 217.26C431.274 218.249 434.908 220.583 437.507 223.885C440.106 227.188 441.519 231.268 441.52 235.47L431.96 271.47H440.76L450.32 235.47C450.321 233.01 449.838 230.573 448.897 228.3C447.956 226.026 446.577 223.96 444.838 222.22C443.098 220.48 441.033 219.099 438.76 218.157C436.487 217.215 434.05 216.73 431.59 216.73Z" fill="#EFCC6B"/>
<path d="M431.59 216.73C430.107 216.732 428.63 216.91 427.19 217.26C431.274 218.249 434.908 220.583 437.507 223.885C440.106 227.188 441.519 231.268 441.52 235.47L431.96 271.47H440.76L450.32 235.47C450.321 233.01 449.838 230.573 448.897 228.3C447.956 226.026 446.577 223.96 444.838 222.22C443.098 220.48 441.033 219.099 438.76 218.157C436.487 217.215 434.05 216.73 431.59 216.73Z" fill="#E5E3E5"/>
<g style="mix-blend-mode:multiply" opacity="0.58">
<path d="M449 240.33L448.89 239.9C448.89 239.9 442.47 261.19 419.65 261.19L422.39 271.51H440.73L449 240.33Z" fill="#B6BCCC"/>
</g>
<path d="M423.18 270.45L407.29 279.6L380.99 253.16C378.517 248.859 377.851 243.754 379.137 238.962C380.423 234.171 383.556 230.085 387.85 227.6C392.154 225.118 397.267 224.447 402.065 225.733C406.864 227.019 410.955 230.158 413.44 234.46L423.18 270.45Z" fill="#F4F0EA"/>
<path d="M387.85 227.6C386.565 228.342 385.373 229.235 384.3 230.26C388.33 229.073 392.643 229.276 396.544 230.836C400.445 232.396 403.709 235.222 405.81 238.86L415.56 274.86L423.18 270.46L413.44 234.46C410.955 230.158 406.864 227.019 402.065 225.733C397.267 224.447 392.154 225.118 387.85 227.6Z" fill="#EFCC6B"/>
<path d="M387.85 227.6C386.565 228.342 385.373 229.235 384.3 230.26C388.33 229.073 392.643 229.276 396.544 230.836C400.445 232.396 403.709 235.222 405.81 238.86L415.56 274.86L423.18 270.46L413.44 234.46C410.955 230.158 406.864 227.019 402.065 225.733C397.267 224.447 392.154 225.118 387.85 227.6Z" fill="#E5E3E5"/>
<g style="mix-blend-mode:multiply" opacity="0.58">
<path d="M414.75 239.31L414.44 239C414.44 239 419.53 260.64 399.76 272.05L407.29 279.6L423.18 270.43L414.75 239.31Z" fill="#B6BCCC"/>
</g>
<path d="M407.44 278.301L398.27 294.191L362.27 284.451C357.968 281.966 354.829 277.874 353.543 273.076C352.256 268.277 352.928 263.164 355.41 258.861C357.895 254.559 361.986 251.42 366.785 250.133C371.583 248.847 376.696 249.519 381 252.001L407.44 278.301Z" fill="#F4F0EA"/>
<path d="M355.42 258.859C354.681 260.143 354.093 261.509 353.67 262.929C356.566 259.888 360.398 257.906 364.554 257.302C368.71 256.698 372.949 257.507 376.59 259.599L403.02 285.899L407.42 278.279L380.99 251.979C376.686 249.505 371.576 248.84 366.782 250.13C361.988 251.42 357.902 254.559 355.42 258.859Z" fill="#EFCC6B"/>
<path d="M355.42 258.859C354.681 260.143 354.093 261.509 353.67 262.929C356.566 259.888 360.398 257.906 364.554 257.302C368.71 256.698 372.949 257.507 376.59 259.599L403.02 285.899L407.42 278.279L380.99 251.979C376.686 249.505 371.576 248.84 366.782 250.13C361.988 251.42 357.902 254.559 355.42 258.859Z" fill="#E5E3E5"/>
<g style="mix-blend-mode:multiply" opacity="0.58">
<path d="M384.59 255.6L384.17 255.48C384.17 255.48 399.4 271.68 387.99 291.48L398.29 294.27L407.46 278.38L384.59 255.6Z" fill="#B6BCCC"/>
</g>
<path d="M397.75 292.97V311.31L361.75 320.87C356.782 320.87 352.018 318.897 348.506 315.384C344.993 311.872 343.02 307.108 343.02 302.14C343.023 297.173 344.997 292.411 348.509 288.899C352.021 285.387 356.783 283.413 361.75 283.41L397.75 292.97Z" fill="#F4F0EA"/>
<path d="M342.97 302.14C342.969 303.622 343.143 305.099 343.49 306.54C344.481 302.457 346.814 298.824 350.116 296.225C353.419 293.627 357.498 292.213 361.7 292.21L397.7 301.77V292.97L361.7 283.41C356.733 283.413 351.971 285.387 348.459 288.899C344.947 292.411 342.973 297.173 342.97 302.14Z" fill="#EFCC6B"/>
<path d="M342.97 302.14C342.969 303.622 343.143 305.099 343.49 306.54C344.481 302.457 346.814 298.824 350.116 296.225C353.419 293.627 357.498 292.213 361.7 292.21L397.7 301.77V292.97L361.7 283.41C356.733 283.413 351.971 285.387 348.459 288.899C344.947 292.411 342.973 297.173 342.97 302.14Z" fill="#E5E3E5"/>
<g style="mix-blend-mode:multiply" opacity="0.58">
<path d="M366.59 284.699L366.17 284.809C366.17 284.809 387.46 291.229 387.46 314.049L397.78 311.309V292.969L366.59 284.699Z" fill="#B6BCCC"/>
</g>
<path d="M396.68 310.52L405.85 326.41L379.42 352.71C375.118 355.192 370.006 355.866 365.207 354.581C360.409 353.297 356.317 350.16 353.83 345.86C351.348 341.556 350.676 336.443 351.963 331.644C353.249 326.846 356.388 322.754 360.69 320.27L396.68 310.52Z" fill="#F4F0EA"/>
<path d="M353.83 345.86C354.571 347.142 355.464 348.331 356.49 349.4C355.301 345.369 355.503 341.056 357.063 337.155C358.623 333.253 361.45 329.989 365.09 327.889L401.09 318.15L396.69 310.52L360.69 320.27C356.388 322.754 353.249 326.846 351.963 331.644C350.676 336.443 351.348 341.556 353.83 345.86Z" fill="#EFCC6B"/>
<path d="M353.83 345.86C354.571 347.142 355.464 348.331 356.49 349.4C355.301 345.369 355.503 341.056 357.063 337.155C358.623 333.253 361.45 329.989 365.09 327.889L401.09 318.15L396.69 310.52L360.69 320.27C356.388 322.754 353.249 326.846 351.963 331.644C350.676 336.443 351.348 341.556 353.83 345.86Z" fill="#E5E3E5"/>
<g style="mix-blend-mode:multiply" opacity="0.58">
<path d="M365.59 318.95L365.28 319.26C365.28 319.26 386.92 314.17 398.33 333.94L405.9 326.41L396.73 310.52L365.59 318.95Z" fill="#B6BCCC"/>
</g>
<path d="M404.59 326.26L420.47 335.43L410.73 371.43C408.245 375.732 404.154 378.871 399.355 380.157C394.556 381.444 389.443 380.772 385.14 378.29C380.838 375.805 377.699 371.713 376.413 366.915C375.126 362.116 375.798 357.003 378.28 352.7L404.59 326.26Z" fill="#F4F0EA"/>
<path d="M385.09 378.28C386.375 379.025 387.745 379.613 389.17 380.03C386.125 377.131 384.144 373.293 383.543 369.133C382.943 364.972 383.759 360.731 385.86 357.09L412.16 330.66L404.54 326.26L378.23 352.69C375.748 356.993 375.076 362.106 376.363 366.905C377.649 371.703 380.788 375.795 385.09 378.28Z" fill="#EFCC6B"/>
<path d="M385.09 378.28C386.375 379.025 387.745 379.613 389.17 380.03C386.125 377.131 384.144 373.293 383.543 369.133C382.943 364.972 383.759 360.731 385.86 357.09L412.16 330.66L404.54 326.26L378.23 352.69C375.748 356.993 375.076 362.106 376.363 366.905C377.649 371.703 380.788 375.795 385.09 378.28Z" fill="#E5E3E5"/>
<g style="mix-blend-mode:multiply" opacity="0.58">
<path d="M381.78 349.13L381.67 349.55C381.67 349.55 397.87 334.32 417.67 345.74L420.46 335.43L404.59 326.26L381.78 349.13Z" fill="#B6BCCC"/>
</g>
<path d="M419.2 335.961H437.59L447.15 371.961C447.15 376.928 445.177 381.693 441.664 385.205C438.152 388.718 433.388 390.691 428.42 390.691C425.96 390.692 423.523 390.209 421.249 389.268C418.976 388.327 416.91 386.948 415.169 385.209C413.429 383.469 412.049 381.404 411.107 379.131C410.165 376.858 409.68 374.421 409.68 371.961L419.2 335.961Z" fill="#F4F0EA"/>
<path d="M428.38 390.73C429.862 390.731 431.339 390.556 432.78 390.21C428.696 389.221 425.062 386.888 422.463 383.585C419.864 380.283 418.451 376.203 418.45 372L428.01 336H419.2L409.64 372C409.64 374.46 410.125 376.897 411.067 379.17C412.009 381.443 413.389 383.508 415.129 385.248C416.87 386.987 418.936 388.366 421.209 389.307C423.483 390.248 425.92 390.731 428.38 390.73Z" fill="#EFCC6B"/>
<path d="M428.38 390.73C429.862 390.731 431.339 390.556 432.78 390.21C428.696 389.221 425.062 386.888 422.463 383.585C419.864 380.283 418.451 376.203 418.45 372L428.01 336H419.2L409.64 372C409.64 374.46 410.125 376.897 411.067 379.17C412.009 381.443 413.389 383.508 415.129 385.248C416.87 386.987 418.936 388.366 421.209 389.307C423.483 390.248 425.92 390.731 428.38 390.73Z" fill="#E5E3E5"/>
<g style="mix-blend-mode:multiply" opacity="0.58">
<path d="M410.93 367.141L411.05 367.561C411.05 367.561 417.46 346.281 440.29 346.281L437.59 335.961H419.2L410.93 367.141Z" fill="#B6BCCC"/>
</g>
<path d="M436.76 337.02L452.65 327.85L478.95 354.28C481.432 358.583 482.104 363.696 480.817 368.495C479.531 373.293 476.392 377.385 472.09 379.87C469.96 381.102 467.609 381.902 465.17 382.224C462.73 382.547 460.252 382.385 457.875 381.749C455.498 381.113 453.27 380.015 451.319 378.517C449.367 377.019 447.729 375.151 446.5 373.02L436.76 337.02Z" fill="#F4F0EA"/>
<path d="M472.09 379.87C473.373 379.129 474.565 378.239 475.64 377.22C471.606 378.403 467.291 378.197 463.388 376.634C459.485 375.071 456.221 372.241 454.12 368.6L444.38 332.6L436.76 337L446.5 373C447.728 375.133 449.364 377.002 451.315 378.502C453.266 380.002 455.494 381.103 457.871 381.741C460.247 382.379 462.727 382.542 465.167 382.221C467.607 381.9 469.959 381.101 472.09 379.87Z" fill="#EFCC6B"/>
<path d="M472.09 379.87C473.373 379.129 474.565 378.239 475.64 377.22C471.606 378.403 467.291 378.197 463.388 376.634C459.485 375.071 456.221 372.241 454.12 368.6L444.38 332.6L436.76 337L446.5 373C447.728 375.133 449.364 377.002 451.315 378.502C453.266 380.002 455.494 381.103 457.871 381.741C460.247 382.379 462.727 382.542 465.167 382.221C467.607 381.9 469.959 381.101 472.09 379.87Z" fill="#E5E3E5"/>
<g style="mix-blend-mode:multiply" opacity="0.58">
<path d="M445.19 368.16L445.5 368.47C445.5 368.47 440.41 346.83 460.18 335.47L452.65 327.9L436.76 337.07L445.19 368.16Z" fill="#B6BCCC"/>
</g>
<path d="M452.49 329.169L461.66 313.279L497.66 323.019C501.959 325.504 505.096 329.594 506.383 334.39C507.669 339.186 506.999 344.297 504.52 348.599C502.035 352.901 497.944 356.04 493.145 357.327C488.346 358.613 483.234 357.941 478.93 355.459L452.49 329.169Z" fill="#F4F0EA"/>
<path d="M504.52 348.599C505.257 347.315 505.84 345.949 506.26 344.529C503.363 347.573 499.526 349.554 495.367 350.152C491.208 350.751 486.968 349.933 483.33 347.829L456.89 321.529L452.49 329.159L478.93 355.459C483.234 357.941 488.346 358.613 493.145 357.327C497.944 356.04 502.035 352.901 504.52 348.599Z" fill="#EFCC6B"/>
<path d="M504.52 348.599C505.257 347.315 505.84 345.949 506.26 344.529C503.363 347.573 499.526 349.554 495.367 350.152C491.208 350.751 486.968 349.933 483.33 347.829L456.89 321.529L452.49 329.159L478.93 355.459C483.234 357.941 488.346 358.613 493.145 357.327C497.944 356.04 502.035 352.901 504.52 348.599Z" fill="#E5E3E5"/>
<g style="mix-blend-mode:multiply" opacity="0.58">
<path d="M475.36 351.92L475.78 352.03C475.78 352.03 460.56 335.84 471.97 316.03L461.66 313.24L452.49 329.13L475.36 351.92Z" fill="#B6BCCC"/>
</g>
<path d="M462.19 314.5V296.15L498.19 286.59C503.158 286.59 507.923 288.563 511.438 292.075C514.952 295.587 516.927 300.351 516.93 305.32C516.93 310.29 514.956 315.057 511.441 318.571C507.927 322.085 503.16 324.06 498.19 324.06L462.19 314.5Z" fill="#F4F0EA"/>
<path d="M516.97 305.32C516.967 303.838 516.789 302.361 516.44 300.92C515.451 305.004 513.118 308.638 509.815 311.237C506.513 313.836 502.432 315.249 498.23 315.25L462.23 305.69V314.5L498.23 324.06C503.2 324.06 507.967 322.086 511.481 318.571C514.996 315.057 516.97 310.29 516.97 305.32Z" fill="#EFCC6B"/>
<path d="M516.97 305.32C516.967 303.838 516.789 302.361 516.44 300.92C515.451 305.004 513.118 308.638 509.815 311.237C506.513 313.836 502.432 315.249 498.23 315.25L462.23 305.69V314.5L498.23 324.06C503.2 324.06 507.967 322.086 511.481 318.571C514.996 315.057 516.97 310.29 516.97 305.32Z" fill="#E5E3E5"/>
<g style="mix-blend-mode:multiply" opacity="0.58">
<path d="M493.37 322.77L493.8 322.66C493.8 322.66 472.51 316.24 472.51 293.42L462.19 296.15V314.5L493.37 322.77Z" fill="#B6BCCC"/>
</g>
<path d="M463.26 296.939L454.08 281.059L480.52 254.759C482.649 253.528 485 252.728 487.439 252.406C489.877 252.083 492.355 252.244 494.732 252.879C497.108 253.515 499.336 254.612 501.288 256.108C503.24 257.604 504.879 259.47 506.11 261.599C508.592 265.903 509.264 271.016 507.977 275.814C506.691 280.613 503.552 284.704 499.25 287.189L463.26 296.939Z" fill="#F4F0EA"/>
<path d="M506.11 261.601C505.363 260.319 504.471 259.128 503.45 258.051C504.639 262.083 504.438 266.397 502.878 270.301C501.318 274.204 498.49 277.469 494.85 279.571L458.85 289.311L463.26 296.931L499.26 287.191C503.56 284.704 506.697 280.612 507.982 275.814C509.266 271.015 508.593 265.903 506.11 261.601Z" fill="#EFCC6B"/>
<path d="M506.11 261.601C505.363 260.319 504.471 259.128 503.45 258.051C504.639 262.083 504.438 266.397 502.878 270.301C501.318 274.204 498.49 277.469 494.85 279.571L458.85 289.311L463.26 296.931L499.26 287.191C503.56 284.704 506.697 280.612 507.982 275.814C509.266 271.015 508.593 265.903 506.11 261.601Z" fill="#E5E3E5"/>
<g style="mix-blend-mode:multiply" opacity="0.58">
<path d="M494.4 288.519L494.71 288.209C494.71 288.209 473.06 293.289 461.65 273.529L454.08 281.059L463.26 296.939L494.4 288.519Z" fill="#B6BCCC"/>
</g>
<path d="M455.4 281.21L439.51 272.04L449.26 236.04C450.489 233.909 452.127 232.041 454.079 230.543C456.03 229.045 458.258 227.947 460.635 227.31C463.012 226.674 465.491 226.513 467.93 226.835C470.369 227.158 472.72 227.958 474.85 229.19C476.981 230.419 478.849 232.055 480.346 234.006C481.844 235.957 482.943 238.184 483.579 240.56C484.215 242.936 484.377 245.414 484.054 247.852C483.732 250.29 482.932 252.641 481.7 254.77L455.4 281.21Z" fill="#F4F0EA"/>
<path d="M474.85 229.189C473.564 228.448 472.194 227.86 470.77 227.439C473.812 230.337 475.793 234.173 476.393 238.332C476.993 242.49 476.179 246.73 474.08 250.369L447.78 276.809L455.4 281.209L481.7 254.769C482.932 252.641 483.732 250.29 484.054 247.851C484.377 245.413 484.215 242.935 483.579 240.559C482.943 238.183 481.844 235.956 480.346 234.005C478.849 232.054 476.981 230.418 474.85 229.189Z" fill="#EFCC6B"/>
<path d="M474.85 229.189C473.564 228.448 472.194 227.86 470.77 227.439C473.812 230.337 475.793 234.173 476.393 238.332C476.993 242.49 476.179 246.73 474.08 250.369L447.78 276.809L455.4 281.209L481.7 254.769C482.932 252.641 483.732 250.29 484.054 247.851C484.377 245.413 484.215 242.935 483.579 240.559C482.943 238.183 481.844 235.956 480.346 234.005C478.849 232.054 476.981 230.418 474.85 229.189Z" fill="#E5E3E5"/>
<g style="mix-blend-mode:multiply" opacity="0.58">
<path d="M478.15 258.34L478.27 257.92C478.27 257.92 462.07 273.14 442.27 261.73L439.48 272.04L455.37 281.21L478.15 258.34Z" fill="#B6BCCC"/>
</g>
<path d="M429.97 340.529C450.288 340.529 466.76 324.058 466.76 303.739C466.76 283.421 450.288 266.949 429.97 266.949C409.651 266.949 393.18 283.421 393.18 303.739C393.18 324.058 409.651 340.529 429.97 340.529Z" fill="#F9C11F"/>
<path d="M451.48 273.881C456.592 280.968 459.014 289.643 458.313 298.352C457.613 307.062 453.835 315.239 447.656 321.417C441.478 327.596 433.301 331.374 424.592 332.074C415.882 332.775 407.207 330.353 400.12 325.241C403.237 329.563 407.256 333.156 411.899 335.772C416.541 338.387 421.697 339.963 427.008 340.391C432.32 340.818 437.661 340.086 442.662 338.246C447.663 336.406 452.205 333.501 455.973 329.733C459.741 325.965 462.645 321.424 464.485 316.423C466.325 311.422 467.057 306.081 466.63 300.769C466.202 295.458 464.626 290.302 462.011 285.66C459.395 281.017 455.802 276.998 451.48 273.881Z" fill="#DE8626"/>
<g style="mix-blend-mode:multiply">
<path d="M393.94 310.52L393.83 310.67C395.754 320.135 401.322 328.465 409.332 333.862C417.343 339.258 427.154 341.289 436.649 339.516C446.143 337.742 454.56 332.307 460.083 324.383C465.606 316.459 467.792 306.682 466.17 297.16C432.06 335.86 393.94 310.52 393.94 310.52Z" fill="#EF8B21"/>
</g>
<path d="M430.65 303.849C432.489 303.849 433.98 302.359 433.98 300.519C433.98 298.68 432.489 297.189 430.65 297.189C428.811 297.189 427.32 298.68 427.32 300.519C427.32 302.359 428.811 303.849 430.65 303.849Z" fill="#DE8626"/>
<path d="M415.12 284.541C416.959 284.541 418.45 283.05 418.45 281.211C418.45 279.372 416.959 277.881 415.12 277.881C413.281 277.881 411.79 279.372 411.79 281.211C411.79 283.05 413.281 284.541 415.12 284.541Z" fill="#DE8626"/>
<path d="M437.88 282.779C439.719 282.779 441.21 281.288 441.21 279.449C441.21 277.61 439.719 276.119 437.88 276.119C436.041 276.119 434.55 277.61 434.55 279.449C434.55 281.288 436.041 282.779 437.88 282.779Z" fill="#DE8626"/>
<path d="M435.04 320.09C436.608 320.09 437.88 318.819 437.88 317.25C437.88 315.682 436.608 314.41 435.04 314.41C433.471 314.41 432.2 315.682 432.2 317.25C432.2 318.819 433.471 320.09 435.04 320.09Z" fill="#DE8626"/>
<path d="M437.88 310.959C439.449 310.959 440.72 309.688 440.72 308.119C440.72 306.551 439.449 305.279 437.88 305.279C436.312 305.279 435.04 306.551 435.04 308.119C435.04 309.688 436.312 310.959 437.88 310.959Z" fill="#DE8626"/>
<path d="M452.49 317.6C454.059 317.6 455.33 316.328 455.33 314.76C455.33 313.191 454.059 311.92 452.49 311.92C450.922 311.92 449.65 313.191 449.65 314.76C449.65 316.328 450.922 317.6 452.49 317.6Z" fill="#DE8626"/>
<path d="M429.18 291.759C430.417 291.759 431.42 290.756 431.42 289.519C431.42 288.282 430.417 287.279 429.18 287.279C427.943 287.279 426.94 288.282 426.94 289.519C426.94 290.756 427.943 291.759 429.18 291.759Z" fill="#DE8626"/>
<path d="M451.91 306.691C453.147 306.691 454.15 305.688 454.15 304.451C454.15 303.214 453.147 302.211 451.91 302.211C450.673 302.211 449.67 303.214 449.67 304.451C449.67 305.688 450.673 306.691 451.91 306.691Z" fill="#DE8626"/>
<path d="M446.52 290.281C447.757 290.281 448.76 289.278 448.76 288.041C448.76 286.804 447.757 285.801 446.52 285.801C445.283 285.801 444.28 286.804 444.28 288.041C444.28 289.278 445.283 290.281 446.52 290.281Z" fill="#DE8626"/>
<path d="M410.94 295.781C412.177 295.781 413.18 294.778 413.18 293.541C413.18 292.304 412.177 291.301 410.94 291.301C409.703 291.301 408.7 292.304 408.7 293.541C408.7 294.778 409.703 295.781 410.94 295.781Z" fill="#DE8626"/>
<path d="M447.78 280.13C449.017 280.13 450.02 279.128 450.02 277.89C450.02 276.653 449.017 275.65 447.78 275.65C446.543 275.65 445.54 276.653 445.54 277.89C445.54 279.128 446.543 280.13 447.78 280.13Z" fill="#DE8626"/>
<path d="M426.94 277.15C428.177 277.15 429.18 276.147 429.18 274.91C429.18 273.673 428.177 272.67 426.94 272.67C425.703 272.67 424.7 273.673 424.7 274.91C424.7 276.147 425.703 277.15 426.94 277.15Z" fill="#DE8626"/>
<path d="M422.77 303.121C424.007 303.121 425.01 302.118 425.01 300.881C425.01 299.643 424.007 298.641 422.77 298.641C421.533 298.641 420.53 299.643 420.53 300.881C420.53 302.118 421.533 303.121 422.77 303.121Z" fill="#DE8626"/>
<path d="M410.94 317.4C412.177 317.4 413.18 316.397 413.18 315.16C413.18 313.923 412.177 312.92 410.94 312.92C409.703 312.92 408.7 313.923 408.7 315.16C408.7 316.397 409.703 317.4 410.94 317.4Z" fill="#DE8626"/>
<path d="M401.08 307.99C402.317 307.99 403.32 306.987 403.32 305.75C403.32 304.513 402.317 303.51 401.08 303.51C399.843 303.51 398.84 304.513 398.84 305.75C398.84 306.987 399.843 307.99 401.08 307.99Z" fill="#DE8626"/>
<path d="M413.18 306.52C414.66 306.52 415.86 305.32 415.86 303.84C415.86 302.36 414.66 301.16 413.18 301.16C411.7 301.16 410.5 302.36 410.5 303.84C410.5 305.32 411.7 306.52 413.18 306.52Z" fill="#DE8626"/>
<path d="M423.38 314.611C424.96 314.611 426.24 313.33 426.24 311.751C426.24 310.171 424.96 308.891 423.38 308.891C421.801 308.891 420.52 310.171 420.52 311.751C420.52 313.33 421.801 314.611 423.38 314.611Z" fill="#DE8626"/>
<path d="M439.51 293.05C440.885 293.05 442 291.935 442 290.56C442 289.185 440.885 288.07 439.51 288.07C438.135 288.07 437.02 289.185 437.02 290.56C437.02 291.935 438.135 293.05 439.51 293.05Z" fill="#DE8626"/>
<path d="M425.61 326.55C426.985 326.55 428.1 325.435 428.1 324.06C428.1 322.685 426.985 321.57 425.61 321.57C424.235 321.57 423.12 322.685 423.12 324.06C423.12 325.435 424.235 326.55 425.61 326.55Z" fill="#DE8626"/>
<path d="M452.49 294.25C453.865 294.25 454.98 293.135 454.98 291.76C454.98 290.384 453.865 289.27 452.49 289.27C451.115 289.27 450 290.384 450 291.76C450 293.135 451.115 294.25 452.49 294.25Z" fill="#DE8626"/>
<path d="M420.49 295.78C422.092 295.78 423.39 294.482 423.39 292.88C423.39 291.279 422.092 289.98 420.49 289.98C418.888 289.98 417.59 291.279 417.59 292.88C417.59 294.482 418.888 295.78 420.49 295.78Z" fill="#DE8626"/>
<path d="M403.33 293.46C404.932 293.46 406.23 292.162 406.23 290.56C406.23 288.959 404.932 287.66 403.33 287.66C401.728 287.66 400.43 288.959 400.43 290.56C400.43 292.162 401.728 293.46 403.33 293.46Z" fill="#DE8626"/>
<path d="M447.11 300.919C448.712 300.919 450.01 299.621 450.01 298.019C450.01 296.418 448.712 295.119 447.11 295.119C445.508 295.119 444.21 296.418 444.21 298.019C444.21 299.621 445.508 300.919 447.11 300.919Z" fill="#DE8626"/>
<path d="M478.358 251.09C479.901 247.318 479.371 243.53 477.173 242.631C474.975 241.732 471.942 244.061 470.398 247.834C468.855 251.606 469.386 255.393 471.584 256.292C473.782 257.191 476.815 254.862 478.358 251.09Z" fill="#F6FAFE"/>
<path d="M505.34 315.899C505.749 313.56 503.205 311.161 499.658 310.54C496.111 309.92 492.904 311.314 492.495 313.653C492.086 315.992 494.63 318.392 498.177 319.012C501.724 319.632 504.931 318.239 505.34 315.899Z" fill="#F6FAFE"/>
<path d="M475.64 239.91C477.336 239.91 478.71 238.535 478.71 236.84C478.71 235.144 477.336 233.77 475.64 233.77C473.945 233.77 472.57 235.144 472.57 236.84C472.57 238.535 473.945 239.91 475.64 239.91Z" fill="#F6FAFE"/>
<path d="M501.12 274.91C502.816 274.91 504.19 273.535 504.19 271.84C504.19 270.144 502.816 268.77 501.12 268.77C499.425 268.77 498.05 270.144 498.05 271.84C498.05 273.535 499.425 274.91 501.12 274.91Z" fill="#F6FAFE"/>
<path d="M510.1 313.601C511.796 313.601 513.17 312.226 513.17 310.531C513.17 308.835 511.796 307.461 510.1 307.461C508.405 307.461 507.03 308.835 507.03 310.531C507.03 312.226 508.405 313.601 510.1 313.601Z" fill="#F6FAFE"/>
<path d="M495.99 283.364C498.851 282.023 500.381 279.254 499.408 277.178C498.435 275.103 495.327 274.508 492.467 275.849C489.607 277.19 488.077 279.96 489.05 282.035C490.023 284.11 493.13 284.705 495.99 283.364Z" fill="#F6FAFE"/>
<path d="M465.4 425.599L542.59 331.869C542.59 331.869 487.59 340.399 465.4 425.599Z" fill="#66BE64"/>
<path d="M542.59 331.869L465.4 425.599C465.4 425.599 528.59 414.899 542.59 331.869Z" fill="#4CA84E"/>
<g style="mix-blend-mode:multiply">
<path d="M483.09 381.139C476.28 392.949 470.09 407.539 465.4 425.569C465.4 425.569 504.4 418.989 527.9 375.949C507.76 397.529 483.09 381.139 483.09 381.139Z" fill="#4CA84E"/>
</g>
<path d="M399.38 431.789L322.83 337.529C322.83 337.529 377.79 346.459 399.38 431.789Z" fill="#66BE64"/>
<path d="M322.83 337.529L399.38 431.789C399.38 431.789 336.28 420.659 322.83 337.529Z" fill="#4CA84E"/>
<g style="mix-blend-mode:multiply">
<path d="M382.02 387.231C388.74 399.081 394.81 413.721 399.38 431.791C399.38 431.791 360.46 424.921 337.24 381.711C357.23 403.441 382.02 387.231 382.02 387.231Z" fill="#4CA84E"/>
</g>
</g>
<defs>
<clipPath id="clip0_4877_1654">
<rect width="619.18" height="838.58" fill="white"/>
</clipPath>
</defs>
</svg>
