<svg width="632" height="951" viewBox="0 0 632 951" fill="none" xmlns="http://www.w3.org/2000/svg">
<g clip-path="url(#clip0_5470_19739)">
<path d="M323.12 950.669C453.067 950.669 558.41 937.636 558.41 921.559C558.41 905.482 453.067 892.449 323.12 892.449C193.173 892.449 87.8301 905.482 87.8301 921.559C87.8301 937.636 193.173 950.669 323.12 950.669Z" fill="#D0D2D3"/>
<path d="M310.89 926.471C301.5 926.471 293.05 924.841 286.47 921.771C285.4 921.271 284.35 920.721 283.37 920.141C282.87 919.851 282.37 919.521 281.85 919.191C277.924 916.654 274.742 913.12 272.63 908.951C272.149 907.975 271.721 906.973 271.35 905.951C271.21 905.551 271.08 905.131 270.95 904.711C270.76 904.081 270.59 903.521 270.46 902.951C270.33 902.381 270.25 902.031 270.17 901.561C270.164 901.514 270.164 901.467 270.17 901.421C270.07 900.881 269.99 900.421 269.93 899.971C269.87 899.521 269.81 898.901 269.76 898.341V898.241C269.76 897.811 269.7 897.451 269.69 897.091C269.69 896.531 269.69 895.901 269.69 895.271C269.69 894.911 269.69 894.631 269.69 894.351C269.69 893.741 269.77 893.071 269.84 892.401C269.84 892.171 269.89 891.951 269.92 891.741C270 891.101 270.1 890.401 270.23 889.741L270.3 889.421C270.45 888.641 270.61 887.911 270.8 887.191C273.46 876.891 280.56 867.311 286.27 860.911C252.18 778.351 248.95 720.911 253.27 685.391L251.65 683.391C251.15 682.771 250.65 682.141 250.16 681.511L249.45 680.591C248.91 679.901 248.45 679.241 247.91 678.591L247.31 677.771C245.5 675.351 243.74 672.881 242.06 670.411L241.71 669.901C241.23 669.191 240.71 668.461 240.27 667.731L239.64 666.781L238.27 664.651L237.64 663.651L236.27 661.441L235.71 660.511C235.24 659.731 234.77 658.961 234.31 658.181L234.16 657.911C225.579 643.201 218.637 627.594 213.46 611.371C209.933 600.368 207.219 589.121 205.34 577.721L204.24 576.921L201.69 575.031L199.17 573.131L197.04 571.5L196.69 571.231L194.62 569.621L194.25 569.331L192 567.541L191.44 567.101C190.71 566.511 189.95 565.901 189.2 565.281L188.69 564.871L186.3 562.871L186.06 562.661C185.28 562.021 184.52 561.381 183.76 560.731L183.31 560.351L180.92 558.291L180.39 557.821C179.57 557.111 178.77 556.411 177.97 555.691L177.52 555.291L175.09 553.101L174.87 552.891L172.4 550.611L171.91 550.151C171.1 549.391 170.29 548.621 169.49 547.841L168.98 547.351C168.14 546.541 167.32 545.741 166.51 544.931L166.14 544.561C165.36 543.791 164.57 542.981 163.77 542.171L163.55 541.951C162.67 541.051 161.86 540.201 161.05 539.341L160.57 538.841C159.77 537.991 158.98 537.13 158.19 536.271L157.76 535.801C156.93 534.881 156.12 533.981 155.32 533.071L155.1 532.821C154.36 531.971 153.59 531.071 152.83 530.181L152.45 529.731C151.73 528.871 150.97 527.951 150.22 527.021L149.8 526.511C149.02 525.511 148.29 524.621 147.57 523.681L147.19 523.201C146.45 522.201 145.71 521.251 144.98 520.261V520.201C134.05 505.321 124.98 489.711 119.12 475.911C78.6799 474.581 51.3601 464.241 37.8401 445.121C33.5187 438.988 30.6737 431.94 29.5271 424.525C28.3804 417.111 28.9634 409.532 31.2302 402.381C31.8427 400.652 32.7641 399.05 33.9499 397.651C23.5943 389.274 15.7531 378.201 11.2903 365.651C2.23026 339.831 10.0603 313.581 16.5403 298.551C3.54026 291.831 0.639847 281.651 0.119847 275.611C-1.63015 255.171 18.7398 233.321 39.8698 216.401C32.8198 204.621 28.01 193.941 25.53 184.521C18.81 159.071 29.8302 145.521 37.0002 139.691C45.5102 132.781 56.1599 129.281 68.6599 129.281C81.4799 129.281 96.4999 133.081 113.47 140.601L113.63 139.841C115.2 132.391 117.02 124.501 119.04 116.361V116.261C120.04 112.051 121.19 107.721 122.33 103.401L123 100.931C123.95 97.3707 124.89 93.9307 125.79 90.7207C125.795 90.6976 125.795 90.674 125.79 90.6509C128.43 81.2509 130.79 73.5209 132.24 68.6509L133.8 63.6509L134.45 61.6509C135.468 58.5194 137.489 55.8101 140.2 53.9409L142.2 52.6206L143.2 51.9307L145.93 50.1606L148.93 48.2505L150 47.5708C169.74 35.2008 208.48 13.1008 246.31 4.11084H246.41L248.92 3.53076H248.99C255.174 2.12245 261.445 1.12031 267.76 0.530762C271.43 0.220762 275.3 0.0605469 279.25 0.0605469C329.78 0.0605469 389.18 25.821 400.57 30.981L401.73 31.5107C402.982 32.0896 404.146 32.8402 405.19 33.7407C405.86 34.3107 406.52 34.9108 407.19 35.5308C407.37 35.6908 407.56 35.8705 407.75 36.0605C408.26 36.5305 408.75 37.0608 409.28 37.5508L409.69 37.9707C410.31 38.6007 410.92 39.2506 411.52 39.9106L411.95 40.4009C412.41 40.9009 412.87 41.401 413.34 41.981L413.84 42.5708C414.41 43.2608 414.96 43.9406 415.51 44.6406L415.73 44.9209C416.21 45.5409 416.73 46.1808 417.18 46.8208L417.68 47.5107C418.087 48.0707 418.497 48.6407 418.91 49.2207L419.3 49.7808C419.79 50.4908 420.3 51.2307 420.77 51.9707L421.24 52.7007C421.6 53.2507 421.94 53.7908 422.29 54.3408L422.8 55.1606C423.25 55.9006 423.7 56.6409 424.15 57.4009L424.58 58.1509L425.53 59.8008L426.1 60.8008C426.38 61.2908 426.66 61.8006 426.95 62.3506L427.52 63.4209C427.89 64.1109 428.25 64.8005 428.6 65.5005L429.19 66.6606L429.97 68.2207L430.48 69.2207L431.34 71.0308L432.15 72.7607L432.68 73.9409C432.9 74.4209 433.12 74.9106 433.34 75.4106L433.8 76.4106C434.21 77.3506 434.62 78.3105 435.03 79.2705L435.36 80.0508C435.59 80.6108 435.82 81.1805 436.06 81.7505L436.37 82.5205C437.15 84.4538 437.91 86.3973 438.65 88.3506L439.65 91.0205C440.19 92.4805 440.65 93.8705 441.18 95.2705V95.3809C442.12 98.0709 443.06 100.851 443.98 103.691C458.4 95.6909 471.4 91.7808 483.37 91.7808C491.205 91.698 498.932 93.615 505.82 97.3506C515.11 102.461 526.03 113.351 525.29 136.111C525 144.931 523.01 154.861 519.24 166.211C542.62 177.371 560.99 189.781 571.74 201.791L572 202.081C572.7 202.871 573.31 203.591 573.89 204.311C574.07 204.521 574.24 204.741 574.42 204.961C574.88 205.551 575.35 206.161 575.79 206.771C576.02 207.081 576.22 207.371 576.42 207.651C576.62 207.931 576.94 208.39 577.17 208.75C577.55 209.32 577.91 209.881 578.25 210.441C578.46 210.791 578.65 211.111 578.83 211.441C579.14 211.971 579.46 212.551 579.75 213.121C579.91 213.421 580.05 213.701 580.18 213.981C580.49 214.601 580.76 215.211 581.02 215.821L581.29 216.471C581.59 217.221 581.87 218.001 582.15 218.851C582.21 219.071 582.28 219.281 582.34 219.491C582.6 220.351 582.82 221.231 583 222.081C583 222.261 583.07 222.451 583.1 222.641C583.286 223.586 583.42 224.54 583.5 225.5C583.583 226.498 583.613 227.5 583.59 228.5C583.59 228.68 583.59 228.941 583.59 229.191C583.541 230.179 583.437 231.164 583.28 232.141C583.28 232.311 583.22 232.521 583.18 232.711C583.05 233.451 582.85 234.281 582.62 235.111C582.56 235.331 582.5 235.551 582.43 235.771C582.144 236.694 581.81 237.602 581.43 238.491C581.33 238.721 581.23 238.951 581.11 239.191C580.79 239.871 580.45 240.531 580.11 241.191C580.01 241.371 579.89 241.591 579.75 241.811C579.292 242.572 578.794 243.31 578.26 244.021C578.12 244.221 577.96 244.431 577.79 244.641C577.34 245.211 576.91 245.731 576.45 246.241C576.33 246.391 576.16 246.581 575.98 246.771C575.43 247.361 574.87 247.911 574.26 248.481L573.5 249.161C573.1 249.511 572.64 249.901 572.16 250.281C571.88 250.511 571.56 250.76 571.23 251C570.74 251.37 570.23 251.731 569.75 252.071L568.84 252.681C568.4 252.971 567.95 253.251 567.49 253.531C567.03 253.811 566.55 254.091 566.07 254.361L564.97 254.971L563.75 255.611L562.6 256.171C561.98 256.471 561.35 256.761 560.7 257.051L559.82 257.441L558.42 258.021C566.52 272.401 574.55 293.44 570.57 316.25C568.278 329.018 562.612 340.941 554.16 350.781C555.582 351.939 556.779 353.349 557.69 354.941C563.57 365.231 568.51 387.461 552.99 407.811C560.911 416.421 568.385 425.433 575.38 434.811C576.19 435.921 576.98 437.021 577.74 438.131C580.773 442.429 583.555 446.9 586.07 451.521L586.49 452.291C587.32 453.861 588.17 455.531 588.99 457.241C594.41 468.501 606.99 498.601 607.04 534.791C607.099 546.252 605.711 557.676 602.91 568.791C597.317 591.079 585.004 611.108 567.64 626.161C566.38 627.261 565.07 628.361 563.76 629.421C559.656 632.714 555.362 635.763 550.9 638.551C546.143 641.517 541.226 644.217 536.17 646.641C534.21 647.581 532.21 648.494 530.17 649.381C545.655 661.458 560.467 674.374 574.54 688.071C581.26 685.611 590.39 683.071 599.27 683.071C601.079 683.072 602.885 683.182 604.68 683.401C605.433 683.501 606.194 683.621 606.96 683.761L607.29 683.831C607.95 683.951 608.64 684.111 609.34 684.291L609.9 684.451C610.57 684.631 611.21 684.831 611.85 685.051C612.07 685.121 612.33 685.221 612.59 685.321C613.26 685.571 613.85 685.811 614.42 686.061L615.35 686.5L615.48 686.561C615.99 686.821 616.48 687.061 616.93 687.321C617.38 687.581 617.76 687.811 618.15 688.051L618.25 688.121C618.73 688.421 619.13 688.671 619.51 688.951C619.89 689.231 620.51 689.661 620.94 690.041C621.3 690.321 621.64 690.591 621.94 690.881C622.745 691.594 623.51 692.352 624.23 693.151C626.079 695.223 627.569 697.589 628.64 700.151C628.9 700.751 629.13 701.341 629.34 701.951C630.309 704.798 630.878 707.766 631.03 710.771C631.66 721.451 627.91 732.151 624.66 739.241C624.16 740.321 623.66 741.431 623.07 742.531C621.363 745.871 619.453 749.104 617.35 752.211C615.55 754.874 613.607 757.438 611.53 759.891C610.69 760.891 609.81 761.891 608.93 762.811C608.05 763.731 607.1 764.721 606.17 765.631C605.69 766.101 605.17 766.561 604.72 767.011C594.08 776.851 581.87 782.531 569.42 783.411C567.37 783.551 565.26 783.621 563.16 783.621H561.94C555.756 783.512 549.594 782.843 543.53 781.621C542.32 781.381 541.12 781.131 539.92 780.851C535.122 779.733 530.391 778.344 525.75 776.691C517.64 773.775 509.769 770.231 502.21 766.091C498.49 764.091 494.66 761.821 490.81 759.391C489.75 758.721 488.69 758.041 487.64 757.391L485.64 756.041C484.27 755.121 482.92 754.19 481.57 753.25L479.88 752.041C477.5 750.341 475.12 748.571 472.82 746.781L470.82 745.241L470.55 745.301L469.72 745.471C469.32 745.561 468.94 745.631 468.56 745.701L467.56 745.871L466.39 746.051L465.48 746.171L464.26 746.311L463.33 746.401L462.13 746.5L461.13 746.561L459.9 746.621H459.01H457.73H455.5H454.59H453.2H452.36L450.81 746.521H450.21L447.92 746.331L447.51 746.281L445.66 746.081L444.66 745.951C444.23 745.951 443.8 745.851 443.37 745.781L442.43 745.651L441.07 745.441L438.77 745.051L437.72 744.861L436.44 744.621L435.32 744.391L434.09 744.131L433.09 743.911L431.78 743.621L430.67 743.361L429.43 743.061L428.29 742.771L426.75 742.371L425.91 742.141L423.52 741.471L421.99 741.021L421.12 740.75L419.87 740.371L418.75 740.011L416.38 739.231L413.95 738.401L412.24 737.781L410.46 737.121L409.31 736.691L406.94 735.761L405.87 735.321C402.382 736.881 398.81 738.246 395.17 739.411C394.12 739.751 393.05 740.071 391.98 740.411L391.36 740.581C391.36 740.921 391.17 742.441 391.12 742.861L390.98 744.051L390.83 745.311L390.67 746.481C390.62 746.881 390.56 747.301 390.5 747.711L390.33 748.871L390.13 750.111L389.95 751.231C389.88 751.651 389.81 752.061 389.73 752.471L389.53 753.581C389.45 754.011 389.08 755.911 389.08 755.911L388.59 758.201C388.5 758.611 388.24 759.721 388.24 759.721L388.06 760.441C387.96 760.891 387.84 761.331 387.73 761.761L387.5 762.671C387.34 763.281 387.17 763.871 387 764.461L386.88 764.901C386.68 765.591 386.47 766.311 386.24 767.011L385.98 767.831C385.84 768.281 385.7 768.721 385.55 769.151L385.26 769.961C385.12 770.381 384.97 770.811 384.82 771.231L384.5 772.061C384.33 772.521 384.19 772.891 384.04 773.261L383.67 774.171L383.2 775.291L382.82 776.171L382.33 777.241L381.91 778.131L381.38 779.201L380.95 780.031L380.38 781.101L379.91 781.941C379.71 782.291 379.5 782.631 379.3 782.941L378.83 783.721C378.61 784.071 378.4 784.401 378.18 784.721L377.64 785.531L377.53 785.691C380.83 796.57 383.29 807.686 384.89 818.941C385.06 820.151 385.22 821.371 385.37 822.591C385.66 825.041 385.91 827.511 386.1 829.911C387.191 842.196 386.67 854.571 384.55 866.721C383.025 875.272 380.369 883.581 376.65 891.431C370.98 903.221 360.58 912.771 346.57 919.041C343.585 920.368 340.527 921.523 337.41 922.5C336.18 922.88 334.93 923.241 333.7 923.571C326.251 925.502 318.585 926.477 310.89 926.471ZM63.9402 306.151C68.227 309.883 73.0172 312.993 78.1701 315.391C78.6501 312.191 79.17 309.001 79.78 305.851C74.34 306.051 69.3199 306.151 64.6399 306.151H63.9402ZM494.3 270.881C495.09 273.001 495.86 275.131 496.59 277.281C499.722 275.003 502.628 272.431 505.27 269.601C501.79 270.027 498.133 270.454 494.3 270.881Z" fill="#231F20"/>
<path d="M572.84 458.679C564.37 442.999 549.66 426.269 533.62 408.869C518.87 426.179 479.25 459.819 398.12 452.479C403.43 473.539 409.941 493.909 416.311 512.179C450.521 515.239 529.6 515.239 572.84 458.679Z" fill="white"/>
<path d="M497.49 368.83C482.76 351.25 470.24 333.3 464.39 315.32C439.02 306.85 423.58 296.7 414.2 287.74C394.2 309.01 386.69 338.47 386.58 370.69C410.54 376.9 458.99 385.7 497.49 368.83Z" fill="white"/>
<path d="M439 589.891C438.15 599.091 434.37 605.391 429.46 609.681C436.46 621.291 449.46 638.411 470.6 650.141C546.72 638.831 578.5 603.431 588.37 565.061C563.84 585.871 516.18 610.391 439 589.891Z" fill="white"/>
<path d="M464.39 315.32C462.518 309.746 461.362 303.956 460.95 298.09C457.34 241.63 419.09 282.91 419.09 282.91C417.37 284.46 415.76 286.08 414.2 287.74C423.58 296.7 439.02 306.85 464.39 315.32Z" fill="#7A7176"/>
<path d="M533.64 408.869C521.64 395.869 508.9 382.449 497.49 368.869C458.99 385.739 410.541 376.939 386.581 370.729C386.481 397.149 391.3 425.399 398.14 452.519C479.27 459.819 518.89 426.179 533.64 408.869Z" fill="#7A7176"/>
<path d="M588.37 565.06C598.66 525.06 585.14 481.83 573.2 459.31L572.86 458.68C529.6 515.21 450.52 515.2 416.33 512.18C422.67 530.36 428.85 546.46 433.55 559.11C438.3 571.91 439.73 581.98 439 589.89C516.18 610.39 563.84 585.87 588.37 565.06Z" fill="#7A7176"/>
<path d="M399.58 618.81L426.84 653.74C441.483 653.431 456.093 652.229 470.59 650.14C449.48 638.41 436.43 621.29 429.45 609.68C417.74 619.94 399.58 618.81 399.58 618.81Z" fill="#7A7176"/>
<path opacity="0.52" d="M588.37 565.06C598.66 525.06 585.14 481.83 573.2 459.31L572.86 458.68C564.39 443 549.68 426.27 533.64 408.87C521.64 395.87 508.9 382.45 497.49 368.87C482.76 351.29 470.24 333.34 464.39 315.36C462.518 309.786 461.362 303.996 460.95 298.13C459.49 275.39 452.42 268.51 444.49 268.4C423.72 291.58 399.27 338.12 439.29 408.91C497.34 511.58 595.21 581.25 418.97 643.69L426.85 653.78C441.493 653.472 456.104 652.27 470.6 650.18C546.72 638.83 578.5 603.43 588.37 565.06Z" fill="#AFACAE"/>
<path d="M581.319 557.604C583.594 538.419 578.155 522.004 569.171 520.939C560.187 519.874 551.061 534.563 548.787 553.748C546.513 572.932 551.952 589.348 560.936 590.412C569.919 591.477 579.045 576.788 581.319 557.604Z" fill="white"/>
<path d="M580.045 519.498C583.678 518.885 585.476 511.598 584.063 503.223C582.649 494.847 578.558 488.554 574.926 489.167C571.294 489.78 569.495 497.067 570.908 505.443C572.322 513.818 576.413 520.111 580.045 519.498Z" fill="white"/>
<path d="M391.78 602.779C368.31 606.409 446.51 581.229 571.14 705.779C571.14 705.779 601.47 690.249 613.08 703.169C624.69 716.089 601.41 766.069 568.37 768.399C535.33 770.729 499.72 750.229 473.86 728.269C448.73 741.469 374.2 713.689 355.94 678.819C355.94 678.839 325.22 618.869 391.78 602.779Z" fill="#C9C3C7"/>
<path opacity="0.52" d="M602.78 698.24C606.7 698.555 610.367 700.303 613.081 703.15C624.701 716.06 601.41 766.05 568.37 768.38C535.33 770.71 499.72 750.21 473.86 728.25C450.32 740.62 383.451 717.03 360.061 685.33C388.441 700.46 431.75 714.63 476.3 695.58C476.3 695.58 532.53 748.73 561.39 747.27C585.96 746.06 598.84 730.16 602.78 698.24Z" fill="#AFACAE"/>
<path d="M274.4 659.56C286.4 639.08 234.169 702.47 303.969 864.27C303.969 864.27 278.35 886.73 286.06 902.27C293.77 917.81 348.84 914.63 363.19 884.78C377.54 854.93 371.64 814.27 360.76 782.13C382.31 763.65 383.99 684.13 358.32 654.28C358.32 654.3 313.91 603.62 274.4 659.56Z" fill="#C9C3C7"/>
<path opacity="0.52" d="M285.3 890.899C284.153 894.661 284.424 898.713 286.06 902.289C293.78 917.849 348.84 914.649 363.19 884.799C377.54 854.949 371.64 814.289 360.76 782.149C380.94 764.839 383.699 693.979 362.869 660.539C366.459 692.539 363.65 737.989 329.5 772.359C329.5 772.359 358.149 844.229 346.139 870.519C335.919 892.899 316.39 898.989 285.3 890.899Z" fill="#AFACAE"/>
<path d="M390.821 724.612C453.448 704.553 482.053 619.095 454.713 533.736C427.373 448.377 354.441 395.441 291.814 415.5C229.188 435.559 200.582 521.017 227.922 606.376C255.262 691.735 328.194 744.671 390.821 724.612Z" fill="#C9C3C7"/>
<path opacity="0.52" d="M243.98 644.729C277.98 707.049 337.98 741.859 390.66 724.989C453.29 704.929 481.9 619.479 454.57 534.119C451.549 524.693 447.901 515.479 443.65 506.539C443.84 569.739 417.84 669.899 243.98 644.729Z" fill="#AFACAE"/>
<path d="M381.82 702.829C428.495 688.089 447.235 615.667 423.678 541.07C400.121 466.472 343.187 417.948 296.512 432.687C249.837 447.426 231.097 519.848 254.654 594.446C278.211 669.043 335.145 717.568 381.82 702.829Z" fill="white"/>
<path opacity="0.52" d="M320.51 491.32C351.51 487.4 391.41 470.6 413.51 460.4C379.22 421.4 333.18 402.58 291.67 415.88C258.81 426.4 235.32 454.939 224.35 492.019C244.44 493.239 289.43 495.24 320.51 491.32Z" fill="#AFACAE"/>
<path d="M448.35 224.24C421.75 228.43 395.07 231.61 368.35 234.55C341.63 237.49 314.91 239.92 288.15 242.09C261.39 244.26 234.6 246.09 207.78 247.55C180.96 249.01 154.1 250.09 127.18 250.21C153.77 246 180.46 242.82 207.18 239.89C233.9 236.96 260.62 234.51 287.38 232.35C314.14 230.19 340.93 228.35 367.76 226.91C394.59 225.47 421.43 224.39 448.35 224.24Z" fill="#231F20"/>
<path d="M177.28 198.761C177.28 198.761 83.9296 120.831 46.4296 151.281C8.92965 181.731 114.74 284.141 114.74 284.141L177.28 198.761Z" fill="#C6BFC3"/>
<path d="M165.12 207.47C165.12 207.47 81.0698 145.96 62.9098 163.69C44.7498 181.42 118.44 268.44 118.44 268.44L165.12 207.47Z" fill="#7A7176"/>
<path d="M378.37 180.64C378.37 180.64 456.3 87.2906 498.63 110.551C540.96 133.811 455.17 253.481 455.17 253.481L378.37 180.64Z" fill="#C6BFC3"/>
<path d="M391.89 187.039C391.89 187.039 463.6 111.509 484.63 125.709C505.66 139.909 448.71 238.709 448.71 238.709L391.89 187.039Z" fill="#7A7176"/>
<path d="M274.95 157.79C68.3098 178.79 91.2901 367.39 91.2901 367.39C127.52 500.39 302.99 469.14 302.99 469.14C302.99 469.14 481.22 468.49 493.11 331.21C493.11 331.24 482.02 141.51 274.95 157.79Z" fill="#C9C3C7"/>
<path d="M439.95 307.421C439.95 307.421 513.95 313.171 533.87 248.891C533.87 248.891 595.72 317.111 515.36 362.971C515.36 362.971 530.72 373.171 544.64 362.391C544.64 362.391 580.79 425.631 426.29 435.391L439.95 307.421Z" fill="white"/>
<path d="M138.54 334.56C138.54 334.56 66.7497 353.44 35.6697 293.76C35.6697 293.76 -13.0002 371.93 74.2698 402.7C74.2698 402.7 60.9794 415.48 45.3494 407.35C45.3494 407.35 21.0894 476.04 174.849 458.04" fill="white"/>
<path d="M487.349 300.329C457.869 270.069 399.85 217.049 358.7 220.889C301.35 226.229 283.34 268.949 283.34 268.949C283.34 268.949 257.99 230.129 200.61 235.129C160.94 238.579 115.31 296.719 90.9095 332.309C89.1795 353.309 90.9095 367.429 90.9095 367.429C127.13 500.429 302.61 469.179 302.61 469.179C302.61 469.179 480.84 468.519 492.73 331.239C491.81 320.803 490.01 310.463 487.349 300.329Z" fill="white"/>
<path d="M490.699 345.86C467.969 310.8 422.84 258.5 363.53 275.86C276.53 301.31 326.53 361.3 348.58 389.16C358.43 401.61 371.39 429.92 379.86 456.28C426.27 441.78 478.579 411.04 490.699 345.86Z" fill="#7A7176"/>
<path d="M206.39 290C146.07 283.65 111.19 340.87 94.6899 379.45C117.52 442.28 174.19 463.77 222.61 470.06C226.26 442.71 233.92 412.74 241.35 398.79C258.04 367.45 296.55 299.48 206.39 290Z" fill="#7A7176"/>
<path d="M316.84 362.24C312.24 352.1 306.95 331.94 303.36 292C298.54 238.51 323.19 189.41 342.18 160.29C322.44 156.88 300.18 155.79 274.95 157.77C249.51 160.36 227.56 165.49 208.61 172.49C232.48 197.77 265.38 241.61 270.18 294.98C273.78 334.93 272.18 355.7 269.47 366.51C267.56 374.15 272.21 381.66 280.89 384.78L285.01 386.25C288.279 387.457 291.776 387.921 295.248 387.61C298.719 387.299 302.078 386.219 305.08 384.45L308.84 382.24C316.84 377.65 320.09 369.44 316.84 362.24Z" fill="#7A7176"/>
<path d="M280.46 414.701C276.415 414.746 272.476 413.406 269.298 410.902C266.12 408.399 263.894 404.884 262.99 400.941C262.866 400.212 263.027 399.463 263.439 398.849C263.851 398.235 264.482 397.802 265.204 397.64C265.925 397.477 266.681 397.597 267.316 397.975C267.952 398.353 268.418 398.96 268.62 399.671C269.294 402.602 271.044 405.173 273.524 406.875C276.004 408.577 279.032 409.286 282.01 408.861C288.92 408.241 291.58 387.661 291.19 373.951C291.208 373.211 291.509 372.505 292.032 371.981C292.554 371.456 293.259 371.152 293.999 371.132C294.739 371.111 295.459 371.375 296.01 371.87C296.561 372.365 296.901 373.052 296.96 373.791C297.14 380.371 297.31 413.281 282.53 414.611C281.84 414.671 281.12 414.701 280.46 414.701Z" fill="#231F20"/>
<path d="M311.84 411.929C297.7 411.929 292.2 380.689 291.22 374.309C291.147 373.928 291.152 373.535 291.234 373.156C291.317 372.776 291.475 372.416 291.699 372.098C291.924 371.781 292.209 371.513 292.54 371.308C292.871 371.104 293.239 370.968 293.624 370.91C294.008 370.851 294.4 370.871 294.776 370.968C295.153 371.064 295.506 371.235 295.815 371.471C296.124 371.708 296.382 372.004 296.573 372.342C296.765 372.68 296.886 373.054 296.93 373.44C299.03 387.17 305.03 406.159 311.87 406.159H312.2C322.89 405.159 323.681 395.789 323.731 394.719C323.777 393.963 324.116 393.253 324.676 392.742C325.236 392.231 325.973 391.958 326.731 391.98C327.492 392.016 328.208 392.351 328.723 392.913C329.238 393.475 329.51 394.218 329.481 394.98C329.281 399.381 327.454 403.551 324.353 406.681C321.252 409.812 317.1 411.679 312.7 411.92C312.414 411.937 312.127 411.94 311.84 411.929Z" fill="#231F20"/>
<path d="M248.389 370.99C247.034 366.026 244.883 361.315 242.02 357.04C239.288 352.985 235.866 349.442 231.91 346.57C224.244 340.97 214.804 338.351 205.349 339.201C195.895 340.051 187.073 344.313 180.53 351.19C177.149 354.723 174.414 358.822 172.45 363.3C170.402 368.022 169.129 373.043 168.68 378.17C167.265 372.886 167.118 367.342 168.25 361.99C169.406 356.448 171.746 351.223 175.11 346.67C178.555 342.031 182.945 338.177 187.99 335.36C189.28 334.7 190.57 334.03 191.9 333.44C193.23 332.85 194.61 332.39 195.99 331.94C197.37 331.49 198.81 331.2 200.23 330.88L204.55 330.24L208.91 330.09C210.36 330.15 211.81 330.27 213.26 330.37C214.71 330.47 216.13 330.87 217.56 331.13C218.99 331.39 220.36 331.89 221.75 332.31C227.217 334.184 232.227 337.193 236.45 341.14C240.576 345.013 243.814 349.735 245.94 354.98C248.007 360.049 248.846 365.535 248.389 370.99Z" fill="#231F20"/>
<path d="M418.22 355.69C416.858 350.729 414.707 346.018 411.85 341.74C409.121 337.674 405.699 334.12 401.74 331.24C394.074 325.639 384.631 323.02 375.175 323.87C365.719 324.72 356.895 328.982 350.35 335.86C346.97 339.39 344.236 343.485 342.271 347.96C340.223 352.681 338.953 357.702 338.51 362.83C337.092 357.546 336.941 352.003 338.07 346.65C339.222 341.109 341.567 335.884 344.94 331.34C348.386 326.701 352.775 322.846 357.82 320.03C359.11 319.37 360.4 318.69 361.73 318.11C363.06 317.53 364.44 317.05 365.82 316.6C367.2 316.15 368.64 315.86 370.05 315.54L374.37 314.91L378.73 314.76C380.18 314.82 381.64 314.93 383.09 315.04C384.54 315.15 385.96 315.54 387.38 315.79C388.8 316.04 390.19 316.56 391.57 316.98C397.042 318.845 402.054 321.854 406.271 325.81C410.402 329.681 413.643 334.403 415.771 339.65C417.844 344.728 418.683 350.225 418.22 355.69Z" fill="#231F20"/>
<path d="M320.49 371.12C321.24 379.44 296.77 390.24 296.77 390.24C296.77 390.24 268.35 384.24 267.6 375.88C266.85 367.52 278.08 359.73 292.68 358.42C307.28 357.11 319.74 362.79 320.49 371.12Z" fill="#231F20"/>
<path d="M427.13 309.329C426.612 309.33 426.104 309.194 425.656 308.934C425.208 308.674 424.837 308.299 424.58 307.849C423.9 306.679 407.75 279.229 376.74 285.629C375.991 285.749 375.225 285.575 374.601 285.144C373.977 284.713 373.542 284.059 373.388 283.317C373.234 282.574 373.371 281.8 373.772 281.157C374.173 280.513 374.806 280.048 375.54 279.859C410.8 272.579 429.54 304.609 429.69 304.929C429.946 305.377 430.08 305.884 430.078 306.4C430.077 306.916 429.939 307.422 429.679 307.868C429.42 308.313 429.048 308.683 428.6 308.94C428.153 309.196 427.646 309.33 427.13 309.329Z" fill="#231F20"/>
<path d="M156.51 334.571C156.17 334.577 155.831 334.522 155.51 334.411C155.145 334.285 154.808 334.088 154.519 333.832C154.23 333.576 153.994 333.265 153.825 332.918C153.656 332.571 153.557 332.193 153.534 331.808C153.51 331.422 153.564 331.036 153.69 330.671C153.81 330.321 166.23 295.38 202.26 296.02C203.012 296.075 203.714 296.416 204.223 296.973C204.732 297.529 205.008 298.259 204.995 299.013C204.982 299.767 204.682 300.487 204.154 301.026C203.627 301.565 202.913 301.881 202.16 301.911C170.45 301.371 159.69 331.32 159.25 332.6C159.051 333.17 158.681 333.666 158.19 334.018C157.7 334.37 157.113 334.563 156.51 334.571Z" fill="#231F20"/>
<path d="M15.0496 274.24C17.8696 307.24 140.71 283.96 293.56 270.86C446.41 257.76 571.42 259.79 568.56 226.8C565.7 193.81 435.3 128.419 282.44 141.519C129.58 154.619 12.2196 241.24 15.0496 274.24Z" fill="#EEC96C"/>
<path d="M40.1797 269.871C38.5997 251.501 74.3297 216.491 132.7 186.811L126.89 194.321C126.89 194.321 190.55 193.191 197.22 207.211C203.89 221.231 335.39 219.901 335.39 219.901C335.39 219.901 433.23 266.001 559.66 210.811C565.09 216.611 568.19 222.061 568.6 226.811C569.51 237.451 557.12 244.441 534.8 249.481C484.3 256.481 406.06 258.991 318.7 266.481C165.84 279.591 42.9997 302.861 40.1797 269.871Z" fill="#E2B554"/>
<path d="M447.95 187.93C447.95 187.93 432.65 76.9299 395.43 45.0599C395.43 45.0599 322.32 10.8502 269.05 15.4202C215.78 19.9902 148.75 66.2 148.75 66.2C148.75 66.2 112.47 177.87 122.87 215.79C122.87 215.79 229.12 243.04 290.73 237.79C352.34 232.54 447.95 187.93 447.95 187.93Z" fill="#EEC96C"/>
<path d="M122.84 215.789C117.27 195.459 125.1 153.959 133.57 119.789C173.99 147.189 279.36 203.299 447.92 187.909C447.92 187.909 352.3 232.459 290.7 237.739C229.1 243.019 122.84 215.789 122.84 215.789Z" fill="#E2B554"/>
<path d="M122.84 215.789C120.27 206.409 120.55 192.509 122.44 176.899C122.44 176.899 231.35 192.989 286.44 188.269C341.53 183.549 440.84 149.619 440.84 149.619C445.72 171.569 447.98 187.929 447.98 187.929C447.98 187.929 352.36 232.479 290.76 237.759C229.16 243.039 122.84 215.789 122.84 215.789Z" fill="#6874B5"/>
<path d="M205.74 95.981C183.066 101.334 160.042 105.077 136.84 107.181C143.07 83.7007 148.75 66.1807 148.75 66.1807C148.75 66.1807 202.64 29.0305 252.18 18.0605C251.66 47.9205 243.47 87.051 205.74 95.981Z" fill="#CB9B3B"/>
<path d="M312.65 69.5991C299.65 58.8991 296.51 33.3295 295.99 15.9395C343.99 21.0095 395.43 45.0591 395.43 45.0591C408.64 56.3791 419.081 77.6492 427.061 100.389C394.511 97.9892 328.58 82.6591 312.65 69.5991Z" fill="#CB9B3B"/>
<path d="M174.269 107.241C179.436 95.4558 177.694 83.3023 170.38 80.0962C163.066 76.89 152.949 83.8454 147.782 95.631C142.616 107.417 144.358 119.57 151.672 122.776C158.986 125.982 169.103 119.027 174.269 107.241Z" fill="white"/>
<path d="M544.233 211.28C546.815 206.555 540.541 198.151 530.218 192.509C519.896 186.867 509.435 186.124 506.852 190.849C504.269 195.574 510.544 203.978 520.866 209.62C531.188 215.262 541.65 216.005 544.233 211.28Z" fill="white"/>
<path d="M499.49 189.1C502.39 189.1 504.74 186.749 504.74 183.85C504.74 180.95 502.39 178.6 499.49 178.6C496.591 178.6 494.24 180.95 494.24 183.85C494.24 186.749 496.591 189.1 499.49 189.1Z" fill="white"/>
<path d="M207.46 413.89C192.991 415.195 178.461 412.179 165.706 405.225C152.951 398.271 142.545 387.69 135.803 374.822C129.062 361.954 126.288 347.375 127.832 332.93C129.376 318.485 135.169 304.822 144.478 293.67C153.787 282.517 166.195 274.375 180.131 270.274C194.068 266.173 208.907 266.298 222.774 270.631C236.64 274.964 248.91 283.311 258.031 294.617C267.153 305.924 272.717 319.682 274.02 334.151C275.74 353.545 269.699 372.83 257.222 387.778C244.745 402.726 226.85 412.116 207.46 413.89ZM195.6 282.241C184.033 283.282 173.035 287.73 163.996 295.022C154.957 302.314 148.284 312.123 144.819 323.208C141.355 334.293 141.256 346.156 144.534 357.298C147.812 368.439 154.32 378.358 163.235 385.801C172.15 393.243 183.073 397.875 194.62 399.111C206.168 400.346 217.823 398.129 228.11 392.741C238.398 387.353 246.858 379.035 252.418 368.839C257.979 358.643 260.391 347.028 259.35 335.461C257.936 319.957 250.43 305.646 238.479 295.669C226.528 285.692 211.107 280.863 195.6 282.241Z" fill="#221E57"/>
<path opacity="0.37" d="M256.616 357.802C266.287 326.847 249.033 293.913 218.079 284.242C187.124 274.571 154.19 291.825 144.519 322.78C134.849 353.735 152.103 386.668 183.057 396.339C214.012 406.01 246.946 388.756 256.616 357.802Z" fill="#69A9DC"/>
<path opacity="0.44" d="M177.84 394.721L255.41 362.571C258.884 353.921 260.243 344.566 259.374 335.285C258.504 326.004 255.431 317.065 250.41 309.211L144.25 356.241C146.601 364.765 150.841 372.65 156.656 379.312C162.471 385.974 169.711 391.24 177.84 394.721Z" fill="white"/>
<path d="M386.32 397.78C371.851 399.092 357.317 396.083 344.557 389.135C331.798 382.186 321.386 371.609 314.638 358.742C307.891 345.875 305.111 331.296 306.65 316.849C308.189 302.402 313.978 288.736 323.285 277.579C332.592 266.422 344.998 258.276 358.935 254.172C372.872 250.067 387.714 250.188 401.582 254.519C415.451 258.851 427.723 267.197 436.847 278.504C445.971 289.81 451.536 303.569 452.84 318.039C454.563 337.428 448.528 356.709 436.059 371.657C423.59 386.604 405.704 395.998 386.32 397.78ZM374.46 266.139C362.893 267.181 351.895 271.629 342.856 278.921C333.817 286.213 327.144 296.022 323.68 307.107C320.216 318.192 320.116 330.055 323.394 341.197C326.672 352.338 333.18 362.257 342.095 369.7C351.01 377.143 361.933 381.774 373.48 383.01C385.028 384.245 396.683 382.029 406.97 376.64C417.258 371.252 425.717 362.934 431.278 352.738C436.839 342.542 439.251 330.927 438.21 319.36C436.794 303.857 429.287 289.548 417.337 279.572C405.386 269.595 389.967 264.764 374.46 266.139Z" fill="#221E57"/>
<path opacity="0.37" d="M435.467 341.696C445.138 310.741 427.884 277.808 396.929 268.137C365.975 258.466 333.041 275.72 323.37 306.674C313.699 337.629 330.953 370.563 361.908 380.233C392.862 389.904 425.796 372.65 435.467 341.696Z" fill="#69A9DC"/>
<path opacity="0.44" d="M356.65 378.61L434.22 346.46C437.691 337.809 439.048 328.455 438.179 319.174C437.309 309.894 434.238 300.955 429.22 293.1L323.08 340.17C325.434 348.685 329.673 356.561 335.484 363.215C341.295 369.869 348.529 375.131 356.65 378.61Z" fill="white"/>
<path d="M321.69 334.961L310.92 335.961C310.729 333.277 310.004 330.658 308.789 328.257C307.574 325.856 305.892 323.722 303.843 321.978C301.793 320.235 299.416 318.917 296.852 318.102C294.287 317.288 291.586 316.992 288.906 317.234C286.226 317.475 283.621 318.247 281.243 319.507C278.865 320.766 276.762 322.487 275.057 324.569C273.352 326.651 272.078 329.051 271.311 331.63C270.544 334.209 270.299 336.916 270.59 339.591L259.81 340.591C259.367 336.488 259.746 332.338 260.925 328.383C262.103 324.429 264.057 320.748 266.674 317.557C269.29 314.366 272.516 311.727 276.163 309.797C279.81 307.866 283.805 306.681 287.915 306.311C292.025 305.941 296.168 306.393 300.101 307.642C304.034 308.89 307.679 310.91 310.824 313.583C313.968 316.255 316.548 319.528 318.414 323.209C320.28 326.889 321.393 330.905 321.69 335.021V334.961Z" fill="#221E57"/>
<path d="M231.11 497.68C231.11 497.68 227.33 504.171 196.62 476.781C168.07 451.321 161.57 421.501 136.04 429.671C114.56 436.541 132.83 478.321 157.04 511.301C184.46 548.661 232.12 577.741 232.12 577.741" fill="#C9C3C7"/>
<path opacity="0.52" d="M157.05 511.3C180.77 543.61 219.63 569.73 229.69 576.2L232.05 571.41L231.83 553.86C133.56 501.86 136.04 429.67 136.04 429.67C114.56 436.54 132.84 478.32 157.05 511.3Z" fill="#AFACAE"/>
<path d="M382.18 455.971C382.18 455.971 573.18 462.971 514.18 582.521C514.18 582.521 535.27 580.991 539.18 596.261C542.61 609.661 538.7 624.111 514.71 630.701C489.47 637.641 455.24 623.501 464.56 588.291C472.72 557.491 486.19 535.891 439.07 531.721" fill="#C9C3C7"/>
<path opacity="0.52" d="M439.07 531.72C486.19 535.89 472.72 557.49 464.56 588.29C455.24 623.5 489.47 637.64 514.71 630.7C538.71 624.11 542.61 609.7 539.18 596.26C538.776 594.647 538.122 593.109 537.24 591.7C529.4 619.87 516.92 615.02 504.45 614.56C490.7 614.06 472.29 600.33 490.7 552.27C510.37 500.94 427.51 500.6 427.51 500.6L414.76 499.35L439.07 531.72Z" fill="#AFACAE"/>
<path d="M478.615 488.019C479.857 484.363 474.683 479.3 467.059 476.709C459.435 474.118 452.248 474.981 451.006 478.636C449.764 482.291 454.937 487.354 462.561 489.945C470.185 492.536 477.373 491.674 478.615 488.019Z" fill="white"/>
<path d="M491.855 615.539C495.232 613.59 495.128 607.089 491.624 601.02C488.12 594.95 482.542 591.61 479.165 593.56C475.788 595.509 475.892 602.01 479.396 608.08C482.9 614.149 488.478 617.489 491.855 615.539Z" fill="white"/>
<path d="M501.89 618.469C504.315 618.469 506.28 616.504 506.28 614.079C506.28 611.655 504.315 609.689 501.89 609.689C499.465 609.689 497.5 611.655 497.5 614.079C497.5 616.504 499.465 618.469 501.89 618.469Z" fill="white"/>
<path d="M158.258 460.762C161.679 459.401 162.199 452.635 159.42 445.649C156.641 438.664 151.615 434.104 148.194 435.465C144.773 436.826 144.253 443.592 147.032 450.578C149.811 457.563 154.837 462.123 158.258 460.762Z" fill="white"/>
<path d="M267.792 660.718C272.262 658.506 272.399 649.666 268.097 640.974C263.796 632.282 256.685 627.029 252.215 629.241C247.745 631.453 247.609 640.292 251.911 648.984C256.212 657.676 263.323 662.93 267.792 660.718Z" fill="white"/>
<path d="M288.443 787.076C292.938 786.099 294.81 777.155 292.623 767.101C290.436 757.047 285.02 749.69 280.524 750.667C276.029 751.645 274.157 760.588 276.344 770.642C278.531 780.696 283.947 788.054 288.443 787.076Z" fill="white"/>
<path d="M518.772 676.522C521.41 673.357 518.025 666.188 511.212 660.509C504.398 654.83 496.736 652.792 494.098 655.957C491.461 659.122 494.846 666.291 501.659 671.97C508.473 677.649 516.134 679.687 518.772 676.522Z" fill="white"/>
<path d="M586.525 708.934C590.471 708.03 593.353 705.914 592.962 704.208C592.571 702.501 589.056 701.85 585.11 702.754C581.164 703.658 578.282 705.774 578.673 707.481C579.063 709.187 582.579 709.838 586.525 708.934Z" fill="white"/>
</g>
<defs>
<clipPath id="clip0_5470_19739">
<rect width="631.12" height="950.66" fill="white"/>
</clipPath>
</defs>
</svg>
