<svg width="660" height="910" viewBox="0 0 660 910" fill="none" xmlns="http://www.w3.org/2000/svg">
<g clip-path="url(#clip0_4838_413)">
<path d="M315.02 909.409C427.587 909.409 518.84 887.292 518.84 860.009C518.84 832.727 427.587 810.609 315.02 810.609C202.453 810.609 111.2 832.727 111.2 860.009C111.2 887.292 202.453 909.409 315.02 909.409Z" fill="#A7A9AC"/>
<path d="M534.45 406.3H534.77L537.45 406.69L538.93 406.95L539.93 407.07L542.15 407.33L544.45 407.56L546.59 407.75H547.12L549.12 407.89L550.06 407.94L551.57 408.02H552.5L554.15 408.08H555.27H556.76H560.55H562.25H563.25C564.1 408.08 564.95 408.02 565.8 407.97H566.49L568.78 407.82L569.78 407.73L571.54 407.58L572.75 407.45L574.37 407.27L575.67 407.1L577.34 406.87L578.59 406.68C579.16 406.6 579.73 406.5 580.27 406.41L581.55 406.18L583.42 405.82L584.42 405.61C585.42 405.41 586.34 405.19 587.29 404.97L587.94 404.8C588.74 404.61 589.53 404.41 590.33 404.19L591.64 403.82L593.32 403.33L594.58 402.94L596.3 402.38L597.64 401.91L599.35 401.29L600.66 400.79L602.4 400.09L602.62 400L603.62 399.57C604.26 399.3 604.9 399.01 605.53 398.72L605.76 398.62L606.62 398.22C607.62 397.76 608.56 397.28 609.62 396.75L610.19 396.44C610.97 396.03 611.74 395.62 612.5 395.19L613.39 394.67L613.63 394.53C614.23 394.18 614.82 393.83 615.4 393.47L616.4 392.82L616.62 392.67C617.17 392.32 617.73 391.96 618.28 391.59L619.52 390.73C620.06 390.36 620.59 389.97 621.13 389.57C621.67 389.17 621.94 388.98 622.33 388.68C622.88 388.26 623.43 387.83 623.95 387.41L624.12 387.27L625.12 386.46C625.7 385.98 626.28 385.46 626.85 384.98L627.06 384.8L627.83 384.12C628.76 383.28 629.61 382.47 630.41 381.69L630.96 381.13C631.64 380.45 632.32 379.75 632.96 379.04L633.69 378.23L633.91 377.99C634.43 377.42 634.91 376.85 635.47 376.23L636.34 375.23L636.46 375.09C636.93 374.51 637.4 373.94 637.86 373.36L638.86 372.02C639.3 371.43 639.74 370.84 640.18 370.23C640.5 369.77 640.83 369.32 641.18 368.87C641.63 368.23 642.06 367.57 642.47 366.95L642.58 366.78C642.85 366.37 643.12 365.96 643.36 365.57C643.83 364.84 644.28 364.08 644.73 363.32L644.9 363.04C645.09 362.74 645.27 362.43 645.46 362.11C646.16 360.89 646.79 359.74 647.39 358.59C653.268 347.016 657.336 334.608 659.45 321.8C660.049 318.41 659.464 314.916 657.792 311.906C656.121 308.896 653.465 306.553 650.27 305.27C636.708 300.358 622.394 297.844 607.97 297.84C588.74 297.84 563.89 302.57 542.33 321.78C542.67 321.13 543.01 320.48 543.33 319.78L543.46 319.53C543.83 318.8 544.19 318.07 544.57 317.28L544.64 317.14C545.38 315.58 546.09 314.01 546.75 312.48L546.85 312.22C547.18 311.45 547.5 310.68 547.85 309.9L547.97 309.6C548.28 308.81 548.59 308.02 548.9 307.17L548.96 307.01C549.57 305.33 550.16 303.62 550.68 301.96L550.76 301.68C551.02 300.84 551.27 300 551.53 299.06L551.6 298.82C551.83 297.99 552.06 297.15 552.27 296.31C552.27 296.2 552.32 296.08 552.35 295.96C552.79 294.19 553.18 292.39 553.52 290.61L553.58 290.26C553.74 289.38 553.89 288.49 554.04 287.55L554.09 287.24C554.22 286.33 554.35 285.42 554.46 284.49V284.25C554.68 282.35 554.85 280.4 554.95 278.37V278.16C554.95 277.21 555.02 276.26 555.04 275.29V274.9C555.04 273.95 555.04 272.99 555.04 271.96V271.77C554.99 269.77 554.87 267.72 554.67 265.67V265.38C554.57 264.38 554.45 263.38 554.31 262.38L554.26 262.02C554.13 261.02 553.97 260.02 553.8 259.02L553.75 258.73C553.38 256.66 552.92 254.57 552.39 252.46L552.31 252.15C552.05 251.15 551.77 250.15 551.49 249.22L551.34 248.72C551.03 247.72 550.71 246.72 550.34 245.63L550.26 245.42C549.53 243.32 548.71 241.21 547.78 239.07L547.65 238.77C547.22 237.77 546.76 236.77 546.28 235.77L546.06 235.32C545.57 234.32 545.06 233.32 544.57 232.39L544.38 232.03C538.386 221.103 530.739 211.169 521.71 202.58L522.39 202.12C524.23 200.853 526.05 199.493 527.85 198.04L528.11 197.83C528.95 197.15 529.79 196.45 530.64 195.7L530.98 195.4C531.81 194.67 532.64 193.92 533.51 193.1L533.69 192.92C535.39 191.3 537.057 189.577 538.69 187.75L538.93 187.48C539.7 186.63 540.46 185.75 541.17 184.91L541.55 184.44C542.3 183.53 543.05 182.61 543.74 181.7L544 181.37C552.44 170.37 559.25 156.87 564.24 141.32C565.244 138.204 565.201 134.845 564.118 131.756C563.034 128.666 560.97 126.016 558.24 124.21C558.01 124.06 532 108.7 497.99 108.7C472.46 108.7 438.99 117.44 412.05 154.57C410.24 149.71 408.49 145.24 406.85 141.23C407.22 140.71 407.58 140.23 407.94 139.64L408.04 139.5C408.88 138.26 409.72 136.98 410.53 135.7L410.66 135.5L411.87 133.55L412 133.33C412.4 132.68 412.79 132.02 413.2 131.33L413.28 131.19C414.09 129.79 414.89 128.36 415.6 127.03L415.77 126.72C416.14 126.02 416.5 125.32 416.9 124.54L417.01 124.31C417.37 123.6 417.73 122.88 418.11 122.08L418.18 121.95C418.91 120.41 419.62 118.84 420.27 117.32L420.4 117.03C420.72 116.27 421.04 115.5 421.34 114.73L421.48 114.39C421.79 113.61 422.09 112.83 422.41 111.97C422.41 111.97 422.41 111.82 422.41 111.81C423.03 110.13 423.61 108.42 424.14 106.74L424.22 106.47C424.48 105.637 424.73 104.797 424.97 103.95L425.05 103.64C425.29 102.79 425.52 101.93 425.73 101.07L425.79 100.83C426.24 99.0199 426.64 97.1899 426.97 95.4199C426.97 95.4199 427.03 95.0999 427.03 95.0799C427.2 94.1999 427.35 93.3099 427.5 92.3299V92.0399C427.64 91.1399 427.76 90.2199 427.87 89.3099C427.87 89.2599 427.87 88.9899 427.87 88.9899C428.09 87.1099 428.25 85.1799 428.36 83.1799V82.9499C428.41 82.0199 428.44 81.0799 428.45 80.1399C428.45 80.1399 428.45 79.7399 428.45 79.7099C428.45 78.7599 428.45 77.8099 428.45 76.7799V76.5799C428.403 74.5799 428.283 72.5399 428.09 70.4599V70.1999C427.99 69.1999 427.88 68.1999 427.74 67.1999V66.8299C427.6 65.8299 427.45 64.8299 427.26 63.8299V63.6199C426.887 61.5399 426.43 59.4532 425.89 57.3599L425.93 56.9499C425.67 55.9499 425.39 54.9499 425.1 53.9499L424.96 53.4999C424.66 52.4999 424.34 51.4999 423.96 50.4999L423.86 50.1999C423.13 48.1099 422.3 45.9899 421.4 43.9099L421.25 43.5499C420.81 42.5499 420.36 41.5499 419.89 40.5499L419.66 40.0599C419.18 39.0599 418.66 38.0599 418.15 37.0599L417.98 36.7299C411.81 25.1899 402.93 14.0999 391.55 3.7299C389.152 1.55129 386.114 0.207365 382.889 -0.100872C379.665 -0.40911 376.427 0.334905 373.66 2.0199C373.16 2.3199 334.36 30.0199 328.53 75.8099L327.64 75.3699L327.39 75.2499C326.76 74.9399 326.14 74.6399 325.51 74.3499L324.34 73.8199L324.19 73.7599C323.58 73.4899 322.97 73.2199 322.37 72.9799C321.77 72.7399 321.45 72.5999 320.95 72.3999L319.11 71.6999L317.66 71.1799L315.66 70.5299L315.39 70.4399L314.28 70.0899C313.55 69.8699 312.81 69.6699 312.08 69.4699L311.82 69.3999L310.82 69.1199C309.61 68.8099 308.47 68.5399 307.38 68.3099L306.61 68.1599C305.66 67.9699 304.71 67.7799 303.74 67.6199L302.65 67.4499H302.35C301.59 67.3299 300.82 67.2199 300.02 67.1199L298.73 66.9699H298.49C297.75 66.8899 297 66.8099 296.24 66.7499L294.59 66.6299L292.34 66.5199L290.7 66.4699C290.12 66.4699 289.54 66.4699 288.96 66.4699H286.72C285.86 66.4699 284.98 66.5299 284.12 66.5699H283.8H282.71C281.32 66.6599 280 66.7599 278.71 66.8999H278.51C265.685 68.3975 253.165 71.8438 241.38 77.1199C238.703 78.2882 236.425 80.2126 234.827 82.6569C233.228 85.1012 232.378 87.9591 232.38 90.8799C232.38 94.5399 236.11 108.88 244.38 124.11C240.323 130.559 237.145 137.52 234.93 144.81L234.74 144.68L233.74 144.04C233.16 143.66 232.57 143.29 231.97 142.92L230.97 142.29C230.05 141.73 229.11 141.18 228.22 140.69C228 140.56 227.77 140.44 227.54 140.32C226.78 139.9 226 139.49 225.22 139.09L224.29 138.63L224.07 138.52L222.18 137.61L220.93 137.05H220.85L219.05 136.28L217.6 135.69C216.993 135.45 216.383 135.22 215.77 135C215.3 134.82 214.82 134.65 214.33 134.48C213.68 134.26 213.03 134.04 212.39 133.84L212.18 133.77L210.96 133.38C210.24 133.17 209.51 132.96 208.76 132.76L208.48 132.68L207.48 132.42C206.27 132.11 205.13 131.84 204.04 131.61L203.28 131.46C202.33 131.27 201.38 131.08 200.39 130.91L199.3 130.75L198.99 130.7C198.23 130.59 197.47 130.47 196.68 130.37L195.35 130.22H195.13C194.39 130.14 193.66 130.07 192.9 130.01L191.28 129.89C190.54 129.89 189.8 129.81 189 129.77L187.36 129.72H183.36C182.49 129.72 181.61 129.78 180.77 129.82H180.44L179.33 129.88C177.92 129.96 176.6 130.07 175.33 130.2C162.434 131.689 149.842 135.142 137.99 140.44C134.937 141.767 132.412 144.073 130.813 146.993C129.215 149.913 128.633 153.283 129.16 156.57C132.723 171.775 139.159 186.16 148.12 198.95C167.55 226.81 195.88 241.54 230.03 241.54H232.15C236.34 246.71 241.49 253.27 247.24 260.98C243.454 260.444 239.634 260.173 235.81 260.17C209.43 260.17 189.32 273.08 176.32 285.5L176.17 285.2C175.82 284.55 175.46 283.91 175.12 283.31L175 283.09L174.5 282.21C173.89 281.21 173.3 280.21 172.72 279.33C172.59 279.12 172.45 278.91 172.27 278.66C171.78 277.91 171.27 277.16 170.73 276.38L170.13 275.56L169.95 275.32C169.51 274.72 169.07 274.12 168.63 273.55L167.78 272.48L167.7 272.38C167.26 271.82 166.81 271.27 166.34 270.72C165.87 270.17 165.66 269.93 165.34 269.54C164.88 269 164.4 268.48 163.91 267.94L162.82 266.77C162.31 266.24 161.82 265.71 161.27 265.2L161.09 265.01C160.78 264.7 160.47 264.39 160.16 264.1C159.573 263.527 158.963 262.957 158.33 262.39L158.1 262.18L157.35 261.49C156.35 260.6 155.35 259.79 154.44 259C144.798 251.304 134.033 245.132 122.52 240.7C119.314 239.424 115.767 239.292 112.475 240.327C109.183 241.362 106.349 243.499 104.45 246.38C96.5031 259.259 91.1274 273.556 88.62 288.48C86.15 303.29 86.15 322.48 95.02 342.2C93.88 342.15 92.73 342.13 91.6 342.13C34.15 342.13 2.44997 394.28 2.13997 394.81C0.388371 397.754 -0.302937 401.208 0.180983 404.599C0.664902 407.99 2.29488 411.114 4.79996 413.45C16.16 424.04 28.08 432.07 40.29 437.35L40.52 437.44C41.58 437.9 42.63 438.33 43.67 438.73L44.16 438.92C45.16 439.31 46.25 439.69 47.28 440.05L47.66 440.17C49.83 440.91 52.03 441.56 54.21 442.17L54.4799 442.24C55.5299 442.51 56.57 442.75 57.69 442.99L58.06 443.07C59.06 443.29 60.12 443.49 61.15 443.66L61.5099 443.72C63.6299 444.08 65.77 444.36 67.89 444.56H68.16C69.16 444.65 70.16 444.72 71.28 444.78H71.62C72.62 444.83 73.62 444.86 74.53 444.88H75.93C77.64 444.88 79.36 444.88 80.99 444.73H81.32C82.32 444.67 83.25 444.6 84.12 444.51H84.63L87.47 444.18H87.75C89.68 443.91 91.63 443.58 93.56 443.18H93.7899C94.7099 442.99 95.62 442.79 96.56 442.56L96.88 442.49L99.47 441.83L99.83 441.73C101.64 441.23 103.46 440.67 105.2 440.08L105.49 439.99L107.97 439.11L108.32 438.98C109.15 438.67 109.96 438.35 110.78 437.98L111.05 437.87C112.7 437.2 114.37 436.47 116.05 435.71L116.24 435.62C117.02 435.26 117.8 434.88 118.57 434.5L118.89 434.34C119.64 433.97 120.39 433.58 121.21 433.15L121.37 433.06C122.89 432.26 124.37 431.41 125.82 430.59L126.1 430.43L128.19 429.17L128.46 429C129.15 428.58 129.83 428.15 130.51 427.71L130.72 427.58C131.53 427.06 132.33 426.52 133.14 425.98C135.56 430.04 138.21 434.36 141.08 438.86C138.091 438.537 135.087 438.37 132.08 438.36C77.91 438.36 53.81 489.69 53.6 490.21C52.379 493.233 52.1764 496.572 53.0226 499.72C53.8689 502.869 55.718 505.656 58.2899 507.66C66.8584 514.485 76.423 519.955 86.65 523.88C87.7 524.27 88.78 524.64 89.9 525.01L90.78 525.28L90.99 525.34C91.71 525.57 92.43 525.79 93.15 525.99L94.36 526.31H94.47C95.11 526.48 95.76 526.64 96.4 526.79C96.87 526.91 97.34 527.01 97.7899 527.11L99.68 527.49L101.04 527.74L102.93 528.04H103.11L104.28 528.2L106.28 528.42H106.53L107.47 528.51C108.3 528.58 109.13 528.63 109.96 528.68H109.89C110.14 528.68 110.39 528.68 110.61 528.68C111.61 528.68 112.61 528.75 113.61 528.75H114.73C115.38 528.75 116.03 528.75 116.67 528.75L117.75 528.7H117.93L119.68 528.58L121 528.45C121.56 528.45 122.12 528.33 122.67 528.27L123.93 528.1L125.61 527.84L126.82 527.64L128.62 527.28H128.83L129.65 527.11C130.4 526.94 131.14 526.76 131.85 526.58L132.43 526.44C133.33 526.2 134.22 525.95 135.06 525.7L135.9 525.43L136.06 525.38C136.63 525.2 137.21 525.02 137.75 524.83L138.84 524.45L140.32 523.91L141.48 523.46C141.95 523.27 142.42 523.09 142.91 522.88L143.98 522.43L145.38 521.81L145.49 521.76L146.41 521.33L147.89 520.62L148.79 520.17L150.68 519.17L151.15 518.92C151.87 518.52 152.59 518.12 153.3 517.71L154.12 517.22L155.52 516.37L156.36 515.84L157.59 515.06L158.54 514.43L159.71 513.63C160 513.43 160.3 513.23 160.57 513.03C160.84 512.83 161.34 512.49 161.74 512.19L162.57 511.59L163.7 510.74L164.44 510.17C164.96 509.78 165.44 509.37 166.01 508.94L166.32 508.69L168.07 507.24L168.73 506.68L169.73 505.78L170.45 505.14L171.45 504.29L172.18 503.62L173.18 502.72L173.82 502.11L175.34 500.63L176.82 499.15L178.05 497.86L178.24 497.67L179.52 496.3L180.84 494.83L181.37 494.23L182.14 493.35C199.009 512.552 217.993 529.788 238.73 544.73C207.27 552.23 188.73 572.3 178.33 589.44C170.058 603.004 164.489 618.04 161.93 633.72C161.487 637.146 162.24 640.62 164.062 643.555C165.884 646.491 168.663 648.707 171.93 649.83C184.092 654.176 196.845 656.647 209.75 657.16H209.93C210.77 657.16 211.6 657.16 212.42 657.16H213.96H215.01H215.36C216.24 657.16 217.12 657.11 217.97 657.06C218.42 657.06 218.86 657 219.3 656.97H219.6C220.37 656.91 221.15 656.85 221.97 656.77L223.6 656.59L225.82 656.31L227.45 656.06L229.64 655.68H229.86L231.21 655.42C231.97 655.27 232.72 655.09 233.45 654.93L233.74 654.86C234.12 654.77 234.5 654.69 234.83 654.6C235.83 654.37 236.74 654.11 237.66 653.84C237.92 653.78 238.17 653.7 238.43 653.63C239.51 653.31 240.61 652.96 241.78 652.56L242.78 652.22L243.09 652.11C243.797 651.863 244.507 651.603 245.22 651.33L246.38 650.86L246.57 650.78L248.46 649.99L249.86 649.36L251.67 648.51L253.01 647.84C253.61 647.54 254.2 647.23 254.76 646.93H254.85L256.05 646.28C256.66 645.94 257.26 645.58 257.86 645.23L258.11 645.08C258.4 644.92 258.68 644.75 258.99 644.56C259.75 644.1 260.49 643.63 261.22 643.15L261.79 642.78C262.7 642.18 263.59 641.57 264.49 640.92L265.19 640.41L265.46 640.21C266.02 639.8 266.57 639.39 267.09 638.99L268.09 638.23L268.22 638.13L269.68 636.96L270.74 636.06L272.12 634.86C272.47 634.56 272.81 634.25 273.12 633.93L274.43 632.71C274.76 632.41 275.09 632.1 275.43 631.78C275.77 631.46 276.35 630.88 276.81 630.41L277.64 629.58L279.33 627.8L279.84 627.26C280.49 626.55 281.13 625.83 281.74 625.12C281.92 624.92 282.47 624.26 282.47 624.26C282.88 623.79 283.28 623.31 283.69 622.81L284.49 621.81L285.56 620.46L286.34 619.46L287.34 618.15L288.12 617.1L289.12 615.72L289.8 614.72C290.133 614.24 290.467 613.75 290.8 613.25L291.41 612.35C291.82 611.72 292.23 611.09 292.63 610.45L292.98 609.91C293.44 609.18 293.88 608.45 294.34 607.69L294.84 606.84C295.13 606.36 295.42 605.84 295.68 605.4L296.28 604.35L296.93 602.95L297.47 601.95L298.17 600.65L298.66 599.7C298.9 599.25 299.12 598.8 299.35 598.36L299.83 597.36L300.9 595.15L301.77 593.3L301.96 592.87C302.28 592.19 302.58 591.51 302.88 590.87C302.88 590.87 303.61 589.18 303.78 588.77C303.78 588.77 304.49 587.09 304.65 586.67L304.99 585.84L305.77 583.84L306.5 581.9L307.16 580.09V580.01C313.72 582.223 320.34 584.143 327.02 585.77C307.12 697.28 280.93 842.54 280.83 843.33C280.437 845.491 280.525 847.713 281.085 849.837C281.646 851.961 282.666 853.936 284.074 855.623C285.482 857.309 287.243 858.666 289.233 859.597C291.223 860.528 293.393 861.01 295.59 861.01H332C335.512 861.011 338.913 859.779 341.611 857.529C344.308 855.28 346.13 852.155 346.76 848.7C347.08 846.94 365.76 743.25 383.83 642.9C411.729 633.014 437.18 617.252 458.46 596.68C476.56 579.09 491.68 557.85 503.55 533.35L504.78 534.35L506.24 535.53L506.45 535.69L508.03 536.95L508.12 537.02C509.19 537.85 510.31 538.68 511.48 539.54L511.63 539.65L513.28 540.83L513.56 541.03L515.27 542.22L515.47 542.36C516.74 543.22 518.02 544.06 519.27 544.86L519.45 544.97L521.34 546.16L521.63 546.33C522.28 546.73 522.94 547.12 523.63 547.51L523.81 547.62C525.22 548.44 526.65 549.24 528.05 549.99L528.26 550.11L530.44 551.25L530.67 551.36L532.85 552.45L533.03 552.54C534.577 553.28 536.15 553.997 537.75 554.69L537.93 554.76C538.7 555.09 539.48 555.42 540.19 555.7L540.58 555.86C541.34 556.16 542.11 556.46 542.89 556.75L543.21 556.87C544.87 557.48 546.55 558.06 548.27 558.6L548.49 558.67C549.32 558.93 550.15 559.18 550.98 559.41L551.34 559.51C552.19 559.75 553.04 559.98 553.91 560.2H554.12C555.92 560.66 557.76 561.06 559.67 561.42H559.88C560.77 561.59 561.66 561.74 562.54 561.88L562.91 561.94C563.83 562.08 564.75 562.21 565.67 562.32H565.91C567.82 562.55 569.77 562.72 571.69 562.83H572.01C573.01 562.83 573.9 562.92 574.9 562.93H578.37C580.37 562.93 582.42 562.77 584.51 562.58H584.79C585.79 562.49 586.79 562.38 587.68 562.25H588.13C589.13 562.11 590.13 561.96 591.04 561.8L591.39 561.74C593.47 561.37 595.56 560.92 597.63 560.4L597.97 560.31C598.97 560.06 599.97 559.78 600.97 559.49L601.42 559.35C602.42 559.05 603.42 558.73 604.42 558.35L604.7 558.25C606.8 557.53 608.91 556.71 611 555.81L611.35 555.66C612.35 555.23 613.35 554.78 614.35 554.3L614.8 554.08C615.8 553.6 616.8 553.08 617.8 552.55L618.07 552.41C629.62 546.28 640.74 537.41 651.07 526.07C653.26 523.674 654.614 520.631 654.927 517.4C655.241 514.169 654.498 510.923 652.81 508.15C652.53 507.69 620.45 462.15 567.26 462.15C552.618 462.274 538.176 465.57 524.93 471.81C526.33 465.81 527.59 459.733 528.71 453.58C531.517 437.941 533.433 422.156 534.45 406.3ZM399.1 375.66L400.01 376.58L401.21 377.73C401.53 378.03 401.84 378.33 402.21 378.62L403.49 379.76L403.65 379.89C403.9 380.12 404.16 380.34 404.4 380.54C404.86 380.93 405.33 381.31 405.81 381.69L405.98 381.83L406.67 382.37C407.26 382.84 407.86 383.28 408.4 383.68L408.94 384.07C409.69 384.62 410.46 385.14 411.24 385.66L412.08 386.2L413.55 387.14L414.36 387.63L414.58 387.75L415.95 388.56L416.95 389.12L418.31 389.86L419.31 390.39C419.73 390.61 420.16 390.82 420.58 391.02C410.29 386.807 399.425 384.168 388.35 383.19C391.603 380.31 394.69 377.283 397.61 374.11L397.85 374.37C398.28 374.81 398.68 375.24 399.1 375.66ZM465.64 430.56C454.58 411.92 440.18 400.34 425.55 393.25L426.63 393.69C427.4 394 428.17 394.3 428.93 394.57L429.93 394.93L431.32 395.42L432.32 395.75L433.7 396.19L434.7 396.5L436.07 396.9L437.14 397.2L438.52 397.56L439.52 397.81L440.95 398.15L441.86 398.36L443.73 398.76L444.19 398.85L446.37 399.27L447.19 399.41L448.68 399.66L450.85 399.99L451.85 400.12L453.05 400.27L453.98 400.38L455.27 400.52L456.17 400.62L458.17 400.8L459.97 400.93H460.3L462.1 401.03L464.1 401.12L465.9 401.17H467.84H468.58C468.03 410.64 467.09 420.49 465.64 430.56ZM398.44 561.21C400 552.4 401.5 543.9 402.93 535.84C405.246 522.513 406.51 509.025 406.71 495.5L408.04 495.92L409.25 496.29L410.86 496.75L412.08 497.09L413.72 497.52L414.9 497.82L416.58 498.22L417.66 498.47C418.4 498.64 419.14 498.79 419.84 498.94L420.49 499.07C421.35 499.24 422.21 499.41 423.07 499.56L424.07 499.73L425.78 500.02L426.62 500.15L428.44 500.42L429.53 500.57L430.99 500.75L432.09 500.88L433.57 501.05L434.63 501.16L436.17 501.3L437.08 501.38L439.16 501.53H439.61C440.35 501.53 441.08 501.63 441.8 501.66C441.8 501.66 443.62 501.75 444.11 501.76H445.55C433.93 526.76 418.19 546.62 398.44 561.21ZM458.84 311.83C450.771 306.575 441.853 302.758 432.48 300.55C436.58 276.11 435.84 248.7 430.26 218.81C430 217.4 429.72 215.98 429.44 214.55L431.27 214.98C432.67 215.31 434.1 215.62 435.61 215.98H435.81L437.94 216.39L438.28 216.46C439.01 216.59 439.75 216.73 440.49 216.85H440.72C442.31 217.13 443.92 217.37 445.5 217.59H445.76L448.15 217.89H448.44L450.92 218.16H451.09C452.81 218.33 454.54 218.47 456.22 218.58H456.5L458.95 218.71H459.35C460.21 218.71 461.07 218.78 461.93 218.79H462.17H464.68H467.68H467.93C468.81 218.79 469.7 218.74 470.6 218.69H470.93L473.59 218.53H473.86C475.47 218.41 477.1 218.25 478.71 218.06C474.78 222.899 471.23 228.034 468.09 233.42C457.59 251.61 448.51 278.95 458.84 311.83ZM296.56 213.15L296.8 212.82C297.12 212.4 297.43 211.97 297.8 211.46L298.87 209.95L299.3 209.34L300.06 208.22L301.17 206.53L301.67 205.76C301.89 205.41 302.11 205.07 302.33 204.71L302.77 204C303.01 203.6 303.26 203.2 303.47 202.84L303.9 202.11C304.24 201.52 304.59 200.92 304.9 200.38L305.18 199.87C305.48 199.34 305.77 198.81 306.02 198.32L306.46 197.49L307.07 196.29L307.41 195.6L308.09 194.2L308.52 193.28C308.7 192.88 308.89 192.48 309.08 192.05L309.47 191.15C309.66 190.72 309.84 190.3 310.01 189.88L310.4 188.93C310.59 188.47 310.77 187.99 310.95 187.52L311.27 186.67C311.54 185.95 311.8 185.23 312.05 184.5L312.23 183.95C312.44 183.32 312.64 182.7 312.81 182.13C312.89 181.88 312.97 181.63 313.04 181.37L313.11 181.14C313.25 180.65 313.39 180.14 313.53 179.66C313.61 179.4 313.81 178.66 313.81 178.66L314.16 177.26C314.16 177.1 314.23 176.95 314.27 176.79C320.58 177.894 326.974 178.443 333.38 178.43C334.94 178.43 336.54 178.43 338.14 178.34H338.3C339.54 178.29 340.8 178.22 342.05 178.13H342.74C344 178.03 345.35 177.91 346.91 177.74L347.45 177.69C348.33 177.59 349.22 177.49 350.12 177.37C363.22 212.61 380.38 274.52 358.89 315.28C354.89 307.4 350.647 299.537 346.16 291.69C330.91 265.007 313.899 239.37 295.24 214.95L295.54 214.58L296.56 213.15ZM291.02 497.63L291.2 497.46L292.56 496.2L292.76 496C293.22 495.56 293.69 495.12 294.16 494.66L294.29 494.53C295.29 493.53 296.24 492.6 297.23 491.53L297.39 491.37L298.83 489.95L299.03 489.74L300.46 488.2L300.6 488.05C301.6 486.93 302.6 485.78 303.6 484.63L303.76 484.44L305.18 482.75L305.38 482.5C305.86 481.92 306.33 481.33 306.81 480.74C306.853 480.677 306.9 480.617 306.95 480.56C307.95 479.29 308.95 477.99 309.95 476.66L310.07 476.5C310.54 475.86 311 475.21 311.46 474.56L311.64 474.31C312.11 473.64 312.56 472.97 313.05 472.26L313.14 472.11C314.14 470.69 315.03 469.23 315.87 467.85L316.03 467.58C316.47 466.86 316.9 466.13 317.29 465.45L317.49 465.12C317.9 464.38 318.32 463.65 318.71 462.92L318.83 462.7C319.67 461.14 320.49 459.527 321.29 457.86L321.38 457.67C321.75 456.89 322.12 456.1 322.47 455.3L322.62 454.96C322.98 454.15 323.33 453.33 323.62 452.54L323.71 452.31C324.41 450.59 325.07 448.83 325.71 447.07L325.8 446.81C326.09 445.95 326.36 445.09 326.63 444.22C326.63 444.22 326.74 443.88 326.75 443.84C327.01 442.96 327.27 442.07 327.49 441.23L327.57 440.95C328.063 439.09 328.503 437.187 328.89 435.24C328.894 435.15 328.894 435.06 328.89 434.97C329.07 434.05 329.24 433.12 329.4 432.13V431.81C329.55 430.81 329.68 429.91 329.81 428.81V428.65C330.05 426.65 330.22 424.65 330.31 422.65C330.31 422.65 330.31 421.65 330.37 421.43C339.3 453.43 343.56 487.5 338.45 520.62C321.084 515.885 304.495 508.66 289.2 499.17C289.87 498.68 290.45 498.16 291.02 497.63ZM178.93 368.59L179.33 367.38L179.59 366.6L180.25 364.5C180.45 363.86 180.64 363.2 180.85 362.5L180.99 362.01C181.16 361.42 181.33 360.82 181.5 360.17C181.5 360.17 181.97 358.41 182.1 357.9L182.67 355.61C182.76 355.24 182.84 354.88 182.92 354.53C183 354.18 183.13 353.62 183.23 353.15L183.46 352.1C183.56 351.63 183.65 351.16 183.75 350.69L183.96 349.62C184.06 349.1 184.15 348.62 184.25 348.03L184.42 347.09C184.56 346.29 184.69 345.49 184.8 344.73L184.91 344.01C185.01 343.32 185.11 342.63 185.21 341.88L185.45 339.88C187.023 340.72 188.6 341.503 190.18 342.23C191.18 342.69 192.18 343.13 193.32 343.59L194.22 343.94L194.42 344.02C195.12 344.3 195.82 344.57 196.52 344.82L197.7 345.23H197.8L199.72 345.87C200.18 346.01 200.62 346.15 201.06 346.27C201.67 346.46 202.29 346.63 202.92 346.8L204.27 347.16L206.11 347.59H206.28L207.42 347.84C208.07 347.97 208.71 348.09 209.42 348.21L209.67 348.26L210.59 348.42C211.4 348.55 212.21 348.66 213.01 348.76L213.67 348.85C214.67 348.97 215.67 349.07 216.67 349.15L217.59 349.2H217.79C218.44 349.2 219.09 349.28 219.79 349.3H220.79H222.79H224.11L225.82 349.24L227.1 349.16C227.66 349.16 228.22 349.08 228.8 349.03L229.99 348.92C230.58 348.86 231.17 348.78 231.79 348.7H232.01L232.87 348.59C233.62 348.48 234.37 348.36 235.05 348.24L235.68 348.13C236.6 347.97 237.5 347.78 238.38 347.59L239.22 347.39H239.39L241.1 346.98L242.15 346.69H242.2C242.73 346.54 243.26 346.4 243.75 346.25L244.89 345.91L246.38 345.43L247.48 345.06L248.92 344.54L250 344.14C250.51 343.95 251 343.75 251.55 343.53L252.47 343.16C253.12 342.89 253.76 342.61 254.39 342.33L254.88 342.11C255.64 341.77 256.39 341.41 257.14 341.05L258.01 340.62L259.44 339.89L260.36 339.41L261.65 338.71L262.6 338.18L263.83 337.48L264.73 336.94L265.95 336.2L266.82 335.66L268.04 334.88L268.82 334.38L270.36 333.38L270.93 332.95C271.52 332.54 272.1 332.13 272.62 331.75L273.15 331.36L274.5 330.36L276.3 328.98L276.82 328.56L278 327.62L278.77 327L279.69 326.23L280.38 325.64C280.72 325.36 281.96 324.28 281.96 324.28C282.39 323.9 282.81 323.53 283.22 323.15L283.53 322.87L284.9 321.61L286.47 320.12C287.39 321.7 288.3 323.29 289.19 324.87C293.72 332.87 298.32 341.43 302.81 350.49C300.512 348.118 297.496 346.57 294.228 346.087C290.961 345.604 287.626 346.214 284.74 347.82C270.991 355.691 258.879 366.126 249.06 378.56C237.4 393.39 225.79 415.87 227.83 445.25C226.09 443.25 224.363 441.187 222.65 439.06C205.481 417.924 190.583 395.042 178.2 370.79L178.93 368.59Z" fill="#231F20"/>
<path d="M516.43 316.33L480.93 322.04C481.03 322.62 490.17 381.59 478.46 445.41C465.14 518.02 431.4 566.63 378.07 590.29C381.7 569.97 385.14 550.61 388.2 533.23C395.01 494.59 392.2 452.39 379.74 407.8C377.073 398.18 373.943 388.447 370.35 378.6C413.2 346.6 428.83 292.6 415.57 221.6C405.5 167.7 382.36 122.88 381.38 121L349.44 137.62C350.23 139.13 422.51 280.71 356.02 343.62C349.3 328.887 341.68 314.023 333.16 299.03C297.35 236.19 258.55 193.65 256.93 191.87L230.4 216.21C230.78 216.62 268.47 258.02 302.21 317.5C332.63 371.15 366.09 451.03 352.7 526.95C352.033 530.75 351.347 534.643 350.64 538.63C299.53 529.63 252.64 499.45 211 448.57C175.69 405.41 157.8 362.97 157.63 362.57L141.01 369.47L124.38 376.36C125.16 378.26 144.08 423.36 182.47 470.58C205.23 498.58 230.18 521.48 256.63 538.73C284.39 556.84 313.82 568.67 344.35 574.07C324.16 687.26 295.93 844.29 295.59 846.01H332C332.27 844.54 352.23 734.01 370.64 631.53C447.48 607.27 497.02 544.95 513.99 450.95C526.6 381.18 516.85 318.95 516.43 316.33Z" fill="#D38D75"/>
<path d="M498.23 507.45C581.4 434.67 640.05 516.02 640.05 516.03C593.51 503.95 546.27 500.69 498.23 507.45Z" fill="#66BE64"/>
<path d="M640.05 516.029C569.87 592.839 498.23 507.449 498.23 507.449C546.27 500.689 593.51 503.949 640.05 516.029Z" fill="#4CA84E"/>
<g style="mix-blend-mode:multiply">
<path d="M613.73 537.75C531.86 528.37 528.23 486.95 528.23 486.95C517.384 492.471 507.3 499.375 498.23 507.49C498.23 507.49 553.04 572.77 613.73 537.75Z" fill="#4CA84E"/>
</g>
<path d="M520.42 387.95C551.65 281.95 644.76 319.21 644.76 319.21C598.97 333.91 557.36 356.51 520.42 387.95Z" fill="#66BE64"/>
<path d="M644.76 319.16C626.66 421.62 520.42 387.95 520.42 387.95C557.36 356.46 598.93 333.86 644.76 319.16Z" fill="#4CA84E"/>
<g style="mix-blend-mode:multiply">
<path d="M634.18 351.61C560.03 387.55 534.74 354.49 534.74 354.49C528.54 364.978 523.727 376.225 520.42 387.95C520.42 387.95 601.69 413.69 634.18 351.61Z" fill="#4CA84E"/>
</g>
<path d="M263.63 500.18C203.22 407.64 291.99 360.95 291.99 360.95C273.47 405.33 263.66 451.66 263.63 500.16V500.18Z" fill="#66BE64"/>
<path d="M291.99 360.95C358.21 441.2 263.63 500.16 263.63 500.16C263.66 451.68 273.47 405.35 291.99 360.95Z" fill="#4CA84E"/>
<g style="mix-blend-mode:multiply">
<path d="M309.82 390.07C289.06 469.82 247.5 467.61 247.49 467.61C251.44 479.119 256.865 490.067 263.63 500.18C263.63 500.18 335.99 455.07 309.82 390.07Z" fill="#4CA84E"/>
</g>
<path d="M499.75 352.01C426.75 269.01 507.95 210.18 507.96 210.18C495.96 256.75 492.87 304 499.75 352.01Z" fill="#66BE64"/>
<path d="M507.93 210.18C584.93 280.18 499.72 352.01 499.72 352.01C492.87 304 495.93 256.75 507.93 210.18Z" fill="#4CA84E"/>
<g style="mix-blend-mode:multiply">
<path d="M529.75 236.43C520.59 318.33 479.14 322.07 479.14 322.07C484.684 332.9 491.612 342.964 499.75 352.01C499.75 352.01 564.93 297.04 529.75 236.43Z" fill="#4CA84E"/>
</g>
<path d="M270.16 219.949C213.93 156.029 276.47 110.689 276.48 110.689C267.106 146.323 264.957 183.472 270.16 219.949Z" fill="#66BE64"/>
<path d="M276.48 110.68C335.79 164.58 270.16 219.94 270.16 219.94C264.958 183.463 267.106 146.314 276.48 110.68Z" fill="#4CA84E"/>
<g style="mix-blend-mode:multiply">
<path d="M293.27 130.95C286.21 194.04 254.27 196.95 254.27 196.95C258.556 205.268 263.896 212.999 270.16 219.95C270.16 219.95 320.37 177.59 293.27 130.95Z" fill="#4CA84E"/>
</g>
<path d="M373.33 156.84C267.69 189.29 247.39 91.0703 247.39 91.0703C284.93 121.15 326.72 143.38 373.33 156.84Z" fill="#66BE64"/>
<path d="M247.39 91.07C342.83 49.63 373.33 156.84 373.33 156.84C326.72 143.38 284.93 121.15 247.39 91.07Z" fill="#4CA84E"/>
<g style="mix-blend-mode:multiply">
<path d="M280.29 81.9501C351.18 123.95 337.56 163.29 337.56 163.29C349.714 162.68 361.737 160.499 373.33 156.8C373.33 156.8 349.99 74.8301 280.29 81.9501Z" fill="#4CA84E"/>
</g>
<path d="M270 219.95C164.36 252.4 144.07 154.18 144.07 154.17C181.59 184.25 223.4 206.49 270 219.95Z" fill="#66BE64"/>
<path d="M144.07 154.16C239.5 112.73 270 219.95 270 219.95C223.4 206.48 181.59 184.24 144.07 154.16Z" fill="#4CA84E"/>
<g style="mix-blend-mode:multiply">
<path d="M176.93 145.09C247.83 187.09 234.2 226.43 234.2 226.43C246.363 225.826 258.397 223.648 270 219.95C270 219.95 246.67 137.95 176.93 145.09Z" fill="#4CA84E"/>
</g>
<path d="M373.29 156.84C300.29 73.84 381.49 15 381.49 15C369.49 61.57 366.4 108.82 373.29 156.84Z" fill="#66BE64"/>
<path d="M381.49 15C458.49 85 373.29 156.84 373.29 156.84C366.4 108.82 369.49 61.57 381.49 15Z" fill="#4CA84E"/>
<g style="mix-blend-mode:multiply">
<path d="M403.29 41.2598C394.13 123.15 352.67 126.95 352.67 126.95C358.224 137.777 365.155 147.84 373.29 156.89C373.29 156.89 438.47 101.86 403.29 41.2598Z" fill="#4CA84E"/>
</g>
<path d="M468.31 485.71C452.7 376.31 355.19 399.76 355.18 399.76C398.38 420.91 436.29 449.27 468.31 485.71Z" fill="#66BE64"/>
<path d="M355.18 399.76C358.32 503.76 468.31 485.71 468.31 485.71C436.29 449.27 398.38 420.95 355.18 399.76Z" fill="#4CA84E"/>
<g style="mix-blend-mode:multiply">
<path d="M360.93 433.39C429.12 479.65 458.93 450.58 458.93 450.58C463.552 461.836 466.694 473.645 468.28 485.71C468.28 485.71 384.17 499.51 360.93 433.39Z" fill="#4CA84E"/>
</g>
<path d="M297.32 560.39C189.49 536.16 176.81 635.64 176.81 635.65C211.93 602.77 251.93 577.39 297.32 560.39Z" fill="#66BE64"/>
<path d="M176.81 635.65C275.15 669.65 297.32 560.39 297.32 560.39C251.93 577.39 211.93 602.77 176.81 635.65Z" fill="#4CA84E"/>
<g style="mix-blend-mode:multiply">
<path d="M210.3 642.17C277.76 594.84 261.15 556.67 261.15 556.67C273.317 556.339 285.475 557.59 297.32 560.39C297.32 560.39 280.36 643.95 210.3 642.17Z" fill="#4CA84E"/>
</g>
<path d="M484.11 385.26C471.26 295.26 391.04 314.55 391.04 314.55C426.467 331.68 458.111 355.721 484.11 385.26Z" fill="#66BE64"/>
<path d="M391.04 314.55C393.62 400.1 484.11 385.26 484.11 385.26C458.111 355.721 426.467 331.679 391.04 314.55Z" fill="#4CA84E"/>
<g style="mix-blend-mode:multiply">
<path d="M395.8 342.21C451.9 380.28 476.41 356.36 476.41 356.36C480.215 365.62 482.803 375.334 484.11 385.26C484.11 385.26 414.93 396.61 395.8 342.21Z" fill="#4CA84E"/>
</g>
<path d="M181.29 469.16C103.8 421.61 67.46 495.69 67.46 495.69C103.255 479.347 141.957 470.327 181.29 469.16Z" fill="#66BE64"/>
<path d="M67.46 495.69C134.98 548.3 181.29 469.16 181.29 469.16C141.957 470.327 103.255 479.347 67.46 495.69Z" fill="#4CA84E"/>
<g style="mix-blend-mode:multiply">
<path d="M91.8 509.68C156.91 490.77 154.13 456.68 154.13 456.68C163.688 459.657 172.818 463.866 181.29 469.2C181.29 469.2 145.86 529.7 91.8 509.68Z" fill="#4CA84E"/>
</g>
<path d="M288.71 294.88C215 241.66 173.21 312.8 173.21 312.81C210.129 299.189 249.399 293.093 288.71 294.88Z" fill="#66BE64"/>
<path d="M173.21 312.81C236.59 370.33 288.71 294.88 288.71 294.88C249.399 293.094 210.129 299.19 173.21 312.81Z" fill="#4CA84E"/>
<g style="mix-blend-mode:multiply">
<path d="M196.43 328.58C262.77 314.58 262.56 280.36 262.56 280.36C271.867 284.05 280.657 288.931 288.71 294.88C288.71 294.88 248.84 352.6 196.43 328.58Z" fill="#4CA84E"/>
</g>
<path d="M408.19 191.64C456.69 83.6995 550.08 136.74 550.08 136.74C499.37 145.74 451.94 163.64 408.19 191.64Z" fill="#66BE64"/>
<path d="M550.08 136.74C516.02 242.82 408.19 191.64 408.19 191.64C451.93 163.64 499.37 145.69 550.08 136.74Z" fill="#4CA84E"/>
<g style="mix-blend-mode:multiply">
<path d="M534.15 169.63C450.27 197.02 428.23 158.27 428.23 158.27C420.151 168.483 413.429 179.7 408.23 191.64C408.23 191.64 490.68 230.79 534.15 169.63Z" fill="#4CA84E"/>
</g>
<path d="M156.72 382.62C64.7199 333.51 116.95 254.62 116.96 254.62C121.79 299.75 134.72 342.52 156.72 382.62Z" fill="#66BE64"/>
<path d="M116.93 254.58C208.15 290.89 156.69 382.58 156.69 382.58C134.72 342.48 121.79 299.71 116.93 254.58Z" fill="#4CA84E"/>
<g style="mix-blend-mode:multiply">
<path d="M144.93 270.56C163.93 345.95 128.6 363 128.6 363C137.093 370.728 146.552 377.323 156.74 382.62C156.74 382.62 196.08 312.44 144.93 270.56Z" fill="#4CA84E"/>
</g>
<path d="M157.4 382.269C67.59 315.579 15.01 402.419 15 402.429C61 386.429 108.39 379.349 157.4 382.269Z" fill="#66BE64"/>
<path d="M15 402.43C92.05 474.24 157.4 382.27 157.4 382.27C108.39 379.35 60.98 386.42 15 402.43Z" fill="#4CA84E"/>
<g style="mix-blend-mode:multiply">
<path d="M43.3201 422.22C125.17 406.11 125.47 363.95 125.47 363.95C136.859 368.642 147.592 374.79 157.4 382.24C157.4 382.24 107.4 452.63 43.3201 422.22Z" fill="#4CA84E"/>
</g>
</g>
<defs>
<clipPath id="clip0_4838_413">
<rect width="659.76" height="909.41" fill="white"/>
</clipPath>
</defs>
</svg>
