<svg width="347" height="367" viewBox="0 0 347 367" fill="none" xmlns="http://www.w3.org/2000/svg">
<path d="M182.124 355.324C250.001 355.324 305.027 341.885 305.027 325.308C305.027 308.731 250.001 295.292 182.124 295.292C114.246 295.292 59.2207 308.731 59.2207 325.308C59.2207 341.885 114.246 355.324 182.124 355.324Z" fill="#A7A9AC"/>
<path d="M324.91 101.397C324.054 100.013 322.93 98.8148 321.604 97.8729C320.277 96.9309 318.775 96.2646 317.187 95.9132C309.855 94.4835 302.396 93.8013 294.926 93.877C280.859 93.877 259.929 96.2296 240.095 107.417C236.264 109.599 232.586 112.038 229.086 114.718C229.232 114.328 229.354 113.979 229.354 113.979L229.694 112.982L229.946 112.235C230.06 111.903 230.165 111.57 230.27 111.246L230.506 110.475C230.619 110.134 230.717 109.794 230.814 109.493C230.911 109.193 230.968 108.974 231.033 108.739C231.098 108.504 231.236 108.057 231.325 107.725L231.528 106.995C231.625 106.654 231.714 106.313 231.804 105.973L231.99 105.251C232.079 104.91 232.169 104.569 232.258 104.212L232.42 103.523C232.509 103.174 232.591 102.825 232.664 102.484L232.826 101.787C232.899 101.438 232.98 101.089 233.053 100.74L233.191 100.067C233.264 99.7098 233.337 99.361 233.41 98.9878L233.532 98.355C233.597 97.9981 233.661 97.6411 233.734 97.268L233.84 96.6514C233.905 96.2782 233.962 95.9132 234.018 95.5725L234.124 94.9397C234.181 94.5746 234.375 93.2442 234.375 93.2442C234.424 92.8791 234.473 92.5141 234.529 92.1247L234.602 91.5568C234.602 91.1837 234.692 90.8105 234.732 90.4292C234.732 90.4292 234.878 89.1231 234.919 88.7337L234.968 88.2064C235.008 87.817 235.041 87.4358 235.073 87.0545C235.073 87.0545 235.178 85.7646 235.203 85.3752C235.203 85.3752 235.292 84.1015 235.308 83.704C235.308 83.704 235.373 82.4547 235.389 82.0816C235.389 82.0816 235.438 80.8241 235.446 80.4591C235.446 80.4591 235.446 79.2179 235.446 78.8366V78.4715C235.446 78.0497 235.446 77.6603 235.446 77.206C235.446 77.206 235.446 76.0135 235.446 75.5835V73.6771C235.446 73.2309 235.446 72.7928 235.397 72.3872V72.1276C235.397 71.6814 235.325 70.5781 235.325 70.5781C235.325 70.1238 235.276 69.6777 235.243 69.1991V69.053C235.243 68.5906 235.178 68.1282 235.146 67.7145C235.146 67.7145 235.146 67.5522 235.146 67.5198C235.146 67.0493 235.073 66.5868 235.032 66.1244C235.032 66.1244 235.032 66.0352 235.032 66.0109C234.984 65.5404 234.943 65.0698 234.886 64.5263C234.83 63.9828 234.789 63.5853 234.732 63.1148C234.736 63.096 234.736 63.0767 234.732 63.058C231.049 30.5597 215.911 6.66862 215.262 5.6708C214.336 4.22513 213.114 2.99198 211.676 2.0524C210.239 1.11282 208.619 0.488074 206.923 0.21926C206.292 0.122272 205.655 0.0734622 205.017 0.0732423C202.207 0.0728273 199.484 1.04451 197.31 2.82336C164.463 29.7322 145.755 57.9877 141.691 86.7786C138.909 106.5 143.168 126.351 154.022 144.377V145.934C142.51 126.091 127.113 110.67 108 99.8802C82.6977 85.6023 55.943 82.6007 37.9497 82.6007C21.4328 82.6007 10.0511 85.0344 9.55626 85.1805C7.96661 85.5316 6.4636 86.1983 5.13621 87.1408C3.80882 88.0834 2.68403 89.2827 1.82848 90.6677C0.972942 92.0528 0.404036 93.5954 0.155425 95.2043C-0.0931872 96.8132 -0.0164382 98.4556 0.381135 100.034C8.35563 131.754 21.1083 159.157 38.2904 181.467L38.3391 181.523C39.1071 182.529 39.8831 183.514 40.6673 184.476L40.9513 184.825C42.4845 186.723 44.0664 188.605 45.6808 190.439L45.9404 190.731C47.5223 192.516 49.1448 194.284 50.7267 195.939L51.035 196.256C52.6575 197.935 54.28 199.59 55.9511 201.123L56.2188 201.383C57.8413 202.948 59.5692 204.514 61.281 206.015L61.4838 206.193C62.3356 206.94 63.1955 207.678 64.0392 208.384L64.1122 208.448C64.964 209.162 65.8077 209.86 66.7163 210.59L66.7893 210.655C67.6573 211.353 68.5253 212.034 69.3528 212.683L69.5151 212.805C70.375 213.47 71.243 214.127 72.0948 214.76L72.184 214.833C73.044 215.466 73.8957 216.082 74.8043 216.731L74.926 216.82C76.6458 218.037 78.3981 219.254 80.1261 220.366L80.2397 220.447L80.3289 220.504C82.0325 221.615 83.7767 222.71 85.464 223.748L85.7155 223.903C87.4029 224.917 89.139 225.914 90.8344 226.855L91.0616 226.985C92.7571 227.918 94.4769 228.835 96.2373 229.727L96.3509 229.792C98.0329 230.641 99.7419 231.474 101.478 232.291L101.575 232.331C103.246 233.143 104.942 233.873 106.629 234.595H106.71L109.193 235.633H109.298C110.921 236.298 112.543 236.939 114.166 237.54L114.312 237.588C115.886 238.172 117.476 238.74 119.049 239.276L119.187 239.324C120.68 239.835 122.221 240.33 123.811 240.825H123.933C125.426 241.287 126.902 241.717 128.322 242.115L128.492 242.164C129.904 242.553 131.332 242.934 132.727 243.283H132.865C134.26 243.635 135.612 243.959 136.921 244.257H137.018C138.341 244.549 139.631 244.824 140.888 245.068H140.993L142.908 245.441L144.66 245.757H144.733L146.469 246.049H146.583C147.711 246.236 148.806 246.406 149.828 246.552H149.95C150.988 246.698 151.986 246.836 152.935 246.95H153.048L153.917 247.047V312.888C153.917 316.115 155.199 319.21 157.481 321.492C159.763 323.774 162.858 325.056 166.085 325.056H197.083C200.31 325.056 203.405 323.774 205.687 321.492C207.969 319.21 209.251 316.115 209.251 312.888V224.909L210.006 224.803L210.476 224.73L212.212 224.462L213.835 224.187L215.417 223.903L217.209 223.546L217.923 223.4C218.305 223.327 219.773 223.002 219.773 223.002L221.542 222.596L222.191 222.442L223.513 222.11L224.324 221.899L225.541 221.574L226.352 221.355L227.975 220.893L228.786 220.658L230.408 220.171L231.293 219.895L232.599 219.473L233.507 219.165L235.057 218.654L235.787 218.402L237.88 217.64L238.569 217.372L240.192 216.747L241.141 216.366C241.636 216.171 242.131 215.961 242.609 215.758L243.486 215.401C244.216 215.084 244.946 214.768 245.716 214.419L246.528 214.054L248.069 213.34L249.075 212.862L250.527 212.148L251.493 211.669L253.715 210.541L254.478 210.136L256.198 209.187L257.212 208.619L258.696 207.759L259.727 207.15L261.487 206.08L262.298 205.585C263.045 205.122 263.783 204.644 264.513 204.165L265.486 203.508L267.02 202.47L268.026 201.764C268.569 201.383 269.113 200.953 269.648 200.579L270.459 199.979C271.238 199.4 272.017 198.808 272.796 198.202C273.007 198.048 273.68 197.513 273.68 197.513L275.254 196.247L276.26 195.436C276.779 195.006 277.298 194.56 277.793 194.138L278.718 193.327C279.488 192.654 280.251 191.972 281.046 191.25L281.744 190.593C282.312 190.066 282.879 189.53 283.423 188.971L284.38 188.046L285.889 186.537L286.79 185.612C287.455 184.931 288.12 184.233 288.793 183.503L289.45 182.789C290.091 182.083 290.732 181.369 291.381 180.631L292.111 179.82L292.233 179.674C292.728 179.098 293.215 178.514 293.709 177.93L293.783 177.84L294.594 176.867C295.145 176.194 295.689 175.504 296.216 174.798L296.8 174.068L297.019 173.784C310.34 156.464 320.237 135.266 326.362 110.759C326.758 109.181 326.834 107.539 326.584 105.931C326.335 104.323 325.765 102.781 324.91 101.397Z" fill="#231F20"/>
<path d="M197.156 131.738H166.15V313.123H197.156V131.738Z" fill="#66BE64"/>
<path d="M166.15 235.917C154.598 65.5566 12.1685 97.0327 12.1685 97.0327C12.1685 97.0327 135.209 168.097 166.15 235.917Z" fill="#66BE64"/>
<path d="M12.1685 97.0327C47.5142 237.661 166.15 235.917 166.15 235.917C135.209 168.097 12.1685 97.0327 12.1685 97.0327Z" fill="#4CA84E"/>
<g style="mix-blend-mode:multiply">
<path d="M166.15 235.917C164.812 216.269 161.737 199.306 157.34 184.663C110.385 207.881 47.9604 174.036 47.9604 174.036C96.424 236.939 166.15 235.917 166.15 235.917Z" fill="#4CA84E"/>
</g>
<path d="M181.864 159.158C181.864 159.158 175.698 67.3414 204.976 12.1689C103.474 95.3454 181.864 159.158 181.864 159.158Z" fill="#66BE64"/>
<path d="M181.864 159.158C258.932 96.181 204.976 12.1689 204.976 12.1689C175.698 67.3414 181.864 159.158 181.864 159.158Z" fill="#4CA84E"/>
<g style="mix-blend-mode:multiply">
<path d="M222.434 63.0176C189.084 137.773 153.86 109.721 153.86 109.721C158.727 140.296 181.864 159.158 181.864 159.158C219.952 128.022 226.028 91.7436 222.434 63.0176Z" fill="#4CA84E"/>
</g>
<path d="M103.269 133.257C106.172 128.229 102.625 120.745 95.346 116.543C88.0669 112.34 79.8125 113.01 76.9092 118.038C74.0059 123.067 77.5532 130.55 84.8323 134.753C92.1114 138.956 100.366 138.286 103.269 133.257Z" fill="#F6FAFE"/>
<path d="M112.568 140.288C116.197 140.288 119.139 137.346 119.139 133.717C119.139 130.088 116.197 127.146 112.568 127.146C108.939 127.146 105.997 130.088 105.997 133.717C105.997 137.346 108.939 140.288 112.568 140.288Z" fill="#F6FAFE"/>
<path d="M197.147 213.689C205.958 83.777 314.558 107.79 314.558 107.79C314.558 107.79 220.738 161.981 197.147 213.689Z" fill="#66BE64"/>
<path d="M314.558 107.79C287.609 215.019 197.147 213.689 197.147 213.689C220.738 161.98 314.558 107.79 314.558 107.79Z" fill="#4CA84E"/>
<g style="mix-blend-mode:multiply">
<path d="M197.147 213.689C197.924 200.454 200.177 187.346 203.865 174.611C239.673 192.313 287.268 166.499 287.268 166.499C250.308 214.468 197.147 213.689 197.147 213.689Z" fill="#4CA84E"/>
</g>
</svg>
