<svg width="399" height="418" viewBox="0 0 399 418" fill="none" xmlns="http://www.w3.org/2000/svg">
<g clip-path="url(#clip0_4906_526)">
<path d="M197.76 417.83C285.159 417.83 356.01 399.792 356.01 377.54C356.01 355.288 285.159 337.25 197.76 337.25C110.361 337.25 39.51 355.288 39.51 377.54C39.51 399.792 110.361 417.83 197.76 417.83Z" fill="#A7A9AC"/>
<path d="M201.43 392.54C200.17 392.54 198.88 392.54 197.59 392.54C195.7 392.54 193.85 392.48 192.02 392.43H191.39C189.64 392.43 187.94 392.32 186.26 392.24H185.43C183.77 392.16 182.14 392.07 180.54 391.96L179.72 391.9C178.11 391.79 176.51 391.67 174.94 391.53L174.41 391.48C171.09 391.19 167.83 390.83 164.73 390.42L164.32 390.37C162.81 390.16 161.32 389.95 159.89 389.72L159.29 389.63C157.88 389.4 156.47 389.16 155.09 388.91L154.54 388.81C153.14 388.55 151.76 388.28 150.4 387.99L150.12 387.93C147.22 387.31 144.42 386.63 141.77 385.93L141.58 385.88C140.31 385.53 139.04 385.16 137.79 384.77L137.44 384.67C136.22 384.29 135 383.89 133.82 383.49L133.5 383.38C132.3 382.96 131.11 382.53 129.95 382.09L129.76 382.01C127.41 381.11 125.08 380.11 122.89 379.08L122.79 379.03C98.42 367.52 84.72 348.73 82.07 323.18C79.99 303.18 85.15 282.82 89.29 266.45C90.74 260.71 92.11 255.28 92.88 250.93C93.88 245.5 94.88 240.77 95.88 236.58L94.34 236.51C93.34 236.51 92.41 236.42 91.45 236.36H90.9L88.01 236.17H87.54C86.54 236.1 85.54 236.02 84.6 235.93H84.14L81.19 235.65H80.81C79.81 235.55 78.81 235.43 77.81 235.31H77.49L74.49 234.92H74.39C71.17 234.47 68.22 233.98 65.39 233.43C63.13 232.99 60.89 232.5 58.75 231.98C57.65 231.72 56.57 231.44 55.49 231.15C53.32 230.57 51.18 229.93 49.12 229.26C42.9 227.179 36.9089 224.468 31.24 221.17C26.595 218.543 22.2667 215.393 18.34 211.78C15.9772 209.58 13.7936 207.196 11.81 204.65C10.4814 202.923 9.24949 201.123 8.11997 199.26C7.54997 198.26 7.00995 197.34 6.50995 196.37C2.31084 188.167 0.0947926 179.094 0.0399522 169.88C6.02249e-05 167.434 0.0834994 164.987 0.289952 162.55C1.00408 154.174 3.687 146.085 8.12009 138.943C12.5532 131.801 18.611 125.807 25.8 121.45L27.13 120.63L28.55 119.74L30.05 118.74C31.16 118.02 32.33 117.25 33.56 116.42L35.66 115L37.06 114C56.98 100.21 83.15 78.6597 96.9 59.5397C126.14 18.8697 154.76 -0.0703125 186.97 -0.0703125C204.92 -0.0703125 223.84 5.72973 246.5 18.1597C248.69 19.3597 250.9 20.6197 253.06 21.9197C253.78 22.3497 254.49 22.7797 255.18 23.2097H255.25L257.25 24.4797L257.36 24.5497L259.31 25.8097L259.43 25.8897L261.32 27.1497L261.42 27.2197L263.29 28.4997L265.18 29.8397L265.28 29.9097L267.06 31.2097C280.3 40.9997 289.41 50.8397 298.22 60.3497C304.1 66.6897 309.64 72.6697 316.5 78.8397L318.21 80.3497L319.7 81.6397L321.25 82.9497L322.25 83.7897L323.54 84.8397L324.89 85.8997L325.05 86.0297L326.37 87.0297L327.89 88.1797L329.5 89.3697L331.39 90.7197L333 91.8597L334.82 93.0997L336.7 94.3497L338.61 95.5797L340.61 96.8597L342.87 98.2497L343.54 98.6497L345.7 99.9297L347.95 101.23L350.29 102.55L352.72 103.88C365.96 111.139 377.148 121.631 385.24 134.38C386.24 135.87 387.12 137.38 387.99 138.93C390.55 143.449 392.701 148.188 394.42 153.09C394.98 154.7 395.49 156.32 395.94 157.93C396.17 158.74 396.38 159.55 396.58 160.35C397.372 163.566 397.94 166.834 398.28 170.13C398.619 173.378 398.696 176.649 398.51 179.91C398.363 182.352 398.049 184.781 397.57 187.18C397.41 187.98 397.23 188.78 397.03 189.57C396.623 191.169 396.129 192.744 395.55 194.29C394.668 196.646 393.577 198.918 392.29 201.08C390.968 203.296 389.43 205.376 387.7 207.29C385.924 209.248 383.95 211.017 381.81 212.57C378.881 214.693 375.678 216.412 372.29 217.68C369.695 218.655 367.018 219.395 364.29 219.89C361.45 220.4 358.575 220.688 355.69 220.75H354.24C353.72 220.75 353.24 220.75 352.67 220.75C350.67 220.75 348.67 220.56 346.55 220.33C345.55 220.22 344.47 220.08 343.4 219.92C328.33 217.62 315.78 216.05 304.88 215.11C305.79 218.43 306.82 221.95 307.95 225.56C308.67 227.85 309.44 230.23 310.24 232.64C316.24 250.64 322.59 271.86 324.12 293.28C324.19 294.39 324.26 295.49 324.31 296.6C324.31 297.14 324.36 297.7 324.38 298.25C324.38 299.37 324.44 300.48 324.45 301.59C324.46 302.7 324.45 303.81 324.45 304.92C324.45 306.03 324.39 307.16 324.33 308.27C324.22 310.53 324.04 312.79 323.8 314.96C323.56 317.13 323.21 319.48 322.8 321.66C322.49 323.34 322.13 325.03 321.73 326.66C321.45 327.77 321.16 328.88 320.84 329.97C320.68 330.53 320.52 331.08 320.35 331.63C316.632 343.783 309.836 354.768 300.62 363.52C299.69 364.4 298.73 365.27 297.76 366.1C276.96 383.88 245.46 392.54 201.43 392.54Z" fill="#231F20"/>
<path d="M286.88 173.549C286.88 173.549 277.78 182.909 295.97 237.359C314.16 291.809 336.06 379.099 197.76 377.519C59.46 375.939 100.83 291.979 107.65 253.449C114.47 214.919 123.14 215.379 120.86 176.279L286.88 173.549Z" fill="#E9BFA2"/>
<path d="M215.8 221.7C239.483 215.213 263.905 211.811 288.46 211.58C280.83 179.78 286.88 173.58 286.88 173.58L120.88 176.31C122.68 207.19 117.66 213.4 112.11 233.6C135.24 233.38 180.12 231.65 215.8 221.7Z" fill="#D8A988"/>
<g style="mix-blend-mode:multiply">
<path d="M295.97 237.38C277.78 182.93 286.88 173.57 286.88 173.57L258.88 174.03C261.71 197.8 266.61 233.73 274.43 275.57C288.57 351.26 197.74 377.57 197.74 377.57C336.06 379.1 314.17 291.8 295.97 237.38Z" fill="#D8A988"/>
</g>
<g style="mix-blend-mode:multiply">
<path d="M295.97 237.38C277.78 182.93 286.88 173.57 286.88 173.57L238.75 174.36L226.35 179.72C226.35 179.72 253.35 297.98 214.62 328.48C175.89 358.98 145.82 363.57 129.24 365.38C144.61 372.64 166.65 377.18 197.81 377.53C336.06 379.1 314.17 291.8 295.97 237.38Z" fill="#D8A988"/>
</g>
<path d="M15.2401 163.78C15.7481 157.764 17.6751 151.953 20.863 146.825C24.051 141.697 28.4092 137.398 33.5801 134.28C50.4001 124.07 89.4401 95.6804 109.07 68.3704C153.18 7.03037 189.93 4.31037 239.29 31.3704C288.65 58.4304 287.18 85.6204 345.65 117.19C391.07 141.73 401.18 213.49 345.65 205.04C270.72 193.63 253.73 199.1 177.14 214.33C107.74 228.14 9.93009 228.18 15.2401 163.78Z" fill="#F1594B"/>
<path d="M345.62 205.049C401.15 213.499 391.04 141.739 345.62 117.199C289.62 86.9794 288.62 60.7894 245.32 34.8594C245.32 34.8594 194.46 163.639 45.59 126.389C40.95 129.609 36.83 132.289 33.59 134.279C28.4172 137.396 24.0571 141.695 20.8673 146.823C17.6776 151.951 15.749 157.762 15.24 163.779C9.96 228.179 107.77 228.139 177.14 214.339C253.7 199.109 270.69 193.639 345.62 205.049Z" fill="#D91F26"/>
<path opacity="0.32" d="M345.62 117.2C334.557 111.323 324.053 104.448 314.24 96.6602C314.24 96.6602 267.06 216.82 15.24 173.59C20.37 228.13 111.46 227.38 177.11 214.38C253.7 199.15 270.69 193.68 345.62 205.09C401.15 213.5 391.04 141.74 345.62 117.2Z" fill="#951B1E"/>
<path d="M267.626 92.6109C274.508 84.8577 269.819 69.4607 257.155 58.2206C244.49 46.9806 228.646 44.1538 221.764 51.907C214.883 59.6601 219.572 75.0572 232.236 86.2973C244.9 97.5374 260.745 100.364 267.626 92.6109Z" fill="#F6FAFE"/>
<path d="M201.79 68.3601C207.666 68.3601 212.43 63.5964 212.43 57.7201C212.43 51.8438 207.666 47.0801 201.79 47.0801C195.914 47.0801 191.15 51.8438 191.15 57.7201C191.15 63.5964 195.914 68.3601 201.79 68.3601Z" fill="#F6FAFE"/>
</g>
<defs>
<clipPath id="clip0_4906_526">
<rect width="398.57" height="417.83" fill="white"/>
</clipPath>
</defs>
</svg>
