<svg width="435" height="556" viewBox="0 0 435 556" fill="none" xmlns="http://www.w3.org/2000/svg">
<g clip-path="url(#clip0_5633_661)">
<path d="M195.48 555.971C192.38 555.971 189.32 555.891 186.39 555.801C184.04 555.721 181.66 555.621 179.33 555.491C177 555.361 174.43 555.181 172.06 554.981C169.69 554.781 167.06 554.531 164.65 554.251C147.45 552.251 132.37 548.671 118.54 543.191C116.82 542.511 115.1 541.791 113.42 541.051C111.74 540.311 109.99 539.491 108.34 538.681C106.69 537.871 104.95 536.971 103.34 536.081C101.73 535.191 99.9903 534.211 98.3403 533.241C88.0575 527.07 78.7294 519.433 70.6503 510.571L69.9103 509.761L69.2403 509.001L68.6403 508.311L67.9703 507.511L67.3303 506.721C66.8836 506.167 66.4436 505.597 66.0103 505.011C65.9739 504.97 65.9405 504.926 65.9103 504.881C65.6903 504.581 65.4603 504.271 65.2403 503.951L65.1403 503.811L64.5203 502.921L64.4403 502.801L63.8103 501.851V501.791C62.8103 500.301 61.9103 498.701 61.0203 497.021C60.807 496.621 60.597 496.211 60.3903 495.791C60.387 495.761 60.387 495.731 60.3903 495.701C60.1903 495.311 59.9903 494.901 59.7803 494.481C59.7678 494.442 59.751 494.405 59.7303 494.371C53.2003 480.851 44.8603 455.491 28.2503 362.321C18.6903 308.781 13.4003 272.431 12.0903 251.221C10.9403 232.581 12.7703 225.431 15.4903 219.271C17.3903 203.361 30.0303 188.471 52.4903 175.511C51.8503 174.771 51.2303 174.051 50.6203 173.321C50.3903 173.051 50.1703 172.771 49.9403 172.491L49.6503 172.141C48.7103 171.001 47.7703 169.851 46.8503 168.691C46.6403 168.431 46.4303 168.161 46.2303 167.891L45.9803 167.571C45.0503 166.381 44.1203 165.191 43.2103 163.981L42.7503 163.341L42.6003 163.141C41.6003 161.831 40.6703 160.521 39.7303 159.191L39.2403 158.481C38.2736 157.101 37.3236 155.717 36.3903 154.331L36.0703 153.841C35.0703 152.331 34.0703 150.841 33.2003 149.401C33.1203 149.271 33.0303 149.141 32.9503 149.001C31.9503 147.391 31.0303 145.891 30.1703 144.431L30.0003 144.151C29.0603 142.551 28.1203 140.921 27.2503 139.341L27.1803 139.221C5.9796 101.007 -3.12166 57.2587 1.08029 13.7608C1.42306 10.1148 3.0878 6.72012 5.76062 4.21677C8.43344 1.71342 11.9297 0.274332 15.5903 0.170781C17.6403 0.110781 19.7203 0.0807542 21.7703 0.0807542C62.6328 0.103912 102.658 11.6642 137.241 33.4313C171.823 55.1983 199.557 86.2874 217.25 123.121C234.893 86.2234 262.623 55.0757 297.232 33.2819C331.84 11.4881 371.912 -0.0610961 412.81 -0.0292311C414.86 -0.0292311 416.94 -0.0292348 418.99 0.0607652C422.651 0.164316 426.147 1.60343 428.82 4.10679C431.493 6.61014 433.158 10.0048 433.5 13.6508C437.707 57.149 428.606 100.899 407.4 139.111L407.33 139.231C406.47 140.791 405.54 142.411 404.58 144.031L404.42 144.321C403.55 145.791 402.64 147.321 401.63 148.891L401.38 149.291C400.46 150.757 399.514 152.221 398.54 153.681L398.19 154.221C397.264 155.614 396.314 156.997 395.34 158.371L394.86 159.071C393.92 160.411 392.95 161.721 391.98 163.071L391.84 163.251L391.38 163.891C390.47 165.101 389.53 166.301 388.6 167.491L388.37 167.801C388.16 168.071 387.95 168.351 387.73 168.621C386.83 169.761 385.89 170.891 384.96 172.021L384.75 172.271C405.87 184.091 417.65 197.721 419.88 212.961C431.44 237.341 425.71 264.691 415.63 312.891C414.08 320.271 412.48 327.891 410.79 336.261C409.98 340.261 409.14 344.431 408.3 348.731L407.3 354.021L406.45 358.481L405.62 362.871L404.81 367.271C404.54 368.721 404.27 370.201 404 371.691C399.45 396.821 396 415.901 392.18 432.521C391.47 435.681 390.74 438.731 390.04 441.591C389.34 444.451 388.54 447.451 387.8 450.151C387.42 451.541 387.03 452.911 386.64 454.251C385.85 456.971 385.03 459.621 384.2 462.121C382.46 467.401 380.66 472.121 378.71 476.651C374.074 487.749 367.585 497.978 359.52 506.901C348.407 518.948 335.165 528.84 320.46 536.081C311.519 540.472 302.184 544.015 292.58 546.661C289.58 547.491 286.48 548.271 283.34 548.981C281.81 549.321 280.34 549.651 278.76 549.981C270.012 551.714 261.175 552.969 252.29 553.741C249.64 553.991 246.85 554.211 244 554.401C240.4 554.641 236.55 554.851 232.24 555.041L228.54 555.191L221.78 555.431L216.47 555.611L213.78 555.701L211.01 555.781L205.61 555.901H202.52C201.014 555.901 199.484 555.901 197.93 555.901L195.48 555.971Z" fill="black"/>
<path d="M30.1403 223.03C85.6703 169.35 179.88 159.59 216.14 159.79C263.68 160.05 308.54 163.79 405.31 217.24C419.93 244.67 405.31 280.3 389.31 369.02C376.8 438.21 370.08 473.33 348.55 496.75C311.21 537.33 257.26 539.17 221.04 540.42C183.88 541.73 121.34 543.84 81.8303 500.42C71.8303 489.57 63.7803 476.21 42.9903 359.6C20.8803 236.23 26.3503 231.31 30.1403 223.03Z" fill="#00AF88"/>
<path d="M372.81 200.199L332.09 278.099C332.09 278.099 341.85 442.699 270.96 503.439C237.81 531.889 213.05 539.299 199.51 540.969C207.26 540.969 214.51 540.689 220.96 540.459C257.18 539.209 311.12 537.369 348.47 496.789C370 473.369 376.72 438.249 389.23 369.059C405.28 280.339 419.89 244.709 405.23 217.279C393.75 210.879 382.97 205.229 372.81 200.199Z" fill="#009284"/>
<path d="M30.1396 223.031C30.8896 184.361 141.48 149.171 233.52 151.871C306.52 153.971 403.46 181 405.27 217.241C407.08 253.48 313.6 295.771 230.81 300.051C135.75 304.851 29.3996 261.181 30.1396 223.031Z" fill="#48BC9D"/>
<path d="M69.8096 220.09C70.3696 192.6 154.75 167.54 224.95 169.45C280.7 170.96 354.57 190.17 355.95 215.95C357.33 241.73 286.04 271.79 222.81 274.88C150.38 278.36 69.2396 247.25 69.8096 220.09Z" fill="black"/>
<path opacity="0.62" d="M396.11 333.279C396.11 333.379 333.79 517.729 73.1104 487.759C75.2824 492.417 78.1895 496.695 81.7204 500.429C121.23 543.839 183.77 541.729 220.93 540.429C257.15 539.179 311.09 537.339 348.44 496.759C369.97 473.339 376.69 438.219 389.2 369.029C391.58 355.969 393.91 344.149 396.11 333.279Z" fill="#03785A"/>
<path d="M384.762 314.321C387.813 298.081 386.185 284.145 381.126 283.195C376.068 282.244 369.493 294.639 366.442 310.88C363.391 327.12 365.019 341.056 370.078 342.006C375.137 342.956 381.711 330.561 384.762 314.321Z" fill="white"/>
<path d="M355.829 358.19C359.773 358.19 362.969 354.993 362.969 351.05C362.969 347.107 359.773 343.91 355.829 343.91C351.886 343.91 348.689 347.107 348.689 351.05C348.689 354.993 351.886 358.19 355.829 358.19Z" fill="white"/>
<path d="M69.4698 172.02C88.9891 192.91 112.736 209.402 139.128 220.396C165.52 231.39 193.952 236.635 222.53 235.78L15.9098 15.0898C13.18 43.5509 16.5447 72.2671 25.7799 99.3262C35.0151 126.385 49.909 151.167 69.4698 172.02Z" fill="#009284"/>
<path d="M15.9102 15.0903L222.53 235.78C225.235 207.321 221.859 178.613 212.627 151.557C203.394 124.502 188.516 99.7186 168.978 78.8501C149.44 57.9816 125.689 41.505 99.2992 30.5126C72.9099 19.5202 44.4854 14.2633 15.9102 15.0903Z" fill="#48BC9D"/>
<path opacity="0.62" d="M222.53 235.78C224.621 213.676 223.067 191.379 217.93 169.78C136 197.31 25.3202 97.7797 25.2402 97.6797C38.9192 138.843 65.4957 174.504 101.031 199.379C136.567 224.253 179.171 237.017 222.53 235.78Z" fill="#03785A"/>
<path d="M139.064 87.3725C146.033 77.9298 140.93 62.3388 127.666 52.5489C114.402 42.7591 97.9996 42.4776 91.0302 51.9202C84.0609 61.3628 89.1638 76.9538 102.428 86.7437C115.692 96.5336 132.095 96.8151 139.064 87.3725Z" fill="#F5F9FC"/>
<path d="M135.74 119.21C141.136 119.21 145.51 114.836 145.51 109.44C145.51 104.044 141.136 99.6699 135.74 99.6699C130.344 99.6699 125.97 104.044 125.97 109.44C125.97 114.836 130.344 119.21 135.74 119.21Z" fill="#F5F9FC"/>
<path d="M365.03 172.02C345.51 192.91 321.764 209.402 295.372 220.396C268.979 231.39 240.548 236.635 211.97 235.78L418.59 15.0898C421.324 43.5512 417.962 72.2686 408.726 99.3284C399.491 126.388 384.594 151.169 365.03 172.02Z" fill="#009284"/>
<path d="M418.59 15.0903L211.97 235.78C209.265 207.321 212.641 178.613 221.874 151.557C231.106 124.502 245.985 99.7186 265.523 78.8501C285.061 57.9816 308.812 41.505 335.201 30.5126C361.591 19.5202 390.015 14.2633 418.59 15.0903Z" fill="#48BC9D"/>
<path opacity="0.62" d="M211.97 235.78C209.878 213.676 211.436 191.378 216.58 169.78C298.51 197.31 409.18 97.7797 409.26 97.6797C395.581 138.843 369.005 174.504 333.469 199.379C297.933 224.253 255.329 237.017 211.97 235.78Z" fill="#03785A"/>
<path d="M204.03 451.551C204.03 451.551 204.86 466.271 219.87 466.271C234.88 466.271 234.49 451.551 234.49 451.551" stroke="#221E20" stroke-width="6" stroke-miterlimit="10" stroke-linecap="round"/>
<path d="M130.73 366.12C138.785 361.717 147.613 358.909 156.73 357.85C166.191 356.685 175.79 357.461 184.94 360.13" stroke="black" stroke-width="7" stroke-miterlimit="10" stroke-linecap="round"/>
<path d="M258.87 360.789C276.786 354.805 296.337 356.108 313.3 364.419" stroke="black" stroke-width="7" stroke-miterlimit="10" stroke-linecap="round"/>
<path d="M169.39 434.659C184.363 434.659 196.5 422.522 196.5 407.549C196.5 392.577 184.363 380.439 169.39 380.439C154.418 380.439 142.28 392.577 142.28 407.549C142.28 422.522 154.418 434.659 169.39 434.659Z" fill="#F6F7E1"/>
<path d="M273.39 434.659C288.363 434.659 300.5 422.522 300.5 407.549C300.5 392.577 288.363 380.439 273.39 380.439C258.418 380.439 246.28 392.577 246.28 407.549C246.28 422.522 258.418 434.659 273.39 434.659Z" fill="#F6F7E1"/>
<path d="M142.27 407.559C141.998 403.967 142.489 400.358 143.71 396.969C144.964 393.51 146.914 390.345 149.44 387.669C152 384.967 155.083 382.814 158.5 381.339C161.939 379.862 165.643 379.1 169.385 379.1C173.128 379.1 176.832 379.862 180.27 381.339C183.686 382.817 186.768 384.97 189.33 387.669C191.857 390.345 193.807 393.51 195.06 396.969C196.289 400.374 196.78 404.001 196.5 407.609C195.971 400.61 192.868 394.056 187.79 389.209C182.817 384.509 176.233 381.891 169.39 381.891C162.548 381.891 155.964 384.509 150.99 389.209C145.925 394.045 142.821 400.578 142.27 407.559Z" fill="#221E20"/>
<path d="M196.5 407.561C196.783 411.168 196.296 414.795 195.07 418.201C193.813 421.66 191.86 424.826 189.33 427.501C186.772 430.204 183.689 432.358 180.27 433.831C176.834 435.309 173.132 436.071 169.39 436.071C165.649 436.071 161.947 435.309 158.51 433.831C155.094 432.354 152.012 430.201 149.45 427.501C146.918 424.828 144.964 421.662 143.71 418.201C142.482 414.796 141.991 411.169 142.27 407.561C142.803 414.559 145.905 421.113 150.98 425.961C155.958 430.664 162.546 433.285 169.393 433.287C176.241 433.289 182.831 430.671 187.81 425.971C192.879 421.116 195.974 414.559 196.5 407.561Z" fill="#221E20"/>
<path d="M175.99 417.48C185.815 417.48 193.78 409.516 193.78 399.69C193.78 389.865 185.815 381.9 175.99 381.9C166.165 381.9 158.2 389.865 158.2 399.69C158.2 409.516 166.165 417.48 175.99 417.48Z" fill="#221E20"/>
<path d="M246.28 407.56C245.999 403.968 246.487 400.358 247.71 396.97C248.964 393.508 250.918 390.342 253.45 387.67C256.006 384.963 259.09 382.809 262.51 381.34C265.947 379.862 269.649 379.1 273.39 379.1C277.132 379.1 280.834 379.862 284.27 381.34C287.689 382.813 290.772 384.966 293.33 387.67C295.86 390.345 297.813 393.51 299.07 396.97C300.296 400.375 300.784 404.002 300.5 407.61C299.971 400.611 296.868 394.056 291.79 389.21C286.817 384.51 280.233 381.891 273.39 381.891C266.547 381.891 259.964 384.51 254.99 389.21C249.924 394.044 246.822 400.579 246.28 407.56Z" fill="#221E20"/>
<path d="M300.5 407.561C300.788 411.169 300.3 414.796 299.07 418.201C297.817 421.662 295.863 424.828 293.33 427.501C290.771 430.204 287.689 432.358 284.27 433.831C280.833 435.309 277.131 436.071 273.39 436.071C269.649 436.071 265.947 435.309 262.51 433.831C259.093 432.354 256.011 430.201 253.45 427.501C250.921 424.826 248.967 421.66 247.71 418.201C246.485 414.795 245.998 411.168 246.28 407.561C246.808 414.56 249.911 421.115 254.99 425.961C259.966 430.656 266.549 433.271 273.39 433.271C280.232 433.271 286.814 430.656 291.79 425.961C296.864 421.111 299.966 414.558 300.5 407.561Z" fill="#221E20"/>
<path d="M278.59 416.019C288.415 416.019 296.38 408.055 296.38 398.229C296.38 388.404 288.415 380.439 278.59 380.439C268.765 380.439 260.8 388.404 260.8 398.229C260.8 408.055 268.765 416.019 278.59 416.019Z" fill="#221E20"/>
</g>
<defs>
<clipPath id="clip0_5633_661">
<rect width="434.5" height="555.93" fill="white"/>
</clipPath>
</defs>
</svg>
