<svg width="307" height="248" viewBox="0 0 307 248" fill="none" xmlns="http://www.w3.org/2000/svg">
<path d="M70.6404 43.3047C72.249 43.2504 73.8549 43.4733 75.3881 43.9636C76.4836 44.3083 77.4031 45.0646 77.9536 46.0737C78.4123 46.8985 78.7171 47.8001 78.8531 48.7343C78.9665 49.9068 79.0138 51.0846 78.9947 52.2623V108.144C79.0197 109.32 78.9556 110.496 78.8031 111.663C78.6374 112.593 78.3343 113.492 77.9036 114.332C77.6425 114.835 77.2794 115.278 76.8377 115.633C76.396 115.988 75.8853 116.246 75.3381 116.392C73.7511 116.84 72.1052 117.042 70.4571 116.993C69.0795 117.028 67.7042 116.859 66.3757 116.492C65.4723 116.255 64.6236 115.845 63.8769 115.283C63.2579 114.738 62.8143 114.021 62.6025 113.223C62.3424 112.477 62.1828 111.7 62.1278 110.913C62.1278 110.27 62.0778 109.32 62.0778 108.043V95.8163H36.3817C35.0034 95.8531 33.6275 95.6816 32.3003 95.3075C31.3989 95.0694 30.5509 94.6618 29.8015 94.1065C29.1856 93.5552 28.7428 92.8366 28.5271 92.0381C28.2662 91.2927 28.1065 90.5157 28.0523 89.7277C28.0523 89.0939 28.0023 88.1347 28.0023 86.8586C27.9835 85.7785 28.0784 84.6994 28.2856 83.6392L36.1818 49.9437C36.5649 48.4007 36.8898 47.233 37.1813 46.424C37.5262 45.5218 38.1004 44.7254 38.8472 44.1137C39.7846 43.3478 40.9702 42.9531 42.1789 43.0044C43.6292 43.0338 45.068 43.2696 46.4519 43.705C50.8942 44.9783 53.1154 47.1246 53.1154 50.1439C53.0608 51.5748 52.8372 52.9942 52.4491 54.3725L52.3574 54.4726V54.6728L46.5268 79.2188H62.0028V51.7536C61.9857 50.612 62.033 49.4703 62.1444 48.334C62.2887 47.4518 62.5936 46.6037 63.044 45.8318C63.3232 45.3436 63.6993 44.9179 64.1491 44.5808C64.5989 44.2437 65.1129 44.0024 65.6594 43.8718C67.2834 43.4412 68.9613 43.2501 70.6404 43.3047Z" fill="white"/>
<path d="M137.991 93.3184C138.083 96.6425 137.451 99.9469 136.14 103.004C134.83 106.061 132.871 108.799 130.399 111.028C125.331 115.681 118.966 118.005 111.304 117.999C108.566 118.021 105.837 117.685 103.186 117.001C100.984 116.454 98.8725 115.591 96.9185 114.439C95.2864 113.441 93.759 112.281 92.3595 110.978C91.1355 109.872 90.0647 108.607 89.1756 107.218C88.4144 105.976 87.781 104.839 87.2753 103.808C86.8555 102.985 86.5069 102.128 86.2335 101.246L86.0418 100.248C85.4294 98.5007 85.0784 96.6731 85 94.824C85 90.9421 88.1032 89.0011 94.3097 89.0011C96.8101 89.0011 98.477 89.3339 99.3105 89.9993C100.417 91.1262 101.233 92.5052 101.686 94.0171L101.878 94.5162C101.972 94.7299 102.053 94.9494 102.119 95.1733C102.334 95.7051 102.614 96.2082 102.953 96.6707C103.42 97.3649 103.981 97.9919 104.62 98.534C105.445 99.1722 106.376 99.662 107.37 99.9814C108.651 100.434 110.003 100.657 111.362 100.639C114.696 100.639 117.197 99.9232 118.772 98.4841C119.505 97.8734 120.097 97.1106 120.506 96.2487C120.915 95.3869 121.131 94.4466 121.139 93.4931C121.119 92.5924 120.9 91.7071 120.499 90.9005C120.097 90.0938 119.521 89.3856 118.813 88.8264C117.263 87.4511 115.096 86.7635 112.312 86.7635C111.198 86.7912 110.082 86.7244 108.979 86.5638C108.1 86.3829 107.256 86.0627 106.478 85.6155C105.992 85.3235 105.569 84.9377 105.234 84.4806C104.9 84.0236 104.659 83.5044 104.528 82.9536C104.103 81.2827 103.912 79.5611 103.961 77.8378C103.927 76.3869 104.087 74.9379 104.436 73.5289C104.656 72.5968 105.043 71.712 105.578 70.9169C106.073 70.2788 106.75 69.8059 107.52 69.561C108.222 69.296 108.956 69.128 109.704 69.0619C110.304 69.0619 111.212 69.012 112.412 69.012C117.219 69.012 119.625 67.706 119.63 65.0941C119.599 64.3327 119.415 63.5854 119.088 62.8966C118.762 62.2078 118.3 61.5916 117.73 61.0846C116.463 59.8146 114.596 59.1797 112.129 59.1797C110.383 59.1173 108.653 59.5344 107.128 60.3858C106.06 60.9012 105.184 61.7433 104.628 62.7898L104.053 63.996C102.597 67.3234 100.508 68.9871 97.7853 68.9871C95.908 68.8875 94.0968 68.2619 92.5595 67.182C89.3923 65.241 87.8115 63.0006 87.8171 60.4607C87.9719 58.5613 88.5196 56.7145 89.4257 55.0371C89.559 54.7044 89.7424 54.2053 90.0008 53.6396C90.5854 52.5177 91.2836 51.4586 92.0844 50.4786C93.2147 48.9859 94.5406 47.6514 96.0266 46.5107C97.9446 45.1607 100.058 44.1115 102.294 43.3997C105.187 42.436 108.221 41.9637 111.271 42.0022C119.05 42.0022 125.192 44.3424 129.698 49.0229C134.205 53.7034 136.452 58.919 136.441 64.6698C136.456 66.3877 136.2 68.0972 135.683 69.7357C135.294 71.0733 134.668 72.3301 133.832 73.4457C133.172 74.2778 132.442 75.0515 131.649 75.7582C131.08 76.2758 130.457 76.7304 129.79 77.1141L129.032 77.5134V78.2953C129.358 78.4815 129.676 78.6842 129.982 78.9026C130.365 79.1688 131.074 79.7344 132.124 80.7077C133.142 81.6146 134.063 82.6236 134.874 83.719C135.782 85.0137 136.501 86.431 137.008 87.9281C137.649 89.6535 137.982 91.478 137.991 93.3184Z" fill="white"/>
<path d="M188.625 99.1091C189.765 99.0846 190.906 99.1516 192.035 99.3093C192.916 99.4825 193.76 99.8071 194.531 100.269C195.009 100.573 195.422 100.969 195.747 101.434C196.071 101.9 196.299 102.425 196.419 102.98C196.847 104.673 197.04 106.416 196.993 108.161C197.04 109.852 196.832 111.539 196.377 113.167C196.084 114.284 195.368 115.242 194.381 115.837C193.588 116.293 192.725 116.614 191.827 116.788C190.712 116.947 189.585 117.016 188.459 116.997H151.376C150.258 116.999 149.152 116.757 148.137 116.288C147.121 115.818 146.22 115.132 145.496 114.277C143.883 112.563 142.989 110.293 143 107.936C143.007 104.29 144.261 100.756 146.552 97.9244C148.955 94.8438 151.857 92.1899 155.136 90.0734C158.463 87.8931 161.81 85.7489 165.176 83.6409C168.364 81.6625 171.255 79.238 173.761 76.4408C175.975 74.1401 177.244 71.0864 177.312 67.889C177.301 67.6091 177.271 67.3303 177.221 67.0547C177.053 66.3812 176.831 65.7227 176.555 65.0857C176.207 64.2089 175.745 63.3815 175.183 62.6245C174.496 61.8036 173.646 61.1357 172.687 60.6638C171.455 60.0331 170.086 59.7206 168.703 59.7545C167.589 59.7009 166.477 59.8843 165.439 60.2927C164.401 60.7011 163.461 61.3252 162.681 62.1239C161.376 63.3765 160.502 65.0127 160.185 66.7961L159.811 69.1154V69.7162C159.828 70.8304 159.781 71.9447 159.67 73.0534C159.527 73.9363 159.222 74.7849 158.771 75.5564C158.491 76.0284 158.12 76.4402 157.68 76.768C157.241 77.0959 156.741 77.3334 156.209 77.4669C154.633 77.8798 153.005 78.0652 151.376 78.0176C150.001 78.0526 148.627 77.8839 147.301 77.517C146.4 77.2762 145.553 76.8657 144.805 76.3072C144.19 75.7592 143.748 75.0431 143.532 74.2465C143.273 73.5005 143.114 72.7234 143.058 71.9354C143.058 71.293 143.008 70.3419 143.008 69.0654C142.984 62.153 145.498 55.4736 150.07 50.3017C154.779 44.7396 160.956 41.9724 168.603 42.0002C176.25 42.028 182.411 44.8285 187.086 50.4018C191.716 55.7103 194.244 62.5381 194.19 69.591C194.201 73.3369 193.392 77.0396 191.819 80.4371C190.461 83.5617 188.515 86.3944 186.088 88.7803C183.978 90.7816 181.73 92.6301 179.359 94.3118C177.565 95.6145 175.645 96.7325 173.627 97.649L171.257 98.6586V99.1591L188.625 99.1091Z" fill="white"/>
<path d="M178.463 154.617C180.602 154.589 182.717 155.065 184.643 156.005C186.568 156.945 188.251 158.325 189.557 160.034C192.559 163.767 194.132 168.464 193.991 173.27V185.807C194.006 186.625 193.972 187.443 193.891 188.257C193.799 188.906 193.595 189.533 193.289 190.111C193.11 190.463 192.861 190.775 192.557 191.026C192.253 191.277 191.902 191.462 191.524 191.569C190.422 191.887 189.278 192.031 188.133 191.994C187.017 192.031 185.903 191.887 184.833 191.569C184.077 191.335 183.443 190.812 183.067 190.111C182.741 189.528 182.527 188.889 182.435 188.227C182.354 187.375 182.321 186.52 182.335 185.665V173.199C182.433 171.536 181.882 169.9 180.8 168.642C180.295 168.106 179.684 167.684 179.006 167.403C178.329 167.122 177.6 166.989 176.868 167.012C175.352 166.997 173.882 167.54 172.735 168.541C171.637 169.385 170.898 170.62 170.668 171.994V185.807C170.683 186.625 170.649 187.443 170.568 188.257C170.466 188.903 170.263 189.529 169.966 190.111C169.787 190.463 169.538 190.775 169.234 191.026C168.93 191.277 168.579 191.462 168.201 191.569C167.096 191.888 165.949 192.032 164.8 191.994C163.675 192.028 162.551 191.885 161.47 191.569C161.088 191.459 160.734 191.27 160.43 191.014C160.126 190.757 159.879 190.439 159.704 190.08C159.415 189.495 159.213 188.871 159.102 188.227C159.025 187.399 158.992 186.567 159.002 185.736V143.204C158.993 142.386 159.026 141.568 159.102 140.753C159.204 140.107 159.407 139.481 159.704 138.9C159.883 138.547 160.132 138.236 160.436 137.985C160.74 137.734 161.092 137.549 161.47 137.442C162.573 137.114 163.721 136.967 164.87 137.006C165.996 136.97 167.121 137.117 168.201 137.442C168.582 137.551 168.936 137.74 169.24 137.997C169.544 138.253 169.792 138.571 169.966 138.93C170.26 139.527 170.463 140.166 170.568 140.824C170.649 141.638 170.682 142.457 170.668 143.275V158.961C172.889 156.065 175.487 154.617 178.463 154.617Z" fill="white"/>
<path d="M217.659 179.335H229.155C229.94 179.32 230.725 179.368 231.502 179.478C232.123 179.612 232.715 179.855 233.253 180.197C233.927 180.652 234.407 181.348 234.599 182.146C235.134 184.51 235.134 186.965 234.599 189.329C234.504 189.73 234.33 190.107 234.086 190.437C233.843 190.767 233.535 191.043 233.182 191.248C232.629 191.565 232.027 191.784 231.401 191.894C230.631 191.977 229.857 192.011 229.084 191.997H204.798C204.032 191.992 203.275 191.823 202.577 191.501C201.88 191.179 201.257 190.712 200.75 190.129C199.626 188.919 199 187.318 199 185.655C199 183.992 199.626 182.392 200.75 181.182C201.911 179.984 203.702 178.23 206.123 175.918C208.545 173.605 210.741 171.523 212.711 169.669C214.735 167.822 215.747 166.796 215.939 166.59H206.457C205.607 166.59 204.97 166.59 204.545 166.59C204.015 166.545 203.494 166.424 202.997 166.231C202.444 166.043 201.963 165.684 201.621 165.205C201.242 164.633 200.968 163.997 200.811 163.327C200.568 162.32 200.455 161.286 200.477 160.249C200.457 159.213 200.569 158.178 200.811 157.171C200.96 156.498 201.235 155.861 201.621 155.293C201.979 154.852 202.458 154.527 202.997 154.359C203.494 154.167 204.015 154.046 204.545 154C204.97 154 205.557 154 206.457 154H228.305C229.075 153.998 229.838 154.157 230.545 154.468C231.252 154.779 231.888 155.234 232.413 155.806C232.981 156.382 233.428 157.07 233.728 157.826C234.027 158.583 234.172 159.393 234.153 160.208C234.192 161.042 234.063 161.874 233.774 162.656C233.485 163.437 233.043 164.151 232.474 164.754C230.855 166.361 225.916 171.222 217.659 179.335Z" fill="white"/>
</svg>
