<svg width="631" height="967" viewBox="0 0 631 967" fill="none" xmlns="http://www.w3.org/2000/svg">
<g clip-path="url(#clip0_5470_18828)">
<path d="M284.43 966.13C410.947 966.13 513.51 953.442 513.51 937.79C513.51 922.138 410.947 909.45 284.43 909.45C157.912 909.45 55.3496 922.138 55.3496 937.79C55.3496 953.442 157.912 966.13 284.43 966.13Z" fill="#D0D2D3"/>
<path d="M285.78 937.79C281.326 937.777 276.881 937.396 272.49 936.65H272.31C271.38 936.49 270.49 936.33 269.58 936.15H269.38C268.17 935.9 266.939 935.63 265.729 935.33H265.6C264.6 935.09 263.6 934.84 262.6 934.57C261.6 934.3 260.44 933.96 259.3 933.57C258.16 933.18 257.219 932.901 255.979 932.471L254.64 931.981L253.13 931.4C251.8 930.88 250.49 930.331 249.26 929.771C248.26 929.311 247.2 928.77 246.19 928.3L246 928.201C245 927.721 244.05 927.2 243.1 926.65H243.03C231.8 920.25 223.43 911.57 218.15 900.82C218.148 900.79 218.148 900.76 218.15 900.731C217.76 899.941 217.4 899.15 217.05 898.36C217.05 898.3 216.999 898.24 216.979 898.19C216.669 897.471 216.35 896.68 216.05 895.89C216.05 895.84 215.979 895.721 215.979 895.711C214.275 891.178 213.14 886.452 212.6 881.64V881.4C212.54 880.79 212.49 880.19 212.44 879.6C212.44 879.33 212.44 879.13 212.39 878.94C212.39 878.42 212.33 877.94 212.31 877.39C212.31 877.39 212.31 876.79 212.31 876.54C212.31 876.08 212.31 875.62 212.31 875.17C212.31 874.72 212.31 874.5 212.31 874.17C212.31 873.84 212.31 873.31 212.31 872.88C212.31 872.45 212.31 872.19 212.36 871.88C212.41 871.57 212.41 871.091 212.44 870.69C212.47 870.29 212.49 869.99 212.53 869.69C212.57 869.391 212.6 868.93 212.64 868.57C212.68 868.21 212.74 867.82 212.79 867.43V867.3C212.79 867.01 212.86 866.731 212.91 866.451C212.96 866.17 213.05 865.62 213.12 865.211V865.11C213.12 864.86 213.21 864.61 213.25 864.37C213.34 863.9 213.45 863.451 213.55 862.991C213.6 862.761 213.64 862.56 213.69 862.36C213.86 861.64 214.039 860.97 214.219 860.36C215.849 854.69 218.67 848.24 223.1 840.07C223.82 838.737 224.56 837.404 225.32 836.07C227.32 832.53 229.46 828.88 231.54 825.34C237 816.07 242.63 806.47 246.21 797.9C247.72 794.3 248.38 789.68 248.21 784.12C245.09 783.81 241.95 783.421 238.82 782.961C234.071 783.487 229.297 783.754 224.52 783.761H222.68C220.17 793.521 218.27 803.331 217.21 809.231C216.669 812.263 215.323 815.094 213.312 817.427C211.301 819.76 208.699 821.509 205.78 822.491C205.265 822.669 204.741 822.82 204.21 822.94C203.508 823.108 202.797 823.228 202.08 823.3C201.472 823.369 200.861 823.402 200.25 823.4H199.92C199.133 823.39 198.347 823.323 197.57 823.201C196.549 823.036 195.545 822.782 194.57 822.44L194.37 822.37C194.03 822.24 193.64 822.09 193.25 821.91C191.9 821.314 190.635 820.54 189.49 819.61L189.13 819.31C188.95 819.16 188.74 818.96 188.56 818.8C187.397 817.72 186.387 816.485 185.56 815.13C173.93 795.93 169.05 779.46 167.15 767.34C164.84 765.89 162.55 764.341 160.3 762.731C153.974 760.556 147.772 758.039 141.719 755.19C139.37 758.532 137.692 762.299 136.78 766.281C135.02 775.401 134.4 786.511 133.78 797.281C133.43 803.701 133.06 810.341 132.45 816.471C132.37 817.241 132.29 817.991 132.21 818.731C131.643 824.596 130.511 830.393 128.83 836.04C128.62 836.68 128.4 837.32 128.16 837.971L127.89 838.701C127.73 839.101 127.58 839.51 127.41 839.92L127.06 840.731C126.9 841.101 126.73 841.47 126.56 841.85C126.39 842.23 126.29 842.43 126.16 842.69C125.96 843.1 125.79 843.45 125.6 843.81C125.41 844.17 125.27 844.45 125.09 844.81L124.57 845.81L124 846.81L123.45 847.731L122.78 848.8L122.24 849.62L121.469 850.751C121.289 851.011 121.11 851.251 120.94 851.481C120.67 851.861 120.37 852.271 120.06 852.68L119.62 853.241C119.26 853.701 118.9 854.15 118.52 854.61L118.27 854.9C115.159 858.59 111.606 861.881 107.69 864.701L107.59 864.781C106.92 865.261 106.23 865.73 105.53 866.18L105.37 866.29C104.65 866.75 103.92 867.2 103.18 867.64L103.08 867.69C102.32 868.141 101.529 868.571 100.729 868.991C92.1325 873.415 82.5879 875.68 72.9197 875.59C71.3497 875.59 69.7296 875.53 68.1296 875.42H68.0596C66.9496 875.35 65.8197 875.24 64.6897 875.11C63.5597 874.98 62.2797 874.8 61.1597 874.62H61.0295C59.7295 874.41 58.3795 874.15 57.0295 873.85L55.5195 873.521L54.0696 873.17C52.9096 872.87 51.8396 872.58 50.8296 872.29L50.4597 872.18C49.4597 871.86 48.3896 871.54 47.3896 871.18C46.3896 870.82 45.3896 870.51 44.3896 870.18C43.1796 869.74 41.9996 869.29 40.8796 868.83H40.7996L38.1997 867.721L38.0596 867.65C33.8533 865.791 29.815 863.573 25.9895 861.021L25.7595 860.87C25.0395 860.38 24.4095 859.941 23.7595 859.491L23.3796 859.221C21.9896 858.221 20.6496 857.12 19.3796 856.06L19.2795 855.971C18.5195 855.311 17.7695 854.63 16.9995 853.89L16.7896 853.69C16.0696 853 15.3996 852.331 14.7896 851.69C14.7896 851.69 14.5195 851.4 14.4995 851.39C13.8795 850.72 13.2895 850.05 12.7195 849.39L12.4695 849.1C11.8695 848.39 11.3095 847.691 10.7695 846.991L10.6296 846.8C8.38562 843.845 6.44258 840.672 4.82959 837.33C4.04898 835.7 3.35134 834.031 2.7395 832.33C1.88373 829.946 1.21504 827.499 0.739502 825.011C0.739502 825.011 0.739502 824.91 0.739502 824.88C0.352534 822.81 0.111968 820.715 0.0195312 818.61V818.16C0.0195312 817.67 0.0195312 817.161 0.0195312 816.761V816.281C0.0195312 815.671 0.0196094 815.09 0.0996094 814.55C0.179609 813.63 0.279678 812.711 0.419678 811.721C0.419678 811.721 0.419492 811.44 0.479492 811.36C0.619492 810.42 0.809531 809.48 1.01953 808.56C3.83953 796.64 12.5096 788.66 26.7896 784.84C28.0296 784.51 29.2996 784.19 30.5896 783.84C41.6496 781.1 43.9196 779.971 45.0796 773.19C48.8196 751.36 52.0796 737.931 75.0796 715.721C77.4996 713.38 80.2795 710.721 83.2195 707.951C77.1383 699.455 72.0676 690.28 68.1096 680.61C57.1096 653.92 53.2996 634.09 67.8296 617.89C64.5996 608.49 64.7295 595.79 72.5295 578.89C78.1995 566.58 85.6897 560.66 92.4097 557.89C93.7197 543.77 103.03 530.81 108.08 523.79C114.76 514.49 122.079 508.79 129.979 506.79C135.509 491.47 151.37 481.79 159.5 476.79C165.5 473.16 171.43 471.31 177.25 471.31C180.431 471.305 183.588 471.871 186.57 472.98C189.919 468.491 193.838 464.457 198.229 460.98C205.043 455.421 213.175 451.711 221.84 450.21C221.84 449.5 221.779 448.8 221.74 448.1C221.419 442.5 220.74 437.521 219.88 431.741C219.88 431.6 219.88 431.46 219.83 431.33L219.719 431.241C217.829 429.691 215.92 428.101 214.07 426.531L213.53 426.06C211.67 424.48 209.81 422.85 207.99 421.241L207.43 420.751C205.63 419.141 203.83 417.51 202.05 415.87L201.52 415.38C199.76 413.74 198.02 412.1 196.3 410.46L195.78 409.95C194.04 408.29 192.37 406.651 190.78 405.021L190.27 404.501C188.61 402.851 187 401.22 185.44 399.59L184.9 399.031C183.34 397.424 181.816 395.817 180.33 394.21L179.82 393.66C178.34 392.06 176.903 390.477 175.51 388.91L174.99 388.34L172.94 386.011L171 383.761L170.51 383.18C169.85 382.41 169.22 381.66 168.6 380.92L168.55 380.86C167.94 380.13 167.35 379.41 166.77 378.69L166.31 378.12C165.71 377.38 165.13 376.66 164.57 375.95L164.46 375.81L162.86 373.761L162.41 373.17C161.91 372.51 161.41 371.83 160.89 371.17C160.853 371.13 160.82 371.086 160.79 371.04C155.709 364.273 151.034 357.211 146.79 349.89L145.7 347.95C145.21 347.06 144.75 346.21 144.29 345.36C142.59 342.16 141.04 338.97 139.67 335.87C139.29 335.03 138.93 334.2 138.59 333.39C128.53 309.25 131.29 294.82 132.95 289.741C133 289.581 133.04 289.45 133.08 289.34C133.64 287.654 134.21 285.987 134.79 284.34L135.32 282.85C135.77 281.6 136.21 280.36 136.67 279.13L137.21 277.68C137.75 276.25 138.29 274.85 138.83 273.46L139.09 272.79C140.42 269.44 141.83 266.07 143.29 262.79L143.469 262.38C149.953 247.545 157.903 233.395 167.2 220.14C145.07 213.14 129.49 207.141 118.02 201.241C108.22 196.241 101.16 191.16 96.4297 185.72C87.0097 174.92 88.2396 164.39 89.7996 159.08C94.0396 144.72 110.29 132.39 138.09 122.44C161.01 114.23 190.31 108.44 221.36 105.86L221.54 105.531L222.719 103.38L223.2 102.521C223.55 101.891 223.92 101.24 224.29 100.59L225.9 97.7705L227.55 94.9605L229.25 92.1204L230.979 89.2805L232.84 86.2805L235.06 82.7705L236.83 80.0105L238.62 77.2605C242.62 71.1405 247.03 64.7004 251.7 58.0904L251.76 58.0005C254.14 54.6405 256.63 51.1905 259.15 47.7305L260.56 45.8103C262.24 43.5203 263.88 41.3205 265.46 39.2105C268.98 34.5105 272.56 29.8205 276.12 25.2705C277.3 23.7605 278.38 22.3804 279.34 21.1704C279.357 21.1394 279.381 21.1121 279.41 21.0904L280.83 19.2903L283.19 16.3404C284.06 15.2604 284.51 14.7205 284.51 14.7205C286.603 12.1649 289.483 10.3721 292.7 9.62039L295.88 8.91043L298.88 8.28055L302.41 7.58035L303.57 7.36038C317.69 4.67038 345.68 0.170441 374.44 0.170441C384.67 0.132921 394.891 0.801174 405.03 2.17044H405.11C405.89 2.27044 406.66 2.39053 407.43 2.51053H407.53C413.589 3.43419 419.582 4.75363 425.469 6.46048C471.889 20.1605 519.3 65.5404 532.73 79.1304L534.619 81.0703C535.573 82.0742 536.385 83.205 537.03 84.4305C537.55 85.4305 538.03 86.4304 538.63 87.6704L539.01 88.5105C539.45 89.5105 539.839 90.4404 540.219 91.3904L540.48 92.0403C540.9 93.1503 541.319 94.3105 541.719 95.5205L541.98 96.3404C542.29 97.3404 542.589 98.2705 542.869 99.2505L543.11 100.11C543.47 101.41 543.77 102.61 544.05 103.79C544.05 103.89 544.11 104.061 544.15 104.23C544.4 105.29 544.639 106.42 544.869 107.57L545.05 108.48C545.28 109.671 545.5 110.87 545.69 112.09C545.693 112.13 545.693 112.171 545.69 112.21C545.92 113.59 546.11 114.921 546.29 116.261L546.38 117.021C546.53 118.181 546.67 119.36 546.79 120.55L546.849 121.031C546.989 122.431 547.109 123.82 547.219 125.22V125.511C547.319 126.831 547.41 128.13 547.48 129.43V130.001C547.63 132.751 547.73 135.63 547.77 138.55V138.97C547.77 141.87 547.77 144.84 547.77 147.81C547.77 149.36 547.7 150.81 547.65 152.34V152.43C547.024 167.974 545.542 183.47 543.21 198.85C590.08 233.92 623.63 273.441 629.57 300.991C629.57 301.121 629.63 301.26 629.65 301.4C629.836 302.32 629.996 303.22 630.13 304.1C630.13 304.31 630.23 304.86 630.23 304.87C630.34 305.7 630.41 306.511 630.46 307.281C630.46 307.571 630.46 307.901 630.52 308.23C630.52 309.021 630.52 309.76 630.52 310.55C630.52 310.96 630.52 311.29 630.52 311.62C630.47 312.35 630.41 313.08 630.3 313.9C630.25 314.3 630.199 314.661 630.139 315.021C629.97 316.084 629.737 317.136 629.44 318.17C629.422 318.249 629.399 318.326 629.369 318.4C629.086 319.331 628.753 320.246 628.369 321.14L628.099 321.761C627.703 322.659 627.256 323.533 626.76 324.38C626.669 324.54 626.55 324.72 626.44 324.89C626.02 325.57 625.57 326.23 625.09 326.89C624.95 327.08 624.809 327.26 624.659 327.44C624.073 328.176 623.449 328.88 622.79 329.55L622.25 330.06C621.76 330.53 621.25 331.01 620.65 331.47C620.45 331.644 620.25 331.804 620.05 331.95C619.38 332.46 618.66 332.95 617.92 333.43L617.29 333.81L617.19 333.87C616.66 334.18 616.11 334.491 615.54 334.781L614.869 335.11C614.119 335.47 613.41 335.78 612.65 336.11L611.8 336.43C611.23 336.63 610.69 336.82 610.13 336.991L609.06 337.31C608.46 337.48 607.9 337.621 607.32 337.761L606.24 338.001L604.719 338.29L603.15 338.54L601.9 338.7L600.639 338.84L599.4 338.94C598.7 339 598.03 339.04 597.34 339.07H596.34C595.51 339.07 594.62 339.07 593.71 339.07H591.4H590.679C588.979 339.01 587.14 338.911 585.27 338.751H584.92C569.13 337.401 548.54 332.89 516.46 323.59C517.46 347.5 514.46 373.04 507.59 399.82C505.87 407.82 496.03 431.54 440.11 453.58C418.54 462.16 387.5 469.26 357.85 472.47L357.67 472.69C353.83 477.11 350.51 480.921 347.19 485.47C346.47 486.47 345.76 487.47 345.07 488.47C350.405 493.918 354.433 500.508 356.85 507.741C358.655 513.051 359.758 518.574 360.13 524.17C366.66 525.59 374.96 529.95 380.8 542.05C386.43 553.73 391.799 567.76 389.74 580.92C406.359 593.09 426.3 610.92 439.84 625.92C441.553 627.817 443.143 629.821 444.6 631.92C445.16 632.3 445.72 632.69 446.27 633.11C449.622 635.551 452.382 638.715 454.345 642.368C456.308 646.02 457.424 650.068 457.61 654.211C461 656.88 465.02 660.13 469.21 663.67C479.21 672.11 480.419 680.41 479.699 685.89C479.219 689.247 477.917 692.432 475.906 695.163C473.896 697.894 471.242 700.085 468.179 701.54C467.517 701.857 466.832 702.124 466.13 702.34C463.957 703 461.7 703.337 459.429 703.34C456.65 703.368 453.884 702.963 451.229 702.14C449.447 705.653 446.663 708.559 443.229 710.491C440.454 712.043 437.319 712.836 434.14 712.79H433.14C430.454 716.33 426.652 718.86 422.35 719.971C420.921 720.352 419.448 720.544 417.969 720.54C411.029 720.54 403.59 716.43 397.67 709.64C393.739 709.03 389.891 707.973 386.2 706.491L385.57 706.231C384.253 707.677 382.821 709.014 381.29 710.231C384.54 730.441 374.39 745.821 346.37 763.231C338.711 767.987 330.618 772.005 322.2 775.231C323.4 780.231 324.52 785.23 325.54 789.87C332.43 821.1 327.689 834.08 318.729 854.34C315.949 860.63 317.21 862.821 324.9 871.231C325.8 872.231 326.68 873.18 327.53 874.14C337.31 885.22 340.11 896.67 335.87 908.14C335.54 909.03 335.16 909.93 334.76 910.8C334.76 910.8 334.64 911.05 334.63 911.09C334.26 911.87 333.89 912.591 333.51 913.281C333.39 913.511 333.26 913.741 333.13 913.961C333 914.18 332.69 914.71 332.44 915.09L332.17 915.521C331.92 915.901 331.66 916.29 331.37 916.69L331.09 917.09C329.869 918.769 328.533 920.359 327.09 921.85L326.979 921.961C325.208 923.772 323.299 925.444 321.27 926.961C319.815 928.041 318.302 929.043 316.74 929.961C313.548 931.857 310.175 933.428 306.67 934.65L306.45 934.721C305.61 935.01 304.74 935.29 303.86 935.55L303.52 935.64C302.64 935.89 301.77 936.12 300.88 936.33L300.5 936.42C299.59 936.63 298.669 936.821 297.729 936.991L297.43 937.05C296.34 937.24 295.279 937.401 294.229 937.531C292.629 937.731 290.92 937.87 289.16 937.961H288.74C287.979 937.961 287.21 937.961 286.42 938.021L285.78 937.79Z" fill="#231F20"/>
<path d="M181.69 745.6C181.69 745.6 175.9 770.06 198.35 807.13C198.584 807.516 198.93 807.822 199.343 808.008C199.755 808.193 200.214 808.249 200.658 808.168C201.103 808.086 201.512 807.872 201.832 807.552C202.152 807.233 202.368 806.824 202.45 806.38C204.82 793.15 211.32 760.69 219.76 750.09L181.69 745.6Z" fill="#49BEA2"/>
<path opacity="0.49" d="M181.69 745.6L219.759 750.09C216.699 753.94 213.89 760.67 211.44 768.31C204.61 766.04 194.97 762.81 191.68 761.52C191.68 761.52 191.24 785.63 201.15 808.01C200.656 808.229 200.099 808.26 199.583 808.098C199.068 807.936 198.629 807.592 198.35 807.13C175.91 770.06 181.69 745.6 181.69 745.6Z" fill="#3D9480"/>
<path d="M92.3101 624.68C81.3101 617.85 76.2201 606.26 86.1401 584.77C96.4501 562.42 112.04 572.59 112.04 572.59C103.66 563.18 106.04 551.91 120.25 532.17C134.46 512.43 144.04 524.01 144.04 524.01C140.28 511.55 146.89 501.74 167.3 489.3C185.53 478.18 191.52 498.49 192.59 502.95C191.96 499.51 190.77 485.95 207.59 472.35C227.1 456.64 258.01 468.5 258.01 468.5L278.69 480.34L302.49 481.62C302.49 481.62 334.88 488.43 342.74 512.22C349.53 532.78 341.16 543.54 338.74 546.09C342.06 542.92 358.12 529.09 367.4 548.35C377.78 569.88 378.01 581.7 368.09 590.12C368.09 590.12 382.44 585.61 383.64 609.89C384.84 634.17 380.74 644.94 368.64 648.29C368.64 648.29 387.25 648.22 383.78 672.58C380.45 696.02 369.92 703.01 356.93 702.75C359.7 703.05 365.3 704.59 366.56 712.07C368.25 722.07 366.56 732.82 338.56 750.2C273.39 790.68 197.38 756.01 197.38 756.01C197.38 756.01 112.01 747.78 81.9502 674.5C69.4502 644.03 72.2801 634.79 79.1401 627.29C84.2901 621.69 89.8401 623.41 92.3101 624.68Z" fill="#7D5A53"/>
<path d="M357.763 670.143C379.067 597.944 342.172 523.432 275.355 503.716C208.538 484 137.101 526.546 115.797 598.745C94.493 670.944 131.389 745.456 198.206 765.172C265.023 784.888 336.459 742.342 357.763 670.143Z" fill="#3C2415"/>
<path d="M350.703 668.066C370.766 600.073 336.021 529.902 273.097 511.335C210.173 492.768 142.899 532.835 122.836 600.828C102.773 668.821 137.519 738.992 200.442 757.559C263.366 776.127 330.64 736.059 350.703 668.066Z" fill="#F5E099"/>
<path d="M206.45 516.71C178.97 532.5 155.08 557.46 145.53 589.84C125.47 657.84 171.46 731.32 223.14 746.56C243.14 752.46 267.14 750.56 290.14 742.12C260.86 759.18 226.95 765.21 200.23 757.32C148.55 742.08 102.56 668.6 122.61 600.6C134.84 559.46 170.08 530.28 206.45 516.71Z" fill="#F0CC6D"/>
<path d="M369.779 431.77C341.619 476.51 331.26 463.29 303.41 546.65C303.41 546.65 297.809 560.23 260.229 549.14C222.649 538.05 225.309 523.61 225.309 523.61C247.169 438.48 231.31 443.96 231.93 391.1L300.839 411.41L369.779 431.77Z" fill="#49BEA2"/>
<path d="M236.7 447.26C235.7 430.34 231.59 418.63 231.93 391.1L300.84 411.41L369.77 431.75C355.09 455.08 345.24 462.65 335.23 476.37C315.46 477.51 296.77 476.54 282.64 472.37C268.51 468.2 252.54 458.92 236.7 447.26Z" fill="#3D9480"/>
<path d="M287.84 454.65C326.38 466.02 398.84 453.65 434.74 439.39C489.39 417.84 493.09 396.22 493.09 396.22C541.22 210.08 373.83 163.22 373.83 163.22C373.83 163.22 207.78 111.76 147.17 294.22C147.17 294.22 138.74 316.39 172.75 362.14C195.84 393.11 249.35 443.28 287.84 454.65Z" fill="#49BEA2"/>
<path opacity="0.49" d="M147.21 294.18C156.9 265.01 169.29 241.85 183.26 223.47L183.99 222.55C184.65 221.69 185.31 220.85 185.99 220.01L187.76 217.83C188.43 217.02 189.1 216.21 189.76 215.41C190.42 214.61 190.96 214.03 191.56 213.35C192.16 212.67 192.92 211.78 193.62 211.02C194.32 210.26 194.82 209.73 195.42 209.09C196.9 207.51 198.39 205.973 199.89 204.48L201.21 203.17C201.95 202.45 202.71 201.76 203.45 201.06C204.05 200.51 204.63 199.95 205.23 199.41L205.83 198.85C278.41 133.61 373.83 163.17 373.83 163.17C373.83 163.17 489.829 195.69 500.909 313.96C459.169 298.73 357.91 263.3 254.97 238.62C204.88 344.4 233.91 409.48 256.8 439.73C224.43 419.36 190.03 385.35 172.75 362.1C138.78 316.35 147.21 294.18 147.21 294.18Z" fill="#3D9480"/>
<path d="M451.52 399.41C451.52 399.41 428.41 403.17 431.44 385.25" stroke="#231F20" stroke-width="5.73" stroke-miterlimit="10" stroke-linecap="round"/>
<path d="M206.94 327.21C219.07 352.36 241.49 352.81 262.01 360.57C282.53 368.33 302.84 401.73 307.41 403.08C311.98 404.43 347.17 387.39 368.62 392.02C390.07 396.65 409.14 408.43 432.97 393.89" stroke="#231F20" stroke-width="5.73" stroke-miterlimit="10" stroke-linecap="round"/>
<path d="M188.39 321.74C188.39 321.74 205.76 337.44 212.94 320.74" stroke="#231F20" stroke-width="5.73" stroke-miterlimit="10" stroke-linecap="round"/>
<path d="M308.21 400.41C308.21 400.41 335.89 342.77 333.79 299.11" stroke="#231F20" stroke-width="5.73" stroke-miterlimit="10" stroke-linecap="round"/>
<path d="M333.441 358.91C333.226 358.833 332.999 358.795 332.77 358.8H332.6H332.461C332.461 358.8 332.401 358.8 332.461 358.8H332.64L333.201 358.66C333.621 358.54 334.07 358.38 334.53 358.22C335.44 357.89 336.37 357.51 337.3 357.11C339.16 356.32 341.02 355.46 342.88 354.58C343.383 354.334 343.961 354.292 344.494 354.462C345.027 354.632 345.474 355.002 345.741 355.494C346.008 355.985 346.075 356.561 345.927 357.1C345.78 357.64 345.43 358.102 344.951 358.39C343.171 359.49 341.37 360.59 339.52 361.64C338.59 362.16 337.641 362.64 336.651 363.17C336.151 363.42 335.65 363.66 335.09 363.89C334.82 364.01 334.531 364.12 334.181 364.24L333.61 364.41L333.201 364.49H332.87H332.6C332.339 364.496 332.078 364.455 331.83 364.37C331.47 364.264 331.134 364.087 330.842 363.851C330.549 363.615 330.306 363.323 330.127 362.993C329.947 362.663 329.834 362.301 329.794 361.927C329.755 361.553 329.789 361.176 329.895 360.815C330.002 360.455 330.178 360.119 330.414 359.826C330.651 359.534 330.942 359.291 331.272 359.111C331.602 358.932 331.965 358.819 332.338 358.779C332.712 358.739 333.09 358.774 333.451 358.88L333.441 358.91Z" fill="#231F20"/>
<path d="M307.63 357.27C307.379 357.198 307.14 357.09 306.92 356.95L306.77 356.85L306.69 356.79L306.44 356.59C306.34 356.49 306.2 356.37 306.14 356.3C306 356.156 305.869 356.002 305.75 355.84C305.544 355.592 305.354 355.331 305.18 355.06C304.83 354.56 304.54 354.06 304.26 353.6C303.69 352.6 303.18 351.71 302.68 350.76C301.68 348.87 300.78 346.98 299.88 345.08C299.634 344.578 299.592 344 299.762 343.467C299.932 342.934 300.302 342.487 300.793 342.22C301.285 341.953 301.86 341.886 302.4 342.034C302.94 342.181 303.402 342.531 303.69 343.01C304.77 344.75 305.87 346.49 307.01 348.16C307.57 349 308.15 349.82 308.73 350.59C309.02 350.98 309.32 351.36 309.6 351.68L310 352.11C310.042 352.155 310.089 352.195 310.14 352.23C310.107 352.196 310.07 352.166 310.03 352.14L309.89 352.04C309.694 351.919 309.482 351.829 309.26 351.77C309.957 352.012 310.534 352.513 310.872 353.169C311.209 353.824 311.282 354.585 311.073 355.293C310.865 356 310.392 356.601 309.752 356.969C309.113 357.337 308.356 357.445 307.64 357.27H307.63Z" fill="#231F20"/>
<path d="M331.884 196.328C340.975 191.38 345.872 182.827 342.822 177.224C339.772 171.622 329.931 171.091 320.841 176.039C311.75 180.987 306.853 189.54 309.903 195.143C312.952 200.745 322.794 201.276 331.884 196.328Z" fill="#3D9480"/>
<path d="M323.246 222.245C329.258 217.561 331.711 210.656 328.724 206.822C325.737 202.988 318.442 203.677 312.429 208.361C306.417 213.045 303.964 219.95 306.951 223.784C309.938 227.618 317.233 226.929 323.246 222.245Z" fill="#3D9480"/>
<path d="M486.285 303.024C490.941 301.631 492.945 294.583 490.762 287.281C488.578 279.979 483.033 275.188 478.377 276.581C473.72 277.974 471.716 285.022 473.899 292.324C476.083 299.626 481.628 304.416 486.285 303.024Z" fill="#3D9480"/>
<path d="M297.628 211.648C303.199 209.157 306.426 204.252 304.834 200.692C303.243 197.133 297.436 196.266 291.865 198.757C286.294 201.248 283.068 206.153 284.659 209.713C286.251 213.272 292.057 214.139 297.628 211.648Z" fill="#3D9480"/>
<path d="M104.14 163.25C95.1399 193.7 212.98 215.77 354.07 257.39C495.16 299.01 606.07 344.39 615.07 313.98C624.07 283.57 530.37 179.63 389.27 137.98C248.17 96.33 113.12 132.8 104.14 163.25Z" fill="#EFCB6C"/>
<path d="M128.12 168.09C133.12 151.09 177.25 132.33 239.73 126.18L231.93 130.86C231.93 130.86 289.17 152.05 290.24 166.91C291.31 181.77 409.24 226.43 409.24 226.43C409.24 226.43 480.54 301.74 612.72 296.56C615.55 303.63 616.41 309.56 615.11 313.98C612.21 323.8 598.7 325.72 577.02 322.44C529.48 311.04 458.71 286.02 378.07 262.23C236.96 220.61 119.14 198.54 128.12 168.09Z" fill="#E2B654"/>
<path d="M520.9 237.15C520.9 237.15 545.9 132.69 523.83 91.2305C523.83 91.2305 470.47 35.1704 421.3 20.6704C372.13 6.17042 296.14 24.0603 296.14 24.0603C296.14 24.0603 224.78 111.13 220.85 148.63C220.85 148.63 306.23 210.03 363.1 226.81C419.97 243.59 520.9 237.15 520.9 237.15Z" fill="#EFCB6C"/>
<path d="M220.84 148.63C222.94 128.53 244.42 94.1999 263.9 66.6299C290.44 105.21 364.97 192.08 520.9 237.13C520.9 237.13 419.96 243.56 363.1 226.79C306.24 210.02 220.84 148.63 220.84 148.63Z" fill="#E2B654"/>
<path d="M220.84 148.63C221.84 139.35 226.91 127.04 234.04 113.76C234.04 113.76 325.7 166.13 376.56 181.13C427.42 196.13 527.89 200.41 527.89 200.41C524.59 221.71 520.89 237.11 520.89 237.11C520.89 237.11 419.95 243.54 363.09 226.77C306.23 210 220.84 148.63 220.84 148.63Z" fill="#A873AC"/>
<path d="M286.866 606.106C287.854 602.758 270.868 594.796 248.928 588.322C226.987 581.848 208.401 579.313 207.413 582.661C206.425 586.009 223.41 593.971 245.351 600.445C267.291 606.919 285.878 609.453 286.866 606.106Z" fill="#F7A33F"/>
<path d="M258.699 701.612C259.687 698.264 242.701 690.302 220.761 683.828C198.82 677.354 180.233 674.819 179.246 678.167C178.258 681.515 195.243 689.477 217.184 695.951C239.124 702.425 257.711 704.959 258.699 701.612Z" fill="#F7A33F"/>
<path d="M287.024 661.69C288.012 658.342 264.207 648.368 233.855 639.412C203.503 630.455 178.097 625.909 177.109 629.257C176.121 632.604 199.926 642.579 230.278 651.535C260.63 660.491 286.036 665.038 287.024 661.69Z" fill="#F7A33F"/>
<path d="M272.97 366.91C272.97 366.91 259.85 413.91 298.23 425.25C336.61 436.59 352.37 391.75 352.37 391.75L304.98 402.41L272.97 366.91Z" fill="#231F20"/>
<path d="M276.24 408.41C280.409 405.776 285.095 404.068 289.982 403.401C294.868 402.735 299.84 403.127 304.562 404.549C309.284 405.971 313.646 408.391 317.351 411.645C321.057 414.899 324.02 418.911 326.04 423.41C318.56 427.09 309.35 428.53 298.23 425.25C287.11 421.97 280.28 415.65 276.24 408.41Z" fill="#F16C6C"/>
<path d="M282.34 594.2C282.34 594.2 288.56 587.44 275.43 583.12C262.3 578.8 250.85 575.84 250.85 575.84L249.92 591.32C249.92 591.32 274.57 600.48 282.34 594.2Z" fill="#58595B"/>
<path d="M274.64 622.64C274.64 622.64 282.85 618.5 272.08 609.84C261.31 601.18 251.62 594.37 251.62 594.37L245.3 608.54C245.3 608.54 265.16 625.79 274.64 622.64Z" fill="#58595B"/>
<path d="M242.35 637.88C242.35 637.88 251.5 638.82 247.09 625.71C242.68 612.6 238.19 601.71 238.19 601.71L225.24 610.24C225.24 610.24 232.67 635.41 242.35 637.88Z" fill="#58595B"/>
<path d="M266.32 555.02C266.32 555.02 263.51 546.27 253.27 555.56C243.03 564.85 234.84 573.41 234.84 573.41L247.84 581.85C247.84 581.85 267.95 564.87 266.32 555.02Z" fill="#58595B"/>
<path d="M259.84 607.68C259.84 607.68 275.48 580.199 251.69 559.539C227.9 538.879 188.96 514.7 176.32 513.03C163.68 511.36 149.12 519.74 145.74 525.26C142.36 530.78 130.53 541.2 152.12 562.89C173.71 584.58 205.6 615.89 221.94 620.21C238.28 624.53 254.02 617.01 259.84 607.68Z" fill="#49BEA2"/>
<path opacity="0.49" d="M216.84 618.26C208.33 609.57 159.29 556.76 182.1 514.62C180.237 513.882 178.299 513.349 176.32 513.03C163.68 511.35 149.12 519.74 145.74 525.26C142.36 530.78 130.54 541.2 152.12 562.89C171.64 582.52 199.58 609.99 216.84 618.26Z" fill="#3D9480"/>
<path d="M461.93 687.79C461.93 687.79 470.24 683.85 459.69 674.92C449.14 665.99 439.62 658.92 439.62 658.92L432.95 672.92C432.95 672.92 452.38 690.7 461.93 687.79Z" fill="#58595B"/>
<path d="M431.07 684.51C431.07 684.51 449.94 659.15 428.86 635.73C407.78 612.31 372.09 583.56 359.74 580.35C347.39 577.14 331.92 583.69 327.89 588.75C323.86 593.81 310.89 602.75 329.63 626.89C348.37 651.03 376.23 686.02 391.91 692.31C407.59 698.6 424.15 693.06 431.07 684.51Z" fill="#49BEA2"/>
<path opacity="0.49" d="M327.89 588.75C331.59 584.11 344.89 578.24 356.6 579.75C321.24 614.53 378.49 682.75 378.49 682.75L378.22 682.87C362.9 669.25 343.72 645.04 329.63 626.87C310.84 602.71 323.84 593.81 327.89 588.75Z" fill="#3D9480"/>
<path d="M436 697.21C436 697.21 443.79 693.6 432.76 680.21C421.73 666.82 413.62 671.63 412.18 673C410.74 674.37 410.09 679.53 417.58 687.87C425.07 696.21 433.7 698.55 436 697.21Z" fill="#58595B"/>
<path d="M418.52 647.56C418.52 647.56 427.58 637.4 437.34 644.84C451.95 655.97 433.49 676.24 425.21 671.38C416.93 666.52 425.5 658.38 425.5 658.38C425.5 658.38 413.51 656.78 418.52 647.56Z" fill="#58595B"/>
<path d="M418.68 705.21C418.68 705.21 426.33 703.84 420.18 690.4C414.03 676.96 405.81 679.27 404.18 680.11C402.55 680.95 400.72 685.11 405.08 693.59C409.44 702.07 416.35 705.84 418.68 705.21Z" fill="#58595B"/>
<path d="M154.69 719.6C152.52 723.13 126.3 741.071 122.02 763.211C117.74 785.351 119.76 814.79 114.53 831.21C109.91 845.76 90.9702 868.121 54.9002 857.481C18.8302 846.841 14.4301 823.19 15.0401 815.17C15.6501 807.15 19.2102 801.89 30.6502 798.83C42.0902 795.77 56.6501 794.191 59.8401 775.251C63.0301 756.311 65.03 745.77 85.48 726.05C105.93 706.33 126.75 687.31 137.48 688.71C148.21 690.11 162.53 708.27 154.69 719.6Z" fill="#49BEA2"/>
<path d="M15.6 811.56C15.3208 812.764 15.1335 813.988 15.0399 815.22C14.8794 819.186 15.5154 823.144 16.91 826.86C21.81 824.57 28.49 820.36 28.62 814.35C28.75 808.34 21.17 809.73 15.6 811.56Z" fill="#58595B"/>
<path d="M29.2202 844.33C33.6402 838.1 40.5702 826.83 36.4902 822.48C32.2302 817.94 22.9604 825.94 18.4004 830.48C21.0054 835.799 24.6903 840.515 29.2202 844.33Z" fill="#58595B"/>
<path d="M48.1204 835.12C43.1204 831.25 35.2604 839.96 30.9004 845.71C35.664 849.391 40.9222 852.384 46.5203 854.6C49.5903 847.27 52.2004 838.25 48.1204 835.12Z" fill="#58595B"/>
<path d="M54.9004 857.53C57.736 858.376 60.6215 859.044 63.5403 859.53C64.6203 854.74 64.8804 849.04 61.3804 845.68C56.3804 840.85 51.6502 850.35 49.4902 855.77C51.2202 856.41 53.0004 856.97 54.9004 857.53Z" fill="#58595B"/>
<path d="M100.95 758.89C100.95 758.89 97.1096 772.41 83.9496 770.53C70.7896 768.65 73.3094 755.97 77.5094 753.34C81.7094 750.71 86.6396 753.74 87.7096 757.81" stroke="#1F705F" stroke-width="2.92" stroke-miterlimit="10" stroke-linecap="round"/>
<path opacity="0.49" d="M63.5295 859.5C78.0395 854.5 96.1197 854.07 100.95 809.99C105.78 765.91 105.67 758.17 127.63 726.99C149.59 695.81 131.41 689.68 131.41 689.68C133.315 688.929 135.368 688.624 137.41 688.79C148.11 690.2 162.48 708.3 154.65 719.63C152.47 723.16 126.249 741.1 121.969 763.24C117.689 785.38 119.709 814.82 114.479 831.24C110.249 844.58 93.9595 864.46 63.4795 859.48L63.5295 859.5Z" fill="#3D9480"/>
<path d="M256.979 749.07C256.829 753.21 268.74 782.67 260.06 803.48C251.38 824.29 233.4 847.69 228.64 864.3C224.43 878.97 227.84 908.08 263.77 919.18C299.7 930.28 316.45 913.01 320.38 906C324.31 898.99 324.25 892.63 316.38 883.75C308.51 874.87 297.38 865.53 305.11 847.96C312.84 830.39 317.109 820.53 310.989 792.79C304.869 765.05 298.05 737.68 288.36 732.93C278.67 728.18 256.719 735.3 256.979 749.07Z" fill="#49BEA2"/>
<path d="M321.941 902.64C321.508 903.798 320.986 904.922 320.38 906C318.321 909.393 315.6 912.338 312.38 914.66C309.57 910.05 306.33 902.84 309.56 897.76C312.79 892.68 318.311 898.03 321.941 902.64Z" fill="#58595B"/>
<path d="M292.46 922.41C292.23 914.78 292.69 901.55 298.46 900.2C304.52 898.78 307.81 910.569 309.12 916.839C304.014 919.833 298.34 921.73 292.46 922.41Z" fill="#58595B"/>
<path d="M281.84 904.27C288.17 903.83 289.84 915.42 290.32 922.61C284.315 923.044 278.279 922.63 272.39 921.38C273.84 913.58 276.68 904.62 281.84 904.27Z" fill="#58595B"/>
<path d="M263.77 919.18C260.944 918.31 258.175 917.264 255.479 916.05C257.229 911.46 260.17 906.56 264.94 905.7C271.81 904.46 270.47 914.98 269.26 920.7C267.48 920.25 265.66 919.76 263.77 919.18Z" fill="#58595B"/>
<path d="M280 811.54C280 811.54 275.71 824.92 287.68 830.62C299.65 836.32 304.6 824.38 302.56 819.87C300.52 815.36 294.73 815.15 291.56 817.95" stroke="#1F705F" stroke-width="2.92" stroke-miterlimit="10" stroke-linecap="round"/>
<path opacity="0.49" d="M255.48 916.05C246.17 903.85 231.35 893.49 251.72 854.1C272.09 814.71 276.47 808.32 275.45 770.18C274.43 732.04 292.95 737.011 292.95 737.011C291.764 735.321 290.208 733.925 288.4 732.93C278.7 728.17 256.72 735.3 256.98 749.07C256.83 753.21 268.74 782.67 260.05 803.48C251.36 824.29 233.4 847.69 228.64 864.3C224.78 877.75 227.34 903.3 255.48 916.05Z" fill="#3D9480"/>
<path d="M336.65 70.5396C314.534 67.4193 292.667 62.741 271.21 56.5396C284.96 37.7296 296.14 24.0896 296.14 24.0896C296.14 24.0896 357.23 9.69971 405.31 17.1897C394.43 43.6297 373.47 75.7196 336.65 70.5396Z" fill="#CB9B3B"/>
<path d="M441.34 84.2703C433.43 70.1603 439.57 46.2703 445.18 30.5303C486.29 51.8003 523.83 91.2302 523.83 91.2302C531.68 105.94 533.59 128.59 532.78 151.68C504.55 138.18 451.01 101.49 441.34 84.2703Z" fill="#CB9B3B"/>
<path d="M304.533 68.9855C313.257 60.2612 315.939 48.7977 310.522 43.3812C305.106 37.9646 293.642 40.646 284.918 49.3703C276.193 58.0946 273.512 69.5581 278.929 74.9746C284.345 80.3912 295.809 77.7098 304.533 68.9855Z" fill="white"/>
<path d="M254.784 580.009C257.552 576.846 255.55 570.567 250.314 565.984C245.077 561.401 238.588 560.25 235.82 563.413C233.052 566.576 235.054 572.855 240.291 577.438C245.527 582.02 252.016 583.171 254.784 580.009Z" fill="white"/>
<path d="M97.0603 734.587C102.445 729.615 104.959 723.581 102.678 721.11C100.396 718.639 94.1814 720.666 88.797 725.638C83.4127 730.61 80.8977 736.644 83.1795 739.115C85.4613 741.586 91.6759 739.559 97.0603 734.587Z" fill="white"/>
<path d="M303.14 804.834C306.498 804.168 308.044 797.695 306.592 790.376C305.141 783.057 301.241 777.664 297.882 778.331C294.524 778.997 292.978 785.47 294.43 792.789C295.881 800.108 299.781 805.501 303.14 804.834Z" fill="white"/>
<path d="M598.81 292.199C602.766 288.88 600.096 279.186 592.847 270.546C585.598 261.907 576.514 257.595 572.559 260.914C568.603 264.233 571.273 273.927 578.522 282.566C585.771 291.206 594.854 295.519 598.81 292.199Z" fill="white"/>
<path d="M300.37 776.09C301.828 776.09 303.01 774.908 303.01 773.45C303.01 771.992 301.828 770.81 300.37 770.81C298.912 770.81 297.73 771.992 297.73 773.45C297.73 774.908 298.912 776.09 300.37 776.09Z" fill="white"/>
<path d="M568.35 256.51C571.128 256.51 573.38 254.258 573.38 251.48C573.38 248.702 571.128 246.45 568.35 246.45C565.572 246.45 563.32 248.702 563.32 251.48C563.32 254.258 565.572 256.51 568.35 256.51Z" fill="white"/>
<path d="M466.42 265.6C466.42 265.6 461.71 231.66 428.85 225.81" stroke="#231F20" stroke-width="5.73" stroke-miterlimit="10" stroke-linecap="round"/>
<path d="M224.69 234.83C224.69 234.83 247.07 208.83 277.84 221.83" stroke="#231F20" stroke-width="5.73" stroke-miterlimit="10" stroke-linecap="round"/>
<path d="M376.269 318.41C375.725 323.393 375.985 328.43 377.039 333.33C378.06 337.977 379.891 342.409 382.45 346.42C387.375 354.247 394.985 360.009 403.855 362.627C412.724 365.245 422.244 364.538 430.63 360.64C434.955 358.656 438.898 355.928 442.279 352.58C445.822 349.036 448.77 344.943 451.009 340.46C450.401 345.753 448.551 350.828 445.61 355.27C442.579 359.871 438.587 363.76 433.91 366.67C429.127 369.638 423.769 371.556 418.19 372.3C416.79 372.44 415.379 372.59 413.969 372.64C412.559 372.69 411.139 372.64 409.719 372.54C408.299 372.44 406.909 372.2 405.509 371.98L401.38 370.98L397.38 369.55C396.08 368.98 394.809 368.35 393.529 367.74C392.249 367.13 391.11 366.26 389.91 365.52C388.71 364.78 387.649 363.82 386.539 362.94C382.255 359.289 378.796 354.769 376.39 349.68C374.044 344.694 372.805 339.26 372.759 333.75C372.708 328.432 373.91 323.177 376.269 318.41Z" fill="#231F20"/>
<path d="M217.04 271.41C216.491 276.389 216.751 281.424 217.81 286.32C218.831 290.969 220.659 295.402 223.21 299.42C228.147 307.234 235.758 312.985 244.623 315.602C253.488 318.218 263.001 317.521 271.39 313.64C275.715 311.651 279.658 308.92 283.04 305.57C286.586 302.03 289.537 297.941 291.78 293.46C291.168 298.753 289.319 303.826 286.38 308.27C283.347 312.869 279.356 316.757 274.68 319.67C269.897 322.636 264.539 324.555 258.96 325.3C257.56 325.43 256.15 325.58 254.74 325.63C253.33 325.68 251.9 325.63 250.49 325.53C249.08 325.43 247.68 325.19 246.28 324.97L242.14 323.97L238.14 322.55C236.85 321.97 235.57 321.35 234.3 320.73C233.03 320.11 231.88 319.26 230.68 318.51C229.48 317.76 228.41 316.81 227.31 315.94C223.028 312.287 219.569 307.768 217.16 302.68C214.808 297.696 213.566 292.261 213.52 286.75C213.471 281.431 214.677 276.176 217.04 271.41Z" fill="#231F20"/>
<path d="M387.272 682.169C389.554 680.258 388.888 675.705 385.785 672.001C382.682 668.296 378.316 666.842 376.034 668.754C373.752 670.665 374.418 675.218 377.521 678.923C380.624 682.627 384.989 684.081 387.272 682.169Z" fill="white"/>
</g>
<defs>
<clipPath id="clip0_5470_18828">
<rect width="630.67" height="966.13" fill="white"/>
</clipPath>
</defs>
</svg>
