<svg width="952" height="1191" viewBox="0 0 952 1191" fill="none" xmlns="http://www.w3.org/2000/svg">
<g clip-path="url(#clip0_4754_541)">
<path d="M417.171 1190.62C621.037 1190.62 786.303 1155.97 786.303 1113.23C786.303 1070.48 621.037 1035.83 417.171 1035.83C213.305 1035.83 48.0388 1070.48 48.0388 1113.23C48.0388 1155.97 213.305 1190.62 417.171 1190.62Z" fill="#A7A9AC"/>
<path d="M492.144 1131.11L385.92 1128.32C384.343 1128.28 382.78 1128.02 381.27 1127.57L342.078 1126.38C337.609 1126.24 333.355 1124.42 330.155 1121.3C326.955 1118.18 325.04 1113.97 324.789 1109.51C319.865 1021.17 341.887 924.362 363.111 840.315C346.907 837.787 329.916 834.997 312.389 831.969C275.165 825.578 245.285 806.608 223.561 775.595C207.536 752.715 196.59 723.634 190.963 689.021C178.283 684.557 166.972 676.893 158.126 666.772C152.538 660.387 147.87 653.251 144.259 645.572C139.915 647.625 135.388 649.265 130.738 650.473C127.283 660.063 121.624 668.707 114.216 675.71C106.808 682.712 97.8583 687.876 88.0888 690.785C84.9615 691.705 81.6424 691.752 78.4903 690.922C75.3382 690.092 72.4728 688.416 70.2039 686.076C63.1144 678.714 57.8582 669.786 54.8609 660.015C51.8635 650.244 51.2092 639.905 52.951 629.834C34.4699 612.771 30.9764 590.952 32.5741 574.987C22.6242 565.949 14.5954 555 8.96608 542.794C-1.276 520.533 -7.51185 484.43 17.5985 435.759C15.9344 433.241 14.4445 430.611 13.1392 427.89C8.3826 417.834 6.28603 406.726 7.05009 395.628C7.81415 384.53 11.4133 373.814 17.5031 364.506C19.1311 362.034 21.3471 360.004 23.9525 358.6C26.5579 357.195 29.4711 356.459 32.431 356.457C33.0203 356.455 33.6092 356.483 34.1957 356.541C48.3886 357.98 61.713 364.051 72.1116 373.818C80.7036 364.566 92.1863 358.511 104.674 356.648C105.534 356.52 106.403 356.456 107.273 356.457C110.101 356.454 112.89 357.121 115.41 358.404C117.931 359.687 120.111 361.549 121.772 363.838C123.578 366.324 125.174 368.956 126.541 371.707C142.685 344.796 170.443 309.062 209.801 294.802C216.001 280.006 224.109 267.51 233.946 257.59C234.995 256.541 236.104 255.467 237.356 254.323C239.951 251.961 242.673 249.744 245.511 247.682L246.942 246.656C248.6 245.464 250.305 244.403 252.033 243.365C254.418 241.958 256.731 240.659 259.068 239.526L259.366 239.371C262.109 238.048 264.934 236.855 267.987 235.734C269.787 235.079 271.564 234.471 273.412 233.922C274.986 233.457 276.56 233.028 278.11 232.646C278.61 232.527 279.111 232.396 279.624 232.289C281.305 231.895 282.986 231.549 284.655 231.263C287.04 230.846 289.353 230.5 291.666 230.25C294.433 229.952 297.235 229.749 300.013 229.654H300.168C301.455 229.654 302.707 229.594 303.935 229.594C308.037 229.594 311.912 229.809 315.465 230.154C316.836 208.754 320.526 187.565 326.47 166.961C326.959 165.28 327.484 163.599 328.02 161.906C331.061 152.254 334.745 142.818 339.049 133.66C339.455 132.801 339.872 131.943 340.242 131.084C343.353 124.72 346.816 118.535 350.615 112.555C343.546 101.977 339.751 89.5499 339.702 76.8269C339.653 64.104 343.353 51.6485 350.341 41.0159C351.969 38.5439 354.185 36.5145 356.79 35.1099C359.395 33.7052 362.309 32.9692 365.269 32.9677C365.858 32.9657 366.447 32.9936 367.033 33.0511C374.645 33.7934 382.067 35.8678 388.96 39.1797C391.774 31.0421 396.173 23.5432 401.903 17.1169C407.634 10.6906 414.582 5.46438 422.345 1.74069C425.291 0.341105 428.563 -0.226518 431.807 0.099219C435.052 0.424956 438.146 1.63165 440.755 3.5888C453.164 12.8176 461.83 26.2119 465.162 41.314C473.597 40.2998 482.086 39.7981 490.582 39.8116H492.025C499.429 39.8116 507.131 40.2647 514.941 41.004C575.094 46.8225 618.745 66.1859 644.666 98.5456C645.477 99.559 646.252 100.573 647.051 101.574C648.553 103.577 649.984 105.64 651.319 107.691C651.975 108.692 652.607 109.718 653.227 110.743C654.419 112.734 655.612 114.785 656.649 116.836C658.175 119.757 659.57 122.797 660.834 125.826C661.621 127.746 662.36 129.701 663.04 131.656C663.457 132.849 663.827 134.041 664.232 135.162C664.673 136.581 665.091 138.023 665.425 139.466C665.758 140.909 666.092 142.065 666.39 143.329C666.939 145.714 667.404 148.099 667.773 150.4C668.143 152.701 668.417 154.728 668.632 156.898C684.239 157.9 707.108 162.645 723.479 180.232C732.22 189.761 738.115 201.55 740.493 214.261C743.871 213.633 747.3 213.318 750.735 213.319C755.064 213.32 759.378 213.828 763.589 214.833C766.76 215.588 769.665 217.196 771.99 219.482C774.314 221.768 775.969 224.647 776.776 227.806C779.141 237.057 779.075 246.762 776.585 255.98C785.772 260.185 794.04 266.16 800.914 273.565C807.789 280.969 813.135 289.657 816.647 299.13C818.106 302.926 819.301 306.819 820.224 310.779C821.989 310.572 823.765 310.468 825.542 310.469C836.046 310.469 855.35 314.428 867.011 340.993C876.907 363.647 876.406 383.511 873.569 397.581C887.09 403.328 903.305 415.132 911.962 439.312C918.591 457.877 912.987 473.997 904.533 485.705C911.027 492.508 915.929 500.669 918.884 509.597C921.839 518.526 922.773 527.999 921.619 537.333C929.523 542.084 936.307 548.485 941.509 556.099C946.711 563.713 950.208 572.36 951.761 581.449C952.327 584.66 952.004 587.965 950.827 591.006C949.65 594.047 947.664 596.708 945.084 598.702C933.749 607.439 919.847 612.192 905.535 612.223C901.89 612.225 898.252 611.914 894.661 611.293C897.461 627.511 894.01 644.186 885.003 657.961C883.374 660.434 881.156 662.465 878.549 663.869C875.941 665.274 873.025 666.009 870.063 666.009C869.474 666.01 868.885 665.983 868.299 665.925C853.122 664.399 838.969 657.578 828.32 646.657C822.291 648.42 816.119 649.649 809.875 650.33C802.566 664.042 786.124 684.526 751.284 692.061C735.092 712.331 711.687 725.16 681.485 730.49C681.116 736.451 680.591 742.413 679.935 747.993C673.532 802.84 653.704 844.989 621.118 873.342C595.22 895.829 562.777 908.492 524.539 911.091C518.47 939.23 514.023 972.198 511.579 1007.35C511.257 1012.03 510.959 1016.78 510.708 1021.45C510.589 1023.84 510.474 1026.17 510.363 1028.46C510.16 1033.05 509.981 1037.72 509.838 1042.32C509.766 1044.62 509.707 1046.9 509.647 1049.17C509.504 1055.82 509.421 1062.58 509.409 1069.24C509.409 1079.97 509.611 1090.52 509.993 1100.6C510.148 1104.57 510.327 1108.47 510.542 1112.19C510.678 1114.62 510.316 1117.05 509.479 1119.34C508.641 1121.63 507.345 1123.72 505.671 1125.49C503.996 1127.26 501.978 1128.66 499.74 1129.62C497.502 1130.59 495.092 1131.08 492.657 1131.08L492.144 1131.11ZM541.47 752.202C542.234 775.381 542.078 796.187 541.005 815.097C548.3 812.686 555.052 808.87 560.881 803.865C571.839 794.327 579.816 779.411 584.728 759.487C570.608 758.606 556.795 754.986 544.058 748.828C543.199 749.937 542.353 751.057 541.47 752.202ZM289.806 705.308C292.126 711.503 295.185 717.396 298.916 722.859C306.249 733.292 315.465 739.158 327.949 741.304C338.871 743.176 349.59 744.965 360.034 746.658C345.726 740.565 329.94 728.642 315.143 706.369C314.046 706.369 312.89 706.369 311.674 706.369C305.795 706.405 298.331 706.154 289.806 705.308Z" fill="#231F20"/>
<path d="M324.789 687.984C324.789 687.984 214.297 699.823 172.041 611.675C126.553 516.766 225.409 468.667 225.409 468.667C225.409 468.667 173.161 436.808 206.773 387.649C240.385 338.489 271.695 349.495 271.695 349.495C271.695 349.495 304.424 252.094 360.261 245.834C416.098 239.574 452.237 265.4 449.101 300.967C449.101 300.967 494.863 196.376 606.261 279.147C717.66 361.919 634.186 429.464 634.186 429.464C634.186 429.464 811.294 529.381 701.719 672.495C613.213 788.067 537.81 724.218 537.81 724.218C537.81 724.218 499.501 813.846 419.77 724.707C419.758 724.695 368.19 763.148 324.789 687.984Z" fill="#124C2D"/>
<path d="M751.427 572.769C747.225 554.941 741.282 537.569 733.685 520.903L702.16 535.986C708.741 550.599 713.9 565.812 717.565 581.413C722.573 602.982 725.983 633.005 713.833 653.537C704.938 668.584 688.425 677.169 663.505 679.768C661.061 637.822 652.989 589.724 639.337 535.962L584.871 549.733C604.664 627.699 611.889 691.465 606.333 739.313C602.172 775.226 590.833 801.504 572.614 817.398C557.972 830.18 539.611 835.712 521.237 837.262C525.434 798.762 524.897 749.889 519.639 689.259C514.584 631.014 501.289 550.46 500.967 548.481L365.007 570.635C365.078 571.064 377.788 647.981 382.391 701.099C384.775 728.093 385.825 750.437 386.135 768.847C368.25 766.14 347.849 762.885 324.885 758.927C307.644 755.97 294.349 747.528 284.238 733.125C268.941 711.317 260.726 675.893 260.499 630.764C260.399 608.577 262.093 586.419 265.567 564.506L237.917 559.522L210.267 554.526C206.221 579.455 204.227 604.674 204.305 629.929C204.305 635.811 204.436 641.558 204.698 647.17C199.431 645.145 194.734 641.872 191.011 637.631C166.938 610.458 176.023 544.105 181.555 520.783L168.893 517.767L156.266 514.846C152.456 532.056 150.154 549.566 149.387 567.177C147.717 606.905 155.169 636.427 171.516 654.92C180.727 665.414 193.246 672.448 207 674.856C211.578 711.877 222.011 742.198 238.215 765.329C257.089 792.3 283.07 808.79 315.418 814.334C341.446 818.805 364.22 822.442 383.953 825.387C383.308 831.227 382.296 837.022 380.924 842.735C359.88 925.936 337.822 1021.94 342.65 1108.41L492.609 1113.18C489.163 1051.3 493.026 962.683 510.148 893.683C543.176 893.588 579.553 885.706 609.35 859.821C638.502 834.496 656.268 796.163 662.134 745.906C663.287 736.018 663.982 725.613 664.221 714.691C702.029 711.424 728.845 696.806 743.951 671.207C758.474 646.621 761.013 613.487 751.427 572.769Z" fill="#A86145"/>
<path d="M733.685 520.903L702.16 535.986C708.741 550.599 713.899 565.812 717.565 581.413C722.573 602.983 725.983 633.005 713.833 653.537C704.938 668.584 688.424 677.169 663.505 679.768C661.061 637.822 652.989 589.724 639.337 535.962L584.871 549.733C604.664 627.699 611.889 691.465 606.333 739.313C602.172 775.226 590.833 801.505 572.614 817.398C557.972 830.18 539.61 835.712 521.237 837.262C525.434 798.762 524.897 749.889 519.639 689.259C514.584 631.014 501.289 550.461 500.967 548.481L447.277 553.441L456.088 596.198C456.088 596.198 457.364 778.207 428.808 836.452C403.411 888.246 399.977 1023.93 386.456 1110.44L492.585 1113.23C489.139 1051.34 493.003 962.731 510.124 893.731C543.152 893.636 579.529 885.754 609.326 859.869C638.478 834.544 656.244 796.211 662.11 745.954C663.263 736.066 663.958 725.661 664.196 714.739C702.005 711.472 728.82 696.854 743.927 671.255C758.474 646.622 760.989 613.487 751.403 572.769C747.208 554.942 741.274 537.57 733.685 520.903Z" fill="#79412D"/>
<path d="M416.706 1110.81L417.278 1111.25L492.585 1113.23C489.139 1051.34 493.002 962.731 510.124 893.731C543.152 893.636 579.529 885.754 609.326 859.869C638.478 834.544 656.244 796.211 662.11 745.954C663.262 736.066 663.958 725.661 664.196 714.739C702.005 711.472 728.82 696.854 743.927 671.255C758.474 646.622 760.989 613.487 751.403 572.769C747.201 554.941 741.258 537.569 733.661 520.903L702.136 535.986C708.717 550.599 713.875 565.812 717.541 581.413C722.549 602.983 725.959 633.005 713.809 653.537C704.914 668.584 688.401 677.169 663.481 679.768C661.037 637.822 652.965 589.724 639.313 535.962L584.871 549.733C604.664 627.699 611.889 691.465 606.333 739.313C602.172 775.226 590.833 801.505 572.614 817.398C557.972 830.18 539.61 835.712 521.237 837.262C525.434 798.762 524.897 749.889 519.639 689.259C514.584 631.014 501.289 550.461 500.967 548.481C510.804 994.888 416.706 1110.81 416.706 1110.81Z" fill="#502314"/>
<path d="M804.653 335.58C804.653 335.58 835.128 312.83 850.593 348.183C866.057 383.535 850.593 410.029 850.593 410.029C850.593 410.029 882.786 410.994 895.079 445.381C904.116 470.658 877.42 487.351 877.42 487.351C877.42 487.351 921.787 508.407 896.128 559.725C870.469 611.043 835.426 633.148 797.725 633.148C797.725 633.148 787.388 677.157 722.609 677.098C689.224 677.098 679.399 648.601 679.399 648.601C679.399 648.601 582.344 659.535 566.021 603.185C557.221 572.805 574.367 545.954 574.367 545.954C574.367 545.954 507.454 528.128 507.454 470.694C507.454 413.26 550.067 379.529 578.79 387.064C578.79 387.064 596.747 268.118 722.549 264.255C811.485 261.513 804.653 335.58 804.653 335.58Z" fill="#63B446"/>
<path d="M256.088 764.197C235.818 734.699 234.507 640.994 237.726 559.486L210.302 554.526C206.256 579.455 204.262 604.674 204.341 629.929C204.341 635.811 204.472 641.558 204.734 647.17C199.467 645.145 194.77 641.872 191.046 637.631C166.973 610.458 176.059 544.105 181.591 520.783L168.929 517.767L156.266 514.846C152.456 532.056 150.154 549.566 149.387 567.177C147.717 606.905 155.169 636.427 171.516 654.92C180.727 665.414 193.246 672.448 207 674.856C211.578 711.877 222.011 742.198 238.215 765.329C257.089 792.3 283.07 808.79 315.418 814.334C341.446 818.805 364.22 822.442 383.953 825.387C359.963 820.665 283.678 804.402 256.088 764.197Z" fill="#79412D"/>
<path d="M383.953 825.351C383.726 827.247 383.487 829 383.249 830.621C386.182 827.736 386.647 825.876 383.953 825.351Z" fill="#79412D"/>
<path d="M126.339 411.352C126.339 411.352 183.833 265.889 289.58 317.492C395.327 369.096 379.004 437.452 379.004 437.452C379.004 437.452 410.005 433.422 407.358 469.526C404.711 505.629 379.684 499.405 379.684 499.405C379.684 499.405 411.269 592.8 324.467 608.587C245.774 622.895 237.535 578.361 237.535 578.361C237.535 578.361 210.231 634.889 181.412 579.78C181.412 579.78 151.854 649.638 93.9432 632.064C36.0319 614.489 52.2833 567.678 52.2833 567.678C52.2833 567.678 -20.4485 522.894 45.6182 423.502C73.4352 381.651 126.339 411.352 126.339 411.352Z" fill="#63B446"/>
<path d="M873.187 602.327C869.725 595.058 864.441 588.808 857.85 584.184C851.258 579.561 843.583 576.721 835.569 575.94L870.028 648.16C874.46 641.44 877.081 633.689 877.634 625.659C878.188 617.628 876.656 609.591 873.187 602.327Z" fill="#9FCC3B"/>
<path d="M870.028 648.16L835.569 575.94C831.139 582.662 828.521 590.413 827.968 598.444C827.415 606.475 828.945 614.512 832.412 621.777C835.878 629.042 841.163 635.289 847.753 639.911C854.344 644.533 862.016 647.375 870.028 648.16Z" fill="#63B446"/>
<path d="M70.049 400.752C66.5867 393.483 61.3031 387.234 54.7115 382.61C48.12 377.987 40.4446 375.147 32.4312 374.366L66.9251 446.585C71.3523 439.863 73.9664 432.11 74.5137 424.08C75.0611 416.049 73.5231 408.013 70.049 400.752Z" fill="#9FCC3B"/>
<path d="M66.9253 446.585L32.4671 374.366C28.0372 381.087 25.4188 388.839 24.8656 396.87C24.3124 404.9 25.8432 412.938 29.3096 420.203C32.7761 427.468 38.0606 433.714 44.6509 438.337C51.2413 442.959 58.914 445.8 66.9253 446.585Z" fill="#63B446"/>
<path d="M111.542 410.994C114.046 405.038 114.967 398.535 114.217 392.118C113.467 385.7 111.071 379.585 107.262 374.366L82.4255 433.577C88.8121 432.637 94.848 430.065 99.9489 426.109C105.05 422.153 109.043 416.946 111.542 410.994Z" fill="#9FCC3B"/>
<path d="M82.4254 433.577L107.297 374.366C100.904 375.3 94.8603 377.869 89.7523 381.826C84.6443 385.783 80.6453 390.992 78.1431 396.949C75.6408 402.906 74.7202 409.408 75.4705 415.826C76.2208 422.243 78.6165 428.358 82.4254 433.577Z" fill="#63B446"/>
<path d="M596.317 655.183C598.822 649.232 599.747 642.736 599.003 636.323C598.26 629.91 595.872 623.798 592.073 618.578L567.201 677.789C573.591 676.85 579.63 674.276 584.732 670.315C589.834 666.354 593.825 661.141 596.317 655.183Z" fill="#9FCC3B"/>
<path d="M567.201 677.765L592.073 618.578C585.681 619.515 579.64 622.086 574.534 626.044C569.428 630.001 565.431 635.209 562.929 641.165C560.427 647.121 559.506 653.622 560.254 660.038C561.003 666.455 563.396 672.569 567.201 677.789V677.765Z" fill="#63B446"/>
<path d="M749.829 267.856C754.362 263.254 757.628 257.559 759.312 251.324C760.996 245.088 761.04 238.523 759.439 232.265L714.358 278.027C720.645 279.533 727.216 279.389 733.431 277.606C739.646 275.824 745.295 272.466 749.829 267.856Z" fill="#9FCC3B"/>
<path d="M714.358 278.026L759.439 232.265C753.155 230.759 746.588 230.903 740.375 232.682C734.163 234.461 728.515 237.815 723.98 242.419C719.445 247.022 716.176 252.72 714.49 258.958C712.804 265.197 712.758 271.765 714.358 278.026Z" fill="#63B446"/>
<path d="M115.071 640.648C117.122 632.862 117.126 624.679 115.083 616.891C113.04 609.103 109.019 601.975 103.41 596.198L83.0334 673.592C90.7594 671.326 97.7687 667.103 103.382 661.331C108.995 655.559 113.022 648.434 115.071 640.648Z" fill="#9FCC3B"/>
<path d="M83.0336 673.592L103.41 596.198C95.686 598.466 88.6783 602.691 83.0663 608.463C77.4544 614.235 73.4285 621.359 71.3787 629.144C69.329 636.929 69.3249 645.112 71.3668 652.899C73.4087 660.687 77.4275 667.814 83.0336 673.592Z" fill="#63B446"/>
<path d="M904.951 549.077C897.446 546.167 889.315 545.246 881.349 546.406C873.383 547.565 865.852 550.765 859.488 555.695L934.115 584.585C932.728 576.654 929.313 569.217 924.203 562.995C919.093 556.774 912.461 551.979 904.951 549.077Z" fill="#9FCC3B"/>
<path d="M934.115 584.585L859.488 555.695C860.873 563.627 864.286 571.066 869.394 577.29C874.502 583.514 881.132 588.313 888.641 591.22C896.15 594.127 904.283 595.043 912.25 593.881C920.218 592.718 927.75 589.516 934.115 584.585Z" fill="#63B446"/>
<path d="M381.508 712.176C377.001 710.864 351.128 727.807 338.513 672.209C325.159 613.32 389.556 622.346 389.556 622.346C389.556 622.346 454.538 624.921 430.918 680.496C408.622 732.958 386.17 711.687 381.508 712.176Z" fill="#D91F26"/>
<path d="M381.496 708.67C377.347 707.478 353.536 723.05 341.935 671.887C329.642 617.696 388.853 626.006 388.853 626.006C388.853 626.006 448.648 628.391 426.912 679.518C406.44 727.783 385.789 708.217 381.496 708.67Z" fill="#F1594B"/>
<path d="M412.449 699.656C396.749 698.249 382.25 690.662 372.144 678.565C362.037 666.468 357.149 650.852 358.556 635.151C358.872 631.65 359.495 628.183 360.416 624.79C345.429 629.559 331.621 641.888 338.513 672.268C351.128 727.867 377.001 710.924 381.508 712.235C385.455 711.83 402.159 727.008 420.724 699.823C417.965 699.963 415.2 699.908 412.449 699.656Z" fill="#D91F26"/>
<path d="M423.043 653.169C425.787 650.382 424.797 644.958 420.832 641.054C416.866 637.151 411.427 636.246 408.683 639.033C405.939 641.821 406.929 647.245 410.895 651.149C414.86 655.052 420.299 655.957 423.043 653.169Z" fill="#F6FAFE"/>
<path d="M423.585 665.794C425.62 665.794 427.27 664.145 427.27 662.11C427.27 660.075 425.62 658.426 423.585 658.426C421.551 658.426 419.901 660.075 419.901 662.11C419.901 664.145 421.551 665.794 423.585 665.794Z" fill="#F6FAFE"/>
<path d="M402.958 632.362C402.827 633.876 397.998 636.284 391.762 636.547C390.605 636.596 389.446 636.568 388.293 636.463C387.328 636.376 386.369 636.237 385.419 636.046C379.04 634.746 374.462 631.384 374.593 629.822C374.724 628.26 380.006 627.318 386.766 627.676C387.518 627.676 388.293 627.759 389.068 627.831C390.439 627.962 391.762 628.117 393.014 628.32C398.88 629.238 403.089 630.871 402.958 632.362Z" fill="#D91F26"/>
<path d="M401.563 633.947C399.453 632.612 394.564 631.384 388.793 630.859C383.022 630.334 378.003 630.692 375.678 631.622C377.74 633.566 382.534 635.95 388.293 636.463C394.051 636.976 399.19 635.485 401.563 633.947Z" fill="#951B1E"/>
<path d="M398.69 592.049C395.655 594.584 393.326 597.86 391.931 601.56C390.535 605.26 390.12 609.257 390.725 613.165L420.891 587.959C417.151 586.674 413.143 586.375 409.254 587.091C405.364 587.808 401.726 589.515 398.69 592.049Z" fill="#9FCC3B"/>
<path d="M420.891 587.959L390.725 613.165C394.464 614.455 398.472 614.756 402.362 614.04C406.251 613.325 409.89 611.616 412.925 609.08C415.96 606.544 418.288 603.267 419.684 599.567C421.079 595.866 421.495 591.868 420.891 587.959Z" fill="#63B446"/>
<path d="M391.762 636.547C390.605 636.595 389.446 636.567 388.293 636.463C387.328 636.376 386.369 636.237 385.419 636.046C386.161 633.319 386.612 630.521 386.766 627.7C387.16 619.771 384.918 613.284 380.101 608.396L384.573 603.996C390.63 610.148 393.539 618.53 393.014 628.236V628.343C392.843 631.11 392.424 633.855 391.762 636.547Z" fill="#63B446"/>
<path d="M352.594 628.117C341.148 634.543 332.861 647.301 338.513 672.233C351.128 727.831 377.001 710.888 381.508 712.199C321.868 668.024 352.594 628.117 352.594 628.117Z" fill="#951B1E"/>
<path d="M416.813 682.725C413.63 692.264 401.158 711.067 392.967 706.488C392.967 706.488 384.966 702.554 390.868 697.618C394.791 694.339 398.022 684.275 399.787 677.908C400.195 676.391 401.137 675.073 402.441 674.196C403.745 673.32 405.322 672.944 406.881 673.139L411.102 673.676C412.12 673.797 413.098 674.145 413.965 674.692C414.831 675.24 415.565 675.974 416.112 676.841C416.659 677.708 417.006 678.686 417.128 679.704C417.249 680.722 417.141 681.754 416.813 682.725Z" fill="#F16465"/>
<path d="M401.837 652.154C379.255 653.179 368.452 647.73 363.361 642.937C362.727 642.343 362.261 641.592 362.01 640.76C361.758 639.929 361.73 639.045 361.928 638.199C362.127 637.353 362.544 636.575 363.139 635.941C363.734 635.308 364.485 634.842 365.316 634.591H365.495C366.394 634.331 367.343 634.304 368.255 634.513C369.166 634.721 370.01 635.159 370.706 635.783C373.865 638.597 381.961 642.878 401.492 641.96C402.181 641.928 402.869 642.034 403.517 642.274C404.164 642.513 404.756 642.88 405.259 643.352C405.762 643.825 406.164 644.394 406.443 645.025C406.722 645.656 406.87 646.337 406.881 647.027C406.851 648.363 406.313 649.638 405.376 650.591C404.439 651.543 403.173 652.103 401.837 652.154Z" fill="#F16465"/>
<path d="M736.916 383.166C736.916 383.166 809.028 474.307 753.466 559.88C693.671 652.059 595.519 591.155 595.519 591.155C595.519 591.155 596.019 654.765 533.22 651.963C470.42 649.161 462.872 615.573 462.872 615.573C462.872 615.573 357.304 640.04 320.604 594.112C283.905 548.183 286.969 502.172 320.604 485.455C320.604 485.455 201.372 502.362 213.569 358.628C225.767 214.893 332.802 251.592 332.802 251.592C332.802 251.592 323.895 40.4914 513.236 58.8293C666.14 73.6857 650.854 175.212 650.854 175.212C650.854 175.212 752.548 159.927 716.993 279.195C716.993 279.195 780.174 303.661 736.916 383.166Z" fill="#1C6A43"/>
<path d="M650.854 282.867C650.854 282.867 680.448 278.778 686.624 237.165C692.8 195.553 650.854 175.165 650.854 175.165C650.854 175.165 666.14 73.6858 513.236 58.8294C323.895 40.4915 332.814 251.664 332.814 251.664C332.814 251.664 225.767 214.964 213.581 358.651C201.396 502.339 320.616 485.479 320.616 485.479C337.309 527.89 360.142 555.647 407.537 541.161C464.768 523.645 453.191 457.626 453.191 457.626C453.191 457.626 472.471 497.152 507.597 489.819C542.722 482.486 528.641 433.541 528.641 433.541C528.641 433.541 603.471 491 669.049 433.577C734.627 376.155 650.854 282.867 650.854 282.867Z" fill="#63B446"/>
<path d="M374.295 553C376.8 547.044 377.722 540.541 376.972 534.123C376.222 527.705 373.825 521.59 370.014 516.372L345.142 575.583C351.537 574.652 357.581 572.084 362.69 568.127C367.798 564.17 371.796 558.959 374.295 553Z" fill="#9FCC3B"/>
<path d="M345.142 575.523L370.014 516.312C363.621 517.246 357.577 519.816 352.469 523.772C347.361 527.729 343.362 532.938 340.86 538.895C338.358 544.852 337.437 551.355 338.187 557.772C338.938 564.19 341.333 570.304 345.142 575.523Z" fill="#63B446"/>
<path d="M402.922 77.2626C399.46 69.9937 394.176 63.7439 387.585 59.1204C380.993 54.4969 373.318 51.657 365.304 50.8765L399.763 123.096C404.196 116.376 406.816 108.625 407.369 100.595C407.923 92.5639 406.391 84.5266 402.922 77.2626Z" fill="#9FCC3B"/>
<path d="M399.763 123.06L365.305 50.8408C360.875 57.562 358.256 65.3136 357.703 73.3443C357.15 81.375 358.681 89.4124 362.147 96.6775C365.613 103.943 370.898 110.189 377.488 114.811C384.079 119.434 391.751 122.275 399.763 123.06Z" fill="#63B446"/>
<path d="M649.722 460.905C646.26 453.636 640.976 447.386 634.384 442.763C627.793 438.139 620.117 435.3 612.104 434.519L646.562 506.738C650.995 500.019 653.615 492.268 654.169 484.237C654.723 476.207 653.191 468.169 649.722 460.905Z" fill="#9FCC3B"/>
<path d="M646.562 506.738L612.104 434.519C607.674 441.24 605.056 448.992 604.502 457.023C603.949 465.053 605.48 473.091 608.946 480.356C612.413 487.621 617.697 493.867 624.288 498.489C630.878 503.112 638.551 505.953 646.562 506.738Z" fill="#63B446"/>
<path d="M448.541 59.95C449.347 51.9402 448.069 43.8579 444.831 36.4876C441.593 29.1172 436.504 22.709 430.06 17.8848L422.083 97.5321C429.36 94.0823 435.622 88.8084 440.258 82.2229C444.894 75.6375 447.747 67.9645 448.541 59.95Z" fill="#9FCC3B"/>
<path d="M422.083 97.5322L430.06 17.9087C422.786 21.3591 416.528 26.6301 411.891 33.2107C407.254 39.7913 404.395 47.4583 403.593 55.4685C402.79 63.4787 404.071 71.5604 407.311 78.9301C410.55 86.2998 415.639 92.7075 422.083 97.5322Z" fill="#63B446"/>
<path d="M546.848 244.486C585.061 244.486 616.038 213.509 616.038 175.296C616.038 137.083 585.061 106.105 546.848 106.105C508.635 106.105 477.657 137.083 477.657 175.296C477.657 213.509 508.635 244.486 546.848 244.486Z" fill="#9FCC3B"/>
<path d="M470.968 266.031C500.93 266.031 525.219 241.742 525.219 211.781C525.219 181.819 500.93 157.53 470.968 157.53C441.006 157.53 416.718 181.819 416.718 211.781C416.718 241.742 441.006 266.031 470.968 266.031Z" fill="#9FCC3B"/>
<path d="M343.521 389.712C376.571 389.712 403.364 365.423 403.364 335.461C403.364 305.499 376.571 281.21 343.521 281.21C310.47 281.21 283.678 305.499 283.678 335.461C283.678 365.423 310.47 389.712 343.521 389.712Z" fill="#9FCC3B"/>
<path d="M299.667 414.476C323.735 414.476 343.247 396.785 343.247 374.962C343.247 353.14 323.735 335.449 299.667 335.449C275.599 335.449 256.088 353.14 256.088 374.962C256.088 396.785 275.599 414.476 299.667 414.476Z" fill="#9FCC3B"/>
<path d="M134.792 546.252C158.861 546.252 178.372 528.561 178.372 506.738C178.372 484.915 158.861 467.225 134.792 467.225C110.724 467.225 91.2129 484.915 91.2129 506.738C91.2129 528.561 110.724 546.252 134.792 546.252Z" fill="#9FCC3B"/>
<path d="M836.51 495.377C856.931 491.048 869.601 469.219 864.81 446.621C860.019 424.023 839.581 409.213 819.16 413.542C798.74 417.872 786.069 439.701 790.86 462.299C795.651 484.897 816.089 499.706 836.51 495.377Z" fill="#9FCC3B"/>
<path d="M596.902 357.053C620.002 357.053 638.728 340.073 638.728 319.126C638.728 298.179 620.002 281.198 596.902 281.198C573.801 281.198 555.075 298.179 555.075 319.126C555.075 340.073 573.801 357.053 596.902 357.053Z" fill="#9FCC3B"/>
<path d="M329.964 429.714C325.457 428.402 299.584 445.345 286.969 389.747C273.615 330.858 338.012 339.884 338.012 339.884C338.012 339.884 402.994 342.459 379.374 398.034C357.078 450.46 334.626 429.225 329.964 429.714Z" fill="#D91F26"/>
<path d="M329.94 426.209C325.803 425.016 301.992 440.517 290.391 389.425C278.098 335.234 337.356 343.533 337.356 343.533C337.356 343.533 397.151 345.918 375.415 397.044C354.896 445.322 334.232 425.756 329.94 426.209Z" fill="#F1594B"/>
<path d="M360.905 417.135C352.251 416.347 343.874 413.674 336.364 409.303C328.853 404.932 322.391 398.969 317.431 391.834C312.47 384.699 309.133 376.564 307.652 368.001C306.171 359.439 306.584 350.655 308.86 342.269C293.884 347.038 280.077 359.367 286.969 389.747C299.584 445.346 325.457 428.403 329.964 429.714C333.911 429.297 350.615 444.487 369.18 417.302C366.421 417.437 363.656 417.381 360.905 417.135Z" fill="#D91F26"/>
<path d="M371.501 370.71C374.245 367.922 373.255 362.498 369.29 358.595C365.324 354.691 359.885 353.786 357.141 356.574C354.397 359.361 355.387 364.786 359.353 368.689C363.318 372.593 368.757 373.497 371.501 370.71Z" fill="#F6FAFE"/>
<path d="M372.041 383.332C374.076 383.332 375.725 381.683 375.725 379.648C375.725 377.613 374.076 375.964 372.041 375.964C370.006 375.964 368.357 377.613 368.357 379.648C368.357 381.683 370.006 383.332 372.041 383.332Z" fill="#F6FAFE"/>
<path d="M351.414 349.9C351.271 351.414 346.454 353.822 340.218 354.085C339.061 354.133 337.902 354.106 336.748 354.001C335.759 353.906 334.793 353.763 333.875 353.584C327.496 352.284 322.906 348.922 323.049 347.348C323.192 345.774 328.462 344.856 335.222 345.214C335.973 345.214 336.737 345.297 337.524 345.369C338.895 345.5 340.218 345.655 341.458 345.858C347.336 346.728 351.545 348.409 351.414 349.9Z" fill="#D91F26"/>
<path d="M350.019 351.498C347.908 350.162 343.02 348.922 337.249 348.409C331.478 347.897 326.459 348.242 324.134 349.172C326.196 351.116 330.989 353.501 336.748 354.013C342.507 354.526 347.646 353.024 350.019 351.498Z" fill="#951B1E"/>
<path d="M347.122 309.587C344.087 312.122 341.759 315.398 340.363 319.098C338.968 322.798 338.552 326.796 339.157 330.703L369.323 305.498C365.583 304.209 361.574 303.908 357.685 304.624C353.795 305.341 350.156 307.051 347.122 309.587Z" fill="#9FCC3B"/>
<path d="M369.347 305.498L339.181 330.703C342.919 331.989 346.927 332.288 350.815 331.571C354.703 330.854 358.34 329.145 361.374 326.61C364.408 324.075 366.736 320.799 368.132 317.101C369.529 313.402 369.947 309.405 369.347 305.498Z" fill="#63B446"/>
<path d="M340.218 354.085C339.061 354.133 337.902 354.106 336.748 354.001C335.759 353.906 334.793 353.763 333.875 353.584C334.617 350.857 335.068 348.059 335.222 345.238C335.616 337.309 333.374 330.81 328.557 325.922L333.028 321.534C339.073 327.687 341.995 336.069 341.47 345.774C341.47 345.774 341.47 345.846 341.47 345.881C341.305 348.648 340.885 351.394 340.218 354.085Z" fill="#63B446"/>
<path d="M301.05 345.619C289.604 352.046 281.305 364.804 286.969 389.735C299.584 445.333 325.457 428.39 329.964 429.702C270.312 385.562 301.05 345.619 301.05 345.619Z" fill="#951B1E"/>
<path d="M365.269 400.264C362.085 409.802 349.602 428.605 341.422 424.015C341.422 424.015 333.41 420.092 339.312 415.156C343.247 411.877 346.466 401.814 348.242 395.447C348.65 393.929 349.593 392.611 350.897 391.734C352.201 390.858 353.778 390.482 355.337 390.677L359.558 391.214C360.575 391.338 361.551 391.686 362.417 392.234C363.283 392.782 364.015 393.516 364.562 394.382C365.109 395.249 365.456 396.226 365.578 397.243C365.701 398.261 365.595 399.292 365.269 400.264Z" fill="#F16465"/>
<path d="M350.293 369.68C327.71 370.718 316.908 365.269 311.817 360.476C311.183 359.881 310.717 359.13 310.465 358.299C310.214 357.467 310.186 356.584 310.384 355.738C310.582 354.892 311 354.113 311.595 353.479C312.189 352.846 312.94 352.38 313.772 352.129H313.951C314.849 351.866 315.8 351.837 316.712 352.046C317.624 352.255 318.467 352.694 319.162 353.322C322.321 356.124 330.405 360.416 349.947 359.498C350.635 359.468 351.321 359.575 351.966 359.814C352.611 360.054 353.202 360.42 353.703 360.891C354.204 361.362 354.606 361.929 354.884 362.558C355.163 363.187 355.313 363.866 355.325 364.553C355.301 365.889 354.766 367.166 353.83 368.119C352.894 369.073 351.629 369.632 350.293 369.68Z" fill="#F16465"/>
<path d="M127.901 577.121C123.394 575.798 97.5203 592.741 84.9055 537.143C71.5395 478.254 135.949 487.28 135.949 487.28C135.949 487.28 200.931 489.855 177.311 545.429C155.014 597.892 132.563 576.62 127.901 577.121Z" fill="#D91F26"/>
<path d="M127.877 573.604C123.739 572.411 99.9286 587.983 88.3154 536.82C76.0344 482.653 135.293 490.999 135.293 490.999C135.293 490.999 195.088 493.384 173.352 544.511C152.832 592.717 132.169 573.151 127.877 573.604Z" fill="#F1594B"/>
<path d="M158.842 564.53C150.188 563.742 141.811 561.069 134.3 556.698C126.79 552.327 120.328 546.364 115.367 539.229C110.407 532.094 107.07 523.959 105.589 515.396C104.108 506.834 104.52 498.051 106.797 489.664C91.821 494.433 78.0138 506.762 84.9055 537.142C97.5203 592.741 123.394 575.798 127.901 577.121C131.847 576.704 148.54 591.882 167.104 564.697C164.35 564.837 161.588 564.782 158.842 564.53Z" fill="#D91F26"/>
<path d="M169.423 518.098C172.167 515.311 171.177 509.886 167.212 505.983C163.247 502.079 157.808 501.175 155.064 503.962C152.319 506.75 153.31 512.174 157.275 516.077C161.24 519.981 166.679 520.886 169.423 518.098Z" fill="#F6FAFE"/>
<path d="M169.966 530.728C172.001 530.728 173.65 529.078 173.65 527.044C173.65 525.009 172.001 523.359 169.966 523.359C167.931 523.359 166.282 525.009 166.282 527.044C166.282 529.078 167.931 530.728 169.966 530.728Z" fill="#F6FAFE"/>
<path d="M149.351 497.295C149.208 498.821 144.391 501.218 138.143 501.48C136.99 501.529 135.834 501.501 134.685 501.396C133.716 501.314 132.752 501.175 131.8 500.979C125.421 499.679 120.842 496.317 120.985 494.755C121.128 493.193 126.398 492.251 133.159 492.609C133.91 492.609 134.673 492.692 135.46 492.764C136.831 492.895 138.155 493.05 139.395 493.253C145.273 494.171 149.482 495.769 149.351 497.295Z" fill="#D91F26"/>
<path d="M148.003 498.881C145.893 497.545 140.992 496.317 135.233 495.793C129.475 495.268 124.443 495.626 122.118 496.556C124.181 498.499 128.962 500.884 134.733 501.397C140.504 501.909 145.619 500.419 148.003 498.881Z" fill="#951B1E"/>
<path d="M145.082 456.982C142.046 459.516 139.717 462.793 138.322 466.493C136.926 470.193 136.511 474.191 137.117 478.098L167.283 452.905C163.545 451.613 159.536 451.309 155.646 452.024C151.756 452.738 148.117 454.446 145.082 456.982Z" fill="#9FCC3B"/>
<path d="M167.283 452.905L137.117 478.099C140.855 479.384 144.861 479.682 148.748 478.966C152.635 478.249 156.271 476.541 159.304 474.008C162.338 471.474 164.666 468.201 166.064 464.504C167.462 460.807 167.882 456.812 167.283 452.905Z" fill="#63B446"/>
<path d="M138.143 501.48C136.99 501.529 135.834 501.501 134.685 501.397C133.716 501.315 132.752 501.175 131.8 500.979C132.552 498.254 133.008 495.456 133.159 492.633C133.54 484.704 131.299 478.218 126.494 473.329L130.965 468.93C137.01 475.082 139.931 483.464 139.407 493.17C139.401 493.205 139.401 493.241 139.407 493.277C139.238 496.044 138.815 498.79 138.143 501.48Z" fill="#63B446"/>
<path d="M98.9869 493.015C87.5406 499.441 79.242 512.199 84.9055 537.131C97.5203 592.729 123.394 575.786 127.901 577.109C68.2487 532.958 98.9869 493.015 98.9869 493.015Z" fill="#951B1E"/>
<path d="M163.205 547.659C160.022 557.197 147.538 576 139.359 571.422C139.359 571.422 131.346 567.487 137.248 562.551C141.183 559.272 144.402 549.209 146.179 542.842C146.584 541.326 147.525 540.007 148.827 539.131C150.129 538.254 151.704 537.878 153.261 538.073L157.542 538.693C158.545 538.825 159.507 539.177 160.359 539.722C161.211 540.268 161.933 540.994 162.473 541.85C163.013 542.705 163.359 543.669 163.486 544.673C163.612 545.677 163.516 546.696 163.205 547.659Z" fill="#F16465"/>
<path d="M148.23 517.088C125.635 518.125 114.845 512.664 109.754 507.871C109.123 507.276 108.66 506.526 108.41 505.695C108.159 504.865 108.131 503.984 108.328 503.139C108.525 502.295 108.939 501.517 109.53 500.883C110.121 500.248 110.869 499.78 111.697 499.525L111.888 499.465C112.784 499.203 113.732 499.175 114.643 499.383C115.553 499.592 116.394 500.031 117.086 500.657C120.258 503.459 128.342 507.74 147.884 506.834C148.572 506.8 149.26 506.905 149.906 507.143C150.553 507.381 151.145 507.747 151.647 508.219C152.149 508.691 152.55 509.259 152.828 509.89C153.105 510.52 153.253 511.2 153.262 511.889C153.253 513.237 152.726 514.529 151.788 515.497C150.851 516.466 149.577 517.035 148.23 517.088Z" fill="#F16465"/>
<path d="M803.425 565.293C798.918 563.982 773.044 580.925 760.429 525.327C747.075 466.438 811.473 475.499 811.473 475.499C811.473 475.499 876.454 478.087 852.835 533.661C830.538 586.076 808.087 564.805 803.425 565.293Z" fill="#D91F26"/>
<path d="M803.401 561.776C799.263 560.584 775.452 576.155 763.851 525.005C751.558 470.813 810.817 479.076 810.817 479.076C810.817 479.076 870.612 481.461 848.876 532.588C828.356 580.901 807.693 561.347 803.401 561.776Z" fill="#F1594B"/>
<path d="M834.365 552.714C825.714 551.927 817.341 549.256 809.832 544.887C802.324 540.519 795.863 534.56 790.903 527.429C785.943 520.297 782.604 512.166 781.122 503.607C779.639 495.048 780.048 486.268 782.32 477.884C767.345 482.653 753.538 494.982 760.429 525.362C773.044 580.96 798.917 564.017 803.424 565.329C807.359 564.924 824.052 580.066 842.628 552.881C839.873 553.015 837.112 552.96 834.365 552.714Z" fill="#D91F26"/>
<path d="M844.98 506.312C847.724 503.525 846.734 498.101 842.768 494.197C838.803 490.294 833.364 489.389 830.62 492.176C827.876 494.964 828.866 500.388 832.831 504.292C836.796 508.195 842.235 509.1 844.98 506.312Z" fill="#F6FAFE"/>
<path d="M845.502 518.912C847.536 518.912 849.186 517.262 849.186 515.227C849.186 513.192 847.536 511.543 845.502 511.543C843.467 511.543 841.817 513.192 841.817 515.227C841.817 517.262 843.467 518.912 845.502 518.912Z" fill="#F6FAFE"/>
<path d="M824.874 485.467C824.731 486.993 819.914 489.39 813.678 489.652C812.521 489.705 811.362 489.681 810.209 489.58C809.24 489.488 808.277 489.345 807.323 489.151C800.944 487.864 796.366 484.501 796.509 482.927C796.652 481.353 801.922 480.435 808.682 480.781C809.434 480.781 810.197 480.876 810.984 480.948C812.355 481.067 813.678 481.234 814.918 481.425C820.797 482.355 825.005 483.988 824.874 485.467Z" fill="#D91F26"/>
<path d="M823.479 487.053C821.369 485.73 816.48 484.489 810.71 483.977C804.939 483.464 799.979 483.81 797.594 484.74C799.657 486.671 804.45 489.056 810.209 489.581C815.968 490.105 821.107 488.615 823.479 487.053Z" fill="#951B1E"/>
<path d="M820.606 445.166C817.571 447.701 815.243 450.978 813.847 454.677C812.452 458.377 812.036 462.375 812.641 466.283L842.807 441.077C839.068 439.788 835.059 439.487 831.169 440.204C827.279 440.92 823.64 442.63 820.606 445.166Z" fill="#9FCC3B"/>
<path d="M842.807 441.077L812.641 466.282C816.38 467.568 820.387 467.867 824.275 467.15C828.163 466.433 831.8 464.724 834.834 462.189C837.868 459.654 840.196 456.378 841.593 452.68C842.99 448.981 843.408 444.984 842.807 441.077Z" fill="#63B446"/>
<path d="M813.678 489.652C812.522 489.705 811.363 489.681 810.209 489.58C809.24 489.488 808.277 489.345 807.323 489.151C808.078 486.427 808.534 483.628 808.683 480.805C809.064 472.888 806.823 466.39 802.018 461.501L806.489 457.113C812.534 463.266 815.455 471.648 814.93 481.353C814.93 481.353 814.93 481.425 814.93 481.449C814.76 484.215 814.341 486.961 813.678 489.652Z" fill="#63B446"/>
<path d="M774.511 481.199C763.064 487.625 754.766 500.383 760.429 525.315C773.044 580.913 798.917 563.97 803.424 565.281C743.772 521.142 774.511 481.199 774.511 481.199Z" fill="#951B1E"/>
<path d="M838.729 535.843C835.546 545.381 823.062 564.184 814.883 559.594C814.883 559.594 806.87 555.671 812.772 550.735C816.707 547.456 819.926 537.393 821.703 531.026C822.108 529.51 823.049 528.191 824.351 527.315C825.652 526.438 827.228 526.062 828.785 526.257L833.018 526.793C834.035 526.917 835.012 527.265 835.877 527.813C836.743 528.361 837.476 529.095 838.023 529.962C838.569 530.828 838.916 531.805 839.039 532.823C839.161 533.84 839.055 534.872 838.729 535.843Z" fill="#F16465"/>
<path d="M823.754 505.307C801.099 506.344 790.368 500.895 785.277 496.09C784.647 495.494 784.184 494.743 783.935 493.912C783.685 493.082 783.658 492.2 783.856 491.355C784.054 490.511 784.47 489.733 785.062 489.099C785.655 488.465 786.403 487.998 787.233 487.744H787.412C788.31 487.482 789.26 487.454 790.172 487.663C791.084 487.871 791.927 488.31 792.622 488.936C795.782 491.738 803.866 496.031 823.408 495.113C824.095 495.082 824.781 495.19 825.427 495.429C826.072 495.668 826.662 496.035 827.163 496.506C827.664 496.977 828.066 497.544 828.345 498.173C828.623 498.802 828.773 499.48 828.785 500.168C828.765 501.506 828.231 502.786 827.295 503.742C826.359 504.698 825.091 505.258 823.754 505.307Z" fill="#F16465"/>
<path d="M516.11 315.048C511.603 313.725 485.729 330.667 473.115 275.069C459.761 216.18 524.158 225.206 524.158 225.206C524.158 225.206 589.14 227.782 565.52 283.356C543.223 335.818 520.772 314.535 516.11 315.048Z" fill="#D91F26"/>
<path d="M516.086 311.53C511.949 310.338 488.138 325.91 476.536 274.747C464.244 220.556 523.502 228.867 523.502 228.867C523.502 228.867 583.297 231.251 561.561 282.378C541.041 330.643 520.378 311.077 516.086 311.53Z" fill="#F1594B"/>
<path d="M547.051 302.457C531.35 301.049 516.852 293.463 506.745 281.366C496.638 269.269 491.751 253.653 493.157 237.952C493.47 234.451 494.088 230.984 495.006 227.591C480.03 232.36 466.223 244.689 473.114 275.069C485.729 330.667 511.603 313.724 516.11 315.048C520.056 314.631 536.761 329.809 555.325 302.624C552.567 302.764 549.801 302.709 547.051 302.457Z" fill="#D91F26"/>
<path d="M557.66 256.031C560.404 253.244 559.414 247.82 555.449 243.916C551.484 240.012 546.045 239.108 543.301 241.895C540.557 244.683 541.547 250.107 545.512 254.01C549.477 257.914 554.916 258.819 557.66 256.031Z" fill="#F6FAFE"/>
<path d="M558.187 268.655C560.222 268.655 561.871 267.005 561.871 264.97C561.871 262.936 560.222 261.286 558.187 261.286C556.152 261.286 554.503 262.936 554.503 264.97C554.503 267.005 556.152 268.655 558.187 268.655Z" fill="#F6FAFE"/>
<path d="M537.56 235.222C537.416 236.748 532.6 239.145 526.364 239.407C525.207 239.456 524.047 239.428 522.894 239.324C521.929 239.242 520.969 239.103 520.021 238.906C513.642 237.607 509.051 234.244 509.194 232.682C509.337 231.12 514.607 230.178 521.368 230.536C522.119 230.536 522.882 230.632 523.669 230.691C525.04 230.822 526.364 230.977 527.604 231.18C533.482 232.098 537.691 233.744 537.56 235.222Z" fill="#D91F26"/>
<path d="M536.165 236.807C534.054 235.472 529.166 234.244 523.395 233.719C517.624 233.195 512.604 233.552 510.279 234.482C512.342 236.426 517.135 238.811 522.894 239.323C528.653 239.836 533.792 238.346 536.165 236.807Z" fill="#951B1E"/>
<path d="M533.291 194.909C530.257 197.445 527.93 200.721 526.534 204.421C525.139 208.121 524.723 212.118 525.326 216.026L555.492 190.832C551.754 189.541 547.746 189.238 543.856 189.953C539.966 190.667 536.327 192.375 533.291 194.909Z" fill="#9FCC3B"/>
<path d="M555.492 190.832L525.327 216.025C529.064 217.314 533.072 217.615 536.96 216.9C540.848 216.185 544.486 214.477 547.521 211.943C550.555 209.409 552.884 206.133 554.28 202.435C555.677 198.736 556.095 194.739 555.492 190.832Z" fill="#63B446"/>
<path d="M526.364 239.419C525.207 239.467 524.048 239.44 522.894 239.335C521.929 239.254 520.969 239.114 520.021 238.918C520.762 236.191 521.214 233.393 521.368 230.572C521.761 222.643 519.52 216.156 514.703 211.268L519.174 206.868C525.219 213.021 528.14 221.403 527.616 231.108C527.616 231.108 527.616 231.18 527.616 231.215C527.45 233.982 527.031 236.728 526.364 239.419Z" fill="#63B446"/>
<path d="M487.196 230.941C475.75 237.368 467.451 250.126 473.114 275.057C485.729 330.656 511.603 313.713 516.11 315.036C456.458 270.884 487.196 230.941 487.196 230.941Z" fill="#951B1E"/>
<path d="M551.415 285.586C548.231 295.124 535.748 313.927 527.568 309.349C527.568 309.349 519.556 305.414 525.458 300.478C529.392 297.199 532.612 287.136 534.388 280.769C534.794 279.25 535.736 277.93 537.041 277.053C538.345 276.176 539.923 275.802 541.483 275.999L545.703 276.524C546.722 276.647 547.7 276.996 548.567 277.545C549.434 278.093 550.167 278.829 550.714 279.696C551.261 280.564 551.608 281.543 551.729 282.562C551.85 283.581 551.743 284.614 551.415 285.586Z" fill="#F16465"/>
<path d="M536.439 255.015C513.856 256.052 503.054 250.591 497.963 245.798C497.329 245.204 496.863 244.453 496.611 243.621C496.36 242.789 496.332 241.906 496.53 241.06C496.728 240.214 497.146 239.435 497.74 238.802C498.335 238.168 499.086 237.703 499.918 237.452L500.097 237.392C500.995 237.129 501.945 237.1 502.858 237.309C503.77 237.518 504.613 237.957 505.307 238.584C508.467 241.386 516.551 245.667 536.093 244.761C536.779 244.727 537.465 244.831 538.11 245.068C538.755 245.305 539.346 245.668 539.847 246.138C540.349 246.607 540.751 247.172 541.03 247.8C541.309 248.428 541.459 249.105 541.47 249.792C541.468 251.144 540.944 252.442 540.006 253.416C539.068 254.389 537.79 254.962 536.439 255.015Z" fill="#F16465"/>
<path d="M538.382 587.041C542.889 585.73 568.763 602.661 581.378 547.062C594.732 488.174 530.334 497.199 530.334 497.199C530.334 497.199 465.353 499.775 489.008 555.385C511.269 607.847 533.72 586.54 538.382 587.041Z" fill="#D91F26"/>
<path d="M538.406 583.524C542.544 582.331 566.354 597.903 577.956 546.74C590.249 492.549 530.99 500.86 530.99 500.86C530.99 500.86 471.195 503.244 492.931 554.371C513.451 602.637 534.114 583.071 538.406 583.524Z" fill="#F1594B"/>
<path d="M507.442 574.462C516.096 573.674 524.472 571.001 531.983 566.63C539.493 562.259 545.956 556.296 550.916 549.161C555.876 542.026 559.213 533.891 560.694 525.329C562.175 516.766 561.763 507.983 559.486 499.596C574.462 504.365 588.269 516.694 581.378 547.075C568.763 602.673 542.889 585.742 538.382 587.053C534.436 586.636 517.731 601.814 499.179 574.641C501.934 574.772 504.695 574.712 507.442 574.462Z" fill="#D91F26"/>
<path d="M508.99 525.889C512.955 521.985 513.945 516.561 511.201 513.773C508.457 510.986 503.018 511.891 499.053 515.794C495.088 519.698 494.098 525.122 496.842 527.909C499.586 530.697 505.025 529.792 508.99 525.889Z" fill="#F6FAFE"/>
<path d="M496.317 540.648C498.352 540.648 500.001 538.998 500.001 536.964C500.001 534.929 498.352 533.279 496.317 533.279C494.282 533.279 492.633 534.929 492.633 536.964C492.633 538.998 494.282 540.648 496.317 540.648Z" fill="#F6FAFE"/>
<path d="M516.932 507.215C517.076 508.741 521.893 511.138 528.128 511.4C529.286 511.449 530.445 511.421 531.598 511.317C532.567 511.235 533.531 511.095 534.483 510.899C540.862 509.6 545.441 506.237 545.298 504.675C545.155 503.114 539.885 502.172 533.124 502.529C532.373 502.529 531.61 502.625 530.823 502.684C529.452 502.815 528.128 502.982 526.888 503.173C521.01 504.115 516.801 505.737 516.932 507.215Z" fill="#D91F26"/>
<path d="M518.328 508.801C520.438 507.465 525.338 506.237 531.097 505.713C536.856 505.188 541.888 505.546 544.213 506.476C542.15 508.419 537.369 510.804 531.598 511.316C525.827 511.829 520.7 510.339 518.328 508.801Z" fill="#951B1E"/>
<path d="M521.201 466.903C524.237 469.437 526.566 472.713 527.961 476.413C529.357 480.113 529.772 484.111 529.166 488.019L499 462.825C502.738 461.533 506.747 461.23 510.637 461.944C514.527 462.659 518.166 464.367 521.201 466.903Z" fill="#9FCC3B"/>
<path d="M499 462.825L529.166 488.019C525.428 489.307 521.421 489.609 517.533 488.893C513.644 488.178 510.006 486.471 506.972 483.936C503.937 481.402 501.609 478.127 500.212 474.428C498.816 470.729 498.398 466.732 499 462.825Z" fill="#63B446"/>
<path d="M528.128 511.4C529.286 511.449 530.445 511.421 531.598 511.317C532.567 511.234 533.531 511.095 534.483 510.899C533.731 508.174 533.275 505.376 533.124 502.553C532.743 494.624 534.984 488.138 539.789 483.249L535.318 478.85C529.273 485.002 526.352 493.384 526.876 503.09C526.876 503.09 526.876 503.161 526.876 503.197C527.048 505.963 527.467 508.709 528.128 511.4Z" fill="#63B446"/>
<path d="M567.296 502.923C578.743 509.349 587.041 522.107 581.378 547.039C568.763 602.637 542.889 585.706 538.382 587.018C598.034 542.878 567.296 502.923 567.296 502.923Z" fill="#951B1E"/>
<path d="M503.078 557.591C506.261 567.129 518.745 585.92 526.924 581.342C526.924 581.342 534.937 577.407 529.035 572.471C525.1 569.192 521.881 559.129 520.104 552.762C519.699 551.245 518.758 549.927 517.456 549.051C516.154 548.174 514.579 547.798 513.022 547.992L508.789 548.517C507.769 548.64 506.79 548.989 505.922 549.538C505.054 550.088 504.319 550.824 503.772 551.694C503.225 552.563 502.879 553.543 502.759 554.564C502.638 555.584 502.747 556.618 503.078 557.591Z" fill="#F16465"/>
<path d="M518.053 527.007C540.648 528.045 551.438 522.584 556.53 517.791C557.16 517.195 557.623 516.445 557.874 515.615C558.124 514.785 558.152 513.904 557.955 513.059C557.759 512.215 557.344 511.437 556.753 510.803C556.162 510.168 555.415 509.7 554.586 509.444H554.395C553.499 509.182 552.551 509.154 551.641 509.363C550.731 509.572 549.889 510.01 549.197 510.637C546.025 513.439 537.941 517.791 518.399 516.813C517.711 516.779 517.023 516.885 516.377 517.123C515.73 517.361 515.138 517.727 514.637 518.198C514.135 518.67 513.733 519.239 513.455 519.869C513.178 520.5 513.031 521.18 513.022 521.869C513.045 523.206 513.58 524.483 514.515 525.439C515.451 526.395 516.717 526.956 518.053 527.007Z" fill="#F16465"/>
<path d="M653.227 254.621C664.29 254.621 673.258 240.822 673.258 223.8C673.258 206.777 664.29 192.978 653.227 192.978C642.164 192.978 633.196 206.777 633.196 223.8C633.196 240.822 642.164 254.621 653.227 254.621Z" fill="white"/>
<path d="M828.785 400.633C839.848 400.633 848.816 386.834 848.816 369.811C848.816 352.789 839.848 338.99 828.785 338.99C817.722 338.99 808.754 352.789 808.754 369.811C808.754 386.834 817.722 400.633 828.785 400.633Z" fill="white"/>
<path d="M623.731 165.796C635.473 159.574 637.93 141.205 629.22 124.767C620.509 108.33 603.93 100.049 592.188 106.271C580.446 112.493 577.989 130.863 586.699 147.3C595.409 163.738 611.989 172.019 623.731 165.796Z" fill="white"/>
<path d="M786.314 362.264C795.777 362.264 803.448 354.593 803.448 345.13C803.448 335.668 795.777 327.997 786.314 327.997C776.852 327.997 769.181 335.668 769.181 345.13C769.181 354.593 776.852 362.264 786.314 362.264Z" fill="white"/>
</g>
<defs>
<clipPath id="clip0_4754_541">
<rect width="952" height="1190.62" fill="white"/>
</clipPath>
</defs>
</svg>
