<svg width="620" height="839" viewBox="0 0 620 839" fill="none" xmlns="http://www.w3.org/2000/svg">
<g clip-path="url(#clip0_4906_944)">
<path d="M309.59 838.58C480.572 838.58 619.18 809.519 619.18 773.67C619.18 737.821 480.572 708.76 309.59 708.76C138.608 708.76 0 737.821 0 773.67C0 809.519 138.608 838.58 309.59 838.58Z" fill="#A7A9AC"/>
<path d="M161.72 785.59C158.912 785.591 156.135 785 153.57 783.857C151.005 782.713 148.709 781.042 146.833 778.953C144.957 776.863 143.542 774.402 142.68 771.729C141.818 769.056 141.528 766.232 141.83 763.44C141.83 763.32 141.96 762.18 142.12 760.25C142.12 759.74 142.2 759.25 142.25 758.63C142.47 755.63 142.76 750.94 142.92 745.22C142.92 744.22 142.97 743.22 142.99 742.12V740.49C142.99 739.41 142.99 738.3 142.99 737.17C142.99 732.24 142.87 727.41 142.62 722.81C142.48 720.25 142.3 717.72 142.09 715.31C141.98 714.06 141.85 712.8 141.72 711.55C141.59 710.3 141.44 709.07 141.27 707.82C141.1 706.57 140.94 705.37 140.75 704.15C140.66 703.55 140.56 702.94 140.46 702.34C140.26 701.14 140.05 699.95 139.82 698.77C139.7 698.2 139.59 697.62 139.47 697.05C138.708 693.283 137.706 689.569 136.47 685.93C136.31 685.46 136.14 684.99 135.97 684.53C135.345 682.826 134.627 681.156 133.82 679.53C133.28 678.45 132.71 677.43 132.14 676.53C130.56 674.01 128.87 671.37 126.96 668.47C125.34 666 123.79 663.66 122.29 661.47L122.05 661.12C120.41 658.66 118.85 656.32 117.37 654.04C116.37 652.45 115.32 650.88 114.37 649.34C113.37 647.64 112.37 646.07 111.48 644.54C110.48 642.81 109.57 641.18 108.71 639.54C106.864 636.043 105.218 632.444 103.78 628.76C103.02 626.83 102.33 624.86 101.71 622.91C100.71 619.91 99.9099 616.72 99.2299 613.51C97.2937 603.876 96.3786 594.066 96.4999 584.24V201.41C96.4463 193.859 96.9544 186.315 98.0199 178.84C98.967 172.348 100.534 165.963 102.7 159.77C103.05 158.77 103.4 157.84 103.77 156.89C104.5 155.04 105.29 153.18 106.13 151.35C106.53 150.47 106.96 149.59 107.39 148.71C108.22 147.03 109.12 145.32 110.07 143.6C111.02 141.88 111.87 140.42 112.9 138.71C113.82 137.2 114.78 135.65 115.9 133.96C117.9 130.81 120.04 127.63 122.1 124.54L122.29 124.26C125.44 119.55 128.68 114.68 132.19 109.08C134.224 105.662 135.843 102.013 137.01 98.2101C138.375 93.9 139.451 89.5035 140.23 85.0501C140.44 83.8601 140.65 82.6501 140.83 81.4501C141.71 75.7501 142.34 69.4501 142.7 62.7801C142.95 58.1801 143.07 53.3501 143.07 48.4201C143.07 33.4201 141.87 22.2501 141.86 22.1401C141.56 19.3488 141.85 16.5256 142.713 13.854C143.576 11.1825 144.991 8.72253 146.867 6.63414C148.743 4.54575 151.038 2.87572 153.602 1.73273C156.166 0.589736 158.943 -0.000614598 161.75 6.193e-05H529.16C531.909 -0.00677985 534.631 0.553337 537.154 1.64543C539.677 2.73753 541.948 4.33814 543.825 6.34731C545.702 8.35648 547.144 10.731 548.062 13.3227C548.98 15.9144 549.354 18.6675 549.16 21.4101C549.16 21.6701 549.16 21.9201 549.09 22.1701C549.09 22.1701 549.01 23.0701 549 23.1001L548.83 25.1001C548.83 25.1001 548.76 25.9601 548.76 26.0101C548.69 26.9301 548.61 28.0101 548.53 29.1801L548.45 30.5401C548.32 32.5401 548.22 34.6101 548.14 36.6401V36.7101C548.01 39.7801 547.94 42.8701 547.91 45.8901V45.9901C547.91 49.5 547.91 52.9901 548 56.3701V56.4801C548.09 59.4801 548.23 62.4801 548.41 65.3201V65.5101C548.41 66.1801 548.5 66.8501 548.56 67.5101V67.6701C548.62 68.4801 548.68 69.2101 548.74 69.9301C550.67 92.1501 555.25 103.5 558.74 109.11C562.23 114.72 565.5 119.59 568.65 124.31C583.02 145.83 594.37 162.83 594.37 201.41V584.19C594.37 614.51 587.53 631.58 576.5 649.28C575.5 650.82 574.5 652.38 573.5 653.98C572.5 655.58 571.5 657.08 570.39 658.68L567.84 662.5C566.57 664.41 565.25 666.38 563.84 668.5C561.94 671.4 560.25 674.04 558.67 676.56C558.09 677.49 557.53 678.56 556.99 679.56C556.183 681.186 555.465 682.855 554.84 684.56C554.67 685.02 554.5 685.49 554.34 685.96C553.105 689.596 552.103 693.307 551.34 697.07C551.22 697.64 551.11 698.22 550.99 698.81C550.76 699.99 550.55 701.17 550.35 702.37C550.25 702.96 550.15 703.56 550.06 704.17C549.87 705.4 549.7 706.62 549.54 707.85C549.38 709.08 549.23 710.34 549.09 711.58C548.95 712.82 548.83 714.09 548.72 715.33V715.7C548.66 716.45 548.6 717.17 548.54 717.89V718.09C548.48 718.82 548.44 719.49 548.39 720.17V720.35C548.21 723.21 548.07 726.19 547.98 729.19V729.26C547.88 732.74 547.85 736.243 547.89 739.77V739.82C547.89 742.82 547.99 745.89 548.11 748.94C548.115 748.97 548.115 749 548.11 749.03C548.19 751.03 548.29 753.1 548.41 755.1C548.41 755.1 548.5 756.41 548.5 756.43C548.58 757.67 548.66 758.77 548.73 759.72L548.88 761.45L549.08 763.56C549.364 766.345 549.06 769.159 548.188 771.819C547.316 774.48 545.896 776.927 544.018 779.004C542.14 781.081 539.847 782.74 537.288 783.874C534.729 785.009 531.96 785.593 529.16 785.59H161.72Z" fill="#231F20"/>
<path d="M161.72 765.59C161.72 765.59 169.05 697.81 149.12 665.91C129.19 634.01 116.51 624.05 116.51 584.18V201.41C116.51 161.54 129.18 151.57 149.12 119.68C169.06 87.79 161.72 20 161.72 20H515.86C515.86 20 523.2 87.78 503.27 119.68C483.34 151.58 470.65 161.59 470.65 201.41V584.19C470.65 624.06 483.32 634.03 503.26 665.92C523.2 697.81 515.86 765.59 515.86 765.59H161.72Z" fill="#71A29E"/>
<path d="M183.7 665.92C163.77 634.03 151.09 624.06 151.09 584.19V201.41C151.09 161.54 163.77 151.57 183.7 119.68C203.63 87.79 196.3 20 196.3 20H161.72C161.72 20 169.05 87.78 149.12 119.68C129.19 151.58 116.51 161.59 116.51 201.41V584.19C116.51 624.06 129.18 634.03 149.12 665.92C169.06 697.81 161.72 765.59 161.72 765.59H196.3C196.3 765.59 203.65 697.82 183.7 665.92Z" fill="#587B75"/>
<path d="M529.16 765.59C529.16 765.59 521.83 697.81 541.76 665.91C561.69 634.01 574.37 624.05 574.37 584.18V201.41C574.37 161.54 561.7 151.57 541.76 119.68C521.82 87.79 529.16 20 529.16 20H175.01C175.01 20 167.65 87.78 187.65 119.68C207.65 151.58 220.26 161.54 220.26 201.41V584.19C220.26 624.06 207.59 634.03 187.65 665.92C167.71 697.81 175.01 765.59 175.01 765.59H529.16Z" fill="#C5E6DC"/>
<path d="M574.37 323.02H220.22V462.59H574.37V323.02Z" fill="#48BEA2"/>
<path d="M401.25 541.319C483.275 541.319 549.77 474.825 549.77 392.799C549.77 310.774 483.275 244.279 401.25 244.279C319.225 244.279 252.73 310.774 252.73 392.799C252.73 474.825 319.225 541.319 401.25 541.319Z" fill="#FAF28C"/>
<path d="M529.16 20H175.01C173.415 37.1547 173.294 54.4147 174.65 71.59H528.78C527.434 54.414 527.561 37.1543 529.16 20Z" fill="#98CFC0"/>
<path d="M174.65 713.971C173.295 731.16 173.419 748.433 175.02 765.601H529.16C527.559 748.433 527.432 731.16 528.78 713.971H174.65Z" fill="#98CFC0"/>
<g style="mix-blend-mode:multiply">
<path d="M219.57 598.59C216.74 627.11 204.91 638.28 187.57 665.96C167.65 697.82 175.01 765.59 175.01 765.59H529.16C529.16 765.59 521.83 697.81 541.76 665.91C561.69 634.01 574.37 624.05 574.37 584.18V201.41C574.37 201.41 550.57 598.59 219.57 598.59Z" fill="#CEEAE2"/>
</g>
<path d="M523.96 593.2C543.185 593.2 558.77 577.615 558.77 558.39C558.77 539.165 543.185 523.58 523.96 523.58C504.735 523.58 489.15 539.165 489.15 558.39C489.15 577.615 504.735 593.2 523.96 593.2Z" fill="#E9F3F9"/>
<g style="mix-blend-mode:multiply">
<path d="M574.37 584.191V499.081L572.43 496.961C572.43 496.961 560.78 675.961 187.61 665.961C167.65 697.821 175.01 765.591 175.01 765.591H529.16C529.16 765.591 521.83 697.811 541.76 665.911C561.69 634.011 574.37 624.061 574.37 584.191Z" fill="#CEEAE2"/>
</g>
<path d="M303.97 184.13L304.49 183.79C306.49 182.64 307.81 182.07 308.61 182.07C310.39 182.07 312.313 183.673 314.38 186.88C315.433 188.317 316.085 190.008 316.27 191.78C316.281 192.321 316.183 192.859 315.984 193.362C315.785 193.865 315.488 194.323 315.11 194.71C314.068 195.711 312.906 196.577 311.65 197.29C311.13 197.63 310.4 198.09 309.45 198.66C307.597 199.601 305.654 200.351 303.65 200.9C300.814 201.806 297.857 202.271 294.88 202.28C292.178 202.262 289.49 201.899 286.88 201.2C283.865 200.385 280.973 199.171 278.28 197.59C275.333 195.916 272.64 193.832 270.28 191.4C267.755 188.681 265.785 185.494 264.48 182.02C262.927 178.034 262.153 173.788 262.2 169.51C262.149 165.376 262.91 161.271 264.44 157.43C265.746 154.088 267.689 151.032 270.16 148.43C272.496 146.045 275.175 144.022 278.11 142.43C280.858 140.886 283.791 139.7 286.84 138.9C289.522 138.204 292.279 137.845 295.05 137.83C300.144 137.926 305.144 139.214 309.65 141.59L311.71 142.79C312.528 143.277 313.319 143.808 314.08 144.38C314.687 144.882 315.207 145.48 315.62 146.15C316.102 146.861 316.36 147.701 316.36 148.56C316.258 150.258 315.625 151.882 314.55 153.2C312.31 156.29 310.31 157.84 308.55 157.84C307.55 157.84 306.05 157.21 304.16 155.95C301.747 153.997 298.537 153.023 294.53 153.03C292.653 153.051 290.794 153.389 289.03 154.03C287.079 154.717 285.239 155.687 283.57 156.91C281.708 158.307 280.215 160.136 279.22 162.24C278.049 164.65 277.46 167.301 277.5 169.98C277.455 172.685 278.044 175.363 279.22 177.8C280.224 179.924 281.731 181.77 283.61 183.18C285.285 184.416 287.14 185.387 289.11 186.06C290.854 186.666 292.684 186.987 294.53 187.01C296.221 187.018 297.904 186.785 299.53 186.32C300.722 186.022 301.867 185.557 302.93 184.94L303.97 184.13Z" fill="#115E49"/>
<path d="M357.12 156.091C358.571 156.047 360.021 156.222 361.42 156.611C361.906 156.735 362.36 156.961 362.753 157.273C363.146 157.584 363.468 157.976 363.7 158.421C364.081 159.129 364.341 159.896 364.47 160.691C364.576 161.687 364.619 162.689 364.6 163.691V193.791C364.619 194.792 364.576 195.794 364.47 196.791C364.346 197.573 364.086 198.328 363.7 199.021C363.46 199.455 363.134 199.836 362.742 200.141C362.35 200.445 361.9 200.666 361.42 200.791C359.989 201.173 358.51 201.345 357.03 201.301C354.45 201.301 352.63 200.921 351.57 200.141C351.034 199.741 350.591 199.231 350.272 198.644C349.952 198.057 349.764 197.407 349.72 196.741C347.6 199.781 344.16 201.301 339.4 201.301C334.24 201.301 329.54 199.037 325.3 194.511C321.162 190.25 318.873 184.529 318.93 178.591C318.919 175.695 319.479 172.825 320.579 170.147C321.679 167.468 323.297 165.033 325.34 162.981C329.607 158.481 334.293 156.231 339.4 156.231C341.226 156.195 343.041 156.536 344.73 157.231C345.95 157.685 347.086 158.341 348.09 159.171C348.66 159.708 349.179 160.297 349.64 160.931C349.672 160.232 349.854 159.547 350.173 158.925C350.492 158.302 350.941 157.755 351.49 157.321C352.55 156.501 354.42 156.091 357.12 156.091ZM341.72 186.191C342.705 186.208 343.682 186.009 344.582 185.608C345.482 185.207 346.284 184.614 346.93 183.871C348.265 182.483 349.016 180.636 349.03 178.711C349.008 176.806 348.298 174.973 347.03 173.551C346.365 172.758 345.527 172.128 344.58 171.71C343.634 171.293 342.604 171.098 341.57 171.141C340.539 171.115 339.514 171.318 338.57 171.735C337.626 172.151 336.786 172.771 336.11 173.551C334.779 174.978 334.027 176.849 334 178.801C334.01 179.759 334.214 180.706 334.599 181.584C334.984 182.462 335.542 183.254 336.24 183.911C336.946 184.649 337.798 185.232 338.741 185.625C339.684 186.017 340.699 186.21 341.72 186.191Z" fill="#115E49"/>
<path d="M397.8 185.081C399.687 183.867 401.12 183.264 402.1 183.271C403.82 183.271 405.91 184.791 408.37 187.831C409.516 189.056 410.22 190.629 410.37 192.301C410.37 194.481 408.79 196.511 405.64 198.411C402.095 200.776 397.9 201.975 393.64 201.841C390.948 201.819 388.281 201.311 385.77 200.341C383.06 199.313 380.524 197.877 378.25 196.081C375.788 194.109 373.816 191.593 372.49 188.731C370.955 185.572 370.168 182.102 370.19 178.591C370.144 175.128 370.912 171.703 372.43 168.591C373.768 165.77 375.723 163.285 378.15 161.321C380.401 159.525 382.927 158.103 385.63 157.111C390.154 155.378 395.123 155.182 399.77 156.551C401.353 156.959 402.883 157.55 404.33 158.311L405.71 159.171C406.71 159.861 407.53 160.411 408.07 160.811C408.677 161.276 409.201 161.841 409.62 162.481C410.101 163.177 410.356 164.004 410.35 164.851C410.222 166.593 409.597 168.262 408.55 169.661C406.483 172.821 404.503 174.401 402.61 174.401C401.52 174.401 399.97 173.761 397.97 172.501C396.695 171.444 395.061 170.921 393.41 171.041C391.469 171.081 389.606 171.815 388.16 173.111C387.338 173.801 386.686 174.672 386.254 175.655C385.822 176.638 385.622 177.708 385.67 178.781C385.605 179.855 385.788 180.93 386.206 181.922C386.624 182.914 387.266 183.797 388.08 184.501C389.5 185.772 391.334 186.482 393.24 186.501C394.082 186.512 394.922 186.398 395.73 186.161C396.282 186.021 396.806 185.787 397.28 185.471L397.8 185.081Z" fill="#115E49"/>
<path d="M441.4 171.32L435.81 170.97V182.84C435.715 184.005 435.969 185.171 436.54 186.19C436.862 186.558 437.269 186.841 437.726 187.015C438.183 187.19 438.675 187.25 439.16 187.19C440.238 187.178 441.316 187.221 442.39 187.32C443.176 187.435 443.933 187.7 444.62 188.1C445.005 188.311 445.344 188.596 445.617 188.94C445.89 189.283 446.092 189.678 446.21 190.1C446.537 191.333 446.682 192.606 446.64 193.88C446.686 195.334 446.5 196.785 446.09 198.18C445.949 198.664 445.713 199.116 445.395 199.507C445.078 199.899 444.685 200.223 444.24 200.46C443.527 200.841 442.757 201.104 441.96 201.24C441.003 201.338 440.042 201.382 439.08 201.37C433.08 201.37 428.55 200.02 425.49 197.32C422.43 194.62 420.88 190.064 420.84 183.65V170.97C419.818 171.136 418.785 171.223 417.75 171.23C417.083 171.271 416.416 171.161 415.798 170.908C415.18 170.655 414.627 170.266 414.18 169.77C413.35 168.77 412.93 166.77 412.93 163.66C412.899 162.314 413.044 160.969 413.36 159.66C413.537 158.792 413.973 157.997 414.61 157.38C415.067 156.966 415.61 156.659 416.2 156.48C416.791 156.328 417.4 156.254 418.01 156.26L420.84 156.61V147.75C420.826 146.775 420.87 145.8 420.97 144.83C421.1 144.086 421.364 143.371 421.75 142.72C422.001 142.309 422.332 141.953 422.724 141.673C423.116 141.393 423.56 141.195 424.03 141.09C425.461 140.729 426.935 140.567 428.41 140.61C429.614 140.584 430.816 140.729 431.98 141.04C432.759 141.254 433.498 141.592 434.17 142.04C434.731 142.477 435.14 143.078 435.34 143.76C435.566 144.407 435.71 145.078 435.77 145.76C435.77 146.34 435.77 147.14 435.77 148.17V156.59C438.29 156.364 440.18 156.247 441.44 156.24C442.442 156.227 443.443 156.27 444.44 156.37C445.225 156.502 445.983 156.766 446.68 157.15C447.113 157.39 447.493 157.716 447.796 158.108C448.098 158.5 448.318 158.95 448.44 159.43C448.826 160.857 449.001 162.333 448.96 163.81C449 165.261 448.824 166.71 448.44 168.11C448.314 168.595 448.087 169.049 447.776 169.441C447.464 169.834 447.074 170.157 446.63 170.39C445.92 170.769 445.153 171.033 444.36 171.17C443.377 171.276 442.389 171.326 441.4 171.32Z" fill="#115E49"/>
<path d="M473.82 201.24C471.078 201.293 468.36 200.73 465.866 199.591C463.371 198.452 461.165 196.766 459.41 194.66C455.585 190.221 453.549 184.517 453.7 178.66V163.59C453.683 162.588 453.724 161.586 453.82 160.59C453.96 159.806 454.223 159.05 454.6 158.35C454.835 157.907 455.158 157.517 455.551 157.206C455.943 156.894 456.396 156.668 456.88 156.54C458.307 156.157 459.783 155.985 461.26 156.03C462.507 155.998 463.753 156.142 464.96 156.46C465.762 156.652 466.521 156.991 467.2 157.46C467.751 157.92 468.154 158.532 468.36 159.22C468.59 159.865 468.735 160.537 468.79 161.22C468.79 161.77 468.79 162.58 468.79 163.67V178.72C468.728 179.726 468.873 180.735 469.217 181.683C469.561 182.63 470.096 183.497 470.79 184.23C472.323 185.517 474.265 186.215 476.267 186.198C478.268 186.182 480.198 185.452 481.71 184.14C482.418 183.431 482.971 182.584 483.334 181.651C483.697 180.718 483.863 179.72 483.82 178.72V163.49C483.801 162.488 483.844 161.486 483.95 160.49C484.079 159.708 484.339 158.954 484.72 158.26C484.961 157.826 485.287 157.446 485.679 157.142C486.071 156.838 486.52 156.616 487 156.49C488.431 156.107 489.91 155.935 491.39 155.98C492.841 155.938 494.289 156.11 495.69 156.49C496.174 156.618 496.627 156.844 497.019 157.156C497.412 157.467 497.735 157.857 497.97 158.3C498.353 159.011 498.613 159.782 498.74 160.58C498.846 161.576 498.889 162.578 498.87 163.58V194.02C498.886 194.981 498.843 195.943 498.74 196.9C498.614 197.675 498.338 198.419 497.93 199.09C497.407 199.944 496.571 200.561 495.6 200.81C494.201 201.198 492.751 201.373 491.3 201.33C489.878 201.37 488.459 201.195 487.09 200.81C486.175 200.594 485.375 200.04 484.85 199.26C484.515 198.733 484.269 198.155 484.12 197.55C484.026 196.951 483.983 196.345 483.99 195.74C483.847 195.95 483.69 196.15 483.52 196.34C483.32 196.573 482.89 197.003 482.23 197.63C481.58 198.253 480.873 198.816 480.12 199.31C479.234 199.866 478.284 200.312 477.29 200.64C476.174 201.03 475.002 201.233 473.82 201.24Z" fill="#115E49"/>
<path d="M522.49 202.189C516.693 202.189 511.019 200.516 506.15 197.369C505.634 197.062 505.21 196.621 504.923 196.093C504.636 195.565 504.497 194.969 504.52 194.369C504.52 192.709 505.61 190.376 507.79 187.369C508.104 186.889 508.54 186.501 509.053 186.244C509.566 185.988 510.138 185.872 510.71 185.909C512.59 186.035 514.402 186.659 515.96 187.719C518.773 189.319 521.153 190.119 523.1 190.119C526.59 190.119 528.34 189.439 528.34 188.059C528.34 187.489 527.8 186.999 526.71 186.599C525.37 186.139 523.986 185.821 522.58 185.649C520.743 185.375 518.942 184.898 517.21 184.229C515.332 183.54 513.53 182.663 511.83 181.609C510.023 180.411 508.591 178.726 507.7 176.749C506.557 174.287 505.999 171.593 506.07 168.879C506.07 159.819 512.29 155.289 524.73 155.289C529.078 155.354 533.362 156.353 537.29 158.219C539.29 159.139 540.29 160.399 540.29 161.999C540.095 163.678 539.472 165.28 538.48 166.649C537.147 168.709 535.813 169.739 534.48 169.739C533.46 169.645 532.468 169.353 531.56 168.879C529.381 167.798 526.991 167.211 524.56 167.159C521.18 167.159 519.49 167.789 519.49 169.049C519.52 169.541 519.695 170.013 519.994 170.405C520.294 170.797 520.703 171.091 521.17 171.249C522.503 171.847 523.925 172.222 525.38 172.359C529.193 172.852 532.905 173.942 536.38 175.589C538.199 176.52 539.689 177.986 540.65 179.789C541.829 182.023 542.404 184.525 542.32 187.049C542.413 189.744 541.839 192.419 540.65 194.839C539.61 196.851 537.952 198.478 535.92 199.479C533.935 200.463 531.826 201.172 529.65 201.589C527.287 202.011 524.89 202.212 522.49 202.189Z" fill="#115E49"/>
<path d="M290.12 304.62C307.186 304.62 321.02 290.786 321.02 273.72C321.02 256.655 307.186 242.82 290.12 242.82C273.054 242.82 259.22 256.655 259.22 273.72C259.22 290.786 273.054 304.62 290.12 304.62Z" fill="#E9F3F9"/>
<path d="M269.17 237.89C278.487 237.89 286.04 230.337 286.04 221.02C286.04 211.703 278.487 204.15 269.17 204.15C259.853 204.15 252.3 211.703 252.3 221.02C252.3 230.337 259.853 237.89 269.17 237.89Z" fill="#E9F3F9"/>
<path d="M305.35 666.689C299.554 666.691 293.88 665.021 289.01 661.879C288.493 661.572 288.068 661.131 287.78 660.603C287.491 660.076 287.35 659.48 287.37 658.879C287.37 657.213 288.46 654.859 290.64 651.819C290.954 651.339 291.39 650.951 291.903 650.695C292.416 650.438 292.988 650.322 293.56 650.359C295.44 650.485 297.252 651.11 298.81 652.169C301.62 653.769 304 654.579 305.95 654.579C309.443 654.579 311.19 653.889 311.19 652.509C311.19 651.939 310.65 651.449 309.56 651.049C308.222 650.572 306.838 650.237 305.43 650.049C303.593 649.775 301.792 649.299 300.06 648.629C298.183 647.939 296.381 647.061 294.68 646.009C292.873 644.811 291.441 643.126 290.55 641.149C289.406 638.687 288.848 635.993 288.92 633.279C288.92 624.219 295.14 619.693 307.58 619.699C311.928 619.76 316.211 620.756 320.14 622.619C322.14 623.539 323.14 624.799 323.14 626.399C322.95 628.08 322.326 629.682 321.33 631.049C319.997 633.109 318.68 634.139 317.38 634.139C316.356 634.051 315.359 633.759 314.45 633.279C312.27 632.202 309.881 631.615 307.45 631.559C304.057 631.559 302.363 632.193 302.37 633.459C302.402 633.95 302.578 634.42 302.877 634.81C303.176 635.199 303.585 635.492 304.05 635.649C305.382 636.251 306.805 636.629 308.26 636.769C310.11 637 311.936 637.388 313.72 637.929C315.597 638.471 317.424 639.174 319.18 640.029C320.983 640.974 322.456 642.446 323.4 644.249C324.581 646.482 325.16 648.984 325.08 651.509C325.171 654.205 324.594 656.881 323.4 659.299C322.36 661.312 320.702 662.938 318.67 663.939C316.712 664.92 314.63 665.63 312.48 666.049C310.128 666.483 307.741 666.697 305.35 666.689Z" fill="#115E49"/>
<path d="M374.4 637.45C374.4 641.24 373.53 643.97 371.78 645.66C371.032 646.449 370.133 647.08 369.137 647.517C368.141 647.953 367.067 648.185 365.98 648.2H345.59C345.59 649.81 346.54 651.15 348.43 652.2C350.283 653.283 352.393 653.849 354.54 653.84C356.007 653.845 357.472 653.728 358.92 653.49C359.938 653.349 360.942 653.118 361.92 652.8L362.92 652.46C363.989 651.909 365.16 651.585 366.36 651.51C368.187 651.51 369.763 652.8 371.09 655.38C371.751 656.615 372.133 657.98 372.21 659.38C372.21 664.48 366.103 667.033 353.89 667.04C350.007 667.107 346.154 666.358 342.58 664.84C339.57 663.597 336.922 661.616 334.88 659.08C333.112 656.813 331.733 654.269 330.8 651.55C329.917 648.947 329.467 646.218 329.47 643.47C329.47 636.25 331.803 630.473 336.47 626.14C341.137 621.806 346.97 619.643 353.97 619.65C356.595 619.625 359.208 620.016 361.71 620.81C363.82 621.454 365.797 622.47 367.55 623.81C369.076 625.011 370.399 626.449 371.47 628.07C372.466 629.535 373.235 631.144 373.75 632.84C374.18 634.338 374.399 635.89 374.4 637.45ZM356.26 640.38C358.44 640.38 359.53 639.46 359.53 637.62C359.547 637.008 359.419 636.401 359.156 635.848C358.894 635.296 358.505 634.813 358.02 634.44C356.751 633.56 355.221 633.137 353.68 633.24C351.631 633.323 349.679 634.131 348.17 635.52C346.337 637.04 345.42 638.66 345.42 640.38H356.26Z" fill="#115E49"/>
<path d="M423.65 637.45C423.65 641.24 422.78 643.97 421.03 645.66C420.28 646.449 419.38 647.081 418.382 647.517C417.384 647.953 416.309 648.185 415.22 648.2H394.87C394.87 649.81 395.82 651.15 397.71 652.2C399.563 653.283 401.673 653.849 403.82 653.84C405.287 653.844 406.752 653.727 408.2 653.49C409.218 653.349 410.222 653.118 411.2 652.8L412.2 652.46C413.277 651.934 414.452 651.638 415.65 651.59C417.477 651.59 419.053 652.88 420.38 655.46C421.041 656.695 421.423 658.061 421.5 659.46C421.5 664.56 415.393 667.113 403.18 667.12C399.297 667.189 395.443 666.44 391.87 664.92C388.86 663.677 386.212 661.696 384.17 659.16C382.398 656.896 381.019 654.351 380.09 651.63C379.204 649.028 378.751 646.298 378.75 643.55C378.75 636.33 381.083 630.553 385.75 626.22C390.417 621.886 396.25 619.723 403.25 619.73C405.875 619.703 408.488 620.095 410.99 620.89C413.102 621.536 415.082 622.552 416.84 623.89C418.363 625.092 419.683 626.53 420.75 628.15C421.746 629.616 422.515 631.224 423.03 632.92C423.447 634.393 423.656 635.918 423.65 637.45ZM405.51 640.38C407.677 640.38 408.763 639.46 408.77 637.62C408.789 637.009 408.663 636.402 408.402 635.85C408.141 635.297 407.753 634.814 407.27 634.44C406 633.561 404.471 633.138 402.93 633.24C400.881 633.324 398.929 634.131 397.42 635.52C395.593 637.04 394.677 638.66 394.67 640.38H405.51Z" fill="#115E49"/>
<path d="M466.34 599.441C467.791 599.397 469.241 599.573 470.64 599.961C471.124 600.085 471.578 600.31 471.97 600.62C472.363 600.93 472.686 601.318 472.92 601.761C473.298 602.474 473.558 603.244 473.69 604.041C473.795 605.037 473.839 606.039 473.82 607.041V658.381C473.839 659.382 473.795 660.384 473.69 661.381C473.556 662.168 473.278 662.924 472.87 663.611C472.359 664.482 471.526 665.118 470.55 665.381C469.123 665.763 467.647 665.935 466.17 665.891C461.81 665.891 459.4 664.487 458.94 661.681C456.527 664.434 453.173 665.811 448.88 665.811C443.72 665.811 439.017 663.557 434.77 659.051C430.622 654.786 428.335 649.05 428.41 643.101C428.406 637.268 430.711 631.67 434.82 627.531C439.093 623.011 443.78 620.747 448.88 620.741C453.12 620.741 456.417 622.174 458.77 625.041V606.921C458.751 605.919 458.794 604.917 458.9 603.921C459.025 603.138 459.286 602.384 459.67 601.691C459.91 601.257 460.236 600.878 460.628 600.575C461.02 600.272 461.47 600.053 461.95 599.931C463.381 599.549 464.86 599.384 466.34 599.441ZM445.7 648.441C446.389 649.187 447.228 649.779 448.162 650.179C449.096 650.579 450.104 650.777 451.12 650.761C452.116 650.784 453.105 650.588 454.018 650.187C454.93 649.786 455.743 649.19 456.4 648.441C457.741 647.056 458.497 645.208 458.51 643.281C458.488 641.376 457.778 639.543 456.51 638.121C455.846 637.327 455.008 636.697 454.061 636.279C453.114 635.862 452.084 635.667 451.05 635.711C450.013 635.673 448.981 635.866 448.028 636.276C447.075 636.685 446.225 637.302 445.54 638.081C444.23 639.497 443.495 641.351 443.48 643.281C443.488 644.248 443.688 645.204 444.069 646.094C444.45 646.983 445.005 647.788 445.7 648.461V648.441Z" fill="#115E49"/>
<path d="M497.38 666.689C491.584 666.689 485.912 665.019 481.04 661.879C480.524 661.571 480.101 661.13 479.814 660.602C479.527 660.075 479.388 659.479 479.41 658.879C479.41 657.213 480.5 654.859 482.68 651.819C482.994 651.339 483.43 650.951 483.943 650.695C484.456 650.438 485.028 650.322 485.6 650.359C487.48 650.485 489.292 651.11 490.85 652.169C493.65 653.769 496.03 654.579 497.98 654.579C501.48 654.579 503.23 653.889 503.23 652.509C503.23 651.939 502.69 651.449 501.6 651.049C500.262 650.572 498.878 650.237 497.47 650.049C495.63 649.775 493.826 649.299 492.09 648.629C490.216 647.939 488.417 647.061 486.72 646.009C484.913 644.811 483.481 643.126 482.59 641.149C481.446 638.687 480.888 635.993 480.96 633.279C480.96 624.219 487.18 619.693 499.62 619.699C503.964 619.76 508.245 620.756 512.17 622.619C514.17 623.539 515.17 624.799 515.17 626.399C514.98 628.078 514.36 629.68 513.37 631.049C512.037 633.109 510.703 634.139 509.37 634.139C508.349 634.051 507.356 633.759 506.45 633.279C504.27 632.203 501.881 631.616 499.45 631.559C496.07 631.559 494.38 632.193 494.38 633.459C494.412 633.95 494.588 634.42 494.887 634.81C495.186 635.199 495.594 635.492 496.06 635.649C497.392 636.252 498.814 636.631 500.27 636.769C502.12 637 503.946 637.388 505.73 637.929C507.607 638.471 509.434 639.174 511.19 640.029C512.993 640.974 514.466 642.446 515.41 644.249C516.583 646.485 517.158 648.986 517.08 651.509C517.169 654.203 516.595 656.878 515.41 659.299C514.37 661.312 512.712 662.938 510.68 663.939C508.719 664.922 506.633 665.632 504.48 666.049C502.138 666.482 499.761 666.696 497.38 666.689Z" fill="#115E49"/>
<g style="mix-blend-mode:multiply">
<path d="M396.35 573.431C452.49 573.431 498 564.391 498 553.241C498 542.09 452.49 533.051 396.35 533.051C340.21 533.051 294.7 542.09 294.7 553.241C294.7 564.391 340.21 573.431 396.35 573.431Z" fill="#A7A9AC"/>
</g>
<path d="M394.28 552.159C387.921 552.151 381.58 551.48 375.36 550.159C374.74 550.029 374.11 549.899 373.49 549.749L371.66 549.309H371.53L369.78 548.849L369.56 548.789L367.9 548.329L367.58 548.229L365.99 547.759L365.56 547.619L364.06 547.139L363.54 546.969L362.04 546.459L361.52 546.269L359.52 545.559H359.47C358.291 545.119 357.27 544.339 356.536 543.316C355.803 542.294 355.39 541.077 355.35 539.819V539.099L354.65 538.829C353.489 538.332 352.504 537.501 351.819 536.44C351.134 535.38 350.782 534.139 350.806 532.877C350.831 531.615 351.232 530.389 351.958 529.356C352.683 528.323 353.701 527.53 354.88 527.079L355.07 526.999C355 523.599 354.95 520.099 354.9 516.519C348.75 515.019 347.55 514.239 346.77 513.739C345.715 513.062 344.884 512.086 344.383 510.936C343.883 509.786 343.734 508.513 343.957 507.279C344.179 506.045 344.763 504.904 345.634 504.002C346.505 503.099 347.624 502.476 348.85 502.209C349.01 502.209 351.57 501.609 354.77 501.089C354.77 498.089 354.77 495.089 354.77 492.089C354.012 491.465 353.29 490.798 352.61 490.089C351.89 489.342 351.364 488.429 351.08 487.43C350.795 486.432 350.759 485.379 350.977 484.364C351.194 483.349 351.657 482.403 352.325 481.609C352.994 480.815 353.847 480.197 354.81 479.809C354.81 474.129 354.9 468.479 354.99 462.929C354.6 462.759 354.19 462.599 353.77 462.439L352.96 462.139C350.56 461.311 348.108 460.643 345.62 460.139C343.12 462.349 340.62 464.279 340.47 464.379C339.487 465.129 338.306 465.575 337.073 465.664C335.84 465.752 334.607 465.478 333.527 464.876C332.447 464.274 331.567 463.37 330.994 462.274C330.42 461.179 330.179 459.94 330.3 458.709C330.348 458.212 330.442 457.72 330.58 457.239C323.532 455.571 316.844 452.64 310.84 448.589L309.79 449.369C308.787 450.088 307.596 450.498 306.364 450.551C305.131 450.604 303.91 450.297 302.849 449.667C301.789 449.036 300.934 448.111 300.391 447.003C299.848 445.896 299.639 444.654 299.79 443.429C300.023 442.025 300.497 440.672 301.19 439.429C299.312 436.973 297.693 434.329 296.36 431.539C294.13 431.009 292.3 430.469 292.19 430.439C290.979 430.084 289.902 429.375 289.095 428.404C288.289 427.434 287.79 426.245 287.662 424.989C287.535 423.734 287.784 422.469 288.378 421.355C288.973 420.242 289.886 419.332 291 418.739C291.323 418.571 291.657 418.424 292 418.299C291.77 417.179 291.56 416.029 291.37 414.869L290.1 414.789C288.831 414.716 287.613 414.263 286.604 413.49C285.594 412.717 284.841 411.658 284.44 410.451C284.039 409.245 284.01 407.946 284.356 406.722C284.702 405.499 285.407 404.407 286.38 403.589C287.528 402.663 288.827 401.942 290.22 401.459C290.16 398.219 290.22 394.789 290.42 391.209C288.94 389.869 287.81 388.739 287.74 388.669C286.891 387.827 286.298 386.762 286.029 385.597C285.76 384.432 285.826 383.214 286.219 382.085C286.612 380.956 287.317 379.961 288.251 379.215C289.185 378.469 290.312 378.003 291.5 377.869C291.5 377.729 291.63 376.499 291.67 376.039C287.23 370.039 286.47 368.219 286.1 366.909C285.832 365.965 285.787 364.972 285.969 364.008C286.15 363.044 286.552 362.135 287.145 361.352C287.737 360.57 288.503 359.936 289.382 359.5C290.261 359.064 291.229 358.838 292.21 358.839C292.742 358.838 293.273 358.901 293.79 359.029L293.91 358.299C294.23 356.299 294.58 354.529 294.91 352.899L295.12 351.899C295.27 351.229 295.43 350.579 295.59 349.959C294.37 348.569 293.38 347.279 293.09 346.899C292.375 345.961 291.935 344.843 291.82 343.669C291.705 342.496 291.919 341.313 292.438 340.254C292.957 339.195 293.761 338.302 294.759 337.674C295.757 337.046 296.911 336.708 298.09 336.699C298.367 336.701 298.644 336.718 298.92 336.749C299.868 336.889 300.791 337.165 301.66 337.569C302.878 336.429 304.308 335.54 305.869 334.953C307.431 334.367 309.093 334.093 310.76 334.149H311.85C315.42 334.329 318.48 336.339 320.98 340.149C323.29 339.809 325.3 339.629 325.66 339.589H326.22C327.427 339.59 328.609 339.935 329.627 340.583C330.645 341.232 331.457 342.157 331.969 343.251C332.48 344.344 332.668 345.561 332.513 346.758C332.357 347.955 331.864 349.083 331.09 350.009C330.6 350.589 329.88 351.459 326.22 353.589C326.56 354.969 326.9 356.429 327.22 357.969C331.97 358.759 336.42 359.819 336.67 359.879C337.925 360.148 339.069 360.792 339.951 361.724C340.833 362.657 341.412 363.834 341.611 365.102C341.811 366.37 341.621 367.669 341.067 368.827C340.514 369.985 339.622 370.948 338.51 371.589C337.66 372.099 336.36 372.879 329.7 374.229C329.89 376.089 330.05 377.949 330.18 379.749C330.26 380.903 330.34 382.063 330.42 383.229C330.42 383.439 330.42 383.649 330.47 383.859C332.99 385.049 335.06 386.169 335.19 386.239C336.301 386.836 337.209 387.75 337.798 388.865C338.387 389.981 338.629 391.246 338.495 392.5C338.361 393.754 337.856 394.939 337.044 395.905C336.233 396.87 335.152 397.571 333.94 397.919C333.232 398.117 332.504 398.234 331.77 398.269C332.109 400.905 332.613 403.517 333.28 406.089C334.007 405.643 334.816 405.347 335.66 405.219C335.968 405.176 336.279 405.153 336.59 405.149C337.687 405.151 338.764 405.435 339.719 405.975C340.673 406.514 341.473 407.291 342.04 408.229C342.62 409.229 343.27 410.599 344.28 415.489H344.38C344.51 414.769 344.59 414.299 344.61 414.249C344.791 413.294 345.19 412.394 345.777 411.618C346.363 410.843 347.12 410.214 347.99 409.779C347.267 408.499 347.01 407.008 347.264 405.56C347.517 404.113 348.265 402.797 349.38 401.839C350.07 401.249 351.16 400.309 357.31 398.079C357.41 396.529 357.51 394.989 357.61 393.469C357.539 393.183 357.489 392.893 357.46 392.599C357.349 391.581 357.49 390.551 357.87 389.599C358.15 385.599 358.45 381.739 358.77 377.959C354.1 375.239 349.43 371.959 349.18 371.759C348.151 371.03 347.363 370.012 346.915 368.833C346.468 367.655 346.381 366.369 346.666 365.141C346.951 363.913 347.596 362.798 348.517 361.937C349.439 361.077 350.595 360.51 351.84 360.309C352.389 360.226 352.944 360.186 353.5 360.189C355.817 360.253 358.123 360.528 360.39 361.009C360.94 355.849 361.54 350.889 362.17 346.179C361.571 345.491 361.127 344.681 360.869 343.806C360.61 342.93 360.544 342.009 360.674 341.105C360.804 340.202 361.128 339.337 361.622 338.57C362.117 337.802 362.771 337.151 363.54 336.659C363.96 333.989 364.39 331.389 364.83 328.899V328.729C365.83 323.229 366.83 318.079 367.98 313.349C360.54 310.539 359.25 309.419 358.5 308.769C357.553 307.943 356.873 306.855 356.545 305.642C356.217 304.429 356.257 303.146 356.658 301.956C357.06 300.765 357.805 299.721 358.801 298.954C359.796 298.188 360.996 297.733 362.25 297.649C362.43 297.649 366.76 297.349 371.43 297.349H372.56C372.79 296.689 373.02 296.049 373.25 295.409C371.48 292.999 370.05 290.779 369.97 290.649C369.358 289.69 369.014 288.583 368.976 287.445C368.937 286.308 369.205 285.18 369.75 284.181C370.296 283.182 371.099 282.348 372.077 281.765C373.055 281.183 374.172 280.873 375.31 280.869C375.75 280.867 376.19 280.914 376.62 281.009C377.649 281.238 378.639 281.616 379.56 282.129C380.299 280.95 381.097 279.809 381.95 278.709L382.07 278.559C381.916 275.561 381.916 272.557 382.07 269.559C382.134 268.326 382.555 267.137 383.283 266.139C384.012 265.141 385.015 264.377 386.17 263.939C386.886 263.67 387.645 263.532 388.41 263.529C389.257 263.529 390.095 263.699 390.875 264.028C391.655 264.358 392.36 264.841 392.95 265.449C394.077 266.691 394.974 268.124 395.6 269.679L396.09 269.609C396.812 269.501 397.54 269.44 398.27 269.429H399.09C404.53 269.579 409.38 272.009 413.56 276.679C415.8 275.519 417.72 274.679 418.07 274.479C418.894 274.097 419.792 273.899 420.7 273.899C421.715 273.898 422.715 274.14 423.618 274.605C424.52 275.071 425.297 275.745 425.885 276.573C426.472 277.401 426.853 278.357 426.995 279.362C427.137 280.367 427.036 281.391 426.7 282.349C426.44 283.089 425.89 284.659 421.39 289.839C421.64 290.419 421.88 291.019 422.12 291.629C425.686 290.848 429.306 290.343 432.95 290.119C433.533 290.114 434.115 290.157 434.69 290.249C435.933 290.457 437.085 291.03 438.001 291.895C438.917 292.76 439.555 293.878 439.834 295.107C440.113 296.336 440.02 297.62 439.567 298.795C439.114 299.971 438.321 300.985 437.29 301.709C436.58 302.209 431.78 305.549 427.06 308.199C427.06 308.349 427.13 308.489 427.16 308.639C429.91 308.839 432.16 309.119 432.35 309.139C433.599 309.295 434.773 309.819 435.723 310.643C436.674 311.467 437.358 312.556 437.689 313.77C438.02 314.983 437.983 316.268 437.583 317.461C437.182 318.654 436.436 319.701 435.44 320.469C434.8 320.959 433.93 321.629 429.92 322.969C431.23 331.019 432.33 340.069 433.22 349.969V350.479C433.37 352.209 433.52 353.959 433.66 355.719V356.019C440.74 357.019 442.12 357.699 443.01 358.159C444.127 358.741 445.046 359.641 445.65 360.746C446.253 361.851 446.515 363.111 446.402 364.365C446.288 365.619 445.804 366.811 445.011 367.789C444.219 368.767 443.153 369.488 441.95 369.859C441.76 369.919 438.55 370.859 434.71 371.859V372.559C436.504 374.902 438.828 376.786 441.491 378.057C444.154 379.328 447.08 379.949 450.03 379.869C451.232 379.867 452.431 379.777 453.62 379.599C454.89 373.379 455.62 372.149 456.11 371.359C456.673 370.42 457.471 369.642 458.424 369.102C459.377 368.562 460.454 368.279 461.55 368.279C461.861 368.278 462.172 368.301 462.48 368.349C463.606 368.516 464.666 368.982 465.55 369.699C466.502 366.335 467.191 362.901 467.61 359.429C466.597 359.428 465.588 359.294 464.61 359.029C463.402 358.676 462.326 357.972 461.519 357.006C460.712 356.04 460.21 354.856 460.077 353.605C459.944 352.353 460.186 351.09 460.773 349.976C461.359 348.863 462.263 347.948 463.37 347.349C463.51 347.269 465.97 345.949 468.89 344.589C468.89 344.229 468.94 343.869 468.96 343.509C469.047 342.216 469.137 340.936 469.23 339.669C469.38 337.499 469.58 335.259 469.82 333.019C462.06 331.479 460.6 330.589 459.73 330.079C458.656 329.418 457.803 328.452 457.28 327.304C456.757 326.156 456.587 324.879 456.793 323.634C456.999 322.39 457.571 321.235 458.436 320.317C459.301 319.399 460.42 318.759 461.65 318.479C461.93 318.419 467.09 317.179 472.46 316.309C472.87 314.309 473.31 312.389 473.76 310.599C469.45 308.119 468.63 307.139 468.14 306.599C467.367 305.672 466.875 304.543 466.72 303.346C466.565 302.149 466.754 300.932 467.264 299.839C467.775 298.745 468.587 297.819 469.604 297.169C470.621 296.519 471.803 296.173 473.01 296.169C473.193 296.159 473.377 296.159 473.56 296.169C473.99 296.169 476.41 296.429 479.1 296.839C481.78 292.599 485.1 290.369 488.88 290.179H490.05C491.876 290.116 493.696 290.43 495.396 291.101C497.096 291.772 498.639 292.786 499.93 294.079C500.959 293.58 502.058 293.242 503.19 293.079C503.466 293.048 503.743 293.031 504.02 293.029C505.199 293.039 506.353 293.376 507.351 294.004C508.349 294.632 509.153 295.525 509.672 296.584C510.191 297.643 510.405 298.826 510.29 299.999C510.175 301.173 509.735 302.291 509.02 303.229C508.68 303.669 507.49 305.229 506.02 306.829C506.39 308.239 506.75 309.769 507.09 311.439C507.31 312.549 507.54 313.749 507.76 314.989C507.9 315.819 508.05 316.679 508.19 317.579C508.185 317.656 508.185 317.733 508.19 317.809C509.239 317.413 510.375 317.302 511.481 317.486C512.588 317.671 513.626 318.144 514.49 318.859C515.439 319.642 516.14 320.683 516.507 321.857C516.875 323.03 516.893 324.285 516.56 325.469C516.26 326.519 515.78 328.209 510.36 335.529C510.45 336.439 510.54 337.379 510.63 338.329C511.87 338.368 513.072 338.769 514.086 339.483C515.101 340.196 515.885 341.192 516.34 342.346C516.795 343.5 516.902 344.762 516.648 345.977C516.394 347.191 515.79 348.305 514.91 349.179C514.83 349.259 513.48 350.599 511.75 352.179C511.99 356.386 512.07 360.386 511.99 364.179C513.607 364.715 515.116 365.53 516.45 366.589C517.405 367.407 518.096 368.491 518.433 369.703C518.771 370.915 518.741 372.199 518.346 373.394C517.952 374.588 517.211 375.638 516.218 376.41C515.225 377.182 514.025 377.641 512.77 377.729C512.7 377.729 511.96 377.789 510.85 377.839C510.6 379.499 510.3 381.119 509.97 382.679C510.496 382.839 511.005 383.05 511.49 383.309C512.605 383.901 513.518 384.811 514.113 385.923C514.708 387.036 514.958 388.3 514.832 389.556C514.705 390.811 514.207 392 513.402 392.972C512.597 393.943 511.52 394.652 510.31 395.009C510.18 395.009 508.01 395.679 505.44 396.279L505.38 396.409C504.93 397.359 504.45 398.289 503.95 399.189C502.736 401.388 501.352 403.487 499.81 405.469C500.693 406.851 501.317 408.383 501.65 409.989C501.801 411.214 501.592 412.456 501.049 413.563C500.506 414.671 499.651 415.596 498.591 416.227C497.53 416.857 496.309 417.164 495.076 417.111C493.844 417.058 492.653 416.648 491.65 415.929C491.65 415.929 491 415.449 490.14 414.789C484.05 419.109 476.61 422.349 467.62 424.579C467.86 425.272 468.021 425.99 468.1 426.719C468.228 427.952 467.991 429.195 467.42 430.295C466.849 431.395 465.967 432.304 464.885 432.908C463.803 433.512 462.568 433.786 461.331 433.696C460.095 433.605 458.913 433.155 457.93 432.399C457.77 432.279 454.86 430.049 452.04 427.529C451.04 427.739 450.04 427.969 449.04 428.199L448.45 428.349C447.36 428.629 446.32 428.929 445.34 429.239L443.99 429.679C442.005 430.355 440.079 431.191 438.23 432.179C439.76 433.179 440.85 433.899 440.94 433.959C441.981 434.67 442.787 435.674 443.254 436.844C443.721 438.015 443.829 439.298 443.564 440.53C443.299 441.762 442.673 442.887 441.766 443.761C440.858 444.636 439.711 445.22 438.47 445.439C438.262 445.48 438.051 445.51 437.84 445.529C438.437 446.258 438.865 447.11 439.092 448.024C439.32 448.938 439.341 449.891 439.156 450.814C438.97 451.737 438.582 452.608 438.019 453.363C437.456 454.118 436.732 454.738 435.9 455.179C435.81 460.179 435.69 465.259 435.55 470.379C438.29 471.639 440.67 472.909 441.05 473.119C442.16 473.717 443.068 474.631 443.656 475.747C444.245 476.862 444.488 478.127 444.355 479.381C444.222 480.634 443.719 481.82 442.909 482.787C442.1 483.754 441.021 484.458 439.81 484.809C438.601 485.109 437.355 485.241 436.11 485.199H435.11C434.97 489.309 434.8 493.439 434.63 497.559C441.4 498.179 442.79 498.819 443.68 499.229C444.827 499.757 445.79 500.614 446.448 501.692C447.105 502.769 447.426 504.018 447.37 505.279C447.315 506.54 446.884 507.756 446.134 508.771C445.384 509.786 444.349 510.555 443.16 510.979C442.92 511.059 438.54 512.619 433.86 513.979C433.09 528.979 432.42 538.479 432.41 538.579C432.341 539.551 432.048 540.495 431.556 541.336C431.063 542.177 430.384 542.893 429.57 543.429L429.4 543.539L428.95 543.819L428.39 544.149L428.05 544.349L427.25 544.779L426.69 545.079L426.12 545.359L425.55 545.639L424.96 545.919L424.31 546.219L423.71 546.479H423.65C422.9 546.799 422.12 547.119 421.32 547.429L421.19 547.479L420.49 547.739L420.28 547.819L419.6 548.059L419.38 548.139L418.68 548.379L418.44 548.459L417.69 548.699L417.48 548.769L416.6 549.039H416.47C415.4 549.349 414.3 549.659 413.19 549.929H412.98L412.04 550.149L411.75 550.219L410.85 550.409L410.51 550.489L409.62 550.659L409.26 550.729L408.34 550.899L407.99 550.959L406.99 551.129H406.71C402.599 551.788 398.443 552.132 394.28 552.159Z" fill="#231F20"/>
<path d="M424.93 442.64C424.93 442.64 420.2 425.71 456.19 420.34C492.18 414.97 509.13 396.81 505.28 348.4C501.43 299.99 496.92 296.14 489.21 296.51C481.5 296.88 476.99 322.17 475.71 340.15C474.43 358.13 473.78 379.15 463.02 383.55C442.81 391.88 426.02 379.62 425.42 364.15C424.82 348.68 406.65 352.76 406.65 352.76L410.78 440.22L424.93 442.64Z" fill="#66BE64"/>
<path d="M505.28 348.4C509.13 396.81 492.18 414.97 456.19 420.34C420.2 425.71 424.93 442.64 424.93 442.64L422.04 442.14L420.43 420.34C420.43 420.34 434 409.87 472.85 396C511.7 382.13 489.21 296.51 489.21 296.51C496.92 296.14 501.42 299.98 505.28 348.4Z" fill="#4CA84E"/>
<path d="M369.91 473.15C369.91 473.15 374.21 457.8 341.55 452.92C308.89 448.04 293.55 431.57 297.03 387.66C300.51 343.75 304.65 340.25 311.65 340.59C318.65 340.93 322.65 363.87 323.85 380.17C325.05 396.47 325.65 415.52 335.36 419.59C353.69 427.14 368.89 416.03 369.47 401.99C370.05 387.95 386.47 391.66 386.47 391.66L382.72 471L369.91 473.15Z" fill="#66BE64"/>
<path d="M297.03 387.66C293.53 431.57 308.9 448.05 341.56 452.92C374.22 457.79 369.91 473.15 369.91 473.15L372.54 472.7L373.99 452.92C373.99 452.92 361.68 443.43 326.44 430.84C291.2 418.25 311.65 340.59 311.65 340.59C304.65 340.25 300.53 343.74 297.03 387.66Z" fill="#4CA84E"/>
<path d="M361.65 539.521C361.65 539.521 353.14 274.591 398.93 275.831C444.72 277.071 426 538.07 426 538.07C426 538.07 401.45 554.471 361.65 539.521Z" fill="#66BE64"/>
<path d="M404.43 545.13C418.26 543.24 426 538.07 426 538.07C426 538.07 444.73 277.07 398.93 275.83C398.93 275.83 420.55 428.95 404.43 545.13Z" fill="#4CA84E"/>
<path d="M418.643 346.426C421.891 345.895 423.876 341.493 423.075 336.593C422.274 331.693 418.992 328.151 415.743 328.681C412.495 329.212 410.51 333.615 411.311 338.515C412.112 343.415 415.394 346.957 418.643 346.426Z" fill="white"/>
<path d="M423.38 351.82C424.882 351.82 426.1 350.651 426.1 349.21C426.1 347.768 424.882 346.6 423.38 346.6C421.878 346.6 420.66 347.768 420.66 349.21C420.66 350.651 421.878 351.82 423.38 351.82Z" fill="white"/>
<path d="M398.93 275.831C353.14 274.591 361.65 539.521 361.65 539.521C366.531 541.367 371.545 542.838 376.65 543.921C370.22 380.471 398.93 275.831 398.93 275.831Z" fill="#4CA84E"/>
<g style="mix-blend-mode:multiply">
<path d="M502.85 385.45C504.12 380.889 504.96 376.218 505.36 371.5C508.68 371.58 512.46 371.31 512.46 371.31C511.67 370.63 508.06 369.31 505.6 368.43C505.767 365.524 505.833 362.46 505.8 359.24C505.67 360.41 502.19 387.58 489.11 398.01C475.68 408.73 447.11 411.47 429.78 422.45C429.78 422.45 427.11 466.9 361.35 462.21L361.28 462.31C361.15 470.4 361.08 478.17 361.06 485.44L357.12 485.67C358.305 486.855 359.624 487.899 361.05 488.78C361.05 495.16 361.05 501.13 361.11 506.57C357.434 506.951 353.781 507.535 350.17 508.32C351.51 509.18 357.29 510.53 361.17 511.32C361.35 528.62 361.7 539.48 361.7 539.48L363.58 540.16L364.07 540.33L365.49 540.82L365.97 540.98L367.39 541.44L367.8 541.56L369.27 542.01L369.59 542.1L371.15 542.54H371.37C371.92 542.69 372.46 542.84 373.01 542.97H373.13C373.71 543.12 374.28 543.25 374.84 543.38H374.89L376.64 543.77C386.166 545.856 395.992 546.194 405.64 544.77H405.89L406.83 544.62L407.15 544.56L408 544.4L408.33 544.34L409.14 544.18L409.46 544.11L410.27 543.93L410.54 543.87L411.4 543.67H411.59C412.59 543.41 413.59 543.13 414.59 542.85H414.7C414.97 542.77 415.24 542.69 415.49 542.6L415.69 542.54L416.37 542.32L416.59 542.25L417.22 542.03L417.42 541.96L418.04 541.74L418.22 541.67C418.44 541.6 418.65 541.52 418.85 541.44H418.97C419.72 541.15 420.42 540.87 421.05 540.59H421.11L421.65 540.35L421.78 540.29L422.22 540.09L422.35 540.02L422.75 539.84L422.88 539.77L423.25 539.59H423.36L423.72 539.41H423.8L424.17 539.22L424.86 538.84L425.09 538.71H425.16L425.33 538.61H425.4L425.53 538.53L425.64 538.47L425.71 538.42C425.71 538.42 426.52 527.13 427.39 509.24C431.879 508.189 436.306 506.887 440.65 505.34C438.98 504.57 431.81 504.03 427.65 503.77C427.99 496.29 428.33 487.87 428.65 478.77C431.49 479.02 436.51 479.39 437.74 479.04C434.829 477.474 431.823 476.091 428.74 474.9C428.99 466.75 429.2 458.12 429.33 449.2C430.393 449.556 431.494 449.788 432.61 449.89C432.61 449.89 431.12 448.57 429.36 447.19C429.36 445.19 429.383 443.19 429.43 441.19C429.43 440.34 429.43 439.48 429.43 438.63C432.24 439.15 435.93 439.76 437 439.56C434.567 437.902 432.05 436.37 429.46 434.97C429.46 433.57 429.46 432.16 429.46 430.75C432.03 428.38 435.87 426.02 441.56 424.05L443.08 423.55C444.16 423.21 445.3 422.89 446.51 422.55L447.15 422.38C448.65 422.01 450.25 421.66 451.95 421.38L453.38 421.12H453.66C456.111 423.482 458.691 425.706 461.39 427.78C461.28 426.64 459.51 423.1 458.08 420.41C471.42 418.17 482.02 414.04 489.79 407.07C492.17 409.16 494.99 411.21 494.99 411.21C494.87 410.21 493.21 407.21 491.99 404.96C494.431 402.405 496.532 399.544 498.24 396.45C498.68 395.66 499.09 394.84 499.49 394.01C499.89 393.18 500.27 392.32 500.63 391.44L500.77 391.08C504.21 390.47 508.35 389.25 508.35 389.25C506.245 388.615 504.08 388.197 501.89 388C501.96 387.77 502.04 387.55 502.11 387.32C502.56 386.42 502.71 385.94 502.85 385.45Z" fill="#4CA84E"/>
</g>
<path d="M407 324.67C407 324.67 420.31 321.72 422.92 322.16C422.92 322.16 412.14 329.73 407.55 330.91C407.55 330.91 405.65 328.64 407 324.67Z" fill="#FAF28C"/>
<path d="M379.65 343.699C379.65 343.699 369.07 341.699 366.98 342.009C366.98 342.009 375.5 347.489 379.14 348.309C379.634 347.659 379.942 346.886 380.031 346.075C380.121 345.263 379.989 344.442 379.65 343.699Z" fill="#FAF28C"/>
<path d="M417.72 299.07C417.72 299.07 431.03 296.13 433.65 296.59C433.65 296.59 422.87 304.17 418.29 305.34C418.28 305.31 416.33 303.04 417.72 299.07Z" fill="#FAF28C"/>
<path d="M368.76 369.17C368.76 369.17 355.47 366.17 352.86 366.58C352.86 366.58 363.59 374.21 368.17 375.41C368.17 375.41 370.13 373.15 368.76 369.17Z" fill="#FAF28C"/>
<path d="M339.32 423.59C339.32 423.59 337.66 413.29 336.59 411.52C336.59 411.52 334.17 421.13 334.59 424.72C335.409 424.949 336.274 424.966 337.102 424.768C337.929 424.571 338.693 424.165 339.32 423.59Z" fill="#FAF28C"/>
<path d="M319.51 369.591C319.51 369.591 332.99 367.501 335.24 366.151C335.24 366.151 322.24 363.041 317.58 363.621C317.58 363.591 316.65 366.391 319.51 369.591Z" fill="#FAF28C"/>
<path d="M424.92 503.25C424.92 503.25 438.56 503.89 440.92 504.99C440.92 504.99 428.41 509.47 423.67 509.4C423.65 509.4 422.46 506.71 424.92 503.25Z" fill="#FAF28C"/>
<path d="M424.24 361.35C424.24 361.35 437.83 362.6 440.16 363.81C440.16 363.81 427.45 367.72 422.72 367.44C422.72 367.44 421.65 364.7 424.24 361.35Z" fill="#FAF28C"/>
<path d="M377.55 310.02C377.55 310.02 364.66 305.69 362.7 304.02C362.7 304.02 376.01 303.14 380.54 304.5C380.54 304.46 380.93 307.37 377.55 310.02Z" fill="#FAF28C"/>
<path d="M409.73 415.02C409.73 415.02 421.65 419.59 423.38 421.19C423.38 421.19 411.91 421.74 407.74 420.31C407.74 420.31 406.55 417.34 409.73 415.02Z" fill="#FAF28C"/>
<path d="M406.04 523.59C406.04 523.59 417.9 528.1 419.69 529.76C419.69 529.76 408.22 530.31 404.05 528.87C404.05 528.89 402.86 525.93 406.04 523.59Z" fill="#FAF28C"/>
<path d="M364.73 512.1C364.73 512.1 352.23 509.65 350.17 508.32C350.17 508.32 361.37 505.85 365.73 506.56C366.213 507.461 366.377 508.498 366.195 509.504C366.013 510.51 365.497 511.425 364.73 512.1Z" fill="#FAF28C"/>
<path d="M409.34 349.211C409.34 349.211 420.71 352.521 422.49 353.931C422.49 353.931 412.29 355.571 408.3 354.551C407.801 353.685 407.632 352.668 407.823 351.687C408.014 350.706 408.553 349.827 409.34 349.211Z" fill="#FAF28C"/>
<path d="M300.14 376.731C300.14 376.731 292.83 367.411 292.21 365.221C292.21 365.221 301.45 369.841 304.1 372.991C304 373.986 303.544 374.912 302.817 375.599C302.09 376.286 301.139 376.688 300.14 376.731Z" fill="#FAF28C"/>
<path d="M384.78 292.79C384.78 292.79 377.12 287.6 375.34 287.23C375.34 287.23 380.15 294.73 382.75 296.62C383.38 296.201 383.896 295.632 384.25 294.963C384.605 294.294 384.787 293.547 384.78 292.79Z" fill="#FAF28C"/>
<path d="M362.65 439.32C362.65 439.32 353.28 439.11 351.65 438.39C351.65 438.39 360.15 435.11 363.41 435.08C363.36 435.08 364.65 437.93 362.65 439.32Z" fill="#FAF28C"/>
<path d="M376.49 424.59C376.49 424.59 367.13 424.38 365.49 423.66C365.49 423.66 373.99 420.38 377.24 420.35C377.22 420.33 378.88 423.19 376.49 424.59Z" fill="#FAF28C"/>
<path d="M368.15 533.83C368.15 533.83 358.78 533.62 357.15 532.91C357.15 532.91 365.65 529.63 368.91 529.59C368.88 529.59 370.53 532.46 368.15 533.83Z" fill="#FAF28C"/>
<path d="M381.31 471.89C381.31 471.89 371.94 471.68 370.31 470.97C370.31 470.97 378.82 467.69 382.07 467.65C382.04 467.65 383.7 470.52 381.31 471.89Z" fill="#FAF28C"/>
<path d="M392.92 279.66C392.92 279.66 389.66 271.21 388.42 269.93C388.42 269.93 387.97 278.74 388.99 281.71C389.761 281.708 390.521 281.521 391.205 281.164C391.889 280.808 392.477 280.292 392.92 279.66Z" fill="#FAF28C"/>
<path d="M426.37 437.591C426.37 437.591 435.52 439.511 437.31 439.191C437.31 439.191 429.85 434.081 426.7 433.311C426.7 433.311 423.88 435.421 426.37 437.591Z" fill="#FAF28C"/>
<path d="M427.65 391.341C427.65 391.341 436.96 392.341 438.7 391.791C438.7 391.791 430.7 387.491 427.49 387.051C427.147 387.72 426.982 388.466 427.01 389.217C427.038 389.968 427.258 390.699 427.65 391.341Z" fill="#FAF28C"/>
<path d="M310.06 436.421C310.06 436.421 306.25 442.841 306.06 444.261C306.06 444.261 312.06 439.911 313.46 437.721C313.04 437.246 312.511 436.881 311.919 436.654C311.327 436.428 310.69 436.348 310.06 436.421Z" fill="#FAF28C"/>
<path d="M421.13 319.041C421.13 319.041 430.13 316.581 431.57 315.491C431.57 315.491 422.48 314.361 419.32 315.111C419.32 315.111 418.93 317.091 421.13 319.041Z" fill="#FAF28C"/>
<path d="M396.16 369.06L402.64 367.17C400.411 365.772 397.926 364.83 395.33 364.4C395.33 364.4 392.86 366.73 396.16 369.06Z" fill="#FAF28C"/>
<path d="M396.16 483.52L402.65 481.59C400.422 480.192 397.936 479.254 395.34 478.83C395.34 478.83 392.86 481.2 396.16 483.52Z" fill="#FAF28C"/>
<path d="M389.36 401.67L382.6 402.07C384.433 403.929 386.624 405.399 389.04 406.39C389.04 406.39 392 404.68 389.36 401.67Z" fill="#FAF28C"/>
<path d="M313.54 407.28L319.87 409.68C318.96 407.228 317.558 404.989 315.75 403.1C315.75 403.1 312.35 403.46 313.54 407.28Z" fill="#FAF28C"/>
<path d="M363.88 485.279L357.12 485.669C358.954 487.529 361.144 488.998 363.56 489.989C363.56 489.989 366.52 488.279 363.88 485.279Z" fill="#FAF28C"/>
<path d="M329.17 440.811L322.41 441.201C324.242 443.065 326.433 444.538 328.85 445.531C328.85 445.531 331.81 443.811 329.17 440.811Z" fill="#FAF28C"/>
<path d="M380.65 506.33L373.89 506.72C375.718 508.586 377.91 510.056 380.33 511.04C380.33 511.04 383.26 509.33 380.65 506.33Z" fill="#FAF28C"/>
<path d="M396.06 302.43L389.48 300.91C390.668 303.207 392.319 305.233 394.33 306.86C394.33 306.86 397.28 306.04 396.06 302.43Z" fill="#FAF28C"/>
<path d="M412 380.681C412 380.681 421.32 381.681 423.06 381.141C423.06 381.141 415.06 376.831 411.84 376.391C411.497 377.06 411.332 377.805 411.36 378.557C411.388 379.308 411.608 380.039 412 380.681Z" fill="#FAF28C"/>
<path d="M426.94 478.261C426.94 478.261 436.26 479.261 438 478.711C438 478.711 430 474.401 426.79 473.961C426.448 474.631 426.282 475.378 426.308 476.13C426.334 476.883 426.552 477.616 426.94 478.261Z" fill="#FAF28C"/>
<path d="M321.12 391.341C321.12 391.341 330.43 392.341 332.18 391.791C332.18 391.791 324.18 387.491 320.96 387.051C320.617 387.72 320.452 388.466 320.48 389.217C320.508 389.968 320.728 390.699 321.12 391.341Z" fill="#FAF28C"/>
<path d="M300.79 387.081C300.79 387.081 293.71 384.211 292.22 384.211C292.22 384.211 297.44 389.411 299.86 390.491C300.289 390.047 300.6 389.501 300.763 388.905C300.925 388.309 300.935 387.682 300.79 387.081Z" fill="#FAF28C"/>
<path d="M403.3 447.46C403.3 447.46 412.62 448.46 414.36 447.91C414.36 447.91 406.36 443.61 403.15 443.17C402.808 443.839 402.642 444.584 402.668 445.334C402.694 446.085 402.912 446.817 403.3 447.46Z" fill="#FAF28C"/>
<path d="M413.92 288.711C413.92 288.711 420.13 281.961 420.71 280.301C420.71 280.301 412.43 284.081 410.2 286.351C410.2 286.351 410.98 288.221 413.92 288.711Z" fill="#FAF28C"/>
<path d="M372.53 390.49C372.53 390.49 365.05 391.26 363.77 391.94C363.77 391.94 370.77 394.01 373.41 393.83C373.41 393.83 375.19 390.92 372.53 390.49Z" fill="#FAF28C"/>
<path d="M303.06 422.83C303.06 422.83 295.29 423.63 293.96 424.34C293.96 424.34 301.26 426.49 303.96 426.34C303.96 426.29 305.82 423.28 303.06 422.83Z" fill="#FAF28C"/>
<path d="M318.74 350.591C318.74 350.591 325.36 347.151 326.28 346.061C326.28 346.061 318.96 346.701 316.62 347.821C316.65 347.771 316.11 351.111 318.74 350.591Z" fill="#FAF28C"/>
<path d="M353.33 423.65C353.33 423.65 351.68 416.58 350.84 415.43C350.84 415.43 349.49 422.43 349.98 424.86C349.98 424.86 353.18 426.24 353.33 423.65Z" fill="#FAF28C"/>
<path d="M424.35 447.22C424.35 447.22 431.44 449.64 432.9 449.56C432.9 449.56 427.49 444.76 425.06 443.84C425.06 443.84 422.14 445.72 424.35 447.22Z" fill="#FAF28C"/>
<path d="M385.35 324.921C385.35 324.921 378.87 321.241 377.42 321.051C377.42 321.051 381.78 326.751 383.98 328.101C383.98 328.101 387.22 326.801 385.35 324.921Z" fill="#FAF28C"/>
<path d="M304.65 346.289C304.65 346.289 299.34 343.289 298.15 343.119C298.15 343.119 301.72 347.789 303.53 348.899C303.53 348.899 306.18 347.829 304.65 346.289Z" fill="#FAF28C"/>
<path d="M363.74 402.59C363.74 402.59 354.87 405.51 353.52 406.68C353.52 406.68 362.65 407.33 365.77 406.41C365.77 406.37 366.95 402.59 363.74 402.59Z" fill="#FAF28C"/>
<path d="M341.17 449.59C341.17 449.59 336.72 457.53 336.54 459.27C336.54 459.27 343.72 453.79 345.36 451.08C345.36 451.1 343.53 447.51 341.17 449.59Z" fill="#FAF28C"/>
<path d="M298.89 405.09C298.89 405.09 291.62 407.49 290.51 408.45C290.51 408.45 298 408.98 300.51 408.23C300.55 408.23 301.53 405.09 298.89 405.09Z" fill="#FAF28C"/>
<path d="M458.65 387.94C458.65 387.94 460.48 376.6 461.65 374.65C461.65 374.65 464.32 385.24 463.82 389.19C462.923 389.434 461.978 389.448 461.075 389.229C460.171 389.011 459.337 388.567 458.65 387.94Z" fill="#FAF28C"/>
<path d="M480.49 328.45C480.49 328.45 465.63 326.15 463.16 324.66C463.16 324.66 477.43 321.23 482.62 321.86C482.65 321.86 483.65 324.95 480.49 328.45Z" fill="#FAF28C"/>
<path d="M501.84 336.34C501.84 336.34 509.91 326.07 510.59 323.67C510.59 323.67 500.4 328.75 497.48 332.23C497.588 333.326 498.089 334.346 498.89 335.102C499.692 335.857 500.739 336.297 501.84 336.34Z" fill="#FAF28C"/>
<path d="M490.91 402.15C490.91 402.15 495.11 409.22 495.31 410.79C495.31 410.79 488.7 405.99 487.16 403.58C487.624 403.058 488.207 402.656 488.86 402.407C489.513 402.158 490.216 402.07 490.91 402.15Z" fill="#FAF28C"/>
<path d="M487.07 370.02L480.07 372.67C481.071 369.97 482.613 367.503 484.6 365.42C484.6 365.42 488.38 365.81 487.07 370.02Z" fill="#FAF28C"/>
<path d="M469.84 406.99L477.29 407.42C475.272 409.476 472.856 411.099 470.19 412.19C470.19 412.19 466.93 410.3 469.84 406.99Z" fill="#FAF28C"/>
<path d="M478.72 352.461C478.72 352.461 468.45 353.511 466.53 352.951C466.53 352.951 475.34 348.211 478.89 347.721C478.89 347.721 480.14 349.591 478.72 352.461Z" fill="#FAF28C"/>
<path d="M501.13 347.76C501.13 347.76 508.93 344.6 510.57 344.6C510.57 344.6 504.82 350.33 502.15 351.52C501.674 351.032 501.33 350.43 501.151 349.772C500.973 349.114 500.965 348.421 501.13 347.76Z" fill="#FAF28C"/>
<path d="M498.65 387.16C498.65 387.16 507.21 388.05 508.65 388.83C508.65 388.83 500.65 391.2 497.65 390.99C497.65 390.99 495.59 387.66 498.65 387.16Z" fill="#FAF28C"/>
<path d="M481.34 307.48C481.34 307.48 474.04 303.69 473.03 302.48C473.03 302.48 481.1 303.19 483.68 304.42C483.65 304.42 484.24 308.1 481.34 307.48Z" fill="#FAF28C"/>
<path d="M496.87 302.791C496.87 302.791 502.73 299.471 504.03 299.301C504.03 299.301 500.1 304.451 498.11 305.671C498.11 305.671 495.18 304.491 496.87 302.791Z" fill="#FAF28C"/>
<path d="M456.65 416.689C456.65 416.689 461.55 425.439 461.74 427.359C461.74 427.359 453.84 421.359 452.03 418.359C452 418.329 454.01 414.379 456.65 416.689Z" fill="#FAF28C"/>
<path d="M503.22 367.59C503.22 367.59 511.22 370.24 512.46 371.29C512.46 371.29 504.2 371.88 501.39 371.05C501.39 371.07 500.31 367.59 503.22 367.59Z" fill="#FAF28C"/>
</g>
<defs>
<clipPath id="clip0_4906_944">
<rect width="619.18" height="838.58" fill="white"/>
</clipPath>
</defs>
</svg>
