<svg width="219" height="230" viewBox="0 0 219 230" fill="none" xmlns="http://www.w3.org/2000/svg">
<g clip-path="url(#clip0_2856_281)">
<path d="M45.0798 50.3599C46.7337 50.318 48.3848 50.5202 49.9798 50.9599C51.0496 51.2546 52.0633 51.7243 52.9798 52.3499C53.7454 53.0095 54.2813 53.8956 54.5098 54.8799C54.812 55.8211 55.0033 56.7944 55.0798 57.7799C55.0798 58.5399 55.1398 59.7799 55.1398 61.3299V128.51C55.1592 129.899 55.1024 131.287 54.9698 132.67C54.7914 133.79 54.4263 134.871 53.8898 135.87C53.573 136.477 53.137 137.014 52.6077 137.449C52.0785 137.884 51.467 138.207 50.8098 138.4C48.9219 138.939 46.962 139.182 44.9998 139.12C43.0739 139.179 41.1506 138.936 39.2998 138.4C38.6489 138.212 38.0418 137.896 37.5132 137.472C36.9846 137.049 36.545 136.524 36.2198 135.93C35.6693 134.916 35.3036 133.812 35.1398 132.67C35.0084 131.207 34.9517 129.739 34.9698 128.27V85.2099L33.4898 86.6599C30.3698 89.1533 27.7865 90.3999 25.7398 90.3999C23.3898 90.3999 21.1798 89.1899 19.1298 86.7799C16.4031 83.5666 15.0365 80.8333 15.0298 78.5799C15.0298 76.4933 16.3965 74.1599 19.1298 71.5799L37.8198 53.73L38.1598 53.48C39.029 52.5025 40.0946 51.7194 41.287 51.1817C42.4794 50.6441 43.7718 50.3641 45.0798 50.3599Z" fill="white"/>
<path d="M112.54 50.3599C114.47 50.2973 116.398 50.561 118.24 51.1399C119.555 51.5602 120.657 52.4695 121.32 53.6799C121.863 54.6721 122.229 55.7517 122.4 56.8699C122.531 58.2726 122.588 59.6812 122.57 61.0899V128.14C122.595 129.55 122.518 130.961 122.34 132.36C122.14 133.474 121.776 134.552 121.26 135.56C120.945 136.162 120.509 136.692 119.979 137.117C119.449 137.543 118.836 137.853 118.18 138.03C116.271 138.566 114.292 138.809 112.31 138.75C110.656 138.791 109.005 138.588 107.41 138.15C106.327 137.861 105.309 137.369 104.41 136.7C103.667 136.044 103.132 135.186 102.87 134.23C102.567 133.33 102.376 132.396 102.3 131.45C102.3 130.69 102.25 129.55 102.25 128.02V113.31H71.4101C69.7562 113.352 68.1051 113.15 66.5101 112.71C65.4255 112.426 64.4065 111.933 63.5101 111.26C62.7686 110.603 62.2337 109.745 61.9701 108.79C61.6673 107.893 61.4759 106.963 61.4001 106.02C61.4001 105.25 61.3501 104.11 61.3501 102.58C61.327 101.285 61.4409 99.991 61.6901 98.7199L71.1501 58.3199C71.6001 56.4699 72.0001 55.0599 72.3401 54.0999C72.7752 53.0109 73.4849 52.0531 74.4001 51.3199C75.5301 50.411 76.951 49.942 78.4001 49.9999C80.1413 50.035 81.8686 50.3179 83.5301 50.8399C88.8401 52.3699 91.5301 54.9399 91.5301 58.5599C91.4646 60.2756 91.196 61.9774 90.7301 63.6299L90.6101 63.7499V63.9899L83.6601 93.4099H102.24V60.4899C102.214 59.121 102.271 57.7519 102.41 56.3899C102.586 55.3328 102.952 54.3164 103.49 53.3899C103.827 52.8078 104.278 52.2997 104.816 51.8959C105.353 51.4921 105.967 51.201 106.62 51.0399C108.552 50.5367 110.545 50.3078 112.54 50.3599Z" fill="white"/>
<path d="M149.18 142.14C151.311 142.113 153.419 142.582 155.338 143.509C157.258 144.435 158.936 145.795 160.24 147.48C163.232 151.17 164.8 155.811 164.66 160.56V172.94C164.674 173.748 164.641 174.556 164.56 175.36C164.468 176 164.265 176.619 163.96 177.19C163.783 177.539 163.535 177.848 163.232 178.096C162.929 178.344 162.578 178.526 162.2 178.63C161.102 178.945 159.962 179.086 158.82 179.05C157.708 179.086 156.597 178.944 155.53 178.63C154.777 178.4 154.145 177.882 153.77 177.19C153.445 176.615 153.231 175.984 153.14 175.33C153.06 174.486 153.026 173.638 153.04 172.79V160.49C153.138 158.848 152.589 157.232 151.51 155.99C151.009 155.458 150.4 155.038 149.724 154.759C149.048 154.479 148.321 154.347 147.59 154.37C146.08 154.36 144.616 154.896 143.47 155.88C142.378 156.716 141.642 157.934 141.41 159.29V172.94C141.424 173.748 141.391 174.556 141.31 175.36C141.214 175.999 141.011 176.618 140.71 177.19C140.532 177.538 140.283 177.846 139.981 178.094C139.678 178.342 139.327 178.524 138.95 178.63C137.849 178.946 136.705 179.087 135.56 179.05C134.438 179.084 133.318 178.942 132.24 178.63C131.859 178.522 131.505 178.334 131.201 178.079C130.898 177.824 130.652 177.507 130.48 177.15C130.191 176.576 129.989 175.963 129.88 175.33C129.803 174.512 129.77 173.691 129.78 172.87V130.81C129.771 129.999 129.805 129.188 129.88 128.38C129.983 127.742 130.185 127.125 130.48 126.55C130.66 126.203 130.909 125.896 131.211 125.648C131.514 125.401 131.864 125.217 132.24 125.11C133.341 124.794 134.485 124.653 135.63 124.69C136.752 124.656 137.872 124.798 138.95 125.11C139.331 125.22 139.684 125.408 139.987 125.663C140.29 125.918 140.537 126.234 140.71 126.59C141.008 127.174 141.211 127.802 141.31 128.45C141.391 129.257 141.424 130.069 141.41 130.88V146.42C143.62 143.56 146.22 142.14 149.18 142.14Z" fill="white"/>
<path d="M187.45 166.67H198.81C199.586 166.65 200.362 166.697 201.13 166.81C201.745 166.934 202.332 167.172 202.86 167.51C203.526 167.954 204.001 168.632 204.19 169.41C204.719 171.713 204.719 174.107 204.19 176.41C204.097 176.798 203.925 177.163 203.687 177.483C203.448 177.803 203.146 178.071 202.8 178.27C202.252 178.585 201.653 178.802 201.03 178.91C200.27 178.991 199.505 179.024 198.74 179.01H174.74C173.974 179.01 173.216 178.847 172.518 178.532C171.819 178.216 171.196 177.755 170.69 177.18C169.58 176.002 168.961 174.444 168.961 172.825C168.961 171.206 169.58 169.648 170.69 168.47C171.837 167.29 173.607 165.577 176 163.33C178.393 161.083 180.563 159.057 182.51 157.25C184.463 155.45 185.527 154.45 185.7 154.25H176.35C175.51 154.25 174.88 154.25 174.46 154.25C173.937 154.201 173.423 154.083 172.93 153.9C172.392 153.727 171.918 153.396 171.57 152.95C171.203 152.389 170.933 151.77 170.77 151.12C170.332 149.144 170.332 147.096 170.77 145.12C170.922 144.466 171.193 143.846 171.57 143.29C171.929 142.863 172.4 142.544 172.93 142.37C173.423 142.187 173.937 142.069 174.46 142.02C174.88 142.02 175.51 142.02 176.35 142.02H197.95C198.702 142.023 199.445 142.18 200.134 142.483C200.822 142.786 201.44 143.227 201.95 143.78C202.512 144.34 202.955 145.008 203.252 145.743C203.549 146.479 203.695 147.267 203.68 148.06C203.717 148.873 203.588 149.685 203.301 150.447C203.013 151.208 202.574 151.903 202.01 152.49C200.497 154.07 195.643 158.797 187.45 166.67Z" fill="white"/>
</g>
<defs>
<clipPath id="clip0_2856_281">
<rect width="189.59" height="129.04" fill="white" transform="translate(15 50)"/>
</clipPath>
</defs>
</svg>
