<svg width="620" height="839" viewBox="0 0 620 839" fill="none" xmlns="http://www.w3.org/2000/svg">
<g clip-path="url(#clip0_4883_647)">
<path d="M309.59 838.58C480.572 838.58 619.18 809.519 619.18 773.67C619.18 737.821 480.572 708.76 309.59 708.76C138.608 708.76 0 737.821 0 773.67C0 809.519 138.608 838.58 309.59 838.58Z" fill="#A7A9AC"/>
<path d="M161.72 785.65C158.911 785.651 156.133 785.06 153.567 783.916C151.001 782.772 148.705 781.1 146.829 779.009C144.953 776.919 143.538 774.456 142.676 771.782C141.815 769.108 141.526 766.283 141.83 763.49C141.83 763.38 141.96 762.24 142.12 760.3C142.12 759.8 142.2 759.3 142.25 758.69C142.47 755.69 142.76 750.99 142.92 745.28C142.92 744.28 142.97 743.28 142.99 742.17V740.55C142.99 739.47 142.99 738.36 142.99 737.22C142.99 732.29 142.87 727.46 142.62 722.86C142.48 720.3 142.3 717.78 142.09 715.36C141.98 714.11 141.85 712.86 141.72 711.6C141.59 710.34 141.44 709.12 141.27 707.88C141.1 706.64 140.94 705.42 140.75 704.2C140.66 703.6 140.56 703 140.46 702.39C140.26 701.19 140.05 700.01 139.82 698.83C139.7 698.25 139.59 697.68 139.47 697.1C138.705 693.334 137.703 689.62 136.47 685.98C136.31 685.51 136.14 685.04 135.97 684.58C135.343 682.876 134.626 681.207 133.82 679.58C133.28 678.49 132.71 677.47 132.14 676.58C130.56 674.05 128.87 671.41 126.96 668.51C125.34 666.04 123.79 663.71 122.29 661.51L122.05 661.15C120.41 658.7 118.85 656.36 117.37 654.08C116.37 652.48 115.32 650.92 114.37 649.37C113.42 647.82 112.37 646.11 111.48 644.57C110.48 642.85 109.57 641.22 108.71 639.57C106.862 636.077 105.216 632.481 103.78 628.8C103.02 626.87 102.33 624.9 101.71 622.94C100.71 619.94 99.9099 616.76 99.2299 613.55C97.2937 603.913 96.3786 594.099 96.4999 584.27V201.42C96.4463 193.866 96.9544 186.319 98.0199 178.84C98.967 172.352 100.534 165.969 102.7 159.78C103.05 158.78 103.4 157.85 103.77 156.9C104.5 155.05 105.29 153.18 106.13 151.36C106.53 150.48 106.96 149.59 107.39 148.72C108.22 147.04 109.12 145.32 110.07 143.6C111.02 141.88 111.87 140.43 112.9 138.72C113.82 137.21 114.78 135.66 115.9 133.97C117.9 130.82 120.04 127.63 122.1 124.55L122.29 124.26C125.44 119.56 128.68 114.69 132.19 109.08C134.225 105.666 135.843 102.02 137.01 98.2201C138.375 93.9066 139.451 89.5068 140.23 85.0501C140.44 83.8601 140.65 82.6601 140.83 81.4501C141.71 75.7601 142.34 69.4501 142.7 62.7901C142.95 58.1901 143.07 53.3601 143.07 48.4301C143.07 33.4801 141.87 22.2501 141.86 22.1401C141.56 19.3488 141.85 16.5256 142.713 13.854C143.576 11.1825 144.991 8.72253 146.867 6.63414C148.743 4.54574 151.038 2.87574 153.602 1.73274C156.166 0.589753 158.943 -0.00061282 161.75 6.37079e-05H529.16C531.91 -0.00687788 534.632 0.553517 537.156 1.64622C539.68 2.73892 541.952 4.34045 543.829 6.35072C545.706 8.36099 547.148 10.7368 548.065 13.3296C548.983 15.9225 549.355 18.6767 549.16 21.4201C549.16 21.6701 549.16 21.9201 549.09 22.1801C549.09 22.1801 549.01 23.0801 549 23.1101L548.83 25.0501C548.83 25.0501 548.76 25.9201 548.76 25.9601C548.69 26.8801 548.61 27.9601 548.53 29.1401L548.45 30.5001C548.32 32.5001 548.22 34.5701 548.14 36.5901V36.6501C548.01 39.7201 547.94 42.8101 547.91 45.8301V45.9401C547.91 49.4501 547.91 52.9401 548 56.3201V56.4301C548.09 59.4301 548.23 62.4301 548.41 65.2701V65.4601C548.41 66.1201 548.5 66.8001 548.56 67.4601V67.6501C548.62 68.4601 548.68 69.1801 548.74 69.9101C550.67 92.1301 555.25 103.48 558.74 109.08C562.23 114.68 565.52 119.59 568.67 124.31C583.04 145.84 594.39 162.84 594.39 201.42V584.19C594.39 614.52 587.55 631.58 576.52 649.28C575.52 650.83 574.52 652.39 573.52 653.98C572.52 655.57 571.52 657.08 570.41 658.69L567.86 662.51C566.59 664.42 565.27 666.39 563.86 668.46C561.96 671.37 560.27 674.01 558.69 676.53C558.08 677.501 557.519 678.502 557.01 679.53C556.204 681.157 555.486 682.826 554.86 684.53C554.69 685 554.52 685.46 554.36 685.93C553.128 689.567 552.126 693.278 551.36 697.04C551.24 697.62 551.13 698.2 551.01 698.78C550.78 699.96 550.57 701.15 550.37 702.34C550.27 702.93 550.17 703.54 550.08 704.14C549.89 705.37 549.72 706.6 549.56 707.83C549.4 709.06 549.25 710.31 549.11 711.55C548.97 712.79 548.85 714.06 548.74 715.31V715.68C548.68 716.42 548.62 717.14 548.56 717.86V718.07C548.5 718.79 548.46 719.47 548.41 720.14V720.32C548.23 723.19 548.09 726.16 548 729.16V729.24C547.9 732.71 547.87 736.24 547.91 739.75C547.91 742.75 548.01 745.82 548.13 748.86C548.135 748.893 548.135 748.927 548.13 748.96C548.21 750.96 548.31 753.03 548.43 755.03C548.43 755.03 548.52 756.34 548.52 756.36C548.6 757.6 548.68 758.7 548.75 759.65L548.9 761.37L549.1 763.48C549.405 766.278 549.117 769.109 548.253 771.787C547.389 774.466 545.97 776.932 544.088 779.025C542.206 781.117 539.904 782.789 537.331 783.931C534.759 785.072 531.974 785.658 529.16 785.65H161.72Z" fill="#231F20"/>
<path d="M161.72 765.65C161.72 765.65 169.05 697.87 149.12 665.97C129.19 634.07 116.51 624.1 116.51 584.23V201.42C116.51 161.55 129.18 151.58 149.12 119.68C169.06 87.78 161.72 20 161.72 20H515.86C515.86 20 523.2 87.79 503.27 119.68C483.34 151.57 470.65 161.55 470.65 201.42V584.19C470.65 624.06 483.32 634.03 503.26 665.93C523.2 697.83 515.86 765.65 515.86 765.65H161.72Z" fill="#71A29E"/>
<path d="M183.7 665.93C163.77 634.03 151.09 624.06 151.09 584.19V201.42C151.09 161.55 163.77 151.58 183.7 119.68C203.63 87.78 196.3 20 196.3 20H161.72C161.72 20 169.05 87.79 149.12 119.68C129.19 151.57 116.51 161.55 116.51 201.42V584.19C116.51 624.06 129.18 634.03 149.12 665.93C169.06 697.83 161.72 765.65 161.72 765.65H196.3C196.3 765.65 203.65 697.83 183.7 665.93Z" fill="#587B75"/>
<path d="M529.16 765.65C529.16 765.65 521.83 697.87 541.76 665.97C561.69 634.07 574.37 624.1 574.37 584.23V201.42C574.37 161.55 561.7 151.58 541.76 119.68C521.82 87.78 529.16 20 529.16 20H175.01C175.01 20 167.65 87.79 187.65 119.65C207.65 151.51 220.26 161.52 220.26 201.39V584.19C220.26 624.06 207.59 634.03 187.65 665.93C167.71 697.83 175.01 765.65 175.01 765.65H529.16Z" fill="#C5E6DC"/>
<path d="M574.37 323.029H220.22V462.579H574.37V323.029Z" fill="#48BEA2"/>
<path d="M401.25 541.319C483.275 541.319 549.77 474.825 549.77 392.799C549.77 310.774 483.275 244.279 401.25 244.279C319.225 244.279 252.73 310.774 252.73 392.799C252.73 474.825 319.225 541.319 401.25 541.319Z" fill="#FAF28C"/>
<path d="M529.16 20H175.01C173.412 37.1746 173.291 54.4548 174.65 71.65H528.78C527.431 54.4541 527.558 37.1742 529.16 20Z" fill="#98CFC0"/>
<path d="M174.65 713.98C173.295 731.169 173.419 748.443 175.02 765.61H529.16C527.559 748.443 527.432 731.17 528.78 713.98H174.65Z" fill="#98CFC0"/>
<g style="mix-blend-mode:multiply">
<path d="M219.57 598.55C216.74 627.07 204.91 638.25 187.57 665.93C167.65 697.83 175.01 765.65 175.01 765.65H529.16C529.16 765.65 521.83 697.87 541.76 665.97C561.69 634.07 574.37 624.1 574.37 584.23V201.42C574.37 201.42 550.57 598.55 219.57 598.55Z" fill="#CEEAE2"/>
</g>
<path d="M523.96 593.2C543.185 593.2 558.77 577.615 558.77 558.39C558.77 539.165 543.185 523.58 523.96 523.58C504.735 523.58 489.15 539.165 489.15 558.39C489.15 577.615 504.735 593.2 523.96 593.2Z" fill="#E9F3F9"/>
<g style="mix-blend-mode:multiply">
<path d="M574.37 584.191V499.091L572.43 496.971C572.43 496.971 560.78 675.911 187.65 665.931C167.65 697.831 175.01 765.651 175.01 765.651H529.16C529.16 765.651 521.83 697.871 541.76 665.971C561.69 634.071 574.37 624.061 574.37 584.191Z" fill="#CEEAE2"/>
</g>
<path d="M346.84 188.649H370.23C371.079 188.635 371.927 188.679 372.77 188.779C373.416 188.902 374.04 189.121 374.62 189.429C374.98 189.627 375.295 189.897 375.546 190.223C375.797 190.548 375.979 190.921 376.08 191.319C376.404 192.525 376.549 193.771 376.51 195.019C376.546 196.237 376.401 197.454 376.08 198.629C375.974 199.036 375.787 199.417 375.529 199.749C375.271 200.081 374.948 200.356 374.58 200.559C373.977 200.898 373.321 201.131 372.64 201.249C371.814 201.352 370.982 201.396 370.15 201.379H339.15C337.903 201.411 336.657 201.266 335.45 200.949C334.648 200.756 333.889 200.417 333.21 199.949C332.659 199.489 332.256 198.877 332.05 198.189C331.82 197.544 331.675 196.872 331.62 196.189C331.62 195.639 331.62 194.829 331.62 193.739V145.949C331.601 144.947 331.645 143.945 331.75 142.949C331.884 142.149 332.162 141.38 332.57 140.679C332.812 140.235 333.143 139.845 333.542 139.534C333.941 139.222 334.4 138.996 334.89 138.869C336.316 138.478 337.792 138.303 339.27 138.349C340.517 138.322 341.762 138.467 342.97 138.779C343.77 138.976 344.529 139.315 345.21 139.779C345.761 140.243 346.164 140.859 346.37 141.549C346.602 142.194 346.747 142.866 346.8 143.549C346.8 144.089 346.8 144.909 346.8 145.999L346.84 188.649Z" fill="#115E49"/>
<path d="M389.58 149.99C388.129 150.031 386.681 149.859 385.28 149.48C384.796 149.352 384.343 149.125 383.951 148.813C383.558 148.502 383.235 148.112 383 147.67C382.622 146.956 382.362 146.186 382.23 145.39C382.057 143.417 382.057 141.433 382.23 139.46C382.358 138.675 382.618 137.917 383 137.22C383.24 136.786 383.566 136.407 383.958 136.104C384.35 135.801 384.8 135.582 385.28 135.46C386.71 135.073 388.189 134.898 389.67 134.94C391.121 134.901 392.57 135.076 393.97 135.46C394.454 135.586 394.906 135.811 395.298 136.121C395.691 136.431 396.015 136.818 396.25 137.26C396.63 137.972 396.89 138.743 397.02 139.54C397.193 141.516 397.193 143.503 397.02 145.48C396.896 146.263 396.636 147.017 396.25 147.71C396.01 148.144 395.684 148.525 395.292 148.83C394.9 149.134 394.45 149.355 393.97 149.48C392.539 149.863 391.06 150.034 389.58 149.99ZM382.1 163.65C382.081 162.648 382.124 161.646 382.23 160.65C382.359 159.865 382.62 159.108 383 158.41C383.242 157.978 383.568 157.599 383.96 157.297C384.352 156.994 384.801 156.774 385.28 156.65C386.71 156.263 388.189 156.088 389.67 156.13C390.901 156.106 392.13 156.254 393.32 156.57C394.126 156.75 394.888 157.09 395.56 157.57C396.092 158.039 396.481 158.649 396.68 159.33C396.912 159.974 397.057 160.647 397.11 161.33C397.11 161.87 397.11 162.69 397.11 163.78V193.88C397.129 194.881 397.086 195.883 396.98 196.88C396.856 197.663 396.596 198.417 396.21 199.11C395.969 199.543 395.643 199.923 395.251 200.228C394.859 200.532 394.41 200.754 393.93 200.88C392.499 201.263 391.02 201.434 389.54 201.39C388.089 201.431 386.641 201.259 385.24 200.88C384.756 200.752 384.303 200.525 383.911 200.213C383.518 199.902 383.195 199.512 382.96 199.07C382.587 198.368 382.327 197.612 382.19 196.83C382.084 195.833 382.04 194.831 382.06 193.83L382.1 163.65Z" fill="#115E49"/>
<path d="M404.03 142.34C404.011 141.338 404.054 140.336 404.16 139.34C404.287 138.542 404.547 137.771 404.93 137.06C405.164 136.618 405.487 136.229 405.88 135.919C406.272 135.609 406.725 135.385 407.21 135.26C408.639 134.868 410.119 134.693 411.6 134.74C413.041 134.695 414.48 134.884 415.86 135.3C416.817 135.598 417.627 136.244 418.13 137.11C418.543 137.812 418.821 138.585 418.95 139.39C419.053 140.386 419.097 141.388 419.08 142.39V182.21C419.08 184.28 419.25 185.58 419.6 186.13C419.95 186.68 420.89 186.94 422.43 186.94C423.036 186.927 423.642 186.971 424.24 187.07C424.779 187.224 425.287 187.471 425.74 187.8C426.422 188.314 426.883 189.069 427.03 189.91C427.322 191.222 427.453 192.566 427.42 193.91C427.452 195.353 427.322 196.796 427.03 198.21C426.896 199.103 426.437 199.915 425.74 200.49C425.286 200.852 424.762 201.114 424.2 201.26C423.589 201.362 422.969 201.406 422.35 201.39C419.909 201.422 417.468 201.308 415.04 201.05C413.28 200.838 411.558 200.388 409.92 199.71C408.436 199.146 407.192 198.086 406.4 196.71C405.534 195.064 404.943 193.287 404.65 191.45C404.205 188.747 404.004 186.009 404.05 183.27L404.03 142.34Z" fill="#115E49"/>
<path d="M469.99 156.65C473.377 158.136 475.07 159.94 475.07 162.06C474.918 163.508 474.479 164.912 473.78 166.19V166.28C473.753 166.299 473.731 166.325 473.715 166.354C473.7 166.384 473.691 166.416 473.69 166.45L451.16 216.84C450.7 217.93 450.31 218.77 450 219.34C449.617 219.984 449.103 220.539 448.49 220.97C447.796 221.491 446.948 221.766 446.08 221.75C444.436 221.621 442.831 221.184 441.35 220.46C437.97 218.973 436.28 217.193 436.28 215.12C436.463 213.559 436.927 212.045 437.65 210.65C439.77 205.776 442.063 200.703 444.53 195.43L427.41 166.62C426.506 165.375 425.916 163.931 425.69 162.41C425.69 160.57 427.24 158.74 430.34 156.9C431.83 155.904 433.553 155.312 435.34 155.18C436.139 155.177 436.921 155.418 437.58 155.87C438.173 156.237 438.687 156.72 439.09 157.29C439.403 157.783 439.873 158.543 440.5 159.57C445.547 168.236 449.36 174.656 451.94 178.83C452.233 177.923 454.987 171.76 460.2 160.34C460.6 159.43 460.9 158.77 461.1 158.34C461.366 157.834 461.684 157.358 462.05 156.92C462.416 156.418 462.905 156.018 463.47 155.76C464.068 155.511 464.712 155.392 465.36 155.41C466.971 155.506 468.546 155.927 469.99 156.65Z" fill="#115E49"/>
<path d="M290.12 304.62C307.186 304.62 321.02 290.786 321.02 273.72C321.02 256.655 307.186 242.82 290.12 242.82C273.054 242.82 259.22 256.655 259.22 273.72C259.22 290.786 273.054 304.62 290.12 304.62Z" fill="#E9F3F9"/>
<path d="M269.17 237.89C278.487 237.89 286.04 230.337 286.04 221.02C286.04 211.703 278.487 204.15 269.17 204.15C259.853 204.15 252.3 211.703 252.3 221.02C252.3 230.337 259.853 237.89 269.17 237.89Z" fill="#E9F3F9"/>
<path d="M305.35 666.7C299.553 666.699 293.88 665.025 289.01 661.88C288.492 661.573 288.067 661.133 287.778 660.605C287.49 660.077 287.349 659.481 287.37 658.88C287.37 657.22 288.46 654.87 290.64 651.83C290.952 651.348 291.388 650.959 291.901 650.703C292.415 650.446 292.987 650.331 293.56 650.37C295.438 650.496 297.25 651.117 298.81 652.17C301.617 653.777 303.997 654.58 305.95 654.58C309.443 654.58 311.19 653.893 311.19 652.52C311.19 651.94 310.65 651.46 309.56 651.06C308.222 650.595 306.837 650.277 305.43 650.11C303.593 649.836 301.792 649.359 300.06 648.69C298.185 647.995 296.383 647.118 294.68 646.07C292.875 644.869 291.444 643.185 290.55 641.21C289.407 638.748 288.849 636.054 288.92 633.34C288.92 624.28 295.14 619.75 307.58 619.75C311.926 619.806 316.209 620.795 320.14 622.65C322.14 623.56 323.14 624.82 323.14 626.43C322.949 628.107 322.325 629.706 321.33 631.07C319.997 633.137 318.68 634.17 317.38 634.17C316.357 634.077 315.361 633.785 314.45 633.31C312.272 632.228 309.882 631.641 307.45 631.59C304.057 631.59 302.363 632.22 302.37 633.48C302.399 633.971 302.574 634.442 302.874 634.833C303.173 635.223 303.583 635.515 304.05 635.67C305.381 636.276 306.804 636.655 308.26 636.79C310.109 637.025 311.935 637.413 313.72 637.95C315.596 638.5 317.422 639.205 319.18 640.06C320.984 640.999 322.457 642.468 323.4 644.27C324.582 646.506 325.161 649.012 325.08 651.54C325.171 654.232 324.594 656.905 323.4 659.32C322.363 661.337 320.704 662.967 318.67 663.97C316.71 664.944 314.628 665.65 312.48 666.07C310.129 666.506 307.741 666.717 305.35 666.7Z" fill="#115E49"/>
<path d="M374.4 637.461C374.4 641.241 373.527 643.978 371.78 645.671C371.031 646.459 370.132 647.089 369.136 647.525C368.14 647.961 367.067 648.194 365.98 648.211H345.59C345.59 649.811 346.537 651.144 348.43 652.211C350.284 653.291 352.394 653.854 354.54 653.841C356.007 653.849 357.472 653.735 358.92 653.501C359.937 653.355 360.941 653.124 361.92 652.811L362.92 652.471C363.985 651.903 365.156 651.562 366.36 651.471C368.187 651.471 369.763 652.761 371.09 655.341C371.751 656.577 372.133 657.942 372.21 659.341C372.21 664.441 366.103 666.991 353.89 666.991C350.008 667.062 346.155 666.316 342.58 664.801C339.57 663.558 336.922 661.577 334.88 659.041C333.112 656.775 331.733 654.23 330.8 651.511C329.917 648.909 329.468 646.179 329.47 643.431C329.47 636.198 331.803 630.421 336.47 626.101C341.137 621.781 346.97 619.618 353.97 619.611C356.595 619.581 359.209 619.973 361.71 620.771C365.717 621.965 369.174 624.536 371.47 628.031C372.465 629.501 373.233 631.113 373.75 632.811C374.185 634.323 374.403 635.888 374.4 637.461ZM356.26 640.381C358.44 640.381 359.53 639.464 359.53 637.631C359.547 637.019 359.419 636.413 359.156 635.86C358.894 635.307 358.505 634.824 358.02 634.451C356.754 633.563 355.222 633.136 353.68 633.241C351.631 633.325 349.679 634.133 348.17 635.521C346.337 637.041 345.42 638.661 345.42 640.381H356.26Z" fill="#115E49"/>
<path d="M423.65 637.459C423.65 641.239 422.777 643.976 421.03 645.669C420.278 646.457 419.378 647.087 418.38 647.523C417.383 647.959 416.308 648.192 415.22 648.209H394.87C394.87 649.809 395.817 651.142 397.71 652.209C399.564 653.289 401.674 653.852 403.82 653.839C405.287 653.847 406.752 653.733 408.2 653.499C409.217 653.353 410.221 653.123 411.2 652.809L412.2 652.469C413.264 651.9 414.436 651.559 415.64 651.469C417.467 651.469 419.043 652.759 420.37 655.339C421.031 656.575 421.413 657.94 421.49 659.339C421.49 664.439 415.383 666.989 403.17 666.989C399.288 667.062 395.434 666.316 391.86 664.799C388.85 663.556 386.202 661.575 384.16 659.039C382.388 656.775 381.009 654.23 380.08 651.509C379.194 648.907 378.742 646.178 378.74 643.429C378.74 636.196 381.073 630.419 385.74 626.099C390.407 621.779 396.24 619.616 403.24 619.609C405.866 619.578 408.479 619.969 410.98 620.769C413.094 621.412 415.075 622.428 416.83 623.769C418.35 624.97 419.67 626.404 420.74 628.019C421.735 629.49 422.503 631.101 423.02 632.799C423.453 634.314 423.666 635.884 423.65 637.459ZM405.51 640.379C407.68 640.379 408.77 639.459 408.77 637.629C408.789 637.018 408.663 636.412 408.402 635.859C408.141 635.306 407.753 634.823 407.27 634.449C406.004 633.563 404.472 633.136 402.93 633.239C400.881 633.323 398.929 634.131 397.42 635.519C395.593 637.039 394.677 638.659 394.67 640.379H405.51Z" fill="#115E49"/>
<path d="M466.34 599.45C467.79 599.409 469.239 599.581 470.64 599.96C471.125 600.086 471.578 600.312 471.971 600.624C472.364 600.936 472.687 601.326 472.92 601.77C473.298 602.483 473.558 603.253 473.69 604.05C473.796 605.046 473.839 606.048 473.82 607.05V658.35C473.839 659.351 473.795 660.353 473.69 661.35C473.556 662.14 473.278 662.899 472.87 663.59C472.618 664.021 472.283 664.399 471.885 664.701C471.487 665.003 471.033 665.223 470.55 665.35C469.124 665.741 467.648 665.916 466.17 665.87C461.81 665.87 459.4 664.463 458.94 661.65C456.527 664.41 453.173 665.786 448.88 665.78C443.72 665.78 439.017 663.53 434.77 659.03C432.711 656.911 431.089 654.408 429.998 651.662C428.907 648.917 428.367 645.984 428.41 643.03C428.404 637.196 430.709 631.598 434.82 627.46C439.093 622.926 443.78 620.663 448.88 620.67C453.12 620.67 456.417 622.103 458.77 624.97V606.93C458.751 605.928 458.794 604.926 458.9 603.93C459.025 603.144 459.285 602.386 459.67 601.69C459.91 601.256 460.236 600.877 460.628 600.574C461.02 600.271 461.47 600.052 461.95 599.93C463.382 599.557 464.861 599.395 466.34 599.45ZM445.7 648.45C446.389 649.197 447.228 649.791 448.161 650.193C449.095 650.594 450.103 650.794 451.12 650.78C452.117 650.801 453.106 650.603 454.019 650.201C454.931 649.798 455.744 649.2 456.4 648.45C457.745 647.068 458.501 645.218 458.51 643.29C458.488 641.385 457.778 639.552 456.51 638.13C455.843 637.339 455.005 636.712 454.058 636.296C453.112 635.88 452.083 635.686 451.05 635.73C450.014 635.691 448.982 635.882 448.03 636.29C447.077 636.698 446.226 637.313 445.54 638.09C444.232 639.507 443.497 641.361 443.48 643.29C443.487 644.256 443.688 645.211 444.069 646.099C444.45 646.986 445.004 647.789 445.7 648.46V648.45Z" fill="#115E49"/>
<path d="M497.38 666.7C491.583 666.696 485.911 665.023 481.04 661.88C480.524 661.573 480.1 661.132 479.813 660.604C479.526 660.076 479.387 659.48 479.41 658.88C479.41 657.22 480.5 654.87 482.68 651.83C482.992 651.348 483.428 650.959 483.941 650.703C484.455 650.446 485.027 650.331 485.6 650.37C487.478 650.496 489.29 651.117 490.85 652.17C493.65 653.777 496.027 654.58 497.98 654.58C501.48 654.58 503.23 653.893 503.23 652.52C503.23 651.94 502.69 651.46 501.6 651.06C500.262 650.595 498.877 650.277 497.47 650.11C495.63 649.836 493.826 649.359 492.09 648.69C490.218 647.995 488.42 647.118 486.72 646.07C484.915 644.869 483.484 643.185 482.59 641.21C481.447 638.748 480.889 636.054 480.96 633.34C480.96 624.28 487.18 619.75 499.62 619.75C503.963 619.805 508.243 620.794 512.17 622.65C514.17 623.563 515.17 624.823 515.17 626.43C514.979 628.106 514.359 629.704 513.37 631.07C512.037 633.137 510.703 634.17 509.37 634.17C508.35 634.077 507.358 633.785 506.45 633.31C504.271 632.229 501.881 631.642 499.45 631.59C496.07 631.59 494.38 632.22 494.38 633.48C494.409 633.971 494.584 634.442 494.884 634.833C495.183 635.223 495.593 635.515 496.06 635.67C497.39 636.278 498.814 636.656 500.27 636.79C502.119 637.025 503.945 637.413 505.73 637.95C507.606 638.5 509.432 639.205 511.19 640.06C512.992 641.002 514.464 642.47 515.41 644.27C516.584 646.509 517.159 649.013 517.08 651.54C517.169 654.231 516.596 656.903 515.41 659.32C514.373 661.337 512.714 662.967 510.68 663.97C508.717 664.945 506.632 665.652 504.48 666.07C502.139 666.505 499.761 666.715 497.38 666.7Z" fill="#115E49"/>
<g style="mix-blend-mode:multiply">
<path d="M410.15 582.07C458.353 582.07 497.43 572.6 497.43 560.919C497.43 549.239 458.353 539.77 410.15 539.77C361.947 539.77 322.87 549.239 322.87 560.919C322.87 572.6 361.947 582.07 410.15 582.07Z" fill="#A7A9AC"/>
</g>
<path d="M402.53 560.921C400.997 560.92 399.514 560.371 398.35 559.374C397.186 558.376 396.416 556.996 396.18 555.481C394.76 546.241 393.55 533.581 392.73 519.481C381 515.691 352.53 503.331 334.02 468.861C326.93 455.651 321.95 440.401 319.23 423.531C319.2 423.359 319.18 423.185 319.17 423.011C317.403 424.237 315.557 425.457 313.63 426.671C312.837 427.168 311.945 427.486 311.016 427.602C310.087 427.719 309.144 427.631 308.253 427.345C307.362 427.06 306.543 426.583 305.856 425.948C305.168 425.313 304.626 424.536 304.27 423.671C301.114 415.324 299.171 406.569 298.5 397.671C296.08 397.951 293.5 398.131 290.94 398.221H290.71C289.791 398.221 288.882 398.024 288.045 397.643C287.208 397.262 286.463 396.705 285.86 396.011C285.257 395.317 284.81 394.502 284.55 393.62C284.289 392.738 284.221 391.811 284.35 390.901C284.721 388.5 285.232 386.122 285.88 383.781C277.848 381.633 270.101 378.538 262.8 374.561C261.976 374.115 261.259 373.495 260.699 372.744C260.14 371.993 259.751 371.128 259.56 370.211C259.37 369.294 259.382 368.346 259.596 367.434C259.81 366.522 260.221 365.667 260.8 364.931C266.027 358.53 272.08 352.85 278.8 348.041C277.827 346.661 276.877 345.224 275.95 343.731C275.451 342.937 275.132 342.044 275.014 341.114C274.897 340.185 274.984 339.24 275.27 338.348C275.556 337.455 276.033 336.636 276.669 335.947C277.304 335.258 278.083 334.717 278.95 334.361C279.07 334.361 280.72 333.651 283.38 332.841C280.783 324.15 279.37 315.149 279.18 306.081C279.148 305.219 279.29 304.36 279.597 303.554C279.905 302.748 280.372 302.013 280.97 301.392C281.569 300.771 282.287 300.278 283.08 299.94C283.874 299.603 284.728 299.43 285.59 299.431C285.891 299.431 286.192 299.451 286.49 299.491C295.801 301.007 304.825 303.937 313.25 308.181C313.97 306.634 314.75 305.064 315.59 303.471C316.031 302.642 316.648 301.92 317.398 301.355C318.147 300.79 319.012 300.396 319.93 300.201C320.371 300.109 320.82 300.062 321.27 300.061C322.702 300.06 324.092 300.539 325.22 301.421C325.29 301.481 326.22 302.181 327.56 303.421C333.83 296.74 340.982 290.946 348.82 286.201C349.839 285.551 351.022 285.204 352.23 285.201C353.508 285.197 354.757 285.576 355.818 286.289C356.878 287.002 357.701 288.016 358.18 289.201C359.591 292.884 360.75 296.66 361.65 300.501C369.194 293.691 377.652 287.969 386.78 283.501C385.21 280.711 383.69 277.731 382.26 274.571C381.871 273.717 381.674 272.789 381.682 271.851C381.69 270.913 381.904 269.988 382.308 269.141C382.712 268.295 383.297 267.547 384.021 266.951C384.746 266.355 385.592 265.925 386.5 265.691C389.609 264.947 392.762 264.399 395.94 264.051C394.515 254.088 394.35 243.985 395.45 233.981C395.604 232.39 396.345 230.914 397.528 229.84C398.711 228.766 400.252 228.171 401.85 228.171C402.432 228.172 403.01 228.253 403.57 228.411C413.13 231.307 422.244 235.514 430.65 240.911C431.883 238.911 433.217 236.931 434.65 234.971C435.194 234.206 435.9 233.57 436.718 233.109C437.535 232.648 438.444 232.372 439.38 232.301H439.87C440.725 232.3 441.572 232.471 442.36 232.803C443.148 233.134 443.862 233.619 444.46 234.231C444.57 234.341 446.34 236.151 448.75 239.181C456.04 232.881 465.36 227.131 476.56 222.041C477.413 221.65 478.342 221.453 479.281 221.461C480.219 221.47 481.144 221.685 481.99 222.091C482.836 222.495 483.584 223.079 484.18 223.803C484.776 224.527 485.206 225.373 485.44 226.281C488.025 237.336 488.839 248.731 487.85 260.041C490.2 260.131 492.64 260.291 495.13 260.531C496.06 260.627 496.958 260.925 497.761 261.405C498.564 261.885 499.252 262.534 499.778 263.307C500.304 264.081 500.654 264.96 500.805 265.883C500.955 266.805 500.903 267.75 500.65 268.651C500.65 268.771 500.14 270.451 499.18 273.071C508.36 276.231 518.09 281.461 528.18 288.681C528.943 289.227 529.577 289.934 530.038 290.751C530.499 291.568 530.775 292.476 530.849 293.412C530.922 294.347 530.79 295.287 530.462 296.166C530.134 297.045 529.618 297.842 528.95 298.501C528.43 299.001 516.15 310.941 499.62 318.031L499.41 318.121C500.72 320.501 501.98 323.031 503.19 325.681C503.575 326.535 503.77 327.464 503.759 328.401C503.748 329.339 503.533 330.262 503.128 331.108C502.724 331.954 502.139 332.701 501.416 333.297C500.692 333.894 499.847 334.325 498.94 334.561C498.84 334.561 497.62 334.901 495.59 335.281C496.269 339.233 496.703 343.224 496.89 347.231C498.553 346.712 500.246 346.298 501.96 345.991C502.29 345.933 502.625 345.903 502.96 345.901C503.889 345.904 504.807 346.108 505.65 346.499C506.493 346.89 507.242 347.459 507.844 348.167C508.447 348.875 508.889 349.705 509.14 350.599C509.391 351.494 509.446 352.433 509.3 353.351C506.1 373.171 500.3 391.091 491.93 406.591C482.987 423.582 470.284 438.309 454.79 449.651C445.096 456.733 434.343 462.237 422.93 465.961L422.11 466.221C419.93 500.051 420.63 530.901 424.11 553.501C424.25 554.416 424.19 555.351 423.935 556.241C423.68 557.131 423.236 557.955 422.633 558.658C422.03 559.361 421.283 559.925 420.442 560.312C419.601 560.699 418.686 560.9 417.76 560.901L402.53 560.921ZM327.73 416.351C333.87 417.681 362.73 425.741 385.78 462.351C381.369 444.661 374.951 427.533 366.65 411.301C360.656 409.69 354.844 407.461 349.31 404.651C348.25 407.151 347.02 409.721 345.64 412.331C345.199 413.159 344.582 413.882 343.832 414.447C343.083 415.012 342.218 415.405 341.3 415.601C340.862 415.692 340.417 415.739 339.97 415.741C338.522 415.75 337.113 415.271 335.97 414.381C335.88 414.311 334.61 413.321 332.75 411.591C331.22 413.221 329.54 414.791 327.73 416.351ZM382.03 381.571C388.216 391.328 393.633 401.552 398.23 412.151C400.31 400.641 402.84 388.911 405.8 377.071C404.885 376.236 404.235 375.151 403.93 373.951C401.962 365.545 401.006 356.934 401.08 348.301C395.227 355.029 388.43 360.873 380.9 365.651C382.4 367.651 383.9 369.841 385.31 372.131C385.809 372.924 386.128 373.817 386.246 374.747C386.363 375.677 386.276 376.621 385.99 377.514C385.704 378.406 385.227 379.226 384.591 379.914C383.956 380.603 383.177 381.145 382.31 381.501L382.03 381.571ZM438.73 363.451C437.14 368.961 435.62 374.451 434.23 379.931C432.23 387.521 430.4 396.781 428.72 407.061C440.8 385.651 454.72 371.801 466.46 363.061C463.072 361.161 459.809 359.046 456.69 356.731L456.53 356.611C454.87 359.461 452.98 362.371 450.88 365.301C450.338 366.066 449.634 366.701 448.818 367.163C448.002 367.625 447.095 367.9 446.16 367.971C445.994 367.98 445.827 367.98 445.66 367.971C444.806 367.97 443.96 367.801 443.172 367.471C442.384 367.141 441.67 366.659 441.07 366.051C441 365.961 440.1 365.041 438.73 363.451ZM376.53 326.951C379.554 327.662 382.535 328.543 385.46 329.591C385.78 328.641 386.21 327.391 386.78 325.921C383.15 324.483 379.607 322.833 376.17 320.981C376.836 322.201 377.086 323.606 376.88 324.981C376.87 325.001 376.77 325.731 376.53 326.951ZM363.82 313.441C363.95 314.941 364.05 316.441 364.09 318.041C366.09 317.841 368.157 317.701 370.29 317.621C368.157 316.307 366 314.914 363.82 313.441Z" fill="#231F20"/>
<path d="M414.35 461.65L503.05 352.34C503.05 352.34 439.35 362.65 414.35 461.65Z" fill="#66BE64"/>
<path d="M503.05 352.311L414.35 461.651C414.35 461.651 487.51 448.651 503.05 352.311Z" fill="#4CA84E"/>
<g style="mix-blend-mode:multiply">
<path d="M434.46 409.95C426.65 423.7 419.65 440.65 414.35 461.65C414.35 461.65 459.47 453.65 486.35 403.57C463.21 428.73 434.46 409.95 434.46 409.95Z" fill="#4CA84E"/>
</g>
<path d="M400.58 514.901L325.58 422.471C325.58 422.471 379.44 431.241 400.58 514.901Z" fill="#66BE64"/>
<path d="M325.57 422.471L400.57 514.901C400.57 514.901 338.72 503.961 325.57 422.471Z" fill="#4CA84E"/>
<g style="mix-blend-mode:multiply">
<path d="M383.57 471.209C390.16 482.829 396.1 497.209 400.57 514.899C400.57 514.899 362.42 508.149 339.67 465.779C359.26 487.089 383.57 471.209 383.57 471.209Z" fill="#4CA84E"/>
</g>
<path d="M438.15 298.779C437.6 300.049 424.45 330.359 413.15 374.209C407.768 394.874 403.66 415.85 400.85 437.019C399.17 431.959 397.38 427.033 395.48 422.239C389.034 405.664 380.513 389.972 370.12 375.539C353.03 352.229 337.75 343.819 337.12 343.469L329.76 357.019C329.89 357.089 343.26 364.649 358.39 385.599C371.86 404.269 389.47 436.699 398.12 490.199C398.43 514.199 400.19 539.279 402.54 554.499H417.78C409.55 501.129 417.94 417.499 428.01 378.329C439.01 335.669 452.12 305.329 452.29 304.949L438.15 298.779Z" fill="#4DA94E"/>
<path d="M442.76 300.119L439.86 238.699C407.35 284.219 442.76 300.119 442.76 300.119Z" fill="#66BE64"/>
<path d="M439.86 238.699L442.76 300.119C477.1 276.649 439.86 238.699 439.86 238.699Z" fill="#4CA84E"/>
<g style="mix-blend-mode:multiply" opacity="0.58">
<path d="M442.76 300.12C460.4 288.07 459.15 272.19 453.76 259.6C453.76 259.6 454.15 289.79 427.27 281.71C431.03 294.85 442.76 300.12 442.76 300.12Z" fill="#B6BCCC"/>
</g>
<path d="M442.76 300.12L388.12 271.92C411.29 322.84 442.76 300.12 442.76 300.12Z" fill="#66BE64"/>
<path d="M388.12 271.919L442.76 300.119C439.65 258.649 388.12 271.919 388.12 271.919Z" fill="#4CA84E"/>
<g style="mix-blend-mode:multiply" opacity="0.58">
<path d="M442.76 300.12C441.15 278.82 426.76 271.96 413.17 270.33C413.17 270.33 439.51 285.1 419.07 304.33C432.34 307.65 442.76 300.12 442.76 300.12Z" fill="#B6BCCC"/>
</g>
<path d="M442.76 300.119L391.02 333.339C446.7 338.739 442.76 300.119 442.76 300.119Z" fill="#66BE64"/>
<path d="M391.02 333.341L442.76 300.121C405.29 282.111 391.02 333.341 391.02 333.341Z" fill="#4CA84E"/>
<g style="mix-blend-mode:multiply" opacity="0.58">
<path d="M442.76 300.119C423.51 290.869 410.38 299.89 402.17 310.85C402.17 310.85 428.17 295.429 434.56 322.739C444.06 312.909 442.76 300.119 442.76 300.119Z" fill="#B6BCCC"/>
</g>
<path d="M442.76 300.119L445.66 361.539C478.17 316.019 442.76 300.119 442.76 300.119Z" fill="#66BE64"/>
<path d="M445.65 361.539L442.75 300.119C408.42 323.569 445.65 361.539 445.65 361.539Z" fill="#4CA84E"/>
<g style="mix-blend-mode:multiply" opacity="0.58">
<path d="M442.76 300.119C425.12 312.119 426.37 328.049 431.76 340.639C431.76 340.639 431.38 310.449 458.25 318.539C454.49 305.389 442.76 300.119 442.76 300.119Z" fill="#B6BCCC"/>
</g>
<path d="M442.76 300.121L497.4 328.321C474.23 277.401 442.76 300.121 442.76 300.121Z" fill="#66BE64"/>
<path d="M497.4 328.319L442.76 300.119C445.9 341.579 497.4 328.319 497.4 328.319Z" fill="#4CA84E"/>
<g style="mix-blend-mode:multiply" opacity="0.58">
<path d="M442.76 300.12C444.37 321.42 458.76 328.28 472.35 329.91C472.35 329.91 446.01 315.14 466.45 295.91C453.19 292.65 442.76 300.12 442.76 300.12Z" fill="#B6BCCC"/>
</g>
<path d="M442.76 300.121L494.5 266.901C438.82 261.501 442.76 300.121 442.76 300.121Z" fill="#66BE64"/>
<path d="M494.5 266.9L442.76 300.12C480.23 318.13 494.5 266.9 494.5 266.9Z" fill="#4CA84E"/>
<g style="mix-blend-mode:multiply" opacity="0.58">
<path d="M442.76 300.12C462.01 309.38 475.14 300.35 483.36 289.39C483.36 289.39 457.36 304.82 450.96 277.5C441.46 287.33 442.76 300.12 442.76 300.12Z" fill="#B6BCCC"/>
</g>
<path d="M445.47 302.52L401.87 234.65C394.78 307.65 445.47 302.52 445.47 302.52Z" fill="#F0EBCE"/>
<path d="M401.87 234.65L445.47 302.56C469.11 253.33 401.87 234.65 401.87 234.65Z" fill="#FBFCFC"/>
<g style="mix-blend-mode:multiply" opacity="0.58">
<path d="M445.47 302.52C457.61 277.25 445.77 260.02 431.38 249.24C431.38 249.24 451.63 283.31 415.78 291.75C428.65 304.23 445.47 302.52 445.47 302.52Z" fill="#B6BCCC"/>
</g>
<path d="M445.47 302.52L364.85 306.32C424.65 349 445.47 302.52 445.47 302.52Z" fill="#F0EBCE"/>
<path d="M364.85 306.321L445.47 302.521C414.65 257.451 364.85 306.321 364.85 306.321Z" fill="#FBFCFC"/>
<g style="mix-blend-mode:multiply" opacity="0.58">
<path d="M445.47 302.52C429.66 279.37 408.81 281.01 392.28 288.08C392.28 288.08 431.91 287.58 421.28 322.85C438.55 317.92 445.47 302.52 445.47 302.52Z" fill="#B6BCCC"/>
</g>
<path d="M447.16 300.65L410.16 372.37C476.98 341.94 447.16 300.65 447.16 300.65Z" fill="#F0EBCE"/>
<path d="M410.15 372.351L447.15 300.631C392.75 304.751 410.15 372.351 410.15 372.351Z" fill="#FBFCFC"/>
<g style="mix-blend-mode:multiply" opacity="0.58">
<path d="M447.16 300.65C419.16 302.77 410.16 321.65 408.06 339.49C408.06 339.49 427.45 304.92 452.68 331.75C457.04 314.32 447.16 300.65 447.16 300.65Z" fill="#B6BCCC"/>
</g>
<path d="M446.38 298.22L489.98 366.13C497.06 293.05 446.38 298.22 446.38 298.22Z" fill="#F0EBCE"/>
<path d="M489.98 366.131L446.38 298.221C422.73 347.411 489.98 366.131 489.98 366.131Z" fill="#FBFCFC"/>
<g style="mix-blend-mode:multiply" opacity="0.58">
<path d="M446.38 298.22C434.23 323.49 446.07 340.72 460.46 351.5C460.46 351.5 440.21 317.43 476.07 308.99C463.17 296.51 446.38 298.22 446.38 298.22Z" fill="#B6BCCC"/>
</g>
<path d="M443.89 297.65L524.51 293.85C464.76 251.21 443.89 297.65 443.89 297.65Z" fill="#F0EBCE"/>
<path d="M524.51 293.891L443.89 297.651C474.65 342.761 524.51 293.891 524.51 293.891Z" fill="#FBFCFC"/>
<g style="mix-blend-mode:multiply" opacity="0.58">
<path d="M443.89 297.65C459.7 320.81 480.55 319.17 497.08 312.09C497.08 312.09 457.45 312.59 468.08 277.32C450.81 282.3 443.89 297.65 443.89 297.65Z" fill="#B6BCCC"/>
</g>
<path d="M442.19 299.579L479.19 227.859C412.37 258.269 442.19 299.579 442.19 299.579Z" fill="#F0EBCE"/>
<path d="M479.21 227.859L442.21 299.579C496.65 295.459 479.21 227.859 479.21 227.859Z" fill="#FBFCFC"/>
<g style="mix-blend-mode:multiply" opacity="0.58">
<path d="M442.19 299.58C470.19 297.47 479.19 278.58 481.3 260.74C481.3 260.74 461.91 295.31 436.67 268.48C432.32 285.9 442.19 299.58 442.19 299.58Z" fill="#B6BCCC"/>
</g>
<g style="mix-blend-mode:multiply" opacity="0.58">
<path d="M444.5 306.441C447.692 306.441 450.28 303.853 450.28 300.661C450.28 297.469 447.692 294.881 444.5 294.881C441.308 294.881 438.72 297.469 438.72 300.661C438.72 303.853 441.308 306.441 444.5 306.441Z" fill="#B6BCCC"/>
</g>
<path d="M445.04 301.91L442.36 301.05L443.7 301.48L442.36 301.05C443.332 297.15 443.67 293.118 443.36 289.11C443 282.34 440.98 271.75 433.42 259.74L435.81 258.24C443.73 270.83 445.81 281.98 446.19 289.12C446.522 293.418 446.133 297.741 445.04 301.91Z" fill="#66BE64"/>
<path d="M434.21 262.59C436.309 262.59 438.01 260.889 438.01 258.79C438.01 256.692 436.309 254.99 434.21 254.99C432.111 254.99 430.41 256.692 430.41 258.79C430.41 260.889 432.111 262.59 434.21 262.59Z" fill="#F1594B"/>
<path d="M442.23 301.421L444.14 303.501L443.14 302.501L444.14 303.501C447.271 300.976 450.79 298.973 454.56 297.571C460.86 295.071 471.32 292.471 485.39 294.321L485.76 291.521C471.01 289.591 460.01 292.351 453.37 295.001C449.326 296.508 445.561 298.678 442.23 301.421Z" fill="#66BE64"/>
<path d="M485.92 297.03C488.019 297.03 489.72 295.328 489.72 293.23C489.72 291.131 488.019 289.43 485.92 289.43C483.821 289.43 482.12 291.131 482.12 293.23C482.12 295.328 483.821 297.03 485.92 297.03Z" fill="#F1594B"/>
<path d="M444.05 303.319L442.26 301.139C446.62 297.559 449.99 288.849 452.02 275.939C452.986 269.647 453.57 263.302 453.77 256.939L456.59 256.999C456.387 263.466 455.793 269.915 454.81 276.309C452.65 290.159 449.02 299.239 444.05 303.319Z" fill="#66BE64"/>
<path d="M454.55 260.75C456.649 260.75 458.35 259.049 458.35 256.95C458.35 254.852 456.649 253.15 454.55 253.15C452.451 253.15 450.75 254.852 450.75 256.95C450.75 259.049 452.451 260.75 454.55 260.75Z" fill="#F1594B"/>
<path d="M444.46 299.21L444.01 296.43C449.59 295.53 456.25 289.43 463.28 278.74C466.7 273.484 469.764 268.005 472.45 262.34L475.01 263.52C472.274 269.306 469.147 274.899 465.65 280.26C458.07 291.79 450.94 298.17 444.46 299.21Z" fill="#66BE64"/>
<path d="M473.17 267.561C475.269 267.561 476.97 265.86 476.97 263.761C476.97 261.662 475.269 259.961 473.17 259.961C471.071 259.961 469.37 261.662 469.37 263.761C469.37 265.86 471.071 267.561 473.17 267.561Z" fill="#F1594B"/>
<path d="M330.65 357.88L281.39 340.24C306.65 380.58 330.65 357.88 330.65 357.88Z" fill="#66BE64"/>
<path d="M281.36 340.24L330.65 357.88C323.31 323.26 281.36 340.24 281.36 340.24Z" fill="#4CA84E"/>
<g style="mix-blend-mode:multiply" opacity="0.58">
<path d="M330.65 357.881C326.89 340.091 313.99 335.881 302.34 336.081C302.34 336.081 326.21 345.571 311.14 364.081C314.642 364.413 318.175 364.036 321.527 362.97C324.88 361.905 327.982 360.174 330.65 357.881Z" fill="#B6BCCC"/>
</g>
<path d="M330.65 357.881L290.74 391.721C338.28 390.011 330.65 357.881 330.65 357.881Z" fill="#66BE64"/>
<path d="M290.71 391.72L330.65 357.88C296.98 346.9 290.71 391.72 290.71 391.72Z" fill="#4CA84E"/>
<g style="mix-blend-mode:multiply" opacity="0.58">
<path d="M330.65 357.879C313.37 352.239 303.31 361.329 297.65 371.499C297.65 371.499 317.81 355.569 326.31 377.879C328.34 375.008 329.77 371.758 330.516 368.321C331.262 364.885 331.307 361.334 330.65 357.879Z" fill="#B6BCCC"/>
</g>
<path d="M330.65 357.881L339.99 409.361C362.27 367.311 330.65 357.881 330.65 357.881Z" fill="#66BE64"/>
<path d="M339.96 409.361L330.65 357.881C304.29 381.521 339.96 409.361 339.96 409.361Z" fill="#4CA84E"/>
<g style="mix-blend-mode:multiply" opacity="0.58">
<path d="M330.65 357.881C317.12 370.021 319.96 383.281 325.92 393.301C325.92 393.301 322.17 367.871 345.75 371.651C344.287 368.459 342.196 365.594 339.602 363.228C337.008 360.863 333.963 359.044 330.65 357.881Z" fill="#B6BCCC"/>
</g>
<path d="M330.65 357.88L379.9 375.52C354.65 335.18 330.65 357.88 330.65 357.88Z" fill="#66BE64"/>
<path d="M379.87 375.521L330.65 357.881C337.92 392.501 379.87 375.521 379.87 375.521Z" fill="#4CA84E"/>
<g style="mix-blend-mode:multiply" opacity="0.58">
<path d="M330.65 357.88C334.4 375.66 347.3 379.83 358.95 379.68C358.95 379.68 335.08 370.18 350.16 351.68C346.658 351.347 343.125 351.724 339.772 352.789C336.42 353.855 333.317 355.586 330.65 357.88Z" fill="#B6BCCC"/>
</g>
<path d="M330.65 357.879L370.55 324.039C322.95 325.749 330.65 357.879 330.65 357.879Z" fill="#66BE64"/>
<path d="M370.52 324.039L330.65 357.879C364.25 368.859 370.52 324.039 370.52 324.039Z" fill="#4CA84E"/>
<g style="mix-blend-mode:multiply" opacity="0.58">
<path d="M330.65 357.881C347.93 363.521 357.98 354.431 363.65 344.261C363.65 344.261 343.49 360.191 334.99 337.881C332.958 340.751 331.527 344.002 330.781 347.438C330.036 350.875 329.991 354.427 330.65 357.881Z" fill="#B6BCCC"/>
</g>
<path d="M330.65 357.88L321.3 306.4C298.96 348.45 330.65 357.88 330.65 357.88Z" fill="#66BE64"/>
<path d="M321.27 306.4L330.65 357.88C356.94 334.24 321.27 306.4 321.27 306.4Z" fill="#4CA84E"/>
<g style="mix-blend-mode:multiply" opacity="0.58">
<path d="M330.65 357.881C344.17 345.731 341.33 332.481 335.37 322.461C335.37 322.461 339.09 347.891 315.51 344.091C316.975 347.29 319.072 350.161 321.673 352.53C324.275 354.9 327.328 356.72 330.65 357.881Z" fill="#B6BCCC"/>
</g>
<path d="M333.38 356.529L265.81 368.799C321.01 398.079 333.38 356.529 333.38 356.529Z" fill="#F0EBCE"/>
<path d="M265.81 368.799L333.38 356.529C302.35 321.979 265.81 368.799 265.81 368.799Z" fill="#FBFCFC"/>
<g style="mix-blend-mode:multiply" opacity="0.58">
<path d="M333.38 356.53C317.44 338.78 300.04 342.53 286.9 350.33C286.9 350.33 320.28 345.45 315.29 376.39C329.28 370.29 333.38 356.53 333.38 356.53Z" fill="#B6BCCC"/>
</g>
<path d="M333.38 356.529L310.23 421.179C363.18 388.019 333.38 356.529 333.38 356.529Z" fill="#F0EBCE"/>
<path d="M310.23 421.179L333.38 356.529C287.94 366.119 310.23 421.179 310.23 421.179Z" fill="#FBFCFC"/>
<g style="mix-blend-mode:multiply" opacity="0.58">
<path d="M333.38 356.529C310.04 361.459 304.57 378.389 304.77 393.689C304.77 393.689 317.23 362.349 341.53 382.139C343.25 366.959 333.38 356.529 333.38 356.529Z" fill="#B6BCCC"/>
</g>
<path d="M332.45 354.58L376.86 406.96C374.65 344.52 332.45 354.58 332.45 354.58Z" fill="#F0EBCE"/>
<path d="M376.86 406.96L332.45 354.58C318.03 398.73 376.86 406.96 376.86 406.96Z" fill="#FBFCFC"/>
<g style="mix-blend-mode:multiply" opacity="0.58">
<path d="M332.45 354.579C325.04 377.259 336.97 390.459 350.32 397.939C350.32 397.939 329.41 371.479 358.7 360.319C346.41 351.249 332.45 354.579 332.45 354.579Z" fill="#B6BCCC"/>
</g>
<path d="M330.29 354.421L397.86 342.141C342.65 312.871 330.29 354.421 330.29 354.421Z" fill="#F0EBCE"/>
<path d="M397.86 342.141L330.29 354.421C361.32 388.971 397.86 342.141 397.86 342.141Z" fill="#FBFCFC"/>
<g style="mix-blend-mode:multiply" opacity="0.58">
<path d="M330.29 354.421C346.23 372.171 363.63 368.421 376.78 360.621C376.78 360.621 343.4 365.501 348.39 334.551C334.39 340.651 330.29 354.421 330.29 354.421Z" fill="#B6BCCC"/>
</g>
<path d="M329.07 356.201L352.23 291.551C299.27 324.711 329.07 356.201 329.07 356.201Z" fill="#F0EBCE"/>
<path d="M352.23 291.551L329.07 356.201C374.51 346.651 352.23 291.551 352.23 291.551Z" fill="#FBFCFC"/>
<g style="mix-blend-mode:multiply" opacity="0.58">
<path d="M329.07 356.199C352.42 351.269 357.88 334.339 357.68 319.039C357.68 319.039 345.22 350.379 320.92 330.589C319.2 345.769 329.07 356.199 329.07 356.199Z" fill="#B6BCCC"/>
</g>
<path d="M330.01 358.15L285.59 305.77C287.84 368.21 330.01 358.15 330.01 358.15Z" fill="#F0EBCE"/>
<path d="M285.59 305.77L330.01 358.15C344.42 314 285.59 305.77 285.59 305.77Z" fill="#FBFCFC"/>
<g style="mix-blend-mode:multiply" opacity="0.58">
<path d="M330.01 358.149C337.41 335.469 325.48 322.269 312.13 314.789C312.13 314.789 333.04 341.249 303.75 352.409C316.04 361.479 330.01 358.149 330.01 358.149Z" fill="#B6BCCC"/>
</g>
<g style="mix-blend-mode:multiply" opacity="0.58">
<path d="M331.6 361.6C334.317 361.6 336.52 359.397 336.52 356.68C336.52 353.963 334.317 351.76 331.6 351.76C328.883 351.76 326.68 353.963 326.68 356.68C326.68 359.397 328.883 361.6 331.6 361.6Z" fill="#B6BCCC"/>
</g>
<path d="M332.76 356.65L331.21 358.49L331.99 357.57L331.22 358.49C328.473 356.448 325.413 354.864 322.16 353.8C316.71 351.89 307.73 350.05 295.83 352.1L295.42 349.73C307.9 347.58 317.35 349.55 323.08 351.58C326.566 352.72 329.837 354.433 332.76 356.65Z" fill="#66BE64"/>
<path d="M295.33 354.431C297.114 354.431 298.56 352.985 298.56 351.201C298.56 349.417 297.114 347.971 295.33 347.971C293.546 347.971 292.1 349.417 292.1 351.201C292.1 352.985 293.546 354.431 295.33 354.431Z" fill="#F1594B"/>
<path d="M331.46 358.72L333.72 357.89L332.59 358.3L333.72 357.89C332.74 354.613 332.305 351.197 332.43 347.78C332.51 342.01 333.86 332.94 339.87 322.47L337.79 321.27C331.49 332.27 330.09 341.8 330.03 347.88C329.904 351.547 330.387 355.21 331.46 358.72Z" fill="#66BE64"/>
<path d="M339.19 324.909C340.974 324.909 342.42 323.463 342.42 321.679C342.42 319.895 340.974 318.449 339.19 318.449C337.406 318.449 335.96 319.895 335.96 321.679C335.96 323.463 337.406 324.909 339.19 324.909Z" fill="#F1594B"/>
<path d="M333.55 357.909L331.25 358.609C329.85 354.009 324.09 348.529 314.6 342.749C309.973 339.955 305.181 337.444 300.25 335.229L301.25 333.029C306.255 335.274 311.121 337.819 315.82 340.649C325.99 346.869 331.95 352.649 333.55 357.909Z" fill="#66BE64"/>
<path d="M300.47 337.829C302.254 337.829 303.7 336.383 303.7 334.599C303.7 332.815 302.254 331.369 300.47 331.369C298.686 331.369 297.24 332.815 297.24 334.599C297.24 336.383 298.686 337.829 300.47 337.829Z" fill="#F1594B"/>
<path d="M330.45 356.241L328.12 355.701C329.22 351.011 326.57 343.791 320.45 334.811C317.43 330.412 314.116 326.222 310.53 322.271L312.28 320.631C315.942 324.666 319.33 328.943 322.42 333.431C329.03 343.141 331.73 350.811 330.45 356.241Z" fill="#66BE64"/>
<path d="M311.88 325.39C313.664 325.39 315.11 323.944 315.11 322.16C315.11 320.376 313.664 318.93 311.88 318.93C310.096 318.93 308.65 320.376 308.65 322.16C308.65 323.944 310.096 325.39 311.88 325.39Z" fill="#F1594B"/>
<path d="M497.08 292.29C500.869 292.29 503.94 289.819 503.94 286.77C503.94 283.721 500.869 281.25 497.08 281.25C493.291 281.25 490.22 283.721 490.22 286.77C490.22 289.819 493.291 292.29 497.08 292.29Z" fill="white"/>
<path d="M463.655 249.438C466.584 247.035 467.568 243.391 465.851 241.298C464.135 239.206 460.369 239.458 457.44 241.86C454.511 244.263 453.527 247.907 455.243 249.999C456.96 252.092 460.726 251.84 463.655 249.438Z" fill="white"/>
<path d="M486.32 286.78C487.496 286.78 488.45 285.826 488.45 284.65C488.45 283.473 487.496 282.52 486.32 282.52C485.144 282.52 484.19 283.473 484.19 284.65C484.19 285.826 485.144 286.78 486.32 286.78Z" fill="white"/>
<path d="M469.38 242.24C470.556 242.24 471.51 241.287 471.51 240.11C471.51 238.934 470.556 237.98 469.38 237.98C468.204 237.98 467.25 238.934 467.25 240.11C467.25 241.287 468.204 242.24 469.38 242.24Z" fill="white"/>
</g>
<defs>
<clipPath id="clip0_4883_647">
<rect width="619.18" height="838.58" fill="white"/>
</clipPath>
</defs>
</svg>
