<svg width="635" height="843" viewBox="0 0 635 843" fill="none" xmlns="http://www.w3.org/2000/svg">
<g clip-path="url(#clip0_4883_517)">
<path d="M352.06 842.159C464.627 842.159 555.88 820.042 555.88 792.759C555.88 765.477 464.627 743.359 352.06 743.359C239.493 743.359 148.24 765.477 148.24 792.759C148.24 820.042 239.493 842.159 352.06 842.159Z" fill="#A7A9AC"/>
<path d="M334.27 792.759C330.689 792.767 327.223 791.492 324.499 789.167C321.776 786.841 319.974 783.618 319.42 780.079C316.1 758.519 313.27 728.939 311.35 695.909C283.96 687.079 217.48 658.209 174.26 577.719C157.69 546.869 146.07 511.249 139.71 471.849C139.65 471.449 139.6 471.049 139.57 470.639C135.443 473.519 131.137 476.366 126.65 479.179C124.793 480.337 122.705 481.075 120.533 481.34C118.361 481.605 116.157 481.392 114.076 480.716C111.995 480.039 110.088 478.916 108.487 477.424C106.886 475.932 105.631 474.108 104.81 472.079C97.4278 452.584 92.888 432.128 91.33 411.339C85.67 412.006 79.7867 412.439 73.68 412.639H73.14C70.993 412.64 68.8709 412.18 66.917 411.29C64.9631 410.401 63.223 409.102 61.8143 407.482C60.4056 405.862 59.361 403.958 58.7513 401.899C58.1416 399.841 57.9808 397.675 58.28 395.549C59.1657 389.94 60.3642 384.385 61.87 378.909C45 374.649 26.94 367.439 7.96999 357.379C6.03415 356.353 4.34665 354.915 3.02617 353.167C1.70569 351.418 0.784299 349.402 0.326769 347.259C-0.130761 345.116 -0.113307 342.899 0.377901 340.764C0.869109 338.629 1.82214 336.627 3.16999 334.899C15.3991 319.957 29.5482 306.696 45.25 295.459C43 292.229 40.77 288.869 38.59 285.389C37.4265 283.532 36.6841 281.443 36.4151 279.268C36.1461 277.093 36.3569 274.885 37.0327 272.8C37.7086 270.716 38.833 268.804 40.327 267.201C41.821 265.597 43.6481 264.341 45.68 263.519C45.95 263.409 49.81 261.859 56.02 259.969C50.35 242.069 47.02 221.139 46.2 197.469C46.1288 195.455 46.4641 193.448 47.186 191.566C47.9079 189.685 49.0015 187.968 50.4015 186.518C51.8015 185.069 53.4793 183.916 55.3346 183.13C57.1899 182.343 59.1848 181.938 61.2 181.939C61.8958 181.936 62.5909 181.983 63.28 182.079C64.65 182.269 95.59 186.739 125.77 202.369C127.463 198.749 129.29 195.083 131.25 191.369C132.277 189.434 133.716 187.748 135.465 186.428C137.214 185.109 139.23 184.188 141.373 183.732C143.516 183.275 145.732 183.294 147.867 183.786C150.002 184.278 152.003 185.231 153.73 186.579C153.9 186.709 155.99 188.349 159.21 191.229C171.92 177.229 188.55 163.709 208.84 150.999C210.696 149.837 212.784 149.096 214.958 148.827C217.131 148.559 219.337 148.769 221.42 149.444C223.504 150.119 225.414 151.241 227.017 152.733C228.62 154.225 229.877 156.05 230.7 158.079C234.025 166.728 236.748 175.596 238.85 184.619C246.73 177.439 268.93 158.519 297.54 144.919C293.86 138.429 290.32 131.459 286.97 124.079C286.062 122.085 285.602 119.917 285.623 117.726C285.643 115.535 286.143 113.375 287.088 111.398C288.032 109.421 289.399 107.675 291.09 106.283C292.782 104.891 294.758 103.886 296.88 103.339C304.127 101.613 311.475 100.337 318.88 99.5194C315.61 78.8394 315.22 55.3094 317.74 29.2894C318.098 25.5778 319.826 22.1325 322.586 19.6255C325.346 17.1186 328.941 15.7295 332.67 15.7294C334.022 15.7358 335.367 15.9207 336.67 16.2794C358.979 23.0513 380.249 32.8635 399.88 45.4394C402.753 40.8594 405.85 36.2394 409.17 31.5794C410.44 29.8029 412.082 28.325 413.982 27.2489C415.882 26.1729 417.994 25.5246 420.17 25.3494C420.56 25.3494 420.95 25.2994 421.34 25.2994C423.335 25.2996 425.309 25.6978 427.148 26.4705C428.987 27.2431 430.654 28.3748 432.05 29.7994C432.31 30.0694 436.43 34.2994 442.05 41.3594C459.05 26.6494 480.85 13.2294 507.05 1.35936C509.044 0.453467 511.211 -0.00494197 513.401 0.016333C515.591 0.0376081 517.749 0.538055 519.725 1.48251C521.701 2.42697 523.445 3.79253 524.837 5.48328C526.229 7.17404 527.233 9.14897 527.78 11.2694C528.19 12.8594 537.5 49.6794 533.4 90.1094C538.91 90.2994 544.6 90.6794 550.4 91.2494C552.586 91.4598 554.698 92.1474 556.589 93.2638C558.48 94.3801 560.102 95.898 561.342 97.7101C562.582 99.5221 563.409 101.584 563.764 103.751C564.12 105.918 563.996 108.136 563.4 110.249C563.32 110.529 562.21 114.469 559.96 120.579C581.41 127.959 604.13 140.169 627.74 157.039C629.522 158.313 631.003 159.962 632.079 161.869C633.155 163.776 633.801 165.896 633.971 168.079C634.14 170.263 633.83 172.457 633.061 174.508C632.292 176.558 631.083 178.416 629.52 179.949C628.42 181.079 599.72 208.959 561.12 225.509L560.65 225.709C563.65 231.279 566.65 237.189 569.45 243.379C570.35 245.372 570.804 247.538 570.78 249.724C570.755 251.911 570.253 254.066 569.307 256.038C568.362 258.01 566.998 259.752 565.309 261.141C563.62 262.53 561.647 263.533 559.53 264.079C559.32 264.079 556.46 264.859 551.71 265.749C553.293 274.977 554.295 284.296 554.71 293.649C558.597 292.454 562.55 291.486 566.55 290.749C567.35 290.622 568.16 290.558 568.97 290.559C571.142 290.559 573.288 291.031 575.26 291.941C577.232 292.852 578.983 294.18 580.391 295.834C581.8 297.487 582.832 299.427 583.417 301.519C584.002 303.611 584.126 305.805 583.78 307.949C576.31 354.239 562.66 396.069 543.22 432.289V432.349C521.22 473.229 492.01 507.059 456.29 532.929C433.667 549.494 408.562 562.37 381.91 571.079L379.99 571.689C374.89 650.689 376.53 722.749 384.67 775.509C385 777.648 384.864 779.833 384.271 781.914C383.677 783.995 382.64 785.922 381.231 787.565C379.823 789.208 378.075 790.526 376.109 791.429C374.142 792.333 372.004 792.8 369.84 792.799L334.27 792.759ZM159.59 455.149C173.92 458.269 241.34 477.079 295.15 562.639C283.82 518.639 268.87 478.719 250.44 443.359C236.454 439.631 222.894 434.456 209.98 427.919C207.5 433.766 204.643 439.743 201.41 445.849C200.383 447.785 198.945 449.471 197.197 450.791C195.449 452.111 193.432 453.032 191.29 453.489C189.147 453.947 186.93 453.93 184.795 453.44C182.66 452.949 180.658 451.997 178.93 450.649C178.72 450.479 175.76 448.159 171.4 444.129C167.74 447.843 163.803 451.516 159.59 455.149ZM286.42 373.939C300.876 396.713 313.522 420.586 324.24 445.339C329.11 418.459 335.02 391.079 341.92 363.429C339.795 361.47 338.281 358.939 337.56 356.139C332.974 336.507 330.742 316.399 330.91 296.239C323.31 304.949 306.2 322.939 283.78 336.709C287.287 341.429 290.723 346.476 294.09 351.849C295.253 353.707 295.996 355.796 296.265 357.971C296.534 360.146 296.323 362.354 295.647 364.438C294.971 366.523 293.847 368.435 292.353 370.038C290.859 371.641 289.032 372.898 287 373.719L286.42 373.939ZM418.84 331.619C415.11 344.489 411.58 357.409 408.31 370.109C403.75 387.829 399.39 409.459 395.45 433.449C423.67 383.449 456.2 351.119 483.59 330.629C475.668 326.203 468.042 321.266 460.76 315.849L460.4 315.579C456.51 322.239 452.1 329.029 447.21 335.879C445.94 337.656 444.298 339.134 442.398 340.21C440.498 341.286 438.386 341.934 436.21 342.109C435.82 342.109 435.43 342.159 435.04 342.159C433.045 342.159 431.071 341.761 429.232 340.988C427.393 340.216 425.726 339.084 424.33 337.659C424.1 337.489 422 335.339 418.81 331.619H418.84ZM273.56 246.369C280.623 248.044 287.587 250.111 294.42 252.559C295.16 250.329 296.18 247.409 297.5 243.989C289.022 240.63 280.748 236.776 272.72 232.449C274.251 235.271 274.837 238.51 274.39 241.689C274.35 241.839 274.1 243.549 273.56 246.369ZM243.87 214.839C244.18 218.349 244.4 221.929 244.49 225.569C249.157 225.109 253.987 224.776 258.98 224.569C254 221.576 248.963 218.333 243.87 214.839Z" fill="#231F20"/>
<path d="M361.87 560.86L569.01 305.6C569.01 305.6 420.23 329.83 361.87 560.86Z" fill="#66BE64"/>
<path d="M569.01 305.6L361.87 560.86C361.87 560.86 532.7 530.65 569.01 305.6Z" fill="#4CA84E"/>
<g style="mix-blend-mode:multiply">
<path d="M408.82 440.208C390.63 472.308 374.23 511.949 361.87 560.859C361.87 560.859 467.22 542.219 530.04 425.229C475.96 484.079 408.83 440.208 408.82 440.208Z" fill="#4CA84E"/>
</g>
<path d="M329.7 685.28L154.54 469.43C154.54 469.43 280.35 489.92 329.7 685.28Z" fill="#66BE64"/>
<path d="M154.54 469.43L329.7 685.28C329.7 685.28 185.25 659.74 154.54 469.43Z" fill="#4CA84E"/>
<g style="mix-blend-mode:multiply">
<path d="M289.99 583.26C305.38 610.41 319.25 643.92 329.7 685.26C329.7 685.26 240.62 669.51 187.49 570.57C233.23 620.34 289.99 583.26 289.99 583.26Z" fill="#4CA84E"/>
</g>
<path d="M417.42 180.6C416.13 183.6 385.42 254.35 359.02 356.76C346.454 405.016 336.863 453.998 330.3 503.43C326.38 491.61 322.203 480.106 317.77 468.92C301.42 427.84 281.52 391.14 258.58 359.84C218.67 305.42 182.99 285.78 181.49 284.97L164.31 316.61C164.62 316.78 195.84 334.41 231.16 383.35C262.62 426.94 303.74 502.69 323.94 627.61C324.67 683.66 328.79 742.23 334.27 777.76H369.84C350.62 653.13 370.23 457.81 393.75 366.38C419.42 266.76 450.04 195.93 450.42 195.01L417.42 180.6Z" fill="#4DA94E"/>
<path d="M428.21 183.729L421.42 40.3086C345.52 146.609 428.21 183.729 428.21 183.729Z" fill="#66BE64"/>
<path d="M421.42 40.3086L428.18 183.729C508.42 128.979 421.42 40.3086 421.42 40.3086Z" fill="#4CA84E"/>
<g style="mix-blend-mode:multiply" opacity="0.58">
<path d="M428.21 183.729C469.41 155.599 466.49 118.519 453.91 89.1094C453.91 89.1094 454.81 159.619 392.05 140.729C400.82 171.439 428.21 183.729 428.21 183.729Z" fill="#B6BCCC"/>
</g>
<path d="M428.21 183.729L300.62 117.879C354.71 236.789 428.21 183.729 428.21 183.729Z" fill="#66BE64"/>
<path d="M300.62 117.879L428.21 183.729C420.88 86.9193 300.62 117.879 300.62 117.879Z" fill="#4CA84E"/>
<g style="mix-blend-mode:multiply" opacity="0.58">
<path d="M428.21 183.73C424.45 133.99 390.87 117.98 359.11 114.17C359.11 114.17 420.62 148.65 372.89 193.56C403.86 201.3 428.21 183.73 428.21 183.73Z" fill="#B6BCCC"/>
</g>
<path d="M428.21 183.729L307.42 261.299C437.42 273.909 428.21 183.729 428.21 183.729Z" fill="#66BE64"/>
<path d="M307.42 261.3L428.25 183.73C340.7 141.67 307.42 261.3 307.42 261.3Z" fill="#4CA84E"/>
<g style="mix-blend-mode:multiply" opacity="0.58">
<path d="M428.21 183.729C383.21 162.119 352.59 183.199 333.41 208.799C333.41 208.799 394.03 172.799 409.05 236.559C431.25 213.599 428.21 183.729 428.21 183.729Z" fill="#B6BCCC"/>
</g>
<path d="M428.21 183.729L434.97 327.159C510.9 220.859 428.21 183.729 428.21 183.729Z" fill="#66BE64"/>
<path d="M434.97 327.159L428.21 183.729C348.03 238.489 434.97 327.159 434.97 327.159Z" fill="#4CA84E"/>
<g style="mix-blend-mode:multiply" opacity="0.58">
<path d="M428.21 183.729C387.01 211.869 389.94 248.949 402.51 278.359C402.51 278.359 401.62 207.849 464.37 226.739C455.6 196.079 428.21 183.729 428.21 183.729Z" fill="#B6BCCC"/>
</g>
<path d="M428.21 183.729L555.8 249.589C501.71 130.679 428.21 183.729 428.21 183.729Z" fill="#66BE64"/>
<path d="M555.8 249.589L428.21 183.729C435.54 280.549 555.8 249.589 555.8 249.589Z" fill="#4CA84E"/>
<g style="mix-blend-mode:multiply" opacity="0.58">
<path d="M428.21 183.73C431.97 233.48 465.55 249.49 497.31 253.3C497.31 253.3 435.8 218.82 483.54 173.91C452.56 166.17 428.21 183.73 428.21 183.73Z" fill="#B6BCCC"/>
</g>
<path d="M428.21 183.73L549.04 106.17C419.01 93.5602 428.21 183.73 428.21 183.73Z" fill="#66BE64"/>
<path d="M549.04 106.17L428.21 183.73C515.72 225.8 549.04 106.17 549.04 106.17Z" fill="#4CA84E"/>
<g style="mix-blend-mode:multiply" opacity="0.58">
<path d="M428.21 183.73C473.21 205.35 503.83 184.27 523.01 158.67C523.01 158.67 462.42 194.7 447.42 130.91C425.17 153.87 428.21 183.73 428.21 183.73Z" fill="#B6BCCC"/>
</g>
<path d="M434.53 189.34L332.71 30.7402C316.16 201.41 434.53 189.34 434.53 189.34Z" fill="#F0EBCE"/>
<path d="M332.71 30.7402L434.53 189.34C489.74 74.4802 332.71 30.7402 332.71 30.7402Z" fill="#FBFCFC"/>
<g style="mix-blend-mode:multiply" opacity="0.58">
<path d="M434.53 189.34C462.9 130.34 435.24 90.0902 401.64 64.9102C401.64 64.9102 448.93 144.48 365.21 164.19C395.33 193.33 434.53 189.34 434.53 189.34Z" fill="#B6BCCC"/>
</g>
<path d="M434.53 189.34L246.27 198.22C385.8 297.88 434.53 189.34 434.53 189.34Z" fill="#F0EBCE"/>
<path d="M246.27 198.22L434.53 189.34C362.66 84.0799 246.27 198.22 246.27 198.22Z" fill="#FBFCFC"/>
<g style="mix-blend-mode:multiply" opacity="0.58">
<path d="M434.53 189.34C397.61 135.27 348.93 139.1 310.32 155.61C310.32 155.61 402.87 154.45 378.09 236.81C418.42 225.29 434.53 189.34 434.53 189.34Z" fill="#B6BCCC"/>
</g>
<path d="M438.49 184.93L352.06 352.4C508.13 281.4 438.49 184.93 438.49 184.93Z" fill="#F0EBCE"/>
<path d="M352.06 352.4L438.49 184.93C311.42 194.55 352.06 352.4 352.06 352.4Z" fill="#FBFCFC"/>
<g style="mix-blend-mode:multiply" opacity="0.58">
<path d="M438.49 184.93C373.2 189.87 352.19 233.93 347.18 275.63C347.18 275.63 392.42 194.9 451.42 257.55C461.56 216.88 438.49 184.93 438.49 184.93Z" fill="#B6BCCC"/>
</g>
<path d="M436.66 179.289L538.47 337.879C555.02 167.219 436.66 179.289 436.66 179.289Z" fill="#F0EBCE"/>
<path d="M538.47 337.879L436.66 179.289C381.42 294.149 538.47 337.879 538.47 337.879Z" fill="#FBFCFC"/>
<g style="mix-blend-mode:multiply" opacity="0.58">
<path d="M436.66 179.289C408.29 238.289 435.95 278.539 469.55 303.719C469.55 303.719 422.26 224.149 505.99 204.439C475.86 175.289 436.66 179.289 436.66 179.289Z" fill="#B6BCCC"/>
</g>
<path d="M430.85 178.08L619.11 169.2C479.58 69.5196 430.85 178.08 430.85 178.08Z" fill="#F0EBCE"/>
<path d="M619.11 169.18L430.85 178.08C502.72 283.31 619.11 169.18 619.11 169.18Z" fill="#FBFCFC"/>
<g style="mix-blend-mode:multiply" opacity="0.58">
<path d="M430.85 178.079C467.78 232.159 516.45 228.319 555.06 211.809C555.06 211.809 462.51 212.979 487.3 130.609C447 142.079 430.85 178.079 430.85 178.079Z" fill="#B6BCCC"/>
</g>
<path d="M426.89 182.47L513.33 15C357.25 86 426.89 182.47 426.89 182.47Z" fill="#F0EBCE"/>
<path d="M513.33 15L426.89 182.47C553.97 172.86 513.33 15 513.33 15Z" fill="#FBFCFC"/>
<g style="mix-blend-mode:multiply" opacity="0.58">
<path d="M426.89 182.47C492.18 177.53 513.2 133.47 518.2 91.7695C518.2 91.7695 472.94 172.51 414 109.86C403.83 150.52 426.89 182.47 426.89 182.47Z" fill="#B6BCCC"/>
</g>
<g style="mix-blend-mode:multiply" opacity="0.58">
<path d="M432.28 198.51C439.741 198.51 445.79 192.462 445.79 185C445.79 177.539 439.741 171.49 432.28 171.49C424.819 171.49 418.77 177.539 418.77 185C418.77 192.462 424.819 198.51 432.28 198.51Z" fill="#B6BCCC"/>
</g>
<path d="M433.54 187.91L427.27 185.91L430.41 186.91L427.27 185.91C427.27 185.8 430.6 175.15 429.68 158.02C428.84 142.21 424.12 117.48 406.47 89.4397L412.05 85.9297C430.55 115.33 435.44 141.37 436.28 158.03C437.2 176.26 433.69 187.44 433.54 187.91Z" fill="#66BE64"/>
<path d="M408.25 96.0896C413.149 96.0896 417.12 92.1184 417.12 87.2196C417.12 82.3208 413.149 78.3496 408.25 78.3496C403.351 78.3496 399.38 82.3208 399.38 87.2196C399.38 92.1184 403.351 96.0896 408.25 96.0896Z" fill="#F1594B"/>
<path d="M426.97 186.759L431.42 191.619L429.2 189.189L431.42 191.619C431.5 191.549 439.8 184.099 455.74 177.769C470.46 171.929 494.89 165.879 527.74 170.179L528.6 163.649C494.16 159.139 468.46 165.579 452.97 171.779C436.03 178.569 427.33 186.429 426.97 186.759Z" fill="#66BE64"/>
<path d="M529.02 176.519C533.919 176.519 537.89 172.548 537.89 167.649C537.89 162.751 533.919 158.779 529.02 158.779C524.121 158.779 520.15 162.751 520.15 167.649C520.15 172.548 524.121 176.519 529.02 176.519Z" fill="#F1594B"/>
<path d="M431.21 191.199L427.03 186.079C437.22 177.729 445.1 157.379 449.83 127.239C452.086 112.578 453.452 97.7944 453.92 82.9688L460.51 83.0887C460.027 98.1918 458.638 113.252 456.35 128.189C451.3 160.479 442.84 181.669 431.21 191.199Z" fill="#66BE64"/>
<path d="M455.75 91.7888C460.649 91.7888 464.62 87.8176 464.62 82.9188C464.62 78.0201 460.649 74.0488 455.75 74.0488C450.851 74.0488 446.88 78.0201 446.88 82.9188C446.88 87.8176 450.851 91.7888 455.75 91.7888Z" fill="#F1594B"/>
<path d="M432.19 181.61L431.19 175.11C444.19 173.01 459.77 158.72 476.19 133.81C484.18 121.541 491.336 108.749 497.61 95.5195L503.61 98.2495C497.21 111.763 489.907 124.829 481.75 137.36C463.96 164.28 447.31 179.17 432.19 181.61Z" fill="#66BE64"/>
<path d="M499.24 107.709C504.139 107.709 508.11 103.738 508.11 98.8387C508.11 93.94 504.139 89.9688 499.24 89.9688C494.341 89.9688 490.37 93.94 490.37 98.8387C490.37 103.738 494.341 107.709 499.24 107.709Z" fill="#F1594B"/>
<path d="M166.33 318.61L51.3301 277.42C110.3 371.63 166.33 318.61 166.33 318.61Z" fill="#66BE64"/>
<path d="M51.3 277.42L166.3 318.61C149.26 237.78 51.3 277.42 51.3 277.42Z" fill="#4CA84E"/>
<g style="mix-blend-mode:multiply" opacity="0.58">
<path d="M166.33 318.609C157.56 277.079 127.42 267.349 100.22 267.709C100.22 267.709 155.98 289.879 120.77 333.079C147.77 336.169 166.33 318.609 166.33 318.609Z" fill="#B6BCCC"/>
</g>
<path d="M166.33 318.609L73.1399 397.609C184.22 393.639 166.33 318.609 166.33 318.609Z" fill="#66BE64"/>
<path d="M73.1399 397.63L166.33 318.63C87.7899 292.98 73.1399 397.63 73.1399 397.63Z" fill="#4CA84E"/>
<g style="mix-blend-mode:multiply" opacity="0.58">
<path d="M166.33 318.609C125.97 305.439 102.49 326.659 89.1899 350.409C89.1899 350.409 136.27 313.209 156.11 365.319C172.25 343.459 166.33 318.609 166.33 318.609Z" fill="#B6BCCC"/>
</g>
<path d="M166.33 318.609L188.16 438.819C240.25 340.629 166.33 318.609 166.33 318.609Z" fill="#66BE64"/>
<path d="M188.16 438.819L166.33 318.609C104.85 373.809 188.16 438.819 188.16 438.819Z" fill="#4CA84E"/>
<g style="mix-blend-mode:multiply" opacity="0.58">
<path d="M166.33 318.609C134.74 346.969 141.33 377.919 155.33 401.319C155.33 401.319 146.65 341.939 201.7 350.819C190.81 325.909 166.33 318.609 166.33 318.609Z" fill="#B6BCCC"/>
</g>
<path d="M166.33 318.61L281.33 359.81C222.35 265.6 166.33 318.61 166.33 318.61Z" fill="#66BE64"/>
<path d="M281.35 359.809L166.35 318.609C183.42 399.449 281.35 359.809 281.35 359.809Z" fill="#4CA84E"/>
<g style="mix-blend-mode:multiply" opacity="0.58">
<path d="M166.33 318.61C175.1 360.15 205.22 369.87 232.43 369.52C232.43 369.52 176.68 347.35 211.89 304.08C184.88 301.08 166.33 318.61 166.33 318.61Z" fill="#B6BCCC"/>
</g>
<path d="M166.33 318.609L259.52 239.609C148.42 243.589 166.33 318.609 166.33 318.609Z" fill="#66BE64"/>
<path d="M259.52 239.6L166.33 318.6C244.87 344.25 259.52 239.6 259.52 239.6Z" fill="#4CA84E"/>
<g style="mix-blend-mode:multiply" opacity="0.58">
<path d="M166.33 318.608C206.68 331.778 230.17 310.608 243.47 286.808C243.47 286.808 196.42 324.018 176.54 271.898C160.42 293.758 166.33 318.608 166.33 318.608Z" fill="#B6BCCC"/>
</g>
<path d="M166.33 318.608L144.49 198.398C92.4201 296.598 166.33 318.608 166.33 318.608Z" fill="#66BE64"/>
<path d="M144.49 198.398L166.33 318.608C227.8 263.408 144.49 198.398 144.49 198.398Z" fill="#4CA84E"/>
<g style="mix-blend-mode:multiply" opacity="0.58">
<path d="M166.33 318.61C197.91 290.25 191.28 259.3 177.33 235.91C177.33 235.91 186.01 295.28 130.96 286.41C141.84 311.32 166.33 318.61 166.33 318.61Z" fill="#B6BCCC"/>
</g>
<path d="M172.79 315.459L15 344.079C143.89 412.489 172.79 315.459 172.79 315.459Z" fill="#F0EBCE"/>
<path d="M15 344.079L172.79 315.419C100.33 234.769 15 344.079 15 344.079Z" fill="#FBFCFC"/>
<g style="mix-blend-mode:multiply" opacity="0.58">
<path d="M172.79 315.459C135.56 273.999 94.94 282.709 64.23 300.979C64.23 300.979 142.16 289.589 130.52 361.849C163.21 347.599 172.79 315.459 172.79 315.459Z" fill="#B6BCCC"/>
</g>
<path d="M172.79 315.459L118.71 466.459C242.42 388.999 172.79 315.459 172.79 315.459Z" fill="#F0EBCE"/>
<path d="M118.71 466.439L172.79 315.439C66.6801 337.859 118.71 466.439 118.71 466.439Z" fill="#FBFCFC"/>
<g style="mix-blend-mode:multiply" opacity="0.58">
<path d="M172.79 315.459C118.27 326.969 105.5 366.459 105.97 402.229C105.97 402.229 135.07 329.039 191.82 375.229C195.83 339.819 172.79 315.459 172.79 315.459Z" fill="#B6BCCC"/>
</g>
<path d="M170.6 310.909L274.31 433.229C269.08 287.419 170.6 310.909 170.6 310.909Z" fill="#F0EBCE"/>
<path d="M274.31 433.23L170.6 310.91C136.95 414 274.31 433.23 274.31 433.23Z" fill="#FBFCFC"/>
<g style="mix-blend-mode:multiply" opacity="0.58">
<path d="M170.6 310.908C153.31 363.908 181.16 394.698 212.34 412.158C212.34 412.158 163.51 350.368 231.91 324.318C203.22 303.128 170.6 310.908 170.6 310.908Z" fill="#B6BCCC"/>
</g>
<path d="M165.57 310.529L323.35 281.869C194.42 213.499 165.57 310.529 165.57 310.529Z" fill="#F0EBCE"/>
<path d="M323.35 281.869L165.57 310.529C238.02 391.219 323.35 281.869 323.35 281.869Z" fill="#FBFCFC"/>
<g style="mix-blend-mode:multiply" opacity="0.58">
<path d="M165.57 310.529C202.79 351.979 243.42 343.279 274.12 325.009C274.12 325.009 196.19 336.399 207.84 264.139C175.14 278.389 165.57 310.529 165.57 310.529Z" fill="#B6BCCC"/>
</g>
<path d="M162.72 314.689L216.8 163.689C93.1399 241.149 162.72 314.689 162.72 314.689Z" fill="#F0EBCE"/>
<path d="M216.8 163.719L162.72 314.719C268.83 292.289 216.8 163.719 216.8 163.719Z" fill="#FBFCFC"/>
<g style="mix-blend-mode:multiply" opacity="0.58">
<path d="M162.72 314.69C217.24 303.18 230.01 263.69 229.54 227.92C229.54 227.92 200.44 301.11 143.68 254.92C139.68 290.33 162.72 314.69 162.72 314.69Z" fill="#B6BCCC"/>
</g>
<path d="M164.91 319.24L61.1899 196.93C66.4199 342.74 164.91 319.24 164.91 319.24Z" fill="#F0EBCE"/>
<path d="M61.1899 196.93L164.91 319.24C198.56 216.15 61.1899 196.93 61.1899 196.93Z" fill="#FBFCFC"/>
<g style="mix-blend-mode:multiply" opacity="0.58">
<path d="M164.91 319.24C182.2 266.24 154.34 235.45 123.17 217.99C123.17 217.99 172 279.79 103.6 305.83C132.29 327.02 164.91 319.24 164.91 319.24Z" fill="#B6BCCC"/>
</g>
<g style="mix-blend-mode:multiply" opacity="0.58">
<path d="M168.64 327.31C174.986 327.31 180.13 322.166 180.13 315.82C180.13 309.474 174.986 304.33 168.64 304.33C162.294 304.33 157.15 309.474 157.15 315.82C157.15 322.166 162.294 327.31 168.64 327.31Z" fill="#B6BCCC"/>
</g>
<path d="M171.34 315.769L167.72 320.079L169.53 317.939L167.73 320.089C167.66 320.029 160.35 313.979 146.57 309.089C133.86 304.629 112.88 300.319 85.0899 305.089L84.1399 299.569C113.27 294.569 135.34 299.149 148.72 303.889C163.36 309.079 171.02 315.499 171.34 315.769Z" fill="#66BE64"/>
<path d="M83.9299 310.569C88.0996 310.569 91.4799 307.188 91.4799 303.019C91.4799 298.849 88.0996 295.469 83.9299 295.469C79.7601 295.469 76.3799 298.849 76.3799 303.019C76.3799 307.188 79.7601 310.569 83.9299 310.569Z" fill="#F1594B"/>
<path d="M168.3 320.569L173.57 318.639L170.93 319.639L173.57 318.639C173.57 318.549 170.37 309.639 170.57 295.009C170.75 281.539 173.91 260.349 187.96 235.909L183.1 233.109C168.38 258.739 165.1 281.049 164.97 295.249C164.8 310.789 168.16 320.179 168.3 320.569Z" fill="#66BE64"/>
<path d="M186.37 241.639C190.54 241.639 193.92 238.259 193.92 234.089C193.92 229.919 190.54 226.539 186.37 226.539C182.2 226.539 178.82 229.919 178.82 234.089C178.82 238.259 182.2 241.639 186.37 241.639Z" fill="#F1594B"/>
<path d="M173.17 318.67L167.81 320.31C164.55 309.59 151.1 296.79 128.92 283.31C118.117 276.777 106.93 270.9 95.4199 265.71L97.6499 260.57C109.373 265.851 120.77 271.829 131.78 278.47C155.52 292.91 169.42 306.43 173.17 318.67Z" fill="#66BE64"/>
<path d="M95.9499 271.799C100.12 271.799 103.5 268.419 103.5 264.249C103.5 260.079 100.12 256.699 95.9499 256.699C91.7801 256.699 88.3999 260.079 88.3999 264.249C88.3999 268.419 91.7801 271.799 95.9499 271.799Z" fill="#F1594B"/>
<path d="M165.95 314.789L160.49 313.509C163.06 302.579 156.87 285.709 142.59 264.729C135.536 254.461 127.795 244.681 119.42 235.459L123.52 231.629C132.069 241.052 139.977 251.038 147.19 261.519C162.62 284.179 168.93 302.079 165.95 314.789Z" fill="#66BE64"/>
<path d="M122.58 242.748C126.75 242.748 130.13 239.368 130.13 235.198C130.13 231.029 126.75 227.648 122.58 227.648C118.41 227.648 115.03 231.029 115.03 235.198C115.03 239.368 118.41 242.748 122.58 242.748Z" fill="#F1594B"/>
<path d="M555.06 165.449C563.908 165.449 571.08 159.683 571.08 152.569C571.08 145.456 563.908 139.689 555.06 139.689C546.212 139.689 539.04 145.456 539.04 152.569C539.04 159.683 546.212 165.449 555.06 165.449Z" fill="white"/>
<path d="M477.009 65.3879C483.85 59.7769 486.147 51.2681 482.14 46.3831C478.133 41.4981 469.34 42.0866 462.499 47.6977C455.658 53.3087 453.361 61.8175 457.368 66.7026C461.375 71.5876 470.168 70.999 477.009 65.3879Z" fill="white"/>
<path d="M529.95 152.569C532.695 152.569 534.92 150.344 534.92 147.599C534.92 144.854 532.695 142.629 529.95 142.629C527.205 142.629 524.98 144.854 524.98 147.599C524.98 150.344 527.205 152.569 529.95 152.569Z" fill="white"/>
<path d="M490.37 48.5689C493.115 48.5689 495.34 46.3438 495.34 43.5989C495.34 40.854 493.115 38.6289 490.37 38.6289C487.625 38.6289 485.4 40.854 485.4 43.5989C485.4 46.3438 487.625 48.5689 490.37 48.5689Z" fill="white"/>
</g>
<defs>
<clipPath id="clip0_4883_517">
<rect width="634.11" height="842.16" fill="white"/>
</clipPath>
</defs>
</svg>
