<svg width="336" height="492" viewBox="0 0 336 492" fill="none" xmlns="http://www.w3.org/2000/svg">
<path d="M326.001 33.1993C332.501 44.6993 334.101 58.4993 332.901 71.6993C331.701 84.8993 327.901 97.6993 324.201 110.399C321.401 119.999 321.701 138.499 318.801 147.999C314.901 126.699 309.401 105.699 298.801 86.8993C294.601 79.4993 289.401 72.1993 281.801 68.4993C270.601 62.9993 257.601 66.1993 245.101 67.9993L244.801 66.1993C247.001 57.2993 248.601 48.0993 247.801 38.8993C247.501 35.2993 246.701 31.6993 245.501 28.2993L246.801 27.7993C249.101 21.8993 254.701 17.7993 260.801 15.8993C266.801 13.9993 273.201 13.7993 279.601 13.6993C291.301 13.4993 303.901 13.3993 313.801 19.6993C319.001 23.0993 323.001 27.8993 326.001 33.1993Z" fill="#F7D7BF"/>
<path d="M219.3 168.3C219.2 167.8 219.1 167.2 219.1 166.6C219 162.1 222.1 158.2 225.1 154.8V154.6C223.2 154.9 221.4 155 219.5 155.1C207.5 155.6 195.7 152.3 184.5 147.8C177.1 144.9 169.9 141.3 163.2 136.9C158.4 133.7 153.9 130 149.9 125.8C140.5 115.7 134.4 102.1 135.5 88.2998C135.9 84.1998 136.9 79.9998 139.5 76.7998C142.4 73.1998 146.8 71.1998 151.2 69.7998C152.3 69.4998 153.4 69.0998 154.4 68.8998C182.2 61.4998 212.3 71.8998 241.1 68.5998C242.4 68.4998 243.7 68.2998 245 68.0998C257.5 66.2998 270.6 63.0998 281.7 68.5998C289.3 72.3998 294.5 79.5998 298.7 86.9998C309.3 105.8 314.7 126.8 318.7 148.1C320.2 156.2 321.5 164.3 322.8 172.4C324.1 181 325.5 189.7 324.7 198.4C323.9 206.5 321.3 214.3 318.7 222C313.9 236 309.1 250.1 304.3 264.1C298.3 281.7 292.2 299.5 283.6 316C278.2 326.4 271.7 336.3 266.7 347C253.6 374.7 250.6 406 248.1 436.5C247.5 444.2 246.8 452.1 243.3 459C237.4 470.5 224.7 476.8 212.4 480.9C171.9 494.2 126.4 491.3 88.0002 473C79.2002 468.8 70.3002 463.4 65.5002 454.9C58.0002 441.6 62.7002 425 62.0002 409.8C61.5002 398.7 58.1002 387.8 52.1002 378.5C45.9002 368.7 37.0002 360.8 30.7002 351.1C26.0002 343.9 22.8002 335.9 20.0002 327.8C4.0002 282.3 -0.199797 232.6 7.8002 185L9.3002 183.5C10.9002 185.5 12.7002 187.4 14.4002 189.3C26.1002 201.5 37.7002 213.7 49.4002 226C54.2002 231 59.1002 236.1 65.4002 238.9C69.7002 240.8 74.5002 241.5 79.2002 241.5C92.0002 241.5 105.8 234.9 109.9 222.7C112.5 214.8 110.7 206.3 108.3 198.3C112.1 206.3 122.1 213.7 130.8 214.8C139.6 215.9 148.7 212.7 155.3 206.8C162.8 200 166.9 190.1 168.2 180L168.7 180.1C169.8 186.2 175.5 191.3 181.7 191.6L182.4 193.4C192.9 182.5 205.5 173.9 219.3 168.3Z" fill="#FAD3B2"/>
<path d="M247.9 38.8996C248.7 48.0996 247.1 57.2996 244.9 66.1996L245.2 67.9996C243.9 68.1996 242.6 68.3996 241.3 68.4996C212.5 71.8996 182.4 61.4996 154.6 68.7996L154 66.9996C153.8 63.0996 152.8 59.3996 151.1 55.8996L152 55.4996C152.1 42.1996 156.7 28.8996 165.5 18.8996C174.3 8.89961 187.2 2.59961 200.5 2.59961C205.8 2.59961 211 3.59961 216 4.89961C223.4 6.79961 230.9 9.39961 236.6 14.4996C240.8 18.1996 243.7 23.0996 245.6 28.3996C246.8 31.7996 247.6 35.3996 247.9 38.8996Z" fill="#F7D7BF"/>
<path d="M225.001 154.6V154.8C222.001 158.2 218.901 162.1 219.001 166.6C219.001 167.2 219.101 167.7 219.201 168.3C205.401 173.9 192.801 182.5 182.401 193.3L181.701 191.5C175.501 191.2 169.801 186.1 168.701 180L168.201 179.9C168.501 177.8 168.601 175.7 168.701 173.7C169.001 161.5 165.901 149.4 162.701 137.6L163.101 137C169.701 141.4 177.001 144.9 184.401 147.9C195.501 152.4 207.401 155.7 219.401 155.2C221.301 155.1 223.201 154.9 225.001 154.6Z" fill="#F7D7BF"/>
<path d="M162.8 137.6C166 149.4 169 161.4 168.8 173.7C168.8 175.8 168.6 177.9 168.3 179.9C167 190 162.9 199.9 155.4 206.7C148.8 212.6 139.7 215.8 130.9 214.7C122.2 213.6 112.2 206.1 108.4 198.2C108.1 197.1 107.7 196 107.4 195C99.0004 168.9 89.5004 143.2 79.0004 118C76.6004 112.1 73.7004 105.9 68.9004 101.9L70.7004 101.6C66.5004 82.8996 72.9004 62.0996 87.0004 49.0996C97.6004 39.2996 112.8 33.8996 126.9 36.9996C137.2 39.2996 146.5 46.4996 151 55.8996C152.7 59.3996 153.7 63.0996 153.9 66.9996L154.4 68.7996C153.3 69.0996 152.2 69.3996 151.2 69.6996C146.8 71.0996 142.4 73.0996 139.5 76.6996C136.9 79.8996 135.9 84.0996 135.5 88.1996C134.4 101.9 140.5 115.6 149.9 125.7C153.9 129.9 158.4 133.6 163.2 136.8L162.8 137.6Z" fill="#F7D7BF"/>
<path d="M108.4 198.199C110.8 206.199 112.7 214.699 110 222.599C105.9 234.699 92.1003 241.299 79.3003 241.399C74.6003 241.399 69.8003 240.699 65.5003 238.799C59.2003 235.999 54.3003 230.899 49.5003 225.899C37.8003 213.699 26.2003 201.499 14.5003 189.199C12.7003 187.299 10.9003 185.399 9.40029 183.399C8.50029 182.199 7.60029 180.899 6.90029 179.499C5.20029 176.199 4.3003 172.399 3.8003 168.699C0.100303 142.199 14.0003 113.999 37.3003 100.799C45.5003 96.0992 57.6003 92.6992 64.5003 99.1992C66.1003 99.8992 67.6003 100.799 68.9003 101.899C73.6003 105.799 76.5003 112.099 79.0003 117.999C89.5003 143.299 99.0003 168.999 107.4 194.999C107.8 196.099 108.1 197.099 108.4 198.199Z" fill="#F7D7BF"/>
<path d="M318.899 148C320.399 156.1 321.699 164.2 322.999 172.3C324.299 180.9 325.699 189.6 324.899 198.3C324.099 206.4 321.499 214.2 318.899 221.9C314.099 235.9 309.299 250 304.499 264C298.499 281.6 292.399 299.4 283.799 315.9C278.399 326.3 271.899 336.2 266.899 346.9C253.799 374.6 250.799 405.9 248.299 436.4C247.699 444.1 246.999 452 243.499 458.9C237.599 470.4 224.899 476.7 212.599 480.8C172.099 494.1 126.599 491.2 88.1994 472.9C79.3994 468.7 70.4994 463.3 65.6994 454.8C58.1994 441.5 62.8994 424.9 62.1994 409.7C61.6994 398.6 58.2994 387.7 52.2994 378.4C46.0994 368.6 37.1994 360.7 30.8994 351C26.1994 343.8 22.9994 335.8 20.1994 327.7C4.19942 282.2 -0.000578642 232.5 7.99942 184.9" stroke="black" stroke-width="5" stroke-miterlimit="10" stroke-linecap="round" stroke-linejoin="round"/>
<path d="M251.401 140.9C244.901 148.7 235.101 153.2 225.001 154.6C223.101 154.9 221.301 155 219.401 155.1C207.401 155.6 195.601 152.3 184.401 147.8C177.001 144.9 169.801 141.3 163.101 136.9C158.301 133.7 153.801 130 149.801 125.8C140.401 115.7 134.301 102.1 135.401 88.2998C135.801 84.1998 136.801 79.9998 139.401 76.7998C142.301 73.1998 146.701 71.1998 151.101 69.7998C152.201 69.4998 153.301 69.0998 154.301 68.8998C182.101 61.4998 212.201 71.8998 241.001 68.5998C242.301 68.4998 243.601 68.2998 244.901 68.0998C257.401 66.2998 270.501 63.0998 281.601 68.5998C289.201 72.3998 294.401 79.5998 298.601 86.9998C309.201 105.8 314.601 126.8 318.601 148.1" stroke="black" stroke-width="5" stroke-miterlimit="10" stroke-linecap="round" stroke-linejoin="round"/>
<path d="M64.5003 99.1992C57.6003 92.6992 45.6003 96.1992 37.3003 100.799C14.0003 113.999 0.100303 142.199 3.8003 168.699C4.3003 172.399 5.20029 176.199 6.90029 179.499C7.60029 180.899 8.50029 182.199 9.40029 183.399C11.0003 185.399 12.8003 187.299 14.5003 189.199C26.2003 201.399 37.8003 213.599 49.5003 225.899C54.3003 230.899 59.2003 235.999 65.5003 238.799C69.8003 240.699 74.6003 241.399 79.3003 241.399C92.1003 241.399 105.9 234.799 110 222.599C112.6 214.699 110.8 206.199 108.4 198.199C108.1 197.099 107.7 195.999 107.4 194.999C99.0003 168.899 89.5003 143.199 79.0003 117.999C76.6003 112.099 73.7003 105.899 68.9003 101.899C67.6003 100.799 66.1003 99.8992 64.5003 99.1992Z" stroke="black" stroke-width="5" stroke-miterlimit="10" stroke-linecap="round" stroke-linejoin="round"/>
<path d="M70.8009 101.6C66.6009 82.8996 73.0009 62.0996 87.1009 49.0996C97.7009 39.2996 112.901 33.8996 127.001 36.9996C137.301 39.2996 146.601 46.4996 151.101 55.8996C152.801 59.3996 153.801 63.0996 154.001 66.9996" stroke="black" stroke-width="5" stroke-miterlimit="10" stroke-linecap="round" stroke-linejoin="round"/>
<path d="M108.301 198C108.301 198.1 108.401 198.1 108.401 198.2C112.201 206.2 122.201 213.6 130.901 214.7C139.701 215.8 148.801 212.6 155.401 206.7C162.901 199.9 167.001 190 168.301 179.9C168.601 177.8 168.701 175.7 168.801 173.7C169.101 161.5 166.001 149.4 162.801 137.6" stroke="black" stroke-width="5" stroke-miterlimit="10" stroke-linecap="round" stroke-linejoin="round"/>
<path d="M152 55.4996C152.1 42.1996 156.7 28.8996 165.5 18.8996C174.3 8.89961 187.2 2.59961 200.5 2.59961C205.8 2.59961 211 3.59961 216 4.89961C223.4 6.79961 230.9 9.39961 236.6 14.4996C240.8 18.1996 243.7 23.0996 245.6 28.3996C246.8 31.7996 247.5 35.3996 247.9 38.9996C248.7 48.1996 247.1 57.3996 244.9 66.2996" stroke="black" stroke-width="5" stroke-miterlimit="10" stroke-linecap="round" stroke-linejoin="round"/>
<path d="M225.1 154.899C222.1 158.299 219 162.199 219.1 166.699C219.1 167.299 219.2 167.799 219.3 168.399C219.7 170.499 220.8 172.499 221.8 174.499C225.5 181.499 229.3 188.599 235 194.099C241.1 199.999 249 203.799 256.7 207.399" stroke="black" stroke-width="5" stroke-miterlimit="10" stroke-linecap="round" stroke-linejoin="round"/>
<path d="M219.4 168.199C219.4 168.199 219.3 168.199 219.3 168.299C205.5 173.899 192.9 182.499 182.5 193.299C175.4 200.699 169.3 209.099 164.6 218.099C153 240.499 149.6 267.099 155.3 291.599" stroke="black" stroke-width="5" stroke-miterlimit="10" stroke-linecap="round" stroke-linejoin="round"/>
<path d="M168.801 180C169.901 186.1 175.601 191.2 181.801 191.5" stroke="black" stroke-width="5" stroke-miterlimit="10" stroke-linecap="round" stroke-linejoin="round"/>
<path d="M117.201 299.899C111.501 322.699 110.401 347.599 120.001 368.999C129.701 390.399 152.101 407.099 175.401 404.699" stroke="black" stroke-width="5" stroke-miterlimit="10" stroke-linecap="round" stroke-linejoin="round"/>
<path d="M78.8008 408.9C86.5008 409.7 94.3008 410.6 102.001 409.9C109.701 409.3 117.501 407 123.601 402.3" stroke="black" stroke-width="5" stroke-miterlimit="10" stroke-linecap="round" stroke-linejoin="round"/>
<path d="M64.2012 323.699C76.8012 294.699 93.1012 267.299 112.501 242.399" stroke="black" stroke-width="5" stroke-miterlimit="10" stroke-linecap="round" stroke-linejoin="round"/>
<path d="M60.4004 199.6C64.1004 191.5 75.3004 189.1 83.3004 192.8C91.3004 196.6 96.3004 204.9 98.7004 213.4" stroke="black" stroke-width="5" stroke-miterlimit="10" stroke-linecap="round" stroke-linejoin="round"/>
<path d="M122.701 173.399C124.501 169.799 128.001 167.299 131.701 165.699C135.001 164.199 138.701 163.199 142.301 163.699C147.601 164.499 151.901 168.699 154.201 173.499C156.601 178.299 157.301 183.699 158.101 188.999" stroke="black" stroke-width="5" stroke-miterlimit="10" stroke-linecap="round" stroke-linejoin="round"/>
<path d="M237.701 220.1C242.901 236.6 251.601 252 263.101 264.9" stroke="black" stroke-width="5" stroke-miterlimit="10" stroke-linecap="round" stroke-linejoin="round"/>
<path d="M247 27.8998C249.3 21.9998 254.9 17.8998 261 15.9998C267 14.0998 273.4 13.8999 279.8 13.7999C291.5 13.5999 304.1 13.4999 314 19.7999C319.1 23.0999 323.2 27.8998 326.2 33.1998C332.7 44.6998 334.3 58.4998 333.1 71.6998C331.9 84.8998 328.1 97.6998 324.4 110.4C321.6 120 321.9 138.5 319 148" stroke="black" stroke-width="5" stroke-miterlimit="10" stroke-linecap="round" stroke-linejoin="round"/>
</svg>
