<svg width="473" height="559" viewBox="0 0 473 559" fill="none" xmlns="http://www.w3.org/2000/svg">
<g clip-path="url(#clip0_4780_482)">
<path d="M204.644 558.14C277.098 558.14 335.834 543.904 335.834 526.343C335.834 508.783 277.098 494.547 204.644 494.547C132.19 494.547 73.4541 508.783 73.4541 526.343C73.4541 543.904 132.19 558.14 204.644 558.14Z" fill="#A7A9AC"/>
<path d="M195.292 526.021C192.733 525.984 190.294 524.933 188.51 523.098C186.727 521.264 185.744 518.796 185.778 516.238C185.778 515.639 186.667 455.831 193.959 386.322C192.421 344.111 181.781 298.708 162.336 251.309C160.7 249.783 159.644 247.735 159.35 245.516C159.35 245.443 159.337 245.347 159.311 245.226C156.647 242.182 148.852 235.037 127.772 223.986C123.492 221.739 118.903 219.48 114.088 217.202L113.618 217.408L112.44 217.923L111.996 218.116L110.889 218.573L110.348 218.798L108.752 219.442L108.063 219.699L107.001 220.098L106.274 220.356L105.109 220.761L104.42 220.999C103.847 221.192 103.268 221.379 102.676 221.566L101.987 221.778L100.777 222.138C100.513 222.222 100.237 222.299 99.9597 222.377L98.7561 222.711L97.9902 222.917C97.3465 223.085 96.7608 223.239 96.1429 223.387L95.4992 223.542L94.0059 223.883L93.2013 224.057L91.8754 224.327L91 224.494C90.4787 224.597 89.9573 224.687 89.4424 224.777L88.7022 224.906L86.739 225.209L85.8701 225.325L84.4605 225.511L83.5465 225.614L82.0146 225.775L81.2165 225.852C80.4763 225.917 79.7361 225.975 78.983 226.026L78.1269 226.071C77.6249 226.103 77.1099 226.129 76.5886 226.148L75.6167 226.187L74.0526 226.226H73.1515H70.7699H70.0362C69.4376 226.226 68.8454 226.226 68.2468 226.168L67.2363 226.123L65.6207 226.026L64.6423 225.962L62.4346 225.769L61.7073 225.691L59.5059 225.44L58.4954 225.305L56.7768 225.054L55.7406 224.893L53.7581 224.546L52.8119 224.372C36.4695 221.237 20.1142 214.144 4.19013 203.286C3.12319 202.558 2.21308 201.624 1.51368 200.538C0.81428 199.452 0.33981 198.237 0.118351 196.965C-0.103108 195.693 -0.0670534 194.389 0.224383 193.131C0.51582 191.873 1.05672 190.686 1.81505 189.64C2.82559 188.25 27.0077 155.527 66.7857 155.527C81.5898 155.527 96.5999 160.135 111.327 169.23L111.378 169.262C113.309 170.472 115.304 171.772 117.268 173.124C119.443 174.057 121.915 175.139 124.612 176.342C122.513 172.854 120.392 169.421 118.246 166.044L117.358 165.767L116.759 165.58L115.504 165.169L114.86 164.95L113.715 164.551L113.174 164.357L111.887 163.888L111.462 163.733L109.885 163.089L109.241 162.813L108.192 162.381L107.439 162.06L106.358 161.583L105.714 161.294C105.148 161.036 104.588 160.779 104.028 160.508L103.384 160.212L102.219 159.639L101.472 159.266L100.352 158.687L99.6443 158.314C99.0908 158.017 98.5372 157.715 97.9837 157.406L97.3851 157.065C96.9539 156.827 96.5162 156.576 96.0978 156.318L95.364 155.874C94.9778 155.649 94.6045 155.424 94.2312 155.192L93.4652 154.716C93.0276 154.439 92.5834 154.156 92.1393 153.859L91.4957 153.454C90.955 153.094 90.4014 152.727 89.8543 152.347L89.1399 151.845L87.9813 151.014L87.2089 150.455L85.986 149.534L85.3745 149.064C84.7759 148.601 84.1966 148.137 83.6109 147.667L82.9672 147.114C82.581 146.799 82.182 146.47 81.7829 146.123L81.0362 145.479L79.8712 144.443L79.2276 143.838C78.6483 143.31 78.069 142.769 77.4961 142.222L76.9748 141.714L75.6875 140.426L74.9923 139.718C74.619 139.332 74.2392 138.933 73.8659 138.534L73.7758 138.437C73.5763 138.231 73.3767 138.026 73.1836 137.794C72.7009 137.266 72.2053 136.725 71.7161 136.172L71.2141 135.599C70.7377 135.052 70.2614 134.498 69.7851 133.932L69.1415 133.153C68.7682 132.702 68.4077 132.252 68.0408 131.795L67.3972 130.971C66.9852 130.45 66.5797 129.915 66.1807 129.375C66.1807 129.375 65.743 128.789 65.7365 128.789C65.7301 128.789 65.64 128.654 65.5949 128.59C55.747 115.169 48.5895 98.8462 44.3092 80.0578C44.027 78.8007 43.9992 77.4998 44.2275 76.2318C44.4558 74.9638 44.9356 73.7543 45.6386 72.6746C46.3416 71.5949 47.2536 70.6668 48.3209 69.9451C49.3881 69.2233 50.5891 68.7225 51.8529 68.472C56.7405 67.6194 61.6959 67.2165 66.657 67.2684C77.509 67.2684 93.6905 69.0771 108.997 77.702C127.122 87.8976 139.557 104.794 145.968 127.907C145.966 127.937 145.966 127.967 145.968 127.997C146.612 130.276 147.172 132.645 147.68 135.078C149.257 137.453 151.034 140.182 152.978 143.233C153.106 129.954 153.692 117.577 154.741 106.203C154.671 105.959 154.606 105.714 154.542 105.463L154.297 104.523L153.847 104.279L152.662 103.635L151.742 103.114L151.33 102.875L150.358 102.296L149.888 102.013L149.135 101.543L148.659 101.247L147.661 100.603L147.397 100.423C146.998 100.166 146.605 99.9018 146.213 99.6314L144.971 98.7625L144.443 98.3892C144.153 98.1832 143.883 97.9837 143.619 97.7841L143.149 97.443C142.737 97.134 142.338 96.7993 141.939 96.5161L141.501 96.175L140.652 95.4927L140.105 95.0486L139.326 94.4049L138.811 93.9673L137.652 93.0018L137.253 92.6349C136.944 92.3645 136.642 92.0813 136.333 91.7981L135.811 91.3025C135.547 91.0579 135.29 90.8133 135.026 90.5559L134.492 90.0345L133.578 89.1141L133.153 88.6828C132.773 88.2838 132.394 87.8847 132.02 87.4792L131.538 86.9514L130.752 86.0825L130.237 85.4967L129.426 84.5441L129.001 84.0421C128.609 83.5658 128.223 83.0894 127.836 82.6067L127.405 82.0532C127.148 81.7249 126.884 81.3773 126.62 81.0298L126.144 80.3861L125.384 79.3369L124.953 78.7383C124.58 78.2041 124.213 77.6634 123.846 77.1163L123.505 76.6014C123.247 76.2023 122.977 75.7968 122.719 75.3784C122.565 75.1403 122.423 74.9086 122.282 74.6769C122.044 74.2971 121.812 73.9174 121.58 73.5312L121.175 72.8489C120.859 72.3018 120.563 71.7804 120.267 71.2526L119.977 70.7184C119.681 70.1842 119.398 69.6435 119.115 69.1028L118.735 68.3562C118.523 67.9378 118.31 67.5065 118.092 67.0689L117.705 66.2772C117.48 65.7944 117.248 65.2859 117.017 64.7774C117.017 64.7774 116.824 64.3591 116.759 64.2046V64.1595C111.217 51.6211 108.392 37.2354 108.276 21.4079C108.268 20.1351 108.512 18.8734 108.994 17.6953C109.476 16.5173 110.186 15.4461 111.083 14.5434C111.98 13.6407 113.047 12.9244 114.222 12.4355C115.398 11.9467 116.658 11.6951 117.931 11.6951H118.149C119.437 11.6951 144.752 12.5512 163.682 30.2775C168.763 20.6395 174.931 11.6147 182.064 3.37906C182.904 2.39763 183.932 1.59459 185.087 1.01748C186.242 0.440358 187.502 0.10089 188.791 0.0191783H189.396C191.788 0.00651547 194.1 0.882736 195.884 2.47795C205.33 11.6811 212.746 22.7601 217.652 35.0019C224.983 53.5907 228.594 82.3106 204.213 113.567C202.346 115.955 200.351 118.342 198.201 120.647C197.828 121.065 197.461 121.458 197.094 121.85L196.811 122.153L195.807 123.209L195.163 123.904C192.904 167.891 197.802 216.532 199.668 232.682C204.715 244.782 209.272 256.896 213.288 268.874C219.725 243.077 227.204 221.887 235.623 205.487C235.591 205.313 235.514 204.805 235.514 204.805C234.922 201.027 234.497 197.28 234.265 193.676V193.612C231.69 154.085 250.82 132.394 267.33 121.149C278.265 113.779 290.626 108.786 303.613 106.493C304.058 106.429 304.508 106.397 304.958 106.396C307.334 106.396 309.626 107.272 311.397 108.856C313.167 110.44 314.292 112.621 314.555 114.983C315.363 122.08 315.664 129.225 315.456 136.365C336.613 107.053 369.587 103.21 385.363 103.21C389.985 103.168 394.602 103.502 399.17 104.208C400.439 104.438 401.649 104.921 402.729 105.627C403.809 106.333 404.736 107.248 405.456 108.319C406.176 109.389 406.674 110.593 406.921 111.859C407.168 113.125 407.159 114.428 406.894 115.691C402.71 135.708 395.43 153.164 385.247 167.589L385.054 167.859L384.044 169.256C415.634 177.237 432.962 204.386 433.811 205.732C434.495 206.827 434.953 208.048 435.157 209.322C435.36 210.597 435.307 211.9 434.998 213.154C434.69 214.407 434.133 215.586 433.361 216.621C432.589 217.656 431.617 218.525 430.503 219.178C422.768 223.752 414.628 227.605 406.186 230.686C414.616 233.897 422.528 238.332 429.666 243.849C430.666 244.667 431.491 245.677 432.093 246.819C432.695 247.962 433.062 249.213 433.172 250.5C433.282 251.787 433.132 253.082 432.732 254.31C432.333 255.538 431.69 256.674 430.844 257.649C418.216 272.196 404.203 283.215 389.199 290.411L388.961 290.527L388.318 290.829C387.706 291.113 387.095 291.396 386.49 291.666L385.524 292.091L383.928 292.735L382.995 293.114C382.312 293.391 381.63 293.662 380.948 293.919L380.24 294.183C379.538 294.44 378.849 294.691 378.161 294.923C377.878 295.026 377.581 295.123 377.292 295.219H377.215C376.713 295.393 376.191 295.56 375.67 295.728L374.73 296.024L373.012 296.532L372.284 296.745C371.538 296.951 370.772 297.157 370.012 297.35L369.143 297.562L367.624 297.923L366.678 298.135L365.146 298.457L364.309 298.631C363.569 298.772 362.835 298.901 362.108 299.03L361.316 299.158C360.821 299.236 360.312 299.319 359.804 299.39L358.877 299.525L357.467 299.706L356.605 299.809L354.603 300.021L353.908 300.079C353.354 300.13 352.826 300.169 352.305 300.208L351.43 300.266L350.142 300.336L349.273 300.375C348.752 300.375 348.25 300.414 347.748 300.426H347.072C346.429 300.426 345.785 300.426 345.186 300.426H344.375H343.127H342.296L341.009 300.381H340.314C339.67 300.381 339.084 300.317 338.479 300.278L337.765 300.227L336.548 300.13L335.795 300.066L334.624 299.95L333.897 299.873C333.343 299.815 332.764 299.744 332.197 299.673L331.631 299.596L330.44 299.429L329.732 299.326L328.625 299.203L327.981 299.1L326.99 298.927C321.964 302.349 317.239 306.195 312.868 310.422C322.126 309.399 331.431 308.877 340.745 308.858C347.124 308.858 353.47 309.116 359.649 309.618L360.434 309.309L361.78 308.781L362.166 308.639C365.687 307.307 369.175 306.155 372.561 305.202H372.587C380.958 302.788 389.621 301.53 398.333 301.463C420.713 301.463 440.621 310.776 455.908 328.413C462.793 336.323 468.302 345.333 472.205 355.066C472.645 356.28 472.836 357.57 472.769 358.859C472.701 360.148 472.376 361.411 471.812 362.572C471.248 363.733 470.456 364.77 469.485 365.62C468.513 366.47 467.381 367.116 466.155 367.521C454.687 371.399 442.767 373.779 430.69 374.601C436.482 396.724 427.761 416.787 427.31 417.81C426.785 418.99 426.028 420.052 425.085 420.935C424.142 421.817 423.031 422.501 421.819 422.946C420.607 423.392 419.317 423.589 418.027 423.527C416.737 423.465 415.473 423.145 414.309 422.586C400.978 416.188 389.953 408.039 381.546 398.352C381.546 398.352 381.405 398.198 381.353 398.127C381.302 398.056 381.025 397.747 381.025 397.747L380.034 396.563L379.538 395.919L378.695 394.857L378.212 394.214C377.871 393.763 377.53 393.312 377.195 392.855L376.861 392.386C376.513 391.909 376.217 391.439 375.869 390.976L375.438 390.332C375.213 389.998 374.981 389.644 374.756 389.296C374.608 389.071 374.466 388.852 374.331 388.652C374.08 388.26 373.835 387.867 373.597 387.468L373.314 387.017C372.979 386.457 372.67 385.93 372.368 385.395L372.04 384.81C371.834 384.43 371.641 384.082 371.454 383.728C371.325 383.497 371.209 383.271 371.087 383.046C370.913 382.705 370.727 382.351 370.546 381.991L370.257 381.418C369.993 380.883 369.742 380.362 369.497 379.841L369.246 379.281C369.072 378.914 368.911 378.553 368.757 378.193L368.474 377.549L368.043 376.526L367.791 375.882C367.586 375.374 367.399 374.885 367.219 374.402L367.032 373.906C366.884 373.501 366.742 373.114 366.607 372.728L366.375 372.085C366.272 371.763 366.163 371.441 366.06 371.119L365.854 370.475C365.725 370.083 365.616 369.71 365.5 369.343L365.358 368.873C365.21 368.371 365.075 367.894 364.947 367.425L364.798 366.852C364.708 366.511 364.625 366.208 364.547 365.899L364.393 365.255C364.311 364.921 364.234 364.592 364.161 364.271L364.039 363.762C363.93 363.273 363.833 362.81 363.736 362.346L363.46 360.904L363.35 360.293C363.292 359.984 363.247 359.694 363.196 359.405L363.106 358.864C363.035 358.407 362.964 357.963 362.906 357.525C362.906 357.525 362.765 356.476 362.726 356.18C362.726 356.18 362.623 355.324 362.61 355.189L361.593 354.436L361.207 354.146C360.743 353.798 360.293 353.451 359.842 353.097L359.392 352.743C359.064 352.485 358.748 352.241 358.458 351.99L357.905 351.539L357.358 351.089C352.08 350.638 346.634 350.406 341.125 350.406C313.049 350.406 288.255 356.347 276.116 359.842C248.052 409.288 231.51 467.333 228.672 477.709C227.513 501.595 227.281 516.643 227.281 516.798C227.244 519.334 226.211 521.753 224.404 523.534C222.597 525.314 220.163 526.311 217.626 526.311L195.292 526.021ZM253.954 277.171C249.636 294.222 245.767 313.679 242.369 335.37C263.674 298.965 287.032 273.483 312.115 259.329L312.418 258.956C314.4 256.529 316.447 254.199 318.507 252.03L318.565 251.972C325.149 244.904 332.784 238.894 341.202 234.156L340.288 233.898L339.432 233.654L337.984 233.216L337.34 233.029C336.696 232.83 336.117 232.63 335.531 232.431L334.888 232.205L334.765 232.16L333.607 231.755L332.789 231.452L331.612 231.008L330.968 230.757C330.382 230.525 329.809 230.3 329.243 230.062L328.599 229.792L327.492 229.315L326.771 229L325.709 228.524L325.066 228.227C324.531 227.976 324.016 227.732 323.508 227.481L322.961 227.217L321.912 226.689L321.036 226.239C302.892 250.588 279.855 268.07 253.954 277.171Z" fill="#231F20"/>
<path d="M172.313 101.504C186.036 22.9332 117.924 21.3691 117.924 21.3691C117.924 21.3691 165.831 67.294 172.313 101.504Z" fill="#66BE64"/>
<path d="M117.924 21.3691C118.31 89.0946 172.313 101.504 172.313 101.504C165.831 67.294 117.924 21.3691 117.924 21.3691Z" fill="#4CA84E"/>
<g style="mix-blend-mode:multiply">
<path d="M172.313 101.504C173.788 93.5158 174.362 85.3871 174.025 77.2707C150.139 82.5808 125.59 60.291 125.59 60.291C140.574 94.2053 172.313 101.504 172.313 101.504Z" fill="#4CA84E"/>
</g>
<path d="M372.638 336.098C444.316 355.845 418.492 413.858 418.492 413.858C418.492 413.858 398.88 355.201 372.638 336.098Z" fill="#66BE64"/>
<path d="M418.492 413.858C361.58 386.554 372.638 336.098 372.638 336.098C398.88 355.201 418.492 413.858 418.492 413.858Z" fill="#4CA84E"/>
<g style="mix-blend-mode:multiply">
<path d="M372.638 336.098C379.956 338.039 387.033 340.794 393.737 344.311C379.75 362.333 388.749 391.89 388.749 391.89C366.15 365.751 372.638 336.098 372.638 336.098Z" fill="#4CA84E"/>
</g>
<path d="M287.927 324.087C300.71 307.262 315.153 293.308 331.167 285.243L321.184 265.418C286.813 282.726 255.441 322.974 228.009 385.035C227.159 386.966 226.335 388.852 225.518 390.751L225.788 388.176C230.821 340.739 237.625 300.883 245.934 269.628C273.071 261.389 297.009 243.456 315.449 217.421C330.286 196.515 336.452 177.694 336.69 176.909L315.623 170.086C315.565 170.253 310.03 186.943 296.996 205.14C284.811 222.139 270.496 234.683 254.257 242.626C259.406 228.337 264.967 216.803 270.947 208.203L252.719 195.575C237.039 218.141 224.301 255.937 214.646 308.363C212.986 301.63 211.149 294.865 209.137 288.068C203.78 270.143 197.447 252.523 190.168 235.288C187.529 212.722 179.374 132.001 190.747 80.4763L169.075 75.6875C162.188 106.886 161.847 146.76 163.373 179.915C146.071 148.421 131.872 129.24 131.132 128.248L113.335 141.501C113.522 141.759 129.851 163.856 148.459 199.044C146.528 197.982 144.52 196.901 142.402 195.794C123.659 185.984 106.3 179.097 105.572 178.814L97.4172 199.456C97.5846 199.521 114.558 206.253 132.271 215.548C158.481 229.283 166.288 238.03 168.561 241.558C168.747 243.032 168.869 243.978 168.921 244.313L169.809 244.19C186.177 283.305 201.818 333.806 203.633 386.728C196.379 455.503 195.44 515.839 195.427 516.444L217.62 516.759C217.62 516.457 217.871 500.7 219.075 476.293C221.488 467.314 239.028 404.416 269.66 351.79C288.042 346.113 342.747 332.197 394.027 348.572L400.772 327.428C358.864 313.969 316.144 318.243 287.927 324.087Z" fill="#D38D75"/>
<path d="M307.577 282.816C358.137 197.75 423.532 251.309 423.532 251.309C423.532 251.309 341.337 255.853 307.577 282.816Z" fill="#66BE64"/>
<path d="M423.551 251.309C368.474 314.767 307.577 282.816 307.577 282.816C341.337 255.853 423.551 251.309 423.551 251.309Z" fill="#4CA84E"/>
<g style="mix-blend-mode:multiply">
<path d="M307.577 282.816C312.652 274.117 318.684 266.012 325.561 258.653C343.764 282.945 384.887 281.825 384.887 281.825C343.371 301.592 307.577 282.816 307.577 282.816Z" fill="#4CA84E"/>
</g>
<path d="M305.801 203.357C308.691 97.8935 397.4 113.785 397.4 113.785C397.4 113.785 323.212 160.721 305.801 203.357Z" fill="#66BE64"/>
<path d="M397.4 113.786C379.081 201.477 305.801 203.357 305.801 203.357C323.212 160.721 397.4 113.786 397.4 113.786Z" fill="#4CA84E"/>
<g style="mix-blend-mode:multiply">
<path d="M305.801 203.357C305.997 192.615 307.392 181.928 309.959 171.496C339.529 184.658 377.221 162.227 377.221 162.227C348.868 202.25 305.801 203.357 305.801 203.357Z" fill="#4CA84E"/>
</g>
<path d="M249.436 222.724C221.186 127.888 304.887 116.122 304.887 116.122C304.887 116.122 252.493 179.638 249.436 222.724Z" fill="#66BE64"/>
<path d="M304.887 116.122C314.194 199.63 249.436 222.724 249.436 222.724C252.493 179.638 304.887 116.122 304.887 116.122Z" fill="#4CA84E"/>
<g style="mix-blend-mode:multiply">
<path d="M249.436 222.724C246.469 213.095 244.589 203.164 243.83 193.116C274.03 196.206 301.064 165.201 301.064 165.201C287.495 209.15 249.436 222.724 249.436 222.724Z" fill="#4CA84E"/>
</g>
<path d="M129.806 196.283C59.2614 126.89 9.65479 195.33 9.65479 195.33C9.65479 195.33 90.3113 178.795 129.806 196.283Z" fill="#66BE64"/>
<path d="M9.65479 195.33C79.0795 242.671 129.806 196.283 129.806 196.283C90.3113 178.795 9.65479 195.33 9.65479 195.33Z" fill="#4CA84E"/>
<g style="mix-blend-mode:multiply">
<path d="M129.806 196.283C122.689 189.151 114.796 182.838 106.274 177.462C94.8555 205.584 54.7815 214.943 54.7815 214.943C99.9855 223.548 129.806 196.283 129.806 196.283Z" fill="#4CA84E"/>
</g>
<path d="M141.122 160.463C136.616 61.6108 53.7131 78.0176 53.7131 78.0176C53.7131 78.0176 124.078 120.776 141.122 160.463Z" fill="#66BE64"/>
<path d="M53.7131 78.0176C72.3792 159.942 141.122 160.464 141.122 160.464C124.078 120.776 53.7131 78.0176 53.7131 78.0176Z" fill="#4CA84E"/>
<g style="mix-blend-mode:multiply">
<path d="M141.122 160.463C140.762 150.392 139.273 140.394 136.68 130.656C109.177 143.529 73.4541 123.105 73.4541 123.105C100.719 160.174 141.122 160.463 141.122 160.463Z" fill="#4CA84E"/>
</g>
<path d="M175.319 128.989C252.004 66.4446 189.396 9.65479 189.396 9.65479C189.396 9.65479 197.016 91.6373 175.319 128.989Z" fill="#66BE64"/>
<path d="M189.396 9.65479C134.749 73.4797 175.319 128.989 175.319 128.989C197.017 91.6373 189.396 9.65479 189.396 9.65479Z" fill="#4CA84E"/>
<g style="mix-blend-mode:multiply">
<path d="M175.319 128.988C183.187 122.693 190.325 115.536 196.598 107.651C169.893 93.2268 164.969 52.3804 164.969 52.3804C151.478 96.3614 175.319 128.988 175.319 128.988Z" fill="#4CA84E"/>
</g>
<path d="M347.394 326.076C434.378 278.864 463.136 358.342 463.136 358.342C463.136 358.342 390.178 320.174 347.394 326.076Z" fill="#66BE64"/>
<path d="M463.136 358.343C383.323 384.675 347.394 326.076 347.394 326.076C390.178 320.174 463.136 358.343 463.136 358.343Z" fill="#4CA84E"/>
<g style="mix-blend-mode:multiply">
<path d="M347.394 326.076C356.202 321.186 365.531 317.3 375.206 314.49C378.425 344.678 414.334 364.734 414.334 364.734C368.525 360.512 347.394 326.076 347.394 326.076Z" fill="#4CA84E"/>
</g>
<path d="M305.646 203.646C380.78 139.242 425.585 210.92 425.585 210.92C425.585 210.92 346.242 188.9 305.646 203.646Z" fill="#66BE64"/>
<path d="M425.579 210.919C353.09 253.401 305.64 203.646 305.64 203.646C346.242 188.9 425.579 210.919 425.579 210.919Z" fill="#4CA84E"/>
<g style="mix-blend-mode:multiply">
<path d="M305.646 203.646C313.237 197.018 321.545 191.258 330.414 186.474C339.883 215.316 379.21 227.397 379.21 227.397C333.523 232.907 305.646 203.646 305.646 203.646Z" fill="#4CA84E"/>
</g>
</g>
<defs>
<clipPath id="clip0_4780_482">
<rect width="472.791" height="558.14" fill="white"/>
</clipPath>
</defs>
</svg>
