<svg width="670" height="1042" viewBox="0 0 670 1042" fill="none" xmlns="http://www.w3.org/2000/svg">
<g clip-path="url(#clip0_4906_1191)">
<path d="M233.47 1041.43C346.037 1041.43 437.29 1019.31 437.29 992.031C437.29 964.748 346.037 942.631 233.47 942.631C120.903 942.631 29.6499 964.748 29.6499 992.031C29.6499 1019.31 120.903 1041.43 233.47 1041.43Z" fill="#A7A9AC"/>
<path d="M669.12 183.73C668.419 180.867 666.89 178.274 664.723 176.275C662.557 174.276 659.85 172.96 656.94 172.49C656.36 172.4 645.84 170.71 634.74 169.77C623.48 139.42 592.98 114.14 552.33 102.14L551.94 102.03L549.94 101.47L548.67 101.12L548.36 101.04L546.27 100.49L544.56 100.07L542.05 99.4802C540.71 99.1802 539.37 98.8902 537.98 98.6102L536.32 98.2902L534.08 97.8802L533.08 97.7002L530.08 97.2202L529.08 97.0602C527.97 96.9002 526.86 96.7502 525.73 96.6102L525.07 96.5302C522.3 96.2002 519.48 95.9402 516.66 95.7402H516.41C515.13 95.6502 513.84 95.5902 512.55 95.5302H511.91C510.72 95.4802 509.52 95.4502 508.33 95.4302H505.75C502.09 95.4302 498.42 95.5502 494.83 95.8002H494.7C493.34 95.9002 491.99 96.0202 490.6 96.1502H490.17C488.86 96.2902 487.55 96.4302 486.17 96.6102H485.92C481.59 97.1702 477.27 97.9302 473.1 98.8502L472.77 98.9302C471.48 99.2102 470.2 99.5202 468.93 99.8402L468.39 99.9802C467.11 100.31 465.84 100.66 464.51 101.04L464.25 101.12C461.39 101.95 458.56 102.87 455.84 103.86C454.53 104.33 453.23 104.86 451.94 105.35L451.2 105.65C450.12 106.09 449.05 106.54 448.01 106.99L447.11 107.39C446.03 107.87 444.96 108.39 443.89 108.89L443.19 109.22C440.6 110.48 438.04 111.84 435.56 113.22L434.56 113.81C433.68 114.33 432.81 114.81 431.97 115.38L430.62 116.23C429.86 116.71 429.11 117.23 428.36 117.7L426.93 118.7C426.21 119.2 425.5 119.7 424.81 120.21L424.47 120.45L423.38 121.24C422.52 121.88 421.67 122.53 420.82 123.19C419.97 123.85 419.29 124.41 418.51 125.06L418.18 125.33C417.74 125.68 417.31 126.04 416.88 126.41L416.77 126.5C391.07 129.1 367.1 139.12 345.43 156.35C316.62 179.25 291.83 215.59 271.43 264.74C270.683 261.407 269.91 258.137 269.11 254.93C269.55 254.41 269.99 253.88 270.4 253.37C270.81 252.86 271.4 252.12 271.88 251.49L272.13 251.16C272.94 250.16 273.72 249.07 274.49 248.02L274.72 247.7L275.89 246.09L277.08 244.34L277.12 244.14C277.54 243.51 277.97 242.88 278.38 242.25C278.79 241.62 279.25 240.9 279.66 240.25C280.07 239.6 280.45 238.97 280.85 238.31L282.03 236.31C282.38 235.71 282.72 235.1 283.03 234.5L283.41 233.82C283.68 233.33 283.96 232.82 284.22 232.34C284.88 231.11 285.52 229.86 286.11 228.66C286.35 228.17 286.58 227.66 286.81 227.19L287.15 226.46C287.44 225.84 287.73 225.22 288 224.61C288.27 224 288.57 223.31 288.85 222.66V222.55C289.14 221.88 289.42 221.21 289.7 220.55C289.98 219.89 290.25 219.17 290.53 218.45C290.81 217.73 291.04 217.1 291.28 216.45L291.36 216.24C291.59 215.62 291.81 215 292.03 214.39C292.25 213.78 292.48 213.04 292.7 212.39L292.76 212.2C293.08 211.2 293.39 210.2 293.69 209.2C293.99 208.2 294.23 207.37 294.48 206.44C294.62 205.92 294.76 205.44 294.89 204.88L295 204.43C295.18 203.73 295.36 203.02 295.53 202.3C295.7 201.58 295.85 200.91 296 200.22C296.15 199.53 296.29 198.83 296.43 198.15C296.57 197.47 296.71 196.74 296.83 196.05C296.95 195.36 297.08 194.62 297.2 193.94L297.25 193.63C297.34 193.05 297.44 192.47 297.52 191.9C297.64 191.14 297.74 190.37 297.83 189.6V189.36C297.95 188.36 298.07 187.36 298.17 186.36V186.12C298.24 185.37 298.32 184.62 298.38 183.9C298.43 183.35 298.46 182.8 298.5 182.25V181.9C298.55 181.17 298.6 180.44 298.64 179.74C298.68 179.04 298.7 178.38 298.73 177.68C298.76 176.98 298.73 176.26 298.78 175.53V175.27C298.78 174.95 298.78 174.64 298.78 174.27C298.78 173.9 298.78 173.8 298.78 173.5C298.78 172.74 298.78 171.99 298.78 171.22V170.74C298.78 170.29 298.78 169.84 298.78 169.39C298.78 168.13 298.69 166.86 298.62 165.63C298.62 165.184 298.59 164.734 298.53 164.28V163.92C298.47 163.09 298.41 162.27 298.34 161.43C298.34 160.94 298.25 160.43 298.2 159.95V159.55C298.13 158.82 298.05 158.08 297.97 157.34C297.89 156.6 297.82 156.07 297.73 155.45C297.64 154.83 297.53 153.96 297.43 153.23V153.09C297.34 152.52 297.26 151.95 297.17 151.41C297.04 150.59 296.9 149.76 296.75 148.95L296.68 148.51C296.62 148.14 296.55 147.77 296.48 147.4C296.24 146.13 295.99 144.86 295.71 143.59C295.63 143.23 295.55 142.86 295.46 142.5L295.37 142.09C295.18 141.26 294.99 140.44 294.8 139.64L294.44 138.23L294.36 137.93C294.17 137.17 293.97 136.42 293.76 135.67C293.61 135.11 293.45 134.55 293.29 133.99C293.07 133.21 292.84 132.43 292.6 131.66L292.49 131.29L292.13 130.1C291.83 129.1 291.51 128.19 291.2 127.25C291.2 127.25 290.95 126.51 290.87 126.25C290.44 125.01 290 123.78 289.55 122.58L289.03 121.23C288.72 120.41 288.4 119.6 288.03 118.78C287.84 118.29 287.64 117.78 287.43 117.3C287.11 116.53 286.79 115.77 286.43 115L285.8 113.56C285.44 112.75 285.07 111.95 284.71 111.16L284.13 109.91C283.56 108.71 282.99 107.52 282.4 106.35L282.22 106.02C281.68 104.94 281.12 103.86 280.55 102.79L279.91 101.62C279.48 100.83 279.05 100.04 278.61 99.2602L277.87 97.9802C277.44 97.2302 277 96.4802 276.55 95.7402L275.83 94.5202L274.46 92.1402L273.86 91.1402C273.15 90.0302 272.43 88.9302 271.73 87.9002L271.27 87.2402C270.67 86.3502 270.06 85.4802 269.43 84.5902L268.63 83.4902C268.12 82.7902 267.63 82.0902 267.11 81.4202C266.82 81.0202 266.52 80.6302 266.21 80.2302C265.7 79.5502 265.21 78.8802 264.64 78.2302L263.77 77.1302C263.16 76.3702 262.55 75.6202 261.94 74.8902C261.94 74.8902 261.45 74.2802 261.3 74.1102C260.48 73.1102 259.65 72.1702 258.79 71.1902L258 70.3102L256.22 68.3102L255.12 67.2102C254.593 66.6502 254.063 66.1002 253.53 65.5602C253.16 65.1702 252.77 64.7802 252.38 64.3802C251.99 63.9802 251.32 63.3202 250.78 62.7902L249.62 61.6602L247.82 59.9602L246.36 58.6202L245.58 57.9202C245.17 57.5502 244.76 57.1802 244.34 56.8202C244.251 56.7349 244.158 56.6548 244.06 56.5802C243.52 56.1102 242.97 55.6402 242.37 55.1402L242.05 54.8602C239.03 52.3269 235.91 49.9235 232.69 47.6502L232.56 47.5602C224.534 41.8543 215.839 37.1527 206.67 33.5602C206.38 33.4502 206.08 33.3402 205.78 33.2502C195.621 29.315 184.834 27.2452 173.94 27.1402H172.55C167.6 17.1402 162.19 7.90018 161.89 7.38018C160.564 5.13253 158.675 3.26956 156.41 1.97529C154.144 0.681028 151.579 0.000243382 148.97 0.000181445C148.301 -0.00318338 147.633 0.0402552 146.97 0.130181C144.052 0.512905 141.311 1.74567 139.088 3.67496C136.865 5.60424 135.259 8.14479 134.47 10.9802C133.82 13.3402 132.67 17.4702 134.65 38.0702C133.16 38.9702 131.7 39.9302 130.29 40.9302C128.29 42.3402 126.29 43.8502 124.36 45.4202C116.36 40.8302 109.24 37.2902 108.83 37.0902C106.568 35.9621 104.057 35.4241 101.531 35.5262C99.0048 35.6282 96.5456 36.3671 94.3816 37.6741C92.2177 38.981 90.4191 40.8137 89.1531 43.0019C87.887 45.1901 87.1945 47.6627 87.14 50.1902L86.62 50.2502C83.7057 50.645 80.9718 51.8878 78.7583 53.824C76.5447 55.7602 74.9491 58.3044 74.17 61.1402C73.52 63.4902 72.38 67.5902 74.34 88.0102C70.0815 90.1347 66.0249 92.6417 62.22 95.5002C51.22 91.0902 39.87 87.5802 39.22 87.3902C36.4072 86.5222 33.4012 86.501 30.5764 87.3292C27.7516 88.1574 25.233 89.7985 23.3343 92.048C21.4356 94.2974 20.2407 97.0558 19.8985 99.9796C19.5564 102.903 20.082 105.863 21.41 108.49C22.47 110.57 24.28 114.16 37.84 126.6C33.3138 136.581 30.8024 147.357 30.45 158.31C19.33 163.12 8.44999 168.95 7.84999 169.31C5.25634 170.705 3.13056 172.832 1.73772 175.427C0.344883 178.021 -0.253399 180.969 0.0174441 183.901C0.288288 186.833 1.41627 189.621 3.26079 191.917C5.10531 194.212 7.58475 195.914 10.39 196.81C13.39 197.81 17.09 198.16 23.17 198.16C28.24 198.16 34.42 197.87 39.81 197.53C42.5039 202.703 45.6177 207.646 49.12 212.31C42.57 221.49 36.95 230.73 36.63 231.31C35.2528 233.584 34.5047 236.184 34.4626 238.842C34.4204 241.501 35.0856 244.123 36.39 246.439C37.6944 248.756 39.5911 250.684 41.8859 252.027C44.1808 253.37 46.7912 254.078 49.45 254.08C50.5597 254.079 51.6661 253.958 52.75 253.72C55.34 253.13 59.44 252.21 77.08 240.35C80.08 242.68 83.08 244.94 86.17 247.1C82.44 256.95 79.62 266.17 79.45 266.72C78.5943 269.538 78.5868 272.545 79.4285 275.367C80.2702 278.189 81.9239 280.7 84.1834 282.589C86.4428 284.477 89.2081 285.659 92.1345 285.986C95.0609 286.314 98.019 285.772 100.64 284.43C102.8 283.33 106.54 281.43 120.03 266.43C122.183 267.41 124.34 268.37 126.5 269.31C124.96 279.85 124.19 289.64 124.15 290.21C123.925 293.143 124.566 296.077 125.995 298.648C127.424 301.219 129.578 303.313 132.188 304.669C134.797 306.026 137.748 306.585 140.674 306.278C143.599 305.97 146.369 304.81 148.64 302.94C150.59 301.33 153.64 298.81 163.06 282.29C167.827 283.55 172.643 284.624 177.51 285.51C182.4 297.72 190.2 311.72 192.08 315.05C193.387 317.36 195.284 319.281 197.577 320.618C199.87 321.955 202.476 322.66 205.13 322.66C205.698 322.66 206.265 322.63 206.83 322.57C209.482 322.268 212.006 321.263 214.14 319.66C219.97 359.66 222.66 405.47 222.14 456.5C220.893 464.62 219.693 472.917 218.54 481.39C209 444.54 195.62 412.46 178.72 385.96C155.84 350.08 126.47 324.37 91.43 309.53C88.6431 308.35 85.5643 308.04 82.598 308.641C79.6318 309.243 76.9169 310.727 74.81 312.9C73.5055 314.253 72.4644 315.836 71.74 317.57C65.94 330.13 22.79 440.92 204.91 620.89C204.09 633.697 203.36 646.697 202.72 659.89H73.72C65.2379 659.906 57.1078 663.283 51.1101 669.28C45.1124 675.278 41.7358 683.408 41.72 691.89V762.14C41.7358 770.622 45.1124 778.752 51.1101 784.75C57.1078 790.748 65.2379 794.124 73.72 794.14H76.51L108.72 938.37C112.121 953.575 120.599 967.167 132.758 976.91C144.916 986.653 160.03 991.964 175.61 991.97H278.58C280.58 991.97 282.58 991.88 284.58 991.71C286.58 991.54 288.49 991.28 290.42 990.95C297.071 989.787 303.514 987.648 309.54 984.6C311.23 983.75 312.9 982.81 314.54 981.82C317.771 979.835 320.832 977.583 323.69 975.09C325.12 973.85 326.51 972.53 327.82 971.18C334.562 964.267 339.753 955.997 343.05 946.92C344.063 944.126 344.898 941.27 345.55 938.37L377.76 794.14H380.54C389.022 794.124 397.152 790.748 403.15 784.75C409.148 778.752 412.524 770.622 412.54 762.14V691.86C412.524 683.378 409.148 675.248 403.15 669.25C397.152 663.253 389.022 659.876 380.54 659.86H268.89C269.223 653.147 269.583 646.48 269.97 639.86C453.71 505.56 421.77 402.72 420.31 398.37C419.103 394.78 416.583 391.78 413.255 389.972C409.927 388.163 406.039 387.68 402.37 388.62C369.82 396.95 340.89 415.71 316.37 444.38C303.616 459.548 292.604 476.098 283.54 493.72C292.18 429.4 303.73 374.21 318.05 329.06C327.817 298.273 338.7 272.537 350.7 251.85C353.274 254.524 356.748 256.149 360.45 256.41C364.63 256.98 380.04 258.95 392.19 259.05C394.777 263.237 397.52 267.324 400.42 271.31C388.51 286.01 387.16 290.1 386.42 292.24C385.494 295.04 385.414 298.052 386.19 300.897C386.966 303.743 388.564 306.296 390.784 308.239C393.004 310.181 395.747 311.426 398.67 311.817C401.593 312.209 404.567 311.73 407.22 310.44C407.74 310.19 416.58 305.92 425.84 300.65C427.48 302.303 429.147 303.97 430.84 305.65C421.84 323.65 421.39 327.65 421.13 330.27C420.836 333.199 421.41 336.15 422.781 338.756C424.152 341.361 426.26 343.505 428.841 344.921C431.422 346.337 434.363 346.962 437.297 346.718C440.231 346.474 443.028 345.373 445.34 343.55C445.79 343.2 453.34 337.22 461.17 330.16C464.31 332.247 467.503 334.247 470.75 336.16C466.12 356.86 466.75 361.16 467.13 363.65C467.565 366.563 468.848 369.283 470.819 371.472C472.79 373.66 475.361 375.22 478.212 375.957C481.064 376.694 484.069 376.575 486.854 375.615C489.638 374.656 492.078 372.898 493.87 370.56C494.25 370.07 500.81 361.48 506.98 352.04C512.621 353.62 518.385 354.724 524.21 355.34C531.12 376.96 533.97 380.48 535.6 382.48C537.006 384.211 538.781 385.606 540.794 386.564C542.808 387.523 545.01 388.02 547.24 388.02C548.647 388.02 550.047 387.825 551.4 387.44C554.229 386.623 556.754 384.992 558.662 382.75C560.57 380.507 561.776 377.753 562.13 374.83C562.22 374.15 563.69 361.92 564.13 349.83C574.218 345.515 583.353 339.249 591.01 331.39C607.47 339.47 611.33 339.84 613.79 340.08C614.275 340.128 614.762 340.152 615.25 340.15C618.071 340.149 620.834 339.353 623.223 337.853C625.611 336.353 627.528 334.209 628.754 331.669C629.98 329.129 630.465 326.294 630.153 323.491C629.841 320.687 628.744 318.029 626.99 315.82C626.59 315.32 619.21 306.05 611.1 297.41C612.378 292.83 613.241 288.145 613.68 283.41C633.38 277.82 636.8 275.26 638.77 273.79C641.131 272.027 642.921 269.607 643.915 266.832C644.909 264.058 645.064 261.052 644.36 258.19L644.24 257.72C646.58 256.752 648.637 255.207 650.219 253.229C651.801 251.251 652.856 248.904 653.287 246.408C653.717 243.912 653.508 241.348 652.68 238.955C651.852 236.561 650.431 234.416 648.55 232.72C648.21 232.41 642.34 227.11 635.13 221.28C635.9 218.92 636.58 216.54 637.13 214.13C637.563 212.43 637.927 210.714 638.22 208.98C658.07 203.36 661.51 200.79 663.48 199.33C665.85 197.573 667.649 195.156 668.653 192.381C669.656 189.606 669.818 186.597 669.12 183.73Z" fill="#231F20"/>
<path d="M354.66 168.14C318.3 197.04 288.81 249.14 266.37 323.77C260.76 279.9 251.77 242.14 239.43 210.84C220.85 163.71 200.7 148.27 198.43 146.66L177.43 175.9C177.307 175.822 177.19 175.735 177.08 175.64C177.23 175.76 192.77 188.46 207.9 229.29C221.98 267.29 238.46 337.69 237.19 457.66C232.29 489.46 228.147 523.583 224.76 560.03C210.7 711.45 215.4 849.9 215.45 851.28L251.45 850C251.45 848.64 246.78 712.5 260.62 563.359C278.62 369.469 318.88 242.55 377.04 196.36C400.66 177.59 427.04 172.48 457.7 180.74L467.06 145.98C425.17 134.69 387.39 142.14 354.66 168.14Z" fill="#67BE65"/>
<path d="M219.76 614.311L85.6499 323.311C226.77 383.071 219.76 614.311 219.76 614.311Z" fill="#67BE65"/>
<path d="M85.6499 323.35L219.76 614.35C30.81 430.14 85.6499 323.35 85.6499 323.35Z" fill="#4CA84D"/>
<g style="mix-blend-mode:multiply">
<path d="M204.48 486.671C221.58 553.781 219.75 614.281 219.75 614.281C146.35 542.731 109.75 482.861 92.4099 436.391C188.96 512.481 204.48 486.671 204.48 486.671Z" fill="#4CA84E"/>
</g>
<path d="M255.88 631.521L406.12 403.141C279.43 435.541 255.88 631.521 255.88 631.521Z" fill="#67BE65"/>
<path d="M406.12 403.141L255.88 631.521C438.76 500.231 406.12 403.141 406.12 403.141Z" fill="#4CA84D"/>
<g style="mix-blend-mode:multiply">
<g style="mix-blend-mode:multiply">
<path d="M285.03 525.781C262.03 580.211 255.89 631.491 255.89 631.491C326.89 580.491 365.44 534.631 385.98 497.631C294.84 549.531 285.03 525.781 285.03 525.781Z" fill="#4CA84E"/>
</g>
</g>
<path d="M629.81 261.739C626.09 264.519 607.47 269.609 598.88 271.849C599.577 281.921 597.863 292.013 593.88 301.289C603.48 310.289 615.26 325.119 615.26 325.119C610.95 324.699 595.75 317.049 587.33 312.669C586.09 314.359 584.76 316.009 583.33 317.669C572.69 329.509 561.04 336.139 549.12 338.999C549.77 352.159 547.24 372.999 547.24 372.999C544.12 369.139 537.67 348.139 535.45 340.779C523.45 341.099 511.51 338.339 500.38 334.039C494.09 345.639 482 361.409 482 361.409C481.29 356.649 486 336.629 488 328.489C478.084 323.406 468.64 317.449 459.78 310.689C450.71 320.209 436.12 331.739 436.12 331.739C436.58 327.159 445.28 310.289 449.48 302.349C445.58 298.979 443.38 296.799 443.38 296.799C437.85 291.539 432.87 286.459 428.38 281.539C417.46 288.869 400.74 296.919 400.74 296.919C402.15 292.649 413.74 278.629 419.74 271.609C412.476 262.917 406.072 253.539 400.62 243.609C388.72 245.279 361.56 241.389 361.56 241.389C365.56 238.269 387.32 232.099 394.4 230.149C383.91 202.729 392 187.929 392 187.929C475.72 116.519 581.07 188.729 597 258.499C610.17 258.569 629.81 261.739 629.81 261.739Z" fill="#4CA84D"/>
<path d="M456.73 284.479C456.73 284.479 520.52 347.659 563.12 300.309C611.74 246.139 500.72 131.019 417.71 201.819C417.71 201.819 401.32 231.789 456.73 284.479Z" fill="#F15B4B"/>
<g style="mix-blend-mode:multiply">
<path d="M572.5 269.84C574.72 282.84 574.74 303.629 574.74 303.629C571.32 300.329 563 281.989 559.55 274.159C549.226 276.632 538.635 277.808 528.02 277.659C524.33 290.259 516.82 306.9 516.82 306.9C515.26 302.98 515.12 286.74 515.12 277.139C505.117 276.342 495.185 274.825 485.4 272.599C479.34 284.239 466.18 301.359 466.18 301.359C465.49 296.699 470.03 277.479 472.12 269.02C463.12 266.359 455.03 263.549 447.74 260.629C441.34 265.449 429.96 271.23 422.43 274.84C421.43 273.67 420.43 272.52 419.53 271.37C423.73 265.97 429.8 259.089 433.9 254.539C420.9 248.249 411.2 241.699 403.9 235.389C401.826 236.22 399.706 236.932 397.55 237.52C395.647 233.502 394.004 229.367 392.63 225.139L393.35 224.71C392.87 224.12 392.41 223.54 391.97 222.96C385.34 200.19 391.97 187.96 391.97 187.96C473.74 118.25 576.17 185.529 595.71 253.719C589.228 260.705 581.31 266.205 572.5 269.84Z" fill="#4CA84D"/>
</g>
<path d="M605.17 150.379C580.78 148.919 537.62 149.239 500.5 164.649C470.84 176.959 445.04 198.889 435.73 237.249C392.4 212.919 392.63 186.609 392.63 186.609C432.35 85.2294 557.12 97.7894 605.17 150.379Z" fill="#4CA84D"/>
<path d="M654.55 187.3C650.93 190 633.27 194.88 624.38 197.21C624.284 201.716 623.687 206.197 622.6 210.57C621.313 215.978 619.438 221.23 617.01 226.23C627.22 233.63 638.5 243.84 638.5 243.84C634.5 244.11 619.9 239.65 610.67 236.65C603.69 245.862 594.366 253.031 583.67 257.41C585.89 270.41 585.92 291.2 585.92 291.2C582.49 287.9 574.18 269.56 570.72 261.72C560.391 264.201 549.792 265.38 539.17 265.23C535.48 277.82 527.98 294.46 527.98 294.46C526.42 290.55 526.23 274.3 526.26 264.69C516.259 263.901 506.329 262.38 496.55 260.14C490.49 271.81 477.3 288.9 477.3 288.9C476.62 284.24 481.16 265.03 483.3 256.57C474.3 253.91 466.21 251.09 458.91 248.18C448.77 255.82 426.11 265.87 426.11 265.87C427.59 261.87 438.7 249.15 445.11 242.08C432.11 235.8 422.4 229.24 415.11 222.93C403.86 227.63 377.22 231.05 377.22 231.05C380.06 227.23 397.22 216.65 404.57 212.24C392.72 197.76 392.81 186.63 392.81 186.63C440.01 66.0004 607.6 106.68 623.35 184.13C636.34 184.36 654.55 187.3 654.55 187.3Z" fill="#67BE65"/>
<path d="M574.12 231.781C585.27 222.031 588.36 207.331 581.02 198.941C573.68 190.551 558.7 191.651 547.55 201.401C536.4 211.151 533.32 225.851 540.66 234.241C548 242.631 563 241.531 574.12 231.781Z" fill="white"/>
<path d="M601.95 229.88C604.007 229.88 606.018 229.27 607.728 228.127C609.438 226.985 610.771 225.36 611.558 223.46C612.346 221.56 612.552 219.469 612.15 217.451C611.749 215.434 610.758 213.581 609.304 212.126C607.849 210.672 605.996 209.681 603.979 209.28C601.962 208.879 599.871 209.085 597.97 209.872C596.07 210.659 594.446 211.992 593.303 213.702C592.16 215.412 591.55 217.423 591.55 219.48C591.549 220.846 591.817 222.199 592.339 223.462C592.861 224.724 593.627 225.871 594.593 226.837C595.559 227.803 596.706 228.569 597.969 229.091C599.231 229.613 600.584 229.881 601.95 229.88Z" fill="white"/>
<path d="M605.17 150.379C603.62 150.139 467.93 129.649 435.74 237.239C428.348 233.165 421.38 228.365 414.94 222.909C403.69 227.609 377.05 231.029 377.05 231.029C379.89 227.209 397.05 216.629 404.4 212.219C392.55 197.739 392.64 186.609 392.64 186.609C432.34 85.2294 557.12 97.7894 605.17 150.379Z" fill="#4CA84D"/>
<g style="mix-blend-mode:multiply">
<g style="mix-blend-mode:multiply">
<path d="M573.94 126.931C465.12 92.741 404.43 212.231 404.43 212.231C392.58 197.751 392.67 186.621 392.67 186.621C425.44 102.871 516.17 96.871 573.94 126.931Z" fill="#4CA84E"/>
</g>
</g>
<path d="M88.62 65.1406C87.38 69.6206 89.42 88.8206 90.45 97.6306C80.8183 100.642 72.0404 105.9 64.84 112.971C52.95 107.301 34.84 101.721 34.84 101.721C36.79 105.581 49.45 116.961 56.6 123.201C55.46 125.001 54.4 126.861 53.44 128.761C46.28 142.971 44.39 156.211 46 168.351C33.5 172.521 15 182.481 15 182.481C19.75 184.001 41.61 182.401 49.31 181.771C53.38 193.071 60.31 203.191 68.31 211.981C59.79 222.071 49.49 239.061 49.49 239.061C54.19 238.001 71.13 226.331 77.99 221.521C86.3311 228.915 95.3169 235.548 104.84 241.341C99.26 253.251 93.84 271.061 93.84 271.061C97.94 268.961 110.48 254.731 116.35 247.921C120.91 250.331 123.74 251.591 123.74 251.591C130.65 254.821 137.2 257.591 143.41 260.011C140.57 272.851 139.14 291.351 139.14 291.351C142.61 288.491 151.44 272.551 155.81 264.441C166.536 268.051 177.588 270.609 188.81 272.081C191.66 283.771 205.17 307.651 205.17 307.651C206.61 302.781 204.45 280.271 203.69 272.971C233.04 272.771 243.89 259.851 243.89 259.851C279.89 155.851 174.34 84.0306 103.56 94.5806C98.72 82.2806 88.62 65.1406 88.62 65.1406Z" fill="#4CA84D"/>
<path d="M130.41 234.61C130.41 234.61 48.35 198.23 76.98 141.32C109.73 76.3198 257.35 137.8 221.61 240.88C221.61 240.88 199.65 267.05 130.41 234.61Z" fill="#F15B4B"/>
<g style="mix-blend-mode:multiply">
<g style="mix-blend-mode:multiply">
<path d="M101.93 121.451C89.0099 124.121 69.6299 131.661 69.6299 131.661C73.9599 133.661 94.0599 134.721 102.63 135.091C104.086 145.604 106.84 155.896 110.83 165.731C100.45 173.731 87.6799 186.801 87.6799 186.801C91.8899 186.801 107.09 181.091 116.03 177.561C120.4 186.576 125.413 195.265 131.03 203.561C122.37 213.451 111.25 231.951 111.25 231.951C115.84 230.891 132.08 219.671 139.2 214.651C144.95 222.051 150.52 228.571 155.89 234.301C153.73 242.021 152.48 254.721 151.89 263.051C153.34 263.551 154.77 264.051 156.18 264.481C159.69 258.611 163.88 250.481 166.63 244.981C177.2 254.751 186.85 261.451 195.4 265.981C195.377 268.212 195.483 270.442 195.72 272.661C200.157 272.981 204.61 273.001 209.05 272.721C209.1 272.441 209.14 272.161 209.19 271.901C209.91 272.141 210.62 272.351 211.32 272.551C234.94 270.441 243.89 259.791 243.89 259.791C279.12 158.231 179.17 87.341 108.52 93.961C104.369 102.543 102.121 111.92 101.93 121.451Z" fill="#4CA84D"/>
</g>
</g>
<path d="M201.3 47.5098C211.53 69.7098 226.94 110.02 226.09 150.21C225.42 182.31 214.37 214.32 182.04 236.95C220.46 268.46 244.89 258.67 244.89 258.67C324.9 184.82 267.79 73.2298 201.3 47.5098Z" fill="#4CA84D"/>
<path d="M148.96 15C147.75 19.35 149.64 37.58 150.7 46.7C146.541 48.4411 142.584 50.6307 138.9 53.23C134.35 56.4098 130.152 60.0673 126.38 64.14C115.77 57.3 102.17 50.52 102.17 50.52C103.39 54.39 112.84 66.32 118.99 73.82C112.961 83.691 109.681 94.9948 109.49 106.56C96.5699 109.24 77.1699 116.76 77.1699 116.76C81.4899 118.76 101.6 119.82 110.17 120.19C111.621 130.704 114.376 140.996 118.37 150.83C107.99 158.83 95.2199 171.9 95.2199 171.9C99.4299 171.9 114.63 166.19 123.57 162.67C127.936 171.687 132.95 180.376 138.57 188.67C129.91 198.56 118.79 217.06 118.79 217.06C123.37 216 139.62 204.78 146.74 199.76C152.49 207.17 158.06 213.69 163.43 219.42C160 231.64 158.88 256.42 158.88 256.42C162.11 253.57 169.88 238.61 174.14 230.1C184.71 239.88 194.36 246.57 202.91 251.1C202.62 263.27 209.12 289.34 209.12 289.34C211.64 285.29 215.24 265.43 216.68 257.01C234.48 262.79 244.82 258.65 244.82 258.65C340.12 170.81 241.17 29.52 163.33 43.03C158.32 30.88 148.96 15 148.96 15Z" fill="#67BE65"/>
<path d="M201.3 47.5293C202.09 48.8893 270.55 167.809 182.04 236.949C188.526 242.361 195.534 247.114 202.96 251.139C202.67 263.319 209.19 289.389 209.19 289.389C211.71 285.339 215.31 265.479 216.75 257.059C234.55 262.839 244.89 258.699 244.89 258.699C324.9 184.819 267.79 73.2293 201.3 47.5293Z" fill="#4CA84D"/>
<g style="mix-blend-mode:multiply">
<g style="mix-blend-mode:multiply">
<path d="M234.51 68.1406C305.97 157.081 216.75 257.051 216.75 257.051C234.55 262.831 244.89 258.691 244.89 258.691C310.96 197.681 283.52 110.941 234.51 68.1406Z" fill="#4CA84E"/>
</g>
</g>
<path d="M361.52 241.421L397.52 237.511L394.36 230.141L361.52 241.421Z" fill="#4CA84D"/>
<path d="M195.72 272.699L205.17 307.629C205.17 307.629 206.32 295.829 203.69 272.949L195.72 272.699Z" fill="#4CA84D"/>
<path d="M278.58 977.03H175.72C163.546 977.028 151.736 972.877 142.237 965.262C132.739 957.647 126.119 947.022 123.47 935.14L76.99 727.02H377.32L330.84 935.14C328.189 947.023 321.567 957.648 312.067 965.263C302.567 972.878 290.755 977.028 278.58 977.03Z" fill="#F8A43F"/>
<path d="M170.81 78.5109C172.868 78.5109 174.88 77.9002 176.591 76.7561C178.302 75.612 179.635 73.986 180.421 72.0839C181.207 70.1818 181.412 68.0892 181.008 66.0709C180.604 64.0527 179.611 62.1997 178.153 60.7464C176.696 59.2932 174.84 58.305 172.82 57.9071C170.801 57.5092 168.709 57.7195 166.809 58.5112C164.909 59.303 163.287 60.6406 162.148 62.3549C161.009 64.0691 160.404 66.0827 160.41 68.1409C160.415 70.8948 161.514 73.5339 163.464 75.4784C165.414 77.4229 168.056 78.5136 170.81 78.5109Z" fill="white"/>
<path d="M332.21 727.02L285.73 935.14C283.075 947.019 276.452 957.64 266.952 965.251C257.452 972.862 245.643 977.009 233.47 977.01H278.58C290.753 977.009 302.562 972.862 312.062 965.251C321.562 957.64 328.185 947.019 330.84 935.14L377.32 727.02H332.21Z" fill="#EEB678"/>
<g style="mix-blend-mode:multiply" opacity="0.47">
<path d="M76.99 727.02L93.5 800.94H273.3C273.3 800.94 288.82 922.66 123.47 935.14C126.123 947.018 132.744 957.639 142.242 965.25C151.74 972.861 163.549 977.009 175.72 977.01H278.58C290.753 977.009 302.562 972.862 312.062 965.251C321.562 957.64 328.185 947.019 330.84 935.14L377.32 727.02H76.99Z" fill="#EEB678"/>
</g>
<path d="M380.47 674.84H73.8301C64.4302 674.84 56.8101 682.46 56.8101 691.86V762.17C56.8101 771.57 64.4302 779.19 73.8301 779.19H380.47C389.87 779.19 397.49 771.57 397.49 762.17V691.86C397.49 682.46 389.87 674.84 380.47 674.84Z" fill="#F8A43F"/>
<path d="M355.92 732.33C367.59 732.33 377.05 722.87 377.05 711.2C377.05 699.531 367.59 690.07 355.92 690.07C344.25 690.07 334.79 699.531 334.79 711.2C334.79 722.87 344.25 732.33 355.92 732.33Z" fill="white"/>
</g>
<defs>
<clipPath id="clip0_4906_1191">
<rect width="669.55" height="1041.43" fill="white"/>
</clipPath>
</defs>
</svg>
