<svg width="475" height="447" viewBox="0 0 475 447" fill="none" xmlns="http://www.w3.org/2000/svg">
<g clip-path="url(#clip0_4269_343)">
<path d="M190.274 442.934C270.84 442.934 336.152 377.623 336.152 297.057C336.152 216.491 270.84 151.179 190.274 151.179C109.708 151.179 44.3965 216.491 44.3965 297.057C44.3965 377.623 109.708 442.934 190.274 442.934Z" fill="#E2A840"/>
<path d="M308.316 211.305C308.267 211.249 308.223 211.189 308.185 211.125L308.038 210.928L307.907 210.732C307.858 210.676 307.814 210.616 307.776 210.552L307.628 210.355L307.497 210.159C307.448 210.103 307.404 210.042 307.366 209.979L307.219 209.782L307.088 209.586C307.039 209.53 306.995 209.469 306.957 209.406L306.81 209.209L306.679 209.013L306.548 208.832L306.449 208.62L306.318 208.423C306.269 208.367 306.226 208.307 306.187 208.243L306.04 208.046L305.909 207.85C305.86 207.794 305.816 207.734 305.778 207.67L305.631 207.473L305.5 207.277C305.451 207.221 305.407 207.161 305.369 207.097L305.221 206.9L305.09 206.704L304.959 206.524L304.812 206.327L304.681 206.131C304.632 206.075 304.588 206.014 304.55 205.951L304.403 205.754L304.272 205.558C304.223 205.502 304.179 205.441 304.141 205.378L303.993 205.181L303.862 204.985C303.813 204.929 303.769 204.868 303.731 204.804L303.584 204.608L303.453 204.411L303.306 204.231C303.268 204.162 303.224 204.096 303.174 204.035L303.043 203.838L302.913 203.658L302.765 203.462L302.634 203.265C302.585 203.209 302.541 203.149 302.503 203.085L302.356 202.889L302.225 202.692C302.176 202.636 302.132 202.576 302.094 202.512L301.946 202.316L301.815 202.119L301.668 201.939C301.63 201.87 301.586 201.804 301.537 201.742L301.406 201.546C301.357 201.49 301.313 201.43 301.275 201.366L301.128 201.169L300.997 200.973L300.866 200.793L300.718 200.596L300.587 200.4C300.538 200.344 300.495 200.283 300.456 200.22L300.309 200.023C295.911 193.963 291.056 188.248 285.785 182.928C272.305 169.315 256.274 158.49 238.61 151.072C220.946 143.654 201.993 139.788 182.834 139.695C163.676 139.603 144.687 143.285 126.951 150.531C109.216 157.778 93.0818 168.447 79.4701 181.93C54.7059 206.462 39.5429 239.05 36.7256 273.795C33.9083 308.539 43.6229 343.144 64.1111 371.346C64.1506 371.409 64.1944 371.47 64.2421 371.527L64.3895 371.723C64.4274 371.792 64.4712 371.858 64.5205 371.92L64.6514 372.1L64.7988 372.296C64.8367 372.365 64.8805 372.431 64.9298 372.493C64.9693 372.556 65.0131 372.616 65.0608 372.673L65.2082 372.869C65.2461 372.938 65.2899 373.004 65.3392 373.066C65.3787 373.129 65.4224 373.189 65.4701 373.246L65.6176 373.442C65.6554 373.511 65.6992 373.577 65.7485 373.639C65.788 373.702 65.8318 373.762 65.8795 373.819C65.9288 373.88 65.9726 373.946 66.0105 374.015L66.1579 374.212C66.1974 374.275 66.2411 374.335 66.2889 374.392L66.4363 374.588C66.4741 374.658 66.518 374.723 66.5672 374.785C66.6068 374.848 66.6505 374.908 66.6982 374.965L66.8456 375.162C66.8835 375.231 66.9273 375.297 66.9766 375.358C67.0161 375.421 67.0599 375.481 67.1076 375.538L67.255 375.735C67.2929 375.804 67.3367 375.87 67.3859 375.931C67.4255 375.994 67.4692 376.054 67.5169 376.111L67.6643 376.308C67.7022 376.377 67.746 376.443 67.7953 376.504C67.8348 376.567 67.8786 376.627 67.9263 376.684L68.0737 376.881C68.1116 376.95 68.1554 377.016 68.2047 377.077L68.3356 377.257L68.483 377.454C68.5209 377.523 68.5647 377.589 68.614 377.65L68.745 377.831L68.8924 378.027C68.9303 378.096 68.9741 378.162 69.0234 378.224C69.0629 378.287 69.1066 378.347 69.1543 378.404L69.3017 378.6C69.3396 378.669 69.3834 378.735 69.4327 378.797C69.4722 378.86 69.516 378.92 69.5637 378.977L69.7111 379.173C69.749 379.242 69.7928 379.308 69.8421 379.37C69.8816 379.433 69.9253 379.493 69.973 379.55L70.1205 379.746C70.1583 379.816 70.2021 379.881 70.2514 379.943C70.291 380.006 70.3347 380.066 70.3824 380.123L70.5298 380.319C70.5659 380.4 70.6098 380.477 70.6608 380.549C70.7003 380.612 70.7441 380.672 70.7918 380.729L70.9392 380.925C70.977 380.994 71.0209 381.06 71.0701 381.122C71.1097 381.185 71.1534 381.245 71.2011 381.302L71.3485 381.498C71.3864 381.568 71.4302 381.633 71.4795 381.695C71.519 381.758 71.5628 381.818 71.6105 381.875L71.7579 382.072C71.7958 382.141 71.8396 382.206 71.8888 382.268C71.9284 382.331 71.9721 382.391 72.0198 382.448L72.1672 382.645C76.5603 388.709 81.4161 394.424 86.6911 399.739C100.172 413.353 116.202 424.178 133.866 431.596C151.531 439.014 170.483 442.88 189.642 442.972C208.8 443.065 227.789 439.383 245.525 432.136C263.26 424.89 279.394 414.221 293.006 400.738C317.767 376.198 332.924 343.604 335.732 308.856C338.54 274.108 328.815 239.503 308.316 211.305V211.305Z" fill="#E5BA4E"/>
<path d="M182.087 431.472C262.653 431.472 327.965 366.161 327.965 285.595C327.965 205.029 262.653 139.717 182.087 139.717C101.521 139.717 36.209 205.029 36.209 285.595C36.209 366.161 101.521 431.472 182.087 431.472Z" fill="#FAF28C"/>
<path d="M269.002 373.36C245.709 396.381 214.235 409.221 181.486 409.061C148.737 408.902 117.389 395.756 94.3217 372.509C71.3112 349.208 58.4832 317.73 58.652 284.983C58.8209 252.235 71.9728 220.892 95.2223 197.829C118.52 174.811 149.996 161.974 182.747 162.133C215.497 162.293 246.847 175.436 269.919 198.68C292.931 221.982 305.759 253.461 305.587 286.21C305.415 318.959 292.257 350.302 269.002 373.36V373.36ZM104.539 207.293C83.8031 227.877 72.0783 255.845 71.9371 285.062C71.7959 314.28 83.2498 342.36 103.786 363.143C124.37 383.879 152.338 395.604 181.555 395.745C210.772 395.886 238.853 384.432 259.636 363.896C280.368 343.311 292.09 315.343 292.231 286.127C292.372 256.911 280.921 228.832 260.389 208.047C239.805 187.31 211.837 175.586 182.62 175.444C153.403 175.303 125.322 186.757 104.539 207.293Z" fill="#D19205"/>
<path d="M122.009 271.775L121.895 271.939C122.233 271.316 122.594 270.694 122.976 270.072L123.303 269.581C123.696 268.942 124.122 268.32 124.564 267.714C124.662 267.583 124.744 267.452 124.842 267.337C125.268 266.764 125.694 266.208 126.152 265.7L126.005 265.929C129.015 262.293 132.619 259.192 136.664 256.76C168.709 237.111 213.214 254.975 227.459 222.931L219.665 213.827C205.42 245.871 160.898 228.056 128.854 247.639C96.8096 267.223 109.09 309.648 128.428 327.349C117.834 311.974 112.463 289.197 122.009 271.775Z" fill="#E5BA4E"/>
<path d="M136.666 336.83C117.017 319.391 104.622 276.245 136.666 256.727C168.71 237.209 213.215 254.942 227.461 222.898C227.461 222.898 272.228 291.932 231.063 336.83C199.052 371.756 157.592 355.496 136.666 336.83Z" fill="#D19205"/>
<path d="M86.6094 399.707C99.262 411.201 113.709 420.548 129.379 427.379C144.915 434.038 161.471 438.008 178.338 439.119C186.71 439.636 195.11 439.471 203.456 438.628C211.768 437.745 219.986 436.134 228.017 433.814C244.126 429.271 259.312 421.933 272.882 412.135C279.648 407.257 285.991 401.818 291.844 395.875C297.698 389.908 303.028 383.449 307.776 376.57C317.31 362.756 324.389 347.401 328.702 331.18C337.338 298.052 334.51 262.976 320.679 231.658C329.231 246.775 334.858 263.367 337.266 280.568C338.476 289.245 338.914 298.012 338.576 306.767C338.228 315.538 337.071 324.259 335.121 332.818C331.195 350.039 324.176 366.406 314.407 381.122C309.506 388.465 303.943 395.343 297.788 401.671C291.643 408.027 284.965 413.845 277.827 419.061C263.408 429.347 247.266 436.972 230.162 441.575C213.097 446.149 195.338 447.559 177.765 445.734C160.307 443.976 143.316 439.049 127.627 431.194C112.134 423.311 98.2282 412.636 86.6094 399.707V399.707Z" fill="#231F20"/>
<path d="M320.678 231.658C319.728 229.911 318.729 228.192 317.681 226.5C316.65 224.863 315.635 223.111 314.505 221.473C313.375 219.836 312.311 218.198 311.132 216.561L307.611 211.894V211.763V211.894L298.638 200.17C297.001 198.287 295.609 196.339 294.004 194.521C292.4 192.704 290.729 190.87 289.092 189.101L283.967 183.976C282.149 182.224 280.381 180.702 278.531 179.064C274.864 175.886 271.039 172.897 267.069 170.107C251.245 158.977 233.359 151.117 214.458 146.987C195.658 142.881 176.232 142.53 157.296 145.955C147.893 147.729 138.681 150.4 129.787 153.93C127.593 154.879 125.317 155.567 123.238 156.73L116.786 159.857C112.549 162.073 108.428 164.505 104.44 167.144C96.4623 172.406 89.02 178.439 82.2203 185.155C75.4027 191.892 69.2807 199.298 63.9467 207.26C58.6122 215.213 54.0711 223.67 50.3889 232.509C46.7397 241.385 43.9967 250.607 42.2018 260.035C38.5058 278.997 38.6116 298.505 42.5129 317.426C44.4374 326.928 47.3345 336.206 51.1585 345.115C54.9488 354.082 59.6221 362.65 65.1093 370.691L64.1105 370.069C64.0746 370.054 64.0425 370.031 64.0161 370.002C63.9897 369.973 63.9697 369.939 63.9573 369.902C63.9449 369.865 63.9405 369.826 63.9444 369.787C63.9482 369.748 63.9602 369.71 63.9795 369.676C63.9947 369.638 64.0182 369.604 64.0482 369.576C64.0782 369.548 64.1141 369.527 64.1532 369.514C64.1924 369.502 64.2338 369.498 64.2745 369.503C64.3152 369.509 64.3543 369.523 64.3888 369.545C64.4325 369.565 64.4674 369.6 64.4871 369.643L65.1257 370.593L70.1689 378.142L72.6905 381.924L75.3104 385.608C76.9478 388.097 78.9127 390.439 80.7794 392.813C82.646 395.187 84.7092 397.398 86.6741 399.706C84.5455 397.561 82.3022 395.515 80.2554 393.271C78.2086 391.028 76.0964 388.834 74.2134 386.443L71.3479 382.907L68.597 379.304L63.0789 372.083L64.1105 372.607L63.0789 372.083C50.8646 356.203 42.0826 337.959 37.2895 318.507C32.5026 298.907 31.7726 278.535 35.1445 258.643C38.5693 238.658 46.0897 219.598 57.2333 202.659C62.7867 194.206 69.1717 186.329 76.2929 179.146C83.4519 171.958 91.3374 165.532 99.8226 159.972C104.056 157.206 108.428 154.659 112.922 152.341L119.783 149.067C122.042 147.937 124.449 147.118 126.775 146.136C136.203 142.44 145.978 139.697 155.953 137.948C165.926 136.33 176.033 135.688 186.131 136.033C196.225 136.324 206.256 137.719 216.047 140.192C225.807 142.648 235.305 146.048 244.407 150.344C253.454 154.687 262.021 159.966 269.967 166.096C273.955 169.135 277.781 172.382 281.429 175.822C283.214 177.459 285.031 179.342 286.685 181.095C288.339 182.847 290.042 184.811 291.712 186.678C293.382 188.545 294.872 190.526 296.411 192.475C297.95 194.423 299.359 196.47 300.832 198.468L309.019 210.748V210.617L312.294 215.66C313.375 217.298 314.325 219.099 315.307 220.818C316.29 222.538 317.223 224.322 318.123 226.091C319.024 227.859 319.859 229.906 320.678 231.658Z" fill="#231F20"/>
<path d="M169.642 255.941L174.555 262.491C174.555 262.491 173.016 290.753 180.613 295.779L173.31 304.818C173.31 304.818 156.854 284.514 169.642 255.941Z" fill="#E5BA4E"/>
<path d="M125.842 327.349C128.768 331.512 132.164 335.325 135.961 338.713C136.207 338.942 209.448 306.521 224.087 233.918C224.087 233.918 195.792 299.496 125.842 327.349Z" fill="#FAF28C"/>
<path d="M224.087 233.918C223.227 237.862 222.027 241.724 220.501 245.462C201.654 298.006 154.169 328.151 137.418 337.485C141.177 340.719 145.21 343.623 149.469 346.163C211.691 319.735 229.31 245.118 229.31 245.118L224.087 233.918Z" fill="#E5BA4E"/>
<path d="M238.89 295.763L242.312 302.738C242.312 302.738 231.669 320.374 193.894 313.038L187.164 298.514C187.164 298.514 222.074 310.975 238.89 295.763Z" fill="#E5BA4E"/>
<path d="M189.324 289.312C189.324 289.312 205.387 302.935 238.888 295.763C238.888 295.763 219.649 314.921 183.871 297.401L189.324 289.312Z" fill="#FAF28C"/>
<path d="M176.095 305.489C176.095 305.489 162.472 289.426 169.644 255.941C169.644 255.941 150.486 275.181 167.924 310.958L176.095 305.489Z" fill="#FAF28C"/>
</g>
<g clip-path="url(#clip1_4269_343)">
<path d="M326.274 371.934C406.84 371.934 472.152 306.623 472.152 226.057C472.152 145.491 406.84 80.1788 326.274 80.1788C245.708 80.1788 180.396 145.491 180.396 226.057C180.396 306.623 245.708 371.934 326.274 371.934Z" fill="#E2A840"/>
<path d="M444.316 140.305C444.267 140.249 444.223 140.189 444.185 140.125L444.038 139.928L443.907 139.732C443.858 139.676 443.814 139.616 443.776 139.552L443.628 139.355L443.497 139.159C443.448 139.103 443.404 139.042 443.366 138.979L443.219 138.782L443.088 138.586C443.039 138.53 442.995 138.469 442.957 138.406L442.81 138.209L442.679 138.013L442.548 137.832L442.449 137.62L442.318 137.423C442.269 137.367 442.226 137.307 442.187 137.243L442.04 137.046L441.909 136.85C441.86 136.794 441.816 136.734 441.778 136.67L441.631 136.473L441.5 136.277C441.451 136.221 441.407 136.161 441.369 136.097L441.221 135.9L441.09 135.704L440.959 135.524L440.812 135.327L440.681 135.131C440.632 135.075 440.588 135.014 440.55 134.951L440.403 134.754L440.272 134.558C440.223 134.502 440.179 134.441 440.141 134.378L439.993 134.181L439.862 133.985C439.813 133.929 439.769 133.868 439.731 133.804L439.584 133.608L439.453 133.411L439.306 133.231C439.268 133.162 439.224 133.096 439.174 133.035L439.043 132.838L438.913 132.658L438.765 132.462L438.634 132.265C438.585 132.209 438.541 132.149 438.503 132.085L438.356 131.889L438.225 131.692C438.176 131.636 438.132 131.576 438.094 131.512L437.946 131.316L437.815 131.119L437.668 130.939C437.63 130.87 437.586 130.804 437.537 130.742L437.406 130.546C437.357 130.49 437.313 130.43 437.275 130.366L437.128 130.169L436.997 129.973L436.866 129.793L436.718 129.596L436.587 129.4C436.538 129.344 436.495 129.283 436.456 129.22L436.309 129.023C431.911 122.963 427.056 117.248 421.785 111.928C408.305 98.3148 392.274 87.4899 374.61 80.0719C356.946 72.6539 337.993 68.7882 318.834 68.6954C299.676 68.6027 280.687 72.2847 262.951 79.5313C245.216 86.7779 229.082 97.4471 215.47 110.93C190.706 135.462 175.543 168.05 172.726 202.795C169.908 237.539 179.623 272.144 200.111 300.346C200.151 300.409 200.194 300.47 200.242 300.527L200.389 300.723C200.427 300.792 200.471 300.858 200.52 300.92L200.651 301.1L200.799 301.296C200.837 301.365 200.881 301.431 200.93 301.493C200.969 301.556 201.013 301.616 201.061 301.673L201.208 301.869C201.246 301.938 201.29 302.004 201.339 302.066C201.379 302.129 201.422 302.189 201.47 302.246L201.618 302.442C201.655 302.511 201.699 302.577 201.749 302.639C201.788 302.702 201.832 302.762 201.879 302.819C201.929 302.88 201.973 302.946 202.011 303.015L202.158 303.212C202.197 303.275 202.241 303.335 202.289 303.392L202.436 303.588C202.474 303.658 202.518 303.723 202.567 303.785C202.607 303.848 202.651 303.908 202.698 303.965L202.846 304.162C202.883 304.231 202.927 304.297 202.977 304.358C203.016 304.421 203.06 304.481 203.108 304.538L203.255 304.735C203.293 304.804 203.337 304.87 203.386 304.931C203.425 304.994 203.469 305.054 203.517 305.111L203.664 305.308C203.702 305.377 203.746 305.443 203.795 305.504C203.835 305.567 203.879 305.627 203.926 305.684L204.074 305.881C204.112 305.95 204.155 306.016 204.205 306.077L204.336 306.257L204.483 306.454C204.521 306.523 204.565 306.589 204.614 306.65L204.745 306.831L204.892 307.027C204.93 307.096 204.974 307.162 205.023 307.224C205.063 307.287 205.107 307.347 205.154 307.404L205.302 307.6C205.34 307.669 205.383 307.735 205.433 307.797C205.472 307.86 205.516 307.92 205.564 307.977L205.711 308.173C205.749 308.242 205.793 308.308 205.842 308.37C205.882 308.433 205.925 308.493 205.973 308.55L206.12 308.746C206.158 308.816 206.202 308.881 206.251 308.943C206.291 309.006 206.335 309.066 206.382 309.123L206.53 309.319C206.566 309.4 206.61 309.477 206.661 309.549C206.7 309.612 206.744 309.672 206.792 309.729L206.939 309.925C206.977 309.994 207.021 310.06 207.07 310.122C207.11 310.185 207.153 310.245 207.201 310.302L207.349 310.498C207.386 310.568 207.43 310.633 207.479 310.695C207.519 310.758 207.563 310.818 207.61 310.875L207.758 311.072C207.796 311.141 207.84 311.206 207.889 311.268C207.928 311.331 207.972 311.391 208.02 311.448L208.167 311.645C212.56 317.709 217.416 323.424 222.691 328.739C236.172 342.353 252.202 353.178 269.866 360.596C287.531 368.014 306.483 371.88 325.642 371.972C344.8 372.065 363.789 368.383 381.525 361.136C399.26 353.89 415.394 343.221 429.006 329.738C453.767 305.198 468.924 272.604 471.732 237.856C474.54 203.108 464.815 168.503 444.316 140.305V140.305Z" fill="#E5BA4E"/>
<path d="M318.087 360.472C398.653 360.472 463.965 295.161 463.965 214.595C463.965 134.029 398.653 68.7169 318.087 68.7169C237.521 68.7169 172.209 134.029 172.209 214.595C172.209 295.161 237.521 360.472 318.087 360.472Z" fill="#FAF28C"/>
<path d="M405.002 302.36C381.709 325.381 350.235 338.221 317.486 338.061C284.737 337.902 253.389 324.756 230.322 301.509C207.311 278.208 194.483 246.73 194.652 213.983C194.821 181.235 207.973 149.892 231.222 126.829C254.52 103.811 285.996 90.9738 318.747 91.1334C351.497 91.2931 382.847 104.436 405.919 127.68C428.931 150.982 441.759 182.461 441.587 215.21C441.415 247.959 428.257 279.302 405.002 302.36V302.36ZM240.539 136.293C219.803 156.877 208.078 184.845 207.937 214.062C207.796 243.28 219.25 271.36 239.786 292.143C260.37 312.879 288.338 324.604 317.555 324.745C346.772 324.886 374.853 313.432 395.636 292.896C416.368 272.311 428.09 244.343 428.231 215.127C428.372 185.911 416.921 157.832 396.389 137.047C375.805 116.31 347.837 104.586 318.62 104.444C289.403 104.303 261.322 115.757 240.539 136.293Z" fill="#D19205"/>
<path d="M258.009 200.775L257.895 200.939C258.233 200.316 258.594 199.694 258.976 199.072L259.303 198.581C259.696 197.942 260.122 197.32 260.564 196.714C260.662 196.583 260.744 196.452 260.842 196.337C261.268 195.764 261.694 195.208 262.152 194.7L262.005 194.929C265.015 191.293 268.619 188.192 272.664 185.76C304.709 166.111 349.214 183.975 363.459 151.931L355.665 142.827C341.42 174.871 296.898 157.056 264.854 176.639C232.81 196.223 245.09 238.648 264.428 256.349C253.834 240.974 248.463 218.197 258.009 200.775Z" fill="#E5BA4E"/>
<path d="M272.666 265.83C253.017 248.391 240.622 205.245 272.666 185.727C304.71 166.209 349.215 183.942 363.461 151.898C363.461 151.898 408.228 220.932 367.063 265.83C335.052 300.756 293.592 284.496 272.666 265.83Z" fill="#D19205"/>
<path d="M222.609 328.707C235.262 340.201 249.709 349.548 265.379 356.379C280.915 363.038 297.471 367.008 314.338 368.119C322.71 368.636 331.11 368.471 339.456 367.628C347.768 366.745 355.986 365.134 364.017 362.814C380.126 358.271 395.312 350.933 408.882 341.135C415.648 336.257 421.991 330.818 427.844 324.875C433.698 318.908 439.028 312.449 443.776 305.57C453.31 291.756 460.389 276.401 464.702 260.18C473.338 227.052 470.51 191.976 456.679 160.658C465.231 175.775 470.858 192.367 473.266 209.568C474.476 218.245 474.914 227.012 474.576 235.767C474.228 244.538 473.071 253.259 471.121 261.818C467.195 279.039 460.176 295.406 450.407 310.122C445.506 317.465 439.943 324.343 433.788 330.671C427.643 337.027 420.965 342.845 413.827 348.061C399.408 358.347 383.266 365.972 366.162 370.575C349.097 375.149 331.338 376.559 313.765 374.734C296.307 372.976 279.316 368.049 263.627 360.194C248.134 352.311 234.228 341.636 222.609 328.707V328.707Z" fill="#231F20"/>
<path d="M456.678 160.658C455.728 158.911 454.729 157.192 453.681 155.5C452.65 153.863 451.635 152.111 450.505 150.473C449.375 148.836 448.311 147.198 447.132 145.561L443.611 140.894V140.763V140.894L434.638 129.17C433.001 127.287 431.609 125.339 430.004 123.521C428.4 121.704 426.729 119.87 425.092 118.101L419.967 112.976C418.149 111.224 416.381 109.702 414.531 108.064C410.864 104.886 407.039 101.897 403.069 99.1074C387.245 87.977 369.359 80.1167 350.458 75.987C331.658 71.8809 312.232 71.5304 293.296 74.9555C283.893 76.7293 274.681 79.3996 265.787 82.9297C263.593 83.8794 261.317 84.5671 259.238 85.7297L252.786 88.8572C248.549 91.0728 244.428 93.5048 240.44 96.1437C232.462 101.406 225.02 107.439 218.22 114.155C211.403 120.892 205.281 128.298 199.947 136.26C194.612 144.213 190.071 152.67 186.389 161.509C182.74 170.385 179.997 179.607 178.202 189.035C174.506 207.997 174.612 227.505 178.513 246.426C180.437 255.928 183.335 265.206 187.158 274.115C190.949 283.082 195.622 291.65 201.109 299.691L200.11 299.069C200.075 299.054 200.042 299.031 200.016 299.002C199.99 298.973 199.97 298.939 199.957 298.902C199.945 298.865 199.941 298.826 199.944 298.787C199.948 298.748 199.96 298.71 199.979 298.676C199.995 298.638 200.018 298.604 200.048 298.576C200.078 298.548 200.114 298.527 200.153 298.514C200.192 298.502 200.234 298.498 200.275 298.503C200.315 298.509 200.354 298.523 200.389 298.545C200.432 298.565 200.467 298.6 200.487 298.643L201.126 299.593L206.169 307.142L208.691 310.924L211.31 314.608C212.948 317.097 214.913 319.439 216.779 321.813C218.646 324.187 220.709 326.398 222.674 328.706C220.545 326.561 218.302 324.515 216.255 322.271C214.209 320.028 212.096 317.834 210.213 315.443L207.348 311.907L204.597 308.304L199.079 301.083L200.11 301.607L199.079 301.083C186.865 285.203 178.083 266.959 173.29 247.507C168.503 227.907 167.773 207.535 171.144 187.643C174.569 167.658 182.09 148.598 193.233 131.659C198.787 123.206 205.172 115.329 212.293 108.146C219.452 100.958 227.337 94.5323 235.823 88.9718C240.056 86.2058 244.428 83.659 248.922 81.3414L255.783 78.0666C258.042 76.9368 260.449 76.118 262.775 75.1356C272.203 71.44 281.978 68.6973 291.953 66.9485C301.926 65.3298 312.033 64.6882 322.131 65.0327C332.225 65.3243 342.256 66.7189 352.047 69.1918C361.807 71.6485 371.305 75.0485 380.407 79.3438C389.454 83.6869 398.021 88.9664 405.967 95.0957C409.955 98.1352 413.781 101.382 417.429 104.822C419.214 106.459 421.031 108.342 422.685 110.095C424.339 111.847 426.042 113.811 427.712 115.678C429.382 117.545 430.872 119.526 432.411 121.475C433.95 123.423 435.359 125.47 436.832 127.468L445.019 139.748V139.617L448.294 144.66C449.375 146.298 450.325 148.099 451.307 149.818C452.29 151.538 453.223 153.322 454.123 155.091C455.024 156.859 455.859 158.906 456.678 160.658Z" fill="#231F20"/>
<path d="M305.642 184.941L310.555 191.491C310.555 191.491 309.016 219.753 316.613 224.779L309.31 233.818C309.31 233.818 292.854 213.514 305.642 184.941Z" fill="#E5BA4E"/>
<path d="M261.842 256.349C264.768 260.512 268.164 264.325 271.961 267.713C272.207 267.942 345.448 235.521 360.087 162.918C360.087 162.918 331.792 228.496 261.842 256.349Z" fill="#FAF28C"/>
<path d="M360.087 162.918C359.227 166.862 358.027 170.724 356.501 174.462C337.654 227.006 290.169 257.151 273.418 266.485C277.177 269.719 281.21 272.623 285.469 275.163C347.691 248.735 365.31 174.118 365.31 174.118L360.087 162.918Z" fill="#E5BA4E"/>
<path d="M374.89 224.763L378.312 231.738C378.312 231.738 367.669 249.374 329.894 242.038L323.164 227.514C323.164 227.514 358.074 239.975 374.89 224.763Z" fill="#E5BA4E"/>
<path d="M325.324 218.312C325.324 218.312 341.387 231.935 374.888 224.763C374.888 224.763 355.649 243.921 319.871 226.401L325.324 218.312Z" fill="#FAF28C"/>
<path d="M312.095 234.489C312.095 234.489 298.472 218.426 305.644 184.941C305.644 184.941 286.486 204.181 303.924 239.958L312.095 234.489Z" fill="#FAF28C"/>
</g>
<g clip-path="url(#clip2_4269_343)">
<path d="M157.274 306.934C237.84 306.934 303.152 241.623 303.152 161.057C303.152 80.4905 237.84 15.1788 157.274 15.1788C76.7082 15.1788 11.3965 80.4905 11.3965 161.057C11.3965 241.623 76.7082 306.934 157.274 306.934Z" fill="#E2A840"/>
<path d="M275.316 75.305C275.267 75.249 275.223 75.1887 275.185 75.1248L275.038 74.9284L274.907 74.7319C274.858 74.6759 274.814 74.6156 274.776 74.5517L274.628 74.3553L274.497 74.1588C274.448 74.1028 274.404 74.0425 274.366 73.9787L274.219 73.7822L274.088 73.5857C274.039 73.5297 273.995 73.4694 273.957 73.4055L273.81 73.2091L273.679 73.0126L273.548 72.8325L273.449 72.6196L273.318 72.4231C273.269 72.3671 273.226 72.3068 273.187 72.243L273.04 72.0465L272.909 71.85C272.86 71.794 272.816 71.7337 272.778 71.6699L272.631 71.4734L272.5 71.2769C272.451 71.2209 272.407 71.1606 272.369 71.0968L272.221 70.9003L272.09 70.7038L271.959 70.5237L271.812 70.3272L271.681 70.1307C271.632 70.0747 271.588 70.0144 271.55 69.9506L271.403 69.7541L271.272 69.5576C271.223 69.5016 271.179 69.4413 271.141 69.3775L270.993 69.181L270.862 68.9845C270.813 68.9285 270.769 68.8682 270.731 68.8044L270.584 68.6079L270.453 68.4114L270.306 68.2313C270.268 68.1621 270.224 68.0964 270.174 68.0348L270.043 67.8383L269.913 67.6582L269.765 67.4617L269.634 67.2652C269.585 67.2092 269.541 67.1489 269.503 67.0851L269.356 66.8886L269.225 66.6921C269.176 66.6361 269.132 66.5759 269.094 66.512L268.946 66.3155L268.815 66.119L268.668 65.9389C268.63 65.8697 268.586 65.804 268.537 65.7424L268.406 65.5459C268.357 65.4899 268.313 65.4297 268.275 65.3658L268.128 65.1693L267.997 64.9728L267.866 64.7927L267.718 64.5962L267.587 64.3997C267.538 64.3437 267.495 64.2835 267.456 64.2196L267.309 64.0231C262.911 57.9627 258.056 52.2477 252.785 46.9285C239.305 33.3148 223.274 22.4899 205.61 15.0719C187.946 7.65392 168.993 3.78819 149.834 3.69544C130.676 3.60268 111.687 7.28473 93.9515 14.5313C76.2161 21.7779 60.0818 32.4471 46.4701 45.9296C21.7059 70.4623 6.54287 103.05 3.72559 137.795C0.908301 172.539 10.6229 207.144 31.1111 235.346C31.1506 235.409 31.1944 235.47 31.2421 235.527L31.3895 235.723C31.4274 235.792 31.4712 235.858 31.5205 235.92L31.6514 236.1L31.7988 236.296C31.8367 236.365 31.8805 236.431 31.9298 236.493C31.9693 236.556 32.0131 236.616 32.0608 236.673L32.2082 236.869C32.2461 236.938 32.2899 237.004 32.3392 237.066C32.3787 237.129 32.4224 237.189 32.4701 237.246L32.6176 237.442C32.6554 237.511 32.6992 237.577 32.7485 237.639C32.788 237.702 32.8318 237.762 32.8795 237.819C32.9288 237.88 32.9726 237.946 33.0105 238.015L33.1579 238.212C33.1974 238.275 33.2411 238.335 33.2889 238.392L33.4363 238.588C33.4741 238.658 33.518 238.723 33.5672 238.785C33.6068 238.848 33.6505 238.908 33.6982 238.965L33.8456 239.162C33.8835 239.231 33.9273 239.297 33.9766 239.358C34.0161 239.421 34.0599 239.481 34.1076 239.538L34.255 239.735C34.2929 239.804 34.3367 239.87 34.3859 239.931C34.4255 239.994 34.4692 240.054 34.5169 240.111L34.6643 240.308C34.7022 240.377 34.746 240.443 34.7953 240.504C34.8348 240.567 34.8786 240.627 34.9263 240.684L35.0737 240.881C35.1116 240.95 35.1554 241.016 35.2047 241.077L35.3356 241.257L35.483 241.454C35.5209 241.523 35.5647 241.589 35.614 241.65L35.745 241.831L35.8924 242.027C35.9303 242.096 35.9741 242.162 36.0234 242.224C36.0629 242.287 36.1066 242.347 36.1543 242.404L36.3017 242.6C36.3396 242.669 36.3834 242.735 36.4327 242.797C36.4722 242.86 36.516 242.92 36.5637 242.977L36.7111 243.173C36.749 243.242 36.7928 243.308 36.8421 243.37C36.8816 243.433 36.9253 243.493 36.973 243.55L37.1205 243.746C37.1583 243.816 37.2021 243.881 37.2514 243.943C37.291 244.006 37.3347 244.066 37.3824 244.123L37.5298 244.319C37.5659 244.4 37.6098 244.477 37.6608 244.549C37.7003 244.612 37.7441 244.672 37.7918 244.729L37.9392 244.925C37.977 244.994 38.0209 245.06 38.0701 245.122C38.1097 245.185 38.1534 245.245 38.2011 245.302L38.3485 245.498C38.3864 245.568 38.4302 245.633 38.4795 245.695C38.519 245.758 38.5628 245.818 38.6105 245.875L38.7579 246.072C38.7958 246.141 38.8396 246.206 38.8888 246.268C38.9284 246.331 38.9721 246.391 39.0198 246.448L39.1672 246.645C43.5603 252.709 48.4161 258.424 53.6911 263.739C67.1717 277.353 83.2018 288.178 100.866 295.596C118.531 303.014 137.483 306.88 156.642 306.972C175.8 307.065 194.789 303.383 212.525 296.136C230.26 288.89 246.394 278.221 260.006 264.738C284.767 240.198 299.924 207.604 302.732 172.856C305.54 138.108 295.815 103.503 275.316 75.305V75.305Z" fill="#E5BA4E"/>
<path d="M149.087 295.472C229.653 295.472 294.965 230.161 294.965 149.595C294.965 69.0286 229.653 3.71692 149.087 3.71692C68.5207 3.71692 3.20898 69.0286 3.20898 149.595C3.20898 230.161 68.5207 295.472 149.087 295.472Z" fill="#FAF28C"/>
<path d="M236.002 237.36C212.709 260.381 181.235 273.221 148.486 273.061C115.737 272.902 84.3889 259.756 61.3217 236.509C38.3112 213.208 25.4832 181.73 25.652 148.983C25.8209 116.235 38.9728 84.8918 62.2223 61.829C85.5199 38.811 116.996 25.9738 149.747 26.1334C182.497 26.2931 213.847 39.4365 236.919 62.6805C259.931 85.9818 272.759 117.461 272.587 150.21C272.415 182.959 259.257 214.302 236.002 237.36V237.36ZM71.5392 71.2933C50.8031 91.8768 39.0783 119.845 38.9371 149.062C38.7959 178.28 50.2498 206.36 70.786 227.143C91.3696 247.879 119.338 259.604 148.555 259.745C177.772 259.886 205.853 248.432 226.636 227.896C247.368 207.311 259.09 179.343 259.231 150.127C259.372 120.911 247.921 92.8316 227.389 72.0465C206.805 51.3104 178.837 39.5856 149.62 39.4444C120.403 39.3032 92.3222 50.7571 71.5392 71.2933Z" fill="#D19205"/>
<path d="M89.0095 135.775L88.8949 135.939C89.2333 135.316 89.5935 134.694 89.9756 134.072L90.3031 133.581C90.696 132.942 91.1218 132.32 91.5639 131.714C91.6622 131.583 91.744 131.452 91.8422 131.337C92.268 130.764 92.6937 130.208 93.1522 129.7L93.0048 129.929C96.0148 126.293 99.619 123.192 103.664 120.76C135.709 101.111 180.214 118.975 194.459 86.9306L186.665 77.8265C172.42 109.871 127.898 92.0557 95.8539 111.639C63.8096 131.223 76.0903 173.648 95.4282 191.349C84.8341 175.974 79.4633 153.197 89.0095 135.775Z" fill="#E5BA4E"/>
<path d="M103.666 200.83C84.0168 183.391 71.6216 140.245 103.666 120.727C135.71 101.209 180.215 118.942 194.461 86.8979C194.461 86.8979 239.228 155.932 198.063 200.83C166.052 235.756 124.592 219.496 103.666 200.83Z" fill="#D19205"/>
<path d="M53.6094 263.707C66.262 275.201 80.7091 284.548 96.3788 291.379C111.915 298.038 128.471 302.008 145.338 303.119C153.71 303.636 162.11 303.471 170.456 302.628C178.768 301.745 186.986 300.134 195.017 297.814C211.126 293.271 226.312 285.933 239.882 276.135C246.648 271.257 252.991 265.818 258.844 259.875C264.698 253.908 270.028 247.449 274.776 240.57C284.31 226.756 291.389 211.401 295.702 195.18C304.338 162.052 301.51 126.976 287.679 95.6581C296.231 110.775 301.858 127.367 304.266 144.568C305.476 153.245 305.914 162.012 305.576 170.767C305.228 179.538 304.071 188.259 302.121 196.818C298.195 214.039 291.176 230.406 281.407 245.122C276.506 252.465 270.943 259.343 264.788 265.671C258.643 272.027 251.965 277.845 244.827 283.061C230.408 293.347 214.266 300.972 197.162 305.575C180.097 310.149 162.338 311.559 144.765 309.734C127.307 307.976 110.316 303.049 94.6268 295.194C79.1336 287.311 65.2282 276.636 53.6094 263.707V263.707Z" fill="#231F20"/>
<path d="M287.678 95.6581C286.728 93.9115 285.729 92.1922 284.681 90.5002C283.65 88.8627 282.635 87.1107 281.505 85.4733C280.375 83.8359 279.311 82.1985 278.132 80.561L274.611 75.8944V75.7634V75.8944L265.638 64.1704C264.001 62.2874 262.609 60.3389 261.004 58.5213C259.4 56.7038 257.729 54.8699 256.092 53.1015L250.967 47.9764C249.149 46.2243 247.381 44.7015 245.531 43.0641C241.864 39.8863 238.039 36.8969 234.069 34.1074C218.245 22.977 200.359 15.1167 181.458 10.987C162.658 6.88094 143.232 6.53036 124.296 9.95546C114.893 11.7293 105.681 14.3996 96.7874 17.9297C94.5932 18.8794 92.3172 19.5671 90.2377 20.7297L83.7863 23.8572C79.5487 26.0728 75.4279 28.5048 71.4401 31.1437C63.4623 36.4064 56.02 42.4391 49.2203 49.1553C42.4027 55.8918 36.2807 63.2975 30.9467 71.2605C25.6122 79.2129 21.0711 87.6698 17.3889 96.5095C13.7397 105.385 10.9967 114.607 9.20177 124.035C5.50582 142.997 5.61157 162.505 9.51289 181.426C11.4374 190.928 14.3345 200.206 18.1585 209.115C21.9488 218.082 26.6221 226.65 32.1093 234.691L31.1105 234.069C31.0746 234.054 31.0425 234.031 31.0161 234.002C30.9897 233.973 30.9697 233.939 30.9573 233.902C30.9449 233.865 30.9405 233.826 30.9444 233.787C30.9482 233.748 30.9602 233.71 30.9795 233.676C30.9947 233.638 31.0182 233.604 31.0482 233.576C31.0782 233.548 31.1141 233.527 31.1532 233.514C31.1924 233.502 31.2338 233.498 31.2745 233.503C31.3152 233.509 31.3543 233.523 31.3888 233.545C31.4325 233.565 31.4674 233.6 31.4871 233.643L32.1257 234.593L37.1689 242.142L39.6905 245.924L42.3104 249.608C43.9478 252.097 45.9127 254.439 47.7794 256.813C49.646 259.187 51.7092 261.398 53.6741 263.706C51.5455 261.561 49.3022 259.515 47.2554 257.271C45.2086 255.028 43.0964 252.834 41.2134 250.443L38.3479 246.907L35.597 243.304L30.0789 236.083L31.1105 236.607L30.0789 236.083C17.8646 220.203 9.0826 201.959 4.28951 182.507C-0.497437 162.907 -1.22738 142.535 2.14449 122.643C5.56929 102.658 13.0897 83.5982 24.2333 66.6593C29.7867 58.2058 36.1717 50.3288 43.2929 43.146C50.4519 35.9581 58.3374 29.5323 66.8226 23.9718C71.0556 21.2058 75.4278 18.659 79.922 16.3414L86.7828 13.0666C89.0424 11.9368 91.4494 11.118 93.7745 10.1356C103.203 6.43999 112.978 3.69729 122.953 1.94848C132.926 0.329818 143.033 -0.311813 153.131 0.0326986C163.225 0.324285 173.256 1.71894 183.047 4.19176C192.807 6.64846 202.305 10.0485 211.407 14.3438C220.454 18.6869 229.021 23.9664 236.967 30.0957C240.955 33.1352 244.781 36.3818 248.429 39.822C250.214 41.4594 252.031 43.3425 253.685 45.0945C255.339 46.8465 257.042 48.8115 258.712 50.6781C260.382 52.5448 261.872 54.526 263.411 56.4746C264.95 58.4231 266.359 60.4699 267.832 62.4675L276.019 74.7482V74.6172L279.294 79.6604C280.375 81.2979 281.325 83.099 282.307 84.8183C283.29 86.5376 284.223 88.3224 285.123 90.0908C286.024 91.8592 286.859 93.906 287.678 95.6581Z" fill="#231F20"/>
<path d="M136.642 119.941L141.555 126.491C141.555 126.491 140.016 154.753 147.613 159.779L140.31 168.818C140.31 168.818 123.854 148.514 136.642 119.941Z" fill="#E5BA4E"/>
<path d="M92.8418 191.349C95.7682 195.512 99.1635 199.325 102.961 202.713C103.207 202.942 176.448 170.521 191.087 97.9177C191.087 97.9177 162.792 163.496 92.8418 191.349Z" fill="#FAF28C"/>
<path d="M191.087 97.9177C190.227 101.862 189.027 105.724 187.501 109.462C168.654 162.006 121.169 192.151 104.418 201.485C108.177 204.719 112.21 207.623 116.469 210.163C178.691 183.735 196.31 109.118 196.31 109.118L191.087 97.9177Z" fill="#E5BA4E"/>
<path d="M205.89 159.763L209.312 166.738C209.312 166.738 198.669 184.374 160.894 177.038L154.164 162.514C154.164 162.514 189.074 174.975 205.89 159.763Z" fill="#E5BA4E"/>
<path d="M156.324 153.312C156.324 153.312 172.387 166.935 205.888 159.763C205.888 159.763 186.649 178.921 150.871 161.401L156.324 153.312Z" fill="#FAF28C"/>
<path d="M143.095 169.489C143.095 169.489 129.472 153.426 136.644 119.941C136.644 119.941 117.486 139.181 134.924 174.958L143.095 169.489Z" fill="#FAF28C"/>
</g>
<defs>
<clipPath id="clip0_4269_343">
<rect width="305.69" height="310.455" fill="white" transform="translate(33 136)"/>
</clipPath>
<clipPath id="clip1_4269_343">
<rect width="305.69" height="310.455" fill="white" transform="translate(169 65)"/>
</clipPath>
<clipPath id="clip2_4269_343">
<rect width="305.69" height="310.455" fill="white"/>
</clipPath>
</defs>
</svg>
