<svg width="565" height="458" viewBox="0 0 565 458" fill="none" xmlns="http://www.w3.org/2000/svg">
<g clip-path="url(#clip0_4870_3170)">
<path d="M292.28 457.04C404.847 457.04 496.1 434.923 496.1 407.64C496.1 380.357 404.847 358.24 292.28 358.24C179.714 358.24 88.4604 380.357 88.4604 407.64C88.4604 434.923 179.714 457.04 292.28 457.04Z" fill="#A7A9AC"/>
<path d="M277.34 407.65C273.362 407.65 269.547 406.069 266.734 403.256C263.921 400.443 262.34 396.628 262.34 392.65V362.65C261 357.35 253.69 334.18 238.57 309.77C224.47 286.98 207.36 271.08 187.57 262.33C183.594 270.319 179.069 278.024 174.03 285.39L173.94 285.51C172.94 286.97 171.87 288.44 170.79 289.87L170.73 289.95C169.79 291.19 168.87 292.38 167.97 293.49L167.88 293.6C166.88 294.86 165.8 296.1 164.76 297.27L164.68 297.37C163.68 298.49 162.68 299.61 161.5 300.77L161.05 301.23C157.513 304.853 153.624 308.116 149.44 310.97L149.3 311.07C148.52 311.59 147.81 312.07 147.09 312.48L146.6 312.79C145.82 313.25 145.03 313.7 144.22 314.14L143.85 314.34C142.97 314.8 142.05 315.25 141.16 315.67C139.291 316.522 137.374 317.266 135.42 317.9C133.419 318.537 131.378 319.041 129.31 319.41C127.495 319.728 125.661 319.935 123.82 320.03C123.49 320.03 123.19 320.03 122.88 320.08C122.57 320.13 122.05 320.08 121.63 320.08C121.21 320.08 120.5 320.08 119.94 320.08H119.14C118.33 320.08 117.58 319.98 116.84 319.9H116.76L115.95 319.81C114.89 319.68 113.9 319.52 112.95 319.34C112 319.16 111.04 318.94 109.95 318.66L109.09 318.42C108.35 318.21 107.62 317.99 106.88 317.75L106.02 317.45C104.94 317.07 104.02 316.7 103.02 316.32C100.826 315.386 98.6921 314.317 96.6302 313.12C96.1129 312.813 95.6122 312.479 95.1302 312.12L94.5202 311.63L94.0402 311.24L93.3902 310.66L92.8402 310.13L92.3302 309.61L92.1202 309.39C91.9202 309.18 91.6802 308.92 91.4402 308.63L91.3302 308.51C91.0802 308.21 90.8202 307.9 90.5602 307.51L90.2602 307.13L89.6602 306.29C89.5902 306.2 89.4802 306.03 89.3702 305.87C89.1202 305.49 88.9202 305.17 88.7202 304.87C88.6302 304.73 88.5202 304.55 88.4202 304.37C88.1802 303.96 87.9302 303.5 87.6802 303.01L87.4902 302.62C87.0205 301.645 86.6098 300.643 86.2602 299.62L86.2002 299.44C85.9802 298.8 85.7902 298.13 85.6002 297.44V297.34C85.4702 296.83 85.3602 296.34 85.2602 295.76C85.1602 295.18 85.0702 294.64 85.0002 294.05H84.4102C68.7002 294.05 60.9502 285.9 57.7302 281.05C57.0234 279.973 56.3822 278.854 55.8102 277.7L55.6502 277.37C53.9473 273.889 52.9288 270.114 52.6502 266.25C40.0202 265.54 29.4602 258.96 22.7102 247.54C16.5102 237.03 16.9002 227.03 20.3602 218.76C0.840218 205.97 -0.679781 190.82 0.190219 182.82C0.290109 181.919 0.470831 181.028 0.730212 180.16C4.73021 166.87 16.3002 158.1 33.2902 155.08C33.3402 146.08 36.8702 136.76 46.6902 129.51C53.1221 124.572 60.9916 121.871 69.1002 121.82C73.351 121.831 77.5673 122.582 81.5602 124.04C83.9829 119.317 87.5994 115.311 92.0502 112.42C96.6691 109.372 102.086 107.757 107.62 107.78C112.66 107.869 117.628 109 122.21 111.1C123.997 107.945 126.404 105.185 129.286 102.985C132.169 100.785 135.466 99.1915 138.98 98.2997C139.452 98.1914 139.929 98.1079 140.41 98.0497C142.762 97.7501 145.13 97.5965 147.5 97.5898C162.63 97.5898 175.58 104.17 185.15 116.44C188.113 113.037 191.871 110.419 196.09 108.82C192.19 93.5098 197.91 83.9898 202.29 79.2598C205.877 75.3597 210.41 72.4524 215.45 70.8198C215.092 68.8785 214.881 66.9129 214.82 64.9398C214.54 54.6298 218.6 45.0798 226.56 37.3298C229.492 34.3473 232.983 31.9722 236.833 30.3404C240.684 28.7086 244.818 27.852 249 27.8198C250.674 27.8205 252.345 27.9475 254 28.1998C261.7 6.19977 276.1 1.19976 284 0.129761C284.64 0.0496571 285.285 0.00958411 285.93 0.00976624H286.72C294.72 0.429766 309.42 4.33974 318.72 25.7297C321.109 25.1613 323.555 24.8727 326.01 24.8698C333.631 24.9435 340.978 27.722 346.74 32.7098C352.732 37.5354 357.104 44.078 359.27 51.4598C360.47 50.9398 361.69 50.4598 362.95 49.9998C363.4 49.8398 363.87 49.6998 364.33 49.5798C366.386 49.084 368.495 48.8421 370.61 48.8597C377.221 48.8471 383.644 51.0631 388.84 55.1498C395.48 46.2198 404.72 39.0098 417.26 39.0098C418.403 39.0119 419.545 39.0787 420.68 39.2098C427.366 39.8854 433.694 42.558 438.84 46.8798C445.92 38.3598 456.01 32.1498 469.97 32.1498C472.607 32.1595 475.239 32.3835 477.84 32.8198C492.14 35.1898 500.51 43.6198 504.84 53.3098C511.309 51.0102 518.106 49.7709 524.97 49.6398C535.92 49.6398 545.38 53.4797 552.32 60.7297C552.95 61.3872 553.519 62.1 554.02 62.8597C564.39 78.6097 559.26 96.6797 550.68 110.86C559.16 117.22 565.5 127.27 564.62 141.72C563.62 157.6 555.53 169.72 542.16 176.62L542.29 176.88C542.47 177.23 542.64 177.55 542.79 177.88C543.02 178.39 543.22 178.88 543.41 179.36V179.45C543.58 179.85 543.73 180.21 543.86 180.59C544.06 181.13 544.22 181.65 544.37 182.18V182.23C544.51 182.67 544.63 183.06 544.74 183.47C544.85 183.88 544.99 184.54 545.1 185.08V185.18C545.2 185.63 545.28 186.04 545.35 186.46C545.45 187.04 545.52 187.61 545.57 188.17V188.25C545.63 188.73 545.68 189.16 545.71 189.6C545.71 190.21 545.77 190.85 545.77 191.48V191.54C545.77 191.97 545.77 192.37 545.77 192.78C545.77 193.55 545.71 194.33 545.62 195.24C545.62 195.5 545.62 195.76 545.55 196.03C544.67 203.8 540.29 215.82 522.89 223.45L522.98 223.65C524.467 226.843 525.368 230.278 525.64 233.79C525.71 234.68 525.74 235.6 525.72 236.51C525.677 240.694 524.707 244.816 522.88 248.58C522.662 249.009 522.422 249.426 522.16 249.83C515.01 260.95 505.65 268.56 494.36 272.45C493.79 272.65 493.22 272.84 492.64 273.01C487.306 274.617 481.761 275.419 476.19 275.39C447.83 275.39 416.51 255.94 392.77 237.04C356.69 263.81 332.68 313.84 326.68 327.3V392.7C326.68 396.678 325.1 400.493 322.287 403.306C319.474 406.119 315.658 407.7 311.68 407.7L277.34 407.65ZM204.84 198.16C226.32 206.21 245.899 218.624 262.34 234.62V203.33L260.08 202.9L257.75 202.43L255.17 201.89L252.75 201.36L250.12 200.76L247.58 200.14L244.92 199.46L242.83 198.91L242.26 198.75L239.63 198.01L237.48 197.37L236.92 197.2L234.3 196.38L233.53 196.13L232.11 195.66L231.43 195.43L228.93 194.56L228.13 194.27L226.7 193.74L225.95 193.46L223.58 192.53L222.71 192.18L221.36 191.62L220.27 191.15L218.27 190.28L217.27 189.84C216.86 189.65 216.43 189.46 216.01 189.25C215.42 188.98 214.82 188.69 214.23 188.39L213.1 187.82L212.01 187.26L210.84 186.64C210.25 186.32 209.65 185.99 209.06 185.64C208.73 185.46 208.41 185.26 208.06 185.07L206.67 184.25L205.74 183.68L204.32 182.78C204.72 188.25 204.84 193.45 204.84 198.16ZM326.76 207.75C330.434 203.89 334.16 200.223 337.94 196.75C334.1 198.02 330.34 199.15 326.76 200.15V207.75Z" fill="#231F20"/>
<path d="M324.09 233.549C319.66 239.059 315.55 244.619 311.74 250.119V171.949H277.34V275.819C248.14 232.509 208.04 207.649 160.84 203.759L157.89 239.639C196.29 242.809 227.73 263.739 251.33 301.859C269.92 331.909 278.17 361.649 277.33 361.859V392.699H311.73V324.119C319.13 306.679 373.62 186.479 459.05 207.259L467.56 172.259C416.04 159.749 366.43 180.939 324.09 233.549Z" fill="#66BE64"/>
<path d="M509.6 241.67C509.6 241.67 518.37 224.67 488.18 215.28C488.18 215.28 528.39 214.81 530.71 194.28C533.03 173.75 504.62 167.5 504.62 167.5C504.62 167.5 547.62 173.7 549.62 140.76C550.93 119.24 526.69 117.09 526.69 117.09C526.69 117.09 554.14 90.3598 541.46 71.0898L376.58 202.53C376.58 202.53 471.97 300.16 509.6 241.67Z" fill="#4CA84E"/>
<path d="M493.33 75.2489C493.33 75.2489 496.63 51.1389 475.33 47.6189C442.77 42.2289 439.23 85.5189 439.23 85.5189C439.23 85.5189 439.47 56.4289 418.94 54.1089C398.41 51.7889 388.94 90.8889 388.94 90.8889C386.56 59.3689 368 64.1189 368 64.1189C302.59 87.7689 376.5 202.529 376.5 202.529L541.45 71.0989C525.51 54.4489 493.33 75.2489 493.33 75.2489Z" fill="#66BE64"/>
<g style="mix-blend-mode:multiply">
<path d="M509.6 241.67C509.6 241.67 518.37 224.67 488.18 215.28C488.18 215.28 528.39 214.81 530.71 194.28C531.87 183.96 525.27 177.28 518.42 173.13L504.62 167.5C504.62 167.5 422.72 225.11 343.48 115.5L341.91 117.5C347.32 157.08 376.58 202.5 376.58 202.5C376.58 202.5 471.97 300.16 509.6 241.67Z" fill="#4CA84E"/>
</g>
<path d="M104.26 300.071C104.26 300.071 91.1703 290.671 110.21 272.071C110.21 272.071 79.9103 287.121 70.3103 272.621C60.7103 258.121 79.6003 242.571 79.6003 242.571C79.6003 242.571 49.7803 263.681 35.6603 239.771C26.4403 224.161 43.7703 213.261 43.7703 213.261C43.7703 213.261 12.9803 203.751 15.1003 184.471L188.92 219.821C188.92 219.821 154.84 329.471 104.26 300.071Z" fill="#4CA84E"/>
<path d="M52.7301 169.179C52.7301 169.179 41.0301 152.389 55.6101 141.609C77.9301 125.109 97.1601 156.179 97.1601 156.179C97.1601 156.179 85.8401 134.479 100.33 124.879C114.82 115.279 136.84 140.959 136.84 140.959C126.56 116.439 142.28 112.889 142.28 112.889C200.34 105.559 188.92 219.819 188.92 219.819L15.1001 184.499C20.6701 165.929 52.7301 169.179 52.7301 169.179Z" fill="#66BE64"/>
<g style="mix-blend-mode:multiply">
<path d="M147.91 293.05C149.71 291.4 151.45 289.62 153.15 287.74L153.49 287.35C154.49 286.29 155.37 285.19 156.28 284.07L156.9 283.3C157.55 282.48 158.19 281.66 158.82 280.82C159.82 279.52 160.75 278.2 161.68 276.82C162.84 275.16 163.96 273.46 165.05 271.74C180.2 247.82 188.92 219.74 188.92 219.74C188.92 219.74 193.92 169.74 180.48 137.99C162.31 248.15 79.6001 242.6 79.6001 242.6L71.4101 252.1C70.9801 252.8 70.5601 253.53 70.1801 254.28C70.0001 254.63 69.8201 254.99 69.6601 255.35C69.6395 255.382 69.6227 255.415 69.6101 255.45C69.4501 255.79 69.3001 256.14 69.1601 256.45C69.1601 256.51 69.1101 256.56 69.0901 256.62C68.9601 256.95 68.8401 257.29 68.7201 257.62C68.7201 257.7 68.6601 257.78 68.6401 257.86C68.5301 258.18 68.4401 258.5 68.3501 258.86C68.3501 258.96 68.2801 259.06 68.2601 259.16C68.1701 259.47 68.1101 259.78 68.0401 260.09C68.0401 260.21 67.9801 260.33 67.9601 260.45C67.9001 260.75 67.8601 261.05 67.8101 261.35L67.7501 261.76C67.7501 262.04 67.7001 262.34 67.6701 262.63C67.6401 262.92 67.6701 262.93 67.6701 263.08C67.6701 263.23 67.6701 263.64 67.6701 263.92V264.42C67.6701 264.69 67.6701 264.96 67.7401 265.23C67.8101 265.5 67.7401 265.59 67.7901 265.78C67.8401 265.97 67.8701 266.3 67.9201 266.57C67.9701 266.84 67.9801 266.95 68.0201 267.14C68.0601 267.33 68.1601 267.66 68.2301 267.92C68.3001 268.18 68.3301 268.31 68.3901 268.5C68.4501 268.69 68.5801 269.01 68.6701 269.27C68.7601 269.53 68.8101 269.67 68.9001 269.87C68.9901 270.07 69.1501 270.39 69.2801 270.66C69.4101 270.93 69.4601 271.05 69.5601 271.24C69.6601 271.43 69.9501 271.9 70.1501 272.24L70.3801 272.61C79.9801 287.11 110.28 272.06 110.28 272.06C107.107 275.005 104.409 278.422 102.28 282.19C100.901 284.624 100.091 287.339 99.9101 290.13C99.9101 290.48 99.9101 290.82 99.9101 291.13C99.9101 291.44 99.9101 291.77 99.9801 292.13C100.037 292.657 100.134 293.178 100.27 293.69C100.35 294.03 100.45 294.37 100.55 294.69C100.72 295.174 100.917 295.648 101.14 296.11C101.591 297.05 102.162 297.928 102.84 298.72C103.259 299.217 103.728 299.67 104.24 300.07C105.754 300.955 107.324 301.74 108.94 302.42C111.141 303.368 113.438 304.075 115.79 304.53C117.967 304.952 120.184 305.129 122.4 305.06C123.836 305.016 125.267 304.866 126.68 304.61C128.088 304.375 129.479 304.041 130.84 303.61C132.222 303.169 133.575 302.641 134.89 302.03C135.55 301.73 136.21 301.4 136.89 301.03C139.695 299.527 142.347 297.755 144.81 295.74C145.84 294.89 146.89 293.99 147.91 293.05Z" fill="#4CA84E"/>
</g>
<path d="M385.53 121.669C385.53 121.669 378.37 107.239 356.97 123.019C356.97 123.019 376.72 95.5492 363.97 83.7392C351.22 71.9292 332.84 88.0492 332.84 88.0492C332.84 88.0492 358.49 62.0492 337.18 44.2292C323.26 32.6092 309.71 47.9492 309.71 47.9492C309.71 47.9492 305.3 16.0192 285.94 14.9492L292.68 192.189C292.68 192.189 406.37 176.349 385.53 121.669Z" fill="#4CA84E"/>
<path d="M264.7 49.66C264.7 49.66 250.02 35.39 237.02 48.04C217.13 67.4 244.68 91.4 244.68 91.4C244.68 91.4 225.1 76.72 213.29 89.47C201.48 102.22 223.29 128.11 223.29 128.11C200.75 114 194.71 128.93 194.71 128.93C178.09 185.04 292.71 192.24 292.71 192.24L285.97 15C266.67 17.49 264.7 49.66 264.7 49.66Z" fill="#66BE64"/>
<g style="mix-blend-mode:multiply">
<path d="M388.07 133.82C387.917 129.665 387.058 125.567 385.53 121.7C385.53 121.7 379.76 110.09 363.1 119.12C361.671 119.895 360.283 120.743 358.94 121.66L358.69 121.84C358.12 122.22 357.56 122.62 356.97 123.05C356.97 123.05 357.97 121.62 359.43 119.27C359.69 118.85 359.96 118.4 360.24 117.92C360.62 117.28 361.01 116.6 361.41 115.87C361.81 115.14 362.17 114.48 362.55 113.73C362.93 112.98 363.28 112.27 363.64 111.51C366.04 106.44 368.18 100.41 368.25 94.8898V94.7798C368.25 90.5898 367.13 86.6998 363.97 83.7798L363.7 83.5497C363.39 83.2697 363.07 82.9998 362.7 82.7498C362.54 82.6198 362.37 82.5198 362.21 82.3998L361.46 81.8698C361.28 81.7598 361.1 81.6698 360.92 81.5698C360.685 81.4164 360.441 81.2762 360.19 81.1498C360.01 81.0498 359.82 80.9798 359.63 80.8898C359.44 80.7998 359.15 80.6598 358.9 80.5598L358.34 80.3698L357.6 80.1097L357.07 79.9797L356.28 79.7798L355.78 79.6998C355.51 79.6498 355.23 79.5998 354.96 79.5698H354.48C354.2 79.5698 353.92 79.5698 353.63 79.5098H352.31H351.93L350.99 79.5798H350.67L349.67 79.7098H349.41L348.41 79.8998H348.21L347.13 80.1697H347C346.62 80.2697 346.25 80.3798 345.88 80.4998H345.81C345.43 80.6198 345.04 80.7598 344.66 80.8998C344.27 81.0398 343.88 81.1998 343.5 81.3498L332.84 88.0497C332.84 88.0497 324.4 170.33 213.84 170.98C243.04 189.12 292.69 192.24 292.69 192.24C292.69 192.24 334.11 186.45 362.38 169.83C363.38 169.24 364.38 168.65 365.38 168.03C368.14 166.281 370.786 164.357 373.3 162.27C382.37 154.61 388.38 145.22 388.07 133.82Z" fill="#4CA84E"/>
</g>
<path d="M115.105 184.883C116.698 178.781 110.677 171.925 101.657 169.57C92.6364 167.216 84.0326 170.254 82.4396 176.357C80.8466 182.459 86.8676 189.315 95.8879 191.67C104.908 194.024 113.512 190.986 115.105 184.883Z" fill="white"/>
<path d="M67.6004 192.139C71.8199 192.139 75.2404 188.719 75.2404 184.499C75.2404 180.28 71.8199 176.859 67.6004 176.859C63.381 176.859 59.9604 180.28 59.9604 184.499C59.9604 188.719 63.381 192.139 67.6004 192.139Z" fill="white"/>
</g>
<defs>
<clipPath id="clip0_4870_3170">
<rect width="564.66" height="457.04" fill="white"/>
</clipPath>
</defs>
</svg>
