<svg width="688" height="720" viewBox="0 0 688 720" fill="none" xmlns="http://www.w3.org/2000/svg">
<g clip-path="url(#clip0_6378_469)">
<path d="M14.9982 719.8C13.0071 719.801 11.036 719.405 9.19959 718.635C7.36322 717.866 5.69841 716.738 4.30221 715.319C2.90601 713.899 1.80637 712.216 1.06742 710.367C0.328472 708.519 -0.0350067 706.541 -0.00182261 704.55V701.55C-0.00182261 699.47 0.71818 680.45 14.8282 661.55C27.3482 644.75 53.2082 624.72 105.278 624.72H115.438C83.7982 609.58 58.2082 591 39.3082 569.42C13.2182 539.65 -0.00182261 504.42 -0.00182261 464.86C-0.00182261 425.91 8.64818 392.46 25.7082 365.44C40.0382 342.75 60.2182 324.63 85.7082 311.59C87.2382 310.8 88.8182 310.03 90.5382 309.21L91.8482 308.7L92.3482 308.47C93.3482 307.99 94.4582 307.47 95.5482 307.03C96.1182 306.77 96.6982 306.53 97.2782 306.28L97.7082 306.1C98.6482 305.7 99.5982 305.3 100.558 304.91L102.958 303.96L105.638 302.96C106.508 302.64 107.388 302.31 108.278 301.96L110.768 301.08C111.718 300.75 112.678 300.43 113.648 300.08L115.788 299.4H115.908C116.968 299.06 118.028 298.73 119.098 298.4L120.948 297.86C122.158 297.51 123.368 297.16 124.598 296.86L125.328 296.67C129.838 295.45 134.498 294.36 139.238 293.39C137.312 291.304 135.458 289.12 133.678 286.84C109.928 256.3 100.678 206.66 108.928 154.04C115.258 113.68 132.368 78.8704 158.398 53.3704C192.588 19.8904 241.528 2.01041 303.858 0.220405C307.618 0.110405 311.378 0.0604016 315.048 0.0604016C333.169 -0.0284489 351.264 1.45714 369.128 4.5004C371.128 4.8604 373.268 5.26039 375.598 5.74039L377.108 6.05041C378.822 6.41041 380.528 6.79041 382.228 7.19041L383.648 7.52041C387.878 8.52041 392.078 9.6604 396.118 10.8704L397.498 11.3004C399.078 11.7804 400.658 12.3004 402.228 12.8104L403.728 13.3204C405.648 13.9804 407.408 14.6004 409.098 15.2404L409.558 15.4104C411.418 16.1004 413.318 16.8504 415.338 17.6904L416.548 18.2004C418.038 18.8304 419.498 19.4704 420.958 20.1204L422.518 20.8404C423.978 21.5104 425.448 22.2204 426.898 22.9404L427.898 23.4504C429.668 24.3404 431.448 25.2704 433.178 26.2204L434.178 26.7804C435.558 27.5504 436.938 28.3404 438.298 29.1504L439.808 30.0504C441.078 30.8204 442.318 31.6004 443.548 32.3904L443.928 32.6304L444.858 33.2304C446.568 34.3404 448.138 35.4104 449.638 36.4704L450.328 36.9704C451.598 37.8804 452.948 38.8704 454.328 39.8904C454.738 40.1904 455.138 40.5104 455.538 40.8204L455.748 40.9804C456.858 41.8504 457.938 42.7204 459.018 43.6004L459.398 43.9104L460.398 44.7104C462.038 46.0804 463.398 47.2804 464.708 48.4504C498.118 78.6304 518.708 123.05 526.048 180.45C535.368 253.93 527.548 297.83 517.678 323.17C526.178 324.66 534.57 326.712 542.798 329.31C596.378 346.18 635.798 375.47 660.078 416.31C678.418 447.25 687.718 484.18 687.718 526.08V527.78V529.5V531.21V532.92L687.648 534.7L687.558 536.53L687.448 538.29L687.328 540.11L687.188 541.95L687.028 543.77L686.848 545.61L686.648 547.5L686.428 549.36C686.428 549.76 686.198 551.21 686.198 551.21L685.928 553.13L685.638 555.13L685.328 557.02L684.998 558.95L684.638 560.95L684.248 562.95C684.188 563.28 683.858 564.86 683.858 564.86L683.418 566.86L682.958 568.86C682.878 569.21 682.488 570.79 682.488 570.79C682.368 571.29 681.958 572.86 681.958 572.86L681.418 574.86C681.298 575.3 680.858 576.86 680.858 576.86L680.378 578.48L680.258 578.9C680.118 579.34 679.968 579.83 679.818 580.32L679.638 580.9L678.998 582.9L678.298 584.98L677.568 586.98C677.398 587.46 677.208 587.98 677.018 588.47L676.838 588.98L676.248 590.53L676.028 591.09C675.838 591.56 675.638 592.09 675.428 592.58L675.238 593.07L674.438 594.99L673.438 597.21L672.658 598.96L672.548 599.19C672.288 599.78 672.048 600.28 671.818 600.79L671.588 601.26L670.588 603.36C670.338 603.88 670.078 604.36 669.818 604.92L669.558 605.42L668.678 607.14L668.518 607.43C668.248 607.95 667.958 608.43 667.678 609.01L667.448 609.44L666.548 611.05L666.288 611.51C665.978 612.07 665.678 612.59 665.378 613.11L665.088 613.6C664.798 614.11 664.488 614.6 664.168 615.16L663.858 615.67C663.588 616.13 663.258 616.67 662.928 617.19L662.658 617.63L661.658 619.22L661.358 619.68C661.018 620.21 660.668 620.74 660.358 621.26L660.048 621.73C659.718 622.22 659.368 622.73 659.048 623.27L658.718 623.74C658.388 624.23 658.018 624.74 657.638 625.29L657.298 625.77L656.188 627.29L655.858 627.75C655.508 628.23 655.108 628.75 654.708 629.29L654.428 629.66C653.998 630.23 653.588 630.75 653.188 631.27L652.868 631.68L651.628 633.23L651.318 633.62C650.858 634.19 650.428 634.71 649.988 635.23L649.658 635.63L648.338 637.19L648.008 637.58L646.658 639.11L646.288 639.53L644.898 641.07L644.568 641.43L643.118 642.99L642.778 643.34C642.288 643.86 641.778 644.34 641.288 644.89L640.928 645.26L639.408 646.79L639.058 647.14C638.538 647.66 638.058 648.14 637.488 648.67L637.158 648.99L635.528 650.54L635.148 650.89L633.498 652.4L633.138 652.73L631.438 654.24L631.078 654.56L629.318 656.08C629.318 656.08 628.968 656.37 628.968 656.38L627.178 657.87L626.758 658.21L624.848 659.7L624.458 660.01L622.598 661.47L622.248 661.74L620.308 663.22L619.848 663.56L617.958 664.96L617.598 665.22L615.598 666.66L615.208 666.94L613.138 668.37L612.758 668.63L610.648 670.05L610.248 670.31C609.548 670.77 608.838 671.24 608.108 671.7L607.738 671.94L605.528 673.33L605.148 673.57L602.848 674.91L602.498 675.12L600.148 676.51L599.738 676.75C598.968 677.2 598.188 677.64 597.408 678.08L597.048 678.28C596.218 678.75 595.418 679.19 594.618 679.62L594.238 679.83C593.398 680.29 592.588 680.72 591.768 681.15L591.348 681.37L588.848 682.7L588.478 682.88C587.598 683.33 586.748 683.76 585.898 684.17L585.498 684.37L582.898 685.63L582.398 685.86L579.838 687.06L579.398 687.26L576.728 688.46L576.298 688.65L573.558 689.84L573.198 689.99L570.348 691.19L569.848 691.39C568.988 691.75 568.038 692.13 567.088 692.51L566.588 692.71L563.748 693.81L563.358 693.97L560.358 695.08L559.968 695.23L556.908 696.33L556.478 696.48C555.478 696.85 554.478 697.2 553.398 697.55L552.998 697.69L549.868 698.69L549.398 698.84L546.248 699.84L545.828 699.98L542.598 700.98L542.208 701.1L538.868 702.1L538.428 702.22L535.088 703.22L534.658 703.34L531.248 704.26L530.868 704.36C529.668 704.68 528.518 704.98 527.348 705.27L526.888 705.39L523.388 706.26L522.878 706.38L519.368 707.21L519.008 707.29C517.728 707.59 516.508 707.86 515.278 708.13L514.838 708.23L511.138 709.02L510.798 709.09C509.468 709.37 508.208 709.63 506.928 709.88L506.578 709.95L502.668 710.7L502.228 710.78C500.958 711.02 499.658 711.26 498.338 711.49L497.968 711.56L493.968 712.25L493.528 712.32L489.528 712.98L489.118 713.04L484.988 713.67L484.618 713.72C483.228 713.93 481.828 714.13 480.408 714.32L480.058 714.37L475.758 714.95H475.338C473.968 715.13 472.508 715.31 471.038 715.48H470.678C469.248 715.66 467.758 715.83 466.258 715.99H465.918L461.418 716.47H461.098L456.508 716.92H456.198L451.518 717.33H451.318C449.668 717.47 448.078 717.59 446.488 717.71H446.198C444.598 717.84 442.988 717.95 441.358 718.06H441.188C439.468 718.18 437.828 718.28 436.188 718.38H435.908C434.298 718.47 432.618 718.57 430.908 718.65H430.708L425.578 718.9H425.418C423.688 718.98 421.938 719.05 420.178 719.11H420.078L414.728 719.28H414.578L409.178 719.41H409.058L403.578 719.51H403.428C399.858 719.51 396.508 719.58 393.208 719.58L14.9982 719.8Z" fill="#231F20"/>
<path d="M538.291 343.601C524.051 339.047 509.282 336.358 494.351 335.601C503.551 322.681 523.781 281.801 511.161 182.291C504.341 128.531 485.321 87.2208 454.641 59.5108C419.971 28.1908 369.381 13.2608 304.261 15.1308C245.821 16.8108 200.261 33.2508 168.871 64.0108C145.161 87.2308 129.541 119.141 123.721 156.291C116.091 204.891 124.231 250.221 145.491 277.551C154.403 289.191 166.411 298.09 180.141 303.231C147.141 304.961 117.141 312.371 92.5908 324.941C69.5408 336.741 51.3208 353.061 38.4408 373.451C22.9208 398.041 15.0508 428.791 15.0508 464.861C15.0508 500.721 27.0508 532.581 50.6408 559.541C69.4308 580.991 95.5808 599.361 128.351 614.161C157.161 627.161 186.181 635.091 207.521 639.721H105.331C59.4808 639.721 37.3308 656.471 26.9108 670.511C15.4408 685.901 15.0608 701.191 15.0508 701.831V704.831H393.231C636.401 704.831 672.711 592.831 672.711 526.141C672.711 462.161 649.391 378.581 538.291 343.601Z" fill="#FFEA54"/>
<path d="M538.291 343.599C524.051 339.045 509.282 336.356 494.351 335.599C503.551 322.679 523.781 281.799 511.161 182.289C504.341 128.529 485.321 87.2192 454.641 59.5092C431.961 39.0192 402.461 25.5092 366.541 19.1992C423.341 150.049 544.341 512.889 207.541 639.719H105.331C59.4808 639.719 37.3308 656.469 26.9108 670.509C15.4408 685.899 15.0608 701.189 15.0508 701.829V704.829H393.231C636.401 704.829 672.711 592.829 672.711 526.139C672.711 462.159 649.391 378.579 538.291 343.599Z" fill="#FFE000"/>
<path d="M577.9 619.449C550.85 644.409 455.22 701.699 397.85 704.779C636.85 703.379 672.74 592.419 672.74 526.109C672.74 462.159 649.42 378.579 538.32 343.599C524.08 339.045 509.311 336.356 494.38 335.599C495.29 334.319 356.57 329.129 349.81 451.029C346.44 511.619 351.81 580.589 436.71 580.589C521.61 580.589 501.85 510.309 501.85 510.309C501.85 510.309 490.57 558.169 436.95 548.979C383.33 539.789 389.47 366.699 522.75 395.789C656.03 424.879 629.98 571.449 577.9 619.449Z" fill="#FFF3A8"/>
<path d="M511.161 182.31C504.341 128.55 485.321 87.2403 454.641 59.5303C419.971 28.2103 369.381 13.2803 304.261 15.1503C245.821 16.8303 200.261 33.2703 168.871 64.0303C145.161 87.2503 129.541 119.16 123.721 156.31C116.091 204.91 124.231 250.24 145.491 277.57C154.404 289.211 166.411 298.11 180.141 303.25C178.361 303.34 176.601 303.46 174.851 303.59C173.101 303.72 171.481 303.85 169.851 304C140.961 306.62 114.621 313.72 92.6611 325C69.6111 336.8 51.3911 353.12 38.5111 373.51C22.9911 398.1 15.1211 428.85 15.1211 464.92C15.1211 500.78 27.1211 532.64 50.7111 559.6C69.5011 581.05 95.6511 599.42 128.421 614.22C157.231 627.22 186.251 635.15 207.591 639.78C120.031 618.55 54.0511 547.49 53.0311 465.78C52.0311 382.43 147.031 335.05 199.031 338.38C251.031 341.71 270.521 379.99 268.481 409.78C266.641 436.61 230.681 452.96 214.351 453.52C184.741 454.52 168.091 421.21 168.091 421.21C162.271 460.67 205.621 472.81 205.621 472.81C205.621 472.81 297.621 494.53 297.621 408.19C297.621 354.07 264.741 326.58 231.881 313.6C276.091 308.35 303.781 280.71 310.591 249.4C318.801 211.65 280.651 180.49 280.651 180.49C280.651 180.49 304.461 244.16 253.141 267.14C194.671 293.32 138.431 223.48 156.341 159.14C174.251 94.8003 245.481 56.5003 305.231 56.5003C364.981 56.5003 453.851 74.0903 485.221 186.7C512.491 284.49 494.351 335.64 494.351 335.64C503.551 322.7 523.781 281.82 511.161 182.31Z" fill="#FFF3A8"/>
<path d="M413.726 67.7702C415.957 54.1613 396.686 39.6735 370.684 35.4108C344.682 31.1481 321.794 38.7247 319.563 52.3336C317.332 65.9424 336.603 80.4302 362.605 84.6929C388.607 88.9557 411.495 81.3791 413.726 67.7702Z" fill="white"/>
<path d="M295.84 68.5404C302.506 68.5404 307.91 63.1365 307.91 56.4704C307.91 49.8043 302.506 44.4004 295.84 44.4004C289.173 44.4004 283.77 49.8043 283.77 56.4704C283.77 63.1365 289.173 68.5404 295.84 68.5404Z" fill="white"/>
<path d="M629.207 556.72C643.339 554.053 650.342 528.3 644.849 499.201C639.356 470.101 623.447 448.674 609.315 451.342C595.183 454.009 588.18 479.762 593.673 508.861C599.166 537.961 615.075 559.388 629.207 556.72Z" fill="white"/>
<path d="M608.021 598.519C616.764 598.519 623.851 591.432 623.851 582.689C623.851 573.947 616.764 566.859 608.021 566.859C599.279 566.859 592.191 573.947 592.191 582.689C592.191 591.432 599.279 598.519 608.021 598.519Z" fill="white"/>
<path d="M108.084 405.461C126.829 386.716 134.266 363.761 124.694 354.189C115.122 344.617 92.1668 352.054 73.4216 370.799C54.6764 389.544 47.2399 412.5 56.8117 422.071C66.3834 431.643 89.3388 424.207 108.084 405.461Z" fill="white"/>
<path d="M72.2858 673.118C87.1789 668.774 97.8883 660.577 96.2058 654.808C94.5233 649.04 81.0861 647.885 66.193 652.229C51.2998 656.572 40.5905 664.77 42.273 670.539C43.9554 676.307 57.3926 677.462 72.2858 673.118Z" fill="white"/>
</g>
<defs>
<clipPath id="clip0_6378_469">
<rect width="687.71" height="719.8" fill="white"/>
</clipPath>
</defs>
</svg>
