<svg width="875" height="875" viewBox="0 0 875 875" fill="none" xmlns="http://www.w3.org/2000/svg">
<g clip-path="url(#clip0_6739_1517)">
<path d="M15.0004 147.86C15.0016 149.853 15.2094 151.841 15.6204 153.79C16.3351 157.239 17.692 160.523 19.6204 163.47C20.2184 164.376 20.8661 165.247 21.5604 166.08C23.7324 168.652 26.3427 170.819 29.2704 172.48L382.36 372.5L374.42 382.06L365.56 392.76L355.1 405.43L347.56 414.61L343.13 420L338.56 425.58L334.05 431.1L329.57 436.59L320.57 447.59L316.12 453.08L311.67 458.59L307.21 464.11L302.74 469.66L298.33 475.16L294 480.69L289.62 486.19L285.27 491.641L280.95 497.07L274.77 504.86L266.22 515.72L259.64 524.141L255.53 529.4L251.42 534.701L247.35 539.951L243.35 545.18L239.35 550.35L235.43 555.47L231.57 560.54L227.11 566.43L69.7004 520.57C66.0992 519.524 62.2829 519.463 58.6504 520.396C55.0179 521.328 51.7024 523.219 49.0504 525.87L38.8604 536.06C36.7929 538.128 35.1813 540.605 34.1294 543.333C33.0774 546.061 32.6084 548.979 32.7525 551.9C32.8967 554.82 33.6507 557.678 34.9662 560.289C36.2817 562.9 38.1294 565.207 40.3904 567.06L158.83 664.06L158.32 664.92C157.71 665.92 157.11 666.92 156.52 667.92L156.3 668.31C155.71 669.31 155.14 670.31 154.58 671.26L154.38 671.61C153.82 672.61 153.27 673.55 152.74 674.5L152.55 674.84C152.02 675.84 151.5 676.74 151 677.66L150.82 677.99C150.32 678.92 149.82 679.83 149.36 680.73L149.2 681.04L147.82 683.71L147.71 683.94C147.24 684.891 146.8 685.76 146.39 686.61L146.29 686.82C145.85 687.75 145.45 688.6 145.07 689.42L144.95 689.69C144.56 690.54 144.19 691.36 143.85 692.17L143.74 692.42C143.39 693.25 143.05 694.06 142.74 694.86L142.63 695.141C142.33 695.901 142.02 696.7 141.74 697.47C141.74 697.53 141.67 697.66 141.64 697.73C141.35 698.54 141.09 699.31 140.84 700.05L140.77 700.27C140.52 701.06 140.28 701.84 140.07 702.58C140.07 702.67 140.01 702.79 139.99 702.9C139.88 703.29 139.77 703.701 139.67 704.11C132.32 714.78 129.29 721.84 129.29 728.11C129.264 730.381 129.688 732.635 130.538 734.741C131.387 736.847 132.646 738.764 134.24 740.38C145.16 751.3 160.74 741.771 170.51 734.94L170.83 734.85L171.83 734.58C172.49 734.4 173.15 734.201 173.83 733.99L173.98 733.94L174.71 733.71C176.53 733.11 178.5 732.38 180.54 731.54L181.46 731.15L183.58 730.23L184.7 729.73C185.37 729.43 186.05 729.11 186.7 728.73L187.85 728.18C188.59 727.831 189.34 727.451 190.11 727.07L191.11 726.58C193.28 725.48 195.58 724.26 197.95 722.96L199.05 722.35L201.54 720.951L202.86 720.201L205.31 718.78L206.64 718.01L209.34 716.4L210.46 715.73L307.46 834.16C309.311 836.426 311.616 838.278 314.227 839.597C316.838 840.917 319.697 841.673 322.618 841.818C325.54 841.963 328.46 841.494 331.188 840.44C333.917 839.386 336.395 837.772 338.46 835.701L348.65 825.51C350.6 823.571 352.145 821.265 353.197 818.724C354.25 816.184 354.788 813.46 354.78 810.71C354.797 808.733 354.534 806.764 354 804.86L308.18 647.46L315.99 641.54C319.877 638.58 323.797 635.58 327.75 632.54L335.37 626.67L341.37 622L347.37 617.34C351.45 614.174 355.557 610.964 359.69 607.71L367.38 601.65L373.64 596.71L379.78 591.84C384.047 588.447 388.327 585.037 392.62 581.61L400.2 575.54L406.62 570.38L412.94 565.29C417.25 561.82 421.58 558.29 425.94 554.8L433.34 548.8L439.85 543.49L446.14 538.36C450.507 534.794 454.86 531.227 459.2 527.66L466.39 521.75L472.81 516.47L478.81 511.47L478.91 511.38C486.544 505.081 494.26 498.684 502.06 492.19L702.15 845.28C703.264 847.242 704.607 849.065 706.15 850.71C708.746 853.46 711.866 855.661 715.326 857.184C718.786 858.707 722.516 859.521 726.297 859.577C730.077 859.634 733.83 858.933 737.335 857.515C740.839 856.097 744.024 853.99 746.7 851.32L766.35 831.67C769.61 828.421 772.023 824.422 773.379 820.023C774.736 815.625 774.993 810.961 774.13 806.44L743 641.78L814.81 580.06L815.64 579.29C816.03 578.9 816.39 578.5 816.74 578.08C817.09 577.66 817.74 577.23 818.15 576.78C823.3 571.63 826.02 564.62 826.02 556.52C826.02 542.52 817.66 525.81 803.67 511.82C794.67 502.82 784.22 495.91 774.17 492.32L794.11 475.18C794.39 474.93 794.67 474.68 794.94 474.41C795.21 474.14 795.69 473.621 796.04 473.201C796.39 472.78 797.04 472.35 797.45 471.9C802.6 466.75 805.32 459.75 805.32 451.641C805.32 437.641 796.96 420.94 782.97 406.94C759.97 383.94 732.63 377.84 717.97 392.46C717.52 392.91 717.08 393.38 716.67 393.87C716.248 394.216 715.844 394.583 715.46 394.97C715.2 395.23 714.94 395.51 714.69 395.8L699.69 413.22L685.04 335.8C693.74 328.28 703.04 320.55 712.86 312.47C739.48 290.47 769.65 265.47 795.02 237.34C824.89 204.19 843.59 171.61 852.17 137.73C855.53 124.49 859.52 104.59 859.52 84.9005C859.52 65.9005 855.74 50.5905 848.26 39.4305L848.2 39.3405C847.52 38.3405 846.8 37.3405 846.06 36.4005C845.83 36.1005 845.59 35.8105 845.35 35.5205C845.11 35.2305 844.74 34.7805 844.45 34.4505C843.74 33.6405 843.07 32.9105 842.39 32.2305C833.39 23.2305 820.39 17.7005 803.77 15.8005C791.77 14.4305 777.86 14.9105 762.34 17.2305C761.21 17.4005 760.09 17.5705 758.97 17.7605C751.73 18.9505 744.28 20.5105 736.83 22.3905C702.95 30.9805 670.37 49.6805 637.22 79.5405C609.05 104.92 584.1 135.09 562.09 161.71C556.76 168.16 551.72 174.25 546.7 180.22C545.07 182.15 543.46 184.05 541.85 185.93C540.79 187.17 539.77 188.36 538.76 189.52L461.36 174.86L478.78 159.86C479.06 159.62 479.34 159.36 479.6 159.09C479.991 158.707 480.361 158.303 480.71 157.88C481.2 157.47 481.71 157.03 482.12 156.58C487.27 151.43 489.99 144.43 489.99 136.33C489.99 122.33 481.63 105.62 467.64 91.6205C444.64 68.6205 417.3 62.5205 402.64 77.1405C402.19 77.5905 401.75 78.0605 401.34 78.5505C400.93 79.0405 400.52 79.2705 400.13 79.6505C399.74 80.0305 399.61 80.2005 399.36 80.4805L382.21 100.48C378.65 90.4805 371.9 80.1505 362.72 70.9705C339.72 47.9705 312.39 41.8705 297.72 56.4905C297.27 56.9405 296.84 57.4105 296.42 57.9005C296.002 58.2426 295.601 58.6065 295.22 58.9905C294.947 59.2638 294.687 59.5438 294.44 59.8305L232.8 131.6L68.1304 100.44C63.6109 99.5879 58.9516 99.851 54.5568 101.207C50.1619 102.562 46.1642 104.97 42.9104 108.22L23.2504 127.86C20.6175 130.48 18.5321 133.598 17.1157 137.031C15.6993 140.465 14.9803 144.146 15.0004 147.86Z" fill="black"/>
<path d="M728.591 403.071C736.681 394.991 756.261 401.471 772.341 417.551C788.421 433.631 794.901 453.211 786.821 461.291C786.266 461.843 785.652 462.333 784.991 462.751C784.84 463.145 784.609 463.503 784.311 463.801L687.531 546.981C681.481 552.185 673.687 554.91 665.713 554.61C657.738 554.309 650.172 551.006 644.531 545.361C638.885 539.721 635.579 532.156 635.277 524.181C634.974 516.206 637.698 508.412 642.901 502.361L726.081 405.581C726.384 405.284 726.745 405.053 727.141 404.901C727.558 404.242 728.044 403.628 728.591 403.071Z" fill="#F8F9E3"/>
<path d="M725.581 406.164C721.031 411.624 687.751 454.944 724.811 514.944L687.531 546.944C681.479 552.111 673.702 554.807 665.751 554.496C657.799 554.185 650.257 550.889 644.627 545.266C638.997 539.642 635.693 532.104 635.373 524.153C635.053 516.202 637.741 508.422 642.901 502.364L725.581 406.164Z" fill="#EDECBE"/>
<path d="M749.301 507.951C757.381 499.861 776.961 506.351 793.041 522.421C809.121 538.491 815.601 558.091 807.521 566.171C806.968 566.725 806.354 567.215 805.691 567.631C805.539 568.024 805.307 568.381 805.011 568.681L708.231 651.861C702.18 657.063 694.387 659.786 686.413 659.486C678.439 659.185 670.873 655.883 665.231 650.241C659.59 644.597 656.29 637.032 655.989 629.058C655.689 621.085 658.411 613.292 663.611 607.241L746.791 510.471C747.089 510.173 747.447 509.941 747.841 509.791C748.256 509.124 748.746 508.506 749.301 507.951Z" fill="#F8F9E3"/>
<path d="M746.29 511.039C741.73 516.499 708.45 559.819 745.51 619.819L708.23 651.819C702.181 657.038 694.381 659.775 686.397 659.48C678.413 659.186 670.836 655.882 665.187 650.232C659.539 644.582 656.237 637.005 655.944 629.021C655.652 621.036 658.39 613.237 663.61 607.189L746.29 511.039Z" fill="#EDECBE"/>
<path d="M766.222 468.637C775.462 459.397 779.983 448.937 776.32 445.274C772.656 441.611 762.197 446.132 752.957 455.371C743.717 464.611 739.196 475.071 742.859 478.734C746.522 482.397 756.982 477.877 766.222 468.637Z" fill="white"/>
<path d="M783.594 581.756C792.822 572.528 797.042 561.786 793.019 557.764C788.997 553.741 778.255 557.961 769.027 567.19C759.799 576.418 755.579 587.159 759.602 591.182C763.624 595.204 774.366 590.984 783.594 581.756Z" fill="white"/>
<path d="M471.511 145.988C479.591 137.898 473.111 118.318 457.031 102.238C440.951 86.1585 421.371 79.6785 413.281 87.7585C412.734 88.3159 412.248 88.9293 411.831 89.5885C411.435 89.7405 411.074 89.9719 410.771 90.2685L327.601 187.048C322.396 193.098 319.671 200.892 319.972 208.866C320.272 216.841 323.576 224.407 329.221 230.048C334.862 235.693 342.428 238.997 350.403 239.297C358.377 239.598 366.171 236.873 372.221 231.668L469.001 148.488C469.298 148.19 469.53 147.832 469.681 147.438C470.34 147.021 470.953 146.535 471.511 145.988Z" fill="#F8F9E3"/>
<path d="M468.42 149C462.96 153.55 419.64 186.83 359.64 149.77L327.59 187.05C322.371 193.099 319.634 200.899 319.929 208.883C320.223 216.867 323.527 224.444 329.177 230.093C334.827 235.742 342.405 239.044 350.389 239.336C358.373 239.629 366.172 236.89 372.22 231.67L468.42 149Z" fill="#EDECBE"/>
<path d="M366.63 125.281C374.72 117.201 368.23 97.6114 352.15 81.5414C336.07 65.4714 316.49 58.9814 308.41 67.0614C307.875 67.6071 307.402 68.2109 307 68.8614C306.607 69.0136 306.25 69.245 305.95 69.5414L222.77 166.311C217.573 172.364 214.852 180.156 215.152 188.129C215.453 196.101 218.752 203.667 224.39 209.311C230.035 214.95 237.6 218.249 245.573 218.549C253.545 218.85 261.337 216.129 267.39 210.931L364.16 127.751C364.457 127.452 364.688 127.094 364.84 126.701C365.488 126.296 366.088 125.82 366.63 125.281Z" fill="#F8F9E3"/>
<path d="M363.54 128.289C358.08 132.849 314.76 166.119 254.76 129.069L222.76 166.339C217.565 172.393 214.848 180.185 215.152 188.156C215.456 196.127 218.758 203.69 224.399 209.33C230.04 214.971 237.602 218.274 245.573 218.578C253.545 218.881 261.337 216.164 267.39 210.969L363.54 128.289Z" fill="#EDECBE"/>
<path d="M419.22 121.637C428.46 112.397 432.981 101.937 429.318 98.274C425.654 94.6108 415.195 99.1316 405.955 108.371C396.715 117.611 392.194 128.071 395.857 131.734C399.52 135.397 409.98 130.877 419.22 121.637Z" fill="white"/>
<path d="M307.399 105.561C316.627 96.3325 320.847 85.5909 316.825 81.5685C312.803 77.5461 302.061 81.7661 292.833 90.9942C283.605 100.222 279.385 110.964 283.407 114.986C287.43 119.009 298.171 114.789 307.399 105.561Z" fill="white"/>
<path d="M548.91 206.67L65.3501 115.18C63.2276 114.782 61.0401 114.909 58.9781 115.551C56.9161 116.192 55.0424 117.328 53.5201 118.86L33.8601 138.49C32.4162 139.933 31.3254 141.69 30.673 143.624C30.0206 145.558 29.8242 147.617 30.0992 149.639C30.3742 151.662 31.113 153.593 32.2581 155.283C33.4032 156.973 34.9234 158.375 36.7001 159.38L421.76 377.59C424.491 379.138 427.683 379.666 430.767 379.08C433.851 378.494 436.627 376.832 438.6 374.39L556.76 228C558.196 226.217 559.146 224.093 559.516 221.834C559.887 219.576 559.667 217.26 558.876 215.112C558.086 212.963 556.752 211.057 555.006 209.577C553.259 208.098 551.159 207.096 548.91 206.67Z" fill="#00B089"/>
<path d="M36.2101 136.141C284.54 255.861 417.44 220.471 471.68 192.061L548.91 206.671C551.161 207.094 553.263 208.095 555.011 209.574C556.759 211.053 558.094 212.96 558.885 215.109C559.676 217.258 559.896 219.576 559.523 221.835C559.151 224.095 558.199 226.219 556.76 228.001L438.6 374.391C436.627 376.832 433.851 378.495 430.767 379.081C427.683 379.667 424.491 379.139 421.76 377.591L36.7001 159.381C34.9234 158.376 33.4032 156.974 32.2581 155.284C31.113 153.594 30.3742 151.663 30.0992 149.64C29.8242 147.617 30.0206 145.559 30.673 143.625C31.3254 141.69 32.4162 139.933 33.8601 138.491L36.2101 136.141Z" fill="#019385"/>
<path d="M667.91 325.669L759.4 809.229C759.798 811.349 759.674 813.534 759.038 815.595C758.402 817.657 757.274 819.532 755.75 821.059L736.09 840.719C734.646 842.162 732.888 843.252 730.953 843.903C729.018 844.553 726.958 844.748 724.936 844.471C722.913 844.194 720.982 843.453 719.293 842.306C717.604 841.159 716.203 839.637 715.2 837.859L497 452.859C495.452 450.128 494.924 446.936 495.51 443.852C496.096 440.768 497.758 437.992 500.2 436.019L646.58 317.859C648.359 316.421 650.48 315.467 652.737 315.093C654.994 314.718 657.31 314.935 659.458 315.721C661.606 316.508 663.514 317.838 664.995 319.581C666.477 321.324 667.481 323.422 667.91 325.669Z" fill="#00B089"/>
<path d="M738.44 838.367C618.75 590.037 654.11 457.137 682.52 402.857L667.91 325.627C667.475 323.383 666.467 321.29 664.984 319.552C663.5 317.813 661.592 316.488 659.444 315.706C657.297 314.924 654.983 314.711 652.729 315.088C650.475 315.464 648.357 316.418 646.58 317.857L500.19 435.977C497.74 437.953 496.074 440.737 495.489 443.83C494.905 446.923 495.44 450.123 497 452.857L715.2 837.857C716.205 839.633 717.607 841.154 719.297 842.299C720.987 843.444 722.919 844.183 724.941 844.458C726.964 844.732 729.022 844.536 730.956 843.884C732.891 843.231 734.648 842.141 736.09 840.697L738.44 838.367Z" fill="#019385"/>
<path d="M289.941 638.487L339.601 809.067C339.899 810.087 339.917 811.168 339.653 812.197C339.389 813.227 338.853 814.166 338.101 814.917L327.911 825.107C327.325 825.693 326.624 826.149 325.851 826.448C325.079 826.746 324.252 826.879 323.425 826.839C322.598 826.798 321.789 826.585 321.049 826.212C320.309 825.84 319.656 825.317 319.131 824.677L212.891 694.977C212.387 694.36 212.013 693.649 211.79 692.885C211.567 692.121 211.5 691.32 211.594 690.53C211.687 689.739 211.938 688.976 212.333 688.285C212.728 687.593 213.257 686.989 213.891 686.507L280.661 635.437C281.426 634.855 282.321 634.468 283.269 634.308C284.216 634.149 285.189 634.223 286.102 634.523C287.015 634.823 287.842 635.341 288.51 636.031C289.179 636.722 289.67 637.564 289.941 638.487Z" fill="#00B089"/>
<path d="M212.891 694.98L319.131 824.68C319.656 825.32 320.309 825.843 321.049 826.215C321.789 826.588 322.598 826.801 323.425 826.842C324.253 826.882 325.079 826.749 325.851 826.451C326.624 826.152 327.325 825.696 327.911 825.11L330.191 822.84C276.931 739.94 287.781 693.61 299.891 672.67L289.941 638.49C289.665 637.568 289.17 636.728 288.497 636.04C287.825 635.353 286.995 634.839 286.08 634.544C285.164 634.249 284.191 634.181 283.243 634.345C282.296 634.51 281.403 634.903 280.641 635.49L213.871 686.56C213.246 687.043 212.725 687.646 212.337 688.334C211.948 689.021 211.701 689.779 211.61 690.564C211.519 691.348 211.585 692.142 211.805 692.901C212.025 693.659 212.394 694.366 212.891 694.98Z" fill="#019385"/>
<path d="M740.54 36.8642C769.99 29.3942 813 23.9642 831.79 42.7542C850.58 61.5442 845.15 104.554 837.68 134.004C815.6 221.164 725.12 279.864 667.83 330.994C610.54 382.124 178.59 754.274 155.83 718.784C120.35 695.994 492.48 264.034 543.63 206.784C594.78 149.534 653.42 58.9842 740.54 36.8642Z" fill="#F8F9E3"/>
<path d="M236.091 584.639L65.5107 534.969C64.4882 534.673 63.4049 534.657 62.374 534.922C61.3431 535.188 60.4025 535.726 59.6507 536.479L49.4607 546.659C48.8752 547.246 48.419 547.949 48.1214 548.723C47.8239 549.497 47.6916 550.324 47.733 551.152C47.7745 551.98 47.9887 552.79 48.3621 553.53C48.7354 554.27 49.2595 554.924 49.9007 555.449L179.601 661.689C180.217 662.193 180.928 662.567 181.692 662.79C182.456 663.013 183.257 663.08 184.048 662.986C184.838 662.893 185.602 662.642 186.293 662.247C186.984 661.852 187.589 661.323 188.071 660.689L239.141 593.929C239.725 593.164 240.114 592.268 240.274 591.319C240.435 590.37 240.361 589.396 240.061 588.482C239.761 587.567 239.243 586.739 238.551 586.07C237.859 585.4 237.015 584.91 236.091 584.639Z" fill="#00B089"/>
<path d="M179.601 661.691L49.9007 555.451C49.2595 554.925 48.7354 554.271 48.3621 553.531C47.9887 552.791 47.7745 551.981 47.733 551.153C47.6916 550.325 47.8239 549.498 48.1214 548.724C48.419 547.95 48.8752 547.247 49.4607 546.661L51.7407 544.391C134.641 597.651 180.971 586.801 201.911 574.691L236.091 584.641C237.016 584.91 237.862 585.401 238.555 586.071C239.248 586.741 239.768 587.57 240.068 588.486C240.368 589.402 240.441 590.378 240.279 591.328C240.118 592.279 239.727 593.175 239.141 593.941L188.071 660.701C187.588 661.333 186.983 661.862 186.291 662.256C185.6 662.649 184.836 662.9 184.046 662.992C183.255 663.085 182.454 663.017 181.691 662.793C180.927 662.57 180.216 662.195 179.601 661.691Z" fill="#019385"/>
<path d="M831.791 42.7906C833.284 44.3047 834.624 45.9628 835.791 47.7406C799.791 67.1406 733.461 111.251 642.401 206.421C521.421 332.861 237.001 632.101 155.141 718.261C125.301 690.191 492.781 263.651 543.591 206.741C594.741 149.461 653.421 58.9806 740.541 36.8606C770.001 29.4306 813.001 24.0006 831.791 42.7906Z" fill="#EDECBE"/>
<path d="M226.186 666.314C266.164 626.336 294.565 589.92 289.62 584.976C284.676 580.032 248.26 608.432 208.282 648.41C168.304 688.388 139.903 724.805 144.847 729.749C149.791 734.693 186.208 706.292 226.186 666.314Z" fill="#00B089"/>
<path d="M804.911 121.484C806.189 131.688 805.164 142.049 801.911 151.804C801.686 152.469 801.271 153.052 800.715 153.48C800.16 153.908 799.49 154.163 798.791 154.211C798.091 154.259 797.393 154.099 796.784 153.751C796.176 153.402 795.684 152.882 795.371 152.254C793.591 148.654 791.051 143.934 787.761 138.614L804.911 121.484Z" fill="#90D8F8"/>
<path d="M802.391 108.429L781.561 129.259C777.721 123.869 773.546 118.726 769.061 113.859L794.111 88.8594C795.708 91.0317 797.05 93.3804 798.111 95.8594C799.811 99.951 801.241 104.15 802.391 108.429Z" fill="#90D8F8"/>
<path d="M753.09 69.6742C742.889 68.3961 732.532 69.4212 722.78 72.6742C722.116 72.8984 721.533 73.3144 721.104 73.8696C720.676 74.4249 720.422 75.0945 720.374 75.7941C720.325 76.4936 720.486 77.1918 720.834 77.8004C721.182 78.4091 721.703 78.901 722.33 79.2142C725.92 80.9942 730.65 83.5242 735.97 86.8242L753.09 69.6742Z" fill="#90D8F8"/>
<path d="M766.14 72.1875L745.32 93.0175C750.704 96.8582 755.84 101.033 760.7 105.518L785.7 80.5175C783.532 78.9139 781.183 77.5714 778.7 76.5175C774.613 74.8007 770.417 73.3543 766.14 72.1875Z" fill="#90D8F8"/>
<g style="mix-blend-mode:multiply" opacity="0.22">
<path d="M543.59 206.742C404.62 388.432 469.41 499.862 469.41 499.862C330.41 614.682 169.47 740.132 155.79 718.862C120.31 696.072 492.44 264.112 543.59 206.862V206.742Z" fill="#F0CC6D"/>
</g>
<path d="M664.39 111.29C680.16 95.5209 690.107 79.9007 686.608 76.4016C683.109 72.9025 667.488 82.8495 651.719 98.6189C635.95 114.388 626.003 130.008 629.502 133.508C633.001 137.007 648.621 127.06 664.39 111.29Z" fill="white"/>
<path d="M627.381 163.402C632.86 163.402 637.301 158.961 637.301 153.482C637.301 148.004 632.86 143.562 627.381 143.562C621.902 143.562 617.461 148.004 617.461 153.482C617.461 158.961 621.902 163.402 627.381 163.402Z" fill="white"/>
<path d="M462.098 209.503C463.886 202.83 454.225 194.443 440.521 190.771C426.816 187.098 414.256 189.532 412.468 196.205C410.68 202.879 420.34 211.266 434.045 214.938C447.75 218.61 460.309 216.177 462.098 209.503Z" fill="white"/>
<path d="M83.6922 129.9C84.5527 126.689 80.1948 122.731 73.9586 121.06C67.7224 119.389 61.9694 120.638 61.1089 123.849C60.2484 127.061 64.6062 131.019 70.8424 132.69C77.0787 134.361 82.8317 133.112 83.6922 129.9Z" fill="white"/>
<path d="M466.26 243.728C471.292 243.728 475.37 239.649 475.37 234.618C475.37 229.586 471.292 225.508 466.26 225.508C461.229 225.508 457.15 229.586 457.15 234.618C457.15 239.649 461.229 243.728 466.26 243.728Z" fill="white"/>
<path d="M316.722 506.713C328.939 491.294 336.267 476.753 333.09 474.236C329.912 471.718 317.433 482.177 305.216 497.597C292.999 513.016 285.671 527.556 288.849 530.074C292.026 532.591 304.506 522.132 316.722 506.713Z" fill="white"/>
<path d="M199.877 593.239C202.342 588.094 194.678 579.293 182.76 573.583C170.841 567.872 159.18 567.414 156.715 572.559C154.25 577.704 161.914 586.504 173.833 592.215C185.752 597.925 197.412 598.384 199.877 593.239Z" fill="white"/>
<path d="M145.98 579.511C149.841 579.511 152.97 576.382 152.97 572.521C152.97 568.661 149.841 565.531 145.98 565.531C142.12 565.531 138.99 568.661 138.99 572.521C138.99 576.382 142.12 579.511 145.98 579.511Z" fill="white"/>
<path d="M65.6101 556.824C69.4706 556.824 72.6001 553.694 72.6001 549.834C72.6001 545.973 69.4706 542.844 65.6101 542.844C61.7496 542.844 58.6201 545.973 58.6201 549.834C58.6201 553.694 61.7496 556.824 65.6101 556.824Z" fill="white"/>
</g>
<defs>
<clipPath id="clip0_6739_1517">
<rect width="844.58" height="844.59" fill="white" transform="translate(15 15)"/>
</clipPath>
</defs>
</svg>
