<svg width="530" height="839" viewBox="0 0 530 839" fill="none" xmlns="http://www.w3.org/2000/svg">
<g clip-path="url(#clip0_4877_1702)">
<path d="M181.39 781.03C178.798 781.03 176.251 780.359 173.996 779.082C171.742 777.805 169.856 775.965 168.524 773.742C167.191 771.52 166.458 768.99 166.394 766.399C166.33 763.808 166.938 761.246 168.16 758.96C193.16 712.25 215.86 642.72 223.86 588.39C212.92 559.67 200.56 534.9 187.09 514.65L185.75 513.99L184.44 513.33L182.02 512.07L180.68 511.36L179.2 510.56L177.92 509.85L176.39 508.98L174.96 508.17L173.54 507.34L172.03 506.43C171.16 505.91 170.28 505.43 169.4 504.82L168.08 504L166.43 503L165.12 502.14L163.46 501.05L162.1 500.12C161.1 499.47 160.16 498.79 159.17 498.12L157.77 497.12L156.33 496.06L154.7 494.86L153.02 493.59C152.55 493.24 151.48 492.41 151.48 492.41L149.92 491.19L148.48 490.03C147.48 489.24 146.48 488.43 145.48 487.6L144.1 486.39C143.61 485.98 143.1 485.56 142.65 485.14C142.65 485.14 141.45 484.14 140.99 483.68C140.53 483.22 139.84 482.68 139.28 482.15L137.93 480.92L137.52 480.55L136.15 479.27L134.15 477.27C133.36 476.51 132.57 475.73 131.78 474.94L131.66 474.82L130.31 473.47L128.64 471.75L127.21 470.24L125.55 468.48L124.24 467.03L124.05 466.83C123.21 465.89 122.36 464.94 121.51 463.97L121.35 463.78C120.81 463.17 120.28 462.56 119.75 461.93C119.22 461.3 118.86 460.93 118.42 460.34L118.18 460.06L116.72 458.29C116.19 457.65 115.67 456.99 115.15 456.34L113.7 454.49L113.49 454.23C113.04 453.66 112.6 453.08 112.15 452.5C111.7 451.92 111.15 451.13 110.61 450.43L110.47 450.25C109.7 449.25 108.93 448.15 108.17 447.08L108.1 446.99C107.59 446.29 107.1 445.58 106.59 444.86C106.08 444.14 105.66 443.51 105.19 442.86C104.72 442.21 104.19 441.37 103.71 440.65C103.23 439.93 102.71 439.21 102.28 438.48L100.82 436.19L100.49 435.66C100.15 435.13 99.8099 434.6 99.4899 434.06C98.6499 432.727 97.8166 431.347 96.9899 429.92C96.6899 429.41 96.3999 428.92 96.1099 428.39L95.7699 427.79C95.2799 426.94 94.7699 426.09 94.3099 425.23C93.8499 424.37 93.4499 423.68 93.0299 422.9C92.6099 422.12 92.1099 421.2 91.6499 420.34L91.5699 420.18L90.4099 417.98L90.1099 417.4C90.0299 417.24 89.9499 417.08 89.8799 416.92C75.9899 389.66 66.4899 358.39 61.6199 323.92C61.3193 321.794 61.4786 319.628 62.087 317.569C62.6955 315.51 63.7389 313.606 65.1467 311.985C66.5545 310.364 68.2939 309.064 70.2474 308.173C72.2008 307.282 74.3228 306.82 76.4699 306.82C77.3757 306.819 78.2797 306.903 79.1699 307.07C82.2299 307.63 154.43 321.83 205.44 415.6C205.56 415.79 205.67 415.99 205.78 416.18L206.36 417.28L206.77 418.06L207.86 420.12C208.43 421.2 208.99 422.31 209.56 423.43L209.87 424.04L210.61 425.5C211.417 427.14 212.223 428.807 213.03 430.5L213.69 431.9C214.43 433.46 215.16 435.037 215.88 436.63C216.1 437.14 216.33 437.63 216.55 438.15L216.84 438.82C217.39 440.04 217.93 441.28 218.46 442.53C218.8 443.32 219.14 444.12 219.46 444.91C220 446.19 220.46 447.41 221 448.65L222 451.17C222.05 451.3 222.1 451.44 222.16 451.57C225.413 455.363 228.613 459.337 231.76 463.49C231.64 445.96 231.06 428.09 230.03 410.01C229.55 401.54 228.96 392.88 228.27 384.17C226.512 381.827 225.141 379.217 224.21 376.44C220.636 378.49 216.609 379.62 212.49 379.73C209.837 379.744 207.211 379.202 204.78 378.14C202.888 377.319 201.186 376.118 199.78 374.61C194.14 368.54 193.04 360.17 196.5 349.28C195.034 348.29 193.714 347.098 192.58 345.74C191.483 344.44 190.618 342.962 190.02 341.37C154.9 336.47 136.52 324.37 136.62 306.04C136.636 304.244 136.975 302.466 137.62 300.79C139.722 295.393 143.717 290.945 148.86 288.28C142.35 281.28 136.48 273.71 133.23 266.34C116.531 243.995 105.813 217.756 102.09 190.11C95.9399 145.6 100.7 114.98 105.99 96.81C110.72 56.21 126.81 28.81 146.21 28.58H146.5C152.92 28.58 158.38 31.1733 162.88 36.36C165.767 34.5848 169.032 33.5158 172.41 33.24C173.26 33.17 174.12 33.13 174.96 33.13H175.24C178.55 13.48 186.51 2.47 198.91 0.380005C200.4 0.128174 201.909 0.00106209 203.42 0C216.18 0 228.47 8.60999 240.82 26.26C243.149 24.4317 245.9 23.2178 248.82 22.73C249.812 22.5673 250.815 22.487 251.82 22.49C255.36 22.49 262.82 22.49 280.82 40.16C281.517 39.9589 282.225 39.7986 282.94 39.68C283.842 39.5277 284.755 39.4508 285.67 39.45C304.06 39.45 320.93 72.08 325.03 80.6C325.53 81.26 326.03 81.94 326.53 82.6C327.47 83.91 328.43 85.3 329.37 86.74C329.7 87.23 330.02 87.74 330.37 88.23C331.18 89.5 331.98 90.8 332.75 92.12C334.32 94.77 335.82 97.53 337.23 100.31C348.04 121.76 354.38 146.86 356.08 174.92V175C356.17 176.4 356.23 177.86 356.28 179.59V180.84C356.28 182.15 356.28 183.45 356.28 184.75V185.5C356.28 186.95 356.22 188.41 356.15 189.97L356.09 191.11C356.03 192.3 355.95 193.5 355.85 194.68L355.77 195.73C355.64 197.18 355.49 198.63 355.32 200.04L355.21 200.93C355.06 202.11 354.89 203.28 354.71 204.45L354.53 205.58C354.29 207.09 354.04 208.46 353.79 209.76L353.7 210.2C353.44 211.44 353.17 212.68 352.88 213.92L352.62 215.03C352.32 216.27 352.01 217.49 351.68 218.7L351.57 219.12C351.23 220.34 350.85 221.63 350.4 223.06L350.07 224.06C349.73 225.12 349.37 226.19 349 227.24L348.73 228.02C348.61 228.35 348.49 228.68 348.36 229.02C347.87 237.31 344.75 246.79 340.74 255.85C346.454 256.726 351.669 259.608 355.45 263.98C356.601 265.362 357.498 266.936 358.1 268.63C359.476 272.526 359.821 276.712 359.1 280.78C359.1 281.07 358.99 281.4 358.92 281.72C358.85 282.04 358.74 282.58 358.63 282.99C355.35 295.6 342.12 307.85 319.23 319.54C319.179 321.251 318.841 322.941 318.23 324.54C317.601 326.199 316.754 327.766 315.71 329.2C322.53 338.34 324.23 346.6 320.9 354.2C320.077 356.09 318.876 357.792 317.37 359.2C313.475 362.709 308.37 364.57 303.13 364.39C301.538 364.382 299.95 364.248 298.38 363.99C298.38 369.88 296.89 374.67 294 378.4C294.73 387.54 295.35 396.65 295.87 405.6C295.87 405.84 295.87 406.08 295.87 406.32C305.091 398.589 314.794 391.451 324.92 384.95C325.7 384.03 326.47 383.14 327.24 382.25L327.86 381.55C329.07 380.17 330.29 378.8 331.51 377.46L331.95 376.97C333.2 375.59 334.46 374.23 335.71 372.89L335.76 372.84C337.02 371.49 338.29 370.17 339.55 368.84L340.05 368.32C341.29 367.04 342.53 365.8 343.76 364.57L344.16 364.17C346.73 361.61 349.31 359.17 351.87 356.76L352.23 356.42C353.49 355.253 354.743 354.11 355.99 352.99L356.39 352.63C416.5 298.91 472.55 290.89 500.61 290.89C506.196 290.813 511.779 291.205 517.3 292.06C519.64 292.487 521.845 293.465 523.733 294.913C525.62 296.36 527.137 298.236 528.157 300.385C529.177 302.534 529.671 304.895 529.598 307.273C529.526 309.651 528.889 311.977 527.74 314.06C502.98 359.06 471.59 393.63 434.46 416.67C409.146 432.532 380.76 442.855 351.17 446.96C330.145 462.129 311.916 480.837 297.3 502.25C296.46 530.25 294.42 557.5 291.25 583.25C291.238 584.433 291.091 585.611 290.81 586.76L290.48 589.39C281.1 660.57 262.57 722.39 235.4 773.16C234.119 775.553 232.213 777.553 229.885 778.948C227.557 780.342 224.894 781.079 222.18 781.08L181.39 781.03Z" fill="#231F20"/>
<path d="M387.23 409.56L373.23 376.37C338.853 390.929 307.881 412.479 282.28 439.65C282 428.71 281.527 417.64 280.86 406.44C274.49 295.82 254.67 212.09 253.86 208.58L218.86 216.96C219.06 217.79 238.86 301.59 245 409.15C247.043 443.86 247.33 478.651 245.86 513.39C233.21 489.98 219.38 470.21 204.47 454.26C182.83 431.11 166.61 424.44 163.58 423.34L151.29 457.17C151.174 457.137 151.061 457.097 150.95 457.05C151.07 457.1 163.39 462.28 180.65 481.55C196.09 498.79 218.49 530.86 239.32 586.73C231.47 643.39 207.52 717.19 181.39 766.03H222.22C248.53 716.87 266.51 656.76 275.65 587.38C275.83 585.99 276 584.57 276.17 583.16H276.29C276.257 583.089 276.231 583.015 276.21 582.94C279.61 555.87 281.7 527.39 282.46 497.67C290.39 484.93 324.01 436.12 387.23 409.56Z" fill="#4CA84E"/>
<path d="M188.39 58.3896C188.39 58.3896 187.56 17.4996 201.39 15.1696C223.09 11.5096 247.11 68.9996 247.11 68.9996C247.11 68.9996 244.37 38.6896 251.29 37.5196C258.21 36.3496 281.7 63.1596 281.7 63.1596C281.7 63.1596 280.04 55.3596 285.32 54.4696C290.6 53.5796 322.98 84.9496 327.74 154.47C332.5 223.99 284.23 264.61 243.32 278.72C202.41 292.83 134.13 246.19 122.55 163.78C110.97 81.3696 135.55 43.7796 146.41 43.5796C157.27 43.3796 161.08 75.3896 161.08 75.3896C161.08 75.3896 163.24 49.0696 173.72 48.1396C184.2 47.2096 188.39 58.3896 188.39 58.3896Z" fill="#BCB8BC"/>
<path d="M190.2 80.3893C190.2 80.3893 189.84 38.9493 204.97 36.3893C228.68 32.3893 254.12 90.3393 254.12 90.3393C254.12 90.3393 251.54 59.6593 259.12 58.3393C266.7 57.0193 291.96 83.9193 291.96 83.9193C291.96 83.9193 290.25 76.0293 296.02 75.0593C301.79 74.0893 336.71 105.449 341.02 175.859C345.33 246.269 292.02 288.089 247.22 302.939C202.42 317.789 128.47 271.389 116.94 188.059C105.41 104.729 132.79 66.1893 144.59 65.8893C156.39 65.5893 160.17 97.9793 160.17 97.9793C160.17 97.9793 162.89 71.2694 174.33 70.1894C185.77 69.1093 190.2 80.3893 190.2 80.3893Z" fill="#F4F0EA"/>
<path d="M296.01 75.0609C290.24 76.0609 291.95 83.9209 291.95 83.9209C297.6 120.441 310.04 272.141 153.95 267.751C160.679 275.12 168.217 281.708 176.42 287.391L176.78 287.641C178.58 288.871 180.41 290.041 182.24 291.161L182.67 291.421C185.463 293.101 188.277 294.634 191.11 296.021L192.45 296.671C193.77 297.291 195.08 297.891 196.45 298.451C197.06 298.711 197.66 298.971 198.27 299.211C199.04 299.521 199.8 299.821 200.57 300.111C201.34 300.401 202.39 300.781 203.29 301.111L205.87 301.951C206.69 302.201 207.52 302.451 208.34 302.681C208.93 302.851 209.51 303.021 210.1 303.171C211.34 303.491 212.57 303.771 213.8 304.031C214.33 304.151 214.87 304.261 215.4 304.361C216.69 304.611 217.97 304.831 219.24 305.011L220.32 305.151C221.44 305.291 222.56 305.411 223.67 305.501L224.79 305.591C226.12 305.681 227.43 305.721 228.79 305.741H229.79C231.15 305.741 232.49 305.741 233.79 305.601H234.18C235.46 305.501 236.71 305.351 237.96 305.181L238.75 305.061C240.04 304.861 241.32 304.611 242.58 304.321L243.34 304.141C244.64 303.811 245.93 303.461 247.18 303.051C260.777 298.505 273.684 292.112 285.54 284.051C317.4 262.381 344.04 226.541 340.98 175.941C336.7 105.451 301.77 74.0909 296.01 75.0609Z" fill="#E5E3E5"/>
<path d="M343.86 273.679C339.42 268.389 327.3 269.839 313.3 274.879C328.3 251.219 338.1 226.969 330.99 219.319C320.81 214.849 299.16 234.649 280.99 258.559C283.62 228.629 280.94 199.409 270.4 195.869C257.89 196.929 247.33 232.149 243.71 265.789C229.25 235.199 207.71 205.389 195.55 208.499C186.76 215.299 193.81 243.779 206.12 271.199C181.12 254.569 154.12 242.969 145.99 250.529C141.79 260.089 158.99 279.779 180.93 297.209C166.05 297.049 154.12 299.659 151.67 306.109C151.56 326.539 219.91 332.329 253.97 326.589C288.03 320.849 350.66 292.939 343.86 273.679Z" fill="#66BE64"/>
<path d="M204.09 336.091C206.4 338.851 212.71 338.091 220 335.471C212.2 347.791 207.09 360.411 210.79 364.391C216.09 366.721 227.36 356.391 236.79 343.961C235.41 359.541 236.79 374.751 242.3 376.601C248.81 376.051 254.3 357.711 256.19 340.201C263.72 356.121 274.93 371.641 281.26 370.021C285.84 366.481 282.17 351.661 275.76 337.391C288.76 346.041 302.82 352.081 307.06 348.141C309.24 343.141 300.28 332.921 288.87 323.851C296.62 323.931 302.87 322.571 304.1 319.211C304.16 308.581 268.58 305.561 250.85 308.561C233.12 311.561 200.55 326.071 204.09 336.091Z" fill="#66BE64"/>
<g style="mix-blend-mode:multiply">
<path d="M154.04 312.39C166.34 327.69 223.66 331.72 253.94 326.61C288 320.86 350.66 292.96 343.85 273.7C339.41 268.41 327.29 269.86 313.29 274.9C328.29 251.24 338.09 226.99 330.98 219.34C257.26 349.17 156.8 313.39 154.04 312.39Z" fill="#4CA84E"/>
</g>
<path d="M307.61 432.72L514.61 306.82C514.61 306.82 405.35 286.79 307.61 432.72Z" fill="#66BE64"/>
<path d="M514.64 306.82L307.64 432.72C307.64 432.72 433.68 454.07 514.64 306.82Z" fill="#4CA84E"/>
<g style="mix-blend-mode:multiply">
<path d="M370.09 360.59C349.51 378.38 328.3 401.83 307.61 432.72C307.61 432.72 385.36 445.88 457.95 380.22C405.86 407.67 370.09 360.59 370.09 360.59Z" fill="#4CA84E"/>
</g>
<path d="M225.4 512.92L76.3999 321.83C76.3999 321.83 185.71 341.83 225.4 512.92Z" fill="#66BE64"/>
<path d="M76.4199 321.83L225.42 512.92C225.42 512.92 99.9499 488.21 76.4199 321.83Z" fill="#4CA84E"/>
<g style="mix-blend-mode:multiply">
<path d="M192.53 423.331C205.48 447.261 217 476.701 225.4 512.921C225.4 512.921 148.04 497.681 103.4 410.561C142.43 454.691 192.53 423.391 192.53 423.331Z" fill="#4CA84E"/>
</g>
<path d="M295.53 163.469C305.731 163.469 314 150.557 314 134.629C314 118.701 305.731 105.789 295.53 105.789C285.329 105.789 277.06 118.701 277.06 134.629C277.06 150.557 285.329 163.469 295.53 163.469Z" fill="white"/>
<path d="M320.802 244.394C325.039 239.233 325.692 232.766 322.26 229.948C318.829 227.13 312.612 229.029 308.374 234.19C304.137 239.35 303.484 245.817 306.916 248.635C310.348 251.453 316.564 249.554 320.802 244.394Z" fill="white"/>
<path d="M304.22 268.32C307.556 268.32 310.26 265.616 310.26 262.28C310.26 258.944 307.556 256.24 304.22 256.24C300.884 256.24 298.18 258.944 298.18 262.28C298.18 265.616 300.884 268.32 304.22 268.32Z" fill="white"/>
</g>
<defs>
<clipPath id="clip0_4877_1702">
<rect width="529.64" height="838.04" fill="white"/>
</clipPath>
</defs>
</svg>
