<svg width="433" height="905" viewBox="0 0 433 905" fill="none" xmlns="http://www.w3.org/2000/svg">
<g clip-path="url(#clip0_4906_1218)">
<path d="M203.82 905.001C316.387 905.001 407.64 882.884 407.64 855.601C407.64 828.318 316.387 806.201 203.82 806.201C91.2533 806.201 0 828.318 0 855.601C0 882.884 91.2533 905.001 203.82 905.001Z" fill="#A7A9AC"/>
<path d="M431.28 86.0209C430.016 83.573 428.103 81.5203 425.75 80.0879C423.397 78.6556 420.695 77.8989 417.94 77.9009C417.56 77.9009 417.18 77.9009 416.8 77.9009C414.21 78.0909 410.09 78.4109 391.4 87.2709C390.027 86.1576 388.63 85.1042 387.21 84.1109C385.21 82.6776 383.127 81.3276 380.96 80.0609C382.55 70.9209 383.47 63.0609 383.52 62.6109C383.861 59.6876 383.335 56.7286 382.006 54.1023C380.678 51.476 378.607 49.2985 376.05 47.8409C373.792 46.5412 371.235 45.8519 368.63 45.8409C366.998 45.8395 365.377 46.1029 363.83 46.6209L363.61 46.1809C362.347 43.7378 360.436 41.6892 358.087 40.2588C355.737 38.8285 353.04 38.0716 350.29 38.0709C349.91 38.0709 349.53 38.0709 349.15 38.0709C346.55 38.2709 342.45 38.5809 323.92 47.3509C320.48 44.0692 316.752 41.1039 312.78 38.4909C313.19 26.6509 312.65 14.8109 312.62 14.1709C312.482 11.2364 311.486 8.40691 309.754 6.03365C308.023 3.6604 305.632 1.84783 302.88 0.820891C301.204 0.195745 299.429 -0.122665 297.64 -0.119111C295.608 -0.120853 293.596 0.290431 291.728 1.08977C289.859 1.88912 288.172 3.05985 286.77 4.53089C284.5 6.92089 281.71 10.6909 275.27 26.1709C273.05 26.0209 270.84 25.9409 268.69 25.9409C259.941 25.8971 251.243 27.2647 242.93 29.9909C234.64 21.1509 225.46 12.9009 224.93 12.4409C222.181 9.97737 218.621 8.61374 214.93 8.61089C212.728 8.60834 210.552 9.09327 208.56 10.0309C205.873 11.29 203.619 13.3179 202.085 15.8581C200.55 18.3982 199.804 21.3364 199.94 24.3009C200.03 26.7109 200.21 31.4209 209.22 52.1709C205.239 56.4756 201.62 61.1013 198.4 66.0009C187.58 63.0009 176.99 60.8209 176.4 60.6909C175.412 60.4938 174.407 60.3966 173.4 60.4009C170.964 60.4014 168.564 60.9953 166.409 62.1313C164.253 63.2673 162.407 64.9112 161.03 66.9209C159.366 69.3508 158.453 72.2169 158.407 75.1618C158.361 78.1066 159.183 80.9999 160.77 83.4809C162.7 86.4809 165.9 90.2709 181.6 101.791C180.407 105.391 179.317 109.018 178.33 112.671C176.857 112.671 175.337 112.671 173.77 112.671C165.07 112.671 157.9 113.031 157.6 113.051C154.661 113.201 151.832 114.212 149.463 115.958C147.095 117.704 145.292 120.108 144.28 122.871C143.269 125.634 143.093 128.634 143.774 131.497C144.455 134.36 145.963 136.959 148.11 138.971C149.88 140.631 152.96 143.521 171.63 151.121C171.43 153.501 171.257 155.858 171.11 158.191C160.68 160.321 151.2 162.921 150.65 163.081C147.829 163.868 145.301 165.464 143.377 167.671C141.452 169.878 140.216 172.6 139.82 175.501C139.433 178.42 139.914 181.389 141.204 184.037C142.493 186.685 144.533 188.895 147.07 190.391C149.25 191.671 152.66 193.681 171.38 196.911C171.81 201.821 172.44 206.711 173.24 211.561C165.338 218.834 157.862 226.557 150.85 234.691C148.495 237.178 147.062 240.396 146.79 243.811C129.34 217.811 107.54 197.621 81.73 183.551C79.5312 182.348 77.0661 181.716 74.5599 181.711C72.0495 181.708 69.5787 182.336 67.3738 183.536C65.1689 184.737 63.3006 186.471 61.9399 188.581C60.8099 190.341 34.3399 232.641 55.5199 313.341C55.5199 313.471 55.58 313.601 55.62 313.731L55.7799 314.331L56.7799 317.961L56.99 318.691C57.39 320.111 57.81 321.541 58.23 322.971L58.5 323.851C58.93 325.291 59.38 326.751 59.84 328.201C59.843 328.244 59.843 328.288 59.84 328.331C60.33 329.861 60.84 331.401 61.35 332.921L61.6299 333.761C62.6299 336.881 63.81 340.071 64.98 343.221L65.2799 344.031C65.8799 345.641 66.4899 347.261 67.1399 348.901L67.2699 349.231C67.8699 350.781 68.5 352.351 69.12 353.891L69.4199 354.631C70.0999 356.271 70.7899 357.931 71.5199 359.631L71.7799 360.261C72.4499 361.821 73.14 363.401 73.84 364.971L74.09 365.541C74.84 367.231 75.6099 368.931 76.4099 370.661L76.8099 371.531C77.5899 373.201 78.3799 374.881 79.1599 376.531L79.2899 376.801C80.1299 378.554 80.99 380.318 81.87 382.091L82.37 383.091C84.14 386.641 86.02 390.281 87.96 393.921L88.48 394.921C89.48 396.741 90.48 398.581 91.48 400.411L91.73 400.841C92.7033 402.594 93.7033 404.368 94.73 406.161L95.22 407.021C96.2933 408.894 97.3899 410.784 98.5099 412.691L98.9199 413.381C99.9899 415.191 101.07 417.011 102.16 418.821L102.52 419.411C103.71 421.411 104.93 423.341 106.16 425.311L106.65 426.091C109.19 430.161 111.85 434.301 114.54 438.371L114.99 439.051C117.79 443.281 120.73 447.611 123.74 451.941L123.97 452.281C135.83 469.281 149.19 486.751 163.7 504.281C162.94 510.661 162.207 517.054 161.5 523.461H44.1899C35.7079 523.477 27.5778 526.853 21.5801 532.851C15.5823 538.849 12.2058 546.979 12.1899 555.461V625.771C12.2058 634.253 15.5823 642.383 21.5801 648.381C27.5778 654.379 35.7079 657.755 44.1899 657.771H46.98L79.1899 802.001C80.4727 807.761 82.4891 813.334 85.1899 818.581C86.0799 820.281 87.0399 821.961 88.0699 823.581C89.0999 825.201 90.17 826.771 91.33 828.311C92.49 829.851 93.6899 831.311 94.95 832.721C96.21 834.131 97.5399 835.491 98.95 836.801C100.36 838.111 101.76 839.361 103.24 840.541C106.202 842.91 109.352 845.034 112.66 846.891C122.881 852.59 134.388 855.584 146.09 855.591H248.94C250.94 855.591 252.94 855.501 254.94 855.331C256.94 855.161 258.85 854.911 260.78 854.571C261.78 854.411 262.69 854.221 263.65 854.011C265.53 853.601 267.42 853.101 269.25 852.531C270.17 852.251 271.08 851.941 271.99 851.621C273.79 850.981 275.58 850.251 277.31 849.471C278.18 849.071 279.04 848.661 279.9 848.231C284.132 846.082 288.133 843.506 291.84 840.541C292.58 839.941 293.31 839.331 294.02 838.711C300.521 833.058 305.893 826.224 309.85 818.571C311.195 815.983 312.371 813.311 313.37 810.571C314.394 807.78 315.229 804.924 315.87 802.021L348.09 657.791H350.87C359.352 657.775 367.482 654.399 373.48 648.401C379.478 642.403 382.854 634.273 382.87 625.791V555.441C382.857 546.958 379.481 538.826 373.483 532.828C367.484 526.83 359.353 523.454 350.87 523.441H227.94C236.35 449.311 247.94 376.491 262.35 306.721C263.19 302.721 264.04 298.641 264.9 294.601C267.047 294.821 269.197 294.981 271.35 295.081H271.56C272.8 295.141 274.05 295.181 275.29 295.201H277.29C281.706 295.203 286.119 294.969 290.51 294.501L291.06 294.441C292.12 294.321 293.18 294.191 294.22 294.051L295.16 293.911C296.16 293.771 297.16 293.611 298.16 293.441L299.07 293.271C300.31 293.051 301.54 292.821 302.75 292.561C303.42 292.431 304.08 292.281 304.75 292.131L305.06 292.061L306.34 291.771C307.51 291.491 308.67 291.191 309.85 290.871L310.62 290.661C353.52 278.871 391.62 243.991 409.91 199.661C421.79 170.921 423.34 142.271 414.57 119.151C422.25 111.151 429.07 102.941 429.45 102.481C431.337 100.22 432.517 97.4534 432.843 94.5263C433.168 91.5993 432.624 88.6412 431.28 86.0209ZM197.94 292.501C194.267 310.161 190.78 328.004 187.48 346.031C181.42 317.031 172.59 290.891 161.1 268.211C159.5 265.051 157.833 261.958 156.1 258.931C157.896 259.667 159.819 260.047 161.76 260.051C162.05 260.051 162.34 260.051 162.62 260.051C164.95 259.921 167.97 259.441 175.06 256.711C175.741 256.965 176.439 257.169 177.15 257.321C178.99 257.692 180.863 257.866 182.74 257.841C184.74 257.841 187.09 257.701 189.99 257.421C193.455 262.681 197.616 267.447 202.36 271.591C200.83 278.501 199.34 285.501 197.94 292.501Z" fill="#231F20"/>
<path d="M197.28 762.841L161.28 762.251C164.49 565.161 190.95 399.681 212.58 295.571C236.07 182.461 258.58 116.881 259.48 114.141L293.48 125.891L276.48 120.021L293.48 125.891C293.26 126.541 270.67 192.571 247.63 303.661C226.43 406.101 200.44 568.921 197.28 762.841Z" fill="#67BE65"/>
<path d="M350.31 53.15C345.68 53.5 328.31 61.94 320.37 65.9C314.268 57.8587 306.344 51.381 297.25 47C298.55 33.9 297.66 15 297.66 15C294.66 18.15 288.29 33.92 284.84 42.76C282.76 42.2876 280.657 41.9238 278.54 41.67C262.74 39.76 249.64 42.47 238.78 48.11C230.61 37.77 214.96 23.73 214.96 23.73C215.15 28.73 224.07 48.73 227.27 55.73C218.02 63.38 210.85 73.33 205.27 83.89C192.96 79.34 173.45 75.4 173.45 75.4C176.05 79.46 192.77 91.4 199.62 96.25C195.499 106.612 192.31 117.321 190.09 128.25C177 127.05 158.41 128 158.41 128C161.77 131.15 179.41 138.12 187.81 141.33C187.09 146.44 186.87 149.52 186.87 149.52C186.17 157.12 185.77 164.23 185.62 170.89C172.62 172.56 154.69 177.51 154.69 177.51C158.56 179.79 176.54 182.69 185.69 184.05C185.931 195.363 187.27 206.626 189.69 217.68C179.63 224.26 161.75 245.07 161.75 245.07C166.82 244.78 187.26 235.07 193.87 231.91C204.02 259.45 219.87 265.27 219.87 265.27C329.87 263.91 361.66 140.2 327.72 77.2C337.6 68.5 350.31 53.15 350.31 53.15Z" fill="#4CA84D"/>
<path d="M205.05 149.97C205.05 149.97 211.48 60.4201 274.68 68.0601C346.98 76.8001 339.19 236.53 230.09 237.88C230.09 237.88 198.03 226.11 205.05 149.97Z" fill="#F15B4B"/>
<path d="M179.29 499.501L74.55 196.721C209.09 270.111 179.29 499.501 179.29 499.501Z" fill="#67BE65"/>
<path d="M74.55 196.762L179.29 499.502C9.43998 297.582 74.55 196.762 74.55 196.762Z" fill="#4CA84D"/>
<g style="mix-blend-mode:multiply">
<g style="mix-blend-mode:multiply">
<path d="M176.68 371.012C187.07 439.482 179.28 499.512 179.28 499.512C113.28 421.052 82.7801 357.872 70.1201 309.922C158.69 395.162 176.68 371.012 176.68 371.012Z" fill="#4CA84E"/>
</g>
</g>
<g style="mix-blend-mode:multiply">
<g style="mix-blend-mode:multiply">
<path d="M301.83 84.7811C294.95 73.5411 281.28 57.8711 281.28 57.8711C280.87 62.6111 286.69 81.8711 289.28 90.0611C279.896 94.993 271.163 101.073 263.28 108.161C252.21 101.161 235.61 93.5411 235.61 93.5411C237.01 97.5411 247.61 109.851 253.92 117.071C246.909 124.256 240.432 131.943 234.54 140.071C222.3 135.281 201.12 131.071 201.12 131.071C203.67 135.071 219.74 146.501 226.88 151.501C221.88 159.421 217.603 166.874 214.05 173.861C206.05 174.451 193.69 177.591 185.65 179.861C185.65 181.401 185.65 182.861 185.75 184.391C192.46 185.691 201.56 186.871 207.64 187.601C202.03 200.861 199.01 212.211 197.64 221.791C195.533 222.53 193.469 223.388 191.46 224.361C192.673 228.641 194.166 232.837 195.93 236.921L196.75 236.781C196.75 237.531 196.81 238.281 196.86 238.991C206.86 260.501 219.92 265.301 219.92 265.301C327.33 263.931 360.12 145.831 329.92 81.6511C320.44 80.6538 310.857 81.7216 301.83 84.7811Z" fill="#4CA84E"/>
</g>
</g>
<path d="M405.1 153.172C387.7 170.332 355.01 198.502 316.92 211.342C286.49 221.602 252.63 222.072 220.37 199.342C203.77 246.182 221.26 265.832 221.26 265.832C317.88 316.032 403.51 224.402 405.1 153.172Z" fill="#4CA84D"/>
<path d="M417.94 92.9001C413.44 93.2401 396.94 101.21 388.71 105.3C385.658 101.972 382.251 98.9871 378.55 96.4001C374.02 93.195 369.159 90.4861 364.05 88.3202C366.87 76.0302 368.63 60.9202 368.63 60.9202C365.4 63.3802 357.39 76.3201 352.41 84.6501C341.087 82.3201 329.345 83.0694 318.41 86.8202C311.52 75.5802 297.85 59.9102 297.85 59.9102C297.45 64.6502 303.27 83.9102 305.85 92.1002C296.462 97.0321 287.727 103.119 279.85 110.22C268.78 103.17 252.18 95.5802 252.18 95.5802C253.58 99.5802 264.18 111.91 270.48 119.12C263.472 126.308 256.995 133.995 251.1 142.12C238.86 137.33 217.69 133.12 217.69 133.12C220.24 137.12 236.31 148.56 243.45 153.55C238.45 161.47 234.173 168.927 230.62 175.92C217.96 176.84 194.28 184.19 194.28 184.19C198.05 186.26 214.76 188.48 224.21 189.61C218.6 202.87 215.58 214.22 214.21 223.8C202.65 227.67 180.35 242.64 180.35 242.64C185 243.64 204.91 240.29 213.35 238.78C213.95 257.49 221.35 265.78 221.35 265.78C336.35 325.51 435.66 184.56 396.54 115.9C406.16 107.1 417.94 92.9001 417.94 92.9001Z" fill="#67BE65"/>
<path d="M328.14 152.731C342.94 152.731 354.95 143.731 354.95 132.551C354.95 121.371 342.95 112.371 328.14 112.371C313.33 112.371 301.33 121.371 301.33 132.551C301.33 143.731 313.33 152.731 328.14 152.731Z" fill="white"/>
<path d="M357.16 113.7C359.918 113.7 362.564 112.605 364.514 110.654C366.464 108.704 367.56 106.059 367.56 103.3C367.56 100.542 366.464 97.8969 364.514 95.9465C362.564 93.9961 359.918 92.9004 357.16 92.9004C355.794 92.8991 354.441 93.1672 353.179 93.6894C351.916 94.2116 350.769 94.9776 349.803 95.9436C348.837 96.9096 348.071 98.0566 347.549 99.3189C347.027 100.581 346.759 101.934 346.76 103.3C346.76 106.059 347.856 108.704 349.806 110.654C351.757 112.605 354.402 113.7 357.16 113.7Z" fill="white"/>
<path d="M405.09 153.182C404.09 154.382 315.44 259.182 220.37 199.332C217.491 207.265 215.407 215.466 214.15 223.812C202.59 227.682 180.29 242.652 180.29 242.652C184.94 243.652 204.85 240.302 213.29 238.792C213.89 257.502 221.29 265.792 221.29 265.792C317.88 316.032 403.49 224.402 405.09 153.182Z" fill="#4CA84D"/>
<g style="mix-blend-mode:multiply">
<path d="M396.94 191.4C337.52 288.8 213.21 238.79 213.21 238.79C213.81 257.5 221.21 265.79 221.21 265.79C301.05 307.28 373.34 252.04 396.94 191.4Z" fill="#4CA84E"/>
</g>
<path d="M161.73 245.07L191.38 224.33L193.85 231.91L161.73 245.07Z" fill="#4CA84D"/>
<path d="M248.94 840.602H146.08C133.909 840.601 122.101 836.453 112.602 828.842C103.104 821.231 96.4831 810.611 93.8301 798.732L47.3501 590.592H347.68L301.19 798.732C298.539 810.611 291.918 821.233 282.419 828.844C272.921 836.456 261.112 840.603 248.94 840.602Z" fill="#F8A43F"/>
<path d="M302.56 590.592L256.07 798.732C253.419 810.611 246.798 821.233 237.299 828.844C227.801 836.456 215.992 840.603 203.82 840.602H248.94C261.112 840.603 272.921 836.456 282.419 828.844C291.918 821.233 298.539 810.611 301.19 798.732L347.68 590.592H302.56Z" fill="#EEB678"/>
<g style="mix-blend-mode:multiply" opacity="0.47">
<path d="M47.3401 590.592L63.8501 664.512H243.65C243.65 664.512 259.17 786.232 93.8201 798.732C96.4731 810.611 103.094 821.231 112.592 828.842C122.091 836.453 133.899 840.601 146.07 840.602H248.94C261.112 840.603 272.921 836.456 282.419 828.844C291.918 821.233 298.539 810.611 301.19 798.732L347.68 590.592H47.3401Z" fill="#EEB678"/>
</g>
<path d="M350.82 538.422H44.1799C34.78 538.422 27.1599 546.042 27.1599 555.442V625.752C27.1599 635.152 34.78 642.772 44.1799 642.772H350.82C360.22 642.772 367.84 635.152 367.84 625.752V555.442C367.84 546.042 360.22 538.422 350.82 538.422Z" fill="#F8A43F"/>
<path d="M326.27 595.901C337.94 595.901 347.4 586.44 347.4 574.771C347.4 563.101 337.94 553.641 326.27 553.641C314.6 553.641 305.14 563.101 305.14 574.771C305.14 586.44 314.6 595.901 326.27 595.901Z" fill="white"/>
</g>
<defs>
<clipPath id="clip0_4906_1218">
<rect width="432.96" height="905" fill="white"/>
</clipPath>
</defs>
</svg>
