<svg width="1265" height="488" viewBox="0 0 1265 488" fill="none" xmlns="http://www.w3.org/2000/svg">
<g clip-path="url(#clip0_5470_18789)">
<path d="M1263.9 232.2C1263.8 231 1263.8 229.8 1263.7 228.7C1263.5 225.8 1263.3 222.9 1263 220C1262.5 214.4 1261.7 208.7 1260.8 203.2C1259.7 196.4 1258.3 189.7 1256.6 183.1C1249.4 155.1 1237.4 129 1221.5 105.9C1217.5 100 1213.1 94.3004 1208.6 88.8004C1204.5 83.8004 1200.2 79.0004 1195.7 74.3004C1192.9 71.4004 1190.1 68.6004 1187.2 65.9004C1183.4 62.3004 1179.4 58.8004 1175.4 55.5004C1172.9 53.4004 1170.3 51.4004 1167.7 49.4004C1167.6 49.3004 1167.4 49.2004 1167.3 49.1004C1152.4 37.9004 1136.2 28.3004 1119 20.7004C1117.4 20.0004 1115.9 19.3004 1114.3 18.7004C1109.5 16.7004 1104.6 14.8004 1099.7 13.1004C1078.3 5.70039 1055.5 1.30039 1031.8 0.200391C1028.1 0.000390634 1024.3 -0.0996094 1020.5 -0.0996094H648.5C629.3 23.8004 618.9 53.2004 618.9 84.5004V102.4C602.7 105.1 587.3 112 574.6 122.7C574.4 122.8 574.3 123 574.1 123.1C573.4 123.7 572.6 124.4 571.9 125C571.6 125.2 571 125.8 571 125.8C570.2 126.6 569.3 127.4 568.5 128.2C568.3 128.4 568.1 128.6 567.9 128.8L567.7 128.9C567 129.6 566.3 130.4 565.6 131.2C565.3 131.5 565.1 131.8 564.8 132.1C564.1 132.9 563.4 133.7 562.7 134.5C562.7 134.5 562.2 135.1 562 135.3C561.3 136.2 560.6 137.1 559.8 138.1L559.2 139C558.5 139.9 557.8 140.9 557.2 141.8C557 142.1 556.6 142.7 556.6 142.7C555.9 143.8 555.3 144.8 554.7 145.7L554.3 146.4C553.7 147.5 553.1 148.5 552.5 149.5L552 150C551.4 151 550.9 152.1 550.3 153.3C550.3 153.3 550 153.8 549.9 154C549.4 155.1 548.9 156.2 548.3 157.4L548 158.2C547.5 159.4 547 160.6 546.6 161.7C546.5 161.9 546.3 162.5 546.3 162.5C545.8 163.8 545.4 165 545.1 166.2L544.9 166.8C544.5 168.2 544.1 169.4 543.8 170.7C543.8 170.8 543.8 170.8 543.7 170.9C543.4 172.2 543.1 173.5 542.8 174.9L542.7 175.5C542.4 176.8 542.2 178.1 542 179.4L541.9 180.2C541.7 181.5 541.5 182.9 541.4 184.1C541.4 184.4 541.3 184.6 541.3 184.9C541.2 186.3 541 187.7 541 189V189.5C540.9 191.1 540.9 192.5 540.9 193.9V212.5H511.4C523 194.6 529.4 173.7 529.4 151.7C529.4 90.2004 479.4 40.2004 417.9 40.2004C356.4 40.2004 306.4 90.2004 306.4 151.7C306.4 178.4 315.8 203.7 332.7 223.6C326.5 230 322.8 238.8 322.8 248.5C322.8 250.3 322.9 252 323.2 253.8C323.2 254 323.3 254.2 323.3 254.5C323.3 254.8 323.4 255 323.4 255.3C323.5 255.8 323.6 256.3 323.7 256.8C323.8 257.2 323.9 257.7 324 258.2C324.2 258.8 324.3 259.3 324.5 259.9C324.6 260.4 324.8 260.8 325 261.2C325.2 261.8 325.4 262.3 325.7 262.9C325.9 263.3 326.1 263.7 326.3 264.2C326.6 264.7 326.8 265.2 327.1 265.8C327.3 266.2 327.5 266.6 327.7 266.9L327.8 267.1C328.1 267.6 328.3 268 328.6 268.4C328.9 268.8 329.1 269.2 329.4 269.6L329.6 269.8C329.9 270.2 330.2 270.6 330.5 271C330.9 271.5 331.4 272 331.9 272.6C332.1 272.8 332.3 273 332.5 273.2C331.8 274.1 331 275 330.2 276.1L329.8 276.7C328.8 278 328 279.1 327.1 280.3C327.1 280.3 327.1 280.3 327 280.4C326.2 281.5 325.5 282.6 324.6 283.9L324.2 284.5C323.4 285.8 322.6 287 321.9 288.1C321.8 288.3 321.7 288.4 321.6 288.6C320.9 289.8 320.2 291 319.6 292.1L319.3 292.7C318.6 293.9 318 295.2 317.3 296.5L317 297.2C316.4 298.5 315.8 299.8 315.3 301L315.2 301.3C314.7 302.6 314.1 303.9 313.6 305.4L313.3 306.2C312.7 307.7 312.3 309.1 311.9 310.4C311.9 310.5 311.8 310.5 311.8 310.6C311.4 311.8 311 313.1 310.6 314.6L310.4 315.5C310 317 309.6 318.3 309.3 319.8L309.2 320.4C308.9 321.6 308.6 323 308.4 324.3L308.2 325.1C307.9 326.5 307.7 328 307.5 329.4L307.4 330.3C307.2 331.6 307.1 333 306.9 334.3L306.8 334.9C306.7 336.3 306.6 337.8 306.5 339.3C306.5 339.6 306.4 340.8 306.4 341C306.3 342.5 306.3 343.8 306.3 345C306.3 406.5 356.3 456.5 417.8 456.5H417.9C418.9 456.5 419.9 456.5 420.9 456.5C421.2 456.5 422.9 456.4 422.9 456.4C423.3 456.4 423.7 456.4 424 456.4C424.4 456.4 425.2 456.3 425.2 456.3C425.8 456.3 426.4 456.2 427.1 456.2H427.5L428.3 456.1C429 456 429.6 456 430.3 455.9L432.1 455.7L434.5 455.4C435.1 455.3 435.8 455.2 436.4 455.1L437.1 455C438.3 454.8 439.4 454.6 440.6 454.3L441.9 454C442.5 453.9 443 453.7 443.6 453.6L444.5 453.4C444.5 453.4 445.5 453.1 445.9 453.1L447.5 452.7C448.2 452.5 448.9 452.3 449.6 452.1L450.7 451.8C451.4 451.6 452.1 451.4 452.8 451.1L453.4 450.9C453.7 450.8 454.1 450.7 454.4 450.5L455.4 450.2C456.7 449.7 458 449.3 459.2 448.8L459.7 448.6C460.5 448.3 461.2 448 462 447.7L463.7 447C464 446.9 465.5 446.2 465.5 446.2C466.1 445.9 466.7 445.6 467.3 445.3L467.8 445.1C467.8 445.1 468.2 444.9 468.3 444.8C469.4 444.2 470.5 443.7 471.6 443.1L472.2 442.8C473.4 442.1 474.5 441.5 475.6 440.8L475.8 440.7C476.9 440 478 439.3 479.2 438.5L479.8 438.1C480.9 437.4 482 436.6 483.1 435.8L483.7 435.4C484.9 434.5 486 433.7 487 432.9C487 432.9 487.1 432.9 487.1 432.8C488.1 432 489 431.2 490.2 430.3L490.7 429.9C491.7 429.1 492.7 428.2 493.6 427.3L494.2 426.8C495.3 425.8 496.2 424.9 497.1 424C497.2 423.9 497.3 423.8 497.4 423.7C498.3 422.8 499.1 421.9 500.1 420.9L500.5 420.5C501.4 419.6 502.2 418.6 503.1 417.5L503.6 416.9C504.5 415.8 505.3 414.8 506.2 413.7L506.4 413.4C507.2 412.4 508 411.3 508.8 410.2L509.1 409.9C509.8 408.9 510.6 407.8 511.4 406.6L511.8 406C512.6 404.8 513.3 403.7 513.9 402.6L514.2 402.2C514.9 401 515.5 399.9 516.2 398.8L516.4 398.5C517 397.4 517.6 396.2 518.3 394.9L518.6 394.3C519.2 393.1 519.8 391.9 520.3 390.7L520.6 390.1C521.2 388.7 521.7 387.5 522.2 386.2C522.7 385 523.1 383.7 523.6 382.3L523.8 381.6C524.2 380.3 524.7 379 525.1 377.8L525.3 377.1C528.4 366.8 529.9 356 529.9 345.2C529.9 323.5 523.7 302.8 512.3 285H541.5V302.9C541.5 304.3 541.5 305.7 541.6 307.3V307.8C541.7 309.1 541.8 310.5 541.9 311.9C541.9 312.2 542 312.4 542 312.6C542.1 313.9 542.3 315.3 542.5 316.6L542.6 317.3C542.8 318.7 543 320 543.3 321.3L543.4 321.9C543.7 323.3 544 324.7 544.3 325.9C544.3 326 544.3 326 544.4 326.1C544.7 327.3 545.1 328.6 545.5 330L545.7 330.6C546.1 331.8 546.5 333 547 334.3L547.3 335.1C547.7 336.3 548.2 337.4 548.7 338.6L549 339.4C549.5 340.6 550 341.7 550.5 342.8C550.6 343 550.9 343.6 550.9 343.6C551.4 344.7 551.9 345.7 552.5 346.7C552.6 346.9 552.7 347 552.8 347.2C552.9 347.3 553 347.5 553 347.6C553.5 348.5 554.1 349.5 554.7 350.5L555.2 351.3C555.8 352.3 556.4 353.3 557.1 354.3C557.1 354.3 557.5 354.9 557.7 355.2C558.3 356.2 559 357.1 559.7 358C559.9 358.3 560.2 358.6 560.4 358.9C561.1 359.8 561.8 360.7 562.5 361.6C562.7 361.8 562.8 362 563 362.2L563.3 362.6C564 363.4 564.6 364.1 565.3 364.9C565.6 365.2 565.8 365.5 566.1 365.8C566.8 366.5 567.5 367.2 568.2 368C568.3 368.1 568.7 368.6 568.8 368.7C568.9 368.8 569 368.9 569.1 369C569.9 369.8 570.6 370.5 571.4 371.2C571.7 371.5 572 371.8 572.3 372C573 372.6 573.7 373.3 574.5 373.9C574.7 374 574.8 374.2 575 374.3C587.8 384.9 603.1 391.9 619.3 394.5V418.4C619.3 443.3 625.9 467.2 638.7 488.2H1021C1027.4 488.2 1033.8 487.9 1040.1 487.5C1072.8 485 1103.7 476 1131.5 461.9C1132.6 461.3 1133.8 460.7 1134.9 460.1C1140.4 457.2 1145.8 454.1 1151 450.8C1152.2 450 1153.4 449.2 1154.6 448.5C1155.1 448.2 1155.5 447.9 1156 447.6C1163 442.9 1169.8 437.9 1176.3 432.5C1182.3 427.6 1188 422.4 1193.5 416.9C1213.9 396.5 1230.7 372.5 1242.9 346C1256.9 315.6 1264.7 281.8 1265 246.2C1265 245.6 1265 245 1265 244.5C1264.2 239.9 1264.1 236.1 1263.9 232.2ZM417.8 190.8C396.2 190.8 378.7 173.3 378.7 151.7C378.7 130.1 396.2 112.6 417.8 112.6C439.4 112.6 456.9 130.1 456.9 151.7C456.9 173.3 439.4 190.8 417.8 190.8ZM456.9 344.7C456.9 347.9 456.5 351.1 455.7 354.3C455.6 354.5 455.6 354.7 455.6 354.9L455.5 355.2C455.4 355.5 455.4 355.8 455.3 356C455.2 356.3 455.1 356.6 455 356.9C454.9 357.2 454.8 357.5 454.7 357.7C454.6 358 454.5 358.3 454.4 358.6C454.3 358.9 454.2 359.1 454.1 359.4C454 359.7 453.9 359.9 453.8 360.2C453.7 360.4 453.6 360.6 453.5 360.8C453.5 360.8 453.1 361.7 453.1 361.8C452.9 362.3 452.6 362.8 452.3 363.3L451.8 364.1C451.7 364.3 451.5 364.6 451.4 364.8C451.3 365 451.2 365.2 451.1 365.3L451 365.5C450.8 365.8 450.7 366 450.5 366.2C450.3 366.4 450.2 366.7 450 366.9C449.8 367.2 449.6 367.4 449.5 367.6C449.3 367.8 449.2 368 449 368.3C448.8 368.6 448.6 368.8 448.4 369L447.9 369.7C447.7 370 447.4 370.3 447.2 370.5C447 370.7 446.8 370.9 446.6 371.2C446.3 371.5 446 371.9 445.6 372.2L445.1 372.7C444.9 372.9 444.6 373.2 444.3 373.4C444.1 373.5 444 373.7 443.8 373.8L443.7 373.9C443.5 374.1 443.2 374.3 443 374.5C442.8 374.7 442.6 374.8 442.4 375C442.1 375.2 441.9 375.4 441.6 375.6C441.6 375.6 441.1 376 441 376.1C440.7 376.3 440.4 376.5 440.1 376.8L439.6 377.2C439.1 377.5 438.7 377.8 438.2 378.1L437.8 378.3C437.4 378.5 437 378.8 436.6 379L436 379.3C435.7 379.5 435.3 379.6 435 379.8C434.8 379.9 434.6 380 434.3 380.1C434 380.3 433.7 380.4 433.3 380.5C433.1 380.6 432.9 380.7 432.6 380.8C432.3 380.9 431.9 381.1 431.6 381.2L431 381.4C430.6 381.5 430.1 381.7 429.7 381.8L429.2 382C428.7 382.2 428.1 382.3 427.6 382.4L427 382.5C426.6 382.6 426.2 382.7 425.7 382.8L425.1 382.9C424.7 383 424.3 383 423.9 383.1C423.7 383.1 423.4 383.2 423.2 383.2C422.8 383.3 422.4 383.3 422.1 383.3C422.1 383.3 421.6 383.4 421.4 383.4C421 383.4 420.6 383.5 420.1 383.5L419.5 383.6C418.9 383.6 418.2 383.6 417.6 383.6H417.5C401.8 383.6 387.7 374.2 381.5 359.7C381 358.5 380.6 357.3 380.2 356.1C379.8 354.9 379.5 353.6 379.2 352.4C378.7 349.8 378.4 347.2 378.4 344.5C378.4 343.9 378.4 343.2 378.5 342.6V342C378.5 341.6 378.5 341.2 378.6 340.7C378.6 340.5 378.7 340.3 378.7 340C378.7 339.6 378.8 339.2 378.8 338.9C378.8 338.7 378.9 338.4 378.9 338.2C379 337.8 379 337.4 379.1 337L379.2 336.4C379.3 335.9 379.4 335.5 379.5 335L379.6 334.6C379.7 334.1 379.9 333.5 380 333L380.2 332.4C380.3 332 380.5 331.6 380.6 331.2L380.8 330.6C380.9 330.3 381.1 329.9 381.2 329.6C381.3 329.4 381.4 329.2 381.5 329C381.7 328.6 381.8 328.3 382 327.9C382.1 327.7 382.2 327.6 382.3 327.4C382.5 327 382.7 326.7 382.9 326.3L383.2 325.8C383.5 325.3 383.7 324.9 384 324.4C384.1 324.3 384.1 324.2 384.2 324.1C384.5 323.7 384.7 323.3 385 322.8L385.3 322.3C385.5 322 385.7 321.7 386 321.4C386.1 321.2 386.3 321 386.4 320.8C393.9 311 405.2 305.4 417.5 305.4C439.4 305.6 456.9 323.2 456.9 344.7ZM658.6 491.3C658.7 491.4 658.8 491.6 658.9 491.7C658.8 491.5 658.7 491.4 658.6 491.3Z" fill="#231F20"/>
<path d="M1264.2 243.8C1264.2 244.4 1264.2 245 1264.2 245.5C1263.9 281.1 1256.1 314.9 1242.1 345.3C1229.9 371.8 1213.1 395.8 1192.7 416.2C1187.2 421.7 1181.5 426.9 1175.5 431.8C1169 437.2 1162.2 442.2 1155.2 446.9C1154.7 447.2 1154.3 447.5 1153.8 447.8C1152.6 448.6 1151.4 449.4 1150.2 450.1C1145 453.4 1139.6 456.5 1134.1 459.4C1133 460 1131.8 460.6 1130.7 461.2C1102.9 475.3 1072 484.3 1039.3 486.8C1033 487.3 1026.6 487.5 1020.2 487.5H655.9C641.9 467.8 633.6 443.7 633.6 417.7V84.5004C633.6 51.5004 646.8 21.7004 668.3 -0.0996094H1020.2C1024 -0.0996094 1027.8 0.000390634 1031.5 0.200391C1055.2 1.30039 1078 5.70039 1099.4 13.1004C1104.3 14.8004 1109.2 16.6004 1114 18.7004C1115.6 19.3004 1117.1 20.0004 1118.7 20.7004C1136 28.3004 1152.1 37.9004 1167 49.1004C1167.1 49.2004 1167.3 49.3004 1167.4 49.4004C1170 51.4004 1172.6 53.4004 1175.1 55.5004C1179.2 58.8004 1183.1 62.3004 1186.9 65.9004C1189.8 68.6004 1192.6 71.4004 1195.4 74.3004C1199.9 78.9004 1204.2 83.8004 1208.3 88.8004C1212.8 94.3004 1217.2 100 1221.2 105.9C1237.1 129.1 1249.2 155.1 1256.3 183.1C1258 189.7 1259.4 196.4 1260.5 203.2C1261.4 208.7 1262.2 214.3 1262.7 220C1263 222.9 1263.2 225.8 1263.4 228.7C1263.5 229.9 1263.5 231.1 1263.6 232.2C1264.1 236.1 1264.2 239.9 1264.2 243.8Z" fill="#48BC9D"/>
<path d="M1264.2 243.8C1264.2 244.4 1264.2 245 1264.2 245.5C1263.9 281.1 1256.1 314.9 1242.1 345.3C1229.9 371.8 1213.1 395.8 1192.7 416.2C1187.2 421.7 1181.5 426.9 1175.5 431.8C1169 437.2 1162.2 442.2 1155.2 446.9C1154.7 447.2 1154.3 447.5 1153.8 447.8C1152.6 448.6 1151.4 449.4 1150.2 450.1C1145 453.4 1139.6 456.5 1134.1 459.4C1133 460 1131.8 460.6 1130.7 461.2C1102.9 475.3 1072 484.3 1039.3 486.8C1033 487.3 1026.6 487.5 1020.2 487.5H1015.9C1074.5 471.4 1130.6 444.2 1175.5 400C1216.5 359.7 1248.2 305.2 1263.8 232C1264.1 236.1 1264.2 239.9 1264.2 243.8Z" fill="#009284"/>
<path opacity="0.62" d="M1263.9 232.2C1264.1 236 1264.2 239.9 1264.2 243.8C1264.2 244.4 1264.2 245 1264.2 245.5C1263.9 281.1 1256.1 314.9 1242.1 345.3C1229.9 371.8 1213.1 395.8 1192.7 416.2C1187.2 421.7 1181.5 426.9 1175.5 431.8V113C1175.5 94.4004 1169.7 77.1004 1159.8 62.9004C1144 40.1004 1117.7 25.1004 1087.9 25.0004C964.3 24.2004 753.9 23.8004 753.9 23.8004C687.4 23.8004 633.5 77.7004 633.5 144.2V84.5004C633.5 51.5004 646.7 21.7004 668.2 -0.0996094H1020.1C1023.9 -0.0996094 1027.7 0.000390634 1031.4 0.200391C1055.1 1.30039 1077.9 5.70039 1099.3 13.1004C1104.2 14.8004 1109.1 16.6004 1113.9 18.7004C1115.5 19.3004 1117 20.0004 1118.6 20.7004C1135.9 28.3004 1152 37.9004 1166.9 49.1004C1167 49.2004 1167.2 49.3004 1167.3 49.4004C1169.9 51.4004 1172.5 53.4004 1175 55.5004C1179.1 58.8004 1183 62.3004 1186.8 65.9004C1189.7 68.6004 1192.5 71.4004 1195.3 74.3004C1199.8 78.9004 1204.1 83.8004 1208.2 88.8004C1212.7 94.3004 1217.1 100 1221.1 105.9C1237 129.1 1249.1 155.1 1256.2 183.1C1257.9 189.7 1259.3 196.4 1260.4 203.2C1261.3 208.7 1262.1 214.3 1262.6 220C1262.9 222.9 1263.1 225.8 1263.3 228.7C1263.8 229.9 1263.9 231 1263.9 232.2Z" fill="#03785A"/>
<path d="M1083.7 224.101C1083.7 224.101 1087 283.601 1151.5 290.201" stroke="#221F1F" stroke-width="8.5331" stroke-miterlimit="10" stroke-linecap="round"/>
<path d="M1007.8 427.5C1007.8 427.5 1005.2 365.2 958.2 365.2C911.2 365.2 912.4 427.5 912.4 427.5C912.4 427.5 956.1 391 1007.8 427.5Z" fill="#221F1F"/>
<path d="M1007.8 305.2C1008.4 312.3 1010.2 319.2 1013.1 325.5C1016 331.8 1020.1 337.4 1025 342.2C1034.8 351.7 1048.1 357.3 1061.6 357.5C1068.4 357.7 1075.2 356.8 1081.6 354.7C1084.8 353.7 1088 352.4 1090.9 350.8C1091.6 350.4 1092.4 350 1093.1 349.5C1093.8 349.1 1094.5 348.6 1095.2 348.1L1096.3 347.4L1097.3 346.6C1098 346.1 1098.7 345.6 1099.3 345C1101.9 342.9 1104.3 340.4 1106.5 337.7C1108.6 335 1110.5 332.1 1112 329C1115.1 322.8 1116.9 315.9 1117.5 308.8C1118.1 315.9 1117.2 323.2 1114.6 330.1C1113.3 333.5 1111.6 336.8 1109.5 339.9C1107.4 343 1105 345.8 1102.3 348.3C1101.6 348.9 1100.9 349.6 1100.2 350.1L1099.1 351L1098 351.8C1097.3 352.4 1096.5 352.9 1095.7 353.4C1094.9 353.9 1094.1 354.4 1093.3 354.9C1090.1 356.8 1086.7 358.4 1083.2 359.6C1076.2 362 1068.7 363.1 1061.3 362.9C1053.9 362.7 1046.4 361 1039.6 357.9C1032.8 354.8 1026.7 350.4 1021.7 344.9C1016.7 339.5 1012.8 333 1010.4 326.2C1008.2 319.6 1007.2 312.3 1007.8 305.2Z" fill="#221F1F"/>
<path d="M1117.6 312.001C1114.3 339.301 1091.1 360.401 1062.9 360.401C1032.4 360.401 1007.8 335.701 1007.8 305.301C1045.5 316.601 1072.9 320.301 1117.6 312.001Z" fill="#F6F6E1"/>
<path d="M1098.4 314.901C1099 317.601 1099.4 320.401 1099.4 323.201C1099.4 343.201 1083.2 359.401 1063.2 359.401C1043.2 359.401 1027 343.201 1027 323.201C1027 318.901 1027.8 314.801 1029.2 311.001C1051.8 316.401 1072.4 318.101 1098.4 314.901Z" fill="#070B0C"/>
<path d="M1129.1 309.6C1077.4 320.9 1048.7 317.5 1007.8 305.2" stroke="#221F1F" stroke-width="8.5331" stroke-miterlimit="10" stroke-linecap="round"/>
<path d="M832.8 224.101C832.8 224.101 829.5 283.601 765 290.201" stroke="#221F1F" stroke-width="8.5331" stroke-miterlimit="10" stroke-linecap="round"/>
<path d="M908.7 305.2C909.3 312.3 908.3 319.6 905.9 326.5C903.5 333.4 899.6 339.8 894.6 345.2C889.6 350.7 883.5 355.1 876.7 358.2C869.9 361.3 862.5 362.9 855 363.2C847.6 363.3 840.1 362.3 833.1 359.9C829.6 358.7 826.2 357.1 823 355.2C822.2 354.7 821.4 354.3 820.6 353.7C819.8 353.2 819.1 352.7 818.3 352.1L817.2 351.3L816.1 350.4C815.4 349.8 814.7 349.2 814 348.6C811.3 346.1 808.8 343.3 806.8 340.2C804.7 337.1 803 333.9 801.7 330.4C799.1 323.5 798.1 316.2 798.8 309.1C799.4 316.2 801.2 323.1 804.3 329.3C805.8 332.4 807.7 335.3 809.8 338C811.9 340.7 814.3 343.1 817 345.3C817.7 345.8 818.3 346.4 819 346.9L820 347.7L821.1 348.4C821.8 348.9 822.5 349.3 823.2 349.8C823.9 350.3 824.7 350.7 825.4 351.1C828.4 352.7 831.5 354 834.7 355C841.1 357.1 848 358 854.7 357.8C868.2 357.6 881.5 352 891.3 342.5C896.2 337.8 900.3 332.1 903.2 325.8C906.3 319.2 908 312.3 908.7 305.2Z" fill="#221F1F"/>
<path d="M798.9 312.001C802.2 339.301 825.4 360.401 853.6 360.401C884.1 360.401 908.7 335.701 908.7 305.301C870.9 316.601 843.5 320.301 798.9 312.001Z" fill="#F6F6E1"/>
<path d="M818 314.901C817.4 317.601 817 320.401 817 323.201C817 343.201 833.2 359.401 853.2 359.401C873.2 359.401 889.4 343.201 889.4 323.201C889.4 318.901 888.6 314.801 887.2 311.001C864.6 316.401 844.1 318.101 818 314.901Z" fill="#070B0C"/>
<path d="M787.3 309.6C839 320.9 867.7 317.5 908.6 305.2" stroke="#221F1F" stroke-width="8.5331" stroke-miterlimit="10" stroke-linecap="round"/>
<path d="M477.5 227.5C499.9 209.8 514.3 182.4 514.3 151.7C514.3 98.4002 471.1 55.2002 417.8 55.2002C364.5 55.2002 321.3 98.4002 321.3 151.7C321.3 182.5 335.7 209.8 358.1 227.5C346.8 227.8 337.7 237.1 337.7 248.5C337.7 249.7 337.8 250.9 338 252.1C338 252.2 338 252.3 338 252.3C338 252.4 338 252.4 338 252.5L338.5 254.6C338.5 254.8 338.6 254.9 338.7 255.1L339.2 256.4L339.9 258C340.2 258.5 340.4 259 340.7 259.5L342.2 261.6L343.3 262.9L344.5 264.1C344.8 264.3 345 264.6 345.3 264.8C345.5 265 345.7 265.1 346 265.3C346.2 265.5 346.4 265.6 346.7 265.8C346.9 266 347.1 266.1 347.4 266.3C347.9 266.6 348.3 266.9 348.8 267.1C349.1 267.3 349.5 267.4 349.8 267.6C350.2 267.8 350.6 268 351 268.1C351.3 268.2 351.5 268.3 351.8 268.4C352 268.5 352.2 268.5 352.4 268.6C352.6 268.7 352.9 268.7 353.1 268.8C353.4 268.9 353.7 268.9 354 269C354.4 269.1 354.9 269.2 355.3 269.3C355.6 269.3 355.8 269.4 356.1 269.4C356.5 269.5 356.9 269.5 357.3 269.5L357.2 269.6C352.5 273.4 348.1 277.7 344.2 282.3C343.9 282.7 343.5 283.1 343.2 283.5C342.9 283.8 342.7 284.1 342.4 284.5C341.8 285.2 341.3 285.9 340.8 286.6C340.5 287 340.3 287.3 340 287.7C339.7 288.1 339.4 288.5 339.1 288.9C338.6 289.6 338.2 290.3 337.7 291C337.5 291.3 337.3 291.7 337 292C336.8 292.3 336.6 292.7 336.4 293C335.9 293.8 335.4 294.6 334.9 295.5C334.5 296.3 334 297 333.6 297.8C333.2 298.5 332.8 299.2 332.5 299.9C331.9 301 331.4 302 330.9 303.1C330.6 303.7 330.4 304.2 330.1 304.8C329.8 305.4 329.6 305.9 329.3 306.5L328.9 307.4C328.1 309.2 327.5 311 326.8 312.8C326.6 313.4 326.4 314 326.2 314.6C326 315.2 325.8 315.8 325.6 316.4C325.6 316.5 325.5 316.5 325.5 316.6C325.4 316.9 325.3 317.2 325.2 317.5C324.9 318.4 324.6 319.4 324.4 320.4C324.2 321 324.1 321.7 323.9 322.4C323.7 323.2 323.5 323.9 323.4 324.7C323.3 325 323.3 325.3 323.2 325.5C323.1 326.1 323 326.7 322.8 327.3C322.7 327.6 322.7 327.9 322.7 328.2C322.5 329.3 322.3 330.3 322.2 331.4C322.1 331.9 322.1 332.3 322 332.8C321.9 333.3 321.9 333.9 321.8 334.4C321.8 334.5 321.8 334.5 321.8 334.6C321.7 335 321.7 335.5 321.7 335.9C321.7 336.1 321.7 336.3 321.6 336.5C321.5 337.1 321.5 337.7 321.5 338.3C321.4 339 321.4 339.8 321.4 340.5C321.4 340.8 321.4 341 321.4 341.3C321.4 342.5 321.3 343.7 321.3 344.9C321.3 398.2 364.5 441.4 417.8 441.4C418.4 441.4 419 441.4 419.6 441.4C419.8 441.4 420 441.4 420.1 441.4C420.3 441.4 420.4 441.4 420.6 441.4H420.7C421 441.4 421.3 441.4 421.6 441.4C422 441.4 422.4 441.4 422.8 441.4C423.1 441.4 423.5 441.4 423.8 441.4C424.1 441.4 424.3 441.4 424.6 441.3C425.1 441.3 425.6 441.2 426.2 441.2C426.6 441.2 427 441.1 427.4 441.1C427.6 441.1 427.9 441.1 428.1 441C428.4 441 428.6 440.9 428.9 440.9C429.1 440.9 429.2 440.9 429.3 440.8C429.8 440.7 430.3 440.7 430.8 440.6C430.9 440.6 431 440.6 431 440.6C431.1 440.6 431.1 440.6 431.2 440.6C431.3 440.6 431.4 440.6 431.5 440.6C431.6 440.6 431.7 440.6 431.9 440.5C432 440.5 432.2 440.5 432.3 440.4C432.8 440.3 433.3 440.3 433.7 440.2C433.8 440.2 433.9 440.2 433.9 440.2C434.2 440.2 434.5 440.1 434.8 440C435.3 439.9 435.7 439.8 436.2 439.7C436.3 439.7 436.4 439.7 436.5 439.6C436.9 439.5 437.3 439.5 437.6 439.4C437.8 439.4 438 439.3 438.2 439.3C438.3 439.3 438.4 439.2 438.5 439.2C438.6 439.2 438.7 439.2 438.7 439.1C438.9 439.1 439.1 439 439.2 439C439.7 438.9 440.2 438.8 440.7 438.6C441.1 438.5 441.4 438.4 441.8 438.3C442.2 438.2 442.5 438.1 442.9 438C443 438 443 438 443.1 437.9C443.5 437.8 443.9 437.7 444.3 437.6C444.6 437.5 444.9 437.4 445.1 437.3C445.4 437.2 445.6 437.1 445.9 437.1C446.4 436.9 446.9 436.8 447.4 436.6C447.5 436.6 447.5 436.5 447.6 436.5C447.8 436.4 448 436.4 448.2 436.3C448.4 436.2 448.7 436.1 448.9 436.1C449.5 435.9 450 435.7 450.6 435.5C450.8 435.4 451 435.4 451.2 435.3C451.6 435.2 451.9 435 452.2 434.9C452.5 434.8 452.9 434.6 453.2 434.5C453.7 434.3 454.3 434.1 454.8 433.8C455.1 433.7 455.3 433.6 455.6 433.4C455.7 433.4 455.7 433.3 455.8 433.3C456.5 433 457.2 432.7 457.9 432.4C458.2 432.3 458.5 432.1 458.8 432C459.2 431.8 459.7 431.6 460.1 431.4C460.2 431.3 460.3 431.3 460.5 431.2C460.5 431.2 460.6 431.2 460.6 431.1C460.6 431.1 460.7 431.1 460.7 431H460.8C461.8 430.5 462.7 430 463.7 429.5C464.1 429.3 464.5 429.1 464.9 428.8C465.6 428.4 466.2 428.1 466.8 427.7C467.3 427.4 467.8 427.1 468.3 426.8C468.9 426.5 469.4 426.1 469.9 425.8C470.3 425.6 470.7 425.3 471.1 425C471.5 424.7 472 424.4 472.4 424.1C472.9 423.7 473.5 423.3 474 423C474.5 422.6 475.1 422.2 475.6 421.8C476.1 421.4 476.6 421 477.2 420.6C477.9 420.1 478.5 419.5 479.2 419C479.8 418.5 480.4 418 480.9 417.5C481.1 417.4 481.2 417.2 481.4 417.1C482 416.6 482.6 416 483.2 415.5C483.9 414.9 484.5 414.3 485.2 413.6C485.6 413.2 486 412.8 486.4 412.4C487 411.8 487.6 411.2 488.2 410.5C488.5 410.2 488.8 409.9 489.1 409.5C489.7 408.9 490.2 408.2 490.8 407.6C491.2 407.2 491.5 406.8 491.8 406.4C492 406.1 492.3 405.8 492.5 405.6C492.7 405.4 492.8 405.2 493 405C493.6 404.3 494.2 403.5 494.8 402.7C495.1 402.3 495.5 401.8 495.8 401.4C496 401.1 496.2 400.8 496.4 400.5C496.9 399.8 497.4 399 497.9 398.3C498.3 397.6 498.8 397 499.2 396.3C499.5 395.8 499.8 395.3 500.1 394.9C500.3 394.5 500.5 394.2 500.8 393.8C501.4 392.9 501.9 391.9 502.4 390.9C502.5 390.7 502.6 390.6 502.7 390.4C503.2 389.5 503.7 388.5 504.1 387.6C504.2 387.4 504.3 387.2 504.4 387C504.8 386.1 505.3 385.2 505.7 384.3C505.9 383.9 506 383.6 506.2 383.2C506.8 381.8 507.4 380.3 508 378.8C508.1 378.4 508.3 378.1 508.4 377.7C509.2 375.5 510 373.2 510.6 370.9C510.7 370.5 510.8 370.2 510.9 369.8C511 369.4 511.1 369 511.2 368.5C513.2 360.8 514.2 352.7 514.2 344.4C514.2 314 500.1 286.9 478.2 269.2H569.5V268.6H600.7V227.2H477.5V227.5ZM469.8 359.7C469.7 360.1 469.5 360.6 469.4 361.1V361.2C469.2 361.9 469 362.6 468.7 363.2C468.6 363.5 468.5 363.9 468.3 364.2C468.2 364.5 468 364.8 467.9 365.2C467.8 365.5 467.7 365.8 467.5 366.1C467.4 366.4 467.2 366.8 467 367.1C466.8 367.5 466.7 367.9 466.5 368.2C466.3 368.6 466.1 369 465.9 369.4C465.6 370 465.3 370.6 465 371.1C464.7 371.7 464.3 372.2 464 372.8C463.8 373.2 463.6 373.5 463.3 373.9C463 374.3 462.8 374.7 462.5 375.1C462.2 375.5 462 375.9 461.7 376.3C461.5 376.6 461.2 376.9 461 377.3C460.8 377.7 460.5 377.9 460.3 378.2C459.8 378.8 459.3 379.5 458.7 380.1C458.4 380.4 458.2 380.7 457.9 381C457.1 381.9 456.3 382.8 455.4 383.6C455.1 383.9 454.9 384.1 454.6 384.4C454.3 384.7 454 385 453.7 385.3C453.4 385.6 453.1 385.9 452.8 386.1C452.2 386.7 451.5 387.2 450.8 387.7C450.6 387.9 450.3 388.1 450.1 388.2C448.4 389.5 446.5 390.7 444.7 391.8C444.3 392 443.9 392.2 443.6 392.4C443.2 392.6 442.8 392.8 442.4 393C442 393.2 441.6 393.4 441.2 393.6C441 393.7 440.9 393.8 440.7 393.8C440.1 394.1 439.5 394.4 438.9 394.6C438.3 394.8 437.8 395.1 437.2 395.3C436.6 395.5 436 395.7 435.4 395.9C434.8 396.1 434.2 396.3 433.6 396.5C433.1 396.7 432.5 396.8 432 397C431.8 397.1 431.6 397.1 431.4 397.2C430.9 397.3 430.4 397.5 429.9 397.6C429.5 397.7 429 397.8 428.6 397.9C428.4 397.9 428.2 398 427.9 398C426.8 398.2 425.8 398.4 424.7 398.5C424.2 398.6 423.7 398.6 423.2 398.7C422.7 398.7 422.3 398.8 421.8 398.8C421.4 398.8 421 398.9 420.5 398.9C420 398.9 419.5 399 419 399C418.5 399 418.1 399 417.6 399C387.7 399 363.5 374.8 363.5 344.9C363.5 344.4 363.5 344 363.5 343.5C363.5 343 363.5 342.5 363.6 342C363.6 341.6 363.7 341.2 363.7 340.8C363.7 340.3 363.8 339.8 363.8 339.3C363.8 338.8 363.9 338.3 364 337.9C364 337.6 364.1 337.2 364.1 336.9C364.1 336.9 364.1 336.9 364.1 336.8C364.1 336.4 364.2 336 364.3 335.7C364.3 335.4 364.4 335.2 364.4 334.9C364.5 334.6 364.5 334.3 364.6 334.1C364.7 333.6 364.8 333.2 364.9 332.7C365 332.5 365 332.3 365 332.1C365.1 331.8 365.1 331.5 365.2 331.2C365.3 330.8 365.4 330.4 365.5 330C365.6 329.6 365.8 329.1 365.9 328.7C366 328.3 366.2 327.9 366.3 327.5C366.4 327.1 366.6 326.7 366.7 326.3C366.9 325.8 367.1 325.3 367.3 324.8C367.6 324.1 367.9 323.4 368.2 322.8C368.4 322.3 368.6 321.8 368.9 321.4C369.1 321 369.3 320.6 369.5 320.2C369.7 319.9 369.8 319.6 370 319.2C370.1 319 370.3 318.7 370.4 318.5C370.7 317.9 371.1 317.3 371.4 316.7C371.6 316.4 371.8 316.1 372 315.8C372.2 315.4 372.5 315.1 372.7 314.7C372.9 314.3 373.2 314 373.4 313.6C373.7 313.3 373.9 312.9 374.2 312.6C384.1 299.4 399.8 290.9 417.5 290.9C447.4 290.9 471.6 315.1 471.6 345C471.6 349.5 471 353.9 470 358.1C470.2 358.5 470 359.1 469.8 359.7ZM417.8 97.6002C447.7 97.6002 471.9 121.8 471.9 151.7C471.9 181.6 447.7 205.8 417.8 205.8C387.9 205.8 363.7 181.6 363.7 151.7C363.7 121.8 387.9 97.6002 417.8 97.6002Z" fill="#BBCBD3"/>
<path d="M600.8 252.101H338C339.6 261.601 347.6 268.901 357.4 269.501C357.4 269.501 357.3 269.501 357.3 269.601H478.3L600.8 268.701V252.101Z" fill="#9BB1BB"/>
<path d="M470.3 357.8C464.4 381.4 443.2 398.8 417.8 398.8C387.9 398.8 363.7 374.6 363.7 344.7C363.7 332.1 368 320.5 375.2 311.3C362.7 301.9 352.5 292.1 344.2 282.2C329.9 299 321.2 320.8 321.2 344.7C321.2 398 364.4 441.2 417.7 441.2C462.7 441.2 500.5 410.4 511.2 368.8C496.6 365.5 483 361.8 470.3 357.8Z" fill="#9BB1BB"/>
<path opacity="0.79" d="M461.1 431C387.8 436.5 343.3 380.2 321.4 341C321.4 342.2 321.3 343.4 321.3 344.7C321.3 398 364.5 441.2 417.8 441.2C433.4 441.3 448.1 437.6 461.1 431Z" fill="#879CA4"/>
<path d="M366.4 248.2C376.618 248.2 384.9 244.618 384.9 240.2C384.9 235.782 376.618 232.2 366.4 232.2C356.183 232.2 347.9 235.782 347.9 240.2C347.9 244.618 356.183 248.2 366.4 248.2Z" fill="white"/>
<path d="M365.13 110.163C372.182 100.61 373.577 89.6754 368.245 85.7394C362.913 81.8033 352.874 86.3566 345.822 95.9093C338.77 105.462 337.375 116.397 342.707 120.333C348.039 124.269 358.078 119.716 365.13 110.163Z" fill="white"/>
<path d="M633.701 380.3C590.8 380.3 556 345.5 556 302.6V193.9C556 151 590.8 116.2 633.701 116.2V380.3Z" fill="#BBCBD3"/>
<path d="M555.9 302.501V252.101C580.4 288.701 614.7 289.501 633.6 286.501V380.301C590.7 380.301 555.9 345.501 555.9 302.501Z" fill="#9BB1BB"/>
<path opacity="0.79" d="M555.9 302.5V193.9C555.9 170.1 566.6 148.7 583.5 134.5V362C566.6 347.7 555.9 326.4 555.9 302.5Z" fill="#879CA4"/>
<path d="M583.5 213.2C591.84 213.2 598.6 198.828 598.6 181.1C598.6 163.372 591.84 149 583.5 149C575.161 149 568.4 163.372 568.4 181.1C568.4 198.828 575.161 213.2 583.5 213.2Z" fill="white"/>
<path d="M1170.3 240.201C1186.98 240.201 1200.5 208.278 1200.5 168.901C1200.5 129.523 1186.98 97.6006 1170.3 97.6006C1153.62 97.6006 1140.1 129.523 1140.1 168.901C1140.1 208.278 1153.62 240.201 1170.3 240.201Z" fill="white"/>
<path d="M1117.6 113.8C1130.14 113.8 1140.3 103.637 1140.3 91.1004C1140.3 78.5635 1130.14 68.4004 1117.6 68.4004C1105.06 68.4004 1094.9 78.5635 1094.9 91.1004C1094.9 103.637 1105.06 113.8 1117.6 113.8Z" fill="white"/>
</g>
<defs>
<clipPath id="clip0_5470_18789">
<rect width="1264.2" height="487.8" fill="white"/>
</clipPath>
</defs>
</svg>
