<svg width="686" height="714" viewBox="0 0 686 714" fill="none" xmlns="http://www.w3.org/2000/svg">
<g clip-path="url(#clip0_6314_362)">
<path d="M685.779 339.541C685.429 333.386 684.635 327.277 683.408 321.281C682.694 317.797 681.829 314.36 680.817 310.981C680.479 309.861 680.131 308.761 679.767 307.661C670.894 280.861 652.926 258.301 627.812 242.431C626.966 241.911 626.119 241.431 625.331 240.901C623.68 239.901 621.995 238.901 620.302 238.021C614.453 234.826 608.434 232.083 602.283 229.811C598.846 228.541 595.332 227.401 591.852 226.431C591.005 226.181 590.108 225.951 589.244 225.731C580.006 223.318 570.577 222.074 561.116 222.021C558.152 222.021 555.239 222.171 552.394 222.471C553.589 218.487 554.603 214.431 555.434 210.321C555.722 208.871 555.993 207.401 556.23 205.951C557.208 200.148 557.713 194.247 557.737 188.331C557.737 186.151 557.737 183.891 557.661 181.211C557.661 180.561 557.661 179.901 557.619 179.261C557.619 177.371 557.509 175.491 557.441 173.641L557.382 172.131C557.28 169.881 557.153 167.591 557.001 165.341L556.891 163.821C556.764 162.011 556.628 160.221 556.467 158.461C556.467 158.461 556.357 157.201 556.306 156.641C556.078 154.191 555.849 152.041 555.62 150.071V149.801C555.392 147.871 555.121 145.801 554.774 143.631C554.697 143.091 554.52 141.881 554.52 141.881C554.26 140.134 553.978 138.407 553.673 136.701L553.461 135.471C553.114 133.471 552.725 131.401 552.31 129.331C552.242 129.021 552.022 127.971 552.022 127.971C551.675 126.331 551.328 124.721 550.955 123.111L550.591 121.571C550.066 119.391 549.583 117.461 549.118 115.721C549.067 115.561 549.024 115.411 548.974 115.231C548.516 113.541 548.017 111.791 547.441 109.891C547.289 109.391 547.128 108.891 546.975 108.401C546.476 106.771 545.951 105.171 545.434 103.641C545.434 103.641 545.206 102.951 545.121 102.721C544.511 100.941 543.842 99.1007 543.131 97.2507L542.666 96.0607C542.107 94.6207 541.514 93.1607 540.904 91.7107C540.904 91.7107 540.498 90.7107 540.362 90.4507C539.516 88.5507 538.779 86.8507 538.017 85.2507C537.958 85.1107 537.89 84.9707 537.805 84.8107C537.103 83.3407 536.349 81.8107 535.511 80.2107C535.299 79.7907 535.079 79.3807 534.859 78.9607C534.063 77.4707 533.275 76.0307 532.505 74.6907C532.505 74.6907 532.251 74.2307 532.149 74.0607C531.302 72.5107 530.32 70.9607 529.296 69.3307L528.652 68.3307C527.805 67.0607 526.959 65.8007 526.163 64.5807L525.477 63.5807C524.359 61.9907 523.309 60.5807 522.285 59.1907L521.972 58.7907C520.998 57.5207 519.999 56.2607 518.906 54.9407L518.06 53.9407C516.942 52.6107 515.884 51.3907 514.851 50.2507L514.529 49.8907C513.369 48.6207 512.15 47.3407 510.812 45.9907L509.965 45.1907C508.915 44.1907 507.84 43.1107 506.756 42.1007L505.909 41.3607C504.521 40.0807 503.191 38.9207 501.887 37.8207L501.464 37.4707C500.27 36.4707 499.034 35.4707 497.687 34.4707L496.714 33.7207C495.266 32.6207 493.928 31.6307 492.624 30.7207L492.412 30.5607C491.015 29.5607 489.534 28.5607 487.891 27.5607L486.934 26.9507C485.656 26.1507 484.343 25.3507 483.022 24.5707L482.175 24.0607C480.55 23.1307 478.932 22.2307 477.375 21.4107L476.816 21.1207C475.419 20.3907 473.945 19.6507 472.43 18.9207L471.312 18.3907C469.534 17.5507 467.925 16.8207 466.409 16.1707L465.707 15.8707C464.86 15.5007 463.937 15.1307 463.039 14.7707C438.942 4.97071 409.594 -0.0292969 375.886 -0.0292969C336.149 -0.0292969 300.942 10.4707 271.248 31.1807C246.346 48.5507 225.203 73.1807 208.412 104.301C181.317 154.561 171.537 210.301 168.006 242.911C158.839 240.258 149.427 238.961 139.988 239.051C128.804 238.967 117.672 240.868 106.966 244.691C106.052 245.031 105.146 245.381 104.248 245.741C102.47 246.461 100.692 247.241 98.956 248.081C98.1093 248.491 97.2626 248.921 96.4158 249.371C94.7224 250.241 93.0289 251.191 91.4456 252.171C85.8849 255.538 80.6256 259.558 75.7473 264.171C51.006 287.631 36.2391 326.981 36.2391 369.421C36.2391 371.131 36.2391 372.861 36.3237 374.731V375.041C36.3661 376.671 36.4423 378.341 36.5523 380.111V380.651C36.654 382.241 36.781 383.921 36.9249 385.591L36.9842 386.231C37.1281 387.831 37.2975 389.491 37.5007 391.161L37.5769 391.781C37.7716 393.411 37.9918 395.061 38.2458 396.781L38.3305 397.331C38.5845 398.991 38.8554 400.661 39.1772 402.251L39.2703 402.761C39.5836 404.461 39.9223 406.151 40.261 407.761L40.3372 408.101C40.7154 409.861 41.1134 411.591 41.5311 413.291V413.371C44.1328 424.032 47.7726 434.3 52.3776 443.971V443.971C53.1397 445.561 53.9356 447.141 54.7485 448.681C56.027 451.101 57.3818 453.481 58.7704 455.761L58.872 455.921C59.3377 456.671 59.8034 457.421 60.2776 458.161L60.4046 458.351C60.8788 459.091 61.3614 459.821 61.8525 460.541L61.988 460.741C62.4876 461.471 62.9956 462.191 63.5036 462.911L63.5883 463.031C64.1387 463.801 64.6975 464.551 65.2817 465.311L65.3834 465.451C65.9083 466.141 66.4418 466.831 66.9837 467.511L67.0599 467.601C72.4367 474.364 78.5465 480.258 85.2306 485.131L85.4338 485.271C86.0943 485.751 86.7547 486.221 87.4321 486.671L87.9909 487.041C89.3965 487.981 90.8444 488.881 92.3516 489.751L92.7919 490.001C93.3338 490.301 93.8757 490.611 94.3922 490.881L94.5615 490.971C95.5014 491.471 96.4921 491.971 97.5674 492.491L97.7452 492.581L99.2693 493.281L99.8366 493.531C101.318 494.181 102.826 494.791 104.316 495.331L105.442 495.731L106.941 496.231L107.626 496.451C108.431 496.701 109.244 496.941 110.031 497.151L110.802 497.371L112.267 497.741L112.808 497.861C113.52 498.031 114.239 498.191 114.959 498.331L115.493 498.441C116.238 498.591 116.991 498.721 117.745 498.851L118.99 499.051C119.701 499.151 120.421 499.251 121.149 499.331L121.902 499.421L123.359 499.561H123.833L124.637 499.631H124.739C125.264 499.631 125.806 499.691 126.339 499.721H127.186C128.388 499.721 129.464 499.801 130.488 499.801C134.781 499.801 139.006 499.611 143.138 499.271C125.823 522.021 97.7367 539.621 75.1969 549.161C72.7361 550.208 70.5105 551.906 68.6903 554.125C66.8701 556.344 65.5035 559.025 64.6947 561.962C63.8859 564.9 63.6564 568.018 64.0238 571.077C64.3911 574.135 65.3456 577.054 66.8143 579.611C55.8577 579.281 45.9933 578.551 37.814 577.441C37.2293 577.361 36.6413 577.321 36.0528 577.321C33.9774 577.325 31.9257 577.841 30.0284 578.834C28.1312 579.828 26.43 581.277 25.0335 583.09C23.6369 584.903 22.5756 587.04 21.9172 589.365C21.2589 591.689 21.0179 594.15 21.2097 596.591L20.5408 596.281C18.6634 595.385 16.6512 594.951 14.6269 595.004C12.6027 595.057 10.6088 595.596 8.76676 596.589C6.92476 597.581 5.27323 599.007 3.9129 600.778C2.55257 602.549 1.51193 604.629 0.854412 606.891C-0.185901 610.352 -0.296073 614.109 0.538944 617.647C1.37396 621.186 3.11345 624.334 5.51986 626.661C17.1454 637.851 38.3728 654.521 73.5034 670.451C115.747 689.591 167.109 702.711 226.168 709.451C243.522 711.857 260.98 713.079 278.453 713.111V713.111C359.968 713.211 432.786 685.771 494.851 631.661C544.808 588.141 574.358 538.611 587.559 512.961C588.885 510.414 589.537 507.458 589.43 504.471L590.395 504.361C592.529 504.081 594.629 503.721 596.746 503.291L597.195 503.201C598.583 502.911 599.972 502.581 601.31 502.201L601.631 502.111C602.571 501.871 603.503 501.601 604.417 501.331L605.357 501.031C606.204 500.771 607 500.511 607.813 500.221L608.465 499.991C609.396 499.661 610.319 499.311 611.233 498.991L611.411 498.921H611.496C612.571 498.491 613.638 498.041 614.671 497.581L615.382 497.261C617.567 496.261 619.743 495.151 621.86 493.961L622.198 493.761C623.045 493.271 623.892 492.761 624.679 492.291L624.857 492.181C625.873 491.561 626.915 490.881 627.965 490.181L628.481 489.831C629.218 489.321 629.938 488.831 630.657 488.291L631.284 487.831C632.131 487.171 633.062 486.491 633.926 485.831L634.061 485.731C635.111 484.881 636.152 484.001 637.245 483.051L637.677 482.671C638.608 481.851 639.522 481.001 640.445 480.121L640.801 479.781C641.851 478.781 642.859 477.781 643.798 476.781L643.883 476.701C644.73 475.801 645.627 474.831 646.601 473.701L647.033 473.211C648.862 471.121 650.648 468.921 652.342 466.661L652.714 466.171C653.493 465.171 654.247 464.071 655.009 462.981L655.221 462.681C656.067 461.481 656.863 460.261 657.651 459.051L657.778 458.841C658.498 457.721 659.192 456.581 659.869 455.461L660.25 454.831C661.69 452.391 663.095 449.831 664.425 447.261L664.755 446.611C665.348 445.451 665.932 444.271 666.516 443.031L666.685 442.691C667.303 441.391 667.922 440.031 668.531 438.691L668.734 438.221C669.251 437.041 669.751 435.841 670.25 434.631L670.546 433.901C671.63 431.231 672.672 428.461 673.637 425.671L673.942 424.801C674.374 423.551 674.789 422.281 675.22 420.951L675.33 420.591C675.788 419.181 676.22 417.751 676.634 416.341L676.863 415.551C677.21 414.351 677.549 413.131 677.879 411.901L678.108 411.041C678.489 409.601 678.861 408.151 679.217 406.691L679.285 406.411C679.606 405.071 679.911 403.721 680.216 402.361L680.445 401.361C680.733 400.051 681.004 398.721 681.291 397.361L681.359 397.021C681.647 395.551 681.918 394.081 682.206 392.601L682.375 391.601C682.587 390.401 682.782 389.201 682.968 387.991L683.129 386.991C683.349 385.517 683.561 384.037 683.764 382.551L683.849 381.871C684.018 380.611 684.17 379.331 684.314 378.061L684.45 376.881C684.611 375.501 684.754 374.111 684.882 372.731V372.401C685.017 370.911 685.144 369.401 685.254 367.941L685.339 366.751C685.423 365.551 685.508 364.351 685.576 363.141L685.635 362.141C685.72 360.661 685.788 359.141 685.838 357.681V356.761C685.838 355.541 685.915 354.321 685.94 353.121V351.861C685.94 350.371 685.94 348.861 685.94 347.381C685.957 344.631 685.957 342.061 685.779 339.541ZM461.109 539.111L462.921 538.651C462.354 539.241 461.795 539.831 461.227 540.411C461.209 539.975 461.169 539.541 461.109 539.111V539.111Z" fill="#231F20"/>
<path d="M561.115 237.021C548.346 237.021 537.288 240.201 527.931 246.201C537.889 229.441 545.035 207.471 545.035 188.331C545.035 71.7007 489.702 14.9707 375.885 14.9707C198.843 14.9707 180.749 231.451 179.047 263.571C169.335 257.921 156.642 254.081 139.987 254.081C77.4227 254.081 48.9219 313.911 48.9219 369.501C48.9219 425.501 77.5158 484.931 130.504 484.931C173.611 484.931 209.08 464.811 219.927 457.931C220.011 467.041 221.747 487.561 234.465 504.041C246.183 519.221 264.1 526.911 287.809 526.911C340.687 526.911 357.037 495.771 362.024 478.801C367.104 495.801 383.505 526.911 435.588 526.911C461.049 526.911 479.143 519.411 489.363 504.621C497.475 492.881 498.474 479.621 498.245 472.101C506.712 478.321 529.125 490.171 577.837 490.171C643.814 490.171 673.348 418.351 673.348 347.171C673.255 275.301 608.142 237.021 561.115 237.021Z" fill="#476FB6"/>
<path d="M561.115 237.021C548.346 237.021 537.288 240.201 527.931 246.201C537.889 229.441 545.035 207.471 545.035 188.331C545.035 71.7007 489.702 14.9707 375.885 14.9707C198.843 14.9707 180.749 231.451 179.047 263.571C169.335 257.921 156.642 254.081 139.987 254.081C77.4227 254.081 48.9219 313.911 48.9219 369.501C48.9219 425.501 77.5158 484.931 130.504 484.931C173.611 484.931 209.08 464.811 219.927 457.931C220.011 467.041 221.747 487.561 234.465 504.041C246.183 519.221 264.1 526.911 287.809 526.911C340.687 526.911 357.037 495.771 362.024 478.801C367.104 495.801 383.505 526.911 435.588 526.911C461.049 526.911 479.143 519.411 489.363 504.621C497.475 492.881 498.474 479.621 498.245 472.101C506.712 478.321 529.125 490.171 577.837 490.171C643.814 490.171 673.348 418.351 673.348 347.171C673.255 275.301 608.142 237.021 561.115 237.021Z" fill="#71C8B7"/>
<path d="M443.94 76.3193C517.766 101.859 502.516 184.719 491.915 205.069C481.314 225.419 430.477 256.019 417.691 216.019C404.44 174.539 455.294 156.019 455.294 156.019C455.294 156.019 386.125 118.549 386.125 209.409C386.125 300.269 488.672 276.099 501.839 272.739C511.212 270.349 521.508 259.549 529.781 245.069C529.163 245.429 528.545 245.809 527.943 246.199C537.901 229.439 545.047 207.469 545.047 188.329C545.047 106.409 517.749 54.0593 462.068 30.1593L461.526 29.9293L459.045 28.9293C437.03 20.1593 409.58 15.0693 375.448 15.0293C198.83 15.3993 180.761 231.509 179.059 263.599C224.917 117.679 347.515 42.9693 443.94 76.3193Z" fill="#B7E1D9"/>
<path d="M489.332 504.63C497.418 492.9 498.417 479.63 498.189 472.15L499.289 472.93C499.577 473.13 499.874 473.34 500.187 473.54L501.144 474.15L502.168 474.78H502.219L503.32 475.43H503.362C505.25 476.51 507.477 477.64 510.051 478.79L510.424 478.95L511.457 479.39L512.16 479.7L513.142 480.09L513.988 480.43L514.962 480.8L515.944 481.17L516.927 481.52L517.993 481.89L519.018 482.23L520.161 482.61L521.211 482.93L522.439 483.31L523.531 483.62L524.827 483.99L525.97 484.29L527.333 484.65L528.518 484.94L529.958 485.29L531.194 485.57L532.693 485.9L533.988 486.17L535.555 486.48L536.909 486.74L538.544 487.03L539.949 487.28L541.643 487.55L543.116 487.77L544.885 488.03L546.418 488.23L548.255 488.46L549.847 488.65L551.761 488.85L553.404 489.02L555.41 489.2L557.104 489.34C557.781 489.4 558.484 489.44 559.187 489.49C559.889 489.54 560.338 489.58 560.931 489.61C561.524 489.64 562.387 489.69 563.115 489.73L564.911 489.83L567.239 489.92L569.017 489.99L571.6 490.05H573.293C574.479 490.05 575.681 490.05 576.892 490.05H577.679C578.822 490.05 579.94 490.05 581.066 489.98L582.091 489.92C582.861 489.92 583.632 489.84 584.385 489.78L585.571 489.68C586.273 489.62 586.985 489.55 587.679 489.46L588.847 489.32L590.981 489.01L592.023 488.84C592.869 488.69 593.716 488.53 594.563 488.36L595.147 488.25C596.189 488.02 597.222 487.78 598.238 487.52L598.678 487.4C599.53 487.173 600.377 486.933 601.218 486.68L602.065 486.41C602.768 486.19 603.47 485.96 604.165 485.72L605.062 485.4L607.103 484.63L607.95 484.3L610.168 483.3L610.718 483.05C612.592 482.19 614.421 481.26 616.205 480.26L616.578 480.05C617.331 479.62 618.068 479.18 618.805 478.73L619.406 478.36L621.379 477.08L621.988 476.66C622.657 476.21 623.318 475.74 623.97 475.26L624.452 474.91C625.299 474.32 626.044 473.71 626.823 473.08C658.618 447.83 673.258 397.35 673.258 347.19C673.258 275.3 608.11 237.02 561.083 237.02C548.315 237.02 537.256 240.2 527.9 246.2C529.153 244.08 478.722 283.42 497.655 339C516.19 393.44 589.101 384.34 569.915 325.67C569.915 325.67 549.703 374.67 523.082 344.74C504.81 324.18 530.991 266.62 567.239 259.37C593.775 254.06 635.527 287.84 636.019 335.1C635.527 385.1 593.149 432.2 489.154 398.22C489.154 398.22 441.373 495.22 367.776 408.71C367.776 408.71 293.594 495.27 234.705 399.53C234.705 399.53 105.012 464.01 84.233 380.12C75.1815 351.42 79.9146 316.9 104.605 295.7C156.095 251.49 181.86 303.48 177.17 322.16C172.479 340.84 154.537 350.49 137.484 345.67C137.484 345.67 139.236 376.02 179.21 367C210.945 359.84 213.392 336.27 206.356 307C199.413 278.14 179.083 262.29 179.015 263.57C169.303 257.92 156.611 254.08 139.956 254.08C77.3914 254.08 48.8906 313.91 48.8906 369.5C48.8906 396.07 55.3427 423.43 67.7895 444.85L69.0766 447.01V447.07C69.5084 447.77 69.9233 448.46 70.3805 449.15L70.4398 449.24C70.8716 449.91 71.2865 450.58 71.7692 451.24C71.7945 451.274 71.8171 451.311 71.8369 451.35L73.2001 453.35L73.2763 453.45C73.742 454.1 74.2077 454.73 74.6819 455.36L74.7581 455.46C75.2323 456.09 75.7234 456.71 76.2145 457.33C76.232 457.355 76.2519 457.379 76.2737 457.4C76.7733 458.03 77.2898 458.66 77.8063 459.27C82.028 464.283 86.7343 468.694 91.8281 472.41L91.9805 472.52L93.6739 473.73L94.055 473.98C94.563 474.32 95.0795 474.66 95.6045 474.98L96.121 475.29L97.5773 476.17L98.1954 476.52L99.5841 477.29L100.278 477.65C100.727 477.89 101.176 478.12 101.633 478.34L102.395 478.71L103.725 479.32L104.529 479.68L105.85 480.23L106.697 480.57L108.009 481.06L108.907 481.38L110.21 481.82L111.142 482.11L112.454 482.5L113.42 482.76L114.749 483.1L115.731 483.33L117.077 483.61L118.077 483.81L119.448 484.05L120.456 484.21L121.887 484.4L122.877 484.53L124.393 484.67L125.333 484.75L127.026 484.85H127.831C128.678 484.85 129.524 484.9 130.371 484.9C173.478 484.9 208.947 464.78 219.794 457.9C219.794 459.61 219.887 461.72 220.082 464.13C220.141 464.93 220.217 465.77 220.31 466.63C221.313 476.443 224.026 485.905 228.278 494.42C228.837 495.51 229.429 496.59 230.064 497.67C231.355 499.891 232.77 502.009 234.298 504.01C246.017 519.19 263.933 526.88 287.642 526.88C340.52 526.88 356.87 495.74 361.857 478.77C363.304 483.585 365.234 488.177 367.607 492.45L368.165 493.45C368.555 494.11 368.953 494.78 369.368 495.45C370.676 497.547 372.09 499.551 373.601 501.45C374.135 502.12 374.685 502.78 375.295 503.45C379.448 508.186 384.156 512.194 389.274 515.35C390.121 515.9 391.044 516.43 391.967 516.95C393.821 517.95 395.769 518.95 397.835 519.86C407.648 524.17 419.968 526.91 435.429 526.91C461.017 526.97 479.112 519.42 489.332 504.63Z" fill="#51A898"/>
<path d="M576.729 505.17C549.972 557.12 445.893 724.65 227.531 694.64C93.8582 679.46 33.9778 634.81 13.5633 615.17C11.5142 613.17 13.3854 609.17 15.8409 610.34C89.4383 645.26 383.413 709.6 512.869 495.73C526.95 500.79 547.5 505.08 576.729 505.17Z" fill="#B7E1D9"/>
<path d="M576.732 505.17C566.419 505.17 557.198 504.58 548.942 503.65C369.792 799.53 55.9194 636.74 12.7449 612.43C12.6512 612.935 12.681 613.461 12.831 613.946C12.9809 614.431 13.2448 614.856 13.5916 615.17C33.9977 634.81 93.8866 679.46 227.559 694.64C445.896 724.65 549.975 557.12 576.732 505.17Z" fill="#71C8B7"/>
<path d="M448.551 541.27C393.345 587.27 243.813 683.68 35.4423 597.71C34.9107 597.502 34.4629 597.069 34.1844 596.495C33.9058 595.921 33.8162 595.246 33.9324 594.599C34.0487 593.952 34.3628 593.378 34.8148 592.987C35.2667 592.597 35.8247 592.416 36.3822 592.48C89.184 599.59 228.216 594.23 319.502 537.79C331.356 534.38 341.728 528.87 350.399 521.28C354.696 517.537 358.609 513.215 362.058 508.4C374.022 525.07 395.927 541.93 435.545 541.93C440.073 541.957 444.408 541.737 448.551 541.27Z" fill="#B7E1D9"/>
<path d="M435.554 541.971C414.564 541.971 398.552 537.231 386.351 530.301C216.777 647.551 58.9307 602.871 33.9015 594.651C33.7947 595.295 33.8928 595.964 34.1771 596.528C34.4614 597.093 34.9119 597.514 35.4425 597.711C243.813 683.711 393.345 587.291 448.551 541.271C444.414 541.737 440.081 541.971 435.554 541.971Z" fill="#71C8B7"/>
<path d="M277.736 541.48C237 559.64 162.894 584.58 80.4911 573.54C79.4998 573.4 78.5775 572.868 77.8734 572.033C77.1692 571.197 76.7244 570.105 76.6108 568.933C76.4973 567.762 76.7215 566.579 77.2474 565.577C77.7733 564.575 78.5701 563.811 79.5089 563.41C97.8913 555.63 140.194 533.64 160.795 496.98C177.596 493.705 194.009 488.093 209.693 480.26C212.388 492.871 217.659 504.511 225.044 514.16C237.516 530.26 255.196 539.43 277.736 541.48Z" fill="#B7E1D9"/>
<path d="M76.7305 569.74C76.9405 570.759 77.4165 571.674 78.0912 572.356C78.7658 573.038 79.605 573.452 80.4899 573.54C162.893 584.54 236.999 559.64 277.777 541.48C255.237 539.48 237.557 530.26 225.128 514.16C217.742 504.511 212.472 492.871 209.776 480.26C174.028 553.86 100.947 567.29 76.7305 569.74Z" fill="#71C8B7"/>
<path d="M288.997 130.681C306.509 115.299 315.662 94.8212 309.442 84.9433C303.221 75.0654 283.982 79.5275 266.47 94.9097C248.958 110.292 239.805 130.769 246.025 140.647C252.246 150.525 271.485 146.063 288.997 130.681Z" fill="white"/>
<path d="M315.176 72.3593C321.625 72.3593 326.853 66.1853 326.853 58.5693C326.853 50.9533 321.625 44.7793 315.176 44.7793C308.728 44.7793 303.5 50.9533 303.5 58.5693C303.5 66.1853 308.728 72.3593 315.176 72.3593Z" fill="white"/>
<path d="M605.891 469.37C625.76 462.973 639.614 448.024 636.834 435.982C634.055 423.94 615.694 419.364 595.824 425.762C575.955 432.159 562.101 447.108 564.881 459.15C567.661 471.192 586.022 475.768 605.891 469.37Z" fill="white"/>
<path d="M97.7635 424.809C104.809 421.135 105.547 404.85 99.4109 388.435C93.2748 372.02 82.5887 361.69 75.5428 365.364C68.497 369.038 67.7594 385.323 73.8955 401.738C80.0316 418.153 90.7177 428.482 97.7635 424.809Z" fill="white"/>
<path d="M99.5321 458.659C104.728 458.659 108.939 453.685 108.939 447.549C108.939 441.414 104.728 436.439 99.5321 436.439C94.3367 436.439 90.125 441.414 90.125 447.549C90.125 453.685 94.3367 458.659 99.5321 458.659Z" fill="white"/>
<path d="M634.918 415.02C639.575 415.02 643.351 410.56 643.351 405.06C643.351 399.559 639.575 395.1 634.918 395.1C630.26 395.1 626.484 399.559 626.484 405.06C626.484 410.56 630.26 415.02 634.918 415.02Z" fill="white"/>
<path d="M530.539 560.556C540.73 548.52 545.019 534.071 540.118 528.284C535.218 522.496 522.984 527.562 512.793 539.598C502.601 551.634 498.312 566.082 503.213 571.87C508.113 577.657 520.348 572.592 530.539 560.556Z" fill="white"/>
<path d="M195.252 623.303C207.757 622.638 217.704 617.089 217.469 610.909C217.233 604.73 206.904 600.26 194.398 600.926C181.892 601.591 171.945 607.14 172.181 613.319C172.417 619.499 182.746 623.969 195.252 623.303Z" fill="white"/>
<path d="M211.828 556.327C219.809 552.56 224.735 544.942 222.83 539.311C220.925 533.679 212.91 532.168 204.928 535.934C196.947 539.701 192.021 547.319 193.926 552.95C195.831 558.581 203.846 560.093 211.828 556.327Z" fill="white"/>
</g>
<defs>
<clipPath id="clip0_6314_362">
<rect width="686" height="713.21" fill="white"/>
</clipPath>
</defs>
</svg>
