<svg width="313" height="323" viewBox="0 0 313 323" fill="none" xmlns="http://www.w3.org/2000/svg">
<path d="M14.5363 85.5614L30.7143 -26L324.286 -12.7228L345 323H311.807C249.848 323 192.754 289.424 162.638 235.277C150.251 213.006 127.717 198.238 102.353 195.768L100.813 195.618C45.9177 190.273 6.62093 140.145 14.5363 85.5614Z" fill="#3E9581"/>
<path d="M69.1471 48.8522L85.1532 -76L344.687 -62.7228L363 273H342.994C282.952 273 228.131 238.866 201.638 184.985C190.836 163.016 169.53 148.086 145.196 145.406C97.3258 140.134 63.0231 96.621 69.1471 48.8522Z" fill="#47BDA2"/>
<path d="M101.226 -4.47585L117.242 -129L377.627 -115.723L396 220H375.66C315.572 220 260.697 185.881 234.113 131.994C223.271 110.016 201.921 95.0887 177.562 92.4147C129.517 87.1406 95.06 43.4621 101.226 -4.47585Z" fill="#1E6F5D"/>
</svg>
