<svg width="176" height="222" viewBox="0 0 176 222" fill="none" xmlns="http://www.w3.org/2000/svg">
<g clip-path="url(#clip0_2849_464)">
<path d="M73.64 76.3902C73.5445 75.8242 73.5445 75.2462 73.64 74.6802C77.42 65.0902 77.16 55.2702 74.64 45.5502C72.35 36.6802 67.99 29.0402 59.19 24.9202C57.6809 24.1738 56.0993 23.5841 54.47 23.1602C54.0955 23.1779 53.7317 23.2909 53.4131 23.4887C53.0946 23.6865 52.8319 23.9624 52.65 24.2902C52.423 25.3342 52.3622 26.4074 52.47 27.4702C52.47 54.8402 52.21 82.2202 52.59 109.58C52.74 120.2 45.59 127.15 37.88 130.19C31.4977 132.664 24.4951 133.049 17.88 131.29C10.13 129.37 3.62999 125.02 0.879991 116.94C-0.0082649 114.462 -0.290209 111.807 0.0577406 109.197C0.40569 106.588 1.37342 104.099 2.87999 101.94C9.40999 92.1702 23.71 88.4402 34.88 91.9402C36.57 92.4702 38.21 93.1502 39.88 93.7902C41.55 94.4302 42.52 94.1502 42.44 92.1502C42.44 91.5202 42.44 90.9002 42.44 90.2702C42.44 61.7402 42.44 33.2102 42.38 4.68018C42.38 2.11018 43.26 1.42018 45.66 0.680184C50.66 -0.919816 53.4 0.440187 56.26 4.87019C59.99 10.6602 64.94 15.6502 69.26 21.0702C74.56 27.7202 78.39 35.2702 79.5 43.6202C80.84 53.6702 81.41 63.9102 76.5 73.4502C76.3438 73.7703 76.1633 74.0778 75.96 74.3702C75.38 75.1302 74.78 75.8802 74.19 76.6302L73.64 76.3902Z" fill="white"/>
<path d="M165.88 169.8C165.98 168.47 166.09 167.65 166.09 166.8C166.09 151.18 166.09 135.56 166.09 119.94C166.09 116.74 165.73 116.35 162.52 116.94C155.34 118.13 148.19 119.48 141.01 120.7C130.25 122.54 119.49 124.46 108.7 126.07C102.12 127.07 101.75 127.19 101.75 133.78C101.75 155.42 101.45 177.08 101.88 198.71C102.11 210.21 95.53 216.53 87.53 219.27C77.95 222.57 68.62 222.11 60.18 216.17C47.35 207.17 49.74 191.67 63.18 184.88C67.2712 182.692 71.83 181.522 76.4694 181.472C81.1089 181.421 85.6921 182.491 89.83 184.59C91.49 185.39 92.1999 184.78 92.1899 183.02C92.1899 179.29 92.1899 175.55 92.1899 171.82C92.1899 149.07 92.1899 126.32 92.1299 103.57C92.1299 101.67 92.7 100.73 94.55 100.43C99.4766 99.6167 104.4 98.7767 109.32 97.91C117.16 96.53 124.98 95.11 132.81 93.72C135.977 93.16 139.147 92.6233 142.32 92.11C150.1 90.88 157.89 89.68 165.66 88.44C168.17 88.03 170.66 87.51 173.15 87.05C174.95 86.72 175.66 87.58 175.57 89.31C175.57 89.99 175.57 90.67 175.57 91.31C175.57 122.12 175.44 152.94 175.66 183.75C175.72 193.09 171.44 199.39 163.43 203.03C153.18 207.68 142.94 207.03 133.49 200.58C122.59 193.08 123.14 177.91 134.41 170.86C140.481 167.01 147.713 165.417 154.84 166.36C157.39 166.66 159.84 167.85 162.32 168.63L165.88 169.8Z" fill="white"/>
</g>
<defs>
<clipPath id="clip0_2849_464">
<rect width="175.65" height="221.29" fill="white"/>
</clipPath>
</defs>
</svg>
