<svg width="579" height="986" viewBox="0 0 579 986" fill="none" xmlns="http://www.w3.org/2000/svg">
<g clip-path="url(#clip0_5470_18707)">
<path d="M289.37 985.04C419.317 985.04 524.66 972.007 524.66 955.93C524.66 939.853 419.317 926.82 289.37 926.82C159.423 926.82 54.0801 939.853 54.0801 955.93C54.0801 972.007 159.423 985.04 289.37 985.04Z" fill="#D0D2D3"/>
<path d="M0.000488281 829.11C0.000488281 829.56 0.000488281 830.05 0.000488281 830.55V831C0.0941489 833.111 0.33808 835.213 0.730469 837.29C0.732137 837.32 0.732137 837.35 0.730469 837.38C1.20736 839.881 1.876 842.342 2.73047 844.74V844.82C3.33322 846.522 4.02398 848.19 4.80029 849.82C6.41057 853.175 8.35727 856.358 10.6104 859.32L10.7505 859.51C11.2805 860.2 11.8306 860.89 12.4106 861.57L12.7402 861.96C13.3002 862.627 13.8903 863.293 14.5103 863.96L14.7202 864.19C15.4302 864.93 16.0903 865.6 16.7803 866.26L17.0205 866.49C17.7805 867.23 18.5405 867.91 19.3105 868.58L19.4307 868.68C20.6607 869.74 22.0007 870.81 23.4307 871.85L23.7505 872.09C24.3905 872.55 25.0106 872.99 25.6606 873.43L25.9106 873.6C29.7472 876.16 33.7948 878.388 38.0103 880.26L38.2905 880.38C39.1439 880.76 40.0137 881.13 40.9004 881.49L41.0103 881.54C42.1103 881.99 43.2607 882.43 44.4307 882.85C45.4307 883.21 46.4307 883.55 47.4307 883.85C48.4307 884.15 49.4305 884.51 50.5405 884.85L50.7803 884.92C51.7803 885.23 52.8706 885.51 54.1206 885.83L55.5303 886.17L57.0703 886.51C58.4603 886.81 59.8605 887.08 61.2104 887.3H61.3604C62.4404 887.47 63.5404 887.62 64.6304 887.75H64.7505C65.8605 887.88 66.9806 887.98 68.0806 888.06H68.2905C69.8005 888.17 71.4205 888.22 73.0005 888.22C82.6879 888.31 92.2522 886.045 100.871 881.62H100.94C101.74 881.2 102.521 880.77 103.291 880.32L103.431 880.24C104.121 879.84 104.86 879.39 105.57 878.92L105.72 878.82C106.41 878.38 107.09 877.92 107.72 877.45L107.911 877.32C111.841 874.481 115.407 871.169 118.53 867.46L118.771 867.18C119.141 866.74 119.51 866.27 119.88 865.8L120.291 865.28C120.591 864.88 120.9 864.46 121.2 864.04L121.69 863.37C121.97 862.95 122.24 862.57 122.49 862.18C122.74 861.79 122.83 861.67 123.01 861.4L123.69 860.31C123.89 859.99 124.06 859.7 124.23 859.41C124.4 859.12 124.65 858.7 124.84 858.35C125.03 858 125.181 857.75 125.351 857.41C125.351 857.41 125.711 856.75 125.851 856.47L126.34 855.47L126.46 855.21C126.58 854.97 126.701 854.73 126.811 854.48C126.921 854.23 127.151 853.72 127.311 853.35L127.36 853.23C127.47 852.99 127.57 852.75 127.67 852.52C127.84 852.1 128.011 851.66 128.181 851.22C128.274 851 128.354 850.79 128.42 850.59C128.66 849.94 128.88 849.28 129.09 848.64C130.973 842.242 132.19 835.668 132.72 829.02C132.79 828.27 132.871 827.52 132.931 826.76C133.071 825.25 133.19 823.76 133.3 822.18C133.36 821.42 133.41 820.65 133.46 819.87C133.68 816.57 133.871 813.18 134.061 809.75C134.651 798.97 135.271 787.81 137.061 778.66C137.975 774.628 139.674 770.815 142.061 767.44C148.156 770.305 154.402 772.839 160.771 775.03C163.021 776.66 165.31 778.21 167.63 779.66C169.52 791.83 174.42 808.37 186.09 827.66C186.915 829.029 187.925 830.277 189.09 831.37C189.397 831.657 189.707 831.927 190.021 832.18C191.153 833.09 192.396 833.853 193.72 834.45C194.131 834.638 194.552 834.805 194.98 834.95H195.081C196.816 835.57 198.639 835.907 200.48 835.95H200.8C201.405 835.952 202.009 835.919 202.61 835.85C203.348 835.776 204.079 835.653 204.8 835.48H204.9C205.187 835.407 205.477 835.327 205.771 835.24C208.829 834.349 211.576 832.617 213.697 830.24C215.819 827.864 217.23 824.94 217.771 821.8C218.831 815.87 220.771 806.01 223.271 796.2H225.271C230.088 796.193 234.902 795.926 239.69 795.4C242.797 795.847 245.907 796.227 249.021 796.54C249.201 802.16 248.531 806.82 247.021 810.45C243.431 819.06 237.77 828.69 232.3 837.99C230.96 840.27 229.63 842.53 228.3 844.76C227.52 846.11 226.75 847.45 226.01 848.76C220.1 859.23 216.771 866.51 214.871 873.13C214.691 873.78 214.511 874.45 214.351 875.13C214.301 875.31 214.25 875.55 214.2 875.78C214.1 876.22 214.001 876.68 213.911 877.16C213.861 877.41 213.75 878.01 213.75 878.01C213.67 878.45 213.601 878.85 213.541 879.26C213.481 879.67 213.451 879.83 213.411 880.13V880.24C213.351 880.64 213.3 881.02 213.26 881.41C213.22 881.8 213.18 882.11 213.15 882.48C213.12 882.85 213.08 883.2 213.05 883.58C213.02 883.96 213 884.36 212.98 884.75C212.96 885.14 212.98 885.44 212.98 885.8C212.98 886.16 212.98 886.64 212.98 887.07C212.98 887.5 212.98 887.74 212.98 888.07C212.98 888.4 212.98 888.98 212.98 889.45C212.98 889.71 212.98 890.33 212.98 890.33C212.98 890.82 213.031 891.33 213.061 891.86L213.11 892.56C213.16 893.12 213.211 893.71 213.271 894.3C213.271 894.4 213.27 894.56 213.32 894.68C213.867 899.507 215.013 904.246 216.73 908.79C217.05 909.63 217.36 910.41 217.73 911.19C217.733 911.22 217.733 911.25 217.73 911.28C218.1 912.13 218.461 912.92 218.851 913.7V913.79C219.231 914.57 219.64 915.35 220.07 916.13V916.19C225.622 926.079 233.827 934.218 243.76 939.69L243.851 939.74C244.851 940.29 245.85 940.82 246.8 941.33L246.96 941.41C247.9 941.88 248.96 942.41 249.96 942.84H250.041C251.261 943.39 252.58 943.94 253.94 944.48L255.36 945.02L256.811 945.55C258.001 945.97 259.07 946.32 260.11 946.65C261.15 946.98 262.36 947.32 263.47 947.65C264.58 947.98 265.47 948.18 266.47 948.43H266.59C267.78 948.72 268.951 948.98 270.081 949.21H270.19C271.19 949.41 272.11 949.58 273.05 949.74H273.181C277.611 950.501 282.096 950.892 286.59 950.91H287.311C288.101 950.91 288.87 950.91 289.63 950.85H290.05C291.8 950.76 293.5 950.62 295.05 950.42H295.13C296.13 950.29 297.21 950.13 298.26 949.94L298.67 949.87C299.58 949.7 300.501 949.51 301.411 949.31L301.811 949.21C302.711 949 303.581 948.77 304.431 948.53L304.82 948.42C305.65 948.17 306.481 947.91 307.291 947.63L307.61 947.52C311.125 946.301 314.506 944.726 317.7 942.82C319.266 941.902 320.782 940.901 322.24 939.82C324.279 938.303 326.198 936.631 327.98 934.82L328.07 934.72C329.541 933.22 330.901 931.616 332.141 929.92L332.411 929.53C332.691 929.13 332.96 928.74 333.21 928.35L333.44 928.01C333.78 927.46 334.091 926.95 334.351 926.48L334.411 926.38C334.831 925.62 335.241 924.82 335.661 923.94L335.8 923.62C341.56 911.25 339.13 898.87 328.55 886.88C327.7 885.88 326.82 884.95 325.92 883.96C318.18 875.51 316.92 873.3 319.71 866.96C328.71 846.65 333.451 833.63 326.541 802.29C325.541 797.68 324.401 792.66 323.181 787.58C331.676 784.353 339.84 780.314 347.561 775.52C375.671 758.06 385.851 742.64 382.561 722.38C390.381 716.24 397.221 705.49 399.851 687C401.851 673.23 398.41 664.15 394.51 658.5C401.11 645.9 400.31 629.89 399.88 621.22C399.715 615.153 398.451 609.166 396.15 603.55C410.66 593.55 421.3 585.07 428.59 577.85C433.67 572.85 437.24 568.25 439.5 563.91C441.351 560.348 442.79 556.587 443.791 552.7C451.631 547.09 457.79 538.75 456.61 529.7C456.058 525.061 453.858 520.774 450.411 517.62C450.957 514.311 450.591 510.916 449.351 507.8C447.917 504.29 445.509 501.264 442.411 499.08C445.341 492.92 446.28 487.18 445.23 481.9C445.088 481.183 444.891 480.477 444.641 479.79C443.465 476.569 441.518 473.685 438.97 471.39C442.184 469.75 445.374 468 448.541 466.14C469.481 453.87 488.97 437.14 506.47 416.53C534.22 383.79 553.86 343.73 551.19 325.34C549.54 313.97 540.911 298.56 530.561 283.51C532.024 281.2 532.828 278.535 532.886 275.801C532.944 273.067 532.254 270.37 530.891 268C529.571 265.71 517.99 246.58 495.28 238.92L494.931 238.53C519.861 231.53 536.661 225.44 549.061 219.09C559.331 213.82 566.67 208.22 571.49 201.95C577.74 193.82 579.87 184.43 577.65 174.8C574.3 160.29 558.93 147.1 531.98 135.58C509.79 126.1 481.161 118.58 450.601 114.23C431.071 72.35 395.1 22.47 393.49 20.23C391.558 17.5577 388.8 15.5964 385.641 14.6499C366.281 9.15539 346.545 5.0879 326.59 2.47998C314.559 0.873897 302.438 0.0355241 290.3 -0.0300311C278.202 -0.164671 266.126 1.05957 254.3 3.61987C240.72 6.74987 225.69 12.85 209.65 21.72C173.23 41.86 143.071 69.8 141.811 70.98C140.818 71.9037 139.953 72.9563 139.24 74.1099C138.72 74.9699 138.24 75.8699 137.65 76.8799C137.52 77.1099 137.411 77.33 137.291 77.55L137.23 77.6699C136.87 78.3499 136.521 79.03 136.181 79.73L135.73 80.73C135.42 81.4 135.121 82.05 134.831 82.73L134.4 83.73C134.12 84.41 133.841 85.1001 133.561 85.8101L133.2 86.73C132.91 87.52 132.61 88.36 132.32 89.2L132.141 89.7C131.871 90.5 131.63 91.2801 131.38 92.0601C131.14 92.8601 130.901 93.67 130.661 94.49L130.57 94.8C130.45 95.2401 130.33 95.6699 130.21 96.1199L129.88 97.3699C129.71 98.0299 129.54 98.6999 129.38 99.3699L129.22 100.08C129.03 100.88 128.85 101.7 128.67 102.53L128.49 103.38C128.28 104.38 128.091 105.38 127.911 106.38L127.84 106.74C127.02 111.19 126.34 115.98 125.84 120.98C125.835 121.02 125.835 121.06 125.84 121.1C123.56 143.36 124.61 167.96 126.25 187.1C116.63 193.44 107.42 200.1 98.7803 206.82H98.7202C97.4535 207.82 96.1969 208.82 94.9502 209.82L94.8306 209.91C80.9966 220.855 68.2116 233.065 56.6406 246.38L56.5903 246.44C55.7803 247.39 54.9902 248.34 54.2202 249.28L54.0806 249.45C53.3106 250.4 52.6004 251.29 51.9204 252.16L51.7905 252.33C51.0805 253.24 50.4005 254.13 49.7905 255.01L49.5806 255.28C48.9506 256.13 48.3302 256.99 47.7202 257.84L47.5205 258.13C46.9005 259 46.3303 259.83 45.7803 260.65L45.5405 261.01C44.9905 261.85 44.4602 262.64 43.9702 263.43L43.6904 263.88C43.1904 264.67 42.6903 265.43 42.2803 266.18L42.0005 266.67C41.5205 267.48 41.1105 268.21 40.7104 268.93L40.3804 269.56C39.9804 270.29 39.6105 270.99 39.2705 271.67C39.1605 271.88 38.9106 272.4 38.9106 272.4C38.5806 273.08 38.2606 273.74 37.9106 274.4C37.8006 274.64 37.7006 274.88 37.6006 275.12L37.4902 275.37C37.2302 275.96 36.9702 276.55 36.7402 277.12C36.6302 277.41 36.5204 277.68 36.4204 277.96L36.3003 278.27C36.1003 278.8 35.8904 279.34 35.7104 279.85C35.6004 280.17 35.5106 280.47 35.4106 280.77L35.3003 281.13C35.1403 281.62 34.9803 282.13 34.8403 282.6C34.7003 283.07 34.6405 283.31 34.5605 283.6L34.4702 283.93C34.3502 284.41 34.2206 284.93 34.1206 285.36C34.0206 285.79 33.9504 286.15 33.8804 286.56L33.8306 286.83C33.7406 287.3 33.6506 287.77 33.5806 288.22C33.5106 288.67 33.4604 289.1 33.4204 289.56V289.78C33.3604 290.24 33.3103 290.7 33.2803 291.14C33.2503 291.58 33.2302 292.14 33.2202 292.63V292.76C33.2202 293.2 33.2202 293.63 33.2202 294.04C33.2202 294.73 33.2703 295.33 33.3203 295.93C33.3203 296.37 33.3704 296.79 33.4204 297.19C33.542 298.233 33.7224 299.268 33.9604 300.29C33.9604 300.48 34.0506 300.67 34.1006 300.86C39.8206 323.23 71.3007 323.23 81.6807 323.23C89.1307 323.23 97.5704 322.78 107.21 321.87C107.21 322.18 107.21 323.05 107.21 323.05V326.84V328.55C107.21 328.55 107.271 330.5 107.271 330.55C107.271 331.38 107.33 332.16 107.36 332.85V332.99C107.44 334.64 107.541 336.25 107.641 337.84C108.191 346.32 109.031 355.02 110.141 363.68C110.281 364.8 110.42 365.85 110.55 366.84C110.68 367.83 110.861 368.79 111.101 369.91C111.161 370.21 111.241 370.52 111.311 370.83C111.501 371.61 111.7 372.34 111.92 373.07C112.07 373.57 112.231 374.07 112.411 374.6C112.591 375.13 112.84 375.82 113.07 376.39C113.3 376.96 113.521 377.48 113.771 378.03L114.07 378.69C115.559 381.857 117.455 384.815 119.71 387.49C119.94 387.77 120.19 388.08 120.46 388.38L121.411 389.38C122.081 390.08 122.761 390.75 123.411 391.38L123.521 391.48C145.081 410.87 172.05 428.48 203.76 443.88C205.752 451.175 207.368 458.569 208.601 466.03C205.097 467.67 201.804 469.725 198.791 472.15C194.373 475.648 190.433 479.709 187.07 484.23C184.075 483.103 180.9 482.531 177.7 482.54C171.87 482.54 165.891 484.39 159.911 488.03C151.751 493.03 135.841 502.71 130.311 518.03C122.411 520.03 115.031 525.72 108.311 535.03C103.251 542.03 93.8906 555.08 92.6006 569.25C85.8606 572 78.3306 577.94 72.6006 590.25C64.7706 607.2 64.6004 619.94 67.9004 629.37C53.3104 645.61 57.1804 665.5 68.1704 692.28C72.1382 701.972 77.2191 711.171 83.3105 719.69C80.3105 722.5 77.5103 725.2 75.0503 727.58C51.9603 749.85 48.7102 763.32 44.9502 785.22C43.7802 792.06 41.5006 793.22 30.3706 795.95C29.0806 796.27 27.8005 796.59 26.5605 796.95C12.2505 800.79 3.56023 808.78 0.740234 820.72C0.520234 821.66 0.33043 822.6 0.19043 823.56C0.19043 823.56 0.140625 823.84 0.140625 823.87C-0.00937501 824.87 -0.109688 825.79 -0.179688 826.7C-0.179688 827.25 -0.249766 827.84 -0.259766 828.45L0.000488281 829.11Z" fill="#231F20"/>
<path d="M92.6904 636.8C81.6004 629.95 76.5302 618.31 86.4902 596.74C96.8402 574.31 112.49 584.52 112.49 584.52C104.08 575.08 106.49 563.76 120.72 543.95C134.95 524.14 144.601 535.76 144.601 535.76C140.831 523.25 147.46 513.42 167.94 500.93C186.24 489.77 192.251 510.15 193.331 514.63C192.691 511.17 191.5 497.54 208.42 483.92C228 468.15 259.02 480.05 259.02 480.05L279.78 491.93L303.661 493.22C303.661 493.22 336.171 500.06 344.061 523.93C350.881 544.56 342.481 555.36 340.061 557.93C343.391 554.75 359.501 540.93 368.811 560.2C379.241 581.8 379.47 593.67 369.51 602.12C369.51 602.12 383.911 597.59 385.121 621.96C386.331 646.33 382.21 657.14 370.02 660.5C370.02 660.5 388.7 660.43 385.22 684.88C381.87 708.41 371.3 715.42 358.27 715.16C361.05 715.46 366.671 717.01 367.931 724.52C369.631 734.58 367.931 745.34 339.851 762.78C274.441 803.41 198.15 768.61 198.15 768.61C198.15 768.61 112.481 760.36 82.3105 686.81C69.7605 656.22 72.6002 646.96 79.4902 639.42C84.6402 633.79 90.1904 635.54 92.6904 636.8Z" fill="#7D5A53"/>
<path d="M340.07 557.92C341.888 554.809 344.35 552.122 347.291 550.04C348.874 548.923 350.612 548.043 352.45 547.43C354.477 546.756 356.625 546.52 358.75 546.74C360.997 546.992 363.155 547.754 365.061 548.97C366.863 550.117 368.461 551.557 369.791 553.23C371.02 554.789 372.095 556.463 373 558.23C373.75 559.8 374.52 561.35 375.23 562.94C376.672 566.18 377.871 569.523 378.82 572.94C379.808 576.494 380.326 580.161 380.36 583.85C380.419 587.723 379.468 591.545 377.601 594.94C375.748 598.145 372.916 600.672 369.521 602.15C371.376 599.474 372.668 596.45 373.32 593.26C373.789 590.335 373.69 587.347 373.03 584.46C371.79 578.59 369.25 572.69 366.67 566.74C366.05 565.24 365.33 563.74 364.67 562.26C364.101 560.983 363.433 559.752 362.67 558.58C362 557.528 361.196 556.567 360.28 555.72C359.432 554.96 358.444 554.372 357.371 553.99C355.201 553.17 352.271 553.37 349.271 554.19C346.093 555.139 343.012 556.388 340.07 557.92Z" fill="#221E20"/>
<path d="M182.3 758.2C182.3 758.2 176.49 782.74 199.02 819.95C199.253 820.34 199.6 820.65 200.015 820.837C200.429 821.024 200.891 821.081 201.339 820.998C201.786 820.915 202.197 820.698 202.517 820.375C202.837 820.051 203.051 819.638 203.13 819.19C205.5 805.91 212.03 773.34 220.5 762.7L182.3 758.2Z" fill="#49BEA2"/>
<path opacity="0.49" d="M182.3 758.2L220.5 762.7C217.43 766.56 214.61 773.32 212.16 780.98C205.3 778.71 195.62 775.47 192.32 774.17C192.32 774.17 191.88 798.37 201.82 820.83C201.326 821.051 200.769 821.084 200.253 820.922C199.737 820.76 199.298 820.414 199.02 819.95C176.49 782.7 182.3 758.2 182.3 758.2Z" fill="#3D9480"/>
<path d="M359.177 682.462C380.56 609.998 343.53 535.214 276.469 515.426C209.408 495.638 137.711 538.34 116.329 610.804C94.9469 683.267 131.977 758.052 199.037 777.84C266.098 797.628 337.795 754.926 359.177 682.462Z" fill="#3C2415"/>
<path d="M352.099 680.373C372.234 612.137 337.362 541.714 274.211 523.079C211.059 504.445 143.543 544.655 123.408 612.892C103.273 681.129 138.145 751.551 201.296 770.186C264.448 788.82 331.964 748.61 352.099 680.373Z" fill="#F5E099"/>
<path d="M207.24 528.44C179.66 544.28 155.68 569.34 146.09 601.83C125.96 670.07 172.09 743.83 223.99 759.12C244.04 765.04 268.111 763.12 291.271 754.67C261.881 771.79 227.85 777.83 201.03 769.92C149.17 754.62 103.031 680.92 123.141 612.63C135.321 571.35 170.74 542.06 207.24 528.44Z" fill="#F0CC6D"/>
<path d="M288.021 618.193C289.013 614.829 271.967 606.835 249.947 600.338C227.927 593.84 209.272 591.3 208.28 594.663C207.287 598.027 224.333 606.021 246.353 612.519C268.373 619.016 287.028 621.557 288.021 618.193Z" fill="#F7A33F"/>
<path d="M259.742 714.031C260.735 710.667 243.689 702.673 221.669 696.176C199.649 689.678 180.994 687.138 180.001 690.501C179.009 693.865 196.055 701.859 218.075 708.357C240.095 714.854 258.75 717.395 259.742 714.031Z" fill="#F7A33F"/>
<path d="M288.174 673.964C289.167 670.6 265.276 660.586 234.813 651.597C204.349 642.608 178.849 638.048 177.857 641.412C176.864 644.776 200.755 654.789 231.218 663.778C261.682 672.767 287.182 677.328 288.174 673.964Z" fill="#F7A33F"/>
<path d="M155.2 732.06C153.02 735.6 126.711 753.61 122.411 775.83C118.111 798.05 120.141 827.59 114.891 844.12C110.261 858.72 91.2502 881.12 55.0502 870.49C18.8502 859.86 14.4302 836.07 15.0502 828.03C15.6702 819.99 19.2401 814.7 30.7201 811.62C42.2001 808.54 56.7204 806.97 60.0204 787.96C63.3204 768.95 65.2201 758.37 85.7401 738.58C106.26 718.79 127.171 699.71 137.911 701.11C148.651 702.51 163.07 720.69 155.2 732.06Z" fill="#49BEA2"/>
<path d="M15.6 824.36C15.3192 825.567 15.132 826.794 15.0399 828.03C14.8795 832.009 15.5154 835.98 16.91 839.71C21.83 837.41 28.5398 833.19 28.6698 827.15C28.7998 821.11 21.2 822.51 15.6 824.36Z" fill="#58595B"/>
<path d="M29.2798 857.2C33.6998 850.95 40.6698 839.63 36.5698 835.27C32.2898 830.72 22.9902 838.75 18.4102 843.27C21.0219 848.621 24.7242 853.366 29.2798 857.2Z" fill="#58595B"/>
<path d="M48.2397 848C43.1897 844.11 35.33 852.86 30.96 858.62C35.7369 862.317 41.0123 865.32 46.6299 867.54C49.7199 860.2 52.3297 851.14 48.2397 848Z" fill="#58595B"/>
<path d="M55.0498 870.49C57.8912 871.339 60.7839 872.007 63.71 872.49C64.8 867.68 65.0598 861.96 61.5498 858.59C56.5498 853.74 51.7801 863.28 49.6201 868.71C51.3501 869.32 53.1398 869.93 55.0498 870.49Z" fill="#58595B"/>
<path d="M101.26 771.49C101.26 771.49 97.4099 785.06 84.2599 783.18C71.1099 781.3 73.5802 768.56 77.7902 765.92C82.0002 763.28 86.9501 766.33 88.0201 770.41" stroke="#1F705F" stroke-width="2.93" stroke-miterlimit="10" stroke-linecap="round"/>
<path d="M430.75 484.86C430.75 484.86 427.64 476.17 417.68 485.86C407.72 495.55 399.75 504.321 399.75 504.321L413.08 512.321C413.08 512.321 432.71 494.69 430.75 484.86Z" fill="#58595B"/>
<path d="M422.5 517.11C422.5 517.11 399.04 495.75 373.57 514.49C348.1 533.23 315.85 566.03 311.42 578.04C306.99 590.05 312 606.15 316.66 610.68C321.32 615.21 328.92 629.08 354.92 612.68C380.92 596.28 418.59 571.99 426.42 556.95C434.25 541.91 430.36 524.86 422.5 517.11Z" fill="#49BEA2"/>
<path opacity="0.49" d="M316.66 610.68C312.56 606.68 308.2 593.74 310.23 582.51C336.17 620.21 418.23 567.19 418.23 567.19C403.69 581.61 375.6 599.69 354.89 612.71C328.94 629.08 321.32 615.2 316.66 610.68Z" fill="#3D9480"/>
<path d="M435.67 513.43C435.67 513.43 432.841 505.29 418.371 514.99C403.901 524.69 407.911 533.26 409.141 534.83C410.371 536.4 415.46 537.56 424.52 530.9C433.58 524.24 436.78 515.86 435.67 513.43Z" fill="#58595B"/>
<path d="M384.36 525.99C384.36 525.99 375.1 515.93 383.5 506.91C396.06 493.43 414.5 513.91 408.81 521.66C403.12 529.41 395.81 520.08 395.81 520.08C395.81 520.08 393.08 531.9 384.36 525.99Z" fill="#58595B"/>
<path d="M441.94 531.521C441.94 531.521 441.33 523.751 427.3 528.521C413.27 533.291 414.76 541.77 415.45 543.45C416.14 545.13 420.09 547.39 429 543.88C437.91 540.37 442.35 533.911 441.94 531.521Z" fill="#58595B"/>
<path d="M262.08 648.46C262.08 648.46 269.55 643.04 257.49 636.18C245.43 629.32 234.75 624.13 234.75 624.13L230.75 639.18C230.75 639.18 253.19 653.09 262.08 648.46Z" fill="#58595B"/>
<path d="M248.86 674.9C248.86 674.9 257.75 672.461 248.86 661.801C239.97 651.141 231.86 642.521 231.86 642.521L222.86 655.21C222.86 655.21 238.94 676.12 248.86 674.9Z" fill="#58595B"/>
<path d="M214.07 683.48C214.07 683.48 222.881 686.22 221.141 672.48C219.401 658.74 217.141 647.05 217.141 647.05L202.7 652.87C202.7 652.87 205.03 679.2 214.07 683.48Z" fill="#58595B"/>
<path d="M254.11 606.73C254.11 606.73 253.11 597.56 241.16 604.67C229.21 611.78 219.47 618.52 219.47 618.52L230.6 629.41C230.6 629.41 253.76 616.75 254.11 606.73Z" fill="#58595B"/>
<path d="M237.26 657.25C237.26 657.25 258.101 633.32 238.811 608.25C219.521 583.18 186.011 551.68 173.901 547.52C161.791 543.36 145.811 548.71 141.391 553.47C136.971 558.23 123.261 566.13 140.191 591.77C157.121 617.41 182.271 654.53 197.481 662.02C212.691 669.51 229.68 665.27 237.26 657.25Z" fill="#49BEA2"/>
<path opacity="0.49" d="M207.66 665.339C204.128 664.728 200.7 663.617 197.48 662.04C182.27 654.55 157.12 617.42 140.19 591.79C123.26 566.16 136.96 558.25 141.39 553.49C144.95 549.66 156.02 545.44 166.52 546.12C130.44 588.1 206.25 663.929 207.66 665.339Z" fill="#3D9480"/>
<path d="M162.49 319.69C162.49 319.69 248.731 448.14 220.041 525.89C220.041 525.89 257.66 590.891 308.36 557.801C308.36 557.801 341.36 517.12 301.86 445.92L162.49 319.69Z" fill="#49BEA2"/>
<path d="M312.2 467.83C273.42 446.36 219.03 400.15 179.75 345.78L178.811 346.78C185.641 358.98 193.72 374.53 201.24 391.78C221.86 425.78 258.89 474.19 321.03 519.39C322.02 505.64 320.19 488.34 312.2 467.83Z" fill="#3D9480"/>
<path d="M231.65 154.83C231.65 154.83 356.231 131.01 419.541 185.09C482.851 239.17 533.341 305.24 536.541 327.51C539.741 349.78 475.32 472.44 368.01 474.64C308.43 472.07 198.94 439.05 133.74 380.41C129.264 376.364 126.369 370.861 125.57 364.88C124.57 357.21 123.17 345.41 122.49 332.13C121.35 308.9 123.31 201.89 231.65 154.83Z" fill="#49BEA2"/>
<path d="M255.694 187.233C261.98 182.488 264.623 175.393 261.598 171.386C258.573 167.38 251.026 167.978 244.741 172.723C238.455 177.469 235.811 184.563 238.836 188.57C241.861 192.577 249.409 191.978 255.694 187.233Z" fill="#3D9480"/>
<path opacity="0.49" d="M387.641 165.72C396.468 169.443 404.853 174.139 412.641 179.72C413.451 180.31 414.261 180.91 415.061 181.52C416.571 182.69 418.06 183.87 419.53 185.12C438.004 200.949 455.578 217.798 472.17 235.59C398.56 258.17 299.91 288.39 212.04 296.34C212.04 296.34 165.28 391.69 296.23 462.34C291.14 460.98 285.98 459.49 280.77 457.91L280.351 457.78C275.351 456.247 270.317 454.62 265.25 452.9L264 452.47C259.24 450.83 254.44 449.1 249.65 447.29L247.48 446.47L243.22 444.81L240.65 443.81C238.457 442.93 236.27 442.037 234.09 441.13L230.95 439.8C229.75 439.29 228.551 438.8 227.351 438.25C225.831 437.59 224.35 436.91 222.8 436.25C221.25 435.59 220.02 435 218.63 434.36C217.24 433.72 215.94 433.11 214.63 432.47L211.63 431.04C209.69 430.107 207.757 429.16 205.831 428.2L203.391 426.96C201.791 426.14 200.201 425.317 198.621 424.49C197.791 424.05 196.96 423.62 196.13 423.17C194.024 422.05 191.927 420.91 189.84 419.75L188.391 418.93C186.617 417.93 184.854 416.93 183.101 415.93L181.01 414.7C178.89 413.44 176.79 412.18 174.7 410.88L173.79 410.3C171.91 409.127 170.05 407.937 168.21 406.73L166.411 405.55C164.331 404.17 162.26 402.78 160.23 401.36L159.73 401C157.81 399.67 155.931 398.31 154.061 396.94L152.47 395.76C150.47 394.27 148.47 392.76 146.55 391.24L146.331 391.06C144.451 389.58 142.6 388.06 140.78 386.55L139.331 385.33C137.461 383.75 135.611 382.16 133.811 380.54C132.374 379.245 131.095 377.785 130 376.19C127.687 372.859 126.193 369.028 125.641 365.01C125.131 361.23 124.54 356.43 123.99 350.95C123.7 348.05 123.42 344.95 123.17 341.72C122.94 338.72 122.731 335.52 122.561 332.26C121.961 320.39 122.19 286.62 137.02 250.16C138.27 247.09 139.62 243.99 141.09 240.89C141.64 239.74 142.2 238.58 142.78 237.43C143.927 235.11 145.147 232.797 146.44 230.49C147.58 228.43 148.78 226.374 150.04 224.32C151.607 221.754 153.274 219.19 155.04 216.63C155.5 215.96 155.97 215.3 156.44 214.63C170.36 195.02 189.861 176.44 217.161 161.95C218.701 161.13 220.26 160.32 221.86 159.53C225.04 157.95 228.32 156.423 231.7 154.95C253.683 151.229 275.956 149.486 298.25 149.74H298.32C300.68 149.74 303.07 149.79 305.49 149.89L309.49 150.04C314.33 150.25 319.27 150.57 324.25 151.04C326.917 151.28 329.607 151.563 332.32 151.89C341.517 152.967 350.642 154.58 359.65 156.72C362.244 157.34 364.817 158.007 367.371 158.72C373.383 160.412 379.298 162.432 385.09 164.77C385.94 164.99 386.781 165.35 387.641 165.72Z" fill="#3D9480"/>
<path d="M324.85 385.09C347.074 385.09 365.09 367.074 365.09 344.85C365.09 322.626 347.074 304.61 324.85 304.61C302.626 304.61 284.61 322.626 284.61 344.85C284.61 367.074 302.626 385.09 324.85 385.09Z" fill="#F7F7E2"/>
<path d="M364.94 340.96C365.873 346.248 365.672 351.675 364.35 356.88C362.992 362.176 360.558 367.135 357.2 371.45C353.804 375.809 349.558 379.432 344.72 382.1C339.852 384.771 334.492 386.425 328.965 386.959C323.438 387.494 317.86 386.899 312.57 385.21C307.31 383.523 302.448 380.784 298.28 377.16C294.157 373.573 290.817 369.175 288.47 364.24C286.17 359.387 284.93 354.1 284.83 348.73C286.615 358.994 292.136 368.235 300.33 374.67C308.356 380.892 318.456 383.812 328.564 382.83C338.672 381.848 348.021 377.04 354.7 369.39C361.504 361.502 365.152 351.376 364.94 340.96Z" fill="#231F20"/>
<path d="M364.94 340.96C363.148 330.696 357.624 321.458 349.431 315.02C341.407 308.794 331.307 305.872 321.198 306.852C311.09 307.832 301.739 312.639 295.061 320.29C288.255 328.181 284.61 338.312 284.831 348.73C283.892 343.442 284.093 338.015 285.42 332.811C286.778 327.515 289.212 322.555 292.57 318.24C295.962 313.885 300.205 310.265 305.041 307.6C309.906 304.919 315.268 303.259 320.798 302.72C326.327 302.182 331.909 302.778 337.2 304.47C342.459 306.16 347.32 308.898 351.49 312.52C355.611 316.113 358.95 320.514 361.3 325.45C363.601 330.303 364.842 335.591 364.94 340.96Z" fill="#231F20"/>
<path d="M339.86 374.93C354.44 374.93 366.26 363.11 366.26 348.53C366.26 333.95 354.44 322.13 339.86 322.13C325.28 322.13 313.46 333.95 313.46 348.53C313.46 363.11 325.28 374.93 339.86 374.93Z" fill="#080C0D"/>
<path d="M474.35 370.59C496.574 370.59 514.59 352.574 514.59 330.35C514.59 308.126 496.574 290.11 474.35 290.11C452.126 290.11 434.11 308.126 434.11 330.35C434.11 352.574 452.126 370.59 474.35 370.59Z" fill="#F7F7E2"/>
<path d="M514.41 326.47C515.343 331.758 515.142 337.185 513.82 342.39C512.462 347.686 510.028 352.645 506.67 356.96C503.274 361.316 499.028 364.936 494.19 367.6C489.324 370.276 483.963 371.932 478.436 372.469C472.909 373.005 467.33 372.41 462.04 370.72C456.78 369.033 451.918 366.294 447.75 362.67C443.629 359.077 440.29 354.676 437.94 349.74C435.638 344.887 434.397 339.6 434.3 334.23C436.08 344.496 441.603 353.738 449.8 360.17C457.823 366.396 467.924 369.318 478.032 368.338C488.141 367.359 497.492 362.551 504.17 354.9C510.975 347.011 514.622 336.885 514.41 326.47Z" fill="#231F20"/>
<path d="M514.41 326.47C512.618 316.205 507.094 306.966 498.9 300.53C490.877 294.304 480.776 291.381 470.668 292.361C460.56 293.341 451.208 298.149 444.53 305.8C437.725 313.688 434.081 323.815 434.3 334.23C433.362 328.942 433.563 323.514 434.89 318.31C436.251 313.018 438.684 308.062 442.04 303.75C445.429 299.389 449.672 295.764 454.51 293.1C459.378 290.423 464.74 288.767 470.269 288.23C475.798 287.694 481.378 288.289 486.67 289.98C491.925 291.654 496.786 294.375 500.96 297.98C505.081 301.573 508.419 305.974 510.77 310.91C513.078 315.778 514.319 321.083 514.41 326.47Z" fill="#231F20"/>
<path d="M489.36 360.43C503.94 360.43 515.76 348.61 515.76 334.03C515.76 319.45 503.94 307.63 489.36 307.63C474.78 307.63 462.96 319.45 462.96 334.03C462.96 348.61 474.78 360.43 489.36 360.43Z" fill="#080C0D"/>
<path d="M392.571 215.74C396.759 210.653 393.461 201.021 385.206 194.225C376.951 187.43 366.864 186.045 362.677 191.132C358.489 196.219 361.787 205.852 370.042 212.647C378.297 219.442 388.384 220.827 392.571 215.74Z" fill="#3D9480"/>
<path d="M431.06 250.306C434.839 247 433.698 239.515 428.513 233.588C423.327 227.66 416.06 225.535 412.282 228.84C408.503 232.146 409.644 239.63 414.83 245.558C420.015 251.485 427.282 253.611 431.06 250.306Z" fill="#3D9480"/>
<path d="M432.522 224.596C434.831 221.297 432.518 215.694 427.355 212.081C422.192 208.467 416.136 208.212 413.827 211.51C411.518 214.808 413.832 220.412 418.994 224.025C424.157 227.639 430.213 227.894 432.522 224.596Z" fill="#3D9480"/>
<path d="M257.59 389.05C257.59 389.05 275.07 414.15 306.59 406.79C338.11 399.43 382.4 412.35 403.77 422.1C403.77 422.1 421.77 406.37 438.06 408.25C454.35 410.13 473.26 408.13 483.24 398.8" stroke="#231F20" stroke-width="5.92" stroke-linecap="round" stroke-linejoin="round"/>
<path d="M403.8 422.1C443.21 384.95 419.63 319.17 419.63 319.17" stroke="#231F20" stroke-width="5.92" stroke-miterlimit="10" stroke-linecap="round"/>
<path d="M236.94 387.69C236.94 387.69 259.65 396.02 260.07 377.25" stroke="#231F20" stroke-width="5.92" stroke-miterlimit="10" stroke-linecap="round"/>
<path d="M495.55 397.61C495.55 397.61 480.55 406.72 476.48 388.39" stroke="#231F20" stroke-width="5.92" stroke-miterlimit="10" stroke-linecap="round"/>
<path d="M410.63 392.5C410.365 392.541 410.095 392.541 409.83 392.5H409.64H409.55L409.22 392.4L408.83 392.24L408.28 391.96C407.95 391.77 407.68 391.6 407.43 391.43C406.9 391.08 406.43 390.74 405.98 390.43C405.07 389.73 404.22 389.03 403.38 388.31C401.7 386.89 400.09 385.43 398.5 383.96C398.09 383.57 397.842 383.039 397.808 382.473C397.773 381.908 397.954 381.35 398.314 380.913C398.674 380.476 399.186 380.191 399.748 380.116C400.309 380.042 400.878 380.182 401.34 380.51C403.06 381.77 404.78 383.01 406.51 384.17C407.38 384.76 408.25 385.32 409.11 385.84C409.53 386.09 409.96 386.34 410.36 386.54C410.538 386.638 410.722 386.724 410.91 386.8C410.968 386.826 411.028 386.846 411.09 386.86H410.96H410.78C410.548 386.824 410.312 386.824 410.08 386.86C410.788 386.909 411.456 387.208 411.964 387.703C412.473 388.198 412.789 388.857 412.858 389.564C412.926 390.27 412.742 390.978 412.338 391.561C411.933 392.145 411.336 392.566 410.65 392.75L410.63 392.5Z" fill="#231F20"/>
<path d="M431.19 384.56C430.952 384.572 430.718 384.626 430.5 384.72L430.34 384.79C430.292 384.805 430.248 384.828 430.21 384.86C430.27 384.833 430.327 384.8 430.38 384.76C430.51 384.67 430.69 384.55 430.86 384.41C431.22 384.13 431.59 383.81 431.96 383.47C432.7 382.8 433.45 382.08 434.19 381.34C435.66 379.87 437.12 378.34 438.55 376.76C438.934 376.329 439.472 376.062 440.048 376.018C440.625 375.973 441.196 376.153 441.643 376.519C442.09 376.886 442.378 377.412 442.446 377.986C442.514 378.56 442.358 379.139 442.01 379.6C440.73 381.35 439.43 383.09 438.01 384.81C437.32 385.68 436.61 386.53 435.86 387.39C435.47 387.82 435.09 388.25 434.64 388.69C434.42 388.91 434.19 389.13 433.9 389.37C433.77 389.48 433.61 389.61 433.42 389.75L433.06 389.99L432.76 390.15H432.68L432.5 390.22C432.25 390.319 431.987 390.379 431.72 390.4C431.299 390.513 430.858 390.533 430.429 390.459C429.999 390.384 429.591 390.217 429.233 389.969C428.874 389.721 428.574 389.397 428.354 389.021C428.133 388.645 427.997 388.226 427.955 387.792C427.913 387.358 427.966 386.92 428.111 386.509C428.255 386.098 428.488 385.723 428.792 385.411C429.096 385.098 429.464 384.856 429.871 384.7C430.279 384.545 430.715 384.48 431.15 384.51L431.19 384.56Z" fill="#231F20"/>
<path d="M563.26 178.2C570.34 208.87 496.82 224.3 354.74 257.1C212.66 289.9 55.82 327.65 48.74 296.98C41.66 266.31 140.53 169.08 282.61 136.28C424.69 103.48 556.19 147.53 563.26 178.2Z" fill="#F0CC6D"/>
<path d="M146.5 226.54C146.5 226.54 254.09 246.04 343.04 231.8C431.99 217.56 448.66 156.8 448.66 156.8C446.99 119.45 381.57 29.0505 381.57 29.0505C381.57 29.0505 307.43 6.84042 257.92 18.2704C208.41 29.7004 152.27 81.9804 152.27 81.9804C127.94 121.69 146.5 226.54 146.5 226.54Z" fill="#E2B654"/>
<path d="M146.5 226.55C146.5 226.55 127.92 121.7 152.27 81.9904C152.27 81.9904 208.4 29.6904 257.92 18.2604C307.44 6.83044 381.56 29.0605 381.56 29.0605C381.56 29.0605 446.99 119.46 448.66 156.8C448.66 156.8 397.12 190.49 339.86 203.71C282.6 216.93 146.5 226.55 146.5 226.55Z" fill="#F0CC6D"/>
<path d="M108.24 218.6C148.31 251.69 244.11 271.81 462.11 231.8C432.47 239.28 396.58 247.43 354.74 257.09C212.66 289.89 55.8203 327.64 48.7403 296.97C45.2403 281.83 67.6103 250.44 108.24 218.6Z" fill="#E2B654"/>
<path d="M341.081 203.41L339.861 203.71C282.591 216.93 146.501 226.55 146.501 226.55C146.501 226.55 131.151 139.93 146.651 94.3301C219.461 186.29 307.641 201.2 341.081 203.41Z" fill="#E2B654"/>
<path d="M140.38 129.4C141.69 110.85 145.14 93.6205 152.27 81.9905C152.27 81.9905 207.27 30.7704 256.41 18.6504C258.41 34.0004 258.06 74.2405 204.79 95.2405C174.46 107.2 153.86 119.51 140.38 129.4Z" fill="#CB9B3B"/>
<path d="M448.661 156.8C448.251 147.56 443.931 135.07 437.661 121.51C437.661 121.51 377.661 157.61 326.431 169.44C275.201 181.27 141.771 189.81 141.771 189.81C143.771 211.1 146.5 226.55 146.5 226.55C146.5 226.55 282.28 221.06 339.5 207.84C396.72 194.62 448.661 156.8 448.661 156.8Z" fill="#AA73AE"/>
<path d="M518.11 275.5C518.11 275.5 500.48 244.82 466.75 251.91" stroke="#231F20" stroke-width="5.92" stroke-miterlimit="10" stroke-linecap="round"/>
<path d="M260.82 318.7C260.82 318.7 272.24 285.2 306.7 285.7" stroke="#231F20" stroke-width="5.92" stroke-miterlimit="10" stroke-linecap="round"/>
<path d="M326.28 405.4C326.28 405.4 319.73 468 392.37 456.06C392.37 456.06 378.46 423.06 396.08 418.85C396.08 418.85 357.24 402.2 326.28 405.4Z" fill="#231F20"/>
<path d="M370.76 438.56C372.253 444.786 372.032 451.299 370.12 457.41C333.04 455.03 326.98 426.41 326.22 412.67C326.78 412.51 327.34 412.36 327.91 412.22C332.453 411.135 337.165 410.955 341.778 411.692C346.39 412.429 350.812 414.067 354.792 416.513C358.771 418.959 362.229 422.165 364.969 425.948C367.709 429.731 369.676 434.016 370.76 438.56Z" fill="#F16C6C"/>
<path opacity="0.49" d="M63.71 872.47C78.27 867.47 96.4098 867.02 101.26 822.77C106.11 778.52 106 770.77 128.04 739.44C150.08 708.11 131.83 702 131.83 702C133.758 701.241 135.835 700.937 137.9 701.11C148.65 702.52 163.07 720.69 155.2 732.11C153.02 735.65 126.71 753.66 122.41 775.88C118.11 798.1 120.14 827.64 114.89 844.17C110.64 857.56 94.3 877.52 63.71 872.52V872.47Z" fill="#3D9480"/>
<path d="M257.85 761.64C257.71 765.79 269.66 795.35 260.94 816.24C252.22 837.13 234.19 860.61 229.41 877.29C225.19 892.01 228.61 921.22 264.67 932.36C300.73 943.5 317.54 926.17 321.48 919.13C325.42 912.09 325.37 905.71 317.48 896.8C309.59 887.89 298.37 878.52 306.17 860.88C313.97 843.24 318.17 833.35 312.07 805.51C305.97 777.67 299.07 750.21 289.36 745.44C279.65 740.67 257.59 747.82 257.85 761.64Z" fill="#49BEA2"/>
<path d="M323.05 915.77C322.618 916.93 322.093 918.054 321.48 919.13C319.427 922.539 316.706 925.498 313.48 927.83C310.65 923.19 307.41 915.96 310.64 910.83C313.87 905.7 319.41 911.13 323.05 915.77Z" fill="#58595B"/>
<path d="M293.47 935.59C293.24 927.93 293.7 914.651 299.52 913.291C305.61 911.861 308.91 923.701 310.23 930.001C305.092 933.007 299.384 934.91 293.47 935.59Z" fill="#58595B"/>
<path d="M282.78 917.39C289.14 916.95 290.84 928.59 291.3 935.81C285.271 936.246 279.212 935.828 273.3 934.57C274.8 926.74 277.63 917.75 282.78 917.39Z" fill="#58595B"/>
<path d="M264.67 932.36C261.835 931.486 259.056 930.438 256.351 929.22C258.101 924.61 261.061 919.7 265.851 918.84C272.741 917.59 271.391 928.15 270.181 933.84C268.391 933.44 266.56 932.95 264.67 932.36Z" fill="#58595B"/>
<path d="M280.94 824.33C280.94 824.33 276.64 837.76 288.65 843.48C300.66 849.2 305.65 837.22 303.58 832.69C301.51 828.16 295.72 827.96 292.58 830.76" stroke="#1F705F" stroke-width="2.93" stroke-miterlimit="10" stroke-linecap="round"/>
<path opacity="0.49" d="M256.35 929.2C247.01 916.96 232.14 906.56 252.58 867.03C273.02 827.5 277.41 821.08 276.39 782.8C275.37 744.52 293.95 749.51 293.95 749.51C292.764 747.815 291.204 746.415 289.39 745.42C279.66 740.64 257.59 747.8 257.85 761.62C257.71 765.77 269.66 795.33 260.94 816.22C252.22 837.11 234.19 860.59 229.41 877.27C225.54 890.77 228.11 916.43 256.35 929.2Z" fill="#3D9480"/>
<path d="M385.749 84.3204C392.802 81.2598 394.523 69.5708 389.593 58.2121C384.664 46.8534 374.95 40.1263 367.898 43.1869C360.846 46.2475 359.125 57.9367 364.055 69.2954C368.984 80.6541 378.697 87.381 385.749 84.3204Z" fill="white"/>
<path d="M232.76 642.25C237.924 642.25 242.11 636.502 242.11 629.41C242.11 622.319 237.924 616.57 232.76 616.57C227.596 616.57 223.41 622.319 223.41 629.41C223.41 636.502 227.596 642.25 232.76 642.25Z" fill="white"/>
<path d="M367.083 543.594C370.923 538.487 371.303 532.29 367.93 529.755C364.558 527.219 358.71 529.304 354.87 534.411C351.03 539.518 350.651 545.714 354.023 548.25C357.396 550.786 363.243 548.701 367.083 543.594Z" fill="white"/>
<path d="M97.7282 748.094C103.129 743.107 105.651 737.054 103.361 734.575C101.072 732.096 94.8383 734.129 89.4378 739.116C84.0372 744.103 81.5151 750.155 83.8044 752.634C86.0937 755.114 92.3276 753.081 97.7282 748.094Z" fill="white"/>
<path d="M304.589 818.566C307.958 817.898 309.509 811.401 308.052 804.055C306.594 796.709 302.681 791.296 299.312 791.965C295.942 792.633 294.392 799.13 295.849 806.476C297.307 813.822 301.219 819.235 304.589 818.566Z" fill="white"/>
<path d="M546.128 175.665C548.108 170.871 541.229 163.482 530.765 159.16C520.3 154.839 510.212 155.221 508.233 160.014C506.253 164.808 513.132 172.197 523.596 176.519C534.061 180.84 544.149 180.458 546.128 175.665Z" fill="white"/>
<path d="M301.82 789.8C303.283 789.8 304.47 788.614 304.47 787.15C304.47 785.686 303.283 784.5 301.82 784.5C300.356 784.5 299.17 785.686 299.17 787.15C299.17 788.614 300.356 789.8 301.82 789.8Z" fill="white"/>
<path d="M504.87 155.1C507.659 155.1 509.92 152.839 509.92 150.05C509.92 147.261 507.659 145 504.87 145C502.081 145 499.82 147.261 499.82 150.05C499.82 152.839 502.081 155.1 504.87 155.1Z" fill="white"/>
<path d="M402.17 91.4596C406.422 91.4596 409.87 88.0122 409.87 83.7596C409.87 79.507 406.422 76.0596 402.17 76.0596C397.917 76.0596 394.47 79.507 394.47 83.7596C394.47 88.0122 397.917 91.4596 402.17 91.4596Z" fill="white"/>
</g>
<defs>
<clipPath id="clip0_5470_18707">
<rect width="578.74" height="985.03" fill="white"/>
</clipPath>
</defs>
</svg>
