<svg width="623" height="914" viewBox="0 0 623 914" fill="none" xmlns="http://www.w3.org/2000/svg">
<g clip-path="url(#clip0_4357_654)">
<path d="M261.64 913.34C391.587 913.34 496.93 900.307 496.93 884.23C496.93 868.153 391.587 855.12 261.64 855.12C131.693 855.12 26.3496 868.153 26.3496 884.23C26.3496 900.307 131.693 913.34 261.64 913.34Z" fill="#D0D2D3"/>
<path d="M9.72013 526.1C8.01013 508.37 10.8899 486.28 14.4999 462.89C36.3899 469.03 88.0399 474.89 151.29 423.52C158.63 443.97 164.58 464.52 169.49 483.23C142.8 504.8 77.1501 548.91 9.72013 526.1Z" fill="white"/>
<path d="M22.1694 409.5C24.5994 386.69 24.9696 364.81 19.8096 346.62C36.1396 325.44 43.2994 308.41 46.0894 295.74C74.5994 302.21 97.2098 322.51 115.28 349.19C98.8398 367.7 63.5394 402.01 22.1694 409.5Z" fill="white"/>
<path d="M194.06 560.37C199.9 567.54 206.54 570.65 213.01 571.48C213.7 585.01 212.41 606.48 201.43 628C131.94 661.07 85.8195 649.41 56.2295 623.06C88.1795 626.62 141.38 620.42 194.06 560.37Z" fill="white"/>
<path d="M19.8095 346.62C18.2459 340.953 15.9783 335.503 13.0595 330.4C-15.4405 281.53 39.3393 294.45 39.3393 294.45C41.6293 294.79 43.8693 295.23 46.0893 295.74C43.2993 308.41 36.1395 325.44 19.8095 346.62Z" fill="#7A7176"/>
<path d="M14.5 462.89C17.2 445.39 20.2999 427.17 22.1699 409.5C63.5399 402.03 98.8403 367.7 115.28 349.19C130.09 371.06 141.84 397.19 151.28 423.52C88.0603 474.87 36.39 469.01 14.5 462.89Z" fill="#7A7176"/>
<path d="M56.1797 623.06C25.3297 595.6 12.4396 552.18 9.78955 526.83C9.78955 526.59 9.78973 526.34 9.71973 526.1C77.1497 548.91 142.8 504.8 169.49 483.23C174.36 501.85 178.21 518.66 181.37 531.78C184.57 545.05 188.99 554.21 194.01 560.37C141.38 620.42 88.1797 626.62 56.1797 623.06Z" fill="#7A7176"/>
<path d="M242.86 562.4L239.7 606.59C227.374 614.499 214.577 621.649 201.38 628C212.38 606.5 213.65 585 212.96 571.48C228.41 573.45 242.86 562.4 242.86 562.4Z" fill="#7A7176"/>
<path d="M201.38 628.01C191.503 633.001 181.312 637.344 170.87 641.01C160.351 644.635 149.508 647.24 138.49 648.79C127.369 650.312 116.089 650.268 104.98 648.66C93.7826 646.991 82.9571 643.402 72.9802 638.05C67.9973 635.346 63.2479 632.231 58.7805 628.74C57.6505 627.89 56.5602 626.98 55.4802 626.07C54.4002 625.16 53.3601 624.19 52.3201 623.23L49.2102 620.33C48.1602 619.33 47.2603 618.33 46.2703 617.28C38.5457 609.014 31.8628 599.832 26.3704 589.94C20.9113 580.07 16.4366 569.687 13.0105 558.94C9.45844 548.191 7.03187 537.101 5.77026 525.85C4.68026 514.4 5.2801 503.11 6.3601 491.99C7.4401 480.87 9.06043 469.87 10.7004 458.92C13.9904 437.06 17.5405 415.32 18.8005 393.64C19.5293 382.912 19.258 372.139 17.9905 361.46C17.3059 356.252 16.1988 351.109 14.6804 346.08C13.9088 343.613 13.0041 341.19 11.9705 338.82C11.4605 337.65 10.9101 336.49 10.3201 335.36C10.0301 334.8 9.72039 334.24 9.41039 333.68L8.41039 331.91L6.31029 328.12L4.38012 324.12C3.78012 322.77 3.23039 321.37 2.66039 320C2.09039 318.63 1.66047 317.13 1.24047 315.63C0.338107 312.459 -0.0669027 309.166 0.0402751 305.87C0.140275 304.98 0.250353 304.08 0.370353 303.18C0.490353 302.28 0.860119 301.35 1.13012 300.45C1.40012 299.55 1.92012 298.66 2.38012 297.8C2.89845 296.962 3.47332 296.16 4.10033 295.4C6.56223 292.677 9.72867 290.687 13.2502 289.65C16.298 288.713 19.4544 288.176 22.6404 288.05C25.6425 287.916 28.6504 288 31.6404 288.3C33.1104 288.45 34.5703 288.62 36.0203 288.85C37.4703 289.08 38.8702 289.32 40.4802 289.68L40.0603 289.6C48.2754 290.865 56.2898 293.198 63.9001 296.54C71.4327 299.91 78.5419 304.156 85.0803 309.19C91.5449 314.165 97.543 319.718 103 325.78C108.418 331.757 113.41 338.106 117.94 344.78C126.872 358.063 134.635 372.095 141.14 386.72C147.643 401.213 153.381 416.037 158.33 431.13C163.33 446.18 167.63 461.4 171.58 476.7L173.04 482.44L174.39 488.19L177.1 499.7L182.46 522.7C183.35 526.51 184.21 530.44 185.13 534.12C186.063 537.818 187.222 541.455 188.6 545.01C191.36 552.01 195.18 558.73 200.76 563.38C203.513 565.698 206.727 567.403 210.19 568.38C213.719 569.304 217.392 569.545 221.01 569.09C224.732 568.611 228.371 567.632 231.83 566.18C233.591 565.472 235.311 564.664 236.98 563.76C238.641 562.881 240.247 561.903 241.79 560.83L245.031 558.54L244.69 562.4L242.69 584.46L240.69 606.53L240.64 607.05L240.23 607.3C227.726 614.968 214.75 621.839 201.38 627.87C214.396 621.195 227.011 613.766 239.16 605.62L238.71 606.39L239.85 584.26L241.051 562.14L243.96 563.7C242.319 564.941 240.599 566.073 238.81 567.09C237.047 568.112 235.231 569.04 233.37 569.87C229.615 571.584 225.646 572.781 221.57 573.43C217.378 574.097 213.097 573.951 208.96 573C204.785 571.969 200.885 570.041 197.531 567.35C194.245 564.711 191.393 561.573 189.08 558.05C186.808 554.62 184.869 550.98 183.29 547.18C181.721 543.437 180.385 539.599 179.29 535.69C178.2 531.76 177.29 528.03 176.29 524.2L170.43 501.37L167.52 489.95L166.07 484.24L164.51 478.57C160.31 463.47 155.74 448.49 150.58 433.74C145.518 418.992 139.711 404.51 133.18 390.35C126.738 376.271 119.086 362.777 110.31 350.02C101.48 337.45 91.3103 325.79 79.3103 316.68C73.3512 312.126 66.8766 308.29 60.0203 305.25C53.1929 302.275 46.0051 300.208 38.6404 299.1H38.4304H38.2302C37.1402 298.85 35.7805 298.61 34.5305 298.43C33.2805 298.25 31.9804 298.09 30.7004 297.96C28.1847 297.718 25.6548 297.655 23.1301 297.77C20.797 297.865 18.4853 298.254 16.2502 298.93C14.4393 299.442 12.7969 300.426 11.4905 301.78C10.3764 303.103 9.75765 304.771 9.74047 306.5C9.7013 308.731 9.99094 310.955 10.6003 313.1C10.9203 314.26 11.3405 315.44 11.7205 316.61C12.1005 317.78 12.6704 318.96 13.1804 320.13L14.8801 323.64L16.7703 327.1L17.2502 327.97L17.8103 328.97C18.1703 329.62 18.5201 330.28 18.8601 330.97C19.5401 332.29 20.1705 333.63 20.7605 334.97C21.9303 337.668 22.9483 340.429 23.8103 343.24C25.4746 348.799 26.6787 354.484 27.4104 360.24C28.7224 371.525 28.9766 382.908 28.1702 394.24C27.5102 405.46 26.1705 416.55 24.5305 427.54C22.8905 438.53 21.1003 449.45 19.3303 460.33C17.5603 471.21 15.8804 482.07 14.7004 492.91C13.5204 503.75 12.8001 514.61 13.6101 525.19C14.6241 535.924 16.7454 546.523 19.9402 556.82C23.0399 567.199 27.1534 577.247 32.2205 586.82C37.2217 596.387 43.3738 605.307 50.5403 613.38C51.4503 614.38 52.2903 615.44 53.2703 616.38L56.1501 619.21C57.1501 620.14 58.0503 621.11 59.0803 621.98C60.1103 622.85 61.0804 623.76 62.1404 624.6C66.2978 628.016 70.7295 631.083 75.3904 633.77C84.7717 639.152 95.0014 642.895 105.64 644.84C116.378 646.726 127.323 647.129 138.17 646.04C149.095 644.943 159.889 642.793 170.4 639.62C180.968 636.427 191.317 632.549 201.38 628.01Z" fill="#231F20"/>
<path d="M385.34 631.56C372.86 611.35 426.51 673.56 360.34 836.88C360.34 836.88 386.45 858.76 379.08 874.49C371.71 890.22 316.6 888.23 301.58 858.71C286.56 829.19 291.58 788.4 301.75 756.03C279.8 738.03 276.36 658.56 301.37 628.16C301.33 628.16 344.61 576.51 385.34 631.56Z" fill="#C9C3C7"/>
<path d="M389.9 646.45C391.339 650.276 392.407 654.23 393.09 658.26C393.85 662.26 394.33 666.35 394.72 670.42C395.11 674.49 395.31 678.59 395.42 682.69C395.48 684.69 395.42 686.78 395.47 688.83L395.37 694.97C395.15 703.16 394.54 711.34 393.61 719.48C392.68 727.62 391.56 735.73 390.17 743.79C387.303 759.91 383.733 775.874 379.46 791.68C375.2 807.48 370.34 823.09 365.06 838.55L363.54 833.02C364.66 833.97 365.54 834.8 366.54 835.72C367.54 836.64 368.44 837.53 369.36 838.47C371.19 840.34 372.96 842.29 374.65 844.34C378.237 848.516 381.173 853.208 383.36 858.26C384.544 861.079 385.264 864.071 385.49 867.12C385.728 870.523 385.072 873.928 383.59 877C382.75 878.659 381.623 880.155 380.26 881.42C379.046 882.55 377.704 883.534 376.26 884.35C373.689 885.807 370.934 886.914 368.07 887.64C362.767 888.956 357.312 889.555 351.85 889.42C346.525 889.326 341.223 888.707 336.02 887.57C330.789 886.436 325.696 884.74 320.83 882.51C315.842 880.249 311.207 877.278 307.07 873.69C304.955 871.853 303.029 869.81 301.32 867.59C299.581 865.362 298.089 862.951 296.87 860.4C294.581 855.636 292.734 850.672 291.35 845.57C290.029 840.531 289.083 835.4 288.52 830.22C287.946 825.098 287.706 819.944 287.8 814.79C288.006 804.595 289.093 794.437 291.05 784.43C293.051 774.52 295.724 764.757 299.05 755.21L299.78 758.02C299.273 757.501 298.792 756.957 298.34 756.39C297.91 755.86 297.5 755.32 297.1 754.78C296.31 753.7 295.58 752.58 294.89 751.45C293.518 749.196 292.289 746.858 291.21 744.45C289.077 739.696 287.445 734.732 286.34 729.64C285.277 724.601 284.659 719.478 284.49 714.33C284.332 709.233 284.566 704.132 285.19 699.07C285.186 704.127 285.52 709.178 286.19 714.19C286.833 719.156 287.904 724.058 289.39 728.84C290.838 733.571 292.758 738.143 295.12 742.49C296.286 744.635 297.589 746.702 299.02 748.68C299.73 749.68 300.48 750.61 301.24 751.52C301.62 751.98 302.01 752.43 302.41 752.86C302.81 753.29 303.24 753.74 303.55 754.02C303.914 754.347 304.179 754.77 304.315 755.24C304.451 755.71 304.453 756.209 304.32 756.68V756.83C301.662 766.285 299.621 775.902 298.21 785.62C296.749 795.245 296.12 804.978 296.33 814.71C296.509 824.274 297.917 833.776 300.52 842.98C301.838 847.463 303.565 851.814 305.68 855.98C307.646 859.85 310.366 863.288 313.68 866.09C320.38 871.86 329.17 875.5 338.21 877.43C342.763 878.413 347.403 878.942 352.06 879.01C356.566 879.12 361.067 878.622 365.44 877.53C367.407 877.036 369.303 876.29 371.08 875.31C372.415 874.639 373.53 873.597 374.29 872.31C374.978 870.873 375.275 869.279 375.15 867.69C374.998 865.765 374.536 863.878 373.78 862.1C372 858.006 369.643 854.187 366.78 850.76C365.33 848.96 363.78 847.2 362.13 845.5C361.32 844.65 360.48 843.82 359.64 843C358.8 842.18 357.89 841.36 357.12 840.69L357.03 840.62C356.27 839.96 355.726 839.086 355.471 838.111C355.216 837.137 355.261 836.108 355.6 835.16C361.05 819.94 366.17 804.62 370.84 789.16C372.03 785.3 373.1 781.41 374.26 777.55C375.42 773.69 376.43 769.77 377.5 765.88C379.5 758.07 381.5 750.25 383.21 742.36C386.828 726.635 389.5 710.706 391.21 694.66L391.73 688.66C391.86 686.66 392.02 684.66 392.11 682.66C392.31 678.66 392.46 674.59 392.43 670.56C392.4 666.53 392.23 662.48 391.9 658.45C391.59 654.399 390.921 650.383 389.9 646.45Z" fill="#231F20"/>
<path d="M429.649 475.62C429.649 475.62 448.53 472.77 487.76 460.33C524.22 448.77 542.35 424.22 562.31 442.12C579.1 457.12 545.31 487.82 509.75 508.02C469.45 530.89 414.06 537.94 414.06 537.94" fill="#C9C3C7"/>
<path d="M429.65 475.62C443.15 471.72 456.34 467.18 469.53 462.62L479.4 459.16L489.17 455.68C495.548 453.276 501.767 450.471 507.79 447.28C513.91 444.14 519.87 440.6 526.31 437.35C529.608 435.635 533.024 434.155 536.53 432.92C540.377 431.542 544.446 430.894 548.53 431.01C552.848 431.245 557.034 432.581 560.69 434.89C562.418 435.971 564.045 437.206 565.55 438.58C567.308 440.163 568.747 442.067 569.79 444.19C570.84 446.378 571.409 448.764 571.46 451.19C571.499 453.429 571.182 455.661 570.52 457.8C569.305 461.603 567.504 465.193 565.18 468.44C563.055 471.505 560.688 474.395 558.1 477.08C555.58 479.74 552.95 482.24 550.24 484.63C544.829 489.309 539.134 493.651 533.19 497.63C527.3 501.63 521.19 505.29 515 508.7C513.44 509.56 511.87 510.36 510.29 511.19C508.71 512.02 507.13 512.85 505.52 513.61C502.33 515.19 499.08 516.61 495.82 518.01C482.759 523.387 469.281 527.688 455.52 530.87C441.865 534.141 428.003 536.48 414.03 537.87C420.92 536.59 427.73 535.03 434.51 533.36C441.29 531.69 448.01 529.8 454.68 527.77C461.35 525.74 467.94 523.53 474.42 521.06C480.9 518.59 487.33 515.97 493.55 512.98C499.782 510.033 505.821 506.693 511.63 502.98C517.46 499.29 523.14 495.36 528.63 491.24C534.111 487.156 539.365 482.776 544.37 478.12C549.294 473.667 553.696 468.668 557.49 463.22C559.205 460.742 560.533 458.017 561.43 455.14C562.215 452.909 562.133 450.464 561.2 448.29C560.686 447.271 559.976 446.364 559.11 445.62C558.03 444.635 556.862 443.752 555.62 442.98C553.35 441.501 550.735 440.64 548.03 440.48C542.63 440.19 536.44 442.69 530.38 445.61C524.32 448.53 518.06 451.95 511.65 455.03C505.182 458.17 498.499 460.844 491.65 463.03L489.06 463.82L486.51 464.52L481.42 465.9C478.01 466.77 474.62 467.66 471.18 468.44C467.74 469.22 464.32 470.01 460.89 470.76C457.46 471.51 453.98 472.13 450.52 472.76C447.06 473.39 443.57 473.93 440.09 474.41C436.61 474.89 433.16 475.42 429.65 475.62Z" fill="#221F1F"/>
<path d="M440.539 570.625C451.167 481.627 406.849 403.159 341.553 395.361C276.256 387.563 214.707 453.389 204.079 542.387C193.451 631.385 237.768 709.853 303.065 717.651C368.361 725.449 429.911 659.623 440.539 570.625Z" fill="#C9C3C7"/>
<path d="M313.58 723.44C309.824 723.436 306.07 723.212 302.34 722.77C269.06 718.77 239.98 697.56 220.44 662.97C201.2 628.91 193.51 585.84 198.78 541.7C204.05 497.56 221.67 457.52 248.38 428.94C275.52 399.94 308.78 386.13 342.06 390.11C375.34 394.09 404.42 415.32 423.96 449.91C443.19 483.97 450.89 527.04 445.62 571.17C440.35 615.3 422.73 655.36 396.01 683.93C371.94 709.68 343.06 723.44 313.58 723.44ZM330.92 399.89C272.35 399.89 218.92 461.51 209.15 542.89C198.88 628.89 241.24 704.89 303.58 712.34C306.865 712.735 310.171 712.932 313.48 712.93C372.05 712.93 425.48 651.31 435.24 569.93C445.51 483.93 403.15 407.93 340.82 400.48C337.535 400.085 334.229 399.888 330.92 399.89Z" fill="#231F20"/>
<path d="M440.539 570.625C451.167 481.627 406.849 403.159 341.553 395.361C276.256 387.563 214.707 453.389 204.079 542.387C193.451 631.385 237.768 709.853 303.065 717.651C368.361 725.449 429.911 659.623 440.539 570.625Z" fill="#C9C3C7"/>
<path d="M313.58 723.44C309.824 723.436 306.07 723.212 302.34 722.77C269.06 718.77 239.98 697.56 220.44 662.97C201.2 628.91 193.51 585.84 198.78 541.7C204.05 497.56 221.67 457.52 248.38 428.94C275.52 399.94 308.78 386.13 342.06 390.11C375.34 394.09 404.42 415.32 423.96 449.91C443.19 483.97 450.89 527.04 445.62 571.17C440.35 615.3 422.73 655.36 396.01 683.93C371.94 709.68 343.06 723.44 313.58 723.44ZM330.92 399.89C272.35 399.89 218.92 461.51 209.15 542.89C198.88 628.89 241.24 704.89 303.58 712.34C306.865 712.735 310.171 712.932 313.48 712.93C372.05 712.93 425.48 651.31 435.24 569.93C445.51 483.93 403.15 407.93 340.82 400.48C337.535 400.085 334.229 399.888 330.92 399.89Z" fill="#231F20"/>
<path d="M440.539 570.625C451.167 481.627 406.849 403.159 341.553 395.361C276.256 387.563 214.707 453.389 204.079 542.387C193.451 631.385 237.768 709.853 303.065 717.651C368.361 725.449 429.911 659.623 440.539 570.625Z" fill="#C9C3C7"/>
<path d="M313.58 723.44C309.824 723.436 306.07 723.212 302.34 722.77C269.06 718.77 239.98 697.56 220.44 662.97C201.2 628.91 193.51 585.84 198.78 541.7C204.05 497.56 221.67 457.52 248.38 428.94C275.52 399.94 308.78 386.13 342.06 390.11C375.34 394.09 404.42 415.32 423.96 449.91C443.19 483.97 450.89 527.04 445.62 571.17C440.35 615.3 422.73 655.36 396.01 683.93C371.94 709.68 343.06 723.44 313.58 723.44ZM330.92 399.89C272.35 399.89 218.92 461.51 209.15 542.89C198.88 628.89 241.24 704.89 303.58 712.34C306.865 712.735 310.171 712.932 313.48 712.93C372.05 712.93 425.48 651.31 435.24 569.93C445.51 483.93 403.15 407.93 340.82 400.48C337.535 400.085 334.229 399.888 330.92 399.89Z" fill="#231F20"/>
<path d="M226.55 663.09C236.69 675.9 247.93 687.4 260.91 696.09C273.579 704.952 288.241 710.548 303.593 712.378C318.946 714.208 334.512 712.216 348.91 706.58C363.57 701.17 377.199 692.64 390.069 682.58C380.124 695.969 367.119 706.784 352.14 714.12C344.487 717.843 336.357 720.491 327.979 721.99C325.889 722.39 323.749 722.58 321.629 722.88C319.509 723.18 317.36 723.17 315.22 723.31C313.08 723.45 310.93 723.31 308.78 723.25L302.37 722.73L296.01 721.73C293.92 721.24 291.82 720.81 289.75 720.27C287.68 719.73 285.64 719.04 283.62 718.34C281.6 717.64 279.62 716.86 277.62 715.98C269.835 712.552 262.563 708.062 256.01 702.64C243.179 691.992 233.078 678.432 226.55 663.09Z" fill="#231F20"/>
<path d="M419.771 548.925C429.083 470.956 409.095 404.46 375.128 400.404C341.161 396.348 306.077 456.266 296.766 534.236C287.454 612.206 307.442 678.701 341.409 682.758C375.376 686.814 410.46 626.895 419.771 548.925Z" fill="white"/>
<path d="M244.06 181.49C244.06 181.49 156.59 97.0099 116.99 124.66C77.3904 152.31 175.49 262.12 175.49 262.12L244.06 181.49Z" fill="#C6BFC3"/>
<path d="M231.29 189.3C231.29 189.3 151.91 121.87 132.52 138.24C113.13 154.61 180.32 246.73 180.32 246.73L231.29 189.3Z" fill="#7A7176"/>
<path d="M399.62 181.93C399.62 181.93 459.84 76.2796 505.62 91.6996C551.4 107.12 488.06 240.01 488.06 240.01L399.62 181.93Z" fill="#C6BFC3"/>
<path d="M244.06 181.49C234.21 173.24 224.009 165.49 213.609 158.05C208.409 154.35 203.09 150.83 197.73 147.4C192.37 143.97 186.909 140.74 181.339 137.76C175.819 134.766 170.145 132.065 164.339 129.67C158.65 127.306 152.737 125.52 146.69 124.34C140.77 123.24 134.77 122.92 129.29 124.15C126.601 124.734 124.018 125.725 121.629 127.09C119.354 128.316 117.371 130.022 115.819 132.09C112.909 136.09 111.96 141.53 112.46 147.25C113.104 153.197 114.515 159.036 116.66 164.62C118.839 170.437 121.373 176.114 124.25 181.62C127.1 187.19 130.25 192.62 133.54 198.04C140.12 208.82 147.35 219.28 154.87 229.53C162.39 239.78 170.289 249.84 178.399 259.53L172.569 259.6C178.289 253.18 184.01 246.74 189.83 240.32L207.48 221L244.06 181.49ZM244.06 181.49L228.29 201.83L212.089 222.59L195.46 243.59C189.85 250.59 184.14 257.59 178.46 264.59L175.7 267.99L172.629 264.66C168.189 259.85 163.969 255.02 159.819 250.04C155.669 245.06 151.6 240.04 147.66 234.94C139.74 224.7 132.23 214.13 125.31 203.09C118.39 192.05 112.11 180.5 107.53 167.92C105.093 161.495 103.552 154.765 102.95 147.92C102.663 144.271 102.902 140.6 103.66 137.02C104.445 133.224 106.07 129.652 108.417 126.566C110.763 123.481 113.771 120.96 117.22 119.19C120.445 117.433 123.928 116.197 127.54 115.53C134.455 114.373 141.535 114.649 148.339 116.34C154.835 117.902 161.157 120.113 167.21 122.94C173.165 125.668 178.943 128.768 184.51 132.22C195.517 139.062 206.014 146.692 215.919 155.05C220.919 159.16 225.699 163.44 230.399 167.84C235.099 172.24 239.67 176.79 244.06 181.49Z" fill="#231F20"/>
<path d="M399.62 181.93C402.51 176.18 405.62 170.56 408.93 165.02C412.24 159.48 415.62 154.02 419.24 148.68C426.4 137.879 434.331 127.609 442.97 117.95C447.34 113.071 452.016 108.475 456.97 104.19C461.984 99.7758 467.428 95.8763 473.22 92.5501C479.279 89.0181 485.997 86.765 492.96 85.93C496.613 85.5577 500.302 85.767 503.89 86.5501C507.663 87.315 511.23 88.869 514.36 91.1101C517.479 93.4429 520.055 96.4249 521.91 99.8501C523.641 103.078 524.904 106.536 525.66 110.12C527.001 116.852 527.408 123.737 526.87 130.58C526.02 143.95 523.14 156.77 519.69 169.33C516.24 181.89 511.91 194.13 507.18 206.17C504.84 212.17 502.34 218.17 499.75 224.09C497.16 230.01 494.47 235.85 491.57 241.72L489.57 245.77L485.96 243.28C478.52 238.15 471.08 233.04 463.72 227.88L441.86 212.4L420.47 197.01L399.62 181.93ZM399.62 181.93L445.85 209.58L468.21 223.17C475.6 227.69 482.9 232.27 490.21 236.82L484.59 238.39C489.65 226.8 494.39 214.91 498.75 202.98C503.11 191.05 507.09 178.98 510.38 166.77C512.03 160.67 513.5 154.55 514.68 148.4C515.89 142.313 516.732 136.158 517.2 129.97C517.683 124.008 517.397 118.009 516.35 112.12C515.22 106.49 512.78 101.52 508.86 98.51C506.782 96.958 504.395 95.8702 501.86 95.3201C499.182 94.688 496.425 94.4653 493.68 94.6599C488.08 95.0199 482.41 97.01 477.03 99.73C471.561 102.564 466.388 105.937 461.59 109.8C456.688 113.732 451.995 117.918 447.53 122.34C443.024 126.773 438.69 131.393 434.53 136.2C430.36 141 426.24 145.87 422.28 150.88C414.37 160.92 406.76 171.25 399.62 181.93Z" fill="#231F20"/>
<path d="M414.06 185.84C414.06 185.84 471.31 98.84 494.52 109.09C517.73 119.34 479.109 226.64 479.109 226.64L414.06 185.84Z" fill="#7A7176"/>
<path d="M468.44 309.12C468.44 309.12 541.83 320.21 566.36 257.55C566.36 257.55 623.11 330.06 539.63 369.99C539.63 369.99 554.21 381.27 568.88 371.52C568.88 371.52 600.35 437.22 445.55 435.76L468.44 309.12Z" fill="white"/>
<path d="M539.63 370.01C541.816 371.408 544.167 372.53 546.63 373.35C549.051 374.172 551.576 374.65 554.13 374.77C554.77 374.77 555.4 374.85 556.03 374.77L557.91 374.63C558.53 374.54 559.15 374.4 559.76 374.3C560.07 374.23 560.38 374.2 560.68 374.11L561.57 373.83C563.951 373.092 566.202 371.986 568.24 370.55L569.38 369.81L569.96 371.02C571.431 374.234 572.406 377.653 572.85 381.16C573.315 384.678 573.234 388.246 572.61 391.74C571.984 395.266 570.831 398.677 569.19 401.86C568.79 402.66 568.29 403.4 567.85 404.18L567.15 405.33C566.91 405.71 566.63 406.05 566.37 406.41L564.77 408.56C564.21 409.25 563.59 409.89 563 410.56C558.115 415.658 552.384 419.87 546.06 423.01C539.884 426.18 533.422 428.759 526.76 430.71C513.561 434.504 500.029 437.032 486.35 438.26C472.75 439.67 459.11 440.06 445.51 440.15H440.33L441.23 434.94L446.66 403.23L452.28 371.55L457.91 339.87L463.73 308.23L464.57 303.68L469.15 304.35C470.15 304.49 471.4 304.62 472.54 304.72C473.68 304.82 474.91 304.89 476.1 304.95C478.48 305.08 480.88 305.09 483.27 305.08C488.057 305.006 492.836 304.645 497.58 304C507.027 302.818 516.242 300.226 524.92 296.31C533.518 292.419 541.271 286.882 547.74 280.01C548.58 279.19 549.31 278.27 550.08 277.38C550.85 276.49 551.65 275.62 552.33 274.65L554.43 271.8L554.95 271.08L555.42 270.33L556.42 268.83C558.955 264.798 561.147 260.559 562.97 256.16L565.59 250.24L569.31 255.24C570.31 256.55 571.06 257.73 571.88 258.98C572.7 260.23 573.44 261.48 574.2 262.74C575.68 265.27 577.06 267.86 578.35 270.49C580.939 275.761 583.051 281.252 584.66 286.9C586.29 292.567 587.296 298.395 587.66 304.28C588.041 310.196 587.569 316.137 586.26 321.92C584.881 327.665 582.624 333.163 579.57 338.22L578.42 340.09L577.85 341.03C577.64 341.33 577.41 341.62 577.2 341.91L574.56 345.41C573.64 346.53 572.62 347.57 571.65 348.65C571.16 349.19 570.65 349.73 570.17 350.25L568.57 351.72C560.072 359.451 550.28 365.625 539.64 369.96C549.64 364.61 559.1 358.07 566.75 349.91C574.45 341.933 579.662 331.888 581.75 321C583.62 310.23 582.22 299.1 578.75 288.71C576.981 283.499 574.794 278.439 572.21 273.58C570.92 271.15 569.54 268.76 568.08 266.43C567.34 265.28 566.59 264.13 565.81 263.01C565.03 261.89 564.21 260.73 563.45 259.79L569.79 258.86C567.944 263.725 565.696 268.427 563.07 272.92C560.445 277.464 557.355 281.724 553.85 285.63C546.768 293.444 538.228 299.799 528.71 304.34C519.29 308.851 509.233 311.887 498.89 313.34C493.767 314.074 488.604 314.495 483.43 314.6C480.84 314.6 478.25 314.6 475.66 314.52C474.327 314.46 473.027 314.38 471.76 314.28C470.43 314.17 469.21 314.06 467.76 313.86L473.19 309.98L467.56 341.66L461.74 373.3L455.92 404.94L449.92 436.55L445.64 431.38C459.02 431.57 472.4 431.32 485.71 430.44C498.974 429.66 512.137 427.652 525.03 424.44C531.41 422.881 537.624 420.715 543.59 417.97C549.49 415.339 554.901 411.724 559.59 407.28C560.15 406.72 560.75 406.17 561.29 405.59L562.81 403.76C563.06 403.45 563.34 403.15 563.57 402.83L564.23 401.83C564.66 401.16 565.15 400.53 565.54 399.83C568.811 394.288 570.308 387.877 569.83 381.46C569.636 378.234 568.962 375.056 567.83 372.03L569.55 372.51C567.229 373.927 564.697 374.966 562.05 375.59L561.05 375.83C560.72 375.9 560.38 375.92 560.05 375.97C559.38 376.04 558.71 376.14 558.05 376.19H556.05C555.38 376.19 554.72 376.07 554.05 376.02C551.419 375.693 548.847 374.996 546.41 373.95C543.99 372.934 541.71 371.61 539.63 370.01Z" fill="#231F20"/>
<path d="M344.429 147.71C136.799 153.71 146.069 343.46 146.069 343.46C172.569 478.68 349.849 460.27 349.849 460.27C349.849 460.27 527.659 472.52 549.449 336.46C549.449 336.46 552.129 146.46 344.429 147.71Z" fill="#C9C3C7"/>
<path d="M549.45 336.46C549.45 336.46 550.4 269.46 507.68 215.31C506.85 215.31 506.02 215.26 505.2 215.31C447.61 216.48 433.29 259.26 433.29 259.26C433.29 259.26 381.559 213.48 324.169 218.32C264.099 223.38 211.41 293.77 184.5 327.49C172.695 339.634 162.043 352.847 152.68 366.96C193.92 476.49 349.85 460.3 349.85 460.3C349.85 460.3 527.66 472.52 549.45 336.46Z" fill="white"/>
<path d="M336.91 273.37C277.34 262.7 207.91 380.7 188.5 418.24C236.66 459.66 309.38 461.87 337.83 460.97C346.29 433.12 361.83 396.13 368.74 385.15C387.66 355.09 426.15 289.37 336.91 273.37Z" fill="#7A7176"/>
<path d="M491.22 386.58C494.69 391.69 500.32 402.64 506.28 415.67C527.37 397.5 543.75 372.06 549.45 336.46C549.45 336.46 549.8 311.52 540.37 279.76C533.675 276.607 526.505 274.58 519.15 273.76C428.91 265.13 471.27 357.2 491.22 386.58Z" fill="#7A7176"/>
<path d="M148.51 309.25C148.51 309.25 116.05 296.98 103.43 266.17C103.43 266.17 49.21 339.56 134.02 376.57C134.02 376.57 119.86 389.4 104.86 380.16C104.86 380.16 75.68 446.91 230.35 440.09C183.53 424.86 156.35 391.83 146.07 343.46C144.77 328.78 148.51 309.25 148.51 309.25Z" fill="white"/>
<path d="M182.6 309.89C178.677 311.495 174.568 312.6 170.37 313.18C166.118 313.817 161.811 314.005 157.52 313.74C148.739 313.197 140.187 310.725 132.47 306.5C124.732 302.184 117.903 296.411 112.36 289.5C106.906 282.661 102.396 275.12 98.95 267.08L107.34 268.01C107.04 268.44 106.63 269.01 106.28 269.58L105.21 271.28C104.51 272.43 103.82 273.6 103.21 274.78C101.88 277.15 100.62 279.56 99.47 282.02C97.1629 286.918 95.2469 291.99 93.74 297.19C90.74 307.53 89.7397 318.38 91.8997 328.74C92.991 333.945 94.8553 338.957 97.43 343.61C100.075 348.342 103.322 352.712 107.09 356.61C114.7 364.61 124.09 371 134.09 376.61C132.73 376.16 131.38 375.69 130.03 375.21L126.03 373.65C124.72 373.07 123.39 372.51 122.09 371.89C120.79 371.27 119.48 370.67 118.21 369.98C113.026 367.302 108.151 364.066 103.67 360.33C101.401 358.426 99.2597 356.375 97.26 354.19C95.2516 351.965 93.4004 349.602 91.72 347.12C88.35 342.058 85.8079 336.492 84.1897 330.63C82.61 324.745 81.8927 318.661 82.0598 312.57C82.2417 306.545 83.1073 300.56 84.6399 294.73C86.1327 288.965 88.1407 283.345 90.6399 277.94C91.8799 275.24 93.2199 272.6 94.6399 270C95.3799 268.713 96.1433 267.433 96.93 266.16L98.1497 264.26C98.5697 263.62 98.96 263.04 99.49 262.31L104.49 255.37L107.88 263.24C109.439 266.91 111.185 270.498 113.11 273.99C115.028 277.452 117.159 280.791 119.49 283.99C124.107 290.337 129.788 295.839 136.28 300.25C142.902 304.661 150.32 307.738 158.12 309.31C166.182 310.94 174.469 311.136 182.6 309.89Z" fill="#231F20"/>
<path d="M134.06 376.57C133.133 377.511 132.13 378.374 131.06 379.15C129.987 379.95 128.858 380.673 127.68 381.31C125.276 382.623 122.692 383.577 120.01 384.14C119.326 384.288 118.635 384.401 117.94 384.48L115.82 384.64C115.11 384.64 114.4 384.59 113.69 384.57C113.33 384.57 112.97 384.57 112.61 384.5L111.55 384.33C108.692 383.864 105.929 382.935 103.37 381.58L107.53 380.28C107.47 380.51 107.34 380.92 107.25 381.28C107.16 381.64 107.08 382.01 106.99 382.39C106.83 383.13 106.69 383.89 106.59 384.65L106.44 385.79L106.36 386.94C106.27 387.7 106.29 388.47 106.26 389.23C106.233 392.24 106.644 395.238 107.48 398.13C108.322 400.956 109.557 403.649 111.15 406.13C111.53 406.76 112.02 407.33 112.45 407.93L113.1 408.83C113.33 409.12 113.59 409.39 113.84 409.67L115.32 411.34C115.85 411.88 116.43 412.34 116.98 412.89C121.638 417.009 126.934 420.345 132.66 422.77C138.569 425.356 144.688 427.434 150.95 428.98C163.809 432.14 176.885 434.343 190.07 435.57C203.37 436.98 216.81 437.85 230.37 439.04C216.931 441.274 203.333 442.421 189.71 442.47C175.927 442.641 162.17 441.228 148.71 438.26C147.01 437.84 145.3 437.51 143.62 437.02L138.62 435.48C136.93 435.02 135.29 434.3 133.62 433.7L131.14 432.7C130.32 432.36 129.52 431.96 128.71 431.59C122.003 428.677 115.88 424.57 110.64 419.47C109.99 418.8 109.32 418.16 108.7 417.47L106.93 415.27C106.64 414.9 106.33 414.55 106.06 414.16L105.28 412.97C104.78 412.16 104.28 411.39 103.78 410.56C101.92 407.236 100.587 403.643 99.8301 399.91C98.7472 394.396 98.942 388.707 100.4 383.28C100.63 382.38 100.91 381.5 101.21 380.63C101.37 380.19 101.52 379.75 101.7 379.31C101.88 378.87 102.05 378.47 102.3 377.92L103.76 374.84L106.47 376.62C108.361 377.971 110.449 379.023 112.66 379.74L113.49 380.03C113.77 380.12 114.06 380.15 114.35 380.22C114.93 380.33 115.51 380.47 116.09 380.56L117.88 380.73C118.483 380.765 119.087 380.765 119.69 380.73C122.182 380.678 124.655 380.284 127.04 379.56C129.485 378.83 131.84 377.827 134.06 376.57Z" fill="#231F20"/>
<path d="M358.27 147.92C338.41 149.52 320.52 151.54 312.33 153.92C349.5 178.64 415.57 226.82 416.5 280.4C417.2 320.5 414.1 341.11 410.61 351.69C408.15 359.17 412.24 366.99 420.68 370.69L424.68 372.47C427.855 373.907 431.31 374.621 434.794 374.56C438.279 374.5 441.707 373.666 444.83 372.12L448.76 370.21C457.06 366.21 460.89 358.21 458.16 350.82C454.31 340.37 450.5 319.88 449.81 279.82C449.18 243.93 461.56 210.95 476.12 184.75C448.52 164.43 410.54 149.83 358.27 147.92Z" fill="#7A7176"/>
<path d="M461.63 361.63C461.77 369.99 436.63 378.99 436.63 378.99C436.63 378.99 408.71 370.91 408.57 362.55C408.43 354.19 420.19 347.21 434.86 346.95C449.53 346.69 461.48 353.27 461.63 361.63Z" fill="#231F20"/>
<path d="M337.75 372.99C359.803 372.99 377.68 355.113 377.68 333.06C377.68 311.007 359.803 293.13 337.75 293.13C315.698 293.13 297.82 311.007 297.82 333.06C297.82 355.113 315.698 372.99 337.75 372.99Z" fill="#F7F8E2"/>
<path d="M377.67 332.37C378.19 337.674 377.566 343.028 375.84 348.07C374.085 353.202 371.29 357.917 367.63 361.92C363.929 365.963 359.445 369.213 354.45 371.47C349.432 373.725 344.007 374.937 338.506 375.031C333.006 375.126 327.543 374.101 322.45 372.02C317.381 369.941 312.787 366.851 308.95 362.94C305.151 359.067 302.192 354.45 300.26 349.38C298.365 344.402 297.553 339.077 297.88 333.76C298.831 344.053 303.566 353.628 311.17 360.63C318.616 367.421 328.376 371.106 338.452 370.931C348.527 370.757 358.154 366.735 365.36 359.69C372.692 352.413 377.077 342.683 377.67 332.37Z" fill="#231F20"/>
<path d="M377.67 332.37C376.708 322.083 371.974 312.515 364.38 305.51C356.933 298.723 347.174 295.038 337.1 295.211C327.026 295.384 317.399 299.401 310.19 306.44C302.837 313.707 298.437 323.44 297.84 333.76C297.328 328.455 297.956 323.103 299.68 318.06C301.438 312.932 304.232 308.221 307.89 304.22C311.583 300.171 316.064 296.921 321.06 294.67C326.084 292.404 331.517 291.186 337.027 291.09C342.538 290.994 348.01 292.022 353.11 294.11C358.178 296.192 362.771 299.28 366.61 303.19C370.403 307.069 373.36 311.684 375.3 316.75C377.192 321.729 377.999 327.054 377.67 332.37Z" fill="#231F20"/>
<path d="M350.69 355.58C365.154 355.58 376.88 343.855 376.88 329.39C376.88 314.926 365.154 303.2 350.69 303.2C336.226 303.2 324.5 314.926 324.5 329.39C324.5 343.855 336.226 355.58 350.69 355.58Z" fill="#040809"/>
<path d="M513.08 369.95C532.294 369.95 547.87 354.374 547.87 335.16C547.87 315.946 532.294 300.37 513.08 300.37C493.866 300.37 478.29 315.946 478.29 335.16C478.29 354.374 493.866 369.95 513.08 369.95Z" fill="#F7F8E2"/>
<path d="M547.86 334.56C548.305 339.181 547.763 343.844 546.27 348.24C544.736 352.711 542.298 356.82 539.11 360.31C535.885 363.831 531.98 366.661 527.63 368.63C523.252 370.601 518.519 371.66 513.718 371.74C508.918 371.821 504.152 370.923 499.71 369.1C495.294 367.29 491.292 364.598 487.95 361.19C484.644 357.814 482.067 353.794 480.38 349.38C478.733 345.041 478.024 340.403 478.301 335.77C479.138 344.738 483.267 353.077 489.89 359.18C496.378 365.092 504.881 368.301 513.658 368.149C522.435 367.996 530.821 364.494 537.1 358.36C543.501 352.027 547.334 343.55 547.86 334.56Z" fill="#231F20"/>
<path d="M547.86 334.56C547.02 325.596 542.896 317.258 536.28 311.15C529.792 305.237 521.289 302.029 512.512 302.181C503.736 302.334 495.349 305.836 489.07 311.97C482.666 318.302 478.83 326.78 478.301 335.77C477.863 331.148 478.411 326.485 479.91 322.09C481.437 317.614 483.871 313.502 487.06 310.01C490.284 306.488 494.19 303.658 498.54 301.69C502.916 299.714 507.65 298.653 512.451 298.57C517.252 298.488 522.019 299.386 526.46 301.21C530.879 303.017 534.881 305.709 538.22 309.12C541.53 312.494 544.107 316.514 545.79 320.93C547.447 325.273 548.153 329.921 547.86 334.56Z" fill="#231F20"/>
<path d="M523.73 352.65C536.333 352.65 546.55 342.433 546.55 329.83C546.55 317.227 536.333 307.01 523.73 307.01C511.127 307.01 500.91 317.227 500.91 329.83C500.91 342.433 511.127 352.65 523.73 352.65Z" fill="#040809"/>
<path d="M548.84 303.01C548.283 303.011 547.738 302.853 547.267 302.556C546.796 302.258 546.419 301.833 546.18 301.33C545.59 300.09 531.55 271.51 500.18 275.55C499.406 275.65 498.623 275.437 498.005 274.96C497.388 274.483 496.985 273.78 496.885 273.005C496.786 272.231 496.998 271.448 497.475 270.83C497.952 270.212 498.656 269.81 499.43 269.71C535.13 265.12 551.36 298.47 551.52 298.8C551.686 299.149 551.781 299.528 551.801 299.914C551.82 300.3 551.763 300.687 551.633 301.051C551.503 301.415 551.303 301.749 551.043 302.036C550.783 302.322 550.47 302.555 550.12 302.72C549.722 302.915 549.283 303.014 548.84 303.01Z" fill="#231F20"/>
<path d="M277.06 307.7C276.658 307.699 276.26 307.618 275.89 307.46C275.184 307.138 274.63 306.555 274.345 305.834C274.06 305.112 274.065 304.308 274.36 303.59C274.51 303.25 289.58 269.37 325.42 272.71C326.197 272.783 326.913 273.162 327.411 273.763C327.909 274.364 328.148 275.138 328.075 275.915C328.002 276.692 327.624 277.409 327.023 277.906C326.422 278.404 325.647 278.643 324.87 278.57C293.33 275.63 280.3 304.69 279.76 305.93C279.533 306.457 279.156 306.906 278.676 307.221C278.196 307.535 277.634 307.702 277.06 307.7Z" fill="#231F20"/>
<path d="M549.45 336.46C549.11 329.943 548.412 323.45 547.359 317.01C546.373 310.57 545.106 304.19 543.56 297.87C540.547 285.262 536.438 272.942 531.28 261.05C521.07 237.34 506.189 215.71 487.109 198.72C467.893 181.799 445.134 169.392 420.5 162.41C396.01 155.16 370.13 152.36 344.5 152.59C318.89 153.26 293.13 156.93 268.91 165.05L264.379 166.6C262.869 167.13 261.379 167.73 259.899 168.29C256.899 169.39 254 170.72 251.06 171.95C245.249 174.578 239.575 177.498 234.06 180.7C228.583 183.951 223.279 187.486 218.169 191.29C202.798 202.833 189.594 217.009 179.169 233.16C172.139 243.954 166.247 255.449 161.589 267.46C156.849 279.527 153.169 291.984 150.589 304.69C149.256 311.05 148.21 317.47 147.45 323.95C146.621 330.422 146.147 336.935 146.03 343.46C145.33 330.349 145.963 317.202 147.919 304.22C149.801 291.165 152.867 278.309 157.08 265.81C161.362 253.245 166.946 241.163 173.74 229.76C177.166 224.042 180.932 218.535 185.02 213.27C189.1 207.979 193.509 202.949 198.22 198.21C202.936 193.462 207.917 188.985 213.14 184.8C218.424 180.685 223.933 176.866 229.64 173.36C235.365 169.892 241.262 166.718 247.31 163.85C250.37 162.51 253.39 161.06 256.51 159.85C258.06 159.23 259.599 158.57 261.169 157.99L265.879 156.28C267.439 155.69 269.04 155.2 270.62 154.69C272.2 154.18 273.799 153.69 275.399 153.19L280.22 151.85L282.629 151.18L285.06 150.6L289.919 149.43C291.549 149.05 293.18 148.75 294.81 148.43C296.44 148.11 298.069 147.73 299.709 147.43L304.629 146.59C330.884 142.009 357.692 141.547 384.089 145.22L389.03 145.89C390.68 146.1 392.319 146.43 393.959 146.69C395.599 146.95 397.249 147.23 398.879 147.54L403.78 148.54L406.229 149.04L408.66 149.63L413.52 150.8C415.14 151.21 416.74 151.68 418.35 152.14C419.96 152.6 421.559 153.03 423.149 153.57L427.91 155.11C429.5 155.63 431.059 156.24 432.629 156.8C435.789 157.9 438.859 159.24 441.959 160.48C448.106 163.133 454.114 166.097 459.959 169.36C465.784 172.666 471.42 176.294 476.839 180.23C482.208 184.226 487.343 188.526 492.22 193.11C497.092 197.68 501.671 202.553 505.93 207.7C510.2 212.817 514.154 218.191 517.77 223.79C524.965 234.945 530.965 246.827 535.669 259.24C540.324 271.583 543.838 284.326 546.169 297.31C548.588 310.215 549.687 323.332 549.45 336.46Z" fill="#231F20"/>
<path d="M146.06 343.46C147.46 348.67 148.839 353.86 150.729 358.89C151.559 361.44 152.619 363.89 153.589 366.39C154.109 367.62 154.669 368.83 155.209 370.05L156.03 371.88L156.93 373.67C161.569 383.228 167.417 392.151 174.33 400.22C177.743 404.244 181.418 408.039 185.33 411.58C189.216 415.134 193.324 418.437 197.629 421.47C201.929 424.47 206.359 427.33 210.939 429.93C215.519 432.53 220.249 434.85 225.069 436.93C229.889 439.01 234.81 440.93 239.8 442.67C244.79 444.41 249.799 445.94 254.939 447.3C265.173 449.996 275.567 452.04 286.06 453.42C296.568 454.833 307.142 455.708 317.74 456.04C323.03 456.21 328.339 456.26 333.629 456.16C336.269 456.16 338.92 456.02 341.55 455.89C344.18 455.76 346.869 455.59 349.339 455.36H349.75H350.18C352.65 455.51 355.36 455.59 357.97 455.63C360.58 455.67 363.249 455.63 365.899 455.63C371.186 455.543 376.48 455.317 381.78 454.95C392.357 454.252 402.89 453.01 413.339 451.23C423.778 449.489 434.095 447.087 444.229 444.04C449.289 442.5 454.289 440.78 459.229 438.88C464.159 437.01 469.02 434.94 473.75 432.63C478.48 430.32 483.119 427.83 487.629 425.1C492.139 422.37 496.439 419.35 500.629 416.18C504.827 412.999 508.818 409.556 512.58 405.87C516.363 402.197 519.901 398.278 523.169 394.14C529.802 385.84 535.341 376.722 539.649 367.01L540.479 365.19L541.229 363.34C541.729 362.1 542.229 360.87 542.729 359.62C543.609 357.1 544.59 354.62 545.33 352.02C547.04 346.94 548.249 341.7 549.459 336.44C548.288 347.222 545.838 357.827 542.16 368.03C538.425 378.329 533.329 388.082 527.01 397.03C523.836 401.52 520.358 405.787 516.6 409.8C512.843 413.842 508.835 417.643 504.6 421.18C500.383 424.729 495.962 428.028 491.359 431.06C486.759 434.08 482.02 436.877 477.14 439.45C467.411 444.575 457.256 448.848 446.79 452.22C436.361 455.595 425.729 458.31 414.959 460.35C404.206 462.362 393.349 463.777 382.439 464.59C376.989 465 371.53 465.24 366.05 465.35C363.316 465.41 360.576 465.41 357.83 465.35C355.06 465.35 352.379 465.26 349.479 465.09H350.319C347.429 465.36 344.76 465.52 341.99 465.65C339.22 465.78 336.51 465.85 333.77 465.89C328.3 465.96 322.83 465.89 317.37 465.69C306.437 465.26 295.536 464.218 284.72 462.57C273.885 460.921 263.166 458.583 252.629 455.57C242.053 452.564 231.758 448.646 221.859 443.86C211.905 439.125 202.493 433.325 193.79 426.56C189.443 423.16 185.318 419.486 181.439 415.56C177.542 411.681 173.916 407.538 170.589 403.16C163.966 394.442 158.538 384.877 154.45 374.72C150.425 364.669 147.608 354.175 146.06 343.46Z" fill="#231F20"/>
<path d="M477.589 384.11L440.519 384.75C439.369 379.231 438.651 373.631 438.37 368C438.375 367.964 438.375 367.926 438.37 367.89C438.375 367.787 438.375 367.683 438.37 367.58L438.309 367.33C438.279 367.228 438.242 367.128 438.2 367.03C438.17 366.958 438.137 366.888 438.099 366.82C438.051 366.713 437.991 366.613 437.919 366.52L437.819 366.37C437.729 366.26 437.63 366.16 437.53 366.06L437.45 365.98C437.332 365.879 437.209 365.785 437.079 365.7H437.019C436.883 365.616 436.739 365.546 436.589 365.49H436.499C436.366 365.446 436.228 365.413 436.089 365.39H435.919C435.866 365.385 435.813 365.385 435.76 365.39C435.693 365.385 435.626 365.385 435.559 365.39H435.41H435.3H434.979L434.74 365.44L434.45 365.55L434.22 365.65C434.129 365.697 434.042 365.751 433.959 365.81C433.889 365.86 433.819 365.9 433.749 365.96L433.53 366.15C433.468 366.209 433.411 366.272 433.359 366.34C433.294 366.412 433.234 366.489 433.18 366.57C433.13 366.65 433.079 366.72 433.039 366.8C432.989 366.878 432.949 366.962 432.919 367.05C432.919 367.14 432.839 367.22 432.809 367.31C432.781 367.399 432.758 367.489 432.74 367.58C432.74 367.68 432.739 367.78 432.689 367.88C432.639 367.98 432.689 367.95 432.689 367.99C432.237 373.721 431.324 379.406 429.959 384.99L389.87 385.69C389.87 385.69 384.07 440.92 431.24 440.1C478.41 439.28 477.589 384.11 477.589 384.11Z" fill="#231F20"/>
<path d="M402.99 398.1C398.468 398.179 393.989 398.979 389.72 400.47C391.61 416.77 399.72 440.59 430.78 440.05C435.969 440.013 441.12 439.153 446.04 437.5C445.266 426.672 440.372 416.553 432.364 409.224C424.356 401.895 413.844 397.914 402.99 398.1Z" fill="#F16B6C"/>
<path d="M622.62 232.41C623.19 265.02 500.51 254.64 349.44 257.26C198.37 259.88 76.1296 274.51 75.5596 241.9C74.9896 209.29 196.16 132.06 347.22 129.44C498.28 126.82 622.06 199.81 622.62 232.41Z" fill="#EECA6C"/>
<path d="M75.5597 241.9C75.5096 240.292 75.671 238.685 76.0397 237.12C76.4316 235.554 76.9673 234.027 77.6398 232.56C78.9956 229.622 80.6439 226.828 82.5597 224.22C86.4359 219.054 90.7884 214.263 95.5597 209.91C105.134 201.277 115.454 193.51 126.4 186.7C148.315 173.125 171.564 161.83 195.78 152.99C207.84 148.47 220.097 144.503 232.55 141.09C245.003 137.677 257.553 134.75 270.2 132.31C321.026 122.586 373.145 121.676 424.28 129.62C437.02 131.62 449.666 134.113 462.22 137.1C468.486 138.587 474.72 140.213 480.92 141.98C487.12 143.746 493.27 145.656 499.37 147.71C523.879 155.703 547.505 166.185 569.879 178.99C581.053 185.426 591.638 192.835 601.51 201.13C606.454 205.319 610.991 209.966 615.06 215.01C617.07 217.548 618.816 220.286 620.27 223.18C620.989 224.624 621.578 226.13 622.03 227.68C622.456 229.23 622.671 230.832 622.67 232.44C622.328 229.279 621.267 226.238 619.569 223.55C617.931 220.852 616.025 218.326 613.88 216.01C609.588 211.363 604.871 207.128 599.79 203.36C589.614 195.798 578.819 189.108 567.52 183.36C556.275 177.524 544.725 172.296 532.92 167.7C527.01 165.41 521.089 163.19 515.109 161.11C509.129 159.03 503.11 157.11 497.03 155.29C490.95 153.47 484.87 151.77 478.74 150.22C472.61 148.67 466.46 147.13 460.28 145.8C447.92 143.133 435.473 140.923 422.94 139.17C372.799 132.098 321.857 132.975 271.99 141.77C259.53 143.916 247.166 146.56 234.9 149.7C228.76 151.24 222.68 152.98 216.6 154.75C210.52 156.52 204.49 158.42 198.5 160.45C192.51 162.48 186.499 164.62 180.629 166.9C174.759 169.18 168.88 171.6 163.06 174.1C151.436 179.114 140.087 184.742 129.06 190.96C117.969 197.08 107.412 204.122 97.4996 212.01C92.5533 215.955 87.9866 220.354 83.8595 225.15C81.796 227.54 79.9802 230.133 78.4396 232.89C76.8033 235.633 75.8181 238.716 75.5597 241.9Z" fill="#221F1F"/>
<path d="M622.62 232.41C622.698 233.896 622.518 235.385 622.09 236.81C621.58 238.227 620.848 239.554 619.92 240.74C617.955 243.025 615.581 244.924 612.92 246.34C607.589 249.025 601.946 251.04 596.12 252.34C590.35 253.75 584.5 254.76 578.64 255.59C572.78 256.42 566.91 257.08 561.03 257.64C537.5 259.64 513.94 260.39 490.43 260.82L472.79 261.12L455.17 261.28L419.93 261.55C396.46 261.7 372.99 261.82 349.55 262.32C326.1 262.65 302.65 263.32 279.18 264.01L243.96 264.95L226.34 265.41L208.7 265.72C185.18 266.11 161.62 266.23 138.03 264.99C132.13 264.63 126.24 264.18 120.36 263.55C114.459 262.961 108.592 262.077 102.78 260.9C96.9802 259.63 91.1602 258.14 85.7802 255.45C83.0648 254.126 80.6193 252.309 78.5697 250.09C77.603 248.935 76.824 247.636 76.2602 246.24C75.7928 244.827 75.5629 243.347 75.58 241.86C75.699 243.313 76.0605 244.736 76.6498 246.07C77.2963 247.353 78.1399 248.527 79.1498 249.55C81.2743 251.486 83.7393 253.012 86.4198 254.05C91.8462 256.086 97.502 257.45 103.26 258.11C114.848 259.48 126.512 260.104 138.18 259.98C149.87 259.98 161.58 259.73 173.29 259.28C185 258.83 196.72 258.36 208.44 257.76L226.03 256.86L243.62 256.01L278.83 254.35C302.317 253.357 325.83 252.613 349.37 252.12C372.91 251.813 396.433 251.743 419.94 251.91L455.19 252.36L490.41 252.89C502.14 253.08 513.87 253.13 525.59 253.19C537.31 253.25 549.02 253.12 560.71 252.66C572.374 252.383 584.008 251.354 595.54 249.58C601.273 248.72 606.878 247.158 612.23 244.93C614.874 243.802 617.285 242.191 619.34 240.18C620.315 239.125 621.118 237.924 621.72 236.62C622.256 235.278 622.56 233.854 622.62 232.41Z" fill="#221F1F"/>
<path d="M189.819 191.6C189.819 191.6 193.579 81.3298 226.819 46.3298C226.819 46.3298 294.979 5.42979 347.629 4.51979C400.279 3.60979 470.629 42.0999 470.629 42.0999C470.629 42.0999 517.44 147.83 511.06 186.01C511.06 186.01 409.74 223.44 348.85 224.5C287.96 225.56 189.819 191.6 189.819 191.6Z" fill="#EECA6C"/>
<path d="M511.06 186.01C512.63 176.56 510.95 163.01 507.53 147.87C507.53 147.87 480.26 168.04 425.81 168.99C371.36 169.94 192.93 153.33 192.93 153.33C190.37 175.33 189.81 191.58 189.81 191.58C189.81 191.58 360.6 226.3 427.81 215.78C488.06 206.39 511.06 186.01 511.06 186.01Z" fill="#6874B5"/>
<path d="M470.61 42.1001C476.27 53.3401 481.48 64.8001 486.46 76.3601C491.44 87.9201 496.1 99.64 500.31 111.54C502.43 117.487 504.447 123.487 506.36 129.54C508.273 135.593 509.973 141.71 511.46 147.89C513.014 154.119 514.246 160.424 515.15 166.78C515.614 170.029 515.902 173.3 516.01 176.58C516.134 179.989 515.956 183.402 515.48 186.78L515.35 187.71L514.82 188.49C514.46 189.02 514.32 189.16 514.11 189.43C513.9 189.7 513.73 189.87 513.54 190.08C513.19 190.476 512.82 190.853 512.43 191.21C511.7 191.94 510.96 192.55 510.21 193.21C508.751 194.396 507.229 195.501 505.65 196.52C504.12 197.58 502.53 198.42 500.97 199.37C499.41 200.32 497.79 201.07 496.18 201.87C489.803 204.949 483.221 207.582 476.48 209.75L471.48 211.39L466.48 212.83C463.12 213.83 459.73 214.65 456.35 215.51C452.97 216.37 449.57 217.09 446.17 217.83C442.77 218.57 439.29 219.3 435.8 219.83C428.8 220.96 421.8 221.67 414.85 222.1C407.9 222.53 400.91 222.73 393.95 222.75C380.05 222.75 366.21 221.98 352.42 220.88C338.63 219.78 324.92 218.14 311.26 216.28C304.43 215.33 297.6 214.35 290.8 213.28C284 212.21 277.21 210.99 270.43 209.76C256.87 207.34 243.43 204.53 229.95 201.58C216.47 198.63 203.13 195.37 189.87 191.7C216.977 196.32 244.13 200.43 271.33 204.03C278.13 204.91 284.934 205.74 291.74 206.52C298.54 207.3 305.35 208.09 312.16 208.77C325.78 210.16 339.42 211.2 353.04 212.05C366.66 212.9 380.3 213.25 393.88 213.05C407.369 212.985 420.835 211.932 434.17 209.9C437.47 209.39 440.69 208.71 444.03 207.96C447.37 207.21 450.66 206.55 453.93 205.7C457.2 204.85 460.51 204.12 463.75 203.17L468.62 201.8L473.43 200.31C479.794 198.35 486.035 196.012 492.12 193.31C493.61 192.62 495.07 191.89 496.53 191.17C497.99 190.45 499.41 189.66 500.73 188.8C502.067 188.002 503.359 187.131 504.6 186.19C505.19 185.73 505.79 185.27 506.29 184.8C506.544 184.588 506.785 184.361 507.01 184.12L507.3 183.82C507.36 183.75 507.51 183.57 507.39 183.74L506.73 185.45C507.67 179.99 507.41 173.91 506.87 167.89C506.238 161.782 505.294 155.711 504.04 149.7C502.82 143.63 501.35 137.59 499.79 131.56C498.23 125.53 496.58 119.56 494.79 113.56C491.2 101.56 487.4 89.64 483.31 77.79C479.22 65.94 474.99 53.8901 470.61 42.1001Z" fill="#221F1F"/>
<path d="M189.82 191.6C189.73 188.42 189.73 185.24 189.75 182.07C189.77 178.9 189.84 175.71 189.95 172.53C190.16 166.17 190.47 159.82 190.95 153.47C191.857 140.757 193.364 128.09 195.47 115.47C196.51 109.15 197.783 102.867 199.29 96.6201C200.81 90.3701 202.46 84.13 204.54 77.98C206.596 71.7587 209.089 65.6904 212 59.8201C214.971 53.7218 218.778 48.0673 223.31 43.02L223.73 42.5801L224.33 42.21C229.11 39.31 233.83 36.7101 238.65 34.1301C243.47 31.5501 248.32 29.13 253.24 26.72C263.08 22.01 273.1 17.6301 283.36 13.8201C288.5 11.9201 293.66 10.08 298.92 8.47998C304.18 6.87998 309.47 5.39991 314.86 4.15991C325.687 1.54558 336.773 0.150333 347.91 0C359.01 0.174926 370.057 1.5733 380.85 4.16992C386.21 5.38992 391.48 6.86995 396.71 8.44995C401.94 10.03 407.07 11.87 412.18 13.75C422.39 17.51 432.33 21.8901 442.1 26.5801C451.85 31.2743 461.358 36.4541 470.59 42.1001C450.993 33.2516 430.856 25.6497 410.3 19.3401C405.18 17.8201 400.04 16.3399 394.86 15.1399C389.68 13.9399 384.5 12.69 379.29 11.79C369.003 9.79392 358.538 8.86231 348.06 9.01001C342.872 9.21576 337.7 9.71993 332.57 10.52C327.41 11.31 322.28 12.4599 317.17 13.6899C306.922 16.3124 296.833 19.5177 286.95 23.29C277.037 27.0767 267.257 31.2501 257.61 35.8101C252.8 38.0901 248.01 40.4201 243.27 42.8701C238.53 45.3201 233.8 47.8699 229.27 50.4199L230.27 49.6101C226.234 53.9393 222.799 58.793 220.06 64.04C217.175 69.4525 214.646 75.0478 212.49 80.79C208.15 92.5145 204.618 104.523 201.92 116.73C200.47 122.85 199.21 129.02 198.05 135.22C196.89 141.42 195.76 147.64 194.8 153.89C192.9 166.41 191.16 179.01 189.82 191.6Z" fill="#221F1F"/>
<path d="M192.939 153.35C219.419 156.35 245.84 159.11 272.27 161.35C298.7 163.59 325.12 165.35 351.53 166.04C377.94 166.73 404.36 166.47 430.53 163.98C433.81 163.72 437.06 163.28 440.33 162.91C443.6 162.54 446.84 162.08 450.08 161.6C456.57 160.66 463.079 159.6 469.609 158.5C472.839 157.89 476.099 157.34 479.319 156.65C480.949 156.35 482.55 156 484.16 155.65C485.77 155.3 487.38 154.93 488.97 154.53C492.17 153.72 495.36 152.89 498.49 151.85C500.05 151.33 501.61 150.79 503.14 150.16C504.69 149.574 506.169 148.816 507.55 147.9C506.389 149.13 505.075 150.205 503.64 151.1C502.238 152.045 500.786 152.913 499.29 153.7C496.313 155.298 493.252 156.734 490.12 158C488.56 158.65 487 159.27 485.41 159.85C483.82 160.43 482.26 161.04 480.66 161.58C477.48 162.67 474.27 163.66 471.04 164.58C467.81 165.5 464.579 166.44 461.319 167.22L456.43 168.43C454.8 168.85 453.13 169.11 451.49 169.43C448.18 170.09 444.87 170.78 441.55 171.28C438.23 171.78 434.9 172.39 431.55 172.79C404.87 176.39 377.949 177.02 351.209 176.1C324.493 175.123 297.848 172.713 271.39 168.88C258.176 166.993 245.023 164.767 231.93 162.2C218.85 159.66 205.809 156.87 192.939 153.35Z" fill="#221F1F"/>
<path d="M341.74 397.01C327.213 396.97 313.024 392.624 300.967 384.52C288.911 376.417 279.528 364.92 274.005 351.483C268.482 338.047 267.068 323.275 269.941 309.035C272.814 294.795 279.845 281.726 290.145 271.482C300.445 261.238 313.552 254.278 327.807 251.483C342.063 248.688 356.827 250.182 370.233 255.778C383.639 261.374 395.085 270.819 403.123 282.92C411.16 295.021 415.43 309.233 415.39 323.76C415.316 343.234 407.52 361.883 393.712 375.615C379.905 389.348 361.214 397.042 341.74 397.01ZM342.1 264.84C330.486 264.809 319.124 268.221 309.45 274.647C299.776 281.073 292.225 290.223 287.751 300.941C283.278 311.659 282.083 323.462 284.317 334.859C286.552 346.255 292.116 356.733 300.306 364.968C308.496 373.202 318.943 378.823 330.328 381.12C341.712 383.417 353.522 382.286 364.264 377.871C375.005 373.456 384.196 365.955 390.675 356.316C397.153 346.677 400.628 335.334 400.66 323.72C400.681 308.148 394.522 293.204 383.536 282.168C372.549 271.133 357.632 264.908 342.06 264.86L342.1 264.84Z" fill="#221E57"/>
<path opacity="0.37" d="M395.703 345.733C408.192 315.804 394.054 281.417 364.125 268.929C334.196 256.44 299.81 270.578 287.321 300.507C274.832 330.436 288.97 364.822 318.899 377.311C348.828 389.8 383.214 375.662 395.703 345.733Z" fill="#69A9DC"/>
<path opacity="0.44" d="M313.979 375.2L394.18 350.35C398.445 342.064 400.669 332.879 400.669 323.56C400.669 314.241 398.445 305.056 394.18 296.77L284.18 333.77C285.72 342.469 289.198 350.71 294.357 357.882C299.516 365.054 306.222 370.973 313.979 375.2Z" fill="white"/>
<path d="M517.06 387.67C503.464 387.634 490.185 383.567 478.9 375.984C467.615 368.401 458.833 357.642 453.663 345.067C448.494 332.492 447.169 318.667 449.858 305.339C452.546 292.012 459.125 279.781 468.765 270.193C478.404 260.605 490.671 254.091 504.013 251.475C517.355 248.858 531.173 250.257 543.719 255.494C556.266 260.731 566.978 269.572 574.5 280.897C582.023 292.222 586.018 305.524 585.98 319.12C585.911 337.343 578.616 354.795 565.695 367.647C552.775 380.498 535.284 387.699 517.06 387.67ZM517.39 263.98C506.509 263.942 495.86 267.133 486.793 273.15C477.725 279.166 470.646 287.736 466.451 297.777C462.256 307.818 461.134 318.877 463.227 329.556C465.319 340.235 470.533 350.053 478.207 357.767C485.881 365.482 495.671 370.747 506.339 372.896C517.006 375.045 528.072 373.981 538.134 369.84C548.197 365.698 556.805 358.664 562.869 349.628C568.933 340.593 572.18 329.962 572.2 319.08C572.219 304.517 566.461 290.541 556.19 280.218C545.919 269.894 531.973 264.065 517.41 264.01L517.39 263.98Z" fill="#221E57"/>
<path opacity="0.37" d="M567.529 339.632C579.216 311.625 565.985 279.446 537.978 267.759C509.97 256.072 477.792 269.302 466.105 297.309C454.418 325.317 467.648 357.496 495.655 369.183C523.663 380.87 555.842 367.639 567.529 339.632Z" fill="#69A9DC"/>
<path opacity="0.44" d="M491.06 367.25L566.12 343.99C570.115 336.235 572.2 327.638 572.2 318.915C572.2 310.191 570.115 301.594 566.12 293.84L463.12 328.52C464.577 336.657 467.844 344.362 472.681 351.066C477.517 357.77 483.798 363.301 491.06 367.25Z" fill="white"/>
<path d="M462.78 329.01H451.959C451.857 323.718 449.687 318.676 445.913 314.964C442.139 311.252 437.062 309.166 431.769 309.151C426.475 309.137 421.387 311.196 417.593 314.887C413.799 318.578 411.601 323.608 411.47 328.9H400.649C400.816 320.757 404.174 313.005 410 307.313C415.825 301.621 423.653 298.444 431.798 298.466C439.943 298.488 447.753 301.708 453.548 307.432C459.342 313.156 462.658 320.926 462.78 329.07V329.01Z" fill="#221E57"/>
<path d="M261.649 682.65C274.449 662.65 278.39 710.86 102.53 722C102.53 722 94.1298 755 76.7598 755.2C59.3898 755.4 37.2894 704.85 57.3794 678.52C77.4694 652.19 116.38 639.02 149.97 634.15C156.68 606.56 226.8 569.01 265.04 578.36C265.06 578.36 293.589 622.07 261.649 682.65Z" fill="#C9C3C7"/>
<path d="M261.649 682.65C261.212 683.402 260.674 684.092 260.05 684.7C259.443 685.328 258.798 685.919 258.12 686.47C256.767 687.576 255.348 688.598 253.87 689.53C250.924 691.402 247.865 693.088 244.71 694.58C241.56 696.08 238.369 697.5 235.129 698.77C231.889 700.04 228.619 701.24 225.319 702.37C212.134 706.784 198.722 710.486 185.14 713.46C171.573 716.42 157.943 719.016 144.25 721.25C130.57 723.46 116.839 725.34 103.089 727.01L107.41 723.24C107.04 724.67 106.69 725.85 106.29 727.13C105.89 728.41 105.47 729.63 105.02 730.86C104.13 733.33 103.15 735.77 102.02 738.18C99.8061 743.219 96.8499 747.897 93.2496 752.06C91.2251 754.351 88.8404 756.297 86.1895 757.82C83.2264 759.512 79.8717 760.398 76.4595 760.39C74.6036 760.349 72.7693 759.984 71.0396 759.31C69.5016 758.716 68.0385 757.944 66.6797 757.01C64.2466 755.316 62.0561 753.297 60.1695 751.01C56.6789 746.807 53.7729 742.151 51.5298 737.17C49.3047 732.333 47.5627 727.289 46.3296 722.11C45.0959 716.903 44.4254 711.579 44.3296 706.23C44.2068 700.755 44.8806 695.291 46.3296 690.01C47.0666 687.303 48.0716 684.677 49.3296 682.17C50.584 679.639 52.1094 677.251 53.8794 675.05C57.1867 670.919 60.869 667.102 64.8794 663.65C68.846 660.268 73.0616 657.189 77.4898 654.44C81.8536 651.697 86.3933 649.245 91.0796 647.1C100.354 642.86 109.98 639.437 119.85 636.87C129.644 634.37 139.597 632.539 149.64 631.39L147.54 632.95C148.2 631.63 148.83 630.56 149.54 629.41C150.25 628.26 150.93 627.19 151.66 626.11C153.13 623.96 154.66 621.89 156.33 619.87C159.592 615.858 163.142 612.088 166.95 608.59C174.49 601.626 182.936 595.713 192.06 591.01C201.178 586.373 210.825 582.861 220.79 580.55C230.69 578.292 240.797 577.065 250.95 576.89C240.889 577.686 230.931 579.471 221.22 582.22C211.567 584.938 202.281 588.823 193.569 593.79C184.905 598.711 176.936 604.764 169.87 611.79C166.368 615.281 163.12 619.017 160.149 622.97C158.669 624.97 157.27 626.97 155.96 629.04C155.3 630.04 154.669 631.12 154.069 632.18C153.469 633.24 152.88 634.35 152.43 635.3C152.246 635.7 151.968 636.051 151.62 636.321C151.272 636.59 150.863 636.772 150.43 636.85H150.319C140.647 638.558 131.097 640.896 121.73 643.85C112.432 646.702 103.398 650.352 94.7295 654.76C86.191 659.054 78.2422 664.432 71.0796 670.76C67.6041 673.891 64.424 677.336 61.5796 681.05C58.9493 684.51 57.0354 688.461 55.9498 692.67C53.6598 701.21 54.1897 710.67 56.3697 719.67C57.4636 724.178 58.994 728.569 60.9395 732.78C62.8019 736.887 65.2031 740.727 68.0796 744.2C69.3795 745.759 70.8753 747.144 72.5298 748.32C73.7105 749.224 75.1197 749.782 76.5997 749.93C78.1948 749.917 79.7593 749.489 81.1397 748.69C82.8064 747.716 84.3055 746.48 85.5796 745.03C88.4896 741.64 90.9008 737.851 92.7398 733.78C93.7398 731.68 94.6398 729.51 95.4698 727.31C95.8798 726.2 96.2694 725.09 96.6294 723.97C96.9894 722.85 97.3594 721.68 97.6294 720.7V720.59C97.8939 719.618 98.4461 718.748 99.2134 718.095C99.9807 717.442 100.928 717.035 101.93 716.93C115.623 715.51 129.29 713.956 142.93 712.27C156.57 710.56 170.19 708.72 183.73 706.39C190.51 705.32 197.26 704.07 204 702.75C210.74 701.43 217.419 699.92 224.069 698.25C227.389 697.41 230.7 696.51 233.98 695.52C237.26 694.53 240.53 693.52 243.75 692.35C246.968 691.177 250.126 689.842 253.21 688.35C254.75 687.608 256.246 686.777 257.689 685.86C258.41 685.39 259.11 684.86 259.78 684.37C260.48 683.886 261.109 683.307 261.649 682.65Z" fill="#231F20"/>
<path d="M288.59 536.65C288.59 536.65 281.1 536.12 286.43 576.92C291.38 614.85 312.34 637.03 291.21 653.52C273.43 667.39 249.21 628.75 235.61 590.16C220.2 546.46 223.03 490.7 223.03 490.7" fill="#C9C3C7"/>
<path d="M288.59 536.65C288.226 536.808 287.902 537.044 287.639 537.341C287.377 537.639 287.182 537.99 287.07 538.37C286.787 539.112 286.589 539.884 286.48 540.67C286.244 542.259 286.144 543.865 286.18 545.47C286.233 548.714 286.47 551.953 286.89 555.17C287.25 558.4 287.71 561.63 288.25 564.85C288.79 568.07 289.32 571.29 289.91 574.51C290.904 580.871 292.283 587.166 294.04 593.36C295.81 599.56 297.88 605.72 300.04 612.02C301.1 615.18 302.12 618.39 303.04 621.72C304.032 625.157 304.721 628.674 305.1 632.23C305.523 636.154 305.153 640.123 304.01 643.9C302.755 647.764 300.602 651.277 297.73 654.15C297.04 654.85 296.34 655.5 295.61 656.15C294.88 656.8 294.2 657.32 293.28 657.98C291.435 659.278 289.362 660.218 287.17 660.75C284.935 661.263 282.619 661.324 280.36 660.93C278.27 660.57 276.247 659.896 274.36 658.93C271.003 657.181 267.932 654.932 265.25 652.26C262.717 649.793 260.377 647.135 258.25 644.31C254.154 638.825 250.506 633.02 247.34 626.95C244.195 620.989 241.358 614.872 238.84 608.62C236.33 602.38 234.08 596.08 232.13 589.62C230.12 583.21 228.451 576.697 227.13 570.11C225.8 563.55 224.79 556.95 224.05 550.33C223.31 543.71 222.76 537.08 222.43 530.44C221.768 517.195 221.962 503.921 223.01 490.7C223.06 497.31 223.35 503.91 223.77 510.5C224.19 517.09 224.77 523.65 225.52 530.19C226.938 543.242 229.213 556.187 232.33 568.94C233.898 575.256 235.797 581.485 238.02 587.6C240.33 593.69 242.91 599.71 245.68 605.6C248.45 611.49 251.44 617.26 254.68 622.84C257.857 628.38 261.432 633.681 265.38 638.7C267.3 641.106 269.381 643.378 271.61 645.5C273.647 647.471 275.966 649.129 278.49 650.42C280.457 651.486 282.732 651.84 284.93 651.42C285.953 651.156 286.916 650.701 287.77 650.08C288.19 649.78 288.77 649.3 289.32 648.84C289.87 648.38 290.32 647.91 290.83 647.42C292.666 645.617 294.053 643.407 294.88 640.97C295.652 638.396 295.897 635.692 295.6 633.02C295.14 627.25 293.19 621.02 291.3 614.78C289.41 608.54 287.35 602.08 285.79 595.49C284.136 588.901 283.016 582.189 282.44 575.42C281.935 568.712 281.855 561.979 282.2 555.26C282.33 553.57 282.47 551.88 282.69 550.2C282.879 548.502 283.163 546.816 283.54 545.15C283.914 543.469 284.432 541.822 285.09 540.23C285.443 539.427 285.889 538.669 286.42 537.97C286.692 537.621 287.008 537.309 287.36 537.04C287.71 536.768 288.146 536.629 288.59 536.65Z" fill="#221F1F"/>
</g>
<defs>
<clipPath id="clip0_4357_654">
<rect width="622.63" height="913.33" fill="white"/>
</clipPath>
</defs>
</svg>
