<svg width="531" height="514" viewBox="0 0 531 514" fill="none" xmlns="http://www.w3.org/2000/svg">
<g clip-path="url(#clip0_4977_611)">
<path d="M500.681 213.269C500.681 212.629 500.591 211.999 500.521 211.319V210.949C500.33 209.083 500.047 207.227 499.671 205.389L499.491 204.539C498.346 199.262 496.464 194.172 493.901 189.419C492.576 186.953 491.068 184.59 489.391 182.349C485.969 177.762 481.853 173.737 477.191 170.419C476.001 169.569 474.771 168.759 473.541 168.039C473.231 167.849 472.901 167.659 472.541 167.479L472.421 167.409C471.821 167.069 471.221 166.749 470.611 166.409L470.461 166.329L469.611 165.899L468.781 165.509L468.641 165.449C467.881 165.089 467.101 164.759 466.331 164.449C465.221 163.989 464.271 163.629 463.331 163.309C459.646 162.047 455.838 161.176 451.971 160.709C450.391 160.509 448.771 160.379 447.161 160.319C446.361 160.319 445.541 160.269 444.721 160.269H367.321C366.851 160.269 366.321 160.269 365.661 160.209H365.441C364.911 160.209 364.441 160.119 363.861 160.049H363.661C362.54 159.895 361.43 159.664 360.341 159.359L359.201 159.019C357.277 158.387 355.434 157.531 353.711 156.469C353.141 156.119 352.581 155.739 352.041 155.349C350.952 154.559 349.926 153.686 348.971 152.739C346.054 149.827 343.868 146.267 342.591 142.349L318.671 68.7393C315.372 58.3699 309.116 49.1905 300.671 42.3293C290.64 34.3372 278.186 30.0022 265.361 30.0393C258.368 30.0249 251.432 31.2996 244.901 33.7993C243.591 34.2993 242.281 34.8592 240.991 35.4692C240.361 35.7692 239.731 36.0794 239.091 36.4094C226.179 43.2031 216.474 54.8233 212.091 68.7393L188.171 142.349C188.061 142.679 187.941 143.009 187.821 143.349C187.581 143.999 187.311 144.639 187.021 145.279C186.731 145.919 186.421 146.509 186.081 147.109C184.248 150.353 181.739 153.164 178.725 155.354C175.711 157.543 172.262 159.059 168.611 159.799C167.598 160.008 166.572 160.151 165.541 160.229C164.841 160.289 164.131 160.319 163.441 160.319H86.0406C64.2206 160.319 45.4806 171.899 35.9106 191.319C34.0693 195.055 32.6343 198.977 31.6306 203.019C30.6309 207.081 30.0744 211.238 29.9707 215.419C29.9707 216.119 29.9707 216.819 29.9707 217.529C30.0901 228.528 33.5343 239.234 39.8507 248.239C40.2907 248.859 40.7407 249.469 41.2107 250.089C42.1507 251.309 43.1507 252.509 44.2107 253.659C46.9106 256.623 49.9061 259.304 53.1506 261.659L115.771 307.149C117.448 308.376 118.975 309.796 120.321 311.379C121.194 312.416 121.989 313.516 122.701 314.669C123.744 316.394 124.586 318.233 125.211 320.149L125.511 321.149C126.159 323.427 126.496 325.782 126.511 328.149C126.511 328.819 126.511 329.509 126.441 330.149C126.441 330.489 126.381 330.839 126.341 331.149C126.301 331.459 126.231 331.949 126.171 332.359C126.111 332.769 125.971 333.439 125.851 333.989C125.671 334.789 125.461 335.539 125.231 336.239L101.311 409.849C97.6386 420.865 97.5058 432.754 100.931 443.849C102.649 449.309 105.206 454.467 108.511 459.139C109.321 460.279 110.181 461.399 111.061 462.469C112.386 464.081 113.798 465.62 115.291 467.079C116.291 468.079 117.291 468.979 118.391 469.879C123.168 473.915 128.573 477.145 134.391 479.439C135.681 479.949 137.011 480.439 138.391 480.839C139.771 481.239 141.101 481.619 142.471 481.929C146.488 482.854 150.598 483.32 154.721 483.319H155.291L157.391 483.259C159.773 483.135 162.144 482.858 164.491 482.429C167.079 481.946 169.629 481.278 172.121 480.429C172.627 480.256 173.137 480.076 173.651 479.889L173.851 479.819L174.991 479.379C175.711 479.089 176.421 478.789 177.121 478.469L177.501 478.299C178.991 477.609 180.501 476.839 181.951 476.009C182.811 475.519 183.701 475.009 184.611 474.399C185.701 473.699 186.611 473.069 187.501 472.399L250.111 426.909C252.346 425.287 254.823 424.028 257.451 423.179L258.451 422.889C260.382 422.357 262.369 422.048 264.371 421.969H264.521H265.431C266.77 421.973 268.107 422.076 269.431 422.279C270.443 422.434 271.445 422.651 272.431 422.929C272.751 423.019 273.081 423.109 273.431 423.219C273.781 423.329 274.381 423.539 274.951 423.769C275.321 423.909 275.691 424.059 276.061 424.229L276.361 424.359C276.891 424.599 277.451 424.889 278.011 425.189C278.963 425.714 279.882 426.298 280.761 426.939L343.381 472.429C350.915 478.002 359.734 481.582 369.021 482.839C370.471 483.029 371.951 483.169 373.431 483.249C374.151 483.249 374.881 483.249 375.611 483.309H376.161C387.399 483.225 398.362 479.821 407.671 473.524C416.98 467.228 424.22 458.319 428.481 447.919C431.872 439.563 433.117 430.49 432.101 421.529C431.658 417.549 430.807 413.625 429.561 409.819L405.641 336.209C405.325 335.224 405.061 334.222 404.851 333.209C404.588 331.867 404.434 330.506 404.391 329.139C404.157 322.663 406.35 316.333 410.541 311.389C411.431 310.34 412.405 309.364 413.451 308.469C413.971 308.019 414.531 307.589 415.091 307.169L477.711 261.679C482.219 258.419 486.233 254.525 489.631 250.119C490.101 249.509 490.551 248.899 490.981 248.279C491.411 247.659 491.841 247.029 492.261 246.379C492.681 245.729 493.071 245.099 493.441 244.459C494.191 243.179 494.891 241.849 495.531 240.459C496.799 237.813 497.849 235.067 498.671 232.249C499.071 230.879 499.421 229.469 499.671 228.069C499.921 226.669 500.201 225.269 500.381 223.849C500.561 222.429 500.691 221.039 500.761 219.629C500.855 217.51 500.829 215.386 500.681 213.269Z" fill="#231F20"/>
<path d="M304.391 73.3296L328.301 146.94C330.975 155.177 336.189 162.356 343.196 167.447C350.202 172.538 358.64 175.28 367.301 175.28H444.701C484.421 175.28 500.941 226.109 468.801 249.459L406.181 294.949C399.171 300.041 393.954 307.223 391.279 315.464C388.604 323.705 388.608 332.581 391.291 340.82L415.211 414.43C427.481 452.21 384.211 483.63 352.111 460.28L289.491 414.78C282.486 409.69 274.05 406.949 265.391 406.949C256.732 406.949 248.296 409.69 241.291 414.78L178.671 460.28C146.531 483.63 103.301 452.21 115.571 414.43L139.491 340.82C142.166 332.584 142.165 323.714 139.489 315.479C136.812 307.244 131.597 300.068 124.591 294.979L61.9812 249.49C29.8412 226.139 46.3612 175.31 86.0812 175.31H163.481C172.142 175.31 180.58 172.568 187.587 167.477C194.593 162.386 199.807 155.207 202.481 146.969L226.401 73.3596C238.671 35.5596 292.111 35.5596 304.391 73.3296Z" fill="#FAF28C"/>
<g style="mix-blend-mode:multiply" opacity="0.51">
<path d="M241.291 414.749C248.295 409.659 256.732 406.918 265.391 406.918C274.049 406.918 282.486 409.659 289.491 414.749L352.111 460.249C384.241 483.599 427.481 452.179 415.211 414.399L391.291 340.819C388.614 332.585 388.614 323.715 391.289 315.48C393.963 307.245 399.176 300.069 406.181 294.979L468.801 249.489C500.941 226.139 484.421 175.309 444.701 175.309H367.301C363.582 175.307 359.882 174.799 356.301 173.799C356.301 173.799 411.301 360.849 126.671 380.309L115.581 414.429C103.311 452.209 146.581 483.629 178.681 460.279L241.291 414.749Z" fill="#F0CC6D"/>
</g>
<g style="mix-blend-mode:multiply" opacity="0.51">
<path d="M159.191 409.319C145.495 409.321 131.822 408.193 118.311 405.948L115.561 414.399C103.291 452.179 146.561 483.599 178.661 460.249L241.281 414.749C248.286 409.659 256.722 406.918 265.381 406.918C274.04 406.918 282.476 409.659 289.481 414.749L352.101 460.249C384.231 483.599 427.471 452.179 415.201 414.399L391.291 340.819C388.616 332.583 388.617 323.713 391.293 315.478C393.97 307.243 399.185 300.067 406.191 294.979L468.801 249.489C500.941 226.139 484.421 175.309 444.701 175.309H406.101C399.241 305.689 291.321 409.319 159.191 409.319Z" fill="#F0CC6D"/>
</g>
<path d="M417.251 222.049C432.058 222.049 444.061 215.817 444.061 208.129C444.061 200.441 432.058 194.209 417.251 194.209C402.445 194.209 390.441 200.441 390.441 208.129C390.441 215.817 402.445 222.049 417.251 222.049Z" fill="white"/>
<path d="M314.2 175.012C321.254 172.904 323.491 159.548 319.197 145.181C314.903 130.815 305.704 120.877 298.651 122.986C291.597 125.094 289.36 138.449 293.653 152.816C297.947 167.182 307.146 177.12 314.2 175.012Z" fill="white"/>
<path d="M285.051 125.909C288.508 125.909 291.311 123.106 291.311 119.649C291.311 116.191 288.508 113.389 285.051 113.389C281.594 113.389 278.791 116.191 278.791 119.649C278.791 123.106 281.594 125.909 285.051 125.909Z" fill="white"/>
<path d="M380.761 203.78C385.389 203.78 389.141 200.028 389.141 195.4C389.141 190.771 385.389 187.02 380.761 187.02C376.133 187.02 372.381 190.771 372.381 195.4C372.381 200.028 376.133 203.78 380.761 203.78Z" fill="white"/>
<path d="M233.09 273.3C242.396 273.3 249.94 265.756 249.94 256.45C249.94 247.144 242.396 239.6 233.09 239.6C223.784 239.6 216.24 247.144 216.24 256.45C216.24 265.756 223.784 273.3 233.09 273.3Z" fill="#070B0C"/>
<path d="M228.6 259.46C232.935 259.46 236.45 255.945 236.45 251.61C236.45 247.274 232.935 243.76 228.6 243.76C224.265 243.76 220.75 247.274 220.75 251.61C220.75 255.945 224.265 259.46 228.6 259.46Z" fill="white"/>
<path d="M297.69 273.3C306.996 273.3 314.54 265.756 314.54 256.45C314.54 247.144 306.996 239.6 297.69 239.6C288.384 239.6 280.84 247.144 280.84 256.45C280.84 265.756 288.384 273.3 297.69 273.3Z" fill="#070B0C"/>
<path d="M293.202 259.46C297.537 259.46 301.052 255.945 301.052 251.61C301.052 247.274 297.537 243.76 293.202 243.76C288.866 243.76 285.352 247.274 285.352 251.61C285.352 255.945 288.866 259.46 293.202 259.46Z" fill="white"/>
<path d="M214.791 233.728C214.791 233.728 227.091 220.549 243.351 231.529" stroke="#231F20" stroke-width="2.58" stroke-miterlimit="10" stroke-linecap="round"/>
<path d="M315.99 233.728C315.99 233.728 303.69 220.549 287.43 231.529" stroke="#231F20" stroke-width="2.58" stroke-miterlimit="10" stroke-linecap="round"/>
<path d="M256.021 271.93C256.021 271.93 256.471 279.93 264.661 279.93C272.851 279.93 272.661 271.93 272.661 271.93" stroke="#231F20" stroke-width="2.58" stroke-miterlimit="10" stroke-linecap="round"/>
</g>
<defs>
<clipPath id="clip0_4977_611">
<rect width="470.79" height="453.26" fill="white" transform="translate(30 30)"/>
</clipPath>
</defs>
</svg>
