<svg width="604" height="567" viewBox="0 0 604 567" fill="none" xmlns="http://www.w3.org/2000/svg">
<g clip-path="url(#clip0_5095_1158)">
<path d="M101.073 566.119C89.6706 566.104 78.3967 563.711 67.9716 559.092C57.5466 554.473 48.1997 547.73 40.5282 539.294C26.8198 524.246 19.2347 504.616 19.2633 484.26V335.147C19.2014 332.597 19.6665 330.061 20.6297 327.699C21.5928 325.337 23.0332 323.199 24.8606 321.419L97.7616 250.409L35.1656 152.363C11.8373 145.197 -2.7429 126.304 0.432614 105.793C1.59867 98.1664 3.34598 90.6402 5.65926 83.2801C5.83224 82.7488 6.01759 82.2298 6.24 81.7109C16.5944 50.4747 46.3479 0 130.369 0H472.831C504.475 0 531.251 7.17889 552.417 21.3513C552.812 21.5861 553.207 21.8209 553.578 22.0927C587.051 45.0627 598.801 80.3517 602.768 105.916C605.894 126.069 591.647 144.789 568.788 152.128L513.445 244.91C522.441 249.853 528.396 257.588 529.891 266.941C529.891 267.127 529.891 267.299 529.99 267.485L588.398 321.036C588.785 321.39 589.155 321.761 589.51 322.148C592.682 325.559 594.448 330.044 594.452 334.702V484.211C594.423 505.908 585.792 526.708 570.452 542.053C555.112 557.397 534.315 566.034 512.618 566.07L101.073 566.119Z" fill="#231F20"/>
<path d="M486.941 253.151L561.498 128.145H41.6895L121.497 253.151H486.941Z" fill="#B26928"/>
<path d="M131.653 234.618L75.5195 146.68H528.865L476.413 234.618H131.653Z" fill="#4F2A10"/>
<path d="M472.83 18.5332H130.369C46.2238 18.5332 24.2423 73.6414 18.7685 108.659C16.4085 123.745 33.7071 136.892 55.911 136.868L301.6 136.559L547.288 136.868C569.529 136.868 586.828 123.745 584.431 108.659C578.957 73.6414 556.975 18.5332 472.83 18.5332Z" fill="#FEBF10"/>
<path d="M301.601 87.1109C442.893 87.1109 557.434 73.22 557.434 56.0848C557.434 38.9495 442.893 25.0586 301.601 25.0586C160.308 25.0586 45.7676 38.9495 45.7676 56.0848C45.7676 73.22 160.308 87.1109 301.601 87.1109Z" fill="#FFE375"/>
<path d="M414.301 39.391C407.319 30.6429 392.443 25.0703 376.108 25.0703H227.291C210.956 25.0703 196.08 30.6429 189.111 39.391L131.89 111.056C125.143 119.52 127.058 129.257 135.992 136.51H467.407C476.341 129.257 478.256 119.52 471.509 111.056L414.301 39.391Z" fill="#F78F1E"/>
<path d="M84.8984 114.257C87.1472 88.766 94.079 55.1574 111.983 35.6347C122.523 24.1436 136.164 18.5586 153.71 18.5586H449.49C467.036 18.5586 480.677 24.1436 491.216 35.6347C509.108 55.145 516.052 88.766 518.289 114.257H84.8984Z" fill="#EF382E"/>
<path d="M491.216 35.6098C488.987 33.1733 486.534 30.9518 483.889 28.9746C353.631 95.8335 89.5567 84.1198 89.5567 84.1198C87.3258 94.0488 85.7695 104.117 84.8984 114.256H518.289C516.052 88.7287 509.108 55.1201 491.216 35.6098Z" fill="#D91F26"/>
<path opacity="0.62" d="M86.1458 103.038C85.6268 106.893 85.2191 110.65 84.9102 114.233H518.288C516.719 96.2549 512.789 74.2363 504.338 55.9863C444.324 115.79 86.1458 103.038 86.1458 103.038Z" fill="#7C131A"/>
<g style="mix-blend-mode:multiply">
<path d="M23.3292 88.8778C21.3023 95.342 19.7699 101.951 18.7451 108.648C16.4098 123.747 33.6713 136.918 55.8752 136.894L301.601 136.585L547.29 136.894C569.432 136.894 586.829 123.833 584.457 108.784C580.985 86.6784 571.1 56.5666 543.089 37.3652C442.72 97.8236 23.3292 88.8778 23.3292 88.8778Z" fill="#FEBF10"/>
</g>
<path d="M555.297 119.278C563.163 116.721 566.551 105.457 562.865 94.1196C559.179 82.7821 549.814 75.6642 541.949 78.2214C534.083 80.7785 530.695 92.0425 534.381 103.38C538.067 114.718 547.431 121.835 555.297 119.278Z" fill="#FFE375"/>
<path d="M131.653 234.618L154.475 146.68H75.5195L131.653 234.618Z" fill="#7E411C"/>
<path d="M476.414 234.618L449.91 146.68H528.866L476.414 234.618Z" fill="#7E411C"/>
<path d="M37.7598 334.69L121.497 253.152H486.941L575.843 334.69H37.7598Z" fill="#F49F4B"/>
<path d="M92.1758 316.155L135.941 276.232H478.934L525.751 316.155H92.1758Z" fill="#7E411C"/>
<path d="M108.969 314.167L152.956 258.23H461.377L505.377 314.167H108.969Z" fill="#F5F4ED"/>
<path d="M273.316 293.345C274.28 301.995 287.34 307.765 302.501 306.109C317.662 304.454 329.178 296.039 328.227 287.328C328.14 286.574 327.72 281.051 327.461 280.347C324.742 272.933 312.893 273.044 299.042 274.564C285.19 276.084 273.353 278.382 272.55 286.364C272.513 287.007 273.316 292.703 273.316 293.345Z" fill="#FEBC11"/>
<path d="M272.576 286.366C273.54 295.077 286.601 300.785 301.762 299.13C316.922 297.474 328.438 289.059 327.487 280.348C326.536 271.637 313.463 265.929 298.302 267.585C283.141 269.24 271.625 277.655 272.576 286.366Z" fill="#FED401"/>
<path d="M277.209 285.858C278 293.098 288.861 297.855 301.476 296.471C314.092 295.088 323.717 288.094 322.865 280.853C322.012 273.613 311.201 268.856 298.598 270.239C285.994 271.623 276.406 278.592 277.209 285.858Z" stroke="#FEBC11" stroke-width="2.02" stroke-miterlimit="10"/>
<path d="M162.668 317.477C163.619 326.127 176.679 331.897 191.84 330.229C207.001 328.561 218.517 320.159 217.566 311.448C217.479 310.694 217.059 305.171 216.8 304.466C214.094 297.053 202.244 297.176 188.381 298.696C174.517 300.216 162.692 302.514 161.902 310.496C161.827 311.139 162.593 316.822 162.668 317.477Z" fill="#FEBC11"/>
<path d="M161.902 310.497C162.853 319.146 175.914 324.917 191.075 323.249C206.236 321.581 217.715 313.191 216.8 304.467C215.886 295.744 202.776 290.048 187.615 291.716C172.454 293.384 160.938 301.786 161.902 310.497Z" fill="#FED401"/>
<path d="M190.766 320.602C203.376 319.218 212.954 312.224 212.16 304.979C211.365 297.735 200.498 292.983 187.888 294.366C175.277 295.75 165.699 302.744 166.494 309.989C167.288 317.233 178.155 321.985 190.766 320.602Z" stroke="#FEBC11" stroke-width="2.02" stroke-miterlimit="10"/>
<path d="M245.923 315.291C246.875 323.94 259.948 329.723 275.108 328.055C290.269 326.387 301.785 317.984 300.821 309.273C300.747 308.52 300.315 302.996 300.055 302.292C297.349 294.878 285.5 294.99 271.636 296.509C257.773 298.029 245.936 300.328 245.145 308.322C245.095 308.964 245.849 314.648 245.923 315.291Z" fill="#FEBC11"/>
<path d="M245.157 308.322C246.108 316.971 259.181 322.741 274.342 321.073C289.503 319.405 301.019 311.003 300.055 302.292C299.091 293.581 286.043 287.872 270.845 289.528C255.647 291.184 244.205 299.598 245.157 308.322Z" fill="#FED401"/>
<path d="M249.84 307.803C250.63 315.056 261.504 319.801 274.107 318.417C286.71 317.033 296.286 310.039 295.495 302.799C294.705 295.558 283.844 290.801 271.228 292.185C258.612 293.569 248.987 300.562 249.84 307.803Z" stroke="#FEBC11" stroke-width="2.02" stroke-miterlimit="10"/>
<path d="M277.617 261.073C278.568 269.722 291.641 275.492 306.802 273.824C321.963 272.156 333.479 263.766 332.515 255.043C332.441 254.289 332.008 248.766 331.749 248.062C329.043 240.648 317.193 240.759 303.33 242.291C289.293 243.824 277.629 246.097 276.838 254.091C276.789 254.734 277.543 260.418 277.617 261.073Z" fill="#FEBC11"/>
<path d="M276.85 254.09C277.802 262.801 290.874 268.51 306.035 266.842C321.196 265.174 332.712 256.772 331.748 248.061C330.785 239.349 317.798 233.641 302.576 235.346C287.353 237.051 275.899 245.379 276.85 254.09Z" fill="#FED401"/>
<path d="M281.472 253.585C282.275 260.825 293.136 265.57 305.74 264.186C318.343 262.802 327.981 255.809 327.128 248.568C326.275 241.327 315.476 236.583 302.861 237.966C290.245 239.35 280.731 246.332 281.472 253.585Z" stroke="#FEBC11" stroke-width="2.02" stroke-miterlimit="10"/>
<path d="M420.453 308.965C421.404 317.614 434.477 323.396 449.638 321.728C464.799 320.06 476.315 311.658 475.351 302.947C475.277 302.193 474.844 296.67 474.585 295.966C471.879 288.552 460.029 288.664 446.166 290.183C432.129 291.728 420.465 294.001 419.674 301.996C419.625 302.638 420.354 308.322 420.453 308.965Z" fill="#FEBC11"/>
<path d="M419.688 301.995C420.639 310.644 433.712 316.414 448.873 314.746C464.034 313.078 475.55 304.676 474.586 295.965C473.622 287.254 460.574 281.545 445.413 283.213C430.252 284.881 418.736 293.284 419.688 301.995Z" fill="#FED401"/>
<path d="M424.309 301.489C425.1 308.73 435.974 313.474 448.577 312.091C461.18 310.707 470.818 303.713 469.965 296.472C469.113 289.232 458.313 284.475 445.698 285.859C433.082 287.242 423.519 294.236 424.309 301.489Z" stroke="#FEBC11" stroke-width="2.02" stroke-miterlimit="10"/>
<path d="M200.662 257.266C201.626 265.916 214.686 271.686 229.847 270.018C245.008 268.35 256.524 259.948 255.573 251.237C255.486 250.495 255.054 244.96 254.807 244.255C252.088 236.842 240.239 236.965 226.388 238.485C212.536 240.005 200.699 242.303 199.896 250.285C199.834 250.928 200.6 256.612 200.662 257.266Z" fill="#FEBC11"/>
<path d="M199.897 250.286C200.861 258.935 213.921 264.705 229.082 263.037C244.243 261.369 255.759 252.967 254.807 244.256C253.856 235.545 240.783 229.836 225.622 231.504C210.461 233.172 198.945 241.525 199.897 250.286Z" fill="#FED401"/>
<path d="M204.531 249.778C205.322 257.019 216.183 261.764 228.799 260.392C241.414 259.021 251.04 252.015 250.187 244.762C249.335 237.509 238.523 232.776 225.92 234.16C213.317 235.544 203.728 242.538 204.531 249.778Z" stroke="#FEBC11" stroke-width="2.02" stroke-miterlimit="10"/>
<path d="M168.005 251.063C168.957 259.712 182.03 265.482 197.19 263.814C212.351 262.146 223.867 253.744 222.904 245.033C222.829 244.279 222.397 238.756 222.137 238.052C219.431 230.638 207.582 230.749 193.718 232.282C179.682 233.814 168.018 236.1 167.227 244.082C167.178 244.724 167.931 250.408 168.005 251.063Z" fill="#FEBC11"/>
<path d="M167.24 244.083C168.192 252.732 181.264 258.502 196.425 256.834C211.586 255.166 223.102 246.764 222.138 238.053C221.175 229.342 208.127 223.633 193.003 225.301C177.879 226.969 166.289 235.347 167.24 244.083Z" fill="#FED401"/>
<path d="M171.86 243.577C172.651 250.817 183.524 255.562 196.128 254.178C208.731 252.794 218.369 245.801 217.516 238.56C216.663 231.319 205.864 226.575 193.249 227.959C180.633 229.343 171.069 236.324 171.86 243.577Z" stroke="#FEBC11" stroke-width="2.02" stroke-miterlimit="10"/>
<path d="M239.585 242.909C240.549 251.558 253.609 257.328 268.77 255.66C283.931 253.992 295.447 245.59 294.496 236.879C294.409 236.125 293.989 230.602 293.729 229.898C291.011 222.484 279.162 222.595 265.31 224.115C251.459 225.635 239.622 227.933 238.819 235.927C238.72 236.582 239.523 242.254 239.585 242.909Z" fill="#FEBC11"/>
<path d="M238.819 235.928C239.782 244.577 252.843 250.348 268.004 248.68C283.165 247.012 294.681 238.61 293.729 229.898C292.778 221.187 279.705 215.479 264.544 217.147C249.383 218.815 237.867 227.217 238.819 235.928Z" fill="#FED401"/>
<path d="M243.451 235.421C244.242 242.661 255.103 247.406 267.719 246.022C280.334 244.638 289.96 237.645 289.107 230.404C288.254 223.163 277.443 218.418 264.84 219.802C252.236 221.186 242.648 228.167 243.451 235.421Z" stroke="#FEBC11" stroke-width="2.02" stroke-miterlimit="10"/>
<path d="M199.785 311.955C200.749 320.666 213.809 326.374 228.97 324.719C244.131 323.063 255.647 314.636 254.696 305.937C254.609 305.184 254.177 299.66 253.93 298.956C251.211 291.543 239.362 291.654 225.511 293.174C211.659 294.693 199.822 296.992 199.019 304.974C198.957 305.641 199.723 311.325 199.785 311.955Z" fill="#FEBC11"/>
<path d="M199.02 304.998C199.984 313.647 213.044 319.418 228.205 317.762C243.366 316.106 254.882 307.692 253.931 298.981C252.979 290.27 239.956 284.549 224.745 286.217C209.535 287.885 198.069 296.287 199.02 304.998Z" fill="#FED401"/>
<path d="M203.652 304.541C204.443 311.782 215.304 316.539 227.92 315.155C240.535 313.771 250.099 306.778 249.308 299.537C248.517 292.296 237.644 287.539 225.041 288.923C212.438 290.307 202.886 297.251 203.652 304.541Z" stroke="#FEBC11" stroke-width="2.02" stroke-miterlimit="10"/>
<path d="M123.511 306.863C124.463 315.512 137.523 321.295 152.684 319.627C167.845 317.959 179.361 309.557 178.41 300.846C178.323 300.092 177.903 294.569 177.643 293.864C174.925 286.451 163.088 286.562 149.224 288.082C135.361 289.602 123.536 291.9 122.745 299.894C122.671 300.537 123.437 306.221 123.511 306.863Z" fill="#FEBC11"/>
<path d="M122.745 299.894C123.697 308.543 136.757 314.314 151.918 312.646C167.079 310.977 178.595 302.575 177.643 293.864C176.692 285.153 163.619 279.445 148.52 281.063C133.421 282.682 121.781 291.183 122.745 299.894Z" fill="#FED401"/>
<path d="M127.367 299.388C128.158 306.629 139.019 311.373 151.635 309.989C164.25 308.606 173.814 301.612 173.023 294.371C172.232 287.131 161.359 282.386 148.756 283.758C136.152 285.129 126.564 292.184 127.367 299.388Z" stroke="#FEBC11" stroke-width="2.02" stroke-miterlimit="10"/>
<path d="M92.5353 316.267C96.0444 324.299 110.217 325.855 124.192 319.739C138.166 313.623 146.655 302.181 143.146 294.15C142.849 293.458 140.798 288.305 140.341 287.712C135.522 281.398 124.278 285.093 111.49 290.665C98.7009 296.238 88.1118 301.971 89.7304 309.83C89.854 310.46 92.2758 315.662 92.5353 316.267Z" fill="#FEBC11"/>
<path d="M89.7309 309.83C93.24 317.862 107.412 319.418 121.387 313.314C135.362 307.211 143.851 295.744 140.341 287.713C136.832 279.681 122.66 278.124 108.685 284.228C94.7104 290.332 86.2218 301.799 89.7309 309.83Z" fill="#FED401"/>
<path d="M93.9923 307.963C96.9083 314.648 108.696 315.933 120.311 310.855C131.926 305.776 138.993 296.25 136.077 289.577C133.161 282.905 121.373 281.608 109.746 286.686C98.1192 291.764 91.0763 301.291 93.9923 307.963Z" stroke="#FEBC11" stroke-width="2.02" stroke-miterlimit="10"/>
<path d="M339.595 312.462C340.547 321.173 353.607 326.881 368.781 325.213C383.954 323.545 395.457 315.143 394.494 306.432C394.419 305.691 393.987 300.155 393.728 299.451C391.022 292.037 379.172 292.161 365.309 293.68C351.445 295.2 339.62 297.498 338.805 305.48C338.805 306.123 339.521 311.807 339.595 312.462Z" fill="#FEBC11"/>
<path d="M338.804 305.479C339.755 314.128 352.828 319.899 367.989 318.243C383.15 316.587 394.666 308.16 393.702 299.449C392.738 290.738 379.702 285.03 364.541 286.698C349.38 288.366 337.865 296.768 338.804 305.479Z" fill="#FED401"/>
<path d="M343.45 304.973C344.241 312.213 355.114 316.971 367.717 315.587C380.321 314.203 389.958 307.209 389.106 299.968C388.253 292.728 377.442 287.971 364.838 289.355C352.235 290.739 342.659 297.732 343.45 304.973Z" stroke="#FEBC11" stroke-width="2.02" stroke-miterlimit="10"/>
<path d="M287.291 318.776C288.255 327.425 301.315 333.195 316.476 331.527C331.637 329.859 343.153 321.457 342.202 312.746C342.115 311.992 341.683 306.469 341.436 305.765C338.717 298.351 326.868 298.462 313.017 299.982C299.165 301.502 287.328 303.8 286.525 311.795C286.463 312.437 287.217 318.133 287.291 318.776Z" fill="#FEBC11"/>
<path d="M286.526 311.795C287.489 320.444 300.55 326.214 315.711 324.546C330.872 322.878 342.388 314.426 341.436 305.777C340.485 297.128 327.412 291.358 312.251 293.026C297.09 294.694 285.574 303.083 286.526 311.795Z" fill="#FED401"/>
<path d="M291.147 311.286C291.95 318.527 302.811 323.272 315.415 321.888C328.018 320.504 337.569 313.511 336.815 306.27C336.062 299.029 325.151 294.284 312.548 295.656C299.945 297.027 290.356 304.033 291.147 311.286Z" stroke="#FEBC11" stroke-width="2.02" stroke-miterlimit="10"/>
<path d="M319.566 270.808C319.566 279.569 331.922 286.673 347.17 286.686C362.417 286.698 374.786 279.606 374.798 270.845C374.798 270.091 374.983 264.556 374.798 263.827C372.932 256.117 361.132 254.968 347.195 254.955C333.257 254.943 321.247 255.931 319.566 263.777C319.43 264.408 319.566 270.153 319.566 270.808Z" fill="#FEBC11"/>
<path d="M319.566 263.766C319.566 272.527 331.923 279.644 347.17 279.656C362.417 279.669 374.798 272.576 374.798 263.816C374.798 255.055 362.442 247.938 347.195 247.926C331.947 247.913 319.579 255.018 319.566 263.766Z" fill="#FED401"/>
<path d="M324.225 263.766C324.225 271.044 334.493 276.962 347.17 276.975C359.847 276.987 370.14 271.081 370.152 263.803C370.165 256.525 359.884 250.594 347.195 250.582C334.505 250.57 324.225 256.501 324.225 263.766Z" stroke="#FEBC11" stroke-width="2.02" stroke-miterlimit="10"/>
<path d="M359.352 277.975C359.352 286.736 371.708 293.853 386.955 293.865C402.203 293.878 414.584 286.785 414.584 278.025C414.584 277.271 414.769 271.723 414.584 270.994C412.705 263.284 400.905 262.147 386.968 262.135C373.03 262.123 361.02 263.099 359.352 270.957C359.228 271.587 359.352 277.358 359.352 277.975Z" fill="#FEBC11"/>
<path d="M359.365 270.958C359.365 279.718 371.721 286.823 386.969 286.835C402.216 286.848 414.585 279.755 414.597 270.995C414.609 262.234 402.241 255.117 386.993 255.117C371.746 255.117 359.365 262.185 359.365 270.958Z" fill="#FED401"/>
<path d="M364.01 270.957C364.01 278.247 374.278 284.153 386.967 284.165C399.657 284.178 409.937 278.284 409.937 270.994C409.937 263.704 399.669 257.798 386.992 257.785C374.315 257.773 364.022 263.667 364.01 270.957Z" stroke="#FEBC11" stroke-width="2.02" stroke-miterlimit="10"/>
<path d="M473.547 312.387C473.547 321.148 485.903 328.265 501.15 328.277C516.398 328.29 528.766 321.197 528.778 312.437C528.778 311.683 528.964 306.135 528.778 305.419C526.9 297.696 515.113 296.559 501.175 296.547C487.237 296.535 475.227 297.523 473.547 305.369C473.411 305.999 473.547 311.733 473.547 312.387Z" fill="#FEBC11"/>
<path d="M473.547 305.368C473.547 314.128 485.903 321.246 501.15 321.258C516.398 321.27 528.779 314.178 528.779 305.417C528.779 296.657 516.423 289.54 501.175 289.527C485.928 289.515 473.559 296.607 473.547 305.368Z" fill="#FED401"/>
<path d="M478.205 305.369C478.205 312.66 488.473 318.566 501.15 318.578C513.828 318.591 524.145 312.697 524.145 305.407C524.145 298.116 513.865 292.186 501.175 292.186C488.485 292.186 478.205 298.079 478.205 305.369Z" stroke="#FEBC11" stroke-width="2.02" stroke-miterlimit="10"/>
<path d="M406.393 284.475C406.393 293.248 418.749 300.353 433.996 300.365C449.244 300.378 461.625 293.285 461.625 284.525C461.625 283.771 461.81 278.236 461.625 277.507C459.746 269.796 447.946 268.647 434.009 268.635C420.071 268.623 408.061 269.611 406.393 277.457C406.269 278.087 406.393 283.821 406.393 284.475Z" fill="#FEBC11"/>
<path d="M406.404 277.456C406.404 286.216 418.76 293.333 434.008 293.346C449.255 293.358 461.624 286.266 461.636 277.505C461.648 268.745 449.28 261.628 434.033 261.615C418.785 261.603 406.404 268.708 406.404 277.456Z" fill="#FED401"/>
<path d="M411.051 277.457C411.051 284.747 421.319 290.666 434.008 290.678C446.698 290.69 456.978 284.784 456.978 277.506C456.978 270.228 446.71 264.298 434.033 264.285C421.356 264.273 411.051 270.179 411.051 277.457Z" stroke="#FEBC11" stroke-width="2.02" stroke-miterlimit="10"/>
<path d="M434.021 256.858C434.021 265.619 446.377 272.736 461.625 272.748C476.872 272.76 489.241 265.668 489.253 256.908C489.253 256.154 489.438 250.606 489.253 249.889C487.387 242.179 475.587 241.03 461.649 241.018C447.712 241.005 435.702 241.994 434.021 249.84C433.947 250.47 434.021 256.203 434.021 256.858Z" fill="#FEBC11"/>
<path d="M434.02 249.841C434.02 258.601 446.376 265.718 461.623 265.731C476.87 265.743 489.251 258.65 489.251 249.89C489.251 241.13 476.895 234.012 461.648 234C446.4 233.988 434.032 241.08 434.02 249.841Z" fill="#FED401"/>
<path d="M438.678 249.84C438.678 257.13 448.946 263.048 461.623 263.048C474.3 263.048 484.605 257.167 484.605 249.877C484.605 242.587 474.337 236.68 461.648 236.668C448.958 236.656 438.678 242.549 438.678 249.84Z" stroke="#FEBC11" stroke-width="2.02" stroke-miterlimit="10"/>
<path d="M320.937 296.522C322.741 305.097 336.332 309.483 351.234 306.332C366.135 303.182 376.786 293.667 374.97 285.092C374.821 284.351 373.845 278.914 373.524 278.222C370.077 271.068 358.314 272.403 344.673 275.281C331.031 278.16 319.479 281.62 319.479 289.713C319.479 290.294 320.801 295.891 320.937 296.522Z" fill="#FEBC11"/>
<path d="M319.479 289.713C321.295 298.288 334.862 302.675 349.789 299.524C364.715 296.373 375.329 286.797 373.525 278.222C371.721 269.647 358.141 265.261 343.215 268.411C328.289 271.562 317.675 281.064 319.479 289.713Z" fill="#FED401"/>
<path d="M323.978 288.688C325.485 295.818 336.779 299.463 349.184 296.843C361.59 294.224 370.424 286.316 368.954 279.187C367.484 272.057 356.165 268.4 343.76 271.032C331.354 273.663 322.52 281.559 323.978 288.688Z" stroke="#FEBC11" stroke-width="2.02" stroke-miterlimit="10"/>
<path d="M379.308 313.61C381.124 322.185 394.691 326.572 409.605 323.421C424.519 320.27 435.182 310.719 433.341 302.193C433.193 301.452 432.216 296.015 431.895 295.323C428.46 288.169 416.648 289.491 403.056 292.382C389.464 295.273 377.85 298.721 377.85 306.74C377.85 307.395 379.172 312.967 379.308 313.61Z" fill="#FEBC11"/>
<path d="M377.85 306.741C379.667 315.316 393.234 319.702 408.16 316.551C423.086 313.401 433.7 303.886 431.896 295.324C430.092 286.761 416.512 282.3 401.586 285.513C386.66 288.726 376.046 298.178 377.85 306.741Z" fill="#FED401"/>
<path d="M382.409 305.777C383.917 312.907 395.198 316.564 407.603 313.945C420.009 311.325 428.843 303.405 427.373 296.275C425.903 289.146 414.584 285.501 402.179 288.12C389.773 290.74 380.902 298.66 382.409 305.777Z" stroke="#FEBC11" stroke-width="2.02" stroke-miterlimit="10"/>
<path d="M397.965 261.022C399.782 269.597 413.349 273.984 428.275 270.833C443.201 267.682 453.827 258.168 452.011 249.605C451.85 248.864 450.874 243.427 450.553 242.735C447.118 235.581 435.342 236.903 421.701 239.794C408.06 242.686 396.52 246.133 396.52 254.152C396.52 254.807 397.829 260.38 397.965 261.022Z" fill="#FEBC11"/>
<path d="M396.521 254.153C398.337 262.728 411.891 267.114 426.818 263.964C441.744 260.813 452.37 251.299 450.554 242.76C448.737 234.222 435.183 229.762 420.257 232.876C405.33 235.989 394.704 245.59 396.521 254.153Z" fill="#FED401"/>
<path d="M401.067 253.189C402.575 260.319 413.856 263.976 426.261 261.357C438.667 258.737 447.514 250.817 446.031 243.687C444.548 236.558 433.243 232.913 420.837 235.532C408.432 238.152 399.56 246.072 401.067 253.189Z" stroke="#FEBC11" stroke-width="2.02" stroke-miterlimit="10"/>
<path d="M402.437 242.057C406.96 249.557 421.218 249.248 434.279 241.377C447.339 233.506 454.246 221.014 449.724 213.514C449.329 212.872 446.623 208.041 446.091 207.509C440.494 201.875 429.806 207.003 417.882 214.206C405.959 221.41 396.173 228.465 398.805 236.052C399.015 236.657 402.091 241.526 402.437 242.057Z" fill="#FEBC11"/>
<path d="M398.806 236.052C403.328 243.552 417.587 243.243 430.648 235.36C443.708 227.476 450.615 215.009 446.093 207.509C441.57 200.009 427.311 200.318 414.251 208.201C401.191 216.084 394.284 228.551 398.806 236.052Z" fill="#FED401"/>
<path d="M402.785 233.642C406.492 239.82 418.403 239.622 429.264 233.073C440.125 226.525 445.871 216.146 442.114 209.906C438.358 203.666 426.496 203.925 415.635 210.487C404.774 217.048 399.029 227.402 402.785 233.642Z" stroke="#FEBC11" stroke-width="2.02" stroke-miterlimit="10"/>
<path d="M201.133 242.29C205.668 249.791 219.914 249.482 232.975 241.598C246.035 233.715 252.954 221.248 248.42 213.748C248.037 213.093 245.318 208.262 244.799 207.73C239.202 202.108 228.514 207.224 216.578 214.427C204.642 221.631 194.868 228.699 197.5 236.273C197.723 236.891 200.799 241.722 201.133 242.29Z" fill="#FEBC11"/>
<path d="M197.501 236.274C202.035 243.774 216.294 243.465 229.342 235.582C242.39 227.699 249.322 215.232 244.8 207.732C240.277 200.231 226.006 200.54 212.958 208.424C199.91 216.307 193.003 228.774 197.501 236.274Z" fill="#FED401"/>
<path d="M201.49 233.863C205.197 240.103 217.108 239.856 227.969 233.295C238.83 226.734 244.576 216.367 240.807 210.139C237.039 203.912 225.189 204.147 214.328 210.708C203.467 217.269 197.722 227.636 201.49 233.863Z" stroke="#FEBC11" stroke-width="2.02" stroke-miterlimit="10"/>
<path d="M456.188 324.532C460.722 332.032 474.969 331.723 488.029 323.84C501.09 315.957 508.009 303.49 503.474 295.99C503.091 295.347 500.373 290.503 499.854 289.972C494.257 284.35 483.569 289.478 471.633 296.669C459.697 303.86 449.861 310.94 452.481 318.515C452.716 319.133 455.792 323.964 456.188 324.532Z" fill="#FEBC11"/>
<path d="M452.479 318.516C457.002 326.017 471.261 325.708 484.309 317.824C497.357 309.941 504.289 297.474 499.766 289.974C495.244 282.474 480.973 282.783 467.925 290.666C454.877 298.549 447.97 311.016 452.479 318.516Z" fill="#FED401"/>
<path d="M456.484 316.118C460.191 322.296 472.103 322.098 482.964 315.537C493.825 308.976 499.57 298.622 495.802 292.382C492.033 286.142 480.183 286.401 469.322 292.95C458.461 299.499 452.716 309.878 456.484 316.118Z" stroke="#FEBC11" stroke-width="2.02" stroke-miterlimit="10"/>
<path d="M371.955 259.145C376.478 266.645 390.736 266.336 403.797 258.453C416.857 250.57 423.764 238.102 419.242 230.602C418.847 229.96 416.141 225.128 415.609 224.597C410.024 218.963 399.336 224.09 387.4 231.294C375.464 238.498 365.691 245.553 368.322 253.14C368.545 253.745 371.622 258.589 371.955 259.145Z" fill="#FEBC11"/>
<path d="M368.323 253.14C372.858 260.64 387.117 260.331 400.165 252.448C413.213 244.564 420.145 232.097 415.61 224.597C411.076 217.097 396.829 217.393 383.769 225.276C370.708 233.16 363.801 245.627 368.323 253.14Z" fill="#FED401"/>
<path d="M372.315 250.729C376.021 256.907 387.933 256.71 398.794 250.161C409.655 243.612 415.413 233.233 411.632 226.993C407.851 220.753 396.014 221.013 385.153 227.562C374.292 234.11 368.546 244.489 372.315 250.729Z" stroke="#FEBC11" stroke-width="2.02" stroke-miterlimit="10"/>
<path d="M143.824 187.714H462.278L449.91 146.68H154.475L143.824 187.714Z" fill="#381F10"/>
<path d="M316.378 235.434C311.856 242.934 297.597 242.625 284.536 234.754C271.476 226.883 264.569 214.342 269.091 206.928C269.474 206.286 272.192 201.455 272.724 200.923C278.309 195.289 288.997 200.417 300.933 207.62C312.869 214.824 322.642 221.879 320.011 229.466C319.788 230.034 316.711 234.878 316.378 235.434Z" fill="#FEBC11"/>
<path d="M320.01 229.429C315.476 236.929 301.217 236.62 288.169 228.737C275.121 220.853 268.189 208.386 272.724 200.886C277.258 193.386 291.505 193.695 304.565 201.578C317.626 209.461 324.533 221.928 320.01 229.429Z" fill="#FED401"/>
<path d="M316.02 227.019C312.313 233.197 300.402 232.999 289.541 226.45C278.68 219.902 272.935 209.523 276.703 203.283C280.472 197.043 292.321 197.302 303.182 203.863C314.043 210.425 319.789 220.779 316.02 227.019Z" stroke="#FEBC11" stroke-width="2.02" stroke-miterlimit="10"/>
<path d="M193.792 298.228C197.87 305.987 212.129 306.506 225.621 299.389C239.114 292.272 246.738 280.225 242.648 272.478C242.302 271.81 239.868 266.831 239.374 266.3C234.11 260.356 223.15 264.854 210.819 271.353C198.487 277.853 188.318 284.34 190.518 292.062C190.691 292.643 193.483 297.647 193.792 298.228Z" fill="#FEBC11"/>
<path d="M190.532 292.023C194.609 299.77 208.868 300.289 222.361 293.172C235.854 286.055 243.465 274.02 239.375 266.236C235.286 258.452 221.039 257.97 207.546 265.087C194.053 272.204 186.43 284.264 190.532 292.023Z" fill="#FED401"/>
<path d="M194.634 289.849C198.032 296.299 209.881 296.731 221.101 290.813C232.32 284.894 238.72 274.886 235.261 268.436C231.801 261.986 220.013 261.553 208.794 267.472C197.575 273.39 191.236 283.399 194.634 289.849Z" stroke="#FEBC11" stroke-width="2.02" stroke-miterlimit="10"/>
<path d="M114.121 283.114C118.211 290.862 132.457 291.381 145.95 284.276C159.443 277.171 167.067 265.112 162.989 257.364C162.631 256.697 160.209 251.705 159.715 251.186C154.451 245.243 143.491 249.741 131.16 256.24C118.829 262.739 108.66 269.226 110.847 276.936C111.032 277.529 113.824 282.534 114.121 283.114Z" fill="#FEBC11"/>
<path d="M110.847 276.901C114.937 284.66 129.183 285.179 142.676 278.062C156.169 270.945 163.793 258.898 159.715 251.15C155.638 243.403 141.379 242.884 127.886 249.989C114.393 257.094 106.769 269.153 110.847 276.901Z" fill="#FED401"/>
<path d="M114.961 274.737C118.359 281.174 130.208 281.607 141.428 275.701C152.647 269.794 158.998 259.761 155.6 253.324C152.202 246.886 140.353 246.442 129.133 252.36C117.914 258.279 111.563 268.287 114.961 274.737Z" stroke="#FEBC11" stroke-width="2.02" stroke-miterlimit="10"/>
<path d="M166.386 282.781C167.363 291.492 180.435 297.176 195.596 295.483C210.757 293.79 222.248 285.363 221.285 276.652C221.198 275.911 220.753 270.376 220.506 269.684C217.775 262.27 205.926 262.406 192.087 263.95C178.248 265.495 166.399 267.818 165.62 275.812C165.546 276.455 166.312 282.139 166.386 282.781Z" fill="#FEBC11"/>
<path d="M165.608 275.812C166.584 284.461 179.657 290.207 194.818 288.514C209.979 286.821 221.47 278.382 220.506 269.683C219.543 260.985 206.458 255.289 191.297 256.981C176.136 258.674 164.583 267.101 165.608 275.812Z" fill="#FED401"/>
<path d="M170.231 275.293C171.046 282.534 181.92 287.266 194.523 285.858C207.126 284.449 216.69 277.431 215.874 270.19C215.059 262.949 204.198 258.229 191.594 259.626C178.991 261.022 169.428 268.052 170.231 275.293Z" stroke="#FEBC11" stroke-width="2.02" stroke-miterlimit="10"/>
<path d="M119.212 300.005C122.498 308.123 136.634 310.051 150.769 304.317C164.904 298.584 173.677 287.34 170.378 279.222C170.094 278.53 168.179 273.328 167.746 272.723C163.1 266.285 151.745 269.671 138.821 274.922C125.896 280.174 115.146 285.598 116.58 293.456C116.679 294.136 118.964 299.4 119.212 300.005Z" fill="#FEBC11"/>
<path d="M116.568 293.494C119.867 301.612 133.99 303.552 148.126 297.806C162.261 292.06 171.034 280.841 167.747 272.723C164.46 264.605 150.313 262.678 136.19 268.411C122.067 274.144 113.269 285.376 116.568 293.494Z" fill="#FED401"/>
<path d="M120.88 291.752C123.61 298.498 135.361 300.105 147.112 295.335C158.862 290.566 166.177 281.225 163.434 274.466C160.691 267.707 148.94 266.113 137.19 270.883C125.439 275.652 118.137 284.993 120.88 291.752Z" stroke="#FEBC11" stroke-width="2.02" stroke-miterlimit="10"/>
<path d="M236.818 273.38C240.117 281.498 254.252 283.425 268.375 277.692C282.498 271.959 291.296 260.715 287.997 252.646C287.712 251.954 285.797 246.752 285.352 246.147C280.719 239.709 269.289 243.095 256.439 248.346C243.589 253.597 232.765 259.022 234.198 266.88C234.297 267.473 236.571 272.774 236.818 273.38Z" fill="#FEBC11"/>
<path d="M234.185 266.879C237.471 274.997 251.607 276.925 265.73 271.179C279.853 265.433 288.65 254.214 285.351 246.096C282.052 237.978 267.929 236.051 253.794 241.784C239.658 247.517 230.886 258.823 234.185 266.879Z" fill="#FED401"/>
<path d="M238.484 265.125C241.228 271.872 252.978 273.478 264.729 268.709C276.479 263.939 283.782 254.598 281.051 247.851C278.321 241.105 266.558 239.486 254.807 244.256C243.056 249.025 235.754 258.379 238.484 265.125Z" stroke="#FEBC11" stroke-width="2.02" stroke-miterlimit="10"/>
<path d="M457.558 283.535C458.546 292.246 471.644 297.905 486.792 296.188C501.941 294.47 513.432 286.006 512.444 277.357C512.357 276.616 511.912 271.093 511.653 270.388C508.91 262.975 497.06 263.148 483.234 264.717C469.407 266.286 457.558 268.634 456.792 276.628C456.705 277.234 457.484 282.917 457.558 283.535Z" fill="#FEBC11"/>
<path d="M456.768 276.592C457.757 285.241 470.842 290.949 486.003 289.232C501.164 287.514 512.643 279.051 511.654 270.352C510.666 261.653 497.568 255.982 482.42 257.699C467.271 259.417 455.78 267.881 456.768 276.592Z" fill="#FED401"/>
<path d="M461.388 276.122C462.216 283.362 473.102 288.07 485.693 286.637C498.284 285.203 507.847 278.173 507.032 270.932C506.216 263.691 495.318 258.984 482.715 260.417C470.112 261.85 460.573 268.819 461.388 276.122Z" stroke="#FEBC11" stroke-width="2.02" stroke-miterlimit="10"/>
<path d="M229.885 321.048C233.764 328.906 247.986 329.808 261.677 323.062C275.367 316.315 283.3 304.528 279.42 296.62C279.087 295.94 276.788 290.887 276.319 290.318C271.216 284.239 260.132 288.44 247.64 294.606C235.148 300.771 224.794 306.962 226.783 314.746C226.944 315.376 229.6 320.467 229.885 321.048Z" fill="#FEBC11"/>
<path d="M258.619 316.747C272.297 309.999 280.242 298.158 276.366 290.301C272.489 282.443 258.258 281.543 244.58 288.291C230.902 295.039 222.957 306.88 226.834 314.738C230.711 322.595 244.941 323.495 258.619 316.747Z" fill="#FED401"/>
<path d="M230.947 312.695C234.172 319.231 246.009 319.973 257.377 314.363C268.744 308.753 275.367 298.905 272.142 292.369C268.917 285.833 257.08 285.091 245.712 290.701C234.345 296.311 227.722 306.158 230.947 312.695Z" stroke="#FEBC11" stroke-width="2.02" stroke-miterlimit="10"/>
<path d="M227.166 295.57C229.823 303.91 243.76 306.925 258.291 302.304C272.822 297.682 282.46 287.155 279.791 278.827C279.568 278.11 278.049 272.773 277.665 272.142C273.526 265.359 261.949 267.867 248.666 272.142C235.383 276.418 224.238 280.965 225.041 288.947C225.127 289.515 226.968 294.939 227.166 295.57Z" fill="#FEBC11"/>
<path d="M225.042 288.872C227.698 297.225 241.636 300.24 256.167 295.607C270.697 290.973 280.323 280.458 277.666 272.13C275.01 263.802 261.072 260.762 246.541 265.383C232.011 270.005 222.373 280.52 225.042 288.872Z" fill="#FED401"/>
<path d="M229.465 287.465C231.677 294.41 243.267 296.918 255.351 293.063C267.435 289.208 275.442 280.472 273.23 273.528C271.018 266.584 259.428 264.075 247.344 267.918C235.26 271.761 227.253 280.521 229.465 287.465Z" stroke="#FEBC11" stroke-width="2.02" stroke-miterlimit="10"/>
<path d="M148.644 257.662C151.301 266.015 165.238 269.03 179.769 264.409C194.3 259.787 203.925 249.26 201.269 240.932C201.034 240.215 199.526 234.878 199.143 234.235C195.004 227.464 183.426 229.96 170.144 234.235C156.861 238.51 145.716 243.057 146.506 251.039C146.568 251.62 148.446 257.044 148.644 257.662Z" fill="#FEBC11"/>
<path d="M146.507 250.976C149.164 259.329 163.101 262.344 177.645 257.71C192.188 253.077 201.801 242.562 199.144 234.234C196.488 225.906 182.538 222.879 168.007 227.5C153.476 232.121 143.851 242.624 146.507 250.976Z" fill="#FED401"/>
<path d="M150.992 249.568C153.203 256.512 164.793 259.008 176.878 255.166C188.962 251.323 196.969 242.562 194.757 235.631C192.545 228.699 180.955 226.178 168.871 230.021C156.787 233.864 148.731 242.624 150.992 249.568Z" stroke="#FEBC11" stroke-width="2.02" stroke-miterlimit="10"/>
<path d="M319.826 247.493C320.048 256.254 332.602 263.037 347.85 262.642C363.097 262.246 375.268 254.82 375.033 246.06C375.033 245.306 375.033 239.758 374.848 239.041C372.759 231.381 360.947 230.553 347.009 230.923C333.072 231.294 321.062 232.592 319.628 240.475C319.529 241.117 319.814 246.838 319.826 247.493Z" fill="#FEBC11"/>
<path d="M319.64 240.475C319.874 249.235 332.416 256.019 347.663 255.623C362.911 255.228 375.082 247.802 374.847 239.041C374.612 230.281 362.083 223.51 346.835 223.905C331.588 224.301 319.417 231.714 319.64 240.475Z" fill="#FED401"/>
<path d="M324.286 240.352C324.483 247.642 334.912 253.276 347.589 252.943C360.267 252.609 370.399 246.468 370.213 239.166C370.028 231.863 359.587 226.241 346.91 226.575C334.232 226.908 324.1 233.074 324.286 240.352Z" stroke="#FEBC11" stroke-width="2.02" stroke-miterlimit="10"/>
<path d="M401.215 219.556L392.974 198.118L364.048 189.357L340.398 199.934L359.439 246.307L401.215 219.556Z" fill="#D390BF"/>
<path d="M401.215 219.555L384.287 209.868L360.564 203.27L340.398 199.934L359.439 246.306L401.215 219.555Z" fill="#9D248F"/>
<path d="M384.288 209.868L359.439 246.306L360.564 203.27L384.288 209.868Z" fill="#AC3895"/>
<path d="M392.973 198.118L384.286 209.869L360.562 203.27L364.047 189.357L392.973 198.118Z" fill="#C868A9"/>
<path d="M380.011 194.189L360.562 203.27L364.047 189.357L380.011 194.189Z" fill="#E1AFD1"/>
<path d="M284.438 187.762L259.8 174.27L225.883 188.961L212.18 217.541L266.596 245.75L284.438 187.762Z" fill="#D390BF"/>
<path d="M284.438 187.764L260.986 192.101L233.63 204.704L212.18 217.542L266.596 245.751L284.438 187.764Z" fill="#9D248F"/>
<path d="M260.985 192.1L266.595 245.75L233.629 204.703L260.985 192.1Z" fill="#AC3895"/>
<path d="M259.8 174.27L260.986 192.099L233.63 204.703L225.883 188.961L259.8 174.27Z" fill="#C868A9"/>
<path d="M244.59 180.855L233.63 204.703L225.883 188.961L244.59 180.855Z" fill="#E1AFD1"/>
<path d="M211.76 258.81L206.15 238.126L177.805 226.895L152.314 234.061L165.671 278.901L211.76 258.81Z" fill="#91CD93"/>
<path d="M211.76 258.812L195.771 248.025L172.443 239.339L152.314 234.062L165.671 278.903L211.76 258.812Z" fill="#41B763"/>
<path d="M195.769 248.024L165.67 278.902L172.441 239.338L195.769 248.024Z" fill="#29A552"/>
<path d="M206.149 238.126L195.77 248.023L172.441 239.337L177.804 226.895L206.149 238.126Z" fill="#7AC580"/>
<path d="M193.447 233.097L172.441 239.337L177.804 226.895L193.447 233.097Z" fill="#CDE7CF"/>
<path d="M396.68 307.148C399.336 315.501 413.274 318.516 427.805 313.895C442.336 309.274 451.973 298.746 449.304 290.418C449.082 289.701 447.562 284.364 447.179 283.721C443.04 276.95 431.462 279.458 418.179 283.721C404.897 287.984 393.751 292.543 394.555 300.525C394.616 301.106 396.482 306.53 396.68 307.148Z" fill="#FEBC11"/>
<path d="M394.554 300.463C397.211 308.815 411.148 311.83 425.679 307.197C440.21 302.563 449.835 292.048 447.179 283.72C444.522 275.392 430.584 272.365 416.054 276.986C401.523 281.607 391.935 292.11 394.554 300.463Z" fill="#FED401"/>
<path d="M398.979 299.055C401.19 305.999 412.78 308.508 424.926 304.653C437.073 300.797 445.018 292.062 442.806 285.118C440.594 278.173 429.004 275.665 416.858 279.508C404.712 283.351 396.767 292.111 398.979 299.055Z" stroke="#FEBC11" stroke-width="2.02" stroke-miterlimit="10"/>
<path d="M493.341 251.385L474.857 237.076L445.078 244.712L430.078 266.397L471.1 296.694L493.341 251.385Z" fill="#F26D7A"/>
<path d="M493.341 251.385L473.497 251.879L449.378 258.663L430.078 266.397L471.1 296.695L493.341 251.385Z" fill="#A31D21"/>
<path d="M473.498 251.879L471.101 296.694L449.379 258.662L473.498 251.879Z" fill="#BE2025"/>
<path d="M474.856 237.076L473.497 251.879L449.378 258.662L445.078 244.712L474.856 237.076Z" fill="#F04D49"/>
<path d="M461.512 240.5L449.378 258.663L445.078 244.713L461.512 240.5Z" fill="#F48C9B"/>
<path d="M222.755 252.88C211.943 253.633 202.911 258.069 195.127 265.075C194.789 265.225 194.426 265.307 194.056 265.316C193.687 265.325 193.32 265.261 192.976 265.128C192.631 264.995 192.316 264.795 192.049 264.54C191.783 264.285 191.569 263.98 191.42 263.642C190.486 253.346 186.202 243.641 179.224 236.013C178.928 235.331 178.912 234.56 179.181 233.866C179.449 233.172 179.98 232.612 180.658 232.307C190.794 230.779 200.337 226.569 208.298 220.111C208.635 219.959 208.999 219.876 209.369 219.866C209.738 219.856 210.106 219.92 210.451 220.053C210.796 220.186 211.111 220.387 211.378 220.643C211.644 220.899 211.858 221.205 212.005 221.544C212.958 231.839 217.239 241.542 224.201 249.185C224.35 249.522 224.431 249.886 224.439 250.255C224.447 250.623 224.382 250.99 224.248 251.334C224.113 251.677 223.912 251.991 223.656 252.256C223.4 252.521 223.093 252.733 222.755 252.88Z" fill="white"/>
<path d="M425.148 210.905C416.325 219.097 411.469 229.168 409.357 240.646C408.989 241.373 408.348 241.924 407.574 242.179C406.8 242.434 405.957 242.372 405.23 242.006C397.675 233.83 387.568 228.462 376.563 226.783C376.208 226.59 375.894 226.329 375.639 226.015C375.384 225.7 375.194 225.339 375.08 224.951C374.965 224.563 374.928 224.156 374.97 223.754C375.013 223.352 375.134 222.962 375.328 222.607C383.059 214.214 388.498 203.971 391.119 192.865C391.3 192.504 391.55 192.183 391.856 191.919C392.162 191.656 392.517 191.456 392.901 191.33C393.285 191.205 393.69 191.157 394.092 191.189C394.495 191.222 394.887 191.334 395.246 191.519C402.809 199.681 412.913 205.042 423.912 206.729C424.268 206.922 424.582 207.183 424.836 207.497C425.091 207.812 425.281 208.173 425.396 208.561C425.511 208.949 425.548 209.356 425.505 209.758C425.463 210.16 425.341 210.55 425.148 210.905Z" fill="white"/>
<path d="M575.844 334.701V484.272C575.844 501.061 569.176 517.163 557.305 529.036C545.434 540.909 529.334 547.581 512.544 547.584H101.086C84.2945 547.584 68.1907 540.914 56.3173 529.041C44.4439 517.167 37.7734 501.063 37.7734 484.272V334.701H575.844Z" fill="#F78F1E"/>
<path d="M512.532 491.896H101.074C92.761 491.896 84.5297 490.259 76.8498 487.078C69.1698 483.896 62.1917 479.234 56.3137 473.356C50.4357 467.478 45.773 460.5 42.5919 452.82C39.4108 445.14 37.7734 436.908 37.7734 428.596V484.26C37.7734 501.049 44.4422 517.151 56.3129 529.024C68.1837 540.897 84.2843 547.569 101.074 547.573H512.532C529.323 547.573 545.427 540.902 557.301 529.029C569.174 517.155 575.844 501.051 575.844 484.26V428.596C575.841 445.385 569.169 461.486 557.296 473.356C545.423 485.227 529.321 491.896 512.532 491.896Z" fill="#FEBF10"/>
<path d="M507.169 334.689V492.934C507.169 500.113 505.754 507.222 503.005 513.855C500.256 520.487 496.227 526.513 491.148 531.587C486.069 536.661 480.04 540.685 473.405 543.428C466.77 546.171 459.66 547.579 452.48 547.573H161.074C146.583 547.573 132.686 541.816 122.439 531.569C112.192 521.323 106.436 507.425 106.436 492.934V334.689H507.169Z" fill="#EF382E"/>
<path d="M161.075 547.574H452.481C466.972 547.574 480.87 541.817 491.116 531.57C501.363 521.324 507.12 507.426 507.12 492.935V387.229C507.12 387.229 433.49 492.935 106.387 492.935C106.387 500.114 107.802 507.223 110.551 513.856C113.3 520.488 117.329 526.514 122.407 531.588C127.486 536.662 133.516 540.686 140.15 543.429C146.785 546.172 153.895 547.58 161.075 547.574Z" fill="#D91F26"/>
<path d="M507.169 334.689H106.436V387.228H507.169V334.689Z" fill="#FEBF10"/>
<path opacity="0.62" d="M575.843 334.701V404.439H416.116L330.859 469.58C323.967 474.856 315.53 477.717 306.851 477.723C298.171 477.717 289.735 474.856 282.843 469.58L197.586 404.439H37.7598V334.701H575.843Z" fill="#7C131B"/>
<path d="M306.802 455.285C299.862 455.29 293.108 453.035 287.564 448.86L187.826 373.87C181.956 369.435 177.792 363.113 176.035 355.969C174.277 348.824 175.033 341.292 178.175 334.64L221.533 242.945C224.126 237.464 228.222 232.832 233.345 229.588C238.468 226.344 244.407 224.621 250.471 224.621H363.183C369.247 224.621 375.186 226.344 380.309 229.588C385.432 232.832 389.528 237.464 392.121 242.945L435.479 334.64C438.626 341.302 439.379 348.845 437.612 355.999C435.845 363.152 431.666 369.477 425.779 373.907L326.041 448.897C320.492 453.058 313.739 455.301 306.802 455.285Z" fill="#FEBF10"/>
<path d="M363.196 256.623H306.803H250.422L207.064 348.318L306.803 423.319L406.541 348.318L363.196 256.623Z" fill="#F78F1E"/>
<path d="M326.449 311.324C326.449 306.113 324.379 301.116 320.694 297.432C317.01 293.748 312.013 291.678 306.802 291.678C301.592 291.678 296.595 293.748 292.91 297.432C289.226 301.116 287.156 306.113 287.156 311.324C287.155 314.182 287.779 317.006 288.985 319.598C290.191 322.189 291.95 324.485 294.137 326.324L288.8 365.715H324.805L319.467 326.324C321.655 324.485 323.414 322.189 324.62 319.598C325.826 317.006 326.45 314.182 326.449 311.324Z" fill="#6A1D0F"/>
<g style="mix-blend-mode:multiply">
<path d="M410.544 281.904C410.544 281.904 406.541 348.331 195.98 380.036L287.564 448.897C293.113 453.059 299.866 455.301 306.802 455.285C313.743 455.29 320.496 453.035 326.041 448.86L425.779 373.871C431.666 369.44 435.845 363.115 437.612 355.962C439.379 348.809 438.626 341.265 435.479 334.603L410.544 281.904Z" fill="#FEBF10"/>
</g>
<path d="M252.187 281.372C261.468 281.372 268.991 273.849 268.991 264.568C268.991 255.287 261.468 247.764 252.187 247.764C242.906 247.764 235.383 255.287 235.383 264.568C235.383 273.849 242.906 281.372 252.187 281.372Z" fill="white"/>
<path d="M77.7206 517.423C86.5441 517.423 93.697 502.863 93.697 484.902C93.697 466.941 86.5441 452.381 77.7206 452.381C68.897 452.381 61.7441 466.941 61.7441 484.902C61.7441 502.863 68.897 517.423 77.7206 517.423Z" fill="#FFE375"/>
<path d="M61.7442 452.381C67.224 452.381 71.6662 447.939 71.6662 442.459C71.6662 436.979 67.224 432.537 61.7442 432.537C56.2645 432.537 51.8223 436.979 51.8223 442.459C51.8223 447.939 56.2645 452.381 61.7442 452.381Z" fill="#FFE375"/>
<path opacity="0.62" d="M161.075 547.573H452.481C466.972 547.573 480.87 541.816 491.117 531.569C501.363 521.323 507.12 507.425 507.12 492.934V467.406C438.445 552.935 115.432 523.009 115.432 523.009C120.407 530.566 127.184 536.767 135.151 541.055C143.119 545.343 152.027 547.583 161.075 547.573Z" fill="#7C131A"/>
<path d="M415.325 38.0812C422.859 38.0812 428.966 35.1603 428.966 31.5572C428.966 27.9541 422.859 25.0332 415.325 25.0332C407.791 25.0332 401.684 27.9541 401.684 31.5572C401.684 35.1603 407.791 38.0812 415.325 38.0812Z" fill="white"/>
</g>
<defs>
<clipPath id="clip0_5095_1158">
<rect width="603.2" height="566.119" fill="white"/>
</clipPath>
</defs>
</svg>
