<svg width="643" height="643" viewBox="0 0 643 643" fill="none" xmlns="http://www.w3.org/2000/svg">
<g clip-path="url(#clip0_6378_426)">
<path d="M321.111 642.15C274.647 642.147 228.738 632.063 186.55 612.594C144.362 593.124 106.901 564.733 76.7511 529.38C66.4145 517.264 56.9856 504.403 48.5411 490.9C48.4611 490.78 48.3911 490.66 48.3211 490.54C18.5658 442.7 1.92557 387.872 0.072212 331.564C-1.78115 275.256 11.2177 219.451 37.7626 169.759C64.3076 120.066 103.464 78.234 151.296 48.4673C199.129 18.7005 253.954 2.04697 310.261 0.180008C313.931 0.0600079 317.561 0 321.071 0C406.219 0.00795601 487.877 33.8384 548.082 94.0498C608.288 154.261 642.111 235.922 642.111 321.07C642.119 344.243 639.635 367.349 634.701 389.99C631.834 403.107 628.14 416.03 623.641 428.68C601.392 491.122 560.376 545.154 506.215 583.371C452.053 621.588 387.398 642.119 321.111 642.15Z" fill="#231F20"/>
<path d="M627.11 321.07C627.146 343.161 624.799 365.192 620.11 386.78C614.126 414.127 604.394 440.516 591.19 465.2C539.65 561.58 438.03 627.2 321.1 627.2C276.814 627.187 233.057 617.57 192.848 599.011C152.638 580.452 116.931 553.393 88.1904 519.7C78.328 508.143 69.3335 495.873 61.2804 482.99C30.9452 434.438 14.9056 378.32 15.0004 321.07C15.0004 184.3 104.71 68.48 228.5 29.25C240.666 25.3916 253.064 22.3087 265.62 20.02C280.523 17.288 295.608 15.6668 310.75 15.17C314.17 15.06 317.62 15 321.07 15C490.11 15 627.11 152.03 627.11 321.07Z" fill="#FFE000"/>
<path d="M451.65 44.1992C472.028 87.3411 482.026 134.653 480.845 182.351C479.665 230.049 467.337 276.809 444.85 318.889C393.31 415.269 291.69 480.839 174.76 480.839C129.609 480.897 85.0083 470.927 44.1797 451.649C49.2585 462.398 54.9582 472.842 61.2497 482.929C69.3028 495.812 78.2972 508.082 88.1597 519.639C116.904 553.339 152.616 580.403 192.834 598.964C233.051 617.525 276.816 627.141 321.11 627.149C438.04 627.149 539.66 561.579 591.2 465.149C614.862 420.816 627.198 371.322 627.11 321.069C627.11 198.749 555.38 93.1992 451.65 44.1992Z" fill="#FFC200"/>
<path d="M291.95 471.45C258.87 528.75 186.59 550.26 114.77 547.16C105.329 538.56 96.4416 529.371 88.16 519.65C78.2976 508.093 69.3031 495.823 61.25 482.94C139.97 525.57 225.99 523.19 267.11 458.7C310.96 389.87 258.6 335.99 240 325.25C221.4 314.51 173.5 302.98 147.73 347.62C121.96 392.26 132.21 421.73 161.04 438.38C189.87 455.03 215.32 423.84 215.32 423.84C215.32 423.84 233.32 397.01 212.83 385.2C211.38 384.36 209.98 383.62 208.64 382.96L207.06 382.21C206.55 381.97 206.06 381.75 205.54 381.54C205.02 381.33 204.54 381.13 204.07 380.95C203.83 380.85 203.59 380.76 203.35 380.68C202.88 380.5 202.41 380.34 201.96 380.19C201.05 379.88 200.17 379.63 199.33 379.41C196.85 378.75 194.296 378.414 191.73 378.41C191.03 378.41 190.37 378.41 189.73 378.5L188.83 378.6L188.15 378.71H188C187.47 378.81 187 378.92 186.55 379.04C185.828 379.237 185.125 379.498 184.45 379.82L183.99 380.05H183.89L183.75 380.14C183.593 380.226 183.443 380.323 183.3 380.43C183.3 380.43 197.86 361.65 219 370.14C240.14 378.63 248.11 405.57 233.78 428.31C222.31 446.47 190.55 475.31 149.2 458.84C108.77 442.77 92.77 389.06 125.11 339.57C157.45 290.08 204.11 273.57 250.48 302.84C296.85 332.11 340.97 386.57 291.95 471.45Z" fill="#FFEA54"/>
<path d="M88.16 519.649C78.2976 508.092 69.3031 495.822 61.25 482.939C139.97 525.569 225.99 523.189 267.11 458.699C310.96 389.869 258.6 335.989 240 325.249C221.4 314.509 173.5 302.979 147.73 347.619C121.96 392.259 132.21 421.729 161.04 438.379C189.87 455.029 215.32 423.839 215.32 423.839C215.32 423.839 233.32 397.009 212.83 385.199C211.38 384.359 209.98 383.619 208.64 382.959L207.06 382.209C206.55 381.969 206.06 381.749 205.54 381.539C205.02 381.329 204.54 381.129 204.07 380.949C203.83 380.849 203.59 380.759 203.35 380.679C202.88 380.499 202.41 380.339 201.96 380.189C201.05 379.879 200.17 379.629 199.33 379.409C196.219 378.519 192.977 378.181 189.75 378.409C189.44 378.409 189.14 378.469 188.85 378.509L188.17 378.619H188.02C187.49 378.709 187.02 378.829 186.57 378.949C185.848 379.146 185.145 379.407 184.47 379.729L184.01 379.959H183.91C188.44 377.119 218.04 359.959 229.43 389.629C241.78 421.849 210.54 449.229 183.32 455.129C156.1 461.029 106.89 429.009 119.37 379.429C131.85 329.849 165.51 302.779 203.11 301.709C240.71 300.639 297.61 336.069 299.76 403.709C301.91 471.349 227.18 556.109 88.16 519.649Z" fill="#FFF3A8"/>
<path d="M620.111 386.78C614.127 414.126 604.395 440.515 591.191 465.2C588.721 375.71 543.691 302.36 467.281 299.02C385.751 295.46 365.281 367.75 365.281 389.23C365.281 410.71 379.281 457.95 430.781 457.95C482.281 457.95 502.781 434.33 502.781 401.04C502.781 367.75 463.051 361.31 463.051 361.31C463.051 361.31 430.831 359.16 430.831 382.78C430.831 384.39 430.831 385.91 430.971 387.34C430.971 387.81 431.041 388.27 431.071 388.72C431.08 388.833 431.08 388.946 431.071 389.06C431.131 389.6 431.181 390.12 431.241 390.63C431.241 390.88 431.311 391.14 431.341 391.4C431.371 391.66 431.411 391.9 431.451 392.15C431.728 394.058 432.132 395.945 432.661 397.8C432.721 398.03 432.791 398.25 432.861 398.47L432.921 398.66L433.101 399.21C433.221 399.57 433.341 399.93 433.471 400.27C433.601 400.61 433.731 400.95 433.871 401.27C434.061 401.76 434.271 402.21 434.481 402.65C434.551 402.79 434.611 402.94 434.691 403.08C434.771 403.22 434.961 403.63 435.111 403.89V403.95C435.241 404.19 435.371 404.43 435.511 404.65C435.651 404.87 435.741 405.03 435.851 405.21L435.941 405.35C436.091 405.58 436.231 405.79 436.381 406C436.531 406.21 436.641 406.37 436.771 406.55L437.241 407.15C437.381 407.33 437.521 407.5 437.671 407.66C437.926 407.96 438.196 408.247 438.481 408.52C438.603 408.651 438.733 408.774 438.871 408.89C438.986 409.008 439.11 409.118 439.241 409.22C439.349 409.326 439.466 409.423 439.591 409.51C440.012 409.85 440.457 410.161 440.921 410.44C441.078 410.534 441.242 410.618 441.411 410.69C441.411 410.69 417.861 407.47 414.641 384.92C411.421 362.37 430.741 341.92 457.641 343.04C479.101 343.9 519.921 357.04 526.361 401.04C532.671 444.04 494.151 484.8 435.091 481.57C376.031 478.34 338.451 446.14 340.591 391.37C342.731 336.6 367.871 271.1 465.911 271.1C532.051 271.1 586.841 322.99 620.111 386.78Z" fill="#FFEA54"/>
<path d="M609.541 423.64C604.459 437.933 598.315 451.825 591.161 465.2C588.691 375.71 543.661 302.36 467.251 299.02C385.721 295.46 365.251 367.75 365.251 389.23C365.251 410.71 379.251 457.95 430.751 457.95C482.251 457.95 502.751 434.33 502.751 401.04C502.751 367.75 463.021 361.31 463.021 361.31C463.021 361.31 430.801 359.16 430.801 382.78C430.801 384.39 430.801 385.91 430.941 387.34C430.941 387.81 431.011 388.27 431.041 388.72C431.051 388.834 431.051 388.947 431.041 389.06C431.101 389.6 431.151 390.12 431.211 390.63C431.211 390.88 431.281 391.14 431.311 391.4C431.341 391.66 431.381 391.9 431.421 392.15C431.698 394.059 432.103 395.946 432.631 397.8C432.701 398.03 432.761 398.25 432.831 398.47L432.891 398.66L433.071 399.21C433.191 399.58 433.321 399.93 433.441 400.27C433.561 400.61 433.701 400.95 433.841 401.27C434.031 401.75 434.241 402.21 434.451 402.65C434.521 402.79 434.581 402.94 434.661 403.08C434.741 403.22 434.941 403.63 435.081 403.89V403.95L435.481 404.65L435.821 405.21L435.911 405.35C436.061 405.58 436.201 405.8 436.351 406C436.501 406.2 436.611 406.38 436.741 406.55L437.211 407.15C437.351 407.33 437.501 407.5 437.641 407.66C437.781 407.82 438.191 408.26 438.451 408.52C438.711 408.78 438.711 408.78 438.841 408.89C438.971 409 439.091 409.12 439.211 409.22C439.323 409.323 439.44 409.42 439.561 409.51C439.982 409.851 440.427 410.161 440.891 410.44C436.561 408.17 406.181 391.05 426.391 366.12C448.121 339.32 487.451 352.69 506.181 373.31C524.911 393.93 521.771 452.57 472.591 466.57C423.411 480.57 383.011 464.97 363.291 432.96C343.571 400.95 345.801 333.96 403.291 298.26C460.781 262.56 571.571 284.87 609.501 423.5C609.511 423.57 609.531 423.57 609.541 423.64Z" fill="#FFF3A8"/>
<path d="M372.219 269.06C323.719 294.57 254.419 305.57 205.399 220.67C172.299 163.34 189.849 89.9299 228.499 29.2499C240.665 25.3915 253.063 22.3086 265.619 20.0199C280.521 17.2879 295.606 15.6667 310.749 15.1699C234.539 62.0499 193.589 137.69 228.889 205.5C266.569 277.89 339.409 259.5 358.009 248.75C376.609 238 410.549 202.3 384.769 157.66C358.989 113.02 328.339 107.16 299.509 123.81C270.679 140.46 284.969 178.08 284.969 178.08C284.969 178.08 299.219 207.08 319.679 195.24C321.703 194.075 323.666 192.807 325.559 191.44C325.989 191.13 326.409 190.82 326.809 190.51L327.979 189.58C328.259 189.36 328.519 189.14 328.779 188.91C329.039 188.68 329.159 188.59 329.339 188.42C329.769 188.05 330.179 187.68 330.559 187.31C330.939 186.94 331.169 186.72 331.459 186.43C332.039 185.84 332.569 185.26 333.059 184.69L333.749 183.86C333.869 183.72 333.979 183.58 334.079 183.44L334.569 182.8C336.034 180.857 337.166 178.684 337.919 176.37C337.939 176.318 337.955 176.264 337.969 176.21C338.333 175.061 338.528 173.865 338.549 172.66V172.57C338.562 172.39 338.562 172.21 338.549 172.03C338.549 172.03 347.549 194.03 329.619 208.1C311.689 222.17 284.369 215.62 271.879 191.84C261.879 172.84 252.819 130.92 287.729 103.33C321.869 76.3299 376.379 89.3299 403.119 142.11C429.859 194.89 420.719 243.57 372.219 269.06Z" fill="#FFEA54"/>
<path d="M396.829 228.57C378.969 261.66 319.829 293.23 260.169 261.26C200.509 229.29 164.469 122.26 265.559 20.0702L265.619 20.0102C280.522 17.2781 295.607 15.657 310.749 15.1602C234.539 62.0402 193.589 137.68 228.889 205.49C266.569 277.88 339.409 259.49 358.009 248.74C376.609 237.99 410.549 202.29 384.769 157.65C358.989 113.01 328.339 107.15 299.509 123.8C270.679 140.45 284.969 178.07 284.969 178.07C284.969 178.07 299.219 207.07 319.679 195.23C321.703 194.066 323.666 192.797 325.559 191.43C325.999 191.12 326.409 190.81 326.809 190.5C327.209 190.19 327.609 189.88 327.979 189.57C328.349 189.26 328.519 189.13 328.779 188.9C329.039 188.67 329.159 188.58 329.339 188.41C329.769 188.04 330.179 187.67 330.559 187.3L331.459 186.42C332.039 185.83 332.569 185.25 333.059 184.68L333.749 183.85C333.869 183.71 333.979 183.57 334.079 183.43L334.569 182.79C336.034 180.847 337.166 178.674 337.919 176.36C337.919 176.3 337.919 176.25 337.969 176.2C338.333 175.051 338.528 173.855 338.549 172.65C338.759 177.65 339.039 212.36 307.419 207.33C273.349 201.92 265.259 161.17 273.749 134.64C282.239 108.11 334.589 81.5202 371.289 117.11C407.989 152.7 414.699 195.5 396.829 228.57Z" fill="#FFF3A8"/>
<path d="M594.943 259.978C604.054 256.993 606.386 239.145 600.151 220.115C593.916 201.084 581.476 188.077 572.364 191.062C563.253 194.047 560.922 211.894 567.156 230.925C573.391 249.955 585.832 262.963 594.943 259.978Z" fill="white"/>
<path d="M553.521 189.071C559.441 189.071 564.241 184.271 564.241 178.351C564.241 172.43 559.441 167.631 553.521 167.631C547.6 167.631 542.801 172.43 542.801 178.351C542.801 184.271 547.6 189.071 553.521 189.071Z" fill="white"/>
<path d="M119.916 508.504C129.746 501.401 125.795 479.146 111.091 458.795C96.3868 438.445 76.4975 427.706 66.6669 434.809C56.8364 441.912 60.7873 464.167 75.4915 484.518C90.1958 504.868 110.085 515.607 119.916 508.504Z" fill="white"/>
<path d="M253.764 65.4658C283.321 59.3824 305.853 47.5091 304.091 38.9459C302.328 30.3827 276.939 28.3724 247.381 34.4558C217.824 40.5392 195.292 52.4125 197.054 60.9757C198.817 69.5389 224.207 71.5492 253.764 65.4658Z" fill="white"/>
<path d="M193.46 96.8195C200.606 96.8195 206.4 91.026 206.4 83.8794C206.4 76.7329 200.606 70.9395 193.46 70.9395C186.313 70.9395 180.52 76.7329 180.52 83.8794C180.52 91.026 186.313 96.8195 193.46 96.8195Z" fill="white"/>
</g>
<defs>
<clipPath id="clip0_6378_426">
<rect width="642.15" height="642.15" fill="white"/>
</clipPath>
</defs>
</svg>
