<svg width="435" height="556" viewBox="0 0 435 556" fill="none" xmlns="http://www.w3.org/2000/svg">
<g clip-path="url(#clip0_6248_301)">
<path d="M197.7 555.931C194.63 555.931 191.61 555.931 188.7 555.821L186.37 555.751C183.16 555.641 179.97 555.491 176.91 555.291C175.303 555.191 173.683 555.071 172.05 554.931C169.57 554.731 167.05 554.481 164.64 554.201C152.495 552.88 140.504 550.402 128.83 546.801C127.09 546.251 125.36 545.671 123.67 545.071C102.54 537.581 84.6697 525.961 70.6697 510.521L69.4898 509.211L68.6597 508.211L67.9798 507.391C67.8198 507.211 67.3499 506.631 67.3199 506.591C66.9099 506.081 66.4598 505.501 66.0098 504.901L65.9497 504.811C65.7197 504.501 65.4798 504.171 65.2498 503.811L65.1597 503.681C64.9597 503.401 64.7599 503.121 64.5699 502.831L64.4798 502.701L63.8299 501.701C63.8099 501.665 63.7864 501.632 63.7598 501.601C62.8198 500.131 61.8898 498.601 61.0198 496.901L60.9698 496.821C60.7598 496.431 60.5499 496.021 60.3399 495.611C60.3399 495.561 60.2898 495.511 60.2698 495.471C60.1098 495.141 59.8997 494.731 59.6997 494.311V494.201C53.1597 480.681 44.8198 455.321 28.2098 362.201C18.6498 308.661 13.3699 272.311 12.0599 251.101C10.9099 232.471 12.7398 225.311 15.4598 219.161C17.3598 203.241 29.9898 188.351 52.4598 175.391C51.8298 174.671 51.2099 173.941 50.5899 173.211C50.3399 172.901 50.0799 172.591 49.8299 172.271L49.2598 171.581C48.4398 170.581 47.6099 169.581 46.8099 168.581L46.1697 167.751L45.9097 167.421C44.9997 166.251 44.0797 165.071 43.1897 163.881L42.6697 163.171L42.4898 162.931C41.5498 161.651 40.6097 160.371 39.6997 159.081C39.5597 158.901 39.1897 158.351 39.1897 158.351C38.2397 156.991 37.2799 155.611 36.3499 154.221C36.2599 154.071 36.1398 153.891 36.0198 153.711C35.0198 152.231 34.0897 150.771 33.1697 149.291L32.9297 148.911C31.9297 147.261 30.9299 145.761 30.1099 144.291C30.0767 144.222 30.0399 144.156 29.9998 144.091C6.75564 104.783 -3.38307 59.1011 1.04985 13.6509C1.39262 10.0049 3.0572 6.61028 5.73002 4.10693C8.40284 1.60358 11.8993 0.164339 15.5599 0.0607879C17.6099 0.0107879 19.6898 -0.0192902 21.7398 -0.0192902C50.8803 -0.0628119 79.7287 5.788 106.55 17.1809C134.367 28.968 159.393 46.4773 180 68.5708C195.166 84.7199 207.753 103.109 217.32 123.091C226.884 103.108 239.472 84.7182 254.64 68.5708C275.243 46.4776 300.265 28.9682 328.08 17.1809C354.905 5.788 383.756 -0.0627827 412.9 -0.0192902C414.95 -0.0192902 417.03 -0.0192121 419.08 0.0607879C422.74 0.164339 426.237 1.60358 428.909 4.10693C431.582 6.61028 433.247 10.0049 433.59 13.6509C437.793 57.1489 428.692 100.898 407.49 139.111C407.463 139.152 407.439 139.195 407.42 139.241V139.241C406.55 140.801 405.63 142.411 404.67 144.031C404.61 144.131 404.56 144.231 404.5 144.321C403.63 145.791 402.72 147.321 401.7 148.921L401.5 149.251C400.55 150.761 399.6 152.251 398.63 153.681L398.28 154.221C397.353 155.614 396.403 156.998 395.43 158.371C395.43 158.371 395.08 158.891 394.94 159.081C394 160.414 393.04 161.747 392.06 163.081L391.93 163.261C391.78 163.481 391.62 163.691 391.46 163.901C390.55 165.121 389.62 166.311 388.69 167.511L388.45 167.811L387.82 168.631C386.9 169.778 385.963 170.924 385.01 172.071L384.84 172.281C405.95 184.101 417.73 197.741 419.97 212.971C431.52 237.351 425.8 264.701 415.71 312.901C414.17 320.281 412.57 327.901 410.88 336.271C410.06 340.271 409.23 344.427 408.39 348.741L407.39 354.041L406.53 358.511L405.71 362.881L404.89 367.271C404.63 368.741 404.36 370.211 404.09 371.711C399.54 396.831 396.03 415.901 392.27 432.531C391.55 435.691 390.83 438.741 390.12 441.601C389.41 444.461 388.63 447.481 387.89 450.161C387.5 451.551 387.12 452.921 386.73 454.261C385.93 456.981 385.11 459.621 384.29 462.131C382.54 467.421 380.75 472.131 378.8 476.671C374.158 487.765 367.665 497.99 359.6 506.911C350.863 516.405 340.783 524.568 329.68 531.141C328.18 532.021 326.68 532.891 325.13 533.721C289.43 553.081 250.24 554.431 221.63 555.421L216.55 555.601L213.87 555.681L211.09 555.761C209.33 555.811 207.53 555.851 205.7 555.881H202.6C201.09 555.881 199.6 555.881 198.02 555.881L197.7 555.931Z" fill="black"/>
<path d="M30.1506 223.02C85.6806 169.34 179.881 159.58 216.151 159.78C263.691 160.04 308.551 163.78 405.321 217.23C419.951 244.66 405.321 280.29 389.321 369.01C376.811 438.2 370.091 473.32 348.561 496.74C311.221 537.32 257.271 539.16 221.051 540.41C183.901 541.72 121.361 543.83 81.8408 500.41C71.8408 489.56 63.8407 476.2 43.0107 359.59C20.8907 236.22 26.3506 231.3 30.1506 223.02Z" fill="#EDBFF5"/>
<path d="M372.83 200.189L332.11 278.089C332.11 278.089 341.88 442.689 270.99 503.429C237.78 531.879 213.06 539.289 199.52 540.919C207.26 540.919 214.519 540.639 220.959 540.409C257.179 539.159 311.129 537.319 348.469 496.739C369.999 473.319 376.719 438.199 389.229 369.009C405.289 280.289 419.899 244.659 405.229 217.229C393.759 210.829 382.97 205.219 372.83 200.189Z" fill="#D4AFD3"/>
<path d="M30.1504 223.021C30.9004 184.351 141.481 149.161 233.521 151.861C306.521 153.961 403.461 180.991 405.271 217.231C407.081 253.471 313.611 295.761 230.781 300.041C135.761 304.831 29.4004 261.171 30.1504 223.021Z" fill="#E8DFEA"/>
<path d="M69.7603 220.08C70.3203 192.59 154.7 167.53 224.9 169.44C280.66 170.95 354.52 190.16 355.9 215.94C357.28 241.72 286.02 271.78 222.79 274.87C150.39 278.35 69.2403 247.24 69.7603 220.08Z" fill="black"/>
<path opacity="0.5" d="M396.109 333.27C396.109 333.37 333.799 517.72 73.1094 487.76C75.2835 492.413 78.1904 496.688 81.7192 500.42C121.239 543.83 183.779 541.72 220.929 540.42C257.149 539.17 311.099 537.33 348.439 496.75C369.969 473.33 376.689 438.21 389.199 369.02C391.589 356 393.909 344.14 396.109 333.27Z" fill="#C88FBF"/>
<path d="M384.537 314.493C387.588 298.253 385.961 284.317 380.902 283.367C375.843 282.416 369.269 294.811 366.218 311.051C363.167 327.292 364.794 341.227 369.853 342.178C374.912 343.128 381.486 330.733 384.537 314.493Z" fill="white"/>
<path d="M355.839 358.19C359.783 358.19 362.979 354.993 362.979 351.05C362.979 347.107 359.783 343.91 355.839 343.91C351.896 343.91 348.699 347.107 348.699 351.05C348.699 354.993 351.896 358.19 355.839 358.19Z" fill="white"/>
<path d="M69.4706 172.01C88.9902 192.903 112.738 209.396 139.132 220.39C165.527 231.385 193.961 236.628 222.541 235.77L15.9205 15.0801C13.1861 43.5407 16.5477 72.2573 25.7814 99.3169C35.015 126.376 49.9088 151.158 69.4706 172.01V172.01Z" fill="#D4AFD3"/>
<path d="M15.9199 15.0805L222.54 235.77C225.273 207.308 221.91 178.589 212.675 151.528C203.439 124.467 188.544 99.6839 168.98 78.8305C149.46 57.9417 125.713 41.4518 99.3206 30.4594C72.9284 19.467 44.497 14.2243 15.9199 15.0805V15.0805Z" fill="#E8DFEA"/>
<path opacity="0.5" d="M222.54 235.77C224.627 213.666 223.07 191.369 217.93 169.77C136 197.31 25.3302 97.7697 25.2402 97.6797C34.421 125.361 49.5132 150.713 69.4702 171.979C88.9871 192.878 112.734 209.377 139.128 220.376C165.523 231.376 193.958 236.623 222.54 235.77V235.77Z" fill="#C88FBF"/>
<path d="M139.334 87.3255C146.304 77.8829 141.201 62.292 127.937 52.5021C114.673 42.7122 98.2701 42.4307 91.3007 51.8733C84.3314 61.3159 89.4344 76.907 102.699 86.6969C115.963 96.4868 132.365 96.7682 139.334 87.3255Z" fill="#F6FAFE"/>
<path d="M135.741 119.21C141.137 119.21 145.511 114.836 145.511 109.44C145.511 104.044 141.137 99.6699 135.741 99.6699C130.345 99.6699 125.971 104.044 125.971 109.44C125.971 114.836 130.345 119.21 135.741 119.21Z" fill="#F6FAFE"/>
<path d="M365.041 172.01C345.521 192.903 321.773 209.396 295.379 220.39C268.985 231.385 240.55 236.628 211.971 235.77L418.591 15.0801C421.325 43.5407 417.964 72.2573 408.73 99.3169C399.496 126.376 384.603 151.158 365.041 172.01V172.01Z" fill="#D4AFD3"/>
<path d="M418.591 15.0805L211.97 235.77C209.237 207.308 212.6 178.589 221.836 151.528C231.071 124.467 245.967 99.6839 265.531 78.8305C285.051 57.9417 308.798 41.4518 335.19 30.4594C361.582 19.467 390.014 14.2243 418.591 15.0805V15.0805Z" fill="#E8DFEA"/>
<path opacity="0.5" d="M211.97 235.77C209.883 213.666 211.441 191.369 216.58 169.77C298.51 197.31 409.18 97.7697 409.27 97.6797C400.089 125.361 384.997 150.713 365.04 171.979C345.523 192.878 321.776 209.377 295.382 220.376C268.988 231.376 240.552 236.623 211.97 235.77V235.77Z" fill="#C88FBF"/>
<path d="M164.71 418.46C179.837 418.46 192.1 406.197 192.1 391.07C192.1 375.943 179.837 363.68 164.71 363.68C149.583 363.68 137.32 375.943 137.32 391.07C137.32 406.197 149.583 418.46 164.71 418.46Z" fill="#F8F9E3"/>
<path d="M269.8 418.46C284.927 418.46 297.19 406.197 297.19 391.07C297.19 375.943 284.927 363.68 269.8 363.68C254.673 363.68 242.41 375.943 242.41 391.07C242.41 406.197 254.673 418.46 269.8 418.46Z" fill="#F8F9E3"/>
<path d="M137.319 391.07C137.029 387.425 137.52 383.76 138.759 380.32C140.028 376.822 142.002 373.623 144.559 370.92C147.147 368.188 150.263 366.01 153.719 364.52C157.2 363.046 160.939 362.278 164.719 362.26C168.5 362.278 172.24 363.05 175.719 364.53C179.172 366.015 182.286 368.19 184.869 370.92C187.424 373.624 189.398 376.823 190.669 380.32C191.906 383.76 192.401 387.424 192.119 391.07C191.578 383.997 188.444 377.373 183.319 372.47C178.286 367.73 171.633 365.091 164.719 365.09C157.807 365.095 151.158 367.738 146.129 372.48C140.996 377.374 137.857 383.997 137.319 391.07Z" fill="#231F20"/>
<path d="M192.11 391.07C192.391 394.716 191.897 398.38 190.66 401.82C189.392 405.319 187.418 408.518 184.86 411.22C182.273 413.947 179.161 416.121 175.71 417.61C172.229 419.086 168.49 419.857 164.71 419.88C160.929 419.858 157.19 419.087 153.71 417.61C150.254 416.124 147.138 413.95 144.55 411.22C141.996 408.516 140.026 405.317 138.76 401.82C137.513 398.382 137.018 394.716 137.31 391.07C137.84 398.143 140.976 404.767 146.11 409.66C151.138 414.404 157.787 417.047 164.7 417.05C171.612 417.047 178.262 414.404 183.29 409.66C188.426 404.767 191.569 398.144 192.11 391.07Z" fill="#231F20"/>
<path d="M163.281 419.071C173.205 419.071 181.251 411.025 181.251 401.101C181.251 391.176 173.205 383.131 163.281 383.131C153.356 383.131 145.311 391.176 145.311 401.101C145.311 411.025 153.356 419.071 163.281 419.071Z" fill="#040809"/>
<path d="M242.399 391.07C242.118 387.424 242.612 383.76 243.849 380.32C245.114 376.82 247.089 373.62 249.649 370.92C252.235 368.19 255.348 366.013 258.799 364.52C262.281 363.048 266.019 362.28 269.799 362.26C273.581 362.276 277.32 363.048 280.799 364.53C284.257 366.013 287.374 368.187 289.959 370.92C292.514 373.624 294.488 376.823 295.759 380.32C296.998 383.76 297.489 387.425 297.199 391.07C296.666 383.995 293.531 377.368 288.399 372.47C283.37 367.729 276.72 365.089 269.809 365.09C262.897 365.095 256.248 367.738 251.219 372.48C246.086 377.376 242.945 383.997 242.399 391.07V391.07Z" fill="#231F20"/>
<path d="M297.189 391.07C297.484 394.718 296.996 398.386 295.759 401.83C294.488 405.327 292.514 408.526 289.959 411.23C287.373 413.957 284.26 416.131 280.809 417.62C277.328 419.096 273.59 419.867 269.809 419.89C266.028 419.87 262.289 419.098 258.809 417.62C255.354 416.134 252.237 413.96 249.649 411.23C247.096 408.524 245.123 405.326 243.849 401.83C242.612 398.39 242.118 394.726 242.399 391.08C242.938 398.153 246.076 404.775 251.209 409.67C256.237 414.414 262.887 417.057 269.799 417.06C276.711 417.055 283.36 414.412 288.389 409.67C293.521 404.772 296.656 398.145 297.189 391.07V391.07Z" fill="#231F20"/>
<path d="M268.37 419.071C278.295 419.071 286.34 411.025 286.34 401.101C286.34 391.176 278.295 383.131 268.37 383.131C258.446 383.131 250.4 391.176 250.4 401.101C250.4 411.025 258.446 419.071 268.37 419.071Z" fill="#040809"/>
<path d="M238.321 425.09H194.211" stroke="#231F20" stroke-width="15" stroke-miterlimit="10" stroke-linecap="round"/>
</g>
<defs>
<clipPath id="clip0_6248_301">
<rect width="434.51" height="555.93" fill="white"/>
</clipPath>
</defs>
</svg>
