<svg width="623" height="927" viewBox="0 0 623 927" fill="none" xmlns="http://www.w3.org/2000/svg">
<g clip-path="url(#clip0_4879_481)">
<path d="M309.59 926.49C480.572 926.49 619.18 897.429 619.18 861.58C619.18 825.731 480.572 796.67 309.59 796.67C138.608 796.67 0 825.731 0 861.58C0 897.429 138.608 926.49 309.59 926.49Z" fill="#A7A9AC"/>
<path d="M306.82 867.7C303.706 867.691 300.672 866.712 298.14 864.9L296.56 863.75L294.38 862.12L291.38 859.81L288.74 857.74L286.85 856.24L283.53 853.56L280.53 851.06L278.23 849.15L274.77 846.23L272.08 843.93L267.67 840.07L265.24 837.92L264.73 837.48L260.73 833.88L257.67 831.09L256.11 829.66L253.24 827.07C251.61 825.54 249.94 823.97 248.24 822.36L245.24 819.52C243.49 817.83 241.71 816.1 239.9 814.31L236.9 811.31C235.03 809.44 233.13 807.52 231.23 805.58L228.89 803.17L226.25 800.42C224.91 799.03 223.58 797.62 222.25 796.19L219.99 793.77L217.09 790.64C215.7 789.12 214.3 787.59 212.91 786.05L210.82 783.72L207.82 780.32C205.74 777.96 203.61 775.51 201.49 773.03L200.87 772.31L198.42 769.42C196.29 766.89 194.15 764.32 192.05 761.74L191.47 761.04L188.96 757.93C186.86 755.32 184.71 752.61 182.58 749.93L182.04 749.23L180.04 746.65L179.47 745.91C177.34 743.13 175.21 740.28 173.11 737.45L172.63 736.79C171.97 735.9 170.06 733.27 170.06 733.27C167.93 730.33 165.79 727.33 163.69 724.32L163.32 723.79C162.67 722.86 162.03 721.92 161.32 720.95L160.72 720.08C160.07 719.08 159.41 718.16 158.72 717.19L158.65 717.1C157.21 714.95 155.77 712.79 154.32 710.59L154.09 710.23C153.45 709.23 152.82 708.23 152.19 707.3L151.56 706.3C150.93 705.3 150.29 704.3 149.64 703.3L149.38 702.88C147.967 700.66 146.57 698.417 145.19 696.15L145.13 696.07L143.38 693.07L142.76 692.07C142.16 691.07 141.55 690.07 140.96 689.07L140.53 688.34C138.53 685.02 136.63 681.65 134.78 678.34L134.17 677.25L132.48 674.07L131.98 673.15C130.13 669.77 128.31 666.34 126.56 662.96L125.97 661.82C125.43 660.82 124.89 659.72 124.36 658.66L123.79 657.53C122.05 654.07 120.34 650.53 118.72 647.13L118.16 645.95L116.65 642.72L116.07 641.45C114.48 637.96 112.88 634.36 111.32 630.72L110.83 629.58L109.45 626.29L108.87 624.88C108.41 623.76 107.95 622.64 107.5 621.52L107.36 621.17C106.36 618.76 105.44 616.33 104.51 613.9L104.05 612.69C103.63 611.59 103.21 610.48 102.8 609.35L102.23 607.82C101.82 606.7 101.42 605.57 101.02 604.47L100.65 603.47C99.8399 601.17 99.0499 598.87 98.2699 596.55L97.8699 595.38C97.4999 594.26 97.1399 593.14 96.7699 592.01L96.2299 590.32C95.8699 589.2 95.5199 588.08 95.1699 586.94L94.7399 585.53C94.0732 583.25 93.3899 580.947 92.6899 578.62L92.3799 577.47C92.0599 576.34 91.7399 575.2 91.4299 574.07C91.2599 573.46 91.0999 572.85 90.9299 572.24C90.6299 571.12 90.3299 570 90.0399 568.88L89.5999 567.17C88.9932 564.81 88.4032 562.444 87.8299 560.07L87.6099 559.14C87.3399 558.01 87.0899 556.87 86.8299 555.75C86.6799 555.09 86.5299 554.43 86.3899 553.75C86.1399 552.63 85.8999 551.51 85.6599 550.4L85.2499 548.4C84.4599 544.59 83.7099 540.73 83.0299 536.88C82.9099 536.19 82.7799 535.5 82.6699 534.82C82.4799 533.7 82.2899 532.58 82.0999 531.44L81.7599 529.31C70.1799 455.77 79.9099 381.68 110.69 309.09C111.49 307.203 112.669 305.5 114.153 304.086C115.638 302.673 117.396 301.578 119.32 300.87C119.973 300.631 120.641 300.433 121.32 300.28C115.151 294.851 110.542 287.875 107.97 280.07C98.3399 273.07 94.9699 267.07 93.8999 264.57C93.4909 263.605 93.1826 262.599 92.9799 261.57C90.7892 251.173 91.8362 240.354 95.9799 230.57C89.2199 215.11 95.5499 199.81 102.74 192.21C104.122 190.749 105.785 189.581 107.628 188.775C109.472 187.969 111.458 187.543 113.47 187.52H113.63C116.807 187.52 119.903 188.528 122.47 190.4C132.05 180.55 140.93 175.89 149.9 175.89C151.769 175.888 153.632 176.107 155.45 176.54C156.87 176.06 158.31 175.64 159.76 175.28C157.632 173.817 155.626 172.185 153.76 170.4L153 170.62C151.72 170.954 150.403 171.126 149.08 171.13C146.174 171.124 143.328 170.301 140.867 168.756C138.406 167.211 136.428 165.005 135.16 162.39C132.16 156.39 132.71 145.08 135.66 135.27C131.636 131.118 128.177 126.455 125.37 121.4C123.991 118.825 123.242 115.96 123.185 113.04C123.128 110.12 123.763 107.227 125.04 104.6C127.39 99.8003 131.57 96.2403 137.51 93.9503C138.24 92.8803 139.01 91.8503 139.82 90.8703C137.73 86.3503 136.45 83.7303 135.68 82.2303C134.743 80.4011 134.192 78.3989 134.061 76.3479C133.93 74.297 134.222 72.2409 134.919 70.3075C135.615 68.374 136.702 66.6043 138.111 65.1082C139.52 63.6121 141.222 62.4215 143.11 61.6103C147.169 59.9474 151.44 58.8602 155.8 58.3803C156.9 56.3933 158.171 54.5061 159.6 52.7403C161.032 50.9147 162.851 49.4296 164.926 48.3921C167.001 47.3545 169.28 46.7904 171.6 46.7403C172.893 46.7358 174.18 46.9211 175.42 47.2903C178.188 48.0171 180.675 49.5562 182.561 51.7092C184.447 53.8622 185.644 56.5305 186 59.3703C186.078 59.606 186.172 59.8365 186.28 60.0603C186.535 60.0406 186.789 60.0039 187.04 59.9503C190.409 59.1996 193.655 57.974 196.68 56.3103C202.28 53.5803 209.25 50.1803 219.56 50.1803C224.918 50.2434 230.243 51.0305 235.39 52.5203C241.88 54.2523 248.009 57.1273 253.49 61.0103L254.03 61.4103C255.03 62.1603 256.03 62.9503 256.94 63.7303L257.41 64.1403C258.32 64.9603 259.16 65.7503 259.91 66.5203L260.23 66.8303C261.06 67.6903 261.87 68.6103 262.71 69.6203C262.87 69.8103 263.03 70.0003 263.16 70.1703C263.98 71.1703 264.7 72.1703 265.42 73.1703L265.66 73.5303C266.28 74.4403 266.89 75.4003 267.45 76.3703C267.52 76.4803 267.59 76.5903 267.65 76.7003L267.89 77.1103C268.43 78.1103 268.89 79.0403 269.44 80.1103L269.76 80.7803C270.639 82.6597 271.424 84.5822 272.11 86.5403C301.803 91.5252 328.8 106.788 348.38 129.66L349.51 130.98C389.14 80.4603 432.65 58.0403 456.51 48.8703C466 13.0103 500.63 0.000335178 529.15 0.000335178C537.532 -0.104875 545.878 1.13071 553.87 3.66033C567.76 8.36033 620.14 31.4703 622.52 58.6603C622.701 60.7329 622.449 62.8204 621.78 64.7903C622.702 67.5049 622.827 70.4269 622.14 73.2103C622.08 73.4503 621.87 74.2803 621.46 75.5803C622.887 79.0654 622.952 82.96 621.64 86.4903C618.44 95.1203 611.23 104.29 607.22 109L607.12 109.11C604.24 112.48 601.12 115.78 597.85 118.93L597.65 119.12L595.9 120.77L595.49 121.14L593.83 122.63L593.36 123.05C592.8 123.54 592.24 124.05 591.67 124.51L591.22 124.89C590.56 125.45 589.89 126 589.22 126.51L589 126.69C588.24 127.3 587.48 127.9 586.71 128.49L586.56 128.6C585.87 129.13 585.17 129.6 584.48 130.15L583.78 130.65C583.25 131.04 582.71 131.42 582.15 131.81L581.32 132.38L579.81 133.38L578.88 133.98L577.34 134.98L576.42 135.54C575.86 135.88 575.3 136.214 574.74 136.54L573.95 137C573.11 137.47 572.26 137.93 571.42 138.38C559.809 144.244 546.957 147.228 533.95 147.08C524.029 147.061 514.172 145.486 504.74 142.41C512.611 150.067 519.625 158.557 525.66 167.73L527.66 167.49H527.81C528.72 167.4 529.64 167.32 530.5 167.26H530.7C532.22 167.16 533.76 167.11 535.25 167.11H536.54C537.54 167.11 538.54 167.17 539.54 167.24H539.68C542.805 167.45 545.908 167.908 548.96 168.61L549.19 168.66C550.19 168.91 551.27 169.19 552.27 169.49L552.46 169.55C554.592 170.201 556.68 170.989 558.71 171.91L558.87 171.98C559.87 172.45 560.87 172.98 561.87 173.48L562.16 173.65C563.22 174.23 564.16 174.82 565.16 175.44L565.29 175.53C566.29 176.18 567.29 176.86 568.18 177.53C573.833 181.914 578.555 187.38 582.07 193.61C589.42 205.969 594.011 219.771 595.53 234.07C596 237.62 596.41 240.68 597.18 242.07C597.95 243.46 600.34 245.17 603.97 247.07C605.725 247.968 607.286 249.202 608.564 250.703C609.842 252.204 610.812 253.943 611.417 255.819C612.023 257.695 612.252 259.672 612.093 261.637C611.934 263.602 611.389 265.516 610.49 267.27C611.513 270.66 611.304 274.302 609.901 277.552C608.497 280.802 605.989 283.451 602.82 285.03C597.528 287.68 591.688 289.05 585.77 289.03C583.606 289.027 581.446 288.853 579.31 288.51C578.081 292.894 576.072 297.02 573.38 300.69C571.977 302.487 570.184 303.94 568.136 304.94C566.088 305.94 563.839 306.46 561.56 306.46C560.263 306.459 558.972 306.287 557.72 305.95C556.02 305.498 554.386 304.826 552.86 303.95C551.86 307.03 551.04 309.09 550.86 309.6C549.72 312.331 547.797 314.663 545.335 316.304C542.872 317.944 539.979 318.82 537.02 318.82H536.48C532.02 318.65 527.32 317.02 521.48 313.46L521.39 313.53C518.791 315.693 515.549 316.935 512.17 317.06C512.33 319.57 512.31 321.92 512.29 324.15C512.085 327.597 512.375 331.056 513.15 334.42C513.23 334.73 513.31 334.97 513.37 335.15H513.38C513.61 335.163 513.84 335.163 514.07 335.15C515.522 334.655 517.046 334.402 518.58 334.4C520.661 334.427 522.712 334.896 524.598 335.775C526.484 336.654 528.162 337.924 529.52 339.5C533.57 344.01 534.05 350.65 531.44 356.12C530.462 358.167 529.308 360.124 527.99 361.97C529.436 366.117 530.295 370.446 530.54 374.83C530.618 376.848 530.288 378.862 529.569 380.749C528.85 382.636 527.758 384.359 526.357 385.814C524.956 387.269 523.276 388.426 521.417 389.216C519.559 390.005 517.559 390.412 515.54 390.41H515.1C513.92 390.41 512.39 390.36 510.56 390.36H505.56C505 391.57 504.39 392.7 503.78 393.76C504.26 399.98 502.91 405.22 499.72 409.37C497.974 411.634 495.727 413.461 493.156 414.709C490.584 415.957 487.758 416.59 484.9 416.56H484.22C478.432 416.202 472.716 415.082 467.22 413.23C460.59 419.23 452.13 424.11 445.67 425.15C462.608 469.015 470.022 515.981 467.42 562.93L467.37 563.79C467.08 568.97 466.65 574.22 466.12 579.42L466.03 580.23C465.49 585.31 464.83 590.47 464.03 595.52L463.91 596.36C463.14 601.36 462.26 606.44 461.28 611.44L461.14 612.15C460.14 617.07 459.08 622.04 457.91 626.91L457.74 627.6C456.58 632.38 455.31 637.25 453.94 642.07L453.77 642.68C452.43 647.38 450.98 652.16 449.45 656.84L449.27 657.39C447.77 661.99 446.16 666.66 444.46 671.3L444.31 671.71C442.66 676.21 440.9 680.78 439.07 685.29L438.93 685.63C437.13 690.06 435.23 694.52 433.29 698.89C433.29 698.89 433.2 699.11 433.18 699.14C432.18 701.33 431.18 703.51 430.18 705.66C429.18 707.81 428.18 709.96 427.18 712.07L427.11 712.22C426.11 714.34 425.05 716.44 424.01 718.52L423.95 718.64C422.91 720.72 421.86 722.787 420.8 724.84C419.75 726.84 418.68 728.9 417.61 730.91L417.5 731.12C415.4 735.02 413.21 738.97 410.97 742.9L410.85 743.11C408.71 746.85 406.49 750.64 404.25 754.34L404.08 754.63C401.92 758.18 399.68 761.79 397.41 765.34L397.21 765.66C395.023 769.087 392.783 772.507 390.49 775.92L390.32 776.17C388.13 779.43 385.9 782.69 383.73 785.77L383.46 786.15C381.31 789.21 379.11 792.28 376.89 795.3L376.67 795.6C374.55 798.48 372.39 801.38 370.25 804.19L370.01 804.5C367.95 807.19 365.85 809.89 363.77 812.5L363.51 812.83C361.51 815.32 359.51 817.83 357.51 820.29L357.27 820.58C355.37 822.9 353.43 825.22 351.52 827.46L351.28 827.74C349.41 829.95 347.58 832.06 345.81 834.08L345.62 834.3L343.01 837.3L342.9 837.43C342.08 838.35 341.27 839.25 340.44 840.16L340.33 840.29L337.91 842.94L337.79 843.07L335.61 845.43L335.45 845.61L333.38 847.83L333.16 848.07L331.16 850.07C331.16 850.07 329.76 851.54 329.16 852.15L327.26 854.15L327.19 854.22L325.59 855.84L323.99 857.44L322.55 858.86L321.26 860.12L320.11 861.24L319.56 860.67C319.54 860.706 319.516 860.739 319.49 860.77L320.01 861.33L318.47 862.79L317.47 863.79C314.702 866.326 311.084 867.732 307.33 867.73L306.82 867.7ZM400.66 366.85C400.5 366.66 400.35 366.46 400.21 366.28C399.81 365.77 399.42 365.28 399.03 364.72L398.71 364.28C398.23 363.59 397.71 362.89 397.32 362.28L396.82 361.48C396.51 360.99 396.21 360.48 395.82 359.9L395.57 359.49L395.38 359.07C395.09 358.56 394.81 358.07 394.51 357.47V357.55L394.2 356.96C394.141 356.857 394.087 356.75 394.04 356.64C393.67 355.91 393.3 355.17 392.95 354.4C392.921 354.35 392.897 354.296 392.88 354.24C390.35 348.825 388.632 343.066 387.78 337.15C387.522 335.25 387.361 333.337 387.3 331.42C387.017 319.426 390.936 307.71 398.38 298.3C396.999 296.236 395.451 294.29 393.75 292.48C384.01 282.08 369.4 276.39 350.27 275.48C336.27 323.2 329.12 378.99 329.02 441.81C363.5 392.88 398.21 369.81 400.02 368.55C400.46 368.264 400.913 368 401.38 367.76L400.66 366.85ZM260.71 284.07C251.28 275.18 240.88 269.26 229.71 266.39C229.28 267.06 228.83 267.73 228.37 268.39C227.43 269.71 226.37 271 225.37 272.24C223.845 274.035 222.215 275.738 220.49 277.34C219.92 277.86 219.35 278.34 218.78 278.86C213.367 283.458 207.3 287.226 200.78 290.04C199.61 290.56 198.41 291.04 197.22 291.52C195.36 292.24 193.45 292.907 191.49 293.52C190.667 294.942 189.612 296.216 188.37 297.29C175.28 308.71 162.69 311.07 154.44 311.07C151.629 311.076 148.825 310.798 146.07 310.24C161.457 320.141 176.048 331.228 189.71 343.4C217.845 368.435 242.497 397.127 263.01 428.71C263.333 402.209 265.045 375.742 268.14 349.42C270.08 333.27 272.6 317.42 275.66 302.15C271.432 295.537 266.411 289.466 260.71 284.07ZM464.04 252.29L463.92 251.89C463.84 251.64 463.76 251.39 463.67 251.09L463.34 249.89V249.77C462.96 248.39 462.65 247.08 462.4 245.77C462.4 245.53 462.18 244.57 462.18 244.57C461.88 242.91 461.65 241.23 461.5 239.66C461.5 239.49 461.5 239.32 461.45 239.15C461.39 238.44 461.34 237.71 461.3 236.94V236.17C461.3 235.44 461.3 234.69 461.3 234V233.72C461.3 233.2 461.3 232.72 461.3 232.1C461.3 231.9 461.36 230.81 461.36 230.81C461.36 230.57 461.36 230.32 461.36 230.12C461.36 229.56 461.45 229.01 461.51 228.45C461.505 228.377 461.505 228.304 461.51 228.23C461.58 227.48 461.67 226.73 461.78 226.01C461.78 225.82 461.93 225.01 461.93 225.01C462.05 224.29 462.18 223.56 462.33 222.83L462.45 222.22V222.33L462.55 221.82C462.7 221.13 462.86 220.44 463.04 219.75C463.04 219.61 463.18 219.24 463.19 219.19C463.39 218.44 463.62 217.69 463.84 216.96L464.08 216.23C464.31 215.5 464.57 214.77 464.85 214.01C464.91 213.84 464.97 213.68 465.01 213.55C465.35 212.68 465.71 211.8 466.07 210.95L466.34 210.36V210.28C466.65 209.6 466.97 208.91 467.34 208.21L467.68 207.54C467.94 207.01 468.22 206.49 468.51 205.95L468.61 205.76L469.07 204.93C469.132 204.806 469.203 204.686 469.28 204.57C469.55 204.08 469.84 203.57 470.14 203.11C461.14 189.72 442.78 170.85 411 170.85C407.883 170.855 404.769 171.025 401.67 171.36C396.39 178.061 391.46 185.03 386.9 192.24C382.9 198.53 379.1 205.17 375.48 212.1C409.82 218.56 431.34 235.28 443.9 249.39C449.165 255.308 453.797 261.76 457.72 268.64H459.72H460.66L462.12 268.71L463.12 268.77C463.68 268.77 464.23 268.86 464.73 268.92L465.38 268.98C466.13 269.07 466.88 269.18 467.62 269.3L468.36 269.43H468.44L469.96 269.72L470.89 269.93L472.22 270.25L472.97 270.45C471.404 268.143 469.975 265.745 468.69 263.27C467.61 261.19 466.63 259.04 465.78 256.91L465.72 256.76C465.43 256.01 465.14 255.26 464.86 254.48C464.58 253.7 464.36 252.99 464.12 252.23L464.04 252.29ZM298.38 172.76C290.093 162.869 278.894 155.848 266.38 152.7C263.143 157.849 259.011 162.377 254.18 166.07C252.533 167.324 250.813 168.479 249.03 169.53C248.21 170 247.38 170.46 246.55 170.88C245.18 171.58 243.72 172.23 242.08 172.88C241.6 173.08 241.08 173.26 240.62 173.44C234.311 175.676 227.673 176.845 220.98 176.9H220.08H218.31H217.99C217.75 176.9 217.52 176.9 217.34 176.9C216.73 176.9 216.14 176.85 215.6 176.81H215.09L214.54 176.76C213.947 176.707 213.367 176.647 212.8 176.58L211.93 176.48C211.08 176.37 210.24 176.24 209.37 176.09L208.88 176C208.24 175.88 207.6 175.75 206.97 175.61L206.27 175.45C205.67 175.31 205.08 175.16 204.45 174.99L203.94 174.85C202.48 174.44 201.02 173.97 199.62 173.45L199.25 173.32L199.14 173.27C198.59 173.07 198.06 172.86 197.46 172.61L197.11 172.46C196.52 172.21 195.94 171.96 195.38 171.7L195.27 171.65C194.11 171.11 192.95 170.54 191.74 169.88L191.51 169.76C189.6 168.76 187.93 167.76 186.43 166.76C186.063 169.674 184.846 172.415 182.93 174.64L182.84 174.75C199.84 177.98 214.84 188.47 224.89 198.92C250.89 201.19 275.35 211.07 296.46 227.85C300.91 215.85 305.8 204.25 311.09 193.24C307.901 185.817 303.616 178.913 298.38 172.76ZM466.86 116.37L466.66 116.47L467.08 116.67L466.86 116.37Z" fill="#231F20"/>
<path d="M296.8 248.07C299.07 250.25 301.2 252.45 303.18 254.62C309.583 233.791 317.676 213.52 327.38 194.01C323.543 182.613 317.532 172.068 309.68 162.96C292.17 142.65 268.15 133.47 238.25 135.66L235.61 99.7595C287.77 95.9295 319.51 119.23 336.95 139.45C341.547 144.792 345.704 150.497 349.38 156.51C406.46 72.5795 476.92 57.8595 479.92 57.2695L486.92 92.5995H487.02C486.87 92.5995 470.97 96.0595 449.24 109.02C442.934 112.799 436.844 116.929 431 121.39C454.357 125.059 476.041 135.762 493.16 152.07C506.417 164.593 516.968 179.7 524.16 196.46L490.59 209.46C489.54 206.82 464.48 145.86 393.7 157.35C386.626 165.897 380.106 174.889 374.18 184.27C366.062 197.167 358.922 210.655 352.82 224.62C394.12 226.62 418.68 243.73 432.64 259.42C451.39 280.49 455.22 303.1 455.64 305.61L420.04 310.92V311.09C417.596 300.275 412.315 290.306 404.74 282.21C390.15 266.63 368.15 259.36 339.24 260.52C311.56 346.13 299.5 479.52 341.14 684.63L305.86 691.799C279.28 560.909 271.61 446.33 283.04 351.23C285.193 333.316 288.02 316.09 291.52 299.55C286.082 289.756 279.164 280.861 271.01 273.18C253.47 256.67 233.08 248.68 210.38 249.43L209.19 213.43C241.88 212.37 272.17 224.33 296.8 248.07Z" fill="#66BE64"/>
<g style="mix-blend-mode:multiply">
<path d="M278.05 458.35C285.535 474.145 292.076 490.37 297.64 506.94C302.43 493.53 308.02 480.42 314.38 467.68C316.07 529.14 324.12 600.92 341.12 684.68L305.84 691.85C288.59 606.82 279.31 528.72 278.05 458.35Z" fill="#4CA84E"/>
</g>
<path d="M307.31 852.71L408.31 381.15C550.65 631.44 307.31 852.71 307.31 852.71Z" fill="#4CA84E"/>
<path d="M408.3 381.15L307.3 852.71C196.08 520.17 408.3 381.15 408.3 381.15Z" fill="#66BE64"/>
<g style="mix-blend-mode:multiply">
<path d="M452.81 554.461C447.44 725.291 307.31 852.711 307.31 852.711C288.14 795.401 278.58 743.841 275.88 697.711C405.2 728.791 449.83 565.941 452.81 554.461Z" fill="#4CA84E"/>
</g>
<path d="M306.88 852.71L124.49 315C-7.86014 627.12 306.88 852.71 306.88 852.71Z" fill="#4CA84E"/>
<path d="M124.49 315L306.88 852.71C391.63 448.65 124.49 315 124.49 315Z" fill="#66BE64"/>
<g style="mix-blend-mode:multiply">
<path d="M96.0601 523.74C125.63 722.79 306.88 852.74 306.88 852.74C321.48 783.07 325.63 721.47 322.51 667.2C175.51 721.13 101.11 536.76 96.0601 523.74Z" fill="#4CA84E"/>
</g>
<path d="M510.8 286.281C510.8 286.281 529.68 303.551 536.98 303.821C536.98 303.821 544.12 286.741 540.91 273.411C540.91 273.411 556.76 290.191 561.55 291.411C561.55 291.411 571.09 279.221 561.81 263.121C561.81 263.121 578.81 280.121 596.13 271.501C596.13 271.501 591.13 263.641 577.56 247.791C563.99 231.941 499.8 258.661 510.8 286.281Z" fill="#B6BCCC"/>
<path d="M503.14 190.07C503.14 190.07 548.85 166.01 569.07 201.12C589.29 236.23 571.49 247.22 597.14 260.34C597.14 260.34 582.03 272.06 568.37 258.82C568.37 258.82 565.79 272.66 557.01 283.6C557.01 283.6 535.8 287.37 528.12 266.16C528.12 266.16 532.71 284.63 511.78 301.96C511.78 301.96 508.97 283.96 495.16 273.08C481.35 262.2 456.82 223.54 503.14 190.07Z" fill="#E9E7E9"/>
<path d="M223.02 221.92C218.38 209.53 185.29 177.07 154.9 193.07C127.35 207.55 129.9 246.57 129.9 246.57L165.07 283.3C165.07 283.3 232.82 281.55 223.02 221.92Z" fill="#E9E7E9"/>
<path d="M139.21 256.281C186.4 256.201 210.11 230.371 219.66 215.971C221.024 217.824 222.153 219.839 223.02 221.971C232.82 281.601 165.02 283.311 165.02 283.311L139.21 256.281Z" fill="#D6CDD7"/>
<g style="mix-blend-mode:multiply" opacity="0.58">
<path d="M223.92 235.811C221.85 281.811 165.04 283.261 165.04 283.261L156.44 274.261C198.07 267.771 216.11 249.991 223.92 235.811Z" fill="#B6BCCC"/>
</g>
<path d="M129.87 246.531C136.18 252.221 142.15 258.241 148.02 264.351C153.89 270.461 159.63 276.701 165.02 283.261C158.7 277.571 152.74 271.551 146.86 265.441C140.98 259.331 135.28 253.071 129.87 246.531Z" fill="#231F20"/>
<g style="mix-blend-mode:multiply" opacity="0.58">
<path d="M181.54 280.78C176.134 282.142 170.608 282.973 165.04 283.26L129.87 246.53C129.87 246.53 127.35 207.53 154.87 193.03C156.481 192.182 158.152 191.454 159.87 190.85C166.94 191 169.17 199.05 169.17 199.05C154.4 221.34 163.57 223.15 163.57 223.15C176.27 227.62 187.44 246.91 187.44 246.91C184.26 257 170.63 267.91 170.63 267.91C171.79 271.91 177.05 277.07 181.54 280.78Z" fill="#B6BCCC"/>
</g>
<path d="M153.85 223.15C153.85 223.15 144.69 221.34 159.45 199.05C159.45 199.05 152.88 175.28 126.45 208.64C126.45 208.64 118.74 207.64 113.66 202.47C113.66 202.47 101.27 215.57 113.35 230.28C113.35 230.28 104.24 240.94 107.68 258.64C107.68 258.64 109.93 263.91 121.04 270.73C121.04 270.73 124.35 293.35 145.87 294.63C145.87 294.63 160.87 301.35 178.52 286.01C178.52 286.01 162.95 275.16 160.89 267.89C160.89 267.89 174.52 257 177.7 246.89C177.72 246.91 166.55 227.62 153.85 223.15Z" fill="#D6CDD7"/>
<path d="M158.67 244.691C158.67 244.691 154.76 241.261 148.86 231.061C148.86 231.061 136.92 237.371 130.38 234.691C130.38 234.691 132.26 243.591 128.38 250.101C128.38 250.101 139.72 255.441 140.38 266.101C140.38 266.101 147.2 260.051 155.87 262.801C155.89 262.781 154.13 255.611 158.67 244.691Z" fill="#B6BCCC"/>
<path d="M486.19 392.07C468.83 394.14 462.5 378.73 462.5 378.73C458.09 393.58 450.88 398.58 443.95 399.44C443.13 404.44 442.46 409.03 442.64 409.97C443.06 412.2 458.55 403.57 462.73 395.5C462.73 395.5 475.66 401.24 484.73 401.5C489.38 401.66 489.6 396.18 487.98 390.16C487.417 390.827 486.819 391.465 486.19 392.07Z" fill="#B6BCCC"/>
<path d="M509.67 359.25C500.88 365.62 489.87 366.58 489.87 366.58C492.073 369.092 493.406 372.249 493.67 375.58C501.31 375.39 510.43 375.23 515.57 375.37C515.57 375.36 515.2 365.81 509.67 359.25Z" fill="#B6BCCC"/>
<path d="M517.92 349.61C517.92 349.61 502.72 353.88 498.6 338.24C494.48 322.6 502.6 314.63 487.66 297.39C472.72 280.15 452.6 280.13 429.53 292.06C406.46 303.99 395.75 324.38 406.53 347.97C417.31 371.56 437.16 368.48 434.73 381.69C432.3 394.9 425.09 393.63 425.09 393.63C425.09 393.63 451.88 414.4 462.47 378.73C462.47 378.73 468.8 394.14 486.16 392.07C486.16 392.07 500.29 379.14 489.84 366.58C489.87 366.58 510.67 364.82 517.92 349.61Z" fill="#E9E7E9"/>
<path d="M429.53 292.069C406.46 304 395.75 324.39 406.53 347.98C414.93 366.3 428.77 368.53 433.38 374.82C433.38 374.82 403.38 302.59 478.66 289.45C465.06 280.57 448.26 282.38 429.53 292.069Z" fill="#D6CDD7"/>
<g style="mix-blend-mode:multiply" opacity="0.58">
<path d="M429.53 292.071C406.46 304.001 395.75 324.391 406.53 347.981C408.674 352.779 411.673 357.147 415.38 360.871C415.07 360.161 393.38 310.091 461.83 283.801C452.03 283.071 441.15 286.071 429.53 292.071Z" fill="#B6BCCC"/>
</g>
<path d="M146.67 109.07C152.27 125.64 168.9 124.71 168.9 124.71C157.39 135.09 155.98 143.71 158.19 150.37C154.05 153.26 150.19 155.84 149.25 156.09C147.05 156.67 148.18 138.97 153.66 131.73C153.66 131.73 142.92 122.53 138.76 114.49C136.63 110.36 141.48 107.81 147.61 106.68C147.252 107.458 146.938 108.256 146.67 109.07Z" fill="#B6BCCC"/>
<path d="M166.18 73.7308C164.18 84.4108 168.08 94.7308 168.08 94.7308C164.87 93.8288 161.455 93.9831 158.34 95.1708C155.22 88.1708 151.45 79.8908 149.1 75.3208C149.1 75.3408 157.89 71.5608 166.18 73.7308Z" fill="#B6BCCC"/>
<path d="M171.38 62.1309C171.38 62.1309 174.07 77.6809 189.96 74.6709C205.85 71.6609 209.57 60.9309 231.55 66.9709C253.53 73.0109 262.21 91.1809 261.37 117.141C260.53 143.101 246.73 161.541 220.8 161.941C194.87 162.341 189.1 143.121 178.22 151.001C167.34 158.881 171.6 164.841 171.6 164.841C171.6 164.841 141.31 149.591 168.95 124.681C168.95 124.681 152.32 125.611 146.72 109.041C146.72 109.041 152.3 90.7209 168.13 94.7509C168.08 94.7509 160.72 75.2209 171.38 62.1309Z" fill="#E9E7E9"/>
<path d="M261.32 117.14C260.48 143.14 246.68 161.54 220.75 161.94C200.59 162.24 192.62 150.71 184.96 149.26C184.96 149.26 263.08 145.26 242.53 71.6504C256.38 80.1304 262 96.0704 261.32 117.14Z" fill="#D6CDD7"/>
<g style="mix-blend-mode:multiply" opacity="0.58">
<path d="M261.32 117.14C260.48 143.14 246.68 161.54 220.75 161.94C215.488 162.066 210.247 161.24 205.28 159.5C206.06 159.5 260.58 157.5 254.86 84.4004C259.75 92.9704 261.74 104.07 261.32 117.14Z" fill="#B6BCCC"/>
</g>
<path d="M148.54 243.86C150.716 243.86 152.48 242.096 152.48 239.92C152.48 237.744 150.716 235.98 148.54 235.98C146.364 235.98 144.6 237.744 144.6 239.92C144.6 242.096 146.364 243.86 148.54 243.86Z" fill="#FAF28C"/>
<path d="M141.92 258.38C144.096 258.38 145.86 256.616 145.86 254.44C145.86 252.264 144.096 250.5 141.92 250.5C139.744 250.5 137.98 252.264 137.98 254.44C137.98 256.616 139.744 258.38 141.92 258.38Z" fill="#FAF28C"/>
<path d="M150.26 260.039C151.806 260.039 153.06 258.786 153.06 257.239C153.06 255.693 151.806 254.439 150.26 254.439C148.714 254.439 147.46 255.693 147.46 257.239C147.46 258.786 148.714 260.039 150.26 260.039Z" fill="#FAF28C"/>
<path d="M135.2 250.231C136.746 250.231 138 248.977 138 247.431C138 245.884 136.746 244.631 135.2 244.631C133.654 244.631 132.4 245.884 132.4 247.431C132.4 248.977 133.654 250.231 135.2 250.231Z" fill="#FAF28C"/>
<path d="M153.06 251.37C154.606 251.37 155.86 250.116 155.86 248.57C155.86 247.023 154.606 245.77 153.06 245.77C151.514 245.77 150.26 247.023 150.26 248.57C150.26 250.116 151.514 251.37 153.06 251.37Z" fill="#FAF28C"/>
<path d="M138.01 242.721C139.556 242.721 140.81 241.467 140.81 239.921C140.81 238.375 139.556 237.121 138.01 237.121C136.464 237.121 135.21 238.375 135.21 239.921C135.21 241.467 136.464 242.721 138.01 242.721Z" fill="#FAF28C"/>
<path d="M144.6 249.499C145.881 249.499 146.92 248.461 146.92 247.179C146.92 245.898 145.881 244.859 144.6 244.859C143.319 244.859 142.28 245.898 142.28 247.179C142.28 248.461 143.319 249.499 144.6 249.499Z" fill="#FAF28C"/>
<path d="M503.14 190.071C503.14 190.071 536.73 172.391 559.06 189.461C559.06 189.461 477.71 224.831 495.16 273.081C481.38 262.201 456.82 223.541 503.14 190.071Z" fill="#D6CDD7"/>
<g style="mix-blend-mode:multiply" opacity="0.58">
<path d="M481.92 256.46C472.99 239.25 470.85 213.41 503.14 190.08C503.14 190.08 516.29 183.17 531.59 182.16C531.59 182.16 476.23 206.07 481.92 256.46Z" fill="#B6BCCC"/>
</g>
<path d="M607.52 59.9605C607.52 59.9605 587.52 96.7005 555.26 115.751C523 134.801 465.73 123.101 469.09 64.6805C471.92 15.4505 526.27 10.1805 549 17.8705C571.73 25.5605 606.38 46.4405 607.52 59.9605Z" fill="#E9E7E9"/>
<path d="M565.07 120.24C532.44 137.24 473.92 125.17 468.98 73.4302C542.91 19.4302 607.52 69.5903 607.52 69.5903C607.52 69.5903 599.45 102.32 565.07 120.24Z" fill="#D8D8D8"/>
<path d="M607.52 81.2612C603.51 92.0712 585.38 114.071 564.44 125.071C528.59 143.831 465.84 124.201 468.98 73.4512C528.84 115.151 607.13 81.4712 607.52 81.2612Z" fill="#D6CDD7"/>
<g style="mix-blend-mode:multiply" opacity="0.58">
<path d="M595.75 99.2497C587.75 108.68 576.54 118.71 564.44 125.05C528.59 143.81 465.84 124.18 468.98 73.4297C490.14 146.6 595.75 99.2497 595.75 99.2497Z" fill="#B6BCCC"/>
</g>
<path d="M584.903 51.2652C586.204 45.1842 579.506 38.5952 569.941 36.5483C560.377 34.5014 551.569 37.7716 550.267 43.8526C548.966 49.9336 555.664 56.5226 565.228 58.5696C574.793 60.6165 583.601 57.3462 584.903 51.2652Z" fill="#F6FAFE"/>
<path d="M483.811 313.41C487.161 308.171 483.197 299.652 474.957 294.382C466.717 289.112 457.322 289.087 453.971 294.326C450.621 299.565 454.584 308.084 462.824 313.354C471.064 318.624 480.46 318.649 483.811 313.41Z" fill="#F6FAFE"/>
<path d="M565.268 214.565C568.416 210.69 564.812 202.549 557.22 196.383C549.627 190.217 540.92 188.361 537.773 192.236C534.626 196.112 538.229 204.252 545.822 210.418C553.415 216.584 562.121 218.441 565.268 214.565Z" fill="#F6FAFE"/>
<path d="M540.59 43.2402C544.754 43.2402 548.13 39.8644 548.13 35.7002C548.13 31.5359 544.754 28.1602 540.59 28.1602C536.426 28.1602 533.05 31.5359 533.05 35.7002C533.05 39.8644 536.426 43.2402 540.59 43.2402Z" fill="#F6FAFE"/>
<path d="M559.06 233.12C561.987 233.12 564.36 230.747 564.36 227.82C564.36 224.892 561.987 222.52 559.06 222.52C556.133 222.52 553.76 224.892 553.76 227.82C553.76 230.747 556.133 233.12 559.06 233.12Z" fill="#F6FAFE"/>
</g>
<defs>
<clipPath id="clip0_4879_481">
<rect width="622.52" height="926.49" fill="white"/>
</clipPath>
</defs>
</svg>
