<svg width="409" height="910" viewBox="0 0 409 910" fill="none" xmlns="http://www.w3.org/2000/svg">
<g clip-path="url(#clip0_4845_2592)">
<path d="M183.92 909.44C285.496 909.44 367.84 887.322 367.84 860.04C367.84 832.757 285.496 810.64 183.92 810.64C82.3438 810.64 0 832.757 0 860.04C0 887.322 82.3438 909.44 183.92 909.44Z" fill="#A7A9AC"/>
<path d="M406.41 50.9195C405.046 48.0949 403.155 45.5562 400.84 43.4395C409.48 25.7595 403.4 14.8295 398.26 9.43954C397.95 9.11954 397.64 8.81954 397.26 8.52954C392.677 4.5054 386.769 2.31535 380.67 2.37953C375.16 2.37953 369.29 4.05954 363.13 7.37953C360.926 5.15436 358.329 3.35729 355.47 2.07954C352.403 0.719639 349.085 0.017875 345.73 0.0195342C340.358 0.075216 335.129 1.75555 330.73 4.83953C330.14 5.22953 329.54 5.65954 328.94 6.11954C327.846 6.97068 326.795 7.87511 325.79 8.82954C324.29 10.2745 322.878 11.8072 321.56 13.4195L320.63 14.6295C318.725 14.0296 316.76 13.6406 314.77 13.4695C313.97 13.3995 313.17 13.3595 312.38 13.3595C309.857 13.3541 307.348 13.7352 304.94 14.4895C304.138 14.7433 303.35 15.0404 302.58 15.3795C297.64 17.6065 293.535 21.3467 290.86 26.0595C290.53 26.6295 290.21 27.2295 289.86 27.8295C288.726 30.1169 287.825 32.5122 287.17 34.9795C287.04 35.4695 286.91 35.9795 286.79 36.4895C284.367 37.6965 282.128 39.242 280.14 41.0795C279.48 41.6895 278.83 42.3495 278.2 43.0795C275.328 46.3072 272.986 49.9692 271.26 53.9295C270.233 56.2321 269.351 58.5967 268.62 61.0095C268.14 62.5695 267.69 64.2195 267.28 65.9195H266.66C263.553 65.9311 260.465 66.4098 257.5 67.3395C253.926 68.4118 250.604 70.1902 247.73 72.5695C247.031 73.1641 246.363 73.795 245.73 74.4595C244.455 75.7796 243.319 77.2272 242.34 78.7795C241.41 80.2679 240.616 81.8377 239.97 83.4695C239.369 85.012 238.894 86.6005 238.55 88.2195C238.2 89.8675 237.97 91.5385 237.86 93.2195C236.969 95.2692 236.298 97.4079 235.86 99.5995C235.72 100.29 235.59 100.99 235.49 101.7C235.279 103.085 235.142 104.48 235.08 105.88C234.965 108.606 235.055 111.337 235.35 114.05C235.53 115.67 235.77 117.36 236.08 119.05C233.624 119.439 231.222 120.11 228.92 121.05C225.349 122.455 222.093 124.556 219.34 127.23C218.654 127.899 218.006 128.607 217.4 129.35C216.201 130.806 215.158 132.385 214.29 134.06C213.469 135.66 212.799 137.334 212.29 139.06C211.802 140.695 211.444 142.367 211.22 144.06C211.09 145.11 211 146.19 210.95 147.28C206.827 148.295 202.983 150.217 199.696 152.905C196.409 155.593 193.763 158.98 191.95 162.82C191.57 163.61 191.22 164.44 190.9 165.3C190.007 167.703 189.367 170.193 188.99 172.73C188.87 173.53 188.78 174.35 188.7 175.2C188.487 177.634 188.45 180.08 188.59 182.52C188.723 184.952 188.99 187.376 189.39 189.78C189.78 192.12 190.29 194.54 190.92 197.01C188.818 197.691 186.788 198.579 184.86 199.66C181.387 201.548 178.327 204.111 175.86 207.2C175.242 207.977 174.667 208.788 174.14 209.63C173.106 211.268 172.248 213.011 171.58 214.83C170.933 216.577 170.454 218.381 170.15 220.22C169.857 221.961 169.707 223.724 169.7 225.49C169.709 228.474 170.045 231.448 170.7 234.36C165.801 237.999 162.193 243.107 160.4 248.94C159.39 252.182 158.822 255.545 158.71 258.94C158.71 259.74 158.66 260.57 158.71 261.4C158.76 262.23 158.71 263 158.8 263.83C158.88 265.14 159.01 266.47 159.19 267.83C157.041 269.382 155.116 271.222 153.47 273.3C151.644 275.594 150.199 278.167 149.19 280.92C148.54 282.666 148.061 284.471 147.76 286.31C147.465 288.054 147.318 289.82 147.32 291.59C147.366 296.559 148.251 301.485 149.94 306.16C150.22 306.98 150.53 307.82 150.94 308.82L150.41 309.46C149.798 310.239 149.227 311.05 148.7 311.89C147.666 313.528 146.808 315.271 146.14 317.09C145.49 318.836 145.011 320.641 144.71 322.48C144.427 324.165 144.276 325.87 144.26 327.58C140.301 330.758 137.277 334.95 135.51 339.71C135.19 340.58 134.9 341.49 134.66 342.41C133.991 345.023 133.655 347.711 133.66 350.41C133.663 352.101 133.773 353.792 133.99 355.47C134.555 359.516 135.609 363.478 137.13 367.27C137.42 368.02 137.73 368.77 138.05 369.52C142.068 378.346 147.287 386.574 153.56 393.97L153.63 394.05C153.98 394.47 154.32 394.89 154.63 395.31C155.49 396.31 156.37 397.36 157.29 398.39L157.61 398.75L158.66 399.91C159.85 401.21 161.08 402.52 162.31 403.77L163.26 404.77L164.1 405.6C164.88 406.37 165.65 407.13 166.44 407.87L166.63 408.06L167.71 409.06L169.19 410.43L169.87 411.04L171.72 412.68L172.42 413.28L173.42 414.1L175.12 415.51L176.62 416.72L178.4 418.11L179.24 418.76L181.06 420.11L182.64 421.24L183.38 421.75L184.77 422.75C180.36 447.9 176.31 474.07 172.69 500.86C160.594 469.998 143.817 441.184 122.95 415.43C96.6599 383.05 73.0299 366.77 72.0399 366.09C69.7299 364.514 67.0254 363.616 64.2319 363.496C61.4383 363.376 58.6669 364.039 56.2303 365.411C53.7937 366.783 51.7891 368.808 50.4426 371.259C49.096 373.709 48.4613 376.487 48.6099 379.28C54.2199 487.03 135.21 575.99 161.16 601.83C158.86 627.03 157.02 651.13 155.58 673.47C140.769 638.471 120.646 605.969 95.9199 577.11C63.9199 539.82 35.3699 521.109 34.1699 520.38C31.8441 518.876 29.1474 518.045 26.3786 517.98C23.6097 517.915 20.8769 518.618 18.4829 520.01C16.0889 521.403 14.1273 523.431 12.8153 525.87C11.5034 528.31 10.8923 531.064 11.0499 533.83C13.1399 570.97 23.6199 609.419 42.1999 648.13C76.2999 719.13 128.52 772.349 149.4 791.93L150.4 790.84V791.03L149.48 792.03L150.36 792.85C149.65 826 149.9 845.299 149.9 845.5C149.952 849.443 151.556 853.207 154.363 855.977C157.171 858.747 160.956 860.3 164.9 860.299L201.1 859.799C203.071 859.773 205.017 859.359 206.827 858.581C208.638 857.802 210.277 856.674 211.652 855.262C213.026 853.849 214.109 852.179 214.838 850.348C215.567 848.517 215.928 846.56 215.9 844.59C215.9 844.42 215.7 828.33 216.2 800.98L219.83 798.16L220.64 797.51C222.2 796.28 223.74 795.04 225.28 793.79L226.08 793.14C227.74 791.78 229.38 790.43 230.99 789.07L231.99 788.24C235.26 785.469 238.51 782.63 241.67 779.79L242.54 779.01C244.09 777.6 245.63 776.19 247.13 774.79L247.61 774.34C249.057 773.006 250.487 771.646 251.9 770.26L252.43 769.75C253.923 768.31 255.403 766.86 256.87 765.4L257.44 764.82C260.38 761.89 263.29 758.88 266.11 755.88L266.56 755.4C269.42 752.33 272.26 749.2 275.03 746.04L274.95 746.13L275.06 746C276.44 744.43 277.8 742.85 279.13 741.28L279.23 741.16C325.76 686.16 345.37 630.729 353.63 593.88C362.63 553.51 360.54 526.06 360.45 524.88C360.201 521.939 359.09 519.137 357.256 516.824C355.422 514.512 352.947 512.792 350.14 511.88C348.642 511.388 347.076 511.139 345.5 511.14C343.343 511.14 341.212 511.606 339.252 512.505C337.291 513.404 335.548 514.715 334.14 516.35C278.71 580.61 243.7 633.16 221.63 674.45C223.17 651.28 224.99 628.25 227.1 605.45L227.66 605.02C228.82 604.12 229.97 603.21 231.11 602.31L232.82 600.93C233.94 600.029 235.05 599.109 236.15 598.2L237.64 596.96C239.19 595.66 240.73 594.35 242.2 593.07L242.57 592.74C243.963 591.52 245.33 590.299 246.67 589.08L248.16 587.72L251.03 585.049L252.62 583.53C253.55 582.65 254.46 581.76 255.37 580.87L256.79 579.47C258.07 578.2 259.33 576.93 260.57 575.64L261.47 574.71C262.47 573.65 263.47 572.59 264.47 571.53L265.66 570.24L265.97 569.9L268.18 567.47C268.71 566.89 269.23 566.3 269.75 565.71C270.45 564.92 271.13 564.13 271.82 563.34L272.2 562.89L273.3 561.62L275.85 558.57C276.5 557.78 277.14 556.99 277.78 556.19L277.91 556.03L279.69 553.81L281.12 551.98L281.27 551.78L282.78 549.78L284.39 547.65L285.74 545.799L285.97 545.49C286.43 544.859 286.89 544.23 287.35 543.58L288.41 542.09C289.5 540.55 290.56 539 291.6 537.46L292.5 536.12C293.06 535.279 293.61 534.43 294.16 533.59L295.03 532.24C295.59 531.37 296.14 530.51 296.67 529.65L297.37 528.53C299.37 525.35 301.22 522.13 303.03 518.91L303.13 518.73C303.7 517.73 304.26 516.68 304.81 515.66L305.16 515.01C305.72 514.01 306.26 512.95 306.78 512.01L306.94 511.69C309.2 507.32 311.36 502.85 313.35 498.39V498.31C337.18 444.87 333.99 402.13 333.84 400.31C333.591 397.369 332.48 394.567 330.646 392.254C328.812 389.942 326.337 388.222 323.53 387.31C320.728 386.423 317.728 386.378 314.901 387.182C312.074 387.985 309.546 389.601 307.63 391.83C279.27 424.72 258.19 453.45 242.52 478.11C245.12 460.87 247.9 444.01 250.84 427.64L252.76 426.9L253.09 426.77C254.15 426.36 255.21 425.92 256.28 425.48L256.44 425.41C257.59 424.93 258.73 424.41 259.87 423.92C260.99 423.42 262.1 422.92 263.19 422.38L263.37 422.3C265.6 421.23 267.83 420.09 270.08 418.88L270.21 418.82C272.44 417.61 274.64 416.35 276.76 415.07H276.82C281.588 412.194 286.161 409.007 290.51 405.53C293.091 403.451 295.554 401.23 297.89 398.88C299.06 397.7 300.17 396.49 301.19 395.3C304.454 391.574 307.125 387.368 309.11 382.83C310.499 379.621 311.367 376.212 311.68 372.73L311.82 372.57C315.075 368.874 317.746 364.703 319.74 360.2C322.837 353.372 323.255 345.63 320.91 338.51C320.78 338.14 320.65 337.78 320.51 337.41C321.51 336.65 322.51 335.88 323.43 335.13C326.012 333.056 328.476 330.839 330.81 328.49C331.97 327.31 333.09 326.1 334.11 324.9C337.368 321.204 340.042 317.033 342.04 312.53C345.14 305.699 345.557 297.953 343.21 290.83C342.887 289.898 342.516 288.983 342.1 288.09C340.838 285.418 339.198 282.943 337.23 280.74C335.641 278.935 333.861 277.308 331.92 275.89C332.64 275.21 333.33 274.54 334 273.89C335.16 272.71 336.28 271.5 337.31 270.29C340.565 266.594 343.236 262.423 345.23 257.92C346.37 255.336 347.177 252.617 347.63 249.83C357.29 239.78 359.73 227.13 354.06 215.34C353.89 214.99 353.72 214.64 353.54 214.34C355.885 212.858 358.155 211.259 360.34 209.55C361.59 208.55 362.79 207.55 363.9 206.55C367.432 203.421 370.467 199.772 372.9 195.73C376.725 189.516 378.058 182.085 376.63 174.93C376.437 173.983 376.19 173.048 375.89 172.13C375.009 169.401 373.732 166.817 372.1 164.46C371.94 164.22 371.77 163.98 371.6 163.75C372.6 163.13 373.6 162.51 374.6 161.88C375.86 161.05 377.07 160.18 378.22 159.31C381.849 156.59 385.046 153.337 387.7 149.66C391.872 143.974 393.753 136.928 392.97 129.92C392.859 128.988 392.695 128.063 392.48 127.15C391.995 125.077 391.28 123.064 390.35 121.15C390.727 119.339 390.764 117.474 390.46 115.65C390.29 114.65 390.09 113.6 389.87 112.65C390.19 112.33 390.5 112 390.81 111.65C393.15 109.017 394.888 105.906 395.903 102.533C396.918 99.16 397.187 95.6066 396.69 92.1195C396.428 90.1391 395.959 88.1918 395.29 86.3095C395.68 85.9895 396.05 85.6595 396.43 85.3095C413.28 70.2795 409.02 56.2495 406.41 50.9195Z" fill="#231F20"/>
<path d="M26.03 532.97C54.25 575.51 167.57 788.15 167.57 788.15C155.63 616.7 26.03 532.97 26.03 532.97Z" fill="#66BE64"/>
<path d="M26.03 532.97C34.03 674.51 167.57 788.15 167.57 788.15C167.57 788.15 54.25 575.51 26.03 532.97Z" fill="#4CA84E"/>
<g style="mix-blend-mode:multiply">
<path d="M167.57 788.15C166.193 768.151 163.081 748.31 158.27 728.85C107.14 725.62 55.95 642 55.72 641.63C97.38 728.41 167.57 788.15 167.57 788.15Z" fill="#4CA84E"/>
</g>
<path d="M63.4399 378.409C86.4399 415.019 178.89 598.059 178.89 598.059C169.14 450.479 63.4399 378.409 63.4399 378.409Z" fill="#66BE64"/>
<path d="M63.4399 378.409C69.9499 500.239 178.89 598.059 178.89 598.059C178.89 598.059 86.4599 415.019 63.4399 378.409Z" fill="#4CA84E"/>
<g style="mix-blend-mode:multiply">
<path d="M178.89 598.059C177.77 580.88 175.234 563.822 171.31 547.059C129.63 544.239 87.8499 472.249 87.6299 471.939C121.63 546.639 178.89 598.059 178.89 598.059Z" fill="#4CA84E"/>
</g>
<path d="M199.25 794.98C199.25 794.98 329.42 580.83 345.5 526.13C186.03 711.02 199.25 794.98 199.25 794.98Z" fill="#66BE64"/>
<path d="M345.5 526.13C329.42 580.83 199.25 794.98 199.25 794.98C358.06 678 345.5 526.13 345.5 526.13Z" fill="#4CA84E"/>
<g style="mix-blend-mode:multiply">
<path d="M207.23 745.339C196.72 778.909 199.23 794.979 199.23 794.979C262.6 748.309 298.66 696.079 319.15 650.159C222.68 770.059 207.23 745.339 207.23 745.339Z" fill="#4CA84E"/>
</g>
<path d="M212.07 598.06C212.07 598.06 307.19 441.53 318.94 401.6C202.41 536.71 212.07 598.06 212.07 598.06Z" fill="#66BE64"/>
<path d="M318.94 401.6C307.19 441.53 212.07 598.06 212.07 598.06C328.11 512.58 318.94 401.6 318.94 401.6Z" fill="#4CA84E"/>
<g style="mix-blend-mode:multiply">
<path d="M217.9 561.829C210.22 586.359 212.07 598.109 212.07 598.109C258.38 563.949 284.73 525.829 299.7 492.229C229.19 579.829 217.9 561.829 217.9 561.829Z" fill="#4CA84E"/>
</g>
<path d="M308.182 460.598C311.098 455.547 311.271 450.188 308.569 448.627C305.866 447.067 301.312 449.897 298.396 454.948C295.48 459.998 295.306 465.358 298.009 466.918C300.711 468.478 305.266 465.648 308.182 460.598Z" fill="#F6FAFE"/>
<path d="M299.35 475.919C301.266 475.919 302.82 474.366 302.82 472.449C302.82 470.533 301.266 468.979 299.35 468.979C297.433 468.979 295.88 470.533 295.88 472.449C295.88 474.366 297.433 475.919 299.35 475.919Z" fill="#F6FAFE"/>
<path d="M331.886 603.111C335.309 595.896 334.957 588.563 331.1 586.733C327.243 584.903 321.341 589.269 317.918 596.484C314.495 603.7 314.847 611.032 318.704 612.862C322.561 614.692 328.463 610.326 331.886 603.111Z" fill="#F6FAFE"/>
<path d="M306.73 343.399C306.58 342.969 306.41 342.539 306.21 342.109C305.566 340.752 304.727 339.495 303.72 338.379C298.29 332.269 291.2 331.379 283.42 333.709C284 332.609 284.56 331.519 285.11 330.429C285.95 328.743 286.747 327.076 287.5 325.429C288.03 324.249 288.5 323.079 289.02 321.919C292.31 313.919 294.29 306.429 294.39 300.159C294.5 293.259 292.39 287.849 287.11 284.859C278.75 280.079 270.42 284.589 262.63 294.039L262.9 292.039C262.9 291.799 262.95 291.569 262.98 291.339C263.09 290.499 263.18 289.659 263.27 288.819L263.36 288.059C263.45 287.169 263.53 286.279 263.6 285.399C263.6 285.249 263.6 285.099 263.6 284.949C263.68 283.949 263.76 282.949 263.81 281.949C263.815 281.889 263.815 281.829 263.81 281.769C263.81 280.969 263.89 280.179 263.92 279.389C263.98 277.689 264.01 276.029 263.99 274.389C263.99 273.579 263.99 272.769 263.93 271.979C263.87 270.399 263.77 268.849 263.62 267.359C263.423 265.217 263.106 263.087 262.67 260.979C262.39 259.649 262.06 258.369 261.67 257.159C261.309 255.989 260.882 254.841 260.39 253.719C259.527 251.692 258.356 249.81 256.92 248.139C256.247 247.384 255.504 246.694 254.7 246.079C253.079 244.855 251.208 244.001 249.22 243.579C237.22 242.079 228.35 255.729 222.84 274.789C222.834 274.812 222.834 274.836 222.84 274.859C222.56 275.819 222.29 276.789 222.03 277.769C221.97 278.029 221.9 278.289 221.84 278.539C221.65 279.279 221.46 280.019 221.28 280.769L221.04 281.769L220.56 283.909L220.35 284.909C220.22 285.519 220.1 286.149 219.97 286.769C215.75 275.269 209.38 268.269 199.9 270.009C198.11 270.339 196.404 271.021 194.882 272.017C193.359 273.013 192.049 274.302 191.03 275.809C190.71 276.249 190.42 276.709 190.13 277.189C188.622 279.881 187.549 282.793 186.95 285.819C186.484 287.92 186.15 290.047 185.95 292.189C185.75 294.443 185.653 296.809 185.66 299.289C185.66 300.899 185.71 302.539 185.8 304.219C185.85 305.219 185.91 306.159 185.99 307.149C186.19 309.719 186.47 312.369 186.84 315.059C186.94 315.809 187.05 316.579 187.17 317.339C180.6 312.549 173.62 311.059 166.47 315.029C164.733 315.96 163.203 317.232 161.97 318.769C161.686 319.124 161.422 319.495 161.18 319.879C160.7 320.642 160.301 321.453 159.99 322.299C159.673 323.162 159.438 324.052 159.29 324.959C159.133 325.905 159.052 326.861 159.05 327.819C159.113 331.104 159.725 334.356 160.86 337.439C161.11 338.179 161.4 338.919 161.7 339.669C162 340.419 162.38 341.299 162.76 342.129C163.26 343.219 163.76 344.319 164.39 345.419C165.177 346.913 166.037 348.409 166.97 349.909C167.5 350.769 168.05 351.629 168.62 352.479C170.796 355.713 173.136 358.834 175.63 361.829L175.68 361.889C177.113 363.623 178.593 365.329 180.12 367.009L180.27 367.179C181.35 368.373 182.457 369.543 183.59 370.689L183.86 370.969L184.43 371.549L184.9 372.009L185.18 372.289C185.89 372.989 186.6 373.689 187.32 374.379L187.48 374.519L187.76 374.789L188.47 375.449L188.97 375.919L189.92 376.789L190.4 377.219L191.59 378.279L192.07 378.699L192.7 379.239L193.57 379.979L194.27 380.569L195.1 381.249L196.45 382.339L197.2 382.929L198.03 383.579L198.78 384.149L199.7 384.839L200.42 385.369L201.77 386.369L202.42 386.819L203.42 387.479L204.06 387.899C204.5 388.199 204.94 388.489 205.39 388.769L205.88 389.079L207.08 389.829L207.65 390.169L208.71 390.799L209.2 391.079C209.693 391.359 210.183 391.629 210.67 391.889L211.07 392.099L212.2 392.679L212.46 392.819L212.69 392.929L213.88 393.489L214.18 393.629L215.61 394.259L216.01 394.419L217.08 394.839L217.5 394.999C217.97 395.169 218.43 395.329 218.89 395.469H218.95L220.25 395.859L220.58 395.939V396.029C220.91 396.108 221.244 396.168 221.58 396.209H221.76H221.97C222.4 396.299 222.82 396.379 223.24 396.439H223.3C223.59 396.499 223.9 396.539 224.2 396.589L224.54 396.639H224.8H224.98C225.31 396.713 225.644 396.77 225.98 396.809V396.829H226.43H226.91C227.47 396.829 228.05 396.879 228.64 396.879H229.11C229.83 396.879 230.56 396.879 231.31 396.799C231.46 396.799 231.61 396.799 231.75 396.799L232.63 396.829L233.29 396.769L233.75 396.719L234.31 396.659C235.11 396.559 235.92 396.459 236.74 396.329L237.03 396.279C237.78 396.159 238.55 396.019 239.32 395.869L239.91 395.749C240.58 395.619 241.25 395.469 241.91 395.319L243.16 395.029L245.25 394.489L245.81 394.339L247.81 393.769L249.47 393.259L251.47 392.629L251.94 392.469L252.27 392.359L253.63 391.829L254.75 391.429H254.86C255.86 391.069 256.86 390.689 257.86 390.289L258.16 390.179C259.16 389.799 260.07 389.409 261.03 389.009L261.19 388.939L262.19 388.529L264.32 387.589C265.32 387.129 266.32 386.659 267.32 386.179L267.45 386.109C269.51 385.109 271.55 384.109 273.55 383.009H273.64C275.02 382.259 276.39 381.499 277.73 380.709C278.28 380.389 278.83 380.069 279.37 379.709L279.57 379.589C281.7 378.299 283.76 376.959 285.74 375.589L286.83 374.819C288.49 373.639 290.1 372.429 291.61 371.209C293.755 369.482 295.805 367.639 297.75 365.689C298.67 364.759 299.54 363.819 300.34 362.879C302.598 360.342 304.456 357.476 305.85 354.379C307.531 350.965 307.846 347.038 306.73 343.399Z" fill="#683992"/>
<path d="M329.03 295.73C328.88 295.3 328.7 294.87 328.5 294.44C327.857 293.081 327.018 291.825 326.01 290.71C320.58 284.6 313.5 283.71 305.72 286.04C306.3 284.94 306.86 283.85 307.4 282.76C308.253 281.066 309.053 279.4 309.8 277.76C310.33 276.58 310.8 275.41 311.32 274.25C314.6 266.25 316.59 258.76 316.69 252.49C316.8 245.6 314.63 240.18 309.41 237.2C301.04 232.41 292.71 236.92 284.92 246.37C285.02 245.7 285.11 245.04 285.19 244.37L285.28 243.67C285.38 242.83 285.48 241.99 285.57 241.16C285.57 240.9 285.63 240.65 285.65 240.39C285.74 239.5 285.83 238.61 285.9 237.73C285.9 237.58 285.9 237.43 285.9 237.28C285.98 236.28 286.05 235.28 286.11 234.28C286.105 234.216 286.105 234.153 286.11 234.09C286.11 233.29 286.19 232.5 286.22 231.71C286.28 230.01 286.3 228.35 286.28 226.71C286.28 225.9 286.28 225.1 286.23 224.3C286.17 222.72 286.07 221.18 285.92 219.68C285.703 217.54 285.369 215.413 284.92 213.31C284.64 211.97 284.31 210.7 283.92 209.48C283.562 208.31 283.138 207.161 282.65 206.04C281.787 204.013 280.616 202.131 279.18 200.46C278.506 199.701 277.759 199.011 276.95 198.4C275.331 197.177 273.464 196.324 271.48 195.9C259.48 194.4 250.6 208.05 245.09 227.11C245.094 227.133 245.094 227.157 245.09 227.18C244.82 228.18 244.55 229.11 244.29 230.1C244.22 230.35 244.16 230.61 244.09 230.86C243.9 231.6 243.72 232.34 243.54 233.09L243.3 234.09L242.82 236.23L242.61 237.23C242.48 237.85 242.35 238.47 242.23 239.09C238 227.59 231.63 220.59 222.16 222.34C220.369 222.665 218.661 223.345 217.136 224.339C215.611 225.333 214.3 226.622 213.28 228.13C212.97 228.57 212.67 229.03 212.39 229.51C210.877 232.199 209.8 235.112 209.2 238.14C208.752 240.241 208.435 242.369 208.25 244.51C208.04 246.76 207.95 249.14 207.95 251.61C207.95 253.21 208.01 254.85 208.09 256.53C208.14 257.53 208.21 258.47 208.28 259.46C208.48 262.04 208.77 264.68 209.13 267.37C209.24 268.13 209.35 268.89 209.47 269.65C202.9 264.87 195.92 263.37 188.77 267.34C187.032 268.273 185.499 269.545 184.26 271.08C183.98 271.44 183.72 271.81 183.48 272.19C182.998 272.952 182.599 273.763 182.29 274.61C181.969 275.471 181.735 276.362 181.59 277.27C181.428 278.214 181.348 279.171 181.35 280.13C181.41 283.417 182.019 286.672 183.15 289.76C183.41 290.49 183.69 291.24 183.99 291.99C184.29 292.74 184.67 293.61 185.05 294.44C185.56 295.53 186.1 296.63 186.69 297.73C187.48 299.22 188.33 300.73 189.27 302.23C189.79 303.08 190.35 303.94 190.92 304.8C192.99 307.91 195.32 311.03 197.84 314.1L197.89 314.16C199.31 315.886 200.787 317.593 202.32 319.28L202.47 319.45C203.56 320.64 204.66 321.81 205.79 322.96L206.06 323.24L206.63 323.82C206.78 323.98 206.94 324.13 207.1 324.28L207.37 324.56L209.52 326.65L209.67 326.79L209.96 327.06C210.19 327.29 210.43 327.5 210.66 327.72L211.16 328.19L212.16 329.06L212.64 329.49L213.83 330.55L214.31 330.97L214.94 331.51L215.81 332.25L216.51 332.84L217.33 333.52C217.78 333.89 218.23 334.26 218.69 334.61L219.44 335.2L220.26 335.85L221.02 336.42L221.94 337.11L222.65 337.64L224 338.64L224.65 339.09L225.65 339.75L226.28 340.17L227.61 341.04L228.1 341.35C228.5 341.61 228.91 341.86 229.31 342.1L229.87 342.44L230.94 343.07L231.43 343.35C231.923 343.63 232.413 343.9 232.9 344.16L233.3 344.37C233.67 344.57 234.05 344.77 234.42 344.95L234.68 345.09L234.92 345.2L236.1 345.76L236.4 345.9L237.83 346.53L238.24 346.69C238.6 346.84 238.95 346.98 239.31 347.11L239.73 347.27L241.11 347.75H241.18L242.47 348.13L242.81 348.22V348.3C243.14 348.379 243.474 348.439 243.81 348.48H243.99L244.19 348.53C244.62 348.61 245.05 348.69 245.46 348.75H245.63L246.52 348.89L246.87 348.95H247.13H247.31C247.639 349.029 247.973 349.086 248.31 349.12V349.04H248.76H249.24C249.8 349.04 250.37 349.09 250.96 349.09H251.44C252.15 349.09 252.89 349.09 253.64 349.02H254.08L254.93 348.96L255.58 348.9L256.05 348.85L256.6 348.79C257.4 348.7 258.21 348.59 259.04 348.46H259.32C260.08 348.34 260.84 348.2 261.62 348.05L262.21 347.93C262.87 347.8 263.55 347.66 264.21 347.5L265.45 347.21L267.55 346.67L268.11 346.52L270.11 345.95C270.66 345.78 271.22 345.62 271.77 345.44C272.32 345.26 273.09 345.03 273.77 344.81L274.23 344.65L274.57 344.54L275.9 344.08L277.02 343.68H277.13C278.13 343.31 279.13 342.93 280.13 342.53L280.42 342.42L283.3 341.25L283.46 341.19L284.46 340.77C285.17 340.47 285.88 340.15 286.59 339.83C287.59 339.37 288.59 338.9 289.59 338.42L289.73 338.35C291.79 337.35 293.82 336.35 295.83 335.25L295.92 335.2C297.3 334.46 298.663 333.693 300.01 332.9L301.65 331.9L301.85 331.78C303.97 330.49 306.04 329.15 308.01 327.78L309.11 327.01C310.77 325.83 312.37 324.62 313.89 323.4C316.034 321.675 318.081 319.832 320.02 317.88C320.94 316.95 321.81 316.01 322.62 315.07C324.875 312.53 326.732 309.664 328.13 306.57C329.782 303.198 330.103 299.328 329.03 295.73Z" fill="#683992"/>
<path d="M309.79 307.24C309.642 306.8 309.468 306.369 309.27 305.95C308.623 304.59 307.785 303.331 306.78 302.21C301.35 296.1 294.26 295.21 286.49 297.54C287.07 296.453 287.63 295.363 288.17 294.27C289.02 292.58 289.82 290.89 290.56 289.27C291.09 288.09 291.61 286.91 292.08 285.76C295.37 277.76 297.36 270.27 297.46 264C297.57 257.1 295.4 251.68 290.18 248.7C281.81 243.92 273.48 248.42 265.69 257.88L265.96 255.88L266.05 255.18C266.15 254.34 266.25 253.5 266.34 252.67C266.34 252.42 266.34 252.16 266.42 251.91C266.51 251.01 266.59 250.12 266.67 249.24C266.67 249.09 266.67 248.94 266.67 248.8C266.75 247.8 266.82 246.8 266.88 245.8V245.61C266.93 244.81 266.97 244.01 267 243.23C267.06 241.53 267.08 239.86 267.06 238.23C267.06 237.41 267.06 236.61 267 235.82C266.94 234.226 266.84 232.686 266.7 231.2C266.488 229.056 266.154 226.926 265.7 224.82C265.42 223.49 265.1 222.21 264.7 221C264.344 219.829 263.92 218.681 263.43 217.56C262.565 215.531 261.391 213.649 259.95 211.98C259.279 211.219 258.536 210.525 257.73 209.91C256.11 208.685 254.238 207.834 252.25 207.42C240.25 205.91 231.38 219.57 225.87 238.63C225.871 238.653 225.871 238.676 225.87 238.7C225.59 239.7 225.33 240.64 225.07 241.62C225 241.87 224.94 242.13 224.87 242.39C224.68 243.12 224.5 243.86 224.32 244.61L224.08 245.61C223.91 246.32 223.75 247.03 223.6 247.75C223.53 248.08 223.45 248.4 223.38 248.75C223.25 249.36 223.13 249.98 223.01 250.6C218.78 239.11 212.41 232.11 202.94 233.85C201.147 234.174 199.438 234.854 197.913 235.85C196.387 236.847 195.077 238.138 194.06 239.65C193.739 240.094 193.442 240.554 193.17 241.03C191.656 243.716 190.579 246.625 189.98 249.65C189.532 251.751 189.215 253.879 189.03 256.02C188.82 258.28 188.73 260.65 188.73 263.12C188.73 264.72 188.78 266.37 188.87 268.05C188.92 269.05 188.98 269.99 189.06 270.97C189.26 273.55 189.543 276.19 189.91 278.89C190.01 279.64 190.13 280.4 190.24 281.16C183.68 276.38 176.69 274.88 169.55 278.85C167.814 279.791 166.282 281.065 165.04 282.6C164.76 282.96 164.49 283.33 164.25 283.71C163.772 284.474 163.373 285.285 163.06 286.13C162.747 286.99 162.513 287.877 162.36 288.78C162.206 289.729 162.129 290.688 162.13 291.65C162.185 294.935 162.794 298.187 163.93 301.27C164.18 302 164.47 302.75 164.77 303.5C165.07 304.25 165.45 305.13 165.83 305.95C166.33 307.04 166.88 308.14 167.47 309.25C168.26 310.73 169.11 312.25 170.04 313.74C170.57 314.6 171.13 315.45 171.7 316.31C173.77 319.42 176.1 322.55 178.62 325.62L178.67 325.68C180.09 327.406 181.567 329.113 183.1 330.8L183.25 330.96C184.33 332.146 185.437 333.32 186.57 334.48L186.84 334.76L187.41 335.34L187.87 335.81L188.15 336.08C188.86 336.79 189.58 337.48 190.3 338.17L190.45 338.32L190.73 338.59L191.44 339.25L191.94 339.71L192.94 340.59L193.42 341.02L194.61 342.08L195.09 342.49L195.72 343.04L196.58 343.78L197.28 344.36L198.11 345.05L199.46 346.14L200.21 346.73L201.04 347.37L201.8 347.95L202.72 348.64L203.43 349.16L204.78 350.16L205.43 350.61C205.75 350.843 206.083 351.063 206.43 351.27L207.06 351.7L208.39 352.57L208.88 352.88L210.08 353.63L210.65 353.97L211.72 354.59L212.2 354.88L213.67 355.69L214.07 355.9L215.2 356.48L215.46 356.61L215.69 356.72L216.88 357.29L217.18 357.43C217.66 357.65 218.18 357.85 218.61 358.05L219.01 358.22L220.09 358.64L220.5 358.79L221.89 359.27H221.96C222.39 359.41 222.82 359.53 223.25 359.65L223.59 359.74V359.82C223.918 359.904 224.253 359.965 224.59 360H224.77H224.97C225.4 360.09 225.82 360.17 226.24 360.23H226.3C226.59 360.29 226.9 360.33 227.2 360.37L227.55 360.43H227.81H227.98C228.326 360.509 228.677 360.569 229.03 360.61V360.52H229.49H229.97C230.53 360.52 231.1 360.52 231.69 360.52H232.17C232.88 360.52 233.61 360.52 234.36 360.44H234.81L235.66 360.37L236.31 360.31L236.77 360.26L237.33 360.2C238.13 360.11 238.94 360 239.77 359.87H240.05C240.8 359.75 241.57 359.62 242.34 359.46L242.93 359.35C243.6 359.21 244.28 359.07 244.93 358.91L246.17 358.62C246.86 358.45 247.56 358.28 248.26 358.09L248.83 357.94L250.83 357.36L252.49 356.86L254.49 356.22L254.95 356.07L255.28 355.96L256.61 355.5L257.74 355.1H257.85L260.85 353.96L261.14 353.84C262.1 353.466 263.06 353.076 264.02 352.67L264.17 352.61L265.17 352.2L267.31 351.26C268.317 350.8 269.317 350.33 270.31 349.85L270.45 349.79C272.45 348.79 274.54 347.79 276.55 346.69L276.64 346.64C278.02 345.893 279.383 345.126 280.73 344.34C281.28 344.02 281.82 343.69 282.36 343.34L282.57 343.22C284.69 341.93 286.75 340.6 288.73 339.22L289.83 338.45C291.49 337.26 293.09 336.06 294.61 334.83C296.754 333.108 298.8 331.268 300.74 329.32C301.66 328.38 302.53 327.44 303.34 326.5C305.594 323.964 307.452 321.101 308.85 318.01C310.501 314.664 310.837 310.821 309.79 307.24Z" fill="#683992"/>
<path d="M332.22 241.11C332.07 240.68 331.9 240.25 331.7 239.82C331.053 238.463 330.215 237.207 329.21 236.09C323.78 229.98 316.69 229.09 308.91 231.42C309.5 230.32 310.05 229.23 310.6 228.14C311.44 226.446 312.237 224.78 312.99 223.14C313.52 221.96 313.99 220.79 314.51 219.63C317.8 211.63 319.78 204.14 319.88 197.87C320 190.98 317.88 185.56 312.61 182.58C304.24 177.79 295.91 182.3 288.12 191.75L288.39 189.75C288.39 189.51 288.45 189.28 288.47 189.05C288.58 188.21 288.68 187.37 288.77 186.54C288.77 186.28 288.82 186.03 288.85 185.77C288.94 184.88 289.02 183.99 289.1 183.11V182.66C289.187 181.66 289.257 180.66 289.31 179.66C289.315 179.596 289.315 179.533 289.31 179.47C289.31 178.67 289.4 177.88 289.42 177.09C289.49 175.39 289.51 173.73 289.49 172.09C289.49 171.28 289.49 170.48 289.43 169.68C289.37 168.1 289.27 166.56 289.13 165.06C288.913 162.92 288.579 160.793 288.13 158.69C287.85 157.35 287.53 156.08 287.13 154.86C286.769 153.69 286.341 152.541 285.85 151.42C284.986 149.393 283.816 147.511 282.38 145.84C281.707 145.084 280.964 144.394 280.16 143.78C278.536 142.559 276.666 141.705 274.68 141.28C262.68 139.78 253.81 153.43 248.3 172.49C248.296 172.513 248.296 172.536 248.3 172.56C248.02 173.56 247.75 174.49 247.5 175.48C247.43 175.73 247.36 175.99 247.3 176.24C247.11 176.98 246.92 177.72 246.74 178.47C246.66 178.8 246.58 179.14 246.51 179.47C246.34 180.18 246.18 180.89 246.02 181.61L245.81 182.61C245.68 183.23 245.56 183.85 245.43 184.47C241.21 172.97 234.84 165.97 225.36 167.72C223.57 168.045 221.864 168.725 220.34 169.719C218.817 170.713 217.508 172.002 216.49 173.51C216.177 173.95 215.877 174.41 215.59 174.89C214.084 177.582 213.011 180.494 212.41 183.52C211.95 185.621 211.616 187.748 211.41 189.89C211.21 192.14 211.11 194.52 211.12 196.99C211.12 198.59 211.12 200.23 211.26 201.91C211.26 202.91 211.37 203.85 211.45 204.84C211.65 207.42 211.933 210.056 212.3 212.75C212.4 213.51 212.52 214.27 212.63 215.03C206.07 210.25 199.08 208.75 191.94 212.72C190.202 213.653 188.669 214.925 187.43 216.46C187.146 216.814 186.882 217.185 186.64 217.57C186.162 218.334 185.763 219.145 185.45 219.99C185.138 220.854 184.904 221.744 184.75 222.65C184.598 223.596 184.518 224.552 184.51 225.51C184.574 228.798 185.186 232.052 186.32 235.14C186.57 235.87 186.86 236.62 187.16 237.37C187.46 238.12 187.84 238.99 188.22 239.82C188.72 240.91 189.27 242.01 189.86 243.11C190.64 244.603 191.497 246.103 192.43 247.61C192.96 248.46 193.52 249.32 194.09 250.18C196.234 253.397 198.544 256.501 201.01 259.48V259.54C202.43 261.266 203.907 262.973 205.44 264.66L205.59 264.83C206.67 266.016 207.777 267.186 208.91 268.34L209.18 268.62L209.75 269.2L210.22 269.66L210.5 269.94C211.21 270.64 211.92 271.34 212.65 272.03L212.8 272.17L213.08 272.44L213.79 273.1L214.29 273.57L215.29 274.44L215.77 274.87L216.95 275.93L217.43 276.35L218.06 276.89L218.93 277.63L219.63 278.22L220.46 278.9C220.91 279.27 221.36 279.64 221.81 279.99L222.56 280.58L223.39 281.23L224.14 281.8L225.06 282.49L225.78 283.02L227.13 284.02L227.78 284.47L228.78 285.13L229.41 285.55C229.85 285.85 230.3 286.14 230.74 286.42L231.23 286.73L232.43 287.48L233 287.82L234.07 288.45L234.55 288.73L236.02 289.54L236.42 289.75L237.55 290.33L237.81 290.47L238.04 290.58L239.23 291.14L239.53 291.28L240.96 291.91L241.36 292.07C241.72 292.216 242.08 292.356 242.44 292.49L242.85 292.65L244.24 293.13H244.3L245.6 293.51L245.94 293.6V293.68C246.27 293.758 246.604 293.818 246.94 293.86H247.12L247.33 293.91C247.76 293.99 248.18 294.07 248.6 294.13H248.66L249.56 294.27L249.91 294.33H250.16H250.34C250.669 294.408 251.003 294.465 251.34 294.5V294.42H251.79H252.27C252.84 294.42 253.41 294.47 254 294.47H254.63C255.35 294.47 256.08 294.47 256.83 294.4H257.27C257.56 294.4 257.84 294.4 258.12 294.34L258.78 294.28L259.24 294.23L259.8 294.17C260.6 294.08 261.41 293.97 262.24 293.84L262.52 293.79C263.27 293.67 264.04 293.53 264.81 293.38L265.4 293.26C266.07 293.13 266.74 292.99 267.4 292.83L268.65 292.54L270.74 292L271.3 291.85L273.3 291.28L274.96 290.77C275.62 290.57 276.27 290.36 276.96 290.14L277.43 289.98L277.76 289.87L279.09 289.41L280.21 289.01H280.32C281.32 288.64 282.32 288.26 283.32 287.86L283.63 287.83C284.63 287.45 285.55 287.06 286.5 286.66L286.66 286.6L287.66 286.18C288.37 285.88 289.08 285.56 289.79 285.24C290.79 284.78 291.79 284.31 292.79 283.83L292.93 283.76C294.93 282.76 297.02 281.76 299.02 280.66L299.11 280.61C300.503 279.87 301.867 279.103 303.2 278.31C303.75 277.99 304.3 277.67 304.84 277.31L305.04 277.19C307.17 275.9 309.23 274.56 311.21 273.19C311.58 272.94 311.94 272.68 312.3 272.42C313.97 271.24 315.57 270.03 317.08 268.81C319.229 267.087 321.279 265.244 323.22 263.29C324.14 262.36 325.01 261.42 325.81 260.48C328.068 257.943 329.926 255.076 331.32 251.98C332.984 248.601 333.306 244.716 332.22 241.11Z" fill="#683992"/>
<path d="M361.96 177.979C361.87 177.553 361.756 177.133 361.62 176.719C361.181 175.374 360.548 174.101 359.74 172.939C355.39 166.589 348.88 164.939 341.34 166.179C342.01 165.179 342.67 164.269 343.34 163.319C344.34 161.839 345.28 160.319 346.17 158.889C346.81 157.889 347.43 156.819 348.01 155.799C352.01 148.719 354.76 141.959 355.6 136.119C356.52 129.689 355.13 124.379 350.6 120.969C343.36 115.519 335.05 118.739 326.6 126.639C326.77 126.029 326.93 125.419 327.09 124.809C327.15 124.599 327.2 124.389 327.25 124.169C327.45 123.396 327.64 122.626 327.82 121.859C327.88 121.629 327.94 121.389 327.99 121.159C328.18 120.329 328.36 119.509 328.54 118.699L328.63 118.289C328.823 117.356 329.003 116.436 329.17 115.529V115.359C329.31 114.619 329.44 113.889 329.56 113.159C329.82 111.579 330.04 110.019 330.21 108.499C330.3 107.739 330.38 106.989 330.44 106.249C330.57 104.759 330.66 103.309 330.7 101.899C330.789 99.8762 330.765 97.8498 330.63 95.8293C330.52 94.5493 330.37 93.3193 330.16 92.1493C329.96 91.013 329.699 89.8881 329.38 88.7793C328.813 86.7829 327.94 84.8869 326.79 83.1593C326.257 82.368 325.644 81.6341 324.96 80.9693C323.597 79.6276 321.954 78.6033 320.15 77.9693C309.15 75.1493 299.22 86.8493 291.82 103.969C291.816 103.989 291.816 104.01 291.82 104.029C291.44 104.889 291.08 105.769 290.72 106.659L290.45 107.349C290.18 108.019 289.92 108.689 289.67 109.349C289.55 109.649 289.44 109.959 289.32 110.259C289.09 110.899 288.85 111.549 288.62 112.199C288.52 112.499 288.41 112.789 288.31 113.079C288.11 113.639 287.92 114.209 287.73 114.769C285.15 103.539 280.03 96.2493 270.98 96.7693C269.264 96.856 267.583 97.2866 266.037 98.0355C264.491 98.7845 263.111 99.8366 261.98 101.129C261.63 101.499 261.3 101.899 260.98 102.309C259.251 104.643 257.901 107.235 256.98 109.989C256.314 111.9 255.766 113.851 255.34 115.829C254.88 117.909 254.507 120.106 254.22 122.419C254.04 123.919 253.88 125.419 253.77 127.039C253.7 127.949 253.64 128.869 253.6 129.799C253.48 132.219 253.43 134.729 253.46 137.279C253.46 137.999 253.46 138.719 253.46 139.449C247.89 134.209 241.55 131.979 234.46 134.839C232.726 135.52 231.145 136.54 229.81 137.839C229.503 138.157 229.213 138.491 228.94 138.839C228.403 139.497 227.934 140.207 227.54 140.959C227.131 141.722 226.796 142.523 226.54 143.349C226.279 144.215 226.092 145.102 225.98 145.999C225.645 149.075 225.828 152.184 226.52 155.199C226.67 155.909 226.85 156.639 227.04 157.379C227.23 158.119 227.49 158.979 227.74 159.799C228.08 160.873 228.46 161.963 228.88 163.069C229.44 164.549 230.06 166.069 230.76 167.559C231.15 168.419 231.57 169.289 232 170.159C233.623 173.419 235.412 176.593 237.36 179.669V179.729C238.48 181.509 239.657 183.279 240.89 185.039L241.01 185.209C241.88 186.439 242.78 187.669 243.69 188.879L243.91 189.169L244.37 189.779L244.75 190.269C244.82 190.369 244.9 190.459 244.98 190.559C245.56 191.299 246.14 192.029 246.73 192.759C246.73 192.759 246.82 192.859 246.86 192.919L247.09 193.199C247.28 193.439 247.48 193.669 247.67 193.899L248.08 194.389L248.87 195.329L249.27 195.779L250.27 196.909L250.66 197.359L251.19 197.939L251.91 198.729L252.49 199.359L253.19 200.099C253.56 200.499 253.94 200.889 254.32 201.279L254.95 201.919L255.65 202.619L256.28 203.239L257.06 203.999L257.67 204.569L258.81 205.639L259.37 206.139L260.18 206.859L260.72 207.329C261.1 207.659 261.48 207.989 261.86 208.329L262.28 208.679C262.63 208.969 262.97 209.249 263.28 209.519L263.77 209.909L264.69 210.619L265.11 210.939L266.38 211.869L266.73 212.109C267.06 212.349 267.39 212.569 267.73 212.789L267.95 212.949L268.16 213.079L269.16 213.749L269.42 213.909L270.69 214.659L271.04 214.859L272.04 215.379L272.42 215.579C272.83 215.789 273.24 215.999 273.65 216.189H273.71C274.1 216.369 274.49 216.529 274.88 216.689L275.18 216.819V216.889C275.506 217.011 275.84 217.108 276.18 217.179H276.34L276.53 217.239C276.92 217.379 277.31 217.499 277.69 217.599H277.75C278.01 217.689 278.29 217.769 278.57 217.839L278.88 217.939L279.12 217.999L279.28 218.059C279.608 218.171 279.942 218.265 280.28 218.339V218.259L280.7 218.349L281.15 218.429C281.67 218.519 282.15 218.599 282.75 218.669L283.19 218.729C283.86 218.809 284.55 218.869 285.26 218.919H285.67H286.47H287.09H288.09C288.84 218.919 289.61 218.919 290.4 218.919H290.63C291.35 218.919 292.08 218.859 292.82 218.809H293.38C294.02 218.759 294.67 218.709 295.32 218.639L296.52 218.519L298.52 218.269L299.06 218.189L301.06 217.899L302.67 217.619C303.337 217.506 303.977 217.386 304.59 217.259L305.04 217.169L305.37 217.109L306.66 216.839L307.76 216.599H307.86C308.86 216.379 309.86 216.149 310.86 215.899L311.15 215.819L313.97 215.069H314.12L315.12 214.799L317.22 214.179C318.22 213.879 319.22 213.559 320.22 213.179H320.36C322.36 212.509 324.42 211.779 326.41 211.009H326.51C327.88 210.479 329.25 209.929 330.6 209.349L332.24 208.639L332.44 208.549C334.58 207.603 336.657 206.603 338.67 205.549L339.78 204.959C341.48 204.049 343.11 203.119 344.68 202.149C346.882 200.793 349.008 199.317 351.05 197.729C352.05 196.959 352.95 196.189 353.81 195.409C356.214 193.306 358.288 190.851 359.96 188.129C361.89 185.122 362.605 181.494 361.96 177.979Z" fill="#683992"/>
<path d="M378.08 131.759C378.031 131.352 377.958 130.948 377.86 130.549C377.551 129.253 377.053 128.01 376.38 126.859C372.8 120.579 366.83 118.509 359.67 119.109C360.38 118.269 361.06 117.429 361.73 116.589C362.77 115.256 363.77 113.946 364.73 112.659C365.41 111.739 366.06 110.809 366.73 109.899C371.03 103.579 374.12 97.4594 375.35 92.0494C376.71 86.0494 375.82 81.0494 371.85 77.4794C365.48 71.8194 357.45 74.1894 348.98 80.9494C349.18 80.3894 349.38 79.8294 349.57 79.2694L349.78 78.6894C350.02 77.9794 350.26 77.2694 350.49 76.5594L350.7 75.9194C350.94 75.1594 351.17 74.4094 351.4 73.6594C351.4 73.5294 351.48 73.3994 351.51 73.2794C351.77 72.4294 352.01 71.5794 352.24 70.7394C352.24 70.7394 352.24 70.6294 352.24 70.5794C352.43 69.8894 352.6 69.2094 352.77 68.5794C353.14 67.1194 353.46 65.6794 353.77 64.2694C353.91 63.5594 354.04 62.8694 354.16 62.1694C354.4 60.7894 354.59 59.4394 354.74 58.1694C354.958 56.2804 355.072 54.3808 355.08 52.4794C355.08 51.2694 355.08 50.1094 354.93 48.9894C354.826 47.9117 354.666 46.8402 354.45 45.7794C354.074 43.8657 353.399 42.0232 352.45 40.3194C352.012 39.536 351.496 38.7989 350.91 38.1194C349.747 36.7169 348.285 35.5927 346.63 34.8294C336.52 31.3394 326.35 41.5394 318.1 57.0194V57.0794C317.69 57.8594 317.28 58.6494 316.87 59.4594C316.77 59.6594 316.67 59.8794 316.56 60.0894C316.26 60.6894 315.97 61.2994 315.68 61.9094L315.29 62.7394C315.01 63.3194 314.74 63.9094 314.48 64.4994L314.12 65.3094C313.89 65.8194 313.67 66.3094 313.45 66.8494C311.89 56.1294 307.66 48.8494 299.14 48.6794C297.53 48.6354 295.928 48.9135 294.427 49.4974C292.926 50.0813 291.557 50.9591 290.4 52.0794C290.05 52.3994 289.71 52.7494 289.4 53.0794C287.606 55.132 286.145 57.4536 285.07 59.9594C284.294 61.6998 283.626 63.4866 283.07 65.3094C282.48 67.2194 281.97 69.2494 281.52 71.3894C281.24 72.7694 280.98 74.2094 280.75 75.6694C280.61 76.5194 280.49 77.3794 280.38 78.2394C280.08 80.5127 279.843 82.846 279.67 85.2394C279.62 85.9094 279.58 86.5894 279.54 87.2394C274.73 81.8994 268.96 79.3294 262.05 81.4594C260.377 81.9506 258.819 82.7736 257.47 83.8794C257.157 84.1344 256.86 84.4082 256.58 84.6994C256.024 85.2677 255.531 85.8947 255.11 86.5694C254.678 87.2559 254.313 87.9826 254.02 88.7394C253.71 89.5311 253.466 90.3473 253.29 91.1794C252.746 94.0319 252.678 96.9548 253.09 99.8294C253.18 100.519 253.29 101.209 253.42 101.919C253.55 102.629 253.71 103.449 253.88 104.239C254.12 105.239 254.39 106.319 254.7 107.389C255.113 108.816 255.583 110.266 256.11 111.739C256.41 112.579 256.73 113.419 257.11 114.269C258.384 117.446 259.815 120.556 261.4 123.589V123.649C262.32 125.409 263.287 127.156 264.3 128.889L264.4 129.059C265.13 130.289 265.87 131.499 266.63 132.709L266.82 132.999C266.95 133.199 267.07 133.409 267.21 133.609C267.31 133.779 267.42 133.939 267.53 134.099L267.72 134.389C268.2 135.129 268.72 135.859 269.19 136.589L269.3 136.739L269.49 137.029C269.66 137.259 269.82 137.489 269.98 137.729L270.33 138.219L271 139.149L271.34 139.619L272.17 140.749L272.51 141.189L272.96 141.779C273.16 142.049 273.37 142.319 273.58 142.579L274.07 143.209L274.67 143.959C274.99 144.359 275.31 144.759 275.67 145.149L276.21 145.799L276.81 146.509L277.35 147.139L278.03 147.909C278.2 148.099 278.37 148.299 278.55 148.489L279.55 149.579L280.03 150.089C280.26 150.339 280.5 150.589 280.74 150.829C280.98 151.069 281.05 151.159 281.21 151.309L282.21 152.309L282.58 152.669L283.48 153.539L283.91 153.929L284.72 154.669L285.09 154.999C285.46 155.339 285.84 155.659 286.21 155.999L286.52 156.259L287.39 156.969L287.59 157.129L287.77 157.269L288.69 157.979L288.93 158.149C289.31 158.429 289.68 158.699 290.05 158.949L290.37 159.169L291.22 159.729L291.56 159.939C291.93 160.169 292.3 160.399 292.67 160.609H292.72L293.72 161.169L294 161.309V161.379C294.284 161.509 294.574 161.623 294.87 161.719L295.02 161.779L295.19 161.849C295.55 162.009 295.9 162.149 296.25 162.279L297 162.569L297.29 162.679L297.51 162.759L297.66 162.829C297.942 162.963 298.232 163.077 298.53 163.169V163.089L298.91 163.199L299.33 163.309C299.81 163.439 300.33 163.559 300.81 163.669L301.22 163.759C301.84 163.879 302.48 163.989 303.14 164.089L303.53 164.149L304.27 164.249L304.85 164.309H305.26L305.75 164.359C306.46 164.429 307.18 164.479 307.92 164.519H308.18L310.24 164.589H312.6H313.73L315.64 164.509H316.15C316.76 164.509 317.38 164.429 318.01 164.379L319.54 164.249L321.36 164.059L321.79 164.009H322.1L323.33 163.849L324.33 163.709H324.43C325.37 163.579 326.31 163.429 327.26 163.269H327.53C328.43 163.119 329.33 162.949 330.23 162.779H330.38L331.29 162.599C331.97 162.469 332.64 162.329 333.29 162.179L336.18 161.519H336.3C338.3 161.039 340.22 160.519 342.15 159.949H342.24C343.57 159.559 344.89 159.139 346.24 158.709L347.84 158.159L348.04 158.089C350.11 157.369 352.14 156.589 354.1 155.759L355.19 155.289C356.84 154.569 358.45 153.819 359.99 153.039C362.159 151.937 364.266 150.715 366.3 149.379C367.3 148.739 368.19 148.089 369.06 147.379C371.479 145.602 373.61 143.463 375.38 141.039C377.42 138.398 378.385 135.083 378.08 131.759Z" fill="#683992"/>
<path d="M164.92 845.29C164.92 843.8 163.11 694.37 184.98 521.39C197.87 419.48 216.33 329.3 239.86 253.39C269.68 157.13 307.94 83.1796 353.57 33.5996L380.06 57.9796C304.13 140.48 249.06 302.15 220.76 525.51C199.16 696.03 200.9 843.32 200.92 844.83L164.92 845.29Z" fill="#66BE64"/>
<path d="M387.4 19.8293C370.13 4.64934 321.4 65.3493 325.33 84.4893C344.63 87.6293 403.28 36.4193 387.4 19.8293Z" fill="#8161A9"/>
<path d="M334.93 65.2393L330.38 65.1793C326.45 72.9093 324.38 79.8593 325.38 84.4393C344.67 87.6293 403.33 36.4393 387.45 19.7793C387.4 19.8293 364.5 53.4293 334.93 65.2393Z" fill="#764FA0"/>
<path d="M381.01 46.8793C369.545 47.3971 358.724 52.3275 350.81 60.6393L336.73 72.5693L348.08 58.0093C356.074 49.7703 360.571 38.7587 360.63 27.2793C342.48 42.3493 323.83 70.6193 325.22 83.4393V83.4993C325.22 83.8193 325.31 84.1393 325.37 84.4393C325.68 84.4393 326 84.5293 326.32 84.5493H326.38C339.21 85.4193 366.69 65.6293 381.01 46.8793Z" fill="#683992"/>
<path d="M315.63 97.3299C315.63 97.3299 373.63 26.4099 349.48 15.8299C327.63 6.18989 302.63 86.5799 315.63 97.3299Z" fill="#8161A9"/>
<path d="M315.63 97.3296C315.63 97.3296 320.09 91.8696 326.02 83.7696C329.26 38.6696 349.52 15.7695 349.52 15.7695C327.63 6.18955 302.63 86.5796 315.63 97.3296Z" fill="#764FA0"/>
<path d="M331.81 24.6992C316.86 44.6992 306.13 89.4992 315.59 97.3292C315.59 97.3292 316.94 95.6792 319.13 92.8592C310.73 71.3692 331.81 24.7092 331.81 24.7092V24.6992Z" fill="#683992"/>
<path d="M312.86 94.6991C312.86 94.6991 381.35 33.8291 392.94 57.5091C403.42 78.9191 324.13 107.239 312.86 94.6991Z" fill="#8161A9"/>
<path d="M312.86 94.6998C312.86 94.6998 318.13 90.0198 325.98 83.7698C370.91 78.6898 392.98 57.5098 392.98 57.5098C403.42 78.9198 324.13 107.24 312.86 94.6998Z" fill="#764FA0"/>
<path d="M384.76 75.5293C365.35 91.2893 321.07 103.839 312.86 94.6993C312.86 94.6993 314.45 93.2893 317.18 90.9793C339 98.4993 384.76 75.5293 384.76 75.5293Z" fill="#683992"/>
<path d="M317.89 98.2893C317.89 98.2893 339.23 30.7193 313.42 28.4093C290.08 26.3193 301.86 93.2293 317.89 98.2893Z" fill="#8161A9"/>
<path d="M317.89 98.2893C317.89 98.2893 319.53 93.0893 321.35 85.5393C305.17 50.5393 313.42 28.4093 313.42 28.4093C290.08 26.3193 301.86 93.2293 317.89 98.2893Z" fill="#764FA0"/>
<path d="M301.56 39.3691C296.8 58.1191 306.22 94.5991 317.89 98.2891C317.89 98.2891 318.38 96.7191 319.13 94.0591C302.63 79.7591 301.56 39.3791 301.56 39.3791V39.3691Z" fill="#683992"/>
<path d="M311.8 92.4492C311.8 92.4492 378.44 68.3592 381.8 94.0592C384.84 117.299 317.51 108.249 311.8 92.4492Z" fill="#8161A9"/>
<path d="M311.8 92.4492C311.8 92.4492 316.93 90.5992 324.4 88.4492C360 103.189 381.8 94.0392 381.8 94.0392C384.84 117.299 317.51 108.249 311.8 92.4492Z" fill="#764FA0"/>
<path d="M371.34 106.359C352.8 111.879 315.96 103.959 311.8 92.4493C311.8 92.4493 313.35 91.8893 315.98 91.0293C330.98 106.939 371.34 106.359 371.34 106.359Z" fill="#683992"/>
<path d="M340.42 60.83C316.51 48.97 279.95 131.64 290.13 151.93C312.73 149.74 363.21 74.75 340.42 60.83Z" fill="#8161A9"/>
<path d="M295.16 127.52L290.04 128.83C287.94 138.67 287.7 147.1 290.13 151.95C312.73 149.76 363.21 74.7696 340.42 60.8496C340.42 60.8296 324.8 105.42 295.16 127.52Z" fill="#764FA0"/>
<path d="M341.35 93.1498C328.657 97.1557 318.007 105.917 311.63 117.6L299.4 135.2L307.77 115.48C314.263 103.845 316.004 90.1495 312.63 77.2598C296.74 99.5898 284.27 136.88 289.63 150.83V150.89C289.759 151.231 289.906 151.564 290.07 151.89C290.439 151.855 290.806 151.802 291.17 151.73H291.24C305.99 148.88 330.9 118.45 341.35 93.1498Z" fill="#683992"/>
<path d="M283.06 169.3C283.06 169.3 326.93 72.3895 296.69 67.6995C269.35 63.4595 265.28 161.12 283.06 169.3Z" fill="#8161A9"/>
<path d="M283.06 169.3C283.06 169.3 286.43 161.84 290.66 150.98C280.81 99.4195 296.66 67.6995 296.66 67.6995C269.35 63.4595 265.28 161.12 283.06 169.3Z" fill="#764FA0"/>
<path d="M279.53 82.9795C268.75 109.929 270.11 163.339 283.06 169.299C283.06 169.299 284.06 167.039 285.69 163.219C269.84 141.619 279.52 82.9795 279.52 82.9795H279.53Z" fill="#683992"/>
<path d="M279.21 167.17C279.21 167.17 337.84 78.4095 357.92 101.5C376.08 122.38 295.63 177.83 279.21 167.17Z" fill="#8161A9"/>
<path d="M279.21 167.17C279.21 167.17 283.72 160.35 290.66 150.98C339.54 131.84 357.92 101.5 357.92 101.5C376.08 122.38 295.63 177.83 279.21 167.17Z" fill="#764FA0"/>
<path d="M354.13 124.159C337.07 147.649 291.13 174.959 279.21 167.159C279.21 167.159 280.57 165.099 282.95 161.699C309.68 163.599 354.13 124.159 354.13 124.159Z" fill="#683992"/>
<path d="M285.92 169.69C285.92 169.69 289.66 87.5097 260.02 92.6397C233.21 97.2797 266.44 168.83 285.92 169.69Z" fill="#8161A9"/>
<path d="M285.92 169.69C285.92 169.69 286.21 163.37 285.99 154.35C257.39 119.97 259.99 92.6396 259.99 92.6396C233.21 97.2796 266.44 168.83 285.92 169.69Z" fill="#764FA0"/>
<path d="M249.99 108.479C250.25 130.929 271.73 169.039 285.92 169.689C285.92 169.689 286.01 167.78 286.05 164.57C263.26 153.46 249.99 108.479 249.99 108.479Z" fill="#683992"/>
<path d="M277.35 164.959C277.35 164.959 344.9 118.009 356.35 145.819C366.72 170.979 288.49 180.969 277.35 164.959Z" fill="#8161A9"/>
<path d="M277.35 164.959C277.35 164.959 282.55 161.349 290.3 156.719C334.63 162.609 356.36 145.829 356.36 145.829C366.72 170.979 288.49 180.969 277.35 164.959Z" fill="#764FA0"/>
<path d="M348.3 162.749C329.16 174.489 285.46 176.619 277.35 164.959C277.35 164.959 278.93 163.869 281.62 162.119C303.16 175.489 348.3 162.749 348.3 162.749Z" fill="#683992"/>
<path d="M314.21 115.699C283.16 102.459 243.02 209.459 257.35 234.319C285.71 229.919 343.98 131.609 314.21 115.699Z" fill="#8161A9"/>
<path d="M261.92 203.149L255.55 205.149C253.62 217.729 253.92 228.379 257.35 234.319C285.71 229.919 343.98 131.609 314.21 115.699C314.21 115.699 297.73 173.109 261.92 203.149Z" fill="#764FA0"/>
<path d="M317.73 156.41C301.992 162.381 289.172 174.205 281.95 189.41L267.79 212.51L276.93 187C284.272 171.845 285.468 154.437 280.27 138.42C261.89 167.83 248.86 215.76 256.63 232.99C256.634 233.016 256.634 233.043 256.63 233.07C256.821 233.498 257.035 233.915 257.27 234.32C257.72 234.25 258.18 234.15 258.65 234.04H258.73C277.14 229.32 306.38 189.11 317.73 156.41Z" fill="#683992"/>
<path d="M249.68 256.759C249.68 256.759 298.01 131.259 259.51 127.539C224.69 124.169 226.63 247.729 249.68 256.759Z" fill="#8161A9"/>
<path d="M249.68 256.759C249.68 256.759 253.4 247.099 257.95 233.079C241.77 168.729 259.51 127.539 259.51 127.539C224.69 124.169 226.63 247.729 249.68 256.759Z" fill="#764FA0"/>
<path d="M238.97 148.069C227.32 182.859 232.9 250.179 249.68 256.759C249.68 256.759 250.81 253.839 252.57 248.899C231 222.789 238.97 148.079 238.97 148.079V148.069Z" fill="#683992"/>
<path d="M244.63 254.35C244.63 254.35 312.19 138.07 339.2 165.75C363.68 190.83 266.14 266.66 244.63 254.35Z" fill="#8161A9"/>
<path d="M244.63 254.35C244.63 254.35 249.83 245.41 257.91 233.08C318.21 205.39 339.2 165.75 339.2 165.75C363.68 190.83 266.14 266.66 244.63 254.35Z" fill="#764FA0"/>
<path d="M336.11 194.63C316.28 225.51 260.31 263.32 244.67 254.35C244.67 254.35 246.24 251.65 248.99 247.18C282.86 247.64 336.11 194.63 336.11 194.63Z" fill="#683992"/>
<path d="M253.33 257.04C253.33 257.04 252.08 153.04 215.04 161.67C181.53 169.48 228.63 257.34 253.33 257.04Z" fill="#8161A9"/>
<path d="M253.33 257.04C253.33 257.04 253.23 249.04 252.33 237.68C213.73 196.36 215.07 161.68 215.07 161.68C181.53 169.48 228.63 257.34 253.33 257.04Z" fill="#764FA0"/>
<path d="M203.53 182.39C205.53 210.71 235.37 257.26 253.33 257.04C253.33 257.04 253.33 254.62 253.12 250.57C223.55 238.2 203.53 182.39 203.53 182.39Z" fill="#683992"/>
<path d="M242.17 251.689C242.17 251.689 324.02 187.529 340.49 221.829C355.4 252.829 257.38 271.099 242.17 251.689Z" fill="#8161A9"/>
<path d="M242.17 251.69C242.17 251.69 248.46 246.76 257.91 240.36C314.29 244.57 340.49 221.81 340.49 221.81C355.4 252.83 257.38 271.1 242.17 251.69Z" fill="#764FA0"/>
<path d="M331.55 243.76C308.24 259.96 253.25 265.83 242.17 251.69C242.17 251.69 244.07 250.2 247.34 247.8C275.5 263.11 331.54 243.8 331.54 243.8L331.55 243.76Z" fill="#683992"/>
<path d="M281.08 193.18C249.4 181.53 214.71 290.42 230.28 314.53C258.38 308.7 311.63 207.57 281.08 193.18Z" fill="#8161A9"/>
<path d="M233.27 283.16L227.01 285.48C225.71 298.14 226.55 308.76 230.28 314.53C258.38 308.7 311.61 207.53 281.08 193.18C281.08 193.18 267.51 251.36 233.27 283.16Z" fill="#764FA0"/>
<path d="M286.63 233.669C271.232 240.444 259.049 252.909 252.63 268.459L239.63 292.249L247.47 266.309C254.045 250.803 254.36 233.353 248.35 217.619C231.45 247.829 220.85 296.409 229.53 313.229V313.309C229.76 313.729 229.99 314.139 230.23 314.529C230.67 314.429 231.13 314.309 231.59 314.169H231.67C249.79 308.529 276.96 266.899 286.63 233.669Z" fill="#683992"/>
<path d="M223.75 337.32C223.75 337.32 265.69 209.55 227.05 207.77C192.1 206.16 200.29 329.47 223.75 337.32Z" fill="#8161A9"/>
<path d="M223.75 337.32C223.75 337.32 226.97 327.49 230.81 313.26C211.4 249.8 227.05 207.77 227.05 207.77C192.1 206.16 200.29 329.47 223.75 337.32Z" fill="#764FA0"/>
<path d="M207.56 229.31C197.68 264.65 206.66 331.6 223.75 337.31C223.75 337.31 224.75 334.31 226.23 329.31C203.36 304.31 207.55 229.31 207.55 229.31H207.56Z" fill="#683992"/>
<path d="M218.63 335.17C218.63 335.17 280.23 215.63 308.63 241.91C334.27 265.68 240.68 346.38 218.63 335.17Z" fill="#8161A9"/>
<path d="M218.63 335.169C218.63 335.169 223.37 325.979 230.82 313.259C289.63 282.549 308.63 241.909 308.63 241.909C334.27 265.679 240.68 346.379 218.63 335.169Z" fill="#764FA0"/>
<path d="M306.93 270.909C288.69 302.749 234.69 343.329 218.62 335.169C218.62 335.169 220.06 332.389 222.62 327.789C256.47 326.539 306.97 270.909 306.97 270.909H306.93Z" fill="#683992"/>
<path d="M227.4 337.42C227.4 337.42 220.91 233.62 184.4 244.11C151.28 253.59 202.79 338.96 227.4 337.42Z" fill="#8161A9"/>
<path d="M227.4 337.42C227.4 337.42 226.9 329.42 225.4 318.13C184.77 278.81 184.4 244.13 184.4 244.13C151.28 253.59 202.79 338.96 227.4 337.42Z" fill="#764FA0"/>
<path d="M173.9 265.38C177.29 293.57 209.48 338.54 227.4 337.38C227.4 337.38 227.25 334.97 226.87 330.93C196.71 320.08 173.87 265.35 173.87 265.35L173.9 265.38Z" fill="#683992"/>
<path d="M215.99 332.64C215.99 332.64 294.49 264.43 312.68 297.83C329.13 328.04 232.16 351.26 215.99 332.64Z" fill="#8161A9"/>
<path d="M215.99 332.639C215.99 332.639 221.99 327.399 231.13 320.529C287.63 321.889 312.68 297.829 312.68 297.829C329.13 328.039 232.16 351.259 215.99 332.639Z" fill="#764FA0"/>
<path d="M304.86 320.199C282.39 337.569 227.77 346.199 215.99 332.639C215.99 332.639 217.81 331.059 220.99 328.489C249.89 342.359 304.89 320.199 304.89 320.199H304.86Z" fill="#683992"/>
<path d="M297.376 300.785C302.096 300.166 305.655 297.619 305.324 295.094C304.994 292.57 300.899 291.024 296.179 291.643C291.458 292.261 287.9 294.808 288.23 297.333C288.561 299.857 292.656 301.403 297.376 300.785Z" fill="#F6FAFE"/>
<path d="M334.808 191.505C338.175 188.139 339.444 183.951 337.644 182.15C335.844 180.35 331.655 181.619 328.289 184.986C324.923 188.352 323.653 192.541 325.453 194.341C327.254 196.141 331.442 194.872 334.808 191.505Z" fill="#F6FAFE"/>
<path d="M381.297 63.8233C385.634 61.8604 388.299 58.3888 387.25 56.0692C386.2 53.7497 381.833 53.4606 377.496 55.4234C373.159 57.3863 370.494 60.8579 371.543 63.1774C372.593 65.497 376.96 65.7861 381.297 63.8233Z" fill="#F6FAFE"/>
<path d="M341.686 146.235C345.776 146.09 349.03 144.227 348.953 142.075C348.877 139.922 345.5 138.295 341.41 138.44C337.32 138.585 334.066 140.447 334.143 142.6C334.219 144.752 337.596 146.38 341.686 146.235Z" fill="#F6FAFE"/>
<path d="M238.63 266.199C205.14 261.999 195.94 375.909 216.55 395.879C242.63 383.829 271.63 273.319 238.63 266.199Z" fill="#8161A9"/>
<path d="M212.42 364.659L206.84 368.329C208.43 380.949 211.65 391.109 216.58 395.879C242.63 383.829 271.63 273.319 238.63 266.199C238.63 266.199 238.63 325.929 212.42 364.659Z" fill="#764FA0"/>
<path d="M253.23 304.379C239.737 314.455 230.661 329.357 227.9 345.969L220.63 372.069L222.41 345.069C225.309 328.482 221.675 311.416 212.27 297.449C202.66 330.699 203.27 380.449 215.56 394.829V394.889C215.876 395.24 216.21 395.573 216.56 395.889C216.98 395.699 217.39 395.479 217.81 395.239H217.88C234.24 385.629 251.3 338.939 253.23 304.379Z" fill="#683992"/>
<path d="M215.37 419.56C215.37 419.56 227.37 285.619 189.32 292.559C154.92 298.939 190.74 417.21 215.37 419.56Z" fill="#8161A9"/>
<path d="M215.37 419.56C215.37 419.56 216.3 409.26 216.82 394.56C183.58 337.12 189.32 292.64 189.32 292.64C154.92 298.94 190.74 417.21 215.37 419.56Z" fill="#764FA0"/>
<path d="M175.21 318C173.57 354.66 197.44 417.85 215.37 419.56C215.37 419.56 215.65 416.45 215.99 411.21C188.07 392.02 175.21 318 175.21 318Z" fill="#683992"/>
<path d="M209.9 418.63C209.9 418.63 242.9 288.26 276.49 307.45C306.86 324.83 233.92 424.56 209.9 418.63Z" fill="#8161A9"/>
<path d="M209.9 418.629C209.9 418.629 212.44 408.629 216.82 394.529C267.19 351.329 276.49 307.449 276.49 307.449C306.86 324.829 233.92 424.559 209.9 418.629Z" fill="#764FA0"/>
<path d="M281.41 336.079C270.83 371.219 227.41 422.949 209.9 418.629C209.9 418.629 210.66 415.629 212.08 410.539C244.77 401.679 281.41 336.079 281.41 336.079Z" fill="#683992"/>
<path d="M218.95 418.83C218.95 418.83 189.18 319.19 155.95 337.66C125.87 354.36 195.33 425.89 218.95 418.83Z" fill="#8161A9"/>
<path d="M218.96 418.829C218.96 418.829 216.66 411.169 212.65 400.489C164.19 371.369 155.94 337.659 155.94 337.659C125.87 354.359 195.33 425.889 218.96 418.829Z" fill="#764FA0"/>
<path d="M150.56 360.739C160.24 387.429 201.75 423.969 218.96 418.829C218.96 418.829 218.26 416.519 216.96 412.669C185.14 408.899 150.55 360.739 150.55 360.739H150.56Z" fill="#683992"/>
<path d="M206.76 416.76C206.76 416.76 267.83 332.58 293.09 361.01C315.93 386.72 226.72 431.24 206.76 416.76Z" fill="#8161A9"/>
<path d="M206.76 416.76C206.76 416.76 211.45 410.28 218.76 401.54C274.13 390.09 293.07 361.01 293.07 361.01C315.93 386.72 226.72 431.24 206.76 416.76Z" fill="#764FA0"/>
<path d="M290.52 384.569C272.52 406.569 221.29 427.299 206.76 416.759C206.76 416.759 208.18 414.759 210.66 411.589C241.94 418.589 290.51 384.589 290.51 384.589L290.52 384.569Z" fill="#683992"/>
<path d="M245.25 370.209C245.25 370.209 242.97 379.769 249.87 382.749C254.27 384.649 262.07 385.999 272.4 376.659C267.4 363.659 259.8 361.359 255.02 361.079C247.52 360.639 245.25 370.209 245.25 370.209Z" fill="#AD91C4"/>
<path d="M249.99 362.56C246.45 365.15 245.25 370.21 245.25 370.21C245.25 370.21 242.97 379.77 249.87 382.75C254.27 384.65 262.07 386 272.4 376.66C272.4 376.66 249.83 378.4 249.99 362.56Z" fill="#764FA0"/>
<path d="M249.99 362.56C246.45 365.15 245.25 370.21 245.25 370.21C245.25 370.21 242.97 379.77 249.87 382.75C252.774 384.032 255.993 384.425 259.12 383.88C259.12 383.88 241.39 380.23 249.99 362.56Z" fill="#673994"/>
<path d="M245.93 371.249C245.93 371.249 255.72 370.349 257.69 377.599C258.95 382.219 259.19 390.139 248.49 399.039C236.34 392.239 235.12 384.409 235.49 379.639C236.14 372.149 245.93 371.249 245.93 371.249Z" fill="#AD91C4"/>
<path d="M237.69 374.829C240.75 371.689 245.93 371.209 245.93 371.209C245.93 371.209 255.72 370.309 257.69 377.559C258.95 382.179 259.19 390.099 248.49 398.999C248.49 399.039 253.4 376.939 237.69 374.829Z" fill="#764FA0"/>
<path d="M245.38 371.09C245.38 371.09 252.66 364.49 248.66 358.09C246.11 354.04 240.44 348.51 226.66 350.36C223.45 363.91 228.39 370.1 232.18 373.04C238.09 377.69 245.38 371.09 245.38 371.09Z" fill="#AD91C4"/>
<path d="M237.14 374.71C241.52 374.58 245.38 371.09 245.38 371.09C245.38 371.09 252.66 364.49 248.66 358.09C246.11 354.04 240.44 348.51 226.66 350.36C226.63 350.4 246.24 361.74 237.14 374.71Z" fill="#764FA0"/>
<path d="M245.38 371.09C245.38 371.09 241.38 362.09 234.06 363.96C229.42 365.14 222.41 368.82 219.91 382.52C231.81 389.76 239.22 386.97 243.18 384.28C249.4 380.06 245.38 371.09 245.38 371.09Z" fill="#AD91C4"/>
<path d="M246.27 380.05C247.5 375.83 245.38 371.05 245.38 371.05C245.38 371.05 241.38 362.05 234.06 363.92C229.42 365.1 222.41 368.78 219.91 382.48C219.91 382.52 236.75 367.38 246.27 380.05Z" fill="#764FA0"/>
<path d="M246.27 380.05C247.5 375.83 245.38 371.05 245.38 371.05C245.38 371.05 241.38 362.05 234.06 363.92C230.987 364.682 228.205 366.331 226.06 368.66C226.06 368.66 242.33 360.83 246.27 380.05Z" fill="#673994"/>
<path d="M245.38 371.09C245.38 371.09 253.91 375.98 258.72 370.21C261.78 366.53 265.29 359.43 259.26 346.88C245.38 348.01 241.02 354.63 239.4 359.13C236.85 366.2 245.38 371.09 245.38 371.09Z" fill="#AD91C4"/>
<path d="M239.39 364.37C240.87 368.5 245.39 371.09 245.39 371.09C245.39 371.09 253.92 375.98 258.73 370.21C261.79 366.53 265.3 359.43 259.27 346.88C259.26 346.88 254.54 369.02 239.39 364.37Z" fill="#764FA0"/>
<path d="M245.38 371.09C245.38 371.09 249.38 380.09 243.18 384.28C239.18 386.97 231.81 389.76 219.91 382.52C222.41 368.82 229.42 365.14 234.06 363.96C241.35 362.12 245.38 371.09 245.38 371.09Z" fill="#AD91C4"/>
<path d="M239.28 364.47C243.28 366.35 245.38 371.09 245.38 371.09C245.38 371.09 249.38 380.09 243.18 384.28C239.18 386.97 231.81 389.76 219.91 382.52C219.91 382.52 242.42 380 239.28 364.47Z" fill="#764FA0"/>
<path d="M245.37 380.239C250.423 380.239 254.52 376.143 254.52 371.089C254.52 366.036 250.423 361.939 245.37 361.939C240.317 361.939 236.22 366.036 236.22 371.089C236.22 376.143 240.317 380.239 245.37 380.239Z" fill="#673994"/>
<path d="M255.54 197.25C255.54 197.25 247.69 203.16 251.09 209.86C253.26 214.13 258.41 220.15 272.32 219.56C276.75 206.36 272.39 199.74 268.89 196.47C263.4 191.34 255.54 197.25 255.54 197.25Z" fill="#AD91C4"/>
<path d="M264.08 194.399C259.7 194.129 255.54 197.249 255.54 197.249C255.54 197.249 247.69 203.159 251.09 209.859C253.26 214.129 258.41 220.149 272.32 219.559C272.32 219.559 253.83 206.479 264.08 194.399Z" fill="#764FA0"/>
<path d="M264.08 194.399C259.7 194.129 255.54 197.249 255.54 197.249C255.54 197.249 247.69 203.159 251.09 209.859C252.511 212.696 254.737 215.051 257.49 216.629C257.49 216.629 246.17 202.499 264.08 194.399Z" fill="#673994"/>
<path d="M255.4 198.489C255.4 198.489 263.51 204.049 260.4 210.889C258.4 215.249 253.54 221.489 239.62 221.509C234.62 208.509 238.68 201.719 242.03 198.299C247.29 192.929 255.4 198.489 255.4 198.489Z" fill="#AD91C4"/>
<path d="M246.75 196.01C251.11 195.55 255.4 198.49 255.4 198.49C255.4 198.49 263.51 204.05 260.4 210.89C258.4 215.25 253.54 221.49 239.62 221.51C239.63 221.51 257.51 207.64 246.75 196.01Z" fill="#764FA0"/>
<path d="M255.08 198.01C255.08 198.01 264.9 197.59 265.88 190.14C266.51 185.39 265.68 177.52 253.88 170.14C242.76 178.52 242.61 186.44 243.65 191.14C245.26 198.44 255.08 198.01 255.08 198.01Z" fill="#AD91C4"/>
<path d="M246.43 195.54C249.89 198.24 255.08 198.01 255.08 198.01C255.08 198.01 264.9 197.59 265.88 190.14C266.51 185.39 265.68 177.52 253.88 170.14C253.87 170.13 261.72 191.37 246.43 195.54Z" fill="#764FA0"/>
<path d="M255.08 198.009C255.08 198.009 257.71 188.539 250.93 185.299C246.61 183.239 238.86 181.6 228.19 190.54C232.72 203.71 240.19 206.299 244.97 206.759C252.45 207.489 255.08 198.009 255.08 198.009Z" fill="#AD91C4"/>
<path d="M250.05 205.479C253.69 203.019 255.05 198.009 255.05 198.009C255.05 198.009 257.68 188.539 250.9 185.299C246.58 183.239 238.83 181.6 228.16 190.54C228.19 190.54 250.81 189.649 250.05 205.479Z" fill="#764FA0"/>
<path d="M250.05 205.48C253.69 203.02 255.05 198.01 255.05 198.01C255.05 198.01 257.68 188.54 250.9 185.3C248.045 183.915 244.844 183.403 241.7 183.83C241.7 183.83 259.31 188.14 250.05 205.48Z" fill="#673994"/>
<path d="M255.08 198.01C255.08 198.01 258.52 207.22 265.91 205.86C270.62 204.99 277.85 201.76 281.23 188.25C269.82 180.25 262.23 182.57 258.12 184.99C251.63 188.83 255.08 198.01 255.08 198.01Z" fill="#AD91C4"/>
<path d="M254.76 189.02C253.26 193.14 255.08 198.02 255.08 198.02C255.08 198.02 258.52 207.23 265.91 205.87C270.62 205 277.85 201.77 281.23 188.26C281.23 188.25 263.45 202.27 254.76 189.02Z" fill="#764FA0"/>
<path d="M255.08 198.009C255.08 198.009 252.45 207.489 244.97 206.759C240.2 206.299 232.72 203.71 228.19 190.54C238.86 181.6 246.61 183.239 250.93 185.299C257.71 188.539 255.08 198.009 255.08 198.009Z" fill="#AD91C4"/>
<path d="M254.63 189.029C256.48 193.029 255.09 198.029 255.09 198.029C255.09 198.029 252.46 207.509 244.98 206.779C240.21 206.319 232.73 203.729 228.2 190.559C228.19 190.539 247.11 202.979 254.63 189.029Z" fill="#764FA0"/>
<path d="M255.08 207.159C260.133 207.159 264.23 203.063 264.23 198.009C264.23 192.956 260.133 188.859 255.08 188.859C250.027 188.859 245.93 192.956 245.93 198.009C245.93 203.063 250.027 207.159 255.08 207.159Z" fill="#673994"/>
<path d="M351.25 106.07C351.25 106.07 341.53 104.59 339.13 111.72C337.6 116.25 336.9 124.14 347.05 133.72C359.58 127.64 361.26 119.9 361.14 115.11C360.97 107.55 351.25 106.07 351.25 106.07Z" fill="#AD91C4"/>
<path d="M359.26 110.17C356.39 106.86 351.26 106.07 351.26 106.07C351.26 106.07 341.54 104.59 339.14 111.72C337.61 116.25 336.91 124.14 347.06 133.72C347.05 133.67 343.45 111.31 359.26 110.17Z" fill="#764FA0"/>
<path d="M359.26 110.17C356.39 106.86 351.26 106.07 351.26 106.07C351.26 106.07 341.54 104.59 339.14 111.72C338.103 114.719 337.975 117.958 338.77 121.03C338.77 121.03 340.94 103.05 359.26 110.17Z" fill="#673994"/>
<path d="M350.26 106.83C350.26 106.83 351.97 116.51 344.9 119.08C340.4 120.71 332.53 121.6 322.77 111.67C328.55 98.9996 336.25 97.1396 341.04 97.1396C348.56 97.1496 350.26 106.83 350.26 106.83Z" fill="#AD91C4"/>
<path d="M345.97 98.9199C349.36 101.72 350.26 106.84 350.26 106.84C350.26 106.84 351.97 116.52 344.9 119.09C340.4 120.72 332.53 121.61 322.77 111.68C322.77 111.68 345.21 114.75 345.97 98.9199Z" fill="#764FA0"/>
<path d="M350.38 106.28C350.38 106.28 357.55 112.99 363.56 108.48C367.39 105.61 372.43 99.4797 369.45 85.8997C355.68 83.8197 349.92 89.2497 347.3 93.2597C343.2 99.5597 350.38 106.28 350.38 106.28Z" fill="#AD91C4"/>
<path d="M346.09 98.3594C346.58 102.719 350.38 106.279 350.38 106.279C350.38 106.279 357.55 112.989 363.56 108.479C367.39 105.609 372.43 99.4794 369.45 85.8994C369.45 85.8994 359.77 106.369 346.09 98.3594Z" fill="#764FA0"/>
<path d="M350.38 106.28C350.38 106.28 358.98 101.53 356.55 94.4098C355 89.8798 350.75 83.1998 336.89 81.8398C330.66 94.2898 334.04 101.45 337.05 105.18C341.77 111.03 350.38 106.28 350.38 106.28Z" fill="#AD91C4"/>
<path d="M341.52 107.9C345.82 108.78 350.38 106.28 350.38 106.28C350.38 106.28 358.98 101.53 356.55 94.4098C355 89.8798 350.75 83.1998 336.89 81.8398C336.89 81.8298 353.36 97.3699 341.52 107.9Z" fill="#764FA0"/>
<path d="M341.52 107.9C345.82 108.78 350.38 106.28 350.38 106.28C350.38 106.28 358.98 101.53 356.55 94.4096C355.542 91.403 353.671 88.7598 351.17 86.8096C351.17 86.8096 360.39 102.39 341.52 107.9Z" fill="#673994"/>
<path d="M350.38 106.28C350.38 106.28 346.2 115.18 352.38 119.5C356.3 122.25 363.67 125.16 375.68 118.12C373.4 104.38 366.45 100.58 361.83 99.3296C354.55 97.3696 350.38 106.28 350.38 106.28Z" fill="#AD91C4"/>
<path d="M356.63 99.7598C352.63 101.57 350.43 106.28 350.43 106.28C350.43 106.28 346.25 115.18 352.43 119.5C356.35 122.25 363.72 125.16 375.73 118.12C375.63 118.12 353.19 115.23 356.63 99.7598Z" fill="#764FA0"/>
<path d="M350.38 106.28C350.38 106.28 341.77 111.03 337.05 105.18C334.05 101.45 330.66 94.2898 336.89 81.8398C350.75 83.1998 355 89.8398 356.55 94.4098C358.98 101.53 350.38 106.28 350.38 106.28Z" fill="#AD91C4"/>
<path d="M356.47 99.6499C354.93 103.76 350.38 106.28 350.38 106.28C350.38 106.28 341.77 111.03 337.05 105.18C334.05 101.45 330.66 94.2898 336.89 81.8398C336.89 81.8298 341.25 104.06 356.47 99.6499Z" fill="#764FA0"/>
<path d="M350.37 115.43C355.423 115.43 359.52 111.333 359.52 106.28C359.52 101.226 355.423 97.1299 350.37 97.1299C345.317 97.1299 341.22 101.226 341.22 106.28C341.22 111.333 345.317 115.43 350.37 115.43Z" fill="#673994"/>
<path d="M322.41 624.929C324.326 624.929 325.88 623.376 325.88 621.459C325.88 619.543 324.326 617.989 322.41 617.989C320.494 617.989 318.94 619.543 318.94 621.459C318.94 623.376 320.494 624.929 322.41 624.929Z" fill="#F6FAFE"/>
<path d="M338.24 179.49C339.477 179.49 340.48 178.487 340.48 177.25C340.48 176.013 339.477 175.01 338.24 175.01C337.003 175.01 336 176.013 336 177.25C336 178.487 337.003 179.49 338.24 179.49Z" fill="#F6FAFE"/>
<path d="M367.6 63.2495C368.837 63.2495 369.84 62.2466 369.84 61.0095C369.84 59.7724 368.837 58.7695 367.6 58.7695C366.363 58.7695 365.36 59.7724 365.36 61.0095C365.36 62.2466 366.363 63.2495 367.6 63.2495Z" fill="#F6FAFE"/>
<path d="M283.77 300.12C285.007 300.12 286.01 299.117 286.01 297.88C286.01 296.643 285.007 295.64 283.77 295.64C282.533 295.64 281.53 296.643 281.53 297.88C281.53 299.117 282.533 300.12 283.77 300.12Z" fill="#F6FAFE"/>
</g>
<defs>
<clipPath id="clip0_4845_2592">
<rect width="408.88" height="909.44" fill="white"/>
</clipPath>
</defs>
</svg>
