<svg width="408" height="492" viewBox="0 0 408 492" fill="none" xmlns="http://www.w3.org/2000/svg">
<g clip-path="url(#clip0_4857_3521)">
<path d="M203.82 491.32C316.387 491.32 407.64 469.202 407.64 441.92C407.64 414.637 316.387 392.52 203.82 392.52C91.2533 392.52 0 414.637 0 441.92C0 469.202 91.2533 491.32 203.82 491.32Z" fill="#A7A9AC"/>
<path d="M307.07 34.1499C305.004 30.8762 301.753 28.5279 297.995 27.596C294.238 26.6642 290.266 27.221 286.91 29.1499C258.39 45.5299 235.58 70.8099 219.13 104.31C214.195 114.431 209.942 124.871 206.4 135.56C201.27 117.81 194.438 100.597 186 84.1599C166.87 47.3799 140.59 19.6799 107.88 1.84994C104.56 0.0351487 100.677 -0.458057 97.0091 0.469172C93.341 1.3964 90.1588 3.67556 88.1001 6.84994C86.8701 8.74994 58.3501 54.4099 84.4601 141.53L84.5301 141.76C85.5301 144.97 86.5301 148.24 87.6301 151.5L87.7301 151.81C88.8401 155.09 90.0201 158.44 91.2601 161.81L91.4101 162.2C92.6701 165.58 94.0201 169.04 95.4101 172.48L95.5601 172.84C96.2601 174.56 96.9901 176.3 97.7201 178.04L97.8801 178.41C98.6134 180.123 99.3667 181.853 100.14 183.6L100.23 183.79C101.01 185.54 101.81 187.32 102.64 189.11L102.93 189.73C104.58 193.29 106.32 196.91 108.11 200.51L108.51 201.31C110.3 204.91 112.21 208.6 114.17 212.31L114.64 213.19C115.64 215.04 116.64 216.89 117.64 218.72L117.87 219.13C118.837 220.903 119.837 222.68 120.87 224.46L121.37 225.34C122.43 227.2 123.52 229.08 124.63 230.96L125.11 231.78C126.11 233.53 127.19 235.28 128.26 237.05L128.7 237.79C129.86 239.69 131.037 241.597 132.23 243.51L132.92 244.61C134.067 246.443 135.24 248.293 136.44 250.16L136.68 250.55C137.94 252.5 139.22 254.47 140.52 256.44L141.34 257.68C143.96 261.68 146.71 265.68 149.52 269.68L150.42 270.99C151.83 272.99 153.25 274.99 154.71 277.06L155.2 277.74C156.54 279.61 157.9 281.48 159.27 283.37L160.2 284.64C161.7 286.64 163.2 288.72 164.76 290.78L165.6 291.9C167 293.75 168.41 295.62 169.84 297.48L170.69 298.59L173.12 301.73V426.92C173.12 430.898 174.7 434.713 177.513 437.527C180.327 440.34 184.142 441.92 188.12 441.92H222.51C224.48 441.92 226.43 441.532 228.25 440.778C230.07 440.024 231.724 438.919 233.117 437.527C234.51 436.134 235.614 434.48 236.368 432.66C237.122 430.84 237.51 428.89 237.51 426.92V298.37L238.21 297.37C239.45 295.67 240.67 293.98 241.88 292.28L242.59 291.28C243.92 289.41 245.22 287.56 246.51 285.71L247.29 284.57C248.477 282.857 249.647 281.157 250.8 279.47L251.22 278.85C252.47 277 253.69 275.18 254.89 273.35L255.66 272.19C258.06 268.54 260.42 264.87 262.66 261.26L263.36 260.15C264.48 258.363 265.577 256.587 266.65 254.82L266.87 254.45C267.87 252.77 268.87 251.1 269.87 249.45L270.45 248.45C271.477 246.71 272.477 244.98 273.45 243.26L273.84 242.58C274.76 240.98 275.65 239.4 276.53 237.82L276.95 237.08C277.903 235.367 278.833 233.67 279.74 231.99L280.17 231.19C281.043 229.57 281.893 227.97 282.72 226.39L282.91 226.02C283.79 224.333 284.653 222.667 285.5 221.02L285.9 220.22C287.57 216.91 289.2 213.57 290.73 210.31L291.08 209.57C292.6 206.33 294.08 203.05 295.49 199.84L295.75 199.25C296.46 197.63 297.14 196.03 297.81 194.45L297.89 194.25C298.54 192.68 299.18 191.12 299.8 189.59L299.94 189.24C300.58 187.65 301.19 186.08 301.78 184.55L301.92 184.2C303.11 181.09 304.26 177.96 305.33 174.9L305.45 174.54C306.5 171.54 307.51 168.54 308.45 165.54L308.54 165.26C309.47 162.26 310.35 159.35 311.15 156.49L311.21 156.29C333.41 77.2599 308.16 35.8599 307.07 34.1499Z" fill="#231F20"/>
<path d="M222.52 206.22H188.13V426.91H222.52V206.22Z" fill="#66BE64"/>
<path d="M205.81 315.15L294.38 42.1504C178.45 108.7 205.81 315.15 205.81 315.15Z" fill="#66BE64"/>
<path d="M294.38 42.1504L205.81 315.15C351.42 132.66 294.38 42.1504 294.38 42.1504Z" fill="#4CA84E"/>
<g style="mix-blend-mode:multiply">
<path d="M207.19 199.43C198.71 261.15 205.81 315.15 205.81 315.15C262.38 244.25 288.36 187.24 298.98 144.01C222.92 221.15 207.19 199.43 207.19 199.43Z" fill="#4CA84E"/>
</g>
<path d="M205.43 317.78L100.71 15C235.24 88.35 205.43 317.78 205.43 317.78Z" fill="#66BE64"/>
<path d="M100.71 15L205.43 317.78C35.5901 115.82 100.71 15 100.71 15Z" fill="#4CA84E"/>
<g style="mix-blend-mode:multiply">
<path d="M202.83 189.25C213.22 257.72 205.42 317.75 205.42 317.75C139.46 239.32 108.94 176.15 96.2798 128.15C184.84 213.4 202.83 189.25 202.83 189.25Z" fill="#4CA84E"/>
</g>
<path d="M160.954 108.973C167.613 105.706 168.027 92.8969 161.878 80.3621C155.729 67.8272 145.346 60.3138 138.687 63.5804C132.028 66.847 131.614 79.6566 137.763 92.1915C143.912 104.726 154.295 112.24 160.954 108.973Z" fill="white"/>
<path d="M172.62 122.439C176.348 122.439 179.37 119.417 179.37 115.689C179.37 111.962 176.348 108.939 172.62 108.939C168.892 108.939 165.87 111.962 165.87 115.689C165.87 119.417 168.892 122.439 172.62 122.439Z" fill="white"/>
</g>
<defs>
<clipPath id="clip0_4857_3521">
<rect width="407.65" height="491.32" fill="white"/>
</clipPath>
</defs>
</svg>
