<svg width="408" height="371" viewBox="0 0 408 371" fill="none" xmlns="http://www.w3.org/2000/svg">
<g clip-path="url(#clip0_4845_3015)">
<path d="M203.82 370.071C316.387 370.071 407.64 347.953 407.64 320.671C407.64 293.388 316.387 271.271 203.82 271.271C91.2533 271.271 0 293.388 0 320.671C0 347.953 91.2533 370.071 203.82 370.071Z" fill="#A7A9AC"/>
<path d="M145.383 90.0124C148.155 82.6588 141.774 73.4435 131.128 69.4294C120.483 65.4153 109.605 68.1225 106.832 75.4761C104.059 82.8297 110.441 92.0451 121.087 96.0592C131.732 100.073 142.61 97.366 145.383 90.0124Z" fill="#F6FAFE"/>
<path d="M157.92 97.4802C162.83 97.4802 166.81 93.5 166.81 88.5902C166.81 83.6804 162.83 79.7002 157.92 79.7002C153.01 79.7002 149.03 83.6804 149.03 88.5902C149.03 93.5 153.01 97.4802 157.92 97.4802Z" fill="#F6FAFE"/>
<path d="M386.92 108.03C387.27 107.37 387.62 106.7 387.92 106.03C388.22 105.36 388.64 104.55 388.98 103.81C389.52 102.65 389.98 101.48 390.5 100.3C390.9 99.3 391.28 98.3 391.64 97.3C391.93 96.4901 392.2 95.67 392.46 94.86C392.72 94.05 392.92 93.3801 393.14 92.6301C395.195 85.4828 396.152 78.0649 395.98 70.6301C395.98 69.8701 395.92 69.1001 395.88 68.3301C395.434 60.6147 393.808 53.0132 391.06 45.79C390.89 45.32 390.71 44.8601 390.52 44.3901C390.08 43.2901 389.62 42.1801 389.13 41.0801C387.167 36.7249 384.75 32.5887 381.92 28.7401C369.09 11.2801 348.92 1.67004 325.23 1.67004C294.23 1.67004 261.37 17.8401 232.59 47.2001C219.43 60.8482 209.018 76.8996 201.92 94.48C194.591 76.4206 183.806 59.9661 170.17 46.04C140.7 16.39 107.09 0.0400391 75.54 0.0400391C51.54 0.0400391 31.14 9.65004 18.16 27.04C15.2823 30.9096 12.8219 35.0728 10.82 39.4601C8.74597 44.0144 7.09893 48.7514 5.90005 53.61C5.81006 53.94 5.73003 54.28 5.66003 54.61C4.74905 58.5216 4.16371 62.5019 3.91003 66.5101C3.91003 66.6701 3.91003 66.83 3.91003 66.9901C3.83003 68.3234 3.79004 69.6567 3.79004 70.9901V71.05C3.80081 75.6328 4.2529 80.204 5.14005 84.7001L5.50006 86.4301C6.06911 88.9889 6.77342 91.5158 7.61005 94.0001C7.60437 94.0264 7.60437 94.0537 7.61005 94.0801C9.03947 98.3076 10.812 102.411 12.91 106.35C27.43 133.69 58.28 155.02 91.5201 160.69L92.5201 160.87C93.1867 160.977 93.8367 161.097 94.47 161.23L97.1501 161.77L97.7701 161.9C99.7701 162.34 101.81 162.827 103.89 163.36L104.09 163.41C126.63 169.2 151.68 180 169.76 188.59H169.82L171.61 189.45V310.82C171.61 314.798 173.19 318.614 176.003 321.427C178.816 324.24 182.632 325.82 186.61 325.82H221C224.978 325.82 228.794 324.24 231.607 321.427C234.42 318.614 236 314.798 236 310.82V187.68C256.89 177.75 286.3 165.34 310.16 161.27C338.28 156.48 364.73 140.03 380.56 118.15C381.33 117.07 382.08 115.99 382.81 114.89C384.3 112.65 385.67 110.36 386.92 108.03Z" fill="#231F20"/>
<path d="M221.02 140.95H186.63V310.81H221.02V140.95Z" fill="#66BE64"/>
<path d="M369.86 37.56C346.86 6.26998 292.27 7.72 243.34 57.64C194.61 107.37 201.98 188.17 201.98 188.17C201.98 188.17 249.61 67.92 369.86 37.56Z" fill="#66BE64"/>
<g style="mix-blend-mode:multiply">
<path d="M369.86 37.5605C249.61 67.9205 201.98 188.171 201.98 188.171C201.98 188.171 262.98 154.111 307.66 146.491C352.34 138.871 397.08 95.2705 375.48 47.1705C373.95 43.7783 372.066 40.5572 369.86 37.5605Z" fill="#4CA84E"/>
</g>
<g style="mix-blend-mode:multiply">
<path d="M375.48 47.1699C375.48 47.1699 331.84 138.05 204.48 141.11C201.861 156.651 201.028 172.44 202 188.17C202 188.17 263 154.11 307.68 146.49C352.36 138.87 397.1 95.2699 375.5 47.1699H375.48Z" fill="#4CA84E"/>
</g>
<path d="M30.23 36.0099C53.61 4.55986 109.44 6.12984 159.61 56.5598C209.54 106.78 202.2 188.17 202.2 188.17C202.2 188.17 153.21 66.8899 30.23 36.0099Z" fill="#66BE64"/>
<g style="mix-blend-mode:multiply">
<path d="M30.23 36.0098C153.23 66.8898 202.15 188.17 202.15 188.17C202.15 188.17 139.78 153.7 94.06 145.91C48.34 138.12 2.61002 94.0797 24.51 45.6697C26.0678 42.2555 27.9854 39.0173 30.23 36.0098Z" fill="#4CA84E"/>
</g>
<g style="mix-blend-mode:multiply">
<path d="M24.5102 45.6699C24.5102 45.6699 69.3302 137.35 199.51 140.75C204.02 167.59 202.16 188.17 202.16 188.17C202.16 188.17 139.79 153.7 94.0702 145.91C48.3502 138.12 2.61017 94.0799 24.5102 45.6699Z" fill="#4CA84E"/>
</g>
<path d="M115.008 47.8575C118.937 41.0514 114.135 30.9225 104.283 25.2339C94.4297 19.5454 83.2569 20.4514 79.3274 27.2575C75.3979 34.0636 80.1997 44.1925 90.0525 49.881C99.9053 55.5696 111.078 54.6636 115.008 47.8575Z" fill="#F6FAFE"/>
<path d="M128.73 58.2702C133.64 58.2702 137.62 54.29 137.62 49.3802C137.62 44.4704 133.64 40.4902 128.73 40.4902C123.82 40.4902 119.84 44.4704 119.84 49.3802C119.84 54.29 123.82 58.2702 128.73 58.2702Z" fill="#F6FAFE"/>
<path d="M221.02 140.95H186.63V310.81H221.02V140.95Z" fill="#66BE64"/>
<path d="M369.86 37.56C346.86 6.26998 292.27 7.72 243.34 57.64C194.61 107.37 201.98 188.17 201.98 188.17C201.98 188.17 249.61 67.92 369.86 37.56Z" fill="#66BE64"/>
<path d="M369.86 37.5605C249.61 67.9205 201.98 188.171 201.98 188.171C201.98 188.171 262.98 154.111 307.66 146.491C352.34 138.871 397.08 95.2705 375.48 47.1705C373.95 43.7783 372.066 40.5572 369.86 37.5605Z" fill="#4CA84E"/>
<g style="mix-blend-mode:multiply">
<path d="M375.48 47.1699C375.48 47.1699 331.84 138.05 204.48 141.11C201.861 156.651 201.028 172.44 202 188.17C202 188.17 263 154.11 307.68 146.49C352.36 138.87 397.1 95.2699 375.5 47.1699H375.48Z" fill="#4CA84E"/>
</g>
<path d="M30.23 36.0099C53.61 4.55986 109.44 6.12984 159.61 56.5598C209.54 106.78 202.2 188.17 202.2 188.17C202.2 188.17 153.21 66.8899 30.23 36.0099Z" fill="#66BE64"/>
<path d="M30.23 36.0098C153.23 66.8898 202.15 188.17 202.15 188.17C202.15 188.17 139.78 153.7 94.06 145.91C48.34 138.12 2.61002 94.0797 24.51 45.6697C26.0678 42.2555 27.9854 39.0173 30.23 36.0098Z" fill="#4CA84E"/>
<g style="mix-blend-mode:multiply">
<path d="M24.5102 45.6699C24.5102 45.6699 69.3302 137.35 199.51 140.75C204.02 167.59 202.16 188.17 202.16 188.17C202.16 188.17 139.79 153.7 94.0702 145.91C48.3502 138.12 2.61017 94.0799 24.5102 45.6699Z" fill="#4CA84E"/>
</g>
<path d="M115.008 47.8575C118.937 41.0514 114.135 30.9225 104.283 25.2339C94.4297 19.5454 83.2569 20.4514 79.3274 27.2575C75.3979 34.0636 80.1997 44.1925 90.0525 49.881C99.9053 55.5696 111.078 54.6636 115.008 47.8575Z" fill="#F6FAFE"/>
<path d="M128.73 58.2702C133.64 58.2702 137.62 54.29 137.62 49.3802C137.62 44.4704 133.64 40.4902 128.73 40.4902C123.82 40.4902 119.84 44.4704 119.84 49.3802C119.84 54.29 123.82 58.2702 128.73 58.2702Z" fill="#F6FAFE"/>
</g>
<defs>
<clipPath id="clip0_4845_3015">
<rect width="407.65" height="370.07" fill="white"/>
</clipPath>
</defs>
</svg>
