<svg width="641" height="641" viewBox="0 0 641 641" fill="none" xmlns="http://www.w3.org/2000/svg">
<g clip-path="url(#clip0_6378_622)">
<path d="M320.389 640.78C318.499 640.78 316.609 640.78 314.729 640.78L311.529 640.7L309.049 640.62L307.049 640.55L304.439 640.43L301.359 640.26C299.979 640.18 298.609 640.09 297.239 639.99L295.729 639.89C293.819 639.74 292.009 639.59 290.199 639.42L286.799 639.08L284.649 638.85L282.359 638.58L279.989 638.29L277.119 637.91C275.869 637.75 274.619 637.57 273.379 637.39L271.379 637.09C269.899 636.864 268.429 636.624 266.969 636.37L266.189 636.25L262.409 635.57L260.729 635.26L259.249 634.97L256.129 634.36L253.559 633.82C252.319 633.55 251.089 633.29 249.859 633.01L247.659 632.51C246.479 632.24 245.319 631.96 244.159 631.67L242.749 631.33L241.059 630.9L239.529 630.5C237.069 629.86 234.889 629.27 232.889 628.71L230.759 628.08C229.459 627.71 228.159 627.32 226.869 626.93L225.719 626.58L224.569 626.22C223.569 625.9 222.519 625.57 221.499 625.22L219.949 624.73L218.189 624.14L214.809 622.99L210.899 621.59L209.229 620.98C207.579 620.37 206.019 619.77 204.469 619.17L202.139 618.26L199.329 617.12L197.579 616.4L196.119 615.79L193.029 614.47C191.829 613.95 190.639 613.47 189.459 612.9L188.149 612.31C186.379 611.51 184.639 610.69 182.889 609.87L180.599 608.73L177.989 607.45L176.419 606.66L174.849 605.87L172.099 604.45L168.699 602.64L167.129 601.79C165.279 600.79 163.469 599.79 161.659 598.73L159.919 597.73L157.499 596.32L157.109 596.08L154.839 594.73L152.169 593.1C151.009 592.38 149.869 591.67 148.739 590.95L146.989 589.84C145.289 588.74 143.593 587.62 141.899 586.48L140.179 585.31C138.739 584.33 137.309 583.33 135.889 582.31L134.369 581.23L133.369 580.5L129.699 577.82L127.879 576.46C126.299 575.27 124.709 574.05 123.139 572.82L121.489 571.51C120.229 570.51 118.969 569.51 117.729 568.51L116.169 567.24C114.643 565.98 113.129 564.704 111.629 563.41L109.819 561.84C108.339 560.54 106.819 559.24 105.399 557.91C105.049 557.6 104.699 557.27 104.339 556.91L103.879 556.48C102.739 555.48 101.599 554.38 100.479 553.32L98.7492 551.73C97.3292 550.37 95.9492 549.02 94.5792 547.65L92.8292 545.9C91.6492 544.707 90.4759 543.507 89.3092 542.3C88.6692 541.64 88.0392 540.97 87.4092 540.3C86.3426 539.167 85.2792 538.027 84.2192 536.88L84.0992 536.74C83.5792 536.18 83.0992 535.61 82.5492 535.04C81.2592 533.62 79.9992 532.19 78.7392 530.75L77.3192 529.11L77.0992 528.85C76.0992 527.69 75.0992 526.53 74.0992 525.35L72.2592 523.13C71.2592 521.85 70.1792 520.57 69.1592 519.27L67.5692 517.27C66.3892 515.75 65.2192 514.27 64.0792 512.71C63.7092 512.23 63.3492 511.71 62.9792 511.24L62.6092 510.74C61.7359 509.56 60.8726 508.377 60.0192 507.19L59.6092 506.61L58.6792 505.32C46.1176 487.558 35.3957 468.563 26.6792 448.63V448.55C1.09084 389.84 -6.32268 324.811 5.39467 261.847C17.112 198.884 47.4229 140.875 92.4185 95.3005C137.414 49.7258 195.031 18.6758 257.839 6.15446C320.648 -6.36688 385.767 0.214693 444.799 25.0504H444.889C447.159 26.0504 449.509 27.0504 451.889 28.1004L452.259 28.2604C456.909 30.3604 461.579 32.6104 466.129 34.9404H466.209C468.369 36.0504 470.579 37.2104 472.809 38.4204L473.119 38.5904C477.649 41.0504 482.119 43.5904 486.419 46.2304L486.589 46.3304C488.589 47.5604 490.689 48.8604 492.789 50.2004L493.199 50.4604C497.469 53.2004 501.679 56.0504 505.759 58.9404L506.079 59.1704C507.979 60.5304 509.889 61.9204 511.769 63.3304L513.029 64.2604C515.409 66.0604 517.869 67.9704 520.339 69.9404L520.869 70.3704C521.929 71.2204 522.999 72.0904 524.059 72.9604L524.589 73.4004C526.289 74.8104 528.019 76.2704 529.699 77.7204L530.389 78.3204C534.109 81.5504 537.769 84.8804 541.279 88.2204L542.279 89.1504C543.759 90.5704 545.169 91.9504 546.569 93.3404L547.429 94.2004C550.819 97.6104 554.179 101.14 557.429 104.67L558.289 105.62C559.619 107.1 560.959 108.62 562.289 110.12L563.219 111.2C566.339 114.82 569.399 118.53 572.319 122.2L573.319 123.42C574.489 124.91 575.649 126.42 576.789 127.95L577.789 129.28C580.599 133.07 583.359 136.95 585.989 140.83L586.989 142.31C587.996 143.817 588.996 145.337 589.989 146.87L590.989 148.43C593.519 152.43 595.989 156.43 598.289 160.43L599.289 162.12C600.159 163.65 601.019 165.2 601.869 166.75C601.869 166.75 602.589 168.06 602.869 168.52C604.069 170.75 605.119 172.74 606.069 174.6L606.129 174.71C607.129 176.61 608.129 178.61 609.249 181L610.129 182.86C610.879 184.43 611.609 186 612.329 187.59C612.329 187.59 612.959 188.95 613.189 189.49C614.249 191.84 615.189 193.95 615.999 195.93C616.049 196.05 616.099 196.16 616.139 196.27C616.909 198.11 617.699 200.06 618.619 202.37L619.369 204.31C619.999 205.92 620.609 207.52 621.199 209.13L621.919 211.13C622.719 213.32 623.429 215.36 624.119 217.38L624.629 218.92L624.849 219.62C625.319 221.02 625.779 222.43 626.219 223.85C626.529 224.85 626.849 225.85 627.149 226.85C627.509 228.04 627.859 229.22 628.209 230.41C628.756 232.324 629.293 234.234 629.819 236.14L630.019 236.9C630.229 237.65 630.429 238.4 630.629 239.16C630.989 240.55 631.329 241.93 631.679 243.32C631.859 244.04 632.029 244.76 632.199 245.49C632.559 246.99 632.919 248.49 633.199 250.01L633.339 250.65C634.129 254.18 634.859 257.76 635.519 261.32V261.44C635.859 263.26 636.193 265.087 636.519 266.92L636.599 267.41C637.519 273 638.309 278.66 638.939 284.26V284.43C640.264 296.325 640.932 308.283 640.939 320.25C640.939 322.3 640.939 324.34 640.879 326.39C640.265 360.767 634.102 394.819 622.629 427.23C622.629 427.33 622.559 427.43 622.529 427.53C621.809 429.53 621.069 431.53 620.319 433.53L619.579 435.43C619.049 436.83 618.509 438.2 617.959 439.56L617.099 441.7C616.539 443.07 615.959 444.43 615.379 445.79C615.379 445.79 614.759 447.27 614.579 447.67C613.793 449.497 612.983 451.317 612.149 453.13C611.879 453.73 611.589 454.34 611.309 454.95L610.979 455.64C610.499 456.64 609.979 457.71 609.529 458.73C609.079 459.75 608.529 460.73 608.089 461.67C607.649 462.61 607.259 463.35 606.839 464.18L606.769 464.33L605.219 467.33L604.409 468.87C603.079 471.4 601.719 473.87 600.339 476.37L599.879 477.2C599.119 478.55 598.359 479.87 597.599 481.2L596.949 482.3C596.149 483.66 595.339 485.03 594.509 486.39L594.379 486.6C591.629 491.12 588.729 495.6 585.749 500.01C585.722 500.061 585.688 500.108 585.649 500.15C584.649 501.57 583.649 503.05 582.649 504.52C577.779 511.42 572.649 518.11 567.459 524.4C567.339 524.55 567.219 524.7 567.089 524.84C516.011 586.65 443.547 626.978 364.099 637.81C356.969 638.81 349.719 639.53 342.569 640.02H342.059L337.509 640.29L336.189 640.36L332.379 640.52L330.779 640.58C329.546 640.62 328.306 640.65 327.059 640.67H325.559C323.839 640.73 322.119 640.78 320.389 640.78Z" fill="#231F20"/>
<path d="M625.75 320.39C625.75 322.39 625.75 324.28 625.69 326.22C625.108 359.094 619.201 391.656 608.2 422.64C596.265 456.284 578.512 487.57 555.75 515.07C527.117 549.745 491.165 577.653 450.474 596.794C409.782 615.935 365.359 625.834 320.39 625.78C151.73 625.78 15 489.05 15 320.39C15 151.73 151.75 15 320.39 15C447.05 15 555.7 92.11 601.96 201.94C617.724 239.437 625.813 279.714 625.75 320.39Z" fill="#F06043"/>
<path d="M601.96 201.949C570.938 128.496 512.511 70.0253 439.08 38.9492C451.863 56.987 462.646 76.3608 471.24 96.7292C487.014 134.221 495.113 174.494 495.06 215.169C495.06 217.119 495.06 219.059 495 220.999C494.418 253.873 488.512 286.435 477.51 317.419C465.55 351.065 447.769 382.348 424.98 409.839C383.112 460.394 326.081 496.129 262.327 511.756C198.573 527.383 131.482 522.072 70.9805 496.609C126.29 574.729 217.37 625.719 320.37 625.719C365.323 625.774 409.73 615.883 450.411 596.757C491.091 577.63 527.036 549.742 555.67 515.089C578.459 487.598 596.24 456.315 608.2 422.669C619.225 391.679 625.152 359.107 625.75 326.219C625.75 324.279 625.81 322.339 625.81 320.389C625.854 279.712 617.744 239.439 601.96 201.949Z" fill="#E83F23"/>
<path d="M550.75 119.871C534.713 101.463 516.538 85.0335 496.61 70.9309C356.64 16.0609 227.75 140.281 227.75 140.281L320.4 166.941C408.04 83.6409 507.28 104.571 550.75 119.871Z" fill="#F48873"/>
<path d="M504.44 76.7304C501.85 74.7304 499.24 72.8504 496.58 70.9704C356.64 16.0604 227.75 140.28 227.75 140.28L245.26 145.28L275.91 141.28C275.91 141.28 378.02 44.2804 504.44 76.7304Z" fill="#F8AFA3"/>
<path d="M246.99 129.561C178.87 124.961 73.1699 169.391 44.8299 256.711C26.7699 312.351 23.3399 377.961 40.4699 442.611C87.6099 550.431 195.19 625.781 320.39 625.781C334.331 625.781 348.257 624.836 362.07 622.951C108.5 600.951 77.8499 407.491 76.9099 344.271C75.9099 279.941 109.68 177.271 237.72 175.421C364.72 173.581 396.93 247.781 388.89 320.421C381.42 387.871 326.02 420.671 254.61 417.421C207.91 415.311 179.8 382.921 181.44 332.991C183.05 283.991 224.99 262.401 253.07 262.401C283.63 262.401 300.66 278.141 298.83 307.261C296.51 344.261 269.89 347.461 269.89 347.461C269.89 347.461 315.67 360.361 325.63 305.331C335.72 249.561 299.9 232.951 265.43 226.821C230.96 220.691 160.49 223.101 138.28 320.381C116.07 417.661 205.68 465.811 254.75 463.511C303.82 461.211 403.35 457.601 424.03 320.391C444.71 183.181 315.11 134.151 246.99 129.561Z" fill="#F48873"/>
<path d="M323.341 264.32C313.911 240.39 289.341 231.08 265.431 226.83C230.961 220.71 160.491 223.11 138.281 320.39C132.651 345.06 134.211 366.57 140.481 384.9C154.361 311.9 161.321 303.13 179.091 277.5C229.071 205.39 323.341 264.32 323.341 264.32Z" fill="#F8AFA3"/>
<path d="M246.991 129.561C178.871 124.961 73.1706 169.391 44.8306 256.711C32.7446 294.51 27.6347 334.193 29.7506 373.821C33.3506 346.571 67.6307 184.181 192.671 158.661C327.961 131.061 415.961 237.911 416.951 239.111C388.241 162.961 299.421 133.091 246.991 129.561Z" fill="#F8AFA3"/>
<path d="M625.75 320.389C625.75 322.389 625.75 324.279 625.69 326.219C595.79 349.919 551.75 373.919 508.21 357.809C431.64 329.489 434.75 270.489 437.75 235.479C440.75 200.469 472.98 163.259 517.41 181.639C561.84 200.019 532.66 235.729 532.66 235.729C532.66 235.729 532.66 201.959 497.44 207.989C454.64 215.319 468.16 287.589 505.88 299.049C546.78 311.469 601.96 308.099 601.96 201.969C617.72 239.457 625.81 279.723 625.75 320.389Z" fill="#F48873"/>
<path d="M601.959 201.949C601.959 308.079 546.779 311.449 505.879 299.029C497.259 296.409 489.879 290.609 484.199 283.139C484.199 283.139 495.199 333.299 572.579 315.679C592.281 311.329 610.18 301.052 623.869 286.229C620.657 257.228 613.278 228.843 601.959 201.949Z" fill="#F8AFA3"/>
<path d="M608.231 422.65C596.286 456.292 578.523 487.574 555.751 515.07C513.081 544.97 462.351 542.38 428.371 512.29C398.061 485.54 397.751 459.78 401.751 429.49C405.751 399.2 436.511 366.27 469.291 369.73C504.091 373.39 516.291 386.22 513.821 418.23C510.751 457.56 470.101 451.73 470.101 451.73C470.101 451.73 494.451 435.29 489.851 410.35C485.251 385.41 440.451 389.85 436.571 429.11C432.411 471.19 452.381 486.03 494.451 491.11C530.751 495.48 577.051 455.39 608.231 422.65Z" fill="#F48873"/>
<path d="M494.451 491.089C461.651 487.089 442.291 477.229 437.321 453.089L436.571 452.819C436.571 452.819 434.221 493.619 494.961 504.319C521.871 509.069 548.681 503.589 570.211 496.029C586.159 473.399 598.944 448.698 608.211 422.609C577.051 455.389 530.751 495.479 494.451 491.089Z" fill="#F8AFA3"/>
<path d="M267.507 592.706C274.895 578.465 261.014 556.611 236.502 543.894C211.99 531.178 186.129 532.414 178.741 546.655C171.353 560.896 185.234 582.75 209.746 595.467C234.258 608.184 260.118 606.947 267.507 592.706Z" fill="white"/>
<path d="M293.29 586.52C300.641 586.52 306.6 580.561 306.6 573.21C306.6 565.859 300.641 559.9 293.29 559.9C285.94 559.9 279.98 565.859 279.98 573.21C279.98 580.561 285.94 586.52 293.29 586.52Z" fill="white"/>
<path d="M185.6 97.546C202.45 87.8175 212.4 73.5063 207.825 65.581C203.249 57.6557 185.88 59.1174 169.03 68.8459C152.179 78.5744 142.229 92.8857 146.805 100.811C151.38 108.736 168.749 107.275 185.6 97.546Z" fill="white"/>
<path d="M229.072 81.9309C235.368 81.9309 240.472 76.8269 240.472 70.5309C240.472 64.2348 235.368 59.1309 229.072 59.1309C222.776 59.1309 217.672 64.2348 217.672 70.5309C217.672 76.8269 222.776 81.9309 229.072 81.9309Z" fill="white"/>
<path d="M586.441 449.401C597.15 426.181 597.795 403.65 587.88 399.078C577.965 394.505 561.245 409.621 550.536 432.841C539.826 456.061 539.182 478.592 549.097 483.165C559.012 487.738 575.731 472.621 586.441 449.401Z" fill="white"/>
</g>
<defs>
<clipPath id="clip0_6378_622">
<rect width="640.78" height="640.78" fill="white"/>
</clipPath>
</defs>
</svg>
