<svg width="219" height="230" viewBox="0 0 219 230" fill="none" xmlns="http://www.w3.org/2000/svg">
<g clip-path="url(#clip0_2857_291)">
<path d="M55.0798 50C56.7337 49.9581 58.3848 50.1603 59.9798 50.6C61.0512 50.8905 62.0655 51.3605 62.9798 51.99C63.7454 52.6496 64.2813 53.5357 64.5098 54.52C64.812 55.4612 65.0033 56.4345 65.0798 57.42C65.0798 58.18 65.1398 59.37 65.1398 60.97V128.15C65.1592 129.539 65.1024 130.928 64.9698 132.31C64.7912 133.426 64.4261 134.505 63.8898 135.5C63.575 136.11 63.1398 136.649 62.6104 137.086C62.0809 137.523 61.4684 137.847 60.8098 138.04C58.922 138.579 56.9621 138.822 54.9998 138.76C53.0739 138.819 51.1507 138.576 49.2998 138.04C48.6496 137.853 48.0432 137.538 47.5161 137.114C46.989 136.69 46.5517 136.165 46.2298 135.57C45.6723 134.558 45.3029 133.454 45.1398 132.31C45.0087 130.847 44.952 129.379 44.9698 127.91V84.84L43.4898 86.29C40.3698 88.7834 37.7865 90.03 35.7398 90.03C33.3898 90.03 31.1798 88.82 29.1298 86.41C26.4032 83.2034 25.0365 80.47 25.0298 78.21C25.0298 76.1234 26.3965 73.79 29.1298 71.21L47.8198 53.36L48.1598 53.12C49.0278 52.1411 50.0931 51.357 51.2858 50.8193C52.4785 50.2815 53.7715 50.0023 55.0798 50Z" fill="white"/>
<path d="M101.46 50C103.114 49.9581 104.765 50.1603 106.36 50.6C107.433 50.8869 108.448 51.3572 109.36 51.99C110.132 52.6458 110.672 53.533 110.9 54.52C111.197 55.4625 111.388 56.4352 111.47 57.42C111.47 58.18 111.53 59.37 111.53 60.97V128.15C111.549 129.539 111.493 130.928 111.36 132.31C111.177 133.425 110.812 134.503 110.28 135.5C109.965 136.11 109.53 136.649 109 137.086C108.471 137.523 107.858 137.847 107.2 138.04C105.312 138.579 103.352 138.822 101.39 138.76C99.464 138.819 97.5408 138.576 95.6899 138.04C95.0391 137.852 94.4319 137.536 93.9033 137.113C93.3747 136.689 92.9352 136.164 92.6099 135.57C92.0507 134.56 91.6844 133.454 91.5299 132.31C91.3988 130.847 91.3421 129.379 91.3599 127.91V84.84L89.8799 86.29C86.7599 88.7834 84.1766 90.03 82.1299 90.03C79.7699 90.03 77.5666 88.8234 75.5199 86.41C72.7866 83.2034 71.4199 80.47 71.4199 78.21C71.4199 76.1234 72.7866 73.79 75.5199 71.21L94.2099 53.36L94.5499 53.12C95.4168 52.1424 96.4805 51.359 97.6714 50.8213C98.8622 50.2836 100.153 50.0037 101.46 50Z" fill="white"/>
<path d="M138.1 141.77C140.231 141.744 142.339 142.212 144.259 143.139C146.178 144.065 147.856 145.425 149.16 147.11C152.154 150.799 153.722 155.441 153.58 160.19V172.56C153.594 173.371 153.561 174.183 153.48 174.99C153.388 175.63 153.185 176.25 152.88 176.82C152.702 177.168 152.454 177.476 152.151 177.724C151.848 177.972 151.497 178.154 151.12 178.26C150.022 178.575 148.882 178.716 147.74 178.68C146.628 178.716 145.517 178.575 144.45 178.26C143.701 178.035 143.069 177.525 142.69 176.84C142.364 176.262 142.15 175.628 142.06 174.97C141.979 174.129 141.946 173.285 141.96 172.44V160.14C142.058 158.498 141.509 156.882 140.43 155.64C139.929 155.108 139.32 154.688 138.644 154.409C137.969 154.129 137.241 153.997 136.51 154.02C135 154.01 133.536 154.546 132.39 155.53C131.298 156.366 130.562 157.584 130.33 158.94V172.58C130.344 173.391 130.311 174.203 130.23 175.01C130.129 175.648 129.926 176.266 129.63 176.84C129.452 177.188 129.204 177.496 128.901 177.744C128.598 177.992 128.247 178.174 127.87 178.28C126.769 178.596 125.625 178.738 124.48 178.7C123.358 178.734 122.238 178.592 121.16 178.28C120.779 178.172 120.425 177.984 120.121 177.729C119.818 177.474 119.572 177.157 119.4 176.8C119.11 176.224 118.908 175.607 118.8 174.97C118.723 174.153 118.689 173.331 118.7 172.51V130.51C118.691 129.699 118.725 128.888 118.8 128.08C118.902 127.442 119.104 126.824 119.4 126.25C119.579 125.902 119.827 125.594 120.13 125.346C120.433 125.099 120.783 124.916 121.16 124.81C122.261 124.494 123.405 124.353 124.55 124.39C125.672 124.356 126.792 124.498 127.87 124.81C128.251 124.92 128.604 125.108 128.907 125.363C129.211 125.618 129.457 125.934 129.63 126.29C129.924 126.876 130.126 127.503 130.23 128.15C130.311 128.958 130.344 129.769 130.33 130.58V146.12C132.54 143.2 135.14 141.77 138.1 141.77Z" fill="white"/>
<path d="M176.37 166.31H187.73C188.506 166.291 189.282 166.337 190.05 166.45C190.665 166.574 191.251 166.812 191.78 167.15C192.446 167.594 192.921 168.272 193.11 169.05C193.639 171.354 193.639 173.747 193.11 176.05C193.017 176.44 192.845 176.806 192.604 177.126C192.363 177.446 192.059 177.713 191.71 177.91C191.162 178.218 190.567 178.434 189.95 178.55C189.189 178.631 188.425 178.664 187.66 178.65H163.66C162.902 178.644 162.154 178.477 161.465 178.162C160.775 177.846 160.16 177.389 159.66 176.82C158.549 175.64 157.93 174.081 157.93 172.46C157.93 170.84 158.549 169.28 159.66 168.1C160.813 166.927 162.583 165.217 164.97 162.97C167.357 160.723 169.527 158.697 171.48 156.89C173.433 155.09 174.497 154.09 174.67 153.89H165.29C164.45 153.89 163.82 153.89 163.4 153.89C162.876 153.841 162.361 153.72 161.87 153.53C161.332 153.361 160.858 153.033 160.51 152.59C160.144 152.028 159.874 151.41 159.71 150.76C159.271 148.784 159.271 146.736 159.71 144.76C159.862 144.106 160.133 143.486 160.51 142.93C160.865 142.499 161.338 142.18 161.87 142.01C162.362 141.827 162.877 141.709 163.4 141.66C163.82 141.66 164.45 141.66 165.29 141.66H186.89C187.641 141.663 188.383 141.819 189.071 142.12C189.759 142.421 190.378 142.86 190.89 143.41C191.451 143.973 191.894 144.642 192.191 145.379C192.488 146.116 192.634 146.906 192.62 147.7C192.657 148.513 192.527 149.325 192.24 150.087C191.953 150.848 191.514 151.544 190.95 152.13C189.423 153.71 184.563 158.437 176.37 166.31Z" fill="white"/>
</g>
<defs>
<clipPath id="clip0_2857_291">
<rect width="168.51" height="128.68" fill="white" transform="translate(25 50)"/>
</clipPath>
</defs>
</svg>
