<svg width="21" height="19" viewBox="0 0 21 19" version="1.1" xmlns="http://www.w3.org/2000/svg" xmlns:xlink="http://www.w3.org/1999/xlink">
<title>profile</title>
<desc>Created using Figma</desc>
<g id="Canvas" transform="translate(2735 978)">
<g id="profile">
<g id="Oval 10 + Oval 10 Copy Mask">
<mask id="mask0_outline" mask-type="alpha">
<g id="Mask">
<use xlink:href="#path0_fill" transform="translate(-2735 -978)" fill="#FFFFFF"/>
</g>
</mask>
<g id="Subtract" mask="url(#mask0_outline)">
<use xlink:href="#path1_fill" transform="translate(-2735 -978)" fill="#FFFFFF"/>
<use xlink:href="#path1_fill" transform="translate(-2735 -978)" fill="#333333"/>
</g>
</g>
</g>
</g>
<defs>
<path id="path0_fill" fill-rule="evenodd" d="M 10.5 21C 16.299 21 21 16.299 21 10.5C 21 4.70101 16.299 0 10.5 0C 4.70101 0 0 4.70101 0 10.5C 0 16.299 4.70101 21 10.5 21Z"/>
<path id="path1_fill" fill-rule="evenodd" d="M 17.728 18.1163C 19.7434 16.2031 21 13.4983 21 10.5C 21 4.70099 16.2991 0 10.5 0C 4.70093 0 0 4.70099 0 10.5C 0 13.4984 1.25684 16.2032 3.27222 18.1165C 4.573 15.4362 7.3208 13.5883 10.5 13.5883C 13.6794 13.5883 16.4272 15.4361 17.728 18.1163ZM 10.5 12.3529C 12.8879 12.3529 14.8235 10.4172 14.8235 8.02942C 14.8235 5.6416 12.8879 3.70587 10.5 3.70587C 8.1123 3.70587 6.17651 5.6416 6.17651 8.02942C 6.17651 10.4172 8.1123 12.3529 10.5 12.3529Z"/>
</defs>
</svg>
