<svg width="532" height="830" viewBox="0 0 532 830" fill="none" xmlns="http://www.w3.org/2000/svg">
<g clip-path="url(#clip0_4890_831)">
<path d="M265.9 829.49C390.169 829.49 490.91 800.429 490.91 764.58C490.91 728.731 390.169 699.67 265.9 699.67C141.63 699.67 40.8899 728.731 40.8899 764.58C40.8899 800.429 141.63 829.49 265.9 829.49Z" fill="#A7A9AC"/>
<path d="M171.96 779.58C167.982 779.58 164.166 778 161.353 775.187C158.54 772.374 156.96 768.558 156.96 764.58V737.81C116.603 719.919 81.2571 692.389 54.03 657.64C26.8029 622.89 8.52758 581.986 0.809984 538.52C-0.533859 530.94 -0.200878 523.158 1.78551 515.721C3.77189 508.284 7.36347 501.372 12.3076 495.472C17.2518 489.572 23.4285 484.826 30.4034 481.569C37.3783 478.312 44.9821 476.623 52.68 476.62H259.59C261.34 461.33 259.44 450.54 253.68 441.76C251.12 437.86 234.68 435.71 223.87 434.28C193.61 430.28 147.87 424.28 133.77 374.48C129.368 359.135 129.605 342.831 134.45 327.62C138.53 314.52 145.85 301.82 156.29 289.72C149.03 285.037 142.28 279.608 136.15 273.52C126.151 263.533 117.959 251.887 111.94 239.1C110.28 239.26 108.65 239.33 107.1 239.33C105.71 239.33 104.35 239.27 103.03 239.15C96.6012 243.782 89.0354 246.582 81.14 247.25H80.46C76.5178 247.25 72.734 245.699 69.9269 242.931C67.1198 240.163 65.5152 236.402 65.46 232.46C65.4159 229.704 65.6201 226.949 66.07 224.23C64.7925 223.28 63.6012 222.219 62.51 221.06C58.8549 217.079 56.3733 212.164 55.34 206.86C46.8 198.13 45.53 189.86 46.17 184.1C46.4886 181.104 47.3816 178.198 48.8 175.54C47.9369 172.598 47.7052 169.507 48.12 166.47C49.12 159.17 53.57 153.79 58.2 150.07C58.1829 145.278 59.608 140.591 62.29 136.62C63.4647 134.913 64.8678 133.376 66.46 132.05C66.6665 124.415 69.427 117.071 74.3 111.19C72.14 104.4 71.03 95.54 74.99 86.96C77.84 80.75 84.09 73.2 97.75 69.54C103.83 59 115.57 47.41 133.98 47.41C138.453 47.4481 142.897 48.1215 147.18 49.41C152.361 45.8127 158.484 43.8167 164.79 43.67C169.84 43.67 178.47 45.19 185.88 53.98C191.634 54.6498 197.279 56.0477 202.68 58.14C214.68 62.92 223.04 70.95 227.02 81.36C231.587 82.3365 235.934 84.1504 239.84 86.71C242.661 88.6723 244.722 91.5437 245.68 94.8438C246.637 98.1439 246.432 101.673 245.1 104.84C251.29 112.51 254.62 122.63 254.59 134.39C254.715 143.893 252.112 153.232 247.09 161.3C247.257 162.934 247.321 164.578 247.28 166.22C252.53 174.47 254.28 184.78 252.28 196.04C250.11 208.16 244.05 218.04 234.84 224.74C235.261 232.491 233.604 240.214 230.04 247.11C229.573 247.943 229.024 248.727 228.4 249.45C233.6 247.81 238.8 246.26 243.93 244.72C268.2 237.46 291.23 230.57 309.7 216.77C307.615 213.277 306.093 209.477 305.19 205.51C305.13 205.22 305.06 204.93 305 204.65C297.14 200.15 288.87 191.32 287.58 173.99C281.344 170.658 276.095 165.743 272.36 159.74C267.978 152.37 266.292 143.706 267.59 135.23C260.35 120.62 257.93 98.56 276.71 84.23C286.86 76.52 295.59 72.52 302.29 70.37C304.75 59.65 310.06 43.79 321.15 32.7C319.805 26.6904 319.224 20.5351 319.42 14.38C319.555 11.8412 320.333 9.37831 321.681 7.22268C323.029 5.06704 324.902 3.28936 327.126 2.05663C329.349 0.823896 331.85 0.176552 334.392 0.175388C336.934 0.174224 339.435 0.81928 341.66 2.04998C349.119 6.01737 355.762 11.3576 361.24 17.79C365.82 13.7427 371.645 11.3822 377.75 11.1C380.923 7.31226 384.759 4.13377 389.07 1.71997C390.852 0.77759 392.806 0.204177 394.815 0.0340002C396.824 -0.136176 398.847 0.10038 400.762 0.729526C402.678 1.35867 404.447 2.3675 405.963 3.69573C407.48 5.02395 408.714 6.64431 409.59 8.45998C410.588 10.5256 411.433 12.6613 412.12 14.85C419.143 16.1938 425.436 20.0512 429.82 25.7C434.53 31.87 436.57 39.7 435.92 49.16C440.02 51.7377 443.461 55.2373 445.97 59.38C446.794 60.7721 447.494 62.2345 448.06 63.75C451.638 64.7884 454.954 66.5744 457.79 68.99C462.739 67.6267 467.98 67.7484 472.86 69.34C476.918 67.9436 481.179 67.2306 485.47 67.23C488.05 67.2047 490.624 67.4799 493.14 68.05C496.652 68.9049 499.738 70.9995 501.829 73.9485C503.92 76.8975 504.876 80.5024 504.52 84.1C504.208 87.3945 503.506 90.6405 502.43 93.77C505.951 99.2768 507.869 105.655 507.97 112.19C516.97 115.71 523.68 123.7 526.65 135.02C528.635 142.054 528.337 149.536 525.8 156.39C527.008 159.912 527.209 163.7 526.38 167.33C527.355 169.453 527.983 171.718 528.24 174.04C528.8 179.13 527.77 186.36 520.76 193.87C519.749 198.272 517.605 202.333 514.54 205.65C509.996 210.447 503.753 213.272 497.15 213.52C493.73 216.95 487.48 221.03 477.15 221.03C475.167 221.026 473.186 220.892 471.22 220.63C467.979 220.237 464.799 219.448 461.75 218.28C459.791 219.99 457.686 221.526 455.46 222.87C449.865 227.212 443.856 230.994 437.52 234.16C435.742 236.409 433.731 238.464 431.52 240.29C431.537 247.307 429.845 254.223 426.59 260.44C425.6 262.188 424.27 263.719 422.677 264.943C421.085 266.167 419.263 267.059 417.319 267.565C415.375 268.071 413.35 268.182 411.363 267.891C409.375 267.6 407.467 266.913 405.75 265.87C400.108 262.423 395.278 257.797 391.59 252.31C388.885 252.304 386.201 251.841 383.65 250.94C383.04 251.94 382.42 252.89 381.79 253.86L380.92 255.17C377.171 260.65 372.962 265.802 368.34 270.57L368.21 270.7C341.14 298.6 301.21 313.52 265.98 326.7C259.78 329.01 253.92 331.2 248.18 333.43C245.89 334.33 243.62 335.22 241.39 336.13C240.632 336.438 239.849 336.682 239.05 336.86L238.45 337.02C237.955 337.161 237.468 337.328 236.99 337.52C236.7 337.62 236.43 337.73 236.15 337.85C234.597 338.513 233.093 339.285 231.65 340.16L231.16 340.45L230.39 340.94L229.85 341.29C228.98 341.87 228.13 342.48 227.34 343.1L226.53 343.75C226.21 344.01 225.91 344.26 225.62 344.52L225.53 344.59C224.79 345.25 224.18 345.85 223.67 346.39C224.49 346.67 225.34 346.93 226.24 347.16C226.79 347.3 227.34 347.43 227.89 347.54L229.24 347.79C232.042 348.222 234.875 348.426 237.71 348.4C242.47 348.4 247.47 347.96 252.77 347.5C257.6 347.08 262.59 346.64 267.7 346.5H270.46C273.55 346.5 276.4 346.63 279.16 346.9C279.52 346.9 279.89 346.98 280.25 347.05C288.447 348.428 296.383 351.059 303.78 354.85L303.97 354.94C305.45 355.72 306.97 356.56 308.51 357.52C309.79 358.3 311.07 359.14 312.32 360.01C314.32 361.42 316.32 362.94 318.17 364.51C319.78 365.88 321.33 367.3 322.77 368.73C324.21 370.16 325.57 371.62 326.94 373.19C328.51 374.99 330.05 376.92 331.51 378.91L332.42 380.16C339.56 390.16 345.42 402.6 349.67 417C352.002 424.907 353.868 432.944 355.26 441.07C355.573 442.85 355.867 444.627 356.14 446.4C356.53 448.97 356.91 451.64 357.26 454.34C358.26 462.12 358.94 469.74 359.44 476.63H479.13C486.826 476.635 494.428 478.325 501.401 481.582C508.375 484.839 514.55 489.584 519.494 495.482C524.437 501.381 528.029 508.291 530.017 515.726C532.005 523.161 532.34 530.941 531 538.52C523.789 579.107 507.369 617.501 483 650.75C481.86 652.297 480.703 653.837 479.53 655.37C478.27 657.01 476.89 658.76 475.31 660.71C473.03 663.53 470.76 666.23 468.57 668.71C464.79 673.03 460.83 677.28 456.78 681.35C455.4 682.74 453.98 684.14 452.44 685.62C438.142 699.349 422.381 711.468 405.44 721.76C403.91 722.69 402.36 723.61 400.81 724.51C396.14 727.22 391.45 729.76 386.87 732.07C382.95 734.07 378.87 735.96 374.78 737.79V764.56C374.78 768.538 373.2 772.354 370.387 775.167C367.574 777.98 363.758 779.56 359.78 779.56L171.96 779.58ZM198.1 253C201.3 254.323 204.564 255.485 207.88 256.48C209.833 255.733 211.793 255.007 213.76 254.3C212.157 253.946 210.624 253.331 209.22 252.48C206.882 251.055 204.67 249.433 202.61 247.63C201.9 248.02 201.17 248.39 200.43 248.72C199.7 250.19 198.92 251.61 198.1 253Z" fill="#231F20"/>
<path d="M431.22 215.031C431.22 215.031 422.31 240.761 402.34 229.691C402.34 229.691 392.16 248.181 378.62 227.571C378.62 227.571 355.71 235.111 349.4 216.961C349.4 216.961 324.97 224.121 319.82 202.041C314.82 180.521 330.22 178.041 330.22 178.041C330.22 178.041 318.37 161.041 338.92 150.601C338.92 150.601 327.39 124.311 357.15 125.891C357.15 125.891 370.55 100.701 395.31 118.241C395.31 118.241 412.26 104.611 418.43 123.971C418.43 123.971 455.81 129.761 443.91 160.171C443.91 160.171 465.8 164.551 461.37 189.341C456.85 214.591 431.22 215.031 431.22 215.031Z" fill="#124C2D"/>
<path d="M397.94 208.949C426.44 230.309 413.56 253.049 413.56 253.049C413.56 253.049 408.27 222.519 397.94 208.949Z" fill="#124C2D"/>
<path d="M413.59 253.049C391.95 239.899 397.97 208.949 397.97 208.949C408.27 222.519 413.59 253.049 413.59 253.049Z" fill="#124C2D"/>
<path d="M207.39 219.009C207.39 219.009 198.48 244.74 178.51 233.66C178.51 233.66 168.33 252.159 154.79 231.549C154.79 231.549 131.88 239.089 125.56 220.929C125.56 220.929 101.14 228.099 95.9899 206.019C90.9899 184.499 106.39 182.019 106.39 182.019C106.39 182.019 94.5399 165.069 115.09 154.569C115.09 154.569 103.56 128.289 133.32 129.869C133.32 129.869 146.72 104.679 171.48 122.209C171.48 122.209 188.43 108.589 194.6 127.949C194.6 127.949 231.98 133.729 220.08 164.139C220.08 164.139 241.97 168.529 237.53 193.319C233.02 218.569 207.39 219.009 207.39 219.009Z" fill="#124C2D"/>
<path d="M460.51 149.949C460.4 169.259 453.95 184.949 441.34 196.509C424.88 211.629 400.62 217.749 380.93 220.129C381.24 219.039 381.53 217.949 381.81 216.829C390.07 159.829 384.64 173.689 338.32 177.339C339.65 194.789 337.68 212.659 323.85 224.629C291.64 251.899 247.16 256.469 208.74 272.289C196.626 269.353 185.119 264.321 174.74 257.419C186.83 247.649 193.35 231.939 193.74 211.129C193.851 198.283 192.124 185.486 188.61 173.129L176.59 176.819C176.76 177.389 192.45 230.109 164.5 249.229C163.85 248.629 163.21 248.019 162.59 247.399C135.29 220.399 136.21 183.349 136.23 182.979L125.17 182.569L114.12 182.119C114.04 184.009 112.62 228.799 146.75 262.859C156.859 272.861 168.764 280.868 181.84 286.459C179.79 287.849 177.77 289.319 175.84 290.859C147.29 318.599 141.46 346.519 148.22 370.379C166.6 435.259 249.54 408.079 266.22 433.509C288.99 468.209 261.86 517.109 257.08 558.139C257.3 556.259 348.45 572.239 343.68 564.859C345.719 539.87 346.233 514.781 345.22 489.729C342.61 442.439 335.32 371.729 277.67 361.809C257.1 359.809 235.19 368.009 215.54 359.279C191.78 348.739 220.39 325.679 235.74 322.219C284.66 302.369 350.74 285.759 375.24 235.079C398 233.169 429.43 226.749 450.95 207.009C466.62 192.639 474.62 173.469 474.75 150.009L460.51 149.949Z" fill="#A86145"/>
<path d="M460.51 149.949C460.4 169.259 453.95 184.949 441.34 196.509C424.88 211.629 400.62 217.749 380.93 220.129C381.24 219.039 381.53 217.949 381.81 216.829C388.2 172.829 386.39 171.059 363.81 174.229C364.42 198.909 359.66 249.069 313.41 265.589C251.18 287.809 162.41 298.049 170.28 353.589C178.15 409.129 250.09 374.399 272.59 388.279C302.82 406.949 315.26 435.129 312.59 518.829L344.86 547.149C345.86 528.059 346.04 509.049 345.23 489.729C342.62 442.439 335.33 371.729 277.68 361.809C257.11 359.809 235.2 368.009 215.55 359.279C191.79 348.739 220.4 325.679 235.75 322.219C284.67 302.369 350.75 285.759 375.25 235.079C398.01 233.179 429.44 226.749 450.96 207.009C466.63 192.639 474.63 173.469 474.76 150.009L460.51 149.949Z" fill="#79412D"/>
<path d="M460.51 149.949C460.4 169.259 453.95 184.949 441.34 196.509C424.88 211.629 400.62 217.749 380.93 220.129C381.24 219.039 381.53 217.949 381.81 216.829C386.73 182.889 386.81 174.079 376.24 173.269C374.48 203.089 369.46 233.149 357.34 247.809C328.69 282.479 282.34 286.919 245.89 302.039C209.44 317.159 177.59 328.659 191.7 361.599C202.02 385.599 256.84 361.599 277.15 374.049C297.46 386.499 333.45 411.259 328.34 532.679L325.86 566.009C337.24 567.199 345.25 567.329 343.66 564.859C345.699 539.87 346.213 514.781 345.2 489.729C342.59 442.439 335.3 371.729 277.65 361.809C257.08 359.809 235.17 368.009 215.52 359.279C191.76 348.739 220.37 325.679 235.72 322.219C284.64 302.369 350.72 285.759 375.22 235.079C397.98 233.179 429.41 226.749 450.93 207.009C466.6 192.639 474.6 173.469 474.73 150.009L460.51 149.949Z" fill="#502314"/>
<path d="M201.39 195.52C229.89 216.89 217.01 239.63 217.01 239.63C217.01 239.63 211.72 209.15 201.39 195.52Z" fill="#124C2D"/>
<path d="M217.01 239.66C195.37 226.52 201.39 195.52 201.39 195.52C211.72 209.15 217.01 239.66 217.01 239.66Z" fill="#124C2D"/>
<path d="M109.52 195.52C106.52 231.02 80.46 232.19 80.46 232.19C80.46 232.19 103.49 211.52 109.52 195.52Z" fill="#124C2D"/>
<path d="M80.4601 232.221C80.1001 206.901 109.52 195.551 109.52 195.551C103.49 211.521 80.4601 232.221 80.4601 232.221Z" fill="#124C2D"/>
<path d="M334.4 15.1797C365.57 32.4197 355.94 56.7097 355.94 56.7097C355.94 56.7097 346.5 27.2297 334.4 15.1797Z" fill="#1C6A43"/>
<path d="M355.94 56.7097C332.69 46.7097 334.4 15.1797 334.4 15.1797C346.5 27.2297 355.94 56.7097 355.94 56.7097Z" fill="#1C6A43"/>
<path d="M359.84 718.029H171.96V764.579H359.84V718.029Z" fill="#3B3B49"/>
<path d="M52.68 491.609C47.1724 491.614 41.7326 492.824 36.743 495.156C31.7535 497.488 27.3353 500.885 23.7991 505.107C20.2629 509.33 17.6945 514.276 16.2746 519.597C14.8546 524.919 14.6176 530.486 15.58 535.909C36.58 655.169 140.64 745.779 265.9 745.779C391.16 745.779 495.26 655.169 516.22 535.909C517.182 530.487 516.946 524.92 515.526 519.6C514.107 514.279 511.539 509.334 508.004 505.111C504.469 500.889 500.052 497.492 495.064 495.16C490.076 492.827 484.637 491.615 479.13 491.609H52.68Z" fill="#3B3B49"/>
<path d="M479.13 491.609H364.87C370.377 491.613 375.817 492.824 380.806 495.156C385.795 497.488 390.213 500.885 393.748 505.108C397.284 509.33 399.851 514.276 401.27 519.598C402.689 524.919 402.924 530.487 401.96 535.909C384.29 636.459 307.51 716.649 208.77 739.329C227.509 743.627 246.674 745.791 265.9 745.779C391.16 745.779 495.26 655.169 516.22 535.909C517.182 530.487 516.945 524.92 515.526 519.6C514.107 514.279 511.539 509.334 508.004 505.111C504.469 500.889 500.052 497.492 495.064 495.16C490.076 492.827 484.637 491.615 479.13 491.609Z" fill="#605C74"/>
<path d="M63.8299 558.14C74.6823 558.14 83.4799 549.342 83.4799 538.49C83.4799 527.637 74.6823 518.84 63.8299 518.84C52.9775 518.84 44.1799 527.637 44.1799 538.49C44.1799 549.342 52.9775 558.14 63.8299 558.14Z" fill="#605C74"/>
<path d="M315.27 83.1899C315.27 83.1899 320.06 36.0899 350.27 35.0399C380.48 33.9899 399.42 53.8899 400.08 67.3699C400.08 67.3699 422.22 68.7499 419.99 92.0599C419.99 92.0599 437.64 86.7499 442.4 114.5C442.4 114.5 462.61 111.58 455.48 132.5C455.48 132.5 478.36 141.83 462.92 153.94C462.92 153.94 480.92 162.65 460.92 178.52C460.92 178.52 462.36 200.52 436.23 194.09C436.23 194.09 436.32 208.16 414.23 205.29C392.14 202.42 398.87 188.52 398.87 188.52C398.87 188.52 382.26 199.15 376.54 186.06C376.54 186.06 364.21 203.16 347.91 189.5C347.91 189.5 298.69 211.44 302.65 163.92C302.65 163.92 276.45 158.11 283.41 132.61C283.41 132.61 267.82 109.88 285.83 96.1599C303.84 82.4399 315.27 83.1899 315.27 83.1899Z" fill="#1C6A43"/>
<path d="M402.27 118.291C402.27 118.291 405.71 84.5606 427.33 83.8006C448.95 83.0406 462.53 97.3106 463 106.961C463 106.961 478.86 107.961 477.26 124.651C477.26 124.651 489.9 120.841 493.31 140.721C493.31 140.721 507.79 138.621 502.68 153.611C502.68 153.611 519.07 160.291 508.01 168.971C508.01 168.971 520.9 175.201 506.54 186.561C506.54 186.561 507.54 202.351 488.86 197.721C488.86 197.721 488.92 207.801 473.1 205.721C457.28 203.641 462.1 193.721 462.1 193.721C462.1 193.721 450.21 201.331 446.1 191.961C446.1 191.961 437.27 204.201 425.59 194.421C425.59 194.421 390.34 210.131 393.18 176.101C393.18 176.101 374.41 171.941 379.4 153.681C379.4 153.681 368.23 137.391 381.13 127.571C394.03 117.751 402.27 118.291 402.27 118.291Z" fill="#1C6A43"/>
<path d="M364.18 40.3794C364.18 40.3794 370.93 16.1494 390.63 30.7494C390.63 30.7494 429.99 18.3394 419.12 58.1594C419.12 58.1594 438.8 62.2294 433.91 78.0294C433.91 78.0294 451.15 73.4394 452.32 90.5594C452.32 90.5594 464.66 72.2894 478.72 92.6894C478.72 92.6894 501.16 101.289 489.72 126.529C489.72 126.529 506.94 119.179 512.09 138.829C517.24 158.479 496.45 164.099 492.85 161.639C492.85 161.639 489.36 194.719 456.63 177.769C456.63 177.769 429.83 196.189 427.14 172.469C427.14 172.469 413.93 187.579 401.53 170.369C401.53 170.369 384.92 189.189 375.07 173.549C375.07 173.549 336.44 188.949 334.07 164.759C334.07 164.759 309.23 165.679 318.54 137.469C318.54 137.469 302.78 137.539 309.67 117.749C309.67 117.749 299.87 78.6094 340.67 75.7494C340.67 75.7494 332.1 42.0094 364.18 40.3794Z" fill="#63B446"/>
<path d="M374.97 144.699C394.554 144.699 410.43 128.823 410.43 109.239C410.43 89.6553 394.554 73.7793 374.97 73.7793C355.386 73.7793 339.51 89.6553 339.51 109.239C339.51 128.823 355.386 144.699 374.97 144.699Z" fill="#9FCC3B"/>
<path d="M416.46 160.21C433.399 160.21 447.13 147.759 447.13 132.4C447.13 117.041 433.399 104.59 416.46 104.59C399.521 104.59 385.79 117.041 385.79 132.4C385.79 147.759 399.521 160.21 416.46 160.21Z" fill="#9FCC3B"/>
<path d="M385.24 60.52C372.89 27.11 396.05 15 396.05 15C396.05 15 383.94 43.52 385.24 60.52Z" fill="#63B446"/>
<path d="M396.05 15C407.05 37.79 385.24 60.52 385.24 60.52C383.94 43.52 396.05 15 396.05 15Z" fill="#4CA84E"/>
<path d="M339.51 130.949C321.29 161.559 297.32 151.159 297.32 151.159C297.32 151.159 327.09 142.659 339.51 130.949Z" fill="#63B446"/>
<path d="M297.32 151.161C308.09 128.241 339.51 130.951 339.51 130.951C327.09 142.661 297.32 151.161 297.32 151.161Z" fill="#4CA84E"/>
<path d="M459.9 108.67C466.22 76.9098 489.56 82.6698 489.56 82.6698C489.56 82.6698 466.93 95.5998 459.9 108.67Z" fill="#63B446"/>
<path d="M489.59 82.6191C487.28 105.919 459.93 108.619 459.93 108.619C466.93 95.5991 489.59 82.6191 489.59 82.6191Z" fill="#4CA84E"/>
<path d="M202.21 112.75C202.21 112.75 197.85 69.8599 170.36 68.8999C142.87 67.9399 125.59 86.0799 125.01 98.3499C125.01 98.3499 104.85 99.5999 106.88 120.83C106.88 120.83 90.81 116 86.47 141.26C86.47 141.26 68.07 138.6 74.56 157.65C74.56 157.65 53.72 166.15 67.79 177.18C67.79 177.18 51.4 185.1 69.66 199.55C69.66 199.55 68.34 219.62 92.14 213.73C92.14 213.73 92.05 226.55 112.14 223.93C132.23 221.31 126.07 208.67 126.07 208.67C126.07 208.67 141.19 218.35 146.4 206.43C146.4 206.43 157.62 222 172.47 209.56C172.47 209.56 217.29 229.56 213.68 186.27C213.68 186.27 237.54 180.98 231.2 157.76C231.2 157.76 245.39 137.06 229 124.57C212.61 112.08 202.21 112.75 202.21 112.75Z" fill="#1C6A43"/>
<path d="M210.37 169.52C210.37 169.52 205.37 200.59 180.37 191.95C180.37 191.95 172.46 215.04 152.91 194.26C152.91 194.26 128.31 207.41 117.48 187.99C117.48 187.99 91.07 200.99 80.78 176.89C70.78 153.39 87.83 147.52 87.83 147.52C87.83 147.52 70.93 130.57 92.26 114.52C92.26 114.52 73.85 86.8795 108.09 82.7595C108.09 82.7595 118.32 51.3995 150.09 66.4395C150.09 66.4395 166.69 47.5495 177.6 68.3695C177.6 68.3695 221.36 67.5195 213.88 104.52C213.88 104.52 239.71 105.16 239.62 134.26C239.49 163.92 210.37 169.52 210.37 169.52Z" fill="#63B446"/>
<path d="M191.7 108.971C212.57 85.9707 231.28 98.9707 231.28 98.9707C231.28 98.9707 204.35 101.091 191.7 108.971Z" fill="#63B446"/>
<path d="M231.28 98.9609C218.11 116.701 191.7 108.961 191.7 108.961C204.35 101.091 231.28 98.9609 231.28 98.9609Z" fill="#4CA84E"/>
<path d="M78.4199 181.819C105.94 159.199 124.97 177.109 124.97 177.109C124.97 177.109 94.0899 175.009 78.4199 181.819Z" fill="#63B446"/>
<path d="M124.97 177.11C107.07 195.01 78.4199 181.82 78.4199 181.82C94.0899 175.01 124.97 177.11 124.97 177.11Z" fill="#4CA84E"/>
<path d="M101.7 198.69C108.15 163.69 134.25 165.08 134.25 165.08C134.25 165.08 109.28 183.39 101.7 198.69Z" fill="#63B446"/>
<path d="M134.25 165.08C132.1 190.31 101.7 198.69 101.7 198.69C109.28 183.39 134.25 165.08 134.25 165.08Z" fill="#4CA84E"/>
<path d="M166.55 164.66C186.134 164.66 202.01 148.784 202.01 129.2C202.01 109.616 186.134 93.7402 166.55 93.7402C146.966 93.7402 131.09 109.616 131.09 129.2C131.09 148.784 146.966 164.66 166.55 164.66Z" fill="#9FCC3B"/>
<path d="M133.13 178.659C148.489 178.659 160.94 166.208 160.94 150.849C160.94 135.49 148.489 123.039 133.13 123.039C117.771 123.039 105.32 135.49 105.32 150.849C105.32 166.208 117.771 178.659 133.13 178.659Z" fill="#9FCC3B"/>
</g>
<defs>
<clipPath id="clip0_4890_831">
<rect width="531.8" height="829.5" fill="white"/>
</clipPath>
</defs>
</svg>
