<svg width="801" height="959" viewBox="0 0 801 959" fill="none" xmlns="http://www.w3.org/2000/svg">
<g clip-path="url(#clip0_5470_18983)">
<path d="M514.85 958.659C640.158 958.659 741.74 946.092 741.74 930.59C741.74 915.087 640.158 902.52 514.85 902.52C389.542 902.52 287.96 915.087 287.96 930.59C287.96 946.092 389.542 958.659 514.85 958.659Z" fill="#D0D2D3"/>
<path d="M516.95 929.11C516.19 929.11 515.44 929.091 514.7 929.051H514.25C512.5 928.961 510.8 928.82 509.25 928.62H509.07C508.07 928.5 507.07 928.35 506.07 928.17L505.63 928.09C504.73 927.93 503.84 927.74 502.97 927.54L502.49 927.43C501.68 927.24 500.81 927.01 499.96 926.77L499.68 926.69C498.74 926.41 497.9 926.15 497.08 925.87L496.83 925.781C493.347 924.57 489.996 923.009 486.83 921.12C485.278 920.201 483.776 919.199 482.33 918.12C480.326 916.624 478.441 914.976 476.69 913.19C476.654 913.159 476.62 913.126 476.59 913.09C475.117 911.589 473.756 909.982 472.52 908.281L472.26 907.91C471.98 907.517 471.72 907.137 471.48 906.77L471.16 906.281C470.92 905.891 470.65 905.451 470.41 905.031L470.32 904.86C469.88 904.07 469.45 903.25 469.02 902.34L468.86 901.991C468.45 901.091 468.1 900.24 467.79 899.41C463.57 887.98 466.35 876.601 476.07 865.571C476.91 864.571 477.79 863.67 478.68 862.69C486.63 854.01 487.37 851.99 484.77 846.12C475.88 826.03 471.18 813.12 478.02 782.18C479.02 777.66 480.11 772.761 481.3 767.801C472.995 764.617 465.009 760.656 457.45 755.971C429.69 738.721 419.6 723.471 422.78 703.451C415.07 697.351 408.33 686.711 405.78 668.451C403.84 654.88 407.17 645.9 411.01 640.29C406.07 630.78 405.36 619.34 405.48 610.65L402.32 609.65L399.44 608.701L396.66 607.761L392.86 606.451L390.2 605.511H390.07L387.33 604.511L383.65 603.14L381.13 602.14L380.89 602.05L378.33 601.05L377.48 600.71L375.63 599.951L374.8 599.6L372.46 598.6L372.29 598.52L369.85 597.44L369.06 597.08L367.36 596.29L366.57 595.91C365.87 595.58 365.15 595.22 364.44 594.91C360.783 593.121 357.252 591.086 353.87 588.82L318.47 658.761C317.58 660.518 316.353 662.084 314.859 663.367C313.364 664.651 311.631 665.628 309.759 666.242C307.887 666.855 305.912 667.094 303.948 666.945C301.983 666.795 300.067 666.26 298.31 665.37L8.3097 518.54C6.55178 517.651 4.98626 516.424 3.70265 514.929C2.41903 513.435 1.44244 511.702 0.828624 509.83C0.214806 507.958 -0.0242009 505.983 0.125255 504.018C0.27471 502.054 0.809627 500.138 1.6996 498.38L92.0696 319.86C92.9591 318.102 94.1863 316.537 95.6809 315.253C97.1755 313.97 98.9083 312.993 100.78 312.379C102.653 311.766 104.627 311.527 106.592 311.676C108.556 311.826 110.472 312.36 112.23 313.25L305.33 411C300.25 404.39 298.42 399.09 297.77 396.07C290.97 369.61 288.02 344.37 288.97 320.73C261.15 328.78 242.09 333.18 227.3 335.06H227.2C225.2 335.31 223.26 335.52 221.38 335.68H220.97C219.09 335.84 217.29 335.94 215.59 336H214.89H212.61C211.71 336 210.83 336 209.98 336H208.98C208.31 336 207.63 335.93 206.98 335.88H206.85L205.68 335.78L204.41 335.63L203.23 335.48C202.69 335.4 202.15 335.32 201.63 335.22C201.11 335.12 200.63 335.04 200.16 334.94L199.1 334.71C198.49 334.57 197.95 334.42 197.41 334.28L196.3 333.951C195.76 333.78 195.2 333.59 194.67 333.4L193.73 333.04C192.99 332.75 192.28 332.44 191.62 332.13L190.93 331.78C190.37 331.49 189.8 331.18 189.25 330.85C188.98 330.7 188.77 330.57 188.57 330.44C187.81 329.97 187.11 329.44 186.44 328.97L185.84 328.48C185.28 328.04 184.73 327.55 184.2 327.05L183.67 326.53C183.022 325.881 182.411 325.197 181.84 324.48L181.43 323.94C180.93 323.28 180.43 322.63 180.07 321.94L179.77 321.451C179.266 320.609 178.816 319.737 178.42 318.84C178.32 318.62 178.24 318.43 178.16 318.24C177.777 317.335 177.443 316.411 177.16 315.47L177.1 315.28C176.804 314.231 176.567 313.166 176.39 312.09C176.33 311.73 176.28 311.35 176.24 310.96C176.13 310.16 176.07 309.44 176.02 308.73V307.73C176.02 306.88 176.02 306.14 176.02 305.39C176.02 305.06 176.02 304.73 176.08 304.39C176.08 303.62 176.2 302.81 176.31 302L176.41 301.22C176.53 300.37 176.69 299.46 176.88 298.55C176.88 298.39 176.94 298.24 176.98 298.08C182.85 270.84 216.07 231.701 262.49 196.951C260.182 181.743 258.714 166.419 258.09 151.05V150.99C258.09 149.51 258 147.99 257.97 146.54V146.47C257.91 143.52 257.9 140.58 257.97 137.72V137.3C257.97 134.41 258.11 131.55 258.26 128.81V128.25C258.34 126.96 258.42 125.67 258.52 124.39V124.08C258.63 122.69 258.75 121.311 258.89 119.951L258.94 119.46C259.07 118.28 259.21 117.101 259.35 115.94L259.45 115.201C259.63 113.871 259.82 112.55 260.03 111.25V111.06C260.23 109.82 260.44 108.65 260.67 107.48L260.84 106.59C261.07 105.45 261.31 104.33 261.57 103.22L261.65 102.84C261.93 101.64 262.24 100.461 262.58 99.2005C262.65 98.9705 262.83 98.3204 262.83 98.3204C263.11 97.3204 263.4 96.3905 263.71 95.4505L263.96 94.6505C264.36 93.4405 264.78 92.2805 265.2 91.1905C265.28 90.9772 265.36 90.7771 265.44 90.5904C265.83 89.5904 266.22 88.6603 266.63 87.7503C266.63 87.7503 266.92 87.0904 267.05 86.8204C267.62 85.5804 268.13 84.5304 268.66 83.5504C269.298 82.3467 270.099 81.2363 271.04 80.2503C271.04 80.2503 271.82 79.4404 271.89 79.3804C281.39 69.6304 330.97 20.5604 379.2 6.38044C385.034 4.68805 390.974 3.38173 396.98 2.47028H397.04L399.41 2.12043H399.47C409.516 0.773615 419.643 0.122115 429.78 0.170475C458.21 0.170475 485.86 4.61034 499.89 7.28034L503.57 7.9903L504.57 8.2005L507.57 8.83039L509.83 9.33039L510.83 9.55036C514.027 10.3103 516.889 12.0942 518.98 14.6304L520.22 16.1705L522.67 19.1705L524.07 20.9305C525.07 22.1505 526.07 23.5203 527.29 25.0403L527.34 25.1004C528.82 26.9904 530.45 29.1005 532.22 31.4105C533.63 33.2405 535.12 35.2103 536.68 37.2803L537.92 38.9305C539.48 41.0105 541.1 43.1805 542.75 45.4405L544.18 47.3804C546.69 50.8104 549.18 54.2504 551.53 57.6004L551.59 57.6805C556.21 64.2205 560.59 70.6005 564.52 76.6805L566.68 79.9903L568.53 82.8904L570.33 85.7403L572.08 88.5704L573.81 91.4005L575.47 94.1705L577.12 96.9903L578.19 98.8504L578.71 99.7703C579.08 100.41 579.43 101.03 579.77 101.65L580.27 102.54C580.67 103.27 581.06 103.98 581.44 104.69L581.58 104.94C612.32 107.48 641.32 113.24 664.02 121.36C691.6 131.24 707.72 143.48 711.93 157.75C713.49 163.04 714.71 173.52 705.34 184.27C700.64 189.67 693.63 194.7 683.91 199.67C672.57 205.46 657.19 211.4 635.37 218.34C644.524 231.411 652.356 245.36 658.75 259.98L658.96 260.46C660.4 263.74 661.8 267.08 663.1 270.37L663.36 271.03C663.91 272.43 664.44 273.81 664.97 275.22L665.5 276.65C665.96 277.89 666.41 279.12 666.85 280.36L667.37 281.83C667.95 283.48 668.53 285.15 669.09 286.83C669.09 286.93 669.16 287.02 669.19 287.12C670.61 291.47 673.13 303.73 666.09 323.98C665.91 324.5 665.72 324.98 665.52 325.56C665.14 326.62 664.73 327.7 664.28 328.81C664.06 329.36 663.84 329.91 663.6 330.47C663.14 331.59 662.6 332.74 662.11 333.9C661.85 334.49 661.58 335.07 661.3 335.66C655.812 347.023 649.21 357.813 641.59 367.87C640.89 368.81 640.16 369.77 639.41 370.74L638.76 371.58L637.03 373.77L636.36 374.61C634.77 376.61 633.07 378.61 631.36 380.61L630.57 381.53L628.57 383.83L627.78 384.72C626.85 385.77 625.92 386.81 624.96 387.87L624.89 387.94C623.98 388.94 623.01 389.94 622.03 391.04L621.14 392.04L618.91 394.39L617.99 395.39C616.99 396.46 615.93 397.53 614.87 398.61L614.75 398.73C613.75 399.73 612.7 400.8 611.66 401.83L610.66 402.83L608.26 405.18L607.26 406.18L603.96 409.33L603.7 409.56C602.64 410.56 601.55 411.56 600.46 412.56L599.35 413.56L596.84 415.83L595.7 416.83C594.55 417.83 593.4 418.83 592.25 419.83L591.94 420.1L588.54 423.01L587.34 424.01L584.74 426.18L583.19 427.46L583.14 427.82C582.32 433.54 581.62 438.48 581.31 444.01C581.31 444.66 581.24 445.31 581.21 446.01C587.933 447.149 594.366 449.602 600.14 453.23C600.98 451.45 601.84 449.71 602.69 448C598.04 442.32 597.14 436.84 597.39 432.8C597.638 429.427 598.718 426.167 600.532 423.313C602.347 420.458 604.84 418.097 607.79 416.44C608.433 416.082 609.101 415.771 609.79 415.51C612.457 414.514 615.283 414.012 618.13 414.03C620.631 414.062 623.119 414.398 625.54 415.03C625.6 414.5 625.67 413.97 625.73 413.44C628.33 391.66 643.96 390.56 647.07 390.56C650.852 390.592 654.558 391.627 657.81 393.56C658.433 393.948 659.031 394.376 659.6 394.84C660.221 395.353 660.812 395.9 661.37 396.48C665.099 393.087 669.958 391.205 675 391.201C678.071 391.238 681.095 391.959 683.852 393.312C686.609 394.665 689.031 396.615 690.94 399.02C691.394 399.599 691.805 400.211 692.17 400.85C694.75 405.36 695.73 410.63 695.1 416.85C700.127 416.863 704.969 418.745 708.685 422.131C712.4 425.518 714.723 430.166 715.2 435.17C715.255 435.903 715.255 436.638 715.2 437.37C714.82 445.06 710.62 452.22 702.1 459.53L702.04 460.81C701.853 463.554 701.404 466.273 700.7 468.93C700.7 469 700.7 469.09 700.64 469.18C700.359 470.27 700.02 471.44 699.64 472.74L699.36 473.64C699.22 474.05 699.08 474.46 698.93 474.87C698.93 474.87 698.6 475.87 698.5 476.09C698.34 476.53 698.17 476.98 698 477.42C698 477.42 697.67 478.27 697.56 478.57C697.45 478.87 697.18 479.49 696.99 479.96C696.8 480.43 696.69 480.68 696.54 481.04C696.39 481.4 696.14 481.97 695.93 482.46C695.72 482.95 695.62 483.18 695.45 483.55C695.28 483.92 695.03 484.49 694.81 484.98C694.59 485.47 694.47 485.7 694.3 486.06C694.13 486.42 693.85 487.06 693.62 487.5L692.36 490.09L691.04 492.71L690.64 493.48C690 494.7 689.34 495.96 688.64 497.23L688.35 497.77L686.86 500.48L685.35 503.18L683.79 505.89L683.05 507.17C687.194 510.423 690.831 514.275 693.84 518.6C698.84 525.6 708.049 538.37 709.38 552.35C716.039 555.1 723.45 560.99 729.07 573.17C736.78 589.89 736.93 602.48 733.75 611.81C748.12 627.9 744.29 647.561 733.44 674.011C729.532 683.558 724.528 692.618 718.53 701.011C721.41 703.721 724.13 706.33 726.53 708.62C749.37 730.62 752.58 743.96 756.29 765.62C757.38 771.95 759.11 773.221 770.53 776.051C771.81 776.371 773.07 776.681 774.3 777.051C788.5 780.851 797.12 788.79 799.92 800.65C800.14 801.58 800.32 802.521 800.47 803.471V803.77C800.61 804.7 800.71 805.581 800.78 806.451C800.775 806.494 800.775 806.537 800.78 806.58C800.78 807.11 800.84 807.69 800.86 808.29V808.75C800.86 809.21 800.86 809.68 800.86 810.17V810.551C800.767 812.669 800.523 814.777 800.13 816.86C800.128 816.89 800.128 816.921 800.13 816.951C799.648 819.428 798.979 821.865 798.13 824.241C797.521 825.941 796.827 827.61 796.05 829.241C794.456 832.563 792.529 835.716 790.3 838.65L790.1 838.91C789.55 839.63 789.02 840.29 788.47 840.91L788.27 841.14C787.65 841.87 787.06 842.53 786.44 843.19L786.23 843.42C785.53 844.16 784.87 844.821 784.23 845.491L783.99 845.721C783.26 846.421 782.5 847.111 781.75 847.721L781.63 847.83C780.4 848.89 779.06 849.951 777.63 850.991L777.3 851.23C776.69 851.68 776.07 852.121 775.43 852.551L775.05 852.801C771.298 855.298 767.34 857.473 763.22 859.301L762.97 859.41C762.18 859.76 761.34 860.121 760.48 860.471L760.35 860.531C758.22 861.391 756.039 862.19 753.88 862.91C752.88 863.22 751.88 863.54 750.88 863.85L750.48 863.971C749.48 864.26 748.48 864.53 747.3 864.83L745.86 865.18L744.34 865.52C742.97 865.82 741.58 866.081 740.26 866.301C739.16 866.481 738.03 866.64 736.9 866.77H736.74C735.61 866.9 734.49 867 733.41 867.08H733.25C731.69 867.19 730.13 867.241 728.6 867.241C719.013 867.328 709.549 865.087 701.02 860.71L700.94 860.66C700.15 860.26 699.38 859.83 698.63 859.39L698.47 859.301C697.78 858.901 697.05 858.451 696.34 857.991L696.21 857.91C695.5 857.44 694.8 856.97 694.12 856.48L694.03 856.42C690.125 853.606 686.584 850.317 683.49 846.63L683.28 846.4C682.91 845.94 682.54 845.481 682.19 845.031L681.79 844.52C681.45 844.08 681.15 843.671 680.86 843.261L680.33 842.531L679.57 841.41L679.07 840.65L678.38 839.551C678.2 839.261 678.04 838.981 677.87 838.701L677.28 837.701C677.08 837.32 676.91 837.021 676.75 836.701L676.23 835.701C676.07 835.391 675.9 835.041 675.73 834.701C675.73 834.701 675.43 834.09 675.31 833.83C675.19 833.57 674.97 833.07 674.81 832.701V832.6C674.7 832.35 674.59 832.11 674.49 831.86C674.39 831.61 674.16 831.03 673.99 830.6C673.89 830.35 673.81 830.14 673.74 829.94C673.51 829.32 673.29 828.661 673.09 828.031C671.411 822.427 670.286 816.673 669.73 810.85C669.65 810.11 669.57 809.37 669.5 808.63C668.88 802.54 668.5 795.97 668.17 789.63C667.59 779 666.98 768.001 665.24 758.971C664.349 755.089 662.72 751.415 660.44 748.15C654.48 750.944 648.375 753.415 642.15 755.551C639.94 757.151 637.69 758.66 635.43 760.08C633.54 772.08 628.72 788.3 617.31 807.21C617.16 807.45 617.01 807.69 616.85 807.93C616.091 809.088 615.194 810.149 614.18 811.09C613.9 811.35 613.61 811.6 613.32 811.83C612.149 812.791 610.854 813.588 609.47 814.201C609.1 814.36 608.74 814.51 608.36 814.64L608.16 814.71C607.205 815.05 606.221 815.301 605.22 815.46C604.386 815.59 603.544 815.66 602.7 815.67H602.46C601.858 815.672 601.257 815.639 600.66 815.571C599.915 815.497 599.177 815.373 598.45 815.201C598.05 815.101 597.64 814.98 597.25 814.85C594.263 813.915 591.592 812.177 589.527 809.826C587.462 807.476 586.082 804.602 585.54 801.52C584.54 795.7 582.63 786.04 580.16 776.41H578.44C573.698 776.396 568.961 776.118 564.25 775.58C561.19 776.034 558.133 776.41 555.08 776.71C554.92 782.15 555.58 786.65 557.08 790.18C560.62 798.66 566.2 808.18 571.6 817.34C573.32 820.26 575.02 823.151 576.6 825.991L577.73 827.991C578.48 829.331 579.22 830.651 579.92 831.991C580.29 832.661 580.64 833.321 580.99 833.991C584.185 839.76 586.782 845.842 588.74 852.14C588.92 852.79 589.1 853.46 589.26 854.14C589.26 854.31 589.42 854.87 589.42 854.87C589.52 855.29 589.61 855.71 589.69 856.14C589.69 856.39 589.85 857.011 589.85 857.011C589.92 857.391 589.99 857.791 590.06 858.201C590.13 858.61 590.14 858.78 590.18 859.06V859.19C590.23 859.56 590.28 859.94 590.32 860.33C590.36 860.72 590.39 861.01 590.43 861.33C590.47 861.65 590.5 862.11 590.53 862.48C590.56 862.85 590.53 863.24 590.6 863.65C590.67 864.06 590.6 864.32 590.65 864.65C590.7 864.98 590.65 865.48 590.65 865.91C590.65 866.34 590.65 866.58 590.65 866.91C590.65 867.24 590.65 867.791 590.65 868.261V869.06C590.65 869.61 590.65 870.13 590.57 870.65C590.57 870.65 590.52 871.291 590.52 871.301C590.52 871.881 590.43 872.461 590.36 873.051C590.36 873.141 590.36 873.29 590.36 873.41C589.814 878.2 588.675 882.902 586.97 887.41V887.46C586.68 888.25 586.36 889.03 585.97 889.81V889.91C585.6 890.74 585.25 891.501 584.88 892.261V892.35C579.63 903.02 571.33 911.64 560.2 917.98L560.05 918.071C559.11 918.601 558.14 919.13 557.16 919.62C556.18 920.11 555.11 920.62 554.11 921.09L553.87 921.201C552.69 921.731 551.43 922.26 550.13 922.77L548.7 923.321L547.32 923.821C546.1 924.251 545.05 924.6 544.04 924.91C543.03 925.22 541.79 925.58 540.7 925.91C539.78 926.16 538.82 926.4 537.87 926.64H537.69C536.51 926.92 535.34 927.19 534.19 927.42H534.04C533.04 927.61 532.13 927.791 531.2 927.951H530.97C526.618 928.689 522.213 929.067 517.8 929.08L516.95 929.11ZM397.61 502.23C398.72 502.57 399.82 502.94 400.92 503.34C413.952 508.288 426.666 514.036 438.99 520.55C440.52 519.881 442.111 519.359 443.74 518.99C444.115 513.462 445.207 508.007 446.99 502.76C449.38 495.632 453.353 489.136 458.61 483.76C457.94 482.76 457.27 481.82 456.61 480.87C453.33 476.37 450.05 472.59 446.25 468.22L446.1 468.05C431.95 466.504 417.898 464.167 404.01 461.05C406.989 463.114 409.12 466.186 410.01 469.699C410.899 473.211 410.487 476.928 408.85 480.16L397.61 502.23Z" fill="#231F20"/>
<path d="M620.77 738.58C620.77 738.58 626.51 762.8 604.27 799.52C604.04 799.903 603.698 800.207 603.291 800.392C602.883 800.576 602.429 800.631 601.989 800.551C601.549 800.47 601.144 800.258 600.828 799.941C600.512 799.625 600.3 799.22 600.22 798.78C597.87 785.67 591.43 753.53 583.07 743.03L620.77 738.58Z" fill="#49BEA2"/>
<path opacity="0.49" d="M620.77 738.58L583.07 743.03C586.07 746.84 588.88 753.51 591.31 761.03C598.07 758.79 607.62 755.59 610.88 754.31C610.88 754.31 611.31 778.18 601.51 800.31C601.997 800.528 602.547 800.559 603.055 800.399C603.564 800.239 603.996 799.897 604.27 799.44C626.51 762.83 620.77 738.58 620.77 738.58Z" fill="#3D9480"/>
<path d="M709.3 618.85C720.24 612.09 725.24 600.61 715.42 579.32C705.2 557.19 689.75 567.25 689.75 567.25C698.06 557.94 695.68 546.78 681.63 527.25C667.58 507.72 658.06 519.17 658.06 519.17C661.79 506.83 655.24 497.17 635.06 484.79C617 473.79 611.06 493.9 610.01 498.32C610.64 494.91 611.81 481.46 595.11 468.01C575.79 452.45 545.18 464.19 545.18 464.19L524.69 475.92L501.12 477.19C501.12 477.19 469.04 483.94 461.26 507.5C454.53 527.85 462.82 538.5 465.2 541.04C461.91 537.9 446.01 524.23 436.82 543.28C426.53 564.6 426.3 576.28 436.13 584.65C436.13 584.65 421.92 580.18 420.73 604.23C419.54 628.28 423.6 638.95 435.63 642.23C435.63 642.23 417.19 642.16 420.63 666.29C423.93 689.51 434.36 696.43 447.22 696.17C444.48 696.47 438.94 697.99 437.69 705.4C436.02 715.34 437.69 725.96 465.41 743.17C529.95 783.26 605.24 748.92 605.24 748.92C605.24 748.92 689.78 740.77 719.56 668.19C731.94 638.01 729.14 628.87 722.34 621.43C717.25 615.88 711.76 617.58 709.3 618.85Z" fill="#7D5A53"/>
<path d="M658.06 519.14C658.175 515.927 657.63 512.724 656.46 509.73C655.266 507.051 653.569 504.627 651.46 502.59C647.29 498.38 642.03 494.85 636.69 491.31C635.37 490.41 633.99 489.56 632.64 488.68C631.488 487.919 630.278 487.25 629.02 486.68C627.902 486.179 626.726 485.816 625.52 485.6C624.412 485.428 623.281 485.472 622.19 485.73C619.95 486.21 617.63 487.94 615.58 490.23C613.444 492.728 611.555 495.427 609.94 498.29C609.771 494.734 610.371 491.183 611.7 487.88C612.414 486.107 613.381 484.447 614.57 482.95C615.921 481.249 617.637 479.874 619.591 478.925C621.545 477.977 623.688 477.479 625.86 477.47C627.971 477.463 630.068 477.801 632.07 478.47C633.92 479.097 635.702 479.908 637.39 480.89C638.85 481.79 640.32 482.65 641.77 483.6C644.688 485.519 647.465 487.644 650.08 489.96C652.797 492.376 655.187 495.136 657.19 498.17C659.311 501.35 660.569 505.027 660.84 508.84C661.043 512.483 660.068 516.094 658.06 519.14Z" fill="#221E20"/>
<path d="M604.814 757.545C670.99 738.018 707.531 664.217 686.43 592.707C665.329 521.197 594.577 479.056 528.401 498.583C462.224 518.11 425.684 591.91 446.785 663.42C467.886 734.931 538.637 777.072 604.814 757.545Z" fill="#3C2415"/>
<path d="M602.599 750.003C664.919 731.614 699.331 662.116 679.46 594.774C659.589 527.433 592.961 487.749 530.641 506.138C468.321 524.527 433.909 594.025 453.78 661.367C473.651 728.708 540.279 768.392 602.599 750.003Z" fill="#F5E099"/>
<path d="M596.25 511.92C623.47 527.55 647.13 552.28 656.59 584.35C676.46 651.69 630.91 724.47 579.72 739.57C559.94 745.4 536.18 743.57 513.32 735.17C542.32 752.06 575.91 758.03 602.38 750.22C653.56 735.12 699.11 662.34 679.25 595C667.25 554.26 632.25 525.36 596.25 511.92Z" fill="#F0CC6D"/>
<path d="M434.49 427.78C462.38 472.1 472.64 459 500.22 541.57C500.22 541.57 505.76 555.01 542.99 544.03C580.22 533.05 577.57 518.75 577.57 518.75C555.92 434.44 571.65 439.86 571.02 387.5L502.75 407.64L434.49 427.78Z" fill="#49BEA2"/>
<path d="M566.25 443.13C567.2 426.37 571.31 414.77 570.98 387.5L502.71 407.64L434.45 427.78C448.99 450.89 458.74 458.39 468.65 471.98C488.24 473.11 506.75 472.15 520.74 467.98C534.73 463.81 550.6 454.68 566.25 443.13Z" fill="#3D9480"/>
<path d="M515.6 450.44C477.43 461.7 405.67 449.44 370.11 435.33C315.98 413.99 312.32 392.58 312.32 392.58C264.65 208.22 430.43 161.75 430.43 161.75C430.43 161.75 594.9 110.75 654.93 291.51C654.93 291.51 663.28 313.51 629.59 358.78C606.76 389.5 553.77 439.18 515.6 450.44Z" fill="#49BEA2"/>
<path opacity="0.49" d="M654.93 291.51C645.33 262.62 633.05 239.68 619.22 221.51L618.5 220.6C617.85 219.75 617.19 218.91 616.5 218.09C615.81 217.27 615.34 216.64 614.75 215.93C614.16 215.22 613.42 214.31 612.75 213.53C612.08 212.75 611.57 212.16 610.97 211.53C610.37 210.9 609.62 209.98 608.97 209.23C608.32 208.48 607.78 207.95 607.19 207.32C605.72 205.75 604.25 204.23 602.76 202.75L601.45 201.45C600.72 200.74 599.97 200.06 599.23 199.36C598.64 198.81 598.06 198.26 597.47 197.73L596.88 197.17C524.99 132.56 430.44 161.83 430.44 161.83C430.44 161.83 315.59 194.05 304.58 311.18C345.92 296.1 446.24 261.01 548.16 236.57C597.77 341.33 569.03 405.79 546.35 435.75C578.42 415.58 612.49 381.89 629.6 358.86C663.25 313.47 654.93 291.51 654.93 291.51Z" fill="#3D9480"/>
<path d="M353.53 395.69C353.53 395.69 376.42 399.41 373.41 381.69" stroke="#231F20" stroke-width="5.68" stroke-miterlimit="10" stroke-linecap="round"/>
<path d="M595.77 324.229C583.77 349.139 561.55 349.579 541.23 357.229C520.91 364.879 500.79 398.01 496.23 399.34C491.67 400.67 456.85 383.8 435.61 388.34C414.37 392.88 395.48 404.6 371.87 390.2" stroke="#231F20" stroke-width="5.68" stroke-miterlimit="10" stroke-linecap="round"/>
<path d="M614.14 318.81C614.14 318.81 596.93 334.36 589.82 317.81" stroke="#231F20" stroke-width="5.68" stroke-miterlimit="10" stroke-linecap="round"/>
<path d="M495.47 396.69C495.47 396.69 468.05 339.59 470.14 296.36" stroke="#231F20" stroke-width="5.68" stroke-miterlimit="10" stroke-linecap="round"/>
<path d="M472.079 361.06C471.834 361.139 471.577 361.179 471.319 361.18H471.049C470.94 361.187 470.829 361.187 470.719 361.18L470.319 361.1C470.099 361.04 469.909 360.99 469.749 360.93C469.409 360.82 469.129 360.71 468.849 360.59C468.299 360.36 467.849 360.12 467.309 359.87C466.309 359.38 465.389 358.87 464.469 358.35C462.629 357.35 460.849 356.23 459.089 355.14C458.66 354.839 458.354 354.392 458.232 353.882C458.109 353.372 458.177 352.834 458.423 352.371C458.669 351.907 459.075 351.55 459.567 351.366C460.058 351.181 460.599 351.183 461.089 351.37C462.929 352.25 464.77 353.1 466.62 353.88C467.54 354.28 468.46 354.65 469.359 354.98C469.809 355.14 470.259 355.3 470.669 355.41C470.853 355.471 471.04 355.521 471.229 355.56H471.409H471.269H471.099C470.872 355.563 470.646 355.6 470.429 355.67C470.792 355.543 471.177 355.491 471.561 355.517C471.945 355.544 472.319 355.648 472.662 355.823C473.004 355.998 473.307 356.241 473.553 356.537C473.798 356.833 473.981 357.176 474.09 357.545C474.2 357.914 474.233 358.301 474.188 358.683C474.143 359.065 474.021 359.434 473.829 359.767C473.637 360.1 473.38 360.391 473.072 360.622C472.764 360.853 472.413 361.019 472.039 361.11L472.079 361.06Z" fill="#231F20"/>
<path d="M494.43 348.58C494.213 348.637 494.007 348.728 493.82 348.85L493.67 348.95L493.57 349.03C493.617 348.994 493.66 348.954 493.7 348.91C493.81 348.8 493.96 348.65 494.1 348.49C494.38 348.16 494.67 347.79 494.96 347.41C495.54 346.64 496.11 345.83 496.67 345C497.79 343.34 498.88 341.62 499.95 339.89C500.251 339.46 500.698 339.155 501.208 339.032C501.718 338.91 502.256 338.978 502.719 339.224C503.183 339.469 503.54 339.876 503.725 340.367C503.909 340.858 503.907 341.4 503.72 341.89C502.83 343.77 501.92 345.64 500.94 347.51C500.45 348.45 499.94 349.38 499.38 350.33C499.1 350.8 498.81 351.27 498.47 351.77C498.296 352.041 498.105 352.302 497.9 352.55C497.8 352.68 497.67 352.83 497.52 352.99C497.37 353.15 497.32 353.19 497.22 353.28L496.97 353.49L496.9 353.54L496.74 353.64C496.524 353.782 496.288 353.89 496.04 353.96C495.317 354.174 494.539 354.091 493.877 353.731C493.215 353.371 492.723 352.763 492.51 352.04C492.296 351.317 492.379 350.54 492.739 349.878C493.099 349.216 493.707 348.724 494.43 348.51V348.58Z" fill="#231F20"/>
<path d="M493.773 192.856C496.791 187.312 491.935 178.842 482.927 173.939C473.92 169.036 464.171 169.556 461.153 175.101C458.135 180.645 462.991 189.114 471.999 194.017C481.007 198.921 490.756 198.401 493.773 192.856Z" fill="#3D9480"/>
<path d="M496.791 221.12C499.75 217.321 497.322 210.48 491.366 205.84C485.41 201.201 478.183 200.519 475.223 204.318C472.264 208.117 474.692 214.958 480.648 219.598C486.604 224.238 493.831 224.919 496.791 221.12Z" fill="#3D9480"/>
<path d="M331.495 290.236C333.658 283.003 331.671 276.021 327.057 274.641C322.443 273.261 316.949 278.006 314.786 285.239C312.623 292.472 314.61 299.455 319.224 300.834C323.838 302.214 329.332 297.469 331.495 290.236Z" fill="#3D9480"/>
<path d="M518.834 208.233C520.41 204.709 517.216 199.853 511.7 197.387C506.184 194.92 500.436 195.778 498.86 199.302C497.284 202.827 500.478 207.683 505.994 210.149C511.51 212.615 517.258 211.757 518.834 208.233Z" fill="#3D9480"/>
<path d="M697.58 161.83C706.48 191.99 589.78 213.83 450.04 255.08C310.3 296.33 200.42 341.28 191.53 311.08C182.64 280.88 275.42 178.02 415.16 136.79C554.9 95.5595 688.69 131.67 697.58 161.83Z" fill="#EFCB6C"/>
<path d="M673.83 166.63C668.88 149.83 625.18 131.21 563.29 125.12L571.02 129.76C571.02 129.76 514.32 150.76 513.27 165.46C512.22 180.16 395.43 224.46 395.43 224.46C395.43 224.46 324.8 299.04 193.9 293.91C191.09 300.91 190.24 306.8 191.53 311.16C194.4 320.89 207.77 322.79 229.25 319.54C276.33 308.25 346.43 283.47 426.25 259.91C566.04 218.65 682.73 196.79 673.83 166.63Z" fill="#E2B654"/>
<path d="M284.81 235.03C284.81 235.03 260 131.57 281.91 90.4999C281.91 90.4999 334.76 34.98 383.46 20.62C432.16 6.26002 507.46 23.9799 507.46 23.9799C507.46 23.9799 578.14 110.22 582.04 147.36C582.04 147.36 497.47 208.17 441.15 224.79C384.83 241.41 284.81 235.03 284.81 235.03Z" fill="#EFCB6C"/>
<path d="M582 147.36C579.91 127.45 558.631 93.4402 539.341 66.1602C513.061 104.37 439.241 190.41 284.811 235.03C284.811 235.03 384.811 241.4 441.111 224.79C497.411 208.18 582 147.36 582 147.36Z" fill="#E2B654"/>
<path d="M582 147.36C581 138.17 576 125.97 568.92 112.82C568.92 112.82 478.13 164.68 427.76 179.54C377.39 194.4 277.89 198.68 277.89 198.68C281.16 219.78 284.81 235.03 284.81 235.03C284.81 235.03 384.81 241.4 441.11 224.79C497.41 208.18 582 147.36 582 147.36Z" fill="#A873AC"/>
<path d="M332.46 299.08C332.46 299.08 337.13 265.47 369.67 259.67" stroke="#231F20" stroke-width="5.68" stroke-miterlimit="10" stroke-linecap="round"/>
<path d="M586.6 224.11C586.6 224.11 564.43 198.409 533.95 211.209" stroke="#231F20" stroke-width="5.68" stroke-miterlimit="10" stroke-linecap="round"/>
<path d="M558.111 594.393C579.839 587.982 596.66 580.096 595.682 576.78C594.704 573.464 576.296 575.974 554.567 582.385C532.839 588.797 516.018 596.682 516.996 599.998C517.975 603.314 536.382 600.805 558.111 594.393Z" fill="#F7A33F"/>
<path d="M586.018 688.97C607.747 682.559 624.568 674.673 623.589 671.357C622.611 668.041 604.203 670.551 582.475 676.962C560.746 683.374 543.925 691.259 544.903 694.575C545.882 697.891 564.29 695.382 586.018 688.97Z" fill="#F7A33F"/>
<path d="M573.051 644.999C603.112 636.129 626.688 626.25 625.709 622.934C624.731 619.618 599.569 624.121 569.508 632.991C539.447 641.861 515.871 651.74 516.85 655.056C517.828 658.372 542.991 653.869 573.051 644.999Z" fill="#F7A33F"/>
<path d="M394.15 367.95C415.462 367.95 432.74 350.672 432.74 329.36C432.74 308.047 415.462 290.77 394.15 290.77C372.837 290.77 355.56 308.047 355.56 329.36C355.56 350.672 372.837 367.95 394.15 367.95Z" fill="#F7F7E2"/>
<path d="M431.17 318.44C433.006 323.252 433.8 328.399 433.5 333.54C433.179 338.768 431.786 343.873 429.41 348.54C427.004 353.258 423.663 357.436 419.59 360.82C415.493 364.223 410.745 366.755 405.637 368.261C400.529 369.767 395.167 370.216 389.88 369.58C384.618 368.946 379.541 367.245 374.96 364.58C370.428 361.952 366.489 358.414 363.39 354.19C360.339 350.041 358.208 345.288 357.14 340.25C360.686 349.591 367.56 357.291 376.44 361.87C385.124 366.279 395.166 367.198 404.507 364.441C413.848 361.684 421.781 355.458 426.68 347.04C431.652 338.387 433.251 328.201 431.17 318.44Z" fill="#231F20"/>
<path d="M431.169 318.44C427.619 309.103 420.741 301.41 411.86 296.84C403.177 292.43 393.137 291.507 383.796 294.261C374.456 297.014 366.522 303.235 361.62 311.65C356.643 320.313 355.047 330.51 357.139 340.28C355.305 335.467 354.515 330.321 354.82 325.18C355.136 319.953 356.525 314.847 358.899 310.18C361.309 305.465 364.65 301.287 368.719 297.9C372.814 294.493 377.561 291.958 382.67 290.45C387.778 288.942 393.141 288.492 398.429 289.13C403.692 289.762 408.769 291.464 413.35 294.13C417.884 296.759 421.826 300.296 424.929 304.52C427.97 308.666 430.097 313.411 431.169 318.44Z" fill="#231F20"/>
<path d="M395.42 359.7C409.403 359.7 420.74 348.363 420.74 334.38C420.74 320.396 409.403 309.06 395.42 309.06C381.436 309.06 370.1 320.396 370.1 334.38C370.1 348.363 381.436 359.7 395.42 359.7Z" fill="#080C0D"/>
<path d="M551.859 321.42C573.172 321.42 590.45 304.143 590.45 282.83C590.45 261.518 573.172 244.24 551.859 244.24C530.547 244.24 513.27 261.518 513.27 282.83C513.27 304.143 530.547 321.42 551.859 321.42Z" fill="#F7F7E2"/>
<path d="M588.879 271.92C590.716 276.732 591.511 281.878 591.209 287.02C590.885 292.247 589.493 297.351 587.12 302.02C584.715 306.741 581.374 310.923 577.3 314.31C573.203 317.713 568.455 320.244 563.347 321.75C558.239 323.257 552.877 323.706 547.59 323.07C542.33 322.427 537.255 320.726 532.669 318.07C528.139 315.435 524.198 311.899 521.09 307.68C518.046 303.527 515.919 298.776 514.85 293.74C518.393 303.08 525.268 310.777 534.149 315.35C542.833 319.756 552.874 320.676 562.214 317.921C571.554 315.166 579.487 308.944 584.389 300.53C589.364 291.873 590.963 281.684 588.879 271.92Z" fill="#231F20"/>
<path d="M588.88 271.92C585.327 262.583 578.45 254.887 569.57 250.309C560.886 245.905 550.846 244.987 541.507 247.742C532.167 250.497 524.234 256.717 519.33 265.13C514.353 273.792 512.757 283.99 514.85 293.759C513.012 288.948 512.221 283.801 512.53 278.66C512.847 273.433 514.235 268.327 516.61 263.66C519.017 258.94 522.358 254.759 526.43 251.37C530.528 247.968 535.275 245.436 540.383 243.929C545.491 242.421 550.852 241.969 556.14 242.599C561.4 243.241 566.476 244.942 571.06 247.599C575.588 250.238 579.528 253.773 582.64 257.989C585.679 262.141 587.806 266.888 588.88 271.92Z" fill="#231F20"/>
<path d="M553.13 313.18C567.113 313.18 578.45 301.844 578.45 287.86C578.45 273.876 567.113 262.54 553.13 262.54C539.146 262.54 527.81 273.876 527.81 287.86C527.81 301.844 539.146 313.18 553.13 313.18Z" fill="#080C0D"/>
<path d="M530.37 363.58C530.37 363.58 543.37 410.15 505.37 421.37C467.37 432.59 451.75 388.19 451.75 388.19L498.68 398.7L530.37 363.58Z" fill="#231F20"/>
<path d="M527.13 404.58C522.998 401.969 518.354 400.278 513.511 399.619C508.668 398.961 503.741 399.352 499.062 400.765C494.383 402.178 490.064 404.58 486.395 407.809C482.726 411.039 479.795 415.019 477.8 419.48C485.22 423.12 494.34 424.54 505.35 421.3C516.36 418.06 523.13 411.82 527.13 404.58Z" fill="#F16C6C"/>
<path d="M649.98 406.23C649.98 406.23 642.2 401.51 640.57 415.1C638.94 428.69 638.32 440.4 638.32 440.4L653.53 438.27C653.53 438.27 657.6 412.58 649.98 406.23Z" fill="#0D3A54"/>
<path d="M679.1 408.14C679.1 408.14 673.47 400.98 667.17 413.14C660.87 425.3 656.17 436.03 656.17 436.03L671.17 439.39C671.17 439.39 684.01 416.72 679.1 408.14Z" fill="#0D3A54"/>
<path d="M700.25 436.5C700.25 436.5 699.37 427.44 687.51 434.28C675.65 441.12 665.91 447.63 665.91 447.63L676.72 458.54C676.72 458.54 699.73 446.38 700.25 436.5Z" fill="#0D3A54"/>
<path d="M615.08 429.45C615.08 429.45 607.13 433.9 618.16 442.01C629.19 450.12 639.06 456.44 639.06 456.44L644.71 442.16C644.71 442.16 624.32 425.94 615.08 429.45Z" fill="#0D3A54"/>
<path d="M667.48 425.44C667.48 425.44 637.74 415.64 622.34 442.78C606.94 469.92 591.08 512.46 591.93 525.06C592.78 537.66 603.77 550.16 609.79 552.36C615.81 554.56 628.25 564 645.08 538.79C661.91 513.58 686.08 476.49 687.08 459.79C688.08 443.09 677.68 429.26 667.48 425.44Z" fill="#49BEA2"/>
<path opacity="0.49" d="M686.161 465.12C679.401 475.12 637.731 533.04 592.351 519.12C592.004 521.073 591.863 523.057 591.931 525.04C592.781 537.64 603.771 550.14 609.791 552.34C615.811 554.54 628.251 563.98 645.081 538.77C660.311 515.99 681.511 483.48 686.161 465.12Z" fill="#3D9480"/>
<path d="M350.049 533.27C350.049 533.27 366.449 506.611 395.729 517.421C425.009 528.231 464.549 550.511 472.029 560.691C479.509 570.871 479.169 587.51 476.029 593.08C472.889 598.65 469.429 613.87 440.299 605.46C411.169 597.05 368.799 584.281 357.299 572.161C345.799 560.041 344.719 542.77 350.049 533.27Z" fill="#49BEA2"/>
<path opacity="0.49" d="M475.99 593.08C478.9 587.97 479.41 573.57 473.72 563.37C454.72 608.66 370.96 580.99 370.96 580.99V581.28C389.1 590.39 418.41 599.16 440.26 605.46C469.39 613.87 472.81 598.64 475.99 593.08Z" fill="#3D9480"/>
<path d="M395.405 473.33L105.354 326.496L14.9772 505.024L305.029 651.857L395.405 473.33Z" fill="#FBFBEA"/>
<path d="M177.8 488.58L105.38 326.52L395.38 473.35L221.9 510.93C202.85 515.05 185.77 506.4 177.8 488.58Z" fill="#DDDCC5"/>
<path d="M352.36 514.02C352.034 513.063 351.962 512.038 352.154 511.046C352.345 510.053 352.792 509.127 353.45 508.36C355.11 506.55 358.52 505.36 365.32 510.09C371.32 514.28 376.8 518.34 380.65 521.27C383.65 523.57 384.98 529.22 382.1 531.67L379.01 534.3C376.92 536.08 372.7 535.05 370.48 533.44C364.77 529.31 354.51 521.09 352.36 514.02Z" fill="#0D3A54"/>
<path d="M647.51 712.86C649.67 716.35 675.63 734.12 679.87 756.06C684.11 778 682.12 807.14 687.29 823.45C691.87 837.86 710.63 860.01 746.35 849.45C782.07 838.89 786.43 815.45 785.83 807.55C785.23 799.65 781.7 794.39 770.37 791.36C759.04 788.33 744.67 786.77 741.46 768.01C738.25 749.25 736.32 738.81 716.07 719.28C695.82 699.75 675.19 680.91 664.59 682.28C653.99 683.65 639.75 701.64 647.51 712.86Z" fill="#49BEA2"/>
<path d="M785.25 803.94C785.527 805.134 785.711 806.348 785.8 807.57C785.959 811.498 785.329 815.419 783.95 819.1C779.1 816.83 772.48 812.66 772.35 806.7C772.22 800.74 779.76 802.12 785.25 803.94Z" fill="#0D3A54"/>
<path d="M771.78 836.39C767.41 830.22 760.54 819.06 764.59 814.75C768.81 810.26 777.99 818.19 782.51 822.64C779.931 827.921 776.276 832.605 771.78 836.39Z" fill="#0D3A54"/>
<path d="M753.07 827.27C758.07 823.44 765.81 832.07 770.07 837.76C765.356 841.411 760.148 844.374 754.6 846.56C751.61 839.31 749.03 830.38 753.07 827.27Z" fill="#0D3A54"/>
<path d="M746.35 849.47C743.545 850.303 740.689 850.954 737.8 851.419C736.72 846.679 736.47 841.029 739.94 837.709C744.94 832.919 749.58 842.329 751.71 847.709C750 848.319 748.25 848.91 746.35 849.47Z" fill="#0D3A54"/>
<path d="M700.75 751.78C700.75 751.78 704.54 765.16 717.54 763.3C730.54 761.44 728.08 748.88 723.92 746.3C719.76 743.72 714.92 746.7 713.82 750.72" stroke="#1F705F" stroke-width="2.89" stroke-miterlimit="10" stroke-linecap="round"/>
<path opacity="0.49" d="M737.8 851.42C723.44 846.47 705.53 846.04 700.75 802.42C695.97 758.8 696.07 751.1 674.32 720.19C652.57 689.28 670.57 683.19 670.57 683.19C668.663 682.443 666.61 682.146 664.57 682.32C653.96 683.71 639.73 701.64 647.49 712.86C649.65 716.35 675.61 734.12 679.85 756.06C684.09 778 682.1 807.14 687.27 823.45C691.47 836.66 707.6 856.36 737.78 851.45L737.8 851.42Z" fill="#3D9480"/>
<path d="M546.251 742.05C546.391 746.15 534.591 775.319 543.201 795.939C551.811 816.559 569.601 839.72 574.321 856.18C578.481 870.71 575.111 899.54 539.521 910.53C503.931 921.52 487.351 904.419 483.461 897.479C479.571 890.539 479.621 884.229 487.371 875.479C495.121 866.729 506.241 857.48 498.541 840.03C490.841 822.58 486.651 812.859 492.711 785.389C498.771 757.919 505.53 730.809 515.13 726.099C524.73 721.389 546.471 728.41 546.251 742.05Z" fill="#49BEA2"/>
<path d="M481.87 894.15C482.299 895.299 482.817 896.412 483.42 897.48C485.457 900.84 488.146 903.758 491.33 906.06C494.12 901.48 497.33 894.34 494.13 889.31C490.93 884.28 485.46 889.58 481.87 894.15Z" fill="#0D3A54"/>
<path d="M511.07 913.71C511.29 906.16 510.84 893.05 505.07 891.71C499.07 890.3 495.8 901.98 494.51 908.2C499.585 911.172 505.226 913.048 511.07 913.71Z" fill="#0D3A54"/>
<path d="M521.61 895.76C515.34 895.32 513.61 906.76 513.21 913.93C519.155 914.364 525.131 913.953 530.96 912.71C529.49 904.98 526.69 896.11 521.61 895.76Z" fill="#0D3A54"/>
<path d="M539.48 910.579C542.279 909.719 545.021 908.683 547.69 907.479C545.96 902.929 543.05 898.079 538.32 897.229C531.52 896.009 532.85 906.42 534.04 912.07C535.81 911.58 537.61 911.109 539.48 910.579Z" fill="#0D3A54"/>
<path d="M523.41 803.92C523.41 803.92 527.65 817.18 515.8 822.82C503.95 828.46 499.04 816.64 501.07 812.17C503.1 807.7 508.82 807.5 511.93 810.26" stroke="#1F705F" stroke-width="2.89" stroke-miterlimit="10" stroke-linecap="round"/>
<path opacity="0.49" d="M547.69 907.43C556.91 895.35 571.59 885.09 551.41 846.07C531.23 807.05 526.91 800.73 527.92 762.95C528.93 725.17 510.59 730.1 510.59 730.1C511.763 728.439 513.303 727.07 515.09 726.1C524.69 721.39 546.47 728.45 546.21 742.1C546.35 746.2 534.55 775.37 543.16 795.99C551.77 816.61 569.56 839.77 574.28 856.23C578.1 869.55 575.56 894.88 547.69 907.48V907.43Z" fill="#3D9480"/>
<path d="M467.3 70.0096C489.205 66.9159 510.863 62.271 532.11 56.1097C518.49 37.4897 507.42 23.9796 507.42 23.9796C507.42 23.9796 446.91 9.72974 399.3 17.1397C410.07 43.3597 430.83 75.1496 467.3 70.0096Z" fill="#CB9B3B"/>
<path d="M363.61 83.5796C371.45 69.5796 365.36 45.9196 359.81 30.3496C319.09 51.4296 281.91 90.4695 281.91 90.4695C274.13 105.049 272.25 127.47 273.04 150.35C301 137 354.03 100.67 363.61 83.5796Z" fill="#CB9B3B"/>
<path d="M524.476 74.3973C529.842 69.0315 527.186 57.6756 518.543 49.0333C509.901 40.391 498.545 37.735 493.18 43.1008C487.814 48.4666 490.47 59.8223 499.112 68.4646C507.754 77.1069 519.11 79.7631 524.476 74.3973Z" fill="white"/>
<path d="M416.634 536.751C418.223 532.902 414.346 527.65 407.975 525.02C401.604 522.39 395.151 523.378 393.562 527.228C391.974 531.077 395.85 536.329 402.221 538.959C408.592 541.589 415.045 540.6 416.634 536.751Z" fill="white"/>
<path d="M718.243 732.779C720.502 730.333 718.012 724.358 712.68 719.435C707.349 714.512 701.195 712.504 698.936 714.951C696.676 717.397 699.167 723.372 704.498 728.295C709.83 733.219 715.983 735.226 718.243 732.779Z" fill="white"/>
<path d="M509.34 785.936C510.779 778.682 509.249 772.267 505.923 771.607C502.597 770.947 498.734 776.293 497.295 783.547C495.856 790.8 497.386 797.216 500.712 797.875C504.038 798.535 507.901 793.19 509.34 785.936Z" fill="white"/>
<path d="M227.824 279.589C235.005 271.03 237.651 261.427 233.734 258.14C229.816 254.852 220.818 259.126 213.636 267.685C206.455 276.243 203.809 285.847 207.726 289.134C211.644 292.421 220.642 288.148 227.824 279.589Z" fill="white"/>
<path d="M503.23 768.8C504.672 768.8 505.84 767.632 505.84 766.19C505.84 764.749 504.672 763.58 503.23 763.58C501.789 763.58 500.62 764.749 500.62 766.19C500.62 767.632 501.789 768.8 503.23 768.8Z" fill="white"/>
<path d="M237.81 254.2C240.56 254.2 242.79 251.971 242.79 249.22C242.79 246.47 240.56 244.24 237.81 244.24C235.06 244.24 232.83 246.47 232.83 249.22C232.83 251.971 235.06 254.2 237.81 254.2Z" fill="white"/>
</g>
<defs>
<clipPath id="clip0_5470_18983">
<rect width="800.87" height="958.66" fill="white"/>
</clipPath>
</defs>
</svg>
