<svg width="685" height="520" viewBox="0 0 685 520" fill="none" xmlns="http://www.w3.org/2000/svg">
<g clip-path="url(#clip0_6315_445)">
<path d="M21.2801 177.54C23.7222 177.535 26.1258 176.93 28.2801 175.78C29.5001 175.13 151.03 110.67 207.57 107.34C213.97 106.97 220.13 106.78 225.87 106.78C276.24 106.78 309.52 121.15 369.67 155.52C416.38 182.19 462.1 195.71 505.61 195.71C565.45 195.71 621.08 170.42 670.98 120.52C673.474 117.998 674.994 114.673 675.269 111.136C675.544 107.6 674.556 104.08 672.482 101.202C670.408 98.3246 667.381 96.2752 663.939 95.418C660.496 94.5608 656.862 94.9513 653.68 96.5201C649.949 98.2585 646.123 99.7842 642.22 101.09C641.087 101.483 639.887 101.883 638.62 102.29C637.35 102.7 636 103.12 634.62 103.54C633.24 103.96 631.71 104.38 630.16 104.8C628.61 105.22 626.89 105.66 625.27 106.06C619.72 107.41 613.98 108.56 608.27 109.48L605.1 109.96C594.395 111.496 583.594 112.264 572.78 112.26C530.91 112.26 489.51 101 449.72 78.7901C439.19 72.9101 429.45 67.4401 420.41 62.3501C396.86 49.1101 378.25 38.6601 361.93 30.1801C358.38 28.3401 355.11 26.6801 351.93 25.1001C349.76 24.0201 347.63 22.9901 345.54 21.9901C342.37 20.4801 339.26 19.0501 336.3 17.7501C329.01 14.5301 322.3 11.8901 315.77 9.69012C313.86 9.05012 311.93 8.43014 310.04 7.86014C307.19 6.99014 304.3 6.20011 301.46 5.49011C300.46 5.25011 299.55 5.02014 298.59 4.80014C296.69 4.36014 294.75 3.94013 292.83 3.57013C291.83 3.38013 290.9 3.20012 289.93 3.03012C277.562 0.907866 265.028 -0.09619 252.48 0.0301188C250.48 0.0301188 248.457 0.0468038 246.41 0.0801372C239.85 0.210137 232.74 0.510119 224.67 1.03012C222.94 1.14012 221.19 1.29013 219.46 1.48013C216.06 1.84013 212.58 2.35011 209.1 2.99011C207.41 3.30011 205.68 3.66013 203.96 4.04013C107.47 25.5701 13.3801 148.29 9.42008 153.5C7.72843 155.728 6.69364 158.385 6.43262 161.171C6.17161 163.956 6.69476 166.759 7.94299 169.263C9.19121 171.767 11.1148 173.871 13.4963 175.339C15.8778 176.807 18.6225 177.58 21.4201 177.57L21.2801 177.54Z" fill="#231F20"/>
<path d="M21.2697 343.259C23.9895 343.259 26.658 342.519 28.9897 341.119C29.1397 341.029 44.6097 331.769 66.9397 320.209L69.9397 318.659C91.6418 307.384 113.964 297.344 136.8 288.589C138.04 288.119 139.29 287.659 140.53 287.209C143.05 286.289 145.53 285.409 147.96 284.589C158.385 280.951 169.029 277.975 179.83 275.679C183.17 275.009 186.4 274.449 189.43 274.029C190.43 273.889 191.43 273.759 192.43 273.649C195.942 273.237 199.474 273.023 203.01 273.009C204.01 273.009 205.06 273.009 206.01 273.069L211.92 273.329C215.793 273.509 219.583 273.692 223.29 273.879C228.29 274.129 232.7 274.389 236.73 274.659C274.15 277.179 303.09 282.659 340.28 303.129C346.54 306.569 353.09 310.479 359.76 314.749C362.67 316.619 365.67 318.599 368.67 320.629L371.05 322.219L373.43 323.799L375.83 325.359L378.23 326.889L380.71 328.409L383.12 329.909L385.61 331.409L388.04 332.869L390.5 334.309L392.96 335.739L395.43 337.149L397.91 338.529L400.42 339.909L402.91 341.249L405.42 342.569L407.93 343.869L410.46 345.149L412.98 346.399L415.52 347.639L418.08 348.849L420.64 350.039L423.17 351.189L425.76 352.339L428.33 353.439L430.9 354.529L433.49 355.589L436.1 356.589L438.7 357.589L441.31 358.589C441.85 358.799 443.9 359.539 443.9 359.539L446.52 360.469L449.13 361.369L451.76 362.239L454.38 363.079L457.02 363.889L459.66 364.669L462.29 365.429L464.93 366.149L467.59 366.839L469.5 367.319L470.23 367.499L472.1 367.939L472.89 368.129L474.8 368.559L475.54 368.719L477.46 369.129L480.13 369.669L480.87 369.819L482.81 370.179L483.52 370.309L485.52 370.659L486.22 370.769L488.22 371.099L488.9 371.199L490.9 371.509L491.52 371.599L493.58 371.879L494.19 371.949L496.29 372.209L496.86 372.279L498.99 372.509H499.52L501.65 372.719H502.17C502.91 372.789 503.64 372.849 504.39 372.899H504.85L507.08 373.049H507.51L509.77 373.169H510.17C510.93 373.169 511.7 373.239 512.5 373.259H512.84C513.61 373.259 514.38 373.309 515.22 373.319H515.49H517.82H520.82H523.19H523.46L525.96 373.229H526.11L528.63 373.099H528.73L531.32 372.929H531.44C561.511 370.834 590.318 360.012 614.33 341.789C640.62 321.989 662.85 292.919 680.4 255.359V255.289C681.22 253.529 682.04 251.759 682.84 249.959C684.22 246.894 684.531 243.453 683.722 240.19C682.913 236.927 681.031 234.031 678.378 231.965C675.726 229.9 672.456 228.785 669.095 228.8C665.733 228.815 662.473 229.96 659.84 232.049C659.31 232.459 606.3 273.289 536.33 273.289C505.33 273.289 475.33 265.289 447.1 249.549L425.66 237.549C333.79 186.089 295.76 164.789 231.52 164.789C224.24 164.789 216.63 165.049 208.25 165.589C104.14 172.409 12.4797 314.159 8.60974 320.189C7.16292 322.456 6.35213 325.07 6.26228 327.758C6.17243 330.446 6.80682 333.108 8.09901 335.467C9.39121 337.825 11.2937 339.793 13.6073 341.164C15.9209 342.535 18.5605 343.258 21.2497 343.259H21.2697Z" fill="#231F20"/>
<path d="M678.729 382.849C675.957 380.537 672.443 379.303 668.834 379.373C665.224 379.443 661.761 380.812 659.079 383.229C658.539 383.719 604.019 432.129 531.389 432.129C503.199 432.129 475.689 424.749 449.619 410.189C347.439 353.189 302.199 334.189 235.669 334.189C226.239 334.189 215.859 334.559 203.939 335.329C100.759 341.919 7.2094 457.779 3.2794 462.709C1.21744 465.296 0.068074 468.491 0.0101169 471.798C-0.0478402 475.105 0.988861 478.338 2.95894 480.995C4.92902 483.652 7.722 485.583 10.9033 486.488C14.0846 487.393 17.4759 487.221 20.5494 485.999C20.7694 485.909 43.3094 476.999 72.9094 467.239L75.9094 466.239C83.5194 463.769 91.0094 461.429 98.1694 459.309L101.469 458.309C103.669 457.669 105.879 457.029 108.099 456.409C112.659 455.119 117.159 453.899 121.489 452.779C123.723 452.199 125.949 451.636 128.169 451.089C133.869 449.679 139.409 448.419 144.619 447.329C146.773 446.876 148.909 446.449 151.029 446.049C160.603 444.135 170.29 442.836 180.029 442.159C186.029 441.799 191.919 441.619 197.389 441.619C203.089 441.619 208.389 441.809 213.699 442.189C216.029 442.359 218.369 442.569 220.699 442.819C224.459 443.229 228.229 443.749 231.909 444.379C233.379 444.629 234.849 444.899 236.309 445.179C237.769 445.459 239.219 445.769 240.669 446.089C242.119 446.409 243.579 446.749 245.029 447.089C247.909 447.789 250.849 448.579 253.789 449.439C258.869 450.929 264.019 452.629 269.559 454.649L271.879 455.509C274.939 456.649 278.159 457.909 281.439 459.239C283.079 459.899 284.729 460.589 286.439 461.289C288.959 462.336 291.523 463.436 294.129 464.589L296.759 465.739C299.426 466.919 302.143 468.143 304.909 469.409L307.719 470.689C310.546 471.989 313.443 473.323 316.409 474.689C321.369 477.009 326.536 479.449 331.909 482.009L341.909 486.759C386.459 508.129 433.439 519.409 477.729 519.409C518.359 519.409 555.999 510.199 589.599 492.039C626.329 472.179 657.379 441.979 681.889 402.289C683.797 399.213 684.528 395.551 683.947 391.978C683.366 388.405 681.513 385.163 678.729 382.849Z" fill="#231F20"/>
<path d="M21.2695 162.54C21.2695 162.54 146.21 95.9301 206.73 92.4101C270.64 88.6501 306.979 102.41 377.15 142.53C447.32 182.65 555.089 215.21 660.349 109.95C660.349 109.95 562.609 159.05 442.35 91.9001C322.09 24.7501 305.96 10.9002 225.57 16.0102C127.79 22.2402 21.2695 162.54 21.2695 162.54Z" fill="#29497D"/>
<path d="M442.31 91.8595C322.01 24.6995 305.92 10.8595 225.53 15.9695C127.79 22.2395 21.2695 162.54 21.2695 162.54C21.2695 162.54 151 49.9995 230.03 47.0795C312.75 44.0095 360.24 85.8295 377.09 97.8595C393.94 109.89 456.75 145.12 499.61 146.65C542.47 148.18 609.61 148.24 660.31 109.91C660.35 109.91 562.61 159.01 442.31 91.8595Z" fill="#476FB6"/>
<path d="M21.2695 328.26C21.2695 328.26 142.82 255.26 206.73 258.09C270.64 260.92 310.2 262.93 377.15 308.21C474.889 374.32 601.46 395.62 669.15 244C669.15 244 560.15 329.95 439.84 262.79C319.53 195.63 289.61 175.56 209.23 180.71C111.49 186.98 21.2695 328.26 21.2695 328.26Z" fill="#476FB6"/>
<path d="M206.73 258.09C270.68 260.9 310.2 262.93 377.15 308.21C473.77 373.56 598.54 395.12 666.76 249.21C647.04 273.81 596.609 327.82 530.61 332.01C444.79 337.41 372.5 238.57 242.49 215.59C139.87 197.41 21.2695 328.26 21.2695 328.26C21.2695 328.26 142.82 255.27 206.73 258.09Z" fill="#29497D"/>
<path d="M15 472.061C15 472.061 118.69 430.781 179.21 427.221C243.11 423.461 275.38 438.511 348.33 473.311C457.33 525.311 591.43 520.201 669.12 394.371C669.12 394.371 562.61 490.451 442.31 423.291C322.01 356.131 285.31 345.121 204.9 350.291C107.16 356.541 15 472.061 15 472.061Z" fill="#476FB6"/>
<path d="M348.331 473.311C457.331 525.311 591.431 520.201 669.121 394.371C599.611 464.411 522.611 485.201 459.061 472.061C395.511 458.921 292.841 385.631 211.611 385.631C130.381 385.631 14.9609 472.061 14.9609 472.061C14.9609 472.061 118.651 430.781 179.171 427.221C243.111 423.461 275.381 438.511 348.331 473.311Z" fill="#29497D"/>
<path d="M526.584 172.392C545.112 171.099 559.824 165.639 559.445 160.195C559.065 154.752 543.737 151.387 525.209 152.679C506.68 153.972 491.968 159.432 492.348 164.876C492.727 170.319 508.055 173.684 526.584 172.392Z" fill="white"/>
<path d="M478.79 166.389C482.502 166.389 485.51 163.381 485.51 159.669C485.51 155.958 482.502 152.949 478.79 152.949C475.079 152.949 472.07 155.958 472.07 159.669C472.07 163.381 475.079 166.389 478.79 166.389Z" fill="white"/>
<path d="M197.764 223.13C214.9 219.633 227.382 209.896 225.645 201.382C223.907 192.869 208.608 188.802 191.472 192.299C174.336 195.796 161.854 205.533 163.591 214.046C165.329 222.56 180.628 226.627 197.764 223.13Z" fill="white"/>
<path d="M245.351 223.001C250.399 223.001 254.491 218.909 254.491 213.861C254.491 208.813 250.399 204.721 245.351 204.721C240.303 204.721 236.211 208.813 236.211 213.861C236.211 218.909 240.303 223.001 245.351 223.001Z" fill="white"/>
<path d="M485.52 496.72C503.078 496.72 517.31 491.226 517.31 484.45C517.31 477.673 503.078 472.18 485.52 472.18C467.963 472.18 453.73 477.673 453.73 484.45C453.73 491.226 467.963 496.72 485.52 496.72Z" fill="white"/>
<path d="M525.888 480.46C529.373 480.46 532.198 477.635 532.198 474.15C532.198 470.665 529.373 467.84 525.888 467.84C522.403 467.84 519.578 470.665 519.578 474.15C519.578 477.635 522.403 480.46 525.888 480.46Z" fill="white"/>
</g>
<defs>
<clipPath id="clip0_6315_445">
<rect width="684.12" height="519.38" fill="white"/>
</clipPath>
</defs>
</svg>
