<svg width="625" height="965" viewBox="0 0 625 965" fill="none" xmlns="http://www.w3.org/2000/svg">
<g clip-path="url(#clip0_5470_18902)">
<path d="M277.64 964.59C402.948 964.59 504.53 952.023 504.53 936.52C504.53 921.018 402.948 908.45 277.64 908.45C152.332 908.45 50.75 921.018 50.75 936.52C50.75 952.023 152.332 964.59 277.64 964.59Z" fill="#D0D2D3"/>
<path d="M211.87 440.17C211.29 440.34 210.72 440.51 210.15 440.7C210.827 438.002 211.093 435.218 210.94 432.44C211.3 435.09 211.63 437.62 211.87 440.17ZM182.79 406.57C182.36 406.57 181.93 406.57 181.49 406.57C181.23 405.57 180.94 404.52 180.62 403.57L180.88 403.83L183.6 406.57H182.79Z" fill="#231F20"/>
<path d="M624.89 305.26C624.89 304.92 624.889 304.59 624.839 304.26C624.789 303.48 624.71 302.67 624.6 301.77L624.51 301.11C624.38 300.23 624.22 299.31 624.03 298.42C624.03 298.28 623.98 298.14 623.95 298.01C618.07 270.71 584.84 231.56 538.43 196.82C540.738 181.579 542.203 166.222 542.819 150.82V150.75C542.819 149.29 542.909 147.82 542.939 146.36V146.27C542.999 143.33 543.009 140.39 542.939 137.56V137.12C542.939 134.21 542.799 131.35 542.649 128.62V128.07C542.579 126.78 542.5 125.49 542.39 124.14V123.89C542.28 122.51 542.15 121.13 542.02 119.78L541.959 119.28C541.839 118.09 541.7 116.92 541.56 115.79L541.459 115.01C541.279 113.68 541.09 112.36 540.87 111.01V110.93C540.68 109.71 540.459 108.51 540.229 107.31L540.05 106.42C539.83 105.28 539.589 104.16 539.339 103.1L539.24 102.66C538.96 101.48 538.659 100.29 538.319 99.0496L538.06 98.1697C537.79 97.1697 537.489 96.2196 537.189 95.2896L536.93 94.4695C536.53 93.2695 536.119 92.1095 535.689 91.0095C535.619 90.8195 535.539 90.6196 535.439 90.3796C535.069 89.4296 534.67 88.4995 534.24 87.5095L533.859 86.6697C533.299 85.4597 532.8 84.4495 532.3 83.4995C531.644 82.2525 530.819 81.1018 529.85 80.0796L529.419 79.6296L529.03 79.2295C519.57 69.5195 469.959 20.3897 421.689 6.14966C415.854 4.46196 409.915 3.15571 403.91 2.2395H403.75C403 2.1195 402.24 2.00967 401.479 1.90967H401.43C391.382 0.540853 381.25 -0.127426 371.109 -0.0903339C342.679 -0.0903339 315.03 4.34952 301 7.00952L298.37 7.51953H298.419L296.3 7.94946C295.126 8.18279 294.126 8.39292 293.3 8.57959L293 8.63965L290.06 9.29956C286.863 10.056 284.003 11.8407 281.919 14.3796L280.62 15.9695L280.18 16.5295L278.319 18.8396L276.83 20.7295L273.669 24.7295C273.646 24.7685 273.619 24.8054 273.589 24.8396C272.119 26.7096 270.5 28.8396 268.76 31.0896L268.609 31.2795C267.229 33.0795 265.77 34.9995 264.229 37.0396L262.97 38.7195C261.41 40.7895 259.8 42.9595 258.12 45.2495L256.709 47.1597C254.209 50.5797 251.71 54.0096 249.39 57.3396L249.33 57.4297C244.69 63.9897 240.33 70.4297 236.33 76.4297L234.569 79.1396C234.569 79.1396 233.26 81.1397 232.8 81.9097L231.06 84.6497L228.78 88.3296L227.06 91.1396L225.39 93.9397C225.02 94.5497 223.75 96.7295 223.75 96.7295L222.14 99.5295L221.06 101.57L220.609 102.39L219.41 104.57L219.29 104.79C188.56 107.32 159.549 113.079 136.859 121.209C109.269 131.079 93.1597 143.32 88.9497 157.6C87.3897 162.88 86.1698 173.36 95.5298 184.12C100.23 189.51 107.239 194.55 116.959 199.51C128.299 205.31 143.68 211.24 165.5 218.18C156.342 231.264 148.506 245.226 142.109 259.86L141.93 260.28C140.47 263.58 139.08 266.929 137.78 270.209L137.51 270.9C136.97 272.27 136.44 273.66 135.91 275.06L135.37 276.52C134.916 277.733 134.466 278.963 134.02 280.209L133.5 281.67C132.93 283.32 132.36 284.97 131.8 286.67C131.754 286.784 131.713 286.901 131.68 287.02C130.09 291.88 127.399 305.68 136.589 328.67C136.809 329.23 137.04 329.79 137.27 330.34C137.74 331.46 138.27 332.61 138.76 333.78C139.4 335.19 140.109 336.7 140.879 338.25C141.329 339.15 141.79 340.059 142.27 340.979C142.59 341.609 142.93 342.24 143.27 342.87C147.991 351.541 153.339 359.856 159.27 367.75C159.96 368.69 160.69 369.64 161.43 370.6L162.08 371.44C162.65 372.16 163.219 372.89 163.839 373.66L164.5 374.49C166.08 376.49 167.77 378.49 169.55 380.56L170.29 381.42C170.95 382.19 171.62 382.949 172.29 383.74L173.08 384.64C173.96 385.64 174.859 386.639 175.839 387.719L175.93 387.82L177.02 389.01C175.065 389.487 173.226 390.353 171.613 391.555C170 392.758 168.645 394.273 167.629 396.01C163.902 392.478 158.984 390.476 153.85 390.4C150.067 390.428 146.359 391.464 143.109 393.4C142.479 393.782 141.877 394.21 141.31 394.68C140.694 395.191 140.107 395.735 139.55 396.31C135.817 392.924 130.959 391.046 125.919 391.04C122.847 391.078 119.822 391.799 117.063 393.152C114.304 394.504 111.881 396.454 109.97 398.86C109.521 399.439 109.11 400.047 108.74 400.68C106.16 405.2 105.179 410.46 105.819 416.68C100.79 416.689 95.9456 418.571 92.228 421.957C88.5104 425.344 86.1865 429.993 85.7095 435C85.6428 435.728 85.6263 436.459 85.6597 437.19C86.0397 444.88 90.2495 452.05 98.7695 459.36C98.7695 459.78 98.7696 460.21 98.8296 460.63C99.0141 463.362 99.4559 466.07 100.149 468.719C100.149 468.809 100.149 468.91 100.229 469.01C100.509 470.11 100.849 471.28 101.229 472.55L101.51 473.449C101.65 473.859 101.789 474.27 101.939 474.68C101.939 474.68 102.279 475.68 102.379 475.92C102.529 476.35 102.7 476.789 102.87 477.229L103.319 478.4C103.499 478.86 103.699 479.33 103.879 479.78C104.059 480.23 104.17 480.49 104.33 480.86L104.95 482.29L105.419 483.36C105.629 483.84 105.84 484.36 106.06 484.79L106.569 485.89L107.25 487.33C107.43 487.69 107.61 488.07 107.78 488.42L108.52 489.93L109.819 492.5L110.229 493.29C110.859 494.5 111.509 495.729 112.169 496.949L112.53 497.63L114 500.3L115.52 503.01L116.37 504.49L117.819 507C113.672 510.245 110.035 514.095 107.03 518.42C102.03 525.42 92.8095 538.2 91.4795 552.17C84.8295 554.93 77.4198 560.82 71.7998 572.99C64.0798 589.719 63.9294 602.299 67.1094 611.639C52.7394 627.719 56.5797 647.39 67.4297 673.84C71.3394 683.384 76.3392 692.444 82.3296 700.84C79.4496 703.55 76.7396 706.16 74.3296 708.46C51.4896 730.46 48.2793 743.8 44.5693 765.46C43.4793 771.79 41.7493 773.06 30.3193 775.9C29.0393 776.21 27.7796 776.53 26.5596 776.9C12.5596 780.66 3.94955 788.45 1.03955 800.07C0.969551 800.34 0.899355 800.609 0.839355 800.889C0.659355 801.689 0.509648 802.51 0.389648 803.27C0.389648 803.33 0.38959 803.599 0.32959 803.639C0.18959 804.639 0.0895312 805.549 0.0195312 806.449C0.0195312 806.989 -0.0505469 807.579 -0.0605469 808.179V808.659C-0.0605469 809.109 -0.0605469 809.57 -0.0605469 810.05V810.5C0.0314556 812.601 0.275407 814.693 0.669434 816.76V816.86C1.49165 821.107 2.85622 825.23 4.72949 829.13C6.32325 832.453 8.24977 835.605 10.4795 838.54L10.6694 838.78C11.1894 839.47 11.7398 840.15 12.2998 840.78L12.5596 841.099C13.1296 841.759 13.7194 842.419 14.3794 843.099L14.6094 843.349C15.2394 844.019 15.8994 844.679 16.6094 845.349L16.8696 845.599C17.6496 846.339 18.4395 847.06 19.2095 847.73L19.2896 847.79C20.4995 848.79 21.8196 849.879 23.2896 850.949L23.5796 851.159C24.1796 851.599 24.8097 852.039 25.4697 852.49L25.7397 852.659C29.5091 855.178 33.4865 857.369 37.6294 859.21L37.8394 859.3C38.7094 859.69 39.5895 860.07 40.4995 860.44H40.5596C42.6696 861.3 44.8295 862.09 46.9395 862.79C47.9395 863.12 48.9395 863.45 49.9395 863.79L50.3193 863.9C51.3193 864.19 52.3195 864.47 53.5396 864.77L54.9595 865.119L56.4497 865.449C57.8497 865.749 59.2398 866.02 60.5498 866.23C61.6498 866.41 62.7794 866.57 63.9194 866.71H64.0693C65.2093 866.85 66.3297 866.95 67.4097 867.02H67.5796C69.1296 867.12 70.6995 867.17 72.2295 867.17C81.8189 867.256 91.2861 865.015 99.8193 860.639H99.8696C100.67 860.219 101.45 859.79 102.22 859.34L102.33 859.28C103.07 858.85 103.8 858.4 104.51 857.94L104.609 857.869C105.319 857.409 106.02 856.94 106.74 856.42C110.653 853.604 114.203 850.316 117.31 846.63L117.53 846.369C117.91 845.909 118.279 845.45 118.649 844.98L119.06 844.449C119.37 844.039 119.67 843.639 119.97 843.219C119.97 843.219 120.35 842.7 120.45 842.55C120.73 842.16 120.989 841.769 121.229 841.409L121.78 840.579C122.01 840.219 122.229 839.87 122.459 839.49L122.97 838.639C123.17 838.299 123.359 837.96 123.569 837.59C123.779 837.22 123.91 836.969 124.08 836.659C124.25 836.349 124.42 836.02 124.56 835.74C124.7 835.459 124.919 835.03 125.109 834.65L125.169 834.51L125.52 833.79C125.68 833.43 125.84 833.079 126.03 832.639L126.359 831.86C126.539 831.43 126.71 831 126.87 830.56C126.96 830.34 127.049 830.12 127.109 829.94C127.349 829.29 127.57 828.64 127.78 827.99C129.452 822.385 130.573 816.632 131.129 810.81C131.223 810.083 131.303 809.343 131.37 808.59C131.98 802.51 132.369 795.93 132.689 789.59C133.279 778.95 133.879 767.949 135.629 758.929C136.514 755.043 138.144 751.365 140.43 748.099C146.39 750.894 152.495 753.368 158.72 755.51C160.93 757.1 163.169 758.62 165.439 760.04C167.329 772.04 172.159 788.32 183.629 807.28C183.649 807.318 183.673 807.355 183.7 807.389C184.544 808.776 185.581 810.035 186.78 811.13C187.01 811.34 187.27 811.56 187.5 811.75C188.663 812.706 189.952 813.5 191.33 814.11C191.72 814.29 192.1 814.44 192.45 814.57L192.68 814.65C193.657 814.984 194.66 815.235 195.68 815.4C196.504 815.527 197.336 815.594 198.169 815.599H198.399C198.999 815.599 199.61 815.6 200.22 815.5C200.913 815.427 201.601 815.31 202.28 815.15C202.766 815.041 203.247 814.908 203.72 814.75C206.683 813.802 209.329 812.061 211.374 809.717C213.419 807.373 214.783 804.514 215.319 801.449C216.319 795.629 218.229 785.959 220.709 776.329H222.419C227.15 776.321 231.877 776.058 236.58 775.54C239.64 775.99 242.7 776.36 245.74 776.67C245.9 782.1 245.24 786.61 243.74 790.13C240.2 798.61 234.62 808.13 229.22 817.29C227.5 820.21 225.8 823.11 224.22 825.94L223.089 827.94C222.343 829.273 221.61 830.606 220.89 831.94L219.839 833.94C216.636 839.706 214.039 845.788 212.089 852.09C211.899 852.74 211.73 853.4 211.56 854.09C211.56 854.29 211.469 854.49 211.419 854.74C211.319 855.19 211.219 855.64 211.129 856.09C211.079 856.33 211.04 856.579 210.99 856.829V856.96C210.92 857.36 210.85 857.76 210.78 858.19C210.71 858.62 210.649 859.19 210.649 859.19C210.589 859.57 210.54 859.96 210.5 860.31C210.46 860.66 210.43 861.019 210.39 861.429C210.35 861.839 210.32 862.139 210.3 862.429C210.28 862.719 210.24 863.199 210.22 863.599C210.2 863.999 210.22 864.299 210.22 864.599C210.22 864.899 210.22 865.44 210.22 865.92V866.849C210.22 867.309 210.22 867.769 210.22 868.219V869.079C210.22 869.579 210.22 870.08 210.29 870.61C210.29 870.81 210.29 871 210.29 871.24C210.34 871.83 210.389 872.429 210.459 873.079V873.3C211 878.088 212.132 882.79 213.83 887.3C213.851 887.348 213.867 887.398 213.879 887.449C214.179 888.229 214.5 889 214.83 889.78L214.89 889.9C215.22 890.68 215.579 891.46 215.959 892.23C215.974 892.264 215.991 892.297 216.01 892.329C221.25 902.989 229.539 911.599 240.669 917.949L240.8 918.02C241.75 918.56 242.729 919.09 243.629 919.55L243.79 919.63C244.79 920.15 245.84 920.63 246.87 921.11H246.93C248.14 921.65 249.43 922.19 250.7 922.69L252.2 923.27L253.56 923.76C254.78 924.19 255.829 924.54 256.859 924.86C257.889 925.18 259.09 925.53 260.12 925.8C261.15 926.07 262.17 926.35 263.2 926.59C264.38 926.88 265.56 927.14 266.7 927.38H266.839C267.839 927.57 268.75 927.739 269.72 927.909H269.89C274.248 928.646 278.659 929.025 283.08 929.04H283.819C284.579 929.04 285.32 929.04 286.1 928.98H286.51C288.27 928.9 289.96 928.75 291.51 928.55H291.68C292.68 928.42 293.68 928.269 294.68 928.099L295.1 928.02C296.01 927.85 296.9 927.669 297.77 927.469L298.16 927.369C299.02 927.169 299.869 926.949 300.689 926.719L301.14 926.59C302.01 926.33 302.859 926.06 303.649 925.79L303.91 925.699C307.392 924.489 310.743 922.928 313.91 921.04C315.457 920.118 316.955 919.116 318.399 918.04C320.398 916.541 322.28 914.893 324.03 913.11L324.14 913C325.624 911.49 326.995 909.872 328.24 908.159L328.47 907.829C328.75 907.429 329.01 907.04 329.25 906.67L329.51 906.28C329.8 905.81 330.079 905.359 330.319 904.929L330.459 904.69C330.869 903.94 331.279 903.15 331.689 902.28L331.839 901.949C332.239 901.099 332.61 900.219 332.93 899.329C337.16 887.899 334.369 876.51 324.649 865.49C323.809 864.539 322.94 863.58 322.05 862.61C314.1 853.92 313.359 851.91 315.959 846.03C324.849 825.95 329.539 813.03 322.709 782.09C321.709 777.58 320.61 772.68 319.43 767.71C327.734 764.532 335.717 760.571 343.27 755.88C371.04 738.64 381.119 723.39 377.939 703.36C385.659 697.26 392.389 686.63 394.939 668.36C396.759 655.6 393.939 646.899 390.379 641.24L393.45 641.619L396.45 641.969L399.339 642.28L403.26 642.679L406.02 642.92H406.169L408.91 643.13L409.819 643.199L412.709 643.389L415.29 643.53H415.479L418.16 643.63H418.99H420.99H424.16C433.29 643.56 440.36 642.56 445.79 640.55C449.483 639.188 453.009 637.41 456.3 635.25C457.82 635.421 459.349 635.507 460.879 635.51C466.329 635.51 476.229 634.32 481.399 626.36C483.81 622.681 484.922 618.303 484.56 613.92C487.285 611.74 489.335 608.83 490.47 605.53C491.708 601.817 491.833 597.823 490.83 594.04C495.421 592.054 499.327 588.76 502.06 584.57C502.442 583.929 502.776 583.26 503.06 582.57C504.325 579.496 504.824 576.161 504.516 572.851C504.208 569.542 503.101 566.357 501.29 563.57C498.34 559.15 492.29 553.87 480.05 553.87H478.52C473.13 554.04 468.05 554.32 463.81 554.61C461.236 551.995 458.159 549.931 454.764 548.542C451.369 547.153 447.727 546.469 444.06 546.53C443.17 546.53 442.26 546.53 441.37 546.64C440.69 546.7 440.01 546.78 439.37 546.88C436.91 546.297 434.414 545.876 431.899 545.62C421.397 544.602 410.851 544.111 400.3 544.15C393.87 544.15 387.43 544.31 381.229 544.62C380.229 542.12 379.01 539.5 377.68 536.729C371.9 524.729 363.68 520.409 357.22 518.969C356.839 513.452 355.747 508.007 353.97 502.77C351.581 495.625 347.609 489.113 342.35 483.719C343.01 482.719 343.69 481.78 344.35 480.83C347.63 476.33 350.92 472.55 354.72 468.17C354.77 468.12 354.809 468.06 354.859 468C384.219 464.82 414.949 457.79 436.319 449.29C491.749 427.44 501.529 403.87 503.229 395.94C510.039 369.48 512.98 344.24 512.03 320.6C539.81 328.6 558.849 333.04 573.629 334.92H573.709C575.709 335.18 577.709 335.393 579.709 335.56H580.08C581.95 335.71 583.76 335.82 585.5 335.88H586.149H588.43C589.33 335.88 590.21 335.88 591.04 335.88H592.04L594.04 335.75H594.149L595.3 335.65L596.53 335.52L597.76 335.35C598.3 335.28 598.84 335.19 599.35 335.1L600.83 334.82C601.19 334.75 601.539 334.67 601.899 334.58C602.479 334.45 603.04 334.3 603.54 334.16L604.669 333.83C605.239 333.65 605.79 333.47 606.35 333.26L607.24 332.93C608.02 332.62 608.72 332.31 609.37 332L610.03 331.67C610.62 331.37 611.19 331.06 611.81 330.67L612.45 330.28C613.18 329.82 613.89 329.33 614.55 328.82C614.76 328.67 614.96 328.5 615.14 328.36C615.71 327.89 616.27 327.36 616.79 326.9C616.98 326.73 617.159 326.55 617.339 326.37C617.99 325.714 618.605 325.023 619.18 324.3L619.58 323.78C620.08 323.12 620.579 322.45 620.939 321.78L621.26 321.26C621.749 320.424 622.193 319.563 622.589 318.68L622.85 318.06C623.233 317.182 623.567 316.284 623.85 315.37L623.91 315.18C624.217 314.102 624.461 313.006 624.64 311.9C624.7 311.57 624.74 311.22 624.78 310.85C624.89 310.03 624.96 309.31 625 308.6C625 308.26 625 307.93 625 307.52C624.93 306.76 624.92 306.02 624.89 305.26ZM197.399 412.44C197.698 411.728 197.946 410.996 198.14 410.25L200.459 412.42L201.569 413.42L204.069 415.67L205.229 416.67L206.72 417.99C204.062 418.774 201.673 420.28 199.819 422.34C198.31 420.243 196.433 418.437 194.28 417.01C195.594 415.693 196.652 414.143 197.399 412.44Z" fill="#231F20"/>
<path d="M180.06 738.57C180.06 738.57 174.32 762.79 196.55 799.51C196.783 799.892 197.125 800.195 197.533 800.378C197.941 800.561 198.395 800.616 198.835 800.536C199.274 800.456 199.68 800.244 199.997 799.929C200.314 799.613 200.527 799.21 200.61 798.771C202.96 785.661 209.4 753.521 217.76 743.021L180.06 738.57Z" fill="#49BEA2"/>
<path opacity="0.49" d="M180.06 738.57L217.76 743.021C214.76 746.831 211.95 753.501 209.52 761.021C202.75 758.781 193.21 755.58 189.94 754.3C189.94 754.3 189.52 778.17 199.32 800.3C198.831 800.519 198.28 800.55 197.77 800.39C197.259 800.23 196.826 799.888 196.55 799.43C174.36 762.82 180.06 738.57 180.06 738.57Z" fill="#3D9480"/>
<path d="M91.5697 618.84C80.6297 612.08 75.6301 600.6 85.4501 579.31C95.6701 557.18 111.11 567.24 111.11 567.24C102.81 557.93 105.18 546.77 119.24 527.24C133.3 507.71 142.81 519.16 142.81 519.16C139.08 506.82 145.63 497.16 165.81 484.78C183.87 473.78 189.81 493.89 190.86 498.31C190.23 494.9 189.06 481.45 205.76 468C225.08 452.44 255.69 464.18 255.69 464.18L276.17 475.91L299.74 477.18C299.74 477.18 331.83 483.93 339.61 507.49C346.34 527.84 338.05 538.49 335.67 541.03C338.96 537.89 354.86 524.22 364.05 543.27C374.34 564.59 374.57 576.27 364.74 584.64C364.74 584.64 378.95 580.17 380.14 604.22C381.33 628.27 377.27 638.94 365.24 642.22C365.24 642.22 383.68 642.15 380.24 666.28C376.94 689.5 366.51 696.42 353.65 696.16C356.39 696.46 361.93 697.98 363.18 705.39C364.85 715.33 363.18 725.95 335.46 743.16C270.91 783.25 195.63 748.91 195.63 748.91C195.63 748.91 111.08 740.76 81.3099 668.18C68.9299 638 71.7301 628.86 78.5301 621.42C83.6301 615.87 89.1097 617.57 91.5697 618.84Z" fill="#7D5A53"/>
<path d="M142.81 519.13C140.788 516.089 139.799 512.478 139.99 508.83C140.259 505.017 141.517 501.34 143.64 498.161C145.64 495.124 148.03 492.363 150.75 489.95C153.362 487.626 156.139 485.494 159.06 483.57C160.5 482.62 161.98 481.76 163.44 480.86C165.128 479.879 166.911 479.068 168.76 478.441C170.762 477.771 172.859 477.433 174.97 477.441C177.199 477.454 179.395 477.977 181.39 478.97C183.277 479.924 184.937 481.271 186.26 482.921C187.449 484.417 188.415 486.077 189.13 487.85C190.458 491.153 191.059 494.704 190.89 498.26C189.275 495.398 187.386 492.698 185.25 490.2C183.25 487.91 180.87 486.2 178.64 485.7C177.549 485.442 176.418 485.398 175.31 485.57C174.101 485.788 172.922 486.151 171.8 486.65C170.547 487.223 169.339 487.891 168.19 488.65C166.84 489.53 165.46 490.38 164.14 491.28C158.8 494.82 153.54 498.35 149.37 502.56C147.255 504.592 145.556 507.018 144.37 509.7C143.211 512.704 142.68 515.914 142.81 519.13Z" fill="#221E20"/>
<path d="M354.497 663.963C375.598 592.453 339.057 518.653 272.881 499.126C206.705 479.599 135.953 521.739 114.852 593.25C93.7511 664.76 130.292 738.56 196.468 758.087C262.644 777.614 333.396 735.473 354.497 663.963Z" fill="#3C2415"/>
<path d="M347.501 661.915C367.372 594.573 332.96 525.075 270.64 506.686C208.32 488.297 141.692 527.981 121.821 595.322C101.95 662.664 136.362 732.162 198.682 750.551C261.002 768.94 327.63 729.256 347.501 661.915Z" fill="#F5E099"/>
<path d="M204.61 511.91C177.4 527.54 153.74 552.27 144.27 584.34C124.41 651.68 169.96 724.46 221.15 739.56C240.93 745.39 264.69 743.56 287.54 735.16C258.54 752.05 224.96 758.02 198.54 750.21C147.36 735.11 101.81 662.33 121.67 594.99C133.64 554.25 168.59 525.35 204.61 511.91Z" fill="#F0CC6D"/>
<path d="M366.38 427.77C338.49 472.09 328.23 458.99 300.65 541.56C300.65 541.56 295.11 555 257.88 544.02C220.65 533.04 223.29 518.74 223.29 518.74C244.94 434.43 229.22 439.85 229.85 387.49L298.11 407.63L366.38 427.77Z" fill="#49BEA2"/>
<path d="M234.58 443.12C233.58 426.36 229.52 414.76 229.85 387.49L298.11 407.63L366.38 427.77C351.84 450.88 342.09 458.38 332.18 471.97C312.59 473.1 294.08 472.14 280.08 467.97C266.08 463.8 250.27 454.67 234.58 443.12Z" fill="#3D9480"/>
<path d="M285.27 450.43C323.44 461.69 395.2 449.43 430.76 435.32C484.89 413.98 488.55 392.57 488.55 392.57C536.22 208.21 370.43 161.74 370.43 161.74C370.43 161.74 205.97 110.74 145.94 291.5C145.94 291.5 137.59 313.5 171.28 358.77C194.11 389.49 247.06 439.17 285.27 450.43Z" fill="#49BEA2"/>
<path opacity="0.49" d="M145.94 291.5C155.54 262.61 167.819 239.67 181.649 221.5L182.37 220.59C183.02 219.74 183.68 218.9 184.37 218.08C185.06 217.26 185.539 216.63 186.129 215.92C186.719 215.21 187.459 214.3 188.129 213.52C188.799 212.74 189.309 212.15 189.899 211.52C190.489 210.89 191.259 209.97 191.899 209.22C192.539 208.47 193.09 207.94 193.69 207.31C195.16 205.74 196.63 204.22 198.12 202.74L199.43 201.44C200.16 200.73 200.909 200.05 201.649 199.35C202.229 198.8 202.819 198.25 203.399 197.72L204 197.16C275.88 132.55 370.43 161.82 370.43 161.82C370.43 161.82 485.29 194.04 496.3 311.17C454.96 296.09 354.64 261 252.72 236.56C203.11 341.32 231.85 405.78 254.53 435.74C222.46 415.57 188.39 381.88 171.28 358.85C137.59 313.46 145.94 291.5 145.94 291.5Z" fill="#3D9480"/>
<path d="M447.339 395.68C447.339 395.68 424.45 399.4 427.45 381.68" stroke="#231F20" stroke-width="5.68" stroke-miterlimit="10" stroke-linecap="round"/>
<path d="M205.06 324.22C217.06 349.13 239.28 349.57 259.6 357.22C279.92 364.87 300.04 398 304.6 399.33C309.16 400.66 343.98 383.79 365.22 388.33C386.46 392.87 405.349 404.59 428.959 390.19" stroke="#231F20" stroke-width="5.68" stroke-miterlimit="10" stroke-linecap="round"/>
<path d="M186.729 318.8C186.729 318.8 203.94 334.35 211.04 317.8" stroke="#231F20" stroke-width="5.68" stroke-miterlimit="10" stroke-linecap="round"/>
<path d="M305.399 396.68C305.399 396.68 332.819 339.58 330.729 296.35" stroke="#231F20" stroke-width="5.68" stroke-miterlimit="10" stroke-linecap="round"/>
<path d="M330.399 355.57C330.183 355.5 329.957 355.463 329.729 355.46H329.56H329.419C329.476 355.467 329.533 355.467 329.589 355.46C329.782 355.423 329.973 355.373 330.16 355.31C330.57 355.2 331.02 355.04 331.47 354.88C332.37 354.55 333.289 354.18 334.209 353.78C336.049 353 337.9 352.15 339.74 351.27C340.235 351.04 340.8 351.007 341.319 351.179C341.838 351.35 342.272 351.713 342.533 352.193C342.794 352.673 342.863 353.235 342.725 353.764C342.586 354.293 342.252 354.749 341.79 355.04C340.03 356.13 338.25 357.21 336.41 358.25C335.49 358.77 334.559 359.25 333.569 359.77C333.079 360.02 332.57 360.26 332.03 360.49C331.75 360.61 331.469 360.72 331.129 360.83C330.969 360.89 330.78 360.94 330.56 361L330.16 361.08C330.05 361.087 329.939 361.087 329.83 361.08H329.56C329.302 361.08 329.045 361.039 328.8 360.96C328.426 360.869 328.075 360.703 327.767 360.472C327.459 360.241 327.202 359.95 327.01 359.617C326.818 359.284 326.696 358.915 326.651 358.533C326.606 358.151 326.639 357.764 326.748 357.395C326.858 357.026 327.04 356.683 327.286 356.387C327.532 356.091 327.835 355.848 328.177 355.673C328.52 355.498 328.894 355.394 329.278 355.367C329.662 355.341 330.047 355.393 330.41 355.52L330.399 355.57Z" fill="#231F20"/>
<path d="M304.83 353.989C304.579 353.917 304.34 353.81 304.12 353.67L303.97 353.57L303.899 353.519L303.649 353.31C303.549 353.22 303.42 353.099 303.35 353.019C303.28 352.939 303.07 352.71 302.97 352.58C302.764 352.331 302.573 352.071 302.399 351.8C302.059 351.3 301.77 350.8 301.49 350.36C300.93 349.41 300.42 348.479 299.93 347.539C298.93 345.669 298.039 343.8 297.149 341.92C296.962 341.43 296.961 340.888 297.145 340.397C297.329 339.905 297.687 339.498 298.15 339.253C298.614 339.007 299.151 338.939 299.661 339.062C300.171 339.185 300.619 339.49 300.919 339.92C301.989 341.65 303.08 343.369 304.2 345.029C304.76 345.859 305.33 346.67 305.91 347.44C306.2 347.82 306.489 348.189 306.769 348.519C306.895 348.666 307.029 348.807 307.169 348.94C307.209 348.983 307.253 349.023 307.3 349.06L307.2 348.979L307.05 348.88C306.859 348.756 306.65 348.665 306.43 348.61C307.152 348.822 307.761 349.312 308.122 349.973C308.483 350.634 308.567 351.412 308.354 352.134C308.142 352.857 307.652 353.466 306.991 353.827C306.33 354.188 305.552 354.272 304.83 354.06V353.989Z" fill="#231F20"/>
<path d="M328.793 194.661C337.801 189.758 342.657 181.289 339.639 175.744C336.621 170.2 326.872 169.68 317.864 174.583C308.856 179.486 304 187.956 307.018 193.5C310.036 199.045 319.785 199.564 328.793 194.661Z" fill="#3D9480"/>
<path d="M320.239 220.359C326.195 215.719 328.624 208.878 325.664 205.079C322.704 201.28 315.477 201.961 309.521 206.601C303.565 211.241 301.137 218.082 304.096 221.881C307.056 225.68 314.283 224.999 320.239 220.359Z" fill="#3D9480"/>
<path d="M481.844 300.186C486.458 298.807 488.445 291.824 486.282 284.591C484.119 277.358 478.625 272.613 474.011 273.993C469.397 275.373 467.41 282.355 469.573 289.588C471.736 296.821 477.23 301.566 481.844 300.186Z" fill="#3D9480"/>
<path d="M294.953 209.695C300.469 207.229 303.663 202.373 302.087 198.849C300.511 195.325 294.763 194.467 289.247 196.933C283.731 199.399 280.537 204.255 282.113 207.78C283.689 211.304 289.437 212.162 294.953 209.695Z" fill="#3D9480"/>
<path d="M103.29 161.82C94.3902 191.98 211.08 213.82 350.83 255.07C490.58 296.32 600.44 341.27 609.34 311.07C618.24 280.87 525.45 178.01 385.71 136.78C245.97 95.5497 112.18 131.66 103.29 161.82Z" fill="#EFCB6C"/>
<path d="M127.06 166.62C132.06 149.82 175.72 131.2 237.61 125.11L229.88 129.75C229.88 129.75 286.58 150.75 287.63 165.45C288.68 180.15 405.47 224.45 405.47 224.45C405.47 224.45 476.09 299.03 607 293.9C609.81 300.9 610.66 306.79 609.37 311.15C606.5 320.88 593.12 322.78 571.65 319.53C524.57 308.24 454.47 283.46 374.65 259.9C234.83 218.64 118.14 196.78 127.06 166.62Z" fill="#E2B654"/>
<path d="M516.06 235.02C516.06 235.02 540.87 131.56 518.96 90.4901C518.96 90.4901 466.11 34.9703 417.41 20.6103C368.71 6.25025 293.41 23.9701 293.41 23.9701C293.41 23.9701 222.73 110.21 218.83 147.35C218.83 147.35 303.4 208.16 359.72 224.78C416.04 241.4 516.06 235.02 516.06 235.02Z" fill="#EFCB6C"/>
<path d="M218.87 147.35C220.96 127.44 242.23 93.4304 261.53 66.1504C287.81 104.36 361.63 190.4 516.06 235.02C516.06 235.02 416.06 241.39 359.76 224.78C303.46 208.17 218.87 147.35 218.87 147.35Z" fill="#E2B654"/>
<path d="M218.87 147.35C219.87 138.16 224.87 125.96 231.95 112.81C231.95 112.81 322.74 164.67 373.11 179.53C423.48 194.39 522.98 198.67 522.98 198.67C519.71 219.77 516.06 235.02 516.06 235.02C516.06 235.02 416.06 241.39 359.76 224.78C303.46 208.17 218.87 147.35 218.87 147.35Z" fill="#A873AC"/>
<path d="M468.41 299.07C468.41 299.07 463.74 265.46 431.2 259.66" stroke="#231F20" stroke-width="5.68" stroke-miterlimit="10" stroke-linecap="round"/>
<path d="M214.27 224.1C214.27 224.1 236.44 198.4 266.91 211.2" stroke="#231F20" stroke-width="5.68" stroke-miterlimit="10" stroke-linecap="round"/>
<path d="M274.285 584.131C275.253 580.812 258.408 572.979 236.659 566.635C214.911 560.292 196.495 557.841 195.527 561.16C194.559 564.479 211.405 572.311 233.154 578.655C254.902 584.998 273.317 587.45 274.285 584.131Z" fill="#F7A33F"/>
<path d="M256.357 695.134C257.335 691.818 240.514 683.932 218.786 677.521C197.057 671.109 178.649 668.6 177.671 671.916C176.693 675.232 193.514 683.118 215.242 689.529C236.971 695.941 255.379 698.45 256.357 695.134Z" fill="#F7A33F"/>
<path d="M274.562 638.996C275.53 635.677 251.923 625.872 221.834 617.096C191.746 608.321 166.57 603.897 165.602 607.216C164.633 610.535 188.24 620.34 218.329 629.116C248.417 637.891 273.593 642.315 274.562 638.996Z" fill="#F7A33F"/>
<path d="M406.71 367.94C428.023 367.94 445.3 350.662 445.3 329.35C445.3 308.037 428.023 290.76 406.71 290.76C385.397 290.76 368.12 308.037 368.12 329.35C368.12 350.662 385.397 367.94 406.71 367.94Z" fill="#F7F7E2"/>
<path d="M369.7 318.43C367.612 328.2 369.211 338.398 374.19 347.06C379.087 355.477 387.018 361.702 396.358 364.459C405.697 367.217 415.737 366.297 424.42 361.89C433.305 357.316 440.181 349.614 443.72 340.27C442.659 345.308 440.532 350.062 437.48 354.209C434.378 358.434 430.435 361.972 425.9 364.6C421.323 367.266 416.249 368.967 410.99 369.6C405.703 370.235 400.341 369.786 395.233 368.28C390.124 366.774 385.377 364.242 381.28 360.84C377.207 357.455 373.866 353.277 371.46 348.56C369.083 343.893 367.691 338.787 367.37 333.56C367.065 328.408 367.86 323.251 369.7 318.43Z" fill="#231F20"/>
<path d="M369.7 318.43C370.765 313.392 372.893 308.64 375.94 304.49C379.044 300.266 382.986 296.729 387.52 294.1C392.101 291.434 397.178 289.732 402.44 289.1C407.727 288.463 413.088 288.913 418.195 290.421C423.302 291.929 428.047 294.464 432.14 297.87C436.215 301.252 439.557 305.431 441.96 310.15C444.338 314.816 445.73 319.922 446.05 325.15C446.357 330.292 445.562 335.439 443.72 340.25C445.821 330.482 444.228 320.282 439.25 311.62C434.348 303.206 426.414 296.984 417.073 294.231C407.733 291.477 397.693 292.4 389.01 296.81C380.122 301.382 373.243 309.084 369.7 318.43Z" fill="#231F20"/>
<path d="M405.44 359.7C419.424 359.7 430.76 348.363 430.76 334.38C430.76 320.396 419.424 309.06 405.44 309.06C391.456 309.06 380.12 320.396 380.12 334.38C380.12 348.363 391.456 359.7 405.44 359.7Z" fill="#080C0D"/>
<path d="M249 321.42C270.313 321.42 287.59 304.143 287.59 282.83C287.59 261.518 270.313 244.24 249 244.24C227.687 244.24 210.41 261.518 210.41 282.83C210.41 304.143 227.687 321.42 249 321.42Z" fill="#F7F7E2"/>
<path d="M211.99 271.91C209.901 281.681 211.5 291.878 216.48 300.54C221.38 308.954 229.312 315.175 238.65 317.93C247.989 320.686 258.027 319.766 266.71 315.36C275.596 310.791 282.476 303.093 286.02 293.75C284.951 298.788 282.82 303.541 279.77 307.69C276.666 311.914 272.724 315.451 268.19 318.08C263.609 320.738 258.537 322.438 253.28 323.08C247.993 323.716 242.63 323.267 237.522 321.761C232.414 320.255 227.666 317.723 223.57 314.32C219.495 310.933 216.154 306.751 213.75 302.03C211.372 297.363 209.98 292.258 209.66 287.03C209.356 281.882 210.15 276.728 211.99 271.91Z" fill="#231F20"/>
<path d="M211.99 271.91C213.055 266.854 215.182 262.082 218.23 257.91C221.339 253.692 225.28 250.156 229.81 247.52C234.395 244.863 239.47 243.162 244.73 242.52C250.018 241.89 255.38 242.342 260.487 243.85C265.595 245.357 270.342 247.889 274.44 251.29C278.512 254.679 281.853 258.861 284.26 263.58C286.635 268.247 288.023 273.353 288.34 278.58C288.644 283.721 287.853 288.868 286.02 293.68C288.113 283.911 286.517 273.713 281.54 265.05C276.636 256.638 268.703 250.418 259.363 247.663C250.024 244.908 239.985 245.826 231.3 250.23C222.405 254.822 215.526 262.545 211.99 271.91Z" fill="#231F20"/>
<path d="M247.73 313.17C261.714 313.17 273.05 301.834 273.05 287.85C273.05 273.866 261.714 262.53 247.73 262.53C233.746 262.53 222.41 273.866 222.41 287.85C222.41 301.834 233.746 313.17 247.73 313.17Z" fill="#080C0D"/>
<path d="M270.5 363.57C270.5 363.57 257.5 410.14 295.5 421.36C333.5 432.58 349.12 388.18 349.12 388.18L302.19 398.69L270.5 363.57Z" fill="#231F20"/>
<path d="M273.74 404.569C277.872 401.959 282.516 400.267 287.359 399.609C292.202 398.95 297.129 399.341 301.808 400.754C306.486 402.167 310.806 404.57 314.475 407.799C318.143 411.028 321.074 415.008 323.07 419.469C315.65 423.109 306.53 424.529 295.52 421.289C284.51 418.049 277.74 411.809 273.74 404.569Z" fill="#F16C6C"/>
<path d="M150.89 406.22C150.89 406.22 158.67 401.5 160.3 415.09C161.93 428.68 162.55 440.39 162.55 440.39L147.33 438.26C147.33 438.26 143.27 412.57 150.89 406.22Z" fill="#58595B"/>
<path d="M121.77 408.13C121.77 408.13 127.4 400.97 133.7 413.13C140 425.29 144.7 436.02 144.7 436.02L129.7 439.38C129.7 439.38 116.86 416.71 121.77 408.13Z" fill="#58595B"/>
<path d="M100.649 436.49C100.649 436.49 101.53 427.43 113.39 434.27C125.25 441.11 134.99 447.62 134.99 447.62L124.18 458.57C124.18 458.57 101.139 446.37 100.649 436.49Z" fill="#58595B"/>
<path d="M185.79 429.44C185.79 429.44 193.73 433.89 182.71 442C171.69 450.11 161.81 456.43 161.81 456.43L156.16 442.15C156.16 442.15 176.55 425.93 185.79 429.44Z" fill="#58595B"/>
<path d="M133.389 425.43C133.389 425.43 163.13 415.63 178.53 442.77C193.93 469.91 209.789 512.45 208.939 525.05C208.089 537.65 197.099 550.15 191.069 552.35C185.039 554.55 172.62 563.99 155.78 538.78C138.94 513.57 114.78 476.48 113.78 459.78C112.78 443.08 123.189 429.25 133.389 425.43Z" fill="#49BEA2"/>
<path opacity="0.49" d="M114.7 465.11C121.47 475.11 163.14 533.03 208.52 519.11C208.867 521.064 209.008 523.048 208.94 525.03C208.09 537.63 197.1 550.13 191.07 552.33C185.04 554.53 172.62 563.97 155.78 538.76C140.56 515.98 119.36 483.47 114.7 465.11Z" fill="#3D9480"/>
<path d="M489.14 576.8C489.14 576.8 492.63 568.39 478.95 568.8C465.27 569.21 453.6 570.4 453.6 570.4L458.01 585.12C458.01 585.12 484.06 585.29 489.14 576.8Z" fill="#58595B"/>
<path d="M464.29 594.89C464.29 594.89 461.29 563.73 430.29 560.52C399.29 557.31 353.93 559.9 342.73 565.74C331.53 571.58 324.5 586.67 324.9 593.07C325.3 599.47 321.66 614.64 351.51 619.93C381.36 625.22 425.03 632.43 440.72 626.63C456.41 620.83 464.89 605.77 464.29 594.89Z" fill="#49BEA2"/>
<path opacity="0.49" d="M324.88 593.07C324.52 587.2 330.4 574.07 340.01 567.4C337.13 616.4 424.48 628.51 424.48 628.51L424.36 628.771C404.06 628.951 373.89 623.9 351.49 619.93C321.64 614.64 325.28 599.47 324.88 593.07Z" fill="#3D9480"/>
<path d="M476.349 600.95C476.349 600.95 479.679 593.12 462.669 590.61C445.659 588.1 442.909 597.02 442.769 598.98C442.629 600.94 445.579 605.17 456.609 606.32C467.639 607.47 475.549 603.46 476.349 600.95Z" fill="#58595B"/>
<path d="M430.53 576.08C430.53 576.08 430.44 562.59 442.53 561.58C460.65 560.06 460.53 587.21 451.24 589.14C441.95 591.07 442.81 579.38 442.81 579.38C442.81 579.38 432.97 586.19 430.53 576.08Z" fill="#58595B"/>
<path d="M468.939 618.33C468.939 618.33 473.649 612.25 460.209 606.45C446.769 600.65 442.21 607.821 441.64 609.501C441.07 611.181 442.41 615.5 451.26 618.8C460.11 622.1 467.649 620.34 468.939 618.33Z" fill="#58595B"/>
<path d="M153.36 712.85C151.2 716.34 125.23 734.11 120.99 756.05C116.75 777.99 118.75 807.131 113.57 823.441C109 837.851 90.2399 860.001 54.5199 849.441C18.7999 838.881 14.4399 815.441 15.0399 807.541C15.6399 799.641 19.1699 794.38 30.4999 791.35C41.8299 788.32 56.2 786.761 59.41 768.001C62.62 749.241 64.5502 738.801 84.8002 719.271C105.05 699.741 125.68 680.901 136.28 682.271C146.88 683.641 161.12 701.63 153.36 712.85Z" fill="#49BEA2"/>
<path d="M15.5898 803.93C15.3132 805.124 15.1295 806.338 15.04 807.56C14.8765 811.489 15.5058 815.41 16.8901 819.09C21.7401 816.82 28.3602 812.65 28.4902 806.69C28.6202 800.73 21.1098 802.11 15.5898 803.93Z" fill="#58595B"/>
<path d="M29.0601 836.38C33.4301 830.21 40.3 819.05 36.25 814.74C32.03 810.25 22.8501 818.18 18.3301 822.63C20.909 827.911 24.5639 832.595 29.0601 836.38Z" fill="#58595B"/>
<path d="M47.8003 827.26C42.8003 823.43 35.06 832.061 30.75 837.751C35.4617 841.4 40.6668 844.362 46.21 846.55C49.26 839.3 51.8403 830.37 47.8003 827.26Z" fill="#58595B"/>
<path d="M54.52 849.46C57.325 850.293 60.1808 850.944 63.0698 851.409C64.1498 846.669 64.4002 841.02 60.9302 837.7C55.9302 832.91 51.2902 842.32 49.1602 847.7C50.8702 848.31 52.64 848.9 54.52 849.46Z" fill="#58595B"/>
<path d="M100.12 751.77C100.12 751.77 96.3195 765.15 83.3295 763.29C70.3395 761.43 72.7896 748.87 76.9496 746.29C81.1096 743.71 85.9497 746.69 87.0497 750.71" stroke="#1F705F" stroke-width="2.89" stroke-miterlimit="10" stroke-linecap="round"/>
<path opacity="0.49" d="M63.0596 851.41C77.4196 846.46 95.3294 846.03 100.109 802.41C104.889 758.79 104.79 751.09 126.54 720.18C148.29 689.27 130.28 683.18 130.28 683.18C132.187 682.435 134.24 682.138 136.28 682.31C146.89 683.7 161.119 701.63 153.359 712.85C151.199 716.34 125.23 734.11 120.99 756.05C116.75 777.99 118.749 807.13 113.569 823.44C109.379 836.65 93.2493 856.35 63.0693 851.44L63.0596 851.41Z" fill="#3D9480"/>
<path d="M254.66 742.04C254.52 746.14 266.31 775.31 257.66 795.93C249.01 816.55 231.26 839.71 226.54 856.17C222.38 870.7 225.75 899.53 261.34 910.52C296.93 921.51 313.51 904.41 317.4 897.47C321.29 890.53 321.24 884.22 313.48 875.47C305.72 866.72 294.62 857.47 302.32 840.02C310.02 822.57 314.21 812.85 308.15 785.38C302.09 757.91 295.33 730.8 285.73 726.09C276.13 721.38 254.4 728.4 254.66 742.04Z" fill="#49BEA2"/>
<path d="M319 894.14C318.57 895.289 318.052 896.402 317.45 897.47C315.413 900.83 312.723 903.748 309.54 906.05C306.75 901.47 303.54 894.33 306.73 889.3C309.92 884.27 315.41 889.57 319 894.14Z" fill="#58595B"/>
<path d="M289.8 913.7C289.58 906.15 290.03 893.04 295.8 891.7C301.8 890.29 305.07 901.97 306.36 908.19C301.284 911.16 295.644 913.037 289.8 913.7Z" fill="#58595B"/>
<path d="M279.26 895.751C285.53 895.311 287.26 906.751 287.66 913.921C281.716 914.354 275.74 913.943 269.91 912.7C271.38 904.97 274.18 896.101 279.26 895.751Z" fill="#58595B"/>
<path d="M261.39 910.57C258.59 909.711 255.848 908.675 253.18 907.47C254.91 902.92 257.82 898.07 262.55 897.22C269.35 896 268.02 906.41 266.83 912.06C265.06 911.57 263.25 911.1 261.39 910.57Z" fill="#58595B"/>
<path d="M277.459 803.91C277.459 803.91 273.219 817.171 285.069 822.811C296.919 828.451 301.83 816.63 299.8 812.16C297.77 807.69 292.049 807.49 288.939 810.25" stroke="#1F705F" stroke-width="2.89" stroke-miterlimit="10" stroke-linecap="round"/>
<path opacity="0.49" d="M253.18 907.42C243.96 895.34 229.28 885.08 249.46 846.06C269.64 807.04 273.96 800.72 272.95 762.94C271.94 725.16 290.28 730.09 290.28 730.09C289.104 728.431 287.565 727.063 285.78 726.09C276.18 721.38 254.4 728.44 254.66 742.09C254.52 746.19 266.31 775.36 257.66 795.98C249.01 816.6 231.26 839.76 226.54 856.22C222.72 869.54 225.26 894.87 253.13 907.47L253.18 907.42Z" fill="#3D9480"/>
<path d="M333.569 69.9998C311.664 66.9072 290.007 62.2622 268.76 56.0999C282.38 37.4799 293.45 23.9698 293.45 23.9698C293.45 23.9698 353.959 9.71997 401.569 17.13C390.799 43.35 370.059 75.1398 333.569 69.9998Z" fill="#CB9B3B"/>
<path d="M437.26 83.5698C429.42 69.5698 435.51 45.9098 441.06 30.3398C481.78 51.4198 518.96 90.4597 518.96 90.4597C526.74 105.04 528.62 127.46 527.83 150.34C499.86 136.99 446.83 100.66 437.26 83.5698Z" fill="#CB9B3B"/>
<path d="M301.753 68.4647C310.396 59.8224 313.052 48.4667 307.686 43.1009C302.32 37.7351 290.964 40.3911 282.322 49.0335C273.68 57.6758 271.024 69.0315 276.389 74.3973C281.755 79.7631 293.111 77.107 301.753 68.4647Z" fill="white"/>
<path d="M412.33 576.37C419.222 576.37 424.81 572.994 424.81 568.83C424.81 564.666 419.222 561.29 412.33 561.29C405.437 561.29 399.85 564.666 399.85 568.83C399.85 572.994 405.437 576.37 412.33 576.37Z" fill="white"/>
<path d="M96.3091 727.604C101.641 722.681 104.132 716.706 101.872 714.26C99.6129 711.813 93.459 713.82 88.1274 718.744C82.7958 723.667 80.3054 729.642 82.5647 732.089C84.824 734.535 90.9776 732.527 96.3091 727.604Z" fill="white"/>
<path d="M300.449 797.203C303.775 796.543 305.305 790.128 303.866 782.874C302.427 775.62 298.564 770.274 295.238 770.934C291.912 771.594 290.382 778.009 291.821 785.263C293.26 792.517 297.123 797.863 300.449 797.203Z" fill="white"/>
<path d="M593.195 289.61C597.112 286.323 594.466 276.72 587.284 268.161C580.103 259.602 571.105 255.329 567.188 258.616C563.27 261.903 565.916 271.507 573.097 280.065C580.279 288.624 589.277 292.897 593.195 289.61Z" fill="white"/>
<path d="M297.63 768.79C299.071 768.79 300.24 767.622 300.24 766.18C300.24 764.739 299.071 763.57 297.63 763.57C296.188 763.57 295.02 764.739 295.02 766.18C295.02 767.622 296.188 768.79 297.63 768.79Z" fill="white"/>
<path d="M563.05 254.2C565.801 254.2 568.03 251.971 568.03 249.22C568.03 246.47 565.801 244.24 563.05 244.24C560.3 244.24 558.07 246.47 558.07 249.22C558.07 251.971 560.3 254.2 563.05 254.2Z" fill="white"/>
</g>
<defs>
<clipPath id="clip0_5470_18902">
<rect width="624.92" height="964.59" fill="white"/>
</clipPath>
</defs>
</svg>
