<svg width="286" height="437" viewBox="0 0 286 437" fill="none" xmlns="http://www.w3.org/2000/svg">
<g clip-path="url(#clip0_2056_465)">
<path d="M224.951 146.704C224.951 146.704 236.252 121.285 234.879 100.641C234.852 100.247 234.957 99.8545 235.177 99.5263C235.397 99.1981 235.72 98.9522 236.095 98.8272C236.47 98.7022 236.876 98.7053 237.249 98.8358C237.622 98.9664 237.941 99.2171 238.156 99.5486C244.87 110.013 256.885 130.217 259.47 144.433C263.107 164.448 252.207 179.888 259.47 196.209C259.47 196.209 288.065 230.269 278.091 309.293C268.117 388.318 203.174 436.457 116.859 433.735C30.5444 431.013 0.388894 358.29 4.38637 329.308C7.2458 308.664 10.5799 289.313 5.12982 281.135C-0.320252 272.958 2.84228 247.968 8.7613 233.448C14.6803 218.929 5.58732 203.02 17.8485 195.752C30.1098 188.483 35.577 180.312 36.9209 170.773C38.1734 162.012 56.3079 127.924 76.5126 119.644C76.9765 119.455 77.4848 119.403 77.9771 119.495C78.4694 119.587 78.9249 119.819 79.2894 120.162C79.6539 120.506 79.9121 120.946 80.0332 121.432C80.1543 121.918 80.1332 122.429 79.9725 122.903C77.7135 129.468 74.7912 141.683 79.1604 152.611C79.1604 152.611 109.139 143.982 115.498 127.632C121.857 111.283 119.581 101.287 116.407 89.0264C113.353 77.2577 104.861 40.7905 140.747 12.1806C141.152 11.8574 141.641 11.655 142.156 11.5963C142.671 11.5377 143.192 11.6252 143.66 11.849C144.128 12.0727 144.523 12.4236 144.801 12.8615C145.079 13.2993 145.227 13.8065 145.23 14.325C145.316 24.0866 147.667 44.5533 164.16 60.7882C183.169 79.4879 222.681 92.6634 224.951 146.704Z" fill="#D84C53"/>
<path d="M224.951 146.704C227.361 140.745 229.369 134.631 230.962 128.404C231.343 126.845 231.713 125.282 232.071 123.715C232.38 122.142 232.746 120.575 232.98 118.991L233.381 116.618L233.69 114.239C233.924 112.655 234.027 111.06 234.153 109.47C234.233 108.669 234.244 107.875 234.262 107.08L234.319 104.689C234.319 103.894 234.256 103.1 234.221 102.305L234.17 101.115C234.112 100.611 234.161 100.101 234.313 99.617C234.523 99.0803 234.907 98.6296 235.404 98.3372C235.901 98.0448 236.481 97.9276 237.052 98.0044C237.636 98.0872 238.171 98.375 238.562 98.8164C238.654 98.9251 238.739 99.0394 238.825 99.1481L238.991 99.3997L239.323 99.9087C240.209 101.258 241.078 102.614 241.942 103.98C245.373 109.436 248.684 115.011 251.664 120.758C253.168 123.618 254.569 126.557 255.902 129.519C257.234 132.482 258.389 135.547 259.396 138.669L260.082 141.042C260.305 141.837 260.46 142.655 260.654 143.461C261.007 145.082 261.267 146.722 261.432 148.373C261.756 151.665 261.794 154.979 261.546 158.278C261.106 164.848 259.682 171.208 259.007 177.475C258.636 180.551 258.585 183.658 258.853 186.745C259.015 188.251 259.287 189.744 259.665 191.211C260.069 192.661 260.582 194.08 261.197 195.454L260.917 195.008C261.312 195.488 261.621 195.889 261.941 196.329C262.261 196.769 262.558 197.198 262.867 197.639C263.439 198.514 264.011 199.4 264.583 200.298C265.681 202.088 266.687 203.929 267.66 205.782C269.553 209.498 271.238 213.316 272.709 217.219C275.625 225.015 277.852 233.052 279.366 241.237C280.914 249.386 281.911 257.63 282.351 265.912C282.8 274.181 282.812 282.467 282.386 290.737C282.197 294.871 281.854 298.988 281.482 303.106L280.813 309.253C280.544 311.312 280.241 313.371 279.927 315.429C278.608 323.669 276.632 331.791 274.019 339.716C273.316 341.677 272.669 343.667 271.92 345.618L269.558 351.422L266.91 357.106L266.579 357.815L266.213 358.513L265.475 359.897L264.005 362.67C259.97 370.009 255.258 376.955 249.931 383.417C244.596 389.887 238.66 395.836 232.203 401.185C225.769 406.546 218.858 411.309 211.558 415.412C204.274 419.511 196.674 423.022 188.831 425.912C186.869 426.615 184.925 427.381 182.923 427.976L179.944 428.92C178.943 429.228 177.959 429.566 176.947 429.823L170.908 431.453L164.812 432.831C156.658 434.525 148.407 435.709 140.106 436.377L133.878 436.754C132.838 436.834 131.803 436.834 130.762 436.863L127.645 436.931C126.61 436.931 125.569 436.994 124.528 436.988L121.417 436.943L118.3 436.897H116.745L115.178 436.805L108.921 436.434C106.84 436.228 104.758 435.976 102.682 435.748L101.121 435.57C100.6 435.507 100.086 435.404 99.571 435.324L96.4714 434.804L93.3718 434.278L90.3008 433.586C82.0897 431.789 74.0837 429.158 66.4074 425.734C50.9749 418.84 37.3057 408.539 26.4269 395.603L24.4024 393.184L22.4923 390.68C21.1884 389.033 20.0275 387.249 18.8322 385.533C18.2203 384.681 17.6885 383.783 17.1166 382.891L15.4581 380.22L13.9083 377.481C13.3936 376.566 12.8617 375.657 12.4042 374.713L10.9803 371.9C10.4941 370.968 10.0995 369.996 9.65347 369.041C8.74989 367.142 7.99499 365.175 7.21151 363.225C6.81119 362.253 6.49667 361.246 6.13638 360.257C5.77609 359.268 5.42724 358.278 5.13558 357.26L4.22627 354.23L3.44851 351.159C2.44237 347.026 1.77487 342.819 1.45264 338.578L1.32682 335.353L1.40688 332.099C1.49838 331.007 1.61848 329.897 1.73285 328.822L2.16749 325.78C3.31126 317.671 4.62088 309.602 5.2614 301.59C5.62229 297.667 5.63759 293.719 5.30714 289.793C5.13823 287.966 4.73855 286.167 4.11763 284.44L3.8717 283.869L3.59721 283.297C3.50642 283.114 3.40523 282.936 3.29411 282.765L2.87663 282.09C2.25112 281.048 1.75743 279.932 1.40688 278.768C0.761217 276.64 0.352695 274.448 0.188757 272.231C0.0111492 270.103 -0.0499299 267.967 0.00576677 265.832C0.127144 261.635 0.532198 257.451 1.21816 253.309C1.87565 249.179 2.78085 245.092 3.92889 241.071C4.50078 239.058 5.14701 237.068 5.87902 235.078C6.06775 234.586 6.24503 234.089 6.45091 233.603L7.0228 232.184C7.20008 231.744 7.36593 231.304 7.50318 230.852C7.64043 230.4 7.79483 229.948 7.90921 229.485C8.90429 225.808 9.09301 221.862 9.05298 217.825C9.05298 215.806 9.00152 213.754 9.02439 211.661C9.01435 209.507 9.18653 207.357 9.53909 205.233C9.73338 204.119 10.0242 203.025 10.4084 201.962C10.8169 200.87 11.3443 199.827 11.9811 198.851C13.2972 196.939 15.0321 195.353 17.0537 194.213C20.4968 192.243 23.7031 189.885 26.6099 187.185C29.4692 184.526 31.7794 181.332 33.4096 177.784C34.203 176.006 34.8105 174.151 35.2225 172.248L35.4855 170.807C35.5828 170.327 35.68 169.664 35.8287 169.183C36.1032 168.145 36.4315 167.122 36.8123 166.118C38.3361 162.238 40.1384 158.473 42.2052 154.852C44.2182 151.238 46.42 147.744 48.7704 144.347C53.4885 137.582 58.8471 131.195 65.235 125.882C68.4168 123.195 71.9707 120.982 75.7863 119.312C76.3177 119.038 76.9042 118.887 77.502 118.871C78.126 118.871 78.7357 119.058 79.2519 119.409C79.7592 119.757 80.1562 120.243 80.3957 120.81C80.6342 121.383 80.694 122.015 80.5673 122.623L80.4472 123.057L80.3214 123.418L80.0697 124.132L79.5951 125.585C79.2977 126.551 79.0232 127.529 78.7601 128.513C77.7193 132.454 77.1699 136.509 77.1245 140.585C77.1122 142.624 77.2691 144.661 77.5935 146.675C77.935 148.692 78.4614 150.673 79.1662 152.594C78.3948 150.692 77.8032 148.722 77.399 146.709C77.0034 144.692 76.7757 142.645 76.7185 140.59C76.6333 136.467 77.0559 132.35 77.9766 128.33C78.1997 127.323 78.457 126.323 78.7258 125.328L79.1604 123.841L79.3892 123.103L79.5036 122.731L79.5779 122.428C79.6291 122.127 79.6135 121.819 79.5321 121.524C79.4506 121.23 79.3054 120.957 79.1068 120.725C78.9081 120.493 78.6608 120.308 78.3825 120.182C78.1042 120.057 77.8016 119.994 77.4963 119.998C77.0587 120.033 76.6347 120.166 76.2553 120.387C72.6026 122.102 69.2196 124.34 66.2129 127.032C60.1166 132.367 55.0497 138.806 50.549 145.548C48.3186 148.939 46.2255 152.411 44.3326 156.008C42.4174 159.554 40.7585 163.233 39.3686 167.016C39.0429 167.935 38.7643 168.87 38.5337 169.818C38.4741 170.042 38.4264 170.269 38.3907 170.498L38.2706 171.202L38.019 172.786C37.6116 174.899 36.9868 176.965 36.1546 178.95C34.4517 182.907 31.9812 186.488 28.886 189.484C25.8406 192.425 22.465 195.005 18.8265 197.17C17.2817 198.073 15.9619 199.314 14.9663 200.801C14.4988 201.55 14.1152 202.347 13.8225 203.18C13.526 204.053 13.3078 204.95 13.1706 205.862C12.5987 209.585 12.8846 213.651 12.9532 217.785C13.0219 221.92 12.9532 226.243 11.8781 230.509C11.758 231.041 11.6036 231.573 11.4378 232.099C11.2719 232.625 11.1003 233.145 10.9059 233.665L10.3626 235.112C10.1853 235.57 10.0252 236.039 9.85364 236.508C9.20169 238.383 8.61837 240.289 8.10367 242.226C7.06544 246.099 6.252 250.028 5.66743 253.995C5.06282 257.94 4.72653 261.922 4.66091 265.912C4.63424 267.873 4.71443 269.833 4.90111 271.785C5.05964 273.653 5.42208 275.498 5.98196 277.287C6.22903 278.089 6.57482 278.857 7.01136 279.574L7.40597 280.226C7.56609 280.495 7.74337 280.758 7.8749 281.027L8.28666 281.839L8.63552 282.662C9.4411 284.777 9.96972 286.988 10.2082 289.238C10.6342 293.469 10.6783 297.729 10.3397 301.968C9.76784 310.3 8.59547 318.437 7.4803 326.558L7.06854 329.594L6.8112 332.453L6.75973 335.313L6.89698 338.223C7.2255 342.147 7.87582 346.038 8.84139 349.855L9.59628 352.714L10.477 355.573C10.7515 356.523 11.1061 357.455 11.4435 358.393C11.7809 359.331 12.0897 360.274 12.4786 361.189C13.2335 363.03 13.9598 364.883 14.8348 366.679C15.2637 367.577 15.6468 368.497 16.1101 369.378L17.4826 372.037C17.9229 372.929 18.4319 373.787 18.9295 374.651L20.4221 377.247L22.0234 379.769C22.5609 380.609 23.0813 381.484 23.6704 382.262C24.8141 383.892 25.9579 385.55 27.1875 387.1L29.0118 389.467L30.9505 391.755C41.3402 403.91 54.3084 413.598 68.9122 420.113C76.212 423.346 83.8234 425.823 91.6275 427.507L94.5499 428.159L97.5123 428.651L100.469 429.143C100.966 429.217 101.453 429.314 101.95 429.377L103.443 429.537C105.433 429.749 107.446 429.989 109.413 430.183L115.418 430.521L116.922 430.607H118.432L121.457 430.647L124.482 430.681C125.495 430.681 126.501 430.635 127.508 430.618L130.533 430.544C131.539 430.509 132.552 430.515 133.552 430.435L139.586 430.052C147.613 429.413 155.594 428.286 163.485 426.678L169.375 425.357L175.197 423.801C176.175 423.561 177.124 423.23 178.057 422.938L180.916 422.034C182.849 421.463 184.719 420.736 186.635 420.067C194.171 417.308 201.476 413.954 208.481 410.037C222.496 402.199 234.972 391.883 245.305 379.591C250.447 373.452 255.004 366.845 258.915 359.857L260.345 357.215L261.06 355.888L261.415 355.23L261.735 354.55L264.314 349.123L266.602 343.57C267.334 341.7 267.968 339.796 268.66 337.915C271.239 330.299 273.201 322.49 274.528 314.56C274.831 312.57 275.157 310.557 275.437 308.59L276.152 302.545C276.57 298.542 276.958 294.477 277.193 290.434C277.716 282.349 277.808 274.242 277.467 266.147C277.139 258.067 276.27 250.018 274.865 242.055C273.483 234.106 271.434 226.288 268.741 218.683C267.392 214.897 265.832 211.189 264.068 207.577C263.176 205.788 262.244 204.015 261.209 202.299C260.7 201.441 260.179 200.584 259.642 199.772C259.362 199.366 259.07 198.948 258.813 198.554C258.555 198.159 258.241 197.747 257.978 197.41L257.783 197.158L257.703 196.964C257.03 195.386 256.477 193.759 256.05 192.097C255.656 190.438 255.383 188.752 255.233 187.054C254.99 183.717 255.1 180.365 255.559 177.052C255.965 173.781 256.565 170.596 257.108 167.433C257.652 164.271 258.155 161.143 258.441 158.003C258.751 154.881 258.788 151.737 258.549 148.608C258.429 147.051 258.219 145.503 257.92 143.97C257.755 143.21 257.629 142.443 257.434 141.683L256.828 139.395C255.93 136.37 254.838 133.385 253.631 130.434C252.425 127.483 251.081 124.584 249.657 121.719C246.797 116.001 243.703 110.368 240.421 104.844C239.597 103.466 238.768 102.093 237.922 100.726L237.607 100.217L237.447 99.9601L237.338 99.8114C237.194 99.6369 236.99 99.521 236.766 99.4855C236.534 99.4495 236.297 99.4904 236.091 99.6019C235.884 99.7134 235.72 99.8894 235.623 100.103C235.534 100.39 235.508 100.692 235.548 100.989V102.213C235.548 103.025 235.583 103.843 235.583 104.655L235.457 107.091C235.422 107.903 235.388 108.715 235.285 109.522C234.642 115.965 233.397 122.335 231.568 128.547C229.77 134.74 227.56 140.806 224.951 146.704Z" fill="#231F20"/>
<path d="M79.1604 152.611C82.4773 151.41 85.718 150.051 88.8825 148.534C92.0495 147.044 95.1293 145.375 98.107 143.536C101.06 141.728 103.851 139.669 106.451 137.383C107.713 136.242 108.9 135.019 110.002 133.723C111.063 132.44 112 131.06 112.799 129.6L113.371 128.507C113.536 128.136 113.679 127.758 113.834 127.364C113.997 126.975 114.14 126.578 114.263 126.174L114.674 124.945C114.966 124.133 115.195 123.304 115.429 122.48L115.79 121.245L116.081 119.998C116.892 116.71 117.34 113.342 117.42 109.956C117.475 106.582 117.178 103.211 116.533 99.8976C115.904 96.5579 115.006 93.2126 114.068 89.8329C113.078 86.3588 112.27 82.8352 111.649 79.2765C111.033 75.6845 110.668 72.054 110.557 68.4112C110.288 61.055 111.16 53.7015 113.142 46.6121C114.145 43.0565 115.452 39.5936 117.048 36.2615C118.659 32.9594 120.515 29.7825 122.601 26.7573C124.715 23.7415 127.034 20.8754 129.544 18.1795L131.471 16.2238C131.791 15.8978 132.106 15.5661 132.437 15.2459L133.444 14.3195L135.463 12.461L137.561 10.7054L138.608 9.8247L138.739 9.71605L139.003 9.52734C139.185 9.39006 139.376 9.26403 139.574 9.14992C139.786 9.04127 140.003 8.93261 140.221 8.84111C140.445 8.7529 140.674 8.67655 140.907 8.61237C142.294 8.2396 143.77 8.38171 145.061 9.01243C146.352 9.64315 147.371 10.7198 147.93 12.0435C148.114 12.4822 148.246 12.9409 148.324 13.4102C148.324 13.639 148.37 13.8734 148.387 14.1022V14.5254C148.387 15.3603 148.387 16.2009 148.467 17.0415C148.636 20.4086 149.048 23.7589 149.702 27.0661C150.954 33.6797 153.255 40.0506 156.519 45.9373C158.146 48.8734 160.029 51.6597 162.147 54.2635L162.936 55.2414C163.19 55.5752 163.463 55.8941 163.754 56.1964L165.469 58.0435C166.041 58.6725 166.613 59.2501 167.248 59.8391C167.883 60.4281 168.489 60.9828 169.118 61.5547C171.663 63.8421 174.391 65.958 177.159 68.091L185.554 74.5129C188.362 76.6745 191.158 78.8933 193.881 81.2093C196.603 83.5254 199.285 85.9214 201.778 88.5176C204.297 91.0923 206.67 93.8052 208.887 96.6437C211.079 99.5046 213.085 102.503 214.892 105.622C218.418 111.876 221.031 118.602 222.652 125.597L223.224 128.199L223.682 130.829C224.025 132.573 224.185 134.346 224.408 136.102C224.534 136.982 224.568 137.869 224.631 138.749L224.808 141.397C224.883 143.164 224.888 144.931 224.917 146.692C224.711 144.943 224.534 143.187 224.316 141.443L223.905 138.835C223.767 137.972 223.653 137.12 223.459 136.239C223.093 134.523 222.812 132.808 222.343 131.092L221.703 128.553L220.937 126.048C218.907 119.403 215.968 113.07 212.204 107.229C210.319 104.343 208.258 101.575 206.033 98.9426C203.777 96.3345 201.379 93.8527 198.85 91.5084C193.709 86.8298 188.273 82.4862 182.574 78.5045C176.856 74.4214 170.988 70.4985 165.418 65.7635C159.777 60.9884 154.985 55.2922 151.247 48.9167L149.897 46.492C149.457 45.6857 149.091 44.8337 148.685 44.0045L148.136 42.7693L147.609 41.494C147.272 40.6362 146.883 39.7785 146.58 38.9207C145.302 35.4638 144.292 31.9135 143.56 28.3013C142.827 24.694 142.361 21.0376 142.165 17.3618C142.108 16.4468 142.096 15.5204 142.068 14.5997V14.4281C142.066 14.4034 142.066 14.3785 142.068 14.3538C142.065 14.3592 142.064 14.365 142.064 14.3709C142.064 14.3769 142.065 14.3827 142.068 14.3881C142.068 14.4224 142.068 14.451 142.068 14.491C142.094 14.56 142.137 14.621 142.194 14.6683C142.245 14.7095 142.306 14.7373 142.371 14.7493C142.436 14.7612 142.503 14.757 142.565 14.7369C142.584 14.7423 142.604 14.7423 142.623 14.7369C142.639 14.7436 142.658 14.7436 142.674 14.7369C142.674 14.7369 142.674 14.7369 142.708 14.7369C142.743 14.7369 142.708 14.7369 142.708 14.7369L142.588 14.8399L141.61 15.6576L139.649 17.2874L137.773 19.003L136.835 19.8665C136.526 20.1524 136.263 20.4383 135.937 20.7586L134.147 22.5656C131.842 25.0276 129.703 27.639 127.742 30.3829C125.813 33.1327 124.093 36.0229 122.595 39.0293C121.125 42.0468 119.893 45.1749 118.912 48.3849C116.957 54.842 116.012 61.5625 116.11 68.3083C116.148 71.7148 116.41 75.1151 116.893 78.4873C117.366 81.8954 118.019 85.276 118.849 88.6149C119.673 92.046 120.491 95.5572 121.034 99.1656C121.625 102.799 121.8 106.489 121.554 110.162C121.291 113.822 120.632 117.442 119.587 120.959L119.21 122.269L118.769 123.549C118.478 124.407 118.197 125.265 117.848 126.1L117.357 127.358C117.185 127.781 117.048 128.193 116.831 128.633C116.613 129.074 116.43 129.502 116.219 129.926L115.538 131.155C114.537 132.732 113.388 134.21 112.107 135.57C110.841 136.887 109.491 138.119 108.063 139.258C105.234 141.474 102.201 143.418 99.0048 145.063C92.6985 148.325 86.0407 150.858 79.1604 152.611Z" fill="#231F20"/>
<path d="M237.876 325.145C237.876 291.177 227.193 274.902 219.244 265.06C218.995 264.755 218.658 264.534 218.279 264.427C217.899 264.321 217.496 264.334 217.125 264.466C216.754 264.597 216.432 264.841 216.204 265.162C215.976 265.483 215.854 265.867 215.853 266.261C215.807 273.026 214.795 284.469 209.041 291.532C209.041 291.532 207.16 259.971 190.564 242.438C173.968 224.905 145.848 201.91 157.76 184.766C169.049 168.531 203.197 154.389 189.912 131.098C189.697 130.738 189.386 130.447 189.013 130.256C188.641 130.065 188.222 129.982 187.805 130.017C187.388 130.052 186.989 130.204 186.654 130.455C186.318 130.705 186.06 131.045 185.909 131.435C183.57 137.605 177.822 145.983 165.052 149.694C147.695 154.744 106.554 177.727 114.737 205.805C122.921 233.883 119.49 261.137 109.127 265.037C109.127 265.037 92.9772 243.747 79.5265 240.739C79.0573 240.648 78.5728 240.676 78.1171 240.82C77.6615 240.965 77.2493 241.221 76.9182 241.565C76.5872 241.91 76.3478 242.332 76.222 242.793C76.0962 243.254 76.088 243.74 76.1981 244.205C77.6878 250.218 77.266 256.547 74.9914 262.31C70.3134 273.998 38.3621 306.423 45.768 342.038C53.174 377.653 99.4052 411.078 143.263 406.829C199.96 401.322 237.876 364.603 237.876 325.145Z" fill="#F8A33E"/>
<path d="M109.127 265.038C105.743 260.963 102.09 257.119 98.1927 253.532C94.3096 249.969 90.1863 246.618 85.6112 244.153C84.4794 243.549 83.3082 243.022 82.1056 242.575C81.8082 242.455 81.5051 242.363 81.2077 242.272C80.9103 242.18 80.6072 242.066 80.2984 242.003L79.3891 241.78C79.3284 241.772 79.2668 241.772 79.2061 241.78H79.0517C78.9507 241.774 78.8495 241.774 78.7486 241.78C78.346 241.844 77.9783 242.046 77.7089 242.352C77.4396 242.658 77.2854 243.048 77.2731 243.456C77.2674 243.553 77.2674 243.65 77.2731 243.747L77.3074 243.896V243.97L77.3417 244.096C77.4218 244.434 77.5133 244.765 77.5819 245.103C77.7364 245.772 77.8679 246.452 77.9708 247.133C78.8715 252.654 78.2425 258.316 76.1522 263.505C75.6005 264.785 74.9643 266.027 74.2478 267.222C73.5616 268.392 72.8582 269.536 72.1376 270.653C70.7079 272.912 69.2438 275.131 67.8027 277.35C64.9433 281.781 62.1239 286.236 59.5733 290.811C57.0127 295.347 54.7323 300.035 52.745 304.85C50.7986 309.617 49.3144 314.559 48.3128 319.61C47.3751 324.595 47.0963 329.683 47.4836 334.741C47.8886 339.771 49.0332 344.713 50.8806 349.409C54.5464 358.856 60.6027 367.371 67.8599 374.628C75.1555 381.915 83.5096 388.059 92.6397 392.853C101.734 397.672 111.533 401.022 121.674 402.78C126.708 403.657 131.812 404.069 136.921 404.01L138.831 403.981C139.471 403.981 140.1 403.901 140.735 403.861L142.645 403.735C143.274 403.695 143.926 403.598 144.573 403.529C145.859 403.381 147.152 403.249 148.439 403.083L152.282 402.511C157.397 401.675 162.463 400.554 167.454 399.155C172.423 397.714 177.304 395.984 182.071 393.974C186.834 391.974 191.444 389.629 195.865 386.957C200.284 384.295 204.491 381.296 208.447 377.985C212.382 374.678 216.018 371.03 219.312 367.085C222.62 363.162 225.519 358.912 227.965 354.401C230.411 349.896 232.33 345.124 233.684 340.179C235.022 335.232 235.74 330.138 235.823 325.014V321.091V319.129L235.737 317.174L235.56 313.256L235.217 309.351C234.706 304.159 233.813 299.011 232.546 293.95C231.278 288.892 229.49 283.978 227.21 279.288C226.638 278.144 226.066 276.949 225.397 275.823C225.077 275.251 224.774 274.679 224.431 274.107L223.407 272.437C221.995 270.236 220.548 268.068 218.912 265.987L218.62 265.598C218.56 265.526 218.493 265.459 218.42 265.398C218.281 265.283 218.113 265.207 217.934 265.18C217.742 265.159 217.547 265.185 217.368 265.257C217.188 265.329 217.029 265.444 216.905 265.592C216.756 265.8 216.673 266.046 216.665 266.301V266.553V267.05C216.665 267.72 216.596 268.389 216.556 269.058C216.373 271.728 216.024 274.385 215.509 277.012C214.993 279.637 214.227 282.207 213.222 284.686C212.233 287.173 210.859 289.489 209.15 291.549C210.716 289.416 211.939 287.053 212.776 284.543C213.583 282.041 214.151 279.467 214.474 276.858C214.844 274.254 215.054 271.63 215.103 269C215.103 268.343 215.103 267.691 215.103 267.033V266.296C215.103 266.21 215.103 266.078 215.103 265.97C215.149 265.49 215.327 265.033 215.618 264.649C215.895 264.265 216.265 263.959 216.693 263.759C217.122 263.558 217.594 263.471 218.066 263.505C218.549 263.547 219.013 263.717 219.41 263.997C219.603 264.134 219.78 264.293 219.936 264.471L220.262 264.866C223.747 268.965 226.791 273.419 229.343 278.156C231.904 282.913 233.967 287.923 235.497 293.104C236.993 298.285 238.092 303.573 238.785 308.922L239.271 312.925L239.586 316.928L239.74 318.941L239.814 320.953L239.957 324.956C240.163 335.936 237.315 346.899 232.34 356.649C229.846 361.537 226.861 366.159 223.43 370.442C219.99 374.694 216.175 378.628 212.032 382.199C207.907 385.764 203.509 389.001 198.879 391.881C194.261 394.766 189.436 397.306 184.444 399.481C179.466 401.661 174.353 403.518 169.135 405.039C163.922 406.536 158.629 407.742 153.282 408.653L149.279 409.276C147.935 409.454 146.591 409.597 145.247 409.757C144.567 409.831 143.909 409.934 143.217 409.98L141.158 410.129C140.466 410.174 139.78 410.243 139.094 410.266L137.024 410.311C131.524 410.407 126.027 409.988 120.605 409.059C109.81 407.142 99.3867 403.527 89.7231 398.348C84.8999 395.789 80.2773 392.868 75.8949 389.61C71.4964 386.363 67.3708 382.762 63.5593 378.842C55.9589 371.002 49.5481 361.801 45.665 351.393C43.689 346.176 42.5092 340.692 42.1651 335.124C41.8774 329.587 42.3196 324.036 43.4804 318.615C45.8251 307.852 50.4688 297.891 56.0104 288.707C58.7783 284.097 61.7693 279.66 64.8117 275.297C66.3272 273.112 67.8599 270.95 69.3353 268.777C70.8246 266.689 72.1625 264.497 73.3385 262.218C75.4149 257.586 76.1861 252.474 75.5689 247.436C75.5003 246.801 75.4088 246.172 75.2887 245.543C75.2372 245.228 75.1686 244.92 75.1057 244.605V244.491L75.0771 244.319L75.0199 243.976C75.0056 243.744 75.0056 243.511 75.0199 243.278C75.0515 242.758 75.1871 242.249 75.4187 241.782C75.6502 241.315 75.9731 240.899 76.3682 240.559C76.7632 240.219 77.2225 239.962 77.7188 239.802C78.215 239.642 78.7383 239.584 79.2576 239.63C79.4732 239.655 79.6872 239.693 79.8981 239.744L80.9103 240.036C81.2477 240.128 81.568 240.259 81.8997 240.373C82.2314 240.488 82.5516 240.614 82.8662 240.757C84.1241 241.295 85.3432 241.92 86.5148 242.627C91.1642 245.446 95.1674 249.048 98.9018 252.846C102.577 256.678 105.993 260.751 109.127 265.038Z" fill="#231F20"/>
<path d="M209.041 291.526C208.559 287.691 207.874 283.885 206.988 280.123C206.136 276.37 205.09 272.663 203.854 269.018C201.378 261.767 198.136 254.721 193.658 248.7C192.538 247.202 191.337 245.766 190.061 244.399C189.437 243.719 188.751 243.044 188.07 242.364L186.012 240.339L177.651 232.293C174.848 229.606 172.086 226.861 169.393 224.013C166.699 221.165 164.08 218.226 161.615 215.098C159.078 211.935 156.872 208.52 155.033 204.907C154.1 203.005 153.361 201.015 152.825 198.966C152.27 196.812 152.054 194.586 152.185 192.366L152.259 191.514C152.271 191.229 152.31 190.946 152.373 190.668L152.711 188.981L153.237 187.34C153.323 187.067 153.43 186.801 153.557 186.545L153.912 185.767C154.032 185.51 154.146 185.247 154.278 184.989L154.712 184.263L155.153 183.543C155.287 183.303 155.438 183.074 155.604 182.856L156.531 181.576C156.851 181.164 157.183 180.769 157.509 180.363C158.808 178.799 160.186 177.303 161.638 175.88C163.062 174.462 164.497 173.129 165.978 171.808C168.895 169.183 171.863 166.662 174.711 164.157C177.535 161.703 180.209 159.081 182.717 156.305C183.917 154.966 185.029 153.55 186.046 152.068C187.008 150.648 187.832 149.139 188.505 147.562C189.096 146.053 189.48 144.472 189.649 142.861C189.761 141.266 189.643 139.664 189.3 138.103L188.957 136.925C188.9 136.731 188.854 136.531 188.785 136.353L188.551 135.781L188.093 134.638L187.521 133.494L187.23 132.922L187.155 132.779L187.121 132.705V132.739C187.121 132.785 187.178 132.802 187.213 132.853C187.359 133.026 187.561 133.142 187.784 133.179C187.978 133.223 188.181 133.197 188.356 133.105C188.543 133.007 188.696 132.855 188.797 132.67C188.727 132.807 188.668 132.948 188.619 133.094L188.316 133.843L187.636 135.312L186.887 136.736L186.063 138.126C184.918 139.944 183.59 141.64 182.1 143.187C179.132 146.254 175.61 148.732 171.72 150.489C169.823 151.35 167.866 152.07 165.864 152.645C164.148 153.149 162.376 153.761 160.631 154.412C153.611 157.15 146.901 160.625 140.615 164.78C137.476 166.845 134.47 169.104 131.614 171.545C128.772 173.939 126.15 176.582 123.779 179.442C121.437 182.246 119.493 185.36 118.003 188.695C116.553 191.965 115.803 195.503 115.801 199.08V200.418L115.95 201.745C115.984 202.19 116.041 202.633 116.121 203.072L116.402 204.387C116.562 205.233 116.836 206.228 117.076 207.172C117.317 208.115 117.528 209.087 117.757 210.031C118.624 213.863 119.29 217.738 119.753 221.64C120.622 229.428 120.811 237.331 119.69 245.086C119.409 247.027 119.027 248.953 118.546 250.856C118.08 252.766 117.462 254.636 116.699 256.448C115.946 258.269 114.955 259.982 113.754 261.544C112.568 263.118 110.957 264.32 109.11 265.009C110.846 264.173 112.315 262.87 113.353 261.246C114.39 259.645 115.213 257.915 115.801 256.1C116.413 254.292 116.884 252.439 117.208 250.558C117.548 248.68 117.789 246.784 117.929 244.88C118.203 241.073 118.224 237.252 117.991 233.443C117.761 229.636 117.323 225.845 116.682 222.086C116.049 218.323 115.231 214.6 114.228 210.917C113.965 210.002 113.731 209.076 113.445 208.167C113.159 207.258 112.873 206.388 112.627 205.348L112.233 203.838C112.101 203.335 112.055 202.814 111.964 202.3L111.724 200.75L111.638 199.189C111.452 195.002 112.176 190.825 113.76 186.945C115.302 183.149 117.364 179.585 119.884 176.354C124.837 169.915 130.973 164.66 137.504 160.154C144.056 155.635 151.071 151.828 158.43 148.797C160.294 148.053 162.187 147.35 164.148 146.767C165.85 146.254 167.511 145.616 169.118 144.857C172.289 143.403 175.155 141.362 177.565 138.841C178.755 137.593 179.815 136.227 180.727 134.763L181.385 133.654L181.957 132.51L182.494 131.338L182.735 130.766C182.838 130.526 182.82 130.52 183.129 129.857C183.652 128.791 184.518 127.931 185.588 127.415C186.637 126.912 187.818 126.752 188.963 126.958C190.143 127.17 191.217 127.774 192.011 128.673C192.204 128.89 192.378 129.124 192.531 129.371L192.645 129.554L192.691 129.645L192.788 129.823L193.16 130.543L193.898 131.984L194.515 133.517L194.819 134.283C194.916 134.54 194.984 134.815 195.065 135.084L195.522 136.691C196.016 138.915 196.174 141.201 195.991 143.473C195.75 145.71 195.201 147.904 194.361 149.992C193.514 151.975 192.475 153.871 191.261 155.653C190.083 157.359 188.794 158.985 187.401 160.52C184.693 163.46 181.81 166.232 178.766 168.823C175.809 171.408 172.83 173.867 169.936 176.354C168.5 177.607 167.076 178.859 165.738 180.152C164.397 181.406 163.124 182.731 161.924 184.12C161.638 184.463 161.352 184.806 161.06 185.155L160.26 186.208C160.129 186.372 160.011 186.546 159.905 186.728L159.585 187.237L159.259 187.746C159.167 187.923 159.087 188.106 159.001 188.283L158.738 188.815C158.642 188.997 158.565 189.189 158.51 189.387L158.121 190.502L157.869 191.646C157.82 191.833 157.789 192.025 157.778 192.218L157.72 192.79C157.593 194.435 157.724 196.091 158.109 197.696C158.531 199.399 159.105 201.06 159.825 202.66C161.407 205.998 163.323 209.167 165.544 212.118C170.01 218.18 175.266 223.778 180.584 229.377L188.591 237.8L190.581 239.939C191.239 240.654 191.896 241.369 192.554 242.146C193.861 243.66 195.072 245.255 196.18 246.921C200.549 253.601 203.494 260.983 205.507 268.52C207.531 276.035 208.717 283.75 209.041 291.526Z" fill="#231F20"/>
<path d="M145.945 340.208C145.945 340.208 164.995 339.516 178.154 333.975C191.313 328.433 212.095 329.823 212.095 347.127C212.095 364.432 196.86 372.06 183.352 366.519C169.844 360.978 165.338 354.744 145.945 356.128C126.553 357.512 100.566 366.302 89.1399 366.176C77.9767 366.05 70.4392 359.594 70.4392 347.47C70.4392 335.347 80.8246 325.048 102.299 331.064C123.773 337.08 136.561 341.02 145.945 340.208Z" fill="#F8F9E3"/>
<path d="M70.4392 347.482C70.1954 343.997 70.9619 340.517 72.6466 337.457C73.511 335.904 74.6194 334.501 75.9293 333.3C77.2558 332.093 78.7507 331.085 80.3671 330.309C83.625 328.829 87.1573 328.05 90.7354 328.021C92.5029 327.971 94.2715 328.059 96.0253 328.284C96.9003 328.37 97.741 328.53 98.6331 328.662C99.5253 328.793 100.349 328.982 101.212 329.188C102.928 329.583 104.552 330.023 106.216 330.44L111.157 331.756C114.448 332.629 117.738 333.486 121.028 334.329C124.316 335.164 127.593 336.004 130.876 336.702C134.11 337.431 137.391 337.936 140.695 338.212C142.308 338.346 143.929 338.363 145.545 338.263C147.261 338.195 148.896 338.086 150.583 337.949C153.929 337.669 157.269 337.251 160.586 336.742C163.894 336.253 167.175 335.595 170.416 334.769C171.217 334.546 172.029 334.346 172.818 334.1L175.186 333.351L177.513 332.51L178.766 332.047L180.03 331.624C183.409 330.565 186.916 329.965 190.455 329.84C194.001 329.696 197.544 330.163 200.932 331.218C202.629 331.772 204.243 332.553 205.73 333.54C207.225 334.523 208.524 335.776 209.562 337.234C210.579 338.675 211.311 340.298 211.718 342.015C212.102 343.701 212.239 345.435 212.124 347.161C211.895 343.764 210.854 340.408 208.693 337.932C206.493 335.5 203.587 333.816 200.383 333.117C197.188 332.355 193.888 332.138 190.621 332.476C187.35 332.775 184.129 333.486 181.036 334.592L179.892 335.032L178.749 335.507L176.312 336.519C175.489 336.828 174.66 337.091 173.83 337.394C173.001 337.697 172.166 337.903 171.331 338.16C167.992 339.112 164.606 339.891 161.186 340.494C157.755 341.1 154.323 341.523 150.892 341.855C149.176 342.009 147.421 342.146 145.745 342.226L144.418 342.301C143.972 342.301 143.52 342.301 143.069 342.301C142.159 342.301 141.279 342.243 140.381 342.198C136.895 341.863 133.437 341.29 130.03 340.482C126.656 339.721 123.327 338.887 120.033 337.949C116.739 337.011 113.462 336.056 110.191 335.089L105.296 333.631C103.671 333.145 102.013 332.613 100.44 332.179C97.2725 331.275 94.0094 330.747 90.7182 330.606C87.4502 330.437 84.1831 330.956 81.1277 332.127C78.0549 333.283 75.4117 335.355 73.5559 338.063C72.6075 339.435 71.8728 340.943 71.3771 342.535C70.8625 344.139 70.5475 345.8 70.4392 347.482Z" fill="#231F20"/>
<path d="M212.095 347.139C212.35 350.712 211.783 354.295 210.437 357.615C209.005 361.014 206.637 363.935 203.608 366.038C200.51 368.135 196.906 369.363 193.171 369.595C189.435 369.822 185.697 369.19 182.243 367.748C180.573 367.091 178.926 366.382 177.307 365.638C175.689 364.895 174.105 364.088 172.532 363.322C169.513 361.736 166.352 360.436 163.09 359.439C156.685 357.546 149.754 357.724 142.914 358.433C135.997 359.253 129.126 360.421 122.326 361.933L112.032 364.106C108.601 364.843 105.13 365.558 101.63 366.159C100.76 366.319 99.8798 366.462 98.9991 366.593C98.1184 366.725 97.2491 366.879 96.3513 366.976C94.5635 367.23 92.7631 367.384 90.9584 367.44C90.039 367.465 89.1189 367.442 88.2019 367.371C87.7444 367.331 87.2869 367.314 86.8293 367.251L85.4626 367.039C83.6346 366.739 81.8554 366.195 80.1726 365.421L79.5435 365.135C79.3377 365.032 79.1375 364.9 78.9373 364.792C78.5427 364.552 78.131 364.334 77.7478 364.071L76.604 363.248C76.2266 362.979 75.9121 362.63 75.5632 362.327C74.2196 361.069 73.1186 359.574 72.3149 357.918C71.5149 356.295 70.9672 354.56 70.6907 352.771C70.4112 351.019 70.3249 349.241 70.4334 347.47C70.5456 349.21 70.829 350.934 71.2798 352.617C71.4113 353.029 71.48 353.458 71.6515 353.858L72.109 355.07C72.252 355.471 72.4807 355.842 72.6809 356.214L72.9726 356.786C73.0728 356.974 73.1855 357.156 73.31 357.329C74.1827 358.774 75.3014 360.055 76.6155 361.115C76.9335 361.382 77.2657 361.632 77.6106 361.864L78.6743 362.527C79.0288 362.733 79.4177 362.893 79.7894 363.099C79.9782 363.185 80.1612 363.288 80.3613 363.362L80.9332 363.58C84.0971 364.718 87.4764 365.13 90.8211 364.786C94.2538 364.424 97.6611 363.851 101.024 363.071C107.829 361.527 114.657 359.817 121.531 358.204C124.963 357.421 128.434 356.689 131.928 356.048C135.422 355.408 138.945 354.847 142.502 354.43C146.096 354.048 149.711 353.912 153.322 354.024C157.007 354.128 160.662 354.724 164.188 355.797C167.63 356.944 170.958 358.411 174.128 360.177C177.262 361.818 180.298 363.459 183.455 364.855C186.458 366.278 189.74 367.014 193.063 367.011C196.402 367.008 199.679 366.114 202.556 364.42C205.472 362.686 207.848 360.175 209.419 357.169C211.012 354.053 211.924 350.634 212.095 347.139Z" fill="#231F20"/>
<path d="M92.9599 296.055C91.2771 298.268 90.1356 300.845 89.6266 303.579C89.1176 306.313 89.2553 309.128 90.0286 311.799C90.802 314.47 92.1896 316.923 94.0804 318.961C95.9713 321 98.313 322.569 100.918 323.541C103.524 324.513 106.32 324.863 109.085 324.561C111.849 324.259 114.505 323.315 116.839 321.804C119.173 320.293 121.122 318.256 122.528 315.858C123.935 313.459 124.761 310.764 124.94 307.989L92.9599 296.055Z" fill="#F8F9E3"/>
<path d="M124.906 307.709L103.008 299.532C101.553 301.033 100.489 302.869 99.9102 304.878C99.3311 306.887 99.2544 309.008 99.6869 311.053C100.119 313.099 101.048 315.007 102.39 316.61C103.733 318.212 105.449 319.461 107.387 320.245C109.325 321.029 111.426 321.326 113.506 321.108C115.585 320.89 117.579 320.164 119.313 318.995C121.046 317.826 122.466 316.249 123.447 314.403C124.428 312.557 124.941 310.498 124.94 308.407C124.94 308.178 124.917 307.944 124.906 307.709Z" fill="#040809"/>
<path d="M92.9599 296.055C91.4501 298.346 90.4605 300.94 90.0605 303.655C89.9634 304.322 89.9061 304.994 89.8889 305.668C89.8622 306.338 89.887 307.009 89.9633 307.675C89.9976 308.012 90.0147 308.344 90.0548 308.676L90.2378 309.659C90.3566 310.314 90.519 310.959 90.7239 311.592C91.5175 314.124 92.8878 316.438 94.7271 318.351C95.1768 318.83 95.6542 319.283 96.1568 319.707C96.6486 320.141 97.2033 320.507 97.7238 320.896C101.06 323.058 105.024 324.041 108.984 323.687C111.615 323.415 114.154 322.566 116.419 321.199C118.696 319.776 120.636 317.873 122.103 315.624C123.57 313.307 124.528 310.704 124.911 307.989C124.896 310.811 124.2 313.587 122.881 316.081C121.525 318.6 119.598 320.766 117.254 322.406C114.844 324.044 112.076 325.078 109.182 325.422C106.289 325.765 103.355 325.407 100.629 324.379C97.903 323.358 95.46 321.702 93.5026 319.547C91.5452 317.393 90.1299 314.803 89.3742 311.992C89.1928 311.296 89.0534 310.589 88.9567 309.876L88.8252 308.807C88.7909 308.452 88.8252 308.092 88.7909 307.738C88.7613 307.024 88.7861 306.309 88.8652 305.599C88.9336 304.891 89.0482 304.188 89.2084 303.495C89.8224 300.742 91.1116 298.185 92.9599 296.055Z" fill="#231F20"/>
<path d="M127.233 308.773L87.1497 294.128" stroke="#231F20" stroke-width="4.83" stroke-miterlimit="10" stroke-linecap="round"/>
<path d="M190.038 296.055C191.72 298.268 192.862 300.845 193.371 303.579C193.88 306.313 193.742 309.128 192.969 311.799C192.196 314.47 190.808 316.923 188.917 318.961C187.026 321 184.685 322.569 182.079 323.541C179.474 324.513 176.677 324.863 173.913 324.561C171.148 324.259 168.493 323.315 166.159 321.804C163.824 320.293 161.876 318.256 160.469 315.858C159.063 313.459 158.237 310.764 158.058 307.989L190.038 296.055Z" fill="#F8F9E3"/>
<path d="M158.092 307.709L179.99 299.532C181.444 301.033 182.508 302.869 183.087 304.878C183.666 306.887 183.743 309.008 183.311 311.053C182.878 313.099 181.95 315.007 180.607 316.61C179.265 318.212 177.549 319.461 175.611 320.245C173.673 321.029 171.571 321.326 169.492 321.108C167.412 320.89 165.418 320.164 163.685 318.995C161.951 317.826 160.532 316.249 159.55 314.403C158.569 312.557 158.057 310.498 158.058 308.407C158.058 308.178 158.081 307.944 158.092 307.709Z" fill="#040809"/>
<path d="M190.038 296.055C191.891 298.183 193.19 300.737 193.818 303.489C193.975 304.183 194.09 304.885 194.161 305.593C194.235 306.304 194.258 307.018 194.229 307.732C194.229 308.087 194.229 308.447 194.201 308.801L194.069 309.871C193.974 310.584 193.832 311.291 193.646 311.987C192.891 314.797 191.477 317.386 189.52 319.541C187.564 321.695 185.122 323.351 182.397 324.373C179.671 325.402 176.736 325.761 173.842 325.419C170.948 325.076 168.178 324.043 165.767 322.406C163.405 320.77 161.458 318.604 160.082 316.081C158.765 313.586 158.071 310.81 158.058 307.989C158.441 310.704 159.398 313.307 160.866 315.624C162.331 317.874 164.272 319.777 166.55 321.199C168.815 322.566 171.354 323.415 173.985 323.687C177.943 324.044 181.907 323.061 185.239 320.896C185.766 320.507 186.32 320.141 186.812 319.707C187.313 319.282 187.791 318.829 188.242 318.351C190.078 316.436 191.448 314.123 192.245 311.592C192.45 310.959 192.612 310.314 192.731 309.659L192.908 308.676C192.954 308.344 192.971 308.012 193.006 307.675C193.082 307.009 193.107 306.338 193.08 305.668C193.061 304.994 193.002 304.322 192.903 303.655C192.516 300.942 191.538 298.348 190.038 296.055Z" fill="#231F20"/>
<path d="M155.765 308.773L195.848 294.128" stroke="#231F20" stroke-width="4.83" stroke-miterlimit="10" stroke-linecap="round"/>
<path d="M103.94 11.5744C106.884 11.5744 109.27 9.18823 109.27 6.24473C109.27 3.30122 106.884 0.915039 103.94 0.915039C100.997 0.915039 98.6102 3.30122 98.6102 6.24473C98.6102 9.18823 100.997 11.5744 103.94 11.5744Z" fill="#D84C53"/>
<path d="M276.461 194.099C281.676 194.099 285.903 189.872 285.903 184.658C285.903 179.443 281.676 175.216 276.461 175.216C271.246 175.216 267.019 179.443 267.019 184.658C267.019 189.872 271.246 194.099 276.461 194.099Z" fill="#D84C53"/>
<path d="M98.6102 6.2446C98.4312 5.4994 98.4334 4.72217 98.6164 3.97797C98.7995 3.23376 99.1582 2.54425 99.6625 1.96713C100.191 1.34602 100.849 0.847182 101.589 0.505095C102.33 0.163009 103.136 -0.0141602 103.952 -0.0141602C104.767 -0.0141602 105.573 0.163009 106.314 0.505095C107.055 0.847182 107.712 1.34602 108.241 1.96713C108.745 2.54452 109.102 3.23427 109.285 3.97854C109.467 4.72281 109.468 5.49988 109.287 6.2446C108.961 4.96746 108.236 3.82767 107.217 2.99075C106.295 2.24666 105.145 1.84084 103.96 1.84084C102.775 1.84084 101.626 2.24666 100.703 2.99075C99.6764 3.8243 98.9429 4.96447 98.6102 6.2446Z" fill="#231F20"/>
<path d="M109.247 6.24463C109.427 6.9898 109.425 7.76715 109.242 8.51143C109.059 9.25572 108.7 9.94523 108.195 10.5221C107.667 11.1449 107.01 11.6454 106.27 11.9886C105.529 12.3318 104.722 12.5096 103.906 12.5096C103.089 12.5096 102.283 12.3318 101.542 11.9886C100.802 11.6454 100.144 11.1449 99.6167 10.5221C99.1126 9.94496 98.7544 9.25521 98.5723 8.51086C98.3902 7.76651 98.3895 6.98932 98.5702 6.24463C98.8952 7.52241 99.6207 8.66264 100.64 9.49849C101.567 10.2361 102.716 10.6391 103.9 10.6422C105.083 10.6424 106.231 10.2389 107.154 9.49849C108.183 8.66684 108.917 7.52591 109.247 6.24463Z" fill="#231F20"/>
<path d="M267.019 184.658C266.847 183.366 266.964 182.052 267.359 180.811C267.754 179.569 268.42 178.43 269.307 177.475C270.218 176.477 271.327 175.679 272.564 175.133C273.801 174.587 275.138 174.305 276.49 174.305C277.841 174.305 279.178 174.587 280.415 175.133C281.652 175.679 282.761 176.477 283.672 177.475C284.557 178.431 285.219 179.571 285.609 180.813C286 182.055 286.11 183.368 285.931 184.658C285.587 182.285 284.431 180.104 282.66 178.488C280.961 176.974 278.765 176.138 276.49 176.138C274.214 176.138 272.018 176.974 270.319 178.488C268.535 180.098 267.368 182.28 267.019 184.658Z" fill="#231F20"/>
<path d="M285.903 184.658C286.083 185.945 285.977 187.257 285.591 188.498C285.206 189.74 284.55 190.881 283.672 191.84C282.761 192.839 281.652 193.637 280.415 194.183C279.178 194.728 277.841 195.01 276.49 195.01C275.138 195.01 273.801 194.728 272.564 194.183C271.327 193.637 270.218 192.839 269.307 191.84C268.417 190.887 267.75 189.749 267.354 188.506C266.959 187.264 266.844 185.95 267.019 184.658C267.363 187.031 268.519 189.211 270.29 190.828C271.989 192.342 274.185 193.178 276.461 193.178C278.736 193.178 280.933 192.342 282.632 190.828C284.405 189.213 285.561 187.032 285.903 184.658Z" fill="#231F20"/>
<path d="M75.1343 102.373C74.8705 102.755 74.7258 103.207 74.7184 103.671C74.711 104.135 74.8412 104.591 75.0927 104.981C75.3441 105.372 75.7054 105.679 76.1311 105.864C76.5568 106.049 77.0278 106.104 77.4847 106.022C84.3759 104.815 93.8578 101.058 94.6413 89.5465C95.8594 71.3158 92.8399 67.6731 102.247 57.9458C111.655 48.2186 79.1947 61.9488 76.4096 71.3158C73.7274 80.3111 81.2249 93.7325 75.1343 102.373Z" fill="#D84C53"/>
<path d="M102.23 57.9459C102.682 57.413 103.082 56.8386 103.426 56.2303C103.587 55.961 103.683 55.6573 103.706 55.3439C103.706 55.0809 103.528 54.9894 103.231 54.9436C102.583 54.9077 101.933 54.9911 101.315 55.1895C100.669 55.3668 100.023 55.5898 99.3823 55.8357C96.8309 56.8569 94.3592 58.0668 91.9878 59.4556C89.6092 60.7994 87.3172 62.2911 85.1252 63.9218C82.965 65.4539 81.0153 67.2631 79.3263 69.3029C78.9571 69.7753 78.6353 70.2829 78.3655 70.8183C78.1206 71.3146 77.951 71.8447 77.8622 72.3909C77.6249 73.6264 77.5328 74.8854 77.5877 76.1423C77.746 78.8296 78.0784 81.5039 78.5828 84.1482C79.1067 86.9706 79.441 89.8248 79.5836 92.6918C79.6359 94.2112 79.5382 95.732 79.292 97.2323C79.0395 98.8082 78.5457 100.336 77.8279 101.761C77.6438 102.122 77.4415 102.473 77.2217 102.814L76.89 103.323C76.7356 103.557 76.7985 103.494 76.7528 103.54C76.7317 103.579 76.7208 103.624 76.7208 103.669C76.7208 103.713 76.7317 103.758 76.7528 103.797C76.7742 103.849 76.8068 103.895 76.8484 103.933C76.8899 103.97 76.9393 103.998 76.993 104.014C77.0502 104.043 77.0673 104.014 77.1988 104.014L78.1711 103.831C80.71 103.359 83.159 102.491 85.4283 101.258C86.5229 100.658 87.544 99.9327 88.4707 99.0965C88.9243 98.6804 89.3485 98.2332 89.7403 97.7584C89.9348 97.5182 90.1464 97.2952 90.3122 97.0493L90.8212 96.2773C92.146 94.1209 92.9307 91.6765 93.1087 89.152C93.3603 86.4014 93.5319 83.6507 93.6806 80.883C93.8293 78.1152 93.9208 75.3245 94.2067 72.4881C94.4327 69.6179 95.2712 66.8294 96.6658 64.3106C98.1823 61.9206 100.053 59.7746 102.213 57.9459L100.915 59.5871C100.486 60.159 100.103 60.7308 99.6911 61.2684C99.2793 61.8059 98.9534 62.4121 98.5817 62.9839C98.2099 63.5558 97.9412 64.1848 97.6552 64.7967C96.602 67.2781 96.0818 69.953 96.1283 72.6483C96.0768 75.3703 96.2026 78.1552 96.2598 80.9573C96.317 83.7594 96.2598 86.5672 96.1797 89.3807C96.1511 90.0955 96.0596 90.8675 95.9967 91.611C95.9338 92.3544 95.7165 93.1035 95.5735 93.8526C95.4306 94.6018 95.1218 95.3223 94.8472 96.0428L94.3783 97.095L94.1324 97.6269L93.835 98.1244L93.2345 99.148C93.0229 99.474 92.7713 99.7713 92.5368 100.08C92.0637 100.69 91.5456 101.263 90.987 101.796C89.8766 102.861 88.6465 103.793 87.3212 104.575C84.7162 106.078 81.885 107.15 78.9374 107.749L77.8565 107.966C77.2379 108.078 76.6028 108.058 75.9922 107.909C75.3724 107.749 74.7951 107.455 74.3011 107.048C73.8071 106.641 73.4083 106.131 73.1328 105.553C72.8485 104.963 72.7038 104.316 72.7098 103.662C72.7157 103.007 72.8722 102.363 73.1671 101.779C73.3043 101.527 73.5388 101.161 73.5731 101.109L73.8133 100.738C73.9791 100.503 74.0935 100.235 74.2422 99.9829C75.3288 97.9185 75.6548 95.4081 75.6147 92.8176C75.5136 90.1179 75.2462 87.427 74.8141 84.7601C74.348 81.9235 74.0899 79.0566 74.042 76.1823C74.0365 74.6526 74.2171 73.1279 74.5796 71.6418C74.6997 71.2529 74.7683 70.9098 74.9456 70.4638C75.1068 70.0685 75.298 69.6861 75.5175 69.3201C75.9169 68.63 76.3803 67.9791 76.9015 67.3758C77.8818 66.2587 78.9613 65.2328 80.1269 64.3106C81.2507 63.4095 82.425 62.5732 83.644 61.8059C86.0419 60.2869 88.539 58.9305 91.1185 57.7457C93.685 56.5522 96.3457 55.573 99.0735 54.8178C99.7628 54.6352 100.462 54.4901 101.167 54.3832C101.903 54.2368 102.661 54.2368 103.397 54.3832C103.614 54.4424 103.812 54.559 103.969 54.7206C104.049 54.8109 104.11 54.9172 104.146 55.0325C104.183 55.1478 104.194 55.2695 104.18 55.3897C104.11 55.7685 103.947 56.1241 103.706 56.4247C103.271 56.984 102.776 57.4941 102.23 57.9459Z" fill="#231F20"/>
<path d="M199.811 331.922L186.715 367.634" stroke="#231F20" stroke-width="4" stroke-miterlimit="10"/>
<path d="M84.4561 329.097L94.1838 365.873" stroke="#231F20" stroke-width="4" stroke-miterlimit="10"/>
<path d="M115.538 334.661L118.906 360.72" stroke="#231F20" stroke-width="4" stroke-miterlimit="10"/>
<path d="M143.183 339.722V355.654" stroke="#231F20" stroke-width="4" stroke-miterlimit="10"/>
<path d="M173.344 334.667L168.306 360.303" stroke="#231F20" stroke-width="4" stroke-miterlimit="10"/>
<path d="M204.392 355.653C193.726 353.938 183.043 352.531 172.366 351.33C167.014 350.758 161.661 350.187 156.302 349.803C150.944 349.42 145.568 348.98 140.215 348.78C134.862 348.58 129.481 348.465 124.105 348.477C118.729 348.488 113.348 348.608 107.961 348.711C97.192 348.98 86.4177 349.46 75.6147 349.775C86.3166 348.277 97.0662 347.179 107.863 346.481C113.256 346.109 118.666 345.909 124.076 345.772C129.486 345.635 134.908 345.72 140.335 345.926C145.762 346.132 151.149 346.601 156.542 347.116C161.935 347.63 167.305 348.311 172.652 349.123C177.999 349.935 183.329 350.838 188.637 351.925C193.944 353.011 199.188 354.184 204.392 355.653Z" fill="#231F20"/>
</g>
<defs>
<clipPath id="clip0_2056_465">
<rect width="286" height="437" fill="white"/>
</clipPath>
</defs>
</svg>
