<svg width="1589" height="775" viewBox="0 0 1589 775" fill="none" xmlns="http://www.w3.org/2000/svg">
<g clip-path="url(#clip0_5470_14813)">
<path d="M658.08 774.359C635.231 774.328 612.735 768.717 592.549 758.013C572.362 747.309 555.096 731.836 542.25 712.94C534.605 714.332 526.851 715.032 519.08 715.03C501.487 715.074 484.075 711.477 467.939 704.466C451.803 697.455 437.293 687.181 425.32 674.29C411.603 678.352 397.126 679.15 383.045 676.622C368.964 674.094 355.669 668.309 344.222 659.728C332.775 651.148 323.492 640.01 317.115 627.204C310.738 614.398 307.443 600.279 307.494 585.973C307.544 571.667 310.938 557.571 317.406 544.81C323.873 532.05 333.234 520.978 344.742 512.478C356.249 503.979 369.584 498.288 383.683 495.859C397.781 493.43 412.252 494.331 425.94 498.49C446.56 476.586 474.265 462.686 504.15 459.25C504.3 452.004 505.171 444.792 506.75 437.72C499.677 439.102 492.487 439.799 485.28 439.8C481.71 439.8 478.11 439.63 474.57 439.3C473.39 439.19 472.22 439.06 471.05 438.91C469.48 438.71 467.91 438.48 466.35 438.21C450.531 454.353 430.668 465.954 408.835 471.801C387.002 477.648 364 477.527 342.23 471.45L341.7 472.07C337.903 476.499 333.712 480.576 329.18 484.25C327.03 486 324.8 487.66 322.57 489.17C321.763 489.73 320.943 490.27 320.11 490.79C317.202 492.641 314.198 494.336 311.11 495.87C309.59 496.62 308.11 497.33 306.6 497.96C305.09 498.59 303.66 499.18 302.15 499.75L300.61 500.31C298.4 501.09 296.12 501.8 293.85 502.42C285.531 504.694 276.944 505.844 268.32 505.84C255.173 505.888 242.157 503.23 230.081 498.031C218.006 492.832 207.13 485.203 198.13 475.62C187.905 464.863 180.304 451.889 175.92 437.71C158.707 436.404 142.095 430.81 127.598 421.439C113.1 412.068 101.179 399.218 92.92 384.06C86.8345 385.628 80.5744 386.418 74.29 386.41C54.598 386.391 35.7173 378.562 21.7901 364.641C7.8629 350.719 0.0264734 331.842 0 312.15C0.0211921 292.449 7.85941 273.562 21.7937 259.635C35.7279 245.708 54.6193 237.88 74.32 237.87C78.7223 237.868 83.1161 238.256 87.45 239.03C98.6565 220.74 116.105 207.124 136.57 200.7C140.293 187.489 148.239 175.861 159.192 167.591C170.145 159.32 183.505 154.863 197.23 154.9C203.776 154.897 210.284 155.909 216.52 157.9C228.418 147.152 242.749 139.454 258.28 135.47C264.114 117.993 274.791 102.533 289.07 90.8896C306.317 76.8835 327.853 69.2295 350.07 69.2096C371.348 69.2573 392.02 76.2999 408.901 89.2526C425.782 102.205 437.936 120.349 443.49 140.89C463.716 143.547 482.469 152.901 496.757 167.461C511.045 182.021 520.045 200.947 522.32 221.22C532.463 224.757 542.042 229.742 550.76 236.02C557.159 240.62 563.061 245.875 568.37 251.7L568.54 251.89C582.981 249.791 597.717 251.27 611.453 256.198C625.189 261.125 637.506 269.35 647.32 280.15C648.32 281.15 649.21 282.28 650.12 283.38C651.56 285.13 652.95 286.95 654.27 288.82C668.807 276.68 685.899 267.984 704.27 263.38C738.275 207.545 790.136 164.828 851.45 142.15C831.311 128.829 815.546 109.866 806.128 87.6331C796.71 65.3998 794.057 40.883 798.5 17.1496C799.002 14.4622 800.228 11.963 802.047 9.92202C803.866 7.8811 806.208 6.37613 808.82 5.56961C834.976 -2.49878 863.075 -1.61226 888.67 8.08889C914.265 17.79 935.893 35.7514 950.13 59.1295C964.366 35.7535 985.992 17.7936 1011.59 8.09256C1037.18 -1.60848 1065.28 -2.4963 1091.43 5.56961C1094.04 6.37459 1096.39 7.87891 1098.21 9.91995C1100.03 11.961 1101.26 14.461 1101.76 17.1496C1105.67 37.9488 1104.13 59.4045 1097.29 79.4336C1090.46 99.4627 1078.56 117.385 1062.76 131.46C1058.69 135.077 1054.39 138.418 1049.88 141.46C1087.84 155.165 1122.52 176.638 1151.71 204.506C1180.9 232.375 1203.95 266.026 1219.4 303.31C1226.89 321.409 1232.51 340.227 1236.17 359.47C1247.61 349.633 1261.34 342.842 1276.1 339.726C1290.87 336.61 1306.17 337.27 1320.61 341.645C1335.05 346.019 1348.15 353.967 1358.7 364.751C1369.25 375.536 1376.91 388.809 1380.96 403.34C1399.4 405.951 1416.47 414.573 1429.52 427.868C1442.57 441.163 1450.87 458.39 1453.13 476.88C1465.01 481.142 1476.01 487.533 1485.6 495.74C1487.83 497.64 1490 499.67 1492.06 501.74C1492.92 502.62 1493.78 503.52 1494.62 504.44C1495.62 504.31 1496.62 504.19 1497.62 504.09H1498.08C1500.66 503.85 1503.27 503.72 1505.84 503.72C1520.16 503.719 1534.23 507.438 1546.67 514.512C1559.12 521.586 1569.51 531.772 1576.84 544.072C1584.16 556.372 1588.17 570.365 1588.46 584.677C1588.74 598.99 1585.31 613.133 1578.49 625.719C1577.49 627.479 1576.49 629.279 1575.19 631.229C1564.78 647.31 1549.1 659.274 1530.85 665.073C1512.59 670.872 1492.88 670.146 1475.1 663.02L1473.81 662.49C1472.32 663.49 1470.81 664.359 1469.24 665.229C1468.43 665.69 1467.61 666.149 1466.77 666.589C1451.78 674.522 1435.08 678.672 1418.12 678.68C1412.48 678.678 1406.85 678.223 1401.29 677.32C1390.48 688.255 1377.6 696.934 1363.41 702.855C1349.22 708.776 1333.99 711.819 1318.61 711.81C1316.8 711.81 1314.97 711.81 1313.18 711.69C1304.68 711.28 1296.24 709.939 1288.03 707.69C1287.76 708.01 1287.48 708.32 1287.21 708.63C1281.63 714.95 1275.19 720.451 1268.08 724.969C1266.54 725.969 1264.95 726.89 1263.36 727.77C1262.24 728.39 1261.03 729.02 1259.67 729.69C1258.9 730.07 1258.11 730.45 1257.31 730.82C1241.21 738.185 1223.28 740.609 1205.8 737.784C1188.32 734.959 1172.07 727.012 1159.11 714.95C1147.87 704.468 1139.49 691.288 1134.77 676.66C1128.18 676.114 1121.67 674.887 1115.34 673C1107.15 675.343 1098.66 676.532 1090.14 676.53C1088.98 676.53 1087.83 676.53 1086.67 676.46C1085.51 676.39 1084.28 676.349 1082.93 676.24C1080.65 676.06 1078.36 675.8 1076.08 675.44C1073.04 676.886 1070.04 678.263 1067.08 679.57C1041.54 701.209 1009.15 713.083 975.68 713.08C969.86 713.077 964.046 712.72 958.27 712.01C954.94 711.6 951.56 711.06 948.27 710.4C945.94 709.95 943.59 709.399 941.27 708.839C939.39 708.37 937.75 707.93 936.27 707.49C930.885 705.924 925.599 704.037 920.44 701.839C900.639 726.991 872.817 744.598 841.611 751.725C810.404 758.853 777.697 755.071 748.94 741.01C732.372 755.138 712.729 765.196 691.58 770.38C690.37 770.68 689.16 770.95 687.94 771.22C687 771.42 686.06 771.619 685.11 771.799C676.204 773.522 667.151 774.38 658.08 774.359Z" fill="#080C0D"/>
<path d="M983.39 42.3294C969.514 54.6862 959.068 70.4206 953.067 88.0053C947.066 105.59 945.713 124.428 949.14 142.689L1087.01 19.7994C1069.26 14.3039 1050.39 13.4904 1032.24 17.4381C1014.08 21.3857 997.254 29.9603 983.39 42.3294Z" fill="#9FCC3B"/>
<path d="M1087.01 19.7998L949.141 142.69C966.891 148.179 985.758 148.989 1003.91 145.043C1022.07 141.096 1038.9 132.526 1052.77 120.164C1066.64 107.801 1077.08 92.0655 1083.08 74.4814C1089.08 56.8974 1090.43 38.0617 1087.01 19.7998Z" fill="#63B446"/>
<path d="M916.87 42.3295C930.747 54.6855 941.192 70.4202 947.192 88.0054C953.191 105.591 954.541 124.429 951.11 142.689L813.24 19.7994C830.991 14.3031 849.86 13.4893 868.018 17.4369C886.176 21.3845 903.004 29.9595 916.87 42.3295Z" fill="#9FCC3B"/>
<path d="M813.241 19.7998L951.111 142.69C933.361 148.176 914.495 148.984 896.341 145.036C878.187 141.089 861.36 132.519 847.492 120.157C833.623 107.795 823.182 92.0606 817.182 74.478C811.181 56.8955 809.823 38.0611 813.241 19.7998Z" fill="#63B446"/>
<path d="M951.701 688.4C1103.34 688.4 1226.27 565.471 1226.27 413.83C1226.27 262.189 1103.34 139.26 951.701 139.26C800.06 139.26 677.131 262.189 677.131 413.83C677.131 565.471 800.06 688.4 951.701 688.4Z" fill="#EDD946"/>
<path d="M951.7 665.03C1090.43 665.03 1202.9 552.564 1202.9 413.83C1202.9 275.096 1090.43 162.63 951.7 162.63C812.966 162.63 700.5 275.096 700.5 413.83C700.5 552.564 812.966 665.03 951.7 665.03Z" fill="#F2F6DC"/>
<path d="M874.32 208.92C874.32 173.55 1029.03 173.55 1029.03 208.92L951.68 392.67L874.32 208.92Z" fill="#FEE46E"/>
<path d="M750.539 322.98C725.539 297.98 834.929 188.58 859.929 213.58L935.169 398.22L750.539 322.98Z" fill="#FEE46E"/>
<path d="M743.639 491.149C708.279 491.149 708.279 336.449 743.639 336.449L927.399 413.799L743.639 491.149Z" fill="#FEE46E"/>
<path d="M857.701 614.999C832.701 639.999 723.301 530.609 748.301 505.609L932.941 430.369L857.701 614.999Z" fill="#FEE46E"/>
<path d="M1025.91 621.899C1025.91 657.259 871.199 657.259 871.199 621.899L948.549 438.149L1025.91 621.899Z" fill="#FEE46E"/>
<path d="M1149.72 507.84C1174.72 532.84 1065.33 642.24 1040.33 617.23L965.09 432.6L1149.72 507.84Z" fill="#FEE46E"/>
<path d="M1156.62 339.63C1191.98 339.63 1191.98 494.34 1156.62 494.34L972.859 416.99L1156.62 339.63Z" fill="#FEE46E"/>
<path d="M1042.56 215.81C1067.56 190.81 1176.96 300.2 1151.95 325.21L967.32 400.45L1042.56 215.81Z" fill="#FEE46E"/>
<path d="M1121.49 307.835C1131.35 300.861 1129.61 281.448 1117.61 264.475C1105.6 247.501 1087.87 239.394 1078.02 246.368C1068.16 253.341 1069.9 272.754 1081.9 289.728C1093.91 306.701 1111.63 314.808 1121.49 307.835Z" fill="#F5F4ED"/>
<path d="M1091.14 343.239C1098.65 343.239 1104.74 337.15 1104.74 329.639C1104.74 322.128 1098.65 316.039 1091.14 316.039C1083.63 316.039 1077.54 322.128 1077.54 329.639C1077.54 337.15 1083.63 343.239 1091.14 343.239Z" fill="#F5F4ED"/>
<path d="M849.93 230.01C849.93 230.01 874.29 203.91 906.49 225.66" stroke="#231F20" stroke-width="5.11" stroke-miterlimit="10" stroke-linecap="round"/>
<path d="M1050.32 230.01C1050.32 230.01 1025.96 203.91 993.76 225.66" stroke="#231F20" stroke-width="5.11" stroke-miterlimit="10" stroke-linecap="round"/>
<path d="M979.429 302.529C979.429 302.529 981.349 340.479 948.869 340.479C916.389 340.479 921.039 302.529 921.039 302.529H979.429Z" fill="#19181C"/>
<path d="M926.41 329.469C930.41 335.669 937.3 340.469 948.87 340.469C961.01 340.469 968.34 335.179 972.76 328.539C967.87 323.439 959.51 320.069 950 320.069C939.93 320.079 931.15 323.859 926.41 329.469Z" fill="#F37270"/>
<path d="M886.689 307.079C904.583 307.079 919.089 292.573 919.089 274.679C919.089 256.785 904.583 242.279 886.689 242.279C868.795 242.279 854.289 256.785 854.289 274.679C854.289 292.573 868.795 307.079 886.689 307.079Z" fill="#F8F9E3"/>
<path d="M1010.97 307.079C1028.86 307.079 1043.37 292.573 1043.37 274.679C1043.37 256.785 1028.86 242.279 1010.97 242.279C993.076 242.279 978.57 256.785 978.57 274.679C978.57 292.573 993.076 307.079 1010.97 307.079Z" fill="#F8F9E3"/>
<path d="M854.321 274.68C853.981 270.37 854.564 266.036 856.031 261.969C857.528 257.83 859.863 254.045 862.891 250.849C865.946 247.62 869.627 245.047 873.711 243.29C877.817 241.523 882.24 240.611 886.711 240.611C891.181 240.611 895.604 241.523 899.711 243.29C903.796 245.05 907.48 247.622 910.541 250.849C913.564 254.046 915.896 257.831 917.391 261.969C918.86 266.036 919.447 270.369 919.111 274.68C918.474 266.313 914.766 258.477 908.701 252.68C902.758 247.053 894.885 243.917 886.701 243.917C878.517 243.917 870.644 247.053 864.701 252.68C858.646 258.482 854.949 266.317 854.321 274.68Z" fill="#231F20"/>
<path d="M919.089 274.68C919.425 278.99 918.842 283.322 917.379 287.39C915.877 291.526 913.542 295.311 910.519 298.51C907.461 301.74 903.776 304.312 899.689 306.07C895.583 307.838 891.16 308.75 886.689 308.75C882.219 308.75 877.795 307.838 873.689 306.07C869.603 304.312 865.918 301.74 862.859 298.51C859.837 295.311 857.502 291.526 855.999 287.39C854.537 283.322 853.954 278.99 854.289 274.68C854.917 283.049 858.627 290.887 864.699 296.68C870.642 302.306 878.515 305.442 886.699 305.442C894.883 305.442 902.756 302.306 908.699 296.68C914.758 290.879 918.458 283.044 919.089 274.68Z" fill="#231F20"/>
<path d="M884.99 307.799C896.732 307.799 906.25 298.281 906.25 286.539C906.25 274.798 896.732 265.279 884.99 265.279C873.249 265.279 863.73 274.798 863.73 286.539C863.73 298.281 873.249 307.799 884.99 307.799Z" fill="#040809"/>
<path d="M978.57 274.679C978.236 270.37 978.819 266.038 980.28 261.969C981.778 257.83 984.113 254.045 987.14 250.849C990.197 247.617 993.883 245.045 997.97 243.289C1002.08 241.521 1006.5 240.609 1010.97 240.609C1015.44 240.609 1019.86 241.521 1023.97 243.289C1028.06 245.05 1031.74 247.622 1034.8 250.849C1037.82 254.046 1040.16 257.831 1041.65 261.969C1043.12 266.036 1043.71 270.369 1043.37 274.679C1042.73 266.313 1039.03 258.477 1032.96 252.679C1027.02 247.053 1019.14 243.917 1010.96 243.917C1002.78 243.917 994.903 247.053 988.96 252.679C982.902 258.48 979.201 266.316 978.57 274.679Z" fill="#231F20"/>
<path d="M1043.37 274.68C1043.71 278.99 1043.12 283.322 1041.66 287.39C1040.16 291.526 1037.82 295.311 1034.8 298.51C1031.74 301.74 1028.06 304.312 1023.97 306.07C1019.86 307.838 1015.44 308.75 1010.97 308.75C1006.5 308.75 1002.08 307.838 997.971 306.07C993.886 304.31 990.201 301.737 987.141 298.51C984.117 295.313 981.785 291.528 980.291 287.39C978.82 283.323 978.234 278.99 978.571 274.68C979.207 283.046 982.915 290.882 988.981 296.68C994.924 302.306 1002.8 305.442 1010.98 305.442C1019.16 305.442 1027.04 302.306 1032.98 296.68C1039.04 290.879 1042.74 283.044 1043.37 274.68Z" fill="#231F20"/>
<path d="M1009.27 307.799C1021.01 307.799 1030.53 298.281 1030.53 286.539C1030.53 274.798 1021.01 265.279 1009.27 265.279C997.528 265.279 988.01 274.798 988.01 286.539C988.01 298.281 997.528 307.799 1009.27 307.799Z" fill="#040809"/>
<path d="M581.32 265.97C575.042 265.965 568.788 266.758 562.71 268.33C549.084 250.443 529.691 237.82 507.82 232.6C507.82 232.15 507.82 231.72 507.82 231.27C507.823 211.091 499.812 191.737 485.549 177.463C471.286 163.189 451.939 155.163 431.76 155.15H431.03C428.494 136.107 419.33 118.566 405.148 105.608C390.966 92.6491 372.671 85.1014 353.478 84.2898C334.284 83.4782 315.418 89.4545 300.192 101.169C284.966 112.884 274.354 129.589 270.22 148.35C250.79 151.269 233.005 160.929 219.98 175.64C212.975 171.861 205.139 169.888 197.18 169.9C185.308 169.89 173.854 174.279 165.029 182.221C156.205 190.162 150.637 201.092 149.4 212.9C137.463 215.191 126.272 220.38 116.811 228.01C107.349 235.641 99.9076 245.479 95.14 256.66C88.4684 254.15 81.3982 252.866 74.27 252.87C58.5497 252.872 43.4742 259.119 32.3592 270.236C21.2442 281.353 15 296.429 15 312.15C15.0013 319.936 16.537 327.647 19.5193 334.84C22.5016 342.033 26.8721 348.568 32.381 354.071C37.8899 359.574 44.4292 363.938 51.6253 366.913C58.8214 369.888 66.5332 371.416 74.32 371.41C83.524 371.419 92.6026 369.276 100.83 365.15C107.016 382.105 118.265 396.748 133.053 407.094C147.84 417.44 165.452 422.99 183.5 422.99C184.94 422.99 186.38 422.99 187.8 422.88C191.043 441.897 200.908 459.155 215.649 471.599C230.39 484.044 249.058 490.873 268.35 490.88C281.927 490.884 295.29 487.503 307.232 481.042C319.173 474.582 329.315 465.246 336.74 453.88C358.235 462.048 381.734 463.349 404 457.603C426.265 451.858 446.201 439.349 461.06 421.8C475.418 425.47 490.423 425.822 504.938 422.83C519.452 419.837 533.094 413.579 544.83 404.53C554.696 410.11 565.71 413.352 577.026 414.006C588.342 414.66 599.656 412.709 610.1 408.303C620.543 403.897 629.835 397.153 637.262 388.591C644.689 380.029 650.053 369.876 652.939 358.916C655.826 347.955 656.158 336.478 653.912 325.368C651.666 314.258 646.9 303.812 639.982 294.834C633.064 285.856 624.177 278.584 614.007 273.58C603.837 268.576 592.655 265.972 581.32 265.97Z" fill="#F5F4ED"/>
<g style="mix-blend-mode:multiply">
<path d="M461.01 421.76C475.368 425.43 490.373 425.782 504.888 422.79C519.402 419.798 533.044 413.539 544.78 404.49C555.333 410.467 567.192 413.761 579.316 414.083C591.439 414.405 603.456 411.745 614.312 406.337C625.167 400.929 634.528 392.938 641.574 383.066C648.619 373.194 653.132 361.743 654.717 349.72C656.302 337.696 654.911 325.467 650.665 314.106C646.418 302.746 639.448 292.602 630.365 284.566C621.282 276.529 610.365 270.846 598.572 268.015C586.779 265.184 574.471 265.292 562.73 268.33C562.73 268.33 619.45 348.81 526.34 361.62C526.34 361.62 492.34 417.02 450.51 384.21C450.51 384.21 390.91 452.28 333.59 405.87C333.59 405.87 286.3 490.87 187.75 422.87C190.993 441.887 200.858 459.145 215.599 471.589C230.34 484.034 249.008 490.863 268.3 490.87C281.877 490.874 295.24 487.493 307.182 481.032C319.123 474.572 329.265 465.236 336.69 453.87C358.185 462.038 381.684 463.339 403.95 457.593C426.215 451.848 446.151 439.339 461.01 421.79V421.76Z" fill="#F5F4ED"/>
</g>
<path d="M481.841 245.127C491.042 240.268 491.812 223.664 483.561 208.041C475.31 192.419 461.163 183.693 451.962 188.552C442.761 193.411 441.991 210.015 450.242 225.638C458.493 241.261 472.64 249.986 481.841 245.127Z" fill="white"/>
<path d="M423.311 201.7C431.927 201.7 438.911 194.716 438.911 186.1C438.911 177.484 431.927 170.5 423.311 170.5C414.695 170.5 407.711 177.484 407.711 186.1C407.711 194.716 414.695 201.7 423.311 201.7Z" fill="white"/>
<path d="M631.721 326.038C639.137 318.622 636.249 303.711 625.272 292.734C614.294 281.756 599.383 278.869 591.967 286.285C584.551 293.701 587.438 308.612 598.416 319.59C609.393 330.567 624.304 333.455 631.721 326.038Z" fill="white"/>
<g style="mix-blend-mode:multiply">
<path d="M461.009 421.76C475.367 425.43 490.373 425.782 504.887 422.79C519.401 419.798 533.044 413.539 544.779 404.49C555.332 410.466 567.191 413.76 579.315 414.083C591.439 414.405 603.456 411.745 614.311 406.337C625.167 400.928 634.528 392.938 641.573 383.066C648.618 373.194 653.131 361.743 654.716 349.719C656.302 337.696 654.91 325.467 650.664 314.106C646.418 302.746 639.447 292.602 630.364 284.565C621.281 276.529 610.364 270.846 598.571 268.015C586.778 265.184 574.471 265.292 562.729 268.33C549.103 250.443 529.711 237.82 507.839 232.6C507.839 232.6 576.449 399.6 336.689 453.84C358.185 462.008 381.684 463.309 403.949 457.563C426.215 451.818 446.15 439.309 461.009 421.76Z" fill="#F5F4ED"/>
</g>
<path d="M1505.79 518.61C1500.05 518.604 1494.34 519.33 1488.79 520.77C1476.35 504.441 1458.65 492.914 1438.69 488.14C1438.69 487.74 1438.69 487.34 1438.69 486.94C1438.69 468.512 1431.37 450.84 1418.34 437.81C1405.31 424.78 1387.64 417.46 1369.21 417.46H1368.54C1366.22 400.08 1357.86 384.072 1344.92 372.246C1331.97 360.419 1315.28 353.529 1297.76 352.786C1280.24 352.042 1263.02 357.493 1249.12 368.18C1235.22 378.868 1225.53 394.109 1221.75 411.23C1204.02 413.9 1187.8 422.722 1175.92 436.15C1169.58 432.733 1162.5 430.929 1155.3 430.897C1148.1 430.865 1141.01 432.606 1134.64 435.966C1128.27 439.327 1122.83 444.203 1118.8 450.165C1114.76 456.126 1112.26 462.99 1111.5 470.15C1100.6 472.244 1090.37 476.988 1081.74 483.963C1073.1 490.939 1066.31 499.931 1061.96 510.15C1053.55 506.977 1044.48 505.949 1035.57 507.161C1026.66 508.372 1018.2 511.783 1010.94 517.087C1003.68 522.391 997.857 529.42 993.996 537.539C990.135 545.657 988.358 554.61 988.825 563.588C989.292 572.566 991.989 581.286 996.671 588.96C1001.35 596.635 1007.87 603.021 1015.64 607.543C1023.41 612.065 1032.19 614.58 1041.17 614.861C1050.16 615.141 1059.07 613.178 1067.11 609.15C1072.76 624.627 1083.03 637.994 1096.53 647.439C1110.03 656.883 1126.1 661.949 1142.58 661.95C1143.9 661.95 1145.2 661.95 1146.5 661.85C1149.01 676.636 1155.93 690.321 1166.34 701.119C1176.75 711.916 1190.17 719.324 1204.86 722.375C1219.54 725.427 1234.81 723.98 1248.66 718.224C1262.51 712.468 1274.3 702.67 1282.5 690.11C1302.12 697.568 1323.57 698.757 1343.9 693.513C1364.23 688.269 1382.43 676.85 1395.99 660.83C1409.1 664.176 1422.79 664.495 1436.04 661.763C1449.29 659.03 1461.75 653.318 1472.46 645.06C1481.46 650.169 1491.52 653.143 1501.86 653.752C1512.19 654.362 1522.53 652.591 1532.07 648.575C1541.61 644.56 1550.1 638.407 1556.89 630.592C1563.68 622.776 1568.59 613.506 1571.23 603.496C1573.87 593.486 1574.18 583.004 1572.13 572.856C1570.08 562.708 1565.73 553.166 1559.41 544.965C1553.09 536.764 1544.98 530.123 1535.69 525.554C1526.4 520.984 1516.18 518.609 1505.83 518.61H1505.79Z" fill="#F5F4ED"/>
<g style="mix-blend-mode:multiply">
<path d="M1395.95 660.829C1409.06 664.176 1422.75 664.495 1436 661.762C1449.25 659.03 1461.71 653.318 1472.42 645.059C1482.05 650.519 1492.88 653.528 1503.95 653.824C1515.02 654.12 1525.99 651.693 1535.9 646.756C1545.82 641.819 1554.36 634.524 1560.8 625.51C1567.23 616.497 1571.35 606.042 1572.8 595.064C1574.24 584.085 1572.97 572.919 1569.1 562.547C1565.22 552.175 1558.85 542.914 1550.56 535.578C1542.26 528.242 1532.29 523.054 1521.53 520.472C1510.76 517.89 1499.52 517.992 1488.8 520.769C1488.8 520.769 1540.58 594.229 1455.58 605.929C1455.58 605.929 1424.52 656.499 1386.37 626.549C1386.37 626.549 1331.96 688.679 1279.63 646.319C1279.63 646.319 1236.47 723.879 1146.5 661.849C1149.01 676.636 1155.93 690.321 1166.34 701.118C1176.75 711.916 1190.17 719.324 1204.86 722.375C1219.54 725.427 1234.81 723.98 1248.66 718.224C1262.51 712.468 1274.3 702.67 1282.5 690.109C1302.12 697.567 1323.57 698.756 1343.9 693.512C1364.23 688.268 1382.43 676.849 1395.99 660.829H1395.95Z" fill="#F5F4ED"/>
</g>
<path d="M1414.96 499.57C1423.36 495.134 1424.07 479.977 1416.54 465.717C1409.01 451.457 1396.09 443.493 1387.69 447.929C1379.29 452.366 1378.59 467.522 1386.12 481.782C1393.65 496.042 1406.56 504.006 1414.96 499.57Z" fill="white"/>
<path d="M1361.53 459.94C1369.39 459.94 1375.77 453.565 1375.77 445.7C1375.77 437.835 1369.39 431.46 1361.53 431.46C1353.66 431.46 1347.29 437.835 1347.29 445.7C1347.29 453.565 1353.66 459.94 1361.53 459.94Z" fill="white"/>
<path d="M1551.77 573.444C1558.54 566.676 1555.9 553.066 1545.88 543.045C1535.86 533.024 1522.25 530.387 1515.48 537.155C1508.72 543.923 1511.35 557.533 1521.37 567.554C1531.4 577.574 1545.01 580.212 1551.77 573.444Z" fill="white"/>
<g style="mix-blend-mode:multiply">
<path d="M1395.95 660.83C1409.06 664.176 1422.76 664.495 1436 661.763C1449.25 659.03 1461.71 653.318 1472.42 645.06C1482.05 650.519 1492.88 653.529 1503.95 653.825C1515.02 654.121 1525.99 651.693 1535.91 646.757C1545.82 641.82 1554.37 634.524 1560.8 625.511C1567.23 616.498 1571.35 606.042 1572.8 595.064C1574.25 584.086 1572.97 572.92 1569.1 562.548C1565.22 552.175 1558.85 542.915 1550.56 535.578C1542.26 528.242 1532.29 523.055 1521.53 520.473C1510.76 517.891 1499.52 517.993 1488.8 520.77C1476.36 504.441 1458.66 492.914 1438.7 488.14C1438.7 488.14 1501.33 640.57 1282.46 690.14C1302.08 697.598 1323.53 698.787 1343.86 693.543C1364.19 688.299 1382.39 676.88 1395.95 660.86V660.83Z" fill="#F5F4ED"/>
</g>
<path d="M1090.09 507.95C1088.37 507.95 1086.66 508.009 1084.97 508.119C1069.56 481.592 1045.03 461.567 1015.95 451.771C986.878 441.976 955.234 443.077 926.91 454.869C919.939 436.838 908.887 420.665 894.621 407.619C880.354 394.572 863.261 385.006 844.68 379.669C843.376 352.363 831.976 326.515 812.692 307.138C793.408 287.762 767.614 276.239 740.315 274.804C713.015 273.368 686.156 282.124 664.946 299.372C643.737 316.62 629.69 341.131 625.53 368.149C621.477 367.631 617.396 367.371 613.31 367.369C600.936 367.368 588.683 369.804 577.251 374.539C565.818 379.273 555.43 386.213 546.68 394.962C537.93 403.712 530.989 414.099 526.253 425.531C521.517 436.963 519.08 449.215 519.08 461.589C519.083 465.538 519.33 469.482 519.82 473.399H519.08C502.033 473.383 485.202 477.219 469.846 484.622C454.489 492.024 441.005 502.802 430.4 516.149C418.732 510.956 405.953 508.756 393.22 509.748C380.487 510.741 368.203 514.894 357.48 521.832C346.758 528.769 337.935 538.273 331.812 549.481C325.689 560.689 322.459 573.247 322.415 586.019C322.37 598.79 325.512 611.371 331.557 622.621C337.602 633.872 346.358 643.436 357.032 650.449C367.706 657.461 379.961 661.7 392.686 662.781C405.412 663.862 418.206 661.751 429.91 656.639C443.724 674.231 462.428 687.348 483.674 694.342C504.919 701.337 527.758 701.896 549.32 695.95C558.807 712.716 572.044 727.062 587.994 737.865C603.944 748.668 622.177 755.637 641.267 758.226C660.357 760.815 679.787 758.954 698.039 752.79C716.291 746.625 732.87 736.323 746.48 722.69C774.317 739.215 807.481 744.297 838.989 736.864C870.497 729.431 897.893 710.064 915.41 682.839C939.965 696.109 968.22 700.883 995.772 696.417C1023.32 691.951 1048.62 678.496 1067.73 658.149C1078.29 661.365 1089.42 662.266 1100.36 660.79C1111.3 659.315 1121.79 655.498 1131.12 649.599C1140.45 643.701 1148.4 635.86 1154.43 626.61C1160.45 617.361 1164.41 606.921 1166.04 596.003C1167.67 585.084 1166.92 573.944 1163.85 563.34C1160.78 552.737 1155.45 542.921 1148.25 534.561C1141.04 526.2 1132.11 519.493 1122.07 514.895C1112.04 510.298 1101.13 507.919 1090.09 507.919V507.95Z" fill="#F5F4ED"/>
<g style="mix-blend-mode:multiply">
<path d="M1016.41 531.609C1016.41 531.609 1060.27 537.959 1054.53 580.859C1048.79 623.759 1004.75 628.859 983.329 609.539C983.329 609.539 953.939 644.399 896.329 624.619C896.329 624.619 834.169 690.619 736.919 655.989C736.919 655.989 641.559 773.519 549.289 695.989C558.777 712.756 572.013 727.101 587.963 737.905C603.914 748.708 622.146 755.677 641.236 758.266C660.326 760.855 679.756 758.994 698.008 752.83C716.26 746.665 732.839 736.363 746.449 722.729C774.286 739.255 807.45 744.336 838.958 736.904C870.466 729.471 897.862 710.104 915.379 682.879C939.942 696.151 968.206 700.923 995.764 696.449C1023.32 691.976 1048.63 678.509 1067.73 658.149C1078.29 661.365 1089.42 662.266 1100.36 660.79C1111.3 659.315 1121.79 655.498 1131.12 649.599C1140.45 643.701 1148.4 635.859 1154.43 626.61C1160.45 617.361 1164.41 606.921 1166.04 596.003C1167.66 585.084 1166.92 573.943 1163.84 563.34C1160.77 552.737 1155.45 542.921 1148.24 534.56C1141.04 526.2 1132.11 519.493 1122.07 514.895C1112.04 510.298 1101.13 507.918 1090.09 507.919C1088.37 507.919 1086.66 507.979 1084.97 508.099C1069.56 481.569 1045.03 461.543 1015.95 451.745C986.879 441.948 955.235 443.048 926.909 454.839C926.909 454.839 1010.91 450.149 1016.41 531.609Z" fill="#F5F4ED"/>
</g>
<path d="M819.385 382.116C829.037 376.544 829.006 358.421 819.316 341.638C809.626 324.854 793.947 315.766 784.295 321.339C774.643 326.911 774.674 345.034 784.363 361.818C794.053 378.601 809.733 387.689 819.385 382.116Z" fill="white"/>
<path d="M750.699 345.57C758.481 345.57 764.789 339.261 764.789 331.48C764.789 323.698 758.481 317.39 750.699 317.39C742.918 317.39 736.609 323.698 736.609 331.48C736.609 339.261 742.918 345.57 750.699 345.57Z" fill="white"/>
<path d="M1144.33 562.454C1148.62 550.867 1138.35 536.391 1121.4 530.122C1104.46 523.853 1087.24 528.164 1082.96 539.751C1078.67 551.338 1088.93 565.814 1105.88 572.083C1122.83 578.353 1140.05 574.042 1144.33 562.454Z" fill="white"/>
<path d="M1060.16 546.099C1068.16 546.099 1074.65 539.612 1074.65 531.609C1074.65 523.607 1068.16 517.119 1060.16 517.119C1052.16 517.119 1045.67 523.607 1045.67 531.609C1045.67 539.612 1052.16 546.099 1060.16 546.099Z" fill="white"/>
<g style="mix-blend-mode:multiply">
<path d="M915.43 682.839C939.983 696.104 968.234 700.875 995.781 696.409C1023.33 691.943 1048.63 678.491 1067.73 658.149C1078.29 661.365 1089.42 662.266 1100.36 660.79C1111.3 659.315 1121.79 655.498 1131.12 649.599C1140.45 643.701 1148.4 635.859 1154.43 626.61C1160.45 617.361 1164.41 606.921 1166.04 596.003C1167.67 585.084 1166.92 573.943 1163.85 563.34C1160.78 552.737 1155.45 542.921 1148.25 534.56C1141.04 526.2 1132.11 519.493 1122.07 514.895C1112.04 510.298 1101.13 507.918 1090.09 507.919C1088.37 507.919 1086.66 507.979 1084.97 508.099C1069.56 481.569 1045.03 461.543 1015.96 451.745C986.88 441.948 955.235 443.048 926.91 454.839C926.91 454.839 972.98 663.309 746.5 722.659C774.337 739.185 807.501 744.266 839.009 736.834C870.517 729.401 897.913 710.034 915.43 682.809V682.839Z" fill="#F5F4ED"/>
</g>
</g>
<defs>
<clipPath id="clip0_5470_14813">
<rect width="1588.42" height="774.37" fill="white"/>
</clipPath>
</defs>
</svg>
