<svg width="408" height="394" viewBox="0 0 408 394" fill="none" xmlns="http://www.w3.org/2000/svg">
<g clip-path="url(#clip0_4884_1021)">
<path d="M203.82 393.15C316.387 393.15 407.64 371.032 407.64 343.75C407.64 316.467 316.387 294.35 203.82 294.35C91.2533 294.35 0 316.467 0 343.75C0 371.032 91.2533 393.15 203.82 393.15Z" fill="#A7A9AC"/>
<path d="M385.35 15.9792C384.808 13.0798 383.423 10.4045 381.369 8.28787C379.315 6.17129 376.682 4.70733 373.8 4.07913C359.345 1.28506 344.652 -0.0881208 329.93 -0.0208441C298.93 -0.0208441 272.04 5.87914 249.93 17.5291C230.41 27.8191 215.25 42.2392 204.57 60.5992C193.9 42.2392 178.74 27.8191 159.22 17.5291C137.12 5.87914 110.22 -0.0208441 79.2198 -0.0208441C64.4981 -0.0914157 49.8048 1.27847 35.3498 4.06918C32.4702 4.70157 29.8408 6.16854 27.7901 8.28677C25.7395 10.405 24.3585 13.0806 23.8198 15.9792C18.4198 44.8292 17.0798 70.7592 19.8198 93.0492C19.8218 93.0858 19.8218 93.1225 19.8198 93.1591C20.3398 97.3192 21.0098 101.429 21.8198 105.339L21.9198 105.839C22.0998 106.709 22.2898 107.559 22.4798 108.419L22.6098 108.999C22.8098 109.839 23.0098 110.669 23.2098 111.479L23.3498 112.029C23.5598 112.889 23.7898 113.739 24.0198 114.589L24.0698 114.759C25.0698 118.489 26.2798 122.139 27.5798 125.629C27.5993 125.675 27.616 125.721 27.6298 125.769C27.9398 126.579 28.2498 127.379 28.5798 128.219L28.6998 128.519L29.6998 130.819L29.8598 131.189C30.1898 131.949 30.5298 132.719 30.8598 133.469L30.9498 133.649C32.7846 137.652 34.8617 141.539 37.1698 145.289L37.2598 145.439C37.6898 146.129 38.1198 146.819 38.5398 147.439L38.7098 147.689C39.1498 148.369 39.5998 149.039 40.0598 149.689L40.1498 149.829C42.9932 153.941 46.135 157.838 49.5498 161.489L49.6298 161.579C50.1698 162.159 50.7198 162.729 51.2698 163.289L51.3598 163.379C55.2707 167.343 59.498 170.982 63.9998 174.259L64.1098 174.339C80.7398 186.409 101.59 194.079 126.11 197.139H126.2C130.81 197.709 135.59 198.139 140.43 198.369H140.5L142.44 198.459H142.55C145.43 198.579 148.38 198.639 151.32 198.639H154.07H156.07C159.61 198.569 163.22 198.409 166.79 198.179L168.51 198.059L170.51 197.909L173.22 197.679V328.749C173.22 332.727 174.8 336.543 177.613 339.356C180.426 342.169 184.242 343.749 188.22 343.749H222.61C226.588 343.749 230.403 342.169 233.216 339.356C236.029 336.543 237.61 332.727 237.61 328.749V197.819L238.91 197.929H239.06L240.65 198.049L242.5 198.179C246.09 198.409 249.7 198.569 253.24 198.639H255.24H257.99C260.93 198.639 263.88 198.579 266.76 198.459H266.87L268.81 198.369H268.88C273.72 198.129 278.52 197.709 283.13 197.139C307.63 194.089 328.49 186.419 345.13 174.349L345.2 174.289C349.721 171.006 353.965 167.357 357.89 163.379L357.99 163.279C358.54 162.719 359.09 162.149 359.63 161.579L359.7 161.499C363.105 157.848 366.24 153.955 369.08 149.849L369.19 149.679C369.65 149.019 370.1 148.349 370.58 147.619L370.68 147.459C371.13 146.779 371.56 146.089 371.96 145.459L372.06 145.299C374.378 141.529 376.465 137.622 378.31 133.599L378.39 133.439C378.73 132.679 379.07 131.919 379.39 131.079L379.52 130.789C379.85 130.029 380.16 129.259 380.52 128.509L380.66 128.159C380.98 127.359 381.29 126.549 381.6 125.729V125.669C382.92 122.159 384.11 118.469 385.13 114.789L385.19 114.559C385.42 113.709 385.65 112.849 385.86 112.009L386 111.469C386.2 110.639 386.4 109.809 386.6 108.949L386.73 108.389C386.92 107.539 387.11 106.679 387.3 105.759L387.38 105.369C388.19 101.369 388.86 97.2792 389.38 93.1192C389.38 93.1192 389.38 93.0391 389.38 93.0191C392.09 70.7691 390.71 44.8392 385.35 15.9792Z" fill="#231F20"/>
<path d="M222.52 108.059H188.13V328.749H222.52V108.059Z" fill="#66BE64"/>
<path d="M205.56 177.238L38.56 18.7383C-1.46995 232.678 205.56 177.238 205.56 177.238Z" fill="#4CA84E"/>
<path d="M38.5601 18.7387L205.56 177.239C233.59 -23.7314 38.5601 18.7387 38.5601 18.7387Z" fill="#66BE64"/>
<g style="mix-blend-mode:multiply">
<path d="M207.97 128.098C208.777 144.518 207.97 160.977 205.56 177.238C205.56 177.238 50.4702 218.758 34.7202 91.2383C55.8102 112.618 131.62 178.238 207.97 128.098Z" fill="#4CA84E"/>
</g>
<path d="M152.479 52.4297C155.352 45.5916 147.246 35.664 134.374 30.2558C121.503 24.8476 108.739 26.0069 105.866 32.845C102.993 39.6832 111.098 49.6107 123.97 55.0189C136.842 60.427 149.605 59.2678 152.479 52.4297Z" fill="white"/>
<path d="M93.75 45.2383C97.4779 45.2383 100.5 42.2162 100.5 38.4883C100.5 34.7604 97.4779 31.7383 93.75 31.7383C90.0221 31.7383 87 34.7604 87 38.4883C87 42.2162 90.0221 45.2383 93.75 45.2383Z" fill="white"/>
<path d="M203.61 177.238L370.61 18.7383C410.64 232.678 203.61 177.238 203.61 177.238Z" fill="#4CA84E"/>
<path d="M370.61 18.7387L203.61 177.239C175.58 -23.7314 370.61 18.7387 370.61 18.7387Z" fill="#66BE64"/>
<g style="mix-blend-mode:multiply">
<path d="M201.2 128.098C200.393 144.518 201.201 160.977 203.61 177.238C203.61 177.238 358.7 218.758 374.45 91.2383C353.37 112.618 277.55 178.238 201.2 128.098Z" fill="#4CA84E"/>
</g>
</g>
<defs>
<clipPath id="clip0_4884_1021">
<rect width="407.65" height="393.15" fill="white"/>
</clipPath>
</defs>
</svg>
