<svg width="531" height="665" viewBox="0 0 531 665" fill="none" xmlns="http://www.w3.org/2000/svg">
<g clip-path="url(#clip0_6739_1023)">
<path d="M36.8071 664.998C27.061 664.979 17.7196 661.084 10.828 654.166C3.93645 647.249 0.0562149 637.872 0.0367809 628.09V604.256C0.0368746 601.994 0.589104 599.767 1.64517 597.769C2.70124 595.772 4.22897 594.064 6.09469 592.796C4.22768 591.527 2.69916 589.818 1.64303 587.818C0.586892 585.819 0.0353718 583.59 0.0367809 581.327V539.537C0.0387927 537.285 0.588266 535.067 1.63753 533.077C2.68679 531.086 4.20415 529.382 6.05792 528.114C4.19092 526.845 2.66238 525.136 1.60625 523.136C0.550114 521.137 -0.00140636 518.908 2.69317e-06 516.644V474.818C9.64229e-05 472.556 0.55234 470.329 1.60841 468.331C2.66448 466.333 4.19221 464.626 6.05792 463.358C4.19092 462.089 2.66238 460.38 1.60625 458.38C0.550114 456.38 -0.00140636 454.151 2.69317e-06 451.888V410.098C9.64229e-05 407.837 0.55234 405.61 1.60841 403.612C2.66448 401.614 4.19221 399.906 6.05792 398.638C4.19092 397.369 2.66238 395.66 1.60625 393.661C0.550114 391.661 -0.00140636 389.432 2.69317e-06 387.169V345.416C9.64229e-05 343.155 0.55234 340.927 1.60841 338.93C2.66448 336.932 4.19221 335.224 6.05792 333.956C4.19092 332.687 2.66238 330.978 1.60625 328.979C0.550114 326.979 -0.00140636 324.75 2.69317e-06 322.487V280.669C-0.00140636 278.406 0.550114 276.177 1.60625 274.178C2.66238 272.178 4.19092 270.469 6.05792 269.2C4.19478 267.934 2.66865 266.229 1.61272 264.235C0.556777 262.24 0.00309781 260.017 2.69317e-06 257.758V215.95C-0.00140636 213.687 0.550114 211.458 1.60625 209.458C2.66238 207.459 4.19092 205.75 6.05792 204.481C4.19221 203.213 2.66448 201.505 1.60841 199.507C0.55234 197.51 9.64229e-05 195.282 2.69317e-06 193.021V151.231C-0.00140636 148.968 0.550114 146.739 1.60625 144.739C2.66238 142.74 4.19092 141.031 6.05792 139.762C4.19221 138.494 2.66448 136.786 1.60841 134.788C0.55234 132.79 9.64229e-05 130.563 2.69317e-06 128.302V86.5119C0.00159781 84.2518 0.554565 82.0266 1.61057 80.0304C2.66657 78.0344 4.19349 76.3282 6.05792 75.061C4.19221 73.793 2.66448 72.0854 1.60841 70.0875C0.55234 68.0897 9.64229e-05 65.8626 2.69317e-06 63.6009V36.9437C0.0194367 27.161 3.89969 17.7844 10.7913 10.867C17.6828 3.94949 27.0242 0.0546633 36.7703 0.0351562H494.193C503.939 0.0546633 513.28 3.94949 520.172 10.867C527.064 17.7844 530.944 27.161 530.963 36.9437V628.053C530.944 637.836 527.064 647.212 520.172 654.13C513.28 661.047 503.939 664.942 494.193 664.961L36.8071 664.998ZM36.0717 592.796C37.5379 593.774 38.802 595.027 39.7947 596.487C40.5929 597.679 41.7502 598.583 43.0974 599.067C44.4445 599.551 45.9106 599.59 47.2812 599.178C48.6518 598.765 49.8549 597.923 50.7143 596.775C51.5738 595.626 52.0445 594.232 52.0576 592.796C52.0576 592.648 52.0576 592.51 52.0576 592.371C52.0576 592.233 52.0576 592.048 52.0576 591.947V591.799C52.0576 591.578 51.9748 591.329 51.9197 591.089C51.9183 591.061 51.9183 591.033 51.9197 591.006C51.9197 590.867 51.8461 590.747 51.8094 590.637V590.544C51.6755 590.156 51.5031 589.782 51.2946 589.428C50.7119 588.404 49.8687 587.553 48.8512 586.963C47.8337 586.373 46.6784 586.064 45.5033 586.069C44.4022 586.069 43.318 586.34 42.3464 586.86C41.3748 587.38 40.5457 588.132 39.9326 589.05C38.9045 590.542 37.5923 591.815 36.0717 592.796ZM36.0717 528.114C37.5379 529.092 38.802 530.345 39.7947 531.805C40.5934 533.004 41.7554 533.915 43.109 534.401C44.4627 534.887 45.9362 534.923 47.312 534.504C48.6878 534.086 49.8929 533.234 50.7493 532.075C51.6058 530.915 52.0681 529.511 52.0681 528.068C52.0681 526.624 51.6058 525.22 50.7493 524.06C49.8929 522.901 48.6878 522.049 47.312 521.631C45.9362 521.212 44.4627 521.248 43.109 521.734C41.7554 522.22 40.5934 523.131 39.7947 524.331C38.809 525.821 37.5446 527.106 36.0717 528.114ZM36.0717 463.394C37.5379 464.373 38.802 465.626 39.7947 467.085C40.5934 468.285 41.7554 469.195 43.109 469.682C44.4627 470.168 45.9362 470.204 47.312 469.785C48.6878 469.366 49.8929 468.514 50.7493 467.355C51.6058 466.196 52.0681 464.791 52.0681 463.348C52.0681 461.905 51.6058 460.5 50.7493 459.341C49.8929 458.182 48.6878 457.33 47.312 456.911C45.9362 456.492 44.4627 456.529 43.109 457.015C41.7554 457.501 40.5934 458.411 39.7947 459.611C38.8052 461.089 37.5411 462.361 36.0717 463.358V463.394ZM36.0717 398.675C37.5422 399.667 38.8067 400.936 39.7947 402.412C40.5934 403.612 41.7554 404.522 43.109 405.009C44.4627 405.495 45.9362 405.531 47.312 405.112C48.6878 404.693 49.8929 403.841 50.7493 402.682C51.6058 401.523 52.0681 400.118 52.0681 398.675C52.0681 397.232 51.6058 395.827 50.7493 394.668C49.8929 393.509 48.6878 392.657 47.312 392.238C45.9362 391.819 44.4627 391.856 43.109 392.342C41.7554 392.828 40.5934 393.738 39.7947 394.938C38.803 396.401 37.5387 397.658 36.0717 398.638V398.675ZM36.0717 333.956C37.5422 334.948 38.8067 336.217 39.7947 337.693C40.5934 338.893 41.7554 339.803 43.109 340.29C44.4627 340.776 45.9362 340.812 47.312 340.393C48.6878 339.974 49.8929 339.122 50.7493 337.963C51.6058 336.804 52.0681 335.399 52.0681 333.956C52.0681 332.513 51.6058 331.108 50.7493 329.949C49.8929 328.79 48.6878 327.938 47.312 327.519C45.9362 327.1 44.4627 327.137 43.109 327.623C41.7554 328.109 40.5934 329.019 39.7947 330.219C38.803 331.682 37.5387 332.938 36.0717 333.919V333.956ZM36.0717 269.237C37.5422 270.229 38.8067 271.498 39.7947 272.974C40.5934 274.174 41.7554 275.084 43.109 275.57C44.4627 276.057 45.9362 276.093 47.312 275.674C48.6878 275.255 49.8929 274.403 50.7493 273.244C51.6058 272.085 52.0681 270.68 52.0681 269.237C52.0681 267.794 51.6058 266.389 50.7493 265.23C49.8929 264.071 48.6878 263.219 47.312 262.8C45.9362 262.381 44.4627 262.417 43.109 262.904C41.7554 263.39 40.5934 264.3 39.7947 265.5C38.803 266.963 37.5387 268.219 36.0717 269.2V269.237ZM36.0717 204.518C37.5422 205.51 38.8067 206.779 39.7947 208.255C40.5934 209.455 41.7554 210.365 43.109 210.851C44.4627 211.337 45.9362 211.374 47.312 210.955C48.6878 210.536 49.8929 209.684 50.7493 208.525C51.6058 207.366 52.0681 205.961 52.0681 204.518C52.0681 203.075 51.6058 201.67 50.7493 200.511C49.8929 199.352 48.6878 198.5 47.312 198.081C45.9362 197.662 44.4627 197.698 43.109 198.184C41.7554 198.671 40.5934 199.581 39.7947 200.781C38.803 202.244 37.5387 203.5 36.0717 204.481V204.518ZM36.0717 139.799C37.5403 140.793 38.8043 142.062 39.7947 143.536C40.5934 144.736 41.7554 145.646 43.109 146.132C44.4627 146.618 45.9362 146.654 47.312 146.236C48.6878 145.817 49.8929 144.965 50.7493 143.806C51.6058 142.647 52.0681 141.242 52.0681 139.799C52.0681 138.356 51.6058 136.951 50.7493 135.792C49.8929 134.632 48.6878 133.781 47.312 133.362C45.9362 132.943 44.4627 132.979 43.109 133.465C41.7554 133.951 40.5934 134.862 39.7947 136.062C38.803 137.524 37.5387 138.781 36.0717 139.762V139.799ZM36.0717 75.061C37.5426 76.056 38.807 77.3283 39.7947 78.8073C40.5941 80.0061 41.7564 80.9152 43.1099 81.4004C44.4634 81.8856 45.9364 81.9211 47.3116 81.5018C48.6867 81.0825 49.8912 80.2305 50.7471 79.0716C51.603 77.9127 52.0651 76.5083 52.0651 75.0657C52.0651 73.623 51.603 72.2186 50.7471 71.0597C49.8912 69.9008 48.6867 69.0488 47.3116 68.6295C45.9364 68.2102 44.4634 68.2457 43.1099 68.7309C41.7564 69.2161 40.5941 70.1252 39.7947 71.3241C38.8067 72.8001 37.5422 74.0693 36.0717 75.061Z" fill="#040809"/>
<path d="M494.193 13.8398H36.8073C30.7122 13.8398 24.8668 16.2702 20.5569 20.5963C16.2471 24.9223 13.8258 30.7897 13.8258 36.9077V63.5465H28.4236C30.8718 59.8864 34.4269 57.1128 38.5646 55.6346C42.7023 54.1564 47.2037 54.0518 51.4051 55.3362C55.6065 56.6206 59.2856 59.2261 61.9 62.7685C64.5143 66.3109 65.9255 70.6027 65.9255 75.0112C65.9255 79.4197 64.5143 83.7115 61.9 87.2539C59.2856 90.7963 55.6065 93.4018 51.4051 94.6862C47.2037 95.9706 42.7023 95.866 38.5646 94.3877C34.4269 92.9095 30.8718 90.1359 28.4236 86.4759H13.7891V128.303H28.3869C30.8351 124.642 34.3901 121.869 38.5278 120.391C42.6655 118.912 47.1669 118.808 51.3683 120.092C55.5698 121.377 59.2489 123.982 61.8632 127.525C64.4775 131.067 65.8887 135.359 65.8887 139.767C65.8887 144.176 64.4775 148.468 61.8632 152.01C59.2489 155.552 55.5698 158.158 51.3683 159.442C47.1669 160.727 42.6655 160.622 38.5278 159.144C34.3901 157.666 30.8351 154.892 28.3869 151.232H13.7891V193.022H28.3869C30.8351 189.362 34.3901 186.588 38.5278 185.11C42.6655 183.632 47.1669 183.527 51.3683 184.811C55.5698 186.096 59.2489 188.701 61.8632 192.244C64.4775 195.786 65.8887 200.078 65.8887 204.486C65.8887 208.895 64.4775 213.187 61.8632 216.729C59.2489 220.271 55.5698 222.877 51.3683 224.161C47.1669 225.446 42.6655 225.341 38.5278 223.863C34.3901 222.385 30.8351 219.611 28.3869 215.951H13.7891V257.759H28.3869C30.8351 254.099 34.3901 251.326 38.5278 249.847C42.6655 248.369 47.1669 248.265 51.3683 249.549C55.5698 250.833 59.2489 253.439 61.8632 256.981C64.4775 260.524 65.8887 264.816 65.8887 269.224C65.8887 273.632 64.4775 277.924 61.8632 281.467C59.2489 285.009 55.5698 287.615 51.3683 288.899C47.1669 290.183 42.6655 290.079 38.5278 288.601C34.3901 287.122 30.8351 284.349 28.3869 280.689H13.7891V322.478H28.3869C30.8344 318.817 34.3891 316.043 38.527 314.563C42.6648 313.084 47.1667 312.979 51.3688 314.263C55.5708 315.547 59.2506 318.152 61.8655 321.695C64.4803 325.237 65.8918 329.53 65.8918 333.939C65.8918 338.348 64.4803 342.64 61.8655 346.182C59.2506 349.725 55.5708 352.33 51.3688 353.614C47.1667 354.898 42.6648 354.793 38.527 353.314C34.3891 351.835 30.8344 349.06 28.3869 345.399H13.7891V387.188H28.3869C30.8354 383.526 34.3917 380.749 38.5314 379.269C42.6711 377.789 47.1751 377.684 51.3791 378.968C55.5831 380.253 59.2646 382.859 61.8807 386.404C64.4968 389.948 65.909 394.242 65.909 398.653C65.909 403.064 64.4968 407.358 61.8807 410.903C59.2646 414.447 55.5831 417.053 51.3791 418.338C47.1751 419.622 42.6711 419.517 38.5314 418.037C34.3917 416.557 30.8354 413.781 28.3869 410.118H13.7891V451.908H28.3869C30.8354 448.245 34.3917 445.469 38.5314 443.989C42.6711 442.509 47.1751 442.403 51.3791 443.688C55.5831 444.972 59.2646 447.579 61.8807 451.123C64.4968 454.667 65.909 458.961 65.909 463.372C65.909 467.783 64.4968 472.078 61.8807 475.622C59.2646 479.166 55.5831 481.772 51.3791 483.057C47.1751 484.342 42.6711 484.236 38.5314 482.756C34.3917 481.276 30.8354 478.5 28.3869 474.837H13.7891V516.627H28.3869C30.8354 512.964 34.3917 510.188 38.5314 508.708C42.6711 507.228 47.1751 507.122 51.3791 508.407C55.5831 509.691 59.2646 512.298 61.8807 515.842C64.4968 519.386 65.909 523.68 65.909 528.091C65.909 532.502 64.4968 536.797 61.8807 540.341C59.2646 543.885 55.5831 546.492 51.3791 547.776C47.1751 549.061 42.6711 548.955 38.5314 547.475C34.3917 545.995 30.8354 543.219 28.3869 539.556H13.7891V581.346H28.3869C30.8351 577.686 34.3901 574.912 38.5278 573.434C42.6655 571.956 47.1669 571.851 51.3683 573.136C55.5698 574.42 59.2489 577.026 61.8632 580.568C64.4775 584.11 65.8887 588.402 65.8887 592.811C65.8887 597.219 64.4775 601.511 61.8632 605.053C59.2489 608.596 55.5698 611.201 51.3683 612.486C47.1669 613.77 42.6655 613.665 38.5278 612.187C34.3901 610.709 30.8351 607.935 28.3869 604.275H13.7891V628.072C13.7891 634.19 16.2103 640.057 20.5202 644.384C24.83 648.71 30.6754 651.14 36.7705 651.14H494.193C500.288 651.14 506.134 648.71 510.443 644.384C514.753 640.057 517.175 634.19 517.175 628.072V36.9446C517.179 33.9122 516.589 30.9086 515.436 28.1056C514.283 25.3026 512.591 22.7553 510.456 20.6093C508.322 18.4633 505.787 16.7609 502.996 15.5993C500.206 14.4377 497.214 13.8398 494.193 13.8398Z" fill="#FAF28E"/>
<path d="M113.299 75.043H517.211" stroke="#00AEEF" stroke-width="1.63" stroke-miterlimit="10"/>
<path d="M113.299 139.762H517.211" stroke="#00AEEF" stroke-width="1.63" stroke-miterlimit="10"/>
<path d="M113.299 204.48H517.211" stroke="#00AEEF" stroke-width="1.63" stroke-miterlimit="10"/>
<path d="M113.299 269.199H517.211" stroke="#00AEEF" stroke-width="1.63" stroke-miterlimit="10"/>
<path d="M113.299 333.918H517.211" stroke="#00AEEF" stroke-width="1.63" stroke-miterlimit="10"/>
<path d="M113.299 398.637H517.211" stroke="#00AEEF" stroke-width="1.63" stroke-miterlimit="10"/>
<path d="M113.299 463.359H517.211" stroke="#00AEEF" stroke-width="1.63" stroke-miterlimit="10"/>
<path d="M113.299 528.066H517.211" stroke="#00AEEF" stroke-width="1.63" stroke-miterlimit="10"/>
<path d="M113.299 592.785H517.211" stroke="#00AEEF" stroke-width="1.63" stroke-miterlimit="10"/>
<path d="M113.299 15.1602V651.159" stroke="#F26B6C" stroke-width="1.66" stroke-miterlimit="10"/>
<g style="mix-blend-mode:multiply" opacity="0.51">
<path d="M517.211 36.9429C517.211 30.8249 514.79 24.9575 510.48 20.6314C506.17 16.3054 500.325 13.875 494.23 13.875H383C389.526 133.92 379.755 480.713 63.098 582.507C65.7447 587.122 66.5046 592.589 65.2177 597.755C63.9308 602.922 60.6976 607.386 56.1983 610.208C51.699 613.031 46.2844 613.991 41.0939 612.888C35.9034 611.784 31.3416 608.703 28.3685 604.292H13.7891V628.089C13.7891 634.207 16.2103 640.074 20.5202 644.4C24.83 648.726 30.6754 651.157 36.7705 651.157H494.193C500.288 651.157 506.134 648.726 510.443 644.4C514.753 640.074 517.175 634.207 517.175 628.089L517.211 36.9429Z" fill="#F0CC6D"/>
</g>
<path d="M126.719 532.127C124.55 532.127 122.41 531.613 120.476 530.627C118.541 529.641 116.866 528.21 115.585 526.451C114.305 524.693 113.457 522.656 113.109 520.506C112.761 518.356 112.924 516.154 113.583 514.079L144.176 417.988C144.85 415.899 146.01 414.001 147.559 412.451L314.772 244.61C315.293 239.742 317.464 235.201 320.922 231.747L384.985 167.443C388.417 163.973 392.937 161.799 397.781 161.289L409.989 149.035C414.988 144.02 421.766 141.203 428.833 141.203C435.901 141.203 442.679 144.02 447.678 149.035L494.606 196.139C499.602 201.157 502.409 207.961 502.409 215.055C502.409 222.149 499.602 228.953 494.606 233.971L482.408 246.215C481.89 251.082 479.722 255.623 476.267 259.078L412.195 323.382C411.501 324.071 410.764 324.715 409.989 325.31L409.41 325.735C408.634 326.285 407.823 326.785 406.983 327.229L406.679 327.377C405.93 327.753 405.159 328.086 404.372 328.374L403.802 328.567C402.901 328.872 401.979 329.113 401.044 329.287H400.87C400.392 329.37 399.895 329.444 399.399 329.49L232.204 497.369C230.662 498.926 228.771 500.091 226.689 500.764L130.92 531.472C129.562 531.907 128.145 532.128 126.719 532.127Z" fill="#040809"/>
<path d="M407.868 301.483L342.724 236.094L157.314 422.201L222.458 487.59L407.868 301.483Z" fill="#F8A43F"/>
<path d="M387.243 281.466L362.646 256.777L177.581 442.538L202.178 467.227L387.243 281.466Z" fill="#EEB678"/>
<path d="M126.72 518.287L157.313 422.195L222.46 487.579L126.72 518.287Z" fill="#FFE4C7"/>
<path d="M484.885 205.889L437.954 158.782C432.925 153.733 424.77 153.733 419.741 158.782L387.11 191.535C382.081 196.583 382.081 204.768 387.11 209.817L434.041 256.924C439.071 261.973 447.225 261.973 452.255 256.924L484.885 224.171C489.915 219.122 489.915 210.937 484.885 205.889Z" fill="#F26B6C"/>
<g style="mix-blend-mode:multiply">
<path d="M126.72 518.285L222.451 487.586L394.187 315.205C395.572 315.786 397.098 315.941 398.571 315.65C400.044 315.36 401.398 314.636 402.46 313.572L413.813 302.176L391.356 302.047L214.472 479.568L131.334 506.031L130.562 506.234L126.72 518.285Z" fill="#EEB678"/>
</g>
<path d="M466.542 238.513L405.447 177.189C402.489 174.22 397.693 174.22 394.735 177.189L330.669 241.495C327.711 244.464 327.711 249.278 330.669 252.247L391.764 313.572C394.722 316.541 399.518 316.541 402.476 313.572L466.542 249.266C469.5 246.296 469.5 241.482 466.542 238.513Z" fill="#A6A9B0"/>
<path d="M425.161 290.8L353.354 218.723L342.239 229.88L414.046 301.957L425.161 290.8Z" fill="#959699"/>
<path d="M454.963 260.886L383.156 188.809L372.041 199.966L443.848 272.043L454.963 260.886Z" fill="#959699"/>
<path d="M126.72 518.286L161.477 507.14C159.518 501.679 156.382 496.72 152.293 492.616C148.205 488.512 143.264 485.365 137.824 483.398L126.72 518.286Z" fill="#6C6D6D"/>
<path d="M443.722 260.749C452.572 251.866 456.294 241.201 452.036 236.927C447.778 232.654 437.153 236.39 428.304 245.272C419.455 254.155 415.733 264.82 419.99 269.094C424.248 273.367 434.873 269.631 443.722 260.749Z" fill="white"/>
<path d="M480.217 219.115C483.086 216.236 481.959 210.437 477.702 206.163C473.444 201.89 467.667 200.759 464.799 203.638C461.931 206.518 463.057 212.316 467.315 216.59C471.572 220.863 477.349 221.994 480.217 219.115Z" fill="white"/>
<path d="M438.716 234.249C441.153 234.249 443.129 232.266 443.129 229.82C443.129 227.374 441.153 225.391 438.716 225.391C436.279 225.391 434.304 227.374 434.304 229.82C434.304 232.266 436.279 234.249 438.716 234.249Z" fill="white"/>
<g style="mix-blend-mode:multiply" opacity="0.47">
<path d="M345.328 363.871C345.328 363.871 246.581 426.985 199.58 379.769L157.294 422.214L222.433 487.607L345.328 363.871Z" fill="#EEB678"/>
</g>
</g>
<defs>
<clipPath id="clip0_6739_1023">
<rect width="531" height="665" fill="white"/>
</clipPath>
</defs>
</svg>
