<svg width="1265" height="488" viewBox="0 0 1265 488" fill="none" xmlns="http://www.w3.org/2000/svg">
<g clip-path="url(#clip0_5470_17900)">
<path d="M898.7 487.8H1020.3C1026.7 487.8 1033.1 487.5 1039.4 487.1C1073.4 484.5 1105.5 474.8 1134.2 459.7C1141 456.1 1147.6 452.2 1154 448C1155 444.7 1156 441.2 1156.9 437.5L1157.2 436.2C1157.5 435 1157.8 433.7 1158.1 432.5L1158.4 431.2C1158.7 429.9 1159 428.6 1159.3 427.3C1159.6 426 1159.9 424.7 1160.2 423.4C1160.5 422 1160.8 420.7 1161.1 419.3C1165.3 400.6 1169.2 379.4 1174.2 351.4C1174.5 349.7 1174.8 348 1175.1 346.3L1176 341.3L1176.9 336.2L1177.9 331L1179.1 325C1180.1 320 1181 315.2 1182 310.6C1184 301 1185.8 292.2 1187.6 283.7C1199.2 228.4 1205.7 197.2 1192.5 169.7C1190.1 152.2 1176 136.4 1150.7 122.8C1151 122.5 1151.3 122.1 1151.6 121.8C1151.8 121.5 1152.1 121.2 1152.3 120.9L1152.6 120.5C1153.7 119.2 1154.8 117.8 1155.9 116.5C1156.1 116.2 1156.3 115.9 1156.6 115.6L1156.9 115.2C1158 113.8 1159 112.5 1160.1 111.1C1160.3 110.9 1160.5 110.6 1160.6 110.4L1160.8 110.1C1161.9 108.6 1163 107.1 1164.1 105.6C1164.2 105.4 1164.6 104.8 1164.6 104.8C1165.9 103 1167 101.4 1167.9 99.9998C1168 99.7998 1168.1 99.6998 1168.2 99.4998C1169.4 97.5998 1170.5 95.9998 1171.5 94.3998L1171.7 93.9998C1172.9 92.0998 1173.9 90.3998 1174.9 88.6998C1175 88.5998 1175 88.4998 1175.1 88.3998C1179.4 81.0998 1183.4 73.4998 1186.9 65.8998C1183.1 62.2998 1179.1 58.7998 1175.1 55.4998C1172.4 53.2998 1169.7 51.0998 1166.9 48.9998C1152 37.7998 1135.8 28.1998 1118.6 20.5998C1091.7 8.69981 1062.3 1.4998 1031.4 0.0998047C1027.7 -0.100195 1023.9 -0.200195 1020.1 -0.200195H1010C1008.6 1.1998 1007.3 2.5998 1005.9 3.9998C987.3 23.8998 972.3 46.1998 961.2 70.6998C950.1 46.2998 935.2 23.8998 916.5 3.9998C915.2 2.5998 913.8 1.1998 912.4 -0.200195H890.7H871.4H813H784.7H731.4H716.2C720.5 28.6998 730 56.6998 744.4 82.6998C744.4 82.6998 744.4 82.7998 744.5 82.7998C745.5 84.5998 746.5 86.3998 747.6 88.2998L747.8 88.5998C748.8 90.2998 749.8 91.9998 751 93.7998C751.1 93.9998 751.2 94.0998 751.3 94.2998C752.3 95.8998 753.4 97.4998 754.6 99.3998C754.7 99.5998 754.8 99.6998 754.9 99.8998C755.9 101.5 757 103 758.1 104.6C758.1 104.6 758.5 105.2 758.7 105.4C759.8 106.9 760.8 108.4 761.9 109.9L762.1 110.2C762.3 110.5 762.5 110.7 762.6 110.9C763.6 112.3 764.7 113.7 765.8 115L766.1 115.4C766.3 115.7 766.5 116 766.8 116.3C767.8 117.5 768.8 118.8 769.8 120L770.3 120.6C770.6 120.9 770.8 121.3 771.1 121.6C772.3 123 773.4 124.3 774.6 125.7C774.6 125.7 775 126.1 775 126.2C748.1 141.2 733.1 158.4 731.1 176.6C731 176.9 730.8 177.2 730.7 177.4L705.4 167C703.4 166.2 701.8 165.6 700.6 165.1C698.5 164.4 696.1 163.9 693.5 163.7C693.4 163.7 693.3 163.7 693.2 163.7C692.8 163.7 692.3 163.7 691.9 163.7C691.7 163.7 691.5 163.7 691.3 163.7C691 163.7 690.8 163.7 690.5 163.7C689.5 163.7 688.5 163.8 687.6 164C685.4 164.4 683.4 165.1 681.5 166.1C678.7 167.6 676.1 169.9 673.7 173C672.9 174 672.1 175.1 671.3 176.5C670.2 178.3 669.3 180.2 668.4 182.3C667.5 184.4 666.8 186.5 666.4 188.5C666 190.1 665.8 191.5 665.6 192.8C665.4 194.4 665.4 196 665.4 197.4C665.4 198.3 665.5 199.1 665.6 199.9C665.7 200.9 665.9 201.8 666.2 202.6C666.5 203.8 666.9 204.7 667.2 205.3C668.1 207.4 669.3 209.2 670.9 211C669.9 211.4 668.9 211.7 668 212.1C665 213.2 662.6 214.1 660.7 214.8C660.6 214.8 660.5 214.9 660.4 214.9C654.4 217.4 649.6 221.7 646.5 227.2C646.5 227.2 646.4 227.4 646.4 227.5C645.9 228.4 645.5 229.3 645.1 230.2C643.7 233.6 643 237.1 643 240.7L602.3 234.9C599.8 234.5 597.9 234.3 596.4 234.2C595.7 234.1 594.9 234.1 594.2 234.1C592.3 234.1 590.4 234.3 588.2 234.7C583.7 235.5 579.9 237.3 576.8 240.2C575.4 241.5 574 243.1 572.9 244.9C572 246.3 571.2 247.8 570.4 249.5C569.9 250.5 569.5 251.6 569.1 252.8C568.3 255.3 567.6 258 567.2 260.9C566.8 263.7 566.6 266.3 566.7 268.8C566.7 270.3 566.8 271.6 567 272.9C567.3 274.7 567.6 276.3 568.1 277.9C568.7 279.8 569.4 281.6 570.3 283.1C570.9 284.2 571.5 284.9 571.8 285.3C572.8 286.7 574 287.9 575.4 289C573.3 288.5 571.3 288.2 569.2 288.1C568.8 288.1 568.4 288.1 568 288.1C564.4 288.1 560.9 288.7 557.4 290L501.3 310.5C500.7 310.7 500.2 310.9 499.7 311.1C498.1 311.7 496.8 312.2 495.7 312.7C493.4 313.7 491 315.1 488.6 317.1C485 320 482.5 323.4 481.1 327.4C480.3 329.6 479.9 332 479.8 334.8C479.8 335.2 479.8 335.6 479.8 336.1C479.8 336.9 479.8 337.8 479.9 338.7C479.9 339.2 480 339.8 480.1 340.3V340.4C480.5 343.6 481.3 346.9 482.6 350.4C483.5 353 484.6 355.3 485.7 357.4C486.5 358.8 487.3 360.1 488.2 361.3C489.3 362.8 490.4 364.1 491.5 365.2C492.9 366.6 494.4 367.8 496 368.8C496.6 369.2 497.2 369.5 497.6 369.7C500.8 371.3 504.3 372.2 508.1 372.2C508.3 372.2 508.6 372.2 508.8 372.2C509.5 372.2 510.1 372.1 510.7 372.1C508.8 375.7 507 378.9 505.6 381.7C504.2 384.4 503.1 386.6 502.2 388.5C502.2 388.6 502.1 388.7 502.1 388.8C499.1 395.3 498.3 402.3 500 409.1C500 409.1 500.1 409.3 500.1 409.4C500.4 410.5 500.7 411.6 501.1 412.6C504 420.5 509.6 426.5 517.2 430.1C518.1 430.5 519.1 430.9 520 431.3C520.2 431.4 520.3 431.4 520.5 431.5C521.3 431.8 522.1 432 522.9 432.2C523 432.2 523 432.2 523.1 432.2C525.1 432.7 527.1 433 529.1 433.1C529.6 433.1 530 433.1 530.4 433.1C530.9 433.1 531.3 433.1 531.8 433.1C534.8 432.9 537.8 432.3 540.7 431.3L603 408.6C605.3 407.8 607.1 407 608.6 406.3C609.4 406 610 405.6 610.6 405.3C612.4 404.4 614.1 403.2 615.8 401.8C616.4 401.3 617 400.7 617.6 400.1C618.4 400.7 619.3 401.3 620.3 401.7C618.8 405.4 618.1 409.4 618.3 413.4C618.3 413.4 618.3 413.6 618.3 413.8C618.4 414.9 618.5 415.9 618.6 416.9C619.8 424.7 623.9 431.2 630.3 435.9C631.1 436.5 631.9 437 632.7 437.5C632.9 437.6 633 437.7 633.1 437.8C633.8 438.2 634.5 438.6 635.2 438.9C637 439.7 638.8 440.4 640.7 440.8C642.8 441.3 645 441.6 647.2 441.6C648.4 441.6 649.6 441.5 650.9 441.4C651.2 441.4 651.5 441.3 651.8 441.3L706 432.8C706.6 436 707.7 439.2 709.3 442.3C709.8 443.3 710.3 444.2 710.9 445.1C711 445.3 711.1 445.4 711.2 445.6C711.7 446.4 712.3 447.1 712.8 447.8C712.8 447.8 712.8 447.9 712.9 447.9C714.3 449.6 715.8 451.2 717.5 452.6C718.8 453.7 720.2 454.7 721.7 455.6C722 455.8 722.3 456 722.6 456.1C723.7 456.7 724.9 457.3 726.4 457.8C726.9 458 727.7 458.3 728.6 458.6L774.3 473C776.1 478.8 778 483.9 779.9 488.2H796.5H818.2H898.7V487.8Z" fill="#1D1D1B"/>
<path d="M739.8 385.4C739.5 385.2 739.2 384.9 738.9 384.7L732.6 387C733 387.9 733.3 388.8 733.7 389.7C736 388.6 738.5 387.5 741.2 386.3C740.7 386 740.2 385.7 739.8 385.4ZM626.9 385C626.8 385.9 626.7 386.9 626.6 387.8C627.1 387.1 627.7 386.4 628.3 385.6C627.9 385.4 627.4 385.3 626.9 385Z" fill="black"/>
<path d="M668.3 264.6C668.2 264.4 668 264.2 667.9 264C665.3 260.6 661.9 258.6 657.7 258L600.1 249.7C597.8 249.4 596.2 249.2 595 249.1C593.9 249 592.5 249.1 590.8 249.4C589.1 249.7 587.8 250.3 586.8 251.2C585.8 252.1 584.9 253.5 584 255.5C583.1 257.5 582.5 260 582 262.9C581.6 266 581.5 268.6 581.8 270.6C582.1 272.7 582.6 274.3 583.3 275.5C584 276.7 585.1 277.6 586.6 278.4C586.9 278.6 587.3 278.7 587.6 278.9C588.7 279.4 589.7 279.7 590.5 279.9C591.6 280.1 593.3 280.4 595.5 280.7L620.5 284.3C620.4 284.4 620.3 284.4 620.1 284.6C619 285.4 616.1 287.3 611.3 290.4C611.2 290.5 611 290.6 610.9 290.7C609.2 291.8 607.5 292.9 605.8 294.1C601.3 297 596.5 300.2 591.4 303.6C590.4 304.2 589.5 304.9 588.6 305.5C587.8 306 587.1 306.5 586.4 307C584.6 308.2 582.9 309.4 581.4 310.4C580 311.4 578.7 312.2 577.6 313C577.2 313.3 576.8 313.5 576.5 313.8C576.1 314.1 575.8 314.3 575.5 314.5C575.1 314.8 574.8 315.1 574.5 315.3C574.4 315.4 574.2 315.5 574.1 315.6C574 315.7 573.9 315.8 573.8 315.9C573.7 316 573.6 316.1 573.5 316.2C573.2 316.4 573 316.7 572.8 316.9C572.6 317.1 572.5 317.3 572.3 317.5C572.2 317.6 572.1 317.7 572.1 317.8C571.9 318.1 571.7 318.3 571.6 318.6C571.5 318.8 571.4 318.9 571.3 319.1C571.2 319.3 571.1 319.4 571 319.6C570.9 319.7 570.8 319.9 570.8 320C570.7 320.2 570.6 320.3 570.5 320.5C570.4 320.7 570.3 320.9 570.3 321C570.2 321.2 570.2 321.3 570.1 321.5C570 321.6 570 321.7 570 321.9C569.9 322 569.9 322.2 569.9 322.3C569.8 322.5 569.8 322.7 569.7 322.9V323V323.1C569.6 323.4 569.6 323.6 569.5 323.9C569.5 324 569.5 324.1 569.4 324.2C569.4 324.4 569.3 324.6 569.3 324.7C569.2 325.5 569.1 326.3 569.1 327.1C569.1 327.4 569.1 327.7 569.1 327.9C569.1 328.1 569.1 328.4 569.2 328.6C569.2 328.8 569.3 329.1 569.3 329.3C569.3 329.5 569.4 329.8 569.4 330C569.4 330.2 569.5 330.3 569.5 330.5C569.6 331 569.8 331.5 570 332C570.1 332.2 570.2 332.4 570.3 332.7C570.6 333.4 570.9 334.1 571.3 334.8C571.4 335 571.5 335.2 571.6 335.4C571.7 335.6 571.8 335.7 571.9 335.8C572 336 572.2 336.2 572.3 336.4C572.5 336.6 572.6 336.9 572.8 337.1C572.9 337.2 572.9 337.3 573 337.4C573.2 337.6 573.4 337.9 573.6 338.1C574.1 338.6 574.6 339.1 575.1 339.5L575.2 339.6C575.3 339.7 575.4 339.8 575.5 339.9C575.5 339.9 575.6 339.9 575.6 340C575.8 340.2 576 340.3 576.2 340.5C576.4 340.6 576.6 340.8 576.9 340.9C577.1 341 577.3 341.1 577.5 341.3C578.1 341.7 578.8 341.9 579.5 342.2C579.7 342.3 579.8 342.3 580 342.4C580.7 342.6 581.5 342.8 582.3 342.9L628 349.4L633.9 350.3L646.3 352.1C649 352.5 651.1 352.7 652.4 352.7C653.8 352.7 655.4 352.4 657.3 351.8C659.2 351.2 660.7 349.8 661.7 347.6C661.8 347.3 662 347.1 662.1 346.8C662.4 346 662.7 345.1 663 344.1C663.1 343.9 663.1 343.7 663.2 343.5C663.2 343.4 663.3 343.2 663.3 343.1C663.4 342.8 663.4 342.5 663.5 342.1C663.5 342 663.5 341.9 663.6 341.8C663.6 341.7 663.7 341.6 663.7 341.5C663.8 341.1 663.9 340.7 663.9 340.2C664 339.8 664 339.3 664.1 338.9C664.1 338.7 664.2 338.5 664.2 338.3C664.2 338 664.3 337.7 664.3 337.4C664.3 337 664.4 336.7 664.4 336.3C664.4 335.9 664.5 335.6 664.5 335.3C664.6 333.3 664.6 331.5 664.3 330C664.3 329.8 664.2 329.5 664.2 329.3C664.2 329.2 664.2 329.1 664.1 329C664 328.5 663.8 328 663.6 327.5C663.5 327.3 663.4 327.1 663.3 326.9V326.8C663.2 326.7 663.2 326.6 663.1 326.5C663.1 326.4 663 326.4 663 326.3L662.9 326.2C662.9 326.2 662.9 326.1 662.8 326.1C662.8 326.1 662.8 326 662.7 326C662.7 325.9 662.6 325.9 662.6 325.8C662.6 325.7 662.5 325.7 662.5 325.6C662.4 325.5 662.4 325.4 662.3 325.4C662.2 325.3 662.2 325.3 662.1 325.2C661.9 325 661.8 324.9 661.6 324.7C660.1 323.5 658.6 322.7 657.2 322.3C655.8 321.9 653.8 321.4 651.1 321.1L620.8 316.7C622.2 315.8 623.6 314.8 624.9 313.9C625 313.8 625.2 313.7 625.3 313.6C625.5 313.5 625.7 313.4 625.8 313.2C626.1 313 626.4 312.8 626.6 312.6C626.9 312.4 627.1 312.2 627.4 312.1C627.8 311.8 628.3 311.5 628.7 311.2C628.7 311.2 628.8 311.2 628.8 311.1C628.9 311 629 311 629.1 310.9C629.2 310.8 629.4 310.7 629.5 310.6C629.7 310.5 629.8 310.4 630 310.3C630.4 310 630.8 309.7 631.2 309.5C631.3 309.4 631.4 309.4 631.5 309.3C631.7 309.2 631.9 309.1 632 309C632.3 308.8 632.5 308.6 632.8 308.5C633 308.3 633.3 308.2 633.5 308C633.5 308 633.6 308 633.6 307.9C634.9 307 636.1 306.2 637.3 305.4C637.6 305.2 637.9 305 638.2 304.8C638.5 304.6 638.8 304.4 639.1 304.2C639.7 303.8 640.3 303.4 640.9 303C641.2 302.8 641.5 302.6 641.8 302.4C641.9 302.3 642.1 302.2 642.2 302.1C642.6 301.8 643 301.6 643.3 301.3C643.7 301 644.1 300.8 644.5 300.5C644.8 300.3 645 300.1 645.3 300C646.8 299 648.1 298.1 649.4 297.2C649.5 297.1 649.7 297 649.8 296.9C649.9 296.8 650 296.8 650.1 296.7C650.4 296.5 650.8 296.3 651.1 296C651.2 295.9 651.4 295.8 651.5 295.7L651.6 295.6C651.8 295.4 652 295.3 652.3 295.1C652.6 294.9 652.8 294.7 653.1 294.6C653.4 294.4 653.8 294.1 654.1 293.9C654.1 293.9 654.2 293.9 654.2 293.8C654.3 293.7 654.5 293.6 654.6 293.5C654.8 293.4 654.9 293.3 655.1 293.2C659.4 290.2 662.5 288.1 664.4 286.7C664.4 286.7 664.5 286.7 664.5 286.6C664.7 286.5 664.8 286.4 665 286.3C668.4 283.9 670.4 280.4 671 275.8C671 275.6 671.1 275.3 671.1 275.1C671.1 274.9 671.1 274.7 671.1 274.4C671.3 270.6 670.4 267.5 668.3 264.6Z" fill="#498BBD"/>
<path d="M661.6 324.2C660.1 323 658.6 322.2 657.2 321.8C655.8 321.4 653.8 320.9 651.1 320.6L623.2 316.6C621.7 317.6 620.1 318.7 618.5 319.8L656 325.2C658.7 325.6 660.8 326 662.1 326.4C662.6 326.6 663.2 326.8 663.7 327.1C663.3 325.9 662.5 325 661.6 324.2Z" fill="#9CCBED"/>
<path d="M583.5 275.6C584.2 276.8 585.3 277.8 586.8 278.5C587.2 278.7 587.5 278.8 587.8 279C587.4 278 587.1 276.7 586.9 275.2C586.6 273.1 586.7 270.5 587.1 267.5C587.5 264.5 588.2 262.1 589.1 260.1C590 258.1 590.9 256.7 591.9 255.8C592.9 254.9 594.2 254.3 595.9 254C597.6 253.7 599 253.6 600.1 253.7C601.2 253.8 602.9 254 605.2 254.3L662.8 262.6C664.9 262.9 666.8 263.6 668.5 264.6C668.4 264.4 668.2 264.2 668.1 264C665.5 260.6 662.1 258.6 657.9 258L600.3 249.7C598.1 249.4 596.4 249.2 595.2 249.1C594.1 249 592.7 249.1 591 249.4C589.3 249.7 588 250.3 587 251.2C586 252.1 585.1 253.5 584.2 255.5C583.3 257.5 582.7 260 582.2 262.9C581.8 266 581.7 268.6 582 270.6C582.3 272.8 582.8 274.4 583.5 275.6Z" fill="#9CCBED"/>
<path d="M574.2 329.3C574.8 325 576.9 321.6 580.4 319C583.9 316.5 589.2 312.9 596.4 308.1C603.6 303.3 610.1 299.1 616 295.3C621.8 291.5 629 286.4 629.5 286L619.9 284.6C618.6 285.5 613 289.5 611.1 290.7C605.2 294.5 598.7 298.8 591.5 303.5C584.3 308.3 579 311.9 575.5 314.4C572 317 569.9 320.5 569.3 324.7C568.7 329 569.7 332.8 572.3 336.3C573.6 338.1 575.2 339.5 576.9 340.5C574.6 337.2 573.6 333.4 574.2 329.3Z" fill="#9CCBED"/>
<path opacity="0.62" d="M646.5 351.7C649.2 352.1 651.3 352.3 652.6 352.3C654 352.3 655.6 352 657.5 351.4C659.4 350.8 660.9 349.4 661.9 347.2C662.9 345.1 663.7 342.2 664.2 338.5C664.7 334.8 664.8 331.8 664.4 329.5C664 327.2 663.1 325.4 661.5 324.2C660 323 658.5 322.2 657.1 321.8C655.7 321.4 653.7 320.9 651 320.6L620.7 316.3C635.6 306.2 646.9 298.5 654.5 293.3C625.7 306 606 294 606 294C601.5 296.9 596.7 300.1 591.6 303.5C584.4 308.3 579.1 311.9 575.6 314.4C572.1 317 570 320.5 569.4 324.7C568.8 329 569.8 332.8 572.4 336.3C575 339.8 578.4 341.9 582.5 342.5L646.5 351.7Z" fill="#2B709B"/>
<path opacity="0.62" d="M652.6 352.3C654 352.3 655.6 352 657.5 351.4C659.4 350.8 660.9 349.4 661.9 347.2C662.9 345.1 663.7 342.2 664.2 338.5C664.7 334.8 664.8 331.8 664.4 329.5C664 327.2 663.1 325.4 661.5 324.2C660 323 658.5 322.2 657.1 321.8C655.7 321.4 653.7 320.9 651 320.6L620.7 316.3C645.4 299.6 660.1 289.5 664.8 286.1C668.2 283.7 670.2 280.2 670.8 275.6C670.9 275.1 670.9 274.7 670.9 274.2H670.6C670.6 274.2 624.5 313.6 570 321.5C569.6 322.6 569.3 323.7 569.1 324.8C568.5 329.1 569.5 332.9 572.1 336.4C574.7 339.9 578.1 342 582.2 342.6L646.1 351.8C649.2 352.1 651.2 352.3 652.6 352.3Z" fill="#2B709B"/>
<path d="M662.299 270.489C662.659 267.974 659.318 265.414 654.835 264.771C650.352 264.128 646.425 265.645 646.064 268.16C645.704 270.675 649.045 273.235 653.528 273.878C658.011 274.521 661.938 273.004 662.299 270.489Z" fill="white"/>
<path d="M660.367 331.206C660.728 328.692 658.228 326.252 654.784 325.758C651.34 325.264 648.255 326.902 647.894 329.417C647.534 331.932 650.033 334.371 653.478 334.865C656.922 335.359 660.006 333.721 660.367 331.206Z" fill="white"/>
<path d="M643.1 274.8C644.37 274.8 645.4 273.77 645.4 272.5C645.4 271.23 644.37 270.2 643.1 270.2C641.83 270.2 640.8 271.23 640.8 272.5C640.8 273.77 641.83 274.8 643.1 274.8Z" fill="white"/>
<path d="M644.4 327.1C645.339 327.1 646.1 326.339 646.1 325.4C646.1 324.461 645.339 323.7 644.4 323.7C643.461 323.7 642.7 324.461 642.7 325.4C642.7 326.339 643.461 327.1 644.4 327.1Z" fill="white"/>
<path d="M588.5 275.4C590.488 275.4 592.1 273.788 592.1 271.8C592.1 269.812 590.488 268.2 588.5 268.2C586.512 268.2 584.9 269.812 584.9 271.8C584.9 273.788 586.512 275.4 588.5 275.4Z" fill="white"/>
<path d="M580 330.802C580.353 328.342 579 326.113 576.977 325.822C574.954 325.532 573.028 327.291 572.675 329.752C572.322 332.212 573.676 334.441 575.699 334.731C577.722 335.022 579.647 333.262 580 330.802Z" fill="white"/>
<path d="M718.7 401C718.2 397.7 717.4 395.1 716.5 393.2C716.3 392.8 716.1 392.4 715.8 392.1C715.7 392 715.7 391.9 715.6 391.8C715.5 391.6 715.3 391.5 715.2 391.3C715.2 391.2 715.1 391.2 715 391.1L714.9 391C714.7 390.8 714.4 390.5 714.2 390.4C714.1 390.3 713.9 390.2 713.8 390.1C713.6 390 713.4 389.8 713.1 389.7C713 389.7 713 389.6 712.9 389.6C712.8 389.6 712.7 389.5 712.6 389.5C711 388.9 709.5 388.6 708.2 388.6C706.9 388.6 705 388.8 702.6 389.2L675.4 393.5C676.2 392.5 677 391.5 677.8 390.5C678.2 390 678.6 389.5 679 389C679 389 679 389 679.1 388.9C680.1 387.7 681.1 386.4 682 385.3C682.2 385.1 682.4 384.8 682.5 384.6C683.1 383.9 683.6 383.2 684.1 382.6C684.3 382.4 684.4 382.2 684.6 382C684.8 381.8 685 381.5 685.1 381.3C685.3 381.1 685.5 380.9 685.6 380.6C685.9 380.3 686.1 380 686.4 379.6C686.7 379.3 687 378.9 687.2 378.6C687.2 378.6 687.2 378.6 687.3 378.5C687.6 378.2 687.8 377.8 688.1 377.5C688.3 377.3 688.5 377 688.7 376.8C688.8 376.7 688.8 376.6 688.9 376.5C689.1 376.3 689.2 376.1 689.4 375.9C689.4 375.9 689.4 375.9 689.5 375.8C689.5 375.8 689.5 375.8 689.5 375.7C689.7 375.4 689.9 375.2 690.1 374.9C690.7 374.1 691.3 373.4 691.8 372.7C692.5 371.8 693.2 371 693.8 370.2C694.2 369.7 694.6 369.2 695 368.7L695.1 368.6C696.1 367.4 696.9 366.3 697.8 365.2C698 365 698.1 364.8 698.3 364.6C698.7 364.1 699 363.7 699.4 363.2C699.5 363.1 699.5 363 699.6 362.9C699.9 362.5 700.2 362.1 700.6 361.7C701.9 360 703 358.6 703.9 357.5C704.2 357.2 704.4 356.9 704.6 356.6C704.9 356.3 705.1 356 705.3 355.7C707.5 352.7 708.3 349.2 707.7 345.1C707.6 344.7 707.6 344.3 707.4 343.9C707.4 343.7 707.3 343.6 707.3 343.5C706.7 341.2 705.5 339.2 703.7 337.5C703.3 337.1 702.9 336.8 702.5 336.5C702.3 336.4 702.2 336.2 702 336.1C701.8 336 701.6 335.8 701.4 335.7C701.2 335.6 701 335.4 700.8 335.3C700.4 335 699.9 334.8 699.5 334.6C699.3 334.5 699 334.4 698.8 334.3C698.6 334.2 698.3 334.1 698.1 334C698 334 697.9 333.9 697.7 333.9C697.5 333.9 697.4 333.8 697.2 333.8H697.1C696.8 333.7 696.6 333.7 696.4 333.7C696 333.6 695.5 333.6 695.1 333.5C695 333.5 694.8 333.5 694.7 333.5C694.5 333.5 694.3 333.5 694.1 333.5C693.3 333.5 692.6 333.6 691.8 333.7L664.4 338L640.2 341.8C638.2 342.1 636.7 342.4 635.7 342.6C634.7 342.8 633.5 343.3 632.2 344C630.8 344.7 629.9 345.6 629.3 346.6C629.2 346.8 629.1 346.9 629 347.1C628.7 347.7 628.5 348.4 628.3 349.2C628.3 349.2 628.3 349.2 628.3 349.3C628.3 349.4 628.2 349.6 628.2 349.8C628.1 350.2 628.1 350.6 628 351.1C627.8 353 627.9 355.3 628.3 358C628.7 360.8 629.4 363 630.2 364.7C631 366.4 631.9 367.7 632.8 368.5C633.7 369.3 634.9 369.9 636.4 370.1C636.8 370.2 637.1 370.2 637.4 370.3C638.5 370.4 639.4 370.4 640.2 370.4C641.2 370.3 642.7 370.1 644.7 369.8L667.1 366.3C667.1 366.4 667 366.5 666.8 366.6C666.1 367.5 664.2 369.8 661.1 373.5C660.9 373.8 660.7 374 660.5 374.2C659.5 375.4 658.5 376.6 657.4 377.9C657.2 378.1 657.1 378.2 657 378.4C653.9 382.1 650.6 386.1 647.1 390.4C642.2 396.4 638.5 400.9 636.2 404C636 404.3 635.7 404.6 635.5 405C635.3 405.3 635.2 405.5 635 405.8C634.8 406.1 634.7 406.4 634.6 406.7C634.3 407.3 634.1 407.9 633.9 408.6C633.7 409.2 633.6 409.9 633.5 410.5C633.5 410.8 633.4 411.1 633.4 411.5C633.4 411.8 633.4 412 633.4 412.3C633.4 412.7 633.4 413.1 633.4 413.5C633.4 413.6 633.4 413.7 633.4 413.8C633.4 413.8 633.4 413.8 633.4 413.9C633.4 414.1 633.5 414.4 633.5 414.6C634.1 418.4 636 421.5 639.2 423.8C639.7 424.2 640.2 424.5 640.7 424.7C640.9 424.8 641 424.9 641.2 425C641.4 425.1 641.7 425.3 641.9 425.4C642 425.4 642.1 425.5 642.2 425.5C642.3 425.5 642.4 425.6 642.4 425.6C642.4 425.6 642.5 425.6 642.6 425.7C642.7 425.7 642.7 425.7 642.8 425.8C642.8 425.8 642.9 425.8 643 425.9C643.1 425.9 643.1 425.9 643.1 426C643.2 426 643.2 426 643.3 426.1H643.4C643.4 426.1 643.5 426.1 643.6 426.2C643.8 426.3 644 426.3 644.1 426.3H644.2C644.5 426.4 644.7 426.4 645 426.5C645.2 426.5 645.4 426.6 645.7 426.6H645.8C646.6 426.7 647.5 426.7 648.4 426.6C648.8 426.6 649.2 426.5 649.5 426.5L706.8 417.5C709.2 417.1 711.1 416.7 712.3 416.4C713.5 416 714.8 415.4 716.3 414.3C717.8 413.3 718.7 411.7 719 409.6C719.3 407 719.2 404.3 718.7 401Z" fill="#F1594B"/>
<path d="M712.6 389.4C711 388.8 709.5 388.5 708.2 388.5C706.9 388.5 705 388.7 702.6 389.1L677.6 393C676.6 394.3 675.5 395.6 674.4 397L708 391.7C710.4 391.3 712.3 391.1 713.6 391.1C714.1 391.1 714.6 391.2 715.2 391.3C714.4 390.4 713.6 389.8 712.6 389.4Z" fill="#EF9CA1"/>
<path d="M632.6 368.3C633.5 369.1 634.7 369.7 636.2 369.9C636.6 370 636.9 370 637.2 370C636.6 369.2 636 368.2 635.4 367C634.6 365.3 634 363 633.5 360.3C633.1 357.7 633 355.4 633.2 353.4C633.4 351.5 633.9 350 634.5 349C635.1 348 636.1 347.1 637.4 346.4C638.8 345.7 639.9 345.2 640.9 345C641.9 344.8 643.4 344.5 645.4 344.2L697 336.1C698.9 335.8 700.7 335.9 702.4 336.3C702.2 336.2 702.1 336 701.9 335.9C698.7 333.7 695.3 332.9 691.6 333.5L640 341.6C638 341.9 636.5 342.2 635.5 342.4C634.5 342.6 633.3 343.1 632 343.8C630.6 344.5 629.7 345.4 629.1 346.4C628.5 347.4 628.1 348.9 627.8 350.8C627.6 352.7 627.7 355 628.1 357.7C628.5 360.5 629.2 362.7 630 364.4C630.9 366.2 631.7 367.5 632.6 368.3Z" fill="#EF9CA1"/>
<path d="M638.9 416.901C638.3 413.101 639.2 409.601 641.5 406.401C643.8 403.301 647.5 398.801 652.4 392.801C657.3 386.801 661.8 381.401 665.8 376.601C669.8 371.801 674.6 365.601 675 365.101L666.4 366.501C665.5 367.601 661.8 372.501 660.5 374.101C656.5 378.901 652 384.301 647.1 390.301C642.2 396.301 638.6 400.801 636.2 403.901C633.9 407.101 633 410.601 633.6 414.401C634.2 418.201 636.1 421.301 639.3 423.601C640.9 424.801 642.6 425.601 644.4 426.001C641.2 423.601 639.4 420.601 638.9 416.901Z" fill="#EF9CA1"/>
<path d="M706.9 417C709.3 416.6 711.1 416.3 712.3 415.9C713.5 415.5 714.8 414.9 716.3 413.8C717.8 412.8 718.7 411.2 719 409.1C719.3 407 719.2 404.3 718.7 401C718.2 397.7 717.4 395.1 716.5 393.2C715.5 391.3 714.3 390 712.6 389.4C711 388.8 709.5 388.5 708.2 388.5C706.9 388.5 705 388.7 702.6 389.1L675.4 393.4C685.6 380.8 693.2 371.2 698.4 364.7C676.9 383.3 656.8 378.3 656.8 378.3C653.7 382 650.4 386 646.9 390.3C642 396.3 638.4 400.8 636 403.9C633.7 407.1 632.8 410.6 633.4 414.4C634 418.2 635.9 421.3 639.1 423.6C642.3 425.9 645.7 426.8 649.4 426.2L706.9 417Z" fill="#F26B6C"/>
<path opacity="0.64" d="M712.3 415.9C713.5 415.5 714.8 414.9 716.3 413.8C717.8 412.8 718.7 411.2 719 409.1C719.3 407 719.2 404.3 718.7 401C718.2 397.7 717.4 395.1 716.5 393.2C715.5 391.3 714.3 390 712.6 389.4C711 388.8 709.5 388.5 708.2 388.5C706.9 388.5 705 388.7 702.6 389.1L675.4 393.4C692.2 372.5 702.2 360 705.3 355.8C707.5 352.8 708.3 349.3 707.7 345.2C707.6 344.8 707.5 344.4 707.4 344H707.1C707.1 344 677.9 390.1 633.2 411.3C633.1 412.3 633.2 413.3 633.4 414.4C634 418.2 635.9 421.3 639.1 423.6C642.3 425.9 645.7 426.8 649.4 426.2L706.8 417.2C709.3 416.7 711.1 416.3 712.3 415.9Z" fill="#951B1E"/>
<path d="M692.341 348.399C696.378 347.763 699.358 345.391 698.998 343.099C698.637 340.808 695.072 339.466 691.035 340.101C686.998 340.737 684.017 343.109 684.378 345.401C684.739 347.692 688.304 349.034 692.341 348.399Z" fill="white"/>
<path d="M708.345 400.803C711.454 400.313 713.683 398.059 713.322 395.768C712.962 393.476 710.148 392.016 707.039 392.505C703.929 392.995 701.701 395.249 702.061 397.54C702.422 399.832 705.235 401.292 708.345 400.803Z" fill="white"/>
<path d="M683 352.001C684.16 352.001 685.1 351.061 685.1 349.901C685.1 348.741 684.16 347.801 683 347.801C681.84 347.801 680.9 348.741 680.9 349.901C680.9 351.061 681.84 352.001 683 352.001Z" fill="white"/>
<path d="M698.099 396.6C698.983 396.6 699.7 395.884 699.7 395C699.7 394.117 698.983 393.4 698.099 393.4C697.216 393.4 696.5 394.117 696.5 395C696.5 395.884 697.216 396.6 698.099 396.6Z" fill="white"/>
<path d="M635.9 367.001C637.667 367.001 639.1 365.568 639.1 363.801C639.1 362.033 637.667 360.601 635.9 360.601C634.132 360.601 632.7 362.033 632.7 363.801C632.7 365.568 634.132 367.001 635.9 367.001Z" fill="white"/>
<path d="M641.534 421.203C643.388 420.911 644.607 418.861 644.254 416.624C643.902 414.388 642.113 412.811 640.258 413.103C638.404 413.395 637.185 415.445 637.537 417.682C637.89 419.919 639.679 421.495 641.534 421.203Z" fill="white"/>
<path d="M898.7 487.8H1020.3C1026.7 487.8 1033.1 487.5 1039.4 487.1C1073.4 484.5 1105.5 474.8 1134.2 459.7C1144 434.2 1150.5 399.4 1159.6 348.9C1159.9 347 1160.3 345.2 1160.6 343.3C1161.6 337.8 1162.6 332.5 1163.6 327.3C1163.9 325.9 1164.2 324.4 1164.4 323C1165.4 317.7 1166.5 312.6 1167.5 307.7C1182.3 234.8 1192.4 201 1178.1 174C1176.3 173 1174.6 172.1 1172.8 171.1C1171.3 170.3 1169.8 169.5 1168.3 168.6C1166.7 167.7 1165.1 166.9 1163.5 166C1160.3 164.3 1157.2 162.7 1154.2 161.1C1153.4 160.7 1152.7 160.3 1151.9 159.9C1150.4 159.1 1148.9 158.3 1147.4 157.6C1146.6 157.2 1145.9 156.8 1145.2 156.5C1143.7 155.7 1142.2 155 1140.8 154.3C1130.6 149.2 1121 144.7 1111.9 140.7C1086.1 129.4 1064.3 121.9 1044.8 117C1040.2 115.8 1035.8 114.8 1031.5 114C1006.6 108.9 985.3 107.9 963.8 107.7C962.6 107.7 961.4 107.7 960.2 107.7H959.3C943.8 107.7 919.5 109.2 891.8 114.2C887.3 115 882.7 115.9 878 116.9C855.7 121.7 832 128.7 809.2 139C786.2 149.3 764.3 162.9 746 180.6C744.3 184.3 742.3 187.5 742 198.4C742 199.5 742 200.6 742 201.9C742 202.8 742 203.8 742 204.9C742.1 207.2 742.2 209.9 742.4 212.8C742.5 215 742.7 217.3 742.9 219.8C743 221.4 743.2 223.1 743.4 224.9C744 231.4 744.9 239 746.1 247.9C746.3 249.1 746.4 250.4 746.6 251.7C746.8 253.3 747 254.9 747.3 256.5C747.7 259.5 748.2 262.7 748.7 266C749.5 271.3 750.4 277 751.3 283C751.8 285.9 752.2 288.8 752.7 291.9C752.8 292.7 753 293.6 753.1 294.4C754.4 302.5 755.9 311.2 757.5 320.5C757.8 322 758 323.4 758.3 324.9C759 329.1 759.8 333.4 760.6 337.9C760.6 338.2 760.7 338.5 760.8 338.8C761.2 341 761.6 343.2 762 345.3C762.7 349.3 763.4 353.2 764.1 356.9C765.5 364.4 766.8 371.4 768.1 378.1C769 382.9 769.9 387.5 770.8 391.9C771 392.7 771.1 393.4 771.2 394.1C771.6 395.9 771.9 397.7 772.3 399.4C773.1 403.4 773.9 407.3 774.7 410.9C779.2 432.6 783.1 448.5 786.6 460.4C789.9 471.9 792.8 479.7 795.6 485.4C795.6 485.5 795.7 485.6 795.7 485.6C796 486.3 796.4 486.9 796.7 487.6H818.4H898.7V487.8Z" fill="#00B089"/>
<path d="M1167.5 307.6C1167.5 307.7 1167.5 307.7 1167.5 307.6C1166.5 312.6 1165.5 317.7 1164.4 323C1164.1 324.4 1163.9 325.8 1163.6 327.3C1162.6 332.5 1161.6 337.8 1160.6 343.3C1160.3 345.1 1159.9 347 1159.6 348.9C1150.5 399.4 1144 434.2 1134.2 459.7C1105.5 474.9 1073.4 484.5 1039.4 487.1C1052.9 470.4 1063.1 450 1070.8 428.1C1099.8 346.1 1093.8 244.1 1093.8 244.1L1140.7 154.3C1142.2 155 1143.6 155.8 1145.1 156.5C1148.1 158 1151.1 159.5 1154.1 161.1C1157.2 162.7 1160.3 164.3 1163.4 166C1165 166.8 1166.6 167.7 1168.2 168.6C1169.7 169.4 1171.2 170.2 1172.7 171.1C1174.4 172.1 1176.2 173 1178 174C1192.5 200.9 1182.3 234.7 1167.5 307.6Z" fill="#019385"/>
<path d="M745.9 180.6C746.8 136 874.2 95.4997 980.2 98.5997C1064.4 101 1176 132.2 1178.1 173.9C1180.2 215.6 1072.5 264.4 977.1 269.3C867.6 274.9 745 224.5 745.9 180.6Z" fill="#48BD9E"/>
<path d="M791.6 177.2C792.2 145.5 889.5 116.7 970.3 118.9C1034.5 120.6 1119.6 142.8 1121.2 172.5C1122.8 202.2 1040.7 236.8 967.8 240.4C884.4 244.3 790.9 208.5 791.6 177.2Z" fill="black"/>
<path opacity="0.62" d="M795.4 485.6C803.1 486.5 810.7 487.2 818.2 487.8H796.5C796.2 487.2 795.8 486.5 795.5 485.8C795.5 485.8 795.5 485.7 795.4 485.6Z" fill="#037759"/>
<path opacity="0.62" d="M1167.5 307.7C1166.5 312.6 1165.5 317.7 1164.4 323C1164.1 324.4 1163.9 325.8 1163.6 327.3C1162.6 332.5 1161.6 337.8 1160.6 343.3C1160.3 345.1 1159.9 347 1159.6 348.9C1150.5 399.4 1144 434.2 1134.2 459.7C1105.5 474.9 1073.4 484.5 1039.4 487.1C1033.1 487.6 1026.7 487.8 1020.3 487.8H898.7C974.5 481.4 1030.3 457 1070.8 428C1143.5 376.1 1166.8 309.8 1167.5 307.7Z" fill="#037759"/>
<path d="M1154.38 285.713C1157.9 266.987 1156.04 250.922 1150.24 249.831C1144.43 248.74 1136.87 263.036 1133.35 281.762C1129.83 300.488 1131.69 316.553 1137.5 317.644C1143.31 318.735 1150.87 304.439 1154.38 285.713Z" fill="white"/>
<path d="M1121.1 336.299C1125.63 336.299 1129.3 332.628 1129.3 328.099C1129.3 323.571 1125.63 319.899 1121.1 319.899C1116.57 319.899 1112.9 323.571 1112.9 328.099C1112.9 332.628 1116.57 336.299 1121.1 336.299Z" fill="white"/>
<path d="M967.6 195.3C966.5 195.3 965.4 195.3 964.3 195.4C963.4 195.4 962.4 195.4 961.5 195.4C960.6 195.4 959.7 195.4 958.7 195.4C909.5 194.9 860.6 179 819.8 147.8C816.2 145 812.6 142.1 809.1 139.1C806 136.4 803 133.7 800 130.8C797 127.9 794 124.9 791.1 121.8C789.5 120 787.8 118.3 786.3 116.5C785.8 115.9 785.3 115.4 784.8 114.8C783.9 113.8 783.1 112.8 782.3 111.8C781.7 111.1 781.1 110.4 780.5 109.7C779.9 108.9 779.3 108.2 778.7 107.4C778 106.5 777.2 105.6 776.5 104.6C775.9 103.8 775.3 103 774.7 102.2C774.6 102.1 774.6 102 774.5 101.9C773.9 101.1 773.3 100.3 772.7 99.5002C771.4 97.7002 770.1 95.9002 768.9 94.1002C768.4 93.3002 767.8 92.5002 767.3 91.7002C766.7 90.8002 766.1 89.9002 765.6 89.1002C765.1 88.3002 764.6 87.6002 764.1 86.8002C763.5 85.8002 762.8 84.7002 762.2 83.7002C761.7 82.8002 761.1 82.0002 760.6 81.1002C760.1 80.2002 759.6 79.3002 759 78.4002C758 76.6002 757 74.8002 756 72.9002C755.5 72.0002 755 71.1002 754.5 70.1002C754 69.1002 753.5 68.3002 753.1 67.3002C752.6 66.4002 752.2 65.5002 751.7 64.5002C750.3 61.7002 749 58.9002 747.8 56.1002C747 54.2002 746.2 52.3002 745.4 50.4002C745 49.5002 744.6 48.5002 744.3 47.5002C743.9 46.5002 743.6 45.6002 743.2 44.6002C742.8 43.6002 742.5 42.7002 742.1 41.7002C741.4 39.9002 740.8 38.0002 740.2 36.1002C740.2 36.0002 740.1 36.0002 740.1 35.9002C736.2 24.0002 733.2 11.9002 731.3 -0.299805H784.6L884.1 106L891.5 113.9L898.9 121.8L900.4 123.4L954.3 180.9L961.3 188.4L967.6 195.3Z" fill="#019385"/>
<path d="M968.6 173.4V174.3C968.6 174.9 968.6 175.5 968.6 176.1C968.6 176.9 968.6 177.7 968.6 178.6C968.6 179.4 968.6 180.1 968.5 180.9C968.5 181.1 968.5 181.2 968.5 181.4C968.3 186.1 968 190.7 967.6 195.4L961.5 188.9L954.5 181.4L900.6 123.9L899.1 122.3L891.7 114.4L884.3 106.5L784.7 0H891C896.1 4.6 901 9.4 905.8 14.5C929.2 39.5 946 68.2 956.3 98.6C957.3 101.6 958.3 104.7 959.2 107.7C960 110.5 960.8 113.2 961.5 116C961.7 116.9 962 117.8 962.2 118.7C962.3 119.1 962.4 119.4 962.5 119.8C963 121.8 963.4 123.9 963.9 125.9C964.1 127 964.3 128 964.5 129.1C964.5 129.2 964.5 129.2 964.5 129.3C964.7 130.4 964.9 131.5 965.1 132.7C965.7 136.1 966.2 139.4 966.7 142.8C966.9 143.9 967 145.1 967.1 146.2C967.2 147.3 967.4 148.5 967.5 149.6C968 154.1 968.3 158.7 968.5 163.2C968.5 164.3 968.6 165.5 968.6 166.6C968.6 168.8 968.6 171.1 968.6 173.4Z" fill="#48BD9E"/>
<path opacity="0.62" d="M967.6 195.3C970 169.9 968.2 144.2 962.3 119.3C867.9 151 740.4 36.3002 740.3 36.2002C750.6 67.2002 767.5 96.4002 791.3 121.8C838.6 172.4 903.3 197.1 967.6 195.3Z" fill="#037759"/>
<path d="M871.4 24.3C863.4 35.2 844.5 34.9 829.2 23.6C820.3 17.1 814.7 8.3 813 0H871.8C876 8.7 876.2 17.8 871.4 24.3Z" fill="#F6FAFE"/>
<path d="M867.6 61.0004C873.841 61.0004 878.9 55.9412 878.9 49.7004C878.9 43.4596 873.841 38.4004 867.6 38.4004C861.359 38.4004 856.3 43.4596 856.3 49.7004C856.3 55.9412 861.359 61.0004 867.6 61.0004Z" fill="#F6FAFE"/>
<path d="M1175.3 55.5996C1175.2 55.7996 1175.1 56.0996 1175 56.2996C1174.6 57.1996 1174.2 58.1996 1173.7 59.0996C1173.3 59.9996 1172.8 60.9996 1172.4 61.8996C1172 62.7996 1171.6 63.5996 1171.2 64.4996C1171.2 64.5996 1171.1 64.6996 1171.1 64.6996C1170.2 66.5996 1169.3 68.3996 1168.3 70.1996C1167.8 71.2996 1167.2 72.2996 1166.6 73.2996C1166.2 74.0996 1165.7 74.8996 1165.3 75.6996C1164.3 77.4996 1163.3 79.2996 1162.2 81.0996C1162.2 81.1996 1162.1 81.2996 1162.1 81.3996C1161.2 82.9996 1160.2 84.5996 1159.2 86.0996C1159.1 86.1996 1159 86.2996 1159 86.4996C1158.4 87.3996 1157.9 88.1996 1157.3 89.0996C1157.3 89.1996 1157.2 89.1996 1157.2 89.1996C1156.7 89.8996 1156.2 90.6996 1155.8 91.3996C1155.1 92.3996 1154.4 93.4996 1153.7 94.4996C1153.2 95.1996 1152.7 95.8996 1152.2 96.5996C1150.9 98.4996 1149.5 100.3 1148.2 102.2C1147.6 103 1147 103.8 1146.4 104.6C1145.8 105.4 1145.1 106.3 1144.4 107.1C1143.7 107.9 1143.1 108.8 1142.4 109.6C1141.7 110.4 1141 111.2 1140.4 112.1C1139.6 113 1138.9 113.9 1138.1 114.8C1137.6 115.4 1137.1 116 1136.6 116.5C1135 118.3 1133.4 120.1 1131.8 121.8C1129.9 123.8 1128.1 125.7 1126.2 127.6C1121.6 132.2 1116.8 136.6 1111.9 140.7C1108.5 143.6 1105.1 146.3 1101.6 148.9C1061.1 179.3 1012.8 194.9 964.3 195.3C963.4 195.3 962.4 195.3 961.5 195.3H961C960.3 195.3 959.5 195.3 958.8 195.3C957.7 195.3 956.6 195.3 955.5 195.2L961.6 188.7L968.6 181.2L1022.2 123.9L1023.9 122L1031.5 113.9L1040.4 104.4L1118.9 20.5996C1136.2 28.1996 1152.3 37.7996 1167.2 48.9996C1169.9 51.1996 1172.6 53.3996 1175.3 55.5996Z" fill="#019385"/>
<path d="M1118.8 20.6998L1040.3 104.5L1031.4 114L1023.8 122.1L1022.1 124L968.5 181.3L961.5 188.8L955.4 195.3C955.1 192.4 954.9 189.5 954.8 186.6C954.7 185.1 954.6 183.5 954.6 182C954.6 181.8 954.6 181.5 954.6 181.3C954.6 180.4 954.5 179.5 954.5 178.6C954.4 175.7 954.4 172.8 954.5 170C954.7 153.2 956.8 136.4 960.7 119.9C960.8 119.5 960.9 119.2 961 118.8C961.2 117.9 961.4 117 961.7 116.1C962.4 113.3 963.2 110.6 964 107.8C964.9 104.7 965.9 101.6 966.9 98.4998C977.2 68.1998 994 39.4998 1017.3 14.4998C1022 9.4998 1026.8 4.7998 1031.8 0.299805C1062.5 1.6998 1091.9 8.79981 1118.8 20.6998Z" fill="#48BD9E"/>
<path opacity="0.62" d="M1175.3 55.5998C1175.2 55.7998 1175.1 56.0998 1175 56.2998C1174.6 57.1998 1174.2 58.1998 1173.7 59.0998C1173.3 59.9998 1172.8 60.9998 1172.4 61.8998C1172 62.7998 1171.6 63.5998 1171.2 64.4998C1171.2 64.5998 1171.1 64.6998 1171.1 64.6998C1170.2 66.5998 1169.3 68.3998 1168.3 70.1998C1167.8 71.2998 1167.2 72.2998 1166.6 73.2998C1166.2 74.0998 1165.7 74.8998 1165.3 75.6998C1164.3 77.4998 1163.3 79.2998 1162.2 81.0998C1162.2 81.1998 1162.1 81.2998 1162.1 81.3998C1161.1 82.9998 1160.2 84.5998 1159.2 86.0998C1159.1 86.1998 1159 86.2998 1159 86.4998C1158.4 87.3998 1157.9 88.1998 1157.3 89.0998C1157.3 89.1998 1157.2 89.1998 1157.2 89.1998C1156.7 89.8998 1156.2 90.6998 1155.8 91.3998C1155.1 92.3998 1154.4 93.4998 1153.7 94.4998C1153.2 95.1998 1152.7 95.8998 1152.2 96.5998C1150.9 98.4998 1149.5 100.3 1148.2 102.2C1147.6 103 1147 103.8 1146.4 104.6C1145.8 105.4 1145.1 106.3 1144.4 107.1C1143.7 107.9 1143.1 108.8 1142.4 109.6C1141.7 110.4 1141 111.2 1140.4 112.1C1139.6 113 1138.9 113.9 1138.1 114.8C1137.6 115.4 1137.1 116 1136.6 116.5C1135 118.3 1133.4 120.1 1131.8 121.8C1129.9 123.8 1128.1 125.7 1126.2 127.6C1121.6 132.2 1116.8 136.6 1111.9 140.7C1108.5 143.6 1105.1 146.3 1101.6 148.9C1061.1 179.3 1012.8 194.9 964.3 195.3C963.4 195.3 962.4 195.3 961.5 195.3H961C960.3 195.3 959.5 195.3 958.8 195.3C957.7 195.3 956.6 195.3 955.5 195.2C955.2 192.3 955 189.4 954.9 186.5C954.8 185 954.7 183.4 954.7 181.9C954.7 181.7 954.7 181.4 954.7 181.2C954.7 180.3 954.6 179.4 954.6 178.5C954.5 175.6 954.5 172.7 954.6 169.9C954.6 168.9 954.6 167.8 954.7 166.8C954.8 164.7 954.8 162.6 955 160.5C955.1 159.5 955.1 158.4 955.2 157.4C955.4 154.3 955.7 151.1 956 148C957 138.6 958.6 129.2 960.8 119.9C960.8 119.7 960.9 119.5 960.9 119.4C961.2 119.5 961.4 119.6 961.7 119.7C962 119.8 962.3 119.9 962.6 120C980.1 125.6 998.8 126.1 1017.5 123.4C1019.7 123.1 1021.8 122.7 1024 122.3C1031 121 1038 119.3 1044.9 117.2C1052.2 115 1059.4 112.5 1066.5 109.6C1109 92.4998 1147 65.2998 1167.3 49.2998C1169.9 51.1998 1172.6 53.3998 1175.3 55.5998Z" fill="#037759"/>
<path d="M867.1 321.5C866.5 321.5 865.9 321.3 865.4 320.8C864.4 319.9 864.4 318.3 865.3 317.3C865.5 317 890.5 290.9 922.8 312.8C923.9 313.6 924.2 315.1 923.5 316.2C922.7 317.3 921.2 317.6 920.1 316.9C891.3 297.4 869.8 319.8 868.9 320.7C868.4 321.2 867.8 321.5 867.1 321.5Z" fill="black"/>
<path d="M924.7 338.899C925.5 343.199 925.2 347.799 923.9 352.199C922.6 356.599 920.2 360.799 917.1 364.299C914 367.799 910 370.699 905.7 372.599C904.6 372.999 903.5 373.499 902.3 373.899C901.1 374.199 900 374.599 898.8 374.799C897.6 374.999 896.4 375.199 895.2 375.399L891.6 375.599C886.8 375.599 882 374.599 877.6 372.599C873.2 370.599 869.3 367.799 866.2 364.299C863.1 360.799 860.7 356.599 859.4 352.199C858.1 347.799 857.8 343.199 858.6 338.899C860.1 347.499 864.3 354.999 870.3 360.199C876.3 365.399 883.9 368.199 891.6 368.199C899.3 368.199 906.9 365.399 912.9 360.199C918.9 354.999 923.1 347.499 924.7 338.899Z" fill="#231F20"/>
<path d="M1065.4 338.899C1066.2 343.199 1065.9 347.799 1064.6 352.199C1063.3 356.599 1060.9 360.799 1057.8 364.299C1054.7 367.799 1050.7 370.699 1046.4 372.599C1045.3 372.999 1044.2 373.499 1043 373.899C1041.8 374.199 1040.7 374.599 1039.5 374.799C1038.3 374.999 1037.1 375.199 1035.9 375.399L1032.3 375.599C1027.5 375.599 1022.7 374.599 1018.3 372.599C1013.9 370.599 1010 367.799 1006.9 364.299C1003.8 360.799 1001.4 356.599 1000.1 352.199C998.8 347.799 998.5 343.199 999.3 338.899C1000.8 347.499 1005 354.999 1011 360.199C1017 365.399 1024.6 368.199 1032.3 368.199C1040 368.199 1047.6 365.399 1053.6 360.199C1059.6 354.999 1063.8 347.499 1065.4 338.899Z" fill="#231F20"/>
<path d="M866.8 321.299C866.2 321.299 865.6 321.099 865.1 320.599C864.1 319.699 864.1 318.199 865 317.199C865.2 316.899 889.9 291.099 921.9 312.699C923 313.499 923.3 314.999 922.6 316.099C921.9 317.199 920.3 317.499 919.2 316.799C890.7 297.599 869.5 319.599 868.6 320.599C868.1 321.099 867.4 321.299 866.8 321.299Z" fill="#231F20"/>
<path d="M1057.2 321.3C1056.6 321.3 1055.9 321 1055.4 320.5C1054.5 319.5 1033.2 297.5 1004.8 316.7C1003.7 317.5 1002.2 317.2 1001.4 316C1000.6 314.8 1000.9 313.4 1002.1 312.6C1034.1 291 1058.8 316.8 1059 317.1C1059.9 318.1 1059.9 319.6 1058.9 320.5C1058.4 321.1 1057.8 321.3 1057.2 321.3Z" fill="#231F20"/>
<path d="M962 439.7C976.083 439.7 987.5 428.283 987.5 414.2C987.5 400.117 976.083 388.7 962 388.7C947.917 388.7 936.5 400.117 936.5 414.2C936.5 428.283 947.917 439.7 962 439.7Z" fill="#010101"/>
<path d="M752.4 207.301C752.3 207.101 752.3 206.901 752.2 206.801C750.7 203.501 748.4 201.201 745.1 199.801L741.9 198.501L699.7 181.201C697.9 180.501 696.6 179.901 695.7 179.601C694.8 179.301 693.6 179.101 692.2 179.001C690.8 178.901 689.6 179.101 688.6 179.601C687.6 180.101 686.6 181.101 685.4 182.501C684.3 183.901 683.2 185.801 682.3 188.101C681.3 190.501 680.7 192.601 680.5 194.401C680.3 196.201 680.4 197.601 680.7 198.701C681 199.801 681.7 200.801 682.8 201.801C683.1 202.001 683.3 202.201 683.6 202.401C684.4 203.001 685.1 203.501 685.8 203.801C686.7 204.201 688 204.801 689.7 205.501L709.4 213.601C709.3 213.601 709.2 213.701 709 213.701C708 214.101 705.3 215.001 700.8 216.501C700.6 216.601 700.4 216.601 700.2 216.701C699.8 216.801 699.4 217.001 699 217.101C698 217.501 696.9 217.801 695.9 218.201L695.3 218.401C691 219.901 686.5 221.401 681.5 223.201C674.6 225.601 669.5 227.501 666.1 228.801C665.7 229.001 665.2 229.201 664.9 229.401C664.7 229.501 664.5 229.601 664.3 229.701C663.6 230.101 662.9 230.601 662.3 231.101C662.2 231.201 662.1 231.301 662 231.401C661.8 231.501 661.7 231.701 661.5 231.801C661 232.301 660.6 232.801 660.3 233.301C660.2 233.501 660 233.701 659.9 233.901C659.8 234.101 659.6 234.301 659.5 234.501C659.3 234.901 659.1 235.401 658.9 235.801C657.5 239.201 657.5 242.501 659 246.001C659.2 246.501 659.4 246.901 659.6 247.301C659.6 247.401 659.7 247.401 659.7 247.501C659.8 247.601 659.8 247.701 659.9 247.801C660 248.001 660.1 248.201 660.3 248.401C660.5 248.701 660.7 248.901 660.9 249.201C661 249.301 661 249.401 661.1 249.501C661.3 249.801 661.5 250.001 661.7 250.201C661.8 250.301 661.9 250.401 661.9 250.401C662.2 250.701 662.6 251.101 663 251.301C663.1 251.401 663.2 251.501 663.3 251.601C663.6 251.801 663.8 252.001 664.1 252.101C664.2 252.201 664.3 252.201 664.4 252.301C664.6 252.401 664.9 252.601 665.1 252.701C665.2 252.701 665.2 252.801 665.3 252.801C665.6 252.901 665.8 253.001 666.1 253.201L695.8 265.401L701.9 267.901L716.6 273.901C718.7 274.801 720.4 275.401 721.5 275.701C722.6 276.001 724 276.101 725.7 276.001C727.4 275.901 728.9 275.001 730.2 273.501C730.6 273.001 731 272.501 731.3 271.901C731.4 271.701 731.6 271.501 731.7 271.301C732.1 270.701 732.4 270.001 732.8 269.301C732.9 269.101 733 268.901 733.1 268.701C733.2 268.401 733.4 268.201 733.5 267.901C733.6 267.601 733.8 267.201 733.9 266.801C734 266.401 734.2 266.101 734.3 265.701C734.4 265.501 734.5 265.301 734.5 265.101C734.8 264.401 735 263.801 735.1 263.101C735.2 262.801 735.3 262.501 735.4 262.201C735.4 262.001 735.5 261.801 735.5 261.601C735.5 261.401 735.6 261.301 735.6 261.101C735.6 260.901 735.7 260.801 735.7 260.601V260.501C735.7 260.401 735.7 260.201 735.8 260.101C735.8 259.801 735.9 259.601 735.9 259.301C735.9 258.801 735.9 258.301 735.9 257.901C735.9 257.801 735.9 257.601 735.9 257.501C735.9 257.401 735.9 257.301 735.8 257.101C735.8 257.001 735.8 256.901 735.8 256.801C735.8 256.701 735.8 256.701 735.8 256.701C735.8 256.601 735.7 256.501 735.7 256.401V256.301V256.201C735.7 256.101 735.6 255.901 735.5 255.801V255.701C735.5 255.701 735.5 255.601 735.4 255.601C735.4 255.501 735.4 255.501 735.3 255.501V255.401C735.3 255.401 735.3 255.401 735.3 255.301L735.2 255.201C735.2 255.101 735.1 255.101 735.1 255.001C735 254.901 734.9 254.701 734.8 254.601C734 253.601 733.2 252.701 732.3 252.101C732.2 252.001 732.2 252.001 732.1 251.901C732 251.801 731.8 251.701 731.7 251.601C730.6 251.001 729.1 250.201 726.9 249.301L704.9 240.301L703 239.501C704.2 239.101 705.4 238.601 706.5 238.201C706.6 238.101 706.8 238.101 706.9 238.001L707.3 237.901C707.4 237.901 707.6 237.801 707.7 237.801C708.2 237.601 708.6 237.501 709.1 237.301C709.9 237.001 710.7 236.701 711.5 236.401C711.6 236.401 711.7 236.301 711.8 236.301C712 236.201 712.2 236.101 712.4 236.101C713 235.901 713.7 235.601 714.3 235.401C714.6 235.301 714.9 235.201 715.2 235.101C715.7 234.901 716.1 234.801 716.6 234.601C717.1 234.401 717.6 234.201 718 234.101C718.6 233.901 719.2 233.701 719.8 233.501C720.1 233.401 720.3 233.301 720.5 233.201C720.6 233.201 720.7 233.101 720.8 233.101H720.9C721.2 233.001 721.6 232.801 721.9 232.701C722.1 232.601 722.3 232.601 722.4 232.501C722.6 232.401 722.9 232.301 723.1 232.201C723.4 232.101 723.7 232.001 724 231.901C724.5 231.701 725.1 231.501 725.6 231.301H725.7C726.6 231.001 727.5 230.601 728.4 230.301C728.7 230.201 729 230.101 729.3 230.001C729.9 229.801 730.4 229.601 731 229.401C731.5 229.201 732.1 229.001 732.6 228.801C732.9 228.701 733.1 228.601 733.4 228.501C733.6 228.401 733.8 228.401 734 228.301C734.1 228.301 734.3 228.201 734.4 228.101C734.5 228.001 734.7 228.001 734.8 227.901C735 227.801 735.2 227.701 735.5 227.601C735.8 227.501 736.2 227.301 736.5 227.201C737 227.001 737.5 226.801 737.9 226.701C738.7 226.401 739.5 226.101 740.2 225.801C740.5 225.701 740.7 225.601 740.9 225.501C741 225.501 741 225.501 741.1 225.401C741.4 225.301 741.6 225.201 741.8 225.101C742.4 224.901 742.9 224.701 743.4 224.501C744.2 224.201 744.8 224.001 745.3 223.701C748.5 222.401 750.9 220.001 752.4 216.301C753.7 213.601 753.7 210.401 752.4 207.301Z" fill="#F1594B"/>
<path d="M734.6 254.701C733.6 253.401 732.6 252.501 731.5 251.801C730.5 251.201 728.9 250.401 726.7 249.501L704.7 240.501C703.2 241.001 701.7 241.601 700.2 242.101L729.7 254.201C731.8 255.101 733.4 255.801 734.5 256.501C734.9 256.801 735.3 257.101 735.7 257.401C735.6 256.401 735.2 255.501 734.6 254.701Z" fill="#EF9CA1"/>
<path d="M680.7 198.701C681 199.801 681.7 200.801 682.8 201.801C683.1 202.001 683.3 202.201 683.5 202.401C683.4 201.501 683.4 200.401 683.5 199.101C683.7 197.301 684.3 195.201 685.3 192.801C686.3 190.501 687.3 188.601 688.4 187.201C689.5 185.801 690.6 184.801 691.6 184.301C692.6 183.801 693.8 183.601 695.2 183.701C696.6 183.801 697.8 184.001 698.7 184.301C699.6 184.601 700.9 185.101 702.7 185.901L748.1 204.601C749.8 205.301 751.2 206.201 752.4 207.401C752.3 207.201 752.3 207.001 752.2 206.901C750.7 203.601 748.4 201.201 745.1 199.901L699.7 181.201C697.9 180.501 696.6 180.001 695.7 179.601C694.8 179.301 693.6 179.101 692.2 179.001C690.8 178.901 689.6 179.101 688.6 179.601C687.6 180.101 686.6 181.101 685.4 182.501C684.3 183.901 683.2 185.801 682.3 188.101C681.3 190.501 680.7 192.601 680.5 194.401C680.3 196.201 680.4 197.601 680.7 198.701Z" fill="#EF9CA1"/>
<path d="M662 240.801C663.4 237.401 665.8 235.101 669.2 233.601C672.6 232.301 677.7 230.401 684.6 228.001C691.5 225.601 697.7 223.401 703.3 221.501C708.9 219.601 715.8 216.901 716.3 216.701L708.7 213.601C707.4 214.001 702.1 216.201 700.3 216.801C694.7 218.701 688.5 220.901 681.6 223.301C674.7 225.701 669.6 227.601 666.2 228.901C662.8 230.301 660.4 232.701 659 236.101C657.6 239.501 657.6 242.801 659.1 246.301C659.8 248.101 660.8 249.501 662 250.701C660.7 247.301 660.7 244.001 662 240.801Z" fill="#EF9CA1"/>
<path d="M716.5 274.001C718.6 274.901 720.3 275.501 721.4 275.801C722.5 276.101 723.9 276.201 725.6 276.101C727.3 276.001 728.8 275.101 730.1 273.601C731.4 272.101 732.6 269.801 733.8 267.001C735 264.101 735.7 261.701 735.8 259.701C736 257.701 735.6 256.101 734.6 254.801C733.6 253.501 732.6 252.601 731.5 251.901C730.5 251.301 728.9 250.501 726.7 249.601L702.8 239.801C717.1 234.601 727.9 230.701 735.2 228.001C708.9 232.401 695.2 218.601 695.2 218.601C690.9 220.101 686.4 221.701 681.4 223.401C674.5 225.801 669.4 227.701 666 229.001C662.6 230.401 660.2 232.801 658.8 236.201C657.4 239.601 657.4 242.901 658.9 246.401C660.3 249.801 662.7 252.201 665.9 253.501L716.5 274.001Z" fill="#F26B6C"/>
<path opacity="0.64" d="M721.4 275.801C722.5 276.101 723.9 276.201 725.6 276.101C727.3 276.001 728.8 275.101 730.1 273.601C731.4 272.101 732.6 269.801 733.8 267.001C735 264.101 735.7 261.701 735.8 259.701C736 257.701 735.6 256.101 734.6 254.801C733.6 253.501 732.6 252.601 731.5 251.901C730.5 251.301 728.9 250.501 726.7 249.601L702.8 239.801C726.5 231.201 740.6 226.001 745.1 224.201C748.3 222.901 750.7 220.501 752.2 216.801C752.4 216.401 752.5 216.101 752.6 215.701L752.4 215.601C752.4 215.601 706.5 238.301 660.3 233.501C659.8 234.301 659.3 235.101 658.9 236.101C657.5 239.501 657.5 242.801 659 246.301C660.4 249.701 662.8 252.101 666 253.401L716.4 274.101C718.7 274.901 720.3 275.501 721.4 275.801Z" fill="#951B1E"/>
<path d="M746.27 210.831C747.089 208.839 744.896 206.05 741.371 204.6C737.847 203.151 734.325 203.591 733.506 205.583C732.687 207.575 734.88 210.365 738.405 211.815C741.929 213.264 745.451 212.824 746.27 210.831Z" fill="white"/>
<path d="M732.041 260.082C732.86 258.09 731.329 255.573 728.622 254.46C725.914 253.346 723.056 254.059 722.237 256.051C721.417 258.043 722.948 260.561 725.655 261.674C728.363 262.787 731.221 262.074 732.041 260.082Z" fill="white"/>
<path d="M730.1 210.501C731.204 210.501 732.1 209.606 732.1 208.501C732.1 207.396 731.204 206.501 730.1 206.501C728.995 206.501 728.1 207.396 728.1 208.501C728.1 209.606 728.995 210.501 730.1 210.501Z" fill="white"/>
<path d="M720.299 253.601C721.128 253.601 721.799 252.929 721.799 252.101C721.799 251.272 721.128 250.601 720.299 250.601C719.471 250.601 718.799 251.272 718.799 252.101C718.799 252.929 719.471 253.601 720.299 253.601Z" fill="white"/>
<path d="M685.6 199.7C687.256 199.7 688.6 198.357 688.6 196.7C688.6 195.043 687.256 193.7 685.6 193.7C683.943 193.7 682.6 195.043 682.6 196.7C682.6 198.357 683.943 199.7 685.6 199.7Z" fill="white"/>
<path d="M666.534 243.146C667.332 241.205 666.654 239.086 665.019 238.414C663.385 237.742 661.413 238.771 660.615 240.712C659.816 242.653 660.495 244.771 662.129 245.444C663.764 246.116 665.736 245.087 666.534 243.146Z" fill="white"/>
<path d="M794.3 337.9C794.2 335.1 793.4 331.7 791.9 327.7C791.7 327.2 791.5 326.7 791.4 326.2C791.2 325.7 791 325.3 790.8 324.8C789.9 322.7 788.9 320.9 788 319.4C787.8 319.2 787.7 318.9 787.5 318.7C787.4 318.6 787.3 318.4 787.2 318.3C787 318 786.8 317.8 786.6 317.5C786.5 317.4 786.3 317.2 786.2 317.1C785.8 316.7 785.5 316.4 785.1 316.1C785 316 784.9 316 784.8 315.9C784.7 315.8 784.6 315.7 784.5 315.7C784.4 315.6 784.2 315.5 784.1 315.4L784 315.3C783.9 315.3 783.9 315.2 783.8 315.2C783.5 315.1 783.3 314.9 783 314.8C782.9 314.8 782.8 314.7 782.7 314.7C782.6 314.7 782.6 314.7 782.5 314.6C782.3 314.5 782.1 314.5 781.9 314.4H781.8C781.6 314.4 781.5 314.3 781.4 314.3C779.2 313.9 777.3 313.9 775.6 314.2C773.9 314.5 771.6 315.2 768.6 316.3L757.6 320.3L737.9 327.5L735.3 328.5C735.6 327.9 735.9 327.3 736.2 326.8C736.8 325.7 737.4 324.5 738 323.4C740.1 319.4 742.1 315.6 743.9 312.1C744 311.9 744.1 311.7 744.2 311.5C744.9 310.2 745.6 308.9 746.2 307.6C746.4 307.3 746.5 307 746.7 306.7C747.2 305.8 747.6 304.9 748.1 304C748.1 303.9 748.2 303.8 748.2 303.7C748.5 303.2 748.7 302.7 749 302.2C749.2 301.9 749.3 301.6 749.5 301.2C749.7 300.8 749.9 300.5 750 300.1C750.4 299.3 750.9 298.5 751.3 297.7C751.4 297.5 751.5 297.2 751.7 297C751.8 296.8 751.9 296.7 752 296.5C752.4 295.7 752.9 294.9 753.3 294.1C753.8 293.2 754.2 292.4 754.6 291.6C754.7 291.5 754.8 291.3 754.8 291.2C754.8 291.1 754.9 291.1 754.9 291C754.9 291 754.9 290.9 755 290.9C755.2 290.5 755.4 290.1 755.6 289.8C755.7 289.6 755.8 289.4 755.9 289.2C756.4 288.3 756.9 287.4 757.3 286.5C757.5 286.1 757.7 285.7 757.9 285.4C758.3 284.6 758.7 283.9 759 283.2C761.3 278.7 762.9 275.5 763.9 273.5C766 269.2 766.1 264.5 764.3 259.4C764.1 258.9 763.9 258.4 763.7 257.9C761.9 254 759 251.2 754.9 249.4C752 248.1 749.1 247.6 746.2 247.8C745.8 247.8 745.3 247.9 744.9 247.9C744.7 247.9 744.6 247.9 744.4 248C744.1 248.1 743.8 248.1 743.5 248.2C743.1 248.3 742.8 248.4 742.4 248.5C742.3 248.5 742.3 248.5 742.2 248.6C741.8 248.7 741.5 248.8 741.2 248.9L732.3 252.1L728.4 253.5L727.2 254L722.5 255.7L695.9 265.4L677.8 272C675.3 272.9 673.5 273.6 672.3 274.1C672 274.2 671.6 274.4 671.2 274.6C671 274.7 670.8 274.9 670.5 275C670.1 275.2 669.8 275.5 669.4 275.7C669.3 275.8 669.2 275.8 669.1 275.9C668.8 276.1 668.5 276.4 668.1 276.6C666.6 277.8 665.5 279.2 665 280.6C664.9 280.8 664.9 281 664.8 281.2C664.7 281.4 664.7 281.6 664.7 281.8C664.6 282.2 664.6 282.6 664.5 283.1C664.5 283.4 664.5 283.6 664.4 283.9C664.4 284.2 664.4 284.4 664.4 284.7C664.4 285 664.4 285.2 664.4 285.5C664.4 285.7 664.4 285.9 664.4 286.1C664.4 286.2 664.4 286.4 664.4 286.5C664.6 289 665.3 291.9 666.5 295.1C667.7 298.5 669.1 301.2 670.5 303.1C672 305.1 673.4 306.5 674.7 307.3C676 308.1 677.7 308.5 679.7 308.5C680.2 308.5 680.6 308.5 681 308.4C682.4 308.3 683.6 308.1 684.5 307.8C685.8 307.4 687.6 306.8 690.1 305.9L717.6 295.9C717.6 296 717.5 296.2 717.3 296.4C716.6 297.7 714.8 301.1 711.8 306.5C711.7 306.7 711.6 306.9 711.5 307.1C711.4 307.3 711.3 307.4 711.2 307.6C710.1 309.6 709 311.7 707.8 313.8C707.1 315.2 706.3 316.6 705.5 318C703.7 321.3 701.9 324.6 700 328.2C699.7 328.7 699.4 329.3 699.1 329.8C698.8 330.3 698.5 330.9 698.2 331.4C697.9 331.9 697.6 332.5 697.3 333C697.2 333.1 697.1 333.3 697.1 333.4C696.6 334.3 696.2 335.2 695.7 336C695 337.3 694.4 338.5 693.8 339.6C693.6 340 693.4 340.4 693.2 340.8C691.7 343.6 690.5 346 689.4 348.1C688.8 349.2 688.3 350.3 687.8 351.3C686.3 354.6 685.7 358 686.2 361.4C686.3 362 686.4 362.7 686.6 363.3C686.7 363.6 686.8 363.9 686.9 364.3C686.9 364.4 686.9 364.4 687 364.5C687 364.6 687 364.6 687.1 364.7C687.2 364.9 687.2 365.1 687.3 365.3C687.4 365.7 687.6 366 687.7 366.4C687.7 366.5 687.8 366.6 687.8 366.7C688 367.1 688.1 367.4 688.3 367.8C688.5 368.2 688.7 368.5 688.9 368.8C689.1 369.2 689.3 369.5 689.6 369.8C689.7 369.9 689.7 370 689.8 370C689.9 370.1 690 370.2 690.1 370.3C690.1 370.3 690.1 370.4 690.2 370.4C690.4 370.6 690.5 370.8 690.7 371L690.8 371.1C691 371.3 691.2 371.6 691.5 371.8C691.6 371.9 691.7 372 691.8 372.1C691.9 372.2 691.9 372.2 692 372.3C692.7 372.9 693.4 373.5 694.2 374C694.4 374.1 694.6 374.3 694.8 374.4C695.4 374.8 696.1 375.1 696.8 375.5C697.1 375.6 697.4 375.8 697.7 375.9C697.9 376 698 376 698.2 376.1C698.7 376.3 699.1 376.4 699.6 376.6H699.7H699.8C700 376.6 700.1 376.7 700.3 376.7H700.4C700.4 376.7 700.5 376.7 700.6 376.7C700.8 376.8 701.1 376.8 701.3 376.8C701.6 376.9 701.8 376.9 702.1 376.9H702.2H702.3C702.6 376.9 702.8 377 703.1 377H703.2C703.5 377 703.7 377 704 377.1C704.5 377.1 705 377.1 705.6 377.1C705.9 377.1 706.2 377.1 706.5 377C706.7 377 706.8 377 707 376.9C707.5 376.8 708 376.7 708.5 376.6C709 376.5 709.5 376.3 710 376.2C710.3 376.1 710.5 376 710.7 375.9L746.2 362.9L749.6 361.7L751.8 360.9L755.3 359.6L764.3 356.3L781.2 350.2C782.3 349.8 783.3 349.4 784.2 349.1C784.4 349 784.6 348.9 784.8 348.9C785.1 348.8 785.4 348.7 785.7 348.5C786.6 348.1 787.3 347.8 787.9 347.5C788.5 347.2 789.2 346.7 789.8 346.2C790 346.1 790.2 345.9 790.4 345.7C790.6 345.5 790.8 345.3 791.1 345.1C791.2 345 791.3 344.9 791.4 344.8C791.7 344.5 792.1 344.2 792.4 343.8C793.6 342.8 794.4 340.6 794.3 337.9Z" fill="#8270B3"/>
<path d="M781.3 314.5C779.1 314.1 777.2 314.1 775.5 314.4C773.8 314.7 771.5 315.4 768.5 316.5L737.8 327.7C736.8 329.6 735.8 331.5 734.7 333.5L775.9 318.4C778.9 317.3 781.2 316.6 782.9 316.3C783.5 316.2 784.2 316.1 785 316.1C783.9 315.3 782.7 314.7 781.3 314.5Z" fill="#EF9CA1"/>
<path d="M674.7 307.701C676 308.501 677.7 308.901 679.7 308.901C680.2 308.901 680.6 308.901 681 308.801C680 308.001 679 306.901 678 305.501C676.5 303.501 675.2 300.901 674 297.501C672.8 294.301 672.1 291.401 671.9 288.901C671.7 286.401 671.9 284.401 672.4 283.001C672.9 281.601 673.9 280.201 675.5 279.001C677 277.801 678.4 276.901 679.6 276.401C680.8 275.901 682.7 275.201 685.1 274.301L748.5 251.201C750.8 250.401 753.1 250.001 755.4 250.101C755.2 250.001 754.9 249.901 754.7 249.701C750.1 247.701 745.6 247.501 741 249.201L677.6 272.301C675.1 273.201 673.3 273.901 672.1 274.401C670.9 274.901 669.5 275.801 668 277.001C666.5 278.201 665.4 279.601 664.9 281.001C664.4 282.401 664.2 284.401 664.4 286.901C664.6 289.401 665.3 292.301 666.5 295.501C667.7 298.901 669.1 301.601 670.5 303.501C672 305.401 673.4 306.801 674.7 307.701Z" fill="#9C8EC4"/>
<path d="M694.7 367.601C693 362.901 693.2 358.301 695.4 353.701C697.6 349.201 701.1 342.601 705.8 333.801C710.5 325.001 714.9 317.001 718.8 310.001C722.7 302.901 727.2 293.801 727.5 293.101L716.9 297.001C716 298.601 712.5 305.701 711.3 308.001C707.4 315.101 703.1 323.001 698.3 331.801C693.6 340.601 690.1 347.301 687.9 351.701C685.8 356.301 685.5 361.001 687.2 365.601C688.9 370.301 692.1 373.701 696.7 375.801C699.1 376.901 701.4 377.501 703.8 377.601C699.4 375.501 696.4 372.201 694.7 367.601Z" fill="#9C8EC4"/>
<path d="M780.9 350.9C783.9 349.8 786.1 348.9 787.5 348.2C788.9 347.5 790.4 346.2 792 344.6C793.6 342.9 794.3 340.7 794.2 337.9C794.1 335.1 793.3 331.8 791.8 327.7C790.3 323.7 788.8 320.6 787.1 318.4C785.4 316.2 783.5 314.9 781.3 314.6C779.1 314.2 777.2 314.2 775.5 314.5C773.8 314.8 771.5 315.5 768.5 316.6L735.2 328.8C744.9 310.3 752.2 296.3 757.1 286.7C734.5 315.6 707.8 314.2 707.8 314.2C704.8 319.6 701.7 325.5 698.3 331.8C693.6 340.6 690.1 347.3 687.9 351.7C685.8 356.3 685.5 361 687.2 365.6C688.9 370.3 692.1 373.7 696.7 375.8C701.3 377.9 705.9 378.2 710.4 376.5L780.9 350.9Z" fill="#7463AB"/>
<path opacity="0.5" d="M787.5 348.201C788.9 347.501 790.4 346.201 792 344.601C793.6 342.901 794.3 340.701 794.2 337.901C794.1 335.101 793.3 331.801 791.8 327.701C790.3 323.701 788.8 320.601 787.1 318.401C785.4 316.201 783.5 314.901 781.3 314.601C779.1 314.201 777.2 314.201 775.5 314.501C773.8 314.801 771.5 315.501 768.5 316.601L735.2 328.801C751.3 298.201 760.8 279.801 763.7 273.701C765.8 269.401 765.9 264.701 764.1 259.601C763.9 259.101 763.7 258.601 763.5 258.101L763.2 258.201C763.2 258.201 737.7 323.801 686.3 361.801C686.5 363.101 686.8 364.401 687.3 365.701C689 370.401 692.2 373.801 696.8 375.901C701.4 378.001 706 378.301 710.5 376.601L780.9 350.901C783.9 349.801 786.1 348.901 787.5 348.201Z" fill="#8270B3"/>
<path d="M745.416 267.589C750.345 265.789 753.51 262.06 752.487 259.258C751.465 256.457 746.64 255.645 741.712 257.445C736.784 259.244 733.618 262.974 734.641 265.775C735.664 268.577 740.488 269.389 745.416 267.589Z" fill="white"/>
<path d="M778.821 329.977C782.608 328.595 784.848 325.203 783.825 322.401C782.802 319.6 778.903 318.45 775.116 319.833C771.329 321.216 769.089 324.608 770.111 327.409C771.134 330.21 775.034 331.36 778.821 329.977Z" fill="white"/>
<path d="M733.9 274.501C735.391 274.501 736.6 273.292 736.6 271.801C736.6 270.309 735.391 269.101 733.9 269.101C732.409 269.101 731.2 270.309 731.2 271.801C731.2 273.292 732.409 274.501 733.9 274.501Z" fill="white"/>
<path d="M764.3 327.2C765.404 327.2 766.3 326.305 766.3 325.2C766.3 324.096 765.404 323.2 764.3 323.2C763.195 323.2 762.3 324.096 762.3 325.2C762.3 326.305 763.195 327.2 764.3 327.2Z" fill="white"/>
<path d="M677.8 305.2C680.064 305.2 681.9 303.364 681.9 301.1C681.9 298.836 680.064 297 677.8 297C675.535 297 673.7 298.836 673.7 301.1C673.7 303.364 675.535 305.2 677.8 305.2Z" fill="white"/>
<path d="M699.191 372.501C701.422 371.687 702.416 368.797 701.412 366.048C700.408 363.299 697.786 361.73 695.555 362.545C693.324 363.359 692.33 366.248 693.334 368.998C694.338 371.747 696.96 373.316 699.191 372.501Z" fill="white"/>
<path d="M845.9 370.7C845.8 370.5 845.7 370.2 845.6 370C843.2 365.6 839.7 362.7 835.1 361.2L789.5 346.9L770.7 341C768.2 340.2 766.3 339.7 765 339.3C764.4 339.2 763.8 339 763.1 339C762.9 339 762.7 339 762.6 339H762.4C761.9 339 761.4 339 760.8 339H760.2C758.2 339 756.6 339.5 755.3 340.3C754 341.1 752.7 342.6 751.3 344.7C749.9 346.8 748.7 349.5 747.7 352.8C746.6 356.2 746.1 359.2 746 361.6C746 362.4 746 363.1 746 363.7C746 363.9 746 364.1 746.1 364.3C746.1 364.5 746.1 364.7 746.2 364.8C746.2 364.9 746.2 365.1 746.3 365.3C746.3 365.5 746.4 365.7 746.4 365.9C746.5 366.5 746.7 367 746.8 367.5C747.3 369 748.4 370.3 750 371.5C750.4 371.8 750.7 372 751.1 372.3C752.3 373.1 753.3 373.6 754.2 374C755.4 374.5 757.3 375.1 759.8 375.9L768 378.5L787.7 384.7C787.6 384.8 787.4 384.8 787.2 384.9C785.8 385.5 782.2 387.2 776.3 389.7C776 389.8 775.7 390 775.5 390.1C773.9 390.8 772.3 391.5 770.6 392.2C769.7 392.6 768.8 393 768 393.4C767.6 393.6 767.2 393.7 766.9 393.9C766.4 394.1 765.9 394.4 765.4 394.6C765.2 394.7 765 394.8 764.8 394.9C764.1 395.2 763.3 395.6 762.6 395.9C762.2 396.1 761.8 396.3 761.3 396.5C761 396.7 760.6 396.8 760.3 397C759.9 397.2 759.5 397.4 759.1 397.5C758.7 397.7 758.2 397.9 757.8 398.1C757.5 398.2 757.2 398.4 756.9 398.5C754.9 399.4 752.9 400.3 750.9 401.2C741.8 405.3 735 408.5 730.5 410.7C730.2 410.8 729.9 411 729.7 411.2C729.4 411.3 729.2 411.5 728.9 411.7C728.5 412 728.1 412.3 727.7 412.6C727.6 412.7 727.4 412.8 727.3 413C726.9 413.3 726.6 413.6 726.3 413.9C726.2 414 726.2 414 726.1 414.1C725.8 414.3 725.6 414.6 725.4 414.8C725.2 415 725 415.3 724.8 415.5C724.4 416 724 416.5 723.7 417C723.5 417.3 723.4 417.5 723.2 417.8C723.2 417.8 723.2 417.8 723.2 417.9C723.1 418.2 722.9 418.5 722.7 418.7C722.6 419 722.4 419.3 722.3 419.6C722.2 419.8 722.1 420.1 722 420.3C721.8 420.7 721.7 421.1 721.6 421.5C720.1 426.3 720.5 430.9 722.9 435.4C723.1 435.7 723.2 436 723.4 436.2C723.6 436.6 723.9 437 724.1 437.3C724.2 437.4 724.3 437.6 724.4 437.7C724.4 437.7 724.4 437.7 724.5 437.7C724.6 437.8 724.7 438 724.8 438.1C724.9 438.2 725 438.3 725.1 438.5C725.2 438.6 725.2 438.6 725.2 438.7C725.3 438.9 725.5 439.1 725.6 439.2C725.7 439.3 725.8 439.5 726 439.6C726.1 439.7 726.1 439.8 726.2 439.8C726.2 439.9 726.3 439.9 726.3 440C726.4 440.1 726.5 440.2 726.6 440.2C726.7 440.3 726.8 440.4 726.9 440.4C727.1 440.6 727.3 440.8 727.6 441C727.6 441 727.6 441 727.6 440.9C728.5 441.6 729.4 442.3 730.4 442.8C730.7 442.9 730.9 443.1 731.2 443.2C732 443.6 732.8 443.9 733.6 444.2L786.9 460.9L805.1 466.6C808.1 467.6 810.4 468.2 812 468.5C813.6 468.8 815.5 468.7 817.8 468.4C820.1 468 822 466.7 823.6 464.5C825.2 462.2 826.6 459.1 827.9 455C829.2 450.9 829.8 447.5 829.8 444.7C829.8 444.4 829.8 444.1 829.8 443.8V443.7C829.8 443.4 829.7 443.1 829.7 442.8C829.7 442.7 829.7 442.7 829.7 442.6C829.7 442.4 829.6 442.2 829.6 442C829.6 441.9 829.6 441.8 829.5 441.7C829.5 441.5 829.4 441.3 829.3 441.2C829.3 441.1 829.2 440.9 829.2 440.8C829.1 440.6 829.1 440.4 829 440.2C828.9 440 828.8 439.8 828.7 439.6C828.7 439.5 828.6 439.5 828.6 439.4C828.5 439.3 828.5 439.2 828.4 439.1C828.4 439 828.3 438.9 828.2 438.9C828.1 438.8 828.1 438.7 828 438.6C827.9 438.5 827.9 438.4 827.8 438.4C827.7 438.3 827.6 438.2 827.6 438.1C826.1 436.5 824.6 435.3 823.1 434.5C821.6 433.7 819.3 432.9 816.3 431.9L785.1 422.1L782.4 421.3C787.2 419.1 791.6 417 795.8 415.1C795.9 415 796 415 796.1 414.9C796.5 414.7 796.9 414.5 797.3 414.3C797.5 414.2 797.7 414.1 797.9 414C798.2 413.9 798.5 413.7 798.7 413.6C798.7 413.6 798.8 413.6 798.8 413.5C799.1 413.4 799.3 413.3 799.6 413.1C799.8 413 800.1 412.9 800.3 412.8C800.6 412.7 800.9 412.5 801.2 412.4C801.4 412.3 801.6 412.2 801.8 412.1C802.3 411.9 802.8 411.7 803.2 411.4C803.5 411.2 803.9 411.1 804.2 410.9C804.3 410.8 804.4 410.8 804.6 410.7C805 410.5 805.4 410.3 805.8 410.1C806.8 409.6 807.8 409.1 808.8 408.7C809.2 408.5 809.6 408.4 809.9 408.2C810 408.2 810.1 408.1 810.2 408.1C812 407.3 813.7 406.4 815.4 405.7C815.6 405.6 815.9 405.5 816.1 405.4C816.2 405.4 816.2 405.4 816.3 405.3C817.4 404.8 818.5 404.3 819.5 403.8C819.7 403.7 819.8 403.7 820 403.6C820.2 403.5 820.4 403.4 820.5 403.3C821.2 403 821.9 402.7 822.5 402.3C823.1 402 823.6 401.8 824.2 401.5C824.4 401.4 824.6 401.3 824.8 401.2C824.9 401.2 825 401.1 825.1 401.1C825.1 401.1 825.2 401.1 825.2 401C825.2 401 825.3 401 825.4 400.9C826.4 400.4 827.4 400 828.3 399.5C831.1 398.2 833.4 397.1 835.2 396.2C835.4 396.1 835.7 396 835.9 395.9C837 395.4 837.8 394.9 838.5 394.6C842.8 392.5 845.8 388.8 847.4 383.7C847.6 383.2 847.7 382.6 847.8 382.1C848.2 378.1 847.8 374.4 845.9 370.7Z" fill="#F8A43F"/>
<path d="M827.1 437.7C825.6 436.1 824.1 434.9 822.6 434.1C821.1 433.3 818.8 432.5 815.8 431.5L784.6 421.7C782.7 422.6 780.7 423.5 778.6 424.5L820.5 437.7C823.5 438.7 825.8 439.5 827.3 440.3C827.9 440.6 828.5 441 829 441.4C828.7 439.9 828 438.7 827.1 437.7Z" fill="#EF9CA1"/>
<path d="M746.7 367.4C747.2 368.9 748.3 370.2 749.9 371.3C750.3 371.6 750.6 371.8 751 372.1C750.7 370.9 750.6 369.4 750.6 367.6C750.6 365.1 751.2 362.2 752.3 358.8C753.3 355.5 754.5 352.8 755.9 350.7C757.3 348.6 758.6 347.1 759.9 346.3C761.2 345.5 762.8 345 764.8 345C766.8 345 768.4 345.1 769.7 345.4C771 345.7 772.9 346.3 775.4 347.1L839.8 367.3C842.1 368 844.2 369.2 846 370.6C845.9 370.4 845.8 370.1 845.7 369.9C843.3 365.5 839.8 362.6 835.2 361.2L770.7 341C768.2 340.2 766.3 339.7 765 339.3C763.7 339 762.1 338.8 760.1 338.9C758.1 338.9 756.5 339.4 755.2 340.2C753.9 341 752.6 342.5 751.2 344.6C749.8 346.7 748.6 349.4 747.6 352.7C746.5 356.1 746 359.1 745.9 361.5C745.9 364 746.2 365.9 746.7 367.4Z" fill="#F6BE7E"/>
<path d="M726.1 427.2C727.6 422.4 730.6 418.9 735.1 416.5C739.6 414.3 746.4 411.1 755.5 407C764.6 402.9 772.9 399.2 780.3 396C787.7 392.7 796.8 388.3 797.5 387.9L786.7 384.5C785 385.3 777.9 388.8 775.5 389.8C768.1 393.1 759.8 396.7 750.7 400.8C741.6 404.9 734.8 408.1 730.3 410.3C725.8 412.7 722.8 416.2 721.3 421C719.8 425.8 720.2 430.4 722.6 434.9C723.8 437.2 725.3 439.1 727.1 440.6C725 436.3 724.6 431.8 726.1 427.2Z" fill="#F6BE7E"/>
<path opacity="0.47" d="M804.6 466.3C807.6 467.3 809.9 467.9 811.5 468.1C813.1 468.4 815 468.3 817.3 468C819.6 467.6 821.5 466.3 823.1 464.1C824.7 461.8 826.1 458.7 827.4 454.6C828.7 450.5 829.3 447.1 829.3 444.3C829.3 441.5 828.5 439.3 827 437.7C825.5 436.1 824 434.9 822.5 434.1C821 433.3 818.7 432.5 815.7 431.5L781.8 420.9C800.8 412.1 815.1 405.5 824.8 400.9C789.2 410.1 768.9 392.7 768.9 392.7C763.2 395.2 757.2 397.9 750.6 400.9C741.5 405 734.7 408.2 730.2 410.4C725.7 412.8 722.7 416.3 721.2 421.1C719.7 425.9 720.1 430.5 722.5 435C724.9 439.5 728.3 442.5 733 443.9L804.6 466.3Z" fill="#EEB678"/>
<path opacity="0.47" d="M811.6 468.2C813.2 468.5 815.1 468.4 817.4 468.1C819.7 467.7 821.6 466.4 823.2 464.2C824.8 461.9 826.2 458.8 827.5 454.7C828.8 450.6 829.4 447.2 829.4 444.4C829.4 441.6 828.6 439.4 827.1 437.8C825.6 436.2 824.1 435 822.6 434.2C821.1 433.4 818.8 432.6 815.8 431.6L781.9 421C813.3 406.5 832 397.7 838 394.7C842.3 392.6 845.3 388.9 846.9 383.8C847.1 383.3 847.2 382.7 847.3 382.2L847 382C847 382 786.8 418.5 723 417.4C722.4 418.5 721.8 419.7 721.4 421.1C719.9 425.9 720.3 430.5 722.7 435C725.1 439.5 728.5 442.5 733.2 443.9L804.7 466.4C807.7 467.3 810 467.9 811.6 468.2Z" fill="#EEB678"/>
<path d="M837.886 376.407C838.78 373.562 835.447 369.98 830.442 368.407C825.437 366.834 820.654 367.866 819.76 370.711C818.866 373.556 822.199 377.137 827.204 378.71C832.209 380.283 836.992 379.252 837.886 376.407Z" fill="white"/>
<path d="M824.287 445.544C825.181 442.699 822.788 439.412 818.941 438.204C815.095 436.995 811.252 438.322 810.358 441.167C809.464 444.012 811.857 447.298 815.703 448.507C819.55 449.716 823.392 448.389 824.287 445.544Z" fill="white"/>
<path d="M815.6 377.7C817.091 377.7 818.3 376.491 818.3 375C818.3 373.509 817.091 372.3 815.6 372.3C814.109 372.3 812.9 373.509 812.9 375C812.9 376.491 814.109 377.7 815.6 377.7Z" fill="white"/>
<path d="M807.1 437.9C808.205 437.9 809.1 437.005 809.1 435.9C809.1 434.796 808.205 433.9 807.1 433.9C805.996 433.9 805.1 434.796 805.1 435.9C805.1 437.005 805.996 437.9 807.1 437.9Z" fill="white"/>
<path d="M753.2 368.1C755.465 368.1 757.3 366.265 757.3 364C757.3 361.736 755.465 359.9 753.2 359.9C750.936 359.9 749.1 361.736 749.1 364C749.1 366.265 750.936 368.1 753.2 368.1Z" fill="white"/>
<path d="M732.433 429.991C733.31 427.198 732.185 424.357 729.919 423.646C727.654 422.934 725.106 424.62 724.228 427.413C723.351 430.205 724.476 433.046 726.741 433.758C729.007 434.47 731.555 432.783 732.433 429.991Z" fill="white"/>
<path d="M609.7 382.6C609.6 380.2 608.9 377.2 607.6 373.6C606.3 370 604.9 367.3 603.4 365.4C603 364.9 602.7 364.5 602.3 364.2C602.2 364.1 602.2 364.1 602.1 364C601.9 363.8 601.7 363.7 601.5 363.5C601.3 363.3 601.1 363.2 600.8 363C600.7 363 600.7 362.9 600.6 362.9C600.4 362.8 600.2 362.7 600.1 362.6C599.9 362.5 599.8 362.4 599.6 362.3C599.4 362.2 599.3 362.2 599.1 362.1H599C599 362.1 599 362.1 598.9 362.1C598.8 362.1 598.8 362.1 598.7 362H598.6C598.5 362 598.3 361.9 598.2 361.9C596.3 361.6 594.6 361.5 593.1 361.8C591.6 362.1 589.6 362.7 586.9 363.7L559.7 373.6L557.4 374.5C558.3 372.8 559.2 371.2 560 369.5C560.7 368.2 561.4 366.9 562 365.7C562.2 365.4 562.3 365.1 562.5 364.8C562.7 364.5 562.8 364.2 563 363.8C563.2 363.4 563.5 362.9 563.7 362.5V362.4C564.3 361.2 564.9 360.1 565.5 358.9C565.6 358.7 565.7 358.4 565.9 358.2C566 358 566.1 357.9 566.2 357.7C566.5 357.1 566.8 356.6 567.1 356.1C567.5 355.4 567.8 354.8 568.1 354.1C568.1 354.1 568.1 354 568.2 354C568.4 353.6 568.6 353.2 568.8 352.8C568.9 352.6 569 352.4 569.1 352.2C569.1 352.1 569.2 352 569.2 351.9C569.4 351.5 569.7 351 569.9 350.6C570.1 350.2 570.3 349.9 570.5 349.5C571 348.6 571.4 347.7 571.9 346.8C572 346.6 572.1 346.5 572.2 346.3C572.3 346.2 572.3 346.1 572.4 345.9C572.6 345.6 572.8 345.2 572.9 344.9L573 344.8C573.1 344.6 573.2 344.4 573.3 344.3C573.3 344.2 573.4 344.1 573.4 344C573.5 343.8 573.7 343.5 573.8 343.3C574 343 574.1 342.7 574.3 342.4C574.4 342.3 574.5 342.1 574.5 342C574.7 341.7 574.8 341.4 575 341.1C575.1 340.9 575.2 340.8 575.2 340.6L575.3 340.5C575.3 340.4 575.4 340.3 575.4 340.2C575.5 340 575.6 339.9 575.6 339.7C575.6 339.7 575.6 339.6 575.7 339.6C575.8 339.4 575.9 339.3 576 339.1C576 339 576.1 339 576.1 338.9C576.1 338.8 576.2 338.8 576.2 338.7C576.3 338.5 576.4 338.2 576.6 338C576.7 337.7 576.9 337.5 577 337.2C577.8 335.7 578.5 334.4 579.1 333.2C579.4 332.6 579.7 332 580 331.5C580.1 331.3 580.2 331.1 580.3 330.9C580.5 330.5 580.7 330.1 580.9 329.8C581.1 329.4 581.3 328.9 581.5 328.5C582 327.4 582.5 326.5 582.8 325.8C582.9 325.5 583 325.3 583.2 325C583.3 324.7 583.4 324.5 583.5 324.2C583.6 323.9 583.7 323.6 583.8 323.2C583.8 323 583.9 322.8 583.9 322.7C584.1 322 584.2 321.3 584.2 320.6C584.2 320.4 584.2 320.2 584.2 320C584.2 319.5 584.2 319 584.2 318.5C584.2 318 584.1 317.5 584.1 317C584.1 316.8 584 316.5 584 316.3C583.8 315.3 583.5 314.3 583.1 313.2C582.9 312.7 582.7 312.3 582.6 311.9C582.3 311.3 582 310.6 581.6 310.1C580.1 307.8 578.1 305.9 575.5 304.7C575.3 304.6 575.1 304.5 574.9 304.4C570.9 302.6 566.8 302.5 562.8 303.9L506.8 324.4C504.6 325.2 503 325.8 501.9 326.3C500.8 326.8 499.6 327.5 498.3 328.6C496.9 329.7 496 330.9 495.6 332.1C495.2 333.4 495 335.1 495.2 337.3C495.4 339.5 496 342.1 497 345C498.1 348 499.3 350.3 500.6 352.1C501.9 353.8 503.1 355.1 504.3 355.8C505.5 356.5 506.9 356.9 508.7 356.8C509.1 356.8 509.5 356.8 509.9 356.7C511.1 356.6 512.2 356.4 513 356.2C514.1 355.9 515.8 355.3 518 354.5L542.3 345.6C542.3 345.7 542.2 345.8 542.1 346C541.5 347.2 539.8 350.3 537.1 355.2C537 355.5 536.8 355.7 536.7 355.9C535.7 357.7 534.7 359.5 533.7 361.4C532.1 364.4 530.3 367.6 528.6 370.9C527.9 372.2 527.2 373.6 526.4 374.9C526 375.6 525.7 376.3 525.3 377C521.1 384.8 518 390.7 516.1 394.6C516 394.9 515.8 395.2 515.7 395.5C515.5 396 515.3 396.5 515.2 397C515.1 397.2 515.1 397.3 515.1 397.5V397.6C514.6 399.6 514.5 401.5 514.7 403.5C514.8 404.1 514.9 404.6 515 405.2C515.1 405.5 515.1 405.7 515.2 406C515.2 406.1 515.2 406.2 515.3 406.3C515.3 406.4 515.3 406.4 515.4 406.5C515.5 406.7 515.5 406.9 515.6 407C517.1 411.1 519.9 414.1 524 416C524.2 416.1 524.4 416.2 524.6 416.3C524.6 416.3 524.7 416.3 524.7 416.4C525 416.5 525.2 416.6 525.5 416.7C525.6 416.8 525.8 416.8 525.9 416.8C526.1 416.9 526.2 416.9 526.4 416.9C526.5 416.9 526.6 417 526.8 417C526.9 417 527 417.1 527.1 417.1C527.4 417.2 527.6 417.2 527.9 417.3C528.1 417.3 528.3 417.4 528.6 417.4C528.7 417.4 528.8 417.4 528.9 417.4C529.1 417.4 529.3 417.5 529.5 417.5C529.8 417.5 530 417.5 530.3 417.5C531.4 417.6 532.5 417.5 533.6 417.3C534.1 417.2 534.6 417.1 535.1 416.9C535.3 416.9 535.4 416.8 535.6 416.8C535.8 416.7 536 416.7 536.2 416.6L598.5 393.9C601.1 392.9 603.1 392.1 604.4 391.5C605.7 390.9 607 389.8 608.4 388.3C609.2 387 609.8 385.1 609.7 382.6Z" fill="#F8A43F"/>
<path d="M598.3 362C596.4 361.7 594.7 361.6 593.2 361.9C591.7 362.2 589.7 362.8 587 363.8L559.8 373.7C558.9 375.4 558 377.1 557.1 378.9L593.6 365.6C596.2 364.6 598.3 364 599.8 363.7C600.4 363.6 601 363.5 601.6 363.5C600.5 362.7 599.4 362.2 598.3 362Z" fill="#EF9CA1"/>
<path d="M504 356C505.2 356.7 506.6 357.1 508.4 357C508.8 357 509.2 357 509.6 356.9C508.7 356.2 507.9 355.2 506.9 354C505.6 352.3 504.4 349.9 503.3 346.9C502.3 344 501.6 341.5 501.5 339.3C501.3 337.1 501.5 335.3 501.9 334.1C502.3 332.8 503.3 331.7 504.6 330.6C506 329.5 507.2 328.7 508.3 328.3C509.4 327.8 511 327.2 513.2 326.4L569.2 305.9C571.2 305.2 573.3 304.8 575.3 304.9C575.1 304.8 574.9 304.7 574.7 304.6C570.7 302.8 566.6 302.7 562.6 304.1L506.6 324.6C504.4 325.4 502.8 326 501.7 326.5C500.6 327 499.4 327.7 498 328.8C496.6 329.9 495.7 331.1 495.3 332.3C494.9 333.6 494.7 335.3 494.9 337.5C495.1 339.7 495.7 342.3 496.7 345.1C497.8 348.1 499 350.5 500.3 352.2C501.6 354 502.8 355.2 504 356Z" fill="#F6BE7E"/>
<path d="M521.7 409.001C520.2 404.901 520.399 400.801 522.299 396.701C524.199 392.701 527.299 386.901 531.499 379.101C535.699 371.301 539.499 364.301 542.999 358.001C546.399 351.701 550.4 343.701 550.7 343.101L541.299 346.501C540.499 347.901 537.399 354.201 536.299 356.301C532.899 362.601 528.999 369.601 524.799 377.401C520.599 385.201 517.499 391.101 515.599 395.001C513.699 399.101 513.499 403.201 514.999 407.301C516.499 411.401 519.3 414.501 523.4 416.401C525.5 417.401 527.6 417.901 529.7 418.001C525.8 416.001 523.2 413.001 521.7 409.001Z" fill="#F6BE7E"/>
<path opacity="0.47" d="M597.9 394.2C600.5 393.2 602.5 392.4 603.8 391.8C605.1 391.1 606.4 390.1 607.8 388.6C609.2 387.1 609.9 385.1 609.8 382.7C609.7 380.3 609 377.3 607.7 373.7C606.4 370.1 605 367.4 603.5 365.5C602 363.6 600.3 362.4 598.4 362.1C596.5 361.8 594.8 361.7 593.3 362C591.8 362.3 589.8 362.9 587.1 363.9L557.6 374.7C566.2 358.3 572.7 345.9 577 337.5C557 363.1 533.4 361.9 533.4 361.9C530.8 366.7 528 371.9 525 377.5C520.8 385.3 517.7 391.2 515.8 395.1C513.9 399.2 513.7 403.3 515.2 407.4C516.7 411.5 519.5 414.6 523.6 416.5C527.7 418.4 531.7 418.6 535.8 417.1L597.9 394.2Z" fill="#EEB678"/>
<path opacity="0.47" d="M603.7 391.8C605 391.1 606.3 390.1 607.7 388.6C609.1 387.1 609.8 385.1 609.7 382.7C609.6 380.3 608.9 377.3 607.6 373.7C606.3 370.1 604.9 367.4 603.4 365.5C601.9 363.6 600.2 362.4 598.3 362.1C596.4 361.8 594.7 361.7 593.2 362C591.7 362.3 589.7 362.9 587 363.9L557.5 374.7C571.7 347.6 580.1 331.4 582.7 326C584.6 322.2 584.7 318 583 313.6C582.8 313.1 582.6 312.7 582.4 312.3L582.1 312.4C582.1 312.4 559.5 370.4 514.1 404C514.3 405.1 514.5 406.3 515 407.4C516.5 411.5 519.3 414.6 523.4 416.5C527.5 418.4 531.5 418.6 535.6 417.1L597.9 394.4C600.5 393.2 602.5 392.4 603.7 391.8Z" fill="#EEB678"/>
<path d="M566.509 320.522C570.866 318.931 573.662 315.622 572.752 313.132C571.843 310.642 567.573 309.913 563.216 311.505C558.858 313.096 556.063 316.404 556.972 318.894C557.881 321.384 562.151 322.113 566.509 320.522Z" fill="white"/>
<path d="M596.022 375.722C599.394 374.491 601.391 371.474 600.481 368.984C599.572 366.494 596.101 365.474 592.729 366.705C589.358 367.936 587.361 370.953 588.27 373.443C589.18 375.933 592.65 376.954 596.022 375.722Z" fill="white"/>
<path d="M556.4 326.6C557.726 326.6 558.8 325.525 558.8 324.2C558.8 322.874 557.726 321.8 556.4 321.8C555.075 321.8 554 322.874 554 324.2C554 325.525 555.075 326.6 556.4 326.6Z" fill="white"/>
<path d="M583.2 373.3C584.194 373.3 585 372.494 585 371.5C585 370.506 584.194 369.7 583.2 369.7C582.206 369.7 581.4 370.506 581.4 371.5C581.4 372.494 582.206 373.3 583.2 373.3Z" fill="white"/>
<path d="M506.7 353.8C508.743 353.8 510.4 352.144 510.4 350.1C510.4 348.057 508.743 346.4 506.7 346.4C504.657 346.4 503 348.057 503 350.1C503 352.144 504.657 353.8 506.7 353.8Z" fill="white"/>
<path d="M525.697 413.312C527.668 412.592 528.544 410.032 527.654 407.594C526.764 405.156 524.444 403.763 522.473 404.483C520.501 405.203 519.625 407.763 520.515 410.201C521.406 412.639 523.726 414.032 525.697 413.312Z" fill="white"/>
</g>
<defs>
<clipPath id="clip0_5470_17900">
<rect width="1264.2" height="487.8" fill="white"/>
</clipPath>
</defs>
</svg>
