<svg width="435" height="556" viewBox="0 0 435 556" fill="none" xmlns="http://www.w3.org/2000/svg">
<g clip-path="url(#clip0_5633_568)">
<path d="M195.47 555.971C192.38 555.971 189.32 555.891 186.39 555.801C184.03 555.721 181.65 555.621 179.32 555.491C176.99 555.361 174.43 555.181 172.06 554.981C169.69 554.781 167.06 554.531 164.65 554.251C147.45 552.251 132.36 548.671 118.53 543.191C116.82 542.511 115.1 541.791 113.41 541.051C111.72 540.311 109.98 539.491 108.33 538.681C106.68 537.871 104.94 536.971 103.33 536.081C101.72 535.191 99.9801 534.211 98.3301 533.241C88.0394 527.057 78.7047 519.406 70.6201 510.531L69.8901 509.721L69.2201 508.961L68.6201 508.271L67.9501 507.471C67.9501 507.471 67.3101 506.681 67.3001 506.681C66.8601 506.127 66.4201 505.557 65.9801 504.971L65.8901 504.841C65.6601 504.541 65.4401 504.231 65.2201 503.911L65.1201 503.771C64.9101 503.481 64.7101 503.181 64.5001 502.881L64.4201 502.761L63.7901 501.811V501.751C62.7901 500.261 61.8901 498.661 61.0001 496.981L60.3601 495.751V495.661C60.1601 495.271 59.9501 494.861 59.7501 494.441L59.7001 494.331C53.1601 480.811 44.8201 455.451 28.2101 362.281C18.6501 308.741 13.3701 272.391 12.0601 251.181C10.9101 232.541 12.7401 225.391 15.4601 219.231C17.3601 203.321 29.9901 188.431 52.4601 175.471C51.8201 174.731 51.2001 174.011 50.5901 173.281C50.3601 173.011 50.1301 172.731 49.9101 172.451L49.6201 172.101C48.6801 170.961 47.7301 169.811 46.8101 168.651L46.1901 167.851L45.9501 167.531C45.0201 166.341 44.0901 165.151 43.1801 163.941L42.7101 163.301L42.5701 163.101C41.5701 161.791 40.6401 160.481 39.7001 159.151L39.2101 158.441C38.2434 157.061 37.2934 155.677 36.3601 154.291L36.0401 153.801C35.0401 152.291 34.0401 150.801 33.1601 149.361L32.9201 148.961C31.9201 147.351 31.0001 145.851 30.1401 144.391L29.9701 144.111C29.0301 142.511 28.0901 140.881 27.2201 139.301C27.1931 139.263 27.1697 139.223 27.1501 139.181C5.94462 100.969 -3.15695 57.219 1.05009 13.7208C1.39286 10.0748 3.05756 6.68014 5.73039 4.17679C8.40321 1.67344 11.8995 0.234351 15.5601 0.1308C17.6101 0.0708004 19.6901 0.0408041 21.7401 0.0408041C62.612 0.061934 102.647 11.6255 137.236 33.4002C171.824 55.1749 199.56 86.2754 217.25 123.121C234.893 86.2188 262.625 55.0678 297.238 33.2735C331.851 11.4792 371.928 -0.0672301 412.83 -0.0292032C414.83 -0.0292032 416.96 -0.0292069 419.01 0.0607931C422.671 0.164344 426.167 1.60346 428.84 4.10681C431.513 6.61017 433.177 10.0048 433.52 13.6508C437.722 57.1487 428.621 100.898 407.42 139.111C407.393 139.149 407.37 139.189 407.35 139.231C406.48 140.791 405.56 142.411 404.6 144.031C404.54 144.131 404.49 144.231 404.43 144.321C403.57 145.791 402.65 147.321 401.65 148.891L401.4 149.291C400.48 150.757 399.533 152.221 398.56 153.681L398.21 154.221C397.277 155.614 396.327 156.997 395.36 158.371L394.88 159.071C393.88 160.411 392.97 161.721 391.99 163.071L391.86 163.251L391.39 163.891C390.48 165.101 389.55 166.301 388.62 167.491L388.38 167.801L387.75 168.621C386.843 169.761 385.917 170.894 384.97 172.021L384.77 172.271C405.88 184.091 417.62 197.721 419.9 212.971C431.46 237.351 425.73 264.701 415.65 312.901C414.1 320.281 412.5 327.901 410.81 336.271C409.99 340.271 409.16 344.427 408.32 348.741L407.32 354.031L406.47 358.491L405.62 362.871L404.8 367.271C404.54 368.721 404.27 370.201 404 371.691C399.45 396.821 395.94 415.901 392.18 432.521C391.46 435.681 390.74 438.731 390.03 441.591C389.32 444.451 388.54 447.451 387.8 450.151C387.41 451.541 387.03 452.911 386.64 454.251C385.84 456.971 385.02 459.621 384.2 462.121C382.45 467.401 380.66 472.121 378.71 476.651C374.066 487.745 367.578 497.973 359.52 506.901C348.405 518.95 335.159 528.843 320.45 536.081C311.524 540.468 302.207 544.011 292.62 546.661C289.62 547.491 286.51 548.271 283.38 548.981C281.85 549.321 280.32 549.651 278.8 549.981C270.052 551.714 261.215 552.969 252.33 553.741C249.68 553.991 246.89 554.211 244.03 554.401C240.43 554.641 236.59 554.851 232.28 555.041L228.57 555.191L221.82 555.431L216.51 555.611L213.82 555.701L211.04 555.781L205.65 555.901H202.55C201.04 555.901 199.55 555.901 197.97 555.901L195.47 555.971Z" fill="black"/>
<path d="M30.1396 223.03C85.6695 169.35 179.87 159.59 216.14 159.79C263.69 160.05 308.54 163.79 405.32 217.24C419.94 244.67 405.32 280.3 389.32 369.02C376.8 438.21 370.08 473.33 348.55 496.75C311.21 537.33 257.27 539.17 221.05 540.42C183.89 541.73 121.35 543.84 81.8396 500.42C71.8396 489.57 63.7896 476.21 42.9996 359.6C20.8796 236.23 26.3496 231.31 30.1396 223.03Z" fill="#00AF88"/>
<path d="M372.82 200.199L332.11 278.099C332.11 278.099 341.87 442.699 270.98 503.439C237.77 531.889 213.05 539.299 199.51 540.929C207.26 540.929 214.51 540.649 220.96 540.419C257.18 539.169 311.12 537.329 348.46 496.749C369.99 473.329 376.71 438.209 389.23 369.019C405.23 280.299 419.89 244.669 405.23 217.239C393.74 210.879 382.97 205.229 372.82 200.199Z" fill="#009284"/>
<path d="M30.1396 223.031C30.8896 184.361 141.47 149.171 233.51 151.871C306.56 153.971 403.45 180.971 405.27 217.241C407.09 253.51 313.62 295.771 230.77 300.051C135.74 304.851 29.3996 261.181 30.1396 223.031Z" fill="#48BC9D"/>
<path d="M69.79 220.09C70.36 192.6 154.73 167.54 224.93 169.45C280.69 170.96 354.56 190.17 355.93 215.95C357.3 241.73 286.05 271.79 222.82 274.88C150.38 278.36 69.23 247.25 69.79 220.09Z" fill="black"/>
<path opacity="0.62" d="M396.11 333.279C396.11 333.379 333.79 517.729 73.1104 487.759C75.2889 492.416 78.1991 496.693 81.7303 500.429C121.24 543.839 183.73 541.729 220.94 540.429C257.16 539.179 311.1 537.339 348.44 496.759C369.97 473.339 376.69 438.219 389.21 369.029C391.62 355.969 393.9 344.149 396.11 333.279Z" fill="#03785A"/>
<path d="M384.757 314.323C387.808 298.083 386.18 284.147 381.122 283.197C376.063 282.246 369.488 294.641 366.437 310.882C363.386 327.122 365.014 341.058 370.073 342.008C375.132 342.958 381.706 330.563 384.757 314.323Z" fill="white"/>
<path d="M355.83 358.19C359.774 358.19 362.97 354.993 362.97 351.05C362.97 347.107 359.774 343.91 355.83 343.91C351.887 343.91 348.69 347.107 348.69 351.05C348.69 354.993 351.887 358.19 355.83 358.19Z" fill="white"/>
<path d="M69.47 172.02C88.9893 192.91 112.736 209.402 139.128 220.396C165.52 231.39 193.952 236.635 222.53 235.78L15.91 15.0898C13.1782 43.5511 16.542 72.2677 25.7773 99.3271C35.0127 126.387 49.9076 151.168 69.47 172.02Z" fill="#009284"/>
<path d="M15.9102 15.0903L222.53 235.78C225.235 207.321 221.859 178.613 212.627 151.557C203.394 124.502 188.516 99.7186 168.978 78.8501C149.44 57.9816 125.689 41.505 99.2992 30.5126C72.9099 19.5202 44.4854 14.2633 15.9102 15.0903Z" fill="#48BC9D"/>
<path opacity="0.62" d="M222.53 235.78C224.622 213.676 223.065 191.378 217.92 169.78C135.99 197.31 25.3202 97.7797 25.2402 97.6797C38.9192 138.843 65.4957 174.504 101.031 199.379C136.567 224.253 179.171 237.017 222.53 235.78Z" fill="#03785A"/>
<path d="M139.065 87.3725C146.034 77.9298 140.931 62.3388 127.667 52.5489C114.403 42.7591 98.0006 42.4776 91.0312 51.9202C84.0619 61.3628 89.1648 76.9538 102.429 86.7437C115.693 96.5336 132.095 96.8151 139.065 87.3725Z" fill="#F5F9FC"/>
<path d="M135.74 119.21C141.136 119.21 145.51 114.836 145.51 109.44C145.51 104.044 141.136 99.6699 135.74 99.6699C130.344 99.6699 125.97 104.044 125.97 109.44C125.97 114.836 130.344 119.21 135.74 119.21Z" fill="#F5F9FC"/>
<path d="M365.03 172.02C345.51 192.91 321.764 209.402 295.372 220.396C268.979 231.39 240.548 236.635 211.97 235.78L418.62 15.0898C421.348 43.5532 417.979 72.2712 408.739 99.3307C399.498 126.39 384.598 151.17 365.03 172.02Z" fill="#009284"/>
<path d="M418.62 15.0892L211.969 235.779C209.264 207.318 212.641 178.606 221.875 151.549C231.109 124.491 245.991 99.7065 265.532 78.8375C285.073 57.9685 308.828 41.4925 335.221 30.502C361.614 19.5116 390.042 14.2578 418.62 15.0892Z" fill="#48BC9D"/>
<path opacity="0.62" d="M211.97 235.78C209.88 213.676 211.434 191.379 216.57 169.78C298.51 197.31 409.18 97.7797 409.26 97.6797C395.581 138.843 369.005 174.504 333.469 199.379C297.933 224.253 255.329 237.017 211.97 235.78Z" fill="#03785A"/>
<path d="M199.26 451.551C199.26 451.551 200.09 466.271 215.1 466.271C230.11 466.271 229.72 451.551 229.72 451.551" stroke="#221E20" stroke-width="6" stroke-miterlimit="10" stroke-linecap="round"/>
<path d="M125.96 366.12C134.014 361.717 142.842 358.909 151.96 357.85C161.421 356.685 171.019 357.461 180.17 360.13" stroke="black" stroke-width="7" stroke-miterlimit="10" stroke-linecap="round"/>
<path d="M254.1 360.789C272.016 354.805 291.567 356.108 308.53 364.419" stroke="black" stroke-width="7" stroke-miterlimit="10" stroke-linecap="round"/>
<path d="M297.42 392.24C297.991 395.983 297.7 399.807 296.57 403.42C295.43 407.139 293.511 410.572 290.94 413.49C288.338 416.443 285.137 418.809 281.549 420.429C277.962 422.049 274.071 422.887 270.135 422.887C266.199 422.887 262.308 422.049 258.721 420.429C255.134 418.809 251.932 416.443 249.33 413.49C246.761 410.574 244.842 407.145 243.7 403.43C242.58 399.815 242.289 395.993 242.85 392.25C243.85 399.25 248.19 402.25 253.34 406.95C257.856 411.264 263.896 413.615 270.14 413.49C276.442 413.604 282.54 411.258 287.14 406.95C292.31 402.2 296.42 399.24 297.42 392.24Z" fill="#221E20"/>
<path d="M182.24 392.24C182.801 395.983 182.51 399.805 181.39 403.42C180.246 407.137 178.327 410.569 175.76 413.49C173.158 416.443 169.957 418.809 166.369 420.429C162.782 422.049 158.891 422.887 154.955 422.887C151.019 422.887 147.128 422.049 143.541 420.429C139.954 418.809 136.752 416.443 134.15 413.49C131.581 410.574 129.662 407.145 128.52 403.43C127.39 399.817 127.099 395.993 127.67 392.25C128.67 399.25 133.01 402.25 138.16 406.95C142.674 411.261 148.71 413.612 154.95 413.49C161.252 413.606 167.351 411.26 171.95 406.95C177.12 402.2 181.23 399.24 182.24 392.24Z" fill="#221E20"/>
</g>
<defs>
<clipPath id="clip0_5633_568">
<rect width="434.5" height="555.93" fill="white"/>
</clipPath>
</defs>
</svg>
