<svg width="620" height="839" viewBox="0 0 620 839" fill="none" xmlns="http://www.w3.org/2000/svg">
<g clip-path="url(#clip0_4906_637)">
<path d="M309.59 838.58C480.572 838.58 619.18 809.519 619.18 773.67C619.18 737.821 480.572 708.76 309.59 708.76C138.608 708.76 0 737.821 0 773.67C0 809.519 138.608 838.58 309.59 838.58Z" fill="#A7A9AC"/>
<path d="M161.71 785.6C158.903 785.599 156.127 785.008 153.563 783.864C150.999 782.719 148.705 781.048 146.83 778.959C144.955 776.87 143.54 774.409 142.679 771.737C141.817 769.065 141.528 766.241 141.83 763.45C141.83 763.33 141.96 762.19 142.12 760.25C142.12 759.75 142.2 759.25 142.24 758.64C142.46 755.64 142.76 750.94 142.92 745.23C142.92 744.23 142.97 743.23 142.99 742.13V740.5C142.99 739.42 142.99 738.31 142.99 737.18C142.99 732.25 142.87 727.41 142.62 722.82C142.49 720.25 142.31 717.73 142.09 715.32C141.98 714.06 141.86 712.81 141.72 711.56C141.58 710.31 141.44 709.07 141.28 707.83C141.12 706.59 140.95 705.37 140.76 704.15C140.66 703.55 140.57 702.95 140.47 702.34C140.27 701.15 140.05 699.96 139.82 698.78C139.71 698.21 139.59 697.63 139.47 697.05C138.706 693.287 137.704 689.576 136.47 685.94C136.31 685.46 136.14 685 135.96 684.53C135.332 682.828 134.618 681.159 133.82 679.53C133.308 678.502 132.744 677.501 132.13 676.53C130.55 674 128.86 671.37 126.96 668.47C125.34 666 123.78 663.66 122.29 661.47L122.05 661.11C120.41 658.66 118.85 656.32 117.36 654.04C116.36 652.44 115.36 650.88 114.36 649.33C113.36 647.78 112.36 646.07 111.46 644.53C110.46 642.81 109.56 641.18 108.7 639.53C106.849 636.037 105.2 632.441 103.76 628.76C103.01 626.83 102.31 624.86 101.69 622.9C100.69 619.9 99.9 616.72 99.21 613.51C97.2788 603.872 96.3638 594.059 96.48 584.23V201.41C96.4245 193.859 96.9359 186.314 98.01 178.84C98.9465 172.346 100.514 165.959 102.69 159.77C103.03 158.77 103.39 157.84 103.76 156.89C104.48 155.04 105.27 153.17 106.12 151.35C106.52 150.47 106.94 149.58 107.37 148.71C108.2 147.03 109.1 145.31 110.06 143.59C111.02 141.87 111.86 140.42 112.89 138.71C113.8 137.2 114.77 135.65 115.89 133.96C117.89 130.81 120.03 127.62 122.09 124.54L122.28 124.25C125.42 119.55 128.67 114.68 132.17 109.08C134.212 105.665 135.834 102.015 137 98.21C138.359 93.8983 139.435 89.5022 140.22 85.05C140.43 83.86 140.63 82.65 140.82 81.44C141.69 75.75 142.32 69.44 142.68 62.78C142.93 58.18 143.06 53.35 143.05 48.42C143.05 33.42 141.86 22.24 141.85 22.13C141.551 19.3404 141.843 16.5191 142.706 13.8494C143.568 11.1798 144.983 8.72156 146.858 6.63445C148.733 4.54733 151.026 2.87804 153.588 1.73503C156.15 0.592022 158.924 0.000877301 161.73 0H529.16C531.905 3.23368e-05 534.621 0.565214 537.138 1.66035C539.656 2.7555 541.921 4.35714 543.792 6.36557C545.664 8.374 547.101 10.7462 548.016 13.3345C548.931 15.9227 549.304 18.6716 549.11 21.41C549.11 21.66 549.11 21.92 549.04 22.17C549.04 22.17 548.95 23.07 548.95 23.1L548.78 25.04C548.78 25.04 548.71 25.91 548.7 25.95C548.63 26.88 548.55 27.95 548.48 29.13L548.39 30.49C548.27 32.49 548.17 34.56 548.08 36.58V36.66C547.96 39.72 547.88 42.81 547.85 45.83V45.94C547.85 49.45 547.85 52.94 547.95 56.32C547.955 56.3732 547.955 56.4268 547.95 56.48C548.03 59.48 548.17 62.48 548.36 65.32V65.51C548.36 66.18 548.45 66.85 548.5 67.51V67.67C548.56 68.48 548.62 69.2 548.69 69.93C550.61 92.15 555.19 103.5 558.69 109.11C562.19 114.72 565.46 119.61 568.61 124.33C582.99 145.86 594.34 162.86 594.34 201.44V584.18C594.34 614.51 587.5 631.57 576.46 649.27C575.46 650.82 574.46 652.38 573.46 653.97C572.46 655.56 571.46 657.07 570.36 658.68L567.81 662.5C566.53 664.41 565.22 666.38 563.81 668.5C561.91 671.4 560.21 674.04 558.64 676.56C558.026 677.531 557.462 678.532 556.95 679.56C556.15 681.188 555.436 682.857 554.81 684.56C554.63 685.02 554.46 685.48 554.3 685.95C553.067 689.59 552.065 693.304 551.3 697.07C551.18 697.64 551.06 698.22 550.95 698.81C550.72 699.98 550.5 701.17 550.3 702.36C550.2 702.96 550.11 703.56 550.01 704.16C549.82 705.39 549.65 706.62 549.49 707.85C549.33 709.08 549.18 710.33 549.05 711.57C548.92 712.81 548.79 714.09 548.68 715.33V715.7C548.607 716.44 548.547 717.17 548.5 717.89V718.09C548.5 718.81 548.4 719.49 548.36 720.16V720.34C548.17 723.2 548.03 726.17 547.95 729.17V729.25C547.85 732.72 547.82 736.25 547.85 739.76V739.81C547.85 742.81 547.96 745.88 548.08 748.92V749.02C548.17 751.02 548.27 753.09 548.39 755.09C548.39 755.09 548.47 756.4 548.47 756.42C548.55 757.66 548.64 758.76 548.71 759.71L548.85 761.43L549.05 763.55C549.338 766.335 549.039 769.15 548.171 771.811C547.302 774.473 545.885 776.923 544.01 779.003C542.135 781.082 539.845 782.745 537.287 783.883C534.729 785.021 531.96 785.609 529.16 785.61L161.71 785.6Z" fill="#231F20"/>
<path d="M161.71 765.6C161.71 765.6 169.05 697.82 149.11 665.92C129.17 634.02 116.5 624.05 116.5 584.18V201.41C116.5 161.54 129.18 151.57 149.11 119.67C169.04 87.7702 161.71 19.9902 161.71 19.9902H515.86C515.86 19.9902 523.2 87.7802 503.26 119.67C483.32 151.56 470.65 161.54 470.65 201.41V584.18C470.65 624.05 483.33 634.02 503.26 665.92C523.19 697.82 515.86 765.6 515.86 765.6H161.71Z" fill="#71A29E"/>
<path d="M183.7 665.92C163.76 634.02 151.09 624.05 151.09 584.18V201.41C151.09 161.54 163.76 151.57 183.7 119.67C203.64 87.7702 196.3 19.9902 196.3 19.9902H161.71C161.71 19.9902 169.05 87.7802 149.11 119.67C129.17 151.56 116.5 161.54 116.5 201.41V584.18C116.5 624.05 129.18 634.02 149.11 665.92C169.04 697.82 161.71 765.6 161.71 765.6H196.3C196.3 765.6 203.59 697.82 183.7 665.92Z" fill="#587B75"/>
<path d="M529.16 765.6C529.16 765.6 521.82 697.82 541.76 665.92C561.7 634.02 574.37 624.05 574.37 584.18V201.41C574.37 161.54 561.69 151.57 541.76 119.67C521.83 87.7702 529.16 19.9902 529.16 19.9902H175.01C175.01 19.9902 167.67 87.7802 187.61 119.67C207.55 151.56 220.22 161.54 220.22 201.41V584.18C220.22 624.05 207.55 634.02 187.61 665.92C167.67 697.82 175.01 765.6 175.01 765.6H529.16Z" fill="#C5E6DC"/>
<path d="M574.37 323.02H220.22V462.57H574.37V323.02Z" fill="#48BEA2"/>
<path d="M401.25 541.319C483.275 541.319 549.77 474.825 549.77 392.799C549.77 310.774 483.275 244.279 401.25 244.279C319.225 244.279 252.73 310.774 252.73 392.799C252.73 474.825 319.225 541.319 401.25 541.319Z" fill="#FAF28C"/>
<path d="M529.16 19.9902H175.01C173.409 37.1611 173.281 54.4376 174.63 71.6302H528.78C527.426 54.4379 527.553 37.1608 529.16 19.9902Z" fill="#98CFC0"/>
<path d="M174.59 713.971C173.242 731.16 173.369 748.433 174.97 765.601H529.16C527.553 748.433 527.426 731.16 528.78 713.971H174.59Z" fill="#98CFC0"/>
<g style="mix-blend-mode:multiply">
<path d="M219.59 598.54C216.76 627.06 204.94 638.24 187.59 665.92C167.65 697.82 174.99 765.6 174.99 765.6H529.16C529.16 765.6 521.82 697.82 541.76 665.92C561.7 634.02 574.37 624.05 574.37 584.18V201.41C574.37 201.41 550.59 598.54 219.59 598.54Z" fill="#CEEAE2"/>
</g>
<path d="M523.96 593.2C543.185 593.2 558.77 577.615 558.77 558.39C558.77 539.165 543.185 523.58 523.96 523.58C504.735 523.58 489.15 539.165 489.15 558.39C489.15 577.615 504.735 593.2 523.96 593.2Z" fill="#E9F3F9"/>
<g style="mix-blend-mode:multiply">
<path d="M574.37 584.181V499.081L572.43 496.961C572.43 496.961 560.78 675.901 187.59 665.921C167.65 697.821 174.99 765.601 174.99 765.601H529.16C529.16 765.601 521.82 697.821 541.76 665.921C561.7 634.021 574.37 624.051 574.37 584.181Z" fill="#CEEAE2"/>
</g>
<path d="M290.12 304.62C307.186 304.62 321.02 290.786 321.02 273.72C321.02 256.655 307.186 242.82 290.12 242.82C273.054 242.82 259.22 256.655 259.22 273.72C259.22 290.786 273.054 304.62 290.12 304.62Z" fill="#E9F3F9"/>
<path d="M269.17 237.89C278.487 237.89 286.04 230.337 286.04 221.02C286.04 211.703 278.487 204.15 269.17 204.15C259.853 204.15 252.3 211.703 252.3 221.02C252.3 230.337 259.853 237.89 269.17 237.89Z" fill="#E9F3F9"/>
<path d="M297.13 155.93C298.142 155.894 299.153 156.012 300.13 156.28C300.464 156.372 300.776 156.529 301.049 156.742C301.321 156.954 301.55 157.219 301.72 157.52C301.998 158.013 302.188 158.551 302.28 159.11C302.351 159.798 302.381 160.489 302.37 161.18V193.92C302.383 194.589 302.343 195.258 302.25 195.92C302.143 196.456 301.954 196.972 301.69 197.45C301.527 197.748 301.304 198.009 301.036 198.217C300.767 198.425 300.459 198.576 300.13 198.66C299.154 198.929 298.142 199.05 297.13 199.02C296.273 199.042 295.418 198.941 294.59 198.72C294.04 198.581 293.521 198.34 293.06 198.01C292.677 197.697 292.398 197.275 292.26 196.8C292.098 196.367 292.001 195.912 291.97 195.45C291.97 195.07 291.97 194.51 291.97 193.77V174.04C290.97 175.26 289.55 177.2 287.66 179.85C285.77 182.5 284.37 184.4 283.47 185.54C283.326 185.775 283.169 186.002 283 186.22C282.576 186.65 282.086 187.011 281.55 187.29C280.793 187.737 279.929 187.968 279.05 187.96C278.188 187.985 277.337 187.77 276.59 187.34C275.996 187.038 275.464 186.627 275.02 186.13L274.55 185.49C273.76 184.49 272.21 182.41 269.89 179.2C267.57 175.99 266.31 174.28 266.11 174.04V193.92C266.12 194.588 266.09 195.256 266.02 195.92C265.936 196.462 265.745 196.982 265.46 197.45C265.289 197.748 265.06 198.008 264.787 198.216C264.514 198.424 264.202 198.575 263.87 198.66C262.894 198.929 261.882 199.05 260.87 199.02C259.884 199.051 258.899 198.929 257.95 198.66C257.623 198.572 257.316 198.419 257.049 198.212C256.781 198.004 256.557 197.745 256.39 197.45C256.105 196.971 255.915 196.441 255.83 195.89C255.759 195.186 255.729 194.478 255.74 193.77V161.06C255.731 160.392 255.761 159.724 255.83 159.06C255.919 158.519 256.109 158 256.39 157.53C256.563 157.234 256.792 156.975 257.065 156.767C257.337 156.559 257.649 156.408 257.98 156.32C258.957 156.055 259.968 155.937 260.98 155.97C261.908 155.952 262.832 156.08 263.72 156.35C264.281 156.491 264.799 156.765 265.23 157.15L265.58 157.5L278.98 175.08C285.647 166.233 290.11 160.393 292.37 157.56C293.023 156.473 294.61 155.93 297.13 155.93Z" fill="#115E49"/>
<path d="M320.84 199C318.96 199.035 317.096 198.647 315.386 197.864C313.675 197.082 312.163 195.925 310.96 194.48C308.331 191.428 306.934 187.506 307.04 183.48V173.15C307.028 172.462 307.058 171.774 307.13 171.09C307.222 170.554 307.401 170.037 307.66 169.56C307.818 169.254 308.038 168.986 308.307 168.772C308.576 168.559 308.887 168.404 309.22 168.32C310.197 168.051 311.208 167.929 312.22 167.96C313.077 167.939 313.932 168.04 314.76 168.26C315.311 168.395 315.831 168.636 316.29 168.97C316.676 169.28 316.955 169.703 317.09 170.18C317.247 170.615 317.345 171.069 317.38 171.53C317.38 171.91 317.38 172.47 317.38 173.21V183.54C317.337 184.232 317.438 184.925 317.678 185.576C317.917 186.226 318.289 186.82 318.77 187.32C319.822 188.202 321.153 188.681 322.526 188.67C323.899 188.659 325.223 188.159 326.26 187.26C326.744 186.772 327.123 186.191 327.372 185.551C327.622 184.911 327.737 184.226 327.71 183.54V173.1C327.7 172.432 327.73 171.764 327.8 171.1C327.886 170.563 328.065 170.045 328.33 169.57C328.492 169.271 328.715 169.009 328.983 168.801C329.252 168.593 329.561 168.443 329.89 168.36C330.867 168.091 331.878 167.969 332.89 168C333.886 167.971 334.88 168.092 335.84 168.36C336.173 168.444 336.484 168.599 336.753 168.812C337.022 169.026 337.242 169.294 337.4 169.6C337.662 170.087 337.841 170.614 337.93 171.16C338 171.824 338.03 172.492 338.02 173.16V194.04C338.031 194.707 338.001 195.375 337.93 196.04C337.844 196.571 337.653 197.081 337.37 197.54C337.016 198.127 336.444 198.55 335.78 198.72C334.804 198.992 333.793 199.114 332.78 199.08C331.804 199.106 330.83 198.985 329.89 198.72C329.263 198.574 328.716 198.195 328.36 197.66C328.125 197.298 327.952 196.899 327.85 196.48C327.792 196.069 327.765 195.654 327.77 195.24C327.671 195.385 327.561 195.522 327.44 195.65C327.3 195.81 327.01 196.11 326.56 196.54C326.112 196.965 325.626 197.35 325.11 197.69C324.484 198.074 323.812 198.38 323.11 198.6C322.38 198.855 321.613 198.99 320.84 199Z" fill="#115E49"/>
<path d="M354.24 199.65C350.262 199.652 346.369 198.502 343.03 196.34C342.674 196.131 342.382 195.828 342.185 195.465C341.988 195.103 341.893 194.693 341.91 194.28C341.91 193.14 342.65 191.52 344.15 189.44C344.364 189.111 344.663 188.845 345.014 188.669C345.366 188.493 345.758 188.414 346.15 188.44C347.434 188.525 348.673 188.95 349.74 189.67C351.206 190.63 352.892 191.201 354.64 191.33C357.04 191.33 358.24 190.86 358.24 189.91C358.24 189.52 357.87 189.18 357.12 188.91C356.202 188.594 355.254 188.376 354.29 188.26C353.028 188.061 351.79 187.726 350.6 187.26C349.316 186.778 348.081 186.175 346.91 185.46C345.671 184.636 344.69 183.478 344.08 182.12C343.292 180.432 342.909 178.583 342.96 176.72C342.96 170.507 347.227 167.4 355.76 167.4C358.744 167.441 361.683 168.123 364.38 169.4C365.75 170.03 366.44 170.89 366.44 171.99C366.31 173.143 365.882 174.242 365.2 175.18C364.3 176.6 363.39 177.3 362.49 177.3C361.791 177.239 361.111 177.038 360.49 176.71C359.001 175.975 357.37 175.572 355.71 175.53C353.39 175.53 352.23 175.97 352.23 176.83C352.252 177.167 352.373 177.49 352.578 177.758C352.782 178.027 353.061 178.229 353.38 178.34C354.294 178.753 355.271 179.01 356.27 179.1C357.54 179.265 358.794 179.533 360.02 179.9C361.31 180.274 362.564 180.759 363.77 181.35C365.006 181.995 366.015 183.004 366.66 184.24C367.472 185.779 367.868 187.502 367.81 189.24C367.87 191.088 367.475 192.921 366.66 194.58C365.947 195.965 364.807 197.083 363.41 197.77C362.067 198.444 360.636 198.929 359.16 199.21C357.538 199.514 355.89 199.661 354.24 199.65Z" fill="#115E49"/>
<path d="M388.87 168.14C390.737 168.108 392.588 168.493 394.287 169.268C395.986 170.043 397.49 171.188 398.69 172.62C401.333 175.664 402.736 179.59 402.62 183.62V194C402.63 194.668 402.6 195.336 402.53 196C402.439 196.536 402.26 197.053 402 197.53C401.835 197.828 401.61 198.089 401.34 198.297C401.07 198.505 400.76 198.656 400.43 198.74C399.453 199.006 398.442 199.124 397.43 199.09C396.445 199.124 395.46 199.006 394.51 198.74C393.848 198.559 393.284 198.124 392.94 197.53C392.659 197.048 392.47 196.52 392.38 195.97C392.309 195.262 392.279 194.551 392.29 193.84V183.54C392.33 182.851 392.231 182.162 391.999 181.513C391.767 180.863 391.407 180.267 390.94 179.76C390.481 179.311 389.937 178.96 389.338 178.728C388.74 178.496 388.101 178.388 387.46 178.41C386.131 178.393 384.837 178.838 383.8 179.67C382.839 180.351 382.182 181.381 381.97 182.54V193.98C381.98 194.648 381.95 195.316 381.88 195.98C381.789 196.516 381.61 197.033 381.35 197.51C381.185 197.806 380.962 198.067 380.694 198.275C380.426 198.483 380.118 198.634 379.79 198.72C378.813 198.984 377.802 199.102 376.79 199.07C375.778 199.107 374.766 198.989 373.79 198.72C373.457 198.633 373.145 198.479 372.874 198.265C372.604 198.052 372.381 197.784 372.22 197.48C371.966 197 371.787 196.484 371.69 195.95C371.617 195.262 371.587 194.571 371.6 193.88V158.64C371.59 157.972 371.62 157.304 371.69 156.64C371.779 156.1 371.958 155.58 372.22 155.1C372.387 154.803 372.612 154.543 372.882 154.335C373.152 154.127 373.461 153.976 373.79 153.89C374.768 153.629 375.778 153.511 376.79 153.54C377.802 153.509 378.812 153.627 379.79 153.89C380.121 153.979 380.43 154.135 380.698 154.348C380.967 154.562 381.188 154.828 381.35 155.13C381.608 155.618 381.787 156.145 381.88 156.69C381.949 157.354 381.979 158.022 381.97 158.69V171.69C382.768 170.606 383.806 169.721 385.003 169.105C386.2 168.489 387.524 168.159 388.87 168.14Z" fill="#115E49"/>
<path d="M431.06 171.68C431.065 173.34 430.678 174.977 429.93 176.46C429.677 177.115 429.233 177.679 428.655 178.079C428.077 178.478 427.392 178.694 426.69 178.7C425.997 178.693 425.314 178.532 424.69 178.23C424.07 177.917 423.384 177.756 422.69 177.76C421.405 177.702 420.141 178.098 419.12 178.88C418.692 179.19 418.343 179.598 418.101 180.069C417.86 180.539 417.733 181.06 417.73 181.59V193.98C417.74 194.647 417.71 195.315 417.64 195.98C417.551 196.52 417.361 197.039 417.08 197.51C416.909 197.807 416.68 198.068 416.407 198.275C416.134 198.483 415.822 198.634 415.49 198.72C414.513 198.984 413.502 199.102 412.49 199.07C411.644 199.089 410.799 198.992 409.98 198.78C409.427 198.649 408.907 198.407 408.45 198.07C408.082 197.749 407.815 197.328 407.68 196.86C407.528 196.423 407.43 195.97 407.39 195.51C407.39 195.13 407.39 194.57 407.39 193.82V173.15C407.38 172.482 407.41 171.814 407.48 171.15C407.566 170.613 407.745 170.095 408.01 169.62C408.172 169.321 408.395 169.059 408.663 168.851C408.932 168.643 409.24 168.493 409.57 168.41C410.546 168.141 411.558 168.019 412.57 168.05C413.546 168.023 414.52 168.144 415.46 168.41C416.07 168.556 416.611 168.909 416.99 169.41C417.217 169.715 417.399 170.052 417.53 170.41C417.606 170.72 417.643 171.04 417.64 171.36C417.904 171.007 418.191 170.673 418.5 170.36C419.224 169.727 420.027 169.193 420.89 168.77C422.024 168.124 423.305 167.78 424.61 167.77C425.219 167.773 425.827 167.82 426.43 167.91C427.132 168.027 427.824 168.198 428.5 168.42C429.223 168.636 429.869 169.056 430.36 169.63C430.833 170.206 431.082 170.934 431.06 171.68Z" fill="#115E49"/>
<path d="M447.81 167.34C452.061 167.311 456.152 168.957 459.2 171.92C461.862 174.523 463.551 177.96 463.986 181.658C464.421 185.355 463.575 189.091 461.59 192.24C460.069 194.626 457.939 196.562 455.42 197.85C453.108 199.025 450.553 199.641 447.96 199.65C445.304 199.645 442.69 198.986 440.35 197.73C437.846 196.394 435.723 194.442 434.18 192.06C432.51 189.558 431.638 186.608 431.68 183.6C431.624 181.408 432.042 179.23 432.905 177.214C433.768 175.199 435.055 173.393 436.68 171.92C439.655 169.008 443.646 167.365 447.81 167.34ZM443.98 187.85C445.059 188.746 446.408 189.254 447.81 189.29C449.237 189.245 450.608 188.728 451.71 187.82C452.312 187.272 452.794 186.606 453.128 185.864C453.462 185.121 453.639 184.318 453.65 183.504C453.66 182.69 453.503 181.883 453.188 181.132C452.873 180.381 452.408 179.703 451.82 179.14C450.663 178.221 449.228 177.723 447.75 177.73C446.34 177.755 444.984 178.275 443.92 179.2C443.3 179.726 442.812 180.39 442.495 181.139C442.177 181.887 442.038 182.699 442.09 183.51C442.038 184.327 442.183 185.145 442.512 185.895C442.84 186.645 443.344 187.305 443.98 187.82V187.85Z" fill="#115E49"/>
<path d="M483.21 167.34C487.453 167.306 491.54 168.94 494.59 171.89C497.254 174.499 498.943 177.944 499.372 181.648C499.802 185.352 498.947 189.091 496.95 192.24C495.429 194.626 493.299 196.563 490.78 197.85C488.468 199.024 485.913 199.641 483.32 199.65C480.664 199.645 478.05 198.986 475.71 197.73C473.206 196.394 471.083 194.443 469.54 192.06C467.867 189.559 466.991 186.609 467.03 183.6C466.975 181.409 467.393 179.231 468.256 177.215C469.119 175.199 470.406 173.393 472.03 171.92C475.015 168.991 479.028 167.347 483.21 167.34ZM479.38 187.85C480.459 188.747 481.808 189.254 483.21 189.29C484.634 189.246 486.003 188.729 487.1 187.82C487.704 187.274 488.188 186.609 488.524 185.866C488.859 185.124 489.038 184.321 489.049 183.506C489.061 182.692 488.904 181.884 488.589 181.133C488.274 180.382 487.808 179.703 487.22 179.14C486.063 178.221 484.628 177.723 483.15 177.73C481.74 177.755 480.384 178.276 479.32 179.2C478.7 179.727 478.212 180.39 477.895 181.139C477.577 181.887 477.438 182.699 477.49 183.51C477.438 184.327 477.583 185.145 477.912 185.895C478.24 186.645 478.744 187.305 479.38 187.82V187.85Z" fill="#115E49"/>
<path d="M537.73 167.96C539.234 167.938 540.724 168.253 542.091 168.881C543.458 169.509 544.667 170.435 545.63 171.59C547.757 174.01 548.82 178.01 548.82 183.59V193.91C548.83 194.578 548.8 195.246 548.73 195.91C548.637 196.455 548.458 196.982 548.2 197.47C548.039 197.775 547.816 198.042 547.546 198.256C547.275 198.469 546.963 198.624 546.63 198.71C545.653 198.976 544.642 199.094 543.63 199.06C542.632 199.095 541.636 198.967 540.68 198.68C540.346 198.585 540.035 198.424 539.766 198.205C539.496 197.987 539.273 197.717 539.11 197.41C538.852 196.922 538.673 196.395 538.58 195.85C538.51 195.186 538.48 194.518 538.49 193.85V183.54C538.49 180.12 537.27 178.41 534.83 178.41C534.283 178.347 533.73 178.44 533.234 178.679C532.738 178.918 532.32 179.293 532.03 179.76C531.478 180.962 531.224 182.28 531.29 183.6V193.92C531.3 194.611 531.273 195.302 531.21 195.99C531.11 196.528 530.921 197.045 530.65 197.52C530.48 197.824 530.251 198.09 529.976 198.303C529.701 198.516 529.386 198.672 529.05 198.76C528.073 199.026 527.062 199.144 526.05 199.11C525.036 199.15 524.022 199.021 523.05 198.73C522.718 198.634 522.41 198.471 522.142 198.253C521.874 198.035 521.652 197.765 521.49 197.46C521.232 196.972 521.053 196.445 520.96 195.9C520.89 195.236 520.86 194.568 520.87 193.9V183.54C520.87 180.12 519.65 178.41 517.21 178.41C514.77 178.41 513.59 180.12 513.67 183.54V193.98C513.68 194.648 513.65 195.316 513.58 195.98C513.496 196.522 513.305 197.042 513.02 197.51C512.849 197.808 512.62 198.068 512.347 198.276C512.074 198.484 511.762 198.635 511.43 198.72C510.453 198.985 509.442 199.103 508.43 199.07C507.418 199.106 506.406 198.988 505.43 198.72C505.097 198.636 504.786 198.481 504.517 198.268C504.248 198.054 504.028 197.786 503.87 197.48C503.611 197.003 503.432 196.486 503.34 195.95C503.267 195.263 503.237 194.572 503.25 193.88V173.15C503.24 172.483 503.27 171.815 503.34 171.15C503.429 170.61 503.619 170.091 503.9 169.62C504.074 169.299 504.315 169.019 504.607 168.798C504.898 168.577 505.233 168.421 505.59 168.34C506.566 168.072 507.578 167.95 508.59 167.98C510.52 167.98 511.81 168.34 512.48 169.04C513.198 169.896 513.556 170.996 513.48 172.11L513.77 171.67C514.027 171.321 514.304 170.987 514.6 170.67C515.009 170.197 515.461 169.762 515.95 169.37C516.518 168.949 517.145 168.612 517.81 168.37C518.554 168.084 519.343 167.935 520.14 167.93C521.973 167.845 523.793 168.283 525.387 169.193C526.98 170.103 528.282 171.448 529.14 173.07C529.624 172.421 530.145 171.8 530.7 171.21C531.572 170.367 532.559 169.65 533.63 169.08C534.875 168.355 536.289 167.969 537.73 167.96Z" fill="#115E49"/>
<path d="M305.34 666.69C299.543 666.687 293.87 665.013 289 661.87C288.484 661.563 288.06 661.122 287.773 660.594C287.486 660.066 287.347 659.47 287.37 658.87C287.37 657.21 288.46 654.877 290.64 651.87C290.948 651.372 291.385 650.967 291.904 650.698C292.423 650.428 293.006 650.305 293.59 650.34C295.468 650.466 297.28 651.087 298.84 652.14C301.64 653.747 304.017 654.55 305.97 654.55C309.47 654.55 311.22 653.863 311.22 652.49C311.22 651.92 310.67 651.43 309.59 651.03C308.252 650.553 306.868 650.218 305.46 650.03C303.62 649.757 301.815 649.28 300.08 648.61C298.207 647.919 296.407 647.042 294.71 645.99C292.9 644.795 291.468 643.109 290.58 641.13C289.437 638.667 288.879 635.974 288.95 633.26C288.95 624.2 295.17 619.67 307.61 619.67C311.955 619.735 316.235 620.734 320.16 622.6C322.16 623.51 323.16 624.78 323.16 626.38C322.971 628.056 322.351 629.655 321.36 631.02C320.027 633.087 318.693 634.12 317.36 634.12C316.34 634.027 315.348 633.735 314.44 633.26C312.261 632.179 309.871 631.592 307.44 631.54C304.06 631.54 302.37 632.17 302.37 633.43C302.399 633.921 302.573 634.392 302.87 634.784C303.168 635.176 303.575 635.47 304.04 635.63C305.377 636.228 306.802 636.603 308.26 636.74C312.051 637.241 315.737 638.345 319.18 640.01C320.984 640.95 322.454 642.424 323.39 644.23C324.572 646.463 325.151 648.965 325.07 651.49C325.16 654.185 324.583 656.861 323.39 659.28C322.355 661.297 320.696 662.924 318.66 663.92C316.701 664.9 314.619 665.609 312.47 666.03C310.119 666.471 307.732 666.692 305.34 666.69Z" fill="#115E49"/>
<path d="M374.4 637.45C374.4 641.23 373.52 643.97 371.78 645.66C371.028 646.448 370.128 647.078 369.13 647.514C368.133 647.95 367.058 648.183 365.97 648.2H345.59C345.59 649.8 346.537 651.134 348.43 652.2C350.281 653.278 352.388 653.841 354.53 653.83C356 653.838 357.469 653.724 358.92 653.49C359.938 653.344 360.941 653.114 361.92 652.8L362.87 652.46C363.938 651.908 365.11 651.585 366.31 651.51C368.137 651.51 369.713 652.8 371.04 655.38C371.698 656.616 372.077 657.982 372.15 659.38C372.15 664.48 366.047 667.03 353.84 667.03C349.978 667.095 346.146 666.348 342.59 664.84C339.579 663.6 336.93 661.618 334.89 659.08C333.115 656.817 331.732 654.271 330.8 651.55C329.917 648.948 329.467 646.218 329.47 643.47C329.47 636.237 331.803 630.46 336.47 626.14C341.137 621.82 346.97 619.657 353.97 619.65C356.596 619.619 359.209 620.01 361.71 620.81C363.822 621.457 365.802 622.473 367.56 623.81C369.08 625.011 370.4 626.445 371.47 628.06C372.465 629.531 373.233 631.142 373.75 632.84C374.185 634.338 374.403 635.89 374.4 637.45ZM356.25 640.34C358.43 640.34 359.52 639.43 359.52 637.59C359.539 636.979 359.413 636.373 359.152 635.82C358.891 635.267 358.503 634.784 358.02 634.41C356.748 633.527 355.215 633.1 353.67 633.2C351.624 633.285 349.675 634.093 348.17 635.48C346.33 637 345.42 638.62 345.42 640.34H356.25Z" fill="#115E49"/>
<path d="M423.68 637.45C423.68 641.23 422.803 643.967 421.05 645.66C420.301 646.448 419.402 647.078 418.406 647.514C417.41 647.95 416.337 648.183 415.25 648.2H394.87C394.87 649.8 395.81 651.15 397.71 652.2C399.561 653.278 401.668 653.841 403.81 653.83C405.28 653.838 406.748 653.724 408.2 653.49C409.217 653.343 410.221 653.112 411.2 652.8L412.14 652.46C413.209 651.909 414.38 651.586 415.58 651.51C417.42 651.51 418.99 652.8 420.31 655.38C420.975 656.614 421.358 657.98 421.43 659.38C421.43 664.48 415.323 667.03 403.11 667.03C399.228 667.101 395.375 666.355 391.8 664.84C388.793 663.597 386.148 661.616 384.11 659.08C382.335 656.817 380.952 654.271 380.02 651.55C379.137 648.948 378.687 646.218 378.69 643.47C378.69 636.237 381.023 630.46 385.69 626.14C390.357 621.82 396.19 619.657 403.19 619.65C405.816 619.619 408.429 620.01 410.93 620.81C414.941 621.997 418.4 624.57 420.69 628.07C421.685 629.541 422.453 631.152 422.97 632.85C423.424 634.342 423.663 635.891 423.68 637.45ZM405.53 640.34C407.71 640.34 408.8 639.43 408.8 637.59C408.819 636.978 408.692 636.371 408.43 635.817C408.167 635.264 407.776 634.782 407.29 634.41C406.022 633.527 404.492 633.1 402.95 633.2C400.904 633.285 398.955 634.093 397.45 635.48C395.61 637 394.7 638.62 394.7 640.34H405.53Z" fill="#115E49"/>
<path d="M466.33 599.441C467.781 599.399 469.229 599.571 470.63 599.951C471.114 600.079 471.567 600.305 471.959 600.617C472.352 600.928 472.675 601.318 472.91 601.761C473.291 602.474 473.554 603.244 473.69 604.041C473.79 605.037 473.834 606.039 473.82 607.041V658.341C473.834 659.342 473.791 660.344 473.69 661.341C473.556 662.131 473.278 662.89 472.87 663.581C472.37 664.444 471.551 665.076 470.59 665.341C469.161 665.732 467.681 665.908 466.2 665.861C461.84 665.861 459.44 664.451 458.98 661.641C456.573 664.401 453.217 665.777 448.91 665.771C443.763 665.771 439.063 663.521 434.81 659.021C430.664 654.754 428.377 649.019 428.45 643.071C428.435 637.237 430.737 631.637 434.85 627.5C439.117 622.974 443.803 620.711 448.91 620.711C453.163 620.711 456.46 622.144 458.8 625.011V606.921C458.786 605.919 458.83 604.917 458.93 603.921C459.062 603.138 459.325 602.384 459.71 601.691C459.95 601.256 460.276 600.875 460.668 600.571C461.06 600.266 461.51 600.045 461.99 599.921C463.406 599.552 464.868 599.391 466.33 599.441ZM445.69 648.441C446.382 649.184 447.221 649.774 448.155 650.174C449.088 650.573 450.095 650.773 451.11 650.761C452.107 650.782 453.097 650.585 454.011 650.184C454.925 649.784 455.74 649.189 456.4 648.441C457.738 647.054 458.493 645.207 458.51 643.281C458.486 641.376 457.776 639.544 456.51 638.121C455.845 637.327 455.008 636.697 454.061 636.279C453.114 635.861 452.084 635.667 451.05 635.711C450.014 635.671 448.982 635.863 448.03 636.271C447.077 636.679 446.226 637.294 445.54 638.071C444.229 639.491 443.495 641.348 443.48 643.281C443.486 644.247 443.684 645.204 444.064 646.093C444.443 646.982 444.996 647.787 445.69 648.461V648.441Z" fill="#115E49"/>
<path d="M497.38 666.69C491.583 666.687 485.91 665.013 481.04 661.87C480.522 661.563 480.097 661.123 479.808 660.595C479.52 660.067 479.379 659.471 479.4 658.87C479.4 657.21 480.49 654.877 482.67 651.87C482.976 651.378 483.408 650.976 483.922 650.707C484.435 650.438 485.011 650.311 485.59 650.34C487.465 650.466 489.273 651.087 490.83 652.14C493.637 653.747 496.017 654.55 497.97 654.55C501.47 654.55 503.22 653.863 503.22 652.49C503.22 651.92 502.67 651.43 501.58 651.03C500.242 650.552 498.858 650.217 497.45 650.03C495.613 649.755 493.812 649.279 492.08 648.61C490.204 647.917 488.402 647.04 486.7 645.99C484.893 644.794 483.464 643.108 482.58 641.13C481.434 638.668 480.872 635.975 480.94 633.26C480.94 624.2 487.16 619.67 499.6 619.67C503.948 619.735 508.232 620.734 512.16 622.6C514.16 623.51 515.16 624.78 515.16 626.38C514.971 628.058 514.347 629.657 513.35 631.02C512.03 633.09 510.72 634.12 509.4 634.12C508.38 634.028 507.387 633.736 506.48 633.26C504.301 632.179 501.911 631.592 499.48 631.54C496.1 631.54 494.4 632.17 494.4 633.43C494.43 633.922 494.605 634.394 494.905 634.786C495.204 635.178 495.613 635.472 496.08 635.63C497.413 636.228 498.835 636.603 500.29 636.74C502.142 636.979 503.971 637.367 505.76 637.9C507.635 638.451 509.461 639.157 511.22 640.01C513.02 640.956 514.488 642.428 515.43 644.23C516.612 646.463 517.191 648.965 517.11 651.49C517.2 654.185 516.623 656.861 515.43 659.28C514.393 661.294 512.734 662.921 510.7 663.92C508.741 664.898 506.659 665.608 504.51 666.03C502.159 666.471 499.772 666.692 497.38 666.69Z" fill="#115E49"/>
<g style="mix-blend-mode:multiply">
<path d="M399.85 569.46C441.835 569.46 475.87 560.796 475.87 550.11C475.87 539.423 441.835 530.76 399.85 530.76C357.865 530.76 323.83 539.423 323.83 550.11C323.83 560.796 357.865 569.46 399.85 569.46Z" fill="#A7A9AC"/>
</g>
<path d="M454.99 467.17C455.09 467.53 455.19 467.91 455.29 468.29L455.35 468.53C455.45 468.89 455.55 469.28 455.65 469.67V469.79C455.74 470.17 455.84 470.55 455.93 470.93V471.1L456.22 472.28V472.49C456.32 472.91 456.42 473.33 456.51 473.75L456.78 475.02V475.19C456.87 475.61 456.96 476.04 457.04 476.47V476.65C457.22 477.557 457.39 478.457 457.55 479.35V479.54C457.61 479.9 457.68 480.29 457.74 480.67L457.89 481.58C458.01 482.33 458.13 483.09 458.24 483.86L458.31 484.34L458.46 485.46V485.56L458.64 486.99V487.05C458.7 487.53 458.75 488.05 458.8 488.52V488.68C458.8 489.12 458.89 489.57 458.93 490.02V490.21C458.93 490.7 459.01 491.21 459.05 491.72V491.77C459.05 492.15 459.05 492.53 459.13 492.92V493.92C459.18 494.76 459.22 495.64 459.24 496.55V496.62V497.85V498.28C459.24 499.28 459.24 500.38 459.24 501.41V501.8C459.24 502.22 459.24 502.65 459.24 503.07V503.14V503.77C459.24 504.6 459.14 505.45 459.08 506.31V506.76C459.08 507.18 459.01 507.59 458.97 508V508.1C458.97 508.32 458.97 508.54 458.9 508.76C458.833 509.427 458.753 510.094 458.66 510.76C458.66 510.76 458.58 511.31 458.57 511.33C458.51 511.804 458.44 512.274 458.36 512.74C458.17 513.86 457.96 515 457.71 516.12C457.47 517.22 457.21 518.29 456.93 519.32C456.93 519.32 456.93 519.32 456.93 519.38C456.79 519.88 456.65 520.38 456.49 520.89V520.95C456.17 521.95 455.82 523.03 455.49 524.04L455.37 524.36C455.21 524.79 455.05 525.19 454.88 525.6L454.83 525.73C454.76 525.91 454.69 526.08 454.61 526.26C454.35 526.88 454.07 527.51 453.79 528.12L453.54 528.64V528.7C453.33 529.12 453.13 529.53 452.91 529.95C452.36 531 451.76 532.06 451.13 533.08C450.234 534.523 449.259 535.915 448.21 537.25L448.09 537.4L447.84 537.71C447.4 538.26 446.94 538.8 446.47 539.32C446.23 539.59 445.99 539.85 445.74 540.11C445.49 540.37 445.07 540.81 444.74 541.11L444.68 541.17C443.86 541.99 442.99 542.78 442.1 543.53C441.63 543.93 441.17 544.3 440.7 544.67H440.65C439.71 545.39 438.73 546.1 437.72 546.76H437.64L436.34 547.58L436.01 547.78L435.34 548.17C434.54 548.63 433.66 549.1 432.76 549.55L432.64 549.61L431.13 550.33L430.94 550.41L430.02 550.82C422.02 554.24 412.35 555.99 401.33 556.03H399.7C379.03 555.79 363.95 549.91 354.88 538.56C339.57 519.41 345.88 490.18 349.21 474.48C349.71 472.16 350.14 470.15 350.42 468.55C352.68 455.81 355.23 428.25 356.12 407.1L356.18 405.51C356.18 405.51 356.24 403.87 356.24 403.86C356.24 402.947 356.27 402.047 356.33 401.16L354.63 400.9L352.63 400.57C351.31 400.35 350 400.11 348.72 399.87C345.41 399.23 342.2 398.53 339.17 397.76C336.63 397.12 334.17 396.43 331.85 395.7L330.07 395.13C302.67 386.05 297.23 372.41 297.51 362.57C297.51 361.98 297.56 361.37 297.63 360.7C297.725 359.746 297.872 358.798 298.07 357.86C298.328 356.611 298.662 355.379 299.07 354.17C299.883 351.779 301.086 349.539 302.63 347.54C304.797 344.752 307.521 342.446 310.63 340.77C311.525 340.283 312.447 339.846 313.39 339.46C313.87 339.26 314.39 339.08 314.84 338.91C315.29 338.74 315.84 338.58 316.31 338.44L316.52 338.35L316.64 338.3L316.82 338.21L316.97 338.13L317.21 338L317.38 337.89L317.66 337.72L317.88 337.58L318.18 337.38L318.41 337.22L318.76 336.98L319.01 336.8L319.38 336.53L319.66 336.31C319.793 336.224 319.923 336.124 320.05 336.01L320.35 335.78L320.84 335.39L321.06 335.21L321.53 334.82L321.82 334.58L322.62 333.9L323.44 333.19L324.27 332.45C324.88 331.91 325.48 331.35 326.09 330.78C332.33 324.97 339.91 317 347.23 309.3C348.95 307.49 350.65 305.7 352.32 303.96L353.73 302.49L355.17 300.99L356.42 299.69L357.8 298.27L359.13 296.91L360.32 295.71L361.47 294.56L362.57 293.47L363.72 292.35L363.99 292.08L365.06 291.08L365.16 290.99L366.08 290.12L366.38 289.84L367.38 288.9L368.38 288.03L368.46 287.96L369.31 287.21L369.59 286.97L370.25 286.42L370.59 286.34L371.45 285.64L371.54 285.58C372.067 285.16 372.597 284.75 373.13 284.35L373.6 283.99L374.79 283.1L375.28 282.74L376.49 281.87L376.9 281.57L378.33 280.57L378.49 280.46C391.58 271.46 403.49 267.07 414.96 267.07C427.16 267.07 439.22 272.01 452.96 282.61C465.96 292.69 469.14 309 472.19 324.78C472.57 326.78 472.97 328.78 473.37 330.78L473.49 331.37L473.83 332.95L474 333.77L474.17 334.53L474.35 335.31C474.35 335.31 474.64 336.59 474.7 336.84L475.08 338.37C475.17 338.73 475.26 339.09 475.36 339.46L475.53 340.11L475.86 341.32L476.03 341.89C476.12 342.19 476.2 342.49 476.29 342.79L476.49 343.41C476.57 343.69 476.66 343.97 476.75 344.25C476.84 344.53 476.88 344.66 476.95 344.87C477.02 345.08 477.14 345.42 477.23 345.69C477.32 345.96 477.37 346.1 477.44 346.29C477.51 346.48 477.63 346.82 477.73 347.08V347.13C477.89 347.57 478.06 348.01 478.23 348.45L478.28 348.57C478.44 348.97 478.6 349.37 478.77 349.77L478.86 349.98C479.02 350.35 479.19 350.72 479.35 351.08L479.48 351.37C479.64 351.71 479.8 352.05 479.97 352.37L480.14 352.72L480.62 353.64L480.83 354.03C480.99 354.34 481.16 354.62 481.32 354.91L481.57 355.34C481.73 355.61 481.89 355.88 482.06 356.15L482.34 356.6L482.83 357.36L483.1 357.75L483.17 357.84C483.33 358.07 483.49 358.31 483.66 358.54L483.96 358.95L484.03 359.04L484.51 359.67L484.59 359.77L484.88 360.13L484.96 360.22C485.093 360.394 485.233 360.564 485.38 360.73L485.57 360.95L485.91 361.34L485.98 361.42L486.29 361.77L486.55 362.05L486.9 362.41L487.35 362.87L487.57 363.09L487.98 363.48L488.43 363.91L488.62 364.09L489.24 364.62L489.74 365.06C490.16 365.41 490.54 365.71 490.91 366C491.71 366.6 492.51 367.26 493.29 367.95C496.754 370.995 499.714 374.569 502.06 378.54C502.29 378.93 502.51 379.32 502.72 379.7C503.558 381.234 504.303 382.817 504.95 384.44C505.11 384.84 505.26 385.24 505.4 385.64C506.391 388.377 507.062 391.219 507.4 394.11C507.49 394.91 507.55 395.72 507.58 396.51C507.58 396.91 507.58 397.31 507.58 397.7C507.58 398.5 507.58 399.3 507.49 400.08C507.4 400.86 507.34 401.65 507.21 402.41C507.08 403.17 506.92 403.95 506.73 404.69C506.538 405.445 506.307 406.189 506.04 406.92C505.646 408.032 505.161 409.109 504.59 410.14C503.03 412.959 500.771 415.328 498.03 417.02C497.323 417.457 496.588 417.848 495.83 418.19C495.46 418.35 495.07 418.52 494.67 418.66C493.462 419.105 492.217 419.439 490.95 419.66C490.53 419.73 490.09 419.79 489.65 419.84C488.76 419.945 487.866 419.998 486.97 420H486.81C486.41 420 486.01 420 485.6 420C484.167 419.933 482.74 419.766 481.33 419.5L479.87 419.2C478.334 418.843 476.818 418.403 475.33 417.88C471.02 416.37 467.22 415.09 463.69 413.96C461.69 413.31 459.69 412.7 457.83 412.14L455.38 411.43L453.73 410.96C451.57 410.36 449.5 409.81 447.48 409.32V410.32C447.48 412.32 447.48 414.32 447.48 416.32C447.77 435.49 449.61 450.68 452.8 460.24C452.91 460.56 453.02 460.88 453.12 461.24L453.19 461.42C453.28 461.73 453.39 462.06 453.49 462.42L453.55 462.61C453.65 462.91 453.75 463.25 453.85 463.61V463.67C453.96 464.02 454.06 464.37 454.17 464.73L454.23 464.94C454.33 465.29 454.43 465.64 454.54 466V466.14L454.84 467.21" fill="#231F20"/>
<path d="M442.24 384.01C442.24 384.01 438.29 435.95 447.03 462.11C455.77 488.27 466.29 550.85 399.85 550.11C333.41 549.37 353.28 488.34 356.59 469.84C359.9 451.34 363.59 404.11 362.52 385.31L442.24 384.01Z" fill="#E9BFA2"/>
<path d="M442.24 384.01L362.49 385.34C362.81 390.82 362.72 398.72 362.34 407.61C374.34 409.14 402.7 412.43 410.61 410.76C418.96 408.99 431.79 409 441.35 411.76C441.32 396.19 442.24 384.01 442.24 384.01Z" fill="#D8A988"/>
<g style="mix-blend-mode:multiply">
<path d="M447.03 462.11C438.29 435.95 442.24 384.01 442.24 384.01L407.24 384.58L406.69 389.19C406.69 389.19 407.29 454.12 409.77 467.05C412.03 478.85 428.2 515.52 398.47 550.05H399.9C466.29 550.85 455.77 488.26 447.03 462.11Z" fill="#D8A988"/>
</g>
<g style="mix-blend-mode:multiply">
<path d="M447.03 462.11C438.29 435.95 442.24 384.01 442.24 384.01L424.38 384.3L424.61 385.48C424.61 385.48 422.76 444.29 432.23 463.69C440.92 481.5 448.4 504.87 428.48 545.03C462.59 529.71 454.21 483.6 447.03 462.11Z" fill="#D8A988"/>
</g>
<path d="M305.01 356.339C306.91 350.739 311.81 346.339 318.13 344.549C328.28 341.619 361.74 301.109 375.31 290.479C405.78 266.609 425.78 269.379 449.19 287.479C472.6 305.579 459.41 349.669 487.19 370.899C508.78 387.389 506.19 422.099 477.38 412.029C438.51 398.439 428.8 399.129 386.07 397.829C347.38 396.689 294.98 385.939 305.01 356.339Z" fill="#F1594B"/>
<path d="M386.08 397.859C428.81 399.159 438.52 398.469 477.39 412.059C506.19 422.129 508.79 387.419 487.2 370.929C479.57 365.099 475.03 357.549 471.98 349.279C446.98 407.359 304.98 356.359 304.98 356.359C294.98 385.939 347.38 396.689 386.08 397.859Z" fill="#951B1E"/>
<path d="M330.39 335.5C325.19 340.34 320.83 343.79 318.13 344.57C311.81 346.39 306.91 350.76 305.01 356.36C295.01 385.94 347.38 396.69 386.08 397.86C428.81 399.16 438.52 398.47 477.39 412.06C506.19 422.13 508.79 387.42 487.2 370.93C471.2 358.72 468.79 338.93 465.2 320.93C414.75 369.27 330.39 335.5 330.39 335.5Z" fill="#D91F26"/>
<path d="M453.073 370.065C453.953 360.995 444.154 352.623 431.187 351.365C418.219 350.107 406.994 356.441 406.114 365.511C405.234 374.581 415.033 382.953 428.001 384.211C440.968 385.469 452.194 379.136 453.073 370.065Z" fill="#F6FAFE"/>
<path d="M403.083 342.566C404.011 332.99 392.416 324.03 377.184 322.553C361.951 321.075 348.85 327.64 347.921 337.216C346.993 346.792 358.588 355.752 373.82 357.23C389.053 358.707 402.154 352.142 403.083 342.566Z" fill="#F6FAFE"/>
<path d="M370.31 312.029C385.59 313.509 398.64 306.939 399.59 297.339C400.18 291.219 395.65 285.339 388.32 281.529C383.792 284.215 379.448 287.202 375.32 290.469C370.83 293.989 364.16 300.779 356.88 308.399C361.116 310.368 365.659 311.596 370.31 312.029Z" fill="#F6FAFE"/>
<path opacity="0.19" d="M330.39 335.5C325.19 340.34 320.83 343.79 318.13 344.57C311.81 346.39 306.91 350.76 305.01 356.36C295.01 385.94 347.38 396.69 386.08 397.86C428.81 399.16 438.52 398.47 477.39 412.06C506.19 422.13 508.79 387.42 487.2 370.93C471.2 358.72 468.79 338.93 465.2 320.93C414.75 369.27 330.39 335.5 330.39 335.5Z" fill="#D91F26"/>
<path opacity="0.32" d="M386.08 397.859C428.81 399.159 438.52 398.469 477.39 412.059C506.19 422.129 508.79 387.419 487.2 370.929C479.57 365.099 475.03 357.549 471.98 349.279C446.98 407.359 304.98 356.359 304.98 356.359C294.98 385.939 347.38 396.689 386.08 397.859Z" fill="#951B1E"/>
<path d="M454.317 340.969C459.69 339.388 462.156 331.69 459.827 323.774C457.497 315.859 451.253 310.724 445.881 312.305C440.509 313.886 438.042 321.585 440.372 329.5C442.701 337.416 448.945 342.55 454.317 340.969Z" fill="#F6FAFE"/>
<path d="M438.936 313.258C439.208 310.449 436.831 307.92 433.626 307.609C430.421 307.298 427.602 309.324 427.33 312.133C427.058 314.942 429.435 317.471 432.639 317.782C435.844 318.092 438.663 316.067 438.936 313.258Z" fill="#F6FAFE"/>
</g>
<defs>
<clipPath id="clip0_4906_637">
<rect width="619.18" height="838.58" fill="white"/>
</clipPath>
</defs>
</svg>
