<svg width="688" height="720" viewBox="0 0 688 720" fill="none" xmlns="http://www.w3.org/2000/svg">
<g clip-path="url(#clip0_6325_548)">
<path d="M15.0019 719.799C13.0117 719.8 11.0414 719.404 9.20569 718.635C7.36998 717.866 5.70561 716.74 4.30955 715.321C2.91349 713.903 1.81365 712.221 1.07409 710.373C0.334543 708.526 -0.0299227 706.549 0.00192029 704.559V701.609C0.00192029 699.519 0.721923 680.499 14.8319 661.609C27.3519 644.809 53.2119 624.779 105.292 624.779H115.442C83.8019 609.639 58.2119 591.059 39.3119 569.489C13.2319 539.709 0.00192029 504.489 0.00192029 464.919C0.00192029 425.979 8.65191 392.529 25.7119 365.509C40.0419 342.819 60.2219 324.699 85.7119 311.649C87.2419 310.869 88.8219 310.089 90.5419 309.279L91.7719 308.709L92.2719 308.479C93.3219 307.989 94.3919 307.479 95.4719 307.029L97.2019 306.289L97.6319 306.109L100.482 304.909L102.882 303.909L105.562 302.909C106.432 302.579 107.312 302.259 108.202 301.909L110.692 301.039C111.642 300.709 112.602 300.379 113.572 300.039C114.272 299.799 114.992 299.579 115.712 299.349H115.832C116.892 299.019 117.952 298.679 119.022 298.349L120.872 297.809C122.082 297.469 123.292 297.109 124.522 296.809L125.252 296.619C129.762 295.409 134.422 294.309 139.162 293.339C137.235 291.259 135.382 289.076 133.602 286.789C109.852 256.259 100.602 206.609 108.852 153.999C115.182 113.639 132.292 78.8293 158.322 53.3293C192.512 19.8493 241.452 1.95936 303.792 0.169361C307.542 0.0693615 311.302 0.0093578 314.972 0.0093578C333.093 -0.0763408 351.188 1.41259 369.052 4.45935H369.102C371.102 4.80935 373.242 5.21935 375.572 5.68935L377.082 6.00936C378.789 6.36936 380.499 6.74603 382.212 7.13936L383.622 7.46936C387.852 8.46936 392.052 9.60935 396.092 10.8293L397.472 11.2494C399.052 11.7427 400.629 12.2494 402.202 12.7694L403.702 13.2694C405.622 13.9294 407.382 14.5594 409.072 15.1894L409.532 15.3594C411.392 16.0594 413.292 16.8094 415.312 17.6494C415.602 17.7594 416.522 18.1594 416.522 18.1594C418.015 18.7794 419.485 19.4193 420.932 20.0793L422.492 20.7894C423.952 21.4694 425.422 22.1694 426.872 22.8894L427.932 23.4094C429.692 24.2994 431.472 25.2294 433.202 26.1694L434.202 26.7394C435.582 27.5094 436.962 28.2994 438.322 29.0994L439.832 29.9994C441.102 30.7794 442.342 31.5494 443.572 32.3394L443.952 32.5894L444.882 33.1794C446.592 34.2994 448.162 35.3694 449.662 36.4294L450.352 36.9294C451.632 37.8394 452.972 38.8294 454.302 39.8394L455.512 40.7794L455.722 40.9394C456.832 41.7994 457.912 42.6693 458.992 43.5494L459.372 43.8694L460.372 44.6594C462.012 46.0394 463.372 47.2294 464.682 48.3994C498.102 78.5794 518.732 122.999 526.022 180.399C535.342 253.879 527.522 297.779 517.652 323.119C526.151 324.618 534.542 326.672 542.772 329.269C596.352 346.129 635.772 375.419 660.052 416.269C678.392 447.219 687.702 484.149 687.702 526.039C687.702 526.609 687.702 527.179 687.702 527.749V529.469V531.179L687.652 532.889L687.582 534.659L687.492 536.489L687.392 538.249L687.262 540.069L687.122 541.909L686.962 543.729L686.782 545.569L686.582 547.459L686.312 549.399C686.312 549.799 686.082 551.239 686.082 551.239L685.812 553.159L685.522 555.159L685.212 557.049L684.882 558.989L684.522 560.989L684.142 562.989C684.072 563.309 683.742 564.889 683.742 564.889L683.302 566.889L682.842 568.889C682.762 569.239 682.382 570.809 682.382 570.809C682.252 571.319 681.842 572.879 681.842 572.879L681.302 574.879L680.742 576.879L680.262 578.489L680.142 578.909C680.012 579.359 679.852 579.849 679.702 580.339L679.522 580.919L678.882 582.919L678.182 584.999L677.452 587.059C677.282 587.539 677.092 588.059 676.902 588.539L676.722 589.059L676.132 590.599L675.912 591.169C675.722 591.639 675.522 592.169 675.312 592.659L675.122 593.149L674.312 594.999L673.312 597.229C673.092 597.739 672.532 598.969 672.532 598.969L672.422 599.209C672.162 599.789 671.922 600.299 671.692 600.799L671.472 601.269L670.472 603.379L669.702 604.929L669.442 605.439C669.192 605.939 668.562 607.149 668.562 607.149L668.402 607.439C668.132 607.969 667.842 608.499 667.562 609.019L667.332 609.459L666.432 611.069L666.182 611.529L665.262 613.129L664.972 613.619C664.682 614.119 664.372 614.619 664.052 615.169L663.742 615.689C663.472 616.139 663.142 616.689 662.812 617.199L662.542 617.639C662.202 618.189 661.862 618.709 661.542 619.229L661.242 619.689C660.902 620.229 660.552 620.749 660.242 621.279L659.932 621.749L658.932 623.279L658.602 623.759C658.272 624.239 657.902 624.759 657.522 625.299L657.182 625.779C656.852 626.249 656.462 626.779 656.072 627.309L655.742 627.759C655.392 628.249 654.992 628.759 654.592 629.309L654.312 629.669L653.072 631.289L652.752 631.689L651.512 633.249L651.202 633.639L649.882 635.239L649.542 635.639C649.122 636.149 648.672 636.639 648.222 637.199L647.892 637.589L646.542 639.129L646.172 639.549L644.782 641.079L644.452 641.439L643.002 642.999L642.662 643.359L641.122 644.899L640.762 645.259C640.272 645.759 639.762 646.259 639.242 646.789L638.892 647.139L637.312 648.689L636.982 649.009C636.422 649.539 635.892 650.009 635.352 650.549L634.972 650.899L633.312 652.419L632.952 652.749L631.252 654.249L630.892 654.569L629.132 656.089L628.782 656.389L627.012 657.899L626.602 658.249L624.812 659.689L624.422 659.999C623.822 660.479 623.192 660.999 622.562 661.459L622.212 661.729C621.552 662.249 620.912 662.729 620.272 663.219L619.812 663.559C619.242 663.989 618.582 664.469 617.922 664.949L617.562 665.219L615.562 666.659L615.172 666.929C614.482 667.419 613.802 667.929 613.102 668.359L612.722 668.629L610.612 670.039L610.212 670.299C609.522 670.769 608.802 671.229 608.072 671.689L607.702 671.929C606.962 672.409 606.232 672.869 605.492 673.319L605.112 673.559L602.832 674.899L602.482 675.109C601.662 675.599 600.902 676.049 600.132 676.489L599.722 676.729C598.952 677.179 598.172 677.619 597.392 678.059L597.032 678.269L594.602 679.609L594.222 679.819L591.752 681.139L591.332 681.359L588.862 682.629L588.492 682.819L585.912 684.109L585.512 684.309L582.912 685.559L582.412 685.799L579.852 686.989L579.412 687.189C578.522 687.599 577.642 687.999 576.742 688.389L576.312 688.589L573.572 689.779L573.212 689.929C572.212 690.349 571.302 690.739 570.362 691.119L569.862 691.329L567.102 692.449L566.602 692.639C565.712 692.999 564.742 693.369 563.762 693.749L563.372 693.899L560.372 695.019L559.982 695.159L556.922 696.269L556.492 696.419L553.412 697.489L553.012 697.629L549.882 698.629L549.412 698.789L546.312 699.899L545.892 700.029L542.662 701.029L542.272 701.139L538.932 702.139L538.492 702.269L535.152 703.209L534.722 703.329L531.312 704.259L530.932 704.359L527.422 705.269L526.952 705.379C525.812 705.669 524.632 705.969 523.452 706.249L522.942 706.369C521.832 706.639 520.632 706.929 519.432 707.199L519.072 707.289L515.342 708.129L514.902 708.219L511.202 709.019L510.862 709.089L507.002 709.869L506.642 709.939L502.732 710.699L502.302 710.779L498.402 711.489L498.032 711.549L494.032 712.249L493.592 712.319L489.592 712.969L489.182 713.029C487.822 713.249 486.442 713.459 485.052 713.659L484.682 713.719L480.482 714.319H480.122L475.822 714.889H475.402L471.102 715.429H470.742L466.322 715.939H465.982L461.482 716.409H461.162L456.572 716.849H456.262L451.592 717.259H451.382L446.552 717.649H446.272L441.422 717.999H441.252L436.252 718.319H435.972L430.972 718.599H430.772C429.072 718.686 427.362 718.766 425.642 718.839H425.482L420.252 719.049H420.142L414.792 719.219H414.642C412.832 719.279 411.042 719.319 409.242 719.359H409.122C407.312 719.359 405.482 719.429 403.642 719.449H403.492C399.922 719.449 396.572 719.519 393.272 719.519L15.0019 719.799Z" fill="#231F20"/>
<path d="M538.31 343.61C524.071 339.056 509.301 336.367 494.37 335.61C503.57 322.7 523.8 281.81 511.18 182.31C504.31 128.55 485.31 87.2396 454.64 59.5296C419.98 28.2196 369.38 13.2796 304.27 15.1596C245.82 16.8296 200.27 33.2796 168.87 64.0296C145.16 87.2596 129.54 119.17 123.72 156.31C116.09 204.91 124.23 250.25 145.49 277.57C154.402 289.213 166.409 298.116 180.14 303.26C147.14 304.98 117.14 312.39 92.59 324.97C69.59 336.77 51.32 353.09 38.45 373.48C22.92 398.06 15.05 428.81 15.05 464.88C15.05 500.75 27.05 532.6 50.64 559.56C69.43 581.01 95.58 599.39 128.35 614.18C157.16 627.18 186.18 635.11 207.52 639.74H105.31C59.46 639.74 37.31 656.49 26.88 670.54C15.44 685.9 15.06 701.21 15.05 701.9L15 704.85H393.23C636.41 704.8 672.72 592.9 672.72 526.11C672.72 462.16 649.39 378.58 538.31 343.61Z" fill="#476FB6"/>
<path d="M538.31 343.61C524.071 339.056 509.301 336.367 494.37 335.61C503.57 322.7 523.8 281.81 511.18 182.31C504.31 128.55 485.31 87.2405 454.64 59.5305C431.96 39.0505 402.46 25.5305 366.54 19.2305C423.31 150.07 544.31 512.9 207.52 639.74H105.31C59.46 639.74 37.31 656.49 26.88 670.54C15.44 685.9 15.06 701.21 15.05 701.9L15 704.85H393.23C636.41 704.8 672.72 592.9 672.72 526.11C672.72 462.16 649.39 378.58 538.31 343.61Z" fill="#29497D"/>
<path d="M577.9 619.451C550.81 644.451 455.22 701.731 397.82 704.791C636.82 703.381 672.72 592.421 672.72 526.111C672.72 462.111 649.39 378.581 538.29 343.611C524.05 339.057 509.28 336.368 494.35 335.611C495.26 334.331 356.54 329.151 349.78 451.051C346.42 511.641 351.78 580.601 436.68 580.601C521.58 580.601 501.86 510.301 501.86 510.301C501.86 510.301 490.58 558.171 436.96 548.981C383.34 539.791 389.47 366.681 522.75 395.781C656.03 424.881 629.98 571.451 577.9 619.451Z" fill="#A3BEE4"/>
<path d="M511.161 182.32C504.311 128.55 485.311 87.2396 454.641 59.5296C419.981 28.2196 369.381 13.2796 304.271 15.1596C245.821 16.8296 200.271 33.2796 168.871 64.0296C145.161 87.2596 129.541 119.17 123.721 156.31C116.091 204.91 124.231 250.25 145.491 277.57C154.403 289.213 166.41 298.116 180.141 303.26C178.361 303.35 176.601 303.46 174.851 303.59C173.101 303.72 171.481 303.86 169.851 304.01C140.961 306.62 114.621 313.73 92.6611 325.01C69.6611 336.81 51.3911 353.13 38.5211 373.52C22.9911 398.1 15.1211 428.85 15.1211 464.92C15.1211 500.79 27.1211 532.64 50.7111 559.6C69.5011 581.05 95.6511 599.43 128.421 614.22C157.231 627.22 186.251 635.15 207.591 639.78C120.031 618.55 54.0511 547.49 53.0311 465.78C52.0311 382.44 147.031 335.06 199.081 338.38C251.131 341.7 270.561 379.99 268.521 409.78C266.611 436.59 230.661 452.9 214.311 453.5C184.701 454.5 168.051 421.18 168.051 421.18C162.231 460.64 205.581 472.78 205.581 472.78C205.581 472.78 297.581 494.51 297.581 408.16C297.581 354.04 264.701 326.56 231.841 313.57C276.051 308.32 303.741 280.69 310.551 249.37C318.761 211.63 280.621 180.46 280.621 180.46C280.621 180.46 304.421 244.13 253.101 267.11C194.631 293.3 138.391 223.45 156.301 159.11C174.211 94.7696 245.441 56.4696 305.191 56.4696C364.941 56.4696 453.781 74.0896 485.191 186.69C512.491 284.47 494.311 335.62 494.311 335.62C503.551 322.71 523.781 281.82 511.161 182.32Z" fill="#A3BEE4"/>
<path d="M413.734 67.7702C415.965 54.1613 396.694 39.6735 370.692 35.4108C344.689 31.1481 321.802 38.7246 319.571 52.3335C317.34 65.9424 336.61 80.4302 362.613 84.6929C388.615 88.9557 411.503 81.3791 413.734 67.7702Z" fill="white"/>
<path d="M295.84 68.5404C302.506 68.5404 307.91 63.1365 307.91 56.4704C307.91 49.8043 302.506 44.4004 295.84 44.4004C289.173 44.4004 283.77 49.8043 283.77 56.4704C283.77 63.1365 289.173 68.5404 295.84 68.5404Z" fill="white"/>
<path d="M629.199 556.711C643.331 554.043 650.334 528.291 644.841 499.191C639.348 470.091 623.439 448.664 609.307 451.332C595.175 454 588.172 479.752 593.665 508.852C599.158 537.951 615.067 559.378 629.199 556.711Z" fill="white"/>
<path d="M608.021 598.519C616.764 598.519 623.851 591.432 623.851 582.689C623.851 573.947 616.764 566.859 608.021 566.859C599.279 566.859 592.191 573.947 592.191 582.689C592.191 591.432 599.279 598.519 608.021 598.519Z" fill="white"/>
<path d="M108.072 405.458C126.817 386.712 134.254 363.757 124.682 354.185C115.11 344.614 92.155 352.05 73.4099 370.795C54.6647 389.54 47.2282 412.496 56.7999 422.068C66.3717 431.639 89.3271 424.203 108.072 405.458Z" fill="white"/>
<path d="M72.5442 672.958C87.4358 668.609 98.1423 660.408 96.4578 654.64C94.7734 648.872 81.3358 647.722 66.4441 652.071C51.5525 656.42 40.846 664.621 42.5305 670.389C44.215 676.157 57.6525 677.307 72.5442 672.958Z" fill="white"/>
</g>
<defs>
<clipPath id="clip0_6325_548">
<rect width="687.71" height="719.8" fill="white"/>
</clipPath>
</defs>
</svg>
