<svg width="23" height="34" viewBox="0 0 23 34" fill="none" xmlns="http://www.w3.org/2000/svg">
<g clip-path="url(#clip0_632_4582)">
<path d="M11.4056 33.0822C16.3627 33.0822 20.3812 32.5851 20.3812 31.9718C20.3812 31.3585 16.3627 30.8613 11.4056 30.8613C6.44849 30.8613 2.42998 31.3585 2.42998 31.9718C2.42998 32.5851 6.44849 33.0822 11.4056 33.0822Z" fill="#D0D2D3"/>
<path d="M9.29556 33.5165H9.2639H9.25971C9.09243 33.5141 8.9263 33.4884 8.76609 33.4402C8.70408 33.4212 8.64319 33.3986 8.58374 33.3727C8.00085 33.1186 7.582 32.5503 7.33824 31.6839C7.33824 31.6839 7.30201 31.5748 6.97547 31.3723C6.69433 31.1979 6.31705 31.0251 5.91765 30.8424C5.22223 30.5235 4.50316 30.1939 3.98359 29.7327C3.0921 28.9408 3.19434 28.0955 3.43734 27.5255L3.43924 27.5213C3.45449 27.4859 3.47128 27.45 3.49226 27.4099C3.49722 27.4 3.50294 27.389 3.50905 27.3783C3.52812 27.3428 3.54719 27.3115 3.5655 27.2818C3.57237 27.2707 3.58 27.2593 3.58763 27.2482L3.5903 27.244C3.60555 27.2215 3.62158 27.199 3.63798 27.1772C3.64942 27.162 3.66163 27.1456 3.67613 27.1299C3.69062 27.1143 3.69673 27.1055 3.70703 27.0918L3.71046 27.088C3.73678 27.0575 3.76501 27.0273 3.79362 26.9991L3.81499 26.9785C4.05798 26.7473 4.36926 26.597 4.74424 26.5261C4.67619 26.3758 4.63132 26.216 4.61112 26.0523C4.36965 26.2011 4.15106 26.272 3.94049 26.272C3.88194 26.272 3.82353 26.2661 3.76615 26.2545C3.73882 26.2487 3.71193 26.2411 3.68566 26.2316C3.56339 26.1868 3.45411 26.1124 3.36758 26.0151C3.28105 25.9178 3.21996 25.8006 3.18975 25.6739C3.16073 25.5444 3.16533 25.4097 3.20311 25.2825C2.95096 25.2478 2.75374 25.1593 2.60535 25.0155C2.5852 24.9959 2.56658 24.9749 2.54965 24.9525C2.47076 24.8488 2.41874 24.7273 2.39824 24.5986C2.37774 24.4699 2.38939 24.3382 2.43216 24.2151C2.49362 24.0496 2.60783 23.9088 2.75717 23.8146C2.73647 23.7825 2.71787 23.7491 2.70148 23.7146C2.68965 23.6893 2.6797 23.6632 2.67171 23.6364C2.63722 23.5197 2.62992 23.3966 2.65035 23.2766C2.67078 23.1566 2.71842 23.0428 2.7896 22.9441C2.90061 22.7945 3.11689 22.6164 3.51629 22.6164C3.58726 22.6166 3.65813 22.6217 3.72839 22.6317L3.81536 22.6435C3.81536 22.3982 3.87144 22.1968 3.98702 22.0331C4.00316 22.0101 4.02088 21.9881 4.04005 21.9675C4.18961 21.8139 4.39405 21.7259 4.60844 21.723C4.774 21.723 5.05132 21.7779 5.27525 22.0926C5.54762 22.0339 5.83906 21.9813 6.13814 21.9362C6.15416 21.9267 6.17018 21.9179 6.18658 21.9095C6.25258 21.2755 6.76909 20.7609 7.03193 20.4981C7.29476 20.2353 7.58506 20.1021 7.89176 20.1021C7.93693 20.1021 7.98203 20.1052 8.02679 20.1113C8.11343 19.9065 8.22684 19.7141 8.36402 19.5391C8.52303 19.334 8.72164 19.1631 8.94805 19.0363C8.93584 19.0001 8.92364 18.9642 8.9099 18.9283C8.83361 18.7201 8.75311 18.5396 8.65774 18.3306C8.65507 18.3256 8.65278 18.3203 8.65049 18.3149C8.50859 18.2558 8.36707 18.1944 8.22821 18.1314C7.29361 17.7069 6.37275 17.1686 5.76507 16.6918C5.03646 16.1234 4.50162 15.563 4.17776 15.027C4.10713 14.9107 4.04431 14.7897 3.9897 14.665C3.95995 14.5956 3.93363 14.5262 3.91341 14.4587C3.90654 14.4369 3.90006 14.4155 3.89434 14.3953C3.8909 14.3835 3.88746 14.3713 3.88441 14.3598C3.87869 14.3377 3.87335 14.3156 3.86839 14.2946C3.8449 14.1946 3.83287 14.0922 3.83253 13.9894C3.83253 13.9723 3.83253 13.9559 3.83443 13.9402C3.87258 12.834 4.05074 11.8223 4.36393 10.9232C2.13195 10.8877 0.863546 10.7302 0.308126 10.1641C0.209465 10.0664 0.131576 9.94976 0.0791318 9.82121C0.026688 9.69266 0.000772383 9.55483 0.00294951 9.41601C0.0117233 8.82855 0.498861 8.1892 1.45254 7.51514C2.24409 6.95476 3.30763 6.41803 4.47302 5.98926L4.47911 5.96332C4.48636 5.93127 4.49362 5.89924 4.50163 5.86681L4.51002 5.83096C4.51726 5.8012 4.52413 5.7722 4.53138 5.74321L4.56344 5.61846C4.56344 5.61846 4.58898 5.52082 4.59661 5.49259C4.59661 5.49259 4.62332 5.39416 4.63133 5.36593C4.63133 5.36593 4.65879 5.26752 4.66719 5.23891L4.71563 5.07297L4.75378 4.9467C4.7637 4.91504 4.79193 4.82196 4.79193 4.82196C4.80299 4.78648 4.83007 4.69645 4.83007 4.69645C4.91781 4.42027 5.01738 4.12653 5.12534 3.82479C5.18142 3.66839 5.23978 3.50855 5.29967 3.34948V3.35214L5.33439 3.25983C5.37431 3.15378 5.41334 3.05206 5.45149 2.95466C5.45149 2.95466 5.48124 2.87836 5.482 2.87836C5.52015 2.78185 5.55601 2.68993 5.59072 2.60371C5.63421 2.495 5.67503 2.39543 5.71204 2.30578L5.71433 2.30007C5.74256 2.23102 5.76887 2.16806 5.79252 2.11237C5.79252 2.11008 5.88827 1.88616 5.88865 1.88578C5.90925 1.83733 5.92069 1.8114 5.92069 1.8114C5.97159 1.69606 6.05898 1.60062 6.16941 1.53979L6.27355 1.48447L6.28843 1.47646C6.31743 1.4612 6.35291 1.44289 6.39373 1.42229L6.52303 1.35669L6.56463 1.33609C7.36571 0.940125 8.91714 0.250796 10.3854 0.0547199H10.3896L10.4873 0.0425196C10.7049 0.0161233 10.9238 0.00250092 11.143 0.00170898H11.2117C13.2255 0.0314636 15.6699 1.39368 16.1395 1.66643L16.1777 1.68971C16.2091 1.70826 16.2386 1.72985 16.2658 1.75418C16.2788 1.76562 16.2914 1.77782 16.3039 1.79041C16.3333 1.82131 16.3638 1.85564 16.3974 1.89531C16.4054 1.90447 16.4142 1.91516 16.4229 1.92584C16.4481 1.95636 16.4737 1.9884 16.4992 2.02045C16.5061 2.02884 16.5118 2.03646 16.5175 2.04447C16.5435 2.07957 16.5721 2.12077 16.6 2.16121C16.6053 2.16884 16.6194 2.19095 16.6194 2.19095C16.6404 2.22223 16.6618 2.2562 16.6831 2.29053C16.6831 2.29053 16.6969 2.31265 16.7022 2.3218C16.7285 2.36567 16.7529 2.40801 16.7762 2.45074L16.7838 2.46448C16.8056 2.50454 16.8269 2.54535 16.8483 2.58693L16.8643 2.61934C16.8857 2.66207 16.9067 2.70519 16.9273 2.74982L16.9295 2.75478C16.9524 2.80437 16.9738 2.8532 16.9952 2.90241L17.0066 2.92986C17.0249 2.97335 17.0428 3.01723 17.0604 3.06148L17.0673 3.07863C17.0879 3.13051 17.1073 3.18202 17.1264 3.23428L17.1298 3.24381C17.1481 3.29493 17.1653 3.34337 17.1821 3.39258L17.1889 3.41357C17.224 3.51733 17.2584 3.62644 17.2916 3.73782L17.2961 3.75308C17.3286 3.86447 17.3598 3.97776 17.3892 4.09182V4.0964C17.4037 4.15235 17.4178 4.20881 17.4316 4.26577V4.26806C17.5749 4.87477 17.6843 5.489 17.7592 6.10789C19.7074 6.86282 21.3069 7.88136 21.981 8.80566L21.9924 8.82129C22.0138 8.85104 22.034 8.88042 22.0531 8.90941L22.0691 8.9342C22.0863 8.96128 22.1015 8.98608 22.1156 9.01049C22.1225 9.02194 22.1297 9.03414 22.1366 9.04635C22.1435 9.05856 22.1534 9.07688 22.1614 9.09176C22.1732 9.11427 22.1843 9.13677 22.195 9.15889C22.2015 9.17262 22.2072 9.18559 22.2133 9.19704C22.2232 9.21967 22.2327 9.24255 22.2419 9.26569C22.2465 9.27714 22.2511 9.28897 22.2552 9.30041C22.264 9.32407 22.2724 9.34887 22.2797 9.37328C22.2823 9.38129 22.285 9.39044 22.2877 9.39921C22.2961 9.4282 22.3037 9.45911 22.3106 9.49191C22.3106 9.49954 22.314 9.50755 22.3155 9.51518C22.322 9.55027 22.3273 9.58423 22.3308 9.61742C22.3308 9.62581 22.3308 9.63192 22.3327 9.63802C22.3361 9.67617 22.3373 9.71432 22.3369 9.7498C22.3362 9.78806 22.3336 9.82626 22.3289 9.86424L22.3254 9.8894C22.3199 9.92707 22.3123 9.96439 22.3026 10.0012C22.3026 10.0073 22.2987 10.0153 22.2964 10.0222C22.2879 10.0524 22.2777 10.0822 22.2659 10.1114C22.2625 10.1202 22.2591 10.1294 22.2549 10.1385C22.2409 10.1714 22.2253 10.2034 22.2079 10.2346C22.2022 10.2446 22.1976 10.2526 22.1927 10.2602C22.1782 10.2842 22.1629 10.3083 22.1462 10.3311C22.142 10.3376 22.1366 10.3449 22.1309 10.3525C22.1099 10.3807 22.0882 10.4067 22.0656 10.4315C22.0588 10.4391 22.0512 10.4471 22.0435 10.4548C22.0264 10.4731 22.0084 10.4906 21.9905 10.507L21.9653 10.5299C21.9463 10.5467 21.9226 10.5658 21.8959 10.586L21.8684 10.6062C21.8478 10.6211 21.8303 10.6337 21.8101 10.6443L21.77 10.6695C21.7513 10.6806 21.7319 10.6924 21.7113 10.7035L21.6731 10.7229L21.6197 10.7496L21.5602 10.7767L21.516 10.7958L21.4702 10.8141L21.4217 10.832C21.3977 10.8408 21.3721 10.8496 21.3454 10.8583L21.3092 10.8698C21.2516 10.8881 21.1879 10.906 21.1215 10.9228L21.0952 10.9293C21.0273 10.9457 20.9567 10.9609 20.8846 10.9751L20.8713 10.9774C20.3441 11.0773 19.6342 11.1257 18.6423 11.1299C18.914 11.9791 19.0692 12.9248 19.1043 13.9482C19.1169 14.1943 19.0505 15.2811 17.1623 16.7006C16.4142 17.2632 15.3239 17.8694 14.2722 18.3111L14.2627 18.3321C14.1677 18.5404 14.0857 18.72 14.0113 18.9272C13.9896 18.9886 13.969 19.05 13.9495 19.113C14.3222 19.2949 14.6163 19.5509 14.8135 19.8691C14.9322 20.0569 15.0254 20.2597 15.0905 20.4721H15.1233C15.3606 20.4721 15.7123 20.5564 16.0411 20.9585C16.3356 21.3186 16.5301 21.6292 16.6373 21.9164C16.9807 21.9652 17.3274 22.0259 17.6459 22.0942C17.8699 21.7794 18.1472 21.7245 18.3131 21.7245C18.4192 21.726 18.524 21.7483 18.6215 21.7903C18.7189 21.8322 18.8072 21.893 18.8811 21.969C18.9004 21.9893 18.9182 22.0108 18.9346 22.0335C19.049 22.1972 19.107 22.3986 19.1058 22.6439L19.1928 22.632C19.2631 22.6221 19.3339 22.617 19.4049 22.6168C19.8043 22.6168 20.0206 22.7949 20.1316 22.9445C20.2029 23.0432 20.2506 23.1569 20.2711 23.2769C20.2916 23.3969 20.2844 23.52 20.2499 23.6368C20.2417 23.6636 20.2316 23.6897 20.2197 23.715C20.2035 23.7495 20.185 23.7829 20.1644 23.815C20.3138 23.9091 20.4279 24.0499 20.489 24.2155C20.5319 24.3386 20.5436 24.4703 20.5231 24.599C20.5026 24.7277 20.4505 24.8493 20.3716 24.9529C20.3547 24.9754 20.3361 24.9964 20.3159 25.0158C20.1675 25.1604 19.9706 25.2489 19.7185 25.2829C19.775 25.4729 19.7563 25.6773 19.6664 25.854C19.5764 26.0306 19.4221 26.1659 19.2352 26.232C19.2089 26.2415 19.182 26.2492 19.1547 26.2549C19.0973 26.2665 19.0389 26.2724 18.9803 26.2724C18.7339 26.2724 18.4768 26.1751 18.1846 25.9699C18.1655 25.9745 18.1464 25.9783 18.1266 25.9821C18.0652 25.9939 18.0032 26.002 17.9408 26.0065C17.9408 26.0214 17.9408 26.0359 17.9427 26.0508C17.9495 26.2011 17.9439 26.3518 17.9259 26.5013C18.3456 26.5509 18.6919 26.692 18.9616 26.9236C18.9822 26.9415 19.0025 26.9594 19.0219 26.9781C19.0292 26.9846 19.0372 26.9926 19.0452 27.001C19.0726 27.0281 19.1005 27.0579 19.1272 27.0884L19.1611 27.1284C19.1741 27.1444 19.1863 27.1601 19.1993 27.1761C19.2123 27.1921 19.2317 27.2204 19.247 27.2436L19.2489 27.2463C19.2569 27.2581 19.2649 27.2699 19.2729 27.2844C19.2908 27.3123 19.3092 27.344 19.3282 27.3787L19.3446 27.4099C19.366 27.4515 19.3828 27.4893 19.3996 27.5244C19.4733 27.6927 19.5246 27.8699 19.5522 28.0516C19.5586 28.0955 19.5632 28.1401 19.5663 28.1839C19.5722 28.2706 19.5714 28.3576 19.564 28.4441C19.5605 28.4868 19.5552 28.5296 19.5483 28.5715C19.3595 29.7236 18.064 30.3171 16.9208 30.8413C16.3902 31.0843 15.8412 31.3372 15.5902 31.5722C15.5717 31.589 15.5544 31.6071 15.5383 31.6263C15.5279 31.6382 15.5184 31.651 15.5101 31.6645C15.5061 31.6703 15.5027 31.6766 15.5002 31.6832C15.2568 32.5495 14.8379 33.1179 14.2554 33.3719C14.1958 33.3978 14.1348 33.4204 14.0727 33.4395C13.9279 33.4836 13.778 33.5093 13.6268 33.5158C13.6138 33.5158 13.6005 33.5158 13.5886 33.5158H13.5459H13.4933H13.4891H13.4593L13.412 33.5127H13.4006C13.3758 33.5127 13.351 33.5089 13.3266 33.5062H13.3166C13.2926 33.5035 13.2701 33.5005 13.2472 33.4971H13.2365L13.1736 33.4868L13.1518 33.483C13.1297 33.4791 13.1049 33.4742 13.0801 33.4688C13.0553 33.4635 13.0202 33.4551 12.9859 33.4456L12.9584 33.4379C12.923 33.4276 12.8917 33.4177 12.8615 33.4074L12.849 33.4028C12.821 33.3929 12.7931 33.3822 12.7654 33.3708L12.7467 33.3628L12.7086 33.3468L12.7017 33.3437C12.6849 33.3361 12.6689 33.3292 12.6533 33.3216L12.6365 33.3132C12.6132 33.3021 12.5873 33.2888 12.5602 33.275L12.5423 33.2655C12.5129 33.2491 12.4846 33.2331 12.4564 33.2163L12.4435 33.2083C12.4156 33.1915 12.3908 33.1759 12.3672 33.1595L12.3515 33.1495C12.3248 33.1316 12.2981 33.1114 12.2718 33.0938L12.2554 33.082C12.231 33.0645 12.207 33.0462 12.1825 33.0275C12.1799 33.0256 12.1486 33.0008 12.1482 33C12.1306 32.9863 12.1135 32.9718 12.0959 32.9573L12.0799 32.9439C12.0559 32.9237 12.0322 32.9027 12.0086 32.8817L12.0036 32.8772C11.9784 32.8547 11.9536 32.831 11.9273 32.8074L11.9136 32.794C11.8648 32.7471 11.8163 32.6971 11.769 32.6456L11.7583 32.6342L11.7236 32.596L11.6878 32.5552L11.6839 32.5506C11.6614 32.5247 11.6405 32.4991 11.6195 32.4743L11.6111 32.4644C11.589 32.437 11.5668 32.4091 11.5451 32.3809L11.5409 32.3752C11.5203 32.3485 11.4997 32.3206 11.4795 32.2928L11.4726 32.2832C11.4551 32.2592 11.4364 32.2325 11.4181 32.2069C11.3998 32.234 11.3799 32.2607 11.3612 32.2874L11.3566 32.2943C11.3364 32.3221 11.3154 32.35 11.2945 32.3775L11.2922 32.3805C11.2693 32.4103 11.2472 32.4381 11.225 32.4659L11.2155 32.477C11.1949 32.5026 11.1728 32.5289 11.1507 32.5533L11.1476 32.5564L11.1129 32.5945L11.0721 32.6399L11.0683 32.6441C11.0198 32.6967 10.971 32.7467 10.9225 32.7936L10.9084 32.8074C10.884 32.8306 10.8592 32.8543 10.834 32.8768L10.8291 32.881C10.8054 32.9023 10.7814 32.9233 10.7574 32.9436L10.7417 32.9569C10.7246 32.971 10.7078 32.9851 10.691 32.9985L10.6643 33.0198L10.6536 33.0279C10.6288 33.0473 10.6055 33.066 10.5823 33.0816L10.5647 33.0946C10.5388 33.1129 10.5117 33.1328 10.4842 33.1499C10.4797 33.1535 10.4748 33.1567 10.4697 33.1595C10.4457 33.1755 10.4209 33.1911 10.3961 33.206L10.3782 33.2171C10.3522 33.2327 10.324 33.2487 10.2958 33.2644L10.2767 33.2747C10.2508 33.2884 10.2248 33.3018 10.1985 33.3128L10.1851 33.3193C10.1687 33.3273 10.1531 33.3342 10.1371 33.3414L10.1314 33.3441L10.0932 33.3609L10.0776 33.3674C10.0471 33.3796 10.0196 33.3903 9.99212 33.4002L9.97649 33.4055C9.94788 33.4154 9.9166 33.4257 9.88265 33.4353L9.85289 33.4436C9.81932 33.4528 9.78957 33.4601 9.76058 33.4665C9.73158 33.473 9.71022 33.4768 9.68428 33.4814L9.66521 33.4845L9.60646 33.494L9.59044 33.4963C9.56908 33.4994 9.5462 33.5024 9.52331 33.5047H9.51301C9.4886 33.5074 9.46341 33.5096 9.43862 33.5112H9.42718L9.3772 33.5142H9.35049H9.33677H9.29633L9.29556 33.5165Z" fill="#231F20"/>
<path d="M11.4056 31.2375C14.2042 31.2375 16.473 28.786 16.473 25.7619C16.473 22.7378 14.2042 20.2863 11.4056 20.2863C8.60689 20.2863 6.33812 22.7378 6.33812 25.7619C6.33812 28.786 8.60689 31.2375 11.4056 31.2375Z" fill="#7D5A53"/>
<path d="M16.6142 27.2987C17.1101 27.1896 17.4485 26.8269 17.3607 25.9033C17.2695 24.9435 16.5596 25.1167 16.5596 25.1167C16.9915 24.8779 17.049 24.4301 16.7809 23.5146C16.5127 22.599 16.0073 22.9042 16.0073 22.9042C16.3079 22.4922 16.1907 22.044 15.5979 21.3192C15.0685 20.6707 14.5832 21.3448 14.4856 21.4958C14.5539 21.3764 14.774 20.89 14.3269 20.1691C13.8096 19.3352 12.513 19.3722 12.513 19.3722L11.5948 19.5415L10.6987 19.2798C10.6987 19.2798 9.41278 19.1116 8.81349 19.8902C8.29546 20.562 8.46521 21.0686 8.52091 21.1937C8.43927 21.0339 8.025 20.3163 7.43219 20.9053C6.76882 21.5664 6.60669 22.0005 6.86418 22.4407C6.86418 22.4407 6.39231 22.0875 6.03258 22.9698C5.67285 23.8521 5.68504 24.303 6.09055 24.5846C6.09055 24.5846 5.40391 24.3401 5.21508 25.2861C5.03427 26.1955 5.33295 26.5911 5.81627 26.7498C5.71022 26.725 5.48325 26.7094 5.33943 26.9695C5.1487 27.3182 5.07242 27.7367 5.87923 28.7422C7.76293 31.0844 11.023 30.7896 11.023 30.7896C11.023 30.7896 14.2853 31.5933 16.3479 29.2744C17.2058 28.3104 17.2211 27.9324 17.0647 27.5654C16.9495 27.2922 16.7225 27.2846 16.6142 27.2987Z" fill="#7D5A53"/>
<path d="M11.0245 30.7895C11.0245 30.7895 14.2868 31.5933 16.3494 29.2743C17.2074 28.3104 17.2226 27.9323 17.0662 27.5657C16.9495 27.2922 16.7229 27.2846 16.6142 27.2987C17.1101 27.1896 17.4484 26.8268 17.3607 25.9033C17.2695 24.9435 16.5596 25.1167 16.5596 25.1167C16.9914 24.8779 17.049 24.4301 16.7809 23.5145C16.5127 22.599 16.0073 22.9042 16.0073 22.9042C16.0821 22.8084 16.1328 22.696 16.155 22.5764C16.1772 22.4569 16.1702 22.3338 16.1347 22.2175C15.3885 23.4638 12.8453 26.4599 5.53514 26.7723C5.45084 26.8148 5.38228 26.8831 5.33943 26.9672C5.1487 27.3159 5.07242 27.7343 5.87923 28.7399C7.76445 31.0844 11.0245 30.7895 11.0245 30.7895Z" fill="#70453F"/>
<path d="M11.4056 30.9116C14.0376 30.9116 16.1713 28.606 16.1713 25.7618C16.1713 22.9176 14.0376 20.6119 11.4056 20.6119C8.77354 20.6119 6.63986 22.9176 6.63986 25.7618C6.63986 28.606 8.77354 30.9116 11.4056 30.9116Z" fill="#3C2415"/>
<path d="M11.4056 30.7907C13.9759 30.7907 16.0595 28.5392 16.0595 25.7618C16.0595 22.9844 13.9759 20.7329 11.4056 20.7329C8.83527 20.7329 6.75163 22.9844 6.75163 25.7618C6.75163 28.5392 8.83527 30.7907 11.4056 30.7907Z" fill="#F5E099"/>
<path d="M13.8405 21.6804C14.698 22.578 15.3194 23.7812 15.3194 25.1041C15.3194 27.8812 12.7762 30.133 10.6655 30.133C9.84955 30.133 8.96912 29.7962 8.1955 29.2229C9.10683 30.1887 10.3142 30.7907 11.406 30.7907C13.517 30.7907 16.0599 28.54 16.0599 25.7618C16.0595 24.0814 15.057 22.5937 13.8405 21.6804Z" fill="#F0CC6D"/>
<path d="M8.6445 16.6775C9.20679 18.6714 9.74275 18.2892 9.8652 21.7304C9.8652 21.7304 9.92509 22.3026 11.4605 22.3026C12.9959 22.3026 13.0558 21.7304 13.0558 21.7304C13.1783 18.2892 13.7142 18.6714 14.2765 16.6775H8.6445Z" fill="#49BEA2"/>
<path d="M13.4735 18.7351C13.6974 18.1099 13.9832 17.7159 14.2746 16.6775H8.6445C8.93785 17.717 9.22356 18.1111 9.44749 18.7374C10.178 18.9995 10.8914 19.17 11.4693 19.17C12.0472 19.17 12.7491 18.9976 13.4735 18.7351Z" fill="#3D9480"/>
<path d="M14.2758 16.6775C13.8094 16.7504 13.3396 16.7993 12.8681 16.8239C12.3989 16.8514 11.9293 16.864 11.4601 16.8644C10.9909 16.8648 10.5217 16.8518 10.0525 16.8262C9.58094 16.8018 9.11096 16.7528 8.6445 16.6794C9.11096 16.6059 9.58094 16.5569 10.0525 16.5325C10.5217 16.505 10.9909 16.4923 11.4601 16.4944C11.9293 16.4944 12.3989 16.5073 12.8681 16.5348C13.3395 16.5582 13.8093 16.6058 14.2758 16.6775Z" fill="#231F20"/>
<path d="M11.4685 18.4452C9.8942 18.4452 7.30859 17.178 6.11725 16.2434C4.3026 14.8277 4.4033 13.9744 4.4033 13.9744C4.65812 6.44569 11.4685 6.53838 11.4685 6.53838C11.4685 6.53838 18.2789 6.44569 18.5337 13.9744C18.5337 13.9744 18.6051 14.901 16.8198 16.2434C15.6098 17.1532 13.0425 18.4452 11.4685 18.4452Z" fill="#49BEA2"/>
<path opacity="0.49" d="M17.9634 10.9211C16.277 6.47354 11.467 6.53838 11.467 6.53838C11.467 6.53838 4.65663 6.44569 4.40181 13.9744C4.40181 13.9744 4.30109 14.8277 6.11574 16.2434C7.30707 17.178 9.8923 18.4452 11.467 18.4452C11.6838 18.4431 11.9001 18.4231 12.1136 18.3853C7.53595 15.5407 8.10358 10.9211 8.10358 10.9211H17.9634Z" fill="#3D9480"/>
<path d="M5.93225 14.5535C5.93225 14.5535 6.7589 14.951 6.84359 14.2441" stroke="#231F20" stroke-width="0.331961" stroke-miterlimit="10" stroke-linecap="round"/>
<path d="M15.9229 14.5535C15.1886 15.3645 14.341 15.1325 13.4838 15.1966C12.6267 15.2607 11.4929 16.2911 11.3064 16.2911C11.1199 16.2911 9.98613 15.2611 9.12897 15.1966C8.2718 15.1322 7.42418 15.3645 6.68985 14.5535" stroke="#231F20" stroke-width="0.331961" stroke-miterlimit="10" stroke-linecap="round"/>
<path d="M16.6805 14.5535C16.6805 14.5535 15.8539 14.951 15.7692 14.2441" stroke="#231F20" stroke-width="0.331961" stroke-miterlimit="10" stroke-linecap="round"/>
<path d="M11.3064 16.1805C11.3064 16.1805 10.9051 13.7074 11.4681 12.09" stroke="#231F20" stroke-width="0.331961" stroke-miterlimit="10" stroke-linecap="round"/>
<path d="M10.8177 14.5668C10.8075 14.5671 10.7973 14.5657 10.7876 14.5626L10.7807 14.5607H10.7773L10.7655 14.5557L10.751 14.5481C10.7433 14.5435 10.7365 14.5393 10.7311 14.5355C10.7197 14.5275 10.7102 14.5198 10.701 14.5122C10.6827 14.4973 10.6663 14.4825 10.6503 14.468C10.6186 14.4382 10.5888 14.4085 10.5598 14.3783C10.5015 14.3184 10.4454 14.2574 10.3916 14.196C10.3757 14.1801 10.3668 14.1585 10.3668 14.1361C10.3668 14.1136 10.3757 14.0921 10.3916 14.0762C10.4075 14.0603 10.4291 14.0514 10.4515 14.0514C10.474 14.0514 10.4955 14.0603 10.5114 14.0762C10.5717 14.13 10.632 14.183 10.693 14.2334C10.7235 14.2585 10.7544 14.2829 10.7849 14.3055C10.8002 14.3165 10.8154 14.3276 10.8299 14.3367C10.8368 14.3413 10.844 14.3455 10.8498 14.3486L10.8559 14.3512L10.8513 14.3493L10.8444 14.347C10.8359 14.3444 10.827 14.3433 10.8181 14.3436C10.8468 14.3453 10.8737 14.3578 10.8934 14.3787C10.9131 14.3996 10.9241 14.4272 10.9241 14.456C10.9241 14.4847 10.9131 14.5123 10.8934 14.5332C10.8737 14.5541 10.8468 14.5666 10.8181 14.5683L10.8177 14.5668Z" fill="#231F20"/>
<path d="M11.8061 14.3422C11.7971 14.3419 11.7881 14.3431 11.7794 14.3456L11.773 14.3479L11.768 14.3498L11.7745 14.3472L11.7943 14.3353C11.8084 14.3262 11.8241 14.3151 11.8389 14.304C11.8695 14.2815 11.9004 14.2571 11.9309 14.232C11.9919 14.1816 12.0526 14.1286 12.1125 14.0748C12.1287 14.0607 12.1496 14.0534 12.1711 14.0541C12.1925 14.0549 12.2129 14.0637 12.2281 14.0789C12.2433 14.0941 12.2523 14.1144 12.2531 14.1358C12.2539 14.1573 12.2466 14.1783 12.2326 14.1946C12.1777 14.256 12.1224 14.317 12.0644 14.3769C12.0354 14.407 12.0056 14.4368 11.9736 14.4666C11.9576 14.4811 11.9416 14.4959 11.9233 14.5108C11.9135 14.5191 11.9033 14.5269 11.8927 14.5341L11.8733 14.5467L11.8588 14.5543L11.8466 14.5592H11.8435L11.8367 14.5612C11.8269 14.5642 11.8167 14.5657 11.8065 14.5654C11.7912 14.5662 11.7759 14.564 11.7615 14.5588C11.7471 14.5535 11.7339 14.5454 11.7227 14.5349C11.7116 14.5243 11.7027 14.5117 11.6966 14.4976C11.6906 14.4835 11.6874 14.4683 11.6874 14.453C11.6874 14.4377 11.6906 14.4225 11.6966 14.4084C11.7027 14.3944 11.7116 14.3817 11.7227 14.3712C11.7339 14.3606 11.7471 14.3525 11.7615 14.3473C11.7759 14.342 11.7912 14.3398 11.8065 14.3407L11.8061 14.3422Z" fill="#231F20"/>
<path d="M13.5207 8.43806C13.6974 8.26138 13.6081 7.88568 13.3214 7.5989C13.0346 7.31213 12.6589 7.22288 12.4822 7.39956C12.3055 7.57624 12.3948 7.95196 12.6815 8.23873C12.9683 8.52551 13.344 8.61474 13.5207 8.43806Z" fill="#3D9480"/>
<path d="M13.3174 9.54314C13.4722 9.43216 13.4565 9.14537 13.2825 8.90258C13.1084 8.65979 12.8418 8.55295 12.687 8.66393C12.5322 8.7749 12.5479 9.06168 12.7219 9.30446C12.896 9.54725 13.1626 9.65411 13.3174 9.54314Z" fill="#3D9480"/>
<path d="M6.27536 10.2839C6.43842 10.0336 6.44122 9.74641 6.28164 9.64245C6.12206 9.5385 5.86051 9.65715 5.69745 9.90747C5.53439 10.1578 5.53158 10.445 5.69116 10.5489C5.85074 10.6529 6.1123 10.5342 6.27536 10.2839Z" fill="#3D9480"/>
<path d="M14.3029 9.26717C14.4021 9.15106 14.3352 8.93098 14.1534 8.77562C13.9716 8.62026 13.7438 8.58844 13.6446 8.70456C13.5453 8.82067 13.6123 9.04074 13.794 9.1961C13.9758 9.35146 14.2036 9.38328 14.3029 9.26717Z" fill="#3D9480"/>
<path d="M3.21733 23.4715C3.21733 23.4715 3.11357 23.1282 3.6503 23.1988C4.18703 23.2693 4.64212 23.3624 4.64212 23.3624L4.41018 23.9243C4.41018 23.9243 3.38365 23.8255 3.21733 23.4715Z" fill="#58595B"/>
<path d="M3.00214 24.6055C3.00214 24.6055 2.78395 24.3194 3.31153 24.1981C3.8391 24.0768 4.29724 24.0028 4.29724 24.0028L4.2774 24.6101C4.2774 24.6101 3.28252 24.8787 3.00214 24.6055Z" fill="#58595B"/>
<path d="M3.87994 25.6951C3.87994 25.6951 3.54157 25.5715 3.92075 25.185C4.29993 24.7986 4.64554 24.4896 4.64554 24.4896L4.95644 25.0119C4.95644 25.0119 4.26332 25.774 3.87994 25.6951Z" fill="#58595B"/>
<path d="M4.45176 22.3641C4.45176 22.3641 4.70048 22.1039 4.90228 22.6063C5.10407 23.1087 5.24865 23.5493 5.24865 23.5493L4.64555 23.6256C4.64555 23.6256 4.22554 22.6834 4.45176 22.3641Z" fill="#58595B"/>
<path d="M3.77998 24.3325C3.77998 24.3325 3.69872 23.0969 4.89043 22.7749C6.08215 22.453 7.86819 22.2668 8.34274 22.4236C8.81729 22.5804 9.18694 23.1255 9.21174 23.3773C9.23653 23.629 9.47533 24.1993 8.34313 24.5949C7.21093 24.9905 5.5519 25.5486 4.90226 25.422C4.25262 25.2953 3.82576 24.7601 3.77998 24.3325Z" fill="#49BEA2"/>
<path opacity="0.49" d="M4.90228 25.4212C5.55078 25.5482 7.21132 24.9901 8.34314 24.5941C8.80549 24.4328 9.03894 24.242 9.15224 24.0559C5.02245 25.4673 4.04702 24.2935 3.83416 23.8495C3.79356 24.0067 3.77533 24.169 3.77999 24.3313C3.82577 24.7601 4.25225 25.2941 4.90228 25.4212Z" fill="#3D9480"/>
<path d="M11.4601 24.3897C12.3563 24.3897 13.0829 24.2787 13.0829 24.1418C13.0829 24.0048 12.3563 23.8938 11.4601 23.8938C10.5639 23.8938 9.83734 24.0048 9.83734 24.1418C9.83734 24.2787 10.5639 24.3897 11.4601 24.3897Z" fill="#F7A33F"/>
<path d="M11.4601 28.2906C12.3563 28.2906 13.0829 28.1796 13.0829 28.0426C13.0829 27.9057 12.3563 27.7947 11.4601 27.7947C10.5639 27.7947 9.83734 27.9057 9.83734 28.0426C9.83734 28.1796 10.5639 28.2906 11.4601 28.2906Z" fill="#F7A33F"/>
<path d="M11.4601 26.4763C12.7 26.4763 13.7051 26.3652 13.7051 26.2283C13.7051 26.0914 12.7 25.9803 11.4601 25.9803C10.2203 25.9803 9.21518 26.0914 9.21518 26.2283C9.21518 26.3652 10.2203 26.4763 11.4601 26.4763Z" fill="#F7A33F"/>
<path d="M9.74274 11.9545C9.77875 12.1601 9.76568 12.3713 9.70459 12.5709C9.64197 12.7776 9.5351 12.9682 9.39141 13.1294C9.24455 13.2939 9.06447 13.4253 8.86307 13.5151C8.81195 13.5357 8.76046 13.5567 8.70782 13.5746C8.65517 13.5925 8.60139 13.6051 8.54722 13.6177C8.49305 13.6303 8.43773 13.636 8.3828 13.6432L8.21649 13.6524L8.05054 13.6432C7.99561 13.636 7.94067 13.6268 7.88574 13.6173C7.83081 13.6078 7.77855 13.5887 7.72514 13.5742C7.67173 13.5597 7.62138 13.536 7.57026 13.5147C7.36878 13.4251 7.1887 13.2936 7.04194 13.129C6.89859 12.9677 6.79176 12.7773 6.72875 12.5709C6.66768 12.3713 6.65461 12.1601 6.69061 11.9545C6.72496 12.1477 6.79039 12.3341 6.88438 12.5065C6.97431 12.6698 7.0922 12.8161 7.23267 12.9387C7.5048 13.1777 7.85463 13.3096 8.21686 13.3096C8.57909 13.3096 8.92892 13.1777 9.20105 12.9387C9.3414 12.8161 9.45928 12.67 9.54934 12.5068C9.6429 12.3342 9.70819 12.1477 9.74274 11.9545Z" fill="#231F20"/>
<path d="M16.2468 11.9545C16.2828 12.1601 16.2697 12.3713 16.2087 12.5709C16.1458 12.7776 16.0388 12.9681 15.8951 13.1294C15.7483 13.2939 15.5682 13.4254 15.3668 13.5151C15.3156 13.5357 15.2641 13.5567 15.2119 13.5746C15.1596 13.5925 15.1051 13.6051 15.0513 13.6177C14.9975 13.6303 14.9414 13.636 14.8865 13.6432L14.7206 13.6524L14.5542 13.6432C14.4993 13.636 14.4444 13.6268 14.3898 13.6173C14.3353 13.6078 14.2826 13.5887 14.2292 13.5742C14.1758 13.5597 14.1255 13.536 14.074 13.5147C13.8726 13.425 13.6927 13.2935 13.546 13.129C13.4024 12.9679 13.2955 12.7775 13.2328 12.5709C13.1718 12.3713 13.1587 12.1601 13.1947 11.9545C13.2292 12.1477 13.2946 12.3341 13.3884 12.5065C13.4784 12.6698 13.5963 12.8161 13.7367 12.9387C14.0089 13.1777 14.3587 13.3096 14.7209 13.3096C15.0832 13.3096 15.433 13.1777 15.7051 12.9387C15.8456 12.8162 15.9635 12.67 16.0534 12.5068C16.1471 12.3343 16.2124 12.1478 16.2468 11.9545Z" fill="#231F20"/>
<path d="M9.58787 29.3007C10.7243 29.9454 10.8944 29.3724 11.3228 30.1113C11.7859 30.9097 10.6808 32.6832 9.6409 32.9052C9.05535 33.0299 8.28134 32.9235 7.8888 31.5285C7.5493 30.3154 3.04795 29.9019 3.96348 27.7492C4.80004 25.7866 9.6409 28.5988 9.6409 28.5988C9.82401 28.8719 9.74924 29.0936 9.58787 29.3007Z" fill="#49BEA2"/>
<path d="M9.61456 32.1073C9.45816 32.2476 9.71717 32.6032 9.9018 32.8183C10.1102 32.7208 10.3017 32.5906 10.4691 32.4326C10.2066 32.2446 9.7702 31.968 9.61456 32.1073Z" fill="#58595B"/>
<path d="M9.64091 32.9052C9.68712 32.8951 9.73272 32.8824 9.77748 32.8671C9.67105 32.6702 9.48451 32.4169 9.28881 32.4093C9.09312 32.4017 9.09465 32.7076 9.14081 32.9361C9.30808 32.9532 9.47701 32.9428 9.64091 32.9052Z" fill="#58595B"/>
<path d="M10.1208 31.6635C9.9907 31.8241 10.326 32.1339 10.5698 32.3349C10.7296 32.1724 10.8725 31.9941 10.9962 31.8028C10.6949 31.6777 10.2329 31.5247 10.1208 31.6635Z" fill="#58595B"/>
<path d="M10.6606 31.2751C10.4939 31.4407 10.807 31.6383 11.0317 31.7474C11.1279 31.5936 11.2104 31.4318 11.2785 31.2637C11.079 31.2149 10.7781 31.1577 10.6606 31.2751Z" fill="#58595B"/>
<path d="M5.69343 28.2997C5.69343 28.2997 5.69914 28.8502 5.1853 28.925C4.67146 28.9997 4.62417 28.4958 4.75272 28.3505C4.88128 28.2051 5.10023 28.2643 5.1853 28.4054" stroke="#1F705F" stroke-width="0.16908" stroke-miterlimit="10" stroke-linecap="round"/>
<path d="M6.95306 28.0491C6.93056 28.0464 6.90881 28.0441 6.88783 28.0426C6.89699 28.0434 6.91911 28.0453 6.95306 28.0491Z" fill="#3D9480"/>
<path d="M6.95305 28.0491C7.85294 28.157 9.58786 29.3007 9.58786 29.3007C9.67826 29.1862 9.74045 29.0642 9.74732 28.9329C8.62808 28.2577 7.27196 28.0823 6.95305 28.0491Z" fill="#3D9480"/>
<path opacity="0.49" d="M11.4136 30.7847C9.94417 33.2139 8.49994 31.7841 8.30157 31.2043C8.10321 30.6245 7.61492 30.2964 5.69346 29.5739C3.62436 28.7957 4.22671 27.3995 4.24616 27.3572C4.12283 27.4636 4.02603 27.5974 3.96349 27.7478C3.04605 29.8997 7.5493 30.314 7.88881 31.527C8.28134 32.9221 9.05535 33.0285 9.64091 32.9037C10.442 32.7344 11.282 31.6422 11.4136 30.7847Z" fill="#3D9480"/>
<path d="M9.61456 32.1073C9.45816 32.2476 9.71717 32.6032 9.9018 32.8183C10.1102 32.7208 10.3017 32.5906 10.4691 32.4326C10.2066 32.2446 9.7702 31.968 9.61456 32.1073Z" fill="#58595B"/>
<path d="M9.64091 32.9052C9.68712 32.8951 9.73272 32.8824 9.77748 32.8671C9.67105 32.6702 9.48451 32.4169 9.28881 32.4093C9.09312 32.4017 9.09465 32.7076 9.14081 32.9361C9.30808 32.9532 9.47701 32.9428 9.64091 32.9052Z" fill="#58595B"/>
<path d="M10.1208 31.6635C9.9907 31.8241 10.326 32.1339 10.5698 32.3349C10.7296 32.1724 10.8725 31.9941 10.9962 31.8028C10.6949 31.6777 10.2329 31.5247 10.1208 31.6635Z" fill="#58595B"/>
<path d="M10.6606 31.2751C10.4939 31.4407 10.807 31.6383 11.0317 31.7474C11.1279 31.5936 11.2104 31.4318 11.2785 31.2637C11.079 31.2149 10.7781 31.1577 10.6606 31.2751Z" fill="#58595B"/>
<path d="M5.69343 28.2997C5.69343 28.2997 5.69914 28.8502 5.1853 28.925C4.67146 28.9997 4.62417 28.4958 4.75272 28.3505C4.88128 28.2051 5.10023 28.2643 5.1853 28.4054" stroke="#1F705F" stroke-width="0.16908" stroke-miterlimit="10" stroke-linecap="round"/>
<path d="M13.2489 29.3007C12.1128 29.9454 11.9427 29.3724 11.5139 30.1113C11.0508 30.9097 12.1563 32.6832 13.1962 32.9052C13.7814 33.0299 14.5558 32.9235 14.9479 31.5285C15.289 30.3154 19.7907 29.9011 18.8736 27.7492C18.0367 25.7866 13.1962 28.5988 13.1962 28.5988C13.0131 28.8719 13.0875 29.0936 13.2489 29.3007Z" fill="#49BEA2"/>
<path d="M13.2221 32.1073C13.3789 32.2476 13.1199 32.6032 12.9349 32.8183C12.7266 32.7207 12.5353 32.5905 12.368 32.4326C12.6305 32.2446 13.0669 31.968 13.2221 32.1073Z" fill="#58595B"/>
<path d="M13.1951 32.9052C13.1488 32.8952 13.1032 32.8824 13.0585 32.8671C13.1645 32.6702 13.3511 32.4169 13.5472 32.4093C13.7432 32.4017 13.7409 32.7076 13.6948 32.9361C13.5276 32.9532 13.3588 32.9427 13.1951 32.9052Z" fill="#58595B"/>
<path d="M12.7163 31.6635C12.846 31.8241 12.5111 32.1339 12.2669 32.3349C12.1073 32.1723 11.9646 31.994 11.8408 31.8028C12.1418 31.6777 12.6038 31.5247 12.7163 31.6635Z" fill="#58595B"/>
<path d="M12.1765 31.2751C12.3428 31.4407 12.03 31.6383 11.805 31.7474C11.7091 31.5935 11.6267 31.4317 11.5585 31.2637C11.7577 31.2149 12.059 31.1577 12.1765 31.2751Z" fill="#58595B"/>
<path d="M17.1436 28.2997C17.1436 28.2997 17.1379 28.8502 17.6518 28.925C18.1656 28.9997 18.2129 28.4958 18.0843 28.3505C17.9558 28.2051 17.7368 28.2643 17.6518 28.4054" stroke="#1F705F" stroke-width="0.16908" stroke-miterlimit="10" stroke-linecap="round"/>
<path d="M15.884 28.0491C15.9062 28.0464 15.9279 28.0441 15.9489 28.0426C15.9416 28.0434 15.918 28.0453 15.884 28.0491Z" fill="#3D9480"/>
<path d="M15.8841 28.0491C14.9838 28.157 13.2489 29.3007 13.2489 29.3007C13.1588 29.1862 13.0963 29.0642 13.0898 28.9329C14.209 28.2577 15.5651 28.0823 15.8841 28.0491Z" fill="#3D9480"/>
<path opacity="0.49" d="M11.4235 30.7847C12.8925 33.2139 14.3372 31.7841 14.5355 31.2043C14.7339 30.6245 15.2222 30.2964 17.1436 29.5739C19.2127 28.7957 18.6104 27.3995 18.5906 27.3572C18.714 27.4636 18.8109 27.5973 18.8736 27.7478C19.7891 29.8997 15.2878 30.314 14.9479 31.527C14.5558 32.9221 13.7814 33.0285 13.1962 32.9037C12.394 32.7344 11.5547 31.6422 11.4235 30.7847Z" fill="#3D9480"/>
<path d="M13.2221 32.1073C13.3789 32.2476 13.1199 32.6032 12.9349 32.8183C12.7266 32.7207 12.5353 32.5905 12.368 32.4326C12.6305 32.2446 13.0669 31.968 13.2221 32.1073Z" fill="#58595B"/>
<path d="M13.1951 32.9052C13.1488 32.8952 13.1032 32.8824 13.0585 32.8671C13.1645 32.6702 13.3511 32.4169 13.5472 32.4093C13.7432 32.4017 13.7409 32.7076 13.6948 32.9361C13.5276 32.9532 13.3588 32.9427 13.1951 32.9052Z" fill="#58595B"/>
<path d="M12.7163 31.6635C12.846 31.8241 12.5111 32.1339 12.2669 32.3349C12.1073 32.1723 11.9646 31.994 11.8408 31.8028C12.1418 31.6777 12.6038 31.5247 12.7163 31.6635Z" fill="#58595B"/>
<path d="M12.1765 31.2751C12.3428 31.4407 12.03 31.6383 11.805 31.7474C11.7091 31.5935 11.6267 31.4317 11.5585 31.2637C11.7577 31.2149 12.059 31.1577 12.1765 31.2751Z" fill="#58595B"/>
<path d="M17.1436 28.2997C17.1436 28.2997 17.1379 28.8502 17.6518 28.925C18.1656 28.9997 18.2129 28.4958 18.0843 28.3505C17.9558 28.2051 17.7368 28.2643 17.6518 28.4054" stroke="#1F705F" stroke-width="0.16908" stroke-miterlimit="10" stroke-linecap="round"/>
<path d="M0.572214 9.42722C0.553522 10.6903 5.30473 10.2764 11.1565 10.3626C17.0082 10.4488 21.7449 11.0038 21.7636 9.7408C21.7823 8.47775 17.0815 5.49771 11.2297 5.41112C5.37797 5.32452 0.590906 8.16418 0.572214 9.42722Z" fill="#EFCB6C"/>
<path d="M1.54304 9.35637C1.55334 8.65332 3.04337 7.46083 5.37186 6.55713L5.12277 6.81997C5.12277 6.81997 7.54318 7.02024 7.74269 7.57795C7.9422 8.13566 12.9387 8.58695 12.9387 8.58695C12.9387 8.58695 16.4761 10.7106 21.4859 9.09888C21.6698 9.33959 21.7663 9.55665 21.7636 9.7409C21.7575 10.1479 21.2605 10.3661 20.3945 10.4722C18.4509 10.5435 15.4713 10.3413 12.1269 10.2921C6.27518 10.2055 1.52435 10.6194 1.54304 9.35637Z" fill="#E2B654"/>
<path d="M17.3329 7.80374C17.3329 7.80374 17.1761 3.53127 15.8852 2.18048C15.8852 2.18048 13.2408 0.602728 11.2019 0.572592C9.16292 0.542456 6.44304 2.04088 6.44304 2.04088C6.44304 2.04088 4.63944 6.14053 4.88968 7.61949C4.88968 7.61949 8.81883 9.05954 11.1767 9.09426C13.5346 9.12897 17.3329 7.80374 17.3329 7.80374Z" fill="#EFCB6C"/>
<path d="M4.88816 7.61942C4.75427 6.82672 5.21011 5.28139 5.66215 4.01758C7.09152 5.21196 10.8765 7.74416 17.3329 7.80367C17.3329 7.80367 13.5338 9.12928 11.1752 9.09419C8.81653 9.05909 4.88816 7.61942 4.88816 7.61942Z" fill="#E2B654"/>
<path d="M4.88817 7.61952C4.82637 7.25369 4.89045 6.72727 5.02129 6.14209C5.02129 6.14209 9.09387 7.16863 11.2034 7.19991C13.3129 7.23119 17.2081 6.32252 17.2081 6.32252C17.3096 7.17435 17.3329 7.80378 17.3329 7.80378C17.3329 7.80378 13.5338 9.12939 11.1752 9.09429C8.81653 9.0592 4.88817 7.61952 4.88817 7.61952Z" fill="#A873AC"/>
<path d="M8.49115 3.38974C7.61018 3.50638 6.72207 3.56055 5.83345 3.55186C6.15923 2.68402 6.44151 2.042 6.44151 2.042C6.44151 2.042 8.62925 0.837326 10.5515 0.610352C10.4176 1.73988 9.95752 3.19366 8.49115 3.38974Z" fill="#CB9B3B"/>
<path d="M12.6499 2.79581C12.1956 2.33805 12.1754 1.35729 12.2219 0.695435C14.0251 1.07118 15.884 2.18049 15.884 2.18049C16.3418 2.66038 16.6573 3.50763 16.8736 4.40141C15.6483 4.1855 13.2042 3.35161 12.6499 2.79581Z" fill="#CB9B3B"/>
<path d="M7.24216 3.66846C7.48321 3.24084 7.46349 2.7729 7.19811 2.6233C6.93273 2.47371 6.52218 2.6991 6.28112 3.12673C6.04007 3.55435 6.0598 4.02227 6.32518 4.17187C6.59057 4.32147 7.00111 4.09609 7.24216 3.66846Z" fill="white"/>
<path d="M19.3047 8.04593C19.4153 8.04593 19.5049 7.95626 19.5049 7.84566C19.5049 7.73505 19.4153 7.64539 19.3047 7.64539C19.1941 7.64539 19.1044 7.73505 19.1044 7.84566C19.1044 7.95626 19.1941 8.04593 19.3047 8.04593Z" fill="white"/>
<path d="M6.21414 10.9212C6.21414 10.9212 6.76765 9.69819 8.06694 9.84238" stroke="#231F20" stroke-width="0.331961" stroke-miterlimit="10" stroke-linecap="round"/>
<path d="M16.7065 10.9212C16.7065 10.9212 16.153 9.69819 14.8533 9.84238" stroke="#231F20" stroke-width="0.331961" stroke-miterlimit="10" stroke-linecap="round"/>
<path d="M19.7033 23.4715C19.7033 23.4715 19.8071 23.1282 19.2703 23.1988C18.7336 23.2693 18.2785 23.3624 18.2785 23.3624L18.5101 23.9243C18.5101 23.9243 19.5366 23.8255 19.7033 23.4715Z" fill="#58595B"/>
<path d="M19.9181 24.6055C19.9181 24.6055 20.1366 24.3194 19.6087 24.1981C19.0807 24.0768 18.6234 24.0028 18.6234 24.0028L18.6428 24.6101C18.6428 24.6101 19.6377 24.8787 19.9181 24.6055Z" fill="#58595B"/>
<path d="M19.0403 25.6951C19.0403 25.6951 19.3787 25.5715 18.9995 25.185C18.6203 24.7986 18.2747 24.4896 18.2747 24.4896L17.9638 25.0119C17.9638 25.0119 18.6573 25.774 19.0403 25.6951Z" fill="#58595B"/>
<path d="M18.4685 22.3641C18.4685 22.3641 18.2198 22.1039 18.018 22.6063C17.8162 23.1087 17.672 23.5493 17.672 23.5493L18.2751 23.6256C18.2751 23.6256 18.6947 22.6834 18.4685 22.3641Z" fill="#58595B"/>
<path d="M19.1403 24.3325C19.1403 24.3325 19.2215 23.0969 18.0298 22.7749C16.8381 22.453 15.052 22.2668 14.5779 22.4236C14.1037 22.5804 13.7333 23.1255 13.7085 23.3773C13.6837 23.629 13.4453 24.1993 14.5771 24.5949C15.7089 24.9905 17.3687 25.5486 18.0184 25.422C18.668 25.2953 19.0949 24.7601 19.1403 24.3325Z" fill="#49BEA2"/>
<path opacity="0.49" d="M18.0184 25.4212C17.3699 25.5482 15.7093 24.9901 14.5771 24.5941C14.1152 24.4328 13.8813 24.242 13.7684 24.0559C17.8978 25.4673 18.8732 24.2935 19.0861 23.8495C19.1267 24.0067 19.1449 24.169 19.1403 24.3313C19.0949 24.7601 18.668 25.2941 18.0184 25.4212Z" fill="#3D9480"/>
<path d="M17.4459 22.8978C17.4621 22.7733 17.1489 22.6297 16.7461 22.577C16.3433 22.5243 16.0036 22.5826 15.9873 22.7071C15.9711 22.8316 16.2844 22.9752 16.6871 23.0279C17.0899 23.0805 17.4296 23.0223 17.4459 22.8978Z" fill="white"/>
<path d="M6.26258 23.0345C6.66545 22.9827 6.97905 22.8397 6.96303 22.7152C6.94701 22.5907 6.60744 22.5317 6.20457 22.5835C5.8017 22.6354 5.4881 22.7783 5.50412 22.9029C5.52014 23.0274 5.85971 23.0864 6.26258 23.0345Z" fill="white"/>
<path d="M15.6872 22.9424C15.8138 22.9424 15.9165 22.8879 15.9165 22.8207C15.9165 22.7535 15.8138 22.699 15.6872 22.699C15.5606 22.699 15.4579 22.7535 15.4579 22.8207C15.4579 22.8879 15.5606 22.9424 15.6872 22.9424Z" fill="white"/>
<path d="M5.05581 27.5296C5.27166 27.5181 5.44229 27.4267 5.43689 27.3255C5.4315 27.2243 5.25214 27.1516 5.03629 27.1631C4.82044 27.1746 4.64983 27.266 4.65523 27.3672C4.66062 27.4684 4.83996 27.5411 5.05581 27.5296Z" fill="white"/>
<path d="M10.9849 29.9232C10.9996 29.8568 10.8962 29.7775 10.7541 29.7461C10.6119 29.7146 10.4848 29.7431 10.4701 29.8095C10.4554 29.8759 10.5588 29.9553 10.7009 29.9867C10.8431 30.0181 10.9702 29.9897 10.9849 29.9232Z" fill="white"/>
<path d="M17.7224 27.4551C17.9604 27.4551 18.1534 27.3844 18.1534 27.2972C18.1534 27.21 17.9604 27.1393 17.7224 27.1393C17.4843 27.1393 17.2913 27.21 17.2913 27.2972C17.2913 27.3844 17.4843 27.4551 17.7224 27.4551Z" fill="white"/>
<path d="M17.0315 27.4655C17.1261 27.4655 17.2028 27.4176 17.2028 27.3586C17.2028 27.2997 17.1261 27.2518 17.0315 27.2518C16.9369 27.2518 16.8602 27.2997 16.8602 27.3586C16.8602 27.4176 16.9369 27.4655 17.0315 27.4655Z" fill="white"/>
<path d="M18.023 13.8814C18.1958 13.8576 18.281 13.4389 18.2133 12.9461C18.1456 12.4533 17.9507 12.0731 17.7779 12.0968C17.605 12.1205 17.5198 12.5393 17.5875 13.0321C17.6552 13.5248 17.8501 13.9051 18.023 13.8814Z" fill="white"/>
</g>
<defs>
<clipPath id="clip0_632_4582">
<rect width="22.3358" height="33.5163" fill="white"/>
</clipPath>
</defs>
</svg>
