<svg width="207" height="199" viewBox="0 0 207 199" fill="none" xmlns="http://www.w3.org/2000/svg">
<g clip-path="url(#clip0_2852_548)">
<path d="M169.17 4.31006H4.31006V169.17H169.17V4.31006Z" stroke="white" stroke-width="8.61" stroke-linecap="round" stroke-linejoin="round"/>
<path d="M74.2398 4.31006H43.5298V102.21H74.2398V4.31006Z" fill="#080A0B" stroke="white" stroke-width="8.61" stroke-linecap="round" stroke-linejoin="round"/>
<path d="M58.8799 102.21V169.17" stroke="white" stroke-width="8.61" stroke-linecap="round" stroke-linejoin="round"/>
<path d="M129.95 4.31006H99.2402V102.21H129.95V4.31006Z" fill="#0A0D0D" stroke="white" stroke-width="8.61" stroke-linecap="round" stroke-linejoin="round"/>
<path d="M114.59 102.21V169.17" stroke="white" stroke-width="8.61" stroke-linecap="round" stroke-linejoin="round"/>
<path d="M200.97 146.27C201.935 146.248 202.899 146.366 203.83 146.62C204.444 146.795 205.025 147.069 205.55 147.43C205.999 147.816 206.314 148.334 206.45 148.91C206.625 149.456 206.735 150.019 206.78 150.59C206.78 151.04 206.78 151.73 206.78 152.67V191.83C206.789 192.641 206.756 193.452 206.68 194.26C206.574 194.912 206.358 195.541 206.04 196.12C205.858 196.475 205.605 196.79 205.297 197.044C204.99 197.299 204.633 197.488 204.25 197.6C203.149 197.916 202.005 198.058 200.86 198.02C199.738 198.054 198.618 197.912 197.54 197.6C197.162 197.489 196.809 197.305 196.502 197.058C196.195 196.811 195.939 196.506 195.75 196.16C195.421 195.573 195.207 194.928 195.12 194.26C195.04 193.406 195.007 192.548 195.02 191.69V166.59L194.15 167.43C192.34 168.89 190.83 169.61 189.64 169.61C188.88 169.57 188.138 169.359 187.47 168.994C186.802 168.629 186.225 168.118 185.78 167.5C184.187 165.633 183.39 164.04 183.39 162.72C183.39 161.507 184.187 160.15 185.78 158.65L196.68 148.24L196.88 148.1C197.391 147.52 198.02 147.056 198.726 146.74C199.432 146.424 200.197 146.264 200.97 146.27Z" fill="white"/>
</g>
<defs>
<clipPath id="clip0_2852_548">
<rect width="206.81" height="198.02" fill="white"/>
</clipPath>
</defs>
</svg>
