<svg width="686" height="951" viewBox="0 0 686 951" fill="none" xmlns="http://www.w3.org/2000/svg">
<g clip-path="url(#clip0_4890_608)">
<path d="M375.84 950.84C546.822 950.84 685.43 921.778 685.43 885.93C685.43 850.081 546.822 821.02 375.84 821.02C204.858 821.02 66.25 850.081 66.25 885.93C66.25 921.778 204.858 950.84 375.84 950.84Z" fill="#A7A9AC"/>
<path d="M281.9 900.93C277.922 900.93 274.106 899.35 271.293 896.537C268.48 893.724 266.9 889.909 266.9 885.93V859.16C226.546 841.265 191.203 813.734 163.976 778.985C136.75 744.237 118.473 703.334 110.75 659.87C109.406 652.289 109.739 644.506 111.726 637.068C113.713 629.629 117.306 622.717 122.251 616.815C127.196 610.914 133.374 606.168 140.35 602.911C147.326 599.653 154.931 597.964 162.63 597.961H355.7C355.323 585.614 354.322 573.295 352.7 561.05C351.93 555.05 339.56 548.73 326.46 542.05C297.3 527.18 254.28 505.24 248.78 442.15C218.55 440.57 193.32 431.42 173.63 414.87C163.605 406.405 155.184 396.206 148.77 384.76C147.61 384.83 146.39 384.87 145.15 384.87C132.57 384.87 122.15 380.56 115 372.69C111.977 373.687 108.813 374.183 105.63 374.16C97.02 374.16 88.49 370.7 82.5 367.52C76.3956 370.125 69.8458 371.528 63.21 371.65C42.99 371.65 32.28 357.47 27.48 344.46C19.5861 342.234 12.5904 337.586 7.48004 331.17C0.38004 322.06 -1.78997 310.11 1.38003 297.53C4.89003 283.61 13.12 274.05 24.2 270.47C23.7661 261.406 26.2971 252.447 31.41 244.95C29.3874 239.173 28.4681 233.067 28.7 226.95C28.9783 223.166 30.6807 219.627 33.4641 217.048C36.2476 214.469 39.9052 213.04 43.7 213.05C44.22 213.05 44.7 213.05 45.26 213.13C51.2 213.749 56.9957 215.351 62.41 217.87C68.8836 215.043 76.189 214.779 82.85 217.13C86.5741 213.419 91.2427 210.798 96.35 209.55C96.7928 207.99 97.3613 206.469 98.05 205C93.1236 201.897 89.148 197.496 86.56 192.28C77.8625 190.116 69.8906 185.694 63.45 179.46C62.0644 178.006 60.9848 176.289 60.2755 174.409C59.5662 172.53 59.2416 170.528 59.3209 168.521C59.4002 166.513 59.8818 164.543 60.7371 162.725C61.5924 160.908 62.804 159.281 64.3 157.94C66.8147 155.689 69.5368 153.68 72.43 151.94C71.8784 146.524 72.3879 141.052 73.93 135.83C72.51 126.83 71.18 106.83 83.18 90.3105C88.18 83.4105 97.05 75.3105 112.23 71.0905C112.4 57.6605 116.65 41.8705 130.55 32.2305C131.8 23.3036 135.399 14.8692 140.98 7.79045C142.285 6.26268 143.883 5.0125 145.679 4.11409C147.476 3.21568 149.435 2.68736 151.44 2.56046H152.38C156.113 2.56297 159.71 3.9571 162.47 6.47045C162.91 6.86045 163.33 7.26046 163.75 7.66046C164.947 6.80627 166.196 6.02807 167.49 5.33045C169.907 4.06632 172.622 3.48492 175.344 3.64878C178.066 3.81265 180.693 4.71558 182.94 6.26045C187.005 7.0755 190.917 8.52666 194.53 10.5605C198.776 9.74924 203.087 9.32748 207.41 9.30046C216.25 9.30046 222.91 11.3005 227.84 13.9305C228.029 11.4244 228.845 9.00616 230.213 6.89771C231.581 4.78927 233.456 3.05824 235.667 1.8636C237.878 0.66897 240.354 0.0490285 242.867 0.0607089C245.38 0.0723893 247.85 0.715318 250.05 1.93045C258.018 6.21107 265.242 11.7527 271.44 18.3405C289.01 20.2005 305.44 26.7804 318.21 37.2104C327.83 45.0604 334.9 54.7105 338.41 64.4505C346.121 66.9295 353.013 71.4575 358.35 77.5504C362.943 82.9984 366.044 89.5451 367.35 96.5504C376.63 99.1804 389.03 106.61 395.62 127.06C398.462 127.655 401.213 128.623 403.8 129.94C401.38 122.13 400.22 112.15 404.64 102.56C409.35 92.3405 418.69 85.5604 432.47 82.2704C439.36 69.5304 453.33 54.8305 475.68 54.8305C481.584 54.88 487.444 55.8483 493.05 57.7005C498.4 53.8605 505.92 50.0605 514.67 50.0605C520.53 50.0605 530.67 51.9104 539.28 62.8804C546.768 63.6201 554.121 65.3693 561.14 68.0805C576.01 73.9905 586.05 84.0805 590.4 97.2205C596.462 98.2143 602.252 100.459 607.4 103.81C610.559 106.01 612.752 109.34 613.525 113.111C614.297 116.882 613.59 120.806 611.55 124.07C619.88 133.3 624.39 145.96 624.35 160.87C624.3 173.38 621.07 184.48 614.72 193.96C615.443 199.271 615.172 204.669 613.92 209.88C619.85 217.74 624.66 229.82 621.51 247.38C618.83 262.38 611.09 274.45 599.3 282.38C600.102 291.927 598.206 301.508 593.83 310.03C592.84 311.777 591.508 313.308 589.916 314.531C588.323 315.754 586.5 316.644 584.557 317.15C582.613 317.655 580.588 317.765 578.601 317.473C576.614 317.181 574.706 316.494 572.99 315.45C569.588 313.393 566.422 310.969 563.55 308.22C562.044 309.219 560.467 310.105 558.83 310.87C536.24 343.87 500.22 364.58 456.83 369.51C442.18 372.22 427.44 372.44 412.37 372.44H406.77C395.16 372.44 384.64 372.55 374.49 373.86C366.99 377.86 361.56 386.86 359.81 398.49C357.81 412.1 361.42 425.59 368.95 432.4C375.77 436.72 382.21 437.33 391.01 438.17C409.16 439.89 431.74 442.03 459.2 477.38L459.64 477.98C480.96 508.41 490.79 542.721 500.29 575.901C501.72 580.901 503.15 585.901 504.62 590.901L504.71 591.211C505.32 593.451 505.93 595.69 506.56 597.97H589.11C596.804 597.981 604.402 599.676 611.371 602.936C618.341 606.196 624.512 610.942 629.451 616.841C634.39 622.74 637.978 629.649 639.963 637.083C641.948 644.516 642.281 652.294 640.94 659.87C633.729 700.458 617.309 738.851 592.94 772.1C591.8 773.65 590.65 775.19 589.47 776.72C585.98 781.27 582.29 785.72 578.47 790.09C575.95 792.98 573.33 795.84 570.7 798.6C568.07 801.36 565.21 804.24 562.34 807C548.042 820.73 532.281 832.849 515.34 843.141C513.813 844.074 512.27 844.99 510.71 845.891C506.04 848.601 501.36 851.141 496.78 853.451C492.85 855.451 488.78 857.35 484.69 859.17V885.94C484.69 889.919 483.11 893.734 480.297 896.547C477.484 899.36 473.668 900.94 469.69 900.94L281.9 900.93ZM232.32 389.03C238.619 390.549 245.048 391.463 251.52 391.76C252.15 388.14 252.85 384.45 253.64 380.76C255.749 370.71 258.844 360.893 262.88 351.45C256.959 357.18 249.802 361.474 241.96 364C240.134 372.814 236.878 381.269 232.32 389.03ZM277.63 323.87C277.48 324.57 277.33 325.25 277.16 325.93C279.688 322.372 282.395 318.945 285.27 315.66L284.82 315.4C283.72 314.73 282.64 314.03 281.6 313.29C281.707 317.2 280.282 320.996 277.63 323.87Z" fill="#231F20"/>
<path d="M390.92 272.8C390.92 272.8 379.63 305.36 354.37 291.34C354.37 291.34 341.49 314.74 324.37 288.67C324.37 288.67 295.37 298.21 287.37 275.23C287.37 275.23 256.46 284.3 249.95 256.36C243.6 229.13 263.1 226.01 263.1 226.01C263.1 226.01 248.1 204.56 274.1 191.28C274.1 191.28 259.5 158.01 297.16 160.01C297.16 160.01 314.16 128.13 345.45 150.33C345.45 150.33 366.91 133.08 374.72 157.58C374.72 157.58 422.02 164.9 406.96 203.39C406.96 203.39 434.66 208.94 429.05 240.31C423.36 272.23 390.92 272.8 390.92 272.8Z" fill="#124C2D"/>
<path d="M568.63 277.179C568.63 277.179 557.35 309.729 532.08 295.719C532.08 295.719 519.2 319.119 502.08 293.039C502.08 293.039 473.08 302.579 465.08 279.609C465.08 279.609 434.17 288.669 427.66 260.729C421.31 233.499 440.81 230.389 440.81 230.389C440.81 230.389 425.81 208.929 451.81 195.649C451.81 195.649 437.21 162.389 474.87 164.389C474.87 164.389 491.87 132.509 523.16 154.699C523.16 154.699 544.62 137.459 552.43 161.959C552.43 161.959 599.73 169.279 584.67 207.759C584.67 207.759 612.37 213.309 606.76 244.679C601.04 276.609 568.63 277.179 568.63 277.179Z" fill="#124C2D"/>
<path d="M210.07 98.5495C210.07 98.5495 216.62 34.2195 257.86 32.7795C299.1 31.3395 324.99 58.5395 325.86 76.9395C325.86 76.9395 356.1 78.8195 353.06 110.67C353.06 110.67 377.16 103.42 383.67 141.32C383.67 141.32 411.28 137.32 401.53 165.9C401.53 165.9 432.79 178.65 411.69 195.19C411.69 195.19 436.28 207.08 408.89 228.76C408.89 228.76 410.89 258.85 375.17 250.03C375.17 250.03 375.29 269.25 345.17 265.33C315.05 261.41 324.28 242.44 324.28 242.44C324.28 242.44 301.59 256.96 293.78 239.08C293.78 239.08 276.94 262.43 254.67 243.78C254.67 243.78 187.44 273.78 192.85 208.84C192.85 208.84 157.07 200.84 166.57 166.07C166.57 166.07 145.28 135.07 169.87 116.28C194.46 97.4895 210.07 98.5495 210.07 98.5495Z" fill="#1C6A43"/>
<path d="M562.05 133.509C562.05 133.509 556.53 79.2394 521.74 78.0194C486.95 76.7994 465.11 99.7494 464.35 115.279C464.35 115.279 438.83 116.869 441.35 143.729C441.35 143.729 421.02 137.619 415.53 169.589C415.53 169.589 392.24 166.219 400.46 190.329C400.46 190.329 374.09 201.079 391.89 215.039C391.89 215.039 371.14 225.039 394.25 243.349C394.25 243.349 392.59 268.749 422.7 261.299C422.7 261.299 422.59 277.519 448.04 274.209C473.49 270.899 465.72 254.869 465.72 254.869C465.72 254.869 484.85 267.119 491.45 252.029C491.45 252.029 505.65 271.739 524.45 256.029C524.45 256.029 581.17 281.299 576.6 226.549C576.6 226.549 606.79 219.849 598.77 190.469C598.77 190.469 616.77 164.269 595.99 148.469C575.21 132.669 562.05 133.509 562.05 133.509Z" fill="#1C6A43"/>
<path d="M561.01 246.75C597.08 273.75 580.77 302.56 580.77 302.56C580.77 302.56 574.08 263.96 561.01 246.75Z" fill="#124C2D"/>
<path d="M580.77 302.56C553.38 285.92 561.01 246.75 561.01 246.75C574.08 263.96 580.77 302.56 580.77 302.56Z" fill="#124C2D"/>
<path d="M272.8 246.75C308.87 273.75 292.57 302.56 292.57 302.56C292.57 302.56 285.88 263.96 272.8 246.75Z" fill="#124C2D"/>
<path d="M292.57 302.56C265.18 285.92 272.8 246.75 272.8 246.75C285.88 263.96 292.57 302.56 292.57 302.56Z" fill="#124C2D"/>
<path d="M563.63 199.869C603.07 221.699 590.88 252.439 590.88 252.439C590.88 252.439 578.95 215.069 563.63 199.869Z" fill="#1C6A43"/>
<path d="M590.89 252.389C561.47 239.669 563.63 199.869 563.63 199.869C578.95 215.069 590.89 252.389 590.89 252.389Z" fill="#1C6A43"/>
<path d="M242.79 15C282.24 36.82 270.05 67.56 270.05 67.56C270.05 67.56 258.11 30.25 242.79 15Z" fill="#1C6A43"/>
<path d="M270.05 67.56C240.63 54.87 242.79 15 242.79 15C258.11 30.25 270.05 67.56 270.05 67.56Z" fill="#1C6A43"/>
<path d="M224.99 352.06C224.99 352.06 213.71 384.62 188.44 370.6C188.44 370.6 175.56 394 158.44 367.93C158.44 367.93 129.44 377.47 121.44 354.49C121.44 354.49 90.53 363.56 84.02 335.62C77.67 308.39 97.17 305.27 97.17 305.27C97.17 305.27 82.17 283.82 108.17 270.54C108.17 270.54 93.57 237.27 131.23 239.27C131.23 239.27 148.23 207.39 179.52 229.59C179.52 229.59 200.98 212.34 208.79 236.84C208.79 236.84 256.09 244.17 241.03 282.65C241.03 282.65 268.73 288.2 263.12 319.57C257.43 351.5 224.99 352.06 224.99 352.06Z" fill="#124C2D"/>
<path d="M530.78 209.03C530.456 215.726 529.789 222.402 528.78 229.03C525.3 258.98 512.78 277.48 494.97 287.78C501.78 255.9 495.2 220.52 494.76 218.19L482.43 220.56C482.54 221.15 490.35 263.24 480.43 294.1C460.55 300.3 436.43 299.48 411.36 294.66C393.22 290.15 376.63 289.17 361.68 291.03C360.953 279.983 357.256 269.339 350.98 260.22C342.56 248.07 326.41 234.22 295.98 230.52C290.09 214.03 296.79 197.09 296.87 196.88L291.06 194.5L296.87 196.9L285.26 192.1C284.87 193.1 277.84 210.5 282.54 229.59C279.76 229.54 276.9 229.59 273.92 229.66C266.86 229.9 261.61 228.3 257.84 224.76C251.84 219.13 250.31 209.15 250.21 205.76V205.87L223.11 206.18C223.11 208.55 223.82 229.74 239.02 244.25C248.09 252.91 260.47 257.25 274.84 256.73C300.9 255.83 319.54 262.37 328.75 275.65C333.24 282.226 335.305 290.159 334.59 298.09C299.01 312.8 276.41 346.17 268.44 383.81C266.71 391.96 265.44 399.61 264.61 406.81C241.72 407.66 222.61 403.81 207.55 395.27C221.23 384.17 228.71 366.68 229.36 343.84C229.626 330.136 227.881 316.467 224.18 303.27L212.18 306.93C212.37 307.56 229.46 365.45 196.63 387.72C163.79 360.12 166.95 310.59 166.99 310.09L156.82 309.34L146.56 308.56C146.37 311.01 142.46 368.95 183.44 403.4C202.44 419.4 227.57 427.4 258.49 427.4C260.08 427.4 261.69 427.4 263.31 427.33C262.55 530.87 362.73 521.45 367.56 559.15C375.78 623.43 367.16 649.96 354.56 691.75H518.56C508.72 658.67 499.26 628.46 490.22 595.13C479.22 557.75 470.3 519.35 447.34 486.58C409.9 438.38 387.34 462.77 359.88 444.4C335.59 424.05 339.99 372 370.18 359.3C397.77 355.3 426.83 359.9 454.6 354.66C521.85 347.25 565.49 299.42 569.09 232.17C569.86 224.17 570.21 216.17 570.45 208.17L530.78 209.03Z" fill="#A86145"/>
<path d="M549.73 208.61C552.18 241.87 548.63 314.24 471.9 318.19C381.82 322.82 323.31 311.52 312.77 409.67C302.77 502.67 397.7 473.16 415.46 510.98C428.52 538.78 425.58 637.36 410 691.75H518.54C508.7 658.67 499.24 628.46 490.2 595.13C479.2 557.75 470.28 519.35 447.32 486.58C409.88 438.38 387.32 462.77 359.86 444.4C335.57 424.05 339.97 372 370.16 359.3C397.75 355.3 426.81 359.9 454.58 354.66C521.83 347.25 565.47 299.42 569.07 232.17C569.84 224.17 570.19 216.17 570.43 208.17L549.73 208.61Z" fill="#79412D"/>
<path d="M490.2 595.13C479.2 557.75 470.28 519.35 447.32 486.58C409.88 438.38 387.32 462.77 359.86 444.4C335.57 424.05 339.97 372 370.16 359.3C397.75 355.3 426.81 359.9 454.58 354.66C521.83 347.25 565.47 299.42 569.07 232.17C569.84 224.17 570.19 216.17 570.43 208.17L562.02 208.36C561.74 289.36 533.72 312.81 501.21 326.86C471.52 339.69 408.98 336.39 370.42 345.94C331.86 355.49 325.3 401.19 329.95 432.29C335.63 470.29 408.43 464.16 430.39 493.19C453.57 523.82 466.61 640.37 471.27 691.78H518.54C508.7 658.67 499.24 628.46 490.2 595.13Z" fill="#502314"/>
<path d="M195.87 176.49C195.87 176.49 187.66 145.8 163.7 164.3C163.7 164.3 115.83 148.57 129.05 199.01C129.05 199.01 105.12 204.17 111.05 224.2C111.05 224.2 90.0501 218.37 88.6701 240.06C88.6701 240.06 73.67 216.92 56.56 242.76C56.56 242.76 29.27 253.66 43.17 285.64C43.17 285.64 22.2301 276.32 15.9601 301.21C9.69006 326.1 34.96 333.21 39.36 330.11C39.36 330.11 43.6 372.02 83.41 350.55C83.41 350.55 116 373.89 119.27 343.83C119.27 343.83 135.34 362.97 150.42 341.17C150.42 341.17 170.62 365.01 182.6 345.17C182.6 345.17 229.6 364.68 232.45 334.04C232.45 334.04 262.66 335.2 251.34 299.46C251.34 299.46 270.51 299.55 262.13 274.46C262.13 274.46 274.05 224.86 224.45 221.24C224.46 221.3 234.89 178.56 195.87 176.49Z" fill="#63B446"/>
<path d="M158.32 38.7091C158.32 38.7091 166.87 8.05911 191.8 26.5291C191.8 26.5291 241.61 10.8191 227.85 61.2091C227.85 61.2091 252.75 66.3691 246.57 86.3691C246.57 86.3691 268.39 80.5491 269.86 102.209C269.86 102.209 285.48 79.0891 303.28 104.909C303.28 104.909 331.67 115.789 317.21 147.739C317.21 147.739 339 138.439 345.52 163.299C352.04 188.159 325.72 195.299 321.17 192.169C321.17 192.169 316.76 234.029 275.33 212.589C275.33 212.589 241.42 235.899 238.02 205.869C238.02 205.869 221.3 224.989 205.61 203.209C205.61 203.209 184.61 227.029 172.12 207.209C172.12 207.209 123.24 226.699 120.25 196.089C120.25 196.089 88.8201 197.249 100.59 161.549C100.59 161.549 80.6501 161.639 89.3701 136.549C89.3701 136.549 76.9601 87.0091 128.57 83.3991C128.57 83.4791 117.72 40.7791 158.32 38.7091Z" fill="#63B446"/>
<path d="M572.37 205.36C572.37 205.36 566.03 244.68 534.37 233.75C534.37 233.75 524.37 262.96 499.62 236.68C499.62 236.68 468.49 253.32 454.78 228.74C454.78 228.74 421.36 245.22 408.34 214.69C395.66 184.95 417.27 177.52 417.27 177.52C417.27 177.52 395.88 156.07 422.87 135.78C422.87 135.78 399.58 100.78 442.87 95.5797C442.87 95.5797 455.82 55.8997 495.98 74.9397C495.98 74.9397 516.98 51.0297 530.79 77.3697C530.79 77.3697 586.17 76.2897 576.7 123.12C576.7 123.12 609.38 123.93 609.27 160.76C609.22 198.26 572.37 205.36 572.37 205.36Z" fill="#63B446"/>
<path d="M188.68 169.311C213.467 169.311 233.56 149.217 233.56 124.431C233.56 99.6442 213.467 79.5508 188.68 79.5508C163.893 79.5508 143.8 99.6442 143.8 124.431C143.8 149.217 163.893 169.311 188.68 169.311Z" fill="#9FCC3B"/>
<path d="M144.97 297.29C166.404 297.29 183.78 281.535 183.78 262.1C183.78 242.665 166.404 226.91 144.97 226.91C123.536 226.91 106.16 242.665 106.16 262.1C106.16 281.535 123.536 297.29 144.97 297.29Z" fill="#9FCC3B"/>
<path d="M233.56 191.511C254.994 191.511 272.37 175.756 272.37 156.321C272.37 136.886 254.994 121.131 233.56 121.131C212.126 121.131 194.75 136.886 194.75 156.321C194.75 175.756 212.126 191.511 233.56 191.511Z" fill="#9FCC3B"/>
<path d="M109.22 321.311C124.828 321.311 137.48 309.836 137.48 295.681C137.48 281.526 124.828 270.051 109.22 270.051C93.6124 270.051 80.96 281.526 80.96 295.681C80.96 309.836 93.6124 321.311 109.22 321.311Z" fill="#9FCC3B"/>
<path d="M221.24 279.101C233.617 279.101 243.65 270.003 243.65 258.781C243.65 247.559 233.617 238.461 221.24 238.461C208.863 238.461 198.83 247.559 198.83 258.781C198.83 270.003 208.863 279.101 221.24 279.101Z" fill="#9FCC3B"/>
<path d="M548.75 128.72C575.16 99.5705 598.83 116.06 598.83 116.06C598.83 116.06 564.76 118.75 548.75 128.72Z" fill="#63B446"/>
<path d="M598.83 116.061C582.16 138.511 548.75 128.721 548.75 128.721C564.76 118.751 598.83 116.061 598.83 116.061Z" fill="#4CA84E"/>
<path d="M405.4 229.369C440.22 200.749 464.3 223.369 464.3 223.369C464.3 223.369 425.22 220.749 405.4 229.369Z" fill="#63B446"/>
<path d="M464.3 223.411C441.64 246.071 405.4 229.411 405.4 229.411C425.22 220.751 464.3 223.411 464.3 223.411Z" fill="#4CA84E"/>
<path d="M434.85 250.72C443.02 206.39 476.04 208.19 476.04 208.19C476.04 208.19 444.45 231.36 434.85 250.72Z" fill="#63B446"/>
<path d="M476.04 208.189C473.32 240.119 434.85 250.719 434.85 250.719C444.45 231.359 476.04 208.189 476.04 208.189Z" fill="#4CA84E"/>
<path d="M161.11 76.0505C130.88 42.6105 152.38 17.4805 152.38 17.4805C152.38 17.4805 151.57 56.6505 161.11 76.0505Z" fill="#63B446"/>
<path d="M152.38 17.4805C176.08 39.0505 161.11 76.0505 161.11 76.0505C151.57 56.6505 152.38 17.4805 152.38 17.4805Z" fill="#4CA84E"/>
<path d="M160.76 76.1491C145.13 33.8691 174.44 18.5391 174.44 18.5391C174.44 18.5391 159.12 54.5991 160.76 76.1491Z" fill="#63B446"/>
<path d="M174.44 18.5391C188.44 47.3791 160.76 76.1491 160.76 76.1491C159.12 54.5991 174.44 18.5391 174.44 18.5391Z" fill="#4CA84E"/>
<path d="M266.56 313.68C228.72 305.95 230.81 277.68 230.81 277.68C230.81 277.68 250.13 305.14 266.56 313.68Z" fill="#63B446"/>
<path d="M230.81 277.699C258.12 280.549 266.56 313.699 266.56 313.699C250.13 305.139 230.81 277.699 230.81 277.699Z" fill="#4CA84E"/>
<path d="M85.4399 270.061C41.2699 261.061 43.6999 228.061 43.6999 228.061C43.6999 228.061 66.2599 260.091 85.4399 270.061Z" fill="#63B446"/>
<path d="M43.7 228.061C75.58 231.391 85.4399 270.061 85.4399 270.061C66.2599 260.091 43.7 228.061 43.7 228.061Z" fill="#4CA84E"/>
<path d="M133.45 166.369C97.1101 193.039 74.3101 169.099 74.3101 169.099C74.3101 169.099 113.19 173.869 133.45 166.369Z" fill="#63B446"/>
<path d="M74.3101 169.1C98.1701 147.71 133.45 166.37 133.45 166.37C113.19 173.87 74.3101 169.1 74.3101 169.1Z" fill="#4CA84E"/>
<path d="M286.84 128.15C294.84 87.9597 324.37 95.1497 324.37 95.1497C324.37 95.1497 295.73 111.61 286.84 128.15Z" fill="#63B446"/>
<path d="M324.37 95.1895C321.45 124.669 286.84 128.189 286.84 128.189C295.73 111.609 324.37 95.1895 324.37 95.1895Z" fill="#4CA84E"/>
<path d="M516.93 199.199C541.717 199.199 561.81 179.106 561.81 154.319C561.81 129.533 541.717 109.439 516.93 109.439C492.144 109.439 472.05 129.533 472.05 154.319C472.05 179.106 492.144 199.199 516.93 199.199Z" fill="#9FCC3B"/>
<path d="M474.63 216.909C494.065 216.909 509.82 201.154 509.82 181.719C509.82 162.284 494.065 146.529 474.63 146.529C455.195 146.529 439.44 162.284 439.44 181.719C439.44 201.154 455.195 216.909 474.63 216.909Z" fill="#9FCC3B"/>
<path d="M469.78 839.381H281.9V885.931H469.78V839.381Z" fill="#3B3B49"/>
<path d="M162.63 612.961C157.122 612.965 151.683 614.176 146.693 616.508C141.703 618.84 137.285 622.237 133.749 626.459C130.213 630.681 127.644 635.627 126.225 640.949C124.805 646.27 124.568 651.838 125.53 657.261C146.53 776.521 250.59 867.131 375.85 867.131C501.11 867.131 605.21 776.521 626.18 657.261C627.142 651.838 626.905 646.27 625.485 640.949C624.066 635.627 621.497 630.681 617.961 626.459C614.425 622.237 610.007 618.84 605.017 616.508C600.027 614.176 594.588 612.965 589.08 612.961H162.63Z" fill="#3B3B49"/>
<path d="M589.07 612.961H474.81C480.318 612.965 485.757 614.176 490.747 616.508C495.737 618.84 500.155 622.237 503.691 626.459C507.227 630.681 509.795 635.627 511.215 640.949C512.635 646.27 512.872 651.838 511.91 657.261C494.23 757.811 417.45 838.001 318.71 860.681C337.449 864.979 356.614 867.142 375.84 867.131C501.11 867.131 605.2 776.521 626.17 657.261C627.132 651.838 626.895 646.27 625.475 640.949C624.055 635.627 621.487 630.681 617.951 626.459C614.415 622.237 609.997 618.84 605.007 616.508C600.017 614.176 594.578 612.965 589.07 612.961Z" fill="#605C74"/>
<path d="M173.77 679.48C184.623 679.48 193.42 670.682 193.42 659.83C193.42 648.977 184.623 640.18 173.77 640.18C162.918 640.18 154.12 648.977 154.12 659.83C154.12 670.682 162.918 679.48 173.77 679.48Z" fill="#605C74"/>
<path d="M573.79 151.02C578.512 151.02 582.34 147.192 582.34 142.47C582.34 137.748 578.512 133.92 573.79 133.92C569.068 133.92 565.24 137.748 565.24 142.47C565.24 147.192 569.068 151.02 573.79 151.02Z" fill="white"/>
<path d="M190.51 48.0108C194.227 48.0108 197.24 44.9977 197.24 41.2808C197.24 37.5639 194.227 34.5508 190.51 34.5508C186.793 34.5508 183.78 37.5639 183.78 41.2808C183.78 44.9977 186.793 48.0108 190.51 48.0108Z" fill="white"/>
<path d="M592.67 169.581C598.099 169.581 602.5 162.748 602.5 154.321C602.5 145.893 598.099 139.061 592.67 139.061C587.241 139.061 582.84 145.893 582.84 154.321C582.84 162.748 587.241 169.581 592.67 169.581Z" fill="white"/>
<path d="M563.392 116.624C567.604 113.199 566.708 105.122 561.39 98.5832C556.073 92.0446 548.348 89.5208 544.136 92.9462C539.924 96.3716 540.82 104.449 546.138 110.988C551.455 117.526 559.18 120.05 563.392 116.624Z" fill="white"/>
<path d="M211.4 67.5591C216.829 67.5591 221.23 60.7269 221.23 52.2991C221.23 43.8712 216.829 37.0391 211.4 37.0391C205.971 37.0391 201.57 43.8712 201.57 52.2991C201.57 60.7269 205.971 67.5591 211.4 67.5591Z" fill="white"/>
</g>
<defs>
<clipPath id="clip0_4890_608">
<rect width="685.44" height="950.84" fill="white"/>
</clipPath>
</defs>
</svg>
