<svg width="445" height="781" viewBox="0 0 445 781" fill="none" xmlns="http://www.w3.org/2000/svg">
<g clip-path="url(#clip0_4884_793)">
<path d="M203.82 780.909C316.387 780.909 407.64 758.792 407.64 731.509C407.64 704.227 316.387 682.109 203.82 682.109C91.2533 682.109 0 704.227 0 731.509C0 758.792 91.2533 780.909 203.82 780.909Z" fill="#A7A9AC"/>
<path d="M440.57 273.54C438.893 271.858 436.838 270.6 434.577 269.871C432.316 269.143 429.914 268.964 427.57 269.35C423.38 270.03 324.12 287.56 253.44 417.35L253.06 418.05C252 420.05 250.93 422.05 249.88 424.05L249.57 424.65C247.41 428.79 245.28 433.08 243.2 437.42L242.84 438.17C241.84 440.27 240.84 442.41 239.84 444.57L239.58 445.14C250.58 367.24 275.49 301.58 296.5 257.05C305.987 236.881 316.49 217.205 327.97 198.1C330.13 198.359 332.304 198.49 334.48 198.49C372.55 198.49 403.48 159.05 413.24 121.95C413.46 121.11 413.67 120.28 413.87 119.44C415.064 114.489 415.879 109.455 416.31 104.38C416.39 103.38 416.46 102.43 416.52 101.46L416.59 100.08C416.59 99.58 416.65 99.08 416.67 98.57C416.69 98.06 416.67 97.52 416.72 97.01V95.78C416.72 95.14 416.72 94.51 416.72 93.85V90.7C416.592 79.0345 415.484 67.4003 413.41 55.92C413.41 55.75 413.34 55.57 413.31 55.4C411.31 44.6 408.75 35.35 406.01 29.29C404.62 26.2165 402.235 23.7011 399.24 22.15C398.39 20.4 397.81 19.36 397.66 19.1C396.317 16.7023 394.338 14.7227 391.94 13.38C391.185 11.382 390.012 9.56821 388.5 8.06001C383.13 2.71001 375.5 0 365.97 0C345.58 0 317.03 12.76 299.38 25.37C279.96 39.23 258.38 74.1 255.98 108.48C254.51 129.29 259.98 148.02 271.76 163.34C259.185 184.237 247.67 205.754 237.26 227.81C224.598 254.532 213.538 281.984 204.14 310.02C197.64 278.43 191.34 251.19 186.22 230.2C186.22 230.2 187.12 229.2 187.46 228.82L188.31 227.82L189.68 226.23L190.43 225.34L191.82 223.65L192.52 222.78C192.96 222.24 193.39 221.69 193.82 221.13L194.52 220.24L195.29 219.24L195.95 218.35L196.75 217.27L198.2 215.27L198.99 214.12C199.42 213.51 199.84 212.88 200.26 212.25L200.92 211.25C201.19 210.85 201.45 210.44 201.72 210.03L202.36 209.03L203.15 207.78C203.34 207.46 203.79 206.78 203.79 206.78C204.25 206.02 204.71 205.25 205.16 204.47L205.82 203.33C206.05 202.94 206.27 202.54 206.5 202.14L207.22 200.85L207.98 199.45L208.61 198.25L209.33 196.86C209.51 196.52 209.96 195.61 209.96 195.61C210.38 194.77 210.8 193.92 211.21 193.05C211.21 193.05 211.66 192.11 211.81 191.78C211.96 191.45 212.26 190.78 212.51 190.25L213.09 188.95L213.77 187.39C213.94 187 214.42 185.84 214.42 185.84L214.99 184.47C215.27 183.77 215.54 183.06 215.82 182.35C216.1 181.64 216.36 180.93 216.62 180.21L217.16 178.73C217.35 178.18 217.54 177.63 217.74 177.07C217.94 176.51 218.07 176.07 218.23 175.6C218.39 175.13 218.61 174.47 218.79 173.9C218.97 173.33 219.06 173.02 219.2 172.57L219.28 172.31C219.56 171.41 219.82 170.51 220.09 169.59L220.15 169.37C220.31 168.81 220.47 168.25 220.63 167.67L221.02 166.18L221.08 165.93C221.23 165.38 221.37 164.83 221.51 164.27C221.65 163.71 221.8 163.08 221.94 162.48C222.08 161.88 222.19 161.36 222.32 160.78L222.37 160.56C222.49 160.03 222.61 159.5 222.72 158.99L223.13 156.93C223.31 155.99 223.49 155.05 223.66 154.08C223.77 153.43 223.89 152.78 223.99 152.08C224.09 151.38 224.17 150.93 224.26 150.35V150.23C224.353 149.61 224.443 148.98 224.53 148.34C224.62 147.72 224.7 147.09 224.78 146.45C224.86 145.81 224.94 145.13 225.01 144.45V144.04C225.06 143.57 225.12 143.09 225.17 142.62C225.28 141.45 225.39 140.27 225.48 139.07C225.48 138.61 225.55 138.15 225.58 137.7V137.27C225.58 136.56 225.68 135.85 225.72 135.12L225.81 133.12C225.81 132.41 225.81 131.71 225.88 130.96C225.95 130.21 225.88 129.69 225.93 129.03V128.03C226.16 105.74 221.86 82.39 213.15 58.6C212.359 56.4409 211.082 54.4925 209.419 52.9054C207.755 51.3183 205.748 50.1349 203.554 49.4467C201.36 48.7586 199.037 48.584 196.765 48.9366C194.493 49.2891 192.332 50.1594 190.45 51.48C189.16 52.38 180.45 58.75 170.37 71.69C165.57 66.57 161.11 62.34 157.63 59.21L157.23 58.85C149.06 51.53 141.35 45.8 135.47 42.69C133.313 41.5493 130.91 40.952 128.47 40.95C127.561 40.948 126.653 41.0317 125.76 41.2C124 40.34 122.91 39.87 122.63 39.75C120.788 38.9727 118.809 38.5716 116.81 38.57C116.073 38.5716 115.338 38.6284 114.61 38.74C112.784 37.6189 110.737 36.906 108.61 36.65C107.615 36.5224 106.613 36.4589 105.61 36.46C78.21 36.46 55.5099 82.59 48.8099 104.93C41.5899 129.02 46.5799 171.19 67.4299 200.08C80.4899 218.1 98.07 229.1 118.85 232.52C126.18 261.59 139.97 319.45 151.97 388.85C158.81 428.14 164.19 466.19 168.1 502.42L166.75 499.87L166.43 499.28C106.16 388.57 21.1499 373.56 17.5599 372.97C15.2139 372.588 12.8106 372.768 10.5481 373.497C8.28566 374.226 6.22879 375.482 4.54704 377.162C2.86528 378.842 1.6068 380.897 0.875343 383.159C0.143882 385.42 -0.0396239 387.824 0.339943 390.17C11.6299 460.17 38.93 516.82 81.48 558.58C116.7 593.15 153.69 608.41 172.63 614.44H172.71C173.71 614.76 174.71 615.06 175.63 615.33C176.32 653.08 174.84 687.33 171.09 716.86C170.819 718.974 171.001 721.121 171.624 723.159C172.248 725.197 173.299 727.079 174.707 728.679C176.115 730.279 177.848 731.561 179.79 732.439C181.732 733.316 183.839 733.77 185.97 733.77H221.68C225.331 733.77 228.856 732.438 231.596 730.025C234.335 727.611 236.1 724.282 236.56 720.66C242.72 672.11 243.56 615.02 239 550.79C240.2 550.43 241.48 550.04 242.83 549.61C274.33 539.61 353.09 506.06 404.19 410.93V410.85C423.63 374.64 437.27 332.85 444.74 286.54C445.123 284.198 444.945 281.798 444.22 279.538C443.495 277.278 442.244 275.222 440.57 273.54Z" fill="#231F20"/>
<path d="M161.63 232.749L199.22 63.8691C199.22 63.8691 130.14 112.269 161.63 232.749Z" fill="#66BE64"/>
<path d="M199.22 63.8691L161.63 232.749C161.63 232.749 240.31 176.099 199.22 63.8691Z" fill="#4CA84E"/>
<g style="mix-blend-mode:multiply">
<path d="M153.54 165.701C152.8 184.971 154.96 207.241 161.63 232.701C161.63 232.701 210.15 197.751 211.08 128.391C199.2 168.961 153.54 165.701 153.54 165.701Z" fill="#4CA84E"/>
</g>
<path d="M340.68 151.771L326.47 140.771L312.27 129.711C311.03 131.301 281.57 169.441 250.86 234.271C229.602 279.19 212.979 326.159 201.25 374.451C183.65 275.001 163.04 199.811 162.83 199.051L128.12 208.621C128.33 209.381 149.29 285.871 166.78 386.311C189.78 518.391 196.42 636.311 185.97 718.811H221.68C229.33 658.451 228.55 585.281 219.41 500.381C223.99 395.651 256.41 306.831 282.94 250.651C311.97 189.101 340.4 152.101 340.68 151.771Z" fill="#4DA94E"/>
<path d="M222.83 539.41L429.97 284.15C429.97 284.15 281.2 308.38 222.83 539.41Z" fill="#66BE64"/>
<path d="M429.97 284.15L222.83 539.41C222.83 539.41 393.66 509.21 429.97 284.15Z" fill="#4CA84E"/>
<g style="mix-blend-mode:multiply">
<path d="M269.79 418.759C251.6 450.859 235.19 490.499 222.79 539.409C222.79 539.409 328.14 520.779 390.96 403.779C336.97 462.609 269.79 418.759 269.79 418.759Z" fill="#4CA84E"/>
</g>
<path d="M190.31 603.629L15.1499 387.779C15.1499 387.779 140.97 408.269 190.31 603.629Z" fill="#66BE64"/>
<path d="M15.1499 387.779L190.31 603.629C190.31 603.629 45.8499 578.099 15.1499 387.779Z" fill="#4CA84E"/>
<g style="mix-blend-mode:multiply">
<path d="M150.6 501.6C165.98 528.75 179.86 562.27 190.31 603.6C190.31 603.6 101.22 587.84 48.1001 488.91C93.8301 538.69 150.6 501.61 150.6 501.6Z" fill="#4CA84E"/>
</g>
<path d="M377.97 18.6901C377.97 18.6901 393.47 64.0101 391.44 105.98C389.44 148.46 351.8 205.52 299.65 169.15C242.97 129.63 282.97 55.5301 308.14 37.5701C330.6 21.5401 367.53 8.30006 377.97 18.6901Z" fill="#FBFCFC"/>
<path d="M398.62 99.6492C395.17 140.459 357.98 196.799 308.62 174.719C305.4 45.5392 384.62 26.4492 384.62 26.4492C384.62 26.4492 402.18 57.5492 398.62 99.6492Z" fill="#F0EBCE"/>
<path d="M392.4 35.4707C397.54 46.8407 403.45 77.5907 401.33 103.171C397.65 147.771 352.74 205.901 308.63 174.721C378.69 131.471 392.36 35.9507 392.4 35.4707Z" fill="#DED5B2"/>
<g style="mix-blend-mode:multiply" opacity="0.58">
<path d="M398.7 58.5801C401.11 71.9801 402.56 88.3401 401.33 103.17C397.65 147.77 352.74 205.9 308.63 174.72C382.05 188.82 398.7 58.5801 398.7 58.5801Z" fill="#B6BCCC"/>
</g>
<path d="M333.79 59.2492C338.38 65.5792 347.95 64.0492 355 56.2492C361.8 48.7192 364 37.8692 359.94 31.6492C355.88 25.4292 346.68 25.8292 339.3 33.2292C331.63 40.9192 329.08 52.7592 333.79 59.2492Z" fill="#F6FAFE"/>
<path d="M314.97 70.7393C319.03 74.2193 324.45 73.3393 327.13 68.8693C328.395 66.5772 328.87 63.9318 328.479 61.3429C328.089 58.754 326.855 56.3661 324.97 54.5493C321.03 50.9193 315.51 51.5493 312.68 55.9893C311.309 58.3367 310.788 61.0847 311.205 63.771C311.622 66.4574 312.952 68.9181 314.97 70.7393Z" fill="#F6FAFE"/>
<path d="M106.97 51.6403C106.97 51.6403 146.97 77.9703 171.1 112.38C195.51 147.2 200.76 215.38 137.26 218.54C68.26 222.04 54.48 138.95 63.36 109.35C71.23 82.9103 92.31 49.8203 106.97 51.6403Z" fill="#FBFCFC"/>
<path d="M172.84 102.969C195.12 137.329 200.25 204.639 147.72 217.439C66.0299 117.309 116.97 53.6895 116.97 53.6895C116.97 53.6895 149.86 67.5095 172.84 102.969Z" fill="#F0EBCE"/>
<path d="M128.6 56.0996C139.6 61.9396 163.14 82.6096 177.15 104.1C201.57 141.6 201.69 215.1 147.72 217.45C176.59 140.32 128.87 56.4596 128.6 56.0996Z" fill="#DED5B2"/>
<g style="mix-blend-mode:multiply" opacity="0.58">
<path d="M147.75 70.4609C157.87 79.5709 169.03 91.6209 177.15 104.091C201.57 141.591 201.69 215.091 147.72 217.441C214.38 183.591 147.75 70.4609 147.75 70.4609Z" fill="#B6BCCC"/>
</g>
<path d="M96.8499 110.76C104.37 112.95 110.99 105.88 111.78 95.3805C112.54 85.2705 107.59 75.3805 100.61 72.9105C93.47 70.4005 86.56 76.4405 85.26 86.8205C83.97 97.6005 89.1599 108.51 96.8499 110.76Z" fill="#F6FAFE"/>
<path d="M89.0399 131.36C94.3799 131.63 98.1299 127.6 97.4999 122.44C97.0975 119.848 95.8497 117.462 93.9507 115.654C92.0516 113.845 89.6079 112.715 86.9999 112.44C81.6599 111.98 77.6599 115.83 78.1599 121.1C78.5163 123.8 79.7931 126.296 81.775 128.165C83.757 130.034 86.3229 131.162 89.0399 131.36Z" fill="#F6FAFE"/>
</g>
<defs>
<clipPath id="clip0_4884_793">
<rect width="444.97" height="780.91" fill="white"/>
</clipPath>
</defs>
</svg>
