<svg width="508" height="429" viewBox="0 0 508 429" fill="none" xmlns="http://www.w3.org/2000/svg">
<g clip-path="url(#clip0_4887_1481)">
<path d="M252.39 428.208C364.957 428.208 456.21 406.091 456.21 378.808C456.21 351.525 364.957 329.408 252.39 329.408C139.823 329.408 48.5698 351.525 48.5698 378.808C48.5698 406.091 139.823 428.208 252.39 428.208Z" fill="#A7A9AC"/>
<path d="M498.29 48.6791C497.04 48.1891 467.29 36.6791 428.42 36.6791C400.68 36.6791 375.24 42.4991 352.82 53.9691L351.25 54.7891L350.25 55.3091L348.8 56.0891L347.9 56.5991C347.17 57.0091 346.44 57.4191 345.71 57.8491L345.01 58.259L343.4 59.259L342.46 59.829L341.01 60.7391L340.13 61.2991L337.95 62.7291L337.32 63.1591C336.77 63.5291 336.22 63.8991 335.67 64.2891L334.78 64.9091L333.32 65.9091L332.48 66.519C331.76 67.049 331.05 67.589 330.32 68.139L329.76 68.579C329.2 69.009 328.65 69.439 328.09 69.889L327.24 70.5691L325.79 71.7491L324.98 72.4291C324.27 73.0191 323.57 73.6191 322.86 74.2391L322.36 74.6791L320.68 76.1691L319.87 76.9091L318.42 78.269L317.66 78.9791L315.59 80.9791L315.15 81.4291C314.59 81.9891 314.02 82.559 313.46 83.139L312.7 83.9291L311.27 85.4291L310.56 86.199L308.56 88.4091L308.18 88.8491L306.51 90.769L305.79 91.6091L304.39 93.2891L303.71 94.1091L301.78 96.519L301.44 96.959L299.79 99.1191L299.12 100.009L297.76 101.859L297.13 102.729C296.5 103.599 295.88 104.489 295.27 105.379L295.01 105.759C294.46 106.559 293.92 107.359 293.38 108.169L292.76 109.109C292.32 109.779 291.88 110.459 291.45 111.109L290.86 112.029C290.26 113.029 289.66 113.939 289.09 114.889L288.86 115.279C288.33 116.149 287.86 117.029 287.29 117.929L286.7 118.929C286.49 119.299 286.29 119.669 286.08 120.029V15.0391C286.08 11.0608 284.5 7.24548 281.687 4.43243C278.874 1.61939 275.058 0.0390625 271.08 0.0390625H236.68C232.702 0.0390625 228.886 1.61939 226.073 4.43243C223.26 7.24548 221.68 11.0608 221.68 15.0391V99.199L221.05 98.0891L220.47 97.0891C219.95 96.189 219.42 95.2891 218.87 94.3791L218.69 94.079C218.09 93.079 217.5 92.1391 216.89 91.1791L216.31 90.269C215.88 89.589 215.44 88.909 215 88.269L214.38 87.329C213.84 86.519 213.3 85.7091 212.72 84.8591L212.5 84.5491C211.88 83.6391 211.25 82.7591 210.62 81.8791L210 81.019C209.54 80.389 209.09 79.7691 208.63 79.1591L207.97 78.2791L206.27 76.0491L206 75.709C205.35 74.879 204.7 74.069 204 73.269L203.34 72.449C202.87 71.889 202.41 71.329 201.93 70.769L201.23 69.9391L199.53 67.9391L199.17 67.5291C198.5 66.7791 197.83 66.0391 197.17 65.2991L196.46 64.5491C195.99 64.0391 195.51 63.5491 195.03 63.0391L194.27 62.2491C193.71 61.6691 193.15 61.0991 192.58 60.5391L192.14 60.0991C191.46 59.4191 190.77 58.7591 190.07 58.0991L189.31 57.389C188.83 56.929 188.31 56.4891 187.87 56.0391L187.07 55.3091L185.39 53.769L184.88 53.329L182.77 51.519L181.96 50.8491L180.51 49.6591L179.66 48.9891L177.97 47.6591L177.42 47.2391C176.713 46.6857 175.993 46.1457 175.26 45.6191L174.42 44.9991L172.97 43.9991L172.07 43.3691L170.42 42.2391L169.79 41.8091C169.06 41.3191 168.34 40.809 167.62 40.389L166.81 39.8691L165.26 38.8691L164.36 38.3091L162.72 37.3091L162.03 36.899C161.31 36.469 160.58 36.059 159.83 35.639L158.92 35.139L157.5 34.3591L156.5 33.8391L154.93 33.019L154.18 32.639C131.94 21.419 106.76 15.7291 79.3499 15.7291C40.4999 15.7291 10.7199 27.2591 9.46993 27.7291C6.22305 29.0045 3.52223 31.3716 1.83215 34.4233C0.142065 37.4749 -0.431558 41.0201 0.209954 44.449C11.91 106.899 35.0599 153.069 68.9999 181.679C95.5199 204.039 127.9 215.369 165.21 215.369H166.79H168.92H169.18L171.18 215.309H171.49L173.49 215.219H173.81L175.64 215.119H176.13L177.91 214.999L180.16 214.839L182.32 214.649L184.52 214.439L186.69 214.199L188.8 213.949L190.94 213.669L193 213.379L195 213.079L197 212.749L199 212.399L200.95 212.049L202.86 211.689L204.73 211.309L206.56 210.929L208.4 210.529L210.21 210.119L212.03 209.689L213.66 209.289L215.27 208.879L216.9 208.459L218.46 208.039L220.05 207.599L221.52 207.179V363.809C221.52 367.787 223.1 371.603 225.913 374.416C228.726 377.229 232.542 378.809 236.52 378.809H270.92C274.898 378.809 278.714 377.229 281.527 374.416C284.34 371.603 285.92 367.787 285.92 363.809V228.039L286.92 228.319L288.45 228.749L290.04 229.179L291.71 229.619L293.32 230.029L295.01 230.449L296.75 230.859L298.49 231.269L300.3 231.659L302.17 232.059L304.07 232.439L305.95 232.809L307.95 233.169L309.95 233.509L311.95 233.849L314 234.159L316.07 234.459L318.21 234.739L320.36 234.999L322.49 235.239L324.72 235.459L326.94 235.659H327.45L329.22 235.799H329.71L331.45 235.909H331.93L333.76 235.999H334.18L336.1 236.079H336.44L338.49 236.139H338.7H340.79H342.43C379.74 236.139 412.12 224.799 438.64 202.449C472.58 173.839 495.72 127.669 507.42 65.2191C508.025 61.8332 507.448 58.3422 505.786 55.3311C504.124 52.3199 501.477 49.9714 498.29 48.6791Z" fill="#231F20"/>
<path d="M271.1 15H236.71V363.81H271.1V15Z" fill="#66BE64"/>
<path d="M15 41.7294C15 41.7294 184.31 113.729 236.7 185.989C193.53 -28.4506 15 41.7294 15 41.7294Z" fill="#66BE64"/>
<path d="M15 41.7285C57.39 267.809 236.7 186.039 236.7 186.039C184.31 113.719 15 41.7285 15 41.7285Z" fill="#4CA84E"/>
<g style="mix-blend-mode:multiply">
<path d="M144.23 199.039C193.35 205.799 236.7 186.039 236.7 186.039C220.49 105.489 185.21 65.0991 147.46 46.0391C147.46 46.0391 218.71 137.599 144.23 199.039Z" fill="#4CA84E"/>
</g>
<path d="M169.703 83.711C174.184 77.8006 168.798 66.1711 157.673 57.7357C146.548 49.3002 133.896 47.2532 129.414 53.1636C124.933 59.0739 130.319 70.7035 141.445 79.139C152.57 87.5744 165.222 89.6214 169.703 83.711Z" fill="white"/>
<path d="M492.8 62.6489C492.8 62.6489 323.49 134.649 271.1 206.899C314.27 -7.54114 492.8 62.6489 492.8 62.6489Z" fill="#66BE64"/>
<path d="M492.8 62.6484C450.44 288.728 271.1 206.898 271.1 206.898C323.49 134.638 492.8 62.6484 492.8 62.6484Z" fill="#4CA84E"/>
<g style="mix-blend-mode:multiply">
<path d="M363.56 219.919C314.45 226.679 271.1 206.919 271.1 206.919C287.3 126.399 322.59 86.039 360.39 66.959C360.39 66.959 289.08 158.509 363.56 219.919Z" fill="#4CA84E"/>
</g>
</g>
<defs>
<clipPath id="clip0_4887_1481">
<rect width="507.8" height="428.21" fill="white"/>
</clipPath>
</defs>
</svg>
