<svg width="439" height="1016" viewBox="0 0 439 1016" fill="none" xmlns="http://www.w3.org/2000/svg">
<g clip-path="url(#clip0_4780_370)">
<path d="M235.03 1015.19C347.597 1015.19 438.85 993.072 438.85 965.79C438.85 938.507 347.597 916.39 235.03 916.39C122.463 916.39 31.21 938.507 31.21 965.79C31.21 993.072 122.463 1015.19 235.03 1015.19Z" fill="#A7A9AC"/>
<path d="M227.21 971.5C223.902 971.497 220.688 970.402 218.067 968.384C215.447 966.365 213.567 963.537 212.72 960.34C204.2 928.16 197.2 895.78 191.86 863.74L191.07 864.22L190.18 864.75L188.45 865.75L187.59 866.23L185.7 867.23L185.06 867.57C183.38 868.43 181.66 869.26 179.92 870.05L179.2 870.36L177.39 871.15L176.49 871.52L174.81 872.19C174.52 872.31 174.21 872.43 173.89 872.54C173.34 872.75 172.78 872.97 172.21 873.17L171.41 873.46L169.41 874.14L168.86 874.32C168.04 874.6 167.21 874.86 166.38 875.11L166.1 875.2L163.96 875.83L163.22 876.04L161.54 876.49L160.69 876.71L159.11 877.1L158.26 877.31L156.7 877.66L155.95 877.83L154.06 878.22L153.67 878.3L151.41 878.73L151.03 878.79L149.24 879.1L147.11 879.43L145.01 879.72L144.25 879.82L142.25 880.06L140.52 880.24H140.31L138.45 880.41L136.64 880.54L134.93 880.65L133.19 880.74L131.19 880.82H129.65H129.28C125.363 880.824 121.516 879.789 118.13 877.82C116.125 876.649 114.316 875.172 112.77 873.44C110.652 871.064 109.072 868.258 108.137 865.216C107.201 862.174 106.933 858.965 107.35 855.81L107.99 851.03L103.26 850.1C100.13 849.491 97.1693 848.212 94.5802 846.351C91.9911 844.491 89.835 842.092 88.2599 839.32C85.5056 834.466 84.6876 828.751 85.9699 823.32C84.9699 822.73 83.9199 822.13 82.9099 821.53L82.5699 821.33C80.5199 820.1 78.4199 818.78 76.3499 817.42L76.0199 817.2C73.9199 815.82 71.8399 814.38 69.7899 812.91L69.4499 812.66C67.3499 811.14 65.2699 809.57 63.2499 807.97L62.9199 807.71C61.9199 806.89 60.9199 806.08 59.9199 805.26L59.7999 805.16C36.7999 786.16 17.2699 760.88 1.62988 730.03C0.7244 728.24 0.187057 726.287 0.0496456 724.286C-0.0877653 722.285 0.177559 720.277 0.829889 718.38C1.4807 716.483 2.50543 714.735 3.84347 713.241C5.18151 711.746 6.8057 710.535 8.6199 709.68C9.7999 709.13 37.8299 696.11 74.1599 696.11C79.0932 696.11 83.9599 696.35 88.7599 696.83C89.4556 695.051 90.38 693.37 91.5099 691.83C92.9035 689.937 94.5916 688.279 96.5099 686.92C97.151 686.454 97.8188 686.027 98.5099 685.64C100.633 684.44 102.942 683.602 105.34 683.16L110.08 682.29L109.45 677.57C109.079 674.463 109.369 671.313 110.301 668.326C111.234 665.34 112.787 662.584 114.86 660.24C116.937 657.902 119.486 656.03 122.338 654.747C125.191 653.465 128.282 652.801 131.41 652.8H132.06C148.284 653.232 164.289 656.656 179.27 662.9C179.87 647.9 180.81 632.72 182.09 617.26C179.637 618.132 177.053 618.575 174.45 618.57C169.473 618.546 164.638 616.908 160.671 613.902C156.704 610.896 153.82 606.685 152.45 601.9C149.898 592.848 148.194 583.578 147.36 574.21L145.92 573.52L143.92 572.52L142.63 571.87L139.63 570.33L138.52 569.73C137.75 569.32 136.96 568.89 136.16 568.44L135.07 567.83L134.83 567.69L132.83 566.51L131.47 565.71L129.07 564.24L127.92 563.53C126.92 562.93 125.92 562.28 124.92 561.62L123.63 560.75C122.93 560.28 122.23 559.81 121.54 559.33L120.16 558.33L117.94 556.73L116.8 555.9C115.74 555.12 114.68 554.31 113.62 553.49L112.44 552.56C111.7 551.98 110.99 551.4 110.27 550.82L108.92 549.71C108.21 549.12 107.5 548.51 106.79 547.9C106.79 547.9 105.87 547.12 105.58 546.9C104.53 545.98 103.48 545.05 102.44 544.1L101.44 543.19C100.66 542.46 99.8899 541.74 99.1199 541C98.7499 540.65 98.3699 540.27 97.9799 539.89L97.8599 539.77C97.1499 539.08 96.4699 538.4 95.7899 537.71L95.5599 537.47C95.2299 537.14 94.8899 536.8 94.5599 536.47C93.6599 535.536 92.7599 534.587 91.8599 533.62L90.9499 532.62C90.0699 531.62 89.1999 530.68 88.3299 529.69L87.1599 528.34C86.4799 527.54 85.8199 526.76 85.1599 525.96C84.7599 525.49 84.3699 524.96 83.9699 524.52C83.2199 523.6 82.4799 522.67 81.7399 521.72L80.9699 520.72L80.6799 520.35C62.5599 496.77 49.1099 467.86 40.6799 434.42C40.1915 432.474 40.0983 430.451 40.4058 428.469C40.7132 426.486 41.4151 424.586 42.4699 422.88C43.5242 421.174 44.91 419.697 46.5451 418.536C48.1803 417.374 50.0317 416.553 51.9899 416.12C61.9392 414.194 72.0563 413.27 82.1899 413.36C87.5899 413.36 92.9899 413.61 98.2999 414.11C112.3 406.79 132.3 399.11 155.22 398.68C155.22 398.58 154.95 397.62 154.87 397.25C154.7 396.58 154.53 395.87 154.38 395.15L154.15 394.09C153.99 393.34 153.84 392.63 153.71 391.92L153.51 390.86C153.37 390.12 153.24 389.35 153.12 388.58L152.99 387.78C152.83 386.72 152.68 385.68 152.55 384.65C152.546 384.597 152.546 384.543 152.55 384.49C152.43 383.49 152.32 382.56 152.23 381.6L152.14 380.71C152.08 379.98 152.02 379.28 151.96 378.58L151.89 377.48C151.89 376.87 151.81 376.21 151.78 375.56C151.78 375.16 151.78 374.8 151.72 374.43C151.72 373.85 151.72 373.19 151.66 372.52V371.52C151.66 370.8 151.66 370.06 151.66 369.32V368.72C151.66 367.72 151.66 366.72 151.66 365.81V365.36C151.66 364.61 151.66 363.81 151.74 363.02L151.79 362.13C151.79 361.51 151.86 360.89 151.9 360.28L151.96 359.28C152.01 358.65 152.06 358.08 152.1 357.52L152.19 356.52C152.24 355.94 152.3 355.35 152.36 354.77L152.45 353.94C152.53 353.23 152.61 352.55 152.69 351.87L152.75 351.4C152.86 350.54 152.98 349.72 153.1 348.9L153.18 348.33C153.27 347.74 153.37 347.12 153.47 346.51L153.6 345.7C153.69 345.16 153.78 344.7 153.87 344.14L154.02 343.32L154.3 341.85L154.45 341.08C154.56 340.53 154.92 338.82 154.92 338.82C155.04 338.27 155.18 337.65 155.32 337.03C155.341 336.954 155.358 336.877 155.37 336.8C155.53 336.1 155.7 335.42 155.86 334.8L156.36 332.8L157 330.39L157.5 328.65C157.61 328.26 157.99 327.01 157.99 326.99L158.46 325.47C160.204 319.896 164.024 315.206 169.13 312.37C169.85 311.97 170.54 311.63 171.23 311.37C173.455 310.412 175.817 309.811 178.23 309.59C178.93 309.53 179.63 309.5 180.31 309.5H180.69C182.214 309.525 183.731 309.702 185.22 310.03C186.494 310.314 187.742 310.706 188.95 311.2C189.44 311.4 189.95 311.6 190.39 311.83L196.58 314.83L199.99 308.83C201.802 305.648 204.35 302.946 207.42 300.95C205.907 293.65 204.177 286.19 202.23 278.57C201.76 279.19 201.29 279.8 200.81 280.41L200.32 281.03L198.97 282.68L198.31 283.47L197.07 284.91L196.42 285.65L195.15 287.06L194.53 287.73L193.02 289.33L192.62 289.74C191.96 290.43 191.32 291.08 190.67 291.74L190.46 291.95L188.74 293.6L188.13 294.17L186.81 295.39L186.1 296.03L184.84 297.15L184.18 297.72C183.72 298.12 183.3 298.48 182.87 298.83L182.26 299.35L180.68 300.64L180.35 300.91C179.7 301.43 179.06 301.91 178.42 302.42L178.03 302.72L176.57 303.83L175.95 304.29L174.73 305.18L174.06 305.67L172.87 306.5L172.25 306.94L170.47 308.15L168.95 309.15L168.8 309.24C168.23 309.62 167.67 309.97 167.12 310.33L165.49 311.33L163.89 312.33L161.74 313.59L160.47 314.31L159.11 315.06C155.801 316.858 152.096 317.803 148.33 317.81C146.382 317.811 144.443 317.559 142.56 317.06C141.042 316.663 139.571 316.106 138.17 315.4C133.026 312.818 129.068 308.362 127.11 302.95L125.11 297.32L119.36 299.02C117.288 299.629 115.14 299.938 112.98 299.94C107.535 299.921 102.279 297.942 98.1749 294.365C94.0704 290.787 91.3919 285.851 90.6299 280.46C88.4899 264.9 87.3099 237.01 99.6299 209.99L99.0599 209.86L97.0599 209.4L96.0099 209.15L94.0099 208.63L93.0099 208.36C92.2599 208.15 91.5399 207.94 90.8299 207.72L90.0299 207.48C89.0999 207.19 88.1299 206.88 87.1699 206.55H87.1199C86.1999 206.24 85.2999 205.92 84.3999 205.55L83.5499 205.23L81.6699 204.5L80.7299 204.12L78.9699 203.38L78.0399 202.99L76.2899 202.21L75.4799 201.84L73.4799 200.9L72.9699 200.66C72.0999 200.23 71.2799 199.82 70.4799 199.4L70.1299 199.21C69.4399 198.85 68.7699 198.5 68.1299 198.14L67.4099 197.74L65.8299 196.85L64.9999 196.37L63.5899 195.54L62.7499 195.04L61.2999 194.14L60.6499 193.74L58.9299 192.63L58.5399 192.38L56.5399 191.06L54.6399 189.74L52.7799 188.4L52.1199 187.91L50.3299 186.57L48.6699 185.28C48.1799 184.91 47.7199 184.54 47.2699 184.17L47.0299 183.98L45.5299 182.75L44.0599 181.51L42.1499 179.86L40.9099 178.74L39.6799 177.63L38.5499 176.56C34.3666 172.606 31.8609 167.197 31.5499 161.45C31.5097 160.69 31.5097 159.929 31.5499 159.17C31.6983 155.918 32.5482 152.736 34.0412 149.843C35.5342 146.951 37.6351 144.415 40.1999 142.41L44.9199 138.72L41.5399 133.78C39.7037 131.102 38.4672 128.059 37.915 124.859C37.3627 121.66 37.5076 118.378 38.3399 115.24C39.1739 112.098 40.6784 109.175 42.7498 106.67C44.8213 104.165 47.4107 102.139 50.3399 100.73C61.0399 95.5398 82.7599 86.8398 108.01 86.8398C112.066 86.8392 116.119 87.0662 120.15 87.5198C120.15 87.3798 120.09 86.9498 120.09 86.9498C120.02 86.2798 119.96 85.5699 119.9 84.8599C119.9 84.5199 119.9 84.1598 119.82 83.7898C119.77 83.0698 119.73 82.3798 119.7 81.6898C119.7 81.3998 119.7 81.0498 119.65 80.6898C119.65 79.9098 119.65 79.1598 119.58 78.4198C119.58 78.4198 119.58 77.7898 119.58 77.5498C119.58 75.6598 119.58 73.6299 119.66 71.6299V70.7798C119.66 70.0998 119.73 69.4098 119.77 68.7798C119.77 68.4398 119.77 68.1098 119.84 67.7798C119.89 67.1398 119.94 66.5098 120 65.8898C120 65.5698 120.06 65.2198 120.09 64.8898C120.15 64.2398 120.22 63.5998 120.29 62.9598L120.4 62.0498C120.48 61.3598 120.58 60.6298 120.68 59.9098L120.76 59.2798C120.89 58.4198 121.03 57.5099 121.18 56.6099L121.24 56.2399V56.3398C121.39 55.4898 121.52 54.7198 121.67 53.9598L121.82 53.1299C121.94 52.5399 122.06 51.9499 122.18 51.3799L122.37 50.4598C122.49 49.8998 122.61 49.3398 122.74 48.7898L122.94 47.9398C123.07 47.3598 123.21 46.7898 123.35 46.2198L123.55 45.4298C123.7 44.8298 123.88 44.1798 124.05 43.5298L124.16 43.1099C124.38 42.3099 124.6 41.5298 124.83 40.7698L124.97 40.2998C125.14 39.7098 125.32 39.1198 125.49 38.5498C125.49 38.5498 126.03 36.8399 126.19 36.3799L126.44 35.6199C126.61 35.0999 127.16 33.4999 127.16 33.4999C127.33 33.0099 127.88 31.4999 127.88 31.4999C128.1 30.8999 128.31 30.3199 128.53 29.7499C128.53 29.6799 128.53 29.6098 128.61 29.5498C128.85 28.9165 129.09 28.2965 129.33 27.6898C129.33 27.6898 129.87 26.3598 130.05 25.9398C130.05 25.9398 130.6 24.6098 130.77 24.2298L131.03 23.6099L131.74 22.0098L132.39 20.5798L133.04 19.1898C134.887 15.3459 137.779 12.0999 141.385 9.82372C144.991 7.54753 149.165 6.3332 153.43 6.31982C157.926 6.31925 162.318 7.66734 166.04 10.1898L171.04 13.5398L174.69 8.78979C176.792 6.04356 179.501 3.82045 182.604 2.29394C185.707 0.767419 189.121 -0.0211251 192.58 -0.0101407C195.618 -0.00239628 198.623 0.614913 201.417 1.80529C204.212 2.99567 206.74 4.73482 208.85 6.91979C219.48 17.9898 236.28 39.1199 242.56 67.2299C260.7 59.2299 278.95 57.3599 292.35 57.3599C298.616 57.3593 304.876 57.7634 311.09 58.5698C314.309 58.9912 317.398 60.1029 320.148 61.8288C322.897 63.5548 325.241 65.8542 327.02 68.5698C328.804 71.2832 329.979 74.3506 330.466 77.5611C330.953 80.7717 330.739 84.0496 329.84 87.1698L328.19 92.9298L333.83 94.9298C337.262 96.1495 340.348 98.1818 342.824 100.853C345.3 103.524 347.093 106.755 348.05 110.27C348.254 111.02 348.418 111.781 348.54 112.55C349.349 117.438 348.516 122.456 346.17 126.82L345.17 128.6L344.33 130.09L343.42 131.67L342.42 133.27L341.71 134.43L341.43 134.89C341.1 135.42 340.75 135.99 340.38 136.56C340.344 136.603 340.314 136.65 340.29 136.7L339.29 138.26L338.09 140.04C338.09 140.04 337.09 141.46 336.84 141.85L336.34 142.55L335.03 144.37L333.91 145.86L333.59 146.29L332.14 148.16L331.87 148.5L330.59 150.08L330.12 150.65L328.97 152.01L328.42 152.66C328.03 153.12 327.65 153.55 327.27 153.97L326.67 154.65L325.44 156.01L324.93 156.56L323.33 158.25L322.97 158.62C322.4 159.21 321.75 159.86 321.09 160.51L320.62 160.96C320.15 161.42 319.62 161.96 319.09 162.43L318.44 163.04C317.95 163.5 317.44 163.92 317.01 164.35L316.29 164.99L314.81 166.28L314.06 166.91L312.46 168.24L311.82 168.76C310.23 170.03 308.62 171.24 307.02 172.39L306.36 172.85C305.76 173.28 305.14 173.71 304.51 174.14L303.69 174.68C303.08 175.08 302.51 175.46 301.92 175.83L300.92 176.43C300.34 176.79 299.74 177.15 299.14 177.5L298.68 177.78C318.89 199.53 326.58 226.37 329.46 241.78C330.054 244.973 329.952 248.257 329.16 251.406C328.367 254.556 326.904 257.498 324.87 260.03C322.839 262.564 320.285 264.63 317.382 266.085C314.479 267.54 311.295 268.35 308.05 268.46L302.05 268.66L301.88 274.66C301.857 275.486 301.79 276.311 301.68 277.13C301.133 281.127 299.525 284.904 297.025 288.069C294.524 291.234 291.221 293.673 287.46 295.13C284.872 296.138 282.118 296.654 279.34 296.65C278.504 296.653 277.67 296.606 276.84 296.51C280.619 316.39 282.939 336.521 283.78 356.74C307.73 343.74 332.95 341.2 347.78 341.07H347.99C351.268 341.07 354.508 341.773 357.49 343.133C360.473 344.492 363.129 346.476 365.28 348.95C367.429 351.426 369.021 354.336 369.95 357.481C370.878 360.626 371.12 363.933 370.66 367.18L369.66 374.02L376.43 375.41C379.729 376.08 382.838 377.478 385.53 379.5C387.459 380.952 389.147 382.7 390.53 384.68C392.649 387.71 394.006 391.206 394.487 394.872C394.967 398.538 394.556 402.266 393.29 405.74C393.11 406.24 392.6 407.58 392.6 407.58C392.6 407.58 391.88 409.42 391.86 409.46L391.17 411.15L390.42 412.93C390.26 413.32 390.06 413.77 389.86 414.22L389.66 414.69L388.82 416.56L388.7 416.81C388.44 417.38 388.17 417.96 387.89 418.54L386.89 420.54L386.51 421.3L385.51 423.3C385.25 423.81 384.38 425.44 384.38 425.44C384.08 426 383.77 426.55 383.46 427.11L383.21 427.56C382.79 428.31 382.38 429.03 381.95 429.75L381.71 430.17L380.65 431.94L380.2 432.67L379.26 434.17L378.76 434.95L377.76 436.42L377.2 437.26L376.2 438.8L375.69 439.53C375.25 440.16 374.8 440.8 374.33 441.44L374.07 441.79C373.52 442.55 372.95 443.31 372.37 444.07L371.99 444.55C371.52 445.16 371.06 445.75 370.59 446.33L369.99 447.07C369.56 447.6 369.14 448.07 368.72 448.6C368.5 448.867 368.27 449.136 368.03 449.41C367.6 449.92 367.17 450.41 366.73 450.91C366.49 451.19 366.26 451.45 366.02 451.71L364.58 453.28L364.01 453.89C362.543 455.45 361.067 456.933 359.58 458.34L358.99 458.9C358.41 459.44 357.84 459.97 357.25 460.5L356.45 461.21C355.92 461.68 355.39 462.14 354.84 462.6L353.98 463.33C353.38 463.82 352.83 464.33 352.26 464.72L351.15 465.61C375.56 485.14 387.51 512.03 392.75 527.67C393.803 530.794 394.17 534.109 393.825 537.388C393.48 540.667 392.431 543.833 390.75 546.67C389.062 549.502 386.783 551.937 384.069 553.808C381.354 555.678 378.267 556.941 375.02 557.51L368.22 558.7L368.99 565.57C369.559 570.557 368.462 575.592 365.87 579.89C364.635 581.942 363.09 583.791 361.29 585.37C357.12 589.015 351.769 591.023 346.23 591.02H345.36L343.74 590.95L341.46 590.82L339.67 590.69L337.67 590.52L335.67 590.33L333.67 590.11H333.37L331.5 589.87L330.71 589.77L329.28 589.56L326.88 589.19L326.21 589.08L324.64 588.81L323.83 588.66L321.97 588.31L321.44 588.2L318.99 587.69L318.64 587.61L316.5 587.12L315.67 586.92L313.95 586.49L313.11 586.27L311.34 585.79L310.43 585.54L308.61 585L307.82 584.77L305.49 584.03L305.13 583.91C304.23 583.62 303.32 583.31 302.41 582.98L301.86 582.78L299.72 582L298.83 581.65C298.21 581.41 297.58 581.17 296.96 580.91L295.96 580.51C295.37 580.27 294.76 580.01 294.15 579.74L293.15 579.32C292.51 579.04 291.86 578.74 291.2 578.43L290.41 578.07C288.49 577.15 286.62 576.21 284.83 575.24L284.16 574.87L282.08 573.7L281.14 573.15C280.54 572.79 279.93 572.43 279.33 572.05L278.33 571.44L276.5 570.26L275.58 569.65C274.89 569.19 274.23 568.73 273.58 568.26L273.53 568.37C273.27 569.07 272.98 569.83 272.68 570.58L272.26 571.58C271.99 572.26 271.71 572.92 271.42 573.58C271.28 573.9 271.13 574.25 270.97 574.58C270.66 575.27 270.36 575.92 270.06 576.58L269.61 577.58C269.26 578.31 268.91 579.01 268.56 579.7L268.22 580.38C267.73 581.38 267.22 582.22 266.77 583.1L266.7 583.24C266.2 584.14 265.7 585.01 265.2 585.88L264.71 586.71C264.37 587.27 264.01 587.88 263.63 588.48L263.07 589.37C262.72 589.94 262.37 590.48 262.01 591.03L261.43 591.92C261.06 592.48 260.68 593.03 260.31 593.57L259.76 594.36C259.34 594.97 258.9 595.58 258.47 596.19L258.08 596.72C257.53 597.47 256.96 598.24 256.38 598.99L256.15 599.29C255.65 599.93 255.15 600.57 254.66 601.19L254.13 601.84L252.95 603.29L252.69 603.59C252.263 607.917 251.857 612.233 251.47 616.54C253.888 616.772 256.253 617.396 258.47 618.39C260.621 619.364 262.605 620.67 264.35 622.26C266.159 623.918 267.677 625.869 268.84 628.03L271.14 632.27L275.51 630.27C278.424 628.908 281.603 628.205 284.82 628.21C287.973 628.22 291.087 628.901 293.956 630.208C296.825 631.515 299.383 633.418 301.46 635.79C315.545 632.121 330.056 630.342 344.61 630.5C352.04 630.5 359.91 630.89 368 631.66C370.107 631.863 372.147 632.51 373.986 633.558C375.825 634.606 377.421 636.031 378.67 637.74C379.918 639.447 380.792 641.398 381.233 643.466C381.674 645.534 381.673 647.672 381.23 649.74C376.216 669.669 367.222 688.377 354.79 704.74L354.48 705.16L354.04 705.71C353.65 706.22 353.25 706.71 352.85 707.21L352.05 708.21L350.82 709.69L349.97 710.69L348.71 712.14L347.8 713.14C347.37 713.62 346.94 714.14 346.49 714.57L345.61 715.5L345.53 715.58L344.21 716.95L343.67 717.5C352.441 721.22 360.803 725.842 368.62 731.29C371.23 733.112 373.415 735.478 375.026 738.224C376.636 740.97 377.634 744.032 377.95 747.2C378.269 750.371 377.898 753.573 376.862 756.587C375.827 759.601 374.151 762.355 371.95 764.66L368.63 768.15L371.92 771.69C374.139 774.067 375.799 776.909 376.78 780.01C377.48 782.238 377.818 784.564 377.78 786.9C377.756 790.007 377.075 793.075 375.78 795.9C375.46 796.616 375.099 797.314 374.7 797.99C373.055 800.784 370.807 803.176 368.12 804.99L366.69 805.99L365.15 806.99L363.74 807.89L362.21 808.83L360.68 809.75C360.15 810.07 359.6 810.38 359.05 810.7L358.84 810.82L357.33 811.67L355.6 812.61L353.74 813.61L353.04 813.97L351.13 814.97L349.53 815.74L349.06 815.96L347.06 816.9L346.77 817.02L344.91 817.84L344.23 818.12C343.72 818.34 343.23 818.55 342.7 818.75L341.92 819.07L340.45 819.65L339.61 819.96C339.08 820.17 338.54 820.36 338 820.56L337.24 820.83L335.24 821.53L334.97 821.62C334.08 821.92 333.25 822.18 332.41 822.44L331.86 822.6L329.86 823.19L329.05 823.41C328.45 823.58 327.86 823.73 327.27 823.88L326.4 824.1L324.61 824.54L323.7 824.74L321.75 825.16L320.95 825.32C320.037 825.5 319.127 825.67 318.22 825.83C317.28 825.99 316.33 826.14 315.37 826.27L314.58 826.38L312.58 826.64L311.58 826.74L309.58 826.93L308.5 827.02L307.1 827.11C314.16 853.9 308.94 879.36 304.65 893.43C303.283 897.973 300.484 901.952 296.671 904.774C292.857 907.596 288.234 909.11 283.49 909.09C280.187 909.094 276.926 908.352 273.95 906.92L270.16 905.11C272.99 917.73 276.09 930.41 279.39 942.89C280.408 946.736 279.857 950.828 277.858 954.268C275.859 957.707 272.576 960.211 268.73 961.23L231.04 971.23C229.78 971.482 228.493 971.573 227.21 971.5Z" fill="#231F20"/>
<path d="M227.22 956.5C171.22 745.14 197.54 588.24 216.76 473.67C221.59 444.86 226.16 417.67 228.76 393.36C240.92 279.12 160.7 129.08 159.89 127.58L194.2 109.04C197.75 115.61 280.96 271.35 267.54 397.48C264.83 422.94 260.18 450.71 255.24 480.12C236.61 591.18 211.1 743.29 264.94 946.51L227.22 956.5Z" fill="#D38D75"/>
<path d="M244.23 736.23C244.23 736.23 305.76 665.35 366.61 646.47C233.37 633.69 244.23 736.23 244.23 736.23Z" fill="#66BE64"/>
<path d="M244.23 736.23C345.23 746.03 366.61 646.47 366.61 646.47C305.76 665.35 244.23 736.23 244.23 736.23Z" fill="#4CA84E"/>
<g style="mix-blend-mode:multiply">
<path d="M342.7 695.82C264.82 725.95 259.5 680.33 259.5 680.32C241.02 705.93 244.23 736.23 244.23 736.23C294.18 741.07 324.65 719.19 342.7 695.82Z" fill="#4CA84E"/>
</g>
<path d="M216.37 576.19C204.28 397.85 55.1899 430.81 55.1899 430.81C55.1899 430.81 183.99 505.2 216.37 576.19Z" fill="#66BE64"/>
<path d="M55.1899 430.81C92.1899 578.01 216.37 576.19 216.37 576.19C183.99 505.2 55.1899 430.81 55.1899 430.81Z" fill="#4CA84E"/>
<g style="mix-blend-mode:multiply">
<path d="M216.37 576.189C214.97 555.619 211.75 537.859 207.15 522.539C158 546.839 92.6599 511.439 92.6599 511.439C143.39 577.259 216.37 576.189 216.37 576.189Z" fill="#4CA84E"/>
</g>
<path d="M204.32 829.44C153.13 658.18 15 723.27 15 723.27C15 723.27 157.05 767.37 204.32 829.44Z" fill="#66BE64"/>
<path d="M15 723.27C83.61 858.66 204.32 829.44 204.32 829.44C157.05 767.37 15 723.27 15 723.27Z" fill="#4CA84E"/>
<g style="mix-blend-mode:multiply">
<path d="M204.32 829.44C198.41 809.69 191.32 793.08 183.48 779.16C140.9 813.72 69.3599 793.63 69.3599 793.63C133.38 846.57 204.32 829.44 204.32 829.44Z" fill="#4CA84E"/>
</g>
<path d="M307.45 253.57L287.38 254.26C287.19 261.07 287.01 267.75 286.83 274.34C286.799 275.427 286.535 276.495 286.054 277.471C285.573 278.447 284.887 279.307 284.043 279.993C283.199 280.68 282.217 281.176 281.164 281.448C280.11 281.72 279.011 281.762 277.94 281.57C252.52 277.02 180.7 255.76 193.94 161.49C288.11 147.57 309.88 219.24 314.6 244.63C314.797 245.698 314.763 246.795 314.498 247.848C314.234 248.902 313.746 249.886 313.068 250.734C312.39 251.582 311.537 252.274 310.568 252.763C309.598 253.253 308.535 253.528 307.45 253.57Z" fill="#EB6E8E"/>
<path d="M277.6 178.75C292.38 197.19 298.16 218.67 300.34 230.35C300.539 231.42 300.505 232.521 300.24 233.577C299.974 234.633 299.484 235.619 298.802 236.468C298.12 237.317 297.263 238.009 296.289 238.496C295.316 238.983 294.248 239.254 293.16 239.29L273.09 239.99C272.9 246.8 272.72 253.47 272.54 260.06C272.509 261.148 272.244 262.216 271.763 263.192C271.283 264.168 270.597 265.029 269.753 265.716C268.909 266.403 267.928 266.9 266.874 267.174C265.821 267.447 264.721 267.49 263.65 267.3C251.95 265.21 230.42 259.57 211.89 244.91C197.58 226.91 188.51 200.42 194 161.44C232.94 155.69 259.5 164.57 277.6 178.75Z" fill="#F38CAB"/>
<g style="mix-blend-mode:multiply" opacity="0.77">
<path d="M287.45 254.21C287.26 261.02 287.08 267.7 286.9 274.29C286.87 275.377 286.605 276.445 286.124 277.421C285.643 278.396 284.957 279.257 284.113 279.943C283.269 280.63 282.287 281.126 281.234 281.398C280.18 281.67 279.081 281.711 278.01 281.52C263.1 278.85 232.23 270.44 211.93 244.91C211.52 244.39 211.11 243.91 210.71 243.34L210.56 243.14L209.39 241.55L209.22 241.31C208.44 240.21 207.67 239.08 206.93 237.92L206.78 237.68C206.42 237.11 206.06 236.54 205.71 235.96L205.56 235.69C204.85 234.5 204.16 233.28 203.49 232.02L203.34 231.73C203.01 231.12 202.7 230.5 202.39 229.88L202.25 229.6C201.93 228.95 201.62 228.3 201.32 227.6C201.02 226.94 200.73 226.27 200.44 225.6L200.29 225.27C200.01 224.61 199.74 223.94 199.47 223.27L199.35 222.97C199.09 222.3 198.83 221.62 198.58 220.97C198.586 220.937 198.586 220.903 198.58 220.87C198.33 220.17 198.08 219.45 197.84 218.73C197.84 218.61 197.75 218.48 197.71 218.35C197.48 217.64 197.25 216.92 197.03 216.2L196.94 215.9C196.73 215.19 196.52 214.47 196.32 213.75C196.314 213.686 196.314 213.623 196.32 213.56C196.11 212.81 195.92 212.05 195.73 211.29C195.73 211.15 195.66 211 195.62 210.86C195.44 210.1 195.26 209.33 195.09 208.55C195.09 208.45 195.09 208.35 195.02 208.25C194.86 207.5 194.71 206.75 194.57 205.98L194.51 205.71C194.36 204.91 194.22 204.1 194.09 203.29C194.09 203.13 194.03 202.97 194.01 202.81C193.88 202 193.75 201.18 193.64 200.34C193.64 200.25 193.64 200.15 193.64 200.05C193.53 199.25 193.43 198.45 193.34 197.64C193.34 197.52 193.34 197.4 193.34 197.28C193.25 196.44 193.17 195.58 193.09 194.71C193.09 194.54 193.09 194.37 193.09 194.2C193.01 193.32 192.95 192.44 192.89 191.55C192.89 191.46 192.89 191.37 192.89 191.28C192.84 190.43 192.8 189.57 192.76 188.7C192.76 188.56 192.76 188.42 192.76 188.27C192.76 187.37 192.7 186.46 192.69 185.54C192.69 185.36 192.69 185.17 192.69 184.99C192.69 184.05 192.69 183.1 192.69 182.15V181.94C192.69 181.02 192.69 180.09 192.75 179.15C192.75 178.99 192.75 178.82 192.75 178.65C192.75 177.65 192.83 176.73 192.88 175.75V175.17C192.94 174.17 193.01 173.17 193.08 172.17C193.085 172.13 193.085 172.089 193.08 172.05C193.16 171.05 193.25 170.05 193.35 169.05L193.41 168.49C193.51 167.49 193.62 166.49 193.75 165.41C193.75 165.21 193.75 165 193.82 164.8L193.91 164.06L194.3 163.06C213.32 221.06 287.45 254.21 287.45 254.21Z" fill="#DC426E"/>
</g>
<path d="M53.83 125.37L65.18 141.94L49.35 154.3C48.4931 154.97 47.7909 155.817 47.2909 156.783C46.791 157.75 46.5053 158.812 46.4531 159.899C46.4009 160.985 46.5835 162.071 46.9885 163.08C47.3935 164.09 48.0113 165 48.8 165.75C67.55 183.51 127.28 228.75 195.28 162.09C150.61 78.0198 80.01 103.03 56.77 114.29C55.7916 114.765 54.9271 115.446 54.2356 116.286C53.5441 117.126 53.0417 118.105 52.7627 119.157C52.4837 120.208 52.4346 121.307 52.6188 122.38C52.803 123.452 53.2161 124.472 53.83 125.37Z" fill="#EB6E8E"/>
<path d="M131.75 105.07C108.14 104.07 87.4099 112.2 76.7499 117.38C75.769 117.853 74.9022 118.532 74.2087 119.372C73.5152 120.211 73.0116 121.191 72.7323 122.244C72.453 123.296 72.4047 124.397 72.5907 125.47C72.7767 126.542 73.1926 127.563 73.8099 128.46L85.1599 145.03L69.3299 157.39C68.4716 158.059 67.768 158.906 67.2671 159.872C66.7662 160.838 66.4799 161.901 66.4277 162.988C66.3754 164.076 66.5586 165.161 66.9645 166.171C67.3705 167.181 67.9897 168.091 68.7799 168.84C77.3999 177.01 94.7099 191 117.51 197.22C140.51 198.06 167.19 189.63 195.31 162.09C176.81 127.33 153.9 111.22 131.75 105.07Z" fill="#F38CAB"/>
<g style="mix-blend-mode:multiply" opacity="0.77">
<path d="M65.18 141.94L49.35 154.3C48.4931 154.97 47.7909 155.817 47.2909 156.784C46.791 157.75 46.5053 158.812 46.4531 159.899C46.4009 160.986 46.5835 162.071 46.9885 163.08C47.3935 164.09 48.0113 165.001 48.8 165.75C59.8 176.17 84.89 196.02 117.48 197.22H119.48H122C123.35 197.22 124.72 197.14 126.09 197.05H126.37L128.37 196.89H128.67C130.06 196.75 131.45 196.58 132.86 196.37H133.18L135.24 196.03L135.54 195.97C136.25 195.84 136.96 195.71 137.67 195.56L139.81 195.09L140.16 195C140.86 194.84 141.56 194.66 142.26 194.48L142.57 194.4L144.67 193.81H144.77C145.49 193.6 146.21 193.37 146.93 193.14L147.32 193.02L149.45 192.29L149.75 192.18C150.45 191.94 151.15 191.68 151.85 191.41L152.03 191.34C152.75 191.06 153.48 190.77 154.21 190.46L154.61 190.3L156.79 189.36L157.07 189.22C157.77 188.91 158.47 188.59 159.17 188.22L159.42 188.1C160.15 187.75 160.89 187.39 161.62 187.01L162.05 186.79L164.26 185.62L164.52 185.48C165.22 185.09 165.93 184.7 166.63 184.29L166.94 184.11L169.16 182.79L169.6 182.52C170.35 182.06 171.1 181.59 171.85 181.1L172.07 180.95C172.79 180.49 173.51 180.01 174.23 179.52L174.58 179.28C175.33 178.77 176.07 178.28 176.82 177.72L177.27 177.39C178.03 176.84 178.79 176.29 179.56 175.71L179.72 175.59L181.93 173.88L182.32 173.57C183.07 172.98 183.83 172.37 184.58 171.75L185.03 171.38C185.8 170.73 186.58 170.08 187.36 169.38L187.45 169.3C188.21 168.64 188.97 167.97 189.73 167.3L190.16 166.92C190.91 166.24 191.67 165.53 192.44 164.82L192.88 164.4L193.42 163.89L194.03 162.96C135.83 181.91 65.18 141.94 65.18 141.94Z" fill="#DC426E"/>
</g>
<path d="M315.28 83.0401C313.46 89.3801 311.62 95.7901 309.73 102.34L328.65 109.08C329.676 109.444 330.611 110.025 331.392 110.783C332.172 111.542 332.78 112.46 333.173 113.475C333.566 114.49 333.735 115.578 333.669 116.664C333.603 117.751 333.303 118.81 332.79 119.77C320.61 142.54 278.19 204.27 192.64 162.51C208.5 68.65 283.39 70.1 308.99 73.51C310.063 73.6519 311.094 74.0228 312.011 74.5973C312.929 75.1719 313.712 75.9368 314.309 76.8404C314.905 77.7439 315.3 78.7652 315.468 79.8347C315.635 80.9043 315.571 81.9974 315.28 83.0401Z" fill="#EB6E8E"/>
<path d="M234.94 88.3599C257.04 79.9999 279.26 81.1399 291.04 82.6799C292.119 82.8215 293.155 83.1946 294.077 83.7735C294.998 84.3524 295.784 85.1233 296.38 86.0339C296.977 86.9444 297.369 87.973 297.531 89.0492C297.694 90.1255 297.621 91.224 297.32 92.2698C295.507 98.5965 293.66 105.03 291.78 111.57L310.7 118.3C311.726 118.664 312.661 119.245 313.442 120.003C314.222 120.762 314.83 121.68 315.223 122.695C315.616 123.71 315.785 124.798 315.719 125.884C315.653 126.971 315.353 128.03 314.84 128.99C309.23 139.47 297.22 158.2 277.55 171.3C256.02 179.3 228.02 179.78 192.64 162.51C199.2 123.7 215.85 101.19 234.94 88.3599Z" fill="#F38CAB"/>
<path opacity="0.67" d="M225.66 170.45C225.637 169.461 225.803 168.477 226.15 167.55C226.898 165.67 228.344 164.153 230.186 163.316C232.028 162.479 234.122 162.387 236.03 163.06C264.73 172.75 278.8 188.6 285.03 198.35C285.659 199.328 286.057 200.437 286.196 201.591C286.335 202.746 286.21 203.917 285.83 205.016C285.451 206.115 284.827 207.114 284.006 207.938C283.185 208.761 282.188 209.388 281.09 209.77C279.459 210.337 277.686 210.34 276.053 209.777C274.421 209.215 273.025 208.121 272.09 206.67C267.28 199.3 255.58 185.83 230.84 177.53C229.359 177.016 228.07 176.064 227.145 174.799C226.219 173.534 225.701 172.017 225.66 170.45Z" fill="#EB6E8E"/>
<g style="mix-blend-mode:multiply" opacity="0.77">
<path d="M309.73 102.34L328.65 109.08C329.676 109.444 330.611 110.025 331.391 110.783C332.172 111.542 332.78 112.46 333.173 113.475C333.566 114.49 333.735 115.578 333.669 116.664C333.603 117.751 333.303 118.81 332.79 119.77C325.65 133.12 308.1 159.88 277.55 171.3L275.68 171.97L275.44 172.05L273.57 172.67L273.29 172.76C272 173.16 270.69 173.54 269.35 173.89L269.08 173.96L267.08 174.44L266.78 174.5C265.43 174.81 264.05 175.09 262.65 175.34H262.33C261.65 175.46 260.96 175.57 260.27 175.67H259.97L257.81 175.95L255.63 176.18H255.27C254.55 176.24 253.83 176.3 253.11 176.34H252.79L250.61 176.45H250.5C249.76 176.45 249 176.45 248.24 176.45H247.84C247.09 176.45 246.34 176.45 245.58 176.45H245.27C244.53 176.45 243.79 176.45 243.04 176.37H242.84C242.07 176.37 241.28 176.28 240.5 176.22H240.06C239.28 176.16 238.49 176.1 237.7 176.02H237.39C236.63 175.94 235.86 175.86 235.09 175.76H234.81C234.01 175.65 233.2 175.54 232.38 175.41L231.91 175.34C231.09 175.21 230.27 175.08 229.44 174.93L229.15 174.87C228.36 174.73 227.57 174.58 226.77 174.41L226.41 174.34C225.58 174.17 224.74 173.98 223.89 173.79L223.39 173.67C222.53 173.47 221.68 173.26 220.81 173.03L220.55 172.97L218.06 172.29L217.65 172.17L215.03 171.39L214.5 171.23C213.6 170.95 212.7 170.66 211.8 170.35L211.6 170.29L208.97 169.36L208.5 169.2L205.78 168.2L205.24 167.99L202.4 166.85H202.29L199.49 165.65L198.97 165.43C198.03 165.01 197.09 164.59 196.14 164.15L195.59 163.9L194.91 163.58L194.04 162.89C255.31 162.57 309.73 102.34 309.73 102.34Z" fill="#DC426E"/>
</g>
<path d="M115.02 284.68L134.29 279L141.15 297.88C141.523 298.902 142.112 299.832 142.876 300.605C143.641 301.379 144.563 301.979 145.58 302.365C146.598 302.75 147.686 302.911 148.771 302.838C149.857 302.765 150.914 302.459 151.87 301.94C174.55 289.6 235.99 246.76 193.65 161.5C99.9 178 101.87 252.88 105.39 278.5C105.545 279.574 105.929 280.602 106.517 281.515C107.104 282.427 107.88 283.203 108.794 283.789C109.707 284.375 110.736 284.758 111.81 284.912C112.884 285.065 113.979 284.986 115.02 284.68Z" fill="#EB6E8E"/>
<path d="M119.79 204.3C111.58 226.46 112.87 248.67 114.49 260.45C114.64 261.527 115.02 262.56 115.605 263.477C116.19 264.394 116.967 265.174 117.881 265.763C118.795 266.353 119.826 266.738 120.902 266.893C121.979 267.048 123.077 266.968 124.12 266.66L143.39 260.99L150.25 279.86C150.621 280.883 151.209 281.814 151.974 282.589C152.738 283.363 153.661 283.964 154.678 284.35C155.696 284.735 156.785 284.896 157.871 284.822C158.957 284.748 160.014 284.44 160.97 283.92C171.41 278.25 190.06 266.11 203.02 246.35C210.92 224.76 211.16 196.76 193.65 161.5C154.88 168.32 132.45 185.13 119.79 204.3Z" fill="#F38CAB"/>
<g style="mix-blend-mode:multiply" opacity="0.77">
<path d="M134.29 279L141.15 297.88C141.523 298.902 142.111 299.831 142.876 300.605C143.64 301.379 144.563 301.979 145.58 302.364C146.597 302.75 147.686 302.911 148.771 302.838C149.857 302.765 150.914 302.458 151.87 301.94C165.17 294.7 191.81 276.94 203.02 246.35C203.24 245.73 203.46 245.11 203.67 244.48C203.701 244.401 203.728 244.321 203.75 244.24C203.96 243.62 204.16 243 204.36 242.37L204.45 242.08C204.84 240.79 205.21 239.48 205.55 238.14C205.55 238.05 205.6 237.96 205.62 237.86C205.78 237.21 205.94 236.56 206.08 235.86C206.08 235.76 206.13 235.66 206.15 235.56C206.45 234.226 206.72 232.846 206.96 231.42C206.96 231.31 206.96 231.21 207.01 231.1C207.12 230.42 207.23 229.73 207.32 229.04C207.32 228.94 207.32 228.83 207.37 228.73C207.46 228.02 207.55 227.3 207.63 226.58C207.71 225.86 207.78 225.13 207.84 224.4C207.84 224.28 207.84 224.16 207.84 224.04C207.89 223.32 207.94 222.6 207.98 221.88C207.98 221.77 207.98 221.67 207.98 221.56C207.98 220.84 208.05 220.11 208.07 219.38V219.27C208.07 218.53 208.07 217.77 208.07 217.01V216.61C208.07 215.86 208.07 215.11 208.07 214.35C208.07 214.25 208.07 214.14 208.07 214.04C208.07 213.3 208.02 212.56 207.98 211.81C207.975 211.743 207.975 211.676 207.98 211.61C207.98 210.84 207.88 210.05 207.82 209.27C207.82 209.12 207.82 208.97 207.82 208.83C207.76 208.05 207.69 207.26 207.6 206.47V206.16C207.51 205.4 207.42 204.63 207.32 203.87C207.325 203.777 207.325 203.683 207.32 203.59C207.206 202.783 207.086 201.973 206.96 201.16C206.96 201 206.96 200.84 206.89 200.68C206.75 199.87 206.61 199.05 206.46 198.22L206.4 197.93C206.25 197.14 206.09 196.35 205.92 195.55C205.92 195.43 205.87 195.32 205.85 195.2C205.67 194.366 205.48 193.526 205.28 192.68L205.16 192.18C204.946 191.333 204.726 190.473 204.5 189.6C204.481 189.515 204.458 189.432 204.43 189.35C204.21 188.523 203.98 187.693 203.74 186.86L203.62 186.45C203.36 185.58 203.1 184.71 202.82 183.83C202.77 183.66 202.71 183.48 202.65 183.31C202.37 182.41 202.07 181.51 201.76 180.61L201.69 180.42C201.39 179.55 201.08 178.67 200.75 177.79C200.7 177.63 200.64 177.48 200.58 177.32C200.25 176.42 199.9 175.51 199.58 174.6L199.37 174.07C199 173.13 198.61 172.19 198.21 171.24C198.21 171.24 198.21 171.17 198.21 171.13C197.82 170.21 197.41 169.27 197 168.34C196.92 168.16 196.84 167.99 196.77 167.82C196.35 166.88 195.92 165.94 195.47 165C195.39 164.82 195.3 164.63 195.21 164.45C195.12 164.27 195 164 194.89 163.77L194.19 162.91C194.13 224.16 134.29 279 134.29 279Z" fill="#DC426E"/>
</g>
<path d="M186.45 17.9495L174.2 33.8596L157.56 22.6296C156.659 22.0196 155.637 21.6111 154.564 21.4322C153.491 21.2533 152.392 21.3082 151.342 21.593C150.292 21.8778 149.316 22.3858 148.48 23.0825C147.644 23.7791 146.969 24.648 146.5 25.6296C135.4 48.9496 110.87 119.72 195.24 163.81C261.39 95.3495 215.79 35.9295 197.9 17.3095C197.144 16.526 196.229 15.9146 195.215 15.517C194.202 15.1195 193.115 14.9452 192.028 15.0059C190.941 15.0667 189.881 15.3611 188.918 15.8691C187.955 16.3771 187.113 17.0867 186.45 17.9495Z" fill="#EB6E8E"/>
<path d="M229.82 85.7796C223.44 63.0196 209.34 45.7797 201.1 37.2397C200.346 36.4558 199.432 35.8438 198.42 35.4455C197.407 35.0472 196.321 34.872 195.235 34.9319C194.149 34.9917 193.089 35.2851 192.127 35.7921C191.165 36.2991 190.323 37.0078 189.66 37.8697L177.45 53.7896L160.76 42.5697C159.859 41.9597 158.837 41.5513 157.764 41.3724C156.691 41.1935 155.592 41.2484 154.542 41.5332C153.492 41.818 152.516 42.326 151.68 43.0227C150.844 43.7193 150.169 44.5881 149.7 45.5697C144.6 56.2997 136.65 77.0797 137.77 100.68C144.07 122.8 160.34 145.59 195.22 163.82C222.58 135.51 230.82 108.75 229.82 85.7796Z" fill="#F38CAB"/>
<g style="mix-blend-mode:multiply" opacity="0.77">
<path d="M174.18 33.8599L157.54 22.6299C156.639 22.0199 155.617 21.6114 154.544 21.4325C153.471 21.2536 152.372 21.3084 151.322 21.5933C150.272 21.8781 149.296 22.3861 148.46 23.0828C147.624 23.7794 146.949 24.6483 146.48 25.6299C139.97 39.3099 128.84 69.3099 137.77 100.63C137.95 101.26 138.14 101.9 138.34 102.53C138.34 102.61 138.39 102.69 138.41 102.77C138.61 103.4 138.81 104.02 139.02 104.64C139.02 104.74 139.09 104.83 139.12 104.92C139.56 106.2 140.03 107.48 140.55 108.76C140.55 108.85 140.61 108.94 140.65 109.03C140.903 109.65 141.163 110.27 141.43 110.89L141.55 111.17C142.11 112.45 142.7 113.72 143.33 114.99L143.48 115.28C143.786 115.9 144.12 116.52 144.48 117.14C144.48 117.23 144.57 117.32 144.62 117.41C144.96 118.04 145.31 118.68 145.67 119.31C146.02 119.94 146.4 120.57 146.78 121.19L146.96 121.51C147.34 122.12 147.72 122.73 148.11 123.34L148.29 123.61C148.68 124.21 149.08 124.82 149.5 125.42L149.55 125.51C149.98 126.13 150.41 126.74 150.86 127.36L151.09 127.69C151.53 128.29 151.98 128.89 152.44 129.49L152.64 129.74C153.09 130.33 153.55 130.91 154.02 131.5L154.14 131.65C154.63 132.25 155.14 132.85 155.65 133.45L155.94 133.78C156.45 134.38 156.94 134.97 157.5 135.56L157.71 135.79C158.23 136.36 158.71 136.92 159.29 137.48L159.48 137.69C160.04 138.28 160.61 138.86 161.2 139.44L161.54 139.78C162.13 140.36 162.72 140.94 163.33 141.52L163.55 141.72C164.13 142.27 164.73 142.82 165.34 143.37L165.6 143.61L167.54 145.31L167.94 145.64L169.94 147.35L170.15 147.51C170.81 148.05 171.49 148.58 172.15 149.12C172.27 149.2 172.38 149.29 172.49 149.38C173.21 149.93 173.93 150.48 174.67 151.02L175.12 151.35C175.88 151.91 176.64 152.46 177.43 153.01L177.59 153.12C178.35 153.65 179.12 154.18 179.9 154.7L180.31 154.98C181.11 155.51 181.93 156.04 182.75 156.56L183.24 156.87C184.09 157.41 184.95 157.95 185.83 158.48L185.93 158.54C186.8 159.06 187.67 159.54 188.56 160.09L189.05 160.38L191.75 161.9L192.29 162.19L192.95 162.54L194.02 162.84C158 113.41 174.18 33.8599 174.18 33.8599Z" fill="#DC426E"/>
</g>
<path d="M229.45 154.65C228.298 154.617 227.165 154.943 226.206 155.583C225.248 156.222 224.512 157.144 224.1 158.22L205.79 157.74C205.542 155.659 204.779 153.672 203.57 151.96L216.86 139.36C217.887 139.883 219.05 140.076 220.191 139.911C221.331 139.746 222.393 139.232 223.23 138.44C224.301 137.422 224.925 136.021 224.964 134.543C225.004 133.066 224.455 131.633 223.44 130.56C222.936 130.028 222.332 129.601 221.662 129.302C220.993 129.004 220.271 128.84 219.538 128.82C218.806 128.801 218.076 128.926 217.392 129.188C216.708 129.451 216.082 129.846 215.55 130.35C214.716 131.144 214.148 132.177 213.924 133.307C213.7 134.436 213.832 135.608 214.3 136.66L201.01 149.27C199.364 147.974 197.423 147.109 195.36 146.75L195.84 128.44C196.936 128.085 197.896 127.4 198.587 126.478C199.278 125.555 199.667 124.442 199.7 123.29C199.737 121.812 199.187 120.379 198.169 119.306C197.15 118.234 195.748 117.609 194.27 117.57C193.538 117.55 192.81 117.674 192.127 117.936C191.443 118.198 190.818 118.591 190.287 119.095C189.756 119.598 189.329 120.201 189.031 120.87C188.733 121.538 188.569 122.258 188.55 122.99C188.517 124.142 188.843 125.275 189.483 126.234C190.122 127.192 191.044 127.928 192.12 128.34L191.64 146.65C189.562 146.9 187.58 147.663 185.87 148.87L173.21 135.57C173.733 134.543 173.925 133.379 173.761 132.239C173.596 131.098 173.082 130.037 172.29 129.2C171.271 128.13 169.868 127.508 168.391 127.47C166.914 127.433 165.482 127.983 164.41 129C163.878 129.503 163.451 130.107 163.153 130.775C162.854 131.444 162.691 132.164 162.671 132.896C162.652 133.628 162.777 134.357 163.039 135.04C163.301 135.724 163.696 136.349 164.2 136.88C164.992 137.717 166.025 138.286 167.156 138.51C168.286 138.734 169.458 138.601 170.51 138.13L183.12 151.42C181.824 153.065 180.958 155.007 180.6 157.07L162.29 156.59C161.935 155.495 161.249 154.536 160.326 153.847C159.404 153.157 158.291 152.771 157.14 152.74C155.661 152.702 154.229 153.253 153.156 154.271C152.084 155.289 151.459 156.692 151.42 158.17C151.4 158.901 151.524 159.63 151.786 160.313C152.047 160.997 152.441 161.622 152.945 162.153C153.448 162.684 154.051 163.111 154.719 163.409C155.388 163.707 156.108 163.87 156.84 163.89C157.992 163.919 159.125 163.59 160.083 162.949C161.041 162.308 161.777 161.386 162.19 160.31L180.5 160.79C180.752 162.87 181.515 164.856 182.72 166.57L169.43 179.17C168.403 178.647 167.239 178.454 166.099 178.619C164.958 178.784 163.897 179.298 163.06 180.09C161.989 181.111 161.367 182.515 161.329 183.994C161.292 185.473 161.842 186.906 162.86 187.98C163.879 189.05 165.281 189.672 166.758 189.709C168.236 189.747 169.668 189.197 170.74 188.18C171.576 187.387 172.146 186.355 172.37 185.224C172.594 184.094 172.461 182.922 171.99 181.87L185.28 169.27C186.926 170.562 188.867 171.425 190.93 171.78L190.45 190.09C189.354 190.447 188.395 191.135 187.706 192.059C187.016 192.983 186.63 194.098 186.6 195.25C186.562 196.728 187.113 198.161 188.131 199.234C189.149 200.306 190.551 200.931 192.03 200.97C193.508 201.008 194.941 200.457 196.013 199.439C197.086 198.421 197.711 197.018 197.75 195.54C197.779 194.388 197.45 193.255 196.809 192.297C196.168 191.339 195.246 190.603 194.17 190.19L194.65 171.88C196.731 171.632 198.718 170.869 200.43 169.66L213.03 182.95C212.507 183.977 212.314 185.14 212.479 186.281C212.644 187.422 213.157 188.483 213.95 189.32C214.969 190.392 216.372 191.016 217.851 191.055C219.33 191.095 220.765 190.546 221.84 189.53C222.91 188.509 223.533 187.105 223.57 185.626C223.608 184.147 223.057 182.714 222.04 181.64C221.246 180.806 220.213 180.238 219.083 180.014C217.953 179.79 216.782 179.922 215.73 180.39L203.13 167.1C204.422 165.454 205.285 163.512 205.64 161.45L223.95 161.93C224.308 163.026 224.995 163.986 225.919 164.677C226.843 165.367 227.957 165.756 229.11 165.79C230.588 165.828 232.021 165.277 233.094 164.259C234.166 163.241 234.791 161.838 234.83 160.36C234.865 158.892 234.32 157.469 233.313 156.4C232.306 155.331 230.918 154.702 229.45 154.65Z" fill="white"/>
<path d="M267.416 97.6236C276.927 95.4905 283.8 90.0261 282.767 85.4185C281.734 80.8109 273.185 78.805 263.674 80.938C254.162 83.0711 247.289 88.5354 248.322 93.143C249.356 97.7506 257.904 99.7566 267.416 97.6236Z" fill="white"/>
<path d="M277.48 111.3C280.749 111.3 283.4 108.649 283.4 105.38C283.4 102.11 280.749 99.46 277.48 99.46C274.21 99.46 271.56 102.11 271.56 105.38C271.56 108.649 274.21 111.3 277.48 111.3Z" fill="white"/>
<path d="M280.45 893.17L263.38 885.01L254.18 901.54C253.683 902.436 252.997 903.214 252.171 903.82C251.345 904.427 250.397 904.847 249.394 905.053C248.39 905.26 247.353 905.246 246.355 905.014C245.357 904.782 244.42 904.337 243.61 903.71C224.36 888.85 173.61 839.83 225.75 766.88C310.46 796.24 297.44 865.57 290.33 888.88C290.025 889.855 289.513 890.753 288.83 891.513C288.147 892.273 287.308 892.877 286.371 893.284C285.434 893.691 284.42 893.891 283.398 893.872C282.376 893.852 281.371 893.613 280.45 893.17Z" fill="#EB6E8E"/>
<path d="M288.03 817.72C292.35 839.55 287.83 860.01 284.56 870.72C284.26 871.699 283.753 872.603 283.072 873.368C282.391 874.134 281.553 874.743 280.615 875.155C279.677 875.567 278.661 875.772 277.637 875.756C276.613 875.739 275.604 875.502 274.68 875.06L257.61 866.9L248.41 883.43C247.911 884.325 247.225 885.101 246.399 885.707C245.573 886.312 244.626 886.732 243.623 886.938C242.619 887.144 241.583 887.131 240.585 886.9C239.587 886.669 238.651 886.226 237.84 885.6C228.98 878.76 213.46 864.69 204.35 844.38C200.23 823.12 204.2 797.05 225.75 766.88C260.77 779.02 279.09 798 288.03 817.72Z" fill="#F38CAB"/>
<g style="mix-blend-mode:multiply" opacity="0.77">
<path d="M263.38 885.01L254.18 901.54C253.682 902.436 252.997 903.214 252.171 903.821C251.345 904.427 250.397 904.848 249.393 905.054C248.389 905.26 247.353 905.246 246.355 905.015C245.356 904.783 244.42 904.338 243.61 903.71C232.32 895 210.2 874.53 204.35 844.38C204.23 843.77 204.12 843.16 204.02 842.54C204.02 842.46 204.02 842.39 204.02 842.31C203.92 841.7 203.82 841.09 203.74 840.48C203.74 840.38 203.74 840.29 203.74 840.2C203.56 838.94 203.42 837.66 203.3 836.37C203.3 836.28 203.3 836.19 203.3 836.1C203.25 835.47 203.2 834.84 203.16 834.2C203.16 834.11 203.16 834.01 203.16 833.91C203.09 832.61 203.04 831.28 203.03 829.91V829.6C203.03 828.95 203.03 828.29 203.03 827.6V827.3C203.03 826.63 203.03 825.95 203.11 825.3C203.11 824.62 203.19 823.93 203.24 823.3C203.24 823.18 203.24 823.07 203.24 822.95C203.3 822.28 203.36 821.61 203.43 820.95V820.65C203.5 819.97 203.58 819.29 203.67 818.6C203.67 818.6 203.67 818.54 203.67 818.51C203.77 817.81 203.87 817.11 203.98 816.4L204.04 816.02C204.15 815.33 204.27 814.63 204.41 813.93C204.422 813.833 204.438 813.736 204.46 813.64C204.59 812.96 204.73 812.27 204.88 811.58C204.875 811.52 204.875 811.46 204.88 811.4C205.03 810.68 205.2 809.96 205.37 809.24C205.37 809.11 205.44 808.97 205.47 808.84C205.65 808.12 205.84 807.4 206.03 806.68C206.062 806.585 206.089 806.488 206.11 806.39C206.3 805.7 206.5 805 206.71 804.3C206.71 804.22 206.76 804.14 206.79 804.05C207.01 803.32 207.24 802.59 207.48 801.85L207.63 801.42C207.87 800.68 208.13 799.94 208.39 799.19C208.427 799.105 208.461 799.018 208.49 798.93C208.75 798.22 209.01 797.5 209.29 796.79L209.41 796.47C209.7 795.72 210.01 794.97 210.32 794.22C210.38 794.07 210.44 793.92 210.51 793.77C210.83 793 211.16 792.24 211.51 791.47C211.51 791.39 211.58 791.32 211.61 791.24C211.94 790.51 212.28 789.77 212.61 789.03L212.78 788.67C213.153 787.903 213.533 787.134 213.92 786.36C213.99 786.2 214.07 786.04 214.15 785.89C214.55 785.103 214.96 784.313 215.38 783.52L215.48 783.35C215.886 782.584 216.306 781.813 216.74 781.04C216.82 780.91 216.89 780.77 216.97 780.63C217.42 779.85 217.87 779.06 218.34 778.26C218.44 778.11 218.53 777.95 218.62 777.8C219.113 776.98 219.613 776.16 220.12 775.34L220.18 775.25C220.68 774.44 221.18 773.64 221.72 772.83C221.82 772.68 221.92 772.53 222.01 772.38C222.54 771.57 223.08 770.76 223.64 769.95C223.74 769.79 223.85 769.64 223.96 769.48L224.36 768.9L225.14 768.2C215.93 825.08 263.38 885.01 263.38 885.01Z" fill="#DC426E"/>
</g>
<path d="M124.38 675.75C125.12 681.92 125.87 688.16 126.64 694.53L108.05 697.96C107.041 698.146 106.084 698.547 105.245 699.136C104.406 699.726 103.703 700.489 103.186 701.375C102.668 702.261 102.348 703.248 102.247 704.268C102.146 705.289 102.266 706.32 102.6 707.29C110.53 730.29 140.74 794.02 226.53 767.98C225.81 678.33 155.96 668.49 131.65 667.78C130.626 667.749 129.607 667.94 128.664 668.34C127.721 668.739 126.875 669.338 126.184 670.095C125.494 670.852 124.975 671.749 124.664 672.725C124.352 673.701 124.255 674.733 124.38 675.75Z" fill="#EB6E8E"/>
<path d="M198.28 692.709C178.98 681.629 158.15 679.359 146.97 679.039C145.943 679.008 144.921 679.2 143.975 679.601C143.029 680.003 142.181 680.604 141.489 681.364C140.797 682.124 140.278 683.025 139.968 684.005C139.657 684.984 139.563 686.02 139.69 687.039C140.43 693.209 141.19 699.449 141.96 705.819L123.36 709.249C122.351 709.435 121.395 709.836 120.556 710.426C119.716 711.016 119.015 711.78 118.498 712.665C117.981 713.551 117.662 714.539 117.563 715.559C117.463 716.58 117.585 717.61 117.92 718.579C121.56 729.159 129.92 748.369 146.26 763.489C165.09 774.189 191.06 778.769 226.53 768.009C226.23 730.909 214.12 707.479 198.28 692.709Z" fill="#F38CAB"/>
<g style="mix-blend-mode:multiply" opacity="0.77">
<path d="M126.64 694.57L108.05 698C107.041 698.186 106.084 698.588 105.245 699.177C104.406 699.767 103.703 700.53 103.186 701.416C102.668 702.302 102.348 703.288 102.247 704.309C102.146 705.33 102.266 706.36 102.6 707.33C107.25 720.81 119.6 748.33 146.26 763.5C146.8 763.81 147.35 764.11 147.9 764.41L148.11 764.52C148.65 764.81 149.2 765.09 149.75 765.37L150 765.5C151.14 766.07 152.3 766.61 153.49 767.14L153.74 767.25L155.49 767.99L155.76 768.09C156.97 768.58 158.21 769.09 159.48 769.48L159.77 769.58C160.38 769.8 161 770 161.63 770.2L161.91 770.28C162.56 770.49 163.21 770.68 163.91 770.87C164.56 771.06 165.23 771.23 165.91 771.41L166.24 771.49C166.89 771.66 167.55 771.81 168.24 771.97L168.53 772.03C169.2 772.18 169.87 772.32 170.53 772.45H170.62C171.286 772.59 171.986 772.72 172.72 772.84L173.09 772.9C173.79 773.02 174.49 773.12 175.19 773.22H175.49C176.18 773.32 176.87 773.41 177.57 773.49H177.76L179.96 773.71H180.37C181.11 773.77 181.85 773.83 182.6 773.87H182.89L185.06 773.97H185.33C186.09 773.97 186.86 773.97 187.64 773.97H188.09C188.87 773.97 189.66 773.97 190.45 773.97H190.73C191.48 773.97 192.24 773.97 193.01 773.9H193.35L195.78 773.76H196.26C197.09 773.76 197.92 773.64 198.76 773.56H199C199.8 773.49 200.61 773.4 201.42 773.31H201.83L204.38 772.98L204.89 772.9C205.77 772.77 206.65 772.64 207.54 772.49H207.73C208.58 772.35 209.45 772.19 210.31 772.03L210.78 771.94L213.46 771.4L213.99 771.28C214.92 771.08 215.86 770.88 216.8 770.65H216.9L219.69 769.96L220.21 769.82C221.14 769.58 222.08 769.33 223.03 769.06L223.58 768.91L224.26 768.71L225.17 768.2C168.25 758.66 126.64 694.57 126.64 694.57Z" fill="#DC426E"/>
</g>
<path d="M361.15 754.18L348.15 767.89L361.02 781.75C361.719 782.5 362.247 783.392 362.569 784.365C362.892 785.338 363 786.369 362.887 787.388C362.774 788.407 362.442 789.389 361.915 790.268C361.387 791.147 360.676 791.901 359.83 792.48C339.74 806.19 277.45 839.29 224.17 767.19C278.27 695.69 340.17 729.5 360.11 743.44C360.945 744.032 361.644 744.796 362.158 745.682C362.671 746.567 362.988 747.553 363.087 748.572C363.186 749.591 363.064 750.619 362.729 751.587C362.395 752.555 361.856 753.439 361.15 754.18Z" fill="#EB6E8E"/>
<path d="M291.74 723.66C313.84 726.29 331.9 736.92 341.07 743.33C341.911 743.918 342.614 744.681 343.133 745.566C343.651 746.452 343.972 747.439 344.074 748.459C344.176 749.48 344.055 750.511 343.722 751.481C343.388 752.451 342.848 753.338 342.14 754.08C337.87 758.58 333.54 763.08 329.14 767.78L342.02 781.64C342.718 782.391 343.246 783.283 343.567 784.257C343.889 785.23 343.996 786.262 343.882 787.281C343.768 788.299 343.436 789.282 342.907 790.16C342.379 791.038 341.667 791.792 340.82 792.37C331.58 798.68 313.39 809.1 291.27 811.48C269.77 808.83 246.2 797 224.17 767.19C246.51 737.62 270.22 726.07 291.74 723.66Z" fill="#F38CAB"/>
<path opacity="0.67" d="M248.27 788.189C248.674 787.349 249.241 786.598 249.94 785.979C251.38 784.734 253.247 784.095 255.149 784.196C257.05 784.297 258.839 785.129 260.14 786.519C279.89 807.109 284.74 826.459 285.75 837.339C285.851 838.431 285.703 839.531 285.317 840.556C284.931 841.582 284.317 842.507 283.521 843.261C282.726 844.014 281.77 844.578 280.725 844.909C279.68 845.239 278.574 845.329 277.49 845.169C275.883 844.931 274.402 844.161 273.284 842.983C272.166 841.805 271.474 840.286 271.32 838.669C270.52 830.419 266.61 814.069 249.56 796.369C248.529 795.305 247.852 793.947 247.621 792.483C247.39 791.019 247.617 789.52 248.27 788.189Z" fill="#EB6E8E"/>
<g style="mix-blend-mode:multiply" opacity="0.77">
<path d="M348.12 767.89L360.99 781.75C361.689 782.5 362.217 783.392 362.539 784.365C362.862 785.338 362.97 786.369 362.857 787.388C362.744 788.406 362.412 789.389 361.885 790.268C361.357 791.147 360.646 791.901 359.8 792.48C348.02 800.48 321.72 815.23 291.24 811.48C290.62 811.41 290 811.32 289.38 811.23H289.15C288.537 811.143 287.927 811.043 287.32 810.93L287.05 810.88C285.79 810.66 284.53 810.4 283.27 810.11L283.01 810.05C282.39 809.91 281.77 809.76 281.16 809.6L280.88 809.52C279.61 809.19 278.34 808.83 277.06 808.42L276.77 808.33L274.91 807.71L274.63 807.61C273.99 807.39 273.35 807.15 272.71 806.91L270.79 806.15L270.47 806.02L268.6 805.22L268.33 805.09C267.7 804.81 267.08 804.53 266.46 804.23H266.37C265.73 803.93 265.1 803.61 264.46 803.29L264.12 803.11L262.24 802.11L261.99 801.97C261.37 801.63 260.76 801.29 260.15 800.97L259.99 800.88L258.1 799.74L257.74 799.52L255.86 798.32L255.62 798.16C255.02 797.76 254.41 797.36 253.81 796.94L253.6 796.79C252.97 796.36 252.34 795.91 251.72 795.45L251.35 795.18C250.72 794.72 250.1 794.25 249.47 793.76L249.25 793.59C248.65 793.13 248.06 792.65 247.46 792.17L247.2 791.96C246.58 791.45 245.95 790.96 245.33 790.39L244.96 790.08C244.34 789.54 243.71 788.99 243.09 788.42L242.9 788.26C242.3 787.72 241.71 787.16 241.11 786.6L240.82 786.33L238.97 784.54L238.6 784.17C237.98 783.54 237.35 782.91 236.73 782.26L236.59 782.12C235.99 781.5 235.39 780.86 234.79 780.21C234.69 780.09 234.58 779.98 234.47 779.86C233.86 779.19 233.25 778.52 232.65 777.86L232.29 777.45C231.66 776.74 231.04 776.01 230.41 775.27L230.34 775.19C229.73 774.46 229.13 773.72 228.52 772.97L228.18 772.56C227.58 771.8 226.98 771.04 226.38 770.26L226.03 769.81L225.6 769.25L225.17 768.25C276.45 794.5 348.12 767.89 348.12 767.89Z" fill="#DC426E"/>
</g>
<path d="M106.15 835.43L124.71 839.08C123.86 845.44 123.04 851.67 122.22 857.83C122.094 858.842 122.186 859.869 122.492 860.843C122.797 861.816 123.308 862.712 123.989 863.47C124.671 864.229 125.508 864.832 126.443 865.24C127.378 865.647 128.39 865.848 129.41 865.83C153.72 865.4 223.68 856.36 225.41 766.73C139.93 739.73 108.99 803.1 100.8 826C100.447 826.969 100.309 828.003 100.394 829.03C100.48 830.057 100.788 831.054 101.297 831.951C101.806 832.847 102.503 833.623 103.341 834.224C104.179 834.824 105.137 835.236 106.15 835.43Z" fill="#EB6E8E"/>
<path d="M145.11 770.38C128.61 785.31 120.02 804.379 116.25 814.959C115.906 815.925 115.774 816.954 115.863 817.976C115.953 818.997 116.261 819.987 116.768 820.878C117.275 821.769 117.968 822.541 118.8 823.14C119.632 823.739 120.584 824.152 121.59 824.35L140.15 827.989C139.31 834.359 138.48 840.589 137.67 846.739C137.533 847.756 137.617 848.789 137.917 849.77C138.217 850.75 138.725 851.654 139.407 852.42C140.089 853.186 140.929 853.795 141.868 854.205C142.808 854.616 143.825 854.819 144.85 854.799C156.04 854.599 176.9 852.579 196.32 841.719C212.32 827.119 224.7 803.839 225.42 766.779C190.08 755.569 164.06 759.89 145.11 770.38Z" fill="#F38CAB"/>
<g style="mix-blend-mode:multiply" opacity="0.77">
<path d="M124.71 839.08C123.86 845.44 123.04 851.67 122.22 857.83C122.094 858.842 122.186 859.87 122.492 860.843C122.797 861.816 123.308 862.712 123.99 863.471C124.671 864.229 125.508 864.833 126.443 865.24C127.378 865.647 128.39 865.848 129.41 865.83C143.67 865.58 173.63 862.37 196.32 841.67L197.68 840.39L197.85 840.22C198.29 839.8 198.73 839.36 199.17 838.92L199.37 838.72C200.26 837.82 201.14 836.88 202 835.91L202.18 835.71C202.6 835.24 203.02 834.76 203.43 834.27L203.61 834.05C204.45 833.05 205.28 832.05 206.09 830.94L206.27 830.7C206.66 830.18 207.05 829.65 207.43 829.11C207.49 829.04 207.54 828.96 207.6 828.88C207.99 828.32 208.38 827.76 208.76 827.19C209.14 826.62 209.52 826.04 209.89 825.46L210.07 825.17C210.43 824.6 210.79 824.02 211.14 823.43L211.29 823.17C211.63 822.59 211.98 821.99 212.29 821.39C212.31 821.362 212.327 821.332 212.34 821.3C212.68 820.69 213.02 820.06 213.34 819.43L213.52 819.09C213.84 818.47 214.173 817.84 214.52 817.2L214.64 816.93C214.95 816.3 215.25 815.67 215.54 815.02C215.54 815.02 215.54 814.91 215.62 814.86C215.92 814.19 216.22 813.52 216.51 812.86C216.56 812.73 216.61 812.61 216.67 812.48C216.95 811.813 217.23 811.124 217.51 810.41L217.61 810.14C217.87 809.47 218.13 808.79 218.38 808.14L218.47 807.89C218.73 807.18 218.98 806.45 219.23 805.71C219.23 805.57 219.32 805.42 219.37 805.28C219.61 804.54 219.85 803.79 220.08 803.04C220.111 802.952 220.138 802.861 220.16 802.77C220.38 802.05 220.59 801.31 220.8 800.57L220.89 800.25C221.1 799.47 221.31 798.69 221.51 797.9L221.63 797.42C221.83 796.62 222.02 795.81 222.2 794.99L222.26 794.74C222.43 793.96 222.6 793.16 222.76 792.36C222.76 792.23 222.81 792.1 222.84 791.97C223 791.13 223.16 790.29 223.31 789.44L223.4 788.92C223.553 788.053 223.693 787.173 223.82 786.28V786.09C223.95 785.23 224.07 784.36 224.18 783.49L224.24 783.02C224.36 782.12 224.46 781.22 224.56 780.3C224.56 780.12 224.56 779.94 224.56 779.76C224.66 778.76 224.75 777.86 224.83 776.9C224.824 776.864 224.824 776.827 224.83 776.79C224.9 775.79 224.97 774.89 225.03 773.92V773.39C225.09 772.39 225.14 771.46 225.18 770.47C225.18 770.28 225.18 770.09 225.18 769.9V769.2L224.97 768.2C198.55 819.32 124.71 839.08 124.71 839.08Z" fill="#DC426E"/>
</g>
<path d="M281.87 643.75L264.72 651.75L255.72 635.12C255.232 634.22 254.556 633.435 253.738 632.819C252.919 632.204 251.978 631.773 250.977 631.554C249.977 631.336 248.941 631.336 247.94 631.554C246.94 631.773 245.998 632.205 245.18 632.82C225.76 647.46 174.47 695.9 225.75 769.44C310.75 741.05 298.56 671.58 291.75 648.24C291.467 647.247 290.971 646.328 290.298 645.546C289.624 644.763 288.788 644.137 287.848 643.71C286.909 643.283 285.887 643.065 284.855 643.072C283.822 643.079 282.804 643.31 281.87 643.75Z" fill="#EB6E8E"/>
<path d="M288.59 719.28C293.16 697.5 288.88 676.98 285.73 666.28C285.441 665.298 284.944 664.389 284.272 663.616C283.599 662.843 282.768 662.224 281.835 661.802C280.902 661.379 279.889 661.163 278.864 661.168C277.84 661.173 276.829 661.399 275.9 661.83L258.74 669.83L249.74 653.2C249.252 652.299 248.574 651.514 247.755 650.899C246.935 650.283 245.992 649.852 244.99 649.635C243.989 649.417 242.952 649.419 241.951 649.639C240.95 649.859 240.008 650.293 239.19 650.91C230.25 657.64 214.57 671.54 205.19 691.74C200.82 712.95 204.49 739.07 225.69 769.48C260.9 757.66 279.45 738.9 288.59 719.28Z" fill="#F38CAB"/>
<g style="mix-blend-mode:multiply" opacity="0.77">
<path d="M264.72 651.71L255.72 635.08C255.232 634.18 254.556 633.395 253.737 632.78C252.919 632.164 251.977 631.733 250.977 631.514C249.976 631.296 248.941 631.296 247.94 631.514C246.94 631.733 245.998 632.164 245.18 632.78C233.79 641.37 211.44 661.58 205.25 691.66C205.13 692.27 205.01 692.88 204.9 693.5C204.9 693.58 204.9 693.65 204.9 693.73C204.79 694.34 204.69 694.95 204.59 695.56C204.59 695.65 204.59 695.74 204.59 695.84C204.4 697.09 204.24 698.37 204.11 699.66C204.105 699.75 204.105 699.84 204.11 699.93C204.04 700.56 203.99 701.19 203.94 701.83C203.94 701.92 203.94 702.02 203.94 702.11C203.84 703.42 203.79 704.74 203.76 706.11C203.76 706.21 203.76 706.31 203.76 706.41C203.76 707.07 203.76 707.72 203.76 708.41V708.7C203.76 709.38 203.76 710.06 203.76 710.7C203.76 711.38 203.82 712.07 203.87 712.76C203.87 712.88 203.87 712.99 203.87 713.1C203.87 713.78 203.97 714.45 204.03 715.1V715.4C204.09 716.08 204.17 716.76 204.25 717.45C204.245 717.483 204.245 717.517 204.25 717.55C204.33 718.25 204.43 718.95 204.53 719.66L204.59 720.03C204.69 720.73 204.81 721.43 204.93 722.13C204.93 722.23 204.93 722.32 204.98 722.42C205.1 723.11 205.24 723.8 205.38 724.49V724.67C205.53 725.39 205.69 726.11 205.85 726.83C205.85 726.96 205.92 727.1 205.95 727.23C206.12 727.95 206.29 728.67 206.48 729.4C206.48 729.49 206.53 729.59 206.56 729.69C206.74 730.38 206.93 731.08 207.14 731.78C207.158 731.868 207.182 731.955 207.21 732.04C207.42 732.77 207.65 733.51 207.88 734.25C207.93 734.39 207.97 734.54 208.02 734.68C208.25 735.42 208.5 736.17 208.76 736.92L208.85 737.18C209.1 737.89 209.36 738.61 209.63 739.33C209.63 739.43 209.7 739.54 209.74 739.65C210.03 740.4 210.32 741.15 210.63 741.91L210.81 742.36C211.12 743.13 211.44 743.9 211.81 744.67C211.839 744.748 211.872 744.825 211.91 744.9C212.23 745.64 212.563 746.38 212.91 747.12C212.97 747.24 213.02 747.37 213.08 747.49C213.43 748.26 213.8 749.04 214.18 749.81C214.26 749.97 214.34 750.12 214.41 750.28L215.62 752.67L215.71 752.84C216.11 753.61 216.53 754.38 216.95 755.16L217.17 755.57C217.61 756.36 218.06 757.16 218.52 757.95L218.79 758.43C219.27 759.25 219.79 760.07 220.26 760.9L220.32 760.99C220.81 761.8 221.32 762.61 221.84 763.43L222.12 763.88C222.64 764.69 223.17 765.51 223.72 766.33L224.04 766.8L224.43 767.39L225.2 768.1C216.58 711.09 264.72 651.71 264.72 651.71Z" fill="#DC426E"/>
</g>
<path d="M258.26 776.57C257.313 776.049 256.229 775.833 255.156 775.951C254.082 776.069 253.071 776.516 252.26 777.23L237.18 768.86C237.876 767.014 238.103 765.025 237.84 763.07L254.42 758.32C255.049 759.205 255.937 759.872 256.962 760.23C257.986 760.589 259.097 760.62 260.14 760.32C261.48 759.936 262.613 759.036 263.29 757.817C263.967 756.598 264.132 755.16 263.75 753.82C263.364 752.481 262.463 751.351 261.244 750.676C260.026 750.001 258.589 749.837 257.25 750.22C256.207 750.521 255.284 751.137 254.605 751.984C253.927 752.831 253.527 753.867 253.46 754.95L236.88 759.69C236.066 757.893 234.818 756.326 233.25 755.13L241.62 740.05C242.69 740.23 243.79 740.073 244.768 739.602C245.746 739.131 246.553 738.369 247.08 737.42C247.76 736.207 247.931 734.775 247.556 733.436C247.181 732.098 246.291 730.963 245.08 730.28C243.867 729.6 242.435 729.429 241.096 729.804C239.758 730.179 238.623 731.069 237.94 732.28C237.421 733.227 237.206 734.31 237.324 735.384C237.442 736.457 237.887 737.468 238.6 738.28L230.23 753.36C228.384 752.663 226.395 752.437 224.44 752.7L219.69 736.11C220.573 735.482 221.239 734.595 221.597 733.573C221.955 732.55 221.988 731.442 221.69 730.4C221.306 729.059 220.406 727.926 219.187 727.249C217.968 726.573 216.531 726.407 215.19 726.79C214.526 726.98 213.907 727.299 213.367 727.728C212.827 728.158 212.377 728.69 212.042 729.293C211.708 729.897 211.496 730.561 211.418 731.247C211.341 731.932 211.399 732.627 211.59 733.29C211.891 734.332 212.507 735.256 213.354 735.935C214.201 736.613 215.237 737.013 216.32 737.08L221.06 753.66C219.261 754.471 217.694 755.719 216.5 757.29L201.42 748.92C201.6 747.849 201.443 746.75 200.972 745.772C200.501 744.794 199.739 743.986 198.79 743.46C198.19 743.122 197.529 742.906 196.845 742.823C196.162 742.741 195.468 742.794 194.805 742.98C194.142 743.166 193.522 743.48 192.981 743.906C192.439 744.331 191.987 744.859 191.65 745.46C190.97 746.672 190.799 748.105 191.174 749.443C191.549 750.782 192.439 751.917 193.65 752.6C194.597 753.119 195.681 753.334 196.754 753.216C197.827 753.098 198.839 752.652 199.65 751.94L214.73 760.31C214.033 762.155 213.807 764.145 214.07 766.1L197.48 770.85C196.85 769.966 195.962 769.299 194.938 768.941C193.913 768.583 192.803 768.551 191.76 768.85C190.421 769.236 189.291 770.137 188.616 771.355C187.941 772.574 187.777 774.011 188.16 775.35C188.544 776.688 189.443 777.818 190.66 778.493C191.877 779.168 193.312 779.332 194.65 778.95C195.694 778.649 196.619 778.033 197.299 777.187C197.979 776.34 198.381 775.304 198.45 774.22L215.03 769.48C215.844 771.277 217.092 772.843 218.66 774.04L210.29 789.12C209.218 788.938 208.116 789.093 207.136 789.564C206.157 790.035 205.347 790.799 204.82 791.75C204.147 792.969 203.985 794.405 204.369 795.744C204.753 797.082 205.653 798.213 206.87 798.89C208.083 799.567 209.515 799.737 210.852 799.362C212.19 798.987 213.325 798.098 214.01 796.89C214.529 795.943 214.744 794.859 214.626 793.786C214.508 792.712 214.063 791.701 213.35 790.89L221.72 775.81C223.565 776.506 225.555 776.733 227.51 776.47L232.26 793.06C231.375 793.686 230.707 794.572 230.348 795.596C229.99 796.619 229.959 797.728 230.26 798.77C230.449 799.433 230.767 800.053 231.195 800.593C231.624 801.133 232.154 801.584 232.757 801.919C233.36 802.255 234.023 802.468 234.708 802.547C235.393 802.626 236.087 802.569 236.75 802.38C238.09 801.996 239.223 801.096 239.9 799.877C240.577 798.658 240.742 797.221 240.36 795.88C240.059 794.837 239.442 793.914 238.596 793.235C237.749 792.557 236.713 792.157 235.63 792.09L230.89 775.51C232.685 774.693 234.251 773.446 235.45 771.88L250.53 780.25C250.347 781.32 250.502 782.421 250.973 783.4C251.445 784.378 252.209 785.185 253.16 785.71C254.372 786.39 255.805 786.561 257.143 786.186C258.482 785.811 259.617 784.92 260.3 783.71C260.635 783.107 260.848 782.444 260.927 781.759C261.005 781.074 260.948 780.38 260.759 779.717C260.57 779.054 260.251 778.435 259.823 777.895C259.394 777.355 258.863 776.905 258.26 776.57Z" fill="white"/>
<path d="M339.585 749.012C340.743 744.694 334.463 739.259 325.56 736.872C316.656 734.486 308.5 736.051 307.343 740.369C306.185 744.687 312.465 750.122 321.368 752.509C330.272 754.895 338.428 753.33 339.585 749.012Z" fill="white"/>
<path d="M319.86 761.97C322.942 761.97 325.44 759.471 325.44 756.39C325.44 753.308 322.942 750.81 319.86 750.81C316.778 750.81 314.28 753.308 314.28 756.39C314.28 759.471 316.778 761.97 319.86 761.97Z" fill="white"/>
<path d="M372.45 542.72L351.77 546.34C352.56 553.43 353.34 560.34 354.1 567.21C354.228 568.341 354.109 569.486 353.753 570.567C353.397 571.649 352.811 572.64 352.036 573.474C351.262 574.308 350.316 574.964 349.263 575.398C348.211 575.833 347.077 576.034 345.94 575.99C318.94 574.99 241.52 563.35 241.61 463.82C337.1 435.76 370.02 506.82 378.61 532.42C378.971 533.501 379.094 534.647 378.971 535.78C378.847 536.913 378.481 538.006 377.896 538.984C377.311 539.963 376.521 540.803 375.581 541.448C374.641 542.092 373.573 542.526 372.45 542.72Z" fill="#EB6E8E"/>
<path d="M330.66 469.64C348.66 486.58 357.74 507.99 361.66 519.77C362.019 520.849 362.142 521.994 362.019 523.125C361.896 524.256 361.531 525.348 360.948 526.325C360.365 527.303 359.579 528.143 358.642 528.789C357.705 529.436 356.641 529.872 355.52 530.07L334.84 533.69C335.63 540.78 336.41 547.69 337.17 554.56C337.297 555.69 337.179 556.835 336.824 557.915C336.468 558.995 335.884 559.986 335.11 560.82C334.336 561.654 333.391 562.31 332.34 562.745C331.289 563.18 330.157 563.383 329.02 563.34C316.6 562.87 293.5 560.15 272.18 547.66C254.75 531.1 241.53 504.98 241.57 463.82C281.08 452.22 309.87 457.57 330.66 469.64Z" fill="#F38CAB"/>
<g style="mix-blend-mode:multiply" opacity="0.77">
<path d="M351.76 546.34C352.55 553.43 353.33 560.34 354.09 567.21C354.218 568.341 354.099 569.486 353.743 570.568C353.387 571.649 352.802 572.64 352.027 573.474C351.252 574.308 350.306 574.964 349.253 575.399C348.201 575.833 347.067 576.035 345.93 575.99C330.11 575.39 296.93 571.15 272.21 547.66C271.71 547.18 271.21 546.66 270.72 546.21C270.662 546.142 270.598 546.078 270.53 546.02C270.05 545.54 269.53 545.02 269.1 544.55L268.88 544.32C267.907 543.293 266.953 542.233 266.02 541.14L265.83 540.91C265.37 540.376 264.92 539.836 264.48 539.29L264.28 539.04C263.37 537.9 262.47 536.74 261.6 535.53L261.4 535.26C260.98 534.67 260.56 534.08 260.15 533.47L259.97 533.2C259.55 532.58 259.13 531.95 258.72 531.31C258.32 530.67 257.91 530.02 257.51 529.31L257.32 528.99C256.933 528.323 256.553 527.657 256.18 526.99L256.01 526.69C255.64 526.03 255.28 525.37 254.92 524.69L254.86 524.59C254.5 523.9 254.14 523.2 253.79 522.49C253.72 522.37 253.66 522.24 253.6 522.11C253.25 521.41 252.91 520.7 252.6 519.99L252.46 519.69C252.14 518.98 251.82 518.27 251.51 517.55C251.479 517.492 251.452 517.432 251.43 517.37C251.11 516.62 250.79 515.86 250.49 515.1C250.43 514.95 250.37 514.81 250.32 514.67C250.01 513.91 249.72 513.14 249.43 512.36C249.43 512.26 249.36 512.15 249.32 512.05C249.04 511.3 248.78 510.54 248.51 509.77L248.42 509.49C248.15 508.69 247.89 507.88 247.63 507.05L247.48 506.57C247.23 505.75 246.98 504.91 246.74 504.07C246.74 503.97 246.68 503.87 246.66 503.77C246.43 502.96 246.21 502.14 246 501.32L245.91 500.95C245.69 500.09 245.48 499.21 245.27 498.33L245.15 497.8C244.95 496.91 244.75 496 244.57 495.08L244.51 494.81C244.34 493.94 244.17 493.05 244.01 492.16C244.01 492.01 243.96 491.86 243.93 491.72C243.77 490.79 243.61 489.85 243.47 488.9L243.38 488.33C243.23 487.33 243.09 486.38 242.96 485.38C242.965 485.31 242.965 485.24 242.96 485.17C242.84 484.17 242.72 483.25 242.62 482.27L242.56 481.76C242.46 480.76 242.36 479.76 242.27 478.76C242.27 478.56 242.27 478.36 242.27 478.16C242.19 477.11 242.11 476.05 242.04 474.97V474.85C241.97 473.85 241.92 472.74 241.87 471.67C241.87 471.47 241.87 471.27 241.87 471.08C241.87 470.01 241.79 468.93 241.77 467.83C241.77 467.62 241.77 467.41 241.77 467.2C241.77 466.99 241.77 466.68 241.77 466.42L242.02 465.28C270.24 522.75 351.76 546.34 351.76 546.34Z" fill="#DC426E"/>
</g>
<path d="M91.2298 446.78L105.39 462.29L90.7898 477.38C89.9967 478.197 89.3896 479.176 89.0101 480.25C88.6306 481.323 88.4878 482.466 88.5913 483.6C88.6948 484.735 89.0423 485.833 89.6099 486.82C90.1775 487.807 90.9518 488.66 91.8798 489.32C113.88 504.99 182.25 543.14 243.01 464.32C184.58 383.74 115.1 419.87 92.6698 434.9C91.7265 435.533 90.9308 436.361 90.3369 437.33C89.7429 438.298 89.3647 439.383 89.228 440.51C89.0914 441.638 89.1994 442.782 89.5449 443.864C89.8903 444.946 90.465 445.94 91.2298 446.78Z" fill="#EB6E8E"/>
<path d="M168.97 414.47C144.38 416.9 124.09 428.28 113.77 435.19C112.825 435.823 112.027 436.653 111.432 437.623C110.837 438.593 110.459 439.68 110.322 440.81C110.185 441.939 110.294 443.085 110.64 444.169C110.987 445.253 111.563 446.249 112.33 447.09L126.45 462.57L111.85 477.66C111.057 478.477 110.45 479.456 110.07 480.529C109.691 481.603 109.548 482.746 109.651 483.88C109.755 485.014 110.102 486.112 110.67 487.1C111.238 488.087 112.012 488.94 112.94 489.6C123.05 496.81 143 508.78 167.5 511.92C191.42 509.47 217.85 496.87 242.97 464.28C218.85 430.99 192.8 417.63 168.97 414.47Z" fill="#F38CAB"/>
<g style="mix-blend-mode:multiply" opacity="0.77">
<path d="M105.39 462.29L90.7898 477.38C89.9967 478.197 89.3896 479.176 89.0101 480.25C88.6306 481.323 88.4878 482.466 88.5913 483.6C88.6948 484.734 89.0423 485.833 89.6099 486.82C90.1775 487.807 90.9518 488.66 91.8798 489.32C104.77 498.51 133.63 515.43 167.54 511.95L169.6 511.71H169.86L171.86 511.42H172.16C173.56 511.2 174.96 510.95 176.37 510.65L176.66 510.59C177.35 510.45 178.04 510.29 178.73 510.13L179.04 510.06C180.45 509.71 181.87 509.34 183.3 508.92L183.62 508.82C184.31 508.61 185.01 508.4 185.7 508.17L186.01 508.07C186.73 507.84 187.44 507.59 188.16 507.34C188.87 507.08 189.59 506.81 190.3 506.53L190.66 506.4C191.35 506.13 192.05 505.84 192.75 505.55L193.06 505.42C193.76 505.13 194.45 504.82 195.15 504.51H195.25C195.96 504.19 196.68 503.85 197.39 503.51L197.77 503.32C198.47 502.98 199.18 502.63 199.88 502.26L200.17 502.11L202.23 501L202.41 500.9C203.12 500.51 203.83 500.1 204.54 499.68L204.93 499.45C205.64 499.03 206.34 498.6 207.05 498.16L207.33 497.98C208 497.56 208.68 497.12 209.33 496.67L209.58 496.51C210.28 496.04 210.99 495.51 211.69 495.06L212.11 494.77L214.23 493.24L214.47 493.06L216.47 491.52L216.77 491.29C217.47 490.74 218.17 490.17 218.87 489.6L219.29 489.25C220 488.67 220.71 488.07 221.41 487.46L221.62 487.28C222.3 486.69 222.97 486.09 223.62 485.48L223.96 485.18C224.65 484.55 225.35 483.9 226.05 483.24L226.47 482.84C227.17 482.16 227.88 481.47 228.59 480.76L228.74 480.61C229.42 479.93 230.1 479.23 230.74 478.53L231.1 478.15C231.8 477.42 232.49 476.68 233.18 475.93L233.59 475.48C234.3 474.7 235.01 473.91 235.72 473.1L235.8 473.01C236.49 472.22 237.18 471.41 237.87 470.59L238.25 470.14C238.94 469.32 239.63 468.48 240.31 467.63C240.44 467.47 240.57 467.3 240.71 467.14L241.19 466.52L241.69 465.52C184.33 493.44 105.39 462.29 105.39 462.29Z" fill="#DC426E"/>
</g>
<path d="M355.81 365.07C354.81 371.9 353.87 378.81 352.87 385.86L373.43 390.09C374.545 390.318 375.597 390.785 376.516 391.457C377.434 392.129 378.196 392.992 378.751 393.986C379.305 394.98 379.638 396.082 379.728 397.216C379.818 398.351 379.661 399.491 379.27 400.56C369.95 425.9 334.97 495.97 240.35 465.13C243.16 365.64 320.92 356.29 347.91 356.06C349.048 356.049 350.175 356.283 351.213 356.748C352.252 357.212 353.178 357.896 353.928 358.751C354.679 359.607 355.235 360.614 355.56 361.705C355.884 362.796 355.97 363.943 355.81 365.07Z" fill="#EB6E8E"/>
<path d="M273.39 382.22C295.07 370.36 318.24 368.32 330.66 368.22C331.796 368.211 332.921 368.446 333.958 368.911C334.996 369.375 335.92 370.057 336.67 370.912C337.42 371.766 337.977 372.771 338.303 373.86C338.629 374.948 338.716 376.094 338.56 377.22C337.56 384.04 336.62 390.95 335.62 398L356.18 402.23C357.295 402.459 358.348 402.927 359.266 403.6C360.184 404.274 360.946 405.137 361.499 406.132C362.053 407.127 362.385 408.23 362.473 409.366C362.561 410.501 362.403 411.641 362.01 412.71C357.73 424.37 348.01 445.5 329.54 461.91C308.4 473.37 279.47 477.91 240.35 465.12C241.51 423.99 255.45 398.27 273.39 382.22Z" fill="#F38CAB"/>
<path opacity="0.67" d="M275.69 468.57C275.518 467.551 275.545 466.509 275.77 465.5C276.271 463.446 277.547 461.666 279.331 460.533C281.115 459.4 283.268 459.001 285.34 459.42C316.47 465.3 333.34 479.66 341.24 488.85C342.04 489.768 342.62 490.856 342.935 492.031C343.251 493.207 343.294 494.439 343.062 495.634C342.83 496.829 342.328 497.955 341.594 498.926C340.861 499.898 339.915 500.689 338.83 501.24C337.224 502.063 335.388 502.323 333.617 501.978C331.845 501.634 330.241 500.705 329.06 499.34C323.06 492.41 308.95 480.15 282.13 475.14C280.511 474.841 279.024 474.049 277.871 472.873C276.719 471.697 275.957 470.195 275.69 468.57Z" fill="#EB6E8E"/>
<g style="mix-blend-mode:multiply" opacity="0.77">
<path d="M352.87 385.86L373.43 390.09C374.545 390.318 375.597 390.785 376.516 391.457C377.434 392.129 378.196 392.992 378.751 393.986C379.305 394.98 379.638 396.082 379.728 397.216C379.818 398.351 379.661 399.491 379.27 400.56C373.8 415.42 359.51 445.67 329.54 461.92L327.7 462.92L327.47 463.04L325.62 463.95L325.34 464.08C324.06 464.69 322.76 465.27 321.43 465.82L321.16 465.94L319.16 466.72L318.86 466.83C317.5 467.35 316.12 467.83 314.7 468.29L314.38 468.4C313.69 468.62 313 468.83 312.3 469.03L311.98 469.12C311.26 469.33 310.53 469.54 309.8 469.73L307.58 470.28L307.21 470.37C306.48 470.54 305.74 470.7 305 470.85L304.67 470.91C303.93 471.06 303.18 471.21 302.43 471.34H302.32L299.99 471.72L299.57 471.78L297.23 472.09H296.9C296.14 472.18 295.36 472.26 294.58 472.33H294.38C293.57 472.41 292.75 472.47 291.93 472.53H291.47C290.65 472.53 289.83 472.62 289 472.65H288.67C287.87 472.65 287.07 472.65 286.25 472.71H282.89C282.03 472.71 281.16 472.71 280.28 472.64H279.97L277.45 472.57H277.07L274.38 472.36H273.84C272.93 472.27 272.01 472.18 271.08 472.07H270.8C269.92 471.97 269.02 471.85 268.12 471.73L267.68 471.67C266.74 471.54 265.8 471.39 264.85 471.24L264.28 471.14L261.36 470.63H261.15L258.28 470.06L257.77 469.95L254.77 469.29L254.18 469.15C253.18 468.91 252.12 468.65 251.08 468.39H250.96C249.96 468.13 248.96 467.85 247.89 467.57L247.31 467.41C246.31 467.12 245.25 466.81 244.2 466.5L243.59 466.31L242.84 466.08L241.84 465.49C305.24 456.1 352.87 385.86 352.87 385.86Z" fill="#DC426E"/>
</g>
<path d="M177.67 602.87L196.8 594.2L206.64 612.75C207.173 613.755 207.918 614.633 208.821 615.324C209.725 616.015 210.768 616.503 211.877 616.755C212.987 617.006 214.138 617.015 215.251 616.781C216.365 616.548 217.415 616.076 218.33 615.4C240.03 599.34 297.44 546.08 241.24 463.93C146.56 494.6 159.44 571.85 166.8 597.83C167.111 598.923 167.655 599.937 168.393 600.802C169.132 601.666 170.048 602.362 171.08 602.84C172.112 603.318 173.235 603.569 174.372 603.574C175.509 603.579 176.634 603.339 177.67 602.87Z" fill="#EB6E8E"/>
<path d="M170.97 518.95C165.67 543.09 170.23 565.9 173.62 577.85C173.934 578.941 174.48 579.952 175.221 580.813C175.961 581.674 176.878 582.365 177.91 582.839C178.941 583.314 180.063 583.561 181.199 583.562C182.334 583.564 183.457 583.321 184.49 582.85L203.61 574.18L213.45 592.73C213.984 593.735 214.728 594.613 215.632 595.304C216.535 595.995 217.578 596.483 218.688 596.735C219.797 596.986 220.948 596.995 222.062 596.762C223.175 596.528 224.225 596.057 225.14 595.38C235.14 587.99 252.68 572.72 263.23 550.38C268.29 526.88 264.48 497.85 241.23 463.88C202.09 476.62 181.33 497.26 170.97 518.95Z" fill="#F38CAB"/>
<g style="mix-blend-mode:multiply" opacity="0.77">
<path d="M196.8 594.2L206.64 612.75C207.173 613.755 207.918 614.633 208.821 615.324C209.725 616.015 210.768 616.503 211.877 616.755C212.987 617.006 214.138 617.015 215.251 616.781C216.365 616.548 217.415 616.076 218.33 615.4C231.05 605.98 256.06 583.77 263.23 550.4C263.37 549.73 263.51 549.05 263.64 548.4C263.64 548.31 263.64 548.23 263.69 548.14C263.81 547.47 263.93 546.79 264.04 546.14C264.04 546.04 264.04 545.94 264.09 545.84C264.31 544.44 264.51 543.02 264.66 541.59V541.3C264.74 540.6 264.8 539.9 264.86 539.19V538.87C264.97 537.42 265.05 535.96 265.09 534.47C265.09 534.36 265.09 534.25 265.09 534.13C265.09 533.41 265.09 532.68 265.09 531.95V531.57C265.09 530.82 265.09 530.06 265.09 529.3C265.09 528.54 265.03 527.78 264.99 527.01C264.99 526.89 264.99 526.76 264.99 526.63C264.99 525.89 264.9 525.14 264.83 524.38V524.05C264.77 523.29 264.7 522.54 264.61 521.77C264.61 521.77 264.61 521.7 264.61 521.66C264.52 520.89 264.42 520.11 264.32 519.32L264.26 518.9C264.15 518.13 264.03 517.35 263.9 516.57L263.84 516.25C263.72 515.48 263.58 514.72 263.43 513.95C263.426 513.883 263.426 513.816 263.43 513.75C263.27 512.95 263.1 512.15 262.93 511.34C262.93 511.19 262.86 511.04 262.83 510.89C262.65 510.09 262.46 509.29 262.25 508.48C262.25 508.38 262.2 508.27 262.17 508.17C261.98 507.39 261.77 506.61 261.55 505.83L261.48 505.55C261.25 504.73 261 503.91 260.75 503.09L260.6 502.6C260.35 501.78 260.08 500.95 259.8 500.12C259.8 500.02 259.73 499.92 259.7 499.83C259.426 499.03 259.146 498.23 258.86 497.43C258.823 497.311 258.779 497.194 258.73 497.08C258.43 496.24 258.11 495.4 257.78 494.55C257.71 494.39 257.65 494.22 257.58 494.05C257.24 493.2 256.89 492.34 256.58 491.48L256.47 491.22C256.12 490.4 255.76 489.58 255.39 488.75L255.21 488.34C254.82 487.48 254.42 486.61 254 485.75C253.92 485.57 253.83 485.4 253.75 485.22C253.32 484.34 252.89 483.45 252.44 482.56C252.401 482.5 252.367 482.436 252.34 482.37C251.9 481.51 251.45 480.65 250.98 479.79L250.74 479.33C250.26 478.44 249.74 477.56 249.27 476.67L248.97 476.14C248.45 475.22 247.92 474.3 247.37 473.38C247.343 473.349 247.32 473.315 247.3 473.28C246.76 472.37 246.21 471.47 245.64 470.56L245.33 470.05C244.76 469.15 244.18 468.23 243.58 467.32C243.47 467.14 243.35 466.97 243.23 466.79L242.8 466.14L241.95 465.34C250.82 528.75 196.8 594.2 196.8 594.2Z" fill="#DC426E"/>
</g>
<path d="M212.97 316.34L202.59 334.57L183.73 325.35C182.708 324.853 181.591 324.582 180.455 324.556C179.319 324.53 178.191 324.748 177.147 325.197C176.104 325.646 175.169 326.314 174.407 327.157C173.644 327.999 173.072 328.996 172.73 330.08C164.62 355.82 149.48 432.66 243.23 466.08C301.8 385.61 245.97 330.69 224.75 314C223.853 313.295 222.814 312.792 221.704 312.527C220.595 312.261 219.441 312.239 218.322 312.461C217.203 312.683 216.145 313.145 215.221 313.815C214.298 314.484 213.53 315.345 212.97 316.34Z" fill="#EB6E8E"/>
<path d="M267.72 380.29C257.82 357.65 240.72 341.87 230.96 334.19C230.065 333.487 229.029 332.986 227.923 332.72C226.817 332.455 225.667 332.431 224.551 332.65C223.434 332.869 222.378 333.327 221.455 333.991C220.532 334.655 219.762 335.511 219.2 336.5L208.82 354.76L189.95 345.57C188.929 345.071 187.812 344.799 186.677 344.771C185.541 344.743 184.412 344.961 183.368 345.409C182.324 345.857 181.389 346.525 180.626 347.367C179.864 348.21 179.292 349.206 178.95 350.29C175.22 362.14 169.95 384.81 174.58 409.09C184.31 431.09 204.45 452.31 243.22 466.09C267.45 432.83 272.09 403.93 267.72 380.29Z" fill="#F38CAB"/>
<g style="mix-blend-mode:multiply" opacity="0.77">
<path d="M202.59 334.57L183.73 325.35C182.708 324.853 181.591 324.583 180.455 324.556C179.319 324.53 178.191 324.749 177.147 325.197C176.104 325.646 175.169 326.315 174.407 327.157C173.644 328 173.072 328.997 172.73 330.08C167.97 345.18 160.8 377.85 174.59 409.08C174.87 409.71 175.16 410.34 175.45 410.97L175.57 411.21C175.86 411.83 176.16 412.44 176.47 413.06L176.61 413.33C177.25 414.59 177.93 415.85 178.61 417.1L178.76 417.36C179.11 417.97 179.47 418.57 179.84 419.18L180 419.45C180.77 420.69 181.56 421.92 182.4 423.15C182.47 423.24 182.53 423.34 182.59 423.43L183.85 425.21L184.05 425.47C184.49 426.08 184.94 426.68 185.41 427.29C185.88 427.89 186.35 428.49 186.84 429.09L187.08 429.38C187.55 429.96 188.08 430.54 188.53 431.11C188.6 431.2 188.68 431.28 188.75 431.36C189.24 431.94 189.75 432.51 190.26 433.07L190.34 433.15C190.87 433.73 191.41 434.3 191.96 434.88L192.25 435.18C192.79 435.74 193.34 436.3 193.91 436.86L194.14 437.09C194.7 437.63 195.26 438.17 195.83 438.7L195.98 438.84C196.58 439.4 197.18 439.94 197.8 440.49L198.15 440.8C198.76 441.34 199.39 441.87 200.02 442.41L200.28 442.62C200.89 443.13 201.52 443.62 202.15 444.14L202.38 444.33C203.05 444.85 203.72 445.33 204.38 445.89L204.79 446.19C205.48 446.71 206.18 447.19 206.9 447.73L207.15 447.91C207.83 448.4 208.53 448.91 209.24 449.36L209.55 449.57C210.29 450.07 211.04 450.57 211.81 451.05L212.26 451.34C213.04 451.83 213.82 452.34 214.62 452.8L214.86 452.94C215.63 453.4 216.4 453.86 217.19 454.31L217.58 454.54C218.4 455 219.23 455.47 220.08 455.92L220.59 456.2C221.45 456.66 222.32 457.12 223.22 457.58L223.41 457.67C224.26 458.11 225.14 458.54 226.02 458.97L226.49 459.2L229.24 460.49L229.79 460.74L232.71 462.03H232.83C233.83 462.45 234.78 462.86 235.77 463.26L236.32 463.48C237.32 463.88 238.32 464.28 239.32 464.66L239.91 464.89L240.65 465.16L241.8 465.31C197.36 419.3 202.59 334.57 202.59 334.57Z" fill="#DC426E"/>
</g>
<path d="M277.26 451.66C276.066 451.799 274.944 452.304 274.049 453.106C273.153 453.908 272.529 454.968 272.26 456.14L253.26 458.29C252.699 456.172 251.62 454.227 250.12 452.63L262.05 437.63C263.19 438.021 264.422 438.052 265.58 437.717C266.738 437.382 267.765 436.699 268.52 435.76C269.483 434.548 269.926 433.005 269.751 431.467C269.577 429.93 268.799 428.524 267.59 427.56C266.379 426.597 264.835 426.154 263.297 426.328C261.76 426.503 260.355 427.28 259.39 428.49C258.641 429.434 258.202 430.586 258.134 431.789C258.066 432.993 258.372 434.187 259.01 435.21L247.08 450.21C245.188 449.104 243.05 448.489 240.86 448.42L238.71 429.42C239.794 428.895 240.688 428.046 241.268 426.991C241.849 425.936 242.087 424.726 241.95 423.53C241.864 422.769 241.629 422.032 241.259 421.362C240.888 420.691 240.389 420.101 239.79 419.623C239.191 419.146 238.504 418.791 237.768 418.58C237.031 418.368 236.261 418.303 235.5 418.39C234.739 418.475 234.002 418.71 233.332 419.081C232.661 419.452 232.071 419.951 231.593 420.55C231.116 421.149 230.761 421.836 230.55 422.572C230.338 423.308 230.274 424.079 230.36 424.84C230.502 426.033 231.008 427.153 231.81 428.048C232.611 428.943 233.669 429.568 234.84 429.84L237 448.84C234.882 449.397 232.937 450.472 231.34 451.97L216.34 440.04C216.732 438.898 216.761 437.663 216.422 436.505C216.084 435.346 215.395 434.321 214.45 433.57C213.851 433.092 213.163 432.736 212.426 432.524C211.69 432.312 210.919 432.248 210.157 432.334C209.395 432.421 208.658 432.656 207.988 433.028C207.317 433.399 206.727 433.9 206.25 434.5C205.287 435.709 204.845 437.251 205.019 438.787C205.194 440.323 205.971 441.727 207.18 442.69C208.124 443.439 209.276 443.877 210.48 443.945C211.683 444.013 212.877 443.707 213.9 443.07L228.9 455C227.794 456.892 227.179 459.03 227.11 461.22L208.11 463.37C207.583 462.288 206.733 461.395 205.679 460.815C204.624 460.235 203.416 459.996 202.22 460.13C201.459 460.216 200.722 460.45 200.052 460.821C199.381 461.192 198.791 461.691 198.313 462.29C197.836 462.889 197.481 463.576 197.27 464.312C197.058 465.048 196.994 465.819 197.08 466.58C197.166 467.341 197.4 468.078 197.771 468.748C198.142 469.418 198.641 470.009 199.24 470.486C199.839 470.964 200.526 471.318 201.262 471.53C201.998 471.741 202.769 471.806 203.53 471.72C204.723 471.579 205.844 471.074 206.739 470.272C207.634 469.47 208.26 468.411 208.53 467.24L227.53 465.08C228.083 467.199 229.159 469.145 230.66 470.74L218.73 485.74C217.591 485.346 216.358 485.315 215.201 485.652C214.044 485.988 213.019 486.676 212.27 487.62C211.792 488.217 211.436 488.904 211.223 489.639C211.01 490.375 210.945 491.145 211.03 491.906C211.116 492.666 211.351 493.403 211.721 494.073C212.092 494.743 212.591 495.333 213.19 495.81C213.789 496.288 214.477 496.643 215.213 496.855C215.95 497.067 216.721 497.132 217.483 497.045C218.244 496.959 218.981 496.723 219.652 496.352C220.322 495.98 220.913 495.48 221.39 494.88C222.14 493.936 222.579 492.784 222.648 491.58C222.716 490.377 222.409 489.182 221.77 488.16L233.7 473.16C235.594 474.258 237.731 474.869 239.92 474.94L242.07 493.94C240.985 494.466 240.091 495.317 239.51 496.374C238.93 497.431 238.692 498.642 238.83 499.84C238.916 500.6 239.151 501.337 239.521 502.007C239.892 502.676 240.391 503.266 240.99 503.743C241.59 504.219 242.277 504.573 243.013 504.784C243.749 504.994 244.519 505.057 245.28 504.97C246.813 504.803 248.217 504.037 249.186 502.837C250.155 501.638 250.61 500.103 250.45 498.57C250.308 497.377 249.802 496.256 249 495.362C248.198 494.467 247.14 493.841 245.97 493.57L243.81 474.57C245.928 474.009 247.873 472.93 249.47 471.43L264.47 483.36C264.077 484.5 264.046 485.735 264.383 486.893C264.719 488.052 265.407 489.078 266.35 489.83C267.559 490.792 269.102 491.235 270.637 491.06C272.173 490.886 273.577 490.109 274.54 488.9C275.018 488.301 275.373 487.615 275.584 486.879C275.796 486.143 275.861 485.372 275.774 484.612C275.688 483.851 275.452 483.115 275.081 482.445C274.71 481.775 274.21 481.186 273.61 480.71C272.668 479.957 271.516 479.514 270.312 479.445C269.108 479.375 267.912 479.681 266.89 480.32L251.89 468.39C252.995 466.498 253.611 464.36 253.68 462.17L272.68 460.02C273.205 461.104 274.053 461.998 275.109 462.578C276.164 463.158 277.373 463.397 278.57 463.26C279.331 463.174 280.068 462.939 280.738 462.568C281.408 462.198 281.999 461.699 282.476 461.1C282.954 460.501 283.308 459.813 283.52 459.077C283.732 458.341 283.796 457.571 283.71 456.81C283.627 456.047 283.393 455.309 283.024 454.637C282.654 453.965 282.155 453.372 281.556 452.894C280.956 452.415 280.268 452.06 279.531 451.848C278.794 451.636 278.022 451.572 277.26 451.66Z" fill="white"/>
<path d="M308.465 387.072C318.003 383.485 324.326 376.831 322.588 372.209C320.85 367.588 311.709 366.749 302.172 370.336C292.634 373.923 286.311 380.577 288.049 385.198C289.787 389.82 298.928 390.659 308.465 387.072Z" fill="white"/>
<path d="M319.91 399.87C323.329 399.87 326.1 397.098 326.1 393.68C326.1 390.261 323.329 387.49 319.91 387.49C316.491 387.49 313.72 390.261 313.72 393.68C313.72 397.098 316.491 399.87 319.91 399.87Z" fill="white"/>
</g>
<defs>
<clipPath id="clip0_4780_370">
<rect width="438.86" height="1015.19" fill="white"/>
</clipPath>
</defs>
</svg>
