<svg width="714" height="637" viewBox="0 0 714 637" fill="none" xmlns="http://www.w3.org/2000/svg">
<g clip-path="url(#clip0_5590_320)">
<path d="M356.64 628.409C522.955 628.409 657.78 615.376 657.78 599.299C657.78 583.222 522.955 570.189 356.64 570.189C190.325 570.189 55.5 583.222 55.5 599.299C55.5 615.376 190.325 628.409 356.64 628.409Z" fill="#C5CACB"/>
<path d="M368.53 636.161H364.83C362.52 636.161 360.1 636.08 357.63 636.01C353.93 636.12 350.27 636.181 346.74 636.201H345.04C320.04 636.201 299.65 633.761 284.5 628.951C259.41 625.051 236.15 619.951 218.88 614.69L216.2 613.82L215.36 613.521C214.69 613.291 214.11 613.091 213.53 612.871L212.47 612.461L210.851 611.84L209.69 611.36L208.19 610.731L206.99 610.201L205.51 609.541L204.28 608.961L202.851 608.28L201.62 607.67L200.18 606.94L198.95 606.291L197.54 605.541L196.29 604.851L194.91 604.07L193.65 603.34L192.26 602.521L190.981 601.74L189.66 600.92L188.351 600.09L187.05 599.24L186.97 599.19L185.74 598.38L184.5 597.53L184.231 597.34L183.17 596.61L181.99 595.771L181.75 595.601L180.601 594.771L179.3 593.771L178.05 592.84L177.54 592.44C175.44 590.82 173.361 589.141 171.351 587.44L170.78 586.961L169.08 585.471L168.38 584.851L166.76 583.38L166 582.681L164.44 581.201L163.68 580.461C163.17 579.971 162.68 579.461 162.14 578.951L161.4 578.211C160.9 577.701 160.4 577.21 159.89 576.65L159.18 575.911L157.68 574.3L157.03 573.59C156.51 573.02 156.031 572.461 155.521 571.891L154.88 571.161C154.41 570.631 153.88 570.031 153.4 569.431L152.851 568.771C152.361 568.181 151.85 567.55 151.34 566.92L150.89 566.36L149.33 564.36C149.33 564.36 149.01 563.93 149.01 563.92C148.46 563.201 147.92 562.481 147.4 561.751L147.25 561.541C141.109 553.176 136.196 543.976 132.66 534.221C132.66 534.151 132.61 534.07 132.58 533.99C132.25 533.05 131.94 532.1 131.64 531.15L131.59 530.99C131.3 530.04 131.02 529.091 130.76 528.141L130.7 527.931C130.45 526.991 130.21 526.041 129.99 525.081L129.93 524.851C129.71 523.851 129.51 522.911 129.32 521.931C129.326 521.881 129.326 521.83 129.32 521.78C129.13 520.78 128.961 519.78 128.811 518.78C128.815 518.734 128.815 518.687 128.811 518.641C126.786 505.566 128.562 492.184 133.93 480.09C134.37 479.09 134.86 478.09 135.38 477.03C135.409 476.958 135.443 476.888 135.481 476.82C135.951 475.9 136.48 474.931 137.01 473.961L137.18 473.661C137.68 472.771 138.25 471.81 138.84 470.88L139.01 470.601C139.6 469.671 140.22 468.74 140.84 467.84L141.021 467.581C141.691 466.581 142.361 465.701 143.021 464.831L143.2 464.601C143.51 464.191 143.83 463.791 144.15 463.391C142.63 458.631 141.297 453.817 140.15 448.951L138.851 449.201C133.111 450.281 127.29 451.1 121.54 451.65C117.23 452.06 112.9 452.32 108.66 452.421C107.26 452.421 105.871 452.471 104.481 452.471C70.0905 452.471 41.7299 442.471 24.5499 424.471L24.42 424.32C23.72 423.58 23.0304 422.84 22.3604 422.09L21.6104 421.231C21.1804 420.741 20.7 420.231 20.25 419.661L19.6202 418.9L19.4502 418.691L18.2901 417.271L17.67 416.471L17.4903 416.231C17.1003 415.731 16.7404 415.23 16.4004 414.8C16.1804 414.51 15.94 414.181 15.71 413.851L15.6202 413.731C15.2802 413.271 14.9468 412.811 14.6202 412.351L13.8702 411.24L12.9502 409.86C12.7302 409.52 12.4803 409.13 12.2403 408.74C12.0003 408.35 11.6802 407.841 11.4102 407.391L10.7198 406.24C10.4598 405.79 10.21 405.341 9.96001 404.891C9.71001 404.441 9.49985 404.081 9.29985 403.711L8.60063 402.371L8.50981 402.201L8.00005 401.201L7.46001 400.081L7.25005 399.63C7.11005 399.33 6.96012 399.031 6.83012 398.731C6.70012 398.431 6.47059 397.93 6.31059 397.55L6.13969 397.171C5.98969 396.82 5.84024 396.48 5.70024 396.171C5.56024 395.861 5.44059 395.53 5.31059 395.171L5.21001 394.9C4.86001 394.01 4.54001 393.16 4.21001 392.3C4.21001 392.3 3.93063 391.54 3.85063 391.3C3.77063 391.06 3.58001 390.49 3.46001 390.09L3.29008 389.581C3.20008 389.301 3.11032 389.02 3.03032 388.74C2.95032 388.46 2.76969 387.841 2.63969 387.371L2.57036 387.101C2.49036 386.821 2.40989 386.531 2.33989 386.251C2.21989 385.791 2.10051 385.301 1.98051 384.811C1.98051 384.811 1.80028 384.071 1.74028 383.811C1.63028 383.331 1.51997 382.811 1.41997 382.311L1.24028 381.4C1.13028 380.85 1.04001 380.33 0.960006 379.82L0.820358 378.951C0.730358 378.391 0.650123 377.861 0.580123 377.331L0.480514 376.53L0.29985 374.891C0.29985 374.691 0.29985 374.5 0.29985 374.3C0.23985 373.62 0.190436 373.031 0.150436 372.431C0.150436 372.431 0.150436 372.01 0.150436 371.99C-0.181861 366.134 0.211042 360.26 1.32036 354.501C1.31476 354.467 1.31476 354.434 1.32036 354.4C1.44702 353.734 1.58695 353.067 1.74028 352.4C1.74028 352.4 1.74028 352.31 1.74028 352.3C1.87028 351.71 2.01997 351.1 2.16997 350.49C2.16997 350.43 2.16977 350.371 2.21977 350.311C8.58977 325.311 28.3104 305.8 47.1104 305.8C47.8604 305.8 48.6299 305.8 49.3799 305.9C54.2543 306.132 59.0177 307.437 63.3301 309.721C65.6798 306.894 68.5965 304.591 71.8916 302.962C75.1868 301.332 78.7871 300.412 82.46 300.26H83.7403C93.6503 300.26 106.5 305.341 114.51 328.021C117.738 328.529 121.002 328.786 124.271 328.791C136.904 328.873 149.2 324.714 159.19 316.981C164.21 308.005 169.924 299.436 176.28 291.351C153.76 265.561 142.98 232.851 144.18 193.891C144.539 181.701 146.059 169.572 148.72 157.671C145.563 154.531 142.638 151.165 139.97 147.601C138.21 145.241 136.54 142.771 134.97 140.251C126.221 125.824 121.601 109.273 121.61 92.4005C121.61 90.9705 121.61 89.5105 121.72 87.9405C121.72 87.5705 121.72 87.1804 121.79 86.8004V86.4806C121.86 85.4806 121.931 84.4804 122.021 83.5504C122.021 83.0804 122.12 82.6107 122.17 82.1407V81.8307C122.27 80.9307 122.38 80.0608 122.5 79.1808C122.59 78.5908 122.68 77.9907 122.78 77.3907C122.92 76.5507 123.071 75.7207 123.231 74.8907C123.341 74.3007 123.46 73.7007 123.59 73.1007C123.77 72.2507 123.96 71.4405 124.16 70.6305L124.24 70.2804C124.36 69.8004 124.471 69.2807 124.601 68.8507C124.821 68.0107 125.061 67.1707 125.311 66.3307L125.42 65.9605C125.533 65.5472 125.654 65.1372 125.78 64.7306C126.2 63.4006 126.64 62.0907 127.09 60.8507C127.24 60.4407 127.41 60.0107 127.58 59.5807L127.811 59.0006C128.081 58.3106 128.34 57.6205 128.62 56.9405C128.9 56.2605 129.09 55.8707 129.33 55.3307L129.51 54.9205C129.78 54.3205 130.05 53.7104 130.33 53.1104C130.61 52.5104 130.95 51.8207 131.33 51.1607C131.71 50.5007 131.921 49.9905 132.231 49.4205C132.541 48.8505 132.94 48.0905 133.3 47.4205C133.66 46.7505 133.92 46.3306 134.24 45.7906C134.56 45.2506 135.01 44.4806 135.42 43.7906C135.69 43.3506 135.96 42.9206 136.24 42.5006L136.46 42.1705C136.86 41.5405 137.27 40.9106 137.69 40.2906L138.41 39.2906L138.61 39.0206C146.314 28.1529 156.281 19.0832 167.825 12.4356C179.369 5.78809 192.216 1.72063 205.482 0.512785C218.749 -0.695065 232.12 0.985617 244.675 5.43905C257.23 9.89249 268.67 17.013 278.21 26.3106C302.46 19.0506 328.81 15.3805 356.71 15.3805C360 15.3805 363.35 15.3806 366.71 15.5406C390.608 16.1574 414.338 19.7452 437.351 26.2208C446.897 16.9412 458.339 9.83831 470.892 5.40097C483.444 0.963623 496.808 -0.703376 510.065 0.514738C523.323 1.73285 536.161 5.80726 547.694 12.4576C559.228 19.108 569.184 28.1767 576.88 39.0406L577.061 39.3004C577.311 39.6304 577.55 39.9704 577.78 40.3004C578.21 40.9204 578.611 41.5508 579.021 42.1808L579.24 42.5103L580.05 43.7906C580.46 44.4506 580.851 45.1006 581.231 45.7906C581.611 46.4806 581.86 46.8705 582.17 47.4205C582.48 47.9705 582.89 48.7305 583.24 49.4205C583.59 50.1105 583.84 50.5805 584.14 51.1705C584.44 51.7605 584.79 52.4905 585.14 53.1705C585.49 53.8505 585.65 54.2807 585.9 54.8507L586.16 55.4308C586.39 55.9508 586.62 56.4306 586.83 56.9806C587.04 57.5306 587.36 58.2806 587.61 58.9806L587.88 59.6808C588.05 60.0908 588.21 60.5108 588.36 60.9308C588.81 62.1408 589.25 63.4406 589.67 64.7906C589.8 65.2106 589.92 65.6103 590.03 66.0103L590.14 66.3907C590.39 67.2307 590.63 68.0705 590.86 68.9205C590.98 69.3805 591.1 69.8707 591.21 70.3507L591.29 70.6808C591.49 71.5008 591.68 72.3207 591.86 73.1407C591.99 73.7407 592.111 74.3508 592.231 74.9708C592.381 75.7808 592.53 76.6108 592.67 77.4508C592.77 78.0408 592.86 78.6503 592.95 79.2603C593.07 80.1203 593.18 81.0005 593.28 81.8805V82.2008C593.28 82.6708 593.39 83.1407 593.43 83.6207C593.53 84.6207 593.6 85.6206 593.66 86.5606V86.8604C593.66 87.2404 593.711 87.6203 593.731 88.0103C593.811 89.5703 593.84 91.0105 593.84 92.4605C593.851 109.33 589.23 125.878 580.481 140.3C578.951 142.82 577.281 145.301 575.481 147.661C574.221 149.354 572.887 151.021 571.481 152.661C576.272 170.502 578.375 188.958 577.72 207.421C576.56 244.57 564.84 275.42 542.84 299.34L542.92 299.461C543.67 300.521 544.43 301.611 545.17 302.701L545.981 303.911C546.511 304.701 547.061 305.54 547.601 306.38L548.46 307.721C549.18 308.861 549.89 309.991 550.58 311.141L551.24 312.251C551.78 313.161 552.32 314.061 552.84 314.971C553.08 315.391 553.33 315.82 553.57 316.26L554.03 317.061C564.016 324.795 576.31 328.954 588.94 328.871C592.212 328.866 595.478 328.608 598.71 328.101C606.71 305.421 619.57 300.34 629.47 300.34H630.75C634.425 300.49 638.027 301.41 641.324 303.039C644.621 304.669 647.539 306.972 649.89 309.8C654.216 307.507 658.998 306.202 663.89 305.981C664.64 305.921 665.4 305.88 666.16 305.88C684.95 305.88 704.67 325.43 711.04 350.38C711.22 351.06 711.38 351.74 711.53 352.38C711.53 352.38 711.53 352.461 711.53 352.481C711.67 353.131 711.81 353.791 711.94 354.481C711.935 354.51 711.935 354.541 711.94 354.57C713.041 360.331 713.431 366.205 713.101 372.061C713.101 372.191 713.101 372.351 713.101 372.521C713.101 373.101 713.01 373.67 712.97 374.26L712.91 374.86C712.85 375.49 712.79 376.06 712.72 376.63C712.72 376.86 712.66 377.131 712.62 377.411C712.55 377.941 712.47 378.47 712.39 379.01C712.39 379.3 712.29 379.611 712.24 379.921C712.19 380.23 712.081 380.921 711.981 381.411L711.79 382.351C711.69 382.861 711.58 383.351 711.46 383.891C711.41 384.141 711.24 384.891 711.24 384.891C711.11 385.401 710.99 385.891 710.86 386.391C710.79 386.661 710.72 386.931 710.64 387.201L710.561 387.521L710.17 388.891L709.89 389.78L709.79 390.101L709.38 391.38L709.061 392.271L708.981 392.49C708.701 393.29 708.4 394.111 708.07 394.931L707.981 395.161C707.831 395.561 707.68 395.961 707.51 396.351C707.34 396.741 707.26 396.95 707.12 397.26L706.9 397.76C706.75 398.12 706.59 398.491 706.42 398.851C706.25 399.211 706.141 399.471 705.981 399.791L705.771 400.251L705.231 401.371C705.051 401.731 704.89 402.041 704.72 402.371L704.561 402.691C704.351 403.101 704.13 403.51 703.91 403.921C703.69 404.331 703.48 404.7 703.26 405.09C703.04 405.48 702.781 405.961 702.521 406.411L701.83 407.561L700.99 408.931L700.271 410.061C699.981 410.511 699.67 410.971 699.36 411.431C699.05 411.891 698.86 412.171 698.59 412.541C698.32 412.911 697.96 413.441 697.59 413.891L696.79 414.99C696.44 415.46 696.08 415.921 695.72 416.391L694.92 417.391L693.79 418.791C693.79 418.791 693.13 419.591 692.93 419.791C692.52 420.281 692.09 420.791 691.66 421.251L690.84 422.191C690.15 422.961 689.45 423.721 688.72 424.481L688.64 424.581C680.44 433.201 669.64 439.99 656.64 444.78C642.5 449.98 626.36 452.621 608.64 452.621C596.664 452.582 584.72 451.4 572.97 449.09C571.976 453.35 570.837 457.574 569.55 461.76L569.78 462.021C570.49 462.881 571.221 463.791 571.94 464.721L572.14 464.99C572.83 465.89 573.5 466.81 574.14 467.74L574.311 467.981C574.961 468.921 575.58 469.86 576.16 470.78L576.32 471.03C576.91 472.03 577.48 472.931 578.01 473.871L578.15 474.121C578.7 475.121 579.23 476.12 579.71 477.03L579.811 477.24L579.74 477.11C586.266 490.001 588.571 504.618 586.33 518.891C586.33 518.891 586.33 518.891 586.33 518.961C586.177 519.961 586.007 520.961 585.82 521.961C585.825 521.997 585.825 522.034 585.82 522.07C585.63 523.07 585.42 524.07 585.2 525.07V525.24C584.97 526.24 584.73 527.18 584.47 528.15L584.42 528.32C584.16 529.26 583.88 530.221 583.59 531.181C583.59 531.251 583.53 531.351 583.5 531.451C583.21 532.371 582.91 533.281 582.59 534.201V534.36C579.053 544.125 574.14 553.334 568 561.711L567.811 561.971C567.301 562.681 566.81 563.4 566.22 564.11L565.9 564.541C565.38 565.231 564.9 565.901 564.32 566.541L563.9 567.081C563.39 567.721 562.9 568.341 562.36 568.971L561.86 569.561C561.33 570.191 560.86 570.79 560.3 571.38L559.71 572.07L558.2 573.76L557.58 574.431L556.04 576.09L555.38 576.78L553.811 578.4L553.11 579.09C552.56 579.64 552.051 580.151 551.521 580.661L550.811 581.34C550.271 581.86 549.75 582.341 549.22 582.851L548.47 583.541C547.95 584.021 547.401 584.541 546.851 585.021L546.12 585.661C545.6 586.121 545.03 586.661 544.45 587.121L543.92 587.581C541.85 589.341 539.73 591.05 537.63 592.67L537.15 593.041L535.86 594.041L534.65 594.931L533.51 595.76L532.05 596.76L530.5 597.831L529.5 598.51C529.11 598.78 527.99 599.51 527.99 599.51L526.87 600.24L525.66 601.01L524.25 601.891L522.96 602.67L521.62 603.461L520.34 604.201C519.87 604.481 519.41 604.731 518.96 604.981L517.7 605.681L516.32 606.42L515.05 607.081L513.63 607.8L512.38 608.42L510.95 609.11L509.72 609.681L508.24 610.351L507.05 610.871L505.64 611.461L504.36 611.981L502.851 612.57L501.72 613.001C501.14 613.221 500.59 613.41 500.03 613.61L499.03 613.961L496.34 614.831C493.88 615.581 491.26 616.34 488.57 617.09C483.2 618.57 477.32 620.041 471.07 621.461C462.67 623.37 453.69 625.17 444.38 626.82C442.02 627.24 439.64 627.65 437.24 628.05C435.08 628.4 432.91 628.75 430.71 629.05C424.954 630.843 419.08 632.23 413.13 633.201C400.778 635.156 388.296 636.179 375.79 636.26C373.94 636.26 372.08 636.26 370.2 636.26L368.53 636.161Z" fill="#231F20"/>
<path d="M356.64 593.079C470.538 593.079 562.87 509.961 562.87 407.429C562.87 304.898 470.538 221.779 356.64 221.779C242.742 221.779 150.41 304.898 150.41 407.429C150.41 509.961 242.742 593.079 356.64 593.079Z" fill="white"/>
<path opacity="0.08" d="M229.01 553.27C264.12 578.2 308.44 593.08 356.63 593.08C470.53 593.08 562.86 509.96 562.86 407.43C562.86 338.74 521.43 278.77 459.86 246.66L431.2 278.3C431.2 278.3 472.62 542.2 229.01 553.27Z" fill="#2F3233"/>
<path d="M356.63 359.359C453.51 359.359 534.77 398.76 556.9 451.87C560.874 437.39 562.892 422.444 562.9 407.43C562.9 304.89 470.57 221.77 356.67 221.77C242.77 221.77 150.44 304.89 150.44 407.43C150.454 422.444 152.472 437.389 156.44 451.87C178.49 398.76 259.75 359.359 356.63 359.359Z" fill="#3C4042"/>
<path d="M501.64 169.48C544.299 169.48 578.88 134.898 578.88 92.24C578.88 49.5815 544.299 15 501.64 15C458.982 15 424.4 49.5815 424.4 92.24C424.4 134.898 458.982 169.48 501.64 169.48Z" fill="#3C4042"/>
<path d="M561.37 43.4194C561.37 43.4194 562.37 138.59 473.65 164.22C489.551 170.406 507.053 171.152 523.423 166.342C539.793 161.532 554.109 151.437 564.136 137.632C574.163 123.828 579.337 107.092 578.85 90.0366C578.362 72.9817 572.24 56.5682 561.44 43.3594L561.37 43.4194Z" fill="#2F3233"/>
<path d="M213.88 169.48C256.538 169.48 291.12 134.898 291.12 92.24C291.12 49.5815 256.538 15 213.88 15C171.221 15 136.64 49.5815 136.64 92.24C136.64 134.898 171.221 169.48 213.88 169.48Z" fill="#3C4042"/>
<path d="M154.14 43.4194C154.14 43.4194 153.141 138.59 241.861 164.22C225.96 170.402 208.46 171.145 192.093 166.333C175.726 161.522 161.412 151.426 151.387 137.623C141.362 123.82 136.189 107.085 136.676 90.0322C137.163 72.9793 143.283 56.5677 154.08 43.3594L154.14 43.4194Z" fill="#2F3233"/>
<path d="M472.47 356.239L530.55 311.68C540.63 331.8 572.42 351.3 610.61 340.58C613.38 329.34 619.12 314.58 630.09 315.1C642.95 315.72 644.68 333.52 642.65 348.2C645.35 350.5 654.95 355.339 657.19 349.709C659.36 344.279 656.99 344.44 653.07 342.29C647.6 339.29 647.83 321.49 664.94 320.72C685.06 318.72 721.251 368.399 677.851 414.049C634.451 459.699 500.01 437.479 472.47 356.239Z" fill="#3C4042"/>
<path d="M677.87 414.051C697.87 393.051 700.95 371.171 696.53 353.881C693.949 360.212 690.886 366.337 687.37 372.201C673.88 394.551 652.59 409.391 589.42 410.461C526.25 411.531 472.49 356.241 472.49 356.241C500.01 437.481 634.45 459.701 677.87 414.051Z" fill="#2F3233"/>
<path d="M240.79 356.239L182.71 311.68C172.64 331.8 140.84 351.3 102.65 340.58C99.8803 329.34 94.1396 314.58 83.1796 315.1C70.3096 315.72 68.5803 333.52 70.6103 348.2C67.9103 350.5 58.3203 355.339 56.0703 349.709C53.9103 344.279 56.2701 344.44 60.2001 342.29C65.6601 339.29 65.4303 321.49 48.3203 320.72C28.2103 318.72 -7.99013 368.399 35.4199 414.049C78.8299 459.699 213.25 437.479 240.79 356.239Z" fill="#3C4042"/>
<path d="M35.4196 414.051C15.4196 393.051 12.3297 371.171 16.7497 353.881C19.335 360.212 22.4005 366.337 25.9196 372.201C39.3996 394.551 60.6901 409.391 123.86 410.461C187.03 411.531 240.79 356.241 240.79 356.241C213.25 437.481 78.8697 459.701 35.4196 414.051Z" fill="#2F3233"/>
<path d="M562.771 206.701C559.57 309.931 468.08 343.901 356.63 340.451C245.18 337.001 155.97 297.451 159.18 194.181C162.39 90.9109 248.35 26.7406 366.25 30.4006C484.15 34.0606 565.98 103.471 562.771 206.701Z" fill="white"/>
<path d="M360.049 248.33L370.79 243.26C371.899 242.734 372.799 241.851 373.345 240.752C373.892 239.653 374.052 238.403 373.801 237.201C373.551 236 372.904 234.917 371.964 234.128C371.025 233.339 369.846 232.889 368.62 232.85L347.48 232.19C346.253 232.153 345.049 232.531 344.062 233.261C343.075 233.992 342.363 235.033 342.04 236.217C341.716 237.402 341.801 238.661 342.28 239.791C342.759 240.922 343.604 241.858 344.679 242.45L355.08 248.17C355.836 248.589 356.681 248.822 357.546 248.85C358.41 248.877 359.268 248.7 360.049 248.33Z" fill="black"/>
<path d="M326.51 264.98C326.51 264.98 327.79 277.88 341.51 278.3C354.39 278.7 357.8 242.141 357.8 242.141" stroke="#19181C" stroke-width="5.77" stroke-linecap="round" stroke-linejoin="round"/>
<path d="M387.53 266.861C387.53 266.861 385.451 279.661 371.771 279.231C358.891 278.831 357.771 242.131 357.771 242.131" stroke="#19181C" stroke-width="5.77" stroke-linecap="round" stroke-linejoin="round"/>
<path d="M377.73 176.361C374.675 162.232 377.273 147.468 384.969 135.231C396.179 117.831 420.439 102.411 471.969 131.841C558.749 181.421 521.7 230.581 502.45 236.201C484.45 241.461 392.87 249.911 377.73 176.361Z" fill="#3C4042"/>
<path d="M337.79 176.311C340.719 162.742 338.438 148.567 331.4 136.601C320.59 118.681 296.4 101.601 243.54 131.841C156.76 181.421 193.82 230.581 213.06 236.201C231.07 241.461 322.7 249.921 337.79 176.311Z" fill="#3C4042"/>
<path d="M311.39 174.17C312.335 179.56 311.992 185.097 310.39 190.33C308.741 195.747 305.937 200.742 302.17 204.97C298.322 209.284 293.602 212.73 288.321 215.08C286.981 215.62 285.63 216.17 284.26 216.64C282.89 217.11 281.46 217.44 280.04 217.77C278.62 218.1 277.171 218.26 275.731 218.44L271.371 218.69L267.021 218.44C265.581 218.25 264.14 218.01 262.71 217.77C261.28 217.53 259.9 217.01 258.5 216.63C257.1 216.25 255.77 215.63 254.43 215.07C249.15 212.723 244.432 209.276 240.59 204.96C236.826 200.734 234.022 195.743 232.371 190.33C230.769 185.097 230.426 179.56 231.371 174.17C232.272 179.236 233.988 184.122 236.451 188.64C238.805 192.923 241.896 196.759 245.58 199.97C252.715 206.235 261.885 209.69 271.38 209.69C280.875 209.69 290.046 206.235 297.18 199.97C300.859 196.754 303.95 192.919 306.311 188.64C308.772 184.122 310.486 179.235 311.39 174.17Z" fill="#19181C"/>
<path d="M481.87 174.17C482.82 179.56 482.477 185.098 480.87 190.33C479.225 195.747 476.424 200.742 472.66 204.97C468.808 209.279 464.088 212.724 458.811 215.08C457.461 215.62 456.11 216.17 454.74 216.64C453.37 217.11 451.94 217.44 450.53 217.77C449.12 218.1 447.66 218.26 446.21 218.44L441.86 218.69L437.5 218.44C436.06 218.25 434.621 218.01 433.191 217.77C431.761 217.53 430.381 217.01 428.981 216.63C427.581 216.25 426.26 215.63 424.91 215.07C419.633 212.718 414.916 209.272 411.07 204.96C407.305 200.737 404.503 195.745 402.86 190.33C401.259 185.097 400.917 179.56 401.86 174.17C402.762 179.236 404.478 184.122 406.941 188.64C409.299 192.924 412.393 196.759 416.08 199.97C423.213 206.235 432.382 209.689 441.875 209.689C451.368 209.689 460.537 206.235 467.67 199.97C471.349 196.754 474.439 192.919 476.8 188.64C479.257 184.121 480.97 179.235 481.87 174.17Z" fill="#19181C"/>
<path opacity="0.55" d="M249.97 262.331C268.963 262.331 284.36 258.463 284.36 253.691C284.36 248.919 268.963 245.051 249.97 245.051C230.977 245.051 215.58 248.919 215.58 253.691C215.58 258.463 230.977 262.331 249.97 262.331Z" fill="#F37270"/>
<path opacity="0.55" d="M465.56 262.331C484.553 262.331 499.95 258.463 499.95 253.691C499.95 248.919 484.553 245.051 465.56 245.051C446.567 245.051 431.17 248.919 431.17 253.691C431.17 258.463 446.567 262.331 465.56 262.331Z" fill="#F37270"/>
<path d="M695.729 367.754C695.997 359.159 693.13 352.095 689.327 351.977C685.523 351.859 682.223 358.731 681.956 367.326C681.689 375.921 684.556 382.984 688.359 383.103C692.163 383.221 695.462 376.349 695.729 367.754Z" fill="white"/>
<path d="M688.237 392.076C689.138 389.43 688.08 386.677 685.874 385.925C683.667 385.174 681.149 386.709 680.248 389.354C679.347 392 680.404 394.754 682.611 395.505C684.817 396.257 687.336 394.721 688.237 392.076Z" fill="white"/>
<path d="M54.2683 396.051C56.4787 392.035 53.3049 386.047 47.1796 382.675C41.0542 379.303 34.2972 379.826 32.0867 383.841C29.8763 387.857 33.0492 393.846 39.1745 397.218C45.2998 400.59 52.0578 400.067 54.2683 396.051Z" fill="white"/>
<path d="M28.424 360.085C29.2842 354.116 27.9567 348.984 25.4585 348.624C22.9604 348.264 20.238 352.812 19.3778 358.782C18.5176 364.751 19.8453 369.882 22.3434 370.242C24.8416 370.602 27.5638 366.054 28.424 360.085Z" fill="white"/>
<path d="M367.429 506.46C367.429 506.46 460.119 390.53 546.429 459.79C610.569 511.27 541.37 585.12 491.99 600.31C442.61 615.5 330.819 631.17 284.379 612.97C243.439 596.97 236.69 553.05 272.56 541.65C307.27 530.62 336.319 516.6 367.429 506.46Z" fill="#3C4042"/>
<path d="M400.37 474.189C422.01 478.239 451.82 486.379 463.37 501.629C463.37 501.629 396.29 486.789 367.37 506.459C377.3 494.661 388.352 483.853 400.37 474.189Z" fill="#2F3233"/>
<path d="M556.3 469.029C560.16 498.909 550.3 531.699 533.53 547.489C522.38 557.959 502.531 568.63 476.061 577.93C478.921 566.64 480.811 546.009 461.061 535.239C432.981 519.919 392.92 509.169 360.87 508.669L338.87 541.87L387.41 591.009L414.92 594.239C393.865 598.349 372.605 601.323 351.231 603.149C262.891 610.809 265.92 544.359 265.92 544.359C237.73 558.789 246.161 598.01 284.361 612.97C330.801 631.17 442.6 615.5 491.97 600.31C538.46 585.98 602.52 519.699 556.3 469.029Z" fill="#272A2B"/>
<path d="M347.87 506.46C347.87 506.46 255.18 390.53 168.87 459.79C104.73 511.27 173.93 585.12 223.3 600.31C272.67 615.5 384.47 631.17 430.87 612.98C471.8 596.98 478.561 553.06 442.691 541.66C407.991 530.62 378.95 516.6 347.87 506.46Z" fill="#3C4042"/>
<path d="M314.87 474.189C293.23 478.239 263.41 486.379 251.87 501.629C251.87 501.629 318.95 486.789 347.82 506.459C337.903 494.666 326.868 483.859 314.87 474.189Z" fill="#2F3233"/>
<path d="M449.34 544.359C449.34 544.359 452.341 610.809 364.031 603.149C275.721 595.489 206.761 570.979 181.741 547.489C164.921 531.699 155.1 498.909 158.97 469.029C112.75 519.699 176.81 586.03 223.29 600.31C272.67 615.5 384.47 631.17 430.91 612.97C469.111 597.98 477.54 558.789 449.34 544.359Z" fill="#2F3233"/>
<path d="M560.203 526.09C564.363 513.878 563.514 502.54 558.307 500.766C553.1 498.993 545.507 507.455 541.347 519.667C537.187 531.88 538.036 543.217 543.243 544.991C548.45 546.764 556.043 538.303 560.203 526.09Z" fill="white"/>
<path d="M555.416 491.79C556.007 487.383 554.077 483.488 551.104 483.089C548.132 482.691 545.243 485.939 544.652 490.346C544.061 494.752 545.992 498.647 548.964 499.046C551.936 499.445 554.825 496.196 555.416 491.79Z" fill="white"/>
<path d="M341.579 515.955C342.654 512.392 338.014 507.839 331.214 505.788C324.414 503.736 318.03 504.962 316.955 508.526C315.88 512.089 320.52 516.642 327.32 518.693C334.12 520.745 340.503 519.519 341.579 515.955Z" fill="white"/>
<path d="M166.004 527.045C171.039 526.12 173.406 516.038 171.289 504.528C169.173 493.018 163.375 484.439 158.339 485.365C153.304 486.29 150.939 496.372 153.055 507.882C155.172 519.391 160.969 527.971 166.004 527.045Z" fill="white"/>
<path d="M422.758 600.304C428.093 598.792 431.558 594.534 430.498 590.793C429.439 587.053 424.254 585.245 418.92 586.757C413.585 588.269 410.119 592.527 411.179 596.268C412.239 600.008 417.423 601.815 422.758 600.304Z" fill="white"/>
<path d="M549.917 64.3131C554.908 59.3222 551.875 48.1981 543.143 39.466C534.411 30.7339 523.287 27.7006 518.296 32.6915C513.305 37.6824 516.337 48.8072 525.07 57.5393C533.802 66.2714 544.927 69.304 549.917 64.3131Z" fill="white"/>
<path d="M574.244 412.457C576.167 406.811 568.242 399.002 556.542 395.017C544.842 391.032 533.798 392.379 531.875 398.025C529.952 403.671 537.877 411.479 549.577 415.464C561.277 419.449 572.321 418.103 574.244 412.457Z" fill="white"/>
<path d="M223.55 43.3598C233.668 43.3598 241.87 39.1021 241.87 33.8498C241.87 28.5976 233.668 24.3398 223.55 24.3398C213.433 24.3398 205.23 28.5976 205.23 33.8498C205.23 39.1021 213.433 43.3598 223.55 43.3598Z" fill="white"/>
</g>
<defs>
<clipPath id="clip0_5590_320">
<rect width="713.27" height="636.17" fill="white"/>
</clipPath>
</defs>
</svg>
