<svg width="261" height="442" viewBox="0 0 261 442" fill="none" xmlns="http://www.w3.org/2000/svg">
<g clip-path="url(#clip0_4906_705)">
<path d="M130.19 441.979C202.092 441.979 260.38 422.647 260.38 398.799C260.38 374.951 202.092 355.619 130.19 355.619C58.288 355.619 0 374.951 0 398.799C0 422.647 58.288 441.979 130.19 441.979Z" fill="#A7A9AC"/>
<path d="M131.41 403.3C127.62 403.3 123.68 403.1 119.76 402.77H119.65C110.954 402.027 102.326 400.63 93.84 398.59H93.74C92.62 398.32 91.49 398.03 90.35 397.74L90.09 397.67C89.03 397.39 87.95 397.1 86.86 396.79L86.46 396.68L83.34 395.77L82.72 395.59L79.82 394.68L78.95 394.4C78.08 394.12 77.21 393.82 76.33 393.52L75.26 393.16L72.47 392.16L71.47 391.81C70.25 391.36 69.03 390.9 67.81 390.42L67.62 390.35C64.9339 389.283 62.613 387.464 60.9365 385.11C59.26 382.755 58.2993 379.967 58.17 377.08C58.17 377.08 58.09 375.08 58.04 373.63C58.04 373.63 57.94 370.97 57.94 370.94L57.78 365.94C57.7 363.36 57.62 360.42 57.54 357.12L57.48 354.35C57.48 353.01 57.42 351.61 57.39 350.16C52.39 349.58 50.3 348.86 48.63 348.16C45.943 346.956 43.6698 344.987 42.0938 342.5C40.5178 340.013 39.7087 337.117 39.7674 334.173C39.826 331.229 40.7498 328.367 42.4236 325.945C44.0974 323.522 46.4472 321.646 49.18 320.55C49.8 320.31 52.98 319.04 57.02 317.64C57.02 316.53 57.02 313.64 57.02 313.64V305.64C57.02 303 57.02 300.3 57.07 297.56V297.35C57.07 294.63 57.1 291.913 57.16 289.2C54.2225 288.984 51.4135 287.908 49.0833 286.107C46.7532 284.305 45.0051 281.857 44.0571 279.068C43.109 276.28 43.003 273.273 43.7522 270.425C44.5014 267.576 46.0726 265.011 48.27 263.05C49.86 261.64 51.82 260.19 57.84 257.64C58.23 245.15 58.76 232.98 59.42 221.29C51.62 216.46 44.36 211.14 43.29 210.35C40.9208 208.601 39.1189 206.193 38.1088 203.427C37.0987 200.661 36.9251 197.659 37.6097 194.795C38.2942 191.931 39.8067 189.332 41.9584 187.321C44.1102 185.311 46.8061 183.978 49.71 183.49C50.9198 183.292 52.1441 183.195 53.37 183.2C56.2984 183.235 59.2186 183.516 62.1 184.04C64.58 156.23 67.95 131.59 72.1 110.6C72.1039 110.547 72.1039 110.493 72.1 110.44C72.56 108.14 73.1 105.81 73.55 103.51C74.15 100.72 74.8 97.9299 75.45 95.1899C75.56 94.7499 75.67 94.3099 75.77 93.8699C65.5 89.5999 63.4 87.7099 61.89 86.3399C59.705 84.3684 58.1483 81.7978 57.4136 78.9481C56.6788 76.0984 56.7986 73.0954 57.758 70.3133C58.7173 67.5312 60.4739 65.0927 62.8089 63.3015C65.144 61.5103 67.9543 60.4456 70.89 60.2399C71.16 60.2399 76.47 59.8599 83.06 59.7299C80.62 56.3899 78.8 53.6699 78.43 53.0999C76.9313 50.8398 76.0733 48.2158 75.9472 45.507C75.8212 42.7981 76.4319 40.1057 77.7143 37.7163C78.9967 35.3269 80.9029 33.3299 83.23 31.9376C85.5572 30.5454 88.2182 29.8101 90.93 29.8099C91.8424 29.8092 92.753 29.8929 93.65 30.0599C96.2776 30.5956 98.8027 31.5476 101.13 32.8799C102.855 30.5915 104.719 28.4108 106.71 26.3499C106.59 20.4599 106.83 15.0999 106.87 14.2699C106.993 11.3036 107.993 8.44057 109.744 6.04319C111.495 3.64582 113.918 1.82197 116.707 0.802592C119.495 -0.216782 122.523 -0.385833 125.407 0.316844C128.292 1.01952 130.903 2.56232 132.91 4.74989C134.686 6.68956 136.135 8.90514 137.2 11.3099C138.32 11.2199 139.38 11.1799 140.45 11.1799H141.58C149.49 11.3999 160.17 13.8499 170.52 23.0499C172.77 21.9099 174.34 21.1699 174.52 21.0999C177.181 19.8379 180.154 19.3871 183.07 19.8038C185.985 20.2204 188.713 21.4859 190.914 23.4427C193.115 25.3994 194.691 27.9607 195.446 30.8072C196.201 33.6538 196.102 36.6596 195.16 39.4499C194.45 41.5499 193.39 43.8899 188.98 49.5499C189.34 50.3499 189.7 51.1499 190.05 51.9599C198.92 50.4099 202.05 50.4099 203.28 50.4099C204.563 50.4024 205.844 50.5028 207.11 50.7099C210.01 51.2157 212.697 52.5634 214.836 54.5853C216.975 56.6073 218.472 59.2139 219.141 62.0806C219.809 64.9473 219.62 67.9473 218.595 70.7069C217.571 73.4665 215.757 75.8637 213.38 77.5999C213.03 77.8599 207.38 81.9299 200.76 86.2099C203.62 99.1661 205.816 112.26 207.34 125.44C222.75 127.44 225.8 129.13 227.77 130.19C230.363 131.585 232.489 133.713 233.881 136.309C235.273 138.904 235.87 141.852 235.598 144.784C235.326 147.716 234.197 150.504 232.352 152.799C230.506 155.094 228.026 156.795 225.22 157.69C224.79 157.83 218.22 159.9 210.62 161.84C210.75 163.76 210.86 165.68 210.97 167.61C211.2 171.61 211.4 175.75 211.57 179.88C211.69 182.61 211.79 185.35 211.89 188.1V188.91C212.02 192.75 212.13 196.6 212.21 200.44C212.27 203.18 212.32 205.92 212.36 208.66C212.407 211.953 212.44 215.233 212.46 218.5V219.3C212.46 222.38 212.46 225.433 212.46 228.46C216.87 230.63 220.46 232.63 221.11 232.99C223.671 234.425 225.754 236.581 227.102 239.189C228.449 241.797 229.002 244.743 228.691 247.663C228.38 250.582 227.219 253.346 225.353 255.612C223.486 257.877 220.996 259.546 218.19 260.41C227.1 261.52 229.48 262.66 231.01 263.41C233.666 264.682 235.889 266.709 237.401 269.236C238.913 271.763 239.648 274.68 239.514 277.622C239.379 280.564 238.382 283.402 236.646 285.781C234.909 288.16 232.511 289.975 229.75 291C228.39 291.51 219.75 294.69 210.75 297.18L210.56 301.08C214.93 306.86 218.93 313.39 219.5 314.33C220.802 316.472 221.547 318.907 221.665 321.412C221.784 323.916 221.272 326.41 220.178 328.666C219.084 330.922 217.442 332.868 215.402 334.326C213.362 335.783 210.989 336.706 208.5 337.01L208.28 340.21C210.91 342.43 212.92 344.27 213.28 344.61C215.325 346.495 216.805 348.911 217.556 351.589C218.307 354.267 218.299 357.101 217.532 359.774C216.766 362.447 215.271 364.855 213.215 366.728C211.159 368.601 208.623 369.865 205.89 370.38L205.45 375.1C205.236 377.29 204.543 379.407 203.42 381.299C202.296 383.191 200.77 384.813 198.95 386.05L198.74 386.19L198.53 386.33L197.25 387.14L196.04 387.86C195.58 388.13 195.04 388.43 194.48 388.75L193.25 389.41L192.38 389.87L191.21 390.46L190.21 390.97L188.94 391.57L187.63 392.17L185.68 393.02L185.51 393.09C184.78 393.4 184.06 393.7 183.31 394L181.73 394.62L179.61 395.41L177.86 396.02L176.45 396.5L176.06 396.63L174.43 397.15L174.1 397.25C173.24 397.52 172.28 397.8 171.3 398.08L170.99 398.17C169.99 398.44 168.99 398.71 167.99 398.98L167.5 399.1L165.85 399.51L165.27 399.64L163.61 400.02L162.96 400.16L161.31 400.51L160.54 400.66L158.88 400.97L158.23 401.09L156.31 401.42L155.76 401.51C154.76 401.67 153.76 401.82 152.7 401.97H152.45C151.52 402.1 150.58 402.21 149.62 402.32L149.17 402.38C147.01 402.62 144.81 402.81 142.63 402.96H142.4C141.29 403.03 140.23 403.08 139.15 403.13H138.9C136.807 403.223 134.723 403.267 132.65 403.26L131.41 403.3Z" fill="#231F20"/>
<path d="M73.19 376.389C73.19 376.389 57.6 23.8594 141.19 26.1794C224.78 28.4994 190.57 373.639 190.57 373.639C190.57 373.639 145.75 404.749 73.19 376.389Z" fill="#66BE64"/>
<path d="M151.19 387.02C176.42 383.44 190.55 373.64 190.55 373.64C190.55 373.64 224.73 28.4997 141.17 26.1797C141.17 26.1797 180.6 166.75 151.19 387.02Z" fill="#4CA84E"/>
<path d="M172.265 120.811C178.208 119.927 181.905 111.673 180.522 102.376C179.139 93.0781 173.2 86.2575 167.257 87.1415C161.313 88.0255 157.616 96.2794 158.999 105.577C160.382 114.875 166.321 121.695 172.265 120.811Z" fill="white"/>
<path d="M168.47 83.8692C171.209 83.8692 173.43 81.6486 173.43 78.9092C173.43 76.1699 171.209 73.9492 168.47 73.9492C165.731 73.9492 163.51 76.1699 163.51 78.9092C163.51 81.6486 165.731 83.8692 168.47 83.8692Z" fill="white"/>
<path d="M141.17 26.1794C57.5999 23.8594 73.1699 376.389 73.1699 376.389C82.0427 379.89 91.1777 382.685 100.49 384.749C88.7699 74.7494 141.17 26.1794 141.17 26.1794Z" fill="#4CA84E"/>
<g style="mix-blend-mode:multiply">
<path d="M72.0999 297.44C71.7299 343.29 73.1899 376.39 73.1899 376.39H73.2899L76.6899 377.68L77.5999 378.01L80.1699 378.93L81.0599 379.229L83.6299 380.09L84.3999 380.33C85.2999 380.62 86.1899 380.91 87.0799 381.18L87.6599 381.349C88.6099 381.639 89.5599 381.91 90.4999 382.18L90.8999 382.289L93.8999 383.099L94.1199 383.159L97.2399 383.94H97.3199C119.67 389.28 138.59 389 153.42 386.63L153.88 386.549L155.6 386.26L156.18 386.15L157.73 385.859L158.33 385.729L159.81 385.43L160.39 385.299L161.86 384.969L162.37 384.849L163.92 384.46L164.27 384.38C166.19 383.89 168.01 383.38 169.73 382.84L169.96 382.76L171.38 382.31L171.75 382.19L172.98 381.77L173.38 381.63L174.52 381.229L174.92 381.08L176.02 380.669L176.36 380.539C176.75 380.399 177.13 380.249 177.5 380.099L177.74 380.01C179.1 379.46 180.36 378.92 181.52 378.4L181.67 378.33L182.67 377.9L182.91 377.78L183.7 377.409L183.96 377.28L184.66 376.93L184.92 376.799L185.57 376.479C185.643 376.434 185.72 376.393 185.8 376.359L186.42 376.03L186.6 375.93L187.24 375.59H187.33L188.58 374.88L188.71 374.799L189.08 374.58L189.24 374.479L189.51 374.32L189.66 374.229L189.88 374.09L190 374.02L190.17 373.909L190.27 373.849L190.38 373.77H190.45H190.51L190.6 373.719C190.6 373.719 197.14 307.66 197.5 233.14C197.5 231.81 197.5 230.48 197.5 229.14C197.5 222.47 197.5 215.729 197.37 208.969C197.37 207.259 197.31 205.559 197.28 203.849L196.9 189.27C171.17 306.37 72.0999 297.44 72.0999 297.44Z" fill="#4CA84E"/>
</g>
<path d="M155.89 118.799C155.89 118.799 180.17 113.209 184.89 114.039C184.89 114.039 165.22 128.399 156.89 130.619C156.9 130.619 153.35 126.329 155.89 118.799Z" fill="#FAF28C"/>
<path d="M105.93 154.879C105.93 154.879 86.6201 151.019 82.8101 151.679C82.8101 151.679 98.3501 162.069 105 163.619C105 163.619 107.87 160.409 105.93 154.879Z" fill="#FAF28C"/>
<path d="M175.49 70.2601C175.49 70.2601 199.77 64.6701 204.49 65.5001C204.49 65.5001 184.82 79.8601 176.49 82.0901C176.49 82.0901 172.91 77.7501 175.49 70.2601Z" fill="#FAF28C"/>
<path d="M81.24 203.19C81.24 203.19 56.99 197.47 52.24 198.27C52.24 198.27 71.83 212.74 80.18 215.01C80.17 215.01 83.74 210.75 81.24 203.19Z" fill="#FAF28C"/>
<path d="M195.29 273.641C195.29 273.641 220.17 274.841 224.53 276.931C224.53 276.931 201.7 285.421 193.05 285.301C193.05 285.301 190.81 280.201 195.29 273.641Z" fill="#FAF28C"/>
<path d="M191.56 138.75C191.56 138.75 216.36 141.12 220.62 143.41C220.62 143.41 197.42 150.82 188.78 150.29C188.78 150.29 186.78 145.09 191.56 138.75Z" fill="#FAF28C"/>
<path d="M99.1501 86.6397C99.1501 86.6397 75.63 78.4297 72.04 75.1997C72.04 75.1997 96.34 73.5196 104.6 76.0996C104.6 76.0996 105.31 81.6197 99.1501 86.6397Z" fill="#FAF28C"/>
<path d="M160.87 290.129C160.87 290.129 182.52 298.689 185.78 301.829C185.78 301.829 164.84 302.829 157.24 300.149C157.24 300.149 155.06 294.529 160.87 290.129Z" fill="#FAF28C"/>
<path d="M160.15 165.33C160.15 165.33 180.91 171.6 184.15 174.28C184.15 174.28 165.54 177.39 158.26 175.46C157.349 173.815 157.039 171.904 157.384 170.055C157.729 168.207 158.707 166.536 160.15 165.33Z" fill="#FAF28C"/>
<path d="M108.61 54.75C108.61 54.75 94.31 45.36 91.05 44.75C91.05 44.75 100.29 58.68 105.14 62.11C105.14 62.16 108.49 60.24 108.61 54.75Z" fill="#FAF28C"/>
<path d="M74.92 336.2C74.92 336.2 57.82 335.8 54.8 334.45C54.8 334.45 70.3101 328.22 76.2501 328.16C76.2501 328.16 78.64 333.58 74.92 336.2Z" fill="#FAF28C"/>
<path d="M100.22 308.229C100.22 308.229 83.1301 307.839 80.1001 306.479C80.1001 306.479 95.6201 300.259 101.55 300.189C101.55 300.189 104.57 305.629 100.22 308.229Z" fill="#FAF28C"/>
<path d="M130.19 33.45C130.19 33.45 124.25 17.45 121.98 15C121.98 15 121.15 31.7 123.03 37.33C123.03 37.33 126.83 37.75 130.19 33.45Z" fill="#FAF28C"/>
<path d="M189.57 311.429C189.57 311.429 203.48 321.369 206.71 322.099C206.71 322.099 198.03 307.819 193.32 304.199C193.32 304.199 187.03 305.839 189.57 311.429Z" fill="#FAF28C"/>
<path d="M193.61 245.23C193.61 245.23 210.61 247.04 213.79 246.08C213.79 246.08 199.21 237.91 193.33 237.08C193.33 237.08 191.27 240.3 193.61 245.23Z" fill="#FAF28C"/>
<path d="M136.1 202.981L147.93 199.391C147.93 199.391 141.17 194.851 134.59 194.141C134.59 194.141 130.09 198.561 136.1 202.981Z" fill="#FAF28C"/>
<path d="M123.69 264.82L111.36 265.56C111.36 265.56 116.88 271.56 123.12 273.77C123.12 273.75 128.49 270.51 123.69 264.82Z" fill="#FAF28C"/>
<path d="M135.93 76.63L123.93 73.75C123.93 73.75 127.47 81.09 132.79 85.02C132.77 85.02 138.15 83.48 135.93 76.63Z" fill="#FAF28C"/>
<path d="M165.01 225.009C165.01 225.009 182.01 226.829 185.19 225.869C185.19 225.869 170.6 217.699 164.72 216.869C164.72 216.869 162.66 220.089 165.01 225.009Z" fill="#FAF28C"/>
<path d="M149.14 351.65C149.14 351.65 166.14 353.46 169.32 352.5C169.32 352.5 154.73 344.33 148.85 343.5C148.85 343.5 146.79 346.75 149.14 351.65Z" fill="#FAF28C"/>
<path d="M168.49 50.6101C168.49 50.6101 179.81 37.8102 180.87 34.6602C180.87 34.6602 165.77 41.8202 161.68 46.1302C161.71 46.1302 163.14 49.6801 168.49 50.6101Z" fill="#FAF28C"/>
<path d="M92.99 243.609C92.99 243.609 79.34 245.069 76.99 246.359C76.99 246.359 89.82 250.289 94.58 249.939C94.59 249.939 97.84 244.429 92.99 243.609Z" fill="#FAF28C"/>
<path d="M187.54 351.179C187.54 351.179 200.48 355.779 203.14 355.619C203.14 355.619 193.28 346.529 188.84 344.779C188.84 344.749 183.49 348.339 187.54 351.179Z" fill="#FAF28C"/>
<path d="M116.38 119.269C116.38 119.269 104.55 112.269 101.91 111.939C101.91 111.939 109.86 122.749 113.91 125.309C113.88 125.309 119.78 122.829 116.38 119.269Z" fill="#FAF28C"/>
<path d="M76.9401 266.471C76.9401 266.471 60.77 272.021 58.3 274.231C58.3 274.231 74.97 275.461 80.64 273.731C80.64 273.751 82.8101 266.471 76.9401 266.471Z" fill="#FAF28C"/>
</g>
<defs>
<clipPath id="clip0_4906_705">
<rect width="260.39" height="441.98" fill="white"/>
</clipPath>
</defs>
</svg>
