<svg width="488" height="639" viewBox="0 0 488 639" fill="none" xmlns="http://www.w3.org/2000/svg">
<g clip-path="url(#clip0_4953_514)">
<path d="M69.59 638.449C51.1487 638.428 33.4681 631.096 20.4235 618.061C7.37882 605.026 0.0343982 587.35 0 568.909V264.239C0.0105866 255.053 3.66462 246.245 10.1605 239.75C16.6563 233.254 25.4635 229.6 34.65 229.589H46.48V197.589C46.48 88.659 135.1 0.0390625 244.03 0.0390625C352.96 0.0390625 441.58 88.659 441.58 197.589V229.589H453.37C462.557 229.597 471.366 233.25 477.862 239.747C484.359 246.243 488.012 255.052 488.02 264.239V568.909C487.999 587.359 480.66 605.047 467.614 618.093C454.568 631.139 436.88 638.478 418.43 638.499L69.59 638.449ZM261.22 501.449L256.59 441.449C256.385 438.777 256.899 436.099 258.079 433.694C259.259 431.288 261.062 429.242 263.3 427.769C269.587 423.642 274.374 417.597 276.95 410.532C279.527 403.467 279.755 395.759 277.601 388.554C275.448 381.349 271.027 375.031 264.996 370.539C258.965 366.047 251.645 363.621 244.125 363.621C236.605 363.621 229.285 366.047 223.254 370.539C217.223 375.031 212.802 381.349 210.649 388.554C208.495 395.759 208.723 403.467 211.3 410.532C213.876 417.597 218.663 423.642 224.95 427.769C227.187 429.243 228.988 431.29 230.166 433.695C231.344 436.101 231.856 438.778 231.65 441.449L227.02 501.449H261.22ZM341.56 229.589V197.589C341.56 171.712 331.28 146.895 312.982 128.597C294.684 110.299 269.867 100.019 243.99 100.019C218.113 100.019 193.296 110.299 174.998 128.597C156.7 146.895 146.42 171.712 146.42 197.589V229.589H341.56Z" fill="#231F20"/>
<path d="M453.33 244.59H34.65C29.4385 244.59 24.4405 246.66 20.7554 250.345C17.0703 254.03 15 259.028 15 264.24V568.91C15 583.388 20.7514 597.273 30.989 607.511C41.2267 617.748 55.1118 623.5 69.59 623.5H418.39C432.868 623.5 446.753 617.748 456.991 607.511C467.229 597.273 472.98 583.388 472.98 568.91V264.24C472.98 259.028 470.91 254.03 467.225 250.345C463.54 246.66 458.542 244.59 453.33 244.59ZM271.55 440.25L276.37 502.91C276.504 504.643 276.278 506.386 275.706 508.028C275.134 509.67 274.23 511.177 273.049 512.453C271.867 513.729 270.435 514.747 268.842 515.443C267.249 516.14 265.529 516.5 263.79 516.5H224.48C222.739 516.504 221.015 516.147 219.419 515.452C217.822 514.758 216.386 513.74 215.202 512.464C214.017 511.187 213.11 509.68 212.536 508.035C211.963 506.391 211.736 504.646 211.87 502.91L216.69 440.3C207.713 434.398 200.879 425.757 197.203 415.662C193.528 405.567 193.206 394.556 196.286 384.263C199.367 373.971 205.685 364.947 214.302 358.531C222.92 352.115 233.377 348.649 244.12 348.649C254.864 348.649 265.32 352.115 273.938 358.531C282.555 364.947 288.873 373.971 291.954 384.263C295.034 394.556 294.712 405.567 291.037 415.662C287.361 425.757 280.527 434.398 271.55 440.3V440.25Z" fill="#EDD946"/>
<path d="M131.42 197.55C131.42 167.695 143.28 139.062 164.391 117.951C185.502 96.84 214.135 84.98 243.99 84.98C273.845 84.98 302.478 96.84 323.589 117.951C344.7 139.062 356.56 167.695 356.56 197.55V244.55H426.56V197.55C426.56 96.89 344.67 15 244.01 15C143.35 15 61.48 96.91 61.48 197.55V244.55H131.48L131.42 197.55Z" fill="#A5A4A4"/>
<g style="mix-blend-mode:multiply" opacity="0.51">
<path d="M131.42 244.59V197.59C131.42 196.08 131.42 194.59 131.52 193.1C109.52 195.34 86.1899 196.89 61.4399 197.59V244.59H131.42Z" fill="#BAB9B5"/>
</g>
<g style="mix-blend-mode:multiply" opacity="0.51">
<path d="M426.54 244.588V197.588C426.584 164.981 417.837 132.964 401.22 104.908C381.938 118.102 361.572 129.637 340.34 139.388C350.973 156.926 356.584 177.048 356.56 197.558V244.558L426.54 244.588Z" fill="#BAB9B5"/>
</g>
<g style="mix-blend-mode:multiply" opacity="0.51">
<path d="M69.59 623.45H418.39C432.859 623.45 446.737 617.705 456.973 607.479C467.209 597.252 472.967 583.379 472.98 568.91V264.24C472.98 259.028 470.91 254.03 467.225 250.345C463.54 246.66 458.542 244.59 453.33 244.59H374.48C374.48 244.59 371.88 335.39 292.56 410.59C289.523 422.753 282.028 433.332 271.56 440.23L276.37 502.91C276.504 504.643 276.278 506.386 275.706 508.028C275.134 509.67 274.23 511.177 273.049 512.453C271.867 513.729 270.435 514.747 268.842 515.443C267.249 516.14 265.529 516.5 263.79 516.5H224.48C222.739 516.504 221.015 516.147 219.419 515.452C217.822 514.758 216.386 513.74 215.202 512.464C214.017 511.187 213.11 509.68 212.536 508.035C211.963 506.391 211.736 504.646 211.87 502.91L214.87 463.8C165.26 487.91 100.23 505.12 15 508.58V568.91C15.0133 583.379 20.7705 597.252 31.0067 607.479C41.2429 617.705 55.1205 623.45 69.59 623.45Z" fill="#F0CC6D"/>
</g>
<g style="mix-blend-mode:multiply" opacity="0.51">
<path d="M472.98 568.91V264.24C472.98 259.028 470.91 254.03 467.224 250.345C463.539 246.66 458.541 244.59 453.33 244.59H426.54C426.54 244.59 462 572.78 69.5898 623.45H418.39C432.859 623.45 446.737 617.705 456.973 607.479C467.209 597.252 472.967 583.379 472.98 568.91Z" fill="#F0CC6D"/>
</g>
<path d="M396.14 174.891C407.403 171.044 410.851 151.291 403.842 130.773C396.833 110.254 382.021 96.7392 370.758 100.587C359.496 104.434 356.047 124.186 363.056 144.705C370.065 165.224 384.878 178.738 396.14 174.891Z" fill="white"/>
<path d="M435.91 327.38C448.602 327.38 458.89 317.091 458.89 304.4C458.89 291.708 448.602 281.42 435.91 281.42C423.219 281.42 412.93 291.708 412.93 304.4C412.93 317.091 423.219 327.38 435.91 327.38Z" fill="white"/>
<path d="M57.53 581.669C71.6298 581.669 83.06 558.581 83.06 530.099C83.06 501.618 71.6298 478.529 57.53 478.529C43.4302 478.529 32 501.618 32 530.099C32 558.581 43.4302 581.669 57.53 581.669Z" fill="white"/>
<path d="M94.3 478.53C103.324 478.53 110.64 471.214 110.64 462.19C110.64 453.165 103.324 445.85 94.3 445.85C85.2756 445.85 77.96 453.165 77.96 462.19C77.96 471.214 85.2756 478.53 94.3 478.53Z" fill="white"/>
</g>
<defs>
<clipPath id="clip0_4953_514">
<rect width="487.98" height="638.45" fill="white"/>
</clipPath>
</defs>
</svg>
