<svg width="439" height="665" viewBox="0 0 439 665" fill="none" xmlns="http://www.w3.org/2000/svg">
<g clip-path="url(#clip0_4780_401)">
<path d="M235.17 664.34C347.737 664.34 438.99 642.223 438.99 614.94C438.99 587.657 347.737 565.54 235.17 565.54C122.603 565.54 31.3501 587.657 31.3501 614.94C31.3501 642.223 122.603 664.34 235.17 664.34Z" fill="#A7A9AC"/>
<path d="M427.24 314.53C425.992 312.822 424.397 311.398 422.56 310.35C420.723 309.302 418.685 308.655 416.58 308.45C406.05 307.45 395.82 306.93 386.16 306.93C355.42 306.93 328.79 312.1 307.02 322.29C292.363 329.027 279.258 338.723 268.53 350.77V265.14L269.48 264.89L269.85 264.79C270.48 264.62 271.1 264.45 271.73 264.26L272.22 264.11C272.83 263.93 273.43 263.74 273.97 263.56L274.56 263.35L276.34 262.73L276.91 262.51L278.62 261.84L279.35 261.53C279.84 261.32 280.35 261.12 280.86 260.88L281.63 260.53C282.11 260.31 282.63 260.09 283.03 259.87L284.03 259.39C284.46 259.18 284.88 258.97 285.29 258.75L286.21 258.25C286.63 258.03 287.05 257.8 287.44 257.57L288.13 257.17L288.39 257.02L289.6 256.3L290.72 255.59C291.05 255.39 291.37 255.18 291.72 254.97L292.49 254.46L292.84 254.21L293.84 253.55L294.59 253.01L294.97 252.72C295.27 252.51 295.57 252.29 295.97 252.02L296.68 251.46L297.05 251.17L297.92 250.48C298.2 250.26 298.47 250.03 298.74 249.8L299.08 249.51L299.88 248.83C300.16 248.59 300.44 248.33 300.71 248.08L301.02 247.81L301.8 247.09C302.11 246.81 302.4 246.52 302.7 246.23L302.88 246.06L303.64 245.32C308.297 240.597 312.312 235.282 315.58 229.51C315.73 229.26 315.87 229.01 316 228.78C316.73 227.48 317.41 226.18 318 224.9C318 224.83 318.12 224.64 318.14 224.61C355.33 201.61 392.98 157.85 392.45 118.31C392.27 104.6 387.31 92.4899 378.12 83.3099L377.94 83.14C377.47 82.67 377 82.2199 376.55 81.8099L376.04 81.35C375.66 81.01 375.27 80.68 374.89 80.35L374.36 79.91C373.94 79.5799 373.53 79.2499 373.12 78.91L372.75 78.63C372.2 78.2299 371.66 77.8499 371.13 77.4999H371.04C366.265 74.4066 360.841 72.4561 355.19 71.8H354.96C354.3 65.34 352.43 57.66 342.77 48C333.39 38.6199 321 33.66 306.96 33.66C304.252 33.6676 301.547 33.8413 298.86 34.18C285.94 4.82997 267.25 0.0499675 256.49 0.0499675C245.32 0.0499675 238.71 3.97997 234.68 7.51997C228.907 2.51969 221.475 -0.144352 213.84 0.0499675C203.84 0.0499675 185.12 4.30996 172.07 32.82L171.46 34.18C168.777 33.841 166.075 33.6674 163.37 33.66C149.32 33.66 136.94 38.66 127.55 48C117.89 57.66 116.03 65.34 115.37 71.8H115.14C109.483 72.4563 104.052 74.4067 99.2701 77.4999H99.2001C98.6701 77.8499 98.1301 78.23 97.6401 78.58L97.1501 78.95C96.7601 79.24 96.3601 79.55 95.9101 79.95L95.4501 80.33C95.0601 80.65 94.6801 80.98 94.2701 81.33C94.1001 81.47 93.9401 81.62 93.7901 81.76C93.3201 82.18 92.8501 82.63 92.3501 83.13L92.2101 83.27C83.0101 92.46 78.0601 104.57 77.8701 118.27C77.3401 157.82 115 201.62 152.19 224.57C160.111 241.035 173.722 254.079 190.51 261.29L190.7 261.37C191.7 261.77 192.59 262.15 193.53 262.5L193.69 262.56C195.69 263.33 197.82 264.01 199.91 264.56L200.29 264.67V398.5C185.23 371.5 164.79 350.62 139.19 336.17C106.44 317.68 71.7901 313.8 48.4801 313.8C27.0901 313.8 12.3701 317 11.7501 317.14C9.79163 317.573 7.9399 318.394 6.30444 319.556C4.66898 320.717 3.283 322.194 2.22851 323.9C1.17403 325.606 0.47244 327.507 0.165251 329.489C-0.141939 331.471 -0.0485014 333.495 0.440061 335.44C10.8001 376.63 27.3601 412.2 49.6701 441.14L49.7501 441.24C50.7501 442.5 51.7501 443.74 52.6601 444.93L53.0601 445.42C55.0601 447.88 57.0601 450.32 59.1301 452.62L59.5301 453.08C61.5301 455.38 63.6601 457.66 65.7301 459.82L66.1301 460.24C68.2001 462.38 70.3501 464.53 72.5701 466.65L72.8601 466.93C75.0001 468.97 77.2034 470.97 79.4701 472.93L79.6701 473.1C80.7701 474.1 81.8801 475.03 82.9601 475.93L83.0801 476.03C84.1801 476.95 85.2801 477.86 86.3301 478.71L86.5501 478.89C87.6601 479.79 88.7901 480.67 89.9201 481.56L90.0901 481.68C91.2001 482.54 92.3201 483.39 93.4401 484.22L93.5301 484.29C94.6401 485.11 95.7501 485.92 96.9101 486.75L97.1001 486.88C99.3101 488.45 101.58 490 103.78 491.44L104.1 491.65C106.28 493.08 108.53 494.5 110.8 495.86L111.08 496.03C113.27 497.35 115.52 498.65 117.67 499.84L118 500.02C120.173 501.22 122.403 502.407 124.69 503.58L124.86 503.66C127.04 504.77 129.26 505.85 131.5 506.9L131.62 506.96C133.78 507.96 135.99 508.96 138.27 509.96L141.45 511.29L141.68 511.38C143.75 512.22 145.87 513.05 147.97 513.84L148.12 513.89C150.12 514.64 152.19 515.37 154.22 516.07L154.47 516.15C156.47 516.82 158.47 517.47 160.38 518.06L160.6 518.13C162.46 518.71 164.38 519.27 166.21 519.78L166.52 519.87C168.34 520.37 170.18 520.87 172.07 521.34H172.18C173.96 521.793 175.7 522.207 177.4 522.58L177.66 522.64L180.02 523.16H180.17L182.58 523.7H182.78C183.59 523.86 184.39 524.02 185.18 524.16H185.29L187.58 524.7H187.69L189.93 525.08H190.05C191.5 525.31 192.9 525.53 194.24 525.72H194.47C195.79 525.91 197.05 526.07 198.26 526.22H198.48L200.33 526.43V599.88C200.33 603.858 201.91 607.674 204.723 610.487C207.536 613.3 211.352 614.88 215.33 614.88H253.55C257.528 614.88 261.344 613.3 264.157 610.487C266.97 607.674 268.55 603.858 268.55 599.88V457.56H268.78C269.78 457.56 270.78 457.56 271.78 457.56H271.84C272.45 457.56 273.05 457.56 273.65 457.56H275.24C276.16 457.56 277.07 457.56 277.97 457.51C278.63 457.51 279.28 457.45 279.97 457.42L281.52 457.34L284.06 457.21L286.06 457.05L287.52 456.93L289.98 456.71C290.64 456.65 291.29 456.57 291.98 456.49L293.46 456.31L295.8 456.03C296.47 455.94 297.13 455.83 297.8 455.73L299.17 455.52C299.93 455.4 300.7 455.29 301.43 455.16L303.43 454.79L304.72 454.54C305.47 454.4 306.23 454.26 306.95 454.11L308.95 453.67L310.28 453.37L312.35 452.89L314.26 452.39L315.53 452.05L317.53 451.5L319.4 450.94L320.59 450.58C321.26 450.38 321.94 450.18 322.59 449.96C323.24 449.74 323.84 449.54 324.46 449.33L325.6 448.94L327.6 448.26C328.24 448.03 328.88 447.78 329.51 447.54L330.51 447.17L332.43 446.42C333.1 446.16 333.75 445.88 334.43 445.6L335.36 445.21L337.12 444.45L338.99 443.59L339.92 443.16L341.65 442.34L343.49 441.42L344.38 440.96C344.94 440.68 345.5 440.4 346.03 440.11C346.56 439.82 347.31 439.42 347.94 439.11L348.66 438.7L350.29 437.8L352.19 436.68L352.88 436.26L354.4 435.35C355 434.98 355.58 434.6 356.17 434.22L356.96 433.72L358.37 432.8C359 432.38 359.62 431.95 360.24 431.52L360.79 431.15L362.22 430.15C362.86 429.7 363.48 429.23 364.11 428.77L364.47 428.51L365.91 427.44L367.64 426.1L368.16 425.69L369.49 424.64L371.22 423.21L371.72 422.79L372.96 421.79C373.59 421.25 374.21 420.7 374.81 420.16L375.06 419.94L376.27 418.86L378.08 417.17L378.33 416.94L379.46 415.88L381.23 414.14L381.4 413.97L382.52 412.85C383.1 412.26 383.68 411.66 384.24 411.07L384.42 410.88C384.77 410.51 385.12 410.15 385.42 409.78C385.99 409.18 386.55 408.57 387.1 407.96L387.27 407.77L388.27 406.66L389.9 404.79L390.98 403.53L392.53 401.66L392.61 401.56L393.61 400.4C394.13 399.75 394.61 399.11 395.09 398.52L395.25 398.33C395.42 398.11 395.6 397.89 395.77 397.66L396.05 397.29C421.92 363.59 429.76 328.11 430.05 326.61C430.47 324.512 430.437 322.349 429.952 320.266C429.467 318.182 428.543 316.227 427.24 314.53Z" fill="#231F20"/>
<path d="M253.52 230.56H215.3V599.94H253.52V230.56Z" fill="#66BE64"/>
<path d="M138.17 58.5599C125.55 71.1799 133.75 75.5599 126.81 82.5599C119.87 89.5599 113.56 83.19 102.81 93.92C54.8101 141.92 192.42 276.92 256.81 212.57C321.2 148.22 186.13 10.5999 138.17 58.5599Z" fill="#EB6E8E"/>
<path d="M146.86 73.3401C136.42 83.7901 143.21 87.45 137.46 93.2C131.71 98.95 126.46 93.72 117.61 102.6C77.9101 142.3 191.79 254.1 245.08 200.81C298.37 147.52 186.58 33.6401 146.86 73.3401Z" fill="#F38CAB"/>
<g style="mix-blend-mode:multiply" opacity="0.77">
<path d="M256.82 212.55C188.98 205.55 132.82 130.26 107.46 90.0698C105.789 91.184 104.238 92.4675 102.83 93.8998C54.86 141.87 192.44 276.93 256.82 212.55Z" fill="#DC426E"/>
</g>
<path d="M332.18 58.5599C344.8 71.1799 336.6 75.5599 343.54 82.5599C350.48 89.5599 356.79 83.19 367.54 93.92C415.54 141.92 277.92 276.92 213.54 212.57C149.16 148.22 284.21 10.5999 332.18 58.5599Z" fill="#EB6E8E"/>
<path d="M323.48 73.3401C333.93 83.7901 327.14 87.45 332.88 93.2C338.62 98.95 343.88 93.72 352.74 102.6C392.44 142.3 278.55 254.1 225.27 200.81C171.99 147.52 283.78 33.6401 323.48 73.3401Z" fill="#F38CAB"/>
<g style="mix-blend-mode:multiply" opacity="0.77">
<path d="M213.58 212.55C281.42 205.55 337.58 130.26 362.93 90.0698C364.606 91.1812 366.161 92.4648 367.57 93.8998C415.48 141.87 277.9 276.93 213.58 212.55Z" fill="#DC426E"/>
</g>
<path d="M256.5 15C241.26 15 243.55 25.06 235.17 25.06C226.79 25.06 226.8 15 213.85 15C155.97 15 157.49 232.22 235.17 232.22C312.85 232.22 314.37 15 256.5 15Z" fill="#EB6E8E"/>
<path d="M252.5 35.3599C240.12 35.3599 241.98 43.5298 235.17 43.5298C228.36 43.5298 228.37 35.3599 217.85 35.3599C170.85 35.3599 172.06 211.86 235.17 211.86C298.28 211.86 299.58 35.3599 252.5 35.3599Z" fill="#F38CAB"/>
<g style="mix-blend-mode:multiply" opacity="0.77">
<path d="M235.17 25.06C226.8 25.06 226.8 15 213.85 15C155.97 15 157.49 232.22 235.17 232.22C180.31 99.86 235.17 25.06 235.17 25.06Z" fill="#DC426E"/>
</g>
<path d="M204.15 197.97C204.15 208.592 206.947 219.027 212.259 228.225C217.57 237.423 225.21 245.061 234.41 250.37V145.58C225.21 150.886 217.569 158.522 212.257 167.719C206.945 176.916 204.149 187.349 204.15 197.97Z" fill="#4CA84E"/>
<path d="M234.41 145.58V250.37C243.608 245.06 251.245 237.423 256.555 228.225C261.865 219.028 264.661 208.595 264.661 197.975C264.661 187.355 261.865 176.922 256.555 167.725C251.245 158.527 243.608 150.89 234.41 145.58Z" fill="#66BE64"/>
<path d="M250.06 191.92C242.548 199.43 237.147 208.787 234.4 219.047C231.653 229.308 231.656 240.111 234.41 250.37L308.51 176.27C298.251 173.516 287.448 173.513 277.187 176.26C266.926 179.007 257.57 184.409 250.06 191.92Z" fill="#66BE64"/>
<path d="M308.51 176.27L234.41 250.37C244.669 253.119 255.47 253.12 265.729 250.371C275.988 247.623 285.343 242.222 292.853 234.712C300.363 227.202 305.763 217.847 308.512 207.589C311.26 197.33 311.26 186.528 308.51 176.27Z" fill="#4CA84E"/>
<path d="M220.28 191.92C227.793 199.43 233.195 208.786 235.944 219.046C238.693 229.307 238.692 240.11 235.94 250.37L161.84 176.27C172.097 173.517 182.899 173.514 193.158 176.261C203.417 179.009 212.771 184.409 220.28 191.92Z" fill="#66BE64"/>
<path d="M161.84 176.27L235.94 250.37C225.682 253.119 214.88 253.12 204.621 250.371C194.362 247.623 185.008 242.222 177.498 234.712C169.988 227.202 164.587 217.847 161.839 207.589C159.09 197.33 159.091 186.528 161.84 176.27Z" fill="#4CA84E"/>
<g style="mix-blend-mode:multiply">
<path d="M194.05 246.46C206.855 252.595 221.406 254.046 235.17 250.56C245.398 253.159 256.128 253.037 266.295 250.207C276.461 247.377 285.711 241.937 293.125 234.427C300.539 226.917 305.859 217.598 308.558 207.396C311.257 197.194 311.241 186.463 308.51 176.27C277.12 258.7 194.81 246.58 194.05 246.46Z" fill="#4CA84E"/>
</g>
<path d="M215.3 512.45C200.3 290.81 15 331.78 15 331.78C15 331.78 175.06 424.23 215.3 512.45Z" fill="#66BE64"/>
<path d="M15 331.78C61 514.71 215.3 512.45 215.3 512.45C175.06 424.23 15 331.78 15 331.78Z" fill="#4CA84E"/>
<g style="mix-blend-mode:multiply">
<path d="M215.3 512.45C213.57 486.88 209.56 464.82 203.85 445.77C142.76 475.97 61.5801 431.98 61.5801 431.98C124.58 513.77 215.3 512.45 215.3 512.45Z" fill="#4CA84E"/>
</g>
<path d="M253.8 441.7C253.8 441.7 334.92 348.28 415.13 323.38C239.49 306.55 253.8 441.7 253.8 441.7Z" fill="#66BE64"/>
<path d="M253.8 441.7C386.98 454.64 415.13 323.39 415.13 323.39C334.92 348.29 253.8 441.7 253.8 441.7Z" fill="#4CA84E"/>
<g style="mix-blend-mode:multiply">
<path d="M383.58 388.44C280.92 428.16 273.9 368.02 273.9 368.02C249.58 401.77 253.8 441.7 253.8 441.7C319.64 448.1 359.81 419.25 383.58 388.44Z" fill="#4CA84E"/>
</g>
<path d="M267.052 93.8077C276.061 93.0512 282.287 79.6023 280.957 63.7688C279.628 47.9353 271.246 35.713 262.237 36.4695C253.228 37.2261 247.002 50.6749 248.332 66.5084C249.662 82.342 258.043 94.5643 267.052 93.8077Z" fill="white"/>
<path d="M249.53 123.61C256.356 123.61 261.89 118.076 261.89 111.25C261.89 104.424 256.356 98.8901 249.53 98.8901C242.704 98.8901 237.17 104.424 237.17 111.25C237.17 118.076 242.704 123.61 249.53 123.61Z" fill="white"/>
</g>
<defs>
<clipPath id="clip0_4780_401">
<rect width="438.99" height="664.34" fill="white"/>
</clipPath>
</defs>
</svg>
