<svg width="503" height="503" viewBox="0 0 503 503" fill="none" xmlns="http://www.w3.org/2000/svg">
<g clip-path="url(#clip0_6240_437)">
<path d="M251.141 502.261C218.148 502.351 185.465 495.897 154.984 483.272C124.502 470.648 96.8273 452.103 73.5607 428.711C50.1675 405.445 31.6211 377.77 18.9946 347.289C6.36802 316.807 -0.0876869 284.124 0.000906375 251.131C-0.08802 218.139 6.36747 185.457 18.9941 154.978C31.6207 124.498 50.1674 96.8249 73.5607 73.561C96.8252 50.1656 124.499 31.6174 154.981 18.9907C185.463 6.364 218.147 -0.0903982 251.141 0.000956356C284.133 -0.0890746 316.815 6.36599 347.295 18.9927C377.775 31.6193 405.448 50.1668 428.711 73.561C452.104 96.8249 470.651 124.498 483.278 154.978C495.904 185.457 502.36 218.139 502.271 251.131C502.359 284.124 495.904 316.807 483.277 347.289C470.651 377.77 452.104 405.445 428.711 428.711C405.446 452.102 377.772 470.647 347.293 483.271C316.813 495.896 284.132 502.35 251.141 502.261Z" fill="#231F20"/>
<path d="M251.13 487.26C381.541 487.26 487.26 381.541 487.26 251.13C487.26 120.719 381.541 15 251.13 15C120.719 15 15 120.719 15 251.13C15 381.541 120.719 487.26 251.13 487.26Z" fill="#F1A2B1"/>
<path d="M251.13 487.26C381.541 487.26 487.26 381.541 487.26 251.13C487.26 120.719 381.541 15 251.13 15C120.719 15 15 120.719 15 251.13C15 381.541 120.719 487.26 251.13 487.26Z" fill="#E5D4E8"/>
<path d="M364.58 44C383.658 78.7627 393.634 117.786 393.58 157.44C393.58 287.85 287.86 393.57 157.45 393.57C117.795 393.629 78.7707 383.653 44.0098 364.57C64.3529 401.721 94.3168 432.716 130.76 454.302C167.203 475.889 208.783 487.272 251.14 487.26C381.55 487.26 487.27 381.54 487.27 251.13C487.283 208.773 475.9 167.193 454.313 130.75C432.727 94.3061 401.732 64.3423 364.58 44Z" fill="#D4AFD3"/>
<path opacity="0.5" d="M389.859 60.0508C418.868 100.21 434.443 148.51 434.359 198.051C434.359 328.461 328.639 434.181 198.229 434.181C148.395 434.262 99.8238 418.504 59.5293 389.181C81.3874 419.57 110.166 444.319 143.485 461.381C176.804 478.443 213.706 487.327 251.139 487.301C381.549 487.301 487.269 381.581 487.269 251.171C487.303 213.881 478.491 177.115 461.558 143.891C444.625 110.668 420.053 81.9347 389.859 60.0508Z" fill="#C88FBF"/>
<path d="M164.5 297.64C190.22 297.64 211.07 276.79 211.07 251.07C211.07 225.35 190.22 204.5 164.5 204.5C138.78 204.5 117.93 225.35 117.93 251.07C117.93 276.79 138.78 297.64 164.5 297.64Z" fill="#F8F9E3"/>
<path d="M343.16 297.64C368.88 297.64 389.73 276.79 389.73 251.07C389.73 225.35 368.88 204.5 343.16 204.5C317.44 204.5 296.59 225.35 296.59 251.07C296.59 276.79 317.44 297.64 343.16 297.64Z" fill="#F8F9E3"/>
<path d="M117.941 251.07C117.447 244.875 118.282 238.646 120.391 232.8C122.548 226.848 125.904 221.402 130.251 216.8C134.639 212.15 139.935 208.451 145.81 205.93C151.721 203.402 158.082 202.096 164.511 202.09C170.937 202.093 177.296 203.403 183.201 205.94C189.08 208.454 194.377 212.155 198.761 216.81C203.112 221.409 206.468 226.856 208.621 232.81C210.727 238.657 211.566 244.885 211.08 251.08C210.592 245.059 209.023 239.175 206.451 233.71C203.924 228.361 200.42 223.532 196.121 219.47C191.855 215.483 186.883 212.326 181.461 210.16C176.052 208.006 170.282 206.903 164.461 206.91C158.656 206.914 152.905 208.017 147.511 210.16C142.089 212.329 137.118 215.485 132.85 219.47C128.556 223.536 125.053 228.365 122.52 233.71C119.966 239.176 118.415 245.056 117.941 251.07Z" fill="#231F20"/>
<path d="M211.08 251.07C211.575 257.266 210.737 263.496 208.621 269.34C206.473 275.295 203.12 280.741 198.77 285.34C194.38 289.993 189.081 293.693 183.201 296.21C177.293 298.738 170.936 300.048 164.511 300.061C158.085 300.048 151.728 298.738 145.82 296.21C139.943 293.689 134.646 289.986 130.261 285.331C125.909 280.732 122.553 275.285 120.401 269.331C118.289 263.485 117.451 257.256 117.941 251.061C118.428 257.082 119.996 262.966 122.57 268.431C125.094 273.781 128.598 278.61 132.901 282.67C137.168 286.658 142.139 289.818 147.56 291.99C152.955 294.13 158.707 295.229 164.511 295.23C170.332 295.237 176.102 294.134 181.511 291.98C186.932 289.812 191.903 286.655 196.171 282.67C200.468 278.606 203.971 273.777 206.501 268.431C209.055 262.965 210.606 257.085 211.08 251.07Z" fill="#231F20"/>
<path d="M162.07 298.671C178.948 298.671 192.63 284.989 192.63 268.111C192.63 251.233 178.948 237.551 162.07 237.551C145.192 237.551 131.51 251.233 131.51 268.111C131.51 284.989 145.192 298.671 162.07 298.671Z" fill="#040809"/>
<path d="M296.64 251.07C296.146 244.875 296.982 238.646 299.09 232.8C301.247 226.848 304.603 221.402 308.95 216.8C313.338 212.15 318.634 208.451 324.51 205.93C330.42 203.402 336.781 202.096 343.21 202.09C349.636 202.094 355.995 203.404 361.9 205.94C367.778 208.457 373.074 212.157 377.46 216.81C381.811 221.409 385.168 226.856 387.32 232.81C389.426 238.657 390.265 244.885 389.78 251.08C389.291 245.059 387.723 239.175 385.15 233.71C382.623 228.361 379.12 223.532 374.82 219.47C370.554 215.483 365.582 212.326 360.16 210.16C354.767 208.013 349.015 206.91 343.21 206.91C337.389 206.908 331.62 208.011 326.21 210.16C320.789 212.329 315.817 215.485 311.55 219.47C307.252 223.534 303.749 228.363 301.22 233.71C298.665 239.176 297.114 245.056 296.64 251.07Z" fill="#231F20"/>
<path d="M389.739 251.07C390.234 257.266 389.395 263.496 387.279 269.34C385.131 275.295 381.778 280.741 377.429 285.34C373.039 289.993 367.739 293.693 361.859 296.21C355.951 298.737 349.595 300.046 343.169 300.061C336.744 300.048 330.387 298.738 324.479 296.21C318.6 293.692 313.303 289.988 308.919 285.331C304.568 280.732 301.211 275.285 299.059 269.331C296.943 263.486 296.104 257.256 296.599 251.061C297.082 257.082 298.651 262.967 301.229 268.431C303.75 273.783 307.254 278.613 311.559 282.67C315.824 286.661 320.796 289.821 326.219 291.99C331.63 294.136 337.399 295.236 343.219 295.23C349.024 295.231 354.776 294.128 360.169 291.98C365.59 289.812 370.561 286.655 374.829 282.67C379.126 278.608 382.626 273.779 385.149 268.431C387.711 262.967 389.266 257.086 389.739 251.07Z" fill="#231F20"/>
<path d="M340.73 298.671C357.608 298.671 371.29 284.989 371.29 268.111C371.29 251.233 357.608 237.551 340.73 237.551C323.852 237.551 310.17 251.233 310.17 268.111C310.17 284.989 323.852 298.671 340.73 298.671Z" fill="#040809"/>
<path d="M289.65 308.9H214.66" stroke="#231F20" stroke-width="13.86" stroke-miterlimit="10" stroke-linecap="round"/>
</g>
<defs>
<clipPath id="clip0_6240_437">
<rect width="502.26" height="502.26" fill="white"/>
</clipPath>
</defs>
</svg>
