<svg width="458" height="810" viewBox="0 0 458 810" fill="none" xmlns="http://www.w3.org/2000/svg">
<g clip-path="url(#clip0_4572_48503)">
<path d="M38.2699 491.14C38.2699 480.45 75.0499 431.5 226.37 431.5C377.69 431.5 409.46 474.22 409.46 491.14C409.46 491.14 409.46 548.41 403.86 596.63C398.19 645.53 380.09 704.3 380.09 704.3C380.09 704.3 359.62 784.89 287.62 796.12C205.37 808.94 145.62 800.12 133.05 796.12C120.48 792.12 78.8899 766.39 67.6499 717.39C60.4099 685.82 32.1699 522.82 38.4399 490.54L38.2699 491.14Z" fill="#F8A33E"/>
<path d="M38.5099 490.63C38.6727 488.511 39.3229 486.457 40.4099 484.63C41.4292 482.746 42.6138 480.955 43.9499 479.28C46.6435 475.928 49.6578 472.847 52.9499 470.08C59.5677 464.605 66.7716 459.879 74.4299 455.99C82.0476 452.049 89.9339 448.651 98.0299 445.82C106.12 442.96 114.36 440.58 122.68 438.52C139.343 434.539 156.254 431.675 173.3 429.95C190.3 428.09 207.43 427.3 224.52 427.03C241.61 426.76 258.72 427.03 275.82 428.21C292.984 429.262 310.066 431.372 326.97 434.53C335.487 436.134 343.912 438.19 352.21 440.69C360.611 443.198 368.803 446.361 376.71 450.15C384.868 453.977 392.427 458.969 399.15 464.97C402.65 468.155 405.695 471.806 408.2 475.82C410.68 479.99 412.75 484.72 412.85 490.46V490.05C413.002 493.04 412.497 496.027 411.37 498.8C410.432 501.189 409.249 503.475 407.84 505.62C405.197 509.623 402.14 513.337 398.72 516.7C392.1 523.151 384.789 528.852 376.92 533.7C361.429 543.203 344.783 550.681 327.39 555.95C310.153 561.155 292.491 564.836 274.61 566.95C265.71 568.04 256.77 568.78 247.82 569.25C238.87 569.72 229.91 569.74 220.99 569.6C203.143 569.375 185.32 568.234 167.59 566.18C149.826 564.133 132.25 560.703 115.02 555.92C106.403 553.452 97.9501 550.447 89.7099 546.92C81.4297 543.445 73.5143 539.157 66.0799 534.12C58.7099 529.02 51.8599 522.97 46.6599 515.62C44.0647 511.996 41.9943 508.023 40.5099 503.82C39.0765 499.592 38.3995 495.144 38.5099 490.68C38.6546 495.099 39.5859 499.458 41.2599 503.55C42.93 507.601 45.1692 511.392 47.9099 514.81C53.4439 521.58 60.1133 527.336 67.6199 531.82C75.0956 536.375 82.9838 540.215 91.1799 543.29C99.3793 546.397 107.766 548.985 116.29 551.04C133.378 555.194 150.764 558.006 168.29 559.45C185.8 561.03 203.41 561.68 221.01 561.55C238.538 561.486 256.044 560.3 273.42 558C290.722 555.703 307.788 551.885 324.42 546.59C340.95 541.31 357 534.38 371.5 525.2C378.7 520.716 385.384 515.451 391.43 509.5C394.322 506.641 396.906 503.488 399.14 500.09C400.158 498.51 401.021 496.835 401.72 495.09C402.282 493.754 402.574 492.32 402.58 490.87V490.63V490.45C402.545 488.891 402.258 487.348 401.73 485.88C401.147 484.22 400.393 482.624 399.48 481.12C397.472 477.911 395.04 474.988 392.25 472.43C386.278 467.083 379.566 462.627 372.32 459.2C357.64 451.99 341.44 447.5 325.11 444.03C308.63 440.719 291.962 438.424 275.2 437.16C258.393 435.827 241.52 435.1 224.58 434.98C207.64 434.86 190.76 435.39 173.94 436.57C157.101 437.755 140.357 440.023 123.81 443.36C107.3 446.74 91.0099 451.46 75.6699 458.46C67.9743 461.91 60.6778 466.189 53.9099 471.22C50.5286 473.741 47.4035 476.588 44.5799 479.72C43.1671 481.288 41.8955 482.978 40.7799 484.77C39.5771 486.52 38.7998 488.527 38.5099 490.63Z" fill="#231F20"/>
<path d="M219.13 543.76C296.56 543.76 359.33 522.48 359.33 496.23C359.33 469.98 296.56 448.7 219.13 448.7C141.7 448.7 78.9301 469.98 78.9301 496.23C78.9301 522.48 141.7 543.76 219.13 543.76Z" fill="#020305"/>
<path d="M409.69 490.63C410.03 499.44 410.14 508.25 410.22 517.07C410.3 525.89 410.17 534.7 410 543.53C409.667 561.17 408.743 578.813 407.23 596.46C405.385 614.106 402.634 631.646 398.99 649.01C397.24 657.69 395.28 666.33 393.17 674.92C391.06 683.51 388.86 692.09 386.49 700.64L385.62 703.82L385.21 705.26L384.75 706.98C384.12 709.22 383.43 711.39 382.69 713.55C381.223 717.87 379.577 722.11 377.75 726.27C374.098 734.63 369.732 742.66 364.7 750.27C359.642 757.961 353.815 765.117 347.31 771.63C340.713 778.217 333.323 783.957 325.31 788.72C317.243 793.503 308.555 797.147 299.49 799.55L296.08 800.4L292.66 801.13L289.21 801.75L285.9 802.26L272.74 804.26C255.15 806.69 237.43 808.52 219.59 809.33L212.9 809.6L206.2 809.72C203.96 809.79 201.72 809.77 199.48 809.72C197.24 809.67 195.01 809.72 192.76 809.64C183.76 809.47 174.81 808.91 165.86 807.89C161.4 807.38 156.94 806.78 152.55 806.12C150.34 805.79 148.29 805.51 145.8 805.06C144.6 804.86 143.44 804.57 142.26 804.32C141.08 804.07 139.95 803.72 138.79 803.41C129.761 800.723 121.176 796.724 113.31 791.54C97.724 781.351 84.7792 767.607 75.54 751.44C70.9392 743.421 67.3039 734.884 64.71 726.01L63.78 722.68L62.98 719.32C62.43 717.07 62.03 714.9 61.59 712.71C60.7367 708.343 59.93 703.983 59.17 699.63C56.1233 682.223 53.3067 664.8 50.72 647.36C48.19 629.9 45.8 612.42 43.66 594.91C41.52 577.4 39.71 559.84 38.41 542.23C37.79 533.43 37.26 524.61 37.04 515.78C36.95 511.37 36.94 506.95 37.1 502.53C37.16 498.11 37.6287 493.704 38.5 489.37C38.2022 491.548 38.0486 493.742 38.04 495.94C37.99 498.14 38.04 500.33 38.11 502.53C38.28 506.92 38.6 511.3 39.01 515.67C39.78 524.42 40.83 533.15 42.01 541.86C44.3634 559.28 47.03 576.66 50.01 594C52.99 611.34 56.04 628.673 59.16 646C62.38 663.28 65.59 680.58 69.16 697.76C70.0534 702.047 70.97 706.32 71.91 710.58C72.4 712.7 72.91 714.84 73.41 716.85L74.22 719.9L75.14 722.9C76.3843 726.901 77.8636 730.824 79.57 734.65C81.2491 738.487 83.1627 742.218 85.3 745.82C93.8331 760.247 105.663 772.447 119.82 781.42C126.753 785.835 134.283 789.233 142.18 791.51C143.18 791.76 144.13 792.02 145.1 792.25C146.07 792.48 147.1 792.69 148.03 792.84C149.88 793.17 152.19 793.47 154.34 793.77C158.66 794.38 162.94 794.9 167.22 795.35C184.432 797.006 201.744 797.367 219.01 796.43C236.36 795.64 253.72 793.94 271.01 791.61L284.01 789.79L287.24 789.32L290.24 788.8L293.24 788.18L296.24 787.46C304.232 785.39 311.915 782.273 319.09 778.19C333.5 770.03 345.66 757.93 355.22 743.99C360.044 736.958 364.284 729.543 367.9 721.82C369.72 717.97 371.38 714.04 372.9 710.07C373.64 708.07 374.34 706.07 374.96 704.07L375.96 700.89L376.96 697.77C382.1 681.06 386.68 664.12 390.87 647.12C395.06 630.12 398.59 612.96 401.06 595.68C402.25 587.01 403.31 578.3 404.19 569.56C405.07 560.82 405.83 552.07 406.54 543.3C407.25 534.53 407.84 525.75 408.36 516.97C408.88 508.19 409.29 499.44 409.69 490.63Z" fill="#231F20"/>
<path d="M41.89 143.87C33.89 145.26 25.7001 152.32 18.3701 167.49C16.5101 171.337 14.8434 175.183 13.3701 179.03C12.8901 180.29 12.43 181.54 11.99 182.8L11.8701 183.14C11.6101 183.89 11.36 184.63 11.11 185.38C-23.62 290.82 82.4501 388.82 167.18 344.71L150.94 254.14C112.8 254.41 93.4101 222.78 80.8401 183.85C77.3201 172.95 71.9801 162.77 65.6301 155.38C64.6301 154.25 63.6301 153.18 62.6301 152.2C57.2101 146.9 51.2001 143.66 45.0301 143.61L41.89 143.87Z" fill="#1A8B47"/>
<path d="M150.94 254.14C147.514 254.24 144.084 254.09 140.68 253.69C130.316 252.353 120.553 248.07 112.55 241.35C107.227 236.869 102.52 231.704 98.5499 225.99C94.6046 220.289 91.1425 214.268 88.1999 207.99C85.2396 201.758 82.606 195.376 80.3099 188.87L78.6199 184.02C78.0799 182.44 77.4999 180.873 76.8799 179.32C75.6451 176.22 74.2431 173.188 72.6799 170.24C69.6742 164.372 65.7818 159.002 61.1399 154.32C58.9098 152.053 56.3593 150.126 53.5699 148.6C50.9436 147.143 48.0024 146.347 44.9999 146.28H45.2399L42.0799 146.57H42.3199C39.3209 147.189 36.5171 148.527 34.1499 150.47C31.6327 152.512 29.4055 154.887 27.5299 157.53C23.6867 163.096 20.4832 169.077 17.9799 175.36C16.6399 178.49 15.4499 181.75 14.3399 184.97C13.2299 188.19 12.2699 191.48 11.4299 194.78C9.72639 201.394 8.54608 208.131 7.89992 214.93C6.6202 228.532 7.53862 242.25 10.6199 255.56C12.1719 262.213 14.2381 268.736 16.7999 275.07C19.3436 281.421 22.3865 287.56 25.8999 293.43C32.9516 305.208 41.7559 315.843 52.0099 324.97C62.2973 334.107 74.0434 341.456 86.7599 346.71C93.1344 349.296 99.7409 351.268 106.49 352.6C113.265 353.918 120.159 354.524 127.06 354.41C133.986 354.268 140.876 353.376 147.61 351.75C154.372 350.095 160.947 347.749 167.23 344.75C161.104 348.16 154.626 350.896 147.91 352.91C141.148 354.915 134.18 356.143 127.14 356.57C120.071 356.972 112.979 356.637 105.98 355.57C98.9787 354.425 92.1038 352.61 85.4499 350.15C78.7932 347.67 72.3738 344.594 66.2699 340.96C60.1705 337.31 54.3781 333.169 48.9499 328.58C43.5272 323.981 38.4718 318.966 33.8299 313.58C29.2159 308.155 25.0237 302.385 21.2899 296.32C6.1064 271.848 -0.663905 243.085 2.00993 214.41C3.43092 200.165 7.00841 186.22 12.6199 173.05C15.4299 166.55 18.5399 160.05 22.9699 154.12C25.1901 151.093 27.8107 148.382 30.7599 146.06C33.8604 143.612 37.5077 141.951 41.3899 141.22H41.6099L44.7699 140.98H45.0199C48.8819 141.101 52.6567 142.158 56.0199 144.06C59.2169 145.86 62.1343 148.118 64.6799 150.76L66.4999 152.76L67.4099 153.76L68.2599 154.76C69.3799 156.147 70.4332 157.573 71.4199 159.04C73.3947 161.956 75.1752 165 76.7499 168.15C78.3243 171.276 79.7231 174.488 80.9399 177.77C81.5599 179.4 82.1199 181.05 82.6499 182.72L84.2099 187.57C86.3199 194.01 88.6499 200.38 91.3799 206.57C94.0718 212.76 97.2588 218.723 100.91 224.4C104.534 230.096 108.902 235.281 113.9 239.82C118.913 244.349 124.707 247.93 131 250.39C134.173 251.585 137.441 252.512 140.77 253.16C144.132 253.732 147.531 254.06 150.94 254.14Z" fill="#231F20"/>
<path d="M167.18 344.71C164.61 337.38 162.62 329.94 160.81 322.48C159 315.02 157.47 307.48 156.11 299.95C154.75 292.42 153.62 284.82 152.68 277.2C151.707 269.548 151.127 261.851 150.94 254.14C153.44 261.438 155.569 268.857 157.32 276.37C159.113 283.837 160.677 291.343 162.01 298.89C163.36 306.44 164.52 314.03 165.44 321.65C166.36 329.27 167.05 336.94 167.18 344.71Z" fill="#231F20"/>
<path d="M328.62 332.52C326.34 332.806 324.053 333.023 321.76 333.17C302.76 334.28 283.76 329.63 272.59 312.88C272.511 312.783 272.441 312.679 272.38 312.57C271.187 310.759 270.101 308.879 269.13 306.94C255.19 279.35 265 244.35 285.23 226.05C309.23 204.36 354.05 223.36 368.44 183.13C377.02 159.31 374.02 132.83 388.84 116.44C389.679 115.509 390.567 114.625 391.5 113.79C393.191 112.266 395.015 110.897 396.95 109.7L397.65 109.27L398.98 108.51C404.415 105.414 410.654 104.021 416.89 104.51C419.742 104.771 422.541 105.445 425.2 106.51C425.78 106.74 426.36 106.98 426.93 107.25C427.65 107.57 428.34 107.93 429.04 108.32C429.74 108.71 430.23 109 430.82 109.38C454.38 120.38 454.01 163.15 454.01 163.15C461.94 281.5 341.39 330.89 328.62 332.52Z" fill="#1A8B47"/>
<path d="M321.77 333.17C316.545 334.103 311.227 334.402 305.93 334.06L303.93 333.92L301.93 333.67C300.59 333.51 299.27 333.23 297.93 332.96C296.59 332.69 295.3 332.3 293.93 331.96C292.56 331.62 291.33 331.11 290.04 330.64C284.865 328.593 280.117 325.598 276.04 321.81C275.001 320.87 274.019 319.868 273.1 318.81C272.178 317.769 271.31 316.681 270.5 315.55C268.833 313.32 267.361 310.952 266.1 308.47L266.25 308.74L266.14 308.54V308.46C262.575 301.531 260.363 293.987 259.62 286.23C258.893 278.56 259.461 270.822 261.3 263.34C263.112 255.943 266.096 248.883 270.14 242.43C274.059 236.037 279.18 230.464 285.22 226.02C280.474 231.531 276.513 237.673 273.45 244.27C270.444 250.726 268.308 257.552 267.1 264.57C265.873 271.475 265.65 278.521 266.44 285.49C267.212 292.395 269.145 299.12 272.16 305.38L272.01 305.1L272.06 305.18C272.103 305.243 272.139 305.31 272.17 305.38C272.71 306.48 273.29 307.57 273.9 308.64L274.83 310.23L275.29 310.97L275.82 311.72C276.482 312.761 277.203 313.762 277.98 314.72C278.716 315.679 279.507 316.594 280.35 317.46C283.725 321.021 287.686 323.977 292.06 326.2C293.2 326.7 294.3 327.29 295.45 327.77C296.6 328.25 297.76 328.77 298.98 329.11C300.2 329.45 301.37 329.92 302.61 330.22L304.45 330.73L306.33 331.15C311.418 332.213 316.58 332.888 321.77 333.17Z" fill="#231F20"/>
<path d="M285.22 226.02C288.224 223.192 291.657 220.857 295.39 219.1C299.133 217.35 303.038 215.97 307.05 214.98C315.05 212.91 323.23 211.86 331.18 210.16C339.13 208.46 346.94 206.02 353.29 201.36C356.445 199.048 359.178 196.21 361.37 192.97C363.545 189.695 365.286 186.153 366.55 182.43L366.43 183.1L366.55 182.42C368.037 177.876 369.256 173.248 370.2 168.56C371.15 163.85 371.89 159.06 372.66 154.25C373.43 149.44 374.18 144.57 375.28 139.71C376.324 134.761 377.882 129.935 379.93 125.31C382.081 120.563 385.096 116.256 388.82 112.61C390.665 110.76 392.707 109.117 394.91 107.71C397.094 106.268 399.411 105.039 401.83 104.04C409.286 100.882 417.656 100.643 425.28 103.37C425.91 103.59 426.51 103.84 427.12 104.1C427.732 104.342 428.33 104.619 428.91 104.93C429.51 105.23 430.13 105.52 430.71 105.85L432.42 106.85C432.827 107.093 433.164 107.437 433.399 107.849C433.634 108.261 433.758 108.726 433.76 109.2V109.3L432.08 106.66C434.635 107.886 437.016 109.446 439.16 111.3C441.256 113.134 443.129 115.208 444.74 117.48C446.338 119.683 447.734 122.026 448.91 124.48C450.089 126.888 451.111 129.37 451.97 131.91C453.67 136.921 454.915 142.076 455.69 147.31C456.09 149.91 456.4 152.517 456.62 155.13C456.84 157.77 456.99 160.32 456.99 163.13V162.9L457.23 170.34L457.34 174.06L457.22 177.82C457.12 180.3 457.09 182.82 456.93 185.26L456.18 192.67C456 195.15 455.47 197.59 455.08 200.05C454.69 202.51 454.3 204.96 453.65 207.36L451.87 214.6L449.62 221.66C446.425 231.077 442.347 240.171 437.44 248.82C432.434 257.362 426.681 265.443 420.25 272.97C413.858 280.474 406.869 287.446 399.35 293.82C391.865 300.196 383.935 306.031 375.62 311.28C367.342 316.528 358.715 321.206 349.8 325.28C345.33 327.28 340.8 329.15 336.16 330.71C333.844 331.532 331.466 332.171 329.05 332.62C326.61 332.86 324.17 332.96 321.74 333.14C324.16 332.82 326.59 332.58 328.98 332.21C331.332 331.628 333.635 330.866 335.87 329.93C340.39 328.13 344.8 326.1 349.13 323.93C357.773 319.495 366.123 314.512 374.13 309.01C382.117 303.521 389.73 297.508 396.92 291.01C404.065 284.51 410.72 277.491 416.83 270.01C422.918 262.566 428.336 254.598 433.02 246.2C437.643 237.807 441.466 228.999 444.44 219.89L446.5 213.02L448.11 206.02C448.72 203.71 449.01 201.33 449.42 199.02C449.83 196.71 450.28 194.32 450.42 191.93L451.11 184.79C451.25 182.4 451.27 180 451.36 177.61L451.47 174.03L451.34 170.44L451.08 163.26V163.03C451.08 160.67 450.91 158.12 450.69 155.66C450.47 153.2 450.16 150.66 449.77 148.24C449.025 143.352 447.871 138.535 446.32 133.84C445.554 131.53 444.639 129.272 443.58 127.08C442.558 124.919 441.343 122.854 439.95 120.91C437.326 117.078 433.767 113.98 429.61 111.91C429.117 111.673 428.702 111.3 428.412 110.837C428.122 110.373 427.968 109.837 427.97 109.29L429.31 111.74L427.87 110.88C427.4 110.61 426.87 110.38 426.42 110.12C425.931 109.857 425.427 109.623 424.91 109.42C424.39 109.19 423.91 108.97 423.35 108.79C421.282 108.038 419.129 107.545 416.94 107.32C412.519 106.904 408.062 107.549 403.94 109.2C401.847 110.042 399.838 111.08 397.94 112.3C396.016 113.491 394.232 114.893 392.62 116.48C389.314 119.618 386.628 123.35 384.7 127.48C382.735 131.762 381.208 136.232 380.14 140.82C378.99 145.44 378.14 150.2 377.26 154.99C376.38 159.78 375.54 164.62 374.46 169.44C373.391 174.296 372.004 179.076 370.31 183.75L370.43 183.07L370.31 183.74C368.805 187.746 366.788 191.541 364.31 195.03C361.791 198.515 358.692 201.542 355.15 203.98C351.632 206.359 347.794 208.224 343.75 209.52C339.785 210.803 335.73 211.792 331.62 212.48C323.47 213.91 315.31 214.61 307.33 216.26C303.338 217.055 299.428 218.217 295.65 219.73C291.863 221.263 288.343 223.386 285.22 226.02Z" fill="#231F20"/>
<path d="M395.23 116.82C396.383 123.916 396.909 131.101 396.8 138.29C396.741 145.509 396.136 152.712 394.99 159.84C392.815 174.257 387.874 188.117 380.44 200.66C376.661 206.919 372.134 212.694 366.96 217.86C365.69 219.13 364.43 220.43 363.1 221.65C361.77 222.87 360.47 224.13 359.1 225.33C356.41 227.74 353.64 230.08 350.76 232.27C345.035 236.753 338.773 240.505 332.12 243.44C328.774 244.886 325.27 245.933 321.68 246.56C319.881 246.845 318.06 246.965 316.24 246.92C314.432 246.896 312.642 246.558 310.95 245.92C312.673 246.358 314.461 246.49 316.23 246.31C317.99 246.178 319.734 245.883 321.44 245.43C323.138 244.982 324.807 244.435 326.44 243.79C328.07 243.13 329.68 242.41 331.24 241.6C334.381 239.998 337.405 238.177 340.29 236.15C343.19 234.15 346.01 232.03 348.71 229.75C354.141 225.2 359.306 220.342 364.18 215.2C369.076 210.177 373.389 204.619 377.04 198.63C384.4 186.68 389.12 173.18 392.04 159.34C393.451 152.381 394.423 145.341 394.95 138.26C395.51 131.127 395.604 123.965 395.23 116.82Z" fill="#77C38E"/>
<path d="M410.89 127.47C412.309 131.477 413.33 135.614 413.94 139.82C414.609 144.033 414.993 148.286 415.09 152.55C415.19 154.69 415.09 156.82 415.09 158.96C415.09 161.1 414.88 163.23 414.7 165.37C414.52 167.51 414.31 169.64 413.93 171.74C413.55 173.84 413.28 175.99 412.81 178.08C409.254 194.933 402.535 210.959 393.01 225.31C390.74 228.96 388.11 232.31 385.61 235.82L381.56 240.82L379.56 243.3L377.41 245.67L373.08 250.4L368.54 254.91C365.54 257.99 362.31 260.72 359.14 263.56C346.281 274.638 332.212 284.229 317.2 292.15C330.78 282.15 343.96 271.68 355.99 260.09L360.44 255.69C361.96 254.26 363.38 252.74 364.8 251.22L369.07 246.67L373.13 241.94L375.13 239.58L377.06 237.14L380.9 232.25C383.29 228.87 385.83 225.58 387.99 222.06C390.34 218.65 392.37 215.06 394.45 211.47L397.32 205.98C398.32 204.14 399.06 202.23 399.97 200.38C403.401 192.856 406.178 185.051 408.27 177.05C410.375 169.021 411.692 160.805 412.2 152.52C412.37 150.44 412.4 148.36 412.46 146.27C412.52 144.18 412.46 142.1 412.34 140.01C412.177 135.799 411.692 131.607 410.89 127.47Z" fill="#77C38E"/>
<path d="M51.62 256C51.62 256 51.95 256.8 52.62 258.18C53.29 259.56 54.32 261.53 55.75 263.86C56.46 265.04 57.28 266.3 58.22 267.61C58.7 268.27 59.17 268.96 59.72 269.61C60.27 270.26 60.81 270.97 61.4 271.66C61.99 272.35 62.64 273.03 63.3 273.72C63.63 274.05 63.97 274.4 64.3 274.72C64.63 275.04 65.02 275.38 65.39 275.72C66.15 276.36 66.89 277.04 67.72 277.62C68.55 278.2 69.4 278.79 70.28 279.34C69.62 278.44 68.98 277.57 68.34 276.74C67.7 275.91 67.13 275.04 66.53 274.24L65.65 273.05L64.82 271.86C64.26 271.08 63.69 270.36 63.17 269.62C62.65 268.88 62.17 268.18 61.61 267.51L60.13 265.51C59.13 264.27 58.25 263.12 57.4 262.1C55.7 260.1 54.27 258.5 53.23 257.48C52.19 256.46 51.62 256 51.62 256Z" fill="#77C38E"/>
<path d="M309.62 326.11C314.73 323.2 319.78 320.34 324.77 317.42C329.76 314.5 334.67 311.42 339.49 308.34C344.31 305.26 348.95 301.83 353.49 298.34C358.03 294.85 362.26 290.93 366.49 286.81C363.522 291.93 359.842 296.604 355.56 300.69C351.261 304.761 346.61 308.442 341.66 311.69C336.721 314.903 331.55 317.745 326.19 320.19C320.87 322.692 315.321 324.675 309.62 326.11Z" fill="#77C38E"/>
<path d="M51.62 153.5C51.9775 159.182 52.7091 164.834 53.81 170.42C54.872 175.94 56.2441 181.395 57.92 186.76C61.2008 197.408 65.7536 207.622 71.48 217.18C74.3113 221.964 77.4443 226.564 80.86 230.95C82.49 233.21 84.37 235.27 86.12 237.45C87.03 238.51 87.99 239.51 88.92 240.56C89.85 241.61 90.78 242.66 91.78 243.63C99.7235 251.737 108.257 259.244 117.31 266.09C106.644 261.48 96.7537 255.25 87.99 247.62C86.86 246.7 85.8 245.69 84.74 244.68C83.68 243.67 82.61 242.68 81.59 241.63C79.59 239.5 77.53 237.4 75.69 235.11C73.85 232.82 72.04 230.52 70.27 228.11C69.42 226.92 68.64 225.68 67.81 224.46C66.98 223.24 66.22 221.99 65.47 220.72C59.431 210.641 55.0898 199.637 52.62 188.15C51.3903 182.444 50.6543 176.642 50.42 170.81C50.32 167.9 50.33 164.99 50.52 162.1C50.6703 159.21 51.038 156.335 51.62 153.5Z" fill="#77C38E"/>
<path d="M51.38 309.91C54.54 312.47 57.7767 314.867 61.09 317.1C64.38 319.38 67.78 321.47 71.22 323.47C78.0799 327.413 85.2543 330.781 92.67 333.54C96.37 334.91 100.14 336.06 103.95 337.09C107.76 338.12 111.63 338.88 115.53 339.58C123.452 340.799 131.455 341.418 139.47 341.43C131.497 343.382 123.265 344.057 115.08 343.43C113.08 343.25 110.97 343.11 108.93 342.76C106.89 342.41 104.86 342.07 102.84 341.67C98.8063 340.77 94.8347 339.611 90.95 338.2C83.2005 335.345 75.8607 331.482 69.12 326.71C65.7621 324.357 62.5712 321.774 59.57 318.98C56.5525 316.229 53.8096 313.192 51.38 309.91Z" fill="#77C38E"/>
<path d="M327.16 293.72C322.31 362.42 297.86 436.01 292.71 504C250.62 526.24 195.21 528.82 161.12 514.16C142.62 474.34 133.96 423.82 125.52 378.05C112.89 309.72 99.9 237.56 106.58 167.05C107 162.624 107.513 158.17 108.12 153.69C108.35 151.99 108.6 150.29 108.86 148.59C115.34 105.97 130.62 62.4802 157.62 34.4902C159.908 32.1197 162.361 29.9142 164.96 27.8902C165.12 27.7702 165.29 27.6302 165.46 27.5202C166.15 26.9702 166.86 26.4602 167.57 25.9602C169.14 24.8302 170.74 23.7802 172.4 22.7702C181.06 17.626 190.46 13.8451 200.27 11.5602L201.5 11.2702C209.55 9.43842 217.758 8.39351 226.01 8.1502C228.01 8.0902 230.01 8.07353 232.01 8.1002H233.3C238.376 8.20377 243.442 8.61117 248.47 9.3202C249.27 9.4302 250.06 9.5502 250.85 9.6802C256.885 10.6421 262.829 12.1072 268.62 14.0602L269.92 14.5202C270.99 14.9002 272.03 15.3002 273.05 15.7102C276.717 17.1788 280.253 18.9551 283.62 21.0202C285.861 22.3895 288.015 23.8957 290.07 25.5302C291.07 26.3002 291.99 27.0902 292.91 27.9102C293.62 28.5502 294.32 29.1902 295 29.8602C302.88 37.4902 308.64 46.8602 313 57.5202C313.39 58.5202 313.77 59.4702 314.15 60.4602C320.88 78.4602 323.79 99.6102 325.89 121.46C327.83 141.56 329.093 161.714 329.68 181.92C329.753 184.08 329.81 186.25 329.85 188.43C330.62 223.53 329.62 258.71 327.16 293.72Z" fill="#1A984D"/>
<path d="M161.12 514.16C155.041 501.254 149.901 487.926 145.74 474.28C141.62 460.62 138.09 446.82 134.95 432.82C131.81 418.82 129.05 404.91 126.31 390.92C123.57 376.93 120.84 362.92 118.24 348.92C115.64 334.92 113.15 320.85 110.93 306.75C108.71 292.65 106.76 278.49 105.29 264.26C103.82 250.03 102.68 235.77 102.18 221.45C101.68 207.13 101.82 192.78 102.67 178.45C104.47 149.81 109.35 121.18 119 93.9199C119.56 92.2099 120.24 90.5299 120.87 88.8399C121.5 87.1499 122.13 85.4499 122.87 83.7899C124.29 80.4699 125.66 77.1199 127.26 73.8599C130.317 67.3053 133.777 60.9464 137.62 54.8199L140.62 50.2299C141.62 48.7299 142.73 47.2299 143.79 45.7799L145.39 43.5599L147.11 41.4299C148.27 40.0099 149.37 38.5599 150.58 37.1799C153.06 34.4899 155.39 31.6799 158.2 29.1799C159.573 27.9066 160.99 26.6932 162.45 25.5399C162.8 25.2599 163.26 24.9199 163.62 24.6499L164.72 23.8399C165.43 23.2899 166.21 22.7799 166.99 22.2699C173.086 18.0757 179.68 14.6561 186.62 12.0899C193.513 9.54181 200.631 7.65008 207.88 6.43989C215.097 5.20282 222.408 4.5972 229.73 4.62989C237.048 4.57276 244.358 5.14149 251.58 6.32989C258.855 7.48439 265.992 9.38096 272.88 11.9899C279.893 14.616 286.45 18.3279 292.31 22.9899C295.228 25.3418 297.96 27.9162 300.48 30.6899C302.981 33.4616 305.27 36.4165 307.33 39.5299C311.372 45.7131 314.69 52.3398 317.22 59.2799C317.358 59.658 317.429 60.0574 317.43 60.4599L317.22 59.2799C320.489 68.2423 322.966 77.4744 324.62 86.8699C326.33 96.1799 327.49 105.53 328.44 114.87C330.32 133.53 331.57 152.22 332.29 170.93C333.584 208.342 332.917 245.797 330.29 283.14L329.78 290.14C329.61 292.47 329.42 294.8 329.18 297.14C328.71 301.81 328.37 306.49 327.72 311.14C327.07 315.79 326.59 320.45 325.84 325.08L324.79 332.02C324.43 334.34 324 336.64 323.62 338.94C320.48 357.4 316.56 375.68 312.62 393.94C308.68 412.2 304.62 430.39 301.06 448.71C297.5 467.03 294.5 485.44 292.78 504.04C294.054 485.4 296.317 466.84 299.56 448.44C302.67 430.02 306.33 411.69 309.9 393.37C313.47 375.05 316.96 356.73 319.83 338.37C320.18 336.07 320.57 333.77 320.88 331.47L321.82 324.56C322.49 319.95 322.95 315.33 323.46 310.71C323.97 306.09 324.29 301.46 324.68 296.84C324.88 294.53 325.03 292.21 325.16 289.84L325.56 282.84C327.706 245.653 327.953 208.382 326.3 171.17C325.46 152.577 324.06 134.033 322.1 115.54C321.1 106.31 319.88 97.1299 318.15 88.0899C316.517 79.0895 314.132 70.2418 311.02 61.6399C310.874 61.2637 310.799 60.8635 310.8 60.4599L311.02 61.6399C308.653 55.1862 305.553 49.0258 301.78 43.2799C299.903 40.4613 297.817 37.7871 295.54 35.2799C293.257 32.7849 290.786 30.4681 288.15 28.3499C282.83 24.1365 276.876 20.7918 270.51 18.4399C264.042 16.0072 257.34 14.2512 250.51 13.1999C243.661 12.0886 236.729 11.5666 229.79 11.6399C226.34 11.6399 222.87 11.7599 219.41 12.0599C215.95 12.3599 212.51 12.7699 209.1 13.3399C202.282 14.4614 195.585 16.2259 189.1 18.6099C182.652 20.9407 176.524 24.0755 170.86 27.9399C170.14 28.4099 169.43 28.8599 168.73 29.3999L167.68 30.1799C167.32 30.4399 167.06 30.6299 166.68 30.9099C165.36 31.9099 164.06 33.0499 162.82 34.1999C160.31 36.4399 158.08 39.1199 155.72 41.6599C154.57 42.9499 153.53 44.3399 152.42 45.6599L150.78 47.6599L149.25 49.8199C148.25 51.2399 147.2 52.6299 146.25 54.0599L143.41 58.4499C142.41 59.8899 141.58 61.4499 140.7 62.9199C139.82 64.3899 138.89 65.9199 138.1 67.4699L135.62 72.0699C134.77 73.5999 134.09 75.2199 133.32 76.7899C130.27 83.0999 127.66 89.6199 125.24 96.2099C115.62 122.67 110.62 150.72 108.69 178.89C107.78 193.01 107.52 207.17 107.81 221.34C108.1 235.51 109.1 249.67 110.4 263.8C111.7 277.93 113.51 292.04 115.47 306.12C117.43 320.2 119.69 334.25 122.09 348.29L129.37 390.4C131.81 404.4 134.25 418.46 137.08 432.4C142.75 460.26 149.62 488.04 161.12 514.16Z" fill="#231F20"/>
<path d="M292.71 504C283.23 510.481 272.863 515.557 261.93 519.07C250.976 522.678 239.646 525.027 228.16 526.07C216.659 527.143 205.07 526.807 193.65 525.07C182.29 523.26 171.02 519.94 161.12 514.21C171.954 517.13 183.059 518.936 194.26 519.6C205.347 520.279 216.469 520.112 227.53 519.1C238.608 518.099 249.604 516.335 260.44 513.82C271.398 511.248 282.177 507.968 292.71 504Z" fill="#231F20"/>
<path d="M305.51 67.7002C305.51 67.7602 305.51 67.7002 305.58 67.7002L305.87 67.5302C306.12 67.3802 306.49 67.1402 306.95 66.8202C308.271 65.8997 309.534 64.8978 310.73 63.8202C312.564 62.1604 314.281 60.3762 315.87 58.4802C316.79 57.3802 317.73 56.1802 318.67 54.8702C319.61 53.5602 320.56 52.1502 321.57 50.6802C320.163 51.4577 318.824 52.3543 317.57 53.3602C316.404 54.2751 315.286 55.2498 314.22 56.2802C312.413 58.0165 310.741 59.8886 309.22 61.8802C308.19 63.2362 307.242 64.652 306.38 66.1202C306.07 66.6402 305.84 67.0602 305.69 67.3402L305.51 67.6602C305.51 67.6602 305.51 67.6602 305.51 67.7302V67.6702V67.7002Z" fill="#77C38E"/>
<path d="M115.14 388.91C115.2 388.97 115.19 388.91 115.21 388.91L115.51 388.74C115.76 388.59 116.13 388.35 116.59 388.03C117.911 387.11 119.174 386.108 120.37 385.03C122.201 383.368 123.919 381.584 125.51 379.69C126.43 378.59 127.37 377.39 128.31 376.09C129.25 374.79 130.2 373.36 131.21 371.89C129.803 372.668 128.464 373.564 127.21 374.57C125.99 375.57 124.87 376.51 123.85 377.49C122.042 379.226 120.371 381.098 118.85 383.09C117.821 384.449 116.87 385.865 116 387.33C115.69 387.85 115.47 388.27 115.31 388.55L115.14 388.88C115.14 388.88 115.14 388.88 115.14 388.94V388.88V388.91Z" fill="#77C38E"/>
<path d="M298.11 403.29H298.04C298.04 403.37 298.04 403.29 298.09 403.29H298.43L299.72 403.38C301.331 403.441 302.944 403.401 304.55 403.26C307.017 403.06 309.467 402.682 311.88 402.13C313.28 401.82 314.75 401.43 316.3 400.97C317.85 400.51 319.45 399.97 321.14 399.38C319.547 399.152 317.939 399.055 316.33 399.09C314.849 399.112 313.371 399.209 311.9 399.38C309.416 399.667 306.959 400.149 304.55 400.82C302.91 401.275 301.298 401.823 299.72 402.46C299.15 402.69 298.72 402.88 298.43 403.02L298.09 403.17C298.09 403.17 298.09 403.17 298.09 403.23L298.11 403.29Z" fill="#77C38E"/>
<path d="M24.01 146.59C23.7313 147.978 23.6405 149.397 23.74 150.81C23.8371 152.293 24.0782 153.763 24.46 155.2C24.9613 157.026 25.7081 158.775 26.68 160.4C27.0014 158.463 27.0653 156.493 26.87 154.54C26.7261 153.053 26.39 151.591 25.87 150.19C25.433 148.904 24.806 147.69 24.01 146.59Z" fill="#77C38E"/>
<path d="M0 222.01C0.0386039 222.39 0.102075 222.768 0.190002 223.14C0.289892 223.568 0.427087 223.986 0.600006 224.39C0.700006 224.63 0.809993 224.88 0.929993 225.14C1.05999 225.39 1.21 225.64 1.38 225.9C1.55 226.16 1.71998 226.43 1.91998 226.7C2.11998 226.97 2.33999 227.21 2.57999 227.47C3.08001 228.008 3.63656 228.491 4.23999 228.91C4.90062 229.351 5.61252 229.71 6.35999 229.98C6.75542 230.133 7.16371 230.25 7.57999 230.33C8.01283 230.415 8.45022 230.475 8.88998 230.51C8.60998 230.08 8.32999 229.69 8.04999 229.32C7.76999 228.95 7.49998 228.59 7.22998 228.26C6.67998 227.62 6.18 226.99 5.66 226.49C5.14 225.99 4.65999 225.49 4.20999 225.09C3.97999 224.88 3.75 224.69 3.53 224.52C3.31 224.35 3.09998 224.16 2.88998 224L1.75 223.16L0.839996 222.54C0.570103 222.348 0.289669 222.171 0 222.01Z" fill="#77C38E"/>
<path d="M80.93 179.52H81.17C81.3824 179.493 81.5975 179.493 81.81 179.52C81.8587 179.504 81.9113 179.504 81.96 179.52H82.01C82.005 179.474 82.005 179.427 82.01 179.38C82.01 179.27 82.07 179.23 82.01 179.32C81.9517 179.373 81.888 179.42 81.82 179.46H81.72C81.6497 179.601 81.5928 179.748 81.55 179.9L81.31 180.58C80.8557 181.84 80.5012 183.134 80.25 184.45C80.0885 185.306 79.985 186.171 79.94 187.04C79.8859 188.042 79.9294 189.047 80.07 190.04C80.62 189.21 81.12 188.44 81.54 187.66C81.9507 186.928 82.3051 186.166 82.6 185.38C83.1218 184 83.4157 182.544 83.47 181.07C83.4896 180.737 83.4896 180.403 83.47 180.07C83.4401 179.708 83.3628 179.352 83.24 179.01C83.2062 178.905 83.1592 178.804 83.1 178.71C83.0428 178.596 82.9686 178.492 82.88 178.4C82.7995 178.309 82.7011 178.235 82.591 178.184C82.481 178.132 82.3615 178.104 82.24 178.1C82.0821 178.099 81.9279 178.148 81.8 178.24C81.7022 178.291 81.6169 178.363 81.55 178.45C81.3585 178.658 81.2061 178.898 81.1 179.16C81.0345 179.276 80.9777 179.396 80.93 179.52Z" fill="#77C38E"/>
<path d="M406.98 99.68H407.23C407.439 99.657 407.651 99.657 407.86 99.68C407.912 99.6644 407.968 99.6644 408.02 99.68H408.07C408.065 99.6335 408.065 99.5865 408.07 99.54C408.07 99.43 408.13 99.39 408.07 99.48C408.01 99.57 407.96 99.59 407.88 99.61H407.77C407.709 99.7537 407.655 99.9006 407.61 100.05L407.37 100.72C406.913 101.984 406.556 103.281 406.3 104.6C406.147 105.456 406.047 106.321 406 107.19C405.948 108.192 405.988 109.196 406.12 110.19C406.68 109.36 407.18 108.59 407.6 107.81C407.988 107.072 408.323 106.307 408.6 105.52C409.129 104.145 409.427 102.692 409.48 101.22C409.5 100.887 409.5 100.553 409.48 100.22C409.445 99.8589 409.368 99.5031 409.25 99.16C409.212 99.0529 409.165 98.9492 409.11 98.85C409.05 98.7409 408.976 98.64 408.89 98.55C408.808 98.4587 408.708 98.385 408.596 98.3334C408.484 98.2818 408.363 98.2535 408.24 98.25C408.086 98.25 407.935 98.299 407.81 98.39C407.712 98.4408 407.627 98.5125 407.56 98.6C407.363 98.8052 407.207 99.0461 407.1 99.31L406.98 99.68Z" fill="#77C38E"/>
<path d="M86.26 263.44C86.3791 264.319 86.6641 265.168 87.1 265.94C87.4996 266.632 88.0333 267.237 88.67 267.72C89.5469 268.295 90.5548 268.639 91.6 268.72C91.4111 267.551 90.9672 266.438 90.3 265.46C90.0422 265.091 89.7399 264.755 89.4 264.46C89.1216 264.225 88.8161 264.023 88.49 263.86C87.7975 263.523 87.0275 263.378 86.26 263.44Z" fill="#77C38E"/>
<path d="M248.11 0C248.11 0 248.11 0.120007 248.11 0.320007C248.11 0.520007 248.11 0.550008 248.11 0.680008C248.12 0.846538 248.12 1.01348 248.11 1.18001C248.11 1.92001 248 2.99001 248 4.31001C247.997 5.87373 248.117 7.43525 248.36 8.98001C248.69 10.986 249.192 12.9599 249.86 14.88C250.534 12.8898 250.872 10.8013 250.86 8.70001C250.86 7.06753 250.638 5.44263 250.2 3.87001C249.922 2.81459 249.494 1.80437 248.93 0.87001C248.836 0.723105 248.733 0.58278 248.62 0.450012C248.541 0.355798 248.458 0.265675 248.37 0.180008C248.289 0.112658 248.202 0.0524276 248.11 0Z" fill="#77C38E"/>
<path d="M102.27 130.66C102.27 130.66 102.32 131.59 102.51 133.27C102.61 134.12 102.74 135.15 102.95 136.33C103.16 137.51 103.39 138.89 103.74 140.33C103.91 141.07 104.1 141.85 104.3 142.66C104.5 143.47 104.75 144.31 105 145.18C105.25 146.05 105.53 146.94 105.84 147.85C106.15 148.76 106.5 149.69 106.84 150.65C107.18 151.61 107.61 152.57 108.04 153.55C108.47 154.53 108.92 155.55 109.44 156.55C109.96 157.55 110.44 158.55 111.06 159.55C111.68 160.55 112.28 161.55 112.92 162.55C112.6 161.35 112.26 160.18 111.92 159.05L110.92 155.72C110.59 154.65 110.3 153.59 109.99 152.56C109.68 151.53 109.38 150.56 109.08 149.56C108.78 148.56 108.5 147.66 108.2 146.76C107.9 145.86 107.63 144.98 107.35 144.14C107.07 143.3 106.8 142.5 106.53 141.72C106.26 140.94 106.01 140.21 105.76 139.51C105.24 138.12 104.76 136.85 104.36 135.76C103.96 134.67 103.56 133.76 103.24 132.98C102.67 131.47 102.27 130.66 102.27 130.66Z" fill="#77C38E"/>
<path d="M143.18 77.5498C143.099 77.8452 143.039 78.146 143 78.4498C143 78.7398 142.93 79.0898 142.91 79.4498C142.877 79.8925 142.877 80.3371 142.91 80.7798C142.972 81.3064 143.072 81.8278 143.21 82.3398C143.367 82.924 143.592 83.4879 143.88 84.0198C144.029 84.3129 144.196 84.5967 144.38 84.8698C144.561 85.1641 144.775 85.436 145.02 85.6798C145.518 86.2086 146.075 86.6784 146.68 87.0798C146.675 86.2862 146.612 85.4941 146.49 84.7098C146.43 84.3598 146.37 84.0398 146.32 83.7098C146.271 83.3996 146.204 83.0924 146.12 82.7898C145.98 82.2098 145.77 81.6998 145.6 81.1998C145.425 80.7487 145.218 80.3109 144.98 79.8898C144.75 79.5098 144.54 79.1498 144.32 78.8898C144.141 78.6293 143.944 78.382 143.73 78.1498C143.565 77.934 143.381 77.7332 143.18 77.5498Z" fill="#77C38E"/>
<path d="M229.44 194.4C229.232 194.486 229.037 194.6 228.86 194.74C228.649 194.889 228.461 195.067 228.3 195.27C228.084 195.527 227.899 195.809 227.75 196.11C227.369 196.858 227.157 197.681 227.13 198.52C227.121 199.022 227.155 199.524 227.23 200.02C227.317 200.628 227.447 201.23 227.62 201.82C228.49 201.13 229.145 200.208 229.51 199.16C229.769 198.398 229.877 197.593 229.83 196.79C229.83 196.45 229.77 196.14 229.73 195.87C229.69 195.6 229.63 195.34 229.58 195.11C229.53 194.69 229.44 194.4 229.44 194.4Z" fill="#77C38E"/>
<path d="M139.62 218.82C139.556 219.126 139.516 219.437 139.5 219.75C139.5 220.05 139.5 220.42 139.5 220.85C139.5 221.06 139.5 221.29 139.55 221.53C139.579 221.776 139.622 222.019 139.68 222.26C139.81 222.798 139.977 223.325 140.18 223.84C140.401 224.415 140.689 224.963 141.04 225.47C141.412 226.032 141.844 226.552 142.33 227.02C142.869 227.532 143.459 227.988 144.09 228.38C144.039 227.552 143.922 226.729 143.74 225.92C143.587 225.241 143.39 224.573 143.15 223.92C142.93 223.33 142.65 222.81 142.43 222.34C142.205 221.903 141.944 221.484 141.65 221.09C141.52 220.9 141.37 220.74 141.26 220.57C141.15 220.4 141.03 220.26 140.92 220.12C140.81 219.98 140.48 219.6 140.29 219.41C140.082 219.197 139.858 219 139.62 218.82Z" fill="#77C38E"/>
<path d="M434.87 150.82C436.08 149.932 437.148 148.867 438.04 147.66C439.072 146.327 439.96 144.889 440.69 143.37C441.659 141.341 442.39 139.207 442.87 137.01C441.248 138.381 439.818 139.966 438.62 141.72C437.664 143.115 436.856 144.606 436.21 146.17C435.582 147.662 435.133 149.223 434.87 150.82Z" fill="#77C38E"/>
<path d="M422.42 259.19C422.42 259.19 428.25 257.19 431.31 248.57C429.188 249.649 427.307 251.146 425.779 252.971C424.251 254.796 423.109 256.911 422.42 259.19Z" fill="#77C38E"/>
<path d="M306.81 359.04C306.591 359.315 306.387 359.602 306.2 359.9C306.02 360.18 305.81 360.54 305.6 360.9C305.39 361.26 305.17 361.81 304.94 362.34C304.697 362.927 304.49 363.528 304.32 364.14C304.22 364.47 304.15 364.83 304.04 365.14C303.93 365.45 303.86 365.86 303.79 366.25C303.72 366.64 303.64 367.04 303.59 367.46C303.59 367.67 303.54 367.88 303.52 368.11C303.5 368.34 303.46 368.53 303.42 368.76C303.301 369.756 303.244 370.758 303.25 371.76C303.892 371.084 304.471 370.351 304.98 369.57L305.34 369.01C305.44 368.81 305.54 368.62 305.63 368.42C305.81 368.03 305.97 367.65 306.12 367.27C306.27 366.89 306.4 366.51 306.52 366.14C306.628 365.782 306.715 365.418 306.78 365.05C306.911 364.389 307.005 363.721 307.06 363.05C307.094 362.497 307.094 361.943 307.06 361.39C307.06 360.9 307 360.47 306.96 360.11C306.928 359.751 306.878 359.394 306.81 359.04Z" fill="#77C38E"/>
<path d="M277.46 281.5C277.305 281.729 277.168 281.97 277.05 282.22C276.741 282.859 276.503 283.529 276.34 284.22C276.109 285.172 276.005 286.151 276.03 287.13C276.03 287.41 276.03 287.69 276.08 287.99C276.13 288.29 276.14 288.57 276.18 288.92C276.22 289.27 276.29 289.59 276.35 289.92C276.41 290.25 276.48 290.66 276.57 291.06C276.823 290.794 277.06 290.514 277.28 290.22C277.486 289.934 277.67 289.633 277.83 289.32C277.985 289.021 278.116 288.71 278.22 288.39C278.332 288.09 278.422 287.783 278.49 287.47C278.874 285.703 278.656 283.859 277.87 282.23C277.753 281.976 277.616 281.732 277.46 281.5Z" fill="#77C38E"/>
<path d="M305.92 107.29L306.07 107.46C306.132 107.512 306.183 107.577 306.22 107.65C306.273 107.74 306.319 107.834 306.36 107.93C306.404 108.043 306.437 108.16 306.46 108.28C306.46 108.44 306.52 108.54 306.54 108.71C306.56 108.88 306.62 109.36 306.66 109.77C306.7 110.18 306.75 110.64 306.83 111.13C306.91 111.62 307 112.18 307.13 112.77C307.481 114.169 307.98 115.527 308.62 116.82C309.296 115.421 309.638 113.884 309.62 112.33C309.61 111.656 309.526 110.985 309.37 110.33C309.224 109.758 309.006 109.207 308.72 108.69C308.487 108.247 308.175 107.851 307.8 107.52C307.642 107.384 307.471 107.263 307.29 107.16C307.134 107.095 306.974 107.041 306.81 107C306.677 106.984 306.543 106.984 306.41 107C306.317 107.013 306.228 107.047 306.15 107.1C306.066 107.153 305.988 107.217 305.92 107.29Z" fill="#77C38E"/>
<path d="M151.18 312.3C151.247 313.842 151.516 315.368 151.98 316.84C152.434 318.389 153.055 319.884 153.83 321.3C154.8 323.058 156.004 324.676 157.41 326.11C157.195 323.987 156.721 321.898 156 319.89C155.466 318.388 154.768 316.949 153.92 315.6C153.169 314.374 152.247 313.263 151.18 312.3Z" fill="#77C38E"/>
<path d="M297.91 10.6299C297.91 10.6299 297.57 11.3699 297.05 12.7499C296.8 13.4399 296.49 14.2999 296.16 15.2999C295.83 16.2999 295.49 17.4499 295.1 18.7299C294.179 21.8014 293.434 24.9232 292.87 28.0799C292.71 28.9899 292.55 29.9299 292.41 30.8999C292.343 31.3799 292.273 31.8699 292.2 32.3699C292.127 32.8699 292.077 33.3799 292.05 33.8999C291.87 35.9599 291.74 38.1299 291.69 40.3699C292.46 38.2999 293.12 36.2899 293.69 34.3699C293.83 33.8899 293.97 33.3699 294.1 32.9399C294.23 32.5099 294.38 31.9999 294.52 31.5399C294.79 30.6199 295.04 29.7199 295.26 28.8299C296.084 25.7254 296.752 22.5814 297.26 19.4099C297.48 18.0699 297.6 16.8299 297.7 15.7499C297.8 14.6699 297.86 13.7499 297.9 12.9899C297.93 11.4599 297.91 10.6299 297.91 10.6299Z" fill="#77C38E"/>
<path d="M151.62 19.1699C151.62 19.1699 152.06 19.8499 152.95 21.0299C153.4 21.6199 153.95 22.3299 154.62 23.1399C155.29 23.9499 156.08 24.8599 156.96 25.8799C159.063 28.3 161.303 30.5971 163.67 32.7599C164.35 33.3799 165.06 34.0199 165.8 34.6599L166.93 35.6599L168.15 36.5999C169.79 37.8599 171.55 39.1299 173.42 40.3699C172.08 38.6199 170.74 36.9799 169.42 35.4699C169.087 35.0899 168.753 34.7199 168.42 34.3599L167.42 33.2499C166.79 32.5299 166.16 31.8399 165.54 31.1799C163.04 28.5299 160.67 26.2699 158.62 24.4799C157.62 23.5799 156.62 22.8199 155.76 22.1599C154.9 21.4999 154.15 20.9499 153.53 20.5099C152.29 19.5999 151.62 19.1699 151.62 19.1699Z" fill="#77C38E"/>
<path d="M315.92 193.82C315.92 193.82 315.92 193.89 316 193.94C316.133 193.995 316.278 194.012 316.42 193.99C316.972 193.925 317.515 193.801 318.04 193.62C320.017 192.951 321.937 192.121 323.78 191.14C326.619 189.658 329.347 187.97 331.94 186.09C333.44 185.01 335 183.8 336.58 182.46C338.249 181.053 339.825 179.54 341.3 177.93C339.38 178.99 337.53 179.93 335.78 180.93C334.03 181.93 332.37 182.86 330.83 183.8C327.73 185.68 325.07 187.49 322.83 189.05C320.59 190.61 318.92 191.93 317.73 192.81C317.13 193.24 316.66 193.57 316.34 193.75C316.228 193.823 316.102 193.871 315.97 193.89C315.93 193.9 315.93 193.82 315.92 193.82Z" fill="#77C38E"/>
<path d="M431.31 127.82C431.31 127.845 431.317 127.868 431.329 127.889C431.341 127.911 431.359 127.928 431.38 127.94C431.513 127.993 431.658 128.01 431.8 127.99C432.351 127.92 432.893 127.796 433.42 127.62C435.398 126.953 437.318 126.123 439.16 125.14C442.001 123.656 444.732 121.968 447.33 120.09C448.83 119.01 450.33 117.8 451.96 116.46C453.632 115.053 455.212 113.54 456.69 111.93C454.77 112.99 452.91 113.93 451.16 114.93C449.41 115.93 447.76 116.86 446.21 117.8C443.12 119.68 440.45 121.49 438.21 123.05C435.97 124.61 434.3 125.93 433.11 126.81C432.663 127.147 432.199 127.461 431.72 127.75C431.609 127.825 431.483 127.873 431.35 127.89C431.31 127.9 431.31 127.82 431.31 127.82Z" fill="#77C38E"/>
<path d="M34.6799 286.82C34.7349 287.205 34.815 287.586 34.9199 287.96C35.0099 288.32 35.1399 288.75 35.3099 289.24C35.3899 289.48 35.4899 289.74 35.5999 290.01C35.7099 290.28 35.8199 290.56 35.9699 290.84C36.2697 291.438 36.6036 292.019 36.9699 292.58C37.3936 293.22 37.8756 293.819 38.4099 294.37C39.6279 295.643 41.0682 296.684 42.6599 297.44C42.339 296.474 41.9514 295.532 41.4999 294.62C41.1182 293.833 40.6874 293.072 40.2099 292.34C39.7599 291.67 39.3199 291.07 38.8999 290.53C38.4974 290.042 38.0666 289.578 37.6099 289.14L37.0299 288.57C36.8399 288.39 36.6599 288.23 36.4799 288.08C36.1299 287.78 35.8099 287.55 35.5399 287.36C35.2654 287.161 34.9781 286.981 34.6799 286.82Z" fill="#77C38E"/>
<path d="M255.23 63.7402C255.073 64.0649 254.936 64.3988 254.82 64.7402C254.71 65.0602 254.58 65.4402 254.46 65.9002C254.323 66.409 254.223 66.927 254.16 67.4502C254.073 68.0865 254.029 68.728 254.03 69.3702C254.01 69.7299 254.01 70.0905 254.03 70.4502C254.03 70.8302 254.12 71.2102 254.19 71.6102C254.26 72.0102 254.34 72.4102 254.44 72.8202C254.53 73.245 254.661 73.6603 254.83 74.0602C255.182 74.9166 255.603 75.7427 256.09 76.5302C256.285 75.6101 256.418 74.6781 256.49 73.7402C256.49 73.3202 256.56 72.9002 256.6 72.5002C256.64 72.1002 256.6 71.7102 256.6 71.3302C256.6 70.9502 256.6 70.5902 256.6 70.2402C256.6 69.8902 256.6 69.5402 256.6 69.2402C256.552 68.6264 256.472 68.0155 256.36 67.4102C256.24 66.8502 256.14 66.3402 256.01 65.9002C255.907 65.5138 255.784 65.1332 255.64 64.7602C255.525 64.412 255.388 64.0714 255.23 63.7402Z" fill="#77C38E"/>
<path d="M234.78 71.71C234.625 71.9392 234.488 72.1799 234.37 72.4299C234.06 73.0818 233.835 73.7708 233.7 74.4799C233.491 75.5364 233.491 76.6235 233.7 77.6799C233.769 77.9912 233.856 78.2984 233.96 78.5999C234.072 78.9187 234.206 79.2294 234.36 79.5299C234.523 79.8421 234.706 80.1428 234.91 80.4299C235.13 80.7237 235.367 81.0042 235.62 81.27C235.71 80.86 235.78 80.4899 235.84 80.1299C235.9 79.7699 235.97 79.4299 236.01 79.1299C236.05 78.8299 236.08 78.47 236.11 78.2C236.14 77.93 236.11 77.6199 236.16 77.3399C236.181 76.3607 236.077 75.3828 235.85 74.4299C235.687 73.7394 235.449 73.0687 235.14 72.4299C235.038 72.1814 234.918 71.9407 234.78 71.71Z" fill="#77C38E"/>
<path d="M140.51 379.23C140.429 379.436 140.359 379.646 140.3 379.86C140.168 380.349 140.104 380.854 140.11 381.36C140.112 381.7 140.166 382.037 140.27 382.36C140.324 382.542 140.395 382.72 140.48 382.89C140.571 383.075 140.681 383.249 140.81 383.41C140.943 383.579 141.091 383.736 141.25 383.88C141.42 384.016 141.604 384.134 141.8 384.23C142.23 384.44 142.701 384.553 143.18 384.56C143.181 384.022 143.151 383.485 143.09 382.95C143.09 382.73 143.04 382.53 143.01 382.35C142.986 382.178 142.949 382.007 142.9 381.84C142.9 381.7 142.82 381.54 142.77 381.41L142.59 381.03C142.455 380.788 142.302 380.557 142.13 380.34C141.832 379.978 141.465 379.679 141.05 379.46C140.882 379.358 140.7 379.281 140.51 379.23Z" fill="#77C38E"/>
<path d="M313.03 251.76C312.856 252.148 312.702 252.545 312.57 252.95C312.44 253.33 312.3 253.8 312.16 254.34C312.093 254.62 312.023 254.91 311.95 255.21C311.89 255.52 311.81 255.84 311.73 256.21C311.57 256.89 311.42 257.65 311.31 258.47C311.25 258.88 311.22 259.31 311.16 259.76C311.1 260.21 311.06 260.66 311.02 261.14C310.95 262.14 310.95 263.14 311.02 264.23C311.044 265.394 311.138 266.556 311.3 267.71C311.824 266.704 312.282 265.665 312.67 264.6C313.022 263.621 313.303 262.619 313.51 261.6C313.62 261.12 313.7 260.6 313.78 260.19C313.86 259.78 313.88 259.28 313.91 258.85C313.97 257.98 313.98 257.17 313.97 256.43C313.965 256.078 313.938 255.728 313.89 255.38C313.89 255.04 313.8 254.73 313.75 254.44C313.65 253.86 313.55 253.37 313.45 252.97C313.336 252.558 313.195 252.154 313.03 251.76Z" fill="#77C38E"/>
<path d="M33.7901 183.82C33.622 184.731 33.639 185.666 33.8401 186.57C33.9274 186.99 34.0512 187.401 34.2101 187.8C34.3848 188.231 34.6026 188.643 34.8601 189.03C35.5104 189.952 36.3619 190.715 37.3501 191.26C37.4863 190.012 37.3672 188.75 37.0001 187.55C36.8581 187.095 36.6704 186.657 36.4401 186.24C36.2452 185.902 36.0175 185.583 35.7601 185.29C35.2211 184.659 34.548 184.157 33.7901 183.82Z" fill="#77C38E"/>
<path d="M412.62 207.14C412.41 207.29 412.209 207.454 412.02 207.63L411.43 208.2C411.2 208.43 410.99 208.69 410.74 208.99C410.471 209.32 410.23 209.671 410.02 210.04C409.759 210.495 409.541 210.974 409.37 211.47C409.266 211.761 409.183 212.058 409.12 212.36C409.039 212.688 408.986 213.023 408.96 213.36C408.93 213.726 408.93 214.094 408.96 214.46C408.982 214.853 409.029 215.243 409.1 215.63L409.85 214.91C410.06 214.67 410.31 214.46 410.5 214.25L411.06 213.6C411.24 213.38 411.38 213.17 411.54 212.95C411.822 212.519 412.066 212.064 412.27 211.59C412.459 211.148 412.606 210.689 412.71 210.22C412.795 209.808 412.845 209.39 412.86 208.97C412.893 208.638 412.893 208.303 412.86 207.97C412.804 207.687 412.724 207.409 412.62 207.14Z" fill="#77C38E"/>
<path d="M376.17 295.31C376.595 295.259 377.016 295.179 377.43 295.07C377.918 294.946 378.396 294.786 378.86 294.59C379.489 294.337 380.097 294.036 380.68 293.69C381.01 293.49 381.36 293.3 381.68 293.05L382.74 292.25C383.118 291.936 383.478 291.603 383.82 291.25C384.18 290.89 384.55 290.52 384.91 290.11C385.27 289.7 385.61 289.24 385.96 288.77C386.331 288.286 386.665 287.774 386.96 287.24C387.3 286.685 387.6 286.107 387.86 285.51C388.127 284.89 388.377 284.25 388.61 283.59C388.09 283.977 387.6 284.357 387.14 284.73C386.7 285.13 386.21 285.45 385.78 285.81C385.35 286.17 384.93 286.53 384.51 286.81C384.09 287.09 383.7 287.47 383.33 287.81C382.96 288.15 382.58 288.44 382.23 288.76L381.23 289.69L380.31 290.58C380.03 290.89 379.74 291.15 379.47 291.42C378.95 291.97 378.47 292.49 378.07 292.93C377.67 293.37 377.32 293.81 377.07 294.13C376.47 294.87 376.17 295.31 376.17 295.31Z" fill="#77C38E"/>
<path d="M173.45 53.4302C172.51 57.6902 171.72 61.9802 170.95 66.2702C170.18 70.5602 169.44 74.8502 168.75 79.1602C167.363 87.7602 166.113 96.3769 165 105.01C162.71 122.27 160.91 139.58 159.46 156.92C158.01 174.26 156.96 191.61 156.37 208.99C155.78 226.37 155.31 243.75 155.5 261.14V267.66L155.6 274.18C155.68 278.52 155.69 282.87 155.83 287.18L156.25 300.18C156.34 304.53 156.66 308.86 156.81 313.18C157.11 321.87 157.71 330.55 158.22 339.18C158.47 343.52 158.89 347.85 159.22 352.18C159.55 356.51 159.79 360.86 160.22 365.18C163.22 399.85 167.62 434.41 172.95 468.92C164.832 434.919 158.767 400.46 154.79 365.73C150.771 330.962 148.678 295.999 148.52 261C148.36 225.996 150.209 191.012 154.06 156.22C155.993 138.834 158.52 121.53 161.64 104.31C163.25 95.7202 164.92 87.1402 166.88 78.6202C167.847 74.3602 168.867 70.1135 169.94 65.8802C171.04 61.8202 172.17 57.6002 173.45 53.4302Z" fill="#77C38E"/>
<path d="M277.56 59.2402C278.827 65.5869 279.967 71.9635 280.98 78.3702C281.98 84.7602 282.9 91.1802 283.8 97.6002C284.7 104.02 285.35 110.47 286.14 116.9C286.93 123.33 287.41 129.8 288.04 136.26C288.67 142.72 289.04 149.18 289.53 155.65C290.02 162.12 290.24 168.59 290.61 175.07C290.79 178.31 290.95 181.55 291 184.79L291.25 194.51L291.5 204.24C291.56 207.48 291.5 210.72 291.5 213.97V223.7C291.5 226.94 291.5 230.18 291.4 233.43L290.79 252.88L290.61 257.74L290.29 262.6L289.66 272.31L289.01 282.01C288.83 285.25 288.41 288.47 288.1 291.7L286.1 311.05C285.94 312.67 285.68 314.27 285.45 315.87L284.74 320.69L283.31 330.31L281.83 339.92C281.27 343.11 280.61 346.28 279.97 349.46C278.697 355.82 277.393 362.154 276.06 368.46C276.88 362.034 277.73 355.617 278.61 349.21C279.02 346 279.53 342.81 279.92 339.61L280.92 329.96C281.55 323.52 282.33 317.11 282.92 310.68L284.33 291.36C284.89 284.93 285.07 278.47 285.4 272.02L285.86 262.35L286.09 257.52L286.18 252.68L286.63 233.32C286.75 230.09 286.63 226.86 286.68 223.64V213.95C286.68 210.72 286.73 207.5 286.68 204.27L286.49 194.59C286.35 188.13 286.29 181.68 286.01 175.22C285.73 168.76 285.6 162.31 285.29 155.86L284.29 136.51L283.01 117.17C282.5 110.73 282.07 104.28 281.49 97.8402C280.35 84.9735 279.04 72.1069 277.56 59.2402Z" fill="#77C38E"/>
<path d="M442.88 153.5C443.278 159.357 443.191 165.237 442.62 171.08C441.015 188.747 436.114 205.958 428.17 221.82C425.455 227.083 422.405 232.167 419.04 237.04C418.19 238.25 417.27 239.42 416.4 240.61L415.06 242.38L413.62 244.12C412.62 245.25 411.75 246.42 410.77 247.52L407.77 250.76C406.77 251.86 405.69 252.86 404.63 253.89C403.57 254.92 402.55 255.99 401.4 256.89C399.15 258.8 396.95 260.76 394.57 262.49C389.89 266.038 384.931 269.202 379.74 271.95C389.176 265.185 397.805 257.36 405.46 248.63C412.985 239.914 419.419 230.313 424.62 220.04C427.261 214.915 429.598 209.639 431.62 204.24C433.7 198.87 435.42 193.35 436.97 187.78C438.52 182.21 439.74 176.54 440.74 170.78C441.764 165.063 442.478 159.294 442.88 153.5Z" fill="#77C38E"/>
<path d="M223.12 19.2202C220.8 30.7502 218.66 42.3102 216.81 53.9102C215.877 59.7102 214.967 65.5136 214.08 71.3202C213.29 77.1402 212.38 82.9402 211.61 88.7602L209.37 106.22L207.37 123.72C206.75 129.56 206.24 135.4 205.66 141.24C205.08 147.08 204.66 152.93 204.25 158.79C203.25 170.48 202.76 182.2 202.11 193.92C201.87 199.78 201.75 205.65 201.56 211.51L201.3 220.31V229.11L201.24 246.72L201.68 264.33C201.74 267.26 201.77 270.2 201.86 273.14L202.35 281.94L202.83 290.74L203.25 299.56L202.25 290.79L201.31 282.02L200.37 273.23C200.13 270.3 199.95 267.36 199.74 264.43L198.62 246.82C198.41 240.94 198.33 235.05 198.18 229.16L197.98 220.32L198.09 211.48C198.18 205.59 198.21 199.7 198.35 193.81C198.9 182.04 199.35 170.26 200.29 158.52C200.75 152.64 201.16 146.76 201.81 140.91L202.69 132.12C203.01 129.19 203.24 126.25 203.69 123.33L205.9 105.82C206.73 99.9902 207.64 94.1702 208.53 88.3502C212.156 65.063 217.026 41.9866 223.12 19.2202Z" fill="#77C38E"/>
<path d="M262.62 242.88C264.28 265.27 264.93 287.71 265.13 310.16C265.13 315.77 265.25 321.38 265.13 326.99C265.01 332.6 265.07 338.22 264.96 343.83L264.54 360.67L263.91 377.5C262.78 399.93 261.37 422.37 258.6 444.68C258.02 450.27 257.21 455.83 256.4 461.39C255.59 466.95 254.83 472.52 253.75 478.04L252.21 486.33C251.66 489.08 251.21 491.86 250.54 494.59C249.26 500.077 247.953 505.533 246.62 510.96C250.38 488.82 252.76 466.57 254.74 444.28L256.09 427.56L257.17 410.82C257.58 405.25 257.82 399.65 258.17 394.07C258.52 388.49 258.79 382.89 258.98 377.3L259.73 360.52L260.3 343.73C260.69 332.54 260.97 321.35 261.3 310.15C261.787 287.737 262.227 265.313 262.62 242.88Z" fill="#77C38E"/>
<path d="M180.75 277.09C181.9 295.09 182.84 313.09 183.75 331.09L185.15 358.04L185.82 371.52L186.59 384.98C186.79 389.48 187.09 393.98 187.33 398.45C187.57 402.92 187.86 407.45 188.15 411.91L188.97 425.37C189.31 429.85 189.617 434.337 189.89 438.83C191.19 456.76 192.63 474.68 194.42 492.63C190.71 474.967 187.899 457.128 186 439.18C185.51 434.7 185 430.18 184.6 425.72L183.43 412.25C183.03 407.75 182.75 403.25 182.43 398.76C182.11 394.27 181.8 389.76 181.57 385.26L180.92 371.75C180.74 367.25 180.54 362.75 180.4 358.24C180.26 353.73 180.16 349.24 180.05 344.73L179.9 337.97L179.83 331.21C179.69 313.14 179.83 295.1 180.75 277.09Z" fill="#77C38E"/>
<path d="M236.21 237.94C236.21 237.94 238.43 289.06 227.13 381.88L236.21 237.94Z" fill="#77C38E"/>
<path d="M236.21 237.94C236.74 243.94 236.94 249.94 237.08 255.99C237.22 262.04 237.2 268.04 237.08 274.06C236.96 280.08 236.78 286.06 236.53 292.12C236.43 295.12 236.23 298.12 236.06 301.12C235.89 304.12 235.73 307.12 235.51 310.12C234.67 322.12 233.56 334.12 232.18 346.12C231.52 352.12 230.69 358.12 229.9 364.04C229.11 369.96 228.12 375.95 227.1 381.88C227.46 375.88 227.97 369.88 228.44 363.88L229.85 345.88C230.27 339.88 230.85 333.88 231.22 327.88L231.91 318.88L232.52 309.88C232.96 303.88 233.353 297.88 233.7 291.88C234.11 285.88 234.39 279.88 234.7 273.88C235.37 261.98 235.95 249.98 236.21 237.94Z" fill="#77C38E"/>
<path d="M219.13 517.6C216.72 505.32 214.9 492.97 213.31 480.6C211.72 468.23 210.39 455.81 209.31 443.38C208.23 430.95 207.45 418.48 207.09 405.99C206.575 393.493 206.755 380.977 207.63 368.5L210.99 405.75C212.13 418.15 213.23 430.553 214.29 442.96C215.29 455.37 216.29 467.78 217.14 480.22C217.99 492.66 218.78 505.1 219.13 517.6Z" fill="#77C38E"/>
<path d="M17.6999 194.4C18.0908 200.591 18.8152 206.757 19.8699 212.87C20.8699 218.98 22.1999 225.03 23.7599 231.01C25.3199 236.99 27.1699 242.87 29.3499 248.64C29.9199 250.07 30.4199 251.53 31.0099 252.95L32.7899 257.21C34.0699 260.01 35.3299 262.82 36.7899 265.53C39.5469 271.031 42.688 276.331 46.1899 281.39C49.638 286.476 53.4585 291.299 57.6199 295.82L59.1699 297.53L60.7999 299.16L64.0899 302.42C66.4099 304.42 68.6199 306.61 71.0899 308.42C75.9104 312.324 80.9812 315.908 86.2699 319.15C80.6487 316.431 75.2722 313.232 70.1999 309.59C68.9199 308.7 67.6399 307.79 66.4399 306.78L62.7899 303.83C61.5999 302.83 60.4699 301.72 59.3099 300.67L57.5799 299.07L55.9399 297.38C47.1353 288.384 39.7719 278.082 34.1099 266.84C28.4503 255.631 24.2142 243.759 21.4999 231.5C20.1231 225.401 19.098 219.227 18.4299 213.01C17.7301 206.833 17.4861 200.613 17.6999 194.4Z" fill="#77C38E"/>
<path d="M192.19 177.08C192.767 180.326 192.572 183.663 191.62 186.82C190.613 190.085 188.907 193.091 186.62 195.63C184.309 198.231 181.469 200.307 178.29 201.72C175.081 203.154 171.605 203.896 168.09 203.896C164.575 203.896 161.099 203.154 157.89 201.72C154.714 200.306 151.875 198.233 149.56 195.64C147.296 193.091 145.611 190.082 144.62 186.82C143.664 183.672 143.455 180.343 144.01 177.1C145.018 183.104 148.057 188.58 152.62 192.61C156.914 196.378 162.432 198.455 168.145 198.455C173.858 198.455 179.376 196.378 183.67 192.61C188.203 188.56 191.21 183.079 192.19 177.08Z" fill="#231F20"/>
<path d="M294.8 177.08C295.364 180.322 295.159 183.652 294.2 186.8C293.208 190.058 291.522 193.064 289.26 195.61C286.944 198.209 284.101 200.285 280.92 201.7C277.712 203.133 274.238 203.873 270.725 203.873C267.212 203.873 263.738 203.133 260.53 201.7C257.35 200.288 254.507 198.216 252.19 195.62C249.928 193.074 248.242 190.068 247.25 186.81C246.294 183.661 246.085 180.333 246.64 177.09C247.631 183.094 250.652 188.576 255.2 192.62C259.49 196.376 264.998 198.447 270.7 198.447C276.402 198.447 281.91 196.376 286.2 192.62C290.764 188.58 293.801 183.093 294.8 177.08Z" fill="#231F20"/>
<path d="M149.97 162.51C149.97 162.51 166.86 144.42 189.17 159.51" stroke="#231F20" stroke-width="3.54" stroke-miterlimit="10" stroke-linecap="round"/>
<path d="M288.86 162.51C288.86 162.51 271.98 144.42 249.66 159.51" stroke="#231F20" stroke-width="3.54" stroke-miterlimit="10" stroke-linecap="round"/>
<path d="M246.55 213.4C246.55 213.4 248.46 251.11 216.18 251.11C183.9 251.11 188.52 213.4 188.52 213.4H246.55Z" fill="#231F20"/>
<path d="M193.86 240.16C197.86 246.32 204.68 251.16 216.18 251.16C228.24 251.16 235.53 245.89 239.92 239.3C235.06 234.23 226.75 230.88 217.3 230.88C207.3 230.82 198.62 234.59 193.86 240.16Z" fill="#F16B6C"/>
</g>
<defs>
<clipPath id="clip0_4572_48503">
<rect width="457.35" height="809.76" fill="white"/>
</clipPath>
</defs>
</svg>
