<svg width="416" height="570" viewBox="0 0 416 570" fill="none" xmlns="http://www.w3.org/2000/svg">
<g clip-path="url(#clip0_4865_318)">
<path d="M203.82 569.82C316.387 569.82 407.64 547.702 407.64 520.42C407.64 493.137 316.387 471.02 203.82 471.02C91.2533 471.02 0 493.137 0 520.42C0 547.702 91.2533 569.82 203.82 569.82Z" fill="#A7A9AC"/>
<path d="M408.73 86.6792C406.632 85.2466 404.205 84.3702 401.676 84.1323C399.146 83.8945 396.598 84.3028 394.27 85.3191C356.657 101.752 324.053 120.789 296.46 142.429C296.8 141.699 297.13 140.959 297.46 140.229L298.18 138.619C298.64 137.619 299.07 136.619 299.51 135.559L300.02 134.369C300.6 132.959 301.18 131.549 301.73 130.149C301.83 129.879 302.16 129.039 302.16 129.039C302.56 128.039 302.97 126.949 303.36 125.899L303.95 124.259C304.27 123.399 304.58 122.529 304.88 121.659C305.06 121.159 305.49 119.889 305.49 119.889C305.77 119.059 306.05 118.239 306.32 117.419C306.52 116.819 306.72 116.209 306.91 115.609C306.91 115.609 307.23 114.609 307.31 114.369C307.39 114.129 307.42 114.009 307.47 113.829C323.47 62.6991 320.2 15.8291 320.05 13.8891C319.859 11.3609 319.03 8.92226 317.641 6.80119C316.252 4.68012 314.348 2.94581 312.106 1.76027C309.865 0.57472 307.36 -0.0233493 304.825 0.0219231C302.29 0.0671954 299.807 0.754333 297.61 2.01915C259.56 24.0991 230.81 50.0691 211.8 79.4491C200.58 62.6691 185.8 46.5891 167.53 31.4491C164.839 29.2034 161.445 27.9752 157.94 27.9791C156.35 27.9757 154.77 28.229 153.26 28.7291C150.846 29.5222 148.673 30.9155 146.945 32.7783C145.217 34.6411 143.99 36.9124 143.38 39.3791C143.1 40.5191 138.22 60.6591 137.87 88.2891C114.596 65.155 88.9817 44.5009 61.44 26.6592C59.2498 25.2256 56.7227 24.3902 54.1096 24.2359C51.4965 24.0815 48.8886 24.6137 46.5449 25.7795C44.2012 26.9452 42.2034 28.704 40.75 30.8811C39.2965 33.0581 38.4381 35.5776 38.26 38.1892C38.02 41.6492 32.82 123.919 57.89 213.819C58.48 215.939 59.1 218.069 59.73 220.219L59.95 220.979C60.55 222.979 61.18 225.059 61.81 227.099L62.12 228.099C62.7867 230.139 63.4534 232.172 64.12 234.199L64.42 235.109C65.12 237.209 65.83 239.309 66.56 241.389L66.71 241.799C67.44 243.909 68.2 246.019 68.97 248.099L69.15 248.599C69.92 250.679 70.72 252.769 71.52 254.839L71.89 255.789C72.6834 257.789 73.4934 259.809 74.32 261.849L74.74 262.849C75.59 264.849 76.44 266.919 77.33 268.959L77.67 269.729C78.59 271.849 79.5334 273.962 80.5 276.069C81.41 278.069 82.39 280.129 83.5 282.409L83.86 283.159C84.84 285.159 85.84 287.159 86.86 289.159L87.37 290.159C88.37 292.159 89.42 294.099 90.47 296.049L90.99 297.049C92.16 299.189 93.25 301.149 94.32 303.049L94.64 303.599C95.8067 305.652 96.9867 307.652 98.18 309.599L98.36 309.899C99.49 311.779 100.69 313.709 102.03 315.829L102.59 316.719C103.78 318.569 105.02 320.469 106.3 322.369L106.97 323.369C108.27 325.289 109.57 327.169 110.84 328.969L111.43 329.789C112.93 331.879 114.3 333.789 115.62 335.509L115.81 335.759C117.17 337.559 118.63 339.439 120.15 341.349L120.64 341.979C122.03 343.709 123.47 345.469 125.07 347.359L125.83 348.269C127.3 349.999 128.83 351.739 130.35 353.449L131.16 354.349C132.84 356.209 134.4 357.899 135.93 359.509L136.52 360.109C138.28 361.949 139.94 363.639 141.52 365.249L141.73 365.459C143.34 367.039 145.06 368.699 147.02 370.519L147.79 371.239C149.44 372.759 151.21 374.339 153.05 375.949L154.05 376.789C155.88 378.369 157.7 379.899 159.48 381.339L160.39 382.079C162.45 383.739 164.39 385.229 166.19 386.629L166.64 386.959C168.56 388.409 170.56 389.879 172.58 391.309L173.18 391.739C174.39 392.589 175.64 393.449 176.96 394.339V503.549C176.96 507.527 178.54 511.343 181.353 514.156C184.166 516.969 187.982 518.549 191.96 518.549H226.36C230.338 518.549 234.154 516.969 236.967 514.156C239.78 511.343 241.36 507.527 241.36 503.549V399.549L244.21 398.219L244.85 397.899C247.01 396.899 249.15 395.809 251.2 394.749L251.69 394.499C253.69 393.499 255.69 392.389 257.92 391.159L258.92 390.609C260.84 389.539 262.81 388.399 264.8 387.209L265.8 386.579C267.8 385.389 269.7 384.189 271.51 383.029L272.37 382.469C274.49 381.099 276.37 379.829 278.15 378.609L278.36 378.459C280.16 377.219 281.98 375.919 283.93 374.459L284.61 374.019C286.31 372.759 288.04 371.449 289.89 370.019L290.79 369.319C292.48 367.989 294.17 366.619 295.79 365.259L296.67 364.529C298.45 363.039 300.07 361.649 301.67 360.259L302.21 359.769C303.95 358.229 305.56 356.769 307.11 355.319L307.32 355.119C308.83 353.709 310.4 352.199 312.12 350.509L312.78 349.859C314.22 348.429 315.72 346.909 317.23 345.339L318 344.529C319.47 342.999 320.91 341.449 322.28 339.949L322.94 339.219C324.5 337.489 325.94 335.909 327.21 334.389L327.47 334.079C328.82 332.499 330.21 330.859 331.6 329.159L331.98 328.709C333.24 327.169 334.52 325.559 335.9 323.799L336.53 322.989C337.79 321.369 339.023 319.746 340.23 318.119L340.86 317.259C342.09 315.609 343.29 313.949 344.48 312.259L344.91 311.639C347.34 308.179 349.75 304.639 352.07 301.009L352.5 300.349C353.587 298.649 354.657 296.943 355.71 295.229L356.24 294.369C357.24 292.669 358.24 290.969 359.3 289.249L359.76 288.459C360.78 286.699 361.78 284.936 362.76 283.169L362.97 282.789C363.97 281.003 364.95 279.212 365.91 277.419L366.08 277.089C367.027 275.309 367.96 273.522 368.88 271.729L369.27 270.969C370.15 269.236 371.013 267.506 371.86 265.779L372.27 264.919C373.117 263.179 373.95 261.436 374.77 259.689L375.07 259.039C375.917 257.219 376.75 255.396 377.57 253.569C411.9 176.569 415.17 102.799 415.29 99.6991C415.394 97.1502 414.846 94.6168 413.698 92.3385C412.55 90.0603 410.84 88.1124 408.73 86.6792Z" fill="#231F20"/>
<path d="M226.31 154.898H191.92V503.548H226.31V154.898Z" fill="#66BE64"/>
<path d="M400.27 99.0684C153.87 206.678 209.12 396.018 209.12 396.018C209.12 396.018 300.81 181.088 400.27 99.0684Z" fill="#66BE64"/>
<path d="M209.12 396.018C390.9 336.918 400.27 99.0684 400.27 99.0684C300.81 181.088 209.12 396.018 209.12 396.018Z" fill="#4CA84E"/>
<g style="mix-blend-mode:multiply">
<path d="M363.84 247.42C293.73 317.51 237.02 320.1 206.64 313.83C199.09 361.63 209.12 396.02 209.12 396.02C290.11 369.69 336.88 307.87 363.84 247.42Z" fill="#4CA84E"/>
</g>
<path d="M305.1 15.0195C159.53 99.5095 207.39 213.33 207.39 213.33C207.39 213.33 249.09 73.0995 305.1 15.0195Z" fill="#66BE64"/>
<path d="M207.39 213.31C316.23 163.59 305.1 15.0195 305.1 15.0195C249.09 73.0995 207.39 213.31 207.39 213.31Z" fill="#4CA84E"/>
<g style="mix-blend-mode:multiply">
<path d="M293.02 109.859C254.41 158.449 219.32 164.099 200.02 162.369C198.73 192.629 207.42 213.309 207.42 213.309C255.88 191.159 280.61 149.379 293.02 109.859Z" fill="#4CA84E"/>
</g>
<path d="M157.9 42.959C262.37 129.859 208.9 213.959 208.9 213.959C208.9 213.959 194.61 96.769 157.9 42.959Z" fill="#66BE64"/>
<path d="M208.91 214.02C128.98 159.75 157.91 43.0195 157.91 43.0195C194.61 96.7695 208.91 214.02 208.91 214.02Z" fill="#4CA84E"/>
<g style="mix-blend-mode:multiply">
<path d="M154.71 120.09C178.88 163.98 206.05 173.22 221.71 174.45C218.61 198.71 208.91 214.02 208.91 214.02C173.3 189.82 159.29 153.23 154.71 120.09Z" fill="#4CA84E"/>
</g>
<path d="M53.1801 39.1797C285.61 191.44 208.9 396.02 208.9 396.02C208.9 396.02 142.54 143.79 53.1801 39.1797Z" fill="#66BE64"/>
<path d="M208.9 396.02C35.13 306.38 53.1801 39.1797 53.1801 39.1797C142.54 143.79 208.9 396.02 208.9 396.02Z" fill="#4CA84E"/>
<g style="mix-blend-mode:multiply">
<path d="M72.3101 209.799C133.88 297.259 189.92 307.509 220.82 304.429C222.82 358.859 208.9 396.019 208.9 396.019C131.48 356.079 92.1301 280.899 72.3101 209.799Z" fill="#4CA84E"/>
</g>
<path d="M167.326 181.394C173.964 177.188 174.409 165.987 168.32 156.377C162.231 146.767 151.913 142.386 145.274 146.593C138.635 150.799 138.19 162 144.28 171.61C150.369 181.22 160.687 185.601 167.326 181.394Z" fill="#F6FAFE"/>
<path d="M178.8 202.159C183.71 202.159 187.69 198.179 187.69 193.269C187.69 188.359 183.71 184.379 178.8 184.379C173.89 184.379 169.91 188.359 169.91 193.269C169.91 198.179 173.89 202.159 178.8 202.159Z" fill="#F6FAFE"/>
</g>
<defs>
<clipPath id="clip0_4865_318">
<rect width="415.27" height="569.82" fill="white"/>
</clipPath>
</defs>
</svg>
