<svg width="423" height="649" viewBox="0 0 423 649" fill="none" xmlns="http://www.w3.org/2000/svg">
<g clip-path="url(#clip0_4906_1445)">
<path d="M219.12 648.409C331.687 648.409 422.94 626.292 422.94 599.009C422.94 571.727 331.687 549.609 219.12 549.609C106.554 549.609 15.3003 571.727 15.3003 599.009C15.3003 626.292 106.554 648.409 219.12 648.409Z" fill="#A7A9AC"/>
<path d="M160.37 616.55C144.795 616.576 129.678 611.284 117.52 601.55C116.04 600.37 114.6 599.11 113.23 597.81C111.86 596.51 110.52 595.14 109.23 593.74C107.94 592.34 106.74 590.83 105.6 589.32C104.46 587.81 103.36 586.21 102.34 584.6C101.32 582.99 100.34 581.28 99.4702 579.6C96.7652 574.354 94.7486 568.782 93.4702 563.02L61.2702 418.72H58.4802C49.9982 418.704 41.868 415.328 35.8703 409.33C29.8726 403.332 26.4961 395.202 26.4802 386.72V316.39C26.4961 307.908 29.8726 299.778 35.8703 293.78C41.868 287.782 49.9982 284.406 58.4802 284.39H179.04V217.91C139.33 216.46 88.0402 206.38 50.0402 169.97C13.3102 134.79 -3.32979 82.41 0.540209 14.27C0.750994 10.569 2.32479 7.0771 4.95802 4.46786C7.59126 1.85863 11.0974 0.316897 14.8002 0.140015C15.0902 0.140015 17.7102 0 22.2602 0C56.8302 0 173.46 6.48001 222.68 89.82C226.422 96.1787 229.678 102.811 232.42 109.66L232.54 109.95C232.88 110.82 233.23 111.71 233.54 112.61L233.74 113.14C234.07 114.01 234.38 114.88 234.69 115.75L234.9 116.36C235.2 117.25 235.5 118.12 235.78 118.99L235.99 119.63C236.28 120.53 236.56 121.42 236.83 122.32L236.97 122.82C238.17 126.82 239.22 130.99 240.12 135.18L240.28 135.94C240.45 136.76 240.61 137.57 240.77 138.39L241.01 139.66C241.15 140.41 241.28 141.18 241.41 141.95C241.5 142.43 241.58 142.95 241.66 143.41C241.78 144.16 241.9 144.9 242.01 145.64C242.08 146.17 242.16 146.7 242.24 147.23C242.34 147.97 242.44 148.69 242.53 149.42L242.74 151.13C242.82 151.87 242.91 152.57 242.98 153.29C243.04 153.82 243.09 154.35 243.14 154.88L243.2 155.46C243.2 156.04 243.31 156.62 243.36 157.21C243.41 157.8 243.44 158.29 243.48 158.83L243.55 159.75C243.55 160.24 243.63 160.75 243.66 161.22C243.74 162.51 243.81 163.81 243.87 165.13C243.87 165.5 243.93 166.75 243.93 166.75V166.91C243.93 167.69 243.99 168.47 244.01 169.26C244.01 169.66 244.01 170.08 244.01 170.5C244.01 170.92 244.06 171.25 244.06 171.63V284.37H365.06C373.543 284.383 381.675 287.759 387.673 293.757C393.671 299.755 397.047 307.887 397.06 316.37V386.68C397.047 395.163 393.671 403.295 387.673 409.293C381.675 415.291 373.543 418.667 365.06 418.68H362.34L330.12 562.91C326.946 577.172 319.289 590.044 308.27 599.64C307.56 600.26 306.84 600.86 306.1 601.45C302.391 604.419 298.387 606.999 294.15 609.15C293.29 609.58 292.43 609.99 291.56 610.39C289.83 611.18 288.03 611.9 286.24 612.54C285.34 612.86 284.42 613.17 283.5 613.45C281.67 614.02 279.78 614.52 277.9 614.93C276.9 615.14 275.99 615.33 275.03 615.5C273.1 615.83 271.14 616.09 269.19 616.26C267.24 616.43 265.19 616.51 263.19 616.51L160.37 616.55Z" fill="#231F20"/>
<path d="M229.11 171.66H194.04V384.34H229.11V171.66Z" fill="#66BE64"/>
<path d="M15.54 15.1207L227.54 200.371C250.36 4.01067 15.54 15.1207 15.54 15.1207Z" fill="#66BE64"/>
<path d="M15.5403 15.1191C2.74026 240.169 227.54 200.369 227.54 200.369L15.5403 15.1191Z" fill="#4CA84E"/>
<g style="mix-blend-mode:multiply">
<path d="M227.54 200.369C232.64 156.529 224.88 123.039 209.77 97.4492C161.5 169.769 60.3701 159.099 60.3701 159.099C122.79 218.909 227.54 200.369 227.54 200.369Z" fill="#4CA84E"/>
</g>
<path d="M166.322 88.4351C171.44 83.0665 167.396 70.9047 157.291 61.2712C147.185 51.6376 134.844 48.1801 129.726 53.5488C124.608 58.9174 128.652 71.0791 138.757 80.7127C148.863 90.3463 161.204 93.8037 166.322 88.4351Z" fill="white"/>
<path d="M116.4 61.2598C120.128 61.2598 123.15 58.2377 123.15 54.5098C123.15 50.7818 120.128 47.7598 116.4 47.7598C112.672 47.7598 109.65 50.7818 109.65 54.5098C109.65 58.2377 112.672 61.2598 116.4 61.2598Z" fill="white"/>
<path d="M263.23 601.551H160.37C148.199 601.55 136.391 597.402 126.893 589.791C117.394 582.18 110.773 571.56 108.12 559.681L61.6401 351.551H361.97L315.48 559.681C312.829 571.56 306.208 582.182 296.71 589.793C287.211 597.405 275.402 601.552 263.23 601.551Z" fill="#293995"/>
<path d="M316.86 351.551L270.37 559.681C267.719 571.56 261.098 582.182 251.599 589.793C242.101 597.405 230.292 601.552 218.12 601.551H263.23C275.411 601.562 287.233 597.42 296.743 589.808C306.253 582.196 312.883 571.569 315.54 559.681L362.02 351.551H316.86Z" fill="#4A62AD"/>
<g style="mix-blend-mode:multiply" opacity="0.51">
<path d="M61.6401 351.551L78.1501 425.461H257.95C257.95 425.461 273.47 547.191 108.12 559.681C110.773 571.56 117.394 582.18 126.893 589.791C136.391 597.402 148.199 601.55 160.37 601.551H263.23C275.411 601.562 287.233 597.42 296.743 589.808C306.253 582.196 312.883 571.569 315.54 559.681L362.02 351.551H61.6401Z" fill="#2A2762"/>
</g>
<path d="M365.13 299.369H58.4902C49.0903 299.369 41.4702 306.989 41.4702 316.389V386.699C41.4702 396.099 49.0903 403.719 58.4902 403.719H365.13C374.53 403.719 382.15 396.099 382.15 386.699V316.389C382.15 306.989 374.53 299.369 365.13 299.369Z" fill="#293995"/>
<path d="M340.57 356.85C352.24 356.85 361.7 347.39 361.7 335.72C361.7 324.05 352.24 314.59 340.57 314.59C328.9 314.59 319.44 324.05 319.44 335.72C319.44 347.39 328.9 356.85 340.57 356.85Z" fill="white"/>
</g>
<defs>
<clipPath id="clip0_4906_1445">
<rect width="422.94" height="648.41" fill="white"/>
</clipPath>
</defs>
</svg>
