<svg width="897" height="1023" viewBox="0 0 897 1023" fill="none" xmlns="http://www.w3.org/2000/svg">
<g clip-path="url(#clip0_5022_953)">
<path d="M462.42 1022.36C633.402 1022.36 772.01 993.298 772.01 957.449C772.01 921.6 633.402 892.539 462.42 892.539C291.438 892.539 152.83 921.6 152.83 957.449C152.83 993.298 291.438 1022.36 462.42 1022.36Z" fill="#A7A9AC"/>
<path d="M863.86 388.201C858.569 385.1 852.912 382.671 847.02 380.971C847.72 366.321 844.67 353.391 837.91 342.351C839.69 329.901 838.41 315.961 834.06 300.801C833.407 298.524 832.224 296.435 830.608 294.703C828.992 292.971 826.989 291.647 824.763 290.839C822.537 290.03 820.151 289.76 817.801 290.05C815.45 290.341 813.202 291.184 811.24 292.511C804.022 297.646 797.501 303.697 791.84 310.511C785.69 308.802 779.423 307.549 773.09 306.761C766.7 295.621 755.46 287.471 746.59 282.371C749.65 266.941 747.65 254.191 740.59 244.371C733.37 234.281 721.22 228.221 706.01 227.021C693.85 178.761 665.73 168.181 649.01 166.361C647.8 150.721 642.52 137.361 633.22 126.441C621.04 112.171 604.71 105.871 593.67 103.121C592.349 97.8963 590.5 92.82 588.15 87.9707C597.01 72.0607 603.75 47.4407 596.42 11.9707C595.906 9.48172 594.768 7.16416 593.113 5.23553C591.458 3.3069 589.339 1.83045 586.957 0.944754C584.575 0.0590592 582.007 -0.206835 579.494 0.172028C576.981 0.55089 574.605 1.56208 572.59 3.1107C567.062 7.55051 561.902 12.4297 557.16 17.7007C554.855 13.7362 552.344 9.89434 549.64 6.1907C548.253 4.26957 546.431 2.70432 544.322 1.62318C542.214 0.542032 539.879 -0.0242554 537.51 -0.0292969H536.51C533.958 0.150789 531.495 0.980353 529.355 2.38056C527.214 3.78077 525.467 5.70511 524.28 7.9707C521.321 13.8215 518.866 19.9135 516.94 26.1807C514.6 25.2507 512.22 24.3707 509.84 23.5507C508.75 23.1707 507.64 22.8107 506.53 22.4507C489.348 17.0267 471.428 14.301 453.41 14.3707C451.21 14.3707 448.97 14.3707 446.76 14.4907C411.9 15.7007 383 36.4907 363.18 74.4907C349.76 100.151 343.35 127.971 340.51 144.571C330.75 146.331 316.26 150.481 298.19 160.111C281.51 149.361 260.51 143.851 235.51 143.691H235.41C232.876 143.69 230.384 144.332 228.165 145.555C225.946 146.778 224.074 148.544 222.722 150.687C221.37 152.829 220.582 155.28 220.434 157.809C220.285 160.338 220.779 162.864 221.87 165.151C228.564 178.223 237.21 190.2 247.51 200.671C242.382 208.697 238.977 217.7 237.51 227.111C224.51 229.111 213.51 236.511 206.51 242.421C194.42 237.791 182.76 235.421 171.72 235.421C148.43 235.421 127.93 245.691 112.43 265.141C107.563 271.269 103.409 277.932 100.05 285.001C75.1099 289.621 58.6299 300.321 50.9999 316.901C42.0899 336.231 48.4199 357.181 54.2999 369.991C42.6999 381.151 36.8399 392.451 34.2999 402.841C28.5536 401.333 22.7095 400.227 16.8099 399.531C16.2092 399.459 15.6048 399.422 14.9999 399.421C12.6136 399.422 10.2622 399.993 8.14093 401.086C6.01964 402.179 4.1897 403.762 2.80308 405.704C1.41646 407.646 0.513189 409.891 0.168269 412.253C-0.176651 414.614 0.0467387 417.023 0.819888 419.281C4.4591 429.098 9.34945 438.405 15.3699 446.971C13.2432 448.151 11.0866 449.434 8.89989 450.821C7.23105 451.883 5.78872 453.264 4.65592 454.886C3.52312 456.507 2.72222 458.337 2.29933 460.269C1.87643 462.201 1.83989 464.198 2.19181 466.145C2.54374 468.091 3.27716 469.949 4.34989 471.611C9.51902 479.219 16.0934 485.769 23.7199 490.911C24.1416 500.998 26.2053 510.948 29.8299 520.371C29.1699 521.791 28.3799 523.371 27.4599 525.061L26.8399 526.211L25.6799 528.301L21.8599 535.051L20.5799 537.371L19.5099 539.471C19.1199 540.221 18.7599 540.951 18.4199 541.661C17.4732 543.712 16.7329 545.853 16.2099 548.051C16.0399 548.741 15.8799 549.461 15.7299 550.231C15.2771 552.543 14.9665 554.881 14.7999 557.231C14.7999 557.661 14.7999 558.081 14.7199 558.511C14.7199 559.321 14.6499 560.141 14.6399 561.011C14.6399 561.431 14.6399 561.851 14.6399 562.301C14.6399 563.171 14.6399 564.051 14.6999 564.931C14.6999 565.381 14.6999 565.821 14.7699 566.301C16.1799 588.691 28.1799 605.611 46.8699 611.551C52.2772 613.204 57.9057 614.02 63.5599 613.971H63.7799C64.5499 613.971 65.3099 613.971 66.0399 613.971L67.1899 613.911L68.2899 613.851L69.6899 613.721L70.4599 613.651L72.0299 613.451L72.6199 613.371L73.3099 613.261L74.7099 613.031L75.5099 612.871L75.9099 612.791L76.4299 612.681L76.7899 612.601L77.5999 612.411L77.8599 612.341L78.6499 612.141H78.8599L79.5899 611.931L79.8299 611.861L80.7099 611.601L81.0599 611.491L81.7999 611.241L82.7999 610.901L83.1599 610.771L83.7499 610.541L84.6499 610.191L85.6499 609.761L86.4899 609.391L87.7299 608.791L88.2499 608.531L89.0399 608.111L89.9599 607.601L90.7499 607.131L90.8399 607.081L91.4799 606.691L92.3799 606.111L93.1899 605.561L93.4399 605.391L93.9299 605.031C94.2099 604.831 94.4799 604.631 94.6799 604.471L95.0699 604.181L95.4499 603.881L96.1599 603.301L96.7299 602.821L96.9199 602.651C97.1499 602.461 97.3699 602.261 97.5899 602.061L98.3099 601.401L98.9299 600.791C99.1299 600.601 99.3299 600.401 99.4899 600.231L100.18 599.511L100.72 598.921C100.94 598.671 101.17 598.421 101.36 598.191L101.9 597.551L102.5 596.811L102.98 596.201C103.17 595.951 103.37 595.691 103.59 595.371C103.59 595.371 103.9 594.961 104.01 594.801L104.62 593.921L104.96 593.401L105.44 592.661L103.02 591.141V590.971L105.49 592.491L105.87 591.881L106.3 591.151L106.71 590.431C106.87 590.141 107.03 589.841 107.21 589.491L107.51 588.971L107.94 588.091L108.21 587.531C108.36 587.221 108.51 586.901 108.65 586.531L108.87 586.031C109.02 585.681 109.17 585.341 109.31 585.031L109.5 584.581L109.92 583.491L110.07 583.091C110.19 582.761 110.3 582.431 110.44 582.091L110.56 581.721C111.952 577.501 112.881 573.142 113.33 568.721C114.33 568.541 115.33 568.341 116.33 568.131C116.33 568.991 116.33 569.841 116.33 570.691C116.96 627.691 131.62 669.691 159.91 695.631C179.71 713.791 204.78 723.001 234.43 723.001C240.81 722.962 247.181 722.538 253.51 721.731C263.743 736.74 275.79 750.427 289.38 762.481C317.56 787.291 351.01 803.121 388.99 809.661C388.59 862.141 381.87 910.351 368.99 953.111C368.313 955.352 368.169 957.72 368.571 960.027C368.973 962.333 369.909 964.513 371.305 966.393C372.701 968.272 374.517 969.799 376.609 970.851C378.7 971.903 381.009 972.451 383.35 972.451H526.15C529.372 972.45 532.508 971.413 535.095 969.491C537.681 967.569 539.58 964.866 540.51 961.781C557.51 905.261 563.93 848.311 559.89 788.161C581.814 784.374 602.316 774.762 619.25 760.331C638.82 743.721 653.51 720.971 663.11 692.651C665.61 692.831 668.11 692.921 670.53 692.921C688.92 692.921 705.46 688.051 719.66 678.461C722.603 676.48 725.415 674.312 728.08 671.971C728.32 672.971 728.58 673.881 728.86 674.811C729.784 677.863 730.975 680.828 732.42 683.671C734.793 688.339 737.956 692.562 741.77 696.151C750.27 704.061 761.77 708.241 775.18 708.241H775.4C776.17 708.241 776.92 708.241 777.66 708.241L778.86 708.181L779.86 708.121L781.15 708.001L782.06 707.921L783.49 707.741L784.2 707.641L784.93 707.531L786.3 707.301L787.09 707.141L788.09 706.941L788.39 706.871L789.18 706.681L789.48 706.611L790.41 706.381H790.48L791.28 706.151H791.39L792.39 705.841L792.66 705.761L793.32 705.541L794.38 705.171L794.74 705.041L795.31 704.821L796.23 704.461L796.79 704.221L797.35 703.981L798.04 703.671L798.78 703.321L799.25 703.091L799.83 702.801L800.62 702.381L801.54 701.871L802.37 701.381L802.95 701.031L803.26 700.831L803.92 700.401L805.02 699.661L805.48 699.321L806.27 698.741L806.68 698.431L807.03 698.151C807.28 697.951 807.53 697.751 807.76 697.551L808.32 697.091L808.51 696.921L809.15 696.351L809.93 695.631L810.22 695.351L811.09 694.481C811.32 694.251 811.54 694.021 811.76 693.771C811.98 693.521 812.13 693.381 812.29 693.201L812.92 692.481C813.1 692.281 813.27 692.071 813.47 691.831C813.67 691.591 813.85 691.371 814.08 691.081L814.57 690.451C814.76 690.211 814.95 689.951 815.16 689.661L815.59 689.071C815.78 688.811 815.96 688.541 816.19 688.201L816.54 687.681L816.99 686.971L817.42 686.281L817.97 685.341L818.28 684.801L818.7 684.021L819.06 683.331C819.22 683.021 819.38 682.711 819.54 682.331L819.78 681.841C819.93 681.541 820.07 681.221 820.23 680.841C820.31 680.671 820.38 680.491 820.44 680.371C820.56 680.081 820.69 679.791 820.81 679.491L821.07 678.861L821.45 677.861L821.61 677.451C821.74 677.101 821.86 676.741 821.99 676.361L822.14 675.941C827.01 661.351 825.52 645.781 822.07 637.491C820.74 634.301 819.42 631.671 818.26 629.361C815.36 623.601 813.07 619.041 811.38 605.691C810.794 600.495 809.301 595.441 806.97 590.761C808.962 589.762 810.706 588.332 812.076 586.574C813.446 584.817 814.407 582.776 814.89 580.601C815.504 577.623 815.819 574.591 815.83 571.551C827.28 560.281 833.15 545.261 835.96 535.551C844.926 532.488 853.421 528.19 861.2 522.781C877.44 511.401 896.83 490.061 896.95 452.951C897.07 415.841 879.02 397.141 863.86 388.201ZM545.33 669.311C546.936 669.88 548.626 670.174 550.33 670.181C552.629 670.182 554.897 669.655 556.96 668.641C558.81 667.731 572.89 660.411 584.1 643.391C585.971 643.693 587.857 643.896 589.75 644.001C589.083 647.714 588.343 651.267 587.53 654.661C582.81 674.021 575.44 688.151 565.62 696.661C560.709 700.889 554.893 703.934 548.62 705.561C545.98 691.971 543.18 679.031 540.4 666.441C541.846 667.702 543.519 668.677 545.33 669.311ZM194.84 626.881C200.516 628.402 206.364 629.189 212.24 629.221C214.24 636.861 216.5 644.341 219.02 651.661C214.403 650.285 210.152 647.893 206.58 644.661C201.95 640.421 198.01 634.441 194.84 626.881ZM338.56 689.971C340.76 691.17 343.225 691.799 345.73 691.801C348.507 691.794 351.228 691.019 353.592 689.564C355.957 688.108 357.873 686.027 359.13 683.551C360.779 680.097 362.085 676.49 363.03 672.781L363.45 672.481L364.22 671.901L364.64 671.591L365.69 670.731C365.69 670.731 366.38 670.151 366.46 670.081L367.13 669.491L367.91 668.771L368.47 668.211L369.01 667.671L369.72 666.931C369.9 666.741 370.08 666.551 370.23 666.371L370.89 665.631L371.44 664.981L372.03 664.251L372.49 663.661L373.09 662.851L373.52 662.251C373.71 661.981 373.9 661.711 374.13 661.361L374.5 660.821L375.03 659.981L375.29 659.571C379.14 681.631 382.14 702.571 384.34 722.831C369.673 718.031 356.126 710.32 344.51 700.161C338.852 695.177 333.633 689.717 328.91 683.841C331.982 686.103 335.206 688.151 338.56 689.971Z" fill="#231F20"/>
<path d="M444.08 567.32C444.08 567.32 433.39 633.61 380.08 615.18C380.08 615.18 363.23 664.43 321.5 620.12C321.5 620.12 269.02 648.17 245.91 606.74C245.91 606.74 189.57 634.52 167.62 583.06C146.24 532.91 182.62 520.39 182.62 520.39C182.62 520.39 146.57 484.23 192.07 450.01C192.07 450.01 152.8 391.01 225.85 382.23C225.85 382.23 247.68 315.34 315.37 347.43C315.37 347.43 350.78 307.13 374.06 351.54C374.06 351.54 467.43 349.73 451.47 428.67C451.47 428.67 506.57 430.03 506.37 492.13C506.22 555.35 444.08 567.32 444.08 567.32Z" fill="#124C2D"/>
<path d="M622.17 343.11C622.17 343.11 689.26 340.26 681.92 396.17C681.92 396.17 733.55 402.79 698.53 452.57C698.53 452.57 736.53 498.34 700.62 529.31C700.62 529.31 739.16 578.91 693.16 610.76C648.34 641.76 628.75 608.62 628.75 608.62C628.75 608.62 600.57 651.21 557.9 613.51C557.9 613.51 508.03 663.84 484.72 594.05C484.72 594.05 414.81 586.12 432.64 513.35C432.64 513.35 386.03 486.77 424.86 455.04C424.86 455.04 404.31 363.94 484.86 363.7C484.86 363.7 475.12 309.45 535.99 297.17C597.95 284.66 622.17 343.11 622.17 343.11Z" fill="#124C2D"/>
<path d="M576.11 557.48C601.01 630.26 550.38 655.18 550.38 655.18C550.38 655.18 578.02 594.31 576.11 557.48Z" fill="#124C2D"/>
<path d="M550.38 655.18C527.73 605.41 576.11 557.48 576.11 557.48C578.02 594.31 550.38 655.18 550.38 655.18Z" fill="#124C2D"/>
<path d="M529.51 545.57C530.172 539.248 529.704 532.859 528.13 526.7C527.597 524.52 526.766 522.424 525.66 520.47L529.95 517.65C530.21 518.04 536.23 527.44 534.61 546.01L529.51 545.57Z" fill="#71BC71"/>
<path d="M533.08 540.359C533.08 540.359 546.74 539.429 549.25 559.259C551.94 580.569 556.55 584.319 560.96 594.939C565.37 605.559 565.75 644.839 528.09 644.939C490.43 645.039 491.59 603.939 496.29 594.019C500.45 585.229 509.29 573.019 511.61 561.819C513.93 550.619 521.24 538.409 533.08 540.359Z" fill="#3E3031"/>
<path d="M533.22 547.391C533.22 547.391 545.14 546.581 547.33 563.891C549.68 582.501 553.7 585.771 557.55 595.041C561.4 604.311 561.73 638.591 528.86 638.701C495.99 638.811 497 602.911 501.1 594.261C504.74 586.591 512.42 575.941 514.48 566.151C516.54 556.361 522.88 545.691 533.22 547.391Z" fill="#573F39"/>
<path d="M560.65 622.909C519.1 625.799 508.1 591.139 505.38 577.449C502.17 583.519 498.55 589.289 496.29 594.049C491.59 603.959 490.42 645.049 528.09 644.969C547.51 644.899 556.78 634.469 560.65 622.909Z" fill="#3E3031"/>
<path d="M552.36 636.37C504.2 642.21 501.23 599.06 501.62 584.24C499.62 587.78 497.68 591.11 496.29 594.05C491.59 603.96 490.42 645.05 528.09 644.97C539.19 644.97 546.99 641.48 552.36 636.37Z" fill="#2B1D1F"/>
<path d="M554.95 602.079C555.05 611.259 549.86 631.079 541.49 629.579C541.49 629.579 533.43 628.579 537.05 622.579C539.46 618.579 539.28 608.959 538.89 602.969C538.797 601.545 539.221 600.134 540.085 598.997C540.948 597.86 542.193 597.072 543.59 596.779L547.39 595.989C548.299 595.8 549.239 595.815 550.141 596.032C551.044 596.25 551.887 596.664 552.61 597.247C553.333 597.829 553.918 598.565 554.323 599.4C554.727 600.236 554.942 601.151 554.95 602.079Z" fill="#72625F"/>
<path d="M545.981 569.912C546.375 565.622 544.693 561.961 542.224 561.734C539.754 561.507 537.433 564.8 537.039 569.09C536.645 573.38 538.327 577.041 540.796 577.268C543.266 577.495 545.587 574.202 545.981 569.912Z" fill="#F6FAFE"/>
<path d="M535.97 562.07C537.307 562.07 538.39 560.987 538.39 559.651C538.39 558.314 537.307 557.23 535.97 557.23C534.634 557.23 533.55 558.314 533.55 559.651C533.55 560.987 534.634 562.07 535.97 562.07Z" fill="#F6FAFE"/>
<path d="M749.12 516.63L710.22 520.55C718.33 601.05 700.73 625.9 689.52 633.55C680.52 639.69 669.05 639.55 659.52 637.73C662.9 607.01 662.143 571.434 657.25 531L604.41 537.41C610.41 586.83 609.66 627.47 602.17 658.21C596.69 680.67 587.71 697.41 575.51 707.97C562.83 718.97 548.06 721.97 536.51 722.26C529.68 683.76 520.75 649.52 515.12 619.4C510.19 592.99 505.93 570.18 504.78 551.28C504.349 543.112 504.862 534.921 506.31 526.87C511.25 528.74 516.287 530.343 521.4 531.67C530.68 534.144 540.236 535.435 549.84 535.51C564.46 535.51 577.72 532.15 589.02 525.51C617.7 508.6 632.02 472.67 631.73 418.71L592.64 418.96C592.81 445.74 588.89 480.12 569.25 491.78C554.15 500.78 531.71 495.07 517.65 489.4C529.45 461.24 546.3 437.04 555.12 426.46L554.95 426.66L455.95 342.75C453.69 345.43 433.26 369.91 413.56 406.65C389.06 452.33 376.12 496.83 374.93 539.24C363.891 532.971 354.502 524.166 347.54 513.55C324.64 478.62 325.79 420.98 350.87 346.84L313.87 334.32C284.23 421.94 284.73 489.69 315.35 535.68C333.64 563.17 358.72 576.54 377.51 582.97C379.93 602.43 383.66 622.41 387.51 643.22C393.752 676.034 398.328 709.143 401.22 742.42C375.43 738.04 353.11 727.68 334.56 711.42C274.08 658.42 269.08 559.03 269.03 558.04L242.51 559.16L269.1 558.11L215.92 560.22C216.04 563.46 218.45 614.48 241.51 668.54C222.34 669.88 207.25 665.61 196.45 655.73C175.6 636.64 170.77 598.97 170.39 570.73C170.186 550.03 171.9 529.355 175.51 508.97L156.34 505.15L137.18 501.32C133.037 524.13 131.055 547.279 131.26 570.46C131.84 623.11 144.87 661.46 169.98 684.46C186.98 700.06 208.54 707.88 234.36 707.87C243.198 707.828 252.016 707.008 260.71 705.42C271.286 722.438 284.26 737.843 299.23 751.16C328.41 776.85 363.47 792.03 403.9 796.58C404.51 848.3 399.42 903.83 383.27 957.39H526.15C546.66 889.39 548.83 828.69 543.79 775C563.68 773.58 587.84 767.27 609.54 748.84C629.667 731.754 643.963 707.514 652.43 676.12C658.388 677.288 664.44 677.907 670.51 677.97C683.71 677.97 698.03 674.97 711.25 666.08C727.17 655.33 738.5 637.92 744.91 614.33C751.72 589.32 753.13 556.47 749.12 516.63Z" fill="#A86145"/>
<path d="M710.22 520.549C718.33 601.049 700.73 625.899 689.52 633.549C680.52 639.689 669.05 639.549 659.52 637.729C662.9 607.009 662.143 571.433 657.25 530.999L604.41 537.409C610.41 586.829 609.66 627.469 602.17 658.209C596.69 680.669 587.71 697.409 575.51 707.969C562.83 718.969 548.06 721.969 536.51 722.259C529.68 683.759 520.75 649.519 515.12 619.399C510.19 592.989 505.93 570.179 504.78 551.279C504.349 543.111 504.862 534.92 506.31 526.869C511.25 528.739 516.287 530.341 521.4 531.669C530.68 534.143 540.236 535.434 549.84 535.509C564.46 535.509 577.72 532.149 589.02 525.509C617.7 508.599 632.02 472.669 631.73 418.709L592.64 418.959C592.81 445.739 588.89 480.119 569.25 491.779C554.15 500.779 531.71 495.069 517.65 489.399C529.45 461.239 546.3 437.039 555.12 426.459L554.95 426.659L500.06 380.119C473.35 408.929 433.94 468.619 441.28 565.239C452.23 709.159 475.51 787.769 474.22 842.969C473.45 876.619 461.84 924.899 452.9 957.469H526.15C546.66 889.469 548.83 828.769 543.79 775.079C563.68 773.659 587.84 767.349 609.54 748.919C629.667 731.832 643.963 707.592 652.43 676.199C658.39 677.34 664.442 677.932 670.51 677.969C683.71 677.969 698.03 674.969 711.25 666.079C727.17 655.329 738.5 637.919 744.91 614.329C751.7 589.329 753.11 556.519 749.1 516.679L710.22 520.549Z" fill="#79412D"/>
<path d="M710.22 520.55C718.33 601.05 700.73 625.9 689.52 633.55C680.52 639.69 669.05 639.55 659.52 637.73C662.9 607.01 662.143 571.434 657.25 531L604.41 537.41C610.41 586.83 609.66 627.47 602.17 658.21C596.69 680.67 587.71 697.41 575.51 707.97C562.83 718.97 548.06 721.97 536.51 722.26C529.68 683.76 520.75 649.52 515.12 619.4C510.19 592.99 505.93 570.18 504.78 551.28C504.349 543.112 504.862 534.921 506.31 526.87C511.25 528.74 516.287 530.343 521.4 531.67C530.68 534.145 540.236 535.435 549.84 535.51C564.46 535.51 577.72 532.15 589.02 525.51C617.7 508.6 632.02 472.67 631.73 418.71L592.64 418.96C592.81 445.74 588.89 480.12 569.25 491.78C554.15 500.78 531.71 495.07 517.65 489.4C529.45 461.24 546.3 437.04 555.12 426.46L554.95 426.66L526.72 402.73C502.13 432.66 458.99 494.73 471.65 549.08C489.1 623.89 519.79 782.98 517.12 831.34C515.26 865.04 490.64 924.5 475.88 957.45H526.15C546.66 889.45 548.83 828.75 543.79 775.06C563.68 773.64 587.84 767.33 609.54 748.9C629.667 731.814 643.963 707.574 652.43 676.18C658.389 677.328 664.441 677.927 670.51 677.97C683.71 677.97 698.03 674.97 711.25 666.08C727.17 655.33 738.5 637.92 744.91 614.33C751.7 589.33 753.11 556.52 749.1 516.68L710.22 520.55Z" fill="#502314"/>
<path d="M242.97 559.14L215.97 560.22C216.09 563.46 218.5 614.48 241.56 668.54C222.39 669.88 207.3 665.61 196.5 655.73C175.65 636.64 170.82 598.97 170.44 570.73C170.22 550.031 171.917 529.356 175.51 508.97L156.34 505.15L137.18 501.32C133.037 524.13 131.055 547.279 131.26 570.46C131.84 623.11 144.87 661.46 169.98 684.46C186.98 700.06 208.54 707.88 234.36 707.87C243.198 707.828 252.016 707.008 260.71 705.42C271.286 722.438 284.26 737.843 299.23 751.16C328.41 776.85 363.47 792.03 403.9 796.58C403.9 796.58 380.46 792.58 309.47 727.22C268.97 689.97 250.96 615.85 242.97 559.14Z" fill="#79412D"/>
<path d="M242.97 559.15L242.51 559.17L242.97 559.15Z" fill="#79412D"/>
<path d="M351.99 503.361C351.99 503.361 340.16 576.711 281.19 556.361C281.19 556.361 262.54 610.851 216.38 561.821C216.38 561.821 158.31 592.821 132.74 547.021C132.74 547.021 70.4099 577.751 46.1299 520.821C22.4699 465.341 62.7699 451.481 62.7699 451.481C62.7699 451.481 22.8799 411.481 73.2299 373.611C73.2299 373.611 29.7799 308.371 110.59 298.611C110.59 298.611 134.74 224.611 209.59 260.111C209.59 260.111 248.77 215.511 274.52 264.651C274.52 264.651 377.83 262.651 360.17 349.981C360.17 349.981 421.17 351.491 420.91 420.201C420.73 490.121 351.99 503.361 351.99 503.361Z" fill="#63B446"/>
<path d="M823.39 523.459C823.39 523.459 813.39 585.739 763.27 568.459C763.27 568.459 747.43 614.729 708.27 573.099C708.27 573.099 658.96 599.449 637.27 560.529C637.27 560.529 584.34 586.619 563.72 538.279C543.63 491.159 577.85 479.399 577.85 479.399C577.85 479.399 543.98 445.399 586.73 413.269C586.73 413.269 549.83 357.869 618.46 349.599C618.46 349.599 638.97 286.749 702.57 316.899C702.57 316.899 735.84 279.029 757.71 320.759C757.71 320.759 845.43 319.059 830.44 393.219C830.44 393.219 882.21 394.499 882.02 452.849C881.77 512.209 823.39 523.459 823.39 523.459Z" fill="#63B446"/>
<path d="M765.183 496.608C785.946 492.206 797.857 465.429 791.788 436.799C785.718 408.17 763.966 388.53 743.203 392.932C722.44 397.334 710.529 424.111 716.599 452.74C722.669 481.369 744.421 501.009 765.183 496.608Z" fill="#9FCC3B"/>
<path d="M353.62 158.33C353.62 158.33 366.45 32.2497 447.28 29.4297C528.11 26.6097 578.84 79.9097 580.6 115.97C580.6 115.97 639.87 119.66 633.9 182.07C633.9 182.07 681.14 167.86 693.9 242.13C693.9 242.13 748.01 234.31 728.9 290.32C728.9 290.32 790.16 315.32 748.82 347.72C748.82 347.72 797.01 371.03 743.33 413.5C743.33 413.5 747.19 472.5 677.24 455.19C677.24 455.19 677.48 492.86 618.36 485.19C559.24 477.52 577.42 440.31 577.42 440.31C577.42 440.31 532.96 468.78 517.64 433.73C517.64 433.73 484.64 479.5 441 442.94C441 442.94 309.24 501.66 319.85 374.47C319.85 374.47 249.72 358.9 268.34 290.65C268.34 290.65 226.62 229.79 274.81 193.07C323 156.35 353.62 158.33 353.62 158.33Z" fill="#1C6A43"/>
<path d="M657.26 317.15C688.2 264.54 641.26 247.59 641.26 247.59C661.7 178.07 593.36 192.77 593.36 192.77C626.81 165.4 580.6 115.97 580.6 115.97C578.84 79.9 528.11 26.6 447.28 29.42C366.45 32.24 353.62 158.32 353.62 158.32C353.62 158.32 323 156.32 274.81 193.07C226.62 229.82 268.34 290.65 268.34 290.65C249.72 358.9 319.85 374.47 319.85 374.47C364.15 429.12 427.03 352.22 427.03 352.22C446.64 439.99 526.72 402.72 526.72 402.72C618.31 474.49 647.51 377.22 647.51 377.22C699.13 370.83 657.26 317.15 657.26 317.15Z" fill="#63B446"/>
<path d="M469.37 202.56C501.419 202.56 527.4 176.579 527.4 144.53C527.4 112.481 501.419 86.5 469.37 86.5C437.321 86.5 411.34 112.481 411.34 144.53C411.34 176.579 437.321 202.56 469.37 202.56Z" fill="#9FCC3B"/>
<path d="M431.29 242.83C456.419 242.83 476.79 222.459 476.79 197.33C476.79 172.201 456.419 151.83 431.29 151.83C406.161 151.83 385.79 172.201 385.79 197.33C385.79 222.459 406.161 242.83 431.29 242.83Z" fill="#9FCC3B"/>
<path d="M340.28 332.25C365.409 332.25 385.78 311.879 385.78 286.75C385.78 261.621 365.409 241.25 340.28 241.25C315.151 241.25 294.78 261.621 294.78 286.75C294.78 311.879 315.151 332.25 340.28 332.25Z" fill="#9FCC3B"/>
<path d="M186.63 475.92C214.349 475.92 236.82 455.549 236.82 430.42C236.82 405.291 214.349 384.92 186.63 384.92C158.911 384.92 136.44 405.291 136.44 430.42C136.44 455.549 158.911 475.92 186.63 475.92Z" fill="#9FCC3B"/>
<path d="M149.85 496.69C170.036 496.69 186.4 481.853 186.4 463.55C186.4 445.247 170.036 430.41 149.85 430.41C129.664 430.41 113.3 445.247 113.3 463.55C113.3 481.853 129.664 496.69 149.85 496.69Z" fill="#9FCC3B"/>
<path d="M807.817 496.613C824.944 492.982 835.57 474.674 831.552 455.721C827.534 436.768 810.392 424.347 793.266 427.978C776.139 431.609 765.512 449.917 769.53 468.87C773.549 487.823 790.69 500.244 807.817 496.613Z" fill="#9FCC3B"/>
<path d="M499.52 318.559C518.894 318.559 534.6 304.318 534.6 286.749C534.6 269.181 518.894 254.939 499.52 254.939C480.146 254.939 464.44 269.181 464.44 286.749C464.44 304.318 480.146 318.559 499.52 318.559Z" fill="#9FCC3B"/>
<path d="M537.51 14.9707C575.31 66.9707 541 99.3607 541 99.3607C541 99.3607 548.1 43.9707 537.51 14.9707Z" fill="#63B446"/>
<path d="M541 99.3907C510.65 65.1907 537.51 14.9707 537.51 14.9707C548.1 43.9707 541 99.3907 541 99.3907Z" fill="#4CA84E"/>
<path d="M581.73 14.9707C597.3 90.3007 543.95 108.671 543.95 108.671C543.95 108.671 579 51.7807 581.73 14.9707Z" fill="#63B446"/>
<path d="M543.95 108.701C527.72 56.4807 581.73 14.9707 581.73 14.9707C579 51.7807 543.95 108.701 543.95 108.701Z" fill="#4CA84E"/>
<path d="M819.64 304.971C837.36 366.741 791.28 378.771 791.28 378.771C791.28 378.771 819.18 334.571 819.64 304.971Z" fill="#63B446"/>
<path d="M791.28 378.761C774.21 335.651 819.64 304.971 819.64 304.971C819.18 334.571 791.28 378.761 791.28 378.761Z" fill="#4CA84E"/>
<path d="M776.77 593.85C777.433 587.525 776.969 581.133 775.4 574.97C774.859 572.792 774.028 570.697 772.93 568.74L777.21 565.91C777.47 566.31 783.5 575.71 781.88 594.27L776.77 593.85Z" fill="#71BC71"/>
<path d="M780.35 588.631C780.35 588.631 794 587.711 796.51 607.541C799.2 628.851 803.81 632.601 808.23 643.221C812.65 653.841 813.02 693.121 775.35 693.221C737.68 693.321 738.86 652.221 743.56 642.311C747.72 633.521 756.56 621.311 758.88 610.101C761.2 598.891 768.51 586.691 780.35 588.631Z" fill="#3E3031"/>
<path d="M780.51 595.67C780.51 595.67 792.43 594.86 794.62 612.17C796.97 630.77 801 634.05 804.85 643.31C808.7 652.57 809.03 686.87 776.15 686.98C743.27 687.09 744.3 651.19 748.4 642.54C752.03 634.87 759.71 624.22 761.77 614.43C763.83 604.64 770.15 593.97 780.51 595.67Z" fill="#573F39"/>
<path d="M807.91 671.19C766.36 674.08 755.36 639.42 752.65 625.73C749.43 631.8 745.81 637.56 743.56 642.33C738.86 652.24 737.69 693.33 775.35 693.24C794.73 693.18 804.04 682.75 807.91 671.19Z" fill="#3E3031"/>
<path d="M799.62 684.65C751.51 690.49 748.51 647.34 748.88 632.52C746.88 636.06 744.95 639.38 743.56 642.33C738.86 652.24 737.69 693.33 775.35 693.24C786.51 693.21 794.26 689.76 799.62 684.65Z" fill="#2B1D1F"/>
<path d="M802.21 650.36C802.31 659.54 797.13 679.36 788.75 677.86C788.75 677.86 780.75 676.86 784.32 670.86C786.73 666.86 786.55 657.25 786.16 651.25C786.067 649.827 786.492 648.418 787.355 647.282C788.219 646.147 789.463 645.361 790.86 645.07L794.65 644.28C795.558 644.091 796.497 644.106 797.399 644.323C798.3 644.539 799.143 644.953 799.866 645.535C800.589 646.116 801.174 646.85 801.579 647.685C801.984 648.519 802.2 649.433 802.21 650.36Z" fill="#72625F"/>
<path d="M793.235 618.176C793.629 613.886 791.947 610.224 789.477 609.997C787.008 609.77 784.686 613.064 784.292 617.354C783.898 621.644 785.58 625.305 788.05 625.532C790.519 625.759 792.84 622.465 793.235 618.176Z" fill="#F6FAFE"/>
<path d="M783.23 610.35C784.567 610.35 785.65 609.266 785.65 607.93C785.65 606.593 784.567 605.51 783.23 605.51C781.894 605.51 780.81 606.593 780.81 607.93C780.81 609.266 781.894 610.35 783.23 610.35Z" fill="#F6FAFE"/>
<path d="M751.51 534.5C809.78 534.61 800.24 577.31 800.24 577.31C800.24 577.31 775.69 542.27 751.51 534.5Z" fill="#63B446"/>
<path d="M800.26 577.31C757.61 581.31 751.53 534.5 751.53 534.5C775.69 542.27 800.26 577.31 800.26 577.31Z" fill="#4CA84E"/>
<path d="M15 414.449C78.84 422.209 79.17 469.379 79.17 469.379C79.17 469.379 43.42 426.419 15 414.449Z" fill="#63B446"/>
<path d="M79.17 469.379C33.46 468.299 15 414.449 15 414.449C43.42 426.419 79.17 469.379 79.17 469.379Z" fill="#4CA84E"/>
<path d="M307.51 583.289C371.19 626.439 345.74 676.809 345.74 676.809C345.74 676.809 331.18 611.559 307.51 583.289Z" fill="#124C2D"/>
<path d="M345.73 676.809C297.73 650.679 307.5 583.289 307.5 583.289C331.18 611.559 345.73 676.809 345.73 676.809Z" fill="#124C2D"/>
<path d="M634.91 425.75C635.558 419.427 635.084 413.039 633.51 406.88C632.971 404.702 632.141 402.606 631.04 400.65L635.33 397.83C635.59 398.22 641.62 407.62 640 426.19L634.91 425.75Z" fill="#71BC71"/>
<path d="M638.51 420.541C638.51 420.541 652.17 419.611 654.68 439.441C657.37 460.751 661.98 464.501 666.4 475.121C670.82 485.741 671.19 525.021 633.52 525.121C595.85 525.221 597.02 484.121 601.72 474.201C605.89 465.411 614.72 453.201 617.05 442.001C619.38 430.801 626.65 418.591 638.51 420.541Z" fill="#3E3031"/>
<path d="M638.62 427.58C638.62 427.58 650.54 426.76 652.73 444.08C655.08 462.68 659.1 465.95 662.96 475.22C666.82 484.49 667.14 518.77 634.26 518.88C601.38 518.99 602.41 483.09 606.51 474.44C610.14 466.77 617.82 456.13 619.88 446.33C621.94 436.53 628.29 425.87 638.62 427.58Z" fill="#573F39"/>
<path d="M666.05 503.091C624.51 505.971 613.51 471.331 610.79 457.631C607.57 463.701 603.95 469.471 601.69 474.231C596.99 484.141 595.82 525.231 633.49 525.151C652.87 525.081 662.18 514.651 666.05 503.091Z" fill="#3E3031"/>
<path d="M657.76 516.55C609.6 522.39 606.64 479.24 607.02 464.42C605.02 467.96 603.09 471.29 601.69 474.23C596.99 484.14 595.82 525.23 633.49 525.15C644.6 525.11 652.4 521.66 657.76 516.55Z" fill="#2B1D1F"/>
<path d="M660.35 482.261C660.45 491.451 655.27 511.261 646.89 509.761C646.89 509.761 638.89 508.761 642.46 502.761C644.87 498.761 644.69 489.141 644.3 483.151C644.207 481.726 644.631 480.316 645.494 479.179C646.358 478.041 647.603 477.254 649 476.961L652.79 476.171C653.699 475.982 654.638 475.996 655.541 476.214C656.444 476.431 657.287 476.846 658.01 477.428C658.733 478.011 659.318 478.746 659.722 479.582C660.127 480.418 660.341 481.333 660.35 482.261Z" fill="#72625F"/>
<path d="M651.379 450.092C651.773 445.802 650.091 442.14 647.622 441.913C645.152 441.687 642.831 444.98 642.437 449.27C642.043 453.56 643.725 457.221 646.194 457.448C648.664 457.675 650.985 454.381 651.379 450.092Z" fill="#F6FAFE"/>
<path d="M641.37 442.25C642.706 442.25 643.79 441.167 643.79 439.83C643.79 438.494 642.706 437.41 641.37 437.41C640.033 437.41 638.95 438.494 638.95 439.83C638.95 441.167 640.033 442.25 641.37 442.25Z" fill="#F6FAFE"/>
<path d="M507.51 324.359C508.171 318.037 507.704 311.648 506.13 305.489C505.594 303.31 504.763 301.214 503.66 299.259L507.95 296.439C508.21 296.829 514.24 306.239 512.62 324.799L507.51 324.359Z" fill="#71BC71"/>
<path d="M511.03 319.15C511.03 319.15 524.69 318.22 527.2 338.05C529.89 359.36 534.5 363.12 538.92 373.73C543.34 384.34 543.7 423.63 506.04 423.73C468.38 423.83 469.54 382.73 474.24 372.81C478.41 364.03 487.24 351.81 489.56 340.61C491.88 329.41 499.19 317.2 511.03 319.15Z" fill="#3E3031"/>
<path d="M511.17 326.19C511.17 326.19 523.09 325.38 525.28 342.69C527.63 361.29 531.65 364.56 535.51 373.83C539.37 383.1 539.68 417.39 506.81 417.5C473.94 417.61 474.95 381.71 479.05 373.05C482.69 365.39 490.37 354.74 492.43 344.95C494.49 335.16 500.83 324.49 511.17 326.19Z" fill="#573F39"/>
<path d="M538.6 401.7C497.05 404.59 486.05 369.94 483.33 356.25C480.12 362.31 476.5 368.08 474.24 372.84C469.54 382.76 468.37 423.89 506.04 423.76C525.42 423.69 534.73 413.26 538.6 401.7Z" fill="#3E3031"/>
<path d="M530.31 415.169C482.15 420.999 479.19 377.859 479.57 363.029C477.57 366.569 475.64 369.899 474.24 372.839C469.54 382.759 468.37 423.889 506.04 423.759C517.15 423.719 524.95 420.279 530.31 415.169Z" fill="#2B1D1F"/>
<path d="M532.9 380.87C533 390.06 527.82 409.87 519.44 408.38C519.44 408.38 511.44 407.38 515 401.38C517.41 397.38 517.23 387.76 516.85 381.77C516.753 380.347 517.174 378.937 518.036 377.801C518.899 376.665 520.143 375.879 521.54 375.59L525.34 374.79C526.248 374.601 527.187 374.615 528.089 374.832C528.99 375.049 529.833 375.463 530.556 376.044C531.279 376.626 531.864 377.36 532.269 378.194C532.674 379.029 532.89 379.943 532.9 380.87Z" fill="#72625F"/>
<path d="M523.932 348.709C524.326 344.419 522.644 340.757 520.174 340.531C517.705 340.304 515.384 343.597 514.989 347.887C514.595 352.177 516.277 355.838 518.747 356.065C521.216 356.292 523.537 352.998 523.932 348.709Z" fill="#F6FAFE"/>
<path d="M513.92 340.86C515.257 340.86 516.34 339.776 516.34 338.44C516.34 337.103 515.257 336.02 513.92 336.02C512.583 336.02 511.5 337.103 511.5 338.44C511.5 339.776 512.583 340.86 513.92 340.86Z" fill="#F6FAFE"/>
<path d="M462.42 267.46C514.94 266.15 509.51 305.07 509.51 305.07C509.51 305.07 484.76 273.91 462.42 267.46Z" fill="#63B446"/>
<path d="M509.51 305.071C471.37 309.711 462.42 267.461 462.42 267.461C484.76 273.911 509.51 305.071 509.51 305.071Z" fill="#4CA84E"/>
<path d="M346.81 358.699C338.39 410.549 301.14 398.029 301.14 398.029C301.14 398.029 336.34 379.469 346.81 358.699Z" fill="#63B446"/>
<path d="M301.14 398.029C303.63 359.679 346.81 358.699 346.81 358.699C336.34 379.469 301.14 398.029 301.14 398.029Z" fill="#4CA84E"/>
<path d="M65.1501 499.61C65.8086 493.285 65.3448 486.893 63.7801 480.73C63.2389 478.552 62.4082 476.457 61.3101 474.5L65.6001 471.68C65.8601 472.07 71.89 481.47 70.2701 500.03L65.1501 499.61Z" fill="#71BC71"/>
<path d="M68.7199 494.4C68.7199 494.4 82.3799 493.47 84.8899 513.3C87.5799 534.61 92.1899 538.36 96.6099 548.98C101.03 559.6 101.4 598.88 63.7299 598.98C26.0599 599.08 27.2299 557.98 31.9299 548.07C36.0999 539.28 44.9299 527.07 47.2599 515.86C49.5899 504.65 56.8899 492.45 68.7199 494.4Z" fill="#3E3031"/>
<path d="M68.8601 501.43C68.8601 501.43 80.7801 500.62 82.9701 517.93C85.3201 536.53 89.3501 539.81 93.2001 549.07C97.0501 558.33 97.3801 592.63 64.5001 592.74C31.6201 592.85 32.6501 556.97 36.7501 548.3C40.3801 540.63 48.0601 529.98 50.1201 520.19C52.1801 510.4 58.5101 499.73 68.8601 501.43Z" fill="#573F39"/>
<path d="M96.2899 576.97C54.7399 579.86 43.7399 545.2 41.0299 531.51C37.8099 537.58 34.1899 543.34 31.9299 548.11C27.2299 558.02 26.0599 599.11 63.7299 599.02C83.1099 598.97 92.4199 588.51 96.2899 576.97Z" fill="#3E3031"/>
<path d="M87.9999 590.409C39.8399 596.249 36.8799 553.099 37.2599 538.279C35.2599 541.819 33.3299 545.139 31.9299 548.089C27.2299 557.999 26.0599 599.089 63.7299 598.999C74.8399 598.969 82.6399 595.519 87.9999 590.409Z" fill="#2B1D1F"/>
<path d="M90.59 556.12C90.69 565.3 85.5099 585.12 77.1299 583.62C77.1299 583.62 69.08 582.62 72.7 576.62C75.11 572.62 74.9299 563.01 74.5399 557.02C74.4448 555.595 74.8681 554.183 75.7319 553.046C76.5957 551.908 77.8416 551.121 79.2399 550.83L83.03 550.04C83.9381 549.851 84.8768 549.865 85.7787 550.082C86.6806 550.299 87.5232 550.713 88.246 551.294C88.9689 551.876 89.5539 552.61 89.9592 553.444C90.3645 554.279 90.5799 555.193 90.59 556.12Z" fill="#72625F"/>
<path d="M81.6355 523.949C82.0297 519.659 80.3474 515.998 77.8781 515.771C75.4087 515.544 73.0874 518.838 72.6932 523.127C72.299 527.417 73.9813 531.078 76.4506 531.305C78.92 531.532 81.2413 528.239 81.6355 523.949Z" fill="#F6FAFE"/>
<path d="M71.6099 516.11C72.9465 516.11 74.0299 515.026 74.0299 513.69C74.0299 512.353 72.9465 511.27 71.6099 511.27C70.2734 511.27 69.1899 512.353 69.1899 513.69C69.1899 515.026 70.2734 516.11 71.6099 516.11Z" fill="#F6FAFE"/>
<path d="M307.72 234.35C308.375 228.025 307.908 221.633 306.34 215.47C305.799 213.292 304.968 211.197 303.87 209.24L308.16 206.41C308.41 206.81 314.44 216.21 312.82 234.77L307.72 234.35Z" fill="#71BC71"/>
<path d="M311.29 229.13C311.29 229.13 324.94 228.2 327.45 248.04C330.14 269.35 334.75 273.1 339.17 283.71C343.59 294.32 343.96 333.62 306.29 333.71C268.62 333.8 269.8 292.71 274.5 282.79C278.66 274.01 287.5 261.79 289.82 250.59C292.14 239.39 299.45 227.18 311.29 229.13Z" fill="#3E3031"/>
<path d="M311.42 236.17C311.42 236.17 323.34 235.36 325.53 252.67C327.88 271.27 331.91 274.55 335.76 283.81C339.61 293.07 339.94 327.37 307.06 327.48C274.18 327.59 275.21 291.69 279.31 283.04C282.94 275.37 290.62 264.72 292.68 254.93C294.74 245.14 301.09 234.47 311.42 236.17Z" fill="#573F39"/>
<path d="M338.85 311.69C297.3 314.57 286.3 279.92 283.59 266.23C280.37 272.3 276.75 278.06 274.5 282.82C269.8 292.74 268.63 333.82 306.29 333.74C325.67 333.68 334.98 323.25 338.85 311.69Z" fill="#3E3031"/>
<path d="M330.56 325.15C282.4 330.99 279.44 287.84 279.82 273.02C277.82 276.56 275.89 279.88 274.5 282.82C269.8 292.74 268.63 333.82 306.29 333.74C317.4 333.71 325.2 330.26 330.56 325.15Z" fill="#2B1D1F"/>
<path d="M333.15 290.851C333.25 300.041 328.07 319.851 319.69 318.361C319.69 318.361 311.64 317.361 315.26 311.361C317.67 307.361 317.49 297.751 317.1 291.751C317.007 290.327 317.432 288.918 318.295 287.782C319.159 286.647 320.403 285.862 321.8 285.571L325.6 284.781C326.507 284.591 327.444 284.606 328.345 284.822C329.246 285.038 330.087 285.451 330.809 286.032C331.531 286.612 332.115 287.345 332.52 288.179C332.925 289.012 333.14 289.924 333.15 290.851Z" fill="#72625F"/>
<path d="M324.193 258.693C324.587 254.403 322.905 250.742 320.435 250.515C317.966 250.288 315.645 253.582 315.251 257.871C314.856 262.161 316.539 265.823 319.008 266.05C321.477 266.276 323.799 262.983 324.193 258.693Z" fill="#F6FAFE"/>
<path d="M314.17 250.84C315.507 250.84 316.59 249.757 316.59 248.42C316.59 247.083 315.507 246 314.17 246C312.833 246 311.75 247.083 311.75 248.42C311.75 249.757 312.833 250.84 314.17 250.84Z" fill="#F6FAFE"/>
<path d="M235.38 158.689C312.3 159.169 319.15 215.179 319.15 215.179C319.15 215.179 270.78 169.029 235.38 158.689Z" fill="#63B446"/>
<path d="M319.15 215.179C264.69 220.179 235.38 158.689 235.38 158.689C270.78 169.029 319.15 215.179 319.15 215.179Z" fill="#4CA84E"/>
<path d="M16.95 463.459C67.2099 431.459 77.22 475.459 77.22 475.459C77.22 475.459 41.08 457.199 16.95 463.459Z" fill="#63B446"/>
<path d="M77.22 475.45C42.17 502.52 16.95 463.45 16.95 463.45C41.08 457.2 77.22 475.45 77.22 475.45Z" fill="#4CA84E"/>
<path d="M334.7 567.119C335.357 560.798 334.894 554.41 333.33 548.249C332.792 546.071 331.961 543.975 330.86 542.019L335.15 539.199C335.41 539.589 341.44 548.999 339.82 567.559L334.7 567.119Z" fill="#71BC71"/>
<path d="M338.27 561.91C338.27 561.91 351.93 560.98 354.44 580.81C357.13 602.12 361.74 605.87 366.16 616.49C370.58 627.11 370.95 666.39 333.28 666.49C295.61 666.59 296.78 625.49 301.48 615.57C305.65 606.78 314.48 594.57 316.81 583.37C319.14 572.17 326.44 559.97 338.27 561.91Z" fill="#3E3031"/>
<path d="M338.41 568.971C338.41 568.971 350.33 568.161 352.52 585.471C354.87 604.071 358.89 607.341 362.75 616.611C366.61 625.881 366.93 660.161 334.05 660.281C301.17 660.401 302.19 624.481 306.3 615.831C309.93 608.161 317.61 597.521 319.67 587.721C321.73 577.921 328.08 567.241 338.41 568.971Z" fill="#573F39"/>
<path d="M365.84 644.46C324.29 647.35 313.29 612.7 310.58 599C307.36 605.07 303.74 610.84 301.48 615.6C296.78 625.51 295.61 666.6 333.28 666.52C352.66 666.45 361.97 656.02 365.84 644.46Z" fill="#3E3031"/>
<path d="M357.51 657.97C309.35 663.8 306.39 620.66 306.77 605.83C304.77 609.37 302.84 612.7 301.44 615.64C296.74 625.55 295.57 666.64 333.24 666.56C344.39 666.48 352.19 663.04 357.51 657.97Z" fill="#2B1D1F"/>
<path d="M360.14 623.63C360.24 632.82 355.06 652.63 346.68 651.13C346.68 651.13 338.63 650.13 342.25 644.13C344.66 640.13 344.48 630.51 344.09 624.52C343.997 623.097 344.419 621.687 345.281 620.551C346.142 619.414 347.384 618.625 348.78 618.33L352.58 617.54C353.489 617.351 354.429 617.365 355.331 617.583C356.234 617.8 357.077 618.215 357.8 618.798C358.523 619.38 359.108 620.116 359.512 620.951C359.917 621.787 360.131 622.702 360.14 623.63Z" fill="#72625F"/>
<path d="M351.186 591.457C351.581 587.167 349.898 583.506 347.429 583.279C344.959 583.052 342.638 586.345 342.244 590.635C341.85 594.925 343.532 598.586 346.001 598.813C348.471 599.04 350.792 595.747 351.186 591.457Z" fill="#F6FAFE"/>
<path d="M341.16 583.619C342.497 583.619 343.58 582.536 343.58 581.199C343.58 579.863 342.497 578.779 341.16 578.779C339.823 578.779 338.74 579.863 338.74 581.199C338.74 582.536 339.823 583.619 341.16 583.619Z" fill="#F6FAFE"/>
<path d="M322.27 537.799C364.39 506.399 382.43 541.319 382.43 541.319C382.43 541.319 344.24 530.159 322.27 537.799Z" fill="#63B446"/>
<path d="M382.43 541.321C353.97 567.131 322.27 537.801 322.27 537.801C344.24 530.161 382.43 541.321 382.43 541.321Z" fill="#4CA84E"/>
<path d="M632.36 401.359C674.51 369.969 692.51 404.879 692.51 404.879C692.51 404.879 654.33 393.719 632.36 401.359Z" fill="#63B446"/>
<path d="M692.51 404.88C664.05 430.69 632.35 401.36 632.35 401.36C654.33 393.72 692.51 404.88 692.51 404.88Z" fill="#4CA84E"/>
<path d="M622.23 260.43C631.508 260.43 639.03 248.857 639.03 234.58C639.03 220.304 631.508 208.73 622.23 208.73C612.952 208.73 605.43 220.304 605.43 234.58C605.43 248.857 612.952 260.43 622.23 260.43Z" fill="white"/>
<path d="M736.26 400.501C745.538 400.501 753.06 388.927 753.06 374.651C753.06 360.374 745.538 348.801 736.26 348.801C726.982 348.801 719.46 360.374 719.46 374.651C719.46 388.927 726.982 400.501 736.26 400.501Z" fill="white"/>
<path d="M581.776 176.76C591.624 171.541 593.685 156.135 586.379 142.349C579.074 128.563 565.168 121.618 555.321 126.836C545.473 132.055 543.412 147.461 550.717 161.247C558.023 175.033 571.928 181.978 581.776 176.76Z" fill="white"/>
<path d="M727.16 331.519C735.096 331.519 741.53 325.086 741.53 317.149C741.53 309.213 735.096 302.779 727.16 302.779C719.224 302.779 712.79 309.213 712.79 317.149C712.79 325.086 719.224 331.519 727.16 331.519Z" fill="white"/>
<path d="M856.53 452.871C864.467 452.871 870.9 446.437 870.9 438.501C870.9 430.565 864.467 424.131 856.53 424.131C848.594 424.131 842.16 430.565 842.16 438.501C842.16 446.437 848.594 452.871 856.53 452.871Z" fill="white"/>
</g>
<defs>
<clipPath id="clip0_5022_953">
<rect width="896.96" height="1022.36" fill="white"/>
</clipPath>
</defs>
</svg>
