<svg width="620" height="844" viewBox="0 0 620 844" fill="none" xmlns="http://www.w3.org/2000/svg">
<g clip-path="url(#clip0_4906_1632)">
<path d="M309.59 843.789C480.572 843.789 619.18 814.728 619.18 778.879C619.18 743.03 480.572 713.969 309.59 713.969C138.608 713.969 0 743.03 0 778.879C0 814.728 138.608 843.789 309.59 843.789Z" fill="#A7A9AC"/>
<path d="M161.72 785.599C158.912 785.6 156.135 785.009 153.57 783.866C151.005 782.722 148.71 781.051 146.833 778.962C144.957 776.872 143.542 774.411 142.68 771.738C141.818 769.065 141.528 766.241 141.83 763.449C141.83 763.329 141.96 762.189 142.12 760.249C142.12 759.749 142.2 759.249 142.24 758.639C142.46 755.639 142.76 750.939 142.92 745.229C142.92 744.229 142.97 743.229 142.99 742.129V740.499C142.99 739.419 142.99 738.309 142.99 737.179C142.99 732.249 142.87 727.419 142.63 722.819C142.49 720.259 142.31 717.729 142.1 715.319C141.98 714.069 141.86 712.809 141.73 711.559C141.6 710.309 141.44 709.069 141.28 707.829C141.12 706.589 140.95 705.379 140.76 704.159C140.67 703.549 140.57 702.949 140.47 702.339C140.27 701.149 140.05 699.959 139.83 698.779C139.71 698.209 139.6 697.629 139.48 697.059C138.718 693.292 137.716 689.578 136.48 685.939C136.32 685.469 136.15 684.999 135.98 684.529C135.349 682.827 134.632 681.158 133.83 679.529C133.29 678.449 132.72 677.419 132.14 676.529C130.57 673.999 128.88 671.369 126.97 668.469C125.35 665.999 123.79 663.659 122.3 661.419L122.06 661.059C120.42 658.609 118.86 656.269 117.37 653.989C116.37 652.389 115.37 650.829 114.37 649.279C113.37 647.729 112.37 646.019 111.47 644.489C110.47 642.759 109.57 641.129 108.71 639.489C106.867 635.997 105.221 632.405 103.78 628.729C103.03 626.799 102.34 624.829 101.72 622.879C100.72 619.879 99.9201 616.689 99.2401 613.479C97.3038 603.842 96.3887 594.028 96.51 584.199V201.409C96.4514 193.858 96.9595 186.314 98.0301 178.839C98.9687 172.333 100.536 165.933 102.71 159.729C103.06 158.729 103.41 157.799 103.78 156.849C104.5 154.999 105.3 153.139 106.14 151.309C106.54 150.429 106.96 149.549 107.4 148.669C108.23 146.989 109.13 145.269 110.08 143.549C111.03 141.829 111.88 140.379 112.91 138.669C113.83 137.159 114.79 135.609 115.91 133.919C117.91 130.769 120.05 127.579 122.11 124.499L122.3 124.219C125.44 119.509 128.69 114.639 132.2 109.039C134.235 105.621 135.853 101.972 137.02 98.1691C138.385 93.859 139.461 89.4625 140.24 85.009C140.45 83.819 140.65 82.609 140.84 81.399C141.72 75.709 142.35 69.399 142.71 62.739C142.95 58.139 143.08 53.309 143.07 48.379C143.07 33.429 141.88 22.2091 141.87 22.0891C141.571 19.2986 141.863 16.4764 142.726 13.8061C143.59 11.1358 145.005 8.67706 146.881 6.58978C148.757 4.50251 151.052 2.83342 153.615 1.69103C156.178 0.548635 158.954 -0.0414793 161.76 -0.0409537H529.16C531.909 -0.0477955 534.631 0.512322 537.154 1.60442C539.677 2.69651 541.948 4.29714 543.825 6.30631C545.702 8.31548 547.144 10.69 548.062 13.2817C548.98 15.8734 549.354 18.6265 549.16 21.369C549.16 21.619 549.16 21.879 549.09 22.129C549.09 22.129 549 23.0291 549 23.0591L548.83 25.009C548.83 25.009 548.76 25.869 548.76 25.909C548.69 26.839 548.61 27.909 548.53 29.0891L548.44 30.4491C548.32 32.4491 548.22 34.5191 548.14 36.5491V36.619C548.02 39.689 547.95 42.769 547.92 45.789V45.899C547.92 49.409 547.92 52.8991 548.01 56.2791V56.3891C548.1 59.3891 548.23 62.389 548.42 65.229V65.4191C548.42 66.0891 548.51 66.759 548.56 67.4191V67.5791C548.62 68.3891 548.68 69.119 548.74 69.8391C550.67 92.0591 555.25 103.409 558.74 109.019C562.23 114.629 565.52 119.519 568.67 124.249C583.02 145.829 594.36 162.829 594.36 201.409V584.179C594.36 614.509 587.52 631.569 576.49 649.279C575.49 650.819 574.49 652.379 573.49 653.979C572.49 655.579 571.49 657.079 570.39 658.679L567.84 662.499C566.56 664.409 565.25 666.379 563.84 668.499C561.94 671.399 560.25 674.039 558.67 676.559C558.09 677.479 557.52 678.559 556.98 679.559C556.18 681.188 555.466 682.856 554.84 684.559L554.36 685.929C553.132 689.57 552.13 693.284 551.36 697.049C551.24 697.619 551.12 698.199 551.01 698.789C550.78 699.969 550.57 701.149 550.37 702.349C550.27 702.939 550.17 703.539 550.08 704.149C549.89 705.379 549.71 706.599 549.55 707.829C549.39 709.059 549.24 710.309 549.11 711.559C548.98 712.809 548.85 714.069 548.74 715.309V715.679C548.68 716.419 548.62 717.149 548.56 717.869V718.069C548.5 718.799 548.46 719.469 548.41 720.139V720.329C548.22 723.189 548.09 726.159 548 729.159V729.239C547.9 732.719 547.87 736.222 547.91 739.749V739.799C547.91 742.799 548.01 745.869 548.13 748.909C548.13 748.909 548.13 748.979 548.13 749.009C548.21 751.009 548.31 753.079 548.43 755.079C548.43 755.079 548.51 756.389 548.52 756.409C548.6 757.649 548.68 758.749 548.75 759.699L548.89 761.429L549.09 763.539C549.378 766.324 549.079 769.139 548.211 771.8C547.343 774.462 545.925 776.912 544.05 778.992C542.175 781.071 539.885 782.734 537.327 783.872C534.768 785.01 532 785.599 529.2 785.599H161.72Z" fill="#231F20"/>
<path d="M161.72 765.6C161.72 765.6 169.05 697.82 149.12 665.92C129.19 634.02 116.51 624.06 116.51 584.18V201.41C116.51 161.54 129.18 151.57 149.12 119.68C169.06 87.79 161.72 20 161.72 20H515.86C515.86 20 523.2 87.78 503.26 119.68C483.32 151.58 470.65 161.54 470.65 201.41V584.18C470.65 624.06 483.33 634.02 503.26 665.92C523.19 697.82 515.86 765.6 515.86 765.6H161.72Z" fill="#71A29E"/>
<path d="M183.7 665.92C163.76 634.02 151.09 624.06 151.09 584.18V201.41C151.09 161.54 163.76 151.57 183.7 119.68C203.64 87.79 196.3 20 196.3 20H161.72C161.72 20 169.05 87.78 149.12 119.68C129.19 151.58 116.51 161.54 116.51 201.41V584.18C116.51 624.06 129.18 634.02 149.12 665.92C169.06 697.82 161.72 765.6 161.72 765.6H196.3C196.3 765.6 203.64 697.82 183.7 665.92Z" fill="#587B75"/>
<path d="M529.16 765.6C529.16 765.6 521.82 697.82 541.76 665.92C561.7 634.02 574.36 624.06 574.36 584.18V201.41C574.36 161.54 561.69 151.57 541.75 119.68C521.81 87.79 529.15 20 529.15 20H175.01C175.01 20 167.68 87.78 187.61 119.68C207.54 151.58 220.22 161.54 220.22 201.41V584.18C220.22 624.06 207.55 634.02 187.61 665.92C167.67 697.82 175.01 765.6 175.01 765.6H529.16Z" fill="#C5E6DC"/>
<path d="M574.36 323.02H220.22V462.57H574.36V323.02Z" fill="#48BEA2"/>
<path d="M401.25 541.319C483.275 541.319 549.77 474.825 549.77 392.799C549.77 310.774 483.275 244.279 401.25 244.279C319.225 244.279 252.73 310.774 252.73 392.799C252.73 474.825 319.225 541.319 401.25 541.319Z" fill="#FAF28C"/>
<path d="M529.16 20H175.01C173.409 37.1677 173.285 54.4411 174.64 71.63H528.78C527.432 54.4407 527.559 37.1676 529.16 20Z" fill="#98CFC0"/>
<path d="M174.64 713.969C173.285 731.158 173.409 748.431 175.01 765.599H529.16C527.559 748.431 527.432 731.158 528.78 713.969H174.64Z" fill="#98CFC0"/>
<g style="mix-blend-mode:multiply">
<path d="M219.57 598.538C216.75 627.058 204.92 638.238 187.62 665.918C167.69 697.818 175.02 765.598 175.02 765.598H529.16C529.16 765.598 521.82 697.818 541.76 665.918C561.7 634.018 574.36 624.058 574.36 584.178V201.408C574.36 201.408 550.56 598.538 219.57 598.538Z" fill="#CEEAE2"/>
</g>
<path d="M523.96 593.198C543.185 593.198 558.77 577.613 558.77 558.388C558.77 539.163 543.185 523.578 523.96 523.578C504.735 523.578 489.15 539.163 489.15 558.388C489.15 577.613 504.735 593.198 523.96 593.198Z" fill="#E9F3F9"/>
<g style="mix-blend-mode:multiply">
<path d="M574.36 584.179V499.079L572.42 496.959C572.42 496.959 560.77 675.909 187.6 665.959C167.67 697.859 175 765.639 175 765.639H529.16C529.16 765.639 521.82 697.859 541.76 665.959C561.7 634.059 574.36 624.059 574.36 584.179Z" fill="#CEEAE2"/>
</g>
<path d="M304.72 161.149C305.648 161.122 306.575 161.233 307.47 161.479C307.784 161.562 308.077 161.708 308.333 161.907C308.589 162.106 308.803 162.355 308.96 162.639C309.222 163.096 309.398 163.598 309.48 164.119C309.546 164.76 309.573 165.405 309.56 166.049V196.569C309.574 197.204 309.541 197.839 309.46 198.469C309.355 198.969 309.176 199.451 308.93 199.899C308.777 200.177 308.568 200.421 308.317 200.615C308.066 200.81 307.778 200.951 307.47 201.029C306.558 201.277 305.615 201.388 304.67 201.359C303.871 201.38 303.073 201.285 302.3 201.079C301.789 200.95 301.308 200.727 300.88 200.419C300.521 200.131 300.26 199.74 300.13 199.299C299.988 198.888 299.897 198.462 299.86 198.029C299.86 197.679 299.86 197.159 299.86 196.459V178.039C298.94 179.169 297.61 180.979 295.86 183.459C294.11 185.939 292.8 187.699 291.96 188.759C291.826 188.981 291.679 189.194 291.52 189.399C291.126 189.802 290.67 190.139 290.17 190.399C289.465 190.817 288.66 191.035 287.84 191.029C287.058 191.038 286.288 190.837 285.61 190.449C285.056 190.168 284.561 189.785 284.15 189.319L283.71 188.719C282.977 187.799 281.527 185.846 279.36 182.859C277.193 179.872 276.02 178.269 275.84 178.049V196.579C275.854 197.213 275.827 197.848 275.76 198.479C275.677 198.984 275.501 199.469 275.24 199.909C274.915 200.466 274.383 200.872 273.76 201.039C272.845 201.286 271.898 201.397 270.95 201.369C270.032 201.397 269.115 201.286 268.23 201.039C267.614 200.869 267.089 200.463 266.77 199.909C266.505 199.46 266.329 198.964 266.25 198.449C266.183 197.785 266.156 197.117 266.17 196.449V165.939C266.156 165.305 266.183 164.67 266.25 164.039C266.333 163.534 266.509 163.049 266.77 162.609C266.932 162.332 267.147 162.09 267.402 161.896C267.658 161.702 267.95 161.56 268.26 161.479C269.172 161.231 270.116 161.12 271.06 161.149C271.927 161.131 272.791 161.253 273.62 161.509C274.138 161.643 274.618 161.896 275.02 162.249L275.35 162.579L287.84 178.969C294.073 170.722 298.233 165.279 300.32 162.639C300.89 161.649 302.36 161.149 304.72 161.149Z" fill="#115E49"/>
<path d="M328.21 171.729C332.169 171.7 335.98 173.23 338.82 175.989C341.315 178.42 342.897 181.637 343.297 185.098C343.698 188.559 342.894 192.052 341.02 194.989C339.603 197.207 337.622 199.009 335.28 200.209C333.111 201.31 330.713 201.886 328.28 201.889C325.802 201.882 323.365 201.268 321.18 200.099C318.85 198.853 316.875 197.037 315.44 194.819C313.879 192.486 313.063 189.735 313.1 186.929C313.043 184.888 313.426 182.86 314.223 180.98C315.02 179.101 316.213 177.416 317.72 176.039C320.518 173.285 324.284 171.737 328.21 171.729ZM324.63 190.839C325.639 191.676 326.899 192.151 328.21 192.189C329.539 192.144 330.816 191.659 331.84 190.809C332.401 190.299 332.85 189.68 333.162 188.989C333.473 188.298 333.639 187.55 333.649 186.793C333.659 186.035 333.514 185.283 333.222 184.584C332.929 183.885 332.497 183.254 331.95 182.729C330.871 181.869 329.53 181.403 328.15 181.409C326.837 181.438 325.575 181.922 324.58 182.779C324.004 183.267 323.549 183.883 323.252 184.577C322.956 185.271 322.825 186.025 322.87 186.779C322.809 187.554 322.937 188.332 323.243 189.046C323.55 189.761 324.026 190.39 324.63 190.879V190.839Z" fill="#115E49"/>
<path d="M363.08 172.429C364.825 172.398 366.555 172.76 368.14 173.489C369.726 174.218 371.127 175.295 372.24 176.639C374.688 179.484 375.989 183.138 375.89 186.889V196.569C375.904 197.204 375.877 197.838 375.81 198.469C375.73 198.97 375.564 199.454 375.32 199.899C375.164 200.175 374.955 200.418 374.704 200.612C374.453 200.806 374.166 200.948 373.86 201.029C372.945 201.277 371.998 201.388 371.05 201.359C370.254 201.38 369.459 201.286 368.69 201.079C368.182 200.95 367.698 200.737 367.26 200.449C366.896 200.164 366.635 199.767 366.52 199.319C366.374 198.913 366.28 198.489 366.24 198.059C366.24 197.729 366.24 197.219 366.24 196.519V186.839C366.278 186.195 366.183 185.551 365.961 184.945C365.739 184.339 365.395 183.786 364.95 183.319C363.972 182.485 362.726 182.031 361.441 182.04C360.155 182.05 358.916 182.521 357.95 183.369C357.498 183.823 357.144 184.366 356.912 184.963C356.679 185.56 356.573 186.199 356.6 186.839V196.569C356.608 197.204 356.582 197.838 356.52 198.469C356.436 198.971 356.267 199.455 356.02 199.899C355.867 200.177 355.658 200.421 355.407 200.616C355.156 200.81 354.868 200.951 354.56 201.029C353.648 201.277 352.705 201.388 351.76 201.359C350.832 201.386 349.905 201.275 349.01 201.029C348.7 200.947 348.41 200.802 348.158 200.602C347.907 200.403 347.7 200.153 347.55 199.869C347.308 199.416 347.143 198.926 347.06 198.419C346.989 197.788 346.959 197.154 346.97 196.519V177.049C346.96 176.435 346.99 175.82 347.06 175.209C347.14 174.71 347.317 174.231 347.58 173.799C347.744 173.532 347.959 173.3 348.213 173.116C348.467 172.932 348.755 172.801 349.06 172.729C349.959 172.506 350.884 172.405 351.81 172.429C352.721 172.405 353.631 172.516 354.51 172.759C355.093 172.906 355.602 173.262 355.94 173.759C356.152 174.089 356.311 174.45 356.41 174.829C356.468 175.213 356.495 175.601 356.49 175.989C356.581 175.852 356.681 175.722 356.79 175.599C356.92 175.459 357.19 175.179 357.62 174.779C358.034 174.384 358.483 174.026 358.96 173.709C359.537 173.345 360.159 173.056 360.81 172.849C361.539 172.588 362.306 172.446 363.08 172.429Z" fill="#115E49"/>
<path d="M390.96 201.908C387.253 201.904 383.626 200.835 380.51 198.828C380.187 198.624 379.924 198.338 379.748 197.999C379.572 197.66 379.49 197.28 379.51 196.898C379.51 195.838 380.207 194.335 381.6 192.388C381.8 192.081 382.08 191.832 382.408 191.669C382.737 191.505 383.104 191.433 383.47 191.458C384.669 191.537 385.825 191.934 386.82 192.608C388.189 193.499 389.761 194.029 391.39 194.148C393.62 194.148 394.74 193.708 394.74 192.828C394.74 192.468 394.39 192.158 393.74 191.898C392.884 191.603 391.999 191.399 391.1 191.288C389.924 191.114 388.771 190.812 387.66 190.388C386.461 189.942 385.309 189.379 384.22 188.708C383.067 187.939 382.152 186.861 381.58 185.598C380.871 184.029 380.529 182.319 380.58 180.598C380.58 174.812 384.557 171.915 392.51 171.908C395.28 171.95 398.008 172.588 400.51 173.778C401.8 174.368 402.44 175.168 402.44 176.198C402.319 177.282 401.919 178.315 401.28 179.198C400.44 180.518 399.6 181.198 398.75 181.198C398.097 181.136 397.463 180.949 396.88 180.648C395.494 179.962 393.976 179.587 392.43 179.548C390.26 179.548 389.18 179.948 389.18 180.758C389.201 181.072 389.315 181.373 389.507 181.622C389.7 181.871 389.962 182.058 390.26 182.158C391.11 182.546 392.019 182.79 392.95 182.878C394.133 183.021 395.301 183.268 396.44 183.618C397.643 183.966 398.814 184.418 399.94 184.968C401.091 185.568 402.03 186.507 402.63 187.658C403.385 189.089 403.754 190.692 403.7 192.308C403.764 194.038 403.396 195.756 402.63 197.308C401.977 198.604 400.926 199.655 399.63 200.308C398.364 200.934 397.018 201.385 395.63 201.648C394.085 201.885 392.521 201.972 390.96 201.908Z" fill="#115E49"/>
<path d="M423.14 182.158L419.56 181.938V189.528C419.503 190.276 419.666 191.023 420.03 191.678C420.234 191.918 420.495 192.103 420.788 192.218C421.081 192.333 421.397 192.374 421.71 192.338C422.398 192.33 423.085 192.357 423.77 192.418C424.275 192.49 424.761 192.66 425.2 192.918C425.445 193.055 425.659 193.24 425.831 193.462C426.003 193.683 426.128 193.937 426.2 194.208C426.405 194.998 426.496 195.813 426.47 196.628C426.496 197.558 426.378 198.485 426.12 199.378C426.029 199.689 425.877 199.978 425.672 200.228C425.468 200.479 425.216 200.686 424.93 200.838C424.477 201.08 423.987 201.246 423.48 201.328C422.866 201.394 422.248 201.421 421.63 201.408C417.823 201.408 414.927 200.548 412.94 198.828C410.953 197.108 409.953 194.192 409.94 190.078V181.938C409.279 182.048 408.61 182.105 407.94 182.108C407.514 182.135 407.086 182.065 406.691 181.902C406.296 181.739 405.944 181.488 405.66 181.168C405.13 180.548 404.86 179.248 404.86 177.268C404.839 176.406 404.933 175.545 405.14 174.708C405.253 174.152 405.532 173.643 405.94 173.248C406.228 172.988 406.569 172.793 406.94 172.678C407.319 172.581 407.709 172.534 408.1 172.538L409.91 172.758V167.088C409.899 166.464 409.929 165.839 410 165.218C410.079 164.745 410.245 164.291 410.49 163.878C410.655 163.623 410.869 163.403 411.12 163.232C411.37 163.06 411.653 162.94 411.95 162.878C412.866 162.653 413.807 162.552 414.75 162.578C415.522 162.56 416.293 162.651 417.04 162.848C417.537 162.988 418.009 163.204 418.44 163.488C418.802 163.763 419.062 164.15 419.18 164.588C419.333 165.003 419.427 165.437 419.46 165.878C419.46 166.248 419.46 166.758 419.46 167.418V172.728C421.08 172.578 422.29 172.508 423.09 172.508C423.724 172.5 424.359 172.527 424.99 172.588C425.492 172.672 425.975 172.841 426.42 173.088C426.697 173.241 426.94 173.448 427.134 173.697C427.328 173.946 427.47 174.233 427.55 174.538C427.797 175.454 427.908 176.401 427.88 177.348C427.906 178.276 427.795 179.203 427.55 180.098C427.468 180.409 427.323 180.699 427.123 180.95C426.923 181.201 426.674 181.408 426.39 181.558C425.937 181.8 425.447 181.966 424.94 182.048C424.343 182.121 423.742 182.157 423.14 182.158Z" fill="#115E49"/>
<path d="M457.84 183.209C457.84 185.629 457.283 187.379 456.17 188.459C455.688 188.962 455.112 189.365 454.473 189.643C453.834 189.921 453.147 190.069 452.45 190.079H439.45C439.481 190.636 439.667 191.174 439.986 191.631C440.306 192.089 440.747 192.448 441.26 192.669C442.451 193.344 443.801 193.69 445.17 193.669C446.108 193.675 447.045 193.601 447.97 193.449C448.625 193.36 449.271 193.213 449.9 193.009L450.5 192.789C451.185 192.44 451.933 192.236 452.7 192.189C453.88 192.189 454.88 193.009 455.7 194.659C456.115 195.442 456.357 196.304 456.41 197.189C456.41 200.456 452.507 202.089 444.7 202.089C442.219 202.133 439.755 201.656 437.47 200.689C435.545 199.888 433.851 198.619 432.54 196.999C431.409 195.552 430.527 193.926 429.93 192.189C429.365 190.524 429.078 188.777 429.08 187.019C429.08 182.399 430.573 178.706 433.56 175.939C436.605 173.146 440.62 171.653 444.75 171.779C446.446 171.755 448.135 172.008 449.75 172.529C451.102 172.939 452.369 173.589 453.49 174.449C454.462 175.22 455.309 176.138 456 177.169C456.632 178.111 457.121 179.143 457.45 180.229C457.726 181.198 457.857 182.202 457.84 183.209ZM446.24 185.079C447.63 185.079 448.33 184.489 448.33 183.319C448.331 182.931 448.241 182.548 448.067 182.2C447.894 181.853 447.641 181.551 447.33 181.319C446.516 180.757 445.537 180.486 444.55 180.549C443.241 180.604 441.994 181.121 441.03 182.009C440.519 182.359 440.095 182.821 439.79 183.36C439.485 183.899 439.307 184.501 439.27 185.119L446.24 185.079Z" fill="#115E49"/>
<path d="M483.53 175.839C483.553 177.381 483.21 178.906 482.53 180.289C482.297 180.899 481.887 181.424 481.352 181.796C480.817 182.169 480.182 182.372 479.53 182.379C478.871 182.383 478.22 182.232 477.63 181.939C477.058 181.655 476.429 181.505 475.79 181.499C474.591 181.448 473.412 181.819 472.46 182.549C472.062 182.841 471.739 183.222 471.515 183.661C471.291 184.101 471.173 184.586 471.17 185.079V196.629C471.178 197.264 471.151 197.898 471.09 198.529C471.002 199.034 470.822 199.519 470.56 199.959C470.4 200.235 470.186 200.475 469.932 200.668C469.678 200.86 469.388 201 469.08 201.079C468.165 201.327 467.218 201.438 466.27 201.409C465.485 201.425 464.701 201.334 463.94 201.139C463.423 201.021 462.936 200.796 462.51 200.479C462.167 200.18 461.917 199.787 461.79 199.349C461.643 198.944 461.553 198.52 461.52 198.089C461.52 197.739 461.52 197.219 461.52 196.519V177.209C461.512 176.578 461.539 175.948 461.6 175.319C461.682 174.817 461.852 174.333 462.1 173.889C462.251 173.612 462.458 173.368 462.707 173.173C462.957 172.979 463.244 172.838 463.55 172.759C464.465 172.512 465.412 172.401 466.36 172.429C467.268 172.404 468.175 172.516 469.05 172.759C469.617 172.889 470.123 173.21 470.48 173.669C470.696 173.976 470.865 174.313 470.98 174.669C471.056 174.957 471.093 175.253 471.09 175.549C471.334 175.217 471.601 174.903 471.89 174.609C472.562 174.021 473.308 173.523 474.11 173.129C475.168 172.527 476.362 172.204 477.58 172.189C478.149 172.193 478.718 172.239 479.28 172.329C479.934 172.437 480.579 172.594 481.21 172.799C481.882 173.004 482.483 173.396 482.94 173.929C483.359 174.475 483.569 175.153 483.53 175.839Z" fill="#115E49"/>
<path d="M508.66 175.839C508.679 177.381 508.336 178.905 507.66 180.289C507.424 180.896 507.012 181.419 506.478 181.791C505.944 182.163 505.311 182.368 504.66 182.379C504.004 182.384 503.356 182.233 502.77 181.939C502.194 181.655 501.562 181.505 500.92 181.499C499.724 181.449 498.549 181.821 497.6 182.549C497.199 182.839 496.873 183.219 496.647 183.659C496.421 184.098 496.302 184.585 496.3 185.079V196.629C496.313 197.264 496.286 197.898 496.22 198.529C496.136 199.034 495.959 199.519 495.7 199.959C495.369 200.514 494.834 200.916 494.21 201.079C493.298 201.327 492.354 201.438 491.41 201.409C490.621 201.425 489.834 201.335 489.07 201.139C488.553 201.019 488.067 200.794 487.64 200.479C487.3 200.179 487.054 199.786 486.93 199.349C486.781 198.944 486.687 198.52 486.65 198.089C486.65 197.739 486.65 197.219 486.65 196.519V177.209C486.639 176.578 486.669 175.947 486.74 175.319C486.818 174.818 486.984 174.334 487.23 173.889C487.383 173.611 487.592 173.367 487.843 173.173C488.094 172.979 488.382 172.838 488.69 172.759C489.602 172.512 490.545 172.4 491.49 172.429C492.401 172.405 493.311 172.516 494.19 172.759C494.755 172.894 495.259 173.214 495.62 173.669C495.834 173.976 495.999 174.313 496.11 174.669C496.191 174.956 496.228 175.252 496.22 175.549C496.467 175.22 496.734 174.906 497.02 174.609C497.696 174.022 498.446 173.524 499.25 173.129C500.305 172.527 501.495 172.204 502.71 172.189C503.283 172.193 503.854 172.24 504.42 172.329C505.071 172.437 505.713 172.594 506.34 172.799C507.017 173.001 507.621 173.393 508.08 173.929C508.492 174.478 508.698 175.154 508.66 175.839Z" fill="#115E49"/>
<path d="M533.63 172.429C534.55 172.394 535.47 172.495 536.36 172.729C536.67 172.809 536.959 172.953 537.211 173.151C537.462 173.349 537.67 173.597 537.82 173.879C538.062 174.336 538.228 174.829 538.31 175.339C538.381 175.97 538.411 176.604 538.4 177.239V196.489C538.411 197.124 538.381 197.758 538.31 198.389C538.228 198.89 538.063 199.373 537.82 199.819C537.665 200.095 537.456 200.336 537.205 200.529C536.954 200.721 536.666 200.861 536.36 200.939C535.448 201.187 534.505 201.298 533.56 201.269C532.346 201.376 531.127 201.118 530.06 200.529C529.721 200.272 529.44 199.945 529.236 199.571C529.033 199.197 528.911 198.784 528.88 198.359C527.547 200.299 525.347 201.269 522.28 201.269C518.947 201.269 515.947 199.822 513.28 196.929C510.637 194.203 509.175 190.546 509.21 186.749C509.202 184.894 509.56 183.056 510.263 181.34C510.967 179.624 512.002 178.064 513.31 176.749C516.037 173.869 519.037 172.429 522.31 172.429C523.48 172.413 524.641 172.637 525.72 173.089C526.498 173.385 527.224 173.803 527.87 174.329C528.238 174.674 528.572 175.052 528.87 175.459C528.891 175.012 529.007 174.575 529.21 174.176C529.414 173.778 529.7 173.428 530.05 173.149C531.143 172.552 532.391 172.301 533.63 172.429ZM523.79 191.729C524.419 191.739 525.042 191.611 525.616 191.353C526.19 191.096 526.7 190.716 527.11 190.239C527.968 189.354 528.451 188.172 528.46 186.939C528.442 185.72 527.984 184.548 527.17 183.639C526.744 183.133 526.208 182.732 525.603 182.465C524.998 182.198 524.341 182.073 523.68 182.099C523.019 182.08 522.362 182.209 521.757 182.475C521.151 182.741 520.613 183.139 520.18 183.639C519.33 184.553 518.852 185.751 518.84 186.999C518.844 187.613 518.974 188.219 519.219 188.781C519.465 189.343 519.823 189.849 520.27 190.269C520.723 190.743 521.27 191.118 521.876 191.369C522.482 191.621 523.134 191.743 523.79 191.729Z" fill="#115E49"/>
<path d="M290.12 304.618C307.186 304.618 321.02 290.784 321.02 273.718C321.02 256.653 307.186 242.818 290.12 242.818C273.054 242.818 259.22 256.653 259.22 273.718C259.22 290.784 273.054 304.618 290.12 304.618Z" fill="#E9F3F9"/>
<path d="M269.17 237.888C278.487 237.888 286.04 230.335 286.04 221.018C286.04 211.701 278.487 204.148 269.17 204.148C259.853 204.148 252.3 211.701 252.3 221.018C252.3 230.335 259.853 237.888 269.17 237.888Z" fill="#E9F3F9"/>
<path d="M305.36 666.728C299.563 666.729 293.889 665.055 289.02 661.908C288.505 661.599 288.082 661.158 287.796 660.631C287.509 660.103 287.369 659.508 287.39 658.908C287.39 657.248 288.48 654.915 290.66 651.908C290.974 651.428 291.41 651.04 291.923 650.784C292.436 650.527 293.008 650.411 293.58 650.448C295.46 650.574 297.272 651.199 298.83 652.258C301.637 653.858 304.017 654.658 305.97 654.658C309.46 654.658 311.21 653.978 311.21 652.598C311.21 652.028 310.67 651.538 309.58 651.138C308.24 650.678 306.856 650.36 305.45 650.188C303.613 649.914 301.812 649.437 300.08 648.768C298.202 648.08 296.4 647.202 294.7 646.148C292.893 644.95 291.461 643.265 290.57 641.288C289.427 638.826 288.869 636.132 288.94 633.418C288.94 624.358 295.16 619.828 307.6 619.828C311.948 619.893 316.232 620.892 320.16 622.758C322.16 623.678 323.16 624.938 323.16 626.538C322.965 628.218 322.342 629.819 321.35 631.188C320.017 633.248 318.683 634.278 317.35 634.278C316.33 634.184 315.338 633.892 314.43 633.418C312.252 632.337 309.862 631.749 307.43 631.698C304.05 631.698 302.36 632.328 302.36 633.588C302.39 634.08 302.565 634.552 302.865 634.944C303.164 635.336 303.573 635.63 304.04 635.788C305.373 636.386 306.795 636.761 308.25 636.898C312.038 637.412 315.723 638.516 319.17 640.168C320.973 641.112 322.446 642.585 323.39 644.388C324.569 646.622 325.144 649.124 325.06 651.648C325.153 654.343 324.579 657.019 323.39 659.438C322.35 661.451 320.692 663.077 318.66 664.078C316.7 665.055 314.618 665.764 312.47 666.188C310.122 666.587 307.742 666.768 305.36 666.728Z" fill="#115E49"/>
<path d="M374.36 637.448C374.36 641.228 373.487 643.965 371.74 645.658C370.988 646.446 370.087 647.076 369.09 647.512C368.093 647.948 367.018 648.181 365.93 648.198H345.59C345.59 649.798 346.537 651.132 348.43 652.198C350.283 653.282 352.393 653.848 354.54 653.838C356.007 653.843 357.472 653.726 358.92 653.488C359.937 653.342 360.941 653.112 361.92 652.798L362.87 652.458C363.938 651.906 365.11 651.583 366.31 651.508C368.137 651.508 369.713 652.798 371.04 655.378C371.701 656.614 372.083 657.979 372.16 659.378C372.16 664.478 366.053 667.028 353.84 667.028C349.958 667.101 346.104 666.355 342.53 664.838C339.52 663.595 336.872 661.614 334.83 659.078C333.061 656.812 331.683 654.267 330.75 651.548C329.864 648.947 329.411 646.217 329.41 643.468C329.41 636.248 331.743 630.472 336.41 626.138C341.077 621.805 346.91 619.642 353.91 619.648C356.535 619.617 359.149 620.009 361.65 620.808C363.762 621.455 365.742 622.471 367.5 623.808C369.023 625.013 370.346 626.45 371.42 628.068C372.413 629.534 373.179 631.143 373.69 632.838C374.131 634.335 374.357 635.888 374.36 637.448ZM356.22 640.368C358.39 640.368 359.48 639.458 359.48 637.618C359.499 637.007 359.373 636.401 359.112 635.848C358.851 635.295 358.463 634.812 357.98 634.438C356.711 633.558 355.181 633.135 353.64 633.238C351.593 633.323 349.642 634.127 348.13 635.508C346.303 637.028 345.387 638.648 345.38 640.368H356.22Z" fill="#115E49"/>
<path d="M423.68 637.448C423.68 641.228 422.807 643.965 421.06 645.658C420.308 646.446 419.407 647.076 418.41 647.512C417.413 647.948 416.338 648.181 415.25 648.198H394.87C394.87 649.798 395.817 651.132 397.71 652.198C399.56 653.28 401.667 653.846 403.81 653.838C405.28 653.843 406.749 653.726 408.2 653.488C409.217 653.342 410.221 653.112 411.2 652.798L412.15 652.458C413.218 651.906 414.39 651.583 415.59 651.508C417.423 651.508 419 652.798 420.32 655.378C420.978 656.614 421.357 657.98 421.43 659.378C421.43 664.478 415.327 667.028 403.12 667.028C399.238 667.101 395.384 666.355 391.81 664.838C388.799 663.598 386.15 661.617 384.11 659.078C382.334 656.817 380.954 654.271 380.03 651.548C379.144 648.947 378.691 646.217 378.69 643.468C378.69 636.248 381.023 630.472 385.69 626.138C390.357 621.805 396.19 619.642 403.19 619.648C405.815 619.617 408.429 620.009 410.93 620.808C413.042 621.455 415.022 622.471 416.78 623.808C418.303 625.01 419.623 626.448 420.69 628.068C421.686 629.534 422.455 631.142 422.97 632.838C423.425 634.333 423.664 635.886 423.68 637.448ZM405.53 640.368C407.71 640.368 408.8 639.458 408.8 637.618C408.819 637.007 408.693 636.401 408.432 635.848C408.171 635.295 407.783 634.812 407.3 634.438C406.027 633.558 404.494 633.135 402.95 633.238C400.906 633.322 398.958 634.127 397.45 635.508C395.61 637.028 394.7 638.648 394.7 640.368H405.53Z" fill="#115E49"/>
<path d="M466.36 599.439C467.811 599.398 469.259 599.57 470.66 599.949C471.143 600.079 471.595 600.307 471.987 600.619C472.379 600.93 472.703 601.318 472.94 601.759C473.314 602.474 473.574 603.243 473.71 604.039C473.81 605.035 473.854 606.037 473.84 607.039V658.379C473.854 659.38 473.811 660.382 473.71 661.379C473.576 662.169 473.298 662.928 472.89 663.619C472.638 664.05 472.303 664.428 471.905 664.73C471.507 665.032 471.053 665.252 470.57 665.379C469.141 665.771 467.661 665.946 466.18 665.899C461.83 665.899 459.42 664.489 458.96 661.689C456.56 664.382 453.2 665.729 448.88 665.729C443.72 665.729 439.017 663.479 434.77 658.979C432.711 656.86 431.089 654.357 429.998 651.611C428.907 648.866 428.367 645.933 428.41 642.979C428.397 637.144 430.703 631.543 434.82 627.409C439.087 622.882 443.773 620.619 448.88 620.619C453.12 620.619 456.417 622.052 458.77 624.919V606.919C458.751 605.917 458.794 604.915 458.9 603.919C459.023 603.136 459.284 602.381 459.67 601.689C459.911 601.255 460.237 600.875 460.629 600.571C461.021 600.267 461.47 600.045 461.95 599.919C463.389 599.544 464.874 599.382 466.36 599.439ZM445.72 648.439C446.408 649.184 447.246 649.775 448.178 650.175C449.11 650.575 450.116 650.774 451.13 650.759C452.128 650.782 453.118 650.586 454.032 650.185C454.946 649.785 455.761 649.188 456.42 648.439C457.761 647.054 458.517 645.206 458.53 643.279C458.506 641.374 457.796 639.542 456.53 638.119C455.865 637.325 455.028 636.695 454.081 636.277C453.134 635.86 452.104 635.665 451.07 635.709C450.034 635.669 449.002 635.861 448.05 636.269C447.097 636.677 446.246 637.292 445.56 638.069C444.251 639.49 443.517 641.347 443.5 643.279C443.503 644.245 443.699 645.201 444.077 646.091C444.455 646.98 445.007 647.785 445.7 648.459L445.72 648.439Z" fill="#115E49"/>
<path d="M497.36 666.728C491.563 666.73 485.888 665.056 481.02 661.908C480.503 661.601 480.079 661.16 479.793 660.632C479.506 660.104 479.367 659.509 479.39 658.908C479.39 657.248 480.477 654.915 482.65 651.908C482.966 651.428 483.404 651.04 483.918 650.784C484.433 650.527 485.006 650.412 485.58 650.448C487.457 650.572 489.267 651.197 490.82 652.258C493.627 653.858 496.007 654.658 497.96 654.658C501.46 654.658 503.21 653.978 503.21 652.598C503.21 652.028 502.66 651.538 501.57 651.138C500.234 650.678 498.853 650.36 497.45 650.188C495.61 649.915 493.805 649.439 492.07 648.768C490.196 648.078 488.397 647.2 486.7 646.148C484.89 644.953 483.458 643.267 482.57 641.288C481.427 638.826 480.869 636.132 480.94 633.418C480.94 624.358 487.16 619.828 499.6 619.828C503.945 619.893 508.225 620.892 512.15 622.758C514.15 623.678 515.15 624.938 515.15 626.538C514.96 628.217 514.34 629.819 513.35 631.188C512.017 633.248 510.683 634.278 509.35 634.278C508.33 634.185 507.338 633.893 506.43 633.418C504.251 632.337 501.861 631.75 499.43 631.698C496.05 631.698 494.36 632.328 494.36 633.588C494.389 634.079 494.563 634.55 494.86 634.942C495.158 635.334 495.565 635.628 496.03 635.788C497.366 636.386 498.792 636.761 500.25 636.898C504.038 637.412 507.723 638.516 511.17 640.168C512.974 641.108 514.444 642.582 515.38 644.388C516.562 646.621 517.141 649.123 517.06 651.648C517.15 654.344 516.573 657.019 515.38 659.438C514.345 661.455 512.686 663.083 510.65 664.078C508.691 665.056 506.609 665.766 504.46 666.188C502.115 666.587 499.738 666.768 497.36 666.728Z" fill="#115E49"/>
<g style="mix-blend-mode:multiply">
<g style="mix-blend-mode:multiply">
<path d="M403.24 573.349C445.777 573.349 480.26 566.056 480.26 557.06C480.26 548.063 445.777 540.77 403.24 540.77C360.703 540.77 326.22 548.063 326.22 557.06C326.22 566.056 360.703 573.349 403.24 573.349Z" fill="#A7A9AC"/>
</g>
</g>
<path d="M384.2 561.999C381.72 561.998 379.257 561.589 376.91 560.789L376.37 560.599C373.929 559.7 371.662 558.383 369.67 556.709L369.02 556.139C367.966 555.186 367.005 554.135 366.15 552.999C365.77 552.499 365.41 551.999 365.07 551.449C364.73 550.899 364.42 550.349 364.13 549.789C363.234 548.062 362.562 546.227 362.13 544.329L351.52 496.729H350.6C347.801 496.724 345.118 495.61 343.139 493.63C341.16 491.651 340.045 488.968 340.04 486.169V463.029C340.045 460.23 341.16 457.547 343.139 455.568C345.118 453.589 347.801 452.475 350.6 452.469H363.23C361.23 449.609 359.23 446.749 357.05 443.919C355.93 442.449 354.77 440.919 353.59 439.449C353.217 440.553 352.759 441.626 352.22 442.659C351.948 443.182 351.586 443.653 351.15 444.049L343.35 451.049C342.442 451.876 341.258 452.333 340.03 452.329C339.775 452.728 339.466 453.088 339.11 453.399L326.22 464.729C325.32 465.523 324.16 465.961 322.96 465.959C322.763 465.969 322.567 465.969 322.37 465.959C321.932 465.9 321.502 465.789 321.09 465.629C320.166 466.505 318.943 466.995 317.67 466.999C317.46 466.999 317.26 466.999 317.05 466.999C316.99 466.999 311.24 466.269 304.22 465.939L302.13 465.849L299.28 465.779H296.36H294.91L292.86 465.849H292.1L290.21 465.989H290.08C288.84 466.099 287.67 466.239 286.63 466.419H286.43C285.8 466.529 285.19 466.659 284.63 466.799L284.41 466.849C283.99 466.959 283.62 467.069 283.29 467.179C282.779 467.357 282.241 467.448 281.7 467.449C280.734 467.448 279.789 467.166 278.98 466.639C278.354 466.222 277.83 465.669 277.448 465.022C277.065 464.374 276.833 463.649 276.77 462.899C276.6 460.809 275.77 456.809 272.68 449.649L272.39 448.989L271.81 447.669L271.21 446.369C267.63 438.639 263.66 431.909 263.62 431.839C263.565 428.674 263.019 425.537 262 422.539L267.27 406.219C267.411 405.767 267.62 405.339 267.89 404.949C267.388 403.812 267.327 402.529 267.72 401.349L271.09 391.349C271.279 390.792 271.567 390.274 271.94 389.819C273.724 387.616 275.909 385.77 278.38 384.379C275.81 382.099 272.38 379.209 268.82 376.459L268.25 376.029L267.42 375.419C266.873 375.006 266.323 374.606 265.77 374.219L264.77 373.529L264.2 373.139C263.51 372.669 262.82 372.219 262.2 371.799L261.78 371.539C260.518 370.752 259.213 370.038 257.87 369.399L257.41 369.189C256.875 368.948 256.327 368.734 255.77 368.549C255.053 368.318 254.398 367.926 253.856 367.403C253.314 366.879 252.899 366.239 252.642 365.531C252.385 364.823 252.294 364.065 252.375 363.316C252.456 362.567 252.708 361.846 253.11 361.209C254.042 359.625 254.81 357.95 255.4 356.209L255.53 355.839C255.91 354.839 256.28 353.649 256.63 352.419C256.72 352.129 256.8 351.849 256.88 351.559C257.13 350.679 257.37 349.759 257.6 348.819C257.72 348.349 257.83 347.889 257.94 347.419C258.05 346.949 258.14 346.569 258.23 346.139C258.3 345.869 258.36 345.589 258.42 345.309C258.61 344.419 258.81 343.479 258.99 342.529C259.17 341.579 259.42 340.309 259.62 339.169C259.78 338.269 259.93 337.389 260.06 336.559C260.19 335.729 260.29 335.119 260.39 334.459V334.289C260.48 333.639 260.58 333.009 260.66 332.429V332.299C260.76 331.589 260.85 330.949 260.92 330.409L260.97 329.999C261.1 328.999 261.16 328.459 261.16 328.439C263.003 325.866 264.442 323.026 265.43 320.019L279.43 310.109C279.815 309.833 280.24 309.618 280.69 309.469C280.953 308.252 281.668 307.18 282.69 306.469L291.36 300.469C291.846 300.135 292.388 299.891 292.96 299.749C295.787 299.043 298.725 298.893 301.61 299.309C301.875 298.411 302.38 297.602 303.07 296.969C303.71 296.389 307.28 293.409 315.07 291.879C315.791 291.738 316.525 291.668 317.26 291.669C325.51 291.669 334.9 300.479 338.21 303.889C341.52 305.089 349.51 308.699 352.21 316.069C353.243 318.79 353.62 321.716 353.31 324.609L353.96 325.149C354.48 325.579 355.01 326.029 355.53 326.489L356.14 327.039L356.56 327.419L357.07 327.889C357.44 328.229 357.81 328.589 358.19 328.949L358.31 329.069L358.58 329.329C359.013 329.749 359.443 330.179 359.87 330.619L360.06 330.819C360.5 331.259 360.95 331.739 361.45 332.279L361.51 332.339C367.638 339.073 372.982 346.481 377.44 354.419C385.65 368.729 392.55 386.139 397.99 406.269C398.983 401.356 400.07 396.529 401.25 391.789C402.9 385.149 404.81 378.489 406.9 371.989C407.19 371.119 407.47 370.249 407.76 369.379L407.96 368.789C408.3 367.789 408.64 366.789 408.96 365.789C406.86 360.909 404.316 356.233 401.36 351.819C400.55 350.549 399.67 349.239 398.77 347.899C397.65 346.259 396.47 344.569 395.24 342.899L395.04 342.619C392.56 339.199 390.76 336.929 390.74 336.909C390.245 336.28 389.909 335.541 389.759 334.754C389.609 333.968 389.651 333.157 389.88 332.389C389.048 331.865 388.391 331.105 387.994 330.205C387.596 329.305 387.477 328.307 387.65 327.339L390.98 308.509C391.085 307.936 391.288 307.384 391.58 306.879C391.189 306.336 390.914 305.719 390.769 305.066C390.625 304.412 390.615 303.737 390.74 303.079L392.95 291.569C393.058 290.989 393.271 290.433 393.58 289.929C395.321 287.058 397.628 284.571 400.36 282.619C399.744 281.714 399.442 280.632 399.5 279.539C399.55 278.599 400.04 273.539 404.96 266.349C409.66 259.449 421.96 257.999 431.38 257.999H432.38C436.312 256.146 440.585 255.125 444.93 254.999C447.593 254.968 450.23 255.528 452.65 256.639C455.027 257.678 457.162 259.201 458.918 261.11C460.674 263.02 462.013 265.274 462.85 267.729C464.844 266.96 466.963 266.564 469.1 266.559C472.136 266.592 475.126 267.307 477.85 268.649C485.63 272.349 488.67 281.649 489.59 285.229C491.711 287.766 493.665 290.439 495.44 293.229C500.23 300.809 501.85 306.869 500.39 311.749C497.89 320.129 494.3 323.669 493.6 324.299C492.79 325.035 491.76 325.485 490.67 325.579C490.877 328.929 490.405 332.287 489.28 335.449C490.798 335.009 492.37 334.783 493.95 334.779C494.936 334.78 495.92 334.871 496.89 335.049C497.368 332.796 498.293 330.662 499.611 328.772C500.928 326.883 502.611 325.277 504.56 324.049C507.601 322.101 511.16 321.118 514.77 321.229C517.564 321.257 520.342 321.657 523.03 322.419C526.482 321.858 529.972 321.561 533.47 321.529C540.79 321.529 545.8 323.099 548.8 326.329C554.23 332.179 555.36 336.689 555.54 337.539C555.721 338.447 555.652 339.387 555.34 340.259C557.912 341.632 560.194 343.489 562.06 345.729C562.441 346.182 562.736 346.701 562.93 347.259L566.44 357.169C566.113 357.958 565.989 358.815 566.078 359.664C566.167 360.513 566.467 361.326 566.95 362.029L572.44 378.289C571.466 381.297 570.96 384.437 570.94 387.599C570.94 387.599 569.73 389.709 568.09 392.869C567.44 394.129 566.8 395.389 566.19 396.619L565.02 399.029L564.73 399.659C564.53 400.079 564.33 400.499 564.14 400.929L563.84 401.579C559.5 411.149 558.38 416.249 558.21 418.839C558.112 420.086 557.551 421.252 556.637 422.105C555.722 422.958 554.521 423.438 553.27 423.449C552.751 423.449 552.234 423.368 551.74 423.209C549.99 422.639 546.55 421.939 540.08 421.869H537.22H535.78C534.65 421.869 533.46 421.949 532.25 422.009C524.61 422.409 518.08 423.309 518.01 423.309C517.784 423.33 517.556 423.33 517.33 423.309C516.627 422.662 515.754 422.229 514.813 422.062C513.871 421.895 512.902 422.002 512.02 422.369C510.842 422.371 509.703 421.948 508.81 421.179L495.81 410.029C495.445 409.721 495.128 409.361 494.87 408.959H494.76C493.556 408.963 492.393 408.526 491.49 407.729L483.6 400.729C483.159 400.34 482.79 399.877 482.51 399.359C481.123 396.788 480.247 393.973 479.93 391.069C479.008 391.031 478.113 390.744 477.34 390.239C476.62 389.759 472.86 387.019 469.46 379.809C469.37 379.609 469.28 379.409 469.2 379.209C448.56 401.079 435.75 430.419 428.41 452.339H451.74C454.539 452.345 457.222 453.459 459.201 455.438C461.18 457.417 462.295 460.1 462.3 462.899V486.079C462.309 487.475 462.042 488.86 461.514 490.152C460.986 491.444 460.207 492.619 459.223 493.609C458.238 494.599 457.067 495.385 455.778 495.92C454.489 496.456 453.106 496.731 451.71 496.729H450.79L440.17 544.329C439.956 545.286 439.682 546.227 439.35 547.149C439.019 548.053 438.631 548.934 438.19 549.789C436.291 553.475 433.411 556.565 429.868 558.72C426.325 560.874 422.256 562.009 418.11 561.999H384.2ZM366.51 420.819L367.34 421.819C367.61 422.139 367.87 422.469 368.14 422.819C370.28 425.459 372.39 428.139 374.4 430.819C377.77 435.269 380.95 439.749 383.92 444.219C377.2 404.979 367.13 380.819 359.49 367.079C358.743 365.746 357.98 364.413 357.2 363.079C357.01 364.259 356.78 365.539 356.49 366.859C355.01 373.629 352.73 378.249 349.55 380.859C349.729 380.96 349.903 381.07 350.07 381.189C356.64 385.499 358.29 394.129 358.69 397.609C360.253 400.113 361.652 402.715 362.88 405.399C365.57 411.309 366.57 416.139 365.88 420.019L366.51 420.819ZM430.9 369.619C430.64 370.329 430.38 371.059 430.12 371.789C424.685 387.33 420.564 403.299 417.8 419.529C423.202 407.202 429.723 395.396 437.28 384.259C441.321 378.356 445.74 372.721 450.51 367.389C447.89 367.489 444.24 367.689 440.25 368.049L439.48 368.119L437.91 368.269C436.54 368.409 435.2 368.569 433.91 368.729L433.01 368.849L431.01 369.129L430.9 369.619Z" fill="#231F20"/>
<path d="M494.53 340.459C474.17 349.669 456.28 365.349 441.36 387.059C429.6 404.179 419.64 425.059 411.76 449.169C410.54 452.889 409.42 456.549 408.37 460.169C411.27 403.019 426.59 362.239 439.77 337.169C455.89 306.419 472.36 291.889 472.56 291.729L464.8 282.729C464.07 283.349 446.8 298.479 429.6 330.919C419.284 350.652 411.39 371.561 406.09 393.189C402.91 406.033 400.502 419.056 398.88 432.189C397.9 427.129 396.847 422.212 395.72 417.439C390.06 393.579 382.48 373.269 373.2 357.089C366.42 345.269 358.9 335.879 350.84 329.149C344.56 323.909 340.15 322.229 339.67 322.059L335.67 333.219H335.6C335.74 333.269 349.6 338.909 363.86 364.629C374.15 383.149 386.26 415.159 392.38 468.309C386.116 456.151 378.776 444.578 370.45 433.729C359.069 418.651 346.278 404.691 332.25 392.039L324.48 401.039C337.861 413.174 350.083 426.528 360.99 440.929C377.33 462.509 396.59 494.999 395.53 527.179L407.38 527.809C409.921 502.254 415.198 477.046 423.12 452.619C434.85 416.819 457.62 370.169 499.42 351.259L494.53 340.459Z" fill="#66BE64"/>
<g style="mix-blend-mode:multiply">
<path d="M364.3 425.918C354.531 413.806 343.814 402.49 332.25 392.078L324.48 401.078C336.291 411.781 347.198 423.44 357.09 435.938C359.832 432.856 362.249 429.498 364.3 425.918Z" fill="#4CA84E"/>
</g>
<g style="mix-blend-mode:multiply">
<path d="M417.49 371.729L418.6 371.448L418.96 371.369C420.38 371.029 421.86 370.728 423.37 370.448L424.43 370.268L425.43 370.109C429.397 358.777 434.179 347.749 439.74 337.109C455.89 306.419 472.36 291.889 472.56 291.729L464.8 282.729C464.07 283.349 446.8 298.479 429.6 330.919C422.387 344.64 416.385 358.964 411.66 373.729C413.421 372.959 415.24 372.33 417.1 371.849L417.49 371.729Z" fill="#4CA84E"/>
</g>
<g style="mix-blend-mode:multiply">
<path d="M499.42 351.269L494.53 340.459C488.53 343.18 482.784 346.43 477.36 350.169C476.979 351.704 476.735 353.271 476.63 354.849C476.63 354.849 470.37 364.459 469.63 371.849C478.299 363.323 488.378 356.36 499.42 351.269Z" fill="#4CA84E"/>
</g>
<path d="M502.36 343.11C500.271 341.115 497.545 339.92 494.662 339.738C491.779 339.555 488.924 340.395 486.6 342.11C480.66 346.11 480.27 356.11 480.27 356.11C480.27 356.11 470.67 370.87 473.92 377.78C476.92 384.1 480.06 386.19 480.06 386.19C480.06 386.19 479.36 372.64 492.92 360.73C493.281 360.399 493.746 360.204 494.235 360.179C494.724 360.153 495.206 360.299 495.6 360.59C495.77 360.707 495.915 360.858 496.026 361.033C496.138 361.207 496.213 361.403 496.247 361.607C496.282 361.811 496.275 362.02 496.227 362.221C496.18 362.423 496.092 362.613 495.97 362.78C494.69 365.27 479.2 382.91 486.84 397.15L494.73 404.15C494.73 404.15 490.62 383.69 501.5 371.62C501.5 371.62 504 369.62 504.03 373.25C504.06 376.88 494.26 394.12 499.03 406.4L512.03 417.55C512.03 417.55 505.35 399.96 511.1 385.49C511.278 385.033 511.618 384.657 512.055 384.433C512.492 384.21 512.995 384.156 513.47 384.28C514.36 384.51 515.15 385.22 514.81 387.1C514.12 390.85 511.69 407.81 517.33 418.5C517.33 418.5 542.43 415 553.27 418.5L502.36 343.11Z" fill="#66BE64"/>
<path d="M502.36 343.109C501.291 340.42 501.207 337.441 502.122 334.696C503.037 331.951 504.892 329.618 507.36 328.109C513.31 324.109 522.74 327.469 522.74 327.469C522.74 327.469 540.01 324.069 545.21 329.659C549.96 334.789 550.72 338.499 550.72 338.499C550.72 338.499 538.35 332.809 522.25 340.929C521.808 341.139 521.453 341.496 521.247 341.94C521.041 342.384 520.996 342.886 521.12 343.359C521.165 343.562 521.25 343.755 521.37 343.925C521.491 344.094 521.644 344.238 521.822 344.347C521.999 344.457 522.196 344.529 522.402 344.56C522.608 344.591 522.818 344.581 523.02 344.529C525.8 344.259 547.94 336.529 558.31 348.879L561.81 358.789C561.81 358.789 544.36 347.359 529.06 352.949C529.06 352.949 526.26 354.509 529.63 355.899C533 357.289 552.63 354.619 562.27 363.589L567.75 379.849C567.75 379.849 553.93 367.089 538.36 367.029C537.87 367.025 537.396 367.201 537.027 367.524C536.659 367.846 536.421 368.293 536.36 368.779C536.25 369.679 536.61 370.689 538.48 371.069C542.22 371.829 558.86 375.899 566.67 385.069C566.67 385.069 554.06 407.069 553.29 418.429L502.36 343.109Z" fill="#4CA84E"/>
<g style="mix-blend-mode:multiply">
<path d="M538.36 367.028C553.94 367.088 567.76 379.848 567.76 379.848L562.28 363.588C552.64 354.588 533 357.288 529.64 355.898C531.18 373.298 519.12 381.508 513.64 384.288C514.44 384.578 515.1 385.288 514.78 387.048C514.09 390.798 511.66 407.758 517.3 418.448C517.3 418.448 542.4 414.948 553.24 418.448C554.01 407.078 566.62 385.088 566.62 385.088C558.81 375.868 542.17 371.798 538.43 371.088C536.56 370.708 536.2 369.698 536.31 368.798C536.367 368.3 536.61 367.842 536.99 367.514C537.37 367.186 537.859 367.013 538.36 367.028Z" fill="#4CA84E"/>
</g>
<g style="mix-blend-mode:multiply">
<path d="M339.67 322.1L335.67 333.26H335.6C335.72 333.26 346 337.5 358 355.13C358.26 352.98 358.34 351.54 358.34 351.54C358.34 351.54 361.87 346.26 362.08 340.71C358.728 336.523 354.977 332.672 350.88 329.21C350.32 328.74 349.77 328.31 349.24 327.89C348.882 327.896 348.524 327.927 348.17 327.98C348.17 327.98 348.41 327.83 348.8 327.55C346.032 325.307 342.957 323.472 339.67 322.1Z" fill="#4CA84E"/>
</g>
<path d="M342.79 333.01C345.222 331.47 347.035 329.122 347.909 326.379C348.783 323.636 348.663 320.673 347.57 318.01C345.13 311.26 335.52 308.44 335.52 308.44C335.52 308.44 323.57 295.52 316.07 296.99C309.21 298.33 306.41 300.88 306.41 300.88C306.41 300.88 319.76 303.56 328 319.61C328.232 320.04 328.306 320.538 328.211 321.018C328.117 321.498 327.858 321.929 327.48 322.24C327.324 322.377 327.142 322.481 326.945 322.546C326.747 322.612 326.539 322.637 326.332 322.62C326.125 322.603 325.923 322.545 325.739 322.449C325.555 322.352 325.392 322.22 325.26 322.06C323.17 320.22 309.85 300.89 294.17 304.81L285.5 310.73C285.5 310.73 306.36 311.73 315.36 325.24C315.36 325.24 316.7 328.16 313.17 327.3C309.64 326.44 295.36 312.73 282.28 314.31L268.28 324.22C268.28 324.22 286.97 322.04 299.59 331.16C299.99 331.443 300.272 331.863 300.383 332.34C300.493 332.818 300.425 333.319 300.19 333.75C299.75 334.55 298.87 335.16 297.13 334.36C293.66 332.78 277.81 326.27 266.07 329.13C266.07 329.13 263.32 354.33 257.25 363.98L342.79 333.01Z" fill="#66BE64"/>
<path d="M342.79 333.009C345.653 332.633 348.557 333.279 350.99 334.834C353.423 336.389 355.229 338.753 356.09 341.509C358.54 348.249 352.96 356.569 352.96 356.569C352.96 356.569 352.04 374.149 345.34 377.819C339.21 381.179 335.43 381.009 335.43 381.009C335.43 381.009 343.97 370.409 340.02 352.809C339.926 352.328 339.667 351.895 339.286 351.587C338.906 351.278 338.43 351.112 337.94 351.119C337.23 351.119 336.54 351.469 336.36 352.669C335.93 355.429 338.07 378.809 323.51 385.829L313.04 386.829C313.04 386.829 328.36 372.729 326.71 356.519C326.71 356.519 325.88 353.419 323.71 356.339C321.54 359.259 319.32 378.969 308.27 386.109L291.17 387.459C291.17 387.459 306.92 377.169 310.78 362.079C310.905 361.605 310.851 361.103 310.63 360.666C310.409 360.229 310.035 359.889 309.58 359.709C308.73 359.379 307.67 359.479 306.84 361.199C305.19 364.639 297.18 379.779 286.32 385.099C286.32 385.099 268.09 367.499 257.25 363.979L342.79 333.009Z" fill="#4CA84E"/>
<g style="mix-blend-mode:multiply">
<path d="M310.78 362.079C306.92 377.169 291.17 387.459 291.17 387.459L308.27 386.109C319.32 378.969 321.54 359.259 323.71 356.339C306.46 353.589 301.45 339.879 300.08 333.929C299.61 334.639 298.74 335.099 297.08 334.359C293.61 332.779 277.76 326.269 266.02 329.129C266.02 329.129 263.27 354.329 257.2 363.979C268.04 367.499 286.27 385.099 286.27 385.099C297.13 379.779 305.14 364.639 306.79 361.199C307.62 359.479 308.68 359.379 309.53 359.709C309.995 359.88 310.38 360.216 310.611 360.654C310.841 361.092 310.902 361.6 310.78 362.079Z" fill="#4CA84E"/>
</g>
<path d="M458.51 276.779C459.239 273.641 458.836 270.347 457.372 267.478C455.909 264.609 453.478 262.349 450.51 261.099C443.29 257.659 433.51 262.959 433.51 262.959C433.51 262.959 413.91 262.079 409.12 269.119C404.73 275.559 404.51 279.769 404.51 279.769C404.51 279.769 417.19 271.439 436.3 277.709C436.82 277.868 437.269 278.204 437.568 278.659C437.867 279.113 437.999 279.658 437.94 280.199C437.86 280.989 437.41 281.719 436.05 281.799C432.94 281.969 407.23 277.079 397.88 292.479L395.67 303.989C395.67 303.989 412.99 288.469 430.75 292.079C430.75 292.079 434.09 293.339 430.62 295.429C427.15 297.519 405.04 297.859 395.92 309.349L392.59 328.189C392.59 328.189 405.7 311.819 422.85 309.189C423.385 309.09 423.937 309.192 424.401 309.477C424.864 309.761 425.206 310.207 425.36 310.729C425.64 311.729 425.36 312.879 423.36 313.609C419.36 315.079 401.7 322.329 394.64 333.799C394.64 333.799 412.2 355.929 414.94 368.339L458.51 276.779Z" fill="#66BE64"/>
<path d="M458.51 276.779C460.485 274.236 463.294 272.471 466.442 271.796C469.591 271.121 472.876 271.579 475.72 273.089C482.94 276.519 485.04 287.489 485.04 287.489C485.04 287.489 498.09 302.149 495.65 310.299C493.42 317.779 490.29 320.599 490.29 320.599C490.29 320.599 488.75 305.499 471.83 294.599C471.377 294.284 470.826 294.141 470.277 294.194C469.727 294.247 469.215 294.493 468.83 294.889C468.664 295.051 468.533 295.243 468.443 295.456C468.353 295.669 468.306 295.898 468.306 296.129C468.306 296.361 468.353 296.589 468.443 296.802C468.533 297.015 468.664 297.208 468.83 297.369C470.66 299.889 490.67 316.749 484.63 333.719L477.09 342.719C477.09 342.719 478.2 319.479 464.2 307.989C464.2 307.989 461.11 306.189 461.68 310.199C462.25 314.209 475.93 331.579 472.76 345.909L460.26 360.369C460.26 360.369 464.68 339.869 455.93 324.879C455.661 324.402 455.225 324.042 454.706 323.869C454.187 323.695 453.622 323.72 453.12 323.939C452.18 324.349 451.42 325.249 452.12 327.269C453.5 331.269 459.02 349.579 454.58 362.269C454.58 362.269 426.33 362.599 414.97 368.269L458.51 276.779Z" fill="#4CA84E"/>
<g style="mix-blend-mode:multiply">
<path d="M455.92 324.899C464.67 339.899 460.25 360.388 460.25 360.388L472.75 345.929C475.92 331.599 462.24 314.239 461.67 310.229C445.83 321.559 431.12 314.609 425.37 310.969C425.55 311.899 425.22 312.969 423.37 313.619C419.37 315.089 401.71 322.339 394.65 333.809C394.65 333.809 412.21 355.939 414.95 368.349C426.31 362.649 454.56 362.349 454.56 362.349C459 349.629 453.48 331.349 452.1 327.349C451.41 325.349 452.17 324.429 453.1 324.019C453.596 323.791 454.158 323.756 454.679 323.918C455.199 324.081 455.641 324.43 455.92 324.899Z" fill="#4CA84E"/>
</g>
<path d="M331.62 386.55C332.648 383.85 332.692 380.873 331.742 378.144C330.793 375.416 328.912 373.109 326.43 371.63C320.43 367.69 311.05 371.2 311.05 371.2C311.05 371.2 293.74 368.02 288.62 373.68C283.93 378.87 283.22 382.59 283.22 382.59C283.22 382.59 295.51 376.73 311.72 384.65C312.165 384.852 312.524 385.205 312.736 385.645C312.948 386.085 312.999 386.586 312.88 387.06C312.839 387.264 312.757 387.457 312.639 387.628C312.521 387.799 312.37 387.945 312.194 388.056C312.018 388.167 311.822 388.242 311.617 388.275C311.412 388.308 311.202 388.3 311 388.25C308.22 388.02 286 380.53 275.77 393.07L272.4 403.07C272.4 403.07 289.69 391.39 305.03 396.78C305.03 396.78 307.85 398.31 304.5 399.78C301.15 401.25 281.5 398.78 271.97 407.91L266.7 424.23C266.7 424.23 280.35 411.29 295.93 411.03C296.414 411.025 296.883 411.195 297.251 411.51C297.619 411.824 297.86 412.261 297.93 412.74C298.05 413.65 297.71 414.66 295.85 415.07C292.11 415.88 275.53 420.17 267.85 429.49C267.85 429.49 280.75 451.31 281.67 462.67L331.62 386.55Z" fill="#66BE64"/>
<path d="M331.62 386.549C333.685 384.53 336.395 383.305 339.275 383.089C342.154 382.873 345.017 383.681 347.36 385.369C353.36 389.309 353.88 399.309 353.88 399.309C353.88 399.309 363.68 413.929 360.51 420.889C357.62 427.249 354.51 429.379 354.51 429.379C354.51 429.379 354.99 415.769 341.29 404.049C340.925 403.723 340.459 403.533 339.97 403.513C339.481 403.493 339 403.644 338.61 403.939C338.441 404.059 338.297 404.212 338.188 404.388C338.078 404.565 338.006 404.762 337.974 404.967C337.943 405.172 337.952 405.382 338.003 405.583C338.054 405.784 338.145 405.973 338.27 406.139C339.58 408.599 355.27 426.039 347.85 440.379L340.05 447.439C340.05 447.439 343.89 426.919 332.85 414.989C332.85 414.989 330.33 412.989 330.34 416.659C330.35 420.329 340.34 437.389 335.82 449.739L322.94 461.069C322.94 461.069 329.38 443.389 323.44 428.999C323.258 428.541 322.914 428.166 322.473 427.947C322.032 427.727 321.525 427.678 321.05 427.809C320.17 428.059 319.38 428.809 319.75 430.649C320.49 434.389 323.15 451.319 317.65 462.079C317.65 462.079 292.5 458.919 281.71 462.589L331.62 386.549Z" fill="#4CA84E"/>
<g style="mix-blend-mode:multiply">
<path d="M323.42 428.999C329.36 443.389 322.92 461.069 322.92 461.069L335.8 449.729C340.36 437.389 330.36 420.289 330.36 416.659C314.9 424.789 302.68 416.809 298.02 412.869C298.02 413.719 297.64 414.609 295.92 414.989C292.18 415.799 275.6 420.089 267.92 429.409C267.92 429.409 280.82 451.229 281.74 462.589C292.53 458.919 317.68 462.079 317.68 462.079C323.18 451.319 320.52 434.389 319.78 430.649C319.41 428.769 320.2 428.059 321.08 427.809C321.548 427.692 322.042 427.748 322.472 427.966C322.902 428.185 323.239 428.552 323.42 428.999Z" fill="#4CA84E"/>
</g>
<path d="M556.747 389.18C558.61 386.446 557.449 382.41 554.155 380.164C550.86 377.918 546.678 378.313 544.815 381.047C542.952 383.78 544.112 387.817 547.407 390.063C550.702 392.309 554.883 391.913 556.747 389.18Z" fill="white"/>
<path d="M467.765 291.48C469.509 287.469 468.463 283.148 465.429 281.829C462.395 280.51 458.522 282.693 456.778 286.705C455.035 290.717 456.081 295.038 459.115 296.356C462.149 297.675 466.022 295.492 467.765 291.48Z" fill="white"/>
<path d="M542.79 379.089C544.005 379.089 544.99 378.104 544.99 376.889C544.99 375.674 544.005 374.689 542.79 374.689C541.575 374.689 540.59 375.674 540.59 376.889C540.59 378.104 541.575 379.089 542.79 379.089Z" fill="white"/>
<path d="M506.89 341.9C508.105 341.9 509.09 340.915 509.09 339.7C509.09 338.485 508.105 337.5 506.89 337.5C505.675 337.5 504.69 338.485 504.69 339.7C504.69 340.915 505.675 341.9 506.89 341.9Z" fill="white"/>
<path d="M451.15 275.89C453.232 275.89 454.92 274.202 454.92 272.12C454.92 270.037 453.232 268.35 451.15 268.35C449.068 268.35 447.38 270.037 447.38 272.12C447.38 274.202 449.068 275.89 451.15 275.89Z" fill="white"/>
<path d="M471.02 282.769C472.235 282.769 473.22 281.784 473.22 280.569C473.22 279.354 472.235 278.369 471.02 278.369C469.805 278.369 468.82 279.354 468.82 280.569C468.82 281.784 469.805 282.769 471.02 282.769Z" fill="white"/>
<path d="M515.32 336.459C518.761 336.459 521.55 334.874 521.55 332.919C521.55 330.964 518.761 329.379 515.32 329.379C511.879 329.379 509.09 330.964 509.09 332.919C509.09 334.874 511.879 336.459 515.32 336.459Z" fill="white"/>
<path d="M418.11 557.049H384.2C380.187 557.052 376.292 555.686 373.16 553.177C370.027 550.668 367.844 547.166 366.97 543.249L351.64 474.619H450.64L435.36 543.249C434.486 547.17 432.299 550.674 429.163 553.184C426.026 555.693 422.127 557.057 418.11 557.049Z" fill="#293995"/>
<path d="M435.8 474.619L420.47 543.249C419.596 547.166 417.413 550.668 414.28 553.177C411.148 555.686 407.253 557.052 403.24 557.049H418.11C422.127 557.057 426.026 555.693 429.163 553.184C432.299 550.674 434.486 547.17 435.36 543.249L450.69 474.619H435.8Z" fill="#4A62AD"/>
<g style="mix-blend-mode:multiply" opacity="0.51">
<path d="M351.64 474.619L357.09 498.989H416.36C416.36 498.989 421.48 539.129 366.96 543.249C367.834 547.166 370.017 550.668 373.15 553.177C376.282 555.686 380.177 557.052 384.19 557.049H418.1C422.119 557.059 426.02 555.696 429.159 553.187C432.297 550.677 434.485 547.171 435.36 543.249L450.69 474.619H351.64Z" fill="#2A2762"/>
</g>
<path d="M451.71 457.42H350.6C347.502 457.42 344.99 459.932 344.99 463.03V486.22C344.99 489.318 347.502 491.83 350.6 491.83H451.71C454.808 491.83 457.32 489.318 457.32 486.22V463.03C457.32 459.932 454.808 457.42 451.71 457.42Z" fill="#293995"/>
<path d="M443.61 476.37C447.459 476.37 450.58 473.249 450.58 469.4C450.58 465.55 447.459 462.43 443.61 462.43C439.761 462.43 436.64 465.55 436.64 469.4C436.64 473.249 439.761 476.37 443.61 476.37Z" fill="white"/>
</g>
<defs>
<clipPath id="clip0_4906_1632">
<rect width="619.18" height="843.8" fill="white"/>
</clipPath>
</defs>
</svg>
