<svg width="620" height="839" viewBox="0 0 620 839" fill="none" xmlns="http://www.w3.org/2000/svg">
<g clip-path="url(#clip0_4738_357)">
<path d="M309.59 838.58C480.572 838.58 619.18 809.519 619.18 773.67C619.18 737.821 480.572 708.76 309.59 708.76C138.608 708.76 0 737.821 0 773.67C0 809.519 138.608 838.58 309.59 838.58Z" fill="#A7A9AC"/>
<path d="M161.71 785.6C158.903 785.6 156.127 785.008 153.563 783.864C150.999 782.719 148.705 781.048 146.83 778.959C144.955 776.87 143.54 774.409 142.679 771.737C141.817 769.065 141.528 766.241 141.83 763.45C141.83 763.33 141.96 762.2 142.12 760.26C142.12 759.76 142.2 759.26 142.24 758.65C142.46 755.65 142.76 750.95 142.92 745.23C142.92 744.23 142.92 743.23 142.99 742.13V740.5C142.99 739.43 142.99 738.31 142.99 737.18C142.99 732.25 142.87 727.42 142.62 722.82C142.49 720.26 142.31 717.73 142.09 715.32C141.98 714.07 141.86 712.82 141.72 711.56C141.58 710.3 141.44 709.08 141.28 707.84C141.12 706.6 140.95 705.38 140.76 704.16C140.66 703.56 140.57 702.95 140.47 702.35C140.27 701.15 140.05 699.96 139.82 698.78C139.71 698.21 139.59 697.63 139.47 697.06C138.708 693.293 137.706 689.579 136.47 685.94C136.31 685.47 136.14 685 135.96 684.54C135.336 682.836 134.622 681.167 133.82 679.54C133.28 678.45 132.71 677.43 132.13 676.54C130.55 674.02 128.86 671.38 126.96 668.48C125.34 666.01 123.78 663.68 122.29 661.48L122.05 661.12C120.41 658.67 118.85 656.32 117.36 654.04C116.32 652.447 115.32 650.88 114.36 649.34C113.3 647.65 112.36 646.07 111.46 644.54C110.46 642.82 109.56 641.19 108.7 639.54C106.849 636.044 105.2 632.445 103.76 628.76C103.01 626.84 102.31 624.87 101.69 622.91C100.69 619.91 99.9001 616.72 99.2101 613.51C97.2788 603.876 96.3637 594.065 96.4801 584.24V201.42C96.4245 193.866 96.9359 186.318 98.0101 178.84C98.9464 172.35 100.514 165.966 102.69 159.78C103.03 158.78 103.39 157.84 103.76 156.9C104.48 155.04 105.27 153.18 106.12 151.35C106.52 150.47 106.94 149.59 107.37 148.71C108.2 147.03 109.1 145.32 110.06 143.6C111.02 141.88 111.86 140.42 112.89 138.71C113.8 137.2 114.77 135.65 115.89 133.97C117.89 130.82 120.03 127.63 122.09 124.54L122.28 124.26C125.42 119.55 128.67 114.69 132.17 109.08C134.212 105.665 135.834 102.015 137 98.2101C138.362 93.899 139.437 89.5028 140.22 85.05C140.427 83.8567 140.627 82.6567 140.82 81.4501C141.69 75.7601 142.32 69.45 142.68 62.78C142.93 58.19 143.06 53.35 143.05 48.42C143.05 33.48 141.86 22.25 141.85 22.14C141.55 19.3496 141.84 16.5273 142.702 13.8564C143.564 11.1856 144.979 8.72605 146.854 6.63782C148.729 4.54958 151.023 2.87933 153.586 1.73572C156.149 0.592108 158.924 0.000726945 161.73 5.61022e-09H529.16C531.906 -6.50347e-05 534.623 0.565383 537.141 1.66113C539.659 2.75688 541.924 4.35949 543.796 6.36902C545.668 8.37854 547.105 10.752 548.02 13.3414C548.934 15.9309 549.305 18.6809 549.11 21.42C549.11 21.67 549.11 21.92 549.04 22.17C549.04 22.17 548.95 23.0701 548.95 23.1001L548.78 25.1001C548.78 25.1001 548.71 25.96 548.7 26.01C548.63 26.93 548.55 28.0101 548.48 29.1901L548.39 30.54C548.27 32.54 548.17 34.61 548.08 36.64V36.7101C547.96 39.7801 547.88 42.87 547.85 45.89V45.99C547.85 49.51 547.85 52.99 547.95 56.37C547.955 56.4232 547.955 56.4768 547.95 56.53C548.03 59.53 548.17 62.53 548.36 65.36V65.55C548.36 66.22 548.45 66.9 548.5 67.55V67.7201C548.56 68.5301 548.62 69.2501 548.69 69.9701C550.61 92.2001 555.19 103.54 558.69 109.15C562.19 114.76 565.46 119.66 568.61 124.38C582.99 145.9 594.34 162.91 594.34 201.49V584.26C594.34 614.58 587.5 631.65 576.46 649.35C575.46 650.89 574.46 652.45 573.46 654.05C572.46 655.65 571.46 657.15 570.36 658.75L567.81 662.58C566.53 664.49 565.22 666.46 563.86 668.58C561.96 671.48 560.26 674.12 558.69 676.65C558.11 677.57 557.54 678.59 557 679.65C556.202 681.279 555.488 682.948 554.86 684.65C554.68 685.11 554.51 685.58 554.35 686.05C553.116 689.686 552.114 693.397 551.35 697.16C551.23 697.73 551.11 698.32 551 698.9C550.77 700.08 550.55 701.27 550.35 702.46C550.25 703.05 550.16 703.65 550.06 704.26C549.87 705.49 549.7 706.72 549.54 707.94C549.38 709.16 549.23 710.43 549.1 711.67C548.97 712.91 548.84 714.18 548.73 715.43V715.8C548.66 716.54 548.6 717.26 548.55 717.98V718.18C548.55 718.91 548.45 719.58 548.41 720.26V720.44C548.22 723.3 548.08 726.28 548 729.28V729.36C547.9 732.827 547.867 736.327 547.9 739.86V739.92C547.9 742.92 548.01 745.98 548.13 749.03V749.12C548.22 751.12 548.32 753.19 548.44 755.19C548.44 755.19 548.52 756.5 548.52 756.52C548.6 757.76 548.69 758.87 548.76 759.82L548.9 761.54L549.1 763.65C549.388 766.435 549.089 769.25 548.221 771.911C547.353 774.573 545.935 777.023 544.06 779.103C542.185 781.182 539.895 782.845 537.337 783.983C534.779 785.121 532.01 785.709 529.21 785.71L161.71 785.6Z" fill="#231F20"/>
<path d="M161.71 765.61C161.71 765.61 169.05 697.82 149.11 665.93C129.17 634.04 116.5 624.06 116.5 584.19V201.42C116.5 161.55 129.18 151.58 149.11 119.68C169.04 87.7801 161.71 20 161.71 20H515.86C515.86 20 523.2 87.7801 503.26 119.68C483.32 151.58 470.65 161.54 470.65 201.42V584.19C470.65 624.06 483.33 634.03 503.26 665.93C523.19 697.83 515.86 765.61 515.86 765.61H161.71Z" fill="#71A29E"/>
<path d="M183.7 665.93C163.76 634.03 151.09 624.06 151.09 584.19V201.42C151.09 161.55 163.76 151.58 183.7 119.68C203.64 87.7801 196.3 20 196.3 20H161.71C161.71 20 169.05 87.7801 149.11 119.68C129.17 151.58 116.5 161.55 116.5 201.42V584.19C116.5 624.06 129.18 634.03 149.11 665.93C169.04 697.83 161.71 765.61 161.71 765.61H196.3C196.3 765.61 203.63 697.82 183.7 665.93Z" fill="#587B75"/>
<path d="M529.16 765.61C529.16 765.61 521.82 697.82 541.76 665.93C561.7 634.04 574.37 624.06 574.37 584.19V201.42C574.37 161.55 561.69 151.58 541.76 119.68C521.83 87.7801 529.16 20 529.16 20H175.01C175.01 20 167.67 87.7801 187.61 119.68C207.55 151.58 220.22 161.55 220.22 201.42V584.19C220.22 624.06 207.55 634.03 187.61 665.93C167.67 697.83 175.01 765.61 175.01 765.61H529.16Z" fill="#C5E6DC"/>
<path d="M574.37 323.03H220.22V462.54H574.37V323.03Z" fill="#48BEA2"/>
<path d="M401.25 541.32C483.275 541.32 549.77 474.825 549.77 392.8C549.77 310.774 483.275 244.28 401.25 244.28C319.225 244.28 252.73 310.774 252.73 392.8C252.73 474.825 319.225 541.32 401.25 541.32Z" fill="#FAF28C"/>
<path d="M529.16 20H175.01C173.409 37.1676 173.282 54.4407 174.63 71.63H528.78C527.426 54.441 527.553 37.1673 529.16 20Z" fill="#98CFC0"/>
<path d="M174.63 713.97C173.281 731.163 173.409 748.439 175.01 765.61H529.16C527.553 748.44 527.426 731.163 528.78 713.97H174.63Z" fill="#98CFC0"/>
<g style="mix-blend-mode:multiply">
<path d="M219.57 598.54C216.74 627.06 204.92 638.24 187.62 665.92C167.68 697.81 175.02 765.6 175.02 765.6H529.16C529.16 765.6 521.82 697.81 541.76 665.92C561.7 634.03 574.37 624.05 574.37 584.18V201.42C574.37 201.42 550.56 598.54 219.57 598.54Z" fill="#CEEAE2"/>
</g>
<path d="M523.96 593.2C543.185 593.2 558.77 577.615 558.77 558.39C558.77 539.165 543.185 523.58 523.96 523.58C504.735 523.58 489.15 539.165 489.15 558.39C489.15 577.615 504.735 593.2 523.96 593.2Z" fill="#E9F3F9"/>
<g style="mix-blend-mode:multiply">
<path d="M574.37 584.19V499.08L572.43 496.96C572.43 496.96 560.78 675.91 187.61 665.96C167.67 697.85 175.01 765.64 175.01 765.64H529.16C529.16 765.64 521.82 697.85 541.76 665.96C561.7 634.07 574.37 624.06 574.37 584.19Z" fill="#CEEAE2"/>
</g>
<path d="M306.96 213.23C307.479 214.254 307.817 215.36 307.96 216.5C307.96 218.086 306.66 219.42 304.06 220.5C302.997 221.018 301.841 221.317 300.66 221.38C299.995 221.394 299.344 221.186 298.81 220.79C298.347 220.465 297.959 220.046 297.67 219.56C297.44 219.14 297.14 218.49 296.76 217.56C295.84 215.46 294.507 212.316 292.76 208.13L290.76 208.25H282.83V215.36C282.841 216.084 282.811 216.809 282.74 217.53C282.644 218.115 282.441 218.678 282.14 219.19C281.964 219.517 281.723 219.805 281.433 220.037C281.142 220.269 280.808 220.44 280.45 220.54C279.409 220.828 278.33 220.957 277.25 220.92C276.337 220.944 275.424 220.839 274.54 220.61C273.953 220.462 273.4 220.204 272.91 219.85C272.502 219.516 272.206 219.066 272.06 218.56C271.889 218.096 271.782 217.612 271.74 217.12C271.74 216.72 271.74 216.12 271.74 215.32V180.42C271.726 179.695 271.759 178.97 271.84 178.25C271.937 177.666 272.137 177.104 272.43 176.59C272.611 176.267 272.854 175.984 273.146 175.757C273.438 175.53 273.773 175.365 274.13 175.27C275.175 174.982 276.257 174.854 277.34 174.89H290.92C292.779 174.892 294.622 175.231 296.36 175.89C298.277 176.611 300.071 177.622 301.68 178.89C303.449 180.309 304.868 182.116 305.83 184.17C306.939 186.488 307.497 189.031 307.46 191.6C307.529 193.769 307.146 195.928 306.336 197.94C305.525 199.953 304.304 201.775 302.75 203.29C303.63 205.563 305.033 208.876 306.96 213.23ZM282.81 197.23H290.81C292.146 197.189 293.431 196.704 294.46 195.85C295.034 195.317 295.491 194.672 295.804 193.954C296.117 193.237 296.279 192.463 296.279 191.68C296.279 190.897 296.117 190.123 295.804 189.405C295.491 188.688 295.034 188.042 294.46 187.51C293.399 186.627 292.07 186.13 290.69 186.1H282.76L282.81 197.23Z" fill="#115E49"/>
<path d="M342.05 200.21C342.05 202.977 341.413 204.977 340.14 206.21C339.591 206.787 338.932 207.248 338.202 207.567C337.472 207.887 336.686 208.058 335.89 208.07H320.99C321.022 208.713 321.232 209.335 321.598 209.865C321.964 210.395 322.47 210.812 323.06 211.07C324.419 211.855 325.961 212.265 327.53 212.26C328.602 212.266 329.672 212.183 330.73 212.01C331.478 211.899 332.217 211.731 332.94 211.51L333.63 211.25C334.41 210.848 335.264 210.613 336.14 210.56C337.48 210.56 338.64 211.56 339.6 213.39C340.084 214.284 340.364 215.275 340.42 216.29C340.42 220.023 335.953 221.887 327.02 221.88C324.182 221.934 321.364 221.389 318.75 220.28C316.55 219.371 314.616 217.919 313.13 216.06C310.553 212.814 309.144 208.795 309.13 204.65C309.13 199.37 310.84 195.147 314.26 191.98C316.757 189.823 319.759 188.334 322.988 187.652C326.216 186.97 329.564 187.117 332.72 188.08C334.262 188.556 335.707 189.301 336.99 190.28C338.105 191.156 339.07 192.206 339.85 193.39C340.581 194.462 341.144 195.638 341.52 196.88C341.854 197.959 342.032 199.081 342.05 200.21ZM328.78 202.35C330.38 202.35 331.17 201.68 331.17 200.35C331.184 199.904 331.092 199.46 330.901 199.057C330.709 198.653 330.424 198.301 330.07 198.03C329.143 197.387 328.026 197.077 326.9 197.15C325.413 197.216 323.997 197.804 322.9 198.81C322.32 199.214 321.839 199.744 321.492 200.361C321.146 200.977 320.943 201.664 320.9 202.37L328.78 202.35Z" fill="#115E49"/>
<path d="M373.25 172.41C374.31 172.381 375.368 172.509 376.39 172.79C376.745 172.882 377.076 173.047 377.364 173.274C377.652 173.502 377.889 173.786 378.06 174.11C378.336 174.633 378.525 175.197 378.62 175.78C378.701 176.501 378.734 177.225 378.72 177.95V215.54C378.734 216.265 378.701 216.99 378.62 217.71C378.525 218.288 378.325 218.844 378.03 219.35C377.651 219.981 377.041 220.44 376.33 220.63C375.285 220.918 374.203 221.046 373.12 221.01C369.933 221.01 368.173 219.984 367.84 217.93C366.912 218.944 365.77 219.739 364.497 220.258C363.225 220.777 361.852 221.006 360.48 220.93C356.713 220.93 353.277 219.283 350.17 215.99C347.132 212.875 345.456 208.681 345.51 204.33C345.504 200.062 347.191 195.966 350.2 192.94C353.32 189.607 356.747 187.94 360.48 187.94C361.846 187.867 363.21 188.113 364.465 188.658C365.72 189.203 366.831 190.032 367.71 191.08V177.87C367.696 177.145 367.73 176.421 367.81 175.7C367.903 175.129 368.092 174.578 368.37 174.07C368.546 173.753 368.785 173.475 369.072 173.253C369.359 173.031 369.689 172.87 370.04 172.78C371.086 172.499 372.168 172.375 373.25 172.41ZM358.15 208.26C358.659 208.81 359.279 209.245 359.968 209.538C360.658 209.831 361.401 209.975 362.15 209.96C362.878 209.975 363.601 209.831 364.268 209.537C364.935 209.243 365.529 208.808 366.01 208.26C366.992 207.246 367.544 205.892 367.55 204.48C367.529 203.088 367.008 201.749 366.08 200.71C365.59 200.133 364.975 199.675 364.283 199.37C363.59 199.065 362.837 198.922 362.08 198.95C361.327 198.924 360.577 199.065 359.885 199.364C359.193 199.664 358.577 200.113 358.08 200.68C357.118 201.713 356.579 203.069 356.57 204.48C356.571 205.183 356.71 205.88 356.982 206.528C357.253 207.177 357.65 207.766 358.15 208.26Z" fill="#115E49"/>
<path d="M402.68 174.86H437.68C438.292 174.849 438.903 174.883 439.51 174.96C439.971 175.051 440.415 175.21 440.83 175.43C441.094 175.573 441.326 175.77 441.51 176.008C441.694 176.245 441.827 176.518 441.9 176.81C442.132 177.673 442.236 178.566 442.21 179.46C442.238 180.341 442.134 181.22 441.9 182.07C441.824 182.356 441.689 182.624 441.505 182.856C441.321 183.088 441.091 183.28 440.83 183.42C440.406 183.644 439.951 183.802 439.48 183.89C438.863 183.962 438.241 183.992 437.62 183.98H425.62V215.62C425.635 216.331 425.601 217.043 425.52 217.75C425.425 218.314 425.236 218.858 424.96 219.36C424.784 219.677 424.545 219.955 424.258 220.177C423.971 220.399 423.641 220.56 423.29 220.65C422.267 220.927 421.209 221.052 420.15 221.02C419.097 221.053 418.046 220.928 417.03 220.65C416.685 220.556 416.363 220.394 416.083 220.172C415.802 219.95 415.57 219.674 415.4 219.36C415.122 218.848 414.93 218.294 414.83 217.72C414.759 216.999 414.729 216.274 414.74 215.55V183.98H402.61C402.012 183.991 401.414 183.961 400.82 183.89C400.348 183.804 399.893 183.645 399.47 183.42C399.205 183.275 398.973 183.077 398.788 182.838C398.604 182.599 398.472 182.323 398.4 182.03C398.168 181.17 398.063 180.28 398.09 179.39C398.062 178.509 398.166 177.629 398.4 176.78C398.476 176.494 398.611 176.226 398.795 175.994C398.979 175.761 399.209 175.569 399.47 175.43C399.893 175.204 400.348 175.046 400.82 174.96C401.437 174.884 402.058 174.85 402.68 174.86Z" fill="#115E49"/>
<path d="M452.8 220.9C450.796 220.941 448.809 220.53 446.986 219.698C445.163 218.865 443.551 217.632 442.27 216.09C439.462 212.838 437.968 208.655 438.08 204.36V193.36C438.065 192.625 438.098 191.89 438.18 191.16C438.279 190.59 438.468 190.04 438.74 189.53C438.912 189.206 439.149 188.921 439.436 188.694C439.724 188.467 440.055 188.302 440.41 188.21C441.456 187.927 442.537 187.799 443.62 187.83C444.53 187.811 445.438 187.916 446.32 188.14C446.907 188.294 447.463 188.551 447.96 188.9C448.365 189.236 448.661 189.685 448.81 190.19C448.972 190.655 449.076 191.139 449.12 191.63C449.12 192.03 449.12 192.63 449.12 193.43V204.43C449.081 205.162 449.192 205.895 449.447 206.583C449.701 207.271 450.094 207.899 450.6 208.43C451.723 209.374 453.146 209.886 454.613 209.874C456.08 209.861 457.494 209.324 458.6 208.36C459.121 207.837 459.527 207.211 459.792 206.523C460.058 205.834 460.176 205.097 460.14 204.36V193.23C460.129 192.505 460.159 191.781 460.23 191.06C460.321 190.487 460.514 189.935 460.8 189.43C460.974 189.113 461.211 188.835 461.497 188.613C461.782 188.391 462.11 188.23 462.46 188.14C463.506 187.857 464.587 187.729 465.67 187.76C466.733 187.731 467.794 187.859 468.82 188.14C469.174 188.232 469.504 188.397 469.79 188.624C470.076 188.852 470.311 189.136 470.48 189.46C470.763 189.977 470.955 190.538 471.05 191.12C471.121 191.841 471.151 192.565 471.14 193.29V215.56C471.15 216.261 471.12 216.962 471.05 217.66C470.959 218.231 470.755 218.779 470.45 219.27C470.067 219.891 469.457 220.339 468.75 220.52C467.729 220.806 466.67 220.935 465.61 220.9C464.57 220.932 463.531 220.804 462.53 220.52C461.859 220.367 461.272 219.963 460.89 219.39C460.644 219.002 460.465 218.577 460.36 218.13C460.283 217.694 460.25 217.252 460.26 216.81C460.159 216.965 460.045 217.112 459.92 217.25C459.77 217.42 459.46 217.74 458.92 218.25C458.448 218.706 457.932 219.115 457.38 219.47C456.735 219.889 456.04 220.225 455.31 220.47C454.502 220.749 453.655 220.894 452.8 220.9Z" fill="#115E49"/>
<path d="M476.19 177.82C476.176 177.096 476.21 176.371 476.29 175.65C476.385 175.067 476.574 174.503 476.85 173.98C477.023 173.657 477.261 173.374 477.548 173.147C477.835 172.919 478.166 172.754 478.52 172.66C479.566 172.381 480.648 172.257 481.73 172.29C482.782 172.255 483.832 172.39 484.84 172.69C485.541 172.914 486.135 173.387 486.51 174.02C486.81 174.531 487.01 175.095 487.1 175.68C487.18 176.411 487.213 177.145 487.2 177.88V207C487.108 207.97 487.238 208.948 487.58 209.86C487.833 210.26 488.523 210.46 489.65 210.46C490.092 210.449 490.534 210.479 490.97 210.55C491.364 210.669 491.735 210.851 492.07 211.09C492.585 211.46 492.942 212.009 493.07 212.63C493.277 213.589 493.371 214.569 493.35 215.55C493.37 216.607 493.276 217.663 493.07 218.7C492.951 219.357 492.595 219.948 492.07 220.36C491.737 220.627 491.352 220.821 490.94 220.93C490.494 221 490.042 221.03 489.59 221.02C487.803 221.044 486.017 220.96 484.24 220.77C482.953 220.612 481.694 220.275 480.5 219.77C479.412 219.341 478.502 218.554 477.92 217.54C477.293 216.335 476.858 215.04 476.63 213.7C476.303 211.718 476.156 209.709 476.19 207.7V177.82Z" fill="#115E49"/>
<path d="M502.23 183.42C501.167 183.449 500.106 183.321 499.08 183.04C498.727 182.948 498.396 182.783 498.111 182.555C497.825 182.328 497.589 182.043 497.42 181.72C497.136 181.2 496.943 180.635 496.85 180.05C496.779 179.329 496.749 178.604 496.76 177.88C496.749 177.155 496.779 176.431 496.85 175.71C496.942 175.137 497.135 174.585 497.42 174.08C497.594 173.763 497.831 173.485 498.117 173.263C498.402 173.041 498.73 172.88 499.08 172.79C500.126 172.507 501.207 172.379 502.29 172.41C503.353 172.381 504.414 172.509 505.44 172.79C505.794 172.882 506.124 173.047 506.41 173.274C506.696 173.502 506.931 173.786 507.1 174.11C507.383 174.63 507.576 175.195 507.67 175.78C507.741 176.501 507.771 177.225 507.76 177.95C507.771 178.674 507.741 179.399 507.67 180.12C507.578 180.692 507.385 181.244 507.1 181.75C506.926 182.067 506.689 182.345 506.403 182.566C506.118 182.788 505.79 182.949 505.44 183.04C504.394 183.323 503.313 183.451 502.23 183.42ZM496.76 193.42C496.749 192.695 496.779 191.971 496.85 191.25C496.943 190.674 497.136 190.119 497.42 189.61C497.594 189.293 497.831 189.015 498.117 188.793C498.402 188.571 498.73 188.41 499.08 188.32C500.126 188.041 501.208 187.916 502.29 187.95C503.19 187.93 504.089 188.034 504.96 188.26C505.55 188.401 506.108 188.655 506.6 189.01C506.988 189.355 507.272 189.802 507.42 190.3C507.588 190.767 507.692 191.255 507.73 191.75C507.73 192.15 507.73 192.75 507.73 193.54V215.54C507.741 216.264 507.711 216.989 507.64 217.71C507.55 218.286 507.357 218.842 507.07 219.35C506.896 219.667 506.659 219.945 506.373 220.167C506.088 220.388 505.76 220.549 505.41 220.64C504.364 220.919 503.282 221.043 502.2 221.01C501.138 221.041 500.076 220.917 499.05 220.64C498.697 220.548 498.366 220.383 498.081 220.155C497.795 219.928 497.56 219.643 497.39 219.32C497.111 218.808 496.918 218.254 496.82 217.68C496.747 216.949 496.717 216.214 496.73 215.48L496.76 193.42Z" fill="#115E49"/>
<path d="M512.79 230.02V193.29C512.775 192.575 512.809 191.86 512.89 191.15C512.986 190.589 513.176 190.049 513.45 189.55C513.618 189.238 513.848 188.964 514.124 188.742C514.401 188.52 514.719 188.356 515.06 188.26C516.061 187.975 517.1 187.847 518.14 187.88C519.528 187.759 520.921 188.055 522.14 188.73C522.532 189.023 522.855 189.397 523.088 189.827C523.321 190.257 523.458 190.732 523.49 191.22C525.09 189.04 527.48 187.95 530.66 187.95C534.307 187.95 537.663 189.563 540.73 192.79C542.189 194.253 543.345 195.988 544.133 197.898C544.92 199.808 545.324 201.854 545.32 203.92C545.365 208.167 543.725 212.259 540.76 215.3C537.72 218.533 534.353 220.147 530.66 220.14C527.48 220.14 525.113 219.177 523.56 217.25V229.95C523.575 230.665 523.542 231.38 523.46 232.09C523.364 232.654 523.174 233.198 522.9 233.7C522.554 234.325 521.975 234.788 521.29 234.99C520.288 235.271 519.25 235.396 518.21 235.36C517.161 235.394 516.112 235.269 515.1 234.99C514.411 234.798 513.823 234.347 513.46 233.73C513.184 233.243 512.994 232.712 512.9 232.16C512.816 231.45 512.779 230.735 512.79 230.02ZM525.25 200.4C524.327 201.416 523.81 202.737 523.8 204.11C523.81 205.48 524.339 206.795 525.28 207.79C525.741 208.327 526.316 208.754 526.963 209.041C527.61 209.329 528.312 209.468 529.02 209.45C529.752 209.465 530.48 209.328 531.156 209.048C531.833 208.767 532.443 208.349 532.95 207.82C533.453 207.341 533.853 206.766 534.128 206.128C534.403 205.491 534.547 204.804 534.55 204.11C534.549 202.715 534.007 201.375 533.04 200.37C532.552 199.823 531.95 199.389 531.276 199.101C530.602 198.812 529.873 198.675 529.14 198.7C528.405 198.67 527.673 198.807 526.999 199.102C526.325 199.396 525.727 199.84 525.25 200.4Z" fill="#115E49"/>
<path d="M290.12 304.62C307.186 304.62 321.02 290.785 321.02 273.72C321.02 256.654 307.186 242.82 290.12 242.82C273.054 242.82 259.22 256.654 259.22 273.72C259.22 290.785 273.054 304.62 290.12 304.62Z" fill="#E9F3F9"/>
<path d="M252.3 245.22C261.617 245.22 269.17 237.667 269.17 228.35C269.17 219.033 261.617 211.48 252.3 211.48C242.983 211.48 235.43 219.033 235.43 228.35C235.43 237.667 242.983 245.22 252.3 245.22Z" fill="#E9F3F9"/>
<path d="M305.34 666.69C299.544 666.69 293.871 665.02 289 661.88C288.484 661.573 288.06 661.132 287.773 660.604C287.486 660.076 287.347 659.48 287.37 658.88C287.37 657.22 288.46 654.88 290.64 651.88C290.951 651.396 291.386 651.005 291.9 650.747C292.413 650.488 292.986 650.372 293.56 650.41C295.439 650.54 297.25 651.165 298.81 652.22C301.61 653.833 303.987 654.636 305.94 654.63C309.44 654.63 311.19 653.94 311.19 652.56C311.19 651.99 310.64 651.5 309.56 651.1C308.22 650.644 306.836 650.329 305.43 650.16C303.591 649.882 301.787 649.406 300.05 648.74C298.176 648.046 296.377 647.165 294.68 646.11C292.87 644.914 291.438 643.229 290.55 641.25C289.407 638.791 288.849 636.1 288.92 633.39C288.92 624.33 295.14 619.8 307.58 619.8C311.925 619.861 316.205 620.857 320.13 622.72C322.13 623.64 323.13 624.903 323.13 626.51C322.938 628.185 322.318 629.783 321.33 631.15C319.997 633.21 318.663 634.24 317.33 634.24C316.31 634.151 315.318 633.862 314.41 633.39C312.232 632.306 309.842 631.716 307.41 631.66C304.03 631.66 302.34 632.3 302.34 633.56C302.368 634.05 302.542 634.52 302.84 634.91C303.137 635.301 303.545 635.593 304.01 635.75C305.344 636.356 306.771 636.735 308.23 636.87C312.021 637.371 315.707 638.475 319.15 640.14C320.954 641.076 322.424 642.546 323.36 644.35C324.542 646.586 325.121 649.092 325.04 651.62C325.13 654.312 324.553 656.985 323.36 659.4C322.325 661.416 320.666 663.044 318.63 664.04C316.673 665.024 314.59 665.734 312.44 666.15C310.095 666.549 307.718 666.73 305.34 666.69Z" fill="#115E49"/>
<path d="M374.45 637.45C374.45 641.24 373.57 643.98 371.83 645.67C371.078 646.456 370.177 647.085 369.18 647.52C368.182 647.954 367.108 648.185 366.02 648.2H345.59C345.59 649.807 346.537 651.14 348.43 652.2C350.281 653.278 352.388 653.841 354.53 653.83C356 653.838 357.469 653.724 358.92 653.49C359.938 653.344 360.941 653.113 361.92 652.8L362.87 652.45C363.939 651.9 365.11 651.58 366.31 651.51C368.143 651.51 369.72 652.8 371.04 655.38C371.692 656.601 372.07 657.948 372.15 659.33C372.15 664.443 366.047 666.996 353.84 666.99C349.957 667.064 346.102 666.314 342.53 664.79C339.519 663.549 336.87 661.568 334.83 659.03C333.057 656.769 331.675 654.227 330.74 651.51C329.857 648.904 329.408 646.171 329.41 643.42C329.41 636.2 331.743 630.423 336.41 626.09C341.077 621.757 346.91 619.593 353.91 619.6C356.535 619.573 359.148 619.965 361.65 620.76C363.76 621.411 365.74 622.426 367.5 623.76C369.018 624.967 370.337 626.404 371.41 628.02C372.405 629.487 373.173 631.095 373.69 632.79C374.167 634.298 374.423 635.868 374.45 637.45ZM356.3 640.38C358.48 640.38 359.57 639.463 359.57 637.63C359.588 637.018 359.462 636.41 359.201 635.856C358.94 635.301 358.553 634.816 358.07 634.44C356.797 633.56 355.264 633.137 353.72 633.24C351.674 633.324 349.725 634.132 348.22 635.52C346.38 637.04 345.47 638.66 345.47 640.38H356.3Z" fill="#115E49"/>
<path d="M423.68 637.45C423.68 641.237 422.803 643.977 421.05 645.67C420.3 646.456 419.401 647.085 418.405 647.519C417.409 647.954 416.336 648.185 415.25 648.2H394.87C394.87 649.807 395.813 651.14 397.7 652.2C399.555 653.277 401.665 653.84 403.81 653.83C405.28 653.838 406.748 653.724 408.2 653.49C409.217 653.343 410.221 653.112 411.2 652.8L412.14 652.45C413.21 651.903 414.381 651.583 415.58 651.51C417.42 651.51 418.99 652.8 420.31 655.38C420.968 656.598 421.351 657.947 421.43 659.33C421.43 664.443 415.323 666.996 403.11 666.99C399.227 667.062 395.373 666.313 391.8 664.79C388.793 663.547 386.148 661.566 384.11 659.03C382.337 656.769 380.955 654.227 380.02 651.51C379.137 648.904 378.687 646.171 378.69 643.42C378.69 636.2 381.023 630.423 385.69 626.09C390.357 621.757 396.19 619.593 403.19 619.6C405.815 619.573 408.428 619.965 410.93 620.76C413.04 621.411 415.02 622.426 416.78 623.76C418.298 624.967 419.617 626.404 420.69 628.02C421.684 629.487 422.453 631.095 422.97 632.79C423.43 634.301 423.669 635.87 423.68 637.45ZM405.53 640.38C407.71 640.38 408.8 639.463 408.8 637.63C408.818 637.017 408.691 636.408 408.429 635.853C408.166 635.299 407.776 634.814 407.29 634.44C406.021 633.56 404.491 633.137 402.95 633.24C400.902 633.33 398.952 634.145 397.45 635.54C395.61 637.06 394.7 638.68 394.7 640.4L405.53 640.38Z" fill="#115E49"/>
<path d="M466.33 599.44C467.781 599.396 469.231 599.572 470.63 599.96C471.114 600.085 471.568 600.309 471.96 600.619C472.353 600.929 472.676 601.318 472.91 601.76C473.291 602.473 473.554 603.243 473.69 604.04C473.786 605.037 473.826 606.039 473.81 607.04V658.38C473.826 659.382 473.786 660.383 473.69 661.38C473.556 662.167 473.278 662.923 472.87 663.61C472.619 664.043 472.284 664.422 471.886 664.726C471.488 665.03 471.034 665.252 470.55 665.38C469.119 665.763 467.64 665.935 466.16 665.89C461.8 665.89 459.4 664.49 458.94 661.68C456.527 664.434 453.17 665.81 448.87 665.81C443.717 665.81 439.017 663.56 434.77 659.06C430.613 654.781 428.325 649.026 428.41 643.06C428.397 637.23 430.699 631.634 434.81 627.5C439.077 622.967 443.763 620.7 448.87 620.7C453.12 620.7 456.41 622.14 458.77 625V606.94C458.754 605.939 458.794 604.937 458.89 603.94C459.022 603.155 459.286 602.398 459.67 601.7C459.91 601.267 460.236 600.887 460.628 600.584C461.02 600.282 461.47 600.062 461.95 599.94C463.377 599.556 464.853 599.387 466.33 599.44ZM445.69 648.44C446.38 649.185 447.219 649.777 448.153 650.177C449.087 650.577 450.094 650.775 451.11 650.76C452.108 650.783 453.098 650.587 454.012 650.186C454.926 649.785 455.741 649.189 456.4 648.44C457.738 647.053 458.493 645.207 458.51 643.28C458.478 641.377 457.769 639.547 456.51 638.12C455.844 637.329 455.006 636.7 454.059 636.282C453.113 635.864 452.084 635.669 451.05 635.71C450.013 635.668 448.979 635.859 448.026 636.269C447.072 636.679 446.223 637.298 445.54 638.08C444.228 639.495 443.493 641.35 443.48 643.28C443.486 644.247 443.684 645.203 444.064 646.093C444.443 646.982 444.996 647.787 445.69 648.46V648.44Z" fill="#115E49"/>
<path d="M497.38 666.69C491.584 666.69 485.911 665.02 481.04 661.88C480.522 661.573 480.097 661.133 479.808 660.605C479.52 660.077 479.379 659.481 479.4 658.88C479.4 657.22 480.49 654.88 482.67 651.88C482.984 651.396 483.42 651.005 483.935 650.747C484.45 650.489 485.025 650.372 485.6 650.41C487.476 650.54 489.284 651.165 490.84 652.22C493.653 653.833 496.033 654.636 497.98 654.63C501.48 654.63 503.23 653.94 503.23 652.56C503.23 651.99 502.68 651.5 501.59 651.1C500.25 650.643 498.866 650.327 497.46 650.16C495.624 649.88 493.824 649.404 492.09 648.74C490.214 648.044 488.412 647.163 486.71 646.11C484.903 644.914 483.474 643.228 482.59 641.25C481.444 638.792 480.882 636.101 480.95 633.39C480.95 624.33 487.17 619.8 499.61 619.8C503.958 619.861 508.241 620.857 512.17 622.72C514.17 623.64 515.17 624.903 515.17 626.51C514.978 628.187 514.354 629.785 513.36 631.15C512.04 633.21 510.73 634.24 509.41 634.24C508.387 634.152 507.391 633.863 506.48 633.39C504.303 632.304 501.912 631.713 499.48 631.66C496.09 631.66 494.4 632.3 494.4 633.56C494.429 634.051 494.604 634.522 494.904 634.913C495.203 635.303 495.613 635.595 496.08 635.75C497.414 636.357 498.84 636.736 500.3 636.87C502.149 637.105 503.975 637.493 505.76 638.03C507.637 638.577 509.463 639.283 511.22 640.14C513.021 641.079 514.491 642.549 515.43 644.35C516.612 646.586 517.191 649.092 517.11 651.62C517.2 654.312 516.623 656.985 515.43 659.4C514.393 661.414 512.734 663.041 510.7 664.04C508.743 665.022 506.66 665.732 504.51 666.15C502.155 666.55 499.768 666.731 497.38 666.69Z" fill="#115E49"/>
<g style="mix-blend-mode:multiply">
<path d="M414.01 571.91C453.681 571.91 485.84 564.115 485.84 554.5C485.84 544.885 453.681 537.09 414.01 537.09C374.339 537.09 342.18 544.885 342.18 554.5C342.18 564.115 374.339 571.91 414.01 571.91Z" fill="#A7A9AC"/>
</g>
<path d="M413.45 555.14H411.67H409.98C409.538 555.14 409.098 555.083 408.67 554.97L406.87 554.83C405.8 554.72 404.72 554.6 403.67 554.45C402.62 554.3 401.58 554.12 400.56 553.92L399.03 553.61C388.71 551.34 380.46 546.82 375.68 540.82C372.398 538.635 369.49 535.934 367.07 532.82L363.07 527.52L362.18 526.35L360.07 523.52L359.14 522.26C358.4 521.26 357.69 520.26 356.99 519.26V519.2L356.27 518.2V518.14C355.52 517.09 354.81 516.06 354.16 515.09C353.16 513.68 352.29 512.28 351.45 510.95V510.89C350.58 509.5 349.75 508.11 349 506.78C348.2 505.37 347.46 503.95 346.8 502.59C344.276 497.638 342.587 492.303 341.8 486.8C339.52 468.86 319.55 429.01 319.35 428.61C318.862 427.638 318.685 426.538 318.844 425.462C319.003 424.385 319.49 423.384 320.24 422.594C320.989 421.805 321.963 421.266 323.029 421.05C324.096 420.835 325.203 420.953 326.2 421.39C332.376 424.187 338.197 427.708 343.54 431.88C342.83 428.03 342.16 423.14 341.6 416.88C340.66 406.43 340.49 397.21 340.48 396.82C340.462 395.827 340.724 394.848 341.236 393.997C341.749 393.146 342.491 392.457 343.378 392.009C344.265 391.561 345.26 391.372 346.249 391.464C347.238 391.557 348.181 391.926 348.97 392.53C350.43 393.64 384.81 419.99 393.16 436.94C395.873 442.753 398.286 448.701 400.39 454.76V361.43C379.936 354.819 362.611 340.945 351.69 322.43C351.29 321.75 350.89 321.05 350.5 320.34C350.35 320.08 350.21 319.81 350.07 319.55L349.76 318.96L349.37 318.25L348.65 316.83L348.51 316.54L348.32 316.17C348.03 315.57 347.75 314.97 347.47 314.38L347.33 314.07C347.04 313.44 346.76 312.8 346.45 312.07V311.94C346.16 311.26 345.87 310.56 345.59 309.83C345.04 308.43 344.51 307 344.03 305.56C337.979 287.639 337.881 268.242 343.75 250.26C344.093 249.202 344.76 248.279 345.658 247.621C346.556 246.964 347.638 246.607 348.75 246.6C349.085 246.601 349.42 246.631 349.75 246.69C362.983 249.234 375.463 254.76 386.24 262.85C386.63 261.91 387.05 260.98 387.47 260.06C392.676 248.881 400.171 238.919 409.47 230.82C410.438 229.971 411.682 229.503 412.97 229.503C414.258 229.503 415.502 229.971 416.47 230.82C425.299 238.759 432.435 248.398 437.45 259.16C437.78 259.87 438.11 260.58 438.45 261.3C438.56 261.54 438.67 261.79 438.77 262.04C449.351 254.3 461.516 249.003 474.39 246.53C474.72 246.471 475.055 246.441 475.39 246.44C476.502 246.447 477.584 246.804 478.482 247.461C479.38 248.118 480.047 249.042 480.39 250.1C486.68 269.588 486.023 290.653 478.53 309.71C478.25 310.43 477.96 311.14 477.67 311.81L477.61 311.95C477.31 312.64 477.03 313.29 476.74 313.95L476.6 314.25C476.32 314.86 476.04 315.46 475.75 316.05C475.69 316.18 475.62 316.31 475.56 316.43L475.44 316.67C475.2 317.16 474.95 317.67 474.7 318.14L474.32 318.84L474 319.44C473.86 319.7 473.72 319.97 473.57 320.23C473.18 320.94 472.78 321.64 472.38 322.32C461.459 340.835 444.134 354.709 423.68 361.32V457.32C425.41 452.83 426.95 449.23 428.15 446.79C435.67 431.54 465.15 408.79 468.49 406.22C469.26 405.634 470.176 405.27 471.139 405.169C472.101 405.067 473.073 405.231 473.949 405.644C474.824 406.056 475.57 406.701 476.104 407.508C476.639 408.315 476.942 409.253 476.98 410.22C476.98 410.62 477.4 420.08 477.05 430.9C476.42 450.07 473.87 457.04 472.38 459.9C479.391 454.758 487.179 450.771 495.45 448.09C495.949 447.936 496.468 447.858 496.99 447.86C497.946 447.858 498.884 448.116 499.705 448.605C500.526 449.095 501.198 449.798 501.651 450.639C502.104 451.481 502.32 452.43 502.275 453.384C502.231 454.339 501.929 455.264 501.4 456.06C501.19 456.38 479.87 488.78 476.09 503.98C473.53 514.23 466.64 523.14 457.09 533.37C456.19 534.37 455.18 535.37 454.03 536.61L453.96 536.68L450.84 539.93L449.23 541.6C445.838 544.988 441.784 547.64 437.32 549.39C435.492 550.146 433.622 550.797 431.72 551.34C431.02 551.54 430.28 551.74 429.54 551.92C425.654 553.276 421.629 554.195 417.54 554.66C416.67 554.77 415.78 554.86 414.88 554.92C414.416 555.06 413.935 555.134 413.45 555.14Z" fill="#231F20"/>
<path d="M418.35 310.07H405.49V537.1H418.35V310.07Z" fill="#4CA84E"/>
<path d="M440.437 297.116C442 260 412.715 234.7 412.715 234.7C412.715 234.7 384.526 256 384.298 296.802C384.106 331.187 412.02 359.218 412.02 359.218C412.02 359.218 440.245 331.501 440.437 297.116Z" fill="#D91F26"/>
<path d="M419.45 278.25C416.334 283.521 413.806 289.118 411.91 294.94C407.897 282.637 401.089 271.431 392.02 262.2C386.136 274.863 383.537 288.805 384.462 302.737C385.386 316.67 389.805 330.145 397.31 341.92C402.04 343.76 406.927 345.169 411.91 346.13C417.134 345.123 422.25 343.623 427.19 341.65C434.806 329.825 439.296 316.261 440.243 302.228C441.189 288.194 438.559 274.151 432.6 261.41C427.51 266.434 423.09 272.094 419.45 278.25Z" fill="#951B1E"/>
<path d="M466 322C483.536 292.429 478.5 255.602 474.902 253.468C473.5 252.637 436.545 263.125 419.009 292.696C401.472 322.268 409.5 359 412 359C412 359 448.464 351.571 466 322Z" fill="#F16465"/>
<path d="M467.79 319.67C473.795 309.542 477.574 298.25 478.874 286.547C480.174 274.845 478.966 262.999 475.33 251.8C475.33 251.8 481.89 316 411.92 358.96C423.49 356.757 434.457 352.113 444.091 345.339C453.725 338.564 461.804 329.813 467.79 319.67Z" fill="#D91F26"/>
<path opacity="0.62" d="M408.14 326.67C448.63 342.11 474.67 304.37 475.06 303.78C470.372 317.749 462.054 330.22 450.959 339.917C439.864 349.613 426.391 356.185 411.92 358.96C408.556 348.548 407.271 337.577 408.14 326.67Z" fill="#7C131A"/>
<path d="M411.861 359.031C415 350 421.826 320.748 404.317 291.154C386.809 261.56 348.457 251.863 348.457 251.863C348.457 251.863 338.492 290.146 356 319.74C373.509 349.334 411.861 359.031 411.861 359.031Z" fill="#F1594B"/>
<path d="M356.05 319.67C350.045 309.542 346.266 298.25 344.966 286.547C343.666 274.845 344.874 262.999 348.51 251.8C348.51 251.8 341.95 316 411.92 358.96C400.35 356.757 389.383 352.113 379.749 345.339C370.115 338.564 362.036 329.813 356.05 319.67Z" fill="#D91F26"/>
<path d="M464.34 275C466.864 275 468.91 272.954 468.91 270.43C468.91 267.906 466.864 265.86 464.34 265.86C461.816 265.86 459.77 267.906 459.77 270.43C459.77 272.954 461.816 275 464.34 275Z" fill="#F6FAFE"/>
<path opacity="0.62" d="M415.69 326.67C375.21 342.11 349.17 304.37 348.78 303.78C353.468 317.749 361.786 330.22 372.881 339.917C383.976 349.613 397.449 356.185 411.92 358.96C415.286 348.549 416.567 337.576 415.69 326.67Z" fill="#951B1E"/>
<path d="M452.111 283.479C456.972 279.68 458.751 273.835 456.084 270.423C453.418 267.012 447.316 267.326 442.456 271.124C437.595 274.923 435.816 280.769 438.483 284.18C441.149 287.592 447.251 287.278 452.111 283.479Z" fill="#F6FAFE"/>
<path d="M404.23 339.12C402.843 339.118 401.509 338.589 400.497 337.64C399.485 336.692 398.871 335.394 398.78 334.01C398.78 333.75 397.26 312.27 389.08 299.4C388.695 298.795 388.433 298.119 388.31 297.413C388.186 296.706 388.202 295.982 388.358 295.282C388.514 294.582 388.807 293.92 389.219 293.332C389.631 292.745 390.155 292.245 390.76 291.86C391.365 291.475 392.041 291.214 392.747 291.09C393.454 290.966 394.178 290.983 394.878 291.139C395.578 291.295 396.241 291.587 396.828 291.999C397.415 292.411 397.915 292.935 398.3 293.54C408.01 308.81 409.62 332.31 409.68 333.3C409.727 334.017 409.633 334.736 409.402 335.416C409.172 336.096 408.809 336.723 408.335 337.263C407.862 337.803 407.286 338.244 406.642 338.561C405.997 338.878 405.297 339.064 404.58 339.11L404.23 339.12Z" fill="#F16465"/>
<path d="M364.68 485.99C362.18 461.84 323.88 426.17 323.88 426.17C323.88 426.17 344.43 467.01 346.88 486.07C348.73 500.58 359.7 514.32 371.28 529.64C377.47 537.83 390.62 544.04 405.52 545.8C405.45 545.8 368.86 526.33 364.68 485.99Z" fill="#4CA84E"/>
<path d="M372.27 477.72C369.86 465.21 348.27 436.91 323.88 426.17C323.88 426.17 362.18 461.84 364.68 485.99C368.86 526.33 405.49 545.8 405.49 545.8C405.49 545.8 374.69 490.22 372.27 477.72Z" fill="#66BE64"/>
<path d="M364.68 485.99C362.18 461.84 323.88 426.17 323.88 426.17C323.88 426.17 344.43 467.01 346.88 486.07C348.73 500.58 359.7 514.32 371.28 529.64C377.47 537.83 390.62 544.04 405.52 545.8C405.45 545.8 368.86 526.33 364.68 485.99Z" fill="#4CA84E"/>
<path d="M372.27 477.72C369.86 465.21 348.27 436.91 323.88 426.17C323.88 426.17 362.18 461.84 364.68 485.99C368.86 526.33 405.49 545.8 405.49 545.8C405.49 545.8 374.69 490.22 372.27 477.72Z" fill="#66BE64"/>
<g style="mix-blend-mode:multiply">
<path d="M393.54 523.62C388.76 522.22 383.21 520.51 378.19 518.75C369.96 515.87 357.19 504.3 349.99 497.26C354.44 507.82 362.67 518.26 371.25 529.64C377.44 537.83 390.59 544.04 405.49 545.8C405.45 545.8 400.03 535.96 393.54 523.62Z" fill="#4CA84E"/>
</g>
<path d="M455.45 500.81C460.09 480.13 496.93 453.14 496.93 453.14C496.93 453.14 474.93 486.44 470.93 502.7C467.84 515.09 456.93 525.88 445.32 537.97C439.12 544.44 427.09 548.47 414 548.47C414.01 548.47 447.74 535.34 455.45 500.81Z" fill="#4CA84E"/>
<path d="M449.76 492.86C453.13 482.27 474.76 459.95 496.97 453.14C496.97 453.14 460.13 480.14 455.49 500.81C447.74 535.34 414.01 548.47 414.01 548.47C414.01 548.47 446.39 503.46 449.76 492.86Z" fill="#66BE64"/>
<g style="mix-blend-mode:multiply">
<path d="M435.33 517.59C425.33 532.67 414.01 548.47 414.01 548.47C427.1 548.47 439.13 544.47 445.33 537.97C453.9 529.04 462.09 520.82 467.03 512.15C457.109 516.664 446.189 518.538 435.33 517.59Z" fill="#4CA84E"/>
</g>
<g style="mix-blend-mode:multiply">
<path d="M382.7 469.85C382.22 467.379 381.552 464.949 380.7 462.58C381.56 478.58 383.29 509.12 384.27 515.58C380.014 509.311 376.15 502.785 372.7 496.04C375.63 508.65 380 521.68 386.16 533.13C388.554 537.579 392.108 541.297 396.444 543.891C400.78 546.484 405.738 547.855 410.79 547.86C410.79 547.86 385.35 484.69 382.7 469.85Z" fill="#4CA84E"/>
</g>
<path d="M432.85 449.22C440.04 434.64 471.66 410.52 471.66 410.52C471.66 410.52 458.39 445.16 452.89 451.52C448.3 456.82 444.26 474.52 440.8 480.19C437.34 485.86 436.42 501.92 429.5 522.58C422.58 543.24 409.94 549.86 409.94 549.86C405.95 522.01 425.67 463.8 432.85 449.22Z" fill="#66BE64"/>
<path d="M440.8 480.18C444.26 474.54 448.3 456.81 452.89 451.51C458.39 445.16 471.66 410.51 471.66 410.51C471.66 410.51 473.34 448.63 467.15 458.31C459.77 469.86 456.77 480.11 454.38 500.88C453.06 512.3 447.25 525.95 442.28 535.93C438.18 544.16 424.98 549.84 409.94 549.84C409.94 549.84 422.59 543.22 429.5 522.56C436.41 501.9 437.35 485.82 440.8 480.18Z" fill="#4CA84E"/>
<g style="mix-blend-mode:multiply">
<path d="M442.28 535.94C447.28 525.94 453.06 512.31 454.38 500.89C454.58 499.1 454.8 497.4 455.01 495.76C438.15 524.62 410.81 527.9 410.81 527.9L410.31 528.32C409.31 536.42 409.08 543.84 409.94 549.85C424.98 549.85 438.18 544.17 442.28 535.94Z" fill="#4CA84E"/>
</g>
<path d="M388.23 439.23C380.33 423.23 345.58 396.69 345.58 396.69C345.58 396.69 360.16 434.78 366.2 441.75C371.2 447.58 375.7 467.07 379.49 473.27C383.28 479.47 384.32 497.16 391.91 519.86C399.5 542.56 413.41 549.86 413.41 549.86C417.8 519.24 396.13 455.27 388.23 439.23Z" fill="#66BE64"/>
<path d="M379.45 473.27C375.66 467.07 371.21 447.58 366.16 441.75C360.16 434.75 345.54 396.69 345.54 396.69C345.54 396.69 346.2 433.85 352.34 442.6C358.48 451.35 361.9 473.2 364.53 496.04C365.98 508.58 372.37 523.59 377.83 534.56C382.33 543.56 396.83 549.85 413.37 549.85C413.37 549.85 399.47 542.57 391.87 519.85C384.27 497.13 383.29 479.47 379.45 473.27Z" fill="#4CA84E"/>
<g style="mix-blend-mode:multiply">
<path d="M362.55 480.18C363.28 485.31 363.95 490.64 364.55 496.04C366 508.58 372.39 523.59 377.85 534.56C382.35 543.56 396.85 549.85 413.39 549.85C414.71 540.69 413.69 528.55 411.39 515.59C383.06 521.36 362.55 480.19 362.55 480.18Z" fill="#4CA84E"/>
</g>
</g>
<defs>
<clipPath id="clip0_4738_357">
<rect width="619.18" height="838.58" fill="white"/>
</clipPath>
</defs>
</svg>
