<svg width="1265" height="488" viewBox="0 0 1265 488" fill="none" xmlns="http://www.w3.org/2000/svg">
<g clip-path="url(#clip0_5470_17857)">
<path d="M1130.6 461.5C1126 463.8 1121.4 466 1116.6 468C1112 470 1107.3 471.9 1102.5 473.6C1094.1 476.6 1085.5 479.2 1076.6 481.3C1058.5 485.6 1039.7 487.8 1020.2 487.8H368.2C378.7 482.2 390.1 478.3 402.1 476.6C404.6 431 441.8 394.5 487.7 393.3C491.7 380 498.3 367.7 507.3 357C500.8 353.1 493.6 346.6 493.6 336.3C493.6 320.9 509.6 314 515.6 311.5C524.1 307.8 535 304.6 545.5 301.4C552.9 299.2 563.8 295.9 570.9 293.1C565.4 287.6 556.2 280.1 549.9 275C541.5 268.2 532.9 261.2 526.5 254.7C522 250.1 510 237.8 515.8 223.8C521.8 209.4 539.9 209.4 546.7 209.4C555.6 209.4 566.3 210.5 576.7 211.6C586.2 212.6 596.1 213.6 603.4 213.6H603.8C600.8 206.4 595.3 196.1 591.5 189.2C586.4 179.7 581 169.8 577.6 161.3C575.2 155.3 568.8 139.3 579.6 128.5C582.4 125.8 587.3 122.5 595 122.5C606.2 122.5 619.6 129.3 640.2 140.4C647.2 144.2 657.5 149.7 664.7 152.7C664.7 145 663.5 133.4 662.7 125.7C661.6 114.9 660.4 103.6 660.5 94.4004C660.6 87.9004 660.8 70.6004 674.9 64.8004C677.3 63.8004 679.9 63.3004 682.5 63.3004C696.5 63.3004 707.6 76.1004 726 98.8004C731 105 738.5 114.2 744.1 119.8C747 112.7 750.2 101.8 752.4 94.4004C755.5 83.9004 758.8 73.0004 762.5 64.4004C765.1 58.4004 772 42.4004 787.3 42.4004C802.7 42.4004 809.6 58.4004 812.1 64.4004C815.8 73.0004 819 83.8004 822.2 94.4004C824.4 101.8 827.7 112.7 830.5 119.8C836 114.3 843.5 105.1 848.6 98.8004C867 76.1004 878.1 63.3004 892.1 63.3004C894.8 63.3004 897.3 63.8004 899.7 64.8004C913.8 70.7004 914 87.9004 914.1 94.4004C914.2 103.6 913 114.8 911.9 125.7C911.1 133.5 909.9 145.1 909.8 152.8C916.9 149.8 927.3 144.2 934.3 140.5C954.9 129.4 968.3 122.6 979.5 122.6C987.3 122.6 992.2 125.9 995 128.6C1005.8 139.4 999.4 155.3 997 161.4C993.6 169.9 988.3 179.8 983.1 189.3C979.3 196.3 973.8 206.6 970.8 213.7H971.2C978.5 213.7 988.3 212.7 997.9 211.7C1008.2 210.6 1018.9 209.5 1027.9 209.5C1034.7 209.5 1052.9 209.5 1058.9 223.9C1064.7 237.9 1052.7 250.2 1048.2 254.8C1041.9 261.3 1033.2 268.3 1024.8 275.1C1018.6 280.1 1009.4 287.6 1003.8 293.2C1008.3 295 1014.4 297 1020.1 298.8C1022.2 299.4 1024.3 300.1 1026.2 300.7C1027.2 301 1028.2 301.3 1029.1 301.6C1030.7 302.1 1032.3 302.5 1033.9 303C1038.3 304.3 1042.6 305.6 1046.7 307C1049.1 307.8 1051.3 308.6 1053.5 309.4C1055.4 310.1 1057.3 310.8 1059.1 311.6C1059.1 311.6 1059.2 311.6 1059.3 311.7C1059.6 311.8 1059.9 312 1060.2 312.1C1060.5 312.2 1060.8 312.4 1061.2 312.5C1061.5 312.7 1061.9 312.8 1062.3 313C1062.7 313.2 1063 313.4 1063.4 313.5C1067 315.3 1071.4 317.9 1074.9 321.6C1078.4 325.3 1081.1 330.2 1081.1 336.4C1081.1 351.8 1065.1 358.7 1059.1 361.3C1054.8 363.2 1049.9 364.9 1044.8 366.6C1055.8 376.4 1064.1 389.1 1068.4 403.7C1099.2 408.3 1123.8 431.6 1130.6 461.5Z" fill="#1D1D1B"/>
<path d="M839.2 487.8H968.6C959.5 470.8 950.9 454.4 955 448.3C962.5 437.1 1019.1 452.1 1038.8 447.3C1042 446.5 1044.2 445.2 1045.1 443.1C1046.2 440.5 1044.8 437.1 1041.7 433.2C1028.2 415.8 982.6 388.5 985.1 375.8C986.1 370.9 994.8 366.8 1006.3 362.8C1030.4 354.5 1066.3 347.3 1066.3 336.4C1066.3 320.4 988.1 312.2 985.1 297C982 281.4 1051.1 244 1045.1 229.6C1039 215 963.7 237.4 955 224.4C946.2 211.3 995.7 150.3 984.6 139.2C973.5 128.1 912.5 177.5 899.4 168.8C886.4 160.1 908.8 84.8 894.2 78.7C879.8 72.7 842.4 141.8 826.8 138.7C811.6 135.7 803.5 57.5 787.4 57.5C771.4 57.5 763.2 135.7 748 138.7C732.4 141.8 695 72.7 680.6 78.7C666 84.8 688.4 160.1 675.4 168.8C662.3 177.6 601.3 128.1 590.2 139.2C579.1 150.3 628.6 211.3 619.8 224.4C611.1 237.4 535.8 215 529.7 229.6C523.7 244 592.8 281.4 589.7 297C586.7 312.2 508.5 320.3 508.5 336.4C508.5 342.6 520.1 347.6 534.5 352.3C555.4 359.1 582.3 365.2 588.5 373.3C589.2 374.1 589.6 375 589.7 375.9C590.2 378.3 588.9 381.3 586.4 384.6C573 402.6 524.6 431.1 529.7 443.2C535.8 457.8 611.1 435.4 619.8 448.4C623.9 454.5 615.4 470.9 606.2 487.9H735.1H735.6H777H794.8H829.4H839.2V487.8Z" fill="#F8F18C"/>
<path d="M839.2 487.8H968.6C959.5 470.8 950.9 454.4 955 448.3C962.5 437.1 1019.1 452.1 1038.8 447.3C1042 446.5 1044.2 445.2 1045.1 443.1C1046.2 440.5 1044.8 437.1 1041.7 433.2C1028.2 415.8 982.6 388.5 985.1 375.8C986.1 370.9 994.8 366.8 1006.3 362.8C1030.4 354.5 1066.3 347.3 1066.3 336.4C1066.3 320.4 988.1 312.2 985.1 297C982 281.4 1051.1 244 1045.1 229.6C1045.1 229.6 1007.4 261.2 943.4 300.3C941.8 301.3 940.2 302.2 938.6 303.2C932.2 307 925.6 310.9 918.8 314.9C914.1 317.6 909.4 320.3 904.5 323C899.4 325.9 894.1 328.8 888.7 331.6C828.9 363.7 754.8 396.4 671.9 418.5C671 418.7 670.1 419 669.3 419.2C664 420.6 658.6 422 653.2 423.3C613.8 432.8 572.5 439.8 529.9 443.1C536 457.7 611.3 435.3 620 448.3C624.1 454.4 615.6 470.8 606.4 487.8H735.3H735.8H777H794.8H829.4H839.2Z" fill="#DDC637"/>
<path d="M839.2 487.8C885.7 471.9 922.6 435.2 938.7 388.7C944.4 372.3 947.5 354.7 947.5 336.3C947.5 335.5 947.5 334.7 947.5 333.9C947.5 333.2 947.5 332.5 947.5 331.8C947.5 331.2 947.5 330.7 947.4 330.1C947.4 329.8 947.4 329.5 947.4 329.2C947.4 329.1 947.4 329 947.4 328.9C947.4 328.8 947.4 328.6 947.4 328.5V328.4C947.4 328.2 947.4 328 947.4 327.9C947.4 327.9 947.4 327.8 947.4 327.7C947.4 327.4 947.4 327.2 947.4 326.9V326.8C947.4 326.3 947.3 325.7 947.3 325.2C947.3 324.8 947.3 324.5 947.2 324.1C947.2 323.7 947.2 323.4 947.1 323C947 322.4 947 321.8 946.9 321.2C946.9 320.7 946.8 320.1 946.7 319.6C946.7 319.5 946.7 319.4 946.7 319.3C946.7 319.1 946.7 319 946.7 318.8C946.7 318.4 946.6 317.9 946.5 317.5C946.4 316.6 946.3 315.7 946.2 314.8C946.1 314.2 946 313.5 945.9 312.9C945.9 312.8 945.9 312.7 945.9 312.6C945.8 312 945.7 311.3 945.6 310.7C945.6 310.7 945.6 310.7 945.6 310.6C945.6 310.5 945.6 310.4 945.6 310.2C945.5 309.7 945.4 309.2 945.3 308.7C945.2 308.1 945.1 307.4 945 306.8C945 306.5 944.9 306.3 944.9 306C944.7 304.8 944.4 303.5 944.1 302.3C944 302 944 301.8 943.9 301.5C943.9 301.4 943.8 301.3 943.8 301.2C943.8 301.1 943.8 301.1 943.8 301.1C943.8 301 943.8 301 943.8 300.9C943.8 300.7 943.7 300.5 943.7 300.4V300.3C943.6 299.7 943.4 299 943.2 298.4C943.1 298.1 943.1 297.8 943 297.6C943 297.5 942.9 297.3 942.9 297.2C942.8 297 942.8 296.7 942.7 296.5C942.6 296 942.4 295.5 942.3 295C942.3 294.8 942.2 294.6 942.1 294.4C941.9 293.7 941.7 292.9 941.5 292.2C941.3 291.7 941.2 291.1 941 290.6V290.5C940.9 290.2 940.8 289.9 940.7 289.6C940.6 289.2 940.5 288.8 940.3 288.4C940.2 288.2 940.2 288 940.1 287.7C940 287.3 939.8 286.8 939.7 286.4C939.7 286.3 939.7 286.3 939.6 286.2C939.4 285.7 939.2 285.1 939.1 284.6C939 284.4 939 284.2 938.9 284.1C938.8 283.8 938.7 283.5 938.6 283.3C938.5 283 938.4 282.6 938.2 282.3C938.1 282 938 281.6 937.8 281.3C937.7 281 937.6 280.8 937.5 280.5C937.4 280.2 937.3 280 937.2 279.7C937.1 279.4 937 279.2 936.9 278.9C936.8 278.5 936.6 278.2 936.5 277.8C936.4 277.6 936.3 277.3 936.2 277.1C936 276.6 935.8 276.2 935.6 275.7C935.3 275 935 274.3 934.7 273.6C934.4 272.9 934.1 272.2 933.8 271.5C933.7 271.3 933.6 271.2 933.6 271C933.5 270.8 933.5 270.7 933.4 270.5C933.4 270.4 933.3 270.3 933.3 270.2C933.2 269.9 933.1 269.7 932.9 269.4C932.8 269.1 932.7 268.9 932.5 268.6C932.3 268.2 932.1 267.8 931.9 267.3C931.8 267.1 931.7 267 931.7 266.8C931.4 266.2 931.1 265.5 930.7 264.9C930.4 264.3 930.1 263.7 929.8 263C929.4 262.3 929 261.5 928.6 260.8C928.3 260.3 928 259.7 927.7 259.2C927.7 259.2 927.7 259.1 927.6 259.1C927.3 258.5 927 258 926.6 257.4C926.3 257 926.1 256.5 925.8 256.1C925.5 255.7 925.3 255.2 925 254.8C924.8 254.4 924.5 254 924.3 253.6C924.1 253.2 923.9 252.9 923.7 252.6C923.3 252 923 251.4 922.6 250.8C922.5 250.6 922.3 250.3 922.2 250.1C922.1 250 922.1 249.9 922 249.8C921.8 249.4 921.5 249.1 921.3 248.7C921.1 248.4 920.9 248.2 920.8 247.9C920.4 247.3 920 246.7 919.5 246C918.7 244.8 917.8 243.6 916.9 242.4C916.5 241.8 916 241.2 915.6 240.6C915.2 240 914.7 239.4 914.3 238.8C914.2 238.7 914.1 238.6 914.1 238.5C914.1 238.4 914 238.4 914 238.3C913.8 238 913.5 237.6 913.2 237.3C912.8 236.8 912.4 236.3 912 235.8C911.5 235.2 911.1 234.7 910.6 234.1C910.2 233.7 909.9 233.2 909.5 232.8C909.4 232.7 909.3 232.6 909.2 232.5C908.5 231.6 907.7 230.8 907 230C907 230 907 230 906.9 229.9C906.7 229.7 906.5 229.5 906.4 229.3C906.1 229 905.9 228.7 905.6 228.5C905.2 228 904.7 227.5 904.3 227.1C903.9 226.7 903.5 226.2 903.1 225.8C902.6 225.3 902.1 224.8 901.6 224.3C901.4 224.1 901.1 223.8 900.9 223.6C900.6 223.3 900.3 223 899.9 222.7C899.6 222.4 899.2 222 898.9 221.7C898.8 221.6 898.7 221.5 898.6 221.4C898.5 221.3 898.5 221.3 898.4 221.3C898.1 221.1 897.9 220.8 897.6 220.6C897.5 220.5 897.3 220.3 897.2 220.2C896.8 219.8 896.4 219.5 896 219.1C895.8 218.9 895.7 218.8 895.5 218.6C895.5 218.6 895.4 218.6 895.4 218.5C895.1 218.2 894.9 218 894.6 217.8C894.4 217.7 894.3 217.5 894.1 217.4C893.8 217.1 893.5 216.8 893.1 216.5C893.1 216.5 893.1 216.5 893 216.4C892.9 216.3 892.9 216.3 892.8 216.3C892.3 215.9 891.8 215.4 891.3 215C890.7 214.5 890.2 214.1 889.6 213.6C888.9 213 888.2 212.5 887.5 211.9C887.2 211.6 886.8 211.3 886.5 211.1C886.4 211 886.3 211 886.2 210.9C886 210.8 885.9 210.7 885.7 210.5C885.5 210.3 885.2 210.1 885 209.9C884.8 209.8 884.7 209.6 884.5 209.5C857.5 188.8 823.8 176.5 787.2 176.5C698.8 176.5 627.2 248.1 627.2 336.5C627.2 340.6 627.3 344.6 627.7 348.6C628.3 356.6 629.5 364.4 631.2 372C633.6 382.5 637 392.7 641.4 402.3C641.7 402.9 641.9 403.5 642.2 404.1C642.4 404.6 642.7 405.1 642.9 405.6C644.1 408.1 645.3 410.5 646.7 413C647.1 413.7 647.4 414.4 647.8 415C648.6 416.5 649.5 418 650.4 419.5C651.2 420.8 652 422.1 652.9 423.4C653.1 423.7 653.3 424 653.5 424.3C653.7 424.6 653.9 424.9 654.1 425.2C654.5 425.8 654.9 426.4 655.3 427C655.8 427.7 656.3 428.4 656.8 429.1C657.8 430.5 658.8 431.9 659.9 433.3C660.1 433.6 660.4 434 660.7 434.3C661.1 434.9 661.6 435.4 662 436C662.1 436.1 662.1 436.1 662.2 436.2C663.2 437.4 664.1 438.6 665.1 439.8C665.4 440.1 665.6 440.4 665.9 440.7C666.5 441.3 667 442 667.6 442.6C667.6 442.6 667.6 442.6 667.7 442.7C668.3 443.3 668.8 443.9 669.4 444.5C669.7 444.8 670 445.1 670.2 445.4C670.6 445.9 671 446.3 671.4 446.7C672.1 447.4 672.8 448.2 673.5 448.9C674.1 449.5 674.7 450.1 675.3 450.7C676 451.4 676.7 452 677.4 452.7C678 453.3 678.7 453.9 679.3 454.5C680 455.1 680.8 455.8 681.5 456.4C682.1 457 682.8 457.5 683.4 458.1C683.6 458.3 683.8 458.5 684 458.6C685.2 459.6 686.3 460.6 687.5 461.5C688.8 462.6 690.1 463.6 691.5 464.6C691.9 464.9 692.4 465.3 692.8 465.6C693.4 466.1 694.1 466.5 694.7 467C695.5 467.5 696.2 468.1 697 468.6C697.6 469 698.1 469.4 698.7 469.7C699.5 470.2 700.2 470.7 701 471.2C701.5 471.6 702.1 471.9 702.6 472.2C703.7 472.9 704.8 473.6 705.9 474.2C706.1 474.3 706.2 474.4 706.4 474.5C706.6 474.6 706.7 474.7 706.9 474.8C707.6 475.2 708.3 475.6 709 476C709.4 476.2 709.7 476.4 710.1 476.6C710.1 476.6 710.2 476.6 710.2 476.7C710.3 476.8 710.4 476.8 710.5 476.9C711.2 477.3 711.8 477.6 712.5 478C712.6 478 712.7 478.1 712.7 478.1C712.7 478.1 712.8 478.1 712.8 478.2C713.5 478.6 714.1 478.9 714.8 479.2C715.3 479.5 715.8 479.7 716.4 480C718 480.8 719.6 481.5 721.2 482.3C721.6 482.5 722 482.7 722.4 482.8C723 483.1 723.6 483.3 724.2 483.6C724.5 483.7 724.9 483.9 725.2 484C725.3 484 725.4 484.1 725.4 484.1C726.4 484.5 727.3 484.9 728.3 485.3C729.4 485.7 730.5 486.2 731.7 486.6C731.8 486.6 731.9 486.7 732 486.7C732.5 486.9 733 487.1 733.5 487.3C733.6 487.3 733.7 487.4 733.8 487.4C733.8 487.4 733.9 487.4 733.9 487.5C734.2 487.6 734.4 487.7 734.6 487.8C734.7 487.8 734.8 487.9 734.9 487.9C735 487.9 735.1 488 735.2 488H777H794.8H829.4H839.2V487.8Z" fill="#F8A33E"/>
<path d="M839.2 487.8C885.7 471.9 922.6 435.2 938.7 388.7C944.4 372.3 947.5 354.7 947.5 336.3C947.5 335.5 947.5 334.7 947.5 333.9C947.5 333.2 947.5 332.5 947.5 331.8C947.5 331.2 947.5 330.7 947.4 330.1C947.4 329.8 947.4 329.5 947.4 329.2V329.1C947.4 328.9 947.4 328.7 947.4 328.5V328.4C947.4 328.2 947.4 328 947.4 327.9C947.4 327.9 947.4 327.8 947.4 327.7C947.4 327.4 947.4 327.2 947.4 326.9V326.8C947.4 326.3 947.3 325.7 947.3 325.2C947.3 324.9 947.3 324.7 947.3 324.4C947.3 324 947.2 323.5 947.2 323.1C947.1 322.5 947.1 321.9 947 321.3C947 320.8 946.9 320.2 946.8 319.7C946.8 319.6 946.8 319.5 946.8 319.4C946.8 319.2 946.8 319.1 946.8 318.9C946.8 318.5 946.7 318 946.6 317.6C946.5 316.7 946.4 315.8 946.3 314.9C946.2 314.3 946.1 313.6 946 313C946 312.9 946 312.8 946 312.7C945.9 312.1 945.8 311.4 945.7 310.8C945.7 310.7 945.6 310.5 945.6 310.4C945.5 309.9 945.4 309.4 945.3 308.9C945.2 308.3 945.1 307.6 945 307C945 306.7 944.9 306.5 944.9 306.2C944.7 305 944.4 303.7 944.1 302.5C944 302.2 944 302 943.9 301.7C943.9 301.6 943.8 301.5 943.8 301.4C943.8 301.3 943.8 301.3 943.8 301.3C943.8 301.2 943.8 301.2 943.8 301.1C943.8 300.9 943.7 300.7 943.7 300.6C943.7 300.6 943.7 300.6 943.7 300.5C943.6 299.9 943.4 299.2 943.2 298.6C943.1 298.3 943.1 298 943 297.8C943 297.7 942.9 297.5 942.9 297.4C942.8 297.2 942.8 296.9 942.7 296.7C942.6 296.2 942.4 295.7 942.3 295.2C942.3 295 942.2 294.8 942.1 294.6C941.9 293.9 941.7 293.1 941.5 292.4C941.3 291.9 941.2 291.3 941 290.8V290.7C940.9 290.4 940.8 290.1 940.7 289.8C940.6 289.4 940.5 289 940.3 288.6C940.2 288.4 940.2 288.2 940.1 287.9C940 287.5 939.8 287 939.7 286.6C939.7 286.5 939.7 286.5 939.6 286.4C939.4 285.9 939.2 285.3 939.1 284.8C939 284.6 939 284.4 938.9 284.3C938.8 284 938.7 283.7 938.6 283.5C938.5 283.2 938.4 282.8 938.2 282.5C938.2 282.4 938.1 282.3 938.1 282.2C938 281.9 937.9 281.7 937.8 281.5C937.7 281.2 937.6 281 937.5 280.7C937.4 280.5 937.4 280.3 937.3 280.1C937.3 280 937.2 279.9 937.2 279.9C937.1 279.6 937 279.4 936.9 279.1C936.8 278.7 936.6 278.4 936.5 278C936.4 277.8 936.3 277.5 936.2 277.3C936 276.8 935.8 276.4 935.6 275.9C935.3 275.2 935 274.5 934.7 273.8C934.4 273.1 934.1 272.4 933.8 271.7C933.7 271.5 933.6 271.4 933.6 271.2C933.5 271 933.5 270.9 933.4 270.7C933.4 270.6 933.3 270.5 933.3 270.4C933.2 270.1 933.1 269.9 932.9 269.6C932.8 269.3 932.7 269.1 932.5 268.8C932.3 268.4 932.1 268 931.9 267.5C931.8 267.3 931.7 267.2 931.7 267C931.4 266.4 931.1 265.7 930.7 265.1C930.4 264.5 930.1 263.9 929.8 263.2C929.4 262.5 929 261.7 928.6 261C928.3 260.5 928 259.9 927.7 259.4C927.7 259.4 927.7 259.3 927.6 259.3C927.3 258.7 927 258.2 926.6 257.6C926.3 257.2 926.1 256.7 925.8 256.3C925.7 256.1 925.6 255.9 925.4 255.7C925.3 255.5 925.1 255.2 925 255C924.8 254.6 924.5 254.2 924.3 253.8C924.1 253.4 923.9 253.1 923.7 252.8C923.5 252.5 923.3 252.2 923.2 251.9C923 251.6 922.8 251.3 922.7 251C922.6 250.8 922.4 250.5 922.3 250.3C922.2 250.2 922.2 250.1 922.1 250C921.9 249.6 921.6 249.3 921.4 248.9C921.2 248.6 921 248.4 920.9 248.1C920.5 247.5 920.1 246.9 919.6 246.2C918.8 245 917.9 243.8 917 242.6C916.6 242 916.1 241.4 915.7 240.8C915.3 240.2 914.8 239.6 914.4 239C914.3 238.9 914.2 238.8 914.2 238.7C914.2 238.6 914.1 238.6 914.1 238.5C913.9 238.2 913.6 237.8 913.3 237.5C912.9 237 912.5 236.5 912.1 236C911.6 235.4 911.2 234.9 910.7 234.3C910.3 233.9 910 233.4 909.6 233C909.5 232.9 909.4 232.8 909.3 232.7C908.6 231.8 907.8 231 907.1 230.2C907.1 230.2 907.1 230.2 907 230.1C906.8 229.9 906.6 229.7 906.5 229.5C906.3 229.3 906.2 229.1 906 228.9C905.9 228.8 905.8 228.7 905.8 228.6C905.4 228.1 904.9 227.6 904.5 227.2C904.1 226.8 903.7 226.3 903.3 225.9C902.8 225.4 902.3 224.9 901.8 224.4C901.6 224.2 901.3 223.9 901.1 223.7C900.8 223.5 900.6 223.2 900.4 223C900.3 222.9 900.2 222.9 900.2 222.8C900.1 222.7 900 222.7 900 222.6C899.6 222.2 899.2 221.8 898.8 221.5C898.7 221.4 898.7 221.4 898.6 221.4C898.3 221.2 898.1 220.9 897.8 220.7C897.5 220.5 897.3 220.2 897 220C896.9 219.9 896.8 219.8 896.7 219.7C896.5 219.5 896.2 219.3 896 219.1C895.9 219 895.8 218.9 895.7 218.8C895.7 218.8 895.6 218.8 895.6 218.7C895.5 218.6 895.4 218.5 895.3 218.4C895.1 218.3 895 218.1 894.8 218C894.6 217.9 894.5 217.7 894.3 217.6C894 217.3 893.7 217 893.3 216.7C893.3 216.7 893.3 216.7 893.2 216.6C893.1 216.5 893.1 216.5 893 216.5C892.5 216.1 892 215.6 891.5 215.2C890.9 214.7 890.4 214.3 889.8 213.8C889.1 213.2 888.4 212.7 887.7 212.1C887.4 211.8 887 211.5 886.7 211.3C886.6 211.2 886.5 211.2 886.4 211.1L886.3 211C886.2 210.9 886.1 210.8 885.9 210.7C885.7 210.5 885.4 210.3 885.2 210.1C885 210 884.9 209.8 884.7 209.7C892 225.9 896.7 243.5 898.2 262C898.6 266.4 898.8 271 898.8 275.5C898.8 278.7 898.7 281.9 898.5 285C897.5 301.5 894.1 317.3 888.5 332C865.7 392.5 807.2 435.5 738.8 435.5C723.3 435.5 708.4 433.3 694.2 429.2C685.5 426.7 677.1 423.4 669.1 419.6C664.3 417.3 659.6 414.7 655.1 411.9C650.4 409 645.8 405.9 641.5 402.5C641.8 403.1 642 403.7 642.3 404.3C642.5 404.8 642.8 405.3 643 405.8C644.2 408.3 645.4 410.7 646.8 413.2C647.2 413.9 647.5 414.6 647.9 415.2C648.7 416.7 649.6 418.2 650.5 419.7C651.3 421 652.1 422.3 653 423.6C653.2 423.9 653.4 424.2 653.6 424.5C653.8 424.8 654 425.1 654.2 425.4C654.6 426 655 426.6 655.4 427.2C655.9 427.9 656.4 428.6 656.9 429.3C657.9 430.7 658.9 432.1 660 433.5C660.2 433.8 660.5 434.2 660.8 434.5C661.2 435.1 661.7 435.6 662.1 436.2C662.2 436.3 662.2 436.3 662.3 436.4C663.3 437.6 664.2 438.8 665.2 440C665.5 440.3 665.7 440.6 666 440.9C666.6 441.5 667.1 442.2 667.7 442.8C667.7 442.8 667.7 442.8 667.8 442.9C668.4 443.5 668.9 444.1 669.5 444.7C669.8 445 670.1 445.3 670.3 445.6C670.7 446.1 671.1 446.5 671.5 446.9C672.2 447.6 672.9 448.4 673.6 449.1C674.2 449.7 674.8 450.3 675.4 450.9C676.1 451.6 676.8 452.2 677.5 452.9C678.1 453.5 678.8 454.1 679.4 454.7C680.1 455.3 680.9 456 681.6 456.6C682.2 457.2 682.9 457.7 683.5 458.3C683.7 458.5 683.9 458.7 684.1 458.8C685.3 459.8 686.4 460.8 687.6 461.7C688.9 462.8 690.2 463.8 691.6 464.8C692 465.1 692.5 465.5 692.9 465.8C693.5 466.3 694.2 466.7 694.8 467.2C695.6 467.7 696.3 468.3 697.1 468.8C697.7 469.2 698.2 469.6 698.8 469.9C699.6 470.4 700.3 470.9 701.1 471.4C701.6 471.8 702.2 472.1 702.7 472.4C703.8 473.1 704.9 473.8 706 474.4C706.2 474.5 706.3 474.6 706.5 474.7C706.7 474.8 706.8 474.9 707 475C707.7 475.4 708.4 475.8 709.1 476.2C709.5 476.4 709.8 476.6 710.2 476.8C710.2 476.8 710.3 476.8 710.3 476.9C710.4 477 710.5 477 710.6 477.1C711.3 477.5 711.9 477.8 712.6 478.2C712.7 478.2 712.8 478.3 712.8 478.3C712.8 478.3 712.9 478.3 712.9 478.4C713.6 478.8 714.2 479.1 714.9 479.4C715.4 479.7 715.9 479.9 716.5 480.2C718.1 481 719.7 481.7 721.3 482.5C721.7 482.7 722.1 482.9 722.5 483C723.1 483.3 723.7 483.5 724.3 483.8C724.6 483.9 725 484.1 725.3 484.2C725.4 484.2 725.5 484.3 725.5 484.3C726.5 484.7 727.4 485.1 728.4 485.5C729.5 485.9 730.6 486.4 731.8 486.8C731.9 486.8 732 486.9 732.1 486.9C732.6 487.1 733.1 487.3 733.6 487.5C733.7 487.5 733.8 487.6 733.9 487.6C733.9 487.6 734 487.6 734 487.7C734.3 487.8 734.5 487.9 734.7 488L735 488.1C735.1 488.1 735.2 488.2 735.3 488.2H777H794.8H829.4H839.2V487.8Z" fill="#F68620"/>
<path d="M839.2 487.8C885.7 471.9 922.6 435.2 938.7 388.7C944.4 372.3 947.5 354.7 947.5 336.3C947.5 335.5 947.5 334.7 947.5 333.9C947.5 333.2 947.5 332.5 947.5 331.8C947.5 331.2 947.5 330.7 947.4 330.1C947.4 329.8 947.4 329.5 947.4 329.2V329.1C947.4 329 947.4 329 947.4 328.9C947.4 328.7 947.4 328.5 947.4 328.4C947.4 328.2 947.4 328 947.4 327.9C947.4 327.9 947.4 327.8 947.4 327.7C947.4 327.4 947.4 327.2 947.4 326.9V326.8C947.4 326.3 947.3 325.7 947.3 325.2C947.3 324.9 947.3 324.7 947.3 324.4C947.3 324.3 947.3 324.2 947.3 324.1C947.3 323.7 947.3 323.4 947.2 323C947.1 322.4 947.1 321.8 947 321.2C947 320.7 946.9 320.1 946.8 319.6C946.8 319.5 946.8 319.4 946.8 319.3C946.8 319.1 946.8 319 946.8 318.8C946.8 318.4 946.7 317.9 946.6 317.5C946.5 316.6 946.4 315.7 946.3 314.8C946.2 314.2 946.1 313.5 946 312.9C946 312.8 946 312.7 946 312.6C945.9 312 945.8 311.3 945.7 310.6C945.6 310 945.5 309.3 945.4 308.7C945.3 308.1 945.2 307.4 945.1 306.8C945.1 306.5 945 306.3 945 306C944.8 304.8 944.5 303.5 944.2 302.3C944.1 302 944.1 301.8 944 301.5C944 301.4 943.9 301.3 943.9 301.2C943.9 301.1 943.9 301.1 943.9 301.1C943.9 301 943.9 301 943.9 300.9C943.9 300.7 943.8 300.5 943.8 300.4C943.8 300.4 943.8 300.4 943.8 300.3C943.7 299.7 943.5 299 943.3 298.4C943.2 298.1 943.2 297.8 943.1 297.6C943.1 297.5 943 297.3 943 297.2C942.9 297 942.9 296.7 942.8 296.5C942.7 296 942.5 295.5 942.4 295C942.4 294.8 942.3 294.6 942.2 294.4C942 293.7 941.8 292.9 941.6 292.2C941.4 291.7 941.3 291.1 941.1 290.6V290.5C940.9 289.8 940.7 289.2 940.5 288.5C940.3 287.8 940.1 287.2 939.9 286.5C939.9 286.4 939.9 286.4 939.8 286.3C939.6 285.8 939.4 285.2 939.3 284.7C939.2 284.5 939.2 284.3 939.1 284.2C938.8 283.5 938.6 282.8 938.3 282.1C938 281.4 937.8 280.7 937.5 280C937.4 279.7 937.2 279.3 937.1 279C937 278.6 936.8 278.3 936.7 277.9C936.6 277.7 936.5 277.4 936.4 277.2C936.2 276.7 936 276.3 935.8 275.8C935.5 275.1 935.2 274.4 934.9 273.7C934.6 273 934.3 272.3 934 271.6C933.9 271.4 933.8 271.3 933.8 271.1C933.7 270.9 933.7 270.8 933.6 270.6C933.6 270.5 933.5 270.4 933.5 270.3C933.4 270 933.3 269.8 933.1 269.5C933 269.2 932.9 269 932.7 268.7C932.5 268.3 932.3 267.9 932.1 267.4C932 267.2 931.9 267.1 931.9 266.9C931.6 266.3 931.3 265.6 930.9 265C930.6 264.4 930.3 263.8 930 263.1C929.6 262.4 929.2 261.6 928.8 260.9C928.5 260.4 928.2 259.8 927.9 259.3C927.9 259.3 927.9 259.2 927.8 259.2C927.5 258.6 927.2 258.1 926.8 257.5C926.5 257.1 926.3 256.6 926 256.2C925.9 256 925.8 255.8 925.6 255.6C925.5 255.4 925.3 255.1 925.2 254.9C925 254.5 924.7 254.1 924.5 253.7C924.1 253.1 923.7 252.4 923.3 251.8C922.9 251.2 922.5 250.5 922.1 249.9C921.7 249.3 921.3 248.7 920.9 248C920.5 247.3 920.1 246.8 919.6 246.1C918.8 244.9 917.9 243.7 917 242.5C916.6 241.9 916.1 241.3 915.7 240.7C915.3 240.1 914.8 239.5 914.4 238.9C914.3 238.8 914.2 238.7 914.2 238.6C914.2 238.5 914.1 238.5 914.1 238.4C912.6 236.5 911.1 234.6 909.6 232.8C908.8 231.8 907.9 230.9 907.1 229.9C907.1 229.9 907.1 229.9 907 229.8C906.7 229.4 906.3 229 905.9 228.6C905.8 228.5 905.7 228.4 905.7 228.3C905.3 227.8 904.8 227.3 904.4 226.9C903 225.4 901.6 224 900.2 222.6C900.1 222.5 900 222.5 900 222.4C899.9 222.3 899.8 222.3 899.8 222.2C899.5 221.9 899.3 221.6 899 221.4C898.9 221.3 898.8 221.2 898.7 221.1C898.6 221 898.6 221 898.5 221C898.2 220.8 898 220.5 897.7 220.3C897.4 220.1 897.2 219.8 896.9 219.6C896.8 219.5 896.7 219.4 896.6 219.3C896.4 219.1 896.3 219 896.1 218.8C896 218.7 896 218.7 895.9 218.6C895.8 218.5 895.7 218.4 895.6 218.3C895.6 218.3 895.5 218.3 895.5 218.2C895.4 218.1 895.3 218 895.2 217.9C895 217.8 894.9 217.6 894.7 217.5C894.5 217.4 894.4 217.2 894.2 217.1C893.9 216.8 893.6 216.5 893.2 216.2C893.2 216.2 893.2 216.2 893.1 216.1C893 216 893 216 892.9 216C892.4 215.6 891.9 215.1 891.4 214.7C890.8 214.2 890.3 213.8 889.7 213.3C888.6 212.4 887.4 211.4 886.3 210.5C901.8 230.9 912.6 255.1 916.8 281.5C918.2 289.9 918.9 298.5 918.9 307.3C918.9 309.8 918.8 312.3 918.7 314.8C918.3 323.6 917.2 332.2 915.4 340.6C907.8 376.4 888.3 407.7 861.2 430.3C854.1 436.2 846.4 441.6 838.3 446.2C814.9 459.6 787.8 467.3 758.9 467.3C748.3 467.3 737.9 466.3 727.8 464.3C702.5 459.3 679.4 448.4 660 433.1C663.2 437.3 666.6 441.3 670.2 445.2C681 456.8 693.4 466.8 707.2 474.8C707.9 475.2 708.6 475.6 709.3 476C709.7 476.2 710 476.4 710.4 476.6C710.4 476.6 710.5 476.6 710.5 476.7C710.6 476.8 710.7 476.8 710.8 476.9C711.5 477.3 712.1 477.6 712.8 478C712.9 478 713 478.1 713 478.1C713 478.1 713.1 478.1 713.1 478.2C713.8 478.6 714.4 478.9 715.1 479.2C715.6 479.5 716.1 479.7 716.7 480C718.3 480.8 719.9 481.5 721.5 482.3C721.9 482.5 722.3 482.7 722.7 482.8C723.3 483.1 723.9 483.3 724.5 483.6C724.8 483.7 725.2 483.9 725.5 484C725.6 484 725.7 484.1 725.7 484.1C726.7 484.5 727.6 484.9 728.6 485.3C729.7 485.7 730.8 486.2 732 486.6C732.1 486.6 732.2 486.7 732.3 486.7C732.8 486.9 733.3 487.1 733.8 487.3C733.9 487.3 734 487.4 734.1 487.4C734.1 487.4 734.2 487.4 734.2 487.5C734.5 487.6 734.7 487.7 734.9 487.8C735 487.8 735.1 487.9 735.2 487.9C735.3 487.9 735.4 488 735.5 488H777H794.8H829.4H839.2V487.8Z" fill="#F66D20"/>
<path d="M708.4 250.8C707.9 250.8 707.4 250.6 707 250.2C706.2 249.4 706.1 248.1 706.9 247.2C707.1 247 728.5 224.7 756.1 243.3C757.1 243.9 757.3 245.3 756.7 246.2C756.1 247.2 754.7 247.4 753.8 246.8C729.2 230.2 710.8 249.2 710 250.1C709.5 250.6 709 250.8 708.4 250.8Z" fill="black"/>
<path d="M873.1 250.8C872.5 250.8 872 250.6 871.6 250.1C870.8 249.3 852.4 230.2 827.8 246.8C826.8 247.4 825.5 247.2 824.9 246.2C824.3 245.2 824.5 243.9 825.5 243.3C853.1 224.6 874.5 247 874.7 247.2C875.5 248 875.4 249.4 874.6 250.2C874.1 250.6 873.6 250.8 873.1 250.8Z" fill="black"/>
<path d="M738.9 315.8C753.867 315.8 766 303.667 766 288.7C766 273.733 753.867 261.6 738.9 261.6C723.933 261.6 711.8 273.733 711.8 288.7C711.8 303.667 723.933 315.8 738.9 315.8Z" fill="#F8F9E3"/>
<path d="M843 315.8C857.967 315.8 870.1 303.667 870.1 288.7C870.1 273.733 857.967 261.6 843 261.6C828.033 261.6 815.9 273.733 815.9 288.7C815.9 303.667 828.033 315.8 843 315.8Z" fill="#F8F9E3"/>
<path d="M711.7 288.7C711.4 285.1 711.9 281.5 713.1 278.1C714.3 274.7 716.3 271.5 718.8 268.8C721.3 266.1 724.5 264 727.9 262.5C731.3 261 735.1 260.3 738.8 260.3C742.5 260.3 746.3 261.1 749.7 262.5C753.1 264 756.2 266.1 758.8 268.8C761.3 271.5 763.3 274.7 764.5 278.1C765.7 281.5 766.2 285.2 765.9 288.7C765.3 281.6 762.2 275 757.2 270.3C752.2 265.6 745.5 262.9 738.8 263C732 263 725.4 265.6 720.4 270.3C715.5 275 712.3 281.6 711.7 288.7Z" fill="black"/>
<path d="M766 288.7C766.3 292.3 765.8 295.9 764.6 299.3C763.4 302.7 761.4 305.9 758.9 308.6C756.4 311.3 753.2 313.4 749.8 314.9C746.4 316.4 742.6 317.1 738.9 317.1C735.2 317.1 731.4 316.3 728 314.9C724.6 313.4 721.5 311.3 718.9 308.6C716.4 305.9 714.4 302.7 713.2 299.3C712 295.9 711.5 292.2 711.8 288.7C712.4 295.8 715.5 302.4 720.5 307.1C725.5 311.8 732.2 314.5 738.9 314.4C745.7 314.4 752.3 311.8 757.3 307.1C762.3 302.4 765.4 295.8 766 288.7Z" fill="black"/>
<path d="M789.6 326C777.5 326 773.7 316.2 773.5 311C773.4 309.8 774.3 308.9 775.5 308.8C776.7 308.7 777.6 309.6 777.7 310.8C777.8 311.9 778.7 321.8 789.7 321.8C793.1 321.8 795.7 320.8 797.6 319C800.7 315.9 800.6 311 800.6 311C800.6 309.8 801.5 308.9 802.6 308.8C803.8 308.8 804.7 309.7 804.8 310.8C804.8 311.1 804.9 317.4 800.6 321.9C797.8 324.6 794.1 326 789.6 326Z" fill="black"/>
<path d="M734.6 316.2C744.43 316.2 752.4 308.23 752.4 298.4C752.4 288.569 744.43 280.6 734.6 280.6C724.769 280.6 716.8 288.569 716.8 298.4C716.8 308.23 724.769 316.2 734.6 316.2Z" fill="#040809"/>
<path d="M815.8 288.7C815.5 285.1 816 281.5 817.2 278.1C818.4 274.7 820.4 271.5 822.9 268.8C825.4 266.1 828.6 264 832 262.5C835.4 261 839.2 260.3 842.9 260.3C846.6 260.3 850.4 261.1 853.8 262.5C857.2 264 860.3 266.1 862.9 268.8C865.4 271.5 867.4 274.7 868.6 278.1C869.8 281.5 870.3 285.2 870 288.7C869.4 281.6 866.3 275 861.3 270.3C856.3 265.6 849.6 262.9 842.9 263C836.1 263 829.5 265.6 824.5 270.3C819.6 275 816.4 281.6 815.8 288.7Z" fill="black"/>
<path d="M870.1 288.7C870.4 292.3 869.9 295.9 868.7 299.3C867.5 302.7 865.5 305.9 863 308.6C860.5 311.3 857.3 313.4 853.9 314.9C850.5 316.4 846.7 317.1 843 317.1C839.3 317.1 835.5 316.3 832.1 314.9C828.7 313.4 825.6 311.3 823 308.6C820.5 305.9 818.5 302.7 817.3 299.3C816.1 295.9 815.6 292.2 815.9 288.7C816.5 295.8 819.6 302.4 824.6 307.1C829.6 311.8 836.3 314.5 843 314.4C849.8 314.4 856.4 311.8 861.4 307.1C866.4 302.4 869.5 295.8 870.1 288.7Z" fill="black"/>
<path d="M840.9 316.2C850.73 316.2 858.7 308.23 858.7 298.4C858.7 288.569 850.73 280.6 840.9 280.6C831.069 280.6 823.1 288.569 823.1 298.4C823.1 308.23 831.069 316.2 840.9 316.2Z" fill="#040809"/>
<path d="M923.009 342.866C933.155 342.284 940.587 328 939.61 310.961C938.632 293.923 929.615 280.583 919.469 281.165C909.323 281.747 901.891 296.031 902.869 313.069C903.846 330.108 912.864 343.448 923.009 342.866Z" fill="white"/>
<path d="M897.2 284.7C903.607 284.7 908.8 279.507 908.8 273.1C908.8 266.694 903.607 261.5 897.2 261.5C890.794 261.5 885.6 266.694 885.6 273.1C885.6 279.507 890.794 284.7 897.2 284.7Z" fill="white"/>
<path d="M1056.9 417.601C1056.7 417.601 1056.5 417.601 1056.3 417.601C1052.7 390.501 1032.5 368.701 1006.2 362.701C1001.6 361.601 996.7 361.101 991.8 361.101C969.8 361.101 950.4 372.001 938.6 388.701C933.7 395.601 930.1 403.601 928.2 412.201C912.4 414.601 898.3 422.501 888.2 433.901C882.8 431.001 876.6 429.301 870 429.301C866.9 429.301 864 429.701 861.1 430.301C851.6 432.601 843.5 438.301 838.2 446.201C834.8 451.201 832.6 457.101 831.9 463.501C822.4 465.301 813.7 469.401 806.4 475.101C801.9 478.701 797.9 482.901 794.6 487.601H1020.1C1039.5 487.601 1058.4 485.301 1076.5 481.101C1085.3 479.001 1094 476.501 1102.4 473.401C1107.2 471.701 1111.9 469.801 1116.5 467.801C1111.8 439.401 1086.9 417.601 1056.9 417.601Z" fill="#F5F4ED"/>
<path d="M1102.5 473.6C1094.1 476.6 1085.5 479.2 1076.6 481.3C1074.7 479.1 1073 476.6 1071.6 473.8C1065 461.4 1065.6 448.1 1073 444.3C1080.3 440.4 1091.6 447.4 1098.2 459.8C1100.6 464.4 1102.1 469.2 1102.5 473.6Z" fill="white"/>
<path d="M1050.2 454.7C1057.05 454.7 1062.6 449.149 1062.6 442.3C1062.6 435.452 1057.05 429.9 1050.2 429.9C1043.35 429.9 1037.8 435.452 1037.8 442.3C1037.8 449.149 1043.35 454.7 1050.2 454.7Z" fill="white"/>
<path d="M829.4 487.8H417.3C417.1 485.7 417 483.6 417 481.4C417 441 449.7 408.3 490.1 408.3C493.3 408.3 496.5 408.5 499.6 408.9C503.2 385.6 516.2 365.3 534.6 352.2C548.6 342.2 565.7 336.4 584.2 336.4C600.2 336.4 615.2 340.8 628 348.4C651.9 362.7 668.3 388.3 669.7 417.8C670.4 418 671.2 418.2 671.9 418.5C679.9 421 687.4 424.5 694.4 428.8C708.4 437.6 720 449.8 728 464.3C730.1 468.1 731.9 472 733.5 476.1C745.1 471.2 757.9 468.6 771.3 468.6C783.8 468.6 795.7 470.9 806.7 475.2C814.8 478.4 822.4 482.7 829.4 487.8Z" fill="#F5F4ED"/>
<path d="M829.4 487.8H777C757.2 474.9 733.4 476.2 733.4 476.2C745 471.3 757.8 468.7 771.2 468.7C783.7 468.7 795.6 471 806.6 475.3C814.8 478.4 822.4 482.7 829.4 487.8Z" fill="#F5F4ED"/>
<path d="M649.998 419.723C657.507 415.388 657.505 401.327 649.994 388.318C642.483 375.309 630.307 368.277 622.798 372.613C615.289 376.948 615.291 391.009 622.802 404.018C630.313 417.027 642.489 424.059 649.998 419.723Z" fill="white"/>
<path d="M596.7 391.401C602.72 391.401 607.6 386.52 607.6 380.501C607.6 374.481 602.72 369.601 596.7 369.601C590.68 369.601 585.8 374.481 585.8 380.501C585.8 386.52 590.68 391.401 596.7 391.401Z" fill="white"/>
<path d="M829.4 487.8H735.2C735.2 487.7 735.2 487.7 735.2 487.6C734.4 480.4 733.5 476.2 733.5 476.2C745.1 471.3 757.9 468.7 771.3 468.7C783.8 468.7 795.7 471 806.7 475.3C814.8 478.4 822.4 482.7 829.4 487.8Z" fill="#F5F4ED"/>
</g>
<defs>
<clipPath id="clip0_5470_17857">
<rect width="1264.2" height="487.8" fill="white"/>
</clipPath>
</defs>
</svg>
