<svg width="408" height="645" viewBox="0 0 408 645" fill="none" xmlns="http://www.w3.org/2000/svg">
<g clip-path="url(#clip0_4906_1300)">
<path d="M203.82 644.46C316.387 644.46 407.64 622.343 407.64 595.06C407.64 567.777 316.387 545.66 203.82 545.66C91.2533 545.66 0 567.777 0 595.06C0 622.343 91.2533 644.46 203.82 644.46Z" fill="#A7A9AC"/>
<path d="M146.07 595.061C138.552 595.065 131.084 593.825 123.97 591.391C123.41 591.201 122.86 591.011 122.32 590.811C114.927 588.076 108.059 584.088 102.02 579.021C101.35 578.451 100.68 577.871 100.02 577.271C96.1238 573.742 92.6475 569.776 89.6602 565.451C89.1135 564.671 88.5835 563.871 88.0702 563.051C87.0702 561.431 86.0702 559.741 85.2002 558.051C84.7602 557.201 84.3302 556.331 83.9202 555.451C81.8411 550.968 80.2519 546.275 79.1802 541.451L46.9702 397.231H44.1802C35.6981 397.215 27.568 393.839 21.5703 387.841C15.5726 381.843 12.196 373.713 12.1802 365.231V294.901C12.1934 286.418 15.5691 278.286 21.5674 272.288C27.5657 266.29 35.6973 262.914 44.1802 262.901H173.73V173.731C166.98 152.981 166.78 126.151 173.12 93.9209C176.248 78.3059 181.465 63.1833 188.63 48.9609C205.12 16.9109 228.94 -0.0390625 257.53 -0.0390625C263.36 -0.0153582 269.169 0.655416 274.85 1.96094C298.09 7.24094 315.64 23.8809 324.27 48.8309L324.4 49.2109C325.067 51.1643 325.66 53.1076 326.18 55.0409L326.36 55.7209C326.6 56.6309 326.84 57.5909 327.07 58.5509L327.14 58.8609C327.32 59.6609 327.51 60.5309 327.69 61.4009L327.85 62.2309C328.03 63.1709 328.2 64.0809 328.36 65.0109L328.46 65.6509C328.59 66.4109 328.7 67.1609 328.81 67.9109C328.81 68.2509 328.9 68.601 328.95 68.9109C329.07 69.781 329.17 70.6709 329.27 71.5709L329.36 72.5109C329.43 73.1709 329.49 73.8209 329.55 74.5109L329.64 75.7009C329.7 76.5709 329.76 77.4309 329.8 78.2909C329.8 78.6009 329.85 79.5009 329.85 79.5009C329.85 80.0709 329.85 80.6509 329.91 81.2209C329.97 81.7909 329.91 82.1109 329.91 82.5609C329.91 83.4009 329.91 84.2209 329.91 85.0409C329.91 85.4409 329.91 85.8609 329.91 86.2709V86.4909V88.0109C329.91 88.4909 329.91 89.0109 329.91 89.4809C329.91 90.2909 329.84 91.0909 329.8 91.8909L329.71 93.2809C329.71 93.2809 329.63 94.3809 329.6 94.8309C329.57 95.2809 329.51 95.9109 329.46 96.4409C329.41 96.9709 329.37 97.4409 329.32 97.9509C329.27 98.4609 329.32 98.6909 329.24 99.0609C325.06 136.801 305.6 170.971 277.16 190.471L276.99 190.581C276.39 190.991 275.72 191.441 274.99 191.881L274.83 191.991C274.07 192.481 273.28 192.991 272.48 193.471L272.04 193.731C271.12 194.291 270.21 194.821 269.28 195.341L268.75 195.641C268.12 196.001 267.46 196.351 266.75 196.701L265.31 197.461L264.45 197.891L263.39 198.411L261.68 199.221L260.8 199.621L259.65 200.131L258.58 200.591L257.1 201.201L255.24 201.931L254.77 202.111L254.38 202.261C253.57 202.561 252.8 202.831 252.03 203.101L251.03 203.431L250.15 203.721C249.22 204.021 248.27 204.311 247.32 204.591L246.58 204.811L245.72 205.051C244.85 205.291 244.04 205.511 243.21 205.721L242.21 205.961L240.07 206.451L238.55 206.781L238.01 206.891V262.821H350.87C359.353 262.834 367.485 266.21 373.483 272.208C379.481 278.206 382.857 286.338 382.87 294.821V365.131C382.854 373.613 379.478 381.743 373.48 387.741C367.482 393.739 359.352 397.115 350.87 397.131H348.08L315.87 541.461C314.421 547.841 312.064 553.98 308.87 559.691C308.54 560.301 308.19 560.911 307.87 561.511C307.01 562.961 306.19 564.251 305.35 565.451C304.28 567.011 303.12 568.551 301.91 570.021C301.3 570.761 300.68 571.481 300.05 572.191C293.616 579.379 285.738 585.131 276.932 589.072C268.126 593.012 258.588 595.053 248.94 595.061H146.07Z" fill="#231F20"/>
<path d="M223.12 161.66H188.73V321.28H223.12V161.66Z" fill="#67BE65"/>
<path d="M187.87 96.7112C187.87 96.7112 204.66 1.47118 271.54 16.6412C348.04 34.0012 322.04 204.301 204.99 193.691C204.98 193.691 171.92 177.531 187.87 96.7112Z" fill="#67BE65"/>
<path d="M309.22 51.3809C301.37 69.7709 285.35 101.241 260.5 122.771C240.65 139.971 215.15 150.831 183.68 143.631C185.68 184.231 204.98 193.691 204.98 193.691C293.7 201.731 330.13 105.831 309.22 51.3809Z" fill="#4CA84D"/>
<g style="mix-blend-mode:multiply">
<path d="M314.25 97.4707C288.31 168.381 216.82 173.121 189.13 172.201C195.49 189.021 205.02 193.691 205.02 193.691C271.67 199.691 308.8 147.111 314.29 97.4707H314.25Z" fill="#4CA84E"/>
</g>
<path d="M256.12 60.8918C263.12 48.7618 261.42 34.6818 252.33 29.4218C243.24 24.1618 230.18 29.7418 223.18 41.8718C216.18 54.0018 217.88 68.0818 226.98 73.3318C236.08 78.5818 249.12 73.0118 256.12 60.8918Z" fill="white"/>
<path d="M209.55 88.6303C211.492 88.6303 213.391 88.0543 215.006 86.9753C216.621 85.8962 217.879 84.3626 218.622 82.5682C219.366 80.7738 219.56 78.7993 219.181 76.8944C218.802 74.9896 217.867 73.2398 216.494 71.8665C215.12 70.4931 213.371 69.5578 211.466 69.1789C209.561 68.8 207.586 68.9945 205.792 69.7377C203.998 70.481 202.464 71.7396 201.385 73.3545C200.306 74.9694 199.73 76.868 199.73 78.8102C199.73 81.4147 200.765 83.9124 202.606 85.754C204.448 87.5956 206.946 88.6303 209.55 88.6303Z" fill="white"/>
<path d="M248.93 580.061H146.07C133.907 580.049 122.111 575.896 112.623 568.286C103.135 560.675 96.5212 550.061 93.8701 538.191L47.3301 330.051H347.66L301.18 538.191C298.527 550.07 291.906 560.69 282.408 568.301C272.91 575.912 261.102 580.06 248.93 580.061Z" fill="#F8A43F"/>
<path d="M302.55 330.051L256.07 538.191C253.419 550.061 246.805 560.675 237.317 568.286C227.829 575.896 216.033 580.049 203.87 580.061H248.98C261.152 580.06 272.96 575.912 282.458 568.301C291.956 560.69 298.577 550.07 301.23 538.191L347.71 330.051H302.55Z" fill="#EEB678"/>
<g style="mix-blend-mode:multiply" opacity="0.47">
<path d="M47.3301 330.051L63.8701 403.961H243.65C243.65 403.961 259.17 525.691 93.8701 538.191C96.5212 550.061 103.135 560.675 112.623 568.286C122.111 575.896 133.907 580.049 146.07 580.061H248.93C261.102 580.06 272.91 575.912 282.408 568.301C291.906 560.69 298.527 550.07 301.18 538.191L347.66 330.051H47.3301Z" fill="#EEB678"/>
</g>
<path d="M350.82 277.871H44.1802C34.7803 277.871 27.1602 285.491 27.1602 294.891V365.201C27.1602 374.601 34.7803 382.221 44.1802 382.221H350.82C360.22 382.221 367.84 374.601 367.84 365.201V294.891C367.84 285.491 360.22 277.871 350.82 277.871Z" fill="#F8A43F"/>
<path d="M326.27 335.362C337.94 335.362 347.4 325.901 347.4 314.232C347.4 302.562 337.94 293.102 326.27 293.102C314.6 293.102 305.14 302.562 305.14 314.232C305.14 325.901 314.6 335.362 326.27 335.362Z" fill="white"/>
<path d="M223.12 161.66H188.73V321.28H223.12V161.66Z" fill="#67BE65"/>
<path d="M187.87 96.7112C187.87 96.7112 204.66 1.47118 271.54 16.6412C348.04 34.0012 322.04 204.301 204.99 193.691C204.98 193.691 171.92 177.531 187.87 96.7112Z" fill="#67BE65"/>
<path d="M309.22 51.3809C301.37 69.7709 285.35 101.241 260.5 122.771C240.65 139.971 215.15 150.831 183.68 143.631C185.68 184.231 204.98 193.691 204.98 193.691C293.7 201.731 330.13 105.831 309.22 51.3809Z" fill="#4CA84D"/>
<g style="mix-blend-mode:multiply">
<path d="M314.25 97.4707C288.31 168.381 216.82 173.121 189.13 172.201C195.49 189.021 205.02 193.691 205.02 193.691C271.67 199.691 308.8 147.111 314.29 97.4707H314.25Z" fill="#4CA84E"/>
</g>
<path d="M256.12 60.8918C263.12 48.7618 261.42 34.6818 252.33 29.4218C243.24 24.1618 230.18 29.7418 223.18 41.8718C216.18 54.0018 217.88 68.0818 226.98 73.3318C236.08 78.5818 249.12 73.0118 256.12 60.8918Z" fill="white"/>
<path d="M209.55 88.6303C211.492 88.6303 213.391 88.0543 215.006 86.9753C216.621 85.8962 217.879 84.3626 218.622 82.5682C219.366 80.7738 219.56 78.7993 219.181 76.8944C218.802 74.9896 217.867 73.2398 216.494 71.8665C215.12 70.4931 213.371 69.5578 211.466 69.1789C209.561 68.8 207.586 68.9945 205.792 69.7377C203.998 70.481 202.464 71.7396 201.385 73.3545C200.306 74.9694 199.73 76.868 199.73 78.8102C199.73 81.4147 200.765 83.9124 202.606 85.754C204.448 87.5956 206.946 88.6303 209.55 88.6303Z" fill="white"/>
<path d="M248.93 580.061H146.07C133.907 580.049 122.111 575.896 112.623 568.286C103.135 560.675 96.5212 550.061 93.8701 538.191L47.3301 330.051H347.66L301.18 538.191C298.527 550.07 291.906 560.69 282.408 568.301C272.91 575.912 261.102 580.06 248.93 580.061Z" fill="#F8A43F"/>
<path d="M302.55 330.051L256.07 538.191C253.419 550.061 246.805 560.675 237.317 568.286C227.829 575.896 216.033 580.049 203.87 580.061H248.98C261.152 580.06 272.96 575.912 282.458 568.301C291.956 560.69 298.577 550.07 301.23 538.191L347.71 330.051H302.55Z" fill="#EEB678"/>
<g style="mix-blend-mode:multiply" opacity="0.47">
<path d="M47.3301 330.051L63.8701 403.961H243.65C243.65 403.961 259.17 525.691 93.8701 538.191C96.5212 550.061 103.135 560.675 112.623 568.286C122.111 575.896 133.907 580.049 146.07 580.061H248.93C261.102 580.06 272.91 575.912 282.408 568.301C291.906 560.69 298.527 550.07 301.18 538.191L347.66 330.051H47.3301Z" fill="#EEB678"/>
</g>
<path d="M350.82 277.871H44.1802C34.7803 277.871 27.1602 285.491 27.1602 294.891V365.201C27.1602 374.601 34.7803 382.221 44.1802 382.221H350.82C360.22 382.221 367.84 374.601 367.84 365.201V294.891C367.84 285.491 360.22 277.871 350.82 277.871Z" fill="#F8A43F"/>
<path d="M326.27 335.362C337.94 335.362 347.4 325.901 347.4 314.232C347.4 302.562 337.94 293.102 326.27 293.102C314.6 293.102 305.14 302.562 305.14 314.232C305.14 325.901 314.6 335.362 326.27 335.362Z" fill="white"/>
</g>
<defs>
<clipPath id="clip0_4906_1300">
<rect width="407.65" height="644.46" fill="white"/>
</clipPath>
</defs>
</svg>
