<svg width="435" height="556" viewBox="0 0 435 556" fill="none" xmlns="http://www.w3.org/2000/svg">
<g clip-path="url(#clip0_6248_344)">
<path d="M197.691 555.94C194.621 555.94 191.601 555.94 188.691 555.82L186.371 555.76C183.151 555.65 179.971 555.5 176.901 555.3C175.291 555.2 173.68 555.08 172.05 554.94C169.57 554.74 167.051 554.49 164.631 554.21C152.489 552.888 140.501 550.41 128.831 546.81C127.091 546.26 125.351 545.68 123.661 545.08C102.531 537.59 84.6606 525.96 70.6606 510.53L69.4707 509.22L68.6506 508.22L67.9606 507.4C67.8006 507.22 67.3305 506.64 67.3005 506.6C66.8905 506.09 66.4504 505.51 66.0004 504.9L65.9406 504.82C65.7006 504.51 65.4707 504.18 65.2307 503.82L65.1406 503.69L64.5505 502.84C64.5263 502.793 64.4962 502.749 64.4606 502.71C64.2506 502.38 64.0305 502.06 63.8105 501.71L63.7504 501.61C62.8004 500.14 61.8804 498.61 61.0004 496.91V496.83L60.3706 495.62C60.3706 495.57 60.3705 495.51 60.3005 495.48C60.1305 495.15 59.9307 494.74 59.7207 494.31L59.6706 494.21C53.1406 480.69 44.8006 455.33 28.1906 362.16C18.6306 308.62 13.3405 272.27 12.0305 251.06C10.8805 232.42 12.7106 225.27 15.4306 219.12C17.3406 203.2 29.9706 188.31 52.4306 175.35C51.8106 174.63 51.1805 173.9 50.5705 173.17L49.8005 172.23L49.2307 171.54C48.4107 170.54 47.5905 169.54 46.7905 168.54C46.5705 168.27 46.3606 167.99 46.1506 167.71L45.8906 167.38C44.9706 166.21 44.0506 165.03 43.1606 163.83L42.6406 163.13L42.4707 162.89C41.4707 161.61 40.5806 160.33 39.6706 159.04L39.1706 158.31C38.2106 156.977 37.2639 155.6 36.3305 154.18L36.0004 153.67C35.0004 152.18 34.0606 150.72 33.1406 149.25L32.9106 148.87C31.9106 147.22 30.9105 145.71 30.0905 144.25L29.9707 144.05C6.71824 104.745 -3.43744 59.0651 0.970654 13.6101C1.31342 9.96413 2.97801 6.56928 5.65083 4.06593C8.32365 1.56258 11.8201 0.123584 15.4807 0.0200334C17.4807 0.0200334 19.6106 -0.0700545 21.6606 -0.0700545C50.8049 -0.109282 79.6564 5.74488 106.481 17.1402C134.297 28.9248 159.32 46.4346 179.921 68.53C195.086 84.6791 207.674 103.068 217.24 123.05C226.808 103.069 239.396 84.68 254.561 68.53C275.167 46.4366 300.193 28.9273 328.01 17.1402C354.829 5.73932 383.679 -0.115103 412.82 -0.0700545C414.87 -0.0700545 416.95 -0.0699666 419 0.0200334C422.661 0.123584 426.157 1.56258 428.83 4.06593C431.503 6.56928 433.168 9.96413 433.51 13.6101C437.719 57.1084 428.617 100.859 407.411 139.07C407.411 139.07 407.411 139.15 407.341 139.2C406.481 140.76 405.551 142.37 404.591 143.99C404.54 144.09 404.483 144.187 404.421 144.28C403.561 145.75 402.641 147.28 401.621 148.88L401.421 149.21C400.421 150.72 399.52 152.21 398.56 153.64L398.201 154.18C397.281 155.57 396.321 156.95 395.361 158.33L394.871 159.04C393.931 160.37 392.96 161.68 391.99 163.04L391.851 163.22L391.391 163.86C390.481 165.07 389.541 166.27 388.611 167.46L388.381 167.77C388.171 168.04 387.96 168.32 387.74 168.59C386.83 169.74 385.881 170.89 384.941 172.03L384.76 172.24C405.88 184.06 417.661 197.7 419.891 212.93C431.451 237.31 425.731 264.66 415.641 312.86C414.091 320.24 412.5 327.86 410.8 336.23C409.99 340.23 409.15 344.4 408.31 348.7L407.31 354L406.461 358.47L405.631 362.84L404.82 367.23C404.55 368.7 404.28 370.17 404.01 371.66C399.47 396.79 395.961 415.86 392.191 432.49C391.481 435.65 390.75 438.7 390.05 441.56C389.35 444.42 388.55 447.43 387.81 450.12C387.43 451.51 387.041 452.88 386.651 454.22C385.861 456.93 385.041 459.58 384.211 462.09C382.471 467.38 380.671 472.09 378.721 476.63C374.082 487.724 367.593 497.949 359.53 506.87C350.787 516.362 340.704 524.525 329.601 531.1C328.101 531.98 326.6 532.85 325.06 533.67C289.35 553.04 250.171 554.39 221.561 555.38L216.481 555.55L213.79 555.64L211.02 555.72C209.247 555.773 207.447 555.813 205.621 555.84H202.53C201.017 555.84 199.487 555.84 197.941 555.84L197.691 555.94Z" fill="black"/>
<path d="M30.1407 223.03C85.6707 169.35 179.881 159.59 216.091 159.79C263.641 160.05 308.491 163.79 405.271 217.24C419.891 244.67 405.271 280.3 389.271 369.02C376.751 438.21 370.031 473.33 348.501 496.75C311.161 537.33 257.221 539.17 221.001 540.42C183.841 541.73 121.301 543.84 81.7906 500.42C71.7906 489.57 63.7907 476.21 42.9507 359.6C20.8607 236.23 26.3507 231.31 30.1407 223.03Z" fill="#FFA8B9"/>
<path d="M372.861 200.199L332.151 278.099C332.151 278.099 341.911 442.699 271.021 503.439C237.811 531.889 213.091 539.299 199.551 540.929C207.301 540.929 214.551 540.649 221.001 540.419C257.221 539.169 311.161 537.329 348.501 496.749C370.031 473.329 376.751 438.209 389.271 369.019C405.321 280.299 419.931 244.669 405.271 217.239C393.741 210.879 382.971 205.229 372.861 200.199Z" fill="#E2859C"/>
<path d="M30.1406 223.03C30.8906 184.36 141.47 149.171 233.51 151.871C306.51 153.971 403.46 181 405.27 217.24C407.08 253.48 313.6 295.77 230.77 300.05C135.74 304.85 29.4006 261.18 30.1406 223.03Z" fill="#F1BBC8"/>
<path d="M69.79 220.09C70.36 192.6 154.73 167.54 224.93 169.45C280.69 170.96 354.56 190.17 355.93 215.95C357.3 241.73 286.04 271.78 222.86 274.88C150.38 278.36 69.23 247.25 69.79 220.09Z" fill="black"/>
<path opacity="0.49" d="M396.109 333.279C396.109 333.379 333.789 517.729 73.1094 487.759C75.2879 492.416 78.1982 496.693 81.7295 500.429C121.239 543.839 183.779 541.729 220.939 540.429C257.159 539.179 311.099 537.339 348.439 496.759C369.969 473.339 376.689 438.219 389.209 369.029C391.579 356.009 393.859 344.149 396.109 333.279Z" fill="#D4718D"/>
<path d="M384.446 314.478C387.497 298.237 385.869 284.301 380.81 283.351C375.751 282.401 369.177 294.796 366.126 311.036C363.075 327.276 364.703 341.212 369.761 342.162C374.82 343.113 381.395 330.718 384.446 314.478Z" fill="white"/>
<path d="M355.839 358.19C359.783 358.19 362.979 354.993 362.979 351.05C362.979 347.107 359.783 343.91 355.839 343.91C351.896 343.91 348.699 347.107 348.699 351.05C348.699 354.993 351.896 358.19 355.839 358.19Z" fill="white"/>
<path d="M69.4691 172.02C88.9868 192.912 112.733 209.406 139.126 220.4C165.518 231.394 193.951 236.637 222.529 235.78L15.9091 15.0898C13.1772 43.5511 16.5409 72.2677 25.7763 99.3271C35.0116 126.387 49.9067 151.168 69.4691 172.02V172.02Z" fill="#E2859C"/>
<path d="M15.9102 15.0905L222.53 235.78C225.264 207.32 221.902 178.604 212.668 151.544C203.435 124.485 188.541 99.7033 168.98 78.8506C149.461 57.9576 125.712 41.4645 99.3181 30.4702C72.9239 19.4759 44.4898 14.2329 15.9102 15.0905V15.0905Z" fill="#F1BBC8"/>
<path opacity="0.49" d="M222.53 235.78C224.622 213.676 223.065 191.378 217.92 169.78C135.99 197.32 25.3202 97.7795 25.2402 97.6895C34.4131 125.374 49.5065 150.729 69.4705 171.99C88.9854 192.888 112.731 209.386 139.123 220.386C165.516 231.385 193.95 236.633 222.53 235.78V235.78Z" fill="#D4718D"/>
<path d="M139.381 87.3685C146.351 77.9259 141.248 62.3348 127.983 52.5449C114.719 42.7551 98.317 42.4737 91.3476 51.9163C84.3783 61.3589 89.4811 76.9498 102.745 86.7397C116.009 96.5296 132.412 96.8111 139.381 87.3685Z" fill="#F6FAFE"/>
<path d="M135.741 119.21C141.137 119.21 145.511 114.836 145.511 109.44C145.511 104.044 141.137 99.6699 135.741 99.6699C130.345 99.6699 125.971 104.044 125.971 109.44C125.971 114.836 130.345 119.21 135.741 119.21Z" fill="#F6FAFE"/>
<path d="M365.031 172.02C345.513 192.912 321.767 209.406 295.374 220.4C268.981 231.394 240.549 236.637 211.971 235.78L418.591 15.0898C421.322 43.5511 417.959 72.2677 408.723 99.3271C399.488 126.387 384.593 151.168 365.031 172.02V172.02Z" fill="#E2859C"/>
<path d="M418.591 15.0907L211.971 235.781C209.237 207.32 212.599 178.604 221.833 151.544C231.066 124.485 245.96 99.7034 265.521 78.8507C285.04 57.9572 308.788 41.4637 335.182 30.4693C361.577 19.475 390.011 14.2324 418.591 15.0907V15.0907Z" fill="#F1BBC8"/>
<path opacity="0.49" d="M211.971 235.78C209.881 213.676 211.435 191.379 216.571 169.78C298.511 197.32 409.181 97.7795 409.261 97.6895C400.088 125.374 384.995 150.729 365.031 171.99C345.516 192.888 321.771 209.386 295.378 220.386C268.985 231.385 240.551 236.633 211.971 235.78V235.78Z" fill="#D4718D"/>
<path d="M181.92 384.179C181.92 384.179 161.21 398.579 136 378.779" stroke="#19181C" stroke-width="15" stroke-miterlimit="10" stroke-linecap="round"/>
<path d="M145.859 363.47C145.859 363.47 156.669 346.36 181.859 342.76" stroke="#19181C" stroke-width="8" stroke-miterlimit="10" stroke-linecap="round"/>
<path d="M249.67 384.179C249.67 384.179 270.38 398.579 295.59 378.779" stroke="#19181C" stroke-width="15" stroke-miterlimit="10" stroke-linecap="round"/>
<path d="M285.689 363.47C285.689 363.47 274.879 346.36 249.689 342.76" stroke="#19181C" stroke-width="8" stroke-miterlimit="10" stroke-linecap="round"/>
<path d="M237.92 433.179C237.92 433.179 234.33 417.039 215.79 417.039C197.25 417.039 193.67 433.179 193.67 433.179" stroke="#19181C" stroke-width="15" stroke-miterlimit="10" stroke-linecap="round"/>
</g>
<defs>
<clipPath id="clip0_6248_344">
<rect width="434.51" height="555.93" fill="white"/>
</clipPath>
</defs>
</svg>
