<svg width="538" height="980" viewBox="0 0 538 980" fill="none" xmlns="http://www.w3.org/2000/svg">
<g clip-path="url(#clip0_4879_575)">
<path d="M239.66 979.281C372.021 979.281 479.32 950.22 479.32 914.371C479.32 878.522 372.021 849.461 239.66 849.461C107.299 849.461 0 878.522 0 914.371C0 950.22 107.299 979.281 239.66 979.281Z" fill="#A7A9AC"/>
<path d="M236.95 920.49C233.706 920.481 230.55 919.43 227.95 917.49L225.95 916L223.33 914.05L219.82 911.33L216.92 909.03L214.73 907.26L211.19 904.37L209.77 903.19L207.48 901.29L204.08 898.4L201.44 896.13L197.74 892.85L195.33 890.75L192.81 888.5L190.81 886.7L187.68 883.85L185.44 881.78L183.33 879.85C181.71 878.34 180.05 876.77 178.33 875.16L175.33 872.32C173.57 870.62 171.8 868.89 169.99 867.11L167.06 864.2C165.13 862.27 163.23 860.35 161.31 858.39L158.31 855.33L156.31 853.23L152.31 849.02L149.43 845.85L147.21 843.44C145.823 841.927 144.427 840.397 143.02 838.85L140.33 835.77L137.97 833.11C135.87 830.73 133.74 828.28 131.65 825.83L128.57 822.21C126.45 819.69 124.31 817.11 122.21 814.55L119.64 811.38L119.11 810.73C116.99 808.09 114.85 805.38 112.74 802.73L110.21 799.46L109.63 798.69C107.51 795.92 105.37 793.08 103.28 790.24L100.22 786.07C98.09 783.12 95.96 780.12 93.87 777.14L93.47 776.56L91.54 773.76L90.92 772.86C90.27 771.86 89.61 770.95 88.92 769.98L88.85 769.88C87.41 767.74 85.9733 765.58 84.54 763.4L84.3 763.04L82.38 760.04L81.76 759.04L79.86 756.04L79.59 755.6C78.17 753.37 76.78 751.13 75.39 748.86V748.79L73.53 745.79L72.92 744.79C72.3 743.79 71.7 742.79 71.1 741.79L70.68 741.08C68.73 737.77 66.8 734.41 64.92 731.08L64.33 730.02L62.56 726.85L62.05 725.92C60.2 722.54 58.38 719.11 56.62 715.71L56.04 714.6L54.43 711.44L53.85 710.28C52.14 706.87 50.43 703.36 48.78 699.89L48.23 698.71L46.73 695.5L46.14 694.21C44.53 690.69 42.93 687.09 41.41 683.52L40.9 682.34L39.52 679.06L38.96 677.69C38.48 676.53 38.02 675.41 37.57 674.28L37.42 673.91C36.42 671.53 35.51 669.11 34.58 666.67L34.12 665.46C33.7 664.35 33.28 663.24 32.87 662.13L32.31 660.59C31.9 659.47 31.49 658.34 31.09 657.22L30.73 656.22C29.91 653.92 29.12 651.62 28.34 649.31L27.94 648.12C27.57 647 27.21 645.88 26.84 644.75L26.3 643.06C25.94 641.94 25.59 640.83 25.24 639.7L24.81 638.27C24.11 635.99 23.4434 633.7 22.81 631.4L22.48 630.27C22.16 629.15 21.85 628.01 21.53 626.88L21.04 625.05C20.73 623.94 20.43 622.82 20.14 621.7L19.7 619.97C19.0933 617.623 18.5067 615.257 17.94 612.87L17.71 611.95C17.45 610.83 17.19 609.69 16.93 608.55C16.78 607.9 16.64 607.24 16.49 606.55C16.24 605.43 16 604.31 15.76 603.19L15.35 601.19C14.56 597.37 13.81 593.51 13.14 589.69C13 588.93 12.88 588.27 12.77 587.6L12.2 584.23C12.1 583.56 11.86 582.09 11.86 582.09C0.280013 508.55 10.01 434.46 40.8 361.87C41.6046 359.986 42.7863 358.288 44.2725 356.878C45.7586 355.469 47.5176 354.379 49.441 353.675C51.3645 352.972 53.4116 352.67 55.4564 352.787C57.5011 352.905 59.5 353.44 61.33 354.36C62.33 354.89 87.27 367.49 119.53 395.94C149.575 422.632 175.654 453.476 196.98 487.54C202.359 420.66 211.709 354.16 224.98 288.39C238.98 219.1 254.53 165.09 265.88 130.02C257.308 117.93 253.401 103.146 254.88 88.3999C257.13 62.5099 273.33 39.3999 287.43 28.8399C303.43 16.8399 335.65 -5.20395e-05 357.02 -5.20395e-05C362.115 -0.131042 367.157 1.06473 371.65 3.46995C373.459 4.49435 375.036 5.88374 376.28 7.54994C379.04 8.3329 381.518 9.89118 383.42 12.0399C383.58 12.2199 384.14 12.8599 384.99 13.9399C388.661 14.7327 391.901 16.8737 394.07 19.9399C399.35 27.4499 402.82 38.5599 404.43 44.5399C404.425 44.5698 404.425 44.6001 404.43 44.6299C405.59 48.9499 406.54 53.4199 407.28 57.8999V58.1399C407.41 58.9799 407.54 59.7799 407.65 60.5799L407.73 61.1199C407.83 61.8599 407.93 62.5999 408.02 63.3399L408.1 63.9699C408.18 64.6999 408.26 65.45 408.34 66.2L408.4 66.7799C408.48 67.6399 408.56 68.5099 408.63 69.3699V69.6599C408.69 70.5499 408.76 71.5199 408.81 72.4999C408.81 72.5599 408.81 72.7199 408.81 72.7899C408.81 73.5599 408.88 74.4299 408.91 75.2999V76.1299C408.91 76.8099 408.91 77.4599 408.91 78.1299V79.1299C408.91 79.7699 408.91 80.38 408.91 80.9799C408.91 81.35 408.91 81.7099 408.91 82.0799C408.91 82.6699 408.91 83.2699 408.84 83.8799L408.78 84.95C408.78 85.61 408.69 86.2599 408.64 86.8999L408.57 87.81C408.48 88.81 408.38 89.74 408.27 90.7C406.12 108.85 396.33 127.26 381.56 141.35C365.91 156.24 346.89 164.44 327.98 164.44C326.75 164.44 325.52 164.44 324.29 164.33C321.13 174.57 318.037 185.08 315.01 195.86C322.757 194.822 330.564 194.308 338.38 194.32C359.12 194.32 381.01 197.84 403.56 204.82C414.623 195.629 428.577 190.639 442.96 190.73C469.72 190.73 496.06 207.03 508.26 223.14C517.11 234.83 547.45 283.38 534.14 307.2C533.139 309.008 531.778 310.59 530.14 311.85C529.376 314.615 527.835 317.104 525.7 319.02C525.52 319.18 524.88 319.75 523.81 320.6C523.026 324.286 520.885 327.541 517.81 329.72C510.32 335.06 499.19 338.6 493.23 340.24H493.16C488.86 341.42 484.4 342.4 479.93 343.16L479.59 343.22L477.25 343.59L476.72 343.67L474.51 343.97L473.87 344.05C473.14 344.15 472.39 344.23 471.65 344.31L471.07 344.38L468.49 344.61H468.2L465.33 344.85H465.05C464.16 344.9 463.34 344.94 462.53 344.96H461.7H459.7H456.83H455.77C455.15 344.96 454.54 344.96 453.94 344.9L452.88 344.85L450.88 344.72L449.97 344.65C449.03 344.57 448.07 344.48 447.11 344.37C442.436 343.839 437.822 342.868 433.33 341.47C446.33 356.74 446.2 368.24 446.12 377.47C445.917 380.916 446.203 384.374 446.97 387.74C447.032 387.988 447.109 388.231 447.2 388.47H447.33C447.56 388.489 447.79 388.489 448.02 388.47C449.474 387.982 450.997 387.732 452.53 387.73C454.605 387.765 456.65 388.239 458.529 389.122C460.408 390.004 462.078 391.275 463.43 392.85C467.43 397.36 467.96 404 465.35 409.47C464.372 411.516 463.218 413.474 461.9 415.32C463.347 419.466 464.202 423.795 464.44 428.18C464.518 430.198 464.188 432.211 463.469 434.098C462.75 435.986 461.658 437.709 460.257 439.164C458.856 440.618 457.176 441.775 455.317 442.565C453.459 443.355 451.46 443.761 449.44 443.76H449.01C447.83 443.76 446.3 443.71 444.48 443.71C442.98 443.71 441.29 443.71 439.42 443.71C438.86 444.91 438.26 446.05 437.64 447.11C438.13 453.33 436.77 458.57 433.59 462.72C431.842 464.984 429.594 466.811 427.02 468.059C424.447 469.306 421.62 469.94 418.76 469.91H418.09C412.302 469.555 406.586 468.439 401.09 466.59C393.59 473.38 383.75 478.72 377.09 478.72C376.71 478.72 376.34 478.72 375.97 478.72C392.726 522.351 400.073 569.031 397.53 615.7L397.48 616.55C397.18 621.74 396.75 626.99 396.22 632.16L396.14 632.95C395.59 638.08 394.93 643.24 394.14 648.32L394.02 649.08C393.25 654.08 392.37 659.18 391.4 664.16L391.33 664.85C390.33 669.85 389.25 674.79 388.08 679.68L387.91 680.37C386.75 685.18 385.47 690.05 384.11 694.84L383.94 695.44C382.6 700.15 381.15 704.92 379.62 709.63L379.44 710.17C377.95 714.75 376.33 719.42 374.65 724.03L374.49 724.47C372.83 728.99 371.07 733.55 369.24 738.06L369.1 738.42C367.31 742.8 365.42 747.27 363.46 751.67L363.36 751.89C362.36 754.1 361.36 756.28 360.36 758.43C359.36 760.58 358.36 762.73 357.36 764.85L357.29 764.99C356.29 767.11 355.23 769.21 354.19 771.3L354.14 771.4C353.1 773.48 352.05 775.547 350.99 777.6C349.93 779.647 348.86 781.677 347.78 783.69L347.7 783.85C345.58 787.78 343.39 791.75 341.16 795.65L341.05 795.85C338.88 799.65 336.65 803.43 334.41 807.14L334.25 807.41C332.07 811 329.82 814.61 327.58 818.13L327.39 818.43C325.2 821.85 322.96 825.27 320.71 828.63L320.51 828.93C318.31 832.2 316.08 835.45 313.86 838.61L313.61 838.96C311.49 841.96 309.28 845.06 307.08 848.06L306.87 848.35C304.75 851.24 302.58 854.13 300.41 856.97L300.21 857.24C298.14 859.94 296.04 862.65 293.93 865.31L293.72 865.57C291.72 868.117 289.697 870.623 287.65 873.09L287.43 873.36C285.51 875.69 283.57 878.01 281.64 880.28L281.45 880.51C279.55 882.74 277.72 884.85 275.95 886.87L275.79 887.06L273.15 890.06L273.05 890.17C272.25 891.07 271.44 891.98 270.64 892.86L270.49 893.03C269.65 893.96 268.85 894.83 268.07 895.68L265.6 898.35L263.44 900.66L261.14 903.08L259.14 905.19L257.33 906.93L255.51 908.85L253.97 910.39L252.46 911.85L251.23 913.05L249.23 914.98C249.23 914.98 248.01 916.12 248 916.14L247.42 916.67C244.709 919.091 241.214 920.451 237.58 920.5L236.95 920.49ZM281.95 342.28C273.54 390.46 267.24 439.65 263.15 489.03C296.25 443.95 328.37 422.55 330.15 421.38C331.354 420.595 332.664 419.985 334.04 419.57C333.67 419.08 333.29 418.57 332.91 418.06C332.81 417.92 332.7 417.78 332.6 417.63C332.11 416.94 331.6 416.24 331.17 415.52L330.7 414.78C330.39 414.29 330.09 413.78 329.79 413.28L329.51 412.81C329.43 412.68 329.35 412.52 329.26 412.37C328.99 411.89 328.71 411.37 328.43 410.84C328.33 410.67 328.23 410.47 328.12 410.26L327.98 409.99C327.59 409.21 327.22 408.46 326.86 407.67V407.57C324.339 402.152 322.625 396.394 321.77 390.48C321.64 389.53 321.53 388.57 321.45 387.62C321.047 382.904 321.307 378.154 322.22 373.51C322.4 372.59 322.61 371.67 322.84 370.78C323.647 367.637 324.755 364.58 326.15 361.65C306.33 344.99 293.33 342.01 286.83 341.85H286.21C284.779 341.838 283.35 341.983 281.95 342.28ZM294.95 276.28C323.31 278.99 352.41 294.7 381.73 323.11H381.87L383.38 322.86L384.25 322.73C384.78 322.65 385.25 322.59 385.79 322.53L386.6 322.43C387.37 322.35 388.12 322.29 388.87 322.24H389.32C389.99 322.24 390.6 322.17 391.21 322.16H392.06H393.56H394.49L395.95 322.23L396.84 322.28L398.55 322.44L399.2 322.51C399.82 322.58 400.45 322.67 401.08 322.76C384.3 307.56 373.08 286.34 372.9 264.88C361.528 262.018 349.856 260.521 338.13 260.42C329.815 260.365 321.525 261.342 313.45 263.33C307.515 264.789 301.785 266.979 296.39 269.85L294.95 276.28Z" fill="#231F20"/>
<path d="M309.78 248.701C336.16 242.021 368.18 245.341 402.38 258.311L415.15 224.651C361.01 204.121 320.68 207.491 294.07 215.781C312.53 145.211 329.07 104.091 329.36 103.281L312.69 96.5007L296.02 89.7207C294.75 92.8207 264.78 167.191 239.65 291.381C224.842 364.742 214.957 439.011 210.06 513.691C203.906 606.479 205.669 699.622 215.33 792.111L251.13 788.331C231.79 605.151 248.46 443.651 268.55 331.911C274.087 328.305 280.62 326.535 287.22 326.851C301.69 327.231 326.15 335.851 360.51 374.711L387.51 350.881C352.33 311.061 318.27 290.851 286.33 290.851H286.25C282.959 290.852 279.671 291.076 276.41 291.521C278.65 280.734 280.917 270.341 283.21 260.341C291.307 254.918 300.304 250.976 309.78 248.701Z" fill="#66BE64"/>
<path d="M364.23 16.5208C364.23 16.5208 383.12 53.8608 380.56 91.2008C378 128.541 335.84 169.121 289.63 133.201C250.68 102.951 277.16 55.2008 296.38 40.8308C315.6 26.4608 352.42 9.8508 364.23 16.5208Z" fill="#E9E7E9"/>
<path d="M389.81 85.6605C385.32 122.18 342.19 163.54 296.81 138.28C294.23 46.7405 372.2 21.9805 372.2 21.9805C372.2 21.9805 394.55 47.1805 389.81 85.6605Z" fill="#D8D8D8"/>
<path d="M381.77 28.5996C388.4 38.0196 396.26 65.4496 393.42 88.9096C388.55 129.08 336.8 169.63 296.77 138.28C365.08 112.62 381.72 29.0296 381.77 28.5996Z" fill="#D6CDD7"/>
<g style="mix-blend-mode:multiply" opacity="0.58">
<path d="M389.92 48.4902C393.12 60.4902 395.06 75.3502 393.42 88.9102C388.55 129.08 336.8 169.63 296.77 138.28C369.04 162.33 389.92 48.4902 389.92 48.4902Z" fill="#B6BCCC"/>
</g>
<path d="M339.108 50.5693C346.217 43.8514 348.518 34.7414 344.247 30.2215C339.975 25.7017 330.75 27.4835 323.641 34.2014C316.532 40.9193 314.232 50.0293 318.503 54.5492C322.774 59.069 331.999 57.2872 339.108 50.5693Z" fill="#F6FAFE"/>
<path d="M306.3 65.4394C310.464 65.4394 313.84 62.0636 313.84 57.8994C313.84 53.7351 310.464 50.3594 306.3 50.3594C302.136 50.3594 298.76 53.7351 298.76 57.8994C298.76 62.0636 302.136 65.4394 306.3 65.4394Z" fill="#F6FAFE"/>
<g style="mix-blend-mode:multiply">
<path d="M227.71 564.71C222.543 549.328 216.534 534.242 209.71 519.52C203.996 610.381 205.876 701.561 215.33 792.11L251.13 788.33C241.958 700.211 240.125 611.482 245.65 523.06C238.794 536.549 232.802 550.46 227.71 564.71Z" fill="#4CA84E"/>
</g>
<path d="M237.38 905.49L338.33 433.93C480.72 684.22 237.38 905.49 237.38 905.49Z" fill="#4CA84E"/>
<path d="M338.33 433.93L237.33 905.49C126.15 572.95 338.33 433.93 338.33 433.93Z" fill="#66BE64"/>
<g style="mix-blend-mode:multiply">
<path d="M382.88 607.24C377.51 778.07 237.38 905.49 237.38 905.49C218.21 848.18 208.65 796.62 205.96 750.49C335.27 781.57 379.91 618.72 382.88 607.24Z" fill="#4CA84E"/>
</g>
<path d="M236.95 905.489L54.5699 367.779C-77.7901 679.899 236.95 905.489 236.95 905.489Z" fill="#4CA84E"/>
<path d="M54.5701 367.779L236.95 905.489C321.7 501.429 54.5701 367.779 54.5701 367.779Z" fill="#66BE64"/>
<g style="mix-blend-mode:multiply">
<path d="M26.1299 576.52C55.6999 775.57 236.95 905.52 236.95 905.52C251.55 835.88 255.71 774.28 252.58 720.01C105.58 773.91 31.1799 589.54 26.1299 576.52Z" fill="#4CA84E"/>
</g>
<path d="M521.05 299.849C521.05 299.849 483.82 318.969 446.47 316.629C409.12 314.289 368.33 272.439 403.88 226.009C433.88 186.869 481.81 213.009 496.3 232.189C510.79 251.369 527.67 288.039 521.05 299.849Z" fill="#E9E7E9"/>
<path d="M452.06 325.85C415.52 321.58 373.89 278.71 398.88 233.14C490.4 230.03 515.64 307.85 515.64 307.85C515.64 307.85 490.57 330.39 452.06 325.85Z" fill="#D8D8D8"/>
<path d="M509.08 317.5C499.69 324.19 472.31 332.22 448.84 329.5C408.64 324.88 367.77 273.38 398.84 233.16C424.96 301.32 508.64 317.46 509.08 317.5Z" fill="#D6CDD7"/>
<g style="mix-blend-mode:multiply" opacity="0.58">
<path d="M489.23 325.77C477.28 329.05 462.41 331.08 448.84 329.52C408.64 324.9 367.77 273.4 398.84 233.18C375.27 305.59 489.23 325.77 489.23 325.77Z" fill="#B6BCCC"/>
</g>
<path d="M507.227 280.014C511.721 275.715 509.883 266.501 503.121 259.433C496.36 252.366 487.236 250.121 482.743 254.42C478.249 258.718 480.087 267.933 486.848 275C493.61 282.068 502.734 284.313 507.227 280.014Z" fill="#F6FAFE"/>
<path d="M479.32 249.75C483.484 249.75 486.86 246.374 486.86 242.21C486.86 238.046 483.484 234.67 479.32 234.67C475.156 234.67 471.78 238.046 471.78 242.21C471.78 246.374 475.156 249.75 479.32 249.75Z" fill="#F6FAFE"/>
<path d="M420.08 445.42C402.72 447.5 396.39 432.09 396.39 432.09C391.98 446.94 384.76 451.94 377.84 452.8C377.02 457.8 376.35 462.38 376.53 463.33C376.95 465.56 392.44 456.92 396.62 448.86C396.62 448.86 409.55 454.6 418.62 454.86C423.27 455.01 423.49 449.53 421.87 443.51C421.31 444.18 420.712 444.817 420.08 445.42Z" fill="#B6BCCC"/>
<path d="M443.56 412.609C434.76 418.979 423.76 419.939 423.76 419.939C425.965 422.451 427.298 425.608 427.56 428.939C435.2 428.739 444.32 428.579 449.45 428.729C449.45 428.719 449.08 419.159 443.56 412.609Z" fill="#B6BCCC"/>
<path d="M451.81 402.969C451.81 402.969 436.61 407.239 432.49 391.589C428.37 375.939 436.49 367.979 421.55 350.739C406.61 333.499 386.49 333.489 363.42 345.419C340.35 357.349 329.64 377.739 340.42 401.319C351.2 424.899 371.05 421.829 368.62 435.039C366.19 448.249 358.97 446.979 358.97 446.979C358.97 446.979 385.77 467.749 396.36 432.089C396.36 432.089 402.69 447.499 420.05 445.419C420.05 445.419 434.18 432.499 423.73 419.939C423.76 419.939 444.56 418.179 451.81 402.969Z" fill="#E9E7E9"/>
<path d="M363.42 345.421C340.35 357.351 329.64 377.741 340.42 401.321C348.82 419.651 362.66 421.881 367.27 428.171C367.27 428.171 337.33 355.941 412.58 342.851C398.95 333.921 382.15 335.741 363.42 345.421Z" fill="#D6CDD7"/>
<g style="mix-blend-mode:multiply" opacity="0.58">
<path d="M363.42 345.421C340.35 357.351 329.64 377.741 340.42 401.321C342.583 406.128 345.602 410.503 349.33 414.231C349.02 413.521 327.33 363.451 395.77 337.161C385.91 336.441 375.04 339.411 363.42 345.421Z" fill="#B6BCCC"/>
</g>
<path d="M417.697 366.763C421.047 361.524 417.083 353.005 408.843 347.736C400.603 342.466 391.207 342.441 387.857 347.68C384.506 352.919 388.47 361.438 396.71 366.708C404.95 371.977 414.346 372.002 417.697 366.763Z" fill="#F6FAFE"/>
</g>
<defs>
<clipPath id="clip0_4879_575">
<rect width="537.47" height="979.28" fill="white"/>
</clipPath>
</defs>
</svg>
