<svg width="375" height="155" viewBox="0 0 375 155" fill="none" xmlns="http://www.w3.org/2000/svg">
<path d="M236.841 36.5307C233.701 43.6794 230.022 45.9895 227.548 46.8532C226.893 47.0821 226.363 47.1966 221.031 48.258C217.798 48.9032 215.085 49.4443 213.131 49.8293C213.661 48.7887 214.617 47.0509 216.125 45.1467C217.954 42.847 219.648 40.6826 222.424 39.5067C224.773 38.5182 225.708 39.1529 229.616 38.5598C232.776 38.0811 235.261 37.1966 236.841 36.5307Z" fill="#3E9581"/>
<path d="M236.861 36.5203C235.967 38.8199 234.824 40.9531 233.296 42.8782C231.768 44.7616 229.783 46.3954 227.402 47.1342C225.012 47.7065 222.642 48.0187 220.262 48.5077C217.881 48.9552 215.532 49.4859 213.162 49.9749L212.882 50.0374L213.006 49.7772C214.056 47.592 215.449 45.5629 216.987 43.7003C217.746 42.7637 218.557 41.8376 219.492 41.0364C220.428 40.2351 221.498 39.5796 222.663 39.1425C223.827 38.6639 225.126 38.6222 226.301 38.6222C227.496 38.6118 228.691 38.5182 229.876 38.3413C232.257 37.9875 234.543 37.3527 236.861 36.5203ZM236.82 36.5515C234.689 37.5817 232.309 38.2788 229.928 38.7055C228.733 38.924 227.517 39.0593 226.311 39.1113C225.095 39.1633 223.931 39.1841 222.839 39.6316C220.625 40.4641 218.869 42.1602 217.351 44.002C215.792 45.8438 214.347 47.7481 213.245 49.8917L213.089 49.6836C215.459 49.2257 217.84 48.8199 220.21 48.3204C221.395 48.0811 222.569 47.8209 223.754 47.5504C224.929 47.2798 226.134 47.0405 227.257 46.7075C229.502 45.9479 231.435 44.4287 232.974 42.6077C234.533 40.8074 235.749 38.6639 236.82 36.5515Z" fill="black"/>
<path d="M236.841 36.5307C232.995 39.0177 228.858 41.5254 224.44 43.9916C220.542 46.156 216.769 48.1019 213.142 49.8397C215.231 49.4547 218.204 48.8927 221.758 48.1227C227.496 46.8844 228.463 46.489 229.086 46.1768C230.999 45.2403 234.429 42.9302 236.841 36.5307Z" fill="#1E6F5D"/>
<path d="M236.83 36.5515C235.032 37.8626 233.099 39.1009 231.186 40.308C229.253 41.4942 227.309 42.6701 225.313 43.7523C223.318 44.8241 221.239 45.7606 219.222 46.7908C217.195 47.8105 215.189 48.8615 213.194 49.9437L213.121 49.7044L220.22 48.1747C222.59 47.6961 224.95 47.1342 227.278 46.5306C228.442 46.2393 229.492 45.7398 230.479 45.0634C231.467 44.4078 232.361 43.5962 233.151 42.7013C234.72 40.9219 235.853 38.7159 236.83 36.5515ZM236.862 36.5099C236.092 38.8616 234.991 41.0364 233.431 42.951C231.883 44.8241 229.845 46.4578 227.413 47.0509C225.064 47.7065 222.694 48.1956 220.314 48.643L213.162 49.9541L212.269 50.1206L213.09 49.7148C217.154 47.7169 221.145 45.5629 225.106 43.3673L230.989 39.9646L236.862 36.5099Z" fill="black"/>
<path d="M199.504 26.0208C198.621 33.7835 200.637 37.6337 202.342 39.6212C202.789 40.1519 203.194 40.5161 207.258 44.1269C209.732 46.3121 211.801 48.1435 213.298 49.4755C213.37 48.31 213.412 46.3225 213.069 43.9188C212.643 41.0051 212.279 38.2788 210.47 35.8751C208.942 33.8356 207.809 33.9084 204.733 31.4318C202.238 29.4131 200.544 27.3944 199.504 26.0208Z" fill="#3E9581"/>
<path d="M199.515 26.052C199.38 28.4141 199.349 30.8803 199.775 33.232C200.18 35.5837 201.084 37.873 202.654 39.6628C203.454 40.5265 204.379 41.3381 205.252 42.1602C206.136 42.9822 207.03 43.8043 207.924 44.6055C209.712 46.2289 211.572 47.7793 213.391 49.3714L213.152 49.4651C213.277 47.0613 212.996 44.6784 212.57 42.3059C212.185 39.9438 211.531 37.6025 210.034 35.7606C209.327 34.8137 208.319 34.2102 207.3 33.5546C206.282 32.899 205.304 32.1706 204.379 31.3798C202.54 29.8189 200.835 28.0187 199.515 26.052ZM199.494 26C201.074 27.8939 202.727 29.59 204.608 31.0988C205.544 31.8481 206.521 32.5348 207.55 33.1488C208.568 33.7419 209.67 34.4391 210.439 35.438C211.229 36.3954 211.822 37.5088 212.227 38.6743C212.632 39.8397 212.861 41.0468 213.048 42.2434C213.443 44.6264 213.63 47.0821 213.433 49.4963L213.412 49.7876L213.194 49.6003C211.396 47.9874 209.628 46.3329 207.799 44.7512C205.99 43.1279 204.099 41.6607 202.321 39.9646C200.637 38.1331 199.743 35.719 199.369 33.3153C199.016 30.8595 199.109 28.435 199.494 26Z" fill="black"/>
<path d="M199.504 26.0208C201.573 30.1103 203.88 34.3558 206.468 38.7159C208.745 42.5556 211.032 46.1352 213.287 49.4651C211.676 48.0811 209.389 46.0936 206.708 43.6378C202.373 39.6732 201.739 38.8407 201.354 38.2684C200.169 36.489 198.371 32.7742 199.504 26.0208Z" fill="#1E6F5D"/>
<path d="M199.504 26L202.851 31.9521L206.219 37.8522C208.527 41.744 210.897 45.6253 213.402 49.3922L213.911 50.1518L213.214 49.5587L207.695 44.8241C205.866 43.232 204.067 41.6087 202.363 39.8605C200.554 38.1227 199.619 35.6878 199.224 33.2841C198.839 30.8595 198.985 28.4141 199.504 26ZM199.504 26.052C199.255 28.4037 199.12 30.8803 199.598 33.232C199.837 34.4079 200.19 35.5525 200.71 36.6139C201.219 37.6961 201.874 38.6638 202.737 39.4963C204.442 41.1925 206.198 42.8678 208.007 44.4703L213.37 49.3714L213.183 49.5379C212.009 47.592 210.803 45.6773 209.566 43.7731C208.34 41.8584 207.03 40.0062 205.835 38.0707C204.66 36.1248 203.569 34.1373 202.498 32.1394C201.448 30.1415 200.398 28.0916 199.504 26.052Z" fill="black"/>
<path d="M117.836 131.307C123.532 82.9093 165.12 46.5202 212.84 47.2382C258.96 47.9354 298.562 83.1174 304.798 129.777C242.474 130.287 180.16 130.797 117.836 131.307Z" fill="#FAF28A"/>
<path d="M117.763 131.369C118.262 125.542 119.406 119.996 120.986 114.47C122.566 108.965 124.696 103.617 127.274 98.4971C129.852 93.3775 132.898 88.4868 136.359 83.8978C139.831 79.3193 143.728 75.0737 147.959 71.1924C156.43 63.44 166.284 57.1341 177.001 52.951C182.354 50.849 187.883 49.2049 193.538 48.1539C199.182 47.103 204.93 46.5723 210.657 46.5827C222.133 46.5827 233.546 48.7991 244.221 52.8678C254.885 56.9885 264.833 62.9406 273.439 70.4744C282.066 77.9873 289.394 87.0092 294.914 97.082C300.454 107.134 304.102 118.237 305.693 129.642L305.838 130.672L304.788 130.682L257.827 131.223L210.876 131.484H164.132L117.763 131.369ZM117.919 131.234L165.006 130.349L211.738 129.59L258.263 129.09L304.788 128.872L303.884 129.912C302.46 118.705 298.999 107.769 293.76 97.7375C288.521 87.7063 281.432 78.6221 272.951 71.0779C264.458 63.5545 254.615 57.5296 243.961 53.5962C233.348 49.5899 221.966 47.7065 210.668 47.9354C199.359 48.1435 188.143 50.4848 177.666 54.668C167.22 58.8823 157.47 64.876 149.092 72.4515C144.893 76.2288 141.047 80.3911 137.575 84.8448C134.083 89.288 130.985 94.0539 128.345 99.0591C125.694 104.064 123.501 109.309 121.744 114.709C119.977 120.089 118.772 125.74 117.919 131.234Z" fill="black"/>
<path d="M132.18 114.564C132.804 102.17 141.39 90.5784 143.261 88.1538C144.529 86.4889 146.441 84.1892 149.206 83.9395C150.485 83.825 152.002 84.1476 153.832 85.3755C158.041 88.2058 169.839 99.7875 185.067 116.156C185.191 116.343 186.709 118.664 185.659 121.286C184.89 123.201 183.071 124.522 180.961 124.689C166.741 124.387 152.522 124.085 138.303 123.783C137.18 123.45 134.935 122.587 133.48 120.443C132.149 118.466 132.097 116.322 132.18 114.564Z" fill="#FBF6B4"/>
<path d="M132.076 114.553C132.534 107.415 134.924 100.474 138.323 94.1371C139.186 92.5555 140.122 91.0154 141.14 89.517C142.18 88.0497 143.167 86.5409 144.591 85.2194C145.298 84.5638 146.109 83.9707 147.044 83.5649C147.98 83.159 149.04 82.9613 150.069 83.0446C152.158 83.2006 153.852 84.3661 155.245 85.5003C158.041 87.8208 160.505 90.3806 163.031 92.9093L170.567 100.485C175.587 105.531 180.711 110.485 185.68 115.594L185.721 115.635L185.753 115.688C186.376 116.645 186.74 117.633 186.875 118.747C187.01 119.85 186.823 121.005 186.345 122.025C185.389 124.075 183.279 125.479 181.044 125.677H181.002H180.94L170.276 125.552C166.721 125.49 163.166 125.407 159.611 125.282C156.056 125.188 152.501 125.032 148.946 124.834L138.292 124.158H138.219L138.188 124.147C136.213 123.481 134.394 122.233 133.282 120.474C132.731 119.6 132.378 118.612 132.191 117.602C132.014 116.593 132.014 115.573 132.076 114.553ZM132.284 114.564C132.243 115.573 132.263 116.572 132.461 117.55C132.648 118.528 133.033 119.465 133.604 120.266C134.176 121.067 134.893 121.765 135.735 122.264C136.567 122.774 137.481 123.148 138.427 123.388L138.323 123.367L148.998 123.138C152.553 123.086 156.108 123.086 159.663 123.148C163.218 123.18 166.773 123.253 170.327 123.336L180.992 123.669H180.888C182.458 123.575 183.965 122.618 184.672 121.203C185.025 120.495 185.191 119.715 185.129 118.913C185.077 118.122 184.786 117.269 184.391 116.614L184.474 116.718C179.734 111.421 175.067 106.041 170.109 100.943C165.161 95.8541 159.975 90.8905 154.372 86.6554C152.99 85.6252 151.483 84.8552 149.975 84.7927C148.468 84.7199 147.055 85.4691 145.87 86.5825C144.705 87.7064 143.645 89.1424 142.606 90.5575C141.566 91.9727 140.579 93.4295 139.623 94.9072C137.721 97.8624 136.005 100.974 134.706 104.262C133.355 107.529 132.503 111.026 132.284 114.564Z" fill="black"/>
<path d="M169.038 70.7553C178.04 62.233 192.249 59.798 195.274 59.3297C197.342 59.0072 200.315 58.6638 202.487 60.4015C203.495 61.2028 204.358 62.4827 204.836 64.6471C205.928 69.6002 206.447 86.135 206.156 108.507C206.115 108.736 205.616 111.452 203.038 112.618C201.167 113.471 198.932 113.159 197.29 111.827C187.218 101.765 177.156 91.7125 167.084 81.6502C166.502 80.6304 165.473 78.4556 165.899 75.8958C166.315 73.5545 167.76 71.9624 169.038 70.7553Z" fill="#FBF6B4"/>
<path d="M168.966 70.6825C174.225 65.8438 180.742 62.4723 187.582 60.2559C189.297 59.7044 191.043 59.2465 192.8 58.8615C194.567 58.5285 196.323 58.1123 198.267 58.1435C199.223 58.1643 200.221 58.2892 201.188 58.643C202.144 58.9968 203.038 59.5899 203.724 60.3599C205.127 61.9208 205.554 63.9291 205.772 65.7189C206.188 69.3297 206.208 72.8885 206.281 76.4577L206.5 87.1444C206.645 94.262 206.936 101.39 206.988 108.518V108.58L206.978 108.643C206.77 109.767 206.344 110.734 205.678 111.629C205.013 112.514 204.078 113.221 203.028 113.638C200.918 114.46 198.423 114.012 196.677 112.607L196.646 112.576L196.604 112.535L188.975 105.063C186.449 102.555 183.933 100.037 181.449 97.4878C178.944 94.9592 176.481 92.389 174.059 89.7875L166.824 81.9207L166.772 81.8687L166.752 81.8375C165.785 79.9957 165.328 77.8313 165.743 75.7813C165.951 74.7615 166.377 73.8042 166.939 72.9509C167.521 72.1081 168.228 71.3693 168.966 70.6825ZM169.111 70.8282C168.384 71.5253 167.708 72.2642 167.167 73.107C166.627 73.9395 166.253 74.8864 166.118 75.8542C165.972 76.8323 166.014 77.8313 166.274 78.7782C166.523 79.7251 166.928 80.6304 167.448 81.4525L167.386 81.3692L175.254 88.5908C177.863 91.0154 180.431 93.4816 182.956 95.9789C185.503 98.4659 188.029 100.974 190.534 103.492L198.007 111.109L197.935 111.036C199.14 112.056 200.887 112.41 202.373 111.869C203.111 111.598 203.776 111.151 204.286 110.526C204.795 109.923 205.179 109.101 205.346 108.351L205.335 108.476C205.564 101.369 205.907 94.2516 205.845 87.134C205.782 80.0373 205.46 72.8573 204.337 65.927C204.046 64.2309 203.496 62.6284 202.446 61.5358C201.406 60.4432 199.868 60.0061 198.246 59.9853C196.625 59.9853 194.868 60.2975 193.143 60.5993C191.417 60.901 189.702 61.2756 187.987 61.6815C184.568 62.5035 181.189 63.5649 177.978 65.0425C174.745 66.4889 171.71 68.4244 169.111 70.8282Z" fill="black"/>
<path d="M251.414 69.3193C242.412 60.797 228.203 58.362 225.178 57.8938C223.11 57.5712 220.137 57.2278 217.965 58.9656C216.957 59.7668 216.094 61.0467 215.616 63.2111C214.524 68.1643 214.005 84.6991 214.296 107.072C214.337 107.3 214.836 110.016 217.414 111.182C219.285 112.035 221.52 111.723 223.162 110.391C233.234 100.329 243.296 90.2766 253.368 80.2142C253.95 79.1944 254.979 77.0196 254.553 74.4598C254.127 72.1185 252.682 70.5264 251.414 69.3193Z" fill="#FBF6B4"/>
<path d="M251.341 69.3922C248.742 66.978 245.707 65.0529 242.485 63.6169C239.273 62.1497 235.884 61.0779 232.475 60.2559C230.76 59.85 229.045 59.4754 227.32 59.1737C225.594 58.8719 223.837 58.5597 222.216 58.5597C220.594 58.5805 219.056 59.0072 218.017 60.1102C216.967 61.2028 216.416 62.8053 216.125 64.5014C215.002 71.4317 214.68 78.6221 214.618 85.7084C214.555 92.826 214.898 99.9435 215.127 107.051L215.117 106.926C215.283 107.675 215.668 108.497 216.177 109.101C216.686 109.725 217.351 110.172 218.089 110.443C219.576 110.984 221.322 110.63 222.528 109.611L222.455 109.683L229.928 102.066C232.434 99.5377 234.959 97.0299 237.506 94.5533C240.042 92.056 242.61 89.5898 245.208 87.1652L253.077 79.9436L253.014 80.0269C253.534 79.2048 253.939 78.2995 254.189 77.3526C254.449 76.4057 254.49 75.4067 254.345 74.4286C254.199 73.4504 253.835 72.5139 253.295 71.6814C252.744 70.8386 252.058 70.0893 251.341 69.3922ZM251.476 69.2465C252.214 69.9333 252.931 70.6825 253.492 71.5357C254.054 72.389 254.49 73.3464 254.688 74.3661C255.104 76.4057 254.646 78.5701 253.679 80.4223L253.659 80.4535L253.607 80.5055L246.372 88.3723C243.95 90.9738 241.477 93.544 238.982 96.0726C236.498 98.622 233.982 101.14 231.456 103.648L223.827 111.119L223.785 111.161L223.754 111.192C222.008 112.607 219.513 113.044 217.403 112.222C216.354 111.817 215.418 111.109 214.753 110.214C214.077 109.319 213.661 108.341 213.454 107.228L213.443 107.165V107.103C213.495 99.9748 213.786 92.8468 213.932 85.7292L214.15 75.0425C214.233 71.4733 214.254 67.9145 214.659 64.3037C214.878 62.5243 215.304 60.5056 216.707 58.9447C217.393 58.1747 218.287 57.5816 219.243 57.2278C220.199 56.874 221.197 56.7491 222.164 56.7283C224.108 56.6971 225.864 57.1133 227.631 57.4463C229.398 57.8209 231.134 58.2892 232.849 58.8407C239.699 61.0363 246.216 64.3974 251.476 69.2465Z" fill="black"/>
<path d="M284.207 114.127C284.301 101.723 276.391 89.6522 274.665 87.1236C273.491 85.3963 271.713 82.9821 268.969 82.5659C267.701 82.3786 266.173 82.6075 264.271 83.7417C259.905 86.3224 247.463 97.2068 231.311 112.67C231.176 112.847 229.533 115.074 230.427 117.748C231.082 119.704 232.828 121.13 234.918 121.421C249.127 121.941 263.346 122.451 277.555 122.972C278.698 122.701 280.996 121.973 282.565 119.912C284.02 118.029 284.197 115.885 284.207 114.127Z" fill="#FBF6B4"/>
<path d="M284.104 114.127C284.093 110.578 283.438 107.04 282.285 103.7C281.172 100.339 279.645 97.1444 277.909 94.0747C277.036 92.545 276.142 91.0362 275.185 89.5586C274.229 88.0914 273.262 86.5929 272.161 85.4067C271.038 84.2308 269.676 83.3984 268.169 83.388C266.662 83.3567 265.113 84.0539 263.668 84.9904C257.837 88.8926 252.37 93.5544 247.142 98.3411C241.892 103.149 236.934 108.247 231.893 113.263L231.976 113.169C231.54 113.804 231.207 114.637 231.113 115.427C230.999 116.229 231.124 117.019 231.436 117.737C232.059 119.194 233.504 120.235 235.074 120.422L234.97 120.412L245.634 120.693C249.189 120.807 252.744 120.942 256.289 121.119C259.843 121.275 263.388 121.473 266.943 121.733L277.586 122.576L277.483 122.587C278.439 122.399 279.374 122.087 280.237 121.619C281.11 121.161 281.869 120.516 282.482 119.746C283.095 118.976 283.532 118.06 283.771 117.103C284.01 116.135 284.083 115.126 284.104 114.127ZM284.312 114.127C284.312 115.136 284.26 116.166 284.021 117.165C283.781 118.164 283.376 119.132 282.773 119.975C281.557 121.671 279.665 122.805 277.659 123.357L277.628 123.367H277.555L266.88 123.429C263.325 123.429 259.771 123.367 256.216 123.263C252.661 123.18 249.106 123.055 245.551 122.909L234.897 122.42H234.835L234.783 122.41C232.558 122.087 230.542 120.568 229.7 118.466C229.284 117.425 229.159 116.249 229.357 115.157C229.554 114.054 229.98 113.086 230.656 112.16L230.698 112.108L230.739 112.066C235.988 107.248 241.383 102.597 246.695 97.852L254.657 90.724C257.318 88.3515 259.937 85.9374 262.858 83.7834C264.313 82.7324 266.07 81.6606 268.169 81.6294C269.198 81.6086 270.238 81.8583 271.152 82.3162C272.067 82.774 272.836 83.4192 273.501 84.1164C274.853 85.5211 275.747 87.082 276.703 88.6117C277.628 90.1621 278.47 91.7542 279.25 93.3775C282.274 99.9019 284.26 106.967 284.312 114.127Z" fill="black"/>
<path d="M198.986 84.7112C202.145 84.7112 204.706 82.1501 204.706 78.9909C204.706 75.8317 202.145 73.2706 198.986 73.2706C195.826 73.2706 193.265 75.8317 193.265 78.9909C193.265 82.1501 195.826 84.7112 198.986 84.7112Z" fill="white"/>
<path d="M204.733 79.1524C204.706 80.6599 204.127 82.1673 203.05 83.2979C201.987 84.442 200.372 85.0611 198.811 84.9804C195.607 84.7919 193.077 81.9251 193.09 78.8159C193.09 77.2681 193.71 75.6933 194.854 74.6031C195.984 73.4994 197.586 72.8534 199.174 72.9341C200.762 72.9745 202.324 73.7148 203.32 74.9261C204.302 76.1106 204.8 77.645 204.733 79.1524ZM204.666 79.1524C204.692 77.6584 204.046 76.1913 202.983 75.2088C201.933 74.2263 200.547 73.6475 199.147 73.6071C197.747 73.5802 196.334 74.0917 195.284 75.0473C194.234 76.0029 193.548 77.3623 193.454 78.8159C193.346 80.2561 193.871 81.777 194.907 82.8268C195.93 83.9036 197.411 84.4285 198.824 84.4151C200.251 84.4285 201.651 83.9036 202.768 82.9884C203.885 82.0731 204.612 80.6464 204.666 79.1524Z" fill="black"/>
<path d="M197.801 81.5482C199.801 81.5482 201.422 79.9272 201.422 77.9276C201.422 75.928 199.801 74.307 197.801 74.307C195.802 74.307 194.181 75.928 194.181 77.9276C194.181 79.9272 195.802 81.5482 197.801 81.5482Z" fill="black" stroke="black" stroke-width="0.75" stroke-miterlimit="10"/>
<path d="M192 69.5693C192.996 69.0309 194.678 68.2907 196.886 68.0484C199.201 67.7792 201.085 68.1695 202.189 68.4925" stroke="black" stroke-miterlimit="10" stroke-linecap="round"/>
<path d="M220.413 67.187C221.53 66.9985 223.361 66.837 225.528 67.3081C227.802 67.8061 229.458 68.7752 230.4 69.4347" stroke="black" stroke-miterlimit="10" stroke-linecap="round"/>
<path d="M207.438 83.5402C207.209 85.3168 208.448 86.8243 209.834 86.9858C211.355 87.1608 213.037 85.6937 212.93 83.7017" stroke="black" stroke-miterlimit="10" stroke-linecap="round"/>
<path d="M222.096 84.8727C225.255 84.8727 227.816 82.3116 227.816 79.1524C227.816 75.9932 225.255 73.4321 222.096 73.4321C218.936 73.4321 216.375 75.9932 216.375 79.1524C216.375 82.3116 218.936 84.8727 222.096 84.8727Z" fill="white"/>
<path d="M227.843 79.3274C227.816 80.8349 227.237 82.3423 226.16 83.4729C225.097 84.617 223.482 85.2361 221.921 85.1553C218.717 84.9669 216.187 82.1 216.2 78.9909C216.2 77.4431 216.819 75.8683 217.963 74.7781C219.094 73.6744 220.696 73.0284 222.284 73.1091C223.872 73.1495 225.433 73.8898 226.429 75.1011C227.425 76.2856 227.91 77.8199 227.843 79.3274ZM227.775 79.3274C227.802 77.8334 227.156 76.3663 226.093 75.3838C225.043 74.4012 223.657 73.8225 222.257 73.7821C220.857 73.7552 219.444 74.2666 218.394 75.2223C217.344 76.1779 216.658 77.5373 216.564 78.9909C216.456 80.4311 216.981 81.952 218.017 83.0018C219.04 84.0786 220.521 84.6035 221.934 84.59C223.361 84.6035 224.76 84.0786 225.878 83.1633C226.995 82.2481 227.735 80.8214 227.775 79.3274Z" fill="black"/>
<path d="M220.911 81.7232C222.91 81.7232 224.531 80.1022 224.531 78.1026C224.531 76.103 222.91 74.482 220.911 74.482C218.911 74.482 217.29 76.103 217.29 78.1026C217.29 80.1022 218.911 81.7232 220.911 81.7232Z" fill="black" stroke="black" stroke-width="0.75" stroke-miterlimit="10"/>
<path d="M91.5074 153.107C138.116 153.107 184.734 153.107 231.342 153.107C241.529 143.97 241.934 128.164 232.86 118.872C224.326 110.141 209.753 109.569 200.18 118.112C201.012 106.499 195.253 95.6356 185.742 90.724C173.799 84.5534 157.75 88.7261 149.258 101.38C145.204 92.3786 139.519 89.5274 137.492 88.6741C125.674 83.6793 107.847 91.3484 96.8189 109.756C93.7942 109.101 82.6619 107.061 72.4962 113.565C62.4865 119.964 59.5969 130.672 58.0585 136.385C56.2915 142.93 56.2707 148.622 56.541 152.358C68.2034 152.597 79.8554 152.847 91.5074 153.107Z" fill="white"/>
<path d="M91.5075 153.003C103.159 152.93 114.812 152.951 126.464 152.753L161.42 152.305C173.072 152.233 184.724 152.129 196.376 152.212C208.028 152.212 219.68 152.378 231.332 152.482L230.916 152.638C235.458 148.663 238.358 142.857 238.826 136.79C239.315 130.734 237.36 124.47 233.307 119.902C229.315 115.271 223.287 112.587 217.206 112.378C211.115 112.108 204.951 114.304 200.461 118.435L199.671 119.163L199.733 118.081C200.107 111.993 198.621 105.792 195.419 100.641C192.218 95.5107 187.229 91.4837 181.449 89.8291C175.701 88.0914 169.392 88.5388 163.821 90.7448C158.229 92.9509 153.437 96.9675 150.069 101.921L149.092 103.357L148.354 101.775C147.211 99.2984 145.807 96.9467 144.051 94.9072C142.315 92.8572 140.205 91.1299 137.845 89.9748C135.444 88.903 132.825 88.2995 130.154 88.2475C127.482 88.2266 124.811 88.7157 122.223 89.4753C119.624 90.2558 117.171 91.442 114.791 92.774C112.473 94.21 110.207 95.7604 108.19 97.6127C104.074 101.234 100.571 105.552 97.7233 110.266L97.3283 110.911L96.5903 110.755C91.1333 109.59 85.3748 109.652 80.0321 111.182C74.6895 112.711 69.8249 115.896 66.3116 120.245C62.736 124.574 60.5012 129.902 58.9525 135.396C57.279 140.849 56.5826 146.582 56.9152 152.295L56.5514 151.952C62.3722 152.16 68.2034 152.368 74.0242 152.503L91.5075 153.003ZM91.5075 153.211L74.0242 152.919C68.193 152.805 62.3722 152.763 56.541 152.711H56.2084L56.1772 152.368C55.6783 146.593 56.2396 140.693 57.7779 135.094C59.1915 129.506 61.3016 123.866 64.9916 119.205C68.6296 114.532 73.7748 111.026 79.4605 109.288C82.2981 108.393 85.2605 107.946 88.2229 107.883C91.1852 107.8 94.1476 108.091 97.0476 108.705L95.9147 109.194C98.8458 104.304 102.473 99.7979 106.766 95.9998C108.876 94.0643 111.246 92.4202 113.689 90.9009C116.194 89.4857 118.803 88.2162 121.578 87.3734C124.364 86.5617 127.253 86.0518 130.195 86.1039C133.137 86.1767 136.057 86.8635 138.77 88.1018C141.442 89.4337 143.739 91.3588 145.599 93.596C147.491 95.8229 148.957 98.3515 150.152 100.974L148.448 100.828C152.065 95.5835 157.2 91.3276 163.176 89.0799C169.122 86.8115 175.826 86.4264 181.917 88.3515C188.039 90.235 193.216 94.6158 196.448 100.027C199.691 105.459 201.116 111.889 200.617 118.154L199.889 117.8C202.259 115.729 205.024 114.116 207.986 113.065C210.949 112.014 214.108 111.556 217.247 111.702C223.515 111.962 229.648 114.772 233.826 119.475C238.046 124.147 240.115 130.609 239.678 136.874C239.325 143.159 236.446 149.298 231.748 153.585L231.581 153.741H231.342C219.69 153.856 208.038 154.012 196.376 154.012C184.724 154.095 173.072 153.991 161.409 153.918L126.453 153.471C114.812 153.263 103.159 153.284 91.5075 153.211Z" fill="black"/>
<path d="M239.772 153.107C286.38 153.107 332.998 153.107 379.606 153.107C389.793 143.97 390.198 128.164 381.124 118.872C372.59 110.141 358.017 109.569 348.444 118.112C349.276 106.499 343.517 95.6356 334.006 90.724C322.063 84.5534 306.015 88.7261 297.522 101.38C293.469 92.3786 287.783 89.5274 285.756 88.6741C273.938 83.6793 256.111 91.3484 245.083 109.756C242.058 109.101 230.926 107.061 220.76 113.565C210.751 119.964 207.861 130.672 206.323 136.385C204.556 142.93 204.535 148.622 204.805 152.358C216.468 152.597 228.12 152.847 239.772 153.107Z" fill="white"/>
<path d="M239.772 153.003C251.424 152.93 263.076 152.951 274.728 152.753L309.684 152.305C321.336 152.233 332.988 152.129 344.64 152.212C356.292 152.212 367.944 152.378 379.596 152.482L379.18 152.638C383.722 148.663 386.622 142.857 387.09 136.79C387.579 130.734 385.625 124.47 381.571 119.902C377.579 115.271 371.551 112.587 365.47 112.378C359.379 112.108 353.215 114.304 348.725 118.435L347.935 119.163L347.997 118.081C348.371 111.993 346.885 105.792 343.684 100.641C340.482 95.5107 335.493 91.4837 329.714 89.8291C323.966 88.0914 317.656 88.5388 312.085 90.7448C306.493 92.9509 301.701 96.9675 298.333 101.921L297.356 103.357L296.618 101.775C295.475 99.2984 294.072 96.9467 292.315 94.9072C290.579 92.8572 288.469 91.1299 286.109 89.9748C283.708 88.903 281.089 88.2995 278.418 88.2475C275.746 88.2266 273.075 88.7157 270.487 89.4753C267.888 90.2558 265.435 91.442 263.055 92.774C260.737 94.21 258.471 95.7604 256.455 97.6127C252.338 101.234 248.835 105.552 245.987 110.266L245.592 110.911L244.854 110.755C239.397 109.59 233.639 109.652 228.296 111.182C222.954 112.711 218.089 115.896 214.576 120.245C211 124.574 208.765 129.902 207.217 135.396C205.543 140.849 204.847 146.582 205.179 152.295L204.816 151.952C210.636 152.16 216.468 152.368 222.288 152.503L239.772 153.003ZM239.772 153.211L222.288 152.919C216.457 152.805 210.636 152.763 204.805 152.711H204.473L204.441 152.368C203.942 146.593 204.504 140.693 206.042 135.094C207.456 129.506 209.566 123.866 213.256 119.205C216.894 114.532 222.039 111.026 227.725 109.288C230.562 108.393 233.525 107.946 236.487 107.883C239.449 107.8 242.412 108.091 245.312 108.705L244.179 109.194C247.11 104.304 250.738 99.7979 255.03 95.9998C257.141 94.0643 259.51 92.4202 261.953 90.9009C264.458 89.4857 267.067 88.2162 269.842 87.3734C272.628 86.5617 275.518 86.0518 278.459 86.1039C281.401 86.1767 284.322 86.8635 287.035 88.1018C289.706 89.4337 292.003 91.3588 293.864 93.596C295.755 95.8229 297.221 98.3515 298.416 100.974L296.712 100.828C300.329 95.5835 305.464 91.3276 311.44 89.0799C317.386 86.8115 324.09 86.4264 330.181 88.3515C336.304 90.235 341.48 94.6158 344.713 100.027C347.956 105.459 349.38 111.889 348.881 118.154L348.153 117.8C350.523 115.729 353.288 114.116 356.25 113.065C359.213 112.014 362.373 111.556 365.512 111.702C371.779 111.962 377.912 114.772 382.091 119.475C386.311 124.147 388.379 130.609 387.943 136.874C387.589 143.159 384.71 149.298 380.012 153.585L379.845 153.741H379.606C367.954 153.856 356.302 154.012 344.64 154.012C332.988 154.095 321.336 153.991 309.684 153.918L274.728 153.471C263.076 153.263 251.424 153.284 239.772 153.211Z" fill="black"/>
<g clip-path="url(#clip0)">
<path d="M15.6056 52.4764C16.9648 54.2159 26.2045 65.5934 42.3239 66.4424C59.8859 67.3745 70.7767 55.0232 72.0109 53.5833C74.0456 55.4727 82.8933 63.2796 96.6111 63.4794C111.004 63.6874 120.369 55.3645 122.279 53.5833C130.451 46.2758 130.776 33.6332 123.496 26.2007C116.65 19.2178 104.958 18.76 97.2782 25.5932C97.9453 16.3047 93.3255 7.61552 85.6952 3.68708C76.1137 -1.24845 63.2382 2.08074 56.4335 12.2015C53.1813 5.00211 48.6198 2.72161 46.9937 2.03913C37.5039 -1.96423 23.2024 4.17813 14.363 18.8932C12.2616 18.4271 3.46391 16.7458 -5.15032 21.9394C-10.6541 25.2519 -13.481 29.8046 -14.6902 32.0851C-19.9104 46.9583 -12.0967 60.3333 -3.04888 62.2143C3.23042 63.521 10.7022 59.4094 15.6056 52.4764Z" fill="white"/>
<path d="M15.6056 52.3932C16.1559 52.9591 16.5145 53.4419 16.9982 53.9329C17.4485 54.424 17.9322 54.8984 18.4075 55.3562C19.3748 56.2717 20.3755 57.1706 21.4346 57.9862C23.536 59.6425 25.7959 61.074 28.1892 62.2476C30.5742 63.4211 33.0759 64.3699 35.661 64.9692L36.6283 65.2106C36.9535 65.2771 37.2787 65.3271 37.6123 65.3853C38.2711 65.4935 38.9215 65.6184 39.572 65.7099C40.8979 65.8015 42.2071 66.0012 43.5414 65.943H45.5261L47.5024 65.7516L48.4864 65.66L49.4621 65.4852L51.4134 65.1273C53.9818 64.5031 56.4919 63.6542 58.8935 62.5472C63.6385 60.2584 68.0248 57.0624 71.4772 53.1173L71.9525 52.5763L72.4862 53.059C79.4243 59.3429 88.7807 63.0299 98.1704 62.7386C107.535 62.5222 116.85 58.5189 123.429 51.7856C126.59 48.3482 128.391 43.679 128.349 38.9765C128.341 34.2824 126.498 29.5965 123.163 26.2424C119.86 22.8549 115.124 21.0239 110.421 20.9822C105.709 20.9157 100.989 22.6635 97.5117 25.8345L96.8779 26.4088L96.9279 25.5516C97.2365 20.6743 96.0356 15.7221 93.4756 11.6022C90.9071 7.49069 86.9127 4.26137 82.2679 2.92137C77.6397 1.53143 72.5779 1.89764 68.0999 3.67044C63.6051 5.44323 59.7775 8.66423 57.0673 12.626L56.2918 13.7579L55.7164 12.5094C54.7991 10.5286 53.6733 8.64758 52.264 7.01628C50.8714 5.37665 49.1786 3.99504 47.2773 3.06286C45.3509 2.20559 43.2412 1.72286 41.098 1.68125C38.9466 1.6646 36.8034 2.05578 34.727 2.67168C32.6506 3.30423 30.6826 4.26969 28.7729 5.32671C26.9133 6.47528 25.1037 7.71541 23.4776 9.1969C20.1754 12.0933 17.3651 15.5473 15.0802 19.3176L14.7633 19.842L14.1629 19.7171C8.75087 18.5603 2.93856 19.018 -2.1149 21.2735C-2.74867 21.5565 -3.3741 21.8395 -3.97451 22.1891C-4.5916 22.5053 -5.17533 22.8716 -5.75906 23.2461C-6.91819 24.0118 -8.00227 24.8774 -9.01963 25.8179C-11.0377 27.7155 -12.7472 29.9544 -14.0731 32.393L-14.0314 32.2932C-14.7486 34.5487 -15.4073 36.8458 -15.5741 39.2096C-15.7576 40.3831 -15.6742 41.5733 -15.7159 42.7552C-15.5991 43.9287 -15.5741 45.1189 -15.3156 46.2841C-15.1572 47.4576 -14.7986 48.5896 -14.49 49.7381L-13.8646 51.4027C-13.6728 51.9687 -13.3559 52.4681 -13.1141 53.0091C-12.03 55.1065 -10.6207 57.054 -8.86953 58.6354C-7.11833 60.2168 -4.99187 61.407 -2.69029 61.8481C-0.380379 62.2892 2.04628 61.9646 4.29783 61.1906C6.54103 60.3749 8.65914 59.1681 10.5271 57.645C10.9941 57.2621 11.4611 56.8793 11.8947 56.4631C12.345 56.0636 12.7703 55.6308 13.1872 55.1897C13.6209 54.7652 13.9878 54.2908 14.3964 53.833L15.6056 52.3932ZM15.6056 52.5596C15.2553 53.059 14.9635 53.5251 14.5882 53.9912C14.1963 54.4573 13.8377 54.9483 13.4124 55.3894C13.0038 55.8472 12.5952 56.2966 12.1449 56.7128C11.7196 57.1539 11.2526 57.5534 10.7939 57.9529C8.94267 59.5509 6.82455 60.8576 4.52298 61.7648C2.2214 62.6304 -0.322006 63.0799 -2.81538 62.6471C-5.30875 62.2226 -7.60199 60.9908 -9.47828 59.3595C-11.3712 57.7282 -12.8973 55.714 -14.0731 53.5251C-14.3399 52.9675 -14.6818 52.4348 -14.8987 51.8522L-15.5908 50.121C-15.941 48.9308 -16.3413 47.7489 -16.5331 46.5171C-16.8166 45.302 -16.8667 44.0535 -17.0001 42.8217C-16.9751 41.5816 -17.0751 40.3332 -16.9 39.1014C-16.7499 36.6128 -16.0995 34.1991 -15.374 31.8271L-15.3656 31.7855L-15.3323 31.7272C-13.9647 29.1304 -12.1968 26.7501 -10.0703 24.7026C-9.01129 23.6872 -7.8605 22.7467 -6.643 21.9227C-6.02591 21.5149 -5.40882 21.1154 -4.75838 20.7742C-4.12461 20.3996 -3.45749 20.075 -2.78202 19.7671C-0.105191 18.5186 2.81347 17.8278 5.74048 17.5282C8.67582 17.2619 11.6445 17.42 14.5382 18.0442L13.6209 18.4354C15.9725 14.5236 18.8828 10.9198 22.3268 7.88187C24.0197 6.33379 25.9293 5.01876 27.8806 3.80361C29.8903 2.66336 31.9834 1.6646 34.2183 0.998763C36.4532 0.357893 38.7714 -0.058256 41.1314 -0.0166411C43.4913 0.0416198 45.8346 0.582613 48.0028 1.58137C50.1459 2.63839 51.9805 4.18646 53.4815 5.97591C54.9992 7.75702 56.175 9.77951 57.134 11.8686L55.7831 11.7521C58.6767 7.54895 62.8046 4.1615 67.5995 2.37205C72.3694 0.565967 77.7314 0.26634 82.6098 1.80609C87.5131 3.30423 91.666 6.78323 94.2678 11.1112C96.8696 15.4558 98.012 20.5994 97.6201 25.6015L97.0447 25.3185C100.714 22.1142 105.567 20.3247 110.429 20.4246C115.282 20.4829 120.094 22.4471 123.538 25.8678C126.999 29.2886 128.942 34.1159 128.992 38.9682C129.067 43.8122 127.357 48.7061 124.097 52.3765C120.794 55.9637 116.725 58.727 112.322 60.7744C110.12 61.7981 107.81 62.5888 105.442 63.1548C104.266 63.4711 103.057 63.6458 101.856 63.8456C100.639 63.9455 99.4296 64.1286 98.2121 64.1203C93.3421 64.295 88.4304 63.4794 83.869 61.7316C79.3159 59.9837 75.0963 57.387 71.5189 54.0661L72.5362 54.0078C68.8754 58.1194 64.3723 61.3487 59.4272 63.6875C56.9339 64.8194 54.3238 65.6766 51.6553 66.2593L49.6289 66.5922L48.6198 66.7503L47.5941 66.8252L45.5511 66.975L43.508 66.9417C42.1404 66.975 40.7895 66.742 39.4386 66.6255C38.7631 66.5173 38.096 66.3841 37.4288 66.2593C37.0953 66.1927 36.7617 66.1427 36.4282 66.0678L35.4442 65.8015C34.7937 65.6101 34.1182 65.4769 33.4845 65.2355L31.5582 64.553C30.3073 64.0204 29.0564 63.496 27.864 62.8385C25.4707 61.5651 23.2108 60.042 21.1427 58.3108C20.1003 57.4535 19.108 56.5297 18.174 55.5642C17.707 55.0815 17.2484 54.5821 16.8064 54.0744C16.5896 53.8164 16.3644 53.5667 16.1559 53.3004L15.8557 52.9342C15.764 52.8176 15.6973 52.6928 15.6056 52.5596Z" fill="black"/>
</g>
<defs>
<clipPath id="clip0">
<rect width="146" height="67" fill="white" transform="translate(-17)"/>
</clipPath>
</defs>
</svg>
